<?xml version="1.0" encoding="utf-8" standalone="no"?>
<!DOCTYPE svg PUBLIC "-//W3C//DTD SVG 1.1//EN"
  "http://www.w3.org/Graphics/SVG/1.1/DTD/svg11.dtd">
<!-- Created with matplotlib (http://matplotlib.org/) -->
<svg height="432pt" version="1.1" viewBox="0 0 432 432" width="432pt" xmlns="http://www.w3.org/2000/svg" xmlns:xlink="http://www.w3.org/1999/xlink">
 <defs>
  <style type="text/css">
*{stroke-linecap:butt;stroke-linejoin:round;}
  </style>
 </defs>
 <g id="figure_1">
  <g id="patch_1">
   <path d="M 0 432 
L 432 432 
L 432 0 
L 0 0 
z
" style="fill:#ffffff;"/>
  </g>
  <g id="axes_1">
   <g id="patch_2">
    <path d="M 49.418 390.332 
L 352.268333 390.332 
L 352.268333 81.023333 
L 49.418 81.023333 
z
" style="fill:#ffffff;"/>
   </g>
   <g id="matplotlib.axis_1">
    <g id="xtick_1">
     <g id="line2d_1">
      <defs>
       <path d="M 0 0 
L 0 4.8 
" id="m4cefe0e8ad" style="stroke:#262626;"/>
      </defs>
      <g>
       <use style="fill:#262626;stroke:#262626;" x="96.291945" xlink:href="#m4cefe0e8ad" y="390.332"/>
      </g>
     </g>
     <g id="text_1">
      <!-- −6.8 -->
      <defs>
       <path d="M 10.59375 35.5 
L 73.1875 35.5 
L 73.1875 27.203125 
L 10.59375 27.203125 
z
" id="DejaVuSans-2212"/>
       <path d="M 33.015625 40.375 
Q 26.375 40.375 22.484375 35.828125 
Q 18.609375 31.296875 18.609375 23.390625 
Q 18.609375 15.53125 22.484375 10.953125 
Q 26.375 6.390625 33.015625 6.390625 
Q 39.65625 6.390625 43.53125 10.953125 
Q 47.40625 15.53125 47.40625 23.390625 
Q 47.40625 31.296875 43.53125 35.828125 
Q 39.65625 40.375 33.015625 40.375 
z
M 52.59375 71.296875 
L 52.59375 62.3125 
Q 48.875 64.0625 45.09375 64.984375 
Q 41.3125 65.921875 37.59375 65.921875 
Q 27.828125 65.921875 22.671875 59.328125 
Q 17.53125 52.734375 16.796875 39.40625 
Q 19.671875 43.65625 24.015625 45.921875 
Q 28.375 48.1875 33.59375 48.1875 
Q 44.578125 48.1875 50.953125 41.515625 
Q 57.328125 34.859375 57.328125 23.390625 
Q 57.328125 12.15625 50.6875 5.359375 
Q 44.046875 -1.421875 33.015625 -1.421875 
Q 20.359375 -1.421875 13.671875 8.265625 
Q 6.984375 17.96875 6.984375 36.375 
Q 6.984375 53.65625 15.1875 63.9375 
Q 23.390625 74.21875 37.203125 74.21875 
Q 40.921875 74.21875 44.703125 73.484375 
Q 48.484375 72.75 52.59375 71.296875 
z
" id="DejaVuSans-36"/>
       <path d="M 10.6875 12.40625 
L 21 12.40625 
L 21 0 
L 10.6875 0 
z
" id="DejaVuSans-2e"/>
       <path d="M 31.78125 34.625 
Q 24.75 34.625 20.71875 30.859375 
Q 16.703125 27.09375 16.703125 20.515625 
Q 16.703125 13.921875 20.71875 10.15625 
Q 24.75 6.390625 31.78125 6.390625 
Q 38.8125 6.390625 42.859375 10.171875 
Q 46.921875 13.96875 46.921875 20.515625 
Q 46.921875 27.09375 42.890625 30.859375 
Q 38.875 34.625 31.78125 34.625 
z
M 21.921875 38.8125 
Q 15.578125 40.375 12.03125 44.71875 
Q 8.5 49.078125 8.5 55.328125 
Q 8.5 64.0625 14.71875 69.140625 
Q 20.953125 74.21875 31.78125 74.21875 
Q 42.671875 74.21875 48.875 69.140625 
Q 55.078125 64.0625 55.078125 55.328125 
Q 55.078125 49.078125 51.53125 44.71875 
Q 48 40.375 41.703125 38.8125 
Q 48.828125 37.15625 52.796875 32.3125 
Q 56.78125 27.484375 56.78125 20.515625 
Q 56.78125 9.90625 50.3125 4.234375 
Q 43.84375 -1.421875 31.78125 -1.421875 
Q 19.734375 -1.421875 13.25 4.234375 
Q 6.78125 9.90625 6.78125 20.515625 
Q 6.78125 27.484375 10.78125 32.3125 
Q 14.796875 37.15625 21.921875 38.8125 
z
M 18.3125 54.390625 
Q 18.3125 48.734375 21.84375 45.5625 
Q 25.390625 42.390625 31.78125 42.390625 
Q 38.140625 42.390625 41.71875 45.5625 
Q 45.3125 48.734375 45.3125 54.390625 
Q 45.3125 60.0625 41.71875 63.234375 
Q 38.140625 66.40625 31.78125 66.40625 
Q 25.390625 66.40625 21.84375 63.234375 
Q 18.3125 60.0625 18.3125 54.390625 
z
" id="DejaVuSans-38"/>
      </defs>
      <g style="fill:#262626;" transform="translate(85.607508 405.318625)scale(0.088 -0.088)">
       <use xlink:href="#DejaVuSans-2212"/>
       <use x="83.789062" xlink:href="#DejaVuSans-36"/>
       <use x="147.412109" xlink:href="#DejaVuSans-2e"/>
       <use x="179.199219" xlink:href="#DejaVuSans-38"/>
      </g>
     </g>
    </g>
    <g id="xtick_2">
     <g id="line2d_2">
      <g>
       <use style="fill:#262626;stroke:#262626;" x="145.690148" xlink:href="#m4cefe0e8ad" y="390.332"/>
      </g>
     </g>
     <g id="text_2">
      <!-- −6.6 -->
      <g style="fill:#262626;" transform="translate(135.00571 405.318625)scale(0.088 -0.088)">
       <use xlink:href="#DejaVuSans-2212"/>
       <use x="83.789062" xlink:href="#DejaVuSans-36"/>
       <use x="147.412109" xlink:href="#DejaVuSans-2e"/>
       <use x="179.199219" xlink:href="#DejaVuSans-36"/>
      </g>
     </g>
    </g>
    <g id="xtick_3">
     <g id="line2d_3">
      <g>
       <use style="fill:#262626;stroke:#262626;" x="195.08835" xlink:href="#m4cefe0e8ad" y="390.332"/>
      </g>
     </g>
     <g id="text_3">
      <!-- −6.4 -->
      <defs>
       <path d="M 37.796875 64.3125 
L 12.890625 25.390625 
L 37.796875 25.390625 
z
M 35.203125 72.90625 
L 47.609375 72.90625 
L 47.609375 25.390625 
L 58.015625 25.390625 
L 58.015625 17.1875 
L 47.609375 17.1875 
L 47.609375 0 
L 37.796875 0 
L 37.796875 17.1875 
L 4.890625 17.1875 
L 4.890625 26.703125 
z
" id="DejaVuSans-34"/>
      </defs>
      <g style="fill:#262626;" transform="translate(184.403913 405.318625)scale(0.088 -0.088)">
       <use xlink:href="#DejaVuSans-2212"/>
       <use x="83.789062" xlink:href="#DejaVuSans-36"/>
       <use x="147.412109" xlink:href="#DejaVuSans-2e"/>
       <use x="179.199219" xlink:href="#DejaVuSans-34"/>
      </g>
     </g>
    </g>
    <g id="xtick_4">
     <g id="line2d_4">
      <g>
       <use style="fill:#262626;stroke:#262626;" x="244.486553" xlink:href="#m4cefe0e8ad" y="390.332"/>
      </g>
     </g>
     <g id="text_4">
      <!-- −6.2 -->
      <defs>
       <path d="M 19.1875 8.296875 
L 53.609375 8.296875 
L 53.609375 0 
L 7.328125 0 
L 7.328125 8.296875 
Q 12.9375 14.109375 22.625 23.890625 
Q 32.328125 33.6875 34.8125 36.53125 
Q 39.546875 41.84375 41.421875 45.53125 
Q 43.3125 49.21875 43.3125 52.78125 
Q 43.3125 58.59375 39.234375 62.25 
Q 35.15625 65.921875 28.609375 65.921875 
Q 23.96875 65.921875 18.8125 64.3125 
Q 13.671875 62.703125 7.8125 59.421875 
L 7.8125 69.390625 
Q 13.765625 71.78125 18.9375 73 
Q 24.125 74.21875 28.421875 74.21875 
Q 39.75 74.21875 46.484375 68.546875 
Q 53.21875 62.890625 53.21875 53.421875 
Q 53.21875 48.921875 51.53125 44.890625 
Q 49.859375 40.875 45.40625 35.40625 
Q 44.1875 33.984375 37.640625 27.21875 
Q 31.109375 20.453125 19.1875 8.296875 
z
" id="DejaVuSans-32"/>
      </defs>
      <g style="fill:#262626;" transform="translate(233.802115 405.318625)scale(0.088 -0.088)">
       <use xlink:href="#DejaVuSans-2212"/>
       <use x="83.789062" xlink:href="#DejaVuSans-36"/>
       <use x="147.412109" xlink:href="#DejaVuSans-2e"/>
       <use x="179.199219" xlink:href="#DejaVuSans-32"/>
      </g>
     </g>
    </g>
    <g id="xtick_5">
     <g id="line2d_5">
      <g>
       <use style="fill:#262626;stroke:#262626;" x="293.884755" xlink:href="#m4cefe0e8ad" y="390.332"/>
      </g>
     </g>
     <g id="text_5">
      <!-- −6.0 -->
      <defs>
       <path d="M 31.78125 66.40625 
Q 24.171875 66.40625 20.328125 58.90625 
Q 16.5 51.421875 16.5 36.375 
Q 16.5 21.390625 20.328125 13.890625 
Q 24.171875 6.390625 31.78125 6.390625 
Q 39.453125 6.390625 43.28125 13.890625 
Q 47.125 21.390625 47.125 36.375 
Q 47.125 51.421875 43.28125 58.90625 
Q 39.453125 66.40625 31.78125 66.40625 
z
M 31.78125 74.21875 
Q 44.046875 74.21875 50.515625 64.515625 
Q 56.984375 54.828125 56.984375 36.375 
Q 56.984375 17.96875 50.515625 8.265625 
Q 44.046875 -1.421875 31.78125 -1.421875 
Q 19.53125 -1.421875 13.0625 8.265625 
Q 6.59375 17.96875 6.59375 36.375 
Q 6.59375 54.828125 13.0625 64.515625 
Q 19.53125 74.21875 31.78125 74.21875 
z
" id="DejaVuSans-30"/>
      </defs>
      <g style="fill:#262626;" transform="translate(283.200318 405.318625)scale(0.088 -0.088)">
       <use xlink:href="#DejaVuSans-2212"/>
       <use x="83.789062" xlink:href="#DejaVuSans-36"/>
       <use x="147.412109" xlink:href="#DejaVuSans-2e"/>
       <use x="179.199219" xlink:href="#DejaVuSans-30"/>
      </g>
     </g>
    </g>
    <g id="xtick_6">
     <g id="line2d_6">
      <g>
       <use style="fill:#262626;stroke:#262626;" x="343.282958" xlink:href="#m4cefe0e8ad" y="390.332"/>
      </g>
     </g>
     <g id="text_6">
      <!-- −5.8 -->
      <defs>
       <path d="M 10.796875 72.90625 
L 49.515625 72.90625 
L 49.515625 64.59375 
L 19.828125 64.59375 
L 19.828125 46.734375 
Q 21.96875 47.46875 24.109375 47.828125 
Q 26.265625 48.1875 28.421875 48.1875 
Q 40.625 48.1875 47.75 41.5 
Q 54.890625 34.8125 54.890625 23.390625 
Q 54.890625 11.625 47.5625 5.09375 
Q 40.234375 -1.421875 26.90625 -1.421875 
Q 22.3125 -1.421875 17.546875 -0.640625 
Q 12.796875 0.140625 7.71875 1.703125 
L 7.71875 11.625 
Q 12.109375 9.234375 16.796875 8.0625 
Q 21.484375 6.890625 26.703125 6.890625 
Q 35.15625 6.890625 40.078125 11.328125 
Q 45.015625 15.765625 45.015625 23.390625 
Q 45.015625 31 40.078125 35.4375 
Q 35.15625 39.890625 26.703125 39.890625 
Q 22.75 39.890625 18.8125 39.015625 
Q 14.890625 38.140625 10.796875 36.28125 
z
" id="DejaVuSans-35"/>
      </defs>
      <g style="fill:#262626;" transform="translate(332.59852 405.318625)scale(0.088 -0.088)">
       <use xlink:href="#DejaVuSans-2212"/>
       <use x="83.789062" xlink:href="#DejaVuSans-35"/>
       <use x="147.412109" xlink:href="#DejaVuSans-2e"/>
       <use x="179.199219" xlink:href="#DejaVuSans-38"/>
      </g>
     </g>
    </g>
    <g id="text_7">
     <!-- log(p) -->
     <defs>
      <path d="M 9.421875 75.984375 
L 18.40625 75.984375 
L 18.40625 0 
L 9.421875 0 
z
" id="DejaVuSans-6c"/>
      <path d="M 30.609375 48.390625 
Q 23.390625 48.390625 19.1875 42.75 
Q 14.984375 37.109375 14.984375 27.296875 
Q 14.984375 17.484375 19.15625 11.84375 
Q 23.34375 6.203125 30.609375 6.203125 
Q 37.796875 6.203125 41.984375 11.859375 
Q 46.1875 17.53125 46.1875 27.296875 
Q 46.1875 37.015625 41.984375 42.703125 
Q 37.796875 48.390625 30.609375 48.390625 
z
M 30.609375 56 
Q 42.328125 56 49.015625 48.375 
Q 55.71875 40.765625 55.71875 27.296875 
Q 55.71875 13.875 49.015625 6.21875 
Q 42.328125 -1.421875 30.609375 -1.421875 
Q 18.84375 -1.421875 12.171875 6.21875 
Q 5.515625 13.875 5.515625 27.296875 
Q 5.515625 40.765625 12.171875 48.375 
Q 18.84375 56 30.609375 56 
z
" id="DejaVuSans-6f"/>
      <path d="M 45.40625 27.984375 
Q 45.40625 37.75 41.375 43.109375 
Q 37.359375 48.484375 30.078125 48.484375 
Q 22.859375 48.484375 18.828125 43.109375 
Q 14.796875 37.75 14.796875 27.984375 
Q 14.796875 18.265625 18.828125 12.890625 
Q 22.859375 7.515625 30.078125 7.515625 
Q 37.359375 7.515625 41.375 12.890625 
Q 45.40625 18.265625 45.40625 27.984375 
z
M 54.390625 6.78125 
Q 54.390625 -7.171875 48.1875 -13.984375 
Q 42 -20.796875 29.203125 -20.796875 
Q 24.46875 -20.796875 20.265625 -20.09375 
Q 16.0625 -19.390625 12.109375 -17.921875 
L 12.109375 -9.1875 
Q 16.0625 -11.328125 19.921875 -12.34375 
Q 23.78125 -13.375 27.78125 -13.375 
Q 36.625 -13.375 41.015625 -8.765625 
Q 45.40625 -4.15625 45.40625 5.171875 
L 45.40625 9.625 
Q 42.625 4.78125 38.28125 2.390625 
Q 33.9375 0 27.875 0 
Q 17.828125 0 11.671875 7.65625 
Q 5.515625 15.328125 5.515625 27.984375 
Q 5.515625 40.671875 11.671875 48.328125 
Q 17.828125 56 27.875 56 
Q 33.9375 56 38.28125 53.609375 
Q 42.625 51.21875 45.40625 46.390625 
L 45.40625 54.6875 
L 54.390625 54.6875 
z
" id="DejaVuSans-67"/>
      <path d="M 31 75.875 
Q 24.46875 64.65625 21.28125 53.65625 
Q 18.109375 42.671875 18.109375 31.390625 
Q 18.109375 20.125 21.3125 9.0625 
Q 24.515625 -2 31 -13.1875 
L 23.1875 -13.1875 
Q 15.875 -1.703125 12.234375 9.375 
Q 8.59375 20.453125 8.59375 31.390625 
Q 8.59375 42.28125 12.203125 53.3125 
Q 15.828125 64.359375 23.1875 75.875 
z
" id="DejaVuSans-28"/>
      <path d="M 18.109375 8.203125 
L 18.109375 -20.796875 
L 9.078125 -20.796875 
L 9.078125 54.6875 
L 18.109375 54.6875 
L 18.109375 46.390625 
Q 20.953125 51.265625 25.265625 53.625 
Q 29.59375 56 35.59375 56 
Q 45.5625 56 51.78125 48.09375 
Q 58.015625 40.1875 58.015625 27.296875 
Q 58.015625 14.40625 51.78125 6.484375 
Q 45.5625 -1.421875 35.59375 -1.421875 
Q 29.59375 -1.421875 25.265625 0.953125 
Q 20.953125 3.328125 18.109375 8.203125 
z
M 48.6875 27.296875 
Q 48.6875 37.203125 44.609375 42.84375 
Q 40.53125 48.484375 33.40625 48.484375 
Q 26.265625 48.484375 22.1875 42.84375 
Q 18.109375 37.203125 18.109375 27.296875 
Q 18.109375 17.390625 22.1875 11.75 
Q 26.265625 6.109375 33.40625 6.109375 
Q 40.53125 6.109375 44.609375 11.75 
Q 48.6875 17.390625 48.6875 27.296875 
z
" id="DejaVuSans-70"/>
      <path d="M 8.015625 75.875 
L 15.828125 75.875 
Q 23.140625 64.359375 26.78125 53.3125 
Q 30.421875 42.28125 30.421875 31.390625 
Q 30.421875 20.453125 26.78125 9.375 
Q 23.140625 -1.703125 15.828125 -13.1875 
L 8.015625 -13.1875 
Q 14.5 -2 17.703125 9.0625 
Q 20.90625 20.125 20.90625 31.390625 
Q 20.90625 42.671875 17.703125 53.65625 
Q 14.5 64.65625 8.015625 75.875 
z
" id="DejaVuSans-29"/>
     </defs>
     <g style="fill:#262626;" transform="translate(186.732667 418.44325)scale(0.096 -0.096)">
      <use xlink:href="#DejaVuSans-6c"/>
      <use x="27.783203" xlink:href="#DejaVuSans-6f"/>
      <use x="88.964844" xlink:href="#DejaVuSans-67"/>
      <use x="152.441406" xlink:href="#DejaVuSans-28"/>
      <use x="191.455078" xlink:href="#DejaVuSans-70"/>
      <use x="254.931641" xlink:href="#DejaVuSans-29"/>
     </g>
    </g>
   </g>
   <g id="matplotlib.axis_2">
    <g id="ytick_1">
     <g id="line2d_7">
      <defs>
       <path d="M 0 0 
L -4.8 0 
" id="m75b2ca5286" style="stroke:#262626;"/>
      </defs>
      <g>
       <use style="fill:#262626;stroke:#262626;" x="49.418" xlink:href="#m75b2ca5286" y="390.332"/>
      </g>
     </g>
     <g id="text_8">
      <!-- 0 -->
      <g style="fill:#262626;" transform="translate(35.519 393.675313)scale(0.088 -0.088)">
       <use xlink:href="#DejaVuSans-30"/>
      </g>
     </g>
    </g>
    <g id="ytick_2">
     <g id="line2d_8">
      <g>
       <use style="fill:#262626;stroke:#262626;" x="49.418" xlink:href="#m75b2ca5286" y="334.094061"/>
      </g>
     </g>
     <g id="text_9">
      <!-- 20 -->
      <g style="fill:#262626;" transform="translate(29.92 337.437373)scale(0.088 -0.088)">
       <use xlink:href="#DejaVuSans-32"/>
       <use x="63.623047" xlink:href="#DejaVuSans-30"/>
      </g>
     </g>
    </g>
    <g id="ytick_3">
     <g id="line2d_9">
      <g>
       <use style="fill:#262626;stroke:#262626;" x="49.418" xlink:href="#m75b2ca5286" y="277.856121"/>
      </g>
     </g>
     <g id="text_10">
      <!-- 40 -->
      <g style="fill:#262626;" transform="translate(29.92 281.199434)scale(0.088 -0.088)">
       <use xlink:href="#DejaVuSans-34"/>
       <use x="63.623047" xlink:href="#DejaVuSans-30"/>
      </g>
     </g>
    </g>
    <g id="ytick_4">
     <g id="line2d_10">
      <g>
       <use style="fill:#262626;stroke:#262626;" x="49.418" xlink:href="#m75b2ca5286" y="221.618182"/>
      </g>
     </g>
     <g id="text_11">
      <!-- 60 -->
      <g style="fill:#262626;" transform="translate(29.92 224.961494)scale(0.088 -0.088)">
       <use xlink:href="#DejaVuSans-36"/>
       <use x="63.623047" xlink:href="#DejaVuSans-30"/>
      </g>
     </g>
    </g>
    <g id="ytick_5">
     <g id="line2d_11">
      <g>
       <use style="fill:#262626;stroke:#262626;" x="49.418" xlink:href="#m75b2ca5286" y="165.380242"/>
      </g>
     </g>
     <g id="text_12">
      <!-- 80 -->
      <g style="fill:#262626;" transform="translate(29.92 168.723555)scale(0.088 -0.088)">
       <use xlink:href="#DejaVuSans-38"/>
       <use x="63.623047" xlink:href="#DejaVuSans-30"/>
      </g>
     </g>
    </g>
    <g id="ytick_6">
     <g id="line2d_12">
      <g>
       <use style="fill:#262626;stroke:#262626;" x="49.418" xlink:href="#m75b2ca5286" y="109.142303"/>
      </g>
     </g>
     <g id="text_13">
      <!-- 100 -->
      <defs>
       <path d="M 12.40625 8.296875 
L 28.515625 8.296875 
L 28.515625 63.921875 
L 10.984375 60.40625 
L 10.984375 69.390625 
L 28.421875 72.90625 
L 38.28125 72.90625 
L 38.28125 8.296875 
L 54.390625 8.296875 
L 54.390625 0 
L 12.40625 0 
z
" id="DejaVuSans-31"/>
      </defs>
      <g style="fill:#262626;" transform="translate(24.321 112.485616)scale(0.088 -0.088)">
       <use xlink:href="#DejaVuSans-31"/>
       <use x="63.623047" xlink:href="#DejaVuSans-30"/>
       <use x="127.246094" xlink:href="#DejaVuSans-30"/>
      </g>
     </g>
    </g>
    <g id="text_14">
     <!-- Time to cancer -->
     <defs>
      <path d="M -0.296875 72.90625 
L 61.375 72.90625 
L 61.375 64.59375 
L 35.5 64.59375 
L 35.5 0 
L 25.59375 0 
L 25.59375 64.59375 
L -0.296875 64.59375 
z
" id="DejaVuSans-54"/>
      <path d="M 9.421875 54.6875 
L 18.40625 54.6875 
L 18.40625 0 
L 9.421875 0 
z
M 9.421875 75.984375 
L 18.40625 75.984375 
L 18.40625 64.59375 
L 9.421875 64.59375 
z
" id="DejaVuSans-69"/>
      <path d="M 52 44.1875 
Q 55.375 50.25 60.0625 53.125 
Q 64.75 56 71.09375 56 
Q 79.640625 56 84.28125 50.015625 
Q 88.921875 44.046875 88.921875 33.015625 
L 88.921875 0 
L 79.890625 0 
L 79.890625 32.71875 
Q 79.890625 40.578125 77.09375 44.375 
Q 74.3125 48.1875 68.609375 48.1875 
Q 61.625 48.1875 57.5625 43.546875 
Q 53.515625 38.921875 53.515625 30.90625 
L 53.515625 0 
L 44.484375 0 
L 44.484375 32.71875 
Q 44.484375 40.625 41.703125 44.40625 
Q 38.921875 48.1875 33.109375 48.1875 
Q 26.21875 48.1875 22.15625 43.53125 
Q 18.109375 38.875 18.109375 30.90625 
L 18.109375 0 
L 9.078125 0 
L 9.078125 54.6875 
L 18.109375 54.6875 
L 18.109375 46.1875 
Q 21.1875 51.21875 25.484375 53.609375 
Q 29.78125 56 35.6875 56 
Q 41.65625 56 45.828125 52.96875 
Q 50 49.953125 52 44.1875 
z
" id="DejaVuSans-6d"/>
      <path d="M 56.203125 29.59375 
L 56.203125 25.203125 
L 14.890625 25.203125 
Q 15.484375 15.921875 20.484375 11.0625 
Q 25.484375 6.203125 34.421875 6.203125 
Q 39.59375 6.203125 44.453125 7.46875 
Q 49.3125 8.734375 54.109375 11.28125 
L 54.109375 2.78125 
Q 49.265625 0.734375 44.1875 -0.34375 
Q 39.109375 -1.421875 33.890625 -1.421875 
Q 20.796875 -1.421875 13.15625 6.1875 
Q 5.515625 13.8125 5.515625 26.8125 
Q 5.515625 40.234375 12.765625 48.109375 
Q 20.015625 56 32.328125 56 
Q 43.359375 56 49.78125 48.890625 
Q 56.203125 41.796875 56.203125 29.59375 
z
M 47.21875 32.234375 
Q 47.125 39.59375 43.09375 43.984375 
Q 39.0625 48.390625 32.421875 48.390625 
Q 24.90625 48.390625 20.390625 44.140625 
Q 15.875 39.890625 15.1875 32.171875 
z
" id="DejaVuSans-65"/>
      <path id="DejaVuSans-20"/>
      <path d="M 18.3125 70.21875 
L 18.3125 54.6875 
L 36.8125 54.6875 
L 36.8125 47.703125 
L 18.3125 47.703125 
L 18.3125 18.015625 
Q 18.3125 11.328125 20.140625 9.421875 
Q 21.96875 7.515625 27.59375 7.515625 
L 36.8125 7.515625 
L 36.8125 0 
L 27.59375 0 
Q 17.1875 0 13.234375 3.875 
Q 9.28125 7.765625 9.28125 18.015625 
L 9.28125 47.703125 
L 2.6875 47.703125 
L 2.6875 54.6875 
L 9.28125 54.6875 
L 9.28125 70.21875 
z
" id="DejaVuSans-74"/>
      <path d="M 48.78125 52.59375 
L 48.78125 44.1875 
Q 44.96875 46.296875 41.140625 47.34375 
Q 37.3125 48.390625 33.40625 48.390625 
Q 24.65625 48.390625 19.8125 42.84375 
Q 14.984375 37.3125 14.984375 27.296875 
Q 14.984375 17.28125 19.8125 11.734375 
Q 24.65625 6.203125 33.40625 6.203125 
Q 37.3125 6.203125 41.140625 7.25 
Q 44.96875 8.296875 48.78125 10.40625 
L 48.78125 2.09375 
Q 45.015625 0.34375 40.984375 -0.53125 
Q 36.96875 -1.421875 32.421875 -1.421875 
Q 20.0625 -1.421875 12.78125 6.34375 
Q 5.515625 14.109375 5.515625 27.296875 
Q 5.515625 40.671875 12.859375 48.328125 
Q 20.21875 56 33.015625 56 
Q 37.15625 56 41.109375 55.140625 
Q 45.0625 54.296875 48.78125 52.59375 
z
" id="DejaVuSans-63"/>
      <path d="M 34.28125 27.484375 
Q 23.390625 27.484375 19.1875 25 
Q 14.984375 22.515625 14.984375 16.5 
Q 14.984375 11.71875 18.140625 8.90625 
Q 21.296875 6.109375 26.703125 6.109375 
Q 34.1875 6.109375 38.703125 11.40625 
Q 43.21875 16.703125 43.21875 25.484375 
L 43.21875 27.484375 
z
M 52.203125 31.203125 
L 52.203125 0 
L 43.21875 0 
L 43.21875 8.296875 
Q 40.140625 3.328125 35.546875 0.953125 
Q 30.953125 -1.421875 24.3125 -1.421875 
Q 15.921875 -1.421875 10.953125 3.296875 
Q 6 8.015625 6 15.921875 
Q 6 25.140625 12.171875 29.828125 
Q 18.359375 34.515625 30.609375 34.515625 
L 43.21875 34.515625 
L 43.21875 35.40625 
Q 43.21875 41.609375 39.140625 45 
Q 35.0625 48.390625 27.6875 48.390625 
Q 23 48.390625 18.546875 47.265625 
Q 14.109375 46.140625 10.015625 43.890625 
L 10.015625 52.203125 
Q 14.9375 54.109375 19.578125 55.046875 
Q 24.21875 56 28.609375 56 
Q 40.484375 56 46.34375 49.84375 
Q 52.203125 43.703125 52.203125 31.203125 
z
" id="DejaVuSans-61"/>
      <path d="M 54.890625 33.015625 
L 54.890625 0 
L 45.90625 0 
L 45.90625 32.71875 
Q 45.90625 40.484375 42.875 44.328125 
Q 39.84375 48.1875 33.796875 48.1875 
Q 26.515625 48.1875 22.3125 43.546875 
Q 18.109375 38.921875 18.109375 30.90625 
L 18.109375 0 
L 9.078125 0 
L 9.078125 54.6875 
L 18.109375 54.6875 
L 18.109375 46.1875 
Q 21.34375 51.125 25.703125 53.5625 
Q 30.078125 56 35.796875 56 
Q 45.21875 56 50.046875 50.171875 
Q 54.890625 44.34375 54.890625 33.015625 
z
" id="DejaVuSans-6e"/>
      <path d="M 41.109375 46.296875 
Q 39.59375 47.171875 37.8125 47.578125 
Q 36.03125 48 33.890625 48 
Q 26.265625 48 22.1875 43.046875 
Q 18.109375 38.09375 18.109375 28.8125 
L 18.109375 0 
L 9.078125 0 
L 9.078125 54.6875 
L 18.109375 54.6875 
L 18.109375 46.1875 
Q 20.953125 51.171875 25.484375 53.578125 
Q 30.03125 56 36.53125 56 
Q 37.453125 56 38.578125 55.875 
Q 39.703125 55.765625 41.0625 55.515625 
z
" id="DejaVuSans-72"/>
     </defs>
     <g style="fill:#262626;" transform="translate(18.3245 271.628167)rotate(-90)scale(0.096 -0.096)">
      <use xlink:href="#DejaVuSans-54"/>
      <use x="61.037109" xlink:href="#DejaVuSans-69"/>
      <use x="88.820312" xlink:href="#DejaVuSans-6d"/>
      <use x="186.232422" xlink:href="#DejaVuSans-65"/>
      <use x="247.755859" xlink:href="#DejaVuSans-20"/>
      <use x="279.542969" xlink:href="#DejaVuSans-74"/>
      <use x="318.751953" xlink:href="#DejaVuSans-6f"/>
      <use x="379.933594" xlink:href="#DejaVuSans-20"/>
      <use x="411.720703" xlink:href="#DejaVuSans-63"/>
      <use x="466.701172" xlink:href="#DejaVuSans-61"/>
      <use x="527.980469" xlink:href="#DejaVuSans-6e"/>
      <use x="591.359375" xlink:href="#DejaVuSans-63"/>
      <use x="646.339844" xlink:href="#DejaVuSans-65"/>
      <use x="707.863281" xlink:href="#DejaVuSans-72"/>
     </g>
    </g>
   </g>
   <g id="PathCollection_1">
    <defs>
     <path d="M 0 2.4 
C 0.636487 2.4 1.246992 2.147121 1.697056 1.697056 
C 2.147121 1.246992 2.4 0.636487 2.4 0 
C 2.4 -0.636487 2.147121 -1.246992 1.697056 -1.697056 
C 1.246992 -2.147121 0.636487 -2.4 0 -2.4 
C -0.636487 -2.4 -1.246992 -2.147121 -1.697056 -1.697056 
C -2.147121 -1.246992 -2.4 -0.636487 -2.4 0 
C -2.4 0.636487 -2.147121 1.246992 -1.697056 1.697056 
C -1.246992 2.147121 -0.636487 2.4 0 2.4 
z
" id="m2138a17693" style="stroke:#471365;stroke-opacity:0.8;"/>
    </defs>
    <g clip-path="url(#p66f6da4a9b)">
     <use style="fill:#471365;fill-opacity:0.8;stroke:#471365;stroke-opacity:0.8;" x="249.385569" xlink:href="#m2138a17693" y="216.988182"/>
     <use style="fill:#471365;fill-opacity:0.8;stroke:#471365;stroke-opacity:0.8;" x="211.953839" xlink:href="#m2138a17693" y="214.962075"/>
     <use style="fill:#471365;fill-opacity:0.8;stroke:#471365;stroke-opacity:0.8;" x="192.20491" xlink:href="#m2138a17693" y="111.037445"/>
     <use style="fill:#471365;fill-opacity:0.8;stroke:#471365;stroke-opacity:0.8;" x="223.350051" xlink:href="#m2138a17693" y="150.981789"/>
     <use style="fill:#471365;fill-opacity:0.8;stroke:#471365;stroke-opacity:0.8;" x="161.256905" xlink:href="#m2138a17693" y="147.646032"/>
     <use style="fill:#471365;fill-opacity:0.8;stroke:#471365;stroke-opacity:0.8;" x="228.675723" xlink:href="#m2138a17693" y="128.80247"/>
     <use style="fill:#471365;fill-opacity:0.8;stroke:#471365;stroke-opacity:0.8;" x="262.157254" xlink:href="#m2138a17693" y="143.023736"/>
     <use style="fill:#471365;fill-opacity:0.8;stroke:#471365;stroke-opacity:0.8;" x="253.332979" xlink:href="#m2138a17693" y="126.984367"/>
     <use style="fill:#471365;fill-opacity:0.8;stroke:#471365;stroke-opacity:0.8;" x="205.93552" xlink:href="#m2138a17693" y="179.832622"/>
     <use style="fill:#471365;fill-opacity:0.8;stroke:#471365;stroke-opacity:0.8;" x="270.46338" xlink:href="#m2138a17693" y="110.197727"/>
     <use style="fill:#471365;fill-opacity:0.8;stroke:#471365;stroke-opacity:0.8;" x="263.536696" xlink:href="#m2138a17693" y="210.902158"/>
     <use style="fill:#471365;fill-opacity:0.8;stroke:#471365;stroke-opacity:0.8;" x="227.569092" xlink:href="#m2138a17693" y="187.890826"/>
     <use style="fill:#471365;fill-opacity:0.8;stroke:#471365;stroke-opacity:0.8;" x="226.961732" xlink:href="#m2138a17693" y="176.389012"/>
     <use style="fill:#471365;fill-opacity:0.8;stroke:#471365;stroke-opacity:0.8;" x="215.665924" xlink:href="#m2138a17693" y="218.459613"/>
     <use style="fill:#471365;fill-opacity:0.8;stroke:#471365;stroke-opacity:0.8;" x="219.091982" xlink:href="#m2138a17693" y="161.774851"/>
     <use style="fill:#471365;fill-opacity:0.8;stroke:#471365;stroke-opacity:0.8;" x="269.293977" xlink:href="#m2138a17693" y="157.075517"/>
     <use style="fill:#471365;fill-opacity:0.8;stroke:#471365;stroke-opacity:0.8;" x="235.986341" xlink:href="#m2138a17693" y="148.231523"/>
     <use style="fill:#471365;fill-opacity:0.8;stroke:#471365;stroke-opacity:0.8;" x="151.699157" xlink:href="#m2138a17693" y="139.757313"/>
     <use style="fill:#471365;fill-opacity:0.8;stroke:#471365;stroke-opacity:0.8;" x="259.069091" xlink:href="#m2138a17693" y="137.138011"/>
     <use style="fill:#471365;fill-opacity:0.8;stroke:#471365;stroke-opacity:0.8;" x="255.050474" xlink:href="#m2138a17693" y="112.593618"/>
     <use style="fill:#471365;fill-opacity:0.8;stroke:#471365;stroke-opacity:0.8;" x="252.637474" xlink:href="#m2138a17693" y="225.739729"/>
     <use style="fill:#471365;fill-opacity:0.8;stroke:#471365;stroke-opacity:0.8;" x="128.063006" xlink:href="#m2138a17693" y="130.320124"/>
     <use style="fill:#471365;fill-opacity:0.8;stroke:#471365;stroke-opacity:0.8;" x="273.623327" xlink:href="#m2138a17693" y="203.521891"/>
     <use style="fill:#471365;fill-opacity:0.8;stroke:#471365;stroke-opacity:0.8;" x="224.057647" xlink:href="#m2138a17693" y="214.438215"/>
     <use style="fill:#471365;fill-opacity:0.8;stroke:#471365;stroke-opacity:0.8;" x="270.990373" xlink:href="#m2138a17693" y="174.023937"/>
     <use style="fill:#471365;fill-opacity:0.8;stroke:#471365;stroke-opacity:0.8;" x="249.095104" xlink:href="#m2138a17693" y="169.817647"/>
     <use style="fill:#471365;fill-opacity:0.8;stroke:#471365;stroke-opacity:0.8;" x="256.690832" xlink:href="#m2138a17693" y="184.932556"/>
     <use style="fill:#471365;fill-opacity:0.8;stroke:#471365;stroke-opacity:0.8;" x="212.92534" xlink:href="#m2138a17693" y="124.149359"/>
     <use style="fill:#471365;fill-opacity:0.8;stroke:#471365;stroke-opacity:0.8;" x="193.713037" xlink:href="#m2138a17693" y="132.315416"/>
     <use style="fill:#471365;fill-opacity:0.8;stroke:#471365;stroke-opacity:0.8;" x="224.154765" xlink:href="#m2138a17693" y="163.307913"/>
     <use style="fill:#471365;fill-opacity:0.8;stroke:#471365;stroke-opacity:0.8;" x="263.405516" xlink:href="#m2138a17693" y="119.866031"/>
     <use style="fill:#471365;fill-opacity:0.8;stroke:#471365;stroke-opacity:0.8;" x="165.453239" xlink:href="#m2138a17693" y="153.377679"/>
     <use style="fill:#471365;fill-opacity:0.8;stroke:#471365;stroke-opacity:0.8;" x="160.392889" xlink:href="#m2138a17693" y="129.503519"/>
     <use style="fill:#471365;fill-opacity:0.8;stroke:#471365;stroke-opacity:0.8;" x="272.887931" xlink:href="#m2138a17693" y="240.954788"/>
     <use style="fill:#471365;fill-opacity:0.8;stroke:#471365;stroke-opacity:0.8;" x="207.980865" xlink:href="#m2138a17693" y="145.049842"/>
     <use style="fill:#471365;fill-opacity:0.8;stroke:#471365;stroke-opacity:0.8;" x="196.29169" xlink:href="#m2138a17693" y="135.212055"/>
     <use style="fill:#471365;fill-opacity:0.8;stroke:#471365;stroke-opacity:0.8;" x="202.809552" xlink:href="#m2138a17693" y="175.94219"/>
     <use style="fill:#471365;fill-opacity:0.8;stroke:#471365;stroke-opacity:0.8;" x="227.797332" xlink:href="#m2138a17693" y="172.860659"/>
     <use style="fill:#471365;fill-opacity:0.8;stroke:#471365;stroke-opacity:0.8;" x="140.952312" xlink:href="#m2138a17693" y="187.143555"/>
     <use style="fill:#471365;fill-opacity:0.8;stroke:#471365;stroke-opacity:0.8;" x="266.253298" xlink:href="#m2138a17693" y="136.960823"/>
     <use style="fill:#471365;fill-opacity:0.8;stroke:#471365;stroke-opacity:0.8;" x="246.691295" xlink:href="#m2138a17693" y="190.217382"/>
     <use style="fill:#471365;fill-opacity:0.8;stroke:#471365;stroke-opacity:0.8;" x="186.717503" xlink:href="#m2138a17693" y="138.301289"/>
     <use style="fill:#471365;fill-opacity:0.8;stroke:#471365;stroke-opacity:0.8;" x="258.384793" xlink:href="#m2138a17693" y="147.676847"/>
     <use style="fill:#471365;fill-opacity:0.8;stroke:#471365;stroke-opacity:0.8;" x="269.430675" xlink:href="#m2138a17693" y="193.830477"/>
     <use style="fill:#471365;fill-opacity:0.8;stroke:#471365;stroke-opacity:0.8;" x="239.006245" xlink:href="#m2138a17693" y="143.231739"/>
     <use style="fill:#471365;fill-opacity:0.8;stroke:#471365;stroke-opacity:0.8;" x="244.198406" xlink:href="#m2138a17693" y="174.324386"/>
     <use style="fill:#471365;fill-opacity:0.8;stroke:#471365;stroke-opacity:0.8;" x="247.132741" xlink:href="#m2138a17693" y="207.959296"/>
    </g>
   </g>
   <g id="PolyCollection_1">
    <defs>
     <path d="M 63.183924 -340.281693 
L 63.183924 -267.602873 
L 65.964919 -267.657321 
L 68.745914 -267.68488 
L 71.526909 -267.709175 
L 74.307903 -267.731368 
L 77.088898 -267.709853 
L 79.869893 -267.711478 
L 82.650888 -267.713104 
L 85.431883 -267.629971 
L 88.212877 -267.629279 
L 90.993872 -267.722213 
L 93.774867 -267.72342 
L 96.555862 -267.663283 
L 99.336857 -267.562181 
L 102.117851 -267.461079 
L 104.898846 -267.359977 
L 107.679841 -267.311287 
L 110.460836 -267.266921 
L 113.241831 -267.281099 
L 116.022825 -267.302421 
L 118.80382 -267.305545 
L 121.584815 -267.317124 
L 124.36581 -267.328704 
L 127.146805 -267.340283 
L 129.927799 -267.351862 
L 132.708794 -267.282004 
L 135.489789 -267.274762 
L 138.270784 -267.267521 
L 141.051779 -267.261978 
L 143.832773 -267.263211 
L 146.613768 -267.264443 
L 149.394763 -267.382944 
L 152.175758 -267.444497 
L 154.956753 -267.456076 
L 157.737747 -267.418882 
L 160.518742 -267.244795 
L 163.299737 -267.281426 
L 166.080732 -267.236838 
L 168.861727 -267.231548 
L 171.642721 -267.231278 
L 174.423716 -267.231472 
L 177.204711 -267.179478 
L 179.985706 -266.891755 
L 182.7667 -266.567084 
L 185.547695 -266.338034 
L 188.32869 -266.094561 
L 191.109685 -265.729057 
L 193.89068 -265.399025 
L 196.671674 -265.006802 
L 199.452669 -264.524339 
L 202.233664 -264.421178 
L 205.014659 -263.898487 
L 207.795654 -263.499362 
L 210.576648 -262.955073 
L 213.357643 -262.410332 
L 216.138638 -261.740823 
L 218.919633 -261.086722 
L 221.700628 -260.376061 
L 224.481622 -259.62134 
L 227.262617 -259.08081 
L 230.043612 -258.022518 
L 232.824607 -257.187844 
L 235.605602 -256.038856 
L 238.386596 -254.951201 
L 241.167591 -253.875619 
L 243.948586 -252.868907 
L 246.729581 -251.827759 
L 249.510576 -250.695556 
L 252.29157 -249.712921 
L 255.072565 -248.704317 
L 257.85356 -247.525658 
L 260.634555 -246.323004 
L 263.41555 -245.030046 
L 266.196544 -243.921906 
L 268.977539 -242.72619 
L 271.758534 -241.556658 
L 274.539529 -240.609528 
L 277.320524 -239.401545 
L 280.101518 -238.369297 
L 282.882513 -237.281576 
L 285.663508 -236.148038 
L 288.444503 -234.907897 
L 291.225498 -233.589696 
L 294.006492 -232.46231 
L 296.787487 -231.22789 
L 299.568482 -229.809006 
L 302.349477 -228.685967 
L 305.130472 -227.528821 
L 307.911466 -226.297556 
L 310.692461 -225.066291 
L 313.473456 -223.699272 
L 316.254451 -222.508212 
L 319.035446 -221.170144 
L 321.81644 -220.080568 
L 324.597435 -218.909969 
L 327.37843 -217.592898 
L 330.159425 -216.330532 
L 332.940419 -215.132413 
L 335.721414 -213.96285 
L 338.502409 -212.753646 
L 338.502409 -275.015134 
L 338.502409 -275.015134 
L 335.721414 -275.059523 
L 332.940419 -274.920822 
L 330.159425 -274.921757 
L 327.37843 -274.667921 
L 324.597435 -274.444068 
L 321.81644 -274.582879 
L 319.035446 -274.581303 
L 316.254451 -274.279926 
L 313.473456 -273.986536 
L 310.692461 -274.168282 
L 307.911466 -274.350029 
L 305.130472 -274.277634 
L 302.349477 -274.430595 
L 299.568482 -274.372677 
L 296.787487 -274.154957 
L 294.006492 -273.935514 
L 291.225498 -273.823055 
L 288.444503 -274.01135 
L 285.663508 -274.091222 
L 282.882513 -274.240053 
L 280.101518 -274.418712 
L 277.320524 -274.63381 
L 274.539529 -274.848907 
L 271.758534 -275.064005 
L 268.977539 -275.083238 
L 266.196544 -275.105279 
L 263.41555 -275.046918 
L 260.634555 -275.146121 
L 257.85356 -275.18396 
L 255.072565 -275.146391 
L 252.29157 -275.638171 
L 249.510576 -275.592162 
L 246.729581 -275.823135 
L 243.948586 -275.907108 
L 241.167591 -276.301345 
L 238.386596 -276.493932 
L 235.605602 -276.582415 
L 232.824607 -276.880555 
L 230.043612 -277.221774 
L 227.262617 -277.494654 
L 224.481622 -277.819133 
L 221.700628 -278.252155 
L 218.919633 -278.878953 
L 216.138638 -279.236879 
L 213.357643 -280.035181 
L 210.576648 -280.484753 
L 207.795654 -281.105784 
L 205.014659 -281.885728 
L 202.233664 -282.665147 
L 199.452669 -283.489796 
L 196.671674 -284.495953 
L 193.89068 -285.339065 
L 191.109685 -286.418188 
L 188.32869 -287.539127 
L 185.547695 -288.605792 
L 182.7667 -289.506309 
L 179.985706 -290.508521 
L 177.204711 -291.284704 
L 174.423716 -292.609825 
L 171.642721 -293.743699 
L 168.861727 -294.963592 
L 166.080732 -296.089172 
L 163.299737 -297.071174 
L 160.518742 -298.056158 
L 157.737747 -299.24789 
L 154.956753 -300.284794 
L 152.175758 -301.503528 
L 149.394763 -302.430729 
L 146.613768 -303.667939 
L 143.832773 -304.966256 
L 141.051779 -306.178625 
L 138.270784 -307.264725 
L 135.489789 -308.474727 
L 132.708794 -309.827633 
L 129.927799 -311.179494 
L 127.146805 -312.529622 
L 124.36581 -313.824537 
L 121.584815 -315.015071 
L 118.80382 -316.205604 
L 116.022825 -317.396138 
L 113.241831 -318.586342 
L 110.460836 -319.782764 
L 107.679841 -321.039485 
L 104.898846 -322.358443 
L 102.117851 -323.360633 
L 99.336857 -324.539339 
L 96.555862 -325.729872 
L 93.774867 -326.920406 
L 90.993872 -328.11094 
L 88.212877 -329.301473 
L 85.431883 -330.492007 
L 82.650888 -331.68254 
L 79.869893 -332.873074 
L 77.088898 -334.063607 
L 74.307903 -335.254141 
L 71.526909 -336.444674 
L 68.745914 -337.64853 
L 65.964919 -338.965111 
L 63.183924 -340.281693 
z
" id="m749af76e00" style="stroke:#ffffff;stroke-opacity:0.15;stroke-width:0.8;"/>
    </defs>
    <g clip-path="url(#p66f6da4a9b)">
     <use style="fill:#471365;fill-opacity:0.15;stroke:#ffffff;stroke-opacity:0.15;stroke-width:0.8;" x="0" xlink:href="#m749af76e00" y="432"/>
    </g>
   </g>
   <g id="line2d_13">
    <path clip-path="url(#p66f6da4a9b)" d="M 63.183924 128.255529 
L 65.964919 128.858239 
L 68.745914 129.460949 
L 71.526909 130.063659 
L 74.307903 130.666369 
L 77.088898 131.269079 
L 79.869893 131.871789 
L 82.650888 132.4745 
L 85.431883 133.07721 
L 88.212877 133.67992 
L 90.993872 134.28263 
L 93.774867 134.88534 
L 96.555862 135.48805 
L 99.336857 136.09076 
L 102.117851 136.69347 
L 104.898846 137.29618 
L 107.679841 137.898891 
L 110.460836 138.501601 
L 113.241831 139.104311 
L 116.022825 139.707021 
L 118.80382 140.309731 
L 121.584815 140.912441 
L 124.36581 141.515151 
L 127.146805 142.117861 
L 129.927799 142.720572 
L 132.708794 143.323282 
L 135.489789 143.925992 
L 138.270784 144.528702 
L 141.051779 145.131412 
L 143.832773 145.734122 
L 146.613768 146.336832 
L 149.394763 146.939542 
L 152.175758 147.542253 
L 154.956753 148.144963 
L 157.737747 148.747673 
L 160.518742 149.350383 
L 163.299737 149.953093 
L 166.080732 150.555803 
L 168.861727 151.158513 
L 171.642721 151.761223 
L 174.423716 152.363933 
L 177.204711 152.966644 
L 179.985706 153.569354 
L 182.7667 154.172064 
L 185.547695 154.774774 
L 188.32869 155.377484 
L 191.109685 155.980194 
L 193.89068 156.582904 
L 196.671674 157.185614 
L 199.452669 157.788325 
L 202.233664 158.391035 
L 205.014659 158.993745 
L 207.795654 159.596455 
L 210.576648 160.199165 
L 213.357643 160.801875 
L 216.138638 161.404585 
L 218.919633 162.007295 
L 221.700628 162.610006 
L 224.481622 163.212716 
L 227.262617 163.815426 
L 230.043612 164.418136 
L 232.824607 165.020846 
L 235.605602 165.623556 
L 238.386596 166.226266 
L 241.167591 166.828976 
L 243.948586 167.431687 
L 246.729581 168.034397 
L 249.510576 168.637107 
L 252.29157 169.239817 
L 255.072565 169.842527 
L 257.85356 170.445237 
L 260.634555 171.047947 
L 263.41555 171.650657 
L 266.196544 172.253367 
L 268.977539 172.856078 
L 271.758534 173.458788 
L 274.539529 174.061498 
L 277.320524 174.664208 
L 280.101518 175.266918 
L 282.882513 175.869628 
L 285.663508 176.472338 
L 288.444503 177.075048 
L 291.225498 177.677759 
L 294.006492 178.280469 
L 296.787487 178.883179 
L 299.568482 179.485889 
L 302.349477 180.088599 
L 305.130472 180.691309 
L 307.911466 181.294019 
L 310.692461 181.896729 
L 313.473456 182.49944 
L 316.254451 183.10215 
L 319.035446 183.70486 
L 321.81644 184.30757 
L 324.597435 184.91028 
L 327.37843 185.51299 
L 330.159425 186.1157 
L 332.940419 186.71841 
L 335.721414 187.32112 
L 338.502409 187.923831 
" style="fill:none;stroke:#471365;stroke-linecap:round;stroke-width:1.8;"/>
   </g>
   <g id="patch_3">
    <path d="M 49.418 390.332 
L 49.418 81.023333 
" style="fill:none;stroke:#262626;stroke-linecap:square;stroke-linejoin:miter;"/>
   </g>
   <g id="patch_4">
    <path d="M 49.418 390.332 
L 352.268333 390.332 
" style="fill:none;stroke:#262626;stroke-linecap:square;stroke-linejoin:miter;"/>
   </g>
   <g id="legend_1">
    <g id="patch_5">
     <path d="M 204.726708 100.980083 
L 346.108333 100.980083 
Q 347.868333 100.980083 347.868333 99.220083 
L 347.868333 87.183333 
Q 347.868333 85.423333 346.108333 85.423333 
L 204.726708 85.423333 
Q 202.966708 85.423333 202.966708 87.183333 
L 202.966708 99.220083 
Q 202.966708 100.980083 204.726708 100.980083 
z
" style="fill:#ffffff;opacity:0.8;stroke:#cccccc;stroke-linejoin:miter;stroke-width:0.8;"/>
    </g>
    <g id="line2d_14"/>
    <g id="line2d_15"/>
    <g id="text_15">
     <!-- pearsonr = -0.24; p = 0.1 -->
     <defs>
      <path d="M 44.28125 53.078125 
L 44.28125 44.578125 
Q 40.484375 46.53125 36.375 47.5 
Q 32.28125 48.484375 27.875 48.484375 
Q 21.1875 48.484375 17.84375 46.4375 
Q 14.5 44.390625 14.5 40.28125 
Q 14.5 37.15625 16.890625 35.375 
Q 19.28125 33.59375 26.515625 31.984375 
L 29.59375 31.296875 
Q 39.15625 29.25 43.1875 25.515625 
Q 47.21875 21.78125 47.21875 15.09375 
Q 47.21875 7.46875 41.1875 3.015625 
Q 35.15625 -1.421875 24.609375 -1.421875 
Q 20.21875 -1.421875 15.453125 -0.5625 
Q 10.6875 0.296875 5.421875 2 
L 5.421875 11.28125 
Q 10.40625 8.6875 15.234375 7.390625 
Q 20.0625 6.109375 24.8125 6.109375 
Q 31.15625 6.109375 34.5625 8.28125 
Q 37.984375 10.453125 37.984375 14.40625 
Q 37.984375 18.0625 35.515625 20.015625 
Q 33.0625 21.96875 24.703125 23.78125 
L 21.578125 24.515625 
Q 13.234375 26.265625 9.515625 29.90625 
Q 5.8125 33.546875 5.8125 39.890625 
Q 5.8125 47.609375 11.28125 51.796875 
Q 16.75 56 26.8125 56 
Q 31.78125 56 36.171875 55.265625 
Q 40.578125 54.546875 44.28125 53.078125 
z
" id="DejaVuSans-73"/>
      <path d="M 10.59375 45.40625 
L 73.1875 45.40625 
L 73.1875 37.203125 
L 10.59375 37.203125 
z
M 10.59375 25.484375 
L 73.1875 25.484375 
L 73.1875 17.1875 
L 10.59375 17.1875 
z
" id="DejaVuSans-3d"/>
      <path d="M 4.890625 31.390625 
L 31.203125 31.390625 
L 31.203125 23.390625 
L 4.890625 23.390625 
z
" id="DejaVuSans-2d"/>
      <path d="M 11.71875 51.703125 
L 22.015625 51.703125 
L 22.015625 39.3125 
L 11.71875 39.3125 
z
M 11.71875 12.40625 
L 22.015625 12.40625 
L 22.015625 4 
L 14.015625 -11.625 
L 7.71875 -11.625 
L 11.71875 4 
z
" id="DejaVuSans-3b"/>
     </defs>
     <g style="fill:#262626;" transform="translate(231.126708 95.629958)scale(0.088 -0.088)">
      <use xlink:href="#DejaVuSans-70"/>
      <use x="63.476562" xlink:href="#DejaVuSans-65"/>
      <use x="125" xlink:href="#DejaVuSans-61"/>
      <use x="186.279297" xlink:href="#DejaVuSans-72"/>
      <use x="227.392578" xlink:href="#DejaVuSans-73"/>
      <use x="279.492188" xlink:href="#DejaVuSans-6f"/>
      <use x="340.673828" xlink:href="#DejaVuSans-6e"/>
      <use x="404.052734" xlink:href="#DejaVuSans-72"/>
      <use x="445.166016" xlink:href="#DejaVuSans-20"/>
      <use x="476.953125" xlink:href="#DejaVuSans-3d"/>
      <use x="560.742188" xlink:href="#DejaVuSans-20"/>
      <use x="592.529297" xlink:href="#DejaVuSans-2d"/>
      <use x="628.613281" xlink:href="#DejaVuSans-30"/>
      <use x="692.236328" xlink:href="#DejaVuSans-2e"/>
      <use x="724.023438" xlink:href="#DejaVuSans-32"/>
      <use x="787.646484" xlink:href="#DejaVuSans-34"/>
      <use x="851.269531" xlink:href="#DejaVuSans-3b"/>
      <use x="884.960938" xlink:href="#DejaVuSans-20"/>
      <use x="916.748047" xlink:href="#DejaVuSans-70"/>
      <use x="980.224609" xlink:href="#DejaVuSans-20"/>
      <use x="1012.011719" xlink:href="#DejaVuSans-3d"/>
      <use x="1095.800781" xlink:href="#DejaVuSans-20"/>
      <use x="1127.587891" xlink:href="#DejaVuSans-30"/>
      <use x="1191.210938" xlink:href="#DejaVuSans-2e"/>
      <use x="1222.998047" xlink:href="#DejaVuSans-31"/>
     </g>
    </g>
   </g>
  </g>
  <g id="axes_2">
   <g id="patch_6">
    <path d="M 49.418 61.055333 
L 352.268333 61.055333 
L 352.268333 15.168 
L 49.418 15.168 
z
" style="fill:#ffffff;"/>
   </g>
   <g id="matplotlib.axis_3">
    <g id="xtick_7">
     <g id="line2d_16">
      <g>
       <use style="fill:#262626;stroke:#262626;" x="96.291945" xlink:href="#m4cefe0e8ad" y="61.055333"/>
      </g>
     </g>
    </g>
    <g id="xtick_8">
     <g id="line2d_17">
      <g>
       <use style="fill:#262626;stroke:#262626;" x="145.690148" xlink:href="#m4cefe0e8ad" y="61.055333"/>
      </g>
     </g>
    </g>
    <g id="xtick_9">
     <g id="line2d_18">
      <g>
       <use style="fill:#262626;stroke:#262626;" x="195.08835" xlink:href="#m4cefe0e8ad" y="61.055333"/>
      </g>
     </g>
    </g>
    <g id="xtick_10">
     <g id="line2d_19">
      <g>
       <use style="fill:#262626;stroke:#262626;" x="244.486553" xlink:href="#m4cefe0e8ad" y="61.055333"/>
      </g>
     </g>
    </g>
    <g id="xtick_11">
     <g id="line2d_20">
      <g>
       <use style="fill:#262626;stroke:#262626;" x="293.884755" xlink:href="#m4cefe0e8ad" y="61.055333"/>
      </g>
     </g>
    </g>
    <g id="xtick_12">
     <g id="line2d_21">
      <g>
       <use style="fill:#262626;stroke:#262626;" x="343.282958" xlink:href="#m4cefe0e8ad" y="61.055333"/>
      </g>
     </g>
    </g>
   </g>
   <g id="matplotlib.axis_4">
    <g id="ytick_7"/>
    <g id="ytick_8"/>
   </g>
   <g id="patch_7">
    <path clip-path="url(#pf88ae448b7)" d="M 128.063006 61.055333 
L 152.32306 61.055333 
L 152.32306 53.343176 
L 128.063006 53.343176 
z
" style="fill:#471365;opacity:0.4;stroke:#ffffff;stroke-linejoin:miter;stroke-width:0.8;"/>
   </g>
   <g id="patch_8">
    <path clip-path="url(#pf88ae448b7)" d="M 152.32306 61.055333 
L 176.583113 61.055333 
L 176.583113 53.343176 
L 152.32306 53.343176 
z
" style="fill:#471365;opacity:0.4;stroke:#ffffff;stroke-linejoin:miter;stroke-width:0.8;"/>
   </g>
   <g id="patch_9">
    <path clip-path="url(#pf88ae448b7)" d="M 176.583113 61.055333 
L 200.843167 61.055333 
L 200.843167 50.772458 
L 176.583113 50.772458 
z
" style="fill:#471365;opacity:0.4;stroke:#ffffff;stroke-linejoin:miter;stroke-width:0.8;"/>
   </g>
   <g id="patch_10">
    <path clip-path="url(#pf88ae448b7)" d="M 200.843167 61.055333 
L 225.10322 61.055333 
L 225.10322 35.348144 
L 200.843167 35.348144 
z
" style="fill:#471365;opacity:0.4;stroke:#ffffff;stroke-linejoin:miter;stroke-width:0.8;"/>
   </g>
   <g id="patch_11">
    <path clip-path="url(#pf88ae448b7)" d="M 225.10322 61.055333 
L 249.363274 61.055333 
L 249.363274 35.348144 
L 225.10322 35.348144 
z
" style="fill:#471365;opacity:0.4;stroke:#ffffff;stroke-linejoin:miter;stroke-width:0.8;"/>
   </g>
   <g id="patch_12">
    <path clip-path="url(#pf88ae448b7)" d="M 249.363274 61.055333 
L 273.623327 61.055333 
L 273.623327 17.353111 
L 249.363274 17.353111 
z
" style="fill:#471365;opacity:0.4;stroke:#ffffff;stroke-linejoin:miter;stroke-width:0.8;"/>
   </g>
   <g id="line2d_22">
    <path clip-path="url(#pf88ae448b7)" d="M 75.698401 61.036423 
L 78.226578 61.026388 
L 80.754755 61.011873 
L 83.282932 60.991311 
L 85.811109 60.962786 
L 88.339286 60.924029 
L 90.867463 60.872446 
L 93.39564 60.805185 
L 95.923818 60.719244 
L 98.451995 60.611615 
L 100.980172 60.47946 
L 103.508349 60.3203 
L 106.036526 60.132205 
L 108.564703 59.913957 
L 111.09288 59.665163 
L 113.621057 59.386317 
L 116.149234 59.078794 
L 118.677411 58.744783 
L 121.205588 58.387182 
L 123.733765 58.009482 
L 126.261943 57.615658 
L 128.79012 57.210092 
L 131.318297 56.797551 
L 133.846474 56.383183 
L 136.374651 55.972536 
L 138.902828 55.571515 
L 141.431005 55.186261 
L 143.959182 54.822878 
L 146.487359 54.486988 
L 149.015536 54.183128 
L 151.543713 53.914021 
L 154.071891 53.679829 
L 156.600068 53.477479 
L 159.128245 53.300225 
L 161.656422 53.137539 
L 164.184599 52.975415 
L 166.712776 52.797119 
L 169.240953 52.584326 
L 171.76913 52.318536 
L 174.297307 51.982601 
L 176.825484 51.56219 
L 179.353661 51.047005 
L 181.881839 50.431605 
L 184.410016 49.715788 
L 186.938193 48.904493 
L 189.46637 48.007308 
L 191.994547 47.037677 
L 194.522724 46.011924 
L 197.050901 44.94823 
L 199.579078 43.865629 
L 202.107255 42.783076 
L 204.635432 41.718599 
L 207.163609 40.688504 
L 209.691786 39.706634 
L 212.219964 38.783664 
L 214.748141 37.926485 
L 217.276318 37.137759 
L 219.804495 36.415751 
L 222.332672 35.754565 
L 224.860849 35.144878 
L 227.389026 34.575215 
L 229.917203 34.033711 
L 232.44538 33.510227 
L 234.973557 32.998577 
L 237.501734 32.498597 
L 240.029912 32.017726 
L 242.558089 31.571839 
L 245.086266 31.185112 
L 247.614443 30.888857 
L 250.14262 30.719353 
L 252.670797 30.714862 
L 255.198974 30.912128 
L 257.727151 31.342712 
L 260.255328 32.029578 
L 262.783505 32.984302 
L 265.311682 34.205209 
L 267.839859 35.676678 
L 270.368037 37.369661 
L 272.896214 39.243404 
L 275.424391 41.248154 
L 277.952568 43.328597 
L 280.480745 45.427637 
L 283.008922 47.490166 
L 285.537099 49.466433 
L 288.065276 51.314738 
L 290.593453 53.003243 
L 293.12163 54.510808 
L 295.649807 55.826895 
L 298.177985 56.950661 
L 300.706162 57.889448 
L 303.234339 58.656898 
L 305.762516 59.270937 
L 308.290693 59.751849 
L 310.81887 60.120575 
L 313.347047 60.397364 
L 315.875224 60.600802 
L 318.403401 60.747215 
L 320.931578 60.850398 
L 323.459755 60.921607 
L 325.987933 60.969734 
" style="fill:none;stroke:#471365;stroke-linecap:round;stroke-width:1.2;"/>
   </g>
   <g id="patch_13">
    <path d="M 49.418 61.055333 
L 352.268333 61.055333 
" style="fill:none;stroke:#262626;stroke-linecap:square;stroke-linejoin:miter;"/>
   </g>
  </g>
  <g id="axes_3">
   <g id="patch_14">
    <path d="M 372.236333 390.332 
L 416.832 390.332 
L 416.832 81.023333 
L 372.236333 81.023333 
z
" style="fill:#ffffff;"/>
   </g>
   <g id="matplotlib.axis_5">
    <g id="xtick_13"/>
    <g id="xtick_14"/>
   </g>
   <g id="matplotlib.axis_6">
    <g id="ytick_9">
     <g id="line2d_23">
      <g>
       <use style="fill:#262626;stroke:#262626;" x="372.236333" xlink:href="#m75b2ca5286" y="390.332"/>
      </g>
     </g>
    </g>
    <g id="ytick_10">
     <g id="line2d_24">
      <g>
       <use style="fill:#262626;stroke:#262626;" x="372.236333" xlink:href="#m75b2ca5286" y="334.094061"/>
      </g>
     </g>
    </g>
    <g id="ytick_11">
     <g id="line2d_25">
      <g>
       <use style="fill:#262626;stroke:#262626;" x="372.236333" xlink:href="#m75b2ca5286" y="277.856121"/>
      </g>
     </g>
    </g>
    <g id="ytick_12">
     <g id="line2d_26">
      <g>
       <use style="fill:#262626;stroke:#262626;" x="372.236333" xlink:href="#m75b2ca5286" y="221.618182"/>
      </g>
     </g>
    </g>
    <g id="ytick_13">
     <g id="line2d_27">
      <g>
       <use style="fill:#262626;stroke:#262626;" x="372.236333" xlink:href="#m75b2ca5286" y="165.380242"/>
      </g>
     </g>
    </g>
    <g id="ytick_14">
     <g id="line2d_28">
      <g>
       <use style="fill:#262626;stroke:#262626;" x="372.236333" xlink:href="#m75b2ca5286" y="109.142303"/>
      </g>
     </g>
    </g>
   </g>
   <g id="patch_15">
    <path clip-path="url(#pc4c0d59429)" d="M 372.236333 240.954788 
L 387.404927 240.954788 
L 387.404927 214.803376 
L 372.236333 214.803376 
z
" style="fill:#471365;opacity:0.4;stroke:#ffffff;stroke-linejoin:miter;stroke-width:0.8;"/>
   </g>
   <g id="patch_16">
    <path clip-path="url(#pc4c0d59429)" d="M 372.236333 214.803376 
L 390.438646 214.803376 
L 390.438646 188.651964 
L 372.236333 188.651964 
z
" style="fill:#471365;opacity:0.4;stroke:#ffffff;stroke-linejoin:miter;stroke-width:0.8;"/>
   </g>
   <g id="patch_17">
    <path clip-path="url(#pc4c0d59429)" d="M 372.236333 188.651964 
L 405.60724 188.651964 
L 405.60724 162.500552 
L 372.236333 162.500552 
z
" style="fill:#471365;opacity:0.4;stroke:#ffffff;stroke-linejoin:miter;stroke-width:0.8;"/>
   </g>
   <g id="patch_18">
    <path clip-path="url(#pc4c0d59429)" d="M 372.236333 162.500552 
L 414.708397 162.500552 
L 414.708397 136.34914 
L 372.236333 136.34914 
z
" style="fill:#471365;opacity:0.4;stroke:#ffffff;stroke-linejoin:miter;stroke-width:0.8;"/>
   </g>
   <g id="patch_19">
    <path clip-path="url(#pc4c0d59429)" d="M 372.236333 136.34914 
L 405.60724 136.34914 
L 405.60724 110.197727 
L 372.236333 110.197727 
z
" style="fill:#471365;opacity:0.4;stroke:#ffffff;stroke-linejoin:miter;stroke-width:0.8;"/>
   </g>
   <g id="line2d_29">
    <path clip-path="url(#pc4c0d59429)" d="M 372.261949 288.045474 
L 372.27544 285.773369 
L 372.29491 283.501263 
L 372.322443 281.229158 
L 372.360603 278.957053 
L 372.412457 276.684947 
L 372.481575 274.412842 
L 372.571998 272.140736 
L 372.688182 269.868631 
L 372.834923 267.596526 
L 373.01727 265.32442 
L 373.240451 263.052315 
L 373.509812 260.78021 
L 373.830773 258.508104 
L 374.208809 256.235999 
L 374.649408 253.963893 
L 375.157997 251.691788 
L 375.739765 249.419683 
L 376.399354 247.147577 
L 377.140376 244.875472 
L 377.964771 242.603367 
L 378.872023 240.331261 
L 379.858356 238.059156 
L 380.916024 235.78705 
L 382.032865 233.514945 
L 383.192286 231.24284 
L 384.3738 228.970734 
L 385.554172 226.698629 
L 386.709134 224.426524 
L 387.815518 222.154418 
L 388.853559 219.882313 
L 389.809043 217.610207 
L 390.674974 215.338102 
L 391.452463 213.065997 
L 392.15064 210.793891 
L 392.785526 208.521786 
L 393.377985 206.24968 
L 393.951003 203.977575 
L 394.526669 201.70547 
L 395.123296 199.433364 
L 395.753104 197.161259 
L 396.420814 194.889154 
L 397.123366 192.617048 
L 397.850805 190.344943 
L 398.588207 188.072837 
L 399.318368 185.800732 
L 400.024841 183.528627 
L 400.694878 181.256521 
L 401.321825 178.984416 
L 401.906594 176.712311 
L 402.457965 174.440205 
L 402.991627 172.1681 
L 403.528044 169.895994 
L 404.089401 167.623889 
L 404.696022 165.351784 
L 405.36272 163.079678 
L 406.095574 160.807573 
L 406.889567 158.535468 
L 407.72743 156.263362 
L 408.579843 153.991257 
L 409.40703 151.719151 
L 410.161551 149.447046 
L 410.791981 147.174941 
L 411.247065 144.902835 
L 411.479889 142.63073 
L 411.451609 140.358625 
L 411.134391 138.086519 
L 410.513285 135.814414 
L 409.586932 133.542308 
L 408.367114 131.270203 
L 406.877319 128.998098 
L 405.150545 126.725992 
L 403.226674 124.453887 
L 401.149717 122.181781 
L 398.965206 119.909676 
L 396.717968 117.637571 
L 394.450383 115.365465 
L 392.201178 113.09336 
L 390.0047 110.821255 
L 387.890578 108.549149 
L 385.883643 106.277044 
L 384.003989 104.004938 
L 382.267087 101.732833 
L 380.683898 99.460728 
L 379.260986 97.188622 
L 378.000664 94.916517 
L 376.901198 92.644412 
L 375.957135 90.372306 
L 375.159762 88.100201 
L 374.497702 85.828095 
L 373.95762 83.55599 
L 373.524983 81.283885 
L 373.184818 79.011779 
L 372.922409 76.739674 
L 372.72387 74.467569 
L 372.576586 72.195463 
L 372.469482 69.923358 
L 372.393151 67.651252 
L 372.339845 65.379147 
L 372.303374 63.107042 
" style="fill:none;stroke:#471365;stroke-linecap:round;stroke-width:1.2;"/>
   </g>
   <g id="patch_20">
    <path d="M 372.236333 390.332 
L 372.236333 81.023333 
" style="fill:none;stroke:#262626;stroke-linecap:square;stroke-linejoin:miter;"/>
   </g>
  </g>
 </g>
 <defs>
  <clipPath id="p66f6da4a9b">
   <rect height="309.308667" width="302.850333" x="49.418" y="81.023333"/>
  </clipPath>
  <clipPath id="pf88ae448b7">
   <rect height="45.887333" width="302.850333" x="49.418" y="15.168"/>
  </clipPath>
  <clipPath id="pc4c0d59429">
   <rect height="309.308667" width="44.595667" x="372.236333" y="81.023333"/>
  </clipPath>
 </defs>
</svg>
