<?xml version="1.0" encoding="utf-8" standalone="no"?>
<!DOCTYPE svg PUBLIC "-//W3C//DTD SVG 1.1//EN"
  "http://www.w3.org/Graphics/SVG/1.1/DTD/svg11.dtd">
<!-- Created with matplotlib (http://matplotlib.org/) -->
<svg height="432pt" version="1.1" viewBox="0 0 432 432" width="432pt" xmlns="http://www.w3.org/2000/svg" xmlns:xlink="http://www.w3.org/1999/xlink">
 <defs>
  <style type="text/css">
*{stroke-linecap:butt;stroke-linejoin:round;}
  </style>
 </defs>
 <g id="figure_1">
  <g id="patch_1">
   <path d="M 0 432 
L 432 432 
L 432 0 
L 0 0 
z
" style="fill:#ffffff;"/>
  </g>
  <g id="axes_1">
   <g id="patch_2">
    <path d="M 46.068 387.732 
L 354.386057 387.732 
L 354.386057 77.922514 
L 46.068 77.922514 
z
" style="fill:#ffffff;"/>
   </g>
   <g id="matplotlib.axis_1">
    <g id="xtick_1">
     <g id="line2d_1">
      <defs>
       <path d="M 0 0 
L 0 4.8 
" id="mf61a904aee" style="stroke:#262626;"/>
      </defs>
      <g>
       <use style="fill:#262626;stroke:#262626;" x="58.336212" xlink:href="#mf61a904aee" y="387.732"/>
      </g>
     </g>
     <g id="text_1">
      <!-- −1 -->
      <defs>
       <path d="M 10.59375 35.5 
L 73.1875 35.5 
L 73.1875 27.203125 
L 10.59375 27.203125 
z
" id="DejaVuSans-2212"/>
       <path d="M 12.40625 8.296875 
L 28.515625 8.296875 
L 28.515625 63.921875 
L 10.984375 60.40625 
L 10.984375 69.390625 
L 28.421875 72.90625 
L 38.28125 72.90625 
L 38.28125 8.296875 
L 54.390625 8.296875 
L 54.390625 0 
L 12.40625 0 
z
" id="DejaVuSans-31"/>
      </defs>
      <g style="fill:#262626;" transform="translate(51.849649 402.718625)scale(0.088 -0.088)">
       <use xlink:href="#DejaVuSans-2212"/>
       <use x="83.789062" xlink:href="#DejaVuSans-31"/>
      </g>
     </g>
    </g>
    <g id="xtick_2">
     <g id="line2d_2">
      <g>
       <use style="fill:#262626;stroke:#262626;" x="100.338015" xlink:href="#mf61a904aee" y="387.732"/>
      </g>
     </g>
     <g id="text_2">
      <!-- 0 -->
      <defs>
       <path d="M 31.78125 66.40625 
Q 24.171875 66.40625 20.328125 58.90625 
Q 16.5 51.421875 16.5 36.375 
Q 16.5 21.390625 20.328125 13.890625 
Q 24.171875 6.390625 31.78125 6.390625 
Q 39.453125 6.390625 43.28125 13.890625 
Q 47.125 21.390625 47.125 36.375 
Q 47.125 51.421875 43.28125 58.90625 
Q 39.453125 66.40625 31.78125 66.40625 
z
M 31.78125 74.21875 
Q 44.046875 74.21875 50.515625 64.515625 
Q 56.984375 54.828125 56.984375 36.375 
Q 56.984375 17.96875 50.515625 8.265625 
Q 44.046875 -1.421875 31.78125 -1.421875 
Q 19.53125 -1.421875 13.0625 8.265625 
Q 6.59375 17.96875 6.59375 36.375 
Q 6.59375 54.828125 13.0625 64.515625 
Q 19.53125 74.21875 31.78125 74.21875 
z
" id="DejaVuSans-30"/>
      </defs>
      <g style="fill:#262626;" transform="translate(97.538515 402.718625)scale(0.088 -0.088)">
       <use xlink:href="#DejaVuSans-30"/>
      </g>
     </g>
    </g>
    <g id="xtick_3">
     <g id="line2d_3">
      <g>
       <use style="fill:#262626;stroke:#262626;" x="142.339817" xlink:href="#mf61a904aee" y="387.732"/>
      </g>
     </g>
     <g id="text_3">
      <!-- 1 -->
      <g style="fill:#262626;" transform="translate(139.540317 402.718625)scale(0.088 -0.088)">
       <use xlink:href="#DejaVuSans-31"/>
      </g>
     </g>
    </g>
    <g id="xtick_4">
     <g id="line2d_4">
      <g>
       <use style="fill:#262626;stroke:#262626;" x="184.34162" xlink:href="#mf61a904aee" y="387.732"/>
      </g>
     </g>
     <g id="text_4">
      <!-- 2 -->
      <defs>
       <path d="M 19.1875 8.296875 
L 53.609375 8.296875 
L 53.609375 0 
L 7.328125 0 
L 7.328125 8.296875 
Q 12.9375 14.109375 22.625 23.890625 
Q 32.328125 33.6875 34.8125 36.53125 
Q 39.546875 41.84375 41.421875 45.53125 
Q 43.3125 49.21875 43.3125 52.78125 
Q 43.3125 58.59375 39.234375 62.25 
Q 35.15625 65.921875 28.609375 65.921875 
Q 23.96875 65.921875 18.8125 64.3125 
Q 13.671875 62.703125 7.8125 59.421875 
L 7.8125 69.390625 
Q 13.765625 71.78125 18.9375 73 
Q 24.125 74.21875 28.421875 74.21875 
Q 39.75 74.21875 46.484375 68.546875 
Q 53.21875 62.890625 53.21875 53.421875 
Q 53.21875 48.921875 51.53125 44.890625 
Q 49.859375 40.875 45.40625 35.40625 
Q 44.1875 33.984375 37.640625 27.21875 
Q 31.109375 20.453125 19.1875 8.296875 
z
" id="DejaVuSans-32"/>
      </defs>
      <g style="fill:#262626;" transform="translate(181.54212 402.718625)scale(0.088 -0.088)">
       <use xlink:href="#DejaVuSans-32"/>
      </g>
     </g>
    </g>
    <g id="xtick_5">
     <g id="line2d_5">
      <g>
       <use style="fill:#262626;stroke:#262626;" x="226.343423" xlink:href="#mf61a904aee" y="387.732"/>
      </g>
     </g>
     <g id="text_5">
      <!-- 3 -->
      <defs>
       <path d="M 40.578125 39.3125 
Q 47.65625 37.796875 51.625 33 
Q 55.609375 28.21875 55.609375 21.1875 
Q 55.609375 10.40625 48.1875 4.484375 
Q 40.765625 -1.421875 27.09375 -1.421875 
Q 22.515625 -1.421875 17.65625 -0.515625 
Q 12.796875 0.390625 7.625 2.203125 
L 7.625 11.71875 
Q 11.71875 9.328125 16.59375 8.109375 
Q 21.484375 6.890625 26.8125 6.890625 
Q 36.078125 6.890625 40.9375 10.546875 
Q 45.796875 14.203125 45.796875 21.1875 
Q 45.796875 27.640625 41.28125 31.265625 
Q 36.765625 34.90625 28.71875 34.90625 
L 20.21875 34.90625 
L 20.21875 43.015625 
L 29.109375 43.015625 
Q 36.375 43.015625 40.234375 45.921875 
Q 44.09375 48.828125 44.09375 54.296875 
Q 44.09375 59.90625 40.109375 62.90625 
Q 36.140625 65.921875 28.71875 65.921875 
Q 24.65625 65.921875 20.015625 65.03125 
Q 15.375 64.15625 9.8125 62.3125 
L 9.8125 71.09375 
Q 15.4375 72.65625 20.34375 73.4375 
Q 25.25 74.21875 29.59375 74.21875 
Q 40.828125 74.21875 47.359375 69.109375 
Q 53.90625 64.015625 53.90625 55.328125 
Q 53.90625 49.265625 50.4375 45.09375 
Q 46.96875 40.921875 40.578125 39.3125 
z
" id="DejaVuSans-33"/>
      </defs>
      <g style="fill:#262626;" transform="translate(223.543923 402.718625)scale(0.088 -0.088)">
       <use xlink:href="#DejaVuSans-33"/>
      </g>
     </g>
    </g>
    <g id="xtick_6">
     <g id="line2d_6">
      <g>
       <use style="fill:#262626;stroke:#262626;" x="268.345226" xlink:href="#mf61a904aee" y="387.732"/>
      </g>
     </g>
     <g id="text_6">
      <!-- 4 -->
      <defs>
       <path d="M 37.796875 64.3125 
L 12.890625 25.390625 
L 37.796875 25.390625 
z
M 35.203125 72.90625 
L 47.609375 72.90625 
L 47.609375 25.390625 
L 58.015625 25.390625 
L 58.015625 17.1875 
L 47.609375 17.1875 
L 47.609375 0 
L 37.796875 0 
L 37.796875 17.1875 
L 4.890625 17.1875 
L 4.890625 26.703125 
z
" id="DejaVuSans-34"/>
      </defs>
      <g style="fill:#262626;" transform="translate(265.545726 402.718625)scale(0.088 -0.088)">
       <use xlink:href="#DejaVuSans-34"/>
      </g>
     </g>
    </g>
    <g id="xtick_7">
     <g id="line2d_7">
      <g>
       <use style="fill:#262626;stroke:#262626;" x="310.347029" xlink:href="#mf61a904aee" y="387.732"/>
      </g>
     </g>
     <g id="text_7">
      <!-- 5 -->
      <defs>
       <path d="M 10.796875 72.90625 
L 49.515625 72.90625 
L 49.515625 64.59375 
L 19.828125 64.59375 
L 19.828125 46.734375 
Q 21.96875 47.46875 24.109375 47.828125 
Q 26.265625 48.1875 28.421875 48.1875 
Q 40.625 48.1875 47.75 41.5 
Q 54.890625 34.8125 54.890625 23.390625 
Q 54.890625 11.625 47.5625 5.09375 
Q 40.234375 -1.421875 26.90625 -1.421875 
Q 22.3125 -1.421875 17.546875 -0.640625 
Q 12.796875 0.140625 7.71875 1.703125 
L 7.71875 11.625 
Q 12.109375 9.234375 16.796875 8.0625 
Q 21.484375 6.890625 26.703125 6.890625 
Q 35.15625 6.890625 40.078125 11.328125 
Q 45.015625 15.765625 45.015625 23.390625 
Q 45.015625 31 40.078125 35.4375 
Q 35.15625 39.890625 26.703125 39.890625 
Q 22.75 39.890625 18.8125 39.015625 
Q 14.890625 38.140625 10.796875 36.28125 
z
" id="DejaVuSans-35"/>
      </defs>
      <g style="fill:#262626;" transform="translate(307.547529 402.718625)scale(0.088 -0.088)">
       <use xlink:href="#DejaVuSans-35"/>
      </g>
     </g>
    </g>
    <g id="xtick_8">
     <g id="line2d_8">
      <g>
       <use style="fill:#262626;stroke:#262626;" x="352.348832" xlink:href="#mf61a904aee" y="387.732"/>
      </g>
     </g>
     <g id="text_8">
      <!-- 6 -->
      <defs>
       <path d="M 33.015625 40.375 
Q 26.375 40.375 22.484375 35.828125 
Q 18.609375 31.296875 18.609375 23.390625 
Q 18.609375 15.53125 22.484375 10.953125 
Q 26.375 6.390625 33.015625 6.390625 
Q 39.65625 6.390625 43.53125 10.953125 
Q 47.40625 15.53125 47.40625 23.390625 
Q 47.40625 31.296875 43.53125 35.828125 
Q 39.65625 40.375 33.015625 40.375 
z
M 52.59375 71.296875 
L 52.59375 62.3125 
Q 48.875 64.0625 45.09375 64.984375 
Q 41.3125 65.921875 37.59375 65.921875 
Q 27.828125 65.921875 22.671875 59.328125 
Q 17.53125 52.734375 16.796875 39.40625 
Q 19.671875 43.65625 24.015625 45.921875 
Q 28.375 48.1875 33.59375 48.1875 
Q 44.578125 48.1875 50.953125 41.515625 
Q 57.328125 34.859375 57.328125 23.390625 
Q 57.328125 12.15625 50.6875 5.359375 
Q 44.046875 -1.421875 33.015625 -1.421875 
Q 20.359375 -1.421875 13.671875 8.265625 
Q 6.984375 17.96875 6.984375 36.375 
Q 6.984375 53.65625 15.1875 63.9375 
Q 23.390625 74.21875 37.203125 74.21875 
Q 40.921875 74.21875 44.703125 73.484375 
Q 48.484375 72.75 52.59375 71.296875 
z
" id="DejaVuSans-36"/>
      </defs>
      <g style="fill:#262626;" transform="translate(349.549332 402.718625)scale(0.088 -0.088)">
       <use xlink:href="#DejaVuSans-36"/>
      </g>
     </g>
    </g>
    <g id="text_9">
     <!-- $\Delta_{g}$ -->
     <defs>
      <path d="M 34.1875 63.1875 
L 14.15625 8.203125 
L 54.25 8.203125 
z
M 0.78125 0 
L 28.609375 72.90625 
L 39.796875 72.90625 
L 67.578125 0 
z
" id="DejaVuSans-394"/>
      <path d="M 59.625 54.6875 
L 50.296875 6.78125 
Q 47.609375 -7.125 40.015625 -13.953125 
Q 32.421875 -20.796875 19.578125 -20.796875 
Q 14.84375 -20.796875 10.78125 -20.09375 
Q 6.734375 -19.390625 3.21875 -17.921875 
L 4.890625 -9.1875 
Q 8.203125 -11.328125 11.90625 -12.34375 
Q 15.625 -13.375 19.828125 -13.375 
Q 28.375 -13.375 33.859375 -8.703125 
Q 39.359375 -4.046875 41.109375 4.6875 
L 41.890625 8.796875 
Q 38.140625 4.5 33.15625 2.25 
Q 28.171875 0 22.40625 0 
Q 14.109375 0 9.34375 5.484375 
Q 4.59375 10.984375 4.59375 20.609375 
Q 4.59375 28.171875 7.46875 35.421875 
Q 10.359375 42.671875 15.578125 48.296875 
Q 19.046875 52 23.65625 54 
Q 28.265625 56 33.296875 56 
Q 38.8125 56 42.90625 53.4375 
Q 47.015625 50.875 49.03125 46.1875 
L 50.59375 54.6875 
z
M 46.09375 34.625 
Q 46.09375 41.265625 42.96875 44.875 
Q 39.84375 48.484375 34.078125 48.484375 
Q 30.515625 48.484375 27.296875 47.0625 
Q 24.078125 45.65625 21.78125 43.109375 
Q 18.0625 38.921875 15.984375 33.234375 
Q 13.921875 27.546875 13.921875 21.484375 
Q 13.921875 14.75 17.0625 11.125 
Q 20.21875 7.515625 26.125 7.515625 
Q 34.671875 7.515625 40.375 15.25 
Q 46.09375 23 46.09375 34.625 
z
" id="DejaVuSans-Oblique-67"/>
     </defs>
     <g style="fill:#262626;" transform="translate(194.611029 415.55675)scale(0.096 -0.096)">
      <use transform="translate(0 0.09375)" xlink:href="#DejaVuSans-394"/>
      <use transform="translate(69.365234 -16.3125)scale(0.7)" xlink:href="#DejaVuSans-Oblique-67"/>
     </g>
    </g>
   </g>
   <g id="matplotlib.axis_2">
    <g id="ytick_1">
     <g id="line2d_9">
      <defs>
       <path d="M 0 0 
L -4.8 0 
" id="m7717df20ed" style="stroke:#262626;"/>
      </defs>
      <g>
       <use style="fill:#262626;stroke:#262626;" x="46.068" xlink:href="#m7717df20ed" y="386.966338"/>
      </g>
     </g>
     <g id="text_10">
      <!-- −10 -->
      <g style="fill:#262626;" transform="translate(19.195875 390.309651)scale(0.088 -0.088)">
       <use xlink:href="#DejaVuSans-2212"/>
       <use x="83.789062" xlink:href="#DejaVuSans-31"/>
       <use x="147.412109" xlink:href="#DejaVuSans-30"/>
      </g>
     </g>
    </g>
    <g id="ytick_2">
     <g id="line2d_10">
      <g>
       <use style="fill:#262626;stroke:#262626;" x="46.068" xlink:href="#m7717df20ed" y="351.162551"/>
      </g>
     </g>
     <g id="text_11">
      <!-- 0 -->
      <g style="fill:#262626;" transform="translate(32.169 354.505864)scale(0.088 -0.088)">
       <use xlink:href="#DejaVuSans-30"/>
      </g>
     </g>
    </g>
    <g id="ytick_3">
     <g id="line2d_11">
      <g>
       <use style="fill:#262626;stroke:#262626;" x="46.068" xlink:href="#m7717df20ed" y="315.358764"/>
      </g>
     </g>
     <g id="text_12">
      <!-- 10 -->
      <g style="fill:#262626;" transform="translate(26.57 318.702077)scale(0.088 -0.088)">
       <use xlink:href="#DejaVuSans-31"/>
       <use x="63.623047" xlink:href="#DejaVuSans-30"/>
      </g>
     </g>
    </g>
    <g id="ytick_4">
     <g id="line2d_12">
      <g>
       <use style="fill:#262626;stroke:#262626;" x="46.068" xlink:href="#m7717df20ed" y="279.554977"/>
      </g>
     </g>
     <g id="text_13">
      <!-- 20 -->
      <g style="fill:#262626;" transform="translate(26.57 282.89829)scale(0.088 -0.088)">
       <use xlink:href="#DejaVuSans-32"/>
       <use x="63.623047" xlink:href="#DejaVuSans-30"/>
      </g>
     </g>
    </g>
    <g id="ytick_5">
     <g id="line2d_13">
      <g>
       <use style="fill:#262626;stroke:#262626;" x="46.068" xlink:href="#m7717df20ed" y="243.75119"/>
      </g>
     </g>
     <g id="text_14">
      <!-- 30 -->
      <g style="fill:#262626;" transform="translate(26.57 247.094503)scale(0.088 -0.088)">
       <use xlink:href="#DejaVuSans-33"/>
       <use x="63.623047" xlink:href="#DejaVuSans-30"/>
      </g>
     </g>
    </g>
    <g id="ytick_6">
     <g id="line2d_14">
      <g>
       <use style="fill:#262626;stroke:#262626;" x="46.068" xlink:href="#m7717df20ed" y="207.947403"/>
      </g>
     </g>
     <g id="text_15">
      <!-- 40 -->
      <g style="fill:#262626;" transform="translate(26.57 211.290716)scale(0.088 -0.088)">
       <use xlink:href="#DejaVuSans-34"/>
       <use x="63.623047" xlink:href="#DejaVuSans-30"/>
      </g>
     </g>
    </g>
    <g id="ytick_7">
     <g id="line2d_15">
      <g>
       <use style="fill:#262626;stroke:#262626;" x="46.068" xlink:href="#m7717df20ed" y="172.143616"/>
      </g>
     </g>
     <g id="text_16">
      <!-- 50 -->
      <g style="fill:#262626;" transform="translate(26.57 175.486929)scale(0.088 -0.088)">
       <use xlink:href="#DejaVuSans-35"/>
       <use x="63.623047" xlink:href="#DejaVuSans-30"/>
      </g>
     </g>
    </g>
    <g id="ytick_8">
     <g id="line2d_16">
      <g>
       <use style="fill:#262626;stroke:#262626;" x="46.068" xlink:href="#m7717df20ed" y="136.339829"/>
      </g>
     </g>
     <g id="text_17">
      <!-- 60 -->
      <g style="fill:#262626;" transform="translate(26.57 139.683142)scale(0.088 -0.088)">
       <use xlink:href="#DejaVuSans-36"/>
       <use x="63.623047" xlink:href="#DejaVuSans-30"/>
      </g>
     </g>
    </g>
    <g id="ytick_9">
     <g id="line2d_17">
      <g>
       <use style="fill:#262626;stroke:#262626;" x="46.068" xlink:href="#m7717df20ed" y="100.536042"/>
      </g>
     </g>
     <g id="text_18">
      <!-- 70 -->
      <defs>
       <path d="M 8.203125 72.90625 
L 55.078125 72.90625 
L 55.078125 68.703125 
L 28.609375 0 
L 18.3125 0 
L 43.21875 64.59375 
L 8.203125 64.59375 
z
" id="DejaVuSans-37"/>
      </defs>
      <g style="fill:#262626;" transform="translate(26.57 103.879355)scale(0.088 -0.088)">
       <use xlink:href="#DejaVuSans-37"/>
       <use x="63.623047" xlink:href="#DejaVuSans-30"/>
      </g>
     </g>
    </g>
    <g id="text_19">
     <!-- Time to cancer -->
     <defs>
      <path d="M -0.296875 72.90625 
L 61.375 72.90625 
L 61.375 64.59375 
L 35.5 64.59375 
L 35.5 0 
L 25.59375 0 
L 25.59375 64.59375 
L -0.296875 64.59375 
z
" id="DejaVuSans-54"/>
      <path d="M 9.421875 54.6875 
L 18.40625 54.6875 
L 18.40625 0 
L 9.421875 0 
z
M 9.421875 75.984375 
L 18.40625 75.984375 
L 18.40625 64.59375 
L 9.421875 64.59375 
z
" id="DejaVuSans-69"/>
      <path d="M 52 44.1875 
Q 55.375 50.25 60.0625 53.125 
Q 64.75 56 71.09375 56 
Q 79.640625 56 84.28125 50.015625 
Q 88.921875 44.046875 88.921875 33.015625 
L 88.921875 0 
L 79.890625 0 
L 79.890625 32.71875 
Q 79.890625 40.578125 77.09375 44.375 
Q 74.3125 48.1875 68.609375 48.1875 
Q 61.625 48.1875 57.5625 43.546875 
Q 53.515625 38.921875 53.515625 30.90625 
L 53.515625 0 
L 44.484375 0 
L 44.484375 32.71875 
Q 44.484375 40.625 41.703125 44.40625 
Q 38.921875 48.1875 33.109375 48.1875 
Q 26.21875 48.1875 22.15625 43.53125 
Q 18.109375 38.875 18.109375 30.90625 
L 18.109375 0 
L 9.078125 0 
L 9.078125 54.6875 
L 18.109375 54.6875 
L 18.109375 46.1875 
Q 21.1875 51.21875 25.484375 53.609375 
Q 29.78125 56 35.6875 56 
Q 41.65625 56 45.828125 52.96875 
Q 50 49.953125 52 44.1875 
z
" id="DejaVuSans-6d"/>
      <path d="M 56.203125 29.59375 
L 56.203125 25.203125 
L 14.890625 25.203125 
Q 15.484375 15.921875 20.484375 11.0625 
Q 25.484375 6.203125 34.421875 6.203125 
Q 39.59375 6.203125 44.453125 7.46875 
Q 49.3125 8.734375 54.109375 11.28125 
L 54.109375 2.78125 
Q 49.265625 0.734375 44.1875 -0.34375 
Q 39.109375 -1.421875 33.890625 -1.421875 
Q 20.796875 -1.421875 13.15625 6.1875 
Q 5.515625 13.8125 5.515625 26.8125 
Q 5.515625 40.234375 12.765625 48.109375 
Q 20.015625 56 32.328125 56 
Q 43.359375 56 49.78125 48.890625 
Q 56.203125 41.796875 56.203125 29.59375 
z
M 47.21875 32.234375 
Q 47.125 39.59375 43.09375 43.984375 
Q 39.0625 48.390625 32.421875 48.390625 
Q 24.90625 48.390625 20.390625 44.140625 
Q 15.875 39.890625 15.1875 32.171875 
z
" id="DejaVuSans-65"/>
      <path id="DejaVuSans-20"/>
      <path d="M 18.3125 70.21875 
L 18.3125 54.6875 
L 36.8125 54.6875 
L 36.8125 47.703125 
L 18.3125 47.703125 
L 18.3125 18.015625 
Q 18.3125 11.328125 20.140625 9.421875 
Q 21.96875 7.515625 27.59375 7.515625 
L 36.8125 7.515625 
L 36.8125 0 
L 27.59375 0 
Q 17.1875 0 13.234375 3.875 
Q 9.28125 7.765625 9.28125 18.015625 
L 9.28125 47.703125 
L 2.6875 47.703125 
L 2.6875 54.6875 
L 9.28125 54.6875 
L 9.28125 70.21875 
z
" id="DejaVuSans-74"/>
      <path d="M 30.609375 48.390625 
Q 23.390625 48.390625 19.1875 42.75 
Q 14.984375 37.109375 14.984375 27.296875 
Q 14.984375 17.484375 19.15625 11.84375 
Q 23.34375 6.203125 30.609375 6.203125 
Q 37.796875 6.203125 41.984375 11.859375 
Q 46.1875 17.53125 46.1875 27.296875 
Q 46.1875 37.015625 41.984375 42.703125 
Q 37.796875 48.390625 30.609375 48.390625 
z
M 30.609375 56 
Q 42.328125 56 49.015625 48.375 
Q 55.71875 40.765625 55.71875 27.296875 
Q 55.71875 13.875 49.015625 6.21875 
Q 42.328125 -1.421875 30.609375 -1.421875 
Q 18.84375 -1.421875 12.171875 6.21875 
Q 5.515625 13.875 5.515625 27.296875 
Q 5.515625 40.765625 12.171875 48.375 
Q 18.84375 56 30.609375 56 
z
" id="DejaVuSans-6f"/>
      <path d="M 48.78125 52.59375 
L 48.78125 44.1875 
Q 44.96875 46.296875 41.140625 47.34375 
Q 37.3125 48.390625 33.40625 48.390625 
Q 24.65625 48.390625 19.8125 42.84375 
Q 14.984375 37.3125 14.984375 27.296875 
Q 14.984375 17.28125 19.8125 11.734375 
Q 24.65625 6.203125 33.40625 6.203125 
Q 37.3125 6.203125 41.140625 7.25 
Q 44.96875 8.296875 48.78125 10.40625 
L 48.78125 2.09375 
Q 45.015625 0.34375 40.984375 -0.53125 
Q 36.96875 -1.421875 32.421875 -1.421875 
Q 20.0625 -1.421875 12.78125 6.34375 
Q 5.515625 14.109375 5.515625 27.296875 
Q 5.515625 40.671875 12.859375 48.328125 
Q 20.21875 56 33.015625 56 
Q 37.15625 56 41.109375 55.140625 
Q 45.0625 54.296875 48.78125 52.59375 
z
" id="DejaVuSans-63"/>
      <path d="M 34.28125 27.484375 
Q 23.390625 27.484375 19.1875 25 
Q 14.984375 22.515625 14.984375 16.5 
Q 14.984375 11.71875 18.140625 8.90625 
Q 21.296875 6.109375 26.703125 6.109375 
Q 34.1875 6.109375 38.703125 11.40625 
Q 43.21875 16.703125 43.21875 25.484375 
L 43.21875 27.484375 
z
M 52.203125 31.203125 
L 52.203125 0 
L 43.21875 0 
L 43.21875 8.296875 
Q 40.140625 3.328125 35.546875 0.953125 
Q 30.953125 -1.421875 24.3125 -1.421875 
Q 15.921875 -1.421875 10.953125 3.296875 
Q 6 8.015625 6 15.921875 
Q 6 25.140625 12.171875 29.828125 
Q 18.359375 34.515625 30.609375 34.515625 
L 43.21875 34.515625 
L 43.21875 35.40625 
Q 43.21875 41.609375 39.140625 45 
Q 35.0625 48.390625 27.6875 48.390625 
Q 23 48.390625 18.546875 47.265625 
Q 14.109375 46.140625 10.015625 43.890625 
L 10.015625 52.203125 
Q 14.9375 54.109375 19.578125 55.046875 
Q 24.21875 56 28.609375 56 
Q 40.484375 56 46.34375 49.84375 
Q 52.203125 43.703125 52.203125 31.203125 
z
" id="DejaVuSans-61"/>
      <path d="M 54.890625 33.015625 
L 54.890625 0 
L 45.90625 0 
L 45.90625 32.71875 
Q 45.90625 40.484375 42.875 44.328125 
Q 39.84375 48.1875 33.796875 48.1875 
Q 26.515625 48.1875 22.3125 43.546875 
Q 18.109375 38.921875 18.109375 30.90625 
L 18.109375 0 
L 9.078125 0 
L 9.078125 54.6875 
L 18.109375 54.6875 
L 18.109375 46.1875 
Q 21.34375 51.125 25.703125 53.5625 
Q 30.078125 56 35.796875 56 
Q 45.21875 56 50.046875 50.171875 
Q 54.890625 44.34375 54.890625 33.015625 
z
" id="DejaVuSans-6e"/>
      <path d="M 41.109375 46.296875 
Q 39.59375 47.171875 37.8125 47.578125 
Q 36.03125 48 33.890625 48 
Q 26.265625 48 22.1875 43.046875 
Q 18.109375 38.09375 18.109375 28.8125 
L 18.109375 0 
L 9.078125 0 
L 9.078125 54.6875 
L 18.109375 54.6875 
L 18.109375 46.1875 
Q 20.953125 51.171875 25.484375 53.578125 
Q 30.03125 56 36.53125 56 
Q 37.453125 56 38.578125 55.875 
Q 39.703125 55.765625 41.0625 55.515625 
z
" id="DejaVuSans-72"/>
     </defs>
     <g style="fill:#262626;" transform="translate(13.199375 268.777757)rotate(-90)scale(0.096 -0.096)">
      <use xlink:href="#DejaVuSans-54"/>
      <use x="61.037109" xlink:href="#DejaVuSans-69"/>
      <use x="88.820312" xlink:href="#DejaVuSans-6d"/>
      <use x="186.232422" xlink:href="#DejaVuSans-65"/>
      <use x="247.755859" xlink:href="#DejaVuSans-20"/>
      <use x="279.542969" xlink:href="#DejaVuSans-74"/>
      <use x="318.751953" xlink:href="#DejaVuSans-6f"/>
      <use x="379.933594" xlink:href="#DejaVuSans-20"/>
      <use x="411.720703" xlink:href="#DejaVuSans-63"/>
      <use x="466.701172" xlink:href="#DejaVuSans-61"/>
      <use x="527.980469" xlink:href="#DejaVuSans-6e"/>
      <use x="591.359375" xlink:href="#DejaVuSans-63"/>
      <use x="646.339844" xlink:href="#DejaVuSans-65"/>
      <use x="707.863281" xlink:href="#DejaVuSans-72"/>
     </g>
    </g>
   </g>
   <g id="PathCollection_1">
    <defs>
     <path d="M 0 2.4 
C 0.636487 2.4 1.246992 2.147121 1.697056 1.697056 
C 2.147121 1.246992 2.4 0.636487 2.4 0 
C 2.4 -0.636487 2.147121 -1.246992 1.697056 -1.697056 
C 1.246992 -2.147121 0.636487 -2.4 0 -2.4 
C -0.636487 -2.4 -1.246992 -2.147121 -1.697056 -1.697056 
C -2.147121 -1.246992 -2.4 -0.636487 -2.4 0 
C -2.4 0.636487 -2.147121 1.246992 -1.697056 1.697056 
C -1.246992 2.147121 -0.636487 2.4 0 2.4 
z
" id="m60dcdde14d" style="stroke:#471365;stroke-opacity:0.8;"/>
    </defs>
    <g clip-path="url(#p62c3c27425)">
     <use style="fill:#471365;fill-opacity:0.8;stroke:#471365;stroke-opacity:0.8;" x="250.021889" xlink:href="#m60dcdde14d" y="321.342411"/>
     <use style="fill:#471365;fill-opacity:0.8;stroke:#471365;stroke-opacity:0.8;" x="172.59719" xlink:href="#m60dcdde14d" y="320.351676"/>
     <use style="fill:#471365;fill-opacity:0.8;stroke:#471365;stroke-opacity:0.8;" x="242.574731" xlink:href="#m60dcdde14d" y="323.421973"/>
     <use style="fill:#471365;fill-opacity:0.8;stroke:#471365;stroke-opacity:0.8;" x="242.343648" xlink:href="#m60dcdde14d" y="322.176198"/>
     <use style="fill:#471365;fill-opacity:0.8;stroke:#471365;stroke-opacity:0.8;" x="209.146086" xlink:href="#m60dcdde14d" y="318.801813"/>
     <use style="fill:#471365;fill-opacity:0.8;stroke:#471365;stroke-opacity:0.8;" x="187.922125" xlink:href="#m60dcdde14d" y="323.559303"/>
     <use style="fill:#471365;fill-opacity:0.8;stroke:#471365;stroke-opacity:0.8;" x="114.937976" xlink:href="#m60dcdde14d" y="256.758265"/>
     <use style="fill:#471365;fill-opacity:0.8;stroke:#471365;stroke-opacity:0.8;" x="139.385414" xlink:href="#m60dcdde14d" y="305.735883"/>
     <use style="fill:#471365;fill-opacity:0.8;stroke:#471365;stroke-opacity:0.8;" x="198.255835" xlink:href="#m60dcdde14d" y="321.832874"/>
     <use style="fill:#471365;fill-opacity:0.8;stroke:#471365;stroke-opacity:0.8;" x="220.866105" xlink:href="#m60dcdde14d" y="322.627423"/>
     <use style="fill:#471365;fill-opacity:0.8;stroke:#471365;stroke-opacity:0.8;" x="152.128" xlink:href="#m60dcdde14d" y="310.92498"/>
     <use style="fill:#471365;fill-opacity:0.8;stroke:#471365;stroke-opacity:0.8;" x="268.005594" xlink:href="#m60dcdde14d" y="322.519522"/>
     <use style="fill:#471365;fill-opacity:0.8;stroke:#471365;stroke-opacity:0.8;" x="159.967269" xlink:href="#m60dcdde14d" y="316.398545"/>
     <use style="fill:#471365;fill-opacity:0.8;stroke:#471365;stroke-opacity:0.8;" x="129.949674" xlink:href="#m60dcdde14d" y="303.038338"/>
     <use style="fill:#471365;fill-opacity:0.8;stroke:#471365;stroke-opacity:0.8;" x="175.344693" xlink:href="#m60dcdde14d" y="316.300453"/>
     <use style="fill:#471365;fill-opacity:0.8;stroke:#471365;stroke-opacity:0.8;" x="238.48787" xlink:href="#m60dcdde14d" y="322.53914"/>
     <use style="fill:#471365;fill-opacity:0.8;stroke:#471365;stroke-opacity:0.8;" x="128.824899" xlink:href="#m60dcdde14d" y="304.774576"/>
     <use style="fill:#471365;fill-opacity:0.8;stroke:#471365;stroke-opacity:0.8;" x="149.867579" xlink:href="#m60dcdde14d" y="319.027426"/>
     <use style="fill:#471365;fill-opacity:0.8;stroke:#471365;stroke-opacity:0.8;" x="172.995533" xlink:href="#m60dcdde14d" y="315.378383"/>
     <use style="fill:#471365;fill-opacity:0.8;stroke:#471365;stroke-opacity:0.8;" x="148.066829" xlink:href="#m60dcdde14d" y="314.829064"/>
     <use style="fill:#471365;fill-opacity:0.8;stroke:#471365;stroke-opacity:0.8;" x="270.114369" xlink:href="#m60dcdde14d" y="321.7544"/>
     <use style="fill:#471365;fill-opacity:0.8;stroke:#471365;stroke-opacity:0.8;" x="120.243899" xlink:href="#m60dcdde14d" y="284.812739"/>
     <use style="fill:#471365;fill-opacity:0.8;stroke:#471365;stroke-opacity:0.8;" x="177.404104" xlink:href="#m60dcdde14d" y="317.418708"/>
     <use style="fill:#471365;fill-opacity:0.8;stroke:#471365;stroke-opacity:0.8;" x="132.735956" xlink:href="#m60dcdde14d" y="308.796372"/>
     <use style="fill:#471365;fill-opacity:0.8;stroke:#471365;stroke-opacity:0.8;" x="130.414537" xlink:href="#m60dcdde14d" y="306.422531"/>
     <use style="fill:#471365;fill-opacity:0.8;stroke:#471365;stroke-opacity:0.8;" x="210.715378" xlink:href="#m60dcdde14d" y="322.323337"/>
     <use style="fill:#471365;fill-opacity:0.8;stroke:#471365;stroke-opacity:0.8;" x="121.000045" xlink:href="#m60dcdde14d" y="308.698279"/>
     <use style="fill:#471365;fill-opacity:0.8;stroke:#471365;stroke-opacity:0.8;" x="183.328677" xlink:href="#m60dcdde14d" y="317.408899"/>
     <use style="fill:#471365;fill-opacity:0.8;stroke:#471365;stroke-opacity:0.8;" x="121.624259" xlink:href="#m60dcdde14d" y="295.22036"/>
     <use style="fill:#471365;fill-opacity:0.8;stroke:#471365;stroke-opacity:0.8;" x="125.990132" xlink:href="#m60dcdde14d" y="285.783855"/>
     <use style="fill:#471365;fill-opacity:0.8;stroke:#471365;stroke-opacity:0.8;" x="138.583387" xlink:href="#m60dcdde14d" y="311.287923"/>
     <use style="fill:#471365;fill-opacity:0.8;stroke:#471365;stroke-opacity:0.8;" x="145.132344" xlink:href="#m60dcdde14d" y="313.750046"/>
     <use style="fill:#471365;fill-opacity:0.8;stroke:#471365;stroke-opacity:0.8;" x="127.965026" xlink:href="#m60dcdde14d" y="318.036691"/>
     <use style="fill:#471365;fill-opacity:0.8;stroke:#471365;stroke-opacity:0.8;" x="123.266401" xlink:href="#m60dcdde14d" y="304.392015"/>
     <use style="fill:#471365;fill-opacity:0.8;stroke:#471365;stroke-opacity:0.8;" x="137.301796" xlink:href="#m60dcdde14d" y="316.035603"/>
     <use style="fill:#471365;fill-opacity:0.8;stroke:#471365;stroke-opacity:0.8;" x="202.805226" xlink:href="#m60dcdde14d" y="319.360941"/>
     <use style="fill:#471365;fill-opacity:0.8;stroke:#471365;stroke-opacity:0.8;" x="117.486039" xlink:href="#m60dcdde14d" y="304.627437"/>
     <use style="fill:#471365;fill-opacity:0.8;stroke:#471365;stroke-opacity:0.8;" x="129.220967" xlink:href="#m60dcdde14d" y="310.866125"/>
     <use style="fill:#471365;fill-opacity:0.8;stroke:#471365;stroke-opacity:0.8;" x="127.763113" xlink:href="#m60dcdde14d" y="303.67594"/>
     <use style="fill:#471365;fill-opacity:0.8;stroke:#471365;stroke-opacity:0.8;" x="188.409271" xlink:href="#m60dcdde14d" y="320.420341"/>
     <use style="fill:#471365;fill-opacity:0.8;stroke:#471365;stroke-opacity:0.8;" x="288.305505" xlink:href="#m60dcdde14d" y="324.167477"/>
     <use style="fill:#471365;fill-opacity:0.8;stroke:#471365;stroke-opacity:0.8;" x="148.350924" xlink:href="#m60dcdde14d" y="313.877566"/>
     <use style="fill:#471365;fill-opacity:0.8;stroke:#471365;stroke-opacity:0.8;" x="196.33563" xlink:href="#m60dcdde14d" y="317.448136"/>
     <use style="fill:#471365;fill-opacity:0.8;stroke:#471365;stroke-opacity:0.8;" x="137.615415" xlink:href="#m60dcdde14d" y="309.335881"/>
     <use style="fill:#471365;fill-opacity:0.8;stroke:#471365;stroke-opacity:0.8;" x="140.914305" xlink:href="#m60dcdde14d" y="312.739693"/>
     <use style="fill:#471365;fill-opacity:0.8;stroke:#471365;stroke-opacity:0.8;" x="125.241112" xlink:href="#m60dcdde14d" y="307.187653"/>
     <use style="fill:#471365;fill-opacity:0.8;stroke:#471365;stroke-opacity:0.8;" x="158.154531" xlink:href="#m60dcdde14d" y="311.493917"/>
     <use style="fill:#471365;fill-opacity:0.8;stroke:#471365;stroke-opacity:0.8;" x="231.559432" xlink:href="#m60dcdde14d" y="320.322248"/>
     <use style="fill:#471365;fill-opacity:0.8;stroke:#471365;stroke-opacity:0.8;" x="116.798591" xlink:href="#m60dcdde14d" y="289.050338"/>
     <use style="fill:#471365;fill-opacity:0.8;stroke:#471365;stroke-opacity:0.8;" x="118.068922" xlink:href="#m60dcdde14d" y="294.975129"/>
     <use style="fill:#471365;fill-opacity:0.8;stroke:#471365;stroke-opacity:0.8;" x="133.802491" xlink:href="#m60dcdde14d" y="314.426885"/>
     <use style="fill:#471365;fill-opacity:0.8;stroke:#471365;stroke-opacity:0.8;" x="212.941441" xlink:href="#m60dcdde14d" y="326.041045"/>
     <use style="fill:#471365;fill-opacity:0.8;stroke:#471365;stroke-opacity:0.8;" x="133.924068" xlink:href="#m60dcdde14d" y="309.188742"/>
     <use style="fill:#471365;fill-opacity:0.8;stroke:#471365;stroke-opacity:0.8;" x="135.789021" xlink:href="#m60dcdde14d" y="305.372941"/>
     <use style="fill:#471365;fill-opacity:0.8;stroke:#471365;stroke-opacity:0.8;" x="134.598438" xlink:href="#m60dcdde14d" y="311.964761"/>
     <use style="fill:#471365;fill-opacity:0.8;stroke:#471365;stroke-opacity:0.8;" x="167.828959" xlink:href="#m60dcdde14d" y="317.771841"/>
     <use style="fill:#471365;fill-opacity:0.8;stroke:#471365;stroke-opacity:0.8;" x="161.526875" xlink:href="#m60dcdde14d" y="315.250862"/>
     <use style="fill:#471365;fill-opacity:0.8;stroke:#471365;stroke-opacity:0.8;" x="181.794462" xlink:href="#m60dcdde14d" y="317.310806"/>
     <use style="fill:#471365;fill-opacity:0.8;stroke:#471365;stroke-opacity:0.8;" x="136.090292" xlink:href="#m60dcdde14d" y="311.268304"/>
     <use style="fill:#471365;fill-opacity:0.8;stroke:#471365;stroke-opacity:0.8;" x="139.891921" xlink:href="#m60dcdde14d" y="300.546787"/>
     <use style="fill:#471365;fill-opacity:0.8;stroke:#471365;stroke-opacity:0.8;" x="132.793161" xlink:href="#m60dcdde14d" y="312.347322"/>
     <use style="fill:#471365;fill-opacity:0.8;stroke:#471365;stroke-opacity:0.8;" x="127.634911" xlink:href="#m60dcdde14d" y="280.457429"/>
     <use style="fill:#471365;fill-opacity:0.8;stroke:#471365;stroke-opacity:0.8;" x="174.991931" xlink:href="#m60dcdde14d" y="317.144049"/>
     <use style="fill:#471365;fill-opacity:0.8;stroke:#471365;stroke-opacity:0.8;" x="153.285494" xlink:href="#m60dcdde14d" y="315.250862"/>
     <use style="fill:#471365;fill-opacity:0.8;stroke:#471365;stroke-opacity:0.8;" x="139.400688" xlink:href="#m60dcdde14d" y="309.453592"/>
     <use style="fill:#471365;fill-opacity:0.8;stroke:#471365;stroke-opacity:0.8;" x="155.434236" xlink:href="#m60dcdde14d" y="313.014352"/>
     <use style="fill:#471365;fill-opacity:0.8;stroke:#471365;stroke-opacity:0.8;" x="126.161542" xlink:href="#m60dcdde14d" y="309.326071"/>
     <use style="fill:#471365;fill-opacity:0.8;stroke:#471365;stroke-opacity:0.8;" x="177.754924" xlink:href="#m60dcdde14d" y="320.812711"/>
     <use style="fill:#471365;fill-opacity:0.8;stroke:#471365;stroke-opacity:0.8;" x="155.603414" xlink:href="#m60dcdde14d" y="315.819799"/>
     <use style="fill:#471365;fill-opacity:0.8;stroke:#471365;stroke-opacity:0.8;" x="139.605369" xlink:href="#m60dcdde14d" y="310.483564"/>
     <use style="fill:#471365;fill-opacity:0.8;stroke:#471365;stroke-opacity:0.8;" x="123.964407" xlink:href="#m60dcdde14d" y="282.782223"/>
     <use style="fill:#471365;fill-opacity:0.8;stroke:#471365;stroke-opacity:0.8;" x="132.298581" xlink:href="#m60dcdde14d" y="311.444871"/>
     <use style="fill:#471365;fill-opacity:0.8;stroke:#471365;stroke-opacity:0.8;" x="197.946298" xlink:href="#m60dcdde14d" y="320.655763"/>
     <use style="fill:#471365;fill-opacity:0.8;stroke:#471365;stroke-opacity:0.8;" x="169.051843" xlink:href="#m60dcdde14d" y="320.253583"/>
     <use style="fill:#471365;fill-opacity:0.8;stroke:#471365;stroke-opacity:0.8;" x="173.624157" xlink:href="#m60dcdde14d" y="317.428517"/>
     <use style="fill:#471365;fill-opacity:0.8;stroke:#471365;stroke-opacity:0.8;" x="192.428662" xlink:href="#m60dcdde14d" y="318.144593"/>
     <use style="fill:#471365;fill-opacity:0.8;stroke:#471365;stroke-opacity:0.8;" x="158.667177" xlink:href="#m60dcdde14d" y="314.09337"/>
     <use style="fill:#471365;fill-opacity:0.8;stroke:#471365;stroke-opacity:0.8;" x="147.409731" xlink:href="#m60dcdde14d" y="311.18983"/>
     <use style="fill:#471365;fill-opacity:0.8;stroke:#471365;stroke-opacity:0.8;" x="112.148553" xlink:href="#m60dcdde14d" y="165.846073"/>
     <use style="fill:#471365;fill-opacity:0.8;stroke:#471365;stroke-opacity:0.8;" x="235.389776" xlink:href="#m60dcdde14d" y="325.452489"/>
     <use style="fill:#471365;fill-opacity:0.8;stroke:#471365;stroke-opacity:0.8;" x="158.853283" xlink:href="#m60dcdde14d" y="313.239965"/>
     <use style="fill:#471365;fill-opacity:0.8;stroke:#471365;stroke-opacity:0.8;" x="146.394022" xlink:href="#m60dcdde14d" y="306.579479"/>
     <use style="fill:#471365;fill-opacity:0.8;stroke:#471365;stroke-opacity:0.8;" x="148.254497" xlink:href="#m60dcdde14d" y="314.034515"/>
     <use style="fill:#471365;fill-opacity:0.8;stroke:#471365;stroke-opacity:0.8;" x="249.09521" xlink:href="#m60dcdde14d" y="322.117342"/>
     <use style="fill:#471365;fill-opacity:0.8;stroke:#471365;stroke-opacity:0.8;" x="164.641996" xlink:href="#m60dcdde14d" y="313.151681"/>
     <use style="fill:#471365;fill-opacity:0.8;stroke:#471365;stroke-opacity:0.8;" x="158.433126" xlink:href="#m60dcdde14d" y="313.455768"/>
     <use style="fill:#471365;fill-opacity:0.8;stroke:#471365;stroke-opacity:0.8;" x="155.254409" xlink:href="#m60dcdde14d" y="313.632335"/>
     <use style="fill:#471365;fill-opacity:0.8;stroke:#471365;stroke-opacity:0.8;" x="112.946891" xlink:href="#m60dcdde14d" y="293.798018"/>
     <use style="fill:#471365;fill-opacity:0.8;stroke:#471365;stroke-opacity:0.8;" x="182.682303" xlink:href="#m60dcdde14d" y="318.811623"/>
     <use style="fill:#471365;fill-opacity:0.8;stroke:#471365;stroke-opacity:0.8;" x="143.429909" xlink:href="#m60dcdde14d" y="313.867757"/>
     <use style="fill:#471365;fill-opacity:0.8;stroke:#471365;stroke-opacity:0.8;" x="185.971624" xlink:href="#m60dcdde14d" y="317.173477"/>
     <use style="fill:#471365;fill-opacity:0.8;stroke:#471365;stroke-opacity:0.8;" x="204.802072" xlink:href="#m60dcdde14d" y="322.774562"/>
     <use style="fill:#471365;fill-opacity:0.8;stroke:#471365;stroke-opacity:0.8;" x="227.364796" xlink:href="#m60dcdde14d" y="320.940231"/>
     <use style="fill:#471365;fill-opacity:0.8;stroke:#471365;stroke-opacity:0.8;" x="122.531286" xlink:href="#m60dcdde14d" y="308.541331"/>
     <use style="fill:#471365;fill-opacity:0.8;stroke:#471365;stroke-opacity:0.8;" x="141.898744" xlink:href="#m60dcdde14d" y="311.670484"/>
     <use style="fill:#471365;fill-opacity:0.8;stroke:#471365;stroke-opacity:0.8;" x="234.383777" xlink:href="#m60dcdde14d" y="319.537508"/>
     <use style="fill:#471365;fill-opacity:0.8;stroke:#471365;stroke-opacity:0.8;" x="123.777411" xlink:href="#m60dcdde14d" y="230.057468"/>
     <use style="fill:#471365;fill-opacity:0.8;stroke:#471365;stroke-opacity:0.8;" x="165.577232" xlink:href="#m60dcdde14d" y="316.251407"/>
     <use style="fill:#471365;fill-opacity:0.8;stroke:#471365;stroke-opacity:0.8;" x="198.212266" xlink:href="#m60dcdde14d" y="323.098268"/>
     <use style="fill:#471365;fill-opacity:0.8;stroke:#471365;stroke-opacity:0.8;" x="144.813777" xlink:href="#m60dcdde14d" y="312.474843"/>
     <use style="fill:#471365;fill-opacity:0.8;stroke:#471365;stroke-opacity:0.8;" x="123.556658" xlink:href="#m60dcdde14d" y="175.155058"/>
     <use style="fill:#471365;fill-opacity:0.8;stroke:#471365;stroke-opacity:0.8;" x="159.455686" xlink:href="#m60dcdde14d" y="313.347867"/>
     <use style="fill:#471365;fill-opacity:0.8;stroke:#471365;stroke-opacity:0.8;" x="161.031245" xlink:href="#m60dcdde14d" y="312.151137"/>
     <use style="fill:#471365;fill-opacity:0.8;stroke:#471365;stroke-opacity:0.8;" x="172.500527" xlink:href="#m60dcdde14d" y="316.99691"/>
     <use style="fill:#471365;fill-opacity:0.8;stroke:#471365;stroke-opacity:0.8;" x="167.853429" xlink:href="#m60dcdde14d" y="316.055221"/>
     <use style="fill:#471365;fill-opacity:0.8;stroke:#471365;stroke-opacity:0.8;" x="145.406096" xlink:href="#m60dcdde14d" y="312.965306"/>
     <use style="fill:#471365;fill-opacity:0.8;stroke:#471365;stroke-opacity:0.8;" x="138.287048" xlink:href="#m60dcdde14d" y="307.805637"/>
     <use style="fill:#471365;fill-opacity:0.8;stroke:#471365;stroke-opacity:0.8;" x="135.548414" xlink:href="#m60dcdde14d" y="309.885199"/>
     <use style="fill:#471365;fill-opacity:0.8;stroke:#471365;stroke-opacity:0.8;" x="154.76244" xlink:href="#m60dcdde14d" y="317.820888"/>
     <use style="fill:#471365;fill-opacity:0.8;stroke:#471365;stroke-opacity:0.8;" x="113.658737" xlink:href="#m60dcdde14d" y="306.157681"/>
     <use style="fill:#471365;fill-opacity:0.8;stroke:#471365;stroke-opacity:0.8;" x="128.770231" xlink:href="#m60dcdde14d" y="304.470489"/>
     <use style="fill:#471365;fill-opacity:0.8;stroke:#471365;stroke-opacity:0.8;" x="156.303764" xlink:href="#m60dcdde14d" y="314.524977"/>
     <use style="fill:#471365;fill-opacity:0.8;stroke:#471365;stroke-opacity:0.8;" x="206.687353" xlink:href="#m60dcdde14d" y="319.606172"/>
     <use style="fill:#471365;fill-opacity:0.8;stroke:#471365;stroke-opacity:0.8;" x="129.704358" xlink:href="#m60dcdde14d" y="307.933157"/>
     <use style="fill:#471365;fill-opacity:0.8;stroke:#471365;stroke-opacity:0.8;" x="165.566469" xlink:href="#m60dcdde14d" y="295.318453"/>
     <use style="fill:#471365;fill-opacity:0.8;stroke:#471365;stroke-opacity:0.8;" x="179.625128" xlink:href="#m60dcdde14d" y="324.11843"/>
     <use style="fill:#471365;fill-opacity:0.8;stroke:#471365;stroke-opacity:0.8;" x="144.720442" xlink:href="#m60dcdde14d" y="313.857948"/>
     <use style="fill:#471365;fill-opacity:0.8;stroke:#471365;stroke-opacity:0.8;" x="177.635755" xlink:href="#m60dcdde14d" y="317.91898"/>
     <use style="fill:#471365;fill-opacity:0.8;stroke:#471365;stroke-opacity:0.8;" x="123.11771" xlink:href="#m60dcdde14d" y="241.181165"/>
     <use style="fill:#471365;fill-opacity:0.8;stroke:#471365;stroke-opacity:0.8;" x="140.639807" xlink:href="#m60dcdde14d" y="309.855771"/>
     <use style="fill:#471365;fill-opacity:0.8;stroke:#471365;stroke-opacity:0.8;" x="160.967787" xlink:href="#m60dcdde14d" y="319.253039"/>
     <use style="fill:#471365;fill-opacity:0.8;stroke:#471365;stroke-opacity:0.8;" x="164.109826" xlink:href="#m60dcdde14d" y="312.975115"/>
     <use style="fill:#471365;fill-opacity:0.8;stroke:#471365;stroke-opacity:0.8;" x="202.094223" xlink:href="#m60dcdde14d" y="321.048133"/>
     <use style="fill:#471365;fill-opacity:0.8;stroke:#471365;stroke-opacity:0.8;" x="125.784752" xlink:href="#m60dcdde14d" y="309.895008"/>
     <use style="fill:#471365;fill-opacity:0.8;stroke:#471365;stroke-opacity:0.8;" x="167.50296" xlink:href="#m60dcdde14d" y="320.351676"/>
     <use style="fill:#471365;fill-opacity:0.8;stroke:#471365;stroke-opacity:0.8;" x="244.80207" xlink:href="#m60dcdde14d" y="322.715707"/>
     <use style="fill:#471365;fill-opacity:0.8;stroke:#471365;stroke-opacity:0.8;" x="133.852814" xlink:href="#m60dcdde14d" y="314.152226"/>
     <use style="fill:#471365;fill-opacity:0.8;stroke:#471365;stroke-opacity:0.8;" x="170.255551" xlink:href="#m60dcdde14d" y="314.848683"/>
     <use style="fill:#471365;fill-opacity:0.8;stroke:#471365;stroke-opacity:0.8;" x="154.9914" xlink:href="#m60dcdde14d" y="317.006719"/>
     <use style="fill:#471365;fill-opacity:0.8;stroke:#471365;stroke-opacity:0.8;" x="139.962771" xlink:href="#m60dcdde14d" y="312.180565"/>
     <use style="fill:#471365;fill-opacity:0.8;stroke:#471365;stroke-opacity:0.8;" x="126.61945" xlink:href="#m60dcdde14d" y="273.355527"/>
     <use style="fill:#471365;fill-opacity:0.8;stroke:#471365;stroke-opacity:0.8;" x="187.113986" xlink:href="#m60dcdde14d" y="320.096635"/>
     <use style="fill:#471365;fill-opacity:0.8;stroke:#471365;stroke-opacity:0.8;" x="176.086783" xlink:href="#m60dcdde14d" y="315.515712"/>
     <use style="fill:#471365;fill-opacity:0.8;stroke:#471365;stroke-opacity:0.8;" x="158.087285" xlink:href="#m60dcdde14d" y="312.543508"/>
     <use style="fill:#471365;fill-opacity:0.8;stroke:#471365;stroke-opacity:0.8;" x="220.367049" xlink:href="#m60dcdde14d" y="323.843771"/>
     <use style="fill:#471365;fill-opacity:0.8;stroke:#471365;stroke-opacity:0.8;" x="210.512338" xlink:href="#m60dcdde14d" y="320.047589"/>
     <use style="fill:#471365;fill-opacity:0.8;stroke:#471365;stroke-opacity:0.8;" x="178.51603" xlink:href="#m60dcdde14d" y="319.880832"/>
     <use style="fill:#471365;fill-opacity:0.8;stroke:#471365;stroke-opacity:0.8;" x="259.566339" xlink:href="#m60dcdde14d" y="321.195272"/>
     <use style="fill:#471365;fill-opacity:0.8;stroke:#471365;stroke-opacity:0.8;" x="232.046823" xlink:href="#m60dcdde14d" y="317.379471"/>
     <use style="fill:#471365;fill-opacity:0.8;stroke:#471365;stroke-opacity:0.8;" x="117.369525" xlink:href="#m60dcdde14d" y="116.13276"/>
     <use style="fill:#471365;fill-opacity:0.8;stroke:#471365;stroke-opacity:0.8;" x="126.367928" xlink:href="#m60dcdde14d" y="296.309188"/>
     <use style="fill:#471365;fill-opacity:0.8;stroke:#471365;stroke-opacity:0.8;" x="193.383119" xlink:href="#m60dcdde14d" y="323.883008"/>
     <use style="fill:#471365;fill-opacity:0.8;stroke:#471365;stroke-opacity:0.8;" x="182.439596" xlink:href="#m60dcdde14d" y="318.105356"/>
     <use style="fill:#471365;fill-opacity:0.8;stroke:#471365;stroke-opacity:0.8;" x="121.584881" xlink:href="#m60dcdde14d" y="278.309202"/>
     <use style="fill:#471365;fill-opacity:0.8;stroke:#471365;stroke-opacity:0.8;" x="132.974894" xlink:href="#m60dcdde14d" y="311.297732"/>
     <use style="fill:#471365;fill-opacity:0.8;stroke:#471365;stroke-opacity:0.8;" x="138.806847" xlink:href="#m60dcdde14d" y="310.101003"/>
     <use style="fill:#471365;fill-opacity:0.8;stroke:#471365;stroke-opacity:0.8;" x="128.976826" xlink:href="#m60dcdde14d" y="300.742972"/>
     <use style="fill:#471365;fill-opacity:0.8;stroke:#471365;stroke-opacity:0.8;" x="254.576981" xlink:href="#m60dcdde14d" y="323.480829"/>
     <use style="fill:#471365;fill-opacity:0.8;stroke:#471365;stroke-opacity:0.8;" x="142.577703" xlink:href="#m60dcdde14d" y="311.405634"/>
     <use style="fill:#471365;fill-opacity:0.8;stroke:#471365;stroke-opacity:0.8;" x="147.755488" xlink:href="#m60dcdde14d" y="312.886832"/>
     <use style="fill:#471365;fill-opacity:0.8;stroke:#471365;stroke-opacity:0.8;" x="148.012942" xlink:href="#m60dcdde14d" y="314.2307"/>
     <use style="fill:#471365;fill-opacity:0.8;stroke:#471365;stroke-opacity:0.8;" x="117.692299" xlink:href="#m60dcdde14d" y="298.084663"/>
     <use style="fill:#471365;fill-opacity:0.8;stroke:#471365;stroke-opacity:0.8;" x="134.514919" xlink:href="#m60dcdde14d" y="298.692837"/>
     <use style="fill:#471365;fill-opacity:0.8;stroke:#471365;stroke-opacity:0.8;" x="196.712343" xlink:href="#m60dcdde14d" y="318.635056"/>
     <use style="fill:#471365;fill-opacity:0.8;stroke:#471365;stroke-opacity:0.8;" x="143.712561" xlink:href="#m60dcdde14d" y="312.24923"/>
     <use style="fill:#471365;fill-opacity:0.8;stroke:#471365;stroke-opacity:0.8;" x="134.814144" xlink:href="#m60dcdde14d" y="302.587112"/>
     <use style="fill:#471365;fill-opacity:0.8;stroke:#471365;stroke-opacity:0.8;" x="119.985167" xlink:href="#m60dcdde14d" y="311.5822"/>
     <use style="fill:#471365;fill-opacity:0.8;stroke:#471365;stroke-opacity:0.8;" x="157.78562" xlink:href="#m60dcdde14d" y="317.359853"/>
     <use style="fill:#471365;fill-opacity:0.8;stroke:#471365;stroke-opacity:0.8;" x="158.874795" xlink:href="#m60dcdde14d" y="315.564759"/>
     <use style="fill:#471365;fill-opacity:0.8;stroke:#471365;stroke-opacity:0.8;" x="136.06581" xlink:href="#m60dcdde14d" y="312.945687"/>
     <use style="fill:#471365;fill-opacity:0.8;stroke:#471365;stroke-opacity:0.8;" x="205.487784" xlink:href="#m60dcdde14d" y="321.028515"/>
     <use style="fill:#471365;fill-opacity:0.8;stroke:#471365;stroke-opacity:0.8;" x="151.926074" xlink:href="#m60dcdde14d" y="318.017073"/>
     <use style="fill:#471365;fill-opacity:0.8;stroke:#471365;stroke-opacity:0.8;" x="170.470832" xlink:href="#m60dcdde14d" y="315.476475"/>
     <use style="fill:#471365;fill-opacity:0.8;stroke:#471365;stroke-opacity:0.8;" x="157.67462" xlink:href="#m60dcdde14d" y="315.093914"/>
     <use style="fill:#471365;fill-opacity:0.8;stroke:#471365;stroke-opacity:0.8;" x="136.97128" xlink:href="#m60dcdde14d" y="308.639423"/>
     <use style="fill:#471365;fill-opacity:0.8;stroke:#471365;stroke-opacity:0.8;" x="177.027115" xlink:href="#m60dcdde14d" y="319.50808"/>
     <use style="fill:#471365;fill-opacity:0.8;stroke:#471365;stroke-opacity:0.8;" x="193.325925" xlink:href="#m60dcdde14d" y="321.823064"/>
     <use style="fill:#471365;fill-opacity:0.8;stroke:#471365;stroke-opacity:0.8;" x="123.808436" xlink:href="#m60dcdde14d" y="296.387662"/>
     <use style="fill:#471365;fill-opacity:0.8;stroke:#471365;stroke-opacity:0.8;" x="121.319667" xlink:href="#m60dcdde14d" y="298.427987"/>
     <use style="fill:#471365;fill-opacity:0.8;stroke:#471365;stroke-opacity:0.8;" x="162.610031" xlink:href="#m60dcdde14d" y="317.065575"/>
     <use style="fill:#471365;fill-opacity:0.8;stroke:#471365;stroke-opacity:0.8;" x="122.443571" xlink:href="#m60dcdde14d" y="301.331527"/>
     <use style="fill:#471365;fill-opacity:0.8;stroke:#471365;stroke-opacity:0.8;" x="150.181588" xlink:href="#m60dcdde14d" y="315.456857"/>
     <use style="fill:#471365;fill-opacity:0.8;stroke:#471365;stroke-opacity:0.8;" x="116.108082" xlink:href="#m60dcdde14d" y="254.766986"/>
     <use style="fill:#471365;fill-opacity:0.8;stroke:#471365;stroke-opacity:0.8;" x="125.766161" xlink:href="#m60dcdde14d" y="305.971306"/>
     <use style="fill:#471365;fill-opacity:0.8;stroke:#471365;stroke-opacity:0.8;" x="212.714515" xlink:href="#m60dcdde14d" y="321.695544"/>
     <use style="fill:#471365;fill-opacity:0.8;stroke:#471365;stroke-opacity:0.8;" x="146.479724" xlink:href="#m60dcdde14d" y="309.463401"/>
     <use style="fill:#471365;fill-opacity:0.8;stroke:#471365;stroke-opacity:0.8;" x="144.990095" xlink:href="#m60dcdde14d" y="317.771841"/>
     <use style="fill:#471365;fill-opacity:0.8;stroke:#471365;stroke-opacity:0.8;" x="178.498103" xlink:href="#m60dcdde14d" y="318.026882"/>
     <use style="fill:#471365;fill-opacity:0.8;stroke:#471365;stroke-opacity:0.8;" x="286.851888" xlink:href="#m60dcdde14d" y="324.177286"/>
     <use style="fill:#471365;fill-opacity:0.8;stroke:#471365;stroke-opacity:0.8;" x="144.794782" xlink:href="#m60dcdde14d" y="316.653586"/>
     <use style="fill:#471365;fill-opacity:0.8;stroke:#471365;stroke-opacity:0.8;" x="194.936849" xlink:href="#m60dcdde14d" y="318.595819"/>
     <use style="fill:#471365;fill-opacity:0.8;stroke:#471365;stroke-opacity:0.8;" x="281.234423" xlink:href="#m60dcdde14d" y="326.943496"/>
     <use style="fill:#471365;fill-opacity:0.8;stroke:#471365;stroke-opacity:0.8;" x="126.629806" xlink:href="#m60dcdde14d" y="252.187151"/>
     <use style="fill:#471365;fill-opacity:0.8;stroke:#471365;stroke-opacity:0.8;" x="182.184723" xlink:href="#m60dcdde14d" y="318.281923"/>
     <use style="fill:#471365;fill-opacity:0.8;stroke:#471365;stroke-opacity:0.8;" x="170.894864" xlink:href="#m60dcdde14d" y="315.496094"/>
     <use style="fill:#471365;fill-opacity:0.8;stroke:#471365;stroke-opacity:0.8;" x="174.987273" xlink:href="#m60dcdde14d" y="316.172933"/>
     <use style="fill:#471365;fill-opacity:0.8;stroke:#471365;stroke-opacity:0.8;" x="173.367934" xlink:href="#m60dcdde14d" y="320.175109"/>
     <use style="fill:#471365;fill-opacity:0.8;stroke:#471365;stroke-opacity:0.8;" x="230.669116" xlink:href="#m60dcdde14d" y="320.184919"/>
     <use style="fill:#471365;fill-opacity:0.8;stroke:#471365;stroke-opacity:0.8;" x="139.473109" xlink:href="#m60dcdde14d" y="312.631791"/>
     <use style="fill:#471365;fill-opacity:0.8;stroke:#471365;stroke-opacity:0.8;" x="190.817284" xlink:href="#m60dcdde14d" y="319.763121"/>
     <use style="fill:#471365;fill-opacity:0.8;stroke:#471365;stroke-opacity:0.8;" x="195.537669" xlink:href="#m60dcdde14d" y="317.830697"/>
     <use style="fill:#471365;fill-opacity:0.8;stroke:#471365;stroke-opacity:0.8;" x="224.178796" xlink:href="#m60dcdde14d" y="319.203993"/>
     <use style="fill:#471365;fill-opacity:0.8;stroke:#471365;stroke-opacity:0.8;" x="174.598979" xlink:href="#m60dcdde14d" y="317.065575"/>
     <use style="fill:#471365;fill-opacity:0.8;stroke:#471365;stroke-opacity:0.8;" x="202.292473" xlink:href="#m60dcdde14d" y="320.233965"/>
     <use style="fill:#471365;fill-opacity:0.8;stroke:#471365;stroke-opacity:0.8;" x="180.931489" xlink:href="#m60dcdde14d" y="319.890641"/>
     <use style="fill:#471365;fill-opacity:0.8;stroke:#471365;stroke-opacity:0.8;" x="167.041924" xlink:href="#m60dcdde14d" y="321.283555"/>
     <use style="fill:#471365;fill-opacity:0.8;stroke:#471365;stroke-opacity:0.8;" x="172.627738" xlink:href="#m60dcdde14d" y="313.848139"/>
     <use style="fill:#471365;fill-opacity:0.8;stroke:#471365;stroke-opacity:0.8;" x="173.806053" xlink:href="#m60dcdde14d" y="327.277011"/>
     <use style="fill:#471365;fill-opacity:0.8;stroke:#471365;stroke-opacity:0.8;" x="126.6644" xlink:href="#m60dcdde14d" y="310.179477"/>
     <use style="fill:#471365;fill-opacity:0.8;stroke:#471365;stroke-opacity:0.8;" x="154.21487" xlink:href="#m60dcdde14d" y="315.760944"/>
     <use style="fill:#471365;fill-opacity:0.8;stroke:#471365;stroke-opacity:0.8;" x="138.697896" xlink:href="#m60dcdde14d" y="305.529889"/>
     <use style="fill:#471365;fill-opacity:0.8;stroke:#471365;stroke-opacity:0.8;" x="137.635861" xlink:href="#m60dcdde14d" y="314.269937"/>
     <use style="fill:#471365;fill-opacity:0.8;stroke:#471365;stroke-opacity:0.8;" x="148.509841" xlink:href="#m60dcdde14d" y="314.475931"/>
     <use style="fill:#471365;fill-opacity:0.8;stroke:#471365;stroke-opacity:0.8;" x="198.286959" xlink:href="#m60dcdde14d" y="318.507536"/>
     <use style="fill:#471365;fill-opacity:0.8;stroke:#471365;stroke-opacity:0.8;" x="151.66391" xlink:href="#m60dcdde14d" y="313.946231"/>
     <use style="fill:#471365;fill-opacity:0.8;stroke:#471365;stroke-opacity:0.8;" x="150.97189" xlink:href="#m60dcdde14d" y="310.512991"/>
     <use style="fill:#471365;fill-opacity:0.8;stroke:#471365;stroke-opacity:0.8;" x="139.228611" xlink:href="#m60dcdde14d" y="310.552228"/>
     <use style="fill:#471365;fill-opacity:0.8;stroke:#471365;stroke-opacity:0.8;" x="193.176844" xlink:href="#m60dcdde14d" y="318.997998"/>
     <use style="fill:#471365;fill-opacity:0.8;stroke:#471365;stroke-opacity:0.8;" x="170.082059" xlink:href="#m60dcdde14d" y="319.77293"/>
     <use style="fill:#471365;fill-opacity:0.8;stroke:#471365;stroke-opacity:0.8;" x="134.089535" xlink:href="#m60dcdde14d" y="310.679749"/>
    </g>
   </g>
   <g id="PolyCollection_1">
    <defs>
     <path d="M 60.082457 -163.694768 
L 60.082457 -141.086248 
L 62.913661 -140.512376 
L 65.744864 -139.938504 
L 68.576068 -139.364632 
L 71.407271 -138.79076 
L 74.238474 -138.216888 
L 77.069678 -137.643016 
L 79.900881 -137.068671 
L 82.732085 -136.493972 
L 85.563288 -135.919272 
L 88.394492 -135.34546 
L 91.225695 -134.77212 
L 94.056899 -134.198779 
L 96.888102 -133.648629 
L 99.719306 -133.075203 
L 102.550509 -132.479453 
L 105.381713 -131.903268 
L 108.212916 -131.328114 
L 111.044119 -130.753981 
L 113.875323 -130.182076 
L 116.706526 -129.635013 
L 119.53773 -129.07064 
L 122.368933 -128.501481 
L 125.200137 -127.962281 
L 128.03134 -127.399694 
L 130.862544 -126.823338 
L 133.693747 -126.278284 
L 136.524951 -125.722346 
L 139.356154 -125.127908 
L 142.187358 -124.553882 
L 145.018561 -124.019858 
L 147.849765 -123.452287 
L 150.680968 -122.784616 
L 153.512171 -122.247584 
L 156.343375 -121.656822 
L 159.174578 -121.039502 
L 162.005782 -120.434174 
L 164.836985 -119.805633 
L 167.668189 -119.184703 
L 170.499392 -118.565694 
L 173.330596 -117.927755 
L 176.161799 -117.286229 
L 178.993003 -116.656271 
L 181.824206 -115.879906 
L 184.65541 -115.099821 
L 187.486613 -114.230752 
L 190.317816 -113.363117 
L 193.14902 -112.411011 
L 195.980223 -111.4488 
L 198.811427 -110.477976 
L 201.64263 -109.563815 
L 204.473834 -108.587058 
L 207.305037 -107.615217 
L 210.136241 -106.58884 
L 212.967444 -105.604178 
L 215.798648 -104.593463 
L 218.629851 -103.581131 
L 221.461055 -102.558586 
L 224.292258 -101.45155 
L 227.123461 -100.423315 
L 229.954665 -99.402179 
L 232.785868 -98.393939 
L 235.617072 -97.353313 
L 238.448275 -96.30458 
L 241.279479 -95.236844 
L 244.110682 -94.215765 
L 246.941886 -93.119394 
L 249.773089 -92.06018 
L 252.604293 -91.043946 
L 255.435496 -90.027712 
L 258.2667 -88.984449 
L 261.097903 -87.887429 
L 263.929106 -86.791189 
L 266.76031 -85.743866 
L 269.591513 -84.727608 
L 272.422717 -83.711349 
L 275.25392 -82.695091 
L 278.085124 -81.678833 
L 280.916327 -80.656077 
L 283.747531 -79.558025 
L 286.578734 -78.482706 
L 289.409938 -77.380408 
L 292.241141 -76.278571 
L 295.072345 -75.241394 
L 297.903548 -74.206024 
L 300.734752 -73.132646 
L 303.565955 -72.044623 
L 306.397158 -70.957989 
L 309.228362 -69.912469 
L 312.059565 -68.86695 
L 314.890769 -67.82143 
L 317.721972 -66.775911 
L 320.553176 -65.730391 
L 323.384379 -64.684872 
L 326.215583 -63.639353 
L 329.046786 -62.593833 
L 331.87799 -61.54873 
L 334.709193 -60.501748 
L 337.540397 -59.425999 
L 340.3716 -58.350249 
L 340.3716 -85.258357 
L 340.3716 -85.258357 
L 337.540397 -85.815128 
L 334.709193 -86.366615 
L 331.87799 -86.918103 
L 329.046786 -87.46959 
L 326.215583 -88.021023 
L 323.384379 -88.571733 
L 320.553176 -89.129622 
L 317.721972 -89.721229 
L 314.890769 -90.261482 
L 312.059565 -90.801734 
L 309.228362 -91.370558 
L 306.397158 -91.940289 
L 303.565955 -92.51002 
L 300.734752 -93.07975 
L 297.903548 -93.649481 
L 295.072345 -94.219212 
L 292.241141 -94.788943 
L 289.409938 -95.358674 
L 286.578734 -95.928405 
L 283.747531 -96.498136 
L 280.916327 -97.067867 
L 278.085124 -97.637597 
L 275.25392 -98.207328 
L 272.422717 -98.812463 
L 269.591513 -99.37506 
L 266.76031 -99.987729 
L 263.929106 -100.633 
L 261.097903 -101.213681 
L 258.2667 -101.782245 
L 255.435496 -102.304609 
L 252.604293 -102.826466 
L 249.773089 -103.412611 
L 246.941886 -104.025173 
L 244.110682 -104.627165 
L 241.279479 -105.13552 
L 238.448275 -105.73637 
L 235.617072 -106.270331 
L 232.785868 -106.877608 
L 229.954665 -107.456966 
L 227.123461 -108.05004 
L 224.292258 -108.695506 
L 221.461055 -109.24212 
L 218.629851 -109.829112 
L 215.798648 -110.512778 
L 212.967444 -111.114679 
L 210.136241 -111.774532 
L 207.305037 -112.432528 
L 204.473834 -113.111664 
L 201.64263 -113.817798 
L 198.811427 -114.523276 
L 195.980223 -115.262238 
L 193.14902 -116.07198 
L 190.317816 -116.933419 
L 187.486613 -117.754541 
L 184.65541 -118.601947 
L 181.824206 -119.470917 
L 178.993003 -120.358263 
L 176.161799 -121.345598 
L 173.330596 -122.159528 
L 170.499392 -123.245443 
L 167.668189 -124.19655 
L 164.836985 -125.136916 
L 162.005782 -126.145998 
L 159.174578 -127.199851 
L 156.343375 -128.152418 
L 153.512171 -129.169959 
L 150.680968 -130.214668 
L 147.849765 -131.222476 
L 145.018561 -132.227835 
L 142.187358 -133.24102 
L 139.356154 -134.294031 
L 136.524951 -135.327194 
L 133.693747 -136.29382 
L 130.862544 -137.317876 
L 128.03134 -138.436368 
L 125.200137 -139.475186 
L 122.368933 -140.56163 
L 119.53773 -141.540743 
L 116.706526 -142.64423 
L 113.875323 -143.647982 
L 111.044119 -144.70978 
L 108.212916 -145.784616 
L 105.381713 -146.857739 
L 102.550509 -147.859662 
L 99.719306 -148.875362 
L 96.888102 -149.949892 
L 94.056899 -151.074272 
L 91.225695 -152.184189 
L 88.394492 -153.231442 
L 85.563288 -154.276674 
L 82.732085 -155.312012 
L 79.900881 -156.36892 
L 77.069678 -157.415771 
L 74.238474 -158.4612 
L 71.407271 -159.507447 
L 68.576068 -160.554277 
L 65.744864 -161.601107 
L 62.913661 -162.647938 
L 60.082457 -163.694768 
z
" id="m8a622c0ef4" style="stroke:#ffffff;stroke-opacity:0.15;stroke-width:0.8;"/>
    </defs>
    <g clip-path="url(#p62c3c27425)">
     <use style="fill:#471365;fill-opacity:0.15;stroke:#ffffff;stroke-opacity:0.15;stroke-width:0.8;" x="0" xlink:href="#m8a622c0ef4" y="432"/>
    </g>
   </g>
   <g id="line2d_18">
    <path clip-path="url(#p62c3c27425)" d="M 60.082457 280.892248 
L 62.913661 281.670968 
L 65.744864 282.449688 
L 68.576068 283.228408 
L 71.407271 284.007127 
L 74.238474 284.785847 
L 77.069678 285.564567 
L 79.900881 286.343287 
L 82.732085 287.122006 
L 85.563288 287.900726 
L 88.394492 288.679446 
L 91.225695 289.458166 
L 94.056899 290.236886 
L 96.888102 291.015605 
L 99.719306 291.794325 
L 102.550509 292.573045 
L 105.381713 293.351765 
L 108.212916 294.130484 
L 111.044119 294.909204 
L 113.875323 295.687924 
L 116.706526 296.466644 
L 119.53773 297.245363 
L 122.368933 298.024083 
L 125.200137 298.802803 
L 128.03134 299.581523 
L 130.862544 300.360242 
L 133.693747 301.138962 
L 136.524951 301.917682 
L 139.356154 302.696402 
L 142.187358 303.475122 
L 145.018561 304.253841 
L 147.849765 305.032561 
L 150.680968 305.811281 
L 153.512171 306.590001 
L 156.343375 307.36872 
L 159.174578 308.14744 
L 162.005782 308.92616 
L 164.836985 309.70488 
L 167.668189 310.483599 
L 170.499392 311.262319 
L 173.330596 312.041039 
L 176.161799 312.819759 
L 178.993003 313.598478 
L 181.824206 314.377198 
L 184.65541 315.155918 
L 187.486613 315.934638 
L 190.317816 316.713357 
L 193.14902 317.492077 
L 195.980223 318.270797 
L 198.811427 319.049517 
L 201.64263 319.828237 
L 204.473834 320.606956 
L 207.305037 321.385676 
L 210.136241 322.164396 
L 212.967444 322.943116 
L 215.798648 323.721835 
L 218.629851 324.500555 
L 221.461055 325.279275 
L 224.292258 326.057995 
L 227.123461 326.836714 
L 229.954665 327.615434 
L 232.785868 328.394154 
L 235.617072 329.172874 
L 238.448275 329.951593 
L 241.279479 330.730313 
L 244.110682 331.509033 
L 246.941886 332.287753 
L 249.773089 333.066472 
L 252.604293 333.845192 
L 255.435496 334.623912 
L 258.2667 335.402632 
L 261.097903 336.181352 
L 263.929106 336.960071 
L 266.76031 337.738791 
L 269.591513 338.517511 
L 272.422717 339.296231 
L 275.25392 340.07495 
L 278.085124 340.85367 
L 280.916327 341.63239 
L 283.747531 342.41111 
L 286.578734 343.189829 
L 289.409938 343.968549 
L 292.241141 344.747269 
L 295.072345 345.525989 
L 297.903548 346.304708 
L 300.734752 347.083428 
L 303.565955 347.862148 
L 306.397158 348.640868 
L 309.228362 349.419588 
L 312.059565 350.198307 
L 314.890769 350.977027 
L 317.721972 351.755747 
L 320.553176 352.534467 
L 323.384379 353.313186 
L 326.215583 354.091906 
L 329.046786 354.870626 
L 331.87799 355.649346 
L 334.709193 356.428065 
L 337.540397 357.206785 
L 340.3716 357.985505 
" style="fill:none;stroke:#471365;stroke-linecap:round;stroke-width:1.8;"/>
   </g>
   <g id="patch_3">
    <path d="M 46.068 387.732 
L 46.068 77.922514 
" style="fill:none;stroke:#262626;stroke-linecap:square;stroke-linejoin:miter;"/>
   </g>
   <g id="patch_4">
    <path d="M 46.068 387.732 
L 354.386057 387.732 
" style="fill:none;stroke:#262626;stroke-linecap:square;stroke-linejoin:miter;"/>
   </g>
   <g id="legend_1">
    <g id="patch_5">
     <path d="M 187.056807 97.879264 
L 348.226057 97.879264 
Q 349.986057 97.879264 349.986057 96.119264 
L 349.986057 84.082514 
Q 349.986057 82.322514 348.226057 82.322514 
L 187.056807 82.322514 
Q 185.296807 82.322514 185.296807 84.082514 
L 185.296807 96.119264 
Q 185.296807 97.879264 187.056807 97.879264 
z
" style="fill:#ffffff;opacity:0.8;stroke:#cccccc;stroke-linejoin:miter;stroke-width:0.8;"/>
    </g>
    <g id="line2d_19"/>
    <g id="line2d_20"/>
    <g id="text_20">
     <!-- pearsonr = -0.45; p = 8.9e-12 -->
     <defs>
      <path d="M 18.109375 8.203125 
L 18.109375 -20.796875 
L 9.078125 -20.796875 
L 9.078125 54.6875 
L 18.109375 54.6875 
L 18.109375 46.390625 
Q 20.953125 51.265625 25.265625 53.625 
Q 29.59375 56 35.59375 56 
Q 45.5625 56 51.78125 48.09375 
Q 58.015625 40.1875 58.015625 27.296875 
Q 58.015625 14.40625 51.78125 6.484375 
Q 45.5625 -1.421875 35.59375 -1.421875 
Q 29.59375 -1.421875 25.265625 0.953125 
Q 20.953125 3.328125 18.109375 8.203125 
z
M 48.6875 27.296875 
Q 48.6875 37.203125 44.609375 42.84375 
Q 40.53125 48.484375 33.40625 48.484375 
Q 26.265625 48.484375 22.1875 42.84375 
Q 18.109375 37.203125 18.109375 27.296875 
Q 18.109375 17.390625 22.1875 11.75 
Q 26.265625 6.109375 33.40625 6.109375 
Q 40.53125 6.109375 44.609375 11.75 
Q 48.6875 17.390625 48.6875 27.296875 
z
" id="DejaVuSans-70"/>
      <path d="M 44.28125 53.078125 
L 44.28125 44.578125 
Q 40.484375 46.53125 36.375 47.5 
Q 32.28125 48.484375 27.875 48.484375 
Q 21.1875 48.484375 17.84375 46.4375 
Q 14.5 44.390625 14.5 40.28125 
Q 14.5 37.15625 16.890625 35.375 
Q 19.28125 33.59375 26.515625 31.984375 
L 29.59375 31.296875 
Q 39.15625 29.25 43.1875 25.515625 
Q 47.21875 21.78125 47.21875 15.09375 
Q 47.21875 7.46875 41.1875 3.015625 
Q 35.15625 -1.421875 24.609375 -1.421875 
Q 20.21875 -1.421875 15.453125 -0.5625 
Q 10.6875 0.296875 5.421875 2 
L 5.421875 11.28125 
Q 10.40625 8.6875 15.234375 7.390625 
Q 20.0625 6.109375 24.8125 6.109375 
Q 31.15625 6.109375 34.5625 8.28125 
Q 37.984375 10.453125 37.984375 14.40625 
Q 37.984375 18.0625 35.515625 20.015625 
Q 33.0625 21.96875 24.703125 23.78125 
L 21.578125 24.515625 
Q 13.234375 26.265625 9.515625 29.90625 
Q 5.8125 33.546875 5.8125 39.890625 
Q 5.8125 47.609375 11.28125 51.796875 
Q 16.75 56 26.8125 56 
Q 31.78125 56 36.171875 55.265625 
Q 40.578125 54.546875 44.28125 53.078125 
z
" id="DejaVuSans-73"/>
      <path d="M 10.59375 45.40625 
L 73.1875 45.40625 
L 73.1875 37.203125 
L 10.59375 37.203125 
z
M 10.59375 25.484375 
L 73.1875 25.484375 
L 73.1875 17.1875 
L 10.59375 17.1875 
z
" id="DejaVuSans-3d"/>
      <path d="M 4.890625 31.390625 
L 31.203125 31.390625 
L 31.203125 23.390625 
L 4.890625 23.390625 
z
" id="DejaVuSans-2d"/>
      <path d="M 10.6875 12.40625 
L 21 12.40625 
L 21 0 
L 10.6875 0 
z
" id="DejaVuSans-2e"/>
      <path d="M 11.71875 51.703125 
L 22.015625 51.703125 
L 22.015625 39.3125 
L 11.71875 39.3125 
z
M 11.71875 12.40625 
L 22.015625 12.40625 
L 22.015625 4 
L 14.015625 -11.625 
L 7.71875 -11.625 
L 11.71875 4 
z
" id="DejaVuSans-3b"/>
      <path d="M 31.78125 34.625 
Q 24.75 34.625 20.71875 30.859375 
Q 16.703125 27.09375 16.703125 20.515625 
Q 16.703125 13.921875 20.71875 10.15625 
Q 24.75 6.390625 31.78125 6.390625 
Q 38.8125 6.390625 42.859375 10.171875 
Q 46.921875 13.96875 46.921875 20.515625 
Q 46.921875 27.09375 42.890625 30.859375 
Q 38.875 34.625 31.78125 34.625 
z
M 21.921875 38.8125 
Q 15.578125 40.375 12.03125 44.71875 
Q 8.5 49.078125 8.5 55.328125 
Q 8.5 64.0625 14.71875 69.140625 
Q 20.953125 74.21875 31.78125 74.21875 
Q 42.671875 74.21875 48.875 69.140625 
Q 55.078125 64.0625 55.078125 55.328125 
Q 55.078125 49.078125 51.53125 44.71875 
Q 48 40.375 41.703125 38.8125 
Q 48.828125 37.15625 52.796875 32.3125 
Q 56.78125 27.484375 56.78125 20.515625 
Q 56.78125 9.90625 50.3125 4.234375 
Q 43.84375 -1.421875 31.78125 -1.421875 
Q 19.734375 -1.421875 13.25 4.234375 
Q 6.78125 9.90625 6.78125 20.515625 
Q 6.78125 27.484375 10.78125 32.3125 
Q 14.796875 37.15625 21.921875 38.8125 
z
M 18.3125 54.390625 
Q 18.3125 48.734375 21.84375 45.5625 
Q 25.390625 42.390625 31.78125 42.390625 
Q 38.140625 42.390625 41.71875 45.5625 
Q 45.3125 48.734375 45.3125 54.390625 
Q 45.3125 60.0625 41.71875 63.234375 
Q 38.140625 66.40625 31.78125 66.40625 
Q 25.390625 66.40625 21.84375 63.234375 
Q 18.3125 60.0625 18.3125 54.390625 
z
" id="DejaVuSans-38"/>
      <path d="M 10.984375 1.515625 
L 10.984375 10.5 
Q 14.703125 8.734375 18.5 7.8125 
Q 22.3125 6.890625 25.984375 6.890625 
Q 35.75 6.890625 40.890625 13.453125 
Q 46.046875 20.015625 46.78125 33.40625 
Q 43.953125 29.203125 39.59375 26.953125 
Q 35.25 24.703125 29.984375 24.703125 
Q 19.046875 24.703125 12.671875 31.3125 
Q 6.296875 37.9375 6.296875 49.421875 
Q 6.296875 60.640625 12.9375 67.421875 
Q 19.578125 74.21875 30.609375 74.21875 
Q 43.265625 74.21875 49.921875 64.515625 
Q 56.59375 54.828125 56.59375 36.375 
Q 56.59375 19.140625 48.40625 8.859375 
Q 40.234375 -1.421875 26.421875 -1.421875 
Q 22.703125 -1.421875 18.890625 -0.6875 
Q 15.09375 0.046875 10.984375 1.515625 
z
M 30.609375 32.421875 
Q 37.25 32.421875 41.125 36.953125 
Q 45.015625 41.5 45.015625 49.421875 
Q 45.015625 57.28125 41.125 61.84375 
Q 37.25 66.40625 30.609375 66.40625 
Q 23.96875 66.40625 20.09375 61.84375 
Q 16.21875 57.28125 16.21875 49.421875 
Q 16.21875 41.5 20.09375 36.953125 
Q 23.96875 32.421875 30.609375 32.421875 
z
" id="DejaVuSans-39"/>
     </defs>
     <g style="fill:#262626;" transform="translate(213.456807 92.529139)scale(0.088 -0.088)">
      <use xlink:href="#DejaVuSans-70"/>
      <use x="63.476562" xlink:href="#DejaVuSans-65"/>
      <use x="125" xlink:href="#DejaVuSans-61"/>
      <use x="186.279297" xlink:href="#DejaVuSans-72"/>
      <use x="227.392578" xlink:href="#DejaVuSans-73"/>
      <use x="279.492188" xlink:href="#DejaVuSans-6f"/>
      <use x="340.673828" xlink:href="#DejaVuSans-6e"/>
      <use x="404.052734" xlink:href="#DejaVuSans-72"/>
      <use x="445.166016" xlink:href="#DejaVuSans-20"/>
      <use x="476.953125" xlink:href="#DejaVuSans-3d"/>
      <use x="560.742188" xlink:href="#DejaVuSans-20"/>
      <use x="592.529297" xlink:href="#DejaVuSans-2d"/>
      <use x="628.613281" xlink:href="#DejaVuSans-30"/>
      <use x="692.236328" xlink:href="#DejaVuSans-2e"/>
      <use x="724.023438" xlink:href="#DejaVuSans-34"/>
      <use x="787.646484" xlink:href="#DejaVuSans-35"/>
      <use x="851.269531" xlink:href="#DejaVuSans-3b"/>
      <use x="884.960938" xlink:href="#DejaVuSans-20"/>
      <use x="916.748047" xlink:href="#DejaVuSans-70"/>
      <use x="980.224609" xlink:href="#DejaVuSans-20"/>
      <use x="1012.011719" xlink:href="#DejaVuSans-3d"/>
      <use x="1095.800781" xlink:href="#DejaVuSans-20"/>
      <use x="1127.587891" xlink:href="#DejaVuSans-38"/>
      <use x="1191.210938" xlink:href="#DejaVuSans-2e"/>
      <use x="1222.998047" xlink:href="#DejaVuSans-39"/>
      <use x="1286.621094" xlink:href="#DejaVuSans-65"/>
      <use x="1348.144531" xlink:href="#DejaVuSans-2d"/>
      <use x="1384.228516" xlink:href="#DejaVuSans-31"/>
      <use x="1447.851562" xlink:href="#DejaVuSans-32"/>
     </g>
    </g>
   </g>
  </g>
  <g id="axes_2">
   <g id="patch_6">
    <path d="M 46.068 67.239429 
L 354.386057 67.239429 
L 354.386057 13.824 
L 46.068 13.824 
z
" style="fill:#ffffff;"/>
   </g>
   <g id="matplotlib.axis_3">
    <g id="xtick_9">
     <g id="line2d_21">
      <g>
       <use style="fill:#262626;stroke:#262626;" x="58.336212" xlink:href="#mf61a904aee" y="67.239429"/>
      </g>
     </g>
    </g>
    <g id="xtick_10">
     <g id="line2d_22">
      <g>
       <use style="fill:#262626;stroke:#262626;" x="100.338015" xlink:href="#mf61a904aee" y="67.239429"/>
      </g>
     </g>
    </g>
    <g id="xtick_11">
     <g id="line2d_23">
      <g>
       <use style="fill:#262626;stroke:#262626;" x="142.339817" xlink:href="#mf61a904aee" y="67.239429"/>
      </g>
     </g>
    </g>
    <g id="xtick_12">
     <g id="line2d_24">
      <g>
       <use style="fill:#262626;stroke:#262626;" x="184.34162" xlink:href="#mf61a904aee" y="67.239429"/>
      </g>
     </g>
    </g>
    <g id="xtick_13">
     <g id="line2d_25">
      <g>
       <use style="fill:#262626;stroke:#262626;" x="226.343423" xlink:href="#mf61a904aee" y="67.239429"/>
      </g>
     </g>
    </g>
    <g id="xtick_14">
     <g id="line2d_26">
      <g>
       <use style="fill:#262626;stroke:#262626;" x="268.345226" xlink:href="#mf61a904aee" y="67.239429"/>
      </g>
     </g>
    </g>
    <g id="xtick_15">
     <g id="line2d_27">
      <g>
       <use style="fill:#262626;stroke:#262626;" x="310.347029" xlink:href="#mf61a904aee" y="67.239429"/>
      </g>
     </g>
    </g>
    <g id="xtick_16">
     <g id="line2d_28">
      <g>
       <use style="fill:#262626;stroke:#262626;" x="352.348832" xlink:href="#mf61a904aee" y="67.239429"/>
      </g>
     </g>
    </g>
   </g>
   <g id="matplotlib.axis_4">
    <g id="ytick_10"/>
    <g id="ytick_11"/>
    <g id="ytick_12"/>
   </g>
   <g id="patch_7">
    <path clip-path="url(#pa7617d7e26)" d="M 112.148553 67.239429 
L 128.162821 67.239429 
L 128.162821 24.649054 
L 112.148553 24.649054 
z
" style="fill:#471365;opacity:0.4;stroke:#ffffff;stroke-linejoin:miter;stroke-width:0.8;"/>
   </g>
   <g id="patch_8">
    <path clip-path="url(#pa7617d7e26)" d="M 128.162821 67.239429 
L 144.177089 67.239429 
L 144.177089 16.367592 
L 128.162821 16.367592 
z
" style="fill:#471365;opacity:0.4;stroke:#ffffff;stroke-linejoin:miter;stroke-width:0.8;"/>
   </g>
   <g id="patch_9">
    <path clip-path="url(#pa7617d7e26)" d="M 144.177089 67.239429 
L 160.191358 67.239429 
L 160.191358 21.099856 
L 144.177089 21.099856 
z
" style="fill:#471365;opacity:0.4;stroke:#ffffff;stroke-linejoin:miter;stroke-width:0.8;"/>
   </g>
   <g id="patch_10">
    <path clip-path="url(#pa7617d7e26)" d="M 160.191358 67.239429 
L 176.205626 67.239429 
L 176.205626 32.930515 
L 160.191358 32.930515 
z
" style="fill:#471365;opacity:0.4;stroke:#ffffff;stroke-linejoin:miter;stroke-width:0.8;"/>
   </g>
   <g id="patch_11">
    <path clip-path="url(#pa7617d7e26)" d="M 176.205626 67.239429 
L 192.219894 67.239429 
L 192.219894 45.944241 
L 176.205626 45.944241 
z
" style="fill:#471365;opacity:0.4;stroke:#ffffff;stroke-linejoin:miter;stroke-width:0.8;"/>
   </g>
   <g id="patch_12">
    <path clip-path="url(#pa7617d7e26)" d="M 192.219894 67.239429 
L 208.234163 67.239429 
L 208.234163 45.944241 
L 192.219894 45.944241 
z
" style="fill:#471365;opacity:0.4;stroke:#ffffff;stroke-linejoin:miter;stroke-width:0.8;"/>
   </g>
   <g id="patch_13">
    <path clip-path="url(#pa7617d7e26)" d="M 208.234163 67.239429 
L 224.248431 67.239429 
L 224.248431 57.774901 
L 208.234163 57.774901 
z
" style="fill:#471365;opacity:0.4;stroke:#ffffff;stroke-linejoin:miter;stroke-width:0.8;"/>
   </g>
   <g id="patch_14">
    <path clip-path="url(#pa7617d7e26)" d="M 224.248431 67.239429 
L 240.262699 67.239429 
L 240.262699 58.957967 
L 224.248431 58.957967 
z
" style="fill:#471365;opacity:0.4;stroke:#ffffff;stroke-linejoin:miter;stroke-width:0.8;"/>
   </g>
   <g id="patch_15">
    <path clip-path="url(#pa7617d7e26)" d="M 240.262699 67.239429 
L 256.276968 67.239429 
L 256.276968 60.141033 
L 240.262699 60.141033 
z
" style="fill:#471365;opacity:0.4;stroke:#ffffff;stroke-linejoin:miter;stroke-width:0.8;"/>
   </g>
   <g id="patch_16">
    <path clip-path="url(#pa7617d7e26)" d="M 256.276968 67.239429 
L 272.291236 67.239429 
L 272.291236 63.690231 
L 256.276968 63.690231 
z
" style="fill:#471365;opacity:0.4;stroke:#ffffff;stroke-linejoin:miter;stroke-width:0.8;"/>
   </g>
   <g id="patch_17">
    <path clip-path="url(#pa7617d7e26)" d="M 272.291236 67.239429 
L 288.305505 67.239429 
L 288.305505 63.690231 
L 272.291236 63.690231 
z
" style="fill:#471365;opacity:0.4;stroke:#ffffff;stroke-linejoin:miter;stroke-width:0.8;"/>
   </g>
   <g id="line2d_29">
    <path clip-path="url(#pa7617d7e26)" d="M 72.822873 67.198565 
L 75.396694 67.162269 
L 77.970515 67.098592 
L 80.544337 66.990853 
L 83.118158 66.815019 
L 85.691979 66.538179 
L 88.265801 66.117635 
L 90.839622 65.501174 
L 93.413443 64.629082 
L 95.987265 63.438321 
L 98.561086 61.868946 
L 101.134907 59.872361 
L 103.708729 57.420436 
L 106.28255 54.514036 
L 108.856371 51.189272 
L 111.430193 47.519932 
L 114.004014 43.615075 
L 116.577835 39.611653 
L 119.151657 35.662998 
L 121.725478 31.924819 
L 124.299299 28.540851 
L 126.873121 25.63025 
L 129.446942 23.278391 
L 132.020763 21.531964 
L 134.594585 20.398478 
L 137.168406 19.849639 
L 139.742227 19.827636 
L 142.316049 20.253263 
L 144.88987 21.034838 
L 147.463691 22.077045 
L 150.037513 23.289044 
L 152.611334 24.591326 
L 155.185155 25.920931 
L 157.758977 27.234719 
L 160.332798 28.510421 
L 162.906619 29.745297 
L 165.480441 30.952406 
L 168.054262 32.154866 
L 170.628083 33.378881 
L 173.201905 34.646769 
L 175.775726 35.971419 
L 178.349547 37.353398 
L 180.923369 38.781374 
L 183.49719 40.235579 
L 186.071011 41.693196 
L 188.644833 43.133959 
L 191.218654 44.544252 
L 193.792475 45.918543 
L 196.366297 47.257891 
L 198.940118 48.566224 
L 201.513939 49.845743 
L 204.087761 51.092996 
L 206.661582 52.296865 
L 209.235403 53.439039 
L 211.809225 54.496843 
L 214.383046 55.447603 
L 216.956867 56.27344 
L 219.530689 56.96531 
L 222.10451 57.525394 
L 224.678331 57.967368 
L 227.252153 58.314595 
L 229.825974 58.59672 
L 232.399795 58.845418 
L 234.973617 59.090163 
L 237.547438 59.35473 
L 240.121259 59.654928 
L 242.695081 59.997748 
L 245.268902 60.381829 
L 247.842723 60.798932 
L 250.416545 61.236051 
L 252.990366 61.677756 
L 255.564187 62.108426 
L 258.138009 62.514147 
L 260.71183 62.884128 
L 263.285651 63.211578 
L 265.859472 63.494102 
L 268.433294 63.733636 
L 271.007115 63.936041 
L 273.580936 64.110349 
L 276.154758 64.267739 
L 278.728579 64.420225 
L 281.3024 64.579169 
L 283.876222 64.753747 
L 286.450043 64.949631 
L 289.023864 65.168133 
L 291.597686 65.406045 
L 294.171507 65.656255 
L 296.745328 65.909031 
L 299.31915 66.153698 
L 301.892971 66.380362 
L 304.466792 66.581295 
L 307.040614 66.751769 
L 309.614435 66.890239 
L 312.188256 66.997967 
L 314.762078 67.078276 
L 317.335899 67.135667 
L 319.90972 67.174998 
L 322.483542 67.200857 
L 325.057363 67.217171 
L 327.631184 67.227052 
" style="fill:none;stroke:#471365;stroke-linecap:round;stroke-width:1.2;"/>
   </g>
   <g id="patch_18">
    <path d="M 46.068 67.239429 
L 354.386057 67.239429 
" style="fill:none;stroke:#262626;stroke-linecap:square;stroke-linejoin:miter;"/>
   </g>
  </g>
  <g id="axes_3">
   <g id="patch_19">
    <path d="M 365.017714 387.732 
L 418.176 387.732 
L 418.176 77.922514 
L 365.017714 77.922514 
z
" style="fill:#ffffff;"/>
   </g>
   <g id="matplotlib.axis_5">
    <g id="xtick_17"/>
    <g id="xtick_18"/>
   </g>
   <g id="matplotlib.axis_6">
    <g id="ytick_13">
     <g id="line2d_30">
      <g>
       <use style="fill:#262626;stroke:#262626;" x="365.017714" xlink:href="#m7717df20ed" y="386.966338"/>
      </g>
     </g>
    </g>
    <g id="ytick_14">
     <g id="line2d_31">
      <g>
       <use style="fill:#262626;stroke:#262626;" x="365.017714" xlink:href="#m7717df20ed" y="351.162551"/>
      </g>
     </g>
    </g>
    <g id="ytick_15">
     <g id="line2d_32">
      <g>
       <use style="fill:#262626;stroke:#262626;" x="365.017714" xlink:href="#m7717df20ed" y="315.358764"/>
      </g>
     </g>
    </g>
    <g id="ytick_16">
     <g id="line2d_33">
      <g>
       <use style="fill:#262626;stroke:#262626;" x="365.017714" xlink:href="#m7717df20ed" y="279.554977"/>
      </g>
     </g>
    </g>
    <g id="ytick_17">
     <g id="line2d_34">
      <g>
       <use style="fill:#262626;stroke:#262626;" x="365.017714" xlink:href="#m7717df20ed" y="243.75119"/>
      </g>
     </g>
    </g>
    <g id="ytick_18">
     <g id="line2d_35">
      <g>
       <use style="fill:#262626;stroke:#262626;" x="365.017714" xlink:href="#m7717df20ed" y="207.947403"/>
      </g>
     </g>
    </g>
    <g id="ytick_19">
     <g id="line2d_36">
      <g>
       <use style="fill:#262626;stroke:#262626;" x="365.017714" xlink:href="#m7717df20ed" y="172.143616"/>
      </g>
     </g>
    </g>
    <g id="ytick_20">
     <g id="line2d_37">
      <g>
       <use style="fill:#262626;stroke:#262626;" x="365.017714" xlink:href="#m7717df20ed" y="136.339829"/>
      </g>
     </g>
    </g>
    <g id="ytick_21">
     <g id="line2d_38">
      <g>
       <use style="fill:#262626;stroke:#262626;" x="365.017714" xlink:href="#m7717df20ed" y="100.536042"/>
      </g>
     </g>
    </g>
   </g>
   <g id="patch_20">
    <path clip-path="url(#p35416a03b4)" d="M 365.017714 327.277011 
L 378.449351 327.277011 
L 378.449351 323.054126 
L 365.017714 323.054126 
z
" style="fill:#471365;opacity:0.4;stroke:#ffffff;stroke-linejoin:miter;stroke-width:0.8;"/>
   </g>
   <g id="patch_21">
    <path clip-path="url(#p35416a03b4)" d="M 365.017714 323.054126 
L 408.412233 323.054126 
L 408.412233 318.831241 
L 365.017714 318.831241 
z
" style="fill:#471365;opacity:0.4;stroke:#ffffff;stroke-linejoin:miter;stroke-width:0.8;"/>
   </g>
   <g id="patch_22">
    <path clip-path="url(#p35416a03b4)" d="M 365.017714 318.831241 
L 415.644653 318.831241 
L 415.644653 314.608356 
L 365.017714 314.608356 
z
" style="fill:#471365;opacity:0.4;stroke:#ffffff;stroke-linejoin:miter;stroke-width:0.8;"/>
   </g>
   <g id="patch_23">
    <path clip-path="url(#p35416a03b4)" d="M 365.017714 314.608356 
L 414.61145 314.608356 
L 414.61145 310.385471 
L 365.017714 310.385471 
z
" style="fill:#471365;opacity:0.4;stroke:#ffffff;stroke-linejoin:miter;stroke-width:0.8;"/>
   </g>
   <g id="patch_24">
    <path clip-path="url(#p35416a03b4)" d="M 365.017714 310.385471 
L 384.648568 310.385471 
L 384.648568 306.162586 
L 365.017714 306.162586 
z
" style="fill:#471365;opacity:0.4;stroke:#ffffff;stroke-linejoin:miter;stroke-width:0.8;"/>
   </g>
   <g id="patch_25">
    <path clip-path="url(#p35416a03b4)" d="M 365.017714 306.162586 
L 377.416148 306.162586 
L 377.416148 301.939701 
L 365.017714 301.939701 
z
" style="fill:#471365;opacity:0.4;stroke:#ffffff;stroke-linejoin:miter;stroke-width:0.8;"/>
   </g>
   <g id="patch_26">
    <path clip-path="url(#p35416a03b4)" d="M 365.017714 301.939701 
L 371.216931 301.939701 
L 371.216931 297.716816 
L 365.017714 297.716816 
z
" style="fill:#471365;opacity:0.4;stroke:#ffffff;stroke-linejoin:miter;stroke-width:0.8;"/>
   </g>
   <g id="patch_27">
    <path clip-path="url(#p35416a03b4)" d="M 365.017714 297.716816 
L 371.216931 297.716816 
L 371.216931 293.493931 
L 365.017714 293.493931 
z
" style="fill:#471365;opacity:0.4;stroke:#ffffff;stroke-linejoin:miter;stroke-width:0.8;"/>
   </g>
   <g id="patch_28">
    <path clip-path="url(#p35416a03b4)" d="M 365.017714 293.493931 
L 365.017714 293.493931 
L 365.017714 289.271046 
L 365.017714 289.271046 
z
" style="fill:#471365;opacity:0.4;stroke:#ffffff;stroke-linejoin:miter;stroke-width:0.8;"/>
   </g>
   <g id="patch_29">
    <path clip-path="url(#p35416a03b4)" d="M 365.017714 289.271046 
L 367.08412 289.271046 
L 367.08412 285.048161 
L 365.017714 285.048161 
z
" style="fill:#471365;opacity:0.4;stroke:#ffffff;stroke-linejoin:miter;stroke-width:0.8;"/>
   </g>
   <g id="patch_30">
    <path clip-path="url(#p35416a03b4)" d="M 365.017714 285.048161 
L 367.08412 285.048161 
L 367.08412 280.825276 
L 365.017714 280.825276 
z
" style="fill:#471365;opacity:0.4;stroke:#ffffff;stroke-linejoin:miter;stroke-width:0.8;"/>
   </g>
   <g id="patch_31">
    <path clip-path="url(#p35416a03b4)" d="M 365.017714 280.825276 
L 367.08412 280.825276 
L 367.08412 276.602391 
L 365.017714 276.602391 
z
" style="fill:#471365;opacity:0.4;stroke:#ffffff;stroke-linejoin:miter;stroke-width:0.8;"/>
   </g>
   <g id="patch_32">
    <path clip-path="url(#p35416a03b4)" d="M 365.017714 276.602391 
L 366.050917 276.602391 
L 366.050917 272.379506 
L 365.017714 272.379506 
z
" style="fill:#471365;opacity:0.4;stroke:#ffffff;stroke-linejoin:miter;stroke-width:0.8;"/>
   </g>
   <g id="patch_33">
    <path clip-path="url(#p35416a03b4)" d="M 365.017714 272.379506 
L 365.017714 272.379506 
L 365.017714 268.156621 
L 365.017714 268.156621 
z
" style="fill:#471365;opacity:0.4;stroke:#ffffff;stroke-linejoin:miter;stroke-width:0.8;"/>
   </g>
   <g id="patch_34">
    <path clip-path="url(#p35416a03b4)" d="M 365.017714 268.156621 
L 365.017714 268.156621 
L 365.017714 263.933736 
L 365.017714 263.933736 
z
" style="fill:#471365;opacity:0.4;stroke:#ffffff;stroke-linejoin:miter;stroke-width:0.8;"/>
   </g>
   <g id="patch_35">
    <path clip-path="url(#p35416a03b4)" d="M 365.017714 263.933736 
L 365.017714 263.933736 
L 365.017714 259.710851 
L 365.017714 259.710851 
z
" style="fill:#471365;opacity:0.4;stroke:#ffffff;stroke-linejoin:miter;stroke-width:0.8;"/>
   </g>
   <g id="patch_36">
    <path clip-path="url(#p35416a03b4)" d="M 365.017714 259.710851 
L 366.050917 259.710851 
L 366.050917 255.487966 
L 365.017714 255.487966 
z
" style="fill:#471365;opacity:0.4;stroke:#ffffff;stroke-linejoin:miter;stroke-width:0.8;"/>
   </g>
   <g id="patch_37">
    <path clip-path="url(#p35416a03b4)" d="M 365.017714 255.487966 
L 367.08412 255.487966 
L 367.08412 251.265081 
L 365.017714 251.265081 
z
" style="fill:#471365;opacity:0.4;stroke:#ffffff;stroke-linejoin:miter;stroke-width:0.8;"/>
   </g>
   <g id="patch_38">
    <path clip-path="url(#p35416a03b4)" d="M 365.017714 251.265081 
L 365.017714 251.265081 
L 365.017714 247.042196 
L 365.017714 247.042196 
z
" style="fill:#471365;opacity:0.4;stroke:#ffffff;stroke-linejoin:miter;stroke-width:0.8;"/>
   </g>
   <g id="patch_39">
    <path clip-path="url(#p35416a03b4)" d="M 365.017714 247.042196 
L 365.017714 247.042196 
L 365.017714 242.819311 
L 365.017714 242.819311 
z
" style="fill:#471365;opacity:0.4;stroke:#ffffff;stroke-linejoin:miter;stroke-width:0.8;"/>
   </g>
   <g id="patch_40">
    <path clip-path="url(#p35416a03b4)" d="M 365.017714 242.819311 
L 366.050917 242.819311 
L 366.050917 238.596426 
L 365.017714 238.596426 
z
" style="fill:#471365;opacity:0.4;stroke:#ffffff;stroke-linejoin:miter;stroke-width:0.8;"/>
   </g>
   <g id="patch_41">
    <path clip-path="url(#p35416a03b4)" d="M 365.017714 238.596426 
L 365.017714 238.596426 
L 365.017714 234.373541 
L 365.017714 234.373541 
z
" style="fill:#471365;opacity:0.4;stroke:#ffffff;stroke-linejoin:miter;stroke-width:0.8;"/>
   </g>
   <g id="patch_42">
    <path clip-path="url(#p35416a03b4)" d="M 365.017714 234.373541 
L 365.017714 234.373541 
L 365.017714 230.150656 
L 365.017714 230.150656 
z
" style="fill:#471365;opacity:0.4;stroke:#ffffff;stroke-linejoin:miter;stroke-width:0.8;"/>
   </g>
   <g id="patch_43">
    <path clip-path="url(#p35416a03b4)" d="M 365.017714 230.150656 
L 366.050917 230.150656 
L 366.050917 225.927771 
L 365.017714 225.927771 
z
" style="fill:#471365;opacity:0.4;stroke:#ffffff;stroke-linejoin:miter;stroke-width:0.8;"/>
   </g>
   <g id="patch_44">
    <path clip-path="url(#p35416a03b4)" d="M 365.017714 225.927771 
L 365.017714 225.927771 
L 365.017714 221.704886 
L 365.017714 221.704886 
z
" style="fill:#471365;opacity:0.4;stroke:#ffffff;stroke-linejoin:miter;stroke-width:0.8;"/>
   </g>
   <g id="patch_45">
    <path clip-path="url(#p35416a03b4)" d="M 365.017714 221.704886 
L 365.017714 221.704886 
L 365.017714 217.482001 
L 365.017714 217.482001 
z
" style="fill:#471365;opacity:0.4;stroke:#ffffff;stroke-linejoin:miter;stroke-width:0.8;"/>
   </g>
   <g id="patch_46">
    <path clip-path="url(#p35416a03b4)" d="M 365.017714 217.482001 
L 365.017714 217.482001 
L 365.017714 213.259116 
L 365.017714 213.259116 
z
" style="fill:#471365;opacity:0.4;stroke:#ffffff;stroke-linejoin:miter;stroke-width:0.8;"/>
   </g>
   <g id="patch_47">
    <path clip-path="url(#p35416a03b4)" d="M 365.017714 213.259116 
L 365.017714 213.259116 
L 365.017714 209.036231 
L 365.017714 209.036231 
z
" style="fill:#471365;opacity:0.4;stroke:#ffffff;stroke-linejoin:miter;stroke-width:0.8;"/>
   </g>
   <g id="patch_48">
    <path clip-path="url(#p35416a03b4)" d="M 365.017714 209.036231 
L 365.017714 209.036231 
L 365.017714 204.813346 
L 365.017714 204.813346 
z
" style="fill:#471365;opacity:0.4;stroke:#ffffff;stroke-linejoin:miter;stroke-width:0.8;"/>
   </g>
   <g id="patch_49">
    <path clip-path="url(#p35416a03b4)" d="M 365.017714 204.813346 
L 365.017714 204.813346 
L 365.017714 200.590461 
L 365.017714 200.590461 
z
" style="fill:#471365;opacity:0.4;stroke:#ffffff;stroke-linejoin:miter;stroke-width:0.8;"/>
   </g>
   <g id="patch_50">
    <path clip-path="url(#p35416a03b4)" d="M 365.017714 200.590461 
L 365.017714 200.590461 
L 365.017714 196.367576 
L 365.017714 196.367576 
z
" style="fill:#471365;opacity:0.4;stroke:#ffffff;stroke-linejoin:miter;stroke-width:0.8;"/>
   </g>
   <g id="patch_51">
    <path clip-path="url(#p35416a03b4)" d="M 365.017714 196.367576 
L 365.017714 196.367576 
L 365.017714 192.144691 
L 365.017714 192.144691 
z
" style="fill:#471365;opacity:0.4;stroke:#ffffff;stroke-linejoin:miter;stroke-width:0.8;"/>
   </g>
   <g id="patch_52">
    <path clip-path="url(#p35416a03b4)" d="M 365.017714 192.144691 
L 365.017714 192.144691 
L 365.017714 187.921806 
L 365.017714 187.921806 
z
" style="fill:#471365;opacity:0.4;stroke:#ffffff;stroke-linejoin:miter;stroke-width:0.8;"/>
   </g>
   <g id="patch_53">
    <path clip-path="url(#p35416a03b4)" d="M 365.017714 187.921806 
L 365.017714 187.921806 
L 365.017714 183.698921 
L 365.017714 183.698921 
z
" style="fill:#471365;opacity:0.4;stroke:#ffffff;stroke-linejoin:miter;stroke-width:0.8;"/>
   </g>
   <g id="patch_54">
    <path clip-path="url(#p35416a03b4)" d="M 365.017714 183.698921 
L 365.017714 183.698921 
L 365.017714 179.476036 
L 365.017714 179.476036 
z
" style="fill:#471365;opacity:0.4;stroke:#ffffff;stroke-linejoin:miter;stroke-width:0.8;"/>
   </g>
   <g id="patch_55">
    <path clip-path="url(#p35416a03b4)" d="M 365.017714 179.476036 
L 365.017714 179.476036 
L 365.017714 175.253151 
L 365.017714 175.253151 
z
" style="fill:#471365;opacity:0.4;stroke:#ffffff;stroke-linejoin:miter;stroke-width:0.8;"/>
   </g>
   <g id="patch_56">
    <path clip-path="url(#p35416a03b4)" d="M 365.017714 175.253151 
L 366.050917 175.253151 
L 366.050917 171.030266 
L 365.017714 171.030266 
z
" style="fill:#471365;opacity:0.4;stroke:#ffffff;stroke-linejoin:miter;stroke-width:0.8;"/>
   </g>
   <g id="patch_57">
    <path clip-path="url(#p35416a03b4)" d="M 365.017714 171.030266 
L 365.017714 171.030266 
L 365.017714 166.807381 
L 365.017714 166.807381 
z
" style="fill:#471365;opacity:0.4;stroke:#ffffff;stroke-linejoin:miter;stroke-width:0.8;"/>
   </g>
   <g id="patch_58">
    <path clip-path="url(#p35416a03b4)" d="M 365.017714 166.807381 
L 366.050917 166.807381 
L 366.050917 162.584496 
L 365.017714 162.584496 
z
" style="fill:#471365;opacity:0.4;stroke:#ffffff;stroke-linejoin:miter;stroke-width:0.8;"/>
   </g>
   <g id="patch_59">
    <path clip-path="url(#p35416a03b4)" d="M 365.017714 162.584496 
L 365.017714 162.584496 
L 365.017714 158.361611 
L 365.017714 158.361611 
z
" style="fill:#471365;opacity:0.4;stroke:#ffffff;stroke-linejoin:miter;stroke-width:0.8;"/>
   </g>
   <g id="patch_60">
    <path clip-path="url(#p35416a03b4)" d="M 365.017714 158.361611 
L 365.017714 158.361611 
L 365.017714 154.138726 
L 365.017714 154.138726 
z
" style="fill:#471365;opacity:0.4;stroke:#ffffff;stroke-linejoin:miter;stroke-width:0.8;"/>
   </g>
   <g id="patch_61">
    <path clip-path="url(#p35416a03b4)" d="M 365.017714 154.138726 
L 365.017714 154.138726 
L 365.017714 149.915841 
L 365.017714 149.915841 
z
" style="fill:#471365;opacity:0.4;stroke:#ffffff;stroke-linejoin:miter;stroke-width:0.8;"/>
   </g>
   <g id="patch_62">
    <path clip-path="url(#p35416a03b4)" d="M 365.017714 149.915841 
L 365.017714 149.915841 
L 365.017714 145.692956 
L 365.017714 145.692956 
z
" style="fill:#471365;opacity:0.4;stroke:#ffffff;stroke-linejoin:miter;stroke-width:0.8;"/>
   </g>
   <g id="patch_63">
    <path clip-path="url(#p35416a03b4)" d="M 365.017714 145.692956 
L 365.017714 145.692956 
L 365.017714 141.470071 
L 365.017714 141.470071 
z
" style="fill:#471365;opacity:0.4;stroke:#ffffff;stroke-linejoin:miter;stroke-width:0.8;"/>
   </g>
   <g id="patch_64">
    <path clip-path="url(#p35416a03b4)" d="M 365.017714 141.470071 
L 365.017714 141.470071 
L 365.017714 137.247185 
L 365.017714 137.247185 
z
" style="fill:#471365;opacity:0.4;stroke:#ffffff;stroke-linejoin:miter;stroke-width:0.8;"/>
   </g>
   <g id="patch_65">
    <path clip-path="url(#p35416a03b4)" d="M 365.017714 137.247185 
L 365.017714 137.247185 
L 365.017714 133.0243 
L 365.017714 133.0243 
z
" style="fill:#471365;opacity:0.4;stroke:#ffffff;stroke-linejoin:miter;stroke-width:0.8;"/>
   </g>
   <g id="patch_66">
    <path clip-path="url(#p35416a03b4)" d="M 365.017714 133.0243 
L 365.017714 133.0243 
L 365.017714 128.801415 
L 365.017714 128.801415 
z
" style="fill:#471365;opacity:0.4;stroke:#ffffff;stroke-linejoin:miter;stroke-width:0.8;"/>
   </g>
   <g id="patch_67">
    <path clip-path="url(#p35416a03b4)" d="M 365.017714 128.801415 
L 365.017714 128.801415 
L 365.017714 124.57853 
L 365.017714 124.57853 
z
" style="fill:#471365;opacity:0.4;stroke:#ffffff;stroke-linejoin:miter;stroke-width:0.8;"/>
   </g>
   <g id="patch_68">
    <path clip-path="url(#p35416a03b4)" d="M 365.017714 124.57853 
L 365.017714 124.57853 
L 365.017714 120.355645 
L 365.017714 120.355645 
z
" style="fill:#471365;opacity:0.4;stroke:#ffffff;stroke-linejoin:miter;stroke-width:0.8;"/>
   </g>
   <g id="patch_69">
    <path clip-path="url(#p35416a03b4)" d="M 365.017714 120.355645 
L 366.050917 120.355645 
L 366.050917 116.13276 
L 365.017714 116.13276 
z
" style="fill:#471365;opacity:0.4;stroke:#ffffff;stroke-linejoin:miter;stroke-width:0.8;"/>
   </g>
   <g id="line2d_39">
    <path clip-path="url(#p35416a03b4)" d="M 365.039479 351.405008 
L 365.081836 348.784803 
L 365.190182 346.164599 
L 365.441659 343.544394 
L 365.971119 340.92419 
L 366.981607 338.303986 
L 368.727822 335.683781 
L 371.454922 333.063577 
L 375.291566 330.443372 
L 380.127242 327.823168 
L 385.533313 325.202963 
L 390.789494 322.582759 
L 395.038551 319.962554 
L 397.526816 317.34235 
L 397.835583 314.722145 
L 396.004287 312.101941 
L 392.49549 309.481736 
L 388.025282 306.861532 
L 383.339059 304.241327 
L 379.024479 301.621123 
L 375.420614 299.000918 
L 372.628617 296.380714 
L 370.585753 293.760509 
L 369.151368 291.140305 
L 368.169493 288.5201 
L 367.500013 285.899896 
L 367.029105 283.279691 
L 366.672231 280.659487 
L 366.375592 278.039282 
L 366.115072 275.419078 
L 365.890451 272.798873 
L 365.715144 270.178669 
L 365.604048 267.558464 
L 365.562802 264.93826 
L 365.581546 262.318055 
L 365.635476 259.697851 
L 365.69246 257.077646 
L 365.724634 254.457442 
L 365.718219 251.837237 
L 365.676346 249.217033 
L 365.613877 246.596828 
L 365.548117 243.976624 
L 365.491026 241.356419 
L 365.446218 238.736215 
L 365.410352 236.11601 
L 365.376616 233.495806 
L 365.338369 230.875601 
L 365.292027 228.255397 
L 365.238494 225.635193 
L 365.182622 223.014988 
L 365.130887 220.394784 
L 365.088577 217.774579 
L 365.058004 215.154375 
L 365.038452 212.53417 
L 365.027371 209.913966 
L 365.021831 207.293761 
L 365.019508 204.673557 
L 365.019069 202.053352 
L 365.020227 199.433148 
L 365.023743 196.812943 
L 365.031457 194.192739 
L 365.046193 191.572534 
L 365.071184 188.95233 
L 365.108849 186.332125 
L 365.159167 183.711921 
L 365.218464 181.091716 
L 365.279448 178.471512 
L 365.332776 175.851307 
L 365.369484 173.231103 
L 365.383217 170.610898 
L 365.371588 167.990694 
L 365.336619 165.370489 
L 365.284369 162.750285 
L 365.223658 160.13008 
L 365.163895 157.509876 
L 365.112625 154.889671 
L 365.073856 152.269467 
L 365.047894 149.649262 
L 365.032512 147.029058 
L 365.024618 144.408853 
L 365.021636 141.788649 
L 365.022271 139.168444 
L 365.026754 136.54824 
L 365.036691 133.928035 
L 365.054455 131.307831 
L 365.081935 128.687626 
L 365.118761 126.067422 
L 365.160775 123.447217 
L 365.199955 120.827013 
L 365.226594 118.206809 
L 365.233127 115.586604 
L 365.217595 112.9664 
L 365.184591 110.346195 
L 365.14307 107.725991 
L 365.10244 105.105786 
L 365.069239 102.485582 
L 365.045907 99.865377 
L 365.031594 97.245173 
L 365.023863 94.624968 
L 365.020165 92.004764 
" style="fill:none;stroke:#471365;stroke-linecap:round;stroke-width:1.2;"/>
   </g>
   <g id="patch_70">
    <path d="M 365.017714 387.732 
L 365.017714 77.922514 
" style="fill:none;stroke:#262626;stroke-linecap:square;stroke-linejoin:miter;"/>
   </g>
  </g>
 </g>
 <defs>
  <clipPath id="p62c3c27425">
   <rect height="309.809486" width="308.318057" x="46.068" y="77.922514"/>
  </clipPath>
  <clipPath id="pa7617d7e26">
   <rect height="53.415429" width="308.318057" x="46.068" y="13.824"/>
  </clipPath>
  <clipPath id="p35416a03b4">
   <rect height="309.809486" width="53.158286" x="365.017714" y="77.922514"/>
  </clipPath>
 </defs>
</svg>
