<?xml version="1.0" encoding="utf-8" standalone="no"?>
<!DOCTYPE svg PUBLIC "-//W3C//DTD SVG 1.1//EN"
  "http://www.w3.org/Graphics/SVG/1.1/DTD/svg11.dtd">
<!-- Created with matplotlib (http://matplotlib.org/) -->
<svg height="432pt" version="1.1" viewBox="0 0 432 432" width="432pt" xmlns="http://www.w3.org/2000/svg" xmlns:xlink="http://www.w3.org/1999/xlink">
 <defs>
  <style type="text/css">
*{stroke-linecap:butt;stroke-linejoin:round;}
  </style>
 </defs>
 <g id="figure_1">
  <g id="patch_1">
   <path d="M 0 432 
L 432 432 
L 432 0 
L 0 0 
z
" style="fill:#ffffff;"/>
  </g>
  <g id="axes_1">
   <g id="patch_2">
    <path d="M 46.543 390.332 
L 353.353886 390.332 
L 353.353886 79.481829 
L 46.543 79.481829 
z
" style="fill:#ffffff;"/>
   </g>
   <g id="matplotlib.axis_1">
    <g id="xtick_1">
     <g id="line2d_1">
      <defs>
       <path d="M 0 0 
L 0 4.8 
" id="mce1b657d20" style="stroke:#262626;"/>
      </defs>
      <g>
       <use style="fill:#262626;stroke:#262626;" x="55.698396" xlink:href="#mce1b657d20" y="390.332"/>
      </g>
     </g>
     <g id="text_1">
      <!-- 0 -->
      <defs>
       <path d="M 31.78125 66.40625 
Q 24.171875 66.40625 20.328125 58.90625 
Q 16.5 51.421875 16.5 36.375 
Q 16.5 21.390625 20.328125 13.890625 
Q 24.171875 6.390625 31.78125 6.390625 
Q 39.453125 6.390625 43.28125 13.890625 
Q 47.125 21.390625 47.125 36.375 
Q 47.125 51.421875 43.28125 58.90625 
Q 39.453125 66.40625 31.78125 66.40625 
z
M 31.78125 74.21875 
Q 44.046875 74.21875 50.515625 64.515625 
Q 56.984375 54.828125 56.984375 36.375 
Q 56.984375 17.96875 50.515625 8.265625 
Q 44.046875 -1.421875 31.78125 -1.421875 
Q 19.53125 -1.421875 13.0625 8.265625 
Q 6.59375 17.96875 6.59375 36.375 
Q 6.59375 54.828125 13.0625 64.515625 
Q 19.53125 74.21875 31.78125 74.21875 
z
" id="DejaVuSans-30"/>
      </defs>
      <g style="fill:#262626;" transform="translate(52.898896 405.318625)scale(0.088 -0.088)">
       <use xlink:href="#DejaVuSans-30"/>
      </g>
     </g>
    </g>
    <g id="xtick_2">
     <g id="line2d_2">
      <g>
       <use style="fill:#262626;stroke:#262626;" x="106.076215" xlink:href="#mce1b657d20" y="390.332"/>
      </g>
     </g>
     <g id="text_2">
      <!-- 2 -->
      <defs>
       <path d="M 19.1875 8.296875 
L 53.609375 8.296875 
L 53.609375 0 
L 7.328125 0 
L 7.328125 8.296875 
Q 12.9375 14.109375 22.625 23.890625 
Q 32.328125 33.6875 34.8125 36.53125 
Q 39.546875 41.84375 41.421875 45.53125 
Q 43.3125 49.21875 43.3125 52.78125 
Q 43.3125 58.59375 39.234375 62.25 
Q 35.15625 65.921875 28.609375 65.921875 
Q 23.96875 65.921875 18.8125 64.3125 
Q 13.671875 62.703125 7.8125 59.421875 
L 7.8125 69.390625 
Q 13.765625 71.78125 18.9375 73 
Q 24.125 74.21875 28.421875 74.21875 
Q 39.75 74.21875 46.484375 68.546875 
Q 53.21875 62.890625 53.21875 53.421875 
Q 53.21875 48.921875 51.53125 44.890625 
Q 49.859375 40.875 45.40625 35.40625 
Q 44.1875 33.984375 37.640625 27.21875 
Q 31.109375 20.453125 19.1875 8.296875 
z
" id="DejaVuSans-32"/>
      </defs>
      <g style="fill:#262626;" transform="translate(103.276715 405.318625)scale(0.088 -0.088)">
       <use xlink:href="#DejaVuSans-32"/>
      </g>
     </g>
    </g>
    <g id="xtick_3">
     <g id="line2d_3">
      <g>
       <use style="fill:#262626;stroke:#262626;" x="156.454033" xlink:href="#mce1b657d20" y="390.332"/>
      </g>
     </g>
     <g id="text_3">
      <!-- 4 -->
      <defs>
       <path d="M 37.796875 64.3125 
L 12.890625 25.390625 
L 37.796875 25.390625 
z
M 35.203125 72.90625 
L 47.609375 72.90625 
L 47.609375 25.390625 
L 58.015625 25.390625 
L 58.015625 17.1875 
L 47.609375 17.1875 
L 47.609375 0 
L 37.796875 0 
L 37.796875 17.1875 
L 4.890625 17.1875 
L 4.890625 26.703125 
z
" id="DejaVuSans-34"/>
      </defs>
      <g style="fill:#262626;" transform="translate(153.654533 405.318625)scale(0.088 -0.088)">
       <use xlink:href="#DejaVuSans-34"/>
      </g>
     </g>
    </g>
    <g id="xtick_4">
     <g id="line2d_4">
      <g>
       <use style="fill:#262626;stroke:#262626;" x="206.831852" xlink:href="#mce1b657d20" y="390.332"/>
      </g>
     </g>
     <g id="text_4">
      <!-- 6 -->
      <defs>
       <path d="M 33.015625 40.375 
Q 26.375 40.375 22.484375 35.828125 
Q 18.609375 31.296875 18.609375 23.390625 
Q 18.609375 15.53125 22.484375 10.953125 
Q 26.375 6.390625 33.015625 6.390625 
Q 39.65625 6.390625 43.53125 10.953125 
Q 47.40625 15.53125 47.40625 23.390625 
Q 47.40625 31.296875 43.53125 35.828125 
Q 39.65625 40.375 33.015625 40.375 
z
M 52.59375 71.296875 
L 52.59375 62.3125 
Q 48.875 64.0625 45.09375 64.984375 
Q 41.3125 65.921875 37.59375 65.921875 
Q 27.828125 65.921875 22.671875 59.328125 
Q 17.53125 52.734375 16.796875 39.40625 
Q 19.671875 43.65625 24.015625 45.921875 
Q 28.375 48.1875 33.59375 48.1875 
Q 44.578125 48.1875 50.953125 41.515625 
Q 57.328125 34.859375 57.328125 23.390625 
Q 57.328125 12.15625 50.6875 5.359375 
Q 44.046875 -1.421875 33.015625 -1.421875 
Q 20.359375 -1.421875 13.671875 8.265625 
Q 6.984375 17.96875 6.984375 36.375 
Q 6.984375 53.65625 15.1875 63.9375 
Q 23.390625 74.21875 37.203125 74.21875 
Q 40.921875 74.21875 44.703125 73.484375 
Q 48.484375 72.75 52.59375 71.296875 
z
" id="DejaVuSans-36"/>
      </defs>
      <g style="fill:#262626;" transform="translate(204.032352 405.318625)scale(0.088 -0.088)">
       <use xlink:href="#DejaVuSans-36"/>
      </g>
     </g>
    </g>
    <g id="xtick_5">
     <g id="line2d_5">
      <g>
       <use style="fill:#262626;stroke:#262626;" x="257.209671" xlink:href="#mce1b657d20" y="390.332"/>
      </g>
     </g>
     <g id="text_5">
      <!-- 8 -->
      <defs>
       <path d="M 31.78125 34.625 
Q 24.75 34.625 20.71875 30.859375 
Q 16.703125 27.09375 16.703125 20.515625 
Q 16.703125 13.921875 20.71875 10.15625 
Q 24.75 6.390625 31.78125 6.390625 
Q 38.8125 6.390625 42.859375 10.171875 
Q 46.921875 13.96875 46.921875 20.515625 
Q 46.921875 27.09375 42.890625 30.859375 
Q 38.875 34.625 31.78125 34.625 
z
M 21.921875 38.8125 
Q 15.578125 40.375 12.03125 44.71875 
Q 8.5 49.078125 8.5 55.328125 
Q 8.5 64.0625 14.71875 69.140625 
Q 20.953125 74.21875 31.78125 74.21875 
Q 42.671875 74.21875 48.875 69.140625 
Q 55.078125 64.0625 55.078125 55.328125 
Q 55.078125 49.078125 51.53125 44.71875 
Q 48 40.375 41.703125 38.8125 
Q 48.828125 37.15625 52.796875 32.3125 
Q 56.78125 27.484375 56.78125 20.515625 
Q 56.78125 9.90625 50.3125 4.234375 
Q 43.84375 -1.421875 31.78125 -1.421875 
Q 19.734375 -1.421875 13.25 4.234375 
Q 6.78125 9.90625 6.78125 20.515625 
Q 6.78125 27.484375 10.78125 32.3125 
Q 14.796875 37.15625 21.921875 38.8125 
z
M 18.3125 54.390625 
Q 18.3125 48.734375 21.84375 45.5625 
Q 25.390625 42.390625 31.78125 42.390625 
Q 38.140625 42.390625 41.71875 45.5625 
Q 45.3125 48.734375 45.3125 54.390625 
Q 45.3125 60.0625 41.71875 63.234375 
Q 38.140625 66.40625 31.78125 66.40625 
Q 25.390625 66.40625 21.84375 63.234375 
Q 18.3125 60.0625 18.3125 54.390625 
z
" id="DejaVuSans-38"/>
      </defs>
      <g style="fill:#262626;" transform="translate(254.410171 405.318625)scale(0.088 -0.088)">
       <use xlink:href="#DejaVuSans-38"/>
      </g>
     </g>
    </g>
    <g id="xtick_6">
     <g id="line2d_6">
      <g>
       <use style="fill:#262626;stroke:#262626;" x="307.587489" xlink:href="#mce1b657d20" y="390.332"/>
      </g>
     </g>
     <g id="text_6">
      <!-- 10 -->
      <defs>
       <path d="M 12.40625 8.296875 
L 28.515625 8.296875 
L 28.515625 63.921875 
L 10.984375 60.40625 
L 10.984375 69.390625 
L 28.421875 72.90625 
L 38.28125 72.90625 
L 38.28125 8.296875 
L 54.390625 8.296875 
L 54.390625 0 
L 12.40625 0 
z
" id="DejaVuSans-31"/>
      </defs>
      <g style="fill:#262626;" transform="translate(301.988489 405.318625)scale(0.088 -0.088)">
       <use xlink:href="#DejaVuSans-31"/>
       <use x="63.623047" xlink:href="#DejaVuSans-30"/>
      </g>
     </g>
    </g>
    <g id="text_7">
     <!-- g(k-1) -->
     <defs>
      <path d="M 45.40625 27.984375 
Q 45.40625 37.75 41.375 43.109375 
Q 37.359375 48.484375 30.078125 48.484375 
Q 22.859375 48.484375 18.828125 43.109375 
Q 14.796875 37.75 14.796875 27.984375 
Q 14.796875 18.265625 18.828125 12.890625 
Q 22.859375 7.515625 30.078125 7.515625 
Q 37.359375 7.515625 41.375 12.890625 
Q 45.40625 18.265625 45.40625 27.984375 
z
M 54.390625 6.78125 
Q 54.390625 -7.171875 48.1875 -13.984375 
Q 42 -20.796875 29.203125 -20.796875 
Q 24.46875 -20.796875 20.265625 -20.09375 
Q 16.0625 -19.390625 12.109375 -17.921875 
L 12.109375 -9.1875 
Q 16.0625 -11.328125 19.921875 -12.34375 
Q 23.78125 -13.375 27.78125 -13.375 
Q 36.625 -13.375 41.015625 -8.765625 
Q 45.40625 -4.15625 45.40625 5.171875 
L 45.40625 9.625 
Q 42.625 4.78125 38.28125 2.390625 
Q 33.9375 0 27.875 0 
Q 17.828125 0 11.671875 7.65625 
Q 5.515625 15.328125 5.515625 27.984375 
Q 5.515625 40.671875 11.671875 48.328125 
Q 17.828125 56 27.875 56 
Q 33.9375 56 38.28125 53.609375 
Q 42.625 51.21875 45.40625 46.390625 
L 45.40625 54.6875 
L 54.390625 54.6875 
z
" id="DejaVuSans-67"/>
      <path d="M 31 75.875 
Q 24.46875 64.65625 21.28125 53.65625 
Q 18.109375 42.671875 18.109375 31.390625 
Q 18.109375 20.125 21.3125 9.0625 
Q 24.515625 -2 31 -13.1875 
L 23.1875 -13.1875 
Q 15.875 -1.703125 12.234375 9.375 
Q 8.59375 20.453125 8.59375 31.390625 
Q 8.59375 42.28125 12.203125 53.3125 
Q 15.828125 64.359375 23.1875 75.875 
z
" id="DejaVuSans-28"/>
      <path d="M 9.078125 75.984375 
L 18.109375 75.984375 
L 18.109375 31.109375 
L 44.921875 54.6875 
L 56.390625 54.6875 
L 27.390625 29.109375 
L 57.625 0 
L 45.90625 0 
L 18.109375 26.703125 
L 18.109375 0 
L 9.078125 0 
z
" id="DejaVuSans-6b"/>
      <path d="M 4.890625 31.390625 
L 31.203125 31.390625 
L 31.203125 23.390625 
L 4.890625 23.390625 
z
" id="DejaVuSans-2d"/>
      <path d="M 8.015625 75.875 
L 15.828125 75.875 
Q 23.140625 64.359375 26.78125 53.3125 
Q 30.421875 42.28125 30.421875 31.390625 
Q 30.421875 20.453125 26.78125 9.375 
Q 23.140625 -1.703125 15.828125 -13.1875 
L 8.015625 -13.1875 
Q 14.5 -2 17.703125 9.0625 
Q 20.90625 20.125 20.90625 31.390625 
Q 20.90625 42.671875 17.703125 53.65625 
Q 14.5 64.65625 8.015625 75.875 
z
" id="DejaVuSans-29"/>
     </defs>
     <g style="fill:#262626;" transform="translate(185.590443 418.44325)scale(0.096 -0.096)">
      <use xlink:href="#DejaVuSans-67"/>
      <use x="63.476562" xlink:href="#DejaVuSans-28"/>
      <use x="102.490234" xlink:href="#DejaVuSans-6b"/>
      <use x="160.400391" xlink:href="#DejaVuSans-2d"/>
      <use x="196.484375" xlink:href="#DejaVuSans-31"/>
      <use x="260.107422" xlink:href="#DejaVuSans-29"/>
     </g>
    </g>
   </g>
   <g id="matplotlib.axis_2">
    <g id="ytick_1">
     <g id="line2d_7">
      <defs>
       <path d="M 0 0 
L -4.8 0 
" id="md6b181f44d" style="stroke:#262626;"/>
      </defs>
      <g>
       <use style="fill:#262626;stroke:#262626;" x="46.543" xlink:href="#md6b181f44d" y="330.194976"/>
      </g>
     </g>
     <g id="text_8">
      <!-- 9.5 -->
      <defs>
       <path d="M 10.984375 1.515625 
L 10.984375 10.5 
Q 14.703125 8.734375 18.5 7.8125 
Q 22.3125 6.890625 25.984375 6.890625 
Q 35.75 6.890625 40.890625 13.453125 
Q 46.046875 20.015625 46.78125 33.40625 
Q 43.953125 29.203125 39.59375 26.953125 
Q 35.25 24.703125 29.984375 24.703125 
Q 19.046875 24.703125 12.671875 31.3125 
Q 6.296875 37.9375 6.296875 49.421875 
Q 6.296875 60.640625 12.9375 67.421875 
Q 19.578125 74.21875 30.609375 74.21875 
Q 43.265625 74.21875 49.921875 64.515625 
Q 56.59375 54.828125 56.59375 36.375 
Q 56.59375 19.140625 48.40625 8.859375 
Q 40.234375 -1.421875 26.421875 -1.421875 
Q 22.703125 -1.421875 18.890625 -0.6875 
Q 15.09375 0.046875 10.984375 1.515625 
z
M 30.609375 32.421875 
Q 37.25 32.421875 41.125 36.953125 
Q 45.015625 41.5 45.015625 49.421875 
Q 45.015625 57.28125 41.125 61.84375 
Q 37.25 66.40625 30.609375 66.40625 
Q 23.96875 66.40625 20.09375 61.84375 
Q 16.21875 57.28125 16.21875 49.421875 
Q 16.21875 41.5 20.09375 36.953125 
Q 23.96875 32.421875 30.609375 32.421875 
z
" id="DejaVuSans-39"/>
       <path d="M 10.6875 12.40625 
L 21 12.40625 
L 21 0 
L 10.6875 0 
z
" id="DejaVuSans-2e"/>
       <path d="M 10.796875 72.90625 
L 49.515625 72.90625 
L 49.515625 64.59375 
L 19.828125 64.59375 
L 19.828125 46.734375 
Q 21.96875 47.46875 24.109375 47.828125 
Q 26.265625 48.1875 28.421875 48.1875 
Q 40.625 48.1875 47.75 41.5 
Q 54.890625 34.8125 54.890625 23.390625 
Q 54.890625 11.625 47.5625 5.09375 
Q 40.234375 -1.421875 26.90625 -1.421875 
Q 22.3125 -1.421875 17.546875 -0.640625 
Q 12.796875 0.140625 7.71875 1.703125 
L 7.71875 11.625 
Q 12.109375 9.234375 16.796875 8.0625 
Q 21.484375 6.890625 26.703125 6.890625 
Q 35.15625 6.890625 40.078125 11.328125 
Q 45.015625 15.765625 45.015625 23.390625 
Q 45.015625 31 40.078125 35.4375 
Q 35.15625 39.890625 26.703125 39.890625 
Q 22.75 39.890625 18.8125 39.015625 
Q 14.890625 38.140625 10.796875 36.28125 
z
" id="DejaVuSans-35"/>
      </defs>
      <g style="fill:#262626;" transform="translate(24.24825 333.538289)scale(0.088 -0.088)">
       <use xlink:href="#DejaVuSans-39"/>
       <use x="63.623047" xlink:href="#DejaVuSans-2e"/>
       <use x="95.410156" xlink:href="#DejaVuSans-35"/>
      </g>
     </g>
    </g>
    <g id="ytick_2">
     <g id="line2d_8">
      <g>
       <use style="fill:#262626;stroke:#262626;" x="46.543" xlink:href="#md6b181f44d" y="262.12042"/>
      </g>
     </g>
     <g id="text_9">
      <!-- 10.0 -->
      <g style="fill:#262626;" transform="translate(18.64925 265.463732)scale(0.088 -0.088)">
       <use xlink:href="#DejaVuSans-31"/>
       <use x="63.623047" xlink:href="#DejaVuSans-30"/>
       <use x="127.246094" xlink:href="#DejaVuSans-2e"/>
       <use x="159.033203" xlink:href="#DejaVuSans-30"/>
      </g>
     </g>
    </g>
    <g id="ytick_3">
     <g id="line2d_9">
      <g>
       <use style="fill:#262626;stroke:#262626;" x="46.543" xlink:href="#md6b181f44d" y="194.045864"/>
      </g>
     </g>
     <g id="text_10">
      <!-- 10.5 -->
      <g style="fill:#262626;" transform="translate(18.64925 197.389176)scale(0.088 -0.088)">
       <use xlink:href="#DejaVuSans-31"/>
       <use x="63.623047" xlink:href="#DejaVuSans-30"/>
       <use x="127.246094" xlink:href="#DejaVuSans-2e"/>
       <use x="159.033203" xlink:href="#DejaVuSans-35"/>
      </g>
     </g>
    </g>
    <g id="ytick_4">
     <g id="line2d_10">
      <g>
       <use style="fill:#262626;stroke:#262626;" x="46.543" xlink:href="#md6b181f44d" y="125.971308"/>
      </g>
     </g>
     <g id="text_11">
      <!-- 11.0 -->
      <g style="fill:#262626;" transform="translate(18.64925 129.31462)scale(0.088 -0.088)">
       <use xlink:href="#DejaVuSans-31"/>
       <use x="63.623047" xlink:href="#DejaVuSans-31"/>
       <use x="127.246094" xlink:href="#DejaVuSans-2e"/>
       <use x="159.033203" xlink:href="#DejaVuSans-30"/>
      </g>
     </g>
    </g>
    <g id="text_12">
     <!-- log(n) -->
     <defs>
      <path d="M 9.421875 75.984375 
L 18.40625 75.984375 
L 18.40625 0 
L 9.421875 0 
z
" id="DejaVuSans-6c"/>
      <path d="M 30.609375 48.390625 
Q 23.390625 48.390625 19.1875 42.75 
Q 14.984375 37.109375 14.984375 27.296875 
Q 14.984375 17.484375 19.15625 11.84375 
Q 23.34375 6.203125 30.609375 6.203125 
Q 37.796875 6.203125 41.984375 11.859375 
Q 46.1875 17.53125 46.1875 27.296875 
Q 46.1875 37.015625 41.984375 42.703125 
Q 37.796875 48.390625 30.609375 48.390625 
z
M 30.609375 56 
Q 42.328125 56 49.015625 48.375 
Q 55.71875 40.765625 55.71875 27.296875 
Q 55.71875 13.875 49.015625 6.21875 
Q 42.328125 -1.421875 30.609375 -1.421875 
Q 18.84375 -1.421875 12.171875 6.21875 
Q 5.515625 13.875 5.515625 27.296875 
Q 5.515625 40.765625 12.171875 48.375 
Q 18.84375 56 30.609375 56 
z
" id="DejaVuSans-6f"/>
      <path d="M 54.890625 33.015625 
L 54.890625 0 
L 45.90625 0 
L 45.90625 32.71875 
Q 45.90625 40.484375 42.875 44.328125 
Q 39.84375 48.1875 33.796875 48.1875 
Q 26.515625 48.1875 22.3125 43.546875 
Q 18.109375 38.921875 18.109375 30.90625 
L 18.109375 0 
L 9.078125 0 
L 9.078125 54.6875 
L 18.109375 54.6875 
L 18.109375 46.1875 
Q 21.34375 51.125 25.703125 53.5625 
Q 30.078125 56 35.796875 56 
Q 45.21875 56 50.046875 50.171875 
Q 54.890625 44.34375 54.890625 33.015625 
z
" id="DejaVuSans-6e"/>
     </defs>
     <g style="fill:#262626;" transform="translate(12.65275 249.012164)rotate(-90)scale(0.096 -0.096)">
      <use xlink:href="#DejaVuSans-6c"/>
      <use x="27.783203" xlink:href="#DejaVuSans-6f"/>
      <use x="88.964844" xlink:href="#DejaVuSans-67"/>
      <use x="152.441406" xlink:href="#DejaVuSans-28"/>
      <use x="191.455078" xlink:href="#DejaVuSans-6e"/>
      <use x="254.833984" xlink:href="#DejaVuSans-29"/>
     </g>
    </g>
   </g>
   <g id="PathCollection_1">
    <defs>
     <path d="M 0 2.4 
C 0.636487 2.4 1.246992 2.147121 1.697056 1.697056 
C 2.147121 1.246992 2.4 0.636487 2.4 0 
C 2.4 -0.636487 2.147121 -1.246992 1.697056 -1.697056 
C 1.246992 -2.147121 0.636487 -2.4 0 -2.4 
C -0.636487 -2.4 -1.246992 -2.147121 -1.697056 -1.697056 
C -2.147121 -1.246992 -2.4 -0.636487 -2.4 0 
C -2.4 0.636487 -2.147121 1.246992 -1.697056 1.697056 
C -1.246992 2.147121 -0.636487 2.4 0 2.4 
z
" id="mc84c3cc833" style="stroke:#471365;stroke-opacity:0.8;"/>
    </defs>
    <g clip-path="url(#pf5ebe9d666)">
     <use style="fill:#471365;fill-opacity:0.8;stroke:#471365;stroke-opacity:0.8;" x="164.817861" xlink:href="#mc84c3cc833" y="189.258621"/>
     <use style="fill:#471365;fill-opacity:0.8;stroke:#471365;stroke-opacity:0.8;" x="162.939011" xlink:href="#mc84c3cc833" y="209.210143"/>
     <use style="fill:#471365;fill-opacity:0.8;stroke:#471365;stroke-opacity:0.8;" x="159.237892" xlink:href="#mc84c3cc833" y="157.902737"/>
     <use style="fill:#471365;fill-opacity:0.8;stroke:#471365;stroke-opacity:0.8;" x="166.917576" xlink:href="#mc84c3cc833" y="153.018427"/>
     <use style="fill:#471365;fill-opacity:0.8;stroke:#471365;stroke-opacity:0.8;" x="256.469536" xlink:href="#mc84c3cc833" y="153.712827"/>
     <use style="fill:#471365;fill-opacity:0.8;stroke:#471365;stroke-opacity:0.8;" x="216.404758" xlink:href="#mc84c3cc833" y="320.648714"/>
     <use style="fill:#471365;fill-opacity:0.8;stroke:#471365;stroke-opacity:0.8;" x="196.851304" xlink:href="#mc84c3cc833" y="183.152873"/>
     <use style="fill:#471365;fill-opacity:0.8;stroke:#471365;stroke-opacity:0.8;" x="202.857613" xlink:href="#mc84c3cc833" y="219.915163"/>
     <use style="fill:#471365;fill-opacity:0.8;stroke:#471365;stroke-opacity:0.8;" x="160.989987" xlink:href="#mc84c3cc833" y="183.305424"/>
     <use style="fill:#471365;fill-opacity:0.8;stroke:#471365;stroke-opacity:0.8;" x="224.673902" xlink:href="#mc84c3cc833" y="284.32878"/>
     <use style="fill:#471365;fill-opacity:0.8;stroke:#471365;stroke-opacity:0.8;" x="269.560165" xlink:href="#mc84c3cc833" y="260.906365"/>
     <use style="fill:#471365;fill-opacity:0.8;stroke:#471365;stroke-opacity:0.8;" x="195.02428" xlink:href="#mc84c3cc833" y="167.792136"/>
     <use style="fill:#471365;fill-opacity:0.8;stroke:#471365;stroke-opacity:0.8;" x="175.374938" xlink:href="#mc84c3cc833" y="218.089607"/>
     <use style="fill:#471365;fill-opacity:0.8;stroke:#471365;stroke-opacity:0.8;" x="207.277336" xlink:href="#mc84c3cc833" y="253.242292"/>
     <use style="fill:#471365;fill-opacity:0.8;stroke:#471365;stroke-opacity:0.8;" x="164.374788" xlink:href="#mc84c3cc833" y="262.077746"/>
     <use style="fill:#471365;fill-opacity:0.8;stroke:#471365;stroke-opacity:0.8;" x="161.344755" xlink:href="#mc84c3cc833" y="174.234877"/>
     <use style="fill:#471365;fill-opacity:0.8;stroke:#471365;stroke-opacity:0.8;" x="207.284321" xlink:href="#mc84c3cc833" y="197.392158"/>
     <use style="fill:#471365;fill-opacity:0.8;stroke:#471365;stroke-opacity:0.8;" x="176.865176" xlink:href="#mc84c3cc833" y="170.408414"/>
     <use style="fill:#471365;fill-opacity:0.8;stroke:#471365;stroke-opacity:0.8;" x="126.359954" xlink:href="#mc84c3cc833" y="195.650717"/>
     <use style="fill:#471365;fill-opacity:0.8;stroke:#471365;stroke-opacity:0.8;" x="273.536932" xlink:href="#mc84c3cc833" y="160.168319"/>
     <use style="fill:#471365;fill-opacity:0.8;stroke:#471365;stroke-opacity:0.8;" x="133.211511" xlink:href="#mc84c3cc833" y="149.165114"/>
     <use style="fill:#471365;fill-opacity:0.8;stroke:#471365;stroke-opacity:0.8;" x="270.041616" xlink:href="#mc84c3cc833" y="158.224078"/>
     <use style="fill:#471365;fill-opacity:0.8;stroke:#471365;stroke-opacity:0.8;" x="164.543452" xlink:href="#mc84c3cc833" y="206.814094"/>
     <use style="fill:#471365;fill-opacity:0.8;stroke:#471365;stroke-opacity:0.8;" x="184.999617" xlink:href="#mc84c3cc833" y="286.678651"/>
     <use style="fill:#471365;fill-opacity:0.8;stroke:#471365;stroke-opacity:0.8;" x="188.979364" xlink:href="#mc84c3cc833" y="167.715032"/>
     <use style="fill:#471365;fill-opacity:0.8;stroke:#471365;stroke-opacity:0.8;" x="198.266955" xlink:href="#mc84c3cc833" y="208.762041"/>
     <use style="fill:#471365;fill-opacity:0.8;stroke:#471365;stroke-opacity:0.8;" x="224.479887" xlink:href="#mc84c3cc833" y="209.647117"/>
     <use style="fill:#471365;fill-opacity:0.8;stroke:#471365;stroke-opacity:0.8;" x="228.360819" xlink:href="#mc84c3cc833" y="229.089333"/>
     <use style="fill:#471365;fill-opacity:0.8;stroke:#471365;stroke-opacity:0.8;" x="168.600397" xlink:href="#mc84c3cc833" y="212.350024"/>
     <use style="fill:#471365;fill-opacity:0.8;stroke:#471365;stroke-opacity:0.8;" x="233.632746" xlink:href="#mc84c3cc833" y="171.38683"/>
     <use style="fill:#471365;fill-opacity:0.8;stroke:#471365;stroke-opacity:0.8;" x="224.916741" xlink:href="#mc84c3cc833" y="176.491681"/>
     <use style="fill:#471365;fill-opacity:0.8;stroke:#471365;stroke-opacity:0.8;" x="164.933581" xlink:href="#mc84c3cc833" y="225.501649"/>
     <use style="fill:#471365;fill-opacity:0.8;stroke:#471365;stroke-opacity:0.8;" x="145.003447" xlink:href="#mc84c3cc833" y="170.202663"/>
     <use style="fill:#471365;fill-opacity:0.8;stroke:#471365;stroke-opacity:0.8;" x="238.998122" xlink:href="#mc84c3cc833" y="194.86075"/>
     <use style="fill:#471365;fill-opacity:0.8;stroke:#471365;stroke-opacity:0.8;" x="221.867989" xlink:href="#mc84c3cc833" y="182.978939"/>
     <use style="fill:#471365;fill-opacity:0.8;stroke:#471365;stroke-opacity:0.8;" x="148.245942" xlink:href="#mc84c3cc833" y="174.820399"/>
     <use style="fill:#471365;fill-opacity:0.8;stroke:#471365;stroke-opacity:0.8;" x="145.445447" xlink:href="#mc84c3cc833" y="163.696307"/>
     <use style="fill:#471365;fill-opacity:0.8;stroke:#471365;stroke-opacity:0.8;" x="206.599938" xlink:href="#mc84c3cc833" y="203.649213"/>
     <use style="fill:#471365;fill-opacity:0.8;stroke:#471365;stroke-opacity:0.8;" x="254.228245" xlink:href="#mc84c3cc833" y="161.392447"/>
     <use style="fill:#471365;fill-opacity:0.8;stroke:#471365;stroke-opacity:0.8;" x="188.919807" xlink:href="#mc84c3cc833" y="181.973783"/>
     <use style="fill:#471365;fill-opacity:0.8;stroke:#471365;stroke-opacity:0.8;" x="179.298623" xlink:href="#mc84c3cc833" y="197.633839"/>
     <use style="fill:#471365;fill-opacity:0.8;stroke:#471365;stroke-opacity:0.8;" x="170.780975" xlink:href="#mc84c3cc833" y="161.836602"/>
     <use style="fill:#471365;fill-opacity:0.8;stroke:#471365;stroke-opacity:0.8;" x="179.329678" xlink:href="#mc84c3cc833" y="185.664478"/>
    </g>
   </g>
   <g id="PolyCollection_1">
    <defs>
     <path d="M 60.488949 -295.596046 
L 60.488949 -211.233253 
L 63.306313 -211.617448 
L 66.123676 -211.97038 
L 68.94104 -212.277878 
L 71.758403 -212.585376 
L 74.575767 -213.037444 
L 77.39313 -213.523684 
L 80.210494 -213.909405 
L 83.027857 -214.292587 
L 85.845221 -214.676862 
L 88.662584 -215.061136 
L 91.479948 -215.445411 
L 94.297311 -215.9193 
L 97.114675 -216.371359 
L 99.932038 -216.837029 
L 102.749402 -217.219335 
L 105.566765 -217.607758 
L 108.384129 -217.97788 
L 111.201492 -218.356301 
L 114.018856 -218.739246 
L 116.836219 -219.154893 
L 119.653583 -219.505826 
L 122.470946 -220.097424 
L 125.28831 -220.736171 
L 128.105673 -221.319445 
L 130.923037 -221.861981 
L 133.7404 -222.257319 
L 136.557764 -222.540341 
L 139.375127 -222.724465 
L 142.192491 -222.804084 
L 145.009855 -223.007312 
L 147.827218 -223.434757 
L 150.644582 -223.862201 
L 153.461945 -224.080827 
L 156.279309 -224.443052 
L 159.096672 -224.536573 
L 161.914036 -224.954845 
L 164.731399 -225.108043 
L 167.548763 -224.967598 
L 170.366126 -224.967921 
L 173.18349 -224.982199 
L 176.000853 -224.778577 
L 178.818217 -224.977012 
L 181.63558 -224.29794 
L 184.452944 -224.126814 
L 187.270307 -223.948734 
L 190.087671 -223.280316 
L 192.905034 -222.406747 
L 195.722398 -221.584086 
L 198.539761 -220.691058 
L 201.357125 -219.341937 
L 204.174488 -218.385682 
L 206.991852 -217.407842 
L 209.809215 -216.220768 
L 212.626579 -215.383056 
L 215.443942 -214.266059 
L 218.261306 -213.012277 
L 221.078669 -211.796732 
L 223.896033 -210.494419 
L 226.713396 -209.110458 
L 229.53076 -207.709809 
L 232.348123 -206.226196 
L 235.165487 -204.857407 
L 237.98285 -203.594736 
L 240.800214 -202.51195 
L 243.617577 -201.407866 
L 246.434941 -199.885542 
L 249.252304 -198.556703 
L 252.069668 -197.120788 
L 254.887031 -196.021755 
L 257.704395 -194.653002 
L 260.521758 -193.048232 
L 263.339122 -191.443463 
L 266.156485 -189.838694 
L 268.973849 -188.407304 
L 271.791212 -186.863255 
L 274.608576 -185.271165 
L 277.425939 -183.679074 
L 280.243303 -182.092343 
L 283.060666 -180.651734 
L 285.87803 -179.29952 
L 288.695393 -177.952914 
L 291.512757 -176.606781 
L 294.33012 -175.260648 
L 297.147484 -173.914515 
L 299.964847 -172.569017 
L 302.782211 -171.224985 
L 305.599574 -169.868518 
L 308.416938 -168.389956 
L 311.234301 -167.113399 
L 314.051665 -165.838048 
L 316.869028 -164.491586 
L 319.686392 -163.09696 
L 322.503755 -161.628949 
L 325.321119 -160.161257 
L 328.138482 -158.867245 
L 330.955846 -157.522535 
L 333.773209 -156.091655 
L 336.590573 -154.660775 
L 339.407936 -153.252288 
L 339.407936 -264.257479 
L 339.407936 -264.257479 
L 336.590573 -263.775289 
L 333.773209 -263.2931 
L 330.955846 -262.804236 
L 328.138482 -262.254557 
L 325.321119 -261.830071 
L 322.503755 -261.352667 
L 319.686392 -260.870596 
L 316.869028 -260.44705 
L 314.051665 -259.974739 
L 311.234301 -259.273209 
L 308.416938 -258.499731 
L 305.599574 -257.764464 
L 302.782211 -257.328744 
L 299.964847 -257.232667 
L 297.147484 -256.75441 
L 294.33012 -256.167468 
L 291.512757 -255.597942 
L 288.695393 -255.080719 
L 285.87803 -254.575396 
L 283.060666 -254.174565 
L 280.243303 -253.833127 
L 277.425939 -253.491689 
L 274.608576 -253.130802 
L 271.791212 -252.675193 
L 268.973849 -252.316605 
L 266.156485 -251.850258 
L 263.339122 -251.304641 
L 260.521758 -250.989438 
L 257.704395 -250.645915 
L 254.887031 -250.316159 
L 252.069668 -250.049477 
L 249.252304 -249.703526 
L 246.434941 -249.442215 
L 243.617577 -249.003586 
L 240.800214 -248.674817 
L 237.98285 -248.346047 
L 235.165487 -248.00439 
L 232.348123 -247.646119 
L 229.53076 -247.363162 
L 226.713396 -246.975435 
L 223.896033 -246.568741 
L 221.078669 -246.209065 
L 218.261306 -245.854765 
L 215.443942 -245.539339 
L 212.626579 -245.448622 
L 209.809215 -245.298036 
L 206.991852 -245.452441 
L 204.174488 -245.188027 
L 201.357125 -245.135993 
L 198.539761 -244.85415 
L 195.722398 -244.576728 
L 192.905034 -244.987015 
L 190.087671 -245.127492 
L 187.270307 -245.111978 
L 184.452944 -245.53039 
L 181.63558 -245.703506 
L 178.818217 -246.079886 
L 176.000853 -246.457131 
L 173.18349 -246.89641 
L 170.366126 -247.957481 
L 167.548763 -248.447886 
L 164.731399 -248.744176 
L 161.914036 -249.611787 
L 159.096672 -250.472708 
L 156.279309 -251.603038 
L 153.461945 -252.565894 
L 150.644582 -253.531238 
L 147.827218 -254.494159 
L 145.009855 -255.340945 
L 142.192491 -256.415566 
L 139.375127 -257.548499 
L 136.557764 -258.892246 
L 133.7404 -260.200959 
L 130.923037 -261.424538 
L 128.105673 -262.764968 
L 125.28831 -263.865587 
L 122.470946 -265.138821 
L 119.653583 -266.354349 
L 116.836219 -267.644342 
L 114.018856 -268.980726 
L 111.201492 -270.263946 
L 108.384129 -271.62062 
L 105.566765 -273.066815 
L 102.749402 -274.50716 
L 99.932038 -275.772096 
L 97.114675 -277.164326 
L 94.297311 -278.679481 
L 91.479948 -280.154785 
L 88.662584 -281.495834 
L 85.845221 -282.836582 
L 83.027857 -284.17733 
L 80.210494 -285.518079 
L 77.39313 -286.909937 
L 74.575767 -288.302167 
L 71.758403 -289.694397 
L 68.94104 -291.086627 
L 66.123676 -292.483518 
L 63.306313 -294.039782 
L 60.488949 -295.596046 
z
" id="ma97f031be4" style="stroke:#ffffff;stroke-opacity:0.15;stroke-width:0.8;"/>
    </defs>
    <g clip-path="url(#pf5ebe9d666)">
     <use style="fill:#471365;fill-opacity:0.15;stroke:#ffffff;stroke-opacity:0.15;stroke-width:0.8;" x="0" xlink:href="#ma97f031be4" y="432"/>
    </g>
   </g>
   <g id="line2d_11">
    <path clip-path="url(#pf5ebe9d666)" d="M 60.488949 181.171448 
L 63.306313 181.51777 
L 66.123676 181.864092 
L 68.94104 182.210414 
L 71.758403 182.556736 
L 74.575767 182.903058 
L 77.39313 183.24938 
L 80.210494 183.595702 
L 83.027857 183.942023 
L 85.845221 184.288345 
L 88.662584 184.634667 
L 91.479948 184.980989 
L 94.297311 185.327311 
L 97.114675 185.673633 
L 99.932038 186.019955 
L 102.749402 186.366277 
L 105.566765 186.712599 
L 108.384129 187.058921 
L 111.201492 187.405242 
L 114.018856 187.751564 
L 116.836219 188.097886 
L 119.653583 188.444208 
L 122.470946 188.79053 
L 125.28831 189.136852 
L 128.105673 189.483174 
L 130.923037 189.829496 
L 133.7404 190.175818 
L 136.557764 190.522139 
L 139.375127 190.868461 
L 142.192491 191.214783 
L 145.009855 191.561105 
L 147.827218 191.907427 
L 150.644582 192.253749 
L 153.461945 192.600071 
L 156.279309 192.946393 
L 159.096672 193.292715 
L 161.914036 193.639037 
L 164.731399 193.985358 
L 167.548763 194.33168 
L 170.366126 194.678002 
L 173.18349 195.024324 
L 176.000853 195.370646 
L 178.818217 195.716968 
L 181.63558 196.06329 
L 184.452944 196.409612 
L 187.270307 196.755934 
L 190.087671 197.102255 
L 192.905034 197.448577 
L 195.722398 197.794899 
L 198.539761 198.141221 
L 201.357125 198.487543 
L 204.174488 198.833865 
L 206.991852 199.180187 
L 209.809215 199.526509 
L 212.626579 199.872831 
L 215.443942 200.219153 
L 218.261306 200.565474 
L 221.078669 200.911796 
L 223.896033 201.258118 
L 226.713396 201.60444 
L 229.53076 201.950762 
L 232.348123 202.297084 
L 235.165487 202.643406 
L 237.98285 202.989728 
L 240.800214 203.33605 
L 243.617577 203.682371 
L 246.434941 204.028693 
L 249.252304 204.375015 
L 252.069668 204.721337 
L 254.887031 205.067659 
L 257.704395 205.413981 
L 260.521758 205.760303 
L 263.339122 206.106625 
L 266.156485 206.452947 
L 268.973849 206.799269 
L 271.791212 207.14559 
L 274.608576 207.491912 
L 277.425939 207.838234 
L 280.243303 208.184556 
L 283.060666 208.530878 
L 285.87803 208.8772 
L 288.695393 209.223522 
L 291.512757 209.569844 
L 294.33012 209.916166 
L 297.147484 210.262487 
L 299.964847 210.608809 
L 302.782211 210.955131 
L 305.599574 211.301453 
L 308.416938 211.647775 
L 311.234301 211.994097 
L 314.051665 212.340419 
L 316.869028 212.686741 
L 319.686392 213.033063 
L 322.503755 213.379385 
L 325.321119 213.725706 
L 328.138482 214.072028 
L 330.955846 214.41835 
L 333.773209 214.764672 
L 336.590573 215.110994 
L 339.407936 215.457316 
" style="fill:none;stroke:#471365;stroke-linecap:round;stroke-width:1.8;"/>
   </g>
   <g id="patch_3">
    <path d="M 46.543 390.332 
L 46.543 79.481829 
" style="fill:none;stroke:#262626;stroke-linecap:square;stroke-linejoin:miter;"/>
   </g>
   <g id="patch_4">
    <path d="M 46.543 390.332 
L 353.353886 390.332 
" style="fill:none;stroke:#262626;stroke-linecap:square;stroke-linejoin:miter;"/>
   </g>
   <g id="legend_1">
    <g id="patch_5">
     <path d="M 200.213261 99.438579 
L 347.193886 99.438579 
Q 348.953886 99.438579 348.953886 97.678579 
L 348.953886 85.641829 
Q 348.953886 83.881829 347.193886 83.881829 
L 200.213261 83.881829 
Q 198.453261 83.881829 198.453261 85.641829 
L 198.453261 97.678579 
Q 198.453261 99.438579 200.213261 99.438579 
z
" style="fill:#ffffff;opacity:0.8;stroke:#cccccc;stroke-linejoin:miter;stroke-width:0.8;"/>
    </g>
    <g id="line2d_12"/>
    <g id="line2d_13"/>
    <g id="text_13">
     <!-- pearsonr = -0.12; p = 0.45 -->
     <defs>
      <path d="M 18.109375 8.203125 
L 18.109375 -20.796875 
L 9.078125 -20.796875 
L 9.078125 54.6875 
L 18.109375 54.6875 
L 18.109375 46.390625 
Q 20.953125 51.265625 25.265625 53.625 
Q 29.59375 56 35.59375 56 
Q 45.5625 56 51.78125 48.09375 
Q 58.015625 40.1875 58.015625 27.296875 
Q 58.015625 14.40625 51.78125 6.484375 
Q 45.5625 -1.421875 35.59375 -1.421875 
Q 29.59375 -1.421875 25.265625 0.953125 
Q 20.953125 3.328125 18.109375 8.203125 
z
M 48.6875 27.296875 
Q 48.6875 37.203125 44.609375 42.84375 
Q 40.53125 48.484375 33.40625 48.484375 
Q 26.265625 48.484375 22.1875 42.84375 
Q 18.109375 37.203125 18.109375 27.296875 
Q 18.109375 17.390625 22.1875 11.75 
Q 26.265625 6.109375 33.40625 6.109375 
Q 40.53125 6.109375 44.609375 11.75 
Q 48.6875 17.390625 48.6875 27.296875 
z
" id="DejaVuSans-70"/>
      <path d="M 56.203125 29.59375 
L 56.203125 25.203125 
L 14.890625 25.203125 
Q 15.484375 15.921875 20.484375 11.0625 
Q 25.484375 6.203125 34.421875 6.203125 
Q 39.59375 6.203125 44.453125 7.46875 
Q 49.3125 8.734375 54.109375 11.28125 
L 54.109375 2.78125 
Q 49.265625 0.734375 44.1875 -0.34375 
Q 39.109375 -1.421875 33.890625 -1.421875 
Q 20.796875 -1.421875 13.15625 6.1875 
Q 5.515625 13.8125 5.515625 26.8125 
Q 5.515625 40.234375 12.765625 48.109375 
Q 20.015625 56 32.328125 56 
Q 43.359375 56 49.78125 48.890625 
Q 56.203125 41.796875 56.203125 29.59375 
z
M 47.21875 32.234375 
Q 47.125 39.59375 43.09375 43.984375 
Q 39.0625 48.390625 32.421875 48.390625 
Q 24.90625 48.390625 20.390625 44.140625 
Q 15.875 39.890625 15.1875 32.171875 
z
" id="DejaVuSans-65"/>
      <path d="M 34.28125 27.484375 
Q 23.390625 27.484375 19.1875 25 
Q 14.984375 22.515625 14.984375 16.5 
Q 14.984375 11.71875 18.140625 8.90625 
Q 21.296875 6.109375 26.703125 6.109375 
Q 34.1875 6.109375 38.703125 11.40625 
Q 43.21875 16.703125 43.21875 25.484375 
L 43.21875 27.484375 
z
M 52.203125 31.203125 
L 52.203125 0 
L 43.21875 0 
L 43.21875 8.296875 
Q 40.140625 3.328125 35.546875 0.953125 
Q 30.953125 -1.421875 24.3125 -1.421875 
Q 15.921875 -1.421875 10.953125 3.296875 
Q 6 8.015625 6 15.921875 
Q 6 25.140625 12.171875 29.828125 
Q 18.359375 34.515625 30.609375 34.515625 
L 43.21875 34.515625 
L 43.21875 35.40625 
Q 43.21875 41.609375 39.140625 45 
Q 35.0625 48.390625 27.6875 48.390625 
Q 23 48.390625 18.546875 47.265625 
Q 14.109375 46.140625 10.015625 43.890625 
L 10.015625 52.203125 
Q 14.9375 54.109375 19.578125 55.046875 
Q 24.21875 56 28.609375 56 
Q 40.484375 56 46.34375 49.84375 
Q 52.203125 43.703125 52.203125 31.203125 
z
" id="DejaVuSans-61"/>
      <path d="M 41.109375 46.296875 
Q 39.59375 47.171875 37.8125 47.578125 
Q 36.03125 48 33.890625 48 
Q 26.265625 48 22.1875 43.046875 
Q 18.109375 38.09375 18.109375 28.8125 
L 18.109375 0 
L 9.078125 0 
L 9.078125 54.6875 
L 18.109375 54.6875 
L 18.109375 46.1875 
Q 20.953125 51.171875 25.484375 53.578125 
Q 30.03125 56 36.53125 56 
Q 37.453125 56 38.578125 55.875 
Q 39.703125 55.765625 41.0625 55.515625 
z
" id="DejaVuSans-72"/>
      <path d="M 44.28125 53.078125 
L 44.28125 44.578125 
Q 40.484375 46.53125 36.375 47.5 
Q 32.28125 48.484375 27.875 48.484375 
Q 21.1875 48.484375 17.84375 46.4375 
Q 14.5 44.390625 14.5 40.28125 
Q 14.5 37.15625 16.890625 35.375 
Q 19.28125 33.59375 26.515625 31.984375 
L 29.59375 31.296875 
Q 39.15625 29.25 43.1875 25.515625 
Q 47.21875 21.78125 47.21875 15.09375 
Q 47.21875 7.46875 41.1875 3.015625 
Q 35.15625 -1.421875 24.609375 -1.421875 
Q 20.21875 -1.421875 15.453125 -0.5625 
Q 10.6875 0.296875 5.421875 2 
L 5.421875 11.28125 
Q 10.40625 8.6875 15.234375 7.390625 
Q 20.0625 6.109375 24.8125 6.109375 
Q 31.15625 6.109375 34.5625 8.28125 
Q 37.984375 10.453125 37.984375 14.40625 
Q 37.984375 18.0625 35.515625 20.015625 
Q 33.0625 21.96875 24.703125 23.78125 
L 21.578125 24.515625 
Q 13.234375 26.265625 9.515625 29.90625 
Q 5.8125 33.546875 5.8125 39.890625 
Q 5.8125 47.609375 11.28125 51.796875 
Q 16.75 56 26.8125 56 
Q 31.78125 56 36.171875 55.265625 
Q 40.578125 54.546875 44.28125 53.078125 
z
" id="DejaVuSans-73"/>
      <path id="DejaVuSans-20"/>
      <path d="M 10.59375 45.40625 
L 73.1875 45.40625 
L 73.1875 37.203125 
L 10.59375 37.203125 
z
M 10.59375 25.484375 
L 73.1875 25.484375 
L 73.1875 17.1875 
L 10.59375 17.1875 
z
" id="DejaVuSans-3d"/>
      <path d="M 11.71875 51.703125 
L 22.015625 51.703125 
L 22.015625 39.3125 
L 11.71875 39.3125 
z
M 11.71875 12.40625 
L 22.015625 12.40625 
L 22.015625 4 
L 14.015625 -11.625 
L 7.71875 -11.625 
L 11.71875 4 
z
" id="DejaVuSans-3b"/>
     </defs>
     <g style="fill:#262626;" transform="translate(226.613261 94.088454)scale(0.088 -0.088)">
      <use xlink:href="#DejaVuSans-70"/>
      <use x="63.476562" xlink:href="#DejaVuSans-65"/>
      <use x="125" xlink:href="#DejaVuSans-61"/>
      <use x="186.279297" xlink:href="#DejaVuSans-72"/>
      <use x="227.392578" xlink:href="#DejaVuSans-73"/>
      <use x="279.492188" xlink:href="#DejaVuSans-6f"/>
      <use x="340.673828" xlink:href="#DejaVuSans-6e"/>
      <use x="404.052734" xlink:href="#DejaVuSans-72"/>
      <use x="445.166016" xlink:href="#DejaVuSans-20"/>
      <use x="476.953125" xlink:href="#DejaVuSans-3d"/>
      <use x="560.742188" xlink:href="#DejaVuSans-20"/>
      <use x="592.529297" xlink:href="#DejaVuSans-2d"/>
      <use x="628.613281" xlink:href="#DejaVuSans-30"/>
      <use x="692.236328" xlink:href="#DejaVuSans-2e"/>
      <use x="724.023438" xlink:href="#DejaVuSans-31"/>
      <use x="787.646484" xlink:href="#DejaVuSans-32"/>
      <use x="851.269531" xlink:href="#DejaVuSans-3b"/>
      <use x="884.960938" xlink:href="#DejaVuSans-20"/>
      <use x="916.748047" xlink:href="#DejaVuSans-70"/>
      <use x="980.224609" xlink:href="#DejaVuSans-20"/>
      <use x="1012.011719" xlink:href="#DejaVuSans-3d"/>
      <use x="1095.800781" xlink:href="#DejaVuSans-20"/>
      <use x="1127.587891" xlink:href="#DejaVuSans-30"/>
      <use x="1191.210938" xlink:href="#DejaVuSans-2e"/>
      <use x="1222.998047" xlink:href="#DejaVuSans-34"/>
      <use x="1286.621094" xlink:href="#DejaVuSans-35"/>
     </g>
    </g>
   </g>
  </g>
  <g id="axes_2">
   <g id="patch_6">
    <path d="M 46.543 68.762857 
L 353.353886 68.762857 
L 353.353886 15.168 
L 46.543 15.168 
z
" style="fill:#ffffff;"/>
   </g>
   <g id="matplotlib.axis_3">
    <g id="xtick_7">
     <g id="line2d_14">
      <g>
       <use style="fill:#262626;stroke:#262626;" x="55.698396" xlink:href="#mce1b657d20" y="68.762857"/>
      </g>
     </g>
    </g>
    <g id="xtick_8">
     <g id="line2d_15">
      <g>
       <use style="fill:#262626;stroke:#262626;" x="106.076215" xlink:href="#mce1b657d20" y="68.762857"/>
      </g>
     </g>
    </g>
    <g id="xtick_9">
     <g id="line2d_16">
      <g>
       <use style="fill:#262626;stroke:#262626;" x="156.454033" xlink:href="#mce1b657d20" y="68.762857"/>
      </g>
     </g>
    </g>
    <g id="xtick_10">
     <g id="line2d_17">
      <g>
       <use style="fill:#262626;stroke:#262626;" x="206.831852" xlink:href="#mce1b657d20" y="68.762857"/>
      </g>
     </g>
    </g>
    <g id="xtick_11">
     <g id="line2d_18">
      <g>
       <use style="fill:#262626;stroke:#262626;" x="257.209671" xlink:href="#mce1b657d20" y="68.762857"/>
      </g>
     </g>
    </g>
    <g id="xtick_12">
     <g id="line2d_19">
      <g>
       <use style="fill:#262626;stroke:#262626;" x="307.587489" xlink:href="#mce1b657d20" y="68.762857"/>
      </g>
     </g>
    </g>
   </g>
   <g id="matplotlib.axis_4">
    <g id="ytick_5"/>
    <g id="ytick_6"/>
   </g>
   <g id="patch_7">
    <path clip-path="url(#pb67c7c5afa)" d="M 126.359954 68.762857 
L 155.79535 68.762857 
L 155.79535 52.812007 
L 126.359954 52.812007 
z
" style="fill:#471365;opacity:0.4;stroke:#ffffff;stroke-linejoin:miter;stroke-width:0.8;"/>
   </g>
   <g id="patch_8">
    <path clip-path="url(#pb67c7c5afa)" d="M 155.79535 68.762857 
L 185.230745 68.762857 
L 185.230745 17.720136 
L 155.79535 17.720136 
z
" style="fill:#471365;opacity:0.4;stroke:#ffffff;stroke-linejoin:miter;stroke-width:0.8;"/>
   </g>
   <g id="patch_9">
    <path clip-path="url(#pb67c7c5afa)" d="M 185.230745 68.762857 
L 214.666141 68.762857 
L 214.666141 40.051327 
L 185.230745 40.051327 
z
" style="fill:#471365;opacity:0.4;stroke:#ffffff;stroke-linejoin:miter;stroke-width:0.8;"/>
   </g>
   <g id="patch_10">
    <path clip-path="url(#pb67c7c5afa)" d="M 214.666141 68.762857 
L 244.101536 68.762857 
L 244.101536 43.241497 
L 214.666141 43.241497 
z
" style="fill:#471365;opacity:0.4;stroke:#ffffff;stroke-linejoin:miter;stroke-width:0.8;"/>
   </g>
   <g id="patch_11">
    <path clip-path="url(#pb67c7c5afa)" d="M 244.101536 68.762857 
L 273.536932 68.762857 
L 273.536932 52.812007 
L 244.101536 52.812007 
z
" style="fill:#471365;opacity:0.4;stroke:#ffffff;stroke-linejoin:miter;stroke-width:0.8;"/>
   </g>
   <g id="line2d_20">
    <path clip-path="url(#pb67c7c5afa)" d="M 73.167085 68.727664 
L 75.728325 68.708556 
L 78.289564 68.680621 
L 80.850804 68.64059 
L 83.412043 68.584356 
L 85.973283 68.506898 
L 88.534522 68.40226 
L 91.095762 68.263582 
L 93.657002 68.083206 
L 96.218241 67.852853 
L 98.779481 67.563852 
L 101.34072 67.207422 
L 103.90196 66.77495 
L 106.463199 66.258236 
L 109.024439 65.649675 
L 111.585678 64.94233 
L 114.146918 64.129902 
L 116.708157 63.206608 
L 119.269397 62.167019 
L 121.830637 61.005941 
L 124.391876 59.718435 
L 126.953116 58.300074 
L 129.514355 56.747534 
L 132.075595 55.059542 
L 134.636834 53.238157 
L 137.198074 51.290277 
L 139.759313 49.229189 
L 142.320553 47.075897 
L 144.881793 44.859958 
L 147.443032 42.619553 
L 150.004272 40.400605 
L 152.565511 38.254849 
L 155.126751 36.236933 
L 157.68799 34.400784 
L 160.24923 32.795592 
L 162.810469 31.461907 
L 165.371709 30.428309 
L 167.932948 29.709099 
L 170.494188 29.303327 
L 173.055428 29.195261 
L 175.616667 29.356239 
L 178.177907 29.747639 
L 180.739146 30.32457 
L 183.300386 31.039808 
L 185.861625 31.847537 
L 188.422865 32.706511 
L 190.984104 33.582376 
L 193.545344 34.449074 
L 196.106584 35.289334 
L 198.667823 36.094402 
L 201.229063 36.863193 
L 203.790302 37.601051 
L 206.351542 38.31829 
L 208.912781 39.028622 
L 211.474021 39.747543 
L 214.03526 40.490705 
L 216.5965 41.272318 
L 219.157739 42.103629 
L 221.718979 42.991572 
L 224.280219 43.937717 
L 226.841458 44.937673 
L 229.402698 45.981053 
L 231.963937 47.052112 
L 234.525177 48.131045 
L 237.086416 49.195851 
L 239.647656 50.224584 
L 242.208895 51.197713 
L 244.770135 52.100315 
L 247.331375 52.923784 
L 249.892614 53.666842 
L 252.453854 54.335706 
L 255.015093 54.943374 
L 257.576333 55.508122 
L 260.137572 56.051406 
L 262.698812 56.59543 
L 265.260051 57.160681 
L 267.821291 57.763719 
L 270.38253 58.415496 
L 272.94377 59.120343 
L 275.50501 59.875747 
L 278.066249 60.672866 
L 280.627489 61.497691 
L 283.188728 62.332667 
L 285.749968 63.158546 
L 288.311207 63.956249 
L 290.872447 64.708515 
L 293.433686 65.401185 
L 295.994926 66.024026 
L 298.556166 66.571064 
L 301.117405 67.040471 
L 303.678645 67.43409 
L 306.239884 67.75671 
L 308.801124 68.015225 
L 311.362363 68.21778 
L 313.923603 68.372994 
L 316.484842 68.489332 
L 319.046082 68.574637 
L 321.607321 68.635835 
L 324.168561 68.678794 
L 326.729801 68.708306 
" style="fill:none;stroke:#471365;stroke-linecap:round;stroke-width:1.2;"/>
   </g>
   <g id="patch_12">
    <path d="M 46.543 68.762857 
L 353.353886 68.762857 
" style="fill:none;stroke:#262626;stroke-linecap:square;stroke-linejoin:miter;"/>
   </g>
  </g>
  <g id="axes_3">
   <g id="patch_13">
    <path d="M 363.933571 390.332 
L 416.832 390.332 
L 416.832 79.481829 
L 363.933571 79.481829 
z
" style="fill:#ffffff;"/>
   </g>
   <g id="matplotlib.axis_5">
    <g id="xtick_13"/>
    <g id="xtick_14"/>
   </g>
   <g id="matplotlib.axis_6">
    <g id="ytick_7">
     <g id="line2d_21">
      <g>
       <use style="fill:#262626;stroke:#262626;" x="363.933571" xlink:href="#md6b181f44d" y="330.194976"/>
      </g>
     </g>
    </g>
    <g id="ytick_8">
     <g id="line2d_22">
      <g>
       <use style="fill:#262626;stroke:#262626;" x="363.933571" xlink:href="#md6b181f44d" y="262.12042"/>
      </g>
     </g>
    </g>
    <g id="ytick_9">
     <g id="line2d_23">
      <g>
       <use style="fill:#262626;stroke:#262626;" x="363.933571" xlink:href="#md6b181f44d" y="194.045864"/>
      </g>
     </g>
    </g>
    <g id="ytick_10">
     <g id="line2d_24">
      <g>
       <use style="fill:#262626;stroke:#262626;" x="363.933571" xlink:href="#md6b181f44d" y="125.971308"/>
      </g>
     </g>
    </g>
   </g>
   <g id="patch_14">
    <path clip-path="url(#p6d9ca39fcc)" d="M 363.933571 320.648714 
L 367.808914 320.648714 
L 367.808914 299.213264 
L 363.933571 299.213264 
z
" style="fill:#471365;opacity:0.4;stroke:#ffffff;stroke-linejoin:miter;stroke-width:0.8;"/>
   </g>
   <g id="patch_15">
    <path clip-path="url(#p6d9ca39fcc)" d="M 363.933571 299.213264 
L 371.684257 299.213264 
L 371.684257 277.777814 
L 363.933571 277.777814 
z
" style="fill:#471365;opacity:0.4;stroke:#ffffff;stroke-linejoin:miter;stroke-width:0.8;"/>
   </g>
   <g id="patch_16">
    <path clip-path="url(#p6d9ca39fcc)" d="M 363.933571 277.777814 
L 371.684257 277.777814 
L 371.684257 256.342364 
L 363.933571 256.342364 
z
" style="fill:#471365;opacity:0.4;stroke:#ffffff;stroke-linejoin:miter;stroke-width:0.8;"/>
   </g>
   <g id="patch_17">
    <path clip-path="url(#p6d9ca39fcc)" d="M 363.933571 256.342364 
L 367.808914 256.342364 
L 367.808914 234.906914 
L 363.933571 234.906914 
z
" style="fill:#471365;opacity:0.4;stroke:#ffffff;stroke-linejoin:miter;stroke-width:0.8;"/>
   </g>
   <g id="patch_18">
    <path clip-path="url(#p6d9ca39fcc)" d="M 363.933571 234.906914 
L 379.434942 234.906914 
L 379.434942 213.471464 
L 363.933571 213.471464 
z
" style="fill:#471365;opacity:0.4;stroke:#ffffff;stroke-linejoin:miter;stroke-width:0.8;"/>
   </g>
   <g id="patch_19">
    <path clip-path="url(#p6d9ca39fcc)" d="M 363.933571 213.471464 
L 402.686999 213.471464 
L 402.686999 192.036014 
L 363.933571 192.036014 
z
" style="fill:#471365;opacity:0.4;stroke:#ffffff;stroke-linejoin:miter;stroke-width:0.8;"/>
   </g>
   <g id="patch_20">
    <path clip-path="url(#p6d9ca39fcc)" d="M 363.933571 192.036014 
L 402.686999 192.036014 
L 402.686999 170.600564 
L 363.933571 170.600564 
z
" style="fill:#471365;opacity:0.4;stroke:#ffffff;stroke-linejoin:miter;stroke-width:0.8;"/>
   </g>
   <g id="patch_21">
    <path clip-path="url(#p6d9ca39fcc)" d="M 363.933571 170.600564 
L 414.313027 170.600564 
L 414.313027 149.165114 
L 363.933571 149.165114 
z
" style="fill:#471365;opacity:0.4;stroke:#ffffff;stroke-linejoin:miter;stroke-width:0.8;"/>
   </g>
   <g id="line2d_25">
    <path clip-path="url(#p6d9ca39fcc)" d="M 363.955418 376.202447 
L 363.96751 373.347992 
L 363.985094 370.493536 
L 364.01001 367.639081 
L 364.044401 364.784626 
L 364.090634 361.930171 
L 364.151147 359.075716 
L 364.228238 356.22126 
L 364.323803 353.366805 
L 364.439044 350.51235 
L 364.574198 347.657895 
L 364.728336 344.80344 
L 364.899292 341.948984 
L 365.083765 339.094529 
L 365.277625 336.240074 
L 365.476398 333.385619 
L 365.675901 330.531164 
L 365.872913 327.676708 
L 366.065778 324.822253 
L 366.25482 321.967798 
L 366.442448 319.113343 
L 366.63292 316.258888 
L 366.831766 313.404432 
L 367.044936 310.549977 
L 367.277842 307.695522 
L 367.534423 304.841067 
L 367.816433 301.986612 
L 368.12305 299.132156 
L 368.450874 296.277701 
L 368.794278 293.423246 
L 369.146038 290.568791 
L 369.498091 287.714336 
L 369.84231 284.85988 
L 370.171189 282.005425 
L 370.478414 279.15097 
L 370.759337 276.296515 
L 371.011428 273.44206 
L 371.234777 270.587604 
L 371.432676 267.733149 
L 371.612258 264.878694 
L 371.785073 262.024239 
L 371.967426 259.169783 
L 372.180285 256.315328 
L 372.448588 253.460873 
L 372.799869 250.606418 
L 373.262243 247.751963 
L 373.86192 244.897507 
L 374.620551 242.043052 
L 375.55275 239.188597 
L 376.664165 236.334142 
L 377.950399 233.479687 
L 379.396971 230.625231 
L 380.980364 227.770776 
L 382.670034 224.916321 
L 384.431123 222.061866 
L 386.227525 219.207411 
L 388.024875 216.352955 
L 389.793082 213.4985 
L 391.508034 210.644045 
L 393.152279 207.78959 
L 394.714574 204.935135 
L 396.188388 202.080679 
L 397.569581 199.226224 
L 398.853611 196.371769 
L 400.032694 193.517314 
L 401.093376 190.662859 
L 402.014931 187.808403 
L 402.768899 184.953948 
L 403.319947 182.099493 
L 403.628056 179.245038 
L 403.651852 176.390583 
L 403.352766 173.536127 
L 402.699524 170.681672 
L 401.672459 167.827217 
L 400.267077 164.972762 
L 398.496412 162.118307 
L 396.391814 159.263851 
L 394.002006 156.409396 
L 391.390455 153.554941 
L 388.631323 150.700486 
L 385.804422 147.846031 
L 382.989745 144.991575 
L 380.262154 142.13712 
L 377.686789 139.282665 
L 375.315633 136.42821 
L 373.185488 133.573755 
L 371.317443 130.719299 
L 369.717707 127.864844 
L 368.379539 125.010389 
L 367.285924 122.155934 
L 366.41259 119.301479 
L 365.73102 116.447023 
L 365.211149 113.592568 
L 364.823564 110.738113 
L 364.541111 107.883658 
L 364.3399 105.029203 
L 364.199784 102.174747 
L 364.104401 99.320292 
L 364.040926 96.465837 
L 363.999633 93.611382 
" style="fill:none;stroke:#471365;stroke-linecap:round;stroke-width:1.2;"/>
   </g>
   <g id="patch_22">
    <path d="M 363.933571 390.332 
L 363.933571 79.481829 
" style="fill:none;stroke:#262626;stroke-linecap:square;stroke-linejoin:miter;"/>
   </g>
  </g>
 </g>
 <defs>
  <clipPath id="pf5ebe9d666">
   <rect height="310.850171" width="306.810886" x="46.543" y="79.481829"/>
  </clipPath>
  <clipPath id="pb67c7c5afa">
   <rect height="53.594857" width="306.810886" x="46.543" y="15.168"/>
  </clipPath>
  <clipPath id="p6d9ca39fcc">
   <rect height="310.850171" width="52.898429" x="363.933571" y="79.481829"/>
  </clipPath>
 </defs>
</svg>
