<?xml version="1.0" encoding="utf-8" standalone="no"?>
<!DOCTYPE svg PUBLIC "-//W3C//DTD SVG 1.1//EN"
  "http://www.w3.org/Graphics/SVG/1.1/DTD/svg11.dtd">
<!-- Created with matplotlib (http://matplotlib.org/) -->
<svg height="432pt" version="1.1" viewBox="0 0 432 432" width="432pt" xmlns="http://www.w3.org/2000/svg" xmlns:xlink="http://www.w3.org/1999/xlink">
 <defs>
  <style type="text/css">
*{stroke-linecap:butt;stroke-linejoin:round;}
  </style>
 </defs>
 <g id="figure_1">
  <g id="patch_1">
   <path d="M 0 432 
L 432 432 
L 432 0 
L 0 0 
z
" style="fill:#ffffff;"/>
  </g>
  <g id="axes_1">
   <g id="patch_2">
    <path d="M 49.418 390.332 
L 352.268333 390.332 
L 352.268333 81.023333 
L 49.418 81.023333 
z
" style="fill:#ffffff;"/>
   </g>
   <g id="matplotlib.axis_1">
    <g id="xtick_1">
     <g id="line2d_1">
      <defs>
       <path d="M 0 0 
L 0 4.8 
" id="mf8cd074a67" style="stroke:#262626;"/>
      </defs>
      <g>
       <use style="fill:#262626;stroke:#262626;" x="69.477496" xlink:href="#mf8cd074a67" y="390.332"/>
      </g>
     </g>
     <g id="text_1">
      <!-- −2.5 -->
      <defs>
       <path d="M 10.59375 35.5 
L 73.1875 35.5 
L 73.1875 27.203125 
L 10.59375 27.203125 
z
" id="DejaVuSans-2212"/>
       <path d="M 19.1875 8.296875 
L 53.609375 8.296875 
L 53.609375 0 
L 7.328125 0 
L 7.328125 8.296875 
Q 12.9375 14.109375 22.625 23.890625 
Q 32.328125 33.6875 34.8125 36.53125 
Q 39.546875 41.84375 41.421875 45.53125 
Q 43.3125 49.21875 43.3125 52.78125 
Q 43.3125 58.59375 39.234375 62.25 
Q 35.15625 65.921875 28.609375 65.921875 
Q 23.96875 65.921875 18.8125 64.3125 
Q 13.671875 62.703125 7.8125 59.421875 
L 7.8125 69.390625 
Q 13.765625 71.78125 18.9375 73 
Q 24.125 74.21875 28.421875 74.21875 
Q 39.75 74.21875 46.484375 68.546875 
Q 53.21875 62.890625 53.21875 53.421875 
Q 53.21875 48.921875 51.53125 44.890625 
Q 49.859375 40.875 45.40625 35.40625 
Q 44.1875 33.984375 37.640625 27.21875 
Q 31.109375 20.453125 19.1875 8.296875 
z
" id="DejaVuSans-32"/>
       <path d="M 10.6875 12.40625 
L 21 12.40625 
L 21 0 
L 10.6875 0 
z
" id="DejaVuSans-2e"/>
       <path d="M 10.796875 72.90625 
L 49.515625 72.90625 
L 49.515625 64.59375 
L 19.828125 64.59375 
L 19.828125 46.734375 
Q 21.96875 47.46875 24.109375 47.828125 
Q 26.265625 48.1875 28.421875 48.1875 
Q 40.625 48.1875 47.75 41.5 
Q 54.890625 34.8125 54.890625 23.390625 
Q 54.890625 11.625 47.5625 5.09375 
Q 40.234375 -1.421875 26.90625 -1.421875 
Q 22.3125 -1.421875 17.546875 -0.640625 
Q 12.796875 0.140625 7.71875 1.703125 
L 7.71875 11.625 
Q 12.109375 9.234375 16.796875 8.0625 
Q 21.484375 6.890625 26.703125 6.890625 
Q 35.15625 6.890625 40.078125 11.328125 
Q 45.015625 15.765625 45.015625 23.390625 
Q 45.015625 31 40.078125 35.4375 
Q 35.15625 39.890625 26.703125 39.890625 
Q 22.75 39.890625 18.8125 39.015625 
Q 14.890625 38.140625 10.796875 36.28125 
z
" id="DejaVuSans-35"/>
      </defs>
      <g style="fill:#262626;" transform="translate(58.793058 405.318625)scale(0.088 -0.088)">
       <use xlink:href="#DejaVuSans-2212"/>
       <use x="83.789062" xlink:href="#DejaVuSans-32"/>
       <use x="147.412109" xlink:href="#DejaVuSans-2e"/>
       <use x="179.199219" xlink:href="#DejaVuSans-35"/>
      </g>
     </g>
    </g>
    <g id="xtick_2">
     <g id="line2d_2">
      <g>
       <use style="fill:#262626;stroke:#262626;" x="110.359419" xlink:href="#mf8cd074a67" y="390.332"/>
      </g>
     </g>
     <g id="text_2">
      <!-- 0.0 -->
      <defs>
       <path d="M 31.78125 66.40625 
Q 24.171875 66.40625 20.328125 58.90625 
Q 16.5 51.421875 16.5 36.375 
Q 16.5 21.390625 20.328125 13.890625 
Q 24.171875 6.390625 31.78125 6.390625 
Q 39.453125 6.390625 43.28125 13.890625 
Q 47.125 21.390625 47.125 36.375 
Q 47.125 51.421875 43.28125 58.90625 
Q 39.453125 66.40625 31.78125 66.40625 
z
M 31.78125 74.21875 
Q 44.046875 74.21875 50.515625 64.515625 
Q 56.984375 54.828125 56.984375 36.375 
Q 56.984375 17.96875 50.515625 8.265625 
Q 44.046875 -1.421875 31.78125 -1.421875 
Q 19.53125 -1.421875 13.0625 8.265625 
Q 6.59375 17.96875 6.59375 36.375 
Q 6.59375 54.828125 13.0625 64.515625 
Q 19.53125 74.21875 31.78125 74.21875 
z
" id="DejaVuSans-30"/>
      </defs>
      <g style="fill:#262626;" transform="translate(103.362044 405.318625)scale(0.088 -0.088)">
       <use xlink:href="#DejaVuSans-30"/>
       <use x="63.623047" xlink:href="#DejaVuSans-2e"/>
       <use x="95.410156" xlink:href="#DejaVuSans-30"/>
      </g>
     </g>
    </g>
    <g id="xtick_3">
     <g id="line2d_3">
      <g>
       <use style="fill:#262626;stroke:#262626;" x="151.241342" xlink:href="#mf8cd074a67" y="390.332"/>
      </g>
     </g>
     <g id="text_3">
      <!-- 2.5 -->
      <g style="fill:#262626;" transform="translate(144.243967 405.318625)scale(0.088 -0.088)">
       <use xlink:href="#DejaVuSans-32"/>
       <use x="63.623047" xlink:href="#DejaVuSans-2e"/>
       <use x="95.410156" xlink:href="#DejaVuSans-35"/>
      </g>
     </g>
    </g>
    <g id="xtick_4">
     <g id="line2d_4">
      <g>
       <use style="fill:#262626;stroke:#262626;" x="192.123265" xlink:href="#mf8cd074a67" y="390.332"/>
      </g>
     </g>
     <g id="text_4">
      <!-- 5.0 -->
      <g style="fill:#262626;" transform="translate(185.12589 405.318625)scale(0.088 -0.088)">
       <use xlink:href="#DejaVuSans-35"/>
       <use x="63.623047" xlink:href="#DejaVuSans-2e"/>
       <use x="95.410156" xlink:href="#DejaVuSans-30"/>
      </g>
     </g>
    </g>
    <g id="xtick_5">
     <g id="line2d_5">
      <g>
       <use style="fill:#262626;stroke:#262626;" x="233.005188" xlink:href="#mf8cd074a67" y="390.332"/>
      </g>
     </g>
     <g id="text_5">
      <!-- 7.5 -->
      <defs>
       <path d="M 8.203125 72.90625 
L 55.078125 72.90625 
L 55.078125 68.703125 
L 28.609375 0 
L 18.3125 0 
L 43.21875 64.59375 
L 8.203125 64.59375 
z
" id="DejaVuSans-37"/>
      </defs>
      <g style="fill:#262626;" transform="translate(226.007813 405.318625)scale(0.088 -0.088)">
       <use xlink:href="#DejaVuSans-37"/>
       <use x="63.623047" xlink:href="#DejaVuSans-2e"/>
       <use x="95.410156" xlink:href="#DejaVuSans-35"/>
      </g>
     </g>
    </g>
    <g id="xtick_6">
     <g id="line2d_6">
      <g>
       <use style="fill:#262626;stroke:#262626;" x="273.887111" xlink:href="#mf8cd074a67" y="390.332"/>
      </g>
     </g>
     <g id="text_6">
      <!-- 10.0 -->
      <defs>
       <path d="M 12.40625 8.296875 
L 28.515625 8.296875 
L 28.515625 63.921875 
L 10.984375 60.40625 
L 10.984375 69.390625 
L 28.421875 72.90625 
L 38.28125 72.90625 
L 38.28125 8.296875 
L 54.390625 8.296875 
L 54.390625 0 
L 12.40625 0 
z
" id="DejaVuSans-31"/>
      </defs>
      <g style="fill:#262626;" transform="translate(264.090236 405.318625)scale(0.088 -0.088)">
       <use xlink:href="#DejaVuSans-31"/>
       <use x="63.623047" xlink:href="#DejaVuSans-30"/>
       <use x="127.246094" xlink:href="#DejaVuSans-2e"/>
       <use x="159.033203" xlink:href="#DejaVuSans-30"/>
      </g>
     </g>
    </g>
    <g id="xtick_7">
     <g id="line2d_7">
      <g>
       <use style="fill:#262626;stroke:#262626;" x="314.769034" xlink:href="#mf8cd074a67" y="390.332"/>
      </g>
     </g>
     <g id="text_7">
      <!-- 12.5 -->
      <g style="fill:#262626;" transform="translate(304.972159 405.318625)scale(0.088 -0.088)">
       <use xlink:href="#DejaVuSans-31"/>
       <use x="63.623047" xlink:href="#DejaVuSans-32"/>
       <use x="127.246094" xlink:href="#DejaVuSans-2e"/>
       <use x="159.033203" xlink:href="#DejaVuSans-35"/>
      </g>
     </g>
    </g>
    <g id="text_8">
     <!-- g(k-1) -->
     <defs>
      <path d="M 45.40625 27.984375 
Q 45.40625 37.75 41.375 43.109375 
Q 37.359375 48.484375 30.078125 48.484375 
Q 22.859375 48.484375 18.828125 43.109375 
Q 14.796875 37.75 14.796875 27.984375 
Q 14.796875 18.265625 18.828125 12.890625 
Q 22.859375 7.515625 30.078125 7.515625 
Q 37.359375 7.515625 41.375 12.890625 
Q 45.40625 18.265625 45.40625 27.984375 
z
M 54.390625 6.78125 
Q 54.390625 -7.171875 48.1875 -13.984375 
Q 42 -20.796875 29.203125 -20.796875 
Q 24.46875 -20.796875 20.265625 -20.09375 
Q 16.0625 -19.390625 12.109375 -17.921875 
L 12.109375 -9.1875 
Q 16.0625 -11.328125 19.921875 -12.34375 
Q 23.78125 -13.375 27.78125 -13.375 
Q 36.625 -13.375 41.015625 -8.765625 
Q 45.40625 -4.15625 45.40625 5.171875 
L 45.40625 9.625 
Q 42.625 4.78125 38.28125 2.390625 
Q 33.9375 0 27.875 0 
Q 17.828125 0 11.671875 7.65625 
Q 5.515625 15.328125 5.515625 27.984375 
Q 5.515625 40.671875 11.671875 48.328125 
Q 17.828125 56 27.875 56 
Q 33.9375 56 38.28125 53.609375 
Q 42.625 51.21875 45.40625 46.390625 
L 45.40625 54.6875 
L 54.390625 54.6875 
z
" id="DejaVuSans-67"/>
      <path d="M 31 75.875 
Q 24.46875 64.65625 21.28125 53.65625 
Q 18.109375 42.671875 18.109375 31.390625 
Q 18.109375 20.125 21.3125 9.0625 
Q 24.515625 -2 31 -13.1875 
L 23.1875 -13.1875 
Q 15.875 -1.703125 12.234375 9.375 
Q 8.59375 20.453125 8.59375 31.390625 
Q 8.59375 42.28125 12.203125 53.3125 
Q 15.828125 64.359375 23.1875 75.875 
z
" id="DejaVuSans-28"/>
      <path d="M 9.078125 75.984375 
L 18.109375 75.984375 
L 18.109375 31.109375 
L 44.921875 54.6875 
L 56.390625 54.6875 
L 27.390625 29.109375 
L 57.625 0 
L 45.90625 0 
L 18.109375 26.703125 
L 18.109375 0 
L 9.078125 0 
z
" id="DejaVuSans-6b"/>
      <path d="M 4.890625 31.390625 
L 31.203125 31.390625 
L 31.203125 23.390625 
L 4.890625 23.390625 
z
" id="DejaVuSans-2d"/>
      <path d="M 8.015625 75.875 
L 15.828125 75.875 
Q 23.140625 64.359375 26.78125 53.3125 
Q 30.421875 42.28125 30.421875 31.390625 
Q 30.421875 20.453125 26.78125 9.375 
Q 23.140625 -1.703125 15.828125 -13.1875 
L 8.015625 -13.1875 
Q 14.5 -2 17.703125 9.0625 
Q 20.90625 20.125 20.90625 31.390625 
Q 20.90625 42.671875 17.703125 53.65625 
Q 14.5 64.65625 8.015625 75.875 
z
" id="DejaVuSans-29"/>
     </defs>
     <g style="fill:#262626;" transform="translate(186.485167 418.44325)scale(0.096 -0.096)">
      <use xlink:href="#DejaVuSans-67"/>
      <use x="63.476562" xlink:href="#DejaVuSans-28"/>
      <use x="102.490234" xlink:href="#DejaVuSans-6b"/>
      <use x="160.400391" xlink:href="#DejaVuSans-2d"/>
      <use x="196.484375" xlink:href="#DejaVuSans-31"/>
      <use x="260.107422" xlink:href="#DejaVuSans-29"/>
     </g>
    </g>
   </g>
   <g id="matplotlib.axis_2">
    <g id="ytick_1">
     <g id="line2d_8">
      <defs>
       <path d="M 0 0 
L -4.8 0 
" id="m4d012c3857" style="stroke:#262626;"/>
      </defs>
      <g>
       <use style="fill:#262626;stroke:#262626;" x="49.418" xlink:href="#m4d012c3857" y="390.332"/>
      </g>
     </g>
     <g id="text_9">
      <!-- 0 -->
      <g style="fill:#262626;" transform="translate(35.519 393.675313)scale(0.088 -0.088)">
       <use xlink:href="#DejaVuSans-30"/>
      </g>
     </g>
    </g>
    <g id="ytick_2">
     <g id="line2d_9">
      <g>
       <use style="fill:#262626;stroke:#262626;" x="49.418" xlink:href="#m4d012c3857" y="334.094061"/>
      </g>
     </g>
     <g id="text_10">
      <!-- 20 -->
      <g style="fill:#262626;" transform="translate(29.92 337.437373)scale(0.088 -0.088)">
       <use xlink:href="#DejaVuSans-32"/>
       <use x="63.623047" xlink:href="#DejaVuSans-30"/>
      </g>
     </g>
    </g>
    <g id="ytick_3">
     <g id="line2d_10">
      <g>
       <use style="fill:#262626;stroke:#262626;" x="49.418" xlink:href="#m4d012c3857" y="277.856121"/>
      </g>
     </g>
     <g id="text_11">
      <!-- 40 -->
      <defs>
       <path d="M 37.796875 64.3125 
L 12.890625 25.390625 
L 37.796875 25.390625 
z
M 35.203125 72.90625 
L 47.609375 72.90625 
L 47.609375 25.390625 
L 58.015625 25.390625 
L 58.015625 17.1875 
L 47.609375 17.1875 
L 47.609375 0 
L 37.796875 0 
L 37.796875 17.1875 
L 4.890625 17.1875 
L 4.890625 26.703125 
z
" id="DejaVuSans-34"/>
      </defs>
      <g style="fill:#262626;" transform="translate(29.92 281.199434)scale(0.088 -0.088)">
       <use xlink:href="#DejaVuSans-34"/>
       <use x="63.623047" xlink:href="#DejaVuSans-30"/>
      </g>
     </g>
    </g>
    <g id="ytick_4">
     <g id="line2d_11">
      <g>
       <use style="fill:#262626;stroke:#262626;" x="49.418" xlink:href="#m4d012c3857" y="221.618182"/>
      </g>
     </g>
     <g id="text_12">
      <!-- 60 -->
      <defs>
       <path d="M 33.015625 40.375 
Q 26.375 40.375 22.484375 35.828125 
Q 18.609375 31.296875 18.609375 23.390625 
Q 18.609375 15.53125 22.484375 10.953125 
Q 26.375 6.390625 33.015625 6.390625 
Q 39.65625 6.390625 43.53125 10.953125 
Q 47.40625 15.53125 47.40625 23.390625 
Q 47.40625 31.296875 43.53125 35.828125 
Q 39.65625 40.375 33.015625 40.375 
z
M 52.59375 71.296875 
L 52.59375 62.3125 
Q 48.875 64.0625 45.09375 64.984375 
Q 41.3125 65.921875 37.59375 65.921875 
Q 27.828125 65.921875 22.671875 59.328125 
Q 17.53125 52.734375 16.796875 39.40625 
Q 19.671875 43.65625 24.015625 45.921875 
Q 28.375 48.1875 33.59375 48.1875 
Q 44.578125 48.1875 50.953125 41.515625 
Q 57.328125 34.859375 57.328125 23.390625 
Q 57.328125 12.15625 50.6875 5.359375 
Q 44.046875 -1.421875 33.015625 -1.421875 
Q 20.359375 -1.421875 13.671875 8.265625 
Q 6.984375 17.96875 6.984375 36.375 
Q 6.984375 53.65625 15.1875 63.9375 
Q 23.390625 74.21875 37.203125 74.21875 
Q 40.921875 74.21875 44.703125 73.484375 
Q 48.484375 72.75 52.59375 71.296875 
z
" id="DejaVuSans-36"/>
      </defs>
      <g style="fill:#262626;" transform="translate(29.92 224.961494)scale(0.088 -0.088)">
       <use xlink:href="#DejaVuSans-36"/>
       <use x="63.623047" xlink:href="#DejaVuSans-30"/>
      </g>
     </g>
    </g>
    <g id="ytick_5">
     <g id="line2d_12">
      <g>
       <use style="fill:#262626;stroke:#262626;" x="49.418" xlink:href="#m4d012c3857" y="165.380242"/>
      </g>
     </g>
     <g id="text_13">
      <!-- 80 -->
      <defs>
       <path d="M 31.78125 34.625 
Q 24.75 34.625 20.71875 30.859375 
Q 16.703125 27.09375 16.703125 20.515625 
Q 16.703125 13.921875 20.71875 10.15625 
Q 24.75 6.390625 31.78125 6.390625 
Q 38.8125 6.390625 42.859375 10.171875 
Q 46.921875 13.96875 46.921875 20.515625 
Q 46.921875 27.09375 42.890625 30.859375 
Q 38.875 34.625 31.78125 34.625 
z
M 21.921875 38.8125 
Q 15.578125 40.375 12.03125 44.71875 
Q 8.5 49.078125 8.5 55.328125 
Q 8.5 64.0625 14.71875 69.140625 
Q 20.953125 74.21875 31.78125 74.21875 
Q 42.671875 74.21875 48.875 69.140625 
Q 55.078125 64.0625 55.078125 55.328125 
Q 55.078125 49.078125 51.53125 44.71875 
Q 48 40.375 41.703125 38.8125 
Q 48.828125 37.15625 52.796875 32.3125 
Q 56.78125 27.484375 56.78125 20.515625 
Q 56.78125 9.90625 50.3125 4.234375 
Q 43.84375 -1.421875 31.78125 -1.421875 
Q 19.734375 -1.421875 13.25 4.234375 
Q 6.78125 9.90625 6.78125 20.515625 
Q 6.78125 27.484375 10.78125 32.3125 
Q 14.796875 37.15625 21.921875 38.8125 
z
M 18.3125 54.390625 
Q 18.3125 48.734375 21.84375 45.5625 
Q 25.390625 42.390625 31.78125 42.390625 
Q 38.140625 42.390625 41.71875 45.5625 
Q 45.3125 48.734375 45.3125 54.390625 
Q 45.3125 60.0625 41.71875 63.234375 
Q 38.140625 66.40625 31.78125 66.40625 
Q 25.390625 66.40625 21.84375 63.234375 
Q 18.3125 60.0625 18.3125 54.390625 
z
" id="DejaVuSans-38"/>
      </defs>
      <g style="fill:#262626;" transform="translate(29.92 168.723555)scale(0.088 -0.088)">
       <use xlink:href="#DejaVuSans-38"/>
       <use x="63.623047" xlink:href="#DejaVuSans-30"/>
      </g>
     </g>
    </g>
    <g id="ytick_6">
     <g id="line2d_13">
      <g>
       <use style="fill:#262626;stroke:#262626;" x="49.418" xlink:href="#m4d012c3857" y="109.142303"/>
      </g>
     </g>
     <g id="text_14">
      <!-- 100 -->
      <g style="fill:#262626;" transform="translate(24.321 112.485616)scale(0.088 -0.088)">
       <use xlink:href="#DejaVuSans-31"/>
       <use x="63.623047" xlink:href="#DejaVuSans-30"/>
       <use x="127.246094" xlink:href="#DejaVuSans-30"/>
      </g>
     </g>
    </g>
    <g id="text_15">
     <!-- Time to cancer -->
     <defs>
      <path d="M -0.296875 72.90625 
L 61.375 72.90625 
L 61.375 64.59375 
L 35.5 64.59375 
L 35.5 0 
L 25.59375 0 
L 25.59375 64.59375 
L -0.296875 64.59375 
z
" id="DejaVuSans-54"/>
      <path d="M 9.421875 54.6875 
L 18.40625 54.6875 
L 18.40625 0 
L 9.421875 0 
z
M 9.421875 75.984375 
L 18.40625 75.984375 
L 18.40625 64.59375 
L 9.421875 64.59375 
z
" id="DejaVuSans-69"/>
      <path d="M 52 44.1875 
Q 55.375 50.25 60.0625 53.125 
Q 64.75 56 71.09375 56 
Q 79.640625 56 84.28125 50.015625 
Q 88.921875 44.046875 88.921875 33.015625 
L 88.921875 0 
L 79.890625 0 
L 79.890625 32.71875 
Q 79.890625 40.578125 77.09375 44.375 
Q 74.3125 48.1875 68.609375 48.1875 
Q 61.625 48.1875 57.5625 43.546875 
Q 53.515625 38.921875 53.515625 30.90625 
L 53.515625 0 
L 44.484375 0 
L 44.484375 32.71875 
Q 44.484375 40.625 41.703125 44.40625 
Q 38.921875 48.1875 33.109375 48.1875 
Q 26.21875 48.1875 22.15625 43.53125 
Q 18.109375 38.875 18.109375 30.90625 
L 18.109375 0 
L 9.078125 0 
L 9.078125 54.6875 
L 18.109375 54.6875 
L 18.109375 46.1875 
Q 21.1875 51.21875 25.484375 53.609375 
Q 29.78125 56 35.6875 56 
Q 41.65625 56 45.828125 52.96875 
Q 50 49.953125 52 44.1875 
z
" id="DejaVuSans-6d"/>
      <path d="M 56.203125 29.59375 
L 56.203125 25.203125 
L 14.890625 25.203125 
Q 15.484375 15.921875 20.484375 11.0625 
Q 25.484375 6.203125 34.421875 6.203125 
Q 39.59375 6.203125 44.453125 7.46875 
Q 49.3125 8.734375 54.109375 11.28125 
L 54.109375 2.78125 
Q 49.265625 0.734375 44.1875 -0.34375 
Q 39.109375 -1.421875 33.890625 -1.421875 
Q 20.796875 -1.421875 13.15625 6.1875 
Q 5.515625 13.8125 5.515625 26.8125 
Q 5.515625 40.234375 12.765625 48.109375 
Q 20.015625 56 32.328125 56 
Q 43.359375 56 49.78125 48.890625 
Q 56.203125 41.796875 56.203125 29.59375 
z
M 47.21875 32.234375 
Q 47.125 39.59375 43.09375 43.984375 
Q 39.0625 48.390625 32.421875 48.390625 
Q 24.90625 48.390625 20.390625 44.140625 
Q 15.875 39.890625 15.1875 32.171875 
z
" id="DejaVuSans-65"/>
      <path id="DejaVuSans-20"/>
      <path d="M 18.3125 70.21875 
L 18.3125 54.6875 
L 36.8125 54.6875 
L 36.8125 47.703125 
L 18.3125 47.703125 
L 18.3125 18.015625 
Q 18.3125 11.328125 20.140625 9.421875 
Q 21.96875 7.515625 27.59375 7.515625 
L 36.8125 7.515625 
L 36.8125 0 
L 27.59375 0 
Q 17.1875 0 13.234375 3.875 
Q 9.28125 7.765625 9.28125 18.015625 
L 9.28125 47.703125 
L 2.6875 47.703125 
L 2.6875 54.6875 
L 9.28125 54.6875 
L 9.28125 70.21875 
z
" id="DejaVuSans-74"/>
      <path d="M 30.609375 48.390625 
Q 23.390625 48.390625 19.1875 42.75 
Q 14.984375 37.109375 14.984375 27.296875 
Q 14.984375 17.484375 19.15625 11.84375 
Q 23.34375 6.203125 30.609375 6.203125 
Q 37.796875 6.203125 41.984375 11.859375 
Q 46.1875 17.53125 46.1875 27.296875 
Q 46.1875 37.015625 41.984375 42.703125 
Q 37.796875 48.390625 30.609375 48.390625 
z
M 30.609375 56 
Q 42.328125 56 49.015625 48.375 
Q 55.71875 40.765625 55.71875 27.296875 
Q 55.71875 13.875 49.015625 6.21875 
Q 42.328125 -1.421875 30.609375 -1.421875 
Q 18.84375 -1.421875 12.171875 6.21875 
Q 5.515625 13.875 5.515625 27.296875 
Q 5.515625 40.765625 12.171875 48.375 
Q 18.84375 56 30.609375 56 
z
" id="DejaVuSans-6f"/>
      <path d="M 48.78125 52.59375 
L 48.78125 44.1875 
Q 44.96875 46.296875 41.140625 47.34375 
Q 37.3125 48.390625 33.40625 48.390625 
Q 24.65625 48.390625 19.8125 42.84375 
Q 14.984375 37.3125 14.984375 27.296875 
Q 14.984375 17.28125 19.8125 11.734375 
Q 24.65625 6.203125 33.40625 6.203125 
Q 37.3125 6.203125 41.140625 7.25 
Q 44.96875 8.296875 48.78125 10.40625 
L 48.78125 2.09375 
Q 45.015625 0.34375 40.984375 -0.53125 
Q 36.96875 -1.421875 32.421875 -1.421875 
Q 20.0625 -1.421875 12.78125 6.34375 
Q 5.515625 14.109375 5.515625 27.296875 
Q 5.515625 40.671875 12.859375 48.328125 
Q 20.21875 56 33.015625 56 
Q 37.15625 56 41.109375 55.140625 
Q 45.0625 54.296875 48.78125 52.59375 
z
" id="DejaVuSans-63"/>
      <path d="M 34.28125 27.484375 
Q 23.390625 27.484375 19.1875 25 
Q 14.984375 22.515625 14.984375 16.5 
Q 14.984375 11.71875 18.140625 8.90625 
Q 21.296875 6.109375 26.703125 6.109375 
Q 34.1875 6.109375 38.703125 11.40625 
Q 43.21875 16.703125 43.21875 25.484375 
L 43.21875 27.484375 
z
M 52.203125 31.203125 
L 52.203125 0 
L 43.21875 0 
L 43.21875 8.296875 
Q 40.140625 3.328125 35.546875 0.953125 
Q 30.953125 -1.421875 24.3125 -1.421875 
Q 15.921875 -1.421875 10.953125 3.296875 
Q 6 8.015625 6 15.921875 
Q 6 25.140625 12.171875 29.828125 
Q 18.359375 34.515625 30.609375 34.515625 
L 43.21875 34.515625 
L 43.21875 35.40625 
Q 43.21875 41.609375 39.140625 45 
Q 35.0625 48.390625 27.6875 48.390625 
Q 23 48.390625 18.546875 47.265625 
Q 14.109375 46.140625 10.015625 43.890625 
L 10.015625 52.203125 
Q 14.9375 54.109375 19.578125 55.046875 
Q 24.21875 56 28.609375 56 
Q 40.484375 56 46.34375 49.84375 
Q 52.203125 43.703125 52.203125 31.203125 
z
" id="DejaVuSans-61"/>
      <path d="M 54.890625 33.015625 
L 54.890625 0 
L 45.90625 0 
L 45.90625 32.71875 
Q 45.90625 40.484375 42.875 44.328125 
Q 39.84375 48.1875 33.796875 48.1875 
Q 26.515625 48.1875 22.3125 43.546875 
Q 18.109375 38.921875 18.109375 30.90625 
L 18.109375 0 
L 9.078125 0 
L 9.078125 54.6875 
L 18.109375 54.6875 
L 18.109375 46.1875 
Q 21.34375 51.125 25.703125 53.5625 
Q 30.078125 56 35.796875 56 
Q 45.21875 56 50.046875 50.171875 
Q 54.890625 44.34375 54.890625 33.015625 
z
" id="DejaVuSans-6e"/>
      <path d="M 41.109375 46.296875 
Q 39.59375 47.171875 37.8125 47.578125 
Q 36.03125 48 33.890625 48 
Q 26.265625 48 22.1875 43.046875 
Q 18.109375 38.09375 18.109375 28.8125 
L 18.109375 0 
L 9.078125 0 
L 9.078125 54.6875 
L 18.109375 54.6875 
L 18.109375 46.1875 
Q 20.953125 51.171875 25.484375 53.578125 
Q 30.03125 56 36.53125 56 
Q 37.453125 56 38.578125 55.875 
Q 39.703125 55.765625 41.0625 55.515625 
z
" id="DejaVuSans-72"/>
     </defs>
     <g style="fill:#262626;" transform="translate(18.3245 271.628167)rotate(-90)scale(0.096 -0.096)">
      <use xlink:href="#DejaVuSans-54"/>
      <use x="61.037109" xlink:href="#DejaVuSans-69"/>
      <use x="88.820312" xlink:href="#DejaVuSans-6d"/>
      <use x="186.232422" xlink:href="#DejaVuSans-65"/>
      <use x="247.755859" xlink:href="#DejaVuSans-20"/>
      <use x="279.542969" xlink:href="#DejaVuSans-74"/>
      <use x="318.751953" xlink:href="#DejaVuSans-6f"/>
      <use x="379.933594" xlink:href="#DejaVuSans-20"/>
      <use x="411.720703" xlink:href="#DejaVuSans-63"/>
      <use x="466.701172" xlink:href="#DejaVuSans-61"/>
      <use x="527.980469" xlink:href="#DejaVuSans-6e"/>
      <use x="591.359375" xlink:href="#DejaVuSans-63"/>
      <use x="646.339844" xlink:href="#DejaVuSans-65"/>
      <use x="707.863281" xlink:href="#DejaVuSans-72"/>
     </g>
    </g>
   </g>
   <g id="PathCollection_1">
    <defs>
     <path d="M 0 2.4 
C 0.636487 2.4 1.246992 2.147121 1.697056 1.697056 
C 2.147121 1.246992 2.4 0.636487 2.4 0 
C 2.4 -0.636487 2.147121 -1.246992 1.697056 -1.697056 
C 1.246992 -2.147121 0.636487 -2.4 0 -2.4 
C -0.636487 -2.4 -1.246992 -2.147121 -1.697056 -1.697056 
C -2.147121 -1.246992 -2.4 -0.636487 -2.4 0 
C -2.4 0.636487 -2.147121 1.246992 -1.697056 1.697056 
C -1.246992 2.147121 -0.636487 2.4 0 2.4 
z
" id="mdee8f4f078" style="stroke:#471365;stroke-opacity:0.8;"/>
    </defs>
    <g clip-path="url(#p56626235d6)">
     <use style="fill:#471365;fill-opacity:0.8;stroke:#471365;stroke-opacity:0.8;" x="124.038438" xlink:href="#mdee8f4f078" y="302.323477"/>
     <use style="fill:#471365;fill-opacity:0.8;stroke:#471365;stroke-opacity:0.8;" x="131.568092" xlink:href="#mdee8f4f078" y="368.861433"/>
     <use style="fill:#471365;fill-opacity:0.8;stroke:#471365;stroke-opacity:0.8;" x="123.753291" xlink:href="#mdee8f4f078" y="363.915576"/>
     <use style="fill:#471365;fill-opacity:0.8;stroke:#471365;stroke-opacity:0.8;" x="167.82424" xlink:href="#mdee8f4f078" y="370.109453"/>
     <use style="fill:#471365;fill-opacity:0.8;stroke:#471365;stroke-opacity:0.8;" x="144.189869" xlink:href="#mdee8f4f078" y="369.007806"/>
     <use style="fill:#471365;fill-opacity:0.8;stroke:#471365;stroke-opacity:0.8;" x="197.873483" xlink:href="#mdee8f4f078" y="368.91536"/>
     <use style="fill:#471365;fill-opacity:0.8;stroke:#471365;stroke-opacity:0.8;" x="184.740242" xlink:href="#mdee8f4f078" y="376.488222"/>
     <use style="fill:#471365;fill-opacity:0.8;stroke:#471365;stroke-opacity:0.8;" x="168.810729" xlink:href="#mdee8f4f078" y="375.147756"/>
     <use style="fill:#471365;fill-opacity:0.8;stroke:#471365;stroke-opacity:0.8;" x="126.315042" xlink:href="#mdee8f4f078" y="366.111167"/>
     <use style="fill:#471365;fill-opacity:0.8;stroke:#471365;stroke-opacity:0.8;" x="246.164561" xlink:href="#mdee8f4f078" y="376.164662"/>
     <use style="fill:#471365;fill-opacity:0.8;stroke:#471365;stroke-opacity:0.8;" x="140.264824" xlink:href="#mdee8f4f078" y="367.806009"/>
     <use style="fill:#471365;fill-opacity:0.8;stroke:#471365;stroke-opacity:0.8;" x="152.412448" xlink:href="#mdee8f4f078" y="373.630102"/>
     <use style="fill:#471365;fill-opacity:0.8;stroke:#471365;stroke-opacity:0.8;" x="146.978641" xlink:href="#mdee8f4f078" y="365.43323"/>
     <use style="fill:#471365;fill-opacity:0.8;stroke:#471365;stroke-opacity:0.8;" x="181.529564" xlink:href="#mdee8f4f078" y="372.289636"/>
     <use style="fill:#471365;fill-opacity:0.8;stroke:#471365;stroke-opacity:0.8;" x="191.9541" xlink:href="#mdee8f4f078" y="375.87962"/>
     <use style="fill:#471365;fill-opacity:0.8;stroke:#471365;stroke-opacity:0.8;" x="205.107721" xlink:href="#mdee8f4f078" y="372.85972"/>
     <use style="fill:#471365;fill-opacity:0.8;stroke:#471365;stroke-opacity:0.8;" x="148.245721" xlink:href="#mdee8f4f078" y="366.958588"/>
     <use style="fill:#471365;fill-opacity:0.8;stroke:#471365;stroke-opacity:0.8;" x="131.039228" xlink:href="#mdee8f4f078" y="363.437939"/>
     <use style="fill:#471365;fill-opacity:0.8;stroke:#471365;stroke-opacity:0.8;" x="176.162625" xlink:href="#mdee8f4f078" y="371.827407"/>
     <use style="fill:#471365;fill-opacity:0.8;stroke:#471365;stroke-opacity:0.8;" x="153.746804" xlink:href="#mdee8f4f078" y="370.278938"/>
     <use style="fill:#471365;fill-opacity:0.8;stroke:#471365;stroke-opacity:0.8;" x="185.626008" xlink:href="#mdee8f4f078" y="374.385077"/>
     <use style="fill:#471365;fill-opacity:0.8;stroke:#471365;stroke-opacity:0.8;" x="187.781167" xlink:href="#mdee8f4f078" y="372.112448"/>
     <use style="fill:#471365;fill-opacity:0.8;stroke:#471365;stroke-opacity:0.8;" x="140.088192" xlink:href="#mdee8f4f078" y="366.049536"/>
     <use style="fill:#471365;fill-opacity:0.8;stroke:#471365;stroke-opacity:0.8;" x="149.693593" xlink:href="#mdee8f4f078" y="373.38358"/>
     <use style="fill:#471365;fill-opacity:0.8;stroke:#471365;stroke-opacity:0.8;" x="162.840456" xlink:href="#mdee8f4f078" y="370.402199"/>
     <use style="fill:#471365;fill-opacity:0.8;stroke:#471365;stroke-opacity:0.8;" x="151.780678" xlink:href="#mdee8f4f078" y="369.354478"/>
     <use style="fill:#471365;fill-opacity:0.8;stroke:#471365;stroke-opacity:0.8;" x="132.623355" xlink:href="#mdee8f4f078" y="369.346774"/>
     <use style="fill:#471365;fill-opacity:0.8;stroke:#471365;stroke-opacity:0.8;" x="129.517607" xlink:href="#mdee8f4f078" y="351.543229"/>
     <use style="fill:#471365;fill-opacity:0.8;stroke:#471365;stroke-opacity:0.8;" x="131.739116" xlink:href="#mdee8f4f078" y="356.296491"/>
     <use style="fill:#471365;fill-opacity:0.8;stroke:#471365;stroke-opacity:0.8;" x="134.277515" xlink:href="#mdee8f4f078" y="365.887756"/>
     <use style="fill:#471365;fill-opacity:0.8;stroke:#471365;stroke-opacity:0.8;" x="185.756771" xlink:href="#mdee8f4f078" y="372.49764"/>
     <use style="fill:#471365;fill-opacity:0.8;stroke:#471365;stroke-opacity:0.8;" x="141.555122" xlink:href="#mdee8f4f078" y="368.430019"/>
     <use style="fill:#471365;fill-opacity:0.8;stroke:#471365;stroke-opacity:0.8;" x="173.943545" xlink:href="#mdee8f4f078" y="371.765776"/>
     <use style="fill:#471365;fill-opacity:0.8;stroke:#471365;stroke-opacity:0.8;" x="143.298401" xlink:href="#mdee8f4f078" y="367.852232"/>
     <use style="fill:#471365;fill-opacity:0.8;stroke:#471365;stroke-opacity:0.8;" x="129.022519" xlink:href="#mdee8f4f078" y="364.354694"/>
     <use style="fill:#471365;fill-opacity:0.8;stroke:#471365;stroke-opacity:0.8;" x="132.90935" xlink:href="#mdee8f4f078" y="371.966076"/>
     <use style="fill:#471365;fill-opacity:0.8;stroke:#471365;stroke-opacity:0.8;" x="152.603926" xlink:href="#mdee8f4f078" y="358.962015"/>
     <use style="fill:#471365;fill-opacity:0.8;stroke:#471365;stroke-opacity:0.8;" x="135.824173" xlink:href="#mdee8f4f078" y="361.773912"/>
     <use style="fill:#471365;fill-opacity:0.8;stroke:#471365;stroke-opacity:0.8;" x="156.163959" xlink:href="#mdee8f4f078" y="372.582382"/>
     <use style="fill:#471365;fill-opacity:0.8;stroke:#471365;stroke-opacity:0.8;" x="125.391593" xlink:href="#mdee8f4f078" y="356.273379"/>
     <use style="fill:#471365;fill-opacity:0.8;stroke:#471365;stroke-opacity:0.8;" x="159.152177" xlink:href="#mdee8f4f078" y="371.318954"/>
     <use style="fill:#471365;fill-opacity:0.8;stroke:#471365;stroke-opacity:0.8;" x="183.614311" xlink:href="#mdee8f4f078" y="373.684029"/>
     <use style="fill:#471365;fill-opacity:0.8;stroke:#471365;stroke-opacity:0.8;" x="170.400423" xlink:href="#mdee8f4f078" y="368.337573"/>
     <use style="fill:#471365;fill-opacity:0.8;stroke:#471365;stroke-opacity:0.8;" x="188.252627" xlink:href="#mdee8f4f078" y="375.918139"/>
     <use style="fill:#471365;fill-opacity:0.8;stroke:#471365;stroke-opacity:0.8;" x="201.522099" xlink:href="#mdee8f4f078" y="373.291134"/>
     <use style="fill:#471365;fill-opacity:0.8;stroke:#471365;stroke-opacity:0.8;" x="158.328161" xlink:href="#mdee8f4f078" y="375.394279"/>
     <use style="fill:#471365;fill-opacity:0.8;stroke:#471365;stroke-opacity:0.8;" x="137.780717" xlink:href="#mdee8f4f078" y="371.742665"/>
     <use style="fill:#471365;fill-opacity:0.8;stroke:#471365;stroke-opacity:0.8;" x="130.343401" xlink:href="#mdee8f4f078" y="368.545576"/>
     <use style="fill:#471365;fill-opacity:0.8;stroke:#471365;stroke-opacity:0.8;" x="164.692257" xlink:href="#mdee8f4f078" y="372.073929"/>
     <use style="fill:#471365;fill-opacity:0.8;stroke:#471365;stroke-opacity:0.8;" x="187.043689" xlink:href="#mdee8f4f078" y="375.509836"/>
     <use style="fill:#471365;fill-opacity:0.8;stroke:#471365;stroke-opacity:0.8;" x="202.372715" xlink:href="#mdee8f4f078" y="380.363247"/>
     <use style="fill:#471365;fill-opacity:0.8;stroke:#471365;stroke-opacity:0.8;" x="143.578758" xlink:href="#mdee8f4f078" y="368.522465"/>
     <use style="fill:#471365;fill-opacity:0.8;stroke:#471365;stroke-opacity:0.8;" x="156.955459" xlink:href="#mdee8f4f078" y="369.554778"/>
     <use style="fill:#471365;fill-opacity:0.8;stroke:#471365;stroke-opacity:0.8;" x="156.389617" xlink:href="#mdee8f4f078" y="369.708854"/>
     <use style="fill:#471365;fill-opacity:0.8;stroke:#471365;stroke-opacity:0.8;" x="130.094283" xlink:href="#mdee8f4f078" y="370.533164"/>
     <use style="fill:#471365;fill-opacity:0.8;stroke:#471365;stroke-opacity:0.8;" x="152.853715" xlink:href="#mdee8f4f078" y="364.123579"/>
     <use style="fill:#471365;fill-opacity:0.8;stroke:#471365;stroke-opacity:0.8;" x="120.819984" xlink:href="#mdee8f4f078" y="360.988122"/>
     <use style="fill:#471365;fill-opacity:0.8;stroke:#471365;stroke-opacity:0.8;" x="135.672734" xlink:href="#mdee8f4f078" y="365.702864"/>
     <use style="fill:#471365;fill-opacity:0.8;stroke:#471365;stroke-opacity:0.8;" x="136.317884" xlink:href="#mdee8f4f078" y="368.930768"/>
     <use style="fill:#471365;fill-opacity:0.8;stroke:#471365;stroke-opacity:0.8;" x="218.733791" xlink:href="#mdee8f4f078" y="374.654711"/>
     <use style="fill:#471365;fill-opacity:0.8;stroke:#471365;stroke-opacity:0.8;" x="136.533639" xlink:href="#mdee8f4f078" y="369.685743"/>
     <use style="fill:#471365;fill-opacity:0.8;stroke:#471365;stroke-opacity:0.8;" x="129.4931" xlink:href="#mdee8f4f078" y="368.483946"/>
     <use style="fill:#471365;fill-opacity:0.8;stroke:#471365;stroke-opacity:0.8;" x="181.076335" xlink:href="#mdee8f4f078" y="374.084628"/>
     <use style="fill:#471365;fill-opacity:0.8;stroke:#471365;stroke-opacity:0.8;" x="166.71691" xlink:href="#mdee8f4f078" y="370.62561"/>
     <use style="fill:#471365;fill-opacity:0.8;stroke:#471365;stroke-opacity:0.8;" x="190.739458" xlink:href="#mdee8f4f078" y="374.73175"/>
     <use style="fill:#471365;fill-opacity:0.8;stroke:#471365;stroke-opacity:0.8;" x="128.590386" xlink:href="#mdee8f4f078" y="365.672049"/>
     <use style="fill:#471365;fill-opacity:0.8;stroke:#471365;stroke-opacity:0.8;" x="132.182012" xlink:href="#mdee8f4f078" y="361.912581"/>
     <use style="fill:#471365;fill-opacity:0.8;stroke:#471365;stroke-opacity:0.8;" x="129.289791" xlink:href="#mdee8f4f078" y="367.374595"/>
     <use style="fill:#471365;fill-opacity:0.8;stroke:#471365;stroke-opacity:0.8;" x="167.095399" xlink:href="#mdee8f4f078" y="375.063014"/>
     <use style="fill:#471365;fill-opacity:0.8;stroke:#471365;stroke-opacity:0.8;" x="120.421044" xlink:href="#mdee8f4f078" y="343.677622"/>
     <use style="fill:#471365;fill-opacity:0.8;stroke:#471365;stroke-opacity:0.8;" x="172.083642" xlink:href="#mdee8f4f078" y="373.691733"/>
     <use style="fill:#471365;fill-opacity:0.8;stroke:#471365;stroke-opacity:0.8;" x="120.12536" xlink:href="#mdee8f4f078" y="358.20704"/>
     <use style="fill:#471365;fill-opacity:0.8;stroke:#471365;stroke-opacity:0.8;" x="174.208392" xlink:href="#mdee8f4f078" y="371.503846"/>
     <use style="fill:#471365;fill-opacity:0.8;stroke:#471365;stroke-opacity:0.8;" x="128.69171" xlink:href="#mdee8f4f078" y="367.628821"/>
     <use style="fill:#471365;fill-opacity:0.8;stroke:#471365;stroke-opacity:0.8;" x="187.147629" xlink:href="#mdee8f4f078" y="374.439004"/>
     <use style="fill:#471365;fill-opacity:0.8;stroke:#471365;stroke-opacity:0.8;" x="123.498568" xlink:href="#mdee8f4f078" y="273.773093"/>
     <use style="fill:#471365;fill-opacity:0.8;stroke:#471365;stroke-opacity:0.8;" x="125.101222" xlink:href="#mdee8f4f078" y="362.374811"/>
     <use style="fill:#471365;fill-opacity:0.8;stroke:#471365;stroke-opacity:0.8;" x="139.167919" xlink:href="#mdee8f4f078" y="370.06323"/>
     <use style="fill:#471365;fill-opacity:0.8;stroke:#471365;stroke-opacity:0.8;" x="115.092932" xlink:href="#mdee8f4f078" y="361.9511"/>
     <use style="fill:#471365;fill-opacity:0.8;stroke:#471365;stroke-opacity:0.8;" x="186.110983" xlink:href="#mdee8f4f078" y="375.070718"/>
     <use style="fill:#471365;fill-opacity:0.8;stroke:#471365;stroke-opacity:0.8;" x="167.176043" xlink:href="#mdee8f4f078" y="367.166591"/>
     <use style="fill:#471365;fill-opacity:0.8;stroke:#471365;stroke-opacity:0.8;" x="141.814156" xlink:href="#mdee8f4f078" y="373.784179"/>
     <use style="fill:#471365;fill-opacity:0.8;stroke:#471365;stroke-opacity:0.8;" x="196.001696" xlink:href="#mdee8f4f078" y="374.939753"/>
     <use style="fill:#471365;fill-opacity:0.8;stroke:#471365;stroke-opacity:0.8;" x="144.465279" xlink:href="#mdee8f4f078" y="370.710352"/>
     <use style="fill:#471365;fill-opacity:0.8;stroke:#471365;stroke-opacity:0.8;" x="143.397499" xlink:href="#mdee8f4f078" y="368.984695"/>
     <use style="fill:#471365;fill-opacity:0.8;stroke:#471365;stroke-opacity:0.8;" x="202.802905" xlink:href="#mdee8f4f078" y="373.368172"/>
     <use style="fill:#471365;fill-opacity:0.8;stroke:#471365;stroke-opacity:0.8;" x="127.098448" xlink:href="#mdee8f4f078" y="364.123579"/>
     <use style="fill:#471365;fill-opacity:0.8;stroke:#471365;stroke-opacity:0.8;" x="149.485215" xlink:href="#mdee8f4f078" y="368.784395"/>
     <use style="fill:#471365;fill-opacity:0.8;stroke:#471365;stroke-opacity:0.8;" x="133.926097" xlink:href="#mdee8f4f078" y="342.96887"/>
     <use style="fill:#471365;fill-opacity:0.8;stroke:#471365;stroke-opacity:0.8;" x="116.704843" xlink:href="#mdee8f4f078" y="367.20511"/>
     <use style="fill:#471365;fill-opacity:0.8;stroke:#471365;stroke-opacity:0.8;" x="127.767708" xlink:href="#mdee8f4f078" y="364.485659"/>
     <use style="fill:#471365;fill-opacity:0.8;stroke:#471365;stroke-opacity:0.8;" x="132.574783" xlink:href="#mdee8f4f078" y="375.494429"/>
     <use style="fill:#471365;fill-opacity:0.8;stroke:#471365;stroke-opacity:0.8;" x="128.57941" xlink:href="#mdee8f4f078" y="317.669501"/>
     <use style="fill:#471365;fill-opacity:0.8;stroke:#471365;stroke-opacity:0.8;" x="134.123386" xlink:href="#mdee8f4f078" y="368.106458"/>
     <use style="fill:#471365;fill-opacity:0.8;stroke:#471365;stroke-opacity:0.8;" x="201.02076" xlink:href="#mdee8f4f078" y="369.724262"/>
     <use style="fill:#471365;fill-opacity:0.8;stroke:#471365;stroke-opacity:0.8;" x="152.173627" xlink:href="#mdee8f4f078" y="370.456126"/>
     <use style="fill:#471365;fill-opacity:0.8;stroke:#471365;stroke-opacity:0.8;" x="212.498856" xlink:href="#mdee8f4f078" y="374.377374"/>
     <use style="fill:#471365;fill-opacity:0.8;stroke:#471365;stroke-opacity:0.8;" x="125.345255" xlink:href="#mdee8f4f078" y="269.636137"/>
     <use style="fill:#471365;fill-opacity:0.8;stroke:#471365;stroke-opacity:0.8;" x="198.43455" xlink:href="#mdee8f4f078" y="376.696226"/>
     <use style="fill:#471365;fill-opacity:0.8;stroke:#471365;stroke-opacity:0.8;" x="121.065364" xlink:href="#mdee8f4f078" y="369.37759"/>
     <use style="fill:#471365;fill-opacity:0.8;stroke:#471365;stroke-opacity:0.8;" x="176.409515" xlink:href="#mdee8f4f078" y="367.297556"/>
     <use style="fill:#471365;fill-opacity:0.8;stroke:#471365;stroke-opacity:0.8;" x="176.19598" xlink:href="#mdee8f4f078" y="369.670335"/>
     <use style="fill:#471365;fill-opacity:0.8;stroke:#471365;stroke-opacity:0.8;" x="173.302483" xlink:href="#mdee8f4f078" y="370.941467"/>
     <use style="fill:#471365;fill-opacity:0.8;stroke:#471365;stroke-opacity:0.8;" x="169.309722" xlink:href="#mdee8f4f078" y="368.55328"/>
     <use style="fill:#471365;fill-opacity:0.8;stroke:#471365;stroke-opacity:0.8;" x="125.373574" xlink:href="#mdee8f4f078" y="355.318105"/>
     <use style="fill:#471365;fill-opacity:0.8;stroke:#471365;stroke-opacity:0.8;" x="201.407834" xlink:href="#mdee8f4f078" y="372.844312"/>
     <use style="fill:#471365;fill-opacity:0.8;stroke:#471365;stroke-opacity:0.8;" x="131.737178" xlink:href="#mdee8f4f078" y="365.579603"/>
     <use style="fill:#471365;fill-opacity:0.8;stroke:#471365;stroke-opacity:0.8;" x="125.13667" xlink:href="#mdee8f4f078" y="371.442215"/>
     <use style="fill:#471365;fill-opacity:0.8;stroke:#471365;stroke-opacity:0.8;" x="140.883588" xlink:href="#mdee8f4f078" y="364.470252"/>
     <use style="fill:#471365;fill-opacity:0.8;stroke:#471365;stroke-opacity:0.8;" x="140.168915" xlink:href="#mdee8f4f078" y="374.577673"/>
     <use style="fill:#471365;fill-opacity:0.8;stroke:#471365;stroke-opacity:0.8;" x="155.600067" xlink:href="#mdee8f4f078" y="368.160385"/>
     <use style="fill:#471365;fill-opacity:0.8;stroke:#471365;stroke-opacity:0.8;" x="141.523672" xlink:href="#mdee8f4f078" y="370.463829"/>
     <use style="fill:#471365;fill-opacity:0.8;stroke:#471365;stroke-opacity:0.8;" x="126.365351" xlink:href="#mdee8f4f078" y="309.172179"/>
     <use style="fill:#471365;fill-opacity:0.8;stroke:#471365;stroke-opacity:0.8;" x="143.285749" xlink:href="#mdee8f4f078" y="368.75358"/>
     <use style="fill:#471365;fill-opacity:0.8;stroke:#471365;stroke-opacity:0.8;" x="131.8669" xlink:href="#mdee8f4f078" y="365.040335"/>
     <use style="fill:#471365;fill-opacity:0.8;stroke:#471365;stroke-opacity:0.8;" x="130.871191" xlink:href="#mdee8f4f078" y="367.574894"/>
     <use style="fill:#471365;fill-opacity:0.8;stroke:#471365;stroke-opacity:0.8;" x="134.186358" xlink:href="#mdee8f4f078" y="368.222016"/>
     <use style="fill:#471365;fill-opacity:0.8;stroke:#471365;stroke-opacity:0.8;" x="123.262989" xlink:href="#mdee8f4f078" y="364.146691"/>
     <use style="fill:#471365;fill-opacity:0.8;stroke:#471365;stroke-opacity:0.8;" x="125.582822" xlink:href="#mdee8f4f078" y="366.473247"/>
     <use style="fill:#471365;fill-opacity:0.8;stroke:#471365;stroke-opacity:0.8;" x="143.269122" xlink:href="#mdee8f4f078" y="369.01551"/>
     <use style="fill:#471365;fill-opacity:0.8;stroke:#471365;stroke-opacity:0.8;" x="122.205656" xlink:href="#mdee8f4f078" y="364.477956"/>
     <use style="fill:#471365;fill-opacity:0.8;stroke:#471365;stroke-opacity:0.8;" x="125.941904" xlink:href="#mdee8f4f078" y="369.862931"/>
     <use style="fill:#471365;fill-opacity:0.8;stroke:#471365;stroke-opacity:0.8;" x="149.227471" xlink:href="#mdee8f4f078" y="371.93526"/>
     <use style="fill:#471365;fill-opacity:0.8;stroke:#471365;stroke-opacity:0.8;" x="160.037401" xlink:href="#mdee8f4f078" y="374.539154"/>
     <use style="fill:#471365;fill-opacity:0.8;stroke:#471365;stroke-opacity:0.8;" x="141.152811" xlink:href="#mdee8f4f078" y="369.477739"/>
     <use style="fill:#471365;fill-opacity:0.8;stroke:#471365;stroke-opacity:0.8;" x="175.965061" xlink:href="#mdee8f4f078" y="374.608488"/>
     <use style="fill:#471365;fill-opacity:0.8;stroke:#471365;stroke-opacity:0.8;" x="131.748024" xlink:href="#mdee8f4f078" y="366.927773"/>
     <use style="fill:#471365;fill-opacity:0.8;stroke:#471365;stroke-opacity:0.8;" x="123.815642" xlink:href="#mdee8f4f078" y="363.877057"/>
     <use style="fill:#471365;fill-opacity:0.8;stroke:#471365;stroke-opacity:0.8;" x="204.150578" xlink:href="#mdee8f4f078" y="373.899736"/>
     <use style="fill:#471365;fill-opacity:0.8;stroke:#471365;stroke-opacity:0.8;" x="158.339054" xlink:href="#mdee8f4f078" y="369.770485"/>
     <use style="fill:#471365;fill-opacity:0.8;stroke:#471365;stroke-opacity:0.8;" x="180.733386" xlink:href="#mdee8f4f078" y="369.554778"/>
     <use style="fill:#471365;fill-opacity:0.8;stroke:#471365;stroke-opacity:0.8;" x="134.996439" xlink:href="#mdee8f4f078" y="372.751866"/>
     <use style="fill:#471365;fill-opacity:0.8;stroke:#471365;stroke-opacity:0.8;" x="157.266176" xlink:href="#mdee8f4f078" y="372.405194"/>
     <use style="fill:#471365;fill-opacity:0.8;stroke:#471365;stroke-opacity:0.8;" x="186.491654" xlink:href="#mdee8f4f078" y="373.707141"/>
     <use style="fill:#471365;fill-opacity:0.8;stroke:#471365;stroke-opacity:0.8;" x="156.14636" xlink:href="#mdee8f4f078" y="371.796591"/>
     <use style="fill:#471365;fill-opacity:0.8;stroke:#471365;stroke-opacity:0.8;" x="169.856968" xlink:href="#mdee8f4f078" y="371.565477"/>
     <use style="fill:#471365;fill-opacity:0.8;stroke:#471365;stroke-opacity:0.8;" x="128.286014" xlink:href="#mdee8f4f078" y="365.756791"/>
     <use style="fill:#471365;fill-opacity:0.8;stroke:#471365;stroke-opacity:0.8;" x="162.407944" xlink:href="#mdee8f4f078" y="370.841317"/>
     <use style="fill:#471365;fill-opacity:0.8;stroke:#471365;stroke-opacity:0.8;" x="138.24291" xlink:href="#mdee8f4f078" y="369.886042"/>
     <use style="fill:#471365;fill-opacity:0.8;stroke:#471365;stroke-opacity:0.8;" x="148.382252" xlink:href="#mdee8f4f078" y="372.020002"/>
     <use style="fill:#471365;fill-opacity:0.8;stroke:#471365;stroke-opacity:0.8;" x="123.924622" xlink:href="#mdee8f4f078" y="362.305476"/>
     <use style="fill:#471365;fill-opacity:0.8;stroke:#471365;stroke-opacity:0.8;" x="153.721805" xlink:href="#mdee8f4f078" y="371.788888"/>
     <use style="fill:#471365;fill-opacity:0.8;stroke:#471365;stroke-opacity:0.8;" x="126.783624" xlink:href="#mdee8f4f078" y="340.719352"/>
     <use style="fill:#471365;fill-opacity:0.8;stroke:#471365;stroke-opacity:0.8;" x="130.276534" xlink:href="#mdee8f4f078" y="365.733679"/>
     <use style="fill:#471365;fill-opacity:0.8;stroke:#471365;stroke-opacity:0.8;" x="187.374311" xlink:href="#mdee8f4f078" y="375.87962"/>
     <use style="fill:#471365;fill-opacity:0.8;stroke:#471365;stroke-opacity:0.8;" x="119.108117" xlink:href="#mdee8f4f078" y="369.354478"/>
     <use style="fill:#471365;fill-opacity:0.8;stroke:#471365;stroke-opacity:0.8;" x="125.023677" xlink:href="#mdee8f4f078" y="366.018721"/>
     <use style="fill:#471365;fill-opacity:0.8;stroke:#471365;stroke-opacity:0.8;" x="113.85105" xlink:href="#mdee8f4f078" y="348.014877"/>
     <use style="fill:#471365;fill-opacity:0.8;stroke:#471365;stroke-opacity:0.8;" x="122.751185" xlink:href="#mdee8f4f078" y="346.843895"/>
     <use style="fill:#471365;fill-opacity:0.8;stroke:#471365;stroke-opacity:0.8;" x="137.45804" xlink:href="#mdee8f4f078" y="360.918787"/>
     <use style="fill:#471365;fill-opacity:0.8;stroke:#471365;stroke-opacity:0.8;" x="183.852381" xlink:href="#mdee8f4f078" y="372.150968"/>
     <use style="fill:#471365;fill-opacity:0.8;stroke:#471365;stroke-opacity:0.8;" x="147.918133" xlink:href="#mdee8f4f078" y="371.195693"/>
     <use style="fill:#471365;fill-opacity:0.8;stroke:#471365;stroke-opacity:0.8;" x="137.406194" xlink:href="#mdee8f4f078" y="371.272731"/>
     <use style="fill:#471365;fill-opacity:0.8;stroke:#471365;stroke-opacity:0.8;" x="161.785971" xlink:href="#mdee8f4f078" y="370.248122"/>
     <use style="fill:#471365;fill-opacity:0.8;stroke:#471365;stroke-opacity:0.8;" x="154.688035" xlink:href="#mdee8f4f078" y="287.948135"/>
     <use style="fill:#471365;fill-opacity:0.8;stroke:#471365;stroke-opacity:0.8;" x="136.787047" xlink:href="#mdee8f4f078" y="357.143912"/>
     <use style="fill:#471365;fill-opacity:0.8;stroke:#471365;stroke-opacity:0.8;" x="207.945371" xlink:href="#mdee8f4f078" y="375.309537"/>
     <use style="fill:#471365;fill-opacity:0.8;stroke:#471365;stroke-opacity:0.8;" x="145.262652" xlink:href="#mdee8f4f078" y="370.818205"/>
     <use style="fill:#471365;fill-opacity:0.8;stroke:#471365;stroke-opacity:0.8;" x="187.42535" xlink:href="#mdee8f4f078" y="374.439004"/>
     <use style="fill:#471365;fill-opacity:0.8;stroke:#471365;stroke-opacity:0.8;" x="226.35709" xlink:href="#mdee8f4f078" y="375.663913"/>
     <use style="fill:#471365;fill-opacity:0.8;stroke:#471365;stroke-opacity:0.8;" x="180.920737" xlink:href="#mdee8f4f078" y="376.364961"/>
     <use style="fill:#471365;fill-opacity:0.8;stroke:#471365;stroke-opacity:0.8;" x="154.142806" xlink:href="#mdee8f4f078" y="371.288139"/>
     <use style="fill:#471365;fill-opacity:0.8;stroke:#471365;stroke-opacity:0.8;" x="228.841371" xlink:href="#mdee8f4f078" y="370.895244"/>
     <use style="fill:#471365;fill-opacity:0.8;stroke:#471365;stroke-opacity:0.8;" x="163.007792" xlink:href="#mdee8f4f078" y="373.529953"/>
     <use style="fill:#471365;fill-opacity:0.8;stroke:#471365;stroke-opacity:0.8;" x="165.793421" xlink:href="#mdee8f4f078" y="374.593081"/>
     <use style="fill:#471365;fill-opacity:0.8;stroke:#471365;stroke-opacity:0.8;" x="173.949778" xlink:href="#mdee8f4f078" y="373.653214"/>
     <use style="fill:#471365;fill-opacity:0.8;stroke:#471365;stroke-opacity:0.8;" x="140.857721" xlink:href="#mdee8f4f078" y="370.733463"/>
     <use style="fill:#471365;fill-opacity:0.8;stroke:#471365;stroke-opacity:0.8;" x="155.569197" xlink:href="#mdee8f4f078" y="370.379087"/>
     <use style="fill:#471365;fill-opacity:0.8;stroke:#471365;stroke-opacity:0.8;" x="136.463725" xlink:href="#mdee8f4f078" y="362.944894"/>
     <use style="fill:#471365;fill-opacity:0.8;stroke:#471365;stroke-opacity:0.8;" x="246.614666" xlink:href="#mdee8f4f078" y="374.716342"/>
     <use style="fill:#471365;fill-opacity:0.8;stroke:#471365;stroke-opacity:0.8;" x="117.25354" xlink:href="#mdee8f4f078" y="366.411616"/>
     <use style="fill:#471365;fill-opacity:0.8;stroke:#471365;stroke-opacity:0.8;" x="157.976501" xlink:href="#mdee8f4f078" y="372.120152"/>
     <use style="fill:#471365;fill-opacity:0.8;stroke:#471365;stroke-opacity:0.8;" x="165.074201" xlink:href="#mdee8f4f078" y="366.973996"/>
     <use style="fill:#471365;fill-opacity:0.8;stroke:#471365;stroke-opacity:0.8;" x="161.943905" xlink:href="#mdee8f4f078" y="371.357473"/>
     <use style="fill:#471365;fill-opacity:0.8;stroke:#471365;stroke-opacity:0.8;" x="180.636995" xlink:href="#mdee8f4f078" y="374.022998"/>
     <use style="fill:#471365;fill-opacity:0.8;stroke:#471365;stroke-opacity:0.8;" x="216.111407" xlink:href="#mdee8f4f078" y="373.144761"/>
     <use style="fill:#471365;fill-opacity:0.8;stroke:#471365;stroke-opacity:0.8;" x="126.395957" xlink:href="#mdee8f4f078" y="364.015726"/>
     <use style="fill:#471365;fill-opacity:0.8;stroke:#471365;stroke-opacity:0.8;" x="162.728842" xlink:href="#mdee8f4f078" y="368.322165"/>
     <use style="fill:#471365;fill-opacity:0.8;stroke:#471365;stroke-opacity:0.8;" x="122.634895" xlink:href="#mdee8f4f078" y="367.289853"/>
     <use style="fill:#471365;fill-opacity:0.8;stroke:#471365;stroke-opacity:0.8;" x="151.940043" xlink:href="#mdee8f4f078" y="372.228006"/>
     <use style="fill:#471365;fill-opacity:0.8;stroke:#471365;stroke-opacity:0.8;" x="148.420345" xlink:href="#mdee8f4f078" y="370.641017"/>
     <use style="fill:#471365;fill-opacity:0.8;stroke:#471365;stroke-opacity:0.8;" x="130.991385" xlink:href="#mdee8f4f078" y="368.899952"/>
     <use style="fill:#471365;fill-opacity:0.8;stroke:#471365;stroke-opacity:0.8;" x="189.983214" xlink:href="#mdee8f4f078" y="375.609986"/>
     <use style="fill:#471365;fill-opacity:0.8;stroke:#471365;stroke-opacity:0.8;" x="166.141325" xlink:href="#mdee8f4f078" y="368.75358"/>
     <use style="fill:#471365;fill-opacity:0.8;stroke:#471365;stroke-opacity:0.8;" x="149.209218" xlink:href="#mdee8f4f078" y="370.332864"/>
     <use style="fill:#471365;fill-opacity:0.8;stroke:#471365;stroke-opacity:0.8;" x="132.640578" xlink:href="#mdee8f4f078" y="367.975493"/>
     <use style="fill:#471365;fill-opacity:0.8;stroke:#471365;stroke-opacity:0.8;" x="138.526154" xlink:href="#mdee8f4f078" y="370.171084"/>
     <use style="fill:#471365;fill-opacity:0.8;stroke:#471365;stroke-opacity:0.8;" x="133.422627" xlink:href="#mdee8f4f078" y="368.106458"/>
     <use style="fill:#471365;fill-opacity:0.8;stroke:#471365;stroke-opacity:0.8;" x="144.389063" xlink:href="#mdee8f4f078" y="373.12165"/>
     <use style="fill:#471365;fill-opacity:0.8;stroke:#471365;stroke-opacity:0.8;" x="125.283162" xlink:href="#mdee8f4f078" y="356.23486"/>
     <use style="fill:#471365;fill-opacity:0.8;stroke:#471365;stroke-opacity:0.8;" x="166.740984" xlink:href="#mdee8f4f078" y="373.229503"/>
     <use style="fill:#471365;fill-opacity:0.8;stroke:#471365;stroke-opacity:0.8;" x="117.718818" xlink:href="#mdee8f4f078" y="344.147555"/>
     <use style="fill:#471365;fill-opacity:0.8;stroke:#471365;stroke-opacity:0.8;" x="104.507757" xlink:href="#mdee8f4f078" y="366.195909"/>
     <use style="fill:#471365;fill-opacity:0.8;stroke:#471365;stroke-opacity:0.8;" x="165.970989" xlink:href="#mdee8f4f078" y="370.024711"/>
     <use style="fill:#471365;fill-opacity:0.8;stroke:#471365;stroke-opacity:0.8;" x="155.145326" xlink:href="#mdee8f4f078" y="370.741167"/>
     <use style="fill:#471365;fill-opacity:0.8;stroke:#471365;stroke-opacity:0.8;" x="152.644463" xlink:href="#mdee8f4f078" y="371.14947"/>
     <use style="fill:#471365;fill-opacity:0.8;stroke:#471365;stroke-opacity:0.8;" x="206.163807" xlink:href="#mdee8f4f078" y="373.090834"/>
     <use style="fill:#471365;fill-opacity:0.8;stroke:#471365;stroke-opacity:0.8;" x="176.402134" xlink:href="#mdee8f4f078" y="372.574678"/>
     <use style="fill:#471365;fill-opacity:0.8;stroke:#471365;stroke-opacity:0.8;" x="120.210803" xlink:href="#mdee8f4f078" y="363.453347"/>
     <use style="fill:#471365;fill-opacity:0.8;stroke:#471365;stroke-opacity:0.8;" x="124.671912" xlink:href="#mdee8f4f078" y="366.280651"/>
     <use style="fill:#471365;fill-opacity:0.8;stroke:#471365;stroke-opacity:0.8;" x="140.17993" xlink:href="#mdee8f4f078" y="367.428521"/>
     <use style="fill:#471365;fill-opacity:0.8;stroke:#471365;stroke-opacity:0.8;" x="194.006434" xlink:href="#mdee8f4f078" y="370.417606"/>
     <use style="fill:#471365;fill-opacity:0.8;stroke:#471365;stroke-opacity:0.8;" x="139.992033" xlink:href="#mdee8f4f078" y="367.004811"/>
     <use style="fill:#471365;fill-opacity:0.8;stroke:#471365;stroke-opacity:0.8;" x="150.791218" xlink:href="#mdee8f4f078" y="368.507057"/>
     <use style="fill:#471365;fill-opacity:0.8;stroke:#471365;stroke-opacity:0.8;" x="139.61923" xlink:href="#mdee8f4f078" y="368.507057"/>
     <use style="fill:#471365;fill-opacity:0.8;stroke:#471365;stroke-opacity:0.8;" x="132.752686" xlink:href="#mdee8f4f078" y="367.151184"/>
     <use style="fill:#471365;fill-opacity:0.8;stroke:#471365;stroke-opacity:0.8;" x="155.980429" xlink:href="#mdee8f4f078" y="371.465327"/>
     <use style="fill:#471365;fill-opacity:0.8;stroke:#471365;stroke-opacity:0.8;" x="166.413013" xlink:href="#mdee8f4f078" y="371.580884"/>
     <use style="fill:#471365;fill-opacity:0.8;stroke:#471365;stroke-opacity:0.8;" x="141.53732" xlink:href="#mdee8f4f078" y="373.052315"/>
     <use style="fill:#471365;fill-opacity:0.8;stroke:#471365;stroke-opacity:0.8;" x="175.339846" xlink:href="#mdee8f4f078" y="371.981483"/>
     <use style="fill:#471365;fill-opacity:0.8;stroke:#471365;stroke-opacity:0.8;" x="115.860991" xlink:href="#mdee8f4f078" y="360.780118"/>
     <use style="fill:#471365;fill-opacity:0.8;stroke:#471365;stroke-opacity:0.8;" x="132.836082" xlink:href="#mdee8f4f078" y="366.011017"/>
     <use style="fill:#471365;fill-opacity:0.8;stroke:#471365;stroke-opacity:0.8;" x="143.347945" xlink:href="#mdee8f4f078" y="372.636309"/>
     <use style="fill:#471365;fill-opacity:0.8;stroke:#471365;stroke-opacity:0.8;" x="128.818255" xlink:href="#mdee8f4f078" y="364.608921"/>
     <use style="fill:#471365;fill-opacity:0.8;stroke:#471365;stroke-opacity:0.8;" x="297.178577" xlink:href="#mdee8f4f078" y="375.833397"/>
     <use style="fill:#471365;fill-opacity:0.8;stroke:#471365;stroke-opacity:0.8;" x="122.290531" xlink:href="#mdee8f4f078" y="336.9907"/>
     <use style="fill:#471365;fill-opacity:0.8;stroke:#471365;stroke-opacity:0.8;" x="153.272139" xlink:href="#mdee8f4f078" y="373.175577"/>
     <use style="fill:#471365;fill-opacity:0.8;stroke:#471365;stroke-opacity:0.8;" x="183.035958" xlink:href="#mdee8f4f078" y="371.080136"/>
     <use style="fill:#471365;fill-opacity:0.8;stroke:#471365;stroke-opacity:0.8;" x="141.891958" xlink:href="#mdee8f4f078" y="324.595242"/>
     <use style="fill:#471365;fill-opacity:0.8;stroke:#471365;stroke-opacity:0.8;" x="181.700031" xlink:href="#mdee8f4f078" y="371.095543"/>
     <use style="fill:#471365;fill-opacity:0.8;stroke:#471365;stroke-opacity:0.8;" x="178.934271" xlink:href="#mdee8f4f078" y="377.196974"/>
     <use style="fill:#471365;fill-opacity:0.8;stroke:#471365;stroke-opacity:0.8;" x="167.471923" xlink:href="#mdee8f4f078" y="372.774978"/>
     <use style="fill:#471365;fill-opacity:0.8;stroke:#471365;stroke-opacity:0.8;" x="124.71587" xlink:href="#mdee8f4f078" y="369.670335"/>
     <use style="fill:#471365;fill-opacity:0.8;stroke:#471365;stroke-opacity:0.8;" x="123.690716" xlink:href="#mdee8f4f078" y="364.786109"/>
     <use style="fill:#471365;fill-opacity:0.8;stroke:#471365;stroke-opacity:0.8;" x="208.963595" xlink:href="#mdee8f4f078" y="379.207673"/>
     <use style="fill:#471365;fill-opacity:0.8;stroke:#471365;stroke-opacity:0.8;" x="142.598176" xlink:href="#mdee8f4f078" y="371.758072"/>
     <use style="fill:#471365;fill-opacity:0.8;stroke:#471365;stroke-opacity:0.8;" x="156.354308" xlink:href="#mdee8f4f078" y="368.522465"/>
     <use style="fill:#471365;fill-opacity:0.8;stroke:#471365;stroke-opacity:0.8;" x="150.699649" xlink:href="#mdee8f4f078" y="369.986192"/>
     <use style="fill:#471365;fill-opacity:0.8;stroke:#471365;stroke-opacity:0.8;" x="127.079006" xlink:href="#mdee8f4f078" y="366.896957"/>
     <use style="fill:#471365;fill-opacity:0.8;stroke:#471365;stroke-opacity:0.8;" x="165.62211" xlink:href="#mdee8f4f078" y="374.246409"/>
     <use style="fill:#471365;fill-opacity:0.8;stroke:#471365;stroke-opacity:0.8;" x="117.764795" xlink:href="#mdee8f4f078" y="354.547722"/>
     <use style="fill:#471365;fill-opacity:0.8;stroke:#471365;stroke-opacity:0.8;" x="144.963734" xlink:href="#mdee8f4f078" y="369.362182"/>
     <use style="fill:#471365;fill-opacity:0.8;stroke:#471365;stroke-opacity:0.8;" x="147.879393" xlink:href="#mdee8f4f078" y="369.462332"/>
     <use style="fill:#471365;fill-opacity:0.8;stroke:#471365;stroke-opacity:0.8;" x="137.849418" xlink:href="#mdee8f4f078" y="368.430019"/>
     <use style="fill:#471365;fill-opacity:0.8;stroke:#471365;stroke-opacity:0.8;" x="157.538982" xlink:href="#mdee8f4f078" y="368.984695"/>
     <use style="fill:#471365;fill-opacity:0.8;stroke:#471365;stroke-opacity:0.8;" x="199.720147" xlink:href="#mdee8f4f078" y="373.422099"/>
     <use style="fill:#471365;fill-opacity:0.8;stroke:#471365;stroke-opacity:0.8;" x="152.757669" xlink:href="#mdee8f4f078" y="368.02942"/>
     <use style="fill:#471365;fill-opacity:0.8;stroke:#471365;stroke-opacity:0.8;" x="184.963512" xlink:href="#mdee8f4f078" y="371.881334"/>
    </g>
   </g>
   <g id="PolyCollection_1">
    <defs>
     <path d="M 63.183924 -89.818471 
L 63.183924 -76.519882 
L 65.964919 -76.139486 
L 68.745914 -75.759091 
L 71.526909 -75.378695 
L 74.307903 -74.998299 
L 77.088898 -74.617903 
L 79.869893 -74.237507 
L 82.650888 -73.857111 
L 85.431883 -73.476715 
L 88.212877 -73.096319 
L 90.993872 -72.716387 
L 93.774867 -72.336909 
L 96.555862 -71.955194 
L 99.336857 -71.569911 
L 102.117851 -71.190004 
L 104.898846 -70.797991 
L 107.679841 -70.401339 
L 110.460836 -70.002195 
L 113.241831 -69.601803 
L 116.022825 -69.194177 
L 118.80382 -68.791643 
L 121.584815 -68.40728 
L 124.36581 -68.021282 
L 127.146805 -67.618589 
L 129.927799 -67.229808 
L 132.708794 -66.807217 
L 135.489789 -66.428277 
L 138.270784 -66.053355 
L 141.051779 -65.677951 
L 143.832773 -65.283 
L 146.613768 -64.881679 
L 149.394763 -64.50092 
L 152.175758 -64.062793 
L 154.956753 -63.642664 
L 157.737747 -63.215854 
L 160.518742 -62.786212 
L 163.299737 -62.353343 
L 166.080732 -61.886114 
L 168.861727 -61.417118 
L 171.642721 -60.890334 
L 174.423716 -60.352245 
L 177.204711 -59.763734 
L 179.985706 -59.173422 
L 182.7667 -58.5935 
L 185.547695 -57.969417 
L 188.32869 -57.318129 
L 191.109685 -56.640713 
L 193.89068 -55.958135 
L 196.671674 -55.276338 
L 199.452669 -54.579521 
L 202.233664 -53.896856 
L 205.014659 -53.183822 
L 207.795654 -52.474907 
L 210.576648 -51.765231 
L 213.357643 -51.074735 
L 216.138638 -50.373833 
L 218.919633 -49.668955 
L 221.700628 -48.973117 
L 224.481622 -48.272759 
L 227.262617 -47.571389 
L 230.043612 -46.871951 
L 232.824607 -46.188153 
L 235.605602 -45.476443 
L 238.386596 -44.777624 
L 241.167591 -44.078805 
L 243.948586 -43.379986 
L 246.729581 -42.681168 
L 249.510576 -41.968965 
L 252.29157 -41.26797 
L 255.072565 -40.566975 
L 257.85356 -39.86598 
L 260.634555 -39.16563 
L 263.41555 -38.465521 
L 266.196544 -37.765411 
L 268.977539 -37.065302 
L 271.758534 -36.365193 
L 274.539529 -35.665084 
L 277.320524 -34.964975 
L 280.101518 -34.266695 
L 282.882513 -33.576457 
L 285.663508 -32.875824 
L 288.444503 -32.163517 
L 291.225498 -31.46268 
L 294.006492 -30.761843 
L 296.787487 -30.061006 
L 299.568482 -29.360169 
L 302.349477 -28.659332 
L 305.130472 -27.956109 
L 307.911466 -27.23206 
L 310.692461 -26.508011 
L 313.473456 -25.783962 
L 316.254451 -25.059913 
L 319.035446 -24.335864 
L 321.81644 -23.61258 
L 324.597435 -22.891027 
L 327.37843 -22.206293 
L 330.159425 -21.52156 
L 332.940419 -20.812337 
L 335.721414 -20.080881 
L 338.502409 -19.349426 
L 338.502409 -39.079218 
L 338.502409 -39.079218 
L 335.721414 -39.46719 
L 332.940419 -39.859111 
L 330.159425 -40.251755 
L 327.37843 -40.6444 
L 324.597435 -41.037044 
L 321.81644 -41.429688 
L 319.035446 -41.822332 
L 316.254451 -42.214976 
L 313.473456 -42.599531 
L 310.692461 -42.974041 
L 307.911466 -43.348551 
L 305.130472 -43.736448 
L 302.349477 -44.124285 
L 299.568482 -44.511891 
L 296.787487 -44.870689 
L 294.006492 -45.258589 
L 291.225498 -45.62773 
L 288.444503 -45.996253 
L 285.663508 -46.364775 
L 282.882513 -46.733298 
L 280.101518 -47.101821 
L 277.320524 -47.475563 
L 274.539529 -47.841096 
L 271.758534 -48.211438 
L 268.977539 -48.586093 
L 266.196544 -48.960749 
L 263.41555 -49.335246 
L 260.634555 -49.743381 
L 257.85356 -50.162762 
L 255.072565 -50.57204 
L 252.29157 -50.941714 
L 249.510576 -51.366968 
L 246.729581 -51.751019 
L 243.948586 -52.156701 
L 241.167591 -52.563174 
L 238.386596 -52.950366 
L 235.605602 -53.331026 
L 232.824607 -53.704691 
L 230.043612 -54.089603 
L 227.262617 -54.462767 
L 224.481622 -54.864626 
L 221.700628 -55.241364 
L 218.919633 -55.626764 
L 216.138638 -56.06626 
L 213.357643 -56.459781 
L 210.576648 -56.815122 
L 207.795654 -57.226974 
L 205.014659 -57.649677 
L 202.233664 -58.092106 
L 199.452669 -58.49273 
L 196.671674 -58.896588 
L 193.89068 -59.340295 
L 191.109685 -59.790524 
L 188.32869 -60.268004 
L 185.547695 -60.746556 
L 182.7667 -61.228088 
L 179.985706 -61.716308 
L 177.204711 -62.255286 
L 174.423716 -62.824701 
L 171.642721 -63.342111 
L 168.861727 -63.954635 
L 166.080732 -64.485049 
L 163.299737 -65.038718 
L 160.518742 -65.649642 
L 157.737747 -66.315796 
L 154.956753 -66.912029 
L 152.175758 -67.532493 
L 149.394763 -68.157934 
L 146.613768 -68.811021 
L 143.832773 -69.492219 
L 141.051779 -70.19852 
L 138.270784 -70.807857 
L 135.489789 -71.444239 
L 132.708794 -72.143318 
L 129.927799 -72.844763 
L 127.146805 -73.517521 
L 124.36581 -74.244634 
L 121.584815 -74.978272 
L 118.80382 -75.699045 
L 116.022825 -76.421772 
L 113.241831 -77.158942 
L 110.460836 -77.829205 
L 107.679841 -78.481149 
L 104.898846 -79.175782 
L 102.117851 -79.894496 
L 99.336857 -80.613211 
L 96.555862 -81.32238 
L 93.774867 -82.044354 
L 90.993872 -82.735915 
L 88.212877 -83.4617 
L 85.431883 -84.187485 
L 82.650888 -84.913269 
L 79.869893 -85.629197 
L 77.088898 -86.298841 
L 74.307903 -86.993146 
L 71.526909 -87.727669 
L 68.745914 -88.460946 
L 65.964919 -89.150139 
L 63.183924 -89.818471 
z
" id="m54aef5c513" style="stroke:#ffffff;stroke-opacity:0.15;stroke-width:0.8;"/>
    </defs>
    <g clip-path="url(#p56626235d6)">
     <use style="fill:#471365;fill-opacity:0.15;stroke:#ffffff;stroke-opacity:0.15;stroke-width:0.8;" x="0" xlink:href="#m54aef5c513" y="432"/>
    </g>
   </g>
   <g id="line2d_14">
    <path clip-path="url(#p56626235d6)" d="M 63.183924 349.738012 
L 65.964919 350.256704 
L 68.745914 350.775396 
L 71.526909 351.294087 
L 74.307903 351.812779 
L 77.088898 352.331471 
L 79.869893 352.850162 
L 82.650888 353.368854 
L 85.431883 353.887546 
L 88.212877 354.406237 
L 90.993872 354.924929 
L 93.774867 355.443621 
L 96.555862 355.962312 
L 99.336857 356.481004 
L 102.117851 356.999696 
L 104.898846 357.518387 
L 107.679841 358.037079 
L 110.460836 358.555771 
L 113.241831 359.074462 
L 116.022825 359.593154 
L 118.80382 360.111846 
L 121.584815 360.630537 
L 124.36581 361.149229 
L 127.146805 361.667921 
L 129.927799 362.186612 
L 132.708794 362.705304 
L 135.489789 363.223996 
L 138.270784 363.742687 
L 141.051779 364.261379 
L 143.832773 364.780071 
L 146.613768 365.298762 
L 149.394763 365.817454 
L 152.175758 366.336146 
L 154.956753 366.854837 
L 157.737747 367.373529 
L 160.518742 367.892221 
L 163.299737 368.410912 
L 166.080732 368.929604 
L 168.861727 369.448296 
L 171.642721 369.966987 
L 174.423716 370.485679 
L 177.204711 371.004371 
L 179.985706 371.523062 
L 182.7667 372.041754 
L 185.547695 372.560446 
L 188.32869 373.079137 
L 191.109685 373.597829 
L 193.89068 374.116521 
L 196.671674 374.635212 
L 199.452669 375.153904 
L 202.233664 375.672596 
L 205.014659 376.191287 
L 207.795654 376.709979 
L 210.576648 377.228671 
L 213.357643 377.747362 
L 216.138638 378.266054 
L 218.919633 378.784746 
L 221.700628 379.303437 
L 224.481622 379.822129 
L 227.262617 380.340821 
L 230.043612 380.859512 
L 232.824607 381.378204 
L 235.605602 381.896896 
L 238.386596 382.415587 
L 241.167591 382.934279 
L 243.948586 383.452971 
L 246.729581 383.971662 
L 249.510576 384.490354 
L 252.29157 385.009046 
L 255.072565 385.527738 
L 257.85356 386.046429 
L 260.634555 386.565121 
L 263.41555 387.083813 
L 266.196544 387.602504 
L 268.977539 388.121196 
L 271.758534 388.639888 
L 274.539529 389.158579 
L 277.320524 389.677271 
L 280.101518 390.195963 
L 282.882513 390.714654 
L 285.663508 391.233346 
L 288.444503 391.752038 
L 291.225498 392.270729 
L 294.006492 392.789421 
L 296.787487 393.308113 
L 299.568482 393.826804 
L 302.349477 394.345496 
L 305.130472 394.864188 
L 307.911466 395.382879 
L 310.692461 395.901571 
L 313.473456 396.420263 
L 316.254451 396.938954 
L 319.035446 397.457646 
L 321.81644 397.976338 
L 324.597435 398.495029 
L 327.37843 399.013721 
L 330.159425 399.532413 
L 332.940419 400.051104 
L 335.721414 400.569796 
L 338.502409 401.088488 
" style="fill:none;stroke:#471365;stroke-linecap:round;stroke-width:1.8;"/>
   </g>
   <g id="patch_3">
    <path d="M 49.418 390.332 
L 49.418 81.023333 
" style="fill:none;stroke:#262626;stroke-linecap:square;stroke-linejoin:miter;"/>
   </g>
   <g id="patch_4">
    <path d="M 49.418 390.332 
L 352.268333 390.332 
" style="fill:none;stroke:#262626;stroke-linecap:square;stroke-linejoin:miter;"/>
   </g>
   <g id="legend_1">
    <g id="patch_5">
     <path d="M 184.939083 100.980083 
L 346.108333 100.980083 
Q 347.868333 100.980083 347.868333 99.220083 
L 347.868333 87.183333 
Q 347.868333 85.423333 346.108333 85.423333 
L 184.939083 85.423333 
Q 183.179083 85.423333 183.179083 87.183333 
L 183.179083 99.220083 
Q 183.179083 100.980083 184.939083 100.980083 
z
" style="fill:#ffffff;opacity:0.8;stroke:#cccccc;stroke-linejoin:miter;stroke-width:0.8;"/>
    </g>
    <g id="line2d_15"/>
    <g id="line2d_16"/>
    <g id="text_16">
     <!-- pearsonr = -0.38; p = 9.6e-10 -->
     <defs>
      <path d="M 18.109375 8.203125 
L 18.109375 -20.796875 
L 9.078125 -20.796875 
L 9.078125 54.6875 
L 18.109375 54.6875 
L 18.109375 46.390625 
Q 20.953125 51.265625 25.265625 53.625 
Q 29.59375 56 35.59375 56 
Q 45.5625 56 51.78125 48.09375 
Q 58.015625 40.1875 58.015625 27.296875 
Q 58.015625 14.40625 51.78125 6.484375 
Q 45.5625 -1.421875 35.59375 -1.421875 
Q 29.59375 -1.421875 25.265625 0.953125 
Q 20.953125 3.328125 18.109375 8.203125 
z
M 48.6875 27.296875 
Q 48.6875 37.203125 44.609375 42.84375 
Q 40.53125 48.484375 33.40625 48.484375 
Q 26.265625 48.484375 22.1875 42.84375 
Q 18.109375 37.203125 18.109375 27.296875 
Q 18.109375 17.390625 22.1875 11.75 
Q 26.265625 6.109375 33.40625 6.109375 
Q 40.53125 6.109375 44.609375 11.75 
Q 48.6875 17.390625 48.6875 27.296875 
z
" id="DejaVuSans-70"/>
      <path d="M 44.28125 53.078125 
L 44.28125 44.578125 
Q 40.484375 46.53125 36.375 47.5 
Q 32.28125 48.484375 27.875 48.484375 
Q 21.1875 48.484375 17.84375 46.4375 
Q 14.5 44.390625 14.5 40.28125 
Q 14.5 37.15625 16.890625 35.375 
Q 19.28125 33.59375 26.515625 31.984375 
L 29.59375 31.296875 
Q 39.15625 29.25 43.1875 25.515625 
Q 47.21875 21.78125 47.21875 15.09375 
Q 47.21875 7.46875 41.1875 3.015625 
Q 35.15625 -1.421875 24.609375 -1.421875 
Q 20.21875 -1.421875 15.453125 -0.5625 
Q 10.6875 0.296875 5.421875 2 
L 5.421875 11.28125 
Q 10.40625 8.6875 15.234375 7.390625 
Q 20.0625 6.109375 24.8125 6.109375 
Q 31.15625 6.109375 34.5625 8.28125 
Q 37.984375 10.453125 37.984375 14.40625 
Q 37.984375 18.0625 35.515625 20.015625 
Q 33.0625 21.96875 24.703125 23.78125 
L 21.578125 24.515625 
Q 13.234375 26.265625 9.515625 29.90625 
Q 5.8125 33.546875 5.8125 39.890625 
Q 5.8125 47.609375 11.28125 51.796875 
Q 16.75 56 26.8125 56 
Q 31.78125 56 36.171875 55.265625 
Q 40.578125 54.546875 44.28125 53.078125 
z
" id="DejaVuSans-73"/>
      <path d="M 10.59375 45.40625 
L 73.1875 45.40625 
L 73.1875 37.203125 
L 10.59375 37.203125 
z
M 10.59375 25.484375 
L 73.1875 25.484375 
L 73.1875 17.1875 
L 10.59375 17.1875 
z
" id="DejaVuSans-3d"/>
      <path d="M 40.578125 39.3125 
Q 47.65625 37.796875 51.625 33 
Q 55.609375 28.21875 55.609375 21.1875 
Q 55.609375 10.40625 48.1875 4.484375 
Q 40.765625 -1.421875 27.09375 -1.421875 
Q 22.515625 -1.421875 17.65625 -0.515625 
Q 12.796875 0.390625 7.625 2.203125 
L 7.625 11.71875 
Q 11.71875 9.328125 16.59375 8.109375 
Q 21.484375 6.890625 26.8125 6.890625 
Q 36.078125 6.890625 40.9375 10.546875 
Q 45.796875 14.203125 45.796875 21.1875 
Q 45.796875 27.640625 41.28125 31.265625 
Q 36.765625 34.90625 28.71875 34.90625 
L 20.21875 34.90625 
L 20.21875 43.015625 
L 29.109375 43.015625 
Q 36.375 43.015625 40.234375 45.921875 
Q 44.09375 48.828125 44.09375 54.296875 
Q 44.09375 59.90625 40.109375 62.90625 
Q 36.140625 65.921875 28.71875 65.921875 
Q 24.65625 65.921875 20.015625 65.03125 
Q 15.375 64.15625 9.8125 62.3125 
L 9.8125 71.09375 
Q 15.4375 72.65625 20.34375 73.4375 
Q 25.25 74.21875 29.59375 74.21875 
Q 40.828125 74.21875 47.359375 69.109375 
Q 53.90625 64.015625 53.90625 55.328125 
Q 53.90625 49.265625 50.4375 45.09375 
Q 46.96875 40.921875 40.578125 39.3125 
z
" id="DejaVuSans-33"/>
      <path d="M 11.71875 51.703125 
L 22.015625 51.703125 
L 22.015625 39.3125 
L 11.71875 39.3125 
z
M 11.71875 12.40625 
L 22.015625 12.40625 
L 22.015625 4 
L 14.015625 -11.625 
L 7.71875 -11.625 
L 11.71875 4 
z
" id="DejaVuSans-3b"/>
      <path d="M 10.984375 1.515625 
L 10.984375 10.5 
Q 14.703125 8.734375 18.5 7.8125 
Q 22.3125 6.890625 25.984375 6.890625 
Q 35.75 6.890625 40.890625 13.453125 
Q 46.046875 20.015625 46.78125 33.40625 
Q 43.953125 29.203125 39.59375 26.953125 
Q 35.25 24.703125 29.984375 24.703125 
Q 19.046875 24.703125 12.671875 31.3125 
Q 6.296875 37.9375 6.296875 49.421875 
Q 6.296875 60.640625 12.9375 67.421875 
Q 19.578125 74.21875 30.609375 74.21875 
Q 43.265625 74.21875 49.921875 64.515625 
Q 56.59375 54.828125 56.59375 36.375 
Q 56.59375 19.140625 48.40625 8.859375 
Q 40.234375 -1.421875 26.421875 -1.421875 
Q 22.703125 -1.421875 18.890625 -0.6875 
Q 15.09375 0.046875 10.984375 1.515625 
z
M 30.609375 32.421875 
Q 37.25 32.421875 41.125 36.953125 
Q 45.015625 41.5 45.015625 49.421875 
Q 45.015625 57.28125 41.125 61.84375 
Q 37.25 66.40625 30.609375 66.40625 
Q 23.96875 66.40625 20.09375 61.84375 
Q 16.21875 57.28125 16.21875 49.421875 
Q 16.21875 41.5 20.09375 36.953125 
Q 23.96875 32.421875 30.609375 32.421875 
z
" id="DejaVuSans-39"/>
     </defs>
     <g style="fill:#262626;" transform="translate(211.339083 95.629958)scale(0.088 -0.088)">
      <use xlink:href="#DejaVuSans-70"/>
      <use x="63.476562" xlink:href="#DejaVuSans-65"/>
      <use x="125" xlink:href="#DejaVuSans-61"/>
      <use x="186.279297" xlink:href="#DejaVuSans-72"/>
      <use x="227.392578" xlink:href="#DejaVuSans-73"/>
      <use x="279.492188" xlink:href="#DejaVuSans-6f"/>
      <use x="340.673828" xlink:href="#DejaVuSans-6e"/>
      <use x="404.052734" xlink:href="#DejaVuSans-72"/>
      <use x="445.166016" xlink:href="#DejaVuSans-20"/>
      <use x="476.953125" xlink:href="#DejaVuSans-3d"/>
      <use x="560.742188" xlink:href="#DejaVuSans-20"/>
      <use x="592.529297" xlink:href="#DejaVuSans-2d"/>
      <use x="628.613281" xlink:href="#DejaVuSans-30"/>
      <use x="692.236328" xlink:href="#DejaVuSans-2e"/>
      <use x="724.023438" xlink:href="#DejaVuSans-33"/>
      <use x="787.646484" xlink:href="#DejaVuSans-38"/>
      <use x="851.269531" xlink:href="#DejaVuSans-3b"/>
      <use x="884.960938" xlink:href="#DejaVuSans-20"/>
      <use x="916.748047" xlink:href="#DejaVuSans-70"/>
      <use x="980.224609" xlink:href="#DejaVuSans-20"/>
      <use x="1012.011719" xlink:href="#DejaVuSans-3d"/>
      <use x="1095.800781" xlink:href="#DejaVuSans-20"/>
      <use x="1127.587891" xlink:href="#DejaVuSans-39"/>
      <use x="1191.210938" xlink:href="#DejaVuSans-2e"/>
      <use x="1222.998047" xlink:href="#DejaVuSans-36"/>
      <use x="1286.621094" xlink:href="#DejaVuSans-65"/>
      <use x="1348.144531" xlink:href="#DejaVuSans-2d"/>
      <use x="1384.228516" xlink:href="#DejaVuSans-31"/>
      <use x="1447.851562" xlink:href="#DejaVuSans-30"/>
     </g>
    </g>
   </g>
  </g>
  <g id="axes_2">
   <g id="patch_6">
    <path d="M 49.418 61.055333 
L 352.268333 61.055333 
L 352.268333 15.168 
L 49.418 15.168 
z
" style="fill:#ffffff;"/>
   </g>
   <g id="matplotlib.axis_3">
    <g id="xtick_8">
     <g id="line2d_17">
      <g>
       <use style="fill:#262626;stroke:#262626;" x="69.477496" xlink:href="#mf8cd074a67" y="61.055333"/>
      </g>
     </g>
    </g>
    <g id="xtick_9">
     <g id="line2d_18">
      <g>
       <use style="fill:#262626;stroke:#262626;" x="110.359419" xlink:href="#mf8cd074a67" y="61.055333"/>
      </g>
     </g>
    </g>
    <g id="xtick_10">
     <g id="line2d_19">
      <g>
       <use style="fill:#262626;stroke:#262626;" x="151.241342" xlink:href="#mf8cd074a67" y="61.055333"/>
      </g>
     </g>
    </g>
    <g id="xtick_11">
     <g id="line2d_20">
      <g>
       <use style="fill:#262626;stroke:#262626;" x="192.123265" xlink:href="#mf8cd074a67" y="61.055333"/>
      </g>
     </g>
    </g>
    <g id="xtick_12">
     <g id="line2d_21">
      <g>
       <use style="fill:#262626;stroke:#262626;" x="233.005188" xlink:href="#mf8cd074a67" y="61.055333"/>
      </g>
     </g>
    </g>
    <g id="xtick_13">
     <g id="line2d_22">
      <g>
       <use style="fill:#262626;stroke:#262626;" x="273.887111" xlink:href="#mf8cd074a67" y="61.055333"/>
      </g>
     </g>
    </g>
    <g id="xtick_14">
     <g id="line2d_23">
      <g>
       <use style="fill:#262626;stroke:#262626;" x="314.769034" xlink:href="#mf8cd074a67" y="61.055333"/>
      </g>
     </g>
    </g>
   </g>
   <g id="matplotlib.axis_4">
    <g id="ytick_7"/>
    <g id="ytick_8"/>
   </g>
   <g id="patch_7">
    <path clip-path="url(#p6e800b1a3e)" d="M 104.507757 61.055333 
L 116.549683 61.055333 
L 116.549683 57.487805 
L 104.507757 57.487805 
z
" style="fill:#471365;opacity:0.4;stroke:#ffffff;stroke-linejoin:miter;stroke-width:0.8;"/>
   </g>
   <g id="patch_8">
    <path clip-path="url(#p6e800b1a3e)" d="M 116.549683 61.055333 
L 128.591609 61.055333 
L 128.591609 23.596286 
L 116.549683 23.596286 
z
" style="fill:#471365;opacity:0.4;stroke:#ffffff;stroke-linejoin:miter;stroke-width:0.8;"/>
   </g>
   <g id="patch_9">
    <path clip-path="url(#p6e800b1a3e)" d="M 128.591609 61.055333 
L 140.633535 61.055333 
L 140.633535 17.353111 
L 128.591609 17.353111 
z
" style="fill:#471365;opacity:0.4;stroke:#ffffff;stroke-linejoin:miter;stroke-width:0.8;"/>
   </g>
   <g id="patch_10">
    <path clip-path="url(#p6e800b1a3e)" d="M 140.633535 61.055333 
L 152.675462 61.055333 
L 152.675462 27.163814 
L 140.633535 27.163814 
z
" style="fill:#471365;opacity:0.4;stroke:#ffffff;stroke-linejoin:miter;stroke-width:0.8;"/>
   </g>
   <g id="patch_11">
    <path clip-path="url(#p6e800b1a3e)" d="M 152.675462 61.055333 
L 164.717388 61.055333 
L 164.717388 34.298871 
L 152.675462 34.298871 
z
" style="fill:#471365;opacity:0.4;stroke:#ffffff;stroke-linejoin:miter;stroke-width:0.8;"/>
   </g>
   <g id="patch_12">
    <path clip-path="url(#p6e800b1a3e)" d="M 164.717388 61.055333 
L 176.759314 61.055333 
L 176.759314 36.974517 
L 164.717388 36.974517 
z
" style="fill:#471365;opacity:0.4;stroke:#ffffff;stroke-linejoin:miter;stroke-width:0.8;"/>
   </g>
   <g id="patch_13">
    <path clip-path="url(#p6e800b1a3e)" d="M 176.759314 61.055333 
L 188.80124 61.055333 
L 188.80124 41.433927 
L 176.759314 41.433927 
z
" style="fill:#471365;opacity:0.4;stroke:#ffffff;stroke-linejoin:miter;stroke-width:0.8;"/>
   </g>
   <g id="patch_14">
    <path clip-path="url(#p6e800b1a3e)" d="M 188.80124 61.055333 
L 200.843167 61.055333 
L 200.843167 53.920277 
L 188.80124 53.920277 
z
" style="fill:#471365;opacity:0.4;stroke:#ffffff;stroke-linejoin:miter;stroke-width:0.8;"/>
   </g>
   <g id="patch_15">
    <path clip-path="url(#p6e800b1a3e)" d="M 200.843167 61.055333 
L 212.885093 61.055333 
L 212.885093 51.24463 
L 200.843167 51.24463 
z
" style="fill:#471365;opacity:0.4;stroke:#ffffff;stroke-linejoin:miter;stroke-width:0.8;"/>
   </g>
   <g id="patch_16">
    <path clip-path="url(#p6e800b1a3e)" d="M 212.885093 61.055333 
L 224.927019 61.055333 
L 224.927019 59.271569 
L 212.885093 59.271569 
z
" style="fill:#471365;opacity:0.4;stroke:#ffffff;stroke-linejoin:miter;stroke-width:0.8;"/>
   </g>
   <g id="patch_17">
    <path clip-path="url(#p6e800b1a3e)" d="M 224.927019 61.055333 
L 236.968945 61.055333 
L 236.968945 59.271569 
L 224.927019 59.271569 
z
" style="fill:#471365;opacity:0.4;stroke:#ffffff;stroke-linejoin:miter;stroke-width:0.8;"/>
   </g>
   <g id="patch_18">
    <path clip-path="url(#p6e800b1a3e)" d="M 236.968945 61.055333 
L 249.010872 61.055333 
L 249.010872 59.271569 
L 236.968945 59.271569 
z
" style="fill:#471365;opacity:0.4;stroke:#ffffff;stroke-linejoin:miter;stroke-width:0.8;"/>
   </g>
   <g id="patch_19">
    <path clip-path="url(#p6e800b1a3e)" d="M 249.010872 61.055333 
L 261.052798 61.055333 
L 261.052798 61.055333 
L 249.010872 61.055333 
z
" style="fill:#471365;opacity:0.4;stroke:#ffffff;stroke-linejoin:miter;stroke-width:0.8;"/>
   </g>
   <g id="patch_20">
    <path clip-path="url(#p6e800b1a3e)" d="M 261.052798 61.055333 
L 273.094724 61.055333 
L 273.094724 61.055333 
L 261.052798 61.055333 
z
" style="fill:#471365;opacity:0.4;stroke:#ffffff;stroke-linejoin:miter;stroke-width:0.8;"/>
   </g>
   <g id="patch_21">
    <path clip-path="url(#p6e800b1a3e)" d="M 273.094724 61.055333 
L 285.136651 61.055333 
L 285.136651 61.055333 
L 273.094724 61.055333 
z
" style="fill:#471365;opacity:0.4;stroke:#ffffff;stroke-linejoin:miter;stroke-width:0.8;"/>
   </g>
   <g id="patch_22">
    <path clip-path="url(#p6e800b1a3e)" d="M 285.136651 61.055333 
L 297.178577 61.055333 
L 297.178577 60.163451 
L 285.136651 60.163451 
z
" style="fill:#471365;opacity:0.4;stroke:#ffffff;stroke-linejoin:miter;stroke-width:0.8;"/>
   </g>
   <g id="line2d_24">
    <path clip-path="url(#p6e800b1a3e)" d="M 75.698401 61.049692 
L 78.226578 61.042869 
L 80.754755 61.029258 
L 83.282932 61.003442 
L 85.811109 60.956575 
L 88.339286 60.874529 
L 90.867463 60.735093 
L 93.39564 60.50398 
L 95.923818 60.129922 
L 98.451995 59.540095 
L 100.980172 58.638481 
L 103.508349 57.310758 
L 106.036526 55.439009 
L 108.564703 52.927163 
L 111.09288 49.733763 
L 113.621057 45.903713 
L 116.149234 41.587539 
L 118.677411 37.037666 
L 121.205588 32.57718 
L 123.733765 28.545951 
L 126.261943 25.237989 
L 128.79012 22.848187 
L 131.318297 21.443781 
L 133.846474 20.966963 
L 136.374651 21.264484 
L 138.902828 22.132478 
L 141.431005 23.362717 
L 143.959182 24.779326 
L 146.487359 26.259837 
L 149.015536 27.739202 
L 151.543713 29.199193 
L 154.071891 30.648596 
L 156.600068 32.101454 
L 159.128245 33.560282 
L 161.656422 35.008468 
L 164.184599 36.412217 
L 166.712776 37.729465 
L 169.240953 38.922268 
L 171.76913 39.96952 
L 174.297307 40.876957 
L 176.825484 41.680899 
L 179.353661 42.442496 
L 181.881839 43.231907 
L 184.410016 44.106702 
L 186.938193 45.09305 
L 189.46637 46.17864 
L 191.994547 47.321261 
L 194.522724 48.469056 
L 197.050901 49.58221 
L 199.579078 50.645427 
L 202.107255 51.666109 
L 204.635432 52.661242 
L 207.163609 53.641562 
L 209.691786 54.601687 
L 212.219964 55.520292 
L 214.748141 56.368517 
L 217.276318 57.121043 
L 219.804495 57.764142 
L 222.332672 58.297708 
L 224.860849 58.731669 
L 227.389026 59.079714 
L 229.917203 59.353895 
L 232.44538 59.562649 
L 234.973557 59.71266 
L 237.501734 59.812848 
L 240.029912 59.877569 
L 242.558089 59.926612 
L 245.086266 59.981409 
L 247.614443 60.059116 
L 250.14262 60.167497 
L 252.670797 60.303139 
L 255.198974 60.453718 
L 257.727151 60.603045 
L 260.255328 60.736475 
L 262.783505 60.84457 
L 265.311682 60.924065 
L 267.839859 60.976561 
L 270.368037 61.006092 
L 272.896214 61.016777 
L 275.424391 61.011323 
L 277.952568 60.990697 
L 280.480745 60.954836 
L 283.008922 60.904099 
L 285.537099 60.840908 
L 288.065276 60.770911 
L 290.593453 60.703013 
L 293.12163 60.647951 
L 295.649807 60.615682 
L 298.177985 60.612495 
L 300.706162 60.639031 
L 303.234339 60.690076 
L 305.762516 60.756235 
L 308.290693 60.826744 
L 310.81887 60.892282 
L 313.347047 60.946786 
L 315.875224 60.98789 
L 318.403401 61.016224 
L 320.931578 61.034167 
L 323.459755 61.044642 
L 325.987933 61.050293 
" style="fill:none;stroke:#471365;stroke-linecap:round;stroke-width:1.2;"/>
   </g>
   <g id="patch_23">
    <path d="M 49.418 61.055333 
L 352.268333 61.055333 
" style="fill:none;stroke:#262626;stroke-linecap:square;stroke-linejoin:miter;"/>
   </g>
  </g>
  <g id="axes_3">
   <g id="patch_24">
    <path d="M 372.236333 390.332 
L 416.832 390.332 
L 416.832 81.023333 
L 372.236333 81.023333 
z
" style="fill:#ffffff;"/>
   </g>
   <g id="matplotlib.axis_5">
    <g id="xtick_15"/>
    <g id="xtick_16"/>
   </g>
   <g id="matplotlib.axis_6">
    <g id="ytick_9">
     <g id="line2d_25">
      <g>
       <use style="fill:#262626;stroke:#262626;" x="372.236333" xlink:href="#m4d012c3857" y="390.332"/>
      </g>
     </g>
    </g>
    <g id="ytick_10">
     <g id="line2d_26">
      <g>
       <use style="fill:#262626;stroke:#262626;" x="372.236333" xlink:href="#m4d012c3857" y="334.094061"/>
      </g>
     </g>
    </g>
    <g id="ytick_11">
     <g id="line2d_27">
      <g>
       <use style="fill:#262626;stroke:#262626;" x="372.236333" xlink:href="#m4d012c3857" y="277.856121"/>
      </g>
     </g>
    </g>
    <g id="ytick_12">
     <g id="line2d_28">
      <g>
       <use style="fill:#262626;stroke:#262626;" x="372.236333" xlink:href="#m4d012c3857" y="221.618182"/>
      </g>
     </g>
    </g>
    <g id="ytick_13">
     <g id="line2d_29">
      <g>
       <use style="fill:#262626;stroke:#262626;" x="372.236333" xlink:href="#m4d012c3857" y="165.380242"/>
      </g>
     </g>
    </g>
    <g id="ytick_14">
     <g id="line2d_30">
      <g>
       <use style="fill:#262626;stroke:#262626;" x="372.236333" xlink:href="#m4d012c3857" y="109.142303"/>
      </g>
     </g>
    </g>
   </g>
   <g id="patch_25">
    <path clip-path="url(#p83d7b19a8d)" d="M 372.236333 380.363247 
L 373.901904 380.363247 
L 373.901904 378.148705 
L 372.236333 378.148705 
z
" style="fill:#471365;opacity:0.4;stroke:#ffffff;stroke-linejoin:miter;stroke-width:0.8;"/>
   </g>
   <g id="patch_26">
    <path clip-path="url(#p83d7b19a8d)" d="M 372.236333 378.148705 
L 376.400261 378.148705 
L 376.400261 375.934163 
L 372.236333 375.934163 
z
" style="fill:#471365;opacity:0.4;stroke:#ffffff;stroke-linejoin:miter;stroke-width:0.8;"/>
   </g>
   <g id="patch_27">
    <path clip-path="url(#p83d7b19a8d)" d="M 372.236333 375.934163 
L 397.2199 375.934163 
L 397.2199 373.719621 
L 372.236333 373.719621 
z
" style="fill:#471365;opacity:0.4;stroke:#ffffff;stroke-linejoin:miter;stroke-width:0.8;"/>
   </g>
   <g id="patch_28">
    <path clip-path="url(#p83d7b19a8d)" d="M 372.236333 373.719621 
L 408.878898 373.719621 
L 408.878898 371.505079 
L 372.236333 371.505079 
z
" style="fill:#471365;opacity:0.4;stroke:#ffffff;stroke-linejoin:miter;stroke-width:0.8;"/>
   </g>
   <g id="patch_29">
    <path clip-path="url(#p83d7b19a8d)" d="M 372.236333 371.505079 
L 414.708397 371.505079 
L 414.708397 369.290536 
L 372.236333 369.290536 
z
" style="fill:#471365;opacity:0.4;stroke:#ffffff;stroke-linejoin:miter;stroke-width:0.8;"/>
   </g>
   <g id="patch_30">
    <path clip-path="url(#p83d7b19a8d)" d="M 372.236333 369.290536 
L 404.71497 369.290536 
L 404.71497 367.075994 
L 372.236333 367.075994 
z
" style="fill:#471365;opacity:0.4;stroke:#ffffff;stroke-linejoin:miter;stroke-width:0.8;"/>
   </g>
   <g id="patch_31">
    <path clip-path="url(#p83d7b19a8d)" d="M 372.236333 367.075994 
L 389.72483 367.075994 
L 389.72483 364.861452 
L 372.236333 364.861452 
z
" style="fill:#471365;opacity:0.4;stroke:#ffffff;stroke-linejoin:miter;stroke-width:0.8;"/>
   </g>
   <g id="patch_32">
    <path clip-path="url(#p83d7b19a8d)" d="M 372.236333 364.861452 
L 384.728117 364.861452 
L 384.728117 362.64691 
L 372.236333 362.64691 
z
" style="fill:#471365;opacity:0.4;stroke:#ffffff;stroke-linejoin:miter;stroke-width:0.8;"/>
   </g>
   <g id="patch_33">
    <path clip-path="url(#p83d7b19a8d)" d="M 372.236333 362.64691 
L 378.898618 362.64691 
L 378.898618 360.432368 
L 372.236333 360.432368 
z
" style="fill:#471365;opacity:0.4;stroke:#ffffff;stroke-linejoin:miter;stroke-width:0.8;"/>
   </g>
   <g id="patch_34">
    <path clip-path="url(#p83d7b19a8d)" d="M 372.236333 360.432368 
L 373.069119 360.432368 
L 373.069119 358.217825 
L 372.236333 358.217825 
z
" style="fill:#471365;opacity:0.4;stroke:#ffffff;stroke-linejoin:miter;stroke-width:0.8;"/>
   </g>
   <g id="patch_35">
    <path clip-path="url(#p83d7b19a8d)" d="M 372.236333 358.217825 
L 376.400261 358.217825 
L 376.400261 356.003283 
L 372.236333 356.003283 
z
" style="fill:#471365;opacity:0.4;stroke:#ffffff;stroke-linejoin:miter;stroke-width:0.8;"/>
   </g>
   <g id="patch_36">
    <path clip-path="url(#p83d7b19a8d)" d="M 372.236333 356.003283 
L 373.901904 356.003283 
L 373.901904 353.788741 
L 372.236333 353.788741 
z
" style="fill:#471365;opacity:0.4;stroke:#ffffff;stroke-linejoin:miter;stroke-width:0.8;"/>
   </g>
   <g id="patch_37">
    <path clip-path="url(#p83d7b19a8d)" d="M 372.236333 353.788741 
L 372.236333 353.788741 
L 372.236333 351.574199 
L 372.236333 351.574199 
z
" style="fill:#471365;opacity:0.4;stroke:#ffffff;stroke-linejoin:miter;stroke-width:0.8;"/>
   </g>
   <g id="patch_38">
    <path clip-path="url(#p83d7b19a8d)" d="M 372.236333 351.574199 
L 373.069119 351.574199 
L 373.069119 349.359657 
L 372.236333 349.359657 
z
" style="fill:#471365;opacity:0.4;stroke:#ffffff;stroke-linejoin:miter;stroke-width:0.8;"/>
   </g>
   <g id="patch_39">
    <path clip-path="url(#p83d7b19a8d)" d="M 372.236333 349.359657 
L 373.069119 349.359657 
L 373.069119 347.145114 
L 372.236333 347.145114 
z
" style="fill:#471365;opacity:0.4;stroke:#ffffff;stroke-linejoin:miter;stroke-width:0.8;"/>
   </g>
   <g id="patch_40">
    <path clip-path="url(#p83d7b19a8d)" d="M 372.236333 347.145114 
L 373.069119 347.145114 
L 373.069119 344.930572 
L 372.236333 344.930572 
z
" style="fill:#471365;opacity:0.4;stroke:#ffffff;stroke-linejoin:miter;stroke-width:0.8;"/>
   </g>
   <g id="patch_41">
    <path clip-path="url(#p83d7b19a8d)" d="M 372.236333 344.930572 
L 374.73469 344.930572 
L 374.73469 342.71603 
L 372.236333 342.71603 
z
" style="fill:#471365;opacity:0.4;stroke:#ffffff;stroke-linejoin:miter;stroke-width:0.8;"/>
   </g>
   <g id="patch_42">
    <path clip-path="url(#p83d7b19a8d)" d="M 372.236333 342.71603 
L 373.069119 342.71603 
L 373.069119 340.501488 
L 372.236333 340.501488 
z
" style="fill:#471365;opacity:0.4;stroke:#ffffff;stroke-linejoin:miter;stroke-width:0.8;"/>
   </g>
   <g id="patch_43">
    <path clip-path="url(#p83d7b19a8d)" d="M 372.236333 340.501488 
L 372.236333 340.501488 
L 372.236333 338.286946 
L 372.236333 338.286946 
z
" style="fill:#471365;opacity:0.4;stroke:#ffffff;stroke-linejoin:miter;stroke-width:0.8;"/>
   </g>
   <g id="patch_44">
    <path clip-path="url(#p83d7b19a8d)" d="M 372.236333 338.286946 
L 373.069119 338.286946 
L 373.069119 336.072403 
L 372.236333 336.072403 
z
" style="fill:#471365;opacity:0.4;stroke:#ffffff;stroke-linejoin:miter;stroke-width:0.8;"/>
   </g>
   <g id="patch_45">
    <path clip-path="url(#p83d7b19a8d)" d="M 372.236333 336.072403 
L 372.236333 336.072403 
L 372.236333 333.857861 
L 372.236333 333.857861 
z
" style="fill:#471365;opacity:0.4;stroke:#ffffff;stroke-linejoin:miter;stroke-width:0.8;"/>
   </g>
   <g id="patch_46">
    <path clip-path="url(#p83d7b19a8d)" d="M 372.236333 333.857861 
L 372.236333 333.857861 
L 372.236333 331.643319 
L 372.236333 331.643319 
z
" style="fill:#471365;opacity:0.4;stroke:#ffffff;stroke-linejoin:miter;stroke-width:0.8;"/>
   </g>
   <g id="patch_47">
    <path clip-path="url(#p83d7b19a8d)" d="M 372.236333 331.643319 
L 372.236333 331.643319 
L 372.236333 329.428777 
L 372.236333 329.428777 
z
" style="fill:#471365;opacity:0.4;stroke:#ffffff;stroke-linejoin:miter;stroke-width:0.8;"/>
   </g>
   <g id="patch_48">
    <path clip-path="url(#p83d7b19a8d)" d="M 372.236333 329.428777 
L 372.236333 329.428777 
L 372.236333 327.214235 
L 372.236333 327.214235 
z
" style="fill:#471365;opacity:0.4;stroke:#ffffff;stroke-linejoin:miter;stroke-width:0.8;"/>
   </g>
   <g id="patch_49">
    <path clip-path="url(#p83d7b19a8d)" d="M 372.236333 327.214235 
L 372.236333 327.214235 
L 372.236333 324.999692 
L 372.236333 324.999692 
z
" style="fill:#471365;opacity:0.4;stroke:#ffffff;stroke-linejoin:miter;stroke-width:0.8;"/>
   </g>
   <g id="patch_50">
    <path clip-path="url(#p83d7b19a8d)" d="M 372.236333 324.999692 
L 373.069119 324.999692 
L 373.069119 322.78515 
L 372.236333 322.78515 
z
" style="fill:#471365;opacity:0.4;stroke:#ffffff;stroke-linejoin:miter;stroke-width:0.8;"/>
   </g>
   <g id="patch_51">
    <path clip-path="url(#p83d7b19a8d)" d="M 372.236333 322.78515 
L 372.236333 322.78515 
L 372.236333 320.570608 
L 372.236333 320.570608 
z
" style="fill:#471365;opacity:0.4;stroke:#ffffff;stroke-linejoin:miter;stroke-width:0.8;"/>
   </g>
   <g id="patch_52">
    <path clip-path="url(#p83d7b19a8d)" d="M 372.236333 320.570608 
L 372.236333 320.570608 
L 372.236333 318.356066 
L 372.236333 318.356066 
z
" style="fill:#471365;opacity:0.4;stroke:#ffffff;stroke-linejoin:miter;stroke-width:0.8;"/>
   </g>
   <g id="patch_53">
    <path clip-path="url(#p83d7b19a8d)" d="M 372.236333 318.356066 
L 373.069119 318.356066 
L 373.069119 316.141524 
L 372.236333 316.141524 
z
" style="fill:#471365;opacity:0.4;stroke:#ffffff;stroke-linejoin:miter;stroke-width:0.8;"/>
   </g>
   <g id="patch_54">
    <path clip-path="url(#p83d7b19a8d)" d="M 372.236333 316.141524 
L 372.236333 316.141524 
L 372.236333 313.926981 
L 372.236333 313.926981 
z
" style="fill:#471365;opacity:0.4;stroke:#ffffff;stroke-linejoin:miter;stroke-width:0.8;"/>
   </g>
   <g id="patch_55">
    <path clip-path="url(#p83d7b19a8d)" d="M 372.236333 313.926981 
L 372.236333 313.926981 
L 372.236333 311.712439 
L 372.236333 311.712439 
z
" style="fill:#471365;opacity:0.4;stroke:#ffffff;stroke-linejoin:miter;stroke-width:0.8;"/>
   </g>
   <g id="patch_56">
    <path clip-path="url(#p83d7b19a8d)" d="M 372.236333 311.712439 
L 372.236333 311.712439 
L 372.236333 309.497897 
L 372.236333 309.497897 
z
" style="fill:#471365;opacity:0.4;stroke:#ffffff;stroke-linejoin:miter;stroke-width:0.8;"/>
   </g>
   <g id="patch_57">
    <path clip-path="url(#p83d7b19a8d)" d="M 372.236333 309.497897 
L 373.069119 309.497897 
L 373.069119 307.283355 
L 372.236333 307.283355 
z
" style="fill:#471365;opacity:0.4;stroke:#ffffff;stroke-linejoin:miter;stroke-width:0.8;"/>
   </g>
   <g id="patch_58">
    <path clip-path="url(#p83d7b19a8d)" d="M 372.236333 307.283355 
L 372.236333 307.283355 
L 372.236333 305.068813 
L 372.236333 305.068813 
z
" style="fill:#471365;opacity:0.4;stroke:#ffffff;stroke-linejoin:miter;stroke-width:0.8;"/>
   </g>
   <g id="patch_59">
    <path clip-path="url(#p83d7b19a8d)" d="M 372.236333 305.068813 
L 372.236333 305.068813 
L 372.236333 302.85427 
L 372.236333 302.85427 
z
" style="fill:#471365;opacity:0.4;stroke:#ffffff;stroke-linejoin:miter;stroke-width:0.8;"/>
   </g>
   <g id="patch_60">
    <path clip-path="url(#p83d7b19a8d)" d="M 372.236333 302.85427 
L 373.069119 302.85427 
L 373.069119 300.639728 
L 372.236333 300.639728 
z
" style="fill:#471365;opacity:0.4;stroke:#ffffff;stroke-linejoin:miter;stroke-width:0.8;"/>
   </g>
   <g id="patch_61">
    <path clip-path="url(#p83d7b19a8d)" d="M 372.236333 300.639728 
L 372.236333 300.639728 
L 372.236333 298.425186 
L 372.236333 298.425186 
z
" style="fill:#471365;opacity:0.4;stroke:#ffffff;stroke-linejoin:miter;stroke-width:0.8;"/>
   </g>
   <g id="patch_62">
    <path clip-path="url(#p83d7b19a8d)" d="M 372.236333 298.425186 
L 372.236333 298.425186 
L 372.236333 296.210644 
L 372.236333 296.210644 
z
" style="fill:#471365;opacity:0.4;stroke:#ffffff;stroke-linejoin:miter;stroke-width:0.8;"/>
   </g>
   <g id="patch_63">
    <path clip-path="url(#p83d7b19a8d)" d="M 372.236333 296.210644 
L 372.236333 296.210644 
L 372.236333 293.996102 
L 372.236333 293.996102 
z
" style="fill:#471365;opacity:0.4;stroke:#ffffff;stroke-linejoin:miter;stroke-width:0.8;"/>
   </g>
   <g id="patch_64">
    <path clip-path="url(#p83d7b19a8d)" d="M 372.236333 293.996102 
L 372.236333 293.996102 
L 372.236333 291.781559 
L 372.236333 291.781559 
z
" style="fill:#471365;opacity:0.4;stroke:#ffffff;stroke-linejoin:miter;stroke-width:0.8;"/>
   </g>
   <g id="patch_65">
    <path clip-path="url(#p83d7b19a8d)" d="M 372.236333 291.781559 
L 372.236333 291.781559 
L 372.236333 289.567017 
L 372.236333 289.567017 
z
" style="fill:#471365;opacity:0.4;stroke:#ffffff;stroke-linejoin:miter;stroke-width:0.8;"/>
   </g>
   <g id="patch_66">
    <path clip-path="url(#p83d7b19a8d)" d="M 372.236333 289.567017 
L 373.069119 289.567017 
L 373.069119 287.352475 
L 372.236333 287.352475 
z
" style="fill:#471365;opacity:0.4;stroke:#ffffff;stroke-linejoin:miter;stroke-width:0.8;"/>
   </g>
   <g id="patch_67">
    <path clip-path="url(#p83d7b19a8d)" d="M 372.236333 287.352475 
L 372.236333 287.352475 
L 372.236333 285.137933 
L 372.236333 285.137933 
z
" style="fill:#471365;opacity:0.4;stroke:#ffffff;stroke-linejoin:miter;stroke-width:0.8;"/>
   </g>
   <g id="patch_68">
    <path clip-path="url(#p83d7b19a8d)" d="M 372.236333 285.137933 
L 372.236333 285.137933 
L 372.236333 282.923391 
L 372.236333 282.923391 
z
" style="fill:#471365;opacity:0.4;stroke:#ffffff;stroke-linejoin:miter;stroke-width:0.8;"/>
   </g>
   <g id="patch_69">
    <path clip-path="url(#p83d7b19a8d)" d="M 372.236333 282.923391 
L 372.236333 282.923391 
L 372.236333 280.708848 
L 372.236333 280.708848 
z
" style="fill:#471365;opacity:0.4;stroke:#ffffff;stroke-linejoin:miter;stroke-width:0.8;"/>
   </g>
   <g id="patch_70">
    <path clip-path="url(#p83d7b19a8d)" d="M 372.236333 280.708848 
L 372.236333 280.708848 
L 372.236333 278.494306 
L 372.236333 278.494306 
z
" style="fill:#471365;opacity:0.4;stroke:#ffffff;stroke-linejoin:miter;stroke-width:0.8;"/>
   </g>
   <g id="patch_71">
    <path clip-path="url(#p83d7b19a8d)" d="M 372.236333 278.494306 
L 372.236333 278.494306 
L 372.236333 276.279764 
L 372.236333 276.279764 
z
" style="fill:#471365;opacity:0.4;stroke:#ffffff;stroke-linejoin:miter;stroke-width:0.8;"/>
   </g>
   <g id="patch_72">
    <path clip-path="url(#p83d7b19a8d)" d="M 372.236333 276.279764 
L 372.236333 276.279764 
L 372.236333 274.065222 
L 372.236333 274.065222 
z
" style="fill:#471365;opacity:0.4;stroke:#ffffff;stroke-linejoin:miter;stroke-width:0.8;"/>
   </g>
   <g id="patch_73">
    <path clip-path="url(#p83d7b19a8d)" d="M 372.236333 274.065222 
L 373.069119 274.065222 
L 373.069119 271.85068 
L 372.236333 271.85068 
z
" style="fill:#471365;opacity:0.4;stroke:#ffffff;stroke-linejoin:miter;stroke-width:0.8;"/>
   </g>
   <g id="patch_74">
    <path clip-path="url(#p83d7b19a8d)" d="M 372.236333 271.85068 
L 373.069119 271.85068 
L 373.069119 269.636137 
L 372.236333 269.636137 
z
" style="fill:#471365;opacity:0.4;stroke:#ffffff;stroke-linejoin:miter;stroke-width:0.8;"/>
   </g>
   <g id="line2d_31">
    <path clip-path="url(#p83d7b19a8d)" d="M 372.240669 394.383876 
L 372.248151 392.982175 
L 372.266562 391.580474 
L 372.309027 390.178774 
L 372.400868 388.777073 
L 372.586974 387.375372 
L 372.939762 385.973672 
L 373.56399 384.571971 
L 374.592329 383.17027 
L 376.165128 381.76857 
L 378.391563 380.366869 
L 381.297789 378.965168 
L 384.778066 377.563468 
L 388.570948 376.161767 
L 392.278976 374.760066 
L 395.436051 373.358366 
L 397.607344 371.956665 
L 398.491525 370.554964 
L 397.991884 369.153264 
L 396.233379 367.751563 
L 393.522269 366.349862 
L 390.264866 364.948162 
L 386.873767 363.546461 
L 383.689565 362.14476 
L 380.935814 360.74306 
L 378.711162 359.341359 
L 377.011139 357.939658 
L 375.766023 356.537958 
L 374.880382 355.136257 
L 374.263116 353.734556 
L 373.842566 352.332855 
L 373.567694 350.931155 
L 373.401088 349.529454 
L 373.310793 348.127753 
L 373.265915 346.726053 
L 373.237198 345.324352 
L 373.200745 343.922651 
L 373.141785 342.520951 
L 373.05611 341.11925 
L 372.94851 339.717549 
L 372.829211 338.315849 
L 372.710042 336.914148 
L 372.601678 335.512447 
L 372.512257 334.110747 
L 372.446886 332.709046 
L 372.407404 331.307345 
L 372.392228 329.905645 
L 372.396582 328.503944 
L 372.413478 327.102243 
L 372.4354 325.700543 
L 372.456097 324.298842 
L 372.47169 322.897141 
L 372.48072 321.495441 
L 372.483437 320.09374 
L 372.48105 318.692039 
L 372.475409 317.290339 
L 372.468933 315.888638 
L 372.464242 314.486937 
L 372.463321 313.085237 
L 372.46664 311.683536 
L 372.472911 310.281835 
L 372.479658 308.880135 
L 372.484153 307.478434 
L 372.484044 306.076733 
L 372.477527 304.675033 
L 372.463444 303.273332 
L 372.441739 301.871631 
L 372.41414 300.469931 
L 372.38448 299.06823 
L 372.358102 297.666529 
L 372.340367 296.264829 
L 372.334809 294.863128 
L 372.341712 293.461427 
L 372.3577 292.059727 
L 372.376584 290.658026 
L 372.391332 289.256325 
L 372.396525 287.854625 
L 372.390401 286.452924 
L 372.375598 285.051223 
L 372.358271 283.649523 
L 372.345992 282.247822 
L 372.345269 280.846121 
L 372.359547 279.444421 
L 372.388165 278.04272 
L 372.426425 276.641019 
L 372.46667 275.239319 
L 372.500147 273.837618 
L 372.519197 272.435917 
L 372.51922 271.034217 
L 372.499782 269.632516 
L 372.464532 268.230815 
L 372.419944 266.829115 
L 372.373351 265.427414 
L 372.331002 264.025713 
L 372.296785 262.624013 
L 372.27195 261.222312 
L 372.255664 259.820611 
L 372.245984 258.418911 
L 372.24076 257.01721 
L 372.238197 255.615509 
" style="fill:none;stroke:#471365;stroke-linecap:round;stroke-width:1.2;"/>
   </g>
   <g id="patch_75">
    <path d="M 372.236333 390.332 
L 372.236333 81.023333 
" style="fill:none;stroke:#262626;stroke-linecap:square;stroke-linejoin:miter;"/>
   </g>
  </g>
 </g>
 <defs>
  <clipPath id="p56626235d6">
   <rect height="309.308667" width="302.850333" x="49.418" y="81.023333"/>
  </clipPath>
  <clipPath id="p6e800b1a3e">
   <rect height="45.887333" width="302.850333" x="49.418" y="15.168"/>
  </clipPath>
  <clipPath id="p83d7b19a8d">
   <rect height="309.308667" width="44.595667" x="372.236333" y="81.023333"/>
  </clipPath>
 </defs>
</svg>
