<?xml version="1.0" encoding="utf-8" standalone="no"?>
<!DOCTYPE svg PUBLIC "-//W3C//DTD SVG 1.1//EN"
  "http://www.w3.org/Graphics/SVG/1.1/DTD/svg11.dtd">
<!-- Created with matplotlib (http://matplotlib.org/) -->
<svg height="432pt" version="1.1" viewBox="0 0 432 432" width="432pt" xmlns="http://www.w3.org/2000/svg" xmlns:xlink="http://www.w3.org/1999/xlink">
 <defs>
  <style type="text/css">
*{stroke-linecap:butt;stroke-linejoin:round;}
  </style>
 </defs>
 <g id="figure_1">
  <g id="patch_1">
   <path d="M 0 432 
L 432 432 
L 432 0 
L 0 0 
z
" style="fill:#ffffff;"/>
  </g>
  <g id="axes_1">
   <g id="patch_2">
    <path d="M 49.418 390.332 
L 352.268333 390.332 
L 352.268333 81.023333 
L 49.418 81.023333 
z
" style="fill:#ffffff;"/>
   </g>
   <g id="matplotlib.axis_1">
    <g id="xtick_1">
     <g id="line2d_1">
      <defs>
       <path d="M 0 0 
L 0 4.8 
" id="m6d21050c5c" style="stroke:#262626;"/>
      </defs>
      <g>
       <use style="fill:#262626;stroke:#262626;" x="53.688698" xlink:href="#m6d21050c5c" y="390.332"/>
      </g>
     </g>
     <g id="text_1">
      <!-- 0 -->
      <defs>
       <path d="M 31.78125 66.40625 
Q 24.171875 66.40625 20.328125 58.90625 
Q 16.5 51.421875 16.5 36.375 
Q 16.5 21.390625 20.328125 13.890625 
Q 24.171875 6.390625 31.78125 6.390625 
Q 39.453125 6.390625 43.28125 13.890625 
Q 47.125 21.390625 47.125 36.375 
Q 47.125 51.421875 43.28125 58.90625 
Q 39.453125 66.40625 31.78125 66.40625 
z
M 31.78125 74.21875 
Q 44.046875 74.21875 50.515625 64.515625 
Q 56.984375 54.828125 56.984375 36.375 
Q 56.984375 17.96875 50.515625 8.265625 
Q 44.046875 -1.421875 31.78125 -1.421875 
Q 19.53125 -1.421875 13.0625 8.265625 
Q 6.59375 17.96875 6.59375 36.375 
Q 6.59375 54.828125 13.0625 64.515625 
Q 19.53125 74.21875 31.78125 74.21875 
z
" id="DejaVuSans-30"/>
      </defs>
      <g style="fill:#262626;" transform="translate(50.889198 405.318625)scale(0.088 -0.088)">
       <use xlink:href="#DejaVuSans-30"/>
      </g>
     </g>
    </g>
    <g id="xtick_2">
     <g id="line2d_2">
      <g>
       <use style="fill:#262626;stroke:#262626;" x="108.723105" xlink:href="#m6d21050c5c" y="390.332"/>
      </g>
     </g>
     <g id="text_2">
      <!-- 2 -->
      <defs>
       <path d="M 19.1875 8.296875 
L 53.609375 8.296875 
L 53.609375 0 
L 7.328125 0 
L 7.328125 8.296875 
Q 12.9375 14.109375 22.625 23.890625 
Q 32.328125 33.6875 34.8125 36.53125 
Q 39.546875 41.84375 41.421875 45.53125 
Q 43.3125 49.21875 43.3125 52.78125 
Q 43.3125 58.59375 39.234375 62.25 
Q 35.15625 65.921875 28.609375 65.921875 
Q 23.96875 65.921875 18.8125 64.3125 
Q 13.671875 62.703125 7.8125 59.421875 
L 7.8125 69.390625 
Q 13.765625 71.78125 18.9375 73 
Q 24.125 74.21875 28.421875 74.21875 
Q 39.75 74.21875 46.484375 68.546875 
Q 53.21875 62.890625 53.21875 53.421875 
Q 53.21875 48.921875 51.53125 44.890625 
Q 49.859375 40.875 45.40625 35.40625 
Q 44.1875 33.984375 37.640625 27.21875 
Q 31.109375 20.453125 19.1875 8.296875 
z
" id="DejaVuSans-32"/>
      </defs>
      <g style="fill:#262626;" transform="translate(105.923605 405.318625)scale(0.088 -0.088)">
       <use xlink:href="#DejaVuSans-32"/>
      </g>
     </g>
    </g>
    <g id="xtick_3">
     <g id="line2d_3">
      <g>
       <use style="fill:#262626;stroke:#262626;" x="163.757512" xlink:href="#m6d21050c5c" y="390.332"/>
      </g>
     </g>
     <g id="text_3">
      <!-- 4 -->
      <defs>
       <path d="M 37.796875 64.3125 
L 12.890625 25.390625 
L 37.796875 25.390625 
z
M 35.203125 72.90625 
L 47.609375 72.90625 
L 47.609375 25.390625 
L 58.015625 25.390625 
L 58.015625 17.1875 
L 47.609375 17.1875 
L 47.609375 0 
L 37.796875 0 
L 37.796875 17.1875 
L 4.890625 17.1875 
L 4.890625 26.703125 
z
" id="DejaVuSans-34"/>
      </defs>
      <g style="fill:#262626;" transform="translate(160.958012 405.318625)scale(0.088 -0.088)">
       <use xlink:href="#DejaVuSans-34"/>
      </g>
     </g>
    </g>
    <g id="xtick_4">
     <g id="line2d_4">
      <g>
       <use style="fill:#262626;stroke:#262626;" x="218.79192" xlink:href="#m6d21050c5c" y="390.332"/>
      </g>
     </g>
     <g id="text_4">
      <!-- 6 -->
      <defs>
       <path d="M 33.015625 40.375 
Q 26.375 40.375 22.484375 35.828125 
Q 18.609375 31.296875 18.609375 23.390625 
Q 18.609375 15.53125 22.484375 10.953125 
Q 26.375 6.390625 33.015625 6.390625 
Q 39.65625 6.390625 43.53125 10.953125 
Q 47.40625 15.53125 47.40625 23.390625 
Q 47.40625 31.296875 43.53125 35.828125 
Q 39.65625 40.375 33.015625 40.375 
z
M 52.59375 71.296875 
L 52.59375 62.3125 
Q 48.875 64.0625 45.09375 64.984375 
Q 41.3125 65.921875 37.59375 65.921875 
Q 27.828125 65.921875 22.671875 59.328125 
Q 17.53125 52.734375 16.796875 39.40625 
Q 19.671875 43.65625 24.015625 45.921875 
Q 28.375 48.1875 33.59375 48.1875 
Q 44.578125 48.1875 50.953125 41.515625 
Q 57.328125 34.859375 57.328125 23.390625 
Q 57.328125 12.15625 50.6875 5.359375 
Q 44.046875 -1.421875 33.015625 -1.421875 
Q 20.359375 -1.421875 13.671875 8.265625 
Q 6.984375 17.96875 6.984375 36.375 
Q 6.984375 53.65625 15.1875 63.9375 
Q 23.390625 74.21875 37.203125 74.21875 
Q 40.921875 74.21875 44.703125 73.484375 
Q 48.484375 72.75 52.59375 71.296875 
z
" id="DejaVuSans-36"/>
      </defs>
      <g style="fill:#262626;" transform="translate(215.99242 405.318625)scale(0.088 -0.088)">
       <use xlink:href="#DejaVuSans-36"/>
      </g>
     </g>
    </g>
    <g id="xtick_5">
     <g id="line2d_5">
      <g>
       <use style="fill:#262626;stroke:#262626;" x="273.826327" xlink:href="#m6d21050c5c" y="390.332"/>
      </g>
     </g>
     <g id="text_5">
      <!-- 8 -->
      <defs>
       <path d="M 31.78125 34.625 
Q 24.75 34.625 20.71875 30.859375 
Q 16.703125 27.09375 16.703125 20.515625 
Q 16.703125 13.921875 20.71875 10.15625 
Q 24.75 6.390625 31.78125 6.390625 
Q 38.8125 6.390625 42.859375 10.171875 
Q 46.921875 13.96875 46.921875 20.515625 
Q 46.921875 27.09375 42.890625 30.859375 
Q 38.875 34.625 31.78125 34.625 
z
M 21.921875 38.8125 
Q 15.578125 40.375 12.03125 44.71875 
Q 8.5 49.078125 8.5 55.328125 
Q 8.5 64.0625 14.71875 69.140625 
Q 20.953125 74.21875 31.78125 74.21875 
Q 42.671875 74.21875 48.875 69.140625 
Q 55.078125 64.0625 55.078125 55.328125 
Q 55.078125 49.078125 51.53125 44.71875 
Q 48 40.375 41.703125 38.8125 
Q 48.828125 37.15625 52.796875 32.3125 
Q 56.78125 27.484375 56.78125 20.515625 
Q 56.78125 9.90625 50.3125 4.234375 
Q 43.84375 -1.421875 31.78125 -1.421875 
Q 19.734375 -1.421875 13.25 4.234375 
Q 6.78125 9.90625 6.78125 20.515625 
Q 6.78125 27.484375 10.78125 32.3125 
Q 14.796875 37.15625 21.921875 38.8125 
z
M 18.3125 54.390625 
Q 18.3125 48.734375 21.84375 45.5625 
Q 25.390625 42.390625 31.78125 42.390625 
Q 38.140625 42.390625 41.71875 45.5625 
Q 45.3125 48.734375 45.3125 54.390625 
Q 45.3125 60.0625 41.71875 63.234375 
Q 38.140625 66.40625 31.78125 66.40625 
Q 25.390625 66.40625 21.84375 63.234375 
Q 18.3125 60.0625 18.3125 54.390625 
z
" id="DejaVuSans-38"/>
      </defs>
      <g style="fill:#262626;" transform="translate(271.026827 405.318625)scale(0.088 -0.088)">
       <use xlink:href="#DejaVuSans-38"/>
      </g>
     </g>
    </g>
    <g id="xtick_6">
     <g id="line2d_6">
      <g>
       <use style="fill:#262626;stroke:#262626;" x="328.860734" xlink:href="#m6d21050c5c" y="390.332"/>
      </g>
     </g>
     <g id="text_6">
      <!-- 10 -->
      <defs>
       <path d="M 12.40625 8.296875 
L 28.515625 8.296875 
L 28.515625 63.921875 
L 10.984375 60.40625 
L 10.984375 69.390625 
L 28.421875 72.90625 
L 38.28125 72.90625 
L 38.28125 8.296875 
L 54.390625 8.296875 
L 54.390625 0 
L 12.40625 0 
z
" id="DejaVuSans-31"/>
      </defs>
      <g style="fill:#262626;" transform="translate(323.261734 405.318625)scale(0.088 -0.088)">
       <use xlink:href="#DejaVuSans-31"/>
       <use x="63.623047" xlink:href="#DejaVuSans-30"/>
      </g>
     </g>
    </g>
    <g id="text_7">
     <!-- g(k-1) -->
     <defs>
      <path d="M 45.40625 27.984375 
Q 45.40625 37.75 41.375 43.109375 
Q 37.359375 48.484375 30.078125 48.484375 
Q 22.859375 48.484375 18.828125 43.109375 
Q 14.796875 37.75 14.796875 27.984375 
Q 14.796875 18.265625 18.828125 12.890625 
Q 22.859375 7.515625 30.078125 7.515625 
Q 37.359375 7.515625 41.375 12.890625 
Q 45.40625 18.265625 45.40625 27.984375 
z
M 54.390625 6.78125 
Q 54.390625 -7.171875 48.1875 -13.984375 
Q 42 -20.796875 29.203125 -20.796875 
Q 24.46875 -20.796875 20.265625 -20.09375 
Q 16.0625 -19.390625 12.109375 -17.921875 
L 12.109375 -9.1875 
Q 16.0625 -11.328125 19.921875 -12.34375 
Q 23.78125 -13.375 27.78125 -13.375 
Q 36.625 -13.375 41.015625 -8.765625 
Q 45.40625 -4.15625 45.40625 5.171875 
L 45.40625 9.625 
Q 42.625 4.78125 38.28125 2.390625 
Q 33.9375 0 27.875 0 
Q 17.828125 0 11.671875 7.65625 
Q 5.515625 15.328125 5.515625 27.984375 
Q 5.515625 40.671875 11.671875 48.328125 
Q 17.828125 56 27.875 56 
Q 33.9375 56 38.28125 53.609375 
Q 42.625 51.21875 45.40625 46.390625 
L 45.40625 54.6875 
L 54.390625 54.6875 
z
" id="DejaVuSans-67"/>
      <path d="M 31 75.875 
Q 24.46875 64.65625 21.28125 53.65625 
Q 18.109375 42.671875 18.109375 31.390625 
Q 18.109375 20.125 21.3125 9.0625 
Q 24.515625 -2 31 -13.1875 
L 23.1875 -13.1875 
Q 15.875 -1.703125 12.234375 9.375 
Q 8.59375 20.453125 8.59375 31.390625 
Q 8.59375 42.28125 12.203125 53.3125 
Q 15.828125 64.359375 23.1875 75.875 
z
" id="DejaVuSans-28"/>
      <path d="M 9.078125 75.984375 
L 18.109375 75.984375 
L 18.109375 31.109375 
L 44.921875 54.6875 
L 56.390625 54.6875 
L 27.390625 29.109375 
L 57.625 0 
L 45.90625 0 
L 18.109375 26.703125 
L 18.109375 0 
L 9.078125 0 
z
" id="DejaVuSans-6b"/>
      <path d="M 4.890625 31.390625 
L 31.203125 31.390625 
L 31.203125 23.390625 
L 4.890625 23.390625 
z
" id="DejaVuSans-2d"/>
      <path d="M 8.015625 75.875 
L 15.828125 75.875 
Q 23.140625 64.359375 26.78125 53.3125 
Q 30.421875 42.28125 30.421875 31.390625 
Q 30.421875 20.453125 26.78125 9.375 
Q 23.140625 -1.703125 15.828125 -13.1875 
L 8.015625 -13.1875 
Q 14.5 -2 17.703125 9.0625 
Q 20.90625 20.125 20.90625 31.390625 
Q 20.90625 42.671875 17.703125 53.65625 
Q 14.5 64.65625 8.015625 75.875 
z
" id="DejaVuSans-29"/>
     </defs>
     <g style="fill:#262626;" transform="translate(186.485167 418.44325)scale(0.096 -0.096)">
      <use xlink:href="#DejaVuSans-67"/>
      <use x="63.476562" xlink:href="#DejaVuSans-28"/>
      <use x="102.490234" xlink:href="#DejaVuSans-6b"/>
      <use x="160.400391" xlink:href="#DejaVuSans-2d"/>
      <use x="196.484375" xlink:href="#DejaVuSans-31"/>
      <use x="260.107422" xlink:href="#DejaVuSans-29"/>
     </g>
    </g>
   </g>
   <g id="matplotlib.axis_2">
    <g id="ytick_1">
     <g id="line2d_7">
      <defs>
       <path d="M 0 0 
L -4.8 0 
" id="m36be4af5a3" style="stroke:#262626;"/>
      </defs>
      <g>
       <use style="fill:#262626;stroke:#262626;" x="49.418" xlink:href="#m36be4af5a3" y="390.332"/>
      </g>
     </g>
     <g id="text_8">
      <!-- 0 -->
      <g style="fill:#262626;" transform="translate(35.519 393.675313)scale(0.088 -0.088)">
       <use xlink:href="#DejaVuSans-30"/>
      </g>
     </g>
    </g>
    <g id="ytick_2">
     <g id="line2d_8">
      <g>
       <use style="fill:#262626;stroke:#262626;" x="49.418" xlink:href="#m36be4af5a3" y="334.094061"/>
      </g>
     </g>
     <g id="text_9">
      <!-- 20 -->
      <g style="fill:#262626;" transform="translate(29.92 337.437373)scale(0.088 -0.088)">
       <use xlink:href="#DejaVuSans-32"/>
       <use x="63.623047" xlink:href="#DejaVuSans-30"/>
      </g>
     </g>
    </g>
    <g id="ytick_3">
     <g id="line2d_9">
      <g>
       <use style="fill:#262626;stroke:#262626;" x="49.418" xlink:href="#m36be4af5a3" y="277.856121"/>
      </g>
     </g>
     <g id="text_10">
      <!-- 40 -->
      <g style="fill:#262626;" transform="translate(29.92 281.199434)scale(0.088 -0.088)">
       <use xlink:href="#DejaVuSans-34"/>
       <use x="63.623047" xlink:href="#DejaVuSans-30"/>
      </g>
     </g>
    </g>
    <g id="ytick_4">
     <g id="line2d_10">
      <g>
       <use style="fill:#262626;stroke:#262626;" x="49.418" xlink:href="#m36be4af5a3" y="221.618182"/>
      </g>
     </g>
     <g id="text_11">
      <!-- 60 -->
      <g style="fill:#262626;" transform="translate(29.92 224.961494)scale(0.088 -0.088)">
       <use xlink:href="#DejaVuSans-36"/>
       <use x="63.623047" xlink:href="#DejaVuSans-30"/>
      </g>
     </g>
    </g>
    <g id="ytick_5">
     <g id="line2d_11">
      <g>
       <use style="fill:#262626;stroke:#262626;" x="49.418" xlink:href="#m36be4af5a3" y="165.380242"/>
      </g>
     </g>
     <g id="text_12">
      <!-- 80 -->
      <g style="fill:#262626;" transform="translate(29.92 168.723555)scale(0.088 -0.088)">
       <use xlink:href="#DejaVuSans-38"/>
       <use x="63.623047" xlink:href="#DejaVuSans-30"/>
      </g>
     </g>
    </g>
    <g id="ytick_6">
     <g id="line2d_12">
      <g>
       <use style="fill:#262626;stroke:#262626;" x="49.418" xlink:href="#m36be4af5a3" y="109.142303"/>
      </g>
     </g>
     <g id="text_13">
      <!-- 100 -->
      <g style="fill:#262626;" transform="translate(24.321 112.485616)scale(0.088 -0.088)">
       <use xlink:href="#DejaVuSans-31"/>
       <use x="63.623047" xlink:href="#DejaVuSans-30"/>
       <use x="127.246094" xlink:href="#DejaVuSans-30"/>
      </g>
     </g>
    </g>
    <g id="text_14">
     <!-- Time to cancer -->
     <defs>
      <path d="M -0.296875 72.90625 
L 61.375 72.90625 
L 61.375 64.59375 
L 35.5 64.59375 
L 35.5 0 
L 25.59375 0 
L 25.59375 64.59375 
L -0.296875 64.59375 
z
" id="DejaVuSans-54"/>
      <path d="M 9.421875 54.6875 
L 18.40625 54.6875 
L 18.40625 0 
L 9.421875 0 
z
M 9.421875 75.984375 
L 18.40625 75.984375 
L 18.40625 64.59375 
L 9.421875 64.59375 
z
" id="DejaVuSans-69"/>
      <path d="M 52 44.1875 
Q 55.375 50.25 60.0625 53.125 
Q 64.75 56 71.09375 56 
Q 79.640625 56 84.28125 50.015625 
Q 88.921875 44.046875 88.921875 33.015625 
L 88.921875 0 
L 79.890625 0 
L 79.890625 32.71875 
Q 79.890625 40.578125 77.09375 44.375 
Q 74.3125 48.1875 68.609375 48.1875 
Q 61.625 48.1875 57.5625 43.546875 
Q 53.515625 38.921875 53.515625 30.90625 
L 53.515625 0 
L 44.484375 0 
L 44.484375 32.71875 
Q 44.484375 40.625 41.703125 44.40625 
Q 38.921875 48.1875 33.109375 48.1875 
Q 26.21875 48.1875 22.15625 43.53125 
Q 18.109375 38.875 18.109375 30.90625 
L 18.109375 0 
L 9.078125 0 
L 9.078125 54.6875 
L 18.109375 54.6875 
L 18.109375 46.1875 
Q 21.1875 51.21875 25.484375 53.609375 
Q 29.78125 56 35.6875 56 
Q 41.65625 56 45.828125 52.96875 
Q 50 49.953125 52 44.1875 
z
" id="DejaVuSans-6d"/>
      <path d="M 56.203125 29.59375 
L 56.203125 25.203125 
L 14.890625 25.203125 
Q 15.484375 15.921875 20.484375 11.0625 
Q 25.484375 6.203125 34.421875 6.203125 
Q 39.59375 6.203125 44.453125 7.46875 
Q 49.3125 8.734375 54.109375 11.28125 
L 54.109375 2.78125 
Q 49.265625 0.734375 44.1875 -0.34375 
Q 39.109375 -1.421875 33.890625 -1.421875 
Q 20.796875 -1.421875 13.15625 6.1875 
Q 5.515625 13.8125 5.515625 26.8125 
Q 5.515625 40.234375 12.765625 48.109375 
Q 20.015625 56 32.328125 56 
Q 43.359375 56 49.78125 48.890625 
Q 56.203125 41.796875 56.203125 29.59375 
z
M 47.21875 32.234375 
Q 47.125 39.59375 43.09375 43.984375 
Q 39.0625 48.390625 32.421875 48.390625 
Q 24.90625 48.390625 20.390625 44.140625 
Q 15.875 39.890625 15.1875 32.171875 
z
" id="DejaVuSans-65"/>
      <path id="DejaVuSans-20"/>
      <path d="M 18.3125 70.21875 
L 18.3125 54.6875 
L 36.8125 54.6875 
L 36.8125 47.703125 
L 18.3125 47.703125 
L 18.3125 18.015625 
Q 18.3125 11.328125 20.140625 9.421875 
Q 21.96875 7.515625 27.59375 7.515625 
L 36.8125 7.515625 
L 36.8125 0 
L 27.59375 0 
Q 17.1875 0 13.234375 3.875 
Q 9.28125 7.765625 9.28125 18.015625 
L 9.28125 47.703125 
L 2.6875 47.703125 
L 2.6875 54.6875 
L 9.28125 54.6875 
L 9.28125 70.21875 
z
" id="DejaVuSans-74"/>
      <path d="M 30.609375 48.390625 
Q 23.390625 48.390625 19.1875 42.75 
Q 14.984375 37.109375 14.984375 27.296875 
Q 14.984375 17.484375 19.15625 11.84375 
Q 23.34375 6.203125 30.609375 6.203125 
Q 37.796875 6.203125 41.984375 11.859375 
Q 46.1875 17.53125 46.1875 27.296875 
Q 46.1875 37.015625 41.984375 42.703125 
Q 37.796875 48.390625 30.609375 48.390625 
z
M 30.609375 56 
Q 42.328125 56 49.015625 48.375 
Q 55.71875 40.765625 55.71875 27.296875 
Q 55.71875 13.875 49.015625 6.21875 
Q 42.328125 -1.421875 30.609375 -1.421875 
Q 18.84375 -1.421875 12.171875 6.21875 
Q 5.515625 13.875 5.515625 27.296875 
Q 5.515625 40.765625 12.171875 48.375 
Q 18.84375 56 30.609375 56 
z
" id="DejaVuSans-6f"/>
      <path d="M 48.78125 52.59375 
L 48.78125 44.1875 
Q 44.96875 46.296875 41.140625 47.34375 
Q 37.3125 48.390625 33.40625 48.390625 
Q 24.65625 48.390625 19.8125 42.84375 
Q 14.984375 37.3125 14.984375 27.296875 
Q 14.984375 17.28125 19.8125 11.734375 
Q 24.65625 6.203125 33.40625 6.203125 
Q 37.3125 6.203125 41.140625 7.25 
Q 44.96875 8.296875 48.78125 10.40625 
L 48.78125 2.09375 
Q 45.015625 0.34375 40.984375 -0.53125 
Q 36.96875 -1.421875 32.421875 -1.421875 
Q 20.0625 -1.421875 12.78125 6.34375 
Q 5.515625 14.109375 5.515625 27.296875 
Q 5.515625 40.671875 12.859375 48.328125 
Q 20.21875 56 33.015625 56 
Q 37.15625 56 41.109375 55.140625 
Q 45.0625 54.296875 48.78125 52.59375 
z
" id="DejaVuSans-63"/>
      <path d="M 34.28125 27.484375 
Q 23.390625 27.484375 19.1875 25 
Q 14.984375 22.515625 14.984375 16.5 
Q 14.984375 11.71875 18.140625 8.90625 
Q 21.296875 6.109375 26.703125 6.109375 
Q 34.1875 6.109375 38.703125 11.40625 
Q 43.21875 16.703125 43.21875 25.484375 
L 43.21875 27.484375 
z
M 52.203125 31.203125 
L 52.203125 0 
L 43.21875 0 
L 43.21875 8.296875 
Q 40.140625 3.328125 35.546875 0.953125 
Q 30.953125 -1.421875 24.3125 -1.421875 
Q 15.921875 -1.421875 10.953125 3.296875 
Q 6 8.015625 6 15.921875 
Q 6 25.140625 12.171875 29.828125 
Q 18.359375 34.515625 30.609375 34.515625 
L 43.21875 34.515625 
L 43.21875 35.40625 
Q 43.21875 41.609375 39.140625 45 
Q 35.0625 48.390625 27.6875 48.390625 
Q 23 48.390625 18.546875 47.265625 
Q 14.109375 46.140625 10.015625 43.890625 
L 10.015625 52.203125 
Q 14.9375 54.109375 19.578125 55.046875 
Q 24.21875 56 28.609375 56 
Q 40.484375 56 46.34375 49.84375 
Q 52.203125 43.703125 52.203125 31.203125 
z
" id="DejaVuSans-61"/>
      <path d="M 54.890625 33.015625 
L 54.890625 0 
L 45.90625 0 
L 45.90625 32.71875 
Q 45.90625 40.484375 42.875 44.328125 
Q 39.84375 48.1875 33.796875 48.1875 
Q 26.515625 48.1875 22.3125 43.546875 
Q 18.109375 38.921875 18.109375 30.90625 
L 18.109375 0 
L 9.078125 0 
L 9.078125 54.6875 
L 18.109375 54.6875 
L 18.109375 46.1875 
Q 21.34375 51.125 25.703125 53.5625 
Q 30.078125 56 35.796875 56 
Q 45.21875 56 50.046875 50.171875 
Q 54.890625 44.34375 54.890625 33.015625 
z
" id="DejaVuSans-6e"/>
      <path d="M 41.109375 46.296875 
Q 39.59375 47.171875 37.8125 47.578125 
Q 36.03125 48 33.890625 48 
Q 26.265625 48 22.1875 43.046875 
Q 18.109375 38.09375 18.109375 28.8125 
L 18.109375 0 
L 9.078125 0 
L 9.078125 54.6875 
L 18.109375 54.6875 
L 18.109375 46.1875 
Q 20.953125 51.171875 25.484375 53.578125 
Q 30.03125 56 36.53125 56 
Q 37.453125 56 38.578125 55.875 
Q 39.703125 55.765625 41.0625 55.515625 
z
" id="DejaVuSans-72"/>
     </defs>
     <g style="fill:#262626;" transform="translate(18.3245 271.628167)rotate(-90)scale(0.096 -0.096)">
      <use xlink:href="#DejaVuSans-54"/>
      <use x="61.037109" xlink:href="#DejaVuSans-69"/>
      <use x="88.820312" xlink:href="#DejaVuSans-6d"/>
      <use x="186.232422" xlink:href="#DejaVuSans-65"/>
      <use x="247.755859" xlink:href="#DejaVuSans-20"/>
      <use x="279.542969" xlink:href="#DejaVuSans-74"/>
      <use x="318.751953" xlink:href="#DejaVuSans-6f"/>
      <use x="379.933594" xlink:href="#DejaVuSans-20"/>
      <use x="411.720703" xlink:href="#DejaVuSans-63"/>
      <use x="466.701172" xlink:href="#DejaVuSans-61"/>
      <use x="527.980469" xlink:href="#DejaVuSans-6e"/>
      <use x="591.359375" xlink:href="#DejaVuSans-63"/>
      <use x="646.339844" xlink:href="#DejaVuSans-65"/>
      <use x="707.863281" xlink:href="#DejaVuSans-72"/>
     </g>
    </g>
   </g>
   <g id="PathCollection_1">
    <defs>
     <path d="M 0 2.4 
C 0.636487 2.4 1.246992 2.147121 1.697056 1.697056 
C 2.147121 1.246992 2.4 0.636487 2.4 0 
C 2.4 -0.636487 2.147121 -1.246992 1.697056 -1.697056 
C 1.246992 -2.147121 0.636487 -2.4 0 -2.4 
C -0.636487 -2.4 -1.246992 -2.147121 -1.697056 -1.697056 
C -2.147121 -1.246992 -2.4 -0.636487 -2.4 0 
C -2.4 0.636487 -2.147121 1.246992 -1.697056 1.697056 
C -1.246992 2.147121 -0.636487 2.4 0 2.4 
z
" id="m83f2243c8d" style="stroke:#471365;stroke-opacity:0.8;"/>
    </defs>
    <g clip-path="url(#p8ea7467650)">
     <use style="fill:#471365;fill-opacity:0.8;stroke:#471365;stroke-opacity:0.8;" x="141.473598" xlink:href="#m83f2243c8d" y="216.988182"/>
     <use style="fill:#471365;fill-opacity:0.8;stroke:#471365;stroke-opacity:0.8;" x="258.061311" xlink:href="#m83f2243c8d" y="214.962075"/>
     <use style="fill:#471365;fill-opacity:0.8;stroke:#471365;stroke-opacity:0.8;" x="171.699304" xlink:href="#m83f2243c8d" y="111.037445"/>
     <use style="fill:#471365;fill-opacity:0.8;stroke:#471365;stroke-opacity:0.8;" x="145.007023" xlink:href="#m83f2243c8d" y="150.981789"/>
     <use style="fill:#471365;fill-opacity:0.8;stroke:#471365;stroke-opacity:0.8;" x="180.958074" xlink:href="#m83f2243c8d" y="147.646032"/>
     <use style="fill:#471365;fill-opacity:0.8;stroke:#471365;stroke-opacity:0.8;" x="149.179784" xlink:href="#m83f2243c8d" y="128.80247"/>
     <use style="fill:#471365;fill-opacity:0.8;stroke:#471365;stroke-opacity:0.8;" x="158.385511" xlink:href="#m83f2243c8d" y="143.023736"/>
     <use style="fill:#471365;fill-opacity:0.8;stroke:#471365;stroke-opacity:0.8;" x="129.564326" xlink:href="#m83f2243c8d" y="126.984367"/>
     <use style="fill:#471365;fill-opacity:0.8;stroke:#471365;stroke-opacity:0.8;" x="185.557199" xlink:href="#m83f2243c8d" y="179.832622"/>
     <use style="fill:#471365;fill-opacity:0.8;stroke:#471365;stroke-opacity:0.8;" x="152.82798" xlink:href="#m83f2243c8d" y="110.197727"/>
     <use style="fill:#471365;fill-opacity:0.8;stroke:#471365;stroke-opacity:0.8;" x="280.934087" xlink:href="#m83f2243c8d" y="210.902158"/>
     <use style="fill:#471365;fill-opacity:0.8;stroke:#471365;stroke-opacity:0.8;" x="214.871929" xlink:href="#m83f2243c8d" y="187.890826"/>
     <use style="fill:#471365;fill-opacity:0.8;stroke:#471365;stroke-opacity:0.8;" x="157.564567" xlink:href="#m83f2243c8d" y="176.389012"/>
     <use style="fill:#471365;fill-opacity:0.8;stroke:#471365;stroke-opacity:0.8;" x="195.415601" xlink:href="#m83f2243c8d" y="218.459613"/>
     <use style="fill:#471365;fill-opacity:0.8;stroke:#471365;stroke-opacity:0.8;" x="181.842731" xlink:href="#m83f2243c8d" y="161.774851"/>
     <use style="fill:#471365;fill-opacity:0.8;stroke:#471365;stroke-opacity:0.8;" x="120.752246" xlink:href="#m83f2243c8d" y="157.075517"/>
     <use style="fill:#471365;fill-opacity:0.8;stroke:#471365;stroke-opacity:0.8;" x="157.373918" xlink:href="#m83f2243c8d" y="148.231523"/>
     <use style="fill:#471365;fill-opacity:0.8;stroke:#471365;stroke-opacity:0.8;" x="217.779227" xlink:href="#m83f2243c8d" y="139.757313"/>
     <use style="fill:#471365;fill-opacity:0.8;stroke:#471365;stroke-opacity:0.8;" x="126.151686" xlink:href="#m83f2243c8d" y="137.138011"/>
     <use style="fill:#471365;fill-opacity:0.8;stroke:#471365;stroke-opacity:0.8;" x="138.960169" xlink:href="#m83f2243c8d" y="112.593618"/>
     <use style="fill:#471365;fill-opacity:0.8;stroke:#471365;stroke-opacity:0.8;" x="182.2573" xlink:href="#m83f2243c8d" y="225.739729"/>
     <use style="fill:#471365;fill-opacity:0.8;stroke:#471365;stroke-opacity:0.8;" x="179.639652" xlink:href="#m83f2243c8d" y="130.320124"/>
     <use style="fill:#471365;fill-opacity:0.8;stroke:#471365;stroke-opacity:0.8;" x="181.172281" xlink:href="#m83f2243c8d" y="203.521891"/>
     <use style="fill:#471365;fill-opacity:0.8;stroke:#471365;stroke-opacity:0.8;" x="189.434012" xlink:href="#m83f2243c8d" y="214.438215"/>
     <use style="fill:#471365;fill-opacity:0.8;stroke:#471365;stroke-opacity:0.8;" x="201.371629" xlink:href="#m83f2243c8d" y="174.023937"/>
     <use style="fill:#471365;fill-opacity:0.8;stroke:#471365;stroke-opacity:0.8;" x="152.588008" xlink:href="#m83f2243c8d" y="169.817647"/>
     <use style="fill:#471365;fill-opacity:0.8;stroke:#471365;stroke-opacity:0.8;" x="156.813449" xlink:href="#m83f2243c8d" y="184.932556"/>
     <use style="fill:#471365;fill-opacity:0.8;stroke:#471365;stroke-opacity:0.8;" x="196.778764" xlink:href="#m83f2243c8d" y="124.149359"/>
     <use style="fill:#471365;fill-opacity:0.8;stroke:#471365;stroke-opacity:0.8;" x="172.908738" xlink:href="#m83f2243c8d" y="132.315416"/>
     <use style="fill:#471365;fill-opacity:0.8;stroke:#471365;stroke-opacity:0.8;" x="187.41462" xlink:href="#m83f2243c8d" y="163.307913"/>
     <use style="fill:#471365;fill-opacity:0.8;stroke:#471365;stroke-opacity:0.8;" x="141.134764" xlink:href="#m83f2243c8d" y="119.866031"/>
     <use style="fill:#471365;fill-opacity:0.8;stroke:#471365;stroke-opacity:0.8;" x="179.716991" xlink:href="#m83f2243c8d" y="153.377679"/>
     <use style="fill:#471365;fill-opacity:0.8;stroke:#471365;stroke-opacity:0.8;" x="199.465685" xlink:href="#m83f2243c8d" y="129.503519"/>
     <use style="fill:#471365;fill-opacity:0.8;stroke:#471365;stroke-opacity:0.8;" x="180.599798" xlink:href="#m83f2243c8d" y="240.954788"/>
     <use style="fill:#471365;fill-opacity:0.8;stroke:#471365;stroke-opacity:0.8;" x="171.168319" xlink:href="#m83f2243c8d" y="145.049842"/>
     <use style="fill:#471365;fill-opacity:0.8;stroke:#471365;stroke-opacity:0.8;" x="177.764739" xlink:href="#m83f2243c8d" y="135.212055"/>
     <use style="fill:#471365;fill-opacity:0.8;stroke:#471365;stroke-opacity:0.8;" x="209.22292" xlink:href="#m83f2243c8d" y="175.94219"/>
     <use style="fill:#471365;fill-opacity:0.8;stroke:#471365;stroke-opacity:0.8;" x="154.703111" xlink:href="#m83f2243c8d" y="172.860659"/>
     <use style="fill:#471365;fill-opacity:0.8;stroke:#471365;stroke-opacity:0.8;" x="252.601365" xlink:href="#m83f2243c8d" y="187.143555"/>
     <use style="fill:#471365;fill-opacity:0.8;stroke:#471365;stroke-opacity:0.8;" x="151.794343" xlink:href="#m83f2243c8d" y="136.960823"/>
     <use style="fill:#471365;fill-opacity:0.8;stroke:#471365;stroke-opacity:0.8;" x="160.35292" xlink:href="#m83f2243c8d" y="190.217382"/>
     <use style="fill:#471365;fill-opacity:0.8;stroke:#471365;stroke-opacity:0.8;" x="191.877761" xlink:href="#m83f2243c8d" y="138.301289"/>
     <use style="fill:#471365;fill-opacity:0.8;stroke:#471365;stroke-opacity:0.8;" x="166.025271" xlink:href="#m83f2243c8d" y="147.676847"/>
     <use style="fill:#471365;fill-opacity:0.8;stroke:#471365;stroke-opacity:0.8;" x="177.787578" xlink:href="#m83f2243c8d" y="193.830477"/>
     <use style="fill:#471365;fill-opacity:0.8;stroke:#471365;stroke-opacity:0.8;" x="150.352382" xlink:href="#m83f2243c8d" y="143.231739"/>
     <use style="fill:#471365;fill-opacity:0.8;stroke:#471365;stroke-opacity:0.8;" x="184.964996" xlink:href="#m83f2243c8d" y="174.324386"/>
     <use style="fill:#471365;fill-opacity:0.8;stroke:#471365;stroke-opacity:0.8;" x="146.581681" xlink:href="#m83f2243c8d" y="207.959296"/>
    </g>
   </g>
   <g id="PolyCollection_1">
    <defs>
     <path d="M 63.183924 -339.28562 
L 63.183924 -284.665438 
L 65.964919 -284.205766 
L 68.745914 -283.688658 
L 71.526909 -283.235787 
L 74.307903 -282.900437 
L 77.088898 -282.278611 
L 79.869893 -281.783959 
L 82.650888 -281.398171 
L 85.431883 -280.908319 
L 88.212877 -280.346641 
L 90.993872 -279.957835 
L 93.774867 -279.427307 
L 96.555862 -278.894656 
L 99.336857 -278.307682 
L 102.117851 -277.655683 
L 104.898846 -276.960818 
L 107.679841 -276.349757 
L 110.460836 -275.693965 
L 113.241831 -275.195498 
L 116.022825 -274.700545 
L 118.80382 -274.293654 
L 121.584815 -273.770681 
L 124.36581 -273.078821 
L 127.146805 -272.668085 
L 129.927799 -272.040935 
L 132.708794 -271.474445 
L 135.489789 -270.796777 
L 138.270784 -270.167115 
L 141.051779 -269.606304 
L 143.832773 -269.054461 
L 146.613768 -268.172903 
L 149.394763 -267.314746 
L 152.175758 -266.30688 
L 154.956753 -265.370021 
L 157.737747 -264.778024 
L 160.518742 -263.960004 
L 163.299737 -263.384506 
L 166.080732 -262.406575 
L 168.861727 -261.400732 
L 171.642721 -260.563521 
L 174.423716 -259.573578 
L 177.204711 -258.427015 
L 179.985706 -257.477035 
L 182.7667 -256.28929 
L 185.547695 -255.098153 
L 188.32869 -254.048916 
L 191.109685 -252.738873 
L 193.89068 -251.45854 
L 196.671674 -250.187723 
L 199.452669 -249.054441 
L 202.233664 -247.643847 
L 205.014659 -246.320404 
L 207.795654 -245.019549 
L 210.576648 -243.688717 
L 213.357643 -242.16512 
L 216.138638 -240.616003 
L 218.919633 -239.024061 
L 221.700628 -237.410557 
L 224.481622 -235.81027 
L 227.262617 -234.156532 
L 230.043612 -232.608547 
L 232.824607 -230.769119 
L 235.605602 -229.238227 
L 238.386596 -227.626535 
L 241.167591 -225.679116 
L 243.948586 -223.791182 
L 246.729581 -222.200555 
L 249.510576 -220.773567 
L 252.29157 -219.384106 
L 255.072565 -217.994645 
L 257.85356 -216.594429 
L 260.634555 -214.995672 
L 263.41555 -213.396916 
L 266.196544 -211.798159 
L 268.977539 -210.199402 
L 271.758534 -208.600645 
L 274.539529 -206.930423 
L 277.320524 -205.404739 
L 280.101518 -203.837765 
L 282.882513 -202.201247 
L 285.663508 -200.599098 
L 288.444503 -198.998782 
L 291.225498 -197.397968 
L 294.006492 -195.792649 
L 296.787487 -194.1905 
L 299.568482 -192.580545 
L 302.349477 -190.861192 
L 305.130472 -189.141838 
L 307.911466 -187.422485 
L 310.692461 -185.703132 
L 313.473456 -183.983779 
L 316.254451 -182.264426 
L 319.035446 -180.560629 
L 321.81644 -178.896488 
L 324.597435 -177.232347 
L 327.37843 -175.550419 
L 330.159425 -173.760016 
L 332.940419 -171.969613 
L 335.721414 -170.218786 
L 338.502409 -168.496195 
L 338.502409 -244.292286 
L 338.502409 -244.292286 
L 335.721414 -244.477087 
L 332.940419 -244.644307 
L 330.159425 -245.121811 
L 327.37843 -245.640923 
L 324.597435 -246.160036 
L 321.81644 -246.679148 
L 319.035446 -247.19826 
L 316.254451 -247.717372 
L 313.473456 -248.236484 
L 310.692461 -248.755597 
L 307.911466 -249.216915 
L 305.130472 -249.644331 
L 302.349477 -250.05896 
L 299.568482 -250.562064 
L 296.787487 -251.015314 
L 294.006492 -251.46496 
L 291.225498 -251.910399 
L 288.444503 -252.355837 
L 285.663508 -252.801276 
L 282.882513 -253.246714 
L 280.101518 -253.636041 
L 277.320524 -253.995348 
L 274.539529 -254.443571 
L 271.758534 -254.964152 
L 268.977539 -255.484457 
L 266.196544 -255.93403 
L 263.41555 -256.453377 
L 260.634555 -257.052811 
L 257.85356 -257.513383 
L 255.072565 -257.896239 
L 252.29157 -258.279096 
L 249.510576 -258.661952 
L 246.729581 -259.080585 
L 243.948586 -259.52752 
L 241.167591 -260.001867 
L 238.386596 -260.746331 
L 235.605602 -261.315478 
L 232.824607 -261.733668 
L 230.043612 -262.225422 
L 227.262617 -262.733117 
L 224.481622 -263.36065 
L 221.700628 -264.066112 
L 218.919633 -264.776776 
L 216.138638 -265.337773 
L 213.357643 -266.113161 
L 210.576648 -266.713974 
L 207.795654 -267.431571 
L 205.014659 -268.029047 
L 202.233664 -268.767268 
L 199.452669 -269.501825 
L 196.671674 -270.450208 
L 193.89068 -271.565032 
L 191.109685 -272.514781 
L 188.32869 -273.195708 
L 185.547695 -274.077029 
L 182.7667 -274.713561 
L 179.985706 -275.57986 
L 177.204711 -276.473934 
L 174.423716 -277.546156 
L 171.642721 -278.599993 
L 168.861727 -279.808817 
L 166.080732 -281.243854 
L 163.299737 -282.584663 
L 160.518742 -283.984826 
L 157.737747 -285.059936 
L 154.956753 -286.65509 
L 152.175758 -288.112497 
L 149.394763 -289.52839 
L 146.613768 -291.012719 
L 143.832773 -292.484254 
L 141.051779 -293.945037 
L 138.270784 -295.255911 
L 135.489789 -296.915136 
L 132.708794 -298.389657 
L 129.927799 -299.924227 
L 127.146805 -301.478504 
L 124.36581 -302.938791 
L 121.584815 -304.480365 
L 118.80382 -306.15204 
L 116.022825 -307.716558 
L 113.241831 -309.337352 
L 110.460836 -311.188365 
L 107.679841 -313.039379 
L 104.898846 -314.883954 
L 102.117851 -316.727075 
L 99.336857 -318.452771 
L 96.555862 -320.004205 
L 93.774867 -321.665393 
L 90.993872 -323.338305 
L 88.212877 -324.9029 
L 85.431883 -326.309573 
L 82.650888 -327.761377 
L 79.869893 -329.312812 
L 77.088898 -330.864246 
L 74.307903 -332.415681 
L 71.526909 -334.065025 
L 68.745914 -335.815498 
L 65.964919 -337.690289 
L 63.183924 -339.28562 
z
" id="m62752b1bfb" style="stroke:#ffffff;stroke-opacity:0.15;stroke-width:0.8;"/>
    </defs>
    <g clip-path="url(#p8ea7467650)">
     <use style="fill:#471365;fill-opacity:0.15;stroke:#ffffff;stroke-opacity:0.15;stroke-width:0.8;" x="0" xlink:href="#m62752b1bfb" y="432"/>
    </g>
   </g>
   <g id="line2d_13">
    <path clip-path="url(#p8ea7467650)" d="M 63.183924 119.394722 
L 65.964919 120.490098 
L 68.745914 121.585474 
L 71.526909 122.680849 
L 74.307903 123.776225 
L 77.088898 124.8716 
L 79.869893 125.966976 
L 82.650888 127.062351 
L 85.431883 128.157727 
L 88.212877 129.253102 
L 90.993872 130.348478 
L 93.774867 131.443854 
L 96.555862 132.539229 
L 99.336857 133.634605 
L 102.117851 134.72998 
L 104.898846 135.825356 
L 107.679841 136.920731 
L 110.460836 138.016107 
L 113.241831 139.111482 
L 116.022825 140.206858 
L 118.80382 141.302234 
L 121.584815 142.397609 
L 124.36581 143.492985 
L 127.146805 144.58836 
L 129.927799 145.683736 
L 132.708794 146.779111 
L 135.489789 147.874487 
L 138.270784 148.969862 
L 141.051779 150.065238 
L 143.832773 151.160614 
L 146.613768 152.255989 
L 149.394763 153.351365 
L 152.175758 154.44674 
L 154.956753 155.542116 
L 157.737747 156.637491 
L 160.518742 157.732867 
L 163.299737 158.828242 
L 166.080732 159.923618 
L 168.861727 161.018994 
L 171.642721 162.114369 
L 174.423716 163.209745 
L 177.204711 164.30512 
L 179.985706 165.400496 
L 182.7667 166.495871 
L 185.547695 167.591247 
L 188.32869 168.686622 
L 191.109685 169.781998 
L 193.89068 170.877374 
L 196.671674 171.972749 
L 199.452669 173.068125 
L 202.233664 174.1635 
L 205.014659 175.258876 
L 207.795654 176.354251 
L 210.576648 177.449627 
L 213.357643 178.545002 
L 216.138638 179.640378 
L 218.919633 180.735754 
L 221.700628 181.831129 
L 224.481622 182.926505 
L 227.262617 184.02188 
L 230.043612 185.117256 
L 232.824607 186.212631 
L 235.605602 187.308007 
L 238.386596 188.403382 
L 241.167591 189.498758 
L 243.948586 190.594134 
L 246.729581 191.689509 
L 249.510576 192.784885 
L 252.29157 193.88026 
L 255.072565 194.975636 
L 257.85356 196.071011 
L 260.634555 197.166387 
L 263.41555 198.261762 
L 266.196544 199.357138 
L 268.977539 200.452514 
L 271.758534 201.547889 
L 274.539529 202.643265 
L 277.320524 203.73864 
L 280.101518 204.834016 
L 282.882513 205.929391 
L 285.663508 207.024767 
L 288.444503 208.120142 
L 291.225498 209.215518 
L 294.006492 210.310894 
L 296.787487 211.406269 
L 299.568482 212.501645 
L 302.349477 213.59702 
L 305.130472 214.692396 
L 307.911466 215.787771 
L 310.692461 216.883147 
L 313.473456 217.978522 
L 316.254451 219.073898 
L 319.035446 220.169274 
L 321.81644 221.264649 
L 324.597435 222.360025 
L 327.37843 223.4554 
L 330.159425 224.550776 
L 332.940419 225.646151 
L 335.721414 226.741527 
L 338.502409 227.836902 
" style="fill:none;stroke:#471365;stroke-linecap:round;stroke-width:1.8;"/>
   </g>
   <g id="patch_3">
    <path d="M 49.418 390.332 
L 49.418 81.023333 
" style="fill:none;stroke:#262626;stroke-linecap:square;stroke-linejoin:miter;"/>
   </g>
   <g id="patch_4">
    <path d="M 49.418 390.332 
L 352.268333 390.332 
" style="fill:none;stroke:#262626;stroke-linecap:square;stroke-linejoin:miter;"/>
   </g>
   <g id="legend_1">
    <g id="patch_5">
     <path d="M 193.528708 100.980083 
L 346.108333 100.980083 
Q 347.868333 100.980083 347.868333 99.220083 
L 347.868333 87.183333 
Q 347.868333 85.423333 346.108333 85.423333 
L 193.528708 85.423333 
Q 191.768708 85.423333 191.768708 87.183333 
L 191.768708 99.220083 
Q 191.768708 100.980083 193.528708 100.980083 
z
" style="fill:#ffffff;opacity:0.8;stroke:#cccccc;stroke-linejoin:miter;stroke-width:0.8;"/>
    </g>
    <g id="line2d_14"/>
    <g id="line2d_15"/>
    <g id="text_15">
     <!-- pearsonr = -0.38; p = 0.009 -->
     <defs>
      <path d="M 18.109375 8.203125 
L 18.109375 -20.796875 
L 9.078125 -20.796875 
L 9.078125 54.6875 
L 18.109375 54.6875 
L 18.109375 46.390625 
Q 20.953125 51.265625 25.265625 53.625 
Q 29.59375 56 35.59375 56 
Q 45.5625 56 51.78125 48.09375 
Q 58.015625 40.1875 58.015625 27.296875 
Q 58.015625 14.40625 51.78125 6.484375 
Q 45.5625 -1.421875 35.59375 -1.421875 
Q 29.59375 -1.421875 25.265625 0.953125 
Q 20.953125 3.328125 18.109375 8.203125 
z
M 48.6875 27.296875 
Q 48.6875 37.203125 44.609375 42.84375 
Q 40.53125 48.484375 33.40625 48.484375 
Q 26.265625 48.484375 22.1875 42.84375 
Q 18.109375 37.203125 18.109375 27.296875 
Q 18.109375 17.390625 22.1875 11.75 
Q 26.265625 6.109375 33.40625 6.109375 
Q 40.53125 6.109375 44.609375 11.75 
Q 48.6875 17.390625 48.6875 27.296875 
z
" id="DejaVuSans-70"/>
      <path d="M 44.28125 53.078125 
L 44.28125 44.578125 
Q 40.484375 46.53125 36.375 47.5 
Q 32.28125 48.484375 27.875 48.484375 
Q 21.1875 48.484375 17.84375 46.4375 
Q 14.5 44.390625 14.5 40.28125 
Q 14.5 37.15625 16.890625 35.375 
Q 19.28125 33.59375 26.515625 31.984375 
L 29.59375 31.296875 
Q 39.15625 29.25 43.1875 25.515625 
Q 47.21875 21.78125 47.21875 15.09375 
Q 47.21875 7.46875 41.1875 3.015625 
Q 35.15625 -1.421875 24.609375 -1.421875 
Q 20.21875 -1.421875 15.453125 -0.5625 
Q 10.6875 0.296875 5.421875 2 
L 5.421875 11.28125 
Q 10.40625 8.6875 15.234375 7.390625 
Q 20.0625 6.109375 24.8125 6.109375 
Q 31.15625 6.109375 34.5625 8.28125 
Q 37.984375 10.453125 37.984375 14.40625 
Q 37.984375 18.0625 35.515625 20.015625 
Q 33.0625 21.96875 24.703125 23.78125 
L 21.578125 24.515625 
Q 13.234375 26.265625 9.515625 29.90625 
Q 5.8125 33.546875 5.8125 39.890625 
Q 5.8125 47.609375 11.28125 51.796875 
Q 16.75 56 26.8125 56 
Q 31.78125 56 36.171875 55.265625 
Q 40.578125 54.546875 44.28125 53.078125 
z
" id="DejaVuSans-73"/>
      <path d="M 10.59375 45.40625 
L 73.1875 45.40625 
L 73.1875 37.203125 
L 10.59375 37.203125 
z
M 10.59375 25.484375 
L 73.1875 25.484375 
L 73.1875 17.1875 
L 10.59375 17.1875 
z
" id="DejaVuSans-3d"/>
      <path d="M 10.6875 12.40625 
L 21 12.40625 
L 21 0 
L 10.6875 0 
z
" id="DejaVuSans-2e"/>
      <path d="M 40.578125 39.3125 
Q 47.65625 37.796875 51.625 33 
Q 55.609375 28.21875 55.609375 21.1875 
Q 55.609375 10.40625 48.1875 4.484375 
Q 40.765625 -1.421875 27.09375 -1.421875 
Q 22.515625 -1.421875 17.65625 -0.515625 
Q 12.796875 0.390625 7.625 2.203125 
L 7.625 11.71875 
Q 11.71875 9.328125 16.59375 8.109375 
Q 21.484375 6.890625 26.8125 6.890625 
Q 36.078125 6.890625 40.9375 10.546875 
Q 45.796875 14.203125 45.796875 21.1875 
Q 45.796875 27.640625 41.28125 31.265625 
Q 36.765625 34.90625 28.71875 34.90625 
L 20.21875 34.90625 
L 20.21875 43.015625 
L 29.109375 43.015625 
Q 36.375 43.015625 40.234375 45.921875 
Q 44.09375 48.828125 44.09375 54.296875 
Q 44.09375 59.90625 40.109375 62.90625 
Q 36.140625 65.921875 28.71875 65.921875 
Q 24.65625 65.921875 20.015625 65.03125 
Q 15.375 64.15625 9.8125 62.3125 
L 9.8125 71.09375 
Q 15.4375 72.65625 20.34375 73.4375 
Q 25.25 74.21875 29.59375 74.21875 
Q 40.828125 74.21875 47.359375 69.109375 
Q 53.90625 64.015625 53.90625 55.328125 
Q 53.90625 49.265625 50.4375 45.09375 
Q 46.96875 40.921875 40.578125 39.3125 
z
" id="DejaVuSans-33"/>
      <path d="M 11.71875 51.703125 
L 22.015625 51.703125 
L 22.015625 39.3125 
L 11.71875 39.3125 
z
M 11.71875 12.40625 
L 22.015625 12.40625 
L 22.015625 4 
L 14.015625 -11.625 
L 7.71875 -11.625 
L 11.71875 4 
z
" id="DejaVuSans-3b"/>
      <path d="M 10.984375 1.515625 
L 10.984375 10.5 
Q 14.703125 8.734375 18.5 7.8125 
Q 22.3125 6.890625 25.984375 6.890625 
Q 35.75 6.890625 40.890625 13.453125 
Q 46.046875 20.015625 46.78125 33.40625 
Q 43.953125 29.203125 39.59375 26.953125 
Q 35.25 24.703125 29.984375 24.703125 
Q 19.046875 24.703125 12.671875 31.3125 
Q 6.296875 37.9375 6.296875 49.421875 
Q 6.296875 60.640625 12.9375 67.421875 
Q 19.578125 74.21875 30.609375 74.21875 
Q 43.265625 74.21875 49.921875 64.515625 
Q 56.59375 54.828125 56.59375 36.375 
Q 56.59375 19.140625 48.40625 8.859375 
Q 40.234375 -1.421875 26.421875 -1.421875 
Q 22.703125 -1.421875 18.890625 -0.6875 
Q 15.09375 0.046875 10.984375 1.515625 
z
M 30.609375 32.421875 
Q 37.25 32.421875 41.125 36.953125 
Q 45.015625 41.5 45.015625 49.421875 
Q 45.015625 57.28125 41.125 61.84375 
Q 37.25 66.40625 30.609375 66.40625 
Q 23.96875 66.40625 20.09375 61.84375 
Q 16.21875 57.28125 16.21875 49.421875 
Q 16.21875 41.5 20.09375 36.953125 
Q 23.96875 32.421875 30.609375 32.421875 
z
" id="DejaVuSans-39"/>
     </defs>
     <g style="fill:#262626;" transform="translate(219.928708 95.629958)scale(0.088 -0.088)">
      <use xlink:href="#DejaVuSans-70"/>
      <use x="63.476562" xlink:href="#DejaVuSans-65"/>
      <use x="125" xlink:href="#DejaVuSans-61"/>
      <use x="186.279297" xlink:href="#DejaVuSans-72"/>
      <use x="227.392578" xlink:href="#DejaVuSans-73"/>
      <use x="279.492188" xlink:href="#DejaVuSans-6f"/>
      <use x="340.673828" xlink:href="#DejaVuSans-6e"/>
      <use x="404.052734" xlink:href="#DejaVuSans-72"/>
      <use x="445.166016" xlink:href="#DejaVuSans-20"/>
      <use x="476.953125" xlink:href="#DejaVuSans-3d"/>
      <use x="560.742188" xlink:href="#DejaVuSans-20"/>
      <use x="592.529297" xlink:href="#DejaVuSans-2d"/>
      <use x="628.613281" xlink:href="#DejaVuSans-30"/>
      <use x="692.236328" xlink:href="#DejaVuSans-2e"/>
      <use x="724.023438" xlink:href="#DejaVuSans-33"/>
      <use x="787.646484" xlink:href="#DejaVuSans-38"/>
      <use x="851.269531" xlink:href="#DejaVuSans-3b"/>
      <use x="884.960938" xlink:href="#DejaVuSans-20"/>
      <use x="916.748047" xlink:href="#DejaVuSans-70"/>
      <use x="980.224609" xlink:href="#DejaVuSans-20"/>
      <use x="1012.011719" xlink:href="#DejaVuSans-3d"/>
      <use x="1095.800781" xlink:href="#DejaVuSans-20"/>
      <use x="1127.587891" xlink:href="#DejaVuSans-30"/>
      <use x="1191.210938" xlink:href="#DejaVuSans-2e"/>
      <use x="1222.998047" xlink:href="#DejaVuSans-30"/>
      <use x="1286.621094" xlink:href="#DejaVuSans-30"/>
      <use x="1350.244141" xlink:href="#DejaVuSans-39"/>
     </g>
    </g>
   </g>
  </g>
  <g id="axes_2">
   <g id="patch_6">
    <path d="M 49.418 61.055333 
L 352.268333 61.055333 
L 352.268333 15.168 
L 49.418 15.168 
z
" style="fill:#ffffff;"/>
   </g>
   <g id="matplotlib.axis_3">
    <g id="xtick_7">
     <g id="line2d_16">
      <g>
       <use style="fill:#262626;stroke:#262626;" x="53.688698" xlink:href="#m6d21050c5c" y="61.055333"/>
      </g>
     </g>
    </g>
    <g id="xtick_8">
     <g id="line2d_17">
      <g>
       <use style="fill:#262626;stroke:#262626;" x="108.723105" xlink:href="#m6d21050c5c" y="61.055333"/>
      </g>
     </g>
    </g>
    <g id="xtick_9">
     <g id="line2d_18">
      <g>
       <use style="fill:#262626;stroke:#262626;" x="163.757512" xlink:href="#m6d21050c5c" y="61.055333"/>
      </g>
     </g>
    </g>
    <g id="xtick_10">
     <g id="line2d_19">
      <g>
       <use style="fill:#262626;stroke:#262626;" x="218.79192" xlink:href="#m6d21050c5c" y="61.055333"/>
      </g>
     </g>
    </g>
    <g id="xtick_11">
     <g id="line2d_20">
      <g>
       <use style="fill:#262626;stroke:#262626;" x="273.826327" xlink:href="#m6d21050c5c" y="61.055333"/>
      </g>
     </g>
    </g>
    <g id="xtick_12">
     <g id="line2d_21">
      <g>
       <use style="fill:#262626;stroke:#262626;" x="328.860734" xlink:href="#m6d21050c5c" y="61.055333"/>
      </g>
     </g>
    </g>
   </g>
   <g id="matplotlib.axis_4">
    <g id="ytick_7"/>
    <g id="ytick_8"/>
   </g>
   <g id="patch_7">
    <path clip-path="url(#p05a6d0a546)" d="M 120.752246 61.055333 
L 138.550229 61.055333 
L 138.550229 51.690571 
L 120.752246 51.690571 
z
" style="fill:#471365;opacity:0.4;stroke:#ffffff;stroke-linejoin:miter;stroke-width:0.8;"/>
   </g>
   <g id="patch_8">
    <path clip-path="url(#p05a6d0a546)" d="M 138.550229 61.055333 
L 156.348211 61.055333 
L 156.348211 26.717873 
L 138.550229 26.717873 
z
" style="fill:#471365;opacity:0.4;stroke:#ffffff;stroke-linejoin:miter;stroke-width:0.8;"/>
   </g>
   <g id="patch_9">
    <path clip-path="url(#p05a6d0a546)" d="M 156.348211 61.055333 
L 174.146193 61.055333 
L 174.146193 32.961048 
L 156.348211 32.961048 
z
" style="fill:#471365;opacity:0.4;stroke:#ffffff;stroke-linejoin:miter;stroke-width:0.8;"/>
   </g>
   <g id="patch_10">
    <path clip-path="url(#p05a6d0a546)" d="M 174.146193 61.055333 
L 191.944176 61.055333 
L 191.944176 17.353111 
L 174.146193 17.353111 
z
" style="fill:#471365;opacity:0.4;stroke:#ffffff;stroke-linejoin:miter;stroke-width:0.8;"/>
   </g>
   <g id="patch_11">
    <path clip-path="url(#p05a6d0a546)" d="M 191.944176 61.055333 
L 209.742158 61.055333 
L 209.742158 45.447397 
L 191.944176 45.447397 
z
" style="fill:#471365;opacity:0.4;stroke:#ffffff;stroke-linejoin:miter;stroke-width:0.8;"/>
   </g>
   <g id="patch_12">
    <path clip-path="url(#p05a6d0a546)" d="M 209.742158 61.055333 
L 227.54014 61.055333 
L 227.54014 54.812159 
L 209.742158 54.812159 
z
" style="fill:#471365;opacity:0.4;stroke:#ffffff;stroke-linejoin:miter;stroke-width:0.8;"/>
   </g>
   <g id="patch_13">
    <path clip-path="url(#p05a6d0a546)" d="M 227.54014 61.055333 
L 245.338122 61.055333 
L 245.338122 61.055333 
L 227.54014 61.055333 
z
" style="fill:#471365;opacity:0.4;stroke:#ffffff;stroke-linejoin:miter;stroke-width:0.8;"/>
   </g>
   <g id="patch_14">
    <path clip-path="url(#p05a6d0a546)" d="M 245.338122 61.055333 
L 263.136105 61.055333 
L 263.136105 54.812159 
L 245.338122 54.812159 
z
" style="fill:#471365;opacity:0.4;stroke:#ffffff;stroke-linejoin:miter;stroke-width:0.8;"/>
   </g>
   <g id="patch_15">
    <path clip-path="url(#p05a6d0a546)" d="M 263.136105 61.055333 
L 280.934087 61.055333 
L 280.934087 57.933746 
L 263.136105 57.933746 
z
" style="fill:#471365;opacity:0.4;stroke:#ffffff;stroke-linejoin:miter;stroke-width:0.8;"/>
   </g>
   <g id="line2d_22">
    <path clip-path="url(#p05a6d0a546)" d="M 75.698401 61.028348 
L 78.226578 61.010433 
L 80.754755 60.982497 
L 83.282932 60.940104 
L 85.811109 60.877488 
L 88.339286 60.787446 
L 90.867463 60.661331 
L 93.39564 60.489201 
L 95.923818 60.260115 
L 98.451995 59.962577 
L 100.980172 59.585068 
L 103.508349 59.116599 
L 106.036526 58.547183 
L 108.564703 57.868161 
L 111.09288 57.072343 
L 113.621057 56.154 
L 116.149234 55.108819 
L 118.677411 53.933996 
L 121.205588 52.628647 
L 123.733765 51.194665 
L 126.261943 49.63804 
L 128.79012 47.970453 
L 131.318297 46.210825 
L 133.846474 44.386306 
L 136.374651 42.532224 
L 138.902828 40.690585 
L 141.431005 38.90702 
L 143.959182 37.22641 
L 146.487359 35.687822 
L 149.015536 34.319705 
L 151.543713 33.136394 
L 154.071891 32.136849 
L 156.600068 31.30617 
L 159.128245 30.619866 
L 161.656422 30.050188 
L 164.184599 29.57334 
L 166.712776 29.176058 
L 169.240953 28.860103 
L 171.76913 28.64362 
L 174.297307 28.558971 
L 176.825484 28.6474 
L 179.353661 28.951624 
L 181.881839 29.507812 
L 184.410016 30.33856 
L 186.938193 31.448167 
L 189.46637 32.82098 
L 191.994547 34.422914 
L 194.522724 36.205613 
L 197.050901 38.112272 
L 199.579078 40.08394 
L 202.107255 42.06518 
L 204.635432 44.008275 
L 207.163609 45.875531 
L 209.691786 47.639675 
L 212.219964 49.282696 
L 214.748141 50.793707 
L 217.276318 52.166469 
L 219.804495 53.397186 
L 222.332672 54.482997 
L 224.860849 55.421377 
L 227.389026 56.210438 
L 229.917203 56.849905 
L 232.44538 57.342436 
L 234.973557 57.694894 
L 237.501734 57.919193 
L 240.029912 58.032465 
L 242.558089 58.056417 
L 245.086266 58.01591 
L 247.614443 57.936971 
L 250.14262 57.844529 
L 252.670797 57.760264 
L 255.198974 57.700923 
L 257.727151 57.677371 
L 260.255328 57.694508 
L 262.783505 57.752025 
L 265.311682 57.845768 
L 267.839859 57.969423 
L 270.368037 58.116152 
L 272.896214 58.279868 
L 275.424391 58.455962 
L 277.952568 58.641427 
L 280.480745 58.834478 
L 283.008922 59.033879 
L 285.537099 59.238221 
L 288.065276 59.445361 
L 290.593453 59.652181 
L 293.12163 59.854685 
L 295.649807 60.048389 
L 298.177985 60.228864 
L 300.706162 60.392304 
L 303.234339 60.535967 
L 305.762516 60.658428 
L 308.290693 60.759614 
L 310.81887 60.840638 
L 313.347047 60.90351 
L 315.875224 60.950793 
L 318.403401 60.985261 
L 320.931578 61.009619 
L 323.459755 61.026311 
L 325.987933 61.037406 
" style="fill:none;stroke:#471365;stroke-linecap:round;stroke-width:1.2;"/>
   </g>
   <g id="patch_16">
    <path d="M 49.418 61.055333 
L 352.268333 61.055333 
" style="fill:none;stroke:#262626;stroke-linecap:square;stroke-linejoin:miter;"/>
   </g>
  </g>
  <g id="axes_3">
   <g id="patch_17">
    <path d="M 372.236333 390.332 
L 416.832 390.332 
L 416.832 81.023333 
L 372.236333 81.023333 
z
" style="fill:#ffffff;"/>
   </g>
   <g id="matplotlib.axis_5">
    <g id="xtick_13"/>
    <g id="xtick_14"/>
   </g>
   <g id="matplotlib.axis_6">
    <g id="ytick_9">
     <g id="line2d_23">
      <g>
       <use style="fill:#262626;stroke:#262626;" x="372.236333" xlink:href="#m36be4af5a3" y="390.332"/>
      </g>
     </g>
    </g>
    <g id="ytick_10">
     <g id="line2d_24">
      <g>
       <use style="fill:#262626;stroke:#262626;" x="372.236333" xlink:href="#m36be4af5a3" y="334.094061"/>
      </g>
     </g>
    </g>
    <g id="ytick_11">
     <g id="line2d_25">
      <g>
       <use style="fill:#262626;stroke:#262626;" x="372.236333" xlink:href="#m36be4af5a3" y="277.856121"/>
      </g>
     </g>
    </g>
    <g id="ytick_12">
     <g id="line2d_26">
      <g>
       <use style="fill:#262626;stroke:#262626;" x="372.236333" xlink:href="#m36be4af5a3" y="221.618182"/>
      </g>
     </g>
    </g>
    <g id="ytick_13">
     <g id="line2d_27">
      <g>
       <use style="fill:#262626;stroke:#262626;" x="372.236333" xlink:href="#m36be4af5a3" y="165.380242"/>
      </g>
     </g>
    </g>
    <g id="ytick_14">
     <g id="line2d_28">
      <g>
       <use style="fill:#262626;stroke:#262626;" x="372.236333" xlink:href="#m36be4af5a3" y="109.142303"/>
      </g>
     </g>
    </g>
   </g>
   <g id="patch_18">
    <path clip-path="url(#pe694cd12d5)" d="M 372.236333 240.954788 
L 387.404927 240.954788 
L 387.404927 214.803376 
L 372.236333 214.803376 
z
" style="fill:#471365;opacity:0.4;stroke:#ffffff;stroke-linejoin:miter;stroke-width:0.8;"/>
   </g>
   <g id="patch_19">
    <path clip-path="url(#pe694cd12d5)" d="M 372.236333 214.803376 
L 390.438646 214.803376 
L 390.438646 188.651964 
L 372.236333 188.651964 
z
" style="fill:#471365;opacity:0.4;stroke:#ffffff;stroke-linejoin:miter;stroke-width:0.8;"/>
   </g>
   <g id="patch_20">
    <path clip-path="url(#pe694cd12d5)" d="M 372.236333 188.651964 
L 405.60724 188.651964 
L 405.60724 162.500552 
L 372.236333 162.500552 
z
" style="fill:#471365;opacity:0.4;stroke:#ffffff;stroke-linejoin:miter;stroke-width:0.8;"/>
   </g>
   <g id="patch_21">
    <path clip-path="url(#pe694cd12d5)" d="M 372.236333 162.500552 
L 414.708397 162.500552 
L 414.708397 136.34914 
L 372.236333 136.34914 
z
" style="fill:#471365;opacity:0.4;stroke:#ffffff;stroke-linejoin:miter;stroke-width:0.8;"/>
   </g>
   <g id="patch_22">
    <path clip-path="url(#pe694cd12d5)" d="M 372.236333 136.34914 
L 405.60724 136.34914 
L 405.60724 110.197727 
L 372.236333 110.197727 
z
" style="fill:#471365;opacity:0.4;stroke:#ffffff;stroke-linejoin:miter;stroke-width:0.8;"/>
   </g>
   <g id="line2d_29">
    <path clip-path="url(#pe694cd12d5)" d="M 372.261949 288.045474 
L 372.27544 285.773369 
L 372.29491 283.501263 
L 372.322443 281.229158 
L 372.360603 278.957053 
L 372.412457 276.684947 
L 372.481575 274.412842 
L 372.571998 272.140736 
L 372.688182 269.868631 
L 372.834923 267.596526 
L 373.01727 265.32442 
L 373.240451 263.052315 
L 373.509812 260.78021 
L 373.830773 258.508104 
L 374.208809 256.235999 
L 374.649408 253.963893 
L 375.157997 251.691788 
L 375.739765 249.419683 
L 376.399354 247.147577 
L 377.140376 244.875472 
L 377.964771 242.603367 
L 378.872023 240.331261 
L 379.858356 238.059156 
L 380.916024 235.78705 
L 382.032865 233.514945 
L 383.192286 231.24284 
L 384.3738 228.970734 
L 385.554172 226.698629 
L 386.709134 224.426524 
L 387.815518 222.154418 
L 388.853559 219.882313 
L 389.809043 217.610207 
L 390.674974 215.338102 
L 391.452463 213.065997 
L 392.15064 210.793891 
L 392.785526 208.521786 
L 393.377985 206.24968 
L 393.951003 203.977575 
L 394.526669 201.70547 
L 395.123296 199.433364 
L 395.753104 197.161259 
L 396.420814 194.889154 
L 397.123366 192.617048 
L 397.850805 190.344943 
L 398.588207 188.072837 
L 399.318368 185.800732 
L 400.024841 183.528627 
L 400.694878 181.256521 
L 401.321825 178.984416 
L 401.906594 176.712311 
L 402.457965 174.440205 
L 402.991627 172.1681 
L 403.528044 169.895994 
L 404.089401 167.623889 
L 404.696022 165.351784 
L 405.36272 163.079678 
L 406.095574 160.807573 
L 406.889567 158.535468 
L 407.72743 156.263362 
L 408.579843 153.991257 
L 409.40703 151.719151 
L 410.161551 149.447046 
L 410.791981 147.174941 
L 411.247065 144.902835 
L 411.479889 142.63073 
L 411.451609 140.358625 
L 411.134391 138.086519 
L 410.513285 135.814414 
L 409.586932 133.542308 
L 408.367114 131.270203 
L 406.877319 128.998098 
L 405.150545 126.725992 
L 403.226674 124.453887 
L 401.149717 122.181781 
L 398.965206 119.909676 
L 396.717968 117.637571 
L 394.450383 115.365465 
L 392.201178 113.09336 
L 390.0047 110.821255 
L 387.890578 108.549149 
L 385.883643 106.277044 
L 384.003989 104.004938 
L 382.267087 101.732833 
L 380.683898 99.460728 
L 379.260986 97.188622 
L 378.000664 94.916517 
L 376.901198 92.644412 
L 375.957135 90.372306 
L 375.159762 88.100201 
L 374.497702 85.828095 
L 373.95762 83.55599 
L 373.524983 81.283885 
L 373.184818 79.011779 
L 372.922409 76.739674 
L 372.72387 74.467569 
L 372.576586 72.195463 
L 372.469482 69.923358 
L 372.393151 67.651252 
L 372.339845 65.379147 
L 372.303374 63.107042 
" style="fill:none;stroke:#471365;stroke-linecap:round;stroke-width:1.2;"/>
   </g>
   <g id="patch_23">
    <path d="M 372.236333 390.332 
L 372.236333 81.023333 
" style="fill:none;stroke:#262626;stroke-linecap:square;stroke-linejoin:miter;"/>
   </g>
  </g>
 </g>
 <defs>
  <clipPath id="p8ea7467650">
   <rect height="309.308667" width="302.850333" x="49.418" y="81.023333"/>
  </clipPath>
  <clipPath id="p05a6d0a546">
   <rect height="45.887333" width="302.850333" x="49.418" y="15.168"/>
  </clipPath>
  <clipPath id="pe694cd12d5">
   <rect height="309.308667" width="44.595667" x="372.236333" y="81.023333"/>
  </clipPath>
 </defs>
</svg>
