<?xml version="1.0" encoding="utf-8" standalone="no"?>
<!DOCTYPE svg PUBLIC "-//W3C//DTD SVG 1.1//EN"
  "http://www.w3.org/Graphics/SVG/1.1/DTD/svg11.dtd">
<!-- Created with matplotlib (http://matplotlib.org/) -->
<svg height="432pt" version="1.1" viewBox="0 0 432 432" width="432pt" xmlns="http://www.w3.org/2000/svg" xmlns:xlink="http://www.w3.org/1999/xlink">
 <defs>
  <style type="text/css">
*{stroke-linecap:butt;stroke-linejoin:round;}
  </style>
 </defs>
 <g id="figure_1">
  <g id="patch_1">
   <path d="M 0 432 
L 432 432 
L 432 0 
L 0 0 
z
" style="fill:#ffffff;"/>
  </g>
  <g id="axes_1">
   <g id="patch_2">
    <path d="M 49.418 390.332 
L 352.268333 390.332 
L 352.268333 81.023333 
L 49.418 81.023333 
z
" style="fill:#ffffff;"/>
   </g>
   <g id="matplotlib.axis_1">
    <g id="xtick_1">
     <g id="line2d_1">
      <defs>
       <path d="M 0 0 
L 0 4.8 
" id="m2434083fa2" style="stroke:#262626;"/>
      </defs>
      <g>
       <use style="fill:#262626;stroke:#262626;" x="88.32049" xlink:href="#m2434083fa2" y="390.332"/>
      </g>
     </g>
     <g id="text_1">
      <!-- 2 -->
      <defs>
       <path d="M 19.1875 8.296875 
L 53.609375 8.296875 
L 53.609375 0 
L 7.328125 0 
L 7.328125 8.296875 
Q 12.9375 14.109375 22.625 23.890625 
Q 32.328125 33.6875 34.8125 36.53125 
Q 39.546875 41.84375 41.421875 45.53125 
Q 43.3125 49.21875 43.3125 52.78125 
Q 43.3125 58.59375 39.234375 62.25 
Q 35.15625 65.921875 28.609375 65.921875 
Q 23.96875 65.921875 18.8125 64.3125 
Q 13.671875 62.703125 7.8125 59.421875 
L 7.8125 69.390625 
Q 13.765625 71.78125 18.9375 73 
Q 24.125 74.21875 28.421875 74.21875 
Q 39.75 74.21875 46.484375 68.546875 
Q 53.21875 62.890625 53.21875 53.421875 
Q 53.21875 48.921875 51.53125 44.890625 
Q 49.859375 40.875 45.40625 35.40625 
Q 44.1875 33.984375 37.640625 27.21875 
Q 31.109375 20.453125 19.1875 8.296875 
z
" id="DejaVuSans-32"/>
      </defs>
      <g style="fill:#262626;" transform="translate(85.52099 405.318625)scale(0.088 -0.088)">
       <use xlink:href="#DejaVuSans-32"/>
      </g>
     </g>
    </g>
    <g id="xtick_2">
     <g id="line2d_2">
      <g>
       <use style="fill:#262626;stroke:#262626;" x="142.728989" xlink:href="#m2434083fa2" y="390.332"/>
      </g>
     </g>
     <g id="text_2">
      <!-- 4 -->
      <defs>
       <path d="M 37.796875 64.3125 
L 12.890625 25.390625 
L 37.796875 25.390625 
z
M 35.203125 72.90625 
L 47.609375 72.90625 
L 47.609375 25.390625 
L 58.015625 25.390625 
L 58.015625 17.1875 
L 47.609375 17.1875 
L 47.609375 0 
L 37.796875 0 
L 37.796875 17.1875 
L 4.890625 17.1875 
L 4.890625 26.703125 
z
" id="DejaVuSans-34"/>
      </defs>
      <g style="fill:#262626;" transform="translate(139.929489 405.318625)scale(0.088 -0.088)">
       <use xlink:href="#DejaVuSans-34"/>
      </g>
     </g>
    </g>
    <g id="xtick_3">
     <g id="line2d_3">
      <g>
       <use style="fill:#262626;stroke:#262626;" x="197.137488" xlink:href="#m2434083fa2" y="390.332"/>
      </g>
     </g>
     <g id="text_3">
      <!-- 6 -->
      <defs>
       <path d="M 33.015625 40.375 
Q 26.375 40.375 22.484375 35.828125 
Q 18.609375 31.296875 18.609375 23.390625 
Q 18.609375 15.53125 22.484375 10.953125 
Q 26.375 6.390625 33.015625 6.390625 
Q 39.65625 6.390625 43.53125 10.953125 
Q 47.40625 15.53125 47.40625 23.390625 
Q 47.40625 31.296875 43.53125 35.828125 
Q 39.65625 40.375 33.015625 40.375 
z
M 52.59375 71.296875 
L 52.59375 62.3125 
Q 48.875 64.0625 45.09375 64.984375 
Q 41.3125 65.921875 37.59375 65.921875 
Q 27.828125 65.921875 22.671875 59.328125 
Q 17.53125 52.734375 16.796875 39.40625 
Q 19.671875 43.65625 24.015625 45.921875 
Q 28.375 48.1875 33.59375 48.1875 
Q 44.578125 48.1875 50.953125 41.515625 
Q 57.328125 34.859375 57.328125 23.390625 
Q 57.328125 12.15625 50.6875 5.359375 
Q 44.046875 -1.421875 33.015625 -1.421875 
Q 20.359375 -1.421875 13.671875 8.265625 
Q 6.984375 17.96875 6.984375 36.375 
Q 6.984375 53.65625 15.1875 63.9375 
Q 23.390625 74.21875 37.203125 74.21875 
Q 40.921875 74.21875 44.703125 73.484375 
Q 48.484375 72.75 52.59375 71.296875 
z
" id="DejaVuSans-36"/>
      </defs>
      <g style="fill:#262626;" transform="translate(194.337988 405.318625)scale(0.088 -0.088)">
       <use xlink:href="#DejaVuSans-36"/>
      </g>
     </g>
    </g>
    <g id="xtick_4">
     <g id="line2d_4">
      <g>
       <use style="fill:#262626;stroke:#262626;" x="251.545988" xlink:href="#m2434083fa2" y="390.332"/>
      </g>
     </g>
     <g id="text_4">
      <!-- 8 -->
      <defs>
       <path d="M 31.78125 34.625 
Q 24.75 34.625 20.71875 30.859375 
Q 16.703125 27.09375 16.703125 20.515625 
Q 16.703125 13.921875 20.71875 10.15625 
Q 24.75 6.390625 31.78125 6.390625 
Q 38.8125 6.390625 42.859375 10.171875 
Q 46.921875 13.96875 46.921875 20.515625 
Q 46.921875 27.09375 42.890625 30.859375 
Q 38.875 34.625 31.78125 34.625 
z
M 21.921875 38.8125 
Q 15.578125 40.375 12.03125 44.71875 
Q 8.5 49.078125 8.5 55.328125 
Q 8.5 64.0625 14.71875 69.140625 
Q 20.953125 74.21875 31.78125 74.21875 
Q 42.671875 74.21875 48.875 69.140625 
Q 55.078125 64.0625 55.078125 55.328125 
Q 55.078125 49.078125 51.53125 44.71875 
Q 48 40.375 41.703125 38.8125 
Q 48.828125 37.15625 52.796875 32.3125 
Q 56.78125 27.484375 56.78125 20.515625 
Q 56.78125 9.90625 50.3125 4.234375 
Q 43.84375 -1.421875 31.78125 -1.421875 
Q 19.734375 -1.421875 13.25 4.234375 
Q 6.78125 9.90625 6.78125 20.515625 
Q 6.78125 27.484375 10.78125 32.3125 
Q 14.796875 37.15625 21.921875 38.8125 
z
M 18.3125 54.390625 
Q 18.3125 48.734375 21.84375 45.5625 
Q 25.390625 42.390625 31.78125 42.390625 
Q 38.140625 42.390625 41.71875 45.5625 
Q 45.3125 48.734375 45.3125 54.390625 
Q 45.3125 60.0625 41.71875 63.234375 
Q 38.140625 66.40625 31.78125 66.40625 
Q 25.390625 66.40625 21.84375 63.234375 
Q 18.3125 60.0625 18.3125 54.390625 
z
" id="DejaVuSans-38"/>
      </defs>
      <g style="fill:#262626;" transform="translate(248.746488 405.318625)scale(0.088 -0.088)">
       <use xlink:href="#DejaVuSans-38"/>
      </g>
     </g>
    </g>
    <g id="xtick_5">
     <g id="line2d_5">
      <g>
       <use style="fill:#262626;stroke:#262626;" x="305.954487" xlink:href="#m2434083fa2" y="390.332"/>
      </g>
     </g>
     <g id="text_5">
      <!-- 10 -->
      <defs>
       <path d="M 12.40625 8.296875 
L 28.515625 8.296875 
L 28.515625 63.921875 
L 10.984375 60.40625 
L 10.984375 69.390625 
L 28.421875 72.90625 
L 38.28125 72.90625 
L 38.28125 8.296875 
L 54.390625 8.296875 
L 54.390625 0 
L 12.40625 0 
z
" id="DejaVuSans-31"/>
       <path d="M 31.78125 66.40625 
Q 24.171875 66.40625 20.328125 58.90625 
Q 16.5 51.421875 16.5 36.375 
Q 16.5 21.390625 20.328125 13.890625 
Q 24.171875 6.390625 31.78125 6.390625 
Q 39.453125 6.390625 43.28125 13.890625 
Q 47.125 21.390625 47.125 36.375 
Q 47.125 51.421875 43.28125 58.90625 
Q 39.453125 66.40625 31.78125 66.40625 
z
M 31.78125 74.21875 
Q 44.046875 74.21875 50.515625 64.515625 
Q 56.984375 54.828125 56.984375 36.375 
Q 56.984375 17.96875 50.515625 8.265625 
Q 44.046875 -1.421875 31.78125 -1.421875 
Q 19.53125 -1.421875 13.0625 8.265625 
Q 6.59375 17.96875 6.59375 36.375 
Q 6.59375 54.828125 13.0625 64.515625 
Q 19.53125 74.21875 31.78125 74.21875 
z
" id="DejaVuSans-30"/>
      </defs>
      <g style="fill:#262626;" transform="translate(300.355487 405.318625)scale(0.088 -0.088)">
       <use xlink:href="#DejaVuSans-31"/>
       <use x="63.623047" xlink:href="#DejaVuSans-30"/>
      </g>
     </g>
    </g>
    <g id="text_6">
     <!-- g(k-1) -->
     <defs>
      <path d="M 45.40625 27.984375 
Q 45.40625 37.75 41.375 43.109375 
Q 37.359375 48.484375 30.078125 48.484375 
Q 22.859375 48.484375 18.828125 43.109375 
Q 14.796875 37.75 14.796875 27.984375 
Q 14.796875 18.265625 18.828125 12.890625 
Q 22.859375 7.515625 30.078125 7.515625 
Q 37.359375 7.515625 41.375 12.890625 
Q 45.40625 18.265625 45.40625 27.984375 
z
M 54.390625 6.78125 
Q 54.390625 -7.171875 48.1875 -13.984375 
Q 42 -20.796875 29.203125 -20.796875 
Q 24.46875 -20.796875 20.265625 -20.09375 
Q 16.0625 -19.390625 12.109375 -17.921875 
L 12.109375 -9.1875 
Q 16.0625 -11.328125 19.921875 -12.34375 
Q 23.78125 -13.375 27.78125 -13.375 
Q 36.625 -13.375 41.015625 -8.765625 
Q 45.40625 -4.15625 45.40625 5.171875 
L 45.40625 9.625 
Q 42.625 4.78125 38.28125 2.390625 
Q 33.9375 0 27.875 0 
Q 17.828125 0 11.671875 7.65625 
Q 5.515625 15.328125 5.515625 27.984375 
Q 5.515625 40.671875 11.671875 48.328125 
Q 17.828125 56 27.875 56 
Q 33.9375 56 38.28125 53.609375 
Q 42.625 51.21875 45.40625 46.390625 
L 45.40625 54.6875 
L 54.390625 54.6875 
z
" id="DejaVuSans-67"/>
      <path d="M 31 75.875 
Q 24.46875 64.65625 21.28125 53.65625 
Q 18.109375 42.671875 18.109375 31.390625 
Q 18.109375 20.125 21.3125 9.0625 
Q 24.515625 -2 31 -13.1875 
L 23.1875 -13.1875 
Q 15.875 -1.703125 12.234375 9.375 
Q 8.59375 20.453125 8.59375 31.390625 
Q 8.59375 42.28125 12.203125 53.3125 
Q 15.828125 64.359375 23.1875 75.875 
z
" id="DejaVuSans-28"/>
      <path d="M 9.078125 75.984375 
L 18.109375 75.984375 
L 18.109375 31.109375 
L 44.921875 54.6875 
L 56.390625 54.6875 
L 27.390625 29.109375 
L 57.625 0 
L 45.90625 0 
L 18.109375 26.703125 
L 18.109375 0 
L 9.078125 0 
z
" id="DejaVuSans-6b"/>
      <path d="M 4.890625 31.390625 
L 31.203125 31.390625 
L 31.203125 23.390625 
L 4.890625 23.390625 
z
" id="DejaVuSans-2d"/>
      <path d="M 8.015625 75.875 
L 15.828125 75.875 
Q 23.140625 64.359375 26.78125 53.3125 
Q 30.421875 42.28125 30.421875 31.390625 
Q 30.421875 20.453125 26.78125 9.375 
Q 23.140625 -1.703125 15.828125 -13.1875 
L 8.015625 -13.1875 
Q 14.5 -2 17.703125 9.0625 
Q 20.90625 20.125 20.90625 31.390625 
Q 20.90625 42.671875 17.703125 53.65625 
Q 14.5 64.65625 8.015625 75.875 
z
" id="DejaVuSans-29"/>
     </defs>
     <g style="fill:#262626;" transform="translate(186.485167 418.44325)scale(0.096 -0.096)">
      <use xlink:href="#DejaVuSans-67"/>
      <use x="63.476562" xlink:href="#DejaVuSans-28"/>
      <use x="102.490234" xlink:href="#DejaVuSans-6b"/>
      <use x="160.400391" xlink:href="#DejaVuSans-2d"/>
      <use x="196.484375" xlink:href="#DejaVuSans-31"/>
      <use x="260.107422" xlink:href="#DejaVuSans-29"/>
     </g>
    </g>
   </g>
   <g id="matplotlib.axis_2">
    <g id="ytick_1">
     <g id="line2d_6">
      <defs>
       <path d="M 0 0 
L -4.8 0 
" id="m5194a29f8a" style="stroke:#262626;"/>
      </defs>
      <g>
       <use style="fill:#262626;stroke:#262626;" x="49.418" xlink:href="#m5194a29f8a" y="390.332"/>
      </g>
     </g>
     <g id="text_7">
      <!-- 0 -->
      <g style="fill:#262626;" transform="translate(35.519 393.675313)scale(0.088 -0.088)">
       <use xlink:href="#DejaVuSans-30"/>
      </g>
     </g>
    </g>
    <g id="ytick_2">
     <g id="line2d_7">
      <g>
       <use style="fill:#262626;stroke:#262626;" x="49.418" xlink:href="#m5194a29f8a" y="334.094061"/>
      </g>
     </g>
     <g id="text_8">
      <!-- 20 -->
      <g style="fill:#262626;" transform="translate(29.92 337.437373)scale(0.088 -0.088)">
       <use xlink:href="#DejaVuSans-32"/>
       <use x="63.623047" xlink:href="#DejaVuSans-30"/>
      </g>
     </g>
    </g>
    <g id="ytick_3">
     <g id="line2d_8">
      <g>
       <use style="fill:#262626;stroke:#262626;" x="49.418" xlink:href="#m5194a29f8a" y="277.856121"/>
      </g>
     </g>
     <g id="text_9">
      <!-- 40 -->
      <g style="fill:#262626;" transform="translate(29.92 281.199434)scale(0.088 -0.088)">
       <use xlink:href="#DejaVuSans-34"/>
       <use x="63.623047" xlink:href="#DejaVuSans-30"/>
      </g>
     </g>
    </g>
    <g id="ytick_4">
     <g id="line2d_9">
      <g>
       <use style="fill:#262626;stroke:#262626;" x="49.418" xlink:href="#m5194a29f8a" y="221.618182"/>
      </g>
     </g>
     <g id="text_10">
      <!-- 60 -->
      <g style="fill:#262626;" transform="translate(29.92 224.961494)scale(0.088 -0.088)">
       <use xlink:href="#DejaVuSans-36"/>
       <use x="63.623047" xlink:href="#DejaVuSans-30"/>
      </g>
     </g>
    </g>
    <g id="ytick_5">
     <g id="line2d_10">
      <g>
       <use style="fill:#262626;stroke:#262626;" x="49.418" xlink:href="#m5194a29f8a" y="165.380242"/>
      </g>
     </g>
     <g id="text_11">
      <!-- 80 -->
      <g style="fill:#262626;" transform="translate(29.92 168.723555)scale(0.088 -0.088)">
       <use xlink:href="#DejaVuSans-38"/>
       <use x="63.623047" xlink:href="#DejaVuSans-30"/>
      </g>
     </g>
    </g>
    <g id="ytick_6">
     <g id="line2d_11">
      <g>
       <use style="fill:#262626;stroke:#262626;" x="49.418" xlink:href="#m5194a29f8a" y="109.142303"/>
      </g>
     </g>
     <g id="text_12">
      <!-- 100 -->
      <g style="fill:#262626;" transform="translate(24.321 112.485616)scale(0.088 -0.088)">
       <use xlink:href="#DejaVuSans-31"/>
       <use x="63.623047" xlink:href="#DejaVuSans-30"/>
       <use x="127.246094" xlink:href="#DejaVuSans-30"/>
      </g>
     </g>
    </g>
    <g id="text_13">
     <!-- Time to cancer -->
     <defs>
      <path d="M -0.296875 72.90625 
L 61.375 72.90625 
L 61.375 64.59375 
L 35.5 64.59375 
L 35.5 0 
L 25.59375 0 
L 25.59375 64.59375 
L -0.296875 64.59375 
z
" id="DejaVuSans-54"/>
      <path d="M 9.421875 54.6875 
L 18.40625 54.6875 
L 18.40625 0 
L 9.421875 0 
z
M 9.421875 75.984375 
L 18.40625 75.984375 
L 18.40625 64.59375 
L 9.421875 64.59375 
z
" id="DejaVuSans-69"/>
      <path d="M 52 44.1875 
Q 55.375 50.25 60.0625 53.125 
Q 64.75 56 71.09375 56 
Q 79.640625 56 84.28125 50.015625 
Q 88.921875 44.046875 88.921875 33.015625 
L 88.921875 0 
L 79.890625 0 
L 79.890625 32.71875 
Q 79.890625 40.578125 77.09375 44.375 
Q 74.3125 48.1875 68.609375 48.1875 
Q 61.625 48.1875 57.5625 43.546875 
Q 53.515625 38.921875 53.515625 30.90625 
L 53.515625 0 
L 44.484375 0 
L 44.484375 32.71875 
Q 44.484375 40.625 41.703125 44.40625 
Q 38.921875 48.1875 33.109375 48.1875 
Q 26.21875 48.1875 22.15625 43.53125 
Q 18.109375 38.875 18.109375 30.90625 
L 18.109375 0 
L 9.078125 0 
L 9.078125 54.6875 
L 18.109375 54.6875 
L 18.109375 46.1875 
Q 21.1875 51.21875 25.484375 53.609375 
Q 29.78125 56 35.6875 56 
Q 41.65625 56 45.828125 52.96875 
Q 50 49.953125 52 44.1875 
z
" id="DejaVuSans-6d"/>
      <path d="M 56.203125 29.59375 
L 56.203125 25.203125 
L 14.890625 25.203125 
Q 15.484375 15.921875 20.484375 11.0625 
Q 25.484375 6.203125 34.421875 6.203125 
Q 39.59375 6.203125 44.453125 7.46875 
Q 49.3125 8.734375 54.109375 11.28125 
L 54.109375 2.78125 
Q 49.265625 0.734375 44.1875 -0.34375 
Q 39.109375 -1.421875 33.890625 -1.421875 
Q 20.796875 -1.421875 13.15625 6.1875 
Q 5.515625 13.8125 5.515625 26.8125 
Q 5.515625 40.234375 12.765625 48.109375 
Q 20.015625 56 32.328125 56 
Q 43.359375 56 49.78125 48.890625 
Q 56.203125 41.796875 56.203125 29.59375 
z
M 47.21875 32.234375 
Q 47.125 39.59375 43.09375 43.984375 
Q 39.0625 48.390625 32.421875 48.390625 
Q 24.90625 48.390625 20.390625 44.140625 
Q 15.875 39.890625 15.1875 32.171875 
z
" id="DejaVuSans-65"/>
      <path id="DejaVuSans-20"/>
      <path d="M 18.3125 70.21875 
L 18.3125 54.6875 
L 36.8125 54.6875 
L 36.8125 47.703125 
L 18.3125 47.703125 
L 18.3125 18.015625 
Q 18.3125 11.328125 20.140625 9.421875 
Q 21.96875 7.515625 27.59375 7.515625 
L 36.8125 7.515625 
L 36.8125 0 
L 27.59375 0 
Q 17.1875 0 13.234375 3.875 
Q 9.28125 7.765625 9.28125 18.015625 
L 9.28125 47.703125 
L 2.6875 47.703125 
L 2.6875 54.6875 
L 9.28125 54.6875 
L 9.28125 70.21875 
z
" id="DejaVuSans-74"/>
      <path d="M 30.609375 48.390625 
Q 23.390625 48.390625 19.1875 42.75 
Q 14.984375 37.109375 14.984375 27.296875 
Q 14.984375 17.484375 19.15625 11.84375 
Q 23.34375 6.203125 30.609375 6.203125 
Q 37.796875 6.203125 41.984375 11.859375 
Q 46.1875 17.53125 46.1875 27.296875 
Q 46.1875 37.015625 41.984375 42.703125 
Q 37.796875 48.390625 30.609375 48.390625 
z
M 30.609375 56 
Q 42.328125 56 49.015625 48.375 
Q 55.71875 40.765625 55.71875 27.296875 
Q 55.71875 13.875 49.015625 6.21875 
Q 42.328125 -1.421875 30.609375 -1.421875 
Q 18.84375 -1.421875 12.171875 6.21875 
Q 5.515625 13.875 5.515625 27.296875 
Q 5.515625 40.765625 12.171875 48.375 
Q 18.84375 56 30.609375 56 
z
" id="DejaVuSans-6f"/>
      <path d="M 48.78125 52.59375 
L 48.78125 44.1875 
Q 44.96875 46.296875 41.140625 47.34375 
Q 37.3125 48.390625 33.40625 48.390625 
Q 24.65625 48.390625 19.8125 42.84375 
Q 14.984375 37.3125 14.984375 27.296875 
Q 14.984375 17.28125 19.8125 11.734375 
Q 24.65625 6.203125 33.40625 6.203125 
Q 37.3125 6.203125 41.140625 7.25 
Q 44.96875 8.296875 48.78125 10.40625 
L 48.78125 2.09375 
Q 45.015625 0.34375 40.984375 -0.53125 
Q 36.96875 -1.421875 32.421875 -1.421875 
Q 20.0625 -1.421875 12.78125 6.34375 
Q 5.515625 14.109375 5.515625 27.296875 
Q 5.515625 40.671875 12.859375 48.328125 
Q 20.21875 56 33.015625 56 
Q 37.15625 56 41.109375 55.140625 
Q 45.0625 54.296875 48.78125 52.59375 
z
" id="DejaVuSans-63"/>
      <path d="M 34.28125 27.484375 
Q 23.390625 27.484375 19.1875 25 
Q 14.984375 22.515625 14.984375 16.5 
Q 14.984375 11.71875 18.140625 8.90625 
Q 21.296875 6.109375 26.703125 6.109375 
Q 34.1875 6.109375 38.703125 11.40625 
Q 43.21875 16.703125 43.21875 25.484375 
L 43.21875 27.484375 
z
M 52.203125 31.203125 
L 52.203125 0 
L 43.21875 0 
L 43.21875 8.296875 
Q 40.140625 3.328125 35.546875 0.953125 
Q 30.953125 -1.421875 24.3125 -1.421875 
Q 15.921875 -1.421875 10.953125 3.296875 
Q 6 8.015625 6 15.921875 
Q 6 25.140625 12.171875 29.828125 
Q 18.359375 34.515625 30.609375 34.515625 
L 43.21875 34.515625 
L 43.21875 35.40625 
Q 43.21875 41.609375 39.140625 45 
Q 35.0625 48.390625 27.6875 48.390625 
Q 23 48.390625 18.546875 47.265625 
Q 14.109375 46.140625 10.015625 43.890625 
L 10.015625 52.203125 
Q 14.9375 54.109375 19.578125 55.046875 
Q 24.21875 56 28.609375 56 
Q 40.484375 56 46.34375 49.84375 
Q 52.203125 43.703125 52.203125 31.203125 
z
" id="DejaVuSans-61"/>
      <path d="M 54.890625 33.015625 
L 54.890625 0 
L 45.90625 0 
L 45.90625 32.71875 
Q 45.90625 40.484375 42.875 44.328125 
Q 39.84375 48.1875 33.796875 48.1875 
Q 26.515625 48.1875 22.3125 43.546875 
Q 18.109375 38.921875 18.109375 30.90625 
L 18.109375 0 
L 9.078125 0 
L 9.078125 54.6875 
L 18.109375 54.6875 
L 18.109375 46.1875 
Q 21.34375 51.125 25.703125 53.5625 
Q 30.078125 56 35.796875 56 
Q 45.21875 56 50.046875 50.171875 
Q 54.890625 44.34375 54.890625 33.015625 
z
" id="DejaVuSans-6e"/>
      <path d="M 41.109375 46.296875 
Q 39.59375 47.171875 37.8125 47.578125 
Q 36.03125 48 33.890625 48 
Q 26.265625 48 22.1875 43.046875 
Q 18.109375 38.09375 18.109375 28.8125 
L 18.109375 0 
L 9.078125 0 
L 9.078125 54.6875 
L 18.109375 54.6875 
L 18.109375 46.1875 
Q 20.953125 51.171875 25.484375 53.578125 
Q 30.03125 56 36.53125 56 
Q 37.453125 56 38.578125 55.875 
Q 39.703125 55.765625 41.0625 55.515625 
z
" id="DejaVuSans-72"/>
     </defs>
     <g style="fill:#262626;" transform="translate(18.3245 271.628167)rotate(-90)scale(0.096 -0.096)">
      <use xlink:href="#DejaVuSans-54"/>
      <use x="61.037109" xlink:href="#DejaVuSans-69"/>
      <use x="88.820312" xlink:href="#DejaVuSans-6d"/>
      <use x="186.232422" xlink:href="#DejaVuSans-65"/>
      <use x="247.755859" xlink:href="#DejaVuSans-20"/>
      <use x="279.542969" xlink:href="#DejaVuSans-74"/>
      <use x="318.751953" xlink:href="#DejaVuSans-6f"/>
      <use x="379.933594" xlink:href="#DejaVuSans-20"/>
      <use x="411.720703" xlink:href="#DejaVuSans-63"/>
      <use x="466.701172" xlink:href="#DejaVuSans-61"/>
      <use x="527.980469" xlink:href="#DejaVuSans-6e"/>
      <use x="591.359375" xlink:href="#DejaVuSans-63"/>
      <use x="646.339844" xlink:href="#DejaVuSans-65"/>
      <use x="707.863281" xlink:href="#DejaVuSans-72"/>
     </g>
    </g>
   </g>
   <g id="PathCollection_1">
    <defs>
     <path d="M 0 2.4 
C 0.636487 2.4 1.246992 2.147121 1.697056 1.697056 
C 2.147121 1.246992 2.4 0.636487 2.4 0 
C 2.4 -0.636487 2.147121 -1.246992 1.697056 -1.697056 
C 1.246992 -2.147121 0.636487 -2.4 0 -2.4 
C -0.636487 -2.4 -1.246992 -2.147121 -1.697056 -1.697056 
C -2.147121 -1.246992 -2.4 -0.636487 -2.4 0 
C -2.4 0.636487 -2.147121 1.246992 -1.697056 1.697056 
C -1.246992 2.147121 -0.636487 2.4 0 2.4 
z
" id="m3ed5312247" style="stroke:#471365;stroke-opacity:0.8;"/>
    </defs>
    <g clip-path="url(#p68e5a4cbf0)">
     <use style="fill:#471365;fill-opacity:0.8;stroke:#471365;stroke-opacity:0.8;" x="162.274534" xlink:href="#m3ed5312247" y="146.097563"/>
     <use style="fill:#471365;fill-opacity:0.8;stroke:#471365;stroke-opacity:0.8;" x="231.570715" xlink:href="#m3ed5312247" y="211.903656"/>
     <use style="fill:#471365;fill-opacity:0.8;stroke:#471365;stroke-opacity:0.8;" x="158.959274" xlink:href="#m3ed5312247" y="207.905369"/>
     <use style="fill:#471365;fill-opacity:0.8;stroke:#471365;stroke-opacity:0.8;" x="160.159559" xlink:href="#m3ed5312247" y="218.174571"/>
     <use style="fill:#471365;fill-opacity:0.8;stroke:#471365;stroke-opacity:0.8;" x="160.623762" xlink:href="#m3ed5312247" y="157.067813"/>
     <use style="fill:#471365;fill-opacity:0.8;stroke:#471365;stroke-opacity:0.8;" x="168.065523" xlink:href="#m3ed5312247" y="141.829642"/>
     <use style="fill:#471365;fill-opacity:0.8;stroke:#471365;stroke-opacity:0.8;" x="168.56191" xlink:href="#m3ed5312247" y="176.057747"/>
     <use style="fill:#471365;fill-opacity:0.8;stroke:#471365;stroke-opacity:0.8;" x="139.186671" xlink:href="#m3ed5312247" y="138.370624"/>
     <use style="fill:#471365;fill-opacity:0.8;stroke:#471365;stroke-opacity:0.8;" x="187.895143" xlink:href="#m3ed5312247" y="171.928496"/>
     <use style="fill:#471365;fill-opacity:0.8;stroke:#471365;stroke-opacity:0.8;" x="186.429548" xlink:href="#m3ed5312247" y="119.96618"/>
     <use style="fill:#471365;fill-opacity:0.8;stroke:#471365;stroke-opacity:0.8;" x="173.264658" xlink:href="#m3ed5312247" y="205.910078"/>
     <use style="fill:#471365;fill-opacity:0.8;stroke:#471365;stroke-opacity:0.8;" x="207.625751" xlink:href="#m3ed5312247" y="178.33808"/>
     <use style="fill:#471365;fill-opacity:0.8;stroke:#471365;stroke-opacity:0.8;" x="158.975412" xlink:href="#m3ed5312247" y="148.601307"/>
     <use style="fill:#471365;fill-opacity:0.8;stroke:#471365;stroke-opacity:0.8;" x="153.513382" xlink:href="#m3ed5312247" y="169.987131"/>
     <use style="fill:#471365;fill-opacity:0.8;stroke:#471365;stroke-opacity:0.8;" x="138.41301" xlink:href="#m3ed5312247" y="155.611789"/>
     <use style="fill:#471365;fill-opacity:0.8;stroke:#471365;stroke-opacity:0.8;" x="119.148549" xlink:href="#m3ed5312247" y="129.2647"/>
     <use style="fill:#471365;fill-opacity:0.8;stroke:#471365;stroke-opacity:0.8;" x="165.262418" xlink:href="#m3ed5312247" y="172.113387"/>
     <use style="fill:#471365;fill-opacity:0.8;stroke:#471365;stroke-opacity:0.8;" x="157.74204" xlink:href="#m3ed5312247" y="140.897479"/>
     <use style="fill:#471365;fill-opacity:0.8;stroke:#471365;stroke-opacity:0.8;" x="169.424213" xlink:href="#m3ed5312247" y="206.279862"/>
     <use style="fill:#471365;fill-opacity:0.8;stroke:#471365;stroke-opacity:0.8;" x="205.242523" xlink:href="#m3ed5312247" y="211.264238"/>
     <use style="fill:#471365;fill-opacity:0.8;stroke:#471365;stroke-opacity:0.8;" x="159.03741" xlink:href="#m3ed5312247" y="165.626765"/>
     <use style="fill:#471365;fill-opacity:0.8;stroke:#471365;stroke-opacity:0.8;" x="161.164325" xlink:href="#m3ed5312247" y="126.021389"/>
     <use style="fill:#471365;fill-opacity:0.8;stroke:#471365;stroke-opacity:0.8;" x="160.199332" xlink:href="#m3ed5312247" y="189.793671"/>
     <use style="fill:#471365;fill-opacity:0.8;stroke:#471365;stroke-opacity:0.8;" x="179.374819" xlink:href="#m3ed5312247" y="191.326733"/>
     <use style="fill:#471365;fill-opacity:0.8;stroke:#471365;stroke-opacity:0.8;" x="159.36891" xlink:href="#m3ed5312247" y="118.895348"/>
     <use style="fill:#471365;fill-opacity:0.8;stroke:#471365;stroke-opacity:0.8;" x="139.308157" xlink:href="#m3ed5312247" y="157.345151"/>
     <use style="fill:#471365;fill-opacity:0.8;stroke:#471365;stroke-opacity:0.8;" x="252.268742" xlink:href="#m3ed5312247" y="190.55635"/>
     <use style="fill:#471365;fill-opacity:0.8;stroke:#471365;stroke-opacity:0.8;" x="137.447264" xlink:href="#m3ed5312247" y="141.128594"/>
     <use style="fill:#471365;fill-opacity:0.8;stroke:#471365;stroke-opacity:0.8;" x="150.220377" xlink:href="#m3ed5312247" y="173.892972"/>
     <use style="fill:#471365;fill-opacity:0.8;stroke:#471365;stroke-opacity:0.8;" x="139.789117" xlink:href="#m3ed5312247" y="145.643037"/>
     <use style="fill:#471365;fill-opacity:0.8;stroke:#471365;stroke-opacity:0.8;" x="162.059635" xlink:href="#m3ed5312247" y="206.056451"/>
     <use style="fill:#471365;fill-opacity:0.8;stroke:#471365;stroke-opacity:0.8;" x="178.285516" xlink:href="#m3ed5312247" y="207.612624"/>
     <use style="fill:#471365;fill-opacity:0.8;stroke:#471365;stroke-opacity:0.8;" x="171.769298" xlink:href="#m3ed5312247" y="166.21996"/>
     <use style="fill:#471365;fill-opacity:0.8;stroke:#471365;stroke-opacity:0.8;" x="151.294909" xlink:href="#m3ed5312247" y="112.84014"/>
     <use style="fill:#471365;fill-opacity:0.8;stroke:#471365;stroke-opacity:0.8;" x="195.296397" xlink:href="#m3ed5312247" y="167.313903"/>
     <use style="fill:#471365;fill-opacity:0.8;stroke:#471365;stroke-opacity:0.8;" x="144.936259" xlink:href="#m3ed5312247" y="137.869875"/>
     <use style="fill:#471365;fill-opacity:0.8;stroke:#471365;stroke-opacity:0.8;" x="170.762391" xlink:href="#m3ed5312247" y="143.925083"/>
     <use style="fill:#471365;fill-opacity:0.8;stroke:#471365;stroke-opacity:0.8;" x="206.159139" xlink:href="#m3ed5312247" y="150.796897"/>
     <use style="fill:#471365;fill-opacity:0.8;stroke:#471365;stroke-opacity:0.8;" x="155.280696" xlink:href="#m3ed5312247" y="134.988644"/>
     <use style="fill:#471365;fill-opacity:0.8;stroke:#471365;stroke-opacity:0.8;" x="163.322875" xlink:href="#m3ed5312247" y="123.471422"/>
     <use style="fill:#471365;fill-opacity:0.8;stroke:#471365;stroke-opacity:0.8;" x="167.687285" xlink:href="#m3ed5312247" y="182.675335"/>
     <use style="fill:#471365;fill-opacity:0.8;stroke:#471365;stroke-opacity:0.8;" x="232.765039" xlink:href="#m3ed5312247" y="184.069727"/>
     <use style="fill:#471365;fill-opacity:0.8;stroke:#471365;stroke-opacity:0.8;" x="206.631399" xlink:href="#m3ed5312247" y="168.77763"/>
     <use style="fill:#471365;fill-opacity:0.8;stroke:#471365;stroke-opacity:0.8;" x="172.526531" xlink:href="#m3ed5312247" y="178.784902"/>
     <use style="fill:#471365;fill-opacity:0.8;stroke:#471365;stroke-opacity:0.8;" x="204.633132" xlink:href="#m3ed5312247" y="203.545003"/>
     <use style="fill:#471365;fill-opacity:0.8;stroke:#471365;stroke-opacity:0.8;" x="192.119204" xlink:href="#m3ed5312247" y="169.794535"/>
     <use style="fill:#471365;fill-opacity:0.8;stroke:#471365;stroke-opacity:0.8;" x="185.011579" xlink:href="#m3ed5312247" y="178.083854"/>
     <use style="fill:#471365;fill-opacity:0.8;stroke:#471365;stroke-opacity:0.8;" x="208.950151" xlink:href="#m3ed5312247" y="194.015369"/>
     <use style="fill:#471365;fill-opacity:0.8;stroke:#471365;stroke-opacity:0.8;" x="172.799669" xlink:href="#m3ed5312247" y="183.838613"/>
     <use style="fill:#471365;fill-opacity:0.8;stroke:#471365;stroke-opacity:0.8;" x="282.537784" xlink:href="#m3ed5312247" y="179.462839"/>
     <use style="fill:#471365;fill-opacity:0.8;stroke:#471365;stroke-opacity:0.8;" x="168.952323" xlink:href="#m3ed5312247" y="153.80139"/>
     <use style="fill:#471365;fill-opacity:0.8;stroke:#471365;stroke-opacity:0.8;" x="254.424275" xlink:href="#m3ed5312247" y="228.374438"/>
    </g>
   </g>
   <g id="PolyCollection_1">
    <defs>
     <path d="M 63.183924 -337.891627 
L 63.183924 -290.715649 
L 65.964919 -289.978363 
L 68.745914 -289.24224 
L 71.526909 -288.356875 
L 74.307903 -287.604287 
L 77.088898 -286.902908 
L 79.869893 -286.277248 
L 82.650888 -285.547981 
L 85.431883 -284.810836 
L 88.212877 -284.077512 
L 90.993872 -283.342681 
L 93.774867 -282.608022 
L 96.555862 -281.82891 
L 99.336857 -281.004595 
L 102.117851 -280.224102 
L 104.898846 -279.446375 
L 107.679841 -278.668648 
L 110.460836 -277.923278 
L 113.241831 -277.109442 
L 116.022825 -276.327048 
L 118.80382 -275.550064 
L 121.584815 -274.741055 
L 124.36581 -273.989352 
L 127.146805 -273.147551 
L 129.927799 -272.300849 
L 132.708794 -271.572616 
L 135.489789 -270.714536 
L 138.270784 -269.7768 
L 141.051779 -268.912615 
L 143.832773 -268.06459 
L 146.613768 -267.2103 
L 149.394763 -266.339176 
L 152.175758 -265.408601 
L 154.956753 -264.566968 
L 157.737747 -263.655161 
L 160.518742 -262.772196 
L 163.299737 -261.831893 
L 166.080732 -260.608602 
L 168.861727 -259.58067 
L 171.642721 -258.50661 
L 174.423716 -257.338727 
L 177.204711 -255.825418 
L 179.985706 -254.512631 
L 182.7667 -253.312451 
L 185.547695 -251.782595 
L 188.32869 -250.272001 
L 191.109685 -248.759189 
L 193.89068 -247.377619 
L 196.671674 -245.733168 
L 199.452669 -244.05504 
L 202.233664 -242.3422 
L 205.014659 -240.665877 
L 207.795654 -239.159643 
L 210.576648 -237.359549 
L 213.357643 -235.635478 
L 216.138638 -233.939924 
L 218.919633 -232.279507 
L 221.700628 -230.598046 
L 224.481622 -228.847399 
L 227.262617 -227.145437 
L 230.043612 -225.500944 
L 232.824607 -223.82395 
L 235.605602 -222.127322 
L 238.386596 -220.401475 
L 241.167591 -218.686317 
L 243.948586 -217.025414 
L 246.729581 -215.294666 
L 249.510576 -213.521321 
L 252.29157 -211.765878 
L 255.072565 -210.023365 
L 257.85356 -208.443495 
L 260.634555 -206.660742 
L 263.41555 -204.753162 
L 266.196544 -202.922557 
L 268.977539 -200.999585 
L 271.758534 -199.084273 
L 274.539529 -197.168961 
L 277.320524 -195.253648 
L 280.101518 -193.338336 
L 282.882513 -191.425936 
L 285.663508 -189.557878 
L 288.444503 -187.772984 
L 291.225498 -185.991197 
L 294.006492 -184.150471 
L 296.787487 -182.399463 
L 299.568482 -180.644486 
L 302.349477 -178.860366 
L 305.130472 -176.994731 
L 307.911466 -175.12041 
L 310.692461 -173.232134 
L 313.473456 -171.315739 
L 316.254451 -169.399344 
L 319.035446 -167.482949 
L 321.81644 -165.566555 
L 324.597435 -163.65016 
L 327.37843 -161.733765 
L 330.159425 -159.81737 
L 332.940419 -157.900976 
L 335.721414 -155.984581 
L 338.502409 -154.068186 
L 338.502409 -219.457522 
L 338.502409 -219.457522 
L 335.721414 -220.201911 
L 332.940419 -220.953618 
L 330.159425 -221.692816 
L 327.37843 -222.440427 
L 324.597435 -223.188037 
L 321.81644 -223.935648 
L 319.035446 -224.683258 
L 316.254451 -225.50893 
L 313.473456 -226.358378 
L 310.692461 -227.204444 
L 307.911466 -228.01475 
L 305.130472 -228.822761 
L 302.349477 -229.582696 
L 299.568482 -230.442118 
L 296.787487 -231.3135 
L 294.006492 -232.184881 
L 291.225498 -233.056263 
L 288.444503 -233.741473 
L 285.663508 -234.548952 
L 282.882513 -235.183394 
L 280.101518 -235.929503 
L 277.320524 -236.897267 
L 274.539529 -237.52319 
L 271.758534 -238.479618 
L 268.977539 -239.255066 
L 266.196544 -240.023277 
L 263.41555 -240.872077 
L 260.634555 -241.6489 
L 257.85356 -242.533096 
L 255.072565 -243.417293 
L 252.29157 -244.28875 
L 249.510576 -245.093202 
L 246.729581 -245.796753 
L 243.948586 -246.633908 
L 241.167591 -247.560562 
L 238.386596 -248.522726 
L 235.605602 -249.398801 
L 232.824607 -250.170387 
L 230.043612 -251.123288 
L 227.262617 -251.978275 
L 224.481622 -252.873003 
L 221.700628 -253.931772 
L 218.919633 -254.745931 
L 216.138638 -255.705626 
L 213.357643 -256.515262 
L 210.576648 -257.322133 
L 207.795654 -258.289803 
L 205.014659 -259.322944 
L 202.233664 -260.233366 
L 199.452669 -261.195028 
L 196.671674 -262.0617 
L 193.89068 -263.089866 
L 191.109685 -264.163162 
L 188.32869 -265.314467 
L 185.547695 -266.380147 
L 182.7667 -267.487014 
L 179.985706 -268.699106 
L 177.204711 -269.926445 
L 174.423716 -270.96505 
L 171.642721 -272.273802 
L 168.861727 -273.828687 
L 166.080732 -275.199484 
L 163.299737 -276.53779 
L 160.518742 -277.780316 
L 157.737747 -279.407648 
L 154.956753 -280.927634 
L 152.175758 -282.524602 
L 149.394763 -284.234954 
L 146.613768 -285.822103 
L 143.832773 -287.333228 
L 141.051779 -289.066431 
L 138.270784 -290.833271 
L 135.489789 -292.468463 
L 132.708794 -294.120953 
L 129.927799 -295.968453 
L 127.146805 -297.726801 
L 124.36581 -299.430969 
L 121.584815 -301.158915 
L 118.80382 -302.883604 
L 116.022825 -304.669067 
L 113.241831 -306.339024 
L 110.460836 -308.191353 
L 107.679841 -310.065392 
L 104.898846 -311.942957 
L 102.117851 -313.81451 
L 99.336857 -315.545641 
L 96.555862 -317.205979 
L 93.774867 -318.864787 
L 90.993872 -320.523594 
L 88.212877 -322.182401 
L 85.431883 -323.841209 
L 82.650888 -325.500016 
L 79.869893 -327.361022 
L 77.088898 -329.120092 
L 74.307903 -330.992993 
L 71.526909 -332.796713 
L 68.745914 -334.495018 
L 65.964919 -336.193323 
L 63.183924 -337.891627 
z
" id="mf0228533b2" style="stroke:#ffffff;stroke-opacity:0.15;stroke-width:0.8;"/>
    </defs>
    <g clip-path="url(#p68e5a4cbf0)">
     <use style="fill:#471365;fill-opacity:0.15;stroke:#ffffff;stroke-opacity:0.15;stroke-width:0.8;" x="0" xlink:href="#mf0228533b2" y="432"/>
    </g>
   </g>
   <g id="line2d_12">
    <path clip-path="url(#p68e5a4cbf0)" d="M 63.183924 118.745687 
L 65.964919 119.971765 
L 68.745914 121.197843 
L 71.526909 122.42392 
L 74.307903 123.649998 
L 77.088898 124.876076 
L 79.869893 126.102153 
L 82.650888 127.328231 
L 85.431883 128.554309 
L 88.212877 129.780386 
L 90.993872 131.006464 
L 93.774867 132.232541 
L 96.555862 133.458619 
L 99.336857 134.684697 
L 102.117851 135.910774 
L 104.898846 137.136852 
L 107.679841 138.36293 
L 110.460836 139.589007 
L 113.241831 140.815085 
L 116.022825 142.041163 
L 118.80382 143.26724 
L 121.584815 144.493318 
L 124.36581 145.719396 
L 127.146805 146.945473 
L 129.927799 148.171551 
L 132.708794 149.397629 
L 135.489789 150.623706 
L 138.270784 151.849784 
L 141.051779 153.075861 
L 143.832773 154.301939 
L 146.613768 155.528017 
L 149.394763 156.754094 
L 152.175758 157.980172 
L 154.956753 159.20625 
L 157.737747 160.432327 
L 160.518742 161.658405 
L 163.299737 162.884483 
L 166.080732 164.11056 
L 168.861727 165.336638 
L 171.642721 166.562716 
L 174.423716 167.788793 
L 177.204711 169.014871 
L 179.985706 170.240949 
L 182.7667 171.467026 
L 185.547695 172.693104 
L 188.32869 173.919182 
L 191.109685 175.145259 
L 193.89068 176.371337 
L 196.671674 177.597414 
L 199.452669 178.823492 
L 202.233664 180.04957 
L 205.014659 181.275647 
L 207.795654 182.501725 
L 210.576648 183.727803 
L 213.357643 184.95388 
L 216.138638 186.179958 
L 218.919633 187.406036 
L 221.700628 188.632113 
L 224.481622 189.858191 
L 227.262617 191.084269 
L 230.043612 192.310346 
L 232.824607 193.536424 
L 235.605602 194.762502 
L 238.386596 195.988579 
L 241.167591 197.214657 
L 243.948586 198.440734 
L 246.729581 199.666812 
L 249.510576 200.89289 
L 252.29157 202.118967 
L 255.072565 203.345045 
L 257.85356 204.571123 
L 260.634555 205.7972 
L 263.41555 207.023278 
L 266.196544 208.249356 
L 268.977539 209.475433 
L 271.758534 210.701511 
L 274.539529 211.927589 
L 277.320524 213.153666 
L 280.101518 214.379744 
L 282.882513 215.605822 
L 285.663508 216.831899 
L 288.444503 218.057977 
L 291.225498 219.284054 
L 294.006492 220.510132 
L 296.787487 221.73621 
L 299.568482 222.962287 
L 302.349477 224.188365 
L 305.130472 225.414443 
L 307.911466 226.64052 
L 310.692461 227.866598 
L 313.473456 229.092676 
L 316.254451 230.318753 
L 319.035446 231.544831 
L 321.81644 232.770909 
L 324.597435 233.996986 
L 327.37843 235.223064 
L 330.159425 236.449142 
L 332.940419 237.675219 
L 335.721414 238.901297 
L 338.502409 240.127375 
" style="fill:none;stroke:#471365;stroke-linecap:round;stroke-width:1.8;"/>
   </g>
   <g id="patch_3">
    <path d="M 49.418 390.332 
L 49.418 81.023333 
" style="fill:none;stroke:#262626;stroke-linecap:square;stroke-linejoin:miter;"/>
   </g>
   <g id="patch_4">
    <path d="M 49.418 390.332 
L 352.268333 390.332 
" style="fill:none;stroke:#262626;stroke-linecap:square;stroke-linejoin:miter;"/>
   </g>
   <g id="legend_1">
    <g id="patch_5">
     <path d="M 182.330708 100.980083 
L 346.108333 100.980083 
Q 347.868333 100.980083 347.868333 99.220083 
L 347.868333 87.183333 
Q 347.868333 85.423333 346.108333 85.423333 
L 182.330708 85.423333 
Q 180.570708 85.423333 180.570708 87.183333 
L 180.570708 99.220083 
Q 180.570708 100.980083 182.330708 100.980083 
z
" style="fill:#ffffff;opacity:0.8;stroke:#cccccc;stroke-linejoin:miter;stroke-width:0.8;"/>
    </g>
    <g id="line2d_13"/>
    <g id="line2d_14"/>
    <g id="text_14">
     <!-- pearsonr = -0.49; p = 0.00024 -->
     <defs>
      <path d="M 18.109375 8.203125 
L 18.109375 -20.796875 
L 9.078125 -20.796875 
L 9.078125 54.6875 
L 18.109375 54.6875 
L 18.109375 46.390625 
Q 20.953125 51.265625 25.265625 53.625 
Q 29.59375 56 35.59375 56 
Q 45.5625 56 51.78125 48.09375 
Q 58.015625 40.1875 58.015625 27.296875 
Q 58.015625 14.40625 51.78125 6.484375 
Q 45.5625 -1.421875 35.59375 -1.421875 
Q 29.59375 -1.421875 25.265625 0.953125 
Q 20.953125 3.328125 18.109375 8.203125 
z
M 48.6875 27.296875 
Q 48.6875 37.203125 44.609375 42.84375 
Q 40.53125 48.484375 33.40625 48.484375 
Q 26.265625 48.484375 22.1875 42.84375 
Q 18.109375 37.203125 18.109375 27.296875 
Q 18.109375 17.390625 22.1875 11.75 
Q 26.265625 6.109375 33.40625 6.109375 
Q 40.53125 6.109375 44.609375 11.75 
Q 48.6875 17.390625 48.6875 27.296875 
z
" id="DejaVuSans-70"/>
      <path d="M 44.28125 53.078125 
L 44.28125 44.578125 
Q 40.484375 46.53125 36.375 47.5 
Q 32.28125 48.484375 27.875 48.484375 
Q 21.1875 48.484375 17.84375 46.4375 
Q 14.5 44.390625 14.5 40.28125 
Q 14.5 37.15625 16.890625 35.375 
Q 19.28125 33.59375 26.515625 31.984375 
L 29.59375 31.296875 
Q 39.15625 29.25 43.1875 25.515625 
Q 47.21875 21.78125 47.21875 15.09375 
Q 47.21875 7.46875 41.1875 3.015625 
Q 35.15625 -1.421875 24.609375 -1.421875 
Q 20.21875 -1.421875 15.453125 -0.5625 
Q 10.6875 0.296875 5.421875 2 
L 5.421875 11.28125 
Q 10.40625 8.6875 15.234375 7.390625 
Q 20.0625 6.109375 24.8125 6.109375 
Q 31.15625 6.109375 34.5625 8.28125 
Q 37.984375 10.453125 37.984375 14.40625 
Q 37.984375 18.0625 35.515625 20.015625 
Q 33.0625 21.96875 24.703125 23.78125 
L 21.578125 24.515625 
Q 13.234375 26.265625 9.515625 29.90625 
Q 5.8125 33.546875 5.8125 39.890625 
Q 5.8125 47.609375 11.28125 51.796875 
Q 16.75 56 26.8125 56 
Q 31.78125 56 36.171875 55.265625 
Q 40.578125 54.546875 44.28125 53.078125 
z
" id="DejaVuSans-73"/>
      <path d="M 10.59375 45.40625 
L 73.1875 45.40625 
L 73.1875 37.203125 
L 10.59375 37.203125 
z
M 10.59375 25.484375 
L 73.1875 25.484375 
L 73.1875 17.1875 
L 10.59375 17.1875 
z
" id="DejaVuSans-3d"/>
      <path d="M 10.6875 12.40625 
L 21 12.40625 
L 21 0 
L 10.6875 0 
z
" id="DejaVuSans-2e"/>
      <path d="M 10.984375 1.515625 
L 10.984375 10.5 
Q 14.703125 8.734375 18.5 7.8125 
Q 22.3125 6.890625 25.984375 6.890625 
Q 35.75 6.890625 40.890625 13.453125 
Q 46.046875 20.015625 46.78125 33.40625 
Q 43.953125 29.203125 39.59375 26.953125 
Q 35.25 24.703125 29.984375 24.703125 
Q 19.046875 24.703125 12.671875 31.3125 
Q 6.296875 37.9375 6.296875 49.421875 
Q 6.296875 60.640625 12.9375 67.421875 
Q 19.578125 74.21875 30.609375 74.21875 
Q 43.265625 74.21875 49.921875 64.515625 
Q 56.59375 54.828125 56.59375 36.375 
Q 56.59375 19.140625 48.40625 8.859375 
Q 40.234375 -1.421875 26.421875 -1.421875 
Q 22.703125 -1.421875 18.890625 -0.6875 
Q 15.09375 0.046875 10.984375 1.515625 
z
M 30.609375 32.421875 
Q 37.25 32.421875 41.125 36.953125 
Q 45.015625 41.5 45.015625 49.421875 
Q 45.015625 57.28125 41.125 61.84375 
Q 37.25 66.40625 30.609375 66.40625 
Q 23.96875 66.40625 20.09375 61.84375 
Q 16.21875 57.28125 16.21875 49.421875 
Q 16.21875 41.5 20.09375 36.953125 
Q 23.96875 32.421875 30.609375 32.421875 
z
" id="DejaVuSans-39"/>
      <path d="M 11.71875 51.703125 
L 22.015625 51.703125 
L 22.015625 39.3125 
L 11.71875 39.3125 
z
M 11.71875 12.40625 
L 22.015625 12.40625 
L 22.015625 4 
L 14.015625 -11.625 
L 7.71875 -11.625 
L 11.71875 4 
z
" id="DejaVuSans-3b"/>
     </defs>
     <g style="fill:#262626;" transform="translate(208.730708 95.629958)scale(0.088 -0.088)">
      <use xlink:href="#DejaVuSans-70"/>
      <use x="63.476562" xlink:href="#DejaVuSans-65"/>
      <use x="125" xlink:href="#DejaVuSans-61"/>
      <use x="186.279297" xlink:href="#DejaVuSans-72"/>
      <use x="227.392578" xlink:href="#DejaVuSans-73"/>
      <use x="279.492188" xlink:href="#DejaVuSans-6f"/>
      <use x="340.673828" xlink:href="#DejaVuSans-6e"/>
      <use x="404.052734" xlink:href="#DejaVuSans-72"/>
      <use x="445.166016" xlink:href="#DejaVuSans-20"/>
      <use x="476.953125" xlink:href="#DejaVuSans-3d"/>
      <use x="560.742188" xlink:href="#DejaVuSans-20"/>
      <use x="592.529297" xlink:href="#DejaVuSans-2d"/>
      <use x="628.613281" xlink:href="#DejaVuSans-30"/>
      <use x="692.236328" xlink:href="#DejaVuSans-2e"/>
      <use x="724.023438" xlink:href="#DejaVuSans-34"/>
      <use x="787.646484" xlink:href="#DejaVuSans-39"/>
      <use x="851.269531" xlink:href="#DejaVuSans-3b"/>
      <use x="884.960938" xlink:href="#DejaVuSans-20"/>
      <use x="916.748047" xlink:href="#DejaVuSans-70"/>
      <use x="980.224609" xlink:href="#DejaVuSans-20"/>
      <use x="1012.011719" xlink:href="#DejaVuSans-3d"/>
      <use x="1095.800781" xlink:href="#DejaVuSans-20"/>
      <use x="1127.587891" xlink:href="#DejaVuSans-30"/>
      <use x="1191.210938" xlink:href="#DejaVuSans-2e"/>
      <use x="1222.998047" xlink:href="#DejaVuSans-30"/>
      <use x="1286.621094" xlink:href="#DejaVuSans-30"/>
      <use x="1350.244141" xlink:href="#DejaVuSans-30"/>
      <use x="1413.867188" xlink:href="#DejaVuSans-32"/>
      <use x="1477.490234" xlink:href="#DejaVuSans-34"/>
     </g>
    </g>
   </g>
  </g>
  <g id="axes_2">
   <g id="patch_6">
    <path d="M 49.418 61.055333 
L 352.268333 61.055333 
L 352.268333 15.168 
L 49.418 15.168 
z
" style="fill:#ffffff;"/>
   </g>
   <g id="matplotlib.axis_3">
    <g id="xtick_6">
     <g id="line2d_15">
      <g>
       <use style="fill:#262626;stroke:#262626;" x="88.32049" xlink:href="#m2434083fa2" y="61.055333"/>
      </g>
     </g>
    </g>
    <g id="xtick_7">
     <g id="line2d_16">
      <g>
       <use style="fill:#262626;stroke:#262626;" x="142.728989" xlink:href="#m2434083fa2" y="61.055333"/>
      </g>
     </g>
    </g>
    <g id="xtick_8">
     <g id="line2d_17">
      <g>
       <use style="fill:#262626;stroke:#262626;" x="197.137488" xlink:href="#m2434083fa2" y="61.055333"/>
      </g>
     </g>
    </g>
    <g id="xtick_9">
     <g id="line2d_18">
      <g>
       <use style="fill:#262626;stroke:#262626;" x="251.545988" xlink:href="#m2434083fa2" y="61.055333"/>
      </g>
     </g>
    </g>
    <g id="xtick_10">
     <g id="line2d_19">
      <g>
       <use style="fill:#262626;stroke:#262626;" x="305.954487" xlink:href="#m2434083fa2" y="61.055333"/>
      </g>
     </g>
    </g>
   </g>
   <g id="matplotlib.axis_4">
    <g id="ytick_7"/>
    <g id="ytick_8"/>
   </g>
   <g id="patch_7">
    <path clip-path="url(#p8c9faca069)" d="M 119.148549 61.055333 
L 134.002116 61.055333 
L 134.002116 58.323944 
L 119.148549 58.323944 
z
" style="fill:#471365;opacity:0.4;stroke:#ffffff;stroke-linejoin:miter;stroke-width:0.8;"/>
   </g>
   <g id="patch_8">
    <path clip-path="url(#p8c9faca069)" d="M 134.002116 61.055333 
L 148.855683 61.055333 
L 148.855683 44.667 
L 134.002116 44.667 
z
" style="fill:#471365;opacity:0.4;stroke:#ffffff;stroke-linejoin:miter;stroke-width:0.8;"/>
   </g>
   <g id="patch_9">
    <path clip-path="url(#p8c9faca069)" d="M 148.855683 61.055333 
L 163.70925 61.055333 
L 163.70925 17.353111 
L 148.855683 17.353111 
z
" style="fill:#471365;opacity:0.4;stroke:#ffffff;stroke-linejoin:miter;stroke-width:0.8;"/>
   </g>
   <g id="patch_10">
    <path clip-path="url(#p8c9faca069)" d="M 163.70925 61.055333 
L 178.562816 61.055333 
L 178.562816 28.278667 
L 163.70925 28.278667 
z
" style="fill:#471365;opacity:0.4;stroke:#ffffff;stroke-linejoin:miter;stroke-width:0.8;"/>
   </g>
   <g id="patch_11">
    <path clip-path="url(#p8c9faca069)" d="M 178.562816 61.055333 
L 193.416383 61.055333 
L 193.416383 47.398389 
L 178.562816 47.398389 
z
" style="fill:#471365;opacity:0.4;stroke:#ffffff;stroke-linejoin:miter;stroke-width:0.8;"/>
   </g>
   <g id="patch_12">
    <path clip-path="url(#p8c9faca069)" d="M 193.416383 61.055333 
L 208.26995 61.055333 
L 208.26995 44.667 
L 193.416383 44.667 
z
" style="fill:#471365;opacity:0.4;stroke:#ffffff;stroke-linejoin:miter;stroke-width:0.8;"/>
   </g>
   <g id="patch_13">
    <path clip-path="url(#p8c9faca069)" d="M 208.26995 61.055333 
L 223.123517 61.055333 
L 223.123517 58.323944 
L 208.26995 58.323944 
z
" style="fill:#471365;opacity:0.4;stroke:#ffffff;stroke-linejoin:miter;stroke-width:0.8;"/>
   </g>
   <g id="patch_14">
    <path clip-path="url(#p8c9faca069)" d="M 223.123517 61.055333 
L 237.977084 61.055333 
L 237.977084 55.592556 
L 223.123517 55.592556 
z
" style="fill:#471365;opacity:0.4;stroke:#ffffff;stroke-linejoin:miter;stroke-width:0.8;"/>
   </g>
   <g id="patch_15">
    <path clip-path="url(#p8c9faca069)" d="M 237.977084 61.055333 
L 252.83065 61.055333 
L 252.83065 58.323944 
L 237.977084 58.323944 
z
" style="fill:#471365;opacity:0.4;stroke:#ffffff;stroke-linejoin:miter;stroke-width:0.8;"/>
   </g>
   <g id="patch_16">
    <path clip-path="url(#p8c9faca069)" d="M 252.83065 61.055333 
L 267.684217 61.055333 
L 267.684217 58.323944 
L 252.83065 58.323944 
z
" style="fill:#471365;opacity:0.4;stroke:#ffffff;stroke-linejoin:miter;stroke-width:0.8;"/>
   </g>
   <g id="patch_17">
    <path clip-path="url(#p8c9faca069)" d="M 267.684217 61.055333 
L 282.537784 61.055333 
L 282.537784 58.323944 
L 267.684217 58.323944 
z
" style="fill:#471365;opacity:0.4;stroke:#ffffff;stroke-linejoin:miter;stroke-width:0.8;"/>
   </g>
   <g id="line2d_20">
    <path clip-path="url(#p8c9faca069)" d="M 75.698401 61.041394 
L 78.226578 61.03215 
L 80.754755 61.017816 
L 83.282932 60.996218 
L 85.811109 60.964574 
L 88.339286 60.919437 
L 90.867463 60.856676 
L 93.39564 60.771456 
L 95.923818 60.658237 
L 98.451995 60.510723 
L 100.980172 60.321781 
L 103.508349 60.083293 
L 106.036526 59.785969 
L 108.564703 59.419187 
L 111.09288 58.970916 
L 113.621057 58.427834 
L 116.149234 57.775684 
L 118.677411 56.999902 
L 121.205588 56.086448 
L 123.733765 55.022776 
L 126.261943 53.798811 
L 128.79012 52.407913 
L 131.318297 50.847834 
L 133.846474 49.121807 
L 136.374651 47.239919 
L 138.902828 45.220844 
L 141.431005 43.093853 
L 143.959182 40.900742 
L 146.487359 38.697064 
L 149.015536 36.551934 
L 151.543713 34.545729 
L 154.071891 32.765337 
L 156.600068 31.297102 
L 159.128245 30.218222 
L 161.656422 29.587827 
L 164.184599 29.439246 
L 166.712776 29.774884 
L 169.240953 30.56475 
L 171.76913 31.749017 
L 174.297307 33.244298 
L 176.825484 34.952683 
L 179.353661 36.772149 
L 181.881839 38.606837 
L 184.410016 40.375822 
L 186.938193 42.019327 
L 189.46637 43.501823 
L 191.994547 44.811885 
L 194.522724 45.959139 
L 197.050901 46.96895 
L 199.579078 47.875753 
L 202.107255 48.716038 
L 204.635432 49.522011 
L 207.163609 50.316806 
L 209.691786 51.11185 
L 212.219964 51.906594 
L 214.748141 52.690419 
L 217.276318 53.446108 
L 219.804495 54.154056 
L 222.332672 54.796331 
L 224.860849 55.359816 
L 227.389026 55.838018 
L 229.917203 56.231444 
L 232.44538 56.5468 
L 234.973557 56.795436 
L 237.501734 56.991516 
L 240.029912 57.150273 
L 242.558089 57.286559 
L 245.086266 57.413713 
L 247.614443 57.542717 
L 250.14262 57.681556 
L 252.670797 57.834776 
L 255.198974 58.003325 
L 257.727151 58.18475 
L 260.255328 58.37385 
L 262.783505 58.563752 
L 265.311682 58.747273 
L 267.839859 58.918333 
L 270.368037 59.073115 
L 272.896214 59.210719 
L 275.424391 59.333189 
L 277.952568 59.444896 
L 280.480745 59.551462 
L 283.008922 59.658489 
L 285.537099 59.770382 
L 288.065276 59.889521 
L 290.593453 60.015931 
L 293.12163 60.147447 
L 295.649807 60.280297 
L 298.177985 60.409905 
L 300.706162 60.531728 
L 303.234339 60.641962 
L 305.762516 60.737988 
L 308.290693 60.818556 
L 310.81887 60.883702 
L 313.347047 60.934503 
L 315.875224 60.972731 
L 318.403401 61.000507 
L 320.931578 61.020006 
L 323.459755 61.033236 
L 325.987933 61.041917 
" style="fill:none;stroke:#471365;stroke-linecap:round;stroke-width:1.2;"/>
   </g>
   <g id="patch_18">
    <path d="M 49.418 61.055333 
L 352.268333 61.055333 
" style="fill:none;stroke:#262626;stroke-linecap:square;stroke-linejoin:miter;"/>
   </g>
  </g>
  <g id="axes_3">
   <g id="patch_19">
    <path d="M 372.236333 390.332 
L 416.832 390.332 
L 416.832 81.023333 
L 372.236333 81.023333 
z
" style="fill:#ffffff;"/>
   </g>
   <g id="matplotlib.axis_5">
    <g id="xtick_11"/>
    <g id="xtick_12"/>
   </g>
   <g id="matplotlib.axis_6">
    <g id="ytick_9">
     <g id="line2d_21">
      <g>
       <use style="fill:#262626;stroke:#262626;" x="372.236333" xlink:href="#m5194a29f8a" y="390.332"/>
      </g>
     </g>
    </g>
    <g id="ytick_10">
     <g id="line2d_22">
      <g>
       <use style="fill:#262626;stroke:#262626;" x="372.236333" xlink:href="#m5194a29f8a" y="334.094061"/>
      </g>
     </g>
    </g>
    <g id="ytick_11">
     <g id="line2d_23">
      <g>
       <use style="fill:#262626;stroke:#262626;" x="372.236333" xlink:href="#m5194a29f8a" y="277.856121"/>
      </g>
     </g>
    </g>
    <g id="ytick_12">
     <g id="line2d_24">
      <g>
       <use style="fill:#262626;stroke:#262626;" x="372.236333" xlink:href="#m5194a29f8a" y="221.618182"/>
      </g>
     </g>
    </g>
    <g id="ytick_13">
     <g id="line2d_25">
      <g>
       <use style="fill:#262626;stroke:#262626;" x="372.236333" xlink:href="#m5194a29f8a" y="165.380242"/>
      </g>
     </g>
    </g>
    <g id="ytick_14">
     <g id="line2d_26">
      <g>
       <use style="fill:#262626;stroke:#262626;" x="372.236333" xlink:href="#m5194a29f8a" y="109.142303"/>
      </g>
     </g>
    </g>
   </g>
   <g id="patch_20">
    <path clip-path="url(#p1e0fa1c1d1)" d="M 372.236333 228.374438 
L 399.539803 228.374438 
L 399.539803 205.267579 
L 372.236333 205.267579 
z
" style="fill:#471365;opacity:0.4;stroke:#ffffff;stroke-linejoin:miter;stroke-width:0.8;"/>
   </g>
   <g id="patch_21">
    <path clip-path="url(#p1e0fa1c1d1)" d="M 372.236333 205.267579 
L 396.506084 205.267579 
L 396.506084 182.160719 
L 372.236333 182.160719 
z
" style="fill:#471365;opacity:0.4;stroke:#ffffff;stroke-linejoin:miter;stroke-width:0.8;"/>
   </g>
   <g id="patch_22">
    <path clip-path="url(#p1e0fa1c1d1)" d="M 372.236333 182.160719 
L 414.708397 182.160719 
L 414.708397 159.053859 
L 372.236333 159.053859 
z
" style="fill:#471365;opacity:0.4;stroke:#ffffff;stroke-linejoin:miter;stroke-width:0.8;"/>
   </g>
   <g id="patch_23">
    <path clip-path="url(#p1e0fa1c1d1)" d="M 372.236333 159.053859 
L 414.708397 159.053859 
L 414.708397 135.947 
L 372.236333 135.947 
z
" style="fill:#471365;opacity:0.4;stroke:#ffffff;stroke-linejoin:miter;stroke-width:0.8;"/>
   </g>
   <g id="patch_24">
    <path clip-path="url(#p1e0fa1c1d1)" d="M 372.236333 135.947 
L 393.472365 135.947 
L 393.472365 112.84014 
L 372.236333 112.84014 
z
" style="fill:#471365;opacity:0.4;stroke:#ffffff;stroke-linejoin:miter;stroke-width:0.8;"/>
   </g>
   <g id="line2d_27">
    <path clip-path="url(#p1e0fa1c1d1)" d="M 372.264738 267.562867 
L 372.280651 265.604168 
L 372.304124 263.64547 
L 372.338036 261.686771 
L 372.386039 259.728073 
L 372.452646 257.769374 
L 372.543304 255.810676 
L 372.66442 253.851977 
L 372.823363 251.893279 
L 373.028433 249.93458 
L 373.288786 247.975882 
L 373.614337 246.017183 
L 374.015612 244.058485 
L 374.503557 242.099786 
L 375.089241 240.141087 
L 375.783443 238.182389 
L 376.596051 236.22369 
L 377.535254 234.264992 
L 378.606519 232.306293 
L 379.811397 230.347595 
L 381.146286 228.388896 
L 382.601324 226.430198 
L 384.159657 224.471499 
L 385.797336 222.512801 
L 387.484053 220.554102 
L 389.184854 218.595404 
L 390.86278 216.636705 
L 392.482244 214.678006 
L 394.012749 212.719308 
L 395.432436 210.760609 
L 396.730885 208.801911 
L 397.910659 206.843212 
L 398.987202 204.884514 
L 399.986986 202.925815 
L 400.944025 200.967117 
L 401.895181 199.008418 
L 402.874875 197.04972 
L 403.909936 195.091021 
L 405.015293 193.132322 
L 406.191141 191.173624 
L 407.421953 189.214925 
L 408.677498 187.256227 
L 409.915747 185.297528 
L 411.087284 183.33883 
L 412.140698 181.380131 
L 413.028284 179.421433 
L 413.711365 177.462734 
L 414.164591 175.504036 
L 414.378694 173.545337 
L 414.361365 171.586639 
L 414.136137 169.62794 
L 413.739417 167.669241 
L 413.216031 165.710543 
L 412.613849 163.751844 
L 411.978188 161.793146 
L 411.346695 159.834447 
L 410.745392 157.875749 
L 410.186341 155.91705 
L 409.667213 153.958352 
L 409.172722 151.999653 
L 408.677641 150.040955 
L 408.150916 148.082256 
L 407.560203 146.123557 
L 406.876192 144.164859 
L 406.076098 142.20616 
L 405.145917 140.247462 
L 404.081224 138.288763 
L 402.886602 136.330065 
L 401.573948 134.371366 
L 400.160101 132.412668 
L 398.664297 130.453969 
L 397.105904 128.495271 
L 395.502795 126.536572 
L 393.870545 124.577874 
L 392.222431 122.619175 
L 390.570073 120.660476 
L 388.924437 118.701778 
L 387.296861 116.743079 
L 385.699833 114.784381 
L 384.147308 112.825682 
L 382.654496 110.866984 
L 381.237155 108.908285 
L 379.910536 106.949587 
L 378.688195 104.990888 
L 377.580862 103.03219 
L 376.595576 101.073491 
L 375.735198 99.114793 
L 374.998342 97.156094 
L 374.379715 95.197395 
L 373.870778 93.238697 
L 373.460607 91.279998 
L 373.136833 89.3213 
L 372.886554 87.362601 
L 372.697119 85.403903 
L 372.556737 83.445204 
L 372.454891 81.486506 
L 372.382559 79.527807 
L 372.332272 77.569109 
L 372.29805 75.61041 
L 372.275255 73.651711 
" style="fill:none;stroke:#471365;stroke-linecap:round;stroke-width:1.2;"/>
   </g>
   <g id="patch_25">
    <path d="M 372.236333 390.332 
L 372.236333 81.023333 
" style="fill:none;stroke:#262626;stroke-linecap:square;stroke-linejoin:miter;"/>
   </g>
  </g>
 </g>
 <defs>
  <clipPath id="p68e5a4cbf0">
   <rect height="309.308667" width="302.850333" x="49.418" y="81.023333"/>
  </clipPath>
  <clipPath id="p8c9faca069">
   <rect height="45.887333" width="302.850333" x="49.418" y="15.168"/>
  </clipPath>
  <clipPath id="p1e0fa1c1d1">
   <rect height="309.308667" width="44.595667" x="372.236333" y="81.023333"/>
  </clipPath>
 </defs>
</svg>
