<?xml version="1.0" encoding="utf-8" standalone="no"?>
<!DOCTYPE svg PUBLIC "-//W3C//DTD SVG 1.1//EN"
  "http://www.w3.org/Graphics/SVG/1.1/DTD/svg11.dtd">
<!-- Created with matplotlib (http://matplotlib.org/) -->
<svg height="432pt" version="1.1" viewBox="0 0 432 432" width="432pt" xmlns="http://www.w3.org/2000/svg" xmlns:xlink="http://www.w3.org/1999/xlink">
 <defs>
  <style type="text/css">
*{stroke-linecap:butt;stroke-linejoin:round;}
  </style>
 </defs>
 <g id="figure_1">
  <g id="patch_1">
   <path d="M 0 432 
L 432 432 
L 432 0 
L 0 0 
z
" style="fill:#ffffff;"/>
  </g>
  <g id="axes_1">
   <g id="patch_2">
    <path d="M 49.85 389.9 
L 351.908333 389.9 
L 351.908333 81.383333 
L 49.85 81.383333 
z
" style="fill:#ffffff;"/>
   </g>
   <g id="matplotlib.axis_1">
    <g id="xtick_1">
     <g id="line2d_1">
      <defs>
       <path d="M 0 0 
L 0 4.8 
" id="ma463cc45bb" style="stroke:#262626;"/>
      </defs>
      <g>
       <use style="fill:#262626;stroke:#262626;" x="113.332893" xlink:href="#ma463cc45bb" y="389.9"/>
      </g>
     </g>
     <g id="text_1">
      <!-- 9.5 -->
      <defs>
       <path d="M 10.984375 1.515625 
L 10.984375 10.5 
Q 14.703125 8.734375 18.5 7.8125 
Q 22.3125 6.890625 25.984375 6.890625 
Q 35.75 6.890625 40.890625 13.453125 
Q 46.046875 20.015625 46.78125 33.40625 
Q 43.953125 29.203125 39.59375 26.953125 
Q 35.25 24.703125 29.984375 24.703125 
Q 19.046875 24.703125 12.671875 31.3125 
Q 6.296875 37.9375 6.296875 49.421875 
Q 6.296875 60.640625 12.9375 67.421875 
Q 19.578125 74.21875 30.609375 74.21875 
Q 43.265625 74.21875 49.921875 64.515625 
Q 56.59375 54.828125 56.59375 36.375 
Q 56.59375 19.140625 48.40625 8.859375 
Q 40.234375 -1.421875 26.421875 -1.421875 
Q 22.703125 -1.421875 18.890625 -0.6875 
Q 15.09375 0.046875 10.984375 1.515625 
z
M 30.609375 32.421875 
Q 37.25 32.421875 41.125 36.953125 
Q 45.015625 41.5 45.015625 49.421875 
Q 45.015625 57.28125 41.125 61.84375 
Q 37.25 66.40625 30.609375 66.40625 
Q 23.96875 66.40625 20.09375 61.84375 
Q 16.21875 57.28125 16.21875 49.421875 
Q 16.21875 41.5 20.09375 36.953125 
Q 23.96875 32.421875 30.609375 32.421875 
z
" id="DejaVuSans-39"/>
       <path d="M 10.6875 12.40625 
L 21 12.40625 
L 21 0 
L 10.6875 0 
z
" id="DejaVuSans-2e"/>
       <path d="M 10.796875 72.90625 
L 49.515625 72.90625 
L 49.515625 64.59375 
L 19.828125 64.59375 
L 19.828125 46.734375 
Q 21.96875 47.46875 24.109375 47.828125 
Q 26.265625 48.1875 28.421875 48.1875 
Q 40.625 48.1875 47.75 41.5 
Q 54.890625 34.8125 54.890625 23.390625 
Q 54.890625 11.625 47.5625 5.09375 
Q 40.234375 -1.421875 26.90625 -1.421875 
Q 22.3125 -1.421875 17.546875 -0.640625 
Q 12.796875 0.140625 7.71875 1.703125 
L 7.71875 11.625 
Q 12.109375 9.234375 16.796875 8.0625 
Q 21.484375 6.890625 26.703125 6.890625 
Q 35.15625 6.890625 40.078125 11.328125 
Q 45.015625 15.765625 45.015625 23.390625 
Q 45.015625 31 40.078125 35.4375 
Q 35.15625 39.890625 26.703125 39.890625 
Q 22.75 39.890625 18.8125 39.015625 
Q 14.890625 38.140625 10.796875 36.28125 
z
" id="DejaVuSans-35"/>
      </defs>
      <g style="fill:#262626;" transform="translate(106.335518 404.886625)scale(0.088 -0.088)">
       <use xlink:href="#DejaVuSans-39"/>
       <use x="63.623047" xlink:href="#DejaVuSans-2e"/>
       <use x="95.410156" xlink:href="#DejaVuSans-35"/>
      </g>
     </g>
    </g>
    <g id="xtick_2">
     <g id="line2d_2">
      <g>
       <use style="fill:#262626;stroke:#262626;" x="179.093817" xlink:href="#ma463cc45bb" y="389.9"/>
      </g>
     </g>
     <g id="text_2">
      <!-- 10.0 -->
      <defs>
       <path d="M 12.40625 8.296875 
L 28.515625 8.296875 
L 28.515625 63.921875 
L 10.984375 60.40625 
L 10.984375 69.390625 
L 28.421875 72.90625 
L 38.28125 72.90625 
L 38.28125 8.296875 
L 54.390625 8.296875 
L 54.390625 0 
L 12.40625 0 
z
" id="DejaVuSans-31"/>
       <path d="M 31.78125 66.40625 
Q 24.171875 66.40625 20.328125 58.90625 
Q 16.5 51.421875 16.5 36.375 
Q 16.5 21.390625 20.328125 13.890625 
Q 24.171875 6.390625 31.78125 6.390625 
Q 39.453125 6.390625 43.28125 13.890625 
Q 47.125 21.390625 47.125 36.375 
Q 47.125 51.421875 43.28125 58.90625 
Q 39.453125 66.40625 31.78125 66.40625 
z
M 31.78125 74.21875 
Q 44.046875 74.21875 50.515625 64.515625 
Q 56.984375 54.828125 56.984375 36.375 
Q 56.984375 17.96875 50.515625 8.265625 
Q 44.046875 -1.421875 31.78125 -1.421875 
Q 19.53125 -1.421875 13.0625 8.265625 
Q 6.59375 17.96875 6.59375 36.375 
Q 6.59375 54.828125 13.0625 64.515625 
Q 19.53125 74.21875 31.78125 74.21875 
z
" id="DejaVuSans-30"/>
      </defs>
      <g style="fill:#262626;" transform="translate(169.296942 404.886625)scale(0.088 -0.088)">
       <use xlink:href="#DejaVuSans-31"/>
       <use x="63.623047" xlink:href="#DejaVuSans-30"/>
       <use x="127.246094" xlink:href="#DejaVuSans-2e"/>
       <use x="159.033203" xlink:href="#DejaVuSans-30"/>
      </g>
     </g>
    </g>
    <g id="xtick_3">
     <g id="line2d_3">
      <g>
       <use style="fill:#262626;stroke:#262626;" x="244.85474" xlink:href="#ma463cc45bb" y="389.9"/>
      </g>
     </g>
     <g id="text_3">
      <!-- 10.5 -->
      <g style="fill:#262626;" transform="translate(235.057865 404.886625)scale(0.088 -0.088)">
       <use xlink:href="#DejaVuSans-31"/>
       <use x="63.623047" xlink:href="#DejaVuSans-30"/>
       <use x="127.246094" xlink:href="#DejaVuSans-2e"/>
       <use x="159.033203" xlink:href="#DejaVuSans-35"/>
      </g>
     </g>
    </g>
    <g id="xtick_4">
     <g id="line2d_4">
      <g>
       <use style="fill:#262626;stroke:#262626;" x="310.615663" xlink:href="#ma463cc45bb" y="389.9"/>
      </g>
     </g>
     <g id="text_4">
      <!-- 11.0 -->
      <g style="fill:#262626;" transform="translate(300.818788 404.886625)scale(0.088 -0.088)">
       <use xlink:href="#DejaVuSans-31"/>
       <use x="63.623047" xlink:href="#DejaVuSans-31"/>
       <use x="127.246094" xlink:href="#DejaVuSans-2e"/>
       <use x="159.033203" xlink:href="#DejaVuSans-30"/>
      </g>
     </g>
    </g>
    <g id="text_5">
     <!-- log(n) -->
     <defs>
      <path d="M 9.421875 75.984375 
L 18.40625 75.984375 
L 18.40625 0 
L 9.421875 0 
z
" id="DejaVuSans-6c"/>
      <path d="M 30.609375 48.390625 
Q 23.390625 48.390625 19.1875 42.75 
Q 14.984375 37.109375 14.984375 27.296875 
Q 14.984375 17.484375 19.15625 11.84375 
Q 23.34375 6.203125 30.609375 6.203125 
Q 37.796875 6.203125 41.984375 11.859375 
Q 46.1875 17.53125 46.1875 27.296875 
Q 46.1875 37.015625 41.984375 42.703125 
Q 37.796875 48.390625 30.609375 48.390625 
z
M 30.609375 56 
Q 42.328125 56 49.015625 48.375 
Q 55.71875 40.765625 55.71875 27.296875 
Q 55.71875 13.875 49.015625 6.21875 
Q 42.328125 -1.421875 30.609375 -1.421875 
Q 18.84375 -1.421875 12.171875 6.21875 
Q 5.515625 13.875 5.515625 27.296875 
Q 5.515625 40.765625 12.171875 48.375 
Q 18.84375 56 30.609375 56 
z
" id="DejaVuSans-6f"/>
      <path d="M 45.40625 27.984375 
Q 45.40625 37.75 41.375 43.109375 
Q 37.359375 48.484375 30.078125 48.484375 
Q 22.859375 48.484375 18.828125 43.109375 
Q 14.796875 37.75 14.796875 27.984375 
Q 14.796875 18.265625 18.828125 12.890625 
Q 22.859375 7.515625 30.078125 7.515625 
Q 37.359375 7.515625 41.375 12.890625 
Q 45.40625 18.265625 45.40625 27.984375 
z
M 54.390625 6.78125 
Q 54.390625 -7.171875 48.1875 -13.984375 
Q 42 -20.796875 29.203125 -20.796875 
Q 24.46875 -20.796875 20.265625 -20.09375 
Q 16.0625 -19.390625 12.109375 -17.921875 
L 12.109375 -9.1875 
Q 16.0625 -11.328125 19.921875 -12.34375 
Q 23.78125 -13.375 27.78125 -13.375 
Q 36.625 -13.375 41.015625 -8.765625 
Q 45.40625 -4.15625 45.40625 5.171875 
L 45.40625 9.625 
Q 42.625 4.78125 38.28125 2.390625 
Q 33.9375 0 27.875 0 
Q 17.828125 0 11.671875 7.65625 
Q 5.515625 15.328125 5.515625 27.984375 
Q 5.515625 40.671875 11.671875 48.328125 
Q 17.828125 56 27.875 56 
Q 33.9375 56 38.28125 53.609375 
Q 42.625 51.21875 45.40625 46.390625 
L 45.40625 54.6875 
L 54.390625 54.6875 
z
" id="DejaVuSans-67"/>
      <path d="M 31 75.875 
Q 24.46875 64.65625 21.28125 53.65625 
Q 18.109375 42.671875 18.109375 31.390625 
Q 18.109375 20.125 21.3125 9.0625 
Q 24.515625 -2 31 -13.1875 
L 23.1875 -13.1875 
Q 15.875 -1.703125 12.234375 9.375 
Q 8.59375 20.453125 8.59375 31.390625 
Q 8.59375 42.28125 12.203125 53.3125 
Q 15.828125 64.359375 23.1875 75.875 
z
" id="DejaVuSans-28"/>
      <path d="M 54.890625 33.015625 
L 54.890625 0 
L 45.90625 0 
L 45.90625 32.71875 
Q 45.90625 40.484375 42.875 44.328125 
Q 39.84375 48.1875 33.796875 48.1875 
Q 26.515625 48.1875 22.3125 43.546875 
Q 18.109375 38.921875 18.109375 30.90625 
L 18.109375 0 
L 9.078125 0 
L 9.078125 54.6875 
L 18.109375 54.6875 
L 18.109375 46.1875 
Q 21.34375 51.125 25.703125 53.5625 
Q 30.078125 56 35.796875 56 
Q 45.21875 56 50.046875 50.171875 
Q 54.890625 44.34375 54.890625 33.015625 
z
" id="DejaVuSans-6e"/>
      <path d="M 8.015625 75.875 
L 15.828125 75.875 
Q 23.140625 64.359375 26.78125 53.3125 
Q 30.421875 42.28125 30.421875 31.390625 
Q 30.421875 20.453125 26.78125 9.375 
Q 23.140625 -1.703125 15.828125 -13.1875 
L 8.015625 -13.1875 
Q 14.5 -2 17.703125 9.0625 
Q 20.90625 20.125 20.90625 31.390625 
Q 20.90625 42.671875 17.703125 53.65625 
Q 14.5 64.65625 8.015625 75.875 
z
" id="DejaVuSans-29"/>
     </defs>
     <g style="fill:#262626;" transform="translate(186.773917 418.01125)scale(0.096 -0.096)">
      <use xlink:href="#DejaVuSans-6c"/>
      <use x="27.783203" xlink:href="#DejaVuSans-6f"/>
      <use x="88.964844" xlink:href="#DejaVuSans-67"/>
      <use x="152.441406" xlink:href="#DejaVuSans-28"/>
      <use x="191.455078" xlink:href="#DejaVuSans-6e"/>
      <use x="254.833984" xlink:href="#DejaVuSans-29"/>
     </g>
    </g>
   </g>
   <g id="matplotlib.axis_2">
    <g id="ytick_1">
     <g id="line2d_5">
      <defs>
       <path d="M 0 0 
L -4.8 0 
" id="m314ae35b09" style="stroke:#262626;"/>
      </defs>
      <g>
       <use style="fill:#262626;stroke:#262626;" x="49.85" xlink:href="#m314ae35b09" y="389.9"/>
      </g>
     </g>
     <g id="text_6">
      <!-- 0 -->
      <g style="fill:#262626;" transform="translate(35.951 393.243313)scale(0.088 -0.088)">
       <use xlink:href="#DejaVuSans-30"/>
      </g>
     </g>
    </g>
    <g id="ytick_2">
     <g id="line2d_6">
      <g>
       <use style="fill:#262626;stroke:#262626;" x="49.85" xlink:href="#m314ae35b09" y="333.806061"/>
      </g>
     </g>
     <g id="text_7">
      <!-- 20 -->
      <defs>
       <path d="M 19.1875 8.296875 
L 53.609375 8.296875 
L 53.609375 0 
L 7.328125 0 
L 7.328125 8.296875 
Q 12.9375 14.109375 22.625 23.890625 
Q 32.328125 33.6875 34.8125 36.53125 
Q 39.546875 41.84375 41.421875 45.53125 
Q 43.3125 49.21875 43.3125 52.78125 
Q 43.3125 58.59375 39.234375 62.25 
Q 35.15625 65.921875 28.609375 65.921875 
Q 23.96875 65.921875 18.8125 64.3125 
Q 13.671875 62.703125 7.8125 59.421875 
L 7.8125 69.390625 
Q 13.765625 71.78125 18.9375 73 
Q 24.125 74.21875 28.421875 74.21875 
Q 39.75 74.21875 46.484375 68.546875 
Q 53.21875 62.890625 53.21875 53.421875 
Q 53.21875 48.921875 51.53125 44.890625 
Q 49.859375 40.875 45.40625 35.40625 
Q 44.1875 33.984375 37.640625 27.21875 
Q 31.109375 20.453125 19.1875 8.296875 
z
" id="DejaVuSans-32"/>
      </defs>
      <g style="fill:#262626;" transform="translate(30.352 337.149373)scale(0.088 -0.088)">
       <use xlink:href="#DejaVuSans-32"/>
       <use x="63.623047" xlink:href="#DejaVuSans-30"/>
      </g>
     </g>
    </g>
    <g id="ytick_3">
     <g id="line2d_7">
      <g>
       <use style="fill:#262626;stroke:#262626;" x="49.85" xlink:href="#m314ae35b09" y="277.712121"/>
      </g>
     </g>
     <g id="text_8">
      <!-- 40 -->
      <defs>
       <path d="M 37.796875 64.3125 
L 12.890625 25.390625 
L 37.796875 25.390625 
z
M 35.203125 72.90625 
L 47.609375 72.90625 
L 47.609375 25.390625 
L 58.015625 25.390625 
L 58.015625 17.1875 
L 47.609375 17.1875 
L 47.609375 0 
L 37.796875 0 
L 37.796875 17.1875 
L 4.890625 17.1875 
L 4.890625 26.703125 
z
" id="DejaVuSans-34"/>
      </defs>
      <g style="fill:#262626;" transform="translate(30.352 281.055434)scale(0.088 -0.088)">
       <use xlink:href="#DejaVuSans-34"/>
       <use x="63.623047" xlink:href="#DejaVuSans-30"/>
      </g>
     </g>
    </g>
    <g id="ytick_4">
     <g id="line2d_8">
      <g>
       <use style="fill:#262626;stroke:#262626;" x="49.85" xlink:href="#m314ae35b09" y="221.618182"/>
      </g>
     </g>
     <g id="text_9">
      <!-- 60 -->
      <defs>
       <path d="M 33.015625 40.375 
Q 26.375 40.375 22.484375 35.828125 
Q 18.609375 31.296875 18.609375 23.390625 
Q 18.609375 15.53125 22.484375 10.953125 
Q 26.375 6.390625 33.015625 6.390625 
Q 39.65625 6.390625 43.53125 10.953125 
Q 47.40625 15.53125 47.40625 23.390625 
Q 47.40625 31.296875 43.53125 35.828125 
Q 39.65625 40.375 33.015625 40.375 
z
M 52.59375 71.296875 
L 52.59375 62.3125 
Q 48.875 64.0625 45.09375 64.984375 
Q 41.3125 65.921875 37.59375 65.921875 
Q 27.828125 65.921875 22.671875 59.328125 
Q 17.53125 52.734375 16.796875 39.40625 
Q 19.671875 43.65625 24.015625 45.921875 
Q 28.375 48.1875 33.59375 48.1875 
Q 44.578125 48.1875 50.953125 41.515625 
Q 57.328125 34.859375 57.328125 23.390625 
Q 57.328125 12.15625 50.6875 5.359375 
Q 44.046875 -1.421875 33.015625 -1.421875 
Q 20.359375 -1.421875 13.671875 8.265625 
Q 6.984375 17.96875 6.984375 36.375 
Q 6.984375 53.65625 15.1875 63.9375 
Q 23.390625 74.21875 37.203125 74.21875 
Q 40.921875 74.21875 44.703125 73.484375 
Q 48.484375 72.75 52.59375 71.296875 
z
" id="DejaVuSans-36"/>
      </defs>
      <g style="fill:#262626;" transform="translate(30.352 224.961494)scale(0.088 -0.088)">
       <use xlink:href="#DejaVuSans-36"/>
       <use x="63.623047" xlink:href="#DejaVuSans-30"/>
      </g>
     </g>
    </g>
    <g id="ytick_5">
     <g id="line2d_9">
      <g>
       <use style="fill:#262626;stroke:#262626;" x="49.85" xlink:href="#m314ae35b09" y="165.524242"/>
      </g>
     </g>
     <g id="text_10">
      <!-- 80 -->
      <defs>
       <path d="M 31.78125 34.625 
Q 24.75 34.625 20.71875 30.859375 
Q 16.703125 27.09375 16.703125 20.515625 
Q 16.703125 13.921875 20.71875 10.15625 
Q 24.75 6.390625 31.78125 6.390625 
Q 38.8125 6.390625 42.859375 10.171875 
Q 46.921875 13.96875 46.921875 20.515625 
Q 46.921875 27.09375 42.890625 30.859375 
Q 38.875 34.625 31.78125 34.625 
z
M 21.921875 38.8125 
Q 15.578125 40.375 12.03125 44.71875 
Q 8.5 49.078125 8.5 55.328125 
Q 8.5 64.0625 14.71875 69.140625 
Q 20.953125 74.21875 31.78125 74.21875 
Q 42.671875 74.21875 48.875 69.140625 
Q 55.078125 64.0625 55.078125 55.328125 
Q 55.078125 49.078125 51.53125 44.71875 
Q 48 40.375 41.703125 38.8125 
Q 48.828125 37.15625 52.796875 32.3125 
Q 56.78125 27.484375 56.78125 20.515625 
Q 56.78125 9.90625 50.3125 4.234375 
Q 43.84375 -1.421875 31.78125 -1.421875 
Q 19.734375 -1.421875 13.25 4.234375 
Q 6.78125 9.90625 6.78125 20.515625 
Q 6.78125 27.484375 10.78125 32.3125 
Q 14.796875 37.15625 21.921875 38.8125 
z
M 18.3125 54.390625 
Q 18.3125 48.734375 21.84375 45.5625 
Q 25.390625 42.390625 31.78125 42.390625 
Q 38.140625 42.390625 41.71875 45.5625 
Q 45.3125 48.734375 45.3125 54.390625 
Q 45.3125 60.0625 41.71875 63.234375 
Q 38.140625 66.40625 31.78125 66.40625 
Q 25.390625 66.40625 21.84375 63.234375 
Q 18.3125 60.0625 18.3125 54.390625 
z
" id="DejaVuSans-38"/>
      </defs>
      <g style="fill:#262626;" transform="translate(30.352 168.867555)scale(0.088 -0.088)">
       <use xlink:href="#DejaVuSans-38"/>
       <use x="63.623047" xlink:href="#DejaVuSans-30"/>
      </g>
     </g>
    </g>
    <g id="ytick_6">
     <g id="line2d_10">
      <g>
       <use style="fill:#262626;stroke:#262626;" x="49.85" xlink:href="#m314ae35b09" y="109.430303"/>
      </g>
     </g>
     <g id="text_11">
      <!-- 100 -->
      <g style="fill:#262626;" transform="translate(24.753 112.773616)scale(0.088 -0.088)">
       <use xlink:href="#DejaVuSans-31"/>
       <use x="63.623047" xlink:href="#DejaVuSans-30"/>
       <use x="127.246094" xlink:href="#DejaVuSans-30"/>
      </g>
     </g>
    </g>
    <g id="text_12">
     <!-- Time to cancer -->
     <defs>
      <path d="M -0.296875 72.90625 
L 61.375 72.90625 
L 61.375 64.59375 
L 35.5 64.59375 
L 35.5 0 
L 25.59375 0 
L 25.59375 64.59375 
L -0.296875 64.59375 
z
" id="DejaVuSans-54"/>
      <path d="M 9.421875 54.6875 
L 18.40625 54.6875 
L 18.40625 0 
L 9.421875 0 
z
M 9.421875 75.984375 
L 18.40625 75.984375 
L 18.40625 64.59375 
L 9.421875 64.59375 
z
" id="DejaVuSans-69"/>
      <path d="M 52 44.1875 
Q 55.375 50.25 60.0625 53.125 
Q 64.75 56 71.09375 56 
Q 79.640625 56 84.28125 50.015625 
Q 88.921875 44.046875 88.921875 33.015625 
L 88.921875 0 
L 79.890625 0 
L 79.890625 32.71875 
Q 79.890625 40.578125 77.09375 44.375 
Q 74.3125 48.1875 68.609375 48.1875 
Q 61.625 48.1875 57.5625 43.546875 
Q 53.515625 38.921875 53.515625 30.90625 
L 53.515625 0 
L 44.484375 0 
L 44.484375 32.71875 
Q 44.484375 40.625 41.703125 44.40625 
Q 38.921875 48.1875 33.109375 48.1875 
Q 26.21875 48.1875 22.15625 43.53125 
Q 18.109375 38.875 18.109375 30.90625 
L 18.109375 0 
L 9.078125 0 
L 9.078125 54.6875 
L 18.109375 54.6875 
L 18.109375 46.1875 
Q 21.1875 51.21875 25.484375 53.609375 
Q 29.78125 56 35.6875 56 
Q 41.65625 56 45.828125 52.96875 
Q 50 49.953125 52 44.1875 
z
" id="DejaVuSans-6d"/>
      <path d="M 56.203125 29.59375 
L 56.203125 25.203125 
L 14.890625 25.203125 
Q 15.484375 15.921875 20.484375 11.0625 
Q 25.484375 6.203125 34.421875 6.203125 
Q 39.59375 6.203125 44.453125 7.46875 
Q 49.3125 8.734375 54.109375 11.28125 
L 54.109375 2.78125 
Q 49.265625 0.734375 44.1875 -0.34375 
Q 39.109375 -1.421875 33.890625 -1.421875 
Q 20.796875 -1.421875 13.15625 6.1875 
Q 5.515625 13.8125 5.515625 26.8125 
Q 5.515625 40.234375 12.765625 48.109375 
Q 20.015625 56 32.328125 56 
Q 43.359375 56 49.78125 48.890625 
Q 56.203125 41.796875 56.203125 29.59375 
z
M 47.21875 32.234375 
Q 47.125 39.59375 43.09375 43.984375 
Q 39.0625 48.390625 32.421875 48.390625 
Q 24.90625 48.390625 20.390625 44.140625 
Q 15.875 39.890625 15.1875 32.171875 
z
" id="DejaVuSans-65"/>
      <path id="DejaVuSans-20"/>
      <path d="M 18.3125 70.21875 
L 18.3125 54.6875 
L 36.8125 54.6875 
L 36.8125 47.703125 
L 18.3125 47.703125 
L 18.3125 18.015625 
Q 18.3125 11.328125 20.140625 9.421875 
Q 21.96875 7.515625 27.59375 7.515625 
L 36.8125 7.515625 
L 36.8125 0 
L 27.59375 0 
Q 17.1875 0 13.234375 3.875 
Q 9.28125 7.765625 9.28125 18.015625 
L 9.28125 47.703125 
L 2.6875 47.703125 
L 2.6875 54.6875 
L 9.28125 54.6875 
L 9.28125 70.21875 
z
" id="DejaVuSans-74"/>
      <path d="M 48.78125 52.59375 
L 48.78125 44.1875 
Q 44.96875 46.296875 41.140625 47.34375 
Q 37.3125 48.390625 33.40625 48.390625 
Q 24.65625 48.390625 19.8125 42.84375 
Q 14.984375 37.3125 14.984375 27.296875 
Q 14.984375 17.28125 19.8125 11.734375 
Q 24.65625 6.203125 33.40625 6.203125 
Q 37.3125 6.203125 41.140625 7.25 
Q 44.96875 8.296875 48.78125 10.40625 
L 48.78125 2.09375 
Q 45.015625 0.34375 40.984375 -0.53125 
Q 36.96875 -1.421875 32.421875 -1.421875 
Q 20.0625 -1.421875 12.78125 6.34375 
Q 5.515625 14.109375 5.515625 27.296875 
Q 5.515625 40.671875 12.859375 48.328125 
Q 20.21875 56 33.015625 56 
Q 37.15625 56 41.109375 55.140625 
Q 45.0625 54.296875 48.78125 52.59375 
z
" id="DejaVuSans-63"/>
      <path d="M 34.28125 27.484375 
Q 23.390625 27.484375 19.1875 25 
Q 14.984375 22.515625 14.984375 16.5 
Q 14.984375 11.71875 18.140625 8.90625 
Q 21.296875 6.109375 26.703125 6.109375 
Q 34.1875 6.109375 38.703125 11.40625 
Q 43.21875 16.703125 43.21875 25.484375 
L 43.21875 27.484375 
z
M 52.203125 31.203125 
L 52.203125 0 
L 43.21875 0 
L 43.21875 8.296875 
Q 40.140625 3.328125 35.546875 0.953125 
Q 30.953125 -1.421875 24.3125 -1.421875 
Q 15.921875 -1.421875 10.953125 3.296875 
Q 6 8.015625 6 15.921875 
Q 6 25.140625 12.171875 29.828125 
Q 18.359375 34.515625 30.609375 34.515625 
L 43.21875 34.515625 
L 43.21875 35.40625 
Q 43.21875 41.609375 39.140625 45 
Q 35.0625 48.390625 27.6875 48.390625 
Q 23 48.390625 18.546875 47.265625 
Q 14.109375 46.140625 10.015625 43.890625 
L 10.015625 52.203125 
Q 14.9375 54.109375 19.578125 55.046875 
Q 24.21875 56 28.609375 56 
Q 40.484375 56 46.34375 49.84375 
Q 52.203125 43.703125 52.203125 31.203125 
z
" id="DejaVuSans-61"/>
      <path d="M 41.109375 46.296875 
Q 39.59375 47.171875 37.8125 47.578125 
Q 36.03125 48 33.890625 48 
Q 26.265625 48 22.1875 43.046875 
Q 18.109375 38.09375 18.109375 28.8125 
L 18.109375 0 
L 9.078125 0 
L 9.078125 54.6875 
L 18.109375 54.6875 
L 18.109375 46.1875 
Q 20.953125 51.171875 25.484375 53.578125 
Q 30.03125 56 36.53125 56 
Q 37.453125 56 38.578125 55.875 
Q 39.703125 55.765625 41.0625 55.515625 
z
" id="DejaVuSans-72"/>
     </defs>
     <g style="fill:#262626;" transform="translate(18.7565 271.592167)rotate(-90)scale(0.096 -0.096)">
      <use xlink:href="#DejaVuSans-54"/>
      <use x="61.037109" xlink:href="#DejaVuSans-69"/>
      <use x="88.820312" xlink:href="#DejaVuSans-6d"/>
      <use x="186.232422" xlink:href="#DejaVuSans-65"/>
      <use x="247.755859" xlink:href="#DejaVuSans-20"/>
      <use x="279.542969" xlink:href="#DejaVuSans-74"/>
      <use x="318.751953" xlink:href="#DejaVuSans-6f"/>
      <use x="379.933594" xlink:href="#DejaVuSans-20"/>
      <use x="411.720703" xlink:href="#DejaVuSans-63"/>
      <use x="466.701172" xlink:href="#DejaVuSans-61"/>
      <use x="527.980469" xlink:href="#DejaVuSans-6e"/>
      <use x="591.359375" xlink:href="#DejaVuSans-63"/>
      <use x="646.339844" xlink:href="#DejaVuSans-65"/>
      <use x="707.863281" xlink:href="#DejaVuSans-72"/>
     </g>
    </g>
   </g>
   <g id="PathCollection_1">
    <defs>
     <path d="M 0 2.4 
C 0.636487 2.4 1.246992 2.147121 1.697056 1.697056 
C 2.147121 1.246992 2.4 0.636487 2.4 0 
C 2.4 -0.636487 2.147121 -1.246992 1.697056 -1.697056 
C 1.246992 -2.147121 0.636487 -2.4 0 -2.4 
C -0.636487 -2.4 -1.246992 -2.147121 -1.697056 -1.697056 
C -2.147121 -1.246992 -2.4 -0.636487 -2.4 0 
C -2.4 0.636487 -2.147121 1.246992 -1.697056 1.697056 
C -1.246992 2.147121 -0.636487 2.4 0 2.4 
z
" id="me212ee8305" style="stroke:#471365;stroke-opacity:0.8;"/>
    </defs>
    <g clip-path="url(#pb8d7ff1723)">
     <use style="fill:#471365;fill-opacity:0.8;stroke:#471365;stroke-opacity:0.8;" x="280.348931" xlink:href="#me212ee8305" y="143.639922"/>
     <use style="fill:#471365;fill-opacity:0.8;stroke:#471365;stroke-opacity:0.8;" x="291.332608" xlink:href="#me212ee8305" y="119.388898"/>
     <use style="fill:#471365;fill-opacity:0.8;stroke:#471365;stroke-opacity:0.8;" x="230.486368" xlink:href="#me212ee8305" y="129.101602"/>
     <use style="fill:#471365;fill-opacity:0.8;stroke:#471365;stroke-opacity:0.8;" x="249.047888" xlink:href="#me212ee8305" y="141.534478"/>
     <use style="fill:#471365;fill-opacity:0.8;stroke:#471365;stroke-opacity:0.8;" x="284.843509" xlink:href="#me212ee8305" y="144.677276"/>
     <use style="fill:#471365;fill-opacity:0.8;stroke:#471365;stroke-opacity:0.8;" x="267.286778" xlink:href="#me212ee8305" y="162.281552"/>
     <use style="fill:#471365;fill-opacity:0.8;stroke:#471365;stroke-opacity:0.8;" x="283.033662" xlink:href="#me212ee8305" y="133.873429"/>
     <use style="fill:#471365;fill-opacity:0.8;stroke:#471365;stroke-opacity:0.8;" x="171.104889" xlink:href="#me212ee8305" y="143.578449"/>
     <use style="fill:#471365;fill-opacity:0.8;stroke:#471365;stroke-opacity:0.8;" x="267.763651" xlink:href="#me212ee8305" y="110.506077"/>
     <use style="fill:#471365;fill-opacity:0.8;stroke:#471365;stroke-opacity:0.8;" x="220.566101" xlink:href="#me212ee8305" y="135.863611"/>
     <use style="fill:#471365;fill-opacity:0.8;stroke:#471365;stroke-opacity:0.8;" x="218.544557" xlink:href="#me212ee8305" y="130.630738"/>
     <use style="fill:#471365;fill-opacity:0.8;stroke:#471365;stroke-opacity:0.8;" x="258.607211" xlink:href="#me212ee8305" y="210.514655"/>
     <use style="fill:#471365;fill-opacity:0.8;stroke:#471365;stroke-opacity:0.8;" x="265.590773" xlink:href="#me212ee8305" y="128.548347"/>
     <use style="fill:#471365;fill-opacity:0.8;stroke:#471365;stroke-opacity:0.8;" x="272.650899" xlink:href="#me212ee8305" y="133.658274"/>
     <use style="fill:#471365;fill-opacity:0.8;stroke:#471365;stroke-opacity:0.8;" x="268.038114" xlink:href="#me212ee8305" y="211.936214"/>
     <use style="fill:#471365;fill-opacity:0.8;stroke:#471365;stroke-opacity:0.8;" x="289.828433" xlink:href="#me212ee8305" y="124.122305"/>
     <use style="fill:#471365;fill-opacity:0.8;stroke:#471365;stroke-opacity:0.8;" x="261.561395" xlink:href="#me212ee8305" y="134.011743"/>
     <use style="fill:#471365;fill-opacity:0.8;stroke:#471365;stroke-opacity:0.8;" x="278.530452" xlink:href="#me212ee8305" y="161.559246"/>
     <use style="fill:#471365;fill-opacity:0.8;stroke:#471365;stroke-opacity:0.8;" x="235.117887" xlink:href="#me212ee8305" y="124.952188"/>
     <use style="fill:#471365;fill-opacity:0.8;stroke:#471365;stroke-opacity:0.8;" x="273.064488" xlink:href="#me212ee8305" y="131.51441"/>
     <use style="fill:#471365;fill-opacity:0.8;stroke:#471365;stroke-opacity:0.8;" x="230.622589" xlink:href="#me212ee8305" y="141.910999"/>
     <use style="fill:#471365;fill-opacity:0.8;stroke:#471365;stroke-opacity:0.8;" x="205.580772" xlink:href="#me212ee8305" y="112.127423"/>
     <use style="fill:#471365;fill-opacity:0.8;stroke:#471365;stroke-opacity:0.8;" x="248.070572" xlink:href="#me212ee8305" y="128.532979"/>
     <use style="fill:#471365;fill-opacity:0.8;stroke:#471365;stroke-opacity:0.8;" x="287.441208" xlink:href="#me212ee8305" y="131.752617"/>
     <use style="fill:#471365;fill-opacity:0.8;stroke:#471365;stroke-opacity:0.8;" x="255.134693" xlink:href="#me212ee8305" y="130.069799"/>
     <use style="fill:#471365;fill-opacity:0.8;stroke:#471365;stroke-opacity:0.8;" x="273.988665" xlink:href="#me212ee8305" y="123.469156"/>
     <use style="fill:#471365;fill-opacity:0.8;stroke:#471365;stroke-opacity:0.8;" x="226.624342" xlink:href="#me212ee8305" y="140.013026"/>
     <use style="fill:#471365;fill-opacity:0.8;stroke:#471365;stroke-opacity:0.8;" x="275.129879" xlink:href="#me212ee8305" y="151.362444"/>
     <use style="fill:#471365;fill-opacity:0.8;stroke:#471365;stroke-opacity:0.8;" x="283.078239" xlink:href="#me212ee8305" y="170.526592"/>
     <use style="fill:#471365;fill-opacity:0.8;stroke:#471365;stroke-opacity:0.8;" x="278.963912" xlink:href="#me212ee8305" y="112.035213"/>
     <use style="fill:#471365;fill-opacity:0.8;stroke:#471365;stroke-opacity:0.8;" x="284.354872" xlink:href="#me212ee8305" y="117.567766"/>
     <use style="fill:#471365;fill-opacity:0.8;stroke:#471365;stroke-opacity:0.8;" x="265.317197" xlink:href="#me212ee8305" y="183.635669"/>
     <use style="fill:#471365;fill-opacity:0.8;stroke:#471365;stroke-opacity:0.8;" x="268.472155" xlink:href="#me212ee8305" y="182.106533"/>
     <use style="fill:#471365;fill-opacity:0.8;stroke:#471365;stroke-opacity:0.8;" x="218.366468" xlink:href="#me212ee8305" y="152.668741"/>
     <use style="fill:#471365;fill-opacity:0.8;stroke:#471365;stroke-opacity:0.8;" x="288.248354" xlink:href="#me212ee8305" y="131.760301"/>
     <use style="fill:#471365;fill-opacity:0.8;stroke:#471365;stroke-opacity:0.8;" x="254.306021" xlink:href="#me212ee8305" y="132.521027"/>
     <use style="fill:#471365;fill-opacity:0.8;stroke:#471365;stroke-opacity:0.8;" x="224.160658" xlink:href="#me212ee8305" y="141.642056"/>
     <use style="fill:#471365;fill-opacity:0.8;stroke:#471365;stroke-opacity:0.8;" x="280.592462" xlink:href="#me212ee8305" y="130.776736"/>
     <use style="fill:#471365;fill-opacity:0.8;stroke:#471365;stroke-opacity:0.8;" x="285.115457" xlink:href="#me212ee8305" y="134.572682"/>
     <use style="fill:#471365;fill-opacity:0.8;stroke:#471365;stroke-opacity:0.8;" x="274.351856" xlink:href="#me212ee8305" y="116.653358"/>
     <use style="fill:#471365;fill-opacity:0.8;stroke:#471365;stroke-opacity:0.8;" x="280.066427" xlink:href="#me212ee8305" y="191.627134"/>
     <use style="fill:#471365;fill-opacity:0.8;stroke:#471365;stroke-opacity:0.8;" x="195.679695" xlink:href="#me212ee8305" y="133.31249"/>
     <use style="fill:#471365;fill-opacity:0.8;stroke:#471365;stroke-opacity:0.8;" x="229.932101" xlink:href="#me212ee8305" y="114.225182"/>
     <use style="fill:#471365;fill-opacity:0.8;stroke:#471365;stroke-opacity:0.8;" x="224.174718" xlink:href="#me212ee8305" y="121.67876"/>
     <use style="fill:#471365;fill-opacity:0.8;stroke:#471365;stroke-opacity:0.8;" x="249.025949" xlink:href="#me212ee8305" y="135.225831"/>
     <use style="fill:#471365;fill-opacity:0.8;stroke:#471365;stroke-opacity:0.8;" x="253.928815" xlink:href="#me212ee8305" y="143.686027"/>
     <use style="fill:#471365;fill-opacity:0.8;stroke:#471365;stroke-opacity:0.8;" x="284.257468" xlink:href="#me212ee8305" y="177.011974"/>
     <use style="fill:#471365;fill-opacity:0.8;stroke:#471365;stroke-opacity:0.8;" x="259.654639" xlink:href="#me212ee8305" y="109.753035"/>
     <use style="fill:#471365;fill-opacity:0.8;stroke:#471365;stroke-opacity:0.8;" x="185.170385" xlink:href="#me212ee8305" y="125.766702"/>
     <use style="fill:#471365;fill-opacity:0.8;stroke:#471365;stroke-opacity:0.8;" x="116.04269" xlink:href="#me212ee8305" y="110.744284"/>
     <use style="fill:#471365;fill-opacity:0.8;stroke:#471365;stroke-opacity:0.8;" x="288.500479" xlink:href="#me212ee8305" y="128.156458"/>
     <use style="fill:#471365;fill-opacity:0.8;stroke:#471365;stroke-opacity:0.8;" x="274.28091" xlink:href="#me212ee8305" y="130.91505"/>
     <use style="fill:#471365;fill-opacity:0.8;stroke:#471365;stroke-opacity:0.8;" x="263.388966" xlink:href="#me212ee8305" y="172.293936"/>
     <use style="fill:#471365;fill-opacity:0.8;stroke:#471365;stroke-opacity:0.8;" x="254.395038" xlink:href="#me212ee8305" y="130.454004"/>
     <use style="fill:#471365;fill-opacity:0.8;stroke:#471365;stroke-opacity:0.8;" x="251.474012" xlink:href="#me212ee8305" y="124.429669"/>
     <use style="fill:#471365;fill-opacity:0.8;stroke:#471365;stroke-opacity:0.8;" x="291.186759" xlink:href="#me212ee8305" y="132.597868"/>
     <use style="fill:#471365;fill-opacity:0.8;stroke:#471365;stroke-opacity:0.8;" x="232.544772" xlink:href="#me212ee8305" y="111.343644"/>
     <use style="fill:#471365;fill-opacity:0.8;stroke:#471365;stroke-opacity:0.8;" x="216.247223" xlink:href="#me212ee8305" y="128.525295"/>
     <use style="fill:#471365;fill-opacity:0.8;stroke:#471365;stroke-opacity:0.8;" x="253.772804" xlink:href="#me212ee8305" y="110.844178"/>
     <use style="fill:#471365;fill-opacity:0.8;stroke:#471365;stroke-opacity:0.8;" x="275.9884" xlink:href="#me212ee8305" y="119.496476"/>
     <use style="fill:#471365;fill-opacity:0.8;stroke:#471365;stroke-opacity:0.8;" x="271.193382" xlink:href="#me212ee8305" y="118.789538"/>
     <use style="fill:#471365;fill-opacity:0.8;stroke:#471365;stroke-opacity:0.8;" x="290.984858" xlink:href="#me212ee8305" y="149.641205"/>
     <use style="fill:#471365;fill-opacity:0.8;stroke:#471365;stroke-opacity:0.8;" x="271.860514" xlink:href="#me212ee8305" y="165.247615"/>
     <use style="fill:#471365;fill-opacity:0.8;stroke:#471365;stroke-opacity:0.8;" x="287.162251" xlink:href="#me212ee8305" y="179.048261"/>
     <use style="fill:#471365;fill-opacity:0.8;stroke:#471365;stroke-opacity:0.8;" x="270.974048" xlink:href="#me212ee8305" y="131.629672"/>
     <use style="fill:#471365;fill-opacity:0.8;stroke:#471365;stroke-opacity:0.8;" x="268.307016" xlink:href="#me212ee8305" y="129.900749"/>
     <use style="fill:#471365;fill-opacity:0.8;stroke:#471365;stroke-opacity:0.8;" x="262.862914" xlink:href="#me212ee8305" y="122.946637"/>
     <use style="fill:#471365;fill-opacity:0.8;stroke:#471365;stroke-opacity:0.8;" x="249.789912" xlink:href="#me212ee8305" y="137.185277"/>
     <use style="fill:#471365;fill-opacity:0.8;stroke:#471365;stroke-opacity:0.8;" x="269.354901" xlink:href="#me212ee8305" y="149.164791"/>
     <use style="fill:#471365;fill-opacity:0.8;stroke:#471365;stroke-opacity:0.8;" x="216.18906" xlink:href="#me212ee8305" y="169.381661"/>
     <use style="fill:#471365;fill-opacity:0.8;stroke:#471365;stroke-opacity:0.8;" x="271.166237" xlink:href="#me212ee8305" y="125.935753"/>
     <use style="fill:#471365;fill-opacity:0.8;stroke:#471365;stroke-opacity:0.8;" x="283.894329" xlink:href="#me212ee8305" y="155.557963"/>
     <use style="fill:#471365;fill-opacity:0.8;stroke:#471365;stroke-opacity:0.8;" x="280.140592" xlink:href="#me212ee8305" y="113.164776"/>
     <use style="fill:#471365;fill-opacity:0.8;stroke:#471365;stroke-opacity:0.8;" x="283.482571" xlink:href="#me212ee8305" y="119.957522"/>
     <use style="fill:#471365;fill-opacity:0.8;stroke:#471365;stroke-opacity:0.8;" x="237.782341" xlink:href="#me212ee8305" y="128.878763"/>
     <use style="fill:#471365;fill-opacity:0.8;stroke:#471365;stroke-opacity:0.8;" x="230.270193" xlink:href="#me212ee8305" y="125.413234"/>
     <use style="fill:#471365;fill-opacity:0.8;stroke:#471365;stroke-opacity:0.8;" x="271.514292" xlink:href="#me212ee8305" y="159.269384"/>
     <use style="fill:#471365;fill-opacity:0.8;stroke:#471365;stroke-opacity:0.8;" x="284.017219" xlink:href="#me212ee8305" y="129.301389"/>
     <use style="fill:#471365;fill-opacity:0.8;stroke:#471365;stroke-opacity:0.8;" x="185.321323" xlink:href="#me212ee8305" y="124.306723"/>
     <use style="fill:#471365;fill-opacity:0.8;stroke:#471365;stroke-opacity:0.8;" x="193.043079" xlink:href="#me212ee8305" y="114.002343"/>
     <use style="fill:#471365;fill-opacity:0.8;stroke:#471365;stroke-opacity:0.8;" x="277.051364" xlink:href="#me212ee8305" y="118.866379"/>
     <use style="fill:#471365;fill-opacity:0.8;stroke:#471365;stroke-opacity:0.8;" x="280.677971" xlink:href="#me212ee8305" y="175.475154"/>
     <use style="fill:#471365;fill-opacity:0.8;stroke:#471365;stroke-opacity:0.8;" x="264.939044" xlink:href="#me212ee8305" y="153.014526"/>
     <use style="fill:#471365;fill-opacity:0.8;stroke:#471365;stroke-opacity:0.8;" x="174.430136" xlink:href="#me212ee8305" y="119.350478"/>
     <use style="fill:#471365;fill-opacity:0.8;stroke:#471365;stroke-opacity:0.8;" x="234.152734" xlink:href="#me212ee8305" y="176.87366"/>
     <use style="fill:#471365;fill-opacity:0.8;stroke:#471365;stroke-opacity:0.8;" x="264.82778" xlink:href="#me212ee8305" y="124.137673"/>
     <use style="fill:#471365;fill-opacity:0.8;stroke:#471365;stroke-opacity:0.8;" x="112.242627" xlink:href="#me212ee8305" y="144.462121"/>
     <use style="fill:#471365;fill-opacity:0.8;stroke:#471365;stroke-opacity:0.8;" x="279.79611" xlink:href="#me212ee8305" y="119.84226"/>
     <use style="fill:#471365;fill-opacity:0.8;stroke:#471365;stroke-opacity:0.8;" x="205.561212" xlink:href="#me212ee8305" y="124.060832"/>
     <use style="fill:#471365;fill-opacity:0.8;stroke:#471365;stroke-opacity:0.8;" x="276.293372" xlink:href="#me212ee8305" y="134.541946"/>
     <use style="fill:#471365;fill-opacity:0.8;stroke:#471365;stroke-opacity:0.8;" x="266.65589" xlink:href="#me212ee8305" y="126.834792"/>
     <use style="fill:#471365;fill-opacity:0.8;stroke:#471365;stroke-opacity:0.8;" x="229.607982" xlink:href="#me212ee8305" y="131.760301"/>
     <use style="fill:#471365;fill-opacity:0.8;stroke:#471365;stroke-opacity:0.8;" x="279.62878" xlink:href="#me212ee8305" y="115.170327"/>
     <use style="fill:#471365;fill-opacity:0.8;stroke:#471365;stroke-opacity:0.8;" x="279.232335" xlink:href="#me212ee8305" y="154.320823"/>
     <use style="fill:#471365;fill-opacity:0.8;stroke:#471365;stroke-opacity:0.8;" x="280.738212" xlink:href="#me212ee8305" y="148.580799"/>
     <use style="fill:#471365;fill-opacity:0.8;stroke:#471365;stroke-opacity:0.8;" x="238.076378" xlink:href="#me212ee8305" y="146.782719"/>
     <use style="fill:#471365;fill-opacity:0.8;stroke:#471365;stroke-opacity:0.8;" x="218.114301" xlink:href="#me212ee8305" y="110.790389"/>
     <use style="fill:#471365;fill-opacity:0.8;stroke:#471365;stroke-opacity:0.8;" x="269.889372" xlink:href="#me212ee8305" y="148.127437"/>
     <use style="fill:#471365;fill-opacity:0.8;stroke:#471365;stroke-opacity:0.8;" x="225.932935" xlink:href="#me212ee8305" y="137.984423"/>
     <use style="fill:#471365;fill-opacity:0.8;stroke:#471365;stroke-opacity:0.8;" x="273.713836" xlink:href="#me212ee8305" y="138.122737"/>
     <use style="fill:#471365;fill-opacity:0.8;stroke:#471365;stroke-opacity:0.8;" x="274.70672" xlink:href="#me212ee8305" y="137.385064"/>
     <use style="fill:#471365;fill-opacity:0.8;stroke:#471365;stroke-opacity:0.8;" x="232.824476" xlink:href="#me212ee8305" y="110.713548"/>
     <use style="fill:#471365;fill-opacity:0.8;stroke:#471365;stroke-opacity:0.8;" x="194.923189" xlink:href="#me212ee8305" y="115.554532"/>
     <use style="fill:#471365;fill-opacity:0.8;stroke:#471365;stroke-opacity:0.8;" x="278.529377" xlink:href="#me212ee8305" y="151.208762"/>
     <use style="fill:#471365;fill-opacity:0.8;stroke:#471365;stroke-opacity:0.8;" x="272.754615" xlink:href="#me212ee8305" y="133.35091"/>
     <use style="fill:#471365;fill-opacity:0.8;stroke:#471365;stroke-opacity:0.8;" x="278.841935" xlink:href="#me212ee8305" y="117.606187"/>
     <use style="fill:#471365;fill-opacity:0.8;stroke:#471365;stroke-opacity:0.8;" x="244.0988" xlink:href="#me212ee8305" y="133.066599"/>
     <use style="fill:#471365;fill-opacity:0.8;stroke:#471365;stroke-opacity:0.8;" x="278.892358" xlink:href="#me212ee8305" y="121.271503"/>
     <use style="fill:#471365;fill-opacity:0.8;stroke:#471365;stroke-opacity:0.8;" x="275.769972" xlink:href="#me212ee8305" y="128.694345"/>
     <use style="fill:#471365;fill-opacity:0.8;stroke:#471365;stroke-opacity:0.8;" x="287.116424" xlink:href="#me212ee8305" y="156.410898"/>
     <use style="fill:#471365;fill-opacity:0.8;stroke:#471365;stroke-opacity:0.8;" x="284.10736" xlink:href="#me212ee8305" y="153.652306"/>
     <use style="fill:#471365;fill-opacity:0.8;stroke:#471365;stroke-opacity:0.8;" x="277.583324" xlink:href="#me212ee8305" y="155.427333"/>
     <use style="fill:#471365;fill-opacity:0.8;stroke:#471365;stroke-opacity:0.8;" x="261.966383" xlink:href="#me212ee8305" y="181.868326"/>
     <use style="fill:#471365;fill-opacity:0.8;stroke:#471365;stroke-opacity:0.8;" x="271.565298" xlink:href="#me212ee8305" y="113.7334"/>
     <use style="fill:#471365;fill-opacity:0.8;stroke:#471365;stroke-opacity:0.8;" x="291.851468" xlink:href="#me212ee8305" y="139.505875"/>
     <use style="fill:#471365;fill-opacity:0.8;stroke:#471365;stroke-opacity:0.8;" x="235.362806" xlink:href="#me212ee8305" y="142.533411"/>
     <use style="fill:#471365;fill-opacity:0.8;stroke:#471365;stroke-opacity:0.8;" x="259.035021" xlink:href="#me212ee8305" y="129.155391"/>
     <use style="fill:#471365;fill-opacity:0.8;stroke:#471365;stroke-opacity:0.8;" x="213.471809" xlink:href="#me212ee8305" y="158.785286"/>
     <use style="fill:#471365;fill-opacity:0.8;stroke:#471365;stroke-opacity:0.8;" x="278.634479" xlink:href="#me212ee8305" y="180.231612"/>
     <use style="fill:#471365;fill-opacity:0.8;stroke:#471365;stroke-opacity:0.8;" x="247.232142" xlink:href="#me212ee8305" y="116.730199"/>
     <use style="fill:#471365;fill-opacity:0.8;stroke:#471365;stroke-opacity:0.8;" x="266.509376" xlink:href="#me212ee8305" y="177.465336"/>
     <use style="fill:#471365;fill-opacity:0.8;stroke:#471365;stroke-opacity:0.8;" x="250.762879" xlink:href="#me212ee8305" y="146.021993"/>
     <use style="fill:#471365;fill-opacity:0.8;stroke:#471365;stroke-opacity:0.8;" x="277.588702" xlink:href="#me212ee8305" y="160.598733"/>
     <use style="fill:#471365;fill-opacity:0.8;stroke:#471365;stroke-opacity:0.8;" x="265.694834" xlink:href="#me212ee8305" y="115.039697"/>
     <use style="fill:#471365;fill-opacity:0.8;stroke:#471365;stroke-opacity:0.8;" x="291.658738" xlink:href="#me212ee8305" y="115.639057"/>
     <use style="fill:#471365;fill-opacity:0.8;stroke:#471365;stroke-opacity:0.8;" x="270.637354" xlink:href="#me212ee8305" y="143.862761"/>
     <use style="fill:#471365;fill-opacity:0.8;stroke:#471365;stroke-opacity:0.8;" x="290.349914" xlink:href="#me212ee8305" y="130.169692"/>
     <use style="fill:#471365;fill-opacity:0.8;stroke:#471365;stroke-opacity:0.8;" x="285.544274" xlink:href="#me212ee8305" y="144.938535"/>
     <use style="fill:#471365;fill-opacity:0.8;stroke:#471365;stroke-opacity:0.8;" x="239.021486" xlink:href="#me212ee8305" y="131.299255"/>
     <use style="fill:#471365;fill-opacity:0.8;stroke:#471365;stroke-opacity:0.8;" x="254.997227" xlink:href="#me212ee8305" y="148.204278"/>
     <use style="fill:#471365;fill-opacity:0.8;stroke:#471365;stroke-opacity:0.8;" x="190.222098" xlink:href="#me212ee8305" y="124.153041"/>
     <use style="fill:#471365;fill-opacity:0.8;stroke:#471365;stroke-opacity:0.8;" x="240.319001" xlink:href="#me212ee8305" y="162.880912"/>
     <use style="fill:#471365;fill-opacity:0.8;stroke:#471365;stroke-opacity:0.8;" x="276.39295" xlink:href="#me212ee8305" y="140.597018"/>
     <use style="fill:#471365;fill-opacity:0.8;stroke:#471365;stroke-opacity:0.8;" x="181.002379" xlink:href="#me212ee8305" y="115.708214"/>
     <use style="fill:#471365;fill-opacity:0.8;stroke:#471365;stroke-opacity:0.8;" x="289.55797" xlink:href="#me212ee8305" y="168.697776"/>
     <use style="fill:#471365;fill-opacity:0.8;stroke:#471365;stroke-opacity:0.8;" x="266.281021" xlink:href="#me212ee8305" y="143.609186"/>
     <use style="fill:#471365;fill-opacity:0.8;stroke:#471365;stroke-opacity:0.8;" x="280.78239" xlink:href="#me212ee8305" y="119.703946"/>
     <use style="fill:#471365;fill-opacity:0.8;stroke:#471365;stroke-opacity:0.8;" x="195.326115" xlink:href="#me212ee8305" y="117.959655"/>
     <use style="fill:#471365;fill-opacity:0.8;stroke:#471365;stroke-opacity:0.8;" x="264.104916" xlink:href="#me212ee8305" y="127.003843"/>
     <use style="fill:#471365;fill-opacity:0.8;stroke:#471365;stroke-opacity:0.8;" x="264.648786" xlink:href="#me212ee8305" y="115.193379"/>
     <use style="fill:#471365;fill-opacity:0.8;stroke:#471365;stroke-opacity:0.8;" x="109.906866" xlink:href="#me212ee8305" y="111.020912"/>
     <use style="fill:#471365;fill-opacity:0.8;stroke:#471365;stroke-opacity:0.8;" x="281.885845" xlink:href="#me212ee8305" y="140.796804"/>
     <use style="fill:#471365;fill-opacity:0.8;stroke:#471365;stroke-opacity:0.8;" x="258.373712" xlink:href="#me212ee8305" y="157.140888"/>
     <use style="fill:#471365;fill-opacity:0.8;stroke:#471365;stroke-opacity:0.8;" x="266.165438" xlink:href="#me212ee8305" y="127.288154"/>
     <use style="fill:#471365;fill-opacity:0.8;stroke:#471365;stroke-opacity:0.8;" x="288.927236" xlink:href="#me212ee8305" y="132.45187"/>
     <use style="fill:#471365;fill-opacity:0.8;stroke:#471365;stroke-opacity:0.8;" x="289.353387" xlink:href="#me212ee8305" y="121.048664"/>
     <use style="fill:#471365;fill-opacity:0.8;stroke:#471365;stroke-opacity:0.8;" x="235.701632" xlink:href="#me212ee8305" y="117.590819"/>
     <use style="fill:#471365;fill-opacity:0.8;stroke:#471365;stroke-opacity:0.8;" x="272.831652" xlink:href="#me212ee8305" y="123.922518"/>
     <use style="fill:#471365;fill-opacity:0.8;stroke:#471365;stroke-opacity:0.8;" x="210.920716" xlink:href="#me212ee8305" y="131.237782"/>
     <use style="fill:#471365;fill-opacity:0.8;stroke:#471365;stroke-opacity:0.8;" x="269.787161" xlink:href="#me212ee8305" y="119.819208"/>
     <use style="fill:#471365;fill-opacity:0.8;stroke:#471365;stroke-opacity:0.8;" x="275.458167" xlink:href="#me212ee8305" y="141.849526"/>
     <use style="fill:#471365;fill-opacity:0.8;stroke:#471365;stroke-opacity:0.8;" x="253.711503" xlink:href="#me212ee8305" y="167.93705"/>
     <use style="fill:#471365;fill-opacity:0.8;stroke:#471365;stroke-opacity:0.8;" x="270.449988" xlink:href="#me212ee8305" y="157.271518"/>
     <use style="fill:#471365;fill-opacity:0.8;stroke:#471365;stroke-opacity:0.8;" x="243.437973" xlink:href="#me212ee8305" y="115.262536"/>
     <use style="fill:#471365;fill-opacity:0.8;stroke:#471365;stroke-opacity:0.8;" x="205.677687" xlink:href="#me212ee8305" y="133.066599"/>
     <use style="fill:#471365;fill-opacity:0.8;stroke:#471365;stroke-opacity:0.8;" x="280.71897" xlink:href="#me212ee8305" y="148.127437"/>
     <use style="fill:#471365;fill-opacity:0.8;stroke:#471365;stroke-opacity:0.8;" x="263.5508" xlink:href="#me212ee8305" y="142.395098"/>
     <use style="fill:#471365;fill-opacity:0.8;stroke:#471365;stroke-opacity:0.8;" x="282.030086" xlink:href="#me212ee8305" y="114.63244"/>
     <use style="fill:#471365;fill-opacity:0.8;stroke:#471365;stroke-opacity:0.8;" x="231.660681" xlink:href="#me212ee8305" y="128.840343"/>
     <use style="fill:#471365;fill-opacity:0.8;stroke:#471365;stroke-opacity:0.8;" x="284.92795" xlink:href="#me212ee8305" y="127.203629"/>
     <use style="fill:#471365;fill-opacity:0.8;stroke:#471365;stroke-opacity:0.8;" x="257.400105" xlink:href="#me212ee8305" y="140.112919"/>
     <use style="fill:#471365;fill-opacity:0.8;stroke:#471365;stroke-opacity:0.8;" x="279.081863" xlink:href="#me212ee8305" y="118.789538"/>
     <use style="fill:#471365;fill-opacity:0.8;stroke:#471365;stroke-opacity:0.8;" x="180.465852" xlink:href="#me212ee8305" y="121.094769"/>
     <use style="fill:#471365;fill-opacity:0.8;stroke:#471365;stroke-opacity:0.8;" x="243.62629" xlink:href="#me212ee8305" y="135.356461"/>
     <use style="fill:#471365;fill-opacity:0.8;stroke:#471365;stroke-opacity:0.8;" x="277.439375" xlink:href="#me212ee8305" y="134.188477"/>
     <use style="fill:#471365;fill-opacity:0.8;stroke:#471365;stroke-opacity:0.8;" x="251.420721" xlink:href="#me212ee8305" y="117.882814"/>
     <use style="fill:#471365;fill-opacity:0.8;stroke:#471365;stroke-opacity:0.8;" x="269.143543" xlink:href="#me212ee8305" y="150.609402"/>
     <use style="fill:#471365;fill-opacity:0.8;stroke:#471365;stroke-opacity:0.8;" x="261.186181" xlink:href="#me212ee8305" y="118.559015"/>
     <use style="fill:#471365;fill-opacity:0.8;stroke:#471365;stroke-opacity:0.8;" x="267.939943" xlink:href="#me212ee8305" y="165.393613"/>
     <use style="fill:#471365;fill-opacity:0.8;stroke:#471365;stroke-opacity:0.8;" x="269.116548" xlink:href="#me212ee8305" y="123.622838"/>
     <use style="fill:#471365;fill-opacity:0.8;stroke:#471365;stroke-opacity:0.8;" x="267.29562" xlink:href="#me212ee8305" y="134.749417"/>
     <use style="fill:#471365;fill-opacity:0.8;stroke:#471365;stroke-opacity:0.8;" x="256.654468" xlink:href="#me212ee8305" y="117.022195"/>
     <use style="fill:#471365;fill-opacity:0.8;stroke:#471365;stroke-opacity:0.8;" x="268.213184" xlink:href="#me212ee8305" y="118.121022"/>
     <use style="fill:#471365;fill-opacity:0.8;stroke:#471365;stroke-opacity:0.8;" x="260.727906" xlink:href="#me212ee8305" y="114.20213"/>
     <use style="fill:#471365;fill-opacity:0.8;stroke:#471365;stroke-opacity:0.8;" x="280.107773" xlink:href="#me212ee8305" y="119.67321"/>
     <use style="fill:#471365;fill-opacity:0.8;stroke:#471365;stroke-opacity:0.8;" x="236.852163" xlink:href="#me212ee8305" y="112.626889"/>
     <use style="fill:#471365;fill-opacity:0.8;stroke:#471365;stroke-opacity:0.8;" x="230.079363" xlink:href="#me212ee8305" y="114.50181"/>
     <use style="fill:#471365;fill-opacity:0.8;stroke:#471365;stroke-opacity:0.8;" x="284.820695" xlink:href="#me212ee8305" y="160.268317"/>
     <use style="fill:#471365;fill-opacity:0.8;stroke:#471365;stroke-opacity:0.8;" x="277.844879" xlink:href="#me212ee8305" y="138.691361"/>
     <use style="fill:#471365;fill-opacity:0.8;stroke:#471365;stroke-opacity:0.8;" x="250.314425" xlink:href="#me212ee8305" y="124.521878"/>
     <use style="fill:#471365;fill-opacity:0.8;stroke:#471365;stroke-opacity:0.8;" x="219.328317" xlink:href="#me212ee8305" y="112.53468"/>
     <use style="fill:#471365;fill-opacity:0.8;stroke:#471365;stroke-opacity:0.8;" x="290.16019" xlink:href="#me212ee8305" y="151.715912"/>
     <use style="fill:#471365;fill-opacity:0.8;stroke:#471365;stroke-opacity:0.8;" x="271.167285" xlink:href="#me212ee8305" y="116.007894"/>
     <use style="fill:#471365;fill-opacity:0.8;stroke:#471365;stroke-opacity:0.8;" x="284.290216" xlink:href="#me212ee8305" y="155.919116"/>
     <use style="fill:#471365;fill-opacity:0.8;stroke:#471365;stroke-opacity:0.8;" x="285.321048" xlink:href="#me212ee8305" y="151.001291"/>
     <use style="fill:#471365;fill-opacity:0.8;stroke:#471365;stroke-opacity:0.8;" x="280.517925" xlink:href="#me212ee8305" y="179.862775"/>
     <use style="fill:#471365;fill-opacity:0.8;stroke:#471365;stroke-opacity:0.8;" x="256.386762" xlink:href="#me212ee8305" y="133.689011"/>
     <use style="fill:#471365;fill-opacity:0.8;stroke:#471365;stroke-opacity:0.8;" x="280.12916" xlink:href="#me212ee8305" y="176.312721"/>
     <use style="fill:#471365;fill-opacity:0.8;stroke:#471365;stroke-opacity:0.8;" x="276.028403" xlink:href="#me212ee8305" y="124.421985"/>
     <use style="fill:#471365;fill-opacity:0.8;stroke:#471365;stroke-opacity:0.8;" x="231.729254" xlink:href="#me212ee8305" y="127.595518"/>
     <use style="fill:#471365;fill-opacity:0.8;stroke:#471365;stroke-opacity:0.8;" x="288.959217" xlink:href="#me212ee8305" y="148.649956"/>
     <use style="fill:#471365;fill-opacity:0.8;stroke:#471365;stroke-opacity:0.8;" x="282.461195" xlink:href="#me212ee8305" y="213.357773"/>
     <use style="fill:#471365;fill-opacity:0.8;stroke:#471365;stroke-opacity:0.8;" x="258.932821" xlink:href="#me212ee8305" y="111.351328"/>
     <use style="fill:#471365;fill-opacity:0.8;stroke:#471365;stroke-opacity:0.8;" x="254.412783" xlink:href="#me212ee8305" y="140.228181"/>
     <use style="fill:#471365;fill-opacity:0.8;stroke:#471365;stroke-opacity:0.8;" x="271.727836" xlink:href="#me212ee8305" y="118.190178"/>
     <use style="fill:#471365;fill-opacity:0.8;stroke:#471365;stroke-opacity:0.8;" x="275.682254" xlink:href="#me212ee8305" y="136.616653"/>
     <use style="fill:#471365;fill-opacity:0.8;stroke:#471365;stroke-opacity:0.8;" x="248.735002" xlink:href="#me212ee8305" y="139.674926"/>
     <use style="fill:#471365;fill-opacity:0.8;stroke:#471365;stroke-opacity:0.8;" x="291.046751" xlink:href="#me212ee8305" y="123.691995"/>
     <use style="fill:#471365;fill-opacity:0.8;stroke:#471365;stroke-opacity:0.8;" x="210.157023" xlink:href="#me212ee8305" y="151.52381"/>
     <use style="fill:#471365;fill-opacity:0.8;stroke:#471365;stroke-opacity:0.8;" x="291.417806" xlink:href="#me212ee8305" y="137.915267"/>
     <use style="fill:#471365;fill-opacity:0.8;stroke:#471365;stroke-opacity:0.8;" x="246.088479" xlink:href="#me212ee8305" y="156.003641"/>
     <use style="fill:#471365;fill-opacity:0.8;stroke:#471365;stroke-opacity:0.8;" x="234.866007" xlink:href="#me212ee8305" y="110.152609"/>
     <use style="fill:#471365;fill-opacity:0.8;stroke:#471365;stroke-opacity:0.8;" x="274.497183" xlink:href="#me212ee8305" y="141.303955"/>
    </g>
   </g>
   <g id="PolyCollection_1">
    <defs>
     <path d="M 63.579924 -336.695555 
L 63.579924 -310.027155 
L 66.353646 -309.802753 
L 69.127368 -309.578522 
L 71.90109 -309.354552 
L 74.674813 -309.130583 
L 77.448535 -308.906614 
L 80.222257 -308.68857 
L 82.995979 -308.478662 
L 85.769701 -308.269049 
L 88.543423 -308.050495 
L 91.317145 -307.849923 
L 94.090867 -307.638792 
L 96.864589 -307.412952 
L 99.638311 -307.177748 
L 102.412033 -306.932701 
L 105.185755 -306.709184 
L 107.959477 -306.486405 
L 110.733199 -306.277958 
L 113.506921 -306.051479 
L 116.280644 -305.832075 
L 119.054366 -305.606235 
L 121.828088 -305.380395 
L 124.60181 -305.154556 
L 127.375532 -304.928716 
L 130.149254 -304.703265 
L 132.922976 -304.480247 
L 135.696698 -304.25723 
L 138.47042 -304.034212 
L 141.244142 -303.799172 
L 144.017864 -303.572977 
L 146.791586 -303.365159 
L 149.565308 -303.142142 
L 152.33903 -302.919124 
L 155.112753 -302.696107 
L 157.886475 -302.473089 
L 160.660197 -302.250072 
L 163.433919 -302.027738 
L 166.207641 -301.808345 
L 168.981363 -301.601659 
L 171.755085 -301.405389 
L 174.528807 -301.16591 
L 177.302529 -300.95172 
L 180.076251 -300.70021 
L 182.849973 -300.501189 
L 185.623695 -300.302321 
L 188.397417 -300.020711 
L 191.171139 -299.732692 
L 193.944861 -299.497137 
L 196.718584 -299.280415 
L 199.492306 -299.089344 
L 202.266028 -298.811344 
L 205.03975 -298.542969 
L 207.813472 -298.320066 
L 210.587194 -298.080732 
L 213.360916 -297.725533 
L 216.134638 -297.496784 
L 218.90836 -297.202481 
L 221.682082 -296.941766 
L 224.455804 -296.641518 
L 227.229526 -296.339409 
L 230.003248 -296.065925 
L 232.77697 -295.707058 
L 235.550693 -295.380719 
L 238.324415 -294.99371 
L 241.098137 -294.624743 
L 243.871859 -294.242451 
L 246.645581 -293.828431 
L 249.419303 -293.500377 
L 252.193025 -293.055787 
L 254.966747 -292.56746 
L 257.740469 -292.102194 
L 260.514191 -291.614792 
L 263.287913 -291.126313 
L 266.061635 -290.657115 
L 268.835357 -290.114112 
L 271.609079 -289.62708 
L 274.382801 -289.168289 
L 277.156524 -288.608692 
L 279.930246 -288.137249 
L 282.703968 -287.531884 
L 285.47769 -286.946182 
L 288.251412 -286.351779 
L 291.025134 -285.827169 
L 293.798856 -285.28102 
L 296.572578 -284.669684 
L 299.3463 -284.10666 
L 302.120022 -283.583394 
L 304.893744 -283.051117 
L 307.667466 -282.521162 
L 310.441188 -281.952324 
L 313.21491 -281.395222 
L 315.988633 -280.812581 
L 318.762355 -280.222104 
L 321.536077 -279.629157 
L 324.309799 -279.011209 
L 327.083521 -278.456959 
L 329.857243 -277.90822 
L 332.630965 -277.302547 
L 335.404687 -276.707817 
L 338.178409 -276.121595 
L 338.178409 -289.904953 
L 338.178409 -289.904953 
L 335.404687 -290.171632 
L 332.630965 -290.373138 
L 329.857243 -290.564522 
L 327.083521 -290.816576 
L 324.309799 -291.066443 
L 321.536077 -291.304792 
L 318.762355 -291.535864 
L 315.988633 -291.821424 
L 313.21491 -292.073294 
L 310.441188 -292.289599 
L 307.667466 -292.536183 
L 304.893744 -292.684215 
L 302.120022 -292.848082 
L 299.3463 -293.107772 
L 296.572578 -293.369439 
L 293.798856 -293.662618 
L 291.025134 -293.891012 
L 288.251412 -294.113981 
L 285.47769 -294.414977 
L 282.703968 -294.676672 
L 279.930246 -295.014353 
L 277.156524 -295.349586 
L 274.382801 -295.692575 
L 271.609079 -296.056143 
L 268.835357 -296.28367 
L 266.061635 -296.557467 
L 263.287913 -296.866179 
L 260.514191 -297.207945 
L 257.740469 -297.554068 
L 254.966747 -297.929965 
L 252.193025 -298.277348 
L 249.419303 -298.675552 
L 246.645581 -299.130955 
L 243.871859 -299.527228 
L 241.098137 -300.029433 
L 238.324415 -300.442579 
L 235.550693 -300.935641 
L 232.77697 -301.412257 
L 230.003248 -301.916754 
L 227.229526 -302.417678 
L 224.455804 -302.885645 
L 221.682082 -303.411002 
L 218.90836 -303.978914 
L 216.134638 -304.486671 
L 213.360916 -305.003646 
L 210.587194 -305.540708 
L 207.813472 -306.101736 
L 205.03975 -306.652358 
L 202.266028 -307.269145 
L 199.492306 -307.846702 
L 196.718584 -308.339703 
L 193.944861 -308.928428 
L 191.171139 -309.524382 
L 188.397417 -310.053119 
L 185.623695 -310.688559 
L 182.849973 -311.301951 
L 180.076251 -311.878612 
L 177.302529 -312.463332 
L 174.528807 -313.095336 
L 171.755085 -313.659801 
L 168.981363 -314.270478 
L 166.207641 -314.888095 
L 163.433919 -315.466894 
L 160.660197 -315.993789 
L 157.886475 -316.644901 
L 155.112753 -317.301448 
L 152.33903 -317.881662 
L 149.565308 -318.415864 
L 146.791586 -319.04258 
L 144.017864 -319.683441 
L 141.244142 -320.293173 
L 138.47042 -320.891648 
L 135.696698 -321.48946 
L 132.922976 -322.087272 
L 130.149254 -322.683341 
L 127.375532 -323.266632 
L 124.60181 -323.84722 
L 121.828088 -324.399443 
L 119.054366 -324.962812 
L 116.280644 -325.593149 
L 113.506921 -326.167636 
L 110.733199 -326.763898 
L 107.959477 -327.347409 
L 105.185755 -327.93092 
L 102.412033 -328.514431 
L 99.638311 -329.106132 
L 96.864589 -329.72326 
L 94.090867 -330.314393 
L 91.317145 -330.881669 
L 88.543423 -331.448832 
L 85.769701 -332.015995 
L 82.995979 -332.629826 
L 80.222257 -333.235523 
L 77.448535 -333.813726 
L 74.674813 -334.391307 
L 71.90109 -334.968887 
L 69.127368 -335.546468 
L 66.353646 -336.124049 
L 63.579924 -336.695555 
z
" id="mb0b2dc6a91" style="stroke:#ffffff;stroke-opacity:0.15;stroke-width:0.8;"/>
    </defs>
    <g clip-path="url(#pb8d7ff1723)">
     <use style="fill:#471365;fill-opacity:0.15;stroke:#ffffff;stroke-opacity:0.15;stroke-width:0.8;" x="0" xlink:href="#mb0b2dc6a91" y="432"/>
    </g>
   </g>
   <g id="line2d_11">
    <path clip-path="url(#pb8d7ff1723)" d="M 63.579924 108.659437 
L 66.353646 109.065411 
L 69.127368 109.471386 
L 71.90109 109.877361 
L 74.674813 110.283335 
L 77.448535 110.68931 
L 80.222257 111.095285 
L 82.995979 111.501259 
L 85.769701 111.907234 
L 88.543423 112.313209 
L 91.317145 112.719183 
L 94.090867 113.125158 
L 96.864589 113.531132 
L 99.638311 113.937107 
L 102.412033 114.343082 
L 105.185755 114.749056 
L 107.959477 115.155031 
L 110.733199 115.561006 
L 113.506921 115.96698 
L 116.280644 116.372955 
L 119.054366 116.77893 
L 121.828088 117.184904 
L 124.60181 117.590879 
L 127.375532 117.996854 
L 130.149254 118.402828 
L 132.922976 118.808803 
L 135.696698 119.214777 
L 138.47042 119.620752 
L 141.244142 120.026727 
L 144.017864 120.432701 
L 146.791586 120.838676 
L 149.565308 121.244651 
L 152.33903 121.650625 
L 155.112753 122.0566 
L 157.886475 122.462575 
L 160.660197 122.868549 
L 163.433919 123.274524 
L 166.207641 123.680499 
L 168.981363 124.086473 
L 171.755085 124.492448 
L 174.528807 124.898422 
L 177.302529 125.304397 
L 180.076251 125.710372 
L 182.849973 126.116346 
L 185.623695 126.522321 
L 188.397417 126.928296 
L 191.171139 127.33427 
L 193.944861 127.740245 
L 196.718584 128.14622 
L 199.492306 128.552194 
L 202.266028 128.958169 
L 205.03975 129.364143 
L 207.813472 129.770118 
L 210.587194 130.176093 
L 213.360916 130.582067 
L 216.134638 130.988042 
L 218.90836 131.394017 
L 221.682082 131.799991 
L 224.455804 132.205966 
L 227.229526 132.611941 
L 230.003248 133.017915 
L 232.77697 133.42389 
L 235.550693 133.829865 
L 238.324415 134.235839 
L 241.098137 134.641814 
L 243.871859 135.047788 
L 246.645581 135.453763 
L 249.419303 135.859738 
L 252.193025 136.265712 
L 254.966747 136.671687 
L 257.740469 137.077662 
L 260.514191 137.483636 
L 263.287913 137.889611 
L 266.061635 138.295586 
L 268.835357 138.70156 
L 271.609079 139.107535 
L 274.382801 139.51351 
L 277.156524 139.919484 
L 279.930246 140.325459 
L 282.703968 140.731433 
L 285.47769 141.137408 
L 288.251412 141.543383 
L 291.025134 141.949357 
L 293.798856 142.355332 
L 296.572578 142.761307 
L 299.3463 143.167281 
L 302.120022 143.573256 
L 304.893744 143.979231 
L 307.667466 144.385205 
L 310.441188 144.79118 
L 313.21491 145.197155 
L 315.988633 145.603129 
L 318.762355 146.009104 
L 321.536077 146.415078 
L 324.309799 146.821053 
L 327.083521 147.227028 
L 329.857243 147.633002 
L 332.630965 148.038977 
L 335.404687 148.444952 
L 338.178409 148.850926 
" style="fill:none;stroke:#471365;stroke-linecap:round;stroke-width:1.8;"/>
   </g>
   <g id="patch_3">
    <path d="M 49.85 389.9 
L 49.85 81.383333 
" style="fill:none;stroke:#262626;stroke-linecap:square;stroke-linejoin:miter;"/>
   </g>
   <g id="patch_4">
    <path d="M 49.85 389.9 
L 351.908333 389.9 
" style="fill:none;stroke:#262626;stroke-linecap:square;stroke-linejoin:miter;"/>
   </g>
   <g id="legend_1">
    <g id="patch_5">
     <path d="M 181.970708 101.340083 
L 345.748333 101.340083 
Q 347.508333 101.340083 347.508333 99.580083 
L 347.508333 87.543333 
Q 347.508333 85.783333 345.748333 85.783333 
L 181.970708 85.783333 
Q 180.210708 85.783333 180.210708 87.543333 
L 180.210708 99.580083 
Q 180.210708 101.340083 181.970708 101.340083 
z
" style="fill:#ffffff;opacity:0.8;stroke:#cccccc;stroke-linejoin:miter;stroke-width:0.8;"/>
    </g>
    <g id="line2d_12"/>
    <g id="line2d_13"/>
    <g id="text_13">
     <!-- pearsonr = -0.23; p = 0.00091 -->
     <defs>
      <path d="M 18.109375 8.203125 
L 18.109375 -20.796875 
L 9.078125 -20.796875 
L 9.078125 54.6875 
L 18.109375 54.6875 
L 18.109375 46.390625 
Q 20.953125 51.265625 25.265625 53.625 
Q 29.59375 56 35.59375 56 
Q 45.5625 56 51.78125 48.09375 
Q 58.015625 40.1875 58.015625 27.296875 
Q 58.015625 14.40625 51.78125 6.484375 
Q 45.5625 -1.421875 35.59375 -1.421875 
Q 29.59375 -1.421875 25.265625 0.953125 
Q 20.953125 3.328125 18.109375 8.203125 
z
M 48.6875 27.296875 
Q 48.6875 37.203125 44.609375 42.84375 
Q 40.53125 48.484375 33.40625 48.484375 
Q 26.265625 48.484375 22.1875 42.84375 
Q 18.109375 37.203125 18.109375 27.296875 
Q 18.109375 17.390625 22.1875 11.75 
Q 26.265625 6.109375 33.40625 6.109375 
Q 40.53125 6.109375 44.609375 11.75 
Q 48.6875 17.390625 48.6875 27.296875 
z
" id="DejaVuSans-70"/>
      <path d="M 44.28125 53.078125 
L 44.28125 44.578125 
Q 40.484375 46.53125 36.375 47.5 
Q 32.28125 48.484375 27.875 48.484375 
Q 21.1875 48.484375 17.84375 46.4375 
Q 14.5 44.390625 14.5 40.28125 
Q 14.5 37.15625 16.890625 35.375 
Q 19.28125 33.59375 26.515625 31.984375 
L 29.59375 31.296875 
Q 39.15625 29.25 43.1875 25.515625 
Q 47.21875 21.78125 47.21875 15.09375 
Q 47.21875 7.46875 41.1875 3.015625 
Q 35.15625 -1.421875 24.609375 -1.421875 
Q 20.21875 -1.421875 15.453125 -0.5625 
Q 10.6875 0.296875 5.421875 2 
L 5.421875 11.28125 
Q 10.40625 8.6875 15.234375 7.390625 
Q 20.0625 6.109375 24.8125 6.109375 
Q 31.15625 6.109375 34.5625 8.28125 
Q 37.984375 10.453125 37.984375 14.40625 
Q 37.984375 18.0625 35.515625 20.015625 
Q 33.0625 21.96875 24.703125 23.78125 
L 21.578125 24.515625 
Q 13.234375 26.265625 9.515625 29.90625 
Q 5.8125 33.546875 5.8125 39.890625 
Q 5.8125 47.609375 11.28125 51.796875 
Q 16.75 56 26.8125 56 
Q 31.78125 56 36.171875 55.265625 
Q 40.578125 54.546875 44.28125 53.078125 
z
" id="DejaVuSans-73"/>
      <path d="M 10.59375 45.40625 
L 73.1875 45.40625 
L 73.1875 37.203125 
L 10.59375 37.203125 
z
M 10.59375 25.484375 
L 73.1875 25.484375 
L 73.1875 17.1875 
L 10.59375 17.1875 
z
" id="DejaVuSans-3d"/>
      <path d="M 4.890625 31.390625 
L 31.203125 31.390625 
L 31.203125 23.390625 
L 4.890625 23.390625 
z
" id="DejaVuSans-2d"/>
      <path d="M 40.578125 39.3125 
Q 47.65625 37.796875 51.625 33 
Q 55.609375 28.21875 55.609375 21.1875 
Q 55.609375 10.40625 48.1875 4.484375 
Q 40.765625 -1.421875 27.09375 -1.421875 
Q 22.515625 -1.421875 17.65625 -0.515625 
Q 12.796875 0.390625 7.625 2.203125 
L 7.625 11.71875 
Q 11.71875 9.328125 16.59375 8.109375 
Q 21.484375 6.890625 26.8125 6.890625 
Q 36.078125 6.890625 40.9375 10.546875 
Q 45.796875 14.203125 45.796875 21.1875 
Q 45.796875 27.640625 41.28125 31.265625 
Q 36.765625 34.90625 28.71875 34.90625 
L 20.21875 34.90625 
L 20.21875 43.015625 
L 29.109375 43.015625 
Q 36.375 43.015625 40.234375 45.921875 
Q 44.09375 48.828125 44.09375 54.296875 
Q 44.09375 59.90625 40.109375 62.90625 
Q 36.140625 65.921875 28.71875 65.921875 
Q 24.65625 65.921875 20.015625 65.03125 
Q 15.375 64.15625 9.8125 62.3125 
L 9.8125 71.09375 
Q 15.4375 72.65625 20.34375 73.4375 
Q 25.25 74.21875 29.59375 74.21875 
Q 40.828125 74.21875 47.359375 69.109375 
Q 53.90625 64.015625 53.90625 55.328125 
Q 53.90625 49.265625 50.4375 45.09375 
Q 46.96875 40.921875 40.578125 39.3125 
z
" id="DejaVuSans-33"/>
      <path d="M 11.71875 51.703125 
L 22.015625 51.703125 
L 22.015625 39.3125 
L 11.71875 39.3125 
z
M 11.71875 12.40625 
L 22.015625 12.40625 
L 22.015625 4 
L 14.015625 -11.625 
L 7.71875 -11.625 
L 11.71875 4 
z
" id="DejaVuSans-3b"/>
     </defs>
     <g style="fill:#262626;" transform="translate(208.370708 95.989958)scale(0.088 -0.088)">
      <use xlink:href="#DejaVuSans-70"/>
      <use x="63.476562" xlink:href="#DejaVuSans-65"/>
      <use x="125" xlink:href="#DejaVuSans-61"/>
      <use x="186.279297" xlink:href="#DejaVuSans-72"/>
      <use x="227.392578" xlink:href="#DejaVuSans-73"/>
      <use x="279.492188" xlink:href="#DejaVuSans-6f"/>
      <use x="340.673828" xlink:href="#DejaVuSans-6e"/>
      <use x="404.052734" xlink:href="#DejaVuSans-72"/>
      <use x="445.166016" xlink:href="#DejaVuSans-20"/>
      <use x="476.953125" xlink:href="#DejaVuSans-3d"/>
      <use x="560.742188" xlink:href="#DejaVuSans-20"/>
      <use x="592.529297" xlink:href="#DejaVuSans-2d"/>
      <use x="628.613281" xlink:href="#DejaVuSans-30"/>
      <use x="692.236328" xlink:href="#DejaVuSans-2e"/>
      <use x="724.023438" xlink:href="#DejaVuSans-32"/>
      <use x="787.646484" xlink:href="#DejaVuSans-33"/>
      <use x="851.269531" xlink:href="#DejaVuSans-3b"/>
      <use x="884.960938" xlink:href="#DejaVuSans-20"/>
      <use x="916.748047" xlink:href="#DejaVuSans-70"/>
      <use x="980.224609" xlink:href="#DejaVuSans-20"/>
      <use x="1012.011719" xlink:href="#DejaVuSans-3d"/>
      <use x="1095.800781" xlink:href="#DejaVuSans-20"/>
      <use x="1127.587891" xlink:href="#DejaVuSans-30"/>
      <use x="1191.210938" xlink:href="#DejaVuSans-2e"/>
      <use x="1222.998047" xlink:href="#DejaVuSans-30"/>
      <use x="1286.621094" xlink:href="#DejaVuSans-30"/>
      <use x="1350.244141" xlink:href="#DejaVuSans-30"/>
      <use x="1413.867188" xlink:href="#DejaVuSans-39"/>
      <use x="1477.490234" xlink:href="#DejaVuSans-31"/>
     </g>
    </g>
   </g>
  </g>
  <g id="axes_2">
   <g id="patch_6">
    <path d="M 49.85 60.983333 
L 351.908333 60.983333 
L 351.908333 15.6 
L 49.85 15.6 
z
" style="fill:#ffffff;"/>
   </g>
   <g id="matplotlib.axis_3">
    <g id="xtick_5">
     <g id="line2d_14">
      <g>
       <use style="fill:#262626;stroke:#262626;" x="113.332893" xlink:href="#ma463cc45bb" y="60.983333"/>
      </g>
     </g>
    </g>
    <g id="xtick_6">
     <g id="line2d_15">
      <g>
       <use style="fill:#262626;stroke:#262626;" x="179.093817" xlink:href="#ma463cc45bb" y="60.983333"/>
      </g>
     </g>
    </g>
    <g id="xtick_7">
     <g id="line2d_16">
      <g>
       <use style="fill:#262626;stroke:#262626;" x="244.85474" xlink:href="#ma463cc45bb" y="60.983333"/>
      </g>
     </g>
    </g>
    <g id="xtick_8">
     <g id="line2d_17">
      <g>
       <use style="fill:#262626;stroke:#262626;" x="310.615663" xlink:href="#ma463cc45bb" y="60.983333"/>
      </g>
     </g>
    </g>
   </g>
   <g id="matplotlib.axis_4">
    <g id="ytick_7"/>
    <g id="ytick_8"/>
   </g>
   <g id="patch_7">
    <path clip-path="url(#p76143fb5b6)" d="M 109.906866 60.983333 
L 122.036506 60.983333 
L 122.036506 58.536792 
L 109.906866 58.536792 
z
" style="fill:#471365;opacity:0.4;stroke:#ffffff;stroke-linejoin:miter;stroke-width:0.8;"/>
   </g>
   <g id="patch_8">
    <path clip-path="url(#p76143fb5b6)" d="M 122.036506 60.983333 
L 134.166146 60.983333 
L 134.166146 60.983333 
L 122.036506 60.983333 
z
" style="fill:#471365;opacity:0.4;stroke:#ffffff;stroke-linejoin:miter;stroke-width:0.8;"/>
   </g>
   <g id="patch_9">
    <path clip-path="url(#p76143fb5b6)" d="M 134.166146 60.983333 
L 146.295786 60.983333 
L 146.295786 60.983333 
L 134.166146 60.983333 
z
" style="fill:#471365;opacity:0.4;stroke:#ffffff;stroke-linejoin:miter;stroke-width:0.8;"/>
   </g>
   <g id="patch_10">
    <path clip-path="url(#p76143fb5b6)" d="M 146.295786 60.983333 
L 158.425426 60.983333 
L 158.425426 60.983333 
L 146.295786 60.983333 
z
" style="fill:#471365;opacity:0.4;stroke:#ffffff;stroke-linejoin:miter;stroke-width:0.8;"/>
   </g>
   <g id="patch_11">
    <path clip-path="url(#p76143fb5b6)" d="M 158.425426 60.983333 
L 170.555066 60.983333 
L 170.555066 60.983333 
L 158.425426 60.983333 
z
" style="fill:#471365;opacity:0.4;stroke:#ffffff;stroke-linejoin:miter;stroke-width:0.8;"/>
   </g>
   <g id="patch_12">
    <path clip-path="url(#p76143fb5b6)" d="M 170.555066 60.983333 
L 182.684706 60.983333 
L 182.684706 57.721279 
L 170.555066 57.721279 
z
" style="fill:#471365;opacity:0.4;stroke:#ffffff;stroke-linejoin:miter;stroke-width:0.8;"/>
   </g>
   <g id="patch_13">
    <path clip-path="url(#p76143fb5b6)" d="M 182.684706 60.983333 
L 194.814347 60.983333 
L 194.814347 57.721279 
L 182.684706 57.721279 
z
" style="fill:#471365;opacity:0.4;stroke:#ffffff;stroke-linejoin:miter;stroke-width:0.8;"/>
   </g>
   <g id="patch_14">
    <path clip-path="url(#p76143fb5b6)" d="M 194.814347 60.983333 
L 206.943987 60.983333 
L 206.943987 56.090252 
L 194.814347 56.090252 
z
" style="fill:#471365;opacity:0.4;stroke:#ffffff;stroke-linejoin:miter;stroke-width:0.8;"/>
   </g>
   <g id="patch_15">
    <path clip-path="url(#p76143fb5b6)" d="M 206.943987 60.983333 
L 219.073627 60.983333 
L 219.073627 54.459224 
L 206.943987 54.459224 
z
" style="fill:#471365;opacity:0.4;stroke:#ffffff;stroke-linejoin:miter;stroke-width:0.8;"/>
   </g>
   <g id="patch_16">
    <path clip-path="url(#p76143fb5b6)" d="M 219.073627 60.983333 
L 231.203267 60.983333 
L 231.203267 51.19717 
L 219.073627 51.19717 
z
" style="fill:#471365;opacity:0.4;stroke:#ffffff;stroke-linejoin:miter;stroke-width:0.8;"/>
   </g>
   <g id="patch_17">
    <path clip-path="url(#p76143fb5b6)" d="M 231.203267 60.983333 
L 243.332907 60.983333 
L 243.332907 49.566143 
L 231.203267 49.566143 
z
" style="fill:#471365;opacity:0.4;stroke:#ffffff;stroke-linejoin:miter;stroke-width:0.8;"/>
   </g>
   <g id="patch_18">
    <path clip-path="url(#p76143fb5b6)" d="M 243.332907 60.983333 
L 255.462547 60.983333 
L 255.462547 43.042034 
L 243.332907 43.042034 
z
" style="fill:#471365;opacity:0.4;stroke:#ffffff;stroke-linejoin:miter;stroke-width:0.8;"/>
   </g>
   <g id="patch_19">
    <path clip-path="url(#p76143fb5b6)" d="M 255.462547 60.983333 
L 267.592188 60.983333 
L 267.592188 38.148952 
L 255.462547 38.148952 
z
" style="fill:#471365;opacity:0.4;stroke:#ffffff;stroke-linejoin:miter;stroke-width:0.8;"/>
   </g>
   <g id="patch_20">
    <path clip-path="url(#p76143fb5b6)" d="M 267.592188 60.983333 
L 279.721828 60.983333 
L 279.721828 17.761111 
L 267.592188 17.761111 
z
" style="fill:#471365;opacity:0.4;stroke:#ffffff;stroke-linejoin:miter;stroke-width:0.8;"/>
   </g>
   <g id="patch_21">
    <path clip-path="url(#p76143fb5b6)" d="M 279.721828 60.983333 
L 291.851468 60.983333 
L 291.851468 21.023166 
L 279.721828 21.023166 
z
" style="fill:#471365;opacity:0.4;stroke:#ffffff;stroke-linejoin:miter;stroke-width:0.8;"/>
   </g>
   <g id="line2d_18">
    <path clip-path="url(#p76143fb5b6)" d="M 76.061674 60.976605 
L 78.583239 60.97019 
L 81.104805 60.958868 
L 83.62637 60.939934 
L 86.147936 60.909957 
L 88.669501 60.865086 
L 91.191067 60.801683 
L 93.712632 60.717311 
L 96.234198 60.611904 
L 98.755763 60.488863 
L 101.277329 60.355644 
L 103.798894 60.223497 
L 106.32046 60.106141 
L 108.842025 60.017518 
L 111.363591 59.969092 
L 113.885156 59.967421 
L 116.406722 60.012701 
L 118.928287 60.098724 
L 121.449853 60.214276 
L 123.971418 60.345515 
L 126.492984 60.478648 
L 129.014549 60.60218 
L 131.536115 60.708238 
L 134.05768 60.792822 
L 136.579246 60.855139 
L 139.100811 60.896391 
L 141.622377 60.918406 
L 144.143943 60.922442 
L 146.665508 60.908356 
L 149.187074 60.874238 
L 151.708639 60.816513 
L 154.230205 60.730477 
L 156.75177 60.611179 
L 159.273336 60.454512 
L 161.794901 60.258322 
L 164.316467 60.023312 
L 166.838032 59.753539 
L 169.359598 59.456379 
L 171.881163 59.141945 
L 174.402729 58.822058 
L 176.924294 58.50893 
L 179.44586 58.213716 
L 181.967425 57.945085 
L 184.488991 57.707909 
L 187.010556 57.502186 
L 189.532122 57.322378 
L 192.053687 57.157378 
L 194.575253 56.991301 
L 197.096818 56.805166 
L 199.618384 56.579279 
L 202.139949 56.295875 
L 204.661515 55.941477 
L 207.18308 55.508506 
L 209.704646 54.995942 
L 212.226211 54.409224 
L 214.747777 53.759721 
L 217.269343 53.064043 
L 219.790908 52.34313 
L 222.312474 51.620634 
L 224.834039 50.92004 
L 227.355605 50.260285 
L 229.87717 49.650425 
L 232.398736 49.08471 
L 234.920301 48.539837 
L 237.441867 47.975758 
L 239.963432 47.34035 
L 242.484998 46.576926 
L 245.006563 45.63266 
L 247.528129 44.46602 
L 250.049694 43.052099 
L 252.57126 41.385946 
L 255.092825 39.484828 
L 257.614391 37.390338 
L 260.135956 35.170537 
L 262.657522 32.921229 
L 265.179087 30.764732 
L 267.700653 28.844523 
L 270.222218 27.314929 
L 272.743784 26.326274 
L 275.265349 26.007166 
L 277.786915 26.446573 
L 280.30848 27.678732 
L 282.830046 29.673878 
L 285.351612 32.337036 
L 287.873177 35.515939 
L 290.394743 39.017503 
L 292.916308 42.630517 
L 295.437874 46.150771 
L 297.959439 49.404142 
L 300.481005 52.263543 
L 303.00257 54.657074 
L 305.524136 56.5668 
L 308.045701 58.019696 
L 310.567267 59.073789 
L 313.088832 59.803055 
L 315.610398 60.284111 
L 318.131963 60.586615 
L 320.653529 60.767916 
L 323.175094 60.871457 
L 325.69666 60.927793 
" style="fill:none;stroke:#471365;stroke-linecap:round;stroke-width:1.2;"/>
   </g>
   <g id="patch_22">
    <path d="M 49.85 60.983333 
L 351.908333 60.983333 
" style="fill:none;stroke:#262626;stroke-linecap:square;stroke-linejoin:miter;"/>
   </g>
  </g>
  <g id="axes_3">
   <g id="patch_23">
    <path d="M 372.308333 389.9 
L 416.4 389.9 
L 416.4 81.383333 
L 372.308333 81.383333 
z
" style="fill:#ffffff;"/>
   </g>
   <g id="matplotlib.axis_5">
    <g id="xtick_9"/>
    <g id="xtick_10"/>
   </g>
   <g id="matplotlib.axis_6">
    <g id="ytick_9">
     <g id="line2d_19">
      <g>
       <use style="fill:#262626;stroke:#262626;" x="372.308333" xlink:href="#m314ae35b09" y="389.9"/>
      </g>
     </g>
    </g>
    <g id="ytick_10">
     <g id="line2d_20">
      <g>
       <use style="fill:#262626;stroke:#262626;" x="372.308333" xlink:href="#m314ae35b09" y="333.806061"/>
      </g>
     </g>
    </g>
    <g id="ytick_11">
     <g id="line2d_21">
      <g>
       <use style="fill:#262626;stroke:#262626;" x="372.308333" xlink:href="#m314ae35b09" y="277.712121"/>
      </g>
     </g>
    </g>
    <g id="ytick_12">
     <g id="line2d_22">
      <g>
       <use style="fill:#262626;stroke:#262626;" x="372.308333" xlink:href="#m314ae35b09" y="221.618182"/>
      </g>
     </g>
    </g>
    <g id="ytick_13">
     <g id="line2d_23">
      <g>
       <use style="fill:#262626;stroke:#262626;" x="372.308333" xlink:href="#m314ae35b09" y="165.524242"/>
      </g>
     </g>
    </g>
    <g id="ytick_14">
     <g id="line2d_24">
      <g>
       <use style="fill:#262626;stroke:#262626;" x="372.308333" xlink:href="#m314ae35b09" y="109.430303"/>
      </g>
     </g>
    </g>
   </g>
   <g id="patch_24">
    <path clip-path="url(#p782638b7e6)" d="M 372.308333 213.357773 
L 375.171429 213.357773 
L 375.171429 204.724045 
L 372.308333 204.724045 
z
" style="fill:#471365;opacity:0.4;stroke:#ffffff;stroke-linejoin:miter;stroke-width:0.8;"/>
   </g>
   <g id="patch_25">
    <path clip-path="url(#p782638b7e6)" d="M 372.308333 204.724045 
L 372.308333 204.724045 
L 372.308333 196.090317 
L 372.308333 196.090317 
z
" style="fill:#471365;opacity:0.4;stroke:#ffffff;stroke-linejoin:miter;stroke-width:0.8;"/>
   </g>
   <g id="patch_26">
    <path clip-path="url(#p782638b7e6)" d="M 372.308333 196.090317 
L 373.262698 196.090317 
L 373.262698 187.456589 
L 372.308333 187.456589 
z
" style="fill:#471365;opacity:0.4;stroke:#ffffff;stroke-linejoin:miter;stroke-width:0.8;"/>
   </g>
   <g id="patch_27">
    <path clip-path="url(#p782638b7e6)" d="M 372.308333 187.456589 
L 378.034524 187.456589 
L 378.034524 178.82286 
L 372.308333 178.82286 
z
" style="fill:#471365;opacity:0.4;stroke:#ffffff;stroke-linejoin:miter;stroke-width:0.8;"/>
   </g>
   <g id="patch_28">
    <path clip-path="url(#p782638b7e6)" d="M 372.308333 178.82286 
L 378.988889 178.82286 
L 378.988889 170.189132 
L 372.308333 170.189132 
z
" style="fill:#471365;opacity:0.4;stroke:#ffffff;stroke-linejoin:miter;stroke-width:0.8;"/>
   </g>
   <g id="patch_29">
    <path clip-path="url(#p782638b7e6)" d="M 372.308333 170.189132 
L 379.943254 170.189132 
L 379.943254 161.555404 
L 372.308333 161.555404 
z
" style="fill:#471365;opacity:0.4;stroke:#ffffff;stroke-linejoin:miter;stroke-width:0.8;"/>
   </g>
   <g id="patch_30">
    <path clip-path="url(#p782638b7e6)" d="M 372.308333 161.555404 
L 385.669444 161.555404 
L 385.669444 152.921676 
L 372.308333 152.921676 
z
" style="fill:#471365;opacity:0.4;stroke:#ffffff;stroke-linejoin:miter;stroke-width:0.8;"/>
   </g>
   <g id="patch_31">
    <path clip-path="url(#p782638b7e6)" d="M 372.308333 152.921676 
L 390.44127 152.921676 
L 390.44127 144.287948 
L 372.308333 144.287948 
z
" style="fill:#471365;opacity:0.4;stroke:#ffffff;stroke-linejoin:miter;stroke-width:0.8;"/>
   </g>
   <g id="patch_32">
    <path clip-path="url(#p782638b7e6)" d="M 372.308333 144.287948 
L 398.07619 144.287948 
L 398.07619 135.65422 
L 372.308333 135.65422 
z
" style="fill:#471365;opacity:0.4;stroke:#ffffff;stroke-linejoin:miter;stroke-width:0.8;"/>
   </g>
   <g id="patch_33">
    <path clip-path="url(#p782638b7e6)" d="M 372.308333 135.65422 
L 414.300397 135.65422 
L 414.300397 127.020492 
L 372.308333 127.020492 
z
" style="fill:#471365;opacity:0.4;stroke:#ffffff;stroke-linejoin:miter;stroke-width:0.8;"/>
   </g>
   <g id="patch_34">
    <path clip-path="url(#p782638b7e6)" d="M 372.308333 127.020492 
L 405.711111 127.020492 
L 405.711111 118.386763 
L 372.308333 118.386763 
z
" style="fill:#471365;opacity:0.4;stroke:#ffffff;stroke-linejoin:miter;stroke-width:0.8;"/>
   </g>
   <g id="patch_35">
    <path clip-path="url(#p782638b7e6)" d="M 372.308333 118.386763 
L 409.528571 118.386763 
L 409.528571 109.753035 
L 372.308333 109.753035 
z
" style="fill:#471365;opacity:0.4;stroke:#ffffff;stroke-linejoin:miter;stroke-width:0.8;"/>
   </g>
   <g id="line2d_25">
    <path clip-path="url(#p782638b7e6)" d="M 372.317834 234.802302 
L 372.326029 233.322567 
L 372.339946 231.842831 
L 372.362503 230.363096 
L 372.397368 228.883361 
L 372.448705 227.403625 
L 372.52062 225.92389 
L 372.616297 224.444155 
L 372.736902 222.964419 
L 372.880463 221.484684 
L 373.041053 220.004949 
L 373.208603 218.525214 
L 373.369623 217.045478 
L 373.508892 215.565743 
L 373.611884 214.086008 
L 373.667461 212.606272 
L 373.670185 211.126537 
L 373.621663 209.646802 
L 373.530558 208.167066 
L 373.41129 206.687331 
L 373.281771 205.207596 
L 373.160788 203.72786 
L 373.065702 202.248125 
L 373.010927 200.76839 
L 373.007447 199.288654 
L 373.063215 197.808919 
L 373.184079 196.329184 
L 373.37467 194.849449 
L 373.638767 193.369713 
L 373.978771 191.889978 
L 374.394292 190.410243 
L 374.880207 188.930507 
L 375.424846 187.450772 
L 376.009124 185.971037 
L 376.607312 184.491301 
L 377.189696 183.011566 
L 377.72687 181.531831 
L 378.194785 180.052095 
L 378.579414 178.57236 
L 378.879845 177.092625 
L 379.109047 175.61289 
L 379.292131 174.133154 
L 379.462565 172.653419 
L 379.657248 171.173684 
L 379.911454 169.693948 
L 380.254534 168.214213 
L 380.706911 166.734478 
L 381.278568 165.254742 
L 381.968976 163.775007 
L 382.76826 162.295272 
L 383.659366 160.815536 
L 384.620974 159.335801 
L 385.630804 157.856066 
L 386.668928 156.376331 
L 387.72057 154.896595 
L 388.777958 153.41686 
L 389.840904 151.937125 
L 390.916034 150.457389 
L 392.014895 148.977654 
L 393.151311 147.497919 
L 394.338423 146.018183 
L 395.58572 144.538448 
L 396.896223 143.058713 
L 398.263943 141.578977 
L 399.671884 140.099242 
L 401.091095 138.619507 
L 402.481518 137.139772 
L 403.79519 135.660036 
L 404.981825 134.180301 
L 405.995866 132.700566 
L 406.803254 131.22083 
L 407.385726 129.741095 
L 407.740876 128.26136 
L 407.877426 126.781624 
L 407.80673 125.301889 
L 407.53307 123.822154 
L 407.045975 122.342418 
L 406.317475 120.862683 
L 405.305859 119.382948 
L 403.965563 117.903212 
L 402.260916 116.423477 
L 400.180221 114.943742 
L 397.746355 113.464007 
L 395.020932 111.984271 
L 392.100668 110.504536 
L 389.10659 109.024801 
L 386.168471 107.545065 
L 383.407908 106.06533 
L 380.92359 104.585595 
L 378.781507 103.105859 
L 377.011415 101.626124 
L 375.60936 100.146389 
L 374.544732 98.666653 
L 373.769694 97.186918 
L 373.228747 95.707183 
L 372.866763 94.227448 
L 372.634533 92.747712 
L 372.491701 91.267977 
L 372.407486 89.788242 
L 372.359888 88.308506 
" style="fill:none;stroke:#471365;stroke-linecap:round;stroke-width:1.2;"/>
   </g>
   <g id="patch_36">
    <path d="M 372.308333 389.9 
L 372.308333 81.383333 
" style="fill:none;stroke:#262626;stroke-linecap:square;stroke-linejoin:miter;"/>
   </g>
  </g>
 </g>
 <defs>
  <clipPath id="pb8d7ff1723">
   <rect height="308.516667" width="302.058333" x="49.85" y="81.383333"/>
  </clipPath>
  <clipPath id="p76143fb5b6">
   <rect height="45.383333" width="302.058333" x="49.85" y="15.6"/>
  </clipPath>
  <clipPath id="p782638b7e6">
   <rect height="308.516667" width="44.091667" x="372.308333" y="81.383333"/>
  </clipPath>
 </defs>
</svg>
