<?xml version="1.0" encoding="utf-8" standalone="no"?>
<!DOCTYPE svg PUBLIC "-//W3C//DTD SVG 1.1//EN"
  "http://www.w3.org/Graphics/SVG/1.1/DTD/svg11.dtd">
<!-- Created with matplotlib (http://matplotlib.org/) -->
<svg height="432pt" version="1.1" viewBox="0 0 432 432" width="432pt" xmlns="http://www.w3.org/2000/svg" xmlns:xlink="http://www.w3.org/1999/xlink">
 <defs>
  <style type="text/css">
*{stroke-linecap:butt;stroke-linejoin:round;}
  </style>
 </defs>
 <g id="figure_1">
  <g id="patch_1">
   <path d="M 0 432 
L 432 432 
L 432 0 
L 0 0 
z
" style="fill:#ffffff;"/>
  </g>
  <g id="axes_1">
   <g id="patch_2">
    <path d="M 46.068 387.732 
L 354.386057 387.732 
L 354.386057 77.922514 
L 46.068 77.922514 
z
" style="fill:#ffffff;"/>
   </g>
   <g id="matplotlib.axis_1">
    <g id="xtick_1">
     <g id="line2d_1">
      <defs>
       <path d="M 0 0 
L 0 4.8 
" id="m498414f3d2" style="stroke:#262626;"/>
      </defs>
      <g>
       <use style="fill:#262626;stroke:#262626;" x="55.445559" xlink:href="#m498414f3d2" y="387.732"/>
      </g>
     </g>
     <g id="text_1">
      <!-- 0.00 -->
      <defs>
       <path d="M 31.78125 66.40625 
Q 24.171875 66.40625 20.328125 58.90625 
Q 16.5 51.421875 16.5 36.375 
Q 16.5 21.390625 20.328125 13.890625 
Q 24.171875 6.390625 31.78125 6.390625 
Q 39.453125 6.390625 43.28125 13.890625 
Q 47.125 21.390625 47.125 36.375 
Q 47.125 51.421875 43.28125 58.90625 
Q 39.453125 66.40625 31.78125 66.40625 
z
M 31.78125 74.21875 
Q 44.046875 74.21875 50.515625 64.515625 
Q 56.984375 54.828125 56.984375 36.375 
Q 56.984375 17.96875 50.515625 8.265625 
Q 44.046875 -1.421875 31.78125 -1.421875 
Q 19.53125 -1.421875 13.0625 8.265625 
Q 6.59375 17.96875 6.59375 36.375 
Q 6.59375 54.828125 13.0625 64.515625 
Q 19.53125 74.21875 31.78125 74.21875 
z
" id="DejaVuSans-30"/>
       <path d="M 10.6875 12.40625 
L 21 12.40625 
L 21 0 
L 10.6875 0 
z
" id="DejaVuSans-2e"/>
      </defs>
      <g style="fill:#262626;" transform="translate(45.648684 402.718625)scale(0.088 -0.088)">
       <use xlink:href="#DejaVuSans-30"/>
       <use x="63.623047" xlink:href="#DejaVuSans-2e"/>
       <use x="95.410156" xlink:href="#DejaVuSans-30"/>
       <use x="159.033203" xlink:href="#DejaVuSans-30"/>
      </g>
     </g>
    </g>
    <g id="xtick_2">
     <g id="line2d_2">
      <g>
       <use style="fill:#262626;stroke:#262626;" x="93.41453" xlink:href="#m498414f3d2" y="387.732"/>
      </g>
     </g>
     <g id="text_2">
      <!-- 0.25 -->
      <defs>
       <path d="M 19.1875 8.296875 
L 53.609375 8.296875 
L 53.609375 0 
L 7.328125 0 
L 7.328125 8.296875 
Q 12.9375 14.109375 22.625 23.890625 
Q 32.328125 33.6875 34.8125 36.53125 
Q 39.546875 41.84375 41.421875 45.53125 
Q 43.3125 49.21875 43.3125 52.78125 
Q 43.3125 58.59375 39.234375 62.25 
Q 35.15625 65.921875 28.609375 65.921875 
Q 23.96875 65.921875 18.8125 64.3125 
Q 13.671875 62.703125 7.8125 59.421875 
L 7.8125 69.390625 
Q 13.765625 71.78125 18.9375 73 
Q 24.125 74.21875 28.421875 74.21875 
Q 39.75 74.21875 46.484375 68.546875 
Q 53.21875 62.890625 53.21875 53.421875 
Q 53.21875 48.921875 51.53125 44.890625 
Q 49.859375 40.875 45.40625 35.40625 
Q 44.1875 33.984375 37.640625 27.21875 
Q 31.109375 20.453125 19.1875 8.296875 
z
" id="DejaVuSans-32"/>
       <path d="M 10.796875 72.90625 
L 49.515625 72.90625 
L 49.515625 64.59375 
L 19.828125 64.59375 
L 19.828125 46.734375 
Q 21.96875 47.46875 24.109375 47.828125 
Q 26.265625 48.1875 28.421875 48.1875 
Q 40.625 48.1875 47.75 41.5 
Q 54.890625 34.8125 54.890625 23.390625 
Q 54.890625 11.625 47.5625 5.09375 
Q 40.234375 -1.421875 26.90625 -1.421875 
Q 22.3125 -1.421875 17.546875 -0.640625 
Q 12.796875 0.140625 7.71875 1.703125 
L 7.71875 11.625 
Q 12.109375 9.234375 16.796875 8.0625 
Q 21.484375 6.890625 26.703125 6.890625 
Q 35.15625 6.890625 40.078125 11.328125 
Q 45.015625 15.765625 45.015625 23.390625 
Q 45.015625 31 40.078125 35.4375 
Q 35.15625 39.890625 26.703125 39.890625 
Q 22.75 39.890625 18.8125 39.015625 
Q 14.890625 38.140625 10.796875 36.28125 
z
" id="DejaVuSans-35"/>
      </defs>
      <g style="fill:#262626;" transform="translate(83.617655 402.718625)scale(0.088 -0.088)">
       <use xlink:href="#DejaVuSans-30"/>
       <use x="63.623047" xlink:href="#DejaVuSans-2e"/>
       <use x="95.410156" xlink:href="#DejaVuSans-32"/>
       <use x="159.033203" xlink:href="#DejaVuSans-35"/>
      </g>
     </g>
    </g>
    <g id="xtick_3">
     <g id="line2d_3">
      <g>
       <use style="fill:#262626;stroke:#262626;" x="131.3835" xlink:href="#m498414f3d2" y="387.732"/>
      </g>
     </g>
     <g id="text_3">
      <!-- 0.50 -->
      <g style="fill:#262626;" transform="translate(121.586625 402.718625)scale(0.088 -0.088)">
       <use xlink:href="#DejaVuSans-30"/>
       <use x="63.623047" xlink:href="#DejaVuSans-2e"/>
       <use x="95.410156" xlink:href="#DejaVuSans-35"/>
       <use x="159.033203" xlink:href="#DejaVuSans-30"/>
      </g>
     </g>
    </g>
    <g id="xtick_4">
     <g id="line2d_4">
      <g>
       <use style="fill:#262626;stroke:#262626;" x="169.35247" xlink:href="#m498414f3d2" y="387.732"/>
      </g>
     </g>
     <g id="text_4">
      <!-- 0.75 -->
      <defs>
       <path d="M 8.203125 72.90625 
L 55.078125 72.90625 
L 55.078125 68.703125 
L 28.609375 0 
L 18.3125 0 
L 43.21875 64.59375 
L 8.203125 64.59375 
z
" id="DejaVuSans-37"/>
      </defs>
      <g style="fill:#262626;" transform="translate(159.555595 402.718625)scale(0.088 -0.088)">
       <use xlink:href="#DejaVuSans-30"/>
       <use x="63.623047" xlink:href="#DejaVuSans-2e"/>
       <use x="95.410156" xlink:href="#DejaVuSans-37"/>
       <use x="159.033203" xlink:href="#DejaVuSans-35"/>
      </g>
     </g>
    </g>
    <g id="xtick_5">
     <g id="line2d_5">
      <g>
       <use style="fill:#262626;stroke:#262626;" x="207.32144" xlink:href="#m498414f3d2" y="387.732"/>
      </g>
     </g>
     <g id="text_5">
      <!-- 1.00 -->
      <defs>
       <path d="M 12.40625 8.296875 
L 28.515625 8.296875 
L 28.515625 63.921875 
L 10.984375 60.40625 
L 10.984375 69.390625 
L 28.421875 72.90625 
L 38.28125 72.90625 
L 38.28125 8.296875 
L 54.390625 8.296875 
L 54.390625 0 
L 12.40625 0 
z
" id="DejaVuSans-31"/>
      </defs>
      <g style="fill:#262626;" transform="translate(197.524565 402.718625)scale(0.088 -0.088)">
       <use xlink:href="#DejaVuSans-31"/>
       <use x="63.623047" xlink:href="#DejaVuSans-2e"/>
       <use x="95.410156" xlink:href="#DejaVuSans-30"/>
       <use x="159.033203" xlink:href="#DejaVuSans-30"/>
      </g>
     </g>
    </g>
    <g id="xtick_6">
     <g id="line2d_6">
      <g>
       <use style="fill:#262626;stroke:#262626;" x="245.29041" xlink:href="#m498414f3d2" y="387.732"/>
      </g>
     </g>
     <g id="text_6">
      <!-- 1.25 -->
      <g style="fill:#262626;" transform="translate(235.493535 402.718625)scale(0.088 -0.088)">
       <use xlink:href="#DejaVuSans-31"/>
       <use x="63.623047" xlink:href="#DejaVuSans-2e"/>
       <use x="95.410156" xlink:href="#DejaVuSans-32"/>
       <use x="159.033203" xlink:href="#DejaVuSans-35"/>
      </g>
     </g>
    </g>
    <g id="xtick_7">
     <g id="line2d_7">
      <g>
       <use style="fill:#262626;stroke:#262626;" x="283.25938" xlink:href="#m498414f3d2" y="387.732"/>
      </g>
     </g>
     <g id="text_7">
      <!-- 1.50 -->
      <g style="fill:#262626;" transform="translate(273.462505 402.718625)scale(0.088 -0.088)">
       <use xlink:href="#DejaVuSans-31"/>
       <use x="63.623047" xlink:href="#DejaVuSans-2e"/>
       <use x="95.410156" xlink:href="#DejaVuSans-35"/>
       <use x="159.033203" xlink:href="#DejaVuSans-30"/>
      </g>
     </g>
    </g>
    <g id="xtick_8">
     <g id="line2d_8">
      <g>
       <use style="fill:#262626;stroke:#262626;" x="321.228351" xlink:href="#m498414f3d2" y="387.732"/>
      </g>
     </g>
     <g id="text_8">
      <!-- 1.75 -->
      <g style="fill:#262626;" transform="translate(311.431476 402.718625)scale(0.088 -0.088)">
       <use xlink:href="#DejaVuSans-31"/>
       <use x="63.623047" xlink:href="#DejaVuSans-2e"/>
       <use x="95.410156" xlink:href="#DejaVuSans-37"/>
       <use x="159.033203" xlink:href="#DejaVuSans-35"/>
      </g>
     </g>
    </g>
    <g id="text_9">
     <!-- $\Delta_{g}$ -->
     <defs>
      <path d="M 34.1875 63.1875 
L 14.15625 8.203125 
L 54.25 8.203125 
z
M 0.78125 0 
L 28.609375 72.90625 
L 39.796875 72.90625 
L 67.578125 0 
z
" id="DejaVuSans-394"/>
      <path d="M 59.625 54.6875 
L 50.296875 6.78125 
Q 47.609375 -7.125 40.015625 -13.953125 
Q 32.421875 -20.796875 19.578125 -20.796875 
Q 14.84375 -20.796875 10.78125 -20.09375 
Q 6.734375 -19.390625 3.21875 -17.921875 
L 4.890625 -9.1875 
Q 8.203125 -11.328125 11.90625 -12.34375 
Q 15.625 -13.375 19.828125 -13.375 
Q 28.375 -13.375 33.859375 -8.703125 
Q 39.359375 -4.046875 41.109375 4.6875 
L 41.890625 8.796875 
Q 38.140625 4.5 33.15625 2.25 
Q 28.171875 0 22.40625 0 
Q 14.109375 0 9.34375 5.484375 
Q 4.59375 10.984375 4.59375 20.609375 
Q 4.59375 28.171875 7.46875 35.421875 
Q 10.359375 42.671875 15.578125 48.296875 
Q 19.046875 52 23.65625 54 
Q 28.265625 56 33.296875 56 
Q 38.8125 56 42.90625 53.4375 
Q 47.015625 50.875 49.03125 46.1875 
L 50.59375 54.6875 
z
M 46.09375 34.625 
Q 46.09375 41.265625 42.96875 44.875 
Q 39.84375 48.484375 34.078125 48.484375 
Q 30.515625 48.484375 27.296875 47.0625 
Q 24.078125 45.65625 21.78125 43.109375 
Q 18.0625 38.921875 15.984375 33.234375 
Q 13.921875 27.546875 13.921875 21.484375 
Q 13.921875 14.75 17.0625 11.125 
Q 20.21875 7.515625 26.125 7.515625 
Q 34.671875 7.515625 40.375 15.25 
Q 46.09375 23 46.09375 34.625 
z
" id="DejaVuSans-Oblique-67"/>
     </defs>
     <g style="fill:#262626;" transform="translate(194.611029 415.55675)scale(0.096 -0.096)">
      <use transform="translate(0 0.09375)" xlink:href="#DejaVuSans-394"/>
      <use transform="translate(69.365234 -16.3125)scale(0.7)" xlink:href="#DejaVuSans-Oblique-67"/>
     </g>
    </g>
   </g>
   <g id="matplotlib.axis_2">
    <g id="ytick_1">
     <g id="line2d_9">
      <defs>
       <path d="M 0 0 
L -4.8 0 
" id="ma09637b813" style="stroke:#262626;"/>
      </defs>
      <g>
       <use style="fill:#262626;stroke:#262626;" x="46.068" xlink:href="#ma09637b813" y="373.34232"/>
      </g>
     </g>
     <g id="text_10">
      <!-- 40 -->
      <defs>
       <path d="M 37.796875 64.3125 
L 12.890625 25.390625 
L 37.796875 25.390625 
z
M 35.203125 72.90625 
L 47.609375 72.90625 
L 47.609375 25.390625 
L 58.015625 25.390625 
L 58.015625 17.1875 
L 47.609375 17.1875 
L 47.609375 0 
L 37.796875 0 
L 37.796875 17.1875 
L 4.890625 17.1875 
L 4.890625 26.703125 
z
" id="DejaVuSans-34"/>
      </defs>
      <g style="fill:#262626;" transform="translate(26.57 376.685633)scale(0.088 -0.088)">
       <use xlink:href="#DejaVuSans-34"/>
       <use x="63.623047" xlink:href="#DejaVuSans-30"/>
      </g>
     </g>
    </g>
    <g id="ytick_2">
     <g id="line2d_10">
      <g>
       <use style="fill:#262626;stroke:#262626;" x="46.068" xlink:href="#ma09637b813" y="336.898067"/>
      </g>
     </g>
     <g id="text_11">
      <!-- 50 -->
      <g style="fill:#262626;" transform="translate(26.57 340.241379)scale(0.088 -0.088)">
       <use xlink:href="#DejaVuSans-35"/>
       <use x="63.623047" xlink:href="#DejaVuSans-30"/>
      </g>
     </g>
    </g>
    <g id="ytick_3">
     <g id="line2d_11">
      <g>
       <use style="fill:#262626;stroke:#262626;" x="46.068" xlink:href="#ma09637b813" y="300.453813"/>
      </g>
     </g>
     <g id="text_12">
      <!-- 60 -->
      <defs>
       <path d="M 33.015625 40.375 
Q 26.375 40.375 22.484375 35.828125 
Q 18.609375 31.296875 18.609375 23.390625 
Q 18.609375 15.53125 22.484375 10.953125 
Q 26.375 6.390625 33.015625 6.390625 
Q 39.65625 6.390625 43.53125 10.953125 
Q 47.40625 15.53125 47.40625 23.390625 
Q 47.40625 31.296875 43.53125 35.828125 
Q 39.65625 40.375 33.015625 40.375 
z
M 52.59375 71.296875 
L 52.59375 62.3125 
Q 48.875 64.0625 45.09375 64.984375 
Q 41.3125 65.921875 37.59375 65.921875 
Q 27.828125 65.921875 22.671875 59.328125 
Q 17.53125 52.734375 16.796875 39.40625 
Q 19.671875 43.65625 24.015625 45.921875 
Q 28.375 48.1875 33.59375 48.1875 
Q 44.578125 48.1875 50.953125 41.515625 
Q 57.328125 34.859375 57.328125 23.390625 
Q 57.328125 12.15625 50.6875 5.359375 
Q 44.046875 -1.421875 33.015625 -1.421875 
Q 20.359375 -1.421875 13.671875 8.265625 
Q 6.984375 17.96875 6.984375 36.375 
Q 6.984375 53.65625 15.1875 63.9375 
Q 23.390625 74.21875 37.203125 74.21875 
Q 40.921875 74.21875 44.703125 73.484375 
Q 48.484375 72.75 52.59375 71.296875 
z
" id="DejaVuSans-36"/>
      </defs>
      <g style="fill:#262626;" transform="translate(26.57 303.797126)scale(0.088 -0.088)">
       <use xlink:href="#DejaVuSans-36"/>
       <use x="63.623047" xlink:href="#DejaVuSans-30"/>
      </g>
     </g>
    </g>
    <g id="ytick_4">
     <g id="line2d_12">
      <g>
       <use style="fill:#262626;stroke:#262626;" x="46.068" xlink:href="#ma09637b813" y="264.00956"/>
      </g>
     </g>
     <g id="text_13">
      <!-- 70 -->
      <g style="fill:#262626;" transform="translate(26.57 267.352872)scale(0.088 -0.088)">
       <use xlink:href="#DejaVuSans-37"/>
       <use x="63.623047" xlink:href="#DejaVuSans-30"/>
      </g>
     </g>
    </g>
    <g id="ytick_5">
     <g id="line2d_13">
      <g>
       <use style="fill:#262626;stroke:#262626;" x="46.068" xlink:href="#ma09637b813" y="227.565306"/>
      </g>
     </g>
     <g id="text_14">
      <!-- 80 -->
      <defs>
       <path d="M 31.78125 34.625 
Q 24.75 34.625 20.71875 30.859375 
Q 16.703125 27.09375 16.703125 20.515625 
Q 16.703125 13.921875 20.71875 10.15625 
Q 24.75 6.390625 31.78125 6.390625 
Q 38.8125 6.390625 42.859375 10.171875 
Q 46.921875 13.96875 46.921875 20.515625 
Q 46.921875 27.09375 42.890625 30.859375 
Q 38.875 34.625 31.78125 34.625 
z
M 21.921875 38.8125 
Q 15.578125 40.375 12.03125 44.71875 
Q 8.5 49.078125 8.5 55.328125 
Q 8.5 64.0625 14.71875 69.140625 
Q 20.953125 74.21875 31.78125 74.21875 
Q 42.671875 74.21875 48.875 69.140625 
Q 55.078125 64.0625 55.078125 55.328125 
Q 55.078125 49.078125 51.53125 44.71875 
Q 48 40.375 41.703125 38.8125 
Q 48.828125 37.15625 52.796875 32.3125 
Q 56.78125 27.484375 56.78125 20.515625 
Q 56.78125 9.90625 50.3125 4.234375 
Q 43.84375 -1.421875 31.78125 -1.421875 
Q 19.734375 -1.421875 13.25 4.234375 
Q 6.78125 9.90625 6.78125 20.515625 
Q 6.78125 27.484375 10.78125 32.3125 
Q 14.796875 37.15625 21.921875 38.8125 
z
M 18.3125 54.390625 
Q 18.3125 48.734375 21.84375 45.5625 
Q 25.390625 42.390625 31.78125 42.390625 
Q 38.140625 42.390625 41.71875 45.5625 
Q 45.3125 48.734375 45.3125 54.390625 
Q 45.3125 60.0625 41.71875 63.234375 
Q 38.140625 66.40625 31.78125 66.40625 
Q 25.390625 66.40625 21.84375 63.234375 
Q 18.3125 60.0625 18.3125 54.390625 
z
" id="DejaVuSans-38"/>
      </defs>
      <g style="fill:#262626;" transform="translate(26.57 230.908619)scale(0.088 -0.088)">
       <use xlink:href="#DejaVuSans-38"/>
       <use x="63.623047" xlink:href="#DejaVuSans-30"/>
      </g>
     </g>
    </g>
    <g id="ytick_6">
     <g id="line2d_14">
      <g>
       <use style="fill:#262626;stroke:#262626;" x="46.068" xlink:href="#ma09637b813" y="191.121052"/>
      </g>
     </g>
     <g id="text_15">
      <!-- 90 -->
      <defs>
       <path d="M 10.984375 1.515625 
L 10.984375 10.5 
Q 14.703125 8.734375 18.5 7.8125 
Q 22.3125 6.890625 25.984375 6.890625 
Q 35.75 6.890625 40.890625 13.453125 
Q 46.046875 20.015625 46.78125 33.40625 
Q 43.953125 29.203125 39.59375 26.953125 
Q 35.25 24.703125 29.984375 24.703125 
Q 19.046875 24.703125 12.671875 31.3125 
Q 6.296875 37.9375 6.296875 49.421875 
Q 6.296875 60.640625 12.9375 67.421875 
Q 19.578125 74.21875 30.609375 74.21875 
Q 43.265625 74.21875 49.921875 64.515625 
Q 56.59375 54.828125 56.59375 36.375 
Q 56.59375 19.140625 48.40625 8.859375 
Q 40.234375 -1.421875 26.421875 -1.421875 
Q 22.703125 -1.421875 18.890625 -0.6875 
Q 15.09375 0.046875 10.984375 1.515625 
z
M 30.609375 32.421875 
Q 37.25 32.421875 41.125 36.953125 
Q 45.015625 41.5 45.015625 49.421875 
Q 45.015625 57.28125 41.125 61.84375 
Q 37.25 66.40625 30.609375 66.40625 
Q 23.96875 66.40625 20.09375 61.84375 
Q 16.21875 57.28125 16.21875 49.421875 
Q 16.21875 41.5 20.09375 36.953125 
Q 23.96875 32.421875 30.609375 32.421875 
z
" id="DejaVuSans-39"/>
      </defs>
      <g style="fill:#262626;" transform="translate(26.57 194.464365)scale(0.088 -0.088)">
       <use xlink:href="#DejaVuSans-39"/>
       <use x="63.623047" xlink:href="#DejaVuSans-30"/>
      </g>
     </g>
    </g>
    <g id="ytick_7">
     <g id="line2d_15">
      <g>
       <use style="fill:#262626;stroke:#262626;" x="46.068" xlink:href="#ma09637b813" y="154.676799"/>
      </g>
     </g>
     <g id="text_16">
      <!-- 100 -->
      <g style="fill:#262626;" transform="translate(20.971 158.020111)scale(0.088 -0.088)">
       <use xlink:href="#DejaVuSans-31"/>
       <use x="63.623047" xlink:href="#DejaVuSans-30"/>
       <use x="127.246094" xlink:href="#DejaVuSans-30"/>
      </g>
     </g>
    </g>
    <g id="ytick_8">
     <g id="line2d_16">
      <g>
       <use style="fill:#262626;stroke:#262626;" x="46.068" xlink:href="#ma09637b813" y="118.232545"/>
      </g>
     </g>
     <g id="text_17">
      <!-- 110 -->
      <g style="fill:#262626;" transform="translate(20.971 121.575858)scale(0.088 -0.088)">
       <use xlink:href="#DejaVuSans-31"/>
       <use x="63.623047" xlink:href="#DejaVuSans-31"/>
       <use x="127.246094" xlink:href="#DejaVuSans-30"/>
      </g>
     </g>
    </g>
    <g id="ytick_9">
     <g id="line2d_17">
      <g>
       <use style="fill:#262626;stroke:#262626;" x="46.068" xlink:href="#ma09637b813" y="81.788292"/>
      </g>
     </g>
     <g id="text_18">
      <!-- 120 -->
      <g style="fill:#262626;" transform="translate(20.971 85.131604)scale(0.088 -0.088)">
       <use xlink:href="#DejaVuSans-31"/>
       <use x="63.623047" xlink:href="#DejaVuSans-32"/>
       <use x="127.246094" xlink:href="#DejaVuSans-30"/>
      </g>
     </g>
    </g>
    <g id="text_19">
     <!-- Time to cancer -->
     <defs>
      <path d="M -0.296875 72.90625 
L 61.375 72.90625 
L 61.375 64.59375 
L 35.5 64.59375 
L 35.5 0 
L 25.59375 0 
L 25.59375 64.59375 
L -0.296875 64.59375 
z
" id="DejaVuSans-54"/>
      <path d="M 9.421875 54.6875 
L 18.40625 54.6875 
L 18.40625 0 
L 9.421875 0 
z
M 9.421875 75.984375 
L 18.40625 75.984375 
L 18.40625 64.59375 
L 9.421875 64.59375 
z
" id="DejaVuSans-69"/>
      <path d="M 52 44.1875 
Q 55.375 50.25 60.0625 53.125 
Q 64.75 56 71.09375 56 
Q 79.640625 56 84.28125 50.015625 
Q 88.921875 44.046875 88.921875 33.015625 
L 88.921875 0 
L 79.890625 0 
L 79.890625 32.71875 
Q 79.890625 40.578125 77.09375 44.375 
Q 74.3125 48.1875 68.609375 48.1875 
Q 61.625 48.1875 57.5625 43.546875 
Q 53.515625 38.921875 53.515625 30.90625 
L 53.515625 0 
L 44.484375 0 
L 44.484375 32.71875 
Q 44.484375 40.625 41.703125 44.40625 
Q 38.921875 48.1875 33.109375 48.1875 
Q 26.21875 48.1875 22.15625 43.53125 
Q 18.109375 38.875 18.109375 30.90625 
L 18.109375 0 
L 9.078125 0 
L 9.078125 54.6875 
L 18.109375 54.6875 
L 18.109375 46.1875 
Q 21.1875 51.21875 25.484375 53.609375 
Q 29.78125 56 35.6875 56 
Q 41.65625 56 45.828125 52.96875 
Q 50 49.953125 52 44.1875 
z
" id="DejaVuSans-6d"/>
      <path d="M 56.203125 29.59375 
L 56.203125 25.203125 
L 14.890625 25.203125 
Q 15.484375 15.921875 20.484375 11.0625 
Q 25.484375 6.203125 34.421875 6.203125 
Q 39.59375 6.203125 44.453125 7.46875 
Q 49.3125 8.734375 54.109375 11.28125 
L 54.109375 2.78125 
Q 49.265625 0.734375 44.1875 -0.34375 
Q 39.109375 -1.421875 33.890625 -1.421875 
Q 20.796875 -1.421875 13.15625 6.1875 
Q 5.515625 13.8125 5.515625 26.8125 
Q 5.515625 40.234375 12.765625 48.109375 
Q 20.015625 56 32.328125 56 
Q 43.359375 56 49.78125 48.890625 
Q 56.203125 41.796875 56.203125 29.59375 
z
M 47.21875 32.234375 
Q 47.125 39.59375 43.09375 43.984375 
Q 39.0625 48.390625 32.421875 48.390625 
Q 24.90625 48.390625 20.390625 44.140625 
Q 15.875 39.890625 15.1875 32.171875 
z
" id="DejaVuSans-65"/>
      <path id="DejaVuSans-20"/>
      <path d="M 18.3125 70.21875 
L 18.3125 54.6875 
L 36.8125 54.6875 
L 36.8125 47.703125 
L 18.3125 47.703125 
L 18.3125 18.015625 
Q 18.3125 11.328125 20.140625 9.421875 
Q 21.96875 7.515625 27.59375 7.515625 
L 36.8125 7.515625 
L 36.8125 0 
L 27.59375 0 
Q 17.1875 0 13.234375 3.875 
Q 9.28125 7.765625 9.28125 18.015625 
L 9.28125 47.703125 
L 2.6875 47.703125 
L 2.6875 54.6875 
L 9.28125 54.6875 
L 9.28125 70.21875 
z
" id="DejaVuSans-74"/>
      <path d="M 30.609375 48.390625 
Q 23.390625 48.390625 19.1875 42.75 
Q 14.984375 37.109375 14.984375 27.296875 
Q 14.984375 17.484375 19.15625 11.84375 
Q 23.34375 6.203125 30.609375 6.203125 
Q 37.796875 6.203125 41.984375 11.859375 
Q 46.1875 17.53125 46.1875 27.296875 
Q 46.1875 37.015625 41.984375 42.703125 
Q 37.796875 48.390625 30.609375 48.390625 
z
M 30.609375 56 
Q 42.328125 56 49.015625 48.375 
Q 55.71875 40.765625 55.71875 27.296875 
Q 55.71875 13.875 49.015625 6.21875 
Q 42.328125 -1.421875 30.609375 -1.421875 
Q 18.84375 -1.421875 12.171875 6.21875 
Q 5.515625 13.875 5.515625 27.296875 
Q 5.515625 40.765625 12.171875 48.375 
Q 18.84375 56 30.609375 56 
z
" id="DejaVuSans-6f"/>
      <path d="M 48.78125 52.59375 
L 48.78125 44.1875 
Q 44.96875 46.296875 41.140625 47.34375 
Q 37.3125 48.390625 33.40625 48.390625 
Q 24.65625 48.390625 19.8125 42.84375 
Q 14.984375 37.3125 14.984375 27.296875 
Q 14.984375 17.28125 19.8125 11.734375 
Q 24.65625 6.203125 33.40625 6.203125 
Q 37.3125 6.203125 41.140625 7.25 
Q 44.96875 8.296875 48.78125 10.40625 
L 48.78125 2.09375 
Q 45.015625 0.34375 40.984375 -0.53125 
Q 36.96875 -1.421875 32.421875 -1.421875 
Q 20.0625 -1.421875 12.78125 6.34375 
Q 5.515625 14.109375 5.515625 27.296875 
Q 5.515625 40.671875 12.859375 48.328125 
Q 20.21875 56 33.015625 56 
Q 37.15625 56 41.109375 55.140625 
Q 45.0625 54.296875 48.78125 52.59375 
z
" id="DejaVuSans-63"/>
      <path d="M 34.28125 27.484375 
Q 23.390625 27.484375 19.1875 25 
Q 14.984375 22.515625 14.984375 16.5 
Q 14.984375 11.71875 18.140625 8.90625 
Q 21.296875 6.109375 26.703125 6.109375 
Q 34.1875 6.109375 38.703125 11.40625 
Q 43.21875 16.703125 43.21875 25.484375 
L 43.21875 27.484375 
z
M 52.203125 31.203125 
L 52.203125 0 
L 43.21875 0 
L 43.21875 8.296875 
Q 40.140625 3.328125 35.546875 0.953125 
Q 30.953125 -1.421875 24.3125 -1.421875 
Q 15.921875 -1.421875 10.953125 3.296875 
Q 6 8.015625 6 15.921875 
Q 6 25.140625 12.171875 29.828125 
Q 18.359375 34.515625 30.609375 34.515625 
L 43.21875 34.515625 
L 43.21875 35.40625 
Q 43.21875 41.609375 39.140625 45 
Q 35.0625 48.390625 27.6875 48.390625 
Q 23 48.390625 18.546875 47.265625 
Q 14.109375 46.140625 10.015625 43.890625 
L 10.015625 52.203125 
Q 14.9375 54.109375 19.578125 55.046875 
Q 24.21875 56 28.609375 56 
Q 40.484375 56 46.34375 49.84375 
Q 52.203125 43.703125 52.203125 31.203125 
z
" id="DejaVuSans-61"/>
      <path d="M 54.890625 33.015625 
L 54.890625 0 
L 45.90625 0 
L 45.90625 32.71875 
Q 45.90625 40.484375 42.875 44.328125 
Q 39.84375 48.1875 33.796875 48.1875 
Q 26.515625 48.1875 22.3125 43.546875 
Q 18.109375 38.921875 18.109375 30.90625 
L 18.109375 0 
L 9.078125 0 
L 9.078125 54.6875 
L 18.109375 54.6875 
L 18.109375 46.1875 
Q 21.34375 51.125 25.703125 53.5625 
Q 30.078125 56 35.796875 56 
Q 45.21875 56 50.046875 50.171875 
Q 54.890625 44.34375 54.890625 33.015625 
z
" id="DejaVuSans-6e"/>
      <path d="M 41.109375 46.296875 
Q 39.59375 47.171875 37.8125 47.578125 
Q 36.03125 48 33.890625 48 
Q 26.265625 48 22.1875 43.046875 
Q 18.109375 38.09375 18.109375 28.8125 
L 18.109375 0 
L 9.078125 0 
L 9.078125 54.6875 
L 18.109375 54.6875 
L 18.109375 46.1875 
Q 20.953125 51.171875 25.484375 53.578125 
Q 30.03125 56 36.53125 56 
Q 37.453125 56 38.578125 55.875 
Q 39.703125 55.765625 41.0625 55.515625 
z
" id="DejaVuSans-72"/>
     </defs>
     <g style="fill:#262626;" transform="translate(14.9745 268.777757)rotate(-90)scale(0.096 -0.096)">
      <use xlink:href="#DejaVuSans-54"/>
      <use x="61.037109" xlink:href="#DejaVuSans-69"/>
      <use x="88.820312" xlink:href="#DejaVuSans-6d"/>
      <use x="186.232422" xlink:href="#DejaVuSans-65"/>
      <use x="247.755859" xlink:href="#DejaVuSans-20"/>
      <use x="279.542969" xlink:href="#DejaVuSans-74"/>
      <use x="318.751953" xlink:href="#DejaVuSans-6f"/>
      <use x="379.933594" xlink:href="#DejaVuSans-20"/>
      <use x="411.720703" xlink:href="#DejaVuSans-63"/>
      <use x="466.701172" xlink:href="#DejaVuSans-61"/>
      <use x="527.980469" xlink:href="#DejaVuSans-6e"/>
      <use x="591.359375" xlink:href="#DejaVuSans-63"/>
      <use x="646.339844" xlink:href="#DejaVuSans-65"/>
      <use x="707.863281" xlink:href="#DejaVuSans-72"/>
     </g>
    </g>
   </g>
   <g id="PathCollection_1">
    <defs>
     <path d="M 0 2.4 
C 0.636487 2.4 1.246992 2.147121 1.697056 1.697056 
C 2.147121 1.246992 2.4 0.636487 2.4 0 
C 2.4 -0.636487 2.147121 -1.246992 1.697056 -1.697056 
C 1.246992 -2.147121 0.636487 -2.4 0 -2.4 
C -0.636487 -2.4 -1.246992 -2.147121 -1.697056 -1.697056 
C -2.147121 -1.246992 -2.4 -0.636487 -2.4 0 
C -2.4 0.636487 -2.147121 1.246992 -1.697056 1.697056 
C -1.246992 2.147121 -0.636487 2.4 0 2.4 
z
" id="m61eb8e0168" style="stroke:#471365;stroke-opacity:0.8;"/>
    </defs>
    <g clip-path="url(#pfd36c15858)">
     <use style="fill:#471365;fill-opacity:0.8;stroke:#471365;stroke-opacity:0.8;" x="164.923872" xlink:href="#m61eb8e0168" y="173.11859"/>
     <use style="fill:#471365;fill-opacity:0.8;stroke:#471365;stroke-opacity:0.8;" x="163.035792" xlink:href="#m61eb8e0168" y="176.313702"/>
     <use style="fill:#471365;fill-opacity:0.8;stroke:#471365;stroke-opacity:0.8;" x="159.316492" xlink:href="#m61eb8e0168" y="194.715554"/>
     <use style="fill:#471365;fill-opacity:0.8;stroke:#471365;stroke-opacity:0.8;" x="167.033901" xlink:href="#m61eb8e0168" y="243.391098"/>
     <use style="fill:#471365;fill-opacity:0.8;stroke:#471365;stroke-opacity:0.8;" x="257.025774" xlink:href="#m61eb8e0168" y="274.823019"/>
     <use style="fill:#471365;fill-opacity:0.8;stroke:#471365;stroke-opacity:0.8;" x="216.764184" xlink:href="#m61eb8e0168" y="155.854997"/>
     <use style="fill:#471365;fill-opacity:0.8;stroke:#471365;stroke-opacity:0.8;" x="197.114676" xlink:href="#m61eb8e0168" y="282.201732"/>
     <use style="fill:#471365;fill-opacity:0.8;stroke:#471365;stroke-opacity:0.8;" x="203.15049" xlink:href="#m61eb8e0168" y="228.633672"/>
     <use style="fill:#471365;fill-opacity:0.8;stroke:#471365;stroke-opacity:0.8;" x="161.077194" xlink:href="#m61eb8e0168" y="175.84442"/>
     <use style="fill:#471365;fill-opacity:0.8;stroke:#471365;stroke-opacity:0.8;" x="225.073948" xlink:href="#m61eb8e0168" y="229.971625"/>
     <use style="fill:#471365;fill-opacity:0.8;stroke:#471365;stroke-opacity:0.8;" x="270.18071" xlink:href="#m61eb8e0168" y="196.962118"/>
     <use style="fill:#471365;fill-opacity:0.8;stroke:#471365;stroke-opacity:0.8;" x="195.278676" xlink:href="#m61eb8e0168" y="269.970442"/>
     <use style="fill:#471365;fill-opacity:0.8;stroke:#471365;stroke-opacity:0.8;" x="175.532809" xlink:href="#m61eb8e0168" y="293.164962"/>
     <use style="fill:#471365;fill-opacity:0.8;stroke:#471365;stroke-opacity:0.8;" x="207.591924" xlink:href="#m61eb8e0168" y="252.786726"/>
     <use style="fill:#471365;fill-opacity:0.8;stroke:#471365;stroke-opacity:0.8;" x="164.478622" xlink:href="#m61eb8e0168" y="154.776646"/>
     <use style="fill:#471365;fill-opacity:0.8;stroke:#471365;stroke-opacity:0.8;" x="161.433705" xlink:href="#m61eb8e0168" y="252.996406"/>
     <use style="fill:#471365;fill-opacity:0.8;stroke:#471365;stroke-opacity:0.8;" x="207.598944" xlink:href="#m61eb8e0168" y="227.535352"/>
     <use style="fill:#471365;fill-opacity:0.8;stroke:#471365;stroke-opacity:0.8;" x="177.030368" xlink:href="#m61eb8e0168" y="219.607479"/>
     <use style="fill:#471365;fill-opacity:0.8;stroke:#471365;stroke-opacity:0.8;" x="126.277045" xlink:href="#m61eb8e0168" y="171.541003"/>
     <use style="fill:#471365;fill-opacity:0.8;stroke:#471365;stroke-opacity:0.8;" x="274.177012" xlink:href="#m61eb8e0168" y="269.161679"/>
     <use style="fill:#471365;fill-opacity:0.8;stroke:#471365;stroke-opacity:0.8;" x="133.162259" xlink:href="#m61eb8e0168" y="166.299021"/>
     <use style="fill:#471365;fill-opacity:0.8;stroke:#471365;stroke-opacity:0.8;" x="270.664526" xlink:href="#m61eb8e0168" y="310.877868"/>
     <use style="fill:#471365;fill-opacity:0.8;stroke:#471365;stroke-opacity:0.8;" x="164.648115" xlink:href="#m61eb8e0168" y="246.43644"/>
     <use style="fill:#471365;fill-opacity:0.8;stroke:#471365;stroke-opacity:0.8;" x="185.204769" xlink:href="#m61eb8e0168" y="197.461354"/>
     <use style="fill:#471365;fill-opacity:0.8;stroke:#471365;stroke-opacity:0.8;" x="189.204066" xlink:href="#m61eb8e0168" y="309.829472"/>
     <use style="fill:#471365;fill-opacity:0.8;stroke:#471365;stroke-opacity:0.8;" x="198.53728" xlink:href="#m61eb8e0168" y="229.751961"/>
     <use style="fill:#471365;fill-opacity:0.8;stroke:#471365;stroke-opacity:0.8;" x="224.87898" xlink:href="#m61eb8e0168" y="240.315802"/>
     <use style="fill:#471365;fill-opacity:0.8;stroke:#471365;stroke-opacity:0.8;" x="228.778977" xlink:href="#m61eb8e0168" y="259.915822"/>
     <use style="fill:#471365;fill-opacity:0.8;stroke:#471365;stroke-opacity:0.8;" x="168.724989" xlink:href="#m61eb8e0168" y="194.096501"/>
     <use style="fill:#471365;fill-opacity:0.8;stroke:#471365;stroke-opacity:0.8;" x="234.076802" xlink:href="#m61eb8e0168" y="287.713302"/>
     <use style="fill:#471365;fill-opacity:0.8;stroke:#471365;stroke-opacity:0.8;" x="225.31798" xlink:href="#m61eb8e0168" y="265.197742"/>
     <use style="fill:#471365;fill-opacity:0.8;stroke:#471365;stroke-opacity:0.8;" x="165.04016" xlink:href="#m61eb8e0168" y="230.570709"/>
     <use style="fill:#471365;fill-opacity:0.8;stroke:#471365;stroke-opacity:0.8;" x="145.012122" xlink:href="#m61eb8e0168" y="182.214676"/>
     <use style="fill:#471365;fill-opacity:0.8;stroke:#471365;stroke-opacity:0.8;" x="239.468534" xlink:href="#m61eb8e0168" y="255.003336"/>
     <use style="fill:#471365;fill-opacity:0.8;stroke:#471365;stroke-opacity:0.8;" x="222.254252" xlink:href="#m61eb8e0168" y="161.825863"/>
     <use style="fill:#471365;fill-opacity:0.8;stroke:#471365;stroke-opacity:0.8;" x="148.270545" xlink:href="#m61eb8e0168" y="171.131629"/>
     <use style="fill:#471365;fill-opacity:0.8;stroke:#471365;stroke-opacity:0.8;" x="145.456294" xlink:href="#m61eb8e0168" y="190.022732"/>
     <use style="fill:#471365;fill-opacity:0.8;stroke:#471365;stroke-opacity:0.8;" x="206.911199" xlink:href="#m61eb8e0168" y="197.631094"/>
     <use style="fill:#471365;fill-opacity:0.8;stroke:#471365;stroke-opacity:0.8;" x="254.773473" xlink:href="#m61eb8e0168" y="284.228632"/>
     <use style="fill:#471365;fill-opacity:0.8;stroke:#471365;stroke-opacity:0.8;" x="189.144216" xlink:href="#m61eb8e0168" y="245.188349"/>
     <use style="fill:#471365;fill-opacity:0.8;stroke:#471365;stroke-opacity:0.8;" x="179.475769" xlink:href="#m61eb8e0168" y="167.836669"/>
     <use style="fill:#471365;fill-opacity:0.8;stroke:#471365;stroke-opacity:0.8;" x="170.916279" xlink:href="#m61eb8e0168" y="204.38077"/>
     <use style="fill:#471365;fill-opacity:0.8;stroke:#471365;stroke-opacity:0.8;" x="179.506977" xlink:href="#m61eb8e0168" y="239.437146"/>
    </g>
   </g>
   <g id="PolyCollection_1">
    <defs>
     <path d="M 60.082457 -323.286017 
L 60.082457 -251.023735 
L 62.913661 -250.121007 
L 65.744864 -249.249909 
L 68.576068 -248.381582 
L 71.407271 -247.513254 
L 74.238474 -246.644927 
L 77.069678 -245.661471 
L 79.900881 -244.692864 
L 82.732085 -243.784959 
L 85.563288 -242.721471 
L 88.394492 -241.986698 
L 91.225695 -241.170353 
L 94.056899 -240.179415 
L 96.888102 -239.271896 
L 99.719306 -238.364376 
L 102.550509 -237.456856 
L 105.381713 -236.549336 
L 108.212916 -235.641817 
L 111.044119 -234.734297 
L 113.875323 -233.826777 
L 116.706526 -232.835749 
L 119.53773 -231.586437 
L 122.368933 -230.346691 
L 125.200137 -229.271559 
L 128.03134 -228.366324 
L 130.862544 -226.87187 
L 133.693747 -225.488458 
L 136.524951 -224.552783 
L 139.356154 -223.617846 
L 142.187358 -222.68291 
L 145.018561 -221.342015 
L 147.849765 -219.998176 
L 150.680968 -218.925097 
L 153.512171 -217.86313 
L 156.343375 -216.330301 
L 159.174578 -215.034938 
L 162.005782 -213.436066 
L 164.836985 -212.038907 
L 167.668189 -210.624151 
L 170.499392 -209.217735 
L 173.330596 -207.752518 
L 176.161799 -206.079062 
L 178.993003 -204.830313 
L 181.824206 -203.037983 
L 184.65541 -201.451657 
L 187.486613 -199.942473 
L 190.317816 -198.037651 
L 193.14902 -196.149243 
L 195.980223 -194.25116 
L 198.811427 -192.326461 
L 201.64263 -190.361698 
L 204.473834 -188.114771 
L 207.305037 -186.272645 
L 210.136241 -184.479385 
L 212.967444 -182.012934 
L 215.798648 -179.738513 
L 218.629851 -177.487545 
L 221.461055 -175.010226 
L 224.292258 -172.752646 
L 227.123461 -170.458083 
L 229.954665 -168.282649 
L 232.785868 -165.899262 
L 235.617072 -163.612142 
L 238.448275 -161.47809 
L 241.279479 -159.154851 
L 244.110682 -156.781877 
L 246.941886 -154.537604 
L 249.773089 -152.025711 
L 252.604293 -149.642714 
L 255.435496 -147.268259 
L 258.2667 -144.887714 
L 261.097903 -142.512662 
L 263.929106 -140.270823 
L 266.76031 -137.828345 
L 269.591513 -135.673727 
L 272.422717 -133.21656 
L 275.25392 -130.618057 
L 278.085124 -128.243061 
L 280.916327 -125.935267 
L 283.747531 -123.720618 
L 286.578734 -121.488401 
L 289.409938 -118.908013 
L 292.241141 -116.511708 
L 295.072345 -114.166895 
L 297.903548 -111.750101 
L 300.734752 -109.390495 
L 303.565955 -107.071954 
L 306.397158 -104.754979 
L 309.228362 -102.434084 
L 312.059565 -99.971799 
L 314.890769 -97.491063 
L 317.721972 -95.210005 
L 320.553176 -92.928947 
L 323.384379 -90.647889 
L 326.215583 -88.351626 
L 329.046786 -85.934901 
L 331.87799 -83.432519 
L 334.709193 -80.930137 
L 337.540397 -78.429684 
L 340.3716 -75.931251 
L 340.3716 -162.584339 
L 340.3716 -162.584339 
L 337.540397 -163.558469 
L 334.709193 -164.678899 
L 331.87799 -165.79933 
L 329.046786 -166.890323 
L 326.215583 -167.876786 
L 323.384379 -168.863249 
L 320.553176 -169.849711 
L 317.721972 -170.836174 
L 314.890769 -171.82183 
L 312.059565 -172.806403 
L 309.228362 -173.790065 
L 306.397158 -174.77069 
L 303.565955 -175.751316 
L 300.734752 -176.769951 
L 297.903548 -177.875113 
L 295.072345 -178.9799 
L 292.241141 -179.858318 
L 289.409938 -180.726316 
L 286.578734 -181.646925 
L 283.747531 -182.618535 
L 280.916327 -183.603158 
L 278.085124 -184.76855 
L 275.25392 -185.851636 
L 272.422717 -186.931432 
L 269.591513 -188.045455 
L 266.76031 -189.161818 
L 263.929106 -190.277866 
L 261.097903 -191.200513 
L 258.2667 -192.154611 
L 255.435496 -192.971299 
L 252.604293 -193.666786 
L 249.773089 -194.622456 
L 246.941886 -195.671143 
L 244.110682 -196.527491 
L 241.279479 -197.662959 
L 238.448275 -198.818901 
L 235.617072 -199.967789 
L 232.785868 -200.819509 
L 229.954665 -202.055252 
L 227.123461 -203.005808 
L 224.292258 -204.252096 
L 221.461055 -205.365142 
L 218.629851 -206.290626 
L 215.798648 -207.212726 
L 212.967444 -208.350896 
L 210.136241 -209.924048 
L 207.305037 -211.054494 
L 204.473834 -212.425082 
L 201.64263 -213.919218 
L 198.811427 -215.484665 
L 195.980223 -217.074197 
L 193.14902 -218.747231 
L 190.317816 -220.17389 
L 187.486613 -222.059136 
L 184.65541 -223.852359 
L 181.824206 -225.307774 
L 178.993003 -226.984654 
L 176.161799 -228.702315 
L 173.330596 -230.460127 
L 170.499392 -232.324032 
L 167.668189 -234.272702 
L 164.836985 -236.350988 
L 162.005782 -238.416443 
L 159.174578 -240.663495 
L 156.343375 -242.834055 
L 153.512171 -245.158768 
L 150.680968 -247.368674 
L 147.849765 -249.514261 
L 145.018561 -251.619857 
L 142.187358 -253.763532 
L 139.356154 -256.299324 
L 136.524951 -258.577251 
L 133.693747 -260.896783 
L 130.862544 -263.145777 
L 128.03134 -265.588303 
L 125.200137 -267.968538 
L 122.368933 -270.441876 
L 119.53773 -272.910235 
L 116.706526 -275.294811 
L 113.875323 -277.746287 
L 111.044119 -280.106526 
L 108.212916 -282.6205 
L 105.381713 -284.76916 
L 102.550509 -287.15027 
L 99.719306 -289.669818 
L 96.888102 -292.003942 
L 94.056899 -294.470351 
L 91.225695 -296.836802 
L 88.394492 -299.199703 
L 85.563288 -301.562605 
L 82.732085 -303.925507 
L 79.900881 -306.313196 
L 77.069678 -308.737885 
L 74.238474 -311.162574 
L 71.407271 -313.587263 
L 68.576068 -316.011533 
L 65.744864 -318.43664 
L 62.913661 -320.861329 
L 60.082457 -323.286017 
z
" id="m45b09e87ed" style="stroke:#ffffff;stroke-opacity:0.15;stroke-width:0.8;"/>
    </defs>
    <g clip-path="url(#pfd36c15858)">
     <use style="fill:#471365;fill-opacity:0.15;stroke:#ffffff;stroke-opacity:0.15;stroke-width:0.8;" x="0" xlink:href="#m45b09e87ed" y="432"/>
    </g>
   </g>
   <g id="line2d_18">
    <path clip-path="url(#pfd36c15858)" d="M 60.082457 141.974851 
L 62.913661 143.732474 
L 65.744864 145.490098 
L 68.576068 147.247721 
L 71.407271 149.005344 
L 74.238474 150.762967 
L 77.069678 152.52059 
L 79.900881 154.278213 
L 82.732085 156.035837 
L 85.563288 157.79346 
L 88.394492 159.551083 
L 91.225695 161.308706 
L 94.056899 163.066329 
L 96.888102 164.823952 
L 99.719306 166.581576 
L 102.550509 168.339199 
L 105.381713 170.096822 
L 108.212916 171.854445 
L 111.044119 173.612068 
L 113.875323 175.369691 
L 116.706526 177.127314 
L 119.53773 178.884938 
L 122.368933 180.642561 
L 125.200137 182.400184 
L 128.03134 184.157807 
L 130.862544 185.91543 
L 133.693747 187.673053 
L 136.524951 189.430677 
L 139.356154 191.1883 
L 142.187358 192.945923 
L 145.018561 194.703546 
L 147.849765 196.461169 
L 150.680968 198.218792 
L 153.512171 199.976416 
L 156.343375 201.734039 
L 159.174578 203.491662 
L 162.005782 205.249285 
L 164.836985 207.006908 
L 167.668189 208.764531 
L 170.499392 210.522155 
L 173.330596 212.279778 
L 176.161799 214.037401 
L 178.993003 215.795024 
L 181.824206 217.552647 
L 184.65541 219.31027 
L 187.486613 221.067893 
L 190.317816 222.825517 
L 193.14902 224.58314 
L 195.980223 226.340763 
L 198.811427 228.098386 
L 201.64263 229.856009 
L 204.473834 231.613632 
L 207.305037 233.371256 
L 210.136241 235.128879 
L 212.967444 236.886502 
L 215.798648 238.644125 
L 218.629851 240.401748 
L 221.461055 242.159371 
L 224.292258 243.916995 
L 227.123461 245.674618 
L 229.954665 247.432241 
L 232.785868 249.189864 
L 235.617072 250.947487 
L 238.448275 252.70511 
L 241.279479 254.462734 
L 244.110682 256.220357 
L 246.941886 257.97798 
L 249.773089 259.735603 
L 252.604293 261.493226 
L 255.435496 263.250849 
L 258.2667 265.008473 
L 261.097903 266.766096 
L 263.929106 268.523719 
L 266.76031 270.281342 
L 269.591513 272.038965 
L 272.422717 273.796588 
L 275.25392 275.554211 
L 278.085124 277.311835 
L 280.916327 279.069458 
L 283.747531 280.827081 
L 286.578734 282.584704 
L 289.409938 284.342327 
L 292.241141 286.09995 
L 295.072345 287.857574 
L 297.903548 289.615197 
L 300.734752 291.37282 
L 303.565955 293.130443 
L 306.397158 294.888066 
L 309.228362 296.645689 
L 312.059565 298.403313 
L 314.890769 300.160936 
L 317.721972 301.918559 
L 320.553176 303.676182 
L 323.384379 305.433805 
L 326.215583 307.191428 
L 329.046786 308.949052 
L 331.87799 310.706675 
L 334.709193 312.464298 
L 337.540397 314.221921 
L 340.3716 315.979544 
" style="fill:none;stroke:#471365;stroke-linecap:round;stroke-width:1.8;"/>
   </g>
   <g id="patch_3">
    <path d="M 46.068 387.732 
L 46.068 77.922514 
" style="fill:none;stroke:#262626;stroke-linecap:square;stroke-linejoin:miter;"/>
   </g>
   <g id="patch_4">
    <path d="M 46.068 387.732 
L 354.386057 387.732 
" style="fill:none;stroke:#262626;stroke-linecap:square;stroke-linejoin:miter;"/>
   </g>
   <g id="legend_1">
    <g id="patch_5">
     <path d="M 184.448432 97.879264 
L 348.226057 97.879264 
Q 349.986057 97.879264 349.986057 96.119264 
L 349.986057 84.082514 
Q 349.986057 82.322514 348.226057 82.322514 
L 184.448432 82.322514 
Q 182.688432 82.322514 182.688432 84.082514 
L 182.688432 96.119264 
Q 182.688432 97.879264 184.448432 97.879264 
z
" style="fill:#ffffff;opacity:0.8;stroke:#cccccc;stroke-linejoin:miter;stroke-width:0.8;"/>
    </g>
    <g id="line2d_19"/>
    <g id="line2d_20"/>
    <g id="text_20">
     <!-- pearsonr = -0.53; p = 0.00027 -->
     <defs>
      <path d="M 18.109375 8.203125 
L 18.109375 -20.796875 
L 9.078125 -20.796875 
L 9.078125 54.6875 
L 18.109375 54.6875 
L 18.109375 46.390625 
Q 20.953125 51.265625 25.265625 53.625 
Q 29.59375 56 35.59375 56 
Q 45.5625 56 51.78125 48.09375 
Q 58.015625 40.1875 58.015625 27.296875 
Q 58.015625 14.40625 51.78125 6.484375 
Q 45.5625 -1.421875 35.59375 -1.421875 
Q 29.59375 -1.421875 25.265625 0.953125 
Q 20.953125 3.328125 18.109375 8.203125 
z
M 48.6875 27.296875 
Q 48.6875 37.203125 44.609375 42.84375 
Q 40.53125 48.484375 33.40625 48.484375 
Q 26.265625 48.484375 22.1875 42.84375 
Q 18.109375 37.203125 18.109375 27.296875 
Q 18.109375 17.390625 22.1875 11.75 
Q 26.265625 6.109375 33.40625 6.109375 
Q 40.53125 6.109375 44.609375 11.75 
Q 48.6875 17.390625 48.6875 27.296875 
z
" id="DejaVuSans-70"/>
      <path d="M 44.28125 53.078125 
L 44.28125 44.578125 
Q 40.484375 46.53125 36.375 47.5 
Q 32.28125 48.484375 27.875 48.484375 
Q 21.1875 48.484375 17.84375 46.4375 
Q 14.5 44.390625 14.5 40.28125 
Q 14.5 37.15625 16.890625 35.375 
Q 19.28125 33.59375 26.515625 31.984375 
L 29.59375 31.296875 
Q 39.15625 29.25 43.1875 25.515625 
Q 47.21875 21.78125 47.21875 15.09375 
Q 47.21875 7.46875 41.1875 3.015625 
Q 35.15625 -1.421875 24.609375 -1.421875 
Q 20.21875 -1.421875 15.453125 -0.5625 
Q 10.6875 0.296875 5.421875 2 
L 5.421875 11.28125 
Q 10.40625 8.6875 15.234375 7.390625 
Q 20.0625 6.109375 24.8125 6.109375 
Q 31.15625 6.109375 34.5625 8.28125 
Q 37.984375 10.453125 37.984375 14.40625 
Q 37.984375 18.0625 35.515625 20.015625 
Q 33.0625 21.96875 24.703125 23.78125 
L 21.578125 24.515625 
Q 13.234375 26.265625 9.515625 29.90625 
Q 5.8125 33.546875 5.8125 39.890625 
Q 5.8125 47.609375 11.28125 51.796875 
Q 16.75 56 26.8125 56 
Q 31.78125 56 36.171875 55.265625 
Q 40.578125 54.546875 44.28125 53.078125 
z
" id="DejaVuSans-73"/>
      <path d="M 10.59375 45.40625 
L 73.1875 45.40625 
L 73.1875 37.203125 
L 10.59375 37.203125 
z
M 10.59375 25.484375 
L 73.1875 25.484375 
L 73.1875 17.1875 
L 10.59375 17.1875 
z
" id="DejaVuSans-3d"/>
      <path d="M 4.890625 31.390625 
L 31.203125 31.390625 
L 31.203125 23.390625 
L 4.890625 23.390625 
z
" id="DejaVuSans-2d"/>
      <path d="M 40.578125 39.3125 
Q 47.65625 37.796875 51.625 33 
Q 55.609375 28.21875 55.609375 21.1875 
Q 55.609375 10.40625 48.1875 4.484375 
Q 40.765625 -1.421875 27.09375 -1.421875 
Q 22.515625 -1.421875 17.65625 -0.515625 
Q 12.796875 0.390625 7.625 2.203125 
L 7.625 11.71875 
Q 11.71875 9.328125 16.59375 8.109375 
Q 21.484375 6.890625 26.8125 6.890625 
Q 36.078125 6.890625 40.9375 10.546875 
Q 45.796875 14.203125 45.796875 21.1875 
Q 45.796875 27.640625 41.28125 31.265625 
Q 36.765625 34.90625 28.71875 34.90625 
L 20.21875 34.90625 
L 20.21875 43.015625 
L 29.109375 43.015625 
Q 36.375 43.015625 40.234375 45.921875 
Q 44.09375 48.828125 44.09375 54.296875 
Q 44.09375 59.90625 40.109375 62.90625 
Q 36.140625 65.921875 28.71875 65.921875 
Q 24.65625 65.921875 20.015625 65.03125 
Q 15.375 64.15625 9.8125 62.3125 
L 9.8125 71.09375 
Q 15.4375 72.65625 20.34375 73.4375 
Q 25.25 74.21875 29.59375 74.21875 
Q 40.828125 74.21875 47.359375 69.109375 
Q 53.90625 64.015625 53.90625 55.328125 
Q 53.90625 49.265625 50.4375 45.09375 
Q 46.96875 40.921875 40.578125 39.3125 
z
" id="DejaVuSans-33"/>
      <path d="M 11.71875 51.703125 
L 22.015625 51.703125 
L 22.015625 39.3125 
L 11.71875 39.3125 
z
M 11.71875 12.40625 
L 22.015625 12.40625 
L 22.015625 4 
L 14.015625 -11.625 
L 7.71875 -11.625 
L 11.71875 4 
z
" id="DejaVuSans-3b"/>
     </defs>
     <g style="fill:#262626;" transform="translate(210.848432 92.529139)scale(0.088 -0.088)">
      <use xlink:href="#DejaVuSans-70"/>
      <use x="63.476562" xlink:href="#DejaVuSans-65"/>
      <use x="125" xlink:href="#DejaVuSans-61"/>
      <use x="186.279297" xlink:href="#DejaVuSans-72"/>
      <use x="227.392578" xlink:href="#DejaVuSans-73"/>
      <use x="279.492188" xlink:href="#DejaVuSans-6f"/>
      <use x="340.673828" xlink:href="#DejaVuSans-6e"/>
      <use x="404.052734" xlink:href="#DejaVuSans-72"/>
      <use x="445.166016" xlink:href="#DejaVuSans-20"/>
      <use x="476.953125" xlink:href="#DejaVuSans-3d"/>
      <use x="560.742188" xlink:href="#DejaVuSans-20"/>
      <use x="592.529297" xlink:href="#DejaVuSans-2d"/>
      <use x="628.613281" xlink:href="#DejaVuSans-30"/>
      <use x="692.236328" xlink:href="#DejaVuSans-2e"/>
      <use x="724.023438" xlink:href="#DejaVuSans-35"/>
      <use x="787.646484" xlink:href="#DejaVuSans-33"/>
      <use x="851.269531" xlink:href="#DejaVuSans-3b"/>
      <use x="884.960938" xlink:href="#DejaVuSans-20"/>
      <use x="916.748047" xlink:href="#DejaVuSans-70"/>
      <use x="980.224609" xlink:href="#DejaVuSans-20"/>
      <use x="1012.011719" xlink:href="#DejaVuSans-3d"/>
      <use x="1095.800781" xlink:href="#DejaVuSans-20"/>
      <use x="1127.587891" xlink:href="#DejaVuSans-30"/>
      <use x="1191.210938" xlink:href="#DejaVuSans-2e"/>
      <use x="1222.998047" xlink:href="#DejaVuSans-30"/>
      <use x="1286.621094" xlink:href="#DejaVuSans-30"/>
      <use x="1350.244141" xlink:href="#DejaVuSans-30"/>
      <use x="1413.867188" xlink:href="#DejaVuSans-32"/>
      <use x="1477.490234" xlink:href="#DejaVuSans-37"/>
     </g>
    </g>
   </g>
  </g>
  <g id="axes_2">
   <g id="patch_6">
    <path d="M 46.068 67.239429 
L 354.386057 67.239429 
L 354.386057 13.824 
L 46.068 13.824 
z
" style="fill:#ffffff;"/>
   </g>
   <g id="matplotlib.axis_3">
    <g id="xtick_9">
     <g id="line2d_21">
      <g>
       <use style="fill:#262626;stroke:#262626;" x="55.445559" xlink:href="#m498414f3d2" y="67.239429"/>
      </g>
     </g>
    </g>
    <g id="xtick_10">
     <g id="line2d_22">
      <g>
       <use style="fill:#262626;stroke:#262626;" x="93.41453" xlink:href="#m498414f3d2" y="67.239429"/>
      </g>
     </g>
    </g>
    <g id="xtick_11">
     <g id="line2d_23">
      <g>
       <use style="fill:#262626;stroke:#262626;" x="131.3835" xlink:href="#m498414f3d2" y="67.239429"/>
      </g>
     </g>
    </g>
    <g id="xtick_12">
     <g id="line2d_24">
      <g>
       <use style="fill:#262626;stroke:#262626;" x="169.35247" xlink:href="#m498414f3d2" y="67.239429"/>
      </g>
     </g>
    </g>
    <g id="xtick_13">
     <g id="line2d_25">
      <g>
       <use style="fill:#262626;stroke:#262626;" x="207.32144" xlink:href="#m498414f3d2" y="67.239429"/>
      </g>
     </g>
    </g>
    <g id="xtick_14">
     <g id="line2d_26">
      <g>
       <use style="fill:#262626;stroke:#262626;" x="245.29041" xlink:href="#m498414f3d2" y="67.239429"/>
      </g>
     </g>
    </g>
    <g id="xtick_15">
     <g id="line2d_27">
      <g>
       <use style="fill:#262626;stroke:#262626;" x="283.25938" xlink:href="#m498414f3d2" y="67.239429"/>
      </g>
     </g>
    </g>
    <g id="xtick_16">
     <g id="line2d_28">
      <g>
       <use style="fill:#262626;stroke:#262626;" x="321.228351" xlink:href="#m498414f3d2" y="67.239429"/>
      </g>
     </g>
    </g>
   </g>
   <g id="matplotlib.axis_4">
    <g id="ytick_10"/>
    <g id="ytick_11"/>
    <g id="ytick_12"/>
   </g>
   <g id="patch_7">
    <path clip-path="url(#pac26c00f5c)" d="M 126.277045 67.239429 
L 155.857039 67.239429 
L 155.857039 51.34198 
L 126.277045 51.34198 
z
" style="fill:#471365;opacity:0.4;stroke:#ffffff;stroke-linejoin:miter;stroke-width:0.8;"/>
   </g>
   <g id="patch_8">
    <path clip-path="url(#pac26c00f5c)" d="M 155.857039 67.239429 
L 185.437032 67.239429 
L 185.437032 16.367592 
L 155.857039 16.367592 
z
" style="fill:#471365;opacity:0.4;stroke:#ffffff;stroke-linejoin:miter;stroke-width:0.8;"/>
   </g>
   <g id="patch_9">
    <path clip-path="url(#pac26c00f5c)" d="M 185.437032 67.239429 
L 215.017025 67.239429 
L 215.017025 38.62402 
L 185.437032 38.62402 
z
" style="fill:#471365;opacity:0.4;stroke:#ffffff;stroke-linejoin:miter;stroke-width:0.8;"/>
   </g>
   <g id="patch_10">
    <path clip-path="url(#pac26c00f5c)" d="M 215.017025 67.239429 
L 244.597018 67.239429 
L 244.597018 41.80351 
L 215.017025 41.80351 
z
" style="fill:#471365;opacity:0.4;stroke:#ffffff;stroke-linejoin:miter;stroke-width:0.8;"/>
   </g>
   <g id="patch_11">
    <path clip-path="url(#pac26c00f5c)" d="M 244.597018 67.239429 
L 274.177012 67.239429 
L 274.177012 51.34198 
L 244.597018 51.34198 
z
" style="fill:#471365;opacity:0.4;stroke:#ffffff;stroke-linejoin:miter;stroke-width:0.8;"/>
   </g>
   <g id="line2d_29">
    <path clip-path="url(#pac26c00f5c)" d="M 72.822873 67.204354 
L 75.396694 67.18531 
L 77.970515 67.157468 
L 80.544337 67.117571 
L 83.118158 67.061525 
L 85.691979 66.984326 
L 88.265801 66.880038 
L 90.839622 66.741825 
L 93.413443 66.562053 
L 95.987265 66.332471 
L 98.561086 66.044438 
L 101.134907 65.689201 
L 103.708729 65.258177 
L 106.28255 64.743193 
L 108.856371 64.136669 
L 111.430193 63.431692 
L 114.004014 62.621984 
L 116.577835 61.701781 
L 119.151657 60.665672 
L 121.725478 59.508482 
L 124.299299 58.225286 
L 126.873121 56.811673 
L 129.446942 55.264331 
L 132.020763 53.581991 
L 134.594585 51.766703 
L 137.168406 49.825344 
L 139.742227 47.771157 
L 142.316049 45.625074 
L 144.88987 43.416553 
L 147.463691 41.183649 
L 150.037513 38.972129 
L 152.611334 36.833557 
L 155.185155 34.822397 
L 157.758977 32.992395 
L 160.332798 31.392577 
L 162.906619 30.063357 
L 165.480441 29.033219 
L 168.054262 28.316417 
L 170.628083 27.912004 
L 173.201905 27.804299 
L 175.775726 27.964738 
L 178.349547 28.354829 
L 180.923369 28.929828 
L 183.49719 29.642671 
L 186.071011 30.447696 
L 188.644833 31.303794 
L 191.218654 32.176727 
L 193.792475 33.040524 
L 196.366297 33.87797 
L 198.940118 34.680343 
L 201.513939 35.44656 
L 204.087761 36.181948 
L 206.661582 36.896786 
L 209.235403 37.60474 
L 211.809225 38.321254 
L 214.383046 39.061928 
L 216.956867 39.840925 
L 219.530689 40.669452 
L 222.10451 41.554422 
L 224.678331 42.4974 
L 227.252153 43.494008 
L 229.825974 44.533894 
L 232.399795 45.601368 
L 234.973617 46.676689 
L 237.547438 47.73793 
L 240.121259 48.763219 
L 242.695081 49.733091 
L 245.268902 50.632671 
L 247.842723 51.453382 
L 250.416545 52.193953 
L 252.990366 52.860578 
L 255.564187 53.466211 
L 258.138009 54.029068 
L 260.71183 54.570533 
L 263.285651 55.112737 
L 265.859472 55.676095 
L 268.433294 56.277114 
L 271.007115 56.926709 
L 273.580936 57.629196 
L 276.154758 58.382072 
L 278.728579 59.176522 
L 281.3024 59.998585 
L 283.876222 60.830766 
L 286.450043 61.65388 
L 289.023864 62.448912 
L 291.597686 63.19866 
L 294.171507 63.889011 
L 296.745328 64.509767 
L 299.31915 65.054973 
L 301.892971 65.522809 
L 304.466792 65.91511 
L 307.040614 66.23665 
L 309.614435 66.4943 
L 312.188256 66.696176 
L 314.762078 66.850871 
L 317.335899 66.966819 
L 319.90972 67.051838 
L 322.483542 67.112831 
L 325.057363 67.155647 
L 327.631184 67.18506 
" style="fill:none;stroke:#471365;stroke-linecap:round;stroke-width:1.2;"/>
   </g>
   <g id="patch_12">
    <path d="M 46.068 67.239429 
L 354.386057 67.239429 
" style="fill:none;stroke:#262626;stroke-linecap:square;stroke-linejoin:miter;"/>
   </g>
  </g>
  <g id="axes_3">
   <g id="patch_13">
    <path d="M 365.017714 387.732 
L 418.176 387.732 
L 418.176 77.922514 
L 365.017714 77.922514 
z
" style="fill:#ffffff;"/>
   </g>
   <g id="matplotlib.axis_5">
    <g id="xtick_17"/>
    <g id="xtick_18"/>
   </g>
   <g id="matplotlib.axis_6">
    <g id="ytick_13">
     <g id="line2d_30">
      <g>
       <use style="fill:#262626;stroke:#262626;" x="365.017714" xlink:href="#ma09637b813" y="373.34232"/>
      </g>
     </g>
    </g>
    <g id="ytick_14">
     <g id="line2d_31">
      <g>
       <use style="fill:#262626;stroke:#262626;" x="365.017714" xlink:href="#ma09637b813" y="336.898067"/>
      </g>
     </g>
    </g>
    <g id="ytick_15">
     <g id="line2d_32">
      <g>
       <use style="fill:#262626;stroke:#262626;" x="365.017714" xlink:href="#ma09637b813" y="300.453813"/>
      </g>
     </g>
    </g>
    <g id="ytick_16">
     <g id="line2d_33">
      <g>
       <use style="fill:#262626;stroke:#262626;" x="365.017714" xlink:href="#ma09637b813" y="264.00956"/>
      </g>
     </g>
    </g>
    <g id="ytick_17">
     <g id="line2d_34">
      <g>
       <use style="fill:#262626;stroke:#262626;" x="365.017714" xlink:href="#ma09637b813" y="227.565306"/>
      </g>
     </g>
    </g>
    <g id="ytick_18">
     <g id="line2d_35">
      <g>
       <use style="fill:#262626;stroke:#262626;" x="365.017714" xlink:href="#ma09637b813" y="191.121052"/>
      </g>
     </g>
    </g>
    <g id="ytick_19">
     <g id="line2d_36">
      <g>
       <use style="fill:#262626;stroke:#262626;" x="365.017714" xlink:href="#ma09637b813" y="154.676799"/>
      </g>
     </g>
    </g>
    <g id="ytick_20">
     <g id="line2d_37">
      <g>
       <use style="fill:#262626;stroke:#262626;" x="365.017714" xlink:href="#ma09637b813" y="118.232545"/>
      </g>
     </g>
    </g>
    <g id="ytick_21">
     <g id="line2d_38">
      <g>
       <use style="fill:#262626;stroke:#262626;" x="365.017714" xlink:href="#ma09637b813" y="81.788292"/>
      </g>
     </g>
    </g>
   </g>
   <g id="patch_14">
    <path clip-path="url(#p74547d54a6)" d="M 365.017714 310.877868 
L 394.550095 310.877868 
L 394.550095 271.852563 
L 365.017714 271.852563 
z
" style="fill:#471365;opacity:0.4;stroke:#ffffff;stroke-linejoin:miter;stroke-width:0.8;"/>
   </g>
   <g id="patch_15">
    <path clip-path="url(#p74547d54a6)" d="M 365.017714 271.852563 
L 415.644653 271.852563 
L 415.644653 232.827257 
L 365.017714 232.827257 
z
" style="fill:#471365;opacity:0.4;stroke:#ffffff;stroke-linejoin:miter;stroke-width:0.8;"/>
   </g>
   <g id="patch_16">
    <path clip-path="url(#p74547d54a6)" d="M 365.017714 232.827257 
L 415.644653 232.827257 
L 415.644653 193.801952 
L 365.017714 193.801952 
z
" style="fill:#471365;opacity:0.4;stroke:#ffffff;stroke-linejoin:miter;stroke-width:0.8;"/>
   </g>
   <g id="patch_17">
    <path clip-path="url(#p74547d54a6)" d="M 365.017714 193.801952 
L 415.644653 193.801952 
L 415.644653 154.776646 
L 365.017714 154.776646 
z
" style="fill:#471365;opacity:0.4;stroke:#ffffff;stroke-linejoin:miter;stroke-width:0.8;"/>
   </g>
   <g id="line2d_39">
    <path clip-path="url(#p74547d54a6)" d="M 365.092853 373.649751 
L 365.129773 370.804852 
L 365.182013 367.959953 
L 365.254575 365.115054 
L 365.353526 362.270155 
L 365.486013 359.425256 
L 365.660211 356.580357 
L 365.885168 353.735459 
L 366.170555 350.89056 
L 366.526325 348.045661 
L 366.962277 345.200762 
L 367.487586 342.355863 
L 368.110309 339.510964 
L 368.836936 336.666065 
L 369.672032 333.821167 
L 370.618005 330.976268 
L 371.67502 328.131369 
L 372.841092 325.28647 
L 374.1123 322.441571 
L 375.483116 319.596672 
L 376.946786 316.751773 
L 378.495702 313.906875 
L 380.121719 311.061976 
L 381.816387 308.217077 
L 383.571081 305.372178 
L 385.377037 302.527279 
L 387.22532 299.68238 
L 389.106758 296.837481 
L 391.011874 293.992583 
L 392.930829 291.147684 
L 394.853377 288.302785 
L 396.76882 285.457886 
L 398.665925 282.612987 
L 400.532788 279.768088 
L 402.356613 276.923189 
L 404.12343 274.078291 
L 405.817786 271.233392 
L 407.422477 268.388493 
L 408.918431 265.543594 
L 410.284844 262.698695 
L 411.499671 259.853796 
L 412.540534 257.008897 
L 413.386075 254.163999 
L 414.01769 251.3191 
L 414.421539 248.474201 
L 414.590618 245.629302 
L 414.526675 242.784403 
L 414.241681 239.939504 
L 413.758614 237.094605 
L 413.111338 234.249707 
L 412.343464 231.404808 
L 411.506178 228.559909 
L 410.655146 225.71501 
L 409.846762 222.870111 
L 409.134041 220.025212 
L 408.562581 217.180313 
L 408.166974 214.335415 
L 407.968028 211.490516 
L 407.971044 208.645617 
L 408.165296 205.800718 
L 408.52468 202.955819 
L 409.009431 200.11092 
L 409.568684 197.266021 
L 410.143599 194.421123 
L 410.670804 191.576224 
L 411.085894 188.731325 
L 411.326818 185.886426 
L 411.337006 183.041527 
L 411.068152 180.196628 
L 410.48259 177.351729 
L 409.555197 174.506831 
L 408.274762 171.661932 
L 406.64472 168.817033 
L 404.683195 165.972134 
L 402.422263 163.127235 
L 399.90643 160.282336 
L 397.190365 157.437437 
L 394.335993 154.592539 
L 391.409162 151.74764 
L 388.476105 148.902741 
L 385.599996 146.057842 
L 382.837854 143.212943 
L 380.238043 140.368044 
L 377.838526 137.523145 
L 375.665956 134.678247 
L 373.735614 131.833348 
L 372.052089 128.988449 
L 370.610567 126.14355 
L 369.398541 123.298651 
L 368.397733 120.453752 
L 367.586055 117.608853 
L 366.939438 114.763955 
L 366.433417 111.919056 
L 366.044397 109.074157 
L 365.750587 106.229258 
L 365.532581 103.384359 
L 365.37366 100.53946 
L 365.259844 97.694561 
L 365.179761 94.849662 
L 365.124403 92.004764 
" style="fill:none;stroke:#471365;stroke-linecap:round;stroke-width:1.2;"/>
   </g>
   <g id="patch_18">
    <path d="M 365.017714 387.732 
L 365.017714 77.922514 
" style="fill:none;stroke:#262626;stroke-linecap:square;stroke-linejoin:miter;"/>
   </g>
  </g>
 </g>
 <defs>
  <clipPath id="pfd36c15858">
   <rect height="309.809486" width="308.318057" x="46.068" y="77.922514"/>
  </clipPath>
  <clipPath id="pac26c00f5c">
   <rect height="53.415429" width="308.318057" x="46.068" y="13.824"/>
  </clipPath>
  <clipPath id="p74547d54a6">
   <rect height="309.809486" width="53.158286" x="365.017714" y="77.922514"/>
  </clipPath>
 </defs>
</svg>
