<?xml version="1.0" encoding="utf-8" standalone="no"?>
<!DOCTYPE svg PUBLIC "-//W3C//DTD SVG 1.1//EN"
  "http://www.w3.org/Graphics/SVG/1.1/DTD/svg11.dtd">
<!-- Created with matplotlib (http://matplotlib.org/) -->
<svg height="432pt" version="1.1" viewBox="0 0 432 432" width="432pt" xmlns="http://www.w3.org/2000/svg" xmlns:xlink="http://www.w3.org/1999/xlink">
 <defs>
  <style type="text/css">
*{stroke-linecap:butt;stroke-linejoin:round;}
  </style>
 </defs>
 <g id="figure_1">
  <g id="patch_1">
   <path d="M 0 432 
L 432 432 
L 432 0 
L 0 0 
z
" style="fill:#ffffff;"/>
  </g>
  <g id="axes_1">
   <g id="patch_2">
    <path d="M 49.418 390.332 
L 352.268333 390.332 
L 352.268333 81.023333 
L 49.418 81.023333 
z
" style="fill:#ffffff;"/>
   </g>
   <g id="matplotlib.axis_1">
    <g id="xtick_1">
     <g id="line2d_1">
      <defs>
       <path d="M 0 0 
L 0 4.8 
" id="m3b8b8686ee" style="stroke:#262626;"/>
      </defs>
      <g>
       <use style="fill:#262626;stroke:#262626;" x="81.669545" xlink:href="#m3b8b8686ee" y="390.332"/>
      </g>
     </g>
     <g id="text_1">
      <!-- 9.50 -->
      <defs>
       <path d="M 10.984375 1.515625 
L 10.984375 10.5 
Q 14.703125 8.734375 18.5 7.8125 
Q 22.3125 6.890625 25.984375 6.890625 
Q 35.75 6.890625 40.890625 13.453125 
Q 46.046875 20.015625 46.78125 33.40625 
Q 43.953125 29.203125 39.59375 26.953125 
Q 35.25 24.703125 29.984375 24.703125 
Q 19.046875 24.703125 12.671875 31.3125 
Q 6.296875 37.9375 6.296875 49.421875 
Q 6.296875 60.640625 12.9375 67.421875 
Q 19.578125 74.21875 30.609375 74.21875 
Q 43.265625 74.21875 49.921875 64.515625 
Q 56.59375 54.828125 56.59375 36.375 
Q 56.59375 19.140625 48.40625 8.859375 
Q 40.234375 -1.421875 26.421875 -1.421875 
Q 22.703125 -1.421875 18.890625 -0.6875 
Q 15.09375 0.046875 10.984375 1.515625 
z
M 30.609375 32.421875 
Q 37.25 32.421875 41.125 36.953125 
Q 45.015625 41.5 45.015625 49.421875 
Q 45.015625 57.28125 41.125 61.84375 
Q 37.25 66.40625 30.609375 66.40625 
Q 23.96875 66.40625 20.09375 61.84375 
Q 16.21875 57.28125 16.21875 49.421875 
Q 16.21875 41.5 20.09375 36.953125 
Q 23.96875 32.421875 30.609375 32.421875 
z
" id="DejaVuSans-39"/>
       <path d="M 10.6875 12.40625 
L 21 12.40625 
L 21 0 
L 10.6875 0 
z
" id="DejaVuSans-2e"/>
       <path d="M 10.796875 72.90625 
L 49.515625 72.90625 
L 49.515625 64.59375 
L 19.828125 64.59375 
L 19.828125 46.734375 
Q 21.96875 47.46875 24.109375 47.828125 
Q 26.265625 48.1875 28.421875 48.1875 
Q 40.625 48.1875 47.75 41.5 
Q 54.890625 34.8125 54.890625 23.390625 
Q 54.890625 11.625 47.5625 5.09375 
Q 40.234375 -1.421875 26.90625 -1.421875 
Q 22.3125 -1.421875 17.546875 -0.640625 
Q 12.796875 0.140625 7.71875 1.703125 
L 7.71875 11.625 
Q 12.109375 9.234375 16.796875 8.0625 
Q 21.484375 6.890625 26.703125 6.890625 
Q 35.15625 6.890625 40.078125 11.328125 
Q 45.015625 15.765625 45.015625 23.390625 
Q 45.015625 31 40.078125 35.4375 
Q 35.15625 39.890625 26.703125 39.890625 
Q 22.75 39.890625 18.8125 39.015625 
Q 14.890625 38.140625 10.796875 36.28125 
z
" id="DejaVuSans-35"/>
       <path d="M 31.78125 66.40625 
Q 24.171875 66.40625 20.328125 58.90625 
Q 16.5 51.421875 16.5 36.375 
Q 16.5 21.390625 20.328125 13.890625 
Q 24.171875 6.390625 31.78125 6.390625 
Q 39.453125 6.390625 43.28125 13.890625 
Q 47.125 21.390625 47.125 36.375 
Q 47.125 51.421875 43.28125 58.90625 
Q 39.453125 66.40625 31.78125 66.40625 
z
M 31.78125 74.21875 
Q 44.046875 74.21875 50.515625 64.515625 
Q 56.984375 54.828125 56.984375 36.375 
Q 56.984375 17.96875 50.515625 8.265625 
Q 44.046875 -1.421875 31.78125 -1.421875 
Q 19.53125 -1.421875 13.0625 8.265625 
Q 6.59375 17.96875 6.59375 36.375 
Q 6.59375 54.828125 13.0625 64.515625 
Q 19.53125 74.21875 31.78125 74.21875 
z
" id="DejaVuSans-30"/>
      </defs>
      <g style="fill:#262626;" transform="translate(71.87267 405.318625)scale(0.088 -0.088)">
       <use xlink:href="#DejaVuSans-39"/>
       <use x="63.623047" xlink:href="#DejaVuSans-2e"/>
       <use x="95.410156" xlink:href="#DejaVuSans-35"/>
       <use x="159.033203" xlink:href="#DejaVuSans-30"/>
      </g>
     </g>
    </g>
    <g id="xtick_2">
     <g id="line2d_2">
      <g>
       <use style="fill:#262626;stroke:#262626;" x="117.343503" xlink:href="#m3b8b8686ee" y="390.332"/>
      </g>
     </g>
     <g id="text_2">
      <!-- 9.75 -->
      <defs>
       <path d="M 8.203125 72.90625 
L 55.078125 72.90625 
L 55.078125 68.703125 
L 28.609375 0 
L 18.3125 0 
L 43.21875 64.59375 
L 8.203125 64.59375 
z
" id="DejaVuSans-37"/>
      </defs>
      <g style="fill:#262626;" transform="translate(107.546628 405.318625)scale(0.088 -0.088)">
       <use xlink:href="#DejaVuSans-39"/>
       <use x="63.623047" xlink:href="#DejaVuSans-2e"/>
       <use x="95.410156" xlink:href="#DejaVuSans-37"/>
       <use x="159.033203" xlink:href="#DejaVuSans-35"/>
      </g>
     </g>
    </g>
    <g id="xtick_3">
     <g id="line2d_3">
      <g>
       <use style="fill:#262626;stroke:#262626;" x="153.01746" xlink:href="#m3b8b8686ee" y="390.332"/>
      </g>
     </g>
     <g id="text_3">
      <!-- 10.00 -->
      <defs>
       <path d="M 12.40625 8.296875 
L 28.515625 8.296875 
L 28.515625 63.921875 
L 10.984375 60.40625 
L 10.984375 69.390625 
L 28.421875 72.90625 
L 38.28125 72.90625 
L 38.28125 8.296875 
L 54.390625 8.296875 
L 54.390625 0 
L 12.40625 0 
z
" id="DejaVuSans-31"/>
      </defs>
      <g style="fill:#262626;" transform="translate(140.421085 405.318625)scale(0.088 -0.088)">
       <use xlink:href="#DejaVuSans-31"/>
       <use x="63.623047" xlink:href="#DejaVuSans-30"/>
       <use x="127.246094" xlink:href="#DejaVuSans-2e"/>
       <use x="159.033203" xlink:href="#DejaVuSans-30"/>
       <use x="222.65625" xlink:href="#DejaVuSans-30"/>
      </g>
     </g>
    </g>
    <g id="xtick_4">
     <g id="line2d_4">
      <g>
       <use style="fill:#262626;stroke:#262626;" x="188.691418" xlink:href="#m3b8b8686ee" y="390.332"/>
      </g>
     </g>
     <g id="text_4">
      <!-- 10.25 -->
      <defs>
       <path d="M 19.1875 8.296875 
L 53.609375 8.296875 
L 53.609375 0 
L 7.328125 0 
L 7.328125 8.296875 
Q 12.9375 14.109375 22.625 23.890625 
Q 32.328125 33.6875 34.8125 36.53125 
Q 39.546875 41.84375 41.421875 45.53125 
Q 43.3125 49.21875 43.3125 52.78125 
Q 43.3125 58.59375 39.234375 62.25 
Q 35.15625 65.921875 28.609375 65.921875 
Q 23.96875 65.921875 18.8125 64.3125 
Q 13.671875 62.703125 7.8125 59.421875 
L 7.8125 69.390625 
Q 13.765625 71.78125 18.9375 73 
Q 24.125 74.21875 28.421875 74.21875 
Q 39.75 74.21875 46.484375 68.546875 
Q 53.21875 62.890625 53.21875 53.421875 
Q 53.21875 48.921875 51.53125 44.890625 
Q 49.859375 40.875 45.40625 35.40625 
Q 44.1875 33.984375 37.640625 27.21875 
Q 31.109375 20.453125 19.1875 8.296875 
z
" id="DejaVuSans-32"/>
      </defs>
      <g style="fill:#262626;" transform="translate(176.095043 405.318625)scale(0.088 -0.088)">
       <use xlink:href="#DejaVuSans-31"/>
       <use x="63.623047" xlink:href="#DejaVuSans-30"/>
       <use x="127.246094" xlink:href="#DejaVuSans-2e"/>
       <use x="159.033203" xlink:href="#DejaVuSans-32"/>
       <use x="222.65625" xlink:href="#DejaVuSans-35"/>
      </g>
     </g>
    </g>
    <g id="xtick_5">
     <g id="line2d_5">
      <g>
       <use style="fill:#262626;stroke:#262626;" x="224.365376" xlink:href="#m3b8b8686ee" y="390.332"/>
      </g>
     </g>
     <g id="text_5">
      <!-- 10.50 -->
      <g style="fill:#262626;" transform="translate(211.769001 405.318625)scale(0.088 -0.088)">
       <use xlink:href="#DejaVuSans-31"/>
       <use x="63.623047" xlink:href="#DejaVuSans-30"/>
       <use x="127.246094" xlink:href="#DejaVuSans-2e"/>
       <use x="159.033203" xlink:href="#DejaVuSans-35"/>
       <use x="222.65625" xlink:href="#DejaVuSans-30"/>
      </g>
     </g>
    </g>
    <g id="xtick_6">
     <g id="line2d_6">
      <g>
       <use style="fill:#262626;stroke:#262626;" x="260.039333" xlink:href="#m3b8b8686ee" y="390.332"/>
      </g>
     </g>
     <g id="text_6">
      <!-- 10.75 -->
      <g style="fill:#262626;" transform="translate(247.442958 405.318625)scale(0.088 -0.088)">
       <use xlink:href="#DejaVuSans-31"/>
       <use x="63.623047" xlink:href="#DejaVuSans-30"/>
       <use x="127.246094" xlink:href="#DejaVuSans-2e"/>
       <use x="159.033203" xlink:href="#DejaVuSans-37"/>
       <use x="222.65625" xlink:href="#DejaVuSans-35"/>
      </g>
     </g>
    </g>
    <g id="xtick_7">
     <g id="line2d_7">
      <g>
       <use style="fill:#262626;stroke:#262626;" x="295.713291" xlink:href="#m3b8b8686ee" y="390.332"/>
      </g>
     </g>
     <g id="text_7">
      <!-- 11.00 -->
      <g style="fill:#262626;" transform="translate(283.116916 405.318625)scale(0.088 -0.088)">
       <use xlink:href="#DejaVuSans-31"/>
       <use x="63.623047" xlink:href="#DejaVuSans-31"/>
       <use x="127.246094" xlink:href="#DejaVuSans-2e"/>
       <use x="159.033203" xlink:href="#DejaVuSans-30"/>
       <use x="222.65625" xlink:href="#DejaVuSans-30"/>
      </g>
     </g>
    </g>
    <g id="xtick_8">
     <g id="line2d_8">
      <g>
       <use style="fill:#262626;stroke:#262626;" x="331.387248" xlink:href="#m3b8b8686ee" y="390.332"/>
      </g>
     </g>
     <g id="text_8">
      <!-- 11.25 -->
      <g style="fill:#262626;" transform="translate(318.790873 405.318625)scale(0.088 -0.088)">
       <use xlink:href="#DejaVuSans-31"/>
       <use x="63.623047" xlink:href="#DejaVuSans-31"/>
       <use x="127.246094" xlink:href="#DejaVuSans-2e"/>
       <use x="159.033203" xlink:href="#DejaVuSans-32"/>
       <use x="222.65625" xlink:href="#DejaVuSans-35"/>
      </g>
     </g>
    </g>
    <g id="text_9">
     <!-- log(n) -->
     <defs>
      <path d="M 9.421875 75.984375 
L 18.40625 75.984375 
L 18.40625 0 
L 9.421875 0 
z
" id="DejaVuSans-6c"/>
      <path d="M 30.609375 48.390625 
Q 23.390625 48.390625 19.1875 42.75 
Q 14.984375 37.109375 14.984375 27.296875 
Q 14.984375 17.484375 19.15625 11.84375 
Q 23.34375 6.203125 30.609375 6.203125 
Q 37.796875 6.203125 41.984375 11.859375 
Q 46.1875 17.53125 46.1875 27.296875 
Q 46.1875 37.015625 41.984375 42.703125 
Q 37.796875 48.390625 30.609375 48.390625 
z
M 30.609375 56 
Q 42.328125 56 49.015625 48.375 
Q 55.71875 40.765625 55.71875 27.296875 
Q 55.71875 13.875 49.015625 6.21875 
Q 42.328125 -1.421875 30.609375 -1.421875 
Q 18.84375 -1.421875 12.171875 6.21875 
Q 5.515625 13.875 5.515625 27.296875 
Q 5.515625 40.765625 12.171875 48.375 
Q 18.84375 56 30.609375 56 
z
" id="DejaVuSans-6f"/>
      <path d="M 45.40625 27.984375 
Q 45.40625 37.75 41.375 43.109375 
Q 37.359375 48.484375 30.078125 48.484375 
Q 22.859375 48.484375 18.828125 43.109375 
Q 14.796875 37.75 14.796875 27.984375 
Q 14.796875 18.265625 18.828125 12.890625 
Q 22.859375 7.515625 30.078125 7.515625 
Q 37.359375 7.515625 41.375 12.890625 
Q 45.40625 18.265625 45.40625 27.984375 
z
M 54.390625 6.78125 
Q 54.390625 -7.171875 48.1875 -13.984375 
Q 42 -20.796875 29.203125 -20.796875 
Q 24.46875 -20.796875 20.265625 -20.09375 
Q 16.0625 -19.390625 12.109375 -17.921875 
L 12.109375 -9.1875 
Q 16.0625 -11.328125 19.921875 -12.34375 
Q 23.78125 -13.375 27.78125 -13.375 
Q 36.625 -13.375 41.015625 -8.765625 
Q 45.40625 -4.15625 45.40625 5.171875 
L 45.40625 9.625 
Q 42.625 4.78125 38.28125 2.390625 
Q 33.9375 0 27.875 0 
Q 17.828125 0 11.671875 7.65625 
Q 5.515625 15.328125 5.515625 27.984375 
Q 5.515625 40.671875 11.671875 48.328125 
Q 17.828125 56 27.875 56 
Q 33.9375 56 38.28125 53.609375 
Q 42.625 51.21875 45.40625 46.390625 
L 45.40625 54.6875 
L 54.390625 54.6875 
z
" id="DejaVuSans-67"/>
      <path d="M 31 75.875 
Q 24.46875 64.65625 21.28125 53.65625 
Q 18.109375 42.671875 18.109375 31.390625 
Q 18.109375 20.125 21.3125 9.0625 
Q 24.515625 -2 31 -13.1875 
L 23.1875 -13.1875 
Q 15.875 -1.703125 12.234375 9.375 
Q 8.59375 20.453125 8.59375 31.390625 
Q 8.59375 42.28125 12.203125 53.3125 
Q 15.828125 64.359375 23.1875 75.875 
z
" id="DejaVuSans-28"/>
      <path d="M 54.890625 33.015625 
L 54.890625 0 
L 45.90625 0 
L 45.90625 32.71875 
Q 45.90625 40.484375 42.875 44.328125 
Q 39.84375 48.1875 33.796875 48.1875 
Q 26.515625 48.1875 22.3125 43.546875 
Q 18.109375 38.921875 18.109375 30.90625 
L 18.109375 0 
L 9.078125 0 
L 9.078125 54.6875 
L 18.109375 54.6875 
L 18.109375 46.1875 
Q 21.34375 51.125 25.703125 53.5625 
Q 30.078125 56 35.796875 56 
Q 45.21875 56 50.046875 50.171875 
Q 54.890625 44.34375 54.890625 33.015625 
z
" id="DejaVuSans-6e"/>
      <path d="M 8.015625 75.875 
L 15.828125 75.875 
Q 23.140625 64.359375 26.78125 53.3125 
Q 30.421875 42.28125 30.421875 31.390625 
Q 30.421875 20.453125 26.78125 9.375 
Q 23.140625 -1.703125 15.828125 -13.1875 
L 8.015625 -13.1875 
Q 14.5 -2 17.703125 9.0625 
Q 20.90625 20.125 20.90625 31.390625 
Q 20.90625 42.671875 17.703125 53.65625 
Q 14.5 64.65625 8.015625 75.875 
z
" id="DejaVuSans-29"/>
     </defs>
     <g style="fill:#262626;" transform="translate(186.737917 418.44325)scale(0.096 -0.096)">
      <use xlink:href="#DejaVuSans-6c"/>
      <use x="27.783203" xlink:href="#DejaVuSans-6f"/>
      <use x="88.964844" xlink:href="#DejaVuSans-67"/>
      <use x="152.441406" xlink:href="#DejaVuSans-28"/>
      <use x="191.455078" xlink:href="#DejaVuSans-6e"/>
      <use x="254.833984" xlink:href="#DejaVuSans-29"/>
     </g>
    </g>
   </g>
   <g id="matplotlib.axis_2">
    <g id="ytick_1">
     <g id="line2d_9">
      <defs>
       <path d="M 0 0 
L -4.8 0 
" id="m97f167a6ad" style="stroke:#262626;"/>
      </defs>
      <g>
       <use style="fill:#262626;stroke:#262626;" x="49.418" xlink:href="#m97f167a6ad" y="390.332"/>
      </g>
     </g>
     <g id="text_10">
      <!-- 0 -->
      <g style="fill:#262626;" transform="translate(35.519 393.675313)scale(0.088 -0.088)">
       <use xlink:href="#DejaVuSans-30"/>
      </g>
     </g>
    </g>
    <g id="ytick_2">
     <g id="line2d_10">
      <g>
       <use style="fill:#262626;stroke:#262626;" x="49.418" xlink:href="#m97f167a6ad" y="334.094061"/>
      </g>
     </g>
     <g id="text_11">
      <!-- 20 -->
      <g style="fill:#262626;" transform="translate(29.92 337.437373)scale(0.088 -0.088)">
       <use xlink:href="#DejaVuSans-32"/>
       <use x="63.623047" xlink:href="#DejaVuSans-30"/>
      </g>
     </g>
    </g>
    <g id="ytick_3">
     <g id="line2d_11">
      <g>
       <use style="fill:#262626;stroke:#262626;" x="49.418" xlink:href="#m97f167a6ad" y="277.856121"/>
      </g>
     </g>
     <g id="text_12">
      <!-- 40 -->
      <defs>
       <path d="M 37.796875 64.3125 
L 12.890625 25.390625 
L 37.796875 25.390625 
z
M 35.203125 72.90625 
L 47.609375 72.90625 
L 47.609375 25.390625 
L 58.015625 25.390625 
L 58.015625 17.1875 
L 47.609375 17.1875 
L 47.609375 0 
L 37.796875 0 
L 37.796875 17.1875 
L 4.890625 17.1875 
L 4.890625 26.703125 
z
" id="DejaVuSans-34"/>
      </defs>
      <g style="fill:#262626;" transform="translate(29.92 281.199434)scale(0.088 -0.088)">
       <use xlink:href="#DejaVuSans-34"/>
       <use x="63.623047" xlink:href="#DejaVuSans-30"/>
      </g>
     </g>
    </g>
    <g id="ytick_4">
     <g id="line2d_12">
      <g>
       <use style="fill:#262626;stroke:#262626;" x="49.418" xlink:href="#m97f167a6ad" y="221.618182"/>
      </g>
     </g>
     <g id="text_13">
      <!-- 60 -->
      <defs>
       <path d="M 33.015625 40.375 
Q 26.375 40.375 22.484375 35.828125 
Q 18.609375 31.296875 18.609375 23.390625 
Q 18.609375 15.53125 22.484375 10.953125 
Q 26.375 6.390625 33.015625 6.390625 
Q 39.65625 6.390625 43.53125 10.953125 
Q 47.40625 15.53125 47.40625 23.390625 
Q 47.40625 31.296875 43.53125 35.828125 
Q 39.65625 40.375 33.015625 40.375 
z
M 52.59375 71.296875 
L 52.59375 62.3125 
Q 48.875 64.0625 45.09375 64.984375 
Q 41.3125 65.921875 37.59375 65.921875 
Q 27.828125 65.921875 22.671875 59.328125 
Q 17.53125 52.734375 16.796875 39.40625 
Q 19.671875 43.65625 24.015625 45.921875 
Q 28.375 48.1875 33.59375 48.1875 
Q 44.578125 48.1875 50.953125 41.515625 
Q 57.328125 34.859375 57.328125 23.390625 
Q 57.328125 12.15625 50.6875 5.359375 
Q 44.046875 -1.421875 33.015625 -1.421875 
Q 20.359375 -1.421875 13.671875 8.265625 
Q 6.984375 17.96875 6.984375 36.375 
Q 6.984375 53.65625 15.1875 63.9375 
Q 23.390625 74.21875 37.203125 74.21875 
Q 40.921875 74.21875 44.703125 73.484375 
Q 48.484375 72.75 52.59375 71.296875 
z
" id="DejaVuSans-36"/>
      </defs>
      <g style="fill:#262626;" transform="translate(29.92 224.961494)scale(0.088 -0.088)">
       <use xlink:href="#DejaVuSans-36"/>
       <use x="63.623047" xlink:href="#DejaVuSans-30"/>
      </g>
     </g>
    </g>
    <g id="ytick_5">
     <g id="line2d_13">
      <g>
       <use style="fill:#262626;stroke:#262626;" x="49.418" xlink:href="#m97f167a6ad" y="165.380242"/>
      </g>
     </g>
     <g id="text_14">
      <!-- 80 -->
      <defs>
       <path d="M 31.78125 34.625 
Q 24.75 34.625 20.71875 30.859375 
Q 16.703125 27.09375 16.703125 20.515625 
Q 16.703125 13.921875 20.71875 10.15625 
Q 24.75 6.390625 31.78125 6.390625 
Q 38.8125 6.390625 42.859375 10.171875 
Q 46.921875 13.96875 46.921875 20.515625 
Q 46.921875 27.09375 42.890625 30.859375 
Q 38.875 34.625 31.78125 34.625 
z
M 21.921875 38.8125 
Q 15.578125 40.375 12.03125 44.71875 
Q 8.5 49.078125 8.5 55.328125 
Q 8.5 64.0625 14.71875 69.140625 
Q 20.953125 74.21875 31.78125 74.21875 
Q 42.671875 74.21875 48.875 69.140625 
Q 55.078125 64.0625 55.078125 55.328125 
Q 55.078125 49.078125 51.53125 44.71875 
Q 48 40.375 41.703125 38.8125 
Q 48.828125 37.15625 52.796875 32.3125 
Q 56.78125 27.484375 56.78125 20.515625 
Q 56.78125 9.90625 50.3125 4.234375 
Q 43.84375 -1.421875 31.78125 -1.421875 
Q 19.734375 -1.421875 13.25 4.234375 
Q 6.78125 9.90625 6.78125 20.515625 
Q 6.78125 27.484375 10.78125 32.3125 
Q 14.796875 37.15625 21.921875 38.8125 
z
M 18.3125 54.390625 
Q 18.3125 48.734375 21.84375 45.5625 
Q 25.390625 42.390625 31.78125 42.390625 
Q 38.140625 42.390625 41.71875 45.5625 
Q 45.3125 48.734375 45.3125 54.390625 
Q 45.3125 60.0625 41.71875 63.234375 
Q 38.140625 66.40625 31.78125 66.40625 
Q 25.390625 66.40625 21.84375 63.234375 
Q 18.3125 60.0625 18.3125 54.390625 
z
" id="DejaVuSans-38"/>
      </defs>
      <g style="fill:#262626;" transform="translate(29.92 168.723555)scale(0.088 -0.088)">
       <use xlink:href="#DejaVuSans-38"/>
       <use x="63.623047" xlink:href="#DejaVuSans-30"/>
      </g>
     </g>
    </g>
    <g id="ytick_6">
     <g id="line2d_14">
      <g>
       <use style="fill:#262626;stroke:#262626;" x="49.418" xlink:href="#m97f167a6ad" y="109.142303"/>
      </g>
     </g>
     <g id="text_15">
      <!-- 100 -->
      <g style="fill:#262626;" transform="translate(24.321 112.485616)scale(0.088 -0.088)">
       <use xlink:href="#DejaVuSans-31"/>
       <use x="63.623047" xlink:href="#DejaVuSans-30"/>
       <use x="127.246094" xlink:href="#DejaVuSans-30"/>
      </g>
     </g>
    </g>
    <g id="text_16">
     <!-- Time to cancer -->
     <defs>
      <path d="M -0.296875 72.90625 
L 61.375 72.90625 
L 61.375 64.59375 
L 35.5 64.59375 
L 35.5 0 
L 25.59375 0 
L 25.59375 64.59375 
L -0.296875 64.59375 
z
" id="DejaVuSans-54"/>
      <path d="M 9.421875 54.6875 
L 18.40625 54.6875 
L 18.40625 0 
L 9.421875 0 
z
M 9.421875 75.984375 
L 18.40625 75.984375 
L 18.40625 64.59375 
L 9.421875 64.59375 
z
" id="DejaVuSans-69"/>
      <path d="M 52 44.1875 
Q 55.375 50.25 60.0625 53.125 
Q 64.75 56 71.09375 56 
Q 79.640625 56 84.28125 50.015625 
Q 88.921875 44.046875 88.921875 33.015625 
L 88.921875 0 
L 79.890625 0 
L 79.890625 32.71875 
Q 79.890625 40.578125 77.09375 44.375 
Q 74.3125 48.1875 68.609375 48.1875 
Q 61.625 48.1875 57.5625 43.546875 
Q 53.515625 38.921875 53.515625 30.90625 
L 53.515625 0 
L 44.484375 0 
L 44.484375 32.71875 
Q 44.484375 40.625 41.703125 44.40625 
Q 38.921875 48.1875 33.109375 48.1875 
Q 26.21875 48.1875 22.15625 43.53125 
Q 18.109375 38.875 18.109375 30.90625 
L 18.109375 0 
L 9.078125 0 
L 9.078125 54.6875 
L 18.109375 54.6875 
L 18.109375 46.1875 
Q 21.1875 51.21875 25.484375 53.609375 
Q 29.78125 56 35.6875 56 
Q 41.65625 56 45.828125 52.96875 
Q 50 49.953125 52 44.1875 
z
" id="DejaVuSans-6d"/>
      <path d="M 56.203125 29.59375 
L 56.203125 25.203125 
L 14.890625 25.203125 
Q 15.484375 15.921875 20.484375 11.0625 
Q 25.484375 6.203125 34.421875 6.203125 
Q 39.59375 6.203125 44.453125 7.46875 
Q 49.3125 8.734375 54.109375 11.28125 
L 54.109375 2.78125 
Q 49.265625 0.734375 44.1875 -0.34375 
Q 39.109375 -1.421875 33.890625 -1.421875 
Q 20.796875 -1.421875 13.15625 6.1875 
Q 5.515625 13.8125 5.515625 26.8125 
Q 5.515625 40.234375 12.765625 48.109375 
Q 20.015625 56 32.328125 56 
Q 43.359375 56 49.78125 48.890625 
Q 56.203125 41.796875 56.203125 29.59375 
z
M 47.21875 32.234375 
Q 47.125 39.59375 43.09375 43.984375 
Q 39.0625 48.390625 32.421875 48.390625 
Q 24.90625 48.390625 20.390625 44.140625 
Q 15.875 39.890625 15.1875 32.171875 
z
" id="DejaVuSans-65"/>
      <path id="DejaVuSans-20"/>
      <path d="M 18.3125 70.21875 
L 18.3125 54.6875 
L 36.8125 54.6875 
L 36.8125 47.703125 
L 18.3125 47.703125 
L 18.3125 18.015625 
Q 18.3125 11.328125 20.140625 9.421875 
Q 21.96875 7.515625 27.59375 7.515625 
L 36.8125 7.515625 
L 36.8125 0 
L 27.59375 0 
Q 17.1875 0 13.234375 3.875 
Q 9.28125 7.765625 9.28125 18.015625 
L 9.28125 47.703125 
L 2.6875 47.703125 
L 2.6875 54.6875 
L 9.28125 54.6875 
L 9.28125 70.21875 
z
" id="DejaVuSans-74"/>
      <path d="M 48.78125 52.59375 
L 48.78125 44.1875 
Q 44.96875 46.296875 41.140625 47.34375 
Q 37.3125 48.390625 33.40625 48.390625 
Q 24.65625 48.390625 19.8125 42.84375 
Q 14.984375 37.3125 14.984375 27.296875 
Q 14.984375 17.28125 19.8125 11.734375 
Q 24.65625 6.203125 33.40625 6.203125 
Q 37.3125 6.203125 41.140625 7.25 
Q 44.96875 8.296875 48.78125 10.40625 
L 48.78125 2.09375 
Q 45.015625 0.34375 40.984375 -0.53125 
Q 36.96875 -1.421875 32.421875 -1.421875 
Q 20.0625 -1.421875 12.78125 6.34375 
Q 5.515625 14.109375 5.515625 27.296875 
Q 5.515625 40.671875 12.859375 48.328125 
Q 20.21875 56 33.015625 56 
Q 37.15625 56 41.109375 55.140625 
Q 45.0625 54.296875 48.78125 52.59375 
z
" id="DejaVuSans-63"/>
      <path d="M 34.28125 27.484375 
Q 23.390625 27.484375 19.1875 25 
Q 14.984375 22.515625 14.984375 16.5 
Q 14.984375 11.71875 18.140625 8.90625 
Q 21.296875 6.109375 26.703125 6.109375 
Q 34.1875 6.109375 38.703125 11.40625 
Q 43.21875 16.703125 43.21875 25.484375 
L 43.21875 27.484375 
z
M 52.203125 31.203125 
L 52.203125 0 
L 43.21875 0 
L 43.21875 8.296875 
Q 40.140625 3.328125 35.546875 0.953125 
Q 30.953125 -1.421875 24.3125 -1.421875 
Q 15.921875 -1.421875 10.953125 3.296875 
Q 6 8.015625 6 15.921875 
Q 6 25.140625 12.171875 29.828125 
Q 18.359375 34.515625 30.609375 34.515625 
L 43.21875 34.515625 
L 43.21875 35.40625 
Q 43.21875 41.609375 39.140625 45 
Q 35.0625 48.390625 27.6875 48.390625 
Q 23 48.390625 18.546875 47.265625 
Q 14.109375 46.140625 10.015625 43.890625 
L 10.015625 52.203125 
Q 14.9375 54.109375 19.578125 55.046875 
Q 24.21875 56 28.609375 56 
Q 40.484375 56 46.34375 49.84375 
Q 52.203125 43.703125 52.203125 31.203125 
z
" id="DejaVuSans-61"/>
      <path d="M 41.109375 46.296875 
Q 39.59375 47.171875 37.8125 47.578125 
Q 36.03125 48 33.890625 48 
Q 26.265625 48 22.1875 43.046875 
Q 18.109375 38.09375 18.109375 28.8125 
L 18.109375 0 
L 9.078125 0 
L 9.078125 54.6875 
L 18.109375 54.6875 
L 18.109375 46.1875 
Q 20.953125 51.171875 25.484375 53.578125 
Q 30.03125 56 36.53125 56 
Q 37.453125 56 38.578125 55.875 
Q 39.703125 55.765625 41.0625 55.515625 
z
" id="DejaVuSans-72"/>
     </defs>
     <g style="fill:#262626;" transform="translate(18.3245 271.628167)rotate(-90)scale(0.096 -0.096)">
      <use xlink:href="#DejaVuSans-54"/>
      <use x="61.037109" xlink:href="#DejaVuSans-69"/>
      <use x="88.820312" xlink:href="#DejaVuSans-6d"/>
      <use x="186.232422" xlink:href="#DejaVuSans-65"/>
      <use x="247.755859" xlink:href="#DejaVuSans-20"/>
      <use x="279.542969" xlink:href="#DejaVuSans-74"/>
      <use x="318.751953" xlink:href="#DejaVuSans-6f"/>
      <use x="379.933594" xlink:href="#DejaVuSans-20"/>
      <use x="411.720703" xlink:href="#DejaVuSans-63"/>
      <use x="466.701172" xlink:href="#DejaVuSans-61"/>
      <use x="527.980469" xlink:href="#DejaVuSans-6e"/>
      <use x="591.359375" xlink:href="#DejaVuSans-63"/>
      <use x="646.339844" xlink:href="#DejaVuSans-65"/>
      <use x="707.863281" xlink:href="#DejaVuSans-72"/>
     </g>
    </g>
   </g>
   <g id="PathCollection_1">
    <defs>
     <path d="M 0 2.4 
C 0.636487 2.4 1.246992 2.147121 1.697056 1.697056 
C 2.147121 1.246992 2.4 0.636487 2.4 0 
C 2.4 -0.636487 2.147121 -1.246992 1.697056 -1.697056 
C 1.246992 -2.147121 0.636487 -2.4 0 -2.4 
C -0.636487 -2.4 -1.246992 -2.147121 -1.697056 -1.697056 
C -2.147121 -1.246992 -2.4 -0.636487 -2.4 0 
C -2.4 0.636487 -2.147121 1.246992 -1.697056 1.697056 
C -1.246992 2.147121 -0.636487 2.4 0 2.4 
z
" id="m7aaf32ae2a" style="stroke:#471365;stroke-opacity:0.8;"/>
    </defs>
    <g clip-path="url(#p00075fff18)">
     <use style="fill:#471365;fill-opacity:0.8;stroke:#471365;stroke-opacity:0.8;" x="222.163887" xlink:href="#m7aaf32ae2a" y="146.097563"/>
     <use style="fill:#471365;fill-opacity:0.8;stroke:#471365;stroke-opacity:0.8;" x="262.838981" xlink:href="#m7aaf32ae2a" y="211.903656"/>
     <use style="fill:#471365;fill-opacity:0.8;stroke:#471365;stroke-opacity:0.8;" x="272.179319" xlink:href="#m7aaf32ae2a" y="207.905369"/>
     <use style="fill:#471365;fill-opacity:0.8;stroke:#471365;stroke-opacity:0.8;" x="244.929655" xlink:href="#m7aaf32ae2a" y="218.174571"/>
     <use style="fill:#471365;fill-opacity:0.8;stroke:#471365;stroke-opacity:0.8;" x="248.307634" xlink:href="#m7aaf32ae2a" y="157.067813"/>
     <use style="fill:#471365;fill-opacity:0.8;stroke:#471365;stroke-opacity:0.8;" x="263.418632" xlink:href="#m7aaf32ae2a" y="141.829642"/>
     <use style="fill:#471365;fill-opacity:0.8;stroke:#471365;stroke-opacity:0.8;" x="262.506034" xlink:href="#m7aaf32ae2a" y="176.057747"/>
     <use style="fill:#471365;fill-opacity:0.8;stroke:#471365;stroke-opacity:0.8;" x="210.542711" xlink:href="#m7aaf32ae2a" y="138.370624"/>
     <use style="fill:#471365;fill-opacity:0.8;stroke:#471365;stroke-opacity:0.8;" x="272.51547" xlink:href="#m7aaf32ae2a" y="171.928496"/>
     <use style="fill:#471365;fill-opacity:0.8;stroke:#471365;stroke-opacity:0.8;" x="159.083359" xlink:href="#m7aaf32ae2a" y="119.96618"/>
     <use style="fill:#471365;fill-opacity:0.8;stroke:#471365;stroke-opacity:0.8;" x="252.150123" xlink:href="#m7aaf32ae2a" y="205.910078"/>
     <use style="fill:#471365;fill-opacity:0.8;stroke:#471365;stroke-opacity:0.8;" x="162.607053" xlink:href="#m7aaf32ae2a" y="178.33808"/>
     <use style="fill:#471365;fill-opacity:0.8;stroke:#471365;stroke-opacity:0.8;" x="212.277793" xlink:href="#m7aaf32ae2a" y="148.601307"/>
     <use style="fill:#471365;fill-opacity:0.8;stroke:#471365;stroke-opacity:0.8;" x="268.82244" xlink:href="#m7aaf32ae2a" y="169.987131"/>
     <use style="fill:#471365;fill-opacity:0.8;stroke:#471365;stroke-opacity:0.8;" x="240.523019" xlink:href="#m7aaf32ae2a" y="155.611789"/>
     <use style="fill:#471365;fill-opacity:0.8;stroke:#471365;stroke-opacity:0.8;" x="246.069949" xlink:href="#m7aaf32ae2a" y="129.2647"/>
     <use style="fill:#471365;fill-opacity:0.8;stroke:#471365;stroke-opacity:0.8;" x="188.159923" xlink:href="#m7aaf32ae2a" y="172.113387"/>
     <use style="fill:#471365;fill-opacity:0.8;stroke:#471365;stroke-opacity:0.8;" x="191.820568" xlink:href="#m7aaf32ae2a" y="140.897479"/>
     <use style="fill:#471365;fill-opacity:0.8;stroke:#471365;stroke-opacity:0.8;" x="263.125808" xlink:href="#m7aaf32ae2a" y="206.279862"/>
     <use style="fill:#471365;fill-opacity:0.8;stroke:#471365;stroke-opacity:0.8;" x="269.677258" xlink:href="#m7aaf32ae2a" y="211.264238"/>
     <use style="fill:#471365;fill-opacity:0.8;stroke:#471365;stroke-opacity:0.8;" x="270.41843" xlink:href="#m7aaf32ae2a" y="165.626765"/>
     <use style="fill:#471365;fill-opacity:0.8;stroke:#471365;stroke-opacity:0.8;" x="235.579217" xlink:href="#m7aaf32ae2a" y="126.021389"/>
     <use style="fill:#471365;fill-opacity:0.8;stroke:#471365;stroke-opacity:0.8;" x="154.440492" xlink:href="#m7aaf32ae2a" y="189.793671"/>
     <use style="fill:#471365;fill-opacity:0.8;stroke:#471365;stroke-opacity:0.8;" x="273.069211" xlink:href="#m7aaf32ae2a" y="191.326733"/>
     <use style="fill:#471365;fill-opacity:0.8;stroke:#471365;stroke-opacity:0.8;" x="163.466155" xlink:href="#m7aaf32ae2a" y="118.895348"/>
     <use style="fill:#471365;fill-opacity:0.8;stroke:#471365;stroke-opacity:0.8;" x="273.933226" xlink:href="#m7aaf32ae2a" y="157.345151"/>
     <use style="fill:#471365;fill-opacity:0.8;stroke:#471365;stroke-opacity:0.8;" x="183.216468" xlink:href="#m7aaf32ae2a" y="190.55635"/>
     <use style="fill:#471365;fill-opacity:0.8;stroke:#471365;stroke-opacity:0.8;" x="255.852999" xlink:href="#m7aaf32ae2a" y="141.128594"/>
     <use style="fill:#471365;fill-opacity:0.8;stroke:#471365;stroke-opacity:0.8;" x="241.237186" xlink:href="#m7aaf32ae2a" y="173.892972"/>
     <use style="fill:#471365;fill-opacity:0.8;stroke:#471365;stroke-opacity:0.8;" x="270.313072" xlink:href="#m7aaf32ae2a" y="145.643037"/>
     <use style="fill:#471365;fill-opacity:0.8;stroke:#471365;stroke-opacity:0.8;" x="220.728077" xlink:href="#m7aaf32ae2a" y="206.056451"/>
     <use style="fill:#471365;fill-opacity:0.8;stroke:#471365;stroke-opacity:0.8;" x="206.57276" xlink:href="#m7aaf32ae2a" y="207.612624"/>
     <use style="fill:#471365;fill-opacity:0.8;stroke:#471365;stroke-opacity:0.8;" x="266.832172" xlink:href="#m7aaf32ae2a" y="166.21996"/>
     <use style="fill:#471365;fill-opacity:0.8;stroke:#471365;stroke-opacity:0.8;" x="270.503872" xlink:href="#m7aaf32ae2a" y="112.84014"/>
     <use style="fill:#471365;fill-opacity:0.8;stroke:#471365;stroke-opacity:0.8;" x="212.235773" xlink:href="#m7aaf32ae2a" y="167.313903"/>
     <use style="fill:#471365;fill-opacity:0.8;stroke:#471365;stroke-opacity:0.8;" x="208.556098" xlink:href="#m7aaf32ae2a" y="137.869875"/>
     <use style="fill:#471365;fill-opacity:0.8;stroke:#471365;stroke-opacity:0.8;" x="174.100919" xlink:href="#m7aaf32ae2a" y="143.925083"/>
     <use style="fill:#471365;fill-opacity:0.8;stroke:#471365;stroke-opacity:0.8;" x="257.677584" xlink:href="#m7aaf32ae2a" y="150.796897"/>
     <use style="fill:#471365;fill-opacity:0.8;stroke:#471365;stroke-opacity:0.8;" x="236.470893" xlink:href="#m7aaf32ae2a" y="134.988644"/>
     <use style="fill:#471365;fill-opacity:0.8;stroke:#471365;stroke-opacity:0.8;" x="238.337781" xlink:href="#m7aaf32ae2a" y="123.471422"/>
     <use style="fill:#471365;fill-opacity:0.8;stroke:#471365;stroke-opacity:0.8;" x="200.077629" xlink:href="#m7aaf32ae2a" y="182.675335"/>
     <use style="fill:#471365;fill-opacity:0.8;stroke:#471365;stroke-opacity:0.8;" x="249.939509" xlink:href="#m7aaf32ae2a" y="184.069727"/>
     <use style="fill:#471365;fill-opacity:0.8;stroke:#471365;stroke-opacity:0.8;" x="253.171996" xlink:href="#m7aaf32ae2a" y="168.77763"/>
     <use style="fill:#471365;fill-opacity:0.8;stroke:#471365;stroke-opacity:0.8;" x="268.908898" xlink:href="#m7aaf32ae2a" y="178.784902"/>
     <use style="fill:#471365;fill-opacity:0.8;stroke:#471365;stroke-opacity:0.8;" x="271.273195" xlink:href="#m7aaf32ae2a" y="203.545003"/>
     <use style="fill:#471365;fill-opacity:0.8;stroke:#471365;stroke-opacity:0.8;" x="197.533732" xlink:href="#m7aaf32ae2a" y="169.794535"/>
     <use style="fill:#471365;fill-opacity:0.8;stroke:#471365;stroke-opacity:0.8;" x="274.030251" xlink:href="#m7aaf32ae2a" y="178.083854"/>
     <use style="fill:#471365;fill-opacity:0.8;stroke:#471365;stroke-opacity:0.8;" x="253.885648" xlink:href="#m7aaf32ae2a" y="194.015369"/>
     <use style="fill:#471365;fill-opacity:0.8;stroke:#471365;stroke-opacity:0.8;" x="271.504788" xlink:href="#m7aaf32ae2a" y="183.838613"/>
     <use style="fill:#471365;fill-opacity:0.8;stroke:#471365;stroke-opacity:0.8;" x="127.656082" xlink:href="#m7aaf32ae2a" y="179.462839"/>
     <use style="fill:#471365;fill-opacity:0.8;stroke:#471365;stroke-opacity:0.8;" x="261.407588" xlink:href="#m7aaf32ae2a" y="153.80139"/>
     <use style="fill:#471365;fill-opacity:0.8;stroke:#471365;stroke-opacity:0.8;" x="254.766419" xlink:href="#m7aaf32ae2a" y="228.374438"/>
    </g>
   </g>
   <g id="PolyCollection_1">
    <defs>
     <path d="M 63.183924 -325.755094 
L 63.183924 -254.44466 
L 65.964919 -254.583269 
L 68.745914 -254.776661 
L 71.526909 -255.030803 
L 74.307903 -255.284944 
L 77.088898 -255.381356 
L 79.869893 -255.422784 
L 82.650888 -255.448346 
L 85.431883 -255.570325 
L 88.212877 -255.715928 
L 90.993872 -255.862081 
L 93.774867 -256.015048 
L 96.555862 -256.176036 
L 99.336857 -256.337025 
L 102.117851 -256.498014 
L 104.898846 -256.659003 
L 107.679841 -256.819992 
L 110.460836 -256.98098 
L 113.241831 -257.141969 
L 116.022825 -257.302958 
L 118.80382 -257.463947 
L 121.584815 -257.624936 
L 124.36581 -257.785924 
L 127.146805 -257.946913 
L 129.927799 -258.107902 
L 132.708794 -258.27042 
L 135.489789 -258.43006 
L 138.270784 -258.590868 
L 141.051779 -258.751857 
L 143.832773 -258.809323 
L 146.613768 -258.777481 
L 149.394763 -258.872266 
L 152.175758 -258.874602 
L 154.956753 -258.936659 
L 157.737747 -259.109222 
L 160.518742 -259.212321 
L 163.299737 -258.975118 
L 166.080732 -259.111439 
L 168.861727 -259.272055 
L 171.642721 -259.317252 
L 174.423716 -259.410791 
L 177.204711 -259.411923 
L 179.985706 -259.315623 
L 182.7667 -259.239115 
L 185.547695 -259.058006 
L 188.32869 -258.920054 
L 191.109685 -258.783213 
L 193.89068 -258.644523 
L 196.671674 -258.625136 
L 199.452669 -258.549346 
L 202.233664 -258.322473 
L 205.014659 -258.284262 
L 207.795654 -258.154487 
L 210.576648 -258.13128 
L 213.357643 -257.896593 
L 216.138638 -257.722435 
L 218.919633 -257.497738 
L 221.700628 -257.25559 
L 224.481622 -257.007517 
L 227.262617 -256.800847 
L 230.043612 -256.446041 
L 232.824607 -256.187812 
L 235.605602 -255.830479 
L 238.386596 -255.377762 
L 241.167591 -254.919231 
L 243.948586 -254.352155 
L 246.729581 -253.890474 
L 249.510576 -253.249882 
L 252.29157 -252.774845 
L 255.072565 -252.107569 
L 257.85356 -251.30497 
L 260.634555 -250.437343 
L 263.41555 -249.657695 
L 266.196544 -249.114985 
L 268.977539 -248.404516 
L 271.758534 -247.670634 
L 274.539529 -246.888742 
L 277.320524 -246.130791 
L 280.101518 -245.235261 
L 282.882513 -244.33491 
L 285.663508 -243.500603 
L 288.444503 -242.721783 
L 291.225498 -241.862291 
L 294.006492 -240.997588 
L 296.787487 -240.131528 
L 299.568482 -239.196674 
L 302.349477 -238.139306 
L 305.130472 -237.137974 
L 307.911466 -236.14272 
L 310.692461 -235.125554 
L 313.473456 -234.197653 
L 316.254451 -233.132741 
L 319.035446 -232.337831 
L 321.81644 -231.615449 
L 324.597435 -230.70982 
L 327.37843 -229.793334 
L 330.159425 -228.782213 
L 332.940419 -227.888625 
L 335.721414 -226.899715 
L 338.502409 -225.912876 
L 338.502409 -270.186716 
L 338.502409 -270.186716 
L 335.721414 -270.077691 
L 332.940419 -269.969808 
L 330.159425 -269.861926 
L 327.37843 -269.770005 
L 324.597435 -269.646161 
L 321.81644 -269.546844 
L 319.035446 -269.517323 
L 316.254451 -269.45398 
L 313.473456 -269.336647 
L 310.692461 -269.243464 
L 307.911466 -269.151213 
L 305.130472 -269.058963 
L 302.349477 -268.976263 
L 299.568482 -268.97324 
L 296.787487 -268.905416 
L 294.006492 -268.883122 
L 291.225498 -268.855042 
L 288.444503 -268.879751 
L 285.663508 -268.805387 
L 282.882513 -268.763404 
L 280.101518 -268.822298 
L 277.320524 -268.804151 
L 274.539529 -268.841148 
L 271.758534 -268.867301 
L 268.977539 -269.05587 
L 266.196544 -269.116067 
L 263.41555 -269.139335 
L 260.634555 -269.147585 
L 257.85356 -269.290377 
L 255.072565 -269.352295 
L 252.29157 -269.410997 
L 249.510576 -269.680628 
L 246.729581 -269.826867 
L 243.948586 -270.130392 
L 241.167591 -270.490801 
L 238.386596 -270.498229 
L 235.605602 -270.987431 
L 232.824607 -271.406174 
L 230.043612 -271.834288 
L 227.262617 -272.221331 
L 224.481622 -272.757268 
L 221.700628 -273.35893 
L 218.919633 -273.927694 
L 216.138638 -274.582439 
L 213.357643 -275.140496 
L 210.576648 -275.880073 
L 207.795654 -276.626832 
L 205.014659 -277.545765 
L 202.233664 -278.412772 
L 199.452669 -279.133335 
L 196.671674 -280.038072 
L 193.89068 -280.718044 
L 191.109685 -281.382371 
L 188.32869 -282.558331 
L 185.547695 -283.520801 
L 182.7667 -284.305424 
L 179.985706 -285.153535 
L 177.204711 -286.187117 
L 174.423716 -287.112125 
L 171.642721 -288.044362 
L 168.861727 -289.008684 
L 166.080732 -289.969997 
L 163.299737 -290.845277 
L 160.518742 -291.731519 
L 157.737747 -292.702414 
L 154.956753 -293.676686 
L 152.175758 -294.648509 
L 149.394763 -295.621247 
L 146.613768 -296.593485 
L 143.832773 -297.565723 
L 141.051779 -298.537852 
L 138.270784 -299.508857 
L 135.489789 -300.501742 
L 132.708794 -301.524896 
L 129.927799 -302.426912 
L 127.146805 -303.39915 
L 124.36581 -304.371388 
L 121.584815 -305.343626 
L 118.80382 -306.341827 
L 116.022825 -307.316014 
L 113.241831 -308.281037 
L 110.460836 -309.24606 
L 107.679841 -310.209765 
L 104.898846 -311.169529 
L 102.117851 -312.13337 
L 99.336857 -313.097211 
L 96.555862 -314.061051 
L 93.774867 -315.024892 
L 90.993872 -315.988733 
L 88.212877 -316.952573 
L 85.431883 -317.916414 
L 82.650888 -318.880255 
L 79.869893 -319.844096 
L 77.088898 -320.807936 
L 74.307903 -321.771777 
L 71.526909 -322.735618 
L 68.745914 -323.720815 
L 65.964919 -324.737955 
L 63.183924 -325.755094 
z
" id="me8b0c2bf9b" style="stroke:#ffffff;stroke-opacity:0.15;stroke-width:0.8;"/>
    </defs>
    <g clip-path="url(#p00075fff18)">
     <use style="fill:#471365;fill-opacity:0.15;stroke:#ffffff;stroke-opacity:0.15;stroke-width:0.8;" x="0" xlink:href="#me8b0c2bf9b" y="432"/>
    </g>
   </g>
   <g id="line2d_15">
    <path clip-path="url(#p00075fff18)" d="M 63.183924 143.990306 
L 65.964919 144.388059 
L 68.745914 144.785811 
L 71.526909 145.183564 
L 74.307903 145.581316 
L 77.088898 145.979069 
L 79.869893 146.376821 
L 82.650888 146.774573 
L 85.431883 147.172326 
L 88.212877 147.570078 
L 90.993872 147.967831 
L 93.774867 148.365583 
L 96.555862 148.763336 
L 99.336857 149.161088 
L 102.117851 149.558841 
L 104.898846 149.956593 
L 107.679841 150.354346 
L 110.460836 150.752098 
L 113.241831 151.149851 
L 116.022825 151.547603 
L 118.80382 151.945356 
L 121.584815 152.343108 
L 124.36581 152.740861 
L 127.146805 153.138613 
L 129.927799 153.536365 
L 132.708794 153.934118 
L 135.489789 154.33187 
L 138.270784 154.729623 
L 141.051779 155.127375 
L 143.832773 155.525128 
L 146.613768 155.92288 
L 149.394763 156.320633 
L 152.175758 156.718385 
L 154.956753 157.116138 
L 157.737747 157.51389 
L 160.518742 157.911643 
L 163.299737 158.309395 
L 166.080732 158.707148 
L 168.861727 159.1049 
L 171.642721 159.502652 
L 174.423716 159.900405 
L 177.204711 160.298157 
L 179.985706 160.69591 
L 182.7667 161.093662 
L 185.547695 161.491415 
L 188.32869 161.889167 
L 191.109685 162.28692 
L 193.89068 162.684672 
L 196.671674 163.082425 
L 199.452669 163.480177 
L 202.233664 163.87793 
L 205.014659 164.275682 
L 207.795654 164.673435 
L 210.576648 165.071187 
L 213.357643 165.46894 
L 216.138638 165.866692 
L 218.919633 166.264444 
L 221.700628 166.662197 
L 224.481622 167.059949 
L 227.262617 167.457702 
L 230.043612 167.855454 
L 232.824607 168.253207 
L 235.605602 168.650959 
L 238.386596 169.048712 
L 241.167591 169.446464 
L 243.948586 169.844217 
L 246.729581 170.241969 
L 249.510576 170.639722 
L 252.29157 171.037474 
L 255.072565 171.435227 
L 257.85356 171.832979 
L 260.634555 172.230732 
L 263.41555 172.628484 
L 266.196544 173.026236 
L 268.977539 173.423989 
L 271.758534 173.821741 
L 274.539529 174.219494 
L 277.320524 174.617246 
L 280.101518 175.014999 
L 282.882513 175.412751 
L 285.663508 175.810504 
L 288.444503 176.208256 
L 291.225498 176.606009 
L 294.006492 177.003761 
L 296.787487 177.401514 
L 299.568482 177.799266 
L 302.349477 178.197019 
L 305.130472 178.594771 
L 307.911466 178.992523 
L 310.692461 179.390276 
L 313.473456 179.788028 
L 316.254451 180.185781 
L 319.035446 180.583533 
L 321.81644 180.981286 
L 324.597435 181.379038 
L 327.37843 181.776791 
L 330.159425 182.174543 
L 332.940419 182.572296 
L 335.721414 182.970048 
L 338.502409 183.367801 
" style="fill:none;stroke:#471365;stroke-linecap:round;stroke-width:1.8;"/>
   </g>
   <g id="patch_3">
    <path d="M 49.418 390.332 
L 49.418 81.023333 
" style="fill:none;stroke:#262626;stroke-linecap:square;stroke-linejoin:miter;"/>
   </g>
   <g id="patch_4">
    <path d="M 49.418 390.332 
L 352.268333 390.332 
" style="fill:none;stroke:#262626;stroke-linecap:square;stroke-linejoin:miter;"/>
   </g>
   <g id="legend_1">
    <g id="patch_5">
     <path d="M 199.127708 100.980083 
L 346.108333 100.980083 
Q 347.868333 100.980083 347.868333 99.220083 
L 347.868333 87.183333 
Q 347.868333 85.423333 346.108333 85.423333 
L 199.127708 85.423333 
Q 197.367708 85.423333 197.367708 87.183333 
L 197.367708 99.220083 
Q 197.367708 100.980083 199.127708 100.980083 
z
" style="fill:#ffffff;opacity:0.8;stroke:#cccccc;stroke-linejoin:miter;stroke-width:0.8;"/>
    </g>
    <g id="line2d_16"/>
    <g id="line2d_17"/>
    <g id="text_17">
     <!-- pearsonr = -0.19; p = 0.18 -->
     <defs>
      <path d="M 18.109375 8.203125 
L 18.109375 -20.796875 
L 9.078125 -20.796875 
L 9.078125 54.6875 
L 18.109375 54.6875 
L 18.109375 46.390625 
Q 20.953125 51.265625 25.265625 53.625 
Q 29.59375 56 35.59375 56 
Q 45.5625 56 51.78125 48.09375 
Q 58.015625 40.1875 58.015625 27.296875 
Q 58.015625 14.40625 51.78125 6.484375 
Q 45.5625 -1.421875 35.59375 -1.421875 
Q 29.59375 -1.421875 25.265625 0.953125 
Q 20.953125 3.328125 18.109375 8.203125 
z
M 48.6875 27.296875 
Q 48.6875 37.203125 44.609375 42.84375 
Q 40.53125 48.484375 33.40625 48.484375 
Q 26.265625 48.484375 22.1875 42.84375 
Q 18.109375 37.203125 18.109375 27.296875 
Q 18.109375 17.390625 22.1875 11.75 
Q 26.265625 6.109375 33.40625 6.109375 
Q 40.53125 6.109375 44.609375 11.75 
Q 48.6875 17.390625 48.6875 27.296875 
z
" id="DejaVuSans-70"/>
      <path d="M 44.28125 53.078125 
L 44.28125 44.578125 
Q 40.484375 46.53125 36.375 47.5 
Q 32.28125 48.484375 27.875 48.484375 
Q 21.1875 48.484375 17.84375 46.4375 
Q 14.5 44.390625 14.5 40.28125 
Q 14.5 37.15625 16.890625 35.375 
Q 19.28125 33.59375 26.515625 31.984375 
L 29.59375 31.296875 
Q 39.15625 29.25 43.1875 25.515625 
Q 47.21875 21.78125 47.21875 15.09375 
Q 47.21875 7.46875 41.1875 3.015625 
Q 35.15625 -1.421875 24.609375 -1.421875 
Q 20.21875 -1.421875 15.453125 -0.5625 
Q 10.6875 0.296875 5.421875 2 
L 5.421875 11.28125 
Q 10.40625 8.6875 15.234375 7.390625 
Q 20.0625 6.109375 24.8125 6.109375 
Q 31.15625 6.109375 34.5625 8.28125 
Q 37.984375 10.453125 37.984375 14.40625 
Q 37.984375 18.0625 35.515625 20.015625 
Q 33.0625 21.96875 24.703125 23.78125 
L 21.578125 24.515625 
Q 13.234375 26.265625 9.515625 29.90625 
Q 5.8125 33.546875 5.8125 39.890625 
Q 5.8125 47.609375 11.28125 51.796875 
Q 16.75 56 26.8125 56 
Q 31.78125 56 36.171875 55.265625 
Q 40.578125 54.546875 44.28125 53.078125 
z
" id="DejaVuSans-73"/>
      <path d="M 10.59375 45.40625 
L 73.1875 45.40625 
L 73.1875 37.203125 
L 10.59375 37.203125 
z
M 10.59375 25.484375 
L 73.1875 25.484375 
L 73.1875 17.1875 
L 10.59375 17.1875 
z
" id="DejaVuSans-3d"/>
      <path d="M 4.890625 31.390625 
L 31.203125 31.390625 
L 31.203125 23.390625 
L 4.890625 23.390625 
z
" id="DejaVuSans-2d"/>
      <path d="M 11.71875 51.703125 
L 22.015625 51.703125 
L 22.015625 39.3125 
L 11.71875 39.3125 
z
M 11.71875 12.40625 
L 22.015625 12.40625 
L 22.015625 4 
L 14.015625 -11.625 
L 7.71875 -11.625 
L 11.71875 4 
z
" id="DejaVuSans-3b"/>
     </defs>
     <g style="fill:#262626;" transform="translate(225.527708 95.629958)scale(0.088 -0.088)">
      <use xlink:href="#DejaVuSans-70"/>
      <use x="63.476562" xlink:href="#DejaVuSans-65"/>
      <use x="125" xlink:href="#DejaVuSans-61"/>
      <use x="186.279297" xlink:href="#DejaVuSans-72"/>
      <use x="227.392578" xlink:href="#DejaVuSans-73"/>
      <use x="279.492188" xlink:href="#DejaVuSans-6f"/>
      <use x="340.673828" xlink:href="#DejaVuSans-6e"/>
      <use x="404.052734" xlink:href="#DejaVuSans-72"/>
      <use x="445.166016" xlink:href="#DejaVuSans-20"/>
      <use x="476.953125" xlink:href="#DejaVuSans-3d"/>
      <use x="560.742188" xlink:href="#DejaVuSans-20"/>
      <use x="592.529297" xlink:href="#DejaVuSans-2d"/>
      <use x="628.613281" xlink:href="#DejaVuSans-30"/>
      <use x="692.236328" xlink:href="#DejaVuSans-2e"/>
      <use x="724.023438" xlink:href="#DejaVuSans-31"/>
      <use x="787.646484" xlink:href="#DejaVuSans-39"/>
      <use x="851.269531" xlink:href="#DejaVuSans-3b"/>
      <use x="884.960938" xlink:href="#DejaVuSans-20"/>
      <use x="916.748047" xlink:href="#DejaVuSans-70"/>
      <use x="980.224609" xlink:href="#DejaVuSans-20"/>
      <use x="1012.011719" xlink:href="#DejaVuSans-3d"/>
      <use x="1095.800781" xlink:href="#DejaVuSans-20"/>
      <use x="1127.587891" xlink:href="#DejaVuSans-30"/>
      <use x="1191.210938" xlink:href="#DejaVuSans-2e"/>
      <use x="1222.998047" xlink:href="#DejaVuSans-31"/>
      <use x="1286.621094" xlink:href="#DejaVuSans-38"/>
     </g>
    </g>
   </g>
  </g>
  <g id="axes_2">
   <g id="patch_6">
    <path d="M 49.418 61.055333 
L 352.268333 61.055333 
L 352.268333 15.168 
L 49.418 15.168 
z
" style="fill:#ffffff;"/>
   </g>
   <g id="matplotlib.axis_3">
    <g id="xtick_9">
     <g id="line2d_18">
      <g>
       <use style="fill:#262626;stroke:#262626;" x="81.669545" xlink:href="#m3b8b8686ee" y="61.055333"/>
      </g>
     </g>
    </g>
    <g id="xtick_10">
     <g id="line2d_19">
      <g>
       <use style="fill:#262626;stroke:#262626;" x="117.343503" xlink:href="#m3b8b8686ee" y="61.055333"/>
      </g>
     </g>
    </g>
    <g id="xtick_11">
     <g id="line2d_20">
      <g>
       <use style="fill:#262626;stroke:#262626;" x="153.01746" xlink:href="#m3b8b8686ee" y="61.055333"/>
      </g>
     </g>
    </g>
    <g id="xtick_12">
     <g id="line2d_21">
      <g>
       <use style="fill:#262626;stroke:#262626;" x="188.691418" xlink:href="#m3b8b8686ee" y="61.055333"/>
      </g>
     </g>
    </g>
    <g id="xtick_13">
     <g id="line2d_22">
      <g>
       <use style="fill:#262626;stroke:#262626;" x="224.365376" xlink:href="#m3b8b8686ee" y="61.055333"/>
      </g>
     </g>
    </g>
    <g id="xtick_14">
     <g id="line2d_23">
      <g>
       <use style="fill:#262626;stroke:#262626;" x="260.039333" xlink:href="#m3b8b8686ee" y="61.055333"/>
      </g>
     </g>
    </g>
    <g id="xtick_15">
     <g id="line2d_24">
      <g>
       <use style="fill:#262626;stroke:#262626;" x="295.713291" xlink:href="#m3b8b8686ee" y="61.055333"/>
      </g>
     </g>
    </g>
    <g id="xtick_16">
     <g id="line2d_25">
      <g>
       <use style="fill:#262626;stroke:#262626;" x="331.387248" xlink:href="#m3b8b8686ee" y="61.055333"/>
      </g>
     </g>
    </g>
   </g>
   <g id="matplotlib.axis_4">
    <g id="ytick_7"/>
    <g id="ytick_8"/>
   </g>
   <g id="patch_7">
    <path clip-path="url(#p4ac0654da9)" d="M 127.656082 61.055333 
L 156.930916 61.055333 
L 156.930916 58.041387 
L 127.656082 58.041387 
z
" style="fill:#471365;opacity:0.4;stroke:#ffffff;stroke-linejoin:miter;stroke-width:0.8;"/>
   </g>
   <g id="patch_8">
    <path clip-path="url(#p4ac0654da9)" d="M 156.930916 61.055333 
L 186.20575 61.055333 
L 186.20575 53.520467 
L 156.930916 53.520467 
z
" style="fill:#471365;opacity:0.4;stroke:#ffffff;stroke-linejoin:miter;stroke-width:0.8;"/>
   </g>
   <g id="patch_9">
    <path clip-path="url(#p4ac0654da9)" d="M 186.20575 61.055333 
L 215.480584 61.055333 
L 215.480584 47.492575 
L 186.20575 47.492575 
z
" style="fill:#471365;opacity:0.4;stroke:#ffffff;stroke-linejoin:miter;stroke-width:0.8;"/>
   </g>
   <g id="patch_10">
    <path clip-path="url(#p4ac0654da9)" d="M 215.480584 61.055333 
L 244.755417 61.055333 
L 244.755417 50.506521 
L 215.480584 50.506521 
z
" style="fill:#471365;opacity:0.4;stroke:#ffffff;stroke-linejoin:miter;stroke-width:0.8;"/>
   </g>
   <g id="patch_11">
    <path clip-path="url(#p4ac0654da9)" d="M 244.755417 61.055333 
L 274.030251 61.055333 
L 274.030251 17.353111 
L 244.755417 17.353111 
z
" style="fill:#471365;opacity:0.4;stroke:#ffffff;stroke-linejoin:miter;stroke-width:0.8;"/>
   </g>
   <g id="line2d_26">
    <path clip-path="url(#p4ac0654da9)" d="M 75.698401 61.043083 
L 78.226578 61.036683 
L 80.754755 61.027515 
L 83.282932 61.01468 
L 85.811109 60.997119 
L 88.339286 60.973635 
L 90.867463 60.942943 
L 93.39564 60.903738 
L 95.923818 60.854779 
L 98.451995 60.794991 
L 100.980172 60.723556 
L 103.508349 60.639978 
L 106.036526 60.544113 
L 108.564703 60.436132 
L 111.09288 60.316414 
L 113.621057 60.185383 
L 116.149234 60.043286 
L 118.677411 59.889963 
L 121.205588 59.724651 
L 123.733765 59.545871 
L 126.261943 59.351448 
L 128.79012 59.138685 
L 131.318297 58.90471 
L 133.846474 58.646952 
L 136.374651 58.363686 
L 138.902828 58.054561 
L 141.431005 57.721017 
L 143.959182 57.366481 
L 146.487359 56.996292 
L 149.015536 56.617324 
L 151.543713 56.237328 
L 154.071891 55.864086 
L 156.600068 55.504487 
L 159.128245 55.163662 
L 161.656422 54.844329 
L 164.184599 54.546443 
L 166.712776 54.267216 
L 169.240953 54.001516 
L 171.76913 53.742593 
L 174.297307 53.483018 
L 176.825484 53.215722 
L 179.353661 52.934974 
L 181.881839 52.637178 
L 184.410016 52.321389 
L 186.938193 51.989455 
L 189.46637 51.645792 
L 191.994547 51.296778 
L 194.522724 50.949841 
L 197.050901 50.612318 
L 199.579078 50.290198 
L 202.107255 49.986893 
L 204.635432 49.70217 
L 207.163609 49.431387 
L 209.691786 49.165153 
L 212.219964 48.889497 
L 214.748141 48.586565 
L 217.276318 48.235839 
L 219.804495 47.815768 
L 222.332672 47.305675 
L 224.860849 46.687774 
L 227.389026 45.949091 
L 229.917203 45.083143 
L 232.44538 44.091228 
L 234.973557 42.983253 
L 237.501734 41.778068 
L 240.029912 40.503301 
L 242.558089 39.194737 
L 245.086266 37.89525 
L 247.614443 36.653308 
L 250.14262 35.521057 
L 252.670797 34.551985 
L 255.198974 33.798186 
L 257.727151 33.307325 
L 260.255328 33.119442 
L 262.783505 33.263836 
L 265.311682 33.756347 
L 267.839859 34.597355 
L 270.368037 35.770813 
L 272.896214 37.244538 
L 275.424391 38.971864 
L 277.952568 40.894547 
L 280.480745 42.946698 
L 283.008922 45.059332 
L 285.537099 47.165046 
L 288.065276 49.202338 
L 290.593453 51.119135 
L 293.12163 52.875205 
L 295.649807 54.44333 
L 298.177985 55.809236 
L 300.706162 56.970465 
L 303.234339 57.934461 
L 305.762516 58.71619 
L 308.290693 59.335626 
L 310.81887 59.815364 
L 313.347047 60.178588 
L 315.875224 60.447486 
L 318.403401 60.642159 
L 320.931578 60.780005 
L 323.459755 60.875482 
L 325.987933 60.940176 
" style="fill:none;stroke:#471365;stroke-linecap:round;stroke-width:1.2;"/>
   </g>
   <g id="patch_12">
    <path d="M 49.418 61.055333 
L 352.268333 61.055333 
" style="fill:none;stroke:#262626;stroke-linecap:square;stroke-linejoin:miter;"/>
   </g>
  </g>
  <g id="axes_3">
   <g id="patch_13">
    <path d="M 372.236333 390.332 
L 416.832 390.332 
L 416.832 81.023333 
L 372.236333 81.023333 
z
" style="fill:#ffffff;"/>
   </g>
   <g id="matplotlib.axis_5">
    <g id="xtick_17"/>
    <g id="xtick_18"/>
   </g>
   <g id="matplotlib.axis_6">
    <g id="ytick_9">
     <g id="line2d_27">
      <g>
       <use style="fill:#262626;stroke:#262626;" x="372.236333" xlink:href="#m97f167a6ad" y="390.332"/>
      </g>
     </g>
    </g>
    <g id="ytick_10">
     <g id="line2d_28">
      <g>
       <use style="fill:#262626;stroke:#262626;" x="372.236333" xlink:href="#m97f167a6ad" y="334.094061"/>
      </g>
     </g>
    </g>
    <g id="ytick_11">
     <g id="line2d_29">
      <g>
       <use style="fill:#262626;stroke:#262626;" x="372.236333" xlink:href="#m97f167a6ad" y="277.856121"/>
      </g>
     </g>
    </g>
    <g id="ytick_12">
     <g id="line2d_30">
      <g>
       <use style="fill:#262626;stroke:#262626;" x="372.236333" xlink:href="#m97f167a6ad" y="221.618182"/>
      </g>
     </g>
    </g>
    <g id="ytick_13">
     <g id="line2d_31">
      <g>
       <use style="fill:#262626;stroke:#262626;" x="372.236333" xlink:href="#m97f167a6ad" y="165.380242"/>
      </g>
     </g>
    </g>
    <g id="ytick_14">
     <g id="line2d_32">
      <g>
       <use style="fill:#262626;stroke:#262626;" x="372.236333" xlink:href="#m97f167a6ad" y="109.142303"/>
      </g>
     </g>
    </g>
   </g>
   <g id="patch_14">
    <path clip-path="url(#p180be042bd)" d="M 372.236333 228.374438 
L 399.539803 228.374438 
L 399.539803 205.267579 
L 372.236333 205.267579 
z
" style="fill:#471365;opacity:0.4;stroke:#ffffff;stroke-linejoin:miter;stroke-width:0.8;"/>
   </g>
   <g id="patch_15">
    <path clip-path="url(#p180be042bd)" d="M 372.236333 205.267579 
L 396.506084 205.267579 
L 396.506084 182.160719 
L 372.236333 182.160719 
z
" style="fill:#471365;opacity:0.4;stroke:#ffffff;stroke-linejoin:miter;stroke-width:0.8;"/>
   </g>
   <g id="patch_16">
    <path clip-path="url(#p180be042bd)" d="M 372.236333 182.160719 
L 414.708397 182.160719 
L 414.708397 159.053859 
L 372.236333 159.053859 
z
" style="fill:#471365;opacity:0.4;stroke:#ffffff;stroke-linejoin:miter;stroke-width:0.8;"/>
   </g>
   <g id="patch_17">
    <path clip-path="url(#p180be042bd)" d="M 372.236333 159.053859 
L 414.708397 159.053859 
L 414.708397 135.947 
L 372.236333 135.947 
z
" style="fill:#471365;opacity:0.4;stroke:#ffffff;stroke-linejoin:miter;stroke-width:0.8;"/>
   </g>
   <g id="patch_18">
    <path clip-path="url(#p180be042bd)" d="M 372.236333 135.947 
L 393.472365 135.947 
L 393.472365 112.84014 
L 372.236333 112.84014 
z
" style="fill:#471365;opacity:0.4;stroke:#ffffff;stroke-linejoin:miter;stroke-width:0.8;"/>
   </g>
   <g id="line2d_33">
    <path clip-path="url(#p180be042bd)" d="M 372.264738 267.562867 
L 372.280651 265.604168 
L 372.304124 263.64547 
L 372.338036 261.686771 
L 372.386039 259.728073 
L 372.452646 257.769374 
L 372.543304 255.810676 
L 372.66442 253.851977 
L 372.823363 251.893279 
L 373.028433 249.93458 
L 373.288786 247.975882 
L 373.614337 246.017183 
L 374.015612 244.058485 
L 374.503557 242.099786 
L 375.089241 240.141087 
L 375.783443 238.182389 
L 376.596051 236.22369 
L 377.535254 234.264992 
L 378.606519 232.306293 
L 379.811397 230.347595 
L 381.146286 228.388896 
L 382.601324 226.430198 
L 384.159657 224.471499 
L 385.797336 222.512801 
L 387.484053 220.554102 
L 389.184854 218.595404 
L 390.86278 216.636705 
L 392.482244 214.678006 
L 394.012749 212.719308 
L 395.432436 210.760609 
L 396.730885 208.801911 
L 397.910659 206.843212 
L 398.987202 204.884514 
L 399.986986 202.925815 
L 400.944025 200.967117 
L 401.895181 199.008418 
L 402.874875 197.04972 
L 403.909936 195.091021 
L 405.015293 193.132322 
L 406.191141 191.173624 
L 407.421953 189.214925 
L 408.677498 187.256227 
L 409.915747 185.297528 
L 411.087284 183.33883 
L 412.140698 181.380131 
L 413.028284 179.421433 
L 413.711365 177.462734 
L 414.164591 175.504036 
L 414.378694 173.545337 
L 414.361365 171.586639 
L 414.136137 169.62794 
L 413.739417 167.669241 
L 413.216031 165.710543 
L 412.613849 163.751844 
L 411.978188 161.793146 
L 411.346695 159.834447 
L 410.745392 157.875749 
L 410.186341 155.91705 
L 409.667213 153.958352 
L 409.172722 151.999653 
L 408.677641 150.040955 
L 408.150916 148.082256 
L 407.560203 146.123557 
L 406.876192 144.164859 
L 406.076098 142.20616 
L 405.145917 140.247462 
L 404.081224 138.288763 
L 402.886602 136.330065 
L 401.573948 134.371366 
L 400.160101 132.412668 
L 398.664297 130.453969 
L 397.105904 128.495271 
L 395.502795 126.536572 
L 393.870545 124.577874 
L 392.222431 122.619175 
L 390.570073 120.660476 
L 388.924437 118.701778 
L 387.296861 116.743079 
L 385.699833 114.784381 
L 384.147308 112.825682 
L 382.654496 110.866984 
L 381.237155 108.908285 
L 379.910536 106.949587 
L 378.688195 104.990888 
L 377.580862 103.03219 
L 376.595576 101.073491 
L 375.735198 99.114793 
L 374.998342 97.156094 
L 374.379715 95.197395 
L 373.870778 93.238697 
L 373.460607 91.279998 
L 373.136833 89.3213 
L 372.886554 87.362601 
L 372.697119 85.403903 
L 372.556737 83.445204 
L 372.454891 81.486506 
L 372.382559 79.527807 
L 372.332272 77.569109 
L 372.29805 75.61041 
L 372.275255 73.651711 
" style="fill:none;stroke:#471365;stroke-linecap:round;stroke-width:1.2;"/>
   </g>
   <g id="patch_19">
    <path d="M 372.236333 390.332 
L 372.236333 81.023333 
" style="fill:none;stroke:#262626;stroke-linecap:square;stroke-linejoin:miter;"/>
   </g>
  </g>
 </g>
 <defs>
  <clipPath id="p00075fff18">
   <rect height="309.308667" width="302.850333" x="49.418" y="81.023333"/>
  </clipPath>
  <clipPath id="p4ac0654da9">
   <rect height="45.887333" width="302.850333" x="49.418" y="15.168"/>
  </clipPath>
  <clipPath id="p180be042bd">
   <rect height="309.308667" width="44.595667" x="372.236333" y="81.023333"/>
  </clipPath>
 </defs>
</svg>
