<?xml version="1.0" encoding="utf-8" standalone="no"?>
<!DOCTYPE svg PUBLIC "-//W3C//DTD SVG 1.1//EN"
  "http://www.w3.org/Graphics/SVG/1.1/DTD/svg11.dtd">
<!-- Created with matplotlib (http://matplotlib.org/) -->
<svg height="432pt" version="1.1" viewBox="0 0 432 432" width="432pt" xmlns="http://www.w3.org/2000/svg" xmlns:xlink="http://www.w3.org/1999/xlink">
 <defs>
  <style type="text/css">
*{stroke-linecap:butt;stroke-linejoin:round;}
  </style>
 </defs>
 <g id="figure_1">
  <g id="patch_1">
   <path d="M 0 432 
L 432 432 
L 432 0 
L 0 0 
z
" style="fill:#ffffff;"/>
  </g>
  <g id="axes_1">
   <g id="patch_2">
    <path d="M 49.85 389.9 
L 351.908333 389.9 
L 351.908333 81.383333 
L 49.85 81.383333 
z
" style="fill:#ffffff;"/>
   </g>
   <g id="matplotlib.axis_1">
    <g id="xtick_1">
     <g id="line2d_1">
      <defs>
       <path d="M 0 0 
L 0 4.8 
" id="md9a74f873e" style="stroke:#262626;"/>
      </defs>
      <g>
       <use style="fill:#262626;stroke:#262626;" x="59.211688" xlink:href="#md9a74f873e" y="389.9"/>
      </g>
     </g>
     <g id="text_1">
      <!-- 7 -->
      <defs>
       <path d="M 8.203125 72.90625 
L 55.078125 72.90625 
L 55.078125 68.703125 
L 28.609375 0 
L 18.3125 0 
L 43.21875 64.59375 
L 8.203125 64.59375 
z
" id="DejaVuSans-37"/>
      </defs>
      <g style="fill:#262626;" transform="translate(56.412188 404.886625)scale(0.088 -0.088)">
       <use xlink:href="#DejaVuSans-37"/>
      </g>
     </g>
    </g>
    <g id="xtick_2">
     <g id="line2d_2">
      <g>
       <use style="fill:#262626;stroke:#262626;" x="119.897815" xlink:href="#md9a74f873e" y="389.9"/>
      </g>
     </g>
     <g id="text_2">
      <!-- 8 -->
      <defs>
       <path d="M 31.78125 34.625 
Q 24.75 34.625 20.71875 30.859375 
Q 16.703125 27.09375 16.703125 20.515625 
Q 16.703125 13.921875 20.71875 10.15625 
Q 24.75 6.390625 31.78125 6.390625 
Q 38.8125 6.390625 42.859375 10.171875 
Q 46.921875 13.96875 46.921875 20.515625 
Q 46.921875 27.09375 42.890625 30.859375 
Q 38.875 34.625 31.78125 34.625 
z
M 21.921875 38.8125 
Q 15.578125 40.375 12.03125 44.71875 
Q 8.5 49.078125 8.5 55.328125 
Q 8.5 64.0625 14.71875 69.140625 
Q 20.953125 74.21875 31.78125 74.21875 
Q 42.671875 74.21875 48.875 69.140625 
Q 55.078125 64.0625 55.078125 55.328125 
Q 55.078125 49.078125 51.53125 44.71875 
Q 48 40.375 41.703125 38.8125 
Q 48.828125 37.15625 52.796875 32.3125 
Q 56.78125 27.484375 56.78125 20.515625 
Q 56.78125 9.90625 50.3125 4.234375 
Q 43.84375 -1.421875 31.78125 -1.421875 
Q 19.734375 -1.421875 13.25 4.234375 
Q 6.78125 9.90625 6.78125 20.515625 
Q 6.78125 27.484375 10.78125 32.3125 
Q 14.796875 37.15625 21.921875 38.8125 
z
M 18.3125 54.390625 
Q 18.3125 48.734375 21.84375 45.5625 
Q 25.390625 42.390625 31.78125 42.390625 
Q 38.140625 42.390625 41.71875 45.5625 
Q 45.3125 48.734375 45.3125 54.390625 
Q 45.3125 60.0625 41.71875 63.234375 
Q 38.140625 66.40625 31.78125 66.40625 
Q 25.390625 66.40625 21.84375 63.234375 
Q 18.3125 60.0625 18.3125 54.390625 
z
" id="DejaVuSans-38"/>
      </defs>
      <g style="fill:#262626;" transform="translate(117.098315 404.886625)scale(0.088 -0.088)">
       <use xlink:href="#DejaVuSans-38"/>
      </g>
     </g>
    </g>
    <g id="xtick_3">
     <g id="line2d_3">
      <g>
       <use style="fill:#262626;stroke:#262626;" x="180.583942" xlink:href="#md9a74f873e" y="389.9"/>
      </g>
     </g>
     <g id="text_3">
      <!-- 9 -->
      <defs>
       <path d="M 10.984375 1.515625 
L 10.984375 10.5 
Q 14.703125 8.734375 18.5 7.8125 
Q 22.3125 6.890625 25.984375 6.890625 
Q 35.75 6.890625 40.890625 13.453125 
Q 46.046875 20.015625 46.78125 33.40625 
Q 43.953125 29.203125 39.59375 26.953125 
Q 35.25 24.703125 29.984375 24.703125 
Q 19.046875 24.703125 12.671875 31.3125 
Q 6.296875 37.9375 6.296875 49.421875 
Q 6.296875 60.640625 12.9375 67.421875 
Q 19.578125 74.21875 30.609375 74.21875 
Q 43.265625 74.21875 49.921875 64.515625 
Q 56.59375 54.828125 56.59375 36.375 
Q 56.59375 19.140625 48.40625 8.859375 
Q 40.234375 -1.421875 26.421875 -1.421875 
Q 22.703125 -1.421875 18.890625 -0.6875 
Q 15.09375 0.046875 10.984375 1.515625 
z
M 30.609375 32.421875 
Q 37.25 32.421875 41.125 36.953125 
Q 45.015625 41.5 45.015625 49.421875 
Q 45.015625 57.28125 41.125 61.84375 
Q 37.25 66.40625 30.609375 66.40625 
Q 23.96875 66.40625 20.09375 61.84375 
Q 16.21875 57.28125 16.21875 49.421875 
Q 16.21875 41.5 20.09375 36.953125 
Q 23.96875 32.421875 30.609375 32.421875 
z
" id="DejaVuSans-39"/>
      </defs>
      <g style="fill:#262626;" transform="translate(177.784442 404.886625)scale(0.088 -0.088)">
       <use xlink:href="#DejaVuSans-39"/>
      </g>
     </g>
    </g>
    <g id="xtick_4">
     <g id="line2d_4">
      <g>
       <use style="fill:#262626;stroke:#262626;" x="241.270069" xlink:href="#md9a74f873e" y="389.9"/>
      </g>
     </g>
     <g id="text_4">
      <!-- 10 -->
      <defs>
       <path d="M 12.40625 8.296875 
L 28.515625 8.296875 
L 28.515625 63.921875 
L 10.984375 60.40625 
L 10.984375 69.390625 
L 28.421875 72.90625 
L 38.28125 72.90625 
L 38.28125 8.296875 
L 54.390625 8.296875 
L 54.390625 0 
L 12.40625 0 
z
" id="DejaVuSans-31"/>
       <path d="M 31.78125 66.40625 
Q 24.171875 66.40625 20.328125 58.90625 
Q 16.5 51.421875 16.5 36.375 
Q 16.5 21.390625 20.328125 13.890625 
Q 24.171875 6.390625 31.78125 6.390625 
Q 39.453125 6.390625 43.28125 13.890625 
Q 47.125 21.390625 47.125 36.375 
Q 47.125 51.421875 43.28125 58.90625 
Q 39.453125 66.40625 31.78125 66.40625 
z
M 31.78125 74.21875 
Q 44.046875 74.21875 50.515625 64.515625 
Q 56.984375 54.828125 56.984375 36.375 
Q 56.984375 17.96875 50.515625 8.265625 
Q 44.046875 -1.421875 31.78125 -1.421875 
Q 19.53125 -1.421875 13.0625 8.265625 
Q 6.59375 17.96875 6.59375 36.375 
Q 6.59375 54.828125 13.0625 64.515625 
Q 19.53125 74.21875 31.78125 74.21875 
z
" id="DejaVuSans-30"/>
      </defs>
      <g style="fill:#262626;" transform="translate(235.671069 404.886625)scale(0.088 -0.088)">
       <use xlink:href="#DejaVuSans-31"/>
       <use x="63.623047" xlink:href="#DejaVuSans-30"/>
      </g>
     </g>
    </g>
    <g id="xtick_5">
     <g id="line2d_5">
      <g>
       <use style="fill:#262626;stroke:#262626;" x="301.956196" xlink:href="#md9a74f873e" y="389.9"/>
      </g>
     </g>
     <g id="text_5">
      <!-- 11 -->
      <g style="fill:#262626;" transform="translate(296.357196 404.886625)scale(0.088 -0.088)">
       <use xlink:href="#DejaVuSans-31"/>
       <use x="63.623047" xlink:href="#DejaVuSans-31"/>
      </g>
     </g>
    </g>
    <g id="text_6">
     <!-- log(n) -->
     <defs>
      <path d="M 9.421875 75.984375 
L 18.40625 75.984375 
L 18.40625 0 
L 9.421875 0 
z
" id="DejaVuSans-6c"/>
      <path d="M 30.609375 48.390625 
Q 23.390625 48.390625 19.1875 42.75 
Q 14.984375 37.109375 14.984375 27.296875 
Q 14.984375 17.484375 19.15625 11.84375 
Q 23.34375 6.203125 30.609375 6.203125 
Q 37.796875 6.203125 41.984375 11.859375 
Q 46.1875 17.53125 46.1875 27.296875 
Q 46.1875 37.015625 41.984375 42.703125 
Q 37.796875 48.390625 30.609375 48.390625 
z
M 30.609375 56 
Q 42.328125 56 49.015625 48.375 
Q 55.71875 40.765625 55.71875 27.296875 
Q 55.71875 13.875 49.015625 6.21875 
Q 42.328125 -1.421875 30.609375 -1.421875 
Q 18.84375 -1.421875 12.171875 6.21875 
Q 5.515625 13.875 5.515625 27.296875 
Q 5.515625 40.765625 12.171875 48.375 
Q 18.84375 56 30.609375 56 
z
" id="DejaVuSans-6f"/>
      <path d="M 45.40625 27.984375 
Q 45.40625 37.75 41.375 43.109375 
Q 37.359375 48.484375 30.078125 48.484375 
Q 22.859375 48.484375 18.828125 43.109375 
Q 14.796875 37.75 14.796875 27.984375 
Q 14.796875 18.265625 18.828125 12.890625 
Q 22.859375 7.515625 30.078125 7.515625 
Q 37.359375 7.515625 41.375 12.890625 
Q 45.40625 18.265625 45.40625 27.984375 
z
M 54.390625 6.78125 
Q 54.390625 -7.171875 48.1875 -13.984375 
Q 42 -20.796875 29.203125 -20.796875 
Q 24.46875 -20.796875 20.265625 -20.09375 
Q 16.0625 -19.390625 12.109375 -17.921875 
L 12.109375 -9.1875 
Q 16.0625 -11.328125 19.921875 -12.34375 
Q 23.78125 -13.375 27.78125 -13.375 
Q 36.625 -13.375 41.015625 -8.765625 
Q 45.40625 -4.15625 45.40625 5.171875 
L 45.40625 9.625 
Q 42.625 4.78125 38.28125 2.390625 
Q 33.9375 0 27.875 0 
Q 17.828125 0 11.671875 7.65625 
Q 5.515625 15.328125 5.515625 27.984375 
Q 5.515625 40.671875 11.671875 48.328125 
Q 17.828125 56 27.875 56 
Q 33.9375 56 38.28125 53.609375 
Q 42.625 51.21875 45.40625 46.390625 
L 45.40625 54.6875 
L 54.390625 54.6875 
z
" id="DejaVuSans-67"/>
      <path d="M 31 75.875 
Q 24.46875 64.65625 21.28125 53.65625 
Q 18.109375 42.671875 18.109375 31.390625 
Q 18.109375 20.125 21.3125 9.0625 
Q 24.515625 -2 31 -13.1875 
L 23.1875 -13.1875 
Q 15.875 -1.703125 12.234375 9.375 
Q 8.59375 20.453125 8.59375 31.390625 
Q 8.59375 42.28125 12.203125 53.3125 
Q 15.828125 64.359375 23.1875 75.875 
z
" id="DejaVuSans-28"/>
      <path d="M 54.890625 33.015625 
L 54.890625 0 
L 45.90625 0 
L 45.90625 32.71875 
Q 45.90625 40.484375 42.875 44.328125 
Q 39.84375 48.1875 33.796875 48.1875 
Q 26.515625 48.1875 22.3125 43.546875 
Q 18.109375 38.921875 18.109375 30.90625 
L 18.109375 0 
L 9.078125 0 
L 9.078125 54.6875 
L 18.109375 54.6875 
L 18.109375 46.1875 
Q 21.34375 51.125 25.703125 53.5625 
Q 30.078125 56 35.796875 56 
Q 45.21875 56 50.046875 50.171875 
Q 54.890625 44.34375 54.890625 33.015625 
z
" id="DejaVuSans-6e"/>
      <path d="M 8.015625 75.875 
L 15.828125 75.875 
Q 23.140625 64.359375 26.78125 53.3125 
Q 30.421875 42.28125 30.421875 31.390625 
Q 30.421875 20.453125 26.78125 9.375 
Q 23.140625 -1.703125 15.828125 -13.1875 
L 8.015625 -13.1875 
Q 14.5 -2 17.703125 9.0625 
Q 20.90625 20.125 20.90625 31.390625 
Q 20.90625 42.671875 17.703125 53.65625 
Q 14.5 64.65625 8.015625 75.875 
z
" id="DejaVuSans-29"/>
     </defs>
     <g style="fill:#262626;" transform="translate(186.773917 418.01125)scale(0.096 -0.096)">
      <use xlink:href="#DejaVuSans-6c"/>
      <use x="27.783203" xlink:href="#DejaVuSans-6f"/>
      <use x="88.964844" xlink:href="#DejaVuSans-67"/>
      <use x="152.441406" xlink:href="#DejaVuSans-28"/>
      <use x="191.455078" xlink:href="#DejaVuSans-6e"/>
      <use x="254.833984" xlink:href="#DejaVuSans-29"/>
     </g>
    </g>
   </g>
   <g id="matplotlib.axis_2">
    <g id="ytick_1">
     <g id="line2d_6">
      <defs>
       <path d="M 0 0 
L -4.8 0 
" id="m10d7a20cff" style="stroke:#262626;"/>
      </defs>
      <g>
       <use style="fill:#262626;stroke:#262626;" x="49.85" xlink:href="#m10d7a20cff" y="389.9"/>
      </g>
     </g>
     <g id="text_7">
      <!-- 0 -->
      <g style="fill:#262626;" transform="translate(35.951 393.243313)scale(0.088 -0.088)">
       <use xlink:href="#DejaVuSans-30"/>
      </g>
     </g>
    </g>
    <g id="ytick_2">
     <g id="line2d_7">
      <g>
       <use style="fill:#262626;stroke:#262626;" x="49.85" xlink:href="#m10d7a20cff" y="333.806061"/>
      </g>
     </g>
     <g id="text_8">
      <!-- 20 -->
      <defs>
       <path d="M 19.1875 8.296875 
L 53.609375 8.296875 
L 53.609375 0 
L 7.328125 0 
L 7.328125 8.296875 
Q 12.9375 14.109375 22.625 23.890625 
Q 32.328125 33.6875 34.8125 36.53125 
Q 39.546875 41.84375 41.421875 45.53125 
Q 43.3125 49.21875 43.3125 52.78125 
Q 43.3125 58.59375 39.234375 62.25 
Q 35.15625 65.921875 28.609375 65.921875 
Q 23.96875 65.921875 18.8125 64.3125 
Q 13.671875 62.703125 7.8125 59.421875 
L 7.8125 69.390625 
Q 13.765625 71.78125 18.9375 73 
Q 24.125 74.21875 28.421875 74.21875 
Q 39.75 74.21875 46.484375 68.546875 
Q 53.21875 62.890625 53.21875 53.421875 
Q 53.21875 48.921875 51.53125 44.890625 
Q 49.859375 40.875 45.40625 35.40625 
Q 44.1875 33.984375 37.640625 27.21875 
Q 31.109375 20.453125 19.1875 8.296875 
z
" id="DejaVuSans-32"/>
      </defs>
      <g style="fill:#262626;" transform="translate(30.352 337.149373)scale(0.088 -0.088)">
       <use xlink:href="#DejaVuSans-32"/>
       <use x="63.623047" xlink:href="#DejaVuSans-30"/>
      </g>
     </g>
    </g>
    <g id="ytick_3">
     <g id="line2d_8">
      <g>
       <use style="fill:#262626;stroke:#262626;" x="49.85" xlink:href="#m10d7a20cff" y="277.712121"/>
      </g>
     </g>
     <g id="text_9">
      <!-- 40 -->
      <defs>
       <path d="M 37.796875 64.3125 
L 12.890625 25.390625 
L 37.796875 25.390625 
z
M 35.203125 72.90625 
L 47.609375 72.90625 
L 47.609375 25.390625 
L 58.015625 25.390625 
L 58.015625 17.1875 
L 47.609375 17.1875 
L 47.609375 0 
L 37.796875 0 
L 37.796875 17.1875 
L 4.890625 17.1875 
L 4.890625 26.703125 
z
" id="DejaVuSans-34"/>
      </defs>
      <g style="fill:#262626;" transform="translate(30.352 281.055434)scale(0.088 -0.088)">
       <use xlink:href="#DejaVuSans-34"/>
       <use x="63.623047" xlink:href="#DejaVuSans-30"/>
      </g>
     </g>
    </g>
    <g id="ytick_4">
     <g id="line2d_9">
      <g>
       <use style="fill:#262626;stroke:#262626;" x="49.85" xlink:href="#m10d7a20cff" y="221.618182"/>
      </g>
     </g>
     <g id="text_10">
      <!-- 60 -->
      <defs>
       <path d="M 33.015625 40.375 
Q 26.375 40.375 22.484375 35.828125 
Q 18.609375 31.296875 18.609375 23.390625 
Q 18.609375 15.53125 22.484375 10.953125 
Q 26.375 6.390625 33.015625 6.390625 
Q 39.65625 6.390625 43.53125 10.953125 
Q 47.40625 15.53125 47.40625 23.390625 
Q 47.40625 31.296875 43.53125 35.828125 
Q 39.65625 40.375 33.015625 40.375 
z
M 52.59375 71.296875 
L 52.59375 62.3125 
Q 48.875 64.0625 45.09375 64.984375 
Q 41.3125 65.921875 37.59375 65.921875 
Q 27.828125 65.921875 22.671875 59.328125 
Q 17.53125 52.734375 16.796875 39.40625 
Q 19.671875 43.65625 24.015625 45.921875 
Q 28.375 48.1875 33.59375 48.1875 
Q 44.578125 48.1875 50.953125 41.515625 
Q 57.328125 34.859375 57.328125 23.390625 
Q 57.328125 12.15625 50.6875 5.359375 
Q 44.046875 -1.421875 33.015625 -1.421875 
Q 20.359375 -1.421875 13.671875 8.265625 
Q 6.984375 17.96875 6.984375 36.375 
Q 6.984375 53.65625 15.1875 63.9375 
Q 23.390625 74.21875 37.203125 74.21875 
Q 40.921875 74.21875 44.703125 73.484375 
Q 48.484375 72.75 52.59375 71.296875 
z
" id="DejaVuSans-36"/>
      </defs>
      <g style="fill:#262626;" transform="translate(30.352 224.961494)scale(0.088 -0.088)">
       <use xlink:href="#DejaVuSans-36"/>
       <use x="63.623047" xlink:href="#DejaVuSans-30"/>
      </g>
     </g>
    </g>
    <g id="ytick_5">
     <g id="line2d_10">
      <g>
       <use style="fill:#262626;stroke:#262626;" x="49.85" xlink:href="#m10d7a20cff" y="165.524242"/>
      </g>
     </g>
     <g id="text_11">
      <!-- 80 -->
      <g style="fill:#262626;" transform="translate(30.352 168.867555)scale(0.088 -0.088)">
       <use xlink:href="#DejaVuSans-38"/>
       <use x="63.623047" xlink:href="#DejaVuSans-30"/>
      </g>
     </g>
    </g>
    <g id="ytick_6">
     <g id="line2d_11">
      <g>
       <use style="fill:#262626;stroke:#262626;" x="49.85" xlink:href="#m10d7a20cff" y="109.430303"/>
      </g>
     </g>
     <g id="text_12">
      <!-- 100 -->
      <g style="fill:#262626;" transform="translate(24.753 112.773616)scale(0.088 -0.088)">
       <use xlink:href="#DejaVuSans-31"/>
       <use x="63.623047" xlink:href="#DejaVuSans-30"/>
       <use x="127.246094" xlink:href="#DejaVuSans-30"/>
      </g>
     </g>
    </g>
    <g id="text_13">
     <!-- Time to cancer -->
     <defs>
      <path d="M -0.296875 72.90625 
L 61.375 72.90625 
L 61.375 64.59375 
L 35.5 64.59375 
L 35.5 0 
L 25.59375 0 
L 25.59375 64.59375 
L -0.296875 64.59375 
z
" id="DejaVuSans-54"/>
      <path d="M 9.421875 54.6875 
L 18.40625 54.6875 
L 18.40625 0 
L 9.421875 0 
z
M 9.421875 75.984375 
L 18.40625 75.984375 
L 18.40625 64.59375 
L 9.421875 64.59375 
z
" id="DejaVuSans-69"/>
      <path d="M 52 44.1875 
Q 55.375 50.25 60.0625 53.125 
Q 64.75 56 71.09375 56 
Q 79.640625 56 84.28125 50.015625 
Q 88.921875 44.046875 88.921875 33.015625 
L 88.921875 0 
L 79.890625 0 
L 79.890625 32.71875 
Q 79.890625 40.578125 77.09375 44.375 
Q 74.3125 48.1875 68.609375 48.1875 
Q 61.625 48.1875 57.5625 43.546875 
Q 53.515625 38.921875 53.515625 30.90625 
L 53.515625 0 
L 44.484375 0 
L 44.484375 32.71875 
Q 44.484375 40.625 41.703125 44.40625 
Q 38.921875 48.1875 33.109375 48.1875 
Q 26.21875 48.1875 22.15625 43.53125 
Q 18.109375 38.875 18.109375 30.90625 
L 18.109375 0 
L 9.078125 0 
L 9.078125 54.6875 
L 18.109375 54.6875 
L 18.109375 46.1875 
Q 21.1875 51.21875 25.484375 53.609375 
Q 29.78125 56 35.6875 56 
Q 41.65625 56 45.828125 52.96875 
Q 50 49.953125 52 44.1875 
z
" id="DejaVuSans-6d"/>
      <path d="M 56.203125 29.59375 
L 56.203125 25.203125 
L 14.890625 25.203125 
Q 15.484375 15.921875 20.484375 11.0625 
Q 25.484375 6.203125 34.421875 6.203125 
Q 39.59375 6.203125 44.453125 7.46875 
Q 49.3125 8.734375 54.109375 11.28125 
L 54.109375 2.78125 
Q 49.265625 0.734375 44.1875 -0.34375 
Q 39.109375 -1.421875 33.890625 -1.421875 
Q 20.796875 -1.421875 13.15625 6.1875 
Q 5.515625 13.8125 5.515625 26.8125 
Q 5.515625 40.234375 12.765625 48.109375 
Q 20.015625 56 32.328125 56 
Q 43.359375 56 49.78125 48.890625 
Q 56.203125 41.796875 56.203125 29.59375 
z
M 47.21875 32.234375 
Q 47.125 39.59375 43.09375 43.984375 
Q 39.0625 48.390625 32.421875 48.390625 
Q 24.90625 48.390625 20.390625 44.140625 
Q 15.875 39.890625 15.1875 32.171875 
z
" id="DejaVuSans-65"/>
      <path id="DejaVuSans-20"/>
      <path d="M 18.3125 70.21875 
L 18.3125 54.6875 
L 36.8125 54.6875 
L 36.8125 47.703125 
L 18.3125 47.703125 
L 18.3125 18.015625 
Q 18.3125 11.328125 20.140625 9.421875 
Q 21.96875 7.515625 27.59375 7.515625 
L 36.8125 7.515625 
L 36.8125 0 
L 27.59375 0 
Q 17.1875 0 13.234375 3.875 
Q 9.28125 7.765625 9.28125 18.015625 
L 9.28125 47.703125 
L 2.6875 47.703125 
L 2.6875 54.6875 
L 9.28125 54.6875 
L 9.28125 70.21875 
z
" id="DejaVuSans-74"/>
      <path d="M 48.78125 52.59375 
L 48.78125 44.1875 
Q 44.96875 46.296875 41.140625 47.34375 
Q 37.3125 48.390625 33.40625 48.390625 
Q 24.65625 48.390625 19.8125 42.84375 
Q 14.984375 37.3125 14.984375 27.296875 
Q 14.984375 17.28125 19.8125 11.734375 
Q 24.65625 6.203125 33.40625 6.203125 
Q 37.3125 6.203125 41.140625 7.25 
Q 44.96875 8.296875 48.78125 10.40625 
L 48.78125 2.09375 
Q 45.015625 0.34375 40.984375 -0.53125 
Q 36.96875 -1.421875 32.421875 -1.421875 
Q 20.0625 -1.421875 12.78125 6.34375 
Q 5.515625 14.109375 5.515625 27.296875 
Q 5.515625 40.671875 12.859375 48.328125 
Q 20.21875 56 33.015625 56 
Q 37.15625 56 41.109375 55.140625 
Q 45.0625 54.296875 48.78125 52.59375 
z
" id="DejaVuSans-63"/>
      <path d="M 34.28125 27.484375 
Q 23.390625 27.484375 19.1875 25 
Q 14.984375 22.515625 14.984375 16.5 
Q 14.984375 11.71875 18.140625 8.90625 
Q 21.296875 6.109375 26.703125 6.109375 
Q 34.1875 6.109375 38.703125 11.40625 
Q 43.21875 16.703125 43.21875 25.484375 
L 43.21875 27.484375 
z
M 52.203125 31.203125 
L 52.203125 0 
L 43.21875 0 
L 43.21875 8.296875 
Q 40.140625 3.328125 35.546875 0.953125 
Q 30.953125 -1.421875 24.3125 -1.421875 
Q 15.921875 -1.421875 10.953125 3.296875 
Q 6 8.015625 6 15.921875 
Q 6 25.140625 12.171875 29.828125 
Q 18.359375 34.515625 30.609375 34.515625 
L 43.21875 34.515625 
L 43.21875 35.40625 
Q 43.21875 41.609375 39.140625 45 
Q 35.0625 48.390625 27.6875 48.390625 
Q 23 48.390625 18.546875 47.265625 
Q 14.109375 46.140625 10.015625 43.890625 
L 10.015625 52.203125 
Q 14.9375 54.109375 19.578125 55.046875 
Q 24.21875 56 28.609375 56 
Q 40.484375 56 46.34375 49.84375 
Q 52.203125 43.703125 52.203125 31.203125 
z
" id="DejaVuSans-61"/>
      <path d="M 41.109375 46.296875 
Q 39.59375 47.171875 37.8125 47.578125 
Q 36.03125 48 33.890625 48 
Q 26.265625 48 22.1875 43.046875 
Q 18.109375 38.09375 18.109375 28.8125 
L 18.109375 0 
L 9.078125 0 
L 9.078125 54.6875 
L 18.109375 54.6875 
L 18.109375 46.1875 
Q 20.953125 51.171875 25.484375 53.578125 
Q 30.03125 56 36.53125 56 
Q 37.453125 56 38.578125 55.875 
Q 39.703125 55.765625 41.0625 55.515625 
z
" id="DejaVuSans-72"/>
     </defs>
     <g style="fill:#262626;" transform="translate(18.7565 271.592167)rotate(-90)scale(0.096 -0.096)">
      <use xlink:href="#DejaVuSans-54"/>
      <use x="61.037109" xlink:href="#DejaVuSans-69"/>
      <use x="88.820312" xlink:href="#DejaVuSans-6d"/>
      <use x="186.232422" xlink:href="#DejaVuSans-65"/>
      <use x="247.755859" xlink:href="#DejaVuSans-20"/>
      <use x="279.542969" xlink:href="#DejaVuSans-74"/>
      <use x="318.751953" xlink:href="#DejaVuSans-6f"/>
      <use x="379.933594" xlink:href="#DejaVuSans-20"/>
      <use x="411.720703" xlink:href="#DejaVuSans-63"/>
      <use x="466.701172" xlink:href="#DejaVuSans-61"/>
      <use x="527.980469" xlink:href="#DejaVuSans-6e"/>
      <use x="591.359375" xlink:href="#DejaVuSans-63"/>
      <use x="646.339844" xlink:href="#DejaVuSans-65"/>
      <use x="707.863281" xlink:href="#DejaVuSans-72"/>
     </g>
    </g>
   </g>
   <g id="PathCollection_1">
    <defs>
     <path d="M 0 2.4 
C 0.636487 2.4 1.246992 2.147121 1.697056 1.697056 
C 2.147121 1.246992 2.4 0.636487 2.4 0 
C 2.4 -0.636487 2.147121 -1.246992 1.697056 -1.697056 
C 1.246992 -2.147121 0.636487 -2.4 0 -2.4 
C -0.636487 -2.4 -1.246992 -2.147121 -1.697056 -1.697056 
C -2.147121 -1.246992 -2.4 -0.636487 -2.4 0 
C -2.4 0.636487 -2.147121 1.246992 -1.697056 1.697056 
C -1.246992 2.147121 -0.636487 2.4 0 2.4 
z
" id="m6579d86a4f" style="stroke:#471365;stroke-opacity:0.8;"/>
    </defs>
    <g clip-path="url(#p8c8362b1d8)">
     <use style="fill:#471365;fill-opacity:0.8;stroke:#471365;stroke-opacity:0.8;" x="282.650942" xlink:href="#m6579d86a4f" y="360.085687"/>
     <use style="fill:#471365;fill-opacity:0.8;stroke:#471365;stroke-opacity:0.8;" x="262.913671" xlink:href="#m6579d86a4f" y="360.139476"/>
     <use style="fill:#471365;fill-opacity:0.8;stroke:#471365;stroke-opacity:0.8;" x="266.092653" xlink:href="#m6579d86a4f" y="368.645776"/>
     <use style="fill:#471365;fill-opacity:0.8;stroke:#471365;stroke-opacity:0.8;" x="284.094633" xlink:href="#m6579d86a4f" y="362.905752"/>
     <use style="fill:#471365;fill-opacity:0.8;stroke:#471365;stroke-opacity:0.8;" x="288.057994" xlink:href="#m6579d86a4f" y="363.489744"/>
     <use style="fill:#471365;fill-opacity:0.8;stroke:#471365;stroke-opacity:0.8;" x="255.114799" xlink:href="#m6579d86a4f" y="363.935422"/>
     <use style="fill:#471365;fill-opacity:0.8;stroke:#471365;stroke-opacity:0.8;" x="259.713604" xlink:href="#m6579d86a4f" y="368.761037"/>
     <use style="fill:#471365;fill-opacity:0.8;stroke:#471365;stroke-opacity:0.8;" x="269.315879" xlink:href="#m6579d86a4f" y="357.88035"/>
     <use style="fill:#471365;fill-opacity:0.8;stroke:#471365;stroke-opacity:0.8;" x="253.762697" xlink:href="#m6579d86a4f" y="368.384516"/>
     <use style="fill:#471365;fill-opacity:0.8;stroke:#471365;stroke-opacity:0.8;" x="256.530085" xlink:href="#m6579d86a4f" y="359.394118"/>
     <use style="fill:#471365;fill-opacity:0.8;stroke:#471365;stroke-opacity:0.8;" x="227.151906" xlink:href="#m6579d86a4f" y="357.45004"/>
     <use style="fill:#471365;fill-opacity:0.8;stroke:#471365;stroke-opacity:0.8;" x="275.333432" xlink:href="#m6579d86a4f" y="357.373199"/>
     <use style="fill:#471365;fill-opacity:0.8;stroke:#471365;stroke-opacity:0.8;" x="285.826401" xlink:href="#m6579d86a4f" y="364.004579"/>
     <use style="fill:#471365;fill-opacity:0.8;stroke:#471365;stroke-opacity:0.8;" x="206.292104" xlink:href="#m6579d86a4f" y="365.272455"/>
     <use style="fill:#471365;fill-opacity:0.8;stroke:#471365;stroke-opacity:0.8;" x="254.571203" xlink:href="#m6579d86a4f" y="364.442572"/>
     <use style="fill:#471365;fill-opacity:0.8;stroke:#471365;stroke-opacity:0.8;" x="280.528511" xlink:href="#m6579d86a4f" y="364.911303"/>
     <use style="fill:#471365;fill-opacity:0.8;stroke:#471365;stroke-opacity:0.8;" x="193.756201" xlink:href="#m6579d86a4f" y="354.868182"/>
     <use style="fill:#471365;fill-opacity:0.8;stroke:#471365;stroke-opacity:0.8;" x="257.746292" xlink:href="#m6579d86a4f" y="365.118773"/>
     <use style="fill:#471365;fill-opacity:0.8;stroke:#471365;stroke-opacity:0.8;" x="281.090289" xlink:href="#m6579d86a4f" y="359.778323"/>
     <use style="fill:#471365;fill-opacity:0.8;stroke:#471365;stroke-opacity:0.8;" x="284.182496" xlink:href="#m6579d86a4f" y="366.64791"/>
     <use style="fill:#471365;fill-opacity:0.8;stroke:#471365;stroke-opacity:0.8;" x="279.849585" xlink:href="#m6579d86a4f" y="358.633392"/>
     <use style="fill:#471365;fill-opacity:0.8;stroke:#471365;stroke-opacity:0.8;" x="268.209386" xlink:href="#m6579d86a4f" y="363.405219"/>
     <use style="fill:#471365;fill-opacity:0.8;stroke:#471365;stroke-opacity:0.8;" x="285.935707" xlink:href="#m6579d86a4f" y="350.472876"/>
     <use style="fill:#471365;fill-opacity:0.8;stroke:#471365;stroke-opacity:0.8;" x="204.090521" xlink:href="#m6579d86a4f" y="363.136275"/>
     <use style="fill:#471365;fill-opacity:0.8;stroke:#471365;stroke-opacity:0.8;" x="287.880435" xlink:href="#m6579d86a4f" y="362.521547"/>
     <use style="fill:#471365;fill-opacity:0.8;stroke:#471365;stroke-opacity:0.8;" x="257.862263" xlink:href="#m6579d86a4f" y="317.500398"/>
     <use style="fill:#471365;fill-opacity:0.8;stroke:#471365;stroke-opacity:0.8;" x="288.943199" xlink:href="#m6579d86a4f" y="355.098705"/>
     <use style="fill:#471365;fill-opacity:0.8;stroke:#471365;stroke-opacity:0.8;" x="290.344389" xlink:href="#m6579d86a4f" y="359.962741"/>
     <use style="fill:#471365;fill-opacity:0.8;stroke:#471365;stroke-opacity:0.8;" x="205.309134" xlink:href="#m6579d86a4f" y="363.151643"/>
     <use style="fill:#471365;fill-opacity:0.8;stroke:#471365;stroke-opacity:0.8;" x="293.086442" xlink:href="#m6579d86a4f" y="361.030831"/>
     <use style="fill:#471365;fill-opacity:0.8;stroke:#471365;stroke-opacity:0.8;" x="276.75721" xlink:href="#m6579d86a4f" y="367.278006"/>
     <use style="fill:#471365;fill-opacity:0.8;stroke:#471365;stroke-opacity:0.8;" x="270.529711" xlink:href="#m6579d86a4f" y="361.484193"/>
     <use style="fill:#471365;fill-opacity:0.8;stroke:#471365;stroke-opacity:0.8;" x="245.691815" xlink:href="#m6579d86a4f" y="364.204365"/>
     <use style="fill:#471365;fill-opacity:0.8;stroke:#471365;stroke-opacity:0.8;" x="264.705963" xlink:href="#m6579d86a4f" y="364.7192"/>
     <use style="fill:#471365;fill-opacity:0.8;stroke:#471365;stroke-opacity:0.8;" x="265.477366" xlink:href="#m6579d86a4f" y="367.631474"/>
     <use style="fill:#471365;fill-opacity:0.8;stroke:#471365;stroke-opacity:0.8;" x="285.960295" xlink:href="#m6579d86a4f" y="371.21995"/>
     <use style="fill:#471365;fill-opacity:0.8;stroke:#471365;stroke-opacity:0.8;" x="273.081153" xlink:href="#m6579d86a4f" y="359.601589"/>
     <use style="fill:#471365;fill-opacity:0.8;stroke:#471365;stroke-opacity:0.8;" x="282.708822" xlink:href="#m6579d86a4f" y="356.919837"/>
     <use style="fill:#471365;fill-opacity:0.8;stroke:#471365;stroke-opacity:0.8;" x="275.902782" xlink:href="#m6579d86a4f" y="361.453457"/>
     <use style="fill:#471365;fill-opacity:0.8;stroke:#471365;stroke-opacity:0.8;" x="280.865143" xlink:href="#m6579d86a4f" y="372.472458"/>
     <use style="fill:#471365;fill-opacity:0.8;stroke:#471365;stroke-opacity:0.8;" x="292.155506" xlink:href="#m6579d86a4f" y="344.748221"/>
     <use style="fill:#471365;fill-opacity:0.8;stroke:#471365;stroke-opacity:0.8;" x="257.278288" xlink:href="#m6579d86a4f" y="366.947589"/>
     <use style="fill:#471365;fill-opacity:0.8;stroke:#471365;stroke-opacity:0.8;" x="276.39934" xlink:href="#m6579d86a4f" y="349.804359"/>
     <use style="fill:#471365;fill-opacity:0.8;stroke:#471365;stroke-opacity:0.8;" x="283.91713" xlink:href="#m6579d86a4f" y="366.98601"/>
     <use style="fill:#471365;fill-opacity:0.8;stroke:#471365;stroke-opacity:0.8;" x="280.650043" xlink:href="#m6579d86a4f" y="372.180462"/>
     <use style="fill:#471365;fill-opacity:0.8;stroke:#471365;stroke-opacity:0.8;" x="273.658209" xlink:href="#m6579d86a4f" y="365.871815"/>
     <use style="fill:#471365;fill-opacity:0.8;stroke:#471365;stroke-opacity:0.8;" x="267.473032" xlink:href="#m6579d86a4f" y="360.577469"/>
     <use style="fill:#471365;fill-opacity:0.8;stroke:#471365;stroke-opacity:0.8;" x="293.23837" xlink:href="#m6579d86a4f" y="362.490811"/>
     <use style="fill:#471365;fill-opacity:0.8;stroke:#471365;stroke-opacity:0.8;" x="281.74731" xlink:href="#m6579d86a4f" y="363.973842"/>
     <use style="fill:#471365;fill-opacity:0.8;stroke:#471365;stroke-opacity:0.8;" x="290.517489" xlink:href="#m6579d86a4f" y="359.109806"/>
     <use style="fill:#471365;fill-opacity:0.8;stroke:#471365;stroke-opacity:0.8;" x="276.740935" xlink:href="#m6579d86a4f" y="360.44684"/>
     <use style="fill:#471365;fill-opacity:0.8;stroke:#471365;stroke-opacity:0.8;" x="283.39382" xlink:href="#m6579d86a4f" y="362.844279"/>
     <use style="fill:#471365;fill-opacity:0.8;stroke:#471365;stroke-opacity:0.8;" x="279.951857" xlink:href="#m6579d86a4f" y="328.76529"/>
     <use style="fill:#471365;fill-opacity:0.8;stroke:#471365;stroke-opacity:0.8;" x="215.243787" xlink:href="#m6579d86a4f" y="365.003512"/>
     <use style="fill:#471365;fill-opacity:0.8;stroke:#471365;stroke-opacity:0.8;" x="254.06196" xlink:href="#m6579d86a4f" y="364.949723"/>
     <use style="fill:#471365;fill-opacity:0.8;stroke:#471365;stroke-opacity:0.8;" x="283.557559" xlink:href="#m6579d86a4f" y="365.679713"/>
     <use style="fill:#471365;fill-opacity:0.8;stroke:#471365;stroke-opacity:0.8;" x="269.431027" xlink:href="#m6579d86a4f" y="358.441289"/>
     <use style="fill:#471365;fill-opacity:0.8;stroke:#471365;stroke-opacity:0.8;" x="278.289993" xlink:href="#m6579d86a4f" y="365.718133"/>
     <use style="fill:#471365;fill-opacity:0.8;stroke:#471365;stroke-opacity:0.8;" x="218.175574" xlink:href="#m6579d86a4f" y="367.016746"/>
     <use style="fill:#471365;fill-opacity:0.8;stroke:#471365;stroke-opacity:0.8;" x="257.806702" xlink:href="#m6579d86a4f" y="363.359114"/>
     <use style="fill:#471365;fill-opacity:0.8;stroke:#471365;stroke-opacity:0.8;" x="232.145248" xlink:href="#m6579d86a4f" y="323.401787"/>
     <use style="fill:#471365;fill-opacity:0.8;stroke:#471365;stroke-opacity:0.8;" x="236.916722" xlink:href="#m6579d86a4f" y="361.491878"/>
     <use style="fill:#471365;fill-opacity:0.8;stroke:#471365;stroke-opacity:0.8;" x="279.641486" xlink:href="#m6579d86a4f" y="365.003512"/>
     <use style="fill:#471365;fill-opacity:0.8;stroke:#471365;stroke-opacity:0.8;" x="245.350219" xlink:href="#m6579d86a4f" y="362.498495"/>
     <use style="fill:#471365;fill-opacity:0.8;stroke:#471365;stroke-opacity:0.8;" x="262.952867" xlink:href="#m6579d86a4f" y="362.559968"/>
     <use style="fill:#471365;fill-opacity:0.8;stroke:#471365;stroke-opacity:0.8;" x="292.085274" xlink:href="#m6579d86a4f" y="355.890168"/>
     <use style="fill:#471365;fill-opacity:0.8;stroke:#471365;stroke-opacity:0.8;" x="289.750929" xlink:href="#m6579d86a4f" y="358.794758"/>
     <use style="fill:#471365;fill-opacity:0.8;stroke:#471365;stroke-opacity:0.8;" x="282.260068" xlink:href="#m6579d86a4f" y="365.940972"/>
     <use style="fill:#471365;fill-opacity:0.8;stroke:#471365;stroke-opacity:0.8;" x="277.802206" xlink:href="#m6579d86a4f" y="368.461357"/>
     <use style="fill:#471365;fill-opacity:0.8;stroke:#471365;stroke-opacity:0.8;" x="258.763127" xlink:href="#m6579d86a4f" y="356.658578"/>
     <use style="fill:#471365;fill-opacity:0.8;stroke:#471365;stroke-opacity:0.8;" x="265.916589" xlink:href="#m6579d86a4f" y="366.809276"/>
     <use style="fill:#471365;fill-opacity:0.8;stroke:#471365;stroke-opacity:0.8;" x="235.381708" xlink:href="#m6579d86a4f" y="364.58857"/>
     <use style="fill:#471365;fill-opacity:0.8;stroke:#471365;stroke-opacity:0.8;" x="261.553779" xlink:href="#m6579d86a4f" y="366.793907"/>
     <use style="fill:#471365;fill-opacity:0.8;stroke:#471365;stroke-opacity:0.8;" x="208.232917" xlink:href="#m6579d86a4f" y="111.282171"/>
     <use style="fill:#471365;fill-opacity:0.8;stroke:#471365;stroke-opacity:0.8;" x="276.615308" xlink:href="#m6579d86a4f" y="366.832328"/>
     <use style="fill:#471365;fill-opacity:0.8;stroke:#471365;stroke-opacity:0.8;" x="235.741165" xlink:href="#m6579d86a4f" y="355.498279"/>
     <use style="fill:#471365;fill-opacity:0.8;stroke:#471365;stroke-opacity:0.8;" x="276.928022" xlink:href="#m6579d86a4f" y="358.633392"/>
     <use style="fill:#471365;fill-opacity:0.8;stroke:#471365;stroke-opacity:0.8;" x="292.740849" xlink:href="#m6579d86a4f" y="348.989845"/>
     <use style="fill:#471365;fill-opacity:0.8;stroke:#471365;stroke-opacity:0.8;" x="289.906878" xlink:href="#m6579d86a4f" y="360.869465"/>
     <use style="fill:#471365;fill-opacity:0.8;stroke:#471365;stroke-opacity:0.8;" x="268.678719" xlink:href="#m6579d86a4f" y="363.143959"/>
     <use style="fill:#471365;fill-opacity:0.8;stroke:#471365;stroke-opacity:0.8;" x="271.294253" xlink:href="#m6579d86a4f" y="364.135208"/>
     <use style="fill:#471365;fill-opacity:0.8;stroke:#471365;stroke-opacity:0.8;" x="271.61039" xlink:href="#m6579d86a4f" y="366.355914"/>
     <use style="fill:#471365;fill-opacity:0.8;stroke:#471365;stroke-opacity:0.8;" x="249.236269" xlink:href="#m6579d86a4f" y="355.160178"/>
     <use style="fill:#471365;fill-opacity:0.8;stroke:#471365;stroke-opacity:0.8;" x="154.983137" xlink:href="#m6579d86a4f" y="364.311943"/>
     <use style="fill:#471365;fill-opacity:0.8;stroke:#471365;stroke-opacity:0.8;" x="274.207202" xlink:href="#m6579d86a4f" y="364.811409"/>
     <use style="fill:#471365;fill-opacity:0.8;stroke:#471365;stroke-opacity:0.8;" x="283.741665" xlink:href="#m6579d86a4f" y="366.432755"/>
     <use style="fill:#471365;fill-opacity:0.8;stroke:#471365;stroke-opacity:0.8;" x="284.179428" xlink:href="#m6579d86a4f" y="361.315143"/>
     <use style="fill:#471365;fill-opacity:0.8;stroke:#471365;stroke-opacity:0.8;" x="246.920892" xlink:href="#m6579d86a4f" y="362.098922"/>
     <use style="fill:#471365;fill-opacity:0.8;stroke:#471365;stroke-opacity:0.8;" x="271.416323" xlink:href="#m6579d86a4f" y="364.504045"/>
     <use style="fill:#471365;fill-opacity:0.8;stroke:#471365;stroke-opacity:0.8;" x="292.339813" xlink:href="#m6579d86a4f" y="362.62144"/>
     <use style="fill:#471365;fill-opacity:0.8;stroke:#471365;stroke-opacity:0.8;" x="269.601345" xlink:href="#m6579d86a4f" y="364.665411"/>
     <use style="fill:#471365;fill-opacity:0.8;stroke:#471365;stroke-opacity:0.8;" x="290.840299" xlink:href="#m6579d86a4f" y="339.592189"/>
     <use style="fill:#471365;fill-opacity:0.8;stroke:#471365;stroke-opacity:0.8;" x="292.600055" xlink:href="#m6579d86a4f" y="358.556551"/>
     <use style="fill:#471365;fill-opacity:0.8;stroke:#471365;stroke-opacity:0.8;" x="280.490593" xlink:href="#m6579d86a4f" y="364.142892"/>
     <use style="fill:#471365;fill-opacity:0.8;stroke:#471365;stroke-opacity:0.8;" x="291.834315" xlink:href="#m6579d86a4f" y="364.319627"/>
     <use style="fill:#471365;fill-opacity:0.8;stroke:#471365;stroke-opacity:0.8;" x="273.860859" xlink:href="#m6579d86a4f" y="365.741186"/>
     <use style="fill:#471365;fill-opacity:0.8;stroke:#471365;stroke-opacity:0.8;" x="292.324785" xlink:href="#m6579d86a4f" y="359.709166"/>
     <use style="fill:#471365;fill-opacity:0.8;stroke:#471365;stroke-opacity:0.8;" x="281.805003" xlink:href="#m6579d86a4f" y="362.221867"/>
     <use style="fill:#471365;fill-opacity:0.8;stroke:#471365;stroke-opacity:0.8;" x="291.822109" xlink:href="#m6579d86a4f" y="338.331996"/>
     <use style="fill:#471365;fill-opacity:0.8;stroke:#471365;stroke-opacity:0.8;" x="285.744292" xlink:href="#m6579d86a4f" y="364.050683"/>
     <use style="fill:#471365;fill-opacity:0.8;stroke:#471365;stroke-opacity:0.8;" x="293.039638" xlink:href="#m6579d86a4f" y="363.597321"/>
     <use style="fill:#471365;fill-opacity:0.8;stroke:#471365;stroke-opacity:0.8;" x="257.100111" xlink:href="#m6579d86a4f" y="361.176829"/>
     <use style="fill:#471365;fill-opacity:0.8;stroke:#471365;stroke-opacity:0.8;" x="292.324265" xlink:href="#m6579d86a4f" y="368.18473"/>
     <use style="fill:#471365;fill-opacity:0.8;stroke:#471365;stroke-opacity:0.8;" x="260.083986" xlink:href="#m6579d86a4f" y="362.575336"/>
     <use style="fill:#471365;fill-opacity:0.8;stroke:#471365;stroke-opacity:0.8;" x="286.897772" xlink:href="#m6579d86a4f" y="339.868817"/>
     <use style="fill:#471365;fill-opacity:0.8;stroke:#471365;stroke-opacity:0.8;" x="279.211956" xlink:href="#m6579d86a4f" y="362.629125"/>
     <use style="fill:#471365;fill-opacity:0.8;stroke:#471365;stroke-opacity:0.8;" x="289.289482" xlink:href="#m6579d86a4f" y="365.733501"/>
     <use style="fill:#471365;fill-opacity:0.8;stroke:#471365;stroke-opacity:0.8;" x="288.749335" xlink:href="#m6579d86a4f" y="362.744386"/>
     <use style="fill:#471365;fill-opacity:0.8;stroke:#471365;stroke-opacity:0.8;" x="284.728187" xlink:href="#m6579d86a4f" y="365.003512"/>
     <use style="fill:#471365;fill-opacity:0.8;stroke:#471365;stroke-opacity:0.8;" x="292.84226" xlink:href="#m6579d86a4f" y="358.602655"/>
     <use style="fill:#471365;fill-opacity:0.8;stroke:#471365;stroke-opacity:0.8;" x="266.239429" xlink:href="#m6579d86a4f" y="359.056017"/>
     <use style="fill:#471365;fill-opacity:0.8;stroke:#471365;stroke-opacity:0.8;" x="259.679106" xlink:href="#m6579d86a4f" y="359.832112"/>
     <use style="fill:#471365;fill-opacity:0.8;stroke:#471365;stroke-opacity:0.8;" x="286.714837" xlink:href="#m6579d86a4f" y="363.727951"/>
     <use style="fill:#471365;fill-opacity:0.8;stroke:#471365;stroke-opacity:0.8;" x="279.391803" xlink:href="#m6579d86a4f" y="355.290808"/>
     <use style="fill:#471365;fill-opacity:0.8;stroke:#471365;stroke-opacity:0.8;" x="292.524481" xlink:href="#m6579d86a4f" y="352.470743"/>
     <use style="fill:#471365;fill-opacity:0.8;stroke:#471365;stroke-opacity:0.8;" x="269.774861" xlink:href="#m6579d86a4f" y="365.118773"/>
     <use style="fill:#471365;fill-opacity:0.8;stroke:#471365;stroke-opacity:0.8;" x="232.57733" xlink:href="#m6579d86a4f" y="360.001162"/>
     <use style="fill:#471365;fill-opacity:0.8;stroke:#471365;stroke-opacity:0.8;" x="285.139593" xlink:href="#m6579d86a4f" y="360.531365"/>
     <use style="fill:#471365;fill-opacity:0.8;stroke:#471365;stroke-opacity:0.8;" x="257.054485" xlink:href="#m6579d86a4f" y="360.369999"/>
     <use style="fill:#471365;fill-opacity:0.8;stroke:#471365;stroke-opacity:0.8;" x="226.179131" xlink:href="#m6579d86a4f" y="366.755487"/>
     <use style="fill:#471365;fill-opacity:0.8;stroke:#471365;stroke-opacity:0.8;" x="157.562963" xlink:href="#m6579d86a4f" y="364.11984"/>
     <use style="fill:#471365;fill-opacity:0.8;stroke:#471365;stroke-opacity:0.8;" x="284.560228" xlink:href="#m6579d86a4f" y="362.544599"/>
     <use style="fill:#471365;fill-opacity:0.8;stroke:#471365;stroke-opacity:0.8;" x="285.919717" xlink:href="#m6579d86a4f" y="360.546733"/>
     <use style="fill:#471365;fill-opacity:0.8;stroke:#471365;stroke-opacity:0.8;" x="289.240851" xlink:href="#m6579d86a4f" y="360.792624"/>
     <use style="fill:#471365;fill-opacity:0.8;stroke:#471365;stroke-opacity:0.8;" x="284.631477" xlink:href="#m6579d86a4f" y="366.463491"/>
     <use style="fill:#471365;fill-opacity:0.8;stroke:#471365;stroke-opacity:0.8;" x="292.520956" xlink:href="#m6579d86a4f" y="291.61266"/>
     <use style="fill:#471365;fill-opacity:0.8;stroke:#471365;stroke-opacity:0.8;" x="280.465428" xlink:href="#m6579d86a4f" y="359.747587"/>
     <use style="fill:#471365;fill-opacity:0.8;stroke:#471365;stroke-opacity:0.8;" x="249.526432" xlink:href="#m6579d86a4f" y="361.076936"/>
     <use style="fill:#471365;fill-opacity:0.8;stroke:#471365;stroke-opacity:0.8;" x="277.632085" xlink:href="#m6579d86a4f" y="362.28334"/>
     <use style="fill:#471365;fill-opacity:0.8;stroke:#471365;stroke-opacity:0.8;" x="226.565949" xlink:href="#m6579d86a4f" y="267.476898"/>
     <use style="fill:#471365;fill-opacity:0.8;stroke:#471365;stroke-opacity:0.8;" x="274.536411" xlink:href="#m6579d86a4f" y="363.374482"/>
     <use style="fill:#471365;fill-opacity:0.8;stroke:#471365;stroke-opacity:0.8;" x="187.323198" xlink:href="#m6579d86a4f" y="365.088037"/>
     <use style="fill:#471365;fill-opacity:0.8;stroke:#471365;stroke-opacity:0.8;" x="280.50714" xlink:href="#m6579d86a4f" y="358.441289"/>
     <use style="fill:#471365;fill-opacity:0.8;stroke:#471365;stroke-opacity:0.8;" x="264.517331" xlink:href="#m6579d86a4f" y="358.041716"/>
     <use style="fill:#471365;fill-opacity:0.8;stroke:#471365;stroke-opacity:0.8;" x="284.625492" xlink:href="#m6579d86a4f" y="365.510663"/>
     <use style="fill:#471365;fill-opacity:0.8;stroke:#471365;stroke-opacity:0.8;" x="291.917091" xlink:href="#m6579d86a4f" y="364.004579"/>
     <use style="fill:#471365;fill-opacity:0.8;stroke:#471365;stroke-opacity:0.8;" x="289.717193" xlink:href="#m6579d86a4f" y="360.661995"/>
     <use style="fill:#471365;fill-opacity:0.8;stroke:#471365;stroke-opacity:0.8;" x="272.705096" xlink:href="#m6579d86a4f" y="364.135208"/>
     <use style="fill:#471365;fill-opacity:0.8;stroke:#471365;stroke-opacity:0.8;" x="273.133924" xlink:href="#m6579d86a4f" y="369.867548"/>
     <use style="fill:#471365;fill-opacity:0.8;stroke:#471365;stroke-opacity:0.8;" x="289.383437" xlink:href="#m6579d86a4f" y="362.214183"/>
     <use style="fill:#471365;fill-opacity:0.8;stroke:#471365;stroke-opacity:0.8;" x="268.969544" xlink:href="#m6579d86a4f" y="363.397535"/>
     <use style="fill:#471365;fill-opacity:0.8;stroke:#471365;stroke-opacity:0.8;" x="260.45131" xlink:href="#m6579d86a4f" y="351.371916"/>
     <use style="fill:#471365;fill-opacity:0.8;stroke:#471365;stroke-opacity:0.8;" x="265.532915" xlink:href="#m6579d86a4f" y="367.41632"/>
     <use style="fill:#471365;fill-opacity:0.8;stroke:#471365;stroke-opacity:0.8;" x="265.973996" xlink:href="#m6579d86a4f" y="362.444706"/>
     <use style="fill:#471365;fill-opacity:0.8;stroke:#471365;stroke-opacity:0.8;" x="265.239817" xlink:href="#m6579d86a4f" y="357.204149"/>
     <use style="fill:#471365;fill-opacity:0.8;stroke:#471365;stroke-opacity:0.8;" x="256.764629" xlink:href="#m6579d86a4f" y="317.892287"/>
     <use style="fill:#471365;fill-opacity:0.8;stroke:#471365;stroke-opacity:0.8;" x="246.482716" xlink:href="#m6579d86a4f" y="227.189155"/>
     <use style="fill:#471365;fill-opacity:0.8;stroke:#471365;stroke-opacity:0.8;" x="256.043996" xlink:href="#m6579d86a4f" y="363.82016"/>
     <use style="fill:#471365;fill-opacity:0.8;stroke:#471365;stroke-opacity:0.8;" x="269.650997" xlink:href="#m6579d86a4f" y="362.928804"/>
     <use style="fill:#471365;fill-opacity:0.8;stroke:#471365;stroke-opacity:0.8;" x="292.141274" xlink:href="#m6579d86a4f" y="365.579819"/>
     <use style="fill:#471365;fill-opacity:0.8;stroke:#471365;stroke-opacity:0.8;" x="280.32517" xlink:href="#m6579d86a4f" y="367.28569"/>
     <use style="fill:#471365;fill-opacity:0.8;stroke:#471365;stroke-opacity:0.8;" x="260.926544" xlink:href="#m6579d86a4f" y="365.180246"/>
     <use style="fill:#471365;fill-opacity:0.8;stroke:#471365;stroke-opacity:0.8;" x="247.03221" xlink:href="#m6579d86a4f" y="358.871599"/>
     <use style="fill:#471365;fill-opacity:0.8;stroke:#471365;stroke-opacity:0.8;" x="290.699818" xlink:href="#m6579d86a4f" y="364.534782"/>
     <use style="fill:#471365;fill-opacity:0.8;stroke:#471365;stroke-opacity:0.8;" x="231.906682" xlink:href="#m6579d86a4f" y="331.247255"/>
     <use style="fill:#471365;fill-opacity:0.8;stroke:#471365;stroke-opacity:0.8;" x="290.938649" xlink:href="#m6579d86a4f" y="354.97576"/>
     <use style="fill:#471365;fill-opacity:0.8;stroke:#471365;stroke-opacity:0.8;" x="213.251191" xlink:href="#m6579d86a4f" y="364.7192"/>
     <use style="fill:#471365;fill-opacity:0.8;stroke:#471365;stroke-opacity:0.8;" x="282.885434" xlink:href="#m6579d86a4f" y="361.999028"/>
     <use style="fill:#471365;fill-opacity:0.8;stroke:#471365;stroke-opacity:0.8;" x="277.56301" xlink:href="#m6579d86a4f" y="365.510663"/>
     <use style="fill:#471365;fill-opacity:0.8;stroke:#471365;stroke-opacity:0.8;" x="269.899175" xlink:href="#m6579d86a4f" y="363.589637"/>
     <use style="fill:#471365;fill-opacity:0.8;stroke:#471365;stroke-opacity:0.8;" x="258.799128" xlink:href="#m6579d86a4f" y="362.898068"/>
     <use style="fill:#471365;fill-opacity:0.8;stroke:#471365;stroke-opacity:0.8;" x="275.227872" xlink:href="#m6579d86a4f" y="365.01888"/>
     <use style="fill:#471365;fill-opacity:0.8;stroke:#471365;stroke-opacity:0.8;" x="283.984409" xlink:href="#m6579d86a4f" y="364.188997"/>
     <use style="fill:#471365;fill-opacity:0.8;stroke:#471365;stroke-opacity:0.8;" x="211.833111" xlink:href="#m6579d86a4f" y="362.636809"/>
     <use style="fill:#471365;fill-opacity:0.8;stroke:#471365;stroke-opacity:0.8;" x="289.143707" xlink:href="#m6579d86a4f" y="363.174696"/>
     <use style="fill:#471365;fill-opacity:0.8;stroke:#471365;stroke-opacity:0.8;" x="252.201277" xlink:href="#m6579d86a4f" y="362.590704"/>
     <use style="fill:#471365;fill-opacity:0.8;stroke:#471365;stroke-opacity:0.8;" x="292.16803" xlink:href="#m6579d86a4f" y="368.999244"/>
     <use style="fill:#471365;fill-opacity:0.8;stroke:#471365;stroke-opacity:0.8;" x="269.040313" xlink:href="#m6579d86a4f" y="362.71365"/>
     <use style="fill:#471365;fill-opacity:0.8;stroke:#471365;stroke-opacity:0.8;" x="285.943362" xlink:href="#m6579d86a4f" y="359.324961"/>
     <use style="fill:#471365;fill-opacity:0.8;stroke:#471365;stroke-opacity:0.8;" x="251.434543" xlink:href="#m6579d86a4f" y="358.264555"/>
     <use style="fill:#471365;fill-opacity:0.8;stroke:#471365;stroke-opacity:0.8;" x="292.873862" xlink:href="#m6579d86a4f" y="363.036382"/>
     <use style="fill:#471365;fill-opacity:0.8;stroke:#471365;stroke-opacity:0.8;" x="228.978009" xlink:href="#m6579d86a4f" y="363.159328"/>
     <use style="fill:#471365;fill-opacity:0.8;stroke:#471365;stroke-opacity:0.8;" x="275.933458" xlink:href="#m6579d86a4f" y="357.28099"/>
     <use style="fill:#471365;fill-opacity:0.8;stroke:#471365;stroke-opacity:0.8;" x="274.081355" xlink:href="#m6579d86a4f" y="367.646843"/>
     <use style="fill:#471365;fill-opacity:0.8;stroke:#471365;stroke-opacity:0.8;" x="281.628873" xlink:href="#m6579d86a4f" y="364.112156"/>
     <use style="fill:#471365;fill-opacity:0.8;stroke:#471365;stroke-opacity:0.8;" x="287.670283" xlink:href="#m6579d86a4f" y="361.899135"/>
     <use style="fill:#471365;fill-opacity:0.8;stroke:#471365;stroke-opacity:0.8;" x="278.413873" xlink:href="#m6579d86a4f" y="365.78729"/>
     <use style="fill:#471365;fill-opacity:0.8;stroke:#471365;stroke-opacity:0.8;" x="283.086401" xlink:href="#m6579d86a4f" y="361.630191"/>
     <use style="fill:#471365;fill-opacity:0.8;stroke:#471365;stroke-opacity:0.8;" x="217.171064" xlink:href="#m6579d86a4f" y="358.356764"/>
     <use style="fill:#471365;fill-opacity:0.8;stroke:#471365;stroke-opacity:0.8;" x="256.735478" xlink:href="#m6579d86a4f" y="349.420154"/>
     <use style="fill:#471365;fill-opacity:0.8;stroke:#471365;stroke-opacity:0.8;" x="283.914245" xlink:href="#m6579d86a4f" y="359.832112"/>
     <use style="fill:#471365;fill-opacity:0.8;stroke:#471365;stroke-opacity:0.8;" x="262.529312" xlink:href="#m6579d86a4f" y="365.241719"/>
     <use style="fill:#471365;fill-opacity:0.8;stroke:#471365;stroke-opacity:0.8;" x="290.091043" xlink:href="#m6579d86a4f" y="365.426137"/>
     <use style="fill:#471365;fill-opacity:0.8;stroke:#471365;stroke-opacity:0.8;" x="270.882277" xlink:href="#m6579d86a4f" y="347.491445"/>
     <use style="fill:#471365;fill-opacity:0.8;stroke:#471365;stroke-opacity:0.8;" x="242.650546" xlink:href="#m6579d86a4f" y="357.61909"/>
     <use style="fill:#471365;fill-opacity:0.8;stroke:#471365;stroke-opacity:0.8;" x="224.906743" xlink:href="#m6579d86a4f" y="350.649611"/>
     <use style="fill:#471365;fill-opacity:0.8;stroke:#471365;stroke-opacity:0.8;" x="258.52163" xlink:href="#m6579d86a4f" y="353.331362"/>
     <use style="fill:#471365;fill-opacity:0.8;stroke:#471365;stroke-opacity:0.8;" x="289.455804" xlink:href="#m6579d86a4f" y="362.721334"/>
     <use style="fill:#471365;fill-opacity:0.8;stroke:#471365;stroke-opacity:0.8;" x="182.856753" xlink:href="#m6579d86a4f" y="365.226351"/>
     <use style="fill:#471365;fill-opacity:0.8;stroke:#471365;stroke-opacity:0.8;" x="251.399217" xlink:href="#m6579d86a4f" y="299.527285"/>
     <use style="fill:#471365;fill-opacity:0.8;stroke:#471365;stroke-opacity:0.8;" x="208.686964" xlink:href="#m6579d86a4f" y="362.444706"/>
     <use style="fill:#471365;fill-opacity:0.8;stroke:#471365;stroke-opacity:0.8;" x="176.645638" xlink:href="#m6579d86a4f" y="362.32176"/>
     <use style="fill:#471365;fill-opacity:0.8;stroke:#471365;stroke-opacity:0.8;" x="241.023735" xlink:href="#m6579d86a4f" y="356.712367"/>
     <use style="fill:#471365;fill-opacity:0.8;stroke:#471365;stroke-opacity:0.8;" x="227.426098" xlink:href="#m6579d86a4f" y="369.644709"/>
     <use style="fill:#471365;fill-opacity:0.8;stroke:#471365;stroke-opacity:0.8;" x="289.481528" xlink:href="#m6579d86a4f" y="362.905752"/>
     <use style="fill:#471365;fill-opacity:0.8;stroke:#471365;stroke-opacity:0.8;" x="277.54637" xlink:href="#m6579d86a4f" y="358.94844"/>
     <use style="fill:#471365;fill-opacity:0.8;stroke:#471365;stroke-opacity:0.8;" x="291.51293" xlink:href="#m6579d86a4f" y="363.889317"/>
     <use style="fill:#471365;fill-opacity:0.8;stroke:#471365;stroke-opacity:0.8;" x="270.601127" xlink:href="#m6579d86a4f" y="366.840012"/>
     <use style="fill:#471365;fill-opacity:0.8;stroke:#471365;stroke-opacity:0.8;" x="247.196766" xlink:href="#m6579d86a4f" y="355.698065"/>
     <use style="fill:#471365;fill-opacity:0.8;stroke:#471365;stroke-opacity:0.8;" x="275.297639" xlink:href="#m6579d86a4f" y="363.712583"/>
     <use style="fill:#471365;fill-opacity:0.8;stroke:#471365;stroke-opacity:0.8;" x="249.21113" xlink:href="#m6579d86a4f" y="364.281206"/>
     <use style="fill:#471365;fill-opacity:0.8;stroke:#471365;stroke-opacity:0.8;" x="123.518163" xlink:href="#m6579d86a4f" y="374.962107"/>
     <use style="fill:#471365;fill-opacity:0.8;stroke:#471365;stroke-opacity:0.8;" x="272.974654" xlink:href="#m6579d86a4f" y="360.362315"/>
     <use style="fill:#471365;fill-opacity:0.8;stroke:#471365;stroke-opacity:0.8;" x="181.633866" xlink:href="#m6579d86a4f" y="359.155911"/>
     <use style="fill:#471365;fill-opacity:0.8;stroke:#471365;stroke-opacity:0.8;" x="255.321785" xlink:href="#m6579d86a4f" y="362.460074"/>
     <use style="fill:#471365;fill-opacity:0.8;stroke:#471365;stroke-opacity:0.8;" x="291.660405" xlink:href="#m6579d86a4f" y="358.671812"/>
     <use style="fill:#471365;fill-opacity:0.8;stroke:#471365;stroke-opacity:0.8;" x="284.002383" xlink:href="#m6579d86a4f" y="311.967845"/>
     <use style="fill:#471365;fill-opacity:0.8;stroke:#471365;stroke-opacity:0.8;" x="108.519963" xlink:href="#m6579d86a4f" y="363.943106"/>
     <use style="fill:#471365;fill-opacity:0.8;stroke:#471365;stroke-opacity:0.8;" x="203.497924" xlink:href="#m6579d86a4f" y="333.890586"/>
     <use style="fill:#471365;fill-opacity:0.8;stroke:#471365;stroke-opacity:0.8;" x="288.278191" xlink:href="#m6579d86a4f" y="366.002445"/>
     <use style="fill:#471365;fill-opacity:0.8;stroke:#471365;stroke-opacity:0.8;" x="253.639118" xlink:href="#m6579d86a4f" y="364.519413"/>
     <use style="fill:#471365;fill-opacity:0.8;stroke:#471365;stroke-opacity:0.8;" x="283.925578" xlink:href="#m6579d86a4f" y="365.871815"/>
     <use style="fill:#471365;fill-opacity:0.8;stroke:#471365;stroke-opacity:0.8;" x="291.883203" xlink:href="#m6579d86a4f" y="360.124108"/>
     <use style="fill:#471365;fill-opacity:0.8;stroke:#471365;stroke-opacity:0.8;" x="218.407134" xlink:href="#m6579d86a4f" y="365.564451"/>
     <use style="fill:#471365;fill-opacity:0.8;stroke:#471365;stroke-opacity:0.8;" x="243.722804" xlink:href="#m6579d86a4f" y="366.279073"/>
     <use style="fill:#471365;fill-opacity:0.8;stroke:#471365;stroke-opacity:0.8;" x="292.329542" xlink:href="#m6579d86a4f" y="349.804359"/>
     <use style="fill:#471365;fill-opacity:0.8;stroke:#471365;stroke-opacity:0.8;" x="263.458887" xlink:href="#m6579d86a4f" y="359.07907"/>
     <use style="fill:#471365;fill-opacity:0.8;stroke:#471365;stroke-opacity:0.8;" x="291.187768" xlink:href="#m6579d86a4f" y="370.866481"/>
     <use style="fill:#471365;fill-opacity:0.8;stroke:#471365;stroke-opacity:0.8;" x="239.689012" xlink:href="#m6579d86a4f" y="367.347163"/>
     <use style="fill:#471365;fill-opacity:0.8;stroke:#471365;stroke-opacity:0.8;" x="131.691516" xlink:href="#m6579d86a4f" y="363.143959"/>
     <use style="fill:#471365;fill-opacity:0.8;stroke:#471365;stroke-opacity:0.8;" x="278.820043" xlink:href="#m6579d86a4f" y="305.789827"/>
    </g>
   </g>
   <g id="PolyCollection_1">
    <defs>
     <path d="M 63.579924 -127.522276 
L 63.579924 -67.047133 
L 66.353646 -67.114547 
L 69.127368 -67.176878 
L 71.90109 -67.23772 
L 74.674813 -67.298561 
L 77.448535 -67.359403 
L 80.222257 -67.420245 
L 82.995979 -67.481086 
L 85.769701 -67.541928 
L 88.543423 -67.602769 
L 91.317145 -67.663611 
L 94.090867 -67.724452 
L 96.864589 -67.785294 
L 99.638311 -67.846135 
L 102.412033 -67.906977 
L 105.185755 -67.967818 
L 107.959477 -68.02866 
L 110.733199 -68.122307 
L 113.506921 -68.234484 
L 116.280644 -68.328086 
L 119.054366 -68.396007 
L 121.828088 -68.463929 
L 124.60181 -68.531851 
L 127.375532 -68.599773 
L 130.149254 -68.671833 
L 132.922976 -68.759047 
L 135.696698 -68.84626 
L 138.47042 -68.933474 
L 141.244142 -69.020687 
L 144.017864 -69.107901 
L 146.791586 -69.18205 
L 149.565308 -69.251426 
L 152.33903 -69.32125 
L 155.112753 -69.391075 
L 157.886475 -69.460899 
L 160.660197 -69.530723 
L 163.433919 -69.600547 
L 166.207641 -69.670371 
L 168.981363 -69.747652 
L 171.755085 -69.83393 
L 174.528807 -69.920208 
L 177.302529 -70.006487 
L 180.076251 -70.074215 
L 182.849973 -70.137265 
L 185.623695 -70.200316 
L 188.397417 -70.266918 
L 191.171139 -70.330166 
L 193.944861 -70.389467 
L 196.718584 -70.452518 
L 199.492306 -70.515568 
L 202.266028 -70.578619 
L 205.03975 -70.641409 
L 207.813472 -70.704545 
L 210.587194 -70.78053 
L 213.360916 -70.832266 
L 216.134638 -70.885669 
L 218.90836 -70.927046 
L 221.682082 -70.996643 
L 224.455804 -71.062867 
L 227.229526 -71.10547 
L 230.003248 -71.174484 
L 232.77697 -71.219109 
L 235.550693 -71.286022 
L 238.324415 -71.351738 
L 241.098137 -71.433367 
L 243.871859 -71.44658 
L 246.645581 -71.519359 
L 249.419303 -71.569898 
L 252.193025 -71.589 
L 254.966747 -71.598086 
L 257.740469 -71.61906 
L 260.514191 -71.64737 
L 263.287913 -71.695964 
L 266.061635 -71.705641 
L 268.835357 -71.727197 
L 271.609079 -71.652926 
L 274.382801 -71.660515 
L 277.156524 -71.475087 
L 279.930246 -71.267197 
L 282.703968 -70.997087 
L 285.47769 -70.586762 
L 288.251412 -70.021992 
L 291.025134 -69.475351 
L 293.798856 -68.847015 
L 296.572578 -68.235836 
L 299.3463 -67.581583 
L 302.120022 -66.910762 
L 304.893744 -66.333638 
L 307.667466 -65.705844 
L 310.441188 -65.07805 
L 313.21491 -64.450257 
L 315.988633 -63.822463 
L 318.762355 -63.147058 
L 321.536077 -62.472407 
L 324.309799 -61.846383 
L 327.083521 -61.202182 
L 329.857243 -60.506199 
L 332.630965 -59.760425 
L 335.404687 -59.014651 
L 338.178409 -58.268877 
L 338.178409 -74.952609 
L 338.178409 -74.952609 
L 335.404687 -74.947977 
L 332.630965 -74.865814 
L 329.857243 -74.824163 
L 327.083521 -74.862407 
L 324.309799 -74.767193 
L 321.536077 -74.671074 
L 318.762355 -74.576967 
L 315.988633 -74.53244 
L 313.21491 -74.456725 
L 310.441188 -74.391325 
L 307.667466 -74.361698 
L 304.893744 -74.38127 
L 302.120022 -74.40292 
L 299.3463 -74.533477 
L 296.572578 -74.557732 
L 293.798856 -74.60945 
L 291.025134 -74.611372 
L 288.251412 -74.656674 
L 285.47769 -74.788486 
L 282.703968 -74.979291 
L 279.930246 -75.087831 
L 277.156524 -75.312089 
L 274.382801 -75.687531 
L 271.609079 -76.188819 
L 268.835357 -76.718326 
L 266.061635 -77.244748 
L 263.287913 -77.891587 
L 260.514191 -78.517013 
L 257.740469 -79.185866 
L 254.966747 -79.832804 
L 252.193025 -80.382472 
L 249.419303 -81.014755 
L 246.645581 -81.66763 
L 243.871859 -82.293401 
L 241.098137 -82.957189 
L 238.324415 -83.716732 
L 235.550693 -84.367125 
L 232.77697 -85.012682 
L 230.003248 -85.719455 
L 227.229526 -86.489732 
L 224.455804 -87.275813 
L 221.682082 -88.066091 
L 218.90836 -88.851382 
L 216.134638 -89.558618 
L 213.360916 -90.211591 
L 210.587194 -90.904972 
L 207.813472 -91.652141 
L 205.03975 -92.35555 
L 202.266028 -93.03711 
L 199.492306 -93.717776 
L 196.718584 -94.397949 
L 193.944861 -95.078122 
L 191.171139 -95.758294 
L 188.397417 -96.438467 
L 185.623695 -97.118639 
L 182.849973 -97.798812 
L 180.076251 -98.493684 
L 177.302529 -99.213184 
L 174.528807 -99.932684 
L 171.755085 -100.652184 
L 168.981363 -101.371684 
L 166.207641 -102.091184 
L 163.433919 -102.810684 
L 160.660197 -103.529672 
L 157.886475 -104.198904 
L 155.112753 -104.847574 
L 152.33903 -105.496244 
L 149.565308 -106.144915 
L 146.791586 -106.793585 
L 144.017864 -107.470076 
L 141.244142 -108.170546 
L 138.47042 -108.828275 
L 135.696698 -109.486004 
L 132.922976 -110.143734 
L 130.149254 -110.801463 
L 127.375532 -111.459192 
L 124.60181 -112.132136 
L 121.828088 -112.832294 
L 119.054366 -113.532451 
L 116.280644 -114.232296 
L 113.506921 -114.931768 
L 110.733199 -115.631241 
L 107.959477 -116.330714 
L 105.185755 -117.030186 
L 102.412033 -117.729659 
L 99.638311 -118.429132 
L 96.864589 -119.128604 
L 94.090867 -119.828077 
L 91.317145 -120.52755 
L 88.543423 -121.227022 
L 85.769701 -121.926495 
L 82.995979 -122.625967 
L 80.222257 -123.32544 
L 77.448535 -124.024913 
L 74.674813 -124.724385 
L 71.90109 -125.423858 
L 69.127368 -126.123331 
L 66.353646 -126.822803 
L 63.579924 -127.522276 
z
" id="maef06f4695" style="stroke:#ffffff;stroke-opacity:0.15;stroke-width:0.8;"/>
    </defs>
    <g clip-path="url(#p8c8362b1d8)">
     <use style="fill:#471365;fill-opacity:0.15;stroke:#ffffff;stroke-opacity:0.15;stroke-width:0.8;" x="0" xlink:href="#maef06f4695" y="432"/>
    </g>
   </g>
   <g id="line2d_12">
    <path clip-path="url(#p8c8362b1d8)" d="M 63.579924 343.471767 
L 66.353646 343.668884 
L 69.127368 343.866001 
L 71.90109 344.063118 
L 74.674813 344.260235 
L 77.448535 344.457352 
L 80.222257 344.654469 
L 82.995979 344.851586 
L 85.769701 345.048703 
L 88.543423 345.24582 
L 91.317145 345.442937 
L 94.090867 345.640054 
L 96.864589 345.837171 
L 99.638311 346.034289 
L 102.412033 346.231406 
L 105.185755 346.428523 
L 107.959477 346.62564 
L 110.733199 346.822757 
L 113.506921 347.019874 
L 116.280644 347.216991 
L 119.054366 347.414108 
L 121.828088 347.611225 
L 124.60181 347.808342 
L 127.375532 348.005459 
L 130.149254 348.202576 
L 132.922976 348.399693 
L 135.696698 348.59681 
L 138.47042 348.793927 
L 141.244142 348.991044 
L 144.017864 349.188161 
L 146.791586 349.385278 
L 149.565308 349.582395 
L 152.33903 349.779512 
L 155.112753 349.976629 
L 157.886475 350.173746 
L 160.660197 350.370863 
L 163.433919 350.56798 
L 166.207641 350.765098 
L 168.981363 350.962215 
L 171.755085 351.159332 
L 174.528807 351.356449 
L 177.302529 351.553566 
L 180.076251 351.750683 
L 182.849973 351.9478 
L 185.623695 352.144917 
L 188.397417 352.342034 
L 191.171139 352.539151 
L 193.944861 352.736268 
L 196.718584 352.933385 
L 199.492306 353.130502 
L 202.266028 353.327619 
L 205.03975 353.524736 
L 207.813472 353.721853 
L 210.587194 353.91897 
L 213.360916 354.116087 
L 216.134638 354.313204 
L 218.90836 354.510321 
L 221.682082 354.707438 
L 224.455804 354.904555 
L 227.229526 355.101672 
L 230.003248 355.29879 
L 232.77697 355.495907 
L 235.550693 355.693024 
L 238.324415 355.890141 
L 241.098137 356.087258 
L 243.871859 356.284375 
L 246.645581 356.481492 
L 249.419303 356.678609 
L 252.193025 356.875726 
L 254.966747 357.072843 
L 257.740469 357.26996 
L 260.514191 357.467077 
L 263.287913 357.664194 
L 266.061635 357.861311 
L 268.835357 358.058428 
L 271.609079 358.255545 
L 274.382801 358.452662 
L 277.156524 358.649779 
L 279.930246 358.846896 
L 282.703968 359.044013 
L 285.47769 359.24113 
L 288.251412 359.438247 
L 291.025134 359.635364 
L 293.798856 359.832481 
L 296.572578 360.029599 
L 299.3463 360.226716 
L 302.120022 360.423833 
L 304.893744 360.62095 
L 307.667466 360.818067 
L 310.441188 361.015184 
L 313.21491 361.212301 
L 315.988633 361.409418 
L 318.762355 361.606535 
L 321.536077 361.803652 
L 324.309799 362.000769 
L 327.083521 362.197886 
L 329.857243 362.395003 
L 332.630965 362.59212 
L 335.404687 362.789237 
L 338.178409 362.986354 
" style="fill:none;stroke:#471365;stroke-linecap:round;stroke-width:1.8;"/>
   </g>
   <g id="patch_3">
    <path d="M 49.85 389.9 
L 49.85 81.383333 
" style="fill:none;stroke:#262626;stroke-linecap:square;stroke-linejoin:miter;"/>
   </g>
   <g id="patch_4">
    <path d="M 49.85 389.9 
L 351.908333 389.9 
" style="fill:none;stroke:#262626;stroke-linecap:square;stroke-linejoin:miter;"/>
   </g>
   <g id="legend_1">
    <g id="patch_5">
     <path d="M 193.168708 101.340083 
L 345.748333 101.340083 
Q 347.508333 101.340083 347.508333 99.580083 
L 347.508333 87.543333 
Q 347.508333 85.783333 345.748333 85.783333 
L 193.168708 85.783333 
Q 191.408708 85.783333 191.408708 87.543333 
L 191.408708 99.580083 
Q 191.408708 101.340083 193.168708 101.340083 
z
" style="fill:#ffffff;opacity:0.8;stroke:#cccccc;stroke-linejoin:miter;stroke-width:0.8;"/>
    </g>
    <g id="line2d_13"/>
    <g id="line2d_14"/>
    <g id="text_14">
     <!-- pearsonr = -0.099; p = 0.14 -->
     <defs>
      <path d="M 18.109375 8.203125 
L 18.109375 -20.796875 
L 9.078125 -20.796875 
L 9.078125 54.6875 
L 18.109375 54.6875 
L 18.109375 46.390625 
Q 20.953125 51.265625 25.265625 53.625 
Q 29.59375 56 35.59375 56 
Q 45.5625 56 51.78125 48.09375 
Q 58.015625 40.1875 58.015625 27.296875 
Q 58.015625 14.40625 51.78125 6.484375 
Q 45.5625 -1.421875 35.59375 -1.421875 
Q 29.59375 -1.421875 25.265625 0.953125 
Q 20.953125 3.328125 18.109375 8.203125 
z
M 48.6875 27.296875 
Q 48.6875 37.203125 44.609375 42.84375 
Q 40.53125 48.484375 33.40625 48.484375 
Q 26.265625 48.484375 22.1875 42.84375 
Q 18.109375 37.203125 18.109375 27.296875 
Q 18.109375 17.390625 22.1875 11.75 
Q 26.265625 6.109375 33.40625 6.109375 
Q 40.53125 6.109375 44.609375 11.75 
Q 48.6875 17.390625 48.6875 27.296875 
z
" id="DejaVuSans-70"/>
      <path d="M 44.28125 53.078125 
L 44.28125 44.578125 
Q 40.484375 46.53125 36.375 47.5 
Q 32.28125 48.484375 27.875 48.484375 
Q 21.1875 48.484375 17.84375 46.4375 
Q 14.5 44.390625 14.5 40.28125 
Q 14.5 37.15625 16.890625 35.375 
Q 19.28125 33.59375 26.515625 31.984375 
L 29.59375 31.296875 
Q 39.15625 29.25 43.1875 25.515625 
Q 47.21875 21.78125 47.21875 15.09375 
Q 47.21875 7.46875 41.1875 3.015625 
Q 35.15625 -1.421875 24.609375 -1.421875 
Q 20.21875 -1.421875 15.453125 -0.5625 
Q 10.6875 0.296875 5.421875 2 
L 5.421875 11.28125 
Q 10.40625 8.6875 15.234375 7.390625 
Q 20.0625 6.109375 24.8125 6.109375 
Q 31.15625 6.109375 34.5625 8.28125 
Q 37.984375 10.453125 37.984375 14.40625 
Q 37.984375 18.0625 35.515625 20.015625 
Q 33.0625 21.96875 24.703125 23.78125 
L 21.578125 24.515625 
Q 13.234375 26.265625 9.515625 29.90625 
Q 5.8125 33.546875 5.8125 39.890625 
Q 5.8125 47.609375 11.28125 51.796875 
Q 16.75 56 26.8125 56 
Q 31.78125 56 36.171875 55.265625 
Q 40.578125 54.546875 44.28125 53.078125 
z
" id="DejaVuSans-73"/>
      <path d="M 10.59375 45.40625 
L 73.1875 45.40625 
L 73.1875 37.203125 
L 10.59375 37.203125 
z
M 10.59375 25.484375 
L 73.1875 25.484375 
L 73.1875 17.1875 
L 10.59375 17.1875 
z
" id="DejaVuSans-3d"/>
      <path d="M 4.890625 31.390625 
L 31.203125 31.390625 
L 31.203125 23.390625 
L 4.890625 23.390625 
z
" id="DejaVuSans-2d"/>
      <path d="M 10.6875 12.40625 
L 21 12.40625 
L 21 0 
L 10.6875 0 
z
" id="DejaVuSans-2e"/>
      <path d="M 11.71875 51.703125 
L 22.015625 51.703125 
L 22.015625 39.3125 
L 11.71875 39.3125 
z
M 11.71875 12.40625 
L 22.015625 12.40625 
L 22.015625 4 
L 14.015625 -11.625 
L 7.71875 -11.625 
L 11.71875 4 
z
" id="DejaVuSans-3b"/>
     </defs>
     <g style="fill:#262626;" transform="translate(219.568708 95.989958)scale(0.088 -0.088)">
      <use xlink:href="#DejaVuSans-70"/>
      <use x="63.476562" xlink:href="#DejaVuSans-65"/>
      <use x="125" xlink:href="#DejaVuSans-61"/>
      <use x="186.279297" xlink:href="#DejaVuSans-72"/>
      <use x="227.392578" xlink:href="#DejaVuSans-73"/>
      <use x="279.492188" xlink:href="#DejaVuSans-6f"/>
      <use x="340.673828" xlink:href="#DejaVuSans-6e"/>
      <use x="404.052734" xlink:href="#DejaVuSans-72"/>
      <use x="445.166016" xlink:href="#DejaVuSans-20"/>
      <use x="476.953125" xlink:href="#DejaVuSans-3d"/>
      <use x="560.742188" xlink:href="#DejaVuSans-20"/>
      <use x="592.529297" xlink:href="#DejaVuSans-2d"/>
      <use x="628.613281" xlink:href="#DejaVuSans-30"/>
      <use x="692.236328" xlink:href="#DejaVuSans-2e"/>
      <use x="724.023438" xlink:href="#DejaVuSans-30"/>
      <use x="787.646484" xlink:href="#DejaVuSans-39"/>
      <use x="851.269531" xlink:href="#DejaVuSans-39"/>
      <use x="914.892578" xlink:href="#DejaVuSans-3b"/>
      <use x="948.583984" xlink:href="#DejaVuSans-20"/>
      <use x="980.371094" xlink:href="#DejaVuSans-70"/>
      <use x="1043.847656" xlink:href="#DejaVuSans-20"/>
      <use x="1075.634766" xlink:href="#DejaVuSans-3d"/>
      <use x="1159.423828" xlink:href="#DejaVuSans-20"/>
      <use x="1191.210938" xlink:href="#DejaVuSans-30"/>
      <use x="1254.833984" xlink:href="#DejaVuSans-2e"/>
      <use x="1286.621094" xlink:href="#DejaVuSans-31"/>
      <use x="1350.244141" xlink:href="#DejaVuSans-34"/>
     </g>
    </g>
   </g>
  </g>
  <g id="axes_2">
   <g id="patch_6">
    <path d="M 49.85 60.983333 
L 351.908333 60.983333 
L 351.908333 15.6 
L 49.85 15.6 
z
" style="fill:#ffffff;"/>
   </g>
   <g id="matplotlib.axis_3">
    <g id="xtick_6">
     <g id="line2d_15">
      <g>
       <use style="fill:#262626;stroke:#262626;" x="59.211688" xlink:href="#md9a74f873e" y="60.983333"/>
      </g>
     </g>
    </g>
    <g id="xtick_7">
     <g id="line2d_16">
      <g>
       <use style="fill:#262626;stroke:#262626;" x="119.897815" xlink:href="#md9a74f873e" y="60.983333"/>
      </g>
     </g>
    </g>
    <g id="xtick_8">
     <g id="line2d_17">
      <g>
       <use style="fill:#262626;stroke:#262626;" x="180.583942" xlink:href="#md9a74f873e" y="60.983333"/>
      </g>
     </g>
    </g>
    <g id="xtick_9">
     <g id="line2d_18">
      <g>
       <use style="fill:#262626;stroke:#262626;" x="241.270069" xlink:href="#md9a74f873e" y="60.983333"/>
      </g>
     </g>
    </g>
    <g id="xtick_10">
     <g id="line2d_19">
      <g>
       <use style="fill:#262626;stroke:#262626;" x="301.956196" xlink:href="#md9a74f873e" y="60.983333"/>
      </g>
     </g>
    </g>
   </g>
   <g id="matplotlib.axis_4">
    <g id="ytick_7"/>
    <g id="ytick_8"/>
   </g>
   <g id="patch_7">
    <path clip-path="url(#pc1d8593653)" d="M 108.519963 60.983333 
L 117.755883 60.983333 
L 117.755883 60.274772 
L 108.519963 60.274772 
z
" style="fill:#471365;opacity:0.4;stroke:#ffffff;stroke-linejoin:miter;stroke-width:0.8;"/>
   </g>
   <g id="patch_8">
    <path clip-path="url(#pc1d8593653)" d="M 117.755883 60.983333 
L 126.991804 60.983333 
L 126.991804 60.274772 
L 117.755883 60.274772 
z
" style="fill:#471365;opacity:0.4;stroke:#ffffff;stroke-linejoin:miter;stroke-width:0.8;"/>
   </g>
   <g id="patch_9">
    <path clip-path="url(#pc1d8593653)" d="M 126.991804 60.983333 
L 136.227724 60.983333 
L 136.227724 60.274772 
L 126.991804 60.274772 
z
" style="fill:#471365;opacity:0.4;stroke:#ffffff;stroke-linejoin:miter;stroke-width:0.8;"/>
   </g>
   <g id="patch_10">
    <path clip-path="url(#pc1d8593653)" d="M 136.227724 60.983333 
L 145.463644 60.983333 
L 145.463644 60.983333 
L 136.227724 60.983333 
z
" style="fill:#471365;opacity:0.4;stroke:#ffffff;stroke-linejoin:miter;stroke-width:0.8;"/>
   </g>
   <g id="patch_11">
    <path clip-path="url(#pc1d8593653)" d="M 145.463644 60.983333 
L 154.699565 60.983333 
L 154.699565 60.983333 
L 145.463644 60.983333 
z
" style="fill:#471365;opacity:0.4;stroke:#ffffff;stroke-linejoin:miter;stroke-width:0.8;"/>
   </g>
   <g id="patch_12">
    <path clip-path="url(#pc1d8593653)" d="M 154.699565 60.983333 
L 163.935485 60.983333 
L 163.935485 59.566211 
L 154.699565 59.566211 
z
" style="fill:#471365;opacity:0.4;stroke:#ffffff;stroke-linejoin:miter;stroke-width:0.8;"/>
   </g>
   <g id="patch_13">
    <path clip-path="url(#pc1d8593653)" d="M 163.935485 60.983333 
L 173.171406 60.983333 
L 173.171406 60.983333 
L 163.935485 60.983333 
z
" style="fill:#471365;opacity:0.4;stroke:#ffffff;stroke-linejoin:miter;stroke-width:0.8;"/>
   </g>
   <g id="patch_14">
    <path clip-path="url(#pc1d8593653)" d="M 173.171406 60.983333 
L 182.407326 60.983333 
L 182.407326 59.566211 
L 173.171406 59.566211 
z
" style="fill:#471365;opacity:0.4;stroke:#ffffff;stroke-linejoin:miter;stroke-width:0.8;"/>
   </g>
   <g id="patch_15">
    <path clip-path="url(#pc1d8593653)" d="M 182.407326 60.983333 
L 191.643246 60.983333 
L 191.643246 59.566211 
L 182.407326 59.566211 
z
" style="fill:#471365;opacity:0.4;stroke:#ffffff;stroke-linejoin:miter;stroke-width:0.8;"/>
   </g>
   <g id="patch_16">
    <path clip-path="url(#pc1d8593653)" d="M 191.643246 60.983333 
L 200.879167 60.983333 
L 200.879167 60.274772 
L 191.643246 60.274772 
z
" style="fill:#471365;opacity:0.4;stroke:#ffffff;stroke-linejoin:miter;stroke-width:0.8;"/>
   </g>
   <g id="patch_17">
    <path clip-path="url(#pc1d8593653)" d="M 200.879167 60.983333 
L 210.115087 60.983333 
L 210.115087 56.731967 
L 200.879167 56.731967 
z
" style="fill:#471365;opacity:0.4;stroke:#ffffff;stroke-linejoin:miter;stroke-width:0.8;"/>
   </g>
   <g id="patch_18">
    <path clip-path="url(#pc1d8593653)" d="M 210.115087 60.983333 
L 219.351007 60.983333 
L 219.351007 56.731967 
L 210.115087 56.731967 
z
" style="fill:#471365;opacity:0.4;stroke:#ffffff;stroke-linejoin:miter;stroke-width:0.8;"/>
   </g>
   <g id="patch_19">
    <path clip-path="url(#pc1d8593653)" d="M 219.351007 60.983333 
L 228.586928 60.983333 
L 228.586928 57.440528 
L 219.351007 57.440528 
z
" style="fill:#471365;opacity:0.4;stroke:#ffffff;stroke-linejoin:miter;stroke-width:0.8;"/>
   </g>
   <g id="patch_20">
    <path clip-path="url(#pc1d8593653)" d="M 228.586928 60.983333 
L 237.822848 60.983333 
L 237.822848 56.023406 
L 228.586928 56.023406 
z
" style="fill:#471365;opacity:0.4;stroke:#ffffff;stroke-linejoin:miter;stroke-width:0.8;"/>
   </g>
   <g id="patch_21">
    <path clip-path="url(#pc1d8593653)" d="M 237.822848 60.983333 
L 247.058768 60.983333 
L 247.058768 54.606284 
L 237.822848 54.606284 
z
" style="fill:#471365;opacity:0.4;stroke:#ffffff;stroke-linejoin:miter;stroke-width:0.8;"/>
   </g>
   <g id="patch_22">
    <path clip-path="url(#pc1d8593653)" d="M 247.058768 60.983333 
L 256.294689 60.983333 
L 256.294689 51.063479 
L 247.058768 51.063479 
z
" style="fill:#471365;opacity:0.4;stroke:#ffffff;stroke-linejoin:miter;stroke-width:0.8;"/>
   </g>
   <g id="patch_23">
    <path clip-path="url(#pc1d8593653)" d="M 256.294689 60.983333 
L 265.530609 60.983333 
L 265.530609 42.560747 
L 256.294689 42.560747 
z
" style="fill:#471365;opacity:0.4;stroke:#ffffff;stroke-linejoin:miter;stroke-width:0.8;"/>
   </g>
   <g id="patch_24">
    <path clip-path="url(#pc1d8593653)" d="M 265.530609 60.983333 
L 274.76653 60.983333 
L 274.76653 39.017942 
L 265.530609 39.017942 
z
" style="fill:#471365;opacity:0.4;stroke:#ffffff;stroke-linejoin:miter;stroke-width:0.8;"/>
   </g>
   <g id="patch_25">
    <path clip-path="url(#pc1d8593653)" d="M 274.76653 60.983333 
L 284.00245 60.983333 
L 284.00245 28.389526 
L 274.76653 28.389526 
z
" style="fill:#471365;opacity:0.4;stroke:#ffffff;stroke-linejoin:miter;stroke-width:0.8;"/>
   </g>
   <g id="patch_26">
    <path clip-path="url(#pc1d8593653)" d="M 284.00245 60.983333 
L 293.23837 60.983333 
L 293.23837 17.761111 
L 284.00245 17.761111 
z
" style="fill:#471365;opacity:0.4;stroke:#ffffff;stroke-linejoin:miter;stroke-width:0.8;"/>
   </g>
   <g id="line2d_20">
    <path clip-path="url(#pc1d8593653)" d="M 76.061674 60.980587 
L 78.583239 60.977958 
L 81.104805 60.973359 
L 83.62637 60.965775 
L 86.147936 60.953999 
L 88.669501 60.936789 
L 91.191067 60.913126 
L 93.712632 60.882526 
L 96.234198 60.845303 
L 98.755763 60.802672 
L 101.277329 60.756606 
L 103.798894 60.709451 
L 106.32046 60.663414 
L 108.842025 60.620148 
L 111.363591 60.580607 
L 113.885156 60.545264 
L 116.406722 60.514585 
L 118.928287 60.489497 
L 121.449853 60.471562 
L 123.971418 60.462667 
L 126.492984 60.464271 
L 129.014549 60.476477 
L 131.536115 60.497304 
L 134.05768 60.522551 
L 136.579246 60.54641 
L 139.100811 60.562764 
L 141.622377 60.566799 
L 144.143943 60.556415 
L 146.665508 60.532915 
L 149.187074 60.500632 
L 151.708639 60.46551 
L 154.230205 60.433026 
L 156.75177 60.406158 
L 159.273336 60.384121 
L 161.794901 60.362413 
L 164.316467 60.334218 
L 166.838032 60.292727 
L 169.359598 60.233544 
L 171.881163 60.156282 
L 174.402729 60.064709 
L 176.924294 59.965313 
L 179.44586 59.864744 
L 181.967425 59.766994 
L 184.488991 59.671352 
L 187.010556 59.571919 
L 189.532122 59.458998 
L 192.053687 59.322004 
L 194.575253 59.152999 
L 197.096818 58.949661 
L 199.618384 58.716618 
L 202.139949 58.464633 
L 204.661515 58.207834 
L 207.18308 57.959904 
L 209.704646 57.730526 
L 212.226211 57.523178 
L 214.747777 57.334861 
L 217.269343 57.157466 
L 219.790908 56.979908 
L 222.312474 56.789885 
L 224.834039 56.574484 
L 227.355605 56.319549 
L 229.87717 56.008482 
L 232.398736 55.621588 
L 234.920301 55.136955 
L 237.441867 54.533236 
L 239.963432 53.793812 
L 242.484998 52.911052 
L 245.006563 51.88909 
L 247.528129 50.743844 
L 250.049694 49.49983 
L 252.57126 48.184452 
L 255.092825 46.821441 
L 257.614391 45.425725 
L 260.135956 44.001836 
L 262.657522 42.547114 
L 265.179087 41.059632 
L 267.700653 39.549248 
L 270.222218 38.049087 
L 272.743784 36.624129 
L 275.265349 35.373714 
L 277.786915 34.4256 
L 280.30848 33.920772 
L 282.830046 33.990393 
L 285.351612 34.728792 
L 287.873177 36.168577 
L 290.394743 38.264765 
L 292.916308 40.893517 
L 295.437874 43.867571 
L 297.959439 46.965617 
L 300.481005 49.968505 
L 303.00257 52.693094 
L 305.524136 55.015546 
L 308.045701 56.879676 
L 310.567267 58.290739 
L 313.088832 59.299074 
L 315.610398 59.979784 
L 318.131963 60.414138 
L 320.653529 60.676203 
L 323.175094 60.825753 
L 325.69666 60.906489 
" style="fill:none;stroke:#471365;stroke-linecap:round;stroke-width:1.2;"/>
   </g>
   <g id="patch_27">
    <path d="M 49.85 60.983333 
L 351.908333 60.983333 
" style="fill:none;stroke:#262626;stroke-linecap:square;stroke-linejoin:miter;"/>
   </g>
  </g>
  <g id="axes_3">
   <g id="patch_28">
    <path d="M 372.308333 389.9 
L 416.4 389.9 
L 416.4 81.383333 
L 372.308333 81.383333 
z
" style="fill:#ffffff;"/>
   </g>
   <g id="matplotlib.axis_5">
    <g id="xtick_11"/>
    <g id="xtick_12"/>
   </g>
   <g id="matplotlib.axis_6">
    <g id="ytick_9">
     <g id="line2d_21">
      <g>
       <use style="fill:#262626;stroke:#262626;" x="372.308333" xlink:href="#m10d7a20cff" y="389.9"/>
      </g>
     </g>
    </g>
    <g id="ytick_10">
     <g id="line2d_22">
      <g>
       <use style="fill:#262626;stroke:#262626;" x="372.308333" xlink:href="#m10d7a20cff" y="333.806061"/>
      </g>
     </g>
    </g>
    <g id="ytick_11">
     <g id="line2d_23">
      <g>
       <use style="fill:#262626;stroke:#262626;" x="372.308333" xlink:href="#m10d7a20cff" y="277.712121"/>
      </g>
     </g>
    </g>
    <g id="ytick_12">
     <g id="line2d_24">
      <g>
       <use style="fill:#262626;stroke:#262626;" x="372.308333" xlink:href="#m10d7a20cff" y="221.618182"/>
      </g>
     </g>
    </g>
    <g id="ytick_13">
     <g id="line2d_25">
      <g>
       <use style="fill:#262626;stroke:#262626;" x="372.308333" xlink:href="#m10d7a20cff" y="165.524242"/>
      </g>
     </g>
    </g>
    <g id="ytick_14">
     <g id="line2d_26">
      <g>
       <use style="fill:#262626;stroke:#262626;" x="372.308333" xlink:href="#m10d7a20cff" y="109.430303"/>
      </g>
     </g>
    </g>
   </g>
   <g id="patch_29">
    <path clip-path="url(#p473d93019a)" d="M 372.308333 374.962107 
L 375.017499 374.962107 
L 375.017499 369.688508 
L 372.308333 369.688508 
z
" style="fill:#471365;opacity:0.4;stroke:#ffffff;stroke-linejoin:miter;stroke-width:0.8;"/>
   </g>
   <g id="patch_30">
    <path clip-path="url(#p473d93019a)" d="M 372.308333 369.688508 
L 400.303042 369.688508 
L 400.303042 364.41491 
L 372.308333 364.41491 
z
" style="fill:#471365;opacity:0.4;stroke:#ffffff;stroke-linejoin:miter;stroke-width:0.8;"/>
   </g>
   <g id="patch_31">
    <path clip-path="url(#p473d93019a)" d="M 372.308333 364.41491 
L 414.300397 364.41491 
L 414.300397 359.141311 
L 372.308333 359.141311 
z
" style="fill:#471365;opacity:0.4;stroke:#ffffff;stroke-linejoin:miter;stroke-width:0.8;"/>
   </g>
   <g id="patch_32">
    <path clip-path="url(#p473d93019a)" d="M 372.308333 359.141311 
L 387.208743 359.141311 
L 387.208743 353.867712 
L 372.308333 353.867712 
z
" style="fill:#471365;opacity:0.4;stroke:#ffffff;stroke-linejoin:miter;stroke-width:0.8;"/>
   </g>
   <g id="patch_33">
    <path clip-path="url(#p473d93019a)" d="M 372.308333 353.867712 
L 376.372081 353.867712 
L 376.372081 348.594114 
L 372.308333 348.594114 
z
" style="fill:#471365;opacity:0.4;stroke:#ffffff;stroke-linejoin:miter;stroke-width:0.8;"/>
   </g>
   <g id="patch_34">
    <path clip-path="url(#p473d93019a)" d="M 372.308333 348.594114 
L 373.211388 348.594114 
L 373.211388 343.320515 
L 372.308333 343.320515 
z
" style="fill:#471365;opacity:0.4;stroke:#ffffff;stroke-linejoin:miter;stroke-width:0.8;"/>
   </g>
   <g id="patch_35">
    <path clip-path="url(#p473d93019a)" d="M 372.308333 343.320515 
L 373.662916 343.320515 
L 373.662916 338.046916 
L 372.308333 338.046916 
z
" style="fill:#471365;opacity:0.4;stroke:#ffffff;stroke-linejoin:miter;stroke-width:0.8;"/>
   </g>
   <g id="patch_36">
    <path clip-path="url(#p473d93019a)" d="M 372.308333 338.046916 
L 372.759861 338.046916 
L 372.759861 332.773317 
L 372.308333 332.773317 
z
" style="fill:#471365;opacity:0.4;stroke:#ffffff;stroke-linejoin:miter;stroke-width:0.8;"/>
   </g>
   <g id="patch_37">
    <path clip-path="url(#p473d93019a)" d="M 372.308333 332.773317 
L 373.211388 332.773317 
L 373.211388 327.499719 
L 372.308333 327.499719 
z
" style="fill:#471365;opacity:0.4;stroke:#ffffff;stroke-linejoin:miter;stroke-width:0.8;"/>
   </g>
   <g id="patch_38">
    <path clip-path="url(#p473d93019a)" d="M 372.308333 327.499719 
L 372.759861 327.499719 
L 372.759861 322.22612 
L 372.308333 322.22612 
z
" style="fill:#471365;opacity:0.4;stroke:#ffffff;stroke-linejoin:miter;stroke-width:0.8;"/>
   </g>
   <g id="patch_39">
    <path clip-path="url(#p473d93019a)" d="M 372.308333 322.22612 
L 373.211388 322.22612 
L 373.211388 316.952521 
L 372.308333 316.952521 
z
" style="fill:#471365;opacity:0.4;stroke:#ffffff;stroke-linejoin:miter;stroke-width:0.8;"/>
   </g>
   <g id="patch_40">
    <path clip-path="url(#p473d93019a)" d="M 372.308333 316.952521 
L 372.759861 316.952521 
L 372.759861 311.678923 
L 372.308333 311.678923 
z
" style="fill:#471365;opacity:0.4;stroke:#ffffff;stroke-linejoin:miter;stroke-width:0.8;"/>
   </g>
   <g id="patch_41">
    <path clip-path="url(#p473d93019a)" d="M 372.308333 311.678923 
L 372.308333 311.678923 
L 372.308333 306.405324 
L 372.308333 306.405324 
z
" style="fill:#471365;opacity:0.4;stroke:#ffffff;stroke-linejoin:miter;stroke-width:0.8;"/>
   </g>
   <g id="patch_42">
    <path clip-path="url(#p473d93019a)" d="M 372.308333 306.405324 
L 372.759861 306.405324 
L 372.759861 301.131725 
L 372.308333 301.131725 
z
" style="fill:#471365;opacity:0.4;stroke:#ffffff;stroke-linejoin:miter;stroke-width:0.8;"/>
   </g>
   <g id="patch_43">
    <path clip-path="url(#p473d93019a)" d="M 372.308333 301.131725 
L 372.759861 301.131725 
L 372.759861 295.858126 
L 372.308333 295.858126 
z
" style="fill:#471365;opacity:0.4;stroke:#ffffff;stroke-linejoin:miter;stroke-width:0.8;"/>
   </g>
   <g id="patch_44">
    <path clip-path="url(#p473d93019a)" d="M 372.308333 295.858126 
L 372.759861 295.858126 
L 372.759861 290.584528 
L 372.308333 290.584528 
z
" style="fill:#471365;opacity:0.4;stroke:#ffffff;stroke-linejoin:miter;stroke-width:0.8;"/>
   </g>
   <g id="patch_45">
    <path clip-path="url(#p473d93019a)" d="M 372.308333 290.584528 
L 372.308333 290.584528 
L 372.308333 285.310929 
L 372.308333 285.310929 
z
" style="fill:#471365;opacity:0.4;stroke:#ffffff;stroke-linejoin:miter;stroke-width:0.8;"/>
   </g>
   <g id="patch_46">
    <path clip-path="url(#p473d93019a)" d="M 372.308333 285.310929 
L 372.308333 285.310929 
L 372.308333 280.03733 
L 372.308333 280.03733 
z
" style="fill:#471365;opacity:0.4;stroke:#ffffff;stroke-linejoin:miter;stroke-width:0.8;"/>
   </g>
   <g id="patch_47">
    <path clip-path="url(#p473d93019a)" d="M 372.308333 280.03733 
L 372.308333 280.03733 
L 372.308333 274.763732 
L 372.308333 274.763732 
z
" style="fill:#471365;opacity:0.4;stroke:#ffffff;stroke-linejoin:miter;stroke-width:0.8;"/>
   </g>
   <g id="patch_48">
    <path clip-path="url(#p473d93019a)" d="M 372.308333 274.763732 
L 372.308333 274.763732 
L 372.308333 269.490133 
L 372.308333 269.490133 
z
" style="fill:#471365;opacity:0.4;stroke:#ffffff;stroke-linejoin:miter;stroke-width:0.8;"/>
   </g>
   <g id="patch_49">
    <path clip-path="url(#p473d93019a)" d="M 372.308333 269.490133 
L 372.759861 269.490133 
L 372.759861 264.216534 
L 372.308333 264.216534 
z
" style="fill:#471365;opacity:0.4;stroke:#ffffff;stroke-linejoin:miter;stroke-width:0.8;"/>
   </g>
   <g id="patch_50">
    <path clip-path="url(#p473d93019a)" d="M 372.308333 264.216534 
L 372.308333 264.216534 
L 372.308333 258.942935 
L 372.308333 258.942935 
z
" style="fill:#471365;opacity:0.4;stroke:#ffffff;stroke-linejoin:miter;stroke-width:0.8;"/>
   </g>
   <g id="patch_51">
    <path clip-path="url(#p473d93019a)" d="M 372.308333 258.942935 
L 372.308333 258.942935 
L 372.308333 253.669337 
L 372.308333 253.669337 
z
" style="fill:#471365;opacity:0.4;stroke:#ffffff;stroke-linejoin:miter;stroke-width:0.8;"/>
   </g>
   <g id="patch_52">
    <path clip-path="url(#p473d93019a)" d="M 372.308333 253.669337 
L 372.308333 253.669337 
L 372.308333 248.395738 
L 372.308333 248.395738 
z
" style="fill:#471365;opacity:0.4;stroke:#ffffff;stroke-linejoin:miter;stroke-width:0.8;"/>
   </g>
   <g id="patch_53">
    <path clip-path="url(#p473d93019a)" d="M 372.308333 248.395738 
L 372.308333 248.395738 
L 372.308333 243.122139 
L 372.308333 243.122139 
z
" style="fill:#471365;opacity:0.4;stroke:#ffffff;stroke-linejoin:miter;stroke-width:0.8;"/>
   </g>
   <g id="patch_54">
    <path clip-path="url(#p473d93019a)" d="M 372.308333 243.122139 
L 372.308333 243.122139 
L 372.308333 237.848541 
L 372.308333 237.848541 
z
" style="fill:#471365;opacity:0.4;stroke:#ffffff;stroke-linejoin:miter;stroke-width:0.8;"/>
   </g>
   <g id="patch_55">
    <path clip-path="url(#p473d93019a)" d="M 372.308333 237.848541 
L 372.308333 237.848541 
L 372.308333 232.574942 
L 372.308333 232.574942 
z
" style="fill:#471365;opacity:0.4;stroke:#ffffff;stroke-linejoin:miter;stroke-width:0.8;"/>
   </g>
   <g id="patch_56">
    <path clip-path="url(#p473d93019a)" d="M 372.308333 232.574942 
L 372.308333 232.574942 
L 372.308333 227.301343 
L 372.308333 227.301343 
z
" style="fill:#471365;opacity:0.4;stroke:#ffffff;stroke-linejoin:miter;stroke-width:0.8;"/>
   </g>
   <g id="patch_57">
    <path clip-path="url(#p473d93019a)" d="M 372.308333 227.301343 
L 372.759861 227.301343 
L 372.759861 222.027744 
L 372.308333 222.027744 
z
" style="fill:#471365;opacity:0.4;stroke:#ffffff;stroke-linejoin:miter;stroke-width:0.8;"/>
   </g>
   <g id="patch_58">
    <path clip-path="url(#p473d93019a)" d="M 372.308333 222.027744 
L 372.308333 222.027744 
L 372.308333 216.754146 
L 372.308333 216.754146 
z
" style="fill:#471365;opacity:0.4;stroke:#ffffff;stroke-linejoin:miter;stroke-width:0.8;"/>
   </g>
   <g id="patch_59">
    <path clip-path="url(#p473d93019a)" d="M 372.308333 216.754146 
L 372.308333 216.754146 
L 372.308333 211.480547 
L 372.308333 211.480547 
z
" style="fill:#471365;opacity:0.4;stroke:#ffffff;stroke-linejoin:miter;stroke-width:0.8;"/>
   </g>
   <g id="patch_60">
    <path clip-path="url(#p473d93019a)" d="M 372.308333 211.480547 
L 372.308333 211.480547 
L 372.308333 206.206948 
L 372.308333 206.206948 
z
" style="fill:#471365;opacity:0.4;stroke:#ffffff;stroke-linejoin:miter;stroke-width:0.8;"/>
   </g>
   <g id="patch_61">
    <path clip-path="url(#p473d93019a)" d="M 372.308333 206.206948 
L 372.308333 206.206948 
L 372.308333 200.93335 
L 372.308333 200.93335 
z
" style="fill:#471365;opacity:0.4;stroke:#ffffff;stroke-linejoin:miter;stroke-width:0.8;"/>
   </g>
   <g id="patch_62">
    <path clip-path="url(#p473d93019a)" d="M 372.308333 200.93335 
L 372.308333 200.93335 
L 372.308333 195.659751 
L 372.308333 195.659751 
z
" style="fill:#471365;opacity:0.4;stroke:#ffffff;stroke-linejoin:miter;stroke-width:0.8;"/>
   </g>
   <g id="patch_63">
    <path clip-path="url(#p473d93019a)" d="M 372.308333 195.659751 
L 372.308333 195.659751 
L 372.308333 190.386152 
L 372.308333 190.386152 
z
" style="fill:#471365;opacity:0.4;stroke:#ffffff;stroke-linejoin:miter;stroke-width:0.8;"/>
   </g>
   <g id="patch_64">
    <path clip-path="url(#p473d93019a)" d="M 372.308333 190.386152 
L 372.308333 190.386152 
L 372.308333 185.112553 
L 372.308333 185.112553 
z
" style="fill:#471365;opacity:0.4;stroke:#ffffff;stroke-linejoin:miter;stroke-width:0.8;"/>
   </g>
   <g id="patch_65">
    <path clip-path="url(#p473d93019a)" d="M 372.308333 185.112553 
L 372.308333 185.112553 
L 372.308333 179.838955 
L 372.308333 179.838955 
z
" style="fill:#471365;opacity:0.4;stroke:#ffffff;stroke-linejoin:miter;stroke-width:0.8;"/>
   </g>
   <g id="patch_66">
    <path clip-path="url(#p473d93019a)" d="M 372.308333 179.838955 
L 372.308333 179.838955 
L 372.308333 174.565356 
L 372.308333 174.565356 
z
" style="fill:#471365;opacity:0.4;stroke:#ffffff;stroke-linejoin:miter;stroke-width:0.8;"/>
   </g>
   <g id="patch_67">
    <path clip-path="url(#p473d93019a)" d="M 372.308333 174.565356 
L 372.308333 174.565356 
L 372.308333 169.291757 
L 372.308333 169.291757 
z
" style="fill:#471365;opacity:0.4;stroke:#ffffff;stroke-linejoin:miter;stroke-width:0.8;"/>
   </g>
   <g id="patch_68">
    <path clip-path="url(#p473d93019a)" d="M 372.308333 169.291757 
L 372.308333 169.291757 
L 372.308333 164.018159 
L 372.308333 164.018159 
z
" style="fill:#471365;opacity:0.4;stroke:#ffffff;stroke-linejoin:miter;stroke-width:0.8;"/>
   </g>
   <g id="patch_69">
    <path clip-path="url(#p473d93019a)" d="M 372.308333 164.018159 
L 372.308333 164.018159 
L 372.308333 158.74456 
L 372.308333 158.74456 
z
" style="fill:#471365;opacity:0.4;stroke:#ffffff;stroke-linejoin:miter;stroke-width:0.8;"/>
   </g>
   <g id="patch_70">
    <path clip-path="url(#p473d93019a)" d="M 372.308333 158.74456 
L 372.308333 158.74456 
L 372.308333 153.470961 
L 372.308333 153.470961 
z
" style="fill:#471365;opacity:0.4;stroke:#ffffff;stroke-linejoin:miter;stroke-width:0.8;"/>
   </g>
   <g id="patch_71">
    <path clip-path="url(#p473d93019a)" d="M 372.308333 153.470961 
L 372.308333 153.470961 
L 372.308333 148.197362 
L 372.308333 148.197362 
z
" style="fill:#471365;opacity:0.4;stroke:#ffffff;stroke-linejoin:miter;stroke-width:0.8;"/>
   </g>
   <g id="patch_72">
    <path clip-path="url(#p473d93019a)" d="M 372.308333 148.197362 
L 372.308333 148.197362 
L 372.308333 142.923764 
L 372.308333 142.923764 
z
" style="fill:#471365;opacity:0.4;stroke:#ffffff;stroke-linejoin:miter;stroke-width:0.8;"/>
   </g>
   <g id="patch_73">
    <path clip-path="url(#p473d93019a)" d="M 372.308333 142.923764 
L 372.308333 142.923764 
L 372.308333 137.650165 
L 372.308333 137.650165 
z
" style="fill:#471365;opacity:0.4;stroke:#ffffff;stroke-linejoin:miter;stroke-width:0.8;"/>
   </g>
   <g id="patch_74">
    <path clip-path="url(#p473d93019a)" d="M 372.308333 137.650165 
L 372.308333 137.650165 
L 372.308333 132.376566 
L 372.308333 132.376566 
z
" style="fill:#471365;opacity:0.4;stroke:#ffffff;stroke-linejoin:miter;stroke-width:0.8;"/>
   </g>
   <g id="patch_75">
    <path clip-path="url(#p473d93019a)" d="M 372.308333 132.376566 
L 372.308333 132.376566 
L 372.308333 127.102968 
L 372.308333 127.102968 
z
" style="fill:#471365;opacity:0.4;stroke:#ffffff;stroke-linejoin:miter;stroke-width:0.8;"/>
   </g>
   <g id="patch_76">
    <path clip-path="url(#p473d93019a)" d="M 372.308333 127.102968 
L 372.308333 127.102968 
L 372.308333 121.829369 
L 372.308333 121.829369 
z
" style="fill:#471365;opacity:0.4;stroke:#ffffff;stroke-linejoin:miter;stroke-width:0.8;"/>
   </g>
   <g id="patch_77">
    <path clip-path="url(#p473d93019a)" d="M 372.308333 121.829369 
L 372.308333 121.829369 
L 372.308333 116.55577 
L 372.308333 116.55577 
z
" style="fill:#471365;opacity:0.4;stroke:#ffffff;stroke-linejoin:miter;stroke-width:0.8;"/>
   </g>
   <g id="patch_78">
    <path clip-path="url(#p473d93019a)" d="M 372.308333 116.55577 
L 372.759861 116.55577 
L 372.759861 111.282171 
L 372.308333 111.282171 
z
" style="fill:#471365;opacity:0.4;stroke:#ffffff;stroke-linejoin:miter;stroke-width:0.8;"/>
   </g>
   <g id="line2d_27">
    <path clip-path="url(#p473d93019a)" d="M 372.313618 398.171778 
L 372.329497 395.039463 
L 372.383305 391.907147 
L 372.543358 388.774831 
L 372.959576 385.642515 
L 373.90009 382.510199 
L 375.731436 379.377883 
L 378.769946 376.245567 
L 382.995245 373.113251 
L 387.779862 369.980935 
L 391.915397 366.848619 
L 394.087847 363.716303 
L 393.57256 360.583987 
L 390.644286 357.451671 
L 386.381754 354.319355 
L 382.045507 351.187039 
L 378.509435 348.054723 
L 376.070657 344.922407 
L 374.599992 341.790091 
L 373.799623 338.657776 
L 373.388583 335.52546 
L 373.175275 332.393144 
L 373.055609 329.260828 
L 372.982717 326.128512 
L 372.935969 322.996196 
L 372.901737 319.86388 
L 372.868263 316.731564 
L 372.828821 313.599248 
L 372.784104 310.466932 
L 372.739246 307.334616 
L 372.698273 304.2023 
L 372.660954 301.069984 
L 372.62356 297.937668 
L 372.581696 294.805352 
L 372.533383 291.673036 
L 372.481366 288.54072 
L 372.433346 285.408405 
L 372.399132 282.276089 
L 372.385678 279.143773 
L 372.392683 276.011457 
L 372.411411 272.879141 
L 372.428082 269.746825 
L 372.430781 266.614509 
L 372.415793 263.482193 
L 372.388685 260.349877 
L 372.359463 257.217561 
L 372.336207 254.085245 
L 372.322102 250.952929 
L 372.316818 247.820613 
L 372.319565 244.688297 
L 372.330808 241.555981 
L 372.351332 238.423665 
L 372.379328 235.291349 
L 372.408099 232.159033 
L 372.427451 229.026718 
L 372.429147 225.894402 
L 372.412418 222.762086 
L 372.384505 219.62977 
L 372.355684 216.497454 
L 372.333337 213.365138 
L 372.319548 210.232822 
L 372.312606 207.100506 
L 372.309716 203.96819 
L 372.308714 200.835874 
L 372.308422 197.703558 
L 372.308351 194.571242 
L 372.308336 191.438926 
L 372.308334 188.30661 
L 372.308333 185.174294 
L 372.308333 182.041978 
L 372.308333 178.909662 
L 372.308333 175.777346 
L 372.308333 172.645031 
L 372.308333 169.512715 
L 372.308333 166.380399 
L 372.308333 163.248083 
L 372.308333 160.115767 
L 372.308333 156.983451 
L 372.308333 153.851135 
L 372.308334 150.718819 
L 372.308335 147.586503 
L 372.308346 144.454187 
L 372.308401 141.321871 
L 372.308631 138.189555 
L 372.309447 135.057239 
L 372.311875 131.924923 
L 372.317901 128.792607 
L 372.33029 125.660291 
L 372.351132 122.527975 
L 372.379198 119.395659 
L 372.408002 116.263344 
L 372.427409 113.131028 
L 372.429176 109.998712 
L 372.412505 106.866396 
L 372.384613 103.73408 
L 372.355779 100.601764 
L 372.333402 97.469448 
L 372.319584 94.337132 
L 372.312622 91.204816 
L 372.309722 88.0725 
" style="fill:none;stroke:#471365;stroke-linecap:round;stroke-width:1.2;"/>
   </g>
   <g id="patch_79">
    <path d="M 372.308333 389.9 
L 372.308333 81.383333 
" style="fill:none;stroke:#262626;stroke-linecap:square;stroke-linejoin:miter;"/>
   </g>
  </g>
 </g>
 <defs>
  <clipPath id="p8c8362b1d8">
   <rect height="308.516667" width="302.058333" x="49.85" y="81.383333"/>
  </clipPath>
  <clipPath id="pc1d8593653">
   <rect height="45.383333" width="302.058333" x="49.85" y="15.6"/>
  </clipPath>
  <clipPath id="p473d93019a">
   <rect height="308.516667" width="44.091667" x="372.308333" y="81.383333"/>
  </clipPath>
 </defs>
</svg>
