<?xml version="1.0" encoding="utf-8" standalone="no"?>
<!DOCTYPE svg PUBLIC "-//W3C//DTD SVG 1.1//EN"
  "http://www.w3.org/Graphics/SVG/1.1/DTD/svg11.dtd">
<!-- Created with matplotlib (http://matplotlib.org/) -->
<svg height="432pt" version="1.1" viewBox="0 0 432 432" width="432pt" xmlns="http://www.w3.org/2000/svg" xmlns:xlink="http://www.w3.org/1999/xlink">
 <defs>
  <style type="text/css">
*{stroke-linecap:butt;stroke-linejoin:round;}
  </style>
 </defs>
 <g id="figure_1">
  <g id="patch_1">
   <path d="M 0 432 
L 432 432 
L 432 0 
L 0 0 
z
" style="fill:#ffffff;"/>
  </g>
  <g id="axes_1">
   <g id="patch_2">
    <path d="M 49.85 389.9 
L 351.908333 389.9 
L 351.908333 81.383333 
L 49.85 81.383333 
z
" style="fill:#ffffff;"/>
   </g>
   <g id="matplotlib.axis_1">
    <g id="xtick_1">
     <g id="line2d_1">
      <defs>
       <path d="M 0 0 
L 0 4.8 
" id="m59c9d44321" style="stroke:#262626;"/>
      </defs>
      <g>
       <use style="fill:#262626;stroke:#262626;" x="69.825331" xlink:href="#m59c9d44321" y="389.9"/>
      </g>
     </g>
     <g id="text_1">
      <!-- 0 -->
      <defs>
       <path d="M 31.78125 66.40625 
Q 24.171875 66.40625 20.328125 58.90625 
Q 16.5 51.421875 16.5 36.375 
Q 16.5 21.390625 20.328125 13.890625 
Q 24.171875 6.390625 31.78125 6.390625 
Q 39.453125 6.390625 43.28125 13.890625 
Q 47.125 21.390625 47.125 36.375 
Q 47.125 51.421875 43.28125 58.90625 
Q 39.453125 66.40625 31.78125 66.40625 
z
M 31.78125 74.21875 
Q 44.046875 74.21875 50.515625 64.515625 
Q 56.984375 54.828125 56.984375 36.375 
Q 56.984375 17.96875 50.515625 8.265625 
Q 44.046875 -1.421875 31.78125 -1.421875 
Q 19.53125 -1.421875 13.0625 8.265625 
Q 6.59375 17.96875 6.59375 36.375 
Q 6.59375 54.828125 13.0625 64.515625 
Q 19.53125 74.21875 31.78125 74.21875 
z
" id="DejaVuSans-30"/>
      </defs>
      <g style="fill:#262626;" transform="translate(67.025831 404.886625)scale(0.088 -0.088)">
       <use xlink:href="#DejaVuSans-30"/>
      </g>
     </g>
    </g>
    <g id="xtick_2">
     <g id="line2d_2">
      <g>
       <use style="fill:#262626;stroke:#262626;" x="121.543646" xlink:href="#m59c9d44321" y="389.9"/>
      </g>
     </g>
     <g id="text_2">
      <!-- 2 -->
      <defs>
       <path d="M 19.1875 8.296875 
L 53.609375 8.296875 
L 53.609375 0 
L 7.328125 0 
L 7.328125 8.296875 
Q 12.9375 14.109375 22.625 23.890625 
Q 32.328125 33.6875 34.8125 36.53125 
Q 39.546875 41.84375 41.421875 45.53125 
Q 43.3125 49.21875 43.3125 52.78125 
Q 43.3125 58.59375 39.234375 62.25 
Q 35.15625 65.921875 28.609375 65.921875 
Q 23.96875 65.921875 18.8125 64.3125 
Q 13.671875 62.703125 7.8125 59.421875 
L 7.8125 69.390625 
Q 13.765625 71.78125 18.9375 73 
Q 24.125 74.21875 28.421875 74.21875 
Q 39.75 74.21875 46.484375 68.546875 
Q 53.21875 62.890625 53.21875 53.421875 
Q 53.21875 48.921875 51.53125 44.890625 
Q 49.859375 40.875 45.40625 35.40625 
Q 44.1875 33.984375 37.640625 27.21875 
Q 31.109375 20.453125 19.1875 8.296875 
z
" id="DejaVuSans-32"/>
      </defs>
      <g style="fill:#262626;" transform="translate(118.744146 404.886625)scale(0.088 -0.088)">
       <use xlink:href="#DejaVuSans-32"/>
      </g>
     </g>
    </g>
    <g id="xtick_3">
     <g id="line2d_3">
      <g>
       <use style="fill:#262626;stroke:#262626;" x="173.26196" xlink:href="#m59c9d44321" y="389.9"/>
      </g>
     </g>
     <g id="text_3">
      <!-- 4 -->
      <defs>
       <path d="M 37.796875 64.3125 
L 12.890625 25.390625 
L 37.796875 25.390625 
z
M 35.203125 72.90625 
L 47.609375 72.90625 
L 47.609375 25.390625 
L 58.015625 25.390625 
L 58.015625 17.1875 
L 47.609375 17.1875 
L 47.609375 0 
L 37.796875 0 
L 37.796875 17.1875 
L 4.890625 17.1875 
L 4.890625 26.703125 
z
" id="DejaVuSans-34"/>
      </defs>
      <g style="fill:#262626;" transform="translate(170.46246 404.886625)scale(0.088 -0.088)">
       <use xlink:href="#DejaVuSans-34"/>
      </g>
     </g>
    </g>
    <g id="xtick_4">
     <g id="line2d_4">
      <g>
       <use style="fill:#262626;stroke:#262626;" x="224.980275" xlink:href="#m59c9d44321" y="389.9"/>
      </g>
     </g>
     <g id="text_4">
      <!-- 6 -->
      <defs>
       <path d="M 33.015625 40.375 
Q 26.375 40.375 22.484375 35.828125 
Q 18.609375 31.296875 18.609375 23.390625 
Q 18.609375 15.53125 22.484375 10.953125 
Q 26.375 6.390625 33.015625 6.390625 
Q 39.65625 6.390625 43.53125 10.953125 
Q 47.40625 15.53125 47.40625 23.390625 
Q 47.40625 31.296875 43.53125 35.828125 
Q 39.65625 40.375 33.015625 40.375 
z
M 52.59375 71.296875 
L 52.59375 62.3125 
Q 48.875 64.0625 45.09375 64.984375 
Q 41.3125 65.921875 37.59375 65.921875 
Q 27.828125 65.921875 22.671875 59.328125 
Q 17.53125 52.734375 16.796875 39.40625 
Q 19.671875 43.65625 24.015625 45.921875 
Q 28.375 48.1875 33.59375 48.1875 
Q 44.578125 48.1875 50.953125 41.515625 
Q 57.328125 34.859375 57.328125 23.390625 
Q 57.328125 12.15625 50.6875 5.359375 
Q 44.046875 -1.421875 33.015625 -1.421875 
Q 20.359375 -1.421875 13.671875 8.265625 
Q 6.984375 17.96875 6.984375 36.375 
Q 6.984375 53.65625 15.1875 63.9375 
Q 23.390625 74.21875 37.203125 74.21875 
Q 40.921875 74.21875 44.703125 73.484375 
Q 48.484375 72.75 52.59375 71.296875 
z
" id="DejaVuSans-36"/>
      </defs>
      <g style="fill:#262626;" transform="translate(222.180775 404.886625)scale(0.088 -0.088)">
       <use xlink:href="#DejaVuSans-36"/>
      </g>
     </g>
    </g>
    <g id="xtick_5">
     <g id="line2d_5">
      <g>
       <use style="fill:#262626;stroke:#262626;" x="276.698589" xlink:href="#m59c9d44321" y="389.9"/>
      </g>
     </g>
     <g id="text_5">
      <!-- 8 -->
      <defs>
       <path d="M 31.78125 34.625 
Q 24.75 34.625 20.71875 30.859375 
Q 16.703125 27.09375 16.703125 20.515625 
Q 16.703125 13.921875 20.71875 10.15625 
Q 24.75 6.390625 31.78125 6.390625 
Q 38.8125 6.390625 42.859375 10.171875 
Q 46.921875 13.96875 46.921875 20.515625 
Q 46.921875 27.09375 42.890625 30.859375 
Q 38.875 34.625 31.78125 34.625 
z
M 21.921875 38.8125 
Q 15.578125 40.375 12.03125 44.71875 
Q 8.5 49.078125 8.5 55.328125 
Q 8.5 64.0625 14.71875 69.140625 
Q 20.953125 74.21875 31.78125 74.21875 
Q 42.671875 74.21875 48.875 69.140625 
Q 55.078125 64.0625 55.078125 55.328125 
Q 55.078125 49.078125 51.53125 44.71875 
Q 48 40.375 41.703125 38.8125 
Q 48.828125 37.15625 52.796875 32.3125 
Q 56.78125 27.484375 56.78125 20.515625 
Q 56.78125 9.90625 50.3125 4.234375 
Q 43.84375 -1.421875 31.78125 -1.421875 
Q 19.734375 -1.421875 13.25 4.234375 
Q 6.78125 9.90625 6.78125 20.515625 
Q 6.78125 27.484375 10.78125 32.3125 
Q 14.796875 37.15625 21.921875 38.8125 
z
M 18.3125 54.390625 
Q 18.3125 48.734375 21.84375 45.5625 
Q 25.390625 42.390625 31.78125 42.390625 
Q 38.140625 42.390625 41.71875 45.5625 
Q 45.3125 48.734375 45.3125 54.390625 
Q 45.3125 60.0625 41.71875 63.234375 
Q 38.140625 66.40625 31.78125 66.40625 
Q 25.390625 66.40625 21.84375 63.234375 
Q 18.3125 60.0625 18.3125 54.390625 
z
" id="DejaVuSans-38"/>
      </defs>
      <g style="fill:#262626;" transform="translate(273.899089 404.886625)scale(0.088 -0.088)">
       <use xlink:href="#DejaVuSans-38"/>
      </g>
     </g>
    </g>
    <g id="xtick_6">
     <g id="line2d_6">
      <g>
       <use style="fill:#262626;stroke:#262626;" x="328.416904" xlink:href="#m59c9d44321" y="389.9"/>
      </g>
     </g>
     <g id="text_6">
      <!-- 10 -->
      <defs>
       <path d="M 12.40625 8.296875 
L 28.515625 8.296875 
L 28.515625 63.921875 
L 10.984375 60.40625 
L 10.984375 69.390625 
L 28.421875 72.90625 
L 38.28125 72.90625 
L 38.28125 8.296875 
L 54.390625 8.296875 
L 54.390625 0 
L 12.40625 0 
z
" id="DejaVuSans-31"/>
      </defs>
      <g style="fill:#262626;" transform="translate(322.817904 404.886625)scale(0.088 -0.088)">
       <use xlink:href="#DejaVuSans-31"/>
       <use x="63.623047" xlink:href="#DejaVuSans-30"/>
      </g>
     </g>
    </g>
    <g id="text_7">
     <!-- g(k-1) -->
     <defs>
      <path d="M 45.40625 27.984375 
Q 45.40625 37.75 41.375 43.109375 
Q 37.359375 48.484375 30.078125 48.484375 
Q 22.859375 48.484375 18.828125 43.109375 
Q 14.796875 37.75 14.796875 27.984375 
Q 14.796875 18.265625 18.828125 12.890625 
Q 22.859375 7.515625 30.078125 7.515625 
Q 37.359375 7.515625 41.375 12.890625 
Q 45.40625 18.265625 45.40625 27.984375 
z
M 54.390625 6.78125 
Q 54.390625 -7.171875 48.1875 -13.984375 
Q 42 -20.796875 29.203125 -20.796875 
Q 24.46875 -20.796875 20.265625 -20.09375 
Q 16.0625 -19.390625 12.109375 -17.921875 
L 12.109375 -9.1875 
Q 16.0625 -11.328125 19.921875 -12.34375 
Q 23.78125 -13.375 27.78125 -13.375 
Q 36.625 -13.375 41.015625 -8.765625 
Q 45.40625 -4.15625 45.40625 5.171875 
L 45.40625 9.625 
Q 42.625 4.78125 38.28125 2.390625 
Q 33.9375 0 27.875 0 
Q 17.828125 0 11.671875 7.65625 
Q 5.515625 15.328125 5.515625 27.984375 
Q 5.515625 40.671875 11.671875 48.328125 
Q 17.828125 56 27.875 56 
Q 33.9375 56 38.28125 53.609375 
Q 42.625 51.21875 45.40625 46.390625 
L 45.40625 54.6875 
L 54.390625 54.6875 
z
" id="DejaVuSans-67"/>
      <path d="M 31 75.875 
Q 24.46875 64.65625 21.28125 53.65625 
Q 18.109375 42.671875 18.109375 31.390625 
Q 18.109375 20.125 21.3125 9.0625 
Q 24.515625 -2 31 -13.1875 
L 23.1875 -13.1875 
Q 15.875 -1.703125 12.234375 9.375 
Q 8.59375 20.453125 8.59375 31.390625 
Q 8.59375 42.28125 12.203125 53.3125 
Q 15.828125 64.359375 23.1875 75.875 
z
" id="DejaVuSans-28"/>
      <path d="M 9.078125 75.984375 
L 18.109375 75.984375 
L 18.109375 31.109375 
L 44.921875 54.6875 
L 56.390625 54.6875 
L 27.390625 29.109375 
L 57.625 0 
L 45.90625 0 
L 18.109375 26.703125 
L 18.109375 0 
L 9.078125 0 
z
" id="DejaVuSans-6b"/>
      <path d="M 4.890625 31.390625 
L 31.203125 31.390625 
L 31.203125 23.390625 
L 4.890625 23.390625 
z
" id="DejaVuSans-2d"/>
      <path d="M 8.015625 75.875 
L 15.828125 75.875 
Q 23.140625 64.359375 26.78125 53.3125 
Q 30.421875 42.28125 30.421875 31.390625 
Q 30.421875 20.453125 26.78125 9.375 
Q 23.140625 -1.703125 15.828125 -13.1875 
L 8.015625 -13.1875 
Q 14.5 -2 17.703125 9.0625 
Q 20.90625 20.125 20.90625 31.390625 
Q 20.90625 42.671875 17.703125 53.65625 
Q 14.5 64.65625 8.015625 75.875 
z
" id="DejaVuSans-29"/>
     </defs>
     <g style="fill:#262626;" transform="translate(186.521167 418.01125)scale(0.096 -0.096)">
      <use xlink:href="#DejaVuSans-67"/>
      <use x="63.476562" xlink:href="#DejaVuSans-28"/>
      <use x="102.490234" xlink:href="#DejaVuSans-6b"/>
      <use x="160.400391" xlink:href="#DejaVuSans-2d"/>
      <use x="196.484375" xlink:href="#DejaVuSans-31"/>
      <use x="260.107422" xlink:href="#DejaVuSans-29"/>
     </g>
    </g>
   </g>
   <g id="matplotlib.axis_2">
    <g id="ytick_1">
     <g id="line2d_7">
      <defs>
       <path d="M 0 0 
L -4.8 0 
" id="m63aea6cd42" style="stroke:#262626;"/>
      </defs>
      <g>
       <use style="fill:#262626;stroke:#262626;" x="49.85" xlink:href="#m63aea6cd42" y="389.9"/>
      </g>
     </g>
     <g id="text_8">
      <!-- 0 -->
      <g style="fill:#262626;" transform="translate(35.951 393.243313)scale(0.088 -0.088)">
       <use xlink:href="#DejaVuSans-30"/>
      </g>
     </g>
    </g>
    <g id="ytick_2">
     <g id="line2d_8">
      <g>
       <use style="fill:#262626;stroke:#262626;" x="49.85" xlink:href="#m63aea6cd42" y="333.806061"/>
      </g>
     </g>
     <g id="text_9">
      <!-- 20 -->
      <g style="fill:#262626;" transform="translate(30.352 337.149373)scale(0.088 -0.088)">
       <use xlink:href="#DejaVuSans-32"/>
       <use x="63.623047" xlink:href="#DejaVuSans-30"/>
      </g>
     </g>
    </g>
    <g id="ytick_3">
     <g id="line2d_9">
      <g>
       <use style="fill:#262626;stroke:#262626;" x="49.85" xlink:href="#m63aea6cd42" y="277.712121"/>
      </g>
     </g>
     <g id="text_10">
      <!-- 40 -->
      <g style="fill:#262626;" transform="translate(30.352 281.055434)scale(0.088 -0.088)">
       <use xlink:href="#DejaVuSans-34"/>
       <use x="63.623047" xlink:href="#DejaVuSans-30"/>
      </g>
     </g>
    </g>
    <g id="ytick_4">
     <g id="line2d_10">
      <g>
       <use style="fill:#262626;stroke:#262626;" x="49.85" xlink:href="#m63aea6cd42" y="221.618182"/>
      </g>
     </g>
     <g id="text_11">
      <!-- 60 -->
      <g style="fill:#262626;" transform="translate(30.352 224.961494)scale(0.088 -0.088)">
       <use xlink:href="#DejaVuSans-36"/>
       <use x="63.623047" xlink:href="#DejaVuSans-30"/>
      </g>
     </g>
    </g>
    <g id="ytick_5">
     <g id="line2d_11">
      <g>
       <use style="fill:#262626;stroke:#262626;" x="49.85" xlink:href="#m63aea6cd42" y="165.524242"/>
      </g>
     </g>
     <g id="text_12">
      <!-- 80 -->
      <g style="fill:#262626;" transform="translate(30.352 168.867555)scale(0.088 -0.088)">
       <use xlink:href="#DejaVuSans-38"/>
       <use x="63.623047" xlink:href="#DejaVuSans-30"/>
      </g>
     </g>
    </g>
    <g id="ytick_6">
     <g id="line2d_12">
      <g>
       <use style="fill:#262626;stroke:#262626;" x="49.85" xlink:href="#m63aea6cd42" y="109.430303"/>
      </g>
     </g>
     <g id="text_13">
      <!-- 100 -->
      <g style="fill:#262626;" transform="translate(24.753 112.773616)scale(0.088 -0.088)">
       <use xlink:href="#DejaVuSans-31"/>
       <use x="63.623047" xlink:href="#DejaVuSans-30"/>
       <use x="127.246094" xlink:href="#DejaVuSans-30"/>
      </g>
     </g>
    </g>
    <g id="text_14">
     <!-- Time to cancer -->
     <defs>
      <path d="M -0.296875 72.90625 
L 61.375 72.90625 
L 61.375 64.59375 
L 35.5 64.59375 
L 35.5 0 
L 25.59375 0 
L 25.59375 64.59375 
L -0.296875 64.59375 
z
" id="DejaVuSans-54"/>
      <path d="M 9.421875 54.6875 
L 18.40625 54.6875 
L 18.40625 0 
L 9.421875 0 
z
M 9.421875 75.984375 
L 18.40625 75.984375 
L 18.40625 64.59375 
L 9.421875 64.59375 
z
" id="DejaVuSans-69"/>
      <path d="M 52 44.1875 
Q 55.375 50.25 60.0625 53.125 
Q 64.75 56 71.09375 56 
Q 79.640625 56 84.28125 50.015625 
Q 88.921875 44.046875 88.921875 33.015625 
L 88.921875 0 
L 79.890625 0 
L 79.890625 32.71875 
Q 79.890625 40.578125 77.09375 44.375 
Q 74.3125 48.1875 68.609375 48.1875 
Q 61.625 48.1875 57.5625 43.546875 
Q 53.515625 38.921875 53.515625 30.90625 
L 53.515625 0 
L 44.484375 0 
L 44.484375 32.71875 
Q 44.484375 40.625 41.703125 44.40625 
Q 38.921875 48.1875 33.109375 48.1875 
Q 26.21875 48.1875 22.15625 43.53125 
Q 18.109375 38.875 18.109375 30.90625 
L 18.109375 0 
L 9.078125 0 
L 9.078125 54.6875 
L 18.109375 54.6875 
L 18.109375 46.1875 
Q 21.1875 51.21875 25.484375 53.609375 
Q 29.78125 56 35.6875 56 
Q 41.65625 56 45.828125 52.96875 
Q 50 49.953125 52 44.1875 
z
" id="DejaVuSans-6d"/>
      <path d="M 56.203125 29.59375 
L 56.203125 25.203125 
L 14.890625 25.203125 
Q 15.484375 15.921875 20.484375 11.0625 
Q 25.484375 6.203125 34.421875 6.203125 
Q 39.59375 6.203125 44.453125 7.46875 
Q 49.3125 8.734375 54.109375 11.28125 
L 54.109375 2.78125 
Q 49.265625 0.734375 44.1875 -0.34375 
Q 39.109375 -1.421875 33.890625 -1.421875 
Q 20.796875 -1.421875 13.15625 6.1875 
Q 5.515625 13.8125 5.515625 26.8125 
Q 5.515625 40.234375 12.765625 48.109375 
Q 20.015625 56 32.328125 56 
Q 43.359375 56 49.78125 48.890625 
Q 56.203125 41.796875 56.203125 29.59375 
z
M 47.21875 32.234375 
Q 47.125 39.59375 43.09375 43.984375 
Q 39.0625 48.390625 32.421875 48.390625 
Q 24.90625 48.390625 20.390625 44.140625 
Q 15.875 39.890625 15.1875 32.171875 
z
" id="DejaVuSans-65"/>
      <path id="DejaVuSans-20"/>
      <path d="M 18.3125 70.21875 
L 18.3125 54.6875 
L 36.8125 54.6875 
L 36.8125 47.703125 
L 18.3125 47.703125 
L 18.3125 18.015625 
Q 18.3125 11.328125 20.140625 9.421875 
Q 21.96875 7.515625 27.59375 7.515625 
L 36.8125 7.515625 
L 36.8125 0 
L 27.59375 0 
Q 17.1875 0 13.234375 3.875 
Q 9.28125 7.765625 9.28125 18.015625 
L 9.28125 47.703125 
L 2.6875 47.703125 
L 2.6875 54.6875 
L 9.28125 54.6875 
L 9.28125 70.21875 
z
" id="DejaVuSans-74"/>
      <path d="M 30.609375 48.390625 
Q 23.390625 48.390625 19.1875 42.75 
Q 14.984375 37.109375 14.984375 27.296875 
Q 14.984375 17.484375 19.15625 11.84375 
Q 23.34375 6.203125 30.609375 6.203125 
Q 37.796875 6.203125 41.984375 11.859375 
Q 46.1875 17.53125 46.1875 27.296875 
Q 46.1875 37.015625 41.984375 42.703125 
Q 37.796875 48.390625 30.609375 48.390625 
z
M 30.609375 56 
Q 42.328125 56 49.015625 48.375 
Q 55.71875 40.765625 55.71875 27.296875 
Q 55.71875 13.875 49.015625 6.21875 
Q 42.328125 -1.421875 30.609375 -1.421875 
Q 18.84375 -1.421875 12.171875 6.21875 
Q 5.515625 13.875 5.515625 27.296875 
Q 5.515625 40.765625 12.171875 48.375 
Q 18.84375 56 30.609375 56 
z
" id="DejaVuSans-6f"/>
      <path d="M 48.78125 52.59375 
L 48.78125 44.1875 
Q 44.96875 46.296875 41.140625 47.34375 
Q 37.3125 48.390625 33.40625 48.390625 
Q 24.65625 48.390625 19.8125 42.84375 
Q 14.984375 37.3125 14.984375 27.296875 
Q 14.984375 17.28125 19.8125 11.734375 
Q 24.65625 6.203125 33.40625 6.203125 
Q 37.3125 6.203125 41.140625 7.25 
Q 44.96875 8.296875 48.78125 10.40625 
L 48.78125 2.09375 
Q 45.015625 0.34375 40.984375 -0.53125 
Q 36.96875 -1.421875 32.421875 -1.421875 
Q 20.0625 -1.421875 12.78125 6.34375 
Q 5.515625 14.109375 5.515625 27.296875 
Q 5.515625 40.671875 12.859375 48.328125 
Q 20.21875 56 33.015625 56 
Q 37.15625 56 41.109375 55.140625 
Q 45.0625 54.296875 48.78125 52.59375 
z
" id="DejaVuSans-63"/>
      <path d="M 34.28125 27.484375 
Q 23.390625 27.484375 19.1875 25 
Q 14.984375 22.515625 14.984375 16.5 
Q 14.984375 11.71875 18.140625 8.90625 
Q 21.296875 6.109375 26.703125 6.109375 
Q 34.1875 6.109375 38.703125 11.40625 
Q 43.21875 16.703125 43.21875 25.484375 
L 43.21875 27.484375 
z
M 52.203125 31.203125 
L 52.203125 0 
L 43.21875 0 
L 43.21875 8.296875 
Q 40.140625 3.328125 35.546875 0.953125 
Q 30.953125 -1.421875 24.3125 -1.421875 
Q 15.921875 -1.421875 10.953125 3.296875 
Q 6 8.015625 6 15.921875 
Q 6 25.140625 12.171875 29.828125 
Q 18.359375 34.515625 30.609375 34.515625 
L 43.21875 34.515625 
L 43.21875 35.40625 
Q 43.21875 41.609375 39.140625 45 
Q 35.0625 48.390625 27.6875 48.390625 
Q 23 48.390625 18.546875 47.265625 
Q 14.109375 46.140625 10.015625 43.890625 
L 10.015625 52.203125 
Q 14.9375 54.109375 19.578125 55.046875 
Q 24.21875 56 28.609375 56 
Q 40.484375 56 46.34375 49.84375 
Q 52.203125 43.703125 52.203125 31.203125 
z
" id="DejaVuSans-61"/>
      <path d="M 54.890625 33.015625 
L 54.890625 0 
L 45.90625 0 
L 45.90625 32.71875 
Q 45.90625 40.484375 42.875 44.328125 
Q 39.84375 48.1875 33.796875 48.1875 
Q 26.515625 48.1875 22.3125 43.546875 
Q 18.109375 38.921875 18.109375 30.90625 
L 18.109375 0 
L 9.078125 0 
L 9.078125 54.6875 
L 18.109375 54.6875 
L 18.109375 46.1875 
Q 21.34375 51.125 25.703125 53.5625 
Q 30.078125 56 35.796875 56 
Q 45.21875 56 50.046875 50.171875 
Q 54.890625 44.34375 54.890625 33.015625 
z
" id="DejaVuSans-6e"/>
      <path d="M 41.109375 46.296875 
Q 39.59375 47.171875 37.8125 47.578125 
Q 36.03125 48 33.890625 48 
Q 26.265625 48 22.1875 43.046875 
Q 18.109375 38.09375 18.109375 28.8125 
L 18.109375 0 
L 9.078125 0 
L 9.078125 54.6875 
L 18.109375 54.6875 
L 18.109375 46.1875 
Q 20.953125 51.171875 25.484375 53.578125 
Q 30.03125 56 36.53125 56 
Q 37.453125 56 38.578125 55.875 
Q 39.703125 55.765625 41.0625 55.515625 
z
" id="DejaVuSans-72"/>
     </defs>
     <g style="fill:#262626;" transform="translate(18.7565 271.592167)rotate(-90)scale(0.096 -0.096)">
      <use xlink:href="#DejaVuSans-54"/>
      <use x="61.037109" xlink:href="#DejaVuSans-69"/>
      <use x="88.820312" xlink:href="#DejaVuSans-6d"/>
      <use x="186.232422" xlink:href="#DejaVuSans-65"/>
      <use x="247.755859" xlink:href="#DejaVuSans-20"/>
      <use x="279.542969" xlink:href="#DejaVuSans-74"/>
      <use x="318.751953" xlink:href="#DejaVuSans-6f"/>
      <use x="379.933594" xlink:href="#DejaVuSans-20"/>
      <use x="411.720703" xlink:href="#DejaVuSans-63"/>
      <use x="466.701172" xlink:href="#DejaVuSans-61"/>
      <use x="527.980469" xlink:href="#DejaVuSans-6e"/>
      <use x="591.359375" xlink:href="#DejaVuSans-63"/>
      <use x="646.339844" xlink:href="#DejaVuSans-65"/>
      <use x="707.863281" xlink:href="#DejaVuSans-72"/>
     </g>
    </g>
   </g>
   <g id="PathCollection_1">
    <defs>
     <path d="M 0 2.4 
C 0.636487 2.4 1.246992 2.147121 1.697056 1.697056 
C 2.147121 1.246992 2.4 0.636487 2.4 0 
C 2.4 -0.636487 2.147121 -1.246992 1.697056 -1.697056 
C 1.246992 -2.147121 0.636487 -2.4 0 -2.4 
C -0.636487 -2.4 -1.246992 -2.147121 -1.697056 -1.697056 
C -2.147121 -1.246992 -2.4 -0.636487 -2.4 0 
C -2.4 0.636487 -2.147121 1.246992 -1.697056 1.697056 
C -1.246992 2.147121 -0.636487 2.4 0 2.4 
z
" id="m07b6b459f0" style="stroke:#471365;stroke-opacity:0.8;"/>
    </defs>
    <g clip-path="url(#p4fec3f7bd1)">
     <use style="fill:#471365;fill-opacity:0.8;stroke:#471365;stroke-opacity:0.8;" x="123.231322" xlink:href="#m07b6b459f0" y="150.448036"/>
     <use style="fill:#471365;fill-opacity:0.8;stroke:#471365;stroke-opacity:0.8;" x="122.145274" xlink:href="#m07b6b459f0" y="177.634386"/>
     <use style="fill:#471365;fill-opacity:0.8;stroke:#471365;stroke-opacity:0.8;" x="118.984539" xlink:href="#m07b6b459f0" y="115.946421"/>
     <use style="fill:#471365;fill-opacity:0.8;stroke:#471365;stroke-opacity:0.8;" x="122.396331" xlink:href="#m07b6b459f0" y="151.131921"/>
     <use style="fill:#471365;fill-opacity:0.8;stroke:#471365;stroke-opacity:0.8;" x="118.50067" xlink:href="#m07b6b459f0" y="209.408145"/>
     <use style="fill:#471365;fill-opacity:0.8;stroke:#471365;stroke-opacity:0.8;" x="197.160888" xlink:href="#m07b6b459f0" y="264.718306"/>
     <use style="fill:#471365;fill-opacity:0.8;stroke:#471365;stroke-opacity:0.8;" x="165.59252" xlink:href="#m07b6b459f0" y="268.283729"/>
     <use style="fill:#471365;fill-opacity:0.8;stroke:#471365;stroke-opacity:0.8;" x="155.822643" xlink:href="#m07b6b459f0" y="305.543936"/>
     <use style="fill:#471365;fill-opacity:0.8;stroke:#471365;stroke-opacity:0.8;" x="146.918044" xlink:href="#m07b6b459f0" y="257.979349"/>
     <use style="fill:#471365;fill-opacity:0.8;stroke:#471365;stroke-opacity:0.8;" x="167.227169" xlink:href="#m07b6b459f0" y="305.5132"/>
     <use style="fill:#471365;fill-opacity:0.8;stroke:#471365;stroke-opacity:0.8;" x="141.235284" xlink:href="#m07b6b459f0" y="277.581491"/>
     <use style="fill:#471365;fill-opacity:0.8;stroke:#471365;stroke-opacity:0.8;" x="174.042461" xlink:href="#m07b6b459f0" y="316.854933"/>
     <use style="fill:#471365;fill-opacity:0.8;stroke:#471365;stroke-opacity:0.8;" x="132.523976" xlink:href="#m07b6b459f0" y="267.407741"/>
     <use style="fill:#471365;fill-opacity:0.8;stroke:#471365;stroke-opacity:0.8;" x="229.386135" xlink:href="#m07b6b459f0" y="316.317046"/>
     <use style="fill:#471365;fill-opacity:0.8;stroke:#471365;stroke-opacity:0.8;" x="143.135903" xlink:href="#m07b6b459f0" y="246.768245"/>
     <use style="fill:#471365;fill-opacity:0.8;stroke:#471365;stroke-opacity:0.8;" x="190.169473" xlink:href="#m07b6b459f0" y="312.013949"/>
     <use style="fill:#471365;fill-opacity:0.8;stroke:#471365;stroke-opacity:0.8;" x="139.589309" xlink:href="#m07b6b459f0" y="240.436546"/>
     <use style="fill:#471365;fill-opacity:0.8;stroke:#471365;stroke-opacity:0.8;" x="262.071453" xlink:href="#m07b6b459f0" y="327.889303"/>
     <use style="fill:#471365;fill-opacity:0.8;stroke:#471365;stroke-opacity:0.8;" x="127.145162" xlink:href="#m07b6b459f0" y="159.984005"/>
     <use style="fill:#471365;fill-opacity:0.8;stroke:#471365;stroke-opacity:0.8;" x="144.367916" xlink:href="#m07b6b459f0" y="206.818603"/>
     <use style="fill:#471365;fill-opacity:0.8;stroke:#471365;stroke-opacity:0.8;" x="186.829031" xlink:href="#m07b6b459f0" y="312.129211"/>
     <use style="fill:#471365;fill-opacity:0.8;stroke:#471365;stroke-opacity:0.8;" x="118.792029" xlink:href="#m07b6b459f0" y="119.265953"/>
     <use style="fill:#471365;fill-opacity:0.8;stroke:#471365;stroke-opacity:0.8;" x="283.257664" xlink:href="#m07b6b459f0" y="307.78001"/>
     <use style="fill:#471365;fill-opacity:0.8;stroke:#471365;stroke-opacity:0.8;" x="170.367672" xlink:href="#m07b6b459f0" y="304.552687"/>
     <use style="fill:#471365;fill-opacity:0.8;stroke:#471365;stroke-opacity:0.8;" x="155.604866" xlink:href="#m07b6b459f0" y="310.638495"/>
     <use style="fill:#471365;fill-opacity:0.8;stroke:#471365;stroke-opacity:0.8;" x="129.169369" xlink:href="#m07b6b459f0" y="155.104601"/>
     <use style="fill:#471365;fill-opacity:0.8;stroke:#471365;stroke-opacity:0.8;" x="164.270705" xlink:href="#m07b6b459f0" y="307.634012"/>
     <use style="fill:#471365;fill-opacity:0.8;stroke:#471365;stroke-opacity:0.8;" x="154.884515" xlink:href="#m07b6b459f0" y="277.827383"/>
     <use style="fill:#471365;fill-opacity:0.8;stroke:#471365;stroke-opacity:0.8;" x="228.194203" xlink:href="#m07b6b459f0" y="313.673715"/>
     <use style="fill:#471365;fill-opacity:0.8;stroke:#471365;stroke-opacity:0.8;" x="139.914672" xlink:href="#m07b6b459f0" y="268.183836"/>
     <use style="fill:#471365;fill-opacity:0.8;stroke:#471365;stroke-opacity:0.8;" x="126.993718" xlink:href="#m07b6b459f0" y="143.178876"/>
     <use style="fill:#471365;fill-opacity:0.8;stroke:#471365;stroke-opacity:0.8;" x="127.254584" xlink:href="#m07b6b459f0" y="175.329156"/>
     <use style="fill:#471365;fill-opacity:0.8;stroke:#471365;stroke-opacity:0.8;" x="121.266664" xlink:href="#m07b6b459f0" y="153.291153"/>
     <use style="fill:#471365;fill-opacity:0.8;stroke:#471365;stroke-opacity:0.8;" x="160.477375" xlink:href="#m07b6b459f0" y="222.624799"/>
     <use style="fill:#471365;fill-opacity:0.8;stroke:#471365;stroke-opacity:0.8;" x="172.535872" xlink:href="#m07b6b459f0" y="260.522787"/>
     <use style="fill:#471365;fill-opacity:0.8;stroke:#471365;stroke-opacity:0.8;" x="156.869161" xlink:href="#m07b6b459f0" y="227.611781"/>
     <use style="fill:#471365;fill-opacity:0.8;stroke:#471365;stroke-opacity:0.8;" x="143.912283" xlink:href="#m07b6b459f0" y="279.125996"/>
     <use style="fill:#471365;fill-opacity:0.8;stroke:#471365;stroke-opacity:0.8;" x="155.94124" xlink:href="#m07b6b459f0" y="296.40754"/>
     <use style="fill:#471365;fill-opacity:0.8;stroke:#471365;stroke-opacity:0.8;" x="254.283972" xlink:href="#m07b6b459f0" y="304.752474"/>
     <use style="fill:#471365;fill-opacity:0.8;stroke:#471365;stroke-opacity:0.8;" x="184.147053" xlink:href="#m07b6b459f0" y="328.988129"/>
     <use style="fill:#471365;fill-opacity:0.8;stroke:#471365;stroke-opacity:0.8;" x="225.605996" xlink:href="#m07b6b459f0" y="319.02185"/>
     <use style="fill:#471365;fill-opacity:0.8;stroke:#471365;stroke-opacity:0.8;" x="136.226162" xlink:href="#m07b6b459f0" y="225.806017"/>
     <use style="fill:#471365;fill-opacity:0.8;stroke:#471365;stroke-opacity:0.8;" x="120.366929" xlink:href="#m07b6b459f0" y="137.477273"/>
     <use style="fill:#471365;fill-opacity:0.8;stroke:#471365;stroke-opacity:0.8;" x="148.658427" xlink:href="#m07b6b459f0" y="244.309333"/>
     <use style="fill:#471365;fill-opacity:0.8;stroke:#471365;stroke-opacity:0.8;" x="130.799546" xlink:href="#m07b6b459f0" y="232.760129"/>
     <use style="fill:#471365;fill-opacity:0.8;stroke:#471365;stroke-opacity:0.8;" x="128.3048" xlink:href="#m07b6b459f0" y="188.015607"/>
     <use style="fill:#471365;fill-opacity:0.8;stroke:#471365;stroke-opacity:0.8;" x="211.323654" xlink:href="#m07b6b459f0" y="292.019918"/>
     <use style="fill:#471365;fill-opacity:0.8;stroke:#471365;stroke-opacity:0.8;" x="137.5377" xlink:href="#m07b6b459f0" y="289.730056"/>
     <use style="fill:#471365;fill-opacity:0.8;stroke:#471365;stroke-opacity:0.8;" x="136.733551" xlink:href="#m07b6b459f0" y="243.840603"/>
     <use style="fill:#471365;fill-opacity:0.8;stroke:#471365;stroke-opacity:0.8;" x="148.778351" xlink:href="#m07b6b459f0" y="235.257462"/>
     <use style="fill:#471365;fill-opacity:0.8;stroke:#471365;stroke-opacity:0.8;" x="121.800835" xlink:href="#m07b6b459f0" y="221.433763"/>
     <use style="fill:#471365;fill-opacity:0.8;stroke:#471365;stroke-opacity:0.8;" x="141.541306" xlink:href="#m07b6b459f0" y="277.512335"/>
     <use style="fill:#471365;fill-opacity:0.8;stroke:#471365;stroke-opacity:0.8;" x="171.56108" xlink:href="#m07b6b459f0" y="276.920659"/>
     <use style="fill:#471365;fill-opacity:0.8;stroke:#471365;stroke-opacity:0.8;" x="126.913882" xlink:href="#m07b6b459f0" y="179.340257"/>
     <use style="fill:#471365;fill-opacity:0.8;stroke:#471365;stroke-opacity:0.8;" x="210.801895" xlink:href="#m07b6b459f0" y="310.669232"/>
     <use style="fill:#471365;fill-opacity:0.8;stroke:#471365;stroke-opacity:0.8;" x="219.98804" xlink:href="#m07b6b459f0" y="282.89889"/>
     <use style="fill:#471365;fill-opacity:0.8;stroke:#471365;stroke-opacity:0.8;" x="250.530575" xlink:href="#m07b6b459f0" y="301.509783"/>
     <use style="fill:#471365;fill-opacity:0.8;stroke:#471365;stroke-opacity:0.8;" x="161.973534" xlink:href="#m07b6b459f0" y="272.640614"/>
     <use style="fill:#471365;fill-opacity:0.8;stroke:#471365;stroke-opacity:0.8;" x="162.299069" xlink:href="#m07b6b459f0" y="279.786829"/>
     <use style="fill:#471365;fill-opacity:0.8;stroke:#471365;stroke-opacity:0.8;" x="137.099711" xlink:href="#m07b6b459f0" y="234.573577"/>
     <use style="fill:#471365;fill-opacity:0.8;stroke:#471365;stroke-opacity:0.8;" x="132.19728" xlink:href="#m07b6b459f0" y="276.444244"/>
     <use style="fill:#471365;fill-opacity:0.8;stroke:#471365;stroke-opacity:0.8;" x="156.288551" xlink:href="#m07b6b459f0" y="299.242973"/>
     <use style="fill:#471365;fill-opacity:0.8;stroke:#471365;stroke-opacity:0.8;" x="148.604241" xlink:href="#m07b6b459f0" y="262.45918"/>
     <use style="fill:#471365;fill-opacity:0.8;stroke:#471365;stroke-opacity:0.8;" x="194.805866" xlink:href="#m07b6b459f0" y="320.789193"/>
     <use style="fill:#471365;fill-opacity:0.8;stroke:#471365;stroke-opacity:0.8;" x="133.597023" xlink:href="#m07b6b459f0" y="217.153719"/>
     <use style="fill:#471365;fill-opacity:0.8;stroke:#471365;stroke-opacity:0.8;" x="148.334615" xlink:href="#m07b6b459f0" y="244.101862"/>
     <use style="fill:#471365;fill-opacity:0.8;stroke:#471365;stroke-opacity:0.8;" x="186.092742" xlink:href="#m07b6b459f0" y="308.871152"/>
     <use style="fill:#471365;fill-opacity:0.8;stroke:#471365;stroke-opacity:0.8;" x="230.952005" xlink:href="#m07b6b459f0" y="313.450876"/>
     <use style="fill:#471365;fill-opacity:0.8;stroke:#471365;stroke-opacity:0.8;" x="195.526415" xlink:href="#m07b6b459f0" y="320.22057"/>
     <use style="fill:#471365;fill-opacity:0.8;stroke:#471365;stroke-opacity:0.8;" x="173.692656" xlink:href="#m07b6b459f0" y="306.650447"/>
     <use style="fill:#471365;fill-opacity:0.8;stroke:#471365;stroke-opacity:0.8;" x="197.031424" xlink:href="#m07b6b459f0" y="308.141162"/>
     <use style="fill:#471365;fill-opacity:0.8;stroke:#471365;stroke-opacity:0.8;" x="158.144432" xlink:href="#m07b6b459f0" y="253.683936"/>
     <use style="fill:#471365;fill-opacity:0.8;stroke:#471365;stroke-opacity:0.8;" x="133.524689" xlink:href="#m07b6b459f0" y="229.755645"/>
     <use style="fill:#471365;fill-opacity:0.8;stroke:#471365;stroke-opacity:0.8;" x="136.495293" xlink:href="#m07b6b459f0" y="284.335817"/>
     <use style="fill:#471365;fill-opacity:0.8;stroke:#471365;stroke-opacity:0.8;" x="169.937779" xlink:href="#m07b6b459f0" y="306.081823"/>
     <use style="fill:#471365;fill-opacity:0.8;stroke:#471365;stroke-opacity:0.8;" x="176.723299" xlink:href="#m07b6b459f0" y="313.243406"/>
     <use style="fill:#471365;fill-opacity:0.8;stroke:#471365;stroke-opacity:0.8;" x="137.47983" xlink:href="#m07b6b459f0" y="246.760561"/>
     <use style="fill:#471365;fill-opacity:0.8;stroke:#471365;stroke-opacity:0.8;" x="133.976985" xlink:href="#m07b6b459f0" y="267.730474"/>
     <use style="fill:#471365;fill-opacity:0.8;stroke:#471365;stroke-opacity:0.8;" x="181.15257" xlink:href="#m07b6b459f0" y="297.0069"/>
     <use style="fill:#471365;fill-opacity:0.8;stroke:#471365;stroke-opacity:0.8;" x="159.168305" xlink:href="#m07b6b459f0" y="277.189602"/>
     <use style="fill:#471365;fill-opacity:0.8;stroke:#471365;stroke-opacity:0.8;" x="194.206175" xlink:href="#m07b6b459f0" y="280.50145"/>
     <use style="fill:#471365;fill-opacity:0.8;stroke:#471365;stroke-opacity:0.8;" x="154.208407" xlink:href="#m07b6b459f0" y="299.135396"/>
     <use style="fill:#471365;fill-opacity:0.8;stroke:#471365;stroke-opacity:0.8;" x="189.081773" xlink:href="#m07b6b459f0" y="286.956095"/>
     <use style="fill:#471365;fill-opacity:0.8;stroke:#471365;stroke-opacity:0.8;" x="141.271297" xlink:href="#m07b6b459f0" y="218.198757"/>
     <use style="fill:#471365;fill-opacity:0.8;stroke:#471365;stroke-opacity:0.8;" x="123.423443" xlink:href="#m07b6b459f0" y="148.119753"/>
     <use style="fill:#471365;fill-opacity:0.8;stroke:#471365;stroke-opacity:0.8;" x="196.779471" xlink:href="#m07b6b459f0" y="284.481814"/>
     <use style="fill:#471365;fill-opacity:0.8;stroke:#471365;stroke-opacity:0.8;" x="145.861449" xlink:href="#m07b6b459f0" y="216.139418"/>
     <use style="fill:#471365;fill-opacity:0.8;stroke:#471365;stroke-opacity:0.8;" x="123.864959" xlink:href="#m07b6b459f0" y="214.756279"/>
     <use style="fill:#471365;fill-opacity:0.8;stroke:#471365;stroke-opacity:0.8;" x="203.246053" xlink:href="#m07b6b459f0" y="328.749922"/>
     <use style="fill:#471365;fill-opacity:0.8;stroke:#471365;stroke-opacity:0.8;" x="128.261895" xlink:href="#m07b6b459f0" y="251.593861"/>
     <use style="fill:#471365;fill-opacity:0.8;stroke:#471365;stroke-opacity:0.8;" x="125.799213" xlink:href="#m07b6b459f0" y="184.158188"/>
     <use style="fill:#471365;fill-opacity:0.8;stroke:#471365;stroke-opacity:0.8;" x="159.844245" xlink:href="#m07b6b459f0" y="304.406689"/>
     <use style="fill:#471365;fill-opacity:0.8;stroke:#471365;stroke-opacity:0.8;" x="196.068246" xlink:href="#m07b6b459f0" y="298.305513"/>
     <use style="fill:#471365;fill-opacity:0.8;stroke:#471365;stroke-opacity:0.8;" x="125.376049" xlink:href="#m07b6b459f0" y="160.053162"/>
     <use style="fill:#471365;fill-opacity:0.8;stroke:#471365;stroke-opacity:0.8;" x="213.072399" xlink:href="#m07b6b459f0" y="291.505083"/>
     <use style="fill:#471365;fill-opacity:0.8;stroke:#471365;stroke-opacity:0.8;" x="127.399599" xlink:href="#m07b6b459f0" y="270.834851"/>
     <use style="fill:#471365;fill-opacity:0.8;stroke:#471365;stroke-opacity:0.8;" x="157.794016" xlink:href="#m07b6b459f0" y="279.694619"/>
     <use style="fill:#471365;fill-opacity:0.8;stroke:#471365;stroke-opacity:0.8;" x="145.206782" xlink:href="#m07b6b459f0" y="259.08586"/>
     <use style="fill:#471365;fill-opacity:0.8;stroke:#471365;stroke-opacity:0.8;" x="231.083748" xlink:href="#m07b6b459f0" y="301.31768"/>
     <use style="fill:#471365;fill-opacity:0.8;stroke:#471365;stroke-opacity:0.8;" x="137.313472" xlink:href="#m07b6b459f0" y="265.202404"/>
     <use style="fill:#471365;fill-opacity:0.8;stroke:#471365;stroke-opacity:0.8;" x="177.752288" xlink:href="#m07b6b459f0" y="307.303595"/>
     <use style="fill:#471365;fill-opacity:0.8;stroke:#471365;stroke-opacity:0.8;" x="169.179818" xlink:href="#m07b6b459f0" y="275.852569"/>
     <use style="fill:#471365;fill-opacity:0.8;stroke:#471365;stroke-opacity:0.8;" x="124.298534" xlink:href="#m07b6b459f0" y="172.17099"/>
     <use style="fill:#471365;fill-opacity:0.8;stroke:#471365;stroke-opacity:0.8;" x="141.710173" xlink:href="#m07b6b459f0" y="236.179554"/>
     <use style="fill:#471365;fill-opacity:0.8;stroke:#471365;stroke-opacity:0.8;" x="161.685171" xlink:href="#m07b6b459f0" y="262.874122"/>
     <use style="fill:#471365;fill-opacity:0.8;stroke:#471365;stroke-opacity:0.8;" x="248.762991" xlink:href="#m07b6b459f0" y="318.353333"/>
     <use style="fill:#471365;fill-opacity:0.8;stroke:#471365;stroke-opacity:0.8;" x="155.534228" xlink:href="#m07b6b459f0" y="270.058756"/>
     <use style="fill:#471365;fill-opacity:0.8;stroke:#471365;stroke-opacity:0.8;" x="233.42932" xlink:href="#m07b6b459f0" y="345.370633"/>
     <use style="fill:#471365;fill-opacity:0.8;stroke:#471365;stroke-opacity:0.8;" x="204.454257" xlink:href="#m07b6b459f0" y="311.191751"/>
     <use style="fill:#471365;fill-opacity:0.8;stroke:#471365;stroke-opacity:0.8;" x="151.349047" xlink:href="#m07b6b459f0" y="244.063442"/>
     <use style="fill:#471365;fill-opacity:0.8;stroke:#471365;stroke-opacity:0.8;" x="119.465937" xlink:href="#m07b6b459f0" y="188.269182"/>
     <use style="fill:#471365;fill-opacity:0.8;stroke:#471365;stroke-opacity:0.8;" x="130.325483" xlink:href="#m07b6b459f0" y="241.850421"/>
     <use style="fill:#471365;fill-opacity:0.8;stroke:#471365;stroke-opacity:0.8;" x="239.510434" xlink:href="#m07b6b459f0" y="305.21352"/>
     <use style="fill:#471365;fill-opacity:0.8;stroke:#471365;stroke-opacity:0.8;" x="138.740659" xlink:href="#m07b6b459f0" y="243.740709"/>
     <use style="fill:#471365;fill-opacity:0.8;stroke:#471365;stroke-opacity:0.8;" x="121.299423" xlink:href="#m07b6b459f0" y="135.809823"/>
     <use style="fill:#471365;fill-opacity:0.8;stroke:#471365;stroke-opacity:0.8;" x="130.634009" xlink:href="#m07b6b459f0" y="207.441015"/>
     <use style="fill:#471365;fill-opacity:0.8;stroke:#471365;stroke-opacity:0.8;" x="235.647916" xlink:href="#m07b6b459f0" y="287.417141"/>
     <use style="fill:#471365;fill-opacity:0.8;stroke:#471365;stroke-opacity:0.8;" x="168.611588" xlink:href="#m07b6b459f0" y="316.547569"/>
     <use style="fill:#471365;fill-opacity:0.8;stroke:#471365;stroke-opacity:0.8;" x="123.260683" xlink:href="#m07b6b459f0" y="179.217311"/>
     <use style="fill:#471365;fill-opacity:0.8;stroke:#471365;stroke-opacity:0.8;" x="182.673646" xlink:href="#m07b6b459f0" y="302.923658"/>
     <use style="fill:#471365;fill-opacity:0.8;stroke:#471365;stroke-opacity:0.8;" x="153.473632" xlink:href="#m07b6b459f0" y="232.690972"/>
     <use style="fill:#471365;fill-opacity:0.8;stroke:#471365;stroke-opacity:0.8;" x="220.394756" xlink:href="#m07b6b459f0" y="313.950343"/>
     <use style="fill:#471365;fill-opacity:0.8;stroke:#471365;stroke-opacity:0.8;" x="138.505179" xlink:href="#m07b6b459f0" y="248.22054"/>
     <use style="fill:#471365;fill-opacity:0.8;stroke:#471365;stroke-opacity:0.8;" x="143.368897" xlink:href="#m07b6b459f0" y="263.281379"/>
     <use style="fill:#471365;fill-opacity:0.8;stroke:#471365;stroke-opacity:0.8;" x="151.961753" xlink:href="#m07b6b459f0" y="270.181702"/>
     <use style="fill:#471365;fill-opacity:0.8;stroke:#471365;stroke-opacity:0.8;" x="255.85722" xlink:href="#m07b6b459f0" y="308.909572"/>
     <use style="fill:#471365;fill-opacity:0.8;stroke:#471365;stroke-opacity:0.8;" x="137.486413" xlink:href="#m07b6b459f0" y="219.389792"/>
     <use style="fill:#471365;fill-opacity:0.8;stroke:#471365;stroke-opacity:0.8;" x="154.886178" xlink:href="#m07b6b459f0" y="299.627178"/>
     <use style="fill:#471365;fill-opacity:0.8;stroke:#471365;stroke-opacity:0.8;" x="162.320933" xlink:href="#m07b6b459f0" y="320.381936"/>
     <use style="fill:#471365;fill-opacity:0.8;stroke:#471365;stroke-opacity:0.8;" x="137.51622" xlink:href="#m07b6b459f0" y="263.803898"/>
     <use style="fill:#471365;fill-opacity:0.8;stroke:#471365;stroke-opacity:0.8;" x="146.162518" xlink:href="#m07b6b459f0" y="294.44041"/>
    </g>
   </g>
   <g id="PolyCollection_1">
    <defs>
     <path d="M 63.579924 -295.223226 
L 63.579924 -251.903348 
L 66.353646 -249.579413 
L 69.127368 -247.235 
L 71.90109 -244.872837 
L 74.674813 -242.510996 
L 77.448535 -240.149156 
L 80.222257 -237.787315 
L 82.995979 -235.426524 
L 85.769701 -233.069495 
L 88.543423 -230.746521 
L 91.317145 -228.423547 
L 94.090867 -226.100572 
L 96.864589 -223.777598 
L 99.638311 -221.454624 
L 102.412033 -219.13165 
L 105.185755 -216.811105 
L 107.959477 -214.479422 
L 110.733199 -212.156633 
L 113.506921 -209.799551 
L 116.280644 -207.384837 
L 119.054366 -205.089069 
L 121.828088 -202.786367 
L 124.60181 -200.456529 
L 127.375532 -197.94564 
L 130.149254 -195.62301 
L 132.922976 -193.192463 
L 135.696698 -190.823693 
L 138.47042 -188.220484 
L 141.244142 -185.92018 
L 144.017864 -183.556623 
L 146.791586 -181.25878 
L 149.565308 -178.816606 
L 152.33903 -176.362998 
L 155.112753 -173.855166 
L 157.886475 -171.113605 
L 160.660197 -168.249169 
L 163.433919 -165.68831 
L 166.207641 -163.044227 
L 168.981363 -160.360417 
L 171.755085 -157.260444 
L 174.528807 -154.400058 
L 177.302529 -151.289227 
L 180.076251 -148.180833 
L 182.849973 -145.051615 
L 185.623695 -141.866613 
L 188.397417 -138.76967 
L 191.171139 -135.799474 
L 193.944861 -132.632682 
L 196.718584 -129.525791 
L 199.492306 -126.213015 
L 202.266028 -123.104078 
L 205.03975 -119.79628 
L 207.813472 -116.438638 
L 210.587194 -113.297138 
L 213.360916 -110.03907 
L 216.134638 -106.734301 
L 218.90836 -103.319577 
L 221.682082 -99.893848 
L 224.455804 -96.466543 
L 227.229526 -93.020899 
L 230.003248 -89.625627 
L 232.77697 -86.198266 
L 235.550693 -82.707896 
L 238.324415 -79.231451 
L 241.098137 -75.936366 
L 243.871859 -72.442492 
L 246.645581 -68.914881 
L 249.419303 -65.390616 
L 252.193025 -61.866352 
L 254.966747 -58.393838 
L 257.740469 -55.024302 
L 260.514191 -51.655287 
L 263.287913 -48.271976 
L 266.061635 -44.792944 
L 268.835357 -41.459545 
L 271.609079 -37.981679 
L 274.382801 -34.562732 
L 277.156524 -31.139608 
L 279.930246 -27.652826 
L 282.703968 -24.166044 
L 285.47769 -20.679262 
L 288.251412 -17.194647 
L 291.025134 -13.851782 
L 293.798856 -10.513631 
L 296.572578 -7.178271 
L 299.3463 -3.842911 
L 302.120022 -0.507551 
L 304.893744 2.82781 
L 307.667466 6.180234 
L 310.441188 9.60003 
L 313.21491 13.019827 
L 315.988633 16.439624 
L 318.762355 19.859421 
L 321.536077 23.260705 
L 324.309799 26.613061 
L 327.083521 29.965417 
L 329.857243 33.317773 
L 332.630965 36.670129 
L 335.404687 40.022485 
L 338.178409 43.373783 
L 338.178409 -22.377409 
L 338.178409 -22.377409 
L 335.404687 -24.831907 
L 332.630965 -27.286405 
L 329.857243 -29.740903 
L 327.083521 -32.195401 
L 324.309799 -34.649899 
L 321.536077 -37.072063 
L 318.762355 -39.465751 
L 315.988633 -41.859438 
L 313.21491 -44.251336 
L 310.441188 -46.640913 
L 307.667466 -48.986519 
L 304.893744 -51.399739 
L 302.120022 -53.8184 
L 299.3463 -56.207936 
L 296.572578 -58.486016 
L 293.798856 -60.76307 
L 291.025134 -63.040125 
L 288.251412 -65.399173 
L 285.47769 -67.796509 
L 282.703968 -70.218492 
L 279.930246 -72.657338 
L 277.156524 -75.099172 
L 274.382801 -77.539739 
L 271.609079 -79.945285 
L 268.835357 -82.274111 
L 266.061635 -84.60568 
L 263.287913 -87.009041 
L 260.514191 -89.39773 
L 257.740469 -91.762736 
L 254.966747 -94.090477 
L 252.193025 -96.504068 
L 249.419303 -98.784668 
L 246.645581 -101.218366 
L 243.871859 -103.683163 
L 241.098137 -106.14796 
L 238.324415 -108.588465 
L 235.550693 -111.001853 
L 232.77697 -113.400147 
L 230.003248 -115.802944 
L 227.229526 -117.991013 
L 224.455804 -120.222579 
L 221.682082 -122.701051 
L 218.90836 -125.120099 
L 216.134638 -127.569536 
L 213.360916 -129.954157 
L 210.587194 -132.439803 
L 207.813472 -134.928008 
L 205.03975 -137.383632 
L 202.266028 -139.900443 
L 199.492306 -142.415977 
L 196.718584 -145.015738 
L 193.944861 -147.603226 
L 191.171139 -150.215274 
L 188.397417 -152.81696 
L 185.623695 -155.477772 
L 182.849973 -158.086287 
L 180.076251 -160.776789 
L 177.302529 -163.594978 
L 174.528807 -166.425095 
L 171.755085 -169.227063 
L 168.981363 -172.060793 
L 166.207641 -174.772226 
L 163.433919 -177.676531 
L 160.660197 -180.655003 
L 157.886475 -183.826535 
L 155.112753 -186.973119 
L 152.33903 -189.909841 
L 149.565308 -193.000851 
L 146.791586 -196.06609 
L 144.017864 -199.192625 
L 141.244142 -202.230922 
L 138.47042 -205.440686 
L 135.696698 -208.663638 
L 132.922976 -211.903924 
L 130.149254 -215.193828 
L 127.375532 -218.70258 
L 124.60181 -221.88492 
L 121.828088 -225.437957 
L 119.054366 -228.899918 
L 116.280644 -232.027881 
L 113.506921 -235.146107 
L 110.733199 -238.333824 
L 107.959477 -241.649673 
L 105.185755 -244.855777 
L 102.412033 -248.1219 
L 99.638311 -251.603914 
L 96.864589 -254.798838 
L 94.090867 -258.245427 
L 91.317145 -261.565152 
L 88.543423 -264.884877 
L 85.769701 -268.204602 
L 82.995979 -271.524327 
L 80.222257 -274.925756 
L 77.448535 -278.373449 
L 74.674813 -281.795656 
L 71.90109 -285.152548 
L 69.127368 -288.509441 
L 66.353646 -291.866333 
L 63.579924 -295.223226 
z
" id="m26fe3369c2" style="stroke:#ffffff;stroke-opacity:0.15;stroke-width:0.8;"/>
    </defs>
    <g clip-path="url(#p4fec3f7bd1)">
     <use style="fill:#471365;fill-opacity:0.15;stroke:#ffffff;stroke-opacity:0.15;stroke-width:0.8;" x="0" xlink:href="#m26fe3369c2" y="432"/>
    </g>
   </g>
   <g id="line2d_13">
    <path clip-path="url(#p4fec3f7bd1)" d="M 63.579924 158.696611 
L 66.353646 161.505947 
L 69.127368 164.315284 
L 71.90109 167.12462 
L 74.674813 169.933957 
L 77.448535 172.743293 
L 80.222257 175.55263 
L 82.995979 178.361966 
L 85.769701 181.171303 
L 88.543423 183.980639 
L 91.317145 186.789975 
L 94.090867 189.599312 
L 96.864589 192.408648 
L 99.638311 195.217985 
L 102.412033 198.027321 
L 105.185755 200.836658 
L 107.959477 203.645994 
L 110.733199 206.455331 
L 113.506921 209.264667 
L 116.280644 212.074003 
L 119.054366 214.88334 
L 121.828088 217.692676 
L 124.60181 220.502013 
L 127.375532 223.311349 
L 130.149254 226.120686 
L 132.922976 228.930022 
L 135.696698 231.739358 
L 138.47042 234.548695 
L 141.244142 237.358031 
L 144.017864 240.167368 
L 146.791586 242.976704 
L 149.565308 245.786041 
L 152.33903 248.595377 
L 155.112753 251.404714 
L 157.886475 254.21405 
L 160.660197 257.023386 
L 163.433919 259.832723 
L 166.207641 262.642059 
L 168.981363 265.451396 
L 171.755085 268.260732 
L 174.528807 271.070069 
L 177.302529 273.879405 
L 180.076251 276.688741 
L 182.849973 279.498078 
L 185.623695 282.307414 
L 188.397417 285.116751 
L 191.171139 287.926087 
L 193.944861 290.735424 
L 196.718584 293.54476 
L 199.492306 296.354097 
L 202.266028 299.163433 
L 205.03975 301.972769 
L 207.813472 304.782106 
L 210.587194 307.591442 
L 213.360916 310.400779 
L 216.134638 313.210115 
L 218.90836 316.019452 
L 221.682082 318.828788 
L 224.455804 321.638125 
L 227.229526 324.447461 
L 230.003248 327.256797 
L 232.77697 330.066134 
L 235.550693 332.87547 
L 238.324415 335.684807 
L 241.098137 338.494143 
L 243.871859 341.30348 
L 246.645581 344.112816 
L 249.419303 346.922152 
L 252.193025 349.731489 
L 254.966747 352.540825 
L 257.740469 355.350162 
L 260.514191 358.159498 
L 263.287913 360.968835 
L 266.061635 363.778171 
L 268.835357 366.587508 
L 271.609079 369.396844 
L 274.382801 372.20618 
L 277.156524 375.015517 
L 279.930246 377.824853 
L 282.703968 380.63419 
L 285.47769 383.443526 
L 288.251412 386.252863 
L 291.025134 389.062199 
L 293.798856 391.871536 
L 296.572578 394.680872 
L 299.3463 397.490208 
L 302.120022 400.299545 
L 304.893744 403.108881 
L 307.667466 405.918218 
L 310.441188 408.727554 
L 313.21491 411.536891 
L 315.988633 414.346227 
L 318.762355 417.155563 
L 321.536077 419.9649 
L 324.309799 422.774236 
L 327.083521 425.583573 
L 329.857243 428.392909 
L 332.630965 431.202246 
L 334.405929 433 
" style="fill:none;stroke:#471365;stroke-linecap:round;stroke-width:1.8;"/>
   </g>
   <g id="patch_3">
    <path d="M 49.85 389.9 
L 49.85 81.383333 
" style="fill:none;stroke:#262626;stroke-linecap:square;stroke-linejoin:miter;"/>
   </g>
   <g id="patch_4">
    <path d="M 49.85 389.9 
L 351.908333 389.9 
" style="fill:none;stroke:#262626;stroke-linecap:square;stroke-linejoin:miter;"/>
   </g>
   <g id="legend_1">
    <g id="patch_5">
     <path d="M 184.579083 101.340083 
L 345.748333 101.340083 
Q 347.508333 101.340083 347.508333 99.580083 
L 347.508333 87.543333 
Q 347.508333 85.783333 345.748333 85.783333 
L 184.579083 85.783333 
Q 182.819083 85.783333 182.819083 87.543333 
L 182.819083 99.580083 
Q 182.819083 101.340083 184.579083 101.340083 
z
" style="fill:#ffffff;opacity:0.8;stroke:#cccccc;stroke-linejoin:miter;stroke-width:0.8;"/>
    </g>
    <g id="line2d_14"/>
    <g id="line2d_15"/>
    <g id="text_15">
     <!-- pearsonr = -0.71; p = 1.6e-21 -->
     <defs>
      <path d="M 18.109375 8.203125 
L 18.109375 -20.796875 
L 9.078125 -20.796875 
L 9.078125 54.6875 
L 18.109375 54.6875 
L 18.109375 46.390625 
Q 20.953125 51.265625 25.265625 53.625 
Q 29.59375 56 35.59375 56 
Q 45.5625 56 51.78125 48.09375 
Q 58.015625 40.1875 58.015625 27.296875 
Q 58.015625 14.40625 51.78125 6.484375 
Q 45.5625 -1.421875 35.59375 -1.421875 
Q 29.59375 -1.421875 25.265625 0.953125 
Q 20.953125 3.328125 18.109375 8.203125 
z
M 48.6875 27.296875 
Q 48.6875 37.203125 44.609375 42.84375 
Q 40.53125 48.484375 33.40625 48.484375 
Q 26.265625 48.484375 22.1875 42.84375 
Q 18.109375 37.203125 18.109375 27.296875 
Q 18.109375 17.390625 22.1875 11.75 
Q 26.265625 6.109375 33.40625 6.109375 
Q 40.53125 6.109375 44.609375 11.75 
Q 48.6875 17.390625 48.6875 27.296875 
z
" id="DejaVuSans-70"/>
      <path d="M 44.28125 53.078125 
L 44.28125 44.578125 
Q 40.484375 46.53125 36.375 47.5 
Q 32.28125 48.484375 27.875 48.484375 
Q 21.1875 48.484375 17.84375 46.4375 
Q 14.5 44.390625 14.5 40.28125 
Q 14.5 37.15625 16.890625 35.375 
Q 19.28125 33.59375 26.515625 31.984375 
L 29.59375 31.296875 
Q 39.15625 29.25 43.1875 25.515625 
Q 47.21875 21.78125 47.21875 15.09375 
Q 47.21875 7.46875 41.1875 3.015625 
Q 35.15625 -1.421875 24.609375 -1.421875 
Q 20.21875 -1.421875 15.453125 -0.5625 
Q 10.6875 0.296875 5.421875 2 
L 5.421875 11.28125 
Q 10.40625 8.6875 15.234375 7.390625 
Q 20.0625 6.109375 24.8125 6.109375 
Q 31.15625 6.109375 34.5625 8.28125 
Q 37.984375 10.453125 37.984375 14.40625 
Q 37.984375 18.0625 35.515625 20.015625 
Q 33.0625 21.96875 24.703125 23.78125 
L 21.578125 24.515625 
Q 13.234375 26.265625 9.515625 29.90625 
Q 5.8125 33.546875 5.8125 39.890625 
Q 5.8125 47.609375 11.28125 51.796875 
Q 16.75 56 26.8125 56 
Q 31.78125 56 36.171875 55.265625 
Q 40.578125 54.546875 44.28125 53.078125 
z
" id="DejaVuSans-73"/>
      <path d="M 10.59375 45.40625 
L 73.1875 45.40625 
L 73.1875 37.203125 
L 10.59375 37.203125 
z
M 10.59375 25.484375 
L 73.1875 25.484375 
L 73.1875 17.1875 
L 10.59375 17.1875 
z
" id="DejaVuSans-3d"/>
      <path d="M 10.6875 12.40625 
L 21 12.40625 
L 21 0 
L 10.6875 0 
z
" id="DejaVuSans-2e"/>
      <path d="M 8.203125 72.90625 
L 55.078125 72.90625 
L 55.078125 68.703125 
L 28.609375 0 
L 18.3125 0 
L 43.21875 64.59375 
L 8.203125 64.59375 
z
" id="DejaVuSans-37"/>
      <path d="M 11.71875 51.703125 
L 22.015625 51.703125 
L 22.015625 39.3125 
L 11.71875 39.3125 
z
M 11.71875 12.40625 
L 22.015625 12.40625 
L 22.015625 4 
L 14.015625 -11.625 
L 7.71875 -11.625 
L 11.71875 4 
z
" id="DejaVuSans-3b"/>
     </defs>
     <g style="fill:#262626;" transform="translate(210.979083 95.989958)scale(0.088 -0.088)">
      <use xlink:href="#DejaVuSans-70"/>
      <use x="63.476562" xlink:href="#DejaVuSans-65"/>
      <use x="125" xlink:href="#DejaVuSans-61"/>
      <use x="186.279297" xlink:href="#DejaVuSans-72"/>
      <use x="227.392578" xlink:href="#DejaVuSans-73"/>
      <use x="279.492188" xlink:href="#DejaVuSans-6f"/>
      <use x="340.673828" xlink:href="#DejaVuSans-6e"/>
      <use x="404.052734" xlink:href="#DejaVuSans-72"/>
      <use x="445.166016" xlink:href="#DejaVuSans-20"/>
      <use x="476.953125" xlink:href="#DejaVuSans-3d"/>
      <use x="560.742188" xlink:href="#DejaVuSans-20"/>
      <use x="592.529297" xlink:href="#DejaVuSans-2d"/>
      <use x="628.613281" xlink:href="#DejaVuSans-30"/>
      <use x="692.236328" xlink:href="#DejaVuSans-2e"/>
      <use x="724.023438" xlink:href="#DejaVuSans-37"/>
      <use x="787.646484" xlink:href="#DejaVuSans-31"/>
      <use x="851.269531" xlink:href="#DejaVuSans-3b"/>
      <use x="884.960938" xlink:href="#DejaVuSans-20"/>
      <use x="916.748047" xlink:href="#DejaVuSans-70"/>
      <use x="980.224609" xlink:href="#DejaVuSans-20"/>
      <use x="1012.011719" xlink:href="#DejaVuSans-3d"/>
      <use x="1095.800781" xlink:href="#DejaVuSans-20"/>
      <use x="1127.587891" xlink:href="#DejaVuSans-31"/>
      <use x="1191.210938" xlink:href="#DejaVuSans-2e"/>
      <use x="1222.998047" xlink:href="#DejaVuSans-36"/>
      <use x="1286.621094" xlink:href="#DejaVuSans-65"/>
      <use x="1348.144531" xlink:href="#DejaVuSans-2d"/>
      <use x="1384.228516" xlink:href="#DejaVuSans-32"/>
      <use x="1447.851562" xlink:href="#DejaVuSans-31"/>
     </g>
    </g>
   </g>
  </g>
  <g id="axes_2">
   <g id="patch_6">
    <path d="M 49.85 60.983333 
L 351.908333 60.983333 
L 351.908333 15.6 
L 49.85 15.6 
z
" style="fill:#ffffff;"/>
   </g>
   <g id="matplotlib.axis_3">
    <g id="xtick_7">
     <g id="line2d_16">
      <g>
       <use style="fill:#262626;stroke:#262626;" x="69.825331" xlink:href="#m59c9d44321" y="60.983333"/>
      </g>
     </g>
    </g>
    <g id="xtick_8">
     <g id="line2d_17">
      <g>
       <use style="fill:#262626;stroke:#262626;" x="121.543646" xlink:href="#m59c9d44321" y="60.983333"/>
      </g>
     </g>
    </g>
    <g id="xtick_9">
     <g id="line2d_18">
      <g>
       <use style="fill:#262626;stroke:#262626;" x="173.26196" xlink:href="#m59c9d44321" y="60.983333"/>
      </g>
     </g>
    </g>
    <g id="xtick_10">
     <g id="line2d_19">
      <g>
       <use style="fill:#262626;stroke:#262626;" x="224.980275" xlink:href="#m59c9d44321" y="60.983333"/>
      </g>
     </g>
    </g>
    <g id="xtick_11">
     <g id="line2d_20">
      <g>
       <use style="fill:#262626;stroke:#262626;" x="276.698589" xlink:href="#m59c9d44321" y="60.983333"/>
      </g>
     </g>
    </g>
    <g id="xtick_12">
     <g id="line2d_21">
      <g>
       <use style="fill:#262626;stroke:#262626;" x="328.416904" xlink:href="#m59c9d44321" y="60.983333"/>
      </g>
     </g>
    </g>
   </g>
   <g id="matplotlib.axis_4">
    <g id="ytick_7"/>
    <g id="ytick_8"/>
   </g>
   <g id="patch_7">
    <path clip-path="url(#p4ea184af35)" d="M 118.50067 60.983333 
L 136.807002 60.983333 
L 136.807002 17.761111 
L 118.50067 17.761111 
z
" style="fill:#471365;opacity:0.4;stroke:#ffffff;stroke-linejoin:miter;stroke-width:0.8;"/>
   </g>
   <g id="patch_8">
    <path clip-path="url(#p4ea184af35)" d="M 136.807002 60.983333 
L 155.113335 60.983333 
L 155.113335 22.56358 
L 136.807002 22.56358 
z
" style="fill:#471365;opacity:0.4;stroke:#ffffff;stroke-linejoin:miter;stroke-width:0.8;"/>
   </g>
   <g id="patch_9">
    <path clip-path="url(#p4ea184af35)" d="M 155.113335 60.983333 
L 173.419668 60.983333 
L 173.419668 32.168519 
L 155.113335 32.168519 
z
" style="fill:#471365;opacity:0.4;stroke:#ffffff;stroke-linejoin:miter;stroke-width:0.8;"/>
   </g>
   <g id="patch_10">
    <path clip-path="url(#p4ea184af35)" d="M 173.419668 60.983333 
L 191.726 60.983333 
L 191.726 47.776543 
L 173.419668 47.776543 
z
" style="fill:#471365;opacity:0.4;stroke:#ffffff;stroke-linejoin:miter;stroke-width:0.8;"/>
   </g>
   <g id="patch_11">
    <path clip-path="url(#p4ea184af35)" d="M 191.726 60.983333 
L 210.032333 60.983333 
L 210.032333 50.177778 
L 191.726 50.177778 
z
" style="fill:#471365;opacity:0.4;stroke:#ffffff;stroke-linejoin:miter;stroke-width:0.8;"/>
   </g>
   <g id="patch_12">
    <path clip-path="url(#p4ea184af35)" d="M 210.032333 60.983333 
L 228.338666 60.983333 
L 228.338666 52.579012 
L 210.032333 52.579012 
z
" style="fill:#471365;opacity:0.4;stroke:#ffffff;stroke-linejoin:miter;stroke-width:0.8;"/>
   </g>
   <g id="patch_13">
    <path clip-path="url(#p4ea184af35)" d="M 228.338666 60.983333 
L 246.644998 60.983333 
L 246.644998 53.77963 
L 228.338666 53.77963 
z
" style="fill:#471365;opacity:0.4;stroke:#ffffff;stroke-linejoin:miter;stroke-width:0.8;"/>
   </g>
   <g id="patch_14">
    <path clip-path="url(#p4ea184af35)" d="M 246.644998 60.983333 
L 264.951331 60.983333 
L 264.951331 54.980247 
L 246.644998 54.980247 
z
" style="fill:#471365;opacity:0.4;stroke:#ffffff;stroke-linejoin:miter;stroke-width:0.8;"/>
   </g>
   <g id="patch_15">
    <path clip-path="url(#p4ea184af35)" d="M 264.951331 60.983333 
L 283.257664 60.983333 
L 283.257664 59.782716 
L 264.951331 59.782716 
z
" style="fill:#471365;opacity:0.4;stroke:#ffffff;stroke-linejoin:miter;stroke-width:0.8;"/>
   </g>
   <g id="line2d_22">
    <path clip-path="url(#p4ea184af35)" d="M 76.061674 60.911293 
L 78.583239 60.857104 
L 81.104805 60.768534 
L 83.62637 60.628292 
L 86.147936 60.41318 
L 88.669501 60.093562 
L 91.191067 59.633566 
L 93.712632 58.99234 
L 96.234198 58.126638 
L 98.755763 56.994783 
L 101.277329 55.56184 
L 103.798894 53.80545 
L 106.32046 51.721521 
L 108.842025 49.328757 
L 111.363591 46.671022 
L 113.885156 43.816792 
L 116.406722 40.855366 
L 118.928287 37.890146 
L 121.449853 35.029798 
L 123.971418 32.378607 
L 126.492984 30.027439 
L 129.014549 28.046635 
L 131.536115 26.481767 
L 134.05768 25.352625 
L 136.579246 24.655238 
L 139.100811 24.366257 
L 141.622377 24.448703 
L 144.143943 24.858001 
L 146.665508 25.547329 
L 149.187074 26.471569 
L 151.708639 27.589509 
L 154.230205 28.864338 
L 156.75177 30.262801 
L 159.273336 31.753616 
L 161.794901 33.30584 
L 164.316467 34.887803 
L 166.838032 36.467016 
L 169.359598 38.011183 
L 171.881163 39.490146 
L 174.402729 40.878347 
L 176.924294 42.157218 
L 179.44586 43.316949 
L 181.967425 44.357146 
L 184.488991 45.286137 
L 187.010556 46.118979 
L 189.532122 46.874453 
L 192.053687 47.57161 
L 194.575253 48.226482 
L 197.096818 48.849607 
L 199.618384 49.4448 
L 202.139949 50.009382 
L 204.661515 50.535777 
L 207.18308 51.014081 
L 209.704646 51.435061 
L 212.226211 51.792951 
L 214.747777 52.087478 
L 217.269343 52.324737 
L 219.790908 52.516772 
L 222.312474 52.679999 
L 224.834039 52.832831 
L 227.355605 52.993009 
L 229.87717 53.17522 
L 232.398736 53.38944 
L 234.920301 53.640308 
L 237.441867 53.927542 
L 239.963432 54.247184 
L 242.484998 54.593268 
L 245.006563 54.959435 
L 247.528129 55.340093 
L 250.049694 55.730891 
L 252.57126 56.128511 
L 255.092825 56.529983 
L 257.614391 56.931866 
L 260.135956 57.329636 
L 262.657522 57.717538 
L 265.179087 58.088974 
L 267.700653 58.437319 
L 270.222218 58.756935 
L 272.743784 59.044076 
L 275.265349 59.297446 
L 277.786915 59.51826 
L 280.30848 59.709813 
L 282.830046 59.876701 
L 285.351612 60.023882 
L 287.873177 60.155828 
L 290.394743 60.275927 
L 292.916308 60.386218 
L 295.437874 60.48748 
L 297.959439 60.579547 
L 300.481005 60.661765 
L 303.00257 60.733435 
L 305.524136 60.794155 
L 308.045701 60.844011 
L 310.567267 60.883616 
L 313.088832 60.914024 
L 315.610398 60.936577 
L 318.131963 60.952733 
L 320.653529 60.96391 
L 323.175094 60.971379 
L 325.69666 60.976201 
" style="fill:none;stroke:#471365;stroke-linecap:round;stroke-width:1.2;"/>
   </g>
   <g id="patch_16">
    <path d="M 49.85 60.983333 
L 351.908333 60.983333 
" style="fill:none;stroke:#262626;stroke-linecap:square;stroke-linejoin:miter;"/>
   </g>
  </g>
  <g id="axes_3">
   <g id="patch_17">
    <path d="M 372.308333 389.9 
L 416.4 389.9 
L 416.4 81.383333 
L 372.308333 81.383333 
z
" style="fill:#ffffff;"/>
   </g>
   <g id="matplotlib.axis_5">
    <g id="xtick_13"/>
    <g id="xtick_14"/>
   </g>
   <g id="matplotlib.axis_6">
    <g id="ytick_9">
     <g id="line2d_23">
      <g>
       <use style="fill:#262626;stroke:#262626;" x="372.308333" xlink:href="#m63aea6cd42" y="389.9"/>
      </g>
     </g>
    </g>
    <g id="ytick_10">
     <g id="line2d_24">
      <g>
       <use style="fill:#262626;stroke:#262626;" x="372.308333" xlink:href="#m63aea6cd42" y="333.806061"/>
      </g>
     </g>
    </g>
    <g id="ytick_11">
     <g id="line2d_25">
      <g>
       <use style="fill:#262626;stroke:#262626;" x="372.308333" xlink:href="#m63aea6cd42" y="277.712121"/>
      </g>
     </g>
    </g>
    <g id="ytick_12">
     <g id="line2d_26">
      <g>
       <use style="fill:#262626;stroke:#262626;" x="372.308333" xlink:href="#m63aea6cd42" y="221.618182"/>
      </g>
     </g>
    </g>
    <g id="ytick_13">
     <g id="line2d_27">
      <g>
       <use style="fill:#262626;stroke:#262626;" x="372.308333" xlink:href="#m63aea6cd42" y="165.524242"/>
      </g>
     </g>
    </g>
    <g id="ytick_14">
     <g id="line2d_28">
      <g>
       <use style="fill:#262626;stroke:#262626;" x="372.308333" xlink:href="#m63aea6cd42" y="109.430303"/>
      </g>
     </g>
    </g>
   </g>
   <g id="patch_18">
    <path clip-path="url(#p8ca0f3a3f7)" d="M 372.308333 345.370633 
L 383.358876 345.370633 
L 383.358876 316.692607 
L 372.308333 316.692607 
z
" style="fill:#471365;opacity:0.4;stroke:#ffffff;stroke-linejoin:miter;stroke-width:0.8;"/>
   </g>
   <g id="patch_19">
    <path clip-path="url(#p8ca0f3a3f7)" d="M 372.308333 316.692607 
L 414.300397 316.692607 
L 414.300397 288.01458 
L 372.308333 288.01458 
z
" style="fill:#471365;opacity:0.4;stroke:#ffffff;stroke-linejoin:miter;stroke-width:0.8;"/>
   </g>
   <g id="patch_20">
    <path clip-path="url(#p8ca0f3a3f7)" d="M 372.308333 288.01458 
L 406.565017 288.01458 
L 406.565017 259.336553 
L 372.308333 259.336553 
z
" style="fill:#471365;opacity:0.4;stroke:#ffffff;stroke-linejoin:miter;stroke-width:0.8;"/>
   </g>
   <g id="patch_21">
    <path clip-path="url(#p8ca0f3a3f7)" d="M 372.308333 259.336553 
L 393.304365 259.336553 
L 393.304365 230.658527 
L 372.308333 230.658527 
z
" style="fill:#471365;opacity:0.4;stroke:#ffffff;stroke-linejoin:miter;stroke-width:0.8;"/>
   </g>
   <g id="patch_22">
    <path clip-path="url(#p8ca0f3a3f7)" d="M 372.308333 230.658527 
L 386.674039 230.658527 
L 386.674039 201.9805 
L 372.308333 201.9805 
z
" style="fill:#471365;opacity:0.4;stroke:#ffffff;stroke-linejoin:miter;stroke-width:0.8;"/>
   </g>
   <g id="patch_23">
    <path clip-path="url(#p8ca0f3a3f7)" d="M 372.308333 201.9805 
L 380.043713 201.9805 
L 380.043713 173.302474 
L 372.308333 173.302474 
z
" style="fill:#471365;opacity:0.4;stroke:#ffffff;stroke-linejoin:miter;stroke-width:0.8;"/>
   </g>
   <g id="patch_24">
    <path clip-path="url(#p8ca0f3a3f7)" d="M 372.308333 173.302474 
L 381.148768 173.302474 
L 381.148768 144.624447 
L 372.308333 144.624447 
z
" style="fill:#471365;opacity:0.4;stroke:#ffffff;stroke-linejoin:miter;stroke-width:0.8;"/>
   </g>
   <g id="patch_25">
    <path clip-path="url(#p8ca0f3a3f7)" d="M 372.308333 144.624447 
L 377.833605 144.624447 
L 377.833605 115.946421 
L 372.308333 115.946421 
z
" style="fill:#471365;opacity:0.4;stroke:#ffffff;stroke-linejoin:miter;stroke-width:0.8;"/>
   </g>
   <g id="line2d_29">
    <path clip-path="url(#p8ca0f3a3f7)" d="M 372.317473 405.750983 
L 372.32417 402.213761 
L 372.335133 398.67654 
L 372.352671 395.139319 
L 372.380122 391.602097 
L 372.422213 388.064876 
L 372.4855 384.527655 
L 372.578909 380.990433 
L 372.71434 377.453212 
L 372.907304 373.915991 
L 373.177501 370.378769 
L 373.549201 366.841548 
L 374.051217 363.304327 
L 374.716225 359.767105 
L 375.57918 356.229884 
L 376.674641 352.692663 
L 378.032949 349.155441 
L 379.67546 345.61822 
L 381.609312 342.080999 
L 383.822497 338.543777 
L 386.280221 335.006556 
L 388.923559 331.469335 
L 391.671212 327.932113 
L 394.424714 324.394892 
L 397.076789 320.857671 
L 399.521848 317.320449 
L 401.66705 313.783228 
L 403.442043 310.246007 
L 404.805629 306.708785 
L 405.748164 303.171564 
L 406.289325 299.634343 
L 406.471877 296.097122 
L 406.352879 292.5599 
L 405.994192 289.022679 
L 405.45419 285.485458 
L 404.782027 281.948236 
L 404.015092 278.411015 
L 403.179426 274.873794 
L 402.292196 271.336572 
L 401.365029 267.799351 
L 400.407006 264.26213 
L 399.426557 260.724908 
L 398.431957 257.187687 
L 397.430684 253.650466 
L 396.428193 250.113244 
L 395.426815 246.576023 
L 394.425308 243.038802 
L 393.419384 239.50158 
L 392.403169 235.964359 
L 391.371323 232.427138 
L 390.321363 228.889916 
L 389.255692 225.352695 
L 388.182906 221.815474 
L 387.118046 218.278252 
L 386.081708 214.741031 
L 385.098067 211.20381 
L 384.192112 207.666588 
L 383.386535 204.129367 
L 382.69879 200.592146 
L 382.138838 197.054924 
L 381.707965 193.517703 
L 381.398802 189.980482 
L 381.196482 186.44326 
L 381.080582 182.906039 
L 381.027424 179.368818 
L 381.012268 175.831596 
L 381.011094 172.294375 
L 381.001828 168.757154 
L 380.965089 165.219932 
L 380.884633 161.682711 
L 380.747699 158.14549 
L 380.545393 154.608268 
L 380.273088 151.071047 
L 379.93073 147.533826 
L 379.522869 143.996604 
L 379.058262 140.459383 
L 378.549016 136.922162 
L 378.009344 133.384941 
L 377.454156 129.847719 
L 376.897729 126.310498 
L 376.352674 122.773277 
L 375.829339 119.236055 
L 375.335646 115.698834 
L 374.87728 112.161613 
L 374.458059 108.624391 
L 374.080325 105.08717 
L 373.745256 101.549949 
L 373.453034 98.012727 
L 373.2029 94.475506 
L 372.993162 90.938285 
L 372.821215 87.401063 
L 372.683638 83.863842 
L 372.576375 80.326621 
L 372.494992 76.789399 
L 372.434969 73.252178 
L 372.391974 69.714957 
L 372.362081 66.177735 
L 372.34192 62.640514 
L 372.328734 59.103293 
L 372.320374 55.566071 
" style="fill:none;stroke:#471365;stroke-linecap:round;stroke-width:1.2;"/>
   </g>
   <g id="patch_26">
    <path d="M 372.308333 389.9 
L 372.308333 81.383333 
" style="fill:none;stroke:#262626;stroke-linecap:square;stroke-linejoin:miter;"/>
   </g>
  </g>
 </g>
 <defs>
  <clipPath id="p4fec3f7bd1">
   <rect height="308.516667" width="302.058333" x="49.85" y="81.383333"/>
  </clipPath>
  <clipPath id="p4ea184af35">
   <rect height="45.383333" width="302.058333" x="49.85" y="15.6"/>
  </clipPath>
  <clipPath id="p8ca0f3a3f7">
   <rect height="308.516667" width="44.091667" x="372.308333" y="81.383333"/>
  </clipPath>
 </defs>
</svg>
