<?xml version="1.0" encoding="utf-8" standalone="no"?>
<!DOCTYPE svg PUBLIC "-//W3C//DTD SVG 1.1//EN"
  "http://www.w3.org/Graphics/SVG/1.1/DTD/svg11.dtd">
<!-- Created with matplotlib (http://matplotlib.org/) -->
<svg height="432pt" version="1.1" viewBox="0 0 432 432" width="432pt" xmlns="http://www.w3.org/2000/svg" xmlns:xlink="http://www.w3.org/1999/xlink">
 <defs>
  <style type="text/css">
*{stroke-linecap:butt;stroke-linejoin:round;}
  </style>
 </defs>
 <g id="figure_1">
  <g id="patch_1">
   <path d="M 0 432 
L 432 432 
L 432 0 
L 0 0 
z
" style="fill:#ffffff;"/>
  </g>
  <g id="axes_1">
   <g id="patch_2">
    <path d="M 49.418 390.332 
L 352.268333 390.332 
L 352.268333 81.023333 
L 49.418 81.023333 
z
" style="fill:#ffffff;"/>
   </g>
   <g id="matplotlib.axis_1">
    <g id="xtick_1">
     <g id="line2d_1">
      <defs>
       <path d="M 0 0 
L 0 4.8 
" id="m9b822935d7" style="stroke:#262626;"/>
      </defs>
      <g>
       <use style="fill:#262626;stroke:#262626;" x="56.079031" xlink:href="#m9b822935d7" y="390.332"/>
      </g>
     </g>
     <g id="text_1">
      <!-- −2 -->
      <defs>
       <path d="M 10.59375 35.5 
L 73.1875 35.5 
L 73.1875 27.203125 
L 10.59375 27.203125 
z
" id="DejaVuSans-2212"/>
       <path d="M 19.1875 8.296875 
L 53.609375 8.296875 
L 53.609375 0 
L 7.328125 0 
L 7.328125 8.296875 
Q 12.9375 14.109375 22.625 23.890625 
Q 32.328125 33.6875 34.8125 36.53125 
Q 39.546875 41.84375 41.421875 45.53125 
Q 43.3125 49.21875 43.3125 52.78125 
Q 43.3125 58.59375 39.234375 62.25 
Q 35.15625 65.921875 28.609375 65.921875 
Q 23.96875 65.921875 18.8125 64.3125 
Q 13.671875 62.703125 7.8125 59.421875 
L 7.8125 69.390625 
Q 13.765625 71.78125 18.9375 73 
Q 24.125 74.21875 28.421875 74.21875 
Q 39.75 74.21875 46.484375 68.546875 
Q 53.21875 62.890625 53.21875 53.421875 
Q 53.21875 48.921875 51.53125 44.890625 
Q 49.859375 40.875 45.40625 35.40625 
Q 44.1875 33.984375 37.640625 27.21875 
Q 31.109375 20.453125 19.1875 8.296875 
z
" id="DejaVuSans-32"/>
      </defs>
      <g style="fill:#262626;" transform="translate(49.592468 405.318625)scale(0.088 -0.088)">
       <use xlink:href="#DejaVuSans-2212"/>
       <use x="83.789062" xlink:href="#DejaVuSans-32"/>
      </g>
     </g>
    </g>
    <g id="xtick_2">
     <g id="line2d_2">
      <g>
       <use style="fill:#262626;stroke:#262626;" x="99.551545" xlink:href="#m9b822935d7" y="390.332"/>
      </g>
     </g>
     <g id="text_2">
      <!-- 0 -->
      <defs>
       <path d="M 31.78125 66.40625 
Q 24.171875 66.40625 20.328125 58.90625 
Q 16.5 51.421875 16.5 36.375 
Q 16.5 21.390625 20.328125 13.890625 
Q 24.171875 6.390625 31.78125 6.390625 
Q 39.453125 6.390625 43.28125 13.890625 
Q 47.125 21.390625 47.125 36.375 
Q 47.125 51.421875 43.28125 58.90625 
Q 39.453125 66.40625 31.78125 66.40625 
z
M 31.78125 74.21875 
Q 44.046875 74.21875 50.515625 64.515625 
Q 56.984375 54.828125 56.984375 36.375 
Q 56.984375 17.96875 50.515625 8.265625 
Q 44.046875 -1.421875 31.78125 -1.421875 
Q 19.53125 -1.421875 13.0625 8.265625 
Q 6.59375 17.96875 6.59375 36.375 
Q 6.59375 54.828125 13.0625 64.515625 
Q 19.53125 74.21875 31.78125 74.21875 
z
" id="DejaVuSans-30"/>
      </defs>
      <g style="fill:#262626;" transform="translate(96.752045 405.318625)scale(0.088 -0.088)">
       <use xlink:href="#DejaVuSans-30"/>
      </g>
     </g>
    </g>
    <g id="xtick_3">
     <g id="line2d_3">
      <g>
       <use style="fill:#262626;stroke:#262626;" x="143.024059" xlink:href="#m9b822935d7" y="390.332"/>
      </g>
     </g>
     <g id="text_3">
      <!-- 2 -->
      <g style="fill:#262626;" transform="translate(140.224559 405.318625)scale(0.088 -0.088)">
       <use xlink:href="#DejaVuSans-32"/>
      </g>
     </g>
    </g>
    <g id="xtick_4">
     <g id="line2d_4">
      <g>
       <use style="fill:#262626;stroke:#262626;" x="186.496573" xlink:href="#m9b822935d7" y="390.332"/>
      </g>
     </g>
     <g id="text_4">
      <!-- 4 -->
      <defs>
       <path d="M 37.796875 64.3125 
L 12.890625 25.390625 
L 37.796875 25.390625 
z
M 35.203125 72.90625 
L 47.609375 72.90625 
L 47.609375 25.390625 
L 58.015625 25.390625 
L 58.015625 17.1875 
L 47.609375 17.1875 
L 47.609375 0 
L 37.796875 0 
L 37.796875 17.1875 
L 4.890625 17.1875 
L 4.890625 26.703125 
z
" id="DejaVuSans-34"/>
      </defs>
      <g style="fill:#262626;" transform="translate(183.697073 405.318625)scale(0.088 -0.088)">
       <use xlink:href="#DejaVuSans-34"/>
      </g>
     </g>
    </g>
    <g id="xtick_5">
     <g id="line2d_5">
      <g>
       <use style="fill:#262626;stroke:#262626;" x="229.969087" xlink:href="#m9b822935d7" y="390.332"/>
      </g>
     </g>
     <g id="text_5">
      <!-- 6 -->
      <defs>
       <path d="M 33.015625 40.375 
Q 26.375 40.375 22.484375 35.828125 
Q 18.609375 31.296875 18.609375 23.390625 
Q 18.609375 15.53125 22.484375 10.953125 
Q 26.375 6.390625 33.015625 6.390625 
Q 39.65625 6.390625 43.53125 10.953125 
Q 47.40625 15.53125 47.40625 23.390625 
Q 47.40625 31.296875 43.53125 35.828125 
Q 39.65625 40.375 33.015625 40.375 
z
M 52.59375 71.296875 
L 52.59375 62.3125 
Q 48.875 64.0625 45.09375 64.984375 
Q 41.3125 65.921875 37.59375 65.921875 
Q 27.828125 65.921875 22.671875 59.328125 
Q 17.53125 52.734375 16.796875 39.40625 
Q 19.671875 43.65625 24.015625 45.921875 
Q 28.375 48.1875 33.59375 48.1875 
Q 44.578125 48.1875 50.953125 41.515625 
Q 57.328125 34.859375 57.328125 23.390625 
Q 57.328125 12.15625 50.6875 5.359375 
Q 44.046875 -1.421875 33.015625 -1.421875 
Q 20.359375 -1.421875 13.671875 8.265625 
Q 6.984375 17.96875 6.984375 36.375 
Q 6.984375 53.65625 15.1875 63.9375 
Q 23.390625 74.21875 37.203125 74.21875 
Q 40.921875 74.21875 44.703125 73.484375 
Q 48.484375 72.75 52.59375 71.296875 
z
" id="DejaVuSans-36"/>
      </defs>
      <g style="fill:#262626;" transform="translate(227.169587 405.318625)scale(0.088 -0.088)">
       <use xlink:href="#DejaVuSans-36"/>
      </g>
     </g>
    </g>
    <g id="xtick_6">
     <g id="line2d_6">
      <g>
       <use style="fill:#262626;stroke:#262626;" x="273.441602" xlink:href="#m9b822935d7" y="390.332"/>
      </g>
     </g>
     <g id="text_6">
      <!-- 8 -->
      <defs>
       <path d="M 31.78125 34.625 
Q 24.75 34.625 20.71875 30.859375 
Q 16.703125 27.09375 16.703125 20.515625 
Q 16.703125 13.921875 20.71875 10.15625 
Q 24.75 6.390625 31.78125 6.390625 
Q 38.8125 6.390625 42.859375 10.171875 
Q 46.921875 13.96875 46.921875 20.515625 
Q 46.921875 27.09375 42.890625 30.859375 
Q 38.875 34.625 31.78125 34.625 
z
M 21.921875 38.8125 
Q 15.578125 40.375 12.03125 44.71875 
Q 8.5 49.078125 8.5 55.328125 
Q 8.5 64.0625 14.71875 69.140625 
Q 20.953125 74.21875 31.78125 74.21875 
Q 42.671875 74.21875 48.875 69.140625 
Q 55.078125 64.0625 55.078125 55.328125 
Q 55.078125 49.078125 51.53125 44.71875 
Q 48 40.375 41.703125 38.8125 
Q 48.828125 37.15625 52.796875 32.3125 
Q 56.78125 27.484375 56.78125 20.515625 
Q 56.78125 9.90625 50.3125 4.234375 
Q 43.84375 -1.421875 31.78125 -1.421875 
Q 19.734375 -1.421875 13.25 4.234375 
Q 6.78125 9.90625 6.78125 20.515625 
Q 6.78125 27.484375 10.78125 32.3125 
Q 14.796875 37.15625 21.921875 38.8125 
z
M 18.3125 54.390625 
Q 18.3125 48.734375 21.84375 45.5625 
Q 25.390625 42.390625 31.78125 42.390625 
Q 38.140625 42.390625 41.71875 45.5625 
Q 45.3125 48.734375 45.3125 54.390625 
Q 45.3125 60.0625 41.71875 63.234375 
Q 38.140625 66.40625 31.78125 66.40625 
Q 25.390625 66.40625 21.84375 63.234375 
Q 18.3125 60.0625 18.3125 54.390625 
z
" id="DejaVuSans-38"/>
      </defs>
      <g style="fill:#262626;" transform="translate(270.642102 405.318625)scale(0.088 -0.088)">
       <use xlink:href="#DejaVuSans-38"/>
      </g>
     </g>
    </g>
    <g id="xtick_7">
     <g id="line2d_7">
      <g>
       <use style="fill:#262626;stroke:#262626;" x="316.914116" xlink:href="#m9b822935d7" y="390.332"/>
      </g>
     </g>
     <g id="text_7">
      <!-- 10 -->
      <defs>
       <path d="M 12.40625 8.296875 
L 28.515625 8.296875 
L 28.515625 63.921875 
L 10.984375 60.40625 
L 10.984375 69.390625 
L 28.421875 72.90625 
L 38.28125 72.90625 
L 38.28125 8.296875 
L 54.390625 8.296875 
L 54.390625 0 
L 12.40625 0 
z
" id="DejaVuSans-31"/>
      </defs>
      <g style="fill:#262626;" transform="translate(311.315116 405.318625)scale(0.088 -0.088)">
       <use xlink:href="#DejaVuSans-31"/>
       <use x="63.623047" xlink:href="#DejaVuSans-30"/>
      </g>
     </g>
    </g>
    <g id="text_8">
     <!-- g(k-1) -->
     <defs>
      <path d="M 45.40625 27.984375 
Q 45.40625 37.75 41.375 43.109375 
Q 37.359375 48.484375 30.078125 48.484375 
Q 22.859375 48.484375 18.828125 43.109375 
Q 14.796875 37.75 14.796875 27.984375 
Q 14.796875 18.265625 18.828125 12.890625 
Q 22.859375 7.515625 30.078125 7.515625 
Q 37.359375 7.515625 41.375 12.890625 
Q 45.40625 18.265625 45.40625 27.984375 
z
M 54.390625 6.78125 
Q 54.390625 -7.171875 48.1875 -13.984375 
Q 42 -20.796875 29.203125 -20.796875 
Q 24.46875 -20.796875 20.265625 -20.09375 
Q 16.0625 -19.390625 12.109375 -17.921875 
L 12.109375 -9.1875 
Q 16.0625 -11.328125 19.921875 -12.34375 
Q 23.78125 -13.375 27.78125 -13.375 
Q 36.625 -13.375 41.015625 -8.765625 
Q 45.40625 -4.15625 45.40625 5.171875 
L 45.40625 9.625 
Q 42.625 4.78125 38.28125 2.390625 
Q 33.9375 0 27.875 0 
Q 17.828125 0 11.671875 7.65625 
Q 5.515625 15.328125 5.515625 27.984375 
Q 5.515625 40.671875 11.671875 48.328125 
Q 17.828125 56 27.875 56 
Q 33.9375 56 38.28125 53.609375 
Q 42.625 51.21875 45.40625 46.390625 
L 45.40625 54.6875 
L 54.390625 54.6875 
z
" id="DejaVuSans-67"/>
      <path d="M 31 75.875 
Q 24.46875 64.65625 21.28125 53.65625 
Q 18.109375 42.671875 18.109375 31.390625 
Q 18.109375 20.125 21.3125 9.0625 
Q 24.515625 -2 31 -13.1875 
L 23.1875 -13.1875 
Q 15.875 -1.703125 12.234375 9.375 
Q 8.59375 20.453125 8.59375 31.390625 
Q 8.59375 42.28125 12.203125 53.3125 
Q 15.828125 64.359375 23.1875 75.875 
z
" id="DejaVuSans-28"/>
      <path d="M 9.078125 75.984375 
L 18.109375 75.984375 
L 18.109375 31.109375 
L 44.921875 54.6875 
L 56.390625 54.6875 
L 27.390625 29.109375 
L 57.625 0 
L 45.90625 0 
L 18.109375 26.703125 
L 18.109375 0 
L 9.078125 0 
z
" id="DejaVuSans-6b"/>
      <path d="M 4.890625 31.390625 
L 31.203125 31.390625 
L 31.203125 23.390625 
L 4.890625 23.390625 
z
" id="DejaVuSans-2d"/>
      <path d="M 8.015625 75.875 
L 15.828125 75.875 
Q 23.140625 64.359375 26.78125 53.3125 
Q 30.421875 42.28125 30.421875 31.390625 
Q 30.421875 20.453125 26.78125 9.375 
Q 23.140625 -1.703125 15.828125 -13.1875 
L 8.015625 -13.1875 
Q 14.5 -2 17.703125 9.0625 
Q 20.90625 20.125 20.90625 31.390625 
Q 20.90625 42.671875 17.703125 53.65625 
Q 14.5 64.65625 8.015625 75.875 
z
" id="DejaVuSans-29"/>
     </defs>
     <g style="fill:#262626;" transform="translate(186.485167 418.44325)scale(0.096 -0.096)">
      <use xlink:href="#DejaVuSans-67"/>
      <use x="63.476562" xlink:href="#DejaVuSans-28"/>
      <use x="102.490234" xlink:href="#DejaVuSans-6b"/>
      <use x="160.400391" xlink:href="#DejaVuSans-2d"/>
      <use x="196.484375" xlink:href="#DejaVuSans-31"/>
      <use x="260.107422" xlink:href="#DejaVuSans-29"/>
     </g>
    </g>
   </g>
   <g id="matplotlib.axis_2">
    <g id="ytick_1">
     <g id="line2d_8">
      <defs>
       <path d="M 0 0 
L -4.8 0 
" id="m0038c2ef91" style="stroke:#262626;"/>
      </defs>
      <g>
       <use style="fill:#262626;stroke:#262626;" x="49.418" xlink:href="#m0038c2ef91" y="390.332"/>
      </g>
     </g>
     <g id="text_9">
      <!-- 0 -->
      <g style="fill:#262626;" transform="translate(35.519 393.675313)scale(0.088 -0.088)">
       <use xlink:href="#DejaVuSans-30"/>
      </g>
     </g>
    </g>
    <g id="ytick_2">
     <g id="line2d_9">
      <g>
       <use style="fill:#262626;stroke:#262626;" x="49.418" xlink:href="#m0038c2ef91" y="334.094061"/>
      </g>
     </g>
     <g id="text_10">
      <!-- 20 -->
      <g style="fill:#262626;" transform="translate(29.92 337.437373)scale(0.088 -0.088)">
       <use xlink:href="#DejaVuSans-32"/>
       <use x="63.623047" xlink:href="#DejaVuSans-30"/>
      </g>
     </g>
    </g>
    <g id="ytick_3">
     <g id="line2d_10">
      <g>
       <use style="fill:#262626;stroke:#262626;" x="49.418" xlink:href="#m0038c2ef91" y="277.856121"/>
      </g>
     </g>
     <g id="text_11">
      <!-- 40 -->
      <g style="fill:#262626;" transform="translate(29.92 281.199434)scale(0.088 -0.088)">
       <use xlink:href="#DejaVuSans-34"/>
       <use x="63.623047" xlink:href="#DejaVuSans-30"/>
      </g>
     </g>
    </g>
    <g id="ytick_4">
     <g id="line2d_11">
      <g>
       <use style="fill:#262626;stroke:#262626;" x="49.418" xlink:href="#m0038c2ef91" y="221.618182"/>
      </g>
     </g>
     <g id="text_12">
      <!-- 60 -->
      <g style="fill:#262626;" transform="translate(29.92 224.961494)scale(0.088 -0.088)">
       <use xlink:href="#DejaVuSans-36"/>
       <use x="63.623047" xlink:href="#DejaVuSans-30"/>
      </g>
     </g>
    </g>
    <g id="ytick_5">
     <g id="line2d_12">
      <g>
       <use style="fill:#262626;stroke:#262626;" x="49.418" xlink:href="#m0038c2ef91" y="165.380242"/>
      </g>
     </g>
     <g id="text_13">
      <!-- 80 -->
      <g style="fill:#262626;" transform="translate(29.92 168.723555)scale(0.088 -0.088)">
       <use xlink:href="#DejaVuSans-38"/>
       <use x="63.623047" xlink:href="#DejaVuSans-30"/>
      </g>
     </g>
    </g>
    <g id="ytick_6">
     <g id="line2d_13">
      <g>
       <use style="fill:#262626;stroke:#262626;" x="49.418" xlink:href="#m0038c2ef91" y="109.142303"/>
      </g>
     </g>
     <g id="text_14">
      <!-- 100 -->
      <g style="fill:#262626;" transform="translate(24.321 112.485616)scale(0.088 -0.088)">
       <use xlink:href="#DejaVuSans-31"/>
       <use x="63.623047" xlink:href="#DejaVuSans-30"/>
       <use x="127.246094" xlink:href="#DejaVuSans-30"/>
      </g>
     </g>
    </g>
    <g id="text_15">
     <!-- Time to cancer -->
     <defs>
      <path d="M -0.296875 72.90625 
L 61.375 72.90625 
L 61.375 64.59375 
L 35.5 64.59375 
L 35.5 0 
L 25.59375 0 
L 25.59375 64.59375 
L -0.296875 64.59375 
z
" id="DejaVuSans-54"/>
      <path d="M 9.421875 54.6875 
L 18.40625 54.6875 
L 18.40625 0 
L 9.421875 0 
z
M 9.421875 75.984375 
L 18.40625 75.984375 
L 18.40625 64.59375 
L 9.421875 64.59375 
z
" id="DejaVuSans-69"/>
      <path d="M 52 44.1875 
Q 55.375 50.25 60.0625 53.125 
Q 64.75 56 71.09375 56 
Q 79.640625 56 84.28125 50.015625 
Q 88.921875 44.046875 88.921875 33.015625 
L 88.921875 0 
L 79.890625 0 
L 79.890625 32.71875 
Q 79.890625 40.578125 77.09375 44.375 
Q 74.3125 48.1875 68.609375 48.1875 
Q 61.625 48.1875 57.5625 43.546875 
Q 53.515625 38.921875 53.515625 30.90625 
L 53.515625 0 
L 44.484375 0 
L 44.484375 32.71875 
Q 44.484375 40.625 41.703125 44.40625 
Q 38.921875 48.1875 33.109375 48.1875 
Q 26.21875 48.1875 22.15625 43.53125 
Q 18.109375 38.875 18.109375 30.90625 
L 18.109375 0 
L 9.078125 0 
L 9.078125 54.6875 
L 18.109375 54.6875 
L 18.109375 46.1875 
Q 21.1875 51.21875 25.484375 53.609375 
Q 29.78125 56 35.6875 56 
Q 41.65625 56 45.828125 52.96875 
Q 50 49.953125 52 44.1875 
z
" id="DejaVuSans-6d"/>
      <path d="M 56.203125 29.59375 
L 56.203125 25.203125 
L 14.890625 25.203125 
Q 15.484375 15.921875 20.484375 11.0625 
Q 25.484375 6.203125 34.421875 6.203125 
Q 39.59375 6.203125 44.453125 7.46875 
Q 49.3125 8.734375 54.109375 11.28125 
L 54.109375 2.78125 
Q 49.265625 0.734375 44.1875 -0.34375 
Q 39.109375 -1.421875 33.890625 -1.421875 
Q 20.796875 -1.421875 13.15625 6.1875 
Q 5.515625 13.8125 5.515625 26.8125 
Q 5.515625 40.234375 12.765625 48.109375 
Q 20.015625 56 32.328125 56 
Q 43.359375 56 49.78125 48.890625 
Q 56.203125 41.796875 56.203125 29.59375 
z
M 47.21875 32.234375 
Q 47.125 39.59375 43.09375 43.984375 
Q 39.0625 48.390625 32.421875 48.390625 
Q 24.90625 48.390625 20.390625 44.140625 
Q 15.875 39.890625 15.1875 32.171875 
z
" id="DejaVuSans-65"/>
      <path id="DejaVuSans-20"/>
      <path d="M 18.3125 70.21875 
L 18.3125 54.6875 
L 36.8125 54.6875 
L 36.8125 47.703125 
L 18.3125 47.703125 
L 18.3125 18.015625 
Q 18.3125 11.328125 20.140625 9.421875 
Q 21.96875 7.515625 27.59375 7.515625 
L 36.8125 7.515625 
L 36.8125 0 
L 27.59375 0 
Q 17.1875 0 13.234375 3.875 
Q 9.28125 7.765625 9.28125 18.015625 
L 9.28125 47.703125 
L 2.6875 47.703125 
L 2.6875 54.6875 
L 9.28125 54.6875 
L 9.28125 70.21875 
z
" id="DejaVuSans-74"/>
      <path d="M 30.609375 48.390625 
Q 23.390625 48.390625 19.1875 42.75 
Q 14.984375 37.109375 14.984375 27.296875 
Q 14.984375 17.484375 19.15625 11.84375 
Q 23.34375 6.203125 30.609375 6.203125 
Q 37.796875 6.203125 41.984375 11.859375 
Q 46.1875 17.53125 46.1875 27.296875 
Q 46.1875 37.015625 41.984375 42.703125 
Q 37.796875 48.390625 30.609375 48.390625 
z
M 30.609375 56 
Q 42.328125 56 49.015625 48.375 
Q 55.71875 40.765625 55.71875 27.296875 
Q 55.71875 13.875 49.015625 6.21875 
Q 42.328125 -1.421875 30.609375 -1.421875 
Q 18.84375 -1.421875 12.171875 6.21875 
Q 5.515625 13.875 5.515625 27.296875 
Q 5.515625 40.765625 12.171875 48.375 
Q 18.84375 56 30.609375 56 
z
" id="DejaVuSans-6f"/>
      <path d="M 48.78125 52.59375 
L 48.78125 44.1875 
Q 44.96875 46.296875 41.140625 47.34375 
Q 37.3125 48.390625 33.40625 48.390625 
Q 24.65625 48.390625 19.8125 42.84375 
Q 14.984375 37.3125 14.984375 27.296875 
Q 14.984375 17.28125 19.8125 11.734375 
Q 24.65625 6.203125 33.40625 6.203125 
Q 37.3125 6.203125 41.140625 7.25 
Q 44.96875 8.296875 48.78125 10.40625 
L 48.78125 2.09375 
Q 45.015625 0.34375 40.984375 -0.53125 
Q 36.96875 -1.421875 32.421875 -1.421875 
Q 20.0625 -1.421875 12.78125 6.34375 
Q 5.515625 14.109375 5.515625 27.296875 
Q 5.515625 40.671875 12.859375 48.328125 
Q 20.21875 56 33.015625 56 
Q 37.15625 56 41.109375 55.140625 
Q 45.0625 54.296875 48.78125 52.59375 
z
" id="DejaVuSans-63"/>
      <path d="M 34.28125 27.484375 
Q 23.390625 27.484375 19.1875 25 
Q 14.984375 22.515625 14.984375 16.5 
Q 14.984375 11.71875 18.140625 8.90625 
Q 21.296875 6.109375 26.703125 6.109375 
Q 34.1875 6.109375 38.703125 11.40625 
Q 43.21875 16.703125 43.21875 25.484375 
L 43.21875 27.484375 
z
M 52.203125 31.203125 
L 52.203125 0 
L 43.21875 0 
L 43.21875 8.296875 
Q 40.140625 3.328125 35.546875 0.953125 
Q 30.953125 -1.421875 24.3125 -1.421875 
Q 15.921875 -1.421875 10.953125 3.296875 
Q 6 8.015625 6 15.921875 
Q 6 25.140625 12.171875 29.828125 
Q 18.359375 34.515625 30.609375 34.515625 
L 43.21875 34.515625 
L 43.21875 35.40625 
Q 43.21875 41.609375 39.140625 45 
Q 35.0625 48.390625 27.6875 48.390625 
Q 23 48.390625 18.546875 47.265625 
Q 14.109375 46.140625 10.015625 43.890625 
L 10.015625 52.203125 
Q 14.9375 54.109375 19.578125 55.046875 
Q 24.21875 56 28.609375 56 
Q 40.484375 56 46.34375 49.84375 
Q 52.203125 43.703125 52.203125 31.203125 
z
" id="DejaVuSans-61"/>
      <path d="M 54.890625 33.015625 
L 54.890625 0 
L 45.90625 0 
L 45.90625 32.71875 
Q 45.90625 40.484375 42.875 44.328125 
Q 39.84375 48.1875 33.796875 48.1875 
Q 26.515625 48.1875 22.3125 43.546875 
Q 18.109375 38.921875 18.109375 30.90625 
L 18.109375 0 
L 9.078125 0 
L 9.078125 54.6875 
L 18.109375 54.6875 
L 18.109375 46.1875 
Q 21.34375 51.125 25.703125 53.5625 
Q 30.078125 56 35.796875 56 
Q 45.21875 56 50.046875 50.171875 
Q 54.890625 44.34375 54.890625 33.015625 
z
" id="DejaVuSans-6e"/>
      <path d="M 41.109375 46.296875 
Q 39.59375 47.171875 37.8125 47.578125 
Q 36.03125 48 33.890625 48 
Q 26.265625 48 22.1875 43.046875 
Q 18.109375 38.09375 18.109375 28.8125 
L 18.109375 0 
L 9.078125 0 
L 9.078125 54.6875 
L 18.109375 54.6875 
L 18.109375 46.1875 
Q 20.953125 51.171875 25.484375 53.578125 
Q 30.03125 56 36.53125 56 
Q 37.453125 56 38.578125 55.875 
Q 39.703125 55.765625 41.0625 55.515625 
z
" id="DejaVuSans-72"/>
     </defs>
     <g style="fill:#262626;" transform="translate(18.3245 271.628167)rotate(-90)scale(0.096 -0.096)">
      <use xlink:href="#DejaVuSans-54"/>
      <use x="61.037109" xlink:href="#DejaVuSans-69"/>
      <use x="88.820312" xlink:href="#DejaVuSans-6d"/>
      <use x="186.232422" xlink:href="#DejaVuSans-65"/>
      <use x="247.755859" xlink:href="#DejaVuSans-20"/>
      <use x="279.542969" xlink:href="#DejaVuSans-74"/>
      <use x="318.751953" xlink:href="#DejaVuSans-6f"/>
      <use x="379.933594" xlink:href="#DejaVuSans-20"/>
      <use x="411.720703" xlink:href="#DejaVuSans-63"/>
      <use x="466.701172" xlink:href="#DejaVuSans-61"/>
      <use x="527.980469" xlink:href="#DejaVuSans-6e"/>
      <use x="591.359375" xlink:href="#DejaVuSans-63"/>
      <use x="646.339844" xlink:href="#DejaVuSans-65"/>
      <use x="707.863281" xlink:href="#DejaVuSans-72"/>
     </g>
    </g>
   </g>
   <g id="PathCollection_1">
    <defs>
     <path d="M 0 2.4 
C 0.636487 2.4 1.246992 2.147121 1.697056 1.697056 
C 2.147121 1.246992 2.4 0.636487 2.4 0 
C 2.4 -0.636487 2.147121 -1.246992 1.697056 -1.697056 
C 1.246992 -2.147121 0.636487 -2.4 0 -2.4 
C -0.636487 -2.4 -1.246992 -2.147121 -1.697056 -1.697056 
C -2.147121 -1.246992 -2.4 -0.636487 -2.4 0 
C -2.4 0.636487 -2.147121 1.246992 -1.697056 1.697056 
C -1.246992 2.147121 -0.636487 2.4 0 2.4 
z
" id="m1ab2b9a388" style="stroke:#471365;stroke-opacity:0.8;"/>
    </defs>
    <g clip-path="url(#p1ee01d02cc)">
     <use style="fill:#471365;fill-opacity:0.8;stroke:#471365;stroke-opacity:0.8;" x="141.593586" xlink:href="#m1ab2b9a388" y="361.750801"/>
     <use style="fill:#471365;fill-opacity:0.8;stroke:#471365;stroke-opacity:0.8;" x="138.604405" xlink:href="#m1ab2b9a388" y="359.023646"/>
     <use style="fill:#471365;fill-opacity:0.8;stroke:#471365;stroke-opacity:0.8;" x="217.181331" xlink:href="#m1ab2b9a388" y="364.501067"/>
     <use style="fill:#471365;fill-opacity:0.8;stroke:#471365;stroke-opacity:0.8;" x="146.846194" xlink:href="#m1ab2b9a388" y="359.547506"/>
     <use style="fill:#471365;fill-opacity:0.8;stroke:#471365;stroke-opacity:0.8;" x="125.664737" xlink:href="#m1ab2b9a388" y="285.020681"/>
     <use style="fill:#471365;fill-opacity:0.8;stroke:#471365;stroke-opacity:0.8;" x="122.904597" xlink:href="#m1ab2b9a388" y="328.632047"/>
     <use style="fill:#471365;fill-opacity:0.8;stroke:#471365;stroke-opacity:0.8;" x="132.149117" xlink:href="#m1ab2b9a388" y="356.989835"/>
     <use style="fill:#471365;fill-opacity:0.8;stroke:#471365;stroke-opacity:0.8;" x="220.005969" xlink:href="#m1ab2b9a388" y="364.732182"/>
     <use style="fill:#471365;fill-opacity:0.8;stroke:#471365;stroke-opacity:0.8;" x="138.460174" xlink:href="#m1ab2b9a388" y="358.268671"/>
     <use style="fill:#471365;fill-opacity:0.8;stroke:#471365;stroke-opacity:0.8;" x="213.264637" xlink:href="#m1ab2b9a388" y="364.300768"/>
     <use style="fill:#471365;fill-opacity:0.8;stroke:#471365;stroke-opacity:0.8;" x="210.368598" xlink:href="#m1ab2b9a388" y="364.554994"/>
     <use style="fill:#471365;fill-opacity:0.8;stroke:#471365;stroke-opacity:0.8;" x="198.099338" xlink:href="#m1ab2b9a388" y="364.061949"/>
     <use style="fill:#471365;fill-opacity:0.8;stroke:#471365;stroke-opacity:0.8;" x="186.508881" xlink:href="#m1ab2b9a388" y="367.598006"/>
     <use style="fill:#471365;fill-opacity:0.8;stroke:#471365;stroke-opacity:0.8;" x="128.607305" xlink:href="#m1ab2b9a388" y="351.489303"/>
     <use style="fill:#471365;fill-opacity:0.8;stroke:#471365;stroke-opacity:0.8;" x="224.483004" xlink:href="#m1ab2b9a388" y="366.234428"/>
     <use style="fill:#471365;fill-opacity:0.8;stroke:#471365;stroke-opacity:0.8;" x="144.144" xlink:href="#m1ab2b9a388" y="358.430451"/>
     <use style="fill:#471365;fill-opacity:0.8;stroke:#471365;stroke-opacity:0.8;" x="143.865319" xlink:href="#m1ab2b9a388" y="361.042049"/>
     <use style="fill:#471365;fill-opacity:0.8;stroke:#471365;stroke-opacity:0.8;" x="165.643168" xlink:href="#m1ab2b9a388" y="362.629037"/>
     <use style="fill:#471365;fill-opacity:0.8;stroke:#471365;stroke-opacity:0.8;" x="133.041351" xlink:href="#m1ab2b9a388" y="358.199336"/>
     <use style="fill:#471365;fill-opacity:0.8;stroke:#471365;stroke-opacity:0.8;" x="167.890784" xlink:href="#m1ab2b9a388" y="361.68917"/>
     <use style="fill:#471365;fill-opacity:0.8;stroke:#471365;stroke-opacity:0.8;" x="167.650218" xlink:href="#m1ab2b9a388" y="361.011233"/>
     <use style="fill:#471365;fill-opacity:0.8;stroke:#471365;stroke-opacity:0.8;" x="194.000804" xlink:href="#m1ab2b9a388" y="363.92328"/>
     <use style="fill:#471365;fill-opacity:0.8;stroke:#471365;stroke-opacity:0.8;" x="152.487562" xlink:href="#m1ab2b9a388" y="362.47496"/>
     <use style="fill:#471365;fill-opacity:0.8;stroke:#471365;stroke-opacity:0.8;" x="155.821146" xlink:href="#m1ab2b9a388" y="363.892465"/>
     <use style="fill:#471365;fill-opacity:0.8;stroke:#471365;stroke-opacity:0.8;" x="138.162371" xlink:href="#m1ab2b9a388" y="362.143696"/>
     <use style="fill:#471365;fill-opacity:0.8;stroke:#471365;stroke-opacity:0.8;" x="123.341146" xlink:href="#m1ab2b9a388" y="344.941049"/>
     <use style="fill:#471365;fill-opacity:0.8;stroke:#471365;stroke-opacity:0.8;" x="147.261205" xlink:href="#m1ab2b9a388" y="360.672265"/>
     <use style="fill:#471365;fill-opacity:0.8;stroke:#471365;stroke-opacity:0.8;" x="133.746517" xlink:href="#m1ab2b9a388" y="358.653862"/>
     <use style="fill:#471365;fill-opacity:0.8;stroke:#471365;stroke-opacity:0.8;" x="157.752997" xlink:href="#m1ab2b9a388" y="361.026641"/>
     <use style="fill:#471365;fill-opacity:0.8;stroke:#471365;stroke-opacity:0.8;" x="143.24693" xlink:href="#m1ab2b9a388" y="365.394711"/>
     <use style="fill:#471365;fill-opacity:0.8;stroke:#471365;stroke-opacity:0.8;" x="121.66886" xlink:href="#m1ab2b9a388" y="357.636957"/>
     <use style="fill:#471365;fill-opacity:0.8;stroke:#471365;stroke-opacity:0.8;" x="131.264747" xlink:href="#m1ab2b9a388" y="329.933994"/>
     <use style="fill:#471365;fill-opacity:0.8;stroke:#471365;stroke-opacity:0.8;" x="172.93858" xlink:href="#m1ab2b9a388" y="362.1514"/>
     <use style="fill:#471365;fill-opacity:0.8;stroke:#471365;stroke-opacity:0.8;" x="141.831118" xlink:href="#m1ab2b9a388" y="358.46897"/>
     <use style="fill:#471365;fill-opacity:0.8;stroke:#471365;stroke-opacity:0.8;" x="126.497153" xlink:href="#m1ab2b9a388" y="349.501715"/>
     <use style="fill:#471365;fill-opacity:0.8;stroke:#471365;stroke-opacity:0.8;" x="193.561436" xlink:href="#m1ab2b9a388" y="366.912365"/>
     <use style="fill:#471365;fill-opacity:0.8;stroke:#471365;stroke-opacity:0.8;" x="118.858347" xlink:href="#m1ab2b9a388" y="292.516505"/>
     <use style="fill:#471365;fill-opacity:0.8;stroke:#471365;stroke-opacity:0.8;" x="192.701915" xlink:href="#m1ab2b9a388" y="365.464045"/>
     <use style="fill:#471365;fill-opacity:0.8;stroke:#471365;stroke-opacity:0.8;" x="152.395163" xlink:href="#m1ab2b9a388" y="360.633746"/>
     <use style="fill:#471365;fill-opacity:0.8;stroke:#471365;stroke-opacity:0.8;" x="221.461864" xlink:href="#m1ab2b9a388" y="369.231217"/>
     <use style="fill:#471365;fill-opacity:0.8;stroke:#471365;stroke-opacity:0.8;" x="146.382757" xlink:href="#m1ab2b9a388" y="356.242564"/>
     <use style="fill:#471365;fill-opacity:0.8;stroke:#471365;stroke-opacity:0.8;" x="195.405257" xlink:href="#m1ab2b9a388" y="365.525676"/>
     <use style="fill:#471365;fill-opacity:0.8;stroke:#471365;stroke-opacity:0.8;" x="151.9175" xlink:href="#m1ab2b9a388" y="360.872564"/>
     <use style="fill:#471365;fill-opacity:0.8;stroke:#471365;stroke-opacity:0.8;" x="158.564903" xlink:href="#m1ab2b9a388" y="364.878555"/>
     <use style="fill:#471365;fill-opacity:0.8;stroke:#471365;stroke-opacity:0.8;" x="127.759919" xlink:href="#m1ab2b9a388" y="358.7309"/>
     <use style="fill:#471365;fill-opacity:0.8;stroke:#471365;stroke-opacity:0.8;" x="131.748048" xlink:href="#m1ab2b9a388" y="358.576824"/>
     <use style="fill:#471365;fill-opacity:0.8;stroke:#471365;stroke-opacity:0.8;" x="120.500472" xlink:href="#m1ab2b9a388" y="130.019675"/>
     <use style="fill:#471365;fill-opacity:0.8;stroke:#471365;stroke-opacity:0.8;" x="160.857377" xlink:href="#m1ab2b9a388" y="361.666059"/>
     <use style="fill:#471365;fill-opacity:0.8;stroke:#471365;stroke-opacity:0.8;" x="174.54348" xlink:href="#m1ab2b9a388" y="363.615127"/>
     <use style="fill:#471365;fill-opacity:0.8;stroke:#471365;stroke-opacity:0.8;" x="214.017044" xlink:href="#m1ab2b9a388" y="364.632032"/>
     <use style="fill:#471365;fill-opacity:0.8;stroke:#471365;stroke-opacity:0.8;" x="111.883052" xlink:href="#m1ab2b9a388" y="348.361549"/>
     <use style="fill:#471365;fill-opacity:0.8;stroke:#471365;stroke-opacity:0.8;" x="146.160806" xlink:href="#m1ab2b9a388" y="358.376524"/>
     <use style="fill:#471365;fill-opacity:0.8;stroke:#471365;stroke-opacity:0.8;" x="162.005531" xlink:href="#m1ab2b9a388" y="361.673762"/>
     <use style="fill:#471365;fill-opacity:0.8;stroke:#471365;stroke-opacity:0.8;" x="144.376787" xlink:href="#m1ab2b9a388" y="360.356408"/>
     <use style="fill:#471365;fill-opacity:0.8;stroke:#471365;stroke-opacity:0.8;" x="145.671121" xlink:href="#m1ab2b9a388" y="364.038837"/>
     <use style="fill:#471365;fill-opacity:0.8;stroke:#471365;stroke-opacity:0.8;" x="189.357856" xlink:href="#m1ab2b9a388" y="368.144977"/>
     <use style="fill:#471365;fill-opacity:0.8;stroke:#471365;stroke-opacity:0.8;" x="119.916614" xlink:href="#m1ab2b9a388" y="357.082281"/>
     <use style="fill:#471365;fill-opacity:0.8;stroke:#471365;stroke-opacity:0.8;" x="133.397227" xlink:href="#m1ab2b9a388" y="363.430235"/>
     <use style="fill:#471365;fill-opacity:0.8;stroke:#471365;stroke-opacity:0.8;" x="142.426519" xlink:href="#m1ab2b9a388" y="359.609137"/>
     <use style="fill:#471365;fill-opacity:0.8;stroke:#471365;stroke-opacity:0.8;" x="171.291199" xlink:href="#m1ab2b9a388" y="362.921782"/>
     <use style="fill:#471365;fill-opacity:0.8;stroke:#471365;stroke-opacity:0.8;" x="132.496951" xlink:href="#m1ab2b9a388" y="351.466191"/>
     <use style="fill:#471365;fill-opacity:0.8;stroke:#471365;stroke-opacity:0.8;" x="211.104882" xlink:href="#m1ab2b9a388" y="366.064944"/>
     <use style="fill:#471365;fill-opacity:0.8;stroke:#471365;stroke-opacity:0.8;" x="139.443305" xlink:href="#m1ab2b9a388" y="361.357905"/>
     <use style="fill:#471365;fill-opacity:0.8;stroke:#471365;stroke-opacity:0.8;" x="220.369126" xlink:href="#m1ab2b9a388" y="364.439436"/>
     <use style="fill:#471365;fill-opacity:0.8;stroke:#471365;stroke-opacity:0.8;" x="126.358617" xlink:href="#m1ab2b9a388" y="341.905742"/>
     <use style="fill:#471365;fill-opacity:0.8;stroke:#471365;stroke-opacity:0.8;" x="196.548204" xlink:href="#m1ab2b9a388" y="365.117373"/>
     <use style="fill:#471365;fill-opacity:0.8;stroke:#471365;stroke-opacity:0.8;" x="142.461494" xlink:href="#m1ab2b9a388" y="363.437939"/>
     <use style="fill:#471365;fill-opacity:0.8;stroke:#471365;stroke-opacity:0.8;" x="155.602989" xlink:href="#m1ab2b9a388" y="364.508771"/>
     <use style="fill:#471365;fill-opacity:0.8;stroke:#471365;stroke-opacity:0.8;" x="131.597251" xlink:href="#m1ab2b9a388" y="357.236358"/>
     <use style="fill:#471365;fill-opacity:0.8;stroke:#471365;stroke-opacity:0.8;" x="245.7888" xlink:href="#m1ab2b9a388" y="367.544079"/>
     <use style="fill:#471365;fill-opacity:0.8;stroke:#471365;stroke-opacity:0.8;" x="158.000812" xlink:href="#m1ab2b9a388" y="363.46105"/>
     <use style="fill:#471365;fill-opacity:0.8;stroke:#471365;stroke-opacity:0.8;" x="137.535527" xlink:href="#m1ab2b9a388" y="356.49679"/>
     <use style="fill:#471365;fill-opacity:0.8;stroke:#471365;stroke-opacity:0.8;" x="201.224716" xlink:href="#m1ab2b9a388" y="367.467041"/>
     <use style="fill:#471365;fill-opacity:0.8;stroke:#471365;stroke-opacity:0.8;" x="133.726878" xlink:href="#m1ab2b9a388" y="357.559919"/>
     <use style="fill:#471365;fill-opacity:0.8;stroke:#471365;stroke-opacity:0.8;" x="125.972755" xlink:href="#m1ab2b9a388" y="355.980634"/>
     <use style="fill:#471365;fill-opacity:0.8;stroke:#471365;stroke-opacity:0.8;" x="158.169746" xlink:href="#m1ab2b9a388" y="360.025143"/>
     <use style="fill:#471365;fill-opacity:0.8;stroke:#471365;stroke-opacity:0.8;" x="120.363904" xlink:href="#m1ab2b9a388" y="359.401133"/>
     <use style="fill:#471365;fill-opacity:0.8;stroke:#471365;stroke-opacity:0.8;" x="140.773665" xlink:href="#m1ab2b9a388" y="357.005243"/>
     <use style="fill:#471365;fill-opacity:0.8;stroke:#471365;stroke-opacity:0.8;" x="196.310078" xlink:href="#m1ab2b9a388" y="366.05724"/>
     <use style="fill:#471365;fill-opacity:0.8;stroke:#471365;stroke-opacity:0.8;" x="137.455886" xlink:href="#m1ab2b9a388" y="358.276375"/>
     <use style="fill:#471365;fill-opacity:0.8;stroke:#471365;stroke-opacity:0.8;" x="125.199175" xlink:href="#m1ab2b9a388" y="273.341678"/>
     <use style="fill:#471365;fill-opacity:0.8;stroke:#471365;stroke-opacity:0.8;" x="207.062872" xlink:href="#m1ab2b9a388" y="364.524178"/>
     <use style="fill:#471365;fill-opacity:0.8;stroke:#471365;stroke-opacity:0.8;" x="188.391976" xlink:href="#m1ab2b9a388" y="366.126575"/>
     <use style="fill:#471365;fill-opacity:0.8;stroke:#471365;stroke-opacity:0.8;" x="207.039493" xlink:href="#m1ab2b9a388" y="366.61962"/>
     <use style="fill:#471365;fill-opacity:0.8;stroke:#471365;stroke-opacity:0.8;" x="195.292274" xlink:href="#m1ab2b9a388" y="366.041832"/>
     <use style="fill:#471365;fill-opacity:0.8;stroke:#471365;stroke-opacity:0.8;" x="227.294798" xlink:href="#m1ab2b9a388" y="366.912365"/>
     <use style="fill:#471365;fill-opacity:0.8;stroke:#471365;stroke-opacity:0.8;" x="121.216383" xlink:href="#m1ab2b9a388" y="341.72085"/>
     <use style="fill:#471365;fill-opacity:0.8;stroke:#471365;stroke-opacity:0.8;" x="210.751706" xlink:href="#m1ab2b9a388" y="367.883047"/>
     <use style="fill:#471365;fill-opacity:0.8;stroke:#471365;stroke-opacity:0.8;" x="124.790434" xlink:href="#m1ab2b9a388" y="329.903179"/>
     <use style="fill:#471365;fill-opacity:0.8;stroke:#471365;stroke-opacity:0.8;" x="135.674037" xlink:href="#m1ab2b9a388" y="358.761716"/>
     <use style="fill:#471365;fill-opacity:0.8;stroke:#471365;stroke-opacity:0.8;" x="193.647012" xlink:href="#m1ab2b9a388" y="364.300768"/>
     <use style="fill:#471365;fill-opacity:0.8;stroke:#471365;stroke-opacity:0.8;" x="176.418604" xlink:href="#m1ab2b9a388" y="363.152897"/>
     <use style="fill:#471365;fill-opacity:0.8;stroke:#471365;stroke-opacity:0.8;" x="157.361861" xlink:href="#m1ab2b9a388" y="362.898671"/>
     <use style="fill:#471365;fill-opacity:0.8;stroke:#471365;stroke-opacity:0.8;" x="191.397315" xlink:href="#m1ab2b9a388" y="369.500851"/>
     <use style="fill:#471365;fill-opacity:0.8;stroke:#471365;stroke-opacity:0.8;" x="189.870922" xlink:href="#m1ab2b9a388" y="363.7615"/>
     <use style="fill:#471365;fill-opacity:0.8;stroke:#471365;stroke-opacity:0.8;" x="156.197619" xlink:href="#m1ab2b9a388" y="359.670767"/>
     <use style="fill:#471365;fill-opacity:0.8;stroke:#471365;stroke-opacity:0.8;" x="150.023492" xlink:href="#m1ab2b9a388" y="363.653646"/>
     <use style="fill:#471365;fill-opacity:0.8;stroke:#471365;stroke-opacity:0.8;" x="154.092819" xlink:href="#m1ab2b9a388" y="361.558205"/>
     <use style="fill:#471365;fill-opacity:0.8;stroke:#471365;stroke-opacity:0.8;" x="184.914134" xlink:href="#m1ab2b9a388" y="369.385294"/>
     <use style="fill:#471365;fill-opacity:0.8;stroke:#471365;stroke-opacity:0.8;" x="151.671801" xlink:href="#m1ab2b9a388" y="360.263962"/>
     <use style="fill:#471365;fill-opacity:0.8;stroke:#471365;stroke-opacity:0.8;" x="182.103924" xlink:href="#m1ab2b9a388" y="365.525676"/>
     <use style="fill:#471365;fill-opacity:0.8;stroke:#471365;stroke-opacity:0.8;" x="177.254974" xlink:href="#m1ab2b9a388" y="364.539586"/>
     <use style="fill:#471365;fill-opacity:0.8;stroke:#471365;stroke-opacity:0.8;" x="153.336089" xlink:href="#m1ab2b9a388" y="363.360901"/>
     <use style="fill:#471365;fill-opacity:0.8;stroke:#471365;stroke-opacity:0.8;" x="186.669746" xlink:href="#m1ab2b9a388" y="364.470252"/>
     <use style="fill:#471365;fill-opacity:0.8;stroke:#471365;stroke-opacity:0.8;" x="124.276596" xlink:href="#m1ab2b9a388" y="337.198703"/>
     <use style="fill:#471365;fill-opacity:0.8;stroke:#471365;stroke-opacity:0.8;" x="147.68594" xlink:href="#m1ab2b9a388" y="360.125293"/>
     <use style="fill:#471365;fill-opacity:0.8;stroke:#471365;stroke-opacity:0.8;" x="111.974257" xlink:href="#m1ab2b9a388" y="325.650666"/>
     <use style="fill:#471365;fill-opacity:0.8;stroke:#471365;stroke-opacity:0.8;" x="201.239686" xlink:href="#m1ab2b9a388" y="365.279154"/>
     <use style="fill:#471365;fill-opacity:0.8;stroke:#471365;stroke-opacity:0.8;" x="143.728852" xlink:href="#m1ab2b9a388" y="359.362614"/>
     <use style="fill:#471365;fill-opacity:0.8;stroke:#471365;stroke-opacity:0.8;" x="177.623115" xlink:href="#m1ab2b9a388" y="362.251549"/>
     <use style="fill:#471365;fill-opacity:0.8;stroke:#471365;stroke-opacity:0.8;" x="253.246158" xlink:href="#m1ab2b9a388" y="369.847523"/>
     <use style="fill:#471365;fill-opacity:0.8;stroke:#471365;stroke-opacity:0.8;" x="289.803282" xlink:href="#m1ab2b9a388" y="365.872348"/>
     <use style="fill:#471365;fill-opacity:0.8;stroke:#471365;stroke-opacity:0.8;" x="207.656734" xlink:href="#m1ab2b9a388" y="366.165094"/>
     <use style="fill:#471365;fill-opacity:0.8;stroke:#471365;stroke-opacity:0.8;" x="209.015777" xlink:href="#m1ab2b9a388" y="373.375876"/>
     <use style="fill:#471365;fill-opacity:0.8;stroke:#471365;stroke-opacity:0.8;" x="127.249161" xlink:href="#m1ab2b9a388" y="328.108187"/>
     <use style="fill:#471365;fill-opacity:0.8;stroke:#471365;stroke-opacity:0.8;" x="278.946661" xlink:href="#m1ab2b9a388" y="367.413114"/>
     <use style="fill:#471365;fill-opacity:0.8;stroke:#471365;stroke-opacity:0.8;" x="116.559428" xlink:href="#m1ab2b9a388" y="232.249464"/>
     <use style="fill:#471365;fill-opacity:0.8;stroke:#471365;stroke-opacity:0.8;" x="135.014149" xlink:href="#m1ab2b9a388" y="357.475177"/>
     <use style="fill:#471365;fill-opacity:0.8;stroke:#471365;stroke-opacity:0.8;" x="157.612598" xlink:href="#m1ab2b9a388" y="359.71699"/>
     <use style="fill:#471365;fill-opacity:0.8;stroke:#471365;stroke-opacity:0.8;" x="121.132378" xlink:href="#m1ab2b9a388" y="330.12659"/>
     <use style="fill:#471365;fill-opacity:0.8;stroke:#471365;stroke-opacity:0.8;" x="156.735305" xlink:href="#m1ab2b9a388" y="365.27145"/>
     <use style="fill:#471365;fill-opacity:0.8;stroke:#471365;stroke-opacity:0.8;" x="160.510314" xlink:href="#m1ab2b9a388" y="362.498072"/>
     <use style="fill:#471365;fill-opacity:0.8;stroke:#471365;stroke-opacity:0.8;" x="142.709307" xlink:href="#m1ab2b9a388" y="359.701583"/>
     <use style="fill:#471365;fill-opacity:0.8;stroke:#471365;stroke-opacity:0.8;" x="141.366854" xlink:href="#m1ab2b9a388" y="339.540667"/>
     <use style="fill:#471365;fill-opacity:0.8;stroke:#471365;stroke-opacity:0.8;" x="193.005285" xlink:href="#m1ab2b9a388" y="369.809004"/>
     <use style="fill:#471365;fill-opacity:0.8;stroke:#471365;stroke-opacity:0.8;" x="119.440739" xlink:href="#m1ab2b9a388" y="319.256489"/>
     <use style="fill:#471365;fill-opacity:0.8;stroke:#471365;stroke-opacity:0.8;" x="240.04287" xlink:href="#m1ab2b9a388" y="366.704362"/>
     <use style="fill:#471365;fill-opacity:0.8;stroke:#471365;stroke-opacity:0.8;" x="158.408796" xlink:href="#m1ab2b9a388" y="361.797024"/>
     <use style="fill:#471365;fill-opacity:0.8;stroke:#471365;stroke-opacity:0.8;" x="121.759032" xlink:href="#m1ab2b9a388" y="339.116956"/>
     <use style="fill:#471365;fill-opacity:0.8;stroke:#471365;stroke-opacity:0.8;" x="175.77415" xlink:href="#m1ab2b9a388" y="363.245343"/>
     <use style="fill:#471365;fill-opacity:0.8;stroke:#471365;stroke-opacity:0.8;" x="153.278398" xlink:href="#m1ab2b9a388" y="362.952598"/>
     <use style="fill:#471365;fill-opacity:0.8;stroke:#471365;stroke-opacity:0.8;" x="120.379855" xlink:href="#m1ab2b9a388" y="257.510313"/>
     <use style="fill:#471365;fill-opacity:0.8;stroke:#471365;stroke-opacity:0.8;" x="175.306244" xlink:href="#m1ab2b9a388" y="362.67526"/>
     <use style="fill:#471365;fill-opacity:0.8;stroke:#471365;stroke-opacity:0.8;" x="124.269451" xlink:href="#m1ab2b9a388" y="351.60486"/>
     <use style="fill:#471365;fill-opacity:0.8;stroke:#471365;stroke-opacity:0.8;" x="118.875483" xlink:href="#m1ab2b9a388" y="295.051064"/>
     <use style="fill:#471365;fill-opacity:0.8;stroke:#471365;stroke-opacity:0.8;" x="144.187786" xlink:href="#m1ab2b9a388" y="359.139203"/>
     <use style="fill:#471365;fill-opacity:0.8;stroke:#471365;stroke-opacity:0.8;" x="224.083231" xlink:href="#m1ab2b9a388" y="366.819919"/>
     <use style="fill:#471365;fill-opacity:0.8;stroke:#471365;stroke-opacity:0.8;" x="166.85441" xlink:href="#m1ab2b9a388" y="360.495077"/>
     <use style="fill:#471365;fill-opacity:0.8;stroke:#471365;stroke-opacity:0.8;" x="147.770784" xlink:href="#m1ab2b9a388" y="362.806225"/>
     <use style="fill:#471365;fill-opacity:0.8;stroke:#471365;stroke-opacity:0.8;" x="124.852833" xlink:href="#m1ab2b9a388" y="331.790616"/>
     <use style="fill:#471365;fill-opacity:0.8;stroke:#471365;stroke-opacity:0.8;" x="176.484091" xlink:href="#m1ab2b9a388" y="362.629037"/>
     <use style="fill:#471365;fill-opacity:0.8;stroke:#471365;stroke-opacity:0.8;" x="171.693711" xlink:href="#m1ab2b9a388" y="362.721483"/>
     <use style="fill:#471365;fill-opacity:0.8;stroke:#471365;stroke-opacity:0.8;" x="242.259437" xlink:href="#m1ab2b9a388" y="369.030917"/>
     <use style="fill:#471365;fill-opacity:0.8;stroke:#471365;stroke-opacity:0.8;" x="149.924744" xlink:href="#m1ab2b9a388" y="363.245343"/>
     <use style="fill:#471365;fill-opacity:0.8;stroke:#471365;stroke-opacity:0.8;" x="150.177073" xlink:href="#m1ab2b9a388" y="360.872564"/>
     <use style="fill:#471365;fill-opacity:0.8;stroke:#471365;stroke-opacity:0.8;" x="128.904855" xlink:href="#m1ab2b9a388" y="314.141148"/>
     <use style="fill:#471365;fill-opacity:0.8;stroke:#471365;stroke-opacity:0.8;" x="157.547576" xlink:href="#m1ab2b9a388" y="360.687672"/>
     <use style="fill:#471365;fill-opacity:0.8;stroke:#471365;stroke-opacity:0.8;" x="162.182714" xlink:href="#m1ab2b9a388" y="359.647656"/>
     <use style="fill:#471365;fill-opacity:0.8;stroke:#471365;stroke-opacity:0.8;" x="137.045644" xlink:href="#m1ab2b9a388" y="355.456774"/>
     <use style="fill:#471365;fill-opacity:0.8;stroke:#471365;stroke-opacity:0.8;" x="164.220269" xlink:href="#m1ab2b9a388" y="364.462548"/>
     <use style="fill:#471365;fill-opacity:0.8;stroke:#471365;stroke-opacity:0.8;" x="143.784529" xlink:href="#m1ab2b9a388" y="360.240851"/>
     <use style="fill:#471365;fill-opacity:0.8;stroke:#471365;stroke-opacity:0.8;" x="204.297563" xlink:href="#m1ab2b9a388" y="365.094262"/>
     <use style="fill:#471365;fill-opacity:0.8;stroke:#471365;stroke-opacity:0.8;" x="132.28597" xlink:href="#m1ab2b9a388" y="357.78333"/>
     <use style="fill:#471365;fill-opacity:0.8;stroke:#471365;stroke-opacity:0.8;" x="226.698337" xlink:href="#m1ab2b9a388" y="366.41932"/>
     <use style="fill:#471365;fill-opacity:0.8;stroke:#471365;stroke-opacity:0.8;" x="171.957988" xlink:href="#m1ab2b9a388" y="365.309969"/>
     <use style="fill:#471365;fill-opacity:0.8;stroke:#471365;stroke-opacity:0.8;" x="143.600051" xlink:href="#m1ab2b9a388" y="358.869569"/>
     <use style="fill:#471365;fill-opacity:0.8;stroke:#471365;stroke-opacity:0.8;" x="168.664085" xlink:href="#m1ab2b9a388" y="361.858654"/>
     <use style="fill:#471365;fill-opacity:0.8;stroke:#471365;stroke-opacity:0.8;" x="121.277772" xlink:href="#m1ab2b9a388" y="310.936356"/>
     <use style="fill:#471365;fill-opacity:0.8;stroke:#471365;stroke-opacity:0.8;" x="167.242842" xlink:href="#m1ab2b9a388" y="363.484162"/>
     <use style="fill:#471365;fill-opacity:0.8;stroke:#471365;stroke-opacity:0.8;" x="128.101625" xlink:href="#m1ab2b9a388" y="352.298205"/>
     <use style="fill:#471365;fill-opacity:0.8;stroke:#471365;stroke-opacity:0.8;" x="122.772317" xlink:href="#m1ab2b9a388" y="343.49273"/>
     <use style="fill:#471365;fill-opacity:0.8;stroke:#471365;stroke-opacity:0.8;" x="191.323365" xlink:href="#m1ab2b9a388" y="364.955593"/>
     <use style="fill:#471365;fill-opacity:0.8;stroke:#471365;stroke-opacity:0.8;" x="177.174663" xlink:href="#m1ab2b9a388" y="366.673546"/>
     <use style="fill:#471365;fill-opacity:0.8;stroke:#471365;stroke-opacity:0.8;" x="144.919002" xlink:href="#m1ab2b9a388" y="359.462764"/>
     <use style="fill:#471365;fill-opacity:0.8;stroke:#471365;stroke-opacity:0.8;" x="134.083315" xlink:href="#m1ab2b9a388" y="341.890334"/>
     <use style="fill:#471365;fill-opacity:0.8;stroke:#471365;stroke-opacity:0.8;" x="243.717612" xlink:href="#m1ab2b9a388" y="365.055743"/>
     <use style="fill:#471365;fill-opacity:0.8;stroke:#471365;stroke-opacity:0.8;" x="145.222269" xlink:href="#m1ab2b9a388" y="361.157606"/>
     <use style="fill:#471365;fill-opacity:0.8;stroke:#471365;stroke-opacity:0.8;" x="225.347475" xlink:href="#m1ab2b9a388" y="364.223729"/>
     <use style="fill:#471365;fill-opacity:0.8;stroke:#471365;stroke-opacity:0.8;" x="153.260678" xlink:href="#m1ab2b9a388" y="361.180717"/>
     <use style="fill:#471365;fill-opacity:0.8;stroke:#471365;stroke-opacity:0.8;" x="195.508837" xlink:href="#m1ab2b9a388" y="365.032631"/>
     <use style="fill:#471365;fill-opacity:0.8;stroke:#471365;stroke-opacity:0.8;" x="167.227952" xlink:href="#m1ab2b9a388" y="366.958588"/>
     <use style="fill:#471365;fill-opacity:0.8;stroke:#471365;stroke-opacity:0.8;" x="265.312067" xlink:href="#m1ab2b9a388" y="368.49165"/>
     <use style="fill:#471365;fill-opacity:0.8;stroke:#471365;stroke-opacity:0.8;" x="116.452328" xlink:href="#m1ab2b9a388" y="347.891615"/>
     <use style="fill:#471365;fill-opacity:0.8;stroke:#471365;stroke-opacity:0.8;" x="169.069392" xlink:href="#m1ab2b9a388" y="364.146691"/>
     <use style="fill:#471365;fill-opacity:0.8;stroke:#471365;stroke-opacity:0.8;" x="136.800381" xlink:href="#m1ab2b9a388" y="355.387439"/>
     <use style="fill:#471365;fill-opacity:0.8;stroke:#471365;stroke-opacity:0.8;" x="159.69226" xlink:href="#m1ab2b9a388" y="362.005027"/>
     <use style="fill:#471365;fill-opacity:0.8;stroke:#471365;stroke-opacity:0.8;" x="170.445171" xlink:href="#m1ab2b9a388" y="362.798521"/>
     <use style="fill:#471365;fill-opacity:0.8;stroke:#471365;stroke-opacity:0.8;" x="191.537786" xlink:href="#m1ab2b9a388" y="363.592015"/>
     <use style="fill:#471365;fill-opacity:0.8;stroke:#471365;stroke-opacity:0.8;" x="184.772571" xlink:href="#m1ab2b9a388" y="365.055743"/>
     <use style="fill:#471365;fill-opacity:0.8;stroke:#471365;stroke-opacity:0.8;" x="194.899488" xlink:href="#m1ab2b9a388" y="365.756791"/>
     <use style="fill:#471365;fill-opacity:0.8;stroke:#471365;stroke-opacity:0.8;" x="179.986875" xlink:href="#m1ab2b9a388" y="363.730684"/>
     <use style="fill:#471365;fill-opacity:0.8;stroke:#471365;stroke-opacity:0.8;" x="184.516903" xlink:href="#m1ab2b9a388" y="365.340784"/>
     <use style="fill:#471365;fill-opacity:0.8;stroke:#471365;stroke-opacity:0.8;" x="158.141768" xlink:href="#m1ab2b9a388" y="325.226955"/>
     <use style="fill:#471365;fill-opacity:0.8;stroke:#471365;stroke-opacity:0.8;" x="115.668558" xlink:href="#m1ab2b9a388" y="328.709085"/>
     <use style="fill:#471365;fill-opacity:0.8;stroke:#471365;stroke-opacity:0.8;" x="154.156241" xlink:href="#m1ab2b9a388" y="359.447356"/>
     <use style="fill:#471365;fill-opacity:0.8;stroke:#471365;stroke-opacity:0.8;" x="123.449932" xlink:href="#m1ab2b9a388" y="356.704794"/>
     <use style="fill:#471365;fill-opacity:0.8;stroke:#471365;stroke-opacity:0.8;" x="123.750432" xlink:href="#m1ab2b9a388" y="310.48183"/>
     <use style="fill:#471365;fill-opacity:0.8;stroke:#471365;stroke-opacity:0.8;" x="163.53203" xlink:href="#m1ab2b9a388" y="364.108172"/>
     <use style="fill:#471365;fill-opacity:0.8;stroke:#471365;stroke-opacity:0.8;" x="148.368135" xlink:href="#m1ab2b9a388" y="358.815642"/>
     <use style="fill:#471365;fill-opacity:0.8;stroke:#471365;stroke-opacity:0.8;" x="155.514234" xlink:href="#m1ab2b9a388" y="361.843247"/>
     <use style="fill:#471365;fill-opacity:0.8;stroke:#471365;stroke-opacity:0.8;" x="168.952296" xlink:href="#m1ab2b9a388" y="361.550501"/>
     <use style="fill:#471365;fill-opacity:0.8;stroke:#471365;stroke-opacity:0.8;" x="145.925318" xlink:href="#m1ab2b9a388" y="362.490368"/>
     <use style="fill:#471365;fill-opacity:0.8;stroke:#471365;stroke-opacity:0.8;" x="121.01432" xlink:href="#m1ab2b9a388" y="353.700301"/>
     <use style="fill:#471365;fill-opacity:0.8;stroke:#471365;stroke-opacity:0.8;" x="133.003299" xlink:href="#m1ab2b9a388" y="348.053396"/>
     <use style="fill:#471365;fill-opacity:0.8;stroke:#471365;stroke-opacity:0.8;" x="181.026151" xlink:href="#m1ab2b9a388" y="365.032631"/>
     <use style="fill:#471365;fill-opacity:0.8;stroke:#471365;stroke-opacity:0.8;" x="212.13082" xlink:href="#m1ab2b9a388" y="365.949387"/>
     <use style="fill:#471365;fill-opacity:0.8;stroke:#471365;stroke-opacity:0.8;" x="155.034856" xlink:href="#m1ab2b9a388" y="362.498072"/>
     <use style="fill:#471365;fill-opacity:0.8;stroke:#471365;stroke-opacity:0.8;" x="143.04286" xlink:href="#m1ab2b9a388" y="367.30526"/>
     <use style="fill:#471365;fill-opacity:0.8;stroke:#471365;stroke-opacity:0.8;" x="123.927459" xlink:href="#m1ab2b9a388" y="348.376956"/>
     <use style="fill:#471365;fill-opacity:0.8;stroke:#471365;stroke-opacity:0.8;" x="118.884094" xlink:href="#m1ab2b9a388" y="358.707789"/>
     <use style="fill:#471365;fill-opacity:0.8;stroke:#471365;stroke-opacity:0.8;" x="132.724245" xlink:href="#m1ab2b9a388" y="326.690683"/>
     <use style="fill:#471365;fill-opacity:0.8;stroke:#471365;stroke-opacity:0.8;" x="124.638177" xlink:href="#m1ab2b9a388" y="350.403063"/>
     <use style="fill:#471365;fill-opacity:0.8;stroke:#471365;stroke-opacity:0.8;" x="150.992088" xlink:href="#m1ab2b9a388" y="360.880268"/>
     <use style="fill:#471365;fill-opacity:0.8;stroke:#471365;stroke-opacity:0.8;" x="235.764732" xlink:href="#m1ab2b9a388" y="369.685743"/>
     <use style="fill:#471365;fill-opacity:0.8;stroke:#471365;stroke-opacity:0.8;" x="149.008109" xlink:href="#m1ab2b9a388" y="357.559919"/>
     <use style="fill:#471365;fill-opacity:0.8;stroke:#471365;stroke-opacity:0.8;" x="136.212564" xlink:href="#m1ab2b9a388" y="326.667571"/>
     <use style="fill:#471365;fill-opacity:0.8;stroke:#471365;stroke-opacity:0.8;" x="232.453527" xlink:href="#m1ab2b9a388" y="366.072648"/>
     <use style="fill:#471365;fill-opacity:0.8;stroke:#471365;stroke-opacity:0.8;" x="168.84244" xlink:href="#m1ab2b9a388" y="365.125077"/>
     <use style="fill:#471365;fill-opacity:0.8;stroke:#471365;stroke-opacity:0.8;" x="178.400915" xlink:href="#m1ab2b9a388" y="363.330085"/>
     <use style="fill:#471365;fill-opacity:0.8;stroke:#471365;stroke-opacity:0.8;" x="184.790414" xlink:href="#m1ab2b9a388" y="363.468754"/>
     <use style="fill:#471365;fill-opacity:0.8;stroke:#471365;stroke-opacity:0.8;" x="183.36775" xlink:href="#m1ab2b9a388" y="367.397706"/>
     <use style="fill:#471365;fill-opacity:0.8;stroke:#471365;stroke-opacity:0.8;" x="126.147568" xlink:href="#m1ab2b9a388" y="315.658802"/>
     <use style="fill:#471365;fill-opacity:0.8;stroke:#471365;stroke-opacity:0.8;" x="162.50327" xlink:href="#m1ab2b9a388" y="365.248338"/>
     <use style="fill:#471365;fill-opacity:0.8;stroke:#471365;stroke-opacity:0.8;" x="178.908055" xlink:href="#m1ab2b9a388" y="363.607423"/>
     <use style="fill:#471365;fill-opacity:0.8;stroke:#471365;stroke-opacity:0.8;" x="123.267138" xlink:href="#m1ab2b9a388" y="356.350418"/>
     <use style="fill:#471365;fill-opacity:0.8;stroke:#471365;stroke-opacity:0.8;" x="220.606672" xlink:href="#m1ab2b9a388" y="370.209603"/>
     <use style="fill:#471365;fill-opacity:0.8;stroke:#471365;stroke-opacity:0.8;" x="121.341379" xlink:href="#m1ab2b9a388" y="346.081216"/>
     <use style="fill:#471365;fill-opacity:0.8;stroke:#471365;stroke-opacity:0.8;" x="172.626814" xlink:href="#m1ab2b9a388" y="363.46105"/>
     <use style="fill:#471365;fill-opacity:0.8;stroke:#471365;stroke-opacity:0.8;" x="125.99679" xlink:href="#m1ab2b9a388" y="306.930365"/>
     <use style="fill:#471365;fill-opacity:0.8;stroke:#471365;stroke-opacity:0.8;" x="125.164057" xlink:href="#m1ab2b9a388" y="356.581533"/>
     <use style="fill:#471365;fill-opacity:0.8;stroke:#471365;stroke-opacity:0.8;" x="138.502995" xlink:href="#m1ab2b9a388" y="356.265676"/>
     <use style="fill:#471365;fill-opacity:0.8;stroke:#471365;stroke-opacity:0.8;" x="129.344086" xlink:href="#m1ab2b9a388" y="354.36283"/>
     <use style="fill:#471365;fill-opacity:0.8;stroke:#471365;stroke-opacity:0.8;" x="237.169934" xlink:href="#m1ab2b9a388" y="365.733679"/>
     <use style="fill:#471365;fill-opacity:0.8;stroke:#471365;stroke-opacity:0.8;" x="254.528543" xlink:href="#m1ab2b9a388" y="370.086342"/>
     <use style="fill:#471365;fill-opacity:0.8;stroke:#471365;stroke-opacity:0.8;" x="133.643123" xlink:href="#m1ab2b9a388" y="359.185426"/>
     <use style="fill:#471365;fill-opacity:0.8;stroke:#471365;stroke-opacity:0.8;" x="126.588508" xlink:href="#m1ab2b9a388" y="338.246424"/>
     <use style="fill:#471365;fill-opacity:0.8;stroke:#471365;stroke-opacity:0.8;" x="194.51777" xlink:href="#m1ab2b9a388" y="371.172581"/>
     <use style="fill:#471365;fill-opacity:0.8;stroke:#471365;stroke-opacity:0.8;" x="169.024334" xlink:href="#m1ab2b9a388" y="365.032631"/>
     <use style="fill:#471365;fill-opacity:0.8;stroke:#471365;stroke-opacity:0.8;" x="164.435579" xlink:href="#m1ab2b9a388" y="361.296275"/>
     <use style="fill:#471365;fill-opacity:0.8;stroke:#471365;stroke-opacity:0.8;" x="160.516573" xlink:href="#m1ab2b9a388" y="367.112664"/>
     <use style="fill:#471365;fill-opacity:0.8;stroke:#471365;stroke-opacity:0.8;" x="185.55308" xlink:href="#m1ab2b9a388" y="362.482664"/>
     <use style="fill:#471365;fill-opacity:0.8;stroke:#471365;stroke-opacity:0.8;" x="140.115227" xlink:href="#m1ab2b9a388" y="358.861865"/>
     <use style="fill:#471365;fill-opacity:0.8;stroke:#471365;stroke-opacity:0.8;" x="145.151579" xlink:href="#m1ab2b9a388" y="359.901882"/>
     <use style="fill:#471365;fill-opacity:0.8;stroke:#471365;stroke-opacity:0.8;" x="238.867582" xlink:href="#m1ab2b9a388" y="367.528671"/>
    </g>
   </g>
   <g id="PolyCollection_1">
    <defs>
     <path d="M 63.183924 -118.094222 
L 63.183924 -96.486847 
L 65.964919 -95.889503 
L 68.745914 -95.284639 
L 71.526909 -94.646908 
L 74.307903 -94.034933 
L 77.088898 -93.423135 
L 79.869893 -92.811337 
L 82.650888 -92.199383 
L 85.431883 -91.587181 
L 88.212877 -90.974978 
L 90.993872 -90.362776 
L 93.774867 -89.750574 
L 96.555862 -89.138449 
L 99.336857 -88.526643 
L 102.117851 -87.914837 
L 104.898846 -87.303031 
L 107.679841 -86.691224 
L 110.460836 -86.079418 
L 113.241831 -85.467612 
L 116.022825 -84.855805 
L 118.80382 -84.243999 
L 121.584815 -83.632193 
L 124.36581 -83.020387 
L 127.146805 -82.408999 
L 129.927799 -81.821095 
L 132.708794 -81.2213 
L 135.489789 -80.611843 
L 138.270784 -80.035057 
L 141.051779 -79.452606 
L 143.832773 -78.834009 
L 146.613768 -78.229 
L 149.394763 -77.61504 
L 152.175758 -76.99638 
L 154.956753 -76.351759 
L 157.737747 -75.700535 
L 160.518742 -75.082285 
L 163.299737 -74.420926 
L 166.080732 -73.733793 
L 168.861727 -73.042814 
L 171.642721 -72.337413 
L 174.423716 -71.649537 
L 177.204711 -70.933794 
L 179.985706 -70.174882 
L 182.7667 -69.296461 
L 185.547695 -68.358768 
L 188.32869 -67.493117 
L 191.109685 -66.554307 
L 193.89068 -65.606612 
L 196.671674 -64.661919 
L 199.452669 -63.714648 
L 202.233664 -62.712643 
L 205.014659 -61.719998 
L 207.795654 -60.710896 
L 210.576648 -59.69517 
L 213.357643 -58.635314 
L 216.138638 -57.593039 
L 218.919633 -56.556126 
L 221.700628 -55.455897 
L 224.481622 -54.393025 
L 227.262617 -53.285391 
L 230.043612 -52.147703 
L 232.824607 -51.008983 
L 235.605602 -49.926553 
L 238.386596 -48.821 
L 241.167591 -47.715447 
L 243.948586 -46.609894 
L 246.729581 -45.504381 
L 249.510576 -44.399153 
L 252.29157 -43.278096 
L 255.072565 -42.127225 
L 257.85356 -40.977239 
L 260.634555 -39.916565 
L 263.41555 -38.871583 
L 266.196544 -37.791104 
L 268.977539 -36.738186 
L 271.758534 -35.686045 
L 274.539529 -34.633903 
L 277.320524 -33.524554 
L 280.101518 -32.461587 
L 282.882513 -31.404738 
L 285.663508 -30.348045 
L 288.444503 -29.291353 
L 291.225498 -28.125424 
L 294.006492 -27.054366 
L 296.787487 -25.983308 
L 299.568482 -24.913602 
L 302.349477 -23.844489 
L 305.130472 -22.775376 
L 307.911466 -21.706614 
L 310.692461 -20.637913 
L 313.473456 -19.569213 
L 316.254451 -18.500512 
L 319.035446 -17.397333 
L 321.81644 -16.290948 
L 324.597435 -15.184562 
L 327.37843 -14.078177 
L 330.159425 -12.971792 
L 332.940419 -11.865406 
L 335.721414 -10.759021 
L 338.502409 -9.652635 
L 338.502409 -36.580249 
L 338.502409 -36.580249 
L 335.721414 -37.192145 
L 332.940419 -37.803345 
L 330.159425 -38.414472 
L 327.37843 -39.025599 
L 324.597435 -39.636726 
L 321.81644 -40.247853 
L 319.035446 -40.85898 
L 316.254451 -41.470108 
L 313.473456 -42.081235 
L 310.692461 -42.692362 
L 307.911466 -43.303489 
L 305.130472 -43.914616 
L 302.349477 -44.525743 
L 299.568482 -45.136871 
L 296.787487 -45.748406 
L 294.006492 -46.359866 
L 291.225498 -46.971968 
L 288.444503 -47.58313 
L 285.663508 -48.194113 
L 282.882513 -48.786901 
L 280.101518 -49.375791 
L 277.320524 -49.964681 
L 274.539529 -50.553571 
L 271.758534 -51.177658 
L 268.977539 -51.788771 
L 266.196544 -52.35826 
L 263.41555 -53.013135 
L 260.634555 -53.629572 
L 257.85356 -54.221117 
L 255.072565 -54.840934 
L 252.29157 -55.466041 
L 249.510576 -56.112724 
L 246.729581 -56.753007 
L 243.948586 -57.324923 
L 241.167591 -57.896838 
L 238.386596 -58.494256 
L 235.605602 -59.124917 
L 232.824607 -59.769103 
L 230.043612 -60.413289 
L 227.262617 -61.011241 
L 224.481622 -61.618644 
L 221.700628 -62.239175 
L 218.919633 -62.871768 
L 216.138638 -63.56052 
L 213.357643 -64.277188 
L 210.576648 -64.928282 
L 207.795654 -65.61536 
L 205.014659 -66.275564 
L 202.233664 -66.94503 
L 199.452669 -67.702456 
L 196.671674 -68.44382 
L 193.89068 -69.244223 
L 191.109685 -70.090329 
L 188.32869 -70.867539 
L 185.547695 -71.720003 
L 182.7667 -72.61743 
L 179.985706 -73.509998 
L 177.204711 -74.456241 
L 174.423716 -75.395386 
L 171.642721 -76.3386 
L 168.861727 -77.437085 
L 166.080732 -78.424899 
L 163.299737 -79.455756 
L 160.518742 -80.521322 
L 157.737747 -81.565695 
L 154.956753 -82.585528 
L 152.175758 -83.614485 
L 149.394763 -84.751202 
L 146.613768 -85.782804 
L 143.832773 -86.803758 
L 141.051779 -87.896177 
L 138.270784 -88.898139 
L 135.489789 -90.032766 
L 132.708794 -91.080655 
L 129.927799 -92.127062 
L 127.146805 -93.173469 
L 124.36581 -94.229273 
L 121.584815 -95.439738 
L 118.80382 -96.505699 
L 116.022825 -97.571409 
L 113.241831 -98.637119 
L 110.460836 -99.702828 
L 107.679841 -100.768538 
L 104.898846 -101.853404 
L 102.117851 -102.922749 
L 99.336857 -103.992532 
L 96.555862 -105.078049 
L 93.774867 -106.225791 
L 90.993872 -107.359737 
L 88.212877 -108.433858 
L 85.431883 -109.507979 
L 82.650888 -110.581721 
L 79.869893 -111.6539 
L 77.088898 -112.725814 
L 74.307903 -113.754017 
L 71.526909 -114.782219 
L 68.745914 -115.89689 
L 65.964919 -117.019528 
L 63.183924 -118.094222 
z
" id="m05f9224018" style="stroke:#ffffff;stroke-opacity:0.15;stroke-width:0.8;"/>
    </defs>
    <g clip-path="url(#p1ee01d02cc)">
     <use style="fill:#471365;fill-opacity:0.15;stroke:#ffffff;stroke-opacity:0.15;stroke-width:0.8;" x="0" xlink:href="#m05f9224018" y="432"/>
    </g>
   </g>
   <g id="line2d_14">
    <path clip-path="url(#p1ee01d02cc)" d="M 63.183924 325.77322 
L 65.964919 326.592602 
L 68.745914 327.411983 
L 71.526909 328.231365 
L 74.307903 329.050746 
L 77.088898 329.870128 
L 79.869893 330.68951 
L 82.650888 331.508891 
L 85.431883 332.328273 
L 88.212877 333.147654 
L 90.993872 333.967036 
L 93.774867 334.786418 
L 96.555862 335.605799 
L 99.336857 336.425181 
L 102.117851 337.244563 
L 104.898846 338.063944 
L 107.679841 338.883326 
L 110.460836 339.702707 
L 113.241831 340.522089 
L 116.022825 341.341471 
L 118.80382 342.160852 
L 121.584815 342.980234 
L 124.36581 343.799615 
L 127.146805 344.618997 
L 129.927799 345.438379 
L 132.708794 346.25776 
L 135.489789 347.077142 
L 138.270784 347.896523 
L 141.051779 348.715905 
L 143.832773 349.535287 
L 146.613768 350.354668 
L 149.394763 351.17405 
L 152.175758 351.993431 
L 154.956753 352.812813 
L 157.737747 353.632195 
L 160.518742 354.451576 
L 163.299737 355.270958 
L 166.080732 356.090339 
L 168.861727 356.909721 
L 171.642721 357.729103 
L 174.423716 358.548484 
L 177.204711 359.367866 
L 179.985706 360.187248 
L 182.7667 361.006629 
L 185.547695 361.826011 
L 188.32869 362.645392 
L 191.109685 363.464774 
L 193.89068 364.284156 
L 196.671674 365.103537 
L 199.452669 365.922919 
L 202.233664 366.7423 
L 205.014659 367.561682 
L 207.795654 368.381064 
L 210.576648 369.200445 
L 213.357643 370.019827 
L 216.138638 370.839208 
L 218.919633 371.65859 
L 221.700628 372.477972 
L 224.481622 373.297353 
L 227.262617 374.116735 
L 230.043612 374.936116 
L 232.824607 375.755498 
L 235.605602 376.57488 
L 238.386596 377.394261 
L 241.167591 378.213643 
L 243.948586 379.033024 
L 246.729581 379.852406 
L 249.510576 380.671788 
L 252.29157 381.491169 
L 255.072565 382.310551 
L 257.85356 383.129933 
L 260.634555 383.949314 
L 263.41555 384.768696 
L 266.196544 385.588077 
L 268.977539 386.407459 
L 271.758534 387.226841 
L 274.539529 388.046222 
L 277.320524 388.865604 
L 280.101518 389.684985 
L 282.882513 390.504367 
L 285.663508 391.323749 
L 288.444503 392.14313 
L 291.225498 392.962512 
L 294.006492 393.781893 
L 296.787487 394.601275 
L 299.568482 395.420657 
L 302.349477 396.240038 
L 305.130472 397.05942 
L 307.911466 397.878801 
L 310.692461 398.698183 
L 313.473456 399.517565 
L 316.254451 400.336946 
L 319.035446 401.156328 
L 321.81644 401.975709 
L 324.597435 402.795091 
L 327.37843 403.614473 
L 330.159425 404.433854 
L 332.940419 405.253236 
L 335.721414 406.072618 
L 338.502409 406.891999 
" style="fill:none;stroke:#471365;stroke-linecap:round;stroke-width:1.8;"/>
   </g>
   <g id="patch_3">
    <path d="M 49.418 390.332 
L 49.418 81.023333 
" style="fill:none;stroke:#262626;stroke-linecap:square;stroke-linejoin:miter;"/>
   </g>
   <g id="patch_4">
    <path d="M 49.418 390.332 
L 352.268333 390.332 
" style="fill:none;stroke:#262626;stroke-linecap:square;stroke-linejoin:miter;"/>
   </g>
   <g id="legend_1">
    <g id="patch_5">
     <path d="M 184.939083 100.980083 
L 346.108333 100.980083 
Q 347.868333 100.980083 347.868333 99.220083 
L 347.868333 87.183333 
Q 347.868333 85.423333 346.108333 85.423333 
L 184.939083 85.423333 
Q 183.179083 85.423333 183.179083 87.183333 
L 183.179083 99.220083 
Q 183.179083 100.980083 184.939083 100.980083 
z
" style="fill:#ffffff;opacity:0.8;stroke:#cccccc;stroke-linejoin:miter;stroke-width:0.8;"/>
    </g>
    <g id="line2d_15"/>
    <g id="line2d_16"/>
    <g id="text_16">
     <!-- pearsonr = -0.45; p = 4.4e-13 -->
     <defs>
      <path d="M 18.109375 8.203125 
L 18.109375 -20.796875 
L 9.078125 -20.796875 
L 9.078125 54.6875 
L 18.109375 54.6875 
L 18.109375 46.390625 
Q 20.953125 51.265625 25.265625 53.625 
Q 29.59375 56 35.59375 56 
Q 45.5625 56 51.78125 48.09375 
Q 58.015625 40.1875 58.015625 27.296875 
Q 58.015625 14.40625 51.78125 6.484375 
Q 45.5625 -1.421875 35.59375 -1.421875 
Q 29.59375 -1.421875 25.265625 0.953125 
Q 20.953125 3.328125 18.109375 8.203125 
z
M 48.6875 27.296875 
Q 48.6875 37.203125 44.609375 42.84375 
Q 40.53125 48.484375 33.40625 48.484375 
Q 26.265625 48.484375 22.1875 42.84375 
Q 18.109375 37.203125 18.109375 27.296875 
Q 18.109375 17.390625 22.1875 11.75 
Q 26.265625 6.109375 33.40625 6.109375 
Q 40.53125 6.109375 44.609375 11.75 
Q 48.6875 17.390625 48.6875 27.296875 
z
" id="DejaVuSans-70"/>
      <path d="M 44.28125 53.078125 
L 44.28125 44.578125 
Q 40.484375 46.53125 36.375 47.5 
Q 32.28125 48.484375 27.875 48.484375 
Q 21.1875 48.484375 17.84375 46.4375 
Q 14.5 44.390625 14.5 40.28125 
Q 14.5 37.15625 16.890625 35.375 
Q 19.28125 33.59375 26.515625 31.984375 
L 29.59375 31.296875 
Q 39.15625 29.25 43.1875 25.515625 
Q 47.21875 21.78125 47.21875 15.09375 
Q 47.21875 7.46875 41.1875 3.015625 
Q 35.15625 -1.421875 24.609375 -1.421875 
Q 20.21875 -1.421875 15.453125 -0.5625 
Q 10.6875 0.296875 5.421875 2 
L 5.421875 11.28125 
Q 10.40625 8.6875 15.234375 7.390625 
Q 20.0625 6.109375 24.8125 6.109375 
Q 31.15625 6.109375 34.5625 8.28125 
Q 37.984375 10.453125 37.984375 14.40625 
Q 37.984375 18.0625 35.515625 20.015625 
Q 33.0625 21.96875 24.703125 23.78125 
L 21.578125 24.515625 
Q 13.234375 26.265625 9.515625 29.90625 
Q 5.8125 33.546875 5.8125 39.890625 
Q 5.8125 47.609375 11.28125 51.796875 
Q 16.75 56 26.8125 56 
Q 31.78125 56 36.171875 55.265625 
Q 40.578125 54.546875 44.28125 53.078125 
z
" id="DejaVuSans-73"/>
      <path d="M 10.59375 45.40625 
L 73.1875 45.40625 
L 73.1875 37.203125 
L 10.59375 37.203125 
z
M 10.59375 25.484375 
L 73.1875 25.484375 
L 73.1875 17.1875 
L 10.59375 17.1875 
z
" id="DejaVuSans-3d"/>
      <path d="M 10.6875 12.40625 
L 21 12.40625 
L 21 0 
L 10.6875 0 
z
" id="DejaVuSans-2e"/>
      <path d="M 10.796875 72.90625 
L 49.515625 72.90625 
L 49.515625 64.59375 
L 19.828125 64.59375 
L 19.828125 46.734375 
Q 21.96875 47.46875 24.109375 47.828125 
Q 26.265625 48.1875 28.421875 48.1875 
Q 40.625 48.1875 47.75 41.5 
Q 54.890625 34.8125 54.890625 23.390625 
Q 54.890625 11.625 47.5625 5.09375 
Q 40.234375 -1.421875 26.90625 -1.421875 
Q 22.3125 -1.421875 17.546875 -0.640625 
Q 12.796875 0.140625 7.71875 1.703125 
L 7.71875 11.625 
Q 12.109375 9.234375 16.796875 8.0625 
Q 21.484375 6.890625 26.703125 6.890625 
Q 35.15625 6.890625 40.078125 11.328125 
Q 45.015625 15.765625 45.015625 23.390625 
Q 45.015625 31 40.078125 35.4375 
Q 35.15625 39.890625 26.703125 39.890625 
Q 22.75 39.890625 18.8125 39.015625 
Q 14.890625 38.140625 10.796875 36.28125 
z
" id="DejaVuSans-35"/>
      <path d="M 11.71875 51.703125 
L 22.015625 51.703125 
L 22.015625 39.3125 
L 11.71875 39.3125 
z
M 11.71875 12.40625 
L 22.015625 12.40625 
L 22.015625 4 
L 14.015625 -11.625 
L 7.71875 -11.625 
L 11.71875 4 
z
" id="DejaVuSans-3b"/>
      <path d="M 40.578125 39.3125 
Q 47.65625 37.796875 51.625 33 
Q 55.609375 28.21875 55.609375 21.1875 
Q 55.609375 10.40625 48.1875 4.484375 
Q 40.765625 -1.421875 27.09375 -1.421875 
Q 22.515625 -1.421875 17.65625 -0.515625 
Q 12.796875 0.390625 7.625 2.203125 
L 7.625 11.71875 
Q 11.71875 9.328125 16.59375 8.109375 
Q 21.484375 6.890625 26.8125 6.890625 
Q 36.078125 6.890625 40.9375 10.546875 
Q 45.796875 14.203125 45.796875 21.1875 
Q 45.796875 27.640625 41.28125 31.265625 
Q 36.765625 34.90625 28.71875 34.90625 
L 20.21875 34.90625 
L 20.21875 43.015625 
L 29.109375 43.015625 
Q 36.375 43.015625 40.234375 45.921875 
Q 44.09375 48.828125 44.09375 54.296875 
Q 44.09375 59.90625 40.109375 62.90625 
Q 36.140625 65.921875 28.71875 65.921875 
Q 24.65625 65.921875 20.015625 65.03125 
Q 15.375 64.15625 9.8125 62.3125 
L 9.8125 71.09375 
Q 15.4375 72.65625 20.34375 73.4375 
Q 25.25 74.21875 29.59375 74.21875 
Q 40.828125 74.21875 47.359375 69.109375 
Q 53.90625 64.015625 53.90625 55.328125 
Q 53.90625 49.265625 50.4375 45.09375 
Q 46.96875 40.921875 40.578125 39.3125 
z
" id="DejaVuSans-33"/>
     </defs>
     <g style="fill:#262626;" transform="translate(211.339083 95.629958)scale(0.088 -0.088)">
      <use xlink:href="#DejaVuSans-70"/>
      <use x="63.476562" xlink:href="#DejaVuSans-65"/>
      <use x="125" xlink:href="#DejaVuSans-61"/>
      <use x="186.279297" xlink:href="#DejaVuSans-72"/>
      <use x="227.392578" xlink:href="#DejaVuSans-73"/>
      <use x="279.492188" xlink:href="#DejaVuSans-6f"/>
      <use x="340.673828" xlink:href="#DejaVuSans-6e"/>
      <use x="404.052734" xlink:href="#DejaVuSans-72"/>
      <use x="445.166016" xlink:href="#DejaVuSans-20"/>
      <use x="476.953125" xlink:href="#DejaVuSans-3d"/>
      <use x="560.742188" xlink:href="#DejaVuSans-20"/>
      <use x="592.529297" xlink:href="#DejaVuSans-2d"/>
      <use x="628.613281" xlink:href="#DejaVuSans-30"/>
      <use x="692.236328" xlink:href="#DejaVuSans-2e"/>
      <use x="724.023438" xlink:href="#DejaVuSans-34"/>
      <use x="787.646484" xlink:href="#DejaVuSans-35"/>
      <use x="851.269531" xlink:href="#DejaVuSans-3b"/>
      <use x="884.960938" xlink:href="#DejaVuSans-20"/>
      <use x="916.748047" xlink:href="#DejaVuSans-70"/>
      <use x="980.224609" xlink:href="#DejaVuSans-20"/>
      <use x="1012.011719" xlink:href="#DejaVuSans-3d"/>
      <use x="1095.800781" xlink:href="#DejaVuSans-20"/>
      <use x="1127.587891" xlink:href="#DejaVuSans-34"/>
      <use x="1191.210938" xlink:href="#DejaVuSans-2e"/>
      <use x="1222.998047" xlink:href="#DejaVuSans-34"/>
      <use x="1286.621094" xlink:href="#DejaVuSans-65"/>
      <use x="1348.144531" xlink:href="#DejaVuSans-2d"/>
      <use x="1384.228516" xlink:href="#DejaVuSans-31"/>
      <use x="1447.851562" xlink:href="#DejaVuSans-33"/>
     </g>
    </g>
   </g>
  </g>
  <g id="axes_2">
   <g id="patch_6">
    <path d="M 49.418 61.055333 
L 352.268333 61.055333 
L 352.268333 15.168 
L 49.418 15.168 
z
" style="fill:#ffffff;"/>
   </g>
   <g id="matplotlib.axis_3">
    <g id="xtick_8">
     <g id="line2d_17">
      <g>
       <use style="fill:#262626;stroke:#262626;" x="56.079031" xlink:href="#m9b822935d7" y="61.055333"/>
      </g>
     </g>
    </g>
    <g id="xtick_9">
     <g id="line2d_18">
      <g>
       <use style="fill:#262626;stroke:#262626;" x="99.551545" xlink:href="#m9b822935d7" y="61.055333"/>
      </g>
     </g>
    </g>
    <g id="xtick_10">
     <g id="line2d_19">
      <g>
       <use style="fill:#262626;stroke:#262626;" x="143.024059" xlink:href="#m9b822935d7" y="61.055333"/>
      </g>
     </g>
    </g>
    <g id="xtick_11">
     <g id="line2d_20">
      <g>
       <use style="fill:#262626;stroke:#262626;" x="186.496573" xlink:href="#m9b822935d7" y="61.055333"/>
      </g>
     </g>
    </g>
    <g id="xtick_12">
     <g id="line2d_21">
      <g>
       <use style="fill:#262626;stroke:#262626;" x="229.969087" xlink:href="#m9b822935d7" y="61.055333"/>
      </g>
     </g>
    </g>
    <g id="xtick_13">
     <g id="line2d_22">
      <g>
       <use style="fill:#262626;stroke:#262626;" x="273.441602" xlink:href="#m9b822935d7" y="61.055333"/>
      </g>
     </g>
    </g>
    <g id="xtick_14">
     <g id="line2d_23">
      <g>
       <use style="fill:#262626;stroke:#262626;" x="316.914116" xlink:href="#m9b822935d7" y="61.055333"/>
      </g>
     </g>
    </g>
   </g>
   <g id="matplotlib.axis_4">
    <g id="ytick_7"/>
    <g id="ytick_8"/>
   </g>
   <g id="patch_7">
    <path clip-path="url(#p7a86f12d3d)" d="M 111.883052 61.055333 
L 128.057618 61.055333 
L 128.057618 20.203256 
L 111.883052 20.203256 
z
" style="fill:#471365;opacity:0.4;stroke:#ffffff;stroke-linejoin:miter;stroke-width:0.8;"/>
   </g>
   <g id="patch_8">
    <path clip-path="url(#p7a86f12d3d)" d="M 128.057618 61.055333 
L 144.232184 61.055333 
L 144.232184 17.353111 
L 128.057618 17.353111 
z
" style="fill:#471365;opacity:0.4;stroke:#ffffff;stroke-linejoin:miter;stroke-width:0.8;"/>
   </g>
   <g id="patch_9">
    <path clip-path="url(#p7a86f12d3d)" d="M 144.232184 61.055333 
L 160.406751 61.055333 
L 160.406751 20.203256 
L 144.232184 20.203256 
z
" style="fill:#471365;opacity:0.4;stroke:#ffffff;stroke-linejoin:miter;stroke-width:0.8;"/>
   </g>
   <g id="patch_10">
    <path clip-path="url(#p7a86f12d3d)" d="M 160.406751 61.055333 
L 176.581317 61.055333 
L 176.581317 31.603836 
L 160.406751 31.603836 
z
" style="fill:#471365;opacity:0.4;stroke:#ffffff;stroke-linejoin:miter;stroke-width:0.8;"/>
   </g>
   <g id="patch_11">
    <path clip-path="url(#p7a86f12d3d)" d="M 176.581317 61.055333 
L 192.755883 61.055333 
L 192.755883 39.204222 
L 176.581317 39.204222 
z
" style="fill:#471365;opacity:0.4;stroke:#ffffff;stroke-linejoin:miter;stroke-width:0.8;"/>
   </g>
   <g id="patch_12">
    <path clip-path="url(#p7a86f12d3d)" d="M 192.755883 61.055333 
L 208.93045 61.055333 
L 208.93045 43.954464 
L 192.755883 43.954464 
z
" style="fill:#471365;opacity:0.4;stroke:#ffffff;stroke-linejoin:miter;stroke-width:0.8;"/>
   </g>
   <g id="patch_13">
    <path clip-path="url(#p7a86f12d3d)" d="M 208.93045 61.055333 
L 225.105016 61.055333 
L 225.105016 47.754657 
L 208.93045 47.754657 
z
" style="fill:#471365;opacity:0.4;stroke:#ffffff;stroke-linejoin:miter;stroke-width:0.8;"/>
   </g>
   <g id="patch_14">
    <path clip-path="url(#p7a86f12d3d)" d="M 225.105016 61.055333 
L 241.279583 61.055333 
L 241.279583 53.454947 
L 225.105016 53.454947 
z
" style="fill:#471365;opacity:0.4;stroke:#ffffff;stroke-linejoin:miter;stroke-width:0.8;"/>
   </g>
   <g id="patch_15">
    <path clip-path="url(#p7a86f12d3d)" d="M 241.279583 61.055333 
L 257.454149 61.055333 
L 257.454149 56.305092 
L 241.279583 56.305092 
z
" style="fill:#471365;opacity:0.4;stroke:#ffffff;stroke-linejoin:miter;stroke-width:0.8;"/>
   </g>
   <g id="patch_16">
    <path clip-path="url(#p7a86f12d3d)" d="M 257.454149 61.055333 
L 273.628715 61.055333 
L 273.628715 60.105285 
L 257.454149 60.105285 
z
" style="fill:#471365;opacity:0.4;stroke:#ffffff;stroke-linejoin:miter;stroke-width:0.8;"/>
   </g>
   <g id="patch_17">
    <path clip-path="url(#p7a86f12d3d)" d="M 273.628715 61.055333 
L 289.803282 61.055333 
L 289.803282 59.155237 
L 273.628715 59.155237 
z
" style="fill:#471365;opacity:0.4;stroke:#ffffff;stroke-linejoin:miter;stroke-width:0.8;"/>
   </g>
   <g id="line2d_24">
    <path clip-path="url(#p7a86f12d3d)" d="M 75.698401 61.026611 
L 78.226578 60.998032 
L 80.754755 60.945176 
L 83.282932 60.851217 
L 85.811109 60.690693 
L 88.339286 60.427167 
L 90.867463 60.011551 
L 93.39564 59.382039 
L 95.923818 58.466674 
L 98.451995 57.189476 
L 100.980172 55.480401 
L 103.508349 53.288434 
L 106.036526 50.59583 
L 108.564703 47.430377 
L 111.09288 43.872076 
L 113.621057 40.051187 
L 116.149234 36.136358 
L 118.677411 32.314143 
L 121.205588 28.763847 
L 123.733765 25.633353 
L 126.261943 23.021642 
L 128.79012 20.971877 
L 131.318297 19.475917 
L 133.846474 18.487822 
L 136.374651 17.941715 
L 138.902828 17.768747 
L 141.431005 17.909131 
L 143.959182 18.317391 
L 146.487359 18.961403 
L 149.015536 19.817395 
L 151.543713 20.863676 
L 154.071891 22.07541 
L 156.600068 23.421746 
L 159.128245 24.865558 
L 161.656422 26.365264 
L 164.184599 27.877886 
L 166.712776 29.362547 
L 169.240953 30.783846 
L 171.76913 32.114868 
L 174.297307 33.339649 
L 176.825484 34.454912 
L 179.353661 35.470663 
L 181.881839 36.409092 
L 184.410016 37.301361 
L 186.938193 38.18227 
L 189.46637 39.08356 
L 191.994547 40.027285 
L 194.522724 41.021046 
L 197.050901 42.056561 
L 199.579078 43.112152 
L 202.107255 44.158494 
L 204.635432 45.165944 
L 207.163609 46.111291 
L 209.691786 46.982089 
L 212.219964 47.777661 
L 214.748141 48.506965 
L 217.276318 49.184476 
L 219.804495 49.825609 
L 222.332672 50.443133 
L 224.860849 51.045372 
L 227.389026 51.636344 
L 229.917203 52.217259 
L 232.44538 52.788494 
L 234.973557 53.351122 
L 237.501734 53.90741 
L 240.029912 54.460188 
L 242.558089 55.011469 
L 245.086266 55.560952 
L 247.614443 56.10506 
L 250.14262 56.636865 
L 252.670797 57.146932 
L 255.198974 57.624793 
L 257.727151 58.06059 
L 260.255328 58.446517 
L 262.783505 58.77779 
L 265.311682 59.053098 
L 267.839859 59.274603 
L 270.368037 59.447597 
L 272.896214 59.579922 
L 275.424391 59.681208 
L 277.952568 59.761963 
L 280.480745 59.832558 
L 283.008922 59.902193 
L 285.537099 59.977965 
L 288.065276 60.064195 
L 290.593453 60.162142 
L 293.12163 60.27017 
L 295.649807 60.384356 
L 298.177985 60.499417 
L 300.706162 60.609761 
L 303.234339 60.710453 
L 305.762516 60.79792 
L 308.290693 60.870283 
L 310.81887 60.927332 
L 313.347047 60.970212 
L 315.875224 61.00095 
L 318.403401 61.021973 
L 320.931578 61.035694 
L 323.459755 61.044243 
L 325.987933 61.049327 
" style="fill:none;stroke:#471365;stroke-linecap:round;stroke-width:1.2;"/>
   </g>
   <g id="patch_18">
    <path d="M 49.418 61.055333 
L 352.268333 61.055333 
" style="fill:none;stroke:#262626;stroke-linecap:square;stroke-linejoin:miter;"/>
   </g>
  </g>
  <g id="axes_3">
   <g id="patch_19">
    <path d="M 372.236333 390.332 
L 416.832 390.332 
L 416.832 81.023333 
L 372.236333 81.023333 
z
" style="fill:#ffffff;"/>
   </g>
   <g id="matplotlib.axis_5">
    <g id="xtick_15"/>
    <g id="xtick_16"/>
    <g id="xtick_17"/>
   </g>
   <g id="matplotlib.axis_6">
    <g id="ytick_9">
     <g id="line2d_25">
      <g>
       <use style="fill:#262626;stroke:#262626;" x="372.236333" xlink:href="#m0038c2ef91" y="390.332"/>
      </g>
     </g>
    </g>
    <g id="ytick_10">
     <g id="line2d_26">
      <g>
       <use style="fill:#262626;stroke:#262626;" x="372.236333" xlink:href="#m0038c2ef91" y="334.094061"/>
      </g>
     </g>
    </g>
    <g id="ytick_11">
     <g id="line2d_27">
      <g>
       <use style="fill:#262626;stroke:#262626;" x="372.236333" xlink:href="#m0038c2ef91" y="277.856121"/>
      </g>
     </g>
    </g>
    <g id="ytick_12">
     <g id="line2d_28">
      <g>
       <use style="fill:#262626;stroke:#262626;" x="372.236333" xlink:href="#m0038c2ef91" y="221.618182"/>
      </g>
     </g>
    </g>
    <g id="ytick_13">
     <g id="line2d_29">
      <g>
       <use style="fill:#262626;stroke:#262626;" x="372.236333" xlink:href="#m0038c2ef91" y="165.380242"/>
      </g>
     </g>
    </g>
    <g id="ytick_14">
     <g id="line2d_30">
      <g>
       <use style="fill:#262626;stroke:#262626;" x="372.236333" xlink:href="#m0038c2ef91" y="109.142303"/>
      </g>
     </g>
    </g>
   </g>
   <g id="patch_20">
    <path clip-path="url(#p380bc0cc37)" d="M 372.236333 373.375876 
L 378.303771 373.375876 
L 378.303771 368.508752 
L 372.236333 368.508752 
z
" style="fill:#471365;opacity:0.4;stroke:#ffffff;stroke-linejoin:miter;stroke-width:0.8;"/>
   </g>
   <g id="patch_21">
    <path clip-path="url(#p380bc0cc37)" d="M 372.236333 368.508752 
L 411.398885 368.508752 
L 411.398885 363.641628 
L 372.236333 363.641628 
z
" style="fill:#471365;opacity:0.4;stroke:#ffffff;stroke-linejoin:miter;stroke-width:0.8;"/>
   </g>
   <g id="patch_22">
    <path clip-path="url(#p380bc0cc37)" d="M 372.236333 363.641628 
L 414.708397 363.641628 
L 414.708397 358.774504 
L 372.236333 358.774504 
z
" style="fill:#471365;opacity:0.4;stroke:#ffffff;stroke-linejoin:miter;stroke-width:0.8;"/>
   </g>
   <g id="patch_23">
    <path clip-path="url(#p380bc0cc37)" d="M 372.236333 358.774504 
L 388.783891 358.774504 
L 388.783891 353.90738 
L 372.236333 353.90738 
z
" style="fill:#471365;opacity:0.4;stroke:#ffffff;stroke-linejoin:miter;stroke-width:0.8;"/>
   </g>
   <g id="patch_24">
    <path clip-path="url(#p380bc0cc37)" d="M 372.236333 353.90738 
L 376.09743 353.90738 
L 376.09743 349.040256 
L 372.236333 349.040256 
z
" style="fill:#471365;opacity:0.4;stroke:#ffffff;stroke-linejoin:miter;stroke-width:0.8;"/>
   </g>
   <g id="patch_25">
    <path clip-path="url(#p380bc0cc37)" d="M 372.236333 349.040256 
L 375.545845 349.040256 
L 375.545845 344.173132 
L 372.236333 344.173132 
z
" style="fill:#471365;opacity:0.4;stroke:#ffffff;stroke-linejoin:miter;stroke-width:0.8;"/>
   </g>
   <g id="patch_26">
    <path clip-path="url(#p380bc0cc37)" d="M 372.236333 344.173132 
L 374.99426 344.173132 
L 374.99426 339.306008 
L 372.236333 339.306008 
z
" style="fill:#471365;opacity:0.4;stroke:#ffffff;stroke-linejoin:miter;stroke-width:0.8;"/>
   </g>
   <g id="patch_27">
    <path clip-path="url(#p380bc0cc37)" d="M 372.236333 339.306008 
L 373.891089 339.306008 
L 373.891089 334.438884 
L 372.236333 334.438884 
z
" style="fill:#471365;opacity:0.4;stroke:#ffffff;stroke-linejoin:miter;stroke-width:0.8;"/>
   </g>
   <g id="patch_28">
    <path clip-path="url(#p380bc0cc37)" d="M 372.236333 334.438884 
L 374.442674 334.438884 
L 374.442674 329.57176 
L 372.236333 329.57176 
z
" style="fill:#471365;opacity:0.4;stroke:#ffffff;stroke-linejoin:miter;stroke-width:0.8;"/>
   </g>
   <g id="patch_29">
    <path clip-path="url(#p380bc0cc37)" d="M 372.236333 329.57176 
L 376.09743 329.57176 
L 376.09743 324.704636 
L 372.236333 324.704636 
z
" style="fill:#471365;opacity:0.4;stroke:#ffffff;stroke-linejoin:miter;stroke-width:0.8;"/>
   </g>
   <g id="patch_30">
    <path clip-path="url(#p380bc0cc37)" d="M 372.236333 324.704636 
L 372.236333 324.704636 
L 372.236333 319.837512 
L 372.236333 319.837512 
z
" style="fill:#471365;opacity:0.4;stroke:#ffffff;stroke-linejoin:miter;stroke-width:0.8;"/>
   </g>
   <g id="patch_31">
    <path clip-path="url(#p380bc0cc37)" d="M 372.236333 319.837512 
L 373.339504 319.837512 
L 373.339504 314.970388 
L 372.236333 314.970388 
z
" style="fill:#471365;opacity:0.4;stroke:#ffffff;stroke-linejoin:miter;stroke-width:0.8;"/>
   </g>
   <g id="patch_32">
    <path clip-path="url(#p380bc0cc37)" d="M 372.236333 314.970388 
L 373.891089 314.970388 
L 373.891089 310.103264 
L 372.236333 310.103264 
z
" style="fill:#471365;opacity:0.4;stroke:#ffffff;stroke-linejoin:miter;stroke-width:0.8;"/>
   </g>
   <g id="patch_33">
    <path clip-path="url(#p380bc0cc37)" d="M 372.236333 310.103264 
L 372.787919 310.103264 
L 372.787919 305.23614 
L 372.236333 305.23614 
z
" style="fill:#471365;opacity:0.4;stroke:#ffffff;stroke-linejoin:miter;stroke-width:0.8;"/>
   </g>
   <g id="patch_34">
    <path clip-path="url(#p380bc0cc37)" d="M 372.236333 305.23614 
L 372.236333 305.23614 
L 372.236333 300.369016 
L 372.236333 300.369016 
z
" style="fill:#471365;opacity:0.4;stroke:#ffffff;stroke-linejoin:miter;stroke-width:0.8;"/>
   </g>
   <g id="patch_35">
    <path clip-path="url(#p380bc0cc37)" d="M 372.236333 300.369016 
L 372.236333 300.369016 
L 372.236333 295.501892 
L 372.236333 295.501892 
z
" style="fill:#471365;opacity:0.4;stroke:#ffffff;stroke-linejoin:miter;stroke-width:0.8;"/>
   </g>
   <g id="patch_36">
    <path clip-path="url(#p380bc0cc37)" d="M 372.236333 295.501892 
L 373.339504 295.501892 
L 373.339504 290.634768 
L 372.236333 290.634768 
z
" style="fill:#471365;opacity:0.4;stroke:#ffffff;stroke-linejoin:miter;stroke-width:0.8;"/>
   </g>
   <g id="patch_37">
    <path clip-path="url(#p380bc0cc37)" d="M 372.236333 290.634768 
L 372.236333 290.634768 
L 372.236333 285.767644 
L 372.236333 285.767644 
z
" style="fill:#471365;opacity:0.4;stroke:#ffffff;stroke-linejoin:miter;stroke-width:0.8;"/>
   </g>
   <g id="patch_38">
    <path clip-path="url(#p380bc0cc37)" d="M 372.236333 285.767644 
L 372.787919 285.767644 
L 372.787919 280.90052 
L 372.236333 280.90052 
z
" style="fill:#471365;opacity:0.4;stroke:#ffffff;stroke-linejoin:miter;stroke-width:0.8;"/>
   </g>
   <g id="patch_39">
    <path clip-path="url(#p380bc0cc37)" d="M 372.236333 280.90052 
L 372.236333 280.90052 
L 372.236333 276.033396 
L 372.236333 276.033396 
z
" style="fill:#471365;opacity:0.4;stroke:#ffffff;stroke-linejoin:miter;stroke-width:0.8;"/>
   </g>
   <g id="patch_40">
    <path clip-path="url(#p380bc0cc37)" d="M 372.236333 276.033396 
L 372.787919 276.033396 
L 372.787919 271.166272 
L 372.236333 271.166272 
z
" style="fill:#471365;opacity:0.4;stroke:#ffffff;stroke-linejoin:miter;stroke-width:0.8;"/>
   </g>
   <g id="patch_41">
    <path clip-path="url(#p380bc0cc37)" d="M 372.236333 271.166272 
L 372.236333 271.166272 
L 372.236333 266.299148 
L 372.236333 266.299148 
z
" style="fill:#471365;opacity:0.4;stroke:#ffffff;stroke-linejoin:miter;stroke-width:0.8;"/>
   </g>
   <g id="patch_42">
    <path clip-path="url(#p380bc0cc37)" d="M 372.236333 266.299148 
L 372.236333 266.299148 
L 372.236333 261.432024 
L 372.236333 261.432024 
z
" style="fill:#471365;opacity:0.4;stroke:#ffffff;stroke-linejoin:miter;stroke-width:0.8;"/>
   </g>
   <g id="patch_43">
    <path clip-path="url(#p380bc0cc37)" d="M 372.236333 261.432024 
L 372.787919 261.432024 
L 372.787919 256.5649 
L 372.236333 256.5649 
z
" style="fill:#471365;opacity:0.4;stroke:#ffffff;stroke-linejoin:miter;stroke-width:0.8;"/>
   </g>
   <g id="patch_44">
    <path clip-path="url(#p380bc0cc37)" d="M 372.236333 256.5649 
L 372.236333 256.5649 
L 372.236333 251.697776 
L 372.236333 251.697776 
z
" style="fill:#471365;opacity:0.4;stroke:#ffffff;stroke-linejoin:miter;stroke-width:0.8;"/>
   </g>
   <g id="patch_45">
    <path clip-path="url(#p380bc0cc37)" d="M 372.236333 251.697776 
L 372.236333 251.697776 
L 372.236333 246.830652 
L 372.236333 246.830652 
z
" style="fill:#471365;opacity:0.4;stroke:#ffffff;stroke-linejoin:miter;stroke-width:0.8;"/>
   </g>
   <g id="patch_46">
    <path clip-path="url(#p380bc0cc37)" d="M 372.236333 246.830652 
L 372.236333 246.830652 
L 372.236333 241.963528 
L 372.236333 241.963528 
z
" style="fill:#471365;opacity:0.4;stroke:#ffffff;stroke-linejoin:miter;stroke-width:0.8;"/>
   </g>
   <g id="patch_47">
    <path clip-path="url(#p380bc0cc37)" d="M 372.236333 241.963528 
L 372.236333 241.963528 
L 372.236333 237.096404 
L 372.236333 237.096404 
z
" style="fill:#471365;opacity:0.4;stroke:#ffffff;stroke-linejoin:miter;stroke-width:0.8;"/>
   </g>
   <g id="patch_48">
    <path clip-path="url(#p380bc0cc37)" d="M 372.236333 237.096404 
L 372.787919 237.096404 
L 372.787919 232.229279 
L 372.236333 232.229279 
z
" style="fill:#471365;opacity:0.4;stroke:#ffffff;stroke-linejoin:miter;stroke-width:0.8;"/>
   </g>
   <g id="patch_49">
    <path clip-path="url(#p380bc0cc37)" d="M 372.236333 232.229279 
L 372.236333 232.229279 
L 372.236333 227.362155 
L 372.236333 227.362155 
z
" style="fill:#471365;opacity:0.4;stroke:#ffffff;stroke-linejoin:miter;stroke-width:0.8;"/>
   </g>
   <g id="patch_50">
    <path clip-path="url(#p380bc0cc37)" d="M 372.236333 227.362155 
L 372.236333 227.362155 
L 372.236333 222.495031 
L 372.236333 222.495031 
z
" style="fill:#471365;opacity:0.4;stroke:#ffffff;stroke-linejoin:miter;stroke-width:0.8;"/>
   </g>
   <g id="patch_51">
    <path clip-path="url(#p380bc0cc37)" d="M 372.236333 222.495031 
L 372.236333 222.495031 
L 372.236333 217.627907 
L 372.236333 217.627907 
z
" style="fill:#471365;opacity:0.4;stroke:#ffffff;stroke-linejoin:miter;stroke-width:0.8;"/>
   </g>
   <g id="patch_52">
    <path clip-path="url(#p380bc0cc37)" d="M 372.236333 217.627907 
L 372.236333 217.627907 
L 372.236333 212.760783 
L 372.236333 212.760783 
z
" style="fill:#471365;opacity:0.4;stroke:#ffffff;stroke-linejoin:miter;stroke-width:0.8;"/>
   </g>
   <g id="patch_53">
    <path clip-path="url(#p380bc0cc37)" d="M 372.236333 212.760783 
L 372.236333 212.760783 
L 372.236333 207.893659 
L 372.236333 207.893659 
z
" style="fill:#471365;opacity:0.4;stroke:#ffffff;stroke-linejoin:miter;stroke-width:0.8;"/>
   </g>
   <g id="patch_54">
    <path clip-path="url(#p380bc0cc37)" d="M 372.236333 207.893659 
L 372.236333 207.893659 
L 372.236333 203.026535 
L 372.236333 203.026535 
z
" style="fill:#471365;opacity:0.4;stroke:#ffffff;stroke-linejoin:miter;stroke-width:0.8;"/>
   </g>
   <g id="patch_55">
    <path clip-path="url(#p380bc0cc37)" d="M 372.236333 203.026535 
L 372.236333 203.026535 
L 372.236333 198.159411 
L 372.236333 198.159411 
z
" style="fill:#471365;opacity:0.4;stroke:#ffffff;stroke-linejoin:miter;stroke-width:0.8;"/>
   </g>
   <g id="patch_56">
    <path clip-path="url(#p380bc0cc37)" d="M 372.236333 198.159411 
L 372.236333 198.159411 
L 372.236333 193.292287 
L 372.236333 193.292287 
z
" style="fill:#471365;opacity:0.4;stroke:#ffffff;stroke-linejoin:miter;stroke-width:0.8;"/>
   </g>
   <g id="patch_57">
    <path clip-path="url(#p380bc0cc37)" d="M 372.236333 193.292287 
L 372.236333 193.292287 
L 372.236333 188.425163 
L 372.236333 188.425163 
z
" style="fill:#471365;opacity:0.4;stroke:#ffffff;stroke-linejoin:miter;stroke-width:0.8;"/>
   </g>
   <g id="patch_58">
    <path clip-path="url(#p380bc0cc37)" d="M 372.236333 188.425163 
L 372.236333 188.425163 
L 372.236333 183.558039 
L 372.236333 183.558039 
z
" style="fill:#471365;opacity:0.4;stroke:#ffffff;stroke-linejoin:miter;stroke-width:0.8;"/>
   </g>
   <g id="patch_59">
    <path clip-path="url(#p380bc0cc37)" d="M 372.236333 183.558039 
L 372.236333 183.558039 
L 372.236333 178.690915 
L 372.236333 178.690915 
z
" style="fill:#471365;opacity:0.4;stroke:#ffffff;stroke-linejoin:miter;stroke-width:0.8;"/>
   </g>
   <g id="patch_60">
    <path clip-path="url(#p380bc0cc37)" d="M 372.236333 178.690915 
L 372.236333 178.690915 
L 372.236333 173.823791 
L 372.236333 173.823791 
z
" style="fill:#471365;opacity:0.4;stroke:#ffffff;stroke-linejoin:miter;stroke-width:0.8;"/>
   </g>
   <g id="patch_61">
    <path clip-path="url(#p380bc0cc37)" d="M 372.236333 173.823791 
L 372.236333 173.823791 
L 372.236333 168.956667 
L 372.236333 168.956667 
z
" style="fill:#471365;opacity:0.4;stroke:#ffffff;stroke-linejoin:miter;stroke-width:0.8;"/>
   </g>
   <g id="patch_62">
    <path clip-path="url(#p380bc0cc37)" d="M 372.236333 168.956667 
L 372.236333 168.956667 
L 372.236333 164.089543 
L 372.236333 164.089543 
z
" style="fill:#471365;opacity:0.4;stroke:#ffffff;stroke-linejoin:miter;stroke-width:0.8;"/>
   </g>
   <g id="patch_63">
    <path clip-path="url(#p380bc0cc37)" d="M 372.236333 164.089543 
L 372.236333 164.089543 
L 372.236333 159.222419 
L 372.236333 159.222419 
z
" style="fill:#471365;opacity:0.4;stroke:#ffffff;stroke-linejoin:miter;stroke-width:0.8;"/>
   </g>
   <g id="patch_64">
    <path clip-path="url(#p380bc0cc37)" d="M 372.236333 159.222419 
L 372.236333 159.222419 
L 372.236333 154.355295 
L 372.236333 154.355295 
z
" style="fill:#471365;opacity:0.4;stroke:#ffffff;stroke-linejoin:miter;stroke-width:0.8;"/>
   </g>
   <g id="patch_65">
    <path clip-path="url(#p380bc0cc37)" d="M 372.236333 154.355295 
L 372.236333 154.355295 
L 372.236333 149.488171 
L 372.236333 149.488171 
z
" style="fill:#471365;opacity:0.4;stroke:#ffffff;stroke-linejoin:miter;stroke-width:0.8;"/>
   </g>
   <g id="patch_66">
    <path clip-path="url(#p380bc0cc37)" d="M 372.236333 149.488171 
L 372.236333 149.488171 
L 372.236333 144.621047 
L 372.236333 144.621047 
z
" style="fill:#471365;opacity:0.4;stroke:#ffffff;stroke-linejoin:miter;stroke-width:0.8;"/>
   </g>
   <g id="patch_67">
    <path clip-path="url(#p380bc0cc37)" d="M 372.236333 144.621047 
L 372.236333 144.621047 
L 372.236333 139.753923 
L 372.236333 139.753923 
z
" style="fill:#471365;opacity:0.4;stroke:#ffffff;stroke-linejoin:miter;stroke-width:0.8;"/>
   </g>
   <g id="patch_68">
    <path clip-path="url(#p380bc0cc37)" d="M 372.236333 139.753923 
L 372.236333 139.753923 
L 372.236333 134.886799 
L 372.236333 134.886799 
z
" style="fill:#471365;opacity:0.4;stroke:#ffffff;stroke-linejoin:miter;stroke-width:0.8;"/>
   </g>
   <g id="patch_69">
    <path clip-path="url(#p380bc0cc37)" d="M 372.236333 134.886799 
L 372.787919 134.886799 
L 372.787919 130.019675 
L 372.236333 130.019675 
z
" style="fill:#471365;opacity:0.4;stroke:#ffffff;stroke-linejoin:miter;stroke-width:0.8;"/>
   </g>
   <g id="line2d_31">
    <path clip-path="url(#p380bc0cc37)" d="M 372.246332 397.054072 
L 372.272308 394.117582 
L 372.351537 391.181091 
L 372.564815 388.2446 
L 373.070496 385.308109 
L 374.123472 382.371618 
L 376.040909 379.435127 
L 379.074461 376.498636 
L 383.19981 373.562146 
L 387.928962 370.625655 
L 392.312662 367.689164 
L 395.231721 364.752673 
L 395.876311 361.816182 
L 394.133766 358.879691 
L 390.628995 355.943201 
L 386.396441 353.00671 
L 382.411286 350.070219 
L 379.262933 347.133728 
L 377.100207 344.197237 
L 375.777885 341.260746 
L 375.046102 338.324255 
L 374.67125 335.387765 
L 374.474011 332.451274 
L 374.328609 329.514783 
L 374.161695 326.578292 
L 373.953502 323.641801 
L 373.725238 320.70531 
L 373.509971 317.76882 
L 373.325455 314.832329 
L 373.167949 311.895838 
L 373.026175 308.959347 
L 372.897575 306.022856 
L 372.791245 303.086365 
L 372.717515 300.149874 
L 372.676281 297.213384 
L 372.654984 294.276893 
L 372.636719 291.340402 
L 372.610389 288.403911 
L 372.574995 285.46742 
L 372.536484 282.530929 
L 372.501357 279.594439 
L 372.472332 276.657948 
L 372.448609 273.721457 
L 372.429106 270.784966 
L 372.414603 267.848475 
L 372.406241 264.911984 
L 372.402174 261.975494 
L 372.396708 259.039003 
L 372.383813 256.102512 
L 372.362159 253.166021 
L 372.337103 250.22953 
L 372.317912 247.293039 
L 372.312432 244.356548 
L 372.322616 241.420058 
L 372.343096 238.483567 
L 372.363336 235.547076 
L 372.372553 232.610585 
L 372.365026 229.674094 
L 372.342619 226.737603 
L 372.312892 223.801113 
L 372.284394 220.864622 
L 372.262622 217.928131 
L 372.248862 214.99164 
L 372.241535 212.055149 
L 372.238215 209.118658 
L 372.236926 206.182167 
L 372.236496 203.245677 
L 372.236372 200.309186 
L 372.236341 197.372695 
L 372.236335 194.436204 
L 372.236334 191.499713 
L 372.236333 188.563222 
L 372.236333 185.626732 
L 372.236333 182.690241 
L 372.236333 179.75375 
L 372.236333 176.817259 
L 372.236333 173.880768 
L 372.236334 170.944277 
L 372.236335 168.007787 
L 372.236341 165.071296 
L 372.236369 162.134805 
L 372.236483 159.198314 
L 372.236885 156.261823 
L 372.238097 153.325332 
L 372.241249 150.388841 
L 372.248269 147.452351 
L 372.261584 144.51586 
L 372.282874 141.579369 
L 372.311072 138.642878 
L 372.3409 135.706387 
L 372.363797 132.769896 
L 372.371702 129.833406 
L 372.361587 126.896915 
L 372.337307 123.960424 
L 372.307252 121.023933 
L 372.27973 118.087442 
L 372.25947 115.150951 
L 372.24708 112.21446 
L 372.240682 109.27797 
L 372.237867 106.341479 
" style="fill:none;stroke:#471365;stroke-linecap:round;stroke-width:1.2;"/>
   </g>
   <g id="patch_70">
    <path d="M 372.236333 390.332 
L 372.236333 81.023333 
" style="fill:none;stroke:#262626;stroke-linecap:square;stroke-linejoin:miter;"/>
   </g>
  </g>
 </g>
 <defs>
  <clipPath id="p1ee01d02cc">
   <rect height="309.308667" width="302.850333" x="49.418" y="81.023333"/>
  </clipPath>
  <clipPath id="p7a86f12d3d">
   <rect height="45.887333" width="302.850333" x="49.418" y="15.168"/>
  </clipPath>
  <clipPath id="p380bc0cc37">
   <rect height="309.308667" width="44.595667" x="372.236333" y="81.023333"/>
  </clipPath>
 </defs>
</svg>
