<?xml version="1.0" encoding="utf-8" standalone="no"?>
<!DOCTYPE svg PUBLIC "-//W3C//DTD SVG 1.1//EN"
  "http://www.w3.org/Graphics/SVG/1.1/DTD/svg11.dtd">
<!-- Created with matplotlib (http://matplotlib.org/) -->
<svg height="432pt" version="1.1" viewBox="0 0 432 432" width="432pt" xmlns="http://www.w3.org/2000/svg" xmlns:xlink="http://www.w3.org/1999/xlink">
 <defs>
  <style type="text/css">
*{stroke-linecap:butt;stroke-linejoin:round;}
  </style>
 </defs>
 <g id="figure_1">
  <g id="patch_1">
   <path d="M 0 432 
L 432 432 
L 432 0 
L 0 0 
z
" style="fill:#ffffff;"/>
  </g>
  <g id="axes_1">
   <g id="patch_2">
    <path d="M 49.85 389.9 
L 351.908333 389.9 
L 351.908333 81.383333 
L 49.85 81.383333 
z
" style="fill:#ffffff;"/>
   </g>
   <g id="matplotlib.axis_1">
    <g id="xtick_1">
     <g id="line2d_1">
      <defs>
       <path d="M 0 0 
L 0 4.8 
" id="mb8eb1b306d" style="stroke:#262626;"/>
      </defs>
      <g>
       <use style="fill:#262626;stroke:#262626;" x="58.863577" xlink:href="#mb8eb1b306d" y="389.9"/>
      </g>
     </g>
     <g id="text_1">
      <!-- 0 -->
      <defs>
       <path d="M 31.78125 66.40625 
Q 24.171875 66.40625 20.328125 58.90625 
Q 16.5 51.421875 16.5 36.375 
Q 16.5 21.390625 20.328125 13.890625 
Q 24.171875 6.390625 31.78125 6.390625 
Q 39.453125 6.390625 43.28125 13.890625 
Q 47.125 21.390625 47.125 36.375 
Q 47.125 51.421875 43.28125 58.90625 
Q 39.453125 66.40625 31.78125 66.40625 
z
M 31.78125 74.21875 
Q 44.046875 74.21875 50.515625 64.515625 
Q 56.984375 54.828125 56.984375 36.375 
Q 56.984375 17.96875 50.515625 8.265625 
Q 44.046875 -1.421875 31.78125 -1.421875 
Q 19.53125 -1.421875 13.0625 8.265625 
Q 6.59375 17.96875 6.59375 36.375 
Q 6.59375 54.828125 13.0625 64.515625 
Q 19.53125 74.21875 31.78125 74.21875 
z
" id="DejaVuSans-30"/>
      </defs>
      <g style="fill:#262626;" transform="translate(56.064077 404.886625)scale(0.088 -0.088)">
       <use xlink:href="#DejaVuSans-30"/>
      </g>
     </g>
    </g>
    <g id="xtick_2">
     <g id="line2d_2">
      <g>
       <use style="fill:#262626;stroke:#262626;" x="108.461035" xlink:href="#mb8eb1b306d" y="389.9"/>
      </g>
     </g>
     <g id="text_2">
      <!-- 2 -->
      <defs>
       <path d="M 19.1875 8.296875 
L 53.609375 8.296875 
L 53.609375 0 
L 7.328125 0 
L 7.328125 8.296875 
Q 12.9375 14.109375 22.625 23.890625 
Q 32.328125 33.6875 34.8125 36.53125 
Q 39.546875 41.84375 41.421875 45.53125 
Q 43.3125 49.21875 43.3125 52.78125 
Q 43.3125 58.59375 39.234375 62.25 
Q 35.15625 65.921875 28.609375 65.921875 
Q 23.96875 65.921875 18.8125 64.3125 
Q 13.671875 62.703125 7.8125 59.421875 
L 7.8125 69.390625 
Q 13.765625 71.78125 18.9375 73 
Q 24.125 74.21875 28.421875 74.21875 
Q 39.75 74.21875 46.484375 68.546875 
Q 53.21875 62.890625 53.21875 53.421875 
Q 53.21875 48.921875 51.53125 44.890625 
Q 49.859375 40.875 45.40625 35.40625 
Q 44.1875 33.984375 37.640625 27.21875 
Q 31.109375 20.453125 19.1875 8.296875 
z
" id="DejaVuSans-32"/>
      </defs>
      <g style="fill:#262626;" transform="translate(105.661535 404.886625)scale(0.088 -0.088)">
       <use xlink:href="#DejaVuSans-32"/>
      </g>
     </g>
    </g>
    <g id="xtick_3">
     <g id="line2d_3">
      <g>
       <use style="fill:#262626;stroke:#262626;" x="158.058493" xlink:href="#mb8eb1b306d" y="389.9"/>
      </g>
     </g>
     <g id="text_3">
      <!-- 4 -->
      <defs>
       <path d="M 37.796875 64.3125 
L 12.890625 25.390625 
L 37.796875 25.390625 
z
M 35.203125 72.90625 
L 47.609375 72.90625 
L 47.609375 25.390625 
L 58.015625 25.390625 
L 58.015625 17.1875 
L 47.609375 17.1875 
L 47.609375 0 
L 37.796875 0 
L 37.796875 17.1875 
L 4.890625 17.1875 
L 4.890625 26.703125 
z
" id="DejaVuSans-34"/>
      </defs>
      <g style="fill:#262626;" transform="translate(155.258993 404.886625)scale(0.088 -0.088)">
       <use xlink:href="#DejaVuSans-34"/>
      </g>
     </g>
    </g>
    <g id="xtick_4">
     <g id="line2d_4">
      <g>
       <use style="fill:#262626;stroke:#262626;" x="207.655951" xlink:href="#mb8eb1b306d" y="389.9"/>
      </g>
     </g>
     <g id="text_4">
      <!-- 6 -->
      <defs>
       <path d="M 33.015625 40.375 
Q 26.375 40.375 22.484375 35.828125 
Q 18.609375 31.296875 18.609375 23.390625 
Q 18.609375 15.53125 22.484375 10.953125 
Q 26.375 6.390625 33.015625 6.390625 
Q 39.65625 6.390625 43.53125 10.953125 
Q 47.40625 15.53125 47.40625 23.390625 
Q 47.40625 31.296875 43.53125 35.828125 
Q 39.65625 40.375 33.015625 40.375 
z
M 52.59375 71.296875 
L 52.59375 62.3125 
Q 48.875 64.0625 45.09375 64.984375 
Q 41.3125 65.921875 37.59375 65.921875 
Q 27.828125 65.921875 22.671875 59.328125 
Q 17.53125 52.734375 16.796875 39.40625 
Q 19.671875 43.65625 24.015625 45.921875 
Q 28.375 48.1875 33.59375 48.1875 
Q 44.578125 48.1875 50.953125 41.515625 
Q 57.328125 34.859375 57.328125 23.390625 
Q 57.328125 12.15625 50.6875 5.359375 
Q 44.046875 -1.421875 33.015625 -1.421875 
Q 20.359375 -1.421875 13.671875 8.265625 
Q 6.984375 17.96875 6.984375 36.375 
Q 6.984375 53.65625 15.1875 63.9375 
Q 23.390625 74.21875 37.203125 74.21875 
Q 40.921875 74.21875 44.703125 73.484375 
Q 48.484375 72.75 52.59375 71.296875 
z
" id="DejaVuSans-36"/>
      </defs>
      <g style="fill:#262626;" transform="translate(204.856451 404.886625)scale(0.088 -0.088)">
       <use xlink:href="#DejaVuSans-36"/>
      </g>
     </g>
    </g>
    <g id="xtick_5">
     <g id="line2d_5">
      <g>
       <use style="fill:#262626;stroke:#262626;" x="257.253408" xlink:href="#mb8eb1b306d" y="389.9"/>
      </g>
     </g>
     <g id="text_5">
      <!-- 8 -->
      <defs>
       <path d="M 31.78125 34.625 
Q 24.75 34.625 20.71875 30.859375 
Q 16.703125 27.09375 16.703125 20.515625 
Q 16.703125 13.921875 20.71875 10.15625 
Q 24.75 6.390625 31.78125 6.390625 
Q 38.8125 6.390625 42.859375 10.171875 
Q 46.921875 13.96875 46.921875 20.515625 
Q 46.921875 27.09375 42.890625 30.859375 
Q 38.875 34.625 31.78125 34.625 
z
M 21.921875 38.8125 
Q 15.578125 40.375 12.03125 44.71875 
Q 8.5 49.078125 8.5 55.328125 
Q 8.5 64.0625 14.71875 69.140625 
Q 20.953125 74.21875 31.78125 74.21875 
Q 42.671875 74.21875 48.875 69.140625 
Q 55.078125 64.0625 55.078125 55.328125 
Q 55.078125 49.078125 51.53125 44.71875 
Q 48 40.375 41.703125 38.8125 
Q 48.828125 37.15625 52.796875 32.3125 
Q 56.78125 27.484375 56.78125 20.515625 
Q 56.78125 9.90625 50.3125 4.234375 
Q 43.84375 -1.421875 31.78125 -1.421875 
Q 19.734375 -1.421875 13.25 4.234375 
Q 6.78125 9.90625 6.78125 20.515625 
Q 6.78125 27.484375 10.78125 32.3125 
Q 14.796875 37.15625 21.921875 38.8125 
z
M 18.3125 54.390625 
Q 18.3125 48.734375 21.84375 45.5625 
Q 25.390625 42.390625 31.78125 42.390625 
Q 38.140625 42.390625 41.71875 45.5625 
Q 45.3125 48.734375 45.3125 54.390625 
Q 45.3125 60.0625 41.71875 63.234375 
Q 38.140625 66.40625 31.78125 66.40625 
Q 25.390625 66.40625 21.84375 63.234375 
Q 18.3125 60.0625 18.3125 54.390625 
z
" id="DejaVuSans-38"/>
      </defs>
      <g style="fill:#262626;" transform="translate(254.453908 404.886625)scale(0.088 -0.088)">
       <use xlink:href="#DejaVuSans-38"/>
      </g>
     </g>
    </g>
    <g id="xtick_6">
     <g id="line2d_6">
      <g>
       <use style="fill:#262626;stroke:#262626;" x="306.850866" xlink:href="#mb8eb1b306d" y="389.9"/>
      </g>
     </g>
     <g id="text_6">
      <!-- 10 -->
      <defs>
       <path d="M 12.40625 8.296875 
L 28.515625 8.296875 
L 28.515625 63.921875 
L 10.984375 60.40625 
L 10.984375 69.390625 
L 28.421875 72.90625 
L 38.28125 72.90625 
L 38.28125 8.296875 
L 54.390625 8.296875 
L 54.390625 0 
L 12.40625 0 
z
" id="DejaVuSans-31"/>
      </defs>
      <g style="fill:#262626;" transform="translate(301.251866 404.886625)scale(0.088 -0.088)">
       <use xlink:href="#DejaVuSans-31"/>
       <use x="63.623047" xlink:href="#DejaVuSans-30"/>
      </g>
     </g>
    </g>
    <g id="text_7">
     <!-- g(k-1) -->
     <defs>
      <path d="M 45.40625 27.984375 
Q 45.40625 37.75 41.375 43.109375 
Q 37.359375 48.484375 30.078125 48.484375 
Q 22.859375 48.484375 18.828125 43.109375 
Q 14.796875 37.75 14.796875 27.984375 
Q 14.796875 18.265625 18.828125 12.890625 
Q 22.859375 7.515625 30.078125 7.515625 
Q 37.359375 7.515625 41.375 12.890625 
Q 45.40625 18.265625 45.40625 27.984375 
z
M 54.390625 6.78125 
Q 54.390625 -7.171875 48.1875 -13.984375 
Q 42 -20.796875 29.203125 -20.796875 
Q 24.46875 -20.796875 20.265625 -20.09375 
Q 16.0625 -19.390625 12.109375 -17.921875 
L 12.109375 -9.1875 
Q 16.0625 -11.328125 19.921875 -12.34375 
Q 23.78125 -13.375 27.78125 -13.375 
Q 36.625 -13.375 41.015625 -8.765625 
Q 45.40625 -4.15625 45.40625 5.171875 
L 45.40625 9.625 
Q 42.625 4.78125 38.28125 2.390625 
Q 33.9375 0 27.875 0 
Q 17.828125 0 11.671875 7.65625 
Q 5.515625 15.328125 5.515625 27.984375 
Q 5.515625 40.671875 11.671875 48.328125 
Q 17.828125 56 27.875 56 
Q 33.9375 56 38.28125 53.609375 
Q 42.625 51.21875 45.40625 46.390625 
L 45.40625 54.6875 
L 54.390625 54.6875 
z
" id="DejaVuSans-67"/>
      <path d="M 31 75.875 
Q 24.46875 64.65625 21.28125 53.65625 
Q 18.109375 42.671875 18.109375 31.390625 
Q 18.109375 20.125 21.3125 9.0625 
Q 24.515625 -2 31 -13.1875 
L 23.1875 -13.1875 
Q 15.875 -1.703125 12.234375 9.375 
Q 8.59375 20.453125 8.59375 31.390625 
Q 8.59375 42.28125 12.203125 53.3125 
Q 15.828125 64.359375 23.1875 75.875 
z
" id="DejaVuSans-28"/>
      <path d="M 9.078125 75.984375 
L 18.109375 75.984375 
L 18.109375 31.109375 
L 44.921875 54.6875 
L 56.390625 54.6875 
L 27.390625 29.109375 
L 57.625 0 
L 45.90625 0 
L 18.109375 26.703125 
L 18.109375 0 
L 9.078125 0 
z
" id="DejaVuSans-6b"/>
      <path d="M 4.890625 31.390625 
L 31.203125 31.390625 
L 31.203125 23.390625 
L 4.890625 23.390625 
z
" id="DejaVuSans-2d"/>
      <path d="M 8.015625 75.875 
L 15.828125 75.875 
Q 23.140625 64.359375 26.78125 53.3125 
Q 30.421875 42.28125 30.421875 31.390625 
Q 30.421875 20.453125 26.78125 9.375 
Q 23.140625 -1.703125 15.828125 -13.1875 
L 8.015625 -13.1875 
Q 14.5 -2 17.703125 9.0625 
Q 20.90625 20.125 20.90625 31.390625 
Q 20.90625 42.671875 17.703125 53.65625 
Q 14.5 64.65625 8.015625 75.875 
z
" id="DejaVuSans-29"/>
     </defs>
     <g style="fill:#262626;" transform="translate(186.521167 418.01125)scale(0.096 -0.096)">
      <use xlink:href="#DejaVuSans-67"/>
      <use x="63.476562" xlink:href="#DejaVuSans-28"/>
      <use x="102.490234" xlink:href="#DejaVuSans-6b"/>
      <use x="160.400391" xlink:href="#DejaVuSans-2d"/>
      <use x="196.484375" xlink:href="#DejaVuSans-31"/>
      <use x="260.107422" xlink:href="#DejaVuSans-29"/>
     </g>
    </g>
   </g>
   <g id="matplotlib.axis_2">
    <g id="ytick_1">
     <g id="line2d_7">
      <defs>
       <path d="M 0 0 
L -4.8 0 
" id="m905e0c9b3e" style="stroke:#262626;"/>
      </defs>
      <g>
       <use style="fill:#262626;stroke:#262626;" x="49.85" xlink:href="#m905e0c9b3e" y="389.9"/>
      </g>
     </g>
     <g id="text_8">
      <!-- 0 -->
      <g style="fill:#262626;" transform="translate(35.951 393.243313)scale(0.088 -0.088)">
       <use xlink:href="#DejaVuSans-30"/>
      </g>
     </g>
    </g>
    <g id="ytick_2">
     <g id="line2d_8">
      <g>
       <use style="fill:#262626;stroke:#262626;" x="49.85" xlink:href="#m905e0c9b3e" y="333.806061"/>
      </g>
     </g>
     <g id="text_9">
      <!-- 20 -->
      <g style="fill:#262626;" transform="translate(30.352 337.149373)scale(0.088 -0.088)">
       <use xlink:href="#DejaVuSans-32"/>
       <use x="63.623047" xlink:href="#DejaVuSans-30"/>
      </g>
     </g>
    </g>
    <g id="ytick_3">
     <g id="line2d_9">
      <g>
       <use style="fill:#262626;stroke:#262626;" x="49.85" xlink:href="#m905e0c9b3e" y="277.712121"/>
      </g>
     </g>
     <g id="text_10">
      <!-- 40 -->
      <g style="fill:#262626;" transform="translate(30.352 281.055434)scale(0.088 -0.088)">
       <use xlink:href="#DejaVuSans-34"/>
       <use x="63.623047" xlink:href="#DejaVuSans-30"/>
      </g>
     </g>
    </g>
    <g id="ytick_4">
     <g id="line2d_10">
      <g>
       <use style="fill:#262626;stroke:#262626;" x="49.85" xlink:href="#m905e0c9b3e" y="221.618182"/>
      </g>
     </g>
     <g id="text_11">
      <!-- 60 -->
      <g style="fill:#262626;" transform="translate(30.352 224.961494)scale(0.088 -0.088)">
       <use xlink:href="#DejaVuSans-36"/>
       <use x="63.623047" xlink:href="#DejaVuSans-30"/>
      </g>
     </g>
    </g>
    <g id="ytick_5">
     <g id="line2d_11">
      <g>
       <use style="fill:#262626;stroke:#262626;" x="49.85" xlink:href="#m905e0c9b3e" y="165.524242"/>
      </g>
     </g>
     <g id="text_12">
      <!-- 80 -->
      <g style="fill:#262626;" transform="translate(30.352 168.867555)scale(0.088 -0.088)">
       <use xlink:href="#DejaVuSans-38"/>
       <use x="63.623047" xlink:href="#DejaVuSans-30"/>
      </g>
     </g>
    </g>
    <g id="ytick_6">
     <g id="line2d_12">
      <g>
       <use style="fill:#262626;stroke:#262626;" x="49.85" xlink:href="#m905e0c9b3e" y="109.430303"/>
      </g>
     </g>
     <g id="text_13">
      <!-- 100 -->
      <g style="fill:#262626;" transform="translate(24.753 112.773616)scale(0.088 -0.088)">
       <use xlink:href="#DejaVuSans-31"/>
       <use x="63.623047" xlink:href="#DejaVuSans-30"/>
       <use x="127.246094" xlink:href="#DejaVuSans-30"/>
      </g>
     </g>
    </g>
    <g id="text_14">
     <!-- Time to cancer -->
     <defs>
      <path d="M -0.296875 72.90625 
L 61.375 72.90625 
L 61.375 64.59375 
L 35.5 64.59375 
L 35.5 0 
L 25.59375 0 
L 25.59375 64.59375 
L -0.296875 64.59375 
z
" id="DejaVuSans-54"/>
      <path d="M 9.421875 54.6875 
L 18.40625 54.6875 
L 18.40625 0 
L 9.421875 0 
z
M 9.421875 75.984375 
L 18.40625 75.984375 
L 18.40625 64.59375 
L 9.421875 64.59375 
z
" id="DejaVuSans-69"/>
      <path d="M 52 44.1875 
Q 55.375 50.25 60.0625 53.125 
Q 64.75 56 71.09375 56 
Q 79.640625 56 84.28125 50.015625 
Q 88.921875 44.046875 88.921875 33.015625 
L 88.921875 0 
L 79.890625 0 
L 79.890625 32.71875 
Q 79.890625 40.578125 77.09375 44.375 
Q 74.3125 48.1875 68.609375 48.1875 
Q 61.625 48.1875 57.5625 43.546875 
Q 53.515625 38.921875 53.515625 30.90625 
L 53.515625 0 
L 44.484375 0 
L 44.484375 32.71875 
Q 44.484375 40.625 41.703125 44.40625 
Q 38.921875 48.1875 33.109375 48.1875 
Q 26.21875 48.1875 22.15625 43.53125 
Q 18.109375 38.875 18.109375 30.90625 
L 18.109375 0 
L 9.078125 0 
L 9.078125 54.6875 
L 18.109375 54.6875 
L 18.109375 46.1875 
Q 21.1875 51.21875 25.484375 53.609375 
Q 29.78125 56 35.6875 56 
Q 41.65625 56 45.828125 52.96875 
Q 50 49.953125 52 44.1875 
z
" id="DejaVuSans-6d"/>
      <path d="M 56.203125 29.59375 
L 56.203125 25.203125 
L 14.890625 25.203125 
Q 15.484375 15.921875 20.484375 11.0625 
Q 25.484375 6.203125 34.421875 6.203125 
Q 39.59375 6.203125 44.453125 7.46875 
Q 49.3125 8.734375 54.109375 11.28125 
L 54.109375 2.78125 
Q 49.265625 0.734375 44.1875 -0.34375 
Q 39.109375 -1.421875 33.890625 -1.421875 
Q 20.796875 -1.421875 13.15625 6.1875 
Q 5.515625 13.8125 5.515625 26.8125 
Q 5.515625 40.234375 12.765625 48.109375 
Q 20.015625 56 32.328125 56 
Q 43.359375 56 49.78125 48.890625 
Q 56.203125 41.796875 56.203125 29.59375 
z
M 47.21875 32.234375 
Q 47.125 39.59375 43.09375 43.984375 
Q 39.0625 48.390625 32.421875 48.390625 
Q 24.90625 48.390625 20.390625 44.140625 
Q 15.875 39.890625 15.1875 32.171875 
z
" id="DejaVuSans-65"/>
      <path id="DejaVuSans-20"/>
      <path d="M 18.3125 70.21875 
L 18.3125 54.6875 
L 36.8125 54.6875 
L 36.8125 47.703125 
L 18.3125 47.703125 
L 18.3125 18.015625 
Q 18.3125 11.328125 20.140625 9.421875 
Q 21.96875 7.515625 27.59375 7.515625 
L 36.8125 7.515625 
L 36.8125 0 
L 27.59375 0 
Q 17.1875 0 13.234375 3.875 
Q 9.28125 7.765625 9.28125 18.015625 
L 9.28125 47.703125 
L 2.6875 47.703125 
L 2.6875 54.6875 
L 9.28125 54.6875 
L 9.28125 70.21875 
z
" id="DejaVuSans-74"/>
      <path d="M 30.609375 48.390625 
Q 23.390625 48.390625 19.1875 42.75 
Q 14.984375 37.109375 14.984375 27.296875 
Q 14.984375 17.484375 19.15625 11.84375 
Q 23.34375 6.203125 30.609375 6.203125 
Q 37.796875 6.203125 41.984375 11.859375 
Q 46.1875 17.53125 46.1875 27.296875 
Q 46.1875 37.015625 41.984375 42.703125 
Q 37.796875 48.390625 30.609375 48.390625 
z
M 30.609375 56 
Q 42.328125 56 49.015625 48.375 
Q 55.71875 40.765625 55.71875 27.296875 
Q 55.71875 13.875 49.015625 6.21875 
Q 42.328125 -1.421875 30.609375 -1.421875 
Q 18.84375 -1.421875 12.171875 6.21875 
Q 5.515625 13.875 5.515625 27.296875 
Q 5.515625 40.765625 12.171875 48.375 
Q 18.84375 56 30.609375 56 
z
" id="DejaVuSans-6f"/>
      <path d="M 48.78125 52.59375 
L 48.78125 44.1875 
Q 44.96875 46.296875 41.140625 47.34375 
Q 37.3125 48.390625 33.40625 48.390625 
Q 24.65625 48.390625 19.8125 42.84375 
Q 14.984375 37.3125 14.984375 27.296875 
Q 14.984375 17.28125 19.8125 11.734375 
Q 24.65625 6.203125 33.40625 6.203125 
Q 37.3125 6.203125 41.140625 7.25 
Q 44.96875 8.296875 48.78125 10.40625 
L 48.78125 2.09375 
Q 45.015625 0.34375 40.984375 -0.53125 
Q 36.96875 -1.421875 32.421875 -1.421875 
Q 20.0625 -1.421875 12.78125 6.34375 
Q 5.515625 14.109375 5.515625 27.296875 
Q 5.515625 40.671875 12.859375 48.328125 
Q 20.21875 56 33.015625 56 
Q 37.15625 56 41.109375 55.140625 
Q 45.0625 54.296875 48.78125 52.59375 
z
" id="DejaVuSans-63"/>
      <path d="M 34.28125 27.484375 
Q 23.390625 27.484375 19.1875 25 
Q 14.984375 22.515625 14.984375 16.5 
Q 14.984375 11.71875 18.140625 8.90625 
Q 21.296875 6.109375 26.703125 6.109375 
Q 34.1875 6.109375 38.703125 11.40625 
Q 43.21875 16.703125 43.21875 25.484375 
L 43.21875 27.484375 
z
M 52.203125 31.203125 
L 52.203125 0 
L 43.21875 0 
L 43.21875 8.296875 
Q 40.140625 3.328125 35.546875 0.953125 
Q 30.953125 -1.421875 24.3125 -1.421875 
Q 15.921875 -1.421875 10.953125 3.296875 
Q 6 8.015625 6 15.921875 
Q 6 25.140625 12.171875 29.828125 
Q 18.359375 34.515625 30.609375 34.515625 
L 43.21875 34.515625 
L 43.21875 35.40625 
Q 43.21875 41.609375 39.140625 45 
Q 35.0625 48.390625 27.6875 48.390625 
Q 23 48.390625 18.546875 47.265625 
Q 14.109375 46.140625 10.015625 43.890625 
L 10.015625 52.203125 
Q 14.9375 54.109375 19.578125 55.046875 
Q 24.21875 56 28.609375 56 
Q 40.484375 56 46.34375 49.84375 
Q 52.203125 43.703125 52.203125 31.203125 
z
" id="DejaVuSans-61"/>
      <path d="M 54.890625 33.015625 
L 54.890625 0 
L 45.90625 0 
L 45.90625 32.71875 
Q 45.90625 40.484375 42.875 44.328125 
Q 39.84375 48.1875 33.796875 48.1875 
Q 26.515625 48.1875 22.3125 43.546875 
Q 18.109375 38.921875 18.109375 30.90625 
L 18.109375 0 
L 9.078125 0 
L 9.078125 54.6875 
L 18.109375 54.6875 
L 18.109375 46.1875 
Q 21.34375 51.125 25.703125 53.5625 
Q 30.078125 56 35.796875 56 
Q 45.21875 56 50.046875 50.171875 
Q 54.890625 44.34375 54.890625 33.015625 
z
" id="DejaVuSans-6e"/>
      <path d="M 41.109375 46.296875 
Q 39.59375 47.171875 37.8125 47.578125 
Q 36.03125 48 33.890625 48 
Q 26.265625 48 22.1875 43.046875 
Q 18.109375 38.09375 18.109375 28.8125 
L 18.109375 0 
L 9.078125 0 
L 9.078125 54.6875 
L 18.109375 54.6875 
L 18.109375 46.1875 
Q 20.953125 51.171875 25.484375 53.578125 
Q 30.03125 56 36.53125 56 
Q 37.453125 56 38.578125 55.875 
Q 39.703125 55.765625 41.0625 55.515625 
z
" id="DejaVuSans-72"/>
     </defs>
     <g style="fill:#262626;" transform="translate(18.7565 271.592167)rotate(-90)scale(0.096 -0.096)">
      <use xlink:href="#DejaVuSans-54"/>
      <use x="61.037109" xlink:href="#DejaVuSans-69"/>
      <use x="88.820312" xlink:href="#DejaVuSans-6d"/>
      <use x="186.232422" xlink:href="#DejaVuSans-65"/>
      <use x="247.755859" xlink:href="#DejaVuSans-20"/>
      <use x="279.542969" xlink:href="#DejaVuSans-74"/>
      <use x="318.751953" xlink:href="#DejaVuSans-6f"/>
      <use x="379.933594" xlink:href="#DejaVuSans-20"/>
      <use x="411.720703" xlink:href="#DejaVuSans-63"/>
      <use x="466.701172" xlink:href="#DejaVuSans-61"/>
      <use x="527.980469" xlink:href="#DejaVuSans-6e"/>
      <use x="591.359375" xlink:href="#DejaVuSans-63"/>
      <use x="646.339844" xlink:href="#DejaVuSans-65"/>
      <use x="707.863281" xlink:href="#DejaVuSans-72"/>
     </g>
    </g>
   </g>
   <g id="PathCollection_1">
    <defs>
     <path d="M 0 2.4 
C 0.636487 2.4 1.246992 2.147121 1.697056 1.697056 
C 2.147121 1.246992 2.4 0.636487 2.4 0 
C 2.4 -0.636487 2.147121 -1.246992 1.697056 -1.697056 
C 1.246992 -2.147121 0.636487 -2.4 0 -2.4 
C -0.636487 -2.4 -1.246992 -2.147121 -1.697056 -1.697056 
C -2.147121 -1.246992 -2.4 -0.636487 -2.4 0 
C -2.4 0.636487 -2.147121 1.246992 -1.697056 1.697056 
C -1.246992 2.147121 -0.636487 2.4 0 2.4 
z
" id="mcad8706992" style="stroke:#471365;stroke-opacity:0.8;"/>
    </defs>
    <g clip-path="url(#pb9e9e70ce1)">
     <use style="fill:#471365;fill-opacity:0.8;stroke:#471365;stroke-opacity:0.8;" x="166.292764" xlink:href="#mcad8706992" y="123.622838"/>
     <use style="fill:#471365;fill-opacity:0.8;stroke:#471365;stroke-opacity:0.8;" x="164.443017" xlink:href="#mcad8706992" y="126.081751"/>
     <use style="fill:#471365;fill-opacity:0.8;stroke:#471365;stroke-opacity:0.8;" x="160.799229" xlink:href="#mcad8706992" y="140.243549"/>
     <use style="fill:#471365;fill-opacity:0.8;stroke:#471365;stroke-opacity:0.8;" x="168.359953" xlink:href="#mcad8706992" y="177.703543"/>
     <use style="fill:#471365;fill-opacity:0.8;stroke:#471365;stroke-opacity:0.8;" x="256.524738" xlink:href="#mcad8706992" y="201.893094"/>
     <use style="fill:#471365;fill-opacity:0.8;stroke:#471365;stroke-opacity:0.8;" x="217.080571" xlink:href="#mcad8706992" y="110.337027"/>
     <use style="fill:#471365;fill-opacity:0.8;stroke:#471365;stroke-opacity:0.8;" x="197.830003" xlink:href="#mcad8706992" y="207.571645"/>
     <use style="fill:#471365;fill-opacity:0.8;stroke:#471365;stroke-opacity:0.8;" x="203.743273" xlink:href="#mcad8706992" y="166.346441"/>
     <use style="fill:#471365;fill-opacity:0.8;stroke:#471365;stroke-opacity:0.8;" x="162.524184" xlink:href="#mcad8706992" y="125.720598"/>
     <use style="fill:#471365;fill-opacity:0.8;stroke:#471365;stroke-opacity:0.8;" x="225.221624" xlink:href="#mcad8706992" y="167.376111"/>
     <use style="fill:#471365;fill-opacity:0.8;stroke:#471365;stroke-opacity:0.8;" x="269.412592" xlink:href="#mcad8706992" y="141.972472"/>
     <use style="fill:#471365;fill-opacity:0.8;stroke:#471365;stroke-opacity:0.8;" x="196.031279" xlink:href="#mcad8706992" y="198.158621"/>
     <use style="fill:#471365;fill-opacity:0.8;stroke:#471365;stroke-opacity:0.8;" x="176.686309" xlink:href="#mcad8706992" y="216.008788"/>
     <use style="fill:#471365;fill-opacity:0.8;stroke:#471365;stroke-opacity:0.8;" x="208.094534" xlink:href="#mcad8706992" y="184.934282"/>
     <use style="fill:#471365;fill-opacity:0.8;stroke:#471365;stroke-opacity:0.8;" x="165.856553" xlink:href="#mcad8706992" y="109.507144"/>
     <use style="fill:#471365;fill-opacity:0.8;stroke:#471365;stroke-opacity:0.8;" x="162.873457" xlink:href="#mcad8706992" y="185.095648"/>
     <use style="fill:#471365;fill-opacity:0.8;stroke:#471365;stroke-opacity:0.8;" x="208.101411" xlink:href="#mcad8706992" y="165.50119"/>
     <use style="fill:#471365;fill-opacity:0.8;stroke:#471365;stroke-opacity:0.8;" x="178.153464" xlink:href="#mcad8706992" y="159.400014"/>
     <use style="fill:#471365;fill-opacity:0.8;stroke:#471365;stroke-opacity:0.8;" x="128.430576" xlink:href="#mcad8706992" y="122.40875"/>
     <use style="fill:#471365;fill-opacity:0.8;stroke:#471365;stroke-opacity:0.8;" x="273.327757" xlink:href="#mcad8706992" y="197.536208"/>
     <use style="fill:#471365;fill-opacity:0.8;stroke:#471365;stroke-opacity:0.8;" x="135.176001" xlink:href="#mcad8706992" y="118.374597"/>
     <use style="fill:#471365;fill-opacity:0.8;stroke:#471365;stroke-opacity:0.8;" x="269.886585" xlink:href="#mcad8706992" y="229.640384"/>
     <use style="fill:#471365;fill-opacity:0.8;stroke:#471365;stroke-opacity:0.8;" x="166.022606" xlink:href="#mcad8706992" y="180.047194"/>
     <use style="fill:#471365;fill-opacity:0.8;stroke:#471365;stroke-opacity:0.8;" x="186.161901" xlink:href="#mcad8706992" y="142.356677"/>
     <use style="fill:#471365;fill-opacity:0.8;stroke:#471365;stroke-opacity:0.8;" x="190.080001" xlink:href="#mcad8706992" y="228.833553"/>
     <use style="fill:#471365;fill-opacity:0.8;stroke:#471365;stroke-opacity:0.8;" x="199.223725" xlink:href="#mcad8706992" y="167.207061"/>
     <use style="fill:#471365;fill-opacity:0.8;stroke:#471365;stroke-opacity:0.8;" x="225.030614" xlink:href="#mcad8706992" y="175.33684"/>
     <use style="fill:#471365;fill-opacity:0.8;stroke:#471365;stroke-opacity:0.8;" x="228.85143" xlink:href="#mcad8706992" y="190.420731"/>
     <use style="fill:#471365;fill-opacity:0.8;stroke:#471365;stroke-opacity:0.8;" x="170.016707" xlink:href="#mcad8706992" y="139.767135"/>
     <use style="fill:#471365;fill-opacity:0.8;stroke:#471365;stroke-opacity:0.8;" x="234.041694" xlink:href="#mcad8706992" y="211.813269"/>
     <use style="fill:#471365;fill-opacity:0.8;stroke:#471365;stroke-opacity:0.8;" x="225.460701" xlink:href="#mcad8706992" y="194.48562"/>
     <use style="fill:#471365;fill-opacity:0.8;stroke:#471365;stroke-opacity:0.8;" x="166.406691" xlink:href="#mcad8706992" y="167.837157"/>
     <use style="fill:#471365;fill-opacity:0.8;stroke:#471365;stroke-opacity:0.8;" x="146.785278" xlink:href="#mcad8706992" y="130.623054"/>
     <use style="fill:#471365;fill-opacity:0.8;stroke:#471365;stroke-opacity:0.8;" x="239.323959" xlink:href="#mcad8706992" y="186.640153"/>
     <use style="fill:#471365;fill-opacity:0.8;stroke:#471365;stroke-opacity:0.8;" x="222.459175" xlink:href="#mcad8706992" y="114.93212"/>
     <use style="fill:#471365;fill-opacity:0.8;stroke:#471365;stroke-opacity:0.8;" x="149.977546" xlink:href="#mcad8706992" y="122.093702"/>
     <use style="fill:#471365;fill-opacity:0.8;stroke:#471365;stroke-opacity:0.8;" x="147.220432" xlink:href="#mcad8706992" y="136.632022"/>
     <use style="fill:#471365;fill-opacity:0.8;stroke:#471365;stroke-opacity:0.8;" x="207.427629" xlink:href="#mcad8706992" y="142.487307"/>
     <use style="fill:#471365;fill-opacity:0.8;stroke:#471365;stroke-opacity:0.8;" x="254.318165" xlink:href="#mcad8706992" y="209.131517"/>
     <use style="fill:#471365;fill-opacity:0.8;stroke:#471365;stroke-opacity:0.8;" x="190.021366" xlink:href="#mcad8706992" y="179.086681"/>
     <use style="fill:#471365;fill-opacity:0.8;stroke:#471365;stroke-opacity:0.8;" x="180.549216" xlink:href="#mcad8706992" y="119.557949"/>
     <use style="fill:#471365;fill-opacity:0.8;stroke:#471365;stroke-opacity:0.8;" x="172.163508" xlink:href="#mcad8706992" y="147.681759"/>
     <use style="fill:#471365;fill-opacity:0.8;stroke:#471365;stroke-opacity:0.8;" x="180.57979" xlink:href="#mcad8706992" y="174.660639"/>
    </g>
   </g>
   <g id="PolyCollection_1">
    <defs>
     <path d="M 63.579924 -358.587786 
L 63.579924 -301.339328 
L 66.353646 -300.60712 
L 69.127368 -299.874913 
L 71.90109 -299.142706 
L 74.674813 -298.425382 
L 77.448535 -297.714933 
L 80.222257 -296.931977 
L 82.995979 -296.131748 
L 85.769701 -295.338878 
L 88.543423 -294.546009 
L 91.317145 -293.75314 
L 94.090867 -292.950051 
L 96.864589 -292.144222 
L 99.638311 -291.34333 
L 102.412033 -290.590938 
L 105.185755 -289.79907 
L 107.959477 -289.007532 
L 110.733199 -288.217591 
L 113.506921 -287.485434 
L 116.280644 -286.755686 
L 119.054366 -286.005105 
L 121.828088 -285.156009 
L 124.60181 -284.336145 
L 127.375532 -283.46821 
L 130.149254 -282.631441 
L 132.922976 -281.753009 
L 135.696698 -280.877003 
L 138.47042 -280.142672 
L 141.244142 -279.510253 
L 144.017864 -278.71735 
L 146.791586 -277.836837 
L 149.565308 -276.904204 
L 152.33903 -276.017496 
L 155.112753 -275.229183 
L 157.886475 -274.143774 
L 160.660197 -273.250552 
L 163.433919 -272.393781 
L 166.207641 -271.479507 
L 168.981363 -270.481232 
L 171.755085 -269.427353 
L 174.528807 -268.219564 
L 177.302529 -267.145631 
L 180.076251 -265.962639 
L 182.849973 -264.72594 
L 185.623695 -263.478788 
L 188.397417 -262.09083 
L 191.171139 -260.849031 
L 193.944861 -259.660151 
L 196.718584 -258.220594 
L 199.492306 -256.85521 
L 202.266028 -255.558108 
L 205.03975 -254.073265 
L 207.813472 -252.687746 
L 210.587194 -251.254197 
L 213.360916 -249.539213 
L 216.134638 -248.013503 
L 218.90836 -246.509247 
L 221.682082 -244.774251 
L 224.455804 -243.071393 
L 227.229526 -241.318299 
L 230.003248 -239.653557 
L 232.77697 -237.967938 
L 235.550693 -236.299559 
L 238.324415 -234.531815 
L 241.098137 -232.841435 
L 243.871859 -230.993768 
L 246.645581 -229.220542 
L 249.419303 -227.322201 
L 252.193025 -225.57305 
L 254.966747 -223.911412 
L 257.740469 -222.143758 
L 260.514191 -220.429922 
L 263.287913 -218.678397 
L 266.061635 -216.840797 
L 268.835357 -215.068791 
L 271.609079 -213.342717 
L 274.382801 -211.515778 
L 277.156524 -209.671567 
L 279.930246 -207.748907 
L 282.703968 -205.888103 
L 285.47769 -204.003231 
L 288.251412 -202.10283 
L 291.025134 -200.23305 
L 293.798856 -198.446885 
L 296.572578 -196.660721 
L 299.3463 -194.847324 
L 302.120022 -192.89809 
L 304.893744 -191.09266 
L 307.667466 -189.212155 
L 310.441188 -187.338054 
L 313.21491 -185.537686 
L 315.988633 -183.774121 
L 318.762355 -181.89566 
L 321.536077 -180.018695 
L 324.309799 -178.100288 
L 327.083521 -176.261636 
L 329.857243 -174.342432 
L 332.630965 -172.507413 
L 335.404687 -170.67913 
L 338.178409 -168.881811 
L 338.178409 -235.815045 
L 338.178409 -235.815045 
L 335.404687 -236.518492 
L 332.630965 -237.070811 
L 329.857243 -237.592611 
L 327.083521 -238.114412 
L 324.309799 -238.849966 
L 321.536077 -239.604396 
L 318.762355 -240.358825 
L 315.988633 -240.912542 
L 313.21491 -241.456299 
L 310.441188 -242.109504 
L 307.667466 -242.912051 
L 304.893744 -243.493923 
L 302.120022 -244.075082 
L 299.3463 -244.652261 
L 296.572578 -245.415265 
L 293.798856 -246.359695 
L 291.025134 -247.304096 
L 288.251412 -248.247426 
L 285.47769 -248.85366 
L 282.703968 -249.442199 
L 279.930246 -250.127764 
L 277.156524 -250.838033 
L 274.382801 -251.468799 
L 271.609079 -252.155098 
L 268.835357 -252.739478 
L 266.061635 -253.362348 
L 263.287913 -254.002842 
L 260.514191 -254.87036 
L 257.740469 -255.797815 
L 254.966747 -256.761444 
L 252.193025 -257.47504 
L 249.419303 -258.258627 
L 246.645581 -259.112645 
L 243.871859 -259.891164 
L 241.098137 -260.739466 
L 238.324415 -261.716541 
L 235.550693 -262.670334 
L 232.77697 -263.623508 
L 230.003248 -264.45957 
L 227.229526 -265.35279 
L 224.455804 -266.195421 
L 221.682082 -267.105967 
L 218.90836 -267.806427 
L 216.134638 -268.871834 
L 213.360916 -269.740634 
L 210.587194 -270.716523 
L 207.813472 -271.611369 
L 205.03975 -272.746057 
L 202.266028 -273.820525 
L 199.492306 -274.946408 
L 196.718584 -276.167959 
L 193.944861 -277.315878 
L 191.171139 -278.647819 
L 188.397417 -280.021312 
L 185.623695 -281.365121 
L 182.849973 -282.58115 
L 180.076251 -284.081363 
L 177.302529 -285.531338 
L 174.528807 -286.937176 
L 171.755085 -288.271562 
L 168.981363 -289.973147 
L 166.207641 -291.343292 
L 163.433919 -292.899147 
L 160.660197 -294.571164 
L 157.886475 -296.350273 
L 155.112753 -298.009547 
L 152.33903 -299.962454 
L 149.565308 -301.667404 
L 146.791586 -303.269761 
L 144.017864 -305.000319 
L 141.244142 -306.821266 
L 138.47042 -308.702369 
L 135.696698 -310.689934 
L 132.922976 -312.621167 
L 130.149254 -314.307134 
L 127.375532 -316.14533 
L 124.60181 -317.827528 
L 121.828088 -319.702144 
L 119.054366 -321.614636 
L 116.280644 -323.479381 
L 113.506921 -325.333593 
L 110.733199 -327.231397 
L 107.959477 -329.161713 
L 105.185755 -331.091293 
L 102.412033 -332.963342 
L 99.638311 -334.831978 
L 96.864589 -336.691703 
L 94.090867 -338.567663 
L 91.317145 -340.436649 
L 88.543423 -342.174781 
L 85.769701 -343.820226 
L 82.995979 -345.700376 
L 80.222257 -347.587396 
L 77.448535 -349.409039 
L 74.674813 -351.184095 
L 71.90109 -352.960442 
L 69.127368 -354.814873 
L 66.353646 -356.701526 
L 63.579924 -358.587786 
z
" id="mf1e91d3d5a" style="stroke:#ffffff;stroke-opacity:0.15;stroke-width:0.8;"/>
    </defs>
    <g clip-path="url(#pb9e9e70ce1)">
     <use style="fill:#471365;fill-opacity:0.15;stroke:#ffffff;stroke-opacity:0.15;stroke-width:0.8;" x="0" xlink:href="#mf1e91d3d5a" y="432"/>
    </g>
   </g>
   <g id="line2d_13">
    <path clip-path="url(#pb9e9e70ce1)" d="M 63.579924 99.655068 
L 66.353646 101.00771 
L 69.127368 102.360351 
L 71.90109 103.712992 
L 74.674813 105.065633 
L 77.448535 106.418275 
L 80.222257 107.770916 
L 82.995979 109.123557 
L 85.769701 110.476199 
L 88.543423 111.82884 
L 91.317145 113.181481 
L 94.090867 114.534123 
L 96.864589 115.886764 
L 99.638311 117.239405 
L 102.412033 118.592047 
L 105.185755 119.944688 
L 107.959477 121.297329 
L 110.733199 122.649971 
L 113.506921 124.002612 
L 116.280644 125.355253 
L 119.054366 126.707895 
L 121.828088 128.060536 
L 124.60181 129.413177 
L 127.375532 130.765819 
L 130.149254 132.11846 
L 132.922976 133.471101 
L 135.696698 134.823743 
L 138.47042 136.176384 
L 141.244142 137.529025 
L 144.017864 138.881667 
L 146.791586 140.234308 
L 149.565308 141.586949 
L 152.33903 142.939591 
L 155.112753 144.292232 
L 157.886475 145.644873 
L 160.660197 146.997515 
L 163.433919 148.350156 
L 166.207641 149.702797 
L 168.981363 151.055439 
L 171.755085 152.40808 
L 174.528807 153.760721 
L 177.302529 155.113363 
L 180.076251 156.466004 
L 182.849973 157.818645 
L 185.623695 159.171287 
L 188.397417 160.523928 
L 191.171139 161.876569 
L 193.944861 163.229211 
L 196.718584 164.581852 
L 199.492306 165.934493 
L 202.266028 167.287134 
L 205.03975 168.639776 
L 207.813472 169.992417 
L 210.587194 171.345058 
L 213.360916 172.6977 
L 216.134638 174.050341 
L 218.90836 175.402982 
L 221.682082 176.755624 
L 224.455804 178.108265 
L 227.229526 179.460906 
L 230.003248 180.813548 
L 232.77697 182.166189 
L 235.550693 183.51883 
L 238.324415 184.871472 
L 241.098137 186.224113 
L 243.871859 187.576754 
L 246.645581 188.929396 
L 249.419303 190.282037 
L 252.193025 191.634678 
L 254.966747 192.98732 
L 257.740469 194.339961 
L 260.514191 195.692602 
L 263.287913 197.045244 
L 266.061635 198.397885 
L 268.835357 199.750526 
L 271.609079 201.103168 
L 274.382801 202.455809 
L 277.156524 203.80845 
L 279.930246 205.161092 
L 282.703968 206.513733 
L 285.47769 207.866374 
L 288.251412 209.219016 
L 291.025134 210.571657 
L 293.798856 211.924298 
L 296.572578 213.27694 
L 299.3463 214.629581 
L 302.120022 215.982222 
L 304.893744 217.334864 
L 307.667466 218.687505 
L 310.441188 220.040146 
L 313.21491 221.392788 
L 315.988633 222.745429 
L 318.762355 224.09807 
L 321.536077 225.450712 
L 324.309799 226.803353 
L 327.083521 228.155994 
L 329.857243 229.508635 
L 332.630965 230.861277 
L 335.404687 232.213918 
L 338.178409 233.566559 
" style="fill:none;stroke:#471365;stroke-linecap:round;stroke-width:1.8;"/>
   </g>
   <g id="patch_3">
    <path d="M 49.85 389.9 
L 49.85 81.383333 
" style="fill:none;stroke:#262626;stroke-linecap:square;stroke-linejoin:miter;"/>
   </g>
   <g id="patch_4">
    <path d="M 49.85 389.9 
L 351.908333 389.9 
" style="fill:none;stroke:#262626;stroke-linecap:square;stroke-linejoin:miter;"/>
   </g>
   <g id="legend_1">
    <g id="patch_5">
     <path d="M 181.970708 101.340083 
L 345.748333 101.340083 
Q 347.508333 101.340083 347.508333 99.580083 
L 347.508333 87.543333 
Q 347.508333 85.783333 345.748333 85.783333 
L 181.970708 85.783333 
Q 180.210708 85.783333 180.210708 87.543333 
L 180.210708 99.580083 
Q 180.210708 101.340083 181.970708 101.340083 
z
" style="fill:#ffffff;opacity:0.8;stroke:#cccccc;stroke-linejoin:miter;stroke-width:0.8;"/>
    </g>
    <g id="line2d_14"/>
    <g id="line2d_15"/>
    <g id="text_15">
     <!-- pearsonr = -0.53; p = 0.00027 -->
     <defs>
      <path d="M 18.109375 8.203125 
L 18.109375 -20.796875 
L 9.078125 -20.796875 
L 9.078125 54.6875 
L 18.109375 54.6875 
L 18.109375 46.390625 
Q 20.953125 51.265625 25.265625 53.625 
Q 29.59375 56 35.59375 56 
Q 45.5625 56 51.78125 48.09375 
Q 58.015625 40.1875 58.015625 27.296875 
Q 58.015625 14.40625 51.78125 6.484375 
Q 45.5625 -1.421875 35.59375 -1.421875 
Q 29.59375 -1.421875 25.265625 0.953125 
Q 20.953125 3.328125 18.109375 8.203125 
z
M 48.6875 27.296875 
Q 48.6875 37.203125 44.609375 42.84375 
Q 40.53125 48.484375 33.40625 48.484375 
Q 26.265625 48.484375 22.1875 42.84375 
Q 18.109375 37.203125 18.109375 27.296875 
Q 18.109375 17.390625 22.1875 11.75 
Q 26.265625 6.109375 33.40625 6.109375 
Q 40.53125 6.109375 44.609375 11.75 
Q 48.6875 17.390625 48.6875 27.296875 
z
" id="DejaVuSans-70"/>
      <path d="M 44.28125 53.078125 
L 44.28125 44.578125 
Q 40.484375 46.53125 36.375 47.5 
Q 32.28125 48.484375 27.875 48.484375 
Q 21.1875 48.484375 17.84375 46.4375 
Q 14.5 44.390625 14.5 40.28125 
Q 14.5 37.15625 16.890625 35.375 
Q 19.28125 33.59375 26.515625 31.984375 
L 29.59375 31.296875 
Q 39.15625 29.25 43.1875 25.515625 
Q 47.21875 21.78125 47.21875 15.09375 
Q 47.21875 7.46875 41.1875 3.015625 
Q 35.15625 -1.421875 24.609375 -1.421875 
Q 20.21875 -1.421875 15.453125 -0.5625 
Q 10.6875 0.296875 5.421875 2 
L 5.421875 11.28125 
Q 10.40625 8.6875 15.234375 7.390625 
Q 20.0625 6.109375 24.8125 6.109375 
Q 31.15625 6.109375 34.5625 8.28125 
Q 37.984375 10.453125 37.984375 14.40625 
Q 37.984375 18.0625 35.515625 20.015625 
Q 33.0625 21.96875 24.703125 23.78125 
L 21.578125 24.515625 
Q 13.234375 26.265625 9.515625 29.90625 
Q 5.8125 33.546875 5.8125 39.890625 
Q 5.8125 47.609375 11.28125 51.796875 
Q 16.75 56 26.8125 56 
Q 31.78125 56 36.171875 55.265625 
Q 40.578125 54.546875 44.28125 53.078125 
z
" id="DejaVuSans-73"/>
      <path d="M 10.59375 45.40625 
L 73.1875 45.40625 
L 73.1875 37.203125 
L 10.59375 37.203125 
z
M 10.59375 25.484375 
L 73.1875 25.484375 
L 73.1875 17.1875 
L 10.59375 17.1875 
z
" id="DejaVuSans-3d"/>
      <path d="M 10.6875 12.40625 
L 21 12.40625 
L 21 0 
L 10.6875 0 
z
" id="DejaVuSans-2e"/>
      <path d="M 10.796875 72.90625 
L 49.515625 72.90625 
L 49.515625 64.59375 
L 19.828125 64.59375 
L 19.828125 46.734375 
Q 21.96875 47.46875 24.109375 47.828125 
Q 26.265625 48.1875 28.421875 48.1875 
Q 40.625 48.1875 47.75 41.5 
Q 54.890625 34.8125 54.890625 23.390625 
Q 54.890625 11.625 47.5625 5.09375 
Q 40.234375 -1.421875 26.90625 -1.421875 
Q 22.3125 -1.421875 17.546875 -0.640625 
Q 12.796875 0.140625 7.71875 1.703125 
L 7.71875 11.625 
Q 12.109375 9.234375 16.796875 8.0625 
Q 21.484375 6.890625 26.703125 6.890625 
Q 35.15625 6.890625 40.078125 11.328125 
Q 45.015625 15.765625 45.015625 23.390625 
Q 45.015625 31 40.078125 35.4375 
Q 35.15625 39.890625 26.703125 39.890625 
Q 22.75 39.890625 18.8125 39.015625 
Q 14.890625 38.140625 10.796875 36.28125 
z
" id="DejaVuSans-35"/>
      <path d="M 40.578125 39.3125 
Q 47.65625 37.796875 51.625 33 
Q 55.609375 28.21875 55.609375 21.1875 
Q 55.609375 10.40625 48.1875 4.484375 
Q 40.765625 -1.421875 27.09375 -1.421875 
Q 22.515625 -1.421875 17.65625 -0.515625 
Q 12.796875 0.390625 7.625 2.203125 
L 7.625 11.71875 
Q 11.71875 9.328125 16.59375 8.109375 
Q 21.484375 6.890625 26.8125 6.890625 
Q 36.078125 6.890625 40.9375 10.546875 
Q 45.796875 14.203125 45.796875 21.1875 
Q 45.796875 27.640625 41.28125 31.265625 
Q 36.765625 34.90625 28.71875 34.90625 
L 20.21875 34.90625 
L 20.21875 43.015625 
L 29.109375 43.015625 
Q 36.375 43.015625 40.234375 45.921875 
Q 44.09375 48.828125 44.09375 54.296875 
Q 44.09375 59.90625 40.109375 62.90625 
Q 36.140625 65.921875 28.71875 65.921875 
Q 24.65625 65.921875 20.015625 65.03125 
Q 15.375 64.15625 9.8125 62.3125 
L 9.8125 71.09375 
Q 15.4375 72.65625 20.34375 73.4375 
Q 25.25 74.21875 29.59375 74.21875 
Q 40.828125 74.21875 47.359375 69.109375 
Q 53.90625 64.015625 53.90625 55.328125 
Q 53.90625 49.265625 50.4375 45.09375 
Q 46.96875 40.921875 40.578125 39.3125 
z
" id="DejaVuSans-33"/>
      <path d="M 11.71875 51.703125 
L 22.015625 51.703125 
L 22.015625 39.3125 
L 11.71875 39.3125 
z
M 11.71875 12.40625 
L 22.015625 12.40625 
L 22.015625 4 
L 14.015625 -11.625 
L 7.71875 -11.625 
L 11.71875 4 
z
" id="DejaVuSans-3b"/>
      <path d="M 8.203125 72.90625 
L 55.078125 72.90625 
L 55.078125 68.703125 
L 28.609375 0 
L 18.3125 0 
L 43.21875 64.59375 
L 8.203125 64.59375 
z
" id="DejaVuSans-37"/>
     </defs>
     <g style="fill:#262626;" transform="translate(208.370708 95.989958)scale(0.088 -0.088)">
      <use xlink:href="#DejaVuSans-70"/>
      <use x="63.476562" xlink:href="#DejaVuSans-65"/>
      <use x="125" xlink:href="#DejaVuSans-61"/>
      <use x="186.279297" xlink:href="#DejaVuSans-72"/>
      <use x="227.392578" xlink:href="#DejaVuSans-73"/>
      <use x="279.492188" xlink:href="#DejaVuSans-6f"/>
      <use x="340.673828" xlink:href="#DejaVuSans-6e"/>
      <use x="404.052734" xlink:href="#DejaVuSans-72"/>
      <use x="445.166016" xlink:href="#DejaVuSans-20"/>
      <use x="476.953125" xlink:href="#DejaVuSans-3d"/>
      <use x="560.742188" xlink:href="#DejaVuSans-20"/>
      <use x="592.529297" xlink:href="#DejaVuSans-2d"/>
      <use x="628.613281" xlink:href="#DejaVuSans-30"/>
      <use x="692.236328" xlink:href="#DejaVuSans-2e"/>
      <use x="724.023438" xlink:href="#DejaVuSans-35"/>
      <use x="787.646484" xlink:href="#DejaVuSans-33"/>
      <use x="851.269531" xlink:href="#DejaVuSans-3b"/>
      <use x="884.960938" xlink:href="#DejaVuSans-20"/>
      <use x="916.748047" xlink:href="#DejaVuSans-70"/>
      <use x="980.224609" xlink:href="#DejaVuSans-20"/>
      <use x="1012.011719" xlink:href="#DejaVuSans-3d"/>
      <use x="1095.800781" xlink:href="#DejaVuSans-20"/>
      <use x="1127.587891" xlink:href="#DejaVuSans-30"/>
      <use x="1191.210938" xlink:href="#DejaVuSans-2e"/>
      <use x="1222.998047" xlink:href="#DejaVuSans-30"/>
      <use x="1286.621094" xlink:href="#DejaVuSans-30"/>
      <use x="1350.244141" xlink:href="#DejaVuSans-30"/>
      <use x="1413.867188" xlink:href="#DejaVuSans-32"/>
      <use x="1477.490234" xlink:href="#DejaVuSans-37"/>
     </g>
    </g>
   </g>
  </g>
  <g id="axes_2">
   <g id="patch_6">
    <path d="M 49.85 60.983333 
L 351.908333 60.983333 
L 351.908333 15.6 
L 49.85 15.6 
z
" style="fill:#ffffff;"/>
   </g>
   <g id="matplotlib.axis_3">
    <g id="xtick_7">
     <g id="line2d_16">
      <g>
       <use style="fill:#262626;stroke:#262626;" x="58.863577" xlink:href="#mb8eb1b306d" y="60.983333"/>
      </g>
     </g>
    </g>
    <g id="xtick_8">
     <g id="line2d_17">
      <g>
       <use style="fill:#262626;stroke:#262626;" x="108.461035" xlink:href="#mb8eb1b306d" y="60.983333"/>
      </g>
     </g>
    </g>
    <g id="xtick_9">
     <g id="line2d_18">
      <g>
       <use style="fill:#262626;stroke:#262626;" x="158.058493" xlink:href="#mb8eb1b306d" y="60.983333"/>
      </g>
     </g>
    </g>
    <g id="xtick_10">
     <g id="line2d_19">
      <g>
       <use style="fill:#262626;stroke:#262626;" x="207.655951" xlink:href="#mb8eb1b306d" y="60.983333"/>
      </g>
     </g>
    </g>
    <g id="xtick_11">
     <g id="line2d_20">
      <g>
       <use style="fill:#262626;stroke:#262626;" x="257.253408" xlink:href="#mb8eb1b306d" y="60.983333"/>
      </g>
     </g>
    </g>
    <g id="xtick_12">
     <g id="line2d_21">
      <g>
       <use style="fill:#262626;stroke:#262626;" x="306.850866" xlink:href="#mb8eb1b306d" y="60.983333"/>
      </g>
     </g>
    </g>
   </g>
   <g id="matplotlib.axis_4">
    <g id="ytick_7"/>
    <g id="ytick_8"/>
   </g>
   <g id="patch_7">
    <path clip-path="url(#pf5469749c8)" d="M 128.430576 60.983333 
L 157.410012 60.983333 
L 157.410012 47.476389 
L 128.430576 47.476389 
z
" style="fill:#471365;opacity:0.4;stroke:#ffffff;stroke-linejoin:miter;stroke-width:0.8;"/>
   </g>
   <g id="patch_8">
    <path clip-path="url(#pf5469749c8)" d="M 157.410012 60.983333 
L 186.389449 60.983333 
L 186.389449 17.761111 
L 157.410012 17.761111 
z
" style="fill:#471365;opacity:0.4;stroke:#ffffff;stroke-linejoin:miter;stroke-width:0.8;"/>
   </g>
   <g id="patch_9">
    <path clip-path="url(#pf5469749c8)" d="M 186.389449 60.983333 
L 215.368885 60.983333 
L 215.368885 36.670833 
L 186.389449 36.670833 
z
" style="fill:#471365;opacity:0.4;stroke:#ffffff;stroke-linejoin:miter;stroke-width:0.8;"/>
   </g>
   <g id="patch_10">
    <path clip-path="url(#pf5469749c8)" d="M 215.368885 60.983333 
L 244.348321 60.983333 
L 244.348321 39.372222 
L 215.368885 39.372222 
z
" style="fill:#471365;opacity:0.4;stroke:#ffffff;stroke-linejoin:miter;stroke-width:0.8;"/>
   </g>
   <g id="patch_11">
    <path clip-path="url(#pf5469749c8)" d="M 244.348321 60.983333 
L 273.327757 60.983333 
L 273.327757 47.476389 
L 244.348321 47.476389 
z
" style="fill:#471365;opacity:0.4;stroke:#ffffff;stroke-linejoin:miter;stroke-width:0.8;"/>
   </g>
   <g id="line2d_22">
    <path clip-path="url(#pf5469749c8)" d="M 76.061674 60.953533 
L 78.583239 60.937352 
L 81.104805 60.913697 
L 83.62637 60.879799 
L 86.147936 60.832181 
L 88.669501 60.766591 
L 91.191067 60.677985 
L 93.712632 60.560554 
L 96.234198 60.407815 
L 98.755763 60.212755 
L 101.277329 59.968034 
L 103.798894 59.666214 
L 106.32046 59.300003 
L 108.842025 58.862457 
L 111.363591 58.347137 
L 113.885156 57.748168 
L 116.406722 57.060215 
L 118.928287 56.278383 
L 121.449853 55.398075 
L 123.971418 54.414892 
L 126.492984 53.32465 
L 129.014549 52.123603 
L 131.536115 50.808935 
L 134.05768 49.379569 
L 136.579246 47.837246 
L 139.100811 46.18781 
L 141.622377 44.442512 
L 144.143943 42.619136 
L 146.665508 40.742711 
L 149.187074 38.845569 
L 151.708639 36.966597 
L 154.230205 35.149602 
L 156.75177 33.440861 
L 159.273336 31.886037 
L 161.794901 30.526785 
L 164.316467 29.39744 
L 166.838032 28.522204 
L 169.359598 27.913188 
L 171.881163 27.569586 
L 174.402729 27.478077 
L 176.924294 27.614391 
L 179.44586 27.945823 
L 181.967425 28.43436 
L 184.488991 29.040012 
L 187.010556 29.723986 
L 189.532122 30.451352 
L 192.053687 31.193022 
L 194.575253 31.926929 
L 197.096818 32.638448 
L 199.618384 33.320168 
L 202.139949 33.971169 
L 204.661515 34.595976 
L 207.18308 35.203324 
L 209.704646 35.804823 
L 212.226211 36.413594 
L 214.747777 37.042893 
L 217.269343 37.704751 
L 219.790908 38.408693 
L 222.312474 39.160589 
L 224.834039 39.961772 
L 227.355605 40.808519 
L 229.87717 41.692038 
L 232.398736 42.598995 
L 234.920301 43.512619 
L 237.441867 44.414282 
L 239.963432 45.285397 
L 242.484998 46.109429 
L 245.006563 46.873739 
L 247.528129 47.57104 
L 250.049694 48.200251 
L 252.57126 48.766635 
L 255.092825 49.281199 
L 257.614391 49.759419 
L 260.135956 50.219464 
L 262.657522 50.680136 
L 265.179087 51.158782 
L 267.700653 51.669426 
L 270.222218 52.221341 
L 272.743784 52.818195 
L 275.265349 53.45786 
L 277.786915 54.132849 
L 280.30848 54.831298 
L 282.830046 55.538343 
L 285.351612 56.237685 
L 287.873177 56.913169 
L 290.394743 57.550176 
L 292.916308 58.136719 
L 295.437874 58.664132 
L 297.959439 59.127355 
L 300.481005 59.524843 
L 303.00257 59.858153 
L 305.524136 60.131343 
L 308.045701 60.35025 
L 310.567267 60.52177 
L 313.088832 60.653203 
L 315.610398 60.751717 
L 318.131963 60.823951 
L 320.653529 60.875773 
L 323.175094 60.91215 
L 325.69666 60.93714 
" style="fill:none;stroke:#471365;stroke-linecap:round;stroke-width:1.2;"/>
   </g>
   <g id="patch_12">
    <path d="M 49.85 60.983333 
L 351.908333 60.983333 
" style="fill:none;stroke:#262626;stroke-linecap:square;stroke-linejoin:miter;"/>
   </g>
  </g>
  <g id="axes_3">
   <g id="patch_13">
    <path d="M 372.308333 389.9 
L 416.4 389.9 
L 416.4 81.383333 
L 372.308333 81.383333 
z
" style="fill:#ffffff;"/>
   </g>
   <g id="matplotlib.axis_5">
    <g id="xtick_13"/>
    <g id="xtick_14"/>
   </g>
   <g id="matplotlib.axis_6">
    <g id="ytick_9">
     <g id="line2d_23">
      <g>
       <use style="fill:#262626;stroke:#262626;" x="372.308333" xlink:href="#m905e0c9b3e" y="389.9"/>
      </g>
     </g>
    </g>
    <g id="ytick_10">
     <g id="line2d_24">
      <g>
       <use style="fill:#262626;stroke:#262626;" x="372.308333" xlink:href="#m905e0c9b3e" y="333.806061"/>
      </g>
     </g>
    </g>
    <g id="ytick_11">
     <g id="line2d_25">
      <g>
       <use style="fill:#262626;stroke:#262626;" x="372.308333" xlink:href="#m905e0c9b3e" y="277.712121"/>
      </g>
     </g>
    </g>
    <g id="ytick_12">
     <g id="line2d_26">
      <g>
       <use style="fill:#262626;stroke:#262626;" x="372.308333" xlink:href="#m905e0c9b3e" y="221.618182"/>
      </g>
     </g>
    </g>
    <g id="ytick_13">
     <g id="line2d_27">
      <g>
       <use style="fill:#262626;stroke:#262626;" x="372.308333" xlink:href="#m905e0c9b3e" y="165.524242"/>
      </g>
     </g>
    </g>
    <g id="ytick_14">
     <g id="line2d_28">
      <g>
       <use style="fill:#262626;stroke:#262626;" x="372.308333" xlink:href="#m905e0c9b3e" y="109.430303"/>
      </g>
     </g>
    </g>
   </g>
   <g id="patch_14">
    <path clip-path="url(#p177ab06558)" d="M 372.308333 229.640384 
L 396.803704 229.640384 
L 396.803704 199.607074 
L 372.308333 199.607074 
z
" style="fill:#471365;opacity:0.4;stroke:#ffffff;stroke-linejoin:miter;stroke-width:0.8;"/>
   </g>
   <g id="patch_15">
    <path clip-path="url(#p177ab06558)" d="M 372.308333 199.607074 
L 414.300397 199.607074 
L 414.300397 169.573764 
L 372.308333 169.573764 
z
" style="fill:#471365;opacity:0.4;stroke:#ffffff;stroke-linejoin:miter;stroke-width:0.8;"/>
   </g>
   <g id="patch_16">
    <path clip-path="url(#p177ab06558)" d="M 372.308333 169.573764 
L 414.300397 169.573764 
L 414.300397 139.540454 
L 372.308333 139.540454 
z
" style="fill:#471365;opacity:0.4;stroke:#ffffff;stroke-linejoin:miter;stroke-width:0.8;"/>
   </g>
   <g id="patch_17">
    <path clip-path="url(#p177ab06558)" d="M 372.308333 139.540454 
L 414.300397 139.540454 
L 414.300397 109.507144 
L 372.308333 109.507144 
z
" style="fill:#471365;opacity:0.4;stroke:#ffffff;stroke-linejoin:miter;stroke-width:0.8;"/>
   </g>
   <g id="line2d_29">
    <path clip-path="url(#p177ab06558)" d="M 372.370656 277.948715 
L 372.401279 275.759322 
L 372.44461 273.569929 
L 372.504796 271.380536 
L 372.586869 269.191143 
L 372.69676 267.00175 
L 372.841247 264.812357 
L 373.027835 262.622964 
L 373.264547 260.433571 
L 373.559637 258.244178 
L 373.921234 256.054786 
L 374.356947 253.865393 
L 374.873458 251.676 
L 375.476152 249.486607 
L 376.168816 247.297214 
L 376.953444 245.107821 
L 377.830177 242.918428 
L 378.797365 240.729035 
L 379.851756 238.539642 
L 380.988767 236.350249 
L 382.202796 234.160856 
L 383.48753 231.971463 
L 384.836215 229.78207 
L 386.241843 227.592677 
L 387.697258 225.403284 
L 389.195192 223.213891 
L 390.728234 221.024498 
L 392.288776 218.835105 
L 393.868958 216.645712 
L 395.460618 214.456319 
L 397.055258 212.266926 
L 398.644005 210.077533 
L 400.217542 207.888141 
L 401.765995 205.698748 
L 403.27875 203.509355 
L 404.744221 201.319962 
L 406.14959 199.130569 
L 407.480586 196.941176 
L 408.721391 194.751783 
L 409.854751 192.56239 
L 410.862378 190.372997 
L 411.725713 188.183604 
L 412.427039 185.994211 
L 412.950927 183.804818 
L 413.285896 181.615425 
L 413.426137 179.426032 
L 413.3731 177.236639 
L 413.136714 175.047246 
L 412.736038 172.857853 
L 412.199161 170.66846 
L 411.562255 168.479067 
L 410.867775 166.289674 
L 410.161895 164.100281 
L 409.491388 161.910888 
L 408.900228 159.721496 
L 408.426236 157.532103 
L 408.098103 155.34271 
L 407.933088 153.153317 
L 407.935591 150.963924 
L 408.096711 148.774531 
L 408.394798 146.585138 
L 408.796871 144.395745 
L 409.260738 142.206352 
L 409.737597 140.016959 
L 410.174882 137.827566 
L 410.519174 135.638173 
L 410.719007 133.44878 
L 410.727457 131.259387 
L 410.504459 129.069994 
L 410.018769 126.880601 
L 409.249552 124.691208 
L 408.187506 122.501815 
L 406.835483 120.312422 
L 405.208513 118.123029 
L 403.333203 115.933636 
L 401.246468 113.744243 
L 398.993652 111.55485 
L 396.626119 109.365458 
L 394.198485 107.176065 
L 391.765686 104.986672 
L 389.380123 102.797279 
L 387.089089 100.607886 
L 384.9327 98.418493 
L 382.942441 96.2291 
L 381.140423 94.039707 
L 379.539318 91.850314 
L 378.142933 89.660921 
L 376.947275 87.471528 
L 375.941971 85.282135 
L 375.11186 83.092742 
L 374.438621 80.903349 
L 373.90229 78.713956 
L 373.482575 76.524563 
L 373.159906 74.33517 
L 372.916208 72.145777 
L 372.735385 69.956384 
L 372.603569 67.766991 
L 372.509166 65.577598 
L 372.442742 63.388205 
L 372.396825 61.198813 
" style="fill:none;stroke:#471365;stroke-linecap:round;stroke-width:1.2;"/>
   </g>
   <g id="patch_18">
    <path d="M 372.308333 389.9 
L 372.308333 81.383333 
" style="fill:none;stroke:#262626;stroke-linecap:square;stroke-linejoin:miter;"/>
   </g>
  </g>
 </g>
 <defs>
  <clipPath id="pb9e9e70ce1">
   <rect height="308.516667" width="302.058333" x="49.85" y="81.383333"/>
  </clipPath>
  <clipPath id="pf5469749c8">
   <rect height="45.383333" width="302.058333" x="49.85" y="15.6"/>
  </clipPath>
  <clipPath id="p177ab06558">
   <rect height="308.516667" width="44.091667" x="372.308333" y="81.383333"/>
  </clipPath>
 </defs>
</svg>
