<?xml version="1.0" encoding="utf-8" standalone="no"?>
<!DOCTYPE svg PUBLIC "-//W3C//DTD SVG 1.1//EN"
  "http://www.w3.org/Graphics/SVG/1.1/DTD/svg11.dtd">
<!-- Created with matplotlib (http://matplotlib.org/) -->
<svg height="432pt" version="1.1" viewBox="0 0 432 432" width="432pt" xmlns="http://www.w3.org/2000/svg" xmlns:xlink="http://www.w3.org/1999/xlink">
 <defs>
  <style type="text/css">
*{stroke-linecap:butt;stroke-linejoin:round;}
  </style>
 </defs>
 <g id="figure_1">
  <g id="patch_1">
   <path d="M 0 432 
L 432 432 
L 432 0 
L 0 0 
z
" style="fill:#ffffff;"/>
  </g>
  <g id="axes_1">
   <g id="patch_2">
    <path d="M 49.85 389.9 
L 351.908333 389.9 
L 351.908333 81.383333 
L 49.85 81.383333 
z
" style="fill:#ffffff;"/>
   </g>
   <g id="matplotlib.axis_1">
    <g id="xtick_1">
     <g id="line2d_1">
      <defs>
       <path d="M 0 0 
L 0 4.8 
" id="md4b97f1afc" style="stroke:#262626;"/>
      </defs>
      <g>
       <use style="fill:#262626;stroke:#262626;" x="69.963363" xlink:href="#md4b97f1afc" y="389.9"/>
      </g>
     </g>
     <g id="text_1">
      <!-- 0 -->
      <defs>
       <path d="M 31.78125 66.40625 
Q 24.171875 66.40625 20.328125 58.90625 
Q 16.5 51.421875 16.5 36.375 
Q 16.5 21.390625 20.328125 13.890625 
Q 24.171875 6.390625 31.78125 6.390625 
Q 39.453125 6.390625 43.28125 13.890625 
Q 47.125 21.390625 47.125 36.375 
Q 47.125 51.421875 43.28125 58.90625 
Q 39.453125 66.40625 31.78125 66.40625 
z
M 31.78125 74.21875 
Q 44.046875 74.21875 50.515625 64.515625 
Q 56.984375 54.828125 56.984375 36.375 
Q 56.984375 17.96875 50.515625 8.265625 
Q 44.046875 -1.421875 31.78125 -1.421875 
Q 19.53125 -1.421875 13.0625 8.265625 
Q 6.59375 17.96875 6.59375 36.375 
Q 6.59375 54.828125 13.0625 64.515625 
Q 19.53125 74.21875 31.78125 74.21875 
z
" id="DejaVuSans-30"/>
      </defs>
      <g style="fill:#262626;" transform="translate(67.163863 404.886625)scale(0.088 -0.088)">
       <use xlink:href="#DejaVuSans-30"/>
      </g>
     </g>
    </g>
    <g id="xtick_2">
     <g id="line2d_2">
      <g>
       <use style="fill:#262626;stroke:#262626;" x="124.132386" xlink:href="#md4b97f1afc" y="389.9"/>
      </g>
     </g>
     <g id="text_2">
      <!-- 2 -->
      <defs>
       <path d="M 19.1875 8.296875 
L 53.609375 8.296875 
L 53.609375 0 
L 7.328125 0 
L 7.328125 8.296875 
Q 12.9375 14.109375 22.625 23.890625 
Q 32.328125 33.6875 34.8125 36.53125 
Q 39.546875 41.84375 41.421875 45.53125 
Q 43.3125 49.21875 43.3125 52.78125 
Q 43.3125 58.59375 39.234375 62.25 
Q 35.15625 65.921875 28.609375 65.921875 
Q 23.96875 65.921875 18.8125 64.3125 
Q 13.671875 62.703125 7.8125 59.421875 
L 7.8125 69.390625 
Q 13.765625 71.78125 18.9375 73 
Q 24.125 74.21875 28.421875 74.21875 
Q 39.75 74.21875 46.484375 68.546875 
Q 53.21875 62.890625 53.21875 53.421875 
Q 53.21875 48.921875 51.53125 44.890625 
Q 49.859375 40.875 45.40625 35.40625 
Q 44.1875 33.984375 37.640625 27.21875 
Q 31.109375 20.453125 19.1875 8.296875 
z
" id="DejaVuSans-32"/>
      </defs>
      <g style="fill:#262626;" transform="translate(121.332886 404.886625)scale(0.088 -0.088)">
       <use xlink:href="#DejaVuSans-32"/>
      </g>
     </g>
    </g>
    <g id="xtick_3">
     <g id="line2d_3">
      <g>
       <use style="fill:#262626;stroke:#262626;" x="178.301408" xlink:href="#md4b97f1afc" y="389.9"/>
      </g>
     </g>
     <g id="text_3">
      <!-- 4 -->
      <defs>
       <path d="M 37.796875 64.3125 
L 12.890625 25.390625 
L 37.796875 25.390625 
z
M 35.203125 72.90625 
L 47.609375 72.90625 
L 47.609375 25.390625 
L 58.015625 25.390625 
L 58.015625 17.1875 
L 47.609375 17.1875 
L 47.609375 0 
L 37.796875 0 
L 37.796875 17.1875 
L 4.890625 17.1875 
L 4.890625 26.703125 
z
" id="DejaVuSans-34"/>
      </defs>
      <g style="fill:#262626;" transform="translate(175.501908 404.886625)scale(0.088 -0.088)">
       <use xlink:href="#DejaVuSans-34"/>
      </g>
     </g>
    </g>
    <g id="xtick_4">
     <g id="line2d_4">
      <g>
       <use style="fill:#262626;stroke:#262626;" x="232.470431" xlink:href="#md4b97f1afc" y="389.9"/>
      </g>
     </g>
     <g id="text_4">
      <!-- 6 -->
      <defs>
       <path d="M 33.015625 40.375 
Q 26.375 40.375 22.484375 35.828125 
Q 18.609375 31.296875 18.609375 23.390625 
Q 18.609375 15.53125 22.484375 10.953125 
Q 26.375 6.390625 33.015625 6.390625 
Q 39.65625 6.390625 43.53125 10.953125 
Q 47.40625 15.53125 47.40625 23.390625 
Q 47.40625 31.296875 43.53125 35.828125 
Q 39.65625 40.375 33.015625 40.375 
z
M 52.59375 71.296875 
L 52.59375 62.3125 
Q 48.875 64.0625 45.09375 64.984375 
Q 41.3125 65.921875 37.59375 65.921875 
Q 27.828125 65.921875 22.671875 59.328125 
Q 17.53125 52.734375 16.796875 39.40625 
Q 19.671875 43.65625 24.015625 45.921875 
Q 28.375 48.1875 33.59375 48.1875 
Q 44.578125 48.1875 50.953125 41.515625 
Q 57.328125 34.859375 57.328125 23.390625 
Q 57.328125 12.15625 50.6875 5.359375 
Q 44.046875 -1.421875 33.015625 -1.421875 
Q 20.359375 -1.421875 13.671875 8.265625 
Q 6.984375 17.96875 6.984375 36.375 
Q 6.984375 53.65625 15.1875 63.9375 
Q 23.390625 74.21875 37.203125 74.21875 
Q 40.921875 74.21875 44.703125 73.484375 
Q 48.484375 72.75 52.59375 71.296875 
z
" id="DejaVuSans-36"/>
      </defs>
      <g style="fill:#262626;" transform="translate(229.670931 404.886625)scale(0.088 -0.088)">
       <use xlink:href="#DejaVuSans-36"/>
      </g>
     </g>
    </g>
    <g id="xtick_5">
     <g id="line2d_5">
      <g>
       <use style="fill:#262626;stroke:#262626;" x="286.639453" xlink:href="#md4b97f1afc" y="389.9"/>
      </g>
     </g>
     <g id="text_5">
      <!-- 8 -->
      <defs>
       <path d="M 31.78125 34.625 
Q 24.75 34.625 20.71875 30.859375 
Q 16.703125 27.09375 16.703125 20.515625 
Q 16.703125 13.921875 20.71875 10.15625 
Q 24.75 6.390625 31.78125 6.390625 
Q 38.8125 6.390625 42.859375 10.171875 
Q 46.921875 13.96875 46.921875 20.515625 
Q 46.921875 27.09375 42.890625 30.859375 
Q 38.875 34.625 31.78125 34.625 
z
M 21.921875 38.8125 
Q 15.578125 40.375 12.03125 44.71875 
Q 8.5 49.078125 8.5 55.328125 
Q 8.5 64.0625 14.71875 69.140625 
Q 20.953125 74.21875 31.78125 74.21875 
Q 42.671875 74.21875 48.875 69.140625 
Q 55.078125 64.0625 55.078125 55.328125 
Q 55.078125 49.078125 51.53125 44.71875 
Q 48 40.375 41.703125 38.8125 
Q 48.828125 37.15625 52.796875 32.3125 
Q 56.78125 27.484375 56.78125 20.515625 
Q 56.78125 9.90625 50.3125 4.234375 
Q 43.84375 -1.421875 31.78125 -1.421875 
Q 19.734375 -1.421875 13.25 4.234375 
Q 6.78125 9.90625 6.78125 20.515625 
Q 6.78125 27.484375 10.78125 32.3125 
Q 14.796875 37.15625 21.921875 38.8125 
z
M 18.3125 54.390625 
Q 18.3125 48.734375 21.84375 45.5625 
Q 25.390625 42.390625 31.78125 42.390625 
Q 38.140625 42.390625 41.71875 45.5625 
Q 45.3125 48.734375 45.3125 54.390625 
Q 45.3125 60.0625 41.71875 63.234375 
Q 38.140625 66.40625 31.78125 66.40625 
Q 25.390625 66.40625 21.84375 63.234375 
Q 18.3125 60.0625 18.3125 54.390625 
z
" id="DejaVuSans-38"/>
      </defs>
      <g style="fill:#262626;" transform="translate(283.839953 404.886625)scale(0.088 -0.088)">
       <use xlink:href="#DejaVuSans-38"/>
      </g>
     </g>
    </g>
    <g id="xtick_6">
     <g id="line2d_6">
      <g>
       <use style="fill:#262626;stroke:#262626;" x="340.808476" xlink:href="#md4b97f1afc" y="389.9"/>
      </g>
     </g>
     <g id="text_6">
      <!-- 10 -->
      <defs>
       <path d="M 12.40625 8.296875 
L 28.515625 8.296875 
L 28.515625 63.921875 
L 10.984375 60.40625 
L 10.984375 69.390625 
L 28.421875 72.90625 
L 38.28125 72.90625 
L 38.28125 8.296875 
L 54.390625 8.296875 
L 54.390625 0 
L 12.40625 0 
z
" id="DejaVuSans-31"/>
      </defs>
      <g style="fill:#262626;" transform="translate(335.209476 404.886625)scale(0.088 -0.088)">
       <use xlink:href="#DejaVuSans-31"/>
       <use x="63.623047" xlink:href="#DejaVuSans-30"/>
      </g>
     </g>
    </g>
    <g id="text_7">
     <!-- g(k-1) -->
     <defs>
      <path d="M 45.40625 27.984375 
Q 45.40625 37.75 41.375 43.109375 
Q 37.359375 48.484375 30.078125 48.484375 
Q 22.859375 48.484375 18.828125 43.109375 
Q 14.796875 37.75 14.796875 27.984375 
Q 14.796875 18.265625 18.828125 12.890625 
Q 22.859375 7.515625 30.078125 7.515625 
Q 37.359375 7.515625 41.375 12.890625 
Q 45.40625 18.265625 45.40625 27.984375 
z
M 54.390625 6.78125 
Q 54.390625 -7.171875 48.1875 -13.984375 
Q 42 -20.796875 29.203125 -20.796875 
Q 24.46875 -20.796875 20.265625 -20.09375 
Q 16.0625 -19.390625 12.109375 -17.921875 
L 12.109375 -9.1875 
Q 16.0625 -11.328125 19.921875 -12.34375 
Q 23.78125 -13.375 27.78125 -13.375 
Q 36.625 -13.375 41.015625 -8.765625 
Q 45.40625 -4.15625 45.40625 5.171875 
L 45.40625 9.625 
Q 42.625 4.78125 38.28125 2.390625 
Q 33.9375 0 27.875 0 
Q 17.828125 0 11.671875 7.65625 
Q 5.515625 15.328125 5.515625 27.984375 
Q 5.515625 40.671875 11.671875 48.328125 
Q 17.828125 56 27.875 56 
Q 33.9375 56 38.28125 53.609375 
Q 42.625 51.21875 45.40625 46.390625 
L 45.40625 54.6875 
L 54.390625 54.6875 
z
" id="DejaVuSans-67"/>
      <path d="M 31 75.875 
Q 24.46875 64.65625 21.28125 53.65625 
Q 18.109375 42.671875 18.109375 31.390625 
Q 18.109375 20.125 21.3125 9.0625 
Q 24.515625 -2 31 -13.1875 
L 23.1875 -13.1875 
Q 15.875 -1.703125 12.234375 9.375 
Q 8.59375 20.453125 8.59375 31.390625 
Q 8.59375 42.28125 12.203125 53.3125 
Q 15.828125 64.359375 23.1875 75.875 
z
" id="DejaVuSans-28"/>
      <path d="M 9.078125 75.984375 
L 18.109375 75.984375 
L 18.109375 31.109375 
L 44.921875 54.6875 
L 56.390625 54.6875 
L 27.390625 29.109375 
L 57.625 0 
L 45.90625 0 
L 18.109375 26.703125 
L 18.109375 0 
L 9.078125 0 
z
" id="DejaVuSans-6b"/>
      <path d="M 4.890625 31.390625 
L 31.203125 31.390625 
L 31.203125 23.390625 
L 4.890625 23.390625 
z
" id="DejaVuSans-2d"/>
      <path d="M 8.015625 75.875 
L 15.828125 75.875 
Q 23.140625 64.359375 26.78125 53.3125 
Q 30.421875 42.28125 30.421875 31.390625 
Q 30.421875 20.453125 26.78125 9.375 
Q 23.140625 -1.703125 15.828125 -13.1875 
L 8.015625 -13.1875 
Q 14.5 -2 17.703125 9.0625 
Q 20.90625 20.125 20.90625 31.390625 
Q 20.90625 42.671875 17.703125 53.65625 
Q 14.5 64.65625 8.015625 75.875 
z
" id="DejaVuSans-29"/>
     </defs>
     <g style="fill:#262626;" transform="translate(186.521167 418.01125)scale(0.096 -0.096)">
      <use xlink:href="#DejaVuSans-67"/>
      <use x="63.476562" xlink:href="#DejaVuSans-28"/>
      <use x="102.490234" xlink:href="#DejaVuSans-6b"/>
      <use x="160.400391" xlink:href="#DejaVuSans-2d"/>
      <use x="196.484375" xlink:href="#DejaVuSans-31"/>
      <use x="260.107422" xlink:href="#DejaVuSans-29"/>
     </g>
    </g>
   </g>
   <g id="matplotlib.axis_2">
    <g id="ytick_1">
     <g id="line2d_7">
      <defs>
       <path d="M 0 0 
L -4.8 0 
" id="m9870e27c3a" style="stroke:#262626;"/>
      </defs>
      <g>
       <use style="fill:#262626;stroke:#262626;" x="49.85" xlink:href="#m9870e27c3a" y="389.9"/>
      </g>
     </g>
     <g id="text_8">
      <!-- 0 -->
      <g style="fill:#262626;" transform="translate(35.951 393.243313)scale(0.088 -0.088)">
       <use xlink:href="#DejaVuSans-30"/>
      </g>
     </g>
    </g>
    <g id="ytick_2">
     <g id="line2d_8">
      <g>
       <use style="fill:#262626;stroke:#262626;" x="49.85" xlink:href="#m9870e27c3a" y="333.806061"/>
      </g>
     </g>
     <g id="text_9">
      <!-- 20 -->
      <g style="fill:#262626;" transform="translate(30.352 337.149373)scale(0.088 -0.088)">
       <use xlink:href="#DejaVuSans-32"/>
       <use x="63.623047" xlink:href="#DejaVuSans-30"/>
      </g>
     </g>
    </g>
    <g id="ytick_3">
     <g id="line2d_9">
      <g>
       <use style="fill:#262626;stroke:#262626;" x="49.85" xlink:href="#m9870e27c3a" y="277.712121"/>
      </g>
     </g>
     <g id="text_10">
      <!-- 40 -->
      <g style="fill:#262626;" transform="translate(30.352 281.055434)scale(0.088 -0.088)">
       <use xlink:href="#DejaVuSans-34"/>
       <use x="63.623047" xlink:href="#DejaVuSans-30"/>
      </g>
     </g>
    </g>
    <g id="ytick_4">
     <g id="line2d_10">
      <g>
       <use style="fill:#262626;stroke:#262626;" x="49.85" xlink:href="#m9870e27c3a" y="221.618182"/>
      </g>
     </g>
     <g id="text_11">
      <!-- 60 -->
      <g style="fill:#262626;" transform="translate(30.352 224.961494)scale(0.088 -0.088)">
       <use xlink:href="#DejaVuSans-36"/>
       <use x="63.623047" xlink:href="#DejaVuSans-30"/>
      </g>
     </g>
    </g>
    <g id="ytick_5">
     <g id="line2d_11">
      <g>
       <use style="fill:#262626;stroke:#262626;" x="49.85" xlink:href="#m9870e27c3a" y="165.524242"/>
      </g>
     </g>
     <g id="text_12">
      <!-- 80 -->
      <g style="fill:#262626;" transform="translate(30.352 168.867555)scale(0.088 -0.088)">
       <use xlink:href="#DejaVuSans-38"/>
       <use x="63.623047" xlink:href="#DejaVuSans-30"/>
      </g>
     </g>
    </g>
    <g id="ytick_6">
     <g id="line2d_12">
      <g>
       <use style="fill:#262626;stroke:#262626;" x="49.85" xlink:href="#m9870e27c3a" y="109.430303"/>
      </g>
     </g>
     <g id="text_13">
      <!-- 100 -->
      <g style="fill:#262626;" transform="translate(24.753 112.773616)scale(0.088 -0.088)">
       <use xlink:href="#DejaVuSans-31"/>
       <use x="63.623047" xlink:href="#DejaVuSans-30"/>
       <use x="127.246094" xlink:href="#DejaVuSans-30"/>
      </g>
     </g>
    </g>
    <g id="text_14">
     <!-- Time to cancer -->
     <defs>
      <path d="M -0.296875 72.90625 
L 61.375 72.90625 
L 61.375 64.59375 
L 35.5 64.59375 
L 35.5 0 
L 25.59375 0 
L 25.59375 64.59375 
L -0.296875 64.59375 
z
" id="DejaVuSans-54"/>
      <path d="M 9.421875 54.6875 
L 18.40625 54.6875 
L 18.40625 0 
L 9.421875 0 
z
M 9.421875 75.984375 
L 18.40625 75.984375 
L 18.40625 64.59375 
L 9.421875 64.59375 
z
" id="DejaVuSans-69"/>
      <path d="M 52 44.1875 
Q 55.375 50.25 60.0625 53.125 
Q 64.75 56 71.09375 56 
Q 79.640625 56 84.28125 50.015625 
Q 88.921875 44.046875 88.921875 33.015625 
L 88.921875 0 
L 79.890625 0 
L 79.890625 32.71875 
Q 79.890625 40.578125 77.09375 44.375 
Q 74.3125 48.1875 68.609375 48.1875 
Q 61.625 48.1875 57.5625 43.546875 
Q 53.515625 38.921875 53.515625 30.90625 
L 53.515625 0 
L 44.484375 0 
L 44.484375 32.71875 
Q 44.484375 40.625 41.703125 44.40625 
Q 38.921875 48.1875 33.109375 48.1875 
Q 26.21875 48.1875 22.15625 43.53125 
Q 18.109375 38.875 18.109375 30.90625 
L 18.109375 0 
L 9.078125 0 
L 9.078125 54.6875 
L 18.109375 54.6875 
L 18.109375 46.1875 
Q 21.1875 51.21875 25.484375 53.609375 
Q 29.78125 56 35.6875 56 
Q 41.65625 56 45.828125 52.96875 
Q 50 49.953125 52 44.1875 
z
" id="DejaVuSans-6d"/>
      <path d="M 56.203125 29.59375 
L 56.203125 25.203125 
L 14.890625 25.203125 
Q 15.484375 15.921875 20.484375 11.0625 
Q 25.484375 6.203125 34.421875 6.203125 
Q 39.59375 6.203125 44.453125 7.46875 
Q 49.3125 8.734375 54.109375 11.28125 
L 54.109375 2.78125 
Q 49.265625 0.734375 44.1875 -0.34375 
Q 39.109375 -1.421875 33.890625 -1.421875 
Q 20.796875 -1.421875 13.15625 6.1875 
Q 5.515625 13.8125 5.515625 26.8125 
Q 5.515625 40.234375 12.765625 48.109375 
Q 20.015625 56 32.328125 56 
Q 43.359375 56 49.78125 48.890625 
Q 56.203125 41.796875 56.203125 29.59375 
z
M 47.21875 32.234375 
Q 47.125 39.59375 43.09375 43.984375 
Q 39.0625 48.390625 32.421875 48.390625 
Q 24.90625 48.390625 20.390625 44.140625 
Q 15.875 39.890625 15.1875 32.171875 
z
" id="DejaVuSans-65"/>
      <path id="DejaVuSans-20"/>
      <path d="M 18.3125 70.21875 
L 18.3125 54.6875 
L 36.8125 54.6875 
L 36.8125 47.703125 
L 18.3125 47.703125 
L 18.3125 18.015625 
Q 18.3125 11.328125 20.140625 9.421875 
Q 21.96875 7.515625 27.59375 7.515625 
L 36.8125 7.515625 
L 36.8125 0 
L 27.59375 0 
Q 17.1875 0 13.234375 3.875 
Q 9.28125 7.765625 9.28125 18.015625 
L 9.28125 47.703125 
L 2.6875 47.703125 
L 2.6875 54.6875 
L 9.28125 54.6875 
L 9.28125 70.21875 
z
" id="DejaVuSans-74"/>
      <path d="M 30.609375 48.390625 
Q 23.390625 48.390625 19.1875 42.75 
Q 14.984375 37.109375 14.984375 27.296875 
Q 14.984375 17.484375 19.15625 11.84375 
Q 23.34375 6.203125 30.609375 6.203125 
Q 37.796875 6.203125 41.984375 11.859375 
Q 46.1875 17.53125 46.1875 27.296875 
Q 46.1875 37.015625 41.984375 42.703125 
Q 37.796875 48.390625 30.609375 48.390625 
z
M 30.609375 56 
Q 42.328125 56 49.015625 48.375 
Q 55.71875 40.765625 55.71875 27.296875 
Q 55.71875 13.875 49.015625 6.21875 
Q 42.328125 -1.421875 30.609375 -1.421875 
Q 18.84375 -1.421875 12.171875 6.21875 
Q 5.515625 13.875 5.515625 27.296875 
Q 5.515625 40.765625 12.171875 48.375 
Q 18.84375 56 30.609375 56 
z
" id="DejaVuSans-6f"/>
      <path d="M 48.78125 52.59375 
L 48.78125 44.1875 
Q 44.96875 46.296875 41.140625 47.34375 
Q 37.3125 48.390625 33.40625 48.390625 
Q 24.65625 48.390625 19.8125 42.84375 
Q 14.984375 37.3125 14.984375 27.296875 
Q 14.984375 17.28125 19.8125 11.734375 
Q 24.65625 6.203125 33.40625 6.203125 
Q 37.3125 6.203125 41.140625 7.25 
Q 44.96875 8.296875 48.78125 10.40625 
L 48.78125 2.09375 
Q 45.015625 0.34375 40.984375 -0.53125 
Q 36.96875 -1.421875 32.421875 -1.421875 
Q 20.0625 -1.421875 12.78125 6.34375 
Q 5.515625 14.109375 5.515625 27.296875 
Q 5.515625 40.671875 12.859375 48.328125 
Q 20.21875 56 33.015625 56 
Q 37.15625 56 41.109375 55.140625 
Q 45.0625 54.296875 48.78125 52.59375 
z
" id="DejaVuSans-63"/>
      <path d="M 34.28125 27.484375 
Q 23.390625 27.484375 19.1875 25 
Q 14.984375 22.515625 14.984375 16.5 
Q 14.984375 11.71875 18.140625 8.90625 
Q 21.296875 6.109375 26.703125 6.109375 
Q 34.1875 6.109375 38.703125 11.40625 
Q 43.21875 16.703125 43.21875 25.484375 
L 43.21875 27.484375 
z
M 52.203125 31.203125 
L 52.203125 0 
L 43.21875 0 
L 43.21875 8.296875 
Q 40.140625 3.328125 35.546875 0.953125 
Q 30.953125 -1.421875 24.3125 -1.421875 
Q 15.921875 -1.421875 10.953125 3.296875 
Q 6 8.015625 6 15.921875 
Q 6 25.140625 12.171875 29.828125 
Q 18.359375 34.515625 30.609375 34.515625 
L 43.21875 34.515625 
L 43.21875 35.40625 
Q 43.21875 41.609375 39.140625 45 
Q 35.0625 48.390625 27.6875 48.390625 
Q 23 48.390625 18.546875 47.265625 
Q 14.109375 46.140625 10.015625 43.890625 
L 10.015625 52.203125 
Q 14.9375 54.109375 19.578125 55.046875 
Q 24.21875 56 28.609375 56 
Q 40.484375 56 46.34375 49.84375 
Q 52.203125 43.703125 52.203125 31.203125 
z
" id="DejaVuSans-61"/>
      <path d="M 54.890625 33.015625 
L 54.890625 0 
L 45.90625 0 
L 45.90625 32.71875 
Q 45.90625 40.484375 42.875 44.328125 
Q 39.84375 48.1875 33.796875 48.1875 
Q 26.515625 48.1875 22.3125 43.546875 
Q 18.109375 38.921875 18.109375 30.90625 
L 18.109375 0 
L 9.078125 0 
L 9.078125 54.6875 
L 18.109375 54.6875 
L 18.109375 46.1875 
Q 21.34375 51.125 25.703125 53.5625 
Q 30.078125 56 35.796875 56 
Q 45.21875 56 50.046875 50.171875 
Q 54.890625 44.34375 54.890625 33.015625 
z
" id="DejaVuSans-6e"/>
      <path d="M 41.109375 46.296875 
Q 39.59375 47.171875 37.8125 47.578125 
Q 36.03125 48 33.890625 48 
Q 26.265625 48 22.1875 43.046875 
Q 18.109375 38.09375 18.109375 28.8125 
L 18.109375 0 
L 9.078125 0 
L 9.078125 54.6875 
L 18.109375 54.6875 
L 18.109375 46.1875 
Q 20.953125 51.171875 25.484375 53.578125 
Q 30.03125 56 36.53125 56 
Q 37.453125 56 38.578125 55.875 
Q 39.703125 55.765625 41.0625 55.515625 
z
" id="DejaVuSans-72"/>
     </defs>
     <g style="fill:#262626;" transform="translate(18.7565 271.592167)rotate(-90)scale(0.096 -0.096)">
      <use xlink:href="#DejaVuSans-54"/>
      <use x="61.037109" xlink:href="#DejaVuSans-69"/>
      <use x="88.820312" xlink:href="#DejaVuSans-6d"/>
      <use x="186.232422" xlink:href="#DejaVuSans-65"/>
      <use x="247.755859" xlink:href="#DejaVuSans-20"/>
      <use x="279.542969" xlink:href="#DejaVuSans-74"/>
      <use x="318.751953" xlink:href="#DejaVuSans-6f"/>
      <use x="379.933594" xlink:href="#DejaVuSans-20"/>
      <use x="411.720703" xlink:href="#DejaVuSans-63"/>
      <use x="466.701172" xlink:href="#DejaVuSans-61"/>
      <use x="527.980469" xlink:href="#DejaVuSans-6e"/>
      <use x="591.359375" xlink:href="#DejaVuSans-63"/>
      <use x="646.339844" xlink:href="#DejaVuSans-65"/>
      <use x="707.863281" xlink:href="#DejaVuSans-72"/>
     </g>
    </g>
   </g>
   <g id="PathCollection_1">
    <defs>
     <path d="M 0 2.4 
C 0.636487 2.4 1.246992 2.147121 1.697056 1.697056 
C 2.147121 1.246992 2.4 0.636487 2.4 0 
C 2.4 -0.636487 2.147121 -1.246992 1.697056 -1.697056 
C 1.246992 -2.147121 0.636487 -2.4 0 -2.4 
C -0.636487 -2.4 -1.246992 -2.147121 -1.697056 -1.697056 
C -2.147121 -1.246992 -2.4 -0.636487 -2.4 0 
C -2.4 0.636487 -2.147121 1.246992 -1.697056 1.697056 
C -1.246992 2.147121 -0.636487 2.4 0 2.4 
z
" id="m80dec10732" style="stroke:#471365;stroke-opacity:0.8;"/>
    </defs>
    <g clip-path="url(#pbc745405e9)">
     <use style="fill:#471365;fill-opacity:0.8;stroke:#471365;stroke-opacity:0.8;" x="191.877719" xlink:href="#m80dec10732" y="326.506164"/>
     <use style="fill:#471365;fill-opacity:0.8;stroke:#471365;stroke-opacity:0.8;" x="146.896451" xlink:href="#m80dec10732" y="268.206888"/>
     <use style="fill:#471365;fill-opacity:0.8;stroke:#471365;stroke-opacity:0.8;" x="142.895829" xlink:href="#m80dec10732" y="297.452577"/>
     <use style="fill:#471365;fill-opacity:0.8;stroke:#471365;stroke-opacity:0.8;" x="185.523225" xlink:href="#m80dec10732" y="286.395156"/>
     <use style="fill:#471365;fill-opacity:0.8;stroke:#471365;stroke-opacity:0.8;" x="171.718465" xlink:href="#m80dec10732" y="315.433374"/>
     <use style="fill:#471365;fill-opacity:0.8;stroke:#471365;stroke-opacity:0.8;" x="148.574741" xlink:href="#m80dec10732" y="289.553321"/>
     <use style="fill:#471365;fill-opacity:0.8;stroke:#471365;stroke-opacity:0.8;" x="214.990508" xlink:href="#m80dec10732" y="306.28161"/>
     <use style="fill:#471365;fill-opacity:0.8;stroke:#471365;stroke-opacity:0.8;" x="187.737248" xlink:href="#m80dec10732" y="345.808627"/>
     <use style="fill:#471365;fill-opacity:0.8;stroke:#471365;stroke-opacity:0.8;" x="230.345541" xlink:href="#m80dec10732" y="311.537535"/>
     <use style="fill:#471365;fill-opacity:0.8;stroke:#471365;stroke-opacity:0.8;" x="130.373563" xlink:href="#m80dec10732" y="234.496736"/>
     <use style="fill:#471365;fill-opacity:0.8;stroke:#471365;stroke-opacity:0.8;" x="191.037566" xlink:href="#m80dec10732" y="263.18917"/>
     <use style="fill:#471365;fill-opacity:0.8;stroke:#471365;stroke-opacity:0.8;" x="121.307631" xlink:href="#m80dec10732" y="119.965206"/>
     <use style="fill:#471365;fill-opacity:0.8;stroke:#471365;stroke-opacity:0.8;" x="135.774161" xlink:href="#m80dec10732" y="214.502704"/>
     <use style="fill:#471365;fill-opacity:0.8;stroke:#471365;stroke-opacity:0.8;" x="170.210275" xlink:href="#m80dec10732" y="303.031235"/>
     <use style="fill:#471365;fill-opacity:0.8;stroke:#471365;stroke-opacity:0.8;" x="164.369416" xlink:href="#m80dec10732" y="249.818834"/>
     <use style="fill:#471365;fill-opacity:0.8;stroke:#471365;stroke-opacity:0.8;" x="203.41444" xlink:href="#m80dec10732" y="310.876702"/>
     <use style="fill:#471365;fill-opacity:0.8;stroke:#471365;stroke-opacity:0.8;" x="123.590607" xlink:href="#m80dec10732" y="157.878562"/>
     <use style="fill:#471365;fill-opacity:0.8;stroke:#471365;stroke-opacity:0.8;" x="152.696202" xlink:href="#m80dec10732" y="232.252978"/>
     <use style="fill:#471365;fill-opacity:0.8;stroke:#471365;stroke-opacity:0.8;" x="181.487182" xlink:href="#m80dec10732" y="286.671783"/>
     <use style="fill:#471365;fill-opacity:0.8;stroke:#471365;stroke-opacity:0.8;" x="166.259717" xlink:href="#m80dec10732" y="291.382137"/>
     <use style="fill:#471365;fill-opacity:0.8;stroke:#471365;stroke-opacity:0.8;" x="153.583331" xlink:href="#m80dec10732" y="251.186604"/>
     <use style="fill:#471365;fill-opacity:0.8;stroke:#471365;stroke-opacity:0.8;" x="248.396069" xlink:href="#m80dec10732" y="299.581073"/>
     <use style="fill:#471365;fill-opacity:0.8;stroke:#471365;stroke-opacity:0.8;" x="157.550572" xlink:href="#m80dec10732" y="251.701438"/>
     <use style="fill:#471365;fill-opacity:0.8;stroke:#471365;stroke-opacity:0.8;" x="124.347628" xlink:href="#m80dec10732" y="218.421596"/>
     <use style="fill:#471365;fill-opacity:0.8;stroke:#471365;stroke-opacity:0.8;" x="137.356204" xlink:href="#m80dec10732" y="200.602165"/>
     <use style="fill:#471365;fill-opacity:0.8;stroke:#471365;stroke-opacity:0.8;" x="129.11518" xlink:href="#m80dec10732" y="187.961818"/>
     <use style="fill:#471365;fill-opacity:0.8;stroke:#471365;stroke-opacity:0.8;" x="142.159656" xlink:href="#m80dec10732" y="217.207508"/>
     <use style="fill:#471365;fill-opacity:0.8;stroke:#471365;stroke-opacity:0.8;" x="153.994344" xlink:href="#m80dec10732" y="271.710838"/>
     <use style="fill:#471365;fill-opacity:0.8;stroke:#471365;stroke-opacity:0.8;" x="152.110554" xlink:href="#m80dec10732" y="270.396857"/>
     <use style="fill:#471365;fill-opacity:0.8;stroke:#471365;stroke-opacity:0.8;" x="183.742034" xlink:href="#m80dec10732" y="342.980878"/>
     <use style="fill:#471365;fill-opacity:0.8;stroke:#471365;stroke-opacity:0.8;" x="149.543664" xlink:href="#m80dec10732" y="274.884372"/>
     <use style="fill:#471365;fill-opacity:0.8;stroke:#471365;stroke-opacity:0.8;" x="170.709957" xlink:href="#m80dec10732" y="268.475831"/>
     <use style="fill:#471365;fill-opacity:0.8;stroke:#471365;stroke-opacity:0.8;" x="145.901049" xlink:href="#m80dec10732" y="249.373156"/>
     <use style="fill:#471365;fill-opacity:0.8;stroke:#471365;stroke-opacity:0.8;" x="133.950187" xlink:href="#m80dec10732" y="273.40134"/>
     <use style="fill:#471365;fill-opacity:0.8;stroke:#471365;stroke-opacity:0.8;" x="174.972981" xlink:href="#m80dec10732" y="303.692068"/>
     <use style="fill:#471365;fill-opacity:0.8;stroke:#471365;stroke-opacity:0.8;" x="140.792036" xlink:href="#m80dec10732" y="205.043575"/>
     <use style="fill:#471365;fill-opacity:0.8;stroke:#471365;stroke-opacity:0.8;" x="162.964211" xlink:href="#m80dec10732" y="322.702534"/>
     <use style="fill:#471365;fill-opacity:0.8;stroke:#471365;stroke-opacity:0.8;" x="207.578753" xlink:href="#m80dec10732" y="308.364001"/>
     <use style="fill:#471365;fill-opacity:0.8;stroke:#471365;stroke-opacity:0.8;" x="141.071525" xlink:href="#m80dec10732" y="209.19299"/>
     <use style="fill:#471365;fill-opacity:0.8;stroke:#471365;stroke-opacity:0.8;" x="198.49877" xlink:href="#m80dec10732" y="297.490998"/>
     <use style="fill:#471365;fill-opacity:0.8;stroke:#471365;stroke-opacity:0.8;" x="174.174342" xlink:href="#m80dec10732" y="277.204971"/>
     <use style="fill:#471365;fill-opacity:0.8;stroke:#471365;stroke-opacity:0.8;" x="247.511698" xlink:href="#m80dec10732" y="303.069655"/>
     <use style="fill:#471365;fill-opacity:0.8;stroke:#471365;stroke-opacity:0.8;" x="152.466762" xlink:href="#m80dec10732" y="256.626947"/>
     <use style="fill:#471365;fill-opacity:0.8;stroke:#471365;stroke-opacity:0.8;" x="138.136147" xlink:href="#m80dec10732" y="287.540087"/>
     <use style="fill:#471365;fill-opacity:0.8;stroke:#471365;stroke-opacity:0.8;" x="136.030164" xlink:href="#m80dec10732" y="201.378259"/>
     <use style="fill:#471365;fill-opacity:0.8;stroke:#471365;stroke-opacity:0.8;" x="120.53555" xlink:href="#m80dec10732" y="110.106504"/>
     <use style="fill:#471365;fill-opacity:0.8;stroke:#471365;stroke-opacity:0.8;" x="210.592113" xlink:href="#m80dec10732" y="292.311914"/>
     <use style="fill:#471365;fill-opacity:0.8;stroke:#471365;stroke-opacity:0.8;" x="141.534817" xlink:href="#m80dec10732" y="260.123213"/>
     <use style="fill:#471365;fill-opacity:0.8;stroke:#471365;stroke-opacity:0.8;" x="147.702208" xlink:href="#m80dec10732" y="251.34797"/>
     <use style="fill:#471365;fill-opacity:0.8;stroke:#471365;stroke-opacity:0.8;" x="179.328583" xlink:href="#m80dec10732" y="319.083323"/>
     <use style="fill:#471365;fill-opacity:0.8;stroke:#471365;stroke-opacity:0.8;" x="119.642744" xlink:href="#m80dec10732" y="131.821774"/>
     <use style="fill:#471365;fill-opacity:0.8;stroke:#471365;stroke-opacity:0.8;" x="164.482091" xlink:href="#m80dec10732" y="267.607528"/>
     <use style="fill:#471365;fill-opacity:0.8;stroke:#471365;stroke-opacity:0.8;" x="133.216284" xlink:href="#m80dec10732" y="247.621181"/>
     <use style="fill:#471365;fill-opacity:0.8;stroke:#471365;stroke-opacity:0.8;" x="135.807635" xlink:href="#m80dec10732" y="204.836105"/>
     <use style="fill:#471365;fill-opacity:0.8;stroke:#471365;stroke-opacity:0.8;" x="159.101631" xlink:href="#m80dec10732" y="267.868787"/>
     <use style="fill:#471365;fill-opacity:0.8;stroke:#471365;stroke-opacity:0.8;" x="157.801327" xlink:href="#m80dec10732" y="253.78383"/>
     <use style="fill:#471365;fill-opacity:0.8;stroke:#471365;stroke-opacity:0.8;" x="141.729924" xlink:href="#m80dec10732" y="234.734943"/>
     <use style="fill:#471365;fill-opacity:0.8;stroke:#471365;stroke-opacity:0.8;" x="152.961859" xlink:href="#m80dec10732" y="276.790029"/>
     <use style="fill:#471365;fill-opacity:0.8;stroke:#471365;stroke-opacity:0.8;" x="136.749894" xlink:href="#m80dec10732" y="250.264511"/>
     <use style="fill:#471365;fill-opacity:0.8;stroke:#471365;stroke-opacity:0.8;" x="238.408202" xlink:href="#m80dec10732" y="298.735822"/>
     <use style="fill:#471365;fill-opacity:0.8;stroke:#471365;stroke-opacity:0.8;" x="128.196973" xlink:href="#m80dec10732" y="221.364606"/>
     <use style="fill:#471365;fill-opacity:0.8;stroke:#471365;stroke-opacity:0.8;" x="215.228709" xlink:href="#m80dec10732" y="314.457494"/>
     <use style="fill:#471365;fill-opacity:0.8;stroke:#471365;stroke-opacity:0.8;" x="138.851183" xlink:href="#m80dec10732" y="254.713606"/>
     <use style="fill:#471365;fill-opacity:0.8;stroke:#471365;stroke-opacity:0.8;" x="134.773952" xlink:href="#m80dec10732" y="205.796617"/>
     <use style="fill:#471365;fill-opacity:0.8;stroke:#471365;stroke-opacity:0.8;" x="127.339028" xlink:href="#m80dec10732" y="154.55903"/>
     <use style="fill:#471365;fill-opacity:0.8;stroke:#471365;stroke-opacity:0.8;" x="127.697862" xlink:href="#m80dec10732" y="172.34004"/>
     <use style="fill:#471365;fill-opacity:0.8;stroke:#471365;stroke-opacity:0.8;" x="126.271847" xlink:href="#m80dec10732" y="157.502041"/>
     <use style="fill:#471365;fill-opacity:0.8;stroke:#471365;stroke-opacity:0.8;" x="124.602838" xlink:href="#m80dec10732" y="209.907611"/>
     <use style="fill:#471365;fill-opacity:0.8;stroke:#471365;stroke-opacity:0.8;" x="121.442451" xlink:href="#m80dec10732" y="153.683042"/>
     <use style="fill:#471365;fill-opacity:0.8;stroke:#471365;stroke-opacity:0.8;" x="286.827743" xlink:href="#m80dec10732" y="302.992814"/>
     <use style="fill:#471365;fill-opacity:0.8;stroke:#471365;stroke-opacity:0.8;" x="168.845122" xlink:href="#m80dec10732" y="289.238273"/>
     <use style="fill:#471365;fill-opacity:0.8;stroke:#471365;stroke-opacity:0.8;" x="132.641233" xlink:href="#m80dec10732" y="239.468349"/>
     <use style="fill:#471365;fill-opacity:0.8;stroke:#471365;stroke-opacity:0.8;" x="161.545214" xlink:href="#m80dec10732" y="269.666867"/>
     <use style="fill:#471365;fill-opacity:0.8;stroke:#471365;stroke-opacity:0.8;" x="194.195814" xlink:href="#m80dec10732" y="293.310847"/>
     <use style="fill:#471365;fill-opacity:0.8;stroke:#471365;stroke-opacity:0.8;" x="136.152804" xlink:href="#m80dec10732" y="206.45745"/>
     <use style="fill:#471365;fill-opacity:0.8;stroke:#471365;stroke-opacity:0.8;" x="132.238098" xlink:href="#m80dec10732" y="206.234611"/>
     <use style="fill:#471365;fill-opacity:0.8;stroke:#471365;stroke-opacity:0.8;" x="161.083737" xlink:href="#m80dec10732" y="266.370388"/>
     <use style="fill:#471365;fill-opacity:0.8;stroke:#471365;stroke-opacity:0.8;" x="235.350727" xlink:href="#m80dec10732" y="305.021417"/>
     <use style="fill:#471365;fill-opacity:0.8;stroke:#471365;stroke-opacity:0.8;" x="186.894459" xlink:href="#m80dec10732" y="279.686935"/>
     <use style="fill:#471365;fill-opacity:0.8;stroke:#471365;stroke-opacity:0.8;" x="265.174422" xlink:href="#m80dec10732" y="306.535185"/>
     <use style="fill:#471365;fill-opacity:0.8;stroke:#471365;stroke-opacity:0.8;" x="140.721732" xlink:href="#m80dec10732" y="230.762262"/>
     <use style="fill:#471365;fill-opacity:0.8;stroke:#471365;stroke-opacity:0.8;" x="134.252263" xlink:href="#m80dec10732" y="265.970814"/>
     <use style="fill:#471365;fill-opacity:0.8;stroke:#471365;stroke-opacity:0.8;" x="126.377764" xlink:href="#m80dec10732" y="180.538976"/>
     <use style="fill:#471365;fill-opacity:0.8;stroke:#471365;stroke-opacity:0.8;" x="135.163586" xlink:href="#m80dec10732" y="198.750296"/>
     <use style="fill:#471365;fill-opacity:0.8;stroke:#471365;stroke-opacity:0.8;" x="187.824152" xlink:href="#m80dec10732" y="288.892489"/>
     <use style="fill:#471365;fill-opacity:0.8;stroke:#471365;stroke-opacity:0.8;" x="235.053564" xlink:href="#m80dec10732" y="316.463044"/>
     <use style="fill:#471365;fill-opacity:0.8;stroke:#471365;stroke-opacity:0.8;" x="141.839717" xlink:href="#m80dec10732" y="212.873675"/>
     <use style="fill:#471365;fill-opacity:0.8;stroke:#471365;stroke-opacity:0.8;" x="146.076893" xlink:href="#m80dec10732" y="246.637616"/>
     <use style="fill:#471365;fill-opacity:0.8;stroke:#471365;stroke-opacity:0.8;" x="119.900264" xlink:href="#m80dec10732" y="109.691562"/>
     <use style="fill:#471365;fill-opacity:0.8;stroke:#471365;stroke-opacity:0.8;" x="208.364771" xlink:href="#m80dec10732" y="311.599008"/>
     <use style="fill:#471365;fill-opacity:0.8;stroke:#471365;stroke-opacity:0.8;" x="149.0144" xlink:href="#m80dec10732" y="304.545003"/>
     <use style="fill:#471365;fill-opacity:0.8;stroke:#471365;stroke-opacity:0.8;" x="132.105285" xlink:href="#m80dec10732" y="205.658303"/>
     <use style="fill:#471365;fill-opacity:0.8;stroke:#471365;stroke-opacity:0.8;" x="164.18382" xlink:href="#m80dec10732" y="277.59686"/>
     <use style="fill:#471365;fill-opacity:0.8;stroke:#471365;stroke-opacity:0.8;" x="121.34386" xlink:href="#m80dec10732" y="147.45892"/>
     <use style="fill:#471365;fill-opacity:0.8;stroke:#471365;stroke-opacity:0.8;" x="131.347279" xlink:href="#m80dec10732" y="185.541326"/>
     <use style="fill:#471365;fill-opacity:0.8;stroke:#471365;stroke-opacity:0.8;" x="129.595539" xlink:href="#m80dec10732" y="191.527241"/>
     <use style="fill:#471365;fill-opacity:0.8;stroke:#471365;stroke-opacity:0.8;" x="179.273003" xlink:href="#m80dec10732" y="275.675834"/>
     <use style="fill:#471365;fill-opacity:0.8;stroke:#471365;stroke-opacity:0.8;" x="132.802522" xlink:href="#m80dec10732" y="205.22031"/>
     <use style="fill:#471365;fill-opacity:0.8;stroke:#471365;stroke-opacity:0.8;" x="121.578551" xlink:href="#m80dec10732" y="171.379528"/>
     <use style="fill:#471365;fill-opacity:0.8;stroke:#471365;stroke-opacity:0.8;" x="136.238003" xlink:href="#m80dec10732" y="191.327455"/>
     <use style="fill:#471365;fill-opacity:0.8;stroke:#471365;stroke-opacity:0.8;" x="167.619481" xlink:href="#m80dec10732" y="283.790245"/>
     <use style="fill:#471365;fill-opacity:0.8;stroke:#471365;stroke-opacity:0.8;" x="173.134987" xlink:href="#m80dec10732" y="272.356303"/>
     <use style="fill:#471365;fill-opacity:0.8;stroke:#471365;stroke-opacity:0.8;" x="121.799807" xlink:href="#m80dec10732" y="176.789135"/>
     <use style="fill:#471365;fill-opacity:0.8;stroke:#471365;stroke-opacity:0.8;" x="170.509192" xlink:href="#m80dec10732" y="266.639331"/>
     <use style="fill:#471365;fill-opacity:0.8;stroke:#471365;stroke-opacity:0.8;" x="164.560764" xlink:href="#m80dec10732" y="281.43891"/>
     <use style="fill:#471365;fill-opacity:0.8;stroke:#471365;stroke-opacity:0.8;" x="114.930591" xlink:href="#m80dec10732" y="117.57545"/>
     <use style="fill:#471365;fill-opacity:0.8;stroke:#471365;stroke-opacity:0.8;" x="131.771384" xlink:href="#m80dec10732" y="202.384876"/>
     <use style="fill:#471365;fill-opacity:0.8;stroke:#471365;stroke-opacity:0.8;" x="139.458181" xlink:href="#m80dec10732" y="225.752228"/>
     <use style="fill:#471365;fill-opacity:0.8;stroke:#471365;stroke-opacity:0.8;" x="204.992534" xlink:href="#m80dec10732" y="305.943509"/>
     <use style="fill:#471365;fill-opacity:0.8;stroke:#471365;stroke-opacity:0.8;" x="162.068077" xlink:href="#m80dec10732" y="241.304849"/>
     <use style="fill:#471365;fill-opacity:0.8;stroke:#471365;stroke-opacity:0.8;" x="126.164972" xlink:href="#m80dec10732" y="130.461688"/>
     <use style="fill:#471365;fill-opacity:0.8;stroke:#471365;stroke-opacity:0.8;" x="140.256002" xlink:href="#m80dec10732" y="250.103145"/>
     <use style="fill:#471365;fill-opacity:0.8;stroke:#471365;stroke-opacity:0.8;" x="130.826516" xlink:href="#m80dec10732" y="194.631618"/>
     <use style="fill:#471365;fill-opacity:0.8;stroke:#471365;stroke-opacity:0.8;" x="199.209649" xlink:href="#m80dec10732" y="315.003065"/>
     <use style="fill:#471365;fill-opacity:0.8;stroke:#471365;stroke-opacity:0.8;" x="121.484687" xlink:href="#m80dec10732" y="157.578882"/>
     <use style="fill:#471365;fill-opacity:0.8;stroke:#471365;stroke-opacity:0.8;" x="156.154067" xlink:href="#m80dec10732" y="266.547122"/>
     <use style="fill:#471365;fill-opacity:0.8;stroke:#471365;stroke-opacity:0.8;" x="195.688308" xlink:href="#m80dec10732" y="299.396655"/>
     <use style="fill:#471365;fill-opacity:0.8;stroke:#471365;stroke-opacity:0.8;" x="280.286913" xlink:href="#m80dec10732" y="309.624194"/>
     <use style="fill:#471365;fill-opacity:0.8;stroke:#471365;stroke-opacity:0.8;" x="136.600436" xlink:href="#m80dec10732" y="219.435897"/>
     <use style="fill:#471365;fill-opacity:0.8;stroke:#471365;stroke-opacity:0.8;" x="185.313794" xlink:href="#m80dec10732" y="304.760158"/>
     <use style="fill:#471365;fill-opacity:0.8;stroke:#471365;stroke-opacity:0.8;" x="162.42987" xlink:href="#m80dec10732" y="302.915973"/>
     <use style="fill:#471365;fill-opacity:0.8;stroke:#471365;stroke-opacity:0.8;" x="233.916643" xlink:href="#m80dec10732" y="296.376803"/>
     <use style="fill:#471365;fill-opacity:0.8;stroke:#471365;stroke-opacity:0.8;" x="123.143503" xlink:href="#m80dec10732" y="150.724663"/>
     <use style="fill:#471365;fill-opacity:0.8;stroke:#471365;stroke-opacity:0.8;" x="152.646758" xlink:href="#m80dec10732" y="232.560342"/>
     <use style="fill:#471365;fill-opacity:0.8;stroke:#471365;stroke-opacity:0.8;" x="159.145802" xlink:href="#m80dec10732" y="307.203702"/>
     <use style="fill:#471365;fill-opacity:0.8;stroke:#471365;stroke-opacity:0.8;" x="116.714112" xlink:href="#m80dec10732" y="121.840127"/>
     <use style="fill:#471365;fill-opacity:0.8;stroke:#471365;stroke-opacity:0.8;" x="128.497709" xlink:href="#m80dec10732" y="219.612631"/>
     <use style="fill:#471365;fill-opacity:0.8;stroke:#471365;stroke-opacity:0.8;" x="172.9821" xlink:href="#m80dec10732" y="295.108927"/>
     <use style="fill:#471365;fill-opacity:0.8;stroke:#471365;stroke-opacity:0.8;" x="154.011211" xlink:href="#m80dec10732" y="259.001335"/>
     <use style="fill:#471365;fill-opacity:0.8;stroke:#471365;stroke-opacity:0.8;" x="134.126076" xlink:href="#m80dec10732" y="200.25638"/>
     <use style="fill:#471365;fill-opacity:0.8;stroke:#471365;stroke-opacity:0.8;" x="154.344878" xlink:href="#m80dec10732" y="239.061092"/>
     <use style="fill:#471365;fill-opacity:0.8;stroke:#471365;stroke-opacity:0.8;" x="129.146744" xlink:href="#m80dec10732" y="191.75008"/>
     <use style="fill:#471365;fill-opacity:0.8;stroke:#471365;stroke-opacity:0.8;" x="216.472002" xlink:href="#m80dec10732" y="314.180866"/>
     <use style="fill:#471365;fill-opacity:0.8;stroke:#471365;stroke-opacity:0.8;" x="144.004728" xlink:href="#m80dec10732" y="266.116812"/>
     <use style="fill:#471365;fill-opacity:0.8;stroke:#471365;stroke-opacity:0.8;" x="209.212184" xlink:href="#m80dec10732" y="292.918958"/>
     <use style="fill:#471365;fill-opacity:0.8;stroke:#471365;stroke-opacity:0.8;" x="168.889098" xlink:href="#m80dec10732" y="295.009033"/>
     <use style="fill:#471365;fill-opacity:0.8;stroke:#471365;stroke-opacity:0.8;" x="158.00932" xlink:href="#m80dec10732" y="288.761859"/>
     <use style="fill:#471365;fill-opacity:0.8;stroke:#471365;stroke-opacity:0.8;" x="189.09623" xlink:href="#m80dec10732" y="280.824182"/>
     <use style="fill:#471365;fill-opacity:0.8;stroke:#471365;stroke-opacity:0.8;" x="168.278708" xlink:href="#m80dec10732" y="265.817132"/>
     <use style="fill:#471365;fill-opacity:0.8;stroke:#471365;stroke-opacity:0.8;" x="170.890463" xlink:href="#m80dec10732" y="276.451929"/>
     <use style="fill:#471365;fill-opacity:0.8;stroke:#471365;stroke-opacity:0.8;" x="183.676644" xlink:href="#m80dec10732" y="303.177233"/>
     <use style="fill:#471365;fill-opacity:0.8;stroke:#471365;stroke-opacity:0.8;" x="127.946783" xlink:href="#m80dec10732" y="142.602568"/>
     <use style="fill:#471365;fill-opacity:0.8;stroke:#471365;stroke-opacity:0.8;" x="126.555281" xlink:href="#m80dec10732" y="159.154122"/>
     <use style="fill:#471365;fill-opacity:0.8;stroke:#471365;stroke-opacity:0.8;" x="150.269546" xlink:href="#m80dec10732" y="284.597076"/>
     <use style="fill:#471365;fill-opacity:0.8;stroke:#471365;stroke-opacity:0.8;" x="124.392884" xlink:href="#m80dec10732" y="152.215379"/>
     <use style="fill:#471365;fill-opacity:0.8;stroke:#471365;stroke-opacity:0.8;" x="165.447202" xlink:href="#m80dec10732" y="234.41221"/>
     <use style="fill:#471365;fill-opacity:0.8;stroke:#471365;stroke-opacity:0.8;" x="262.107847" xlink:href="#m80dec10732" y="308.671365"/>
     <use style="fill:#471365;fill-opacity:0.8;stroke:#471365;stroke-opacity:0.8;" x="136.063092" xlink:href="#m80dec10732" y="217.276665"/>
     <use style="fill:#471365;fill-opacity:0.8;stroke:#471365;stroke-opacity:0.8;" x="133.386801" xlink:href="#m80dec10732" y="209.538775"/>
     <use style="fill:#471365;fill-opacity:0.8;stroke:#471365;stroke-opacity:0.8;" x="155.081581" xlink:href="#m80dec10732" y="270.089493"/>
     <use style="fill:#471365;fill-opacity:0.8;stroke:#471365;stroke-opacity:0.8;" x="184.026239" xlink:href="#m80dec10732" y="331.070521"/>
     <use style="fill:#471365;fill-opacity:0.8;stroke:#471365;stroke-opacity:0.8;" x="150.433264" xlink:href="#m80dec10732" y="226.620532"/>
     <use style="fill:#471365;fill-opacity:0.8;stroke:#471365;stroke-opacity:0.8;" x="201.310173" xlink:href="#m80dec10732" y="272.340934"/>
     <use style="fill:#471365;fill-opacity:0.8;stroke:#471365;stroke-opacity:0.8;" x="207.259567" xlink:href="#m80dec10732" y="318.799011"/>
     <use style="fill:#471365;fill-opacity:0.8;stroke:#471365;stroke-opacity:0.8;" x="228.581197" xlink:href="#m80dec10732" y="319.275425"/>
     <use style="fill:#471365;fill-opacity:0.8;stroke:#471365;stroke-opacity:0.8;" x="139.402879" xlink:href="#m80dec10732" y="231.392359"/>
     <use style="fill:#471365;fill-opacity:0.8;stroke:#471365;stroke-opacity:0.8;" x="137.907123" xlink:href="#m80dec10732" y="297.47563"/>
     <use style="fill:#471365;fill-opacity:0.8;stroke:#471365;stroke-opacity:0.8;" x="125.732996" xlink:href="#m80dec10732" y="126.81174"/>
     <use style="fill:#471365;fill-opacity:0.8;stroke:#471365;stroke-opacity:0.8;" x="133.457617" xlink:href="#m80dec10732" y="195.023507"/>
     <use style="fill:#471365;fill-opacity:0.8;stroke:#471365;stroke-opacity:0.8;" x="142.01618" xlink:href="#m80dec10732" y="236.095029"/>
     <use style="fill:#471365;fill-opacity:0.8;stroke:#471365;stroke-opacity:0.8;" x="188.954455" xlink:href="#m80dec10732" y="293.664315"/>
    </g>
   </g>
   <g id="PolyCollection_1">
    <defs>
     <path d="M 63.579924 -320.193813 
L 63.579924 -276.329819 
L 66.353646 -273.630743 
L 69.127368 -270.882548 
L 71.90109 -268.135316 
L 74.674813 -265.449774 
L 77.448535 -262.764231 
L 80.222257 -260.002308 
L 82.995979 -257.238104 
L 85.769701 -254.4739 
L 88.543423 -251.709696 
L 91.317145 -248.946222 
L 94.090867 -246.218373 
L 96.864589 -243.52827 
L 99.638311 -240.776714 
L 102.412033 -237.957404 
L 105.185755 -235.125155 
L 107.959477 -232.359898 
L 110.733199 -229.594467 
L 113.506921 -226.830085 
L 116.280644 -224.121263 
L 119.054366 -221.37148 
L 121.828088 -218.582406 
L 124.60181 -215.868822 
L 127.375532 -213.067143 
L 130.149254 -210.340819 
L 132.922976 -207.476479 
L 135.696698 -204.65776 
L 138.47042 -201.576713 
L 141.244142 -198.816928 
L 144.017864 -196.149307 
L 146.791586 -193.503705 
L 149.565308 -190.324823 
L 152.33903 -187.261372 
L 155.112753 -184.31833 
L 157.886475 -181.076135 
L 160.660197 -177.760581 
L 163.433919 -174.545075 
L 166.207641 -171.369777 
L 168.981363 -167.725614 
L 171.755085 -164.284776 
L 174.528807 -160.711664 
L 177.302529 -157.002331 
L 180.076251 -153.186337 
L 182.849973 -149.348951 
L 185.623695 -145.88427 
L 188.397417 -142.235901 
L 191.171139 -138.503 
L 193.944861 -134.543076 
L 196.718584 -130.356894 
L 199.492306 -126.261472 
L 202.266028 -122.177124 
L 205.03975 -118.101467 
L 207.813472 -114.417139 
L 210.587194 -110.734045 
L 213.360916 -106.769358 
L 216.134638 -102.806744 
L 218.90836 -98.828248 
L 221.682082 -94.878837 
L 224.455804 -90.914662 
L 227.229526 -87.005526 
L 230.003248 -83.148199 
L 232.77697 -79.254956 
L 235.550693 -75.167917 
L 238.324415 -71.19576 
L 241.098137 -67.335093 
L 243.871859 -63.510371 
L 246.645581 -59.715464 
L 249.419303 -55.920557 
L 252.193025 -52.125667 
L 254.966747 -48.332189 
L 257.740469 -44.53871 
L 260.514191 -40.736391 
L 263.287913 -36.882024 
L 266.061635 -33.027657 
L 268.835357 -29.173289 
L 271.609079 -25.318922 
L 274.382801 -21.464555 
L 277.156524 -17.55446 
L 279.930246 -13.642765 
L 282.703968 -9.73107 
L 285.47769 -5.819375 
L 288.251412 -1.90768 
L 291.025134 2.004016 
L 293.798856 5.915711 
L 296.572578 9.827406 
L 299.3463 13.739101 
L 302.120022 17.612211 
L 304.893744 21.461695 
L 307.667466 25.311179 
L 310.441188 29.157733 
L 313.21491 33.003917 
L 315.988633 36.837587 
L 318.762355 40.620577 
L 321.536077 44.403568 
L 324.309799 48.186558 
L 327.083521 51.969549 
L 329.857243 55.75254 
L 332.630965 59.53553 
L 335.404687 63.331523 
L 338.178409 67.18589 
L 338.178409 -9.663356 
L 338.178409 -9.663356 
L 335.404687 -12.367208 
L 332.630965 -15.137144 
L 329.857243 -17.90708 
L 327.083521 -20.629735 
L 324.309799 -23.323539 
L 321.536077 -26.017344 
L 318.762355 -28.709197 
L 315.988633 -31.399634 
L 313.21491 -34.090071 
L 310.441188 -36.780508 
L 307.667466 -39.465138 
L 304.893744 -42.163799 
L 302.120022 -44.860317 
L 299.3463 -47.556835 
L 296.572578 -50.250068 
L 293.798856 -52.942078 
L 291.025134 -55.634088 
L 288.251412 -58.325694 
L 285.47769 -61.017296 
L 282.703968 -63.778328 
L 279.930246 -66.600104 
L 277.156524 -69.421879 
L 274.382801 -72.213401 
L 271.609079 -74.897039 
L 268.835357 -77.58361 
L 266.061635 -80.267891 
L 263.287913 -82.952172 
L 260.514191 -85.636454 
L 257.740469 -88.320735 
L 254.966747 -91.139786 
L 252.193025 -93.913567 
L 249.419303 -96.713809 
L 246.645581 -99.501679 
L 243.871859 -102.308661 
L 241.098137 -105.089215 
L 238.324415 -107.696118 
L 235.550693 -110.444931 
L 232.77697 -113.155765 
L 230.003248 -115.941715 
L 227.229526 -118.738464 
L 224.455804 -121.531645 
L 221.682082 -124.295497 
L 218.90836 -127.019551 
L 216.134638 -129.921007 
L 213.360916 -132.720573 
L 210.587194 -135.513512 
L 207.813472 -138.340073 
L 205.03975 -141.244044 
L 202.266028 -144.027134 
L 199.492306 -146.842995 
L 196.718584 -149.711123 
L 193.944861 -152.561693 
L 191.171139 -155.526383 
L 188.397417 -158.427121 
L 185.623695 -161.239996 
L 182.849973 -164.230305 
L 180.076251 -167.325532 
L 177.302529 -170.402556 
L 174.528807 -173.501027 
L 171.755085 -176.56294 
L 168.981363 -179.505063 
L 166.207641 -182.580609 
L 163.433919 -185.758267 
L 160.660197 -189.066714 
L 157.886475 -192.41881 
L 155.112753 -195.669101 
L 152.33903 -199.125876 
L 149.565308 -202.645405 
L 146.791586 -206.189888 
L 144.017864 -209.774354 
L 141.244142 -213.428462 
L 138.47042 -217.161094 
L 135.696698 -220.887229 
L 132.922976 -224.552701 
L 130.149254 -228.31824 
L 127.375532 -232.165073 
L 124.60181 -235.996862 
L 121.828088 -239.761629 
L 119.054366 -243.639143 
L 116.280644 -247.326052 
L 113.506921 -251.109766 
L 110.733199 -254.819999 
L 107.959477 -258.746844 
L 105.185755 -262.509047 
L 102.412033 -266.269167 
L 99.638311 -270.028212 
L 96.864589 -273.787258 
L 94.090867 -277.57177 
L 91.317145 -281.463481 
L 88.543423 -285.317439 
L 85.769701 -289.227556 
L 82.995979 -293.150995 
L 80.222257 -297.048127 
L 77.448535 -300.874856 
L 74.674813 -304.695003 
L 71.90109 -308.570515 
L 69.127368 -312.446 
L 66.353646 -316.319906 
L 63.579924 -320.193813 
z
" id="m0809f844b2" style="stroke:#ffffff;stroke-opacity:0.15;stroke-width:0.8;"/>
    </defs>
    <g clip-path="url(#pbc745405e9)">
     <use style="fill:#471365;fill-opacity:0.15;stroke:#ffffff;stroke-opacity:0.15;stroke-width:0.8;" x="0" xlink:href="#m0809f844b2" y="432"/>
    </g>
   </g>
   <g id="line2d_13">
    <path clip-path="url(#pbc745405e9)" d="M 63.579924 134.590631 
L 66.353646 137.83565 
L 69.127368 141.080669 
L 71.90109 144.325688 
L 74.674813 147.570706 
L 77.448535 150.815725 
L 80.222257 154.060744 
L 82.995979 157.305763 
L 85.769701 160.550781 
L 88.543423 163.7958 
L 91.317145 167.040819 
L 94.090867 170.285838 
L 96.864589 173.530857 
L 99.638311 176.775875 
L 102.412033 180.020894 
L 105.185755 183.265913 
L 107.959477 186.510932 
L 110.733199 189.755951 
L 113.506921 193.000969 
L 116.280644 196.245988 
L 119.054366 199.491007 
L 121.828088 202.736026 
L 124.60181 205.981045 
L 127.375532 209.226063 
L 130.149254 212.471082 
L 132.922976 215.716101 
L 135.696698 218.96112 
L 138.47042 222.206139 
L 141.244142 225.451157 
L 144.017864 228.696176 
L 146.791586 231.941195 
L 149.565308 235.186214 
L 152.33903 238.431232 
L 155.112753 241.676251 
L 157.886475 244.92127 
L 160.660197 248.166289 
L 163.433919 251.411308 
L 166.207641 254.656326 
L 168.981363 257.901345 
L 171.755085 261.146364 
L 174.528807 264.391383 
L 177.302529 267.636402 
L 180.076251 270.88142 
L 182.849973 274.126439 
L 185.623695 277.371458 
L 188.397417 280.616477 
L 191.171139 283.861496 
L 193.944861 287.106514 
L 196.718584 290.351533 
L 199.492306 293.596552 
L 202.266028 296.841571 
L 205.03975 300.086589 
L 207.813472 303.331608 
L 210.587194 306.576627 
L 213.360916 309.821646 
L 216.134638 313.066665 
L 218.90836 316.311683 
L 221.682082 319.556702 
L 224.455804 322.801721 
L 227.229526 326.04674 
L 230.003248 329.291759 
L 232.77697 332.536777 
L 235.550693 335.781796 
L 238.324415 339.026815 
L 241.098137 342.271834 
L 243.871859 345.516853 
L 246.645581 348.761871 
L 249.419303 352.00689 
L 252.193025 355.251909 
L 254.966747 358.496928 
L 257.740469 361.741947 
L 260.514191 364.986965 
L 263.287913 368.231984 
L 266.061635 371.477003 
L 268.835357 374.722022 
L 271.609079 377.96704 
L 274.382801 381.212059 
L 277.156524 384.457078 
L 279.930246 387.702097 
L 282.703968 390.947116 
L 285.47769 394.192134 
L 288.251412 397.437153 
L 291.025134 400.682172 
L 293.798856 403.927191 
L 296.572578 407.17221 
L 299.3463 410.417228 
L 302.120022 413.662247 
L 304.893744 416.907266 
L 307.667466 420.152285 
L 310.441188 423.397304 
L 313.21491 426.642322 
L 315.988633 429.887341 
L 318.649218 433 
" style="fill:none;stroke:#471365;stroke-linecap:round;stroke-width:1.8;"/>
   </g>
   <g id="patch_3">
    <path d="M 49.85 389.9 
L 49.85 81.383333 
" style="fill:none;stroke:#262626;stroke-linecap:square;stroke-linejoin:miter;"/>
   </g>
   <g id="patch_4">
    <path d="M 49.85 389.9 
L 351.908333 389.9 
" style="fill:none;stroke:#262626;stroke-linecap:square;stroke-linejoin:miter;"/>
   </g>
   <g id="legend_1">
    <g id="patch_5">
     <path d="M 184.579083 101.340083 
L 345.748333 101.340083 
Q 347.508333 101.340083 347.508333 99.580083 
L 347.508333 87.543333 
Q 347.508333 85.783333 345.748333 85.783333 
L 184.579083 85.783333 
Q 182.819083 85.783333 182.819083 87.543333 
L 182.819083 99.580083 
Q 182.819083 101.340083 184.579083 101.340083 
z
" style="fill:#ffffff;opacity:0.8;stroke:#cccccc;stroke-linejoin:miter;stroke-width:0.8;"/>
    </g>
    <g id="line2d_14"/>
    <g id="line2d_15"/>
    <g id="text_15">
     <!-- pearsonr = -0.75; p = 3.3e-30 -->
     <defs>
      <path d="M 18.109375 8.203125 
L 18.109375 -20.796875 
L 9.078125 -20.796875 
L 9.078125 54.6875 
L 18.109375 54.6875 
L 18.109375 46.390625 
Q 20.953125 51.265625 25.265625 53.625 
Q 29.59375 56 35.59375 56 
Q 45.5625 56 51.78125 48.09375 
Q 58.015625 40.1875 58.015625 27.296875 
Q 58.015625 14.40625 51.78125 6.484375 
Q 45.5625 -1.421875 35.59375 -1.421875 
Q 29.59375 -1.421875 25.265625 0.953125 
Q 20.953125 3.328125 18.109375 8.203125 
z
M 48.6875 27.296875 
Q 48.6875 37.203125 44.609375 42.84375 
Q 40.53125 48.484375 33.40625 48.484375 
Q 26.265625 48.484375 22.1875 42.84375 
Q 18.109375 37.203125 18.109375 27.296875 
Q 18.109375 17.390625 22.1875 11.75 
Q 26.265625 6.109375 33.40625 6.109375 
Q 40.53125 6.109375 44.609375 11.75 
Q 48.6875 17.390625 48.6875 27.296875 
z
" id="DejaVuSans-70"/>
      <path d="M 44.28125 53.078125 
L 44.28125 44.578125 
Q 40.484375 46.53125 36.375 47.5 
Q 32.28125 48.484375 27.875 48.484375 
Q 21.1875 48.484375 17.84375 46.4375 
Q 14.5 44.390625 14.5 40.28125 
Q 14.5 37.15625 16.890625 35.375 
Q 19.28125 33.59375 26.515625 31.984375 
L 29.59375 31.296875 
Q 39.15625 29.25 43.1875 25.515625 
Q 47.21875 21.78125 47.21875 15.09375 
Q 47.21875 7.46875 41.1875 3.015625 
Q 35.15625 -1.421875 24.609375 -1.421875 
Q 20.21875 -1.421875 15.453125 -0.5625 
Q 10.6875 0.296875 5.421875 2 
L 5.421875 11.28125 
Q 10.40625 8.6875 15.234375 7.390625 
Q 20.0625 6.109375 24.8125 6.109375 
Q 31.15625 6.109375 34.5625 8.28125 
Q 37.984375 10.453125 37.984375 14.40625 
Q 37.984375 18.0625 35.515625 20.015625 
Q 33.0625 21.96875 24.703125 23.78125 
L 21.578125 24.515625 
Q 13.234375 26.265625 9.515625 29.90625 
Q 5.8125 33.546875 5.8125 39.890625 
Q 5.8125 47.609375 11.28125 51.796875 
Q 16.75 56 26.8125 56 
Q 31.78125 56 36.171875 55.265625 
Q 40.578125 54.546875 44.28125 53.078125 
z
" id="DejaVuSans-73"/>
      <path d="M 10.59375 45.40625 
L 73.1875 45.40625 
L 73.1875 37.203125 
L 10.59375 37.203125 
z
M 10.59375 25.484375 
L 73.1875 25.484375 
L 73.1875 17.1875 
L 10.59375 17.1875 
z
" id="DejaVuSans-3d"/>
      <path d="M 10.6875 12.40625 
L 21 12.40625 
L 21 0 
L 10.6875 0 
z
" id="DejaVuSans-2e"/>
      <path d="M 8.203125 72.90625 
L 55.078125 72.90625 
L 55.078125 68.703125 
L 28.609375 0 
L 18.3125 0 
L 43.21875 64.59375 
L 8.203125 64.59375 
z
" id="DejaVuSans-37"/>
      <path d="M 10.796875 72.90625 
L 49.515625 72.90625 
L 49.515625 64.59375 
L 19.828125 64.59375 
L 19.828125 46.734375 
Q 21.96875 47.46875 24.109375 47.828125 
Q 26.265625 48.1875 28.421875 48.1875 
Q 40.625 48.1875 47.75 41.5 
Q 54.890625 34.8125 54.890625 23.390625 
Q 54.890625 11.625 47.5625 5.09375 
Q 40.234375 -1.421875 26.90625 -1.421875 
Q 22.3125 -1.421875 17.546875 -0.640625 
Q 12.796875 0.140625 7.71875 1.703125 
L 7.71875 11.625 
Q 12.109375 9.234375 16.796875 8.0625 
Q 21.484375 6.890625 26.703125 6.890625 
Q 35.15625 6.890625 40.078125 11.328125 
Q 45.015625 15.765625 45.015625 23.390625 
Q 45.015625 31 40.078125 35.4375 
Q 35.15625 39.890625 26.703125 39.890625 
Q 22.75 39.890625 18.8125 39.015625 
Q 14.890625 38.140625 10.796875 36.28125 
z
" id="DejaVuSans-35"/>
      <path d="M 11.71875 51.703125 
L 22.015625 51.703125 
L 22.015625 39.3125 
L 11.71875 39.3125 
z
M 11.71875 12.40625 
L 22.015625 12.40625 
L 22.015625 4 
L 14.015625 -11.625 
L 7.71875 -11.625 
L 11.71875 4 
z
" id="DejaVuSans-3b"/>
      <path d="M 40.578125 39.3125 
Q 47.65625 37.796875 51.625 33 
Q 55.609375 28.21875 55.609375 21.1875 
Q 55.609375 10.40625 48.1875 4.484375 
Q 40.765625 -1.421875 27.09375 -1.421875 
Q 22.515625 -1.421875 17.65625 -0.515625 
Q 12.796875 0.390625 7.625 2.203125 
L 7.625 11.71875 
Q 11.71875 9.328125 16.59375 8.109375 
Q 21.484375 6.890625 26.8125 6.890625 
Q 36.078125 6.890625 40.9375 10.546875 
Q 45.796875 14.203125 45.796875 21.1875 
Q 45.796875 27.640625 41.28125 31.265625 
Q 36.765625 34.90625 28.71875 34.90625 
L 20.21875 34.90625 
L 20.21875 43.015625 
L 29.109375 43.015625 
Q 36.375 43.015625 40.234375 45.921875 
Q 44.09375 48.828125 44.09375 54.296875 
Q 44.09375 59.90625 40.109375 62.90625 
Q 36.140625 65.921875 28.71875 65.921875 
Q 24.65625 65.921875 20.015625 65.03125 
Q 15.375 64.15625 9.8125 62.3125 
L 9.8125 71.09375 
Q 15.4375 72.65625 20.34375 73.4375 
Q 25.25 74.21875 29.59375 74.21875 
Q 40.828125 74.21875 47.359375 69.109375 
Q 53.90625 64.015625 53.90625 55.328125 
Q 53.90625 49.265625 50.4375 45.09375 
Q 46.96875 40.921875 40.578125 39.3125 
z
" id="DejaVuSans-33"/>
     </defs>
     <g style="fill:#262626;" transform="translate(210.979083 95.989958)scale(0.088 -0.088)">
      <use xlink:href="#DejaVuSans-70"/>
      <use x="63.476562" xlink:href="#DejaVuSans-65"/>
      <use x="125" xlink:href="#DejaVuSans-61"/>
      <use x="186.279297" xlink:href="#DejaVuSans-72"/>
      <use x="227.392578" xlink:href="#DejaVuSans-73"/>
      <use x="279.492188" xlink:href="#DejaVuSans-6f"/>
      <use x="340.673828" xlink:href="#DejaVuSans-6e"/>
      <use x="404.052734" xlink:href="#DejaVuSans-72"/>
      <use x="445.166016" xlink:href="#DejaVuSans-20"/>
      <use x="476.953125" xlink:href="#DejaVuSans-3d"/>
      <use x="560.742188" xlink:href="#DejaVuSans-20"/>
      <use x="592.529297" xlink:href="#DejaVuSans-2d"/>
      <use x="628.613281" xlink:href="#DejaVuSans-30"/>
      <use x="692.236328" xlink:href="#DejaVuSans-2e"/>
      <use x="724.023438" xlink:href="#DejaVuSans-37"/>
      <use x="787.646484" xlink:href="#DejaVuSans-35"/>
      <use x="851.269531" xlink:href="#DejaVuSans-3b"/>
      <use x="884.960938" xlink:href="#DejaVuSans-20"/>
      <use x="916.748047" xlink:href="#DejaVuSans-70"/>
      <use x="980.224609" xlink:href="#DejaVuSans-20"/>
      <use x="1012.011719" xlink:href="#DejaVuSans-3d"/>
      <use x="1095.800781" xlink:href="#DejaVuSans-20"/>
      <use x="1127.587891" xlink:href="#DejaVuSans-33"/>
      <use x="1191.210938" xlink:href="#DejaVuSans-2e"/>
      <use x="1222.998047" xlink:href="#DejaVuSans-33"/>
      <use x="1286.621094" xlink:href="#DejaVuSans-65"/>
      <use x="1348.144531" xlink:href="#DejaVuSans-2d"/>
      <use x="1384.228516" xlink:href="#DejaVuSans-33"/>
      <use x="1447.851562" xlink:href="#DejaVuSans-30"/>
     </g>
    </g>
   </g>
  </g>
  <g id="axes_2">
   <g id="patch_6">
    <path d="M 49.85 60.983333 
L 351.908333 60.983333 
L 351.908333 15.6 
L 49.85 15.6 
z
" style="fill:#ffffff;"/>
   </g>
   <g id="matplotlib.axis_3">
    <g id="xtick_7">
     <g id="line2d_16">
      <g>
       <use style="fill:#262626;stroke:#262626;" x="69.963363" xlink:href="#md4b97f1afc" y="60.983333"/>
      </g>
     </g>
    </g>
    <g id="xtick_8">
     <g id="line2d_17">
      <g>
       <use style="fill:#262626;stroke:#262626;" x="124.132386" xlink:href="#md4b97f1afc" y="60.983333"/>
      </g>
     </g>
    </g>
    <g id="xtick_9">
     <g id="line2d_18">
      <g>
       <use style="fill:#262626;stroke:#262626;" x="178.301408" xlink:href="#md4b97f1afc" y="60.983333"/>
      </g>
     </g>
    </g>
    <g id="xtick_10">
     <g id="line2d_19">
      <g>
       <use style="fill:#262626;stroke:#262626;" x="232.470431" xlink:href="#md4b97f1afc" y="60.983333"/>
      </g>
     </g>
    </g>
    <g id="xtick_11">
     <g id="line2d_20">
      <g>
       <use style="fill:#262626;stroke:#262626;" x="286.639453" xlink:href="#md4b97f1afc" y="60.983333"/>
      </g>
     </g>
    </g>
    <g id="xtick_12">
     <g id="line2d_21">
      <g>
       <use style="fill:#262626;stroke:#262626;" x="340.808476" xlink:href="#md4b97f1afc" y="60.983333"/>
      </g>
     </g>
    </g>
   </g>
   <g id="matplotlib.axis_4">
    <g id="ytick_7"/>
    <g id="ytick_8"/>
   </g>
   <g id="patch_7">
    <path clip-path="url(#p318c8335d6)" d="M 114.930591 60.983333 
L 130.557605 60.983333 
L 130.557605 30.110317 
L 114.930591 30.110317 
z
" style="fill:#471365;opacity:0.4;stroke:#ffffff;stroke-linejoin:miter;stroke-width:0.8;"/>
   </g>
   <g id="patch_8">
    <path clip-path="url(#p318c8335d6)" d="M 130.557605 60.983333 
L 146.184618 60.983333 
L 146.184618 17.761111 
L 130.557605 17.761111 
z
" style="fill:#471365;opacity:0.4;stroke:#ffffff;stroke-linejoin:miter;stroke-width:0.8;"/>
   </g>
   <g id="patch_9">
    <path clip-path="url(#p318c8335d6)" d="M 146.184618 60.983333 
L 161.811632 60.983333 
L 161.811632 35.25582 
L 146.184618 35.25582 
z
" style="fill:#471365;opacity:0.4;stroke:#ffffff;stroke-linejoin:miter;stroke-width:0.8;"/>
   </g>
   <g id="patch_10">
    <path clip-path="url(#p318c8335d6)" d="M 161.811632 60.983333 
L 177.438646 60.983333 
L 177.438646 38.343122 
L 161.811632 38.343122 
z
" style="fill:#471365;opacity:0.4;stroke:#ffffff;stroke-linejoin:miter;stroke-width:0.8;"/>
   </g>
   <g id="patch_11">
    <path clip-path="url(#p318c8335d6)" d="M 177.438646 60.983333 
L 193.06566 60.983333 
L 193.06566 45.546825 
L 177.438646 45.546825 
z
" style="fill:#471365;opacity:0.4;stroke:#ffffff;stroke-linejoin:miter;stroke-width:0.8;"/>
   </g>
   <g id="patch_12">
    <path clip-path="url(#p318c8335d6)" d="M 193.06566 60.983333 
L 208.692674 60.983333 
L 208.692674 50.692328 
L 193.06566 50.692328 
z
" style="fill:#471365;opacity:0.4;stroke:#ffffff;stroke-linejoin:miter;stroke-width:0.8;"/>
   </g>
   <g id="patch_13">
    <path clip-path="url(#p318c8335d6)" d="M 208.692674 60.983333 
L 224.319687 60.983333 
L 224.319687 55.837831 
L 208.692674 55.837831 
z
" style="fill:#471365;opacity:0.4;stroke:#ffffff;stroke-linejoin:miter;stroke-width:0.8;"/>
   </g>
   <g id="patch_14">
    <path clip-path="url(#p318c8335d6)" d="M 224.319687 60.983333 
L 239.946701 60.983333 
L 239.946701 54.80873 
L 224.319687 54.80873 
z
" style="fill:#471365;opacity:0.4;stroke:#ffffff;stroke-linejoin:miter;stroke-width:0.8;"/>
   </g>
   <g id="patch_15">
    <path clip-path="url(#p318c8335d6)" d="M 239.946701 60.983333 
L 255.573715 60.983333 
L 255.573715 58.925132 
L 239.946701 58.925132 
z
" style="fill:#471365;opacity:0.4;stroke:#ffffff;stroke-linejoin:miter;stroke-width:0.8;"/>
   </g>
   <g id="patch_16">
    <path clip-path="url(#p318c8335d6)" d="M 255.573715 60.983333 
L 271.200729 60.983333 
L 271.200729 58.925132 
L 255.573715 58.925132 
z
" style="fill:#471365;opacity:0.4;stroke:#ffffff;stroke-linejoin:miter;stroke-width:0.8;"/>
   </g>
   <g id="patch_17">
    <path clip-path="url(#p318c8335d6)" d="M 271.200729 60.983333 
L 286.827743 60.983333 
L 286.827743 58.925132 
L 271.200729 58.925132 
z
" style="fill:#471365;opacity:0.4;stroke:#ffffff;stroke-linejoin:miter;stroke-width:0.8;"/>
   </g>
   <g id="line2d_22">
    <path clip-path="url(#p318c8335d6)" d="M 76.061674 60.956374 
L 78.583239 60.931999 
L 81.104805 60.888774 
L 83.62637 60.814787 
L 86.147936 60.692554 
L 88.669501 60.497628 
L 91.191067 60.197576 
L 93.712632 59.751742 
L 96.234198 59.112312 
L 98.755763 58.227132 
L 101.277329 57.044515 
L 103.798894 55.519929 
L 106.32046 53.623973 
L 108.842025 51.350558 
L 111.363591 48.723862 
L 113.885156 45.802493 
L 116.406722 42.679521 
L 118.928287 39.477628 
L 121.449853 36.339422 
L 123.971418 33.413908 
L 126.492984 30.840928 
L 129.014549 28.735916 
L 131.536115 27.177426 
L 134.05768 26.199519 
L 136.579246 25.790287 
L 139.100811 25.89671 
L 141.622377 26.434878 
L 144.143943 27.303615 
L 146.665508 28.398987 
L 149.187074 29.627142 
L 151.708639 30.913417 
L 154.230205 32.206623 
L 156.75177 33.478453 
L 159.273336 34.718996 
L 161.794901 35.930007 
L 164.316467 37.117802 
L 166.838032 38.287434 
L 169.359598 39.439221 
L 171.881163 40.567939 
L 174.402729 41.664259 
L 176.924294 42.717474 
L 179.44586 43.718419 
L 181.967425 44.661618 
L 184.488991 45.546174 
L 187.010556 46.375406 
L 189.532122 47.155668 
L 192.053687 47.894933 
L 194.575253 48.601596 
L 197.096818 49.283676 
L 199.618384 49.94828 
L 202.139949 50.601061 
L 204.661515 51.245465 
L 207.18308 51.881805 
L 209.704646 52.506502 
L 212.226211 53.111923 
L 214.747777 53.687235 
L 217.269343 54.220308 
L 219.790908 54.700373 
L 222.312474 55.120737 
L 224.834039 55.48078 
L 227.355605 55.786584 
L 229.87717 56.049962 
L 232.398736 56.286115 
L 234.920301 56.510546 
L 237.441867 56.736075 
L 239.963432 56.970681 
L 242.484998 57.21664 
L 245.006563 57.47101 
L 247.528129 57.727161 
L 250.049694 57.976814 
L 252.57126 58.212023 
L 255.092825 58.426658 
L 257.614391 58.617159 
L 260.135956 58.782603 
L 262.657522 58.92426 
L 265.179087 59.044956 
L 267.700653 59.148472 
L 270.222218 59.239131 
L 272.743784 59.321584 
L 275.265349 59.40066 
L 277.786915 59.481166 
L 280.30848 59.56752 
L 282.830046 59.663219 
L 285.351612 59.770271 
L 287.873177 59.88875 
L 290.394743 60.016656 
L 292.916308 60.150157 
L 295.437874 60.284193 
L 297.959439 60.413302 
L 300.481005 60.532474 
L 303.00257 60.637844 
L 305.524136 60.727099 
L 308.045701 60.799552 
L 310.567267 60.855938 
L 313.088832 60.898028 
L 315.610398 60.928176 
L 318.131963 60.948908 
L 320.653529 60.962598 
L 323.175094 60.971283 
L 325.69666 60.976578 
" style="fill:none;stroke:#471365;stroke-linecap:round;stroke-width:1.2;"/>
   </g>
   <g id="patch_18">
    <path d="M 49.85 60.983333 
L 351.908333 60.983333 
" style="fill:none;stroke:#262626;stroke-linecap:square;stroke-linejoin:miter;"/>
   </g>
  </g>
  <g id="axes_3">
   <g id="patch_19">
    <path d="M 372.308333 389.9 
L 416.4 389.9 
L 416.4 81.383333 
L 372.308333 81.383333 
z
" style="fill:#ffffff;"/>
   </g>
   <g id="matplotlib.axis_5">
    <g id="xtick_13"/>
    <g id="xtick_14"/>
   </g>
   <g id="matplotlib.axis_6">
    <g id="ytick_9">
     <g id="line2d_23">
      <g>
       <use style="fill:#262626;stroke:#262626;" x="372.308333" xlink:href="#m9870e27c3a" y="389.9"/>
      </g>
     </g>
    </g>
    <g id="ytick_10">
     <g id="line2d_24">
      <g>
       <use style="fill:#262626;stroke:#262626;" x="372.308333" xlink:href="#m9870e27c3a" y="333.806061"/>
      </g>
     </g>
    </g>
    <g id="ytick_11">
     <g id="line2d_25">
      <g>
       <use style="fill:#262626;stroke:#262626;" x="372.308333" xlink:href="#m9870e27c3a" y="277.712121"/>
      </g>
     </g>
    </g>
    <g id="ytick_12">
     <g id="line2d_26">
      <g>
       <use style="fill:#262626;stroke:#262626;" x="372.308333" xlink:href="#m9870e27c3a" y="221.618182"/>
      </g>
     </g>
    </g>
    <g id="ytick_13">
     <g id="line2d_27">
      <g>
       <use style="fill:#262626;stroke:#262626;" x="372.308333" xlink:href="#m9870e27c3a" y="165.524242"/>
      </g>
     </g>
    </g>
    <g id="ytick_14">
     <g id="line2d_28">
      <g>
       <use style="fill:#262626;stroke:#262626;" x="372.308333" xlink:href="#m9870e27c3a" y="109.430303"/>
      </g>
     </g>
    </g>
   </g>
   <g id="patch_20">
    <path clip-path="url(#p4085d10c79)" d="M 372.308333 345.808627 
L 381.306633 345.808627 
L 381.306633 316.293994 
L 372.308333 316.293994 
z
" style="fill:#471365;opacity:0.4;stroke:#ffffff;stroke-linejoin:miter;stroke-width:0.8;"/>
   </g>
   <g id="patch_21">
    <path clip-path="url(#p4085d10c79)" d="M 372.308333 316.293994 
L 414.300397 316.293994 
L 414.300397 286.779361 
L 372.308333 286.779361 
z
" style="fill:#471365;opacity:0.4;stroke:#ffffff;stroke-linejoin:miter;stroke-width:0.8;"/>
   </g>
   <g id="patch_22">
    <path clip-path="url(#p4085d10c79)" d="M 372.308333 286.779361 
L 405.302098 286.779361 
L 405.302098 257.264728 
L 372.308333 257.264728 
z
" style="fill:#471365;opacity:0.4;stroke:#ffffff;stroke-linejoin:miter;stroke-width:0.8;"/>
   </g>
   <g id="patch_23">
    <path clip-path="url(#p4085d10c79)" d="M 372.308333 257.264728 
L 395.303987 257.264728 
L 395.303987 227.750095 
L 372.308333 227.750095 
z
" style="fill:#471365;opacity:0.4;stroke:#ffffff;stroke-linejoin:miter;stroke-width:0.8;"/>
   </g>
   <g id="patch_24">
    <path clip-path="url(#p4085d10c79)" d="M 372.308333 227.750095 
L 397.303609 227.750095 
L 397.303609 198.235462 
L 372.308333 198.235462 
z
" style="fill:#471365;opacity:0.4;stroke:#ffffff;stroke-linejoin:miter;stroke-width:0.8;"/>
   </g>
   <g id="patch_25">
    <path clip-path="url(#p4085d10c79)" d="M 372.308333 198.235462 
L 383.306255 198.235462 
L 383.306255 168.720829 
L 372.308333 168.720829 
z
" style="fill:#471365;opacity:0.4;stroke:#ffffff;stroke-linejoin:miter;stroke-width:0.8;"/>
   </g>
   <g id="patch_26">
    <path clip-path="url(#p4085d10c79)" d="M 372.308333 168.720829 
L 382.306444 168.720829 
L 382.306444 139.206196 
L 372.308333 139.206196 
z
" style="fill:#471365;opacity:0.4;stroke:#ffffff;stroke-linejoin:miter;stroke-width:0.8;"/>
   </g>
   <g id="patch_27">
    <path clip-path="url(#p4085d10c79)" d="M 372.308333 139.206196 
L 380.306822 139.206196 
L 380.306822 109.691562 
L 372.308333 109.691562 
z
" style="fill:#471365;opacity:0.4;stroke:#ffffff;stroke-linejoin:miter;stroke-width:0.8;"/>
   </g>
   <g id="line2d_29">
    <path clip-path="url(#p4085d10c79)" d="M 372.320578 406.535212 
L 372.329468 402.923392 
L 372.343814 399.311571 
L 372.366314 395.699751 
L 372.400642 392.08793 
L 372.451658 388.476109 
L 372.525617 384.864289 
L 372.630388 381.252468 
L 372.775694 377.640648 
L 372.973388 374.028827 
L 373.237758 370.417007 
L 373.585859 366.805186 
L 374.037778 363.193366 
L 374.61669 359.581545 
L 375.348507 355.969724 
L 376.260864 352.357904 
L 377.381232 348.746083 
L 378.734049 345.134263 
L 380.336985 341.522442 
L 382.196684 337.910622 
L 384.304629 334.298801 
L 386.633939 330.686981 
L 389.137937 327.07516 
L 391.751163 323.463339 
L 394.393116 319.851519 
L 396.974476 316.239698 
L 399.405035 312.627878 
L 401.602123 309.016057 
L 403.498134 305.404237 
L 405.045891 301.792416 
L 406.221033 298.180596 
L 407.021223 294.568775 
L 407.462664 290.956954 
L 407.574926 287.345134 
L 407.395355 283.733313 
L 406.964238 280.121493 
L 406.321528 276.509672 
L 405.505406 272.897852 
L 404.552393 269.286031 
L 403.498375 265.67421 
L 402.379736 262.06239 
L 401.233916 258.450569 
L 400.098972 254.838749 
L 399.01209 251.226928 
L 398.007245 247.615108 
L 397.112432 244.003287 
L 396.346932 240.391467 
L 395.719027 236.779646 
L 395.224539 233.167825 
L 394.846439 229.556005 
L 394.555742 225.944184 
L 394.313754 222.332364 
L 394.075658 218.720543 
L 393.795191 215.108723 
L 393.429972 211.496902 
L 392.946798 207.885082 
L 392.326115 204.273261 
L 391.564887 200.66144 
L 390.677245 197.04962 
L 389.692699 193.437799 
L 388.652076 189.825979 
L 387.601828 186.214158 
L 386.587639 182.602338 
L 385.648416 178.990517 
L 384.811674 175.378697 
L 384.091017 171.766876 
L 383.486008 168.155055 
L 382.984244 164.543235 
L 382.565021 160.931414 
L 382.203727 157.319594 
L 381.876017 153.707773 
L 381.560989 150.095953 
L 381.2429 146.484132 
L 380.911376 142.872312 
L 380.560428 139.260491 
L 380.186866 135.64867 
L 379.788738 132.03685 
L 379.364327 128.425029 
L 378.91196 124.813209 
L 378.430575 121.201388 
L 377.920765 117.589568 
L 377.385845 113.977747 
L 376.832532 110.365927 
L 376.270959 106.754106 
L 375.71394 103.142285 
L 375.17564 99.530465 
L 374.669936 95.918644 
L 374.208809 92.306824 
L 373.801092 88.695003 
L 373.451756 85.083183 
L 373.16181 81.471362 
L 372.928733 77.859542 
L 372.747283 74.247721 
L 372.610484 70.6359 
L 372.5106 67.02408 
L 372.439967 63.412259 
L 372.391591 59.800439 
L 372.359498 56.188618 
L 372.338876 52.576798 
L 372.32604 48.964977 
" style="fill:none;stroke:#471365;stroke-linecap:round;stroke-width:1.2;"/>
   </g>
   <g id="patch_28">
    <path d="M 372.308333 389.9 
L 372.308333 81.383333 
" style="fill:none;stroke:#262626;stroke-linecap:square;stroke-linejoin:miter;"/>
   </g>
  </g>
 </g>
 <defs>
  <clipPath id="pbc745405e9">
   <rect height="308.516667" width="302.058333" x="49.85" y="81.383333"/>
  </clipPath>
  <clipPath id="p318c8335d6">
   <rect height="45.383333" width="302.058333" x="49.85" y="15.6"/>
  </clipPath>
  <clipPath id="p4085d10c79">
   <rect height="308.516667" width="44.091667" x="372.308333" y="81.383333"/>
  </clipPath>
 </defs>
</svg>
