<?xml version="1.0" encoding="utf-8" standalone="no"?>
<!DOCTYPE svg PUBLIC "-//W3C//DTD SVG 1.1//EN"
  "http://www.w3.org/Graphics/SVG/1.1/DTD/svg11.dtd">
<!-- Created with matplotlib (http://matplotlib.org/) -->
<svg height="432pt" version="1.1" viewBox="0 0 432 432" width="432pt" xmlns="http://www.w3.org/2000/svg" xmlns:xlink="http://www.w3.org/1999/xlink">
 <defs>
  <style type="text/css">
*{stroke-linecap:butt;stroke-linejoin:round;}
  </style>
 </defs>
 <g id="figure_1">
  <g id="patch_1">
   <path d="M 0 432 
L 432 432 
L 432 0 
L 0 0 
z
" style="fill:#ffffff;"/>
  </g>
  <g id="axes_1">
   <g id="patch_2">
    <path d="M 49.85 389.9 
L 351.908333 389.9 
L 351.908333 81.383333 
L 49.85 81.383333 
z
" style="fill:#ffffff;"/>
   </g>
   <g id="matplotlib.axis_1">
    <g id="xtick_1">
     <g id="line2d_1">
      <defs>
       <path d="M 0 0 
L 0 4.8 
" id="m83d87ffef6" style="stroke:#262626;"/>
      </defs>
      <g>
       <use style="fill:#262626;stroke:#262626;" x="61.632369" xlink:href="#m83d87ffef6" y="389.9"/>
      </g>
     </g>
     <g id="text_1">
      <!-- 9.0 -->
      <defs>
       <path d="M 10.984375 1.515625 
L 10.984375 10.5 
Q 14.703125 8.734375 18.5 7.8125 
Q 22.3125 6.890625 25.984375 6.890625 
Q 35.75 6.890625 40.890625 13.453125 
Q 46.046875 20.015625 46.78125 33.40625 
Q 43.953125 29.203125 39.59375 26.953125 
Q 35.25 24.703125 29.984375 24.703125 
Q 19.046875 24.703125 12.671875 31.3125 
Q 6.296875 37.9375 6.296875 49.421875 
Q 6.296875 60.640625 12.9375 67.421875 
Q 19.578125 74.21875 30.609375 74.21875 
Q 43.265625 74.21875 49.921875 64.515625 
Q 56.59375 54.828125 56.59375 36.375 
Q 56.59375 19.140625 48.40625 8.859375 
Q 40.234375 -1.421875 26.421875 -1.421875 
Q 22.703125 -1.421875 18.890625 -0.6875 
Q 15.09375 0.046875 10.984375 1.515625 
z
M 30.609375 32.421875 
Q 37.25 32.421875 41.125 36.953125 
Q 45.015625 41.5 45.015625 49.421875 
Q 45.015625 57.28125 41.125 61.84375 
Q 37.25 66.40625 30.609375 66.40625 
Q 23.96875 66.40625 20.09375 61.84375 
Q 16.21875 57.28125 16.21875 49.421875 
Q 16.21875 41.5 20.09375 36.953125 
Q 23.96875 32.421875 30.609375 32.421875 
z
" id="DejaVuSans-39"/>
       <path d="M 10.6875 12.40625 
L 21 12.40625 
L 21 0 
L 10.6875 0 
z
" id="DejaVuSans-2e"/>
       <path d="M 31.78125 66.40625 
Q 24.171875 66.40625 20.328125 58.90625 
Q 16.5 51.421875 16.5 36.375 
Q 16.5 21.390625 20.328125 13.890625 
Q 24.171875 6.390625 31.78125 6.390625 
Q 39.453125 6.390625 43.28125 13.890625 
Q 47.125 21.390625 47.125 36.375 
Q 47.125 51.421875 43.28125 58.90625 
Q 39.453125 66.40625 31.78125 66.40625 
z
M 31.78125 74.21875 
Q 44.046875 74.21875 50.515625 64.515625 
Q 56.984375 54.828125 56.984375 36.375 
Q 56.984375 17.96875 50.515625 8.265625 
Q 44.046875 -1.421875 31.78125 -1.421875 
Q 19.53125 -1.421875 13.0625 8.265625 
Q 6.59375 17.96875 6.59375 36.375 
Q 6.59375 54.828125 13.0625 64.515625 
Q 19.53125 74.21875 31.78125 74.21875 
z
" id="DejaVuSans-30"/>
      </defs>
      <g style="fill:#262626;" transform="translate(54.634994 404.886625)scale(0.088 -0.088)">
       <use xlink:href="#DejaVuSans-39"/>
       <use x="63.623047" xlink:href="#DejaVuSans-2e"/>
       <use x="95.410156" xlink:href="#DejaVuSans-30"/>
      </g>
     </g>
    </g>
    <g id="xtick_2">
     <g id="line2d_2">
      <g>
       <use style="fill:#262626;stroke:#262626;" x="123.98106" xlink:href="#m83d87ffef6" y="389.9"/>
      </g>
     </g>
     <g id="text_2">
      <!-- 9.5 -->
      <defs>
       <path d="M 10.796875 72.90625 
L 49.515625 72.90625 
L 49.515625 64.59375 
L 19.828125 64.59375 
L 19.828125 46.734375 
Q 21.96875 47.46875 24.109375 47.828125 
Q 26.265625 48.1875 28.421875 48.1875 
Q 40.625 48.1875 47.75 41.5 
Q 54.890625 34.8125 54.890625 23.390625 
Q 54.890625 11.625 47.5625 5.09375 
Q 40.234375 -1.421875 26.90625 -1.421875 
Q 22.3125 -1.421875 17.546875 -0.640625 
Q 12.796875 0.140625 7.71875 1.703125 
L 7.71875 11.625 
Q 12.109375 9.234375 16.796875 8.0625 
Q 21.484375 6.890625 26.703125 6.890625 
Q 35.15625 6.890625 40.078125 11.328125 
Q 45.015625 15.765625 45.015625 23.390625 
Q 45.015625 31 40.078125 35.4375 
Q 35.15625 39.890625 26.703125 39.890625 
Q 22.75 39.890625 18.8125 39.015625 
Q 14.890625 38.140625 10.796875 36.28125 
z
" id="DejaVuSans-35"/>
      </defs>
      <g style="fill:#262626;" transform="translate(116.983685 404.886625)scale(0.088 -0.088)">
       <use xlink:href="#DejaVuSans-39"/>
       <use x="63.623047" xlink:href="#DejaVuSans-2e"/>
       <use x="95.410156" xlink:href="#DejaVuSans-35"/>
      </g>
     </g>
    </g>
    <g id="xtick_3">
     <g id="line2d_3">
      <g>
       <use style="fill:#262626;stroke:#262626;" x="186.329752" xlink:href="#m83d87ffef6" y="389.9"/>
      </g>
     </g>
     <g id="text_3">
      <!-- 10.0 -->
      <defs>
       <path d="M 12.40625 8.296875 
L 28.515625 8.296875 
L 28.515625 63.921875 
L 10.984375 60.40625 
L 10.984375 69.390625 
L 28.421875 72.90625 
L 38.28125 72.90625 
L 38.28125 8.296875 
L 54.390625 8.296875 
L 54.390625 0 
L 12.40625 0 
z
" id="DejaVuSans-31"/>
      </defs>
      <g style="fill:#262626;" transform="translate(176.532877 404.886625)scale(0.088 -0.088)">
       <use xlink:href="#DejaVuSans-31"/>
       <use x="63.623047" xlink:href="#DejaVuSans-30"/>
       <use x="127.246094" xlink:href="#DejaVuSans-2e"/>
       <use x="159.033203" xlink:href="#DejaVuSans-30"/>
      </g>
     </g>
    </g>
    <g id="xtick_4">
     <g id="line2d_4">
      <g>
       <use style="fill:#262626;stroke:#262626;" x="248.678443" xlink:href="#m83d87ffef6" y="389.9"/>
      </g>
     </g>
     <g id="text_4">
      <!-- 10.5 -->
      <g style="fill:#262626;" transform="translate(238.881568 404.886625)scale(0.088 -0.088)">
       <use xlink:href="#DejaVuSans-31"/>
       <use x="63.623047" xlink:href="#DejaVuSans-30"/>
       <use x="127.246094" xlink:href="#DejaVuSans-2e"/>
       <use x="159.033203" xlink:href="#DejaVuSans-35"/>
      </g>
     </g>
    </g>
    <g id="xtick_5">
     <g id="line2d_5">
      <g>
       <use style="fill:#262626;stroke:#262626;" x="311.027134" xlink:href="#m83d87ffef6" y="389.9"/>
      </g>
     </g>
     <g id="text_5">
      <!-- 11.0 -->
      <g style="fill:#262626;" transform="translate(301.230259 404.886625)scale(0.088 -0.088)">
       <use xlink:href="#DejaVuSans-31"/>
       <use x="63.623047" xlink:href="#DejaVuSans-31"/>
       <use x="127.246094" xlink:href="#DejaVuSans-2e"/>
       <use x="159.033203" xlink:href="#DejaVuSans-30"/>
      </g>
     </g>
    </g>
    <g id="text_6">
     <!-- log(n) -->
     <defs>
      <path d="M 9.421875 75.984375 
L 18.40625 75.984375 
L 18.40625 0 
L 9.421875 0 
z
" id="DejaVuSans-6c"/>
      <path d="M 30.609375 48.390625 
Q 23.390625 48.390625 19.1875 42.75 
Q 14.984375 37.109375 14.984375 27.296875 
Q 14.984375 17.484375 19.15625 11.84375 
Q 23.34375 6.203125 30.609375 6.203125 
Q 37.796875 6.203125 41.984375 11.859375 
Q 46.1875 17.53125 46.1875 27.296875 
Q 46.1875 37.015625 41.984375 42.703125 
Q 37.796875 48.390625 30.609375 48.390625 
z
M 30.609375 56 
Q 42.328125 56 49.015625 48.375 
Q 55.71875 40.765625 55.71875 27.296875 
Q 55.71875 13.875 49.015625 6.21875 
Q 42.328125 -1.421875 30.609375 -1.421875 
Q 18.84375 -1.421875 12.171875 6.21875 
Q 5.515625 13.875 5.515625 27.296875 
Q 5.515625 40.765625 12.171875 48.375 
Q 18.84375 56 30.609375 56 
z
" id="DejaVuSans-6f"/>
      <path d="M 45.40625 27.984375 
Q 45.40625 37.75 41.375 43.109375 
Q 37.359375 48.484375 30.078125 48.484375 
Q 22.859375 48.484375 18.828125 43.109375 
Q 14.796875 37.75 14.796875 27.984375 
Q 14.796875 18.265625 18.828125 12.890625 
Q 22.859375 7.515625 30.078125 7.515625 
Q 37.359375 7.515625 41.375 12.890625 
Q 45.40625 18.265625 45.40625 27.984375 
z
M 54.390625 6.78125 
Q 54.390625 -7.171875 48.1875 -13.984375 
Q 42 -20.796875 29.203125 -20.796875 
Q 24.46875 -20.796875 20.265625 -20.09375 
Q 16.0625 -19.390625 12.109375 -17.921875 
L 12.109375 -9.1875 
Q 16.0625 -11.328125 19.921875 -12.34375 
Q 23.78125 -13.375 27.78125 -13.375 
Q 36.625 -13.375 41.015625 -8.765625 
Q 45.40625 -4.15625 45.40625 5.171875 
L 45.40625 9.625 
Q 42.625 4.78125 38.28125 2.390625 
Q 33.9375 0 27.875 0 
Q 17.828125 0 11.671875 7.65625 
Q 5.515625 15.328125 5.515625 27.984375 
Q 5.515625 40.671875 11.671875 48.328125 
Q 17.828125 56 27.875 56 
Q 33.9375 56 38.28125 53.609375 
Q 42.625 51.21875 45.40625 46.390625 
L 45.40625 54.6875 
L 54.390625 54.6875 
z
" id="DejaVuSans-67"/>
      <path d="M 31 75.875 
Q 24.46875 64.65625 21.28125 53.65625 
Q 18.109375 42.671875 18.109375 31.390625 
Q 18.109375 20.125 21.3125 9.0625 
Q 24.515625 -2 31 -13.1875 
L 23.1875 -13.1875 
Q 15.875 -1.703125 12.234375 9.375 
Q 8.59375 20.453125 8.59375 31.390625 
Q 8.59375 42.28125 12.203125 53.3125 
Q 15.828125 64.359375 23.1875 75.875 
z
" id="DejaVuSans-28"/>
      <path d="M 54.890625 33.015625 
L 54.890625 0 
L 45.90625 0 
L 45.90625 32.71875 
Q 45.90625 40.484375 42.875 44.328125 
Q 39.84375 48.1875 33.796875 48.1875 
Q 26.515625 48.1875 22.3125 43.546875 
Q 18.109375 38.921875 18.109375 30.90625 
L 18.109375 0 
L 9.078125 0 
L 9.078125 54.6875 
L 18.109375 54.6875 
L 18.109375 46.1875 
Q 21.34375 51.125 25.703125 53.5625 
Q 30.078125 56 35.796875 56 
Q 45.21875 56 50.046875 50.171875 
Q 54.890625 44.34375 54.890625 33.015625 
z
" id="DejaVuSans-6e"/>
      <path d="M 8.015625 75.875 
L 15.828125 75.875 
Q 23.140625 64.359375 26.78125 53.3125 
Q 30.421875 42.28125 30.421875 31.390625 
Q 30.421875 20.453125 26.78125 9.375 
Q 23.140625 -1.703125 15.828125 -13.1875 
L 8.015625 -13.1875 
Q 14.5 -2 17.703125 9.0625 
Q 20.90625 20.125 20.90625 31.390625 
Q 20.90625 42.671875 17.703125 53.65625 
Q 14.5 64.65625 8.015625 75.875 
z
" id="DejaVuSans-29"/>
     </defs>
     <g style="fill:#262626;" transform="translate(186.773917 418.01125)scale(0.096 -0.096)">
      <use xlink:href="#DejaVuSans-6c"/>
      <use x="27.783203" xlink:href="#DejaVuSans-6f"/>
      <use x="88.964844" xlink:href="#DejaVuSans-67"/>
      <use x="152.441406" xlink:href="#DejaVuSans-28"/>
      <use x="191.455078" xlink:href="#DejaVuSans-6e"/>
      <use x="254.833984" xlink:href="#DejaVuSans-29"/>
     </g>
    </g>
   </g>
   <g id="matplotlib.axis_2">
    <g id="ytick_1">
     <g id="line2d_6">
      <defs>
       <path d="M 0 0 
L -4.8 0 
" id="m6c8d034627" style="stroke:#262626;"/>
      </defs>
      <g>
       <use style="fill:#262626;stroke:#262626;" x="49.85" xlink:href="#m6c8d034627" y="389.9"/>
      </g>
     </g>
     <g id="text_7">
      <!-- 0 -->
      <g style="fill:#262626;" transform="translate(35.951 393.243313)scale(0.088 -0.088)">
       <use xlink:href="#DejaVuSans-30"/>
      </g>
     </g>
    </g>
    <g id="ytick_2">
     <g id="line2d_7">
      <g>
       <use style="fill:#262626;stroke:#262626;" x="49.85" xlink:href="#m6c8d034627" y="333.806061"/>
      </g>
     </g>
     <g id="text_8">
      <!-- 20 -->
      <defs>
       <path d="M 19.1875 8.296875 
L 53.609375 8.296875 
L 53.609375 0 
L 7.328125 0 
L 7.328125 8.296875 
Q 12.9375 14.109375 22.625 23.890625 
Q 32.328125 33.6875 34.8125 36.53125 
Q 39.546875 41.84375 41.421875 45.53125 
Q 43.3125 49.21875 43.3125 52.78125 
Q 43.3125 58.59375 39.234375 62.25 
Q 35.15625 65.921875 28.609375 65.921875 
Q 23.96875 65.921875 18.8125 64.3125 
Q 13.671875 62.703125 7.8125 59.421875 
L 7.8125 69.390625 
Q 13.765625 71.78125 18.9375 73 
Q 24.125 74.21875 28.421875 74.21875 
Q 39.75 74.21875 46.484375 68.546875 
Q 53.21875 62.890625 53.21875 53.421875 
Q 53.21875 48.921875 51.53125 44.890625 
Q 49.859375 40.875 45.40625 35.40625 
Q 44.1875 33.984375 37.640625 27.21875 
Q 31.109375 20.453125 19.1875 8.296875 
z
" id="DejaVuSans-32"/>
      </defs>
      <g style="fill:#262626;" transform="translate(30.352 337.149373)scale(0.088 -0.088)">
       <use xlink:href="#DejaVuSans-32"/>
       <use x="63.623047" xlink:href="#DejaVuSans-30"/>
      </g>
     </g>
    </g>
    <g id="ytick_3">
     <g id="line2d_8">
      <g>
       <use style="fill:#262626;stroke:#262626;" x="49.85" xlink:href="#m6c8d034627" y="277.712121"/>
      </g>
     </g>
     <g id="text_9">
      <!-- 40 -->
      <defs>
       <path d="M 37.796875 64.3125 
L 12.890625 25.390625 
L 37.796875 25.390625 
z
M 35.203125 72.90625 
L 47.609375 72.90625 
L 47.609375 25.390625 
L 58.015625 25.390625 
L 58.015625 17.1875 
L 47.609375 17.1875 
L 47.609375 0 
L 37.796875 0 
L 37.796875 17.1875 
L 4.890625 17.1875 
L 4.890625 26.703125 
z
" id="DejaVuSans-34"/>
      </defs>
      <g style="fill:#262626;" transform="translate(30.352 281.055434)scale(0.088 -0.088)">
       <use xlink:href="#DejaVuSans-34"/>
       <use x="63.623047" xlink:href="#DejaVuSans-30"/>
      </g>
     </g>
    </g>
    <g id="ytick_4">
     <g id="line2d_9">
      <g>
       <use style="fill:#262626;stroke:#262626;" x="49.85" xlink:href="#m6c8d034627" y="221.618182"/>
      </g>
     </g>
     <g id="text_10">
      <!-- 60 -->
      <defs>
       <path d="M 33.015625 40.375 
Q 26.375 40.375 22.484375 35.828125 
Q 18.609375 31.296875 18.609375 23.390625 
Q 18.609375 15.53125 22.484375 10.953125 
Q 26.375 6.390625 33.015625 6.390625 
Q 39.65625 6.390625 43.53125 10.953125 
Q 47.40625 15.53125 47.40625 23.390625 
Q 47.40625 31.296875 43.53125 35.828125 
Q 39.65625 40.375 33.015625 40.375 
z
M 52.59375 71.296875 
L 52.59375 62.3125 
Q 48.875 64.0625 45.09375 64.984375 
Q 41.3125 65.921875 37.59375 65.921875 
Q 27.828125 65.921875 22.671875 59.328125 
Q 17.53125 52.734375 16.796875 39.40625 
Q 19.671875 43.65625 24.015625 45.921875 
Q 28.375 48.1875 33.59375 48.1875 
Q 44.578125 48.1875 50.953125 41.515625 
Q 57.328125 34.859375 57.328125 23.390625 
Q 57.328125 12.15625 50.6875 5.359375 
Q 44.046875 -1.421875 33.015625 -1.421875 
Q 20.359375 -1.421875 13.671875 8.265625 
Q 6.984375 17.96875 6.984375 36.375 
Q 6.984375 53.65625 15.1875 63.9375 
Q 23.390625 74.21875 37.203125 74.21875 
Q 40.921875 74.21875 44.703125 73.484375 
Q 48.484375 72.75 52.59375 71.296875 
z
" id="DejaVuSans-36"/>
      </defs>
      <g style="fill:#262626;" transform="translate(30.352 224.961494)scale(0.088 -0.088)">
       <use xlink:href="#DejaVuSans-36"/>
       <use x="63.623047" xlink:href="#DejaVuSans-30"/>
      </g>
     </g>
    </g>
    <g id="ytick_5">
     <g id="line2d_10">
      <g>
       <use style="fill:#262626;stroke:#262626;" x="49.85" xlink:href="#m6c8d034627" y="165.524242"/>
      </g>
     </g>
     <g id="text_11">
      <!-- 80 -->
      <defs>
       <path d="M 31.78125 34.625 
Q 24.75 34.625 20.71875 30.859375 
Q 16.703125 27.09375 16.703125 20.515625 
Q 16.703125 13.921875 20.71875 10.15625 
Q 24.75 6.390625 31.78125 6.390625 
Q 38.8125 6.390625 42.859375 10.171875 
Q 46.921875 13.96875 46.921875 20.515625 
Q 46.921875 27.09375 42.890625 30.859375 
Q 38.875 34.625 31.78125 34.625 
z
M 21.921875 38.8125 
Q 15.578125 40.375 12.03125 44.71875 
Q 8.5 49.078125 8.5 55.328125 
Q 8.5 64.0625 14.71875 69.140625 
Q 20.953125 74.21875 31.78125 74.21875 
Q 42.671875 74.21875 48.875 69.140625 
Q 55.078125 64.0625 55.078125 55.328125 
Q 55.078125 49.078125 51.53125 44.71875 
Q 48 40.375 41.703125 38.8125 
Q 48.828125 37.15625 52.796875 32.3125 
Q 56.78125 27.484375 56.78125 20.515625 
Q 56.78125 9.90625 50.3125 4.234375 
Q 43.84375 -1.421875 31.78125 -1.421875 
Q 19.734375 -1.421875 13.25 4.234375 
Q 6.78125 9.90625 6.78125 20.515625 
Q 6.78125 27.484375 10.78125 32.3125 
Q 14.796875 37.15625 21.921875 38.8125 
z
M 18.3125 54.390625 
Q 18.3125 48.734375 21.84375 45.5625 
Q 25.390625 42.390625 31.78125 42.390625 
Q 38.140625 42.390625 41.71875 45.5625 
Q 45.3125 48.734375 45.3125 54.390625 
Q 45.3125 60.0625 41.71875 63.234375 
Q 38.140625 66.40625 31.78125 66.40625 
Q 25.390625 66.40625 21.84375 63.234375 
Q 18.3125 60.0625 18.3125 54.390625 
z
" id="DejaVuSans-38"/>
      </defs>
      <g style="fill:#262626;" transform="translate(30.352 168.867555)scale(0.088 -0.088)">
       <use xlink:href="#DejaVuSans-38"/>
       <use x="63.623047" xlink:href="#DejaVuSans-30"/>
      </g>
     </g>
    </g>
    <g id="ytick_6">
     <g id="line2d_11">
      <g>
       <use style="fill:#262626;stroke:#262626;" x="49.85" xlink:href="#m6c8d034627" y="109.430303"/>
      </g>
     </g>
     <g id="text_12">
      <!-- 100 -->
      <g style="fill:#262626;" transform="translate(24.753 112.773616)scale(0.088 -0.088)">
       <use xlink:href="#DejaVuSans-31"/>
       <use x="63.623047" xlink:href="#DejaVuSans-30"/>
       <use x="127.246094" xlink:href="#DejaVuSans-30"/>
      </g>
     </g>
    </g>
    <g id="text_13">
     <!-- Time to cancer -->
     <defs>
      <path d="M -0.296875 72.90625 
L 61.375 72.90625 
L 61.375 64.59375 
L 35.5 64.59375 
L 35.5 0 
L 25.59375 0 
L 25.59375 64.59375 
L -0.296875 64.59375 
z
" id="DejaVuSans-54"/>
      <path d="M 9.421875 54.6875 
L 18.40625 54.6875 
L 18.40625 0 
L 9.421875 0 
z
M 9.421875 75.984375 
L 18.40625 75.984375 
L 18.40625 64.59375 
L 9.421875 64.59375 
z
" id="DejaVuSans-69"/>
      <path d="M 52 44.1875 
Q 55.375 50.25 60.0625 53.125 
Q 64.75 56 71.09375 56 
Q 79.640625 56 84.28125 50.015625 
Q 88.921875 44.046875 88.921875 33.015625 
L 88.921875 0 
L 79.890625 0 
L 79.890625 32.71875 
Q 79.890625 40.578125 77.09375 44.375 
Q 74.3125 48.1875 68.609375 48.1875 
Q 61.625 48.1875 57.5625 43.546875 
Q 53.515625 38.921875 53.515625 30.90625 
L 53.515625 0 
L 44.484375 0 
L 44.484375 32.71875 
Q 44.484375 40.625 41.703125 44.40625 
Q 38.921875 48.1875 33.109375 48.1875 
Q 26.21875 48.1875 22.15625 43.53125 
Q 18.109375 38.875 18.109375 30.90625 
L 18.109375 0 
L 9.078125 0 
L 9.078125 54.6875 
L 18.109375 54.6875 
L 18.109375 46.1875 
Q 21.1875 51.21875 25.484375 53.609375 
Q 29.78125 56 35.6875 56 
Q 41.65625 56 45.828125 52.96875 
Q 50 49.953125 52 44.1875 
z
" id="DejaVuSans-6d"/>
      <path d="M 56.203125 29.59375 
L 56.203125 25.203125 
L 14.890625 25.203125 
Q 15.484375 15.921875 20.484375 11.0625 
Q 25.484375 6.203125 34.421875 6.203125 
Q 39.59375 6.203125 44.453125 7.46875 
Q 49.3125 8.734375 54.109375 11.28125 
L 54.109375 2.78125 
Q 49.265625 0.734375 44.1875 -0.34375 
Q 39.109375 -1.421875 33.890625 -1.421875 
Q 20.796875 -1.421875 13.15625 6.1875 
Q 5.515625 13.8125 5.515625 26.8125 
Q 5.515625 40.234375 12.765625 48.109375 
Q 20.015625 56 32.328125 56 
Q 43.359375 56 49.78125 48.890625 
Q 56.203125 41.796875 56.203125 29.59375 
z
M 47.21875 32.234375 
Q 47.125 39.59375 43.09375 43.984375 
Q 39.0625 48.390625 32.421875 48.390625 
Q 24.90625 48.390625 20.390625 44.140625 
Q 15.875 39.890625 15.1875 32.171875 
z
" id="DejaVuSans-65"/>
      <path id="DejaVuSans-20"/>
      <path d="M 18.3125 70.21875 
L 18.3125 54.6875 
L 36.8125 54.6875 
L 36.8125 47.703125 
L 18.3125 47.703125 
L 18.3125 18.015625 
Q 18.3125 11.328125 20.140625 9.421875 
Q 21.96875 7.515625 27.59375 7.515625 
L 36.8125 7.515625 
L 36.8125 0 
L 27.59375 0 
Q 17.1875 0 13.234375 3.875 
Q 9.28125 7.765625 9.28125 18.015625 
L 9.28125 47.703125 
L 2.6875 47.703125 
L 2.6875 54.6875 
L 9.28125 54.6875 
L 9.28125 70.21875 
z
" id="DejaVuSans-74"/>
      <path d="M 48.78125 52.59375 
L 48.78125 44.1875 
Q 44.96875 46.296875 41.140625 47.34375 
Q 37.3125 48.390625 33.40625 48.390625 
Q 24.65625 48.390625 19.8125 42.84375 
Q 14.984375 37.3125 14.984375 27.296875 
Q 14.984375 17.28125 19.8125 11.734375 
Q 24.65625 6.203125 33.40625 6.203125 
Q 37.3125 6.203125 41.140625 7.25 
Q 44.96875 8.296875 48.78125 10.40625 
L 48.78125 2.09375 
Q 45.015625 0.34375 40.984375 -0.53125 
Q 36.96875 -1.421875 32.421875 -1.421875 
Q 20.0625 -1.421875 12.78125 6.34375 
Q 5.515625 14.109375 5.515625 27.296875 
Q 5.515625 40.671875 12.859375 48.328125 
Q 20.21875 56 33.015625 56 
Q 37.15625 56 41.109375 55.140625 
Q 45.0625 54.296875 48.78125 52.59375 
z
" id="DejaVuSans-63"/>
      <path d="M 34.28125 27.484375 
Q 23.390625 27.484375 19.1875 25 
Q 14.984375 22.515625 14.984375 16.5 
Q 14.984375 11.71875 18.140625 8.90625 
Q 21.296875 6.109375 26.703125 6.109375 
Q 34.1875 6.109375 38.703125 11.40625 
Q 43.21875 16.703125 43.21875 25.484375 
L 43.21875 27.484375 
z
M 52.203125 31.203125 
L 52.203125 0 
L 43.21875 0 
L 43.21875 8.296875 
Q 40.140625 3.328125 35.546875 0.953125 
Q 30.953125 -1.421875 24.3125 -1.421875 
Q 15.921875 -1.421875 10.953125 3.296875 
Q 6 8.015625 6 15.921875 
Q 6 25.140625 12.171875 29.828125 
Q 18.359375 34.515625 30.609375 34.515625 
L 43.21875 34.515625 
L 43.21875 35.40625 
Q 43.21875 41.609375 39.140625 45 
Q 35.0625 48.390625 27.6875 48.390625 
Q 23 48.390625 18.546875 47.265625 
Q 14.109375 46.140625 10.015625 43.890625 
L 10.015625 52.203125 
Q 14.9375 54.109375 19.578125 55.046875 
Q 24.21875 56 28.609375 56 
Q 40.484375 56 46.34375 49.84375 
Q 52.203125 43.703125 52.203125 31.203125 
z
" id="DejaVuSans-61"/>
      <path d="M 41.109375 46.296875 
Q 39.59375 47.171875 37.8125 47.578125 
Q 36.03125 48 33.890625 48 
Q 26.265625 48 22.1875 43.046875 
Q 18.109375 38.09375 18.109375 28.8125 
L 18.109375 0 
L 9.078125 0 
L 9.078125 54.6875 
L 18.109375 54.6875 
L 18.109375 46.1875 
Q 20.953125 51.171875 25.484375 53.578125 
Q 30.03125 56 36.53125 56 
Q 37.453125 56 38.578125 55.875 
Q 39.703125 55.765625 41.0625 55.515625 
z
" id="DejaVuSans-72"/>
     </defs>
     <g style="fill:#262626;" transform="translate(18.7565 271.592167)rotate(-90)scale(0.096 -0.096)">
      <use xlink:href="#DejaVuSans-54"/>
      <use x="61.037109" xlink:href="#DejaVuSans-69"/>
      <use x="88.820312" xlink:href="#DejaVuSans-6d"/>
      <use x="186.232422" xlink:href="#DejaVuSans-65"/>
      <use x="247.755859" xlink:href="#DejaVuSans-20"/>
      <use x="279.542969" xlink:href="#DejaVuSans-74"/>
      <use x="318.751953" xlink:href="#DejaVuSans-6f"/>
      <use x="379.933594" xlink:href="#DejaVuSans-20"/>
      <use x="411.720703" xlink:href="#DejaVuSans-63"/>
      <use x="466.701172" xlink:href="#DejaVuSans-61"/>
      <use x="527.980469" xlink:href="#DejaVuSans-6e"/>
      <use x="591.359375" xlink:href="#DejaVuSans-63"/>
      <use x="646.339844" xlink:href="#DejaVuSans-65"/>
      <use x="707.863281" xlink:href="#DejaVuSans-72"/>
     </g>
    </g>
   </g>
   <g id="PathCollection_1">
    <defs>
     <path d="M 0 2.4 
C 0.636487 2.4 1.246992 2.147121 1.697056 1.697056 
C 2.147121 1.246992 2.4 0.636487 2.4 0 
C 2.4 -0.636487 2.147121 -1.246992 1.697056 -1.697056 
C 1.246992 -2.147121 0.636487 -2.4 0 -2.4 
C -0.636487 -2.4 -1.246992 -2.147121 -1.697056 -1.697056 
C -2.147121 -1.246992 -2.4 -0.636487 -2.4 0 
C -2.4 0.636487 -2.147121 1.246992 -1.697056 1.697056 
C -1.246992 2.147121 -0.636487 2.4 0 2.4 
z
" id="mbc94a59c33" style="stroke:#471365;stroke-opacity:0.8;"/>
    </defs>
    <g clip-path="url(#pc0ff74a179)">
     <use style="fill:#471365;fill-opacity:0.8;stroke:#471365;stroke-opacity:0.8;" x="278.896124" xlink:href="#mbc94a59c33" y="112.196579"/>
     <use style="fill:#471365;fill-opacity:0.8;stroke:#471365;stroke-opacity:0.8;" x="270.444666" xlink:href="#mbc94a59c33" y="151.915699"/>
     <use style="fill:#471365;fill-opacity:0.8;stroke:#471365;stroke-opacity:0.8;" x="254.160863" xlink:href="#mbc94a59c33" y="110.69818"/>
     <use style="fill:#471365;fill-opacity:0.8;stroke:#471365;stroke-opacity:0.8;" x="278.68341" xlink:href="#mbc94a59c33" y="160.007058"/>
     <use style="fill:#471365;fill-opacity:0.8;stroke:#471365;stroke-opacity:0.8;" x="254.204042" xlink:href="#mbc94a59c33" y="158.147505"/>
     <use style="fill:#471365;fill-opacity:0.8;stroke:#471365;stroke-opacity:0.8;" x="260.358314" xlink:href="#mbc94a59c33" y="115.001276"/>
     <use style="fill:#471365;fill-opacity:0.8;stroke:#471365;stroke-opacity:0.8;" x="290.695473" xlink:href="#mbc94a59c33" y="127.134472"/>
     <use style="fill:#471365;fill-opacity:0.8;stroke:#471365;stroke-opacity:0.8;" x="157.086873" xlink:href="#mbc94a59c33" y="111.059333"/>
     <use style="fill:#471365;fill-opacity:0.8;stroke:#471365;stroke-opacity:0.8;" x="287.227065" xlink:href="#mbc94a59c33" y="137.600218"/>
     <use style="fill:#471365;fill-opacity:0.8;stroke:#471365;stroke-opacity:0.8;" x="273.381752" xlink:href="#mbc94a59c33" y="109.522512"/>
     <use style="fill:#471365;fill-opacity:0.8;stroke:#471365;stroke-opacity:0.8;" x="249.893071" xlink:href="#mbc94a59c33" y="125.805123"/>
     <use style="fill:#471365;fill-opacity:0.8;stroke:#471365;stroke-opacity:0.8;" x="217.895734" xlink:href="#mbc94a59c33" y="141.373112"/>
     <use style="fill:#471365;fill-opacity:0.8;stroke:#471365;stroke-opacity:0.8;" x="287.974336" xlink:href="#mbc94a59c33" y="120.072783"/>
     <use style="fill:#471365;fill-opacity:0.8;stroke:#471365;stroke-opacity:0.8;" x="259.885618" xlink:href="#mbc94a59c33" y="140.942802"/>
     <use style="fill:#471365;fill-opacity:0.8;stroke:#471365;stroke-opacity:0.8;" x="288.885034" xlink:href="#mbc94a59c33" y="130.261902"/>
     <use style="fill:#471365;fill-opacity:0.8;stroke:#471365;stroke-opacity:0.8;" x="244.072916" xlink:href="#mbc94a59c33" y="115.600636"/>
     <use style="fill:#471365;fill-opacity:0.8;stroke:#471365;stroke-opacity:0.8;" x="248.689591" xlink:href="#mbc94a59c33" y="130.976523"/>
     <use style="fill:#471365;fill-opacity:0.8;stroke:#471365;stroke-opacity:0.8;" x="259.493333" xlink:href="#mbc94a59c33" y="145.130638"/>
     <use style="fill:#471365;fill-opacity:0.8;stroke:#471365;stroke-opacity:0.8;" x="266.782039" xlink:href="#mbc94a59c33" y="125.697545"/>
     <use style="fill:#471365;fill-opacity:0.8;stroke:#471365;stroke-opacity:0.8;" x="239.511315" xlink:href="#mbc94a59c33" y="145.222847"/>
     <use style="fill:#471365;fill-opacity:0.8;stroke:#471365;stroke-opacity:0.8;" x="245.701074" xlink:href="#mbc94a59c33" y="125.205763"/>
     <use style="fill:#471365;fill-opacity:0.8;stroke:#471365;stroke-opacity:0.8;" x="248.388315" xlink:href="#mbc94a59c33" y="145.315056"/>
     <use style="fill:#471365;fill-opacity:0.8;stroke:#471365;stroke-opacity:0.8;" x="282.026138" xlink:href="#mbc94a59c33" y="146.636721"/>
     <use style="fill:#471365;fill-opacity:0.8;stroke:#471365;stroke-opacity:0.8;" x="264.814322" xlink:href="#mbc94a59c33" y="111.005544"/>
     <use style="fill:#471365;fill-opacity:0.8;stroke:#471365;stroke-opacity:0.8;" x="271.128861" xlink:href="#mbc94a59c33" y="120.018995"/>
     <use style="fill:#471365;fill-opacity:0.8;stroke:#471365;stroke-opacity:0.8;" x="206.605449" xlink:href="#mbc94a59c33" y="130.246533"/>
     <use style="fill:#471365;fill-opacity:0.8;stroke:#471365;stroke-opacity:0.8;" x="258.380033" xlink:href="#mbc94a59c33" y="143.816656"/>
     <use style="fill:#471365;fill-opacity:0.8;stroke:#471365;stroke-opacity:0.8;" x="264.115763" xlink:href="#mbc94a59c33" y="131.099469"/>
     <use style="fill:#471365;fill-opacity:0.8;stroke:#471365;stroke-opacity:0.8;" x="230.146777" xlink:href="#mbc94a59c33" y="138.437785"/>
     <use style="fill:#471365;fill-opacity:0.8;stroke:#471365;stroke-opacity:0.8;" x="261.695743" xlink:href="#mbc94a59c33" y="146.982506"/>
     <use style="fill:#471365;fill-opacity:0.8;stroke:#471365;stroke-opacity:0.8;" x="286.095377" xlink:href="#mbc94a59c33" y="128.071933"/>
     <use style="fill:#471365;fill-opacity:0.8;stroke:#471365;stroke-opacity:0.8;" x="287.175137" xlink:href="#mbc94a59c33" y="142.441202"/>
     <use style="fill:#471365;fill-opacity:0.8;stroke:#471365;stroke-opacity:0.8;" x="273.491824" xlink:href="#mbc94a59c33" y="129.04013"/>
     <use style="fill:#471365;fill-opacity:0.8;stroke:#471365;stroke-opacity:0.8;" x="196.498005" xlink:href="#mbc94a59c33" y="114.747701"/>
     <use style="fill:#471365;fill-opacity:0.8;stroke:#471365;stroke-opacity:0.8;" x="242.612371" xlink:href="#mbc94a59c33" y="109.453355"/>
     <use style="fill:#471365;fill-opacity:0.8;stroke:#471365;stroke-opacity:0.8;" x="292.777284" xlink:href="#mbc94a59c33" y="149.518259"/>
     <use style="fill:#471365;fill-opacity:0.8;stroke:#471365;stroke-opacity:0.8;" x="292.355853" xlink:href="#mbc94a59c33" y="149.902465"/>
     <use style="fill:#471365;fill-opacity:0.8;stroke:#471365;stroke-opacity:0.8;" x="248.99794" xlink:href="#mbc94a59c33" y="120.318675"/>
     <use style="fill:#471365;fill-opacity:0.8;stroke:#471365;stroke-opacity:0.8;" x="276.262574" xlink:href="#mbc94a59c33" y="109.822192"/>
     <use style="fill:#471365;fill-opacity:0.8;stroke:#471365;stroke-opacity:0.8;" x="275.262875" xlink:href="#mbc94a59c33" y="127.772253"/>
     <use style="fill:#471365;fill-opacity:0.8;stroke:#471365;stroke-opacity:0.8;" x="259.304734" xlink:href="#mbc94a59c33" y="149.080266"/>
     <use style="fill:#471365;fill-opacity:0.8;stroke:#471365;stroke-opacity:0.8;" x="281.618191" xlink:href="#mbc94a59c33" y="119.050798"/>
     <use style="fill:#471365;fill-opacity:0.8;stroke:#471365;stroke-opacity:0.8;" x="288.078286" xlink:href="#mbc94a59c33" y="204.95905"/>
     <use style="fill:#471365;fill-opacity:0.8;stroke:#471365;stroke-opacity:0.8;" x="214.842614" xlink:href="#mbc94a59c33" y="171.187425"/>
     <use style="fill:#471365;fill-opacity:0.8;stroke:#471365;stroke-opacity:0.8;" x="278.250378" xlink:href="#mbc94a59c33" y="170.150071"/>
     <use style="fill:#471365;fill-opacity:0.8;stroke:#471365;stroke-opacity:0.8;" x="270.936562" xlink:href="#mbc94a59c33" y="135.502459"/>
     <use style="fill:#471365;fill-opacity:0.8;stroke:#471365;stroke-opacity:0.8;" x="260.365276" xlink:href="#mbc94a59c33" y="145.645472"/>
     <use style="fill:#471365;fill-opacity:0.8;stroke:#471365;stroke-opacity:0.8;" x="290.614033" xlink:href="#mbc94a59c33" y="127.165209"/>
     <use style="fill:#471365;fill-opacity:0.8;stroke:#471365;stroke-opacity:0.8;" x="197.496297" xlink:href="#mbc94a59c33" y="111.266803"/>
     <use style="fill:#471365;fill-opacity:0.8;stroke:#471365;stroke-opacity:0.8;" x="291.819318" xlink:href="#mbc94a59c33" y="164.878778"/>
     <use style="fill:#471365;fill-opacity:0.8;stroke:#471365;stroke-opacity:0.8;" x="278.007055" xlink:href="#mbc94a59c33" y="139.160091"/>
     <use style="fill:#471365;fill-opacity:0.8;stroke:#471365;stroke-opacity:0.8;" x="271.02902" xlink:href="#mbc94a59c33" y="129.432019"/>
     <use style="fill:#471365;fill-opacity:0.8;stroke:#471365;stroke-opacity:0.8;" x="282.033213" xlink:href="#mbc94a59c33" y="155.880695"/>
     <use style="fill:#471365;fill-opacity:0.8;stroke:#471365;stroke-opacity:0.8;" x="285.307386" xlink:href="#mbc94a59c33" y="145.760734"/>
     <use style="fill:#471365;fill-opacity:0.8;stroke:#471365;stroke-opacity:0.8;" x="280.673454" xlink:href="#mbc94a59c33" y="109.96819"/>
     <use style="fill:#471365;fill-opacity:0.8;stroke:#471365;stroke-opacity:0.8;" x="288.248172" xlink:href="#mbc94a59c33" y="123.338526"/>
     <use style="fill:#471365;fill-opacity:0.8;stroke:#471365;stroke-opacity:0.8;" x="271.162105" xlink:href="#mbc94a59c33" y="153.083682"/>
     <use style="fill:#471365;fill-opacity:0.8;stroke:#471365;stroke-opacity:0.8;" x="224.94896" xlink:href="#mbc94a59c33" y="119.496476"/>
     <use style="fill:#471365;fill-opacity:0.8;stroke:#471365;stroke-opacity:0.8;" x="177.607837" xlink:href="#mbc94a59c33" y="122.424118"/>
     <use style="fill:#471365;fill-opacity:0.8;stroke:#471365;stroke-opacity:0.8;" x="253.949186" xlink:href="#mbc94a59c33" y="159.061913"/>
     <use style="fill:#471365;fill-opacity:0.8;stroke:#471365;stroke-opacity:0.8;" x="273.097975" xlink:href="#mbc94a59c33" y="158.431817"/>
     <use style="fill:#471365;fill-opacity:0.8;stroke:#471365;stroke-opacity:0.8;" x="284.184482" xlink:href="#mbc94a59c33" y="180.715711"/>
     <use style="fill:#471365;fill-opacity:0.8;stroke:#471365;stroke-opacity:0.8;" x="268.035439" xlink:href="#mbc94a59c33" y="134.173109"/>
     <use style="fill:#471365;fill-opacity:0.8;stroke:#471365;stroke-opacity:0.8;" x="184.233135" xlink:href="#mbc94a59c33" y="145.507159"/>
     <use style="fill:#471365;fill-opacity:0.8;stroke:#471365;stroke-opacity:0.8;" x="292.72627" xlink:href="#mbc94a59c33" y="176.166723"/>
     <use style="fill:#471365;fill-opacity:0.8;stroke:#471365;stroke-opacity:0.8;" x="285.042132" xlink:href="#mbc94a59c33" y="150.248249"/>
     <use style="fill:#471365;fill-opacity:0.8;stroke:#471365;stroke-opacity:0.8;" x="252.486193" xlink:href="#mbc94a59c33" y="128.617504"/>
     <use style="fill:#471365;fill-opacity:0.8;stroke:#471365;stroke-opacity:0.8;" x="273.733546" xlink:href="#mbc94a59c33" y="111.789322"/>
     <use style="fill:#471365;fill-opacity:0.8;stroke:#471365;stroke-opacity:0.8;" x="241.665045" xlink:href="#mbc94a59c33" y="127.887514"/>
     <use style="fill:#471365;fill-opacity:0.8;stroke:#471365;stroke-opacity:0.8;" x="175.403168" xlink:href="#mbc94a59c33" y="111.405117"/>
     <use style="fill:#471365;fill-opacity:0.8;stroke:#471365;stroke-opacity:0.8;" x="278.133011" xlink:href="#mbc94a59c33" y="153.344942"/>
     <use style="fill:#471365;fill-opacity:0.8;stroke:#471365;stroke-opacity:0.8;" x="248.214179" xlink:href="#mbc94a59c33" y="112.012161"/>
     <use style="fill:#471365;fill-opacity:0.8;stroke:#471365;stroke-opacity:0.8;" x="267.483986" xlink:href="#mbc94a59c33" y="135.141306"/>
     <use style="fill:#471365;fill-opacity:0.8;stroke:#471365;stroke-opacity:0.8;" x="287.531894" xlink:href="#mbc94a59c33" y="142.356677"/>
     <use style="fill:#471365;fill-opacity:0.8;stroke:#471365;stroke-opacity:0.8;" x="274.609004" xlink:href="#mbc94a59c33" y="145.053797"/>
     <use style="fill:#471365;fill-opacity:0.8;stroke:#471365;stroke-opacity:0.8;" x="150.139453" xlink:href="#mbc94a59c33" y="114.025396"/>
     <use style="fill:#471365;fill-opacity:0.8;stroke:#471365;stroke-opacity:0.8;" x="259.11243" xlink:href="#mbc94a59c33" y="191.058511"/>
     <use style="fill:#471365;fill-opacity:0.8;stroke:#471365;stroke-opacity:0.8;" x="217.436769" xlink:href="#mbc94a59c33" y="168.851458"/>
     <use style="fill:#471365;fill-opacity:0.8;stroke:#471365;stroke-opacity:0.8;" x="225.768156" xlink:href="#mbc94a59c33" y="128.855711"/>
     <use style="fill:#471365;fill-opacity:0.8;stroke:#471365;stroke-opacity:0.8;" x="232.045047" xlink:href="#mbc94a59c33" y="149.72573"/>
     <use style="fill:#471365;fill-opacity:0.8;stroke:#471365;stroke-opacity:0.8;" x="108.750942" xlink:href="#mbc94a59c33" y="111.704797"/>
     <use style="fill:#471365;fill-opacity:0.8;stroke:#471365;stroke-opacity:0.8;" x="279.13411" xlink:href="#mbc94a59c33" y="117.905867"/>
     <use style="fill:#471365;fill-opacity:0.8;stroke:#471365;stroke-opacity:0.8;" x="276.140716" xlink:href="#mbc94a59c33" y="142.11847"/>
     <use style="fill:#471365;fill-opacity:0.8;stroke:#471365;stroke-opacity:0.8;" x="275.703983" xlink:href="#mbc94a59c33" y="123.261685"/>
     <use style="fill:#471365;fill-opacity:0.8;stroke:#471365;stroke-opacity:0.8;" x="285.018475" xlink:href="#mbc94a59c33" y="130.815157"/>
     <use style="fill:#471365;fill-opacity:0.8;stroke:#471365;stroke-opacity:0.8;" x="288.104228" xlink:href="#mbc94a59c33" y="136.21708"/>
     <use style="fill:#471365;fill-opacity:0.8;stroke:#471365;stroke-opacity:0.8;" x="243.097555" xlink:href="#mbc94a59c33" y="150.663191"/>
     <use style="fill:#471365;fill-opacity:0.8;stroke:#471365;stroke-opacity:0.8;" x="250.186897" xlink:href="#mbc94a59c33" y="121.955388"/>
     <use style="fill:#471365;fill-opacity:0.8;stroke:#471365;stroke-opacity:0.8;" x="263.790735" xlink:href="#mbc94a59c33" y="216.854039"/>
     <use style="fill:#471365;fill-opacity:0.8;stroke:#471365;stroke-opacity:0.8;" x="292.054642" xlink:href="#mbc94a59c33" y="122.5778"/>
     <use style="fill:#471365;fill-opacity:0.8;stroke:#471365;stroke-opacity:0.8;" x="275.3093" xlink:href="#mbc94a59c33" y="138.78357"/>
     <use style="fill:#471365;fill-opacity:0.8;stroke:#471365;stroke-opacity:0.8;" x="248.373871" xlink:href="#mbc94a59c33" y="110.982491"/>
     <use style="fill:#471365;fill-opacity:0.8;stroke:#471365;stroke-opacity:0.8;" x="280.409935" xlink:href="#mbc94a59c33" y="161.036727"/>
     <use style="fill:#471365;fill-opacity:0.8;stroke:#471365;stroke-opacity:0.8;" x="235.496546" xlink:href="#mbc94a59c33" y="114.978224"/>
     <use style="fill:#471365;fill-opacity:0.8;stroke:#471365;stroke-opacity:0.8;" x="277.703107" xlink:href="#mbc94a59c33" y="151.715912"/>
     <use style="fill:#471365;fill-opacity:0.8;stroke:#471365;stroke-opacity:0.8;" x="279.3908" xlink:href="#mbc94a59c33" y="178.894579"/>
     <use style="fill:#471365;fill-opacity:0.8;stroke:#471365;stroke-opacity:0.8;" x="291.76593" xlink:href="#mbc94a59c33" y="122.347277"/>
     <use style="fill:#471365;fill-opacity:0.8;stroke:#471365;stroke-opacity:0.8;" x="289.749722" xlink:href="#mbc94a59c33" y="172.555195"/>
     <use style="fill:#471365;fill-opacity:0.8;stroke:#471365;stroke-opacity:0.8;" x="208.50473" xlink:href="#mbc94a59c33" y="112.288789"/>
     <use style="fill:#471365;fill-opacity:0.8;stroke:#471365;stroke-opacity:0.8;" x="255.338765" xlink:href="#mbc94a59c33" y="189.65232"/>
     <use style="fill:#471365;fill-opacity:0.8;stroke:#471365;stroke-opacity:0.8;" x="165.510906" xlink:href="#mbc94a59c33" y="132.905232"/>
     <use style="fill:#471365;fill-opacity:0.8;stroke:#471365;stroke-opacity:0.8;" x="259.225244" xlink:href="#mbc94a59c33" y="131.967772"/>
     <use style="fill:#471365;fill-opacity:0.8;stroke:#471365;stroke-opacity:0.8;" x="278.484165" xlink:href="#mbc94a59c33" y="121.240767"/>
     <use style="fill:#471365;fill-opacity:0.8;stroke:#471365;stroke-opacity:0.8;" x="239.542629" xlink:href="#mbc94a59c33" y="118.966273"/>
     <use style="fill:#471365;fill-opacity:0.8;stroke:#471365;stroke-opacity:0.8;" x="293.007391" xlink:href="#mbc94a59c33" y="128.018144"/>
     <use style="fill:#471365;fill-opacity:0.8;stroke:#471365;stroke-opacity:0.8;" x="236.606986" xlink:href="#mbc94a59c33" y="111.835427"/>
     <use style="fill:#471365;fill-opacity:0.8;stroke:#471365;stroke-opacity:0.8;" x="230.570173" xlink:href="#mbc94a59c33" y="124.936819"/>
     <use style="fill:#471365;fill-opacity:0.8;stroke:#471365;stroke-opacity:0.8;" x="273.418283" xlink:href="#mbc94a59c33" y="111.266803"/>
     <use style="fill:#471365;fill-opacity:0.8;stroke:#471365;stroke-opacity:0.8;" x="236.08584" xlink:href="#mbc94a59c33" y="114.025396"/>
     <use style="fill:#471365;fill-opacity:0.8;stroke:#471365;stroke-opacity:0.8;" x="266.475337" xlink:href="#mbc94a59c33" y="151.408548"/>
     <use style="fill:#471365;fill-opacity:0.8;stroke:#471365;stroke-opacity:0.8;" x="273.04039" xlink:href="#mbc94a59c33" y="151.915699"/>
     <use style="fill:#471365;fill-opacity:0.8;stroke:#471365;stroke-opacity:0.8;" x="261.028981" xlink:href="#mbc94a59c33" y="167.929366"/>
     <use style="fill:#471365;fill-opacity:0.8;stroke:#471365;stroke-opacity:0.8;" x="287.273712" xlink:href="#mbc94a59c33" y="184.603866"/>
     <use style="fill:#471365;fill-opacity:0.8;stroke:#471365;stroke-opacity:0.8;" x="274.563685" xlink:href="#mbc94a59c33" y="147.15924"/>
     <use style="fill:#471365;fill-opacity:0.8;stroke:#471365;stroke-opacity:0.8;" x="279.098163" xlink:href="#mbc94a59c33" y="125.182711"/>
     <use style="fill:#471365;fill-opacity:0.8;stroke:#471365;stroke-opacity:0.8;" x="233.995017" xlink:href="#mbc94a59c33" y="134.495841"/>
     <use style="fill:#471365;fill-opacity:0.8;stroke:#471365;stroke-opacity:0.8;" x="268.716553" xlink:href="#mbc94a59c33" y="123.461472"/>
     <use style="fill:#471365;fill-opacity:0.8;stroke:#471365;stroke-opacity:0.8;" x="256.358892" xlink:href="#mbc94a59c33" y="126.235433"/>
     <use style="fill:#471365;fill-opacity:0.8;stroke:#471365;stroke-opacity:0.8;" x="270.22803" xlink:href="#mbc94a59c33" y="112.519312"/>
     <use style="fill:#471365;fill-opacity:0.8;stroke:#471365;stroke-opacity:0.8;" x="252.369535" xlink:href="#mbc94a59c33" y="119.63479"/>
     <use style="fill:#471365;fill-opacity:0.8;stroke:#471365;stroke-opacity:0.8;" x="260.597013" xlink:href="#mbc94a59c33" y="139.183143"/>
     <use style="fill:#471365;fill-opacity:0.8;stroke:#471365;stroke-opacity:0.8;" x="237.970065" xlink:href="#mbc94a59c33" y="122.124438"/>
     <use style="fill:#471365;fill-opacity:0.8;stroke:#471365;stroke-opacity:0.8;" x="280.117844" xlink:href="#mbc94a59c33" y="130.261902"/>
     <use style="fill:#471365;fill-opacity:0.8;stroke:#471365;stroke-opacity:0.8;" x="254.687525" xlink:href="#mbc94a59c33" y="111.458906"/>
     <use style="fill:#471365;fill-opacity:0.8;stroke:#471365;stroke-opacity:0.8;" x="288.7415" xlink:href="#mbc94a59c33" y="136.470655"/>
     <use style="fill:#471365;fill-opacity:0.8;stroke:#471365;stroke-opacity:0.8;" x="284.008419" xlink:href="#mbc94a59c33" y="111.305224"/>
     <use style="fill:#471365;fill-opacity:0.8;stroke:#471365;stroke-opacity:0.8;" x="292.486063" xlink:href="#mbc94a59c33" y="124.790822"/>
     <use style="fill:#471365;fill-opacity:0.8;stroke:#471365;stroke-opacity:0.8;" x="275.757903" xlink:href="#mbc94a59c33" y="162.873227"/>
     <use style="fill:#471365;fill-opacity:0.8;stroke:#471365;stroke-opacity:0.8;" x="253.264154" xlink:href="#mbc94a59c33" y="114.624756"/>
     <use style="fill:#471365;fill-opacity:0.8;stroke:#471365;stroke-opacity:0.8;" x="284.238292" xlink:href="#mbc94a59c33" y="156.249532"/>
     <use style="fill:#471365;fill-opacity:0.8;stroke:#471365;stroke-opacity:0.8;" x="251.15186" xlink:href="#mbc94a59c33" y="146.629037"/>
     <use style="fill:#471365;fill-opacity:0.8;stroke:#471365;stroke-opacity:0.8;" x="260.867878" xlink:href="#mbc94a59c33" y="113.402983"/>
     <use style="fill:#471365;fill-opacity:0.8;stroke:#471365;stroke-opacity:0.8;" x="267.767316" xlink:href="#mbc94a59c33" y="154.182509"/>
     <use style="fill:#471365;fill-opacity:0.8;stroke:#471365;stroke-opacity:0.8;" x="202.34046" xlink:href="#mbc94a59c33" y="123.146424"/>
     <use style="fill:#471365;fill-opacity:0.8;stroke:#471365;stroke-opacity:0.8;" x="271.755442" xlink:href="#mbc94a59c33" y="140.389547"/>
     <use style="fill:#471365;fill-opacity:0.8;stroke:#471365;stroke-opacity:0.8;" x="250.387806" xlink:href="#mbc94a59c33" y="121.893915"/>
     <use style="fill:#471365;fill-opacity:0.8;stroke:#471365;stroke-opacity:0.8;" x="142.728183" xlink:href="#mbc94a59c33" y="117.859762"/>
     <use style="fill:#471365;fill-opacity:0.8;stroke:#471365;stroke-opacity:0.8;" x="185.682312" xlink:href="#mbc94a59c33" y="154.29777"/>
     <use style="fill:#471365;fill-opacity:0.8;stroke:#471365;stroke-opacity:0.8;" x="263.296095" xlink:href="#mbc94a59c33" y="119.742367"/>
     <use style="fill:#471365;fill-opacity:0.8;stroke:#471365;stroke-opacity:0.8;" x="235.030122" xlink:href="#mbc94a59c33" y="149.525944"/>
     <use style="fill:#471365;fill-opacity:0.8;stroke:#471365;stroke-opacity:0.8;" x="213.124316" xlink:href="#mbc94a59c33" y="123.269369"/>
     <use style="fill:#471365;fill-opacity:0.8;stroke:#471365;stroke-opacity:0.8;" x="277.818587" xlink:href="#mbc94a59c33" y="140.243549"/>
     <use style="fill:#471365;fill-opacity:0.8;stroke:#471365;stroke-opacity:0.8;" x="286.458011" xlink:href="#mbc94a59c33" y="117.129773"/>
     <use style="fill:#471365;fill-opacity:0.8;stroke:#471365;stroke-opacity:0.8;" x="250.057337" xlink:href="#mbc94a59c33" y="110.129556"/>
     <use style="fill:#471365;fill-opacity:0.8;stroke:#471365;stroke-opacity:0.8;" x="269.561307" xlink:href="#mbc94a59c33" y="148.381012"/>
     <use style="fill:#471365;fill-opacity:0.8;stroke:#471365;stroke-opacity:0.8;" x="269.768401" xlink:href="#mbc94a59c33" y="123.599786"/>
     <use style="fill:#471365;fill-opacity:0.8;stroke:#471365;stroke-opacity:0.8;" x="267.291667" xlink:href="#mbc94a59c33" y="119.258269"/>
     <use style="fill:#471365;fill-opacity:0.8;stroke:#471365;stroke-opacity:0.8;" x="282.260995" xlink:href="#mbc94a59c33" y="134.872362"/>
     <use style="fill:#471365;fill-opacity:0.8;stroke:#471365;stroke-opacity:0.8;" x="215.321357" xlink:href="#mbc94a59c33" y="119.104587"/>
     <use style="fill:#471365;fill-opacity:0.8;stroke:#471365;stroke-opacity:0.8;" x="290.599723" xlink:href="#mbc94a59c33" y="132.782287"/>
     <use style="fill:#471365;fill-opacity:0.8;stroke:#471365;stroke-opacity:0.8;" x="279.048495" xlink:href="#mbc94a59c33" y="132.959021"/>
     <use style="fill:#471365;fill-opacity:0.8;stroke:#471365;stroke-opacity:0.8;" x="264.918301" xlink:href="#mbc94a59c33" y="127.195945"/>
     <use style="fill:#471365;fill-opacity:0.8;stroke:#471365;stroke-opacity:0.8;" x="240.810263" xlink:href="#mbc94a59c33" y="109.753035"/>
     <use style="fill:#471365;fill-opacity:0.8;stroke:#471365;stroke-opacity:0.8;" x="275.351458" xlink:href="#mbc94a59c33" y="135.663825"/>
     <use style="fill:#471365;fill-opacity:0.8;stroke:#471365;stroke-opacity:0.8;" x="286.788769" xlink:href="#mbc94a59c33" y="176.520191"/>
     <use style="fill:#471365;fill-opacity:0.8;stroke:#471365;stroke-opacity:0.8;" x="209.800539" xlink:href="#mbc94a59c33" y="126.058698"/>
     <use style="fill:#471365;fill-opacity:0.8;stroke:#471365;stroke-opacity:0.8;" x="269.794261" xlink:href="#mbc94a59c33" y="147.904598"/>
     <use style="fill:#471365;fill-opacity:0.8;stroke:#471365;stroke-opacity:0.8;" x="264.748673" xlink:href="#mbc94a59c33" y="158.66234"/>
     <use style="fill:#471365;fill-opacity:0.8;stroke:#471365;stroke-opacity:0.8;" x="205.219428" xlink:href="#mbc94a59c33" y="139.290721"/>
     <use style="fill:#471365;fill-opacity:0.8;stroke:#471365;stroke-opacity:0.8;" x="290.971622" xlink:href="#mbc94a59c33" y="146.160307"/>
     <use style="fill:#471365;fill-opacity:0.8;stroke:#471365;stroke-opacity:0.8;" x="290.961186" xlink:href="#mbc94a59c33" y="130.292638"/>
     <use style="fill:#471365;fill-opacity:0.8;stroke:#471365;stroke-opacity:0.8;" x="286.658434" xlink:href="#mbc94a59c33" y="116.791672"/>
     <use style="fill:#471365;fill-opacity:0.8;stroke:#471365;stroke-opacity:0.8;" x="291.935544" xlink:href="#mbc94a59c33" y="114.401917"/>
     <use style="fill:#471365;fill-opacity:0.8;stroke:#471365;stroke-opacity:0.8;" x="272.792808" xlink:href="#mbc94a59c33" y="128.294772"/>
     <use style="fill:#471365;fill-opacity:0.8;stroke:#471365;stroke-opacity:0.8;" x="289.251784" xlink:href="#mbc94a59c33" y="138.31484"/>
     <use style="fill:#471365;fill-opacity:0.8;stroke:#471365;stroke-opacity:0.8;" x="292.856512" xlink:href="#mbc94a59c33" y="136.163291"/>
     <use style="fill:#471365;fill-opacity:0.8;stroke:#471365;stroke-opacity:0.8;" x="281.127444" xlink:href="#mbc94a59c33" y="115.431586"/>
     <use style="fill:#471365;fill-opacity:0.8;stroke:#471365;stroke-opacity:0.8;" x="291.08275" xlink:href="#mbc94a59c33" y="122.885164"/>
     <use style="fill:#471365;fill-opacity:0.8;stroke:#471365;stroke-opacity:0.8;" x="250.866877" xlink:href="#mbc94a59c33" y="128.202562"/>
     <use style="fill:#471365;fill-opacity:0.8;stroke:#471365;stroke-opacity:0.8;" x="256.239797" xlink:href="#mbc94a59c33" y="143.217296"/>
     <use style="fill:#471365;fill-opacity:0.8;stroke:#471365;stroke-opacity:0.8;" x="203.395156" xlink:href="#mbc94a59c33" y="111.666377"/>
     <use style="fill:#471365;fill-opacity:0.8;stroke:#471365;stroke-opacity:0.8;" x="285.491797" xlink:href="#mbc94a59c33" y="169.035877"/>
     <use style="fill:#471365;fill-opacity:0.8;stroke:#471365;stroke-opacity:0.8;" x="281.534845" xlink:href="#mbc94a59c33" y="120.595302"/>
     <use style="fill:#471365;fill-opacity:0.8;stroke:#471365;stroke-opacity:0.8;" x="265.132849" xlink:href="#mbc94a59c33" y="118.666593"/>
     <use style="fill:#471365;fill-opacity:0.8;stroke:#471365;stroke-opacity:0.8;" x="291.270309" xlink:href="#mbc94a59c33" y="138.268735"/>
     <use style="fill:#471365;fill-opacity:0.8;stroke:#471365;stroke-opacity:0.8;" x="286.56639" xlink:href="#mbc94a59c33" y="134.219214"/>
     <use style="fill:#471365;fill-opacity:0.8;stroke:#471365;stroke-opacity:0.8;" x="186.528662" xlink:href="#mbc94a59c33" y="113.56435"/>
     <use style="fill:#471365;fill-opacity:0.8;stroke:#471365;stroke-opacity:0.8;" x="285.462946" xlink:href="#mbc94a59c33" y="203.706542"/>
     <use style="fill:#471365;fill-opacity:0.8;stroke:#471365;stroke-opacity:0.8;" x="283.024531" xlink:href="#mbc94a59c33" y="155.319756"/>
     <use style="fill:#471365;fill-opacity:0.8;stroke:#471365;stroke-opacity:0.8;" x="233.750165" xlink:href="#mbc94a59c33" y="134.326791"/>
     <use style="fill:#471365;fill-opacity:0.8;stroke:#471365;stroke-opacity:0.8;" x="291.475306" xlink:href="#mbc94a59c33" y="119.012377"/>
     <use style="fill:#471365;fill-opacity:0.8;stroke:#471365;stroke-opacity:0.8;" x="248.183386" xlink:href="#mbc94a59c33" y="197.152003"/>
     <use style="fill:#471365;fill-opacity:0.8;stroke:#471365;stroke-opacity:0.8;" x="210.330052" xlink:href="#mbc94a59c33" y="111.966056"/>
     <use style="fill:#471365;fill-opacity:0.8;stroke:#471365;stroke-opacity:0.8;" x="220.711961" xlink:href="#mbc94a59c33" y="153.921249"/>
     <use style="fill:#471365;fill-opacity:0.8;stroke:#471365;stroke-opacity:0.8;" x="270.85368" xlink:href="#mbc94a59c33" y="159.338541"/>
     <use style="fill:#471365;fill-opacity:0.8;stroke:#471365;stroke-opacity:0.8;" x="250.288744" xlink:href="#mbc94a59c33" y="154.228614"/>
     <use style="fill:#471365;fill-opacity:0.8;stroke:#471365;stroke-opacity:0.8;" x="272.620807" xlink:href="#mbc94a59c33" y="167.668107"/>
     <use style="fill:#471365;fill-opacity:0.8;stroke:#471365;stroke-opacity:0.8;" x="292.495917" xlink:href="#mbc94a59c33" y="133.35091"/>
     <use style="fill:#471365;fill-opacity:0.8;stroke:#471365;stroke-opacity:0.8;" x="226.10278" xlink:href="#mbc94a59c33" y="121.163926"/>
     <use style="fill:#471365;fill-opacity:0.8;stroke:#471365;stroke-opacity:0.8;" x="291.838918" xlink:href="#mbc94a59c33" y="211.321486"/>
     <use style="fill:#471365;fill-opacity:0.8;stroke:#471365;stroke-opacity:0.8;" x="219.157789" xlink:href="#mbc94a59c33" y="128.256351"/>
     <use style="fill:#471365;fill-opacity:0.8;stroke:#471365;stroke-opacity:0.8;" x="269.78648" xlink:href="#mbc94a59c33" y="118.728066"/>
     <use style="fill:#471365;fill-opacity:0.8;stroke:#471365;stroke-opacity:0.8;" x="267.693411" xlink:href="#mbc94a59c33" y="128.31014"/>
     <use style="fill:#471365;fill-opacity:0.8;stroke:#471365;stroke-opacity:0.8;" x="270.57098" xlink:href="#mbc94a59c33" y="151.792753"/>
     <use style="fill:#471365;fill-opacity:0.8;stroke:#471365;stroke-opacity:0.8;" x="242.240708" xlink:href="#mbc94a59c33" y="125.190395"/>
     <use style="fill:#471365;fill-opacity:0.8;stroke:#471365;stroke-opacity:0.8;" x="292.887444" xlink:href="#mbc94a59c33" y="152.399797"/>
     <use style="fill:#471365;fill-opacity:0.8;stroke:#471365;stroke-opacity:0.8;" x="287.355311" xlink:href="#mbc94a59c33" y="131.837142"/>
     <use style="fill:#471365;fill-opacity:0.8;stroke:#471365;stroke-opacity:0.8;" x="233.939303" xlink:href="#mbc94a59c33" y="121.870863"/>
     <use style="fill:#471365;fill-opacity:0.8;stroke:#471365;stroke-opacity:0.8;" x="292.805657" xlink:href="#mbc94a59c33" y="109.476408"/>
     <use style="fill:#471365;fill-opacity:0.8;stroke:#471365;stroke-opacity:0.8;" x="275.83247" xlink:href="#mbc94a59c33" y="126.089435"/>
     <use style="fill:#471365;fill-opacity:0.8;stroke:#471365;stroke-opacity:0.8;" x="208.247921" xlink:href="#mbc94a59c33" y="145.353477"/>
     <use style="fill:#471365;fill-opacity:0.8;stroke:#471365;stroke-opacity:0.8;" x="290.452432" xlink:href="#mbc94a59c33" y="115.331693"/>
     <use style="fill:#471365;fill-opacity:0.8;stroke:#471365;stroke-opacity:0.8;" x="263.053645" xlink:href="#mbc94a59c33" y="141.019643"/>
     <use style="fill:#471365;fill-opacity:0.8;stroke:#471365;stroke-opacity:0.8;" x="292.196691" xlink:href="#mbc94a59c33" y="164.26405"/>
     <use style="fill:#471365;fill-opacity:0.8;stroke:#471365;stroke-opacity:0.8;" x="276.634586" xlink:href="#mbc94a59c33" y="152.29222"/>
     <use style="fill:#471365;fill-opacity:0.8;stroke:#471365;stroke-opacity:0.8;" x="237.525056" xlink:href="#mbc94a59c33" y="134.634155"/>
     <use style="fill:#471365;fill-opacity:0.8;stroke:#471365;stroke-opacity:0.8;" x="249.694039" xlink:href="#mbc94a59c33" y="123.830309"/>
     <use style="fill:#471365;fill-opacity:0.8;stroke:#471365;stroke-opacity:0.8;" x="268.072433" xlink:href="#mbc94a59c33" y="136.747283"/>
     <use style="fill:#471365;fill-opacity:0.8;stroke:#471365;stroke-opacity:0.8;" x="260.561741" xlink:href="#mbc94a59c33" y="163.657006"/>
     <use style="fill:#471365;fill-opacity:0.8;stroke:#471365;stroke-opacity:0.8;" x="250.997968" xlink:href="#mbc94a59c33" y="167.614318"/>
     <use style="fill:#471365;fill-opacity:0.8;stroke:#471365;stroke-opacity:0.8;" x="262.261611" xlink:href="#mbc94a59c33" y="142.471939"/>
     <use style="fill:#471365;fill-opacity:0.8;stroke:#471365;stroke-opacity:0.8;" x="271.734601" xlink:href="#mbc94a59c33" y="117.10672"/>
     <use style="fill:#471365;fill-opacity:0.8;stroke:#471365;stroke-opacity:0.8;" x="231.927083" xlink:href="#mbc94a59c33" y="146.95177"/>
     <use style="fill:#471365;fill-opacity:0.8;stroke:#471365;stroke-opacity:0.8;" x="220.666514" xlink:href="#mbc94a59c33" y="139.2523"/>
     <use style="fill:#471365;fill-opacity:0.8;stroke:#471365;stroke-opacity:0.8;" x="278.552989" xlink:href="#mbc94a59c33" y="152.699477"/>
     <use style="fill:#471365;fill-opacity:0.8;stroke:#471365;stroke-opacity:0.8;" x="218.269535" xlink:href="#mbc94a59c33" y="118.997009"/>
     <use style="fill:#471365;fill-opacity:0.8;stroke:#471365;stroke-opacity:0.8;" x="281.165233" xlink:href="#mbc94a59c33" y="112.281105"/>
    </g>
   </g>
   <g id="PolyCollection_1">
    <defs>
     <path d="M 63.579924 -339.257405 
L 63.579924 -313.120618 
L 66.353646 -312.891707 
L 69.127368 -312.653001 
L 71.90109 -312.404743 
L 74.674813 -312.156484 
L 77.448535 -311.908226 
L 80.222257 -311.659967 
L 82.995979 -311.411709 
L 85.769701 -311.163451 
L 88.543423 -310.915192 
L 91.317145 -310.666934 
L 94.090867 -310.419179 
L 96.864589 -310.142209 
L 99.638311 -309.837596 
L 102.412033 -309.551602 
L 105.185755 -309.319961 
L 107.959477 -309.089254 
L 110.733199 -308.858955 
L 113.506921 -308.628656 
L 116.280644 -308.398357 
L 119.054366 -308.168058 
L 121.828088 -307.883709 
L 124.60181 -307.591781 
L 127.375532 -307.299852 
L 130.149254 -307.007923 
L 132.922976 -306.715995 
L 135.696698 -306.428157 
L 138.47042 -306.1743 
L 141.244142 -305.921233 
L 144.017864 -305.668668 
L 146.791586 -305.416103 
L 149.565308 -305.163538 
L 152.33903 -304.910973 
L 155.112753 -304.663215 
L 157.886475 -304.459225 
L 160.660197 -304.236646 
L 163.433919 -303.959825 
L 166.207641 -303.69789 
L 168.981363 -303.440133 
L 171.755085 -303.213886 
L 174.528807 -302.972332 
L 177.302529 -302.730777 
L 180.076251 -302.481352 
L 182.849973 -302.199553 
L 185.623695 -301.917754 
L 188.397417 -301.635955 
L 191.171139 -301.370734 
L 193.944861 -301.117137 
L 196.718584 -300.857683 
L 199.492306 -300.519279 
L 202.266028 -300.222377 
L 205.03975 -299.939246 
L 207.813472 -299.619793 
L 210.587194 -299.299535 
L 213.360916 -298.979718 
L 216.134638 -298.682853 
L 218.90836 -298.407549 
L 221.682082 -298.079977 
L 224.455804 -297.76945 
L 227.229526 -297.425849 
L 230.003248 -297.193511 
L 232.77697 -296.86748 
L 235.550693 -296.549887 
L 238.324415 -296.154364 
L 241.098137 -295.752628 
L 243.871859 -295.318831 
L 246.645581 -294.860242 
L 249.419303 -294.388132 
L 252.193025 -293.919054 
L 254.966747 -293.430812 
L 257.740469 -292.973827 
L 260.514191 -292.489086 
L 263.287913 -291.894628 
L 266.061635 -291.401919 
L 268.835357 -290.835405 
L 271.609079 -290.301572 
L 274.382801 -289.746254 
L 277.156524 -289.160397 
L 279.930246 -288.60324 
L 282.703968 -288.071151 
L 285.47769 -287.522328 
L 288.251412 -286.965388 
L 291.025134 -286.412373 
L 293.798856 -285.812715 
L 296.572578 -285.198799 
L 299.3463 -284.603938 
L 302.120022 -284.036763 
L 304.893744 -283.470005 
L 307.667466 -282.889884 
L 310.441188 -282.326538 
L 313.21491 -281.77031 
L 315.988633 -281.203745 
L 318.762355 -280.579881 
L 321.536077 -279.901476 
L 324.309799 -279.254883 
L 327.083521 -278.660687 
L 329.857243 -278.056068 
L 332.630965 -277.422468 
L 335.404687 -276.789934 
L 338.178409 -276.155266 
L 338.178409 -289.853524 
L 338.178409 -289.853524 
L 335.404687 -290.114114 
L 332.630965 -290.374199 
L 329.857243 -290.636504 
L 327.083521 -290.897205 
L 324.309799 -291.149557 
L 321.536077 -291.369317 
L 318.762355 -291.633958 
L 315.988633 -291.864872 
L 313.21491 -292.096797 
L 310.441188 -292.349839 
L 307.667466 -292.61092 
L 304.893744 -292.904553 
L 302.120022 -293.189883 
L 299.3463 -293.480123 
L 296.572578 -293.770591 
L 293.798856 -294.057458 
L 291.025134 -294.396181 
L 288.251412 -294.689526 
L 285.47769 -295.021534 
L 282.703968 -295.352526 
L 279.930246 -295.529168 
L 277.156524 -295.857386 
L 274.382801 -296.195769 
L 271.609079 -296.535874 
L 268.835357 -296.876942 
L 266.061635 -297.215464 
L 263.287913 -297.556036 
L 260.514191 -297.947854 
L 257.740469 -298.357706 
L 254.966747 -298.807192 
L 252.193025 -299.218565 
L 249.419303 -299.601149 
L 246.645581 -300.041019 
L 243.871859 -300.46847 
L 241.098137 -300.987651 
L 238.324415 -301.450111 
L 235.550693 -302.017645 
L 232.77697 -302.537676 
L 230.003248 -302.973191 
L 227.229526 -303.49125 
L 224.455804 -304.009595 
L 221.682082 -304.499392 
L 218.90836 -305.045795 
L 216.134638 -305.643204 
L 213.360916 -306.224754 
L 210.587194 -306.789987 
L 207.813472 -307.386066 
L 205.03975 -308.042492 
L 202.266028 -308.625973 
L 199.492306 -309.224679 
L 196.718584 -309.885001 
L 193.944861 -310.529088 
L 191.171139 -311.113658 
L 188.397417 -311.690015 
L 185.623695 -312.289033 
L 182.849973 -312.901511 
L 180.076251 -313.511333 
L 177.302529 -314.127645 
L 174.528807 -314.740516 
L 171.755085 -315.376405 
L 168.981363 -316.000689 
L 166.207641 -316.611663 
L 163.433919 -317.2231 
L 160.660197 -317.833866 
L 157.886475 -318.415486 
L 155.112753 -318.97665 
L 152.33903 -319.537814 
L 149.565308 -320.097776 
L 146.791586 -320.65768 
L 144.017864 -321.221797 
L 141.244142 -321.844627 
L 138.47042 -322.460312 
L 135.696698 -323.026675 
L 132.922976 -323.591544 
L 130.149254 -324.155316 
L 127.375532 -324.72853 
L 124.60181 -325.357125 
L 121.828088 -325.985719 
L 119.054366 -326.61613 
L 116.280644 -327.247006 
L 113.506921 -327.877877 
L 110.733199 -328.508748 
L 107.959477 -329.13962 
L 105.185755 -329.770491 
L 102.412033 -330.401362 
L 99.638311 -331.032233 
L 96.864589 -331.663104 
L 94.090867 -332.293976 
L 91.317145 -332.924847 
L 88.543423 -333.561545 
L 85.769701 -334.205886 
L 82.995979 -334.850226 
L 80.222257 -335.494567 
L 77.448535 -336.138908 
L 74.674813 -336.774122 
L 71.90109 -337.385685 
L 69.127368 -337.99672 
L 66.353646 -338.623618 
L 63.579924 -339.257405 
z
" id="mb71af96191" style="stroke:#ffffff;stroke-opacity:0.15;stroke-width:0.8;"/>
    </defs>
    <g clip-path="url(#pc0ff74a179)">
     <use style="fill:#471365;fill-opacity:0.15;stroke:#ffffff;stroke-opacity:0.15;stroke-width:0.8;" x="0" xlink:href="#mb71af96191" y="432"/>
    </g>
   </g>
   <g id="line2d_12">
    <path clip-path="url(#pc0ff74a179)" d="M 63.579924 105.533494 
L 66.353646 105.972821 
L 69.127368 106.412149 
L 71.90109 106.851476 
L 74.674813 107.290803 
L 77.448535 107.73013 
L 80.222257 108.169458 
L 82.995979 108.608785 
L 85.769701 109.048112 
L 88.543423 109.48744 
L 91.317145 109.926767 
L 94.090867 110.366094 
L 96.864589 110.805421 
L 99.638311 111.244749 
L 102.412033 111.684076 
L 105.185755 112.123403 
L 107.959477 112.562731 
L 110.733199 113.002058 
L 113.506921 113.441385 
L 116.280644 113.880712 
L 119.054366 114.32004 
L 121.828088 114.759367 
L 124.60181 115.198694 
L 127.375532 115.638022 
L 130.149254 116.077349 
L 132.922976 116.516676 
L 135.696698 116.956003 
L 138.47042 117.395331 
L 141.244142 117.834658 
L 144.017864 118.273985 
L 146.791586 118.713313 
L 149.565308 119.15264 
L 152.33903 119.591967 
L 155.112753 120.031294 
L 157.886475 120.470622 
L 160.660197 120.909949 
L 163.433919 121.349276 
L 166.207641 121.788603 
L 168.981363 122.227931 
L 171.755085 122.667258 
L 174.528807 123.106585 
L 177.302529 123.545913 
L 180.076251 123.98524 
L 182.849973 124.424567 
L 185.623695 124.863894 
L 188.397417 125.303222 
L 191.171139 125.742549 
L 193.944861 126.181876 
L 196.718584 126.621204 
L 199.492306 127.060531 
L 202.266028 127.499858 
L 205.03975 127.939185 
L 207.813472 128.378513 
L 210.587194 128.81784 
L 213.360916 129.257167 
L 216.134638 129.696495 
L 218.90836 130.135822 
L 221.682082 130.575149 
L 224.455804 131.014476 
L 227.229526 131.453804 
L 230.003248 131.893131 
L 232.77697 132.332458 
L 235.550693 132.771786 
L 238.324415 133.211113 
L 241.098137 133.65044 
L 243.871859 134.089767 
L 246.645581 134.529095 
L 249.419303 134.968422 
L 252.193025 135.407749 
L 254.966747 135.847077 
L 257.740469 136.286404 
L 260.514191 136.725731 
L 263.287913 137.165058 
L 266.061635 137.604386 
L 268.835357 138.043713 
L 271.609079 138.48304 
L 274.382801 138.922367 
L 277.156524 139.361695 
L 279.930246 139.801022 
L 282.703968 140.240349 
L 285.47769 140.679677 
L 288.251412 141.119004 
L 291.025134 141.558331 
L 293.798856 141.997658 
L 296.572578 142.436986 
L 299.3463 142.876313 
L 302.120022 143.31564 
L 304.893744 143.754968 
L 307.667466 144.194295 
L 310.441188 144.633622 
L 313.21491 145.072949 
L 315.988633 145.512277 
L 318.762355 145.951604 
L 321.536077 146.390931 
L 324.309799 146.830259 
L 327.083521 147.269586 
L 329.857243 147.708913 
L 332.630965 148.14824 
L 335.404687 148.587568 
L 338.178409 149.026895 
" style="fill:none;stroke:#471365;stroke-linecap:round;stroke-width:1.8;"/>
   </g>
   <g id="patch_3">
    <path d="M 49.85 389.9 
L 49.85 81.383333 
" style="fill:none;stroke:#262626;stroke-linecap:square;stroke-linejoin:miter;"/>
   </g>
   <g id="patch_4">
    <path d="M 49.85 389.9 
L 351.908333 389.9 
" style="fill:none;stroke:#262626;stroke-linecap:square;stroke-linejoin:miter;"/>
   </g>
   <g id="legend_1">
    <g id="patch_5">
     <path d="M 187.569708 101.340083 
L 345.748333 101.340083 
Q 347.508333 101.340083 347.508333 99.580083 
L 347.508333 87.543333 
Q 347.508333 85.783333 345.748333 85.783333 
L 187.569708 85.783333 
Q 185.809708 85.783333 185.809708 87.543333 
L 185.809708 99.580083 
Q 185.809708 101.340083 187.569708 101.340083 
z
" style="fill:#ffffff;opacity:0.8;stroke:#cccccc;stroke-linejoin:miter;stroke-width:0.8;"/>
    </g>
    <g id="line2d_13"/>
    <g id="line2d_14"/>
    <g id="text_14">
     <!-- pearsonr = -0.24; p = 0.0004 -->
     <defs>
      <path d="M 18.109375 8.203125 
L 18.109375 -20.796875 
L 9.078125 -20.796875 
L 9.078125 54.6875 
L 18.109375 54.6875 
L 18.109375 46.390625 
Q 20.953125 51.265625 25.265625 53.625 
Q 29.59375 56 35.59375 56 
Q 45.5625 56 51.78125 48.09375 
Q 58.015625 40.1875 58.015625 27.296875 
Q 58.015625 14.40625 51.78125 6.484375 
Q 45.5625 -1.421875 35.59375 -1.421875 
Q 29.59375 -1.421875 25.265625 0.953125 
Q 20.953125 3.328125 18.109375 8.203125 
z
M 48.6875 27.296875 
Q 48.6875 37.203125 44.609375 42.84375 
Q 40.53125 48.484375 33.40625 48.484375 
Q 26.265625 48.484375 22.1875 42.84375 
Q 18.109375 37.203125 18.109375 27.296875 
Q 18.109375 17.390625 22.1875 11.75 
Q 26.265625 6.109375 33.40625 6.109375 
Q 40.53125 6.109375 44.609375 11.75 
Q 48.6875 17.390625 48.6875 27.296875 
z
" id="DejaVuSans-70"/>
      <path d="M 44.28125 53.078125 
L 44.28125 44.578125 
Q 40.484375 46.53125 36.375 47.5 
Q 32.28125 48.484375 27.875 48.484375 
Q 21.1875 48.484375 17.84375 46.4375 
Q 14.5 44.390625 14.5 40.28125 
Q 14.5 37.15625 16.890625 35.375 
Q 19.28125 33.59375 26.515625 31.984375 
L 29.59375 31.296875 
Q 39.15625 29.25 43.1875 25.515625 
Q 47.21875 21.78125 47.21875 15.09375 
Q 47.21875 7.46875 41.1875 3.015625 
Q 35.15625 -1.421875 24.609375 -1.421875 
Q 20.21875 -1.421875 15.453125 -0.5625 
Q 10.6875 0.296875 5.421875 2 
L 5.421875 11.28125 
Q 10.40625 8.6875 15.234375 7.390625 
Q 20.0625 6.109375 24.8125 6.109375 
Q 31.15625 6.109375 34.5625 8.28125 
Q 37.984375 10.453125 37.984375 14.40625 
Q 37.984375 18.0625 35.515625 20.015625 
Q 33.0625 21.96875 24.703125 23.78125 
L 21.578125 24.515625 
Q 13.234375 26.265625 9.515625 29.90625 
Q 5.8125 33.546875 5.8125 39.890625 
Q 5.8125 47.609375 11.28125 51.796875 
Q 16.75 56 26.8125 56 
Q 31.78125 56 36.171875 55.265625 
Q 40.578125 54.546875 44.28125 53.078125 
z
" id="DejaVuSans-73"/>
      <path d="M 10.59375 45.40625 
L 73.1875 45.40625 
L 73.1875 37.203125 
L 10.59375 37.203125 
z
M 10.59375 25.484375 
L 73.1875 25.484375 
L 73.1875 17.1875 
L 10.59375 17.1875 
z
" id="DejaVuSans-3d"/>
      <path d="M 4.890625 31.390625 
L 31.203125 31.390625 
L 31.203125 23.390625 
L 4.890625 23.390625 
z
" id="DejaVuSans-2d"/>
      <path d="M 11.71875 51.703125 
L 22.015625 51.703125 
L 22.015625 39.3125 
L 11.71875 39.3125 
z
M 11.71875 12.40625 
L 22.015625 12.40625 
L 22.015625 4 
L 14.015625 -11.625 
L 7.71875 -11.625 
L 11.71875 4 
z
" id="DejaVuSans-3b"/>
     </defs>
     <g style="fill:#262626;" transform="translate(213.969708 95.989958)scale(0.088 -0.088)">
      <use xlink:href="#DejaVuSans-70"/>
      <use x="63.476562" xlink:href="#DejaVuSans-65"/>
      <use x="125" xlink:href="#DejaVuSans-61"/>
      <use x="186.279297" xlink:href="#DejaVuSans-72"/>
      <use x="227.392578" xlink:href="#DejaVuSans-73"/>
      <use x="279.492188" xlink:href="#DejaVuSans-6f"/>
      <use x="340.673828" xlink:href="#DejaVuSans-6e"/>
      <use x="404.052734" xlink:href="#DejaVuSans-72"/>
      <use x="445.166016" xlink:href="#DejaVuSans-20"/>
      <use x="476.953125" xlink:href="#DejaVuSans-3d"/>
      <use x="560.742188" xlink:href="#DejaVuSans-20"/>
      <use x="592.529297" xlink:href="#DejaVuSans-2d"/>
      <use x="628.613281" xlink:href="#DejaVuSans-30"/>
      <use x="692.236328" xlink:href="#DejaVuSans-2e"/>
      <use x="724.023438" xlink:href="#DejaVuSans-32"/>
      <use x="787.646484" xlink:href="#DejaVuSans-34"/>
      <use x="851.269531" xlink:href="#DejaVuSans-3b"/>
      <use x="884.960938" xlink:href="#DejaVuSans-20"/>
      <use x="916.748047" xlink:href="#DejaVuSans-70"/>
      <use x="980.224609" xlink:href="#DejaVuSans-20"/>
      <use x="1012.011719" xlink:href="#DejaVuSans-3d"/>
      <use x="1095.800781" xlink:href="#DejaVuSans-20"/>
      <use x="1127.587891" xlink:href="#DejaVuSans-30"/>
      <use x="1191.210938" xlink:href="#DejaVuSans-2e"/>
      <use x="1222.998047" xlink:href="#DejaVuSans-30"/>
      <use x="1286.621094" xlink:href="#DejaVuSans-30"/>
      <use x="1350.244141" xlink:href="#DejaVuSans-30"/>
      <use x="1413.867188" xlink:href="#DejaVuSans-34"/>
     </g>
    </g>
   </g>
  </g>
  <g id="axes_2">
   <g id="patch_6">
    <path d="M 49.85 60.983333 
L 351.908333 60.983333 
L 351.908333 15.6 
L 49.85 15.6 
z
" style="fill:#ffffff;"/>
   </g>
   <g id="matplotlib.axis_3">
    <g id="xtick_6">
     <g id="line2d_15">
      <g>
       <use style="fill:#262626;stroke:#262626;" x="61.632369" xlink:href="#m83d87ffef6" y="60.983333"/>
      </g>
     </g>
    </g>
    <g id="xtick_7">
     <g id="line2d_16">
      <g>
       <use style="fill:#262626;stroke:#262626;" x="123.98106" xlink:href="#m83d87ffef6" y="60.983333"/>
      </g>
     </g>
    </g>
    <g id="xtick_8">
     <g id="line2d_17">
      <g>
       <use style="fill:#262626;stroke:#262626;" x="186.329752" xlink:href="#m83d87ffef6" y="60.983333"/>
      </g>
     </g>
    </g>
    <g id="xtick_9">
     <g id="line2d_18">
      <g>
       <use style="fill:#262626;stroke:#262626;" x="248.678443" xlink:href="#m83d87ffef6" y="60.983333"/>
      </g>
     </g>
    </g>
    <g id="xtick_10">
     <g id="line2d_19">
      <g>
       <use style="fill:#262626;stroke:#262626;" x="311.027134" xlink:href="#m83d87ffef6" y="60.983333"/>
      </g>
     </g>
    </g>
   </g>
   <g id="matplotlib.axis_4">
    <g id="ytick_7"/>
    <g id="ytick_8"/>
   </g>
   <g id="patch_7">
    <path clip-path="url(#pc9b3863c39)" d="M 108.750942 60.983333 
L 119.589557 60.983333 
L 119.589557 60.152137 
L 108.750942 60.152137 
z
" style="fill:#471365;opacity:0.4;stroke:#ffffff;stroke-linejoin:miter;stroke-width:0.8;"/>
   </g>
   <g id="patch_8">
    <path clip-path="url(#pc9b3863c39)" d="M 119.589557 60.983333 
L 130.428171 60.983333 
L 130.428171 60.983333 
L 119.589557 60.983333 
z
" style="fill:#471365;opacity:0.4;stroke:#ffffff;stroke-linejoin:miter;stroke-width:0.8;"/>
   </g>
   <g id="patch_9">
    <path clip-path="url(#pc9b3863c39)" d="M 130.428171 60.983333 
L 141.266786 60.983333 
L 141.266786 60.983333 
L 130.428171 60.983333 
z
" style="fill:#471365;opacity:0.4;stroke:#ffffff;stroke-linejoin:miter;stroke-width:0.8;"/>
   </g>
   <g id="patch_10">
    <path clip-path="url(#pc9b3863c39)" d="M 141.266786 60.983333 
L 152.105401 60.983333 
L 152.105401 59.32094 
L 141.266786 59.32094 
z
" style="fill:#471365;opacity:0.4;stroke:#ffffff;stroke-linejoin:miter;stroke-width:0.8;"/>
   </g>
   <g id="patch_11">
    <path clip-path="url(#pc9b3863c39)" d="M 152.105401 60.983333 
L 162.944015 60.983333 
L 162.944015 60.152137 
L 152.105401 60.152137 
z
" style="fill:#471365;opacity:0.4;stroke:#ffffff;stroke-linejoin:miter;stroke-width:0.8;"/>
   </g>
   <g id="patch_12">
    <path clip-path="url(#pc9b3863c39)" d="M 162.944015 60.983333 
L 173.78263 60.983333 
L 173.78263 60.152137 
L 162.944015 60.152137 
z
" style="fill:#471365;opacity:0.4;stroke:#ffffff;stroke-linejoin:miter;stroke-width:0.8;"/>
   </g>
   <g id="patch_13">
    <path clip-path="url(#pc9b3863c39)" d="M 173.78263 60.983333 
L 184.621245 60.983333 
L 184.621245 58.489744 
L 173.78263 58.489744 
z
" style="fill:#471365;opacity:0.4;stroke:#ffffff;stroke-linejoin:miter;stroke-width:0.8;"/>
   </g>
   <g id="patch_14">
    <path clip-path="url(#pc9b3863c39)" d="M 184.621245 60.983333 
L 195.459859 60.983333 
L 195.459859 59.32094 
L 184.621245 59.32094 
z
" style="fill:#471365;opacity:0.4;stroke:#ffffff;stroke-linejoin:miter;stroke-width:0.8;"/>
   </g>
   <g id="patch_15">
    <path clip-path="url(#pc9b3863c39)" d="M 195.459859 60.983333 
L 206.298474 60.983333 
L 206.298474 56.82735 
L 195.459859 56.82735 
z
" style="fill:#471365;opacity:0.4;stroke:#ffffff;stroke-linejoin:miter;stroke-width:0.8;"/>
   </g>
   <g id="patch_16">
    <path clip-path="url(#pc9b3863c39)" d="M 206.298474 60.983333 
L 217.137089 60.983333 
L 217.137089 54.333761 
L 206.298474 54.333761 
z
" style="fill:#471365;opacity:0.4;stroke:#ffffff;stroke-linejoin:miter;stroke-width:0.8;"/>
   </g>
   <g id="patch_17">
    <path clip-path="url(#pc9b3863c39)" d="M 217.137089 60.983333 
L 227.975703 60.983333 
L 227.975703 53.502564 
L 217.137089 53.502564 
z
" style="fill:#471365;opacity:0.4;stroke:#ffffff;stroke-linejoin:miter;stroke-width:0.8;"/>
   </g>
   <g id="patch_18">
    <path clip-path="url(#pc9b3863c39)" d="M 227.975703 60.983333 
L 238.814318 60.983333 
L 238.814318 50.177778 
L 227.975703 50.177778 
z
" style="fill:#471365;opacity:0.4;stroke:#ffffff;stroke-linejoin:miter;stroke-width:0.8;"/>
   </g>
   <g id="patch_19">
    <path clip-path="url(#pc9b3863c39)" d="M 238.814318 60.983333 
L 249.652933 60.983333 
L 249.652933 48.515385 
L 238.814318 48.515385 
z
" style="fill:#471365;opacity:0.4;stroke:#ffffff;stroke-linejoin:miter;stroke-width:0.8;"/>
   </g>
   <g id="patch_20">
    <path clip-path="url(#pc9b3863c39)" d="M 249.652933 60.983333 
L 260.491547 60.983333 
L 260.491547 38.541026 
L 249.652933 38.541026 
z
" style="fill:#471365;opacity:0.4;stroke:#ffffff;stroke-linejoin:miter;stroke-width:0.8;"/>
   </g>
   <g id="patch_21">
    <path clip-path="url(#pc9b3863c39)" d="M 260.491547 60.983333 
L 271.330162 60.983333 
L 271.330162 31.891453 
L 260.491547 31.891453 
z
" style="fill:#471365;opacity:0.4;stroke:#ffffff;stroke-linejoin:miter;stroke-width:0.8;"/>
   </g>
   <g id="patch_22">
    <path clip-path="url(#pc9b3863c39)" d="M 271.330162 60.983333 
L 282.168777 60.983333 
L 282.168777 25.24188 
L 271.330162 25.24188 
z
" style="fill:#471365;opacity:0.4;stroke:#ffffff;stroke-linejoin:miter;stroke-width:0.8;"/>
   </g>
   <g id="patch_23">
    <path clip-path="url(#pc9b3863c39)" d="M 282.168777 60.983333 
L 293.007391 60.983333 
L 293.007391 17.761111 
L 282.168777 17.761111 
z
" style="fill:#471365;opacity:0.4;stroke:#ffffff;stroke-linejoin:miter;stroke-width:0.8;"/>
   </g>
   <g id="line2d_20">
    <path clip-path="url(#pc9b3863c39)" d="M 76.061674 60.979601 
L 78.583239 60.97608 
L 81.104805 60.96997 
L 83.62637 60.959991 
L 86.147936 60.944675 
L 88.669501 60.922634 
L 91.191067 60.892971 
L 93.712632 60.855792 
L 96.234198 60.812649 
L 98.755763 60.766742 
L 101.277329 60.722686 
L 103.798894 60.685785 
L 106.32046 60.660919 
L 108.842025 60.651315 
L 111.363591 60.657554 
L 113.885156 60.677145 
L 116.406722 60.70478 
L 118.928287 60.733209 
L 121.449853 60.754472 
L 123.971418 60.761197 
L 126.492984 60.747708 
L 129.014549 60.710794 
L 131.536115 60.650117 
L 134.05768 60.568224 
L 136.579246 60.470199 
L 139.100811 60.36295 
L 141.622377 60.254204 
L 144.143943 60.15133 
L 146.665508 60.060167 
L 149.187074 59.984092 
L 151.708639 59.923472 
L 154.230205 59.87561 
L 156.75177 59.835206 
L 159.273336 59.795262 
L 161.794901 59.748308 
L 164.316467 59.687782 
L 166.838032 59.609291 
L 169.359598 59.511456 
L 171.881163 59.396016 
L 174.402729 59.267019 
L 176.924294 59.129107 
L 179.44586 58.985278 
L 181.967425 58.834767 
L 184.488991 58.671823 
L 187.010556 58.486024 
L 189.532122 58.264325 
L 192.053687 57.994462 
L 194.575253 57.668791 
L 197.096818 57.287362 
L 199.618384 56.859175 
L 202.139949 56.401052 
L 204.661515 55.934237 
L 207.18308 55.479523 
L 209.704646 55.052076 
L 212.226211 54.657283 
L 214.747777 54.288678 
L 217.269343 53.928537 
L 219.790908 53.551039 
L 222.312474 53.1272 
L 224.834039 52.630251 
L 227.355605 52.040019 
L 229.87717 51.345245 
L 232.398736 50.543552 
L 234.920301 49.639654 
L 237.441867 48.642795 
L 239.963432 47.564348 
L 242.484998 46.41592 
L 245.006563 45.207805 
L 247.528129 43.947528 
L 250.049694 42.638673 
L 252.57126 41.28077 
L 255.092825 39.871207 
L 257.614391 38.409577 
L 260.135956 36.903765 
L 262.657522 35.376052 
L 265.179087 33.867209 
L 267.700653 32.437239 
L 270.222218 31.162754 
L 272.743784 30.1321 
L 275.265349 29.439547 
L 277.786915 29.179023 
L 280.30848 29.436619 
L 282.830046 30.280481 
L 285.351612 31.747618 
L 287.873177 33.829452 
L 290.394743 36.460493 
L 292.916308 39.515588 
L 295.437874 42.819676 
L 297.959439 46.170066 
L 300.481005 49.366571 
L 303.00257 52.241635 
L 305.524136 54.682426 
L 308.045701 56.639761 
L 310.567267 58.12328 
L 313.088832 59.186441 
L 315.610398 59.907101 
L 318.131963 60.369281 
L 320.653529 60.64979 
L 323.175094 60.810939 
L 325.69666 60.898585 
" style="fill:none;stroke:#471365;stroke-linecap:round;stroke-width:1.2;"/>
   </g>
   <g id="patch_24">
    <path d="M 49.85 60.983333 
L 351.908333 60.983333 
" style="fill:none;stroke:#262626;stroke-linecap:square;stroke-linejoin:miter;"/>
   </g>
  </g>
  <g id="axes_3">
   <g id="patch_25">
    <path d="M 372.308333 389.9 
L 416.4 389.9 
L 416.4 81.383333 
L 372.308333 81.383333 
z
" style="fill:#ffffff;"/>
   </g>
   <g id="matplotlib.axis_5">
    <g id="xtick_11"/>
    <g id="xtick_12"/>
   </g>
   <g id="matplotlib.axis_6">
    <g id="ytick_9">
     <g id="line2d_21">
      <g>
       <use style="fill:#262626;stroke:#262626;" x="372.308333" xlink:href="#m6c8d034627" y="389.9"/>
      </g>
     </g>
    </g>
    <g id="ytick_10">
     <g id="line2d_22">
      <g>
       <use style="fill:#262626;stroke:#262626;" x="372.308333" xlink:href="#m6c8d034627" y="333.806061"/>
      </g>
     </g>
    </g>
    <g id="ytick_11">
     <g id="line2d_23">
      <g>
       <use style="fill:#262626;stroke:#262626;" x="372.308333" xlink:href="#m6c8d034627" y="277.712121"/>
      </g>
     </g>
    </g>
    <g id="ytick_12">
     <g id="line2d_24">
      <g>
       <use style="fill:#262626;stroke:#262626;" x="372.308333" xlink:href="#m6c8d034627" y="221.618182"/>
      </g>
     </g>
    </g>
    <g id="ytick_13">
     <g id="line2d_25">
      <g>
       <use style="fill:#262626;stroke:#262626;" x="372.308333" xlink:href="#m6c8d034627" y="165.524242"/>
      </g>
     </g>
    </g>
    <g id="ytick_14">
     <g id="line2d_26">
      <g>
       <use style="fill:#262626;stroke:#262626;" x="372.308333" xlink:href="#m6c8d034627" y="109.430303"/>
      </g>
     </g>
    </g>
   </g>
   <g id="patch_26">
    <path clip-path="url(#p2e32a01412)" d="M 372.308333 216.854039 
L 374.174647 216.854039 
L 374.174647 207.903982 
L 372.308333 207.903982 
z
" style="fill:#471365;opacity:0.4;stroke:#ffffff;stroke-linejoin:miter;stroke-width:0.8;"/>
   </g>
   <g id="patch_27">
    <path clip-path="url(#p2e32a01412)" d="M 372.308333 207.903982 
L 374.174647 207.903982 
L 374.174647 198.953925 
L 372.308333 198.953925 
z
" style="fill:#471365;opacity:0.4;stroke:#ffffff;stroke-linejoin:miter;stroke-width:0.8;"/>
   </g>
   <g id="patch_28">
    <path clip-path="url(#p2e32a01412)" d="M 372.308333 198.953925 
L 374.174647 198.953925 
L 374.174647 190.003868 
L 372.308333 190.003868 
z
" style="fill:#471365;opacity:0.4;stroke:#ffffff;stroke-linejoin:miter;stroke-width:0.8;"/>
   </g>
   <g id="patch_29">
    <path clip-path="url(#p2e32a01412)" d="M 372.308333 190.003868 
L 374.174647 190.003868 
L 374.174647 181.053811 
L 372.308333 181.053811 
z
" style="fill:#471365;opacity:0.4;stroke:#ffffff;stroke-linejoin:miter;stroke-width:0.8;"/>
   </g>
   <g id="patch_30">
    <path clip-path="url(#p2e32a01412)" d="M 372.308333 181.053811 
L 376.974118 181.053811 
L 376.974118 172.103754 
L 372.308333 172.103754 
z
" style="fill:#471365;opacity:0.4;stroke:#ffffff;stroke-linejoin:miter;stroke-width:0.8;"/>
   </g>
   <g id="patch_31">
    <path clip-path="url(#p2e32a01412)" d="M 372.308333 172.103754 
L 381.639903 172.103754 
L 381.639903 163.153697 
L 372.308333 163.153697 
z
" style="fill:#471365;opacity:0.4;stroke:#ffffff;stroke-linejoin:miter;stroke-width:0.8;"/>
   </g>
   <g id="patch_32">
    <path clip-path="url(#p2e32a01412)" d="M 372.308333 163.153697 
L 384.439374 163.153697 
L 384.439374 154.20364 
L 372.308333 154.20364 
z
" style="fill:#471365;opacity:0.4;stroke:#ffffff;stroke-linejoin:miter;stroke-width:0.8;"/>
   </g>
   <g id="patch_33">
    <path clip-path="url(#p2e32a01412)" d="M 372.308333 154.20364 
L 402.169356 154.20364 
L 402.169356 145.253583 
L 372.308333 145.253583 
z
" style="fill:#471365;opacity:0.4;stroke:#ffffff;stroke-linejoin:miter;stroke-width:0.8;"/>
   </g>
   <g id="patch_34">
    <path clip-path="url(#p2e32a01412)" d="M 372.308333 145.253583 
L 395.637257 145.253583 
L 395.637257 136.303526 
L 372.308333 136.303526 
z
" style="fill:#471365;opacity:0.4;stroke:#ffffff;stroke-linejoin:miter;stroke-width:0.8;"/>
   </g>
   <g id="patch_35">
    <path clip-path="url(#p2e32a01412)" d="M 372.308333 136.303526 
L 405.901984 136.303526 
L 405.901984 127.353469 
L 372.308333 127.353469 
z
" style="fill:#471365;opacity:0.4;stroke:#ffffff;stroke-linejoin:miter;stroke-width:0.8;"/>
   </g>
   <g id="patch_36">
    <path clip-path="url(#p2e32a01412)" d="M 372.308333 127.353469 
L 414.300397 127.353469 
L 414.300397 118.403412 
L 372.308333 118.403412 
z
" style="fill:#471365;opacity:0.4;stroke:#ffffff;stroke-linejoin:miter;stroke-width:0.8;"/>
   </g>
   <g id="patch_37">
    <path clip-path="url(#p2e32a01412)" d="M 372.308333 118.403412 
L 412.434083 118.403412 
L 412.434083 109.453355 
L 372.308333 109.453355 
z
" style="fill:#471365;opacity:0.4;stroke:#ffffff;stroke-linejoin:miter;stroke-width:0.8;"/>
   </g>
   <g id="line2d_27">
    <path clip-path="url(#p2e32a01412)" d="M 372.31395 238.586756 
L 372.318769 237.062856 
L 372.326931 235.538956 
L 372.340136 234.015055 
L 372.360548 232.491155 
L 372.39069 230.967255 
L 372.433222 229.443355 
L 372.49058 227.919455 
L 372.564536 226.395554 
L 372.655757 224.871654 
L 372.763485 223.347754 
L 372.885435 221.823854 
L 373.017972 220.299954 
L 373.15654 218.776054 
L 373.296225 217.252153 
L 373.432317 215.728253 
L 373.560713 214.204353 
L 373.678108 212.680453 
L 373.782017 211.156553 
L 373.870732 209.632653 
L 373.943362 208.108752 
L 374.000001 206.584852 
L 374.041997 205.060952 
L 374.072147 203.537052 
L 374.094676 202.013152 
L 374.114879 200.489251 
L 374.138478 198.965351 
L 374.170874 197.441451 
L 374.216563 195.917551 
L 374.278924 194.393651 
L 374.360472 192.869751 
L 374.463444 191.34585 
L 374.590498 189.82195 
L 374.745234 188.29805 
L 374.93233 186.77415 
L 375.15724 185.25025 
L 375.425537 183.72635 
L 375.742092 182.202449 
L 376.110268 180.678549 
L 376.531337 179.154649 
L 377.00425 177.630749 
L 377.525924 176.106849 
L 378.092161 174.582948 
L 378.699222 173.059048 
L 379.345882 171.535148 
L 380.035528 170.011248 
L 380.7776 168.487348 
L 381.587629 166.963448 
L 382.485332 165.439547 
L 383.490683 163.915647 
L 384.618563 162.391747 
L 385.873117 160.867847 
L 387.243325 159.343947 
L 388.701121 157.820047 
L 390.202952 156.296146 
L 391.694799 154.772246 
L 393.119852 153.248346 
L 394.427308 151.724446 
L 395.580484 150.200546 
L 396.562552 148.676646 
L 397.378806 147.152745 
L 398.055147 145.628845 
L 398.633303 144.104945 
L 399.163872 142.581045 
L 399.698564 141.057145 
L 400.282886 139.533244 
L 400.950225 138.009344 
L 401.717848 136.485444 
L 402.585002 134.961544 
L 403.533068 133.437644 
L 404.527615 131.913744 
L 405.52202 130.389843 
L 406.462159 128.865943 
L 407.291374 127.342043 
L 407.954757 125.818143 
L 408.401802 124.294243 
L 408.58697 122.770343 
L 408.46847 121.246442 
L 408.006513 119.722542 
L 407.162915 118.198642 
L 405.90384 116.674742 
L 404.206485 115.150842 
L 402.068817 113.626941 
L 399.519709 112.103041 
L 396.625771 110.579141 
L 393.491504 109.055241 
L 390.251119 107.531341 
L 387.052943 106.007441 
L 384.039817 104.48354 
L 381.330198 102.95964 
L 379.004424 101.43574 
L 377.098896 99.91184 
L 375.608523 98.38794 
L 374.4956 96.86404 
L 373.70201 95.340139 
L 373.161553 93.816239 
L 372.809963 92.292339 
L 372.59144 90.768439 
L 372.461658 89.244539 
L 372.387994 87.720638 
" style="fill:none;stroke:#471365;stroke-linecap:round;stroke-width:1.2;"/>
   </g>
   <g id="patch_38">
    <path d="M 372.308333 389.9 
L 372.308333 81.383333 
" style="fill:none;stroke:#262626;stroke-linecap:square;stroke-linejoin:miter;"/>
   </g>
  </g>
 </g>
 <defs>
  <clipPath id="pc0ff74a179">
   <rect height="308.516667" width="302.058333" x="49.85" y="81.383333"/>
  </clipPath>
  <clipPath id="pc9b3863c39">
   <rect height="45.383333" width="302.058333" x="49.85" y="15.6"/>
  </clipPath>
  <clipPath id="p2e32a01412">
   <rect height="308.516667" width="44.091667" x="372.308333" y="81.383333"/>
  </clipPath>
 </defs>
</svg>
