<?xml version="1.0" encoding="utf-8" standalone="no"?>
<!DOCTYPE svg PUBLIC "-//W3C//DTD SVG 1.1//EN"
  "http://www.w3.org/Graphics/SVG/1.1/DTD/svg11.dtd">
<!-- Created with matplotlib (http://matplotlib.org/) -->
<svg height="432pt" version="1.1" viewBox="0 0 432 432" width="432pt" xmlns="http://www.w3.org/2000/svg" xmlns:xlink="http://www.w3.org/1999/xlink">
 <defs>
  <style type="text/css">
*{stroke-linecap:butt;stroke-linejoin:round;}
  </style>
 </defs>
 <g id="figure_1">
  <g id="patch_1">
   <path d="M 0 432 
L 432 432 
L 432 0 
L 0 0 
z
" style="fill:#ffffff;"/>
  </g>
  <g id="axes_1">
   <g id="patch_2">
    <path d="M 49.418 390.332 
L 352.268333 390.332 
L 352.268333 81.023333 
L 49.418 81.023333 
z
" style="fill:#ffffff;"/>
   </g>
   <g id="matplotlib.axis_1">
    <g id="xtick_1">
     <g id="line2d_1">
      <defs>
       <path d="M 0 0 
L 0 4.8 
" id="ma2e0102a88" style="stroke:#262626;"/>
      </defs>
      <g>
       <use style="fill:#262626;stroke:#262626;" x="71.397884" xlink:href="#ma2e0102a88" y="390.332"/>
      </g>
     </g>
     <g id="text_1">
      <!-- −10 -->
      <defs>
       <path d="M 10.59375 35.5 
L 73.1875 35.5 
L 73.1875 27.203125 
L 10.59375 27.203125 
z
" id="DejaVuSans-2212"/>
       <path d="M 12.40625 8.296875 
L 28.515625 8.296875 
L 28.515625 63.921875 
L 10.984375 60.40625 
L 10.984375 69.390625 
L 28.421875 72.90625 
L 38.28125 72.90625 
L 38.28125 8.296875 
L 54.390625 8.296875 
L 54.390625 0 
L 12.40625 0 
z
" id="DejaVuSans-31"/>
       <path d="M 31.78125 66.40625 
Q 24.171875 66.40625 20.328125 58.90625 
Q 16.5 51.421875 16.5 36.375 
Q 16.5 21.390625 20.328125 13.890625 
Q 24.171875 6.390625 31.78125 6.390625 
Q 39.453125 6.390625 43.28125 13.890625 
Q 47.125 21.390625 47.125 36.375 
Q 47.125 51.421875 43.28125 58.90625 
Q 39.453125 66.40625 31.78125 66.40625 
z
M 31.78125 74.21875 
Q 44.046875 74.21875 50.515625 64.515625 
Q 56.984375 54.828125 56.984375 36.375 
Q 56.984375 17.96875 50.515625 8.265625 
Q 44.046875 -1.421875 31.78125 -1.421875 
Q 19.53125 -1.421875 13.0625 8.265625 
Q 6.59375 17.96875 6.59375 36.375 
Q 6.59375 54.828125 13.0625 64.515625 
Q 19.53125 74.21875 31.78125 74.21875 
z
" id="DejaVuSans-30"/>
      </defs>
      <g style="fill:#262626;" transform="translate(62.111821 405.318625)scale(0.088 -0.088)">
       <use xlink:href="#DejaVuSans-2212"/>
       <use x="83.789062" xlink:href="#DejaVuSans-31"/>
       <use x="147.412109" xlink:href="#DejaVuSans-30"/>
      </g>
     </g>
    </g>
    <g id="xtick_2">
     <g id="line2d_2">
      <g>
       <use style="fill:#262626;stroke:#262626;" x="129.68487" xlink:href="#ma2e0102a88" y="390.332"/>
      </g>
     </g>
     <g id="text_2">
      <!-- −9 -->
      <defs>
       <path d="M 10.984375 1.515625 
L 10.984375 10.5 
Q 14.703125 8.734375 18.5 7.8125 
Q 22.3125 6.890625 25.984375 6.890625 
Q 35.75 6.890625 40.890625 13.453125 
Q 46.046875 20.015625 46.78125 33.40625 
Q 43.953125 29.203125 39.59375 26.953125 
Q 35.25 24.703125 29.984375 24.703125 
Q 19.046875 24.703125 12.671875 31.3125 
Q 6.296875 37.9375 6.296875 49.421875 
Q 6.296875 60.640625 12.9375 67.421875 
Q 19.578125 74.21875 30.609375 74.21875 
Q 43.265625 74.21875 49.921875 64.515625 
Q 56.59375 54.828125 56.59375 36.375 
Q 56.59375 19.140625 48.40625 8.859375 
Q 40.234375 -1.421875 26.421875 -1.421875 
Q 22.703125 -1.421875 18.890625 -0.6875 
Q 15.09375 0.046875 10.984375 1.515625 
z
M 30.609375 32.421875 
Q 37.25 32.421875 41.125 36.953125 
Q 45.015625 41.5 45.015625 49.421875 
Q 45.015625 57.28125 41.125 61.84375 
Q 37.25 66.40625 30.609375 66.40625 
Q 23.96875 66.40625 20.09375 61.84375 
Q 16.21875 57.28125 16.21875 49.421875 
Q 16.21875 41.5 20.09375 36.953125 
Q 23.96875 32.421875 30.609375 32.421875 
z
" id="DejaVuSans-39"/>
      </defs>
      <g style="fill:#262626;" transform="translate(123.198308 405.318625)scale(0.088 -0.088)">
       <use xlink:href="#DejaVuSans-2212"/>
       <use x="83.789062" xlink:href="#DejaVuSans-39"/>
      </g>
     </g>
    </g>
    <g id="xtick_3">
     <g id="line2d_3">
      <g>
       <use style="fill:#262626;stroke:#262626;" x="187.971857" xlink:href="#ma2e0102a88" y="390.332"/>
      </g>
     </g>
     <g id="text_3">
      <!-- −8 -->
      <defs>
       <path d="M 31.78125 34.625 
Q 24.75 34.625 20.71875 30.859375 
Q 16.703125 27.09375 16.703125 20.515625 
Q 16.703125 13.921875 20.71875 10.15625 
Q 24.75 6.390625 31.78125 6.390625 
Q 38.8125 6.390625 42.859375 10.171875 
Q 46.921875 13.96875 46.921875 20.515625 
Q 46.921875 27.09375 42.890625 30.859375 
Q 38.875 34.625 31.78125 34.625 
z
M 21.921875 38.8125 
Q 15.578125 40.375 12.03125 44.71875 
Q 8.5 49.078125 8.5 55.328125 
Q 8.5 64.0625 14.71875 69.140625 
Q 20.953125 74.21875 31.78125 74.21875 
Q 42.671875 74.21875 48.875 69.140625 
Q 55.078125 64.0625 55.078125 55.328125 
Q 55.078125 49.078125 51.53125 44.71875 
Q 48 40.375 41.703125 38.8125 
Q 48.828125 37.15625 52.796875 32.3125 
Q 56.78125 27.484375 56.78125 20.515625 
Q 56.78125 9.90625 50.3125 4.234375 
Q 43.84375 -1.421875 31.78125 -1.421875 
Q 19.734375 -1.421875 13.25 4.234375 
Q 6.78125 9.90625 6.78125 20.515625 
Q 6.78125 27.484375 10.78125 32.3125 
Q 14.796875 37.15625 21.921875 38.8125 
z
M 18.3125 54.390625 
Q 18.3125 48.734375 21.84375 45.5625 
Q 25.390625 42.390625 31.78125 42.390625 
Q 38.140625 42.390625 41.71875 45.5625 
Q 45.3125 48.734375 45.3125 54.390625 
Q 45.3125 60.0625 41.71875 63.234375 
Q 38.140625 66.40625 31.78125 66.40625 
Q 25.390625 66.40625 21.84375 63.234375 
Q 18.3125 60.0625 18.3125 54.390625 
z
" id="DejaVuSans-38"/>
      </defs>
      <g style="fill:#262626;" transform="translate(181.485295 405.318625)scale(0.088 -0.088)">
       <use xlink:href="#DejaVuSans-2212"/>
       <use x="83.789062" xlink:href="#DejaVuSans-38"/>
      </g>
     </g>
    </g>
    <g id="xtick_4">
     <g id="line2d_4">
      <g>
       <use style="fill:#262626;stroke:#262626;" x="246.258844" xlink:href="#ma2e0102a88" y="390.332"/>
      </g>
     </g>
     <g id="text_4">
      <!-- −7 -->
      <defs>
       <path d="M 8.203125 72.90625 
L 55.078125 72.90625 
L 55.078125 68.703125 
L 28.609375 0 
L 18.3125 0 
L 43.21875 64.59375 
L 8.203125 64.59375 
z
" id="DejaVuSans-37"/>
      </defs>
      <g style="fill:#262626;" transform="translate(239.772281 405.318625)scale(0.088 -0.088)">
       <use xlink:href="#DejaVuSans-2212"/>
       <use x="83.789062" xlink:href="#DejaVuSans-37"/>
      </g>
     </g>
    </g>
    <g id="xtick_5">
     <g id="line2d_5">
      <g>
       <use style="fill:#262626;stroke:#262626;" x="304.54583" xlink:href="#ma2e0102a88" y="390.332"/>
      </g>
     </g>
     <g id="text_5">
      <!-- −6 -->
      <defs>
       <path d="M 33.015625 40.375 
Q 26.375 40.375 22.484375 35.828125 
Q 18.609375 31.296875 18.609375 23.390625 
Q 18.609375 15.53125 22.484375 10.953125 
Q 26.375 6.390625 33.015625 6.390625 
Q 39.65625 6.390625 43.53125 10.953125 
Q 47.40625 15.53125 47.40625 23.390625 
Q 47.40625 31.296875 43.53125 35.828125 
Q 39.65625 40.375 33.015625 40.375 
z
M 52.59375 71.296875 
L 52.59375 62.3125 
Q 48.875 64.0625 45.09375 64.984375 
Q 41.3125 65.921875 37.59375 65.921875 
Q 27.828125 65.921875 22.671875 59.328125 
Q 17.53125 52.734375 16.796875 39.40625 
Q 19.671875 43.65625 24.015625 45.921875 
Q 28.375 48.1875 33.59375 48.1875 
Q 44.578125 48.1875 50.953125 41.515625 
Q 57.328125 34.859375 57.328125 23.390625 
Q 57.328125 12.15625 50.6875 5.359375 
Q 44.046875 -1.421875 33.015625 -1.421875 
Q 20.359375 -1.421875 13.671875 8.265625 
Q 6.984375 17.96875 6.984375 36.375 
Q 6.984375 53.65625 15.1875 63.9375 
Q 23.390625 74.21875 37.203125 74.21875 
Q 40.921875 74.21875 44.703125 73.484375 
Q 48.484375 72.75 52.59375 71.296875 
z
" id="DejaVuSans-36"/>
      </defs>
      <g style="fill:#262626;" transform="translate(298.059268 405.318625)scale(0.088 -0.088)">
       <use xlink:href="#DejaVuSans-2212"/>
       <use x="83.789062" xlink:href="#DejaVuSans-36"/>
      </g>
     </g>
    </g>
    <g id="text_6">
     <!-- log(p) -->
     <defs>
      <path d="M 9.421875 75.984375 
L 18.40625 75.984375 
L 18.40625 0 
L 9.421875 0 
z
" id="DejaVuSans-6c"/>
      <path d="M 30.609375 48.390625 
Q 23.390625 48.390625 19.1875 42.75 
Q 14.984375 37.109375 14.984375 27.296875 
Q 14.984375 17.484375 19.15625 11.84375 
Q 23.34375 6.203125 30.609375 6.203125 
Q 37.796875 6.203125 41.984375 11.859375 
Q 46.1875 17.53125 46.1875 27.296875 
Q 46.1875 37.015625 41.984375 42.703125 
Q 37.796875 48.390625 30.609375 48.390625 
z
M 30.609375 56 
Q 42.328125 56 49.015625 48.375 
Q 55.71875 40.765625 55.71875 27.296875 
Q 55.71875 13.875 49.015625 6.21875 
Q 42.328125 -1.421875 30.609375 -1.421875 
Q 18.84375 -1.421875 12.171875 6.21875 
Q 5.515625 13.875 5.515625 27.296875 
Q 5.515625 40.765625 12.171875 48.375 
Q 18.84375 56 30.609375 56 
z
" id="DejaVuSans-6f"/>
      <path d="M 45.40625 27.984375 
Q 45.40625 37.75 41.375 43.109375 
Q 37.359375 48.484375 30.078125 48.484375 
Q 22.859375 48.484375 18.828125 43.109375 
Q 14.796875 37.75 14.796875 27.984375 
Q 14.796875 18.265625 18.828125 12.890625 
Q 22.859375 7.515625 30.078125 7.515625 
Q 37.359375 7.515625 41.375 12.890625 
Q 45.40625 18.265625 45.40625 27.984375 
z
M 54.390625 6.78125 
Q 54.390625 -7.171875 48.1875 -13.984375 
Q 42 -20.796875 29.203125 -20.796875 
Q 24.46875 -20.796875 20.265625 -20.09375 
Q 16.0625 -19.390625 12.109375 -17.921875 
L 12.109375 -9.1875 
Q 16.0625 -11.328125 19.921875 -12.34375 
Q 23.78125 -13.375 27.78125 -13.375 
Q 36.625 -13.375 41.015625 -8.765625 
Q 45.40625 -4.15625 45.40625 5.171875 
L 45.40625 9.625 
Q 42.625 4.78125 38.28125 2.390625 
Q 33.9375 0 27.875 0 
Q 17.828125 0 11.671875 7.65625 
Q 5.515625 15.328125 5.515625 27.984375 
Q 5.515625 40.671875 11.671875 48.328125 
Q 17.828125 56 27.875 56 
Q 33.9375 56 38.28125 53.609375 
Q 42.625 51.21875 45.40625 46.390625 
L 45.40625 54.6875 
L 54.390625 54.6875 
z
" id="DejaVuSans-67"/>
      <path d="M 31 75.875 
Q 24.46875 64.65625 21.28125 53.65625 
Q 18.109375 42.671875 18.109375 31.390625 
Q 18.109375 20.125 21.3125 9.0625 
Q 24.515625 -2 31 -13.1875 
L 23.1875 -13.1875 
Q 15.875 -1.703125 12.234375 9.375 
Q 8.59375 20.453125 8.59375 31.390625 
Q 8.59375 42.28125 12.203125 53.3125 
Q 15.828125 64.359375 23.1875 75.875 
z
" id="DejaVuSans-28"/>
      <path d="M 18.109375 8.203125 
L 18.109375 -20.796875 
L 9.078125 -20.796875 
L 9.078125 54.6875 
L 18.109375 54.6875 
L 18.109375 46.390625 
Q 20.953125 51.265625 25.265625 53.625 
Q 29.59375 56 35.59375 56 
Q 45.5625 56 51.78125 48.09375 
Q 58.015625 40.1875 58.015625 27.296875 
Q 58.015625 14.40625 51.78125 6.484375 
Q 45.5625 -1.421875 35.59375 -1.421875 
Q 29.59375 -1.421875 25.265625 0.953125 
Q 20.953125 3.328125 18.109375 8.203125 
z
M 48.6875 27.296875 
Q 48.6875 37.203125 44.609375 42.84375 
Q 40.53125 48.484375 33.40625 48.484375 
Q 26.265625 48.484375 22.1875 42.84375 
Q 18.109375 37.203125 18.109375 27.296875 
Q 18.109375 17.390625 22.1875 11.75 
Q 26.265625 6.109375 33.40625 6.109375 
Q 40.53125 6.109375 44.609375 11.75 
Q 48.6875 17.390625 48.6875 27.296875 
z
" id="DejaVuSans-70"/>
      <path d="M 8.015625 75.875 
L 15.828125 75.875 
Q 23.140625 64.359375 26.78125 53.3125 
Q 30.421875 42.28125 30.421875 31.390625 
Q 30.421875 20.453125 26.78125 9.375 
Q 23.140625 -1.703125 15.828125 -13.1875 
L 8.015625 -13.1875 
Q 14.5 -2 17.703125 9.0625 
Q 20.90625 20.125 20.90625 31.390625 
Q 20.90625 42.671875 17.703125 53.65625 
Q 14.5 64.65625 8.015625 75.875 
z
" id="DejaVuSans-29"/>
     </defs>
     <g style="fill:#262626;" transform="translate(186.732667 418.44325)scale(0.096 -0.096)">
      <use xlink:href="#DejaVuSans-6c"/>
      <use x="27.783203" xlink:href="#DejaVuSans-6f"/>
      <use x="88.964844" xlink:href="#DejaVuSans-67"/>
      <use x="152.441406" xlink:href="#DejaVuSans-28"/>
      <use x="191.455078" xlink:href="#DejaVuSans-70"/>
      <use x="254.931641" xlink:href="#DejaVuSans-29"/>
     </g>
    </g>
   </g>
   <g id="matplotlib.axis_2">
    <g id="ytick_1">
     <g id="line2d_6">
      <defs>
       <path d="M 0 0 
L -4.8 0 
" id="m24b9df7644" style="stroke:#262626;"/>
      </defs>
      <g>
       <use style="fill:#262626;stroke:#262626;" x="49.418" xlink:href="#m24b9df7644" y="390.332"/>
      </g>
     </g>
     <g id="text_7">
      <!-- 0 -->
      <g style="fill:#262626;" transform="translate(35.519 393.675313)scale(0.088 -0.088)">
       <use xlink:href="#DejaVuSans-30"/>
      </g>
     </g>
    </g>
    <g id="ytick_2">
     <g id="line2d_7">
      <g>
       <use style="fill:#262626;stroke:#262626;" x="49.418" xlink:href="#m24b9df7644" y="334.094061"/>
      </g>
     </g>
     <g id="text_8">
      <!-- 20 -->
      <defs>
       <path d="M 19.1875 8.296875 
L 53.609375 8.296875 
L 53.609375 0 
L 7.328125 0 
L 7.328125 8.296875 
Q 12.9375 14.109375 22.625 23.890625 
Q 32.328125 33.6875 34.8125 36.53125 
Q 39.546875 41.84375 41.421875 45.53125 
Q 43.3125 49.21875 43.3125 52.78125 
Q 43.3125 58.59375 39.234375 62.25 
Q 35.15625 65.921875 28.609375 65.921875 
Q 23.96875 65.921875 18.8125 64.3125 
Q 13.671875 62.703125 7.8125 59.421875 
L 7.8125 69.390625 
Q 13.765625 71.78125 18.9375 73 
Q 24.125 74.21875 28.421875 74.21875 
Q 39.75 74.21875 46.484375 68.546875 
Q 53.21875 62.890625 53.21875 53.421875 
Q 53.21875 48.921875 51.53125 44.890625 
Q 49.859375 40.875 45.40625 35.40625 
Q 44.1875 33.984375 37.640625 27.21875 
Q 31.109375 20.453125 19.1875 8.296875 
z
" id="DejaVuSans-32"/>
      </defs>
      <g style="fill:#262626;" transform="translate(29.92 337.437373)scale(0.088 -0.088)">
       <use xlink:href="#DejaVuSans-32"/>
       <use x="63.623047" xlink:href="#DejaVuSans-30"/>
      </g>
     </g>
    </g>
    <g id="ytick_3">
     <g id="line2d_8">
      <g>
       <use style="fill:#262626;stroke:#262626;" x="49.418" xlink:href="#m24b9df7644" y="277.856121"/>
      </g>
     </g>
     <g id="text_9">
      <!-- 40 -->
      <defs>
       <path d="M 37.796875 64.3125 
L 12.890625 25.390625 
L 37.796875 25.390625 
z
M 35.203125 72.90625 
L 47.609375 72.90625 
L 47.609375 25.390625 
L 58.015625 25.390625 
L 58.015625 17.1875 
L 47.609375 17.1875 
L 47.609375 0 
L 37.796875 0 
L 37.796875 17.1875 
L 4.890625 17.1875 
L 4.890625 26.703125 
z
" id="DejaVuSans-34"/>
      </defs>
      <g style="fill:#262626;" transform="translate(29.92 281.199434)scale(0.088 -0.088)">
       <use xlink:href="#DejaVuSans-34"/>
       <use x="63.623047" xlink:href="#DejaVuSans-30"/>
      </g>
     </g>
    </g>
    <g id="ytick_4">
     <g id="line2d_9">
      <g>
       <use style="fill:#262626;stroke:#262626;" x="49.418" xlink:href="#m24b9df7644" y="221.618182"/>
      </g>
     </g>
     <g id="text_10">
      <!-- 60 -->
      <g style="fill:#262626;" transform="translate(29.92 224.961494)scale(0.088 -0.088)">
       <use xlink:href="#DejaVuSans-36"/>
       <use x="63.623047" xlink:href="#DejaVuSans-30"/>
      </g>
     </g>
    </g>
    <g id="ytick_5">
     <g id="line2d_10">
      <g>
       <use style="fill:#262626;stroke:#262626;" x="49.418" xlink:href="#m24b9df7644" y="165.380242"/>
      </g>
     </g>
     <g id="text_11">
      <!-- 80 -->
      <g style="fill:#262626;" transform="translate(29.92 168.723555)scale(0.088 -0.088)">
       <use xlink:href="#DejaVuSans-38"/>
       <use x="63.623047" xlink:href="#DejaVuSans-30"/>
      </g>
     </g>
    </g>
    <g id="ytick_6">
     <g id="line2d_11">
      <g>
       <use style="fill:#262626;stroke:#262626;" x="49.418" xlink:href="#m24b9df7644" y="109.142303"/>
      </g>
     </g>
     <g id="text_12">
      <!-- 100 -->
      <g style="fill:#262626;" transform="translate(24.321 112.485616)scale(0.088 -0.088)">
       <use xlink:href="#DejaVuSans-31"/>
       <use x="63.623047" xlink:href="#DejaVuSans-30"/>
       <use x="127.246094" xlink:href="#DejaVuSans-30"/>
      </g>
     </g>
    </g>
    <g id="text_13">
     <!-- Time to cancer -->
     <defs>
      <path d="M -0.296875 72.90625 
L 61.375 72.90625 
L 61.375 64.59375 
L 35.5 64.59375 
L 35.5 0 
L 25.59375 0 
L 25.59375 64.59375 
L -0.296875 64.59375 
z
" id="DejaVuSans-54"/>
      <path d="M 9.421875 54.6875 
L 18.40625 54.6875 
L 18.40625 0 
L 9.421875 0 
z
M 9.421875 75.984375 
L 18.40625 75.984375 
L 18.40625 64.59375 
L 9.421875 64.59375 
z
" id="DejaVuSans-69"/>
      <path d="M 52 44.1875 
Q 55.375 50.25 60.0625 53.125 
Q 64.75 56 71.09375 56 
Q 79.640625 56 84.28125 50.015625 
Q 88.921875 44.046875 88.921875 33.015625 
L 88.921875 0 
L 79.890625 0 
L 79.890625 32.71875 
Q 79.890625 40.578125 77.09375 44.375 
Q 74.3125 48.1875 68.609375 48.1875 
Q 61.625 48.1875 57.5625 43.546875 
Q 53.515625 38.921875 53.515625 30.90625 
L 53.515625 0 
L 44.484375 0 
L 44.484375 32.71875 
Q 44.484375 40.625 41.703125 44.40625 
Q 38.921875 48.1875 33.109375 48.1875 
Q 26.21875 48.1875 22.15625 43.53125 
Q 18.109375 38.875 18.109375 30.90625 
L 18.109375 0 
L 9.078125 0 
L 9.078125 54.6875 
L 18.109375 54.6875 
L 18.109375 46.1875 
Q 21.1875 51.21875 25.484375 53.609375 
Q 29.78125 56 35.6875 56 
Q 41.65625 56 45.828125 52.96875 
Q 50 49.953125 52 44.1875 
z
" id="DejaVuSans-6d"/>
      <path d="M 56.203125 29.59375 
L 56.203125 25.203125 
L 14.890625 25.203125 
Q 15.484375 15.921875 20.484375 11.0625 
Q 25.484375 6.203125 34.421875 6.203125 
Q 39.59375 6.203125 44.453125 7.46875 
Q 49.3125 8.734375 54.109375 11.28125 
L 54.109375 2.78125 
Q 49.265625 0.734375 44.1875 -0.34375 
Q 39.109375 -1.421875 33.890625 -1.421875 
Q 20.796875 -1.421875 13.15625 6.1875 
Q 5.515625 13.8125 5.515625 26.8125 
Q 5.515625 40.234375 12.765625 48.109375 
Q 20.015625 56 32.328125 56 
Q 43.359375 56 49.78125 48.890625 
Q 56.203125 41.796875 56.203125 29.59375 
z
M 47.21875 32.234375 
Q 47.125 39.59375 43.09375 43.984375 
Q 39.0625 48.390625 32.421875 48.390625 
Q 24.90625 48.390625 20.390625 44.140625 
Q 15.875 39.890625 15.1875 32.171875 
z
" id="DejaVuSans-65"/>
      <path id="DejaVuSans-20"/>
      <path d="M 18.3125 70.21875 
L 18.3125 54.6875 
L 36.8125 54.6875 
L 36.8125 47.703125 
L 18.3125 47.703125 
L 18.3125 18.015625 
Q 18.3125 11.328125 20.140625 9.421875 
Q 21.96875 7.515625 27.59375 7.515625 
L 36.8125 7.515625 
L 36.8125 0 
L 27.59375 0 
Q 17.1875 0 13.234375 3.875 
Q 9.28125 7.765625 9.28125 18.015625 
L 9.28125 47.703125 
L 2.6875 47.703125 
L 2.6875 54.6875 
L 9.28125 54.6875 
L 9.28125 70.21875 
z
" id="DejaVuSans-74"/>
      <path d="M 48.78125 52.59375 
L 48.78125 44.1875 
Q 44.96875 46.296875 41.140625 47.34375 
Q 37.3125 48.390625 33.40625 48.390625 
Q 24.65625 48.390625 19.8125 42.84375 
Q 14.984375 37.3125 14.984375 27.296875 
Q 14.984375 17.28125 19.8125 11.734375 
Q 24.65625 6.203125 33.40625 6.203125 
Q 37.3125 6.203125 41.140625 7.25 
Q 44.96875 8.296875 48.78125 10.40625 
L 48.78125 2.09375 
Q 45.015625 0.34375 40.984375 -0.53125 
Q 36.96875 -1.421875 32.421875 -1.421875 
Q 20.0625 -1.421875 12.78125 6.34375 
Q 5.515625 14.109375 5.515625 27.296875 
Q 5.515625 40.671875 12.859375 48.328125 
Q 20.21875 56 33.015625 56 
Q 37.15625 56 41.109375 55.140625 
Q 45.0625 54.296875 48.78125 52.59375 
z
" id="DejaVuSans-63"/>
      <path d="M 34.28125 27.484375 
Q 23.390625 27.484375 19.1875 25 
Q 14.984375 22.515625 14.984375 16.5 
Q 14.984375 11.71875 18.140625 8.90625 
Q 21.296875 6.109375 26.703125 6.109375 
Q 34.1875 6.109375 38.703125 11.40625 
Q 43.21875 16.703125 43.21875 25.484375 
L 43.21875 27.484375 
z
M 52.203125 31.203125 
L 52.203125 0 
L 43.21875 0 
L 43.21875 8.296875 
Q 40.140625 3.328125 35.546875 0.953125 
Q 30.953125 -1.421875 24.3125 -1.421875 
Q 15.921875 -1.421875 10.953125 3.296875 
Q 6 8.015625 6 15.921875 
Q 6 25.140625 12.171875 29.828125 
Q 18.359375 34.515625 30.609375 34.515625 
L 43.21875 34.515625 
L 43.21875 35.40625 
Q 43.21875 41.609375 39.140625 45 
Q 35.0625 48.390625 27.6875 48.390625 
Q 23 48.390625 18.546875 47.265625 
Q 14.109375 46.140625 10.015625 43.890625 
L 10.015625 52.203125 
Q 14.9375 54.109375 19.578125 55.046875 
Q 24.21875 56 28.609375 56 
Q 40.484375 56 46.34375 49.84375 
Q 52.203125 43.703125 52.203125 31.203125 
z
" id="DejaVuSans-61"/>
      <path d="M 54.890625 33.015625 
L 54.890625 0 
L 45.90625 0 
L 45.90625 32.71875 
Q 45.90625 40.484375 42.875 44.328125 
Q 39.84375 48.1875 33.796875 48.1875 
Q 26.515625 48.1875 22.3125 43.546875 
Q 18.109375 38.921875 18.109375 30.90625 
L 18.109375 0 
L 9.078125 0 
L 9.078125 54.6875 
L 18.109375 54.6875 
L 18.109375 46.1875 
Q 21.34375 51.125 25.703125 53.5625 
Q 30.078125 56 35.796875 56 
Q 45.21875 56 50.046875 50.171875 
Q 54.890625 44.34375 54.890625 33.015625 
z
" id="DejaVuSans-6e"/>
      <path d="M 41.109375 46.296875 
Q 39.59375 47.171875 37.8125 47.578125 
Q 36.03125 48 33.890625 48 
Q 26.265625 48 22.1875 43.046875 
Q 18.109375 38.09375 18.109375 28.8125 
L 18.109375 0 
L 9.078125 0 
L 9.078125 54.6875 
L 18.109375 54.6875 
L 18.109375 46.1875 
Q 20.953125 51.171875 25.484375 53.578125 
Q 30.03125 56 36.53125 56 
Q 37.453125 56 38.578125 55.875 
Q 39.703125 55.765625 41.0625 55.515625 
z
" id="DejaVuSans-72"/>
     </defs>
     <g style="fill:#262626;" transform="translate(18.3245 271.628167)rotate(-90)scale(0.096 -0.096)">
      <use xlink:href="#DejaVuSans-54"/>
      <use x="61.037109" xlink:href="#DejaVuSans-69"/>
      <use x="88.820312" xlink:href="#DejaVuSans-6d"/>
      <use x="186.232422" xlink:href="#DejaVuSans-65"/>
      <use x="247.755859" xlink:href="#DejaVuSans-20"/>
      <use x="279.542969" xlink:href="#DejaVuSans-74"/>
      <use x="318.751953" xlink:href="#DejaVuSans-6f"/>
      <use x="379.933594" xlink:href="#DejaVuSans-20"/>
      <use x="411.720703" xlink:href="#DejaVuSans-63"/>
      <use x="466.701172" xlink:href="#DejaVuSans-61"/>
      <use x="527.980469" xlink:href="#DejaVuSans-6e"/>
      <use x="591.359375" xlink:href="#DejaVuSans-63"/>
      <use x="646.339844" xlink:href="#DejaVuSans-65"/>
      <use x="707.863281" xlink:href="#DejaVuSans-72"/>
     </g>
    </g>
   </g>
   <g id="PathCollection_1">
    <defs>
     <path d="M 0 2.4 
C 0.636487 2.4 1.246992 2.147121 1.697056 1.697056 
C 2.147121 1.246992 2.4 0.636487 2.4 0 
C 2.4 -0.636487 2.147121 -1.246992 1.697056 -1.697056 
C 1.246992 -2.147121 0.636487 -2.4 0 -2.4 
C -0.636487 -2.4 -1.246992 -2.147121 -1.697056 -1.697056 
C -2.147121 -1.246992 -2.4 -0.636487 -2.4 0 
C -2.4 0.636487 -2.147121 1.246992 -1.697056 1.697056 
C -1.246992 2.147121 -0.636487 2.4 0 2.4 
z
" id="m61a17e1034" style="stroke:#471365;stroke-opacity:0.8;"/>
    </defs>
    <g clip-path="url(#p2e58b44940)">
     <use style="fill:#471365;fill-opacity:0.8;stroke:#471365;stroke-opacity:0.8;" x="259.736887" xlink:href="#m61a17e1034" y="302.323477"/>
     <use style="fill:#471365;fill-opacity:0.8;stroke:#471365;stroke-opacity:0.8;" x="234.190849" xlink:href="#m61a17e1034" y="368.861433"/>
     <use style="fill:#471365;fill-opacity:0.8;stroke:#471365;stroke-opacity:0.8;" x="294.62218" xlink:href="#m61a17e1034" y="363.915576"/>
     <use style="fill:#471365;fill-opacity:0.8;stroke:#471365;stroke-opacity:0.8;" x="291.748884" xlink:href="#m61a17e1034" y="370.109453"/>
     <use style="fill:#471365;fill-opacity:0.8;stroke:#471365;stroke-opacity:0.8;" x="286.502452" xlink:href="#m61a17e1034" y="369.007806"/>
     <use style="fill:#471365;fill-opacity:0.8;stroke:#471365;stroke-opacity:0.8;" x="239.201131" xlink:href="#m61a17e1034" y="368.91536"/>
     <use style="fill:#471365;fill-opacity:0.8;stroke:#471365;stroke-opacity:0.8;" x="295.462312" xlink:href="#m61a17e1034" y="376.488222"/>
     <use style="fill:#471365;fill-opacity:0.8;stroke:#471365;stroke-opacity:0.8;" x="288.294396" xlink:href="#m61a17e1034" y="375.147756"/>
     <use style="fill:#471365;fill-opacity:0.8;stroke:#471365;stroke-opacity:0.8;" x="256.297296" xlink:href="#m61a17e1034" y="366.111167"/>
     <use style="fill:#471365;fill-opacity:0.8;stroke:#471365;stroke-opacity:0.8;" x="283.927437" xlink:href="#m61a17e1034" y="376.164662"/>
     <use style="fill:#471365;fill-opacity:0.8;stroke:#471365;stroke-opacity:0.8;" x="287.041084" xlink:href="#m61a17e1034" y="367.806009"/>
     <use style="fill:#471365;fill-opacity:0.8;stroke:#471365;stroke-opacity:0.8;" x="288.846675" xlink:href="#m61a17e1034" y="373.630102"/>
     <use style="fill:#471365;fill-opacity:0.8;stroke:#471365;stroke-opacity:0.8;" x="225.855931" xlink:href="#m61a17e1034" y="365.43323"/>
     <use style="fill:#471365;fill-opacity:0.8;stroke:#471365;stroke-opacity:0.8;" x="288.909922" xlink:href="#m61a17e1034" y="372.289636"/>
     <use style="fill:#471365;fill-opacity:0.8;stroke:#471365;stroke-opacity:0.8;" x="281.630216" xlink:href="#m61a17e1034" y="375.87962"/>
     <use style="fill:#471365;fill-opacity:0.8;stroke:#471365;stroke-opacity:0.8;" x="247.360712" xlink:href="#m61a17e1034" y="372.85972"/>
     <use style="fill:#471365;fill-opacity:0.8;stroke:#471365;stroke-opacity:0.8;" x="248.990922" xlink:href="#m61a17e1034" y="366.958588"/>
     <use style="fill:#471365;fill-opacity:0.8;stroke:#471365;stroke-opacity:0.8;" x="271.059756" xlink:href="#m61a17e1034" y="363.437939"/>
     <use style="fill:#471365;fill-opacity:0.8;stroke:#471365;stroke-opacity:0.8;" x="286.002759" xlink:href="#m61a17e1034" y="371.827407"/>
     <use style="fill:#471365;fill-opacity:0.8;stroke:#471365;stroke-opacity:0.8;" x="266.479399" xlink:href="#m61a17e1034" y="370.278938"/>
     <use style="fill:#471365;fill-opacity:0.8;stroke:#471365;stroke-opacity:0.8;" x="274.762093" xlink:href="#m61a17e1034" y="374.385077"/>
     <use style="fill:#471365;fill-opacity:0.8;stroke:#471365;stroke-opacity:0.8;" x="288.688021" xlink:href="#m61a17e1034" y="372.112448"/>
     <use style="fill:#471365;fill-opacity:0.8;stroke:#471365;stroke-opacity:0.8;" x="243.362989" xlink:href="#m61a17e1034" y="366.049536"/>
     <use style="fill:#471365;fill-opacity:0.8;stroke:#471365;stroke-opacity:0.8;" x="283.969901" xlink:href="#m61a17e1034" y="373.38358"/>
     <use style="fill:#471365;fill-opacity:0.8;stroke:#471365;stroke-opacity:0.8;" x="274.392679" xlink:href="#m61a17e1034" y="370.402199"/>
     <use style="fill:#471365;fill-opacity:0.8;stroke:#471365;stroke-opacity:0.8;" x="286.139023" xlink:href="#m61a17e1034" y="369.354478"/>
     <use style="fill:#471365;fill-opacity:0.8;stroke:#471365;stroke-opacity:0.8;" x="294.219396" xlink:href="#m61a17e1034" y="369.346774"/>
     <use style="fill:#471365;fill-opacity:0.8;stroke:#471365;stroke-opacity:0.8;" x="224.126889" xlink:href="#m61a17e1034" y="351.543229"/>
     <use style="fill:#471365;fill-opacity:0.8;stroke:#471365;stroke-opacity:0.8;" x="262.521472" xlink:href="#m61a17e1034" y="356.296491"/>
     <use style="fill:#471365;fill-opacity:0.8;stroke:#471365;stroke-opacity:0.8;" x="275.191407" xlink:href="#m61a17e1034" y="365.887756"/>
     <use style="fill:#471365;fill-opacity:0.8;stroke:#471365;stroke-opacity:0.8;" x="288.789519" xlink:href="#m61a17e1034" y="372.49764"/>
     <use style="fill:#471365;fill-opacity:0.8;stroke:#471365;stroke-opacity:0.8;" x="291.763834" xlink:href="#m61a17e1034" y="368.430019"/>
     <use style="fill:#471365;fill-opacity:0.8;stroke:#471365;stroke-opacity:0.8;" x="266.722138" xlink:href="#m61a17e1034" y="371.765776"/>
     <use style="fill:#471365;fill-opacity:0.8;stroke:#471365;stroke-opacity:0.8;" x="285.183673" xlink:href="#m61a17e1034" y="367.852232"/>
     <use style="fill:#471365;fill-opacity:0.8;stroke:#471365;stroke-opacity:0.8;" x="260.387053" xlink:href="#m61a17e1034" y="364.354694"/>
     <use style="fill:#471365;fill-opacity:0.8;stroke:#471365;stroke-opacity:0.8;" x="299.80488" xlink:href="#m61a17e1034" y="371.966076"/>
     <use style="fill:#471365;fill-opacity:0.8;stroke:#471365;stroke-opacity:0.8;" x="194.156969" xlink:href="#m61a17e1034" y="358.962015"/>
     <use style="fill:#471365;fill-opacity:0.8;stroke:#471365;stroke-opacity:0.8;" x="215.159679" xlink:href="#m61a17e1034" y="361.773912"/>
     <use style="fill:#471365;fill-opacity:0.8;stroke:#471365;stroke-opacity:0.8;" x="266.152538" xlink:href="#m61a17e1034" y="372.582382"/>
     <use style="fill:#471365;fill-opacity:0.8;stroke:#471365;stroke-opacity:0.8;" x="251.372775" xlink:href="#m61a17e1034" y="356.273379"/>
     <use style="fill:#471365;fill-opacity:0.8;stroke:#471365;stroke-opacity:0.8;" x="299.085984" xlink:href="#m61a17e1034" y="371.318954"/>
     <use style="fill:#471365;fill-opacity:0.8;stroke:#471365;stroke-opacity:0.8;" x="295.398952" xlink:href="#m61a17e1034" y="373.684029"/>
     <use style="fill:#471365;fill-opacity:0.8;stroke:#471365;stroke-opacity:0.8;" x="199.028201" xlink:href="#m61a17e1034" y="368.337573"/>
     <use style="fill:#471365;fill-opacity:0.8;stroke:#471365;stroke-opacity:0.8;" x="294.387096" xlink:href="#m61a17e1034" y="375.918139"/>
     <use style="fill:#471365;fill-opacity:0.8;stroke:#471365;stroke-opacity:0.8;" x="283.200503" xlink:href="#m61a17e1034" y="373.291134"/>
     <use style="fill:#471365;fill-opacity:0.8;stroke:#471365;stroke-opacity:0.8;" x="292.463817" xlink:href="#m61a17e1034" y="375.394279"/>
     <use style="fill:#471365;fill-opacity:0.8;stroke:#471365;stroke-opacity:0.8;" x="297.394171" xlink:href="#m61a17e1034" y="371.742665"/>
     <use style="fill:#471365;fill-opacity:0.8;stroke:#471365;stroke-opacity:0.8;" x="290.405394" xlink:href="#m61a17e1034" y="368.545576"/>
     <use style="fill:#471365;fill-opacity:0.8;stroke:#471365;stroke-opacity:0.8;" x="277.681736" xlink:href="#m61a17e1034" y="372.073929"/>
     <use style="fill:#471365;fill-opacity:0.8;stroke:#471365;stroke-opacity:0.8;" x="276.363088" xlink:href="#m61a17e1034" y="375.509836"/>
     <use style="fill:#471365;fill-opacity:0.8;stroke:#471365;stroke-opacity:0.8;" x="299.806176" xlink:href="#m61a17e1034" y="380.363247"/>
     <use style="fill:#471365;fill-opacity:0.8;stroke:#471365;stroke-opacity:0.8;" x="290.836616" xlink:href="#m61a17e1034" y="368.522465"/>
     <use style="fill:#471365;fill-opacity:0.8;stroke:#471365;stroke-opacity:0.8;" x="256.006341" xlink:href="#m61a17e1034" y="369.554778"/>
     <use style="fill:#471365;fill-opacity:0.8;stroke:#471365;stroke-opacity:0.8;" x="263.838578" xlink:href="#m61a17e1034" y="369.708854"/>
     <use style="fill:#471365;fill-opacity:0.8;stroke:#471365;stroke-opacity:0.8;" x="298.061308" xlink:href="#m61a17e1034" y="370.533164"/>
     <use style="fill:#471365;fill-opacity:0.8;stroke:#471365;stroke-opacity:0.8;" x="204.802864" xlink:href="#m61a17e1034" y="364.123579"/>
     <use style="fill:#471365;fill-opacity:0.8;stroke:#471365;stroke-opacity:0.8;" x="294.512482" xlink:href="#m61a17e1034" y="360.988122"/>
     <use style="fill:#471365;fill-opacity:0.8;stroke:#471365;stroke-opacity:0.8;" x="239.233433" xlink:href="#m61a17e1034" y="365.702864"/>
     <use style="fill:#471365;fill-opacity:0.8;stroke:#471365;stroke-opacity:0.8;" x="271.278381" xlink:href="#m61a17e1034" y="368.930768"/>
     <use style="fill:#471365;fill-opacity:0.8;stroke:#471365;stroke-opacity:0.8;" x="294.77627" xlink:href="#m61a17e1034" y="374.654711"/>
     <use style="fill:#471365;fill-opacity:0.8;stroke:#471365;stroke-opacity:0.8;" x="292.919037" xlink:href="#m61a17e1034" y="369.685743"/>
     <use style="fill:#471365;fill-opacity:0.8;stroke:#471365;stroke-opacity:0.8;" x="289.174257" xlink:href="#m61a17e1034" y="368.483946"/>
     <use style="fill:#471365;fill-opacity:0.8;stroke:#471365;stroke-opacity:0.8;" x="268.733237" xlink:href="#m61a17e1034" y="374.084628"/>
     <use style="fill:#471365;fill-opacity:0.8;stroke:#471365;stroke-opacity:0.8;" x="246.934457" xlink:href="#m61a17e1034" y="370.62561"/>
     <use style="fill:#471365;fill-opacity:0.8;stroke:#471365;stroke-opacity:0.8;" x="294.891694" xlink:href="#m61a17e1034" y="374.73175"/>
     <use style="fill:#471365;fill-opacity:0.8;stroke:#471365;stroke-opacity:0.8;" x="281.777711" xlink:href="#m61a17e1034" y="365.672049"/>
     <use style="fill:#471365;fill-opacity:0.8;stroke:#471365;stroke-opacity:0.8;" x="224.369621" xlink:href="#m61a17e1034" y="361.912581"/>
     <use style="fill:#471365;fill-opacity:0.8;stroke:#471365;stroke-opacity:0.8;" x="291.142601" xlink:href="#m61a17e1034" y="367.374595"/>
     <use style="fill:#471365;fill-opacity:0.8;stroke:#471365;stroke-opacity:0.8;" x="291.025916" xlink:href="#m61a17e1034" y="375.063014"/>
     <use style="fill:#471365;fill-opacity:0.8;stroke:#471365;stroke-opacity:0.8;" x="281.68338" xlink:href="#m61a17e1034" y="343.677622"/>
     <use style="fill:#471365;fill-opacity:0.8;stroke:#471365;stroke-opacity:0.8;" x="288.922118" xlink:href="#m61a17e1034" y="373.691733"/>
     <use style="fill:#471365;fill-opacity:0.8;stroke:#471365;stroke-opacity:0.8;" x="287.25293" xlink:href="#m61a17e1034" y="358.20704"/>
     <use style="fill:#471365;fill-opacity:0.8;stroke:#471365;stroke-opacity:0.8;" x="277.154164" xlink:href="#m61a17e1034" y="371.503846"/>
     <use style="fill:#471365;fill-opacity:0.8;stroke:#471365;stroke-opacity:0.8;" x="268.841114" xlink:href="#m61a17e1034" y="367.628821"/>
     <use style="fill:#471365;fill-opacity:0.8;stroke:#471365;stroke-opacity:0.8;" x="283.827818" xlink:href="#m61a17e1034" y="374.439004"/>
     <use style="fill:#471365;fill-opacity:0.8;stroke:#471365;stroke-opacity:0.8;" x="268.507298" xlink:href="#m61a17e1034" y="273.773093"/>
     <use style="fill:#471365;fill-opacity:0.8;stroke:#471365;stroke-opacity:0.8;" x="293.128681" xlink:href="#m61a17e1034" y="362.374811"/>
     <use style="fill:#471365;fill-opacity:0.8;stroke:#471365;stroke-opacity:0.8;" x="289.209575" xlink:href="#m61a17e1034" y="370.06323"/>
     <use style="fill:#471365;fill-opacity:0.8;stroke:#471365;stroke-opacity:0.8;" x="287.940856" xlink:href="#m61a17e1034" y="361.9511"/>
     <use style="fill:#471365;fill-opacity:0.8;stroke:#471365;stroke-opacity:0.8;" x="299.714956" xlink:href="#m61a17e1034" y="375.070718"/>
     <use style="fill:#471365;fill-opacity:0.8;stroke:#471365;stroke-opacity:0.8;" x="252.766394" xlink:href="#m61a17e1034" y="367.166591"/>
     <use style="fill:#471365;fill-opacity:0.8;stroke:#471365;stroke-opacity:0.8;" x="294.037672" xlink:href="#m61a17e1034" y="373.784179"/>
     <use style="fill:#471365;fill-opacity:0.8;stroke:#471365;stroke-opacity:0.8;" x="279.559335" xlink:href="#m61a17e1034" y="374.939753"/>
     <use style="fill:#471365;fill-opacity:0.8;stroke:#471365;stroke-opacity:0.8;" x="299.705051" xlink:href="#m61a17e1034" y="370.710352"/>
     <use style="fill:#471365;fill-opacity:0.8;stroke:#471365;stroke-opacity:0.8;" x="281.607029" xlink:href="#m61a17e1034" y="368.984695"/>
     <use style="fill:#471365;fill-opacity:0.8;stroke:#471365;stroke-opacity:0.8;" x="280.529492" xlink:href="#m61a17e1034" y="373.368172"/>
     <use style="fill:#471365;fill-opacity:0.8;stroke:#471365;stroke-opacity:0.8;" x="269.288363" xlink:href="#m61a17e1034" y="364.123579"/>
     <use style="fill:#471365;fill-opacity:0.8;stroke:#471365;stroke-opacity:0.8;" x="277.914735" xlink:href="#m61a17e1034" y="368.784395"/>
     <use style="fill:#471365;fill-opacity:0.8;stroke:#471365;stroke-opacity:0.8;" x="225.400859" xlink:href="#m61a17e1034" y="342.96887"/>
     <use style="fill:#471365;fill-opacity:0.8;stroke:#471365;stroke-opacity:0.8;" x="299.198375" xlink:href="#m61a17e1034" y="367.20511"/>
     <use style="fill:#471365;fill-opacity:0.8;stroke:#471365;stroke-opacity:0.8;" x="283.198336" xlink:href="#m61a17e1034" y="364.485659"/>
     <use style="fill:#471365;fill-opacity:0.8;stroke:#471365;stroke-opacity:0.8;" x="296.960474" xlink:href="#m61a17e1034" y="375.494429"/>
     <use style="fill:#471365;fill-opacity:0.8;stroke:#471365;stroke-opacity:0.8;" x="258.163395" xlink:href="#m61a17e1034" y="317.669501"/>
     <use style="fill:#471365;fill-opacity:0.8;stroke:#471365;stroke-opacity:0.8;" x="287.514164" xlink:href="#m61a17e1034" y="368.106458"/>
     <use style="fill:#471365;fill-opacity:0.8;stroke:#471365;stroke-opacity:0.8;" x="229.43273" xlink:href="#m61a17e1034" y="369.724262"/>
     <use style="fill:#471365;fill-opacity:0.8;stroke:#471365;stroke-opacity:0.8;" x="297.509612" xlink:href="#m61a17e1034" y="370.456126"/>
     <use style="fill:#471365;fill-opacity:0.8;stroke:#471365;stroke-opacity:0.8;" x="293.113733" xlink:href="#m61a17e1034" y="374.377374"/>
     <use style="fill:#471365;fill-opacity:0.8;stroke:#471365;stroke-opacity:0.8;" x="248.148045" xlink:href="#m61a17e1034" y="269.636137"/>
     <use style="fill:#471365;fill-opacity:0.8;stroke:#471365;stroke-opacity:0.8;" x="296.11333" xlink:href="#m61a17e1034" y="376.696226"/>
     <use style="fill:#471365;fill-opacity:0.8;stroke:#471365;stroke-opacity:0.8;" x="297.874689" xlink:href="#m61a17e1034" y="369.37759"/>
     <use style="fill:#471365;fill-opacity:0.8;stroke:#471365;stroke-opacity:0.8;" x="246.830217" xlink:href="#m61a17e1034" y="367.297556"/>
     <use style="fill:#471365;fill-opacity:0.8;stroke:#471365;stroke-opacity:0.8;" x="266.905947" xlink:href="#m61a17e1034" y="369.670335"/>
     <use style="fill:#471365;fill-opacity:0.8;stroke:#471365;stroke-opacity:0.8;" x="270.579034" xlink:href="#m61a17e1034" y="370.941467"/>
     <use style="fill:#471365;fill-opacity:0.8;stroke:#471365;stroke-opacity:0.8;" x="257.226401" xlink:href="#m61a17e1034" y="368.55328"/>
     <use style="fill:#471365;fill-opacity:0.8;stroke:#471365;stroke-opacity:0.8;" x="285.860876" xlink:href="#m61a17e1034" y="355.318105"/>
     <use style="fill:#471365;fill-opacity:0.8;stroke:#471365;stroke-opacity:0.8;" x="247.751566" xlink:href="#m61a17e1034" y="372.844312"/>
     <use style="fill:#471365;fill-opacity:0.8;stroke:#471365;stroke-opacity:0.8;" x="281.345622" xlink:href="#m61a17e1034" y="365.579603"/>
     <use style="fill:#471365;fill-opacity:0.8;stroke:#471365;stroke-opacity:0.8;" x="287.509618" xlink:href="#m61a17e1034" y="371.442215"/>
     <use style="fill:#471365;fill-opacity:0.8;stroke:#471365;stroke-opacity:0.8;" x="268.231955" xlink:href="#m61a17e1034" y="364.470252"/>
     <use style="fill:#471365;fill-opacity:0.8;stroke:#471365;stroke-opacity:0.8;" x="298.089204" xlink:href="#m61a17e1034" y="374.577673"/>
     <use style="fill:#471365;fill-opacity:0.8;stroke:#471365;stroke-opacity:0.8;" x="278.059944" xlink:href="#m61a17e1034" y="368.160385"/>
     <use style="fill:#471365;fill-opacity:0.8;stroke:#471365;stroke-opacity:0.8;" x="294.374433" xlink:href="#m61a17e1034" y="370.463829"/>
     <use style="fill:#471365;fill-opacity:0.8;stroke:#471365;stroke-opacity:0.8;" x="265.150378" xlink:href="#m61a17e1034" y="309.172179"/>
     <use style="fill:#471365;fill-opacity:0.8;stroke:#471365;stroke-opacity:0.8;" x="295.253428" xlink:href="#m61a17e1034" y="368.75358"/>
     <use style="fill:#471365;fill-opacity:0.8;stroke:#471365;stroke-opacity:0.8;" x="268.853783" xlink:href="#m61a17e1034" y="365.040335"/>
     <use style="fill:#471365;fill-opacity:0.8;stroke:#471365;stroke-opacity:0.8;" x="299.654279" xlink:href="#m61a17e1034" y="367.574894"/>
     <use style="fill:#471365;fill-opacity:0.8;stroke:#471365;stroke-opacity:0.8;" x="288.06221" xlink:href="#m61a17e1034" y="368.222016"/>
     <use style="fill:#471365;fill-opacity:0.8;stroke:#471365;stroke-opacity:0.8;" x="292.62893" xlink:href="#m61a17e1034" y="364.146691"/>
     <use style="fill:#471365;fill-opacity:0.8;stroke:#471365;stroke-opacity:0.8;" x="293.626266" xlink:href="#m61a17e1034" y="366.473247"/>
     <use style="fill:#471365;fill-opacity:0.8;stroke:#471365;stroke-opacity:0.8;" x="292.903903" xlink:href="#m61a17e1034" y="369.01551"/>
     <use style="fill:#471365;fill-opacity:0.8;stroke:#471365;stroke-opacity:0.8;" x="290.313643" xlink:href="#m61a17e1034" y="364.477956"/>
     <use style="fill:#471365;fill-opacity:0.8;stroke:#471365;stroke-opacity:0.8;" x="289.665492" xlink:href="#m61a17e1034" y="369.862931"/>
     <use style="fill:#471365;fill-opacity:0.8;stroke:#471365;stroke-opacity:0.8;" x="299.638625" xlink:href="#m61a17e1034" y="371.93526"/>
     <use style="fill:#471365;fill-opacity:0.8;stroke:#471365;stroke-opacity:0.8;" x="296.386777" xlink:href="#m61a17e1034" y="374.539154"/>
     <use style="fill:#471365;fill-opacity:0.8;stroke:#471365;stroke-opacity:0.8;" x="292.207729" xlink:href="#m61a17e1034" y="369.477739"/>
     <use style="fill:#471365;fill-opacity:0.8;stroke:#471365;stroke-opacity:0.8;" x="290.505618" xlink:href="#m61a17e1034" y="374.608488"/>
     <use style="fill:#471365;fill-opacity:0.8;stroke:#471365;stroke-opacity:0.8;" x="287.407204" xlink:href="#m61a17e1034" y="366.927773"/>
     <use style="fill:#471365;fill-opacity:0.8;stroke:#471365;stroke-opacity:0.8;" x="292.785334" xlink:href="#m61a17e1034" y="363.877057"/>
     <use style="fill:#471365;fill-opacity:0.8;stroke:#471365;stroke-opacity:0.8;" x="263.295663" xlink:href="#m61a17e1034" y="373.899736"/>
     <use style="fill:#471365;fill-opacity:0.8;stroke:#471365;stroke-opacity:0.8;" x="273.3553" xlink:href="#m61a17e1034" y="369.770485"/>
     <use style="fill:#471365;fill-opacity:0.8;stroke:#471365;stroke-opacity:0.8;" x="227.107577" xlink:href="#m61a17e1034" y="369.554778"/>
     <use style="fill:#471365;fill-opacity:0.8;stroke:#471365;stroke-opacity:0.8;" x="293.872271" xlink:href="#m61a17e1034" y="372.751866"/>
     <use style="fill:#471365;fill-opacity:0.8;stroke:#471365;stroke-opacity:0.8;" x="294.580712" xlink:href="#m61a17e1034" y="372.405194"/>
     <use style="fill:#471365;fill-opacity:0.8;stroke:#471365;stroke-opacity:0.8;" x="276.901634" xlink:href="#m61a17e1034" y="373.707141"/>
     <use style="fill:#471365;fill-opacity:0.8;stroke:#471365;stroke-opacity:0.8;" x="279.611626" xlink:href="#m61a17e1034" y="371.796591"/>
     <use style="fill:#471365;fill-opacity:0.8;stroke:#471365;stroke-opacity:0.8;" x="222.281349" xlink:href="#m61a17e1034" y="371.565477"/>
     <use style="fill:#471365;fill-opacity:0.8;stroke:#471365;stroke-opacity:0.8;" x="289.853589" xlink:href="#m61a17e1034" y="365.756791"/>
     <use style="fill:#471365;fill-opacity:0.8;stroke:#471365;stroke-opacity:0.8;" x="277.898184" xlink:href="#m61a17e1034" y="370.841317"/>
     <use style="fill:#471365;fill-opacity:0.8;stroke:#471365;stroke-opacity:0.8;" x="282.920846" xlink:href="#m61a17e1034" y="369.886042"/>
     <use style="fill:#471365;fill-opacity:0.8;stroke:#471365;stroke-opacity:0.8;" x="243.782369" xlink:href="#m61a17e1034" y="372.020002"/>
     <use style="fill:#471365;fill-opacity:0.8;stroke:#471365;stroke-opacity:0.8;" x="268.839656" xlink:href="#m61a17e1034" y="362.305476"/>
     <use style="fill:#471365;fill-opacity:0.8;stroke:#471365;stroke-opacity:0.8;" x="294.941489" xlink:href="#m61a17e1034" y="371.788888"/>
     <use style="fill:#471365;fill-opacity:0.8;stroke:#471365;stroke-opacity:0.8;" x="247.838344" xlink:href="#m61a17e1034" y="340.719352"/>
     <use style="fill:#471365;fill-opacity:0.8;stroke:#471365;stroke-opacity:0.8;" x="290.06582" xlink:href="#m61a17e1034" y="365.733679"/>
     <use style="fill:#471365;fill-opacity:0.8;stroke:#471365;stroke-opacity:0.8;" x="290.03418" xlink:href="#m61a17e1034" y="375.87962"/>
     <use style="fill:#471365;fill-opacity:0.8;stroke:#471365;stroke-opacity:0.8;" x="297.734612" xlink:href="#m61a17e1034" y="369.354478"/>
     <use style="fill:#471365;fill-opacity:0.8;stroke:#471365;stroke-opacity:0.8;" x="282.405876" xlink:href="#m61a17e1034" y="366.018721"/>
     <use style="fill:#471365;fill-opacity:0.8;stroke:#471365;stroke-opacity:0.8;" x="280.477766" xlink:href="#m61a17e1034" y="348.014877"/>
     <use style="fill:#471365;fill-opacity:0.8;stroke:#471365;stroke-opacity:0.8;" x="255.03355" xlink:href="#m61a17e1034" y="346.843895"/>
     <use style="fill:#471365;fill-opacity:0.8;stroke:#471365;stroke-opacity:0.8;" x="215.396203" xlink:href="#m61a17e1034" y="360.918787"/>
     <use style="fill:#471365;fill-opacity:0.8;stroke:#471365;stroke-opacity:0.8;" x="246.959127" xlink:href="#m61a17e1034" y="372.150968"/>
     <use style="fill:#471365;fill-opacity:0.8;stroke:#471365;stroke-opacity:0.8;" x="298.833915" xlink:href="#m61a17e1034" y="371.195693"/>
     <use style="fill:#471365;fill-opacity:0.8;stroke:#471365;stroke-opacity:0.8;" x="299.554051" xlink:href="#m61a17e1034" y="371.272731"/>
     <use style="fill:#471365;fill-opacity:0.8;stroke:#471365;stroke-opacity:0.8;" x="254.27429" xlink:href="#m61a17e1034" y="370.248122"/>
     <use style="fill:#471365;fill-opacity:0.8;stroke:#471365;stroke-opacity:0.8;" x="101.880158" xlink:href="#m61a17e1034" y="287.948135"/>
     <use style="fill:#471365;fill-opacity:0.8;stroke:#471365;stroke-opacity:0.8;" x="202.273392" xlink:href="#m61a17e1034" y="357.143912"/>
     <use style="fill:#471365;fill-opacity:0.8;stroke:#471365;stroke-opacity:0.8;" x="285.415275" xlink:href="#m61a17e1034" y="375.309537"/>
     <use style="fill:#471365;fill-opacity:0.8;stroke:#471365;stroke-opacity:0.8;" x="298.598113" xlink:href="#m61a17e1034" y="370.818205"/>
     <use style="fill:#471365;fill-opacity:0.8;stroke:#471365;stroke-opacity:0.8;" x="293.414853" xlink:href="#m61a17e1034" y="374.439004"/>
     <use style="fill:#471365;fill-opacity:0.8;stroke:#471365;stroke-opacity:0.8;" x="274.902605" xlink:href="#m61a17e1034" y="375.663913"/>
     <use style="fill:#471365;fill-opacity:0.8;stroke:#471365;stroke-opacity:0.8;" x="299.757578" xlink:href="#m61a17e1034" y="376.364961"/>
     <use style="fill:#471365;fill-opacity:0.8;stroke:#471365;stroke-opacity:0.8;" x="295.740629" xlink:href="#m61a17e1034" y="371.288139"/>
     <use style="fill:#471365;fill-opacity:0.8;stroke:#471365;stroke-opacity:0.8;" x="195.427229" xlink:href="#m61a17e1034" y="370.895244"/>
     <use style="fill:#471365;fill-opacity:0.8;stroke:#471365;stroke-opacity:0.8;" x="280.649592" xlink:href="#m61a17e1034" y="373.529953"/>
     <use style="fill:#471365;fill-opacity:0.8;stroke:#471365;stroke-opacity:0.8;" x="298.481046" xlink:href="#m61a17e1034" y="374.593081"/>
     <use style="fill:#471365;fill-opacity:0.8;stroke:#471365;stroke-opacity:0.8;" x="297.382155" xlink:href="#m61a17e1034" y="373.653214"/>
     <use style="fill:#471365;fill-opacity:0.8;stroke:#471365;stroke-opacity:0.8;" x="281.112362" xlink:href="#m61a17e1034" y="370.733463"/>
     <use style="fill:#471365;fill-opacity:0.8;stroke:#471365;stroke-opacity:0.8;" x="284.860714" xlink:href="#m61a17e1034" y="370.379087"/>
     <use style="fill:#471365;fill-opacity:0.8;stroke:#471365;stroke-opacity:0.8;" x="246.064532" xlink:href="#m61a17e1034" y="362.944894"/>
     <use style="fill:#471365;fill-opacity:0.8;stroke:#471365;stroke-opacity:0.8;" x="293.151311" xlink:href="#m61a17e1034" y="374.716342"/>
     <use style="fill:#471365;fill-opacity:0.8;stroke:#471365;stroke-opacity:0.8;" x="286.755844" xlink:href="#m61a17e1034" y="366.411616"/>
     <use style="fill:#471365;fill-opacity:0.8;stroke:#471365;stroke-opacity:0.8;" x="293.602894" xlink:href="#m61a17e1034" y="372.120152"/>
     <use style="fill:#471365;fill-opacity:0.8;stroke:#471365;stroke-opacity:0.8;" x="223.228844" xlink:href="#m61a17e1034" y="366.973996"/>
     <use style="fill:#471365;fill-opacity:0.8;stroke:#471365;stroke-opacity:0.8;" x="221.055705" xlink:href="#m61a17e1034" y="371.357473"/>
     <use style="fill:#471365;fill-opacity:0.8;stroke:#471365;stroke-opacity:0.8;" x="287.065292" xlink:href="#m61a17e1034" y="374.022998"/>
     <use style="fill:#471365;fill-opacity:0.8;stroke:#471365;stroke-opacity:0.8;" x="299.089743" xlink:href="#m61a17e1034" y="373.144761"/>
     <use style="fill:#471365;fill-opacity:0.8;stroke:#471365;stroke-opacity:0.8;" x="266.901148" xlink:href="#m61a17e1034" y="364.015726"/>
     <use style="fill:#471365;fill-opacity:0.8;stroke:#471365;stroke-opacity:0.8;" x="238.942637" xlink:href="#m61a17e1034" y="368.322165"/>
     <use style="fill:#471365;fill-opacity:0.8;stroke:#471365;stroke-opacity:0.8;" x="295.469229" xlink:href="#m61a17e1034" y="367.289853"/>
     <use style="fill:#471365;fill-opacity:0.8;stroke:#471365;stroke-opacity:0.8;" x="293.13603" xlink:href="#m61a17e1034" y="372.228006"/>
     <use style="fill:#471365;fill-opacity:0.8;stroke:#471365;stroke-opacity:0.8;" x="290.628502" xlink:href="#m61a17e1034" y="370.641017"/>
     <use style="fill:#471365;fill-opacity:0.8;stroke:#471365;stroke-opacity:0.8;" x="298.419634" xlink:href="#m61a17e1034" y="368.899952"/>
     <use style="fill:#471365;fill-opacity:0.8;stroke:#471365;stroke-opacity:0.8;" x="292.236224" xlink:href="#m61a17e1034" y="375.609986"/>
     <use style="fill:#471365;fill-opacity:0.8;stroke:#471365;stroke-opacity:0.8;" x="241.027949" xlink:href="#m61a17e1034" y="368.75358"/>
     <use style="fill:#471365;fill-opacity:0.8;stroke:#471365;stroke-opacity:0.8;" x="294.716692" xlink:href="#m61a17e1034" y="370.332864"/>
     <use style="fill:#471365;fill-opacity:0.8;stroke:#471365;stroke-opacity:0.8;" x="279.515151" xlink:href="#m61a17e1034" y="367.975493"/>
     <use style="fill:#471365;fill-opacity:0.8;stroke:#471365;stroke-opacity:0.8;" x="298.521199" xlink:href="#m61a17e1034" y="370.171084"/>
     <use style="fill:#471365;fill-opacity:0.8;stroke:#471365;stroke-opacity:0.8;" x="280.995179" xlink:href="#m61a17e1034" y="368.106458"/>
     <use style="fill:#471365;fill-opacity:0.8;stroke:#471365;stroke-opacity:0.8;" x="281.284351" xlink:href="#m61a17e1034" y="373.12165"/>
     <use style="fill:#471365;fill-opacity:0.8;stroke:#471365;stroke-opacity:0.8;" x="246.94699" xlink:href="#m61a17e1034" y="356.23486"/>
     <use style="fill:#471365;fill-opacity:0.8;stroke:#471365;stroke-opacity:0.8;" x="270.535153" xlink:href="#m61a17e1034" y="373.229503"/>
     <use style="fill:#471365;fill-opacity:0.8;stroke:#471365;stroke-opacity:0.8;" x="270.218532" xlink:href="#m61a17e1034" y="344.147555"/>
     <use style="fill:#471365;fill-opacity:0.8;stroke:#471365;stroke-opacity:0.8;" x="265.037832" xlink:href="#m61a17e1034" y="366.195909"/>
     <use style="fill:#471365;fill-opacity:0.8;stroke:#471365;stroke-opacity:0.8;" x="289.298162" xlink:href="#m61a17e1034" y="370.024711"/>
     <use style="fill:#471365;fill-opacity:0.8;stroke:#471365;stroke-opacity:0.8;" x="288.099149" xlink:href="#m61a17e1034" y="370.741167"/>
     <use style="fill:#471365;fill-opacity:0.8;stroke:#471365;stroke-opacity:0.8;" x="285.801563" xlink:href="#m61a17e1034" y="371.14947"/>
     <use style="fill:#471365;fill-opacity:0.8;stroke:#471365;stroke-opacity:0.8;" x="297.735475" xlink:href="#m61a17e1034" y="373.090834"/>
     <use style="fill:#471365;fill-opacity:0.8;stroke:#471365;stroke-opacity:0.8;" x="295.590897" xlink:href="#m61a17e1034" y="372.574678"/>
     <use style="fill:#471365;fill-opacity:0.8;stroke:#471365;stroke-opacity:0.8;" x="299.318517" xlink:href="#m61a17e1034" y="363.453347"/>
     <use style="fill:#471365;fill-opacity:0.8;stroke:#471365;stroke-opacity:0.8;" x="285.544989" xlink:href="#m61a17e1034" y="366.280651"/>
     <use style="fill:#471365;fill-opacity:0.8;stroke:#471365;stroke-opacity:0.8;" x="274.013557" xlink:href="#m61a17e1034" y="367.428521"/>
     <use style="fill:#471365;fill-opacity:0.8;stroke:#471365;stroke-opacity:0.8;" x="276.862583" xlink:href="#m61a17e1034" y="370.417606"/>
     <use style="fill:#471365;fill-opacity:0.8;stroke:#471365;stroke-opacity:0.8;" x="292.366137" xlink:href="#m61a17e1034" y="367.004811"/>
     <use style="fill:#471365;fill-opacity:0.8;stroke:#471365;stroke-opacity:0.8;" x="250.737595" xlink:href="#m61a17e1034" y="368.507057"/>
     <use style="fill:#471365;fill-opacity:0.8;stroke:#471365;stroke-opacity:0.8;" x="296.004306" xlink:href="#m61a17e1034" y="368.507057"/>
     <use style="fill:#471365;fill-opacity:0.8;stroke:#471365;stroke-opacity:0.8;" x="288.070671" xlink:href="#m61a17e1034" y="367.151184"/>
     <use style="fill:#471365;fill-opacity:0.8;stroke:#471365;stroke-opacity:0.8;" x="293.741793" xlink:href="#m61a17e1034" y="371.465327"/>
     <use style="fill:#471365;fill-opacity:0.8;stroke:#471365;stroke-opacity:0.8;" x="292.772951" xlink:href="#m61a17e1034" y="371.580884"/>
     <use style="fill:#471365;fill-opacity:0.8;stroke:#471365;stroke-opacity:0.8;" x="287.257678" xlink:href="#m61a17e1034" y="373.052315"/>
     <use style="fill:#471365;fill-opacity:0.8;stroke:#471365;stroke-opacity:0.8;" x="288.781723" xlink:href="#m61a17e1034" y="371.981483"/>
     <use style="fill:#471365;fill-opacity:0.8;stroke:#471365;stroke-opacity:0.8;" x="296.839352" xlink:href="#m61a17e1034" y="360.780118"/>
     <use style="fill:#471365;fill-opacity:0.8;stroke:#471365;stroke-opacity:0.8;" x="280.152344" xlink:href="#m61a17e1034" y="366.011017"/>
     <use style="fill:#471365;fill-opacity:0.8;stroke:#471365;stroke-opacity:0.8;" x="295.951478" xlink:href="#m61a17e1034" y="372.636309"/>
     <use style="fill:#471365;fill-opacity:0.8;stroke:#471365;stroke-opacity:0.8;" x="269.054208" xlink:href="#m61a17e1034" y="364.608921"/>
     <use style="fill:#471365;fill-opacity:0.8;stroke:#471365;stroke-opacity:0.8;" x="279.026301" xlink:href="#m61a17e1034" y="375.833397"/>
     <use style="fill:#471365;fill-opacity:0.8;stroke:#471365;stroke-opacity:0.8;" x="290.084603" xlink:href="#m61a17e1034" y="336.9907"/>
     <use style="fill:#471365;fill-opacity:0.8;stroke:#471365;stroke-opacity:0.8;" x="289.880325" xlink:href="#m61a17e1034" y="373.175577"/>
     <use style="fill:#471365;fill-opacity:0.8;stroke:#471365;stroke-opacity:0.8;" x="285.631106" xlink:href="#m61a17e1034" y="371.080136"/>
     <use style="fill:#471365;fill-opacity:0.8;stroke:#471365;stroke-opacity:0.8;" x="182.23761" xlink:href="#m61a17e1034" y="324.595242"/>
     <use style="fill:#471365;fill-opacity:0.8;stroke:#471365;stroke-opacity:0.8;" x="270.925821" xlink:href="#m61a17e1034" y="371.095543"/>
     <use style="fill:#471365;fill-opacity:0.8;stroke:#471365;stroke-opacity:0.8;" x="297.229264" xlink:href="#m61a17e1034" y="377.196974"/>
     <use style="fill:#471365;fill-opacity:0.8;stroke:#471365;stroke-opacity:0.8;" x="277.953741" xlink:href="#m61a17e1034" y="372.774978"/>
     <use style="fill:#471365;fill-opacity:0.8;stroke:#471365;stroke-opacity:0.8;" x="297.013501" xlink:href="#m61a17e1034" y="369.670335"/>
     <use style="fill:#471365;fill-opacity:0.8;stroke:#471365;stroke-opacity:0.8;" x="280.910273" xlink:href="#m61a17e1034" y="364.786109"/>
     <use style="fill:#471365;fill-opacity:0.8;stroke:#471365;stroke-opacity:0.8;" x="293.789922" xlink:href="#m61a17e1034" y="379.207673"/>
     <use style="fill:#471365;fill-opacity:0.8;stroke:#471365;stroke-opacity:0.8;" x="257.946443" xlink:href="#m61a17e1034" y="371.758072"/>
     <use style="fill:#471365;fill-opacity:0.8;stroke:#471365;stroke-opacity:0.8;" x="284.705648" xlink:href="#m61a17e1034" y="368.522465"/>
     <use style="fill:#471365;fill-opacity:0.8;stroke:#471365;stroke-opacity:0.8;" x="293.479643" xlink:href="#m61a17e1034" y="369.986192"/>
     <use style="fill:#471365;fill-opacity:0.8;stroke:#471365;stroke-opacity:0.8;" x="275.246449" xlink:href="#m61a17e1034" y="366.896957"/>
     <use style="fill:#471365;fill-opacity:0.8;stroke:#471365;stroke-opacity:0.8;" x="287.289277" xlink:href="#m61a17e1034" y="374.246409"/>
     <use style="fill:#471365;fill-opacity:0.8;stroke:#471365;stroke-opacity:0.8;" x="278.314391" xlink:href="#m61a17e1034" y="354.547722"/>
     <use style="fill:#471365;fill-opacity:0.8;stroke:#471365;stroke-opacity:0.8;" x="253.577959" xlink:href="#m61a17e1034" y="369.362182"/>
     <use style="fill:#471365;fill-opacity:0.8;stroke:#471365;stroke-opacity:0.8;" x="272.225859" xlink:href="#m61a17e1034" y="369.462332"/>
     <use style="fill:#471365;fill-opacity:0.8;stroke:#471365;stroke-opacity:0.8;" x="291.760715" xlink:href="#m61a17e1034" y="368.430019"/>
     <use style="fill:#471365;fill-opacity:0.8;stroke:#471365;stroke-opacity:0.8;" x="285.493303" xlink:href="#m61a17e1034" y="368.984695"/>
     <use style="fill:#471365;fill-opacity:0.8;stroke:#471365;stroke-opacity:0.8;" x="286.327928" xlink:href="#m61a17e1034" y="373.422099"/>
     <use style="fill:#471365;fill-opacity:0.8;stroke:#471365;stroke-opacity:0.8;" x="258.445093" xlink:href="#m61a17e1034" y="368.02942"/>
     <use style="fill:#471365;fill-opacity:0.8;stroke:#471365;stroke-opacity:0.8;" x="268.006899" xlink:href="#m61a17e1034" y="371.881334"/>
    </g>
   </g>
   <g id="PolyCollection_1">
    <defs>
     <path d="M 63.183924 -131.614968 
L 63.183924 -87.002577 
L 65.964919 -86.709429 
L 68.745914 -86.416281 
L 71.526909 -86.123133 
L 74.307903 -85.829985 
L 77.088898 -85.536837 
L 79.869893 -85.243689 
L 82.650888 -84.950541 
L 85.431883 -84.657393 
L 88.212877 -84.364245 
L 90.993872 -84.071096 
L 93.774867 -83.777948 
L 96.555862 -83.4848 
L 99.336857 -83.191652 
L 102.117851 -82.898504 
L 104.898846 -82.605356 
L 107.679841 -82.312208 
L 110.460836 -82.01906 
L 113.241831 -81.725912 
L 116.022825 -81.432764 
L 118.80382 -81.139616 
L 121.584815 -80.846468 
L 124.36581 -80.55332 
L 127.146805 -80.260172 
L 129.927799 -79.967024 
L 132.708794 -79.673876 
L 135.489789 -79.380728 
L 138.270784 -79.08758 
L 141.051779 -78.796903 
L 143.832773 -78.508964 
L 146.613768 -78.221025 
L 149.394763 -77.925373 
L 152.175758 -77.629586 
L 154.956753 -77.327733 
L 157.737747 -77.034505 
L 160.518742 -76.742224 
L 163.299737 -76.448044 
L 166.080732 -76.154695 
L 168.861727 -75.861345 
L 171.642721 -75.567996 
L 174.423716 -75.274647 
L 177.204711 -74.981298 
L 179.985706 -74.687948 
L 182.7667 -74.394599 
L 185.547695 -74.10125 
L 188.32869 -73.807901 
L 191.109685 -73.514551 
L 193.89068 -73.221339 
L 196.671674 -72.928285 
L 199.452669 -72.635231 
L 202.233664 -72.345294 
L 205.014659 -72.061026 
L 207.795654 -71.776758 
L 210.576648 -71.492491 
L 213.357643 -71.208223 
L 216.138638 -70.923955 
L 218.919633 -70.639688 
L 221.700628 -70.351469 
L 224.481622 -70.00745 
L 227.262617 -69.701527 
L 230.043612 -69.375903 
L 232.824607 -69.050096 
L 235.605602 -68.729542 
L 238.386596 -68.394081 
L 241.167591 -68.058866 
L 243.948586 -67.720068 
L 246.729581 -67.38254 
L 249.510576 -67.043199 
L 252.29157 -66.700438 
L 255.072565 -66.346923 
L 257.85356 -66.019364 
L 260.634555 -65.69599 
L 263.41555 -65.430809 
L 266.196544 -65.054086 
L 268.977539 -64.671963 
L 271.758534 -64.355066 
L 274.539529 -63.974076 
L 277.320524 -63.587737 
L 280.101518 -63.092121 
L 282.882513 -62.518158 
L 285.663508 -61.924315 
L 288.444503 -61.219418 
L 291.225498 -60.568453 
L 294.006492 -59.814623 
L 296.787487 -59.060191 
L 299.568482 -58.276133 
L 302.349477 -57.518276 
L 305.130472 -56.674466 
L 307.911466 -55.900921 
L 310.692461 -55.073304 
L 313.473456 -54.178792 
L 316.254451 -53.363042 
L 319.035446 -52.544349 
L 321.81644 -51.683017 
L 324.597435 -50.868643 
L 327.37843 -50.053081 
L 330.159425 -49.238668 
L 332.940419 -48.421522 
L 335.721414 -47.605331 
L 338.502409 -46.708909 
L 338.502409 -57.562399 
L 338.502409 -57.562399 
L 335.721414 -57.853034 
L 332.940419 -58.15401 
L 330.159425 -58.518093 
L 327.37843 -58.852742 
L 324.597435 -59.1238 
L 321.81644 -59.429889 
L 319.035446 -59.817632 
L 316.254451 -60.175399 
L 313.473456 -60.508772 
L 310.692461 -60.833169 
L 307.911466 -61.140466 
L 305.130472 -61.512098 
L 302.349477 -61.851836 
L 299.568482 -62.220009 
L 296.787487 -62.587741 
L 294.006492 -63.002402 
L 291.225498 -63.516919 
L 288.444503 -64.006446 
L 285.663508 -64.585777 
L 282.882513 -65.254715 
L 280.101518 -65.87859 
L 277.320524 -66.573675 
L 274.539529 -67.333706 
L 271.758534 -68.114949 
L 268.977539 -68.947771 
L 266.196544 -69.741232 
L 263.41555 -70.535928 
L 260.634555 -71.311488 
L 257.85356 -72.141972 
L 255.072565 -72.990363 
L 252.29157 -73.861722 
L 249.510576 -74.723718 
L 246.729581 -75.604971 
L 243.948586 -76.464346 
L 241.167591 -77.323443 
L 238.386596 -78.171105 
L 235.605602 -79.026592 
L 232.824607 -79.889982 
L 230.043612 -80.757735 
L 227.262617 -81.608118 
L 224.481622 -82.468627 
L 221.700628 -83.33454 
L 218.919633 -84.193935 
L 216.138638 -85.052942 
L 213.357643 -85.954823 
L 210.576648 -86.83378 
L 207.795654 -87.691988 
L 205.014659 -88.543857 
L 202.233664 -89.395273 
L 199.452669 -90.243662 
L 196.671674 -91.074416 
L 193.89068 -91.92445 
L 191.109685 -92.781142 
L 188.32869 -93.63987 
L 185.547695 -94.498463 
L 182.7667 -95.354899 
L 179.985706 -96.206537 
L 177.204711 -97.058176 
L 174.423716 -97.909815 
L 171.642721 -98.761453 
L 168.861727 -99.613092 
L 166.080732 -100.46473 
L 163.299737 -101.316369 
L 160.518742 -102.168008 
L 157.737747 -103.019646 
L 154.956753 -103.870894 
L 152.175758 -104.72182 
L 149.394763 -105.572746 
L 146.613768 -106.420166 
L 143.832773 -107.250969 
L 141.051779 -108.081772 
L 138.270784 -108.912575 
L 135.489789 -109.743378 
L 132.708794 -110.574181 
L 129.927799 -111.404984 
L 127.146805 -112.235787 
L 124.36581 -113.06659 
L 121.584815 -113.897393 
L 118.80382 -114.728196 
L 116.022825 -115.558999 
L 113.241831 -116.389802 
L 110.460836 -117.220605 
L 107.679841 -118.051408 
L 104.898846 -118.882211 
L 102.117851 -119.713014 
L 99.336857 -120.543817 
L 96.555862 -121.390699 
L 93.774867 -122.242721 
L 90.993872 -123.094744 
L 88.212877 -123.946766 
L 85.431883 -124.798789 
L 82.650888 -125.650811 
L 79.869893 -126.502833 
L 77.088898 -127.354856 
L 74.307903 -128.206878 
L 71.526909 -129.058901 
L 68.745914 -129.910923 
L 65.964919 -130.762946 
L 63.183924 -131.614968 
z
" id="mf24d788c38" style="stroke:#ffffff;stroke-opacity:0.15;stroke-width:0.8;"/>
    </defs>
    <g clip-path="url(#p2e58b44940)">
     <use style="fill:#471365;fill-opacity:0.15;stroke:#ffffff;stroke-opacity:0.15;stroke-width:0.8;" x="0" xlink:href="#mf24d788c38" y="432"/>
    </g>
   </g>
   <g id="line2d_12">
    <path clip-path="url(#p2e58b44940)" d="M 63.183924 320.33431 
L 65.964919 320.941043 
L 68.745914 321.547777 
L 71.526909 322.154511 
L 74.307903 322.761245 
L 77.088898 323.367979 
L 79.869893 323.974712 
L 82.650888 324.581446 
L 85.431883 325.18818 
L 88.212877 325.794914 
L 90.993872 326.401648 
L 93.774867 327.008381 
L 96.555862 327.615115 
L 99.336857 328.221849 
L 102.117851 328.828583 
L 104.898846 329.435317 
L 107.679841 330.042051 
L 110.460836 330.648784 
L 113.241831 331.255518 
L 116.022825 331.862252 
L 118.80382 332.468986 
L 121.584815 333.07572 
L 124.36581 333.682453 
L 127.146805 334.289187 
L 129.927799 334.895921 
L 132.708794 335.502655 
L 135.489789 336.109389 
L 138.270784 336.716122 
L 141.051779 337.322856 
L 143.832773 337.92959 
L 146.613768 338.536324 
L 149.394763 339.143058 
L 152.175758 339.749791 
L 154.956753 340.356525 
L 157.737747 340.963259 
L 160.518742 341.569993 
L 163.299737 342.176727 
L 166.080732 342.783461 
L 168.861727 343.390194 
L 171.642721 343.996928 
L 174.423716 344.603662 
L 177.204711 345.210396 
L 179.985706 345.81713 
L 182.7667 346.423863 
L 185.547695 347.030597 
L 188.32869 347.637331 
L 191.109685 348.244065 
L 193.89068 348.850799 
L 196.671674 349.457532 
L 199.452669 350.064266 
L 202.233664 350.671 
L 205.014659 351.277734 
L 207.795654 351.884468 
L 210.576648 352.491202 
L 213.357643 353.097935 
L 216.138638 353.704669 
L 218.919633 354.311403 
L 221.700628 354.918137 
L 224.481622 355.524871 
L 227.262617 356.131604 
L 230.043612 356.738338 
L 232.824607 357.345072 
L 235.605602 357.951806 
L 238.386596 358.55854 
L 241.167591 359.165273 
L 243.948586 359.772007 
L 246.729581 360.378741 
L 249.510576 360.985475 
L 252.29157 361.592209 
L 255.072565 362.198942 
L 257.85356 362.805676 
L 260.634555 363.41241 
L 263.41555 364.019144 
L 266.196544 364.625878 
L 268.977539 365.232612 
L 271.758534 365.839345 
L 274.539529 366.446079 
L 277.320524 367.052813 
L 280.101518 367.659547 
L 282.882513 368.266281 
L 285.663508 368.873014 
L 288.444503 369.479748 
L 291.225498 370.086482 
L 294.006492 370.693216 
L 296.787487 371.29995 
L 299.568482 371.906683 
L 302.349477 372.513417 
L 305.130472 373.120151 
L 307.911466 373.726885 
L 310.692461 374.333619 
L 313.473456 374.940352 
L 316.254451 375.547086 
L 319.035446 376.15382 
L 321.81644 376.760554 
L 324.597435 377.367288 
L 327.37843 377.974022 
L 330.159425 378.580755 
L 332.940419 379.187489 
L 335.721414 379.794223 
L 338.502409 380.400957 
" style="fill:none;stroke:#471365;stroke-linecap:round;stroke-width:1.8;"/>
   </g>
   <g id="patch_3">
    <path d="M 49.418 390.332 
L 49.418 81.023333 
" style="fill:none;stroke:#262626;stroke-linecap:square;stroke-linejoin:miter;"/>
   </g>
   <g id="patch_4">
    <path d="M 49.418 390.332 
L 352.268333 390.332 
" style="fill:none;stroke:#262626;stroke-linecap:square;stroke-linejoin:miter;"/>
   </g>
   <g id="legend_1">
    <g id="patch_5">
     <path d="M 184.939083 100.980083 
L 346.108333 100.980083 
Q 347.868333 100.980083 347.868333 99.220083 
L 347.868333 87.183333 
Q 347.868333 85.423333 346.108333 85.423333 
L 184.939083 85.423333 
Q 183.179083 85.423333 183.179083 87.183333 
L 183.179083 99.220083 
Q 183.179083 100.980083 184.939083 100.980083 
z
" style="fill:#ffffff;opacity:0.8;stroke:#cccccc;stroke-linejoin:miter;stroke-width:0.8;"/>
    </g>
    <g id="line2d_13"/>
    <g id="line2d_14"/>
    <g id="text_14">
     <!-- pearsonr = -0.41; p = 6.2e-11 -->
     <defs>
      <path d="M 44.28125 53.078125 
L 44.28125 44.578125 
Q 40.484375 46.53125 36.375 47.5 
Q 32.28125 48.484375 27.875 48.484375 
Q 21.1875 48.484375 17.84375 46.4375 
Q 14.5 44.390625 14.5 40.28125 
Q 14.5 37.15625 16.890625 35.375 
Q 19.28125 33.59375 26.515625 31.984375 
L 29.59375 31.296875 
Q 39.15625 29.25 43.1875 25.515625 
Q 47.21875 21.78125 47.21875 15.09375 
Q 47.21875 7.46875 41.1875 3.015625 
Q 35.15625 -1.421875 24.609375 -1.421875 
Q 20.21875 -1.421875 15.453125 -0.5625 
Q 10.6875 0.296875 5.421875 2 
L 5.421875 11.28125 
Q 10.40625 8.6875 15.234375 7.390625 
Q 20.0625 6.109375 24.8125 6.109375 
Q 31.15625 6.109375 34.5625 8.28125 
Q 37.984375 10.453125 37.984375 14.40625 
Q 37.984375 18.0625 35.515625 20.015625 
Q 33.0625 21.96875 24.703125 23.78125 
L 21.578125 24.515625 
Q 13.234375 26.265625 9.515625 29.90625 
Q 5.8125 33.546875 5.8125 39.890625 
Q 5.8125 47.609375 11.28125 51.796875 
Q 16.75 56 26.8125 56 
Q 31.78125 56 36.171875 55.265625 
Q 40.578125 54.546875 44.28125 53.078125 
z
" id="DejaVuSans-73"/>
      <path d="M 10.59375 45.40625 
L 73.1875 45.40625 
L 73.1875 37.203125 
L 10.59375 37.203125 
z
M 10.59375 25.484375 
L 73.1875 25.484375 
L 73.1875 17.1875 
L 10.59375 17.1875 
z
" id="DejaVuSans-3d"/>
      <path d="M 4.890625 31.390625 
L 31.203125 31.390625 
L 31.203125 23.390625 
L 4.890625 23.390625 
z
" id="DejaVuSans-2d"/>
      <path d="M 10.6875 12.40625 
L 21 12.40625 
L 21 0 
L 10.6875 0 
z
" id="DejaVuSans-2e"/>
      <path d="M 11.71875 51.703125 
L 22.015625 51.703125 
L 22.015625 39.3125 
L 11.71875 39.3125 
z
M 11.71875 12.40625 
L 22.015625 12.40625 
L 22.015625 4 
L 14.015625 -11.625 
L 7.71875 -11.625 
L 11.71875 4 
z
" id="DejaVuSans-3b"/>
     </defs>
     <g style="fill:#262626;" transform="translate(211.339083 95.629958)scale(0.088 -0.088)">
      <use xlink:href="#DejaVuSans-70"/>
      <use x="63.476562" xlink:href="#DejaVuSans-65"/>
      <use x="125" xlink:href="#DejaVuSans-61"/>
      <use x="186.279297" xlink:href="#DejaVuSans-72"/>
      <use x="227.392578" xlink:href="#DejaVuSans-73"/>
      <use x="279.492188" xlink:href="#DejaVuSans-6f"/>
      <use x="340.673828" xlink:href="#DejaVuSans-6e"/>
      <use x="404.052734" xlink:href="#DejaVuSans-72"/>
      <use x="445.166016" xlink:href="#DejaVuSans-20"/>
      <use x="476.953125" xlink:href="#DejaVuSans-3d"/>
      <use x="560.742188" xlink:href="#DejaVuSans-20"/>
      <use x="592.529297" xlink:href="#DejaVuSans-2d"/>
      <use x="628.613281" xlink:href="#DejaVuSans-30"/>
      <use x="692.236328" xlink:href="#DejaVuSans-2e"/>
      <use x="724.023438" xlink:href="#DejaVuSans-34"/>
      <use x="787.646484" xlink:href="#DejaVuSans-31"/>
      <use x="851.269531" xlink:href="#DejaVuSans-3b"/>
      <use x="884.960938" xlink:href="#DejaVuSans-20"/>
      <use x="916.748047" xlink:href="#DejaVuSans-70"/>
      <use x="980.224609" xlink:href="#DejaVuSans-20"/>
      <use x="1012.011719" xlink:href="#DejaVuSans-3d"/>
      <use x="1095.800781" xlink:href="#DejaVuSans-20"/>
      <use x="1127.587891" xlink:href="#DejaVuSans-36"/>
      <use x="1191.210938" xlink:href="#DejaVuSans-2e"/>
      <use x="1222.998047" xlink:href="#DejaVuSans-32"/>
      <use x="1286.621094" xlink:href="#DejaVuSans-65"/>
      <use x="1348.144531" xlink:href="#DejaVuSans-2d"/>
      <use x="1384.228516" xlink:href="#DejaVuSans-31"/>
      <use x="1447.851562" xlink:href="#DejaVuSans-31"/>
     </g>
    </g>
   </g>
  </g>
  <g id="axes_2">
   <g id="patch_6">
    <path d="M 49.418 61.055333 
L 352.268333 61.055333 
L 352.268333 15.168 
L 49.418 15.168 
z
" style="fill:#ffffff;"/>
   </g>
   <g id="matplotlib.axis_3">
    <g id="xtick_6">
     <g id="line2d_15">
      <g>
       <use style="fill:#262626;stroke:#262626;" x="71.397884" xlink:href="#ma2e0102a88" y="61.055333"/>
      </g>
     </g>
    </g>
    <g id="xtick_7">
     <g id="line2d_16">
      <g>
       <use style="fill:#262626;stroke:#262626;" x="129.68487" xlink:href="#ma2e0102a88" y="61.055333"/>
      </g>
     </g>
    </g>
    <g id="xtick_8">
     <g id="line2d_17">
      <g>
       <use style="fill:#262626;stroke:#262626;" x="187.971857" xlink:href="#ma2e0102a88" y="61.055333"/>
      </g>
     </g>
    </g>
    <g id="xtick_9">
     <g id="line2d_18">
      <g>
       <use style="fill:#262626;stroke:#262626;" x="246.258844" xlink:href="#ma2e0102a88" y="61.055333"/>
      </g>
     </g>
    </g>
    <g id="xtick_10">
     <g id="line2d_19">
      <g>
       <use style="fill:#262626;stroke:#262626;" x="304.54583" xlink:href="#ma2e0102a88" y="61.055333"/>
      </g>
     </g>
    </g>
   </g>
   <g id="matplotlib.axis_4">
    <g id="ytick_7"/>
    <g id="ytick_8"/>
   </g>
   <g id="patch_7">
    <path clip-path="url(#pffab6c45a4)" d="M 101.880158 61.055333 
L 109.797198 61.055333 
L 109.797198 60.431016 
L 101.880158 60.431016 
z
" style="fill:#471365;opacity:0.4;stroke:#ffffff;stroke-linejoin:miter;stroke-width:0.8;"/>
   </g>
   <g id="patch_8">
    <path clip-path="url(#pffab6c45a4)" d="M 109.797198 61.055333 
L 117.714239 61.055333 
L 117.714239 61.055333 
L 109.797198 61.055333 
z
" style="fill:#471365;opacity:0.4;stroke:#ffffff;stroke-linejoin:miter;stroke-width:0.8;"/>
   </g>
   <g id="patch_9">
    <path clip-path="url(#pffab6c45a4)" d="M 117.714239 61.055333 
L 125.63128 61.055333 
L 125.63128 61.055333 
L 117.714239 61.055333 
z
" style="fill:#471365;opacity:0.4;stroke:#ffffff;stroke-linejoin:miter;stroke-width:0.8;"/>
   </g>
   <g id="patch_10">
    <path clip-path="url(#pffab6c45a4)" d="M 125.63128 61.055333 
L 133.548321 61.055333 
L 133.548321 61.055333 
L 125.63128 61.055333 
z
" style="fill:#471365;opacity:0.4;stroke:#ffffff;stroke-linejoin:miter;stroke-width:0.8;"/>
   </g>
   <g id="patch_11">
    <path clip-path="url(#pffab6c45a4)" d="M 133.548321 61.055333 
L 141.465361 61.055333 
L 141.465361 61.055333 
L 133.548321 61.055333 
z
" style="fill:#471365;opacity:0.4;stroke:#ffffff;stroke-linejoin:miter;stroke-width:0.8;"/>
   </g>
   <g id="patch_12">
    <path clip-path="url(#pffab6c45a4)" d="M 141.465361 61.055333 
L 149.382402 61.055333 
L 149.382402 61.055333 
L 141.465361 61.055333 
z
" style="fill:#471365;opacity:0.4;stroke:#ffffff;stroke-linejoin:miter;stroke-width:0.8;"/>
   </g>
   <g id="patch_13">
    <path clip-path="url(#pffab6c45a4)" d="M 149.382402 61.055333 
L 157.299443 61.055333 
L 157.299443 61.055333 
L 149.382402 61.055333 
z
" style="fill:#471365;opacity:0.4;stroke:#ffffff;stroke-linejoin:miter;stroke-width:0.8;"/>
   </g>
   <g id="patch_14">
    <path clip-path="url(#pffab6c45a4)" d="M 157.299443 61.055333 
L 165.216483 61.055333 
L 165.216483 61.055333 
L 157.299443 61.055333 
z
" style="fill:#471365;opacity:0.4;stroke:#ffffff;stroke-linejoin:miter;stroke-width:0.8;"/>
   </g>
   <g id="patch_15">
    <path clip-path="url(#pffab6c45a4)" d="M 165.216483 61.055333 
L 173.133524 61.055333 
L 173.133524 61.055333 
L 165.216483 61.055333 
z
" style="fill:#471365;opacity:0.4;stroke:#ffffff;stroke-linejoin:miter;stroke-width:0.8;"/>
   </g>
   <g id="patch_16">
    <path clip-path="url(#pffab6c45a4)" d="M 173.133524 61.055333 
L 181.050565 61.055333 
L 181.050565 61.055333 
L 173.133524 61.055333 
z
" style="fill:#471365;opacity:0.4;stroke:#ffffff;stroke-linejoin:miter;stroke-width:0.8;"/>
   </g>
   <g id="patch_17">
    <path clip-path="url(#pffab6c45a4)" d="M 181.050565 61.055333 
L 188.967606 61.055333 
L 188.967606 60.431016 
L 181.050565 60.431016 
z
" style="fill:#471365;opacity:0.4;stroke:#ffffff;stroke-linejoin:miter;stroke-width:0.8;"/>
   </g>
   <g id="patch_18">
    <path clip-path="url(#pffab6c45a4)" d="M 188.967606 61.055333 
L 196.884646 61.055333 
L 196.884646 59.806698 
L 188.967606 59.806698 
z
" style="fill:#471365;opacity:0.4;stroke:#ffffff;stroke-linejoin:miter;stroke-width:0.8;"/>
   </g>
   <g id="patch_19">
    <path clip-path="url(#pffab6c45a4)" d="M 196.884646 61.055333 
L 204.801687 61.055333 
L 204.801687 59.806698 
L 196.884646 59.806698 
z
" style="fill:#471365;opacity:0.4;stroke:#ffffff;stroke-linejoin:miter;stroke-width:0.8;"/>
   </g>
   <g id="patch_20">
    <path clip-path="url(#pffab6c45a4)" d="M 204.801687 61.055333 
L 212.718728 61.055333 
L 212.718728 60.431016 
L 204.801687 60.431016 
z
" style="fill:#471365;opacity:0.4;stroke:#ffffff;stroke-linejoin:miter;stroke-width:0.8;"/>
   </g>
   <g id="patch_21">
    <path clip-path="url(#pffab6c45a4)" d="M 212.718728 61.055333 
L 220.635768 61.055333 
L 220.635768 59.806698 
L 212.718728 59.806698 
z
" style="fill:#471365;opacity:0.4;stroke:#ffffff;stroke-linejoin:miter;stroke-width:0.8;"/>
   </g>
   <g id="patch_22">
    <path clip-path="url(#pffab6c45a4)" d="M 220.635768 61.055333 
L 228.552809 61.055333 
L 228.552809 56.060794 
L 220.635768 56.060794 
z
" style="fill:#471365;opacity:0.4;stroke:#ffffff;stroke-linejoin:miter;stroke-width:0.8;"/>
   </g>
   <g id="patch_23">
    <path clip-path="url(#pffab6c45a4)" d="M 228.552809 61.055333 
L 236.46985 61.055333 
L 236.46985 59.806698 
L 228.552809 59.806698 
z
" style="fill:#471365;opacity:0.4;stroke:#ffffff;stroke-linejoin:miter;stroke-width:0.8;"/>
   </g>
   <g id="patch_24">
    <path clip-path="url(#pffab6c45a4)" d="M 236.46985 61.055333 
L 244.386891 61.055333 
L 244.386891 57.309429 
L 236.46985 57.309429 
z
" style="fill:#471365;opacity:0.4;stroke:#ffffff;stroke-linejoin:miter;stroke-width:0.8;"/>
   </g>
   <g id="patch_25">
    <path clip-path="url(#pffab6c45a4)" d="M 244.386891 61.055333 
L 252.303931 61.055333 
L 252.303931 53.563524 
L 244.386891 53.563524 
z
" style="fill:#471365;opacity:0.4;stroke:#ffffff;stroke-linejoin:miter;stroke-width:0.8;"/>
   </g>
   <g id="patch_26">
    <path clip-path="url(#pffab6c45a4)" d="M 252.303931 61.055333 
L 260.220972 61.055333 
L 260.220972 54.187841 
L 252.303931 54.187841 
z
" style="fill:#471365;opacity:0.4;stroke:#ffffff;stroke-linejoin:miter;stroke-width:0.8;"/>
   </g>
   <g id="patch_27">
    <path clip-path="url(#pffab6c45a4)" d="M 260.220972 61.055333 
L 268.138013 61.055333 
L 268.138013 53.563524 
L 260.220972 53.563524 
z
" style="fill:#471365;opacity:0.4;stroke:#ffffff;stroke-linejoin:miter;stroke-width:0.8;"/>
   </g>
   <g id="patch_28">
    <path clip-path="url(#pffab6c45a4)" d="M 268.138013 61.055333 
L 276.055054 61.055333 
L 276.055054 47.320349 
L 268.138013 47.320349 
z
" style="fill:#471365;opacity:0.4;stroke:#ffffff;stroke-linejoin:miter;stroke-width:0.8;"/>
   </g>
   <g id="patch_29">
    <path clip-path="url(#pffab6c45a4)" d="M 276.055054 61.055333 
L 283.972094 61.055333 
L 283.972094 39.82854 
L 276.055054 39.82854 
z
" style="fill:#471365;opacity:0.4;stroke:#ffffff;stroke-linejoin:miter;stroke-width:0.8;"/>
   </g>
   <g id="patch_30">
    <path clip-path="url(#pffab6c45a4)" d="M 283.972094 61.055333 
L 291.889135 61.055333 
L 291.889135 28.590825 
L 283.972094 28.590825 
z
" style="fill:#471365;opacity:0.4;stroke:#ffffff;stroke-linejoin:miter;stroke-width:0.8;"/>
   </g>
   <g id="patch_31">
    <path clip-path="url(#pffab6c45a4)" d="M 291.889135 61.055333 
L 299.806176 61.055333 
L 299.806176 17.353111 
L 291.889135 17.353111 
z
" style="fill:#471365;opacity:0.4;stroke:#ffffff;stroke-linejoin:miter;stroke-width:0.8;"/>
   </g>
   <g id="line2d_20">
    <path clip-path="url(#pffab6c45a4)" d="M 75.698401 61.052781 
L 78.226578 61.049517 
L 80.754755 61.043141 
L 83.282932 61.031827 
L 85.811109 61.013646 
L 88.339286 60.987329 
L 90.867463 60.953293 
L 93.39564 60.914498 
L 95.923818 60.876535 
L 98.451995 60.846538 
L 100.980172 60.831055 
L 103.508349 60.833738 
L 106.036526 60.853942 
L 108.564703 60.886977 
L 111.09288 60.925876 
L 113.621057 60.963768 
L 116.149234 60.995762 
L 118.677411 61.019683 
L 121.205588 61.035709 
L 123.733765 61.045397 
L 126.261943 61.050706 
L 128.79012 61.053351 
L 131.318297 61.054552 
L 133.846474 61.05505 
L 136.374651 61.055239 
L 138.902828 61.055303 
L 141.431005 61.055321 
L 143.959182 61.055316 
L 146.487359 61.05528 
L 149.015536 61.055167 
L 151.543713 61.054854 
L 154.071891 61.054062 
L 156.600068 61.052228 
L 159.128245 61.048341 
L 161.656422 61.040805 
L 164.184599 61.027434 
L 166.712776 61.005699 
L 169.240953 60.973231 
L 171.76913 60.928419 
L 174.297307 60.870721 
L 176.825484 60.800393 
L 179.353661 60.717729 
L 181.881839 60.622429 
L 184.410016 60.513955 
L 186.938193 60.393203 
L 189.46637 60.264725 
L 191.994547 60.137796 
L 194.522724 60.024776 
L 197.050901 59.936554 
L 199.579078 59.876728 
L 202.107255 59.837361 
L 204.635432 59.798898 
L 207.163609 59.735192 
L 209.691786 59.622407 
L 212.219964 59.44868 
L 214.748141 59.220599 
L 217.276318 58.963129 
L 219.804495 58.711667 
L 222.332672 58.498089 
L 224.860849 58.33592 
L 227.389026 58.211329 
L 229.917203 58.085098 
L 232.44538 57.90611 
L 234.973557 57.63127 
L 237.501734 57.243253 
L 240.029912 56.758004 
L 242.558089 56.218326 
L 245.086266 55.675945 
L 247.614443 55.169389 
L 250.14262 54.706752 
L 252.670797 54.260304 
L 255.198974 53.774794 
L 257.727151 53.18526 
L 260.255328 52.435916 
L 262.783505 51.491293 
L 265.311682 50.335092 
L 267.839859 48.959384 
L 270.368037 47.353214 
L 272.896214 45.501287 
L 275.424391 43.398896 
L 277.952568 41.080594 
L 280.480745 38.651914 
L 283.008922 36.30928 
L 285.537099 34.334343 
L 288.065276 33.055114 
L 290.593453 32.77674 
L 293.12163 33.697797 
L 295.649807 35.83908 
L 298.177985 39.014117 
L 300.706162 42.859105 
L 303.234339 46.917083 
L 305.762516 50.747596 
L 308.290693 54.022196 
L 310.81887 56.574344 
L 313.347047 58.394646 
L 315.875224 59.585454 
L 318.403401 60.300917 
L 320.931578 60.696045 
L 323.459755 60.89673 
L 325.987933 60.990498 
" style="fill:none;stroke:#471365;stroke-linecap:round;stroke-width:1.2;"/>
   </g>
   <g id="patch_32">
    <path d="M 49.418 61.055333 
L 352.268333 61.055333 
" style="fill:none;stroke:#262626;stroke-linecap:square;stroke-linejoin:miter;"/>
   </g>
  </g>
  <g id="axes_3">
   <g id="patch_33">
    <path d="M 372.236333 390.332 
L 416.832 390.332 
L 416.832 81.023333 
L 372.236333 81.023333 
z
" style="fill:#ffffff;"/>
   </g>
   <g id="matplotlib.axis_5">
    <g id="xtick_11"/>
    <g id="xtick_12"/>
   </g>
   <g id="matplotlib.axis_6">
    <g id="ytick_9">
     <g id="line2d_21">
      <g>
       <use style="fill:#262626;stroke:#262626;" x="372.236333" xlink:href="#m24b9df7644" y="390.332"/>
      </g>
     </g>
    </g>
    <g id="ytick_10">
     <g id="line2d_22">
      <g>
       <use style="fill:#262626;stroke:#262626;" x="372.236333" xlink:href="#m24b9df7644" y="334.094061"/>
      </g>
     </g>
    </g>
    <g id="ytick_11">
     <g id="line2d_23">
      <g>
       <use style="fill:#262626;stroke:#262626;" x="372.236333" xlink:href="#m24b9df7644" y="277.856121"/>
      </g>
     </g>
    </g>
    <g id="ytick_12">
     <g id="line2d_24">
      <g>
       <use style="fill:#262626;stroke:#262626;" x="372.236333" xlink:href="#m24b9df7644" y="221.618182"/>
      </g>
     </g>
    </g>
    <g id="ytick_13">
     <g id="line2d_25">
      <g>
       <use style="fill:#262626;stroke:#262626;" x="372.236333" xlink:href="#m24b9df7644" y="165.380242"/>
      </g>
     </g>
    </g>
    <g id="ytick_14">
     <g id="line2d_26">
      <g>
       <use style="fill:#262626;stroke:#262626;" x="372.236333" xlink:href="#m24b9df7644" y="109.142303"/>
      </g>
     </g>
    </g>
   </g>
   <g id="patch_34">
    <path clip-path="url(#p54a3f69dc9)" d="M 372.236333 380.363247 
L 373.901904 380.363247 
L 373.901904 378.148705 
L 372.236333 378.148705 
z
" style="fill:#471365;opacity:0.4;stroke:#ffffff;stroke-linejoin:miter;stroke-width:0.8;"/>
   </g>
   <g id="patch_35">
    <path clip-path="url(#p54a3f69dc9)" d="M 372.236333 378.148705 
L 376.400261 378.148705 
L 376.400261 375.934163 
L 372.236333 375.934163 
z
" style="fill:#471365;opacity:0.4;stroke:#ffffff;stroke-linejoin:miter;stroke-width:0.8;"/>
   </g>
   <g id="patch_36">
    <path clip-path="url(#p54a3f69dc9)" d="M 372.236333 375.934163 
L 397.2199 375.934163 
L 397.2199 373.719621 
L 372.236333 373.719621 
z
" style="fill:#471365;opacity:0.4;stroke:#ffffff;stroke-linejoin:miter;stroke-width:0.8;"/>
   </g>
   <g id="patch_37">
    <path clip-path="url(#p54a3f69dc9)" d="M 372.236333 373.719621 
L 408.878898 373.719621 
L 408.878898 371.505079 
L 372.236333 371.505079 
z
" style="fill:#471365;opacity:0.4;stroke:#ffffff;stroke-linejoin:miter;stroke-width:0.8;"/>
   </g>
   <g id="patch_38">
    <path clip-path="url(#p54a3f69dc9)" d="M 372.236333 371.505079 
L 414.708397 371.505079 
L 414.708397 369.290536 
L 372.236333 369.290536 
z
" style="fill:#471365;opacity:0.4;stroke:#ffffff;stroke-linejoin:miter;stroke-width:0.8;"/>
   </g>
   <g id="patch_39">
    <path clip-path="url(#p54a3f69dc9)" d="M 372.236333 369.290536 
L 404.71497 369.290536 
L 404.71497 367.075994 
L 372.236333 367.075994 
z
" style="fill:#471365;opacity:0.4;stroke:#ffffff;stroke-linejoin:miter;stroke-width:0.8;"/>
   </g>
   <g id="patch_40">
    <path clip-path="url(#p54a3f69dc9)" d="M 372.236333 367.075994 
L 389.72483 367.075994 
L 389.72483 364.861452 
L 372.236333 364.861452 
z
" style="fill:#471365;opacity:0.4;stroke:#ffffff;stroke-linejoin:miter;stroke-width:0.8;"/>
   </g>
   <g id="patch_41">
    <path clip-path="url(#p54a3f69dc9)" d="M 372.236333 364.861452 
L 384.728117 364.861452 
L 384.728117 362.64691 
L 372.236333 362.64691 
z
" style="fill:#471365;opacity:0.4;stroke:#ffffff;stroke-linejoin:miter;stroke-width:0.8;"/>
   </g>
   <g id="patch_42">
    <path clip-path="url(#p54a3f69dc9)" d="M 372.236333 362.64691 
L 378.898618 362.64691 
L 378.898618 360.432368 
L 372.236333 360.432368 
z
" style="fill:#471365;opacity:0.4;stroke:#ffffff;stroke-linejoin:miter;stroke-width:0.8;"/>
   </g>
   <g id="patch_43">
    <path clip-path="url(#p54a3f69dc9)" d="M 372.236333 360.432368 
L 373.069119 360.432368 
L 373.069119 358.217825 
L 372.236333 358.217825 
z
" style="fill:#471365;opacity:0.4;stroke:#ffffff;stroke-linejoin:miter;stroke-width:0.8;"/>
   </g>
   <g id="patch_44">
    <path clip-path="url(#p54a3f69dc9)" d="M 372.236333 358.217825 
L 376.400261 358.217825 
L 376.400261 356.003283 
L 372.236333 356.003283 
z
" style="fill:#471365;opacity:0.4;stroke:#ffffff;stroke-linejoin:miter;stroke-width:0.8;"/>
   </g>
   <g id="patch_45">
    <path clip-path="url(#p54a3f69dc9)" d="M 372.236333 356.003283 
L 373.901904 356.003283 
L 373.901904 353.788741 
L 372.236333 353.788741 
z
" style="fill:#471365;opacity:0.4;stroke:#ffffff;stroke-linejoin:miter;stroke-width:0.8;"/>
   </g>
   <g id="patch_46">
    <path clip-path="url(#p54a3f69dc9)" d="M 372.236333 353.788741 
L 372.236333 353.788741 
L 372.236333 351.574199 
L 372.236333 351.574199 
z
" style="fill:#471365;opacity:0.4;stroke:#ffffff;stroke-linejoin:miter;stroke-width:0.8;"/>
   </g>
   <g id="patch_47">
    <path clip-path="url(#p54a3f69dc9)" d="M 372.236333 351.574199 
L 373.069119 351.574199 
L 373.069119 349.359657 
L 372.236333 349.359657 
z
" style="fill:#471365;opacity:0.4;stroke:#ffffff;stroke-linejoin:miter;stroke-width:0.8;"/>
   </g>
   <g id="patch_48">
    <path clip-path="url(#p54a3f69dc9)" d="M 372.236333 349.359657 
L 373.069119 349.359657 
L 373.069119 347.145114 
L 372.236333 347.145114 
z
" style="fill:#471365;opacity:0.4;stroke:#ffffff;stroke-linejoin:miter;stroke-width:0.8;"/>
   </g>
   <g id="patch_49">
    <path clip-path="url(#p54a3f69dc9)" d="M 372.236333 347.145114 
L 373.069119 347.145114 
L 373.069119 344.930572 
L 372.236333 344.930572 
z
" style="fill:#471365;opacity:0.4;stroke:#ffffff;stroke-linejoin:miter;stroke-width:0.8;"/>
   </g>
   <g id="patch_50">
    <path clip-path="url(#p54a3f69dc9)" d="M 372.236333 344.930572 
L 374.73469 344.930572 
L 374.73469 342.71603 
L 372.236333 342.71603 
z
" style="fill:#471365;opacity:0.4;stroke:#ffffff;stroke-linejoin:miter;stroke-width:0.8;"/>
   </g>
   <g id="patch_51">
    <path clip-path="url(#p54a3f69dc9)" d="M 372.236333 342.71603 
L 373.069119 342.71603 
L 373.069119 340.501488 
L 372.236333 340.501488 
z
" style="fill:#471365;opacity:0.4;stroke:#ffffff;stroke-linejoin:miter;stroke-width:0.8;"/>
   </g>
   <g id="patch_52">
    <path clip-path="url(#p54a3f69dc9)" d="M 372.236333 340.501488 
L 372.236333 340.501488 
L 372.236333 338.286946 
L 372.236333 338.286946 
z
" style="fill:#471365;opacity:0.4;stroke:#ffffff;stroke-linejoin:miter;stroke-width:0.8;"/>
   </g>
   <g id="patch_53">
    <path clip-path="url(#p54a3f69dc9)" d="M 372.236333 338.286946 
L 373.069119 338.286946 
L 373.069119 336.072403 
L 372.236333 336.072403 
z
" style="fill:#471365;opacity:0.4;stroke:#ffffff;stroke-linejoin:miter;stroke-width:0.8;"/>
   </g>
   <g id="patch_54">
    <path clip-path="url(#p54a3f69dc9)" d="M 372.236333 336.072403 
L 372.236333 336.072403 
L 372.236333 333.857861 
L 372.236333 333.857861 
z
" style="fill:#471365;opacity:0.4;stroke:#ffffff;stroke-linejoin:miter;stroke-width:0.8;"/>
   </g>
   <g id="patch_55">
    <path clip-path="url(#p54a3f69dc9)" d="M 372.236333 333.857861 
L 372.236333 333.857861 
L 372.236333 331.643319 
L 372.236333 331.643319 
z
" style="fill:#471365;opacity:0.4;stroke:#ffffff;stroke-linejoin:miter;stroke-width:0.8;"/>
   </g>
   <g id="patch_56">
    <path clip-path="url(#p54a3f69dc9)" d="M 372.236333 331.643319 
L 372.236333 331.643319 
L 372.236333 329.428777 
L 372.236333 329.428777 
z
" style="fill:#471365;opacity:0.4;stroke:#ffffff;stroke-linejoin:miter;stroke-width:0.8;"/>
   </g>
   <g id="patch_57">
    <path clip-path="url(#p54a3f69dc9)" d="M 372.236333 329.428777 
L 372.236333 329.428777 
L 372.236333 327.214235 
L 372.236333 327.214235 
z
" style="fill:#471365;opacity:0.4;stroke:#ffffff;stroke-linejoin:miter;stroke-width:0.8;"/>
   </g>
   <g id="patch_58">
    <path clip-path="url(#p54a3f69dc9)" d="M 372.236333 327.214235 
L 372.236333 327.214235 
L 372.236333 324.999692 
L 372.236333 324.999692 
z
" style="fill:#471365;opacity:0.4;stroke:#ffffff;stroke-linejoin:miter;stroke-width:0.8;"/>
   </g>
   <g id="patch_59">
    <path clip-path="url(#p54a3f69dc9)" d="M 372.236333 324.999692 
L 373.069119 324.999692 
L 373.069119 322.78515 
L 372.236333 322.78515 
z
" style="fill:#471365;opacity:0.4;stroke:#ffffff;stroke-linejoin:miter;stroke-width:0.8;"/>
   </g>
   <g id="patch_60">
    <path clip-path="url(#p54a3f69dc9)" d="M 372.236333 322.78515 
L 372.236333 322.78515 
L 372.236333 320.570608 
L 372.236333 320.570608 
z
" style="fill:#471365;opacity:0.4;stroke:#ffffff;stroke-linejoin:miter;stroke-width:0.8;"/>
   </g>
   <g id="patch_61">
    <path clip-path="url(#p54a3f69dc9)" d="M 372.236333 320.570608 
L 372.236333 320.570608 
L 372.236333 318.356066 
L 372.236333 318.356066 
z
" style="fill:#471365;opacity:0.4;stroke:#ffffff;stroke-linejoin:miter;stroke-width:0.8;"/>
   </g>
   <g id="patch_62">
    <path clip-path="url(#p54a3f69dc9)" d="M 372.236333 318.356066 
L 373.069119 318.356066 
L 373.069119 316.141524 
L 372.236333 316.141524 
z
" style="fill:#471365;opacity:0.4;stroke:#ffffff;stroke-linejoin:miter;stroke-width:0.8;"/>
   </g>
   <g id="patch_63">
    <path clip-path="url(#p54a3f69dc9)" d="M 372.236333 316.141524 
L 372.236333 316.141524 
L 372.236333 313.926981 
L 372.236333 313.926981 
z
" style="fill:#471365;opacity:0.4;stroke:#ffffff;stroke-linejoin:miter;stroke-width:0.8;"/>
   </g>
   <g id="patch_64">
    <path clip-path="url(#p54a3f69dc9)" d="M 372.236333 313.926981 
L 372.236333 313.926981 
L 372.236333 311.712439 
L 372.236333 311.712439 
z
" style="fill:#471365;opacity:0.4;stroke:#ffffff;stroke-linejoin:miter;stroke-width:0.8;"/>
   </g>
   <g id="patch_65">
    <path clip-path="url(#p54a3f69dc9)" d="M 372.236333 311.712439 
L 372.236333 311.712439 
L 372.236333 309.497897 
L 372.236333 309.497897 
z
" style="fill:#471365;opacity:0.4;stroke:#ffffff;stroke-linejoin:miter;stroke-width:0.8;"/>
   </g>
   <g id="patch_66">
    <path clip-path="url(#p54a3f69dc9)" d="M 372.236333 309.497897 
L 373.069119 309.497897 
L 373.069119 307.283355 
L 372.236333 307.283355 
z
" style="fill:#471365;opacity:0.4;stroke:#ffffff;stroke-linejoin:miter;stroke-width:0.8;"/>
   </g>
   <g id="patch_67">
    <path clip-path="url(#p54a3f69dc9)" d="M 372.236333 307.283355 
L 372.236333 307.283355 
L 372.236333 305.068813 
L 372.236333 305.068813 
z
" style="fill:#471365;opacity:0.4;stroke:#ffffff;stroke-linejoin:miter;stroke-width:0.8;"/>
   </g>
   <g id="patch_68">
    <path clip-path="url(#p54a3f69dc9)" d="M 372.236333 305.068813 
L 372.236333 305.068813 
L 372.236333 302.85427 
L 372.236333 302.85427 
z
" style="fill:#471365;opacity:0.4;stroke:#ffffff;stroke-linejoin:miter;stroke-width:0.8;"/>
   </g>
   <g id="patch_69">
    <path clip-path="url(#p54a3f69dc9)" d="M 372.236333 302.85427 
L 373.069119 302.85427 
L 373.069119 300.639728 
L 372.236333 300.639728 
z
" style="fill:#471365;opacity:0.4;stroke:#ffffff;stroke-linejoin:miter;stroke-width:0.8;"/>
   </g>
   <g id="patch_70">
    <path clip-path="url(#p54a3f69dc9)" d="M 372.236333 300.639728 
L 372.236333 300.639728 
L 372.236333 298.425186 
L 372.236333 298.425186 
z
" style="fill:#471365;opacity:0.4;stroke:#ffffff;stroke-linejoin:miter;stroke-width:0.8;"/>
   </g>
   <g id="patch_71">
    <path clip-path="url(#p54a3f69dc9)" d="M 372.236333 298.425186 
L 372.236333 298.425186 
L 372.236333 296.210644 
L 372.236333 296.210644 
z
" style="fill:#471365;opacity:0.4;stroke:#ffffff;stroke-linejoin:miter;stroke-width:0.8;"/>
   </g>
   <g id="patch_72">
    <path clip-path="url(#p54a3f69dc9)" d="M 372.236333 296.210644 
L 372.236333 296.210644 
L 372.236333 293.996102 
L 372.236333 293.996102 
z
" style="fill:#471365;opacity:0.4;stroke:#ffffff;stroke-linejoin:miter;stroke-width:0.8;"/>
   </g>
   <g id="patch_73">
    <path clip-path="url(#p54a3f69dc9)" d="M 372.236333 293.996102 
L 372.236333 293.996102 
L 372.236333 291.781559 
L 372.236333 291.781559 
z
" style="fill:#471365;opacity:0.4;stroke:#ffffff;stroke-linejoin:miter;stroke-width:0.8;"/>
   </g>
   <g id="patch_74">
    <path clip-path="url(#p54a3f69dc9)" d="M 372.236333 291.781559 
L 372.236333 291.781559 
L 372.236333 289.567017 
L 372.236333 289.567017 
z
" style="fill:#471365;opacity:0.4;stroke:#ffffff;stroke-linejoin:miter;stroke-width:0.8;"/>
   </g>
   <g id="patch_75">
    <path clip-path="url(#p54a3f69dc9)" d="M 372.236333 289.567017 
L 373.069119 289.567017 
L 373.069119 287.352475 
L 372.236333 287.352475 
z
" style="fill:#471365;opacity:0.4;stroke:#ffffff;stroke-linejoin:miter;stroke-width:0.8;"/>
   </g>
   <g id="patch_76">
    <path clip-path="url(#p54a3f69dc9)" d="M 372.236333 287.352475 
L 372.236333 287.352475 
L 372.236333 285.137933 
L 372.236333 285.137933 
z
" style="fill:#471365;opacity:0.4;stroke:#ffffff;stroke-linejoin:miter;stroke-width:0.8;"/>
   </g>
   <g id="patch_77">
    <path clip-path="url(#p54a3f69dc9)" d="M 372.236333 285.137933 
L 372.236333 285.137933 
L 372.236333 282.923391 
L 372.236333 282.923391 
z
" style="fill:#471365;opacity:0.4;stroke:#ffffff;stroke-linejoin:miter;stroke-width:0.8;"/>
   </g>
   <g id="patch_78">
    <path clip-path="url(#p54a3f69dc9)" d="M 372.236333 282.923391 
L 372.236333 282.923391 
L 372.236333 280.708848 
L 372.236333 280.708848 
z
" style="fill:#471365;opacity:0.4;stroke:#ffffff;stroke-linejoin:miter;stroke-width:0.8;"/>
   </g>
   <g id="patch_79">
    <path clip-path="url(#p54a3f69dc9)" d="M 372.236333 280.708848 
L 372.236333 280.708848 
L 372.236333 278.494306 
L 372.236333 278.494306 
z
" style="fill:#471365;opacity:0.4;stroke:#ffffff;stroke-linejoin:miter;stroke-width:0.8;"/>
   </g>
   <g id="patch_80">
    <path clip-path="url(#p54a3f69dc9)" d="M 372.236333 278.494306 
L 372.236333 278.494306 
L 372.236333 276.279764 
L 372.236333 276.279764 
z
" style="fill:#471365;opacity:0.4;stroke:#ffffff;stroke-linejoin:miter;stroke-width:0.8;"/>
   </g>
   <g id="patch_81">
    <path clip-path="url(#p54a3f69dc9)" d="M 372.236333 276.279764 
L 372.236333 276.279764 
L 372.236333 274.065222 
L 372.236333 274.065222 
z
" style="fill:#471365;opacity:0.4;stroke:#ffffff;stroke-linejoin:miter;stroke-width:0.8;"/>
   </g>
   <g id="patch_82">
    <path clip-path="url(#p54a3f69dc9)" d="M 372.236333 274.065222 
L 373.069119 274.065222 
L 373.069119 271.85068 
L 372.236333 271.85068 
z
" style="fill:#471365;opacity:0.4;stroke:#ffffff;stroke-linejoin:miter;stroke-width:0.8;"/>
   </g>
   <g id="patch_83">
    <path clip-path="url(#p54a3f69dc9)" d="M 372.236333 271.85068 
L 373.069119 271.85068 
L 373.069119 269.636137 
L 372.236333 269.636137 
z
" style="fill:#471365;opacity:0.4;stroke:#ffffff;stroke-linejoin:miter;stroke-width:0.8;"/>
   </g>
   <g id="line2d_27">
    <path clip-path="url(#p54a3f69dc9)" d="M 372.240669 394.383876 
L 372.248151 392.982175 
L 372.266562 391.580474 
L 372.309027 390.178774 
L 372.400868 388.777073 
L 372.586974 387.375372 
L 372.939762 385.973672 
L 373.56399 384.571971 
L 374.592329 383.17027 
L 376.165128 381.76857 
L 378.391563 380.366869 
L 381.297789 378.965168 
L 384.778066 377.563468 
L 388.570948 376.161767 
L 392.278976 374.760066 
L 395.436051 373.358366 
L 397.607344 371.956665 
L 398.491525 370.554964 
L 397.991884 369.153264 
L 396.233379 367.751563 
L 393.522269 366.349862 
L 390.264866 364.948162 
L 386.873767 363.546461 
L 383.689565 362.14476 
L 380.935814 360.74306 
L 378.711162 359.341359 
L 377.011139 357.939658 
L 375.766023 356.537958 
L 374.880382 355.136257 
L 374.263116 353.734556 
L 373.842566 352.332855 
L 373.567694 350.931155 
L 373.401088 349.529454 
L 373.310793 348.127753 
L 373.265915 346.726053 
L 373.237198 345.324352 
L 373.200745 343.922651 
L 373.141785 342.520951 
L 373.05611 341.11925 
L 372.94851 339.717549 
L 372.829211 338.315849 
L 372.710042 336.914148 
L 372.601678 335.512447 
L 372.512257 334.110747 
L 372.446886 332.709046 
L 372.407404 331.307345 
L 372.392228 329.905645 
L 372.396582 328.503944 
L 372.413478 327.102243 
L 372.4354 325.700543 
L 372.456097 324.298842 
L 372.47169 322.897141 
L 372.48072 321.495441 
L 372.483437 320.09374 
L 372.48105 318.692039 
L 372.475409 317.290339 
L 372.468933 315.888638 
L 372.464242 314.486937 
L 372.463321 313.085237 
L 372.46664 311.683536 
L 372.472911 310.281835 
L 372.479658 308.880135 
L 372.484153 307.478434 
L 372.484044 306.076733 
L 372.477527 304.675033 
L 372.463444 303.273332 
L 372.441739 301.871631 
L 372.41414 300.469931 
L 372.38448 299.06823 
L 372.358102 297.666529 
L 372.340367 296.264829 
L 372.334809 294.863128 
L 372.341712 293.461427 
L 372.3577 292.059727 
L 372.376584 290.658026 
L 372.391332 289.256325 
L 372.396525 287.854625 
L 372.390401 286.452924 
L 372.375598 285.051223 
L 372.358271 283.649523 
L 372.345992 282.247822 
L 372.345269 280.846121 
L 372.359547 279.444421 
L 372.388165 278.04272 
L 372.426425 276.641019 
L 372.46667 275.239319 
L 372.500147 273.837618 
L 372.519197 272.435917 
L 372.51922 271.034217 
L 372.499782 269.632516 
L 372.464532 268.230815 
L 372.419944 266.829115 
L 372.373351 265.427414 
L 372.331002 264.025713 
L 372.296785 262.624013 
L 372.27195 261.222312 
L 372.255664 259.820611 
L 372.245984 258.418911 
L 372.24076 257.01721 
L 372.238197 255.615509 
" style="fill:none;stroke:#471365;stroke-linecap:round;stroke-width:1.2;"/>
   </g>
   <g id="patch_84">
    <path d="M 372.236333 390.332 
L 372.236333 81.023333 
" style="fill:none;stroke:#262626;stroke-linecap:square;stroke-linejoin:miter;"/>
   </g>
  </g>
 </g>
 <defs>
  <clipPath id="p2e58b44940">
   <rect height="309.308667" width="302.850333" x="49.418" y="81.023333"/>
  </clipPath>
  <clipPath id="pffab6c45a4">
   <rect height="45.887333" width="302.850333" x="49.418" y="15.168"/>
  </clipPath>
  <clipPath id="p54a3f69dc9">
   <rect height="309.308667" width="44.595667" x="372.236333" y="81.023333"/>
  </clipPath>
 </defs>
</svg>
