<?xml version="1.0" encoding="utf-8" standalone="no"?>
<!DOCTYPE svg PUBLIC "-//W3C//DTD SVG 1.1//EN"
  "http://www.w3.org/Graphics/SVG/1.1/DTD/svg11.dtd">
<!-- Created with matplotlib (http://matplotlib.org/) -->
<svg height="432pt" version="1.1" viewBox="0 0 432 432" width="432pt" xmlns="http://www.w3.org/2000/svg" xmlns:xlink="http://www.w3.org/1999/xlink">
 <defs>
  <style type="text/css">
*{stroke-linecap:butt;stroke-linejoin:round;}
  </style>
 </defs>
 <g id="figure_1">
  <g id="patch_1">
   <path d="M 0 432 
L 432 432 
L 432 0 
L 0 0 
z
" style="fill:#ffffff;"/>
  </g>
  <g id="axes_1">
   <g id="patch_2">
    <path d="M 49.85 389.9 
L 351.240551 389.9 
L 351.240551 81.383333 
L 49.85 81.383333 
z
" style="fill:#ffffff;"/>
   </g>
   <g id="matplotlib.axis_1">
    <g id="xtick_1">
     <g id="line2d_1">
      <defs>
       <path d="M 0 0 
L 0 4.8 
" id="m97aec07588" style="stroke:#262626;"/>
      </defs>
      <g>
       <use style="fill:#262626;stroke:#262626;" x="90.704622" xlink:href="#m97aec07588" y="389.9"/>
      </g>
     </g>
     <g id="text_1">
      <!-- 9.0 -->
      <defs>
       <path d="M 10.984375 1.515625 
L 10.984375 10.5 
Q 14.703125 8.734375 18.5 7.8125 
Q 22.3125 6.890625 25.984375 6.890625 
Q 35.75 6.890625 40.890625 13.453125 
Q 46.046875 20.015625 46.78125 33.40625 
Q 43.953125 29.203125 39.59375 26.953125 
Q 35.25 24.703125 29.984375 24.703125 
Q 19.046875 24.703125 12.671875 31.3125 
Q 6.296875 37.9375 6.296875 49.421875 
Q 6.296875 60.640625 12.9375 67.421875 
Q 19.578125 74.21875 30.609375 74.21875 
Q 43.265625 74.21875 49.921875 64.515625 
Q 56.59375 54.828125 56.59375 36.375 
Q 56.59375 19.140625 48.40625 8.859375 
Q 40.234375 -1.421875 26.421875 -1.421875 
Q 22.703125 -1.421875 18.890625 -0.6875 
Q 15.09375 0.046875 10.984375 1.515625 
z
M 30.609375 32.421875 
Q 37.25 32.421875 41.125 36.953125 
Q 45.015625 41.5 45.015625 49.421875 
Q 45.015625 57.28125 41.125 61.84375 
Q 37.25 66.40625 30.609375 66.40625 
Q 23.96875 66.40625 20.09375 61.84375 
Q 16.21875 57.28125 16.21875 49.421875 
Q 16.21875 41.5 20.09375 36.953125 
Q 23.96875 32.421875 30.609375 32.421875 
z
" id="DejaVuSans-39"/>
       <path d="M 10.6875 12.40625 
L 21 12.40625 
L 21 0 
L 10.6875 0 
z
" id="DejaVuSans-2e"/>
       <path d="M 31.78125 66.40625 
Q 24.171875 66.40625 20.328125 58.90625 
Q 16.5 51.421875 16.5 36.375 
Q 16.5 21.390625 20.328125 13.890625 
Q 24.171875 6.390625 31.78125 6.390625 
Q 39.453125 6.390625 43.28125 13.890625 
Q 47.125 21.390625 47.125 36.375 
Q 47.125 51.421875 43.28125 58.90625 
Q 39.453125 66.40625 31.78125 66.40625 
z
M 31.78125 74.21875 
Q 44.046875 74.21875 50.515625 64.515625 
Q 56.984375 54.828125 56.984375 36.375 
Q 56.984375 17.96875 50.515625 8.265625 
Q 44.046875 -1.421875 31.78125 -1.421875 
Q 19.53125 -1.421875 13.0625 8.265625 
Q 6.59375 17.96875 6.59375 36.375 
Q 6.59375 54.828125 13.0625 64.515625 
Q 19.53125 74.21875 31.78125 74.21875 
z
" id="DejaVuSans-30"/>
      </defs>
      <g style="fill:#262626;" transform="translate(83.707247 404.886625)scale(0.088 -0.088)">
       <use xlink:href="#DejaVuSans-39"/>
       <use x="63.623047" xlink:href="#DejaVuSans-2e"/>
       <use x="95.410156" xlink:href="#DejaVuSans-30"/>
      </g>
     </g>
    </g>
    <g id="xtick_2">
     <g id="line2d_2">
      <g>
       <use style="fill:#262626;stroke:#262626;" x="142.649398" xlink:href="#m97aec07588" y="389.9"/>
      </g>
     </g>
     <g id="text_2">
      <!-- 9.5 -->
      <defs>
       <path d="M 10.796875 72.90625 
L 49.515625 72.90625 
L 49.515625 64.59375 
L 19.828125 64.59375 
L 19.828125 46.734375 
Q 21.96875 47.46875 24.109375 47.828125 
Q 26.265625 48.1875 28.421875 48.1875 
Q 40.625 48.1875 47.75 41.5 
Q 54.890625 34.8125 54.890625 23.390625 
Q 54.890625 11.625 47.5625 5.09375 
Q 40.234375 -1.421875 26.90625 -1.421875 
Q 22.3125 -1.421875 17.546875 -0.640625 
Q 12.796875 0.140625 7.71875 1.703125 
L 7.71875 11.625 
Q 12.109375 9.234375 16.796875 8.0625 
Q 21.484375 6.890625 26.703125 6.890625 
Q 35.15625 6.890625 40.078125 11.328125 
Q 45.015625 15.765625 45.015625 23.390625 
Q 45.015625 31 40.078125 35.4375 
Q 35.15625 39.890625 26.703125 39.890625 
Q 22.75 39.890625 18.8125 39.015625 
Q 14.890625 38.140625 10.796875 36.28125 
z
" id="DejaVuSans-35"/>
      </defs>
      <g style="fill:#262626;" transform="translate(135.652023 404.886625)scale(0.088 -0.088)">
       <use xlink:href="#DejaVuSans-39"/>
       <use x="63.623047" xlink:href="#DejaVuSans-2e"/>
       <use x="95.410156" xlink:href="#DejaVuSans-35"/>
      </g>
     </g>
    </g>
    <g id="xtick_3">
     <g id="line2d_3">
      <g>
       <use style="fill:#262626;stroke:#262626;" x="194.594173" xlink:href="#m97aec07588" y="389.9"/>
      </g>
     </g>
     <g id="text_3">
      <!-- 10.0 -->
      <defs>
       <path d="M 12.40625 8.296875 
L 28.515625 8.296875 
L 28.515625 63.921875 
L 10.984375 60.40625 
L 10.984375 69.390625 
L 28.421875 72.90625 
L 38.28125 72.90625 
L 38.28125 8.296875 
L 54.390625 8.296875 
L 54.390625 0 
L 12.40625 0 
z
" id="DejaVuSans-31"/>
      </defs>
      <g style="fill:#262626;" transform="translate(184.797298 404.886625)scale(0.088 -0.088)">
       <use xlink:href="#DejaVuSans-31"/>
       <use x="63.623047" xlink:href="#DejaVuSans-30"/>
       <use x="127.246094" xlink:href="#DejaVuSans-2e"/>
       <use x="159.033203" xlink:href="#DejaVuSans-30"/>
      </g>
     </g>
    </g>
    <g id="xtick_4">
     <g id="line2d_4">
      <g>
       <use style="fill:#262626;stroke:#262626;" x="246.538949" xlink:href="#m97aec07588" y="389.9"/>
      </g>
     </g>
     <g id="text_4">
      <!-- 10.5 -->
      <g style="fill:#262626;" transform="translate(236.742074 404.886625)scale(0.088 -0.088)">
       <use xlink:href="#DejaVuSans-31"/>
       <use x="63.623047" xlink:href="#DejaVuSans-30"/>
       <use x="127.246094" xlink:href="#DejaVuSans-2e"/>
       <use x="159.033203" xlink:href="#DejaVuSans-35"/>
      </g>
     </g>
    </g>
    <g id="xtick_5">
     <g id="line2d_5">
      <g>
       <use style="fill:#262626;stroke:#262626;" x="298.483724" xlink:href="#m97aec07588" y="389.9"/>
      </g>
     </g>
     <g id="text_5">
      <!-- 11.0 -->
      <g style="fill:#262626;" transform="translate(288.686849 404.886625)scale(0.088 -0.088)">
       <use xlink:href="#DejaVuSans-31"/>
       <use x="63.623047" xlink:href="#DejaVuSans-31"/>
       <use x="127.246094" xlink:href="#DejaVuSans-2e"/>
       <use x="159.033203" xlink:href="#DejaVuSans-30"/>
      </g>
     </g>
    </g>
    <g id="xtick_6">
     <g id="line2d_6">
      <g>
       <use style="fill:#262626;stroke:#262626;" x="350.4285" xlink:href="#m97aec07588" y="389.9"/>
      </g>
     </g>
     <g id="text_6">
      <!-- 11.5 -->
      <g style="fill:#262626;" transform="translate(340.631625 404.886625)scale(0.088 -0.088)">
       <use xlink:href="#DejaVuSans-31"/>
       <use x="63.623047" xlink:href="#DejaVuSans-31"/>
       <use x="127.246094" xlink:href="#DejaVuSans-2e"/>
       <use x="159.033203" xlink:href="#DejaVuSans-35"/>
      </g>
     </g>
    </g>
    <g id="text_7">
     <!-- log(n) -->
     <defs>
      <path d="M 9.421875 75.984375 
L 18.40625 75.984375 
L 18.40625 0 
L 9.421875 0 
z
" id="DejaVuSans-6c"/>
      <path d="M 30.609375 48.390625 
Q 23.390625 48.390625 19.1875 42.75 
Q 14.984375 37.109375 14.984375 27.296875 
Q 14.984375 17.484375 19.15625 11.84375 
Q 23.34375 6.203125 30.609375 6.203125 
Q 37.796875 6.203125 41.984375 11.859375 
Q 46.1875 17.53125 46.1875 27.296875 
Q 46.1875 37.015625 41.984375 42.703125 
Q 37.796875 48.390625 30.609375 48.390625 
z
M 30.609375 56 
Q 42.328125 56 49.015625 48.375 
Q 55.71875 40.765625 55.71875 27.296875 
Q 55.71875 13.875 49.015625 6.21875 
Q 42.328125 -1.421875 30.609375 -1.421875 
Q 18.84375 -1.421875 12.171875 6.21875 
Q 5.515625 13.875 5.515625 27.296875 
Q 5.515625 40.765625 12.171875 48.375 
Q 18.84375 56 30.609375 56 
z
" id="DejaVuSans-6f"/>
      <path d="M 45.40625 27.984375 
Q 45.40625 37.75 41.375 43.109375 
Q 37.359375 48.484375 30.078125 48.484375 
Q 22.859375 48.484375 18.828125 43.109375 
Q 14.796875 37.75 14.796875 27.984375 
Q 14.796875 18.265625 18.828125 12.890625 
Q 22.859375 7.515625 30.078125 7.515625 
Q 37.359375 7.515625 41.375 12.890625 
Q 45.40625 18.265625 45.40625 27.984375 
z
M 54.390625 6.78125 
Q 54.390625 -7.171875 48.1875 -13.984375 
Q 42 -20.796875 29.203125 -20.796875 
Q 24.46875 -20.796875 20.265625 -20.09375 
Q 16.0625 -19.390625 12.109375 -17.921875 
L 12.109375 -9.1875 
Q 16.0625 -11.328125 19.921875 -12.34375 
Q 23.78125 -13.375 27.78125 -13.375 
Q 36.625 -13.375 41.015625 -8.765625 
Q 45.40625 -4.15625 45.40625 5.171875 
L 45.40625 9.625 
Q 42.625 4.78125 38.28125 2.390625 
Q 33.9375 0 27.875 0 
Q 17.828125 0 11.671875 7.65625 
Q 5.515625 15.328125 5.515625 27.984375 
Q 5.515625 40.671875 11.671875 48.328125 
Q 17.828125 56 27.875 56 
Q 33.9375 56 38.28125 53.609375 
Q 42.625 51.21875 45.40625 46.390625 
L 45.40625 54.6875 
L 54.390625 54.6875 
z
" id="DejaVuSans-67"/>
      <path d="M 31 75.875 
Q 24.46875 64.65625 21.28125 53.65625 
Q 18.109375 42.671875 18.109375 31.390625 
Q 18.109375 20.125 21.3125 9.0625 
Q 24.515625 -2 31 -13.1875 
L 23.1875 -13.1875 
Q 15.875 -1.703125 12.234375 9.375 
Q 8.59375 20.453125 8.59375 31.390625 
Q 8.59375 42.28125 12.203125 53.3125 
Q 15.828125 64.359375 23.1875 75.875 
z
" id="DejaVuSans-28"/>
      <path d="M 54.890625 33.015625 
L 54.890625 0 
L 45.90625 0 
L 45.90625 32.71875 
Q 45.90625 40.484375 42.875 44.328125 
Q 39.84375 48.1875 33.796875 48.1875 
Q 26.515625 48.1875 22.3125 43.546875 
Q 18.109375 38.921875 18.109375 30.90625 
L 18.109375 0 
L 9.078125 0 
L 9.078125 54.6875 
L 18.109375 54.6875 
L 18.109375 46.1875 
Q 21.34375 51.125 25.703125 53.5625 
Q 30.078125 56 35.796875 56 
Q 45.21875 56 50.046875 50.171875 
Q 54.890625 44.34375 54.890625 33.015625 
z
" id="DejaVuSans-6e"/>
      <path d="M 8.015625 75.875 
L 15.828125 75.875 
Q 23.140625 64.359375 26.78125 53.3125 
Q 30.421875 42.28125 30.421875 31.390625 
Q 30.421875 20.453125 26.78125 9.375 
Q 23.140625 -1.703125 15.828125 -13.1875 
L 8.015625 -13.1875 
Q 14.5 -2 17.703125 9.0625 
Q 20.90625 20.125 20.90625 31.390625 
Q 20.90625 42.671875 17.703125 53.65625 
Q 14.5 64.65625 8.015625 75.875 
z
" id="DejaVuSans-29"/>
     </defs>
     <g style="fill:#262626;" transform="translate(186.440026 418.01125)scale(0.096 -0.096)">
      <use xlink:href="#DejaVuSans-6c"/>
      <use x="27.783203" xlink:href="#DejaVuSans-6f"/>
      <use x="88.964844" xlink:href="#DejaVuSans-67"/>
      <use x="152.441406" xlink:href="#DejaVuSans-28"/>
      <use x="191.455078" xlink:href="#DejaVuSans-6e"/>
      <use x="254.833984" xlink:href="#DejaVuSans-29"/>
     </g>
    </g>
   </g>
   <g id="matplotlib.axis_2">
    <g id="ytick_1">
     <g id="line2d_7">
      <defs>
       <path d="M 0 0 
L -4.8 0 
" id="m311f6f5c91" style="stroke:#262626;"/>
      </defs>
      <g>
       <use style="fill:#262626;stroke:#262626;" x="49.85" xlink:href="#m311f6f5c91" y="389.9"/>
      </g>
     </g>
     <g id="text_8">
      <!-- 0 -->
      <g style="fill:#262626;" transform="translate(35.951 393.243313)scale(0.088 -0.088)">
       <use xlink:href="#DejaVuSans-30"/>
      </g>
     </g>
    </g>
    <g id="ytick_2">
     <g id="line2d_8">
      <g>
       <use style="fill:#262626;stroke:#262626;" x="49.85" xlink:href="#m311f6f5c91" y="333.806061"/>
      </g>
     </g>
     <g id="text_9">
      <!-- 20 -->
      <defs>
       <path d="M 19.1875 8.296875 
L 53.609375 8.296875 
L 53.609375 0 
L 7.328125 0 
L 7.328125 8.296875 
Q 12.9375 14.109375 22.625 23.890625 
Q 32.328125 33.6875 34.8125 36.53125 
Q 39.546875 41.84375 41.421875 45.53125 
Q 43.3125 49.21875 43.3125 52.78125 
Q 43.3125 58.59375 39.234375 62.25 
Q 35.15625 65.921875 28.609375 65.921875 
Q 23.96875 65.921875 18.8125 64.3125 
Q 13.671875 62.703125 7.8125 59.421875 
L 7.8125 69.390625 
Q 13.765625 71.78125 18.9375 73 
Q 24.125 74.21875 28.421875 74.21875 
Q 39.75 74.21875 46.484375 68.546875 
Q 53.21875 62.890625 53.21875 53.421875 
Q 53.21875 48.921875 51.53125 44.890625 
Q 49.859375 40.875 45.40625 35.40625 
Q 44.1875 33.984375 37.640625 27.21875 
Q 31.109375 20.453125 19.1875 8.296875 
z
" id="DejaVuSans-32"/>
      </defs>
      <g style="fill:#262626;" transform="translate(30.352 337.149373)scale(0.088 -0.088)">
       <use xlink:href="#DejaVuSans-32"/>
       <use x="63.623047" xlink:href="#DejaVuSans-30"/>
      </g>
     </g>
    </g>
    <g id="ytick_3">
     <g id="line2d_9">
      <g>
       <use style="fill:#262626;stroke:#262626;" x="49.85" xlink:href="#m311f6f5c91" y="277.712121"/>
      </g>
     </g>
     <g id="text_10">
      <!-- 40 -->
      <defs>
       <path d="M 37.796875 64.3125 
L 12.890625 25.390625 
L 37.796875 25.390625 
z
M 35.203125 72.90625 
L 47.609375 72.90625 
L 47.609375 25.390625 
L 58.015625 25.390625 
L 58.015625 17.1875 
L 47.609375 17.1875 
L 47.609375 0 
L 37.796875 0 
L 37.796875 17.1875 
L 4.890625 17.1875 
L 4.890625 26.703125 
z
" id="DejaVuSans-34"/>
      </defs>
      <g style="fill:#262626;" transform="translate(30.352 281.055434)scale(0.088 -0.088)">
       <use xlink:href="#DejaVuSans-34"/>
       <use x="63.623047" xlink:href="#DejaVuSans-30"/>
      </g>
     </g>
    </g>
    <g id="ytick_4">
     <g id="line2d_10">
      <g>
       <use style="fill:#262626;stroke:#262626;" x="49.85" xlink:href="#m311f6f5c91" y="221.618182"/>
      </g>
     </g>
     <g id="text_11">
      <!-- 60 -->
      <defs>
       <path d="M 33.015625 40.375 
Q 26.375 40.375 22.484375 35.828125 
Q 18.609375 31.296875 18.609375 23.390625 
Q 18.609375 15.53125 22.484375 10.953125 
Q 26.375 6.390625 33.015625 6.390625 
Q 39.65625 6.390625 43.53125 10.953125 
Q 47.40625 15.53125 47.40625 23.390625 
Q 47.40625 31.296875 43.53125 35.828125 
Q 39.65625 40.375 33.015625 40.375 
z
M 52.59375 71.296875 
L 52.59375 62.3125 
Q 48.875 64.0625 45.09375 64.984375 
Q 41.3125 65.921875 37.59375 65.921875 
Q 27.828125 65.921875 22.671875 59.328125 
Q 17.53125 52.734375 16.796875 39.40625 
Q 19.671875 43.65625 24.015625 45.921875 
Q 28.375 48.1875 33.59375 48.1875 
Q 44.578125 48.1875 50.953125 41.515625 
Q 57.328125 34.859375 57.328125 23.390625 
Q 57.328125 12.15625 50.6875 5.359375 
Q 44.046875 -1.421875 33.015625 -1.421875 
Q 20.359375 -1.421875 13.671875 8.265625 
Q 6.984375 17.96875 6.984375 36.375 
Q 6.984375 53.65625 15.1875 63.9375 
Q 23.390625 74.21875 37.203125 74.21875 
Q 40.921875 74.21875 44.703125 73.484375 
Q 48.484375 72.75 52.59375 71.296875 
z
" id="DejaVuSans-36"/>
      </defs>
      <g style="fill:#262626;" transform="translate(30.352 224.961494)scale(0.088 -0.088)">
       <use xlink:href="#DejaVuSans-36"/>
       <use x="63.623047" xlink:href="#DejaVuSans-30"/>
      </g>
     </g>
    </g>
    <g id="ytick_5">
     <g id="line2d_11">
      <g>
       <use style="fill:#262626;stroke:#262626;" x="49.85" xlink:href="#m311f6f5c91" y="165.524242"/>
      </g>
     </g>
     <g id="text_12">
      <!-- 80 -->
      <defs>
       <path d="M 31.78125 34.625 
Q 24.75 34.625 20.71875 30.859375 
Q 16.703125 27.09375 16.703125 20.515625 
Q 16.703125 13.921875 20.71875 10.15625 
Q 24.75 6.390625 31.78125 6.390625 
Q 38.8125 6.390625 42.859375 10.171875 
Q 46.921875 13.96875 46.921875 20.515625 
Q 46.921875 27.09375 42.890625 30.859375 
Q 38.875 34.625 31.78125 34.625 
z
M 21.921875 38.8125 
Q 15.578125 40.375 12.03125 44.71875 
Q 8.5 49.078125 8.5 55.328125 
Q 8.5 64.0625 14.71875 69.140625 
Q 20.953125 74.21875 31.78125 74.21875 
Q 42.671875 74.21875 48.875 69.140625 
Q 55.078125 64.0625 55.078125 55.328125 
Q 55.078125 49.078125 51.53125 44.71875 
Q 48 40.375 41.703125 38.8125 
Q 48.828125 37.15625 52.796875 32.3125 
Q 56.78125 27.484375 56.78125 20.515625 
Q 56.78125 9.90625 50.3125 4.234375 
Q 43.84375 -1.421875 31.78125 -1.421875 
Q 19.734375 -1.421875 13.25 4.234375 
Q 6.78125 9.90625 6.78125 20.515625 
Q 6.78125 27.484375 10.78125 32.3125 
Q 14.796875 37.15625 21.921875 38.8125 
z
M 18.3125 54.390625 
Q 18.3125 48.734375 21.84375 45.5625 
Q 25.390625 42.390625 31.78125 42.390625 
Q 38.140625 42.390625 41.71875 45.5625 
Q 45.3125 48.734375 45.3125 54.390625 
Q 45.3125 60.0625 41.71875 63.234375 
Q 38.140625 66.40625 31.78125 66.40625 
Q 25.390625 66.40625 21.84375 63.234375 
Q 18.3125 60.0625 18.3125 54.390625 
z
" id="DejaVuSans-38"/>
      </defs>
      <g style="fill:#262626;" transform="translate(30.352 168.867555)scale(0.088 -0.088)">
       <use xlink:href="#DejaVuSans-38"/>
       <use x="63.623047" xlink:href="#DejaVuSans-30"/>
      </g>
     </g>
    </g>
    <g id="ytick_6">
     <g id="line2d_12">
      <g>
       <use style="fill:#262626;stroke:#262626;" x="49.85" xlink:href="#m311f6f5c91" y="109.430303"/>
      </g>
     </g>
     <g id="text_13">
      <!-- 100 -->
      <g style="fill:#262626;" transform="translate(24.753 112.773616)scale(0.088 -0.088)">
       <use xlink:href="#DejaVuSans-31"/>
       <use x="63.623047" xlink:href="#DejaVuSans-30"/>
       <use x="127.246094" xlink:href="#DejaVuSans-30"/>
      </g>
     </g>
    </g>
    <g id="text_14">
     <!-- Time to cancer -->
     <defs>
      <path d="M -0.296875 72.90625 
L 61.375 72.90625 
L 61.375 64.59375 
L 35.5 64.59375 
L 35.5 0 
L 25.59375 0 
L 25.59375 64.59375 
L -0.296875 64.59375 
z
" id="DejaVuSans-54"/>
      <path d="M 9.421875 54.6875 
L 18.40625 54.6875 
L 18.40625 0 
L 9.421875 0 
z
M 9.421875 75.984375 
L 18.40625 75.984375 
L 18.40625 64.59375 
L 9.421875 64.59375 
z
" id="DejaVuSans-69"/>
      <path d="M 52 44.1875 
Q 55.375 50.25 60.0625 53.125 
Q 64.75 56 71.09375 56 
Q 79.640625 56 84.28125 50.015625 
Q 88.921875 44.046875 88.921875 33.015625 
L 88.921875 0 
L 79.890625 0 
L 79.890625 32.71875 
Q 79.890625 40.578125 77.09375 44.375 
Q 74.3125 48.1875 68.609375 48.1875 
Q 61.625 48.1875 57.5625 43.546875 
Q 53.515625 38.921875 53.515625 30.90625 
L 53.515625 0 
L 44.484375 0 
L 44.484375 32.71875 
Q 44.484375 40.625 41.703125 44.40625 
Q 38.921875 48.1875 33.109375 48.1875 
Q 26.21875 48.1875 22.15625 43.53125 
Q 18.109375 38.875 18.109375 30.90625 
L 18.109375 0 
L 9.078125 0 
L 9.078125 54.6875 
L 18.109375 54.6875 
L 18.109375 46.1875 
Q 21.1875 51.21875 25.484375 53.609375 
Q 29.78125 56 35.6875 56 
Q 41.65625 56 45.828125 52.96875 
Q 50 49.953125 52 44.1875 
z
" id="DejaVuSans-6d"/>
      <path d="M 56.203125 29.59375 
L 56.203125 25.203125 
L 14.890625 25.203125 
Q 15.484375 15.921875 20.484375 11.0625 
Q 25.484375 6.203125 34.421875 6.203125 
Q 39.59375 6.203125 44.453125 7.46875 
Q 49.3125 8.734375 54.109375 11.28125 
L 54.109375 2.78125 
Q 49.265625 0.734375 44.1875 -0.34375 
Q 39.109375 -1.421875 33.890625 -1.421875 
Q 20.796875 -1.421875 13.15625 6.1875 
Q 5.515625 13.8125 5.515625 26.8125 
Q 5.515625 40.234375 12.765625 48.109375 
Q 20.015625 56 32.328125 56 
Q 43.359375 56 49.78125 48.890625 
Q 56.203125 41.796875 56.203125 29.59375 
z
M 47.21875 32.234375 
Q 47.125 39.59375 43.09375 43.984375 
Q 39.0625 48.390625 32.421875 48.390625 
Q 24.90625 48.390625 20.390625 44.140625 
Q 15.875 39.890625 15.1875 32.171875 
z
" id="DejaVuSans-65"/>
      <path id="DejaVuSans-20"/>
      <path d="M 18.3125 70.21875 
L 18.3125 54.6875 
L 36.8125 54.6875 
L 36.8125 47.703125 
L 18.3125 47.703125 
L 18.3125 18.015625 
Q 18.3125 11.328125 20.140625 9.421875 
Q 21.96875 7.515625 27.59375 7.515625 
L 36.8125 7.515625 
L 36.8125 0 
L 27.59375 0 
Q 17.1875 0 13.234375 3.875 
Q 9.28125 7.765625 9.28125 18.015625 
L 9.28125 47.703125 
L 2.6875 47.703125 
L 2.6875 54.6875 
L 9.28125 54.6875 
L 9.28125 70.21875 
z
" id="DejaVuSans-74"/>
      <path d="M 48.78125 52.59375 
L 48.78125 44.1875 
Q 44.96875 46.296875 41.140625 47.34375 
Q 37.3125 48.390625 33.40625 48.390625 
Q 24.65625 48.390625 19.8125 42.84375 
Q 14.984375 37.3125 14.984375 27.296875 
Q 14.984375 17.28125 19.8125 11.734375 
Q 24.65625 6.203125 33.40625 6.203125 
Q 37.3125 6.203125 41.140625 7.25 
Q 44.96875 8.296875 48.78125 10.40625 
L 48.78125 2.09375 
Q 45.015625 0.34375 40.984375 -0.53125 
Q 36.96875 -1.421875 32.421875 -1.421875 
Q 20.0625 -1.421875 12.78125 6.34375 
Q 5.515625 14.109375 5.515625 27.296875 
Q 5.515625 40.671875 12.859375 48.328125 
Q 20.21875 56 33.015625 56 
Q 37.15625 56 41.109375 55.140625 
Q 45.0625 54.296875 48.78125 52.59375 
z
" id="DejaVuSans-63"/>
      <path d="M 34.28125 27.484375 
Q 23.390625 27.484375 19.1875 25 
Q 14.984375 22.515625 14.984375 16.5 
Q 14.984375 11.71875 18.140625 8.90625 
Q 21.296875 6.109375 26.703125 6.109375 
Q 34.1875 6.109375 38.703125 11.40625 
Q 43.21875 16.703125 43.21875 25.484375 
L 43.21875 27.484375 
z
M 52.203125 31.203125 
L 52.203125 0 
L 43.21875 0 
L 43.21875 8.296875 
Q 40.140625 3.328125 35.546875 0.953125 
Q 30.953125 -1.421875 24.3125 -1.421875 
Q 15.921875 -1.421875 10.953125 3.296875 
Q 6 8.015625 6 15.921875 
Q 6 25.140625 12.171875 29.828125 
Q 18.359375 34.515625 30.609375 34.515625 
L 43.21875 34.515625 
L 43.21875 35.40625 
Q 43.21875 41.609375 39.140625 45 
Q 35.0625 48.390625 27.6875 48.390625 
Q 23 48.390625 18.546875 47.265625 
Q 14.109375 46.140625 10.015625 43.890625 
L 10.015625 52.203125 
Q 14.9375 54.109375 19.578125 55.046875 
Q 24.21875 56 28.609375 56 
Q 40.484375 56 46.34375 49.84375 
Q 52.203125 43.703125 52.203125 31.203125 
z
" id="DejaVuSans-61"/>
      <path d="M 41.109375 46.296875 
Q 39.59375 47.171875 37.8125 47.578125 
Q 36.03125 48 33.890625 48 
Q 26.265625 48 22.1875 43.046875 
Q 18.109375 38.09375 18.109375 28.8125 
L 18.109375 0 
L 9.078125 0 
L 9.078125 54.6875 
L 18.109375 54.6875 
L 18.109375 46.1875 
Q 20.953125 51.171875 25.484375 53.578125 
Q 30.03125 56 36.53125 56 
Q 37.453125 56 38.578125 55.875 
Q 39.703125 55.765625 41.0625 55.515625 
z
" id="DejaVuSans-72"/>
     </defs>
     <g style="fill:#262626;" transform="translate(18.7565 271.592167)rotate(-90)scale(0.096 -0.096)">
      <use xlink:href="#DejaVuSans-54"/>
      <use x="61.037109" xlink:href="#DejaVuSans-69"/>
      <use x="88.820312" xlink:href="#DejaVuSans-6d"/>
      <use x="186.232422" xlink:href="#DejaVuSans-65"/>
      <use x="247.755859" xlink:href="#DejaVuSans-20"/>
      <use x="279.542969" xlink:href="#DejaVuSans-74"/>
      <use x="318.751953" xlink:href="#DejaVuSans-6f"/>
      <use x="379.933594" xlink:href="#DejaVuSans-20"/>
      <use x="411.720703" xlink:href="#DejaVuSans-63"/>
      <use x="466.701172" xlink:href="#DejaVuSans-61"/>
      <use x="527.980469" xlink:href="#DejaVuSans-6e"/>
      <use x="591.359375" xlink:href="#DejaVuSans-63"/>
      <use x="646.339844" xlink:href="#DejaVuSans-65"/>
      <use x="707.863281" xlink:href="#DejaVuSans-72"/>
     </g>
    </g>
   </g>
   <g id="PathCollection_1">
    <defs>
     <path d="M 0 2.4 
C 0.636487 2.4 1.246992 2.147121 1.697056 1.697056 
C 2.147121 1.246992 2.4 0.636487 2.4 0 
C 2.4 -0.636487 2.147121 -1.246992 1.697056 -1.697056 
C 1.246992 -2.147121 0.636487 -2.4 0 -2.4 
C -0.636487 -2.4 -1.246992 -2.147121 -1.697056 -1.697056 
C -2.147121 -1.246992 -2.4 -0.636487 -2.4 0 
C -2.4 0.636487 -2.147121 1.246992 -1.697056 1.697056 
C -1.246992 2.147121 -0.636487 2.4 0 2.4 
z
" id="m3fb96fb711" style="stroke:#471365;stroke-opacity:0.8;"/>
    </defs>
    <g clip-path="url(#p0bd1571489)">
     <use style="fill:#471365;fill-opacity:0.8;stroke:#471365;stroke-opacity:0.8;" x="230.451025" xlink:href="#m3fb96fb711" y="150.448036"/>
     <use style="fill:#471365;fill-opacity:0.8;stroke:#471365;stroke-opacity:0.8;" x="212.88103" xlink:href="#m3fb96fb711" y="177.634386"/>
     <use style="fill:#471365;fill-opacity:0.8;stroke:#471365;stroke-opacity:0.8;" x="214.737071" xlink:href="#m3fb96fb711" y="115.946421"/>
     <use style="fill:#471365;fill-opacity:0.8;stroke:#471365;stroke-opacity:0.8;" x="266.206212" xlink:href="#m3fb96fb711" y="151.131921"/>
     <use style="fill:#471365;fill-opacity:0.8;stroke:#471365;stroke-opacity:0.8;" x="257.40975" xlink:href="#m3fb96fb711" y="209.408145"/>
     <use style="fill:#471365;fill-opacity:0.8;stroke:#471365;stroke-opacity:0.8;" x="117.819815" xlink:href="#m3fb96fb711" y="264.718306"/>
     <use style="fill:#471365;fill-opacity:0.8;stroke:#471365;stroke-opacity:0.8;" x="230.683953" xlink:href="#m3fb96fb711" y="268.283729"/>
     <use style="fill:#471365;fill-opacity:0.8;stroke:#471365;stroke-opacity:0.8;" x="230.621063" xlink:href="#m3fb96fb711" y="305.543936"/>
     <use style="fill:#471365;fill-opacity:0.8;stroke:#471365;stroke-opacity:0.8;" x="276.405043" xlink:href="#m3fb96fb711" y="257.979349"/>
     <use style="fill:#471365;fill-opacity:0.8;stroke:#471365;stroke-opacity:0.8;" x="272.534007" xlink:href="#m3fb96fb711" y="305.5132"/>
     <use style="fill:#471365;fill-opacity:0.8;stroke:#471365;stroke-opacity:0.8;" x="282.182708" xlink:href="#m3fb96fb711" y="277.581491"/>
     <use style="fill:#471365;fill-opacity:0.8;stroke:#471365;stroke-opacity:0.8;" x="272.65286" xlink:href="#m3fb96fb711" y="316.854933"/>
     <use style="fill:#471365;fill-opacity:0.8;stroke:#471365;stroke-opacity:0.8;" x="269.366864" xlink:href="#m3fb96fb711" y="267.407741"/>
     <use style="fill:#471365;fill-opacity:0.8;stroke:#471365;stroke-opacity:0.8;" x="207.204834" xlink:href="#m3fb96fb711" y="316.317046"/>
     <use style="fill:#471365;fill-opacity:0.8;stroke:#471365;stroke-opacity:0.8;" x="266.171172" xlink:href="#m3fb96fb711" y="246.768245"/>
     <use style="fill:#471365;fill-opacity:0.8;stroke:#471365;stroke-opacity:0.8;" x="193.266132" xlink:href="#m3fb96fb711" y="312.013949"/>
     <use style="fill:#471365;fill-opacity:0.8;stroke:#471365;stroke-opacity:0.8;" x="273.84225" xlink:href="#m3fb96fb711" y="240.436546"/>
     <use style="fill:#471365;fill-opacity:0.8;stroke:#471365;stroke-opacity:0.8;" x="282.546902" xlink:href="#m3fb96fb711" y="327.889303"/>
     <use style="fill:#471365;fill-opacity:0.8;stroke:#471365;stroke-opacity:0.8;" x="199.949973" xlink:href="#m3fb96fb711" y="159.984005"/>
     <use style="fill:#471365;fill-opacity:0.8;stroke:#471365;stroke-opacity:0.8;" x="186.659159" xlink:href="#m3fb96fb711" y="206.818603"/>
     <use style="fill:#471365;fill-opacity:0.8;stroke:#471365;stroke-opacity:0.8;" x="270.349653" xlink:href="#m3fb96fb711" y="312.129211"/>
     <use style="fill:#471365;fill-opacity:0.8;stroke:#471365;stroke-opacity:0.8;" x="254.741027" xlink:href="#m3fb96fb711" y="119.265953"/>
     <use style="fill:#471365;fill-opacity:0.8;stroke:#471365;stroke-opacity:0.8;" x="222.388515" xlink:href="#m3fb96fb711" y="307.78001"/>
     <use style="fill:#471365;fill-opacity:0.8;stroke:#471365;stroke-opacity:0.8;" x="262.091168" xlink:href="#m3fb96fb711" y="304.552687"/>
     <use style="fill:#471365;fill-opacity:0.8;stroke:#471365;stroke-opacity:0.8;" x="224.882076" xlink:href="#m3fb96fb711" y="310.638495"/>
     <use style="fill:#471365;fill-opacity:0.8;stroke:#471365;stroke-opacity:0.8;" x="238.226752" xlink:href="#m3fb96fb711" y="155.104601"/>
     <use style="fill:#471365;fill-opacity:0.8;stroke:#471365;stroke-opacity:0.8;" x="264.740366" xlink:href="#m3fb96fb711" y="307.634012"/>
     <use style="fill:#471365;fill-opacity:0.8;stroke:#471365;stroke-opacity:0.8;" x="253.383443" xlink:href="#m3fb96fb711" y="277.827383"/>
     <use style="fill:#471365;fill-opacity:0.8;stroke:#471365;stroke-opacity:0.8;" x="262.439591" xlink:href="#m3fb96fb711" y="313.673715"/>
     <use style="fill:#471365;fill-opacity:0.8;stroke:#471365;stroke-opacity:0.8;" x="221.763721" xlink:href="#m3fb96fb711" y="268.183836"/>
     <use style="fill:#471365;fill-opacity:0.8;stroke:#471365;stroke-opacity:0.8;" x="171.36453" xlink:href="#m3fb96fb711" y="143.178876"/>
     <use style="fill:#471365;fill-opacity:0.8;stroke:#471365;stroke-opacity:0.8;" x="189.709996" xlink:href="#m3fb96fb711" y="175.329156"/>
     <use style="fill:#471365;fill-opacity:0.8;stroke:#471365;stroke-opacity:0.8;" x="278.780454" xlink:href="#m3fb96fb711" y="153.291153"/>
     <use style="fill:#471365;fill-opacity:0.8;stroke:#471365;stroke-opacity:0.8;" x="124.633327" xlink:href="#m3fb96fb711" y="222.624799"/>
     <use style="fill:#471365;fill-opacity:0.8;stroke:#471365;stroke-opacity:0.8;" x="217.037929" xlink:href="#m3fb96fb711" y="260.522787"/>
     <use style="fill:#471365;fill-opacity:0.8;stroke:#471365;stroke-opacity:0.8;" x="127.67443" xlink:href="#m3fb96fb711" y="227.611781"/>
     <use style="fill:#471365;fill-opacity:0.8;stroke:#471365;stroke-opacity:0.8;" x="279.901423" xlink:href="#m3fb96fb711" y="279.125996"/>
     <use style="fill:#471365;fill-opacity:0.8;stroke:#471365;stroke-opacity:0.8;" x="252.702865" xlink:href="#m3fb96fb711" y="296.40754"/>
     <use style="fill:#471365;fill-opacity:0.8;stroke:#471365;stroke-opacity:0.8;" x="233.370294" xlink:href="#m3fb96fb711" y="304.752474"/>
     <use style="fill:#471365;fill-opacity:0.8;stroke:#471365;stroke-opacity:0.8;" x="247.189129" xlink:href="#m3fb96fb711" y="328.988129"/>
     <use style="fill:#471365;fill-opacity:0.8;stroke:#471365;stroke-opacity:0.8;" x="210.700512" xlink:href="#m3fb96fb711" y="319.02185"/>
     <use style="fill:#471365;fill-opacity:0.8;stroke:#471365;stroke-opacity:0.8;" x="275.788064" xlink:href="#m3fb96fb711" y="225.806017"/>
     <use style="fill:#471365;fill-opacity:0.8;stroke:#471365;stroke-opacity:0.8;" x="283.097573" xlink:href="#m3fb96fb711" y="137.477273"/>
     <use style="fill:#471365;fill-opacity:0.8;stroke:#471365;stroke-opacity:0.8;" x="225.538951" xlink:href="#m3fb96fb711" y="244.309333"/>
     <use style="fill:#471365;fill-opacity:0.8;stroke:#471365;stroke-opacity:0.8;" x="225.068405" xlink:href="#m3fb96fb711" y="232.760129"/>
     <use style="fill:#471365;fill-opacity:0.8;stroke:#471365;stroke-opacity:0.8;" x="221.534322" xlink:href="#m3fb96fb711" y="188.015607"/>
     <use style="fill:#471365;fill-opacity:0.8;stroke:#471365;stroke-opacity:0.8;" x="169.605091" xlink:href="#m3fb96fb711" y="292.019918"/>
     <use style="fill:#471365;fill-opacity:0.8;stroke:#471365;stroke-opacity:0.8;" x="279.925432" xlink:href="#m3fb96fb711" y="289.730056"/>
     <use style="fill:#471365;fill-opacity:0.8;stroke:#471365;stroke-opacity:0.8;" x="208.241494" xlink:href="#m3fb96fb711" y="243.840603"/>
     <use style="fill:#471365;fill-opacity:0.8;stroke:#471365;stroke-opacity:0.8;" x="216.348079" xlink:href="#m3fb96fb711" y="235.257462"/>
     <use style="fill:#471365;fill-opacity:0.8;stroke:#471365;stroke-opacity:0.8;" x="274.947949" xlink:href="#m3fb96fb711" y="221.433763"/>
     <use style="fill:#471365;fill-opacity:0.8;stroke:#471365;stroke-opacity:0.8;" x="216.739851" xlink:href="#m3fb96fb711" y="277.512335"/>
     <use style="fill:#471365;fill-opacity:0.8;stroke:#471365;stroke-opacity:0.8;" x="227.258879" xlink:href="#m3fb96fb711" y="276.920659"/>
     <use style="fill:#471365;fill-opacity:0.8;stroke:#471365;stroke-opacity:0.8;" x="261.94316" xlink:href="#m3fb96fb711" y="179.340257"/>
     <use style="fill:#471365;fill-opacity:0.8;stroke:#471365;stroke-opacity:0.8;" x="198.455376" xlink:href="#m3fb96fb711" y="310.669232"/>
     <use style="fill:#471365;fill-opacity:0.8;stroke:#471365;stroke-opacity:0.8;" x="195.668007" xlink:href="#m3fb96fb711" y="282.89889"/>
     <use style="fill:#471365;fill-opacity:0.8;stroke:#471365;stroke-opacity:0.8;" x="238.092683" xlink:href="#m3fb96fb711" y="301.509783"/>
     <use style="fill:#471365;fill-opacity:0.8;stroke:#471365;stroke-opacity:0.8;" x="277.069816" xlink:href="#m3fb96fb711" y="272.640614"/>
     <use style="fill:#471365;fill-opacity:0.8;stroke:#471365;stroke-opacity:0.8;" x="266.201881" xlink:href="#m3fb96fb711" y="279.786829"/>
     <use style="fill:#471365;fill-opacity:0.8;stroke:#471365;stroke-opacity:0.8;" x="248.843222" xlink:href="#m3fb96fb711" y="234.573577"/>
     <use style="fill:#471365;fill-opacity:0.8;stroke:#471365;stroke-opacity:0.8;" x="250.514216" xlink:href="#m3fb96fb711" y="276.444244"/>
     <use style="fill:#471365;fill-opacity:0.8;stroke:#471365;stroke-opacity:0.8;" x="231.188413" xlink:href="#m3fb96fb711" y="299.242973"/>
     <use style="fill:#471365;fill-opacity:0.8;stroke:#471365;stroke-opacity:0.8;" x="281.077586" xlink:href="#m3fb96fb711" y="262.45918"/>
     <use style="fill:#471365;fill-opacity:0.8;stroke:#471365;stroke-opacity:0.8;" x="234.553404" xlink:href="#m3fb96fb711" y="320.789193"/>
     <use style="fill:#471365;fill-opacity:0.8;stroke:#471365;stroke-opacity:0.8;" x="266.517363" xlink:href="#m3fb96fb711" y="217.153719"/>
     <use style="fill:#471365;fill-opacity:0.8;stroke:#471365;stroke-opacity:0.8;" x="246.768093" xlink:href="#m3fb96fb711" y="244.101862"/>
     <use style="fill:#471365;fill-opacity:0.8;stroke:#471365;stroke-opacity:0.8;" x="283.270737" xlink:href="#m3fb96fb711" y="308.871152"/>
     <use style="fill:#471365;fill-opacity:0.8;stroke:#471365;stroke-opacity:0.8;" x="279.237116" xlink:href="#m3fb96fb711" y="313.450876"/>
     <use style="fill:#471365;fill-opacity:0.8;stroke:#471365;stroke-opacity:0.8;" x="256.606083" xlink:href="#m3fb96fb711" y="320.22057"/>
     <use style="fill:#471365;fill-opacity:0.8;stroke:#471365;stroke-opacity:0.8;" x="282.908696" xlink:href="#m3fb96fb711" y="306.650447"/>
     <use style="fill:#471365;fill-opacity:0.8;stroke:#471365;stroke-opacity:0.8;" x="265.876257" xlink:href="#m3fb96fb711" y="308.141162"/>
     <use style="fill:#471365;fill-opacity:0.8;stroke:#471365;stroke-opacity:0.8;" x="201.646411" xlink:href="#m3fb96fb711" y="253.683936"/>
     <use style="fill:#471365;fill-opacity:0.8;stroke:#471365;stroke-opacity:0.8;" x="218.448628" xlink:href="#m3fb96fb711" y="229.755645"/>
     <use style="fill:#471365;fill-opacity:0.8;stroke:#471365;stroke-opacity:0.8;" x="245.144159" xlink:href="#m3fb96fb711" y="284.335817"/>
     <use style="fill:#471365;fill-opacity:0.8;stroke:#471365;stroke-opacity:0.8;" x="257.985896" xlink:href="#m3fb96fb711" y="306.081823"/>
     <use style="fill:#471365;fill-opacity:0.8;stroke:#471365;stroke-opacity:0.8;" x="281.217966" xlink:href="#m3fb96fb711" y="313.243406"/>
     <use style="fill:#471365;fill-opacity:0.8;stroke:#471365;stroke-opacity:0.8;" x="265.282741" xlink:href="#m3fb96fb711" y="246.760561"/>
     <use style="fill:#471365;fill-opacity:0.8;stroke:#471365;stroke-opacity:0.8;" x="279.364763" xlink:href="#m3fb96fb711" y="267.730474"/>
     <use style="fill:#471365;fill-opacity:0.8;stroke:#471365;stroke-opacity:0.8;" x="279.018275" xlink:href="#m3fb96fb711" y="297.0069"/>
     <use style="fill:#471365;fill-opacity:0.8;stroke:#471365;stroke-opacity:0.8;" x="238.528828" xlink:href="#m3fb96fb711" y="277.189602"/>
     <use style="fill:#471365;fill-opacity:0.8;stroke:#471365;stroke-opacity:0.8;" x="224.860209" xlink:href="#m3fb96fb711" y="280.50145"/>
     <use style="fill:#471365;fill-opacity:0.8;stroke:#471365;stroke-opacity:0.8;" x="272.546552" xlink:href="#m3fb96fb711" y="299.135396"/>
     <use style="fill:#471365;fill-opacity:0.8;stroke:#471365;stroke-opacity:0.8;" x="278.578938" xlink:href="#m3fb96fb711" y="286.956095"/>
     <use style="fill:#471365;fill-opacity:0.8;stroke:#471365;stroke-opacity:0.8;" x="225.384131" xlink:href="#m3fb96fb711" y="218.198757"/>
     <use style="fill:#471365;fill-opacity:0.8;stroke:#471365;stroke-opacity:0.8;" x="206.039165" xlink:href="#m3fb96fb711" y="148.119753"/>
     <use style="fill:#471365;fill-opacity:0.8;stroke:#471365;stroke-opacity:0.8;" x="282.830177" xlink:href="#m3fb96fb711" y="284.481814"/>
     <use style="fill:#471365;fill-opacity:0.8;stroke:#471365;stroke-opacity:0.8;" x="140.299721" xlink:href="#m3fb96fb711" y="216.139418"/>
     <use style="fill:#471365;fill-opacity:0.8;stroke:#471365;stroke-opacity:0.8;" x="275.721986" xlink:href="#m3fb96fb711" y="214.756279"/>
     <use style="fill:#471365;fill-opacity:0.8;stroke:#471365;stroke-opacity:0.8;" x="248.657006" xlink:href="#m3fb96fb711" y="328.749922"/>
     <use style="fill:#471365;fill-opacity:0.8;stroke:#471365;stroke-opacity:0.8;" x="263.998876" xlink:href="#m3fb96fb711" y="251.593861"/>
     <use style="fill:#471365;fill-opacity:0.8;stroke:#471365;stroke-opacity:0.8;" x="279.890117" xlink:href="#m3fb96fb711" y="184.158188"/>
     <use style="fill:#471365;fill-opacity:0.8;stroke:#471365;stroke-opacity:0.8;" x="245.963092" xlink:href="#m3fb96fb711" y="304.406689"/>
     <use style="fill:#471365;fill-opacity:0.8;stroke:#471365;stroke-opacity:0.8;" x="212.785588" xlink:href="#m3fb96fb711" y="298.305513"/>
     <use style="fill:#471365;fill-opacity:0.8;stroke:#471365;stroke-opacity:0.8;" x="225.357696" xlink:href="#m3fb96fb711" y="160.053162"/>
     <use style="fill:#471365;fill-opacity:0.8;stroke:#471365;stroke-opacity:0.8;" x="272.239859" xlink:href="#m3fb96fb711" y="291.505083"/>
     <use style="fill:#471365;fill-opacity:0.8;stroke:#471365;stroke-opacity:0.8;" x="264.385367" xlink:href="#m3fb96fb711" y="270.834851"/>
     <use style="fill:#471365;fill-opacity:0.8;stroke:#471365;stroke-opacity:0.8;" x="279.004166" xlink:href="#m3fb96fb711" y="279.694619"/>
     <use style="fill:#471365;fill-opacity:0.8;stroke:#471365;stroke-opacity:0.8;" x="238.911411" xlink:href="#m3fb96fb711" y="259.08586"/>
     <use style="fill:#471365;fill-opacity:0.8;stroke:#471365;stroke-opacity:0.8;" x="275.556072" xlink:href="#m3fb96fb711" y="301.31768"/>
     <use style="fill:#471365;fill-opacity:0.8;stroke:#471365;stroke-opacity:0.8;" x="262.203005" xlink:href="#m3fb96fb711" y="265.202404"/>
     <use style="fill:#471365;fill-opacity:0.8;stroke:#471365;stroke-opacity:0.8;" x="280.890144" xlink:href="#m3fb96fb711" y="307.303595"/>
     <use style="fill:#471365;fill-opacity:0.8;stroke:#471365;stroke-opacity:0.8;" x="164.81411" xlink:href="#m3fb96fb711" y="275.852569"/>
     <use style="fill:#471365;fill-opacity:0.8;stroke:#471365;stroke-opacity:0.8;" x="230.210453" xlink:href="#m3fb96fb711" y="172.17099"/>
     <use style="fill:#471365;fill-opacity:0.8;stroke:#471365;stroke-opacity:0.8;" x="234.639964" xlink:href="#m3fb96fb711" y="236.179554"/>
     <use style="fill:#471365;fill-opacity:0.8;stroke:#471365;stroke-opacity:0.8;" x="246.440408" xlink:href="#m3fb96fb711" y="262.874122"/>
     <use style="fill:#471365;fill-opacity:0.8;stroke:#471365;stroke-opacity:0.8;" x="267.189571" xlink:href="#m3fb96fb711" y="318.353333"/>
     <use style="fill:#471365;fill-opacity:0.8;stroke:#471365;stroke-opacity:0.8;" x="231.066801" xlink:href="#m3fb96fb711" y="270.058756"/>
     <use style="fill:#471365;fill-opacity:0.8;stroke:#471365;stroke-opacity:0.8;" x="247.478078" xlink:href="#m3fb96fb711" y="345.370633"/>
     <use style="fill:#471365;fill-opacity:0.8;stroke:#471365;stroke-opacity:0.8;" x="239.972095" xlink:href="#m3fb96fb711" y="311.191751"/>
     <use style="fill:#471365;fill-opacity:0.8;stroke:#471365;stroke-opacity:0.8;" x="210.835604" xlink:href="#m3fb96fb711" y="244.063442"/>
     <use style="fill:#471365;fill-opacity:0.8;stroke:#471365;stroke-opacity:0.8;" x="268.612151" xlink:href="#m3fb96fb711" y="188.269182"/>
     <use style="fill:#471365;fill-opacity:0.8;stroke:#471365;stroke-opacity:0.8;" x="254.826516" xlink:href="#m3fb96fb711" y="241.850421"/>
     <use style="fill:#471365;fill-opacity:0.8;stroke:#471365;stroke-opacity:0.8;" x="137.805139" xlink:href="#m3fb96fb711" y="305.21352"/>
     <use style="fill:#471365;fill-opacity:0.8;stroke:#471365;stroke-opacity:0.8;" x="266.380463" xlink:href="#m3fb96fb711" y="243.740709"/>
     <use style="fill:#471365;fill-opacity:0.8;stroke:#471365;stroke-opacity:0.8;" x="253.625566" xlink:href="#m3fb96fb711" y="135.809823"/>
     <use style="fill:#471365;fill-opacity:0.8;stroke:#471365;stroke-opacity:0.8;" x="280.222583" xlink:href="#m3fb96fb711" y="207.441015"/>
     <use style="fill:#471365;fill-opacity:0.8;stroke:#471365;stroke-opacity:0.8;" x="182.941138" xlink:href="#m3fb96fb711" y="287.417141"/>
     <use style="fill:#471365;fill-opacity:0.8;stroke:#471365;stroke-opacity:0.8;" x="282.924595" xlink:href="#m3fb96fb711" y="316.547569"/>
     <use style="fill:#471365;fill-opacity:0.8;stroke:#471365;stroke-opacity:0.8;" x="250.642491" xlink:href="#m3fb96fb711" y="179.217311"/>
     <use style="fill:#471365;fill-opacity:0.8;stroke:#471365;stroke-opacity:0.8;" x="228.912517" xlink:href="#m3fb96fb711" y="302.923658"/>
     <use style="fill:#471365;fill-opacity:0.8;stroke:#471365;stroke-opacity:0.8;" x="176.65511" xlink:href="#m3fb96fb711" y="232.690972"/>
     <use style="fill:#471365;fill-opacity:0.8;stroke:#471365;stroke-opacity:0.8;" x="200.868774" xlink:href="#m3fb96fb711" y="313.950343"/>
     <use style="fill:#471365;fill-opacity:0.8;stroke:#471365;stroke-opacity:0.8;" x="260.73579" xlink:href="#m3fb96fb711" y="248.22054"/>
     <use style="fill:#471365;fill-opacity:0.8;stroke:#471365;stroke-opacity:0.8;" x="199.051284" xlink:href="#m3fb96fb711" y="263.281379"/>
     <use style="fill:#471365;fill-opacity:0.8;stroke:#471365;stroke-opacity:0.8;" x="237.441111" xlink:href="#m3fb96fb711" y="270.181702"/>
     <use style="fill:#471365;fill-opacity:0.8;stroke:#471365;stroke-opacity:0.8;" x="221.537907" xlink:href="#m3fb96fb711" y="308.909572"/>
     <use style="fill:#471365;fill-opacity:0.8;stroke:#471365;stroke-opacity:0.8;" x="266.478526" xlink:href="#m3fb96fb711" y="219.389792"/>
     <use style="fill:#471365;fill-opacity:0.8;stroke:#471365;stroke-opacity:0.8;" x="249.50631" xlink:href="#m3fb96fb711" y="299.627178"/>
     <use style="fill:#471365;fill-opacity:0.8;stroke:#471365;stroke-opacity:0.8;" x="277.235085" xlink:href="#m3fb96fb711" y="320.381936"/>
     <use style="fill:#471365;fill-opacity:0.8;stroke:#471365;stroke-opacity:0.8;" x="258.295182" xlink:href="#m3fb96fb711" y="263.803898"/>
     <use style="fill:#471365;fill-opacity:0.8;stroke:#471365;stroke-opacity:0.8;" x="273.475947" xlink:href="#m3fb96fb711" y="294.44041"/>
    </g>
   </g>
   <g id="PolyCollection_1">
    <defs>
     <path d="M 63.549571 -250.444148 
L 63.549571 -167.378536 
L 66.317161 -167.36899 
L 69.084751 -167.369791 
L 71.852341 -167.304694 
L 74.619931 -167.239598 
L 77.387521 -167.174502 
L 80.155111 -167.109405 
L 82.922701 -167.044309 
L 85.690291 -166.98007 
L 88.457881 -167.05844 
L 91.225471 -167.059964 
L 93.993061 -167.019119 
L 96.760651 -166.978274 
L 99.528241 -166.937429 
L 102.295831 -166.903081 
L 105.063421 -167.148467 
L 107.831011 -167.449357 
L 110.598601 -167.750248 
L 113.366191 -168.051139 
L 116.133781 -168.241563 
L 118.901371 -168.217368 
L 121.668961 -168.250941 
L 124.436551 -168.156588 
L 127.204141 -168.121851 
L 129.971731 -168.092775 
L 132.739321 -168.143108 
L 135.506911 -168.25151 
L 138.274501 -168.251624 
L 141.042091 -168.257438 
L 143.809681 -168.417488 
L 146.577271 -168.329128 
L 149.344861 -168.261582 
L 152.112451 -168.372781 
L 154.880041 -168.263358 
L 157.647631 -168.159626 
L 160.415221 -168.142216 
L 163.182811 -167.900265 
L 165.950401 -167.876539 
L 168.717991 -167.97278 
L 171.485581 -168.069131 
L 174.253171 -168.165483 
L 177.020761 -168.190251 
L 179.788351 -167.985771 
L 182.555941 -167.990099 
L 185.323531 -167.996786 
L 188.091121 -167.845431 
L 190.858711 -167.576601 
L 193.626301 -167.512571 
L 196.393891 -167.351729 
L 199.161481 -167.182795 
L 201.929071 -167.014731 
L 204.696661 -166.674212 
L 207.464251 -166.671361 
L 210.231841 -166.326519 
L 212.999431 -166.030532 
L 215.767021 -165.844036 
L 218.534611 -165.472647 
L 221.302201 -165.316802 
L 224.069791 -165.132692 
L 226.837381 -165.085818 
L 229.604971 -164.510143 
L 232.372561 -164.010743 
L 235.140151 -163.684169 
L 237.907741 -163.399705 
L 240.675331 -163.132163 
L 243.442921 -162.524053 
L 246.210511 -162.017895 
L 248.978101 -161.351067 
L 251.745691 -160.629754 
L 254.513281 -159.942108 
L 257.280871 -159.394886 
L 260.048461 -158.783984 
L 262.816051 -157.946953 
L 265.583641 -157.083361 
L 268.351231 -156.182178 
L 271.118821 -155.451101 
L 273.886411 -154.755172 
L 276.654001 -153.717663 
L 279.421591 -152.604782 
L 282.189181 -151.594587 
L 284.956771 -150.512016 
L 287.724361 -149.730999 
L 290.491951 -148.966117 
L 293.259541 -148.013604 
L 296.027131 -146.944203 
L 298.794721 -145.882007 
L 301.562311 -144.898752 
L 304.329901 -143.802232 
L 307.097491 -142.614236 
L 309.865081 -141.410816 
L 312.632671 -139.982122 
L 315.400261 -138.657738 
L 318.167851 -137.432467 
L 320.935441 -136.215431 
L 323.703031 -134.999282 
L 326.470621 -133.787996 
L 329.238211 -132.576711 
L 332.005801 -131.393482 
L 334.773391 -130.344307 
L 337.540981 -129.147942 
L 337.540981 -176.474552 
L 337.540981 -176.474552 
L 334.773391 -176.558736 
L 332.005801 -176.567714 
L 329.238211 -176.583799 
L 326.470621 -176.561537 
L 323.703031 -176.538126 
L 320.935441 -176.515109 
L 318.167851 -176.685903 
L 315.400261 -176.862579 
L 312.632671 -177.042774 
L 309.865081 -177.087679 
L 307.097491 -176.955926 
L 304.329901 -176.973307 
L 301.562311 -177.36998 
L 298.794721 -177.287929 
L 296.027131 -177.159049 
L 293.259541 -177.18002 
L 290.491951 -177.292153 
L 287.724361 -177.201266 
L 284.956771 -177.315506 
L 282.189181 -177.459448 
L 279.421591 -177.448015 
L 276.654001 -177.758243 
L 273.886411 -177.907253 
L 271.118821 -178.109334 
L 268.351231 -178.215122 
L 265.583641 -178.362694 
L 262.816051 -178.499 
L 260.048461 -178.773349 
L 257.280871 -178.995971 
L 254.513281 -179.449517 
L 251.745691 -179.94992 
L 248.978101 -180.448232 
L 246.210511 -180.78108 
L 243.442921 -181.004604 
L 240.675331 -181.630831 
L 237.907741 -182.026871 
L 235.140151 -182.613297 
L 232.372561 -183.333217 
L 229.604971 -184.116883 
L 226.837381 -185.021497 
L 224.069791 -185.882569 
L 221.302201 -186.903677 
L 218.534611 -187.772335 
L 215.767021 -188.85285 
L 212.999431 -189.931878 
L 210.231841 -190.882502 
L 207.464251 -191.633053 
L 204.696661 -193.106209 
L 201.929071 -194.16597 
L 199.161481 -195.211716 
L 196.393891 -196.257215 
L 193.626301 -197.475304 
L 190.858711 -198.493818 
L 188.091121 -199.39371 
L 185.323531 -200.520487 
L 182.555941 -201.832527 
L 179.788351 -203.134687 
L 177.020761 -204.178998 
L 174.253171 -205.280062 
L 171.485581 -206.553623 
L 168.717991 -207.658135 
L 165.950401 -208.71542 
L 163.182811 -209.776392 
L 160.415221 -210.835069 
L 157.647631 -211.896272 
L 154.880041 -212.961435 
L 152.112451 -214.065516 
L 149.344861 -215.203582 
L 146.577271 -216.341647 
L 143.809681 -217.479713 
L 141.042091 -218.617778 
L 138.274501 -219.786079 
L 135.506911 -220.970311 
L 132.739321 -222.02966 
L 129.971731 -223.039602 
L 127.204141 -224.059092 
L 124.436551 -225.088146 
L 121.668961 -226.1172 
L 118.901371 -227.146254 
L 116.133781 -228.176901 
L 113.366191 -229.466239 
L 110.598601 -230.55142 
L 107.831011 -231.612213 
L 105.063421 -232.766452 
L 102.295831 -234.089408 
L 99.528241 -235.393875 
L 96.760651 -236.502268 
L 93.993061 -237.608267 
L 91.225471 -238.711919 
L 88.457881 -239.895947 
L 85.690291 -241.137349 
L 82.922701 -242.378752 
L 80.155111 -243.620155 
L 77.387521 -244.809476 
L 74.619931 -245.951073 
L 71.852341 -247.088738 
L 69.084751 -248.22631 
L 66.317161 -249.314029 
L 63.549571 -250.444148 
z
" id="m3ce2189b5d" style="stroke:#ffffff;stroke-opacity:0.15;stroke-width:0.8;"/>
    </defs>
    <g clip-path="url(#p0bd1571489)">
     <use style="fill:#471365;fill-opacity:0.15;stroke:#ffffff;stroke-opacity:0.15;stroke-width:0.8;" x="0" xlink:href="#m3ce2189b5d" y="432"/>
    </g>
   </g>
   <g id="line2d_13">
    <path clip-path="url(#p0bd1571489)" d="M 63.549571 224.249151 
L 66.317161 224.796905 
L 69.084751 225.344659 
L 71.852341 225.892413 
L 74.619931 226.440168 
L 77.387521 226.987922 
L 80.155111 227.535676 
L 82.922701 228.08343 
L 85.690291 228.631184 
L 88.457881 229.178938 
L 91.225471 229.726692 
L 93.993061 230.274446 
L 96.760651 230.8222 
L 99.528241 231.369954 
L 102.295831 231.917708 
L 105.063421 232.465462 
L 107.831011 233.013216 
L 110.598601 233.56097 
L 113.366191 234.108724 
L 116.133781 234.656478 
L 118.901371 235.204232 
L 121.668961 235.751986 
L 124.436551 236.299741 
L 127.204141 236.847495 
L 129.971731 237.395249 
L 132.739321 237.943003 
L 135.506911 238.490757 
L 138.274501 239.038511 
L 141.042091 239.586265 
L 143.809681 240.134019 
L 146.577271 240.681773 
L 149.344861 241.229527 
L 152.112451 241.777281 
L 154.880041 242.325035 
L 157.647631 242.872789 
L 160.415221 243.420543 
L 163.182811 243.968297 
L 165.950401 244.516051 
L 168.717991 245.063805 
L 171.485581 245.611559 
L 174.253171 246.159314 
L 177.020761 246.707068 
L 179.788351 247.254822 
L 182.555941 247.802576 
L 185.323531 248.35033 
L 188.091121 248.898084 
L 190.858711 249.445838 
L 193.626301 249.993592 
L 196.393891 250.541346 
L 199.161481 251.0891 
L 201.929071 251.636854 
L 204.696661 252.184608 
L 207.464251 252.732362 
L 210.231841 253.280116 
L 212.999431 253.82787 
L 215.767021 254.375624 
L 218.534611 254.923378 
L 221.302201 255.471133 
L 224.069791 256.018887 
L 226.837381 256.566641 
L 229.604971 257.114395 
L 232.372561 257.662149 
L 235.140151 258.209903 
L 237.907741 258.757657 
L 240.675331 259.305411 
L 243.442921 259.853165 
L 246.210511 260.400919 
L 248.978101 260.948673 
L 251.745691 261.496427 
L 254.513281 262.044181 
L 257.280871 262.591935 
L 260.048461 263.139689 
L 262.816051 263.687443 
L 265.583641 264.235197 
L 268.351231 264.782951 
L 271.118821 265.330706 
L 273.886411 265.87846 
L 276.654001 266.426214 
L 279.421591 266.973968 
L 282.189181 267.521722 
L 284.956771 268.069476 
L 287.724361 268.61723 
L 290.491951 269.164984 
L 293.259541 269.712738 
L 296.027131 270.260492 
L 298.794721 270.808246 
L 301.562311 271.356 
L 304.329901 271.903754 
L 307.097491 272.451508 
L 309.865081 272.999262 
L 312.632671 273.547016 
L 315.400261 274.09477 
L 318.167851 274.642524 
L 320.935441 275.190279 
L 323.703031 275.738033 
L 326.470621 276.285787 
L 329.238211 276.833541 
L 332.005801 277.381295 
L 334.773391 277.929049 
L 337.540981 278.476803 
" style="fill:none;stroke:#471365;stroke-linecap:round;stroke-width:1.8;"/>
   </g>
   <g id="patch_3">
    <path d="M 49.85 389.9 
L 49.85 81.383333 
" style="fill:none;stroke:#262626;stroke-linecap:square;stroke-linejoin:miter;"/>
   </g>
   <g id="patch_4">
    <path d="M 49.85 389.9 
L 351.240551 389.9 
" style="fill:none;stroke:#262626;stroke-linecap:square;stroke-linejoin:miter;"/>
   </g>
   <g id="legend_1">
    <g id="patch_5">
     <path d="M 198.099926 101.340083 
L 345.080551 101.340083 
Q 346.840551 101.340083 346.840551 99.580083 
L 346.840551 87.543333 
Q 346.840551 85.783333 345.080551 85.783333 
L 198.099926 85.783333 
Q 196.339926 85.783333 196.339926 87.543333 
L 196.339926 99.580083 
Q 196.339926 101.340083 198.099926 101.340083 
z
" style="fill:#ffffff;opacity:0.8;stroke:#cccccc;stroke-linejoin:miter;stroke-width:0.8;"/>
    </g>
    <g id="line2d_14"/>
    <g id="line2d_15"/>
    <g id="text_15">
     <!-- pearsonr = -0.14; p = 0.12 -->
     <defs>
      <path d="M 18.109375 8.203125 
L 18.109375 -20.796875 
L 9.078125 -20.796875 
L 9.078125 54.6875 
L 18.109375 54.6875 
L 18.109375 46.390625 
Q 20.953125 51.265625 25.265625 53.625 
Q 29.59375 56 35.59375 56 
Q 45.5625 56 51.78125 48.09375 
Q 58.015625 40.1875 58.015625 27.296875 
Q 58.015625 14.40625 51.78125 6.484375 
Q 45.5625 -1.421875 35.59375 -1.421875 
Q 29.59375 -1.421875 25.265625 0.953125 
Q 20.953125 3.328125 18.109375 8.203125 
z
M 48.6875 27.296875 
Q 48.6875 37.203125 44.609375 42.84375 
Q 40.53125 48.484375 33.40625 48.484375 
Q 26.265625 48.484375 22.1875 42.84375 
Q 18.109375 37.203125 18.109375 27.296875 
Q 18.109375 17.390625 22.1875 11.75 
Q 26.265625 6.109375 33.40625 6.109375 
Q 40.53125 6.109375 44.609375 11.75 
Q 48.6875 17.390625 48.6875 27.296875 
z
" id="DejaVuSans-70"/>
      <path d="M 44.28125 53.078125 
L 44.28125 44.578125 
Q 40.484375 46.53125 36.375 47.5 
Q 32.28125 48.484375 27.875 48.484375 
Q 21.1875 48.484375 17.84375 46.4375 
Q 14.5 44.390625 14.5 40.28125 
Q 14.5 37.15625 16.890625 35.375 
Q 19.28125 33.59375 26.515625 31.984375 
L 29.59375 31.296875 
Q 39.15625 29.25 43.1875 25.515625 
Q 47.21875 21.78125 47.21875 15.09375 
Q 47.21875 7.46875 41.1875 3.015625 
Q 35.15625 -1.421875 24.609375 -1.421875 
Q 20.21875 -1.421875 15.453125 -0.5625 
Q 10.6875 0.296875 5.421875 2 
L 5.421875 11.28125 
Q 10.40625 8.6875 15.234375 7.390625 
Q 20.0625 6.109375 24.8125 6.109375 
Q 31.15625 6.109375 34.5625 8.28125 
Q 37.984375 10.453125 37.984375 14.40625 
Q 37.984375 18.0625 35.515625 20.015625 
Q 33.0625 21.96875 24.703125 23.78125 
L 21.578125 24.515625 
Q 13.234375 26.265625 9.515625 29.90625 
Q 5.8125 33.546875 5.8125 39.890625 
Q 5.8125 47.609375 11.28125 51.796875 
Q 16.75 56 26.8125 56 
Q 31.78125 56 36.171875 55.265625 
Q 40.578125 54.546875 44.28125 53.078125 
z
" id="DejaVuSans-73"/>
      <path d="M 10.59375 45.40625 
L 73.1875 45.40625 
L 73.1875 37.203125 
L 10.59375 37.203125 
z
M 10.59375 25.484375 
L 73.1875 25.484375 
L 73.1875 17.1875 
L 10.59375 17.1875 
z
" id="DejaVuSans-3d"/>
      <path d="M 4.890625 31.390625 
L 31.203125 31.390625 
L 31.203125 23.390625 
L 4.890625 23.390625 
z
" id="DejaVuSans-2d"/>
      <path d="M 11.71875 51.703125 
L 22.015625 51.703125 
L 22.015625 39.3125 
L 11.71875 39.3125 
z
M 11.71875 12.40625 
L 22.015625 12.40625 
L 22.015625 4 
L 14.015625 -11.625 
L 7.71875 -11.625 
L 11.71875 4 
z
" id="DejaVuSans-3b"/>
     </defs>
     <g style="fill:#262626;" transform="translate(224.499926 95.989958)scale(0.088 -0.088)">
      <use xlink:href="#DejaVuSans-70"/>
      <use x="63.476562" xlink:href="#DejaVuSans-65"/>
      <use x="125" xlink:href="#DejaVuSans-61"/>
      <use x="186.279297" xlink:href="#DejaVuSans-72"/>
      <use x="227.392578" xlink:href="#DejaVuSans-73"/>
      <use x="279.492188" xlink:href="#DejaVuSans-6f"/>
      <use x="340.673828" xlink:href="#DejaVuSans-6e"/>
      <use x="404.052734" xlink:href="#DejaVuSans-72"/>
      <use x="445.166016" xlink:href="#DejaVuSans-20"/>
      <use x="476.953125" xlink:href="#DejaVuSans-3d"/>
      <use x="560.742188" xlink:href="#DejaVuSans-20"/>
      <use x="592.529297" xlink:href="#DejaVuSans-2d"/>
      <use x="628.613281" xlink:href="#DejaVuSans-30"/>
      <use x="692.236328" xlink:href="#DejaVuSans-2e"/>
      <use x="724.023438" xlink:href="#DejaVuSans-31"/>
      <use x="787.646484" xlink:href="#DejaVuSans-34"/>
      <use x="851.269531" xlink:href="#DejaVuSans-3b"/>
      <use x="884.960938" xlink:href="#DejaVuSans-20"/>
      <use x="916.748047" xlink:href="#DejaVuSans-70"/>
      <use x="980.224609" xlink:href="#DejaVuSans-20"/>
      <use x="1012.011719" xlink:href="#DejaVuSans-3d"/>
      <use x="1095.800781" xlink:href="#DejaVuSans-20"/>
      <use x="1127.587891" xlink:href="#DejaVuSans-30"/>
      <use x="1191.210938" xlink:href="#DejaVuSans-2e"/>
      <use x="1222.998047" xlink:href="#DejaVuSans-31"/>
      <use x="1286.621094" xlink:href="#DejaVuSans-32"/>
     </g>
    </g>
   </g>
  </g>
  <g id="axes_2">
   <g id="patch_6">
    <path d="M 49.85 60.983333 
L 351.240551 60.983333 
L 351.240551 15.6 
L 49.85 15.6 
z
" style="fill:#ffffff;"/>
   </g>
   <g id="matplotlib.axis_3">
    <g id="xtick_7">
     <g id="line2d_16">
      <g>
       <use style="fill:#262626;stroke:#262626;" x="90.704622" xlink:href="#m97aec07588" y="60.983333"/>
      </g>
     </g>
    </g>
    <g id="xtick_8">
     <g id="line2d_17">
      <g>
       <use style="fill:#262626;stroke:#262626;" x="142.649398" xlink:href="#m97aec07588" y="60.983333"/>
      </g>
     </g>
    </g>
    <g id="xtick_9">
     <g id="line2d_18">
      <g>
       <use style="fill:#262626;stroke:#262626;" x="194.594173" xlink:href="#m97aec07588" y="60.983333"/>
      </g>
     </g>
    </g>
    <g id="xtick_10">
     <g id="line2d_19">
      <g>
       <use style="fill:#262626;stroke:#262626;" x="246.538949" xlink:href="#m97aec07588" y="60.983333"/>
      </g>
     </g>
    </g>
    <g id="xtick_11">
     <g id="line2d_20">
      <g>
       <use style="fill:#262626;stroke:#262626;" x="298.483724" xlink:href="#m97aec07588" y="60.983333"/>
      </g>
     </g>
    </g>
    <g id="xtick_12">
     <g id="line2d_21">
      <g>
       <use style="fill:#262626;stroke:#262626;" x="350.4285" xlink:href="#m97aec07588" y="60.983333"/>
      </g>
     </g>
    </g>
   </g>
   <g id="matplotlib.axis_4">
    <g id="ytick_7"/>
    <g id="ytick_8"/>
   </g>
   <g id="patch_7">
    <path clip-path="url(#p640d891a36)" d="M 117.819815 60.983333 
L 136.203251 60.983333 
L 136.203251 58.101852 
L 117.819815 58.101852 
z
" style="fill:#471365;opacity:0.4;stroke:#ffffff;stroke-linejoin:miter;stroke-width:0.8;"/>
   </g>
   <g id="patch_8">
    <path clip-path="url(#p640d891a36)" d="M 136.203251 60.983333 
L 154.586686 60.983333 
L 154.586686 59.062346 
L 136.203251 59.062346 
z
" style="fill:#471365;opacity:0.4;stroke:#ffffff;stroke-linejoin:miter;stroke-width:0.8;"/>
   </g>
   <g id="patch_9">
    <path clip-path="url(#p640d891a36)" d="M 154.586686 60.983333 
L 172.970122 60.983333 
L 172.970122 58.101852 
L 154.586686 58.101852 
z
" style="fill:#471365;opacity:0.4;stroke:#ffffff;stroke-linejoin:miter;stroke-width:0.8;"/>
   </g>
   <g id="patch_10">
    <path clip-path="url(#p640d891a36)" d="M 172.970122 60.983333 
L 191.353558 60.983333 
L 191.353558 57.141358 
L 172.970122 57.141358 
z
" style="fill:#471365;opacity:0.4;stroke:#ffffff;stroke-linejoin:miter;stroke-width:0.8;"/>
   </g>
   <g id="patch_11">
    <path clip-path="url(#p640d891a36)" d="M 191.353558 60.983333 
L 209.736994 60.983333 
L 209.736994 51.378395 
L 191.353558 51.378395 
z
" style="fill:#471365;opacity:0.4;stroke:#ffffff;stroke-linejoin:miter;stroke-width:0.8;"/>
   </g>
   <g id="patch_12">
    <path clip-path="url(#p640d891a36)" d="M 209.736994 60.983333 
L 228.120429 60.983333 
L 228.120429 41.773457 
L 209.736994 41.773457 
z
" style="fill:#471365;opacity:0.4;stroke:#ffffff;stroke-linejoin:miter;stroke-width:0.8;"/>
   </g>
   <g id="patch_13">
    <path clip-path="url(#p640d891a36)" d="M 228.120429 60.983333 
L 246.503865 60.983333 
L 246.503865 42.733951 
L 228.120429 42.733951 
z
" style="fill:#471365;opacity:0.4;stroke:#ffffff;stroke-linejoin:miter;stroke-width:0.8;"/>
   </g>
   <g id="patch_14">
    <path clip-path="url(#p640d891a36)" d="M 246.503865 60.983333 
L 264.887301 60.983333 
L 264.887301 36.970988 
L 246.503865 36.970988 
z
" style="fill:#471365;opacity:0.4;stroke:#ffffff;stroke-linejoin:miter;stroke-width:0.8;"/>
   </g>
   <g id="patch_15">
    <path clip-path="url(#p640d891a36)" d="M 264.887301 60.983333 
L 283.270737 60.983333 
L 283.270737 17.761111 
L 264.887301 17.761111 
z
" style="fill:#471365;opacity:0.4;stroke:#ffffff;stroke-linejoin:miter;stroke-width:0.8;"/>
   </g>
   <g id="line2d_22">
    <path clip-path="url(#p640d891a36)" d="M 76.003726 60.975753 
L 78.519716 60.970235 
L 81.035707 60.96137 
L 83.551698 60.947585 
L 86.067689 60.926838 
L 88.58368 60.896626 
L 91.099671 60.85406 
L 93.615662 60.796044 
L 96.131653 60.719571 
L 98.647644 60.622112 
L 101.163635 60.50208 
L 103.679626 60.359295 
L 106.195616 60.195378 
L 108.711607 60.013987 
L 111.227598 59.820827 
L 113.743589 59.62339 
L 116.25958 59.430437 
L 118.775571 59.251266 
L 121.291562 59.094846 
L 123.807553 58.968925 
L 126.323544 58.879206 
L 128.839535 58.828679 
L 131.355526 58.817158 
L 133.871517 58.84108 
L 136.387507 58.893591 
L 138.903498 58.964934 
L 141.419489 59.043151 
L 143.93548 59.115065 
L 146.451471 59.167477 
L 148.967462 59.188442 
L 151.483453 59.168449 
L 153.999444 59.101293 
L 156.515435 58.984478 
L 159.031426 58.819029 
L 161.547417 58.608723 
L 164.063407 58.358871 
L 166.579398 58.074885 
L 169.095389 57.760923 
L 171.61138 57.418885 
L 174.127371 57.047965 
L 176.643362 56.644818 
L 179.159353 56.204265 
L 181.675344 55.720335 
L 184.191335 55.187387 
L 186.707326 54.601063 
L 189.223317 53.958893 
L 191.739308 53.260516 
L 194.255298 52.507592 
L 196.771289 51.703576 
L 199.28728 50.853562 
L 201.803271 49.964348 
L 204.319262 49.044764 
L 206.835253 48.106167 
L 209.351244 47.162857 
L 211.867235 46.232129 
L 214.383226 45.333662 
L 216.899217 44.488105 
L 219.415208 43.714874 
L 221.931198 43.029456 
L 224.447189 42.440656 
L 226.96318 41.94836 
L 229.479171 41.542329 
L 231.995162 41.20239 
L 234.511153 40.900122 
L 237.027144 40.601847 
L 239.543135 40.272516 
L 242.059126 39.879948 
L 244.575117 39.398897 
L 247.091108 38.81453 
L 249.607099 38.12507 
L 252.123089 37.343507 
L 254.63908 36.498337 
L 257.155071 35.633282 
L 259.671062 34.805871 
L 262.187053 34.084672 
L 264.703044 33.544993 
L 267.219035 33.263006 
L 269.735026 33.308532 
L 272.251017 33.737124 
L 274.767008 34.582438 
L 277.282999 35.850165 
L 279.798989 37.514737 
L 282.31498 39.519747 
L 284.830971 41.78239 
L 287.346962 44.20149 
L 289.862953 46.66796 
L 292.378944 49.076037 
L 294.894935 51.333488 
L 297.410926 53.369274 
L 299.926917 55.137709 
L 302.442908 56.618896 
L 304.958899 57.815939 
L 307.47489 58.749905 
L 309.99088 59.453722 
L 312.506871 59.966168 
L 315.022862 60.32676 
L 317.538853 60.57204 
L 320.054844 60.733354 
L 322.570835 60.835946 
L 325.086826 60.899049 
" style="fill:none;stroke:#471365;stroke-linecap:round;stroke-width:1.2;"/>
   </g>
   <g id="patch_16">
    <path d="M 49.85 60.983333 
L 351.240551 60.983333 
" style="fill:none;stroke:#262626;stroke-linecap:square;stroke-linejoin:miter;"/>
   </g>
  </g>
  <g id="axes_3">
   <g id="patch_17">
    <path d="M 375.647243 389.9 
L 416.4 389.9 
L 416.4 81.383333 
L 375.647243 81.383333 
z
" style="fill:#ffffff;"/>
   </g>
   <g id="matplotlib.axis_5">
    <g id="xtick_13"/>
    <g id="xtick_14"/>
   </g>
   <g id="matplotlib.axis_6">
    <g id="ytick_9">
     <g id="line2d_23">
      <g>
       <use style="fill:#262626;stroke:#262626;" x="375.647243" xlink:href="#m311f6f5c91" y="389.9"/>
      </g>
     </g>
    </g>
    <g id="ytick_10">
     <g id="line2d_24">
      <g>
       <use style="fill:#262626;stroke:#262626;" x="375.647243" xlink:href="#m311f6f5c91" y="333.806061"/>
      </g>
     </g>
    </g>
    <g id="ytick_11">
     <g id="line2d_25">
      <g>
       <use style="fill:#262626;stroke:#262626;" x="375.647243" xlink:href="#m311f6f5c91" y="277.712121"/>
      </g>
     </g>
    </g>
    <g id="ytick_12">
     <g id="line2d_26">
      <g>
       <use style="fill:#262626;stroke:#262626;" x="375.647243" xlink:href="#m311f6f5c91" y="221.618182"/>
      </g>
     </g>
    </g>
    <g id="ytick_13">
     <g id="line2d_27">
      <g>
       <use style="fill:#262626;stroke:#262626;" x="375.647243" xlink:href="#m311f6f5c91" y="165.524242"/>
      </g>
     </g>
    </g>
    <g id="ytick_14">
     <g id="line2d_28">
      <g>
       <use style="fill:#262626;stroke:#262626;" x="375.647243" xlink:href="#m311f6f5c91" y="109.430303"/>
      </g>
     </g>
    </g>
   </g>
   <g id="patch_18">
    <path clip-path="url(#p0d21e8b14b)" d="M 375.647243 345.370633 
L 385.860966 345.370633 
L 385.860966 316.692607 
L 375.647243 316.692607 
z
" style="fill:#471365;opacity:0.4;stroke:#ffffff;stroke-linejoin:miter;stroke-width:0.8;"/>
   </g>
   <g id="patch_19">
    <path clip-path="url(#p0d21e8b14b)" d="M 375.647243 316.692607 
L 414.459393 316.692607 
L 414.459393 288.01458 
L 375.647243 288.01458 
z
" style="fill:#471365;opacity:0.4;stroke:#ffffff;stroke-linejoin:miter;stroke-width:0.8;"/>
   </g>
   <g id="patch_20">
    <path clip-path="url(#p0d21e8b14b)" d="M 375.647243 288.01458 
L 407.309786 288.01458 
L 407.309786 259.336553 
L 375.647243 259.336553 
z
" style="fill:#471365;opacity:0.4;stroke:#ffffff;stroke-linejoin:miter;stroke-width:0.8;"/>
   </g>
   <g id="patch_21">
    <path clip-path="url(#p0d21e8b14b)" d="M 375.647243 259.336553 
L 395.053318 259.336553 
L 395.053318 230.658527 
L 375.647243 230.658527 
z
" style="fill:#471365;opacity:0.4;stroke:#ffffff;stroke-linejoin:miter;stroke-width:0.8;"/>
   </g>
   <g id="patch_22">
    <path clip-path="url(#p0d21e8b14b)" d="M 375.647243 230.658527 
L 388.925083 230.658527 
L 388.925083 201.9805 
L 375.647243 201.9805 
z
" style="fill:#471365;opacity:0.4;stroke:#ffffff;stroke-linejoin:miter;stroke-width:0.8;"/>
   </g>
   <g id="patch_23">
    <path clip-path="url(#p0d21e8b14b)" d="M 375.647243 201.9805 
L 382.796849 201.9805 
L 382.796849 173.302474 
L 375.647243 173.302474 
z
" style="fill:#471365;opacity:0.4;stroke:#ffffff;stroke-linejoin:miter;stroke-width:0.8;"/>
   </g>
   <g id="patch_24">
    <path clip-path="url(#p0d21e8b14b)" d="M 375.647243 173.302474 
L 383.818222 173.302474 
L 383.818222 144.624447 
L 375.647243 144.624447 
z
" style="fill:#471365;opacity:0.4;stroke:#ffffff;stroke-linejoin:miter;stroke-width:0.8;"/>
   </g>
   <g id="patch_25">
    <path clip-path="url(#p0d21e8b14b)" d="M 375.647243 144.624447 
L 380.754104 144.624447 
L 380.754104 115.946421 
L 375.647243 115.946421 
z
" style="fill:#471365;opacity:0.4;stroke:#ffffff;stroke-linejoin:miter;stroke-width:0.8;"/>
   </g>
   <g id="line2d_29">
    <path clip-path="url(#p0d21e8b14b)" d="M 375.65569 405.750983 
L 375.66188 402.213761 
L 375.672013 398.67654 
L 375.688223 395.139319 
L 375.713595 391.602097 
L 375.752498 388.064876 
L 375.810993 384.527655 
L 375.897329 380.990433 
L 376.022504 377.453212 
L 376.200855 373.915991 
L 376.450591 370.378769 
L 376.794144 366.841548 
L 377.258144 363.304327 
L 377.872793 359.767105 
L 378.670399 356.229884 
L 379.682905 352.692663 
L 380.938353 349.155441 
L 382.456482 345.61822 
L 384.24389 342.080999 
L 386.289478 338.543777 
L 388.561087 335.006556 
L 391.004254 331.469335 
L 393.543837 327.932113 
L 396.088826 324.394892 
L 398.540069 320.857671 
L 400.799972 317.320449 
L 402.782726 313.783228 
L 404.423304 310.246007 
L 405.683631 306.708785 
L 406.554791 303.171564 
L 407.054971 299.634343 
L 407.2237 296.097122 
L 407.113712 292.5599 
L 406.782188 289.022679 
L 406.283079 285.485458 
L 405.661816 281.948236 
L 404.952959 278.411015 
L 404.180574 274.873794 
L 403.360532 271.336572 
L 402.503575 267.799351 
L 401.6181 264.26213 
L 400.711897 260.724908 
L 399.792615 257.187687 
L 398.867164 253.650466 
L 397.940589 250.113244 
L 397.015041 246.576023 
L 396.089375 243.038802 
L 395.159626 239.50158 
L 394.220366 235.964359 
L 393.266658 232.427138 
L 392.296208 228.889916 
L 391.311237 225.352695 
L 390.319689 221.815474 
L 389.335467 218.278252 
L 388.377607 214.741031 
L 387.468454 211.20381 
L 386.631104 207.666588 
L 385.886531 204.129367 
L 385.250866 200.592146 
L 384.733318 197.054924 
L 384.335073 193.517703 
L 384.049322 189.980482 
L 383.862322 186.44326 
L 383.755199 182.906039 
L 383.706066 179.368818 
L 383.692058 175.831596 
L 383.690973 172.294375 
L 383.682409 168.757154 
L 383.648453 165.219932 
L 383.574088 161.682711 
L 383.447524 158.14549 
L 383.260538 154.608268 
L 383.008854 151.071047 
L 382.692421 147.533826 
L 382.315446 143.996604 
L 381.886023 140.459383 
L 381.41534 136.922162 
L 380.916535 133.384941 
L 380.40339 129.847719 
L 379.889099 126.310498 
L 379.38532 122.773277 
L 378.901614 119.236055 
L 378.445307 115.698834 
L 378.021652 112.161613 
L 377.634177 108.624391 
L 377.285048 105.08717 
L 376.975352 101.549949 
L 376.705259 98.012727 
L 376.474067 94.475506 
L 376.280211 90.938285 
L 376.121286 87.401063 
L 375.994127 83.863842 
L 375.894986 80.326621 
L 375.819766 76.789399 
L 375.764289 73.252178 
L 375.724549 69.714957 
L 375.69692 66.177735 
L 375.678286 62.640514 
L 375.666099 59.103293 
L 375.658372 55.566071 
" style="fill:none;stroke:#471365;stroke-linecap:round;stroke-width:1.2;"/>
   </g>
   <g id="patch_26">
    <path d="M 375.647243 389.9 
L 375.647243 81.383333 
" style="fill:none;stroke:#262626;stroke-linecap:square;stroke-linejoin:miter;"/>
   </g>
  </g>
 </g>
 <defs>
  <clipPath id="p0bd1571489">
   <rect height="308.516667" width="301.390551" x="49.85" y="81.383333"/>
  </clipPath>
  <clipPath id="p640d891a36">
   <rect height="45.383333" width="301.390551" x="49.85" y="15.6"/>
  </clipPath>
  <clipPath id="p0d21e8b14b">
   <rect height="308.516667" width="40.752757" x="375.647243" y="81.383333"/>
  </clipPath>
 </defs>
</svg>
