<?xml version="1.0" encoding="utf-8" standalone="no"?>
<!DOCTYPE svg PUBLIC "-//W3C//DTD SVG 1.1//EN"
  "http://www.w3.org/Graphics/SVG/1.1/DTD/svg11.dtd">
<!-- Created with matplotlib (http://matplotlib.org/) -->
<svg height="432pt" version="1.1" viewBox="0 0 432 432" width="432pt" xmlns="http://www.w3.org/2000/svg" xmlns:xlink="http://www.w3.org/1999/xlink">
 <defs>
  <style type="text/css">
*{stroke-linecap:butt;stroke-linejoin:round;}
  </style>
 </defs>
 <g id="figure_1">
  <g id="patch_1">
   <path d="M 0 432 
L 432 432 
L 432 0 
L 0 0 
z
" style="fill:#ffffff;"/>
  </g>
  <g id="axes_1">
   <g id="patch_2">
    <path d="M 49.418 390.332 
L 352.268333 390.332 
L 352.268333 81.023333 
L 49.418 81.023333 
z
" style="fill:#ffffff;"/>
   </g>
   <g id="matplotlib.axis_1">
    <g id="xtick_1">
     <g id="line2d_1">
      <defs>
       <path d="M 0 0 
L 0 4.8 
" id="m33bdde0e78" style="stroke:#262626;"/>
      </defs>
      <g>
       <use style="fill:#262626;stroke:#262626;" x="60.472196" xlink:href="#m33bdde0e78" y="390.332"/>
      </g>
     </g>
     <g id="text_1">
      <!-- −6.8 -->
      <defs>
       <path d="M 10.59375 35.5 
L 73.1875 35.5 
L 73.1875 27.203125 
L 10.59375 27.203125 
z
" id="DejaVuSans-2212"/>
       <path d="M 33.015625 40.375 
Q 26.375 40.375 22.484375 35.828125 
Q 18.609375 31.296875 18.609375 23.390625 
Q 18.609375 15.53125 22.484375 10.953125 
Q 26.375 6.390625 33.015625 6.390625 
Q 39.65625 6.390625 43.53125 10.953125 
Q 47.40625 15.53125 47.40625 23.390625 
Q 47.40625 31.296875 43.53125 35.828125 
Q 39.65625 40.375 33.015625 40.375 
z
M 52.59375 71.296875 
L 52.59375 62.3125 
Q 48.875 64.0625 45.09375 64.984375 
Q 41.3125 65.921875 37.59375 65.921875 
Q 27.828125 65.921875 22.671875 59.328125 
Q 17.53125 52.734375 16.796875 39.40625 
Q 19.671875 43.65625 24.015625 45.921875 
Q 28.375 48.1875 33.59375 48.1875 
Q 44.578125 48.1875 50.953125 41.515625 
Q 57.328125 34.859375 57.328125 23.390625 
Q 57.328125 12.15625 50.6875 5.359375 
Q 44.046875 -1.421875 33.015625 -1.421875 
Q 20.359375 -1.421875 13.671875 8.265625 
Q 6.984375 17.96875 6.984375 36.375 
Q 6.984375 53.65625 15.1875 63.9375 
Q 23.390625 74.21875 37.203125 74.21875 
Q 40.921875 74.21875 44.703125 73.484375 
Q 48.484375 72.75 52.59375 71.296875 
z
" id="DejaVuSans-36"/>
       <path d="M 10.6875 12.40625 
L 21 12.40625 
L 21 0 
L 10.6875 0 
z
" id="DejaVuSans-2e"/>
       <path d="M 31.78125 34.625 
Q 24.75 34.625 20.71875 30.859375 
Q 16.703125 27.09375 16.703125 20.515625 
Q 16.703125 13.921875 20.71875 10.15625 
Q 24.75 6.390625 31.78125 6.390625 
Q 38.8125 6.390625 42.859375 10.171875 
Q 46.921875 13.96875 46.921875 20.515625 
Q 46.921875 27.09375 42.890625 30.859375 
Q 38.875 34.625 31.78125 34.625 
z
M 21.921875 38.8125 
Q 15.578125 40.375 12.03125 44.71875 
Q 8.5 49.078125 8.5 55.328125 
Q 8.5 64.0625 14.71875 69.140625 
Q 20.953125 74.21875 31.78125 74.21875 
Q 42.671875 74.21875 48.875 69.140625 
Q 55.078125 64.0625 55.078125 55.328125 
Q 55.078125 49.078125 51.53125 44.71875 
Q 48 40.375 41.703125 38.8125 
Q 48.828125 37.15625 52.796875 32.3125 
Q 56.78125 27.484375 56.78125 20.515625 
Q 56.78125 9.90625 50.3125 4.234375 
Q 43.84375 -1.421875 31.78125 -1.421875 
Q 19.734375 -1.421875 13.25 4.234375 
Q 6.78125 9.90625 6.78125 20.515625 
Q 6.78125 27.484375 10.78125 32.3125 
Q 14.796875 37.15625 21.921875 38.8125 
z
M 18.3125 54.390625 
Q 18.3125 48.734375 21.84375 45.5625 
Q 25.390625 42.390625 31.78125 42.390625 
Q 38.140625 42.390625 41.71875 45.5625 
Q 45.3125 48.734375 45.3125 54.390625 
Q 45.3125 60.0625 41.71875 63.234375 
Q 38.140625 66.40625 31.78125 66.40625 
Q 25.390625 66.40625 21.84375 63.234375 
Q 18.3125 60.0625 18.3125 54.390625 
z
" id="DejaVuSans-38"/>
      </defs>
      <g style="fill:#262626;" transform="translate(49.787758 405.318625)scale(0.088 -0.088)">
       <use xlink:href="#DejaVuSans-2212"/>
       <use x="83.789062" xlink:href="#DejaVuSans-36"/>
       <use x="147.412109" xlink:href="#DejaVuSans-2e"/>
       <use x="179.199219" xlink:href="#DejaVuSans-38"/>
      </g>
     </g>
    </g>
    <g id="xtick_2">
     <g id="line2d_2">
      <g>
       <use style="fill:#262626;stroke:#262626;" x="124.375712" xlink:href="#m33bdde0e78" y="390.332"/>
      </g>
     </g>
     <g id="text_2">
      <!-- −6.6 -->
      <g style="fill:#262626;" transform="translate(113.691274 405.318625)scale(0.088 -0.088)">
       <use xlink:href="#DejaVuSans-2212"/>
       <use x="83.789062" xlink:href="#DejaVuSans-36"/>
       <use x="147.412109" xlink:href="#DejaVuSans-2e"/>
       <use x="179.199219" xlink:href="#DejaVuSans-36"/>
      </g>
     </g>
    </g>
    <g id="xtick_3">
     <g id="line2d_3">
      <g>
       <use style="fill:#262626;stroke:#262626;" x="188.279228" xlink:href="#m33bdde0e78" y="390.332"/>
      </g>
     </g>
     <g id="text_3">
      <!-- −6.4 -->
      <defs>
       <path d="M 37.796875 64.3125 
L 12.890625 25.390625 
L 37.796875 25.390625 
z
M 35.203125 72.90625 
L 47.609375 72.90625 
L 47.609375 25.390625 
L 58.015625 25.390625 
L 58.015625 17.1875 
L 47.609375 17.1875 
L 47.609375 0 
L 37.796875 0 
L 37.796875 17.1875 
L 4.890625 17.1875 
L 4.890625 26.703125 
z
" id="DejaVuSans-34"/>
      </defs>
      <g style="fill:#262626;" transform="translate(177.59479 405.318625)scale(0.088 -0.088)">
       <use xlink:href="#DejaVuSans-2212"/>
       <use x="83.789062" xlink:href="#DejaVuSans-36"/>
       <use x="147.412109" xlink:href="#DejaVuSans-2e"/>
       <use x="179.199219" xlink:href="#DejaVuSans-34"/>
      </g>
     </g>
    </g>
    <g id="xtick_4">
     <g id="line2d_4">
      <g>
       <use style="fill:#262626;stroke:#262626;" x="252.182744" xlink:href="#m33bdde0e78" y="390.332"/>
      </g>
     </g>
     <g id="text_4">
      <!-- −6.2 -->
      <defs>
       <path d="M 19.1875 8.296875 
L 53.609375 8.296875 
L 53.609375 0 
L 7.328125 0 
L 7.328125 8.296875 
Q 12.9375 14.109375 22.625 23.890625 
Q 32.328125 33.6875 34.8125 36.53125 
Q 39.546875 41.84375 41.421875 45.53125 
Q 43.3125 49.21875 43.3125 52.78125 
Q 43.3125 58.59375 39.234375 62.25 
Q 35.15625 65.921875 28.609375 65.921875 
Q 23.96875 65.921875 18.8125 64.3125 
Q 13.671875 62.703125 7.8125 59.421875 
L 7.8125 69.390625 
Q 13.765625 71.78125 18.9375 73 
Q 24.125 74.21875 28.421875 74.21875 
Q 39.75 74.21875 46.484375 68.546875 
Q 53.21875 62.890625 53.21875 53.421875 
Q 53.21875 48.921875 51.53125 44.890625 
Q 49.859375 40.875 45.40625 35.40625 
Q 44.1875 33.984375 37.640625 27.21875 
Q 31.109375 20.453125 19.1875 8.296875 
z
" id="DejaVuSans-32"/>
      </defs>
      <g style="fill:#262626;" transform="translate(241.498307 405.318625)scale(0.088 -0.088)">
       <use xlink:href="#DejaVuSans-2212"/>
       <use x="83.789062" xlink:href="#DejaVuSans-36"/>
       <use x="147.412109" xlink:href="#DejaVuSans-2e"/>
       <use x="179.199219" xlink:href="#DejaVuSans-32"/>
      </g>
     </g>
    </g>
    <g id="xtick_5">
     <g id="line2d_5">
      <g>
       <use style="fill:#262626;stroke:#262626;" x="316.08626" xlink:href="#m33bdde0e78" y="390.332"/>
      </g>
     </g>
     <g id="text_5">
      <!-- −6.0 -->
      <defs>
       <path d="M 31.78125 66.40625 
Q 24.171875 66.40625 20.328125 58.90625 
Q 16.5 51.421875 16.5 36.375 
Q 16.5 21.390625 20.328125 13.890625 
Q 24.171875 6.390625 31.78125 6.390625 
Q 39.453125 6.390625 43.28125 13.890625 
Q 47.125 21.390625 47.125 36.375 
Q 47.125 51.421875 43.28125 58.90625 
Q 39.453125 66.40625 31.78125 66.40625 
z
M 31.78125 74.21875 
Q 44.046875 74.21875 50.515625 64.515625 
Q 56.984375 54.828125 56.984375 36.375 
Q 56.984375 17.96875 50.515625 8.265625 
Q 44.046875 -1.421875 31.78125 -1.421875 
Q 19.53125 -1.421875 13.0625 8.265625 
Q 6.59375 17.96875 6.59375 36.375 
Q 6.59375 54.828125 13.0625 64.515625 
Q 19.53125 74.21875 31.78125 74.21875 
z
" id="DejaVuSans-30"/>
      </defs>
      <g style="fill:#262626;" transform="translate(305.401823 405.318625)scale(0.088 -0.088)">
       <use xlink:href="#DejaVuSans-2212"/>
       <use x="83.789062" xlink:href="#DejaVuSans-36"/>
       <use x="147.412109" xlink:href="#DejaVuSans-2e"/>
       <use x="179.199219" xlink:href="#DejaVuSans-30"/>
      </g>
     </g>
    </g>
    <g id="text_6">
     <!-- log(p) -->
     <defs>
      <path d="M 9.421875 75.984375 
L 18.40625 75.984375 
L 18.40625 0 
L 9.421875 0 
z
" id="DejaVuSans-6c"/>
      <path d="M 30.609375 48.390625 
Q 23.390625 48.390625 19.1875 42.75 
Q 14.984375 37.109375 14.984375 27.296875 
Q 14.984375 17.484375 19.15625 11.84375 
Q 23.34375 6.203125 30.609375 6.203125 
Q 37.796875 6.203125 41.984375 11.859375 
Q 46.1875 17.53125 46.1875 27.296875 
Q 46.1875 37.015625 41.984375 42.703125 
Q 37.796875 48.390625 30.609375 48.390625 
z
M 30.609375 56 
Q 42.328125 56 49.015625 48.375 
Q 55.71875 40.765625 55.71875 27.296875 
Q 55.71875 13.875 49.015625 6.21875 
Q 42.328125 -1.421875 30.609375 -1.421875 
Q 18.84375 -1.421875 12.171875 6.21875 
Q 5.515625 13.875 5.515625 27.296875 
Q 5.515625 40.765625 12.171875 48.375 
Q 18.84375 56 30.609375 56 
z
" id="DejaVuSans-6f"/>
      <path d="M 45.40625 27.984375 
Q 45.40625 37.75 41.375 43.109375 
Q 37.359375 48.484375 30.078125 48.484375 
Q 22.859375 48.484375 18.828125 43.109375 
Q 14.796875 37.75 14.796875 27.984375 
Q 14.796875 18.265625 18.828125 12.890625 
Q 22.859375 7.515625 30.078125 7.515625 
Q 37.359375 7.515625 41.375 12.890625 
Q 45.40625 18.265625 45.40625 27.984375 
z
M 54.390625 6.78125 
Q 54.390625 -7.171875 48.1875 -13.984375 
Q 42 -20.796875 29.203125 -20.796875 
Q 24.46875 -20.796875 20.265625 -20.09375 
Q 16.0625 -19.390625 12.109375 -17.921875 
L 12.109375 -9.1875 
Q 16.0625 -11.328125 19.921875 -12.34375 
Q 23.78125 -13.375 27.78125 -13.375 
Q 36.625 -13.375 41.015625 -8.765625 
Q 45.40625 -4.15625 45.40625 5.171875 
L 45.40625 9.625 
Q 42.625 4.78125 38.28125 2.390625 
Q 33.9375 0 27.875 0 
Q 17.828125 0 11.671875 7.65625 
Q 5.515625 15.328125 5.515625 27.984375 
Q 5.515625 40.671875 11.671875 48.328125 
Q 17.828125 56 27.875 56 
Q 33.9375 56 38.28125 53.609375 
Q 42.625 51.21875 45.40625 46.390625 
L 45.40625 54.6875 
L 54.390625 54.6875 
z
" id="DejaVuSans-67"/>
      <path d="M 31 75.875 
Q 24.46875 64.65625 21.28125 53.65625 
Q 18.109375 42.671875 18.109375 31.390625 
Q 18.109375 20.125 21.3125 9.0625 
Q 24.515625 -2 31 -13.1875 
L 23.1875 -13.1875 
Q 15.875 -1.703125 12.234375 9.375 
Q 8.59375 20.453125 8.59375 31.390625 
Q 8.59375 42.28125 12.203125 53.3125 
Q 15.828125 64.359375 23.1875 75.875 
z
" id="DejaVuSans-28"/>
      <path d="M 18.109375 8.203125 
L 18.109375 -20.796875 
L 9.078125 -20.796875 
L 9.078125 54.6875 
L 18.109375 54.6875 
L 18.109375 46.390625 
Q 20.953125 51.265625 25.265625 53.625 
Q 29.59375 56 35.59375 56 
Q 45.5625 56 51.78125 48.09375 
Q 58.015625 40.1875 58.015625 27.296875 
Q 58.015625 14.40625 51.78125 6.484375 
Q 45.5625 -1.421875 35.59375 -1.421875 
Q 29.59375 -1.421875 25.265625 0.953125 
Q 20.953125 3.328125 18.109375 8.203125 
z
M 48.6875 27.296875 
Q 48.6875 37.203125 44.609375 42.84375 
Q 40.53125 48.484375 33.40625 48.484375 
Q 26.265625 48.484375 22.1875 42.84375 
Q 18.109375 37.203125 18.109375 27.296875 
Q 18.109375 17.390625 22.1875 11.75 
Q 26.265625 6.109375 33.40625 6.109375 
Q 40.53125 6.109375 44.609375 11.75 
Q 48.6875 17.390625 48.6875 27.296875 
z
" id="DejaVuSans-70"/>
      <path d="M 8.015625 75.875 
L 15.828125 75.875 
Q 23.140625 64.359375 26.78125 53.3125 
Q 30.421875 42.28125 30.421875 31.390625 
Q 30.421875 20.453125 26.78125 9.375 
Q 23.140625 -1.703125 15.828125 -13.1875 
L 8.015625 -13.1875 
Q 14.5 -2 17.703125 9.0625 
Q 20.90625 20.125 20.90625 31.390625 
Q 20.90625 42.671875 17.703125 53.65625 
Q 14.5 64.65625 8.015625 75.875 
z
" id="DejaVuSans-29"/>
     </defs>
     <g style="fill:#262626;" transform="translate(186.732667 418.44325)scale(0.096 -0.096)">
      <use xlink:href="#DejaVuSans-6c"/>
      <use x="27.783203" xlink:href="#DejaVuSans-6f"/>
      <use x="88.964844" xlink:href="#DejaVuSans-67"/>
      <use x="152.441406" xlink:href="#DejaVuSans-28"/>
      <use x="191.455078" xlink:href="#DejaVuSans-70"/>
      <use x="254.931641" xlink:href="#DejaVuSans-29"/>
     </g>
    </g>
   </g>
   <g id="matplotlib.axis_2">
    <g id="ytick_1">
     <g id="line2d_6">
      <defs>
       <path d="M 0 0 
L -4.8 0 
" id="m3900493b76" style="stroke:#262626;"/>
      </defs>
      <g>
       <use style="fill:#262626;stroke:#262626;" x="49.418" xlink:href="#m3900493b76" y="390.332"/>
      </g>
     </g>
     <g id="text_7">
      <!-- 0 -->
      <g style="fill:#262626;" transform="translate(35.519 393.675313)scale(0.088 -0.088)">
       <use xlink:href="#DejaVuSans-30"/>
      </g>
     </g>
    </g>
    <g id="ytick_2">
     <g id="line2d_7">
      <g>
       <use style="fill:#262626;stroke:#262626;" x="49.418" xlink:href="#m3900493b76" y="334.094061"/>
      </g>
     </g>
     <g id="text_8">
      <!-- 20 -->
      <g style="fill:#262626;" transform="translate(29.92 337.437373)scale(0.088 -0.088)">
       <use xlink:href="#DejaVuSans-32"/>
       <use x="63.623047" xlink:href="#DejaVuSans-30"/>
      </g>
     </g>
    </g>
    <g id="ytick_3">
     <g id="line2d_8">
      <g>
       <use style="fill:#262626;stroke:#262626;" x="49.418" xlink:href="#m3900493b76" y="277.856121"/>
      </g>
     </g>
     <g id="text_9">
      <!-- 40 -->
      <g style="fill:#262626;" transform="translate(29.92 281.199434)scale(0.088 -0.088)">
       <use xlink:href="#DejaVuSans-34"/>
       <use x="63.623047" xlink:href="#DejaVuSans-30"/>
      </g>
     </g>
    </g>
    <g id="ytick_4">
     <g id="line2d_9">
      <g>
       <use style="fill:#262626;stroke:#262626;" x="49.418" xlink:href="#m3900493b76" y="221.618182"/>
      </g>
     </g>
     <g id="text_10">
      <!-- 60 -->
      <g style="fill:#262626;" transform="translate(29.92 224.961494)scale(0.088 -0.088)">
       <use xlink:href="#DejaVuSans-36"/>
       <use x="63.623047" xlink:href="#DejaVuSans-30"/>
      </g>
     </g>
    </g>
    <g id="ytick_5">
     <g id="line2d_10">
      <g>
       <use style="fill:#262626;stroke:#262626;" x="49.418" xlink:href="#m3900493b76" y="165.380242"/>
      </g>
     </g>
     <g id="text_11">
      <!-- 80 -->
      <g style="fill:#262626;" transform="translate(29.92 168.723555)scale(0.088 -0.088)">
       <use xlink:href="#DejaVuSans-38"/>
       <use x="63.623047" xlink:href="#DejaVuSans-30"/>
      </g>
     </g>
    </g>
    <g id="ytick_6">
     <g id="line2d_11">
      <g>
       <use style="fill:#262626;stroke:#262626;" x="49.418" xlink:href="#m3900493b76" y="109.142303"/>
      </g>
     </g>
     <g id="text_12">
      <!-- 100 -->
      <defs>
       <path d="M 12.40625 8.296875 
L 28.515625 8.296875 
L 28.515625 63.921875 
L 10.984375 60.40625 
L 10.984375 69.390625 
L 28.421875 72.90625 
L 38.28125 72.90625 
L 38.28125 8.296875 
L 54.390625 8.296875 
L 54.390625 0 
L 12.40625 0 
z
" id="DejaVuSans-31"/>
      </defs>
      <g style="fill:#262626;" transform="translate(24.321 112.485616)scale(0.088 -0.088)">
       <use xlink:href="#DejaVuSans-31"/>
       <use x="63.623047" xlink:href="#DejaVuSans-30"/>
       <use x="127.246094" xlink:href="#DejaVuSans-30"/>
      </g>
     </g>
    </g>
    <g id="text_13">
     <!-- Time to cancer -->
     <defs>
      <path d="M -0.296875 72.90625 
L 61.375 72.90625 
L 61.375 64.59375 
L 35.5 64.59375 
L 35.5 0 
L 25.59375 0 
L 25.59375 64.59375 
L -0.296875 64.59375 
z
" id="DejaVuSans-54"/>
      <path d="M 9.421875 54.6875 
L 18.40625 54.6875 
L 18.40625 0 
L 9.421875 0 
z
M 9.421875 75.984375 
L 18.40625 75.984375 
L 18.40625 64.59375 
L 9.421875 64.59375 
z
" id="DejaVuSans-69"/>
      <path d="M 52 44.1875 
Q 55.375 50.25 60.0625 53.125 
Q 64.75 56 71.09375 56 
Q 79.640625 56 84.28125 50.015625 
Q 88.921875 44.046875 88.921875 33.015625 
L 88.921875 0 
L 79.890625 0 
L 79.890625 32.71875 
Q 79.890625 40.578125 77.09375 44.375 
Q 74.3125 48.1875 68.609375 48.1875 
Q 61.625 48.1875 57.5625 43.546875 
Q 53.515625 38.921875 53.515625 30.90625 
L 53.515625 0 
L 44.484375 0 
L 44.484375 32.71875 
Q 44.484375 40.625 41.703125 44.40625 
Q 38.921875 48.1875 33.109375 48.1875 
Q 26.21875 48.1875 22.15625 43.53125 
Q 18.109375 38.875 18.109375 30.90625 
L 18.109375 0 
L 9.078125 0 
L 9.078125 54.6875 
L 18.109375 54.6875 
L 18.109375 46.1875 
Q 21.1875 51.21875 25.484375 53.609375 
Q 29.78125 56 35.6875 56 
Q 41.65625 56 45.828125 52.96875 
Q 50 49.953125 52 44.1875 
z
" id="DejaVuSans-6d"/>
      <path d="M 56.203125 29.59375 
L 56.203125 25.203125 
L 14.890625 25.203125 
Q 15.484375 15.921875 20.484375 11.0625 
Q 25.484375 6.203125 34.421875 6.203125 
Q 39.59375 6.203125 44.453125 7.46875 
Q 49.3125 8.734375 54.109375 11.28125 
L 54.109375 2.78125 
Q 49.265625 0.734375 44.1875 -0.34375 
Q 39.109375 -1.421875 33.890625 -1.421875 
Q 20.796875 -1.421875 13.15625 6.1875 
Q 5.515625 13.8125 5.515625 26.8125 
Q 5.515625 40.234375 12.765625 48.109375 
Q 20.015625 56 32.328125 56 
Q 43.359375 56 49.78125 48.890625 
Q 56.203125 41.796875 56.203125 29.59375 
z
M 47.21875 32.234375 
Q 47.125 39.59375 43.09375 43.984375 
Q 39.0625 48.390625 32.421875 48.390625 
Q 24.90625 48.390625 20.390625 44.140625 
Q 15.875 39.890625 15.1875 32.171875 
z
" id="DejaVuSans-65"/>
      <path id="DejaVuSans-20"/>
      <path d="M 18.3125 70.21875 
L 18.3125 54.6875 
L 36.8125 54.6875 
L 36.8125 47.703125 
L 18.3125 47.703125 
L 18.3125 18.015625 
Q 18.3125 11.328125 20.140625 9.421875 
Q 21.96875 7.515625 27.59375 7.515625 
L 36.8125 7.515625 
L 36.8125 0 
L 27.59375 0 
Q 17.1875 0 13.234375 3.875 
Q 9.28125 7.765625 9.28125 18.015625 
L 9.28125 47.703125 
L 2.6875 47.703125 
L 2.6875 54.6875 
L 9.28125 54.6875 
L 9.28125 70.21875 
z
" id="DejaVuSans-74"/>
      <path d="M 48.78125 52.59375 
L 48.78125 44.1875 
Q 44.96875 46.296875 41.140625 47.34375 
Q 37.3125 48.390625 33.40625 48.390625 
Q 24.65625 48.390625 19.8125 42.84375 
Q 14.984375 37.3125 14.984375 27.296875 
Q 14.984375 17.28125 19.8125 11.734375 
Q 24.65625 6.203125 33.40625 6.203125 
Q 37.3125 6.203125 41.140625 7.25 
Q 44.96875 8.296875 48.78125 10.40625 
L 48.78125 2.09375 
Q 45.015625 0.34375 40.984375 -0.53125 
Q 36.96875 -1.421875 32.421875 -1.421875 
Q 20.0625 -1.421875 12.78125 6.34375 
Q 5.515625 14.109375 5.515625 27.296875 
Q 5.515625 40.671875 12.859375 48.328125 
Q 20.21875 56 33.015625 56 
Q 37.15625 56 41.109375 55.140625 
Q 45.0625 54.296875 48.78125 52.59375 
z
" id="DejaVuSans-63"/>
      <path d="M 34.28125 27.484375 
Q 23.390625 27.484375 19.1875 25 
Q 14.984375 22.515625 14.984375 16.5 
Q 14.984375 11.71875 18.140625 8.90625 
Q 21.296875 6.109375 26.703125 6.109375 
Q 34.1875 6.109375 38.703125 11.40625 
Q 43.21875 16.703125 43.21875 25.484375 
L 43.21875 27.484375 
z
M 52.203125 31.203125 
L 52.203125 0 
L 43.21875 0 
L 43.21875 8.296875 
Q 40.140625 3.328125 35.546875 0.953125 
Q 30.953125 -1.421875 24.3125 -1.421875 
Q 15.921875 -1.421875 10.953125 3.296875 
Q 6 8.015625 6 15.921875 
Q 6 25.140625 12.171875 29.828125 
Q 18.359375 34.515625 30.609375 34.515625 
L 43.21875 34.515625 
L 43.21875 35.40625 
Q 43.21875 41.609375 39.140625 45 
Q 35.0625 48.390625 27.6875 48.390625 
Q 23 48.390625 18.546875 47.265625 
Q 14.109375 46.140625 10.015625 43.890625 
L 10.015625 52.203125 
Q 14.9375 54.109375 19.578125 55.046875 
Q 24.21875 56 28.609375 56 
Q 40.484375 56 46.34375 49.84375 
Q 52.203125 43.703125 52.203125 31.203125 
z
" id="DejaVuSans-61"/>
      <path d="M 54.890625 33.015625 
L 54.890625 0 
L 45.90625 0 
L 45.90625 32.71875 
Q 45.90625 40.484375 42.875 44.328125 
Q 39.84375 48.1875 33.796875 48.1875 
Q 26.515625 48.1875 22.3125 43.546875 
Q 18.109375 38.921875 18.109375 30.90625 
L 18.109375 0 
L 9.078125 0 
L 9.078125 54.6875 
L 18.109375 54.6875 
L 18.109375 46.1875 
Q 21.34375 51.125 25.703125 53.5625 
Q 30.078125 56 35.796875 56 
Q 45.21875 56 50.046875 50.171875 
Q 54.890625 44.34375 54.890625 33.015625 
z
" id="DejaVuSans-6e"/>
      <path d="M 41.109375 46.296875 
Q 39.59375 47.171875 37.8125 47.578125 
Q 36.03125 48 33.890625 48 
Q 26.265625 48 22.1875 43.046875 
Q 18.109375 38.09375 18.109375 28.8125 
L 18.109375 0 
L 9.078125 0 
L 9.078125 54.6875 
L 18.109375 54.6875 
L 18.109375 46.1875 
Q 20.953125 51.171875 25.484375 53.578125 
Q 30.03125 56 36.53125 56 
Q 37.453125 56 38.578125 55.875 
Q 39.703125 55.765625 41.0625 55.515625 
z
" id="DejaVuSans-72"/>
     </defs>
     <g style="fill:#262626;" transform="translate(18.3245 271.628167)rotate(-90)scale(0.096 -0.096)">
      <use xlink:href="#DejaVuSans-54"/>
      <use x="61.037109" xlink:href="#DejaVuSans-69"/>
      <use x="88.820312" xlink:href="#DejaVuSans-6d"/>
      <use x="186.232422" xlink:href="#DejaVuSans-65"/>
      <use x="247.755859" xlink:href="#DejaVuSans-20"/>
      <use x="279.542969" xlink:href="#DejaVuSans-74"/>
      <use x="318.751953" xlink:href="#DejaVuSans-6f"/>
      <use x="379.933594" xlink:href="#DejaVuSans-20"/>
      <use x="411.720703" xlink:href="#DejaVuSans-63"/>
      <use x="466.701172" xlink:href="#DejaVuSans-61"/>
      <use x="527.980469" xlink:href="#DejaVuSans-6e"/>
      <use x="591.359375" xlink:href="#DejaVuSans-63"/>
      <use x="646.339844" xlink:href="#DejaVuSans-65"/>
      <use x="707.863281" xlink:href="#DejaVuSans-72"/>
     </g>
    </g>
   </g>
   <g id="PathCollection_1">
    <defs>
     <path d="M 0 2.4 
C 0.636487 2.4 1.246992 2.147121 1.697056 1.697056 
C 2.147121 1.246992 2.4 0.636487 2.4 0 
C 2.4 -0.636487 2.147121 -1.246992 1.697056 -1.697056 
C 1.246992 -2.147121 0.636487 -2.4 0 -2.4 
C -0.636487 -2.4 -1.246992 -2.147121 -1.697056 -1.697056 
C -2.147121 -1.246992 -2.4 -0.636487 -2.4 0 
C -2.4 0.636487 -2.147121 1.246992 -1.697056 1.697056 
C -1.246992 2.147121 -0.636487 2.4 0 2.4 
z
" id="m12dd08d4fd" style="stroke:#471365;stroke-opacity:0.8;"/>
    </defs>
    <g clip-path="url(#pb28e2e7e29)">
     <use style="fill:#471365;fill-opacity:0.8;stroke:#471365;stroke-opacity:0.8;" x="225.980046" xlink:href="#m12dd08d4fd" y="109.935797"/>
     <use style="fill:#471365;fill-opacity:0.8;stroke:#471365;stroke-opacity:0.8;" x="244.191797" xlink:href="#m12dd08d4fd" y="161.597663"/>
     <use style="fill:#471365;fill-opacity:0.8;stroke:#471365;stroke-opacity:0.8;" x="262.593795" xlink:href="#m12dd08d4fd" y="140.3351"/>
     <use style="fill:#471365;fill-opacity:0.8;stroke:#471365;stroke-opacity:0.8;" x="232.061265" xlink:href="#m12dd08d4fd" y="130.158344"/>
     <use style="fill:#471365;fill-opacity:0.8;stroke:#471365;stroke-opacity:0.8;" x="253.012641" xlink:href="#m12dd08d4fd" y="162.17545"/>
     <use style="fill:#471365;fill-opacity:0.8;stroke:#471365;stroke-opacity:0.8;" x="130.184374" xlink:href="#m12dd08d4fd" y="116.507162"/>
     <use style="fill:#471365;fill-opacity:0.8;stroke:#471365;stroke-opacity:0.8;" x="233.854473" xlink:href="#m12dd08d4fd" y="135.335316"/>
     <use style="fill:#471365;fill-opacity:0.8;stroke:#471365;stroke-opacity:0.8;" x="159.299648" xlink:href="#m12dd08d4fd" y="140.905183"/>
     <use style="fill:#471365;fill-opacity:0.8;stroke:#471365;stroke-opacity:0.8;" x="208.972113" xlink:href="#m12dd08d4fd" y="140.843552"/>
     <use style="fill:#471365;fill-opacity:0.8;stroke:#471365;stroke-opacity:0.8;" x="280.28018" xlink:href="#m12dd08d4fd" y="115.097362"/>
     <use style="fill:#471365;fill-opacity:0.8;stroke:#471365;stroke-opacity:0.8;" x="191.72405" xlink:href="#m12dd08d4fd" y="135.643469"/>
     <use style="fill:#471365;fill-opacity:0.8;stroke:#471365;stroke-opacity:0.8;" x="258.875047" xlink:href="#m12dd08d4fd" y="173.831341"/>
     <use style="fill:#471365;fill-opacity:0.8;stroke:#471365;stroke-opacity:0.8;" x="272.802932" xlink:href="#m12dd08d4fd" y="117.123468"/>
     <use style="fill:#471365;fill-opacity:0.8;stroke:#471365;stroke-opacity:0.8;" x="227.579376" xlink:href="#m12dd08d4fd" y="125.94435"/>
     <use style="fill:#471365;fill-opacity:0.8;stroke:#471365;stroke-opacity:0.8;" x="208.189037" xlink:href="#m12dd08d4fd" y="122.56237"/>
     <use style="fill:#471365;fill-opacity:0.8;stroke:#471365;stroke-opacity:0.8;" x="265.497169" xlink:href="#m12dd08d4fd" y="157.999976"/>
     <use style="fill:#471365;fill-opacity:0.8;stroke:#471365;stroke-opacity:0.8;" x="256.127338" xlink:href="#m12dd08d4fd" y="190.525535"/>
     <use style="fill:#471365;fill-opacity:0.8;stroke:#471365;stroke-opacity:0.8;" x="240.295188" xlink:href="#m12dd08d4fd" y="127.39267"/>
     <use style="fill:#471365;fill-opacity:0.8;stroke:#471365;stroke-opacity:0.8;" x="286.496931" xlink:href="#m12dd08d4fd" y="179.763288"/>
     <use style="fill:#471365;fill-opacity:0.8;stroke:#471365;stroke-opacity:0.8;" x="288.643858" xlink:href="#m12dd08d4fd" y="120.705748"/>
     <use style="fill:#471365;fill-opacity:0.8;stroke:#471365;stroke-opacity:0.8;" x="226.485858" xlink:href="#m12dd08d4fd" y="141.459859"/>
     <use style="fill:#471365;fill-opacity:0.8;stroke:#471365;stroke-opacity:0.8;" x="221.170577" xlink:href="#m12dd08d4fd" y="123.694833"/>
     <use style="fill:#471365;fill-opacity:0.8;stroke:#471365;stroke-opacity:0.8;" x="163.168372" xlink:href="#m12dd08d4fd" y="123.425199"/>
     <use style="fill:#471365;fill-opacity:0.8;stroke:#471365;stroke-opacity:0.8;" x="269.97639" xlink:href="#m12dd08d4fd" y="123.610091"/>
     <use style="fill:#471365;fill-opacity:0.8;stroke:#471365;stroke-opacity:0.8;" x="215.894579" xlink:href="#m12dd08d4fd" y="156.382172"/>
     <use style="fill:#471365;fill-opacity:0.8;stroke:#471365;stroke-opacity:0.8;" x="220.798268" xlink:href="#m12dd08d4fd" y="120.120257"/>
     <use style="fill:#471365;fill-opacity:0.8;stroke:#471365;stroke-opacity:0.8;" x="284.364454" xlink:href="#m12dd08d4fd" y="116.199009"/>
     <use style="fill:#471365;fill-opacity:0.8;stroke:#471365;stroke-opacity:0.8;" x="264.56243" xlink:href="#m12dd08d4fd" y="162.213969"/>
     <use style="fill:#471365;fill-opacity:0.8;stroke:#471365;stroke-opacity:0.8;" x="275.691764" xlink:href="#m12dd08d4fd" y="163.454286"/>
     <use style="fill:#471365;fill-opacity:0.8;stroke:#471365;stroke-opacity:0.8;" x="171.149642" xlink:href="#m12dd08d4fd" y="129.372554"/>
     <use style="fill:#471365;fill-opacity:0.8;stroke:#471365;stroke-opacity:0.8;" x="250.262977" xlink:href="#m12dd08d4fd" y="193.175651"/>
     <use style="fill:#471365;fill-opacity:0.8;stroke:#471365;stroke-opacity:0.8;" x="264.073692" xlink:href="#m12dd08d4fd" y="160.696315"/>
     <use style="fill:#471365;fill-opacity:0.8;stroke:#471365;stroke-opacity:0.8;" x="261.719355" xlink:href="#m12dd08d4fd" y="132.207562"/>
     <use style="fill:#471365;fill-opacity:0.8;stroke:#471365;stroke-opacity:0.8;" x="265.969083" xlink:href="#m12dd08d4fd" y="159.31733"/>
     <use style="fill:#471365;fill-opacity:0.8;stroke:#471365;stroke-opacity:0.8;" x="217.121457" xlink:href="#m12dd08d4fd" y="140.612438"/>
     <use style="fill:#471365;fill-opacity:0.8;stroke:#471365;stroke-opacity:0.8;" x="236.159436" xlink:href="#m12dd08d4fd" y="115.767595"/>
     <use style="fill:#471365;fill-opacity:0.8;stroke:#471365;stroke-opacity:0.8;" x="223.128134" xlink:href="#m12dd08d4fd" y="174.647947"/>
     <use style="fill:#471365;fill-opacity:0.8;stroke:#471365;stroke-opacity:0.8;" x="283.07699" xlink:href="#m12dd08d4fd" y="161.643886"/>
     <use style="fill:#471365;fill-opacity:0.8;stroke:#471365;stroke-opacity:0.8;" x="250.670662" xlink:href="#m12dd08d4fd" y="135.558727"/>
     <use style="fill:#471365;fill-opacity:0.8;stroke:#471365;stroke-opacity:0.8;" x="240.200392" xlink:href="#m12dd08d4fd" y="113.687561"/>
     <use style="fill:#471365;fill-opacity:0.8;stroke:#471365;stroke-opacity:0.8;" x="246.691285" xlink:href="#m12dd08d4fd" y="171.851457"/>
     <use style="fill:#471365;fill-opacity:0.8;stroke:#471365;stroke-opacity:0.8;" x="224.320738" xlink:href="#m12dd08d4fd" y="113.787711"/>
     <use style="fill:#471365;fill-opacity:0.8;stroke:#471365;stroke-opacity:0.8;" x="262.898242" xlink:href="#m12dd08d4fd" y="158.200275"/>
     <use style="fill:#471365;fill-opacity:0.8;stroke:#471365;stroke-opacity:0.8;" x="254.603226" xlink:href="#m12dd08d4fd" y="149.803104"/>
     <use style="fill:#471365;fill-opacity:0.8;stroke:#471365;stroke-opacity:0.8;" x="284.886132" xlink:href="#m12dd08d4fd" y="137.238161"/>
     <use style="fill:#471365;fill-opacity:0.8;stroke:#471365;stroke-opacity:0.8;" x="208.190735" xlink:href="#m12dd08d4fd" y="161.928928"/>
     <use style="fill:#471365;fill-opacity:0.8;stroke:#471365;stroke-opacity:0.8;" x="221.92231" xlink:href="#m12dd08d4fd" y="162.244785"/>
     <use style="fill:#471365;fill-opacity:0.8;stroke:#471365;stroke-opacity:0.8;" x="285.668356" xlink:href="#m12dd08d4fd" y="145.06525"/>
     <use style="fill:#471365;fill-opacity:0.8;stroke:#471365;stroke-opacity:0.8;" x="252.098922" xlink:href="#m12dd08d4fd" y="132.415565"/>
     <use style="fill:#471365;fill-opacity:0.8;stroke:#471365;stroke-opacity:0.8;" x="260.85111" xlink:href="#m12dd08d4fd" y="178.415118"/>
     <use style="fill:#471365;fill-opacity:0.8;stroke:#471365;stroke-opacity:0.8;" x="272.293691" xlink:href="#m12dd08d4fd" y="131.167545"/>
     <use style="fill:#471365;fill-opacity:0.8;stroke:#471365;stroke-opacity:0.8;" x="268.634438" xlink:href="#m12dd08d4fd" y="163.069094"/>
     <use style="fill:#471365;fill-opacity:0.8;stroke:#471365;stroke-opacity:0.8;" x="277.844357" xlink:href="#m12dd08d4fd" y="164.941124"/>
     <use style="fill:#471365;fill-opacity:0.8;stroke:#471365;stroke-opacity:0.8;" x="209.613673" xlink:href="#m12dd08d4fd" y="117.30836"/>
     <use style="fill:#471365;fill-opacity:0.8;stroke:#471365;stroke-opacity:0.8;" x="154.857668" xlink:href="#m12dd08d4fd" y="130.042787"/>
     <use style="fill:#471365;fill-opacity:0.8;stroke:#471365;stroke-opacity:0.8;" x="269.904907" xlink:href="#m12dd08d4fd" y="195.425169"/>
     <use style="fill:#471365;fill-opacity:0.8;stroke:#471365;stroke-opacity:0.8;" x="278.9752" xlink:href="#m12dd08d4fd" y="127.931938"/>
     <use style="fill:#471365;fill-opacity:0.8;stroke:#471365;stroke-opacity:0.8;" x="269.545328" xlink:href="#m12dd08d4fd" y="180.695451"/>
     <use style="fill:#471365;fill-opacity:0.8;stroke:#471365;stroke-opacity:0.8;" x="255.953071" xlink:href="#m12dd08d4fd" y="111.33019"/>
     <use style="fill:#471365;fill-opacity:0.8;stroke:#471365;stroke-opacity:0.8;" x="255.797875" xlink:href="#m12dd08d4fd" y="114.9741"/>
     <use style="fill:#471365;fill-opacity:0.8;stroke:#471365;stroke-opacity:0.8;" x="250.182596" xlink:href="#m12dd08d4fd" y="129.703818"/>
     <use style="fill:#471365;fill-opacity:0.8;stroke:#471365;stroke-opacity:0.8;" x="231.262353" xlink:href="#m12dd08d4fd" y="127.469708"/>
     <use style="fill:#471365;fill-opacity:0.8;stroke:#471365;stroke-opacity:0.8;" x="258.412414" xlink:href="#m12dd08d4fd" y="189.993971"/>
     <use style="fill:#471365;fill-opacity:0.8;stroke:#471365;stroke-opacity:0.8;" x="237.703964" xlink:href="#m12dd08d4fd" y="166.628262"/>
     <use style="fill:#471365;fill-opacity:0.8;stroke:#471365;stroke-opacity:0.8;" x="287.991129" xlink:href="#m12dd08d4fd" y="112.11598"/>
     <use style="fill:#471365;fill-opacity:0.8;stroke:#471365;stroke-opacity:0.8;" x="286.369757" xlink:href="#m12dd08d4fd" y="122.030806"/>
     <use style="fill:#471365;fill-opacity:0.8;stroke:#471365;stroke-opacity:0.8;" x="240.860276" xlink:href="#m12dd08d4fd" y="157.483819"/>
     <use style="fill:#471365;fill-opacity:0.8;stroke:#471365;stroke-opacity:0.8;" x="192.610111" xlink:href="#m12dd08d4fd" y="120.829009"/>
     <use style="fill:#471365;fill-opacity:0.8;stroke:#471365;stroke-opacity:0.8;" x="257.567958" xlink:href="#m12dd08d4fd" y="118.417711"/>
     <use style="fill:#471365;fill-opacity:0.8;stroke:#471365;stroke-opacity:0.8;" x="228.894614" xlink:href="#m12dd08d4fd" y="133.432471"/>
     <use style="fill:#471365;fill-opacity:0.8;stroke:#471365;stroke-opacity:0.8;" x="221.655421" xlink:href="#m12dd08d4fd" y="121.583984"/>
     <use style="fill:#471365;fill-opacity:0.8;stroke:#471365;stroke-opacity:0.8;" x="285.477687" xlink:href="#m12dd08d4fd" y="172.028645"/>
     <use style="fill:#471365;fill-opacity:0.8;stroke:#471365;stroke-opacity:0.8;" x="234.501564" xlink:href="#m12dd08d4fd" y="111.484267"/>
     <use style="fill:#471365;fill-opacity:0.8;stroke:#471365;stroke-opacity:0.8;" x="267.285271" xlink:href="#m12dd08d4fd" y="135.751323"/>
     <use style="fill:#471365;fill-opacity:0.8;stroke:#471365;stroke-opacity:0.8;" x="240.950144" xlink:href="#m12dd08d4fd" y="115.505664"/>
     <use style="fill:#471365;fill-opacity:0.8;stroke:#471365;stroke-opacity:0.8;" x="285.188194" xlink:href="#m12dd08d4fd" y="126.66851"/>
     <use style="fill:#471365;fill-opacity:0.8;stroke:#471365;stroke-opacity:0.8;" x="223.176123" xlink:href="#m12dd08d4fd" y="110.5444"/>
     <use style="fill:#471365;fill-opacity:0.8;stroke:#471365;stroke-opacity:0.8;" x="252.165057" xlink:href="#m12dd08d4fd" y="151.081939"/>
     <use style="fill:#471365;fill-opacity:0.8;stroke:#471365;stroke-opacity:0.8;" x="255.124336" xlink:href="#m12dd08d4fd" y="167.213753"/>
     <use style="fill:#471365;fill-opacity:0.8;stroke:#471365;stroke-opacity:0.8;" x="256.272363" xlink:href="#m12dd08d4fd" y="119.496247"/>
     <use style="fill:#471365;fill-opacity:0.8;stroke:#471365;stroke-opacity:0.8;" x="271.534001" xlink:href="#m12dd08d4fd" y="178.808013"/>
     <use style="fill:#471365;fill-opacity:0.8;stroke:#471365;stroke-opacity:0.8;" x="274.079924" xlink:href="#m12dd08d4fd" y="238.142891"/>
     <use style="fill:#471365;fill-opacity:0.8;stroke:#471365;stroke-opacity:0.8;" x="265.663583" xlink:href="#m12dd08d4fd" y="130.543535"/>
     <use style="fill:#471365;fill-opacity:0.8;stroke:#471365;stroke-opacity:0.8;" x="282.83848" xlink:href="#m12dd08d4fd" y="173.684968"/>
     <use style="fill:#471365;fill-opacity:0.8;stroke:#471365;stroke-opacity:0.8;" x="283.528675" xlink:href="#m12dd08d4fd" y="160.642389"/>
     <use style="fill:#471365;fill-opacity:0.8;stroke:#471365;stroke-opacity:0.8;" x="288.638073" xlink:href="#m12dd08d4fd" y="134.403153"/>
     <use style="fill:#471365;fill-opacity:0.8;stroke:#471365;stroke-opacity:0.8;" x="266.282686" xlink:href="#m12dd08d4fd" y="183.515052"/>
     <use style="fill:#471365;fill-opacity:0.8;stroke:#471365;stroke-opacity:0.8;" x="265.803488" xlink:href="#m12dd08d4fd" y="186.049611"/>
     <use style="fill:#471365;fill-opacity:0.8;stroke:#471365;stroke-opacity:0.8;" x="276.403992" xlink:href="#m12dd08d4fd" y="112.177611"/>
     <use style="fill:#471365;fill-opacity:0.8;stroke:#471365;stroke-opacity:0.8;" x="285.50032" xlink:href="#m12dd08d4fd" y="186.789179"/>
     <use style="fill:#471365;fill-opacity:0.8;stroke:#471365;stroke-opacity:0.8;" x="287.234997" xlink:href="#m12dd08d4fd" y="164.109111"/>
     <use style="fill:#471365;fill-opacity:0.8;stroke:#471365;stroke-opacity:0.8;" x="235.108789" xlink:href="#m12dd08d4fd" y="139.788128"/>
     <use style="fill:#471365;fill-opacity:0.8;stroke:#471365;stroke-opacity:0.8;" x="270.650533" xlink:href="#m12dd08d4fd" y="190.309828"/>
     <use style="fill:#471365;fill-opacity:0.8;stroke:#471365;stroke-opacity:0.8;" x="289.496685" xlink:href="#m12dd08d4fd" y="165.39565"/>
     <use style="fill:#471365;fill-opacity:0.8;stroke:#471365;stroke-opacity:0.8;" x="267.564852" xlink:href="#m12dd08d4fd" y="163.408063"/>
     <use style="fill:#471365;fill-opacity:0.8;stroke:#471365;stroke-opacity:0.8;" x="287.549694" xlink:href="#m12dd08d4fd" y="137.384534"/>
     <use style="fill:#471365;fill-opacity:0.8;stroke:#471365;stroke-opacity:0.8;" x="263.096171" xlink:href="#m12dd08d4fd" y="165.526615"/>
     <use style="fill:#471365;fill-opacity:0.8;stroke:#471365;stroke-opacity:0.8;" x="170.025872" xlink:href="#m12dd08d4fd" y="129.280108"/>
     <use style="fill:#471365;fill-opacity:0.8;stroke:#471365;stroke-opacity:0.8;" x="227.363136" xlink:href="#m12dd08d4fd" y="124.965964"/>
     <use style="fill:#471365;fill-opacity:0.8;stroke:#471365;stroke-opacity:0.8;" x="269.787538" xlink:href="#m12dd08d4fd" y="139.603236"/>
     <use style="fill:#471365;fill-opacity:0.8;stroke:#471365;stroke-opacity:0.8;" x="290.246806" xlink:href="#m12dd08d4fd" y="165.688396"/>
     <use style="fill:#471365;fill-opacity:0.8;stroke:#471365;stroke-opacity:0.8;" x="261.727365" xlink:href="#m12dd08d4fd" y="145.273253"/>
     <use style="fill:#471365;fill-opacity:0.8;stroke:#471365;stroke-opacity:0.8;" x="250.420416" xlink:href="#m12dd08d4fd" y="237.29547"/>
     <use style="fill:#471365;fill-opacity:0.8;stroke:#471365;stroke-opacity:0.8;" x="255.620954" xlink:href="#m12dd08d4fd" y="205.00873"/>
     <use style="fill:#471365;fill-opacity:0.8;stroke:#471365;stroke-opacity:0.8;" x="283.421099" xlink:href="#m12dd08d4fd" y="139.595532"/>
     <use style="fill:#471365;fill-opacity:0.8;stroke:#471365;stroke-opacity:0.8;" x="253.464411" xlink:href="#m12dd08d4fd" y="150.172887"/>
     <use style="fill:#471365;fill-opacity:0.8;stroke:#471365;stroke-opacity:0.8;" x="284.483755" xlink:href="#m12dd08d4fd" y="137.507795"/>
     <use style="fill:#471365;fill-opacity:0.8;stroke:#471365;stroke-opacity:0.8;" x="283.771743" xlink:href="#m12dd08d4fd" y="139.826647"/>
     <use style="fill:#471365;fill-opacity:0.8;stroke:#471365;stroke-opacity:0.8;" x="224.123642" xlink:href="#m12dd08d4fd" y="120.112553"/>
     <use style="fill:#471365;fill-opacity:0.8;stroke:#471365;stroke-opacity:0.8;" x="206.472282" xlink:href="#m12dd08d4fd" y="142.777213"/>
     <use style="fill:#471365;fill-opacity:0.8;stroke:#471365;stroke-opacity:0.8;" x="270.687684" xlink:href="#m12dd08d4fd" y="118.610307"/>
     <use style="fill:#471365;fill-opacity:0.8;stroke:#471365;stroke-opacity:0.8;" x="243.099874" xlink:href="#m12dd08d4fd" y="113.525781"/>
     <use style="fill:#471365;fill-opacity:0.8;stroke:#471365;stroke-opacity:0.8;" x="199.868737" xlink:href="#m12dd08d4fd" y="175.063953"/>
     <use style="fill:#471365;fill-opacity:0.8;stroke:#471365;stroke-opacity:0.8;" x="248.394759" xlink:href="#m12dd08d4fd" y="161.428179"/>
     <use style="fill:#471365;fill-opacity:0.8;stroke:#471365;stroke-opacity:0.8;" x="286.107898" xlink:href="#m12dd08d4fd" y="143.408927"/>
     <use style="fill:#471365;fill-opacity:0.8;stroke:#471365;stroke-opacity:0.8;" x="239.101124" xlink:href="#m12dd08d4fd" y="164.802455"/>
     <use style="fill:#471365;fill-opacity:0.8;stroke:#471365;stroke-opacity:0.8;" x="286.477467" xlink:href="#m12dd08d4fd" y="165.218462"/>
     <use style="fill:#471365;fill-opacity:0.8;stroke:#471365;stroke-opacity:0.8;" x="271.544262" xlink:href="#m12dd08d4fd" y="157.38367"/>
     <use style="fill:#471365;fill-opacity:0.8;stroke:#471365;stroke-opacity:0.8;" x="261.111676" xlink:href="#m12dd08d4fd" y="135.728211"/>
     <use style="fill:#471365;fill-opacity:0.8;stroke:#471365;stroke-opacity:0.8;" x="211.625531" xlink:href="#m12dd08d4fd" y="129.649891"/>
     <use style="fill:#471365;fill-opacity:0.8;stroke:#471365;stroke-opacity:0.8;" x="222.588807" xlink:href="#m12dd08d4fd" y="144.649243"/>
     <use style="fill:#471365;fill-opacity:0.8;stroke:#471365;stroke-opacity:0.8;" x="284.829367" xlink:href="#m12dd08d4fd" y="183.075934"/>
     <use style="fill:#471365;fill-opacity:0.8;stroke:#471365;stroke-opacity:0.8;" x="269.584613" xlink:href="#m12dd08d4fd" y="128.856397"/>
     <use style="fill:#471365;fill-opacity:0.8;stroke:#471365;stroke-opacity:0.8;" x="264.833594" xlink:href="#m12dd08d4fd" y="147.545882"/>
     <use style="fill:#471365;fill-opacity:0.8;stroke:#471365;stroke-opacity:0.8;" x="256.641669" xlink:href="#m12dd08d4fd" y="129.973452"/>
     <use style="fill:#471365;fill-opacity:0.8;stroke:#471365;stroke-opacity:0.8;" x="210.506436" xlink:href="#m12dd08d4fd" y="151.459426"/>
     <use style="fill:#471365;fill-opacity:0.8;stroke:#471365;stroke-opacity:0.8;" x="204.447924" xlink:href="#m12dd08d4fd" y="194.770344"/>
     <use style="fill:#471365;fill-opacity:0.8;stroke:#471365;stroke-opacity:0.8;" x="192.804122" xlink:href="#m12dd08d4fd" y="125.381971"/>
     <use style="fill:#471365;fill-opacity:0.8;stroke:#471365;stroke-opacity:0.8;" x="276.54185" xlink:href="#m12dd08d4fd" y="148.863237"/>
     <use style="fill:#471365;fill-opacity:0.8;stroke:#471365;stroke-opacity:0.8;" x="289.7447" xlink:href="#m12dd08d4fd" y="184.647515"/>
     <use style="fill:#471365;fill-opacity:0.8;stroke:#471365;stroke-opacity:0.8;" x="202.250236" xlink:href="#m12dd08d4fd" y="120.143368"/>
     <use style="fill:#471365;fill-opacity:0.8;stroke:#471365;stroke-opacity:0.8;" x="234.827691" xlink:href="#m12dd08d4fd" y="153.570275"/>
     <use style="fill:#471365;fill-opacity:0.8;stroke:#471365;stroke-opacity:0.8;" x="284.655382" xlink:href="#m12dd08d4fd" y="138.231955"/>
     <use style="fill:#471365;fill-opacity:0.8;stroke:#471365;stroke-opacity:0.8;" x="258.951309" xlink:href="#m12dd08d4fd" y="168.523404"/>
     <use style="fill:#471365;fill-opacity:0.8;stroke:#471365;stroke-opacity:0.8;" x="225.862593" xlink:href="#m12dd08d4fd" y="125.089226"/>
     <use style="fill:#471365;fill-opacity:0.8;stroke:#471365;stroke-opacity:0.8;" x="274.415984" xlink:href="#m12dd08d4fd" y="167.961025"/>
     <use style="fill:#471365;fill-opacity:0.8;stroke:#471365;stroke-opacity:0.8;" x="111.439527" xlink:href="#m12dd08d4fd" y="122.269625"/>
     <use style="fill:#471365;fill-opacity:0.8;stroke:#471365;stroke-opacity:0.8;" x="212.970907" xlink:href="#m12dd08d4fd" y="181.142273"/>
     <use style="fill:#471365;fill-opacity:0.8;stroke:#471365;stroke-opacity:0.8;" x="255.315024" xlink:href="#m12dd08d4fd" y="115.051139"/>
     <use style="fill:#471365;fill-opacity:0.8;stroke:#471365;stroke-opacity:0.8;" x="231.538771" xlink:href="#m12dd08d4fd" y="110.998925"/>
     <use style="fill:#471365;fill-opacity:0.8;stroke:#471365;stroke-opacity:0.8;" x="290.186826" xlink:href="#m12dd08d4fd" y="120.682636"/>
     <use style="fill:#471365;fill-opacity:0.8;stroke:#471365;stroke-opacity:0.8;" x="205.192591" xlink:href="#m12dd08d4fd" y="116.430124"/>
     <use style="fill:#471365;fill-opacity:0.8;stroke:#471365;stroke-opacity:0.8;" x="288.333212" xlink:href="#m12dd08d4fd" y="134.788344"/>
     <use style="fill:#471365;fill-opacity:0.8;stroke:#471365;stroke-opacity:0.8;" x="239.616184" xlink:href="#m12dd08d4fd" y="115.23603"/>
     <use style="fill:#471365;fill-opacity:0.8;stroke:#471365;stroke-opacity:0.8;" x="125.10473" xlink:href="#m12dd08d4fd" y="119.788992"/>
     <use style="fill:#471365;fill-opacity:0.8;stroke:#471365;stroke-opacity:0.8;" x="162.104371" xlink:href="#m12dd08d4fd" y="141.205632"/>
     <use style="fill:#471365;fill-opacity:0.8;stroke:#471365;stroke-opacity:0.8;" x="265.876954" xlink:href="#m12dd08d4fd" y="186.134353"/>
     <use style="fill:#471365;fill-opacity:0.8;stroke:#471365;stroke-opacity:0.8;" x="270.426076" xlink:href="#m12dd08d4fd" y="124.580773"/>
     <use style="fill:#471365;fill-opacity:0.8;stroke:#471365;stroke-opacity:0.8;" x="227.64348" xlink:href="#m12dd08d4fd" y="134.087296"/>
     <use style="fill:#471365;fill-opacity:0.8;stroke:#471365;stroke-opacity:0.8;" x="266.599508" xlink:href="#m12dd08d4fd" y="150.912455"/>
     <use style="fill:#471365;fill-opacity:0.8;stroke:#471365;stroke-opacity:0.8;" x="184.870687" xlink:href="#m12dd08d4fd" y="120.543967"/>
     <use style="fill:#471365;fill-opacity:0.8;stroke:#471365;stroke-opacity:0.8;" x="284.231741" xlink:href="#m12dd08d4fd" y="205.524887"/>
     <use style="fill:#471365;fill-opacity:0.8;stroke:#471365;stroke-opacity:0.8;" x="278.846844" xlink:href="#m12dd08d4fd" y="114.380906"/>
     <use style="fill:#471365;fill-opacity:0.8;stroke:#471365;stroke-opacity:0.8;" x="190.320687" xlink:href="#m12dd08d4fd" y="128.918028"/>
     <use style="fill:#471365;fill-opacity:0.8;stroke:#471365;stroke-opacity:0.8;" x="254.333137" xlink:href="#m12dd08d4fd" y="144.741689"/>
     <use style="fill:#471365;fill-opacity:0.8;stroke:#471365;stroke-opacity:0.8;" x="266.928112" xlink:href="#m12dd08d4fd" y="131.275399"/>
     <use style="fill:#471365;fill-opacity:0.8;stroke:#471365;stroke-opacity:0.8;" x="257.375475" xlink:href="#m12dd08d4fd" y="122.631705"/>
     <use style="fill:#471365;fill-opacity:0.8;stroke:#471365;stroke-opacity:0.8;" x="241.535564" xlink:href="#m12dd08d4fd" y="116.68435"/>
     <use style="fill:#471365;fill-opacity:0.8;stroke:#471365;stroke-opacity:0.8;" x="197.916612" xlink:href="#m12dd08d4fd" y="114.997212"/>
     <use style="fill:#471365;fill-opacity:0.8;stroke:#471365;stroke-opacity:0.8;" x="206.919596" xlink:href="#m12dd08d4fd" y="153.547164"/>
     <use style="fill:#471365;fill-opacity:0.8;stroke:#471365;stroke-opacity:0.8;" x="190.623902" xlink:href="#m12dd08d4fd" y="119.372986"/>
     <use style="fill:#471365;fill-opacity:0.8;stroke:#471365;stroke-opacity:0.8;" x="234.75152" xlink:href="#m12dd08d4fd" y="127.315632"/>
     <use style="fill:#471365;fill-opacity:0.8;stroke:#471365;stroke-opacity:0.8;" x="263.406743" xlink:href="#m12dd08d4fd" y="131.29851"/>
     <use style="fill:#471365;fill-opacity:0.8;stroke:#471365;stroke-opacity:0.8;" x="250.971161" xlink:href="#m12dd08d4fd" y="115.259142"/>
     <use style="fill:#471365;fill-opacity:0.8;stroke:#471365;stroke-opacity:0.8;" x="241.081279" xlink:href="#m12dd08d4fd" y="145.696964"/>
     <use style="fill:#471365;fill-opacity:0.8;stroke:#471365;stroke-opacity:0.8;" x="274.42901" xlink:href="#m12dd08d4fd" y="161.782555"/>
     <use style="fill:#471365;fill-opacity:0.8;stroke:#471365;stroke-opacity:0.8;" x="237.844569" xlink:href="#m12dd08d4fd" y="142.661656"/>
     <use style="fill:#471365;fill-opacity:0.8;stroke:#471365;stroke-opacity:0.8;" x="187.800609" xlink:href="#m12dd08d4fd" y="110.50588"/>
     <use style="fill:#471365;fill-opacity:0.8;stroke:#471365;stroke-opacity:0.8;" x="239.199563" xlink:href="#m12dd08d4fd" y="160.588462"/>
     <use style="fill:#471365;fill-opacity:0.8;stroke:#471365;stroke-opacity:0.8;" x="275.23341" xlink:href="#m12dd08d4fd" y="134.549526"/>
     <use style="fill:#471365;fill-opacity:0.8;stroke:#471365;stroke-opacity:0.8;" x="244.797533" xlink:href="#m12dd08d4fd" y="155.658012"/>
     <use style="fill:#471365;fill-opacity:0.8;stroke:#471365;stroke-opacity:0.8;" x="283.986908" xlink:href="#m12dd08d4fd" y="165.172239"/>
     <use style="fill:#471365;fill-opacity:0.8;stroke:#471365;stroke-opacity:0.8;" x="273.475927" xlink:href="#m12dd08d4fd" y="154.332954"/>
     <use style="fill:#471365;fill-opacity:0.8;stroke:#471365;stroke-opacity:0.8;" x="255.50184" xlink:href="#m12dd08d4fd" y="178.49986"/>
     <use style="fill:#471365;fill-opacity:0.8;stroke:#471365;stroke-opacity:0.8;" x="283.528529" xlink:href="#m12dd08d4fd" y="137.330607"/>
     <use style="fill:#471365;fill-opacity:0.8;stroke:#471365;stroke-opacity:0.8;" x="243.639728" xlink:href="#m12dd08d4fd" y="183.106749"/>
     <use style="fill:#471365;fill-opacity:0.8;stroke:#471365;stroke-opacity:0.8;" x="259.995759" xlink:href="#m12dd08d4fd" y="154.610292"/>
     <use style="fill:#471365;fill-opacity:0.8;stroke:#471365;stroke-opacity:0.8;" x="249.26746" xlink:href="#m12dd08d4fd" y="177.81422"/>
     <use style="fill:#471365;fill-opacity:0.8;stroke:#471365;stroke-opacity:0.8;" x="254.637969" xlink:href="#m12dd08d4fd" y="144.495167"/>
     <use style="fill:#471365;fill-opacity:0.8;stroke:#471365;stroke-opacity:0.8;" x="233.015245" xlink:href="#m12dd08d4fd" y="116.745981"/>
     <use style="fill:#471365;fill-opacity:0.8;stroke:#471365;stroke-opacity:0.8;" x="269.984796" xlink:href="#m12dd08d4fd" y="111.715381"/>
     <use style="fill:#471365;fill-opacity:0.8;stroke:#471365;stroke-opacity:0.8;" x="259.785962" xlink:href="#m12dd08d4fd" y="120.181888"/>
     <use style="fill:#471365;fill-opacity:0.8;stroke:#471365;stroke-opacity:0.8;" x="180.113562" xlink:href="#m12dd08d4fd" y="145.966598"/>
     <use style="fill:#471365;fill-opacity:0.8;stroke:#471365;stroke-opacity:0.8;" x="274.130323" xlink:href="#m12dd08d4fd" y="167.868579"/>
     <use style="fill:#471365;fill-opacity:0.8;stroke:#471365;stroke-opacity:0.8;" x="223.850114" xlink:href="#m12dd08d4fd" y="153.978578"/>
     <use style="fill:#471365;fill-opacity:0.8;stroke:#471365;stroke-opacity:0.8;" x="272.632165" xlink:href="#m12dd08d4fd" y="125.674716"/>
     <use style="fill:#471365;fill-opacity:0.8;stroke:#471365;stroke-opacity:0.8;" x="280.065929" xlink:href="#m12dd08d4fd" y="133.940923"/>
     <use style="fill:#471365;fill-opacity:0.8;stroke:#471365;stroke-opacity:0.8;" x="251.662863" xlink:href="#m12dd08d4fd" y="145.288661"/>
     <use style="fill:#471365;fill-opacity:0.8;stroke:#471365;stroke-opacity:0.8;" x="279.360803" xlink:href="#m12dd08d4fd" y="142.499875"/>
     <use style="fill:#471365;fill-opacity:0.8;stroke:#471365;stroke-opacity:0.8;" x="220.777738" xlink:href="#m12dd08d4fd" y="121.345165"/>
     <use style="fill:#471365;fill-opacity:0.8;stroke:#471365;stroke-opacity:0.8;" x="248.808421" xlink:href="#m12dd08d4fd" y="133.879293"/>
     <use style="fill:#471365;fill-opacity:0.8;stroke:#471365;stroke-opacity:0.8;" x="248.332566" xlink:href="#m12dd08d4fd" y="159.925933"/>
     <use style="fill:#471365;fill-opacity:0.8;stroke:#471365;stroke-opacity:0.8;" x="276.269241" xlink:href="#m12dd08d4fd" y="154.879926"/>
     <use style="fill:#471365;fill-opacity:0.8;stroke:#471365;stroke-opacity:0.8;" x="213.846411" xlink:href="#m12dd08d4fd" y="121.961472"/>
     <use style="fill:#471365;fill-opacity:0.8;stroke:#471365;stroke-opacity:0.8;" x="168.38726" xlink:href="#m12dd08d4fd" y="125.435898"/>
     <use style="fill:#471365;fill-opacity:0.8;stroke:#471365;stroke-opacity:0.8;" x="195.428453" xlink:href="#m12dd08d4fd" y="119.565581"/>
     <use style="fill:#471365;fill-opacity:0.8;stroke:#471365;stroke-opacity:0.8;" x="212.695165" xlink:href="#m12dd08d4fd" y="132.038078"/>
     <use style="fill:#471365;fill-opacity:0.8;stroke:#471365;stroke-opacity:0.8;" x="284.126513" xlink:href="#m12dd08d4fd" y="118.725864"/>
     <use style="fill:#471365;fill-opacity:0.8;stroke:#471365;stroke-opacity:0.8;" x="209.850368" xlink:href="#m12dd08d4fd" y="133.216763"/>
     <use style="fill:#471365;fill-opacity:0.8;stroke:#471365;stroke-opacity:0.8;" x="264.810149" xlink:href="#m12dd08d4fd" y="201.203039"/>
     <use style="fill:#471365;fill-opacity:0.8;stroke:#471365;stroke-opacity:0.8;" x="270.593407" xlink:href="#m12dd08d4fd" y="121.175681"/>
     <use style="fill:#471365;fill-opacity:0.8;stroke:#471365;stroke-opacity:0.8;" x="268.414031" xlink:href="#m12dd08d4fd" y="143.81723"/>
     <use style="fill:#471365;fill-opacity:0.8;stroke:#471365;stroke-opacity:0.8;" x="290.193212" xlink:href="#m12dd08d4fd" y="141.590824"/>
     <use style="fill:#471365;fill-opacity:0.8;stroke:#471365;stroke-opacity:0.8;" x="279.370945" xlink:href="#m12dd08d4fd" y="126.298726"/>
     <use style="fill:#471365;fill-opacity:0.8;stroke:#471365;stroke-opacity:0.8;" x="271.964346" xlink:href="#m12dd08d4fd" y="149.672139"/>
     <use style="fill:#471365;fill-opacity:0.8;stroke:#471365;stroke-opacity:0.8;" x="267.23485" xlink:href="#m12dd08d4fd" y="129.334034"/>
     <use style="fill:#471365;fill-opacity:0.8;stroke:#471365;stroke-opacity:0.8;" x="281.927038" xlink:href="#m12dd08d4fd" y="119.619508"/>
     <use style="fill:#471365;fill-opacity:0.8;stroke:#471365;stroke-opacity:0.8;" x="229.716186" xlink:href="#m12dd08d4fd" y="153.631906"/>
     <use style="fill:#471365;fill-opacity:0.8;stroke:#471365;stroke-opacity:0.8;" x="278.080949" xlink:href="#m12dd08d4fd" y="175.341291"/>
     <use style="fill:#471365;fill-opacity:0.8;stroke:#471365;stroke-opacity:0.8;" x="238.436489" xlink:href="#m12dd08d4fd" y="130.605166"/>
    </g>
   </g>
   <g id="PolyCollection_1">
    <defs>
     <path d="M 63.183924 -336.889807 
L 63.183924 -311.212415 
L 65.964919 -310.835789 
L 68.745914 -310.459615 
L 71.526909 -310.094628 
L 74.307903 -309.774509 
L 77.088898 -309.451554 
L 79.869893 -309.097313 
L 82.650888 -308.743073 
L 85.431883 -308.388832 
L 88.212877 -308.034591 
L 90.993872 -307.68035 
L 93.774867 -307.32611 
L 96.555862 -306.971869 
L 99.336857 -306.591874 
L 102.117851 -306.202402 
L 104.898846 -305.855787 
L 107.679841 -305.554906 
L 110.460836 -305.200665 
L 113.241831 -304.844297 
L 116.022825 -304.470324 
L 118.80382 -304.118156 
L 121.584815 -303.769967 
L 124.36581 -303.421778 
L 127.146805 -303.072611 
L 129.927799 -302.717692 
L 132.708794 -302.354955 
L 135.489789 -301.947896 
L 138.270784 -301.540837 
L 141.051779 -301.133778 
L 143.832773 -300.726719 
L 146.613768 -300.348501 
L 149.394763 -299.973177 
L 152.175758 -299.599818 
L 154.956753 -299.250335 
L 157.737747 -298.850185 
L 160.518742 -298.464185 
L 163.299737 -298.052691 
L 166.080732 -297.641197 
L 168.861727 -297.217925 
L 171.642721 -296.763681 
L 174.423716 -296.317453 
L 177.204711 -295.9194 
L 179.985706 -295.580121 
L 182.7667 -295.208342 
L 185.547695 -294.861148 
L 188.32869 -294.515012 
L 191.109685 -294.167781 
L 193.89068 -293.778839 
L 196.671674 -293.463935 
L 199.452669 -293.032136 
L 202.233664 -292.554676 
L 205.014659 -292.127206 
L 207.795654 -291.621238 
L 210.576648 -291.236284 
L 213.357643 -290.896637 
L 216.138638 -290.544826 
L 218.919633 -290.067248 
L 221.700628 -289.543728 
L 224.481622 -288.973441 
L 227.262617 -288.573228 
L 230.043612 -288.07964 
L 232.824607 -287.670982 
L 235.605602 -287.177223 
L 238.386596 -286.641087 
L 241.167591 -285.993214 
L 243.948586 -285.35579 
L 246.729581 -284.75989 
L 249.510576 -284.083001 
L 252.29157 -283.494283 
L 255.072565 -282.886989 
L 257.85356 -282.22178 
L 260.634555 -281.587154 
L 263.41555 -280.894244 
L 266.196544 -280.255675 
L 268.977539 -279.515294 
L 271.758534 -278.832409 
L 274.539529 -278.093627 
L 277.320524 -277.355032 
L 280.101518 -276.640697 
L 282.882513 -275.91102 
L 285.663508 -275.20071 
L 288.444503 -274.47257 
L 291.225498 -273.753095 
L 294.006492 -273.013858 
L 296.787487 -272.296201 
L 299.568482 -271.590764 
L 302.349477 -270.857852 
L 305.130472 -270.096984 
L 307.911466 -269.385991 
L 310.692461 -268.68679 
L 313.473456 -267.987589 
L 316.254451 -267.213322 
L 319.035446 -266.418272 
L 321.81644 -265.67015 
L 324.597435 -264.93909 
L 327.37843 -264.18426 
L 330.159425 -263.379077 
L 332.940419 -262.578621 
L 335.721414 -261.838088 
L 338.502409 -261.099585 
L 338.502409 -278.799837 
L 338.502409 -278.799837 
L 335.721414 -279.07181 
L 332.940419 -279.342034 
L 330.159425 -279.744602 
L 327.37843 -280.048791 
L 324.597435 -280.341966 
L 321.81644 -280.637028 
L 319.035446 -281.011105 
L 316.254451 -281.297198 
L 313.473456 -281.682355 
L 310.692461 -282.115833 
L 307.911466 -282.529585 
L 305.130472 -282.90928 
L 302.349477 -283.288674 
L 299.568482 -283.623781 
L 296.787487 -283.861623 
L 294.006492 -284.169003 
L 291.225498 -284.535962 
L 288.444503 -284.944855 
L 285.663508 -285.383794 
L 282.882513 -285.822512 
L 280.101518 -286.203284 
L 277.320524 -286.602128 
L 274.539529 -286.964726 
L 271.758534 -287.351628 
L 268.977539 -287.737607 
L 266.196544 -288.158406 
L 263.41555 -288.579205 
L 260.634555 -288.983547 
L 257.85356 -289.410406 
L 255.072565 -289.864497 
L 252.29157 -290.29365 
L 249.510576 -290.819602 
L 246.729581 -291.328694 
L 243.948586 -291.768095 
L 241.167591 -292.314939 
L 238.386596 -292.815517 
L 235.605602 -293.274335 
L 232.824607 -293.777214 
L 230.043612 -294.356027 
L 227.262617 -294.949775 
L 224.481622 -295.480128 
L 221.700628 -296.030843 
L 218.919633 -296.493986 
L 216.138638 -297.14092 
L 213.357643 -297.77553 
L 210.576648 -298.427033 
L 207.795654 -299.078537 
L 205.014659 -299.729975 
L 202.233664 -300.412431 
L 199.452669 -301.068991 
L 196.671674 -301.730714 
L 193.89068 -302.40073 
L 191.109685 -303.126755 
L 188.32869 -303.835201 
L 185.547695 -304.519475 
L 182.7667 -305.218015 
L 179.985706 -305.992495 
L 177.204711 -306.6687 
L 174.423716 -307.427965 
L 171.642721 -308.129164 
L 168.861727 -308.854352 
L 166.080732 -309.548509 
L 163.299737 -310.362917 
L 160.518742 -311.009413 
L 157.737747 -311.799811 
L 154.956753 -312.613461 
L 152.175758 -313.370739 
L 149.394763 -314.112986 
L 146.613768 -314.804606 
L 143.832773 -315.494862 
L 141.051779 -316.184885 
L 138.270784 -316.874907 
L 135.489789 -317.564929 
L 132.708794 -318.300742 
L 129.927799 -318.988298 
L 127.146805 -319.686991 
L 124.36581 -320.436246 
L 121.584815 -321.185501 
L 118.80382 -321.945927 
L 116.022825 -322.71787 
L 113.241831 -323.489349 
L 110.460836 -324.260829 
L 107.679841 -325.013519 
L 104.898846 -325.692408 
L 102.117851 -326.469294 
L 99.336857 -327.246968 
L 96.555862 -328.024643 
L 93.774867 -328.802317 
L 90.993872 -329.579991 
L 88.212877 -330.357666 
L 85.431883 -331.133878 
L 82.650888 -331.868195 
L 79.869893 -332.570185 
L 77.088898 -333.272161 
L 74.307903 -333.974137 
L 71.526909 -334.676113 
L 68.745914 -335.394858 
L 65.964919 -336.142332 
L 63.183924 -336.889807 
z
" id="m6b460c5b1d" style="stroke:#ffffff;stroke-opacity:0.15;stroke-width:0.8;"/>
    </defs>
    <g clip-path="url(#pb28e2e7e29)">
     <use style="fill:#471365;fill-opacity:0.15;stroke:#ffffff;stroke-opacity:0.15;stroke-width:0.8;" x="0" xlink:href="#m6b460c5b1d" y="432"/>
    </g>
   </g>
   <g id="line2d_12">
    <path clip-path="url(#pb28e2e7e29)" d="M 63.183924 108.052205 
L 65.964919 108.597836 
L 68.745914 109.143467 
L 71.526909 109.689099 
L 74.307903 110.23473 
L 77.088898 110.780361 
L 79.869893 111.325992 
L 82.650888 111.871623 
L 85.431883 112.417255 
L 88.212877 112.962886 
L 90.993872 113.508517 
L 93.774867 114.054148 
L 96.555862 114.599779 
L 99.336857 115.145411 
L 102.117851 115.691042 
L 104.898846 116.236673 
L 107.679841 116.782304 
L 110.460836 117.327936 
L 113.241831 117.873567 
L 116.022825 118.419198 
L 118.80382 118.964829 
L 121.584815 119.51046 
L 124.36581 120.056092 
L 127.146805 120.601723 
L 129.927799 121.147354 
L 132.708794 121.692985 
L 135.489789 122.238616 
L 138.270784 122.784248 
L 141.051779 123.329879 
L 143.832773 123.87551 
L 146.613768 124.421141 
L 149.394763 124.966772 
L 152.175758 125.512404 
L 154.956753 126.058035 
L 157.737747 126.603666 
L 160.518742 127.149297 
L 163.299737 127.694928 
L 166.080732 128.24056 
L 168.861727 128.786191 
L 171.642721 129.331822 
L 174.423716 129.877453 
L 177.204711 130.423084 
L 179.985706 130.968716 
L 182.7667 131.514347 
L 185.547695 132.059978 
L 188.32869 132.605609 
L 191.109685 133.151241 
L 193.89068 133.696872 
L 196.671674 134.242503 
L 199.452669 134.788134 
L 202.233664 135.333765 
L 205.014659 135.879397 
L 207.795654 136.425028 
L 210.576648 136.970659 
L 213.357643 137.51629 
L 216.138638 138.061921 
L 218.919633 138.607553 
L 221.700628 139.153184 
L 224.481622 139.698815 
L 227.262617 140.244446 
L 230.043612 140.790077 
L 232.824607 141.335709 
L 235.605602 141.88134 
L 238.386596 142.426971 
L 241.167591 142.972602 
L 243.948586 143.518233 
L 246.729581 144.063865 
L 249.510576 144.609496 
L 252.29157 145.155127 
L 255.072565 145.700758 
L 257.85356 146.246389 
L 260.634555 146.792021 
L 263.41555 147.337652 
L 266.196544 147.883283 
L 268.977539 148.428914 
L 271.758534 148.974546 
L 274.539529 149.520177 
L 277.320524 150.065808 
L 280.101518 150.611439 
L 282.882513 151.15707 
L 285.663508 151.702702 
L 288.444503 152.248333 
L 291.225498 152.793964 
L 294.006492 153.339595 
L 296.787487 153.885226 
L 299.568482 154.430858 
L 302.349477 154.976489 
L 305.130472 155.52212 
L 307.911466 156.067751 
L 310.692461 156.613382 
L 313.473456 157.159014 
L 316.254451 157.704645 
L 319.035446 158.250276 
L 321.81644 158.795907 
L 324.597435 159.341538 
L 327.37843 159.88717 
L 330.159425 160.432801 
L 332.940419 160.978432 
L 335.721414 161.524063 
L 338.502409 162.069694 
" style="fill:none;stroke:#471365;stroke-linecap:round;stroke-width:1.8;"/>
   </g>
   <g id="patch_3">
    <path d="M 49.418 390.332 
L 49.418 81.023333 
" style="fill:none;stroke:#262626;stroke-linecap:square;stroke-linejoin:miter;"/>
   </g>
   <g id="patch_4">
    <path d="M 49.418 390.332 
L 352.268333 390.332 
" style="fill:none;stroke:#262626;stroke-linecap:square;stroke-linejoin:miter;"/>
   </g>
   <g id="legend_1">
    <g id="patch_5">
     <path d="M 184.939083 100.980083 
L 346.108333 100.980083 
Q 347.868333 100.980083 347.868333 99.220083 
L 347.868333 87.183333 
Q 347.868333 85.423333 346.108333 85.423333 
L 184.939083 85.423333 
Q 183.179083 85.423333 183.179083 87.183333 
L 183.179083 99.220083 
Q 183.179083 100.980083 184.939083 100.980083 
z
" style="fill:#ffffff;opacity:0.8;stroke:#cccccc;stroke-linejoin:miter;stroke-width:0.8;"/>
    </g>
    <g id="line2d_13"/>
    <g id="line2d_14"/>
    <g id="text_14">
     <!-- pearsonr = -0.27; p = 6.3e-05 -->
     <defs>
      <path d="M 44.28125 53.078125 
L 44.28125 44.578125 
Q 40.484375 46.53125 36.375 47.5 
Q 32.28125 48.484375 27.875 48.484375 
Q 21.1875 48.484375 17.84375 46.4375 
Q 14.5 44.390625 14.5 40.28125 
Q 14.5 37.15625 16.890625 35.375 
Q 19.28125 33.59375 26.515625 31.984375 
L 29.59375 31.296875 
Q 39.15625 29.25 43.1875 25.515625 
Q 47.21875 21.78125 47.21875 15.09375 
Q 47.21875 7.46875 41.1875 3.015625 
Q 35.15625 -1.421875 24.609375 -1.421875 
Q 20.21875 -1.421875 15.453125 -0.5625 
Q 10.6875 0.296875 5.421875 2 
L 5.421875 11.28125 
Q 10.40625 8.6875 15.234375 7.390625 
Q 20.0625 6.109375 24.8125 6.109375 
Q 31.15625 6.109375 34.5625 8.28125 
Q 37.984375 10.453125 37.984375 14.40625 
Q 37.984375 18.0625 35.515625 20.015625 
Q 33.0625 21.96875 24.703125 23.78125 
L 21.578125 24.515625 
Q 13.234375 26.265625 9.515625 29.90625 
Q 5.8125 33.546875 5.8125 39.890625 
Q 5.8125 47.609375 11.28125 51.796875 
Q 16.75 56 26.8125 56 
Q 31.78125 56 36.171875 55.265625 
Q 40.578125 54.546875 44.28125 53.078125 
z
" id="DejaVuSans-73"/>
      <path d="M 10.59375 45.40625 
L 73.1875 45.40625 
L 73.1875 37.203125 
L 10.59375 37.203125 
z
M 10.59375 25.484375 
L 73.1875 25.484375 
L 73.1875 17.1875 
L 10.59375 17.1875 
z
" id="DejaVuSans-3d"/>
      <path d="M 4.890625 31.390625 
L 31.203125 31.390625 
L 31.203125 23.390625 
L 4.890625 23.390625 
z
" id="DejaVuSans-2d"/>
      <path d="M 8.203125 72.90625 
L 55.078125 72.90625 
L 55.078125 68.703125 
L 28.609375 0 
L 18.3125 0 
L 43.21875 64.59375 
L 8.203125 64.59375 
z
" id="DejaVuSans-37"/>
      <path d="M 11.71875 51.703125 
L 22.015625 51.703125 
L 22.015625 39.3125 
L 11.71875 39.3125 
z
M 11.71875 12.40625 
L 22.015625 12.40625 
L 22.015625 4 
L 14.015625 -11.625 
L 7.71875 -11.625 
L 11.71875 4 
z
" id="DejaVuSans-3b"/>
      <path d="M 40.578125 39.3125 
Q 47.65625 37.796875 51.625 33 
Q 55.609375 28.21875 55.609375 21.1875 
Q 55.609375 10.40625 48.1875 4.484375 
Q 40.765625 -1.421875 27.09375 -1.421875 
Q 22.515625 -1.421875 17.65625 -0.515625 
Q 12.796875 0.390625 7.625 2.203125 
L 7.625 11.71875 
Q 11.71875 9.328125 16.59375 8.109375 
Q 21.484375 6.890625 26.8125 6.890625 
Q 36.078125 6.890625 40.9375 10.546875 
Q 45.796875 14.203125 45.796875 21.1875 
Q 45.796875 27.640625 41.28125 31.265625 
Q 36.765625 34.90625 28.71875 34.90625 
L 20.21875 34.90625 
L 20.21875 43.015625 
L 29.109375 43.015625 
Q 36.375 43.015625 40.234375 45.921875 
Q 44.09375 48.828125 44.09375 54.296875 
Q 44.09375 59.90625 40.109375 62.90625 
Q 36.140625 65.921875 28.71875 65.921875 
Q 24.65625 65.921875 20.015625 65.03125 
Q 15.375 64.15625 9.8125 62.3125 
L 9.8125 71.09375 
Q 15.4375 72.65625 20.34375 73.4375 
Q 25.25 74.21875 29.59375 74.21875 
Q 40.828125 74.21875 47.359375 69.109375 
Q 53.90625 64.015625 53.90625 55.328125 
Q 53.90625 49.265625 50.4375 45.09375 
Q 46.96875 40.921875 40.578125 39.3125 
z
" id="DejaVuSans-33"/>
      <path d="M 10.796875 72.90625 
L 49.515625 72.90625 
L 49.515625 64.59375 
L 19.828125 64.59375 
L 19.828125 46.734375 
Q 21.96875 47.46875 24.109375 47.828125 
Q 26.265625 48.1875 28.421875 48.1875 
Q 40.625 48.1875 47.75 41.5 
Q 54.890625 34.8125 54.890625 23.390625 
Q 54.890625 11.625 47.5625 5.09375 
Q 40.234375 -1.421875 26.90625 -1.421875 
Q 22.3125 -1.421875 17.546875 -0.640625 
Q 12.796875 0.140625 7.71875 1.703125 
L 7.71875 11.625 
Q 12.109375 9.234375 16.796875 8.0625 
Q 21.484375 6.890625 26.703125 6.890625 
Q 35.15625 6.890625 40.078125 11.328125 
Q 45.015625 15.765625 45.015625 23.390625 
Q 45.015625 31 40.078125 35.4375 
Q 35.15625 39.890625 26.703125 39.890625 
Q 22.75 39.890625 18.8125 39.015625 
Q 14.890625 38.140625 10.796875 36.28125 
z
" id="DejaVuSans-35"/>
     </defs>
     <g style="fill:#262626;" transform="translate(211.339083 95.629958)scale(0.088 -0.088)">
      <use xlink:href="#DejaVuSans-70"/>
      <use x="63.476562" xlink:href="#DejaVuSans-65"/>
      <use x="125" xlink:href="#DejaVuSans-61"/>
      <use x="186.279297" xlink:href="#DejaVuSans-72"/>
      <use x="227.392578" xlink:href="#DejaVuSans-73"/>
      <use x="279.492188" xlink:href="#DejaVuSans-6f"/>
      <use x="340.673828" xlink:href="#DejaVuSans-6e"/>
      <use x="404.052734" xlink:href="#DejaVuSans-72"/>
      <use x="445.166016" xlink:href="#DejaVuSans-20"/>
      <use x="476.953125" xlink:href="#DejaVuSans-3d"/>
      <use x="560.742188" xlink:href="#DejaVuSans-20"/>
      <use x="592.529297" xlink:href="#DejaVuSans-2d"/>
      <use x="628.613281" xlink:href="#DejaVuSans-30"/>
      <use x="692.236328" xlink:href="#DejaVuSans-2e"/>
      <use x="724.023438" xlink:href="#DejaVuSans-32"/>
      <use x="787.646484" xlink:href="#DejaVuSans-37"/>
      <use x="851.269531" xlink:href="#DejaVuSans-3b"/>
      <use x="884.960938" xlink:href="#DejaVuSans-20"/>
      <use x="916.748047" xlink:href="#DejaVuSans-70"/>
      <use x="980.224609" xlink:href="#DejaVuSans-20"/>
      <use x="1012.011719" xlink:href="#DejaVuSans-3d"/>
      <use x="1095.800781" xlink:href="#DejaVuSans-20"/>
      <use x="1127.587891" xlink:href="#DejaVuSans-36"/>
      <use x="1191.210938" xlink:href="#DejaVuSans-2e"/>
      <use x="1222.998047" xlink:href="#DejaVuSans-33"/>
      <use x="1286.621094" xlink:href="#DejaVuSans-65"/>
      <use x="1348.144531" xlink:href="#DejaVuSans-2d"/>
      <use x="1384.228516" xlink:href="#DejaVuSans-30"/>
      <use x="1447.851562" xlink:href="#DejaVuSans-35"/>
     </g>
    </g>
   </g>
  </g>
  <g id="axes_2">
   <g id="patch_6">
    <path d="M 49.418 61.055333 
L 352.268333 61.055333 
L 352.268333 15.168 
L 49.418 15.168 
z
" style="fill:#ffffff;"/>
   </g>
   <g id="matplotlib.axis_3">
    <g id="xtick_6">
     <g id="line2d_15">
      <g>
       <use style="fill:#262626;stroke:#262626;" x="60.472196" xlink:href="#m33bdde0e78" y="61.055333"/>
      </g>
     </g>
    </g>
    <g id="xtick_7">
     <g id="line2d_16">
      <g>
       <use style="fill:#262626;stroke:#262626;" x="124.375712" xlink:href="#m33bdde0e78" y="61.055333"/>
      </g>
     </g>
    </g>
    <g id="xtick_8">
     <g id="line2d_17">
      <g>
       <use style="fill:#262626;stroke:#262626;" x="188.279228" xlink:href="#m33bdde0e78" y="61.055333"/>
      </g>
     </g>
    </g>
    <g id="xtick_9">
     <g id="line2d_18">
      <g>
       <use style="fill:#262626;stroke:#262626;" x="252.182744" xlink:href="#m33bdde0e78" y="61.055333"/>
      </g>
     </g>
    </g>
    <g id="xtick_10">
     <g id="line2d_19">
      <g>
       <use style="fill:#262626;stroke:#262626;" x="316.08626" xlink:href="#m33bdde0e78" y="61.055333"/>
      </g>
     </g>
    </g>
   </g>
   <g id="matplotlib.axis_4">
    <g id="ytick_7"/>
    <g id="ytick_8"/>
   </g>
   <g id="patch_7">
    <path clip-path="url(#pc7a884b9da)" d="M 111.439527 61.055333 
L 126.340134 61.055333 
L 126.340134 59.195664 
L 111.439527 59.195664 
z
" style="fill:#471365;opacity:0.4;stroke:#ffffff;stroke-linejoin:miter;stroke-width:0.8;"/>
   </g>
   <g id="patch_8">
    <path clip-path="url(#pc7a884b9da)" d="M 126.340134 61.055333 
L 141.24074 61.055333 
L 141.24074 60.125499 
L 126.340134 60.125499 
z
" style="fill:#471365;opacity:0.4;stroke:#ffffff;stroke-linejoin:miter;stroke-width:0.8;"/>
   </g>
   <g id="patch_9">
    <path clip-path="url(#pc7a884b9da)" d="M 141.24074 61.055333 
L 156.141347 61.055333 
L 156.141347 60.125499 
L 141.24074 60.125499 
z
" style="fill:#471365;opacity:0.4;stroke:#ffffff;stroke-linejoin:miter;stroke-width:0.8;"/>
   </g>
   <g id="patch_10">
    <path clip-path="url(#pc7a884b9da)" d="M 156.141347 61.055333 
L 171.041953 61.055333 
L 171.041953 56.406161 
L 156.141347 56.406161 
z
" style="fill:#471365;opacity:0.4;stroke:#ffffff;stroke-linejoin:miter;stroke-width:0.8;"/>
   </g>
   <g id="patch_11">
    <path clip-path="url(#pc7a884b9da)" d="M 171.041953 61.055333 
L 185.94256 61.055333 
L 185.94256 58.26583 
L 171.041953 58.26583 
z
" style="fill:#471365;opacity:0.4;stroke:#ffffff;stroke-linejoin:miter;stroke-width:0.8;"/>
   </g>
   <g id="patch_12">
    <path clip-path="url(#pc7a884b9da)" d="M 185.94256 61.055333 
L 200.843167 61.055333 
L 200.843167 52.686823 
L 185.94256 52.686823 
z
" style="fill:#471365;opacity:0.4;stroke:#ffffff;stroke-linejoin:miter;stroke-width:0.8;"/>
   </g>
   <g id="patch_13">
    <path clip-path="url(#pc7a884b9da)" d="M 200.843167 61.055333 
L 215.743773 61.055333 
L 215.743773 47.107816 
L 200.843167 47.107816 
z
" style="fill:#471365;opacity:0.4;stroke:#ffffff;stroke-linejoin:miter;stroke-width:0.8;"/>
   </g>
   <g id="patch_14">
    <path clip-path="url(#pc7a884b9da)" d="M 215.743773 61.055333 
L 230.64438 61.055333 
L 230.64438 41.528809 
L 215.743773 41.528809 
z
" style="fill:#471365;opacity:0.4;stroke:#ffffff;stroke-linejoin:miter;stroke-width:0.8;"/>
   </g>
   <g id="patch_15">
    <path clip-path="url(#pc7a884b9da)" d="M 230.64438 61.055333 
L 245.544987 61.055333 
L 245.544987 36.879636 
L 230.64438 36.879636 
z
" style="fill:#471365;opacity:0.4;stroke:#ffffff;stroke-linejoin:miter;stroke-width:0.8;"/>
   </g>
   <g id="patch_16">
    <path clip-path="url(#pc7a884b9da)" d="M 245.544987 61.055333 
L 260.445593 61.055333 
L 260.445593 29.44096 
L 245.544987 29.44096 
z
" style="fill:#471365;opacity:0.4;stroke:#ffffff;stroke-linejoin:miter;stroke-width:0.8;"/>
   </g>
   <g id="patch_17">
    <path clip-path="url(#pc7a884b9da)" d="M 260.445593 61.055333 
L 275.3462 61.055333 
L 275.3462 17.353111 
L 260.445593 17.353111 
z
" style="fill:#471365;opacity:0.4;stroke:#ffffff;stroke-linejoin:miter;stroke-width:0.8;"/>
   </g>
   <g id="patch_18">
    <path clip-path="url(#pc7a884b9da)" d="M 275.3462 61.055333 
L 290.246806 61.055333 
L 290.246806 18.282946 
L 275.3462 18.282946 
z
" style="fill:#471365;opacity:0.4;stroke:#ffffff;stroke-linejoin:miter;stroke-width:0.8;"/>
   </g>
   <g id="line2d_20">
    <path clip-path="url(#pc7a884b9da)" d="M 75.698401 61.049977 
L 78.226578 61.045409 
L 80.754755 61.037723 
L 83.282932 61.025392 
L 85.811109 61.006528 
L 88.339286 60.97901 
L 90.867463 60.940718 
L 93.39564 60.889867 
L 95.923818 60.825377 
L 98.451995 60.747192 
L 100.980172 60.656479 
L 103.508349 60.555626 
L 106.036526 60.448083 
L 108.564703 60.338087 
L 111.09288 60.230388 
L 113.621057 60.130016 
L 116.149234 60.042068 
L 118.677411 59.9714 
L 121.205588 59.922086 
L 123.733765 59.89656 
L 126.261943 59.894537 
L 128.79012 59.911974 
L 131.318297 59.940451 
L 133.846474 59.967354 
L 136.374651 59.977053 
L 138.902828 59.953041 
L 141.431005 59.880672 
L 143.959182 59.749977 
L 146.487359 59.557911 
L 149.015536 59.30949 
L 151.543713 59.01745 
L 154.071891 58.700343 
L 156.600068 58.379303 
L 159.128245 58.074022 
L 161.656422 57.798696 
L 164.184599 57.558807 
L 166.712776 57.3495 
L 169.240953 57.156039 
L 171.76913 56.956345 
L 174.297307 56.725095 
L 176.825484 56.438407 
L 179.353661 56.077949 
L 181.881839 55.633458 
L 184.410016 55.103148 
L 186.938193 54.492168 
L 189.46637 53.809851 
L 191.994547 53.066815 
L 194.522724 52.272825 
L 197.050901 51.43585 
L 199.579078 50.562199 
L 202.107255 49.657216 
L 204.635432 48.725985 
L 207.163609 47.773758 
L 209.691786 46.806145 
L 212.219964 45.829299 
L 214.748141 44.850197 
L 217.276318 43.876859 
L 219.804495 42.918051 
L 222.332672 41.982072 
L 224.860849 41.074509 
L 227.389026 40.195378 
L 229.917203 39.336528 
L 232.44538 38.480346 
L 234.973557 37.600622 
L 237.501734 36.6659 
L 240.029912 35.644973 
L 242.558089 34.513531 
L 245.086266 33.260578 
L 247.614443 31.893176 
L 250.14262 30.438396 
L 252.670797 28.942057 
L 255.198974 27.464549 
L 257.727151 26.074761 
L 260.255328 24.843554 
L 262.783505 23.838222 
L 265.311682 23.119061 
L 267.839859 22.738441 
L 270.368037 22.741886 
L 272.896214 23.169723 
L 275.424391 24.057359 
L 277.952568 25.432368 
L 280.480745 27.307675 
L 283.008922 29.671884 
L 285.537099 32.479625 
L 288.065276 35.645779 
L 290.593453 39.047023 
L 293.12163 42.532118 
L 295.649807 45.939566 
L 298.177985 49.118718 
L 300.706162 51.949175 
L 303.234339 54.353921 
L 305.762516 56.303649 
L 308.290693 57.812394 
L 310.81887 58.926828 
L 313.347047 59.712715 
L 315.875224 60.241901 
L 318.403401 60.582212 
L 320.931578 60.791255 
L 323.459755 60.913931 
L 325.987933 60.982719 
" style="fill:none;stroke:#471365;stroke-linecap:round;stroke-width:1.2;"/>
   </g>
   <g id="patch_19">
    <path d="M 49.418 61.055333 
L 352.268333 61.055333 
" style="fill:none;stroke:#262626;stroke-linecap:square;stroke-linejoin:miter;"/>
   </g>
  </g>
  <g id="axes_3">
   <g id="patch_20">
    <path d="M 372.236333 390.332 
L 416.832 390.332 
L 416.832 81.023333 
L 372.236333 81.023333 
z
" style="fill:#ffffff;"/>
   </g>
   <g id="matplotlib.axis_5">
    <g id="xtick_11"/>
    <g id="xtick_12"/>
   </g>
   <g id="matplotlib.axis_6">
    <g id="ytick_9">
     <g id="line2d_21">
      <g>
       <use style="fill:#262626;stroke:#262626;" x="372.236333" xlink:href="#m3900493b76" y="390.332"/>
      </g>
     </g>
    </g>
    <g id="ytick_10">
     <g id="line2d_22">
      <g>
       <use style="fill:#262626;stroke:#262626;" x="372.236333" xlink:href="#m3900493b76" y="334.094061"/>
      </g>
     </g>
    </g>
    <g id="ytick_11">
     <g id="line2d_23">
      <g>
       <use style="fill:#262626;stroke:#262626;" x="372.236333" xlink:href="#m3900493b76" y="277.856121"/>
      </g>
     </g>
    </g>
    <g id="ytick_12">
     <g id="line2d_24">
      <g>
       <use style="fill:#262626;stroke:#262626;" x="372.236333" xlink:href="#m3900493b76" y="221.618182"/>
      </g>
     </g>
    </g>
    <g id="ytick_13">
     <g id="line2d_25">
      <g>
       <use style="fill:#262626;stroke:#262626;" x="372.236333" xlink:href="#m3900493b76" y="165.380242"/>
      </g>
     </g>
    </g>
    <g id="ytick_14">
     <g id="line2d_26">
      <g>
       <use style="fill:#262626;stroke:#262626;" x="372.236333" xlink:href="#m3900493b76" y="109.142303"/>
      </g>
     </g>
    </g>
   </g>
   <g id="patch_21">
    <path clip-path="url(#pfbf9ad58b8)" d="M 372.236333 238.142891 
L 373.869874 238.142891 
L 373.869874 225.322182 
L 372.236333 225.322182 
z
" style="fill:#471365;opacity:0.4;stroke:#ffffff;stroke-linejoin:miter;stroke-width:0.8;"/>
   </g>
   <g id="patch_22">
    <path clip-path="url(#pfbf9ad58b8)" d="M 372.236333 225.322182 
L 372.236333 225.322182 
L 372.236333 212.501473 
L 372.236333 212.501473 
z
" style="fill:#471365;opacity:0.4;stroke:#ffffff;stroke-linejoin:miter;stroke-width:0.8;"/>
   </g>
   <g id="patch_23">
    <path clip-path="url(#pfbf9ad58b8)" d="M 372.236333 212.501473 
L 374.686645 212.501473 
L 374.686645 199.680763 
L 372.236333 199.680763 
z
" style="fill:#471365;opacity:0.4;stroke:#ffffff;stroke-linejoin:miter;stroke-width:0.8;"/>
   </g>
   <g id="patch_24">
    <path clip-path="url(#pfbf9ad58b8)" d="M 372.236333 199.680763 
L 377.136956 199.680763 
L 377.136956 186.860054 
L 372.236333 186.860054 
z
" style="fill:#471365;opacity:0.4;stroke:#ffffff;stroke-linejoin:miter;stroke-width:0.8;"/>
   </g>
   <g id="patch_25">
    <path clip-path="url(#pfbf9ad58b8)" d="M 372.236333 186.860054 
L 386.121431 186.860054 
L 386.121431 174.039344 
L 372.236333 174.039344 
z
" style="fill:#471365;opacity:0.4;stroke:#ffffff;stroke-linejoin:miter;stroke-width:0.8;"/>
   </g>
   <g id="patch_26">
    <path clip-path="url(#pfbf9ad58b8)" d="M 372.236333 174.039344 
L 395.105906 174.039344 
L 395.105906 161.218635 
L 372.236333 161.218635 
z
" style="fill:#471365;opacity:0.4;stroke:#ffffff;stroke-linejoin:miter;stroke-width:0.8;"/>
   </g>
   <g id="patch_27">
    <path clip-path="url(#pfbf9ad58b8)" d="M 372.236333 161.218635 
L 392.655595 161.218635 
L 392.655595 148.397925 
L 372.236333 148.397925 
z
" style="fill:#471365;opacity:0.4;stroke:#ffffff;stroke-linejoin:miter;stroke-width:0.8;"/>
   </g>
   <g id="patch_28">
    <path clip-path="url(#pfbf9ad58b8)" d="M 372.236333 148.397925 
L 399.189758 148.397925 
L 399.189758 135.577216 
L 372.236333 135.577216 
z
" style="fill:#471365;opacity:0.4;stroke:#ffffff;stroke-linejoin:miter;stroke-width:0.8;"/>
   </g>
   <g id="patch_29">
    <path clip-path="url(#pfbf9ad58b8)" d="M 372.236333 135.577216 
L 408.174233 135.577216 
L 408.174233 122.756507 
L 372.236333 122.756507 
z
" style="fill:#471365;opacity:0.4;stroke:#ffffff;stroke-linejoin:miter;stroke-width:0.8;"/>
   </g>
   <g id="patch_30">
    <path clip-path="url(#pfbf9ad58b8)" d="M 372.236333 122.756507 
L 414.708397 122.756507 
L 414.708397 109.935797 
L 372.236333 109.935797 
z
" style="fill:#471365;opacity:0.4;stroke:#ffffff;stroke-linejoin:miter;stroke-width:0.8;"/>
   </g>
   <g id="line2d_27">
    <path clip-path="url(#pfbf9ad58b8)" d="M 372.245935 263.870021 
L 372.254155 262.05526 
L 372.267974 260.240499 
L 372.290063 258.425737 
L 372.323605 256.610976 
L 372.371923 254.796215 
L 372.437831 252.981454 
L 372.522754 251.166693 
L 372.625765 249.351932 
L 372.742799 247.537171 
L 372.866367 245.722409 
L 372.986013 243.907648 
L 373.089622 242.092887 
L 373.165395 240.278126 
L 373.204094 238.463365 
L 373.200983 236.648604 
L 373.156954 234.833843 
L 373.078543 233.019081 
L 372.976861 231.20432 
L 372.865809 229.389559 
L 372.760081 227.574798 
L 372.67347 225.760037 
L 372.617763 223.945276 
L 372.602282 222.130515 
L 372.63387 220.315753 
L 372.717076 218.500992 
L 372.854326 216.686231 
L 373.04605 214.87147 
L 373.29089 213.056709 
L 373.586151 211.241948 
L 373.928607 209.427187 
L 374.315578 207.612425 
L 374.745962 205.797664 
L 375.220842 203.982903 
L 375.743304 202.168142 
L 376.317352 200.353381 
L 376.946127 198.53862 
L 377.629891 196.723859 
L 378.36442 194.909097 
L 379.140357 193.094336 
L 379.943922 191.279575 
L 380.759031 189.464814 
L 381.570591 187.650053 
L 382.368382 185.835292 
L 383.150666 184.020531 
L 383.926477 182.205769 
L 384.715522 180.391008 
L 385.544967 178.576247 
L 386.443062 176.761486 
L 387.430558 174.946725 
L 388.511892 173.131964 
L 389.66877 171.317203 
L 390.858656 169.502441 
L 392.019664 167.68768 
L 393.081545 165.872919 
L 393.980553 164.058158 
L 394.674487 162.243397 
L 395.153867 160.428636 
L 395.446129 158.613875 
L 395.611624 156.799113 
L 395.732485 154.984352 
L 395.897252 153.169591 
L 396.185092 151.35483 
L 396.653171 149.540069 
L 397.329582 147.725308 
L 398.212567 145.910547 
L 399.27514 144.095785 
L 400.473075 142.281024 
L 401.753824 140.466263 
L 403.064117 138.651502 
L 404.354775 136.836741 
L 405.582111 135.02198 
L 406.706186 133.207219 
L 407.686828 131.392457 
L 408.478829 129.577696 
L 409.028003 127.762935 
L 409.269886 125.948174 
L 409.132508 124.133413 
L 408.543891 122.318652 
L 407.443677 120.503891 
L 405.796887 118.689129 
L 403.606655 116.874368 
L 400.922471 115.059607 
L 397.8411 113.244846 
L 394.498993 111.430085 
L 391.05715 109.615324 
L 387.68132 107.800563 
L 384.521637 105.985802 
L 381.695801 104.17104 
L 379.278817 102.356279 
L 377.300574 100.541518 
L 375.750566 98.726757 
L 374.587669 96.911996 
L 373.752136 95.097235 
L 373.177189 93.282474 
L 372.798277 91.467712 
L 372.559118 89.652951 
L 372.414559 87.83819 
L 372.330885 86.023429 
L 372.28451 84.208668 
" style="fill:none;stroke:#471365;stroke-linecap:round;stroke-width:1.2;"/>
   </g>
   <g id="patch_31">
    <path d="M 372.236333 390.332 
L 372.236333 81.023333 
" style="fill:none;stroke:#262626;stroke-linecap:square;stroke-linejoin:miter;"/>
   </g>
  </g>
 </g>
 <defs>
  <clipPath id="pb28e2e7e29">
   <rect height="309.308667" width="302.850333" x="49.418" y="81.023333"/>
  </clipPath>
  <clipPath id="pc7a884b9da">
   <rect height="45.887333" width="302.850333" x="49.418" y="15.168"/>
  </clipPath>
  <clipPath id="pfbf9ad58b8">
   <rect height="309.308667" width="44.595667" x="372.236333" y="81.023333"/>
  </clipPath>
 </defs>
</svg>
