<?xml version="1.0" encoding="utf-8" standalone="no"?>
<!DOCTYPE svg PUBLIC "-//W3C//DTD SVG 1.1//EN"
  "http://www.w3.org/Graphics/SVG/1.1/DTD/svg11.dtd">
<!-- Created with matplotlib (http://matplotlib.org/) -->
<svg height="432pt" version="1.1" viewBox="0 0 432 432" width="432pt" xmlns="http://www.w3.org/2000/svg" xmlns:xlink="http://www.w3.org/1999/xlink">
 <defs>
  <style type="text/css">
*{stroke-linecap:butt;stroke-linejoin:round;}
  </style>
 </defs>
 <g id="figure_1">
  <g id="patch_1">
   <path d="M 0 432 
L 432 432 
L 432 0 
L 0 0 
z
" style="fill:#ffffff;"/>
  </g>
  <g id="axes_1">
   <g id="patch_2">
    <path d="M 49.85 389.9 
L 351.908333 389.9 
L 351.908333 81.383333 
L 49.85 81.383333 
z
" style="fill:#ffffff;"/>
   </g>
   <g id="matplotlib.axis_1">
    <g id="xtick_1">
     <g id="line2d_1">
      <defs>
       <path d="M 0 0 
L 0 4.8 
" id="m361bfc765b" style="stroke:#262626;"/>
      </defs>
      <g>
       <use style="fill:#262626;stroke:#262626;" x="92.683831" xlink:href="#m361bfc765b" y="389.9"/>
      </g>
     </g>
     <g id="text_1">
      <!-- 2 -->
      <defs>
       <path d="M 19.1875 8.296875 
L 53.609375 8.296875 
L 53.609375 0 
L 7.328125 0 
L 7.328125 8.296875 
Q 12.9375 14.109375 22.625 23.890625 
Q 32.328125 33.6875 34.8125 36.53125 
Q 39.546875 41.84375 41.421875 45.53125 
Q 43.3125 49.21875 43.3125 52.78125 
Q 43.3125 58.59375 39.234375 62.25 
Q 35.15625 65.921875 28.609375 65.921875 
Q 23.96875 65.921875 18.8125 64.3125 
Q 13.671875 62.703125 7.8125 59.421875 
L 7.8125 69.390625 
Q 13.765625 71.78125 18.9375 73 
Q 24.125 74.21875 28.421875 74.21875 
Q 39.75 74.21875 46.484375 68.546875 
Q 53.21875 62.890625 53.21875 53.421875 
Q 53.21875 48.921875 51.53125 44.890625 
Q 49.859375 40.875 45.40625 35.40625 
Q 44.1875 33.984375 37.640625 27.21875 
Q 31.109375 20.453125 19.1875 8.296875 
z
" id="DejaVuSans-32"/>
      </defs>
      <g style="fill:#262626;" transform="translate(89.884331 404.886625)scale(0.088 -0.088)">
       <use xlink:href="#DejaVuSans-32"/>
      </g>
     </g>
    </g>
    <g id="xtick_2">
     <g id="line2d_2">
      <g>
       <use style="fill:#262626;stroke:#262626;" x="139.790361" xlink:href="#m361bfc765b" y="389.9"/>
      </g>
     </g>
     <g id="text_2">
      <!-- 4 -->
      <defs>
       <path d="M 37.796875 64.3125 
L 12.890625 25.390625 
L 37.796875 25.390625 
z
M 35.203125 72.90625 
L 47.609375 72.90625 
L 47.609375 25.390625 
L 58.015625 25.390625 
L 58.015625 17.1875 
L 47.609375 17.1875 
L 47.609375 0 
L 37.796875 0 
L 37.796875 17.1875 
L 4.890625 17.1875 
L 4.890625 26.703125 
z
" id="DejaVuSans-34"/>
      </defs>
      <g style="fill:#262626;" transform="translate(136.990861 404.886625)scale(0.088 -0.088)">
       <use xlink:href="#DejaVuSans-34"/>
      </g>
     </g>
    </g>
    <g id="xtick_3">
     <g id="line2d_3">
      <g>
       <use style="fill:#262626;stroke:#262626;" x="186.896892" xlink:href="#m361bfc765b" y="389.9"/>
      </g>
     </g>
     <g id="text_3">
      <!-- 6 -->
      <defs>
       <path d="M 33.015625 40.375 
Q 26.375 40.375 22.484375 35.828125 
Q 18.609375 31.296875 18.609375 23.390625 
Q 18.609375 15.53125 22.484375 10.953125 
Q 26.375 6.390625 33.015625 6.390625 
Q 39.65625 6.390625 43.53125 10.953125 
Q 47.40625 15.53125 47.40625 23.390625 
Q 47.40625 31.296875 43.53125 35.828125 
Q 39.65625 40.375 33.015625 40.375 
z
M 52.59375 71.296875 
L 52.59375 62.3125 
Q 48.875 64.0625 45.09375 64.984375 
Q 41.3125 65.921875 37.59375 65.921875 
Q 27.828125 65.921875 22.671875 59.328125 
Q 17.53125 52.734375 16.796875 39.40625 
Q 19.671875 43.65625 24.015625 45.921875 
Q 28.375 48.1875 33.59375 48.1875 
Q 44.578125 48.1875 50.953125 41.515625 
Q 57.328125 34.859375 57.328125 23.390625 
Q 57.328125 12.15625 50.6875 5.359375 
Q 44.046875 -1.421875 33.015625 -1.421875 
Q 20.359375 -1.421875 13.671875 8.265625 
Q 6.984375 17.96875 6.984375 36.375 
Q 6.984375 53.65625 15.1875 63.9375 
Q 23.390625 74.21875 37.203125 74.21875 
Q 40.921875 74.21875 44.703125 73.484375 
Q 48.484375 72.75 52.59375 71.296875 
z
" id="DejaVuSans-36"/>
      </defs>
      <g style="fill:#262626;" transform="translate(184.097392 404.886625)scale(0.088 -0.088)">
       <use xlink:href="#DejaVuSans-36"/>
      </g>
     </g>
    </g>
    <g id="xtick_4">
     <g id="line2d_4">
      <g>
       <use style="fill:#262626;stroke:#262626;" x="234.003423" xlink:href="#m361bfc765b" y="389.9"/>
      </g>
     </g>
     <g id="text_4">
      <!-- 8 -->
      <defs>
       <path d="M 31.78125 34.625 
Q 24.75 34.625 20.71875 30.859375 
Q 16.703125 27.09375 16.703125 20.515625 
Q 16.703125 13.921875 20.71875 10.15625 
Q 24.75 6.390625 31.78125 6.390625 
Q 38.8125 6.390625 42.859375 10.171875 
Q 46.921875 13.96875 46.921875 20.515625 
Q 46.921875 27.09375 42.890625 30.859375 
Q 38.875 34.625 31.78125 34.625 
z
M 21.921875 38.8125 
Q 15.578125 40.375 12.03125 44.71875 
Q 8.5 49.078125 8.5 55.328125 
Q 8.5 64.0625 14.71875 69.140625 
Q 20.953125 74.21875 31.78125 74.21875 
Q 42.671875 74.21875 48.875 69.140625 
Q 55.078125 64.0625 55.078125 55.328125 
Q 55.078125 49.078125 51.53125 44.71875 
Q 48 40.375 41.703125 38.8125 
Q 48.828125 37.15625 52.796875 32.3125 
Q 56.78125 27.484375 56.78125 20.515625 
Q 56.78125 9.90625 50.3125 4.234375 
Q 43.84375 -1.421875 31.78125 -1.421875 
Q 19.734375 -1.421875 13.25 4.234375 
Q 6.78125 9.90625 6.78125 20.515625 
Q 6.78125 27.484375 10.78125 32.3125 
Q 14.796875 37.15625 21.921875 38.8125 
z
M 18.3125 54.390625 
Q 18.3125 48.734375 21.84375 45.5625 
Q 25.390625 42.390625 31.78125 42.390625 
Q 38.140625 42.390625 41.71875 45.5625 
Q 45.3125 48.734375 45.3125 54.390625 
Q 45.3125 60.0625 41.71875 63.234375 
Q 38.140625 66.40625 31.78125 66.40625 
Q 25.390625 66.40625 21.84375 63.234375 
Q 18.3125 60.0625 18.3125 54.390625 
z
" id="DejaVuSans-38"/>
      </defs>
      <g style="fill:#262626;" transform="translate(231.203923 404.886625)scale(0.088 -0.088)">
       <use xlink:href="#DejaVuSans-38"/>
      </g>
     </g>
    </g>
    <g id="xtick_5">
     <g id="line2d_5">
      <g>
       <use style="fill:#262626;stroke:#262626;" x="281.109954" xlink:href="#m361bfc765b" y="389.9"/>
      </g>
     </g>
     <g id="text_5">
      <!-- 10 -->
      <defs>
       <path d="M 12.40625 8.296875 
L 28.515625 8.296875 
L 28.515625 63.921875 
L 10.984375 60.40625 
L 10.984375 69.390625 
L 28.421875 72.90625 
L 38.28125 72.90625 
L 38.28125 8.296875 
L 54.390625 8.296875 
L 54.390625 0 
L 12.40625 0 
z
" id="DejaVuSans-31"/>
       <path d="M 31.78125 66.40625 
Q 24.171875 66.40625 20.328125 58.90625 
Q 16.5 51.421875 16.5 36.375 
Q 16.5 21.390625 20.328125 13.890625 
Q 24.171875 6.390625 31.78125 6.390625 
Q 39.453125 6.390625 43.28125 13.890625 
Q 47.125 21.390625 47.125 36.375 
Q 47.125 51.421875 43.28125 58.90625 
Q 39.453125 66.40625 31.78125 66.40625 
z
M 31.78125 74.21875 
Q 44.046875 74.21875 50.515625 64.515625 
Q 56.984375 54.828125 56.984375 36.375 
Q 56.984375 17.96875 50.515625 8.265625 
Q 44.046875 -1.421875 31.78125 -1.421875 
Q 19.53125 -1.421875 13.0625 8.265625 
Q 6.59375 17.96875 6.59375 36.375 
Q 6.59375 54.828125 13.0625 64.515625 
Q 19.53125 74.21875 31.78125 74.21875 
z
" id="DejaVuSans-30"/>
      </defs>
      <g style="fill:#262626;" transform="translate(275.510954 404.886625)scale(0.088 -0.088)">
       <use xlink:href="#DejaVuSans-31"/>
       <use x="63.623047" xlink:href="#DejaVuSans-30"/>
      </g>
     </g>
    </g>
    <g id="xtick_6">
     <g id="line2d_6">
      <g>
       <use style="fill:#262626;stroke:#262626;" x="328.216484" xlink:href="#m361bfc765b" y="389.9"/>
      </g>
     </g>
     <g id="text_6">
      <!-- 12 -->
      <g style="fill:#262626;" transform="translate(322.617484 404.886625)scale(0.088 -0.088)">
       <use xlink:href="#DejaVuSans-31"/>
       <use x="63.623047" xlink:href="#DejaVuSans-32"/>
      </g>
     </g>
    </g>
    <g id="text_7">
     <!-- g(k-1) -->
     <defs>
      <path d="M 45.40625 27.984375 
Q 45.40625 37.75 41.375 43.109375 
Q 37.359375 48.484375 30.078125 48.484375 
Q 22.859375 48.484375 18.828125 43.109375 
Q 14.796875 37.75 14.796875 27.984375 
Q 14.796875 18.265625 18.828125 12.890625 
Q 22.859375 7.515625 30.078125 7.515625 
Q 37.359375 7.515625 41.375 12.890625 
Q 45.40625 18.265625 45.40625 27.984375 
z
M 54.390625 6.78125 
Q 54.390625 -7.171875 48.1875 -13.984375 
Q 42 -20.796875 29.203125 -20.796875 
Q 24.46875 -20.796875 20.265625 -20.09375 
Q 16.0625 -19.390625 12.109375 -17.921875 
L 12.109375 -9.1875 
Q 16.0625 -11.328125 19.921875 -12.34375 
Q 23.78125 -13.375 27.78125 -13.375 
Q 36.625 -13.375 41.015625 -8.765625 
Q 45.40625 -4.15625 45.40625 5.171875 
L 45.40625 9.625 
Q 42.625 4.78125 38.28125 2.390625 
Q 33.9375 0 27.875 0 
Q 17.828125 0 11.671875 7.65625 
Q 5.515625 15.328125 5.515625 27.984375 
Q 5.515625 40.671875 11.671875 48.328125 
Q 17.828125 56 27.875 56 
Q 33.9375 56 38.28125 53.609375 
Q 42.625 51.21875 45.40625 46.390625 
L 45.40625 54.6875 
L 54.390625 54.6875 
z
" id="DejaVuSans-67"/>
      <path d="M 31 75.875 
Q 24.46875 64.65625 21.28125 53.65625 
Q 18.109375 42.671875 18.109375 31.390625 
Q 18.109375 20.125 21.3125 9.0625 
Q 24.515625 -2 31 -13.1875 
L 23.1875 -13.1875 
Q 15.875 -1.703125 12.234375 9.375 
Q 8.59375 20.453125 8.59375 31.390625 
Q 8.59375 42.28125 12.203125 53.3125 
Q 15.828125 64.359375 23.1875 75.875 
z
" id="DejaVuSans-28"/>
      <path d="M 9.078125 75.984375 
L 18.109375 75.984375 
L 18.109375 31.109375 
L 44.921875 54.6875 
L 56.390625 54.6875 
L 27.390625 29.109375 
L 57.625 0 
L 45.90625 0 
L 18.109375 26.703125 
L 18.109375 0 
L 9.078125 0 
z
" id="DejaVuSans-6b"/>
      <path d="M 4.890625 31.390625 
L 31.203125 31.390625 
L 31.203125 23.390625 
L 4.890625 23.390625 
z
" id="DejaVuSans-2d"/>
      <path d="M 8.015625 75.875 
L 15.828125 75.875 
Q 23.140625 64.359375 26.78125 53.3125 
Q 30.421875 42.28125 30.421875 31.390625 
Q 30.421875 20.453125 26.78125 9.375 
Q 23.140625 -1.703125 15.828125 -13.1875 
L 8.015625 -13.1875 
Q 14.5 -2 17.703125 9.0625 
Q 20.90625 20.125 20.90625 31.390625 
Q 20.90625 42.671875 17.703125 53.65625 
Q 14.5 64.65625 8.015625 75.875 
z
" id="DejaVuSans-29"/>
     </defs>
     <g style="fill:#262626;" transform="translate(186.521167 418.01125)scale(0.096 -0.096)">
      <use xlink:href="#DejaVuSans-67"/>
      <use x="63.476562" xlink:href="#DejaVuSans-28"/>
      <use x="102.490234" xlink:href="#DejaVuSans-6b"/>
      <use x="160.400391" xlink:href="#DejaVuSans-2d"/>
      <use x="196.484375" xlink:href="#DejaVuSans-31"/>
      <use x="260.107422" xlink:href="#DejaVuSans-29"/>
     </g>
    </g>
   </g>
   <g id="matplotlib.axis_2">
    <g id="ytick_1">
     <g id="line2d_7">
      <defs>
       <path d="M 0 0 
L -4.8 0 
" id="mb251f77438" style="stroke:#262626;"/>
      </defs>
      <g>
       <use style="fill:#262626;stroke:#262626;" x="49.85" xlink:href="#mb251f77438" y="389.9"/>
      </g>
     </g>
     <g id="text_8">
      <!-- 0 -->
      <g style="fill:#262626;" transform="translate(35.951 393.243313)scale(0.088 -0.088)">
       <use xlink:href="#DejaVuSans-30"/>
      </g>
     </g>
    </g>
    <g id="ytick_2">
     <g id="line2d_8">
      <g>
       <use style="fill:#262626;stroke:#262626;" x="49.85" xlink:href="#mb251f77438" y="333.806061"/>
      </g>
     </g>
     <g id="text_9">
      <!-- 20 -->
      <g style="fill:#262626;" transform="translate(30.352 337.149373)scale(0.088 -0.088)">
       <use xlink:href="#DejaVuSans-32"/>
       <use x="63.623047" xlink:href="#DejaVuSans-30"/>
      </g>
     </g>
    </g>
    <g id="ytick_3">
     <g id="line2d_9">
      <g>
       <use style="fill:#262626;stroke:#262626;" x="49.85" xlink:href="#mb251f77438" y="277.712121"/>
      </g>
     </g>
     <g id="text_10">
      <!-- 40 -->
      <g style="fill:#262626;" transform="translate(30.352 281.055434)scale(0.088 -0.088)">
       <use xlink:href="#DejaVuSans-34"/>
       <use x="63.623047" xlink:href="#DejaVuSans-30"/>
      </g>
     </g>
    </g>
    <g id="ytick_4">
     <g id="line2d_10">
      <g>
       <use style="fill:#262626;stroke:#262626;" x="49.85" xlink:href="#mb251f77438" y="221.618182"/>
      </g>
     </g>
     <g id="text_11">
      <!-- 60 -->
      <g style="fill:#262626;" transform="translate(30.352 224.961494)scale(0.088 -0.088)">
       <use xlink:href="#DejaVuSans-36"/>
       <use x="63.623047" xlink:href="#DejaVuSans-30"/>
      </g>
     </g>
    </g>
    <g id="ytick_5">
     <g id="line2d_11">
      <g>
       <use style="fill:#262626;stroke:#262626;" x="49.85" xlink:href="#mb251f77438" y="165.524242"/>
      </g>
     </g>
     <g id="text_12">
      <!-- 80 -->
      <g style="fill:#262626;" transform="translate(30.352 168.867555)scale(0.088 -0.088)">
       <use xlink:href="#DejaVuSans-38"/>
       <use x="63.623047" xlink:href="#DejaVuSans-30"/>
      </g>
     </g>
    </g>
    <g id="ytick_6">
     <g id="line2d_12">
      <g>
       <use style="fill:#262626;stroke:#262626;" x="49.85" xlink:href="#mb251f77438" y="109.430303"/>
      </g>
     </g>
     <g id="text_13">
      <!-- 100 -->
      <g style="fill:#262626;" transform="translate(24.753 112.773616)scale(0.088 -0.088)">
       <use xlink:href="#DejaVuSans-31"/>
       <use x="63.623047" xlink:href="#DejaVuSans-30"/>
       <use x="127.246094" xlink:href="#DejaVuSans-30"/>
      </g>
     </g>
    </g>
    <g id="text_14">
     <!-- Time to cancer -->
     <defs>
      <path d="M -0.296875 72.90625 
L 61.375 72.90625 
L 61.375 64.59375 
L 35.5 64.59375 
L 35.5 0 
L 25.59375 0 
L 25.59375 64.59375 
L -0.296875 64.59375 
z
" id="DejaVuSans-54"/>
      <path d="M 9.421875 54.6875 
L 18.40625 54.6875 
L 18.40625 0 
L 9.421875 0 
z
M 9.421875 75.984375 
L 18.40625 75.984375 
L 18.40625 64.59375 
L 9.421875 64.59375 
z
" id="DejaVuSans-69"/>
      <path d="M 52 44.1875 
Q 55.375 50.25 60.0625 53.125 
Q 64.75 56 71.09375 56 
Q 79.640625 56 84.28125 50.015625 
Q 88.921875 44.046875 88.921875 33.015625 
L 88.921875 0 
L 79.890625 0 
L 79.890625 32.71875 
Q 79.890625 40.578125 77.09375 44.375 
Q 74.3125 48.1875 68.609375 48.1875 
Q 61.625 48.1875 57.5625 43.546875 
Q 53.515625 38.921875 53.515625 30.90625 
L 53.515625 0 
L 44.484375 0 
L 44.484375 32.71875 
Q 44.484375 40.625 41.703125 44.40625 
Q 38.921875 48.1875 33.109375 48.1875 
Q 26.21875 48.1875 22.15625 43.53125 
Q 18.109375 38.875 18.109375 30.90625 
L 18.109375 0 
L 9.078125 0 
L 9.078125 54.6875 
L 18.109375 54.6875 
L 18.109375 46.1875 
Q 21.1875 51.21875 25.484375 53.609375 
Q 29.78125 56 35.6875 56 
Q 41.65625 56 45.828125 52.96875 
Q 50 49.953125 52 44.1875 
z
" id="DejaVuSans-6d"/>
      <path d="M 56.203125 29.59375 
L 56.203125 25.203125 
L 14.890625 25.203125 
Q 15.484375 15.921875 20.484375 11.0625 
Q 25.484375 6.203125 34.421875 6.203125 
Q 39.59375 6.203125 44.453125 7.46875 
Q 49.3125 8.734375 54.109375 11.28125 
L 54.109375 2.78125 
Q 49.265625 0.734375 44.1875 -0.34375 
Q 39.109375 -1.421875 33.890625 -1.421875 
Q 20.796875 -1.421875 13.15625 6.1875 
Q 5.515625 13.8125 5.515625 26.8125 
Q 5.515625 40.234375 12.765625 48.109375 
Q 20.015625 56 32.328125 56 
Q 43.359375 56 49.78125 48.890625 
Q 56.203125 41.796875 56.203125 29.59375 
z
M 47.21875 32.234375 
Q 47.125 39.59375 43.09375 43.984375 
Q 39.0625 48.390625 32.421875 48.390625 
Q 24.90625 48.390625 20.390625 44.140625 
Q 15.875 39.890625 15.1875 32.171875 
z
" id="DejaVuSans-65"/>
      <path id="DejaVuSans-20"/>
      <path d="M 18.3125 70.21875 
L 18.3125 54.6875 
L 36.8125 54.6875 
L 36.8125 47.703125 
L 18.3125 47.703125 
L 18.3125 18.015625 
Q 18.3125 11.328125 20.140625 9.421875 
Q 21.96875 7.515625 27.59375 7.515625 
L 36.8125 7.515625 
L 36.8125 0 
L 27.59375 0 
Q 17.1875 0 13.234375 3.875 
Q 9.28125 7.765625 9.28125 18.015625 
L 9.28125 47.703125 
L 2.6875 47.703125 
L 2.6875 54.6875 
L 9.28125 54.6875 
L 9.28125 70.21875 
z
" id="DejaVuSans-74"/>
      <path d="M 30.609375 48.390625 
Q 23.390625 48.390625 19.1875 42.75 
Q 14.984375 37.109375 14.984375 27.296875 
Q 14.984375 17.484375 19.15625 11.84375 
Q 23.34375 6.203125 30.609375 6.203125 
Q 37.796875 6.203125 41.984375 11.859375 
Q 46.1875 17.53125 46.1875 27.296875 
Q 46.1875 37.015625 41.984375 42.703125 
Q 37.796875 48.390625 30.609375 48.390625 
z
M 30.609375 56 
Q 42.328125 56 49.015625 48.375 
Q 55.71875 40.765625 55.71875 27.296875 
Q 55.71875 13.875 49.015625 6.21875 
Q 42.328125 -1.421875 30.609375 -1.421875 
Q 18.84375 -1.421875 12.171875 6.21875 
Q 5.515625 13.875 5.515625 27.296875 
Q 5.515625 40.765625 12.171875 48.375 
Q 18.84375 56 30.609375 56 
z
" id="DejaVuSans-6f"/>
      <path d="M 48.78125 52.59375 
L 48.78125 44.1875 
Q 44.96875 46.296875 41.140625 47.34375 
Q 37.3125 48.390625 33.40625 48.390625 
Q 24.65625 48.390625 19.8125 42.84375 
Q 14.984375 37.3125 14.984375 27.296875 
Q 14.984375 17.28125 19.8125 11.734375 
Q 24.65625 6.203125 33.40625 6.203125 
Q 37.3125 6.203125 41.140625 7.25 
Q 44.96875 8.296875 48.78125 10.40625 
L 48.78125 2.09375 
Q 45.015625 0.34375 40.984375 -0.53125 
Q 36.96875 -1.421875 32.421875 -1.421875 
Q 20.0625 -1.421875 12.78125 6.34375 
Q 5.515625 14.109375 5.515625 27.296875 
Q 5.515625 40.671875 12.859375 48.328125 
Q 20.21875 56 33.015625 56 
Q 37.15625 56 41.109375 55.140625 
Q 45.0625 54.296875 48.78125 52.59375 
z
" id="DejaVuSans-63"/>
      <path d="M 34.28125 27.484375 
Q 23.390625 27.484375 19.1875 25 
Q 14.984375 22.515625 14.984375 16.5 
Q 14.984375 11.71875 18.140625 8.90625 
Q 21.296875 6.109375 26.703125 6.109375 
Q 34.1875 6.109375 38.703125 11.40625 
Q 43.21875 16.703125 43.21875 25.484375 
L 43.21875 27.484375 
z
M 52.203125 31.203125 
L 52.203125 0 
L 43.21875 0 
L 43.21875 8.296875 
Q 40.140625 3.328125 35.546875 0.953125 
Q 30.953125 -1.421875 24.3125 -1.421875 
Q 15.921875 -1.421875 10.953125 3.296875 
Q 6 8.015625 6 15.921875 
Q 6 25.140625 12.171875 29.828125 
Q 18.359375 34.515625 30.609375 34.515625 
L 43.21875 34.515625 
L 43.21875 35.40625 
Q 43.21875 41.609375 39.140625 45 
Q 35.0625 48.390625 27.6875 48.390625 
Q 23 48.390625 18.546875 47.265625 
Q 14.109375 46.140625 10.015625 43.890625 
L 10.015625 52.203125 
Q 14.9375 54.109375 19.578125 55.046875 
Q 24.21875 56 28.609375 56 
Q 40.484375 56 46.34375 49.84375 
Q 52.203125 43.703125 52.203125 31.203125 
z
" id="DejaVuSans-61"/>
      <path d="M 54.890625 33.015625 
L 54.890625 0 
L 45.90625 0 
L 45.90625 32.71875 
Q 45.90625 40.484375 42.875 44.328125 
Q 39.84375 48.1875 33.796875 48.1875 
Q 26.515625 48.1875 22.3125 43.546875 
Q 18.109375 38.921875 18.109375 30.90625 
L 18.109375 0 
L 9.078125 0 
L 9.078125 54.6875 
L 18.109375 54.6875 
L 18.109375 46.1875 
Q 21.34375 51.125 25.703125 53.5625 
Q 30.078125 56 35.796875 56 
Q 45.21875 56 50.046875 50.171875 
Q 54.890625 44.34375 54.890625 33.015625 
z
" id="DejaVuSans-6e"/>
      <path d="M 41.109375 46.296875 
Q 39.59375 47.171875 37.8125 47.578125 
Q 36.03125 48 33.890625 48 
Q 26.265625 48 22.1875 43.046875 
Q 18.109375 38.09375 18.109375 28.8125 
L 18.109375 0 
L 9.078125 0 
L 9.078125 54.6875 
L 18.109375 54.6875 
L 18.109375 46.1875 
Q 20.953125 51.171875 25.484375 53.578125 
Q 30.03125 56 36.53125 56 
Q 37.453125 56 38.578125 55.875 
Q 39.703125 55.765625 41.0625 55.515625 
z
" id="DejaVuSans-72"/>
     </defs>
     <g style="fill:#262626;" transform="translate(18.7565 271.592167)rotate(-90)scale(0.096 -0.096)">
      <use xlink:href="#DejaVuSans-54"/>
      <use x="61.037109" xlink:href="#DejaVuSans-69"/>
      <use x="88.820312" xlink:href="#DejaVuSans-6d"/>
      <use x="186.232422" xlink:href="#DejaVuSans-65"/>
      <use x="247.755859" xlink:href="#DejaVuSans-20"/>
      <use x="279.542969" xlink:href="#DejaVuSans-74"/>
      <use x="318.751953" xlink:href="#DejaVuSans-6f"/>
      <use x="379.933594" xlink:href="#DejaVuSans-20"/>
      <use x="411.720703" xlink:href="#DejaVuSans-63"/>
      <use x="466.701172" xlink:href="#DejaVuSans-61"/>
      <use x="527.980469" xlink:href="#DejaVuSans-6e"/>
      <use x="591.359375" xlink:href="#DejaVuSans-63"/>
      <use x="646.339844" xlink:href="#DejaVuSans-65"/>
      <use x="707.863281" xlink:href="#DejaVuSans-72"/>
     </g>
    </g>
   </g>
   <g id="PathCollection_1">
    <defs>
     <path d="M 0 2.4 
C 0.636487 2.4 1.246992 2.147121 1.697056 1.697056 
C 2.147121 1.246992 2.4 0.636487 2.4 0 
C 2.4 -0.636487 2.147121 -1.246992 1.697056 -1.697056 
C 1.246992 -2.147121 0.636487 -2.4 0 -2.4 
C -0.636487 -2.4 -1.246992 -2.147121 -1.697056 -1.697056 
C -2.147121 -1.246992 -2.4 -0.636487 -2.4 0 
C -2.4 0.636487 -2.147121 1.246992 -1.697056 1.697056 
C -1.246992 2.147121 -0.636487 2.4 0 2.4 
z
" id="m7641e63c51" style="stroke:#471365;stroke-opacity:0.8;"/>
    </defs>
    <g clip-path="url(#p3c7cbb0648)">
     <use style="fill:#471365;fill-opacity:0.8;stroke:#471365;stroke-opacity:0.8;" x="181.751702" xlink:href="#m7641e63c51" y="198.489037"/>
     <use style="fill:#471365;fill-opacity:0.8;stroke:#471365;stroke-opacity:0.8;" x="222.780593" xlink:href="#m7641e63c51" y="191.557978"/>
     <use style="fill:#471365;fill-opacity:0.8;stroke:#471365;stroke-opacity:0.8;" x="172.801596" xlink:href="#m7641e63c51" y="215.255746"/>
     <use style="fill:#471365;fill-opacity:0.8;stroke:#471365;stroke-opacity:0.8;" x="156.152649" xlink:href="#m7641e63c51" y="172.462986"/>
     <use style="fill:#471365;fill-opacity:0.8;stroke:#471365;stroke-opacity:0.8;" x="159.745681" xlink:href="#m7641e63c51" y="159.507591"/>
     <use style="fill:#471365;fill-opacity:0.8;stroke:#471365;stroke-opacity:0.8;" x="191.496293" xlink:href="#m7641e63c51" y="197.874309"/>
     <use style="fill:#471365;fill-opacity:0.8;stroke:#471365;stroke-opacity:0.8;" x="163.110177" xlink:href="#m7641e63c51" y="144.807905"/>
     <use style="fill:#471365;fill-opacity:0.8;stroke:#471365;stroke-opacity:0.8;" x="241.644055" xlink:href="#m7641e63c51" y="191.896078"/>
     <use style="fill:#471365;fill-opacity:0.8;stroke:#471365;stroke-opacity:0.8;" x="153.782481" xlink:href="#m7641e63c51" y="166.915065"/>
     <use style="fill:#471365;fill-opacity:0.8;stroke:#471365;stroke-opacity:0.8;" x="169.019129" xlink:href="#m7641e63c51" y="213.058093"/>
     <use style="fill:#471365;fill-opacity:0.8;stroke:#471365;stroke-opacity:0.8;" x="144.272044" xlink:href="#m7641e63c51" y="181.115284"/>
     <use style="fill:#471365;fill-opacity:0.8;stroke:#471365;stroke-opacity:0.8;" x="176.369648" xlink:href="#m7641e63c51" y="191.826921"/>
     <use style="fill:#471365;fill-opacity:0.8;stroke:#471365;stroke-opacity:0.8;" x="201.92472" xlink:href="#m7641e63c51" y="211.521273"/>
     <use style="fill:#471365;fill-opacity:0.8;stroke:#471365;stroke-opacity:0.8;" x="179.409746" xlink:href="#m7641e63c51" y="188.853174"/>
     <use style="fill:#471365;fill-opacity:0.8;stroke:#471365;stroke-opacity:0.8;" x="151.802382" xlink:href="#m7641e63c51" y="119.834576"/>
     <use style="fill:#471365;fill-opacity:0.8;stroke:#471365;stroke-opacity:0.8;" x="276.199681" xlink:href="#m7641e63c51" y="177.457652"/>
     <use style="fill:#471365;fill-opacity:0.8;stroke:#471365;stroke-opacity:0.8;" x="125.704379" xlink:href="#m7641e63c51" y="164.702044"/>
     <use style="fill:#471365;fill-opacity:0.8;stroke:#471365;stroke-opacity:0.8;" x="274.093038" xlink:href="#m7641e63c51" y="215.655319"/>
     <use style="fill:#471365;fill-opacity:0.8;stroke:#471365;stroke-opacity:0.8;" x="184.764674" xlink:href="#m7641e63c51" y="143.440135"/>
     <use style="fill:#471365;fill-opacity:0.8;stroke:#471365;stroke-opacity:0.8;" x="193.781451" xlink:href="#m7641e63c51" y="129.385914"/>
     <use style="fill:#471365;fill-opacity:0.8;stroke:#471365;stroke-opacity:0.8;" x="125.558652" xlink:href="#m7641e63c51" y="151.869594"/>
     <use style="fill:#471365;fill-opacity:0.8;stroke:#471365;stroke-opacity:0.8;" x="152.002622" xlink:href="#m7641e63c51" y="168.697776"/>
     <use style="fill:#471365;fill-opacity:0.8;stroke:#471365;stroke-opacity:0.8;" x="175.929259" xlink:href="#m7641e63c51" y="152.46127"/>
     <use style="fill:#471365;fill-opacity:0.8;stroke:#471365;stroke-opacity:0.8;" x="137.58974" xlink:href="#m7641e63c51" y="157.371411"/>
     <use style="fill:#471365;fill-opacity:0.8;stroke:#471365;stroke-opacity:0.8;" x="198.597916" xlink:href="#m7641e63c51" y="217.461083"/>
     <use style="fill:#471365;fill-opacity:0.8;stroke:#471365;stroke-opacity:0.8;" x="161.567031" xlink:href="#m7641e63c51" y="166.223496"/>
     <use style="fill:#471365;fill-opacity:0.8;stroke:#471365;stroke-opacity:0.8;" x="201.367617" xlink:href="#m7641e63c51" y="216.754146"/>
     <use style="fill:#471365;fill-opacity:0.8;stroke:#471365;stroke-opacity:0.8;" x="159.129292" xlink:href="#m7641e63c51" y="175.006423"/>
     <use style="fill:#471365;fill-opacity:0.8;stroke:#471365;stroke-opacity:0.8;" x="160.051133" xlink:href="#m7641e63c51" y="145.683893"/>
     <use style="fill:#471365;fill-opacity:0.8;stroke:#471365;stroke-opacity:0.8;" x="227.96488" xlink:href="#m7641e63c51" y="272.702087"/>
     <use style="fill:#471365;fill-opacity:0.8;stroke:#471365;stroke-opacity:0.8;" x="164.289931" xlink:href="#m7641e63c51" y="213.995553"/>
     <use style="fill:#471365;fill-opacity:0.8;stroke:#471365;stroke-opacity:0.8;" x="151.440705" xlink:href="#m7641e63c51" y="132.613237"/>
     <use style="fill:#471365;fill-opacity:0.8;stroke:#471365;stroke-opacity:0.8;" x="163.746256" xlink:href="#m7641e63c51" y="168.390412"/>
     <use style="fill:#471365;fill-opacity:0.8;stroke:#471365;stroke-opacity:0.8;" x="174.467288" xlink:href="#m7641e63c51" y="195.776549"/>
     <use style="fill:#471365;fill-opacity:0.8;stroke:#471365;stroke-opacity:0.8;" x="179.849331" xlink:href="#m7641e63c51" y="195.108032"/>
     <use style="fill:#471365;fill-opacity:0.8;stroke:#471365;stroke-opacity:0.8;" x="215.040545" xlink:href="#m7641e63c51" y="226.67432"/>
     <use style="fill:#471365;fill-opacity:0.8;stroke:#471365;stroke-opacity:0.8;" x="147.450852" xlink:href="#m7641e63c51" y="153.990406"/>
     <use style="fill:#471365;fill-opacity:0.8;stroke:#471365;stroke-opacity:0.8;" x="138.745202" xlink:href="#m7641e63c51" y="120.226465"/>
     <use style="fill:#471365;fill-opacity:0.8;stroke:#471365;stroke-opacity:0.8;" x="153.096102" xlink:href="#m7641e63c51" y="133.835009"/>
     <use style="fill:#471365;fill-opacity:0.8;stroke:#471365;stroke-opacity:0.8;" x="246.870875" xlink:href="#m7641e63c51" y="214.072394"/>
     <use style="fill:#471365;fill-opacity:0.8;stroke:#471365;stroke-opacity:0.8;" x="161.038555" xlink:href="#m7641e63c51" y="165.939184"/>
     <use style="fill:#471365;fill-opacity:0.8;stroke:#471365;stroke-opacity:0.8;" x="181.054129" xlink:href="#m7641e63c51" y="175.50589"/>
     <use style="fill:#471365;fill-opacity:0.8;stroke:#471365;stroke-opacity:0.8;" x="160.337107" xlink:href="#m7641e63c51" y="167.783368"/>
    </g>
   </g>
   <g id="PolyCollection_1">
    <defs>
     <path d="M 63.579924 -354.233963 
L 63.579924 -289.13773 
L 66.353646 -288.227495 
L 69.127368 -287.318373 
L 71.90109 -286.410632 
L 74.674813 -285.421808 
L 77.448535 -284.395925 
L 80.222257 -283.370042 
L 82.995979 -282.4609 
L 85.769701 -281.67817 
L 88.543423 -280.812138 
L 91.317145 -279.933883 
L 94.090867 -278.961961 
L 96.864589 -277.990039 
L 99.638311 -277.024114 
L 102.412033 -276.184335 
L 105.185755 -275.376789 
L 107.959477 -274.447781 
L 110.733199 -273.66611 
L 113.506921 -272.757646 
L 116.280644 -271.787003 
L 119.054366 -270.913364 
L 121.828088 -270.077709 
L 124.60181 -269.169634 
L 127.375532 -268.232504 
L 130.149254 -267.216931 
L 132.922976 -266.256033 
L 135.696698 -265.37468 
L 138.47042 -264.375857 
L 141.244142 -263.245751 
L 144.017864 -262.230868 
L 146.791586 -261.000855 
L 149.565308 -259.693965 
L 152.33903 -258.519518 
L 155.112753 -257.547002 
L 157.886475 -256.24358 
L 160.660197 -255.09193 
L 163.433919 -254.027423 
L 166.207641 -252.835201 
L 168.981363 -251.195463 
L 171.755085 -249.456874 
L 174.528807 -247.63537 
L 177.302529 -245.805341 
L 180.076251 -243.796782 
L 182.849973 -241.825412 
L 185.623695 -239.733309 
L 188.397417 -237.419185 
L 191.171139 -235.017305 
L 193.944861 -232.42064 
L 196.718584 -230.096512 
L 199.492306 -227.930072 
L 202.266028 -225.170105 
L 205.03975 -222.420165 
L 207.813472 -219.918868 
L 210.587194 -217.455954 
L 213.360916 -215.170854 
L 216.134638 -212.855489 
L 218.90836 -210.194522 
L 221.682082 -207.534493 
L 224.455804 -205.102985 
L 227.229526 -202.55146 
L 230.003248 -200.230896 
L 232.77697 -197.910834 
L 235.550693 -195.590772 
L 238.324415 -193.27071 
L 241.098137 -190.950647 
L 243.871859 -188.492621 
L 246.645581 -185.962209 
L 249.419303 -183.431798 
L 252.193025 -180.90267 
L 254.966747 -178.374055 
L 257.740469 -175.845441 
L 260.514191 -173.316826 
L 263.287913 -170.788212 
L 266.061635 -168.259597 
L 268.835357 -165.730983 
L 271.609079 -163.202368 
L 274.382801 -160.559629 
L 277.156524 -158.124896 
L 279.930246 -155.501953 
L 282.703968 -152.803692 
L 285.47769 -150.10954 
L 288.251412 -147.435988 
L 291.025134 -144.931449 
L 293.798856 -142.426909 
L 296.572578 -139.92237 
L 299.3463 -137.417831 
L 302.120022 -134.913291 
L 304.893744 -132.408752 
L 307.667466 -129.904212 
L 310.441188 -127.399673 
L 313.21491 -124.896283 
L 315.988633 -122.395798 
L 318.762355 -119.895313 
L 321.536077 -117.394828 
L 324.309799 -114.894343 
L 327.083521 -112.393858 
L 329.857243 -109.893373 
L 332.630965 -107.392888 
L 335.404687 -104.892402 
L 338.178409 -102.391917 
L 338.178409 -206.981049 
L 338.178409 -206.981049 
L 335.404687 -207.857665 
L 332.630965 -208.734282 
L 329.857243 -209.610899 
L 327.083521 -210.487516 
L 324.309799 -211.364133 
L 321.536077 -212.240749 
L 318.762355 -213.117366 
L 315.988633 -213.993983 
L 313.21491 -214.869342 
L 310.441188 -215.744279 
L 307.667466 -216.619216 
L 304.893744 -217.494153 
L 302.120022 -218.36909 
L 299.3463 -219.293219 
L 296.572578 -220.233092 
L 293.798856 -221.172965 
L 291.025134 -222.112839 
L 288.251412 -223.051881 
L 285.47769 -223.982355 
L 282.703968 -224.702803 
L 279.930246 -225.459931 
L 277.156524 -226.324984 
L 274.382801 -227.315606 
L 271.609079 -228.306228 
L 268.835357 -229.295993 
L 266.061635 -230.207406 
L 263.287913 -231.073996 
L 260.514191 -231.940585 
L 257.740469 -232.803417 
L 254.966747 -233.664363 
L 252.193025 -234.52531 
L 249.419303 -235.405423 
L 246.645581 -236.372544 
L 243.871859 -237.266982 
L 241.098137 -238.232423 
L 238.324415 -239.059734 
L 235.550693 -239.887094 
L 232.77697 -240.604869 
L 230.003248 -241.430679 
L 227.229526 -242.417929 
L 224.455804 -243.56411 
L 221.682082 -244.485316 
L 218.90836 -245.42858 
L 216.134638 -246.900626 
L 213.360916 -247.735626 
L 210.587194 -248.598529 
L 207.813472 -249.679845 
L 205.03975 -250.761162 
L 202.266028 -251.735281 
L 199.492306 -252.539415 
L 196.718584 -253.437349 
L 193.944861 -254.51137 
L 191.171139 -255.639525 
L 188.397417 -256.611975 
L 185.623695 -257.883995 
L 182.849973 -258.839583 
L 180.076251 -260.003007 
L 177.302529 -261.253773 
L 174.528807 -262.656975 
L 171.755085 -263.947692 
L 168.981363 -265.199196 
L 166.207641 -266.542335 
L 163.433919 -268.100533 
L 160.660197 -270.0182 
L 157.886475 -272.176863 
L 155.112753 -274.097925 
L 152.33903 -276.435927 
L 149.565308 -278.619866 
L 146.791586 -280.898915 
L 144.017864 -283.16425 
L 141.244142 -285.457327 
L 138.47042 -287.960928 
L 135.696698 -290.221332 
L 132.922976 -292.650136 
L 130.149254 -294.829991 
L 127.375532 -297.217946 
L 124.60181 -299.60414 
L 121.828088 -301.881909 
L 119.054366 -304.158542 
L 116.280644 -306.618069 
L 113.506921 -309.096963 
L 110.733199 -311.409018 
L 107.959477 -313.844019 
L 105.185755 -316.284876 
L 102.412033 -318.507557 
L 99.638311 -320.846969 
L 96.864589 -323.425032 
L 94.090867 -326.003094 
L 91.317145 -328.581157 
L 88.543423 -331.15922 
L 85.769701 -333.737283 
L 82.995979 -336.315346 
L 80.222257 -338.893058 
L 77.448535 -341.458274 
L 74.674813 -343.924692 
L 71.90109 -346.514352 
L 69.127368 -349.072681 
L 66.353646 -351.572567 
L 63.579924 -354.233963 
z
" id="m86df76dc70" style="stroke:#ffffff;stroke-opacity:0.15;stroke-width:0.8;"/>
    </defs>
    <g clip-path="url(#p3c7cbb0648)">
     <use style="fill:#471365;fill-opacity:0.15;stroke:#ffffff;stroke-opacity:0.15;stroke-width:0.8;" x="0" xlink:href="#m86df76dc70" y="432"/>
    </g>
   </g>
   <g id="line2d_13">
    <path clip-path="url(#p3c7cbb0648)" d="M 63.579924 118.720531 
L 66.353646 120.161949 
L 69.127368 121.603368 
L 71.90109 123.044786 
L 74.674813 124.486205 
L 77.448535 125.927623 
L 80.222257 127.369041 
L 82.995979 128.81046 
L 85.769701 130.251878 
L 88.543423 131.693296 
L 91.317145 133.134715 
L 94.090867 134.576133 
L 96.864589 136.017551 
L 99.638311 137.45897 
L 102.412033 138.900388 
L 105.185755 140.341807 
L 107.959477 141.783225 
L 110.733199 143.224643 
L 113.506921 144.666062 
L 116.280644 146.10748 
L 119.054366 147.548898 
L 121.828088 148.990317 
L 124.60181 150.431735 
L 127.375532 151.873153 
L 130.149254 153.314572 
L 132.922976 154.75599 
L 135.696698 156.197408 
L 138.47042 157.638827 
L 141.244142 159.080245 
L 144.017864 160.521664 
L 146.791586 161.963082 
L 149.565308 163.4045 
L 152.33903 164.845919 
L 155.112753 166.287337 
L 157.886475 167.728755 
L 160.660197 169.170174 
L 163.433919 170.611592 
L 166.207641 172.05301 
L 168.981363 173.494429 
L 171.755085 174.935847 
L 174.528807 176.377266 
L 177.302529 177.818684 
L 180.076251 179.260102 
L 182.849973 180.701521 
L 185.623695 182.142939 
L 188.397417 183.584357 
L 191.171139 185.025776 
L 193.944861 186.467194 
L 196.718584 187.908612 
L 199.492306 189.350031 
L 202.266028 190.791449 
L 205.03975 192.232868 
L 207.813472 193.674286 
L 210.587194 195.115704 
L 213.360916 196.557123 
L 216.134638 197.998541 
L 218.90836 199.439959 
L 221.682082 200.881378 
L 224.455804 202.322796 
L 227.229526 203.764214 
L 230.003248 205.205633 
L 232.77697 206.647051 
L 235.550693 208.08847 
L 238.324415 209.529888 
L 241.098137 210.971306 
L 243.871859 212.412725 
L 246.645581 213.854143 
L 249.419303 215.295561 
L 252.193025 216.73698 
L 254.966747 218.178398 
L 257.740469 219.619816 
L 260.514191 221.061235 
L 263.287913 222.502653 
L 266.061635 223.944072 
L 268.835357 225.38549 
L 271.609079 226.826908 
L 274.382801 228.268327 
L 277.156524 229.709745 
L 279.930246 231.151163 
L 282.703968 232.592582 
L 285.47769 234.034 
L 288.251412 235.475418 
L 291.025134 236.916837 
L 293.798856 238.358255 
L 296.572578 239.799674 
L 299.3463 241.241092 
L 302.120022 242.68251 
L 304.893744 244.123929 
L 307.667466 245.565347 
L 310.441188 247.006765 
L 313.21491 248.448184 
L 315.988633 249.889602 
L 318.762355 251.33102 
L 321.536077 252.772439 
L 324.309799 254.213857 
L 327.083521 255.655276 
L 329.857243 257.096694 
L 332.630965 258.538112 
L 335.404687 259.979531 
L 338.178409 261.420949 
" style="fill:none;stroke:#471365;stroke-linecap:round;stroke-width:1.8;"/>
   </g>
   <g id="patch_3">
    <path d="M 49.85 389.9 
L 49.85 81.383333 
" style="fill:none;stroke:#262626;stroke-linecap:square;stroke-linejoin:miter;"/>
   </g>
   <g id="patch_4">
    <path d="M 49.85 389.9 
L 351.908333 389.9 
" style="fill:none;stroke:#262626;stroke-linecap:square;stroke-linejoin:miter;"/>
   </g>
   <g id="legend_1">
    <g id="patch_5">
     <path d="M 184.579083 101.340083 
L 345.748333 101.340083 
Q 347.508333 101.340083 347.508333 99.580083 
L 347.508333 87.543333 
Q 347.508333 85.783333 345.748333 85.783333 
L 184.579083 85.783333 
Q 182.819083 85.783333 182.819083 87.543333 
L 182.819083 99.580083 
Q 182.819083 101.340083 184.579083 101.340083 
z
" style="fill:#ffffff;opacity:0.8;stroke:#cccccc;stroke-linejoin:miter;stroke-width:0.8;"/>
    </g>
    <g id="line2d_14"/>
    <g id="line2d_15"/>
    <g id="text_15">
     <!-- pearsonr = -0.57; p = 7.4e-05 -->
     <defs>
      <path d="M 18.109375 8.203125 
L 18.109375 -20.796875 
L 9.078125 -20.796875 
L 9.078125 54.6875 
L 18.109375 54.6875 
L 18.109375 46.390625 
Q 20.953125 51.265625 25.265625 53.625 
Q 29.59375 56 35.59375 56 
Q 45.5625 56 51.78125 48.09375 
Q 58.015625 40.1875 58.015625 27.296875 
Q 58.015625 14.40625 51.78125 6.484375 
Q 45.5625 -1.421875 35.59375 -1.421875 
Q 29.59375 -1.421875 25.265625 0.953125 
Q 20.953125 3.328125 18.109375 8.203125 
z
M 48.6875 27.296875 
Q 48.6875 37.203125 44.609375 42.84375 
Q 40.53125 48.484375 33.40625 48.484375 
Q 26.265625 48.484375 22.1875 42.84375 
Q 18.109375 37.203125 18.109375 27.296875 
Q 18.109375 17.390625 22.1875 11.75 
Q 26.265625 6.109375 33.40625 6.109375 
Q 40.53125 6.109375 44.609375 11.75 
Q 48.6875 17.390625 48.6875 27.296875 
z
" id="DejaVuSans-70"/>
      <path d="M 44.28125 53.078125 
L 44.28125 44.578125 
Q 40.484375 46.53125 36.375 47.5 
Q 32.28125 48.484375 27.875 48.484375 
Q 21.1875 48.484375 17.84375 46.4375 
Q 14.5 44.390625 14.5 40.28125 
Q 14.5 37.15625 16.890625 35.375 
Q 19.28125 33.59375 26.515625 31.984375 
L 29.59375 31.296875 
Q 39.15625 29.25 43.1875 25.515625 
Q 47.21875 21.78125 47.21875 15.09375 
Q 47.21875 7.46875 41.1875 3.015625 
Q 35.15625 -1.421875 24.609375 -1.421875 
Q 20.21875 -1.421875 15.453125 -0.5625 
Q 10.6875 0.296875 5.421875 2 
L 5.421875 11.28125 
Q 10.40625 8.6875 15.234375 7.390625 
Q 20.0625 6.109375 24.8125 6.109375 
Q 31.15625 6.109375 34.5625 8.28125 
Q 37.984375 10.453125 37.984375 14.40625 
Q 37.984375 18.0625 35.515625 20.015625 
Q 33.0625 21.96875 24.703125 23.78125 
L 21.578125 24.515625 
Q 13.234375 26.265625 9.515625 29.90625 
Q 5.8125 33.546875 5.8125 39.890625 
Q 5.8125 47.609375 11.28125 51.796875 
Q 16.75 56 26.8125 56 
Q 31.78125 56 36.171875 55.265625 
Q 40.578125 54.546875 44.28125 53.078125 
z
" id="DejaVuSans-73"/>
      <path d="M 10.59375 45.40625 
L 73.1875 45.40625 
L 73.1875 37.203125 
L 10.59375 37.203125 
z
M 10.59375 25.484375 
L 73.1875 25.484375 
L 73.1875 17.1875 
L 10.59375 17.1875 
z
" id="DejaVuSans-3d"/>
      <path d="M 10.6875 12.40625 
L 21 12.40625 
L 21 0 
L 10.6875 0 
z
" id="DejaVuSans-2e"/>
      <path d="M 10.796875 72.90625 
L 49.515625 72.90625 
L 49.515625 64.59375 
L 19.828125 64.59375 
L 19.828125 46.734375 
Q 21.96875 47.46875 24.109375 47.828125 
Q 26.265625 48.1875 28.421875 48.1875 
Q 40.625 48.1875 47.75 41.5 
Q 54.890625 34.8125 54.890625 23.390625 
Q 54.890625 11.625 47.5625 5.09375 
Q 40.234375 -1.421875 26.90625 -1.421875 
Q 22.3125 -1.421875 17.546875 -0.640625 
Q 12.796875 0.140625 7.71875 1.703125 
L 7.71875 11.625 
Q 12.109375 9.234375 16.796875 8.0625 
Q 21.484375 6.890625 26.703125 6.890625 
Q 35.15625 6.890625 40.078125 11.328125 
Q 45.015625 15.765625 45.015625 23.390625 
Q 45.015625 31 40.078125 35.4375 
Q 35.15625 39.890625 26.703125 39.890625 
Q 22.75 39.890625 18.8125 39.015625 
Q 14.890625 38.140625 10.796875 36.28125 
z
" id="DejaVuSans-35"/>
      <path d="M 8.203125 72.90625 
L 55.078125 72.90625 
L 55.078125 68.703125 
L 28.609375 0 
L 18.3125 0 
L 43.21875 64.59375 
L 8.203125 64.59375 
z
" id="DejaVuSans-37"/>
      <path d="M 11.71875 51.703125 
L 22.015625 51.703125 
L 22.015625 39.3125 
L 11.71875 39.3125 
z
M 11.71875 12.40625 
L 22.015625 12.40625 
L 22.015625 4 
L 14.015625 -11.625 
L 7.71875 -11.625 
L 11.71875 4 
z
" id="DejaVuSans-3b"/>
     </defs>
     <g style="fill:#262626;" transform="translate(210.979083 95.989958)scale(0.088 -0.088)">
      <use xlink:href="#DejaVuSans-70"/>
      <use x="63.476562" xlink:href="#DejaVuSans-65"/>
      <use x="125" xlink:href="#DejaVuSans-61"/>
      <use x="186.279297" xlink:href="#DejaVuSans-72"/>
      <use x="227.392578" xlink:href="#DejaVuSans-73"/>
      <use x="279.492188" xlink:href="#DejaVuSans-6f"/>
      <use x="340.673828" xlink:href="#DejaVuSans-6e"/>
      <use x="404.052734" xlink:href="#DejaVuSans-72"/>
      <use x="445.166016" xlink:href="#DejaVuSans-20"/>
      <use x="476.953125" xlink:href="#DejaVuSans-3d"/>
      <use x="560.742188" xlink:href="#DejaVuSans-20"/>
      <use x="592.529297" xlink:href="#DejaVuSans-2d"/>
      <use x="628.613281" xlink:href="#DejaVuSans-30"/>
      <use x="692.236328" xlink:href="#DejaVuSans-2e"/>
      <use x="724.023438" xlink:href="#DejaVuSans-35"/>
      <use x="787.646484" xlink:href="#DejaVuSans-37"/>
      <use x="851.269531" xlink:href="#DejaVuSans-3b"/>
      <use x="884.960938" xlink:href="#DejaVuSans-20"/>
      <use x="916.748047" xlink:href="#DejaVuSans-70"/>
      <use x="980.224609" xlink:href="#DejaVuSans-20"/>
      <use x="1012.011719" xlink:href="#DejaVuSans-3d"/>
      <use x="1095.800781" xlink:href="#DejaVuSans-20"/>
      <use x="1127.587891" xlink:href="#DejaVuSans-37"/>
      <use x="1191.210938" xlink:href="#DejaVuSans-2e"/>
      <use x="1222.998047" xlink:href="#DejaVuSans-34"/>
      <use x="1286.621094" xlink:href="#DejaVuSans-65"/>
      <use x="1348.144531" xlink:href="#DejaVuSans-2d"/>
      <use x="1384.228516" xlink:href="#DejaVuSans-30"/>
      <use x="1447.851562" xlink:href="#DejaVuSans-35"/>
     </g>
    </g>
   </g>
  </g>
  <g id="axes_2">
   <g id="patch_6">
    <path d="M 49.85 60.983333 
L 351.908333 60.983333 
L 351.908333 15.6 
L 49.85 15.6 
z
" style="fill:#ffffff;"/>
   </g>
   <g id="matplotlib.axis_3">
    <g id="xtick_7">
     <g id="line2d_16">
      <g>
       <use style="fill:#262626;stroke:#262626;" x="92.683831" xlink:href="#m361bfc765b" y="60.983333"/>
      </g>
     </g>
    </g>
    <g id="xtick_8">
     <g id="line2d_17">
      <g>
       <use style="fill:#262626;stroke:#262626;" x="139.790361" xlink:href="#m361bfc765b" y="60.983333"/>
      </g>
     </g>
    </g>
    <g id="xtick_9">
     <g id="line2d_18">
      <g>
       <use style="fill:#262626;stroke:#262626;" x="186.896892" xlink:href="#m361bfc765b" y="60.983333"/>
      </g>
     </g>
    </g>
    <g id="xtick_10">
     <g id="line2d_19">
      <g>
       <use style="fill:#262626;stroke:#262626;" x="234.003423" xlink:href="#m361bfc765b" y="60.983333"/>
      </g>
     </g>
    </g>
    <g id="xtick_11">
     <g id="line2d_20">
      <g>
       <use style="fill:#262626;stroke:#262626;" x="281.109954" xlink:href="#m361bfc765b" y="60.983333"/>
      </g>
     </g>
    </g>
    <g id="xtick_12">
     <g id="line2d_21">
      <g>
       <use style="fill:#262626;stroke:#262626;" x="328.216484" xlink:href="#m361bfc765b" y="60.983333"/>
      </g>
     </g>
    </g>
   </g>
   <g id="matplotlib.axis_4">
    <g id="ytick_7"/>
    <g id="ytick_8"/>
   </g>
   <g id="patch_7">
    <path clip-path="url(#p3d12a6466f)" d="M 125.558652 60.983333 
L 144.388781 60.983333 
L 144.388781 45.546825 
L 125.558652 45.546825 
z
" style="fill:#471365;opacity:0.4;stroke:#ffffff;stroke-linejoin:miter;stroke-width:0.8;"/>
   </g>
   <g id="patch_8">
    <path clip-path="url(#p3d12a6466f)" d="M 144.388781 60.983333 
L 163.218909 60.983333 
L 163.218909 17.761111 
L 144.388781 17.761111 
z
" style="fill:#471365;opacity:0.4;stroke:#ffffff;stroke-linejoin:miter;stroke-width:0.8;"/>
   </g>
   <g id="patch_9">
    <path clip-path="url(#p3d12a6466f)" d="M 163.218909 60.983333 
L 182.049038 60.983333 
L 182.049038 27.023016 
L 163.218909 27.023016 
z
" style="fill:#471365;opacity:0.4;stroke:#ffffff;stroke-linejoin:miter;stroke-width:0.8;"/>
   </g>
   <g id="patch_10">
    <path clip-path="url(#p3d12a6466f)" d="M 182.049038 60.983333 
L 200.879167 60.983333 
L 200.879167 48.634127 
L 182.049038 48.634127 
z
" style="fill:#471365;opacity:0.4;stroke:#ffffff;stroke-linejoin:miter;stroke-width:0.8;"/>
   </g>
   <g id="patch_11">
    <path clip-path="url(#p3d12a6466f)" d="M 200.879167 60.983333 
L 219.709295 60.983333 
L 219.709295 51.721429 
L 200.879167 51.721429 
z
" style="fill:#471365;opacity:0.4;stroke:#ffffff;stroke-linejoin:miter;stroke-width:0.8;"/>
   </g>
   <g id="patch_12">
    <path clip-path="url(#p3d12a6466f)" d="M 219.709295 60.983333 
L 238.539424 60.983333 
L 238.539424 54.80873 
L 219.709295 54.80873 
z
" style="fill:#471365;opacity:0.4;stroke:#ffffff;stroke-linejoin:miter;stroke-width:0.8;"/>
   </g>
   <g id="patch_13">
    <path clip-path="url(#p3d12a6466f)" d="M 238.539424 60.983333 
L 257.369553 60.983333 
L 257.369553 54.80873 
L 238.539424 54.80873 
z
" style="fill:#471365;opacity:0.4;stroke:#ffffff;stroke-linejoin:miter;stroke-width:0.8;"/>
   </g>
   <g id="patch_14">
    <path clip-path="url(#p3d12a6466f)" d="M 257.369553 60.983333 
L 276.199681 60.983333 
L 276.199681 54.80873 
L 257.369553 54.80873 
z
" style="fill:#471365;opacity:0.4;stroke:#ffffff;stroke-linejoin:miter;stroke-width:0.8;"/>
   </g>
   <g id="line2d_22">
    <path clip-path="url(#p3d12a6466f)" d="M 76.061674 60.946009 
L 78.583239 60.924783 
L 81.104805 60.893389 
L 83.62637 60.847988 
L 86.147936 60.783767 
L 88.669501 60.694883 
L 91.191067 60.574463 
L 93.712632 60.41468 
L 96.234198 60.2069 
L 98.755763 59.941888 
L 101.277329 59.610062 
L 103.798894 59.201742 
L 106.32046 58.707369 
L 108.842025 58.117665 
L 111.363591 57.42373 
L 113.885156 56.617092 
L 116.406722 55.689776 
L 118.928287 54.634481 
L 121.449853 53.444955 
L 123.971418 52.116666 
L 126.492984 50.647803 
L 129.014549 49.040597 
L 131.536115 47.302821 
L 134.05768 45.449296 
L 136.579246 43.503104 
L 139.100811 41.496248 
L 141.622377 39.469467 
L 144.143943 37.471063 
L 146.665508 35.554703 
L 149.187074 33.776344 
L 151.708639 32.190572 
L 154.230205 30.846771 
L 156.75177 29.785593 
L 159.273336 29.036159 
L 161.794901 28.614314 
L 164.316467 28.5221 
L 166.838032 28.748446 
L 169.359598 29.270868 
L 171.881163 30.057894 
L 174.402729 31.071854 
L 176.924294 32.271668 
L 179.44586 33.615372 
L 181.967425 35.062167 
L 184.488991 36.573927 
L 187.010556 38.116162 
L 189.532122 39.658513 
L 192.053687 41.174898 
L 194.575253 42.643429 
L 197.096818 44.046201 
L 199.618384 45.369059 
L 202.139949 46.601379 
L 204.661515 47.735894 
L 207.18308 48.768559 
L 209.704646 49.698424 
L 212.226211 50.52748 
L 214.747777 51.260429 
L 217.269343 51.904358 
L 219.790908 52.468295 
L 222.312474 52.96266 
L 224.834039 53.398623 
L 227.355605 53.787425 
L 229.87717 54.139685 
L 232.398736 54.464765 
L 234.920301 54.770228 
L 237.441867 55.061442 
L 239.963432 55.341381 
L 242.484998 55.610653 
L 245.006563 55.867801 
L 247.528129 56.109848 
L 250.049694 56.333076 
L 252.57126 56.53395 
L 255.092825 56.710066 
L 257.614391 56.860979 
L 260.135956 56.988779 
L 262.657522 57.098266 
L 265.179087 57.196692 
L 267.700653 57.293063 
L 270.222218 57.397101 
L 272.743784 57.518014 
L 275.265349 57.6633 
L 277.786915 57.837741 
L 280.30848 58.042793 
L 282.830046 58.276422 
L 285.351612 58.533425 
L 287.873177 58.806143 
L 290.394743 59.085441 
L 292.916308 59.361789 
L 295.437874 59.626273 
L 297.959439 59.87141 
L 300.481005 60.091678 
L 303.00257 60.283744 
L 305.524136 60.4464 
L 308.045701 60.580286 
L 310.567267 60.687465 
L 313.088832 60.770959 
L 315.610398 60.834281 
L 318.131963 60.881055 
L 320.653529 60.914718 
L 323.175094 60.938332 
L 325.69666 60.95448 
" style="fill:none;stroke:#471365;stroke-linecap:round;stroke-width:1.2;"/>
   </g>
   <g id="patch_15">
    <path d="M 49.85 60.983333 
L 351.908333 60.983333 
" style="fill:none;stroke:#262626;stroke-linecap:square;stroke-linejoin:miter;"/>
   </g>
  </g>
  <g id="axes_3">
   <g id="patch_16">
    <path d="M 372.308333 389.9 
L 416.4 389.9 
L 416.4 81.383333 
L 372.308333 81.383333 
z
" style="fill:#ffffff;"/>
   </g>
   <g id="matplotlib.axis_5">
    <g id="xtick_13"/>
    <g id="xtick_14"/>
   </g>
   <g id="matplotlib.axis_6">
    <g id="ytick_9">
     <g id="line2d_23">
      <g>
       <use style="fill:#262626;stroke:#262626;" x="372.308333" xlink:href="#mb251f77438" y="389.9"/>
      </g>
     </g>
    </g>
    <g id="ytick_10">
     <g id="line2d_24">
      <g>
       <use style="fill:#262626;stroke:#262626;" x="372.308333" xlink:href="#mb251f77438" y="333.806061"/>
      </g>
     </g>
    </g>
    <g id="ytick_11">
     <g id="line2d_25">
      <g>
       <use style="fill:#262626;stroke:#262626;" x="372.308333" xlink:href="#mb251f77438" y="277.712121"/>
      </g>
     </g>
    </g>
    <g id="ytick_12">
     <g id="line2d_26">
      <g>
       <use style="fill:#262626;stroke:#262626;" x="372.308333" xlink:href="#mb251f77438" y="221.618182"/>
      </g>
     </g>
    </g>
    <g id="ytick_13">
     <g id="line2d_27">
      <g>
       <use style="fill:#262626;stroke:#262626;" x="372.308333" xlink:href="#mb251f77438" y="165.524242"/>
      </g>
     </g>
    </g>
    <g id="ytick_14">
     <g id="line2d_28">
      <g>
       <use style="fill:#262626;stroke:#262626;" x="372.308333" xlink:href="#mb251f77438" y="109.430303"/>
      </g>
     </g>
    </g>
   </g>
   <g id="patch_17">
    <path clip-path="url(#p4b3027e420)" d="M 372.308333 272.702087 
L 375.807672 272.702087 
L 375.807672 250.863871 
L 372.308333 250.863871 
z
" style="fill:#471365;opacity:0.4;stroke:#ffffff;stroke-linejoin:miter;stroke-width:0.8;"/>
   </g>
   <g id="patch_18">
    <path clip-path="url(#p4b3027e420)" d="M 372.308333 250.863871 
L 372.308333 250.863871 
L 372.308333 229.025655 
L 372.308333 229.025655 
z
" style="fill:#471365;opacity:0.4;stroke:#ffffff;stroke-linejoin:miter;stroke-width:0.8;"/>
   </g>
   <g id="patch_19">
    <path clip-path="url(#p4b3027e420)" d="M 372.308333 229.025655 
L 403.802381 229.025655 
L 403.802381 207.18744 
L 372.308333 207.18744 
z
" style="fill:#471365;opacity:0.4;stroke:#ffffff;stroke-linejoin:miter;stroke-width:0.8;"/>
   </g>
   <g id="patch_20">
    <path clip-path="url(#p4b3027e420)" d="M 372.308333 207.18744 
L 400.303042 207.18744 
L 400.303042 185.349224 
L 372.308333 185.349224 
z
" style="fill:#471365;opacity:0.4;stroke:#ffffff;stroke-linejoin:miter;stroke-width:0.8;"/>
   </g>
   <g id="patch_21">
    <path clip-path="url(#p4b3027e420)" d="M 372.308333 185.349224 
L 414.300397 185.349224 
L 414.300397 163.511008 
L 372.308333 163.511008 
z
" style="fill:#471365;opacity:0.4;stroke:#ffffff;stroke-linejoin:miter;stroke-width:0.8;"/>
   </g>
   <g id="patch_22">
    <path clip-path="url(#p4b3027e420)" d="M 372.308333 163.511008 
L 400.303042 163.511008 
L 400.303042 141.672792 
L 372.308333 141.672792 
z
" style="fill:#471365;opacity:0.4;stroke:#ffffff;stroke-linejoin:miter;stroke-width:0.8;"/>
   </g>
   <g id="patch_23">
    <path clip-path="url(#p4b3027e420)" d="M 372.308333 141.672792 
L 389.805026 141.672792 
L 389.805026 119.834576 
L 372.308333 119.834576 
z
" style="fill:#471365;opacity:0.4;stroke:#ffffff;stroke-linejoin:miter;stroke-width:0.8;"/>
   </g>
   <g id="line2d_29">
    <path clip-path="url(#p4b3027e420)" d="M 372.332901 318.083586 
L 372.347398 315.622672 
L 372.368863 313.161758 
L 372.399731 310.700844 
L 372.442817 308.23993 
L 372.501165 305.779015 
L 372.577775 303.318101 
L 372.675216 300.857187 
L 372.795154 298.396273 
L 372.93783 295.935358 
L 373.101578 293.474444 
L 373.282471 291.01353 
L 373.474203 288.552616 
L 373.668293 286.091701 
L 373.854647 283.630787 
L 374.022483 281.169873 
L 374.161532 278.708959 
L 374.26339 276.248044 
L 374.322854 273.78713 
L 374.33907 271.326216 
L 374.316355 268.865302 
L 374.264609 266.404387 
L 374.199289 263.943473 
L 374.141005 261.482559 
L 374.114791 259.021645 
L 374.149145 256.560731 
L 374.274867 254.099816 
L 374.523702 251.638902 
L 374.926727 249.177988 
L 375.512441 246.717074 
L 376.304519 244.256159 
L 377.319307 241.795245 
L 378.563258 239.334331 
L 380.03064 236.873417 
L 381.701967 234.412502 
L 383.543602 231.951588 
L 385.508903 229.490674 
L 387.541072 227.02976 
L 389.57756 224.568845 
L 391.555564 222.107931 
L 393.417887 219.647017 
L 395.118278 217.186103 
L 396.62545 214.725188 
L 397.925175 212.264274 
L 399.020231 209.80336 
L 399.928375 207.342446 
L 400.678857 204.881532 
L 401.308134 202.420617 
L 401.855493 199.959703 
L 402.359064 197.498789 
L 402.852506 195.037875 
L 403.36239 192.57696 
L 403.906182 190.116046 
L 404.49073 187.655132 
L 405.111276 185.194218 
L 405.75114 182.733303 
L 406.382352 180.272389 
L 406.967479 177.811475 
L 407.462717 175.350561 
L 407.822099 172.889646 
L 408.002352 170.428732 
L 407.967741 167.967818 
L 407.694147 165.506904 
L 407.171738 163.045989 
L 406.405832 160.585075 
L 405.415864 158.124161 
L 404.232717 155.663247 
L 402.894913 153.202333 
L 401.444304 150.741418 
L 399.921882 148.280504 
L 398.364246 145.81959 
L 396.801076 143.358676 
L 395.253773 140.897761 
L 393.73529 138.436847 
L 392.250986 135.975933 
L 390.800298 133.515019 
L 389.378933 131.054104 
L 387.981264 128.59319 
L 386.602608 126.132276 
L 385.241108 123.671362 
L 383.898974 121.210447 
L 382.582957 118.749533 
L 381.304025 116.288619 
L 380.076317 113.827705 
L 378.915593 111.36679 
L 377.837424 108.905876 
L 376.855428 106.444962 
L 375.979794 103.984048 
L 375.216314 101.523134 
L 374.565989 99.062219 
L 374.025223 96.601305 
L 373.586494 94.140391 
L 373.23935 91.679477 
L 372.971553 89.218562 
L 372.77019 86.757648 
L 372.622638 84.296734 
L 372.517287 81.83582 
L 372.444003 79.374905 
L 372.394342 76.913991 
L 372.36156 74.453077 
" style="fill:none;stroke:#471365;stroke-linecap:round;stroke-width:1.2;"/>
   </g>
   <g id="patch_24">
    <path d="M 372.308333 389.9 
L 372.308333 81.383333 
" style="fill:none;stroke:#262626;stroke-linecap:square;stroke-linejoin:miter;"/>
   </g>
  </g>
 </g>
 <defs>
  <clipPath id="p3c7cbb0648">
   <rect height="308.516667" width="302.058333" x="49.85" y="81.383333"/>
  </clipPath>
  <clipPath id="p3d12a6466f">
   <rect height="45.383333" width="302.058333" x="49.85" y="15.6"/>
  </clipPath>
  <clipPath id="p4b3027e420">
   <rect height="308.516667" width="44.091667" x="372.308333" y="81.383333"/>
  </clipPath>
 </defs>
</svg>
