<?xml version="1.0" encoding="utf-8" standalone="no"?>
<!DOCTYPE svg PUBLIC "-//W3C//DTD SVG 1.1//EN"
  "http://www.w3.org/Graphics/SVG/1.1/DTD/svg11.dtd">
<!-- Created with matplotlib (http://matplotlib.org/) -->
<svg height="432pt" version="1.1" viewBox="0 0 432 432" width="432pt" xmlns="http://www.w3.org/2000/svg" xmlns:xlink="http://www.w3.org/1999/xlink">
 <defs>
  <style type="text/css">
*{stroke-linecap:butt;stroke-linejoin:round;}
  </style>
 </defs>
 <g id="figure_1">
  <g id="patch_1">
   <path d="M 0 432 
L 432 432 
L 432 0 
L 0 0 
z
" style="fill:#ffffff;"/>
  </g>
  <g id="axes_1">
   <g id="patch_2">
    <path d="M 49.85 389.9 
L 351.908333 389.9 
L 351.908333 81.383333 
L 49.85 81.383333 
z
" style="fill:#ffffff;"/>
   </g>
   <g id="matplotlib.axis_1">
    <g id="xtick_1">
     <g id="line2d_1">
      <defs>
       <path d="M 0 0 
L 0 4.8 
" id="m8f88e023cc" style="stroke:#262626;"/>
      </defs>
      <g>
       <use style="fill:#262626;stroke:#262626;" x="71.54719" xlink:href="#m8f88e023cc" y="389.9"/>
      </g>
     </g>
     <g id="text_1">
      <!-- 9.0 -->
      <defs>
       <path d="M 10.984375 1.515625 
L 10.984375 10.5 
Q 14.703125 8.734375 18.5 7.8125 
Q 22.3125 6.890625 25.984375 6.890625 
Q 35.75 6.890625 40.890625 13.453125 
Q 46.046875 20.015625 46.78125 33.40625 
Q 43.953125 29.203125 39.59375 26.953125 
Q 35.25 24.703125 29.984375 24.703125 
Q 19.046875 24.703125 12.671875 31.3125 
Q 6.296875 37.9375 6.296875 49.421875 
Q 6.296875 60.640625 12.9375 67.421875 
Q 19.578125 74.21875 30.609375 74.21875 
Q 43.265625 74.21875 49.921875 64.515625 
Q 56.59375 54.828125 56.59375 36.375 
Q 56.59375 19.140625 48.40625 8.859375 
Q 40.234375 -1.421875 26.421875 -1.421875 
Q 22.703125 -1.421875 18.890625 -0.6875 
Q 15.09375 0.046875 10.984375 1.515625 
z
M 30.609375 32.421875 
Q 37.25 32.421875 41.125 36.953125 
Q 45.015625 41.5 45.015625 49.421875 
Q 45.015625 57.28125 41.125 61.84375 
Q 37.25 66.40625 30.609375 66.40625 
Q 23.96875 66.40625 20.09375 61.84375 
Q 16.21875 57.28125 16.21875 49.421875 
Q 16.21875 41.5 20.09375 36.953125 
Q 23.96875 32.421875 30.609375 32.421875 
z
" id="DejaVuSans-39"/>
       <path d="M 10.6875 12.40625 
L 21 12.40625 
L 21 0 
L 10.6875 0 
z
" id="DejaVuSans-2e"/>
       <path d="M 31.78125 66.40625 
Q 24.171875 66.40625 20.328125 58.90625 
Q 16.5 51.421875 16.5 36.375 
Q 16.5 21.390625 20.328125 13.890625 
Q 24.171875 6.390625 31.78125 6.390625 
Q 39.453125 6.390625 43.28125 13.890625 
Q 47.125 21.390625 47.125 36.375 
Q 47.125 51.421875 43.28125 58.90625 
Q 39.453125 66.40625 31.78125 66.40625 
z
M 31.78125 74.21875 
Q 44.046875 74.21875 50.515625 64.515625 
Q 56.984375 54.828125 56.984375 36.375 
Q 56.984375 17.96875 50.515625 8.265625 
Q 44.046875 -1.421875 31.78125 -1.421875 
Q 19.53125 -1.421875 13.0625 8.265625 
Q 6.59375 17.96875 6.59375 36.375 
Q 6.59375 54.828125 13.0625 64.515625 
Q 19.53125 74.21875 31.78125 74.21875 
z
" id="DejaVuSans-30"/>
      </defs>
      <g style="fill:#262626;" transform="translate(64.549815 404.886625)scale(0.088 -0.088)">
       <use xlink:href="#DejaVuSans-39"/>
       <use x="63.623047" xlink:href="#DejaVuSans-2e"/>
       <use x="95.410156" xlink:href="#DejaVuSans-30"/>
      </g>
     </g>
    </g>
    <g id="xtick_2">
     <g id="line2d_2">
      <g>
       <use style="fill:#262626;stroke:#262626;" x="128.565334" xlink:href="#m8f88e023cc" y="389.9"/>
      </g>
     </g>
     <g id="text_2">
      <!-- 9.5 -->
      <defs>
       <path d="M 10.796875 72.90625 
L 49.515625 72.90625 
L 49.515625 64.59375 
L 19.828125 64.59375 
L 19.828125 46.734375 
Q 21.96875 47.46875 24.109375 47.828125 
Q 26.265625 48.1875 28.421875 48.1875 
Q 40.625 48.1875 47.75 41.5 
Q 54.890625 34.8125 54.890625 23.390625 
Q 54.890625 11.625 47.5625 5.09375 
Q 40.234375 -1.421875 26.90625 -1.421875 
Q 22.3125 -1.421875 17.546875 -0.640625 
Q 12.796875 0.140625 7.71875 1.703125 
L 7.71875 11.625 
Q 12.109375 9.234375 16.796875 8.0625 
Q 21.484375 6.890625 26.703125 6.890625 
Q 35.15625 6.890625 40.078125 11.328125 
Q 45.015625 15.765625 45.015625 23.390625 
Q 45.015625 31 40.078125 35.4375 
Q 35.15625 39.890625 26.703125 39.890625 
Q 22.75 39.890625 18.8125 39.015625 
Q 14.890625 38.140625 10.796875 36.28125 
z
" id="DejaVuSans-35"/>
      </defs>
      <g style="fill:#262626;" transform="translate(121.567959 404.886625)scale(0.088 -0.088)">
       <use xlink:href="#DejaVuSans-39"/>
       <use x="63.623047" xlink:href="#DejaVuSans-2e"/>
       <use x="95.410156" xlink:href="#DejaVuSans-35"/>
      </g>
     </g>
    </g>
    <g id="xtick_3">
     <g id="line2d_3">
      <g>
       <use style="fill:#262626;stroke:#262626;" x="185.583478" xlink:href="#m8f88e023cc" y="389.9"/>
      </g>
     </g>
     <g id="text_3">
      <!-- 10.0 -->
      <defs>
       <path d="M 12.40625 8.296875 
L 28.515625 8.296875 
L 28.515625 63.921875 
L 10.984375 60.40625 
L 10.984375 69.390625 
L 28.421875 72.90625 
L 38.28125 72.90625 
L 38.28125 8.296875 
L 54.390625 8.296875 
L 54.390625 0 
L 12.40625 0 
z
" id="DejaVuSans-31"/>
      </defs>
      <g style="fill:#262626;" transform="translate(175.786603 404.886625)scale(0.088 -0.088)">
       <use xlink:href="#DejaVuSans-31"/>
       <use x="63.623047" xlink:href="#DejaVuSans-30"/>
       <use x="127.246094" xlink:href="#DejaVuSans-2e"/>
       <use x="159.033203" xlink:href="#DejaVuSans-30"/>
      </g>
     </g>
    </g>
    <g id="xtick_4">
     <g id="line2d_4">
      <g>
       <use style="fill:#262626;stroke:#262626;" x="242.601621" xlink:href="#m8f88e023cc" y="389.9"/>
      </g>
     </g>
     <g id="text_4">
      <!-- 10.5 -->
      <g style="fill:#262626;" transform="translate(232.804746 404.886625)scale(0.088 -0.088)">
       <use xlink:href="#DejaVuSans-31"/>
       <use x="63.623047" xlink:href="#DejaVuSans-30"/>
       <use x="127.246094" xlink:href="#DejaVuSans-2e"/>
       <use x="159.033203" xlink:href="#DejaVuSans-35"/>
      </g>
     </g>
    </g>
    <g id="xtick_5">
     <g id="line2d_5">
      <g>
       <use style="fill:#262626;stroke:#262626;" x="299.619765" xlink:href="#m8f88e023cc" y="389.9"/>
      </g>
     </g>
     <g id="text_5">
      <!-- 11.0 -->
      <g style="fill:#262626;" transform="translate(289.82289 404.886625)scale(0.088 -0.088)">
       <use xlink:href="#DejaVuSans-31"/>
       <use x="63.623047" xlink:href="#DejaVuSans-31"/>
       <use x="127.246094" xlink:href="#DejaVuSans-2e"/>
       <use x="159.033203" xlink:href="#DejaVuSans-30"/>
      </g>
     </g>
    </g>
    <g id="text_6">
     <!-- log(n) -->
     <defs>
      <path d="M 9.421875 75.984375 
L 18.40625 75.984375 
L 18.40625 0 
L 9.421875 0 
z
" id="DejaVuSans-6c"/>
      <path d="M 30.609375 48.390625 
Q 23.390625 48.390625 19.1875 42.75 
Q 14.984375 37.109375 14.984375 27.296875 
Q 14.984375 17.484375 19.15625 11.84375 
Q 23.34375 6.203125 30.609375 6.203125 
Q 37.796875 6.203125 41.984375 11.859375 
Q 46.1875 17.53125 46.1875 27.296875 
Q 46.1875 37.015625 41.984375 42.703125 
Q 37.796875 48.390625 30.609375 48.390625 
z
M 30.609375 56 
Q 42.328125 56 49.015625 48.375 
Q 55.71875 40.765625 55.71875 27.296875 
Q 55.71875 13.875 49.015625 6.21875 
Q 42.328125 -1.421875 30.609375 -1.421875 
Q 18.84375 -1.421875 12.171875 6.21875 
Q 5.515625 13.875 5.515625 27.296875 
Q 5.515625 40.765625 12.171875 48.375 
Q 18.84375 56 30.609375 56 
z
" id="DejaVuSans-6f"/>
      <path d="M 45.40625 27.984375 
Q 45.40625 37.75 41.375 43.109375 
Q 37.359375 48.484375 30.078125 48.484375 
Q 22.859375 48.484375 18.828125 43.109375 
Q 14.796875 37.75 14.796875 27.984375 
Q 14.796875 18.265625 18.828125 12.890625 
Q 22.859375 7.515625 30.078125 7.515625 
Q 37.359375 7.515625 41.375 12.890625 
Q 45.40625 18.265625 45.40625 27.984375 
z
M 54.390625 6.78125 
Q 54.390625 -7.171875 48.1875 -13.984375 
Q 42 -20.796875 29.203125 -20.796875 
Q 24.46875 -20.796875 20.265625 -20.09375 
Q 16.0625 -19.390625 12.109375 -17.921875 
L 12.109375 -9.1875 
Q 16.0625 -11.328125 19.921875 -12.34375 
Q 23.78125 -13.375 27.78125 -13.375 
Q 36.625 -13.375 41.015625 -8.765625 
Q 45.40625 -4.15625 45.40625 5.171875 
L 45.40625 9.625 
Q 42.625 4.78125 38.28125 2.390625 
Q 33.9375 0 27.875 0 
Q 17.828125 0 11.671875 7.65625 
Q 5.515625 15.328125 5.515625 27.984375 
Q 5.515625 40.671875 11.671875 48.328125 
Q 17.828125 56 27.875 56 
Q 33.9375 56 38.28125 53.609375 
Q 42.625 51.21875 45.40625 46.390625 
L 45.40625 54.6875 
L 54.390625 54.6875 
z
" id="DejaVuSans-67"/>
      <path d="M 31 75.875 
Q 24.46875 64.65625 21.28125 53.65625 
Q 18.109375 42.671875 18.109375 31.390625 
Q 18.109375 20.125 21.3125 9.0625 
Q 24.515625 -2 31 -13.1875 
L 23.1875 -13.1875 
Q 15.875 -1.703125 12.234375 9.375 
Q 8.59375 20.453125 8.59375 31.390625 
Q 8.59375 42.28125 12.203125 53.3125 
Q 15.828125 64.359375 23.1875 75.875 
z
" id="DejaVuSans-28"/>
      <path d="M 54.890625 33.015625 
L 54.890625 0 
L 45.90625 0 
L 45.90625 32.71875 
Q 45.90625 40.484375 42.875 44.328125 
Q 39.84375 48.1875 33.796875 48.1875 
Q 26.515625 48.1875 22.3125 43.546875 
Q 18.109375 38.921875 18.109375 30.90625 
L 18.109375 0 
L 9.078125 0 
L 9.078125 54.6875 
L 18.109375 54.6875 
L 18.109375 46.1875 
Q 21.34375 51.125 25.703125 53.5625 
Q 30.078125 56 35.796875 56 
Q 45.21875 56 50.046875 50.171875 
Q 54.890625 44.34375 54.890625 33.015625 
z
" id="DejaVuSans-6e"/>
      <path d="M 8.015625 75.875 
L 15.828125 75.875 
Q 23.140625 64.359375 26.78125 53.3125 
Q 30.421875 42.28125 30.421875 31.390625 
Q 30.421875 20.453125 26.78125 9.375 
Q 23.140625 -1.703125 15.828125 -13.1875 
L 8.015625 -13.1875 
Q 14.5 -2 17.703125 9.0625 
Q 20.90625 20.125 20.90625 31.390625 
Q 20.90625 42.671875 17.703125 53.65625 
Q 14.5 64.65625 8.015625 75.875 
z
" id="DejaVuSans-29"/>
     </defs>
     <g style="fill:#262626;" transform="translate(186.773917 418.01125)scale(0.096 -0.096)">
      <use xlink:href="#DejaVuSans-6c"/>
      <use x="27.783203" xlink:href="#DejaVuSans-6f"/>
      <use x="88.964844" xlink:href="#DejaVuSans-67"/>
      <use x="152.441406" xlink:href="#DejaVuSans-28"/>
      <use x="191.455078" xlink:href="#DejaVuSans-6e"/>
      <use x="254.833984" xlink:href="#DejaVuSans-29"/>
     </g>
    </g>
   </g>
   <g id="matplotlib.axis_2">
    <g id="ytick_1">
     <g id="line2d_6">
      <defs>
       <path d="M 0 0 
L -4.8 0 
" id="m5ac97ebdc7" style="stroke:#262626;"/>
      </defs>
      <g>
       <use style="fill:#262626;stroke:#262626;" x="49.85" xlink:href="#m5ac97ebdc7" y="389.9"/>
      </g>
     </g>
     <g id="text_7">
      <!-- 0 -->
      <g style="fill:#262626;" transform="translate(35.951 393.243313)scale(0.088 -0.088)">
       <use xlink:href="#DejaVuSans-30"/>
      </g>
     </g>
    </g>
    <g id="ytick_2">
     <g id="line2d_7">
      <g>
       <use style="fill:#262626;stroke:#262626;" x="49.85" xlink:href="#m5ac97ebdc7" y="333.806061"/>
      </g>
     </g>
     <g id="text_8">
      <!-- 20 -->
      <defs>
       <path d="M 19.1875 8.296875 
L 53.609375 8.296875 
L 53.609375 0 
L 7.328125 0 
L 7.328125 8.296875 
Q 12.9375 14.109375 22.625 23.890625 
Q 32.328125 33.6875 34.8125 36.53125 
Q 39.546875 41.84375 41.421875 45.53125 
Q 43.3125 49.21875 43.3125 52.78125 
Q 43.3125 58.59375 39.234375 62.25 
Q 35.15625 65.921875 28.609375 65.921875 
Q 23.96875 65.921875 18.8125 64.3125 
Q 13.671875 62.703125 7.8125 59.421875 
L 7.8125 69.390625 
Q 13.765625 71.78125 18.9375 73 
Q 24.125 74.21875 28.421875 74.21875 
Q 39.75 74.21875 46.484375 68.546875 
Q 53.21875 62.890625 53.21875 53.421875 
Q 53.21875 48.921875 51.53125 44.890625 
Q 49.859375 40.875 45.40625 35.40625 
Q 44.1875 33.984375 37.640625 27.21875 
Q 31.109375 20.453125 19.1875 8.296875 
z
" id="DejaVuSans-32"/>
      </defs>
      <g style="fill:#262626;" transform="translate(30.352 337.149373)scale(0.088 -0.088)">
       <use xlink:href="#DejaVuSans-32"/>
       <use x="63.623047" xlink:href="#DejaVuSans-30"/>
      </g>
     </g>
    </g>
    <g id="ytick_3">
     <g id="line2d_8">
      <g>
       <use style="fill:#262626;stroke:#262626;" x="49.85" xlink:href="#m5ac97ebdc7" y="277.712121"/>
      </g>
     </g>
     <g id="text_9">
      <!-- 40 -->
      <defs>
       <path d="M 37.796875 64.3125 
L 12.890625 25.390625 
L 37.796875 25.390625 
z
M 35.203125 72.90625 
L 47.609375 72.90625 
L 47.609375 25.390625 
L 58.015625 25.390625 
L 58.015625 17.1875 
L 47.609375 17.1875 
L 47.609375 0 
L 37.796875 0 
L 37.796875 17.1875 
L 4.890625 17.1875 
L 4.890625 26.703125 
z
" id="DejaVuSans-34"/>
      </defs>
      <g style="fill:#262626;" transform="translate(30.352 281.055434)scale(0.088 -0.088)">
       <use xlink:href="#DejaVuSans-34"/>
       <use x="63.623047" xlink:href="#DejaVuSans-30"/>
      </g>
     </g>
    </g>
    <g id="ytick_4">
     <g id="line2d_9">
      <g>
       <use style="fill:#262626;stroke:#262626;" x="49.85" xlink:href="#m5ac97ebdc7" y="221.618182"/>
      </g>
     </g>
     <g id="text_10">
      <!-- 60 -->
      <defs>
       <path d="M 33.015625 40.375 
Q 26.375 40.375 22.484375 35.828125 
Q 18.609375 31.296875 18.609375 23.390625 
Q 18.609375 15.53125 22.484375 10.953125 
Q 26.375 6.390625 33.015625 6.390625 
Q 39.65625 6.390625 43.53125 10.953125 
Q 47.40625 15.53125 47.40625 23.390625 
Q 47.40625 31.296875 43.53125 35.828125 
Q 39.65625 40.375 33.015625 40.375 
z
M 52.59375 71.296875 
L 52.59375 62.3125 
Q 48.875 64.0625 45.09375 64.984375 
Q 41.3125 65.921875 37.59375 65.921875 
Q 27.828125 65.921875 22.671875 59.328125 
Q 17.53125 52.734375 16.796875 39.40625 
Q 19.671875 43.65625 24.015625 45.921875 
Q 28.375 48.1875 33.59375 48.1875 
Q 44.578125 48.1875 50.953125 41.515625 
Q 57.328125 34.859375 57.328125 23.390625 
Q 57.328125 12.15625 50.6875 5.359375 
Q 44.046875 -1.421875 33.015625 -1.421875 
Q 20.359375 -1.421875 13.671875 8.265625 
Q 6.984375 17.96875 6.984375 36.375 
Q 6.984375 53.65625 15.1875 63.9375 
Q 23.390625 74.21875 37.203125 74.21875 
Q 40.921875 74.21875 44.703125 73.484375 
Q 48.484375 72.75 52.59375 71.296875 
z
" id="DejaVuSans-36"/>
      </defs>
      <g style="fill:#262626;" transform="translate(30.352 224.961494)scale(0.088 -0.088)">
       <use xlink:href="#DejaVuSans-36"/>
       <use x="63.623047" xlink:href="#DejaVuSans-30"/>
      </g>
     </g>
    </g>
    <g id="ytick_5">
     <g id="line2d_10">
      <g>
       <use style="fill:#262626;stroke:#262626;" x="49.85" xlink:href="#m5ac97ebdc7" y="165.524242"/>
      </g>
     </g>
     <g id="text_11">
      <!-- 80 -->
      <defs>
       <path d="M 31.78125 34.625 
Q 24.75 34.625 20.71875 30.859375 
Q 16.703125 27.09375 16.703125 20.515625 
Q 16.703125 13.921875 20.71875 10.15625 
Q 24.75 6.390625 31.78125 6.390625 
Q 38.8125 6.390625 42.859375 10.171875 
Q 46.921875 13.96875 46.921875 20.515625 
Q 46.921875 27.09375 42.890625 30.859375 
Q 38.875 34.625 31.78125 34.625 
z
M 21.921875 38.8125 
Q 15.578125 40.375 12.03125 44.71875 
Q 8.5 49.078125 8.5 55.328125 
Q 8.5 64.0625 14.71875 69.140625 
Q 20.953125 74.21875 31.78125 74.21875 
Q 42.671875 74.21875 48.875 69.140625 
Q 55.078125 64.0625 55.078125 55.328125 
Q 55.078125 49.078125 51.53125 44.71875 
Q 48 40.375 41.703125 38.8125 
Q 48.828125 37.15625 52.796875 32.3125 
Q 56.78125 27.484375 56.78125 20.515625 
Q 56.78125 9.90625 50.3125 4.234375 
Q 43.84375 -1.421875 31.78125 -1.421875 
Q 19.734375 -1.421875 13.25 4.234375 
Q 6.78125 9.90625 6.78125 20.515625 
Q 6.78125 27.484375 10.78125 32.3125 
Q 14.796875 37.15625 21.921875 38.8125 
z
M 18.3125 54.390625 
Q 18.3125 48.734375 21.84375 45.5625 
Q 25.390625 42.390625 31.78125 42.390625 
Q 38.140625 42.390625 41.71875 45.5625 
Q 45.3125 48.734375 45.3125 54.390625 
Q 45.3125 60.0625 41.71875 63.234375 
Q 38.140625 66.40625 31.78125 66.40625 
Q 25.390625 66.40625 21.84375 63.234375 
Q 18.3125 60.0625 18.3125 54.390625 
z
" id="DejaVuSans-38"/>
      </defs>
      <g style="fill:#262626;" transform="translate(30.352 168.867555)scale(0.088 -0.088)">
       <use xlink:href="#DejaVuSans-38"/>
       <use x="63.623047" xlink:href="#DejaVuSans-30"/>
      </g>
     </g>
    </g>
    <g id="ytick_6">
     <g id="line2d_11">
      <g>
       <use style="fill:#262626;stroke:#262626;" x="49.85" xlink:href="#m5ac97ebdc7" y="109.430303"/>
      </g>
     </g>
     <g id="text_12">
      <!-- 100 -->
      <g style="fill:#262626;" transform="translate(24.753 112.773616)scale(0.088 -0.088)">
       <use xlink:href="#DejaVuSans-31"/>
       <use x="63.623047" xlink:href="#DejaVuSans-30"/>
       <use x="127.246094" xlink:href="#DejaVuSans-30"/>
      </g>
     </g>
    </g>
    <g id="text_13">
     <!-- Time to cancer -->
     <defs>
      <path d="M -0.296875 72.90625 
L 61.375 72.90625 
L 61.375 64.59375 
L 35.5 64.59375 
L 35.5 0 
L 25.59375 0 
L 25.59375 64.59375 
L -0.296875 64.59375 
z
" id="DejaVuSans-54"/>
      <path d="M 9.421875 54.6875 
L 18.40625 54.6875 
L 18.40625 0 
L 9.421875 0 
z
M 9.421875 75.984375 
L 18.40625 75.984375 
L 18.40625 64.59375 
L 9.421875 64.59375 
z
" id="DejaVuSans-69"/>
      <path d="M 52 44.1875 
Q 55.375 50.25 60.0625 53.125 
Q 64.75 56 71.09375 56 
Q 79.640625 56 84.28125 50.015625 
Q 88.921875 44.046875 88.921875 33.015625 
L 88.921875 0 
L 79.890625 0 
L 79.890625 32.71875 
Q 79.890625 40.578125 77.09375 44.375 
Q 74.3125 48.1875 68.609375 48.1875 
Q 61.625 48.1875 57.5625 43.546875 
Q 53.515625 38.921875 53.515625 30.90625 
L 53.515625 0 
L 44.484375 0 
L 44.484375 32.71875 
Q 44.484375 40.625 41.703125 44.40625 
Q 38.921875 48.1875 33.109375 48.1875 
Q 26.21875 48.1875 22.15625 43.53125 
Q 18.109375 38.875 18.109375 30.90625 
L 18.109375 0 
L 9.078125 0 
L 9.078125 54.6875 
L 18.109375 54.6875 
L 18.109375 46.1875 
Q 21.1875 51.21875 25.484375 53.609375 
Q 29.78125 56 35.6875 56 
Q 41.65625 56 45.828125 52.96875 
Q 50 49.953125 52 44.1875 
z
" id="DejaVuSans-6d"/>
      <path d="M 56.203125 29.59375 
L 56.203125 25.203125 
L 14.890625 25.203125 
Q 15.484375 15.921875 20.484375 11.0625 
Q 25.484375 6.203125 34.421875 6.203125 
Q 39.59375 6.203125 44.453125 7.46875 
Q 49.3125 8.734375 54.109375 11.28125 
L 54.109375 2.78125 
Q 49.265625 0.734375 44.1875 -0.34375 
Q 39.109375 -1.421875 33.890625 -1.421875 
Q 20.796875 -1.421875 13.15625 6.1875 
Q 5.515625 13.8125 5.515625 26.8125 
Q 5.515625 40.234375 12.765625 48.109375 
Q 20.015625 56 32.328125 56 
Q 43.359375 56 49.78125 48.890625 
Q 56.203125 41.796875 56.203125 29.59375 
z
M 47.21875 32.234375 
Q 47.125 39.59375 43.09375 43.984375 
Q 39.0625 48.390625 32.421875 48.390625 
Q 24.90625 48.390625 20.390625 44.140625 
Q 15.875 39.890625 15.1875 32.171875 
z
" id="DejaVuSans-65"/>
      <path id="DejaVuSans-20"/>
      <path d="M 18.3125 70.21875 
L 18.3125 54.6875 
L 36.8125 54.6875 
L 36.8125 47.703125 
L 18.3125 47.703125 
L 18.3125 18.015625 
Q 18.3125 11.328125 20.140625 9.421875 
Q 21.96875 7.515625 27.59375 7.515625 
L 36.8125 7.515625 
L 36.8125 0 
L 27.59375 0 
Q 17.1875 0 13.234375 3.875 
Q 9.28125 7.765625 9.28125 18.015625 
L 9.28125 47.703125 
L 2.6875 47.703125 
L 2.6875 54.6875 
L 9.28125 54.6875 
L 9.28125 70.21875 
z
" id="DejaVuSans-74"/>
      <path d="M 48.78125 52.59375 
L 48.78125 44.1875 
Q 44.96875 46.296875 41.140625 47.34375 
Q 37.3125 48.390625 33.40625 48.390625 
Q 24.65625 48.390625 19.8125 42.84375 
Q 14.984375 37.3125 14.984375 27.296875 
Q 14.984375 17.28125 19.8125 11.734375 
Q 24.65625 6.203125 33.40625 6.203125 
Q 37.3125 6.203125 41.140625 7.25 
Q 44.96875 8.296875 48.78125 10.40625 
L 48.78125 2.09375 
Q 45.015625 0.34375 40.984375 -0.53125 
Q 36.96875 -1.421875 32.421875 -1.421875 
Q 20.0625 -1.421875 12.78125 6.34375 
Q 5.515625 14.109375 5.515625 27.296875 
Q 5.515625 40.671875 12.859375 48.328125 
Q 20.21875 56 33.015625 56 
Q 37.15625 56 41.109375 55.140625 
Q 45.0625 54.296875 48.78125 52.59375 
z
" id="DejaVuSans-63"/>
      <path d="M 34.28125 27.484375 
Q 23.390625 27.484375 19.1875 25 
Q 14.984375 22.515625 14.984375 16.5 
Q 14.984375 11.71875 18.140625 8.90625 
Q 21.296875 6.109375 26.703125 6.109375 
Q 34.1875 6.109375 38.703125 11.40625 
Q 43.21875 16.703125 43.21875 25.484375 
L 43.21875 27.484375 
z
M 52.203125 31.203125 
L 52.203125 0 
L 43.21875 0 
L 43.21875 8.296875 
Q 40.140625 3.328125 35.546875 0.953125 
Q 30.953125 -1.421875 24.3125 -1.421875 
Q 15.921875 -1.421875 10.953125 3.296875 
Q 6 8.015625 6 15.921875 
Q 6 25.140625 12.171875 29.828125 
Q 18.359375 34.515625 30.609375 34.515625 
L 43.21875 34.515625 
L 43.21875 35.40625 
Q 43.21875 41.609375 39.140625 45 
Q 35.0625 48.390625 27.6875 48.390625 
Q 23 48.390625 18.546875 47.265625 
Q 14.109375 46.140625 10.015625 43.890625 
L 10.015625 52.203125 
Q 14.9375 54.109375 19.578125 55.046875 
Q 24.21875 56 28.609375 56 
Q 40.484375 56 46.34375 49.84375 
Q 52.203125 43.703125 52.203125 31.203125 
z
" id="DejaVuSans-61"/>
      <path d="M 41.109375 46.296875 
Q 39.59375 47.171875 37.8125 47.578125 
Q 36.03125 48 33.890625 48 
Q 26.265625 48 22.1875 43.046875 
Q 18.109375 38.09375 18.109375 28.8125 
L 18.109375 0 
L 9.078125 0 
L 9.078125 54.6875 
L 18.109375 54.6875 
L 18.109375 46.1875 
Q 20.953125 51.171875 25.484375 53.578125 
Q 30.03125 56 36.53125 56 
Q 37.453125 56 38.578125 55.875 
Q 39.703125 55.765625 41.0625 55.515625 
z
" id="DejaVuSans-72"/>
     </defs>
     <g style="fill:#262626;" transform="translate(18.7565 271.592167)rotate(-90)scale(0.096 -0.096)">
      <use xlink:href="#DejaVuSans-54"/>
      <use x="61.037109" xlink:href="#DejaVuSans-69"/>
      <use x="88.820312" xlink:href="#DejaVuSans-6d"/>
      <use x="186.232422" xlink:href="#DejaVuSans-65"/>
      <use x="247.755859" xlink:href="#DejaVuSans-20"/>
      <use x="279.542969" xlink:href="#DejaVuSans-74"/>
      <use x="318.751953" xlink:href="#DejaVuSans-6f"/>
      <use x="379.933594" xlink:href="#DejaVuSans-20"/>
      <use x="411.720703" xlink:href="#DejaVuSans-63"/>
      <use x="466.701172" xlink:href="#DejaVuSans-61"/>
      <use x="527.980469" xlink:href="#DejaVuSans-6e"/>
      <use x="591.359375" xlink:href="#DejaVuSans-63"/>
      <use x="646.339844" xlink:href="#DejaVuSans-65"/>
      <use x="707.863281" xlink:href="#DejaVuSans-72"/>
     </g>
    </g>
   </g>
   <g id="PathCollection_1">
    <defs>
     <path d="M 0 2.4 
C 0.636487 2.4 1.246992 2.147121 1.697056 1.697056 
C 2.147121 1.246992 2.4 0.636487 2.4 0 
C 2.4 -0.636487 2.147121 -1.246992 1.697056 -1.697056 
C 1.246992 -2.147121 0.636487 -2.4 0 -2.4 
C -0.636487 -2.4 -1.246992 -2.147121 -1.697056 -1.697056 
C -2.147121 -1.246992 -2.4 -0.636487 -2.4 0 
C -2.4 0.636487 -2.147121 1.246992 -1.697056 1.697056 
C -1.246992 2.147121 -0.636487 2.4 0 2.4 
z
" id="m853cc0785c" style="stroke:#471365;stroke-opacity:0.8;"/>
    </defs>
    <g clip-path="url(#p33c76da16c)">
     <use style="fill:#471365;fill-opacity:0.8;stroke:#471365;stroke-opacity:0.8;" x="220.000925" xlink:href="#m853cc0785c" y="198.489037"/>
     <use style="fill:#471365;fill-opacity:0.8;stroke:#471365;stroke-opacity:0.8;" x="253.233973" xlink:href="#m853cc0785c" y="191.557978"/>
     <use style="fill:#471365;fill-opacity:0.8;stroke:#471365;stroke-opacity:0.8;" x="253.901142" xlink:href="#m853cc0785c" y="215.255746"/>
     <use style="fill:#471365;fill-opacity:0.8;stroke:#471365;stroke-opacity:0.8;" x="283.101165" xlink:href="#m853cc0785c" y="172.462986"/>
     <use style="fill:#471365;fill-opacity:0.8;stroke:#471365;stroke-opacity:0.8;" x="241.658878" xlink:href="#m853cc0785c" y="159.507591"/>
     <use style="fill:#471365;fill-opacity:0.8;stroke:#471365;stroke-opacity:0.8;" x="193.537659" xlink:href="#m853cc0785c" y="197.874309"/>
     <use style="fill:#471365;fill-opacity:0.8;stroke:#471365;stroke-opacity:0.8;" x="263.807892" xlink:href="#m853cc0785c" y="144.807905"/>
     <use style="fill:#471365;fill-opacity:0.8;stroke:#471365;stroke-opacity:0.8;" x="250.999454" xlink:href="#m853cc0785c" y="191.896078"/>
     <use style="fill:#471365;fill-opacity:0.8;stroke:#471365;stroke-opacity:0.8;" x="217.661451" xlink:href="#m853cc0785c" y="166.915065"/>
     <use style="fill:#471365;fill-opacity:0.8;stroke:#471365;stroke-opacity:0.8;" x="282.371841" xlink:href="#m853cc0785c" y="213.058093"/>
     <use style="fill:#471365;fill-opacity:0.8;stroke:#471365;stroke-opacity:0.8;" x="269.52843" xlink:href="#m853cc0785c" y="181.115284"/>
     <use style="fill:#471365;fill-opacity:0.8;stroke:#471365;stroke-opacity:0.8;" x="271.956834" xlink:href="#m853cc0785c" y="191.826921"/>
     <use style="fill:#471365;fill-opacity:0.8;stroke:#471365;stroke-opacity:0.8;" x="263.577984" xlink:href="#m853cc0785c" y="211.521273"/>
     <use style="fill:#471365;fill-opacity:0.8;stroke:#471365;stroke-opacity:0.8;" x="251.572987" xlink:href="#m853cc0785c" y="188.853174"/>
     <use style="fill:#471365;fill-opacity:0.8;stroke:#471365;stroke-opacity:0.8;" x="264.799016" xlink:href="#m853cc0785c" y="119.834576"/>
     <use style="fill:#471365;fill-opacity:0.8;stroke:#471365;stroke-opacity:0.8;" x="228.582568" xlink:href="#m853cc0785c" y="177.457652"/>
     <use style="fill:#471365;fill-opacity:0.8;stroke:#471365;stroke-opacity:0.8;" x="282.635214" xlink:href="#m853cc0785c" y="164.702044"/>
     <use style="fill:#471365;fill-opacity:0.8;stroke:#471365;stroke-opacity:0.8;" x="247.765796" xlink:href="#m853cc0785c" y="215.655319"/>
     <use style="fill:#471365;fill-opacity:0.8;stroke:#471365;stroke-opacity:0.8;" x="118.657168" xlink:href="#m853cc0785c" y="143.440135"/>
     <use style="fill:#471365;fill-opacity:0.8;stroke:#471365;stroke-opacity:0.8;" x="232.878487" xlink:href="#m853cc0785c" y="129.385914"/>
     <use style="fill:#471365;fill-opacity:0.8;stroke:#471365;stroke-opacity:0.8;" x="281.515591" xlink:href="#m853cc0785c" y="151.869594"/>
     <use style="fill:#471365;fill-opacity:0.8;stroke:#471365;stroke-opacity:0.8;" x="226.061997" xlink:href="#m853cc0785c" y="168.697776"/>
     <use style="fill:#471365;fill-opacity:0.8;stroke:#471365;stroke-opacity:0.8;" x="226.879565" xlink:href="#m853cc0785c" y="152.46127"/>
     <use style="fill:#471365;fill-opacity:0.8;stroke:#471365;stroke-opacity:0.8;" x="244.014766" xlink:href="#m853cc0785c" y="157.371411"/>
     <use style="fill:#471365;fill-opacity:0.8;stroke:#471365;stroke-opacity:0.8;" x="225.61974" xlink:href="#m853cc0785c" y="217.461083"/>
     <use style="fill:#471365;fill-opacity:0.8;stroke:#471365;stroke-opacity:0.8;" x="274.069402" xlink:href="#m853cc0785c" y="166.223496"/>
     <use style="fill:#471365;fill-opacity:0.8;stroke:#471365;stroke-opacity:0.8;" x="274.061926" xlink:href="#m853cc0785c" y="216.754146"/>
     <use style="fill:#471365;fill-opacity:0.8;stroke:#471365;stroke-opacity:0.8;" x="282.457036" xlink:href="#m853cc0785c" y="175.006423"/>
     <use style="fill:#471365;fill-opacity:0.8;stroke:#471365;stroke-opacity:0.8;" x="274.74198" xlink:href="#m853cc0785c" y="145.683893"/>
     <use style="fill:#471365;fill-opacity:0.8;stroke:#471365;stroke-opacity:0.8;" x="263.108363" xlink:href="#m853cc0785c" y="272.702087"/>
     <use style="fill:#471365;fill-opacity:0.8;stroke:#471365;stroke-opacity:0.8;" x="253.324858" xlink:href="#m853cc0785c" y="213.995553"/>
     <use style="fill:#471365;fill-opacity:0.8;stroke:#471365;stroke-opacity:0.8;" x="225.582699" xlink:href="#m853cc0785c" y="132.613237"/>
     <use style="fill:#471365;fill-opacity:0.8;stroke:#471365;stroke-opacity:0.8;" x="281.775516" xlink:href="#m853cc0785c" y="168.390412"/>
     <use style="fill:#471365;fill-opacity:0.8;stroke:#471365;stroke-opacity:0.8;" x="283.037125" xlink:href="#m853cc0785c" y="195.776549"/>
     <use style="fill:#471365;fill-opacity:0.8;stroke:#471365;stroke-opacity:0.8;" x="226.207856" xlink:href="#m853cc0785c" y="195.108032"/>
     <use style="fill:#471365;fill-opacity:0.8;stroke:#471365;stroke-opacity:0.8;" x="251.315055" xlink:href="#m853cc0785c" y="226.67432"/>
     <use style="fill:#471365;fill-opacity:0.8;stroke:#471365;stroke-opacity:0.8;" x="262.457265" xlink:href="#m853cc0785c" y="153.990406"/>
     <use style="fill:#471365;fill-opacity:0.8;stroke:#471365;stroke-opacity:0.8;" x="264.774677" xlink:href="#m853cc0785c" y="120.226465"/>
     <use style="fill:#471365;fill-opacity:0.8;stroke:#471365;stroke-opacity:0.8;" x="236.142222" xlink:href="#m853cc0785c" y="133.835009"/>
     <use style="fill:#471365;fill-opacity:0.8;stroke:#471365;stroke-opacity:0.8;" x="256.137332" xlink:href="#m853cc0785c" y="214.072394"/>
     <use style="fill:#471365;fill-opacity:0.8;stroke:#471365;stroke-opacity:0.8;" x="263.033963" xlink:href="#m853cc0785c" y="165.939184"/>
     <use style="fill:#471365;fill-opacity:0.8;stroke:#471365;stroke-opacity:0.8;" x="278.25242" xlink:href="#m853cc0785c" y="175.50589"/>
     <use style="fill:#471365;fill-opacity:0.8;stroke:#471365;stroke-opacity:0.8;" x="275.822317" xlink:href="#m853cc0785c" y="167.783368"/>
    </g>
   </g>
   <g id="PolyCollection_1">
    <defs>
     <path d="M 63.579924 -315.015635 
L 63.579924 -206.366038 
L 66.353646 -206.983079 
L 69.127368 -207.600121 
L 71.90109 -208.217163 
L 74.674813 -208.834204 
L 77.448535 -209.451246 
L 80.222257 -210.068288 
L 82.995979 -210.685329 
L 85.769701 -211.302371 
L 88.543423 -211.919413 
L 91.317145 -212.536454 
L 94.090867 -213.153496 
L 96.864589 -213.770538 
L 99.638311 -214.387579 
L 102.412033 -215.086379 
L 105.185755 -215.826744 
L 107.959477 -216.567109 
L 110.733199 -217.307474 
L 113.506921 -218.047839 
L 116.280644 -218.788204 
L 119.054366 -219.528569 
L 121.828088 -220.268934 
L 124.60181 -221.009299 
L 127.375532 -221.749664 
L 130.149254 -222.299848 
L 132.922976 -222.714215 
L 135.696698 -223.130249 
L 138.47042 -223.562749 
L 141.244142 -224.381944 
L 144.017864 -225.203662 
L 146.791586 -226.030364 
L 149.565308 -226.857065 
L 152.33903 -227.68754 
L 155.112753 -228.374212 
L 157.886475 -229.020519 
L 160.660197 -229.615495 
L 163.433919 -230.18683 
L 166.207641 -230.945496 
L 168.981363 -231.581431 
L 171.755085 -232.225364 
L 174.528807 -232.653018 
L 177.302529 -233.262059 
L 180.076251 -233.816955 
L 182.849973 -234.789383 
L 185.623695 -235.431679 
L 188.397417 -235.952657 
L 191.171139 -236.453142 
L 193.944861 -237.070681 
L 196.718584 -237.494637 
L 199.492306 -238.08608 
L 202.266028 -238.777322 
L 205.03975 -239.283382 
L 207.813472 -239.678338 
L 210.587194 -240.022426 
L 213.360916 -240.511683 
L 216.134638 -241.253654 
L 218.90836 -241.832381 
L 221.682082 -242.265728 
L 224.455804 -242.465692 
L 227.229526 -243.148403 
L 230.003248 -243.47784 
L 232.77697 -243.549561 
L 235.550693 -243.894533 
L 238.324415 -244.115571 
L 241.098137 -244.390208 
L 243.871859 -244.164577 
L 246.645581 -243.693396 
L 249.419303 -243.550353 
L 252.193025 -243.621531 
L 254.966747 -243.129913 
L 257.740469 -242.572563 
L 260.514191 -242.035525 
L 263.287913 -241.477992 
L 266.061635 -240.826623 
L 268.835357 -240.361283 
L 271.609079 -239.854277 
L 274.382801 -239.305882 
L 277.156524 -238.5856 
L 279.930246 -237.857564 
L 282.703968 -237.202383 
L 285.47769 -236.520839 
L 288.251412 -235.767901 
L 291.025134 -234.976383 
L 293.798856 -234.20996 
L 296.572578 -233.606902 
L 299.3463 -233.007879 
L 302.120022 -232.028017 
L 304.893744 -231.109805 
L 307.667466 -230.22426 
L 310.441188 -229.427596 
L 313.21491 -228.647286 
L 315.988633 -227.737304 
L 318.762355 -226.813125 
L 321.536077 -225.779483 
L 324.309799 -224.800417 
L 327.083521 -224.04393 
L 329.857243 -223.093167 
L 332.630965 -222.170541 
L 335.404687 -221.279216 
L 338.178409 -220.313597 
L 338.178409 -273.651743 
L 338.178409 -273.651743 
L 335.404687 -273.115842 
L 332.630965 -272.57909 
L 329.857243 -271.801746 
L 327.083521 -271.059638 
L 324.309799 -270.452631 
L 321.536077 -269.988076 
L 318.762355 -269.408963 
L 315.988633 -268.77451 
L 313.21491 -268.140057 
L 310.441188 -267.591894 
L 307.667466 -267.41374 
L 304.893744 -267.115092 
L 302.120022 -266.737136 
L 299.3463 -266.064883 
L 296.572578 -265.645101 
L 293.798856 -265.043253 
L 291.025134 -264.610495 
L 288.251412 -264.113599 
L 285.47769 -264.006755 
L 282.703968 -263.587112 
L 279.930246 -263.214278 
L 277.156524 -263.025052 
L 274.382801 -263.074858 
L 271.609079 -262.866118 
L 268.835357 -262.692436 
L 266.061635 -262.492674 
L 263.287913 -262.552968 
L 260.514191 -262.786987 
L 257.740469 -262.879994 
L 254.966747 -263.139848 
L 252.193025 -263.502624 
L 249.419303 -263.420844 
L 246.645581 -264.020987 
L 243.871859 -264.659201 
L 241.098137 -265.29201 
L 238.324415 -265.775164 
L 235.550693 -266.206574 
L 232.77697 -266.790913 
L 230.003248 -267.244259 
L 227.229526 -267.755114 
L 224.455804 -268.302546 
L 221.682082 -268.998474 
L 218.90836 -269.584314 
L 216.134638 -270.225199 
L 213.360916 -270.866083 
L 210.587194 -271.506967 
L 207.813472 -272.139832 
L 205.03975 -272.637106 
L 202.266028 -273.073221 
L 199.492306 -273.697264 
L 196.718584 -274.385333 
L 193.944861 -274.992586 
L 191.171139 -275.599908 
L 188.397417 -276.485202 
L 185.623695 -277.255891 
L 182.849973 -278.084919 
L 180.076251 -278.942365 
L 177.302529 -279.728475 
L 174.528807 -280.378015 
L 171.755085 -281.022481 
L 168.981363 -281.525717 
L 166.207641 -282.28455 
L 163.433919 -282.964133 
L 160.660197 -283.611138 
L 157.886475 -284.371797 
L 155.112753 -285.080187 
L 152.33903 -286.063814 
L 149.565308 -287.046219 
L 146.791586 -287.842118 
L 144.017864 -288.707516 
L 141.244142 -289.699551 
L 138.47042 -290.691586 
L 135.696698 -291.683621 
L 132.922976 -292.675657 
L 130.149254 -293.667179 
L 127.375532 -294.624646 
L 124.60181 -295.582112 
L 121.828088 -296.539579 
L 119.054366 -297.497045 
L 116.280644 -298.452992 
L 113.506921 -299.406696 
L 110.733199 -300.259142 
L 107.959477 -301.102818 
L 105.185755 -301.945633 
L 102.412033 -302.788448 
L 99.638311 -303.631262 
L 96.864589 -304.474077 
L 94.090867 -305.316892 
L 91.317145 -306.159706 
L 88.543423 -307.002521 
L 85.769701 -307.84653 
L 82.995979 -308.866964 
L 80.222257 -309.84061 
L 77.448535 -310.703114 
L 74.674813 -311.565618 
L 71.90109 -312.428123 
L 69.127368 -313.290627 
L 66.353646 -314.153131 
L 63.579924 -315.015635 
z
" id="mda1f5588a5" style="stroke:#ffffff;stroke-opacity:0.15;stroke-width:0.8;"/>
    </defs>
    <g clip-path="url(#p33c76da16c)">
     <use style="fill:#471365;fill-opacity:0.15;stroke:#ffffff;stroke-opacity:0.15;stroke-width:0.8;" x="0" xlink:href="#mda1f5588a5" y="432"/>
    </g>
   </g>
   <g id="line2d_12">
    <path clip-path="url(#p33c76da16c)" d="M 63.579924 155.101778 
L 66.353646 155.442765 
L 69.127368 155.783753 
L 71.90109 156.12474 
L 74.674813 156.465728 
L 77.448535 156.806715 
L 80.222257 157.147703 
L 82.995979 157.488691 
L 85.769701 157.829678 
L 88.543423 158.170666 
L 91.317145 158.511653 
L 94.090867 158.852641 
L 96.864589 159.193628 
L 99.638311 159.534616 
L 102.412033 159.875603 
L 105.185755 160.216591 
L 107.959477 160.557578 
L 110.733199 160.898566 
L 113.506921 161.239553 
L 116.280644 161.580541 
L 119.054366 161.921529 
L 121.828088 162.262516 
L 124.60181 162.603504 
L 127.375532 162.944491 
L 130.149254 163.285479 
L 132.922976 163.626466 
L 135.696698 163.967454 
L 138.47042 164.308441 
L 141.244142 164.649429 
L 144.017864 164.990416 
L 146.791586 165.331404 
L 149.565308 165.672391 
L 152.33903 166.013379 
L 155.112753 166.354367 
L 157.886475 166.695354 
L 160.660197 167.036342 
L 163.433919 167.377329 
L 166.207641 167.718317 
L 168.981363 168.059304 
L 171.755085 168.400292 
L 174.528807 168.741279 
L 177.302529 169.082267 
L 180.076251 169.423254 
L 182.849973 169.764242 
L 185.623695 170.105229 
L 188.397417 170.446217 
L 191.171139 170.787205 
L 193.944861 171.128192 
L 196.718584 171.46918 
L 199.492306 171.810167 
L 202.266028 172.151155 
L 205.03975 172.492142 
L 207.813472 172.83313 
L 210.587194 173.174117 
L 213.360916 173.515105 
L 216.134638 173.856092 
L 218.90836 174.19708 
L 221.682082 174.538067 
L 224.455804 174.879055 
L 227.229526 175.220043 
L 230.003248 175.56103 
L 232.77697 175.902018 
L 235.550693 176.243005 
L 238.324415 176.583993 
L 241.098137 176.92498 
L 243.871859 177.265968 
L 246.645581 177.606955 
L 249.419303 177.947943 
L 252.193025 178.28893 
L 254.966747 178.629918 
L 257.740469 178.970906 
L 260.514191 179.311893 
L 263.287913 179.652881 
L 266.061635 179.993868 
L 268.835357 180.334856 
L 271.609079 180.675843 
L 274.382801 181.016831 
L 277.156524 181.357818 
L 279.930246 181.698806 
L 282.703968 182.039793 
L 285.47769 182.380781 
L 288.251412 182.721768 
L 291.025134 183.062756 
L 293.798856 183.403744 
L 296.572578 183.744731 
L 299.3463 184.085719 
L 302.120022 184.426706 
L 304.893744 184.767694 
L 307.667466 185.108681 
L 310.441188 185.449669 
L 313.21491 185.790656 
L 315.988633 186.131644 
L 318.762355 186.472631 
L 321.536077 186.813619 
L 324.309799 187.154606 
L 327.083521 187.495594 
L 329.857243 187.836582 
L 332.630965 188.177569 
L 335.404687 188.518557 
L 338.178409 188.859544 
" style="fill:none;stroke:#471365;stroke-linecap:round;stroke-width:1.8;"/>
   </g>
   <g id="patch_3">
    <path d="M 49.85 389.9 
L 49.85 81.383333 
" style="fill:none;stroke:#262626;stroke-linecap:square;stroke-linejoin:miter;"/>
   </g>
   <g id="patch_4">
    <path d="M 49.85 389.9 
L 351.908333 389.9 
" style="fill:none;stroke:#262626;stroke-linecap:square;stroke-linejoin:miter;"/>
   </g>
   <g id="legend_1">
    <g id="patch_5">
     <path d="M 198.767708 101.340083 
L 345.748333 101.340083 
Q 347.508333 101.340083 347.508333 99.580083 
L 347.508333 87.543333 
Q 347.508333 85.783333 345.748333 85.783333 
L 198.767708 85.783333 
Q 197.007708 85.783333 197.007708 87.543333 
L 197.007708 99.580083 
Q 197.007708 101.340083 198.767708 101.340083 
z
" style="fill:#ffffff;opacity:0.8;stroke:#cccccc;stroke-linejoin:miter;stroke-width:0.8;"/>
    </g>
    <g id="line2d_13"/>
    <g id="line2d_14"/>
    <g id="text_14">
     <!-- pearsonr = -0.12; p = 0.46 -->
     <defs>
      <path d="M 18.109375 8.203125 
L 18.109375 -20.796875 
L 9.078125 -20.796875 
L 9.078125 54.6875 
L 18.109375 54.6875 
L 18.109375 46.390625 
Q 20.953125 51.265625 25.265625 53.625 
Q 29.59375 56 35.59375 56 
Q 45.5625 56 51.78125 48.09375 
Q 58.015625 40.1875 58.015625 27.296875 
Q 58.015625 14.40625 51.78125 6.484375 
Q 45.5625 -1.421875 35.59375 -1.421875 
Q 29.59375 -1.421875 25.265625 0.953125 
Q 20.953125 3.328125 18.109375 8.203125 
z
M 48.6875 27.296875 
Q 48.6875 37.203125 44.609375 42.84375 
Q 40.53125 48.484375 33.40625 48.484375 
Q 26.265625 48.484375 22.1875 42.84375 
Q 18.109375 37.203125 18.109375 27.296875 
Q 18.109375 17.390625 22.1875 11.75 
Q 26.265625 6.109375 33.40625 6.109375 
Q 40.53125 6.109375 44.609375 11.75 
Q 48.6875 17.390625 48.6875 27.296875 
z
" id="DejaVuSans-70"/>
      <path d="M 44.28125 53.078125 
L 44.28125 44.578125 
Q 40.484375 46.53125 36.375 47.5 
Q 32.28125 48.484375 27.875 48.484375 
Q 21.1875 48.484375 17.84375 46.4375 
Q 14.5 44.390625 14.5 40.28125 
Q 14.5 37.15625 16.890625 35.375 
Q 19.28125 33.59375 26.515625 31.984375 
L 29.59375 31.296875 
Q 39.15625 29.25 43.1875 25.515625 
Q 47.21875 21.78125 47.21875 15.09375 
Q 47.21875 7.46875 41.1875 3.015625 
Q 35.15625 -1.421875 24.609375 -1.421875 
Q 20.21875 -1.421875 15.453125 -0.5625 
Q 10.6875 0.296875 5.421875 2 
L 5.421875 11.28125 
Q 10.40625 8.6875 15.234375 7.390625 
Q 20.0625 6.109375 24.8125 6.109375 
Q 31.15625 6.109375 34.5625 8.28125 
Q 37.984375 10.453125 37.984375 14.40625 
Q 37.984375 18.0625 35.515625 20.015625 
Q 33.0625 21.96875 24.703125 23.78125 
L 21.578125 24.515625 
Q 13.234375 26.265625 9.515625 29.90625 
Q 5.8125 33.546875 5.8125 39.890625 
Q 5.8125 47.609375 11.28125 51.796875 
Q 16.75 56 26.8125 56 
Q 31.78125 56 36.171875 55.265625 
Q 40.578125 54.546875 44.28125 53.078125 
z
" id="DejaVuSans-73"/>
      <path d="M 10.59375 45.40625 
L 73.1875 45.40625 
L 73.1875 37.203125 
L 10.59375 37.203125 
z
M 10.59375 25.484375 
L 73.1875 25.484375 
L 73.1875 17.1875 
L 10.59375 17.1875 
z
" id="DejaVuSans-3d"/>
      <path d="M 4.890625 31.390625 
L 31.203125 31.390625 
L 31.203125 23.390625 
L 4.890625 23.390625 
z
" id="DejaVuSans-2d"/>
      <path d="M 11.71875 51.703125 
L 22.015625 51.703125 
L 22.015625 39.3125 
L 11.71875 39.3125 
z
M 11.71875 12.40625 
L 22.015625 12.40625 
L 22.015625 4 
L 14.015625 -11.625 
L 7.71875 -11.625 
L 11.71875 4 
z
" id="DejaVuSans-3b"/>
     </defs>
     <g style="fill:#262626;" transform="translate(225.167708 95.989958)scale(0.088 -0.088)">
      <use xlink:href="#DejaVuSans-70"/>
      <use x="63.476562" xlink:href="#DejaVuSans-65"/>
      <use x="125" xlink:href="#DejaVuSans-61"/>
      <use x="186.279297" xlink:href="#DejaVuSans-72"/>
      <use x="227.392578" xlink:href="#DejaVuSans-73"/>
      <use x="279.492188" xlink:href="#DejaVuSans-6f"/>
      <use x="340.673828" xlink:href="#DejaVuSans-6e"/>
      <use x="404.052734" xlink:href="#DejaVuSans-72"/>
      <use x="445.166016" xlink:href="#DejaVuSans-20"/>
      <use x="476.953125" xlink:href="#DejaVuSans-3d"/>
      <use x="560.742188" xlink:href="#DejaVuSans-20"/>
      <use x="592.529297" xlink:href="#DejaVuSans-2d"/>
      <use x="628.613281" xlink:href="#DejaVuSans-30"/>
      <use x="692.236328" xlink:href="#DejaVuSans-2e"/>
      <use x="724.023438" xlink:href="#DejaVuSans-31"/>
      <use x="787.646484" xlink:href="#DejaVuSans-32"/>
      <use x="851.269531" xlink:href="#DejaVuSans-3b"/>
      <use x="884.960938" xlink:href="#DejaVuSans-20"/>
      <use x="916.748047" xlink:href="#DejaVuSans-70"/>
      <use x="980.224609" xlink:href="#DejaVuSans-20"/>
      <use x="1012.011719" xlink:href="#DejaVuSans-3d"/>
      <use x="1095.800781" xlink:href="#DejaVuSans-20"/>
      <use x="1127.587891" xlink:href="#DejaVuSans-30"/>
      <use x="1191.210938" xlink:href="#DejaVuSans-2e"/>
      <use x="1222.998047" xlink:href="#DejaVuSans-34"/>
      <use x="1286.621094" xlink:href="#DejaVuSans-36"/>
     </g>
    </g>
   </g>
  </g>
  <g id="axes_2">
   <g id="patch_6">
    <path d="M 49.85 60.983333 
L 351.908333 60.983333 
L 351.908333 15.6 
L 49.85 15.6 
z
" style="fill:#ffffff;"/>
   </g>
   <g id="matplotlib.axis_3">
    <g id="xtick_6">
     <g id="line2d_15">
      <g>
       <use style="fill:#262626;stroke:#262626;" x="71.54719" xlink:href="#m8f88e023cc" y="60.983333"/>
      </g>
     </g>
    </g>
    <g id="xtick_7">
     <g id="line2d_16">
      <g>
       <use style="fill:#262626;stroke:#262626;" x="128.565334" xlink:href="#m8f88e023cc" y="60.983333"/>
      </g>
     </g>
    </g>
    <g id="xtick_8">
     <g id="line2d_17">
      <g>
       <use style="fill:#262626;stroke:#262626;" x="185.583478" xlink:href="#m8f88e023cc" y="60.983333"/>
      </g>
     </g>
    </g>
    <g id="xtick_9">
     <g id="line2d_18">
      <g>
       <use style="fill:#262626;stroke:#262626;" x="242.601621" xlink:href="#m8f88e023cc" y="60.983333"/>
      </g>
     </g>
    </g>
    <g id="xtick_10">
     <g id="line2d_19">
      <g>
       <use style="fill:#262626;stroke:#262626;" x="299.619765" xlink:href="#m8f88e023cc" y="60.983333"/>
      </g>
     </g>
    </g>
   </g>
   <g id="matplotlib.axis_4">
    <g id="ytick_7"/>
    <g id="ytick_8"/>
   </g>
   <g id="patch_7">
    <path clip-path="url(#p71bb20dc60)" d="M 118.657168 60.983333 
L 139.212668 60.983333 
L 139.212668 58.822222 
L 118.657168 58.822222 
z
" style="fill:#471365;opacity:0.4;stroke:#ffffff;stroke-linejoin:miter;stroke-width:0.8;"/>
   </g>
   <g id="patch_8">
    <path clip-path="url(#p71bb20dc60)" d="M 139.212668 60.983333 
L 159.768168 60.983333 
L 159.768168 60.983333 
L 139.212668 60.983333 
z
" style="fill:#471365;opacity:0.4;stroke:#ffffff;stroke-linejoin:miter;stroke-width:0.8;"/>
   </g>
   <g id="patch_9">
    <path clip-path="url(#p71bb20dc60)" d="M 159.768168 60.983333 
L 180.323667 60.983333 
L 180.323667 60.983333 
L 159.768168 60.983333 
z
" style="fill:#471365;opacity:0.4;stroke:#ffffff;stroke-linejoin:miter;stroke-width:0.8;"/>
   </g>
   <g id="patch_10">
    <path clip-path="url(#p71bb20dc60)" d="M 180.323667 60.983333 
L 200.879167 60.983333 
L 200.879167 58.822222 
L 180.323667 58.822222 
z
" style="fill:#471365;opacity:0.4;stroke:#ffffff;stroke-linejoin:miter;stroke-width:0.8;"/>
   </g>
   <g id="patch_11">
    <path clip-path="url(#p71bb20dc60)" d="M 200.879167 60.983333 
L 221.434666 60.983333 
L 221.434666 56.661111 
L 200.879167 56.661111 
z
" style="fill:#471365;opacity:0.4;stroke:#ffffff;stroke-linejoin:miter;stroke-width:0.8;"/>
   </g>
   <g id="patch_12">
    <path clip-path="url(#p71bb20dc60)" d="M 221.434666 60.983333 
L 241.990166 60.983333 
L 241.990166 41.533333 
L 221.434666 41.533333 
z
" style="fill:#471365;opacity:0.4;stroke:#ffffff;stroke-linejoin:miter;stroke-width:0.8;"/>
   </g>
   <g id="patch_13">
    <path clip-path="url(#p71bb20dc60)" d="M 241.990166 60.983333 
L 262.545665 60.983333 
L 262.545665 39.372222 
L 241.990166 39.372222 
z
" style="fill:#471365;opacity:0.4;stroke:#ffffff;stroke-linejoin:miter;stroke-width:0.8;"/>
   </g>
   <g id="patch_14">
    <path clip-path="url(#p71bb20dc60)" d="M 262.545665 60.983333 
L 283.101165 60.983333 
L 283.101165 17.761111 
L 262.545665 17.761111 
z
" style="fill:#471365;opacity:0.4;stroke:#ffffff;stroke-linejoin:miter;stroke-width:0.8;"/>
   </g>
   <g id="line2d_20">
    <path clip-path="url(#p71bb20dc60)" d="M 76.061674 60.968118 
L 78.583239 60.958122 
L 81.104805 60.942826 
L 83.62637 60.920224 
L 86.147936 60.887995 
L 88.669501 60.843675 
L 91.191067 60.784959 
L 93.712632 60.710105 
L 96.234198 60.618423 
L 98.755763 60.510761 
L 101.277329 60.3899 
L 103.798894 60.260736 
L 106.32046 60.130151 
L 108.842025 60.006527 
L 111.363591 59.898916 
L 113.885156 59.815972 
L 116.406722 59.764806 
L 118.928287 59.749983 
L 121.449853 59.772848 
L 123.971418 59.831327 
L 126.492984 59.920232 
L 129.014549 60.032019 
L 131.536115 60.157836 
L 134.05768 60.28866 
L 136.579246 60.416314 
L 139.100811 60.534212 
L 141.622377 60.63774 
L 144.143943 60.72427 
L 146.665508 60.792868 
L 149.187074 60.843809 
L 151.708639 60.878005 
L 154.230205 60.896466 
L 156.75177 60.899863 
L 159.273336 60.88826 
L 161.794901 60.861027 
L 164.316467 60.816936 
L 166.838032 60.754408 
L 169.359598 60.671851 
L 171.881163 60.568007 
L 174.402729 60.442186 
L 176.924294 60.294265 
L 179.44586 60.124365 
L 181.967425 59.932129 
L 184.488991 59.715682 
L 187.010556 59.470415 
L 189.532122 59.187887 
L 192.053687 58.855212 
L 194.575253 58.455282 
L 197.096818 57.968093 
L 199.618384 57.373229 
L 202.139949 56.653265 
L 204.661515 55.797582 
L 207.18308 54.805827 
L 209.704646 53.690195 
L 212.226211 52.475776 
L 214.747777 51.198584 
L 217.269343 49.901312 
L 219.790908 48.627412 
L 222.312474 47.414565 
L 224.834039 46.288843 
L 227.355605 45.260815 
L 229.87717 44.324494 
L 232.398736 43.459431 
L 234.920301 42.63553 
L 237.441867 41.819617 
L 239.963432 40.982374 
L 242.484998 40.104284 
L 245.006563 39.179534 
L 247.528129 38.217381 
L 250.049694 37.241098 
L 252.57126 36.28514 
L 255.092825 35.391442 
L 257.614391 34.605708 
L 260.135956 33.974315 
L 262.657522 33.542007 
L 265.179087 33.350172 
L 267.700653 33.435234 
L 270.222218 33.826666 
L 272.743784 34.544384 
L 275.265349 35.595603 
L 277.786915 36.971702 
L 280.30848 38.645901 
L 282.830046 40.572589 
L 285.351612 42.68897 
L 287.873177 44.919167 
L 290.394743 47.180438 
L 292.916308 49.390588 
L 295.437874 51.475404 
L 297.959439 53.374912 
L 300.481005 55.047505 
L 303.00257 56.471466 
L 305.524136 57.643947 
L 308.045701 58.577907 
L 310.567267 59.297783 
L 313.088832 59.834783 
L 315.610398 60.222528 
L 318.131963 60.493569 
L 320.653529 60.677007 
L 323.175094 60.797224 
L 325.69666 60.873519 
" style="fill:none;stroke:#471365;stroke-linecap:round;stroke-width:1.2;"/>
   </g>
   <g id="patch_15">
    <path d="M 49.85 60.983333 
L 351.908333 60.983333 
" style="fill:none;stroke:#262626;stroke-linecap:square;stroke-linejoin:miter;"/>
   </g>
  </g>
  <g id="axes_3">
   <g id="patch_16">
    <path d="M 372.308333 389.9 
L 416.4 389.9 
L 416.4 81.383333 
L 372.308333 81.383333 
z
" style="fill:#ffffff;"/>
   </g>
   <g id="matplotlib.axis_5">
    <g id="xtick_11"/>
    <g id="xtick_12"/>
   </g>
   <g id="matplotlib.axis_6">
    <g id="ytick_9">
     <g id="line2d_21">
      <g>
       <use style="fill:#262626;stroke:#262626;" x="372.308333" xlink:href="#m5ac97ebdc7" y="389.9"/>
      </g>
     </g>
    </g>
    <g id="ytick_10">
     <g id="line2d_22">
      <g>
       <use style="fill:#262626;stroke:#262626;" x="372.308333" xlink:href="#m5ac97ebdc7" y="333.806061"/>
      </g>
     </g>
    </g>
    <g id="ytick_11">
     <g id="line2d_23">
      <g>
       <use style="fill:#262626;stroke:#262626;" x="372.308333" xlink:href="#m5ac97ebdc7" y="277.712121"/>
      </g>
     </g>
    </g>
    <g id="ytick_12">
     <g id="line2d_24">
      <g>
       <use style="fill:#262626;stroke:#262626;" x="372.308333" xlink:href="#m5ac97ebdc7" y="221.618182"/>
      </g>
     </g>
    </g>
    <g id="ytick_13">
     <g id="line2d_25">
      <g>
       <use style="fill:#262626;stroke:#262626;" x="372.308333" xlink:href="#m5ac97ebdc7" y="165.524242"/>
      </g>
     </g>
    </g>
    <g id="ytick_14">
     <g id="line2d_26">
      <g>
       <use style="fill:#262626;stroke:#262626;" x="372.308333" xlink:href="#m5ac97ebdc7" y="109.430303"/>
      </g>
     </g>
    </g>
   </g>
   <g id="patch_17">
    <path clip-path="url(#pd9ccea8d3d)" d="M 372.308333 272.702087 
L 375.807672 272.702087 
L 375.807672 250.863871 
L 372.308333 250.863871 
z
" style="fill:#471365;opacity:0.4;stroke:#ffffff;stroke-linejoin:miter;stroke-width:0.8;"/>
   </g>
   <g id="patch_18">
    <path clip-path="url(#pd9ccea8d3d)" d="M 372.308333 250.863871 
L 372.308333 250.863871 
L 372.308333 229.025655 
L 372.308333 229.025655 
z
" style="fill:#471365;opacity:0.4;stroke:#ffffff;stroke-linejoin:miter;stroke-width:0.8;"/>
   </g>
   <g id="patch_19">
    <path clip-path="url(#pd9ccea8d3d)" d="M 372.308333 229.025655 
L 403.802381 229.025655 
L 403.802381 207.18744 
L 372.308333 207.18744 
z
" style="fill:#471365;opacity:0.4;stroke:#ffffff;stroke-linejoin:miter;stroke-width:0.8;"/>
   </g>
   <g id="patch_20">
    <path clip-path="url(#pd9ccea8d3d)" d="M 372.308333 207.18744 
L 400.303042 207.18744 
L 400.303042 185.349224 
L 372.308333 185.349224 
z
" style="fill:#471365;opacity:0.4;stroke:#ffffff;stroke-linejoin:miter;stroke-width:0.8;"/>
   </g>
   <g id="patch_21">
    <path clip-path="url(#pd9ccea8d3d)" d="M 372.308333 185.349224 
L 414.300397 185.349224 
L 414.300397 163.511008 
L 372.308333 163.511008 
z
" style="fill:#471365;opacity:0.4;stroke:#ffffff;stroke-linejoin:miter;stroke-width:0.8;"/>
   </g>
   <g id="patch_22">
    <path clip-path="url(#pd9ccea8d3d)" d="M 372.308333 163.511008 
L 400.303042 163.511008 
L 400.303042 141.672792 
L 372.308333 141.672792 
z
" style="fill:#471365;opacity:0.4;stroke:#ffffff;stroke-linejoin:miter;stroke-width:0.8;"/>
   </g>
   <g id="patch_23">
    <path clip-path="url(#pd9ccea8d3d)" d="M 372.308333 141.672792 
L 389.805026 141.672792 
L 389.805026 119.834576 
L 372.308333 119.834576 
z
" style="fill:#471365;opacity:0.4;stroke:#ffffff;stroke-linejoin:miter;stroke-width:0.8;"/>
   </g>
   <g id="line2d_27">
    <path clip-path="url(#pd9ccea8d3d)" d="M 372.332901 318.083586 
L 372.347398 315.622672 
L 372.368863 313.161758 
L 372.399731 310.700844 
L 372.442817 308.23993 
L 372.501165 305.779015 
L 372.577775 303.318101 
L 372.675216 300.857187 
L 372.795154 298.396273 
L 372.93783 295.935358 
L 373.101578 293.474444 
L 373.282471 291.01353 
L 373.474203 288.552616 
L 373.668293 286.091701 
L 373.854647 283.630787 
L 374.022483 281.169873 
L 374.161532 278.708959 
L 374.26339 276.248044 
L 374.322854 273.78713 
L 374.33907 271.326216 
L 374.316355 268.865302 
L 374.264609 266.404387 
L 374.199289 263.943473 
L 374.141005 261.482559 
L 374.114791 259.021645 
L 374.149145 256.560731 
L 374.274867 254.099816 
L 374.523702 251.638902 
L 374.926727 249.177988 
L 375.512441 246.717074 
L 376.304519 244.256159 
L 377.319307 241.795245 
L 378.563258 239.334331 
L 380.03064 236.873417 
L 381.701967 234.412502 
L 383.543602 231.951588 
L 385.508903 229.490674 
L 387.541072 227.02976 
L 389.57756 224.568845 
L 391.555564 222.107931 
L 393.417887 219.647017 
L 395.118278 217.186103 
L 396.62545 214.725188 
L 397.925175 212.264274 
L 399.020231 209.80336 
L 399.928375 207.342446 
L 400.678857 204.881532 
L 401.308134 202.420617 
L 401.855493 199.959703 
L 402.359064 197.498789 
L 402.852506 195.037875 
L 403.36239 192.57696 
L 403.906182 190.116046 
L 404.49073 187.655132 
L 405.111276 185.194218 
L 405.75114 182.733303 
L 406.382352 180.272389 
L 406.967479 177.811475 
L 407.462717 175.350561 
L 407.822099 172.889646 
L 408.002352 170.428732 
L 407.967741 167.967818 
L 407.694147 165.506904 
L 407.171738 163.045989 
L 406.405832 160.585075 
L 405.415864 158.124161 
L 404.232717 155.663247 
L 402.894913 153.202333 
L 401.444304 150.741418 
L 399.921882 148.280504 
L 398.364246 145.81959 
L 396.801076 143.358676 
L 395.253773 140.897761 
L 393.73529 138.436847 
L 392.250986 135.975933 
L 390.800298 133.515019 
L 389.378933 131.054104 
L 387.981264 128.59319 
L 386.602608 126.132276 
L 385.241108 123.671362 
L 383.898974 121.210447 
L 382.582957 118.749533 
L 381.304025 116.288619 
L 380.076317 113.827705 
L 378.915593 111.36679 
L 377.837424 108.905876 
L 376.855428 106.444962 
L 375.979794 103.984048 
L 375.216314 101.523134 
L 374.565989 99.062219 
L 374.025223 96.601305 
L 373.586494 94.140391 
L 373.23935 91.679477 
L 372.971553 89.218562 
L 372.77019 86.757648 
L 372.622638 84.296734 
L 372.517287 81.83582 
L 372.444003 79.374905 
L 372.394342 76.913991 
L 372.36156 74.453077 
" style="fill:none;stroke:#471365;stroke-linecap:round;stroke-width:1.2;"/>
   </g>
   <g id="patch_24">
    <path d="M 372.308333 389.9 
L 372.308333 81.383333 
" style="fill:none;stroke:#262626;stroke-linecap:square;stroke-linejoin:miter;"/>
   </g>
  </g>
 </g>
 <defs>
  <clipPath id="p33c76da16c">
   <rect height="308.516667" width="302.058333" x="49.85" y="81.383333"/>
  </clipPath>
  <clipPath id="p71bb20dc60">
   <rect height="45.383333" width="302.058333" x="49.85" y="15.6"/>
  </clipPath>
  <clipPath id="pd9ccea8d3d">
   <rect height="308.516667" width="44.091667" x="372.308333" y="81.383333"/>
  </clipPath>
 </defs>
</svg>
