<?xml version="1.0" encoding="utf-8" standalone="no"?>
<!DOCTYPE svg PUBLIC "-//W3C//DTD SVG 1.1//EN"
  "http://www.w3.org/Graphics/SVG/1.1/DTD/svg11.dtd">
<!-- Created with matplotlib (http://matplotlib.org/) -->
<svg height="432pt" version="1.1" viewBox="0 0 432 432" width="432pt" xmlns="http://www.w3.org/2000/svg" xmlns:xlink="http://www.w3.org/1999/xlink">
 <defs>
  <style type="text/css">
*{stroke-linecap:butt;stroke-linejoin:round;}
  </style>
 </defs>
 <g id="figure_1">
  <g id="patch_1">
   <path d="M 0 432 
L 432 432 
L 432 0 
L 0 0 
z
" style="fill:#ffffff;"/>
  </g>
  <g id="axes_1">
   <g id="patch_2">
    <path d="M 49.85 389.9 
L 351.908333 389.9 
L 351.908333 81.383333 
L 49.85 81.383333 
z
" style="fill:#ffffff;"/>
   </g>
   <g id="matplotlib.axis_1">
    <g id="xtick_1">
     <g id="line2d_1">
      <defs>
       <path d="M 0 0 
L 0 4.8 
" id="me9cdd16c28" style="stroke:#262626;"/>
      </defs>
      <g>
       <use style="fill:#262626;stroke:#262626;" x="61.725111" xlink:href="#me9cdd16c28" y="389.9"/>
      </g>
     </g>
     <g id="text_1">
      <!-- −2 -->
      <defs>
       <path d="M 10.59375 35.5 
L 73.1875 35.5 
L 73.1875 27.203125 
L 10.59375 27.203125 
z
" id="DejaVuSans-2212"/>
       <path d="M 19.1875 8.296875 
L 53.609375 8.296875 
L 53.609375 0 
L 7.328125 0 
L 7.328125 8.296875 
Q 12.9375 14.109375 22.625 23.890625 
Q 32.328125 33.6875 34.8125 36.53125 
Q 39.546875 41.84375 41.421875 45.53125 
Q 43.3125 49.21875 43.3125 52.78125 
Q 43.3125 58.59375 39.234375 62.25 
Q 35.15625 65.921875 28.609375 65.921875 
Q 23.96875 65.921875 18.8125 64.3125 
Q 13.671875 62.703125 7.8125 59.421875 
L 7.8125 69.390625 
Q 13.765625 71.78125 18.9375 73 
Q 24.125 74.21875 28.421875 74.21875 
Q 39.75 74.21875 46.484375 68.546875 
Q 53.21875 62.890625 53.21875 53.421875 
Q 53.21875 48.921875 51.53125 44.890625 
Q 49.859375 40.875 45.40625 35.40625 
Q 44.1875 33.984375 37.640625 27.21875 
Q 31.109375 20.453125 19.1875 8.296875 
z
" id="DejaVuSans-32"/>
      </defs>
      <g style="fill:#262626;" transform="translate(55.238548 404.886625)scale(0.088 -0.088)">
       <use xlink:href="#DejaVuSans-2212"/>
       <use x="83.789062" xlink:href="#DejaVuSans-32"/>
      </g>
     </g>
    </g>
    <g id="xtick_2">
     <g id="line2d_2">
      <g>
       <use style="fill:#262626;stroke:#262626;" x="102.874159" xlink:href="#me9cdd16c28" y="389.9"/>
      </g>
     </g>
     <g id="text_2">
      <!-- 0 -->
      <defs>
       <path d="M 31.78125 66.40625 
Q 24.171875 66.40625 20.328125 58.90625 
Q 16.5 51.421875 16.5 36.375 
Q 16.5 21.390625 20.328125 13.890625 
Q 24.171875 6.390625 31.78125 6.390625 
Q 39.453125 6.390625 43.28125 13.890625 
Q 47.125 21.390625 47.125 36.375 
Q 47.125 51.421875 43.28125 58.90625 
Q 39.453125 66.40625 31.78125 66.40625 
z
M 31.78125 74.21875 
Q 44.046875 74.21875 50.515625 64.515625 
Q 56.984375 54.828125 56.984375 36.375 
Q 56.984375 17.96875 50.515625 8.265625 
Q 44.046875 -1.421875 31.78125 -1.421875 
Q 19.53125 -1.421875 13.0625 8.265625 
Q 6.59375 17.96875 6.59375 36.375 
Q 6.59375 54.828125 13.0625 64.515625 
Q 19.53125 74.21875 31.78125 74.21875 
z
" id="DejaVuSans-30"/>
      </defs>
      <g style="fill:#262626;" transform="translate(100.074659 404.886625)scale(0.088 -0.088)">
       <use xlink:href="#DejaVuSans-30"/>
      </g>
     </g>
    </g>
    <g id="xtick_3">
     <g id="line2d_3">
      <g>
       <use style="fill:#262626;stroke:#262626;" x="144.023207" xlink:href="#me9cdd16c28" y="389.9"/>
      </g>
     </g>
     <g id="text_3">
      <!-- 2 -->
      <g style="fill:#262626;" transform="translate(141.223707 404.886625)scale(0.088 -0.088)">
       <use xlink:href="#DejaVuSans-32"/>
      </g>
     </g>
    </g>
    <g id="xtick_4">
     <g id="line2d_4">
      <g>
       <use style="fill:#262626;stroke:#262626;" x="185.172255" xlink:href="#me9cdd16c28" y="389.9"/>
      </g>
     </g>
     <g id="text_4">
      <!-- 4 -->
      <defs>
       <path d="M 37.796875 64.3125 
L 12.890625 25.390625 
L 37.796875 25.390625 
z
M 35.203125 72.90625 
L 47.609375 72.90625 
L 47.609375 25.390625 
L 58.015625 25.390625 
L 58.015625 17.1875 
L 47.609375 17.1875 
L 47.609375 0 
L 37.796875 0 
L 37.796875 17.1875 
L 4.890625 17.1875 
L 4.890625 26.703125 
z
" id="DejaVuSans-34"/>
      </defs>
      <g style="fill:#262626;" transform="translate(182.372755 404.886625)scale(0.088 -0.088)">
       <use xlink:href="#DejaVuSans-34"/>
      </g>
     </g>
    </g>
    <g id="xtick_5">
     <g id="line2d_5">
      <g>
       <use style="fill:#262626;stroke:#262626;" x="226.321303" xlink:href="#me9cdd16c28" y="389.9"/>
      </g>
     </g>
     <g id="text_5">
      <!-- 6 -->
      <defs>
       <path d="M 33.015625 40.375 
Q 26.375 40.375 22.484375 35.828125 
Q 18.609375 31.296875 18.609375 23.390625 
Q 18.609375 15.53125 22.484375 10.953125 
Q 26.375 6.390625 33.015625 6.390625 
Q 39.65625 6.390625 43.53125 10.953125 
Q 47.40625 15.53125 47.40625 23.390625 
Q 47.40625 31.296875 43.53125 35.828125 
Q 39.65625 40.375 33.015625 40.375 
z
M 52.59375 71.296875 
L 52.59375 62.3125 
Q 48.875 64.0625 45.09375 64.984375 
Q 41.3125 65.921875 37.59375 65.921875 
Q 27.828125 65.921875 22.671875 59.328125 
Q 17.53125 52.734375 16.796875 39.40625 
Q 19.671875 43.65625 24.015625 45.921875 
Q 28.375 48.1875 33.59375 48.1875 
Q 44.578125 48.1875 50.953125 41.515625 
Q 57.328125 34.859375 57.328125 23.390625 
Q 57.328125 12.15625 50.6875 5.359375 
Q 44.046875 -1.421875 33.015625 -1.421875 
Q 20.359375 -1.421875 13.671875 8.265625 
Q 6.984375 17.96875 6.984375 36.375 
Q 6.984375 53.65625 15.1875 63.9375 
Q 23.390625 74.21875 37.203125 74.21875 
Q 40.921875 74.21875 44.703125 73.484375 
Q 48.484375 72.75 52.59375 71.296875 
z
" id="DejaVuSans-36"/>
      </defs>
      <g style="fill:#262626;" transform="translate(223.521803 404.886625)scale(0.088 -0.088)">
       <use xlink:href="#DejaVuSans-36"/>
      </g>
     </g>
    </g>
    <g id="xtick_6">
     <g id="line2d_6">
      <g>
       <use style="fill:#262626;stroke:#262626;" x="267.470351" xlink:href="#me9cdd16c28" y="389.9"/>
      </g>
     </g>
     <g id="text_6">
      <!-- 8 -->
      <defs>
       <path d="M 31.78125 34.625 
Q 24.75 34.625 20.71875 30.859375 
Q 16.703125 27.09375 16.703125 20.515625 
Q 16.703125 13.921875 20.71875 10.15625 
Q 24.75 6.390625 31.78125 6.390625 
Q 38.8125 6.390625 42.859375 10.171875 
Q 46.921875 13.96875 46.921875 20.515625 
Q 46.921875 27.09375 42.890625 30.859375 
Q 38.875 34.625 31.78125 34.625 
z
M 21.921875 38.8125 
Q 15.578125 40.375 12.03125 44.71875 
Q 8.5 49.078125 8.5 55.328125 
Q 8.5 64.0625 14.71875 69.140625 
Q 20.953125 74.21875 31.78125 74.21875 
Q 42.671875 74.21875 48.875 69.140625 
Q 55.078125 64.0625 55.078125 55.328125 
Q 55.078125 49.078125 51.53125 44.71875 
Q 48 40.375 41.703125 38.8125 
Q 48.828125 37.15625 52.796875 32.3125 
Q 56.78125 27.484375 56.78125 20.515625 
Q 56.78125 9.90625 50.3125 4.234375 
Q 43.84375 -1.421875 31.78125 -1.421875 
Q 19.734375 -1.421875 13.25 4.234375 
Q 6.78125 9.90625 6.78125 20.515625 
Q 6.78125 27.484375 10.78125 32.3125 
Q 14.796875 37.15625 21.921875 38.8125 
z
M 18.3125 54.390625 
Q 18.3125 48.734375 21.84375 45.5625 
Q 25.390625 42.390625 31.78125 42.390625 
Q 38.140625 42.390625 41.71875 45.5625 
Q 45.3125 48.734375 45.3125 54.390625 
Q 45.3125 60.0625 41.71875 63.234375 
Q 38.140625 66.40625 31.78125 66.40625 
Q 25.390625 66.40625 21.84375 63.234375 
Q 18.3125 60.0625 18.3125 54.390625 
z
" id="DejaVuSans-38"/>
      </defs>
      <g style="fill:#262626;" transform="translate(264.670851 404.886625)scale(0.088 -0.088)">
       <use xlink:href="#DejaVuSans-38"/>
      </g>
     </g>
    </g>
    <g id="xtick_7">
     <g id="line2d_7">
      <g>
       <use style="fill:#262626;stroke:#262626;" x="308.6194" xlink:href="#me9cdd16c28" y="389.9"/>
      </g>
     </g>
     <g id="text_7">
      <!-- 10 -->
      <defs>
       <path d="M 12.40625 8.296875 
L 28.515625 8.296875 
L 28.515625 63.921875 
L 10.984375 60.40625 
L 10.984375 69.390625 
L 28.421875 72.90625 
L 38.28125 72.90625 
L 38.28125 8.296875 
L 54.390625 8.296875 
L 54.390625 0 
L 12.40625 0 
z
" id="DejaVuSans-31"/>
      </defs>
      <g style="fill:#262626;" transform="translate(303.0204 404.886625)scale(0.088 -0.088)">
       <use xlink:href="#DejaVuSans-31"/>
       <use x="63.623047" xlink:href="#DejaVuSans-30"/>
      </g>
     </g>
    </g>
    <g id="xtick_8">
     <g id="line2d_8">
      <g>
       <use style="fill:#262626;stroke:#262626;" x="349.768448" xlink:href="#me9cdd16c28" y="389.9"/>
      </g>
     </g>
     <g id="text_8">
      <!-- 12 -->
      <g style="fill:#262626;" transform="translate(344.169448 404.886625)scale(0.088 -0.088)">
       <use xlink:href="#DejaVuSans-31"/>
       <use x="63.623047" xlink:href="#DejaVuSans-32"/>
      </g>
     </g>
    </g>
    <g id="text_9">
     <!-- g(k-1) -->
     <defs>
      <path d="M 45.40625 27.984375 
Q 45.40625 37.75 41.375 43.109375 
Q 37.359375 48.484375 30.078125 48.484375 
Q 22.859375 48.484375 18.828125 43.109375 
Q 14.796875 37.75 14.796875 27.984375 
Q 14.796875 18.265625 18.828125 12.890625 
Q 22.859375 7.515625 30.078125 7.515625 
Q 37.359375 7.515625 41.375 12.890625 
Q 45.40625 18.265625 45.40625 27.984375 
z
M 54.390625 6.78125 
Q 54.390625 -7.171875 48.1875 -13.984375 
Q 42 -20.796875 29.203125 -20.796875 
Q 24.46875 -20.796875 20.265625 -20.09375 
Q 16.0625 -19.390625 12.109375 -17.921875 
L 12.109375 -9.1875 
Q 16.0625 -11.328125 19.921875 -12.34375 
Q 23.78125 -13.375 27.78125 -13.375 
Q 36.625 -13.375 41.015625 -8.765625 
Q 45.40625 -4.15625 45.40625 5.171875 
L 45.40625 9.625 
Q 42.625 4.78125 38.28125 2.390625 
Q 33.9375 0 27.875 0 
Q 17.828125 0 11.671875 7.65625 
Q 5.515625 15.328125 5.515625 27.984375 
Q 5.515625 40.671875 11.671875 48.328125 
Q 17.828125 56 27.875 56 
Q 33.9375 56 38.28125 53.609375 
Q 42.625 51.21875 45.40625 46.390625 
L 45.40625 54.6875 
L 54.390625 54.6875 
z
" id="DejaVuSans-67"/>
      <path d="M 31 75.875 
Q 24.46875 64.65625 21.28125 53.65625 
Q 18.109375 42.671875 18.109375 31.390625 
Q 18.109375 20.125 21.3125 9.0625 
Q 24.515625 -2 31 -13.1875 
L 23.1875 -13.1875 
Q 15.875 -1.703125 12.234375 9.375 
Q 8.59375 20.453125 8.59375 31.390625 
Q 8.59375 42.28125 12.203125 53.3125 
Q 15.828125 64.359375 23.1875 75.875 
z
" id="DejaVuSans-28"/>
      <path d="M 9.078125 75.984375 
L 18.109375 75.984375 
L 18.109375 31.109375 
L 44.921875 54.6875 
L 56.390625 54.6875 
L 27.390625 29.109375 
L 57.625 0 
L 45.90625 0 
L 18.109375 26.703125 
L 18.109375 0 
L 9.078125 0 
z
" id="DejaVuSans-6b"/>
      <path d="M 4.890625 31.390625 
L 31.203125 31.390625 
L 31.203125 23.390625 
L 4.890625 23.390625 
z
" id="DejaVuSans-2d"/>
      <path d="M 8.015625 75.875 
L 15.828125 75.875 
Q 23.140625 64.359375 26.78125 53.3125 
Q 30.421875 42.28125 30.421875 31.390625 
Q 30.421875 20.453125 26.78125 9.375 
Q 23.140625 -1.703125 15.828125 -13.1875 
L 8.015625 -13.1875 
Q 14.5 -2 17.703125 9.0625 
Q 20.90625 20.125 20.90625 31.390625 
Q 20.90625 42.671875 17.703125 53.65625 
Q 14.5 64.65625 8.015625 75.875 
z
" id="DejaVuSans-29"/>
     </defs>
     <g style="fill:#262626;" transform="translate(186.521167 418.01125)scale(0.096 -0.096)">
      <use xlink:href="#DejaVuSans-67"/>
      <use x="63.476562" xlink:href="#DejaVuSans-28"/>
      <use x="102.490234" xlink:href="#DejaVuSans-6b"/>
      <use x="160.400391" xlink:href="#DejaVuSans-2d"/>
      <use x="196.484375" xlink:href="#DejaVuSans-31"/>
      <use x="260.107422" xlink:href="#DejaVuSans-29"/>
     </g>
    </g>
   </g>
   <g id="matplotlib.axis_2">
    <g id="ytick_1">
     <g id="line2d_9">
      <defs>
       <path d="M 0 0 
L -4.8 0 
" id="m07da76a65e" style="stroke:#262626;"/>
      </defs>
      <g>
       <use style="fill:#262626;stroke:#262626;" x="49.85" xlink:href="#m07da76a65e" y="389.9"/>
      </g>
     </g>
     <g id="text_10">
      <!-- 0 -->
      <g style="fill:#262626;" transform="translate(35.951 393.243313)scale(0.088 -0.088)">
       <use xlink:href="#DejaVuSans-30"/>
      </g>
     </g>
    </g>
    <g id="ytick_2">
     <g id="line2d_10">
      <g>
       <use style="fill:#262626;stroke:#262626;" x="49.85" xlink:href="#m07da76a65e" y="333.806061"/>
      </g>
     </g>
     <g id="text_11">
      <!-- 20 -->
      <g style="fill:#262626;" transform="translate(30.352 337.149373)scale(0.088 -0.088)">
       <use xlink:href="#DejaVuSans-32"/>
       <use x="63.623047" xlink:href="#DejaVuSans-30"/>
      </g>
     </g>
    </g>
    <g id="ytick_3">
     <g id="line2d_11">
      <g>
       <use style="fill:#262626;stroke:#262626;" x="49.85" xlink:href="#m07da76a65e" y="277.712121"/>
      </g>
     </g>
     <g id="text_12">
      <!-- 40 -->
      <g style="fill:#262626;" transform="translate(30.352 281.055434)scale(0.088 -0.088)">
       <use xlink:href="#DejaVuSans-34"/>
       <use x="63.623047" xlink:href="#DejaVuSans-30"/>
      </g>
     </g>
    </g>
    <g id="ytick_4">
     <g id="line2d_12">
      <g>
       <use style="fill:#262626;stroke:#262626;" x="49.85" xlink:href="#m07da76a65e" y="221.618182"/>
      </g>
     </g>
     <g id="text_13">
      <!-- 60 -->
      <g style="fill:#262626;" transform="translate(30.352 224.961494)scale(0.088 -0.088)">
       <use xlink:href="#DejaVuSans-36"/>
       <use x="63.623047" xlink:href="#DejaVuSans-30"/>
      </g>
     </g>
    </g>
    <g id="ytick_5">
     <g id="line2d_13">
      <g>
       <use style="fill:#262626;stroke:#262626;" x="49.85" xlink:href="#m07da76a65e" y="165.524242"/>
      </g>
     </g>
     <g id="text_14">
      <!-- 80 -->
      <g style="fill:#262626;" transform="translate(30.352 168.867555)scale(0.088 -0.088)">
       <use xlink:href="#DejaVuSans-38"/>
       <use x="63.623047" xlink:href="#DejaVuSans-30"/>
      </g>
     </g>
    </g>
    <g id="ytick_6">
     <g id="line2d_14">
      <g>
       <use style="fill:#262626;stroke:#262626;" x="49.85" xlink:href="#m07da76a65e" y="109.430303"/>
      </g>
     </g>
     <g id="text_15">
      <!-- 100 -->
      <g style="fill:#262626;" transform="translate(24.753 112.773616)scale(0.088 -0.088)">
       <use xlink:href="#DejaVuSans-31"/>
       <use x="63.623047" xlink:href="#DejaVuSans-30"/>
       <use x="127.246094" xlink:href="#DejaVuSans-30"/>
      </g>
     </g>
    </g>
    <g id="text_16">
     <!-- Time to cancer -->
     <defs>
      <path d="M -0.296875 72.90625 
L 61.375 72.90625 
L 61.375 64.59375 
L 35.5 64.59375 
L 35.5 0 
L 25.59375 0 
L 25.59375 64.59375 
L -0.296875 64.59375 
z
" id="DejaVuSans-54"/>
      <path d="M 9.421875 54.6875 
L 18.40625 54.6875 
L 18.40625 0 
L 9.421875 0 
z
M 9.421875 75.984375 
L 18.40625 75.984375 
L 18.40625 64.59375 
L 9.421875 64.59375 
z
" id="DejaVuSans-69"/>
      <path d="M 52 44.1875 
Q 55.375 50.25 60.0625 53.125 
Q 64.75 56 71.09375 56 
Q 79.640625 56 84.28125 50.015625 
Q 88.921875 44.046875 88.921875 33.015625 
L 88.921875 0 
L 79.890625 0 
L 79.890625 32.71875 
Q 79.890625 40.578125 77.09375 44.375 
Q 74.3125 48.1875 68.609375 48.1875 
Q 61.625 48.1875 57.5625 43.546875 
Q 53.515625 38.921875 53.515625 30.90625 
L 53.515625 0 
L 44.484375 0 
L 44.484375 32.71875 
Q 44.484375 40.625 41.703125 44.40625 
Q 38.921875 48.1875 33.109375 48.1875 
Q 26.21875 48.1875 22.15625 43.53125 
Q 18.109375 38.875 18.109375 30.90625 
L 18.109375 0 
L 9.078125 0 
L 9.078125 54.6875 
L 18.109375 54.6875 
L 18.109375 46.1875 
Q 21.1875 51.21875 25.484375 53.609375 
Q 29.78125 56 35.6875 56 
Q 41.65625 56 45.828125 52.96875 
Q 50 49.953125 52 44.1875 
z
" id="DejaVuSans-6d"/>
      <path d="M 56.203125 29.59375 
L 56.203125 25.203125 
L 14.890625 25.203125 
Q 15.484375 15.921875 20.484375 11.0625 
Q 25.484375 6.203125 34.421875 6.203125 
Q 39.59375 6.203125 44.453125 7.46875 
Q 49.3125 8.734375 54.109375 11.28125 
L 54.109375 2.78125 
Q 49.265625 0.734375 44.1875 -0.34375 
Q 39.109375 -1.421875 33.890625 -1.421875 
Q 20.796875 -1.421875 13.15625 6.1875 
Q 5.515625 13.8125 5.515625 26.8125 
Q 5.515625 40.234375 12.765625 48.109375 
Q 20.015625 56 32.328125 56 
Q 43.359375 56 49.78125 48.890625 
Q 56.203125 41.796875 56.203125 29.59375 
z
M 47.21875 32.234375 
Q 47.125 39.59375 43.09375 43.984375 
Q 39.0625 48.390625 32.421875 48.390625 
Q 24.90625 48.390625 20.390625 44.140625 
Q 15.875 39.890625 15.1875 32.171875 
z
" id="DejaVuSans-65"/>
      <path id="DejaVuSans-20"/>
      <path d="M 18.3125 70.21875 
L 18.3125 54.6875 
L 36.8125 54.6875 
L 36.8125 47.703125 
L 18.3125 47.703125 
L 18.3125 18.015625 
Q 18.3125 11.328125 20.140625 9.421875 
Q 21.96875 7.515625 27.59375 7.515625 
L 36.8125 7.515625 
L 36.8125 0 
L 27.59375 0 
Q 17.1875 0 13.234375 3.875 
Q 9.28125 7.765625 9.28125 18.015625 
L 9.28125 47.703125 
L 2.6875 47.703125 
L 2.6875 54.6875 
L 9.28125 54.6875 
L 9.28125 70.21875 
z
" id="DejaVuSans-74"/>
      <path d="M 30.609375 48.390625 
Q 23.390625 48.390625 19.1875 42.75 
Q 14.984375 37.109375 14.984375 27.296875 
Q 14.984375 17.484375 19.15625 11.84375 
Q 23.34375 6.203125 30.609375 6.203125 
Q 37.796875 6.203125 41.984375 11.859375 
Q 46.1875 17.53125 46.1875 27.296875 
Q 46.1875 37.015625 41.984375 42.703125 
Q 37.796875 48.390625 30.609375 48.390625 
z
M 30.609375 56 
Q 42.328125 56 49.015625 48.375 
Q 55.71875 40.765625 55.71875 27.296875 
Q 55.71875 13.875 49.015625 6.21875 
Q 42.328125 -1.421875 30.609375 -1.421875 
Q 18.84375 -1.421875 12.171875 6.21875 
Q 5.515625 13.875 5.515625 27.296875 
Q 5.515625 40.765625 12.171875 48.375 
Q 18.84375 56 30.609375 56 
z
" id="DejaVuSans-6f"/>
      <path d="M 48.78125 52.59375 
L 48.78125 44.1875 
Q 44.96875 46.296875 41.140625 47.34375 
Q 37.3125 48.390625 33.40625 48.390625 
Q 24.65625 48.390625 19.8125 42.84375 
Q 14.984375 37.3125 14.984375 27.296875 
Q 14.984375 17.28125 19.8125 11.734375 
Q 24.65625 6.203125 33.40625 6.203125 
Q 37.3125 6.203125 41.140625 7.25 
Q 44.96875 8.296875 48.78125 10.40625 
L 48.78125 2.09375 
Q 45.015625 0.34375 40.984375 -0.53125 
Q 36.96875 -1.421875 32.421875 -1.421875 
Q 20.0625 -1.421875 12.78125 6.34375 
Q 5.515625 14.109375 5.515625 27.296875 
Q 5.515625 40.671875 12.859375 48.328125 
Q 20.21875 56 33.015625 56 
Q 37.15625 56 41.109375 55.140625 
Q 45.0625 54.296875 48.78125 52.59375 
z
" id="DejaVuSans-63"/>
      <path d="M 34.28125 27.484375 
Q 23.390625 27.484375 19.1875 25 
Q 14.984375 22.515625 14.984375 16.5 
Q 14.984375 11.71875 18.140625 8.90625 
Q 21.296875 6.109375 26.703125 6.109375 
Q 34.1875 6.109375 38.703125 11.40625 
Q 43.21875 16.703125 43.21875 25.484375 
L 43.21875 27.484375 
z
M 52.203125 31.203125 
L 52.203125 0 
L 43.21875 0 
L 43.21875 8.296875 
Q 40.140625 3.328125 35.546875 0.953125 
Q 30.953125 -1.421875 24.3125 -1.421875 
Q 15.921875 -1.421875 10.953125 3.296875 
Q 6 8.015625 6 15.921875 
Q 6 25.140625 12.171875 29.828125 
Q 18.359375 34.515625 30.609375 34.515625 
L 43.21875 34.515625 
L 43.21875 35.40625 
Q 43.21875 41.609375 39.140625 45 
Q 35.0625 48.390625 27.6875 48.390625 
Q 23 48.390625 18.546875 47.265625 
Q 14.109375 46.140625 10.015625 43.890625 
L 10.015625 52.203125 
Q 14.9375 54.109375 19.578125 55.046875 
Q 24.21875 56 28.609375 56 
Q 40.484375 56 46.34375 49.84375 
Q 52.203125 43.703125 52.203125 31.203125 
z
" id="DejaVuSans-61"/>
      <path d="M 54.890625 33.015625 
L 54.890625 0 
L 45.90625 0 
L 45.90625 32.71875 
Q 45.90625 40.484375 42.875 44.328125 
Q 39.84375 48.1875 33.796875 48.1875 
Q 26.515625 48.1875 22.3125 43.546875 
Q 18.109375 38.921875 18.109375 30.90625 
L 18.109375 0 
L 9.078125 0 
L 9.078125 54.6875 
L 18.109375 54.6875 
L 18.109375 46.1875 
Q 21.34375 51.125 25.703125 53.5625 
Q 30.078125 56 35.796875 56 
Q 45.21875 56 50.046875 50.171875 
Q 54.890625 44.34375 54.890625 33.015625 
z
" id="DejaVuSans-6e"/>
      <path d="M 41.109375 46.296875 
Q 39.59375 47.171875 37.8125 47.578125 
Q 36.03125 48 33.890625 48 
Q 26.265625 48 22.1875 43.046875 
Q 18.109375 38.09375 18.109375 28.8125 
L 18.109375 0 
L 9.078125 0 
L 9.078125 54.6875 
L 18.109375 54.6875 
L 18.109375 46.1875 
Q 20.953125 51.171875 25.484375 53.578125 
Q 30.03125 56 36.53125 56 
Q 37.453125 56 38.578125 55.875 
Q 39.703125 55.765625 41.0625 55.515625 
z
" id="DejaVuSans-72"/>
     </defs>
     <g style="fill:#262626;" transform="translate(18.7565 271.592167)rotate(-90)scale(0.096 -0.096)">
      <use xlink:href="#DejaVuSans-54"/>
      <use x="61.037109" xlink:href="#DejaVuSans-69"/>
      <use x="88.820312" xlink:href="#DejaVuSans-6d"/>
      <use x="186.232422" xlink:href="#DejaVuSans-65"/>
      <use x="247.755859" xlink:href="#DejaVuSans-20"/>
      <use x="279.542969" xlink:href="#DejaVuSans-74"/>
      <use x="318.751953" xlink:href="#DejaVuSans-6f"/>
      <use x="379.933594" xlink:href="#DejaVuSans-20"/>
      <use x="411.720703" xlink:href="#DejaVuSans-63"/>
      <use x="466.701172" xlink:href="#DejaVuSans-61"/>
      <use x="527.980469" xlink:href="#DejaVuSans-6e"/>
      <use x="591.359375" xlink:href="#DejaVuSans-63"/>
      <use x="646.339844" xlink:href="#DejaVuSans-65"/>
      <use x="707.863281" xlink:href="#DejaVuSans-72"/>
     </g>
    </g>
   </g>
   <g id="PathCollection_1">
    <defs>
     <path d="M 0 2.4 
C 0.636487 2.4 1.246992 2.147121 1.697056 1.697056 
C 2.147121 1.246992 2.4 0.636487 2.4 0 
C 2.4 -0.636487 2.147121 -1.246992 1.697056 -1.697056 
C 1.246992 -2.147121 0.636487 -2.4 0 -2.4 
C -0.636487 -2.4 -1.246992 -2.147121 -1.697056 -1.697056 
C -2.147121 -1.246992 -2.4 -0.636487 -2.4 0 
C -2.4 0.636487 -2.147121 1.246992 -1.697056 1.697056 
C -1.246992 2.147121 -0.636487 2.4 0 2.4 
z
" id="maf484b35c1" style="stroke:#471365;stroke-opacity:0.8;"/>
    </defs>
    <g clip-path="url(#pe105858917)">
     <use style="fill:#471365;fill-opacity:0.8;stroke:#471365;stroke-opacity:0.8;" x="249.663051" xlink:href="#maf484b35c1" y="366.540332"/>
     <use style="fill:#471365;fill-opacity:0.8;stroke:#471365;stroke-opacity:0.8;" x="173.810292" xlink:href="#maf484b35c1" y="365.764238"/>
     <use style="fill:#471365;fill-opacity:0.8;stroke:#471365;stroke-opacity:0.8;" x="242.367092" xlink:href="#maf484b35c1" y="368.169362"/>
     <use style="fill:#471365;fill-opacity:0.8;stroke:#471365;stroke-opacity:0.8;" x="242.140701" xlink:href="#maf484b35c1" y="367.193481"/>
     <use style="fill:#471365;fill-opacity:0.8;stroke:#471365;stroke-opacity:0.8;" x="209.617142" xlink:href="#maf484b35c1" y="364.55015"/>
     <use style="fill:#471365;fill-opacity:0.8;stroke:#471365;stroke-opacity:0.8;" x="188.824087" xlink:href="#maf484b35c1" y="368.276939"/>
     <use style="fill:#471365;fill-opacity:0.8;stroke:#471365;stroke-opacity:0.8;" x="117.321722" xlink:href="#maf484b35c1" y="315.948209"/>
     <use style="fill:#471365;fill-opacity:0.8;stroke:#471365;stroke-opacity:0.8;" x="141.272808" xlink:href="#maf484b35c1" y="354.314927"/>
     <use style="fill:#471365;fill-opacity:0.8;stroke:#471365;stroke-opacity:0.8;" x="198.947994" xlink:href="#maf484b35c1" y="366.924537"/>
     <use style="fill:#471365;fill-opacity:0.8;stroke:#471365;stroke-opacity:0.8;" x="221.099211" xlink:href="#maf484b35c1" y="367.546949"/>
     <use style="fill:#471365;fill-opacity:0.8;stroke:#471365;stroke-opacity:0.8;" x="153.756684" xlink:href="#maf484b35c1" y="358.379817"/>
     <use style="fill:#471365;fill-opacity:0.8;stroke:#471365;stroke-opacity:0.8;" x="267.281637" xlink:href="#maf484b35c1" y="367.462424"/>
     <use style="fill:#471365;fill-opacity:0.8;stroke:#471365;stroke-opacity:0.8;" x="161.436794" xlink:href="#maf484b35c1" y="362.667545"/>
     <use style="fill:#471365;fill-opacity:0.8;stroke:#471365;stroke-opacity:0.8;" x="132.02864" xlink:href="#maf484b35c1" y="352.201799"/>
     <use style="fill:#471365;fill-opacity:0.8;stroke:#471365;stroke-opacity:0.8;" x="176.502012" xlink:href="#maf484b35c1" y="362.590704"/>
     <use style="fill:#471365;fill-opacity:0.8;stroke:#471365;stroke-opacity:0.8;" x="238.363205" xlink:href="#maf484b35c1" y="367.477792"/>
     <use style="fill:#471365;fill-opacity:0.8;stroke:#471365;stroke-opacity:0.8;" x="130.926702" xlink:href="#maf484b35c1" y="353.561885"/>
     <use style="fill:#471365;fill-opacity:0.8;stroke:#471365;stroke-opacity:0.8;" x="151.542155" xlink:href="#maf484b35c1" y="364.726884"/>
     <use style="fill:#471365;fill-opacity:0.8;stroke:#471365;stroke-opacity:0.8;" x="174.200547" xlink:href="#maf484b35c1" y="361.868399"/>
     <use style="fill:#471365;fill-opacity:0.8;stroke:#471365;stroke-opacity:0.8;" x="149.777965" xlink:href="#maf484b35c1" y="361.438089"/>
     <use style="fill:#471365;fill-opacity:0.8;stroke:#471365;stroke-opacity:0.8;" x="269.347597" xlink:href="#maf484b35c1" y="366.863064"/>
     <use style="fill:#471365;fill-opacity:0.8;stroke:#471365;stroke-opacity:0.8;" x="122.51992" xlink:href="#maf484b35c1" y="337.924739"/>
     <use style="fill:#471365;fill-opacity:0.8;stroke:#471365;stroke-opacity:0.8;" x="178.519612" xlink:href="#maf484b35c1" y="363.466692"/>
     <use style="fill:#471365;fill-opacity:0.8;stroke:#471365;stroke-opacity:0.8;" x="134.758353" xlink:href="#maf484b35c1" y="356.712367"/>
     <use style="fill:#471365;fill-opacity:0.8;stroke:#471365;stroke-opacity:0.8;" x="132.484065" xlink:href="#maf484b35c1" y="354.852814"/>
     <use style="fill:#471365;fill-opacity:0.8;stroke:#471365;stroke-opacity:0.8;" x="211.154573" xlink:href="#maf484b35c1" y="367.308742"/>
     <use style="fill:#471365;fill-opacity:0.8;stroke:#471365;stroke-opacity:0.8;" x="123.260714" xlink:href="#maf484b35c1" y="356.635526"/>
     <use style="fill:#471365;fill-opacity:0.8;stroke:#471365;stroke-opacity:0.8;" x="184.323899" xlink:href="#maf484b35c1" y="363.459007"/>
     <use style="fill:#471365;fill-opacity:0.8;stroke:#471365;stroke-opacity:0.8;" x="123.872254" xlink:href="#maf484b35c1" y="346.07757"/>
     <use style="fill:#471365;fill-opacity:0.8;stroke:#471365;stroke-opacity:0.8;" x="128.149488" xlink:href="#maf484b35c1" y="338.685465"/>
     <use style="fill:#471365;fill-opacity:0.8;stroke:#471365;stroke-opacity:0.8;" x="140.487064" xlink:href="#maf484b35c1" y="358.664128"/>
     <use style="fill:#471365;fill-opacity:0.8;stroke:#471365;stroke-opacity:0.8;" x="146.903059" xlink:href="#maf484b35c1" y="360.592838"/>
     <use style="fill:#471365;fill-opacity:0.8;stroke:#471365;stroke-opacity:0.8;" x="130.084286" xlink:href="#maf484b35c1" y="363.95079"/>
     <use style="fill:#471365;fill-opacity:0.8;stroke:#471365;stroke-opacity:0.8;" x="125.481056" xlink:href="#maf484b35c1" y="353.262205"/>
     <use style="fill:#471365;fill-opacity:0.8;stroke:#471365;stroke-opacity:0.8;" x="139.231493" xlink:href="#maf484b35c1" y="362.383233"/>
     <use style="fill:#471365;fill-opacity:0.8;stroke:#471365;stroke-opacity:0.8;" x="203.405019" xlink:href="#maf484b35c1" y="364.988144"/>
     <use style="fill:#471365;fill-opacity:0.8;stroke:#471365;stroke-opacity:0.8;" x="119.818052" xlink:href="#maf484b35c1" y="353.446623"/>
     <use style="fill:#471365;fill-opacity:0.8;stroke:#471365;stroke-opacity:0.8;" x="131.314728" xlink:href="#maf484b35c1" y="358.333712"/>
     <use style="fill:#471365;fill-opacity:0.8;stroke:#471365;stroke-opacity:0.8;" x="129.886472" xlink:href="#maf484b35c1" y="352.701266"/>
     <use style="fill:#471365;fill-opacity:0.8;stroke:#471365;stroke-opacity:0.8;" x="189.301342" xlink:href="#maf484b35c1" y="365.818027"/>
     <use style="fill:#471365;fill-opacity:0.8;stroke:#471365;stroke-opacity:0.8;" x="287.169402" xlink:href="#maf484b35c1" y="368.753353"/>
     <use style="fill:#471365;fill-opacity:0.8;stroke:#471365;stroke-opacity:0.8;" x="150.056293" xlink:href="#maf484b35c1" y="360.692731"/>
     <use style="fill:#471365;fill-opacity:0.8;stroke:#471365;stroke-opacity:0.8;" x="197.066775" xlink:href="#maf484b35c1" y="363.489744"/>
     <use style="fill:#471365;fill-opacity:0.8;stroke:#471365;stroke-opacity:0.8;" x="139.538745" xlink:href="#maf484b35c1" y="357.134992"/>
     <use style="fill:#471365;fill-opacity:0.8;stroke:#471365;stroke-opacity:0.8;" x="142.770658" xlink:href="#maf484b35c1" y="359.801375"/>
     <use style="fill:#471365;fill-opacity:0.8;stroke:#471365;stroke-opacity:0.8;" x="127.415675" xlink:href="#maf484b35c1" y="355.452174"/>
     <use style="fill:#471365;fill-opacity:0.8;stroke:#471365;stroke-opacity:0.8;" x="159.660859" xlink:href="#maf484b35c1" y="358.825494"/>
     <use style="fill:#471365;fill-opacity:0.8;stroke:#471365;stroke-opacity:0.8;" x="231.575434" xlink:href="#maf484b35c1" y="365.741186"/>
     <use style="fill:#471365;fill-opacity:0.8;stroke:#471365;stroke-opacity:0.8;" x="119.144562" xlink:href="#maf484b35c1" y="341.244271"/>
     <use style="fill:#471365;fill-opacity:0.8;stroke:#471365;stroke-opacity:0.8;" x="120.389101" xlink:href="#maf484b35c1" y="345.885468"/>
     <use style="fill:#471365;fill-opacity:0.8;stroke:#471365;stroke-opacity:0.8;" x="135.803234" xlink:href="#maf484b35c1" y="361.123041"/>
     <use style="fill:#471365;fill-opacity:0.8;stroke:#471365;stroke-opacity:0.8;" x="213.335441" xlink:href="#maf484b35c1" y="370.221017"/>
     <use style="fill:#471365;fill-opacity:0.8;stroke:#471365;stroke-opacity:0.8;" x="135.922343" xlink:href="#maf484b35c1" y="357.019731"/>
     <use style="fill:#471365;fill-opacity:0.8;stroke:#471365;stroke-opacity:0.8;" x="137.749432" xlink:href="#maf484b35c1" y="354.030615"/>
     <use style="fill:#471365;fill-opacity:0.8;stroke:#471365;stroke-opacity:0.8;" x="136.583021" xlink:href="#maf484b35c1" y="359.194331"/>
     <use style="fill:#471365;fill-opacity:0.8;stroke:#471365;stroke-opacity:0.8;" x="169.138869" xlink:href="#maf484b35c1" y="363.743319"/>
     <use style="fill:#471365;fill-opacity:0.8;stroke:#471365;stroke-opacity:0.8;" x="162.964735" xlink:href="#maf484b35c1" y="361.768505"/>
     <use style="fill:#471365;fill-opacity:0.8;stroke:#471365;stroke-opacity:0.8;" x="182.820833" xlink:href="#maf484b35c1" y="363.382166"/>
     <use style="fill:#471365;fill-opacity:0.8;stroke:#471365;stroke-opacity:0.8;" x="138.044586" xlink:href="#maf484b35c1" y="358.64876"/>
     <use style="fill:#471365;fill-opacity:0.8;stroke:#471365;stroke-opacity:0.8;" x="141.769031" xlink:href="#maf484b35c1" y="350.250037"/>
     <use style="fill:#471365;fill-opacity:0.8;stroke:#471365;stroke-opacity:0.8;" x="134.814396" xlink:href="#maf484b35c1" y="359.494011"/>
     <use style="fill:#471365;fill-opacity:0.8;stroke:#471365;stroke-opacity:0.8;" x="129.760873" xlink:href="#maf484b35c1" y="334.512998"/>
     <use style="fill:#471365;fill-opacity:0.8;stroke:#471365;stroke-opacity:0.8;" x="176.156413" xlink:href="#maf484b35c1" y="363.251537"/>
     <use style="fill:#471365;fill-opacity:0.8;stroke:#471365;stroke-opacity:0.8;" x="154.890677" xlink:href="#maf484b35c1" y="361.768505"/>
     <use style="fill:#471365;fill-opacity:0.8;stroke:#471365;stroke-opacity:0.8;" x="141.287772" xlink:href="#maf484b35c1" y="357.227201"/>
     <use style="fill:#471365;fill-opacity:0.8;stroke:#471365;stroke-opacity:0.8;" x="156.995794" xlink:href="#maf484b35c1" y="360.01653"/>
     <use style="fill:#471365;fill-opacity:0.8;stroke:#471365;stroke-opacity:0.8;" x="128.317418" xlink:href="#maf484b35c1" y="357.127308"/>
     <use style="fill:#471365;fill-opacity:0.8;stroke:#471365;stroke-opacity:0.8;" x="178.863309" xlink:href="#maf484b35c1" y="366.125391"/>
     <use style="fill:#471365;fill-opacity:0.8;stroke:#471365;stroke-opacity:0.8;" x="157.161537" xlink:href="#maf484b35c1" y="362.214183"/>
     <use style="fill:#471365;fill-opacity:0.8;stroke:#471365;stroke-opacity:0.8;" x="141.488298" xlink:href="#maf484b35c1" y="358.034032"/>
     <use style="fill:#471365;fill-opacity:0.8;stroke:#471365;stroke-opacity:0.8;" x="126.164891" xlink:href="#maf484b35c1" y="336.33413"/>
     <use style="fill:#471365;fill-opacity:0.8;stroke:#471365;stroke-opacity:0.8;" x="134.329858" xlink:href="#maf484b35c1" y="358.787074"/>
     <use style="fill:#471365;fill-opacity:0.8;stroke:#471365;stroke-opacity:0.8;" x="198.644741" xlink:href="#maf484b35c1" y="366.002445"/>
     <use style="fill:#471365;fill-opacity:0.8;stroke:#471365;stroke-opacity:0.8;" x="170.336925" xlink:href="#maf484b35c1" y="365.687397"/>
     <use style="fill:#471365;fill-opacity:0.8;stroke:#471365;stroke-opacity:0.8;" x="174.816408" xlink:href="#maf484b35c1" y="363.474376"/>
     <use style="fill:#471365;fill-opacity:0.8;stroke:#471365;stroke-opacity:0.8;" x="193.239129" xlink:href="#maf484b35c1" y="364.035315"/>
     <use style="fill:#471365;fill-opacity:0.8;stroke:#471365;stroke-opacity:0.8;" x="160.163097" xlink:href="#maf484b35c1" y="360.861781"/>
     <use style="fill:#471365;fill-opacity:0.8;stroke:#471365;stroke-opacity:0.8;" x="149.134209" xlink:href="#maf484b35c1" y="358.587287"/>
     <use style="fill:#471365;fill-opacity:0.8;stroke:#471365;stroke-opacity:0.8;" x="114.588931" xlink:href="#maf484b35c1" y="244.731958"/>
     <use style="fill:#471365;fill-opacity:0.8;stroke:#471365;stroke-opacity:0.8;" x="235.328012" xlink:href="#maf484b35c1" y="369.759971"/>
     <use style="fill:#471365;fill-opacity:0.8;stroke:#471365;stroke-opacity:0.8;" x="160.345424" xlink:href="#maf484b35c1" y="360.193264"/>
     <use style="fill:#471365;fill-opacity:0.8;stroke:#471365;stroke-opacity:0.8;" x="148.139122" xlink:href="#maf484b35c1" y="354.97576"/>
     <use style="fill:#471365;fill-opacity:0.8;stroke:#471365;stroke-opacity:0.8;" x="149.961824" xlink:href="#maf484b35c1" y="360.815677"/>
     <use style="fill:#471365;fill-opacity:0.8;stroke:#471365;stroke-opacity:0.8;" x="248.755187" xlink:href="#maf484b35c1" y="367.147376"/>
     <use style="fill:#471365;fill-opacity:0.8;stroke:#471365;stroke-opacity:0.8;" x="166.01661" xlink:href="#maf484b35c1" y="360.124108"/>
     <use style="fill:#471365;fill-opacity:0.8;stroke:#471365;stroke-opacity:0.8;" x="159.933798" xlink:href="#maf484b35c1" y="360.362315"/>
     <use style="fill:#471365;fill-opacity:0.8;stroke:#471365;stroke-opacity:0.8;" x="156.819618" xlink:href="#maf484b35c1" y="360.500628"/>
     <use style="fill:#471365;fill-opacity:0.8;stroke:#471365;stroke-opacity:0.8;" x="115.371061" xlink:href="#maf484b35c1" y="344.963376"/>
     <use style="fill:#471365;fill-opacity:0.8;stroke:#471365;stroke-opacity:0.8;" x="183.690648" xlink:href="#maf484b35c1" y="364.557834"/>
     <use style="fill:#471365;fill-opacity:0.8;stroke:#471365;stroke-opacity:0.8;" x="145.235189" xlink:href="#maf484b35c1" y="360.685047"/>
     <use style="fill:#471365;fill-opacity:0.8;stroke:#471365;stroke-opacity:0.8;" x="186.913187" xlink:href="#maf484b35c1" y="363.274589"/>
     <use style="fill:#471365;fill-opacity:0.8;stroke:#471365;stroke-opacity:0.8;" x="205.361324" xlink:href="#maf484b35c1" y="367.662211"/>
     <use style="fill:#471365;fill-opacity:0.8;stroke:#471365;stroke-opacity:0.8;" x="227.465961" xlink:href="#maf484b35c1" y="366.225284"/>
     <use style="fill:#471365;fill-opacity:0.8;stroke:#471365;stroke-opacity:0.8;" x="124.760867" xlink:href="#maf484b35c1" y="356.51258"/>
     <use style="fill:#471365;fill-opacity:0.8;stroke:#471365;stroke-opacity:0.8;" x="143.73511" xlink:href="#maf484b35c1" y="358.963808"/>
     <use style="fill:#471365;fill-opacity:0.8;stroke:#471365;stroke-opacity:0.8;" x="234.342437" xlink:href="#maf484b35c1" y="365.126457"/>
     <use style="fill:#471365;fill-opacity:0.8;stroke:#471365;stroke-opacity:0.8;" x="125.981691" xlink:href="#maf484b35c1" y="295.032086"/>
     <use style="fill:#471365;fill-opacity:0.8;stroke:#471365;stroke-opacity:0.8;" x="166.932858" xlink:href="#maf484b35c1" y="362.552284"/>
     <use style="fill:#471365;fill-opacity:0.8;stroke:#471365;stroke-opacity:0.8;" x="198.90531" xlink:href="#maf484b35c1" y="367.915786"/>
     <use style="fill:#471365;fill-opacity:0.8;stroke:#471365;stroke-opacity:0.8;" x="146.59096" xlink:href="#maf484b35c1" y="359.593905"/>
     <use style="fill:#471365;fill-opacity:0.8;stroke:#471365;stroke-opacity:0.8;" x="125.765421" xlink:href="#maf484b35c1" y="252.024171"/>
     <use style="fill:#471365;fill-opacity:0.8;stroke:#471365;stroke-opacity:0.8;" x="160.935597" xlink:href="#maf484b35c1" y="360.27779"/>
     <use style="fill:#471365;fill-opacity:0.8;stroke:#471365;stroke-opacity:0.8;" x="162.479168" xlink:href="#maf484b35c1" y="359.340329"/>
     <use style="fill:#471365;fill-opacity:0.8;stroke:#471365;stroke-opacity:0.8;" x="173.715591" xlink:href="#maf484b35c1" y="363.136275"/>
     <use style="fill:#471365;fill-opacity:0.8;stroke:#471365;stroke-opacity:0.8;" x="169.162842" xlink:href="#maf484b35c1" y="362.398601"/>
     <use style="fill:#471365;fill-opacity:0.8;stroke:#471365;stroke-opacity:0.8;" x="147.171253" xlink:href="#maf484b35c1" y="359.97811"/>
     <use style="fill:#471365;fill-opacity:0.8;stroke:#471365;stroke-opacity:0.8;" x="140.196742" xlink:href="#maf484b35c1" y="355.936272"/>
     <use style="fill:#471365;fill-opacity:0.8;stroke:#471365;stroke-opacity:0.8;" x="137.51371" xlink:href="#maf484b35c1" y="357.565302"/>
     <use style="fill:#471365;fill-opacity:0.8;stroke:#471365;stroke-opacity:0.8;" x="156.337637" xlink:href="#maf484b35c1" y="363.78174"/>
     <use style="fill:#471365;fill-opacity:0.8;stroke:#471365;stroke-opacity:0.8;" x="116.068455" xlink:href="#maf484b35c1" y="354.645343"/>
     <use style="fill:#471365;fill-opacity:0.8;stroke:#471365;stroke-opacity:0.8;" x="130.873143" xlink:href="#maf484b35c1" y="353.323678"/>
     <use style="fill:#471365;fill-opacity:0.8;stroke:#471365;stroke-opacity:0.8;" x="157.847668" xlink:href="#maf484b35c1" y="361.199882"/>
     <use style="fill:#471365;fill-opacity:0.8;stroke:#471365;stroke-opacity:0.8;" x="207.208328" xlink:href="#maf484b35c1" y="365.180246"/>
     <use style="fill:#471365;fill-opacity:0.8;stroke:#471365;stroke-opacity:0.8;" x="131.788305" xlink:href="#maf484b35c1" y="356.036166"/>
     <use style="fill:#471365;fill-opacity:0.8;stroke:#471365;stroke-opacity:0.8;" x="166.922314" xlink:href="#maf484b35c1" y="346.154411"/>
     <use style="fill:#471365;fill-opacity:0.8;stroke:#471365;stroke-opacity:0.8;" x="180.695542" xlink:href="#maf484b35c1" y="368.714933"/>
     <use style="fill:#471365;fill-opacity:0.8;stroke:#471365;stroke-opacity:0.8;" x="146.49952" xlink:href="#maf484b35c1" y="360.677363"/>
     <use style="fill:#471365;fill-opacity:0.8;stroke:#471365;stroke-opacity:0.8;" x="178.74656" xlink:href="#maf484b35c1" y="363.858581"/>
     <use style="fill:#471365;fill-opacity:0.8;stroke:#471365;stroke-opacity:0.8;" x="125.335385" xlink:href="#maf484b35c1" y="303.745856"/>
     <use style="fill:#471365;fill-opacity:0.8;stroke:#471365;stroke-opacity:0.8;" x="142.501733" xlink:href="#maf484b35c1" y="357.542249"/>
     <use style="fill:#471365;fill-opacity:0.8;stroke:#471365;stroke-opacity:0.8;" x="162.416998" xlink:href="#maf484b35c1" y="364.903619"/>
     <use style="fill:#471365;fill-opacity:0.8;stroke:#471365;stroke-opacity:0.8;" x="165.495245" xlink:href="#maf484b35c1" y="359.985794"/>
     <use style="fill:#471365;fill-opacity:0.8;stroke:#471365;stroke-opacity:0.8;" x="202.708451" xlink:href="#maf484b35c1" y="366.309809"/>
     <use style="fill:#471365;fill-opacity:0.8;stroke:#471365;stroke-opacity:0.8;" x="127.948277" xlink:href="#maf484b35c1" y="357.572986"/>
     <use style="fill:#471365;fill-opacity:0.8;stroke:#471365;stroke-opacity:0.8;" x="168.819489" xlink:href="#maf484b35c1" y="365.764238"/>
     <use style="fill:#471365;fill-opacity:0.8;stroke:#471365;stroke-opacity:0.8;" x="244.54921" xlink:href="#maf484b35c1" y="367.616106"/>
     <use style="fill:#471365;fill-opacity:0.8;stroke:#471365;stroke-opacity:0.8;" x="135.852535" xlink:href="#maf484b35c1" y="360.907886"/>
     <use style="fill:#471365;fill-opacity:0.8;stroke:#471365;stroke-opacity:0.8;" x="171.516195" xlink:href="#maf484b35c1" y="361.453457"/>
     <use style="fill:#471365;fill-opacity:0.8;stroke:#471365;stroke-opacity:0.8;" x="156.561948" xlink:href="#maf484b35c1" y="363.143959"/>
     <use style="fill:#471365;fill-opacity:0.8;stroke:#471365;stroke-opacity:0.8;" x="141.838443" xlink:href="#maf484b35c1" y="359.363381"/>
     <use style="fill:#471365;fill-opacity:0.8;stroke:#471365;stroke-opacity:0.8;" x="128.766029" xlink:href="#maf484b35c1" y="328.949709"/>
     <use style="fill:#471365;fill-opacity:0.8;stroke:#471365;stroke-opacity:0.8;" x="188.032356" xlink:href="#maf484b35c1" y="365.564451"/>
     <use style="fill:#471365;fill-opacity:0.8;stroke:#471365;stroke-opacity:0.8;" x="177.229036" xlink:href="#maf484b35c1" y="361.975976"/>
     <use style="fill:#471365;fill-opacity:0.8;stroke:#471365;stroke-opacity:0.8;" x="159.594978" xlink:href="#maf484b35c1" y="359.647693"/>
     <use style="fill:#471365;fill-opacity:0.8;stroke:#471365;stroke-opacity:0.8;" x="220.610288" xlink:href="#maf484b35c1" y="368.499778"/>
     <use style="fill:#471365;fill-opacity:0.8;stroke:#471365;stroke-opacity:0.8;" x="210.955655" xlink:href="#maf484b35c1" y="365.526031"/>
     <use style="fill:#471365;fill-opacity:0.8;stroke:#471365;stroke-opacity:0.8;" x="179.608963" xlink:href="#maf484b35c1" y="365.395401"/>
     <use style="fill:#471365;fill-opacity:0.8;stroke:#471365;stroke-opacity:0.8;" x="259.013722" xlink:href="#maf484b35c1" y="366.425071"/>
     <use style="fill:#471365;fill-opacity:0.8;stroke:#471365;stroke-opacity:0.8;" x="232.052929" xlink:href="#maf484b35c1" y="363.435955"/>
     <use style="fill:#471365;fill-opacity:0.8;stroke:#471365;stroke-opacity:0.8;" x="119.703904" xlink:href="#maf484b35c1" y="205.788933"/>
     <use style="fill:#471365;fill-opacity:0.8;stroke:#471365;stroke-opacity:0.8;" x="128.519613" xlink:href="#maf484b35c1" y="346.930506"/>
     <use style="fill:#471365;fill-opacity:0.8;stroke:#471365;stroke-opacity:0.8;" x="194.174207" xlink:href="#maf484b35c1" y="368.530514"/>
     <use style="fill:#471365;fill-opacity:0.8;stroke:#471365;stroke-opacity:0.8;" x="183.452869" xlink:href="#maf484b35c1" y="364.004579"/>
     <use style="fill:#471365;fill-opacity:0.8;stroke:#471365;stroke-opacity:0.8;" x="123.833676" xlink:href="#maf484b35c1" y="332.83018"/>
     <use style="fill:#471365;fill-opacity:0.8;stroke:#471365;stroke-opacity:0.8;" x="134.99244" xlink:href="#maf484b35c1" y="358.671812"/>
     <use style="fill:#471365;fill-opacity:0.8;stroke:#471365;stroke-opacity:0.8;" x="140.705988" xlink:href="#maf484b35c1" y="357.734352"/>
     <use style="fill:#471365;fill-opacity:0.8;stroke:#471365;stroke-opacity:0.8;" x="131.075543" xlink:href="#maf484b35c1" y="350.403719"/>
     <use style="fill:#471365;fill-opacity:0.8;stroke:#471365;stroke-opacity:0.8;" x="254.125662" xlink:href="#maf484b35c1" y="368.215466"/>
     <use style="fill:#471365;fill-opacity:0.8;stroke:#471365;stroke-opacity:0.8;" x="144.400284" xlink:href="#maf484b35c1" y="358.756337"/>
     <use style="fill:#471365;fill-opacity:0.8;stroke:#471365;stroke-opacity:0.8;" x="149.472946" xlink:href="#maf484b35c1" y="359.916637"/>
     <use style="fill:#471365;fill-opacity:0.8;stroke:#471365;stroke-opacity:0.8;" x="149.725173" xlink:href="#maf484b35c1" y="360.969359"/>
     <use style="fill:#471365;fill-opacity:0.8;stroke:#471365;stroke-opacity:0.8;" x="120.020124" xlink:href="#maf484b35c1" y="348.321328"/>
     <use style="fill:#471365;fill-opacity:0.8;stroke:#471365;stroke-opacity:0.8;" x="136.501198" xlink:href="#maf484b35c1" y="348.797742"/>
     <use style="fill:#471365;fill-opacity:0.8;stroke:#471365;stroke-opacity:0.8;" x="197.43584" xlink:href="#maf484b35c1" y="364.41952"/>
     <use style="fill:#471365;fill-opacity:0.8;stroke:#471365;stroke-opacity:0.8;" x="145.512102" xlink:href="#maf484b35c1" y="359.41717"/>
     <use style="fill:#471365;fill-opacity:0.8;stroke:#471365;stroke-opacity:0.8;" x="136.794348" xlink:href="#maf484b35c1" y="351.84833"/>
     <use style="fill:#471365;fill-opacity:0.8;stroke:#471365;stroke-opacity:0.8;" x="122.266441" xlink:href="#maf484b35c1" y="358.894651"/>
     <use style="fill:#471365;fill-opacity:0.8;stroke:#471365;stroke-opacity:0.8;" x="159.299438" xlink:href="#maf484b35c1" y="363.420587"/>
     <use style="fill:#471365;fill-opacity:0.8;stroke:#471365;stroke-opacity:0.8;" x="160.3665" xlink:href="#maf484b35c1" y="362.014396"/>
     <use style="fill:#471365;fill-opacity:0.8;stroke:#471365;stroke-opacity:0.8;" x="138.020602" xlink:href="#maf484b35c1" y="359.962741"/>
     <use style="fill:#471365;fill-opacity:0.8;stroke:#471365;stroke-opacity:0.8;" x="206.033114" xlink:href="#maf484b35c1" y="366.294441"/>
     <use style="fill:#471365;fill-opacity:0.8;stroke:#471365;stroke-opacity:0.8;" x="153.558857" xlink:href="#maf484b35c1" y="363.935422"/>
     <use style="fill:#471365;fill-opacity:0.8;stroke:#471365;stroke-opacity:0.8;" x="171.727105" xlink:href="#maf484b35c1" y="361.94524"/>
     <use style="fill:#471365;fill-opacity:0.8;stroke:#471365;stroke-opacity:0.8;" x="159.190691" xlink:href="#maf484b35c1" y="361.64556"/>
     <use style="fill:#471365;fill-opacity:0.8;stroke:#471365;stroke-opacity:0.8;" x="138.907687" xlink:href="#maf484b35c1" y="356.589421"/>
     <use style="fill:#471365;fill-opacity:0.8;stroke:#471365;stroke-opacity:0.8;" x="178.150276" xlink:href="#maf484b35c1" y="365.103405"/>
     <use style="fill:#471365;fill-opacity:0.8;stroke:#471365;stroke-opacity:0.8;" x="194.118175" xlink:href="#maf484b35c1" y="366.916853"/>
     <use style="fill:#471365;fill-opacity:0.8;stroke:#471365;stroke-opacity:0.8;" x="126.012087" xlink:href="#maf484b35c1" y="346.991978"/>
     <use style="fill:#471365;fill-opacity:0.8;stroke:#471365;stroke-opacity:0.8;" x="123.573846" xlink:href="#maf484b35c1" y="348.590271"/>
     <use style="fill:#471365;fill-opacity:0.8;stroke:#471365;stroke-opacity:0.8;" x="164.0259" xlink:href="#maf484b35c1" y="363.190064"/>
     <use style="fill:#471365;fill-opacity:0.8;stroke:#471365;stroke-opacity:0.8;" x="124.674932" xlink:href="#maf484b35c1" y="350.864765"/>
     <use style="fill:#471365;fill-opacity:0.8;stroke:#471365;stroke-opacity:0.8;" x="151.849789" xlink:href="#maf484b35c1" y="361.929871"/>
     <use style="fill:#471365;fill-opacity:0.8;stroke:#471365;stroke-opacity:0.8;" x="118.468072" xlink:href="#maf484b35c1" y="314.388337"/>
     <use style="fill:#471365;fill-opacity:0.8;stroke:#471365;stroke-opacity:0.8;" x="127.930064" xlink:href="#maf484b35c1" y="354.499345"/>
     <use style="fill:#471365;fill-opacity:0.8;stroke:#471365;stroke-opacity:0.8;" x="213.113122" xlink:href="#maf484b35c1" y="366.81696"/>
     <use style="fill:#471365;fill-opacity:0.8;stroke:#471365;stroke-opacity:0.8;" x="148.223083" xlink:href="#maf484b35c1" y="357.234885"/>
     <use style="fill:#471365;fill-opacity:0.8;stroke:#471365;stroke-opacity:0.8;" x="146.763698" xlink:href="#maf484b35c1" y="363.743319"/>
     <use style="fill:#471365;fill-opacity:0.8;stroke:#471365;stroke-opacity:0.8;" x="179.591399" xlink:href="#maf484b35c1" y="363.943106"/>
     <use style="fill:#471365;fill-opacity:0.8;stroke:#471365;stroke-opacity:0.8;" x="285.745298" xlink:href="#maf484b35c1" y="368.761037"/>
     <use style="fill:#471365;fill-opacity:0.8;stroke:#471365;stroke-opacity:0.8;" x="146.57235" xlink:href="#maf484b35c1" y="362.867332"/>
     <use style="fill:#471365;fill-opacity:0.8;stroke:#471365;stroke-opacity:0.8;" x="195.696393" xlink:href="#maf484b35c1" y="364.388784"/>
     <use style="fill:#471365;fill-opacity:0.8;stroke:#471365;stroke-opacity:0.8;" x="280.241883" xlink:href="#maf484b35c1" y="370.927954"/>
     <use style="fill:#471365;fill-opacity:0.8;stroke:#471365;stroke-opacity:0.8;" x="128.776174" xlink:href="#maf484b35c1" y="312.367418"/>
     <use style="fill:#471365;fill-opacity:0.8;stroke:#471365;stroke-opacity:0.8;" x="183.203171" xlink:href="#maf484b35c1" y="364.142892"/>
     <use style="fill:#471365;fill-opacity:0.8;stroke:#471365;stroke-opacity:0.8;" x="172.142528" xlink:href="#maf484b35c1" y="361.960608"/>
     <use style="fill:#471365;fill-opacity:0.8;stroke:#471365;stroke-opacity:0.8;" x="176.15185" xlink:href="#maf484b35c1" y="362.490811"/>
     <use style="fill:#471365;fill-opacity:0.8;stroke:#471365;stroke-opacity:0.8;" x="174.565388" xlink:href="#maf484b35c1" y="365.625924"/>
     <use style="fill:#471365;fill-opacity:0.8;stroke:#471365;stroke-opacity:0.8;" x="230.703194" xlink:href="#maf484b35c1" y="365.633608"/>
     <use style="fill:#471365;fill-opacity:0.8;stroke:#471365;stroke-opacity:0.8;" x="141.358723" xlink:href="#maf484b35c1" y="359.71685"/>
     <use style="fill:#471365;fill-opacity:0.8;stroke:#471365;stroke-opacity:0.8;" x="191.660467" xlink:href="#maf484b35c1" y="365.303192"/>
     <use style="fill:#471365;fill-opacity:0.8;stroke:#471365;stroke-opacity:0.8;" x="196.285014" xlink:href="#maf484b35c1" y="363.789424"/>
     <use style="fill:#471365;fill-opacity:0.8;stroke:#471365;stroke-opacity:0.8;" x="224.344645" xlink:href="#maf484b35c1" y="364.865198"/>
     <use style="fill:#471365;fill-opacity:0.8;stroke:#471365;stroke-opacity:0.8;" x="175.771439" xlink:href="#maf484b35c1" y="363.190064"/>
     <use style="fill:#471365;fill-opacity:0.8;stroke:#471365;stroke-opacity:0.8;" x="202.902677" xlink:href="#maf484b35c1" y="365.672029"/>
     <use style="fill:#471365;fill-opacity:0.8;stroke:#471365;stroke-opacity:0.8;" x="181.975381" xlink:href="#maf484b35c1" y="365.403085"/>
     <use style="fill:#471365;fill-opacity:0.8;stroke:#471365;stroke-opacity:0.8;" x="168.367813" xlink:href="#maf484b35c1" y="366.494227"/>
     <use style="fill:#471365;fill-opacity:0.8;stroke:#471365;stroke-opacity:0.8;" x="173.840219" xlink:href="#maf484b35c1" y="360.669679"/>
     <use style="fill:#471365;fill-opacity:0.8;stroke:#471365;stroke-opacity:0.8;" x="174.994611" xlink:href="#maf484b35c1" y="371.189213"/>
     <use style="fill:#471365;fill-opacity:0.8;stroke:#471365;stroke-opacity:0.8;" x="128.810066" xlink:href="#maf484b35c1" y="357.795825"/>
     <use style="fill:#471365;fill-opacity:0.8;stroke:#471365;stroke-opacity:0.8;" x="155.801185" xlink:href="#maf484b35c1" y="362.168078"/>
     <use style="fill:#471365;fill-opacity:0.8;stroke:#471365;stroke-opacity:0.8;" x="140.599249" xlink:href="#maf484b35c1" y="354.153561"/>
     <use style="fill:#471365;fill-opacity:0.8;stroke:#471365;stroke-opacity:0.8;" x="139.558776" xlink:href="#maf484b35c1" y="361.000095"/>
     <use style="fill:#471365;fill-opacity:0.8;stroke:#471365;stroke-opacity:0.8;" x="150.211983" xlink:href="#maf484b35c1" y="361.161461"/>
     <use style="fill:#471365;fill-opacity:0.8;stroke:#471365;stroke-opacity:0.8;" x="198.978486" xlink:href="#maf484b35c1" y="364.319627"/>
     <use style="fill:#471365;fill-opacity:0.8;stroke:#471365;stroke-opacity:0.8;" x="153.302016" xlink:href="#maf484b35c1" y="360.74652"/>
     <use style="fill:#471365;fill-opacity:0.8;stroke:#471365;stroke-opacity:0.8;" x="152.624046" xlink:href="#maf484b35c1" y="358.057084"/>
     <use style="fill:#471365;fill-opacity:0.8;stroke:#471365;stroke-opacity:0.8;" x="141.119189" xlink:href="#maf484b35c1" y="358.087821"/>
     <use style="fill:#471365;fill-opacity:0.8;stroke:#471365;stroke-opacity:0.8;" x="193.972121" xlink:href="#maf484b35c1" y="364.703832"/>
     <use style="fill:#471365;fill-opacity:0.8;stroke:#471365;stroke-opacity:0.8;" x="171.346225" xlink:href="#maf484b35c1" y="365.310876"/>
     <use style="fill:#471365;fill-opacity:0.8;stroke:#471365;stroke-opacity:0.8;" x="136.08445" xlink:href="#maf484b35c1" y="358.187714"/>
    </g>
   </g>
   <g id="PolyCollection_1">
    <defs>
     <path d="M 63.579924 -107.07238 
L 63.579924 -88.68419 
L 66.353646 -88.25675 
L 69.127368 -87.82931 
L 71.90109 -87.40187 
L 74.674813 -86.97443 
L 77.448535 -86.54699 
L 80.222257 -86.11955 
L 82.995979 -85.69211 
L 85.769701 -85.264671 
L 88.543423 -84.837231 
L 91.317145 -84.409791 
L 94.090867 -83.982941 
L 96.864589 -83.556119 
L 99.638311 -83.129297 
L 102.412033 -82.702476 
L 105.185755 -82.275654 
L 107.959477 -81.848832 
L 110.733199 -81.42201 
L 113.506921 -80.992161 
L 116.280644 -80.554507 
L 119.054366 -80.097995 
L 121.828088 -79.638767 
L 124.60181 -79.17954 
L 127.375532 -78.720312 
L 130.149254 -78.261084 
L 132.922976 -77.830472 
L 135.696698 -77.410131 
L 138.47042 -76.991367 
L 141.244142 -76.571592 
L 144.017864 -76.147881 
L 146.791586 -75.702891 
L 149.565308 -75.26509 
L 152.33903 -74.807482 
L 155.112753 -74.344696 
L 157.886475 -73.861416 
L 160.660197 -73.409297 
L 163.433919 -72.968298 
L 166.207641 -72.501719 
L 168.981363 -72.048989 
L 171.755085 -71.569746 
L 174.528807 -71.085259 
L 177.302529 -70.56268 
L 180.076251 -70.128957 
L 182.849973 -69.546306 
L 185.623695 -68.941741 
L 188.397417 -68.306728 
L 191.171139 -67.668474 
L 193.944861 -66.947131 
L 196.718584 -66.254036 
L 199.492306 -65.501849 
L 202.266028 -64.798543 
L 205.03975 -64.030956 
L 207.813472 -63.289577 
L 210.587194 -62.520808 
L 213.360916 -61.707946 
L 216.134638 -60.918108 
L 218.90836 -60.095538 
L 221.682082 -59.279159 
L 224.455804 -58.510512 
L 227.229526 -57.726714 
L 230.003248 -56.911848 
L 232.77697 -56.050085 
L 235.550693 -55.206992 
L 238.324415 -54.396034 
L 241.098137 -53.572467 
L 243.871859 -52.750559 
L 246.645581 -51.929522 
L 249.419303 -51.133932 
L 252.193025 -50.306096 
L 254.966747 -49.461521 
L 257.740469 -48.63919 
L 260.514191 -47.825578 
L 263.287913 -47.051515 
L 266.061635 -46.277452 
L 268.835357 -45.503388 
L 271.609079 -44.693848 
L 274.382801 -43.85662 
L 277.156524 -42.994827 
L 279.930246 -42.133034 
L 282.703968 -41.271241 
L 285.47769 -40.414805 
L 288.251412 -39.59127 
L 291.025134 -38.768855 
L 293.798856 -37.947071 
L 296.572578 -37.142567 
L 299.3463 -36.349084 
L 302.120022 -35.555602 
L 304.893744 -34.725908 
L 307.667466 -33.870142 
L 310.441188 -33.014376 
L 313.21491 -32.188866 
L 315.988633 -31.365485 
L 318.762355 -30.543115 
L 321.536077 -29.721212 
L 324.309799 -28.89931 
L 327.083521 -28.092111 
L 329.857243 -27.293992 
L 332.630965 -26.495874 
L 335.404687 -25.697755 
L 338.178409 -24.899637 
L 338.178409 -46.034917 
L 338.178409 -46.034917 
L 335.404687 -46.459897 
L 332.630965 -46.884877 
L 329.857243 -47.309857 
L 327.083521 -47.734837 
L 324.309799 -48.161392 
L 321.536077 -48.617492 
L 318.762355 -49.073591 
L 315.988633 -49.529691 
L 313.21491 -49.985604 
L 310.441188 -50.441444 
L 307.667466 -50.877059 
L 304.893744 -51.302551 
L 302.120022 -51.7275 
L 299.3463 -52.152323 
L 296.572578 -52.577147 
L 293.798856 -53.00197 
L 291.025134 -53.423536 
L 288.251412 -53.839411 
L 285.47769 -54.277086 
L 282.703968 -54.710081 
L 279.930246 -55.159188 
L 277.156524 -55.575857 
L 274.382801 -56.028139 
L 271.609079 -56.460682 
L 268.835357 -56.864606 
L 266.061635 -57.297158 
L 263.287913 -57.750199 
L 260.514191 -58.203241 
L 257.740469 -58.668353 
L 254.966747 -59.123211 
L 252.193025 -59.593091 
L 249.419303 -60.049511 
L 246.645581 -60.48519 
L 243.871859 -60.921072 
L 241.098137 -61.359715 
L 238.324415 -61.791941 
L 235.550693 -62.267607 
L 232.77697 -62.678527 
L 230.003248 -63.134335 
L 227.229526 -63.596019 
L 224.455804 -64.062154 
L 221.682082 -64.519797 
L 218.90836 -64.983467 
L 216.134638 -65.446116 
L 213.360916 -65.930637 
L 210.587194 -66.428844 
L 207.813472 -66.946296 
L 205.03975 -67.475615 
L 202.266028 -68.00836 
L 199.492306 -68.575586 
L 196.718584 -69.084452 
L 193.944861 -69.707376 
L 191.171139 -70.324291 
L 188.397417 -71.00417 
L 185.623695 -71.640405 
L 182.849973 -72.333431 
L 180.076251 -73.028149 
L 177.302529 -73.759297 
L 174.528807 -74.461101 
L 171.755085 -75.149841 
L 168.981363 -75.936253 
L 166.207641 -76.716661 
L 163.433919 -77.473219 
L 160.660197 -78.301341 
L 157.886475 -79.092193 
L 155.112753 -79.827738 
L 152.33903 -80.701594 
L 149.565308 -81.500261 
L 146.791586 -82.349299 
L 144.017864 -83.124991 
L 141.244142 -83.914015 
L 138.47042 -84.743327 
L 135.696698 -85.573988 
L 132.922976 -86.403641 
L 130.149254 -87.19288 
L 127.375532 -87.963331 
L 124.60181 -88.789728 
L 121.828088 -89.673213 
L 119.054366 -90.474961 
L 116.280644 -91.315447 
L 113.506921 -92.183496 
L 110.733199 -93.017346 
L 107.959477 -93.81807 
L 105.185755 -94.679344 
L 102.412033 -95.537708 
L 99.638311 -96.369042 
L 96.864589 -97.185518 
L 94.090867 -97.953348 
L 91.317145 -98.721179 
L 88.543423 -99.489009 
L 85.769701 -100.25684 
L 82.995979 -101.052016 
L 80.222257 -101.912068 
L 77.448535 -102.77212 
L 74.674813 -103.632172 
L 71.90109 -104.492224 
L 69.127368 -105.352276 
L 66.353646 -106.212328 
L 63.579924 -107.07238 
z
" id="m0a75a4f700" style="stroke:#ffffff;stroke-opacity:0.15;stroke-width:0.8;"/>
    </defs>
    <g clip-path="url(#pe105858917)">
     <use style="fill:#471365;fill-opacity:0.15;stroke:#ffffff;stroke-opacity:0.15;stroke-width:0.8;" x="0" xlink:href="#m0a75a4f700" y="432"/>
    </g>
   </g>
   <g id="line2d_15">
    <path clip-path="url(#pe105858917)" d="M 63.579924 334.853615 
L 66.353646 335.463626 
L 69.127368 336.073638 
L 71.90109 336.68365 
L 74.674813 337.293662 
L 77.448535 337.903673 
L 80.222257 338.513685 
L 82.995979 339.123697 
L 85.769701 339.733708 
L 88.543423 340.34372 
L 91.317145 340.953732 
L 94.090867 341.563744 
L 96.864589 342.173755 
L 99.638311 342.783767 
L 102.412033 343.393779 
L 105.185755 344.00379 
L 107.959477 344.613802 
L 110.733199 345.223814 
L 113.506921 345.833826 
L 116.280644 346.443837 
L 119.054366 347.053849 
L 121.828088 347.663861 
L 124.60181 348.273872 
L 127.375532 348.883884 
L 130.149254 349.493896 
L 132.922976 350.103908 
L 135.696698 350.713919 
L 138.47042 351.323931 
L 141.244142 351.933943 
L 144.017864 352.543954 
L 146.791586 353.153966 
L 149.565308 353.763978 
L 152.33903 354.37399 
L 155.112753 354.984001 
L 157.886475 355.594013 
L 160.660197 356.204025 
L 163.433919 356.814036 
L 166.207641 357.424048 
L 168.981363 358.03406 
L 171.755085 358.644072 
L 174.528807 359.254083 
L 177.302529 359.864095 
L 180.076251 360.474107 
L 182.849973 361.084119 
L 185.623695 361.69413 
L 188.397417 362.304142 
L 191.171139 362.914154 
L 193.944861 363.524165 
L 196.718584 364.134177 
L 199.492306 364.744189 
L 202.266028 365.354201 
L 205.03975 365.964212 
L 207.813472 366.574224 
L 210.587194 367.184236 
L 213.360916 367.794247 
L 216.134638 368.404259 
L 218.90836 369.014271 
L 221.682082 369.624283 
L 224.455804 370.234294 
L 227.229526 370.844306 
L 230.003248 371.454318 
L 232.77697 372.064329 
L 235.550693 372.674341 
L 238.324415 373.284353 
L 241.098137 373.894365 
L 243.871859 374.504376 
L 246.645581 375.114388 
L 249.419303 375.7244 
L 252.193025 376.334411 
L 254.966747 376.944423 
L 257.740469 377.554435 
L 260.514191 378.164447 
L 263.287913 378.774458 
L 266.061635 379.38447 
L 268.835357 379.994482 
L 271.609079 380.604493 
L 274.382801 381.214505 
L 277.156524 381.824517 
L 279.930246 382.434529 
L 282.703968 383.04454 
L 285.47769 383.654552 
L 288.251412 384.264564 
L 291.025134 384.874575 
L 293.798856 385.484587 
L 296.572578 386.094599 
L 299.3463 386.704611 
L 302.120022 387.314622 
L 304.893744 387.924634 
L 307.667466 388.534646 
L 310.441188 389.144658 
L 313.21491 389.754669 
L 315.988633 390.364681 
L 318.762355 390.974693 
L 321.536077 391.584704 
L 324.309799 392.194716 
L 327.083521 392.804728 
L 329.857243 393.41474 
L 332.630965 394.024751 
L 335.404687 394.634763 
L 338.178409 395.244775 
" style="fill:none;stroke:#471365;stroke-linecap:round;stroke-width:1.8;"/>
   </g>
   <g id="patch_3">
    <path d="M 49.85 389.9 
L 49.85 81.383333 
" style="fill:none;stroke:#262626;stroke-linecap:square;stroke-linejoin:miter;"/>
   </g>
   <g id="patch_4">
    <path d="M 49.85 389.9 
L 351.908333 389.9 
" style="fill:none;stroke:#262626;stroke-linecap:square;stroke-linejoin:miter;"/>
   </g>
   <g id="legend_1">
    <g id="patch_5">
     <path d="M 184.579083 101.340083 
L 345.748333 101.340083 
Q 347.508333 101.340083 347.508333 99.580083 
L 347.508333 87.543333 
Q 347.508333 85.783333 345.748333 85.783333 
L 184.579083 85.783333 
Q 182.819083 85.783333 182.819083 87.543333 
L 182.819083 99.580083 
Q 182.819083 101.340083 184.579083 101.340083 
z
" style="fill:#ffffff;opacity:0.8;stroke:#cccccc;stroke-linejoin:miter;stroke-width:0.8;"/>
    </g>
    <g id="line2d_16"/>
    <g id="line2d_17"/>
    <g id="text_17">
     <!-- pearsonr = -0.45; p = 8.9e-12 -->
     <defs>
      <path d="M 18.109375 8.203125 
L 18.109375 -20.796875 
L 9.078125 -20.796875 
L 9.078125 54.6875 
L 18.109375 54.6875 
L 18.109375 46.390625 
Q 20.953125 51.265625 25.265625 53.625 
Q 29.59375 56 35.59375 56 
Q 45.5625 56 51.78125 48.09375 
Q 58.015625 40.1875 58.015625 27.296875 
Q 58.015625 14.40625 51.78125 6.484375 
Q 45.5625 -1.421875 35.59375 -1.421875 
Q 29.59375 -1.421875 25.265625 0.953125 
Q 20.953125 3.328125 18.109375 8.203125 
z
M 48.6875 27.296875 
Q 48.6875 37.203125 44.609375 42.84375 
Q 40.53125 48.484375 33.40625 48.484375 
Q 26.265625 48.484375 22.1875 42.84375 
Q 18.109375 37.203125 18.109375 27.296875 
Q 18.109375 17.390625 22.1875 11.75 
Q 26.265625 6.109375 33.40625 6.109375 
Q 40.53125 6.109375 44.609375 11.75 
Q 48.6875 17.390625 48.6875 27.296875 
z
" id="DejaVuSans-70"/>
      <path d="M 44.28125 53.078125 
L 44.28125 44.578125 
Q 40.484375 46.53125 36.375 47.5 
Q 32.28125 48.484375 27.875 48.484375 
Q 21.1875 48.484375 17.84375 46.4375 
Q 14.5 44.390625 14.5 40.28125 
Q 14.5 37.15625 16.890625 35.375 
Q 19.28125 33.59375 26.515625 31.984375 
L 29.59375 31.296875 
Q 39.15625 29.25 43.1875 25.515625 
Q 47.21875 21.78125 47.21875 15.09375 
Q 47.21875 7.46875 41.1875 3.015625 
Q 35.15625 -1.421875 24.609375 -1.421875 
Q 20.21875 -1.421875 15.453125 -0.5625 
Q 10.6875 0.296875 5.421875 2 
L 5.421875 11.28125 
Q 10.40625 8.6875 15.234375 7.390625 
Q 20.0625 6.109375 24.8125 6.109375 
Q 31.15625 6.109375 34.5625 8.28125 
Q 37.984375 10.453125 37.984375 14.40625 
Q 37.984375 18.0625 35.515625 20.015625 
Q 33.0625 21.96875 24.703125 23.78125 
L 21.578125 24.515625 
Q 13.234375 26.265625 9.515625 29.90625 
Q 5.8125 33.546875 5.8125 39.890625 
Q 5.8125 47.609375 11.28125 51.796875 
Q 16.75 56 26.8125 56 
Q 31.78125 56 36.171875 55.265625 
Q 40.578125 54.546875 44.28125 53.078125 
z
" id="DejaVuSans-73"/>
      <path d="M 10.59375 45.40625 
L 73.1875 45.40625 
L 73.1875 37.203125 
L 10.59375 37.203125 
z
M 10.59375 25.484375 
L 73.1875 25.484375 
L 73.1875 17.1875 
L 10.59375 17.1875 
z
" id="DejaVuSans-3d"/>
      <path d="M 10.6875 12.40625 
L 21 12.40625 
L 21 0 
L 10.6875 0 
z
" id="DejaVuSans-2e"/>
      <path d="M 10.796875 72.90625 
L 49.515625 72.90625 
L 49.515625 64.59375 
L 19.828125 64.59375 
L 19.828125 46.734375 
Q 21.96875 47.46875 24.109375 47.828125 
Q 26.265625 48.1875 28.421875 48.1875 
Q 40.625 48.1875 47.75 41.5 
Q 54.890625 34.8125 54.890625 23.390625 
Q 54.890625 11.625 47.5625 5.09375 
Q 40.234375 -1.421875 26.90625 -1.421875 
Q 22.3125 -1.421875 17.546875 -0.640625 
Q 12.796875 0.140625 7.71875 1.703125 
L 7.71875 11.625 
Q 12.109375 9.234375 16.796875 8.0625 
Q 21.484375 6.890625 26.703125 6.890625 
Q 35.15625 6.890625 40.078125 11.328125 
Q 45.015625 15.765625 45.015625 23.390625 
Q 45.015625 31 40.078125 35.4375 
Q 35.15625 39.890625 26.703125 39.890625 
Q 22.75 39.890625 18.8125 39.015625 
Q 14.890625 38.140625 10.796875 36.28125 
z
" id="DejaVuSans-35"/>
      <path d="M 11.71875 51.703125 
L 22.015625 51.703125 
L 22.015625 39.3125 
L 11.71875 39.3125 
z
M 11.71875 12.40625 
L 22.015625 12.40625 
L 22.015625 4 
L 14.015625 -11.625 
L 7.71875 -11.625 
L 11.71875 4 
z
" id="DejaVuSans-3b"/>
      <path d="M 10.984375 1.515625 
L 10.984375 10.5 
Q 14.703125 8.734375 18.5 7.8125 
Q 22.3125 6.890625 25.984375 6.890625 
Q 35.75 6.890625 40.890625 13.453125 
Q 46.046875 20.015625 46.78125 33.40625 
Q 43.953125 29.203125 39.59375 26.953125 
Q 35.25 24.703125 29.984375 24.703125 
Q 19.046875 24.703125 12.671875 31.3125 
Q 6.296875 37.9375 6.296875 49.421875 
Q 6.296875 60.640625 12.9375 67.421875 
Q 19.578125 74.21875 30.609375 74.21875 
Q 43.265625 74.21875 49.921875 64.515625 
Q 56.59375 54.828125 56.59375 36.375 
Q 56.59375 19.140625 48.40625 8.859375 
Q 40.234375 -1.421875 26.421875 -1.421875 
Q 22.703125 -1.421875 18.890625 -0.6875 
Q 15.09375 0.046875 10.984375 1.515625 
z
M 30.609375 32.421875 
Q 37.25 32.421875 41.125 36.953125 
Q 45.015625 41.5 45.015625 49.421875 
Q 45.015625 57.28125 41.125 61.84375 
Q 37.25 66.40625 30.609375 66.40625 
Q 23.96875 66.40625 20.09375 61.84375 
Q 16.21875 57.28125 16.21875 49.421875 
Q 16.21875 41.5 20.09375 36.953125 
Q 23.96875 32.421875 30.609375 32.421875 
z
" id="DejaVuSans-39"/>
     </defs>
     <g style="fill:#262626;" transform="translate(210.979083 95.989958)scale(0.088 -0.088)">
      <use xlink:href="#DejaVuSans-70"/>
      <use x="63.476562" xlink:href="#DejaVuSans-65"/>
      <use x="125" xlink:href="#DejaVuSans-61"/>
      <use x="186.279297" xlink:href="#DejaVuSans-72"/>
      <use x="227.392578" xlink:href="#DejaVuSans-73"/>
      <use x="279.492188" xlink:href="#DejaVuSans-6f"/>
      <use x="340.673828" xlink:href="#DejaVuSans-6e"/>
      <use x="404.052734" xlink:href="#DejaVuSans-72"/>
      <use x="445.166016" xlink:href="#DejaVuSans-20"/>
      <use x="476.953125" xlink:href="#DejaVuSans-3d"/>
      <use x="560.742188" xlink:href="#DejaVuSans-20"/>
      <use x="592.529297" xlink:href="#DejaVuSans-2d"/>
      <use x="628.613281" xlink:href="#DejaVuSans-30"/>
      <use x="692.236328" xlink:href="#DejaVuSans-2e"/>
      <use x="724.023438" xlink:href="#DejaVuSans-34"/>
      <use x="787.646484" xlink:href="#DejaVuSans-35"/>
      <use x="851.269531" xlink:href="#DejaVuSans-3b"/>
      <use x="884.960938" xlink:href="#DejaVuSans-20"/>
      <use x="916.748047" xlink:href="#DejaVuSans-70"/>
      <use x="980.224609" xlink:href="#DejaVuSans-20"/>
      <use x="1012.011719" xlink:href="#DejaVuSans-3d"/>
      <use x="1095.800781" xlink:href="#DejaVuSans-20"/>
      <use x="1127.587891" xlink:href="#DejaVuSans-38"/>
      <use x="1191.210938" xlink:href="#DejaVuSans-2e"/>
      <use x="1222.998047" xlink:href="#DejaVuSans-39"/>
      <use x="1286.621094" xlink:href="#DejaVuSans-65"/>
      <use x="1348.144531" xlink:href="#DejaVuSans-2d"/>
      <use x="1384.228516" xlink:href="#DejaVuSans-31"/>
      <use x="1447.851562" xlink:href="#DejaVuSans-32"/>
     </g>
    </g>
   </g>
  </g>
  <g id="axes_2">
   <g id="patch_6">
    <path d="M 49.85 60.983333 
L 351.908333 60.983333 
L 351.908333 15.6 
L 49.85 15.6 
z
" style="fill:#ffffff;"/>
   </g>
   <g id="matplotlib.axis_3">
    <g id="xtick_9">
     <g id="line2d_18">
      <g>
       <use style="fill:#262626;stroke:#262626;" x="61.725111" xlink:href="#me9cdd16c28" y="60.983333"/>
      </g>
     </g>
    </g>
    <g id="xtick_10">
     <g id="line2d_19">
      <g>
       <use style="fill:#262626;stroke:#262626;" x="102.874159" xlink:href="#me9cdd16c28" y="60.983333"/>
      </g>
     </g>
    </g>
    <g id="xtick_11">
     <g id="line2d_20">
      <g>
       <use style="fill:#262626;stroke:#262626;" x="144.023207" xlink:href="#me9cdd16c28" y="60.983333"/>
      </g>
     </g>
    </g>
    <g id="xtick_12">
     <g id="line2d_21">
      <g>
       <use style="fill:#262626;stroke:#262626;" x="185.172255" xlink:href="#me9cdd16c28" y="60.983333"/>
      </g>
     </g>
    </g>
    <g id="xtick_13">
     <g id="line2d_22">
      <g>
       <use style="fill:#262626;stroke:#262626;" x="226.321303" xlink:href="#me9cdd16c28" y="60.983333"/>
      </g>
     </g>
    </g>
    <g id="xtick_14">
     <g id="line2d_23">
      <g>
       <use style="fill:#262626;stroke:#262626;" x="267.470351" xlink:href="#me9cdd16c28" y="60.983333"/>
      </g>
     </g>
    </g>
    <g id="xtick_15">
     <g id="line2d_24">
      <g>
       <use style="fill:#262626;stroke:#262626;" x="308.6194" xlink:href="#me9cdd16c28" y="60.983333"/>
      </g>
     </g>
    </g>
    <g id="xtick_16">
     <g id="line2d_25">
      <g>
       <use style="fill:#262626;stroke:#262626;" x="349.768448" xlink:href="#me9cdd16c28" y="60.983333"/>
      </g>
     </g>
    </g>
   </g>
   <g id="matplotlib.axis_4">
    <g id="ytick_7"/>
    <g id="ytick_8"/>
   </g>
   <g id="patch_7">
    <path clip-path="url(#p4da504303b)" d="M 114.588931 60.983333 
L 130.278065 60.983333 
L 130.278065 24.797287 
L 114.588931 24.797287 
z
" style="fill:#471365;opacity:0.4;stroke:#ffffff;stroke-linejoin:miter;stroke-width:0.8;"/>
   </g>
   <g id="patch_8">
    <path clip-path="url(#p4da504303b)" d="M 130.278065 60.983333 
L 145.967199 60.983333 
L 145.967199 17.761111 
L 130.278065 17.761111 
z
" style="fill:#471365;opacity:0.4;stroke:#ffffff;stroke-linejoin:miter;stroke-width:0.8;"/>
   </g>
   <g id="patch_9">
    <path clip-path="url(#p4da504303b)" d="M 145.967199 60.983333 
L 161.656332 60.983333 
L 161.656332 21.781783 
L 145.967199 21.781783 
z
" style="fill:#471365;opacity:0.4;stroke:#ffffff;stroke-linejoin:miter;stroke-width:0.8;"/>
   </g>
   <g id="patch_10">
    <path clip-path="url(#p4da504303b)" d="M 161.656332 60.983333 
L 177.345466 60.983333 
L 177.345466 31.833463 
L 161.656332 31.833463 
z
" style="fill:#471365;opacity:0.4;stroke:#ffffff;stroke-linejoin:miter;stroke-width:0.8;"/>
   </g>
   <g id="patch_11">
    <path clip-path="url(#p4da504303b)" d="M 177.345466 60.983333 
L 193.0346 60.983333 
L 193.0346 42.89031 
L 177.345466 42.89031 
z
" style="fill:#471365;opacity:0.4;stroke:#ffffff;stroke-linejoin:miter;stroke-width:0.8;"/>
   </g>
   <g id="patch_12">
    <path clip-path="url(#p4da504303b)" d="M 193.0346 60.983333 
L 208.723734 60.983333 
L 208.723734 42.89031 
L 193.0346 42.89031 
z
" style="fill:#471365;opacity:0.4;stroke:#ffffff;stroke-linejoin:miter;stroke-width:0.8;"/>
   </g>
   <g id="patch_13">
    <path clip-path="url(#p4da504303b)" d="M 208.723734 60.983333 
L 224.412867 60.983333 
L 224.412867 52.94199 
L 208.723734 52.94199 
z
" style="fill:#471365;opacity:0.4;stroke:#ffffff;stroke-linejoin:miter;stroke-width:0.8;"/>
   </g>
   <g id="patch_14">
    <path clip-path="url(#p4da504303b)" d="M 224.412867 60.983333 
L 240.102001 60.983333 
L 240.102001 53.947158 
L 224.412867 53.947158 
z
" style="fill:#471365;opacity:0.4;stroke:#ffffff;stroke-linejoin:miter;stroke-width:0.8;"/>
   </g>
   <g id="patch_15">
    <path clip-path="url(#p4da504303b)" d="M 240.102001 60.983333 
L 255.791135 60.983333 
L 255.791135 54.952326 
L 240.102001 54.952326 
z
" style="fill:#471365;opacity:0.4;stroke:#ffffff;stroke-linejoin:miter;stroke-width:0.8;"/>
   </g>
   <g id="patch_16">
    <path clip-path="url(#p4da504303b)" d="M 255.791135 60.983333 
L 271.480268 60.983333 
L 271.480268 57.967829 
L 255.791135 57.967829 
z
" style="fill:#471365;opacity:0.4;stroke:#ffffff;stroke-linejoin:miter;stroke-width:0.8;"/>
   </g>
   <g id="patch_17">
    <path clip-path="url(#p4da504303b)" d="M 271.480268 60.983333 
L 287.169402 60.983333 
L 287.169402 57.967829 
L 271.480268 57.967829 
z
" style="fill:#471365;opacity:0.4;stroke:#ffffff;stroke-linejoin:miter;stroke-width:0.8;"/>
   </g>
   <g id="line2d_26">
    <path clip-path="url(#p4da504303b)" d="M 76.061674 60.948615 
L 78.583239 60.917776 
L 81.104805 60.863674 
L 83.62637 60.772136 
L 86.147936 60.622742 
L 88.669501 60.387531 
L 91.191067 60.030224 
L 93.712632 59.506461 
L 96.234198 58.765506 
L 98.755763 57.753799 
L 101.277329 56.420412 
L 103.798894 54.724054 
L 106.32046 52.640826 
L 108.842025 50.171462 
L 111.363591 47.346644 
L 113.885156 44.229064 
L 116.406722 40.911381 
L 118.928287 37.509955 
L 121.449853 34.155061 
L 123.971418 30.978993 
L 126.492984 28.103873 
L 129.014549 25.63094 
L 131.536115 23.632731 
L 134.05768 22.148915 
L 136.579246 21.185872 
L 139.100811 20.719562 
L 141.622377 20.700867 
L 144.143943 21.062493 
L 146.665508 21.726542 
L 149.187074 22.612032 
L 151.708639 23.641782 
L 154.230205 24.74824 
L 156.75177 25.877911 
L 159.273336 26.994145 
L 161.794901 28.07802 
L 164.316467 29.127206 
L 166.838032 30.152802 
L 169.359598 31.174448 
L 171.881163 32.214407 
L 174.402729 33.291643 
L 176.924294 34.417104 
L 179.44586 35.591275 
L 181.967425 36.804526 
L 184.488991 38.040061 
L 187.010556 39.278496 
L 189.532122 40.502611 
L 192.053687 41.700838 
L 194.575253 42.868476 
L 197.096818 44.006426 
L 199.618384 45.118025 
L 202.139949 46.205142 
L 204.661515 47.264845 
L 207.18308 48.287688 
L 209.704646 49.258113 
L 212.226211 50.156855 
L 214.747777 50.964648 
L 217.269343 51.666304 
L 219.790908 52.254137 
L 222.312474 52.730001 
L 224.834039 53.105515 
L 227.355605 53.40053 
L 229.87717 53.640231 
L 232.398736 53.851533 
L 234.920301 54.059476 
L 237.441867 54.28426 
L 239.963432 54.539316 
L 242.484998 54.830587 
L 245.006563 55.156913 
L 247.528129 55.511296 
L 250.049694 55.882686 
L 252.57126 56.257971 
L 255.092825 56.623881 
L 257.614391 56.968594 
L 260.135956 57.28294 
L 262.657522 57.561152 
L 265.179087 57.801192 
L 267.700653 58.004708 
L 270.222218 58.176677 
L 272.743784 58.324775 
L 275.265349 58.458497 
L 277.786915 58.588054 
L 280.30848 58.723098 
L 282.830046 58.871425 
L 285.351612 59.037854 
L 287.873177 59.223499 
L 290.394743 59.425636 
L 292.916308 59.638222 
L 295.437874 59.852988 
L 297.959439 60.060865 
L 300.481005 60.253445 
L 303.00257 60.424164 
L 305.524136 60.569003 
L 308.045701 60.686651 
L 310.567267 60.77818 
L 313.088832 60.846413 
L 315.610398 60.895174 
L 318.131963 60.928591 
L 320.653529 60.950562 
L 323.175094 60.964423 
L 325.69666 60.972818 
" style="fill:none;stroke:#471365;stroke-linecap:round;stroke-width:1.2;"/>
   </g>
   <g id="patch_18">
    <path d="M 49.85 60.983333 
L 351.908333 60.983333 
" style="fill:none;stroke:#262626;stroke-linecap:square;stroke-linejoin:miter;"/>
   </g>
  </g>
  <g id="axes_3">
   <g id="patch_19">
    <path d="M 372.308333 389.9 
L 416.4 389.9 
L 416.4 81.383333 
L 372.308333 81.383333 
z
" style="fill:#ffffff;"/>
   </g>
   <g id="matplotlib.axis_5">
    <g id="xtick_17"/>
    <g id="xtick_18"/>
   </g>
   <g id="matplotlib.axis_6">
    <g id="ytick_9">
     <g id="line2d_27">
      <g>
       <use style="fill:#262626;stroke:#262626;" x="372.308333" xlink:href="#m07da76a65e" y="389.9"/>
      </g>
     </g>
    </g>
    <g id="ytick_10">
     <g id="line2d_28">
      <g>
       <use style="fill:#262626;stroke:#262626;" x="372.308333" xlink:href="#m07da76a65e" y="333.806061"/>
      </g>
     </g>
    </g>
    <g id="ytick_11">
     <g id="line2d_29">
      <g>
       <use style="fill:#262626;stroke:#262626;" x="372.308333" xlink:href="#m07da76a65e" y="277.712121"/>
      </g>
     </g>
    </g>
    <g id="ytick_12">
     <g id="line2d_30">
      <g>
       <use style="fill:#262626;stroke:#262626;" x="372.308333" xlink:href="#m07da76a65e" y="221.618182"/>
      </g>
     </g>
    </g>
    <g id="ytick_13">
     <g id="line2d_31">
      <g>
       <use style="fill:#262626;stroke:#262626;" x="372.308333" xlink:href="#m07da76a65e" y="165.524242"/>
      </g>
     </g>
    </g>
    <g id="ytick_14">
     <g id="line2d_32">
      <g>
       <use style="fill:#262626;stroke:#262626;" x="372.308333" xlink:href="#m07da76a65e" y="109.430303"/>
      </g>
     </g>
    </g>
   </g>
   <g id="patch_20">
    <path clip-path="url(#pfb29e35b32)" d="M 372.308333 371.189213 
L 383.449085 371.189213 
L 383.449085 367.881208 
L 372.308333 367.881208 
z
" style="fill:#471365;opacity:0.4;stroke:#ffffff;stroke-linejoin:miter;stroke-width:0.8;"/>
   </g>
   <g id="patch_21">
    <path clip-path="url(#pfb29e35b32)" d="M 372.308333 367.881208 
L 408.301531 367.881208 
L 408.301531 364.573202 
L 372.308333 364.573202 
z
" style="fill:#471365;opacity:0.4;stroke:#ffffff;stroke-linejoin:miter;stroke-width:0.8;"/>
   </g>
   <g id="patch_22">
    <path clip-path="url(#pfb29e35b32)" d="M 372.308333 364.573202 
L 414.300397 364.573202 
L 414.300397 361.265197 
L 372.308333 361.265197 
z
" style="fill:#471365;opacity:0.4;stroke:#ffffff;stroke-linejoin:miter;stroke-width:0.8;"/>
   </g>
   <g id="patch_23">
    <path clip-path="url(#pfb29e35b32)" d="M 372.308333 361.265197 
L 413.443416 361.265197 
L 413.443416 357.957191 
L 372.308333 357.957191 
z
" style="fill:#471365;opacity:0.4;stroke:#ffffff;stroke-linejoin:miter;stroke-width:0.8;"/>
   </g>
   <g id="patch_24">
    <path clip-path="url(#pfb29e35b32)" d="M 372.308333 357.957191 
L 388.59097 357.957191 
L 388.59097 354.649185 
L 372.308333 354.649185 
z
" style="fill:#471365;opacity:0.4;stroke:#ffffff;stroke-linejoin:miter;stroke-width:0.8;"/>
   </g>
   <g id="patch_25">
    <path clip-path="url(#pfb29e35b32)" d="M 372.308333 354.649185 
L 382.592104 354.649185 
L 382.592104 351.34118 
L 372.308333 351.34118 
z
" style="fill:#471365;opacity:0.4;stroke:#ffffff;stroke-linejoin:miter;stroke-width:0.8;"/>
   </g>
   <g id="patch_26">
    <path clip-path="url(#pfb29e35b32)" d="M 372.308333 351.34118 
L 377.450219 351.34118 
L 377.450219 348.033174 
L 372.308333 348.033174 
z
" style="fill:#471365;opacity:0.4;stroke:#ffffff;stroke-linejoin:miter;stroke-width:0.8;"/>
   </g>
   <g id="patch_27">
    <path clip-path="url(#pfb29e35b32)" d="M 372.308333 348.033174 
L 377.450219 348.033174 
L 377.450219 344.725169 
L 372.308333 344.725169 
z
" style="fill:#471365;opacity:0.4;stroke:#ffffff;stroke-linejoin:miter;stroke-width:0.8;"/>
   </g>
   <g id="patch_28">
    <path clip-path="url(#pfb29e35b32)" d="M 372.308333 344.725169 
L 372.308333 344.725169 
L 372.308333 341.417163 
L 372.308333 341.417163 
z
" style="fill:#471365;opacity:0.4;stroke:#ffffff;stroke-linejoin:miter;stroke-width:0.8;"/>
   </g>
   <g id="patch_29">
    <path clip-path="url(#pfb29e35b32)" d="M 372.308333 341.417163 
L 374.022295 341.417163 
L 374.022295 338.109157 
L 372.308333 338.109157 
z
" style="fill:#471365;opacity:0.4;stroke:#ffffff;stroke-linejoin:miter;stroke-width:0.8;"/>
   </g>
   <g id="patch_30">
    <path clip-path="url(#pfb29e35b32)" d="M 372.308333 338.109157 
L 374.022295 338.109157 
L 374.022295 334.801152 
L 372.308333 334.801152 
z
" style="fill:#471365;opacity:0.4;stroke:#ffffff;stroke-linejoin:miter;stroke-width:0.8;"/>
   </g>
   <g id="patch_31">
    <path clip-path="url(#pfb29e35b32)" d="M 372.308333 334.801152 
L 374.022295 334.801152 
L 374.022295 331.493146 
L 372.308333 331.493146 
z
" style="fill:#471365;opacity:0.4;stroke:#ffffff;stroke-linejoin:miter;stroke-width:0.8;"/>
   </g>
   <g id="patch_32">
    <path clip-path="url(#pfb29e35b32)" d="M 372.308333 331.493146 
L 373.165314 331.493146 
L 373.165314 328.185141 
L 372.308333 328.185141 
z
" style="fill:#471365;opacity:0.4;stroke:#ffffff;stroke-linejoin:miter;stroke-width:0.8;"/>
   </g>
   <g id="patch_33">
    <path clip-path="url(#pfb29e35b32)" d="M 372.308333 328.185141 
L 372.308333 328.185141 
L 372.308333 324.877135 
L 372.308333 324.877135 
z
" style="fill:#471365;opacity:0.4;stroke:#ffffff;stroke-linejoin:miter;stroke-width:0.8;"/>
   </g>
   <g id="patch_34">
    <path clip-path="url(#pfb29e35b32)" d="M 372.308333 324.877135 
L 372.308333 324.877135 
L 372.308333 321.569129 
L 372.308333 321.569129 
z
" style="fill:#471365;opacity:0.4;stroke:#ffffff;stroke-linejoin:miter;stroke-width:0.8;"/>
   </g>
   <g id="patch_35">
    <path clip-path="url(#pfb29e35b32)" d="M 372.308333 321.569129 
L 372.308333 321.569129 
L 372.308333 318.261124 
L 372.308333 318.261124 
z
" style="fill:#471365;opacity:0.4;stroke:#ffffff;stroke-linejoin:miter;stroke-width:0.8;"/>
   </g>
   <g id="patch_36">
    <path clip-path="url(#pfb29e35b32)" d="M 372.308333 318.261124 
L 373.165314 318.261124 
L 373.165314 314.953118 
L 372.308333 314.953118 
z
" style="fill:#471365;opacity:0.4;stroke:#ffffff;stroke-linejoin:miter;stroke-width:0.8;"/>
   </g>
   <g id="patch_37">
    <path clip-path="url(#pfb29e35b32)" d="M 372.308333 314.953118 
L 374.022295 314.953118 
L 374.022295 311.645112 
L 372.308333 311.645112 
z
" style="fill:#471365;opacity:0.4;stroke:#ffffff;stroke-linejoin:miter;stroke-width:0.8;"/>
   </g>
   <g id="patch_38">
    <path clip-path="url(#pfb29e35b32)" d="M 372.308333 311.645112 
L 372.308333 311.645112 
L 372.308333 308.337107 
L 372.308333 308.337107 
z
" style="fill:#471365;opacity:0.4;stroke:#ffffff;stroke-linejoin:miter;stroke-width:0.8;"/>
   </g>
   <g id="patch_39">
    <path clip-path="url(#pfb29e35b32)" d="M 372.308333 308.337107 
L 372.308333 308.337107 
L 372.308333 305.029101 
L 372.308333 305.029101 
z
" style="fill:#471365;opacity:0.4;stroke:#ffffff;stroke-linejoin:miter;stroke-width:0.8;"/>
   </g>
   <g id="patch_40">
    <path clip-path="url(#pfb29e35b32)" d="M 372.308333 305.029101 
L 373.165314 305.029101 
L 373.165314 301.721096 
L 372.308333 301.721096 
z
" style="fill:#471365;opacity:0.4;stroke:#ffffff;stroke-linejoin:miter;stroke-width:0.8;"/>
   </g>
   <g id="patch_41">
    <path clip-path="url(#pfb29e35b32)" d="M 372.308333 301.721096 
L 372.308333 301.721096 
L 372.308333 298.41309 
L 372.308333 298.41309 
z
" style="fill:#471365;opacity:0.4;stroke:#ffffff;stroke-linejoin:miter;stroke-width:0.8;"/>
   </g>
   <g id="patch_42">
    <path clip-path="url(#pfb29e35b32)" d="M 372.308333 298.41309 
L 372.308333 298.41309 
L 372.308333 295.105084 
L 372.308333 295.105084 
z
" style="fill:#471365;opacity:0.4;stroke:#ffffff;stroke-linejoin:miter;stroke-width:0.8;"/>
   </g>
   <g id="patch_43">
    <path clip-path="url(#pfb29e35b32)" d="M 372.308333 295.105084 
L 373.165314 295.105084 
L 373.165314 291.797079 
L 372.308333 291.797079 
z
" style="fill:#471365;opacity:0.4;stroke:#ffffff;stroke-linejoin:miter;stroke-width:0.8;"/>
   </g>
   <g id="patch_44">
    <path clip-path="url(#pfb29e35b32)" d="M 372.308333 291.797079 
L 372.308333 291.797079 
L 372.308333 288.489073 
L 372.308333 288.489073 
z
" style="fill:#471365;opacity:0.4;stroke:#ffffff;stroke-linejoin:miter;stroke-width:0.8;"/>
   </g>
   <g id="patch_45">
    <path clip-path="url(#pfb29e35b32)" d="M 372.308333 288.489073 
L 372.308333 288.489073 
L 372.308333 285.181068 
L 372.308333 285.181068 
z
" style="fill:#471365;opacity:0.4;stroke:#ffffff;stroke-linejoin:miter;stroke-width:0.8;"/>
   </g>
   <g id="patch_46">
    <path clip-path="url(#pfb29e35b32)" d="M 372.308333 285.181068 
L 372.308333 285.181068 
L 372.308333 281.873062 
L 372.308333 281.873062 
z
" style="fill:#471365;opacity:0.4;stroke:#ffffff;stroke-linejoin:miter;stroke-width:0.8;"/>
   </g>
   <g id="patch_47">
    <path clip-path="url(#pfb29e35b32)" d="M 372.308333 281.873062 
L 372.308333 281.873062 
L 372.308333 278.565056 
L 372.308333 278.565056 
z
" style="fill:#471365;opacity:0.4;stroke:#ffffff;stroke-linejoin:miter;stroke-width:0.8;"/>
   </g>
   <g id="patch_48">
    <path clip-path="url(#pfb29e35b32)" d="M 372.308333 278.565056 
L 372.308333 278.565056 
L 372.308333 275.257051 
L 372.308333 275.257051 
z
" style="fill:#471365;opacity:0.4;stroke:#ffffff;stroke-linejoin:miter;stroke-width:0.8;"/>
   </g>
   <g id="patch_49">
    <path clip-path="url(#pfb29e35b32)" d="M 372.308333 275.257051 
L 372.308333 275.257051 
L 372.308333 271.949045 
L 372.308333 271.949045 
z
" style="fill:#471365;opacity:0.4;stroke:#ffffff;stroke-linejoin:miter;stroke-width:0.8;"/>
   </g>
   <g id="patch_50">
    <path clip-path="url(#pfb29e35b32)" d="M 372.308333 271.949045 
L 372.308333 271.949045 
L 372.308333 268.64104 
L 372.308333 268.64104 
z
" style="fill:#471365;opacity:0.4;stroke:#ffffff;stroke-linejoin:miter;stroke-width:0.8;"/>
   </g>
   <g id="patch_51">
    <path clip-path="url(#pfb29e35b32)" d="M 372.308333 268.64104 
L 372.308333 268.64104 
L 372.308333 265.333034 
L 372.308333 265.333034 
z
" style="fill:#471365;opacity:0.4;stroke:#ffffff;stroke-linejoin:miter;stroke-width:0.8;"/>
   </g>
   <g id="patch_52">
    <path clip-path="url(#pfb29e35b32)" d="M 372.308333 265.333034 
L 372.308333 265.333034 
L 372.308333 262.025028 
L 372.308333 262.025028 
z
" style="fill:#471365;opacity:0.4;stroke:#ffffff;stroke-linejoin:miter;stroke-width:0.8;"/>
   </g>
   <g id="patch_53">
    <path clip-path="url(#pfb29e35b32)" d="M 372.308333 262.025028 
L 372.308333 262.025028 
L 372.308333 258.717023 
L 372.308333 258.717023 
z
" style="fill:#471365;opacity:0.4;stroke:#ffffff;stroke-linejoin:miter;stroke-width:0.8;"/>
   </g>
   <g id="patch_54">
    <path clip-path="url(#pfb29e35b32)" d="M 372.308333 258.717023 
L 372.308333 258.717023 
L 372.308333 255.409017 
L 372.308333 255.409017 
z
" style="fill:#471365;opacity:0.4;stroke:#ffffff;stroke-linejoin:miter;stroke-width:0.8;"/>
   </g>
   <g id="patch_55">
    <path clip-path="url(#pfb29e35b32)" d="M 372.308333 255.409017 
L 372.308333 255.409017 
L 372.308333 252.101012 
L 372.308333 252.101012 
z
" style="fill:#471365;opacity:0.4;stroke:#ffffff;stroke-linejoin:miter;stroke-width:0.8;"/>
   </g>
   <g id="patch_56">
    <path clip-path="url(#pfb29e35b32)" d="M 372.308333 252.101012 
L 373.165314 252.101012 
L 373.165314 248.793006 
L 372.308333 248.793006 
z
" style="fill:#471365;opacity:0.4;stroke:#ffffff;stroke-linejoin:miter;stroke-width:0.8;"/>
   </g>
   <g id="patch_57">
    <path clip-path="url(#pfb29e35b32)" d="M 372.308333 248.793006 
L 372.308333 248.793006 
L 372.308333 245.485 
L 372.308333 245.485 
z
" style="fill:#471365;opacity:0.4;stroke:#ffffff;stroke-linejoin:miter;stroke-width:0.8;"/>
   </g>
   <g id="patch_58">
    <path clip-path="url(#pfb29e35b32)" d="M 372.308333 245.485 
L 373.165314 245.485 
L 373.165314 242.176995 
L 372.308333 242.176995 
z
" style="fill:#471365;opacity:0.4;stroke:#ffffff;stroke-linejoin:miter;stroke-width:0.8;"/>
   </g>
   <g id="patch_59">
    <path clip-path="url(#pfb29e35b32)" d="M 372.308333 242.176995 
L 372.308333 242.176995 
L 372.308333 238.868989 
L 372.308333 238.868989 
z
" style="fill:#471365;opacity:0.4;stroke:#ffffff;stroke-linejoin:miter;stroke-width:0.8;"/>
   </g>
   <g id="patch_60">
    <path clip-path="url(#pfb29e35b32)" d="M 372.308333 238.868989 
L 372.308333 238.868989 
L 372.308333 235.560984 
L 372.308333 235.560984 
z
" style="fill:#471365;opacity:0.4;stroke:#ffffff;stroke-linejoin:miter;stroke-width:0.8;"/>
   </g>
   <g id="patch_61">
    <path clip-path="url(#pfb29e35b32)" d="M 372.308333 235.560984 
L 372.308333 235.560984 
L 372.308333 232.252978 
L 372.308333 232.252978 
z
" style="fill:#471365;opacity:0.4;stroke:#ffffff;stroke-linejoin:miter;stroke-width:0.8;"/>
   </g>
   <g id="patch_62">
    <path clip-path="url(#pfb29e35b32)" d="M 372.308333 232.252978 
L 372.308333 232.252978 
L 372.308333 228.944972 
L 372.308333 228.944972 
z
" style="fill:#471365;opacity:0.4;stroke:#ffffff;stroke-linejoin:miter;stroke-width:0.8;"/>
   </g>
   <g id="patch_63">
    <path clip-path="url(#pfb29e35b32)" d="M 372.308333 228.944972 
L 372.308333 228.944972 
L 372.308333 225.636967 
L 372.308333 225.636967 
z
" style="fill:#471365;opacity:0.4;stroke:#ffffff;stroke-linejoin:miter;stroke-width:0.8;"/>
   </g>
   <g id="patch_64">
    <path clip-path="url(#pfb29e35b32)" d="M 372.308333 225.636967 
L 372.308333 225.636967 
L 372.308333 222.328961 
L 372.308333 222.328961 
z
" style="fill:#471365;opacity:0.4;stroke:#ffffff;stroke-linejoin:miter;stroke-width:0.8;"/>
   </g>
   <g id="patch_65">
    <path clip-path="url(#pfb29e35b32)" d="M 372.308333 222.328961 
L 372.308333 222.328961 
L 372.308333 219.020956 
L 372.308333 219.020956 
z
" style="fill:#471365;opacity:0.4;stroke:#ffffff;stroke-linejoin:miter;stroke-width:0.8;"/>
   </g>
   <g id="patch_66">
    <path clip-path="url(#pfb29e35b32)" d="M 372.308333 219.020956 
L 372.308333 219.020956 
L 372.308333 215.71295 
L 372.308333 215.71295 
z
" style="fill:#471365;opacity:0.4;stroke:#ffffff;stroke-linejoin:miter;stroke-width:0.8;"/>
   </g>
   <g id="patch_67">
    <path clip-path="url(#pfb29e35b32)" d="M 372.308333 215.71295 
L 372.308333 215.71295 
L 372.308333 212.404944 
L 372.308333 212.404944 
z
" style="fill:#471365;opacity:0.4;stroke:#ffffff;stroke-linejoin:miter;stroke-width:0.8;"/>
   </g>
   <g id="patch_68">
    <path clip-path="url(#pfb29e35b32)" d="M 372.308333 212.404944 
L 372.308333 212.404944 
L 372.308333 209.096939 
L 372.308333 209.096939 
z
" style="fill:#471365;opacity:0.4;stroke:#ffffff;stroke-linejoin:miter;stroke-width:0.8;"/>
   </g>
   <g id="patch_69">
    <path clip-path="url(#pfb29e35b32)" d="M 372.308333 209.096939 
L 373.165314 209.096939 
L 373.165314 205.788933 
L 372.308333 205.788933 
z
" style="fill:#471365;opacity:0.4;stroke:#ffffff;stroke-linejoin:miter;stroke-width:0.8;"/>
   </g>
   <g id="line2d_33">
    <path clip-path="url(#pfb29e35b32)" d="M 372.326386 390.089929 
L 372.361519 388.037386 
L 372.451385 385.984844 
L 372.659971 383.932301 
L 373.099126 381.879759 
L 373.937267 379.827216 
L 375.385649 377.774674 
L 377.647618 375.722131 
L 380.829888 373.669589 
L 384.840796 371.617046 
L 389.324814 369.564504 
L 393.684507 367.511961 
L 397.208849 365.459418 
L 399.272718 363.406876 
L 399.528823 361.354333 
L 398.00987 359.301791 
L 395.09953 357.249248 
L 391.391756 355.196706 
L 387.504809 353.144163 
L 383.92612 351.091621 
L 380.936926 349.039078 
L 378.621129 346.986536 
L 376.926693 344.933993 
L 375.736955 342.881451 
L 374.922548 340.828908 
L 374.367254 338.776365 
L 373.976664 336.723823 
L 373.680658 334.67128 
L 373.434613 332.618738 
L 373.218527 330.566195 
L 373.032217 328.513653 
L 372.88681 326.46111 
L 372.794663 324.408568 
L 372.760452 322.356025 
L 372.775999 320.303483 
L 372.82073 318.25094 
L 372.867995 316.198398 
L 372.894681 314.145855 
L 372.889361 312.093312 
L 372.854629 310.04077 
L 372.802815 307.988227 
L 372.748271 305.935685 
L 372.700918 303.883142 
L 372.663752 301.8306 
L 372.634003 299.778057 
L 372.606021 297.725515 
L 372.574298 295.672972 
L 372.53586 293.62043 
L 372.491458 291.567887 
L 372.445114 289.515345 
L 372.402204 287.462802 
L 372.36711 285.410259 
L 372.341751 283.357717 
L 372.325534 281.305174 
L 372.316343 279.252632 
L 372.311748 277.200089 
L 372.309821 275.147547 
L 372.309457 273.095004 
L 372.310418 271.042462 
L 372.313333 268.989919 
L 372.319732 266.937377 
L 372.331954 264.884834 
L 372.352684 262.832292 
L 372.383924 260.779749 
L 372.42566 258.727206 
L 372.474844 256.674664 
L 372.525426 254.622121 
L 372.569658 252.569579 
L 372.600105 250.517036 
L 372.611496 248.464494 
L 372.601851 246.411951 
L 372.572846 244.359409 
L 372.529508 242.306866 
L 372.479152 240.254324 
L 372.429582 238.201781 
L 372.387056 236.149239 
L 372.3549 234.096696 
L 372.333366 232.044153 
L 372.320607 229.991611 
L 372.314059 227.939068 
L 372.311586 225.886526 
L 372.312113 223.833983 
L 372.315831 221.781441 
L 372.324073 219.728898 
L 372.338808 217.676356 
L 372.361601 215.623813 
L 372.392145 213.571271 
L 372.426993 211.518728 
L 372.459491 209.466186 
L 372.481587 207.413643 
L 372.487006 205.3611 
L 372.474123 203.308558 
L 372.446748 201.256015 
L 372.412309 199.203473 
L 372.378609 197.15093 
L 372.35107 195.098388 
L 372.331718 193.045845 
L 372.319846 190.993303 
L 372.313433 188.94076 
L 372.310366 186.888218 
" style="fill:none;stroke:#471365;stroke-linecap:round;stroke-width:1.2;"/>
   </g>
   <g id="patch_70">
    <path d="M 372.308333 389.9 
L 372.308333 81.383333 
" style="fill:none;stroke:#262626;stroke-linecap:square;stroke-linejoin:miter;"/>
   </g>
  </g>
 </g>
 <defs>
  <clipPath id="pe105858917">
   <rect height="308.516667" width="302.058333" x="49.85" y="81.383333"/>
  </clipPath>
  <clipPath id="p4da504303b">
   <rect height="45.383333" width="302.058333" x="49.85" y="15.6"/>
  </clipPath>
  <clipPath id="pfb29e35b32">
   <rect height="308.516667" width="44.091667" x="372.308333" y="81.383333"/>
  </clipPath>
 </defs>
</svg>
