<?xml version="1.0" encoding="utf-8" standalone="no"?>
<!DOCTYPE svg PUBLIC "-//W3C//DTD SVG 1.1//EN"
  "http://www.w3.org/Graphics/SVG/1.1/DTD/svg11.dtd">
<!-- Created with matplotlib (http://matplotlib.org/) -->
<svg height="432pt" version="1.1" viewBox="0 0 432 432" width="432pt" xmlns="http://www.w3.org/2000/svg" xmlns:xlink="http://www.w3.org/1999/xlink">
 <defs>
  <style type="text/css">
*{stroke-linecap:butt;stroke-linejoin:round;}
  </style>
 </defs>
 <g id="figure_1">
  <g id="patch_1">
   <path d="M 0 432 
L 432 432 
L 432 0 
L 0 0 
z
" style="fill:#ffffff;"/>
  </g>
  <g id="axes_1">
   <g id="patch_2">
    <path d="M 49.85 389.9 
L 351.908333 389.9 
L 351.908333 81.383333 
L 49.85 81.383333 
z
" style="fill:#ffffff;"/>
   </g>
   <g id="matplotlib.axis_1">
    <g id="xtick_1">
     <g id="line2d_1">
      <defs>
       <path d="M 0 0 
L 0 4.8 
" id="me729221afc" style="stroke:#262626;"/>
      </defs>
      <g>
       <use style="fill:#262626;stroke:#262626;" x="60.489691" xlink:href="#me729221afc" y="389.9"/>
      </g>
     </g>
     <g id="text_1">
      <!-- −2 -->
      <defs>
       <path d="M 10.59375 35.5 
L 73.1875 35.5 
L 73.1875 27.203125 
L 10.59375 27.203125 
z
" id="DejaVuSans-2212"/>
       <path d="M 19.1875 8.296875 
L 53.609375 8.296875 
L 53.609375 0 
L 7.328125 0 
L 7.328125 8.296875 
Q 12.9375 14.109375 22.625 23.890625 
Q 32.328125 33.6875 34.8125 36.53125 
Q 39.546875 41.84375 41.421875 45.53125 
Q 43.3125 49.21875 43.3125 52.78125 
Q 43.3125 58.59375 39.234375 62.25 
Q 35.15625 65.921875 28.609375 65.921875 
Q 23.96875 65.921875 18.8125 64.3125 
Q 13.671875 62.703125 7.8125 59.421875 
L 7.8125 69.390625 
Q 13.765625 71.78125 18.9375 73 
Q 24.125 74.21875 28.421875 74.21875 
Q 39.75 74.21875 46.484375 68.546875 
Q 53.21875 62.890625 53.21875 53.421875 
Q 53.21875 48.921875 51.53125 44.890625 
Q 49.859375 40.875 45.40625 35.40625 
Q 44.1875 33.984375 37.640625 27.21875 
Q 31.109375 20.453125 19.1875 8.296875 
z
" id="DejaVuSans-32"/>
      </defs>
      <g style="fill:#262626;" transform="translate(54.003129 404.886625)scale(0.088 -0.088)">
       <use xlink:href="#DejaVuSans-2212"/>
       <use x="83.789062" xlink:href="#DejaVuSans-32"/>
      </g>
     </g>
    </g>
    <g id="xtick_2">
     <g id="line2d_2">
      <g>
       <use style="fill:#262626;stroke:#262626;" x="103.372558" xlink:href="#me729221afc" y="389.9"/>
      </g>
     </g>
     <g id="text_2">
      <!-- 0 -->
      <defs>
       <path d="M 31.78125 66.40625 
Q 24.171875 66.40625 20.328125 58.90625 
Q 16.5 51.421875 16.5 36.375 
Q 16.5 21.390625 20.328125 13.890625 
Q 24.171875 6.390625 31.78125 6.390625 
Q 39.453125 6.390625 43.28125 13.890625 
Q 47.125 21.390625 47.125 36.375 
Q 47.125 51.421875 43.28125 58.90625 
Q 39.453125 66.40625 31.78125 66.40625 
z
M 31.78125 74.21875 
Q 44.046875 74.21875 50.515625 64.515625 
Q 56.984375 54.828125 56.984375 36.375 
Q 56.984375 17.96875 50.515625 8.265625 
Q 44.046875 -1.421875 31.78125 -1.421875 
Q 19.53125 -1.421875 13.0625 8.265625 
Q 6.59375 17.96875 6.59375 36.375 
Q 6.59375 54.828125 13.0625 64.515625 
Q 19.53125 74.21875 31.78125 74.21875 
z
" id="DejaVuSans-30"/>
      </defs>
      <g style="fill:#262626;" transform="translate(100.573058 404.886625)scale(0.088 -0.088)">
       <use xlink:href="#DejaVuSans-30"/>
      </g>
     </g>
    </g>
    <g id="xtick_3">
     <g id="line2d_3">
      <g>
       <use style="fill:#262626;stroke:#262626;" x="146.255425" xlink:href="#me729221afc" y="389.9"/>
      </g>
     </g>
     <g id="text_3">
      <!-- 2 -->
      <g style="fill:#262626;" transform="translate(143.455925 404.886625)scale(0.088 -0.088)">
       <use xlink:href="#DejaVuSans-32"/>
      </g>
     </g>
    </g>
    <g id="xtick_4">
     <g id="line2d_4">
      <g>
       <use style="fill:#262626;stroke:#262626;" x="189.138291" xlink:href="#me729221afc" y="389.9"/>
      </g>
     </g>
     <g id="text_4">
      <!-- 4 -->
      <defs>
       <path d="M 37.796875 64.3125 
L 12.890625 25.390625 
L 37.796875 25.390625 
z
M 35.203125 72.90625 
L 47.609375 72.90625 
L 47.609375 25.390625 
L 58.015625 25.390625 
L 58.015625 17.1875 
L 47.609375 17.1875 
L 47.609375 0 
L 37.796875 0 
L 37.796875 17.1875 
L 4.890625 17.1875 
L 4.890625 26.703125 
z
" id="DejaVuSans-34"/>
      </defs>
      <g style="fill:#262626;" transform="translate(186.338791 404.886625)scale(0.088 -0.088)">
       <use xlink:href="#DejaVuSans-34"/>
      </g>
     </g>
    </g>
    <g id="xtick_5">
     <g id="line2d_5">
      <g>
       <use style="fill:#262626;stroke:#262626;" x="232.021158" xlink:href="#me729221afc" y="389.9"/>
      </g>
     </g>
     <g id="text_5">
      <!-- 6 -->
      <defs>
       <path d="M 33.015625 40.375 
Q 26.375 40.375 22.484375 35.828125 
Q 18.609375 31.296875 18.609375 23.390625 
Q 18.609375 15.53125 22.484375 10.953125 
Q 26.375 6.390625 33.015625 6.390625 
Q 39.65625 6.390625 43.53125 10.953125 
Q 47.40625 15.53125 47.40625 23.390625 
Q 47.40625 31.296875 43.53125 35.828125 
Q 39.65625 40.375 33.015625 40.375 
z
M 52.59375 71.296875 
L 52.59375 62.3125 
Q 48.875 64.0625 45.09375 64.984375 
Q 41.3125 65.921875 37.59375 65.921875 
Q 27.828125 65.921875 22.671875 59.328125 
Q 17.53125 52.734375 16.796875 39.40625 
Q 19.671875 43.65625 24.015625 45.921875 
Q 28.375 48.1875 33.59375 48.1875 
Q 44.578125 48.1875 50.953125 41.515625 
Q 57.328125 34.859375 57.328125 23.390625 
Q 57.328125 12.15625 50.6875 5.359375 
Q 44.046875 -1.421875 33.015625 -1.421875 
Q 20.359375 -1.421875 13.671875 8.265625 
Q 6.984375 17.96875 6.984375 36.375 
Q 6.984375 53.65625 15.1875 63.9375 
Q 23.390625 74.21875 37.203125 74.21875 
Q 40.921875 74.21875 44.703125 73.484375 
Q 48.484375 72.75 52.59375 71.296875 
z
" id="DejaVuSans-36"/>
      </defs>
      <g style="fill:#262626;" transform="translate(229.221658 404.886625)scale(0.088 -0.088)">
       <use xlink:href="#DejaVuSans-36"/>
      </g>
     </g>
    </g>
    <g id="xtick_6">
     <g id="line2d_6">
      <g>
       <use style="fill:#262626;stroke:#262626;" x="274.904025" xlink:href="#me729221afc" y="389.9"/>
      </g>
     </g>
     <g id="text_6">
      <!-- 8 -->
      <defs>
       <path d="M 31.78125 34.625 
Q 24.75 34.625 20.71875 30.859375 
Q 16.703125 27.09375 16.703125 20.515625 
Q 16.703125 13.921875 20.71875 10.15625 
Q 24.75 6.390625 31.78125 6.390625 
Q 38.8125 6.390625 42.859375 10.171875 
Q 46.921875 13.96875 46.921875 20.515625 
Q 46.921875 27.09375 42.890625 30.859375 
Q 38.875 34.625 31.78125 34.625 
z
M 21.921875 38.8125 
Q 15.578125 40.375 12.03125 44.71875 
Q 8.5 49.078125 8.5 55.328125 
Q 8.5 64.0625 14.71875 69.140625 
Q 20.953125 74.21875 31.78125 74.21875 
Q 42.671875 74.21875 48.875 69.140625 
Q 55.078125 64.0625 55.078125 55.328125 
Q 55.078125 49.078125 51.53125 44.71875 
Q 48 40.375 41.703125 38.8125 
Q 48.828125 37.15625 52.796875 32.3125 
Q 56.78125 27.484375 56.78125 20.515625 
Q 56.78125 9.90625 50.3125 4.234375 
Q 43.84375 -1.421875 31.78125 -1.421875 
Q 19.734375 -1.421875 13.25 4.234375 
Q 6.78125 9.90625 6.78125 20.515625 
Q 6.78125 27.484375 10.78125 32.3125 
Q 14.796875 37.15625 21.921875 38.8125 
z
M 18.3125 54.390625 
Q 18.3125 48.734375 21.84375 45.5625 
Q 25.390625 42.390625 31.78125 42.390625 
Q 38.140625 42.390625 41.71875 45.5625 
Q 45.3125 48.734375 45.3125 54.390625 
Q 45.3125 60.0625 41.71875 63.234375 
Q 38.140625 66.40625 31.78125 66.40625 
Q 25.390625 66.40625 21.84375 63.234375 
Q 18.3125 60.0625 18.3125 54.390625 
z
" id="DejaVuSans-38"/>
      </defs>
      <g style="fill:#262626;" transform="translate(272.104525 404.886625)scale(0.088 -0.088)">
       <use xlink:href="#DejaVuSans-38"/>
      </g>
     </g>
    </g>
    <g id="xtick_7">
     <g id="line2d_7">
      <g>
       <use style="fill:#262626;stroke:#262626;" x="317.786892" xlink:href="#me729221afc" y="389.9"/>
      </g>
     </g>
     <g id="text_7">
      <!-- 10 -->
      <defs>
       <path d="M 12.40625 8.296875 
L 28.515625 8.296875 
L 28.515625 63.921875 
L 10.984375 60.40625 
L 10.984375 69.390625 
L 28.421875 72.90625 
L 38.28125 72.90625 
L 38.28125 8.296875 
L 54.390625 8.296875 
L 54.390625 0 
L 12.40625 0 
z
" id="DejaVuSans-31"/>
      </defs>
      <g style="fill:#262626;" transform="translate(312.187892 404.886625)scale(0.088 -0.088)">
       <use xlink:href="#DejaVuSans-31"/>
       <use x="63.623047" xlink:href="#DejaVuSans-30"/>
      </g>
     </g>
    </g>
    <g id="text_8">
     <!-- g(k-1) -->
     <defs>
      <path d="M 45.40625 27.984375 
Q 45.40625 37.75 41.375 43.109375 
Q 37.359375 48.484375 30.078125 48.484375 
Q 22.859375 48.484375 18.828125 43.109375 
Q 14.796875 37.75 14.796875 27.984375 
Q 14.796875 18.265625 18.828125 12.890625 
Q 22.859375 7.515625 30.078125 7.515625 
Q 37.359375 7.515625 41.375 12.890625 
Q 45.40625 18.265625 45.40625 27.984375 
z
M 54.390625 6.78125 
Q 54.390625 -7.171875 48.1875 -13.984375 
Q 42 -20.796875 29.203125 -20.796875 
Q 24.46875 -20.796875 20.265625 -20.09375 
Q 16.0625 -19.390625 12.109375 -17.921875 
L 12.109375 -9.1875 
Q 16.0625 -11.328125 19.921875 -12.34375 
Q 23.78125 -13.375 27.78125 -13.375 
Q 36.625 -13.375 41.015625 -8.765625 
Q 45.40625 -4.15625 45.40625 5.171875 
L 45.40625 9.625 
Q 42.625 4.78125 38.28125 2.390625 
Q 33.9375 0 27.875 0 
Q 17.828125 0 11.671875 7.65625 
Q 5.515625 15.328125 5.515625 27.984375 
Q 5.515625 40.671875 11.671875 48.328125 
Q 17.828125 56 27.875 56 
Q 33.9375 56 38.28125 53.609375 
Q 42.625 51.21875 45.40625 46.390625 
L 45.40625 54.6875 
L 54.390625 54.6875 
z
" id="DejaVuSans-67"/>
      <path d="M 31 75.875 
Q 24.46875 64.65625 21.28125 53.65625 
Q 18.109375 42.671875 18.109375 31.390625 
Q 18.109375 20.125 21.3125 9.0625 
Q 24.515625 -2 31 -13.1875 
L 23.1875 -13.1875 
Q 15.875 -1.703125 12.234375 9.375 
Q 8.59375 20.453125 8.59375 31.390625 
Q 8.59375 42.28125 12.203125 53.3125 
Q 15.828125 64.359375 23.1875 75.875 
z
" id="DejaVuSans-28"/>
      <path d="M 9.078125 75.984375 
L 18.109375 75.984375 
L 18.109375 31.109375 
L 44.921875 54.6875 
L 56.390625 54.6875 
L 27.390625 29.109375 
L 57.625 0 
L 45.90625 0 
L 18.109375 26.703125 
L 18.109375 0 
L 9.078125 0 
z
" id="DejaVuSans-6b"/>
      <path d="M 4.890625 31.390625 
L 31.203125 31.390625 
L 31.203125 23.390625 
L 4.890625 23.390625 
z
" id="DejaVuSans-2d"/>
      <path d="M 8.015625 75.875 
L 15.828125 75.875 
Q 23.140625 64.359375 26.78125 53.3125 
Q 30.421875 42.28125 30.421875 31.390625 
Q 30.421875 20.453125 26.78125 9.375 
Q 23.140625 -1.703125 15.828125 -13.1875 
L 8.015625 -13.1875 
Q 14.5 -2 17.703125 9.0625 
Q 20.90625 20.125 20.90625 31.390625 
Q 20.90625 42.671875 17.703125 53.65625 
Q 14.5 64.65625 8.015625 75.875 
z
" id="DejaVuSans-29"/>
     </defs>
     <g style="fill:#262626;" transform="translate(186.521167 418.01125)scale(0.096 -0.096)">
      <use xlink:href="#DejaVuSans-67"/>
      <use x="63.476562" xlink:href="#DejaVuSans-28"/>
      <use x="102.490234" xlink:href="#DejaVuSans-6b"/>
      <use x="160.400391" xlink:href="#DejaVuSans-2d"/>
      <use x="196.484375" xlink:href="#DejaVuSans-31"/>
      <use x="260.107422" xlink:href="#DejaVuSans-29"/>
     </g>
    </g>
   </g>
   <g id="matplotlib.axis_2">
    <g id="ytick_1">
     <g id="line2d_8">
      <defs>
       <path d="M 0 0 
L -4.8 0 
" id="m31535f3621" style="stroke:#262626;"/>
      </defs>
      <g>
       <use style="fill:#262626;stroke:#262626;" x="49.85" xlink:href="#m31535f3621" y="389.9"/>
      </g>
     </g>
     <g id="text_9">
      <!-- 0 -->
      <g style="fill:#262626;" transform="translate(35.951 393.243313)scale(0.088 -0.088)">
       <use xlink:href="#DejaVuSans-30"/>
      </g>
     </g>
    </g>
    <g id="ytick_2">
     <g id="line2d_9">
      <g>
       <use style="fill:#262626;stroke:#262626;" x="49.85" xlink:href="#m31535f3621" y="333.806061"/>
      </g>
     </g>
     <g id="text_10">
      <!-- 20 -->
      <g style="fill:#262626;" transform="translate(30.352 337.149373)scale(0.088 -0.088)">
       <use xlink:href="#DejaVuSans-32"/>
       <use x="63.623047" xlink:href="#DejaVuSans-30"/>
      </g>
     </g>
    </g>
    <g id="ytick_3">
     <g id="line2d_10">
      <g>
       <use style="fill:#262626;stroke:#262626;" x="49.85" xlink:href="#m31535f3621" y="277.712121"/>
      </g>
     </g>
     <g id="text_11">
      <!-- 40 -->
      <g style="fill:#262626;" transform="translate(30.352 281.055434)scale(0.088 -0.088)">
       <use xlink:href="#DejaVuSans-34"/>
       <use x="63.623047" xlink:href="#DejaVuSans-30"/>
      </g>
     </g>
    </g>
    <g id="ytick_4">
     <g id="line2d_11">
      <g>
       <use style="fill:#262626;stroke:#262626;" x="49.85" xlink:href="#m31535f3621" y="221.618182"/>
      </g>
     </g>
     <g id="text_12">
      <!-- 60 -->
      <g style="fill:#262626;" transform="translate(30.352 224.961494)scale(0.088 -0.088)">
       <use xlink:href="#DejaVuSans-36"/>
       <use x="63.623047" xlink:href="#DejaVuSans-30"/>
      </g>
     </g>
    </g>
    <g id="ytick_5">
     <g id="line2d_12">
      <g>
       <use style="fill:#262626;stroke:#262626;" x="49.85" xlink:href="#m31535f3621" y="165.524242"/>
      </g>
     </g>
     <g id="text_13">
      <!-- 80 -->
      <g style="fill:#262626;" transform="translate(30.352 168.867555)scale(0.088 -0.088)">
       <use xlink:href="#DejaVuSans-38"/>
       <use x="63.623047" xlink:href="#DejaVuSans-30"/>
      </g>
     </g>
    </g>
    <g id="ytick_6">
     <g id="line2d_13">
      <g>
       <use style="fill:#262626;stroke:#262626;" x="49.85" xlink:href="#m31535f3621" y="109.430303"/>
      </g>
     </g>
     <g id="text_14">
      <!-- 100 -->
      <g style="fill:#262626;" transform="translate(24.753 112.773616)scale(0.088 -0.088)">
       <use xlink:href="#DejaVuSans-31"/>
       <use x="63.623047" xlink:href="#DejaVuSans-30"/>
       <use x="127.246094" xlink:href="#DejaVuSans-30"/>
      </g>
     </g>
    </g>
    <g id="text_15">
     <!-- Time to cancer -->
     <defs>
      <path d="M -0.296875 72.90625 
L 61.375 72.90625 
L 61.375 64.59375 
L 35.5 64.59375 
L 35.5 0 
L 25.59375 0 
L 25.59375 64.59375 
L -0.296875 64.59375 
z
" id="DejaVuSans-54"/>
      <path d="M 9.421875 54.6875 
L 18.40625 54.6875 
L 18.40625 0 
L 9.421875 0 
z
M 9.421875 75.984375 
L 18.40625 75.984375 
L 18.40625 64.59375 
L 9.421875 64.59375 
z
" id="DejaVuSans-69"/>
      <path d="M 52 44.1875 
Q 55.375 50.25 60.0625 53.125 
Q 64.75 56 71.09375 56 
Q 79.640625 56 84.28125 50.015625 
Q 88.921875 44.046875 88.921875 33.015625 
L 88.921875 0 
L 79.890625 0 
L 79.890625 32.71875 
Q 79.890625 40.578125 77.09375 44.375 
Q 74.3125 48.1875 68.609375 48.1875 
Q 61.625 48.1875 57.5625 43.546875 
Q 53.515625 38.921875 53.515625 30.90625 
L 53.515625 0 
L 44.484375 0 
L 44.484375 32.71875 
Q 44.484375 40.625 41.703125 44.40625 
Q 38.921875 48.1875 33.109375 48.1875 
Q 26.21875 48.1875 22.15625 43.53125 
Q 18.109375 38.875 18.109375 30.90625 
L 18.109375 0 
L 9.078125 0 
L 9.078125 54.6875 
L 18.109375 54.6875 
L 18.109375 46.1875 
Q 21.1875 51.21875 25.484375 53.609375 
Q 29.78125 56 35.6875 56 
Q 41.65625 56 45.828125 52.96875 
Q 50 49.953125 52 44.1875 
z
" id="DejaVuSans-6d"/>
      <path d="M 56.203125 29.59375 
L 56.203125 25.203125 
L 14.890625 25.203125 
Q 15.484375 15.921875 20.484375 11.0625 
Q 25.484375 6.203125 34.421875 6.203125 
Q 39.59375 6.203125 44.453125 7.46875 
Q 49.3125 8.734375 54.109375 11.28125 
L 54.109375 2.78125 
Q 49.265625 0.734375 44.1875 -0.34375 
Q 39.109375 -1.421875 33.890625 -1.421875 
Q 20.796875 -1.421875 13.15625 6.1875 
Q 5.515625 13.8125 5.515625 26.8125 
Q 5.515625 40.234375 12.765625 48.109375 
Q 20.015625 56 32.328125 56 
Q 43.359375 56 49.78125 48.890625 
Q 56.203125 41.796875 56.203125 29.59375 
z
M 47.21875 32.234375 
Q 47.125 39.59375 43.09375 43.984375 
Q 39.0625 48.390625 32.421875 48.390625 
Q 24.90625 48.390625 20.390625 44.140625 
Q 15.875 39.890625 15.1875 32.171875 
z
" id="DejaVuSans-65"/>
      <path id="DejaVuSans-20"/>
      <path d="M 18.3125 70.21875 
L 18.3125 54.6875 
L 36.8125 54.6875 
L 36.8125 47.703125 
L 18.3125 47.703125 
L 18.3125 18.015625 
Q 18.3125 11.328125 20.140625 9.421875 
Q 21.96875 7.515625 27.59375 7.515625 
L 36.8125 7.515625 
L 36.8125 0 
L 27.59375 0 
Q 17.1875 0 13.234375 3.875 
Q 9.28125 7.765625 9.28125 18.015625 
L 9.28125 47.703125 
L 2.6875 47.703125 
L 2.6875 54.6875 
L 9.28125 54.6875 
L 9.28125 70.21875 
z
" id="DejaVuSans-74"/>
      <path d="M 30.609375 48.390625 
Q 23.390625 48.390625 19.1875 42.75 
Q 14.984375 37.109375 14.984375 27.296875 
Q 14.984375 17.484375 19.15625 11.84375 
Q 23.34375 6.203125 30.609375 6.203125 
Q 37.796875 6.203125 41.984375 11.859375 
Q 46.1875 17.53125 46.1875 27.296875 
Q 46.1875 37.015625 41.984375 42.703125 
Q 37.796875 48.390625 30.609375 48.390625 
z
M 30.609375 56 
Q 42.328125 56 49.015625 48.375 
Q 55.71875 40.765625 55.71875 27.296875 
Q 55.71875 13.875 49.015625 6.21875 
Q 42.328125 -1.421875 30.609375 -1.421875 
Q 18.84375 -1.421875 12.171875 6.21875 
Q 5.515625 13.875 5.515625 27.296875 
Q 5.515625 40.765625 12.171875 48.375 
Q 18.84375 56 30.609375 56 
z
" id="DejaVuSans-6f"/>
      <path d="M 48.78125 52.59375 
L 48.78125 44.1875 
Q 44.96875 46.296875 41.140625 47.34375 
Q 37.3125 48.390625 33.40625 48.390625 
Q 24.65625 48.390625 19.8125 42.84375 
Q 14.984375 37.3125 14.984375 27.296875 
Q 14.984375 17.28125 19.8125 11.734375 
Q 24.65625 6.203125 33.40625 6.203125 
Q 37.3125 6.203125 41.140625 7.25 
Q 44.96875 8.296875 48.78125 10.40625 
L 48.78125 2.09375 
Q 45.015625 0.34375 40.984375 -0.53125 
Q 36.96875 -1.421875 32.421875 -1.421875 
Q 20.0625 -1.421875 12.78125 6.34375 
Q 5.515625 14.109375 5.515625 27.296875 
Q 5.515625 40.671875 12.859375 48.328125 
Q 20.21875 56 33.015625 56 
Q 37.15625 56 41.109375 55.140625 
Q 45.0625 54.296875 48.78125 52.59375 
z
" id="DejaVuSans-63"/>
      <path d="M 34.28125 27.484375 
Q 23.390625 27.484375 19.1875 25 
Q 14.984375 22.515625 14.984375 16.5 
Q 14.984375 11.71875 18.140625 8.90625 
Q 21.296875 6.109375 26.703125 6.109375 
Q 34.1875 6.109375 38.703125 11.40625 
Q 43.21875 16.703125 43.21875 25.484375 
L 43.21875 27.484375 
z
M 52.203125 31.203125 
L 52.203125 0 
L 43.21875 0 
L 43.21875 8.296875 
Q 40.140625 3.328125 35.546875 0.953125 
Q 30.953125 -1.421875 24.3125 -1.421875 
Q 15.921875 -1.421875 10.953125 3.296875 
Q 6 8.015625 6 15.921875 
Q 6 25.140625 12.171875 29.828125 
Q 18.359375 34.515625 30.609375 34.515625 
L 43.21875 34.515625 
L 43.21875 35.40625 
Q 43.21875 41.609375 39.140625 45 
Q 35.0625 48.390625 27.6875 48.390625 
Q 23 48.390625 18.546875 47.265625 
Q 14.109375 46.140625 10.015625 43.890625 
L 10.015625 52.203125 
Q 14.9375 54.109375 19.578125 55.046875 
Q 24.21875 56 28.609375 56 
Q 40.484375 56 46.34375 49.84375 
Q 52.203125 43.703125 52.203125 31.203125 
z
" id="DejaVuSans-61"/>
      <path d="M 54.890625 33.015625 
L 54.890625 0 
L 45.90625 0 
L 45.90625 32.71875 
Q 45.90625 40.484375 42.875 44.328125 
Q 39.84375 48.1875 33.796875 48.1875 
Q 26.515625 48.1875 22.3125 43.546875 
Q 18.109375 38.921875 18.109375 30.90625 
L 18.109375 0 
L 9.078125 0 
L 9.078125 54.6875 
L 18.109375 54.6875 
L 18.109375 46.1875 
Q 21.34375 51.125 25.703125 53.5625 
Q 30.078125 56 35.796875 56 
Q 45.21875 56 50.046875 50.171875 
Q 54.890625 44.34375 54.890625 33.015625 
z
" id="DejaVuSans-6e"/>
      <path d="M 41.109375 46.296875 
Q 39.59375 47.171875 37.8125 47.578125 
Q 36.03125 48 33.890625 48 
Q 26.265625 48 22.1875 43.046875 
Q 18.109375 38.09375 18.109375 28.8125 
L 18.109375 0 
L 9.078125 0 
L 9.078125 54.6875 
L 18.109375 54.6875 
L 18.109375 46.1875 
Q 20.953125 51.171875 25.484375 53.578125 
Q 30.03125 56 36.53125 56 
Q 37.453125 56 38.578125 55.875 
Q 39.703125 55.765625 41.0625 55.515625 
z
" id="DejaVuSans-72"/>
     </defs>
     <g style="fill:#262626;" transform="translate(18.7565 271.592167)rotate(-90)scale(0.096 -0.096)">
      <use xlink:href="#DejaVuSans-54"/>
      <use x="61.037109" xlink:href="#DejaVuSans-69"/>
      <use x="88.820312" xlink:href="#DejaVuSans-6d"/>
      <use x="186.232422" xlink:href="#DejaVuSans-65"/>
      <use x="247.755859" xlink:href="#DejaVuSans-20"/>
      <use x="279.542969" xlink:href="#DejaVuSans-74"/>
      <use x="318.751953" xlink:href="#DejaVuSans-6f"/>
      <use x="379.933594" xlink:href="#DejaVuSans-20"/>
      <use x="411.720703" xlink:href="#DejaVuSans-63"/>
      <use x="466.701172" xlink:href="#DejaVuSans-61"/>
      <use x="527.980469" xlink:href="#DejaVuSans-6e"/>
      <use x="591.359375" xlink:href="#DejaVuSans-63"/>
      <use x="646.339844" xlink:href="#DejaVuSans-65"/>
      <use x="707.863281" xlink:href="#DejaVuSans-72"/>
     </g>
    </g>
   </g>
   <g id="PathCollection_1">
    <defs>
     <path d="M 0 2.4 
C 0.636487 2.4 1.246992 2.147121 1.697056 1.697056 
C 2.147121 1.246992 2.4 0.636487 2.4 0 
C 2.4 -0.636487 2.147121 -1.246992 1.697056 -1.697056 
C 1.246992 -2.147121 0.636487 -2.4 0 -2.4 
C -0.636487 -2.4 -1.246992 -2.147121 -1.697056 -1.697056 
C -2.147121 -1.246992 -2.4 -0.636487 -2.4 0 
C -2.4 0.636487 -2.147121 1.246992 -1.697056 1.697056 
C -1.246992 2.147121 -0.636487 2.4 0 2.4 
z
" id="m895bea25c5" style="stroke:#471365;stroke-opacity:0.8;"/>
    </defs>
    <g clip-path="url(#pe28a11b7c8)">
     <use style="fill:#471365;fill-opacity:0.8;stroke:#471365;stroke-opacity:0.8;" x="133.47212" xlink:href="#m895bea25c5" y="360.085687"/>
     <use style="fill:#471365;fill-opacity:0.8;stroke:#471365;stroke-opacity:0.8;" x="153.534766" xlink:href="#m895bea25c5" y="360.139476"/>
     <use style="fill:#471365;fill-opacity:0.8;stroke:#471365;stroke-opacity:0.8;" x="171.983564" xlink:href="#m895bea25c5" y="368.645776"/>
     <use style="fill:#471365;fill-opacity:0.8;stroke:#471365;stroke-opacity:0.8;" x="173.905853" xlink:href="#m895bea25c5" y="362.905752"/>
     <use style="fill:#471365;fill-opacity:0.8;stroke:#471365;stroke-opacity:0.8;" x="185.46396" xlink:href="#m895bea25c5" y="363.489744"/>
     <use style="fill:#471365;fill-opacity:0.8;stroke:#471365;stroke-opacity:0.8;" x="181.053473" xlink:href="#m895bea25c5" y="363.935422"/>
     <use style="fill:#471365;fill-opacity:0.8;stroke:#471365;stroke-opacity:0.8;" x="241.338766" xlink:href="#m895bea25c5" y="368.761037"/>
     <use style="fill:#471365;fill-opacity:0.8;stroke:#471365;stroke-opacity:0.8;" x="132.119436" xlink:href="#m895bea25c5" y="357.88035"/>
     <use style="fill:#471365;fill-opacity:0.8;stroke:#471365;stroke-opacity:0.8;" x="212.121678" xlink:href="#m895bea25c5" y="368.384516"/>
     <use style="fill:#471365;fill-opacity:0.8;stroke:#471365;stroke-opacity:0.8;" x="151.593854" xlink:href="#m895bea25c5" y="359.394118"/>
     <use style="fill:#471365;fill-opacity:0.8;stroke:#471365;stroke-opacity:0.8;" x="131.014458" xlink:href="#m895bea25c5" y="357.45004"/>
     <use style="fill:#471365;fill-opacity:0.8;stroke:#471365;stroke-opacity:0.8;" x="135.223324" xlink:href="#m895bea25c5" y="357.373199"/>
     <use style="fill:#471365;fill-opacity:0.8;stroke:#471365;stroke-opacity:0.8;" x="192.532417" xlink:href="#m895bea25c5" y="364.004579"/>
     <use style="fill:#471365;fill-opacity:0.8;stroke:#471365;stroke-opacity:0.8;" x="220.73263" xlink:href="#m895bea25c5" y="365.272455"/>
     <use style="fill:#471365;fill-opacity:0.8;stroke:#471365;stroke-opacity:0.8;" x="152.234347" xlink:href="#m895bea25c5" y="364.442572"/>
     <use style="fill:#471365;fill-opacity:0.8;stroke:#471365;stroke-opacity:0.8;" x="181.56413" xlink:href="#m895bea25c5" y="364.911303"/>
     <use style="fill:#471365;fill-opacity:0.8;stroke:#471365;stroke-opacity:0.8;" x="156.833373" xlink:href="#m895bea25c5" y="354.868182"/>
     <use style="fill:#471365;fill-opacity:0.8;stroke:#471365;stroke-opacity:0.8;" x="214.784792" xlink:href="#m895bea25c5" y="365.118773"/>
     <use style="fill:#471365;fill-opacity:0.8;stroke:#471365;stroke-opacity:0.8;" x="160.787826" xlink:href="#m895bea25c5" y="359.778323"/>
     <use style="fill:#471365;fill-opacity:0.8;stroke:#471365;stroke-opacity:0.8;" x="242.302337" xlink:href="#m895bea25c5" y="366.64791"/>
     <use style="fill:#471365;fill-opacity:0.8;stroke:#471365;stroke-opacity:0.8;" x="152.609493" xlink:href="#m895bea25c5" y="358.633392"/>
     <use style="fill:#471365;fill-opacity:0.8;stroke:#471365;stroke-opacity:0.8;" x="186.563593" xlink:href="#m895bea25c5" y="363.405219"/>
     <use style="fill:#471365;fill-opacity:0.8;stroke:#471365;stroke-opacity:0.8;" x="126.778562" xlink:href="#m895bea25c5" y="350.472876"/>
     <use style="fill:#471365;fill-opacity:0.8;stroke:#471365;stroke-opacity:0.8;" x="155.070198" xlink:href="#m895bea25c5" y="363.136275"/>
     <use style="fill:#471365;fill-opacity:0.8;stroke:#471365;stroke-opacity:0.8;" x="186.131126" xlink:href="#m895bea25c5" y="362.521547"/>
     <use style="fill:#471365;fill-opacity:0.8;stroke:#471365;stroke-opacity:0.8;" x="130.142701" xlink:href="#m895bea25c5" y="317.500398"/>
     <use style="fill:#471365;fill-opacity:0.8;stroke:#471365;stroke-opacity:0.8;" x="139.670668" xlink:href="#m895bea25c5" y="355.098705"/>
     <use style="fill:#471365;fill-opacity:0.8;stroke:#471365;stroke-opacity:0.8;" x="150.566028" xlink:href="#m895bea25c5" y="359.962741"/>
     <use style="fill:#471365;fill-opacity:0.8;stroke:#471365;stroke-opacity:0.8;" x="155.103267" xlink:href="#m895bea25c5" y="363.151643"/>
     <use style="fill:#471365;fill-opacity:0.8;stroke:#471365;stroke-opacity:0.8;" x="125.261288" xlink:href="#m895bea25c5" y="361.030831"/>
     <use style="fill:#471365;fill-opacity:0.8;stroke:#471365;stroke-opacity:0.8;" x="163.387718" xlink:href="#m895bea25c5" y="367.278006"/>
     <use style="fill:#471365;fill-opacity:0.8;stroke:#471365;stroke-opacity:0.8;" x="152.955615" xlink:href="#m895bea25c5" y="361.484193"/>
     <use style="fill:#471365;fill-opacity:0.8;stroke:#471365;stroke-opacity:0.8;" x="256.523083" xlink:href="#m895bea25c5" y="364.204365"/>
     <use style="fill:#471365;fill-opacity:0.8;stroke:#471365;stroke-opacity:0.8;" x="224.941514" xlink:href="#m895bea25c5" y="364.7192"/>
     <use style="fill:#471365;fill-opacity:0.8;stroke:#471365;stroke-opacity:0.8;" x="275.354399" xlink:href="#m895bea25c5" y="367.631474"/>
     <use style="fill:#471365;fill-opacity:0.8;stroke:#471365;stroke-opacity:0.8;" x="261.73748" xlink:href="#m895bea25c5" y="371.21995"/>
     <use style="fill:#471365;fill-opacity:0.8;stroke:#471365;stroke-opacity:0.8;" x="143.686733" xlink:href="#m895bea25c5" y="359.601589"/>
     <use style="fill:#471365;fill-opacity:0.8;stroke:#471365;stroke-opacity:0.8;" x="137.931104" xlink:href="#m895bea25c5" y="356.919837"/>
     <use style="fill:#471365;fill-opacity:0.8;stroke:#471365;stroke-opacity:0.8;" x="160.798051" xlink:href="#m895bea25c5" y="361.453457"/>
     <use style="fill:#471365;fill-opacity:0.8;stroke:#471365;stroke-opacity:0.8;" x="200.732042" xlink:href="#m895bea25c5" y="372.472458"/>
     <use style="fill:#471365;fill-opacity:0.8;stroke:#471365;stroke-opacity:0.8;" x="128.687576" xlink:href="#m895bea25c5" y="344.748221"/>
     <use style="fill:#471365;fill-opacity:0.8;stroke:#471365;stroke-opacity:0.8;" x="272.094137" xlink:href="#m895bea25c5" y="366.947589"/>
     <use style="fill:#471365;fill-opacity:0.8;stroke:#471365;stroke-opacity:0.8;" x="136.602835" xlink:href="#m895bea25c5" y="349.804359"/>
     <use style="fill:#471365;fill-opacity:0.8;stroke:#471365;stroke-opacity:0.8;" x="216.365812" xlink:href="#m895bea25c5" y="366.98601"/>
     <use style="fill:#471365;fill-opacity:0.8;stroke:#471365;stroke-opacity:0.8;" x="271.890581" xlink:href="#m895bea25c5" y="372.180462"/>
     <use style="fill:#471365;fill-opacity:0.8;stroke:#471365;stroke-opacity:0.8;" x="240.350775" xlink:href="#m895bea25c5" y="365.871815"/>
     <use style="fill:#471365;fill-opacity:0.8;stroke:#471365;stroke-opacity:0.8;" x="159.925893" xlink:href="#m895bea25c5" y="360.577469"/>
     <use style="fill:#471365;fill-opacity:0.8;stroke:#471365;stroke-opacity:0.8;" x="158.888056" xlink:href="#m895bea25c5" y="362.490811"/>
     <use style="fill:#471365;fill-opacity:0.8;stroke:#471365;stroke-opacity:0.8;" x="187.552099" xlink:href="#m895bea25c5" y="363.973842"/>
     <use style="fill:#471365;fill-opacity:0.8;stroke:#471365;stroke-opacity:0.8;" x="145.449598" xlink:href="#m895bea25c5" y="359.109806"/>
     <use style="fill:#471365;fill-opacity:0.8;stroke:#471365;stroke-opacity:0.8;" x="165.058698" xlink:href="#m895bea25c5" y="360.44684"/>
     <use style="fill:#471365;fill-opacity:0.8;stroke:#471365;stroke-opacity:0.8;" x="191.963174" xlink:href="#m895bea25c5" y="362.844279"/>
     <use style="fill:#471365;fill-opacity:0.8;stroke:#471365;stroke-opacity:0.8;" x="128.118574" xlink:href="#m895bea25c5" y="328.76529"/>
     <use style="fill:#471365;fill-opacity:0.8;stroke:#471365;stroke-opacity:0.8;" x="191.688682" xlink:href="#m895bea25c5" y="365.003512"/>
     <use style="fill:#471365;fill-opacity:0.8;stroke:#471365;stroke-opacity:0.8;" x="172.733547" xlink:href="#m895bea25c5" y="364.949723"/>
     <use style="fill:#471365;fill-opacity:0.8;stroke:#471365;stroke-opacity:0.8;" x="213.152759" xlink:href="#m895bea25c5" y="365.679713"/>
     <use style="fill:#471365;fill-opacity:0.8;stroke:#471365;stroke-opacity:0.8;" x="147.728892" xlink:href="#m895bea25c5" y="358.441289"/>
     <use style="fill:#471365;fill-opacity:0.8;stroke:#471365;stroke-opacity:0.8;" x="206.245631" xlink:href="#m895bea25c5" y="365.718133"/>
     <use style="fill:#471365;fill-opacity:0.8;stroke:#471365;stroke-opacity:0.8;" x="183.547901" xlink:href="#m895bea25c5" y="367.016746"/>
     <use style="fill:#471365;fill-opacity:0.8;stroke:#471365;stroke-opacity:0.8;" x="198.764329" xlink:href="#m895bea25c5" y="363.359114"/>
     <use style="fill:#471365;fill-opacity:0.8;stroke:#471365;stroke-opacity:0.8;" x="117.97742" xlink:href="#m895bea25c5" y="323.401787"/>
     <use style="fill:#471365;fill-opacity:0.8;stroke:#471365;stroke-opacity:0.8;" x="152.06691" xlink:href="#m895bea25c5" y="361.491878"/>
     <use style="fill:#471365;fill-opacity:0.8;stroke:#471365;stroke-opacity:0.8;" x="209.230163" xlink:href="#m895bea25c5" y="365.003512"/>
     <use style="fill:#471365;fill-opacity:0.8;stroke:#471365;stroke-opacity:0.8;" x="169.842934" xlink:href="#m895bea25c5" y="362.498495"/>
     <use style="fill:#471365;fill-opacity:0.8;stroke:#471365;stroke-opacity:0.8;" x="177.94068" xlink:href="#m895bea25c5" y="362.559968"/>
     <use style="fill:#471365;fill-opacity:0.8;stroke:#471365;stroke-opacity:0.8;" x="131.573671" xlink:href="#m895bea25c5" y="355.890168"/>
     <use style="fill:#471365;fill-opacity:0.8;stroke:#471365;stroke-opacity:0.8;" x="143.981667" xlink:href="#m895bea25c5" y="358.794758"/>
     <use style="fill:#471365;fill-opacity:0.8;stroke:#471365;stroke-opacity:0.8;" x="220.386752" xlink:href="#m895bea25c5" y="365.940972"/>
     <use style="fill:#471365;fill-opacity:0.8;stroke:#471365;stroke-opacity:0.8;" x="169.214982" xlink:href="#m895bea25c5" y="368.461357"/>
     <use style="fill:#471365;fill-opacity:0.8;stroke:#471365;stroke-opacity:0.8;" x="141.246862" xlink:href="#m895bea25c5" y="356.658578"/>
     <use style="fill:#471365;fill-opacity:0.8;stroke:#471365;stroke-opacity:0.8;" x="212.602097" xlink:href="#m895bea25c5" y="366.809276"/>
     <use style="fill:#471365;fill-opacity:0.8;stroke:#471365;stroke-opacity:0.8;" x="210.223661" xlink:href="#m895bea25c5" y="364.58857"/>
     <use style="fill:#471365;fill-opacity:0.8;stroke:#471365;stroke-opacity:0.8;" x="180.364754" xlink:href="#m895bea25c5" y="366.793907"/>
     <use style="fill:#471365;fill-opacity:0.8;stroke:#471365;stroke-opacity:0.8;" x="125.497788" xlink:href="#m895bea25c5" y="111.282171"/>
     <use style="fill:#471365;fill-opacity:0.8;stroke:#471365;stroke-opacity:0.8;" x="261.258247" xlink:href="#m895bea25c5" y="366.832328"/>
     <use style="fill:#471365;fill-opacity:0.8;stroke:#471365;stroke-opacity:0.8;" x="153.92969" xlink:href="#m895bea25c5" y="355.498279"/>
     <use style="fill:#471365;fill-opacity:0.8;stroke:#471365;stroke-opacity:0.8;" x="138.876287" xlink:href="#m895bea25c5" y="358.633392"/>
     <use style="fill:#471365;fill-opacity:0.8;stroke:#471365;stroke-opacity:0.8;" x="129.067204" xlink:href="#m895bea25c5" y="348.989845"/>
     <use style="fill:#471365;fill-opacity:0.8;stroke:#471365;stroke-opacity:0.8;" x="169.714516" xlink:href="#m895bea25c5" y="360.869465"/>
     <use style="fill:#471365;fill-opacity:0.8;stroke:#471365;stroke-opacity:0.8;" x="198.83953" xlink:href="#m895bea25c5" y="363.143959"/>
     <use style="fill:#471365;fill-opacity:0.8;stroke:#471365;stroke-opacity:0.8;" x="163.588203" xlink:href="#m895bea25c5" y="364.135208"/>
     <use style="fill:#471365;fill-opacity:0.8;stroke:#471365;stroke-opacity:0.8;" x="238.625859" xlink:href="#m895bea25c5" y="366.355914"/>
     <use style="fill:#471365;fill-opacity:0.8;stroke:#471365;stroke-opacity:0.8;" x="130.806159" xlink:href="#m895bea25c5" y="355.160178"/>
     <use style="fill:#471365;fill-opacity:0.8;stroke:#471365;stroke-opacity:0.8;" x="212.300113" xlink:href="#m895bea25c5" y="364.311943"/>
     <use style="fill:#471365;fill-opacity:0.8;stroke:#471365;stroke-opacity:0.8;" x="168.107156" xlink:href="#m895bea25c5" y="364.811409"/>
     <use style="fill:#471365;fill-opacity:0.8;stroke:#471365;stroke-opacity:0.8;" x="188.940148" xlink:href="#m895bea25c5" y="366.432755"/>
     <use style="fill:#471365;fill-opacity:0.8;stroke:#471365;stroke-opacity:0.8;" x="168.21685" xlink:href="#m895bea25c5" y="361.315143"/>
     <use style="fill:#471365;fill-opacity:0.8;stroke:#471365;stroke-opacity:0.8;" x="169.028193" xlink:href="#m895bea25c5" y="362.098922"/>
     <use style="fill:#471365;fill-opacity:0.8;stroke:#471365;stroke-opacity:0.8;" x="178.218889" xlink:href="#m895bea25c5" y="364.504045"/>
     <use style="fill:#471365;fill-opacity:0.8;stroke:#471365;stroke-opacity:0.8;" x="158.552483" xlink:href="#m895bea25c5" y="362.62144"/>
     <use style="fill:#471365;fill-opacity:0.8;stroke:#471365;stroke-opacity:0.8;" x="182.995576" xlink:href="#m895bea25c5" y="364.665411"/>
     <use style="fill:#471365;fill-opacity:0.8;stroke:#471365;stroke-opacity:0.8;" x="120.117555" xlink:href="#m895bea25c5" y="339.592189"/>
     <use style="fill:#471365;fill-opacity:0.8;stroke:#471365;stroke-opacity:0.8;" x="145.091236" xlink:href="#m895bea25c5" y="358.556551"/>
     <use style="fill:#471365;fill-opacity:0.8;stroke:#471365;stroke-opacity:0.8;" x="186.392992" xlink:href="#m895bea25c5" y="364.142892"/>
     <use style="fill:#471365;fill-opacity:0.8;stroke:#471365;stroke-opacity:0.8;" x="172.481224" xlink:href="#m895bea25c5" y="364.319627"/>
     <use style="fill:#471365;fill-opacity:0.8;stroke:#471365;stroke-opacity:0.8;" x="209.152055" xlink:href="#m895bea25c5" y="365.741186"/>
     <use style="fill:#471365;fill-opacity:0.8;stroke:#471365;stroke-opacity:0.8;" x="143.930003" xlink:href="#m895bea25c5" y="359.709166"/>
     <use style="fill:#471365;fill-opacity:0.8;stroke:#471365;stroke-opacity:0.8;" x="172.997533" xlink:href="#m895bea25c5" y="362.221867"/>
     <use style="fill:#471365;fill-opacity:0.8;stroke:#471365;stroke-opacity:0.8;" x="120.365967" xlink:href="#m895bea25c5" y="338.331996"/>
     <use style="fill:#471365;fill-opacity:0.8;stroke:#471365;stroke-opacity:0.8;" x="175.542944" xlink:href="#m895bea25c5" y="364.050683"/>
     <use style="fill:#471365;fill-opacity:0.8;stroke:#471365;stroke-opacity:0.8;" x="153.131375" xlink:href="#m895bea25c5" y="363.597321"/>
     <use style="fill:#471365;fill-opacity:0.8;stroke:#471365;stroke-opacity:0.8;" x="141.028768" xlink:href="#m895bea25c5" y="361.176829"/>
     <use style="fill:#471365;fill-opacity:0.8;stroke:#471365;stroke-opacity:0.8;" x="242.015396" xlink:href="#m895bea25c5" y="368.18473"/>
     <use style="fill:#471365;fill-opacity:0.8;stroke:#471365;stroke-opacity:0.8;" x="174.556446" xlink:href="#m895bea25c5" y="362.575336"/>
     <use style="fill:#471365;fill-opacity:0.8;stroke:#471365;stroke-opacity:0.8;" x="125.476177" xlink:href="#m895bea25c5" y="339.868817"/>
     <use style="fill:#471365;fill-opacity:0.8;stroke:#471365;stroke-opacity:0.8;" x="159.037506" xlink:href="#m895bea25c5" y="362.629125"/>
     <use style="fill:#471365;fill-opacity:0.8;stroke:#471365;stroke-opacity:0.8;" x="200.493636" xlink:href="#m895bea25c5" y="365.733501"/>
     <use style="fill:#471365;fill-opacity:0.8;stroke:#471365;stroke-opacity:0.8;" x="179.068765" xlink:href="#m895bea25c5" y="362.744386"/>
     <use style="fill:#471365;fill-opacity:0.8;stroke:#471365;stroke-opacity:0.8;" x="210.752847" xlink:href="#m895bea25c5" y="365.003512"/>
     <use style="fill:#471365;fill-opacity:0.8;stroke:#471365;stroke-opacity:0.8;" x="150.131573" xlink:href="#m895bea25c5" y="358.602655"/>
     <use style="fill:#471365;fill-opacity:0.8;stroke:#471365;stroke-opacity:0.8;" x="148.895229" xlink:href="#m895bea25c5" y="359.056017"/>
     <use style="fill:#471365;fill-opacity:0.8;stroke:#471365;stroke-opacity:0.8;" x="146.230512" xlink:href="#m895bea25c5" y="359.832112"/>
     <use style="fill:#471365;fill-opacity:0.8;stroke:#471365;stroke-opacity:0.8;" x="206.341401" xlink:href="#m895bea25c5" y="363.727951"/>
     <use style="fill:#471365;fill-opacity:0.8;stroke:#471365;stroke-opacity:0.8;" x="129.383618" xlink:href="#m895bea25c5" y="355.290808"/>
     <use style="fill:#471365;fill-opacity:0.8;stroke:#471365;stroke-opacity:0.8;" x="129.209971" xlink:href="#m895bea25c5" y="352.470743"/>
     <use style="fill:#471365;fill-opacity:0.8;stroke:#471365;stroke-opacity:0.8;" x="164.51206" xlink:href="#m895bea25c5" y="365.118773"/>
     <use style="fill:#471365;fill-opacity:0.8;stroke:#471365;stroke-opacity:0.8;" x="155.859708" xlink:href="#m895bea25c5" y="360.001162"/>
     <use style="fill:#471365;fill-opacity:0.8;stroke:#471365;stroke-opacity:0.8;" x="155.943336" xlink:href="#m895bea25c5" y="360.531365"/>
     <use style="fill:#471365;fill-opacity:0.8;stroke:#471365;stroke-opacity:0.8;" x="150.008956" xlink:href="#m895bea25c5" y="360.369999"/>
     <use style="fill:#471365;fill-opacity:0.8;stroke:#471365;stroke-opacity:0.8;" x="160.378108" xlink:href="#m895bea25c5" y="366.755487"/>
     <use style="fill:#471365;fill-opacity:0.8;stroke:#471365;stroke-opacity:0.8;" x="181.373051" xlink:href="#m895bea25c5" y="364.11984"/>
     <use style="fill:#471365;fill-opacity:0.8;stroke:#471365;stroke-opacity:0.8;" x="188.714197" xlink:href="#m895bea25c5" y="362.544599"/>
     <use style="fill:#471365;fill-opacity:0.8;stroke:#471365;stroke-opacity:0.8;" x="148.410119" xlink:href="#m895bea25c5" y="360.546733"/>
     <use style="fill:#471365;fill-opacity:0.8;stroke:#471365;stroke-opacity:0.8;" x="124.925354" xlink:href="#m895bea25c5" y="360.792624"/>
     <use style="fill:#471365;fill-opacity:0.8;stroke:#471365;stroke-opacity:0.8;" x="200.461405" xlink:href="#m895bea25c5" y="366.463491"/>
     <use style="fill:#471365;fill-opacity:0.8;stroke:#471365;stroke-opacity:0.8;" x="128.198782" xlink:href="#m895bea25c5" y="291.61266"/>
     <use style="fill:#471365;fill-opacity:0.8;stroke:#471365;stroke-opacity:0.8;" x="139.425362" xlink:href="#m895bea25c5" y="359.747587"/>
     <use style="fill:#471365;fill-opacity:0.8;stroke:#471365;stroke-opacity:0.8;" x="167.75192" xlink:href="#m895bea25c5" y="361.076936"/>
     <use style="fill:#471365;fill-opacity:0.8;stroke:#471365;stroke-opacity:0.8;" x="174.920828" xlink:href="#m895bea25c5" y="362.28334"/>
     <use style="fill:#471365;fill-opacity:0.8;stroke:#471365;stroke-opacity:0.8;" x="127.818568" xlink:href="#m895bea25c5" y="267.476898"/>
     <use style="fill:#471365;fill-opacity:0.8;stroke:#471365;stroke-opacity:0.8;" x="177.677463" xlink:href="#m895bea25c5" y="363.374482"/>
     <use style="fill:#471365;fill-opacity:0.8;stroke:#471365;stroke-opacity:0.8;" x="208.020986" xlink:href="#m895bea25c5" y="365.088037"/>
     <use style="fill:#471365;fill-opacity:0.8;stroke:#471365;stroke-opacity:0.8;" x="135.078748" xlink:href="#m895bea25c5" y="358.441289"/>
     <use style="fill:#471365;fill-opacity:0.8;stroke:#471365;stroke-opacity:0.8;" x="152.871053" xlink:href="#m895bea25c5" y="358.041716"/>
     <use style="fill:#471365;fill-opacity:0.8;stroke:#471365;stroke-opacity:0.8;" x="178.408778" xlink:href="#m895bea25c5" y="365.510663"/>
     <use style="fill:#471365;fill-opacity:0.8;stroke:#471365;stroke-opacity:0.8;" x="179.350464" xlink:href="#m895bea25c5" y="364.004579"/>
     <use style="fill:#471365;fill-opacity:0.8;stroke:#471365;stroke-opacity:0.8;" x="159.134655" xlink:href="#m895bea25c5" y="360.661995"/>
     <use style="fill:#471365;fill-opacity:0.8;stroke:#471365;stroke-opacity:0.8;" x="162.340185" xlink:href="#m895bea25c5" y="364.135208"/>
     <use style="fill:#471365;fill-opacity:0.8;stroke:#471365;stroke-opacity:0.8;" x="225.467978" xlink:href="#m895bea25c5" y="369.867548"/>
     <use style="fill:#471365;fill-opacity:0.8;stroke:#471365;stroke-opacity:0.8;" x="157.215003" xlink:href="#m895bea25c5" y="362.214183"/>
     <use style="fill:#471365;fill-opacity:0.8;stroke:#471365;stroke-opacity:0.8;" x="157.325096" xlink:href="#m895bea25c5" y="363.397535"/>
     <use style="fill:#471365;fill-opacity:0.8;stroke:#471365;stroke-opacity:0.8;" x="114.052353" xlink:href="#m895bea25c5" y="351.371916"/>
     <use style="fill:#471365;fill-opacity:0.8;stroke:#471365;stroke-opacity:0.8;" x="287.70598" xlink:href="#m895bea25c5" y="367.41632"/>
     <use style="fill:#471365;fill-opacity:0.8;stroke:#471365;stroke-opacity:0.8;" x="163.158159" xlink:href="#m895bea25c5" y="362.444706"/>
     <use style="fill:#471365;fill-opacity:0.8;stroke:#471365;stroke-opacity:0.8;" x="140.859784" xlink:href="#m895bea25c5" y="357.204149"/>
     <use style="fill:#471365;fill-opacity:0.8;stroke:#471365;stroke-opacity:0.8;" x="119.871476" xlink:href="#m895bea25c5" y="317.892287"/>
     <use style="fill:#471365;fill-opacity:0.8;stroke:#471365;stroke-opacity:0.8;" x="127.802922" xlink:href="#m895bea25c5" y="227.189155"/>
     <use style="fill:#471365;fill-opacity:0.8;stroke:#471365;stroke-opacity:0.8;" x="182.707655" xlink:href="#m895bea25c5" y="363.82016"/>
     <use style="fill:#471365;fill-opacity:0.8;stroke:#471365;stroke-opacity:0.8;" x="168.060334" xlink:href="#m895bea25c5" y="362.928804"/>
     <use style="fill:#471365;fill-opacity:0.8;stroke:#471365;stroke-opacity:0.8;" x="244.700329" xlink:href="#m895bea25c5" y="365.579819"/>
     <use style="fill:#471365;fill-opacity:0.8;stroke:#471365;stroke-opacity:0.8;" x="171.523409" xlink:href="#m895bea25c5" y="367.28569"/>
     <use style="fill:#471365;fill-opacity:0.8;stroke:#471365;stroke-opacity:0.8;" x="201.465573" xlink:href="#m895bea25c5" y="365.180246"/>
     <use style="fill:#471365;fill-opacity:0.8;stroke:#471365;stroke-opacity:0.8;" x="140.379485" xlink:href="#m895bea25c5" y="358.871599"/>
     <use style="fill:#471365;fill-opacity:0.8;stroke:#471365;stroke-opacity:0.8;" x="158.272704" xlink:href="#m895bea25c5" y="364.534782"/>
     <use style="fill:#471365;fill-opacity:0.8;stroke:#471365;stroke-opacity:0.8;" x="128.418029" xlink:href="#m895bea25c5" y="331.247255"/>
     <use style="fill:#471365;fill-opacity:0.8;stroke:#471365;stroke-opacity:0.8;" x="130.338234" xlink:href="#m895bea25c5" y="354.97576"/>
     <use style="fill:#471365;fill-opacity:0.8;stroke:#471365;stroke-opacity:0.8;" x="265.670299" xlink:href="#m895bea25c5" y="364.7192"/>
     <use style="fill:#471365;fill-opacity:0.8;stroke:#471365;stroke-opacity:0.8;" x="178.630398" xlink:href="#m895bea25c5" y="361.999028"/>
     <use style="fill:#471365;fill-opacity:0.8;stroke:#471365;stroke-opacity:0.8;" x="180.245592" xlink:href="#m895bea25c5" y="365.510663"/>
     <use style="fill:#471365;fill-opacity:0.8;stroke:#471365;stroke-opacity:0.8;" x="176.57914" xlink:href="#m895bea25c5" y="363.589637"/>
     <use style="fill:#471365;fill-opacity:0.8;stroke:#471365;stroke-opacity:0.8;" x="151.943254" xlink:href="#m895bea25c5" y="362.898068"/>
     <use style="fill:#471365;fill-opacity:0.8;stroke:#471365;stroke-opacity:0.8;" x="202.985252" xlink:href="#m895bea25c5" y="365.01888"/>
     <use style="fill:#471365;fill-opacity:0.8;stroke:#471365;stroke-opacity:0.8;" x="149.777305" xlink:href="#m895bea25c5" y="364.188997"/>
     <use style="fill:#471365;fill-opacity:0.8;stroke:#471365;stroke-opacity:0.8;" x="201.329574" xlink:href="#m895bea25c5" y="362.636809"/>
     <use style="fill:#471365;fill-opacity:0.8;stroke:#471365;stroke-opacity:0.8;" x="166.63119" xlink:href="#m895bea25c5" y="363.174696"/>
     <use style="fill:#471365;fill-opacity:0.8;stroke:#471365;stroke-opacity:0.8;" x="174.668601" xlink:href="#m895bea25c5" y="362.590704"/>
     <use style="fill:#471365;fill-opacity:0.8;stroke:#471365;stroke-opacity:0.8;" x="216.054369" xlink:href="#m895bea25c5" y="368.999244"/>
     <use style="fill:#471365;fill-opacity:0.8;stroke:#471365;stroke-opacity:0.8;" x="151.327612" xlink:href="#m895bea25c5" y="362.71365"/>
     <use style="fill:#471365;fill-opacity:0.8;stroke:#471365;stroke-opacity:0.8;" x="143.588219" xlink:href="#m895bea25c5" y="359.324961"/>
     <use style="fill:#471365;fill-opacity:0.8;stroke:#471365;stroke-opacity:0.8;" x="143.288629" xlink:href="#m895bea25c5" y="358.264555"/>
     <use style="fill:#471365;fill-opacity:0.8;stroke:#471365;stroke-opacity:0.8;" x="185.419676" xlink:href="#m895bea25c5" y="363.036382"/>
     <use style="fill:#471365;fill-opacity:0.8;stroke:#471365;stroke-opacity:0.8;" x="185.706831" xlink:href="#m895bea25c5" y="363.159328"/>
     <use style="fill:#471365;fill-opacity:0.8;stroke:#471365;stroke-opacity:0.8;" x="141.088601" xlink:href="#m895bea25c5" y="357.28099"/>
     <use style="fill:#471365;fill-opacity:0.8;stroke:#471365;stroke-opacity:0.8;" x="227.893091" xlink:href="#m895bea25c5" y="367.646843"/>
     <use style="fill:#471365;fill-opacity:0.8;stroke:#471365;stroke-opacity:0.8;" x="145.644215" xlink:href="#m895bea25c5" y="364.112156"/>
     <use style="fill:#471365;fill-opacity:0.8;stroke:#471365;stroke-opacity:0.8;" x="154.893111" xlink:href="#m895bea25c5" y="361.899135"/>
     <use style="fill:#471365;fill-opacity:0.8;stroke:#471365;stroke-opacity:0.8;" x="261.048966" xlink:href="#m895bea25c5" y="365.78729"/>
     <use style="fill:#471365;fill-opacity:0.8;stroke:#471365;stroke-opacity:0.8;" x="162.31393" xlink:href="#m895bea25c5" y="361.630191"/>
     <use style="fill:#471365;fill-opacity:0.8;stroke:#471365;stroke-opacity:0.8;" x="136.45296" xlink:href="#m895bea25c5" y="358.356764"/>
     <use style="fill:#471365;fill-opacity:0.8;stroke:#471365;stroke-opacity:0.8;" x="129.00516" xlink:href="#m895bea25c5" y="349.420154"/>
     <use style="fill:#471365;fill-opacity:0.8;stroke:#471365;stroke-opacity:0.8;" x="159.443541" xlink:href="#m895bea25c5" y="359.832112"/>
     <use style="fill:#471365;fill-opacity:0.8;stroke:#471365;stroke-opacity:0.8;" x="241.247472" xlink:href="#m895bea25c5" y="365.241719"/>
     <use style="fill:#471365;fill-opacity:0.8;stroke:#471365;stroke-opacity:0.8;" x="177.4601" xlink:href="#m895bea25c5" y="365.426137"/>
     <use style="fill:#471365;fill-opacity:0.8;stroke:#471365;stroke-opacity:0.8;" x="131.965653" xlink:href="#m895bea25c5" y="347.491445"/>
     <use style="fill:#471365;fill-opacity:0.8;stroke:#471365;stroke-opacity:0.8;" x="153.458483" xlink:href="#m895bea25c5" y="357.61909"/>
     <use style="fill:#471365;fill-opacity:0.8;stroke:#471365;stroke-opacity:0.8;" x="138.839929" xlink:href="#m895bea25c5" y="350.649611"/>
     <use style="fill:#471365;fill-opacity:0.8;stroke:#471365;stroke-opacity:0.8;" x="141.061867" xlink:href="#m895bea25c5" y="353.331362"/>
     <use style="fill:#471365;fill-opacity:0.8;stroke:#471365;stroke-opacity:0.8;" x="155.565093" xlink:href="#m895bea25c5" y="362.721334"/>
     <use style="fill:#471365;fill-opacity:0.8;stroke:#471365;stroke-opacity:0.8;" x="244.314319" xlink:href="#m895bea25c5" y="365.226351"/>
     <use style="fill:#471365;fill-opacity:0.8;stroke:#471365;stroke-opacity:0.8;" x="120.590096" xlink:href="#m895bea25c5" y="299.527285"/>
     <use style="fill:#471365;fill-opacity:0.8;stroke:#471365;stroke-opacity:0.8;" x="176.133516" xlink:href="#m895bea25c5" y="362.444706"/>
     <use style="fill:#471365;fill-opacity:0.8;stroke:#471365;stroke-opacity:0.8;" x="166.294824" xlink:href="#m895bea25c5" y="362.32176"/>
     <use style="fill:#471365;fill-opacity:0.8;stroke:#471365;stroke-opacity:0.8;" x="147.578795" xlink:href="#m895bea25c5" y="356.712367"/>
     <use style="fill:#471365;fill-opacity:0.8;stroke:#471365;stroke-opacity:0.8;" x="240.786081" xlink:href="#m895bea25c5" y="369.644709"/>
     <use style="fill:#471365;fill-opacity:0.8;stroke:#471365;stroke-opacity:0.8;" x="188.248398" xlink:href="#m895bea25c5" y="362.905752"/>
     <use style="fill:#471365;fill-opacity:0.8;stroke:#471365;stroke-opacity:0.8;" x="142.94274" xlink:href="#m895bea25c5" y="358.94844"/>
     <use style="fill:#471365;fill-opacity:0.8;stroke:#471365;stroke-opacity:0.8;" x="158.487507" xlink:href="#m895bea25c5" y="363.889317"/>
     <use style="fill:#471365;fill-opacity:0.8;stroke:#471365;stroke-opacity:0.8;" x="243.668177" xlink:href="#m895bea25c5" y="366.840012"/>
     <use style="fill:#471365;fill-opacity:0.8;stroke:#471365;stroke-opacity:0.8;" x="142.891048" xlink:href="#m895bea25c5" y="355.698065"/>
     <use style="fill:#471365;fill-opacity:0.8;stroke:#471365;stroke-opacity:0.8;" x="173.917045" xlink:href="#m895bea25c5" y="363.712583"/>
     <use style="fill:#471365;fill-opacity:0.8;stroke:#471365;stroke-opacity:0.8;" x="199.731524" xlink:href="#m895bea25c5" y="364.281206"/>
     <use style="fill:#471365;fill-opacity:0.8;stroke:#471365;stroke-opacity:0.8;" x="200.209322" xlink:href="#m895bea25c5" y="374.962107"/>
     <use style="fill:#471365;fill-opacity:0.8;stroke:#471365;stroke-opacity:0.8;" x="151.088164" xlink:href="#m895bea25c5" y="360.362315"/>
     <use style="fill:#471365;fill-opacity:0.8;stroke:#471365;stroke-opacity:0.8;" x="154.879483" xlink:href="#m895bea25c5" y="359.155911"/>
     <use style="fill:#471365;fill-opacity:0.8;stroke:#471365;stroke-opacity:0.8;" x="190.992149" xlink:href="#m895bea25c5" y="362.460074"/>
     <use style="fill:#471365;fill-opacity:0.8;stroke:#471365;stroke-opacity:0.8;" x="133.160219" xlink:href="#m895bea25c5" y="358.671812"/>
     <use style="fill:#471365;fill-opacity:0.8;stroke:#471365;stroke-opacity:0.8;" x="124.601421" xlink:href="#m895bea25c5" y="311.967845"/>
     <use style="fill:#471365;fill-opacity:0.8;stroke:#471365;stroke-opacity:0.8;" x="219.170115" xlink:href="#m895bea25c5" y="363.943106"/>
     <use style="fill:#471365;fill-opacity:0.8;stroke:#471365;stroke-opacity:0.8;" x="134.345871" xlink:href="#m895bea25c5" y="333.890586"/>
     <use style="fill:#471365;fill-opacity:0.8;stroke:#471365;stroke-opacity:0.8;" x="219.424156" xlink:href="#m895bea25c5" y="366.002445"/>
     <use style="fill:#471365;fill-opacity:0.8;stroke:#471365;stroke-opacity:0.8;" x="178.715202" xlink:href="#m895bea25c5" y="364.519413"/>
     <use style="fill:#471365;fill-opacity:0.8;stroke:#471365;stroke-opacity:0.8;" x="215.995845" xlink:href="#m895bea25c5" y="365.871815"/>
     <use style="fill:#471365;fill-opacity:0.8;stroke:#471365;stroke-opacity:0.8;" x="156.742473" xlink:href="#m895bea25c5" y="360.124108"/>
     <use style="fill:#471365;fill-opacity:0.8;stroke:#471365;stroke-opacity:0.8;" x="207.663762" xlink:href="#m895bea25c5" y="365.564451"/>
     <use style="fill:#471365;fill-opacity:0.8;stroke:#471365;stroke-opacity:0.8;" x="228.50961" xlink:href="#m895bea25c5" y="366.279073"/>
     <use style="fill:#471365;fill-opacity:0.8;stroke:#471365;stroke-opacity:0.8;" x="125.211845" xlink:href="#m895bea25c5" y="349.804359"/>
     <use style="fill:#471365;fill-opacity:0.8;stroke:#471365;stroke-opacity:0.8;" x="148.284118" xlink:href="#m895bea25c5" y="359.07907"/>
     <use style="fill:#471365;fill-opacity:0.8;stroke:#471365;stroke-opacity:0.8;" x="241.625121" xlink:href="#m895bea25c5" y="370.866481"/>
     <use style="fill:#471365;fill-opacity:0.8;stroke:#471365;stroke-opacity:0.8;" x="188.994511" xlink:href="#m895bea25c5" y="367.347163"/>
     <use style="fill:#471365;fill-opacity:0.8;stroke:#471365;stroke-opacity:0.8;" x="186.053906" xlink:href="#m895bea25c5" y="363.143959"/>
     <use style="fill:#471365;fill-opacity:0.8;stroke:#471365;stroke-opacity:0.8;" x="120.176792" xlink:href="#m895bea25c5" y="305.789827"/>
    </g>
   </g>
   <g id="PolyCollection_1">
    <defs>
     <path d="M 63.579924 -115.507634 
L 63.579924 -89.583094 
L 66.353646 -89.137246 
L 69.127368 -88.691398 
L 71.90109 -88.24555 
L 74.674813 -87.799723 
L 77.448535 -87.354136 
L 80.222257 -86.90855 
L 82.995979 -86.462964 
L 85.769701 -86.017377 
L 88.543423 -85.571791 
L 91.317145 -85.126204 
L 94.090867 -84.680618 
L 96.864589 -84.235032 
L 99.638311 -83.791569 
L 102.412033 -83.351356 
L 105.185755 -82.906626 
L 107.959477 -82.452191 
L 110.733199 -82.00559 
L 113.506921 -81.549533 
L 116.280644 -81.093477 
L 119.054366 -80.63742 
L 121.828088 -80.181363 
L 124.60181 -79.725307 
L 127.375532 -79.26925 
L 130.149254 -78.823872 
L 132.922976 -78.387162 
L 135.696698 -77.950451 
L 138.47042 -77.505278 
L 141.244142 -77.052054 
L 144.017864 -76.610936 
L 146.791586 -76.169819 
L 149.565308 -75.728825 
L 152.33903 -75.277144 
L 155.112753 -74.826557 
L 157.886475 -74.402594 
L 160.660197 -73.966467 
L 163.433919 -73.474257 
L 166.207641 -73.014751 
L 168.981363 -72.562111 
L 171.755085 -72.13045 
L 174.528807 -71.703045 
L 177.302529 -71.236118 
L 180.076251 -70.747786 
L 182.849973 -70.216368 
L 185.623695 -69.702186 
L 188.397417 -69.157492 
L 191.171139 -68.593725 
L 193.944861 -67.910069 
L 196.718584 -67.188541 
L 199.492306 -66.445969 
L 202.266028 -65.644212 
L 205.03975 -64.769167 
L 207.813472 -63.874226 
L 210.587194 -62.913732 
L 213.360916 -61.975424 
L 216.134638 -61.07177 
L 218.90836 -60.170262 
L 221.682082 -59.267907 
L 224.455804 -58.363506 
L 227.229526 -57.424668 
L 230.003248 -56.418294 
L 232.77697 -55.43462 
L 235.550693 -54.487865 
L 238.324415 -53.564988 
L 241.098137 -52.589635 
L 243.871859 -51.654419 
L 246.645581 -50.757908 
L 249.419303 -49.852354 
L 252.193025 -48.890406 
L 254.966747 -47.895416 
L 257.740469 -46.903526 
L 260.514191 -45.911636 
L 263.287913 -44.919745 
L 266.061635 -43.952978 
L 268.835357 -43.01121 
L 271.609079 -42.070109 
L 274.382801 -41.129008 
L 277.156524 -40.187907 
L 279.930246 -39.246806 
L 282.703968 -38.305706 
L 285.47769 -37.364605 
L 288.251412 -36.423504 
L 291.025134 -35.482403 
L 293.798856 -34.541302 
L 296.572578 -33.600202 
L 299.3463 -32.654121 
L 302.120022 -31.662961 
L 304.893744 -30.6718 
L 307.667466 -29.680639 
L 310.441188 -28.689478 
L 313.21491 -27.729969 
L 315.988633 -26.777784 
L 318.762355 -25.8256 
L 321.536077 -24.873415 
L 324.309799 -23.921231 
L 327.083521 -22.948431 
L 329.857243 -21.950578 
L 332.630965 -20.952725 
L 335.404687 -19.954873 
L 338.178409 -18.95702 
L 338.178409 -45.551803 
L 338.178409 -45.551803 
L 335.404687 -45.999815 
L 332.630965 -46.447827 
L 329.857243 -46.895839 
L 327.083521 -47.343851 
L 324.309799 -47.791863 
L 321.536077 -48.239875 
L 318.762355 -48.686731 
L 315.988633 -49.142234 
L 313.21491 -49.598 
L 310.441188 -50.053766 
L 307.667466 -50.509531 
L 304.893744 -50.965297 
L 302.120022 -51.420974 
L 299.3463 -51.875811 
L 296.572578 -52.330647 
L 293.798856 -52.782202 
L 291.025134 -53.214483 
L 288.251412 -53.646764 
L 285.47769 -54.078709 
L 282.703968 -54.529799 
L 279.930246 -54.985393 
L 277.156524 -55.440986 
L 274.382801 -55.89658 
L 271.609079 -56.34195 
L 268.835357 -56.794095 
L 266.061635 -57.253834 
L 263.287913 -57.713574 
L 260.514191 -58.17678 
L 257.740469 -58.632346 
L 254.966747 -59.08842 
L 252.193025 -59.533628 
L 249.419303 -59.967657 
L 246.645581 -60.438501 
L 243.871859 -60.875686 
L 241.098137 -61.348295 
L 238.324415 -61.802021 
L 235.550693 -62.261551 
L 232.77697 -62.736335 
L 230.003248 -63.192615 
L 227.229526 -63.651619 
L 224.455804 -64.105847 
L 221.682082 -64.568418 
L 218.90836 -65.076521 
L 216.134638 -65.554314 
L 213.360916 -66.044227 
L 210.587194 -66.589643 
L 207.813472 -67.235836 
L 205.03975 -67.898998 
L 202.266028 -68.595899 
L 199.492306 -69.293398 
L 196.718584 -70.01663 
L 193.944861 -70.83697 
L 191.171139 -71.550429 
L 188.397417 -72.346714 
L 185.623695 -73.205267 
L 182.849973 -74.100295 
L 180.076251 -74.979923 
L 177.302529 -75.874312 
L 174.528807 -76.762003 
L 171.755085 -77.727942 
L 168.981363 -78.794271 
L 166.207641 -79.743332 
L 163.433919 -80.730533 
L 160.660197 -81.772349 
L 157.886475 -82.6712 
L 155.112753 -83.657043 
L 152.33903 -84.648769 
L 149.565308 -85.641697 
L 146.791586 -86.574579 
L 144.017864 -87.628185 
L 141.244142 -88.622111 
L 138.47042 -89.565728 
L 135.696698 -90.442155 
L 132.922976 -91.401666 
L 130.149254 -92.384537 
L 127.375532 -93.29643 
L 124.60181 -94.200351 
L 121.828088 -95.179021 
L 119.054366 -96.223169 
L 116.280644 -97.266782 
L 113.506921 -98.298045 
L 110.733199 -99.241135 
L 107.959477 -100.18343 
L 105.185755 -101.125725 
L 102.412033 -102.134469 
L 99.638311 -103.145378 
L 96.864589 -104.15128 
L 94.090867 -105.119921 
L 91.317145 -106.082083 
L 88.543423 -107.024638 
L 85.769701 -107.967193 
L 82.995979 -108.909748 
L 80.222257 -109.852303 
L 77.448535 -110.794858 
L 74.674813 -111.737413 
L 71.90109 -112.679968 
L 69.127368 -113.622524 
L 66.353646 -114.565079 
L 63.579924 -115.507634 
z
" id="m3adebd1ac1" style="stroke:#ffffff;stroke-opacity:0.15;stroke-width:0.8;"/>
    </defs>
    <g clip-path="url(#pe28a11b7c8)">
     <use style="fill:#471365;fill-opacity:0.15;stroke:#ffffff;stroke-opacity:0.15;stroke-width:0.8;" x="0" xlink:href="#m3adebd1ac1" y="432"/>
    </g>
   </g>
   <g id="line2d_14">
    <path clip-path="url(#pe28a11b7c8)" d="M 63.579924 331.627896 
L 66.353646 332.290171 
L 69.127368 332.952445 
L 71.90109 333.61472 
L 74.674813 334.276994 
L 77.448535 334.939269 
L 80.222257 335.601544 
L 82.995979 336.263818 
L 85.769701 336.926093 
L 88.543423 337.588367 
L 91.317145 338.250642 
L 94.090867 338.912917 
L 96.864589 339.575191 
L 99.638311 340.237466 
L 102.412033 340.89974 
L 105.185755 341.562015 
L 107.959477 342.22429 
L 110.733199 342.886564 
L 113.506921 343.548839 
L 116.280644 344.211113 
L 119.054366 344.873388 
L 121.828088 345.535662 
L 124.60181 346.197937 
L 127.375532 346.860212 
L 130.149254 347.522486 
L 132.922976 348.184761 
L 135.696698 348.847035 
L 138.47042 349.50931 
L 141.244142 350.171585 
L 144.017864 350.833859 
L 146.791586 351.496134 
L 149.565308 352.158408 
L 152.33903 352.820683 
L 155.112753 353.482958 
L 157.886475 354.145232 
L 160.660197 354.807507 
L 163.433919 355.469781 
L 166.207641 356.132056 
L 168.981363 356.79433 
L 171.755085 357.456605 
L 174.528807 358.11888 
L 177.302529 358.781154 
L 180.076251 359.443429 
L 182.849973 360.105703 
L 185.623695 360.767978 
L 188.397417 361.430253 
L 191.171139 362.092527 
L 193.944861 362.754802 
L 196.718584 363.417076 
L 199.492306 364.079351 
L 202.266028 364.741626 
L 205.03975 365.4039 
L 207.813472 366.066175 
L 210.587194 366.728449 
L 213.360916 367.390724 
L 216.134638 368.052998 
L 218.90836 368.715273 
L 221.682082 369.377548 
L 224.455804 370.039822 
L 227.229526 370.702097 
L 230.003248 371.364371 
L 232.77697 372.026646 
L 235.550693 372.688921 
L 238.324415 373.351195 
L 241.098137 374.01347 
L 243.871859 374.675744 
L 246.645581 375.338019 
L 249.419303 376.000294 
L 252.193025 376.662568 
L 254.966747 377.324843 
L 257.740469 377.987117 
L 260.514191 378.649392 
L 263.287913 379.311667 
L 266.061635 379.973941 
L 268.835357 380.636216 
L 271.609079 381.29849 
L 274.382801 381.960765 
L 277.156524 382.623039 
L 279.930246 383.285314 
L 282.703968 383.947589 
L 285.47769 384.609863 
L 288.251412 385.272138 
L 291.025134 385.934412 
L 293.798856 386.596687 
L 296.572578 387.258962 
L 299.3463 387.921236 
L 302.120022 388.583511 
L 304.893744 389.245785 
L 307.667466 389.90806 
L 310.441188 390.570335 
L 313.21491 391.232609 
L 315.988633 391.894884 
L 318.762355 392.557158 
L 321.536077 393.219433 
L 324.309799 393.881707 
L 327.083521 394.543982 
L 329.857243 395.206257 
L 332.630965 395.868531 
L 335.404687 396.530806 
L 338.178409 397.19308 
" style="fill:none;stroke:#471365;stroke-linecap:round;stroke-width:1.8;"/>
   </g>
   <g id="patch_3">
    <path d="M 49.85 389.9 
L 49.85 81.383333 
" style="fill:none;stroke:#262626;stroke-linecap:square;stroke-linejoin:miter;"/>
   </g>
   <g id="patch_4">
    <path d="M 49.85 389.9 
L 351.908333 389.9 
" style="fill:none;stroke:#262626;stroke-linecap:square;stroke-linejoin:miter;"/>
   </g>
   <g id="legend_1">
    <g id="patch_5">
     <path d="M 184.579083 101.340083 
L 345.748333 101.340083 
Q 347.508333 101.340083 347.508333 99.580083 
L 347.508333 87.543333 
Q 347.508333 85.783333 345.748333 85.783333 
L 184.579083 85.783333 
Q 182.819083 85.783333 182.819083 87.543333 
L 182.819083 99.580083 
Q 182.819083 101.340083 184.579083 101.340083 
z
" style="fill:#ffffff;opacity:0.8;stroke:#cccccc;stroke-linejoin:miter;stroke-width:0.8;"/>
    </g>
    <g id="line2d_15"/>
    <g id="line2d_16"/>
    <g id="text_16">
     <!-- pearsonr = -0.39; p = 1.8e-09 -->
     <defs>
      <path d="M 18.109375 8.203125 
L 18.109375 -20.796875 
L 9.078125 -20.796875 
L 9.078125 54.6875 
L 18.109375 54.6875 
L 18.109375 46.390625 
Q 20.953125 51.265625 25.265625 53.625 
Q 29.59375 56 35.59375 56 
Q 45.5625 56 51.78125 48.09375 
Q 58.015625 40.1875 58.015625 27.296875 
Q 58.015625 14.40625 51.78125 6.484375 
Q 45.5625 -1.421875 35.59375 -1.421875 
Q 29.59375 -1.421875 25.265625 0.953125 
Q 20.953125 3.328125 18.109375 8.203125 
z
M 48.6875 27.296875 
Q 48.6875 37.203125 44.609375 42.84375 
Q 40.53125 48.484375 33.40625 48.484375 
Q 26.265625 48.484375 22.1875 42.84375 
Q 18.109375 37.203125 18.109375 27.296875 
Q 18.109375 17.390625 22.1875 11.75 
Q 26.265625 6.109375 33.40625 6.109375 
Q 40.53125 6.109375 44.609375 11.75 
Q 48.6875 17.390625 48.6875 27.296875 
z
" id="DejaVuSans-70"/>
      <path d="M 44.28125 53.078125 
L 44.28125 44.578125 
Q 40.484375 46.53125 36.375 47.5 
Q 32.28125 48.484375 27.875 48.484375 
Q 21.1875 48.484375 17.84375 46.4375 
Q 14.5 44.390625 14.5 40.28125 
Q 14.5 37.15625 16.890625 35.375 
Q 19.28125 33.59375 26.515625 31.984375 
L 29.59375 31.296875 
Q 39.15625 29.25 43.1875 25.515625 
Q 47.21875 21.78125 47.21875 15.09375 
Q 47.21875 7.46875 41.1875 3.015625 
Q 35.15625 -1.421875 24.609375 -1.421875 
Q 20.21875 -1.421875 15.453125 -0.5625 
Q 10.6875 0.296875 5.421875 2 
L 5.421875 11.28125 
Q 10.40625 8.6875 15.234375 7.390625 
Q 20.0625 6.109375 24.8125 6.109375 
Q 31.15625 6.109375 34.5625 8.28125 
Q 37.984375 10.453125 37.984375 14.40625 
Q 37.984375 18.0625 35.515625 20.015625 
Q 33.0625 21.96875 24.703125 23.78125 
L 21.578125 24.515625 
Q 13.234375 26.265625 9.515625 29.90625 
Q 5.8125 33.546875 5.8125 39.890625 
Q 5.8125 47.609375 11.28125 51.796875 
Q 16.75 56 26.8125 56 
Q 31.78125 56 36.171875 55.265625 
Q 40.578125 54.546875 44.28125 53.078125 
z
" id="DejaVuSans-73"/>
      <path d="M 10.59375 45.40625 
L 73.1875 45.40625 
L 73.1875 37.203125 
L 10.59375 37.203125 
z
M 10.59375 25.484375 
L 73.1875 25.484375 
L 73.1875 17.1875 
L 10.59375 17.1875 
z
" id="DejaVuSans-3d"/>
      <path d="M 10.6875 12.40625 
L 21 12.40625 
L 21 0 
L 10.6875 0 
z
" id="DejaVuSans-2e"/>
      <path d="M 40.578125 39.3125 
Q 47.65625 37.796875 51.625 33 
Q 55.609375 28.21875 55.609375 21.1875 
Q 55.609375 10.40625 48.1875 4.484375 
Q 40.765625 -1.421875 27.09375 -1.421875 
Q 22.515625 -1.421875 17.65625 -0.515625 
Q 12.796875 0.390625 7.625 2.203125 
L 7.625 11.71875 
Q 11.71875 9.328125 16.59375 8.109375 
Q 21.484375 6.890625 26.8125 6.890625 
Q 36.078125 6.890625 40.9375 10.546875 
Q 45.796875 14.203125 45.796875 21.1875 
Q 45.796875 27.640625 41.28125 31.265625 
Q 36.765625 34.90625 28.71875 34.90625 
L 20.21875 34.90625 
L 20.21875 43.015625 
L 29.109375 43.015625 
Q 36.375 43.015625 40.234375 45.921875 
Q 44.09375 48.828125 44.09375 54.296875 
Q 44.09375 59.90625 40.109375 62.90625 
Q 36.140625 65.921875 28.71875 65.921875 
Q 24.65625 65.921875 20.015625 65.03125 
Q 15.375 64.15625 9.8125 62.3125 
L 9.8125 71.09375 
Q 15.4375 72.65625 20.34375 73.4375 
Q 25.25 74.21875 29.59375 74.21875 
Q 40.828125 74.21875 47.359375 69.109375 
Q 53.90625 64.015625 53.90625 55.328125 
Q 53.90625 49.265625 50.4375 45.09375 
Q 46.96875 40.921875 40.578125 39.3125 
z
" id="DejaVuSans-33"/>
      <path d="M 10.984375 1.515625 
L 10.984375 10.5 
Q 14.703125 8.734375 18.5 7.8125 
Q 22.3125 6.890625 25.984375 6.890625 
Q 35.75 6.890625 40.890625 13.453125 
Q 46.046875 20.015625 46.78125 33.40625 
Q 43.953125 29.203125 39.59375 26.953125 
Q 35.25 24.703125 29.984375 24.703125 
Q 19.046875 24.703125 12.671875 31.3125 
Q 6.296875 37.9375 6.296875 49.421875 
Q 6.296875 60.640625 12.9375 67.421875 
Q 19.578125 74.21875 30.609375 74.21875 
Q 43.265625 74.21875 49.921875 64.515625 
Q 56.59375 54.828125 56.59375 36.375 
Q 56.59375 19.140625 48.40625 8.859375 
Q 40.234375 -1.421875 26.421875 -1.421875 
Q 22.703125 -1.421875 18.890625 -0.6875 
Q 15.09375 0.046875 10.984375 1.515625 
z
M 30.609375 32.421875 
Q 37.25 32.421875 41.125 36.953125 
Q 45.015625 41.5 45.015625 49.421875 
Q 45.015625 57.28125 41.125 61.84375 
Q 37.25 66.40625 30.609375 66.40625 
Q 23.96875 66.40625 20.09375 61.84375 
Q 16.21875 57.28125 16.21875 49.421875 
Q 16.21875 41.5 20.09375 36.953125 
Q 23.96875 32.421875 30.609375 32.421875 
z
" id="DejaVuSans-39"/>
      <path d="M 11.71875 51.703125 
L 22.015625 51.703125 
L 22.015625 39.3125 
L 11.71875 39.3125 
z
M 11.71875 12.40625 
L 22.015625 12.40625 
L 22.015625 4 
L 14.015625 -11.625 
L 7.71875 -11.625 
L 11.71875 4 
z
" id="DejaVuSans-3b"/>
     </defs>
     <g style="fill:#262626;" transform="translate(210.979083 95.989958)scale(0.088 -0.088)">
      <use xlink:href="#DejaVuSans-70"/>
      <use x="63.476562" xlink:href="#DejaVuSans-65"/>
      <use x="125" xlink:href="#DejaVuSans-61"/>
      <use x="186.279297" xlink:href="#DejaVuSans-72"/>
      <use x="227.392578" xlink:href="#DejaVuSans-73"/>
      <use x="279.492188" xlink:href="#DejaVuSans-6f"/>
      <use x="340.673828" xlink:href="#DejaVuSans-6e"/>
      <use x="404.052734" xlink:href="#DejaVuSans-72"/>
      <use x="445.166016" xlink:href="#DejaVuSans-20"/>
      <use x="476.953125" xlink:href="#DejaVuSans-3d"/>
      <use x="560.742188" xlink:href="#DejaVuSans-20"/>
      <use x="592.529297" xlink:href="#DejaVuSans-2d"/>
      <use x="628.613281" xlink:href="#DejaVuSans-30"/>
      <use x="692.236328" xlink:href="#DejaVuSans-2e"/>
      <use x="724.023438" xlink:href="#DejaVuSans-33"/>
      <use x="787.646484" xlink:href="#DejaVuSans-39"/>
      <use x="851.269531" xlink:href="#DejaVuSans-3b"/>
      <use x="884.960938" xlink:href="#DejaVuSans-20"/>
      <use x="916.748047" xlink:href="#DejaVuSans-70"/>
      <use x="980.224609" xlink:href="#DejaVuSans-20"/>
      <use x="1012.011719" xlink:href="#DejaVuSans-3d"/>
      <use x="1095.800781" xlink:href="#DejaVuSans-20"/>
      <use x="1127.587891" xlink:href="#DejaVuSans-31"/>
      <use x="1191.210938" xlink:href="#DejaVuSans-2e"/>
      <use x="1222.998047" xlink:href="#DejaVuSans-38"/>
      <use x="1286.621094" xlink:href="#DejaVuSans-65"/>
      <use x="1348.144531" xlink:href="#DejaVuSans-2d"/>
      <use x="1384.228516" xlink:href="#DejaVuSans-30"/>
      <use x="1447.851562" xlink:href="#DejaVuSans-39"/>
     </g>
    </g>
   </g>
  </g>
  <g id="axes_2">
   <g id="patch_6">
    <path d="M 49.85 60.983333 
L 351.908333 60.983333 
L 351.908333 15.6 
L 49.85 15.6 
z
" style="fill:#ffffff;"/>
   </g>
   <g id="matplotlib.axis_3">
    <g id="xtick_8">
     <g id="line2d_17">
      <g>
       <use style="fill:#262626;stroke:#262626;" x="60.489691" xlink:href="#me729221afc" y="60.983333"/>
      </g>
     </g>
    </g>
    <g id="xtick_9">
     <g id="line2d_18">
      <g>
       <use style="fill:#262626;stroke:#262626;" x="103.372558" xlink:href="#me729221afc" y="60.983333"/>
      </g>
     </g>
    </g>
    <g id="xtick_10">
     <g id="line2d_19">
      <g>
       <use style="fill:#262626;stroke:#262626;" x="146.255425" xlink:href="#me729221afc" y="60.983333"/>
      </g>
     </g>
    </g>
    <g id="xtick_11">
     <g id="line2d_20">
      <g>
       <use style="fill:#262626;stroke:#262626;" x="189.138291" xlink:href="#me729221afc" y="60.983333"/>
      </g>
     </g>
    </g>
    <g id="xtick_12">
     <g id="line2d_21">
      <g>
       <use style="fill:#262626;stroke:#262626;" x="232.021158" xlink:href="#me729221afc" y="60.983333"/>
      </g>
     </g>
    </g>
    <g id="xtick_13">
     <g id="line2d_22">
      <g>
       <use style="fill:#262626;stroke:#262626;" x="274.904025" xlink:href="#me729221afc" y="60.983333"/>
      </g>
     </g>
    </g>
    <g id="xtick_14">
     <g id="line2d_23">
      <g>
       <use style="fill:#262626;stroke:#262626;" x="317.786892" xlink:href="#me729221afc" y="60.983333"/>
      </g>
     </g>
    </g>
   </g>
   <g id="matplotlib.axis_4">
    <g id="ytick_7"/>
    <g id="ytick_8"/>
   </g>
   <g id="patch_7">
    <path clip-path="url(#p0c553ddd38)" d="M 114.052353 60.983333 
L 129.839046 60.983333 
L 129.839046 38.432609 
L 114.052353 38.432609 
z
" style="fill:#471365;opacity:0.4;stroke:#ffffff;stroke-linejoin:miter;stroke-width:0.8;"/>
   </g>
   <g id="patch_8">
    <path clip-path="url(#p0c553ddd38)" d="M 129.839046 60.983333 
L 145.62574 60.983333 
L 145.62574 29.036473 
L 129.839046 29.036473 
z
" style="fill:#471365;opacity:0.4;stroke:#ffffff;stroke-linejoin:miter;stroke-width:0.8;"/>
   </g>
   <g id="patch_9">
    <path clip-path="url(#p0c553ddd38)" d="M 145.62574 60.983333 
L 161.412433 60.983333 
L 161.412433 17.761111 
L 145.62574 17.761111 
z
" style="fill:#471365;opacity:0.4;stroke:#ffffff;stroke-linejoin:miter;stroke-width:0.8;"/>
   </g>
   <g id="patch_10">
    <path clip-path="url(#p0c553ddd38)" d="M 161.412433 60.983333 
L 177.199127 60.983333 
L 177.199127 32.794928 
L 161.412433 32.794928 
z
" style="fill:#471365;opacity:0.4;stroke:#ffffff;stroke-linejoin:miter;stroke-width:0.8;"/>
   </g>
   <g id="patch_11">
    <path clip-path="url(#p0c553ddd38)" d="M 177.199127 60.983333 
L 192.98582 60.983333 
L 192.98582 29.976087 
L 177.199127 29.976087 
z
" style="fill:#471365;opacity:0.4;stroke:#ffffff;stroke-linejoin:miter;stroke-width:0.8;"/>
   </g>
   <g id="patch_12">
    <path clip-path="url(#p0c553ddd38)" d="M 192.98582 60.983333 
L 208.772513 60.983333 
L 208.772513 47.828744 
L 192.98582 47.828744 
z
" style="fill:#471365;opacity:0.4;stroke:#ffffff;stroke-linejoin:miter;stroke-width:0.8;"/>
   </g>
   <g id="patch_13">
    <path clip-path="url(#p0c553ddd38)" d="M 208.772513 60.983333 
L 224.559207 60.983333 
L 224.559207 45.949517 
L 208.772513 45.949517 
z
" style="fill:#471365;opacity:0.4;stroke:#ffffff;stroke-linejoin:miter;stroke-width:0.8;"/>
   </g>
   <g id="patch_14">
    <path clip-path="url(#p0c553ddd38)" d="M 224.559207 60.983333 
L 240.3459 60.983333 
L 240.3459 56.285266 
L 224.559207 56.285266 
z
" style="fill:#471365;opacity:0.4;stroke:#ffffff;stroke-linejoin:miter;stroke-width:0.8;"/>
   </g>
   <g id="patch_15">
    <path clip-path="url(#p0c553ddd38)" d="M 240.3459 60.983333 
L 256.132593 60.983333 
L 256.132593 51.587198 
L 240.3459 51.587198 
z
" style="fill:#471365;opacity:0.4;stroke:#ffffff;stroke-linejoin:miter;stroke-width:0.8;"/>
   </g>
   <g id="patch_16">
    <path clip-path="url(#p0c553ddd38)" d="M 256.132593 60.983333 
L 271.919287 60.983333 
L 271.919287 55.345652 
L 256.132593 55.345652 
z
" style="fill:#471365;opacity:0.4;stroke:#ffffff;stroke-linejoin:miter;stroke-width:0.8;"/>
   </g>
   <g id="patch_17">
    <path clip-path="url(#p0c553ddd38)" d="M 271.919287 60.983333 
L 287.70598 60.983333 
L 287.70598 58.164493 
L 271.919287 58.164493 
z
" style="fill:#471365;opacity:0.4;stroke:#ffffff;stroke-linejoin:miter;stroke-width:0.8;"/>
   </g>
   <g id="line2d_24">
    <path clip-path="url(#p0c553ddd38)" d="M 76.061674 60.967541 
L 78.583239 60.952838 
L 81.104805 60.926391 
L 83.62637 60.880484 
L 86.147936 60.803575 
L 88.669501 60.679207 
L 91.191067 60.485066 
L 93.712632 60.1925 
L 96.234198 59.766875 
L 98.755763 59.169121 
L 101.277329 58.358756 
L 103.798894 57.298364 
L 106.32046 55.959185 
L 108.842025 54.327025 
L 111.363591 52.407347 
L 113.885156 50.228262 
L 116.406722 47.840324 
L 118.928287 45.312594 
L 121.449853 42.72529 
L 123.971418 40.160278 
L 126.492984 37.69138 
L 129.014549 35.376692 
L 131.536115 33.254722 
L 134.05768 31.345126 
L 136.579246 29.653531 
L 139.100811 28.178737 
L 141.622377 26.919856 
L 144.143943 25.881092 
L 146.665508 25.072647 
L 149.187074 24.507636 
L 151.708639 24.196301 
L 154.230205 24.139752 
L 156.75177 24.325683 
L 159.273336 24.727846 
L 161.794901 25.309757 
L 164.316467 26.031611 
L 166.838032 26.858249 
L 169.359598 27.765568 
L 171.881163 28.743267 
L 174.402729 29.792997 
L 176.924294 30.922494 
L 179.44586 32.137581 
L 181.967425 33.434605 
L 184.488991 34.795743 
L 187.010556 36.188682 
L 189.532122 37.570872 
L 192.053687 38.897197 
L 194.575253 40.128939 
L 197.096818 41.241617 
L 199.618384 42.229647 
L 202.139949 43.106685 
L 204.661515 43.901641 
L 207.18308 44.65142 
L 209.704646 45.392209 
L 212.226211 46.151316 
L 214.747777 46.941414 
L 217.269343 47.758385 
L 219.790908 48.583131 
L 222.312474 49.386828 
L 224.834039 50.138312 
L 227.355605 50.811805 
L 229.87717 51.393087 
L 232.398736 51.882617 
L 234.920301 52.29487 
L 237.441867 52.654182 
L 239.963432 52.988368 
L 242.484998 53.321972 
L 245.006563 53.671062 
L 247.528129 54.040916 
L 250.049694 54.426985 
L 252.57126 54.818463 
L 255.092825 55.203076 
L 257.614391 55.571446 
L 260.135956 55.919786 
L 262.657522 56.250353 
L 265.179087 56.569903 
L 267.700653 56.886969 
L 270.222218 57.208985 
L 272.743784 57.540137 
L 275.265349 57.880411 
L 277.786915 58.225861 
L 280.30848 58.569777 
L 282.830046 58.904232 
L 285.351612 59.221554 
L 287.873177 59.515392 
L 290.394743 59.781254 
L 292.916308 60.016582 
L 295.437874 60.22053 
L 297.959439 60.393608 
L 300.481005 60.537334 
L 303.00257 60.653957 
L 305.524136 60.746242 
L 308.045701 60.817298 
L 310.567267 60.870409 
L 313.088832 60.908865 
L 315.610398 60.935785 
L 318.131963 60.953975 
L 320.653529 60.965823 
L 323.175094 60.973253 
L 325.69666 60.977737 
" style="fill:none;stroke:#471365;stroke-linecap:round;stroke-width:1.2;"/>
   </g>
   <g id="patch_18">
    <path d="M 49.85 60.983333 
L 351.908333 60.983333 
" style="fill:none;stroke:#262626;stroke-linecap:square;stroke-linejoin:miter;"/>
   </g>
  </g>
  <g id="axes_3">
   <g id="patch_19">
    <path d="M 372.308333 389.9 
L 416.4 389.9 
L 416.4 81.383333 
L 372.308333 81.383333 
z
" style="fill:#ffffff;"/>
   </g>
   <g id="matplotlib.axis_5">
    <g id="xtick_15"/>
    <g id="xtick_16"/>
   </g>
   <g id="matplotlib.axis_6">
    <g id="ytick_9">
     <g id="line2d_25">
      <g>
       <use style="fill:#262626;stroke:#262626;" x="372.308333" xlink:href="#m31535f3621" y="389.9"/>
      </g>
     </g>
    </g>
    <g id="ytick_10">
     <g id="line2d_26">
      <g>
       <use style="fill:#262626;stroke:#262626;" x="372.308333" xlink:href="#m31535f3621" y="333.806061"/>
      </g>
     </g>
    </g>
    <g id="ytick_11">
     <g id="line2d_27">
      <g>
       <use style="fill:#262626;stroke:#262626;" x="372.308333" xlink:href="#m31535f3621" y="277.712121"/>
      </g>
     </g>
    </g>
    <g id="ytick_12">
     <g id="line2d_28">
      <g>
       <use style="fill:#262626;stroke:#262626;" x="372.308333" xlink:href="#m31535f3621" y="221.618182"/>
      </g>
     </g>
    </g>
    <g id="ytick_13">
     <g id="line2d_29">
      <g>
       <use style="fill:#262626;stroke:#262626;" x="372.308333" xlink:href="#m31535f3621" y="165.524242"/>
      </g>
     </g>
    </g>
    <g id="ytick_14">
     <g id="line2d_30">
      <g>
       <use style="fill:#262626;stroke:#262626;" x="372.308333" xlink:href="#m31535f3621" y="109.430303"/>
      </g>
     </g>
    </g>
   </g>
   <g id="patch_20">
    <path clip-path="url(#p4b527cdd2d)" d="M 372.308333 374.962107 
L 375.017499 374.962107 
L 375.017499 369.688508 
L 372.308333 369.688508 
z
" style="fill:#471365;opacity:0.4;stroke:#ffffff;stroke-linejoin:miter;stroke-width:0.8;"/>
   </g>
   <g id="patch_21">
    <path clip-path="url(#p4b527cdd2d)" d="M 372.308333 369.688508 
L 400.303042 369.688508 
L 400.303042 364.41491 
L 372.308333 364.41491 
z
" style="fill:#471365;opacity:0.4;stroke:#ffffff;stroke-linejoin:miter;stroke-width:0.8;"/>
   </g>
   <g id="patch_22">
    <path clip-path="url(#p4b527cdd2d)" d="M 372.308333 364.41491 
L 414.300397 364.41491 
L 414.300397 359.141311 
L 372.308333 359.141311 
z
" style="fill:#471365;opacity:0.4;stroke:#ffffff;stroke-linejoin:miter;stroke-width:0.8;"/>
   </g>
   <g id="patch_23">
    <path clip-path="url(#p4b527cdd2d)" d="M 372.308333 359.141311 
L 387.208743 359.141311 
L 387.208743 353.867712 
L 372.308333 353.867712 
z
" style="fill:#471365;opacity:0.4;stroke:#ffffff;stroke-linejoin:miter;stroke-width:0.8;"/>
   </g>
   <g id="patch_24">
    <path clip-path="url(#p4b527cdd2d)" d="M 372.308333 353.867712 
L 376.372081 353.867712 
L 376.372081 348.594114 
L 372.308333 348.594114 
z
" style="fill:#471365;opacity:0.4;stroke:#ffffff;stroke-linejoin:miter;stroke-width:0.8;"/>
   </g>
   <g id="patch_25">
    <path clip-path="url(#p4b527cdd2d)" d="M 372.308333 348.594114 
L 373.211388 348.594114 
L 373.211388 343.320515 
L 372.308333 343.320515 
z
" style="fill:#471365;opacity:0.4;stroke:#ffffff;stroke-linejoin:miter;stroke-width:0.8;"/>
   </g>
   <g id="patch_26">
    <path clip-path="url(#p4b527cdd2d)" d="M 372.308333 343.320515 
L 373.662916 343.320515 
L 373.662916 338.046916 
L 372.308333 338.046916 
z
" style="fill:#471365;opacity:0.4;stroke:#ffffff;stroke-linejoin:miter;stroke-width:0.8;"/>
   </g>
   <g id="patch_27">
    <path clip-path="url(#p4b527cdd2d)" d="M 372.308333 338.046916 
L 372.759861 338.046916 
L 372.759861 332.773317 
L 372.308333 332.773317 
z
" style="fill:#471365;opacity:0.4;stroke:#ffffff;stroke-linejoin:miter;stroke-width:0.8;"/>
   </g>
   <g id="patch_28">
    <path clip-path="url(#p4b527cdd2d)" d="M 372.308333 332.773317 
L 373.211388 332.773317 
L 373.211388 327.499719 
L 372.308333 327.499719 
z
" style="fill:#471365;opacity:0.4;stroke:#ffffff;stroke-linejoin:miter;stroke-width:0.8;"/>
   </g>
   <g id="patch_29">
    <path clip-path="url(#p4b527cdd2d)" d="M 372.308333 327.499719 
L 372.759861 327.499719 
L 372.759861 322.22612 
L 372.308333 322.22612 
z
" style="fill:#471365;opacity:0.4;stroke:#ffffff;stroke-linejoin:miter;stroke-width:0.8;"/>
   </g>
   <g id="patch_30">
    <path clip-path="url(#p4b527cdd2d)" d="M 372.308333 322.22612 
L 373.211388 322.22612 
L 373.211388 316.952521 
L 372.308333 316.952521 
z
" style="fill:#471365;opacity:0.4;stroke:#ffffff;stroke-linejoin:miter;stroke-width:0.8;"/>
   </g>
   <g id="patch_31">
    <path clip-path="url(#p4b527cdd2d)" d="M 372.308333 316.952521 
L 372.759861 316.952521 
L 372.759861 311.678923 
L 372.308333 311.678923 
z
" style="fill:#471365;opacity:0.4;stroke:#ffffff;stroke-linejoin:miter;stroke-width:0.8;"/>
   </g>
   <g id="patch_32">
    <path clip-path="url(#p4b527cdd2d)" d="M 372.308333 311.678923 
L 372.308333 311.678923 
L 372.308333 306.405324 
L 372.308333 306.405324 
z
" style="fill:#471365;opacity:0.4;stroke:#ffffff;stroke-linejoin:miter;stroke-width:0.8;"/>
   </g>
   <g id="patch_33">
    <path clip-path="url(#p4b527cdd2d)" d="M 372.308333 306.405324 
L 372.759861 306.405324 
L 372.759861 301.131725 
L 372.308333 301.131725 
z
" style="fill:#471365;opacity:0.4;stroke:#ffffff;stroke-linejoin:miter;stroke-width:0.8;"/>
   </g>
   <g id="patch_34">
    <path clip-path="url(#p4b527cdd2d)" d="M 372.308333 301.131725 
L 372.759861 301.131725 
L 372.759861 295.858126 
L 372.308333 295.858126 
z
" style="fill:#471365;opacity:0.4;stroke:#ffffff;stroke-linejoin:miter;stroke-width:0.8;"/>
   </g>
   <g id="patch_35">
    <path clip-path="url(#p4b527cdd2d)" d="M 372.308333 295.858126 
L 372.759861 295.858126 
L 372.759861 290.584528 
L 372.308333 290.584528 
z
" style="fill:#471365;opacity:0.4;stroke:#ffffff;stroke-linejoin:miter;stroke-width:0.8;"/>
   </g>
   <g id="patch_36">
    <path clip-path="url(#p4b527cdd2d)" d="M 372.308333 290.584528 
L 372.308333 290.584528 
L 372.308333 285.310929 
L 372.308333 285.310929 
z
" style="fill:#471365;opacity:0.4;stroke:#ffffff;stroke-linejoin:miter;stroke-width:0.8;"/>
   </g>
   <g id="patch_37">
    <path clip-path="url(#p4b527cdd2d)" d="M 372.308333 285.310929 
L 372.308333 285.310929 
L 372.308333 280.03733 
L 372.308333 280.03733 
z
" style="fill:#471365;opacity:0.4;stroke:#ffffff;stroke-linejoin:miter;stroke-width:0.8;"/>
   </g>
   <g id="patch_38">
    <path clip-path="url(#p4b527cdd2d)" d="M 372.308333 280.03733 
L 372.308333 280.03733 
L 372.308333 274.763732 
L 372.308333 274.763732 
z
" style="fill:#471365;opacity:0.4;stroke:#ffffff;stroke-linejoin:miter;stroke-width:0.8;"/>
   </g>
   <g id="patch_39">
    <path clip-path="url(#p4b527cdd2d)" d="M 372.308333 274.763732 
L 372.308333 274.763732 
L 372.308333 269.490133 
L 372.308333 269.490133 
z
" style="fill:#471365;opacity:0.4;stroke:#ffffff;stroke-linejoin:miter;stroke-width:0.8;"/>
   </g>
   <g id="patch_40">
    <path clip-path="url(#p4b527cdd2d)" d="M 372.308333 269.490133 
L 372.759861 269.490133 
L 372.759861 264.216534 
L 372.308333 264.216534 
z
" style="fill:#471365;opacity:0.4;stroke:#ffffff;stroke-linejoin:miter;stroke-width:0.8;"/>
   </g>
   <g id="patch_41">
    <path clip-path="url(#p4b527cdd2d)" d="M 372.308333 264.216534 
L 372.308333 264.216534 
L 372.308333 258.942935 
L 372.308333 258.942935 
z
" style="fill:#471365;opacity:0.4;stroke:#ffffff;stroke-linejoin:miter;stroke-width:0.8;"/>
   </g>
   <g id="patch_42">
    <path clip-path="url(#p4b527cdd2d)" d="M 372.308333 258.942935 
L 372.308333 258.942935 
L 372.308333 253.669337 
L 372.308333 253.669337 
z
" style="fill:#471365;opacity:0.4;stroke:#ffffff;stroke-linejoin:miter;stroke-width:0.8;"/>
   </g>
   <g id="patch_43">
    <path clip-path="url(#p4b527cdd2d)" d="M 372.308333 253.669337 
L 372.308333 253.669337 
L 372.308333 248.395738 
L 372.308333 248.395738 
z
" style="fill:#471365;opacity:0.4;stroke:#ffffff;stroke-linejoin:miter;stroke-width:0.8;"/>
   </g>
   <g id="patch_44">
    <path clip-path="url(#p4b527cdd2d)" d="M 372.308333 248.395738 
L 372.308333 248.395738 
L 372.308333 243.122139 
L 372.308333 243.122139 
z
" style="fill:#471365;opacity:0.4;stroke:#ffffff;stroke-linejoin:miter;stroke-width:0.8;"/>
   </g>
   <g id="patch_45">
    <path clip-path="url(#p4b527cdd2d)" d="M 372.308333 243.122139 
L 372.308333 243.122139 
L 372.308333 237.848541 
L 372.308333 237.848541 
z
" style="fill:#471365;opacity:0.4;stroke:#ffffff;stroke-linejoin:miter;stroke-width:0.8;"/>
   </g>
   <g id="patch_46">
    <path clip-path="url(#p4b527cdd2d)" d="M 372.308333 237.848541 
L 372.308333 237.848541 
L 372.308333 232.574942 
L 372.308333 232.574942 
z
" style="fill:#471365;opacity:0.4;stroke:#ffffff;stroke-linejoin:miter;stroke-width:0.8;"/>
   </g>
   <g id="patch_47">
    <path clip-path="url(#p4b527cdd2d)" d="M 372.308333 232.574942 
L 372.308333 232.574942 
L 372.308333 227.301343 
L 372.308333 227.301343 
z
" style="fill:#471365;opacity:0.4;stroke:#ffffff;stroke-linejoin:miter;stroke-width:0.8;"/>
   </g>
   <g id="patch_48">
    <path clip-path="url(#p4b527cdd2d)" d="M 372.308333 227.301343 
L 372.759861 227.301343 
L 372.759861 222.027744 
L 372.308333 222.027744 
z
" style="fill:#471365;opacity:0.4;stroke:#ffffff;stroke-linejoin:miter;stroke-width:0.8;"/>
   </g>
   <g id="patch_49">
    <path clip-path="url(#p4b527cdd2d)" d="M 372.308333 222.027744 
L 372.308333 222.027744 
L 372.308333 216.754146 
L 372.308333 216.754146 
z
" style="fill:#471365;opacity:0.4;stroke:#ffffff;stroke-linejoin:miter;stroke-width:0.8;"/>
   </g>
   <g id="patch_50">
    <path clip-path="url(#p4b527cdd2d)" d="M 372.308333 216.754146 
L 372.308333 216.754146 
L 372.308333 211.480547 
L 372.308333 211.480547 
z
" style="fill:#471365;opacity:0.4;stroke:#ffffff;stroke-linejoin:miter;stroke-width:0.8;"/>
   </g>
   <g id="patch_51">
    <path clip-path="url(#p4b527cdd2d)" d="M 372.308333 211.480547 
L 372.308333 211.480547 
L 372.308333 206.206948 
L 372.308333 206.206948 
z
" style="fill:#471365;opacity:0.4;stroke:#ffffff;stroke-linejoin:miter;stroke-width:0.8;"/>
   </g>
   <g id="patch_52">
    <path clip-path="url(#p4b527cdd2d)" d="M 372.308333 206.206948 
L 372.308333 206.206948 
L 372.308333 200.93335 
L 372.308333 200.93335 
z
" style="fill:#471365;opacity:0.4;stroke:#ffffff;stroke-linejoin:miter;stroke-width:0.8;"/>
   </g>
   <g id="patch_53">
    <path clip-path="url(#p4b527cdd2d)" d="M 372.308333 200.93335 
L 372.308333 200.93335 
L 372.308333 195.659751 
L 372.308333 195.659751 
z
" style="fill:#471365;opacity:0.4;stroke:#ffffff;stroke-linejoin:miter;stroke-width:0.8;"/>
   </g>
   <g id="patch_54">
    <path clip-path="url(#p4b527cdd2d)" d="M 372.308333 195.659751 
L 372.308333 195.659751 
L 372.308333 190.386152 
L 372.308333 190.386152 
z
" style="fill:#471365;opacity:0.4;stroke:#ffffff;stroke-linejoin:miter;stroke-width:0.8;"/>
   </g>
   <g id="patch_55">
    <path clip-path="url(#p4b527cdd2d)" d="M 372.308333 190.386152 
L 372.308333 190.386152 
L 372.308333 185.112553 
L 372.308333 185.112553 
z
" style="fill:#471365;opacity:0.4;stroke:#ffffff;stroke-linejoin:miter;stroke-width:0.8;"/>
   </g>
   <g id="patch_56">
    <path clip-path="url(#p4b527cdd2d)" d="M 372.308333 185.112553 
L 372.308333 185.112553 
L 372.308333 179.838955 
L 372.308333 179.838955 
z
" style="fill:#471365;opacity:0.4;stroke:#ffffff;stroke-linejoin:miter;stroke-width:0.8;"/>
   </g>
   <g id="patch_57">
    <path clip-path="url(#p4b527cdd2d)" d="M 372.308333 179.838955 
L 372.308333 179.838955 
L 372.308333 174.565356 
L 372.308333 174.565356 
z
" style="fill:#471365;opacity:0.4;stroke:#ffffff;stroke-linejoin:miter;stroke-width:0.8;"/>
   </g>
   <g id="patch_58">
    <path clip-path="url(#p4b527cdd2d)" d="M 372.308333 174.565356 
L 372.308333 174.565356 
L 372.308333 169.291757 
L 372.308333 169.291757 
z
" style="fill:#471365;opacity:0.4;stroke:#ffffff;stroke-linejoin:miter;stroke-width:0.8;"/>
   </g>
   <g id="patch_59">
    <path clip-path="url(#p4b527cdd2d)" d="M 372.308333 169.291757 
L 372.308333 169.291757 
L 372.308333 164.018159 
L 372.308333 164.018159 
z
" style="fill:#471365;opacity:0.4;stroke:#ffffff;stroke-linejoin:miter;stroke-width:0.8;"/>
   </g>
   <g id="patch_60">
    <path clip-path="url(#p4b527cdd2d)" d="M 372.308333 164.018159 
L 372.308333 164.018159 
L 372.308333 158.74456 
L 372.308333 158.74456 
z
" style="fill:#471365;opacity:0.4;stroke:#ffffff;stroke-linejoin:miter;stroke-width:0.8;"/>
   </g>
   <g id="patch_61">
    <path clip-path="url(#p4b527cdd2d)" d="M 372.308333 158.74456 
L 372.308333 158.74456 
L 372.308333 153.470961 
L 372.308333 153.470961 
z
" style="fill:#471365;opacity:0.4;stroke:#ffffff;stroke-linejoin:miter;stroke-width:0.8;"/>
   </g>
   <g id="patch_62">
    <path clip-path="url(#p4b527cdd2d)" d="M 372.308333 153.470961 
L 372.308333 153.470961 
L 372.308333 148.197362 
L 372.308333 148.197362 
z
" style="fill:#471365;opacity:0.4;stroke:#ffffff;stroke-linejoin:miter;stroke-width:0.8;"/>
   </g>
   <g id="patch_63">
    <path clip-path="url(#p4b527cdd2d)" d="M 372.308333 148.197362 
L 372.308333 148.197362 
L 372.308333 142.923764 
L 372.308333 142.923764 
z
" style="fill:#471365;opacity:0.4;stroke:#ffffff;stroke-linejoin:miter;stroke-width:0.8;"/>
   </g>
   <g id="patch_64">
    <path clip-path="url(#p4b527cdd2d)" d="M 372.308333 142.923764 
L 372.308333 142.923764 
L 372.308333 137.650165 
L 372.308333 137.650165 
z
" style="fill:#471365;opacity:0.4;stroke:#ffffff;stroke-linejoin:miter;stroke-width:0.8;"/>
   </g>
   <g id="patch_65">
    <path clip-path="url(#p4b527cdd2d)" d="M 372.308333 137.650165 
L 372.308333 137.650165 
L 372.308333 132.376566 
L 372.308333 132.376566 
z
" style="fill:#471365;opacity:0.4;stroke:#ffffff;stroke-linejoin:miter;stroke-width:0.8;"/>
   </g>
   <g id="patch_66">
    <path clip-path="url(#p4b527cdd2d)" d="M 372.308333 132.376566 
L 372.308333 132.376566 
L 372.308333 127.102968 
L 372.308333 127.102968 
z
" style="fill:#471365;opacity:0.4;stroke:#ffffff;stroke-linejoin:miter;stroke-width:0.8;"/>
   </g>
   <g id="patch_67">
    <path clip-path="url(#p4b527cdd2d)" d="M 372.308333 127.102968 
L 372.308333 127.102968 
L 372.308333 121.829369 
L 372.308333 121.829369 
z
" style="fill:#471365;opacity:0.4;stroke:#ffffff;stroke-linejoin:miter;stroke-width:0.8;"/>
   </g>
   <g id="patch_68">
    <path clip-path="url(#p4b527cdd2d)" d="M 372.308333 121.829369 
L 372.308333 121.829369 
L 372.308333 116.55577 
L 372.308333 116.55577 
z
" style="fill:#471365;opacity:0.4;stroke:#ffffff;stroke-linejoin:miter;stroke-width:0.8;"/>
   </g>
   <g id="patch_69">
    <path clip-path="url(#p4b527cdd2d)" d="M 372.308333 116.55577 
L 372.759861 116.55577 
L 372.759861 111.282171 
L 372.308333 111.282171 
z
" style="fill:#471365;opacity:0.4;stroke:#ffffff;stroke-linejoin:miter;stroke-width:0.8;"/>
   </g>
   <g id="line2d_31">
    <path clip-path="url(#p4b527cdd2d)" d="M 372.313618 398.171778 
L 372.329497 395.039463 
L 372.383305 391.907147 
L 372.543358 388.774831 
L 372.959576 385.642515 
L 373.90009 382.510199 
L 375.731436 379.377883 
L 378.769946 376.245567 
L 382.995245 373.113251 
L 387.779862 369.980935 
L 391.915397 366.848619 
L 394.087847 363.716303 
L 393.57256 360.583987 
L 390.644286 357.451671 
L 386.381754 354.319355 
L 382.045507 351.187039 
L 378.509435 348.054723 
L 376.070657 344.922407 
L 374.599992 341.790091 
L 373.799623 338.657776 
L 373.388583 335.52546 
L 373.175275 332.393144 
L 373.055609 329.260828 
L 372.982717 326.128512 
L 372.935969 322.996196 
L 372.901737 319.86388 
L 372.868263 316.731564 
L 372.828821 313.599248 
L 372.784104 310.466932 
L 372.739246 307.334616 
L 372.698273 304.2023 
L 372.660954 301.069984 
L 372.62356 297.937668 
L 372.581696 294.805352 
L 372.533383 291.673036 
L 372.481366 288.54072 
L 372.433346 285.408405 
L 372.399132 282.276089 
L 372.385678 279.143773 
L 372.392683 276.011457 
L 372.411411 272.879141 
L 372.428082 269.746825 
L 372.430781 266.614509 
L 372.415793 263.482193 
L 372.388685 260.349877 
L 372.359463 257.217561 
L 372.336207 254.085245 
L 372.322102 250.952929 
L 372.316818 247.820613 
L 372.319565 244.688297 
L 372.330808 241.555981 
L 372.351332 238.423665 
L 372.379328 235.291349 
L 372.408099 232.159033 
L 372.427451 229.026718 
L 372.429147 225.894402 
L 372.412418 222.762086 
L 372.384505 219.62977 
L 372.355684 216.497454 
L 372.333337 213.365138 
L 372.319548 210.232822 
L 372.312606 207.100506 
L 372.309716 203.96819 
L 372.308714 200.835874 
L 372.308422 197.703558 
L 372.308351 194.571242 
L 372.308336 191.438926 
L 372.308334 188.30661 
L 372.308333 185.174294 
L 372.308333 182.041978 
L 372.308333 178.909662 
L 372.308333 175.777346 
L 372.308333 172.645031 
L 372.308333 169.512715 
L 372.308333 166.380399 
L 372.308333 163.248083 
L 372.308333 160.115767 
L 372.308333 156.983451 
L 372.308333 153.851135 
L 372.308334 150.718819 
L 372.308335 147.586503 
L 372.308346 144.454187 
L 372.308401 141.321871 
L 372.308631 138.189555 
L 372.309447 135.057239 
L 372.311875 131.924923 
L 372.317901 128.792607 
L 372.33029 125.660291 
L 372.351132 122.527975 
L 372.379198 119.395659 
L 372.408002 116.263344 
L 372.427409 113.131028 
L 372.429176 109.998712 
L 372.412505 106.866396 
L 372.384613 103.73408 
L 372.355779 100.601764 
L 372.333402 97.469448 
L 372.319584 94.337132 
L 372.312622 91.204816 
L 372.309722 88.0725 
" style="fill:none;stroke:#471365;stroke-linecap:round;stroke-width:1.2;"/>
   </g>
   <g id="patch_70">
    <path d="M 372.308333 389.9 
L 372.308333 81.383333 
" style="fill:none;stroke:#262626;stroke-linecap:square;stroke-linejoin:miter;"/>
   </g>
  </g>
 </g>
 <defs>
  <clipPath id="pe28a11b7c8">
   <rect height="308.516667" width="302.058333" x="49.85" y="81.383333"/>
  </clipPath>
  <clipPath id="p0c553ddd38">
   <rect height="45.383333" width="302.058333" x="49.85" y="15.6"/>
  </clipPath>
  <clipPath id="p4b527cdd2d">
   <rect height="308.516667" width="44.091667" x="372.308333" y="81.383333"/>
  </clipPath>
 </defs>
</svg>
