<?xml version="1.0" encoding="utf-8" standalone="no"?>
<!DOCTYPE svg PUBLIC "-//W3C//DTD SVG 1.1//EN"
  "http://www.w3.org/Graphics/SVG/1.1/DTD/svg11.dtd">
<!-- Created with matplotlib (http://matplotlib.org/) -->
<svg height="432pt" version="1.1" viewBox="0 0 432 432" width="432pt" xmlns="http://www.w3.org/2000/svg" xmlns:xlink="http://www.w3.org/1999/xlink">
 <defs>
  <style type="text/css">
*{stroke-linecap:butt;stroke-linejoin:round;}
  </style>
 </defs>
 <g id="figure_1">
  <g id="patch_1">
   <path d="M 0 432 
L 432 432 
L 432 0 
L 0 0 
z
" style="fill:#ffffff;"/>
  </g>
  <g id="axes_1">
   <g id="patch_2">
    <path d="M 49.85 389.9 
L 351.908333 389.9 
L 351.908333 81.383333 
L 49.85 81.383333 
z
" style="fill:#ffffff;"/>
   </g>
   <g id="matplotlib.axis_1">
    <g id="xtick_1">
     <g id="line2d_1">
      <defs>
       <path d="M 0 0 
L 0 4.8 
" id="m2a5690ce12" style="stroke:#262626;"/>
      </defs>
      <g>
       <use style="fill:#262626;stroke:#262626;" x="55.021076" xlink:href="#m2a5690ce12" y="389.9"/>
      </g>
     </g>
     <g id="text_1">
      <!-- 7.5 -->
      <defs>
       <path d="M 8.203125 72.90625 
L 55.078125 72.90625 
L 55.078125 68.703125 
L 28.609375 0 
L 18.3125 0 
L 43.21875 64.59375 
L 8.203125 64.59375 
z
" id="DejaVuSans-37"/>
       <path d="M 10.6875 12.40625 
L 21 12.40625 
L 21 0 
L 10.6875 0 
z
" id="DejaVuSans-2e"/>
       <path d="M 10.796875 72.90625 
L 49.515625 72.90625 
L 49.515625 64.59375 
L 19.828125 64.59375 
L 19.828125 46.734375 
Q 21.96875 47.46875 24.109375 47.828125 
Q 26.265625 48.1875 28.421875 48.1875 
Q 40.625 48.1875 47.75 41.5 
Q 54.890625 34.8125 54.890625 23.390625 
Q 54.890625 11.625 47.5625 5.09375 
Q 40.234375 -1.421875 26.90625 -1.421875 
Q 22.3125 -1.421875 17.546875 -0.640625 
Q 12.796875 0.140625 7.71875 1.703125 
L 7.71875 11.625 
Q 12.109375 9.234375 16.796875 8.0625 
Q 21.484375 6.890625 26.703125 6.890625 
Q 35.15625 6.890625 40.078125 11.328125 
Q 45.015625 15.765625 45.015625 23.390625 
Q 45.015625 31 40.078125 35.4375 
Q 35.15625 39.890625 26.703125 39.890625 
Q 22.75 39.890625 18.8125 39.015625 
Q 14.890625 38.140625 10.796875 36.28125 
z
" id="DejaVuSans-35"/>
      </defs>
      <g style="fill:#262626;" transform="translate(48.023701 404.886625)scale(0.088 -0.088)">
       <use xlink:href="#DejaVuSans-37"/>
       <use x="63.623047" xlink:href="#DejaVuSans-2e"/>
       <use x="95.410156" xlink:href="#DejaVuSans-35"/>
      </g>
     </g>
    </g>
    <g id="xtick_2">
     <g id="line2d_2">
      <g>
       <use style="fill:#262626;stroke:#262626;" x="90.690071" xlink:href="#m2a5690ce12" y="389.9"/>
      </g>
     </g>
     <g id="text_2">
      <!-- 8.0 -->
      <defs>
       <path d="M 31.78125 34.625 
Q 24.75 34.625 20.71875 30.859375 
Q 16.703125 27.09375 16.703125 20.515625 
Q 16.703125 13.921875 20.71875 10.15625 
Q 24.75 6.390625 31.78125 6.390625 
Q 38.8125 6.390625 42.859375 10.171875 
Q 46.921875 13.96875 46.921875 20.515625 
Q 46.921875 27.09375 42.890625 30.859375 
Q 38.875 34.625 31.78125 34.625 
z
M 21.921875 38.8125 
Q 15.578125 40.375 12.03125 44.71875 
Q 8.5 49.078125 8.5 55.328125 
Q 8.5 64.0625 14.71875 69.140625 
Q 20.953125 74.21875 31.78125 74.21875 
Q 42.671875 74.21875 48.875 69.140625 
Q 55.078125 64.0625 55.078125 55.328125 
Q 55.078125 49.078125 51.53125 44.71875 
Q 48 40.375 41.703125 38.8125 
Q 48.828125 37.15625 52.796875 32.3125 
Q 56.78125 27.484375 56.78125 20.515625 
Q 56.78125 9.90625 50.3125 4.234375 
Q 43.84375 -1.421875 31.78125 -1.421875 
Q 19.734375 -1.421875 13.25 4.234375 
Q 6.78125 9.90625 6.78125 20.515625 
Q 6.78125 27.484375 10.78125 32.3125 
Q 14.796875 37.15625 21.921875 38.8125 
z
M 18.3125 54.390625 
Q 18.3125 48.734375 21.84375 45.5625 
Q 25.390625 42.390625 31.78125 42.390625 
Q 38.140625 42.390625 41.71875 45.5625 
Q 45.3125 48.734375 45.3125 54.390625 
Q 45.3125 60.0625 41.71875 63.234375 
Q 38.140625 66.40625 31.78125 66.40625 
Q 25.390625 66.40625 21.84375 63.234375 
Q 18.3125 60.0625 18.3125 54.390625 
z
" id="DejaVuSans-38"/>
       <path d="M 31.78125 66.40625 
Q 24.171875 66.40625 20.328125 58.90625 
Q 16.5 51.421875 16.5 36.375 
Q 16.5 21.390625 20.328125 13.890625 
Q 24.171875 6.390625 31.78125 6.390625 
Q 39.453125 6.390625 43.28125 13.890625 
Q 47.125 21.390625 47.125 36.375 
Q 47.125 51.421875 43.28125 58.90625 
Q 39.453125 66.40625 31.78125 66.40625 
z
M 31.78125 74.21875 
Q 44.046875 74.21875 50.515625 64.515625 
Q 56.984375 54.828125 56.984375 36.375 
Q 56.984375 17.96875 50.515625 8.265625 
Q 44.046875 -1.421875 31.78125 -1.421875 
Q 19.53125 -1.421875 13.0625 8.265625 
Q 6.59375 17.96875 6.59375 36.375 
Q 6.59375 54.828125 13.0625 64.515625 
Q 19.53125 74.21875 31.78125 74.21875 
z
" id="DejaVuSans-30"/>
      </defs>
      <g style="fill:#262626;" transform="translate(83.692696 404.886625)scale(0.088 -0.088)">
       <use xlink:href="#DejaVuSans-38"/>
       <use x="63.623047" xlink:href="#DejaVuSans-2e"/>
       <use x="95.410156" xlink:href="#DejaVuSans-30"/>
      </g>
     </g>
    </g>
    <g id="xtick_3">
     <g id="line2d_3">
      <g>
       <use style="fill:#262626;stroke:#262626;" x="126.359066" xlink:href="#m2a5690ce12" y="389.9"/>
      </g>
     </g>
     <g id="text_3">
      <!-- 8.5 -->
      <g style="fill:#262626;" transform="translate(119.361691 404.886625)scale(0.088 -0.088)">
       <use xlink:href="#DejaVuSans-38"/>
       <use x="63.623047" xlink:href="#DejaVuSans-2e"/>
       <use x="95.410156" xlink:href="#DejaVuSans-35"/>
      </g>
     </g>
    </g>
    <g id="xtick_4">
     <g id="line2d_4">
      <g>
       <use style="fill:#262626;stroke:#262626;" x="162.028062" xlink:href="#m2a5690ce12" y="389.9"/>
      </g>
     </g>
     <g id="text_4">
      <!-- 9.0 -->
      <defs>
       <path d="M 10.984375 1.515625 
L 10.984375 10.5 
Q 14.703125 8.734375 18.5 7.8125 
Q 22.3125 6.890625 25.984375 6.890625 
Q 35.75 6.890625 40.890625 13.453125 
Q 46.046875 20.015625 46.78125 33.40625 
Q 43.953125 29.203125 39.59375 26.953125 
Q 35.25 24.703125 29.984375 24.703125 
Q 19.046875 24.703125 12.671875 31.3125 
Q 6.296875 37.9375 6.296875 49.421875 
Q 6.296875 60.640625 12.9375 67.421875 
Q 19.578125 74.21875 30.609375 74.21875 
Q 43.265625 74.21875 49.921875 64.515625 
Q 56.59375 54.828125 56.59375 36.375 
Q 56.59375 19.140625 48.40625 8.859375 
Q 40.234375 -1.421875 26.421875 -1.421875 
Q 22.703125 -1.421875 18.890625 -0.6875 
Q 15.09375 0.046875 10.984375 1.515625 
z
M 30.609375 32.421875 
Q 37.25 32.421875 41.125 36.953125 
Q 45.015625 41.5 45.015625 49.421875 
Q 45.015625 57.28125 41.125 61.84375 
Q 37.25 66.40625 30.609375 66.40625 
Q 23.96875 66.40625 20.09375 61.84375 
Q 16.21875 57.28125 16.21875 49.421875 
Q 16.21875 41.5 20.09375 36.953125 
Q 23.96875 32.421875 30.609375 32.421875 
z
" id="DejaVuSans-39"/>
      </defs>
      <g style="fill:#262626;" transform="translate(155.030687 404.886625)scale(0.088 -0.088)">
       <use xlink:href="#DejaVuSans-39"/>
       <use x="63.623047" xlink:href="#DejaVuSans-2e"/>
       <use x="95.410156" xlink:href="#DejaVuSans-30"/>
      </g>
     </g>
    </g>
    <g id="xtick_5">
     <g id="line2d_5">
      <g>
       <use style="fill:#262626;stroke:#262626;" x="197.697057" xlink:href="#m2a5690ce12" y="389.9"/>
      </g>
     </g>
     <g id="text_5">
      <!-- 9.5 -->
      <g style="fill:#262626;" transform="translate(190.699682 404.886625)scale(0.088 -0.088)">
       <use xlink:href="#DejaVuSans-39"/>
       <use x="63.623047" xlink:href="#DejaVuSans-2e"/>
       <use x="95.410156" xlink:href="#DejaVuSans-35"/>
      </g>
     </g>
    </g>
    <g id="xtick_6">
     <g id="line2d_6">
      <g>
       <use style="fill:#262626;stroke:#262626;" x="233.366052" xlink:href="#m2a5690ce12" y="389.9"/>
      </g>
     </g>
     <g id="text_6">
      <!-- 10.0 -->
      <defs>
       <path d="M 12.40625 8.296875 
L 28.515625 8.296875 
L 28.515625 63.921875 
L 10.984375 60.40625 
L 10.984375 69.390625 
L 28.421875 72.90625 
L 38.28125 72.90625 
L 38.28125 8.296875 
L 54.390625 8.296875 
L 54.390625 0 
L 12.40625 0 
z
" id="DejaVuSans-31"/>
      </defs>
      <g style="fill:#262626;" transform="translate(223.569177 404.886625)scale(0.088 -0.088)">
       <use xlink:href="#DejaVuSans-31"/>
       <use x="63.623047" xlink:href="#DejaVuSans-30"/>
       <use x="127.246094" xlink:href="#DejaVuSans-2e"/>
       <use x="159.033203" xlink:href="#DejaVuSans-30"/>
      </g>
     </g>
    </g>
    <g id="xtick_7">
     <g id="line2d_7">
      <g>
       <use style="fill:#262626;stroke:#262626;" x="269.035047" xlink:href="#m2a5690ce12" y="389.9"/>
      </g>
     </g>
     <g id="text_7">
      <!-- 10.5 -->
      <g style="fill:#262626;" transform="translate(259.238172 404.886625)scale(0.088 -0.088)">
       <use xlink:href="#DejaVuSans-31"/>
       <use x="63.623047" xlink:href="#DejaVuSans-30"/>
       <use x="127.246094" xlink:href="#DejaVuSans-2e"/>
       <use x="159.033203" xlink:href="#DejaVuSans-35"/>
      </g>
     </g>
    </g>
    <g id="xtick_8">
     <g id="line2d_8">
      <g>
       <use style="fill:#262626;stroke:#262626;" x="304.704042" xlink:href="#m2a5690ce12" y="389.9"/>
      </g>
     </g>
     <g id="text_8">
      <!-- 11.0 -->
      <g style="fill:#262626;" transform="translate(294.907167 404.886625)scale(0.088 -0.088)">
       <use xlink:href="#DejaVuSans-31"/>
       <use x="63.623047" xlink:href="#DejaVuSans-31"/>
       <use x="127.246094" xlink:href="#DejaVuSans-2e"/>
       <use x="159.033203" xlink:href="#DejaVuSans-30"/>
      </g>
     </g>
    </g>
    <g id="xtick_9">
     <g id="line2d_9">
      <g>
       <use style="fill:#262626;stroke:#262626;" x="340.373038" xlink:href="#m2a5690ce12" y="389.9"/>
      </g>
     </g>
     <g id="text_9">
      <!-- 11.5 -->
      <g style="fill:#262626;" transform="translate(330.576163 404.886625)scale(0.088 -0.088)">
       <use xlink:href="#DejaVuSans-31"/>
       <use x="63.623047" xlink:href="#DejaVuSans-31"/>
       <use x="127.246094" xlink:href="#DejaVuSans-2e"/>
       <use x="159.033203" xlink:href="#DejaVuSans-35"/>
      </g>
     </g>
    </g>
    <g id="text_10">
     <!-- log(n) -->
     <defs>
      <path d="M 9.421875 75.984375 
L 18.40625 75.984375 
L 18.40625 0 
L 9.421875 0 
z
" id="DejaVuSans-6c"/>
      <path d="M 30.609375 48.390625 
Q 23.390625 48.390625 19.1875 42.75 
Q 14.984375 37.109375 14.984375 27.296875 
Q 14.984375 17.484375 19.15625 11.84375 
Q 23.34375 6.203125 30.609375 6.203125 
Q 37.796875 6.203125 41.984375 11.859375 
Q 46.1875 17.53125 46.1875 27.296875 
Q 46.1875 37.015625 41.984375 42.703125 
Q 37.796875 48.390625 30.609375 48.390625 
z
M 30.609375 56 
Q 42.328125 56 49.015625 48.375 
Q 55.71875 40.765625 55.71875 27.296875 
Q 55.71875 13.875 49.015625 6.21875 
Q 42.328125 -1.421875 30.609375 -1.421875 
Q 18.84375 -1.421875 12.171875 6.21875 
Q 5.515625 13.875 5.515625 27.296875 
Q 5.515625 40.765625 12.171875 48.375 
Q 18.84375 56 30.609375 56 
z
" id="DejaVuSans-6f"/>
      <path d="M 45.40625 27.984375 
Q 45.40625 37.75 41.375 43.109375 
Q 37.359375 48.484375 30.078125 48.484375 
Q 22.859375 48.484375 18.828125 43.109375 
Q 14.796875 37.75 14.796875 27.984375 
Q 14.796875 18.265625 18.828125 12.890625 
Q 22.859375 7.515625 30.078125 7.515625 
Q 37.359375 7.515625 41.375 12.890625 
Q 45.40625 18.265625 45.40625 27.984375 
z
M 54.390625 6.78125 
Q 54.390625 -7.171875 48.1875 -13.984375 
Q 42 -20.796875 29.203125 -20.796875 
Q 24.46875 -20.796875 20.265625 -20.09375 
Q 16.0625 -19.390625 12.109375 -17.921875 
L 12.109375 -9.1875 
Q 16.0625 -11.328125 19.921875 -12.34375 
Q 23.78125 -13.375 27.78125 -13.375 
Q 36.625 -13.375 41.015625 -8.765625 
Q 45.40625 -4.15625 45.40625 5.171875 
L 45.40625 9.625 
Q 42.625 4.78125 38.28125 2.390625 
Q 33.9375 0 27.875 0 
Q 17.828125 0 11.671875 7.65625 
Q 5.515625 15.328125 5.515625 27.984375 
Q 5.515625 40.671875 11.671875 48.328125 
Q 17.828125 56 27.875 56 
Q 33.9375 56 38.28125 53.609375 
Q 42.625 51.21875 45.40625 46.390625 
L 45.40625 54.6875 
L 54.390625 54.6875 
z
" id="DejaVuSans-67"/>
      <path d="M 31 75.875 
Q 24.46875 64.65625 21.28125 53.65625 
Q 18.109375 42.671875 18.109375 31.390625 
Q 18.109375 20.125 21.3125 9.0625 
Q 24.515625 -2 31 -13.1875 
L 23.1875 -13.1875 
Q 15.875 -1.703125 12.234375 9.375 
Q 8.59375 20.453125 8.59375 31.390625 
Q 8.59375 42.28125 12.203125 53.3125 
Q 15.828125 64.359375 23.1875 75.875 
z
" id="DejaVuSans-28"/>
      <path d="M 54.890625 33.015625 
L 54.890625 0 
L 45.90625 0 
L 45.90625 32.71875 
Q 45.90625 40.484375 42.875 44.328125 
Q 39.84375 48.1875 33.796875 48.1875 
Q 26.515625 48.1875 22.3125 43.546875 
Q 18.109375 38.921875 18.109375 30.90625 
L 18.109375 0 
L 9.078125 0 
L 9.078125 54.6875 
L 18.109375 54.6875 
L 18.109375 46.1875 
Q 21.34375 51.125 25.703125 53.5625 
Q 30.078125 56 35.796875 56 
Q 45.21875 56 50.046875 50.171875 
Q 54.890625 44.34375 54.890625 33.015625 
z
" id="DejaVuSans-6e"/>
      <path d="M 8.015625 75.875 
L 15.828125 75.875 
Q 23.140625 64.359375 26.78125 53.3125 
Q 30.421875 42.28125 30.421875 31.390625 
Q 30.421875 20.453125 26.78125 9.375 
Q 23.140625 -1.703125 15.828125 -13.1875 
L 8.015625 -13.1875 
Q 14.5 -2 17.703125 9.0625 
Q 20.90625 20.125 20.90625 31.390625 
Q 20.90625 42.671875 17.703125 53.65625 
Q 14.5 64.65625 8.015625 75.875 
z
" id="DejaVuSans-29"/>
     </defs>
     <g style="fill:#262626;" transform="translate(186.773917 418.01125)scale(0.096 -0.096)">
      <use xlink:href="#DejaVuSans-6c"/>
      <use x="27.783203" xlink:href="#DejaVuSans-6f"/>
      <use x="88.964844" xlink:href="#DejaVuSans-67"/>
      <use x="152.441406" xlink:href="#DejaVuSans-28"/>
      <use x="191.455078" xlink:href="#DejaVuSans-6e"/>
      <use x="254.833984" xlink:href="#DejaVuSans-29"/>
     </g>
    </g>
   </g>
   <g id="matplotlib.axis_2">
    <g id="ytick_1">
     <g id="line2d_10">
      <defs>
       <path d="M 0 0 
L -4.8 0 
" id="ma7ced57c2f" style="stroke:#262626;"/>
      </defs>
      <g>
       <use style="fill:#262626;stroke:#262626;" x="49.85" xlink:href="#ma7ced57c2f" y="389.9"/>
      </g>
     </g>
     <g id="text_11">
      <!-- 0 -->
      <g style="fill:#262626;" transform="translate(35.951 393.243313)scale(0.088 -0.088)">
       <use xlink:href="#DejaVuSans-30"/>
      </g>
     </g>
    </g>
    <g id="ytick_2">
     <g id="line2d_11">
      <g>
       <use style="fill:#262626;stroke:#262626;" x="49.85" xlink:href="#ma7ced57c2f" y="333.806061"/>
      </g>
     </g>
     <g id="text_12">
      <!-- 20 -->
      <defs>
       <path d="M 19.1875 8.296875 
L 53.609375 8.296875 
L 53.609375 0 
L 7.328125 0 
L 7.328125 8.296875 
Q 12.9375 14.109375 22.625 23.890625 
Q 32.328125 33.6875 34.8125 36.53125 
Q 39.546875 41.84375 41.421875 45.53125 
Q 43.3125 49.21875 43.3125 52.78125 
Q 43.3125 58.59375 39.234375 62.25 
Q 35.15625 65.921875 28.609375 65.921875 
Q 23.96875 65.921875 18.8125 64.3125 
Q 13.671875 62.703125 7.8125 59.421875 
L 7.8125 69.390625 
Q 13.765625 71.78125 18.9375 73 
Q 24.125 74.21875 28.421875 74.21875 
Q 39.75 74.21875 46.484375 68.546875 
Q 53.21875 62.890625 53.21875 53.421875 
Q 53.21875 48.921875 51.53125 44.890625 
Q 49.859375 40.875 45.40625 35.40625 
Q 44.1875 33.984375 37.640625 27.21875 
Q 31.109375 20.453125 19.1875 8.296875 
z
" id="DejaVuSans-32"/>
      </defs>
      <g style="fill:#262626;" transform="translate(30.352 337.149373)scale(0.088 -0.088)">
       <use xlink:href="#DejaVuSans-32"/>
       <use x="63.623047" xlink:href="#DejaVuSans-30"/>
      </g>
     </g>
    </g>
    <g id="ytick_3">
     <g id="line2d_12">
      <g>
       <use style="fill:#262626;stroke:#262626;" x="49.85" xlink:href="#ma7ced57c2f" y="277.712121"/>
      </g>
     </g>
     <g id="text_13">
      <!-- 40 -->
      <defs>
       <path d="M 37.796875 64.3125 
L 12.890625 25.390625 
L 37.796875 25.390625 
z
M 35.203125 72.90625 
L 47.609375 72.90625 
L 47.609375 25.390625 
L 58.015625 25.390625 
L 58.015625 17.1875 
L 47.609375 17.1875 
L 47.609375 0 
L 37.796875 0 
L 37.796875 17.1875 
L 4.890625 17.1875 
L 4.890625 26.703125 
z
" id="DejaVuSans-34"/>
      </defs>
      <g style="fill:#262626;" transform="translate(30.352 281.055434)scale(0.088 -0.088)">
       <use xlink:href="#DejaVuSans-34"/>
       <use x="63.623047" xlink:href="#DejaVuSans-30"/>
      </g>
     </g>
    </g>
    <g id="ytick_4">
     <g id="line2d_13">
      <g>
       <use style="fill:#262626;stroke:#262626;" x="49.85" xlink:href="#ma7ced57c2f" y="221.618182"/>
      </g>
     </g>
     <g id="text_14">
      <!-- 60 -->
      <defs>
       <path d="M 33.015625 40.375 
Q 26.375 40.375 22.484375 35.828125 
Q 18.609375 31.296875 18.609375 23.390625 
Q 18.609375 15.53125 22.484375 10.953125 
Q 26.375 6.390625 33.015625 6.390625 
Q 39.65625 6.390625 43.53125 10.953125 
Q 47.40625 15.53125 47.40625 23.390625 
Q 47.40625 31.296875 43.53125 35.828125 
Q 39.65625 40.375 33.015625 40.375 
z
M 52.59375 71.296875 
L 52.59375 62.3125 
Q 48.875 64.0625 45.09375 64.984375 
Q 41.3125 65.921875 37.59375 65.921875 
Q 27.828125 65.921875 22.671875 59.328125 
Q 17.53125 52.734375 16.796875 39.40625 
Q 19.671875 43.65625 24.015625 45.921875 
Q 28.375 48.1875 33.59375 48.1875 
Q 44.578125 48.1875 50.953125 41.515625 
Q 57.328125 34.859375 57.328125 23.390625 
Q 57.328125 12.15625 50.6875 5.359375 
Q 44.046875 -1.421875 33.015625 -1.421875 
Q 20.359375 -1.421875 13.671875 8.265625 
Q 6.984375 17.96875 6.984375 36.375 
Q 6.984375 53.65625 15.1875 63.9375 
Q 23.390625 74.21875 37.203125 74.21875 
Q 40.921875 74.21875 44.703125 73.484375 
Q 48.484375 72.75 52.59375 71.296875 
z
" id="DejaVuSans-36"/>
      </defs>
      <g style="fill:#262626;" transform="translate(30.352 224.961494)scale(0.088 -0.088)">
       <use xlink:href="#DejaVuSans-36"/>
       <use x="63.623047" xlink:href="#DejaVuSans-30"/>
      </g>
     </g>
    </g>
    <g id="ytick_5">
     <g id="line2d_14">
      <g>
       <use style="fill:#262626;stroke:#262626;" x="49.85" xlink:href="#ma7ced57c2f" y="165.524242"/>
      </g>
     </g>
     <g id="text_15">
      <!-- 80 -->
      <g style="fill:#262626;" transform="translate(30.352 168.867555)scale(0.088 -0.088)">
       <use xlink:href="#DejaVuSans-38"/>
       <use x="63.623047" xlink:href="#DejaVuSans-30"/>
      </g>
     </g>
    </g>
    <g id="ytick_6">
     <g id="line2d_15">
      <g>
       <use style="fill:#262626;stroke:#262626;" x="49.85" xlink:href="#ma7ced57c2f" y="109.430303"/>
      </g>
     </g>
     <g id="text_16">
      <!-- 100 -->
      <g style="fill:#262626;" transform="translate(24.753 112.773616)scale(0.088 -0.088)">
       <use xlink:href="#DejaVuSans-31"/>
       <use x="63.623047" xlink:href="#DejaVuSans-30"/>
       <use x="127.246094" xlink:href="#DejaVuSans-30"/>
      </g>
     </g>
    </g>
    <g id="text_17">
     <!-- Time to cancer -->
     <defs>
      <path d="M -0.296875 72.90625 
L 61.375 72.90625 
L 61.375 64.59375 
L 35.5 64.59375 
L 35.5 0 
L 25.59375 0 
L 25.59375 64.59375 
L -0.296875 64.59375 
z
" id="DejaVuSans-54"/>
      <path d="M 9.421875 54.6875 
L 18.40625 54.6875 
L 18.40625 0 
L 9.421875 0 
z
M 9.421875 75.984375 
L 18.40625 75.984375 
L 18.40625 64.59375 
L 9.421875 64.59375 
z
" id="DejaVuSans-69"/>
      <path d="M 52 44.1875 
Q 55.375 50.25 60.0625 53.125 
Q 64.75 56 71.09375 56 
Q 79.640625 56 84.28125 50.015625 
Q 88.921875 44.046875 88.921875 33.015625 
L 88.921875 0 
L 79.890625 0 
L 79.890625 32.71875 
Q 79.890625 40.578125 77.09375 44.375 
Q 74.3125 48.1875 68.609375 48.1875 
Q 61.625 48.1875 57.5625 43.546875 
Q 53.515625 38.921875 53.515625 30.90625 
L 53.515625 0 
L 44.484375 0 
L 44.484375 32.71875 
Q 44.484375 40.625 41.703125 44.40625 
Q 38.921875 48.1875 33.109375 48.1875 
Q 26.21875 48.1875 22.15625 43.53125 
Q 18.109375 38.875 18.109375 30.90625 
L 18.109375 0 
L 9.078125 0 
L 9.078125 54.6875 
L 18.109375 54.6875 
L 18.109375 46.1875 
Q 21.1875 51.21875 25.484375 53.609375 
Q 29.78125 56 35.6875 56 
Q 41.65625 56 45.828125 52.96875 
Q 50 49.953125 52 44.1875 
z
" id="DejaVuSans-6d"/>
      <path d="M 56.203125 29.59375 
L 56.203125 25.203125 
L 14.890625 25.203125 
Q 15.484375 15.921875 20.484375 11.0625 
Q 25.484375 6.203125 34.421875 6.203125 
Q 39.59375 6.203125 44.453125 7.46875 
Q 49.3125 8.734375 54.109375 11.28125 
L 54.109375 2.78125 
Q 49.265625 0.734375 44.1875 -0.34375 
Q 39.109375 -1.421875 33.890625 -1.421875 
Q 20.796875 -1.421875 13.15625 6.1875 
Q 5.515625 13.8125 5.515625 26.8125 
Q 5.515625 40.234375 12.765625 48.109375 
Q 20.015625 56 32.328125 56 
Q 43.359375 56 49.78125 48.890625 
Q 56.203125 41.796875 56.203125 29.59375 
z
M 47.21875 32.234375 
Q 47.125 39.59375 43.09375 43.984375 
Q 39.0625 48.390625 32.421875 48.390625 
Q 24.90625 48.390625 20.390625 44.140625 
Q 15.875 39.890625 15.1875 32.171875 
z
" id="DejaVuSans-65"/>
      <path id="DejaVuSans-20"/>
      <path d="M 18.3125 70.21875 
L 18.3125 54.6875 
L 36.8125 54.6875 
L 36.8125 47.703125 
L 18.3125 47.703125 
L 18.3125 18.015625 
Q 18.3125 11.328125 20.140625 9.421875 
Q 21.96875 7.515625 27.59375 7.515625 
L 36.8125 7.515625 
L 36.8125 0 
L 27.59375 0 
Q 17.1875 0 13.234375 3.875 
Q 9.28125 7.765625 9.28125 18.015625 
L 9.28125 47.703125 
L 2.6875 47.703125 
L 2.6875 54.6875 
L 9.28125 54.6875 
L 9.28125 70.21875 
z
" id="DejaVuSans-74"/>
      <path d="M 48.78125 52.59375 
L 48.78125 44.1875 
Q 44.96875 46.296875 41.140625 47.34375 
Q 37.3125 48.390625 33.40625 48.390625 
Q 24.65625 48.390625 19.8125 42.84375 
Q 14.984375 37.3125 14.984375 27.296875 
Q 14.984375 17.28125 19.8125 11.734375 
Q 24.65625 6.203125 33.40625 6.203125 
Q 37.3125 6.203125 41.140625 7.25 
Q 44.96875 8.296875 48.78125 10.40625 
L 48.78125 2.09375 
Q 45.015625 0.34375 40.984375 -0.53125 
Q 36.96875 -1.421875 32.421875 -1.421875 
Q 20.0625 -1.421875 12.78125 6.34375 
Q 5.515625 14.109375 5.515625 27.296875 
Q 5.515625 40.671875 12.859375 48.328125 
Q 20.21875 56 33.015625 56 
Q 37.15625 56 41.109375 55.140625 
Q 45.0625 54.296875 48.78125 52.59375 
z
" id="DejaVuSans-63"/>
      <path d="M 34.28125 27.484375 
Q 23.390625 27.484375 19.1875 25 
Q 14.984375 22.515625 14.984375 16.5 
Q 14.984375 11.71875 18.140625 8.90625 
Q 21.296875 6.109375 26.703125 6.109375 
Q 34.1875 6.109375 38.703125 11.40625 
Q 43.21875 16.703125 43.21875 25.484375 
L 43.21875 27.484375 
z
M 52.203125 31.203125 
L 52.203125 0 
L 43.21875 0 
L 43.21875 8.296875 
Q 40.140625 3.328125 35.546875 0.953125 
Q 30.953125 -1.421875 24.3125 -1.421875 
Q 15.921875 -1.421875 10.953125 3.296875 
Q 6 8.015625 6 15.921875 
Q 6 25.140625 12.171875 29.828125 
Q 18.359375 34.515625 30.609375 34.515625 
L 43.21875 34.515625 
L 43.21875 35.40625 
Q 43.21875 41.609375 39.140625 45 
Q 35.0625 48.390625 27.6875 48.390625 
Q 23 48.390625 18.546875 47.265625 
Q 14.109375 46.140625 10.015625 43.890625 
L 10.015625 52.203125 
Q 14.9375 54.109375 19.578125 55.046875 
Q 24.21875 56 28.609375 56 
Q 40.484375 56 46.34375 49.84375 
Q 52.203125 43.703125 52.203125 31.203125 
z
" id="DejaVuSans-61"/>
      <path d="M 41.109375 46.296875 
Q 39.59375 47.171875 37.8125 47.578125 
Q 36.03125 48 33.890625 48 
Q 26.265625 48 22.1875 43.046875 
Q 18.109375 38.09375 18.109375 28.8125 
L 18.109375 0 
L 9.078125 0 
L 9.078125 54.6875 
L 18.109375 54.6875 
L 18.109375 46.1875 
Q 20.953125 51.171875 25.484375 53.578125 
Q 30.03125 56 36.53125 56 
Q 37.453125 56 38.578125 55.875 
Q 39.703125 55.765625 41.0625 55.515625 
z
" id="DejaVuSans-72"/>
     </defs>
     <g style="fill:#262626;" transform="translate(18.7565 271.592167)rotate(-90)scale(0.096 -0.096)">
      <use xlink:href="#DejaVuSans-54"/>
      <use x="61.037109" xlink:href="#DejaVuSans-69"/>
      <use x="88.820312" xlink:href="#DejaVuSans-6d"/>
      <use x="186.232422" xlink:href="#DejaVuSans-65"/>
      <use x="247.755859" xlink:href="#DejaVuSans-20"/>
      <use x="279.542969" xlink:href="#DejaVuSans-74"/>
      <use x="318.751953" xlink:href="#DejaVuSans-6f"/>
      <use x="379.933594" xlink:href="#DejaVuSans-20"/>
      <use x="411.720703" xlink:href="#DejaVuSans-63"/>
      <use x="466.701172" xlink:href="#DejaVuSans-61"/>
      <use x="527.980469" xlink:href="#DejaVuSans-6e"/>
      <use x="591.359375" xlink:href="#DejaVuSans-63"/>
      <use x="646.339844" xlink:href="#DejaVuSans-65"/>
      <use x="707.863281" xlink:href="#DejaVuSans-72"/>
     </g>
    </g>
   </g>
   <g id="PathCollection_1">
    <defs>
     <path d="M 0 2.4 
C 0.636487 2.4 1.246992 2.147121 1.697056 1.697056 
C 2.147121 1.246992 2.4 0.636487 2.4 0 
C 2.4 -0.636487 2.147121 -1.246992 1.697056 -1.697056 
C 1.246992 -2.147121 0.636487 -2.4 0 -2.4 
C -0.636487 -2.4 -1.246992 -2.147121 -1.697056 -1.697056 
C -2.147121 -1.246992 -2.4 -0.636487 -2.4 0 
C -2.4 0.636487 -2.147121 1.246992 -1.697056 1.697056 
C -1.246992 2.147121 -0.636487 2.4 0 2.4 
z
" id="m5c54d37846" style="stroke:#471365;stroke-opacity:0.8;"/>
    </defs>
    <g clip-path="url(#p8dede05a0a)">
     <use style="fill:#471365;fill-opacity:0.8;stroke:#471365;stroke-opacity:0.8;" x="284.880125" xlink:href="#m5c54d37846" y="366.540332"/>
     <use style="fill:#471365;fill-opacity:0.8;stroke:#471365;stroke-opacity:0.8;" x="233.282856" xlink:href="#m5c54d37846" y="365.764238"/>
     <use style="fill:#471365;fill-opacity:0.8;stroke:#471365;stroke-opacity:0.8;" x="154.42589" xlink:href="#m5c54d37846" y="368.169362"/>
     <use style="fill:#471365;fill-opacity:0.8;stroke:#471365;stroke-opacity:0.8;" x="259.225595" xlink:href="#m5c54d37846" y="367.193481"/>
     <use style="fill:#471365;fill-opacity:0.8;stroke:#471365;stroke-opacity:0.8;" x="270.570605" xlink:href="#m5c54d37846" y="364.55015"/>
     <use style="fill:#471365;fill-opacity:0.8;stroke:#471365;stroke-opacity:0.8;" x="290.776145" xlink:href="#m5c54d37846" y="368.276939"/>
     <use style="fill:#471365;fill-opacity:0.8;stroke:#471365;stroke-opacity:0.8;" x="253.054653" xlink:href="#m5c54d37846" y="315.948209"/>
     <use style="fill:#471365;fill-opacity:0.8;stroke:#471365;stroke-opacity:0.8;" x="269.489526" xlink:href="#m5c54d37846" y="354.314927"/>
     <use style="fill:#471365;fill-opacity:0.8;stroke:#471365;stroke-opacity:0.8;" x="281.498363" xlink:href="#m5c54d37846" y="366.924537"/>
     <use style="fill:#471365;fill-opacity:0.8;stroke:#471365;stroke-opacity:0.8;" x="275.490414" xlink:href="#m5c54d37846" y="367.546949"/>
     <use style="fill:#471365;fill-opacity:0.8;stroke:#471365;stroke-opacity:0.8;" x="284.852221" xlink:href="#m5c54d37846" y="358.379817"/>
     <use style="fill:#471365;fill-opacity:0.8;stroke:#471365;stroke-opacity:0.8;" x="264.501172" xlink:href="#m5c54d37846" y="367.462424"/>
     <use style="fill:#471365;fill-opacity:0.8;stroke:#471365;stroke-opacity:0.8;" x="268.227891" xlink:href="#m5c54d37846" y="362.667545"/>
     <use style="fill:#471365;fill-opacity:0.8;stroke:#471365;stroke-opacity:0.8;" x="292.094551" xlink:href="#m5c54d37846" y="352.201799"/>
     <use style="fill:#471365;fill-opacity:0.8;stroke:#471365;stroke-opacity:0.8;" x="272.114415" xlink:href="#m5c54d37846" y="362.590704"/>
     <use style="fill:#471365;fill-opacity:0.8;stroke:#471365;stroke-opacity:0.8;" x="284.19026" xlink:href="#m5c54d37846" y="367.477792"/>
     <use style="fill:#471365;fill-opacity:0.8;stroke:#471365;stroke-opacity:0.8;" x="270.686989" xlink:href="#m5c54d37846" y="353.561885"/>
     <use style="fill:#471365;fill-opacity:0.8;stroke:#471365;stroke-opacity:0.8;" x="246.656219" xlink:href="#m5c54d37846" y="364.726884"/>
     <use style="fill:#471365;fill-opacity:0.8;stroke:#471365;stroke-opacity:0.8;" x="177.709443" xlink:href="#m5c54d37846" y="361.868399"/>
     <use style="fill:#471365;fill-opacity:0.8;stroke:#471365;stroke-opacity:0.8;" x="290.092321" xlink:href="#m5c54d37846" y="361.438089"/>
     <use style="fill:#471365;fill-opacity:0.8;stroke:#471365;stroke-opacity:0.8;" x="261.124732" xlink:href="#m5c54d37846" y="366.863064"/>
     <use style="fill:#471365;fill-opacity:0.8;stroke:#471365;stroke-opacity:0.8;" x="292.110602" xlink:href="#m5c54d37846" y="337.924739"/>
     <use style="fill:#471365;fill-opacity:0.8;stroke:#471365;stroke-opacity:0.8;" x="271.033535" xlink:href="#m5c54d37846" y="363.466692"/>
     <use style="fill:#471365;fill-opacity:0.8;stroke:#471365;stroke-opacity:0.8;" x="212.342963" xlink:href="#m5c54d37846" y="356.712367"/>
     <use style="fill:#471365;fill-opacity:0.8;stroke:#471365;stroke-opacity:0.8;" x="291.78147" xlink:href="#m5c54d37846" y="354.852814"/>
     <use style="fill:#471365;fill-opacity:0.8;stroke:#471365;stroke-opacity:0.8;" x="197.437711" xlink:href="#m5c54d37846" y="367.308742"/>
     <use style="fill:#471365;fill-opacity:0.8;stroke:#471365;stroke-opacity:0.8;" x="286.962253" xlink:href="#m5c54d37846" y="356.635526"/>
     <use style="fill:#471365;fill-opacity:0.8;stroke:#471365;stroke-opacity:0.8;" x="286.002145" xlink:href="#m5c54d37846" y="363.459007"/>
     <use style="fill:#471365;fill-opacity:0.8;stroke:#471365;stroke-opacity:0.8;" x="288.788744" xlink:href="#m5c54d37846" y="346.07757"/>
     <use style="fill:#471365;fill-opacity:0.8;stroke:#471365;stroke-opacity:0.8;" x="286.352642" xlink:href="#m5c54d37846" y="338.685465"/>
     <use style="fill:#471365;fill-opacity:0.8;stroke:#471365;stroke-opacity:0.8;" x="292.416575" xlink:href="#m5c54d37846" y="358.664128"/>
     <use style="fill:#471365;fill-opacity:0.8;stroke:#471365;stroke-opacity:0.8;" x="247.217753" xlink:href="#m5c54d37846" y="360.592838"/>
     <use style="fill:#471365;fill-opacity:0.8;stroke:#471365;stroke-opacity:0.8;" x="293.652052" xlink:href="#m5c54d37846" y="363.95079"/>
     <use style="fill:#471365;fill-opacity:0.8;stroke:#471365;stroke-opacity:0.8;" x="266.456015" xlink:href="#m5c54d37846" y="353.262205"/>
     <use style="fill:#471365;fill-opacity:0.8;stroke:#471365;stroke-opacity:0.8;" x="250.36188" xlink:href="#m5c54d37846" y="362.383233"/>
     <use style="fill:#471365;fill-opacity:0.8;stroke:#471365;stroke-opacity:0.8;" x="281.624145" xlink:href="#m5c54d37846" y="364.988144"/>
     <use style="fill:#471365;fill-opacity:0.8;stroke:#471365;stroke-opacity:0.8;" x="275.98447" xlink:href="#m5c54d37846" y="353.446623"/>
     <use style="fill:#471365;fill-opacity:0.8;stroke:#471365;stroke-opacity:0.8;" x="261.647522" xlink:href="#m5c54d37846" y="358.333712"/>
     <use style="fill:#471365;fill-opacity:0.8;stroke:#471365;stroke-opacity:0.8;" x="286.789" xlink:href="#m5c54d37846" y="352.701266"/>
     <use style="fill:#471365;fill-opacity:0.8;stroke:#471365;stroke-opacity:0.8;" x="284.252601" xlink:href="#m5c54d37846" y="365.818027"/>
     <use style="fill:#471365;fill-opacity:0.8;stroke:#471365;stroke-opacity:0.8;" x="290.425062" xlink:href="#m5c54d37846" y="368.753353"/>
     <use style="fill:#471365;fill-opacity:0.8;stroke:#471365;stroke-opacity:0.8;" x="281.410394" xlink:href="#m5c54d37846" y="360.692731"/>
     <use style="fill:#471365;fill-opacity:0.8;stroke:#471365;stroke-opacity:0.8;" x="263.439466" xlink:href="#m5c54d37846" y="363.489744"/>
     <use style="fill:#471365;fill-opacity:0.8;stroke:#471365;stroke-opacity:0.8;" x="272.403184" xlink:href="#m5c54d37846" y="357.134992"/>
     <use style="fill:#471365;fill-opacity:0.8;stroke:#471365;stroke-opacity:0.8;" x="218.762965" xlink:href="#m5c54d37846" y="359.801375"/>
     <use style="fill:#471365;fill-opacity:0.8;stroke:#471365;stroke-opacity:0.8;" x="240.165973" xlink:href="#m5c54d37846" y="355.452174"/>
     <use style="fill:#471365;fill-opacity:0.8;stroke:#471365;stroke-opacity:0.8;" x="246.718877" xlink:href="#m5c54d37846" y="358.825494"/>
     <use style="fill:#471365;fill-opacity:0.8;stroke:#471365;stroke-opacity:0.8;" x="284.017829" xlink:href="#m5c54d37846" y="365.741186"/>
     <use style="fill:#471365;fill-opacity:0.8;stroke:#471365;stroke-opacity:0.8;" x="258.806699" xlink:href="#m5c54d37846" y="341.244271"/>
     <use style="fill:#471365;fill-opacity:0.8;stroke:#471365;stroke-opacity:0.8;" x="271.917011" xlink:href="#m5c54d37846" y="345.885468"/>
     <use style="fill:#471365;fill-opacity:0.8;stroke:#471365;stroke-opacity:0.8;" x="242.115799" xlink:href="#m5c54d37846" y="361.123041"/>
     <use style="fill:#471365;fill-opacity:0.8;stroke:#471365;stroke-opacity:0.8;" x="288.08982" xlink:href="#m5c54d37846" y="370.221017"/>
     <use style="fill:#471365;fill-opacity:0.8;stroke:#471365;stroke-opacity:0.8;" x="285.685147" xlink:href="#m5c54d37846" y="357.019731"/>
     <use style="fill:#471365;fill-opacity:0.8;stroke:#471365;stroke-opacity:0.8;" x="289.520052" xlink:href="#m5c54d37846" y="354.030615"/>
     <use style="fill:#471365;fill-opacity:0.8;stroke:#471365;stroke-opacity:0.8;" x="294.470292" xlink:href="#m5c54d37846" y="359.194331"/>
     <use style="fill:#471365;fill-opacity:0.8;stroke:#471365;stroke-opacity:0.8;" x="250.371485" xlink:href="#m5c54d37846" y="363.743319"/>
     <use style="fill:#471365;fill-opacity:0.8;stroke:#471365;stroke-opacity:0.8;" x="286.496474" xlink:href="#m5c54d37846" y="361.768505"/>
     <use style="fill:#471365;fill-opacity:0.8;stroke:#471365;stroke-opacity:0.8;" x="282.318581" xlink:href="#m5c54d37846" y="363.382166"/>
     <use style="fill:#471365;fill-opacity:0.8;stroke:#471365;stroke-opacity:0.8;" x="272.625917" xlink:href="#m5c54d37846" y="358.64876"/>
     <use style="fill:#471365;fill-opacity:0.8;stroke:#471365;stroke-opacity:0.8;" x="200.018794" xlink:href="#m5c54d37846" y="350.250037"/>
     <use style="fill:#471365;fill-opacity:0.8;stroke:#471365;stroke-opacity:0.8;" x="240.013828" xlink:href="#m5c54d37846" y="359.494011"/>
     <use style="fill:#471365;fill-opacity:0.8;stroke:#471365;stroke-opacity:0.8;" x="176.860577" xlink:href="#m5c54d37846" y="334.512998"/>
     <use style="fill:#471365;fill-opacity:0.8;stroke:#471365;stroke-opacity:0.8;" x="228.575469" xlink:href="#m5c54d37846" y="363.251537"/>
     <use style="fill:#471365;fill-opacity:0.8;stroke:#471365;stroke-opacity:0.8;" x="265.960002" xlink:href="#m5c54d37846" y="361.768505"/>
     <use style="fill:#471365;fill-opacity:0.8;stroke:#471365;stroke-opacity:0.8;" x="275.798646" xlink:href="#m5c54d37846" y="357.227201"/>
     <use style="fill:#471365;fill-opacity:0.8;stroke:#471365;stroke-opacity:0.8;" x="240.357503" xlink:href="#m5c54d37846" y="360.01653"/>
     <use style="fill:#471365;fill-opacity:0.8;stroke:#471365;stroke-opacity:0.8;" x="277.738101" xlink:href="#m5c54d37846" y="357.127308"/>
     <use style="fill:#471365;fill-opacity:0.8;stroke:#471365;stroke-opacity:0.8;" x="235.509343" xlink:href="#m5c54d37846" y="366.125391"/>
     <use style="fill:#471365;fill-opacity:0.8;stroke:#471365;stroke-opacity:0.8;" x="294.269021" xlink:href="#m5c54d37846" y="362.214183"/>
     <use style="fill:#471365;fill-opacity:0.8;stroke:#471365;stroke-opacity:0.8;" x="251.093971" xlink:href="#m5c54d37846" y="358.034032"/>
     <use style="fill:#471365;fill-opacity:0.8;stroke:#471365;stroke-opacity:0.8;" x="241.937569" xlink:href="#m5c54d37846" y="336.33413"/>
     <use style="fill:#471365;fill-opacity:0.8;stroke:#471365;stroke-opacity:0.8;" x="283.419777" xlink:href="#m5c54d37846" y="358.787074"/>
     <use style="fill:#471365;fill-opacity:0.8;stroke:#471365;stroke-opacity:0.8;" x="292.154053" xlink:href="#m5c54d37846" y="366.002445"/>
     <use style="fill:#471365;fill-opacity:0.8;stroke:#471365;stroke-opacity:0.8;" x="267.891304" xlink:href="#m5c54d37846" y="365.687397"/>
     <use style="fill:#471365;fill-opacity:0.8;stroke:#471365;stroke-opacity:0.8;" x="279.722715" xlink:href="#m5c54d37846" y="363.474376"/>
     <use style="fill:#471365;fill-opacity:0.8;stroke:#471365;stroke-opacity:0.8;" x="284.797554" xlink:href="#m5c54d37846" y="364.035315"/>
     <use style="fill:#471365;fill-opacity:0.8;stroke:#471365;stroke-opacity:0.8;" x="289.327567" xlink:href="#m5c54d37846" y="360.861781"/>
     <use style="fill:#471365;fill-opacity:0.8;stroke:#471365;stroke-opacity:0.8;" x="294.352232" xlink:href="#m5c54d37846" y="358.587287"/>
     <use style="fill:#471365;fill-opacity:0.8;stroke:#471365;stroke-opacity:0.8;" x="269.287912" xlink:href="#m5c54d37846" y="244.731958"/>
     <use style="fill:#471365;fill-opacity:0.8;stroke:#471365;stroke-opacity:0.8;" x="292.001183" xlink:href="#m5c54d37846" y="369.759971"/>
     <use style="fill:#471365;fill-opacity:0.8;stroke:#471365;stroke-opacity:0.8;" x="285.597615" xlink:href="#m5c54d37846" y="360.193264"/>
     <use style="fill:#471365;fill-opacity:0.8;stroke:#471365;stroke-opacity:0.8;" x="258.844855" xlink:href="#m5c54d37846" y="354.97576"/>
     <use style="fill:#471365;fill-opacity:0.8;stroke:#471365;stroke-opacity:0.8;" x="265.442415" xlink:href="#m5c54d37846" y="360.815677"/>
     <use style="fill:#471365;fill-opacity:0.8;stroke:#471365;stroke-opacity:0.8;" x="293.693993" xlink:href="#m5c54d37846" y="367.147376"/>
     <use style="fill:#471365;fill-opacity:0.8;stroke:#471365;stroke-opacity:0.8;" x="289.916908" xlink:href="#m5c54d37846" y="360.124108"/>
     <use style="fill:#471365;fill-opacity:0.8;stroke:#471365;stroke-opacity:0.8;" x="283.511816" xlink:href="#m5c54d37846" y="360.362315"/>
     <use style="fill:#471365;fill-opacity:0.8;stroke:#471365;stroke-opacity:0.8;" x="213.890135" xlink:href="#m5c54d37846" y="360.500628"/>
     <use style="fill:#471365;fill-opacity:0.8;stroke:#471365;stroke-opacity:0.8;" x="289.977853" xlink:href="#m5c54d37846" y="344.963376"/>
     <use style="fill:#471365;fill-opacity:0.8;stroke:#471365;stroke-opacity:0.8;" x="292.827202" xlink:href="#m5c54d37846" y="364.557834"/>
     <use style="fill:#471365;fill-opacity:0.8;stroke:#471365;stroke-opacity:0.8;" x="274.846516" xlink:href="#m5c54d37846" y="360.685047"/>
     <use style="fill:#471365;fill-opacity:0.8;stroke:#471365;stroke-opacity:0.8;" x="282.52488" xlink:href="#m5c54d37846" y="363.274589"/>
     <use style="fill:#471365;fill-opacity:0.8;stroke:#471365;stroke-opacity:0.8;" x="291.998448" xlink:href="#m5c54d37846" y="367.662211"/>
     <use style="fill:#471365;fill-opacity:0.8;stroke:#471365;stroke-opacity:0.8;" x="252.80437" xlink:href="#m5c54d37846" y="366.225284"/>
     <use style="fill:#471365;fill-opacity:0.8;stroke:#471365;stroke-opacity:0.8;" x="293.820048" xlink:href="#m5c54d37846" y="356.51258"/>
     <use style="fill:#471365;fill-opacity:0.8;stroke:#471365;stroke-opacity:0.8;" x="284.324504" xlink:href="#m5c54d37846" y="358.963808"/>
     <use style="fill:#471365;fill-opacity:0.8;stroke:#471365;stroke-opacity:0.8;" x="246.27253" xlink:href="#m5c54d37846" y="365.126457"/>
     <use style="fill:#471365;fill-opacity:0.8;stroke:#471365;stroke-opacity:0.8;" x="175.836667" xlink:href="#m5c54d37846" y="295.032086"/>
     <use style="fill:#471365;fill-opacity:0.8;stroke:#471365;stroke-opacity:0.8;" x="294.028905" xlink:href="#m5c54d37846" y="362.552284"/>
     <use style="fill:#471365;fill-opacity:0.8;stroke:#471365;stroke-opacity:0.8;" x="257.795784" xlink:href="#m5c54d37846" y="367.915786"/>
     <use style="fill:#471365;fill-opacity:0.8;stroke:#471365;stroke-opacity:0.8;" x="265.154703" xlink:href="#m5c54d37846" y="359.593905"/>
     <use style="fill:#471365;fill-opacity:0.8;stroke:#471365;stroke-opacity:0.8;" x="250.220099" xlink:href="#m5c54d37846" y="252.024171"/>
     <use style="fill:#471365;fill-opacity:0.8;stroke:#471365;stroke-opacity:0.8;" x="207.511594" xlink:href="#m5c54d37846" y="360.27779"/>
     <use style="fill:#471365;fill-opacity:0.8;stroke:#471365;stroke-opacity:0.8;" x="197.199021" xlink:href="#m5c54d37846" y="359.340329"/>
     <use style="fill:#471365;fill-opacity:0.8;stroke:#471365;stroke-opacity:0.8;" x="262.214534" xlink:href="#m5c54d37846" y="363.136275"/>
     <use style="fill:#471365;fill-opacity:0.8;stroke:#471365;stroke-opacity:0.8;" x="271.405141" xlink:href="#m5c54d37846" y="362.398601"/>
     <use style="fill:#471365;fill-opacity:0.8;stroke:#471365;stroke-opacity:0.8;" x="281.471008" xlink:href="#m5c54d37846" y="359.97811"/>
     <use style="fill:#471365;fill-opacity:0.8;stroke:#471365;stroke-opacity:0.8;" x="289.802073" xlink:href="#m5c54d37846" y="355.936272"/>
     <use style="fill:#471365;fill-opacity:0.8;stroke:#471365;stroke-opacity:0.8;" x="260.4657" xlink:href="#m5c54d37846" y="357.565302"/>
     <use style="fill:#471365;fill-opacity:0.8;stroke:#471365;stroke-opacity:0.8;" x="245.707169" xlink:href="#m5c54d37846" y="363.78174"/>
     <use style="fill:#471365;fill-opacity:0.8;stroke:#471365;stroke-opacity:0.8;" x="286.097484" xlink:href="#m5c54d37846" y="354.645343"/>
     <use style="fill:#471365;fill-opacity:0.8;stroke:#471365;stroke-opacity:0.8;" x="255.05591" xlink:href="#m5c54d37846" y="353.323678"/>
     <use style="fill:#471365;fill-opacity:0.8;stroke:#471365;stroke-opacity:0.8;" x="249.339905" xlink:href="#m5c54d37846" y="361.199882"/>
     <use style="fill:#471365;fill-opacity:0.8;stroke:#471365;stroke-opacity:0.8;" x="188.670404" xlink:href="#m5c54d37846" y="365.180246"/>
     <use style="fill:#471365;fill-opacity:0.8;stroke:#471365;stroke-opacity:0.8;" x="236.657548" xlink:href="#m5c54d37846" y="356.036166"/>
     <use style="fill:#471365;fill-opacity:0.8;stroke:#471365;stroke-opacity:0.8;" x="107.28694" xlink:href="#m5c54d37846" y="346.154411"/>
     <use style="fill:#471365;fill-opacity:0.8;stroke:#471365;stroke-opacity:0.8;" x="248.995907" xlink:href="#m5c54d37846" y="368.714933"/>
     <use style="fill:#471365;fill-opacity:0.8;stroke:#471365;stroke-opacity:0.8;" x="291.801242" xlink:href="#m5c54d37846" y="360.677363"/>
     <use style="fill:#471365;fill-opacity:0.8;stroke:#471365;stroke-opacity:0.8;" x="231.665524" xlink:href="#m5c54d37846" y="363.858581"/>
     <use style="fill:#471365;fill-opacity:0.8;stroke:#471365;stroke-opacity:0.8;" x="253.80162" xlink:href="#m5c54d37846" y="303.745856"/>
     <use style="fill:#471365;fill-opacity:0.8;stroke:#471365;stroke-opacity:0.8;" x="275.694488" xlink:href="#m5c54d37846" y="357.542249"/>
     <use style="fill:#471365;fill-opacity:0.8;stroke:#471365;stroke-opacity:0.8;" x="280.704999" xlink:href="#m5c54d37846" y="364.903619"/>
     <use style="fill:#471365;fill-opacity:0.8;stroke:#471365;stroke-opacity:0.8;" x="276.535312" xlink:href="#m5c54d37846" y="359.985794"/>
     <use style="fill:#471365;fill-opacity:0.8;stroke:#471365;stroke-opacity:0.8;" x="209.198164" xlink:href="#m5c54d37846" y="366.309809"/>
     <use style="fill:#471365;fill-opacity:0.8;stroke:#471365;stroke-opacity:0.8;" x="284.763914" xlink:href="#m5c54d37846" y="357.572986"/>
     <use style="fill:#471365;fill-opacity:0.8;stroke:#471365;stroke-opacity:0.8;" x="258.316508" xlink:href="#m5c54d37846" y="365.764238"/>
     <use style="fill:#471365;fill-opacity:0.8;stroke:#471365;stroke-opacity:0.8;" x="252.754117" xlink:href="#m5c54d37846" y="367.616106"/>
     <use style="fill:#471365;fill-opacity:0.8;stroke:#471365;stroke-opacity:0.8;" x="245.665593" xlink:href="#m5c54d37846" y="360.907886"/>
     <use style="fill:#471365;fill-opacity:0.8;stroke:#471365;stroke-opacity:0.8;" x="282.734861" xlink:href="#m5c54d37846" y="361.453457"/>
     <use style="fill:#471365;fill-opacity:0.8;stroke:#471365;stroke-opacity:0.8;" x="260.623668" xlink:href="#m5c54d37846" y="363.143959"/>
     <use style="fill:#471365;fill-opacity:0.8;stroke:#471365;stroke-opacity:0.8;" x="231.932669" xlink:href="#m5c54d37846" y="359.363381"/>
     <use style="fill:#471365;fill-opacity:0.8;stroke:#471365;stroke-opacity:0.8;" x="281.350308" xlink:href="#m5c54d37846" y="328.949709"/>
     <use style="fill:#471365;fill-opacity:0.8;stroke:#471365;stroke-opacity:0.8;" x="268.890388" xlink:href="#m5c54d37846" y="365.564451"/>
     <use style="fill:#471365;fill-opacity:0.8;stroke:#471365;stroke-opacity:0.8;" x="287.397278" xlink:href="#m5c54d37846" y="361.975976"/>
     <use style="fill:#471365;fill-opacity:0.8;stroke:#471365;stroke-opacity:0.8;" x="272.113716" xlink:href="#m5c54d37846" y="359.647693"/>
     <use style="fill:#471365;fill-opacity:0.8;stroke:#471365;stroke-opacity:0.8;" x="228.419041" xlink:href="#m5c54d37846" y="368.499778"/>
     <use style="fill:#471365;fill-opacity:0.8;stroke:#471365;stroke-opacity:0.8;" x="252.968123" xlink:href="#m5c54d37846" y="365.526031"/>
     <use style="fill:#471365;fill-opacity:0.8;stroke:#471365;stroke-opacity:0.8;" x="290.306811" xlink:href="#m5c54d37846" y="365.395401"/>
     <use style="fill:#471365;fill-opacity:0.8;stroke:#471365;stroke-opacity:0.8;" x="275.274634" xlink:href="#m5c54d37846" y="366.425071"/>
     <use style="fill:#471365;fill-opacity:0.8;stroke:#471365;stroke-opacity:0.8;" x="268.660746" xlink:href="#m5c54d37846" y="363.435955"/>
     <use style="fill:#471365;fill-opacity:0.8;stroke:#471365;stroke-opacity:0.8;" x="285.216559" xlink:href="#m5c54d37846" y="205.788933"/>
     <use style="fill:#471365;fill-opacity:0.8;stroke:#471365;stroke-opacity:0.8;" x="292.311995" xlink:href="#m5c54d37846" y="346.930506"/>
     <use style="fill:#471365;fill-opacity:0.8;stroke:#471365;stroke-opacity:0.8;" x="247.529783" xlink:href="#m5c54d37846" y="368.530514"/>
     <use style="fill:#471365;fill-opacity:0.8;stroke:#471365;stroke-opacity:0.8;" x="236.805836" xlink:href="#m5c54d37846" y="364.004579"/>
     <use style="fill:#471365;fill-opacity:0.8;stroke:#471365;stroke-opacity:0.8;" x="294.260618" xlink:href="#m5c54d37846" y="332.83018"/>
     <use style="fill:#471365;fill-opacity:0.8;stroke:#471365;stroke-opacity:0.8;" x="294.471394" xlink:href="#m5c54d37846" y="358.671812"/>
     <use style="fill:#471365;fill-opacity:0.8;stroke:#471365;stroke-opacity:0.8;" x="269.628981" xlink:href="#m5c54d37846" y="357.734352"/>
     <use style="fill:#471365;fill-opacity:0.8;stroke:#471365;stroke-opacity:0.8;" x="242.088923" xlink:href="#m5c54d37846" y="350.403719"/>
     <use style="fill:#471365;fill-opacity:0.8;stroke:#471365;stroke-opacity:0.8;" x="294.293751" xlink:href="#m5c54d37846" y="368.215466"/>
     <use style="fill:#471365;fill-opacity:0.8;stroke:#471365;stroke-opacity:0.8;" x="275.311152" xlink:href="#m5c54d37846" y="358.756337"/>
     <use style="fill:#471365;fill-opacity:0.8;stroke:#471365;stroke-opacity:0.8;" x="279.86753" xlink:href="#m5c54d37846" y="359.916637"/>
     <use style="fill:#471365;fill-opacity:0.8;stroke:#471365;stroke-opacity:0.8;" x="274.972597" xlink:href="#m5c54d37846" y="360.969359"/>
     <use style="fill:#471365;fill-opacity:0.8;stroke:#471365;stroke-opacity:0.8;" x="288.970161" xlink:href="#m5c54d37846" y="348.321328"/>
     <use style="fill:#471365;fill-opacity:0.8;stroke:#471365;stroke-opacity:0.8;" x="210.084233" xlink:href="#m5c54d37846" y="348.797742"/>
     <use style="fill:#471365;fill-opacity:0.8;stroke:#471365;stroke-opacity:0.8;" x="277.536111" xlink:href="#m5c54d37846" y="364.41952"/>
     <use style="fill:#471365;fill-opacity:0.8;stroke:#471365;stroke-opacity:0.8;" x="267.323554" xlink:href="#m5c54d37846" y="359.41717"/>
     <use style="fill:#471365;fill-opacity:0.8;stroke:#471365;stroke-opacity:0.8;" x="290.789452" xlink:href="#m5c54d37846" y="351.84833"/>
     <use style="fill:#471365;fill-opacity:0.8;stroke:#471365;stroke-opacity:0.8;" x="249.610559" xlink:href="#m5c54d37846" y="358.894651"/>
     <use style="fill:#471365;fill-opacity:0.8;stroke:#471365;stroke-opacity:0.8;" x="275.292883" xlink:href="#m5c54d37846" y="363.420587"/>
     <use style="fill:#471365;fill-opacity:0.8;stroke:#471365;stroke-opacity:0.8;" x="285.663648" xlink:href="#m5c54d37846" y="362.014396"/>
     <use style="fill:#471365;fill-opacity:0.8;stroke:#471365;stroke-opacity:0.8;" x="276.851977" xlink:href="#m5c54d37846" y="359.962741"/>
     <use style="fill:#471365;fill-opacity:0.8;stroke:#471365;stroke-opacity:0.8;" x="290.29419" xlink:href="#m5c54d37846" y="366.294441"/>
     <use style="fill:#471365;fill-opacity:0.8;stroke:#471365;stroke-opacity:0.8;" x="277.919153" xlink:href="#m5c54d37846" y="363.935422"/>
     <use style="fill:#471365;fill-opacity:0.8;stroke:#471365;stroke-opacity:0.8;" x="246.330933" xlink:href="#m5c54d37846" y="361.94524"/>
     <use style="fill:#471365;fill-opacity:0.8;stroke:#471365;stroke-opacity:0.8;" x="270.193232" xlink:href="#m5c54d37846" y="361.64556"/>
     <use style="fill:#471365;fill-opacity:0.8;stroke:#471365;stroke-opacity:0.8;" x="233.789982" xlink:href="#m5c54d37846" y="356.589421"/>
     <use style="fill:#471365;fill-opacity:0.8;stroke:#471365;stroke-opacity:0.8;" x="282.828347" xlink:href="#m5c54d37846" y="365.103405"/>
     <use style="fill:#471365;fill-opacity:0.8;stroke:#471365;stroke-opacity:0.8;" x="262.48798" xlink:href="#m5c54d37846" y="366.916853"/>
     <use style="fill:#471365;fill-opacity:0.8;stroke:#471365;stroke-opacity:0.8;" x="206.564027" xlink:href="#m5c54d37846" y="346.991978"/>
     <use style="fill:#471365;fill-opacity:0.8;stroke:#471365;stroke-opacity:0.8;" x="257.183431" xlink:href="#m5c54d37846" y="348.590271"/>
     <use style="fill:#471365;fill-opacity:0.8;stroke:#471365;stroke-opacity:0.8;" x="217.155302" xlink:href="#m5c54d37846" y="363.190064"/>
     <use style="fill:#471365;fill-opacity:0.8;stroke:#471365;stroke-opacity:0.8;" x="286.296749" xlink:href="#m5c54d37846" y="350.864765"/>
     <use style="fill:#471365;fill-opacity:0.8;stroke:#471365;stroke-opacity:0.8;" x="285.347969" xlink:href="#m5c54d37846" y="361.929871"/>
     <use style="fill:#471365;fill-opacity:0.8;stroke:#471365;stroke-opacity:0.8;" x="283.368377" xlink:href="#m5c54d37846" y="314.388337"/>
     <use style="fill:#471365;fill-opacity:0.8;stroke:#471365;stroke-opacity:0.8;" x="281.603318" xlink:href="#m5c54d37846" y="354.499345"/>
     <use style="fill:#471365;fill-opacity:0.8;stroke:#471365;stroke-opacity:0.8;" x="221.089597" xlink:href="#m5c54d37846" y="366.81696"/>
     <use style="fill:#471365;fill-opacity:0.8;stroke:#471365;stroke-opacity:0.8;" x="286.223966" xlink:href="#m5c54d37846" y="357.234885"/>
     <use style="fill:#471365;fill-opacity:0.8;stroke:#471365;stroke-opacity:0.8;" x="195.611114" xlink:href="#m5c54d37846" y="363.743319"/>
     <use style="fill:#471365;fill-opacity:0.8;stroke:#471365;stroke-opacity:0.8;" x="274.122626" xlink:href="#m5c54d37846" y="363.943106"/>
     <use style="fill:#471365;fill-opacity:0.8;stroke:#471365;stroke-opacity:0.8;" x="292.485384" xlink:href="#m5c54d37846" y="368.761037"/>
     <use style="fill:#471365;fill-opacity:0.8;stroke:#471365;stroke-opacity:0.8;" x="291.043969" xlink:href="#m5c54d37846" y="362.867332"/>
     <use style="fill:#471365;fill-opacity:0.8;stroke:#471365;stroke-opacity:0.8;" x="293.570831" xlink:href="#m5c54d37846" y="364.388784"/>
     <use style="fill:#471365;fill-opacity:0.8;stroke:#471365;stroke-opacity:0.8;" x="247.235315" xlink:href="#m5c54d37846" y="370.927954"/>
     <use style="fill:#471365;fill-opacity:0.8;stroke:#471365;stroke-opacity:0.8;" x="187.593042" xlink:href="#m5c54d37846" y="312.367418"/>
     <use style="fill:#471365;fill-opacity:0.8;stroke:#471365;stroke-opacity:0.8;" x="268.949454" xlink:href="#m5c54d37846" y="364.142892"/>
     <use style="fill:#471365;fill-opacity:0.8;stroke:#471365;stroke-opacity:0.8;" x="290.580271" xlink:href="#m5c54d37846" y="361.960608"/>
     <use style="fill:#471365;fill-opacity:0.8;stroke:#471365;stroke-opacity:0.8;" x="286.661262" xlink:href="#m5c54d37846" y="362.490811"/>
     <use style="fill:#471365;fill-opacity:0.8;stroke:#471365;stroke-opacity:0.8;" x="264.128276" xlink:href="#m5c54d37846" y="365.625924"/>
     <use style="fill:#471365;fill-opacity:0.8;stroke:#471365;stroke-opacity:0.8;" x="287.37612" xlink:href="#m5c54d37846" y="365.633608"/>
     <use style="fill:#471365;fill-opacity:0.8;stroke:#471365;stroke-opacity:0.8;" x="277.958155" xlink:href="#m5c54d37846" y="359.71685"/>
     <use style="fill:#471365;fill-opacity:0.8;stroke:#471365;stroke-opacity:0.8;" x="267.30304" xlink:href="#m5c54d37846" y="365.303192"/>
     <use style="fill:#471365;fill-opacity:0.8;stroke:#471365;stroke-opacity:0.8;" x="281.240749" xlink:href="#m5c54d37846" y="363.789424"/>
     <use style="fill:#471365;fill-opacity:0.8;stroke:#471365;stroke-opacity:0.8;" x="289.026452" xlink:href="#m5c54d37846" y="364.865198"/>
     <use style="fill:#471365;fill-opacity:0.8;stroke:#471365;stroke-opacity:0.8;" x="225.290631" xlink:href="#m5c54d37846" y="363.190064"/>
     <use style="fill:#471365;fill-opacity:0.8;stroke:#471365;stroke-opacity:0.8;" x="245.635772" xlink:href="#m5c54d37846" y="365.672029"/>
     <use style="fill:#471365;fill-opacity:0.8;stroke:#471365;stroke-opacity:0.8;" x="278.715998" xlink:href="#m5c54d37846" y="365.403085"/>
     <use style="fill:#471365;fill-opacity:0.8;stroke:#471365;stroke-opacity:0.8;" x="269.732305" xlink:href="#m5c54d37846" y="366.494227"/>
     <use style="fill:#471365;fill-opacity:0.8;stroke:#471365;stroke-opacity:0.8;" x="278.820417" xlink:href="#m5c54d37846" y="360.669679"/>
     <use style="fill:#471365;fill-opacity:0.8;stroke:#471365;stroke-opacity:0.8;" x="281.807926" xlink:href="#m5c54d37846" y="371.189213"/>
     <use style="fill:#471365;fill-opacity:0.8;stroke:#471365;stroke-opacity:0.8;" x="285.897421" xlink:href="#m5c54d37846" y="357.795825"/>
     <use style="fill:#471365;fill-opacity:0.8;stroke:#471365;stroke-opacity:0.8;" x="291.662327" xlink:href="#m5c54d37846" y="362.168078"/>
     <use style="fill:#471365;fill-opacity:0.8;stroke:#471365;stroke-opacity:0.8;" x="266.978311" xlink:href="#m5c54d37846" y="354.153561"/>
     <use style="fill:#471365;fill-opacity:0.8;stroke:#471365;stroke-opacity:0.8;" x="277.277569" xlink:href="#m5c54d37846" y="361.000095"/>
     <use style="fill:#471365;fill-opacity:0.8;stroke:#471365;stroke-opacity:0.8;" x="238.85409" xlink:href="#m5c54d37846" y="361.161461"/>
     <use style="fill:#471365;fill-opacity:0.8;stroke:#471365;stroke-opacity:0.8;" x="220.570009" xlink:href="#m5c54d37846" y="364.319627"/>
     <use style="fill:#471365;fill-opacity:0.8;stroke:#471365;stroke-opacity:0.8;" x="252.38019" xlink:href="#m5c54d37846" y="360.74652"/>
     <use style="fill:#471365;fill-opacity:0.8;stroke:#471365;stroke-opacity:0.8;" x="249.448377" xlink:href="#m5c54d37846" y="358.057084"/>
     <use style="fill:#471365;fill-opacity:0.8;stroke:#471365;stroke-opacity:0.8;" x="188.389793" xlink:href="#m5c54d37846" y="358.087821"/>
     <use style="fill:#471365;fill-opacity:0.8;stroke:#471365;stroke-opacity:0.8;" x="271.505281" xlink:href="#m5c54d37846" y="364.703832"/>
     <use style="fill:#471365;fill-opacity:0.8;stroke:#471365;stroke-opacity:0.8;" x="230.249018" xlink:href="#m5c54d37846" y="365.310876"/>
     <use style="fill:#471365;fill-opacity:0.8;stroke:#471365;stroke-opacity:0.8;" x="279.837844" xlink:href="#m5c54d37846" y="358.187714"/>
    </g>
   </g>
   <g id="PolyCollection_1">
    <defs>
     <path d="M 63.579924 -102.586394 
L 63.579924 -67.684083 
L 66.353646 -67.749688 
L 69.127368 -67.815293 
L 71.90109 -67.880898 
L 74.674813 -67.960187 
L 77.448535 -68.085479 
L 80.222257 -68.212117 
L 82.995979 -68.338756 
L 85.769701 -68.465395 
L 88.543423 -68.592033 
L 91.317145 -68.718672 
L 94.090867 -68.84531 
L 96.864589 -68.971949 
L 99.638311 -69.098588 
L 102.412033 -69.204049 
L 105.185755 -69.308438 
L 107.959477 -69.381412 
L 110.733199 -69.462002 
L 113.506921 -69.55122 
L 116.280644 -69.640437 
L 119.054366 -69.729655 
L 121.828088 -69.819908 
L 124.60181 -69.912755 
L 127.375532 -70.038844 
L 130.149254 -70.164934 
L 132.922976 -70.291024 
L 135.696698 -70.391223 
L 138.47042 -70.453042 
L 141.244142 -70.514869 
L 144.017864 -70.630828 
L 146.791586 -70.750483 
L 149.565308 -70.870673 
L 152.33903 -70.991062 
L 155.112753 -71.111451 
L 157.886475 -71.23184 
L 160.660197 -71.352228 
L 163.433919 -71.418581 
L 166.207641 -71.43064 
L 168.981363 -71.442699 
L 171.755085 -71.454757 
L 174.528807 -71.522572 
L 177.302529 -71.635988 
L 180.076251 -71.800695 
L 182.849973 -71.856109 
L 185.623695 -71.902696 
L 188.397417 -71.966149 
L 191.171139 -72.02973 
L 193.944861 -72.095323 
L 196.718584 -72.130031 
L 199.492306 -72.17502 
L 202.266028 -72.224743 
L 205.03975 -72.293278 
L 207.813472 -72.364122 
L 210.587194 -72.401891 
L 213.360916 -72.455651 
L 216.134638 -72.481367 
L 218.90836 -72.496524 
L 221.682082 -72.604453 
L 224.455804 -72.658727 
L 227.229526 -72.702363 
L 230.003248 -72.740864 
L 232.77697 -72.788118 
L 235.550693 -72.854117 
L 238.324415 -72.866574 
L 241.098137 -72.863767 
L 243.871859 -72.84087 
L 246.645581 -72.836121 
L 249.419303 -72.845276 
L 252.193025 -72.804243 
L 254.966747 -72.751391 
L 257.740469 -72.689468 
L 260.514191 -72.620904 
L 263.287913 -72.569709 
L 266.061635 -72.503627 
L 268.835357 -72.42893 
L 271.609079 -72.292217 
L 274.382801 -72.121208 
L 277.156524 -71.854996 
L 279.930246 -71.642415 
L 282.703968 -71.351928 
L 285.47769 -71.068647 
L 288.251412 -70.822062 
L 291.025134 -70.549605 
L 293.798856 -70.29043 
L 296.572578 -69.995952 
L 299.3463 -69.611029 
L 302.120022 -69.303487 
L 304.893744 -69.015052 
L 307.667466 -68.73752 
L 310.441188 -68.404964 
L 313.21491 -68.08553 
L 315.988633 -67.649604 
L 318.762355 -67.376112 
L 321.536077 -67.102759 
L 324.309799 -66.777597 
L 327.083521 -66.409093 
L 329.857243 -66.04059 
L 332.630965 -65.60958 
L 335.404687 -65.256186 
L 338.178409 -64.903669 
L 338.178409 -78.34755 
L 338.178409 -78.34755 
L 335.404687 -78.292905 
L 332.630965 -78.205864 
L 329.857243 -78.108357 
L 327.083521 -78.01085 
L 324.309799 -77.912865 
L 321.536077 -77.813728 
L 318.762355 -77.714592 
L 315.988633 -77.615416 
L 313.21491 -77.519111 
L 310.441188 -77.488402 
L 307.667466 -77.437745 
L 304.893744 -77.412418 
L 302.120022 -77.339134 
L 299.3463 -77.309861 
L 296.572578 -77.235127 
L 293.798856 -77.182704 
L 291.025134 -77.174317 
L 288.251412 -77.113852 
L 285.47769 -77.105135 
L 282.703968 -77.153928 
L 279.930246 -77.206626 
L 277.156524 -77.192407 
L 274.382801 -77.251776 
L 271.609079 -77.308918 
L 268.835357 -77.377354 
L 266.061635 -77.437471 
L 263.287913 -77.631343 
L 260.514191 -77.728193 
L 257.740469 -77.880604 
L 254.966747 -78.061973 
L 252.193025 -78.235337 
L 249.419303 -78.445187 
L 246.645581 -78.697742 
L 243.871859 -79.016943 
L 241.098137 -79.281984 
L 238.324415 -79.589047 
L 235.550693 -79.779656 
L 232.77697 -80.13097 
L 230.003248 -80.538653 
L 227.229526 -80.879661 
L 224.455804 -81.175724 
L 221.682082 -81.488138 
L 218.90836 -81.754728 
L 216.134638 -82.005942 
L 213.360916 -82.259494 
L 210.587194 -82.513046 
L 207.813472 -82.879453 
L 205.03975 -83.300268 
L 202.266028 -83.682627 
L 199.492306 -84.085133 
L 196.718584 -84.421537 
L 193.944861 -84.740261 
L 191.171139 -85.098361 
L 188.397417 -85.485545 
L 185.623695 -85.853479 
L 182.849973 -86.253917 
L 180.076251 -86.650211 
L 177.302529 -87.038741 
L 174.528807 -87.411817 
L 171.755085 -87.809968 
L 168.981363 -88.187257 
L 166.207641 -88.496443 
L 163.433919 -88.805629 
L 160.660197 -89.169992 
L 157.886475 -89.546825 
L 155.112753 -89.922804 
L 152.33903 -90.297493 
L 149.565308 -90.672181 
L 146.791586 -91.01785 
L 144.017864 -91.322121 
L 141.244142 -91.70392 
L 138.47042 -92.109834 
L 135.696698 -92.515748 
L 132.922976 -92.921662 
L 130.149254 -93.307416 
L 127.375532 -93.684711 
L 124.60181 -94.062006 
L 121.828088 -94.439301 
L 119.054366 -94.816596 
L 116.280644 -95.193891 
L 113.506921 -95.571186 
L 110.733199 -95.948481 
L 107.959477 -96.325776 
L 105.185755 -96.703071 
L 102.412033 -97.080366 
L 99.638311 -97.457661 
L 96.864589 -97.834956 
L 94.090867 -98.212251 
L 91.317145 -98.602988 
L 88.543423 -99.002476 
L 85.769701 -99.401964 
L 82.995979 -99.800116 
L 80.222257 -100.198156 
L 77.448535 -100.596195 
L 74.674813 -100.994235 
L 71.90109 -101.392275 
L 69.127368 -101.790314 
L 66.353646 -102.188354 
L 63.579924 -102.586394 
z
" id="m1ed96922d1" style="stroke:#ffffff;stroke-opacity:0.15;stroke-width:0.8;"/>
    </defs>
    <g clip-path="url(#p8dede05a0a)">
     <use style="fill:#471365;fill-opacity:0.15;stroke:#ffffff;stroke-opacity:0.15;stroke-width:0.8;" x="0" xlink:href="#m1ed96922d1" y="432"/>
    </g>
   </g>
   <g id="line2d_16">
    <path clip-path="url(#p8dede05a0a)" d="M 63.579924 348.170371 
L 66.353646 348.296041 
L 69.127368 348.421711 
L 71.90109 348.547381 
L 74.674813 348.673051 
L 77.448535 348.798721 
L 80.222257 348.924391 
L 82.995979 349.05006 
L 85.769701 349.17573 
L 88.543423 349.3014 
L 91.317145 349.42707 
L 94.090867 349.55274 
L 96.864589 349.67841 
L 99.638311 349.80408 
L 102.412033 349.929749 
L 105.185755 350.055419 
L 107.959477 350.181089 
L 110.733199 350.306759 
L 113.506921 350.432429 
L 116.280644 350.558099 
L 119.054366 350.683769 
L 121.828088 350.809438 
L 124.60181 350.935108 
L 127.375532 351.060778 
L 130.149254 351.186448 
L 132.922976 351.312118 
L 135.696698 351.437788 
L 138.47042 351.563458 
L 141.244142 351.689128 
L 144.017864 351.814797 
L 146.791586 351.940467 
L 149.565308 352.066137 
L 152.33903 352.191807 
L 155.112753 352.317477 
L 157.886475 352.443147 
L 160.660197 352.568817 
L 163.433919 352.694486 
L 166.207641 352.820156 
L 168.981363 352.945826 
L 171.755085 353.071496 
L 174.528807 353.197166 
L 177.302529 353.322836 
L 180.076251 353.448506 
L 182.849973 353.574175 
L 185.623695 353.699845 
L 188.397417 353.825515 
L 191.171139 353.951185 
L 193.944861 354.076855 
L 196.718584 354.202525 
L 199.492306 354.328195 
L 202.266028 354.453865 
L 205.03975 354.579534 
L 207.813472 354.705204 
L 210.587194 354.830874 
L 213.360916 354.956544 
L 216.134638 355.082214 
L 218.90836 355.207884 
L 221.682082 355.333554 
L 224.455804 355.459223 
L 227.229526 355.584893 
L 230.003248 355.710563 
L 232.77697 355.836233 
L 235.550693 355.961903 
L 238.324415 356.087573 
L 241.098137 356.213243 
L 243.871859 356.338912 
L 246.645581 356.464582 
L 249.419303 356.590252 
L 252.193025 356.715922 
L 254.966747 356.841592 
L 257.740469 356.967262 
L 260.514191 357.092932 
L 263.287913 357.218601 
L 266.061635 357.344271 
L 268.835357 357.469941 
L 271.609079 357.595611 
L 274.382801 357.721281 
L 277.156524 357.846951 
L 279.930246 357.972621 
L 282.703968 358.098291 
L 285.47769 358.22396 
L 288.251412 358.34963 
L 291.025134 358.4753 
L 293.798856 358.60097 
L 296.572578 358.72664 
L 299.3463 358.85231 
L 302.120022 358.97798 
L 304.893744 359.103649 
L 307.667466 359.229319 
L 310.441188 359.354989 
L 313.21491 359.480659 
L 315.988633 359.606329 
L 318.762355 359.731999 
L 321.536077 359.857669 
L 324.309799 359.983338 
L 327.083521 360.109008 
L 329.857243 360.234678 
L 332.630965 360.360348 
L 335.404687 360.486018 
L 338.178409 360.611688 
" style="fill:none;stroke:#471365;stroke-linecap:round;stroke-width:1.8;"/>
   </g>
   <g id="patch_3">
    <path d="M 49.85 389.9 
L 49.85 81.383333 
" style="fill:none;stroke:#262626;stroke-linecap:square;stroke-linejoin:miter;"/>
   </g>
   <g id="patch_4">
    <path d="M 49.85 389.9 
L 351.908333 389.9 
" style="fill:none;stroke:#262626;stroke-linecap:square;stroke-linejoin:miter;"/>
   </g>
   <g id="legend_1">
    <g id="patch_5">
     <path d="M 193.168708 101.340083 
L 345.748333 101.340083 
Q 347.508333 101.340083 347.508333 99.580083 
L 347.508333 87.543333 
Q 347.508333 85.783333 345.748333 85.783333 
L 193.168708 85.783333 
Q 191.408708 85.783333 191.408708 87.543333 
L 191.408708 99.580083 
Q 191.408708 101.340083 193.168708 101.340083 
z
" style="fill:#ffffff;opacity:0.8;stroke:#cccccc;stroke-linejoin:miter;stroke-width:0.8;"/>
    </g>
    <g id="line2d_17"/>
    <g id="line2d_18"/>
    <g id="text_18">
     <!-- pearsonr = -0.075; p = 0.28 -->
     <defs>
      <path d="M 18.109375 8.203125 
L 18.109375 -20.796875 
L 9.078125 -20.796875 
L 9.078125 54.6875 
L 18.109375 54.6875 
L 18.109375 46.390625 
Q 20.953125 51.265625 25.265625 53.625 
Q 29.59375 56 35.59375 56 
Q 45.5625 56 51.78125 48.09375 
Q 58.015625 40.1875 58.015625 27.296875 
Q 58.015625 14.40625 51.78125 6.484375 
Q 45.5625 -1.421875 35.59375 -1.421875 
Q 29.59375 -1.421875 25.265625 0.953125 
Q 20.953125 3.328125 18.109375 8.203125 
z
M 48.6875 27.296875 
Q 48.6875 37.203125 44.609375 42.84375 
Q 40.53125 48.484375 33.40625 48.484375 
Q 26.265625 48.484375 22.1875 42.84375 
Q 18.109375 37.203125 18.109375 27.296875 
Q 18.109375 17.390625 22.1875 11.75 
Q 26.265625 6.109375 33.40625 6.109375 
Q 40.53125 6.109375 44.609375 11.75 
Q 48.6875 17.390625 48.6875 27.296875 
z
" id="DejaVuSans-70"/>
      <path d="M 44.28125 53.078125 
L 44.28125 44.578125 
Q 40.484375 46.53125 36.375 47.5 
Q 32.28125 48.484375 27.875 48.484375 
Q 21.1875 48.484375 17.84375 46.4375 
Q 14.5 44.390625 14.5 40.28125 
Q 14.5 37.15625 16.890625 35.375 
Q 19.28125 33.59375 26.515625 31.984375 
L 29.59375 31.296875 
Q 39.15625 29.25 43.1875 25.515625 
Q 47.21875 21.78125 47.21875 15.09375 
Q 47.21875 7.46875 41.1875 3.015625 
Q 35.15625 -1.421875 24.609375 -1.421875 
Q 20.21875 -1.421875 15.453125 -0.5625 
Q 10.6875 0.296875 5.421875 2 
L 5.421875 11.28125 
Q 10.40625 8.6875 15.234375 7.390625 
Q 20.0625 6.109375 24.8125 6.109375 
Q 31.15625 6.109375 34.5625 8.28125 
Q 37.984375 10.453125 37.984375 14.40625 
Q 37.984375 18.0625 35.515625 20.015625 
Q 33.0625 21.96875 24.703125 23.78125 
L 21.578125 24.515625 
Q 13.234375 26.265625 9.515625 29.90625 
Q 5.8125 33.546875 5.8125 39.890625 
Q 5.8125 47.609375 11.28125 51.796875 
Q 16.75 56 26.8125 56 
Q 31.78125 56 36.171875 55.265625 
Q 40.578125 54.546875 44.28125 53.078125 
z
" id="DejaVuSans-73"/>
      <path d="M 10.59375 45.40625 
L 73.1875 45.40625 
L 73.1875 37.203125 
L 10.59375 37.203125 
z
M 10.59375 25.484375 
L 73.1875 25.484375 
L 73.1875 17.1875 
L 10.59375 17.1875 
z
" id="DejaVuSans-3d"/>
      <path d="M 4.890625 31.390625 
L 31.203125 31.390625 
L 31.203125 23.390625 
L 4.890625 23.390625 
z
" id="DejaVuSans-2d"/>
      <path d="M 11.71875 51.703125 
L 22.015625 51.703125 
L 22.015625 39.3125 
L 11.71875 39.3125 
z
M 11.71875 12.40625 
L 22.015625 12.40625 
L 22.015625 4 
L 14.015625 -11.625 
L 7.71875 -11.625 
L 11.71875 4 
z
" id="DejaVuSans-3b"/>
     </defs>
     <g style="fill:#262626;" transform="translate(219.568708 95.989958)scale(0.088 -0.088)">
      <use xlink:href="#DejaVuSans-70"/>
      <use x="63.476562" xlink:href="#DejaVuSans-65"/>
      <use x="125" xlink:href="#DejaVuSans-61"/>
      <use x="186.279297" xlink:href="#DejaVuSans-72"/>
      <use x="227.392578" xlink:href="#DejaVuSans-73"/>
      <use x="279.492188" xlink:href="#DejaVuSans-6f"/>
      <use x="340.673828" xlink:href="#DejaVuSans-6e"/>
      <use x="404.052734" xlink:href="#DejaVuSans-72"/>
      <use x="445.166016" xlink:href="#DejaVuSans-20"/>
      <use x="476.953125" xlink:href="#DejaVuSans-3d"/>
      <use x="560.742188" xlink:href="#DejaVuSans-20"/>
      <use x="592.529297" xlink:href="#DejaVuSans-2d"/>
      <use x="628.613281" xlink:href="#DejaVuSans-30"/>
      <use x="692.236328" xlink:href="#DejaVuSans-2e"/>
      <use x="724.023438" xlink:href="#DejaVuSans-30"/>
      <use x="787.646484" xlink:href="#DejaVuSans-37"/>
      <use x="851.269531" xlink:href="#DejaVuSans-35"/>
      <use x="914.892578" xlink:href="#DejaVuSans-3b"/>
      <use x="948.583984" xlink:href="#DejaVuSans-20"/>
      <use x="980.371094" xlink:href="#DejaVuSans-70"/>
      <use x="1043.847656" xlink:href="#DejaVuSans-20"/>
      <use x="1075.634766" xlink:href="#DejaVuSans-3d"/>
      <use x="1159.423828" xlink:href="#DejaVuSans-20"/>
      <use x="1191.210938" xlink:href="#DejaVuSans-30"/>
      <use x="1254.833984" xlink:href="#DejaVuSans-2e"/>
      <use x="1286.621094" xlink:href="#DejaVuSans-32"/>
      <use x="1350.244141" xlink:href="#DejaVuSans-38"/>
     </g>
    </g>
   </g>
  </g>
  <g id="axes_2">
   <g id="patch_6">
    <path d="M 49.85 60.983333 
L 351.908333 60.983333 
L 351.908333 15.6 
L 49.85 15.6 
z
" style="fill:#ffffff;"/>
   </g>
   <g id="matplotlib.axis_3">
    <g id="xtick_10">
     <g id="line2d_19">
      <g>
       <use style="fill:#262626;stroke:#262626;" x="55.021076" xlink:href="#m2a5690ce12" y="60.983333"/>
      </g>
     </g>
    </g>
    <g id="xtick_11">
     <g id="line2d_20">
      <g>
       <use style="fill:#262626;stroke:#262626;" x="90.690071" xlink:href="#m2a5690ce12" y="60.983333"/>
      </g>
     </g>
    </g>
    <g id="xtick_12">
     <g id="line2d_21">
      <g>
       <use style="fill:#262626;stroke:#262626;" x="126.359066" xlink:href="#m2a5690ce12" y="60.983333"/>
      </g>
     </g>
    </g>
    <g id="xtick_13">
     <g id="line2d_22">
      <g>
       <use style="fill:#262626;stroke:#262626;" x="162.028062" xlink:href="#m2a5690ce12" y="60.983333"/>
      </g>
     </g>
    </g>
    <g id="xtick_14">
     <g id="line2d_23">
      <g>
       <use style="fill:#262626;stroke:#262626;" x="197.697057" xlink:href="#m2a5690ce12" y="60.983333"/>
      </g>
     </g>
    </g>
    <g id="xtick_15">
     <g id="line2d_24">
      <g>
       <use style="fill:#262626;stroke:#262626;" x="233.366052" xlink:href="#m2a5690ce12" y="60.983333"/>
      </g>
     </g>
    </g>
    <g id="xtick_16">
     <g id="line2d_25">
      <g>
       <use style="fill:#262626;stroke:#262626;" x="269.035047" xlink:href="#m2a5690ce12" y="60.983333"/>
      </g>
     </g>
    </g>
    <g id="xtick_17">
     <g id="line2d_26">
      <g>
       <use style="fill:#262626;stroke:#262626;" x="304.704042" xlink:href="#m2a5690ce12" y="60.983333"/>
      </g>
     </g>
    </g>
    <g id="xtick_18">
     <g id="line2d_27">
      <g>
       <use style="fill:#262626;stroke:#262626;" x="340.373038" xlink:href="#m2a5690ce12" y="60.983333"/>
      </g>
     </g>
    </g>
   </g>
   <g id="matplotlib.axis_4">
    <g id="ytick_7"/>
    <g id="ytick_8"/>
   </g>
   <g id="patch_7">
    <path clip-path="url(#pff3ded7fe0)" d="M 107.28694 60.983333 
L 118.985968 60.983333 
L 118.985968 60.356924 
L 107.28694 60.356924 
z
" style="fill:#471365;opacity:0.4;stroke:#ffffff;stroke-linejoin:miter;stroke-width:0.8;"/>
   </g>
   <g id="patch_8">
    <path clip-path="url(#pff3ded7fe0)" d="M 118.985968 60.983333 
L 130.684996 60.983333 
L 130.684996 60.983333 
L 118.985968 60.983333 
z
" style="fill:#471365;opacity:0.4;stroke:#ffffff;stroke-linejoin:miter;stroke-width:0.8;"/>
   </g>
   <g id="patch_9">
    <path clip-path="url(#pff3ded7fe0)" d="M 130.684996 60.983333 
L 142.384025 60.983333 
L 142.384025 60.983333 
L 130.684996 60.983333 
z
" style="fill:#471365;opacity:0.4;stroke:#ffffff;stroke-linejoin:miter;stroke-width:0.8;"/>
   </g>
   <g id="patch_10">
    <path clip-path="url(#pff3ded7fe0)" d="M 142.384025 60.983333 
L 154.083053 60.983333 
L 154.083053 60.983333 
L 142.384025 60.983333 
z
" style="fill:#471365;opacity:0.4;stroke:#ffffff;stroke-linejoin:miter;stroke-width:0.8;"/>
   </g>
   <g id="patch_11">
    <path clip-path="url(#pff3ded7fe0)" d="M 154.083053 60.983333 
L 165.782082 60.983333 
L 165.782082 60.356924 
L 154.083053 60.356924 
z
" style="fill:#471365;opacity:0.4;stroke:#ffffff;stroke-linejoin:miter;stroke-width:0.8;"/>
   </g>
   <g id="patch_12">
    <path clip-path="url(#pff3ded7fe0)" d="M 165.782082 60.983333 
L 177.48111 60.983333 
L 177.48111 59.730515 
L 165.782082 59.730515 
z
" style="fill:#471365;opacity:0.4;stroke:#ffffff;stroke-linejoin:miter;stroke-width:0.8;"/>
   </g>
   <g id="patch_13">
    <path clip-path="url(#pff3ded7fe0)" d="M 177.48111 60.983333 
L 189.180138 60.983333 
L 189.180138 58.477697 
L 177.48111 58.477697 
z
" style="fill:#471365;opacity:0.4;stroke:#ffffff;stroke-linejoin:miter;stroke-width:0.8;"/>
   </g>
   <g id="patch_14">
    <path clip-path="url(#pff3ded7fe0)" d="M 189.180138 60.983333 
L 200.879167 60.983333 
L 200.879167 58.477697 
L 189.180138 58.477697 
z
" style="fill:#471365;opacity:0.4;stroke:#ffffff;stroke-linejoin:miter;stroke-width:0.8;"/>
   </g>
   <g id="patch_15">
    <path clip-path="url(#pff3ded7fe0)" d="M 200.879167 60.983333 
L 212.578195 60.983333 
L 212.578195 57.851288 
L 200.879167 57.851288 
z
" style="fill:#471365;opacity:0.4;stroke:#ffffff;stroke-linejoin:miter;stroke-width:0.8;"/>
   </g>
   <g id="patch_16">
    <path clip-path="url(#pff3ded7fe0)" d="M 212.578195 60.983333 
L 224.277223 60.983333 
L 224.277223 57.851288 
L 212.578195 57.851288 
z
" style="fill:#471365;opacity:0.4;stroke:#ffffff;stroke-linejoin:miter;stroke-width:0.8;"/>
   </g>
   <g id="patch_17">
    <path clip-path="url(#pff3ded7fe0)" d="M 224.277223 60.983333 
L 235.976252 60.983333 
L 235.976252 55.345652 
L 224.277223 55.345652 
z
" style="fill:#471365;opacity:0.4;stroke:#ffffff;stroke-linejoin:miter;stroke-width:0.8;"/>
   </g>
   <g id="patch_18">
    <path clip-path="url(#pff3ded7fe0)" d="M 235.976252 60.983333 
L 247.67528 60.983333 
L 247.67528 49.081562 
L 235.976252 49.081562 
z
" style="fill:#471365;opacity:0.4;stroke:#ffffff;stroke-linejoin:miter;stroke-width:0.8;"/>
   </g>
   <g id="patch_19">
    <path clip-path="url(#pff3ded7fe0)" d="M 247.67528 60.983333 
L 259.374309 60.983333 
L 259.374309 47.828744 
L 247.67528 47.828744 
z
" style="fill:#471365;opacity:0.4;stroke:#ffffff;stroke-linejoin:miter;stroke-width:0.8;"/>
   </g>
   <g id="patch_20">
    <path clip-path="url(#pff3ded7fe0)" d="M 259.374309 60.983333 
L 271.073337 60.983333 
L 271.073337 42.817472 
L 259.374309 42.817472 
z
" style="fill:#471365;opacity:0.4;stroke:#ffffff;stroke-linejoin:miter;stroke-width:0.8;"/>
   </g>
   <g id="patch_21">
    <path clip-path="url(#pff3ded7fe0)" d="M 271.073337 60.983333 
L 282.772365 60.983333 
L 282.772365 35.300564 
L 271.073337 35.300564 
z
" style="fill:#471365;opacity:0.4;stroke:#ffffff;stroke-linejoin:miter;stroke-width:0.8;"/>
   </g>
   <g id="patch_22">
    <path clip-path="url(#pff3ded7fe0)" d="M 282.772365 60.983333 
L 294.471394 60.983333 
L 294.471394 17.761111 
L 282.772365 17.761111 
z
" style="fill:#471365;opacity:0.4;stroke:#ffffff;stroke-linejoin:miter;stroke-width:0.8;"/>
   </g>
   <g id="line2d_28">
    <path clip-path="url(#pff3ded7fe0)" d="M 76.061674 60.980153 
L 78.583239 60.976966 
L 81.104805 60.97131 
L 83.62637 60.961918 
L 86.147936 60.947352 
L 88.669501 60.926309 
L 91.191067 60.898087 
L 93.712632 60.863129 
L 96.234198 60.823452 
L 98.755763 60.782743 
L 101.277329 60.745949 
L 103.798894 60.718343 
L 106.32046 60.704308 
L 108.842025 60.70619 
L 111.363591 60.723654 
L 113.885156 60.753757 
L 116.406722 60.791725 
L 118.928287 60.832108 
L 121.449853 60.869915 
L 123.971418 60.901358 
L 126.492984 60.924063 
L 129.014549 60.936832 
L 131.536115 60.939194 
L 134.05768 60.931037 
L 136.579246 60.912487 
L 139.100811 60.884093 
L 141.622377 60.847138 
L 144.143943 60.803828 
L 146.665508 60.757065 
L 149.187074 60.709684 
L 151.708639 60.663263 
L 154.230205 60.616944 
L 156.75177 60.5668 
L 159.273336 60.506244 
L 161.794901 60.427563 
L 164.316467 60.324187 
L 166.838032 60.192885 
L 169.359598 60.035018 
L 171.881163 59.856344 
L 174.402729 59.665439 
L 176.924294 59.471426 
L 179.44586 59.281897 
L 181.967425 59.101744 
L 184.488991 58.933052 
L 187.010556 58.775746 
L 189.532122 58.628426 
L 192.053687 58.488985 
L 194.575253 58.354947 
L 197.096818 58.223703 
L 199.618384 58.092828 
L 202.139949 57.960404 
L 204.661515 57.82503 
L 207.18308 57.685175 
L 209.704646 57.537804 
L 212.226211 57.376679 
L 214.747777 57.191053 
L 217.269343 56.965522 
L 219.790908 56.681356 
L 222.312474 56.31915 
L 224.834039 55.862146 
L 227.355605 55.299504 
L 229.87717 54.628988 
L 232.398736 53.85875 
L 234.920301 53.007921 
L 237.441867 52.105518 
L 239.963432 51.186962 
L 242.484998 50.287824 
L 245.006563 49.435395 
L 247.528129 48.640031 
L 250.049694 47.889264 
L 252.57126 47.147439 
L 255.092825 46.362031 
L 257.614391 45.475301 
L 260.135956 44.437892 
L 262.657522 43.220493 
L 265.179087 41.821072 
L 267.700653 40.267636 
L 270.222218 38.618468 
L 272.743784 36.961996 
L 275.265349 35.416619 
L 277.786915 34.1281 
L 280.30848 33.260374 
L 282.830046 32.976488 
L 285.351612 33.410146 
L 287.873177 34.633526 
L 290.394743 36.631042 
L 292.916308 39.289136 
L 295.437874 42.408117 
L 297.959439 45.734854 
L 300.481005 49.007848 
L 303.00257 52.001976 
L 305.524136 54.560917 
L 308.045701 56.610261 
L 310.567267 58.151201 
L 313.088832 59.2405 
L 315.610398 59.965098 
L 318.131963 60.418948 
L 320.653529 60.686738 
L 323.175094 60.835635 
L 325.69666 60.91367 
" style="fill:none;stroke:#471365;stroke-linecap:round;stroke-width:1.2;"/>
   </g>
   <g id="patch_23">
    <path d="M 49.85 60.983333 
L 351.908333 60.983333 
" style="fill:none;stroke:#262626;stroke-linecap:square;stroke-linejoin:miter;"/>
   </g>
  </g>
  <g id="axes_3">
   <g id="patch_24">
    <path d="M 372.308333 389.9 
L 416.4 389.9 
L 416.4 81.383333 
L 372.308333 81.383333 
z
" style="fill:#ffffff;"/>
   </g>
   <g id="matplotlib.axis_5">
    <g id="xtick_19"/>
    <g id="xtick_20"/>
   </g>
   <g id="matplotlib.axis_6">
    <g id="ytick_9">
     <g id="line2d_29">
      <g>
       <use style="fill:#262626;stroke:#262626;" x="372.308333" xlink:href="#ma7ced57c2f" y="389.9"/>
      </g>
     </g>
    </g>
    <g id="ytick_10">
     <g id="line2d_30">
      <g>
       <use style="fill:#262626;stroke:#262626;" x="372.308333" xlink:href="#ma7ced57c2f" y="333.806061"/>
      </g>
     </g>
    </g>
    <g id="ytick_11">
     <g id="line2d_31">
      <g>
       <use style="fill:#262626;stroke:#262626;" x="372.308333" xlink:href="#ma7ced57c2f" y="277.712121"/>
      </g>
     </g>
    </g>
    <g id="ytick_12">
     <g id="line2d_32">
      <g>
       <use style="fill:#262626;stroke:#262626;" x="372.308333" xlink:href="#ma7ced57c2f" y="221.618182"/>
      </g>
     </g>
    </g>
    <g id="ytick_13">
     <g id="line2d_33">
      <g>
       <use style="fill:#262626;stroke:#262626;" x="372.308333" xlink:href="#ma7ced57c2f" y="165.524242"/>
      </g>
     </g>
    </g>
    <g id="ytick_14">
     <g id="line2d_34">
      <g>
       <use style="fill:#262626;stroke:#262626;" x="372.308333" xlink:href="#ma7ced57c2f" y="109.430303"/>
      </g>
     </g>
    </g>
   </g>
   <g id="patch_25">
    <path clip-path="url(#p5c9da5cc9c)" d="M 372.308333 371.189213 
L 383.449085 371.189213 
L 383.449085 367.881208 
L 372.308333 367.881208 
z
" style="fill:#471365;opacity:0.4;stroke:#ffffff;stroke-linejoin:miter;stroke-width:0.8;"/>
   </g>
   <g id="patch_26">
    <path clip-path="url(#p5c9da5cc9c)" d="M 372.308333 367.881208 
L 408.301531 367.881208 
L 408.301531 364.573202 
L 372.308333 364.573202 
z
" style="fill:#471365;opacity:0.4;stroke:#ffffff;stroke-linejoin:miter;stroke-width:0.8;"/>
   </g>
   <g id="patch_27">
    <path clip-path="url(#p5c9da5cc9c)" d="M 372.308333 364.573202 
L 414.300397 364.573202 
L 414.300397 361.265197 
L 372.308333 361.265197 
z
" style="fill:#471365;opacity:0.4;stroke:#ffffff;stroke-linejoin:miter;stroke-width:0.8;"/>
   </g>
   <g id="patch_28">
    <path clip-path="url(#p5c9da5cc9c)" d="M 372.308333 361.265197 
L 413.443416 361.265197 
L 413.443416 357.957191 
L 372.308333 357.957191 
z
" style="fill:#471365;opacity:0.4;stroke:#ffffff;stroke-linejoin:miter;stroke-width:0.8;"/>
   </g>
   <g id="patch_29">
    <path clip-path="url(#p5c9da5cc9c)" d="M 372.308333 357.957191 
L 388.59097 357.957191 
L 388.59097 354.649185 
L 372.308333 354.649185 
z
" style="fill:#471365;opacity:0.4;stroke:#ffffff;stroke-linejoin:miter;stroke-width:0.8;"/>
   </g>
   <g id="patch_30">
    <path clip-path="url(#p5c9da5cc9c)" d="M 372.308333 354.649185 
L 382.592104 354.649185 
L 382.592104 351.34118 
L 372.308333 351.34118 
z
" style="fill:#471365;opacity:0.4;stroke:#ffffff;stroke-linejoin:miter;stroke-width:0.8;"/>
   </g>
   <g id="patch_31">
    <path clip-path="url(#p5c9da5cc9c)" d="M 372.308333 351.34118 
L 377.450219 351.34118 
L 377.450219 348.033174 
L 372.308333 348.033174 
z
" style="fill:#471365;opacity:0.4;stroke:#ffffff;stroke-linejoin:miter;stroke-width:0.8;"/>
   </g>
   <g id="patch_32">
    <path clip-path="url(#p5c9da5cc9c)" d="M 372.308333 348.033174 
L 377.450219 348.033174 
L 377.450219 344.725169 
L 372.308333 344.725169 
z
" style="fill:#471365;opacity:0.4;stroke:#ffffff;stroke-linejoin:miter;stroke-width:0.8;"/>
   </g>
   <g id="patch_33">
    <path clip-path="url(#p5c9da5cc9c)" d="M 372.308333 344.725169 
L 372.308333 344.725169 
L 372.308333 341.417163 
L 372.308333 341.417163 
z
" style="fill:#471365;opacity:0.4;stroke:#ffffff;stroke-linejoin:miter;stroke-width:0.8;"/>
   </g>
   <g id="patch_34">
    <path clip-path="url(#p5c9da5cc9c)" d="M 372.308333 341.417163 
L 374.022295 341.417163 
L 374.022295 338.109157 
L 372.308333 338.109157 
z
" style="fill:#471365;opacity:0.4;stroke:#ffffff;stroke-linejoin:miter;stroke-width:0.8;"/>
   </g>
   <g id="patch_35">
    <path clip-path="url(#p5c9da5cc9c)" d="M 372.308333 338.109157 
L 374.022295 338.109157 
L 374.022295 334.801152 
L 372.308333 334.801152 
z
" style="fill:#471365;opacity:0.4;stroke:#ffffff;stroke-linejoin:miter;stroke-width:0.8;"/>
   </g>
   <g id="patch_36">
    <path clip-path="url(#p5c9da5cc9c)" d="M 372.308333 334.801152 
L 374.022295 334.801152 
L 374.022295 331.493146 
L 372.308333 331.493146 
z
" style="fill:#471365;opacity:0.4;stroke:#ffffff;stroke-linejoin:miter;stroke-width:0.8;"/>
   </g>
   <g id="patch_37">
    <path clip-path="url(#p5c9da5cc9c)" d="M 372.308333 331.493146 
L 373.165314 331.493146 
L 373.165314 328.185141 
L 372.308333 328.185141 
z
" style="fill:#471365;opacity:0.4;stroke:#ffffff;stroke-linejoin:miter;stroke-width:0.8;"/>
   </g>
   <g id="patch_38">
    <path clip-path="url(#p5c9da5cc9c)" d="M 372.308333 328.185141 
L 372.308333 328.185141 
L 372.308333 324.877135 
L 372.308333 324.877135 
z
" style="fill:#471365;opacity:0.4;stroke:#ffffff;stroke-linejoin:miter;stroke-width:0.8;"/>
   </g>
   <g id="patch_39">
    <path clip-path="url(#p5c9da5cc9c)" d="M 372.308333 324.877135 
L 372.308333 324.877135 
L 372.308333 321.569129 
L 372.308333 321.569129 
z
" style="fill:#471365;opacity:0.4;stroke:#ffffff;stroke-linejoin:miter;stroke-width:0.8;"/>
   </g>
   <g id="patch_40">
    <path clip-path="url(#p5c9da5cc9c)" d="M 372.308333 321.569129 
L 372.308333 321.569129 
L 372.308333 318.261124 
L 372.308333 318.261124 
z
" style="fill:#471365;opacity:0.4;stroke:#ffffff;stroke-linejoin:miter;stroke-width:0.8;"/>
   </g>
   <g id="patch_41">
    <path clip-path="url(#p5c9da5cc9c)" d="M 372.308333 318.261124 
L 373.165314 318.261124 
L 373.165314 314.953118 
L 372.308333 314.953118 
z
" style="fill:#471365;opacity:0.4;stroke:#ffffff;stroke-linejoin:miter;stroke-width:0.8;"/>
   </g>
   <g id="patch_42">
    <path clip-path="url(#p5c9da5cc9c)" d="M 372.308333 314.953118 
L 374.022295 314.953118 
L 374.022295 311.645112 
L 372.308333 311.645112 
z
" style="fill:#471365;opacity:0.4;stroke:#ffffff;stroke-linejoin:miter;stroke-width:0.8;"/>
   </g>
   <g id="patch_43">
    <path clip-path="url(#p5c9da5cc9c)" d="M 372.308333 311.645112 
L 372.308333 311.645112 
L 372.308333 308.337107 
L 372.308333 308.337107 
z
" style="fill:#471365;opacity:0.4;stroke:#ffffff;stroke-linejoin:miter;stroke-width:0.8;"/>
   </g>
   <g id="patch_44">
    <path clip-path="url(#p5c9da5cc9c)" d="M 372.308333 308.337107 
L 372.308333 308.337107 
L 372.308333 305.029101 
L 372.308333 305.029101 
z
" style="fill:#471365;opacity:0.4;stroke:#ffffff;stroke-linejoin:miter;stroke-width:0.8;"/>
   </g>
   <g id="patch_45">
    <path clip-path="url(#p5c9da5cc9c)" d="M 372.308333 305.029101 
L 373.165314 305.029101 
L 373.165314 301.721096 
L 372.308333 301.721096 
z
" style="fill:#471365;opacity:0.4;stroke:#ffffff;stroke-linejoin:miter;stroke-width:0.8;"/>
   </g>
   <g id="patch_46">
    <path clip-path="url(#p5c9da5cc9c)" d="M 372.308333 301.721096 
L 372.308333 301.721096 
L 372.308333 298.41309 
L 372.308333 298.41309 
z
" style="fill:#471365;opacity:0.4;stroke:#ffffff;stroke-linejoin:miter;stroke-width:0.8;"/>
   </g>
   <g id="patch_47">
    <path clip-path="url(#p5c9da5cc9c)" d="M 372.308333 298.41309 
L 372.308333 298.41309 
L 372.308333 295.105084 
L 372.308333 295.105084 
z
" style="fill:#471365;opacity:0.4;stroke:#ffffff;stroke-linejoin:miter;stroke-width:0.8;"/>
   </g>
   <g id="patch_48">
    <path clip-path="url(#p5c9da5cc9c)" d="M 372.308333 295.105084 
L 373.165314 295.105084 
L 373.165314 291.797079 
L 372.308333 291.797079 
z
" style="fill:#471365;opacity:0.4;stroke:#ffffff;stroke-linejoin:miter;stroke-width:0.8;"/>
   </g>
   <g id="patch_49">
    <path clip-path="url(#p5c9da5cc9c)" d="M 372.308333 291.797079 
L 372.308333 291.797079 
L 372.308333 288.489073 
L 372.308333 288.489073 
z
" style="fill:#471365;opacity:0.4;stroke:#ffffff;stroke-linejoin:miter;stroke-width:0.8;"/>
   </g>
   <g id="patch_50">
    <path clip-path="url(#p5c9da5cc9c)" d="M 372.308333 288.489073 
L 372.308333 288.489073 
L 372.308333 285.181068 
L 372.308333 285.181068 
z
" style="fill:#471365;opacity:0.4;stroke:#ffffff;stroke-linejoin:miter;stroke-width:0.8;"/>
   </g>
   <g id="patch_51">
    <path clip-path="url(#p5c9da5cc9c)" d="M 372.308333 285.181068 
L 372.308333 285.181068 
L 372.308333 281.873062 
L 372.308333 281.873062 
z
" style="fill:#471365;opacity:0.4;stroke:#ffffff;stroke-linejoin:miter;stroke-width:0.8;"/>
   </g>
   <g id="patch_52">
    <path clip-path="url(#p5c9da5cc9c)" d="M 372.308333 281.873062 
L 372.308333 281.873062 
L 372.308333 278.565056 
L 372.308333 278.565056 
z
" style="fill:#471365;opacity:0.4;stroke:#ffffff;stroke-linejoin:miter;stroke-width:0.8;"/>
   </g>
   <g id="patch_53">
    <path clip-path="url(#p5c9da5cc9c)" d="M 372.308333 278.565056 
L 372.308333 278.565056 
L 372.308333 275.257051 
L 372.308333 275.257051 
z
" style="fill:#471365;opacity:0.4;stroke:#ffffff;stroke-linejoin:miter;stroke-width:0.8;"/>
   </g>
   <g id="patch_54">
    <path clip-path="url(#p5c9da5cc9c)" d="M 372.308333 275.257051 
L 372.308333 275.257051 
L 372.308333 271.949045 
L 372.308333 271.949045 
z
" style="fill:#471365;opacity:0.4;stroke:#ffffff;stroke-linejoin:miter;stroke-width:0.8;"/>
   </g>
   <g id="patch_55">
    <path clip-path="url(#p5c9da5cc9c)" d="M 372.308333 271.949045 
L 372.308333 271.949045 
L 372.308333 268.64104 
L 372.308333 268.64104 
z
" style="fill:#471365;opacity:0.4;stroke:#ffffff;stroke-linejoin:miter;stroke-width:0.8;"/>
   </g>
   <g id="patch_56">
    <path clip-path="url(#p5c9da5cc9c)" d="M 372.308333 268.64104 
L 372.308333 268.64104 
L 372.308333 265.333034 
L 372.308333 265.333034 
z
" style="fill:#471365;opacity:0.4;stroke:#ffffff;stroke-linejoin:miter;stroke-width:0.8;"/>
   </g>
   <g id="patch_57">
    <path clip-path="url(#p5c9da5cc9c)" d="M 372.308333 265.333034 
L 372.308333 265.333034 
L 372.308333 262.025028 
L 372.308333 262.025028 
z
" style="fill:#471365;opacity:0.4;stroke:#ffffff;stroke-linejoin:miter;stroke-width:0.8;"/>
   </g>
   <g id="patch_58">
    <path clip-path="url(#p5c9da5cc9c)" d="M 372.308333 262.025028 
L 372.308333 262.025028 
L 372.308333 258.717023 
L 372.308333 258.717023 
z
" style="fill:#471365;opacity:0.4;stroke:#ffffff;stroke-linejoin:miter;stroke-width:0.8;"/>
   </g>
   <g id="patch_59">
    <path clip-path="url(#p5c9da5cc9c)" d="M 372.308333 258.717023 
L 372.308333 258.717023 
L 372.308333 255.409017 
L 372.308333 255.409017 
z
" style="fill:#471365;opacity:0.4;stroke:#ffffff;stroke-linejoin:miter;stroke-width:0.8;"/>
   </g>
   <g id="patch_60">
    <path clip-path="url(#p5c9da5cc9c)" d="M 372.308333 255.409017 
L 372.308333 255.409017 
L 372.308333 252.101012 
L 372.308333 252.101012 
z
" style="fill:#471365;opacity:0.4;stroke:#ffffff;stroke-linejoin:miter;stroke-width:0.8;"/>
   </g>
   <g id="patch_61">
    <path clip-path="url(#p5c9da5cc9c)" d="M 372.308333 252.101012 
L 373.165314 252.101012 
L 373.165314 248.793006 
L 372.308333 248.793006 
z
" style="fill:#471365;opacity:0.4;stroke:#ffffff;stroke-linejoin:miter;stroke-width:0.8;"/>
   </g>
   <g id="patch_62">
    <path clip-path="url(#p5c9da5cc9c)" d="M 372.308333 248.793006 
L 372.308333 248.793006 
L 372.308333 245.485 
L 372.308333 245.485 
z
" style="fill:#471365;opacity:0.4;stroke:#ffffff;stroke-linejoin:miter;stroke-width:0.8;"/>
   </g>
   <g id="patch_63">
    <path clip-path="url(#p5c9da5cc9c)" d="M 372.308333 245.485 
L 373.165314 245.485 
L 373.165314 242.176995 
L 372.308333 242.176995 
z
" style="fill:#471365;opacity:0.4;stroke:#ffffff;stroke-linejoin:miter;stroke-width:0.8;"/>
   </g>
   <g id="patch_64">
    <path clip-path="url(#p5c9da5cc9c)" d="M 372.308333 242.176995 
L 372.308333 242.176995 
L 372.308333 238.868989 
L 372.308333 238.868989 
z
" style="fill:#471365;opacity:0.4;stroke:#ffffff;stroke-linejoin:miter;stroke-width:0.8;"/>
   </g>
   <g id="patch_65">
    <path clip-path="url(#p5c9da5cc9c)" d="M 372.308333 238.868989 
L 372.308333 238.868989 
L 372.308333 235.560984 
L 372.308333 235.560984 
z
" style="fill:#471365;opacity:0.4;stroke:#ffffff;stroke-linejoin:miter;stroke-width:0.8;"/>
   </g>
   <g id="patch_66">
    <path clip-path="url(#p5c9da5cc9c)" d="M 372.308333 235.560984 
L 372.308333 235.560984 
L 372.308333 232.252978 
L 372.308333 232.252978 
z
" style="fill:#471365;opacity:0.4;stroke:#ffffff;stroke-linejoin:miter;stroke-width:0.8;"/>
   </g>
   <g id="patch_67">
    <path clip-path="url(#p5c9da5cc9c)" d="M 372.308333 232.252978 
L 372.308333 232.252978 
L 372.308333 228.944972 
L 372.308333 228.944972 
z
" style="fill:#471365;opacity:0.4;stroke:#ffffff;stroke-linejoin:miter;stroke-width:0.8;"/>
   </g>
   <g id="patch_68">
    <path clip-path="url(#p5c9da5cc9c)" d="M 372.308333 228.944972 
L 372.308333 228.944972 
L 372.308333 225.636967 
L 372.308333 225.636967 
z
" style="fill:#471365;opacity:0.4;stroke:#ffffff;stroke-linejoin:miter;stroke-width:0.8;"/>
   </g>
   <g id="patch_69">
    <path clip-path="url(#p5c9da5cc9c)" d="M 372.308333 225.636967 
L 372.308333 225.636967 
L 372.308333 222.328961 
L 372.308333 222.328961 
z
" style="fill:#471365;opacity:0.4;stroke:#ffffff;stroke-linejoin:miter;stroke-width:0.8;"/>
   </g>
   <g id="patch_70">
    <path clip-path="url(#p5c9da5cc9c)" d="M 372.308333 222.328961 
L 372.308333 222.328961 
L 372.308333 219.020956 
L 372.308333 219.020956 
z
" style="fill:#471365;opacity:0.4;stroke:#ffffff;stroke-linejoin:miter;stroke-width:0.8;"/>
   </g>
   <g id="patch_71">
    <path clip-path="url(#p5c9da5cc9c)" d="M 372.308333 219.020956 
L 372.308333 219.020956 
L 372.308333 215.71295 
L 372.308333 215.71295 
z
" style="fill:#471365;opacity:0.4;stroke:#ffffff;stroke-linejoin:miter;stroke-width:0.8;"/>
   </g>
   <g id="patch_72">
    <path clip-path="url(#p5c9da5cc9c)" d="M 372.308333 215.71295 
L 372.308333 215.71295 
L 372.308333 212.404944 
L 372.308333 212.404944 
z
" style="fill:#471365;opacity:0.4;stroke:#ffffff;stroke-linejoin:miter;stroke-width:0.8;"/>
   </g>
   <g id="patch_73">
    <path clip-path="url(#p5c9da5cc9c)" d="M 372.308333 212.404944 
L 372.308333 212.404944 
L 372.308333 209.096939 
L 372.308333 209.096939 
z
" style="fill:#471365;opacity:0.4;stroke:#ffffff;stroke-linejoin:miter;stroke-width:0.8;"/>
   </g>
   <g id="patch_74">
    <path clip-path="url(#p5c9da5cc9c)" d="M 372.308333 209.096939 
L 373.165314 209.096939 
L 373.165314 205.788933 
L 372.308333 205.788933 
z
" style="fill:#471365;opacity:0.4;stroke:#ffffff;stroke-linejoin:miter;stroke-width:0.8;"/>
   </g>
   <g id="line2d_35">
    <path clip-path="url(#p5c9da5cc9c)" d="M 372.326386 390.089929 
L 372.361519 388.037386 
L 372.451385 385.984844 
L 372.659971 383.932301 
L 373.099126 381.879759 
L 373.937267 379.827216 
L 375.385649 377.774674 
L 377.647618 375.722131 
L 380.829888 373.669589 
L 384.840796 371.617046 
L 389.324814 369.564504 
L 393.684507 367.511961 
L 397.208849 365.459418 
L 399.272718 363.406876 
L 399.528823 361.354333 
L 398.00987 359.301791 
L 395.09953 357.249248 
L 391.391756 355.196706 
L 387.504809 353.144163 
L 383.92612 351.091621 
L 380.936926 349.039078 
L 378.621129 346.986536 
L 376.926693 344.933993 
L 375.736955 342.881451 
L 374.922548 340.828908 
L 374.367254 338.776365 
L 373.976664 336.723823 
L 373.680658 334.67128 
L 373.434613 332.618738 
L 373.218527 330.566195 
L 373.032217 328.513653 
L 372.88681 326.46111 
L 372.794663 324.408568 
L 372.760452 322.356025 
L 372.775999 320.303483 
L 372.82073 318.25094 
L 372.867995 316.198398 
L 372.894681 314.145855 
L 372.889361 312.093312 
L 372.854629 310.04077 
L 372.802815 307.988227 
L 372.748271 305.935685 
L 372.700918 303.883142 
L 372.663752 301.8306 
L 372.634003 299.778057 
L 372.606021 297.725515 
L 372.574298 295.672972 
L 372.53586 293.62043 
L 372.491458 291.567887 
L 372.445114 289.515345 
L 372.402204 287.462802 
L 372.36711 285.410259 
L 372.341751 283.357717 
L 372.325534 281.305174 
L 372.316343 279.252632 
L 372.311748 277.200089 
L 372.309821 275.147547 
L 372.309457 273.095004 
L 372.310418 271.042462 
L 372.313333 268.989919 
L 372.319732 266.937377 
L 372.331954 264.884834 
L 372.352684 262.832292 
L 372.383924 260.779749 
L 372.42566 258.727206 
L 372.474844 256.674664 
L 372.525426 254.622121 
L 372.569658 252.569579 
L 372.600105 250.517036 
L 372.611496 248.464494 
L 372.601851 246.411951 
L 372.572846 244.359409 
L 372.529508 242.306866 
L 372.479152 240.254324 
L 372.429582 238.201781 
L 372.387056 236.149239 
L 372.3549 234.096696 
L 372.333366 232.044153 
L 372.320607 229.991611 
L 372.314059 227.939068 
L 372.311586 225.886526 
L 372.312113 223.833983 
L 372.315831 221.781441 
L 372.324073 219.728898 
L 372.338808 217.676356 
L 372.361601 215.623813 
L 372.392145 213.571271 
L 372.426993 211.518728 
L 372.459491 209.466186 
L 372.481587 207.413643 
L 372.487006 205.3611 
L 372.474123 203.308558 
L 372.446748 201.256015 
L 372.412309 199.203473 
L 372.378609 197.15093 
L 372.35107 195.098388 
L 372.331718 193.045845 
L 372.319846 190.993303 
L 372.313433 188.94076 
L 372.310366 186.888218 
" style="fill:none;stroke:#471365;stroke-linecap:round;stroke-width:1.2;"/>
   </g>
   <g id="patch_75">
    <path d="M 372.308333 389.9 
L 372.308333 81.383333 
" style="fill:none;stroke:#262626;stroke-linecap:square;stroke-linejoin:miter;"/>
   </g>
  </g>
 </g>
 <defs>
  <clipPath id="p8dede05a0a">
   <rect height="308.516667" width="302.058333" x="49.85" y="81.383333"/>
  </clipPath>
  <clipPath id="pff3ded7fe0">
   <rect height="45.383333" width="302.058333" x="49.85" y="15.6"/>
  </clipPath>
  <clipPath id="p5c9da5cc9c">
   <rect height="308.516667" width="44.091667" x="372.308333" y="81.383333"/>
  </clipPath>
 </defs>
</svg>
