<?xml version="1.0" encoding="utf-8" standalone="no"?>
<!DOCTYPE svg PUBLIC "-//W3C//DTD SVG 1.1//EN"
  "http://www.w3.org/Graphics/SVG/1.1/DTD/svg11.dtd">
<!-- Created with matplotlib (http://matplotlib.org/) -->
<svg height="432pt" version="1.1" viewBox="0 0 432 432" width="432pt" xmlns="http://www.w3.org/2000/svg" xmlns:xlink="http://www.w3.org/1999/xlink">
 <defs>
  <style type="text/css">
*{stroke-linecap:butt;stroke-linejoin:round;}
  </style>
 </defs>
 <g id="figure_1">
  <g id="patch_1">
   <path d="M 0 432 
L 432 432 
L 432 0 
L 0 0 
z
" style="fill:#ffffff;"/>
  </g>
  <g id="axes_1">
   <g id="patch_2">
    <path d="M 49.418 390.332 
L 352.268333 390.332 
L 352.268333 81.023333 
L 49.418 81.023333 
z
" style="fill:#ffffff;"/>
   </g>
   <g id="matplotlib.axis_1">
    <g id="xtick_1">
     <g id="line2d_1">
      <defs>
       <path d="M 0 0 
L 0 4.8 
" id="mb2bc570a80" style="stroke:#262626;"/>
      </defs>
      <g>
       <use style="fill:#262626;stroke:#262626;" x="67.641927" xlink:href="#mb2bc570a80" y="390.332"/>
      </g>
     </g>
     <g id="text_1">
      <!-- 7 -->
      <defs>
       <path d="M 8.203125 72.90625 
L 55.078125 72.90625 
L 55.078125 68.703125 
L 28.609375 0 
L 18.3125 0 
L 43.21875 64.59375 
L 8.203125 64.59375 
z
" id="DejaVuSans-37"/>
      </defs>
      <g style="fill:#262626;" transform="translate(64.842427 405.318625)scale(0.088 -0.088)">
       <use xlink:href="#DejaVuSans-37"/>
      </g>
     </g>
    </g>
    <g id="xtick_2">
     <g id="line2d_2">
      <g>
       <use style="fill:#262626;stroke:#262626;" x="126.954578" xlink:href="#mb2bc570a80" y="390.332"/>
      </g>
     </g>
     <g id="text_2">
      <!-- 8 -->
      <defs>
       <path d="M 31.78125 34.625 
Q 24.75 34.625 20.71875 30.859375 
Q 16.703125 27.09375 16.703125 20.515625 
Q 16.703125 13.921875 20.71875 10.15625 
Q 24.75 6.390625 31.78125 6.390625 
Q 38.8125 6.390625 42.859375 10.171875 
Q 46.921875 13.96875 46.921875 20.515625 
Q 46.921875 27.09375 42.890625 30.859375 
Q 38.875 34.625 31.78125 34.625 
z
M 21.921875 38.8125 
Q 15.578125 40.375 12.03125 44.71875 
Q 8.5 49.078125 8.5 55.328125 
Q 8.5 64.0625 14.71875 69.140625 
Q 20.953125 74.21875 31.78125 74.21875 
Q 42.671875 74.21875 48.875 69.140625 
Q 55.078125 64.0625 55.078125 55.328125 
Q 55.078125 49.078125 51.53125 44.71875 
Q 48 40.375 41.703125 38.8125 
Q 48.828125 37.15625 52.796875 32.3125 
Q 56.78125 27.484375 56.78125 20.515625 
Q 56.78125 9.90625 50.3125 4.234375 
Q 43.84375 -1.421875 31.78125 -1.421875 
Q 19.734375 -1.421875 13.25 4.234375 
Q 6.78125 9.90625 6.78125 20.515625 
Q 6.78125 27.484375 10.78125 32.3125 
Q 14.796875 37.15625 21.921875 38.8125 
z
M 18.3125 54.390625 
Q 18.3125 48.734375 21.84375 45.5625 
Q 25.390625 42.390625 31.78125 42.390625 
Q 38.140625 42.390625 41.71875 45.5625 
Q 45.3125 48.734375 45.3125 54.390625 
Q 45.3125 60.0625 41.71875 63.234375 
Q 38.140625 66.40625 31.78125 66.40625 
Q 25.390625 66.40625 21.84375 63.234375 
Q 18.3125 60.0625 18.3125 54.390625 
z
" id="DejaVuSans-38"/>
      </defs>
      <g style="fill:#262626;" transform="translate(124.155078 405.318625)scale(0.088 -0.088)">
       <use xlink:href="#DejaVuSans-38"/>
      </g>
     </g>
    </g>
    <g id="xtick_3">
     <g id="line2d_3">
      <g>
       <use style="fill:#262626;stroke:#262626;" x="186.267229" xlink:href="#mb2bc570a80" y="390.332"/>
      </g>
     </g>
     <g id="text_3">
      <!-- 9 -->
      <defs>
       <path d="M 10.984375 1.515625 
L 10.984375 10.5 
Q 14.703125 8.734375 18.5 7.8125 
Q 22.3125 6.890625 25.984375 6.890625 
Q 35.75 6.890625 40.890625 13.453125 
Q 46.046875 20.015625 46.78125 33.40625 
Q 43.953125 29.203125 39.59375 26.953125 
Q 35.25 24.703125 29.984375 24.703125 
Q 19.046875 24.703125 12.671875 31.3125 
Q 6.296875 37.9375 6.296875 49.421875 
Q 6.296875 60.640625 12.9375 67.421875 
Q 19.578125 74.21875 30.609375 74.21875 
Q 43.265625 74.21875 49.921875 64.515625 
Q 56.59375 54.828125 56.59375 36.375 
Q 56.59375 19.140625 48.40625 8.859375 
Q 40.234375 -1.421875 26.421875 -1.421875 
Q 22.703125 -1.421875 18.890625 -0.6875 
Q 15.09375 0.046875 10.984375 1.515625 
z
M 30.609375 32.421875 
Q 37.25 32.421875 41.125 36.953125 
Q 45.015625 41.5 45.015625 49.421875 
Q 45.015625 57.28125 41.125 61.84375 
Q 37.25 66.40625 30.609375 66.40625 
Q 23.96875 66.40625 20.09375 61.84375 
Q 16.21875 57.28125 16.21875 49.421875 
Q 16.21875 41.5 20.09375 36.953125 
Q 23.96875 32.421875 30.609375 32.421875 
z
" id="DejaVuSans-39"/>
      </defs>
      <g style="fill:#262626;" transform="translate(183.467729 405.318625)scale(0.088 -0.088)">
       <use xlink:href="#DejaVuSans-39"/>
      </g>
     </g>
    </g>
    <g id="xtick_4">
     <g id="line2d_4">
      <g>
       <use style="fill:#262626;stroke:#262626;" x="245.57988" xlink:href="#mb2bc570a80" y="390.332"/>
      </g>
     </g>
     <g id="text_4">
      <!-- 10 -->
      <defs>
       <path d="M 12.40625 8.296875 
L 28.515625 8.296875 
L 28.515625 63.921875 
L 10.984375 60.40625 
L 10.984375 69.390625 
L 28.421875 72.90625 
L 38.28125 72.90625 
L 38.28125 8.296875 
L 54.390625 8.296875 
L 54.390625 0 
L 12.40625 0 
z
" id="DejaVuSans-31"/>
       <path d="M 31.78125 66.40625 
Q 24.171875 66.40625 20.328125 58.90625 
Q 16.5 51.421875 16.5 36.375 
Q 16.5 21.390625 20.328125 13.890625 
Q 24.171875 6.390625 31.78125 6.390625 
Q 39.453125 6.390625 43.28125 13.890625 
Q 47.125 21.390625 47.125 36.375 
Q 47.125 51.421875 43.28125 58.90625 
Q 39.453125 66.40625 31.78125 66.40625 
z
M 31.78125 74.21875 
Q 44.046875 74.21875 50.515625 64.515625 
Q 56.984375 54.828125 56.984375 36.375 
Q 56.984375 17.96875 50.515625 8.265625 
Q 44.046875 -1.421875 31.78125 -1.421875 
Q 19.53125 -1.421875 13.0625 8.265625 
Q 6.59375 17.96875 6.59375 36.375 
Q 6.59375 54.828125 13.0625 64.515625 
Q 19.53125 74.21875 31.78125 74.21875 
z
" id="DejaVuSans-30"/>
      </defs>
      <g style="fill:#262626;" transform="translate(239.98088 405.318625)scale(0.088 -0.088)">
       <use xlink:href="#DejaVuSans-31"/>
       <use x="63.623047" xlink:href="#DejaVuSans-30"/>
      </g>
     </g>
    </g>
    <g id="xtick_5">
     <g id="line2d_5">
      <g>
       <use style="fill:#262626;stroke:#262626;" x="304.892531" xlink:href="#mb2bc570a80" y="390.332"/>
      </g>
     </g>
     <g id="text_5">
      <!-- 11 -->
      <g style="fill:#262626;" transform="translate(299.293531 405.318625)scale(0.088 -0.088)">
       <use xlink:href="#DejaVuSans-31"/>
       <use x="63.623047" xlink:href="#DejaVuSans-31"/>
      </g>
     </g>
    </g>
    <g id="text_6">
     <!-- log(n) -->
     <defs>
      <path d="M 9.421875 75.984375 
L 18.40625 75.984375 
L 18.40625 0 
L 9.421875 0 
z
" id="DejaVuSans-6c"/>
      <path d="M 30.609375 48.390625 
Q 23.390625 48.390625 19.1875 42.75 
Q 14.984375 37.109375 14.984375 27.296875 
Q 14.984375 17.484375 19.15625 11.84375 
Q 23.34375 6.203125 30.609375 6.203125 
Q 37.796875 6.203125 41.984375 11.859375 
Q 46.1875 17.53125 46.1875 27.296875 
Q 46.1875 37.015625 41.984375 42.703125 
Q 37.796875 48.390625 30.609375 48.390625 
z
M 30.609375 56 
Q 42.328125 56 49.015625 48.375 
Q 55.71875 40.765625 55.71875 27.296875 
Q 55.71875 13.875 49.015625 6.21875 
Q 42.328125 -1.421875 30.609375 -1.421875 
Q 18.84375 -1.421875 12.171875 6.21875 
Q 5.515625 13.875 5.515625 27.296875 
Q 5.515625 40.765625 12.171875 48.375 
Q 18.84375 56 30.609375 56 
z
" id="DejaVuSans-6f"/>
      <path d="M 45.40625 27.984375 
Q 45.40625 37.75 41.375 43.109375 
Q 37.359375 48.484375 30.078125 48.484375 
Q 22.859375 48.484375 18.828125 43.109375 
Q 14.796875 37.75 14.796875 27.984375 
Q 14.796875 18.265625 18.828125 12.890625 
Q 22.859375 7.515625 30.078125 7.515625 
Q 37.359375 7.515625 41.375 12.890625 
Q 45.40625 18.265625 45.40625 27.984375 
z
M 54.390625 6.78125 
Q 54.390625 -7.171875 48.1875 -13.984375 
Q 42 -20.796875 29.203125 -20.796875 
Q 24.46875 -20.796875 20.265625 -20.09375 
Q 16.0625 -19.390625 12.109375 -17.921875 
L 12.109375 -9.1875 
Q 16.0625 -11.328125 19.921875 -12.34375 
Q 23.78125 -13.375 27.78125 -13.375 
Q 36.625 -13.375 41.015625 -8.765625 
Q 45.40625 -4.15625 45.40625 5.171875 
L 45.40625 9.625 
Q 42.625 4.78125 38.28125 2.390625 
Q 33.9375 0 27.875 0 
Q 17.828125 0 11.671875 7.65625 
Q 5.515625 15.328125 5.515625 27.984375 
Q 5.515625 40.671875 11.671875 48.328125 
Q 17.828125 56 27.875 56 
Q 33.9375 56 38.28125 53.609375 
Q 42.625 51.21875 45.40625 46.390625 
L 45.40625 54.6875 
L 54.390625 54.6875 
z
" id="DejaVuSans-67"/>
      <path d="M 31 75.875 
Q 24.46875 64.65625 21.28125 53.65625 
Q 18.109375 42.671875 18.109375 31.390625 
Q 18.109375 20.125 21.3125 9.0625 
Q 24.515625 -2 31 -13.1875 
L 23.1875 -13.1875 
Q 15.875 -1.703125 12.234375 9.375 
Q 8.59375 20.453125 8.59375 31.390625 
Q 8.59375 42.28125 12.203125 53.3125 
Q 15.828125 64.359375 23.1875 75.875 
z
" id="DejaVuSans-28"/>
      <path d="M 54.890625 33.015625 
L 54.890625 0 
L 45.90625 0 
L 45.90625 32.71875 
Q 45.90625 40.484375 42.875 44.328125 
Q 39.84375 48.1875 33.796875 48.1875 
Q 26.515625 48.1875 22.3125 43.546875 
Q 18.109375 38.921875 18.109375 30.90625 
L 18.109375 0 
L 9.078125 0 
L 9.078125 54.6875 
L 18.109375 54.6875 
L 18.109375 46.1875 
Q 21.34375 51.125 25.703125 53.5625 
Q 30.078125 56 35.796875 56 
Q 45.21875 56 50.046875 50.171875 
Q 54.890625 44.34375 54.890625 33.015625 
z
" id="DejaVuSans-6e"/>
      <path d="M 8.015625 75.875 
L 15.828125 75.875 
Q 23.140625 64.359375 26.78125 53.3125 
Q 30.421875 42.28125 30.421875 31.390625 
Q 30.421875 20.453125 26.78125 9.375 
Q 23.140625 -1.703125 15.828125 -13.1875 
L 8.015625 -13.1875 
Q 14.5 -2 17.703125 9.0625 
Q 20.90625 20.125 20.90625 31.390625 
Q 20.90625 42.671875 17.703125 53.65625 
Q 14.5 64.65625 8.015625 75.875 
z
" id="DejaVuSans-29"/>
     </defs>
     <g style="fill:#262626;" transform="translate(186.737917 418.44325)scale(0.096 -0.096)">
      <use xlink:href="#DejaVuSans-6c"/>
      <use x="27.783203" xlink:href="#DejaVuSans-6f"/>
      <use x="88.964844" xlink:href="#DejaVuSans-67"/>
      <use x="152.441406" xlink:href="#DejaVuSans-28"/>
      <use x="191.455078" xlink:href="#DejaVuSans-6e"/>
      <use x="254.833984" xlink:href="#DejaVuSans-29"/>
     </g>
    </g>
   </g>
   <g id="matplotlib.axis_2">
    <g id="ytick_1">
     <g id="line2d_6">
      <defs>
       <path d="M 0 0 
L -4.8 0 
" id="mc79c24c76e" style="stroke:#262626;"/>
      </defs>
      <g>
       <use style="fill:#262626;stroke:#262626;" x="49.418" xlink:href="#mc79c24c76e" y="390.332"/>
      </g>
     </g>
     <g id="text_7">
      <!-- 0 -->
      <g style="fill:#262626;" transform="translate(35.519 393.675313)scale(0.088 -0.088)">
       <use xlink:href="#DejaVuSans-30"/>
      </g>
     </g>
    </g>
    <g id="ytick_2">
     <g id="line2d_7">
      <g>
       <use style="fill:#262626;stroke:#262626;" x="49.418" xlink:href="#mc79c24c76e" y="334.094061"/>
      </g>
     </g>
     <g id="text_8">
      <!-- 20 -->
      <defs>
       <path d="M 19.1875 8.296875 
L 53.609375 8.296875 
L 53.609375 0 
L 7.328125 0 
L 7.328125 8.296875 
Q 12.9375 14.109375 22.625 23.890625 
Q 32.328125 33.6875 34.8125 36.53125 
Q 39.546875 41.84375 41.421875 45.53125 
Q 43.3125 49.21875 43.3125 52.78125 
Q 43.3125 58.59375 39.234375 62.25 
Q 35.15625 65.921875 28.609375 65.921875 
Q 23.96875 65.921875 18.8125 64.3125 
Q 13.671875 62.703125 7.8125 59.421875 
L 7.8125 69.390625 
Q 13.765625 71.78125 18.9375 73 
Q 24.125 74.21875 28.421875 74.21875 
Q 39.75 74.21875 46.484375 68.546875 
Q 53.21875 62.890625 53.21875 53.421875 
Q 53.21875 48.921875 51.53125 44.890625 
Q 49.859375 40.875 45.40625 35.40625 
Q 44.1875 33.984375 37.640625 27.21875 
Q 31.109375 20.453125 19.1875 8.296875 
z
" id="DejaVuSans-32"/>
      </defs>
      <g style="fill:#262626;" transform="translate(29.92 337.437373)scale(0.088 -0.088)">
       <use xlink:href="#DejaVuSans-32"/>
       <use x="63.623047" xlink:href="#DejaVuSans-30"/>
      </g>
     </g>
    </g>
    <g id="ytick_3">
     <g id="line2d_8">
      <g>
       <use style="fill:#262626;stroke:#262626;" x="49.418" xlink:href="#mc79c24c76e" y="277.856121"/>
      </g>
     </g>
     <g id="text_9">
      <!-- 40 -->
      <defs>
       <path d="M 37.796875 64.3125 
L 12.890625 25.390625 
L 37.796875 25.390625 
z
M 35.203125 72.90625 
L 47.609375 72.90625 
L 47.609375 25.390625 
L 58.015625 25.390625 
L 58.015625 17.1875 
L 47.609375 17.1875 
L 47.609375 0 
L 37.796875 0 
L 37.796875 17.1875 
L 4.890625 17.1875 
L 4.890625 26.703125 
z
" id="DejaVuSans-34"/>
      </defs>
      <g style="fill:#262626;" transform="translate(29.92 281.199434)scale(0.088 -0.088)">
       <use xlink:href="#DejaVuSans-34"/>
       <use x="63.623047" xlink:href="#DejaVuSans-30"/>
      </g>
     </g>
    </g>
    <g id="ytick_4">
     <g id="line2d_9">
      <g>
       <use style="fill:#262626;stroke:#262626;" x="49.418" xlink:href="#mc79c24c76e" y="221.618182"/>
      </g>
     </g>
     <g id="text_10">
      <!-- 60 -->
      <defs>
       <path d="M 33.015625 40.375 
Q 26.375 40.375 22.484375 35.828125 
Q 18.609375 31.296875 18.609375 23.390625 
Q 18.609375 15.53125 22.484375 10.953125 
Q 26.375 6.390625 33.015625 6.390625 
Q 39.65625 6.390625 43.53125 10.953125 
Q 47.40625 15.53125 47.40625 23.390625 
Q 47.40625 31.296875 43.53125 35.828125 
Q 39.65625 40.375 33.015625 40.375 
z
M 52.59375 71.296875 
L 52.59375 62.3125 
Q 48.875 64.0625 45.09375 64.984375 
Q 41.3125 65.921875 37.59375 65.921875 
Q 27.828125 65.921875 22.671875 59.328125 
Q 17.53125 52.734375 16.796875 39.40625 
Q 19.671875 43.65625 24.015625 45.921875 
Q 28.375 48.1875 33.59375 48.1875 
Q 44.578125 48.1875 50.953125 41.515625 
Q 57.328125 34.859375 57.328125 23.390625 
Q 57.328125 12.15625 50.6875 5.359375 
Q 44.046875 -1.421875 33.015625 -1.421875 
Q 20.359375 -1.421875 13.671875 8.265625 
Q 6.984375 17.96875 6.984375 36.375 
Q 6.984375 53.65625 15.1875 63.9375 
Q 23.390625 74.21875 37.203125 74.21875 
Q 40.921875 74.21875 44.703125 73.484375 
Q 48.484375 72.75 52.59375 71.296875 
z
" id="DejaVuSans-36"/>
      </defs>
      <g style="fill:#262626;" transform="translate(29.92 224.961494)scale(0.088 -0.088)">
       <use xlink:href="#DejaVuSans-36"/>
       <use x="63.623047" xlink:href="#DejaVuSans-30"/>
      </g>
     </g>
    </g>
    <g id="ytick_5">
     <g id="line2d_10">
      <g>
       <use style="fill:#262626;stroke:#262626;" x="49.418" xlink:href="#mc79c24c76e" y="165.380242"/>
      </g>
     </g>
     <g id="text_11">
      <!-- 80 -->
      <g style="fill:#262626;" transform="translate(29.92 168.723555)scale(0.088 -0.088)">
       <use xlink:href="#DejaVuSans-38"/>
       <use x="63.623047" xlink:href="#DejaVuSans-30"/>
      </g>
     </g>
    </g>
    <g id="ytick_6">
     <g id="line2d_11">
      <g>
       <use style="fill:#262626;stroke:#262626;" x="49.418" xlink:href="#mc79c24c76e" y="109.142303"/>
      </g>
     </g>
     <g id="text_12">
      <!-- 100 -->
      <g style="fill:#262626;" transform="translate(24.321 112.485616)scale(0.088 -0.088)">
       <use xlink:href="#DejaVuSans-31"/>
       <use x="63.623047" xlink:href="#DejaVuSans-30"/>
       <use x="127.246094" xlink:href="#DejaVuSans-30"/>
      </g>
     </g>
    </g>
    <g id="text_13">
     <!-- Time to cancer -->
     <defs>
      <path d="M -0.296875 72.90625 
L 61.375 72.90625 
L 61.375 64.59375 
L 35.5 64.59375 
L 35.5 0 
L 25.59375 0 
L 25.59375 64.59375 
L -0.296875 64.59375 
z
" id="DejaVuSans-54"/>
      <path d="M 9.421875 54.6875 
L 18.40625 54.6875 
L 18.40625 0 
L 9.421875 0 
z
M 9.421875 75.984375 
L 18.40625 75.984375 
L 18.40625 64.59375 
L 9.421875 64.59375 
z
" id="DejaVuSans-69"/>
      <path d="M 52 44.1875 
Q 55.375 50.25 60.0625 53.125 
Q 64.75 56 71.09375 56 
Q 79.640625 56 84.28125 50.015625 
Q 88.921875 44.046875 88.921875 33.015625 
L 88.921875 0 
L 79.890625 0 
L 79.890625 32.71875 
Q 79.890625 40.578125 77.09375 44.375 
Q 74.3125 48.1875 68.609375 48.1875 
Q 61.625 48.1875 57.5625 43.546875 
Q 53.515625 38.921875 53.515625 30.90625 
L 53.515625 0 
L 44.484375 0 
L 44.484375 32.71875 
Q 44.484375 40.625 41.703125 44.40625 
Q 38.921875 48.1875 33.109375 48.1875 
Q 26.21875 48.1875 22.15625 43.53125 
Q 18.109375 38.875 18.109375 30.90625 
L 18.109375 0 
L 9.078125 0 
L 9.078125 54.6875 
L 18.109375 54.6875 
L 18.109375 46.1875 
Q 21.1875 51.21875 25.484375 53.609375 
Q 29.78125 56 35.6875 56 
Q 41.65625 56 45.828125 52.96875 
Q 50 49.953125 52 44.1875 
z
" id="DejaVuSans-6d"/>
      <path d="M 56.203125 29.59375 
L 56.203125 25.203125 
L 14.890625 25.203125 
Q 15.484375 15.921875 20.484375 11.0625 
Q 25.484375 6.203125 34.421875 6.203125 
Q 39.59375 6.203125 44.453125 7.46875 
Q 49.3125 8.734375 54.109375 11.28125 
L 54.109375 2.78125 
Q 49.265625 0.734375 44.1875 -0.34375 
Q 39.109375 -1.421875 33.890625 -1.421875 
Q 20.796875 -1.421875 13.15625 6.1875 
Q 5.515625 13.8125 5.515625 26.8125 
Q 5.515625 40.234375 12.765625 48.109375 
Q 20.015625 56 32.328125 56 
Q 43.359375 56 49.78125 48.890625 
Q 56.203125 41.796875 56.203125 29.59375 
z
M 47.21875 32.234375 
Q 47.125 39.59375 43.09375 43.984375 
Q 39.0625 48.390625 32.421875 48.390625 
Q 24.90625 48.390625 20.390625 44.140625 
Q 15.875 39.890625 15.1875 32.171875 
z
" id="DejaVuSans-65"/>
      <path id="DejaVuSans-20"/>
      <path d="M 18.3125 70.21875 
L 18.3125 54.6875 
L 36.8125 54.6875 
L 36.8125 47.703125 
L 18.3125 47.703125 
L 18.3125 18.015625 
Q 18.3125 11.328125 20.140625 9.421875 
Q 21.96875 7.515625 27.59375 7.515625 
L 36.8125 7.515625 
L 36.8125 0 
L 27.59375 0 
Q 17.1875 0 13.234375 3.875 
Q 9.28125 7.765625 9.28125 18.015625 
L 9.28125 47.703125 
L 2.6875 47.703125 
L 2.6875 54.6875 
L 9.28125 54.6875 
L 9.28125 70.21875 
z
" id="DejaVuSans-74"/>
      <path d="M 48.78125 52.59375 
L 48.78125 44.1875 
Q 44.96875 46.296875 41.140625 47.34375 
Q 37.3125 48.390625 33.40625 48.390625 
Q 24.65625 48.390625 19.8125 42.84375 
Q 14.984375 37.3125 14.984375 27.296875 
Q 14.984375 17.28125 19.8125 11.734375 
Q 24.65625 6.203125 33.40625 6.203125 
Q 37.3125 6.203125 41.140625 7.25 
Q 44.96875 8.296875 48.78125 10.40625 
L 48.78125 2.09375 
Q 45.015625 0.34375 40.984375 -0.53125 
Q 36.96875 -1.421875 32.421875 -1.421875 
Q 20.0625 -1.421875 12.78125 6.34375 
Q 5.515625 14.109375 5.515625 27.296875 
Q 5.515625 40.671875 12.859375 48.328125 
Q 20.21875 56 33.015625 56 
Q 37.15625 56 41.109375 55.140625 
Q 45.0625 54.296875 48.78125 52.59375 
z
" id="DejaVuSans-63"/>
      <path d="M 34.28125 27.484375 
Q 23.390625 27.484375 19.1875 25 
Q 14.984375 22.515625 14.984375 16.5 
Q 14.984375 11.71875 18.140625 8.90625 
Q 21.296875 6.109375 26.703125 6.109375 
Q 34.1875 6.109375 38.703125 11.40625 
Q 43.21875 16.703125 43.21875 25.484375 
L 43.21875 27.484375 
z
M 52.203125 31.203125 
L 52.203125 0 
L 43.21875 0 
L 43.21875 8.296875 
Q 40.140625 3.328125 35.546875 0.953125 
Q 30.953125 -1.421875 24.3125 -1.421875 
Q 15.921875 -1.421875 10.953125 3.296875 
Q 6 8.015625 6 15.921875 
Q 6 25.140625 12.171875 29.828125 
Q 18.359375 34.515625 30.609375 34.515625 
L 43.21875 34.515625 
L 43.21875 35.40625 
Q 43.21875 41.609375 39.140625 45 
Q 35.0625 48.390625 27.6875 48.390625 
Q 23 48.390625 18.546875 47.265625 
Q 14.109375 46.140625 10.015625 43.890625 
L 10.015625 52.203125 
Q 14.9375 54.109375 19.578125 55.046875 
Q 24.21875 56 28.609375 56 
Q 40.484375 56 46.34375 49.84375 
Q 52.203125 43.703125 52.203125 31.203125 
z
" id="DejaVuSans-61"/>
      <path d="M 41.109375 46.296875 
Q 39.59375 47.171875 37.8125 47.578125 
Q 36.03125 48 33.890625 48 
Q 26.265625 48 22.1875 43.046875 
Q 18.109375 38.09375 18.109375 28.8125 
L 18.109375 0 
L 9.078125 0 
L 9.078125 54.6875 
L 18.109375 54.6875 
L 18.109375 46.1875 
Q 20.953125 51.171875 25.484375 53.578125 
Q 30.03125 56 36.53125 56 
Q 37.453125 56 38.578125 55.875 
Q 39.703125 55.765625 41.0625 55.515625 
z
" id="DejaVuSans-72"/>
     </defs>
     <g style="fill:#262626;" transform="translate(18.3245 271.628167)rotate(-90)scale(0.096 -0.096)">
      <use xlink:href="#DejaVuSans-54"/>
      <use x="61.037109" xlink:href="#DejaVuSans-69"/>
      <use x="88.820312" xlink:href="#DejaVuSans-6d"/>
      <use x="186.232422" xlink:href="#DejaVuSans-65"/>
      <use x="247.755859" xlink:href="#DejaVuSans-20"/>
      <use x="279.542969" xlink:href="#DejaVuSans-74"/>
      <use x="318.751953" xlink:href="#DejaVuSans-6f"/>
      <use x="379.933594" xlink:href="#DejaVuSans-20"/>
      <use x="411.720703" xlink:href="#DejaVuSans-63"/>
      <use x="466.701172" xlink:href="#DejaVuSans-61"/>
      <use x="527.980469" xlink:href="#DejaVuSans-6e"/>
      <use x="591.359375" xlink:href="#DejaVuSans-63"/>
      <use x="646.339844" xlink:href="#DejaVuSans-65"/>
      <use x="707.863281" xlink:href="#DejaVuSans-72"/>
     </g>
    </g>
   </g>
   <g id="PathCollection_1">
    <defs>
     <path d="M 0 2.4 
C 0.636487 2.4 1.246992 2.147121 1.697056 1.697056 
C 2.147121 1.246992 2.4 0.636487 2.4 0 
C 2.4 -0.636487 2.147121 -1.246992 1.697056 -1.697056 
C 1.246992 -2.147121 0.636487 -2.4 0 -2.4 
C -0.636487 -2.4 -1.246992 -2.147121 -1.697056 -1.697056 
C -2.147121 -1.246992 -2.4 -0.636487 -2.4 0 
C -2.4 0.636487 -2.147121 1.246992 -1.697056 1.697056 
C -1.246992 2.147121 -0.636487 2.4 0 2.4 
z
" id="mf87eaea4c4" style="stroke:#471365;stroke-opacity:0.8;"/>
    </defs>
    <g clip-path="url(#p1f942e6de4)">
     <use style="fill:#471365;fill-opacity:0.8;stroke:#471365;stroke-opacity:0.8;" x="288.405176" xlink:href="#mf87eaea4c4" y="361.750801"/>
     <use style="fill:#471365;fill-opacity:0.8;stroke:#471365;stroke-opacity:0.8;" x="190.807168" xlink:href="#mf87eaea4c4" y="359.023646"/>
     <use style="fill:#471365;fill-opacity:0.8;stroke:#471365;stroke-opacity:0.8;" x="284.856196" xlink:href="#mf87eaea4c4" y="364.501067"/>
     <use style="fill:#471365;fill-opacity:0.8;stroke:#471365;stroke-opacity:0.8;" x="291.927324" xlink:href="#mf87eaea4c4" y="359.547506"/>
     <use style="fill:#471365;fill-opacity:0.8;stroke:#471365;stroke-opacity:0.8;" x="254.808118" xlink:href="#mf87eaea4c4" y="285.020681"/>
     <use style="fill:#471365;fill-opacity:0.8;stroke:#471365;stroke-opacity:0.8;" x="283.479165" xlink:href="#mf87eaea4c4" y="328.632047"/>
     <use style="fill:#471365;fill-opacity:0.8;stroke:#471365;stroke-opacity:0.8;" x="276.297643" xlink:href="#mf87eaea4c4" y="356.989835"/>
     <use style="fill:#471365;fill-opacity:0.8;stroke:#471365;stroke-opacity:0.8;" x="203.392569" xlink:href="#mf87eaea4c4" y="364.732182"/>
     <use style="fill:#471365;fill-opacity:0.8;stroke:#471365;stroke-opacity:0.8;" x="286.616999" xlink:href="#mf87eaea4c4" y="358.268671"/>
     <use style="fill:#471365;fill-opacity:0.8;stroke:#471365;stroke-opacity:0.8;" x="267.185056" xlink:href="#mf87eaea4c4" y="364.300768"/>
     <use style="fill:#471365;fill-opacity:0.8;stroke:#471365;stroke-opacity:0.8;" x="283.292645" xlink:href="#mf87eaea4c4" y="364.554994"/>
     <use style="fill:#471365;fill-opacity:0.8;stroke:#471365;stroke-opacity:0.8;" x="268.628734" xlink:href="#mf87eaea4c4" y="364.061949"/>
     <use style="fill:#471365;fill-opacity:0.8;stroke:#471365;stroke-opacity:0.8;" x="247.399547" xlink:href="#mf87eaea4c4" y="367.598006"/>
     <use style="fill:#471365;fill-opacity:0.8;stroke:#471365;stroke-opacity:0.8;" x="239.150927" xlink:href="#mf87eaea4c4" y="351.489303"/>
     <use style="fill:#471365;fill-opacity:0.8;stroke:#471365;stroke-opacity:0.8;" x="282.394871" xlink:href="#mf87eaea4c4" y="366.234428"/>
     <use style="fill:#471365;fill-opacity:0.8;stroke:#471365;stroke-opacity:0.8;" x="282.405637" xlink:href="#mf87eaea4c4" y="358.430451"/>
     <use style="fill:#471365;fill-opacity:0.8;stroke:#471365;stroke-opacity:0.8;" x="294.739951" xlink:href="#mf87eaea4c4" y="361.042049"/>
     <use style="fill:#471365;fill-opacity:0.8;stroke:#471365;stroke-opacity:0.8;" x="285.592929" xlink:href="#mf87eaea4c4" y="362.629037"/>
     <use style="fill:#471365;fill-opacity:0.8;stroke:#471365;stroke-opacity:0.8;" x="288.142519" xlink:href="#mf87eaea4c4" y="358.199336"/>
     <use style="fill:#471365;fill-opacity:0.8;stroke:#471365;stroke-opacity:0.8;" x="255.732321" xlink:href="#mf87eaea4c4" y="361.68917"/>
     <use style="fill:#471365;fill-opacity:0.8;stroke:#471365;stroke-opacity:0.8;" x="263.505217" xlink:href="#mf87eaea4c4" y="361.011233"/>
     <use style="fill:#471365;fill-opacity:0.8;stroke:#471365;stroke-opacity:0.8;" x="210.756581" xlink:href="#mf87eaea4c4" y="363.92328"/>
     <use style="fill:#471365;fill-opacity:0.8;stroke:#471365;stroke-opacity:0.8;" x="282.870034" xlink:href="#mf87eaea4c4" y="362.47496"/>
     <use style="fill:#471365;fill-opacity:0.8;stroke:#471365;stroke-opacity:0.8;" x="283.695433" xlink:href="#mf87eaea4c4" y="363.892465"/>
     <use style="fill:#471365;fill-opacity:0.8;stroke:#471365;stroke-opacity:0.8;" x="288.977461" xlink:href="#mf87eaea4c4" y="362.143696"/>
     <use style="fill:#471365;fill-opacity:0.8;stroke:#471365;stroke-opacity:0.8;" x="275.215276" xlink:href="#mf87eaea4c4" y="344.941049"/>
     <use style="fill:#471365;fill-opacity:0.8;stroke:#471365;stroke-opacity:0.8;" x="275.183449" xlink:href="#mf87eaea4c4" y="360.672265"/>
     <use style="fill:#471365;fill-opacity:0.8;stroke:#471365;stroke-opacity:0.8;" x="273.928916" xlink:href="#mf87eaea4c4" y="358.653862"/>
     <use style="fill:#471365;fill-opacity:0.8;stroke:#471365;stroke-opacity:0.8;" x="293.139051" xlink:href="#mf87eaea4c4" y="361.026641"/>
     <use style="fill:#471365;fill-opacity:0.8;stroke:#471365;stroke-opacity:0.8;" x="295.132611" xlink:href="#mf87eaea4c4" y="365.394711"/>
     <use style="fill:#471365;fill-opacity:0.8;stroke:#471365;stroke-opacity:0.8;" x="285.668908" xlink:href="#mf87eaea4c4" y="357.636957"/>
     <use style="fill:#471365;fill-opacity:0.8;stroke:#471365;stroke-opacity:0.8;" x="253.230632" xlink:href="#mf87eaea4c4" y="329.933994"/>
     <use style="fill:#471365;fill-opacity:0.8;stroke:#471365;stroke-opacity:0.8;" x="293.261305" xlink:href="#mf87eaea4c4" y="362.1514"/>
     <use style="fill:#471365;fill-opacity:0.8;stroke:#471365;stroke-opacity:0.8;" x="287.099065" xlink:href="#mf87eaea4c4" y="358.46897"/>
     <use style="fill:#471365;fill-opacity:0.8;stroke:#471365;stroke-opacity:0.8;" x="293.085301" xlink:href="#mf87eaea4c4" y="349.501715"/>
     <use style="fill:#471365;fill-opacity:0.8;stroke:#471365;stroke-opacity:0.8;" x="222.890653" xlink:href="#mf87eaea4c4" y="366.912365"/>
     <use style="fill:#471365;fill-opacity:0.8;stroke:#471365;stroke-opacity:0.8;" x="294.718682" xlink:href="#mf87eaea4c4" y="292.516505"/>
     <use style="fill:#471365;fill-opacity:0.8;stroke:#471365;stroke-opacity:0.8;" x="277.980246" xlink:href="#mf87eaea4c4" y="365.464045"/>
     <use style="fill:#471365;fill-opacity:0.8;stroke:#471365;stroke-opacity:0.8;" x="284.093913" xlink:href="#mf87eaea4c4" y="360.633746"/>
     <use style="fill:#471365;fill-opacity:0.8;stroke:#471365;stroke-opacity:0.8;" x="267.182154" xlink:href="#mf87eaea4c4" y="369.231217"/>
     <use style="fill:#471365;fill-opacity:0.8;stroke:#471365;stroke-opacity:0.8;" x="240.159972" xlink:href="#mf87eaea4c4" y="356.242564"/>
     <use style="fill:#471365;fill-opacity:0.8;stroke:#471365;stroke-opacity:0.8;" x="265.971127" xlink:href="#mf87eaea4c4" y="365.525676"/>
     <use style="fill:#471365;fill-opacity:0.8;stroke:#471365;stroke-opacity:0.8;" x="289.600677" xlink:href="#mf87eaea4c4" y="360.872564"/>
     <use style="fill:#471365;fill-opacity:0.8;stroke:#471365;stroke-opacity:0.8;" x="290.217939" xlink:href="#mf87eaea4c4" y="364.878555"/>
     <use style="fill:#471365;fill-opacity:0.8;stroke:#471365;stroke-opacity:0.8;" x="292.036874" xlink:href="#mf87eaea4c4" y="358.7309"/>
     <use style="fill:#471365;fill-opacity:0.8;stroke:#471365;stroke-opacity:0.8;" x="289.158188" xlink:href="#mf87eaea4c4" y="358.576824"/>
     <use style="fill:#471365;fill-opacity:0.8;stroke:#471365;stroke-opacity:0.8;" x="214.682679" xlink:href="#mf87eaea4c4" y="130.019675"/>
     <use style="fill:#471365;fill-opacity:0.8;stroke:#471365;stroke-opacity:0.8;" x="260.546855" xlink:href="#mf87eaea4c4" y="361.666059"/>
     <use style="fill:#471365;fill-opacity:0.8;stroke:#471365;stroke-opacity:0.8;" x="293.869892" xlink:href="#mf87eaea4c4" y="363.615127"/>
     <use style="fill:#471365;fill-opacity:0.8;stroke:#471365;stroke-opacity:0.8;" x="272.206478" xlink:href="#mf87eaea4c4" y="364.632032"/>
     <use style="fill:#471365;fill-opacity:0.8;stroke:#471365;stroke-opacity:0.8;" x="292.294445" xlink:href="#mf87eaea4c4" y="348.361549"/>
     <use style="fill:#471365;fill-opacity:0.8;stroke:#471365;stroke-opacity:0.8;" x="261.428945" xlink:href="#mf87eaea4c4" y="358.376524"/>
     <use style="fill:#471365;fill-opacity:0.8;stroke:#471365;stroke-opacity:0.8;" x="257.201102" xlink:href="#mf87eaea4c4" y="361.673762"/>
     <use style="fill:#471365;fill-opacity:0.8;stroke:#471365;stroke-opacity:0.8;" x="239.474508" xlink:href="#mf87eaea4c4" y="360.356408"/>
     <use style="fill:#471365;fill-opacity:0.8;stroke:#471365;stroke-opacity:0.8;" x="224.572218" xlink:href="#mf87eaea4c4" y="364.038837"/>
     <use style="fill:#471365;fill-opacity:0.8;stroke:#471365;stroke-opacity:0.8;" x="296.19649" xlink:href="#mf87eaea4c4" y="368.144977"/>
     <use style="fill:#471365;fill-opacity:0.8;stroke:#471365;stroke-opacity:0.8;" x="262.85874" xlink:href="#mf87eaea4c4" y="357.082281"/>
     <use style="fill:#471365;fill-opacity:0.8;stroke:#471365;stroke-opacity:0.8;" x="293.128591" xlink:href="#mf87eaea4c4" y="363.430235"/>
     <use style="fill:#471365;fill-opacity:0.8;stroke:#471365;stroke-opacity:0.8;" x="264.707062" xlink:href="#mf87eaea4c4" y="359.609137"/>
     <use style="fill:#471365;fill-opacity:0.8;stroke:#471365;stroke-opacity:0.8;" x="286.566184" xlink:href="#mf87eaea4c4" y="362.921782"/>
     <use style="fill:#471365;fill-opacity:0.8;stroke:#471365;stroke-opacity:0.8;" x="274.19058" xlink:href="#mf87eaea4c4" y="351.466191"/>
     <use style="fill:#471365;fill-opacity:0.8;stroke:#471365;stroke-opacity:0.8;" x="280.410026" xlink:href="#mf87eaea4c4" y="366.064944"/>
     <use style="fill:#471365;fill-opacity:0.8;stroke:#471365;stroke-opacity:0.8;" x="281.892501" xlink:href="#mf87eaea4c4" y="361.357905"/>
     <use style="fill:#471365;fill-opacity:0.8;stroke:#471365;stroke-opacity:0.8;" x="295.584873" xlink:href="#mf87eaea4c4" y="364.439436"/>
     <use style="fill:#471365;fill-opacity:0.8;stroke:#471365;stroke-opacity:0.8;" x="263.151647" xlink:href="#mf87eaea4c4" y="341.905742"/>
     <use style="fill:#471365;fill-opacity:0.8;stroke:#471365;stroke-opacity:0.8;" x="186.830452" xlink:href="#mf87eaea4c4" y="365.117373"/>
     <use style="fill:#471365;fill-opacity:0.8;stroke:#471365;stroke-opacity:0.8;" x="293.663274" xlink:href="#mf87eaea4c4" y="363.437939"/>
     <use style="fill:#471365;fill-opacity:0.8;stroke:#471365;stroke-opacity:0.8;" x="281.839386" xlink:href="#mf87eaea4c4" y="364.508771"/>
     <use style="fill:#471365;fill-opacity:0.8;stroke:#471365;stroke-opacity:0.8;" x="271.354165" xlink:href="#mf87eaea4c4" y="357.236358"/>
     <use style="fill:#471365;fill-opacity:0.8;stroke:#471365;stroke-opacity:0.8;" x="276.728606" xlink:href="#mf87eaea4c4" y="367.544079"/>
     <use style="fill:#471365;fill-opacity:0.8;stroke:#471365;stroke-opacity:0.8;" x="292.668709" xlink:href="#mf87eaea4c4" y="363.46105"/>
     <use style="fill:#471365;fill-opacity:0.8;stroke:#471365;stroke-opacity:0.8;" x="270.211599" xlink:href="#mf87eaea4c4" y="356.49679"/>
     <use style="fill:#471365;fill-opacity:0.8;stroke:#471365;stroke-opacity:0.8;" x="226.992098" xlink:href="#mf87eaea4c4" y="367.467041"/>
     <use style="fill:#471365;fill-opacity:0.8;stroke:#471365;stroke-opacity:0.8;" x="287.949569" xlink:href="#mf87eaea4c4" y="357.559919"/>
     <use style="fill:#471365;fill-opacity:0.8;stroke:#471365;stroke-opacity:0.8;" x="271.575973" xlink:href="#mf87eaea4c4" y="355.980634"/>
     <use style="fill:#471365;fill-opacity:0.8;stroke:#471365;stroke-opacity:0.8;" x="240.896696" xlink:href="#mf87eaea4c4" y="360.025143"/>
     <use style="fill:#471365;fill-opacity:0.8;stroke:#471365;stroke-opacity:0.8;" x="276.303069" xlink:href="#mf87eaea4c4" y="359.401133"/>
     <use style="fill:#471365;fill-opacity:0.8;stroke:#471365;stroke-opacity:0.8;" x="265.205842" xlink:href="#mf87eaea4c4" y="357.005243"/>
     <use style="fill:#471365;fill-opacity:0.8;stroke:#471365;stroke-opacity:0.8;" x="286.449262" xlink:href="#mf87eaea4c4" y="366.05724"/>
     <use style="fill:#471365;fill-opacity:0.8;stroke:#471365;stroke-opacity:0.8;" x="293.144826" xlink:href="#mf87eaea4c4" y="358.276375"/>
     <use style="fill:#471365;fill-opacity:0.8;stroke:#471365;stroke-opacity:0.8;" x="210.616239" xlink:href="#mf87eaea4c4" y="273.341678"/>
     <use style="fill:#471365;fill-opacity:0.8;stroke:#471365;stroke-opacity:0.8;" x="286.478103" xlink:href="#mf87eaea4c4" y="364.524178"/>
     <use style="fill:#471365;fill-opacity:0.8;stroke:#471365;stroke-opacity:0.8;" x="284.039182" xlink:href="#mf87eaea4c4" y="366.126575"/>
     <use style="fill:#471365;fill-opacity:0.8;stroke:#471365;stroke-opacity:0.8;" x="289.535488" xlink:href="#mf87eaea4c4" y="366.61962"/>
     <use style="fill:#471365;fill-opacity:0.8;stroke:#471365;stroke-opacity:0.8;" x="285.952377" xlink:href="#mf87eaea4c4" y="366.041832"/>
     <use style="fill:#471365;fill-opacity:0.8;stroke:#471365;stroke-opacity:0.8;" x="266.043614" xlink:href="#mf87eaea4c4" y="366.912365"/>
     <use style="fill:#471365;fill-opacity:0.8;stroke:#471365;stroke-opacity:0.8;" x="219.711737" xlink:href="#mf87eaea4c4" y="341.72085"/>
     <use style="fill:#471365;fill-opacity:0.8;stroke:#471365;stroke-opacity:0.8;" x="278.068763" xlink:href="#mf87eaea4c4" y="367.883047"/>
     <use style="fill:#471365;fill-opacity:0.8;stroke:#471365;stroke-opacity:0.8;" x="278.982901" xlink:href="#mf87eaea4c4" y="329.903179"/>
     <use style="fill:#471365;fill-opacity:0.8;stroke:#471365;stroke-opacity:0.8;" x="290.009991" xlink:href="#mf87eaea4c4" y="358.761716"/>
     <use style="fill:#471365;fill-opacity:0.8;stroke:#471365;stroke-opacity:0.8;" x="269.385605" xlink:href="#mf87eaea4c4" y="364.300768"/>
     <use style="fill:#471365;fill-opacity:0.8;stroke:#471365;stroke-opacity:0.8;" x="287.967264" xlink:href="#mf87eaea4c4" y="363.152897"/>
     <use style="fill:#471365;fill-opacity:0.8;stroke:#471365;stroke-opacity:0.8;" x="280.237375" xlink:href="#mf87eaea4c4" y="362.898671"/>
     <use style="fill:#471365;fill-opacity:0.8;stroke:#471365;stroke-opacity:0.8;" x="276.793247" xlink:href="#mf87eaea4c4" y="369.500851"/>
     <use style="fill:#471365;fill-opacity:0.8;stroke:#471365;stroke-opacity:0.8;" x="291.545738" xlink:href="#mf87eaea4c4" y="363.7615"/>
     <use style="fill:#471365;fill-opacity:0.8;stroke:#471365;stroke-opacity:0.8;" x="254.469121" xlink:href="#mf87eaea4c4" y="359.670767"/>
     <use style="fill:#471365;fill-opacity:0.8;stroke:#471365;stroke-opacity:0.8;" x="256.317472" xlink:href="#mf87eaea4c4" y="363.653646"/>
     <use style="fill:#471365;fill-opacity:0.8;stroke:#471365;stroke-opacity:0.8;" x="275.531458" xlink:href="#mf87eaea4c4" y="361.558205"/>
     <use style="fill:#471365;fill-opacity:0.8;stroke:#471365;stroke-opacity:0.8;" x="291.571329" xlink:href="#mf87eaea4c4" y="369.385294"/>
     <use style="fill:#471365;fill-opacity:0.8;stroke:#471365;stroke-opacity:0.8;" x="262.341865" xlink:href="#mf87eaea4c4" y="360.263962"/>
     <use style="fill:#471365;fill-opacity:0.8;stroke:#471365;stroke-opacity:0.8;" x="289.693894" xlink:href="#mf87eaea4c4" y="365.525676"/>
     <use style="fill:#471365;fill-opacity:0.8;stroke:#471365;stroke-opacity:0.8;" x="271.336049" xlink:href="#mf87eaea4c4" y="364.539586"/>
     <use style="fill:#471365;fill-opacity:0.8;stroke:#471365;stroke-opacity:0.8;" x="268.010549" xlink:href="#mf87eaea4c4" y="363.360901"/>
     <use style="fill:#471365;fill-opacity:0.8;stroke:#471365;stroke-opacity:0.8;" x="270.566372" xlink:href="#mf87eaea4c4" y="364.470252"/>
     <use style="fill:#471365;fill-opacity:0.8;stroke:#471365;stroke-opacity:0.8;" x="288.915292" xlink:href="#mf87eaea4c4" y="337.198703"/>
     <use style="fill:#471365;fill-opacity:0.8;stroke:#471365;stroke-opacity:0.8;" x="291.036728" xlink:href="#mf87eaea4c4" y="360.125293"/>
     <use style="fill:#471365;fill-opacity:0.8;stroke:#471365;stroke-opacity:0.8;" x="284.540044" xlink:href="#mf87eaea4c4" y="325.650666"/>
     <use style="fill:#471365;fill-opacity:0.8;stroke:#471365;stroke-opacity:0.8;" x="284.493662" xlink:href="#mf87eaea4c4" y="365.279154"/>
     <use style="fill:#471365;fill-opacity:0.8;stroke:#471365;stroke-opacity:0.8;" x="292.27712" xlink:href="#mf87eaea4c4" y="359.362614"/>
     <use style="fill:#471365;fill-opacity:0.8;stroke:#471365;stroke-opacity:0.8;" x="296.382957" xlink:href="#mf87eaea4c4" y="362.251549"/>
     <use style="fill:#471365;fill-opacity:0.8;stroke:#471365;stroke-opacity:0.8;" x="277.942303" xlink:href="#mf87eaea4c4" y="369.847523"/>
     <use style="fill:#471365;fill-opacity:0.8;stroke:#471365;stroke-opacity:0.8;" x="285.32174" xlink:href="#mf87eaea4c4" y="365.872348"/>
     <use style="fill:#471365;fill-opacity:0.8;stroke:#471365;stroke-opacity:0.8;" x="236.469012" xlink:href="#mf87eaea4c4" y="366.165094"/>
     <use style="fill:#471365;fill-opacity:0.8;stroke:#471365;stroke-opacity:0.8;" x="278.267232" xlink:href="#mf87eaea4c4" y="373.375876"/>
     <use style="fill:#471365;fill-opacity:0.8;stroke:#471365;stroke-opacity:0.8;" x="216.376626" xlink:href="#mf87eaea4c4" y="328.108187"/>
     <use style="fill:#471365;fill-opacity:0.8;stroke:#471365;stroke-opacity:0.8;" x="289.242785" xlink:href="#mf87eaea4c4" y="367.413114"/>
     <use style="fill:#471365;fill-opacity:0.8;stroke:#471365;stroke-opacity:0.8;" x="284.619116" xlink:href="#mf87eaea4c4" y="232.249464"/>
     <use style="fill:#471365;fill-opacity:0.8;stroke:#471365;stroke-opacity:0.8;" x="277.624947" xlink:href="#mf87eaea4c4" y="357.475177"/>
     <use style="fill:#471365;fill-opacity:0.8;stroke:#471365;stroke-opacity:0.8;" x="285.628994" xlink:href="#mf87eaea4c4" y="359.71699"/>
     <use style="fill:#471365;fill-opacity:0.8;stroke:#471365;stroke-opacity:0.8;" x="255.119172" xlink:href="#mf87eaea4c4" y="330.12659"/>
     <use style="fill:#471365;fill-opacity:0.8;stroke:#471365;stroke-opacity:0.8;" x="245.895541" xlink:href="#mf87eaea4c4" y="365.27145"/>
     <use style="fill:#471365;fill-opacity:0.8;stroke:#471365;stroke-opacity:0.8;" x="275.015063" xlink:href="#mf87eaea4c4" y="362.498072"/>
     <use style="fill:#471365;fill-opacity:0.8;stroke:#471365;stroke-opacity:0.8;" x="285.347882" xlink:href="#mf87eaea4c4" y="359.701583"/>
     <use style="fill:#471365;fill-opacity:0.8;stroke:#471365;stroke-opacity:0.8;" x="208.367686" xlink:href="#mf87eaea4c4" y="339.540667"/>
     <use style="fill:#471365;fill-opacity:0.8;stroke:#471365;stroke-opacity:0.8;" x="295.007124" xlink:href="#mf87eaea4c4" y="369.809004"/>
     <use style="fill:#471365;fill-opacity:0.8;stroke:#471365;stroke-opacity:0.8;" x="252.225714" xlink:href="#mf87eaea4c4" y="319.256489"/>
     <use style="fill:#471365;fill-opacity:0.8;stroke:#471365;stroke-opacity:0.8;" x="289.252925" xlink:href="#mf87eaea4c4" y="366.704362"/>
     <use style="fill:#471365;fill-opacity:0.8;stroke:#471365;stroke-opacity:0.8;" x="245.072223" xlink:href="#mf87eaea4c4" y="361.797024"/>
     <use style="fill:#471365;fill-opacity:0.8;stroke:#471365;stroke-opacity:0.8;" x="291.604845" xlink:href="#mf87eaea4c4" y="339.116956"/>
     <use style="fill:#471365;fill-opacity:0.8;stroke:#471365;stroke-opacity:0.8;" x="279.87729" xlink:href="#mf87eaea4c4" y="363.245343"/>
     <use style="fill:#471365;fill-opacity:0.8;stroke:#471365;stroke-opacity:0.8;" x="273.62598" xlink:href="#mf87eaea4c4" y="362.952598"/>
     <use style="fill:#471365;fill-opacity:0.8;stroke:#471365;stroke-opacity:0.8;" x="275.853823" xlink:href="#mf87eaea4c4" y="257.510313"/>
     <use style="fill:#471365;fill-opacity:0.8;stroke:#471365;stroke-opacity:0.8;" x="291.012233" xlink:href="#mf87eaea4c4" y="362.67526"/>
     <use style="fill:#471365;fill-opacity:0.8;stroke:#471365;stroke-opacity:0.8;" x="295.342804" xlink:href="#mf87eaea4c4" y="351.60486"/>
     <use style="fill:#471365;fill-opacity:0.8;stroke:#471365;stroke-opacity:0.8;" x="264.73437" xlink:href="#mf87eaea4c4" y="295.051064"/>
     <use style="fill:#471365;fill-opacity:0.8;stroke:#471365;stroke-opacity:0.8;" x="273.068699" xlink:href="#mf87eaea4c4" y="359.139203"/>
     <use style="fill:#471365;fill-opacity:0.8;stroke:#471365;stroke-opacity:0.8;" x="292.802468" xlink:href="#mf87eaea4c4" y="366.819919"/>
     <use style="fill:#471365;fill-opacity:0.8;stroke:#471365;stroke-opacity:0.8;" x="214.613481" xlink:href="#mf87eaea4c4" y="360.495077"/>
     <use style="fill:#471365;fill-opacity:0.8;stroke:#471365;stroke-opacity:0.8;" x="248.396394" xlink:href="#mf87eaea4c4" y="362.806225"/>
     <use style="fill:#471365;fill-opacity:0.8;stroke:#471365;stroke-opacity:0.8;" x="251.882159" xlink:href="#mf87eaea4c4" y="331.790616"/>
     <use style="fill:#471365;fill-opacity:0.8;stroke:#471365;stroke-opacity:0.8;" x="281.226449" xlink:href="#mf87eaea4c4" y="362.629037"/>
     <use style="fill:#471365;fill-opacity:0.8;stroke:#471365;stroke-opacity:0.8;" x="290.100392" xlink:href="#mf87eaea4c4" y="362.721483"/>
     <use style="fill:#471365;fill-opacity:0.8;stroke:#471365;stroke-opacity:0.8;" x="272.411817" xlink:href="#mf87eaea4c4" y="369.030917"/>
     <use style="fill:#471365;fill-opacity:0.8;stroke:#471365;stroke-opacity:0.8;" x="269.706143" xlink:href="#mf87eaea4c4" y="363.245343"/>
     <use style="fill:#471365;fill-opacity:0.8;stroke:#471365;stroke-opacity:0.8;" x="279.096963" xlink:href="#mf87eaea4c4" y="360.872564"/>
     <use style="fill:#471365;fill-opacity:0.8;stroke:#471365;stroke-opacity:0.8;" x="233.690199" xlink:href="#mf87eaea4c4" y="314.141148"/>
     <use style="fill:#471365;fill-opacity:0.8;stroke:#471365;stroke-opacity:0.8;" x="295.918272" xlink:href="#mf87eaea4c4" y="360.687672"/>
     <use style="fill:#471365;fill-opacity:0.8;stroke:#471365;stroke-opacity:0.8;" x="278.338294" xlink:href="#mf87eaea4c4" y="359.647656"/>
     <use style="fill:#471365;fill-opacity:0.8;stroke:#471365;stroke-opacity:0.8;" x="286.743347" xlink:href="#mf87eaea4c4" y="355.456774"/>
     <use style="fill:#471365;fill-opacity:0.8;stroke:#471365;stroke-opacity:0.8;" x="295.044073" xlink:href="#mf87eaea4c4" y="364.462548"/>
     <use style="fill:#471365;fill-opacity:0.8;stroke:#471365;stroke-opacity:0.8;" x="280.111865" xlink:href="#mf87eaea4c4" y="360.240851"/>
     <use style="fill:#471365;fill-opacity:0.8;stroke:#471365;stroke-opacity:0.8;" x="289.288493" xlink:href="#mf87eaea4c4" y="365.094262"/>
     <use style="fill:#471365;fill-opacity:0.8;stroke:#471365;stroke-opacity:0.8;" x="292.508537" xlink:href="#mf87eaea4c4" y="357.78333"/>
     <use style="fill:#471365;fill-opacity:0.8;stroke:#471365;stroke-opacity:0.8;" x="285.257857" xlink:href="#mf87eaea4c4" y="366.41932"/>
     <use style="fill:#471365;fill-opacity:0.8;stroke:#471365;stroke-opacity:0.8;" x="249.534732" xlink:href="#mf87eaea4c4" y="365.309969"/>
     <use style="fill:#471365;fill-opacity:0.8;stroke:#471365;stroke-opacity:0.8;" x="295.720082" xlink:href="#mf87eaea4c4" y="358.869569"/>
     <use style="fill:#471365;fill-opacity:0.8;stroke:#471365;stroke-opacity:0.8;" x="294.020143" xlink:href="#mf87eaea4c4" y="361.858654"/>
     <use style="fill:#471365;fill-opacity:0.8;stroke:#471365;stroke-opacity:0.8;" x="290.744637" xlink:href="#mf87eaea4c4" y="310.936356"/>
     <use style="fill:#471365;fill-opacity:0.8;stroke:#471365;stroke-opacity:0.8;" x="294.538319" xlink:href="#mf87eaea4c4" y="363.484162"/>
     <use style="fill:#471365;fill-opacity:0.8;stroke:#471365;stroke-opacity:0.8;" x="276.559782" xlink:href="#mf87eaea4c4" y="352.298205"/>
     <use style="fill:#471365;fill-opacity:0.8;stroke:#471365;stroke-opacity:0.8;" x="291.228505" xlink:href="#mf87eaea4c4" y="343.49273"/>
     <use style="fill:#471365;fill-opacity:0.8;stroke:#471365;stroke-opacity:0.8;" x="282.377314" xlink:href="#mf87eaea4c4" y="364.955593"/>
     <use style="fill:#471365;fill-opacity:0.8;stroke:#471365;stroke-opacity:0.8;" x="288.512586" xlink:href="#mf87eaea4c4" y="366.673546"/>
     <use style="fill:#471365;fill-opacity:0.8;stroke:#471365;stroke-opacity:0.8;" x="276.110172" xlink:href="#mf87eaea4c4" y="359.462764"/>
     <use style="fill:#471365;fill-opacity:0.8;stroke:#471365;stroke-opacity:0.8;" x="216.934436" xlink:href="#mf87eaea4c4" y="341.890334"/>
     <use style="fill:#471365;fill-opacity:0.8;stroke:#471365;stroke-opacity:0.8;" x="283.060277" xlink:href="#mf87eaea4c4" y="365.055743"/>
     <use style="fill:#471365;fill-opacity:0.8;stroke:#471365;stroke-opacity:0.8;" x="268.960252" xlink:href="#mf87eaea4c4" y="361.157606"/>
     <use style="fill:#471365;fill-opacity:0.8;stroke:#471365;stroke-opacity:0.8;" x="245.458801" xlink:href="#mf87eaea4c4" y="364.223729"/>
     <use style="fill:#471365;fill-opacity:0.8;stroke:#471365;stroke-opacity:0.8;" x="289.56694" xlink:href="#mf87eaea4c4" y="361.180717"/>
     <use style="fill:#471365;fill-opacity:0.8;stroke:#471365;stroke-opacity:0.8;" x="285.254152" xlink:href="#mf87eaea4c4" y="365.032631"/>
     <use style="fill:#471365;fill-opacity:0.8;stroke:#471365;stroke-opacity:0.8;" x="236.326241" xlink:href="#mf87eaea4c4" y="366.958588"/>
     <use style="fill:#471365;fill-opacity:0.8;stroke:#471365;stroke-opacity:0.8;" x="290.673766" xlink:href="#mf87eaea4c4" y="368.49165"/>
     <use style="fill:#471365;fill-opacity:0.8;stroke:#471365;stroke-opacity:0.8;" x="260.480527" xlink:href="#mf87eaea4c4" y="347.891615"/>
     <use style="fill:#471365;fill-opacity:0.8;stroke:#471365;stroke-opacity:0.8;" x="252.969112" xlink:href="#mf87eaea4c4" y="364.146691"/>
     <use style="fill:#471365;fill-opacity:0.8;stroke:#471365;stroke-opacity:0.8;" x="257.547816" xlink:href="#mf87eaea4c4" y="355.387439"/>
     <use style="fill:#471365;fill-opacity:0.8;stroke:#471365;stroke-opacity:0.8;" x="214.51338" xlink:href="#mf87eaea4c4" y="362.005027"/>
     <use style="fill:#471365;fill-opacity:0.8;stroke:#471365;stroke-opacity:0.8;" x="214.455973" xlink:href="#mf87eaea4c4" y="362.798521"/>
     <use style="fill:#471365;fill-opacity:0.8;stroke:#471365;stroke-opacity:0.8;" x="154.893027" xlink:href="#mf87eaea4c4" y="363.592015"/>
     <use style="fill:#471365;fill-opacity:0.8;stroke:#471365;stroke-opacity:0.8;" x="286.285128" xlink:href="#mf87eaea4c4" y="365.055743"/>
     <use style="fill:#471365;fill-opacity:0.8;stroke:#471365;stroke-opacity:0.8;" x="272.859139" xlink:href="#mf87eaea4c4" y="365.756791"/>
     <use style="fill:#471365;fill-opacity:0.8;stroke:#471365;stroke-opacity:0.8;" x="277.426941" xlink:href="#mf87eaea4c4" y="363.730684"/>
     <use style="fill:#471365;fill-opacity:0.8;stroke:#471365;stroke-opacity:0.8;" x="291.427375" xlink:href="#mf87eaea4c4" y="365.340784"/>
     <use style="fill:#471365;fill-opacity:0.8;stroke:#471365;stroke-opacity:0.8;" x="105.303376" xlink:href="#mf87eaea4c4" y="325.226955"/>
     <use style="fill:#471365;fill-opacity:0.8;stroke:#471365;stroke-opacity:0.8;" x="282.237646" xlink:href="#mf87eaea4c4" y="328.709085"/>
     <use style="fill:#471365;fill-opacity:0.8;stroke:#471365;stroke-opacity:0.8;" x="234.254347" xlink:href="#mf87eaea4c4" y="359.447356"/>
     <use style="fill:#471365;fill-opacity:0.8;stroke:#471365;stroke-opacity:0.8;" x="289.689759" xlink:href="#mf87eaea4c4" y="356.704794"/>
     <use style="fill:#471365;fill-opacity:0.8;stroke:#471365;stroke-opacity:0.8;" x="261.732364" xlink:href="#mf87eaea4c4" y="310.48183"/>
     <use style="fill:#471365;fill-opacity:0.8;stroke:#471365;stroke-opacity:0.8;" x="229.684" xlink:href="#mf87eaea4c4" y="364.108172"/>
     <use style="fill:#471365;fill-opacity:0.8;stroke:#471365;stroke-opacity:0.8;" x="277.421007" xlink:href="#mf87eaea4c4" y="358.815642"/>
     <use style="fill:#471365;fill-opacity:0.8;stroke:#471365;stroke-opacity:0.8;" x="292.773629" xlink:href="#mf87eaea4c4" y="361.843247"/>
     <use style="fill:#471365;fill-opacity:0.8;stroke:#471365;stroke-opacity:0.8;" x="181.04156" xlink:href="#mf87eaea4c4" y="361.550501"/>
     <use style="fill:#471365;fill-opacity:0.8;stroke:#471365;stroke-opacity:0.8;" x="247.966491" xlink:href="#mf87eaea4c4" y="362.490368"/>
     <use style="fill:#471365;fill-opacity:0.8;stroke:#471365;stroke-opacity:0.8;" x="293.523256" xlink:href="#mf87eaea4c4" y="353.700301"/>
     <use style="fill:#471365;fill-opacity:0.8;stroke:#471365;stroke-opacity:0.8;" x="263.989813" xlink:href="#mf87eaea4c4" y="348.053396"/>
     <use style="fill:#471365;fill-opacity:0.8;stroke:#471365;stroke-opacity:0.8;" x="283.799316" xlink:href="#mf87eaea4c4" y="365.032631"/>
     <use style="fill:#471365;fill-opacity:0.8;stroke:#471365;stroke-opacity:0.8;" x="282.943624" xlink:href="#mf87eaea4c4" y="365.949387"/>
     <use style="fill:#471365;fill-opacity:0.8;stroke:#471365;stroke-opacity:0.8;" x="177.705361" xlink:href="#mf87eaea4c4" y="362.498072"/>
     <use style="fill:#471365;fill-opacity:0.8;stroke:#471365;stroke-opacity:0.8;" x="177.293765" xlink:href="#mf87eaea4c4" y="367.30526"/>
     <use style="fill:#471365;fill-opacity:0.8;stroke:#471365;stroke-opacity:0.8;" x="272.466768" xlink:href="#mf87eaea4c4" y="348.376956"/>
     <use style="fill:#471365;fill-opacity:0.8;stroke:#471365;stroke-opacity:0.8;" x="281.391562" xlink:href="#mf87eaea4c4" y="358.707789"/>
     <use style="fill:#471365;fill-opacity:0.8;stroke:#471365;stroke-opacity:0.8;" x="211.669191" xlink:href="#mf87eaea4c4" y="326.690683"/>
     <use style="fill:#471365;fill-opacity:0.8;stroke:#471365;stroke-opacity:0.8;" x="287.525606" xlink:href="#mf87eaea4c4" y="350.403063"/>
     <use style="fill:#471365;fill-opacity:0.8;stroke:#471365;stroke-opacity:0.8;" x="262.244928" xlink:href="#mf87eaea4c4" y="360.880268"/>
     <use style="fill:#471365;fill-opacity:0.8;stroke:#471365;stroke-opacity:0.8;" x="294.420131" xlink:href="#mf87eaea4c4" y="369.685743"/>
     <use style="fill:#471365;fill-opacity:0.8;stroke:#471365;stroke-opacity:0.8;" x="294.840089" xlink:href="#mf87eaea4c4" y="357.559919"/>
     <use style="fill:#471365;fill-opacity:0.8;stroke:#471365;stroke-opacity:0.8;" x="158.823856" xlink:href="#mf87eaea4c4" y="326.667571"/>
     <use style="fill:#471365;fill-opacity:0.8;stroke:#471365;stroke-opacity:0.8;" x="281.278719" xlink:href="#mf87eaea4c4" y="366.072648"/>
     <use style="fill:#471365;fill-opacity:0.8;stroke:#471365;stroke-opacity:0.8;" x="282.773604" xlink:href="#mf87eaea4c4" y="365.125077"/>
     <use style="fill:#471365;fill-opacity:0.8;stroke:#471365;stroke-opacity:0.8;" x="279.186534" xlink:href="#mf87eaea4c4" y="363.330085"/>
     <use style="fill:#471365;fill-opacity:0.8;stroke:#471365;stroke-opacity:0.8;" x="288.51746" xlink:href="#mf87eaea4c4" y="363.468754"/>
     <use style="fill:#471365;fill-opacity:0.8;stroke:#471365;stroke-opacity:0.8;" x="266.318326" xlink:href="#mf87eaea4c4" y="367.397706"/>
     <use style="fill:#471365;fill-opacity:0.8;stroke:#471365;stroke-opacity:0.8;" x="268.665892" xlink:href="#mf87eaea4c4" y="315.658802"/>
     <use style="fill:#471365;fill-opacity:0.8;stroke:#471365;stroke-opacity:0.8;" x="290.569227" xlink:href="#mf87eaea4c4" y="365.248338"/>
     <use style="fill:#471365;fill-opacity:0.8;stroke:#471365;stroke-opacity:0.8;" x="252.625355" xlink:href="#mf87eaea4c4" y="363.607423"/>
     <use style="fill:#471365;fill-opacity:0.8;stroke:#471365;stroke-opacity:0.8;" x="294.220332" xlink:href="#mf87eaea4c4" y="356.350418"/>
     <use style="fill:#471365;fill-opacity:0.8;stroke:#471365;stroke-opacity:0.8;" x="246.124368" xlink:href="#mf87eaea4c4" y="370.209603"/>
     <use style="fill:#471365;fill-opacity:0.8;stroke:#471365;stroke-opacity:0.8;" x="246.816164" xlink:href="#mf87eaea4c4" y="346.081216"/>
     <use style="fill:#471365;fill-opacity:0.8;stroke:#471365;stroke-opacity:0.8;" x="220.807127" xlink:href="#mf87eaea4c4" y="363.46105"/>
     <use style="fill:#471365;fill-opacity:0.8;stroke:#471365;stroke-opacity:0.8;" x="240.534492" xlink:href="#mf87eaea4c4" y="306.930365"/>
     <use style="fill:#471365;fill-opacity:0.8;stroke:#471365;stroke-opacity:0.8;" x="275.68609" xlink:href="#mf87eaea4c4" y="356.581533"/>
     <use style="fill:#471365;fill-opacity:0.8;stroke:#471365;stroke-opacity:0.8;" x="286.217474" xlink:href="#mf87eaea4c4" y="356.265676"/>
     <use style="fill:#471365;fill-opacity:0.8;stroke:#471365;stroke-opacity:0.8;" x="271.235626" xlink:href="#mf87eaea4c4" y="354.36283"/>
     <use style="fill:#471365;fill-opacity:0.8;stroke:#471365;stroke-opacity:0.8;" x="273.083606" xlink:href="#mf87eaea4c4" y="365.733679"/>
     <use style="fill:#471365;fill-opacity:0.8;stroke:#471365;stroke-opacity:0.8;" x="296.334788" xlink:href="#mf87eaea4c4" y="370.086342"/>
     <use style="fill:#471365;fill-opacity:0.8;stroke:#471365;stroke-opacity:0.8;" x="274.913093" xlink:href="#mf87eaea4c4" y="359.185426"/>
     <use style="fill:#471365;fill-opacity:0.8;stroke:#471365;stroke-opacity:0.8;" x="283.12654" xlink:href="#mf87eaea4c4" y="338.246424"/>
     <use style="fill:#471365;fill-opacity:0.8;stroke:#471365;stroke-opacity:0.8;" x="290.359637" xlink:href="#mf87eaea4c4" y="371.172581"/>
     <use style="fill:#471365;fill-opacity:0.8;stroke:#471365;stroke-opacity:0.8;" x="295.73793" xlink:href="#mf87eaea4c4" y="365.032631"/>
     <use style="fill:#471365;fill-opacity:0.8;stroke:#471365;stroke-opacity:0.8;" x="286.697335" xlink:href="#mf87eaea4c4" y="361.296275"/>
     <use style="fill:#471365;fill-opacity:0.8;stroke:#471365;stroke-opacity:0.8;" x="281.67901" xlink:href="#mf87eaea4c4" y="367.112664"/>
     <use style="fill:#471365;fill-opacity:0.8;stroke:#471365;stroke-opacity:0.8;" x="265.162821" xlink:href="#mf87eaea4c4" y="362.482664"/>
     <use style="fill:#471365;fill-opacity:0.8;stroke:#471365;stroke-opacity:0.8;" x="294.398412" xlink:href="#mf87eaea4c4" y="358.861865"/>
     <use style="fill:#471365;fill-opacity:0.8;stroke:#471365;stroke-opacity:0.8;" x="286.488145" xlink:href="#mf87eaea4c4" y="359.901882"/>
     <use style="fill:#471365;fill-opacity:0.8;stroke:#471365;stroke-opacity:0.8;" x="290.831488" xlink:href="#mf87eaea4c4" y="367.528671"/>
    </g>
   </g>
   <g id="PolyCollection_1">
    <defs>
     <path d="M 63.183924 -149.30836 
L 63.183924 -82.453584 
L 65.964919 -82.374021 
L 68.745914 -82.290075 
L 71.526909 -82.156144 
L 74.307903 -82.022213 
L 77.088898 -81.888282 
L 79.869893 -81.75435 
L 82.650888 -81.620419 
L 85.431883 -81.486488 
L 88.212877 -81.352557 
L 90.993872 -81.218626 
L 93.774867 -81.085381 
L 96.555862 -80.952426 
L 99.336857 -80.846133 
L 102.117851 -80.782868 
L 104.898846 -80.719604 
L 107.679841 -80.656979 
L 110.460836 -80.594573 
L 113.241831 -80.532167 
L 116.022825 -80.469761 
L 118.80382 -80.407356 
L 121.584815 -80.34495 
L 124.36581 -80.282544 
L 127.146805 -80.220138 
L 129.927799 -80.157732 
L 132.708794 -80.095326 
L 135.489789 -80.03292 
L 138.270784 -79.970514 
L 141.051779 -79.908108 
L 143.832773 -79.845703 
L 146.613768 -79.783297 
L 149.394763 -79.703574 
L 152.175758 -79.607561 
L 154.956753 -79.511862 
L 157.737747 -79.416163 
L 160.518742 -79.320464 
L 163.299737 -79.224765 
L 166.080732 -79.129065 
L 168.861727 -79.033366 
L 171.642721 -78.937667 
L 174.423716 -78.82996 
L 177.204711 -78.715999 
L 179.985706 -78.602039 
L 182.7667 -78.488078 
L 185.547695 -78.374117 
L 188.32869 -78.260156 
L 191.109685 -78.146195 
L 193.89068 -78.032855 
L 196.671674 -77.915973 
L 199.452669 -77.8004 
L 202.233664 -77.683178 
L 205.014659 -77.558645 
L 207.795654 -77.453683 
L 210.576648 -77.363536 
L 213.357643 -77.241124 
L 216.138638 -77.111437 
L 218.919633 -76.991709 
L 221.700628 -76.898762 
L 224.481622 -76.852726 
L 227.262617 -76.671965 
L 230.043612 -76.551808 
L 232.824607 -76.41061 
L 235.605602 -76.265432 
L 238.386596 -76.182386 
L 241.167591 -75.997824 
L 243.948586 -75.889136 
L 246.729581 -75.699731 
L 249.510576 -75.549947 
L 252.29157 -75.428232 
L 255.072565 -75.314669 
L 257.85356 -75.160194 
L 260.634555 -74.967097 
L 263.41555 -74.796583 
L 266.196544 -74.538636 
L 268.977539 -74.312641 
L 271.758534 -74.035238 
L 274.539529 -73.75349 
L 277.320524 -73.373866 
L 280.101518 -72.949 
L 282.882513 -72.515611 
L 285.663508 -72.02898 
L 288.444503 -71.397808 
L 291.225498 -70.639455 
L 294.006492 -69.853738 
L 296.787487 -69.147123 
L 299.568482 -68.358978 
L 302.349477 -67.419134 
L 305.130472 -66.511458 
L 307.911466 -65.664631 
L 310.692461 -64.777891 
L 313.473456 -63.798917 
L 316.254451 -62.910963 
L 319.035446 -62.052263 
L 321.81644 -61.18979 
L 324.597435 -60.329491 
L 327.37843 -59.449042 
L 330.159425 -58.530299 
L 332.940419 -57.612261 
L 335.721414 -56.690223 
L 338.502409 -55.69643 
L 338.502409 -74.00755 
L 338.502409 -74.00755 
L 335.721414 -74.115296 
L 332.940419 -74.222864 
L 330.159425 -74.330433 
L 327.37843 -74.477674 
L 324.597435 -74.641508 
L 321.81644 -74.671554 
L 319.035446 -74.711309 
L 316.254451 -74.730635 
L 313.473456 -74.814244 
L 310.692461 -75.014457 
L 307.911466 -75.201065 
L 305.130472 -75.31339 
L 302.349477 -75.420062 
L 299.568482 -75.566057 
L 296.787487 -75.774403 
L 294.006492 -76.053375 
L 291.225498 -76.336915 
L 288.444503 -76.621261 
L 285.663508 -76.927589 
L 282.882513 -77.240331 
L 280.101518 -77.673389 
L 277.320524 -78.143834 
L 274.539529 -78.708197 
L 271.758534 -79.422518 
L 268.977539 -80.244783 
L 266.196544 -80.980709 
L 263.41555 -81.785296 
L 260.634555 -82.575045 
L 257.85356 -83.426986 
L 255.072565 -84.246815 
L 252.29157 -85.144406 
L 249.510576 -85.996496 
L 246.729581 -86.941484 
L 243.948586 -87.887953 
L 241.167591 -88.891693 
L 238.386596 -89.848022 
L 235.605602 -90.723541 
L 232.824607 -91.602222 
L 230.043612 -92.475344 
L 227.262617 -93.353517 
L 224.481622 -94.300115 
L 221.700628 -95.252346 
L 218.919633 -96.204578 
L 216.138638 -97.156809 
L 213.357643 -98.10904 
L 210.576648 -99.061271 
L 207.795654 -100.013503 
L 205.014659 -100.965734 
L 202.233664 -101.917965 
L 199.452669 -102.870196 
L 196.671674 -103.822428 
L 193.89068 -104.774659 
L 191.109685 -105.726696 
L 188.32869 -106.678681 
L 185.547695 -107.630457 
L 182.7667 -108.581506 
L 179.985706 -109.532555 
L 177.204711 -110.44297 
L 174.423716 -111.351521 
L 171.642721 -112.260071 
L 168.861727 -113.168622 
L 166.080732 -114.077173 
L 163.299737 -115.042186 
L 160.518742 -116.010292 
L 157.737747 -116.978398 
L 154.956753 -117.946504 
L 152.175758 -118.91461 
L 149.394763 -119.882716 
L 146.613768 -120.850768 
L 143.832773 -121.818692 
L 141.051779 -122.786616 
L 138.270784 -123.75454 
L 135.489789 -124.722463 
L 132.708794 -125.681018 
L 129.927799 -126.626492 
L 127.146805 -127.571866 
L 124.36581 -128.516931 
L 121.584815 -129.461996 
L 118.80382 -130.407061 
L 116.022825 -131.352126 
L 113.241831 -132.297191 
L 110.460836 -133.242256 
L 107.679841 -134.187321 
L 104.898846 -135.132386 
L 102.117851 -136.077451 
L 99.336857 -137.022516 
L 96.555862 -137.96758 
L 93.774867 -138.912645 
L 90.993872 -139.85771 
L 88.212877 -140.802775 
L 85.431883 -141.74784 
L 82.650888 -142.692905 
L 79.869893 -143.63797 
L 77.088898 -144.583035 
L 74.307903 -145.5281 
L 71.526909 -146.473165 
L 68.745914 -147.41823 
L 65.964919 -148.363295 
L 63.183924 -149.30836 
z
" id="md349588c3d" style="stroke:#ffffff;stroke-opacity:0.15;stroke-width:0.8;"/>
    </defs>
    <g clip-path="url(#p1f942e6de4)">
     <use style="fill:#471365;fill-opacity:0.15;stroke:#ffffff;stroke-opacity:0.15;stroke-width:0.8;" x="0" xlink:href="#md349588c3d" y="432"/>
    </g>
   </g>
   <g id="line2d_12">
    <path clip-path="url(#p1f942e6de4)" d="M 63.183924 321.762861 
L 65.964919 322.213371 
L 68.745914 322.663881 
L 71.526909 323.11439 
L 74.307903 323.5649 
L 77.088898 324.015409 
L 79.869893 324.465919 
L 82.650888 324.916429 
L 85.431883 325.366938 
L 88.212877 325.817448 
L 90.993872 326.267957 
L 93.774867 326.718467 
L 96.555862 327.168977 
L 99.336857 327.619486 
L 102.117851 328.069996 
L 104.898846 328.520505 
L 107.679841 328.971015 
L 110.460836 329.421525 
L 113.241831 329.872034 
L 116.022825 330.322544 
L 118.80382 330.773053 
L 121.584815 331.223563 
L 124.36581 331.674073 
L 127.146805 332.124582 
L 129.927799 332.575092 
L 132.708794 333.025602 
L 135.489789 333.476111 
L 138.270784 333.926621 
L 141.051779 334.37713 
L 143.832773 334.82764 
L 146.613768 335.27815 
L 149.394763 335.728659 
L 152.175758 336.179169 
L 154.956753 336.629678 
L 157.737747 337.080188 
L 160.518742 337.530698 
L 163.299737 337.981207 
L 166.080732 338.431717 
L 168.861727 338.882226 
L 171.642721 339.332736 
L 174.423716 339.783246 
L 177.204711 340.233755 
L 179.985706 340.684265 
L 182.7667 341.134775 
L 185.547695 341.585284 
L 188.32869 342.035794 
L 191.109685 342.486303 
L 193.89068 342.936813 
L 196.671674 343.387323 
L 199.452669 343.837832 
L 202.233664 344.288342 
L 205.014659 344.738851 
L 207.795654 345.189361 
L 210.576648 345.639871 
L 213.357643 346.09038 
L 216.138638 346.54089 
L 218.919633 346.991399 
L 221.700628 347.441909 
L 224.481622 347.892419 
L 227.262617 348.342928 
L 230.043612 348.793438 
L 232.824607 349.243948 
L 235.605602 349.694457 
L 238.386596 350.144967 
L 241.167591 350.595476 
L 243.948586 351.045986 
L 246.729581 351.496496 
L 249.510576 351.947005 
L 252.29157 352.397515 
L 255.072565 352.848024 
L 257.85356 353.298534 
L 260.634555 353.749044 
L 263.41555 354.199553 
L 266.196544 354.650063 
L 268.977539 355.100572 
L 271.758534 355.551082 
L 274.539529 356.001592 
L 277.320524 356.452101 
L 280.101518 356.902611 
L 282.882513 357.353121 
L 285.663508 357.80363 
L 288.444503 358.25414 
L 291.225498 358.704649 
L 294.006492 359.155159 
L 296.787487 359.605669 
L 299.568482 360.056178 
L 302.349477 360.506688 
L 305.130472 360.957197 
L 307.911466 361.407707 
L 310.692461 361.858217 
L 313.473456 362.308726 
L 316.254451 362.759236 
L 319.035446 363.209745 
L 321.81644 363.660255 
L 324.597435 364.110765 
L 327.37843 364.561274 
L 330.159425 365.011784 
L 332.940419 365.462293 
L 335.721414 365.912803 
L 338.502409 366.363313 
" style="fill:none;stroke:#471365;stroke-linecap:round;stroke-width:1.8;"/>
   </g>
   <g id="patch_3">
    <path d="M 49.418 390.332 
L 49.418 81.023333 
" style="fill:none;stroke:#262626;stroke-linecap:square;stroke-linejoin:miter;"/>
   </g>
   <g id="patch_4">
    <path d="M 49.418 390.332 
L 352.268333 390.332 
" style="fill:none;stroke:#262626;stroke-linecap:square;stroke-linejoin:miter;"/>
   </g>
   <g id="legend_1">
    <g id="patch_5">
     <path d="M 193.528708 100.980083 
L 346.108333 100.980083 
Q 347.868333 100.980083 347.868333 99.220083 
L 347.868333 87.183333 
Q 347.868333 85.423333 346.108333 85.423333 
L 193.528708 85.423333 
Q 191.768708 85.423333 191.768708 87.183333 
L 191.768708 99.220083 
Q 191.768708 100.980083 193.528708 100.980083 
z
" style="fill:#ffffff;opacity:0.8;stroke:#cccccc;stroke-linejoin:miter;stroke-width:0.8;"/>
    </g>
    <g id="line2d_13"/>
    <g id="line2d_14"/>
    <g id="text_14">
     <!-- pearsonr = -0.2; p = 0.0018 -->
     <defs>
      <path d="M 18.109375 8.203125 
L 18.109375 -20.796875 
L 9.078125 -20.796875 
L 9.078125 54.6875 
L 18.109375 54.6875 
L 18.109375 46.390625 
Q 20.953125 51.265625 25.265625 53.625 
Q 29.59375 56 35.59375 56 
Q 45.5625 56 51.78125 48.09375 
Q 58.015625 40.1875 58.015625 27.296875 
Q 58.015625 14.40625 51.78125 6.484375 
Q 45.5625 -1.421875 35.59375 -1.421875 
Q 29.59375 -1.421875 25.265625 0.953125 
Q 20.953125 3.328125 18.109375 8.203125 
z
M 48.6875 27.296875 
Q 48.6875 37.203125 44.609375 42.84375 
Q 40.53125 48.484375 33.40625 48.484375 
Q 26.265625 48.484375 22.1875 42.84375 
Q 18.109375 37.203125 18.109375 27.296875 
Q 18.109375 17.390625 22.1875 11.75 
Q 26.265625 6.109375 33.40625 6.109375 
Q 40.53125 6.109375 44.609375 11.75 
Q 48.6875 17.390625 48.6875 27.296875 
z
" id="DejaVuSans-70"/>
      <path d="M 44.28125 53.078125 
L 44.28125 44.578125 
Q 40.484375 46.53125 36.375 47.5 
Q 32.28125 48.484375 27.875 48.484375 
Q 21.1875 48.484375 17.84375 46.4375 
Q 14.5 44.390625 14.5 40.28125 
Q 14.5 37.15625 16.890625 35.375 
Q 19.28125 33.59375 26.515625 31.984375 
L 29.59375 31.296875 
Q 39.15625 29.25 43.1875 25.515625 
Q 47.21875 21.78125 47.21875 15.09375 
Q 47.21875 7.46875 41.1875 3.015625 
Q 35.15625 -1.421875 24.609375 -1.421875 
Q 20.21875 -1.421875 15.453125 -0.5625 
Q 10.6875 0.296875 5.421875 2 
L 5.421875 11.28125 
Q 10.40625 8.6875 15.234375 7.390625 
Q 20.0625 6.109375 24.8125 6.109375 
Q 31.15625 6.109375 34.5625 8.28125 
Q 37.984375 10.453125 37.984375 14.40625 
Q 37.984375 18.0625 35.515625 20.015625 
Q 33.0625 21.96875 24.703125 23.78125 
L 21.578125 24.515625 
Q 13.234375 26.265625 9.515625 29.90625 
Q 5.8125 33.546875 5.8125 39.890625 
Q 5.8125 47.609375 11.28125 51.796875 
Q 16.75 56 26.8125 56 
Q 31.78125 56 36.171875 55.265625 
Q 40.578125 54.546875 44.28125 53.078125 
z
" id="DejaVuSans-73"/>
      <path d="M 10.59375 45.40625 
L 73.1875 45.40625 
L 73.1875 37.203125 
L 10.59375 37.203125 
z
M 10.59375 25.484375 
L 73.1875 25.484375 
L 73.1875 17.1875 
L 10.59375 17.1875 
z
" id="DejaVuSans-3d"/>
      <path d="M 4.890625 31.390625 
L 31.203125 31.390625 
L 31.203125 23.390625 
L 4.890625 23.390625 
z
" id="DejaVuSans-2d"/>
      <path d="M 10.6875 12.40625 
L 21 12.40625 
L 21 0 
L 10.6875 0 
z
" id="DejaVuSans-2e"/>
      <path d="M 11.71875 51.703125 
L 22.015625 51.703125 
L 22.015625 39.3125 
L 11.71875 39.3125 
z
M 11.71875 12.40625 
L 22.015625 12.40625 
L 22.015625 4 
L 14.015625 -11.625 
L 7.71875 -11.625 
L 11.71875 4 
z
" id="DejaVuSans-3b"/>
     </defs>
     <g style="fill:#262626;" transform="translate(219.928708 95.629958)scale(0.088 -0.088)">
      <use xlink:href="#DejaVuSans-70"/>
      <use x="63.476562" xlink:href="#DejaVuSans-65"/>
      <use x="125" xlink:href="#DejaVuSans-61"/>
      <use x="186.279297" xlink:href="#DejaVuSans-72"/>
      <use x="227.392578" xlink:href="#DejaVuSans-73"/>
      <use x="279.492188" xlink:href="#DejaVuSans-6f"/>
      <use x="340.673828" xlink:href="#DejaVuSans-6e"/>
      <use x="404.052734" xlink:href="#DejaVuSans-72"/>
      <use x="445.166016" xlink:href="#DejaVuSans-20"/>
      <use x="476.953125" xlink:href="#DejaVuSans-3d"/>
      <use x="560.742188" xlink:href="#DejaVuSans-20"/>
      <use x="592.529297" xlink:href="#DejaVuSans-2d"/>
      <use x="628.613281" xlink:href="#DejaVuSans-30"/>
      <use x="692.236328" xlink:href="#DejaVuSans-2e"/>
      <use x="724.023438" xlink:href="#DejaVuSans-32"/>
      <use x="787.646484" xlink:href="#DejaVuSans-3b"/>
      <use x="821.337891" xlink:href="#DejaVuSans-20"/>
      <use x="853.125" xlink:href="#DejaVuSans-70"/>
      <use x="916.601562" xlink:href="#DejaVuSans-20"/>
      <use x="948.388672" xlink:href="#DejaVuSans-3d"/>
      <use x="1032.177734" xlink:href="#DejaVuSans-20"/>
      <use x="1063.964844" xlink:href="#DejaVuSans-30"/>
      <use x="1127.587891" xlink:href="#DejaVuSans-2e"/>
      <use x="1159.375" xlink:href="#DejaVuSans-30"/>
      <use x="1222.998047" xlink:href="#DejaVuSans-30"/>
      <use x="1286.621094" xlink:href="#DejaVuSans-31"/>
      <use x="1350.244141" xlink:href="#DejaVuSans-38"/>
     </g>
    </g>
   </g>
  </g>
  <g id="axes_2">
   <g id="patch_6">
    <path d="M 49.418 61.055333 
L 352.268333 61.055333 
L 352.268333 15.168 
L 49.418 15.168 
z
" style="fill:#ffffff;"/>
   </g>
   <g id="matplotlib.axis_3">
    <g id="xtick_6">
     <g id="line2d_15">
      <g>
       <use style="fill:#262626;stroke:#262626;" x="67.641927" xlink:href="#mb2bc570a80" y="61.055333"/>
      </g>
     </g>
    </g>
    <g id="xtick_7">
     <g id="line2d_16">
      <g>
       <use style="fill:#262626;stroke:#262626;" x="126.954578" xlink:href="#mb2bc570a80" y="61.055333"/>
      </g>
     </g>
    </g>
    <g id="xtick_8">
     <g id="line2d_17">
      <g>
       <use style="fill:#262626;stroke:#262626;" x="186.267229" xlink:href="#mb2bc570a80" y="61.055333"/>
      </g>
     </g>
    </g>
    <g id="xtick_9">
     <g id="line2d_18">
      <g>
       <use style="fill:#262626;stroke:#262626;" x="245.57988" xlink:href="#mb2bc570a80" y="61.055333"/>
      </g>
     </g>
    </g>
    <g id="xtick_10">
     <g id="line2d_19">
      <g>
       <use style="fill:#262626;stroke:#262626;" x="304.892531" xlink:href="#mb2bc570a80" y="61.055333"/>
      </g>
     </g>
    </g>
   </g>
   <g id="matplotlib.axis_4">
    <g id="ytick_7"/>
    <g id="ytick_8"/>
   </g>
   <g id="patch_7">
    <path clip-path="url(#p38f3dc845b)" d="M 105.303376 61.055333 
L 113.988811 61.055333 
L 113.988811 60.403061 
L 105.303376 60.403061 
z
" style="fill:#471365;opacity:0.4;stroke:#ffffff;stroke-linejoin:miter;stroke-width:0.8;"/>
   </g>
   <g id="patch_8">
    <path clip-path="url(#p38f3dc845b)" d="M 113.988811 61.055333 
L 122.674247 61.055333 
L 122.674247 61.055333 
L 113.988811 61.055333 
z
" style="fill:#471365;opacity:0.4;stroke:#ffffff;stroke-linejoin:miter;stroke-width:0.8;"/>
   </g>
   <g id="patch_9">
    <path clip-path="url(#p38f3dc845b)" d="M 122.674247 61.055333 
L 131.359682 61.055333 
L 131.359682 61.055333 
L 122.674247 61.055333 
z
" style="fill:#471365;opacity:0.4;stroke:#ffffff;stroke-linejoin:miter;stroke-width:0.8;"/>
   </g>
   <g id="patch_10">
    <path clip-path="url(#p38f3dc845b)" d="M 131.359682 61.055333 
L 140.045118 61.055333 
L 140.045118 61.055333 
L 131.359682 61.055333 
z
" style="fill:#471365;opacity:0.4;stroke:#ffffff;stroke-linejoin:miter;stroke-width:0.8;"/>
   </g>
   <g id="patch_11">
    <path clip-path="url(#p38f3dc845b)" d="M 140.045118 61.055333 
L 148.730554 61.055333 
L 148.730554 61.055333 
L 140.045118 61.055333 
z
" style="fill:#471365;opacity:0.4;stroke:#ffffff;stroke-linejoin:miter;stroke-width:0.8;"/>
   </g>
   <g id="patch_12">
    <path clip-path="url(#p38f3dc845b)" d="M 148.730554 61.055333 
L 157.415989 61.055333 
L 157.415989 60.403061 
L 148.730554 60.403061 
z
" style="fill:#471365;opacity:0.4;stroke:#ffffff;stroke-linejoin:miter;stroke-width:0.8;"/>
   </g>
   <g id="patch_13">
    <path clip-path="url(#p38f3dc845b)" d="M 157.415989 61.055333 
L 166.101425 61.055333 
L 166.101425 60.403061 
L 157.415989 60.403061 
z
" style="fill:#471365;opacity:0.4;stroke:#ffffff;stroke-linejoin:miter;stroke-width:0.8;"/>
   </g>
   <g id="patch_14">
    <path clip-path="url(#p38f3dc845b)" d="M 166.101425 61.055333 
L 174.78686 61.055333 
L 174.78686 61.055333 
L 166.101425 61.055333 
z
" style="fill:#471365;opacity:0.4;stroke:#ffffff;stroke-linejoin:miter;stroke-width:0.8;"/>
   </g>
   <g id="patch_15">
    <path clip-path="url(#p38f3dc845b)" d="M 174.78686 61.055333 
L 183.472296 61.055333 
L 183.472296 59.098517 
L 174.78686 59.098517 
z
" style="fill:#471365;opacity:0.4;stroke:#ffffff;stroke-linejoin:miter;stroke-width:0.8;"/>
   </g>
   <g id="patch_16">
    <path clip-path="url(#p38f3dc845b)" d="M 183.472296 61.055333 
L 192.157731 61.055333 
L 192.157731 59.750789 
L 183.472296 59.750789 
z
" style="fill:#471365;opacity:0.4;stroke:#ffffff;stroke-linejoin:miter;stroke-width:0.8;"/>
   </g>
   <g id="patch_17">
    <path clip-path="url(#p38f3dc845b)" d="M 192.157731 61.055333 
L 200.843167 61.055333 
L 200.843167 61.055333 
L 192.157731 61.055333 
z
" style="fill:#471365;opacity:0.4;stroke:#ffffff;stroke-linejoin:miter;stroke-width:0.8;"/>
   </g>
   <g id="patch_18">
    <path clip-path="url(#p38f3dc845b)" d="M 200.843167 61.055333 
L 209.528602 61.055333 
L 209.528602 59.750789 
L 200.843167 59.750789 
z
" style="fill:#471365;opacity:0.4;stroke:#ffffff;stroke-linejoin:miter;stroke-width:0.8;"/>
   </g>
   <g id="patch_19">
    <path clip-path="url(#p38f3dc845b)" d="M 209.528602 61.055333 
L 218.214038 61.055333 
L 218.214038 55.184886 
L 209.528602 55.184886 
z
" style="fill:#471365;opacity:0.4;stroke:#ffffff;stroke-linejoin:miter;stroke-width:0.8;"/>
   </g>
   <g id="patch_20">
    <path clip-path="url(#p38f3dc845b)" d="M 218.214038 61.055333 
L 226.899473 61.055333 
L 226.899473 58.446245 
L 218.214038 58.446245 
z
" style="fill:#471365;opacity:0.4;stroke:#ffffff;stroke-linejoin:miter;stroke-width:0.8;"/>
   </g>
   <g id="patch_21">
    <path clip-path="url(#p38f3dc845b)" d="M 226.899473 61.055333 
L 235.584909 61.055333 
L 235.584909 58.446245 
L 226.899473 58.446245 
z
" style="fill:#471365;opacity:0.4;stroke:#ffffff;stroke-linejoin:miter;stroke-width:0.8;"/>
   </g>
   <g id="patch_22">
    <path clip-path="url(#p38f3dc845b)" d="M 235.584909 61.055333 
L 244.270344 61.055333 
L 244.270344 56.48943 
L 235.584909 56.48943 
z
" style="fill:#471365;opacity:0.4;stroke:#ffffff;stroke-linejoin:miter;stroke-width:0.8;"/>
   </g>
   <g id="patch_23">
    <path clip-path="url(#p38f3dc845b)" d="M 244.270344 61.055333 
L 252.95578 61.055333 
L 252.95578 53.22807 
L 244.270344 53.22807 
z
" style="fill:#471365;opacity:0.4;stroke:#ffffff;stroke-linejoin:miter;stroke-width:0.8;"/>
   </g>
   <g id="patch_24">
    <path clip-path="url(#p38f3dc845b)" d="M 252.95578 61.055333 
L 261.641215 61.055333 
L 261.641215 53.22807 
L 252.95578 53.22807 
z
" style="fill:#471365;opacity:0.4;stroke:#ffffff;stroke-linejoin:miter;stroke-width:0.8;"/>
   </g>
   <g id="patch_25">
    <path clip-path="url(#p38f3dc845b)" d="M 261.641215 61.055333 
L 270.326651 61.055333 
L 270.326651 46.053078 
L 261.641215 46.053078 
z
" style="fill:#471365;opacity:0.4;stroke:#ffffff;stroke-linejoin:miter;stroke-width:0.8;"/>
   </g>
   <g id="patch_26">
    <path clip-path="url(#p38f3dc845b)" d="M 270.326651 61.055333 
L 279.012086 61.055333 
L 279.012086 37.573542 
L 270.326651 37.573542 
z
" style="fill:#471365;opacity:0.4;stroke:#ffffff;stroke-linejoin:miter;stroke-width:0.8;"/>
   </g>
   <g id="patch_27">
    <path clip-path="url(#p38f3dc845b)" d="M 279.012086 61.055333 
L 287.697522 61.055333 
L 287.697522 28.441735 
L 279.012086 28.441735 
z
" style="fill:#471365;opacity:0.4;stroke:#ffffff;stroke-linejoin:miter;stroke-width:0.8;"/>
   </g>
   <g id="patch_28">
    <path clip-path="url(#p38f3dc845b)" d="M 287.697522 61.055333 
L 296.382957 61.055333 
L 296.382957 17.353111 
L 287.697522 17.353111 
z
" style="fill:#471365;opacity:0.4;stroke:#ffffff;stroke-linejoin:miter;stroke-width:0.8;"/>
   </g>
   <g id="line2d_20">
    <path clip-path="url(#p38f3dc845b)" d="M 75.698401 61.052745 
L 78.226578 61.049949 
L 80.754755 61.044839 
L 83.282932 61.036176 
L 85.811109 61.022572 
L 88.339286 61.002852 
L 90.867463 60.976581 
L 93.39564 60.944637 
L 95.923818 60.909578 
L 98.451995 60.875556 
L 100.980172 60.847622 
L 103.508349 60.83053 
L 106.036526 60.827422 
L 108.564703 60.838887 
L 111.09288 60.862772 
L 113.621057 60.894835 
L 116.149234 60.929956 
L 118.677411 60.963408 
L 121.205588 60.991745 
L 123.733765 61.013064 
L 126.261943 61.026671 
L 128.79012 61.032422 
L 131.318297 61.030028 
L 133.846474 61.018601 
L 136.374651 60.996636 
L 138.902828 60.962478 
L 141.431005 60.915209 
L 143.959182 60.85566 
L 146.487359 60.787146 
L 149.015536 60.715406 
L 151.543713 60.647471 
L 154.071891 60.589579 
L 156.600068 60.54481 
L 159.128245 60.51144 
L 161.656422 60.482961 
L 164.184599 60.45007 
L 166.712776 60.404116 
L 169.240953 60.340695 
L 171.76913 60.261916 
L 174.297307 60.176314 
L 176.825484 60.096303 
L 179.353661 60.034042 
L 181.881839 59.997062 
L 184.410016 59.985014 
L 186.938193 59.98838 
L 189.46637 59.989387 
L 191.994547 59.964962 
L 194.522724 59.891261 
L 197.050901 59.749124 
L 199.579078 59.529471 
L 202.107255 59.237342 
L 204.635432 58.893131 
L 207.163609 58.529951 
L 209.691786 58.18705 
L 212.219964 57.900585 
L 214.748141 57.69424 
L 217.276318 57.572594 
L 219.804495 57.519465 
L 222.332672 57.501817 
L 224.860849 57.47796 
L 227.389026 57.407391 
L 229.917203 57.259288 
L 232.44538 57.017391 
L 234.973557 56.680386 
L 237.501734 56.258324 
L 240.029912 55.766557 
L 242.558089 55.218989 
L 245.086266 54.622218 
L 247.614443 53.971705 
L 250.14262 53.250616 
L 252.670797 52.431517 
L 255.198974 51.480545 
L 257.727151 50.363182 
L 260.255328 49.050377 
L 262.783505 47.523953 
L 265.311682 45.781001 
L 267.839859 43.837939 
L 270.368037 41.735461 
L 272.896214 39.54514 
L 275.424391 37.376619 
L 277.952568 35.381917 
L 280.480745 33.751403 
L 283.008922 32.696306 
L 285.537099 32.416047 
L 288.065276 33.054982 
L 290.593453 34.659789 
L 293.12163 37.152337 
L 295.649807 40.33043 
L 298.177985 43.900212 
L 300.706162 47.53246 
L 303.234339 50.925895 
L 305.762516 53.858417 
L 308.290693 56.212795 
L 310.81887 57.973665 
L 313.347047 59.202695 
L 315.875224 60.004185 
L 318.403401 60.492937 
L 320.931578 60.771794 
L 323.459755 60.920714 
L 325.987933 60.995176 
" style="fill:none;stroke:#471365;stroke-linecap:round;stroke-width:1.2;"/>
   </g>
   <g id="patch_29">
    <path d="M 49.418 61.055333 
L 352.268333 61.055333 
" style="fill:none;stroke:#262626;stroke-linecap:square;stroke-linejoin:miter;"/>
   </g>
  </g>
  <g id="axes_3">
   <g id="patch_30">
    <path d="M 372.236333 390.332 
L 416.832 390.332 
L 416.832 81.023333 
L 372.236333 81.023333 
z
" style="fill:#ffffff;"/>
   </g>
   <g id="matplotlib.axis_5">
    <g id="xtick_11"/>
    <g id="xtick_12"/>
    <g id="xtick_13"/>
   </g>
   <g id="matplotlib.axis_6">
    <g id="ytick_9">
     <g id="line2d_21">
      <g>
       <use style="fill:#262626;stroke:#262626;" x="372.236333" xlink:href="#mc79c24c76e" y="390.332"/>
      </g>
     </g>
    </g>
    <g id="ytick_10">
     <g id="line2d_22">
      <g>
       <use style="fill:#262626;stroke:#262626;" x="372.236333" xlink:href="#mc79c24c76e" y="334.094061"/>
      </g>
     </g>
    </g>
    <g id="ytick_11">
     <g id="line2d_23">
      <g>
       <use style="fill:#262626;stroke:#262626;" x="372.236333" xlink:href="#mc79c24c76e" y="277.856121"/>
      </g>
     </g>
    </g>
    <g id="ytick_12">
     <g id="line2d_24">
      <g>
       <use style="fill:#262626;stroke:#262626;" x="372.236333" xlink:href="#mc79c24c76e" y="221.618182"/>
      </g>
     </g>
    </g>
    <g id="ytick_13">
     <g id="line2d_25">
      <g>
       <use style="fill:#262626;stroke:#262626;" x="372.236333" xlink:href="#mc79c24c76e" y="165.380242"/>
      </g>
     </g>
    </g>
    <g id="ytick_14">
     <g id="line2d_26">
      <g>
       <use style="fill:#262626;stroke:#262626;" x="372.236333" xlink:href="#mc79c24c76e" y="109.142303"/>
      </g>
     </g>
    </g>
   </g>
   <g id="patch_31">
    <path clip-path="url(#p7dd2713f61)" d="M 372.236333 373.375876 
L 378.303771 373.375876 
L 378.303771 368.508752 
L 372.236333 368.508752 
z
" style="fill:#471365;opacity:0.4;stroke:#ffffff;stroke-linejoin:miter;stroke-width:0.8;"/>
   </g>
   <g id="patch_32">
    <path clip-path="url(#p7dd2713f61)" d="M 372.236333 368.508752 
L 411.398885 368.508752 
L 411.398885 363.641628 
L 372.236333 363.641628 
z
" style="fill:#471365;opacity:0.4;stroke:#ffffff;stroke-linejoin:miter;stroke-width:0.8;"/>
   </g>
   <g id="patch_33">
    <path clip-path="url(#p7dd2713f61)" d="M 372.236333 363.641628 
L 414.708397 363.641628 
L 414.708397 358.774504 
L 372.236333 358.774504 
z
" style="fill:#471365;opacity:0.4;stroke:#ffffff;stroke-linejoin:miter;stroke-width:0.8;"/>
   </g>
   <g id="patch_34">
    <path clip-path="url(#p7dd2713f61)" d="M 372.236333 358.774504 
L 388.783891 358.774504 
L 388.783891 353.90738 
L 372.236333 353.90738 
z
" style="fill:#471365;opacity:0.4;stroke:#ffffff;stroke-linejoin:miter;stroke-width:0.8;"/>
   </g>
   <g id="patch_35">
    <path clip-path="url(#p7dd2713f61)" d="M 372.236333 353.90738 
L 376.09743 353.90738 
L 376.09743 349.040256 
L 372.236333 349.040256 
z
" style="fill:#471365;opacity:0.4;stroke:#ffffff;stroke-linejoin:miter;stroke-width:0.8;"/>
   </g>
   <g id="patch_36">
    <path clip-path="url(#p7dd2713f61)" d="M 372.236333 349.040256 
L 375.545845 349.040256 
L 375.545845 344.173132 
L 372.236333 344.173132 
z
" style="fill:#471365;opacity:0.4;stroke:#ffffff;stroke-linejoin:miter;stroke-width:0.8;"/>
   </g>
   <g id="patch_37">
    <path clip-path="url(#p7dd2713f61)" d="M 372.236333 344.173132 
L 374.99426 344.173132 
L 374.99426 339.306008 
L 372.236333 339.306008 
z
" style="fill:#471365;opacity:0.4;stroke:#ffffff;stroke-linejoin:miter;stroke-width:0.8;"/>
   </g>
   <g id="patch_38">
    <path clip-path="url(#p7dd2713f61)" d="M 372.236333 339.306008 
L 373.891089 339.306008 
L 373.891089 334.438884 
L 372.236333 334.438884 
z
" style="fill:#471365;opacity:0.4;stroke:#ffffff;stroke-linejoin:miter;stroke-width:0.8;"/>
   </g>
   <g id="patch_39">
    <path clip-path="url(#p7dd2713f61)" d="M 372.236333 334.438884 
L 374.442674 334.438884 
L 374.442674 329.57176 
L 372.236333 329.57176 
z
" style="fill:#471365;opacity:0.4;stroke:#ffffff;stroke-linejoin:miter;stroke-width:0.8;"/>
   </g>
   <g id="patch_40">
    <path clip-path="url(#p7dd2713f61)" d="M 372.236333 329.57176 
L 376.09743 329.57176 
L 376.09743 324.704636 
L 372.236333 324.704636 
z
" style="fill:#471365;opacity:0.4;stroke:#ffffff;stroke-linejoin:miter;stroke-width:0.8;"/>
   </g>
   <g id="patch_41">
    <path clip-path="url(#p7dd2713f61)" d="M 372.236333 324.704636 
L 372.236333 324.704636 
L 372.236333 319.837512 
L 372.236333 319.837512 
z
" style="fill:#471365;opacity:0.4;stroke:#ffffff;stroke-linejoin:miter;stroke-width:0.8;"/>
   </g>
   <g id="patch_42">
    <path clip-path="url(#p7dd2713f61)" d="M 372.236333 319.837512 
L 373.339504 319.837512 
L 373.339504 314.970388 
L 372.236333 314.970388 
z
" style="fill:#471365;opacity:0.4;stroke:#ffffff;stroke-linejoin:miter;stroke-width:0.8;"/>
   </g>
   <g id="patch_43">
    <path clip-path="url(#p7dd2713f61)" d="M 372.236333 314.970388 
L 373.891089 314.970388 
L 373.891089 310.103264 
L 372.236333 310.103264 
z
" style="fill:#471365;opacity:0.4;stroke:#ffffff;stroke-linejoin:miter;stroke-width:0.8;"/>
   </g>
   <g id="patch_44">
    <path clip-path="url(#p7dd2713f61)" d="M 372.236333 310.103264 
L 372.787919 310.103264 
L 372.787919 305.23614 
L 372.236333 305.23614 
z
" style="fill:#471365;opacity:0.4;stroke:#ffffff;stroke-linejoin:miter;stroke-width:0.8;"/>
   </g>
   <g id="patch_45">
    <path clip-path="url(#p7dd2713f61)" d="M 372.236333 305.23614 
L 372.236333 305.23614 
L 372.236333 300.369016 
L 372.236333 300.369016 
z
" style="fill:#471365;opacity:0.4;stroke:#ffffff;stroke-linejoin:miter;stroke-width:0.8;"/>
   </g>
   <g id="patch_46">
    <path clip-path="url(#p7dd2713f61)" d="M 372.236333 300.369016 
L 372.236333 300.369016 
L 372.236333 295.501892 
L 372.236333 295.501892 
z
" style="fill:#471365;opacity:0.4;stroke:#ffffff;stroke-linejoin:miter;stroke-width:0.8;"/>
   </g>
   <g id="patch_47">
    <path clip-path="url(#p7dd2713f61)" d="M 372.236333 295.501892 
L 373.339504 295.501892 
L 373.339504 290.634768 
L 372.236333 290.634768 
z
" style="fill:#471365;opacity:0.4;stroke:#ffffff;stroke-linejoin:miter;stroke-width:0.8;"/>
   </g>
   <g id="patch_48">
    <path clip-path="url(#p7dd2713f61)" d="M 372.236333 290.634768 
L 372.236333 290.634768 
L 372.236333 285.767644 
L 372.236333 285.767644 
z
" style="fill:#471365;opacity:0.4;stroke:#ffffff;stroke-linejoin:miter;stroke-width:0.8;"/>
   </g>
   <g id="patch_49">
    <path clip-path="url(#p7dd2713f61)" d="M 372.236333 285.767644 
L 372.787919 285.767644 
L 372.787919 280.90052 
L 372.236333 280.90052 
z
" style="fill:#471365;opacity:0.4;stroke:#ffffff;stroke-linejoin:miter;stroke-width:0.8;"/>
   </g>
   <g id="patch_50">
    <path clip-path="url(#p7dd2713f61)" d="M 372.236333 280.90052 
L 372.236333 280.90052 
L 372.236333 276.033396 
L 372.236333 276.033396 
z
" style="fill:#471365;opacity:0.4;stroke:#ffffff;stroke-linejoin:miter;stroke-width:0.8;"/>
   </g>
   <g id="patch_51">
    <path clip-path="url(#p7dd2713f61)" d="M 372.236333 276.033396 
L 372.787919 276.033396 
L 372.787919 271.166272 
L 372.236333 271.166272 
z
" style="fill:#471365;opacity:0.4;stroke:#ffffff;stroke-linejoin:miter;stroke-width:0.8;"/>
   </g>
   <g id="patch_52">
    <path clip-path="url(#p7dd2713f61)" d="M 372.236333 271.166272 
L 372.236333 271.166272 
L 372.236333 266.299148 
L 372.236333 266.299148 
z
" style="fill:#471365;opacity:0.4;stroke:#ffffff;stroke-linejoin:miter;stroke-width:0.8;"/>
   </g>
   <g id="patch_53">
    <path clip-path="url(#p7dd2713f61)" d="M 372.236333 266.299148 
L 372.236333 266.299148 
L 372.236333 261.432024 
L 372.236333 261.432024 
z
" style="fill:#471365;opacity:0.4;stroke:#ffffff;stroke-linejoin:miter;stroke-width:0.8;"/>
   </g>
   <g id="patch_54">
    <path clip-path="url(#p7dd2713f61)" d="M 372.236333 261.432024 
L 372.787919 261.432024 
L 372.787919 256.5649 
L 372.236333 256.5649 
z
" style="fill:#471365;opacity:0.4;stroke:#ffffff;stroke-linejoin:miter;stroke-width:0.8;"/>
   </g>
   <g id="patch_55">
    <path clip-path="url(#p7dd2713f61)" d="M 372.236333 256.5649 
L 372.236333 256.5649 
L 372.236333 251.697776 
L 372.236333 251.697776 
z
" style="fill:#471365;opacity:0.4;stroke:#ffffff;stroke-linejoin:miter;stroke-width:0.8;"/>
   </g>
   <g id="patch_56">
    <path clip-path="url(#p7dd2713f61)" d="M 372.236333 251.697776 
L 372.236333 251.697776 
L 372.236333 246.830652 
L 372.236333 246.830652 
z
" style="fill:#471365;opacity:0.4;stroke:#ffffff;stroke-linejoin:miter;stroke-width:0.8;"/>
   </g>
   <g id="patch_57">
    <path clip-path="url(#p7dd2713f61)" d="M 372.236333 246.830652 
L 372.236333 246.830652 
L 372.236333 241.963528 
L 372.236333 241.963528 
z
" style="fill:#471365;opacity:0.4;stroke:#ffffff;stroke-linejoin:miter;stroke-width:0.8;"/>
   </g>
   <g id="patch_58">
    <path clip-path="url(#p7dd2713f61)" d="M 372.236333 241.963528 
L 372.236333 241.963528 
L 372.236333 237.096404 
L 372.236333 237.096404 
z
" style="fill:#471365;opacity:0.4;stroke:#ffffff;stroke-linejoin:miter;stroke-width:0.8;"/>
   </g>
   <g id="patch_59">
    <path clip-path="url(#p7dd2713f61)" d="M 372.236333 237.096404 
L 372.787919 237.096404 
L 372.787919 232.229279 
L 372.236333 232.229279 
z
" style="fill:#471365;opacity:0.4;stroke:#ffffff;stroke-linejoin:miter;stroke-width:0.8;"/>
   </g>
   <g id="patch_60">
    <path clip-path="url(#p7dd2713f61)" d="M 372.236333 232.229279 
L 372.236333 232.229279 
L 372.236333 227.362155 
L 372.236333 227.362155 
z
" style="fill:#471365;opacity:0.4;stroke:#ffffff;stroke-linejoin:miter;stroke-width:0.8;"/>
   </g>
   <g id="patch_61">
    <path clip-path="url(#p7dd2713f61)" d="M 372.236333 227.362155 
L 372.236333 227.362155 
L 372.236333 222.495031 
L 372.236333 222.495031 
z
" style="fill:#471365;opacity:0.4;stroke:#ffffff;stroke-linejoin:miter;stroke-width:0.8;"/>
   </g>
   <g id="patch_62">
    <path clip-path="url(#p7dd2713f61)" d="M 372.236333 222.495031 
L 372.236333 222.495031 
L 372.236333 217.627907 
L 372.236333 217.627907 
z
" style="fill:#471365;opacity:0.4;stroke:#ffffff;stroke-linejoin:miter;stroke-width:0.8;"/>
   </g>
   <g id="patch_63">
    <path clip-path="url(#p7dd2713f61)" d="M 372.236333 217.627907 
L 372.236333 217.627907 
L 372.236333 212.760783 
L 372.236333 212.760783 
z
" style="fill:#471365;opacity:0.4;stroke:#ffffff;stroke-linejoin:miter;stroke-width:0.8;"/>
   </g>
   <g id="patch_64">
    <path clip-path="url(#p7dd2713f61)" d="M 372.236333 212.760783 
L 372.236333 212.760783 
L 372.236333 207.893659 
L 372.236333 207.893659 
z
" style="fill:#471365;opacity:0.4;stroke:#ffffff;stroke-linejoin:miter;stroke-width:0.8;"/>
   </g>
   <g id="patch_65">
    <path clip-path="url(#p7dd2713f61)" d="M 372.236333 207.893659 
L 372.236333 207.893659 
L 372.236333 203.026535 
L 372.236333 203.026535 
z
" style="fill:#471365;opacity:0.4;stroke:#ffffff;stroke-linejoin:miter;stroke-width:0.8;"/>
   </g>
   <g id="patch_66">
    <path clip-path="url(#p7dd2713f61)" d="M 372.236333 203.026535 
L 372.236333 203.026535 
L 372.236333 198.159411 
L 372.236333 198.159411 
z
" style="fill:#471365;opacity:0.4;stroke:#ffffff;stroke-linejoin:miter;stroke-width:0.8;"/>
   </g>
   <g id="patch_67">
    <path clip-path="url(#p7dd2713f61)" d="M 372.236333 198.159411 
L 372.236333 198.159411 
L 372.236333 193.292287 
L 372.236333 193.292287 
z
" style="fill:#471365;opacity:0.4;stroke:#ffffff;stroke-linejoin:miter;stroke-width:0.8;"/>
   </g>
   <g id="patch_68">
    <path clip-path="url(#p7dd2713f61)" d="M 372.236333 193.292287 
L 372.236333 193.292287 
L 372.236333 188.425163 
L 372.236333 188.425163 
z
" style="fill:#471365;opacity:0.4;stroke:#ffffff;stroke-linejoin:miter;stroke-width:0.8;"/>
   </g>
   <g id="patch_69">
    <path clip-path="url(#p7dd2713f61)" d="M 372.236333 188.425163 
L 372.236333 188.425163 
L 372.236333 183.558039 
L 372.236333 183.558039 
z
" style="fill:#471365;opacity:0.4;stroke:#ffffff;stroke-linejoin:miter;stroke-width:0.8;"/>
   </g>
   <g id="patch_70">
    <path clip-path="url(#p7dd2713f61)" d="M 372.236333 183.558039 
L 372.236333 183.558039 
L 372.236333 178.690915 
L 372.236333 178.690915 
z
" style="fill:#471365;opacity:0.4;stroke:#ffffff;stroke-linejoin:miter;stroke-width:0.8;"/>
   </g>
   <g id="patch_71">
    <path clip-path="url(#p7dd2713f61)" d="M 372.236333 178.690915 
L 372.236333 178.690915 
L 372.236333 173.823791 
L 372.236333 173.823791 
z
" style="fill:#471365;opacity:0.4;stroke:#ffffff;stroke-linejoin:miter;stroke-width:0.8;"/>
   </g>
   <g id="patch_72">
    <path clip-path="url(#p7dd2713f61)" d="M 372.236333 173.823791 
L 372.236333 173.823791 
L 372.236333 168.956667 
L 372.236333 168.956667 
z
" style="fill:#471365;opacity:0.4;stroke:#ffffff;stroke-linejoin:miter;stroke-width:0.8;"/>
   </g>
   <g id="patch_73">
    <path clip-path="url(#p7dd2713f61)" d="M 372.236333 168.956667 
L 372.236333 168.956667 
L 372.236333 164.089543 
L 372.236333 164.089543 
z
" style="fill:#471365;opacity:0.4;stroke:#ffffff;stroke-linejoin:miter;stroke-width:0.8;"/>
   </g>
   <g id="patch_74">
    <path clip-path="url(#p7dd2713f61)" d="M 372.236333 164.089543 
L 372.236333 164.089543 
L 372.236333 159.222419 
L 372.236333 159.222419 
z
" style="fill:#471365;opacity:0.4;stroke:#ffffff;stroke-linejoin:miter;stroke-width:0.8;"/>
   </g>
   <g id="patch_75">
    <path clip-path="url(#p7dd2713f61)" d="M 372.236333 159.222419 
L 372.236333 159.222419 
L 372.236333 154.355295 
L 372.236333 154.355295 
z
" style="fill:#471365;opacity:0.4;stroke:#ffffff;stroke-linejoin:miter;stroke-width:0.8;"/>
   </g>
   <g id="patch_76">
    <path clip-path="url(#p7dd2713f61)" d="M 372.236333 154.355295 
L 372.236333 154.355295 
L 372.236333 149.488171 
L 372.236333 149.488171 
z
" style="fill:#471365;opacity:0.4;stroke:#ffffff;stroke-linejoin:miter;stroke-width:0.8;"/>
   </g>
   <g id="patch_77">
    <path clip-path="url(#p7dd2713f61)" d="M 372.236333 149.488171 
L 372.236333 149.488171 
L 372.236333 144.621047 
L 372.236333 144.621047 
z
" style="fill:#471365;opacity:0.4;stroke:#ffffff;stroke-linejoin:miter;stroke-width:0.8;"/>
   </g>
   <g id="patch_78">
    <path clip-path="url(#p7dd2713f61)" d="M 372.236333 144.621047 
L 372.236333 144.621047 
L 372.236333 139.753923 
L 372.236333 139.753923 
z
" style="fill:#471365;opacity:0.4;stroke:#ffffff;stroke-linejoin:miter;stroke-width:0.8;"/>
   </g>
   <g id="patch_79">
    <path clip-path="url(#p7dd2713f61)" d="M 372.236333 139.753923 
L 372.236333 139.753923 
L 372.236333 134.886799 
L 372.236333 134.886799 
z
" style="fill:#471365;opacity:0.4;stroke:#ffffff;stroke-linejoin:miter;stroke-width:0.8;"/>
   </g>
   <g id="patch_80">
    <path clip-path="url(#p7dd2713f61)" d="M 372.236333 134.886799 
L 372.787919 134.886799 
L 372.787919 130.019675 
L 372.236333 130.019675 
z
" style="fill:#471365;opacity:0.4;stroke:#ffffff;stroke-linejoin:miter;stroke-width:0.8;"/>
   </g>
   <g id="line2d_27">
    <path clip-path="url(#p7dd2713f61)" d="M 372.246332 397.054072 
L 372.272308 394.117582 
L 372.351537 391.181091 
L 372.564815 388.2446 
L 373.070496 385.308109 
L 374.123472 382.371618 
L 376.040909 379.435127 
L 379.074461 376.498636 
L 383.19981 373.562146 
L 387.928962 370.625655 
L 392.312662 367.689164 
L 395.231721 364.752673 
L 395.876311 361.816182 
L 394.133766 358.879691 
L 390.628995 355.943201 
L 386.396441 353.00671 
L 382.411286 350.070219 
L 379.262933 347.133728 
L 377.100207 344.197237 
L 375.777885 341.260746 
L 375.046102 338.324255 
L 374.67125 335.387765 
L 374.474011 332.451274 
L 374.328609 329.514783 
L 374.161695 326.578292 
L 373.953502 323.641801 
L 373.725238 320.70531 
L 373.509971 317.76882 
L 373.325455 314.832329 
L 373.167949 311.895838 
L 373.026175 308.959347 
L 372.897575 306.022856 
L 372.791245 303.086365 
L 372.717515 300.149874 
L 372.676281 297.213384 
L 372.654984 294.276893 
L 372.636719 291.340402 
L 372.610389 288.403911 
L 372.574995 285.46742 
L 372.536484 282.530929 
L 372.501357 279.594439 
L 372.472332 276.657948 
L 372.448609 273.721457 
L 372.429106 270.784966 
L 372.414603 267.848475 
L 372.406241 264.911984 
L 372.402174 261.975494 
L 372.396708 259.039003 
L 372.383813 256.102512 
L 372.362159 253.166021 
L 372.337103 250.22953 
L 372.317912 247.293039 
L 372.312432 244.356548 
L 372.322616 241.420058 
L 372.343096 238.483567 
L 372.363336 235.547076 
L 372.372553 232.610585 
L 372.365026 229.674094 
L 372.342619 226.737603 
L 372.312892 223.801113 
L 372.284394 220.864622 
L 372.262622 217.928131 
L 372.248862 214.99164 
L 372.241535 212.055149 
L 372.238215 209.118658 
L 372.236926 206.182167 
L 372.236496 203.245677 
L 372.236372 200.309186 
L 372.236341 197.372695 
L 372.236335 194.436204 
L 372.236334 191.499713 
L 372.236333 188.563222 
L 372.236333 185.626732 
L 372.236333 182.690241 
L 372.236333 179.75375 
L 372.236333 176.817259 
L 372.236333 173.880768 
L 372.236334 170.944277 
L 372.236335 168.007787 
L 372.236341 165.071296 
L 372.236369 162.134805 
L 372.236483 159.198314 
L 372.236885 156.261823 
L 372.238097 153.325332 
L 372.241249 150.388841 
L 372.248269 147.452351 
L 372.261584 144.51586 
L 372.282874 141.579369 
L 372.311072 138.642878 
L 372.3409 135.706387 
L 372.363797 132.769896 
L 372.371702 129.833406 
L 372.361587 126.896915 
L 372.337307 123.960424 
L 372.307252 121.023933 
L 372.27973 118.087442 
L 372.25947 115.150951 
L 372.24708 112.21446 
L 372.240682 109.27797 
L 372.237867 106.341479 
" style="fill:none;stroke:#471365;stroke-linecap:round;stroke-width:1.2;"/>
   </g>
   <g id="patch_81">
    <path d="M 372.236333 390.332 
L 372.236333 81.023333 
" style="fill:none;stroke:#262626;stroke-linecap:square;stroke-linejoin:miter;"/>
   </g>
  </g>
 </g>
 <defs>
  <clipPath id="p1f942e6de4">
   <rect height="309.308667" width="302.850333" x="49.418" y="81.023333"/>
  </clipPath>
  <clipPath id="p38f3dc845b">
   <rect height="45.887333" width="302.850333" x="49.418" y="15.168"/>
  </clipPath>
  <clipPath id="p7dd2713f61">
   <rect height="309.308667" width="44.595667" x="372.236333" y="81.023333"/>
  </clipPath>
 </defs>
</svg>
