<?xml version="1.0" encoding="utf-8" standalone="no"?>
<!DOCTYPE svg PUBLIC "-//W3C//DTD SVG 1.1//EN"
  "http://www.w3.org/Graphics/SVG/1.1/DTD/svg11.dtd">
<!-- Created with matplotlib (http://matplotlib.org/) -->
<svg height="345.6pt" version="1.1" viewBox="0 0 460.8 345.6" width="460.8pt" xmlns="http://www.w3.org/2000/svg" xmlns:xlink="http://www.w3.org/1999/xlink">
 <defs>
  <style type="text/css">
*{stroke-linecap:butt;stroke-linejoin:round;}
  </style>
 </defs>
 <g id="figure_1">
  <g id="patch_1">
   <path d="M 0 345.6 
L 460.8 345.6 
L 460.8 0 
L 0 0 
z
" style="fill:#ffffff;"/>
  </g>
  <g id="axes_1">
   <g id="patch_2">
    <path d="M 57.6 307.584 
L 414.72 307.584 
L 414.72 41.472 
L 57.6 41.472 
z
" style="fill:#ffffff;"/>
   </g>
   <g id="matplotlib.axis_1">
    <g id="xtick_1">
     <g id="line2d_1">
      <defs>
       <path d="M 0 0 
L 0 4.8 
" id="mfa46a1d3f0" style="stroke:#262626;"/>
      </defs>
      <g>
       <use style="fill:#262626;stroke:#262626;" x="73.832727" xlink:href="#mfa46a1d3f0" y="307.584"/>
      </g>
     </g>
     <g id="text_1">
      <!-- $\mathdefault{10^{0}}$ -->
      <defs>
       <path d="M 12.40625 8.296875 
L 28.515625 8.296875 
L 28.515625 63.921875 
L 10.984375 60.40625 
L 10.984375 69.390625 
L 28.421875 72.90625 
L 38.28125 72.90625 
L 38.28125 8.296875 
L 54.390625 8.296875 
L 54.390625 0 
L 12.40625 0 
z
" id="DejaVuSans-31"/>
       <path d="M 31.78125 66.40625 
Q 24.171875 66.40625 20.328125 58.90625 
Q 16.5 51.421875 16.5 36.375 
Q 16.5 21.390625 20.328125 13.890625 
Q 24.171875 6.390625 31.78125 6.390625 
Q 39.453125 6.390625 43.28125 13.890625 
Q 47.125 21.390625 47.125 36.375 
Q 47.125 51.421875 43.28125 58.90625 
Q 39.453125 66.40625 31.78125 66.40625 
z
M 31.78125 74.21875 
Q 44.046875 74.21875 50.515625 64.515625 
Q 56.984375 54.828125 56.984375 36.375 
Q 56.984375 17.96875 50.515625 8.265625 
Q 44.046875 -1.421875 31.78125 -1.421875 
Q 19.53125 -1.421875 13.0625 8.265625 
Q 6.59375 17.96875 6.59375 36.375 
Q 6.59375 54.828125 13.0625 64.515625 
Q 19.53125 74.21875 31.78125 74.21875 
z
" id="DejaVuSans-30"/>
      </defs>
      <g style="fill:#262626;" transform="translate(66.088727 322.570625)scale(0.088 -0.088)">
       <use transform="translate(0 0.765625)" xlink:href="#DejaVuSans-31"/>
       <use transform="translate(63.623047 0.765625)" xlink:href="#DejaVuSans-30"/>
       <use transform="translate(128.203125 39.046875)scale(0.7)" xlink:href="#DejaVuSans-30"/>
      </g>
     </g>
    </g>
    <g id="xtick_2">
     <g id="line2d_2">
      <g>
       <use style="fill:#262626;stroke:#262626;" x="144.993304" xlink:href="#mfa46a1d3f0" y="307.584"/>
      </g>
     </g>
     <g id="text_2">
      <!-- $\mathdefault{10^{1}}$ -->
      <g style="fill:#262626;" transform="translate(137.249304 322.570625)scale(0.088 -0.088)">
       <use transform="translate(0 0.684375)" xlink:href="#DejaVuSans-31"/>
       <use transform="translate(63.623047 0.684375)" xlink:href="#DejaVuSans-30"/>
       <use transform="translate(128.203125 38.965625)scale(0.7)" xlink:href="#DejaVuSans-31"/>
      </g>
     </g>
    </g>
    <g id="xtick_3">
     <g id="line2d_3">
      <g>
       <use style="fill:#262626;stroke:#262626;" x="216.153881" xlink:href="#mfa46a1d3f0" y="307.584"/>
      </g>
     </g>
     <g id="text_3">
      <!-- $\mathdefault{10^{2}}$ -->
      <defs>
       <path d="M 19.1875 8.296875 
L 53.609375 8.296875 
L 53.609375 0 
L 7.328125 0 
L 7.328125 8.296875 
Q 12.9375 14.109375 22.625 23.890625 
Q 32.328125 33.6875 34.8125 36.53125 
Q 39.546875 41.84375 41.421875 45.53125 
Q 43.3125 49.21875 43.3125 52.78125 
Q 43.3125 58.59375 39.234375 62.25 
Q 35.15625 65.921875 28.609375 65.921875 
Q 23.96875 65.921875 18.8125 64.3125 
Q 13.671875 62.703125 7.8125 59.421875 
L 7.8125 69.390625 
Q 13.765625 71.78125 18.9375 73 
Q 24.125 74.21875 28.421875 74.21875 
Q 39.75 74.21875 46.484375 68.546875 
Q 53.21875 62.890625 53.21875 53.421875 
Q 53.21875 48.921875 51.53125 44.890625 
Q 49.859375 40.875 45.40625 35.40625 
Q 44.1875 33.984375 37.640625 27.21875 
Q 31.109375 20.453125 19.1875 8.296875 
z
" id="DejaVuSans-32"/>
      </defs>
      <g style="fill:#262626;" transform="translate(208.409881 322.570625)scale(0.088 -0.088)">
       <use transform="translate(0 0.765625)" xlink:href="#DejaVuSans-31"/>
       <use transform="translate(63.623047 0.765625)" xlink:href="#DejaVuSans-30"/>
       <use transform="translate(128.203125 39.046875)scale(0.7)" xlink:href="#DejaVuSans-32"/>
      </g>
     </g>
    </g>
    <g id="xtick_4">
     <g id="line2d_4">
      <g>
       <use style="fill:#262626;stroke:#262626;" x="287.314458" xlink:href="#mfa46a1d3f0" y="307.584"/>
      </g>
     </g>
     <g id="text_4">
      <!-- $\mathdefault{10^{3}}$ -->
      <defs>
       <path d="M 40.578125 39.3125 
Q 47.65625 37.796875 51.625 33 
Q 55.609375 28.21875 55.609375 21.1875 
Q 55.609375 10.40625 48.1875 4.484375 
Q 40.765625 -1.421875 27.09375 -1.421875 
Q 22.515625 -1.421875 17.65625 -0.515625 
Q 12.796875 0.390625 7.625 2.203125 
L 7.625 11.71875 
Q 11.71875 9.328125 16.59375 8.109375 
Q 21.484375 6.890625 26.8125 6.890625 
Q 36.078125 6.890625 40.9375 10.546875 
Q 45.796875 14.203125 45.796875 21.1875 
Q 45.796875 27.640625 41.28125 31.265625 
Q 36.765625 34.90625 28.71875 34.90625 
L 20.21875 34.90625 
L 20.21875 43.015625 
L 29.109375 43.015625 
Q 36.375 43.015625 40.234375 45.921875 
Q 44.09375 48.828125 44.09375 54.296875 
Q 44.09375 59.90625 40.109375 62.90625 
Q 36.140625 65.921875 28.71875 65.921875 
Q 24.65625 65.921875 20.015625 65.03125 
Q 15.375 64.15625 9.8125 62.3125 
L 9.8125 71.09375 
Q 15.4375 72.65625 20.34375 73.4375 
Q 25.25 74.21875 29.59375 74.21875 
Q 40.828125 74.21875 47.359375 69.109375 
Q 53.90625 64.015625 53.90625 55.328125 
Q 53.90625 49.265625 50.4375 45.09375 
Q 46.96875 40.921875 40.578125 39.3125 
z
" id="DejaVuSans-33"/>
      </defs>
      <g style="fill:#262626;" transform="translate(279.570458 322.570625)scale(0.088 -0.088)">
       <use transform="translate(0 0.765625)" xlink:href="#DejaVuSans-31"/>
       <use transform="translate(63.623047 0.765625)" xlink:href="#DejaVuSans-30"/>
       <use transform="translate(128.203125 39.046875)scale(0.7)" xlink:href="#DejaVuSans-33"/>
      </g>
     </g>
    </g>
    <g id="xtick_5">
     <g id="line2d_5">
      <g>
       <use style="fill:#262626;stroke:#262626;" x="358.475035" xlink:href="#mfa46a1d3f0" y="307.584"/>
      </g>
     </g>
     <g id="text_5">
      <!-- $\mathdefault{10^{4}}$ -->
      <defs>
       <path d="M 37.796875 64.3125 
L 12.890625 25.390625 
L 37.796875 25.390625 
z
M 35.203125 72.90625 
L 47.609375 72.90625 
L 47.609375 25.390625 
L 58.015625 25.390625 
L 58.015625 17.1875 
L 47.609375 17.1875 
L 47.609375 0 
L 37.796875 0 
L 37.796875 17.1875 
L 4.890625 17.1875 
L 4.890625 26.703125 
z
" id="DejaVuSans-34"/>
      </defs>
      <g style="fill:#262626;" transform="translate(350.731035 322.570625)scale(0.088 -0.088)">
       <use transform="translate(0 0.684375)" xlink:href="#DejaVuSans-31"/>
       <use transform="translate(63.623047 0.684375)" xlink:href="#DejaVuSans-30"/>
       <use transform="translate(128.203125 38.965625)scale(0.7)" xlink:href="#DejaVuSans-34"/>
      </g>
     </g>
    </g>
    <g id="xtick_6">
     <g id="line2d_6">
      <defs>
       <path d="M 0 0 
L 0 3.2 
" id="m5d48403fcf" style="stroke:#262626;stroke-width:0.8;"/>
      </defs>
      <g>
       <use style="fill:#262626;stroke:#262626;stroke-width:0.8;" x="58.045842" xlink:href="#m5d48403fcf" y="307.584"/>
      </g>
     </g>
    </g>
    <g id="xtick_7">
     <g id="line2d_7">
      <g>
       <use style="fill:#262626;stroke:#262626;stroke-width:0.8;" x="62.809814" xlink:href="#m5d48403fcf" y="307.584"/>
      </g>
     </g>
    </g>
    <g id="xtick_8">
     <g id="line2d_8">
      <g>
       <use style="fill:#262626;stroke:#262626;stroke-width:0.8;" x="66.936555" xlink:href="#m5d48403fcf" y="307.584"/>
      </g>
     </g>
    </g>
    <g id="xtick_9">
     <g id="line2d_9">
      <g>
       <use style="fill:#262626;stroke:#262626;stroke-width:0.8;" x="70.576598" xlink:href="#m5d48403fcf" y="307.584"/>
      </g>
     </g>
    </g>
    <g id="xtick_10">
     <g id="line2d_10">
      <g>
       <use style="fill:#262626;stroke:#262626;stroke-width:0.8;" x="95.254195" xlink:href="#m5d48403fcf" y="307.584"/>
      </g>
     </g>
    </g>
    <g id="xtick_11">
     <g id="line2d_11">
      <g>
       <use style="fill:#262626;stroke:#262626;stroke-width:0.8;" x="107.784951" xlink:href="#m5d48403fcf" y="307.584"/>
      </g>
     </g>
    </g>
    <g id="xtick_12">
     <g id="line2d_12">
      <g>
       <use style="fill:#262626;stroke:#262626;stroke-width:0.8;" x="116.675664" xlink:href="#m5d48403fcf" y="307.584"/>
      </g>
     </g>
    </g>
    <g id="xtick_13">
     <g id="line2d_13">
      <g>
       <use style="fill:#262626;stroke:#262626;stroke-width:0.8;" x="123.571836" xlink:href="#m5d48403fcf" y="307.584"/>
      </g>
     </g>
    </g>
    <g id="xtick_14">
     <g id="line2d_14">
      <g>
       <use style="fill:#262626;stroke:#262626;stroke-width:0.8;" x="129.206419" xlink:href="#m5d48403fcf" y="307.584"/>
      </g>
     </g>
    </g>
    <g id="xtick_15">
     <g id="line2d_15">
      <g>
       <use style="fill:#262626;stroke:#262626;stroke-width:0.8;" x="133.970391" xlink:href="#m5d48403fcf" y="307.584"/>
      </g>
     </g>
    </g>
    <g id="xtick_16">
     <g id="line2d_16">
      <g>
       <use style="fill:#262626;stroke:#262626;stroke-width:0.8;" x="138.097132" xlink:href="#m5d48403fcf" y="307.584"/>
      </g>
     </g>
    </g>
    <g id="xtick_17">
     <g id="line2d_17">
      <g>
       <use style="fill:#262626;stroke:#262626;stroke-width:0.8;" x="141.737175" xlink:href="#m5d48403fcf" y="307.584"/>
      </g>
     </g>
    </g>
    <g id="xtick_18">
     <g id="line2d_18">
      <g>
       <use style="fill:#262626;stroke:#262626;stroke-width:0.8;" x="166.414772" xlink:href="#m5d48403fcf" y="307.584"/>
      </g>
     </g>
    </g>
    <g id="xtick_19">
     <g id="line2d_19">
      <g>
       <use style="fill:#262626;stroke:#262626;stroke-width:0.8;" x="178.945528" xlink:href="#m5d48403fcf" y="307.584"/>
      </g>
     </g>
    </g>
    <g id="xtick_20">
     <g id="line2d_20">
      <g>
       <use style="fill:#262626;stroke:#262626;stroke-width:0.8;" x="187.83624" xlink:href="#m5d48403fcf" y="307.584"/>
      </g>
     </g>
    </g>
    <g id="xtick_21">
     <g id="line2d_21">
      <g>
       <use style="fill:#262626;stroke:#262626;stroke-width:0.8;" x="194.732413" xlink:href="#m5d48403fcf" y="307.584"/>
      </g>
     </g>
    </g>
    <g id="xtick_22">
     <g id="line2d_22">
      <g>
       <use style="fill:#262626;stroke:#262626;stroke-width:0.8;" x="200.366996" xlink:href="#m5d48403fcf" y="307.584"/>
      </g>
     </g>
    </g>
    <g id="xtick_23">
     <g id="line2d_23">
      <g>
       <use style="fill:#262626;stroke:#262626;stroke-width:0.8;" x="205.130968" xlink:href="#m5d48403fcf" y="307.584"/>
      </g>
     </g>
    </g>
    <g id="xtick_24">
     <g id="line2d_24">
      <g>
       <use style="fill:#262626;stroke:#262626;stroke-width:0.8;" x="209.257709" xlink:href="#m5d48403fcf" y="307.584"/>
      </g>
     </g>
    </g>
    <g id="xtick_25">
     <g id="line2d_25">
      <g>
       <use style="fill:#262626;stroke:#262626;stroke-width:0.8;" x="212.897752" xlink:href="#m5d48403fcf" y="307.584"/>
      </g>
     </g>
    </g>
    <g id="xtick_26">
     <g id="line2d_26">
      <g>
       <use style="fill:#262626;stroke:#262626;stroke-width:0.8;" x="237.575349" xlink:href="#m5d48403fcf" y="307.584"/>
      </g>
     </g>
    </g>
    <g id="xtick_27">
     <g id="line2d_27">
      <g>
       <use style="fill:#262626;stroke:#262626;stroke-width:0.8;" x="250.106105" xlink:href="#m5d48403fcf" y="307.584"/>
      </g>
     </g>
    </g>
    <g id="xtick_28">
     <g id="line2d_28">
      <g>
       <use style="fill:#262626;stroke:#262626;stroke-width:0.8;" x="258.996817" xlink:href="#m5d48403fcf" y="307.584"/>
      </g>
     </g>
    </g>
    <g id="xtick_29">
     <g id="line2d_29">
      <g>
       <use style="fill:#262626;stroke:#262626;stroke-width:0.8;" x="265.89299" xlink:href="#m5d48403fcf" y="307.584"/>
      </g>
     </g>
    </g>
    <g id="xtick_30">
     <g id="line2d_30">
      <g>
       <use style="fill:#262626;stroke:#262626;stroke-width:0.8;" x="271.527573" xlink:href="#m5d48403fcf" y="307.584"/>
      </g>
     </g>
    </g>
    <g id="xtick_31">
     <g id="line2d_31">
      <g>
       <use style="fill:#262626;stroke:#262626;stroke-width:0.8;" x="276.291545" xlink:href="#m5d48403fcf" y="307.584"/>
      </g>
     </g>
    </g>
    <g id="xtick_32">
     <g id="line2d_32">
      <g>
       <use style="fill:#262626;stroke:#262626;stroke-width:0.8;" x="280.418286" xlink:href="#m5d48403fcf" y="307.584"/>
      </g>
     </g>
    </g>
    <g id="xtick_33">
     <g id="line2d_33">
      <g>
       <use style="fill:#262626;stroke:#262626;stroke-width:0.8;" x="284.058329" xlink:href="#m5d48403fcf" y="307.584"/>
      </g>
     </g>
    </g>
    <g id="xtick_34">
     <g id="line2d_34">
      <g>
       <use style="fill:#262626;stroke:#262626;stroke-width:0.8;" x="308.735926" xlink:href="#m5d48403fcf" y="307.584"/>
      </g>
     </g>
    </g>
    <g id="xtick_35">
     <g id="line2d_35">
      <g>
       <use style="fill:#262626;stroke:#262626;stroke-width:0.8;" x="321.266682" xlink:href="#m5d48403fcf" y="307.584"/>
      </g>
     </g>
    </g>
    <g id="xtick_36">
     <g id="line2d_36">
      <g>
       <use style="fill:#262626;stroke:#262626;stroke-width:0.8;" x="330.157394" xlink:href="#m5d48403fcf" y="307.584"/>
      </g>
     </g>
    </g>
    <g id="xtick_37">
     <g id="line2d_37">
      <g>
       <use style="fill:#262626;stroke:#262626;stroke-width:0.8;" x="337.053567" xlink:href="#m5d48403fcf" y="307.584"/>
      </g>
     </g>
    </g>
    <g id="xtick_38">
     <g id="line2d_38">
      <g>
       <use style="fill:#262626;stroke:#262626;stroke-width:0.8;" x="342.68815" xlink:href="#m5d48403fcf" y="307.584"/>
      </g>
     </g>
    </g>
    <g id="xtick_39">
     <g id="line2d_39">
      <g>
       <use style="fill:#262626;stroke:#262626;stroke-width:0.8;" x="347.452122" xlink:href="#m5d48403fcf" y="307.584"/>
      </g>
     </g>
    </g>
    <g id="xtick_40">
     <g id="line2d_40">
      <g>
       <use style="fill:#262626;stroke:#262626;stroke-width:0.8;" x="351.578862" xlink:href="#m5d48403fcf" y="307.584"/>
      </g>
     </g>
    </g>
    <g id="xtick_41">
     <g id="line2d_41">
      <g>
       <use style="fill:#262626;stroke:#262626;stroke-width:0.8;" x="355.218905" xlink:href="#m5d48403fcf" y="307.584"/>
      </g>
     </g>
    </g>
    <g id="xtick_42">
     <g id="line2d_42">
      <g>
       <use style="fill:#262626;stroke:#262626;stroke-width:0.8;" x="379.896503" xlink:href="#m5d48403fcf" y="307.584"/>
      </g>
     </g>
    </g>
    <g id="xtick_43">
     <g id="line2d_43">
      <g>
       <use style="fill:#262626;stroke:#262626;stroke-width:0.8;" x="392.427259" xlink:href="#m5d48403fcf" y="307.584"/>
      </g>
     </g>
    </g>
    <g id="xtick_44">
     <g id="line2d_44">
      <g>
       <use style="fill:#262626;stroke:#262626;stroke-width:0.8;" x="401.317971" xlink:href="#m5d48403fcf" y="307.584"/>
      </g>
     </g>
    </g>
    <g id="xtick_45">
     <g id="line2d_45">
      <g>
       <use style="fill:#262626;stroke:#262626;stroke-width:0.8;" x="408.214144" xlink:href="#m5d48403fcf" y="307.584"/>
      </g>
     </g>
    </g>
    <g id="xtick_46">
     <g id="line2d_46">
      <g>
       <use style="fill:#262626;stroke:#262626;stroke-width:0.8;" x="413.848727" xlink:href="#m5d48403fcf" y="307.584"/>
      </g>
     </g>
    </g>
    <g id="text_6">
     <!-- Time (cell divisions) -->
     <defs>
      <path d="M -0.296875 72.90625 
L 61.375 72.90625 
L 61.375 64.59375 
L 35.5 64.59375 
L 35.5 0 
L 25.59375 0 
L 25.59375 64.59375 
L -0.296875 64.59375 
z
" id="DejaVuSans-54"/>
      <path d="M 9.421875 54.6875 
L 18.40625 54.6875 
L 18.40625 0 
L 9.421875 0 
z
M 9.421875 75.984375 
L 18.40625 75.984375 
L 18.40625 64.59375 
L 9.421875 64.59375 
z
" id="DejaVuSans-69"/>
      <path d="M 52 44.1875 
Q 55.375 50.25 60.0625 53.125 
Q 64.75 56 71.09375 56 
Q 79.640625 56 84.28125 50.015625 
Q 88.921875 44.046875 88.921875 33.015625 
L 88.921875 0 
L 79.890625 0 
L 79.890625 32.71875 
Q 79.890625 40.578125 77.09375 44.375 
Q 74.3125 48.1875 68.609375 48.1875 
Q 61.625 48.1875 57.5625 43.546875 
Q 53.515625 38.921875 53.515625 30.90625 
L 53.515625 0 
L 44.484375 0 
L 44.484375 32.71875 
Q 44.484375 40.625 41.703125 44.40625 
Q 38.921875 48.1875 33.109375 48.1875 
Q 26.21875 48.1875 22.15625 43.53125 
Q 18.109375 38.875 18.109375 30.90625 
L 18.109375 0 
L 9.078125 0 
L 9.078125 54.6875 
L 18.109375 54.6875 
L 18.109375 46.1875 
Q 21.1875 51.21875 25.484375 53.609375 
Q 29.78125 56 35.6875 56 
Q 41.65625 56 45.828125 52.96875 
Q 50 49.953125 52 44.1875 
z
" id="DejaVuSans-6d"/>
      <path d="M 56.203125 29.59375 
L 56.203125 25.203125 
L 14.890625 25.203125 
Q 15.484375 15.921875 20.484375 11.0625 
Q 25.484375 6.203125 34.421875 6.203125 
Q 39.59375 6.203125 44.453125 7.46875 
Q 49.3125 8.734375 54.109375 11.28125 
L 54.109375 2.78125 
Q 49.265625 0.734375 44.1875 -0.34375 
Q 39.109375 -1.421875 33.890625 -1.421875 
Q 20.796875 -1.421875 13.15625 6.1875 
Q 5.515625 13.8125 5.515625 26.8125 
Q 5.515625 40.234375 12.765625 48.109375 
Q 20.015625 56 32.328125 56 
Q 43.359375 56 49.78125 48.890625 
Q 56.203125 41.796875 56.203125 29.59375 
z
M 47.21875 32.234375 
Q 47.125 39.59375 43.09375 43.984375 
Q 39.0625 48.390625 32.421875 48.390625 
Q 24.90625 48.390625 20.390625 44.140625 
Q 15.875 39.890625 15.1875 32.171875 
z
" id="DejaVuSans-65"/>
      <path id="DejaVuSans-20"/>
      <path d="M 31 75.875 
Q 24.46875 64.65625 21.28125 53.65625 
Q 18.109375 42.671875 18.109375 31.390625 
Q 18.109375 20.125 21.3125 9.0625 
Q 24.515625 -2 31 -13.1875 
L 23.1875 -13.1875 
Q 15.875 -1.703125 12.234375 9.375 
Q 8.59375 20.453125 8.59375 31.390625 
Q 8.59375 42.28125 12.203125 53.3125 
Q 15.828125 64.359375 23.1875 75.875 
z
" id="DejaVuSans-28"/>
      <path d="M 48.78125 52.59375 
L 48.78125 44.1875 
Q 44.96875 46.296875 41.140625 47.34375 
Q 37.3125 48.390625 33.40625 48.390625 
Q 24.65625 48.390625 19.8125 42.84375 
Q 14.984375 37.3125 14.984375 27.296875 
Q 14.984375 17.28125 19.8125 11.734375 
Q 24.65625 6.203125 33.40625 6.203125 
Q 37.3125 6.203125 41.140625 7.25 
Q 44.96875 8.296875 48.78125 10.40625 
L 48.78125 2.09375 
Q 45.015625 0.34375 40.984375 -0.53125 
Q 36.96875 -1.421875 32.421875 -1.421875 
Q 20.0625 -1.421875 12.78125 6.34375 
Q 5.515625 14.109375 5.515625 27.296875 
Q 5.515625 40.671875 12.859375 48.328125 
Q 20.21875 56 33.015625 56 
Q 37.15625 56 41.109375 55.140625 
Q 45.0625 54.296875 48.78125 52.59375 
z
" id="DejaVuSans-63"/>
      <path d="M 9.421875 75.984375 
L 18.40625 75.984375 
L 18.40625 0 
L 9.421875 0 
z
" id="DejaVuSans-6c"/>
      <path d="M 45.40625 46.390625 
L 45.40625 75.984375 
L 54.390625 75.984375 
L 54.390625 0 
L 45.40625 0 
L 45.40625 8.203125 
Q 42.578125 3.328125 38.25 0.953125 
Q 33.9375 -1.421875 27.875 -1.421875 
Q 17.96875 -1.421875 11.734375 6.484375 
Q 5.515625 14.40625 5.515625 27.296875 
Q 5.515625 40.1875 11.734375 48.09375 
Q 17.96875 56 27.875 56 
Q 33.9375 56 38.25 53.625 
Q 42.578125 51.265625 45.40625 46.390625 
z
M 14.796875 27.296875 
Q 14.796875 17.390625 18.875 11.75 
Q 22.953125 6.109375 30.078125 6.109375 
Q 37.203125 6.109375 41.296875 11.75 
Q 45.40625 17.390625 45.40625 27.296875 
Q 45.40625 37.203125 41.296875 42.84375 
Q 37.203125 48.484375 30.078125 48.484375 
Q 22.953125 48.484375 18.875 42.84375 
Q 14.796875 37.203125 14.796875 27.296875 
z
" id="DejaVuSans-64"/>
      <path d="M 2.984375 54.6875 
L 12.5 54.6875 
L 29.59375 8.796875 
L 46.6875 54.6875 
L 56.203125 54.6875 
L 35.6875 0 
L 23.484375 0 
z
" id="DejaVuSans-76"/>
      <path d="M 44.28125 53.078125 
L 44.28125 44.578125 
Q 40.484375 46.53125 36.375 47.5 
Q 32.28125 48.484375 27.875 48.484375 
Q 21.1875 48.484375 17.84375 46.4375 
Q 14.5 44.390625 14.5 40.28125 
Q 14.5 37.15625 16.890625 35.375 
Q 19.28125 33.59375 26.515625 31.984375 
L 29.59375 31.296875 
Q 39.15625 29.25 43.1875 25.515625 
Q 47.21875 21.78125 47.21875 15.09375 
Q 47.21875 7.46875 41.1875 3.015625 
Q 35.15625 -1.421875 24.609375 -1.421875 
Q 20.21875 -1.421875 15.453125 -0.5625 
Q 10.6875 0.296875 5.421875 2 
L 5.421875 11.28125 
Q 10.40625 8.6875 15.234375 7.390625 
Q 20.0625 6.109375 24.8125 6.109375 
Q 31.15625 6.109375 34.5625 8.28125 
Q 37.984375 10.453125 37.984375 14.40625 
Q 37.984375 18.0625 35.515625 20.015625 
Q 33.0625 21.96875 24.703125 23.78125 
L 21.578125 24.515625 
Q 13.234375 26.265625 9.515625 29.90625 
Q 5.8125 33.546875 5.8125 39.890625 
Q 5.8125 47.609375 11.28125 51.796875 
Q 16.75 56 26.8125 56 
Q 31.78125 56 36.171875 55.265625 
Q 40.578125 54.546875 44.28125 53.078125 
z
" id="DejaVuSans-73"/>
      <path d="M 30.609375 48.390625 
Q 23.390625 48.390625 19.1875 42.75 
Q 14.984375 37.109375 14.984375 27.296875 
Q 14.984375 17.484375 19.15625 11.84375 
Q 23.34375 6.203125 30.609375 6.203125 
Q 37.796875 6.203125 41.984375 11.859375 
Q 46.1875 17.53125 46.1875 27.296875 
Q 46.1875 37.015625 41.984375 42.703125 
Q 37.796875 48.390625 30.609375 48.390625 
z
M 30.609375 56 
Q 42.328125 56 49.015625 48.375 
Q 55.71875 40.765625 55.71875 27.296875 
Q 55.71875 13.875 49.015625 6.21875 
Q 42.328125 -1.421875 30.609375 -1.421875 
Q 18.84375 -1.421875 12.171875 6.21875 
Q 5.515625 13.875 5.515625 27.296875 
Q 5.515625 40.765625 12.171875 48.375 
Q 18.84375 56 30.609375 56 
z
" id="DejaVuSans-6f"/>
      <path d="M 54.890625 33.015625 
L 54.890625 0 
L 45.90625 0 
L 45.90625 32.71875 
Q 45.90625 40.484375 42.875 44.328125 
Q 39.84375 48.1875 33.796875 48.1875 
Q 26.515625 48.1875 22.3125 43.546875 
Q 18.109375 38.921875 18.109375 30.90625 
L 18.109375 0 
L 9.078125 0 
L 9.078125 54.6875 
L 18.109375 54.6875 
L 18.109375 46.1875 
Q 21.34375 51.125 25.703125 53.5625 
Q 30.078125 56 35.796875 56 
Q 45.21875 56 50.046875 50.171875 
Q 54.890625 44.34375 54.890625 33.015625 
z
" id="DejaVuSans-6e"/>
      <path d="M 8.015625 75.875 
L 15.828125 75.875 
Q 23.140625 64.359375 26.78125 53.3125 
Q 30.421875 42.28125 30.421875 31.390625 
Q 30.421875 20.453125 26.78125 9.375 
Q 23.140625 -1.703125 15.828125 -13.1875 
L 8.015625 -13.1875 
Q 14.5 -2 17.703125 9.0625 
Q 20.90625 20.125 20.90625 31.390625 
Q 20.90625 42.671875 17.703125 53.65625 
Q 14.5 64.65625 8.015625 75.875 
z
" id="DejaVuSans-29"/>
     </defs>
     <g style="fill:#262626;" transform="translate(188.343 335.69525)scale(0.096 -0.096)">
      <use xlink:href="#DejaVuSans-54"/>
      <use x="61.037109" xlink:href="#DejaVuSans-69"/>
      <use x="88.820312" xlink:href="#DejaVuSans-6d"/>
      <use x="186.232422" xlink:href="#DejaVuSans-65"/>
      <use x="247.755859" xlink:href="#DejaVuSans-20"/>
      <use x="279.542969" xlink:href="#DejaVuSans-28"/>
      <use x="318.556641" xlink:href="#DejaVuSans-63"/>
      <use x="373.537109" xlink:href="#DejaVuSans-65"/>
      <use x="435.060547" xlink:href="#DejaVuSans-6c"/>
      <use x="462.84375" xlink:href="#DejaVuSans-6c"/>
      <use x="490.626953" xlink:href="#DejaVuSans-20"/>
      <use x="522.414062" xlink:href="#DejaVuSans-64"/>
      <use x="585.890625" xlink:href="#DejaVuSans-69"/>
      <use x="613.673828" xlink:href="#DejaVuSans-76"/>
      <use x="672.853516" xlink:href="#DejaVuSans-69"/>
      <use x="700.636719" xlink:href="#DejaVuSans-73"/>
      <use x="752.736328" xlink:href="#DejaVuSans-69"/>
      <use x="780.519531" xlink:href="#DejaVuSans-6f"/>
      <use x="841.701172" xlink:href="#DejaVuSans-6e"/>
      <use x="905.080078" xlink:href="#DejaVuSans-73"/>
      <use x="957.179688" xlink:href="#DejaVuSans-29"/>
     </g>
    </g>
   </g>
   <g id="matplotlib.axis_2">
    <g id="ytick_1">
     <g id="line2d_47">
      <defs>
       <path d="M 0 0 
L -4.8 0 
" id="me66c208021" style="stroke:#262626;"/>
      </defs>
      <g>
       <use style="fill:#262626;stroke:#262626;" x="57.6" xlink:href="#me66c208021" y="277.55621"/>
      </g>
     </g>
     <g id="text_7">
      <!-- $\mathdefault{10^{-47}}$ -->
      <defs>
       <path d="M 10.59375 35.5 
L 73.1875 35.5 
L 73.1875 27.203125 
L 10.59375 27.203125 
z
" id="DejaVuSans-2212"/>
       <path d="M 8.203125 72.90625 
L 55.078125 72.90625 
L 55.078125 68.703125 
L 28.609375 0 
L 18.3125 0 
L 43.21875 64.59375 
L 8.203125 64.59375 
z
" id="DejaVuSans-37"/>
      </defs>
      <g style="fill:#262626;" transform="translate(24.748 280.899523)scale(0.088 -0.088)">
       <use transform="translate(0 0.684375)" xlink:href="#DejaVuSans-31"/>
       <use transform="translate(63.623047 0.684375)" xlink:href="#DejaVuSans-30"/>
       <use transform="translate(128.203125 38.965625)scale(0.7)" xlink:href="#DejaVuSans-2212"/>
       <use transform="translate(186.855469 38.965625)scale(0.7)" xlink:href="#DejaVuSans-34"/>
       <use transform="translate(231.391602 38.965625)scale(0.7)" xlink:href="#DejaVuSans-37"/>
      </g>
     </g>
    </g>
    <g id="ytick_2">
     <g id="line2d_48">
      <g>
       <use style="fill:#262626;stroke:#262626;" x="57.6" xlink:href="#me66c208021" y="244.196264"/>
      </g>
     </g>
     <g id="text_8">
      <!-- $\mathdefault{10^{-40}}$ -->
      <g style="fill:#262626;" transform="translate(24.748 247.539577)scale(0.088 -0.088)">
       <use transform="translate(0 0.765625)" xlink:href="#DejaVuSans-31"/>
       <use transform="translate(63.623047 0.765625)" xlink:href="#DejaVuSans-30"/>
       <use transform="translate(128.203125 39.046875)scale(0.7)" xlink:href="#DejaVuSans-2212"/>
       <use transform="translate(186.855469 39.046875)scale(0.7)" xlink:href="#DejaVuSans-34"/>
       <use transform="translate(231.391602 39.046875)scale(0.7)" xlink:href="#DejaVuSans-30"/>
      </g>
     </g>
    </g>
    <g id="ytick_3">
     <g id="line2d_49">
      <g>
       <use style="fill:#262626;stroke:#262626;" x="57.6" xlink:href="#me66c208021" y="210.836318"/>
      </g>
     </g>
     <g id="text_9">
      <!-- $\mathdefault{10^{-33}}$ -->
      <g style="fill:#262626;" transform="translate(24.748 214.17963)scale(0.088 -0.088)">
       <use transform="translate(0 0.765625)" xlink:href="#DejaVuSans-31"/>
       <use transform="translate(63.623047 0.765625)" xlink:href="#DejaVuSans-30"/>
       <use transform="translate(128.203125 39.046875)scale(0.7)" xlink:href="#DejaVuSans-2212"/>
       <use transform="translate(186.855469 39.046875)scale(0.7)" xlink:href="#DejaVuSans-33"/>
       <use transform="translate(231.391602 39.046875)scale(0.7)" xlink:href="#DejaVuSans-33"/>
      </g>
     </g>
    </g>
    <g id="ytick_4">
     <g id="line2d_50">
      <g>
       <use style="fill:#262626;stroke:#262626;" x="57.6" xlink:href="#me66c208021" y="177.476372"/>
      </g>
     </g>
     <g id="text_10">
      <!-- $\mathdefault{10^{-26}}$ -->
      <defs>
       <path d="M 33.015625 40.375 
Q 26.375 40.375 22.484375 35.828125 
Q 18.609375 31.296875 18.609375 23.390625 
Q 18.609375 15.53125 22.484375 10.953125 
Q 26.375 6.390625 33.015625 6.390625 
Q 39.65625 6.390625 43.53125 10.953125 
Q 47.40625 15.53125 47.40625 23.390625 
Q 47.40625 31.296875 43.53125 35.828125 
Q 39.65625 40.375 33.015625 40.375 
z
M 52.59375 71.296875 
L 52.59375 62.3125 
Q 48.875 64.0625 45.09375 64.984375 
Q 41.3125 65.921875 37.59375 65.921875 
Q 27.828125 65.921875 22.671875 59.328125 
Q 17.53125 52.734375 16.796875 39.40625 
Q 19.671875 43.65625 24.015625 45.921875 
Q 28.375 48.1875 33.59375 48.1875 
Q 44.578125 48.1875 50.953125 41.515625 
Q 57.328125 34.859375 57.328125 23.390625 
Q 57.328125 12.15625 50.6875 5.359375 
Q 44.046875 -1.421875 33.015625 -1.421875 
Q 20.359375 -1.421875 13.671875 8.265625 
Q 6.984375 17.96875 6.984375 36.375 
Q 6.984375 53.65625 15.1875 63.9375 
Q 23.390625 74.21875 37.203125 74.21875 
Q 40.921875 74.21875 44.703125 73.484375 
Q 48.484375 72.75 52.59375 71.296875 
z
" id="DejaVuSans-36"/>
      </defs>
      <g style="fill:#262626;" transform="translate(24.748 180.819684)scale(0.088 -0.088)">
       <use transform="translate(0 0.765625)" xlink:href="#DejaVuSans-31"/>
       <use transform="translate(63.623047 0.765625)" xlink:href="#DejaVuSans-30"/>
       <use transform="translate(128.203125 39.046875)scale(0.7)" xlink:href="#DejaVuSans-2212"/>
       <use transform="translate(186.855469 39.046875)scale(0.7)" xlink:href="#DejaVuSans-32"/>
       <use transform="translate(231.391602 39.046875)scale(0.7)" xlink:href="#DejaVuSans-36"/>
      </g>
     </g>
    </g>
    <g id="ytick_5">
     <g id="line2d_51">
      <g>
       <use style="fill:#262626;stroke:#262626;" x="57.6" xlink:href="#me66c208021" y="144.116425"/>
      </g>
     </g>
     <g id="text_11">
      <!-- $\mathdefault{10^{-19}}$ -->
      <defs>
       <path d="M 10.984375 1.515625 
L 10.984375 10.5 
Q 14.703125 8.734375 18.5 7.8125 
Q 22.3125 6.890625 25.984375 6.890625 
Q 35.75 6.890625 40.890625 13.453125 
Q 46.046875 20.015625 46.78125 33.40625 
Q 43.953125 29.203125 39.59375 26.953125 
Q 35.25 24.703125 29.984375 24.703125 
Q 19.046875 24.703125 12.671875 31.3125 
Q 6.296875 37.9375 6.296875 49.421875 
Q 6.296875 60.640625 12.9375 67.421875 
Q 19.578125 74.21875 30.609375 74.21875 
Q 43.265625 74.21875 49.921875 64.515625 
Q 56.59375 54.828125 56.59375 36.375 
Q 56.59375 19.140625 48.40625 8.859375 
Q 40.234375 -1.421875 26.421875 -1.421875 
Q 22.703125 -1.421875 18.890625 -0.6875 
Q 15.09375 0.046875 10.984375 1.515625 
z
M 30.609375 32.421875 
Q 37.25 32.421875 41.125 36.953125 
Q 45.015625 41.5 45.015625 49.421875 
Q 45.015625 57.28125 41.125 61.84375 
Q 37.25 66.40625 30.609375 66.40625 
Q 23.96875 66.40625 20.09375 61.84375 
Q 16.21875 57.28125 16.21875 49.421875 
Q 16.21875 41.5 20.09375 36.953125 
Q 23.96875 32.421875 30.609375 32.421875 
z
" id="DejaVuSans-39"/>
      </defs>
      <g style="fill:#262626;" transform="translate(24.748 147.459738)scale(0.088 -0.088)">
       <use transform="translate(0 0.765625)" xlink:href="#DejaVuSans-31"/>
       <use transform="translate(63.623047 0.765625)" xlink:href="#DejaVuSans-30"/>
       <use transform="translate(128.203125 39.046875)scale(0.7)" xlink:href="#DejaVuSans-2212"/>
       <use transform="translate(186.855469 39.046875)scale(0.7)" xlink:href="#DejaVuSans-31"/>
       <use transform="translate(231.391602 39.046875)scale(0.7)" xlink:href="#DejaVuSans-39"/>
      </g>
     </g>
    </g>
    <g id="ytick_6">
     <g id="line2d_52">
      <g>
       <use style="fill:#262626;stroke:#262626;" x="57.6" xlink:href="#me66c208021" y="110.756479"/>
      </g>
     </g>
     <g id="text_12">
      <!-- $\mathdefault{10^{-12}}$ -->
      <g style="fill:#262626;" transform="translate(24.748 114.099792)scale(0.088 -0.088)">
       <use transform="translate(0 0.765625)" xlink:href="#DejaVuSans-31"/>
       <use transform="translate(63.623047 0.765625)" xlink:href="#DejaVuSans-30"/>
       <use transform="translate(128.203125 39.046875)scale(0.7)" xlink:href="#DejaVuSans-2212"/>
       <use transform="translate(186.855469 39.046875)scale(0.7)" xlink:href="#DejaVuSans-31"/>
       <use transform="translate(231.391602 39.046875)scale(0.7)" xlink:href="#DejaVuSans-32"/>
      </g>
     </g>
    </g>
    <g id="ytick_7">
     <g id="line2d_53">
      <g>
       <use style="fill:#262626;stroke:#262626;" x="57.6" xlink:href="#me66c208021" y="77.396533"/>
      </g>
     </g>
     <g id="text_13">
      <!-- $\mathdefault{10^{-5}}$ -->
      <defs>
       <path d="M 10.796875 72.90625 
L 49.515625 72.90625 
L 49.515625 64.59375 
L 19.828125 64.59375 
L 19.828125 46.734375 
Q 21.96875 47.46875 24.109375 47.828125 
Q 26.265625 48.1875 28.421875 48.1875 
Q 40.625 48.1875 47.75 41.5 
Q 54.890625 34.8125 54.890625 23.390625 
Q 54.890625 11.625 47.5625 5.09375 
Q 40.234375 -1.421875 26.90625 -1.421875 
Q 22.3125 -1.421875 17.546875 -0.640625 
Q 12.796875 0.140625 7.71875 1.703125 
L 7.71875 11.625 
Q 12.109375 9.234375 16.796875 8.0625 
Q 21.484375 6.890625 26.703125 6.890625 
Q 35.15625 6.890625 40.078125 11.328125 
Q 45.015625 15.765625 45.015625 23.390625 
Q 45.015625 31 40.078125 35.4375 
Q 35.15625 39.890625 26.703125 39.890625 
Q 22.75 39.890625 18.8125 39.015625 
Q 14.890625 38.140625 10.796875 36.28125 
z
" id="DejaVuSans-35"/>
      </defs>
      <g style="fill:#262626;" transform="translate(28.62 80.739846)scale(0.088 -0.088)">
       <use transform="translate(0 0.684375)" xlink:href="#DejaVuSans-31"/>
       <use transform="translate(63.623047 0.684375)" xlink:href="#DejaVuSans-30"/>
       <use transform="translate(128.203125 38.965625)scale(0.7)" xlink:href="#DejaVuSans-2212"/>
       <use transform="translate(186.855469 38.965625)scale(0.7)" xlink:href="#DejaVuSans-35"/>
      </g>
     </g>
    </g>
    <g id="ytick_8">
     <g id="line2d_54">
      <g>
       <use style="fill:#262626;stroke:#262626;" x="57.6" xlink:href="#me66c208021" y="44.036587"/>
      </g>
     </g>
     <g id="text_14">
      <!-- $\mathdefault{10^{2}}$ -->
      <g style="fill:#262626;" transform="translate(33.812 47.379899)scale(0.088 -0.088)">
       <use transform="translate(0 0.765625)" xlink:href="#DejaVuSans-31"/>
       <use transform="translate(63.623047 0.765625)" xlink:href="#DejaVuSans-30"/>
       <use transform="translate(128.203125 39.046875)scale(0.7)" xlink:href="#DejaVuSans-32"/>
      </g>
     </g>
    </g>
    <g id="text_15">
     <!-- $p_{A}$ -->
     <defs>
      <path d="M 49.609375 33.6875 
Q 49.609375 40.875 46.484375 44.671875 
Q 43.359375 48.484375 37.5 48.484375 
Q 33.5 48.484375 29.859375 46.4375 
Q 26.21875 44.390625 23.390625 40.484375 
Q 20.609375 36.625 18.9375 31.15625 
Q 17.28125 25.6875 17.28125 20.3125 
Q 17.28125 13.484375 20.40625 9.796875 
Q 23.53125 6.109375 29.296875 6.109375 
Q 33.546875 6.109375 37.1875 8.109375 
Q 40.828125 10.109375 43.40625 13.921875 
Q 46.1875 17.921875 47.890625 23.34375 
Q 49.609375 28.765625 49.609375 33.6875 
z
M 21.78125 46.390625 
Q 25.390625 51.125 30.296875 53.5625 
Q 35.203125 56 41.21875 56 
Q 49.609375 56 54.25 50.5 
Q 58.890625 45.015625 58.890625 35.109375 
Q 58.890625 27 56 19.65625 
Q 53.125 12.3125 47.703125 6.5 
Q 44.09375 2.640625 39.546875 0.609375 
Q 35.015625 -1.421875 29.984375 -1.421875 
Q 24.171875 -1.421875 20.21875 1 
Q 16.265625 3.421875 14.3125 8.203125 
L 8.6875 -20.796875 
L -0.296875 -20.796875 
L 14.40625 54.6875 
L 23.390625 54.6875 
z
" id="DejaVuSans-Oblique-70"/>
      <path d="M 36.8125 72.90625 
L 48 72.90625 
L 61.53125 0 
L 51.21875 0 
L 48.1875 18.703125 
L 15.375 18.703125 
L 5.078125 0 
L -5.328125 0 
z
M 40.375 63.1875 
L 19.921875 26.90625 
L 46.6875 26.90625 
z
" id="DejaVuSans-Oblique-41"/>
     </defs>
     <g style="fill:#262626;" transform="translate(18.732 180.048)rotate(-90)scale(0.096 -0.096)">
      <use xlink:href="#DejaVuSans-Oblique-70"/>
      <use transform="translate(63.476562 -16.40625)scale(0.7)" xlink:href="#DejaVuSans-Oblique-41"/>
     </g>
    </g>
   </g>
   <g id="line2d_55">
    <path clip-path="url(#pd104daf0c0)" d="M -1 231.197918 
L 73.832727 226.368 
L 138.097132 204.645579 
L 164.829571 195.372229 
L 182.813651 188.906046 
L 196.533193 183.74077 
L 207.263168 179.474305 
L 216.461393 175.581681 
L 224.262156 172.042152 
L 231.06309 168.715931 
L 237.108268 165.514192 
L 242.559284 162.375373 
L 247.417049 159.327539 
L 251.906885 156.253557 
L 256.082179 153.128056 
L 259.985242 149.929637 
L 263.650218 146.640076 
L 267.105092 143.243815 
L 270.426528 139.667455 
L 273.61854 135.902001 
L 276.686358 131.93917 
L 279.675444 127.713199 
L 282.581375 123.218892 
L 285.43508 118.39392 
L 288.257952 113.177883 
L 291.036804 107.570406 
L 293.787443 101.516647 
L 296.566183 94.854458 
L 299.388589 87.499419 
L 302.432804 78.924449 
L 309.378203 59.030142 
L 310.536706 56.588388 
L 311.441717 55.162522 
L 312.210703 54.338171 
L 312.934051 53.877908 
L 313.719861 53.648684 
L 314.894005 53.571754 
L 324.249647 53.568 
L 398.487273 53.568 
L 398.487273 53.568 
" style="fill:none;stroke:#48186a;stroke-linecap:round;stroke-width:1.2;"/>
   </g>
   <g id="line2d_56">
    <path clip-path="url(#pd104daf0c0)" d="M -1 196.674271 
L 73.832727 191.80801 
L 141.737175 173.431662 
L 169.3603 165.72701 
L 187.83624 160.349505 
L 201.874839 156.031669 
L 212.897752 152.410374 
L 222.044936 149.173445 
L 229.697994 146.237431 
L 236.474304 143.403732 
L 242.427494 140.677261 
L 247.752365 137.999331 
L 252.579796 135.328439 
L 257.002277 132.633579 
L 261.159907 129.839812 
L 265.015314 126.981568 
L 268.669485 123.993795 
L 272.139566 120.86543 
L 275.44111 117.586876 
L 278.588132 114.150094 
L 281.66751 110.455324 
L 284.636638 106.545251 
L 287.560711 102.324089 
L 290.428098 97.791299 
L 293.282041 92.857133 
L 296.127812 87.485226 
L 299.031062 81.519798 
L 302.18549 74.509887 
L 308.890064 59.386236 
L 310.214322 57.094013 
L 311.285597 55.662363 
L 312.224509 54.762134 
L 313.135735 54.191389 
L 314.111891 53.845659 
L 315.358934 53.654638 
L 317.607317 53.577579 
L 330.897889 53.568 
L 398.487273 53.568 
L 398.487273 53.568 
" style="fill:none;stroke:#472d7b;stroke-linecap:round;stroke-width:1.2;"/>
   </g>
   <g id="line2d_57">
    <path clip-path="url(#pd104daf0c0)" d="M -1 300.245231 
L 73.832727 295.488 
L 129.206419 269.325993 
L 155.391859 256.723672 
L 173.310945 247.870181 
L 187.053803 240.844357 
L 198.234796 234.884663 
L 207.672508 229.601642 
L 215.529524 224.95655 
L 222.551581 220.549959 
L 228.684637 216.445151 
L 234.31922 212.406332 
L 239.376129 208.509659 
L 243.973049 204.693845 
L 248.303264 200.811461 
L 252.293198 196.93906 
L 256.082179 192.952073 
L 259.684465 188.834152 
L 263.113899 184.569502 
L 266.38355 180.143267 
L 269.50555 175.541803 
L 272.540931 170.669338 
L 275.486458 165.517469 
L 278.382512 159.995988 
L 281.219068 154.098931 
L 283.989575 147.820816 
L 286.72162 141.076126 
L 289.434294 133.781871 
L 292.140178 125.858448 
L 294.846853 117.232393 
L 297.58028 107.763636 
L 300.39655 97.190698 
L 303.585819 84.309433 
L 308.705006 63.502382 
L 310.022229 59.160702 
L 310.999706 56.64089 
L 311.79363 55.161807 
L 312.485657 54.316314 
L 313.135735 53.862539 
L 313.851091 53.642231 
L 314.957243 53.570908 
L 325.639676 53.568 
L 398.487273 53.568 
L 398.487273 53.568 
" style="fill:none;stroke:#424086;stroke-linecap:round;stroke-width:1.2;"/>
   </g>
   <g id="line2d_58">
    <path clip-path="url(#pd104daf0c0)" d="M -1 196.674261 
L 73.832727 191.808 
L 141.737175 173.431652 
L 169.3603 165.726999 
L 187.83624 160.349493 
L 201.874839 156.031655 
L 212.897752 152.410357 
L 222.044936 149.173425 
L 229.697994 146.237406 
L 236.474304 143.403702 
L 242.427494 140.677223 
L 247.752365 137.999282 
L 252.579796 135.328374 
L 257.002277 132.633493 
L 261.159907 129.839695 
L 265.015314 126.981408 
L 268.669485 123.993569 
L 272.139566 120.865104 
L 275.44111 117.586397 
L 278.588132 114.149374 
L 281.66751 110.454203 
L 284.636638 106.543459 
L 287.560711 102.321112 
L 290.428098 97.786159 
L 293.256553 92.893895 
L 296.081304 87.559139 
L 298.946334 81.664917 
L 301.974667 74.91236 
L 306.658863 63.806941 
L 308.859298 58.92716 
L 310.170099 56.518002 
L 311.171558 55.112051 
L 312.00287 54.305659 
L 312.77175 53.858877 
L 313.601276 53.639328 
L 314.868673 53.57022 
L 329.239949 53.568 
L 398.487273 53.568 
L 398.487273 53.568 
" style="fill:none;stroke:#3b528b;stroke-linecap:round;stroke-width:1.2;"/>
   </g>
   <g id="line2d_59">
    <path clip-path="url(#pd104daf0c0)" d="M -1 196.674261 
L 73.832727 191.808 
L 141.737175 173.431652 
L 169.3603 165.726999 
L 187.83624 160.349493 
L 201.874839 156.031655 
L 212.897752 152.410357 
L 222.044936 149.173425 
L 229.697994 146.237406 
L 236.474304 143.403702 
L 242.427494 140.677223 
L 247.752365 137.999282 
L 252.579796 135.328374 
L 257.002277 132.633493 
L 261.159907 129.839695 
L 265.015314 126.981408 
L 268.669485 123.993569 
L 272.139566 120.865104 
L 275.44111 117.586397 
L 278.588132 114.149374 
L 281.66751 110.454203 
L 284.636638 106.543459 
L 287.560711 102.321113 
L 290.428098 97.78616 
L 293.256553 92.893896 
L 296.081304 87.559141 
L 298.946334 81.664921 
L 301.974667 74.912369 
L 306.658863 63.806977 
L 308.859298 58.927224 
L 310.170099 56.518082 
L 311.171558 55.112133 
L 312.00287 54.305731 
L 312.77175 53.858929 
L 313.601276 53.639353 
L 314.868673 53.570222 
L 329.224027 53.568 
L 398.487273 53.568 
L 398.487273 53.568 
" style="fill:none;stroke:#33638d;stroke-linecap:round;stroke-width:1.2;"/>
   </g>
   <g id="line2d_60">
    <path clip-path="url(#pd104daf0c0)" d="M -1 162.150604 
L 73.832727 157.248 
L 144.993304 142.794049 
L 174.523047 136.579087 
L 193.470824 132.377686 
L 207.672508 129.010989 
L 218.817172 126.150728 
L 228.060279 123.557053 
L 235.990148 121.103158 
L 242.82119 118.757724 
L 248.844515 116.4548 
L 254.155487 114.190396 
L 258.996817 111.887671 
L 263.450187 109.523709 
L 267.576928 107.080402 
L 271.424385 104.543338 
L 275.029956 101.901104 
L 278.464924 99.109599 
L 281.778612 96.127691 
L 284.971833 92.951125 
L 288.047409 89.576941 
L 291.064189 85.9346 
L 294.037078 81.991481 
L 296.975824 77.720853 
L 299.968586 72.974395 
L 303.273926 67.296899 
L 308.966846 57.425106 
L 310.302579 55.62271 
L 311.328254 54.592587 
L 312.210703 54.010426 
L 313.068653 53.707737 
L 314.137851 53.583713 
L 317.316037 53.568 
L 398.487273 53.568 
L 398.487273 53.568 
" style="fill:none;stroke:#2c728e;stroke-linecap:round;stroke-width:1.2;"/>
   </g>
   <g id="line2d_61">
    <path clip-path="url(#pd104daf0c0)" d="M -1 162.150606 
L 73.832727 157.248001 
L 144.993304 142.79405 
L 174.523047 136.579089 
L 193.470824 132.377688 
L 207.672508 129.010992 
L 218.817172 126.150731 
L 228.060279 123.557057 
L 235.990148 121.103163 
L 242.82119 118.75773 
L 248.844515 116.454808 
L 254.155487 114.190407 
L 258.996817 111.887686 
L 263.450187 109.52373 
L 267.576928 107.080433 
L 271.424385 104.543385 
L 275.029956 101.901174 
L 278.464924 99.109708 
L 281.778612 96.127867 
L 284.971833 92.951418 
L 288.047409 89.577444 
L 291.064189 85.935503 
L 294.037078 81.993184 
L 296.975824 77.724238 
L 299.9891 72.947794 
L 303.329195 67.217218 
L 308.797674 57.762704 
L 310.184847 55.86521 
L 311.242882 54.770364 
L 312.155418 54.12968 
L 313.04178 53.774113 
L 314.08591 53.607274 
L 316.122659 53.568172 
L 398.487273 53.568 
L 398.487273 53.568 
" style="fill:none;stroke:#26828e;stroke-linecap:round;stroke-width:1.2;"/>
   </g>
   <g id="line2d_62">
    <path clip-path="url(#pd104daf0c0)" d="M -1 196.674261 
L 73.832727 191.808 
L 141.737175 173.431652 
L 169.3603 165.726999 
L 187.83624 160.349493 
L 201.874839 156.031655 
L 212.897752 152.410357 
L 222.044936 149.173425 
L 229.697994 146.237406 
L 236.474304 143.403702 
L 242.427494 140.677223 
L 247.752365 137.999282 
L 252.579796 135.328374 
L 257.002277 132.633493 
L 261.159907 129.839695 
L 265.015314 126.981408 
L 268.669485 123.993569 
L 272.139566 120.865104 
L 275.44111 117.586397 
L 278.588132 114.149374 
L 281.66751 110.454203 
L 284.636638 106.543459 
L 287.560711 102.321112 
L 290.428098 97.786159 
L 293.256553 92.893894 
L 296.081304 87.559138 
L 298.946334 81.664915 
L 301.974667 74.912355 
L 306.658863 63.806922 
L 308.859298 58.927128 
L 310.170099 56.517963 
L 311.171558 55.11201 
L 312.00287 54.305623 
L 312.77175 53.858851 
L 313.601276 53.639315 
L 314.868673 53.570219 
L 329.239949 53.568 
L 398.487273 53.568 
L 398.487273 53.568 
" style="fill:none;stroke:#21918c;stroke-linecap:round;stroke-width:1.2;"/>
   </g>
   <g id="line2d_63">
    <path clip-path="url(#pd104daf0c0)" d="M -1 162.150605 
L 73.832727 157.248001 
L 144.993304 142.794049 
L 174.523047 136.579088 
L 193.470824 132.377687 
L 207.672508 129.01099 
L 218.817172 126.150729 
L 228.060279 123.557054 
L 235.990148 121.10316 
L 242.82119 118.757727 
L 248.844515 116.454803 
L 254.155487 114.1904 
L 258.996817 111.887676 
L 263.450187 109.523717 
L 267.576928 107.080414 
L 271.424385 104.543356 
L 275.029956 101.901131 
L 278.464924 99.10964 
L 281.778612 96.127757 
L 284.971833 92.951236 
L 288.047409 89.577131 
L 291.064189 85.934941 
L 294.037078 81.992125 
L 296.975824 77.722132 
L 299.968586 72.977141 
L 303.273926 67.303743 
L 308.905436 57.549102 
L 310.258482 55.713845 
L 311.299823 54.656089 
L 312.196891 54.050898 
L 313.068653 53.729036 
L 314.124874 53.59072 
L 316.737038 53.568001 
L 398.487273 53.568 
L 398.487273 53.568 
" style="fill:none;stroke:#1fa088;stroke-linecap:round;stroke-width:1.2;"/>
   </g>
   <g id="line2d_64">
    <path clip-path="url(#pd104daf0c0)" d="M -1 196.674262 
L 73.832727 191.808001 
L 141.737175 173.431654 
L 169.3603 165.727001 
L 187.83624 160.349494 
L 201.874839 156.031656 
L 212.897752 152.410359 
L 222.044936 149.173428 
L 229.697994 146.237409 
L 236.474304 143.403706 
L 242.427494 140.677227 
L 247.752365 137.999288 
L 252.579796 135.328382 
L 257.002277 132.633504 
L 261.159907 129.839709 
L 265.015314 126.981427 
L 268.669485 123.993596 
L 272.139566 120.865143 
L 275.44111 117.586455 
L 278.588132 114.14946 
L 281.66751 110.454337 
L 284.636638 106.543674 
L 287.560711 102.321469 
L 290.428098 97.786775 
L 293.256553 92.895005 
L 296.081304 87.561254 
L 298.946334 81.669224 
L 301.993892 74.877708 
L 309.634425 57.510487 
L 310.754601 55.726056 
L 311.653346 54.681414 
L 312.458272 54.07109 
L 313.256117 53.742555 
L 314.228537 53.59639 
L 316.449439 53.568013 
L 398.487273 53.568 
L 398.487273 53.568 
" style="fill:none;stroke:#28ae80;stroke-linecap:round;stroke-width:1.2;"/>
   </g>
   <g id="line2d_65">
    <path clip-path="url(#pd104daf0c0)" d="M -1 162.150605 
L 73.832727 157.248 
L 144.993304 142.794049 
L 174.523047 136.579087 
L 193.470824 132.377686 
L 207.672508 129.010989 
L 218.817172 126.150728 
L 228.060279 123.557053 
L 235.990148 121.103158 
L 242.82119 118.757724 
L 248.844515 116.4548 
L 254.155487 114.190396 
L 258.996817 111.887671 
L 263.450187 109.523709 
L 267.576928 107.080403 
L 271.424385 104.54334 
L 275.029956 101.901106 
L 278.464924 99.109602 
L 281.778612 96.127696 
L 284.971833 92.951133 
L 288.047409 89.576955 
L 291.064189 85.934625 
L 294.037078 81.991528 
L 296.975824 77.720946 
L 299.968586 72.974594 
L 303.273926 67.297396 
L 308.951505 57.450458 
L 310.287887 55.642825 
L 311.314041 54.60723 
L 312.196891 54.01973 
L 313.055219 53.712278 
L 314.111891 53.585226 
L 317.104601 53.568 
L 398.487273 53.568 
L 398.487273 53.568 
" style="fill:none;stroke:#3fbc73;stroke-linecap:round;stroke-width:1.2;"/>
   </g>
   <g id="line2d_66">
    <path clip-path="url(#pd104daf0c0)" d="M -1 162.150605 
L 73.832727 157.248001 
L 144.993304 142.79405 
L 174.523047 136.579088 
L 193.470824 132.377687 
L 207.672508 129.010991 
L 218.817172 126.15073 
L 228.060279 123.557055 
L 235.990148 121.103161 
L 242.82119 118.757728 
L 248.844515 116.454805 
L 254.155487 114.190402 
L 258.996817 111.887679 
L 263.450187 109.523721 
L 267.576928 107.08042 
L 271.424385 104.543365 
L 275.029956 101.901145 
L 278.464924 99.109662 
L 281.778612 96.127793 
L 284.971833 92.951295 
L 288.047409 89.577232 
L 291.064189 85.935123 
L 294.037078 81.992468 
L 296.975824 77.722814 
L 299.9891 72.94472 
L 303.310783 67.24211 
L 308.859298 57.635293 
L 310.229049 55.769469 
L 311.271365 54.701387 
L 312.169248 54.083481 
L 313.04178 53.747667 
L 314.08591 53.59706 
L 316.377119 53.568014 
L 398.487273 53.568 
L 398.487273 53.568 
" style="fill:none;stroke:#5ec962;stroke-linecap:round;stroke-width:1.2;"/>
   </g>
   <g id="line2d_67">
    <path clip-path="url(#pd104daf0c0)" d="M -1 162.150605 
L 73.832727 157.248 
L 144.993304 142.794049 
L 174.523047 136.579088 
L 193.470824 132.377686 
L 207.672508 129.010989 
L 218.817172 126.150728 
L 228.060279 123.557053 
L 235.990148 121.103158 
L 242.82119 118.757725 
L 248.844515 116.454801 
L 254.155487 114.190396 
L 258.996817 111.887672 
L 263.450187 109.52371 
L 267.576928 107.080404 
L 271.424385 104.543341 
L 275.029956 101.901108 
L 278.464924 99.109605 
L 281.778612 96.127702 
L 284.971833 92.951143 
L 288.047409 89.576972 
L 291.064189 85.934655 
L 294.037078 81.991585 
L 296.975824 77.72106 
L 299.968586 72.974839 
L 303.273926 67.298006 
L 308.951505 57.4533 
L 310.287887 55.646329 
L 311.314041 54.610783 
L 312.196891 54.022702 
L 313.055219 53.71415 
L 314.111891 53.585768 
L 317.057419 53.568 
L 398.487273 53.568 
L 398.487273 53.568 
" style="fill:none;stroke:#84d44b;stroke-linecap:round;stroke-width:1.2;"/>
   </g>
   <g id="line2d_68">
    <path clip-path="url(#pd104daf0c0)" d="M -1 231.197918 
L 73.832727 226.368 
L 138.097132 204.645579 
L 164.829571 195.372228 
L 182.813651 188.906045 
L 196.533193 183.740769 
L 207.263168 179.474304 
L 216.461393 175.58168 
L 224.262156 172.042151 
L 231.06309 168.71593 
L 237.108268 165.51419 
L 242.559284 162.375371 
L 247.417049 159.327536 
L 251.906885 156.253554 
L 256.082179 153.128052 
L 259.985242 149.929632 
L 263.650218 146.640069 
L 267.105092 143.243805 
L 270.426528 139.667441 
L 273.61854 135.901981 
L 276.686358 131.939142 
L 279.675444 127.713157 
L 282.581375 123.218827 
L 285.43508 118.393816 
L 288.257952 113.177712 
L 291.036804 107.570113 
L 293.787443 101.516121 
L 296.566183 94.853458 
L 299.388589 87.497385 
L 302.432804 78.919794 
L 309.393334 58.964652 
L 310.536706 56.553855 
L 311.441717 55.128532 
L 312.210703 54.309415 
L 312.920558 53.863794 
L 313.693548 53.643142 
L 314.881341 53.570796 
L 326.425467 53.568 
L 398.487273 53.568 
L 398.487273 53.568 
" style="fill:none;stroke:#addc30;stroke-linecap:round;stroke-width:1.2;"/>
   </g>
   <g id="line2d_69">
    <path clip-path="url(#pd104daf0c0)" d="M -1 231.197918 
L 73.832727 226.368 
L 138.097132 204.645579 
L 164.829571 195.372228 
L 182.813651 188.906045 
L 196.533193 183.740769 
L 207.263168 179.474304 
L 216.461393 175.58168 
L 224.262156 172.042151 
L 231.06309 168.71593 
L 237.108268 165.51419 
L 242.559284 162.375371 
L 247.417049 159.327536 
L 251.906885 156.253554 
L 256.082179 153.128052 
L 259.985242 149.929632 
L 263.650218 146.640069 
L 267.105092 143.243805 
L 270.426528 139.667441 
L 273.61854 135.901981 
L 276.686358 131.939142 
L 279.675444 127.713157 
L 282.581375 123.218827 
L 285.43508 118.393816 
L 288.257952 113.177712 
L 291.036804 107.570113 
L 293.787443 101.516121 
L 296.566183 94.853458 
L 299.388589 87.497385 
L 302.432804 78.919794 
L 309.393334 58.964652 
L 310.536706 56.553855 
L 311.441717 55.128532 
L 312.210703 54.309415 
L 312.920558 53.863794 
L 313.693548 53.643142 
L 314.881341 53.570796 
L 326.425467 53.568 
L 398.487273 53.568 
L 398.487273 53.568 
" style="fill:none;stroke:#d8e219;stroke-linecap:round;stroke-width:1.2;"/>
   </g>
   <g id="patch_3">
    <path d="M 57.6 307.584 
L 57.6 41.472 
" style="fill:none;stroke:#262626;stroke-linecap:square;stroke-linejoin:miter;"/>
   </g>
   <g id="patch_4">
    <path d="M 414.72 307.584 
L 414.72 41.472 
" style="fill:none;stroke:#262626;stroke-linecap:square;stroke-linejoin:miter;"/>
   </g>
   <g id="patch_5">
    <path d="M 57.6 307.584 
L 414.72 307.584 
" style="fill:none;stroke:#262626;stroke-linecap:square;stroke-linejoin:miter;"/>
   </g>
   <g id="patch_6">
    <path d="M 57.6 41.472 
L 414.72 41.472 
" style="fill:none;stroke:#262626;stroke-linecap:square;stroke-linejoin:miter;"/>
   </g>
   <g id="legend_1">
    <g id="patch_7">
     <path d="M 226.761463 303.5856 
L 409.12224 303.5856 
Q 410.7216 303.5856 410.7216 301.98624 
L 410.7216 113.429475 
Q 410.7216 111.830115 409.12224 111.830115 
L 226.761463 111.830115 
Q 225.162103 111.830115 225.162103 113.429475 
L 225.162103 301.98624 
Q 225.162103 303.5856 226.761463 303.5856 
z
" style="fill:#ffffff;opacity:0.8;stroke:#cccccc;stroke-linejoin:miter;stroke-width:0.8;"/>
    </g>
    <g id="text_16">
     <!-- Cancer site -->
     <defs>
      <path d="M 64.40625 67.28125 
L 64.40625 56.890625 
Q 59.421875 61.53125 53.78125 63.8125 
Q 48.140625 66.109375 41.796875 66.109375 
Q 29.296875 66.109375 22.65625 58.46875 
Q 16.015625 50.828125 16.015625 36.375 
Q 16.015625 21.96875 22.65625 14.328125 
Q 29.296875 6.6875 41.796875 6.6875 
Q 48.140625 6.6875 53.78125 8.984375 
Q 59.421875 11.28125 64.40625 15.921875 
L 64.40625 5.609375 
Q 59.234375 2.09375 53.4375 0.328125 
Q 47.65625 -1.421875 41.21875 -1.421875 
Q 24.65625 -1.421875 15.125 8.703125 
Q 5.609375 18.84375 5.609375 36.375 
Q 5.609375 53.953125 15.125 64.078125 
Q 24.65625 74.21875 41.21875 74.21875 
Q 47.75 74.21875 53.53125 72.484375 
Q 59.328125 70.75 64.40625 67.28125 
z
" id="DejaVuSans-43"/>
      <path d="M 34.28125 27.484375 
Q 23.390625 27.484375 19.1875 25 
Q 14.984375 22.515625 14.984375 16.5 
Q 14.984375 11.71875 18.140625 8.90625 
Q 21.296875 6.109375 26.703125 6.109375 
Q 34.1875 6.109375 38.703125 11.40625 
Q 43.21875 16.703125 43.21875 25.484375 
L 43.21875 27.484375 
z
M 52.203125 31.203125 
L 52.203125 0 
L 43.21875 0 
L 43.21875 8.296875 
Q 40.140625 3.328125 35.546875 0.953125 
Q 30.953125 -1.421875 24.3125 -1.421875 
Q 15.921875 -1.421875 10.953125 3.296875 
Q 6 8.015625 6 15.921875 
Q 6 25.140625 12.171875 29.828125 
Q 18.359375 34.515625 30.609375 34.515625 
L 43.21875 34.515625 
L 43.21875 35.40625 
Q 43.21875 41.609375 39.140625 45 
Q 35.0625 48.390625 27.6875 48.390625 
Q 23 48.390625 18.546875 47.265625 
Q 14.109375 46.140625 10.015625 43.890625 
L 10.015625 52.203125 
Q 14.9375 54.109375 19.578125 55.046875 
Q 24.21875 56 28.609375 56 
Q 40.484375 56 46.34375 49.84375 
Q 52.203125 43.703125 52.203125 31.203125 
z
" id="DejaVuSans-61"/>
      <path d="M 41.109375 46.296875 
Q 39.59375 47.171875 37.8125 47.578125 
Q 36.03125 48 33.890625 48 
Q 26.265625 48 22.1875 43.046875 
Q 18.109375 38.09375 18.109375 28.8125 
L 18.109375 0 
L 9.078125 0 
L 9.078125 54.6875 
L 18.109375 54.6875 
L 18.109375 46.1875 
Q 20.953125 51.171875 25.484375 53.578125 
Q 30.03125 56 36.53125 56 
Q 37.453125 56 38.578125 55.875 
Q 39.703125 55.765625 41.0625 55.515625 
z
" id="DejaVuSans-72"/>
      <path d="M 18.3125 70.21875 
L 18.3125 54.6875 
L 36.8125 54.6875 
L 36.8125 47.703125 
L 18.3125 47.703125 
L 18.3125 18.015625 
Q 18.3125 11.328125 20.140625 9.421875 
Q 21.96875 7.515625 27.59375 7.515625 
L 36.8125 7.515625 
L 36.8125 0 
L 27.59375 0 
Q 17.1875 0 13.234375 3.875 
Q 9.28125 7.765625 9.28125 18.015625 
L 9.28125 47.703125 
L 2.6875 47.703125 
L 2.6875 54.6875 
L 9.28125 54.6875 
L 9.28125 70.21875 
z
" id="DejaVuSans-74"/>
     </defs>
     <g style="fill:#262626;" transform="translate(290.845852 122.323335)scale(0.096 -0.096)">
      <use xlink:href="#DejaVuSans-43"/>
      <use x="69.824219" xlink:href="#DejaVuSans-61"/>
      <use x="131.103516" xlink:href="#DejaVuSans-6e"/>
      <use x="194.482422" xlink:href="#DejaVuSans-63"/>
      <use x="249.462891" xlink:href="#DejaVuSans-65"/>
      <use x="310.986328" xlink:href="#DejaVuSans-72"/>
      <use x="352.099609" xlink:href="#DejaVuSans-20"/>
      <use x="383.886719" xlink:href="#DejaVuSans-73"/>
      <use x="435.986328" xlink:href="#DejaVuSans-69"/>
      <use x="463.769531" xlink:href="#DejaVuSans-74"/>
      <use x="502.978516" xlink:href="#DejaVuSans-65"/>
     </g>
    </g>
    <g id="line2d_70">
     <path d="M 228.360823 131.595673 
L 244.354423 131.595673 
" style="fill:none;stroke:#48186a;stroke-linecap:round;stroke-width:1.2;"/>
    </g>
    <g id="line2d_71"/>
    <g id="text_17">
     <!-- Head &amp; neck squamous cell carcinoma -->
     <defs>
      <path d="M 9.8125 72.90625 
L 19.671875 72.90625 
L 19.671875 43.015625 
L 55.515625 43.015625 
L 55.515625 72.90625 
L 65.375 72.90625 
L 65.375 0 
L 55.515625 0 
L 55.515625 34.71875 
L 19.671875 34.71875 
L 19.671875 0 
L 9.8125 0 
z
" id="DejaVuSans-48"/>
      <path d="M 24.3125 39.203125 
Q 19.875 35.25 17.796875 31.3125 
Q 15.71875 27.390625 15.71875 23.09375 
Q 15.71875 15.96875 20.890625 11.234375 
Q 26.078125 6.5 33.890625 6.5 
Q 38.53125 6.5 42.578125 8.03125 
Q 46.625 9.578125 50.203125 12.703125 
z
M 31.203125 44.671875 
L 56 19.28125 
Q 58.890625 23.640625 60.5 28.59375 
Q 62.109375 33.546875 62.40625 39.109375 
L 71.484375 39.109375 
Q 70.90625 32.671875 68.359375 26.359375 
Q 65.828125 20.0625 61.28125 13.921875 
L 74.90625 0 
L 62.59375 0 
L 55.609375 7.171875 
Q 50.53125 2.828125 44.96875 0.703125 
Q 39.40625 -1.421875 33.015625 -1.421875 
Q 21.234375 -1.421875 13.765625 5.296875 
Q 6.296875 12.015625 6.296875 22.515625 
Q 6.296875 28.765625 9.5625 34.25 
Q 12.84375 39.75 19.390625 44.578125 
Q 17.046875 47.65625 15.8125 50.703125 
Q 14.59375 53.765625 14.59375 56.6875 
Q 14.59375 64.59375 20.015625 69.40625 
Q 25.4375 74.21875 34.421875 74.21875 
Q 38.484375 74.21875 42.5 73.34375 
Q 46.53125 72.46875 50.6875 70.703125 
L 50.6875 61.8125 
Q 46.4375 64.109375 42.578125 65.296875 
Q 38.71875 66.5 35.40625 66.5 
Q 30.28125 66.5 27.078125 63.78125 
Q 23.875 61.078125 23.875 56.78125 
Q 23.875 54.296875 25.3125 51.78125 
Q 26.765625 49.265625 31.203125 44.671875 
z
" id="DejaVuSans-26"/>
      <path d="M 9.078125 75.984375 
L 18.109375 75.984375 
L 18.109375 31.109375 
L 44.921875 54.6875 
L 56.390625 54.6875 
L 27.390625 29.109375 
L 57.625 0 
L 45.90625 0 
L 18.109375 26.703125 
L 18.109375 0 
L 9.078125 0 
z
" id="DejaVuSans-6b"/>
      <path d="M 14.796875 27.296875 
Q 14.796875 17.390625 18.875 11.75 
Q 22.953125 6.109375 30.078125 6.109375 
Q 37.203125 6.109375 41.296875 11.75 
Q 45.40625 17.390625 45.40625 27.296875 
Q 45.40625 37.203125 41.296875 42.84375 
Q 37.203125 48.484375 30.078125 48.484375 
Q 22.953125 48.484375 18.875 42.84375 
Q 14.796875 37.203125 14.796875 27.296875 
z
M 45.40625 8.203125 
Q 42.578125 3.328125 38.25 0.953125 
Q 33.9375 -1.421875 27.875 -1.421875 
Q 17.96875 -1.421875 11.734375 6.484375 
Q 5.515625 14.40625 5.515625 27.296875 
Q 5.515625 40.1875 11.734375 48.09375 
Q 17.96875 56 27.875 56 
Q 33.9375 56 38.25 53.625 
Q 42.578125 51.265625 45.40625 46.390625 
L 45.40625 54.6875 
L 54.390625 54.6875 
L 54.390625 -20.796875 
L 45.40625 -20.796875 
z
" id="DejaVuSans-71"/>
      <path d="M 8.5 21.578125 
L 8.5 54.6875 
L 17.484375 54.6875 
L 17.484375 21.921875 
Q 17.484375 14.15625 20.5 10.265625 
Q 23.53125 6.390625 29.59375 6.390625 
Q 36.859375 6.390625 41.078125 11.03125 
Q 45.3125 15.671875 45.3125 23.6875 
L 45.3125 54.6875 
L 54.296875 54.6875 
L 54.296875 0 
L 45.3125 0 
L 45.3125 8.40625 
Q 42.046875 3.421875 37.71875 1 
Q 33.40625 -1.421875 27.6875 -1.421875 
Q 18.265625 -1.421875 13.375 4.4375 
Q 8.5 10.296875 8.5 21.578125 
z
M 31.109375 56 
z
" id="DejaVuSans-75"/>
     </defs>
     <g style="fill:#262626;" transform="translate(250.751863 134.394553)scale(0.079968 -0.079968)">
      <use xlink:href="#DejaVuSans-48"/>
      <use x="75.195312" xlink:href="#DejaVuSans-65"/>
      <use x="136.71875" xlink:href="#DejaVuSans-61"/>
      <use x="197.998047" xlink:href="#DejaVuSans-64"/>
      <use x="261.474609" xlink:href="#DejaVuSans-20"/>
      <use x="293.261719" xlink:href="#DejaVuSans-26"/>
      <use x="371.240234" xlink:href="#DejaVuSans-20"/>
      <use x="403.027344" xlink:href="#DejaVuSans-6e"/>
      <use x="466.40625" xlink:href="#DejaVuSans-65"/>
      <use x="527.929688" xlink:href="#DejaVuSans-63"/>
      <use x="582.910156" xlink:href="#DejaVuSans-6b"/>
      <use x="640.820312" xlink:href="#DejaVuSans-20"/>
      <use x="672.607422" xlink:href="#DejaVuSans-73"/>
      <use x="724.707031" xlink:href="#DejaVuSans-71"/>
      <use x="788.183594" xlink:href="#DejaVuSans-75"/>
      <use x="851.5625" xlink:href="#DejaVuSans-61"/>
      <use x="912.841797" xlink:href="#DejaVuSans-6d"/>
      <use x="1010.253906" xlink:href="#DejaVuSans-6f"/>
      <use x="1071.435547" xlink:href="#DejaVuSans-75"/>
      <use x="1134.814453" xlink:href="#DejaVuSans-73"/>
      <use x="1186.914062" xlink:href="#DejaVuSans-20"/>
      <use x="1218.701172" xlink:href="#DejaVuSans-63"/>
      <use x="1273.681641" xlink:href="#DejaVuSans-65"/>
      <use x="1335.205078" xlink:href="#DejaVuSans-6c"/>
      <use x="1362.988281" xlink:href="#DejaVuSans-6c"/>
      <use x="1390.771484" xlink:href="#DejaVuSans-20"/>
      <use x="1422.558594" xlink:href="#DejaVuSans-63"/>
      <use x="1477.539062" xlink:href="#DejaVuSans-61"/>
      <use x="1538.818359" xlink:href="#DejaVuSans-72"/>
      <use x="1579.900391" xlink:href="#DejaVuSans-63"/>
      <use x="1634.880859" xlink:href="#DejaVuSans-69"/>
      <use x="1662.664062" xlink:href="#DejaVuSans-6e"/>
      <use x="1726.042969" xlink:href="#DejaVuSans-6f"/>
      <use x="1787.224609" xlink:href="#DejaVuSans-6d"/>
      <use x="1884.636719" xlink:href="#DejaVuSans-61"/>
     </g>
    </g>
    <g id="line2d_72">
     <path d="M 228.360823 143.333476 
L 244.354423 143.333476 
" style="fill:none;stroke:#472d7b;stroke-linecap:round;stroke-width:1.2;"/>
    </g>
    <g id="line2d_73"/>
    <g id="text_18">
     <!-- Esophageal squamous cell carcinoma -->
     <defs>
      <path d="M 9.8125 72.90625 
L 55.90625 72.90625 
L 55.90625 64.59375 
L 19.671875 64.59375 
L 19.671875 43.015625 
L 54.390625 43.015625 
L 54.390625 34.71875 
L 19.671875 34.71875 
L 19.671875 8.296875 
L 56.78125 8.296875 
L 56.78125 0 
L 9.8125 0 
z
" id="DejaVuSans-45"/>
      <path d="M 18.109375 8.203125 
L 18.109375 -20.796875 
L 9.078125 -20.796875 
L 9.078125 54.6875 
L 18.109375 54.6875 
L 18.109375 46.390625 
Q 20.953125 51.265625 25.265625 53.625 
Q 29.59375 56 35.59375 56 
Q 45.5625 56 51.78125 48.09375 
Q 58.015625 40.1875 58.015625 27.296875 
Q 58.015625 14.40625 51.78125 6.484375 
Q 45.5625 -1.421875 35.59375 -1.421875 
Q 29.59375 -1.421875 25.265625 0.953125 
Q 20.953125 3.328125 18.109375 8.203125 
z
M 48.6875 27.296875 
Q 48.6875 37.203125 44.609375 42.84375 
Q 40.53125 48.484375 33.40625 48.484375 
Q 26.265625 48.484375 22.1875 42.84375 
Q 18.109375 37.203125 18.109375 27.296875 
Q 18.109375 17.390625 22.1875 11.75 
Q 26.265625 6.109375 33.40625 6.109375 
Q 40.53125 6.109375 44.609375 11.75 
Q 48.6875 17.390625 48.6875 27.296875 
z
" id="DejaVuSans-70"/>
      <path d="M 54.890625 33.015625 
L 54.890625 0 
L 45.90625 0 
L 45.90625 32.71875 
Q 45.90625 40.484375 42.875 44.328125 
Q 39.84375 48.1875 33.796875 48.1875 
Q 26.515625 48.1875 22.3125 43.546875 
Q 18.109375 38.921875 18.109375 30.90625 
L 18.109375 0 
L 9.078125 0 
L 9.078125 75.984375 
L 18.109375 75.984375 
L 18.109375 46.1875 
Q 21.34375 51.125 25.703125 53.5625 
Q 30.078125 56 35.796875 56 
Q 45.21875 56 50.046875 50.171875 
Q 54.890625 44.34375 54.890625 33.015625 
z
" id="DejaVuSans-68"/>
      <path d="M 45.40625 27.984375 
Q 45.40625 37.75 41.375 43.109375 
Q 37.359375 48.484375 30.078125 48.484375 
Q 22.859375 48.484375 18.828125 43.109375 
Q 14.796875 37.75 14.796875 27.984375 
Q 14.796875 18.265625 18.828125 12.890625 
Q 22.859375 7.515625 30.078125 7.515625 
Q 37.359375 7.515625 41.375 12.890625 
Q 45.40625 18.265625 45.40625 27.984375 
z
M 54.390625 6.78125 
Q 54.390625 -7.171875 48.1875 -13.984375 
Q 42 -20.796875 29.203125 -20.796875 
Q 24.46875 -20.796875 20.265625 -20.09375 
Q 16.0625 -19.390625 12.109375 -17.921875 
L 12.109375 -9.1875 
Q 16.0625 -11.328125 19.921875 -12.34375 
Q 23.78125 -13.375 27.78125 -13.375 
Q 36.625 -13.375 41.015625 -8.765625 
Q 45.40625 -4.15625 45.40625 5.171875 
L 45.40625 9.625 
Q 42.625 4.78125 38.28125 2.390625 
Q 33.9375 0 27.875 0 
Q 17.828125 0 11.671875 7.65625 
Q 5.515625 15.328125 5.515625 27.984375 
Q 5.515625 40.671875 11.671875 48.328125 
Q 17.828125 56 27.875 56 
Q 33.9375 56 38.28125 53.609375 
Q 42.625 51.21875 45.40625 46.390625 
L 45.40625 54.6875 
L 54.390625 54.6875 
z
" id="DejaVuSans-67"/>
     </defs>
     <g style="fill:#262626;" transform="translate(250.751863 146.132356)scale(0.079968 -0.079968)">
      <use xlink:href="#DejaVuSans-45"/>
      <use x="63.183594" xlink:href="#DejaVuSans-73"/>
      <use x="115.283203" xlink:href="#DejaVuSans-6f"/>
      <use x="176.464844" xlink:href="#DejaVuSans-70"/>
      <use x="239.941406" xlink:href="#DejaVuSans-68"/>
      <use x="303.320312" xlink:href="#DejaVuSans-61"/>
      <use x="364.599609" xlink:href="#DejaVuSans-67"/>
      <use x="428.076172" xlink:href="#DejaVuSans-65"/>
      <use x="489.599609" xlink:href="#DejaVuSans-61"/>
      <use x="550.878906" xlink:href="#DejaVuSans-6c"/>
      <use x="578.662109" xlink:href="#DejaVuSans-20"/>
      <use x="610.449219" xlink:href="#DejaVuSans-73"/>
      <use x="662.548828" xlink:href="#DejaVuSans-71"/>
      <use x="726.025391" xlink:href="#DejaVuSans-75"/>
      <use x="789.404297" xlink:href="#DejaVuSans-61"/>
      <use x="850.683594" xlink:href="#DejaVuSans-6d"/>
      <use x="948.095703" xlink:href="#DejaVuSans-6f"/>
      <use x="1009.277344" xlink:href="#DejaVuSans-75"/>
      <use x="1072.65625" xlink:href="#DejaVuSans-73"/>
      <use x="1124.755859" xlink:href="#DejaVuSans-20"/>
      <use x="1156.542969" xlink:href="#DejaVuSans-63"/>
      <use x="1211.523438" xlink:href="#DejaVuSans-65"/>
      <use x="1273.046875" xlink:href="#DejaVuSans-6c"/>
      <use x="1300.830078" xlink:href="#DejaVuSans-6c"/>
      <use x="1328.613281" xlink:href="#DejaVuSans-20"/>
      <use x="1360.400391" xlink:href="#DejaVuSans-63"/>
      <use x="1415.380859" xlink:href="#DejaVuSans-61"/>
      <use x="1476.660156" xlink:href="#DejaVuSans-72"/>
      <use x="1517.742188" xlink:href="#DejaVuSans-63"/>
      <use x="1572.722656" xlink:href="#DejaVuSans-69"/>
      <use x="1600.505859" xlink:href="#DejaVuSans-6e"/>
      <use x="1663.884766" xlink:href="#DejaVuSans-6f"/>
      <use x="1725.066406" xlink:href="#DejaVuSans-6d"/>
      <use x="1822.478516" xlink:href="#DejaVuSans-61"/>
     </g>
    </g>
    <g id="line2d_74">
     <path d="M 228.360823 155.071279 
L 244.354423 155.071279 
" style="fill:none;stroke:#424086;stroke-linecap:round;stroke-width:1.2;"/>
    </g>
    <g id="line2d_75"/>
    <g id="text_19">
     <!-- Colorectal adenocarcinoma -->
     <g style="fill:#262626;" transform="translate(250.751863 157.870159)scale(0.079968 -0.079968)">
      <use xlink:href="#DejaVuSans-43"/>
      <use x="69.824219" xlink:href="#DejaVuSans-6f"/>
      <use x="131.005859" xlink:href="#DejaVuSans-6c"/>
      <use x="158.789062" xlink:href="#DejaVuSans-6f"/>
      <use x="219.970703" xlink:href="#DejaVuSans-72"/>
      <use x="261.052734" xlink:href="#DejaVuSans-65"/>
      <use x="322.576172" xlink:href="#DejaVuSans-63"/>
      <use x="377.556641" xlink:href="#DejaVuSans-74"/>
      <use x="416.765625" xlink:href="#DejaVuSans-61"/>
      <use x="478.044922" xlink:href="#DejaVuSans-6c"/>
      <use x="505.828125" xlink:href="#DejaVuSans-20"/>
      <use x="537.615234" xlink:href="#DejaVuSans-61"/>
      <use x="598.894531" xlink:href="#DejaVuSans-64"/>
      <use x="662.371094" xlink:href="#DejaVuSans-65"/>
      <use x="723.894531" xlink:href="#DejaVuSans-6e"/>
      <use x="787.273438" xlink:href="#DejaVuSans-6f"/>
      <use x="848.455078" xlink:href="#DejaVuSans-63"/>
      <use x="903.435547" xlink:href="#DejaVuSans-61"/>
      <use x="964.714844" xlink:href="#DejaVuSans-72"/>
      <use x="1005.796875" xlink:href="#DejaVuSans-63"/>
      <use x="1060.777344" xlink:href="#DejaVuSans-69"/>
      <use x="1088.560547" xlink:href="#DejaVuSans-6e"/>
      <use x="1151.939453" xlink:href="#DejaVuSans-6f"/>
      <use x="1213.121094" xlink:href="#DejaVuSans-6d"/>
      <use x="1310.533203" xlink:href="#DejaVuSans-61"/>
     </g>
    </g>
    <g id="line2d_76">
     <path d="M 228.360823 166.809082 
L 244.354423 166.809082 
" style="fill:none;stroke:#3b528b;stroke-linecap:round;stroke-width:1.2;"/>
    </g>
    <g id="line2d_77"/>
    <g id="text_20">
     <!-- Hepatocellular carcinoma -->
     <g style="fill:#262626;" transform="translate(250.751863 169.607962)scale(0.079968 -0.079968)">
      <use xlink:href="#DejaVuSans-48"/>
      <use x="75.195312" xlink:href="#DejaVuSans-65"/>
      <use x="136.71875" xlink:href="#DejaVuSans-70"/>
      <use x="200.195312" xlink:href="#DejaVuSans-61"/>
      <use x="261.474609" xlink:href="#DejaVuSans-74"/>
      <use x="300.683594" xlink:href="#DejaVuSans-6f"/>
      <use x="361.865234" xlink:href="#DejaVuSans-63"/>
      <use x="416.845703" xlink:href="#DejaVuSans-65"/>
      <use x="478.369141" xlink:href="#DejaVuSans-6c"/>
      <use x="506.152344" xlink:href="#DejaVuSans-6c"/>
      <use x="533.935547" xlink:href="#DejaVuSans-75"/>
      <use x="597.314453" xlink:href="#DejaVuSans-6c"/>
      <use x="625.097656" xlink:href="#DejaVuSans-61"/>
      <use x="686.376953" xlink:href="#DejaVuSans-72"/>
      <use x="727.490234" xlink:href="#DejaVuSans-20"/>
      <use x="759.277344" xlink:href="#DejaVuSans-63"/>
      <use x="814.257812" xlink:href="#DejaVuSans-61"/>
      <use x="875.537109" xlink:href="#DejaVuSans-72"/>
      <use x="916.619141" xlink:href="#DejaVuSans-63"/>
      <use x="971.599609" xlink:href="#DejaVuSans-69"/>
      <use x="999.382812" xlink:href="#DejaVuSans-6e"/>
      <use x="1062.761719" xlink:href="#DejaVuSans-6f"/>
      <use x="1123.943359" xlink:href="#DejaVuSans-6d"/>
      <use x="1221.355469" xlink:href="#DejaVuSans-61"/>
     </g>
    </g>
    <g id="line2d_78">
     <path d="M 228.360823 178.546885 
L 244.354423 178.546885 
" style="fill:none;stroke:#33638d;stroke-linecap:round;stroke-width:1.2;"/>
    </g>
    <g id="line2d_79"/>
    <g id="text_21">
     <!-- Pancreatic cancer (ductal + endocrine) -->
     <defs>
      <path d="M 19.671875 64.796875 
L 19.671875 37.40625 
L 32.078125 37.40625 
Q 38.96875 37.40625 42.71875 40.96875 
Q 46.484375 44.53125 46.484375 51.125 
Q 46.484375 57.671875 42.71875 61.234375 
Q 38.96875 64.796875 32.078125 64.796875 
z
M 9.8125 72.90625 
L 32.078125 72.90625 
Q 44.34375 72.90625 50.609375 67.359375 
Q 56.890625 61.8125 56.890625 51.125 
Q 56.890625 40.328125 50.609375 34.8125 
Q 44.34375 29.296875 32.078125 29.296875 
L 19.671875 29.296875 
L 19.671875 0 
L 9.8125 0 
z
" id="DejaVuSans-50"/>
      <path d="M 46 62.703125 
L 46 35.5 
L 73.1875 35.5 
L 73.1875 27.203125 
L 46 27.203125 
L 46 0 
L 37.796875 0 
L 37.796875 27.203125 
L 10.59375 27.203125 
L 10.59375 35.5 
L 37.796875 35.5 
L 37.796875 62.703125 
z
" id="DejaVuSans-2b"/>
     </defs>
     <g style="fill:#262626;" transform="translate(250.751863 181.345765)scale(0.079968 -0.079968)">
      <use xlink:href="#DejaVuSans-50"/>
      <use x="60.240234" xlink:href="#DejaVuSans-61"/>
      <use x="121.519531" xlink:href="#DejaVuSans-6e"/>
      <use x="184.898438" xlink:href="#DejaVuSans-63"/>
      <use x="239.878906" xlink:href="#DejaVuSans-72"/>
      <use x="280.960938" xlink:href="#DejaVuSans-65"/>
      <use x="342.484375" xlink:href="#DejaVuSans-61"/>
      <use x="403.763672" xlink:href="#DejaVuSans-74"/>
      <use x="442.972656" xlink:href="#DejaVuSans-69"/>
      <use x="470.755859" xlink:href="#DejaVuSans-63"/>
      <use x="525.736328" xlink:href="#DejaVuSans-20"/>
      <use x="557.523438" xlink:href="#DejaVuSans-63"/>
      <use x="612.503906" xlink:href="#DejaVuSans-61"/>
      <use x="673.783203" xlink:href="#DejaVuSans-6e"/>
      <use x="737.162109" xlink:href="#DejaVuSans-63"/>
      <use x="792.142578" xlink:href="#DejaVuSans-65"/>
      <use x="853.666016" xlink:href="#DejaVuSans-72"/>
      <use x="894.779297" xlink:href="#DejaVuSans-20"/>
      <use x="926.566406" xlink:href="#DejaVuSans-28"/>
      <use x="965.580078" xlink:href="#DejaVuSans-64"/>
      <use x="1029.056641" xlink:href="#DejaVuSans-75"/>
      <use x="1092.435547" xlink:href="#DejaVuSans-63"/>
      <use x="1147.416016" xlink:href="#DejaVuSans-74"/>
      <use x="1186.625" xlink:href="#DejaVuSans-61"/>
      <use x="1247.904297" xlink:href="#DejaVuSans-6c"/>
      <use x="1275.6875" xlink:href="#DejaVuSans-20"/>
      <use x="1307.474609" xlink:href="#DejaVuSans-2b"/>
      <use x="1391.263672" xlink:href="#DejaVuSans-20"/>
      <use x="1423.050781" xlink:href="#DejaVuSans-65"/>
      <use x="1484.574219" xlink:href="#DejaVuSans-6e"/>
      <use x="1547.953125" xlink:href="#DejaVuSans-64"/>
      <use x="1611.429688" xlink:href="#DejaVuSans-6f"/>
      <use x="1672.611328" xlink:href="#DejaVuSans-63"/>
      <use x="1727.591797" xlink:href="#DejaVuSans-72"/>
      <use x="1768.705078" xlink:href="#DejaVuSans-69"/>
      <use x="1796.488281" xlink:href="#DejaVuSans-6e"/>
      <use x="1859.867188" xlink:href="#DejaVuSans-65"/>
      <use x="1921.390625" xlink:href="#DejaVuSans-29"/>
     </g>
    </g>
    <g id="line2d_80">
     <path d="M 228.360823 190.284688 
L 244.354423 190.284688 
" style="fill:none;stroke:#2c728e;stroke-linecap:round;stroke-width:1.2;"/>
    </g>
    <g id="line2d_81"/>
    <g id="text_22">
     <!-- Lung adenocarcinoma -->
     <defs>
      <path d="M 9.8125 72.90625 
L 19.671875 72.90625 
L 19.671875 8.296875 
L 55.171875 8.296875 
L 55.171875 0 
L 9.8125 0 
z
" id="DejaVuSans-4c"/>
     </defs>
     <g style="fill:#262626;" transform="translate(250.751863 193.083568)scale(0.079968 -0.079968)">
      <use xlink:href="#DejaVuSans-4c"/>
      <use x="55.697266" xlink:href="#DejaVuSans-75"/>
      <use x="119.076172" xlink:href="#DejaVuSans-6e"/>
      <use x="182.455078" xlink:href="#DejaVuSans-67"/>
      <use x="245.931641" xlink:href="#DejaVuSans-20"/>
      <use x="277.71875" xlink:href="#DejaVuSans-61"/>
      <use x="338.998047" xlink:href="#DejaVuSans-64"/>
      <use x="402.474609" xlink:href="#DejaVuSans-65"/>
      <use x="463.998047" xlink:href="#DejaVuSans-6e"/>
      <use x="527.376953" xlink:href="#DejaVuSans-6f"/>
      <use x="588.558594" xlink:href="#DejaVuSans-63"/>
      <use x="643.539062" xlink:href="#DejaVuSans-61"/>
      <use x="704.818359" xlink:href="#DejaVuSans-72"/>
      <use x="745.900391" xlink:href="#DejaVuSans-63"/>
      <use x="800.880859" xlink:href="#DejaVuSans-69"/>
      <use x="828.664062" xlink:href="#DejaVuSans-6e"/>
      <use x="892.042969" xlink:href="#DejaVuSans-6f"/>
      <use x="953.224609" xlink:href="#DejaVuSans-6d"/>
      <use x="1050.636719" xlink:href="#DejaVuSans-61"/>
     </g>
    </g>
    <g id="line2d_82">
     <path d="M 228.360823 202.022491 
L 244.354423 202.022491 
" style="fill:none;stroke:#26828e;stroke-linecap:round;stroke-width:1.2;"/>
    </g>
    <g id="line2d_83"/>
    <g id="text_23">
     <!-- Osteosarcoma -->
     <defs>
      <path d="M 39.40625 66.21875 
Q 28.65625 66.21875 22.328125 58.203125 
Q 16.015625 50.203125 16.015625 36.375 
Q 16.015625 22.609375 22.328125 14.59375 
Q 28.65625 6.59375 39.40625 6.59375 
Q 50.140625 6.59375 56.421875 14.59375 
Q 62.703125 22.609375 62.703125 36.375 
Q 62.703125 50.203125 56.421875 58.203125 
Q 50.140625 66.21875 39.40625 66.21875 
z
M 39.40625 74.21875 
Q 54.734375 74.21875 63.90625 63.9375 
Q 73.09375 53.65625 73.09375 36.375 
Q 73.09375 19.140625 63.90625 8.859375 
Q 54.734375 -1.421875 39.40625 -1.421875 
Q 24.03125 -1.421875 14.8125 8.828125 
Q 5.609375 19.09375 5.609375 36.375 
Q 5.609375 53.65625 14.8125 63.9375 
Q 24.03125 74.21875 39.40625 74.21875 
z
" id="DejaVuSans-4f"/>
     </defs>
     <g style="fill:#262626;" transform="translate(250.751863 204.821371)scale(0.079968 -0.079968)">
      <use xlink:href="#DejaVuSans-4f"/>
      <use x="78.710938" xlink:href="#DejaVuSans-73"/>
      <use x="130.810547" xlink:href="#DejaVuSans-74"/>
      <use x="170.019531" xlink:href="#DejaVuSans-65"/>
      <use x="231.542969" xlink:href="#DejaVuSans-6f"/>
      <use x="292.724609" xlink:href="#DejaVuSans-73"/>
      <use x="344.824219" xlink:href="#DejaVuSans-61"/>
      <use x="406.103516" xlink:href="#DejaVuSans-72"/>
      <use x="447.185547" xlink:href="#DejaVuSans-63"/>
      <use x="502.166016" xlink:href="#DejaVuSans-6f"/>
      <use x="563.347656" xlink:href="#DejaVuSans-6d"/>
      <use x="660.759766" xlink:href="#DejaVuSans-61"/>
     </g>
    </g>
    <g id="line2d_84">
     <path d="M 228.360823 213.760294 
L 244.354423 213.760294 
" style="fill:none;stroke:#21918c;stroke-linecap:round;stroke-width:1.2;"/>
    </g>
    <g id="line2d_85"/>
    <g id="text_24">
     <!-- Melanoma -->
     <defs>
      <path d="M 9.8125 72.90625 
L 24.515625 72.90625 
L 43.109375 23.296875 
L 61.8125 72.90625 
L 76.515625 72.90625 
L 76.515625 0 
L 66.890625 0 
L 66.890625 64.015625 
L 48.09375 14.015625 
L 38.1875 14.015625 
L 19.390625 64.015625 
L 19.390625 0 
L 9.8125 0 
z
" id="DejaVuSans-4d"/>
     </defs>
     <g style="fill:#262626;" transform="translate(250.751863 216.559174)scale(0.079968 -0.079968)">
      <use xlink:href="#DejaVuSans-4d"/>
      <use x="86.279297" xlink:href="#DejaVuSans-65"/>
      <use x="147.802734" xlink:href="#DejaVuSans-6c"/>
      <use x="175.585938" xlink:href="#DejaVuSans-61"/>
      <use x="236.865234" xlink:href="#DejaVuSans-6e"/>
      <use x="300.244141" xlink:href="#DejaVuSans-6f"/>
      <use x="361.425781" xlink:href="#DejaVuSans-6d"/>
      <use x="458.837891" xlink:href="#DejaVuSans-61"/>
     </g>
    </g>
    <g id="line2d_86">
     <path d="M 228.360823 225.498097 
L 244.354423 225.498097 
" style="fill:none;stroke:#1fa088;stroke-linecap:round;stroke-width:1.2;"/>
    </g>
    <g id="line2d_87"/>
    <g id="text_25">
     <!-- Ovarian germ cell -->
     <g style="fill:#262626;" transform="translate(250.751863 228.296977)scale(0.079968 -0.079968)">
      <use xlink:href="#DejaVuSans-4f"/>
      <use x="78.710938" xlink:href="#DejaVuSans-76"/>
      <use x="137.890625" xlink:href="#DejaVuSans-61"/>
      <use x="199.169922" xlink:href="#DejaVuSans-72"/>
      <use x="240.283203" xlink:href="#DejaVuSans-69"/>
      <use x="268.066406" xlink:href="#DejaVuSans-61"/>
      <use x="329.345703" xlink:href="#DejaVuSans-6e"/>
      <use x="392.724609" xlink:href="#DejaVuSans-20"/>
      <use x="424.511719" xlink:href="#DejaVuSans-67"/>
      <use x="487.988281" xlink:href="#DejaVuSans-65"/>
      <use x="549.511719" xlink:href="#DejaVuSans-72"/>
      <use x="590.609375" xlink:href="#DejaVuSans-6d"/>
      <use x="688.021484" xlink:href="#DejaVuSans-20"/>
      <use x="719.808594" xlink:href="#DejaVuSans-63"/>
      <use x="774.789062" xlink:href="#DejaVuSans-65"/>
      <use x="836.3125" xlink:href="#DejaVuSans-6c"/>
      <use x="864.095703" xlink:href="#DejaVuSans-6c"/>
     </g>
    </g>
    <g id="line2d_88">
     <path d="M 228.360823 237.2359 
L 244.354423 237.2359 
" style="fill:none;stroke:#28ae80;stroke-linecap:round;stroke-width:1.2;"/>
    </g>
    <g id="line2d_89"/>
    <g id="text_26">
     <!-- Testicular germ cell -->
     <g style="fill:#262626;" transform="translate(250.751863 240.03478)scale(0.079968 -0.079968)">
      <use xlink:href="#DejaVuSans-54"/>
      <use x="60.818359" xlink:href="#DejaVuSans-65"/>
      <use x="122.341797" xlink:href="#DejaVuSans-73"/>
      <use x="174.441406" xlink:href="#DejaVuSans-74"/>
      <use x="213.650391" xlink:href="#DejaVuSans-69"/>
      <use x="241.433594" xlink:href="#DejaVuSans-63"/>
      <use x="296.414062" xlink:href="#DejaVuSans-75"/>
      <use x="359.792969" xlink:href="#DejaVuSans-6c"/>
      <use x="387.576172" xlink:href="#DejaVuSans-61"/>
      <use x="448.855469" xlink:href="#DejaVuSans-72"/>
      <use x="489.96875" xlink:href="#DejaVuSans-20"/>
      <use x="521.755859" xlink:href="#DejaVuSans-67"/>
      <use x="585.232422" xlink:href="#DejaVuSans-65"/>
      <use x="646.755859" xlink:href="#DejaVuSans-72"/>
      <use x="687.853516" xlink:href="#DejaVuSans-6d"/>
      <use x="785.265625" xlink:href="#DejaVuSans-20"/>
      <use x="817.052734" xlink:href="#DejaVuSans-63"/>
      <use x="872.033203" xlink:href="#DejaVuSans-65"/>
      <use x="933.556641" xlink:href="#DejaVuSans-6c"/>
      <use x="961.339844" xlink:href="#DejaVuSans-6c"/>
     </g>
    </g>
    <g id="line2d_90">
     <path d="M 228.360823 248.973703 
L 244.354423 248.973703 
" style="fill:none;stroke:#3fbc73;stroke-linecap:round;stroke-width:1.2;"/>
    </g>
    <g id="line2d_91"/>
    <g id="text_27">
     <!-- Medulloblastoma -->
     <defs>
      <path d="M 48.6875 27.296875 
Q 48.6875 37.203125 44.609375 42.84375 
Q 40.53125 48.484375 33.40625 48.484375 
Q 26.265625 48.484375 22.1875 42.84375 
Q 18.109375 37.203125 18.109375 27.296875 
Q 18.109375 17.390625 22.1875 11.75 
Q 26.265625 6.109375 33.40625 6.109375 
Q 40.53125 6.109375 44.609375 11.75 
Q 48.6875 17.390625 48.6875 27.296875 
z
M 18.109375 46.390625 
Q 20.953125 51.265625 25.265625 53.625 
Q 29.59375 56 35.59375 56 
Q 45.5625 56 51.78125 48.09375 
Q 58.015625 40.1875 58.015625 27.296875 
Q 58.015625 14.40625 51.78125 6.484375 
Q 45.5625 -1.421875 35.59375 -1.421875 
Q 29.59375 -1.421875 25.265625 0.953125 
Q 20.953125 3.328125 18.109375 8.203125 
L 18.109375 0 
L 9.078125 0 
L 9.078125 75.984375 
L 18.109375 75.984375 
z
" id="DejaVuSans-62"/>
     </defs>
     <g style="fill:#262626;" transform="translate(250.751863 251.772583)scale(0.079968 -0.079968)">
      <use xlink:href="#DejaVuSans-4d"/>
      <use x="86.279297" xlink:href="#DejaVuSans-65"/>
      <use x="147.802734" xlink:href="#DejaVuSans-64"/>
      <use x="211.279297" xlink:href="#DejaVuSans-75"/>
      <use x="274.658203" xlink:href="#DejaVuSans-6c"/>
      <use x="302.441406" xlink:href="#DejaVuSans-6c"/>
      <use x="330.224609" xlink:href="#DejaVuSans-6f"/>
      <use x="391.40625" xlink:href="#DejaVuSans-62"/>
      <use x="454.882812" xlink:href="#DejaVuSans-6c"/>
      <use x="482.666016" xlink:href="#DejaVuSans-61"/>
      <use x="543.945312" xlink:href="#DejaVuSans-73"/>
      <use x="596.044922" xlink:href="#DejaVuSans-74"/>
      <use x="635.253906" xlink:href="#DejaVuSans-6f"/>
      <use x="696.435547" xlink:href="#DejaVuSans-6d"/>
      <use x="793.847656" xlink:href="#DejaVuSans-61"/>
     </g>
    </g>
    <g id="line2d_92">
     <path d="M 228.360823 260.711506 
L 244.354423 260.711506 
" style="fill:none;stroke:#5ec962;stroke-linecap:round;stroke-width:1.2;"/>
    </g>
    <g id="line2d_93"/>
    <g id="text_28">
     <!-- Thyroid follicular/papillary -->
     <defs>
      <path d="M 32.171875 -5.078125 
Q 28.375 -14.84375 24.75 -17.8125 
Q 21.140625 -20.796875 15.09375 -20.796875 
L 7.90625 -20.796875 
L 7.90625 -13.28125 
L 13.1875 -13.28125 
Q 16.890625 -13.28125 18.9375 -11.515625 
Q 21 -9.765625 23.484375 -3.21875 
L 25.09375 0.875 
L 2.984375 54.6875 
L 12.5 54.6875 
L 29.59375 11.921875 
L 46.6875 54.6875 
L 56.203125 54.6875 
z
" id="DejaVuSans-79"/>
      <path d="M 37.109375 75.984375 
L 37.109375 68.5 
L 28.515625 68.5 
Q 23.6875 68.5 21.796875 66.546875 
Q 19.921875 64.59375 19.921875 59.515625 
L 19.921875 54.6875 
L 34.71875 54.6875 
L 34.71875 47.703125 
L 19.921875 47.703125 
L 19.921875 0 
L 10.890625 0 
L 10.890625 47.703125 
L 2.296875 47.703125 
L 2.296875 54.6875 
L 10.890625 54.6875 
L 10.890625 58.5 
Q 10.890625 67.625 15.140625 71.796875 
Q 19.390625 75.984375 28.609375 75.984375 
z
" id="DejaVuSans-66"/>
      <path d="M 25.390625 72.90625 
L 33.6875 72.90625 
L 8.296875 -9.28125 
L 0 -9.28125 
z
" id="DejaVuSans-2f"/>
     </defs>
     <g style="fill:#262626;" transform="translate(250.751863 263.510386)scale(0.079968 -0.079968)">
      <use xlink:href="#DejaVuSans-54"/>
      <use x="61.083984" xlink:href="#DejaVuSans-68"/>
      <use x="124.462891" xlink:href="#DejaVuSans-79"/>
      <use x="183.642578" xlink:href="#DejaVuSans-72"/>
      <use x="224.724609" xlink:href="#DejaVuSans-6f"/>
      <use x="285.90625" xlink:href="#DejaVuSans-69"/>
      <use x="313.689453" xlink:href="#DejaVuSans-64"/>
      <use x="377.166016" xlink:href="#DejaVuSans-20"/>
      <use x="408.953125" xlink:href="#DejaVuSans-66"/>
      <use x="444.158203" xlink:href="#DejaVuSans-6f"/>
      <use x="505.339844" xlink:href="#DejaVuSans-6c"/>
      <use x="533.123047" xlink:href="#DejaVuSans-6c"/>
      <use x="560.90625" xlink:href="#DejaVuSans-69"/>
      <use x="588.689453" xlink:href="#DejaVuSans-63"/>
      <use x="643.669922" xlink:href="#DejaVuSans-75"/>
      <use x="707.048828" xlink:href="#DejaVuSans-6c"/>
      <use x="734.832031" xlink:href="#DejaVuSans-61"/>
      <use x="796.111328" xlink:href="#DejaVuSans-72"/>
      <use x="837.224609" xlink:href="#DejaVuSans-2f"/>
      <use x="870.916016" xlink:href="#DejaVuSans-70"/>
      <use x="934.392578" xlink:href="#DejaVuSans-61"/>
      <use x="995.671875" xlink:href="#DejaVuSans-70"/>
      <use x="1059.148438" xlink:href="#DejaVuSans-69"/>
      <use x="1086.931641" xlink:href="#DejaVuSans-6c"/>
      <use x="1114.714844" xlink:href="#DejaVuSans-6c"/>
      <use x="1142.498047" xlink:href="#DejaVuSans-61"/>
      <use x="1203.777344" xlink:href="#DejaVuSans-72"/>
      <use x="1244.890625" xlink:href="#DejaVuSans-79"/>
     </g>
    </g>
    <g id="line2d_94">
     <path d="M 228.360823 272.449309 
L 244.354423 272.449309 
" style="fill:none;stroke:#84d44b;stroke-linecap:round;stroke-width:1.2;"/>
    </g>
    <g id="line2d_95"/>
    <g id="text_29">
     <!-- Thyroid medullary -->
     <g style="fill:#262626;" transform="translate(250.751863 275.248189)scale(0.079968 -0.079968)">
      <use xlink:href="#DejaVuSans-54"/>
      <use x="61.083984" xlink:href="#DejaVuSans-68"/>
      <use x="124.462891" xlink:href="#DejaVuSans-79"/>
      <use x="183.642578" xlink:href="#DejaVuSans-72"/>
      <use x="224.724609" xlink:href="#DejaVuSans-6f"/>
      <use x="285.90625" xlink:href="#DejaVuSans-69"/>
      <use x="313.689453" xlink:href="#DejaVuSans-64"/>
      <use x="377.166016" xlink:href="#DejaVuSans-20"/>
      <use x="408.953125" xlink:href="#DejaVuSans-6d"/>
      <use x="506.365234" xlink:href="#DejaVuSans-65"/>
      <use x="567.888672" xlink:href="#DejaVuSans-64"/>
      <use x="631.365234" xlink:href="#DejaVuSans-75"/>
      <use x="694.744141" xlink:href="#DejaVuSans-6c"/>
      <use x="722.527344" xlink:href="#DejaVuSans-6c"/>
      <use x="750.310547" xlink:href="#DejaVuSans-61"/>
      <use x="811.589844" xlink:href="#DejaVuSans-72"/>
      <use x="852.703125" xlink:href="#DejaVuSans-79"/>
     </g>
    </g>
    <g id="line2d_96">
     <path d="M 228.360823 284.187112 
L 244.354423 284.187112 
" style="fill:none;stroke:#addc30;stroke-linecap:round;stroke-width:1.2;"/>
    </g>
    <g id="line2d_97"/>
    <g id="text_30">
     <!-- Chronic lymphocytic leukemia -->
     <g style="fill:#262626;" transform="translate(250.751863 286.985992)scale(0.079968 -0.079968)">
      <use xlink:href="#DejaVuSans-43"/>
      <use x="69.824219" xlink:href="#DejaVuSans-68"/>
      <use x="133.203125" xlink:href="#DejaVuSans-72"/>
      <use x="174.285156" xlink:href="#DejaVuSans-6f"/>
      <use x="235.466797" xlink:href="#DejaVuSans-6e"/>
      <use x="298.845703" xlink:href="#DejaVuSans-69"/>
      <use x="326.628906" xlink:href="#DejaVuSans-63"/>
      <use x="381.609375" xlink:href="#DejaVuSans-20"/>
      <use x="413.396484" xlink:href="#DejaVuSans-6c"/>
      <use x="441.179688" xlink:href="#DejaVuSans-79"/>
      <use x="500.359375" xlink:href="#DejaVuSans-6d"/>
      <use x="597.771484" xlink:href="#DejaVuSans-70"/>
      <use x="661.248047" xlink:href="#DejaVuSans-68"/>
      <use x="724.626953" xlink:href="#DejaVuSans-6f"/>
      <use x="785.808594" xlink:href="#DejaVuSans-63"/>
      <use x="840.789062" xlink:href="#DejaVuSans-79"/>
      <use x="899.96875" xlink:href="#DejaVuSans-74"/>
      <use x="939.177734" xlink:href="#DejaVuSans-69"/>
      <use x="966.960938" xlink:href="#DejaVuSans-63"/>
      <use x="1021.941406" xlink:href="#DejaVuSans-20"/>
      <use x="1053.728516" xlink:href="#DejaVuSans-6c"/>
      <use x="1081.511719" xlink:href="#DejaVuSans-65"/>
      <use x="1143.035156" xlink:href="#DejaVuSans-75"/>
      <use x="1206.414062" xlink:href="#DejaVuSans-6b"/>
      <use x="1264.277344" xlink:href="#DejaVuSans-65"/>
      <use x="1325.800781" xlink:href="#DejaVuSans-6d"/>
      <use x="1423.212891" xlink:href="#DejaVuSans-69"/>
      <use x="1450.996094" xlink:href="#DejaVuSans-61"/>
     </g>
    </g>
    <g id="line2d_98">
     <path d="M 228.360823 295.924915 
L 244.354423 295.924915 
" style="fill:none;stroke:#d8e219;stroke-linecap:round;stroke-width:1.2;"/>
    </g>
    <g id="line2d_99"/>
    <g id="text_31">
     <!-- Acute myeloid leukemia -->
     <defs>
      <path d="M 34.1875 63.1875 
L 20.796875 26.90625 
L 47.609375 26.90625 
z
M 28.609375 72.90625 
L 39.796875 72.90625 
L 67.578125 0 
L 57.328125 0 
L 50.6875 18.703125 
L 17.828125 18.703125 
L 11.1875 0 
L 0.78125 0 
z
" id="DejaVuSans-41"/>
     </defs>
     <g style="fill:#262626;" transform="translate(250.751863 298.723795)scale(0.079968 -0.079968)">
      <use xlink:href="#DejaVuSans-41"/>
      <use x="68.392578" xlink:href="#DejaVuSans-63"/>
      <use x="123.373047" xlink:href="#DejaVuSans-75"/>
      <use x="186.751953" xlink:href="#DejaVuSans-74"/>
      <use x="225.960938" xlink:href="#DejaVuSans-65"/>
      <use x="287.484375" xlink:href="#DejaVuSans-20"/>
      <use x="319.271484" xlink:href="#DejaVuSans-6d"/>
      <use x="416.683594" xlink:href="#DejaVuSans-79"/>
      <use x="475.863281" xlink:href="#DejaVuSans-65"/>
      <use x="537.386719" xlink:href="#DejaVuSans-6c"/>
      <use x="565.169922" xlink:href="#DejaVuSans-6f"/>
      <use x="626.351562" xlink:href="#DejaVuSans-69"/>
      <use x="654.134766" xlink:href="#DejaVuSans-64"/>
      <use x="717.611328" xlink:href="#DejaVuSans-20"/>
      <use x="749.398438" xlink:href="#DejaVuSans-6c"/>
      <use x="777.181641" xlink:href="#DejaVuSans-65"/>
      <use x="838.705078" xlink:href="#DejaVuSans-75"/>
      <use x="902.083984" xlink:href="#DejaVuSans-6b"/>
      <use x="959.947266" xlink:href="#DejaVuSans-65"/>
      <use x="1021.470703" xlink:href="#DejaVuSans-6d"/>
      <use x="1118.882812" xlink:href="#DejaVuSans-69"/>
      <use x="1146.666016" xlink:href="#DejaVuSans-61"/>
     </g>
    </g>
   </g>
  </g>
 </g>
 <defs>
  <clipPath id="pd104daf0c0">
   <rect height="266.112" width="357.12" x="57.6" y="41.472"/>
  </clipPath>
 </defs>
</svg>
