<?xml version="1.0" encoding="utf-8" standalone="no"?>
<!DOCTYPE svg PUBLIC "-//W3C//DTD SVG 1.1//EN"
  "http://www.w3.org/Graphics/SVG/1.1/DTD/svg11.dtd">
<!-- Created with matplotlib (http://matplotlib.org/) -->
<svg height="432pt" version="1.1" viewBox="0 0 432 432" width="432pt" xmlns="http://www.w3.org/2000/svg" xmlns:xlink="http://www.w3.org/1999/xlink">
 <defs>
  <style type="text/css">
*{stroke-linecap:butt;stroke-linejoin:round;}
  </style>
 </defs>
 <g id="figure_1">
  <g id="patch_1">
   <path d="M 0 432 
L 432 432 
L 432 0 
L 0 0 
z
" style="fill:#ffffff;"/>
  </g>
  <g id="axes_1">
   <g id="patch_2">
    <path d="M 46.543 390.332 
L 353.353886 390.332 
L 353.353886 79.481829 
L 46.543 79.481829 
z
" style="fill:#ffffff;"/>
   </g>
   <g id="matplotlib.axis_1">
    <g id="xtick_1">
     <g id="line2d_1">
      <defs>
       <path d="M 0 0 
L 0 4.8 
" id="m826d336841" style="stroke:#262626;"/>
      </defs>
      <g>
       <use style="fill:#262626;stroke:#262626;" x="84.963604" xlink:href="#m826d336841" y="390.332"/>
      </g>
     </g>
     <g id="text_1">
      <!-- 1.6 -->
      <defs>
       <path d="M 12.40625 8.296875 
L 28.515625 8.296875 
L 28.515625 63.921875 
L 10.984375 60.40625 
L 10.984375 69.390625 
L 28.421875 72.90625 
L 38.28125 72.90625 
L 38.28125 8.296875 
L 54.390625 8.296875 
L 54.390625 0 
L 12.40625 0 
z
" id="DejaVuSans-31"/>
       <path d="M 10.6875 12.40625 
L 21 12.40625 
L 21 0 
L 10.6875 0 
z
" id="DejaVuSans-2e"/>
       <path d="M 33.015625 40.375 
Q 26.375 40.375 22.484375 35.828125 
Q 18.609375 31.296875 18.609375 23.390625 
Q 18.609375 15.53125 22.484375 10.953125 
Q 26.375 6.390625 33.015625 6.390625 
Q 39.65625 6.390625 43.53125 10.953125 
Q 47.40625 15.53125 47.40625 23.390625 
Q 47.40625 31.296875 43.53125 35.828125 
Q 39.65625 40.375 33.015625 40.375 
z
M 52.59375 71.296875 
L 52.59375 62.3125 
Q 48.875 64.0625 45.09375 64.984375 
Q 41.3125 65.921875 37.59375 65.921875 
Q 27.828125 65.921875 22.671875 59.328125 
Q 17.53125 52.734375 16.796875 39.40625 
Q 19.671875 43.65625 24.015625 45.921875 
Q 28.375 48.1875 33.59375 48.1875 
Q 44.578125 48.1875 50.953125 41.515625 
Q 57.328125 34.859375 57.328125 23.390625 
Q 57.328125 12.15625 50.6875 5.359375 
Q 44.046875 -1.421875 33.015625 -1.421875 
Q 20.359375 -1.421875 13.671875 8.265625 
Q 6.984375 17.96875 6.984375 36.375 
Q 6.984375 53.65625 15.1875 63.9375 
Q 23.390625 74.21875 37.203125 74.21875 
Q 40.921875 74.21875 44.703125 73.484375 
Q 48.484375 72.75 52.59375 71.296875 
z
" id="DejaVuSans-36"/>
      </defs>
      <g style="fill:#262626;" transform="translate(77.966229 405.318625)scale(0.088 -0.088)">
       <use xlink:href="#DejaVuSans-31"/>
       <use x="63.623047" xlink:href="#DejaVuSans-2e"/>
       <use x="95.410156" xlink:href="#DejaVuSans-36"/>
      </g>
     </g>
    </g>
    <g id="xtick_2">
     <g id="line2d_2">
      <g>
       <use style="fill:#262626;stroke:#262626;" x="124.908932" xlink:href="#m826d336841" y="390.332"/>
      </g>
     </g>
     <g id="text_2">
      <!-- 1.7 -->
      <defs>
       <path d="M 8.203125 72.90625 
L 55.078125 72.90625 
L 55.078125 68.703125 
L 28.609375 0 
L 18.3125 0 
L 43.21875 64.59375 
L 8.203125 64.59375 
z
" id="DejaVuSans-37"/>
      </defs>
      <g style="fill:#262626;" transform="translate(117.911557 405.318625)scale(0.088 -0.088)">
       <use xlink:href="#DejaVuSans-31"/>
       <use x="63.623047" xlink:href="#DejaVuSans-2e"/>
       <use x="95.410156" xlink:href="#DejaVuSans-37"/>
      </g>
     </g>
    </g>
    <g id="xtick_3">
     <g id="line2d_3">
      <g>
       <use style="fill:#262626;stroke:#262626;" x="164.854259" xlink:href="#m826d336841" y="390.332"/>
      </g>
     </g>
     <g id="text_3">
      <!-- 1.8 -->
      <defs>
       <path d="M 31.78125 34.625 
Q 24.75 34.625 20.71875 30.859375 
Q 16.703125 27.09375 16.703125 20.515625 
Q 16.703125 13.921875 20.71875 10.15625 
Q 24.75 6.390625 31.78125 6.390625 
Q 38.8125 6.390625 42.859375 10.171875 
Q 46.921875 13.96875 46.921875 20.515625 
Q 46.921875 27.09375 42.890625 30.859375 
Q 38.875 34.625 31.78125 34.625 
z
M 21.921875 38.8125 
Q 15.578125 40.375 12.03125 44.71875 
Q 8.5 49.078125 8.5 55.328125 
Q 8.5 64.0625 14.71875 69.140625 
Q 20.953125 74.21875 31.78125 74.21875 
Q 42.671875 74.21875 48.875 69.140625 
Q 55.078125 64.0625 55.078125 55.328125 
Q 55.078125 49.078125 51.53125 44.71875 
Q 48 40.375 41.703125 38.8125 
Q 48.828125 37.15625 52.796875 32.3125 
Q 56.78125 27.484375 56.78125 20.515625 
Q 56.78125 9.90625 50.3125 4.234375 
Q 43.84375 -1.421875 31.78125 -1.421875 
Q 19.734375 -1.421875 13.25 4.234375 
Q 6.78125 9.90625 6.78125 20.515625 
Q 6.78125 27.484375 10.78125 32.3125 
Q 14.796875 37.15625 21.921875 38.8125 
z
M 18.3125 54.390625 
Q 18.3125 48.734375 21.84375 45.5625 
Q 25.390625 42.390625 31.78125 42.390625 
Q 38.140625 42.390625 41.71875 45.5625 
Q 45.3125 48.734375 45.3125 54.390625 
Q 45.3125 60.0625 41.71875 63.234375 
Q 38.140625 66.40625 31.78125 66.40625 
Q 25.390625 66.40625 21.84375 63.234375 
Q 18.3125 60.0625 18.3125 54.390625 
z
" id="DejaVuSans-38"/>
      </defs>
      <g style="fill:#262626;" transform="translate(157.856884 405.318625)scale(0.088 -0.088)">
       <use xlink:href="#DejaVuSans-31"/>
       <use x="63.623047" xlink:href="#DejaVuSans-2e"/>
       <use x="95.410156" xlink:href="#DejaVuSans-38"/>
      </g>
     </g>
    </g>
    <g id="xtick_4">
     <g id="line2d_4">
      <g>
       <use style="fill:#262626;stroke:#262626;" x="204.799587" xlink:href="#m826d336841" y="390.332"/>
      </g>
     </g>
     <g id="text_4">
      <!-- 1.9 -->
      <defs>
       <path d="M 10.984375 1.515625 
L 10.984375 10.5 
Q 14.703125 8.734375 18.5 7.8125 
Q 22.3125 6.890625 25.984375 6.890625 
Q 35.75 6.890625 40.890625 13.453125 
Q 46.046875 20.015625 46.78125 33.40625 
Q 43.953125 29.203125 39.59375 26.953125 
Q 35.25 24.703125 29.984375 24.703125 
Q 19.046875 24.703125 12.671875 31.3125 
Q 6.296875 37.9375 6.296875 49.421875 
Q 6.296875 60.640625 12.9375 67.421875 
Q 19.578125 74.21875 30.609375 74.21875 
Q 43.265625 74.21875 49.921875 64.515625 
Q 56.59375 54.828125 56.59375 36.375 
Q 56.59375 19.140625 48.40625 8.859375 
Q 40.234375 -1.421875 26.421875 -1.421875 
Q 22.703125 -1.421875 18.890625 -0.6875 
Q 15.09375 0.046875 10.984375 1.515625 
z
M 30.609375 32.421875 
Q 37.25 32.421875 41.125 36.953125 
Q 45.015625 41.5 45.015625 49.421875 
Q 45.015625 57.28125 41.125 61.84375 
Q 37.25 66.40625 30.609375 66.40625 
Q 23.96875 66.40625 20.09375 61.84375 
Q 16.21875 57.28125 16.21875 49.421875 
Q 16.21875 41.5 20.09375 36.953125 
Q 23.96875 32.421875 30.609375 32.421875 
z
" id="DejaVuSans-39"/>
      </defs>
      <g style="fill:#262626;" transform="translate(197.802212 405.318625)scale(0.088 -0.088)">
       <use xlink:href="#DejaVuSans-31"/>
       <use x="63.623047" xlink:href="#DejaVuSans-2e"/>
       <use x="95.410156" xlink:href="#DejaVuSans-39"/>
      </g>
     </g>
    </g>
    <g id="xtick_5">
     <g id="line2d_5">
      <g>
       <use style="fill:#262626;stroke:#262626;" x="244.744915" xlink:href="#m826d336841" y="390.332"/>
      </g>
     </g>
     <g id="text_5">
      <!-- 2.0 -->
      <defs>
       <path d="M 19.1875 8.296875 
L 53.609375 8.296875 
L 53.609375 0 
L 7.328125 0 
L 7.328125 8.296875 
Q 12.9375 14.109375 22.625 23.890625 
Q 32.328125 33.6875 34.8125 36.53125 
Q 39.546875 41.84375 41.421875 45.53125 
Q 43.3125 49.21875 43.3125 52.78125 
Q 43.3125 58.59375 39.234375 62.25 
Q 35.15625 65.921875 28.609375 65.921875 
Q 23.96875 65.921875 18.8125 64.3125 
Q 13.671875 62.703125 7.8125 59.421875 
L 7.8125 69.390625 
Q 13.765625 71.78125 18.9375 73 
Q 24.125 74.21875 28.421875 74.21875 
Q 39.75 74.21875 46.484375 68.546875 
Q 53.21875 62.890625 53.21875 53.421875 
Q 53.21875 48.921875 51.53125 44.890625 
Q 49.859375 40.875 45.40625 35.40625 
Q 44.1875 33.984375 37.640625 27.21875 
Q 31.109375 20.453125 19.1875 8.296875 
z
" id="DejaVuSans-32"/>
       <path d="M 31.78125 66.40625 
Q 24.171875 66.40625 20.328125 58.90625 
Q 16.5 51.421875 16.5 36.375 
Q 16.5 21.390625 20.328125 13.890625 
Q 24.171875 6.390625 31.78125 6.390625 
Q 39.453125 6.390625 43.28125 13.890625 
Q 47.125 21.390625 47.125 36.375 
Q 47.125 51.421875 43.28125 58.90625 
Q 39.453125 66.40625 31.78125 66.40625 
z
M 31.78125 74.21875 
Q 44.046875 74.21875 50.515625 64.515625 
Q 56.984375 54.828125 56.984375 36.375 
Q 56.984375 17.96875 50.515625 8.265625 
Q 44.046875 -1.421875 31.78125 -1.421875 
Q 19.53125 -1.421875 13.0625 8.265625 
Q 6.59375 17.96875 6.59375 36.375 
Q 6.59375 54.828125 13.0625 64.515625 
Q 19.53125 74.21875 31.78125 74.21875 
z
" id="DejaVuSans-30"/>
      </defs>
      <g style="fill:#262626;" transform="translate(237.74754 405.318625)scale(0.088 -0.088)">
       <use xlink:href="#DejaVuSans-32"/>
       <use x="63.623047" xlink:href="#DejaVuSans-2e"/>
       <use x="95.410156" xlink:href="#DejaVuSans-30"/>
      </g>
     </g>
    </g>
    <g id="xtick_6">
     <g id="line2d_6">
      <g>
       <use style="fill:#262626;stroke:#262626;" x="284.690242" xlink:href="#m826d336841" y="390.332"/>
      </g>
     </g>
     <g id="text_6">
      <!-- 2.1 -->
      <g style="fill:#262626;" transform="translate(277.692867 405.318625)scale(0.088 -0.088)">
       <use xlink:href="#DejaVuSans-32"/>
       <use x="63.623047" xlink:href="#DejaVuSans-2e"/>
       <use x="95.410156" xlink:href="#DejaVuSans-31"/>
      </g>
     </g>
    </g>
    <g id="xtick_7">
     <g id="line2d_7">
      <g>
       <use style="fill:#262626;stroke:#262626;" x="324.63557" xlink:href="#m826d336841" y="390.332"/>
      </g>
     </g>
     <g id="text_7">
      <!-- 2.2 -->
      <g style="fill:#262626;" transform="translate(317.638195 405.318625)scale(0.088 -0.088)">
       <use xlink:href="#DejaVuSans-32"/>
       <use x="63.623047" xlink:href="#DejaVuSans-2e"/>
       <use x="95.410156" xlink:href="#DejaVuSans-32"/>
      </g>
     </g>
    </g>
    <g id="text_8">
     <!-- g(k-1) -->
     <defs>
      <path d="M 45.40625 27.984375 
Q 45.40625 37.75 41.375 43.109375 
Q 37.359375 48.484375 30.078125 48.484375 
Q 22.859375 48.484375 18.828125 43.109375 
Q 14.796875 37.75 14.796875 27.984375 
Q 14.796875 18.265625 18.828125 12.890625 
Q 22.859375 7.515625 30.078125 7.515625 
Q 37.359375 7.515625 41.375 12.890625 
Q 45.40625 18.265625 45.40625 27.984375 
z
M 54.390625 6.78125 
Q 54.390625 -7.171875 48.1875 -13.984375 
Q 42 -20.796875 29.203125 -20.796875 
Q 24.46875 -20.796875 20.265625 -20.09375 
Q 16.0625 -19.390625 12.109375 -17.921875 
L 12.109375 -9.1875 
Q 16.0625 -11.328125 19.921875 -12.34375 
Q 23.78125 -13.375 27.78125 -13.375 
Q 36.625 -13.375 41.015625 -8.765625 
Q 45.40625 -4.15625 45.40625 5.171875 
L 45.40625 9.625 
Q 42.625 4.78125 38.28125 2.390625 
Q 33.9375 0 27.875 0 
Q 17.828125 0 11.671875 7.65625 
Q 5.515625 15.328125 5.515625 27.984375 
Q 5.515625 40.671875 11.671875 48.328125 
Q 17.828125 56 27.875 56 
Q 33.9375 56 38.28125 53.609375 
Q 42.625 51.21875 45.40625 46.390625 
L 45.40625 54.6875 
L 54.390625 54.6875 
z
" id="DejaVuSans-67"/>
      <path d="M 31 75.875 
Q 24.46875 64.65625 21.28125 53.65625 
Q 18.109375 42.671875 18.109375 31.390625 
Q 18.109375 20.125 21.3125 9.0625 
Q 24.515625 -2 31 -13.1875 
L 23.1875 -13.1875 
Q 15.875 -1.703125 12.234375 9.375 
Q 8.59375 20.453125 8.59375 31.390625 
Q 8.59375 42.28125 12.203125 53.3125 
Q 15.828125 64.359375 23.1875 75.875 
z
" id="DejaVuSans-28"/>
      <path d="M 9.078125 75.984375 
L 18.109375 75.984375 
L 18.109375 31.109375 
L 44.921875 54.6875 
L 56.390625 54.6875 
L 27.390625 29.109375 
L 57.625 0 
L 45.90625 0 
L 18.109375 26.703125 
L 18.109375 0 
L 9.078125 0 
z
" id="DejaVuSans-6b"/>
      <path d="M 4.890625 31.390625 
L 31.203125 31.390625 
L 31.203125 23.390625 
L 4.890625 23.390625 
z
" id="DejaVuSans-2d"/>
      <path d="M 8.015625 75.875 
L 15.828125 75.875 
Q 23.140625 64.359375 26.78125 53.3125 
Q 30.421875 42.28125 30.421875 31.390625 
Q 30.421875 20.453125 26.78125 9.375 
Q 23.140625 -1.703125 15.828125 -13.1875 
L 8.015625 -13.1875 
Q 14.5 -2 17.703125 9.0625 
Q 20.90625 20.125 20.90625 31.390625 
Q 20.90625 42.671875 17.703125 53.65625 
Q 14.5 64.65625 8.015625 75.875 
z
" id="DejaVuSans-29"/>
     </defs>
     <g style="fill:#262626;" transform="translate(185.590443 418.44325)scale(0.096 -0.096)">
      <use xlink:href="#DejaVuSans-67"/>
      <use x="63.476562" xlink:href="#DejaVuSans-28"/>
      <use x="102.490234" xlink:href="#DejaVuSans-6b"/>
      <use x="160.400391" xlink:href="#DejaVuSans-2d"/>
      <use x="196.484375" xlink:href="#DejaVuSans-31"/>
      <use x="260.107422" xlink:href="#DejaVuSans-29"/>
     </g>
    </g>
   </g>
   <g id="matplotlib.axis_2">
    <g id="ytick_1">
     <g id="line2d_8">
      <defs>
       <path d="M 0 0 
L -4.8 0 
" id="med3e474e7f" style="stroke:#262626;"/>
      </defs>
      <g>
       <use style="fill:#262626;stroke:#262626;" x="46.543" xlink:href="#med3e474e7f" y="332.955554"/>
      </g>
     </g>
     <g id="text_9">
      <!-- 9 -->
      <g style="fill:#262626;" transform="translate(32.644 336.298866)scale(0.088 -0.088)">
       <use xlink:href="#DejaVuSans-39"/>
      </g>
     </g>
    </g>
    <g id="ytick_2">
     <g id="line2d_9">
      <g>
       <use style="fill:#262626;stroke:#262626;" x="46.543" xlink:href="#med3e474e7f" y="270.133552"/>
      </g>
     </g>
     <g id="text_10">
      <!-- 10 -->
      <g style="fill:#262626;" transform="translate(27.045 273.476864)scale(0.088 -0.088)">
       <use xlink:href="#DejaVuSans-31"/>
       <use x="63.623047" xlink:href="#DejaVuSans-30"/>
      </g>
     </g>
    </g>
    <g id="ytick_3">
     <g id="line2d_10">
      <g>
       <use style="fill:#262626;stroke:#262626;" x="46.543" xlink:href="#med3e474e7f" y="207.31155"/>
      </g>
     </g>
     <g id="text_11">
      <!-- 11 -->
      <g style="fill:#262626;" transform="translate(27.045 210.654863)scale(0.088 -0.088)">
       <use xlink:href="#DejaVuSans-31"/>
       <use x="63.623047" xlink:href="#DejaVuSans-31"/>
      </g>
     </g>
    </g>
    <g id="ytick_4">
     <g id="line2d_11">
      <g>
       <use style="fill:#262626;stroke:#262626;" x="46.543" xlink:href="#med3e474e7f" y="144.489548"/>
      </g>
     </g>
     <g id="text_12">
      <!-- 12 -->
      <g style="fill:#262626;" transform="translate(27.045 147.832861)scale(0.088 -0.088)">
       <use xlink:href="#DejaVuSans-31"/>
       <use x="63.623047" xlink:href="#DejaVuSans-32"/>
      </g>
     </g>
    </g>
    <g id="ytick_5">
     <g id="line2d_12">
      <g>
       <use style="fill:#262626;stroke:#262626;" x="46.543" xlink:href="#med3e474e7f" y="81.667547"/>
      </g>
     </g>
     <g id="text_13">
      <!-- 13 -->
      <defs>
       <path d="M 40.578125 39.3125 
Q 47.65625 37.796875 51.625 33 
Q 55.609375 28.21875 55.609375 21.1875 
Q 55.609375 10.40625 48.1875 4.484375 
Q 40.765625 -1.421875 27.09375 -1.421875 
Q 22.515625 -1.421875 17.65625 -0.515625 
Q 12.796875 0.390625 7.625 2.203125 
L 7.625 11.71875 
Q 11.71875 9.328125 16.59375 8.109375 
Q 21.484375 6.890625 26.8125 6.890625 
Q 36.078125 6.890625 40.9375 10.546875 
Q 45.796875 14.203125 45.796875 21.1875 
Q 45.796875 27.640625 41.28125 31.265625 
Q 36.765625 34.90625 28.71875 34.90625 
L 20.21875 34.90625 
L 20.21875 43.015625 
L 29.109375 43.015625 
Q 36.375 43.015625 40.234375 45.921875 
Q 44.09375 48.828125 44.09375 54.296875 
Q 44.09375 59.90625 40.109375 62.90625 
Q 36.140625 65.921875 28.71875 65.921875 
Q 24.65625 65.921875 20.015625 65.03125 
Q 15.375 64.15625 9.8125 62.3125 
L 9.8125 71.09375 
Q 15.4375 72.65625 20.34375 73.4375 
Q 25.25 74.21875 29.59375 74.21875 
Q 40.828125 74.21875 47.359375 69.109375 
Q 53.90625 64.015625 53.90625 55.328125 
Q 53.90625 49.265625 50.4375 45.09375 
Q 46.96875 40.921875 40.578125 39.3125 
z
" id="DejaVuSans-33"/>
      </defs>
      <g style="fill:#262626;" transform="translate(27.045 85.010859)scale(0.088 -0.088)">
       <use xlink:href="#DejaVuSans-31"/>
       <use x="63.623047" xlink:href="#DejaVuSans-33"/>
      </g>
     </g>
    </g>
    <g id="text_14">
     <!-- log(n) -->
     <defs>
      <path d="M 9.421875 75.984375 
L 18.40625 75.984375 
L 18.40625 0 
L 9.421875 0 
z
" id="DejaVuSans-6c"/>
      <path d="M 30.609375 48.390625 
Q 23.390625 48.390625 19.1875 42.75 
Q 14.984375 37.109375 14.984375 27.296875 
Q 14.984375 17.484375 19.15625 11.84375 
Q 23.34375 6.203125 30.609375 6.203125 
Q 37.796875 6.203125 41.984375 11.859375 
Q 46.1875 17.53125 46.1875 27.296875 
Q 46.1875 37.015625 41.984375 42.703125 
Q 37.796875 48.390625 30.609375 48.390625 
z
M 30.609375 56 
Q 42.328125 56 49.015625 48.375 
Q 55.71875 40.765625 55.71875 27.296875 
Q 55.71875 13.875 49.015625 6.21875 
Q 42.328125 -1.421875 30.609375 -1.421875 
Q 18.84375 -1.421875 12.171875 6.21875 
Q 5.515625 13.875 5.515625 27.296875 
Q 5.515625 40.765625 12.171875 48.375 
Q 18.84375 56 30.609375 56 
z
" id="DejaVuSans-6f"/>
      <path d="M 54.890625 33.015625 
L 54.890625 0 
L 45.90625 0 
L 45.90625 32.71875 
Q 45.90625 40.484375 42.875 44.328125 
Q 39.84375 48.1875 33.796875 48.1875 
Q 26.515625 48.1875 22.3125 43.546875 
Q 18.109375 38.921875 18.109375 30.90625 
L 18.109375 0 
L 9.078125 0 
L 9.078125 54.6875 
L 18.109375 54.6875 
L 18.109375 46.1875 
Q 21.34375 51.125 25.703125 53.5625 
Q 30.078125 56 35.796875 56 
Q 45.21875 56 50.046875 50.171875 
Q 54.890625 44.34375 54.890625 33.015625 
z
" id="DejaVuSans-6e"/>
     </defs>
     <g style="fill:#262626;" transform="translate(21.0485 249.012164)rotate(-90)scale(0.096 -0.096)">
      <use xlink:href="#DejaVuSans-6c"/>
      <use x="27.783203" xlink:href="#DejaVuSans-6f"/>
      <use x="88.964844" xlink:href="#DejaVuSans-67"/>
      <use x="152.441406" xlink:href="#DejaVuSans-28"/>
      <use x="191.455078" xlink:href="#DejaVuSans-6e"/>
      <use x="254.833984" xlink:href="#DejaVuSans-29"/>
     </g>
    </g>
   </g>
   <g id="PathCollection_1">
    <defs>
     <path d="M 0 2.4 
C 0.636487 2.4 1.246992 2.147121 1.697056 1.697056 
C 2.147121 1.246992 2.4 0.636487 2.4 0 
C 2.4 -0.636487 2.147121 -1.246992 1.697056 -1.697056 
C 1.246992 -2.147121 0.636487 -2.4 0 -2.4 
C -0.636487 -2.4 -1.246992 -2.147121 -1.697056 -1.697056 
C -2.147121 -1.246992 -2.4 -0.636487 -2.4 0 
C -2.4 0.636487 -2.147121 1.246992 -1.697056 1.697056 
C -1.246992 2.147121 -0.636487 2.4 0 2.4 
z
" id="m21a62c5c91" style="stroke:#471365;stroke-opacity:0.8;"/>
    </defs>
    <g clip-path="url(#pc3118f105d)">
     <use style="fill:#471365;fill-opacity:0.8;stroke:#471365;stroke-opacity:0.8;" x="240.997796" xlink:href="#m21a62c5c91" y="223.030187"/>
     <use style="fill:#471365;fill-opacity:0.8;stroke:#471365;stroke-opacity:0.8;" x="166.808357" xlink:href="#m21a62c5c91" y="218.090475"/>
     <use style="fill:#471365;fill-opacity:0.8;stroke:#471365;stroke-opacity:0.8;" x="158.89909" xlink:href="#m21a62c5c91" y="223.794651"/>
     <use style="fill:#471365;fill-opacity:0.8;stroke:#471365;stroke-opacity:0.8;" x="234.877153" xlink:href="#m21a62c5c91" y="228.223908"/>
    </g>
   </g>
   <g id="PolyCollection_1">
    <defs>
     <path d="M 60.488949 -229.737345 
L 60.488949 -55.797553 
L 63.306313 -58.18825 
L 66.123676 -60.578947 
L 68.94104 -62.969644 
L 71.758403 -65.360341 
L 74.575767 -67.751038 
L 77.39313 -70.141734 
L 80.210494 -72.532431 
L 83.027857 -74.923128 
L 85.845221 -77.313825 
L 88.662584 -79.704522 
L 91.479948 -82.095219 
L 94.297311 -84.485916 
L 97.114675 -86.876613 
L 99.932038 -89.267309 
L 102.749402 -91.658006 
L 105.566765 -94.048703 
L 108.384129 -96.4394 
L 111.201492 -98.830097 
L 114.018856 -101.220794 
L 116.836219 -103.611491 
L 119.653583 -106.002188 
L 122.470946 -108.392884 
L 125.28831 -110.783581 
L 128.105673 -113.174278 
L 130.923037 -115.564975 
L 133.7404 -117.955672 
L 136.557764 -120.346369 
L 139.375127 -122.737066 
L 142.192491 -125.127763 
L 145.009855 -127.518459 
L 147.827218 -129.909156 
L 150.644582 -132.299853 
L 153.461945 -134.69055 
L 156.279309 -137.081247 
L 159.096672 -139.471944 
L 161.914036 -141.862641 
L 164.731399 -144.253338 
L 167.548763 -146.644034 
L 170.366126 -149.034731 
L 173.18349 -151.425428 
L 176.000853 -153.816125 
L 178.818217 -156.206822 
L 181.63558 -158.597519 
L 184.452944 -160.988216 
L 187.270307 -163.378913 
L 190.087671 -165.769609 
L 192.905034 -168.160306 
L 195.722398 -170.551003 
L 198.539761 -172.9417 
L 201.357125 -175.332397 
L 204.174488 -177.723094 
L 206.991852 -180.113791 
L 209.809215 -182.504488 
L 212.626579 -184.895184 
L 215.443942 -187.285881 
L 218.261306 -189.676578 
L 221.078669 -192.067275 
L 223.896033 -194.457972 
L 226.713396 -196.848669 
L 229.53076 -199.239366 
L 232.348123 -201.630063 
L 235.165487 -203.733167 
L 237.98285 -203.313745 
L 240.800214 -202.894323 
L 243.617577 -202.4749 
L 246.434941 -202.055478 
L 249.252304 -201.636056 
L 252.069668 -201.216634 
L 254.887031 -200.797212 
L 257.704395 -200.377789 
L 260.521758 -199.958367 
L 263.339122 -199.538945 
L 266.156485 -199.119523 
L 268.973849 -198.7001 
L 271.791212 -198.280678 
L 274.608576 -197.861256 
L 277.425939 -197.441834 
L 280.243303 -197.022411 
L 283.060666 -196.602989 
L 285.87803 -196.183567 
L 288.695393 -195.764145 
L 291.512757 -195.344723 
L 294.33012 -194.9253 
L 297.147484 -194.505878 
L 299.964847 -194.086456 
L 302.782211 -193.667034 
L 305.599574 -193.247611 
L 308.416938 -192.828189 
L 311.234301 -192.408767 
L 314.051665 -191.989345 
L 316.869028 -191.569922 
L 319.686392 -191.1505 
L 322.503755 -190.731078 
L 325.321119 -190.311656 
L 328.138482 -189.892234 
L 330.955846 -189.472811 
L 333.773209 -189.053389 
L 336.590573 -188.633967 
L 339.407936 -188.214545 
L 339.407936 -338.388618 
L 339.407936 -338.388618 
L 336.590573 -336.356731 
L 333.773209 -334.324844 
L 330.955846 -332.292957 
L 328.138482 -330.26107 
L 325.321119 -328.229183 
L 322.503755 -326.197296 
L 319.686392 -324.165409 
L 316.869028 -322.133522 
L 314.051665 -320.101635 
L 311.234301 -318.069747 
L 308.416938 -316.03786 
L 305.599574 -314.005973 
L 302.782211 -311.974086 
L 299.964847 -309.942199 
L 297.147484 -307.910312 
L 294.33012 -305.878425 
L 291.512757 -303.846538 
L 288.695393 -301.814651 
L 285.87803 -299.782764 
L 283.060666 -297.750877 
L 280.243303 -295.71899 
L 277.425939 -293.687103 
L 274.608576 -291.655215 
L 271.791212 -289.623328 
L 268.973849 -287.591441 
L 266.156485 -285.559554 
L 263.339122 -283.527667 
L 260.521758 -281.49578 
L 257.704395 -279.463893 
L 254.887031 -277.432006 
L 252.069668 -275.400119 
L 249.252304 -273.368232 
L 246.434941 -271.336345 
L 243.617577 -269.304458 
L 240.800214 -267.272571 
L 237.98285 -265.240683 
L 235.165487 -263.208796 
L 232.348123 -261.176909 
L 229.53076 -259.145022 
L 226.713396 -257.113135 
L 223.896033 -255.081248 
L 221.078669 -253.049361 
L 218.261306 -251.017474 
L 215.443942 -248.985587 
L 212.626579 -246.9537 
L 209.809215 -244.921813 
L 206.991852 -242.889926 
L 204.174488 -240.858039 
L 201.357125 -238.826152 
L 198.539761 -236.794264 
L 195.722398 -234.762377 
L 192.905034 -232.73049 
L 190.087671 -230.698603 
L 187.270307 -228.666716 
L 184.452944 -226.634829 
L 181.63558 -224.602942 
L 178.818217 -222.571055 
L 176.000853 -220.539168 
L 173.18349 -218.507281 
L 170.366126 -216.475394 
L 167.548763 -214.443507 
L 164.731399 -214.218723 
L 161.914036 -214.638145 
L 159.096672 -215.057567 
L 156.279309 -215.47699 
L 153.461945 -215.896412 
L 150.644582 -216.315834 
L 147.827218 -216.735256 
L 145.009855 -217.154678 
L 142.192491 -217.574101 
L 139.375127 -217.993523 
L 136.557764 -218.412945 
L 133.7404 -218.832367 
L 130.923037 -219.25179 
L 128.105673 -219.671212 
L 125.28831 -220.090634 
L 122.470946 -220.510056 
L 119.653583 -220.929479 
L 116.836219 -221.348901 
L 114.018856 -221.768323 
L 111.201492 -222.187745 
L 108.384129 -222.607167 
L 105.566765 -223.02659 
L 102.749402 -223.446012 
L 99.932038 -223.865434 
L 97.114675 -224.284856 
L 94.297311 -224.704279 
L 91.479948 -225.123701 
L 88.662584 -225.543123 
L 85.845221 -225.962545 
L 83.027857 -226.381968 
L 80.210494 -226.80139 
L 77.39313 -227.220812 
L 74.575767 -227.640234 
L 71.758403 -228.059656 
L 68.94104 -228.479079 
L 66.123676 -228.898501 
L 63.306313 -229.317923 
L 60.488949 -229.737345 
z
" id="md4917cde15" style="stroke:#ffffff;stroke-opacity:0.15;stroke-width:0.8;"/>
    </defs>
    <g clip-path="url(#pc3118f105d)">
     <use style="fill:#471365;fill-opacity:0.15;stroke:#ffffff;stroke-opacity:0.15;stroke-width:0.8;" x="0" xlink:href="#md4917cde15" y="432"/>
    </g>
   </g>
   <g id="line2d_13">
    <path clip-path="url(#pc3118f105d)" d="M 60.488949 215.578637 
L 63.306313 215.73382 
L 66.123676 215.889003 
L 68.94104 216.044185 
L 71.758403 216.199368 
L 74.575767 216.35455 
L 77.39313 216.509733 
L 80.210494 216.664916 
L 83.027857 216.820098 
L 85.845221 216.975281 
L 88.662584 217.130463 
L 91.479948 217.285646 
L 94.297311 217.440828 
L 97.114675 217.596011 
L 99.932038 217.751194 
L 102.749402 217.906376 
L 105.566765 218.061559 
L 108.384129 218.216741 
L 111.201492 218.371924 
L 114.018856 218.527107 
L 116.836219 218.682289 
L 119.653583 218.837472 
L 122.470946 218.992654 
L 125.28831 219.147837 
L 128.105673 219.30302 
L 130.923037 219.458202 
L 133.7404 219.613385 
L 136.557764 219.768567 
L 139.375127 219.92375 
L 142.192491 220.078933 
L 145.009855 220.234115 
L 147.827218 220.389298 
L 150.644582 220.54448 
L 153.461945 220.699663 
L 156.279309 220.854845 
L 159.096672 221.010028 
L 161.914036 221.165211 
L 164.731399 221.320393 
L 167.548763 221.475576 
L 170.366126 221.630758 
L 173.18349 221.785941 
L 176.000853 221.941124 
L 178.818217 222.096306 
L 181.63558 222.251489 
L 184.452944 222.406671 
L 187.270307 222.561854 
L 190.087671 222.717037 
L 192.905034 222.872219 
L 195.722398 223.027402 
L 198.539761 223.182584 
L 201.357125 223.337767 
L 204.174488 223.49295 
L 206.991852 223.648132 
L 209.809215 223.803315 
L 212.626579 223.958497 
L 215.443942 224.11368 
L 218.261306 224.268862 
L 221.078669 224.424045 
L 223.896033 224.579228 
L 226.713396 224.73441 
L 229.53076 224.889593 
L 232.348123 225.044775 
L 235.165487 225.199958 
L 237.98285 225.355141 
L 240.800214 225.510323 
L 243.617577 225.665506 
L 246.434941 225.820688 
L 249.252304 225.975871 
L 252.069668 226.131054 
L 254.887031 226.286236 
L 257.704395 226.441419 
L 260.521758 226.596601 
L 263.339122 226.751784 
L 266.156485 226.906967 
L 268.973849 227.062149 
L 271.791212 227.217332 
L 274.608576 227.372514 
L 277.425939 227.527697 
L 280.243303 227.682879 
L 283.060666 227.838062 
L 285.87803 227.993245 
L 288.695393 228.148427 
L 291.512757 228.30361 
L 294.33012 228.458792 
L 297.147484 228.613975 
L 299.964847 228.769158 
L 302.782211 228.92434 
L 305.599574 229.079523 
L 308.416938 229.234705 
L 311.234301 229.389888 
L 314.051665 229.545071 
L 316.869028 229.700253 
L 319.686392 229.855436 
L 322.503755 230.010618 
L 325.321119 230.165801 
L 328.138482 230.320983 
L 330.955846 230.476166 
L 333.773209 230.631349 
L 336.590573 230.786531 
L 339.407936 230.941714 
" style="fill:none;stroke:#471365;stroke-linecap:round;stroke-width:1.8;"/>
   </g>
   <g id="patch_3">
    <path d="M 46.543 390.332 
L 46.543 79.481829 
" style="fill:none;stroke:#262626;stroke-linecap:square;stroke-linejoin:miter;"/>
   </g>
   <g id="patch_4">
    <path d="M 46.543 390.332 
L 353.353886 390.332 
" style="fill:none;stroke:#262626;stroke-linecap:square;stroke-linejoin:miter;"/>
   </g>
   <g id="legend_1">
    <g id="patch_5">
     <path d="M 200.213261 99.438579 
L 347.193886 99.438579 
Q 348.953886 99.438579 348.953886 97.678579 
L 348.953886 85.641829 
Q 348.953886 83.881829 347.193886 83.881829 
L 200.213261 83.881829 
Q 198.453261 83.881829 198.453261 85.641829 
L 198.453261 97.678579 
Q 198.453261 99.438579 200.213261 99.438579 
z
" style="fill:#ffffff;opacity:0.8;stroke:#cccccc;stroke-linejoin:miter;stroke-width:0.8;"/>
    </g>
    <g id="line2d_14"/>
    <g id="line2d_15"/>
    <g id="text_15">
     <!-- pearsonr = -0.58; p = 0.42 -->
     <defs>
      <path d="M 18.109375 8.203125 
L 18.109375 -20.796875 
L 9.078125 -20.796875 
L 9.078125 54.6875 
L 18.109375 54.6875 
L 18.109375 46.390625 
Q 20.953125 51.265625 25.265625 53.625 
Q 29.59375 56 35.59375 56 
Q 45.5625 56 51.78125 48.09375 
Q 58.015625 40.1875 58.015625 27.296875 
Q 58.015625 14.40625 51.78125 6.484375 
Q 45.5625 -1.421875 35.59375 -1.421875 
Q 29.59375 -1.421875 25.265625 0.953125 
Q 20.953125 3.328125 18.109375 8.203125 
z
M 48.6875 27.296875 
Q 48.6875 37.203125 44.609375 42.84375 
Q 40.53125 48.484375 33.40625 48.484375 
Q 26.265625 48.484375 22.1875 42.84375 
Q 18.109375 37.203125 18.109375 27.296875 
Q 18.109375 17.390625 22.1875 11.75 
Q 26.265625 6.109375 33.40625 6.109375 
Q 40.53125 6.109375 44.609375 11.75 
Q 48.6875 17.390625 48.6875 27.296875 
z
" id="DejaVuSans-70"/>
      <path d="M 56.203125 29.59375 
L 56.203125 25.203125 
L 14.890625 25.203125 
Q 15.484375 15.921875 20.484375 11.0625 
Q 25.484375 6.203125 34.421875 6.203125 
Q 39.59375 6.203125 44.453125 7.46875 
Q 49.3125 8.734375 54.109375 11.28125 
L 54.109375 2.78125 
Q 49.265625 0.734375 44.1875 -0.34375 
Q 39.109375 -1.421875 33.890625 -1.421875 
Q 20.796875 -1.421875 13.15625 6.1875 
Q 5.515625 13.8125 5.515625 26.8125 
Q 5.515625 40.234375 12.765625 48.109375 
Q 20.015625 56 32.328125 56 
Q 43.359375 56 49.78125 48.890625 
Q 56.203125 41.796875 56.203125 29.59375 
z
M 47.21875 32.234375 
Q 47.125 39.59375 43.09375 43.984375 
Q 39.0625 48.390625 32.421875 48.390625 
Q 24.90625 48.390625 20.390625 44.140625 
Q 15.875 39.890625 15.1875 32.171875 
z
" id="DejaVuSans-65"/>
      <path d="M 34.28125 27.484375 
Q 23.390625 27.484375 19.1875 25 
Q 14.984375 22.515625 14.984375 16.5 
Q 14.984375 11.71875 18.140625 8.90625 
Q 21.296875 6.109375 26.703125 6.109375 
Q 34.1875 6.109375 38.703125 11.40625 
Q 43.21875 16.703125 43.21875 25.484375 
L 43.21875 27.484375 
z
M 52.203125 31.203125 
L 52.203125 0 
L 43.21875 0 
L 43.21875 8.296875 
Q 40.140625 3.328125 35.546875 0.953125 
Q 30.953125 -1.421875 24.3125 -1.421875 
Q 15.921875 -1.421875 10.953125 3.296875 
Q 6 8.015625 6 15.921875 
Q 6 25.140625 12.171875 29.828125 
Q 18.359375 34.515625 30.609375 34.515625 
L 43.21875 34.515625 
L 43.21875 35.40625 
Q 43.21875 41.609375 39.140625 45 
Q 35.0625 48.390625 27.6875 48.390625 
Q 23 48.390625 18.546875 47.265625 
Q 14.109375 46.140625 10.015625 43.890625 
L 10.015625 52.203125 
Q 14.9375 54.109375 19.578125 55.046875 
Q 24.21875 56 28.609375 56 
Q 40.484375 56 46.34375 49.84375 
Q 52.203125 43.703125 52.203125 31.203125 
z
" id="DejaVuSans-61"/>
      <path d="M 41.109375 46.296875 
Q 39.59375 47.171875 37.8125 47.578125 
Q 36.03125 48 33.890625 48 
Q 26.265625 48 22.1875 43.046875 
Q 18.109375 38.09375 18.109375 28.8125 
L 18.109375 0 
L 9.078125 0 
L 9.078125 54.6875 
L 18.109375 54.6875 
L 18.109375 46.1875 
Q 20.953125 51.171875 25.484375 53.578125 
Q 30.03125 56 36.53125 56 
Q 37.453125 56 38.578125 55.875 
Q 39.703125 55.765625 41.0625 55.515625 
z
" id="DejaVuSans-72"/>
      <path d="M 44.28125 53.078125 
L 44.28125 44.578125 
Q 40.484375 46.53125 36.375 47.5 
Q 32.28125 48.484375 27.875 48.484375 
Q 21.1875 48.484375 17.84375 46.4375 
Q 14.5 44.390625 14.5 40.28125 
Q 14.5 37.15625 16.890625 35.375 
Q 19.28125 33.59375 26.515625 31.984375 
L 29.59375 31.296875 
Q 39.15625 29.25 43.1875 25.515625 
Q 47.21875 21.78125 47.21875 15.09375 
Q 47.21875 7.46875 41.1875 3.015625 
Q 35.15625 -1.421875 24.609375 -1.421875 
Q 20.21875 -1.421875 15.453125 -0.5625 
Q 10.6875 0.296875 5.421875 2 
L 5.421875 11.28125 
Q 10.40625 8.6875 15.234375 7.390625 
Q 20.0625 6.109375 24.8125 6.109375 
Q 31.15625 6.109375 34.5625 8.28125 
Q 37.984375 10.453125 37.984375 14.40625 
Q 37.984375 18.0625 35.515625 20.015625 
Q 33.0625 21.96875 24.703125 23.78125 
L 21.578125 24.515625 
Q 13.234375 26.265625 9.515625 29.90625 
Q 5.8125 33.546875 5.8125 39.890625 
Q 5.8125 47.609375 11.28125 51.796875 
Q 16.75 56 26.8125 56 
Q 31.78125 56 36.171875 55.265625 
Q 40.578125 54.546875 44.28125 53.078125 
z
" id="DejaVuSans-73"/>
      <path id="DejaVuSans-20"/>
      <path d="M 10.59375 45.40625 
L 73.1875 45.40625 
L 73.1875 37.203125 
L 10.59375 37.203125 
z
M 10.59375 25.484375 
L 73.1875 25.484375 
L 73.1875 17.1875 
L 10.59375 17.1875 
z
" id="DejaVuSans-3d"/>
      <path d="M 10.796875 72.90625 
L 49.515625 72.90625 
L 49.515625 64.59375 
L 19.828125 64.59375 
L 19.828125 46.734375 
Q 21.96875 47.46875 24.109375 47.828125 
Q 26.265625 48.1875 28.421875 48.1875 
Q 40.625 48.1875 47.75 41.5 
Q 54.890625 34.8125 54.890625 23.390625 
Q 54.890625 11.625 47.5625 5.09375 
Q 40.234375 -1.421875 26.90625 -1.421875 
Q 22.3125 -1.421875 17.546875 -0.640625 
Q 12.796875 0.140625 7.71875 1.703125 
L 7.71875 11.625 
Q 12.109375 9.234375 16.796875 8.0625 
Q 21.484375 6.890625 26.703125 6.890625 
Q 35.15625 6.890625 40.078125 11.328125 
Q 45.015625 15.765625 45.015625 23.390625 
Q 45.015625 31 40.078125 35.4375 
Q 35.15625 39.890625 26.703125 39.890625 
Q 22.75 39.890625 18.8125 39.015625 
Q 14.890625 38.140625 10.796875 36.28125 
z
" id="DejaVuSans-35"/>
      <path d="M 11.71875 51.703125 
L 22.015625 51.703125 
L 22.015625 39.3125 
L 11.71875 39.3125 
z
M 11.71875 12.40625 
L 22.015625 12.40625 
L 22.015625 4 
L 14.015625 -11.625 
L 7.71875 -11.625 
L 11.71875 4 
z
" id="DejaVuSans-3b"/>
      <path d="M 37.796875 64.3125 
L 12.890625 25.390625 
L 37.796875 25.390625 
z
M 35.203125 72.90625 
L 47.609375 72.90625 
L 47.609375 25.390625 
L 58.015625 25.390625 
L 58.015625 17.1875 
L 47.609375 17.1875 
L 47.609375 0 
L 37.796875 0 
L 37.796875 17.1875 
L 4.890625 17.1875 
L 4.890625 26.703125 
z
" id="DejaVuSans-34"/>
     </defs>
     <g style="fill:#262626;" transform="translate(226.613261 94.088454)scale(0.088 -0.088)">
      <use xlink:href="#DejaVuSans-70"/>
      <use x="63.476562" xlink:href="#DejaVuSans-65"/>
      <use x="125" xlink:href="#DejaVuSans-61"/>
      <use x="186.279297" xlink:href="#DejaVuSans-72"/>
      <use x="227.392578" xlink:href="#DejaVuSans-73"/>
      <use x="279.492188" xlink:href="#DejaVuSans-6f"/>
      <use x="340.673828" xlink:href="#DejaVuSans-6e"/>
      <use x="404.052734" xlink:href="#DejaVuSans-72"/>
      <use x="445.166016" xlink:href="#DejaVuSans-20"/>
      <use x="476.953125" xlink:href="#DejaVuSans-3d"/>
      <use x="560.742188" xlink:href="#DejaVuSans-20"/>
      <use x="592.529297" xlink:href="#DejaVuSans-2d"/>
      <use x="628.613281" xlink:href="#DejaVuSans-30"/>
      <use x="692.236328" xlink:href="#DejaVuSans-2e"/>
      <use x="724.023438" xlink:href="#DejaVuSans-35"/>
      <use x="787.646484" xlink:href="#DejaVuSans-38"/>
      <use x="851.269531" xlink:href="#DejaVuSans-3b"/>
      <use x="884.960938" xlink:href="#DejaVuSans-20"/>
      <use x="916.748047" xlink:href="#DejaVuSans-70"/>
      <use x="980.224609" xlink:href="#DejaVuSans-20"/>
      <use x="1012.011719" xlink:href="#DejaVuSans-3d"/>
      <use x="1095.800781" xlink:href="#DejaVuSans-20"/>
      <use x="1127.587891" xlink:href="#DejaVuSans-30"/>
      <use x="1191.210938" xlink:href="#DejaVuSans-2e"/>
      <use x="1222.998047" xlink:href="#DejaVuSans-34"/>
      <use x="1286.621094" xlink:href="#DejaVuSans-32"/>
     </g>
    </g>
   </g>
  </g>
  <g id="axes_2">
   <g id="patch_6">
    <path d="M 46.543 68.762857 
L 353.353886 68.762857 
L 353.353886 15.168 
L 46.543 15.168 
z
" style="fill:#ffffff;"/>
   </g>
   <g id="matplotlib.axis_3">
    <g id="xtick_8">
     <g id="line2d_16">
      <g>
       <use style="fill:#262626;stroke:#262626;" x="84.963604" xlink:href="#m826d336841" y="68.762857"/>
      </g>
     </g>
    </g>
    <g id="xtick_9">
     <g id="line2d_17">
      <g>
       <use style="fill:#262626;stroke:#262626;" x="124.908932" xlink:href="#m826d336841" y="68.762857"/>
      </g>
     </g>
    </g>
    <g id="xtick_10">
     <g id="line2d_18">
      <g>
       <use style="fill:#262626;stroke:#262626;" x="164.854259" xlink:href="#m826d336841" y="68.762857"/>
      </g>
     </g>
    </g>
    <g id="xtick_11">
     <g id="line2d_19">
      <g>
       <use style="fill:#262626;stroke:#262626;" x="204.799587" xlink:href="#m826d336841" y="68.762857"/>
      </g>
     </g>
    </g>
    <g id="xtick_12">
     <g id="line2d_20">
      <g>
       <use style="fill:#262626;stroke:#262626;" x="244.744915" xlink:href="#m826d336841" y="68.762857"/>
      </g>
     </g>
    </g>
    <g id="xtick_13">
     <g id="line2d_21">
      <g>
       <use style="fill:#262626;stroke:#262626;" x="284.690242" xlink:href="#m826d336841" y="68.762857"/>
      </g>
     </g>
    </g>
    <g id="xtick_14">
     <g id="line2d_22">
      <g>
       <use style="fill:#262626;stroke:#262626;" x="324.63557" xlink:href="#m826d336841" y="68.762857"/>
      </g>
     </g>
    </g>
   </g>
   <g id="matplotlib.axis_4">
    <g id="ytick_6"/>
    <g id="ytick_7"/>
    <g id="ytick_8"/>
   </g>
   <g id="patch_7">
    <path clip-path="url(#p7a3aa27633)" d="M 158.89909 68.762857 
L 240.997796 68.762857 
L 240.997796 17.720136 
L 158.89909 17.720136 
z
" style="fill:#471365;opacity:0.4;stroke:#ffffff;stroke-linejoin:miter;stroke-width:0.8;"/>
   </g>
   <g id="line2d_23">
    <path clip-path="url(#p7a3aa27633)" d="M 73.167085 68.103428 
L 75.728325 67.95332 
L 78.289564 67.774927 
L 80.850804 67.564361 
L 83.412043 67.317521 
L 85.973283 67.030155 
L 88.534522 66.697941 
L 91.095762 66.316578 
L 93.657002 65.881906 
L 96.218241 65.390034 
L 98.779481 64.837481 
L 101.34072 64.221341 
L 103.90196 63.539434 
L 106.463199 62.79048 
L 109.024439 61.974252 
L 111.585678 61.091724 
L 114.146918 60.145202 
L 116.708157 59.13842 
L 119.269397 58.076607 
L 121.830637 56.966513 
L 124.391876 55.81638 
L 126.953116 54.635867 
L 129.514355 53.435916 
L 132.075595 52.228561 
L 134.636834 51.026687 
L 137.198074 49.843733 
L 139.759313 48.693357 
L 142.320553 47.589065 
L 144.881793 46.543822 
L 147.443032 45.569653 
L 150.004272 44.677256 
L 152.565511 43.875635 
L 155.126751 43.171783 
L 157.68799 42.570408 
L 160.24923 42.073744 
L 162.810469 41.681431 
L 165.371709 41.390492 
L 167.932948 41.195407 
L 170.494188 41.088275 
L 173.055428 41.059078 
L 175.616667 41.096022 
L 178.177907 41.185961 
L 180.739146 41.314872 
L 183.300386 41.468373 
L 185.861625 41.632271 
L 188.422865 41.793092 
L 190.984104 41.938608 
L 193.545344 42.058304 
L 196.106584 42.143794 
L 198.667823 42.189145 
L 201.229063 42.191116 
L 203.790302 42.149284 
L 206.351542 42.066067 
L 208.912781 41.946631 
L 211.474021 41.798685 
L 214.03526 41.632191 
L 216.5965 41.45897 
L 219.157739 41.29225 
L 221.718979 41.14616 
L 224.280219 41.035188 
L 226.841458 40.973637 
L 229.402698 40.975092 
L 231.963937 41.051921 
L 234.525177 41.214832 
L 237.086416 41.472494 
L 239.647656 41.831253 
L 242.208895 42.294921 
L 244.770135 42.864682 
L 247.331375 43.53908 
L 249.892614 44.314107 
L 252.453854 45.183376 
L 255.015093 46.138372 
L 257.576333 47.168757 
L 260.137572 48.262733 
L 262.698812 49.407426 
L 265.260051 50.589292 
L 267.821291 51.794511 
L 270.38253 53.009377 
L 272.94377 54.220647 
L 275.50501 55.415855 
L 278.066249 56.583576 
L 280.627489 57.713635 
L 283.188728 58.797259 
L 285.749968 59.827175 
L 288.311207 60.797646 
L 290.872447 61.704465 
L 293.433686 62.544899 
L 295.994926 63.317593 
L 298.556166 64.022453 
L 301.117405 64.660496 
L 303.678645 65.233694 
L 306.239884 65.744805 
L 308.801124 66.19721 
L 311.362363 66.59475 
L 313.923603 66.941577 
L 316.484842 67.242017 
L 319.046082 67.500447 
L 321.607321 67.721196 
L 324.168561 67.908458 
L 326.729801 68.066226 
" style="fill:none;stroke:#471365;stroke-linecap:round;stroke-width:1.2;"/>
   </g>
   <g id="patch_8">
    <path d="M 46.543 68.762857 
L 353.353886 68.762857 
" style="fill:none;stroke:#262626;stroke-linecap:square;stroke-linejoin:miter;"/>
   </g>
  </g>
  <g id="axes_3">
   <g id="patch_9">
    <path d="M 363.933571 390.332 
L 416.832 390.332 
L 416.832 79.481829 
L 363.933571 79.481829 
z
" style="fill:#ffffff;"/>
   </g>
   <g id="matplotlib.axis_5">
    <g id="xtick_15"/>
    <g id="xtick_16"/>
   </g>
   <g id="matplotlib.axis_6">
    <g id="ytick_9">
     <g id="line2d_24">
      <g>
       <use style="fill:#262626;stroke:#262626;" x="363.933571" xlink:href="#med3e474e7f" y="332.955554"/>
      </g>
     </g>
    </g>
    <g id="ytick_10">
     <g id="line2d_25">
      <g>
       <use style="fill:#262626;stroke:#262626;" x="363.933571" xlink:href="#med3e474e7f" y="270.133552"/>
      </g>
     </g>
    </g>
    <g id="ytick_11">
     <g id="line2d_26">
      <g>
       <use style="fill:#262626;stroke:#262626;" x="363.933571" xlink:href="#med3e474e7f" y="207.31155"/>
      </g>
     </g>
    </g>
    <g id="ytick_12">
     <g id="line2d_27">
      <g>
       <use style="fill:#262626;stroke:#262626;" x="363.933571" xlink:href="#med3e474e7f" y="144.489548"/>
      </g>
     </g>
    </g>
    <g id="ytick_13">
     <g id="line2d_28">
      <g>
       <use style="fill:#262626;stroke:#262626;" x="363.933571" xlink:href="#med3e474e7f" y="81.667547"/>
      </g>
     </g>
    </g>
   </g>
   <g id="patch_10">
    <path clip-path="url(#p6280813d37)" d="M 363.933571 228.223908 
L 389.123299 228.223908 
L 389.123299 224.846097 
L 363.933571 224.846097 
z
" style="fill:#471365;opacity:0.4;stroke:#ffffff;stroke-linejoin:miter;stroke-width:0.8;"/>
   </g>
   <g id="patch_11">
    <path clip-path="url(#p6280813d37)" d="M 363.933571 224.846097 
L 414.313027 224.846097 
L 414.313027 221.468286 
L 363.933571 221.468286 
z
" style="fill:#471365;opacity:0.4;stroke:#ffffff;stroke-linejoin:miter;stroke-width:0.8;"/>
   </g>
   <g id="patch_12">
    <path clip-path="url(#p6280813d37)" d="M 363.933571 221.468286 
L 389.123299 221.468286 
L 389.123299 218.090475 
L 363.933571 218.090475 
z
" style="fill:#471365;opacity:0.4;stroke:#ffffff;stroke-linejoin:miter;stroke-width:0.8;"/>
   </g>
   <g id="line2d_29">
    <path clip-path="url(#p6280813d37)" d="M 364.307593 236.397764 
L 364.399165 236.130278 
L 364.509114 235.862792 
L 364.640084 235.595305 
L 364.794861 235.327819 
L 364.976327 235.060333 
L 365.1874 234.792846 
L 365.430966 234.52536 
L 365.709806 234.257874 
L 366.026511 233.990388 
L 366.383391 233.722901 
L 366.782392 233.455415 
L 367.225012 233.187929 
L 367.71222 232.920442 
L 368.244404 232.652956 
L 368.821317 232.38547 
L 369.442059 232.117983 
L 370.105075 231.850497 
L 370.808182 231.583011 
L 371.548615 231.315524 
L 372.323101 231.048038 
L 373.127951 230.780552 
L 373.959164 230.513065 
L 374.812537 230.245579 
L 375.683773 229.978093 
L 376.568589 229.710606 
L 377.46279 229.44312 
L 378.36234 229.175634 
L 379.263381 228.908147 
L 380.162245 228.640661 
L 381.05541 228.373175 
L 381.939446 228.105689 
L 382.810926 227.838202 
L 383.666325 227.570716 
L 384.501914 227.30323 
L 385.313662 227.035743 
L 386.097157 226.768257 
L 386.847554 226.500771 
L 387.559572 226.233284 
L 388.227524 225.965798 
L 388.845417 225.698312 
L 389.40708 225.430825 
L 389.906358 225.163339 
L 390.337325 224.895853 
L 390.694526 224.628366 
L 390.97323 224.36088 
L 391.169661 224.093394 
L 391.281211 223.825907 
L 391.306603 223.558421 
L 391.246001 223.290935 
L 391.101042 223.023449 
L 390.874805 222.755962 
L 390.571702 222.488476 
L 390.197298 222.22099 
L 389.758082 221.953503 
L 389.261184 221.686017 
L 388.714076 221.418531 
L 388.12426 221.151044 
L 387.498978 220.883558 
L 386.844945 220.616072 
L 386.168138 220.348585 
L 385.473642 220.081099 
L 384.765563 219.813613 
L 384.04702 219.546126 
L 383.320188 219.27864 
L 382.58642 219.011154 
L 381.846404 218.743667 
L 381.100364 218.476181 
L 380.348273 218.208695 
L 379.590072 217.941208 
L 378.825874 217.673722 
L 378.056143 217.406236 
L 377.281825 217.13875 
L 376.504446 216.871263 
L 375.726154 216.603777 
L 374.949702 216.336291 
L 374.1784 216.068804 
L 373.416015 215.801318 
L 372.666642 215.533832 
L 371.934557 215.266345 
L 371.224052 214.998859 
L 370.539277 214.731373 
L 369.884086 214.463886 
L 369.261906 214.1964 
L 368.675625 213.928914 
L 368.127516 213.661427 
L 367.619181 213.393941 
L 367.151535 213.126455 
L 366.724818 212.858968 
L 366.338628 212.591482 
L 365.991977 212.323996 
L 365.68337 212.05651 
L 365.410883 211.789023 
L 365.17226 211.521537 
L 364.965002 211.254051 
L 364.786453 210.986564 
L 364.633888 210.719078 
L 364.504583 210.451592 
L 364.395878 210.184105 
L 364.305225 209.916619 
" style="fill:none;stroke:#471365;stroke-linecap:round;stroke-width:1.2;"/>
   </g>
   <g id="patch_13">
    <path d="M 363.933571 390.332 
L 363.933571 79.481829 
" style="fill:none;stroke:#262626;stroke-linecap:square;stroke-linejoin:miter;"/>
   </g>
  </g>
 </g>
 <defs>
  <clipPath id="pc3118f105d">
   <rect height="310.850171" width="306.810886" x="46.543" y="79.481829"/>
  </clipPath>
  <clipPath id="p7a3aa27633">
   <rect height="53.594857" width="306.810886" x="46.543" y="15.168"/>
  </clipPath>
  <clipPath id="p6280813d37">
   <rect height="310.850171" width="52.898429" x="363.933571" y="79.481829"/>
  </clipPath>
 </defs>
</svg>
