<?xml version="1.0" encoding="utf-8" standalone="no"?>
<!DOCTYPE svg PUBLIC "-//W3C//DTD SVG 1.1//EN"
  "http://www.w3.org/Graphics/SVG/1.1/DTD/svg11.dtd">
<!-- Created with matplotlib (http://matplotlib.org/) -->
<svg height="265.69625pt" version="1.1" viewBox="0 0 398.828125 265.69625" width="398.828125pt" xmlns="http://www.w3.org/2000/svg" xmlns:xlink="http://www.w3.org/1999/xlink">
 <defs>
  <style type="text/css">
*{stroke-linecap:butt;stroke-linejoin:round;}
  </style>
 </defs>
 <g id="figure_1">
  <g id="patch_1">
   <path d="M 0 265.69625 
L 398.828125 265.69625 
L 398.828125 0 
L 0 0 
z
" style="fill:none;"/>
  </g>
  <g id="axes_1">
   <g id="patch_2">
    <path d="M 53.328125 228.14 
L 388.128125 228.14 
L 388.128125 10.7 
L 53.328125 10.7 
z
" style="fill:#ffffff;"/>
   </g>
   <g id="matplotlib.axis_1">
    <g id="xtick_1">
     <g id="line2d_1">
      <defs>
       <path d="M 0 0 
L 0 3.5 
" id="m5b146f2c98" style="stroke:#000000;stroke-width:0.8;"/>
      </defs>
      <g>
       <use style="stroke:#000000;stroke-width:0.8;" x="68.546307" xlink:href="#m5b146f2c98" y="228.14"/>
      </g>
     </g>
     <g id="text_1">
      <!-- 0 -->
      <defs>
       <path d="M 31.78125 66.40625 
Q 24.171875 66.40625 20.328125 58.90625 
Q 16.5 51.421875 16.5 36.375 
Q 16.5 21.390625 20.328125 13.890625 
Q 24.171875 6.390625 31.78125 6.390625 
Q 39.453125 6.390625 43.28125 13.890625 
Q 47.125 21.390625 47.125 36.375 
Q 47.125 51.421875 43.28125 58.90625 
Q 39.453125 66.40625 31.78125 66.40625 
z
M 31.78125 74.21875 
Q 44.046875 74.21875 50.515625 64.515625 
Q 56.984375 54.828125 56.984375 36.375 
Q 56.984375 17.96875 50.515625 8.265625 
Q 44.046875 -1.421875 31.78125 -1.421875 
Q 19.53125 -1.421875 13.0625 8.265625 
Q 6.59375 17.96875 6.59375 36.375 
Q 6.59375 54.828125 13.0625 64.515625 
Q 19.53125 74.21875 31.78125 74.21875 
z
" id="DejaVuSans-30"/>
      </defs>
      <g transform="translate(65.365057 242.738437)scale(0.1 -0.1)">
       <use xlink:href="#DejaVuSans-30"/>
      </g>
     </g>
    </g>
    <g id="xtick_2">
     <g id="line2d_2">
      <g>
       <use style="stroke:#000000;stroke-width:0.8;" x="136.94263" xlink:href="#m5b146f2c98" y="228.14"/>
      </g>
     </g>
     <g id="text_2">
      <!-- 20 -->
      <defs>
       <path d="M 19.1875 8.296875 
L 53.609375 8.296875 
L 53.609375 0 
L 7.328125 0 
L 7.328125 8.296875 
Q 12.9375 14.109375 22.625 23.890625 
Q 32.328125 33.6875 34.8125 36.53125 
Q 39.546875 41.84375 41.421875 45.53125 
Q 43.3125 49.21875 43.3125 52.78125 
Q 43.3125 58.59375 39.234375 62.25 
Q 35.15625 65.921875 28.609375 65.921875 
Q 23.96875 65.921875 18.8125 64.3125 
Q 13.671875 62.703125 7.8125 59.421875 
L 7.8125 69.390625 
Q 13.765625 71.78125 18.9375 73 
Q 24.125 74.21875 28.421875 74.21875 
Q 39.75 74.21875 46.484375 68.546875 
Q 53.21875 62.890625 53.21875 53.421875 
Q 53.21875 48.921875 51.53125 44.890625 
Q 49.859375 40.875 45.40625 35.40625 
Q 44.1875 33.984375 37.640625 27.21875 
Q 31.109375 20.453125 19.1875 8.296875 
z
" id="DejaVuSans-32"/>
      </defs>
      <g transform="translate(130.58013 242.738437)scale(0.1 -0.1)">
       <use xlink:href="#DejaVuSans-32"/>
       <use x="63.623047" xlink:href="#DejaVuSans-30"/>
      </g>
     </g>
    </g>
    <g id="xtick_3">
     <g id="line2d_3">
      <g>
       <use style="stroke:#000000;stroke-width:0.8;" x="205.338952" xlink:href="#m5b146f2c98" y="228.14"/>
      </g>
     </g>
     <g id="text_3">
      <!-- 40 -->
      <defs>
       <path d="M 37.796875 64.3125 
L 12.890625 25.390625 
L 37.796875 25.390625 
z
M 35.203125 72.90625 
L 47.609375 72.90625 
L 47.609375 25.390625 
L 58.015625 25.390625 
L 58.015625 17.1875 
L 47.609375 17.1875 
L 47.609375 0 
L 37.796875 0 
L 37.796875 17.1875 
L 4.890625 17.1875 
L 4.890625 26.703125 
z
" id="DejaVuSans-34"/>
      </defs>
      <g transform="translate(198.976452 242.738437)scale(0.1 -0.1)">
       <use xlink:href="#DejaVuSans-34"/>
       <use x="63.623047" xlink:href="#DejaVuSans-30"/>
      </g>
     </g>
    </g>
    <g id="xtick_4">
     <g id="line2d_4">
      <g>
       <use style="stroke:#000000;stroke-width:0.8;" x="273.735275" xlink:href="#m5b146f2c98" y="228.14"/>
      </g>
     </g>
     <g id="text_4">
      <!-- 60 -->
      <defs>
       <path d="M 33.015625 40.375 
Q 26.375 40.375 22.484375 35.828125 
Q 18.609375 31.296875 18.609375 23.390625 
Q 18.609375 15.53125 22.484375 10.953125 
Q 26.375 6.390625 33.015625 6.390625 
Q 39.65625 6.390625 43.53125 10.953125 
Q 47.40625 15.53125 47.40625 23.390625 
Q 47.40625 31.296875 43.53125 35.828125 
Q 39.65625 40.375 33.015625 40.375 
z
M 52.59375 71.296875 
L 52.59375 62.3125 
Q 48.875 64.0625 45.09375 64.984375 
Q 41.3125 65.921875 37.59375 65.921875 
Q 27.828125 65.921875 22.671875 59.328125 
Q 17.53125 52.734375 16.796875 39.40625 
Q 19.671875 43.65625 24.015625 45.921875 
Q 28.375 48.1875 33.59375 48.1875 
Q 44.578125 48.1875 50.953125 41.515625 
Q 57.328125 34.859375 57.328125 23.390625 
Q 57.328125 12.15625 50.6875 5.359375 
Q 44.046875 -1.421875 33.015625 -1.421875 
Q 20.359375 -1.421875 13.671875 8.265625 
Q 6.984375 17.96875 6.984375 36.375 
Q 6.984375 53.65625 15.1875 63.9375 
Q 23.390625 74.21875 37.203125 74.21875 
Q 40.921875 74.21875 44.703125 73.484375 
Q 48.484375 72.75 52.59375 71.296875 
z
" id="DejaVuSans-36"/>
      </defs>
      <g transform="translate(267.372775 242.738437)scale(0.1 -0.1)">
       <use xlink:href="#DejaVuSans-36"/>
       <use x="63.623047" xlink:href="#DejaVuSans-30"/>
      </g>
     </g>
    </g>
    <g id="xtick_5">
     <g id="line2d_5">
      <g>
       <use style="stroke:#000000;stroke-width:0.8;" x="342.131598" xlink:href="#m5b146f2c98" y="228.14"/>
      </g>
     </g>
     <g id="text_5">
      <!-- 80 -->
      <defs>
       <path d="M 31.78125 34.625 
Q 24.75 34.625 20.71875 30.859375 
Q 16.703125 27.09375 16.703125 20.515625 
Q 16.703125 13.921875 20.71875 10.15625 
Q 24.75 6.390625 31.78125 6.390625 
Q 38.8125 6.390625 42.859375 10.171875 
Q 46.921875 13.96875 46.921875 20.515625 
Q 46.921875 27.09375 42.890625 30.859375 
Q 38.875 34.625 31.78125 34.625 
z
M 21.921875 38.8125 
Q 15.578125 40.375 12.03125 44.71875 
Q 8.5 49.078125 8.5 55.328125 
Q 8.5 64.0625 14.71875 69.140625 
Q 20.953125 74.21875 31.78125 74.21875 
Q 42.671875 74.21875 48.875 69.140625 
Q 55.078125 64.0625 55.078125 55.328125 
Q 55.078125 49.078125 51.53125 44.71875 
Q 48 40.375 41.703125 38.8125 
Q 48.828125 37.15625 52.796875 32.3125 
Q 56.78125 27.484375 56.78125 20.515625 
Q 56.78125 9.90625 50.3125 4.234375 
Q 43.84375 -1.421875 31.78125 -1.421875 
Q 19.734375 -1.421875 13.25 4.234375 
Q 6.78125 9.90625 6.78125 20.515625 
Q 6.78125 27.484375 10.78125 32.3125 
Q 14.796875 37.15625 21.921875 38.8125 
z
M 18.3125 54.390625 
Q 18.3125 48.734375 21.84375 45.5625 
Q 25.390625 42.390625 31.78125 42.390625 
Q 38.140625 42.390625 41.71875 45.5625 
Q 45.3125 48.734375 45.3125 54.390625 
Q 45.3125 60.0625 41.71875 63.234375 
Q 38.140625 66.40625 31.78125 66.40625 
Q 25.390625 66.40625 21.84375 63.234375 
Q 18.3125 60.0625 18.3125 54.390625 
z
" id="DejaVuSans-38"/>
      </defs>
      <g transform="translate(335.769098 242.738437)scale(0.1 -0.1)">
       <use xlink:href="#DejaVuSans-38"/>
       <use x="63.623047" xlink:href="#DejaVuSans-30"/>
      </g>
     </g>
    </g>
    <g id="text_6">
     <!-- $Age$ -->
     <defs>
      <path d="M 36.8125 72.90625 
L 48 72.90625 
L 61.53125 0 
L 51.21875 0 
L 48.1875 18.703125 
L 15.375 18.703125 
L 5.078125 0 
L -5.328125 0 
z
M 40.375 63.1875 
L 19.921875 26.90625 
L 46.6875 26.90625 
z
" id="DejaVuSans-Oblique-41"/>
      <path d="M 59.625 54.6875 
L 50.296875 6.78125 
Q 47.609375 -7.125 40.015625 -13.953125 
Q 32.421875 -20.796875 19.578125 -20.796875 
Q 14.84375 -20.796875 10.78125 -20.09375 
Q 6.734375 -19.390625 3.21875 -17.921875 
L 4.890625 -9.1875 
Q 8.203125 -11.328125 11.90625 -12.34375 
Q 15.625 -13.375 19.828125 -13.375 
Q 28.375 -13.375 33.859375 -8.703125 
Q 39.359375 -4.046875 41.109375 4.6875 
L 41.890625 8.796875 
Q 38.140625 4.5 33.15625 2.25 
Q 28.171875 0 22.40625 0 
Q 14.109375 0 9.34375 5.484375 
Q 4.59375 10.984375 4.59375 20.609375 
Q 4.59375 28.171875 7.46875 35.421875 
Q 10.359375 42.671875 15.578125 48.296875 
Q 19.046875 52 23.65625 54 
Q 28.265625 56 33.296875 56 
Q 38.8125 56 42.90625 53.4375 
Q 47.015625 50.875 49.03125 46.1875 
L 50.59375 54.6875 
z
M 46.09375 34.625 
Q 46.09375 41.265625 42.96875 44.875 
Q 39.84375 48.484375 34.078125 48.484375 
Q 30.515625 48.484375 27.296875 47.0625 
Q 24.078125 45.65625 21.78125 43.109375 
Q 18.0625 38.921875 15.984375 33.234375 
Q 13.921875 27.546875 13.921875 21.484375 
Q 13.921875 14.75 17.0625 11.125 
Q 20.21875 7.515625 26.125 7.515625 
Q 34.671875 7.515625 40.375 15.25 
Q 46.09375 23 46.09375 34.625 
z
" id="DejaVuSans-Oblique-67"/>
      <path d="M 48.09375 32.234375 
Q 48.25 33.015625 48.3125 33.84375 
Q 48.390625 34.671875 48.390625 35.5 
Q 48.390625 41.453125 44.890625 44.921875 
Q 41.40625 48.390625 35.40625 48.390625 
Q 28.71875 48.390625 23.578125 44.15625 
Q 18.453125 39.9375 15.828125 32.171875 
z
M 55.90625 25.203125 
L 14.109375 25.203125 
Q 13.8125 23.34375 13.71875 22.265625 
Q 13.625 21.1875 13.625 20.40625 
Q 13.625 13.625 17.796875 9.90625 
Q 21.96875 6.203125 29.59375 6.203125 
Q 35.453125 6.203125 40.671875 7.515625 
Q 45.90625 8.84375 50.390625 11.375 
L 48.6875 2.484375 
Q 43.84375 0.53125 38.6875 -0.4375 
Q 33.546875 -1.421875 28.21875 -1.421875 
Q 16.84375 -1.421875 10.71875 4.015625 
Q 4.59375 9.46875 4.59375 19.484375 
Q 4.59375 28.03125 7.640625 35.375 
Q 10.6875 42.71875 16.609375 48.484375 
Q 20.40625 52.09375 25.65625 54.046875 
Q 30.90625 56 36.8125 56 
Q 46.09375 56 51.578125 50.4375 
Q 57.078125 44.875 57.078125 35.5 
Q 57.078125 33.25 56.78125 30.6875 
Q 56.5 28.125 55.90625 25.203125 
z
" id="DejaVuSans-Oblique-65"/>
     </defs>
     <g transform="translate(211.028125 256.39625)scale(0.1 -0.1)">
      <use transform="translate(0 0.09375)" xlink:href="#DejaVuSans-Oblique-41"/>
      <use transform="translate(68.408203 0.09375)" xlink:href="#DejaVuSans-Oblique-67"/>
      <use transform="translate(131.884766 0.09375)" xlink:href="#DejaVuSans-Oblique-65"/>
     </g>
    </g>
   </g>
   <g id="matplotlib.axis_2">
    <g id="ytick_1">
     <g id="line2d_6">
      <defs>
       <path d="M 0 0 
L -3.5 0 
" id="m0eda9be163" style="stroke:#000000;stroke-width:0.8;"/>
      </defs>
      <g>
       <use style="stroke:#000000;stroke-width:0.8;" x="53.328125" xlink:href="#m0eda9be163" y="218.256364"/>
      </g>
     </g>
     <g id="text_7">
      <!-- 0 -->
      <g transform="translate(39.965625 222.055582)scale(0.1 -0.1)">
       <use xlink:href="#DejaVuSans-30"/>
      </g>
     </g>
    </g>
    <g id="ytick_2">
     <g id="line2d_7">
      <g>
       <use style="stroke:#000000;stroke-width:0.8;" x="53.328125" xlink:href="#m0eda9be163" y="190.379798"/>
      </g>
     </g>
     <g id="text_8">
      <!-- 1000 -->
      <defs>
       <path d="M 12.40625 8.296875 
L 28.515625 8.296875 
L 28.515625 63.921875 
L 10.984375 60.40625 
L 10.984375 69.390625 
L 28.421875 72.90625 
L 38.28125 72.90625 
L 38.28125 8.296875 
L 54.390625 8.296875 
L 54.390625 0 
L 12.40625 0 
z
" id="DejaVuSans-31"/>
      </defs>
      <g transform="translate(20.878125 194.179017)scale(0.1 -0.1)">
       <use xlink:href="#DejaVuSans-31"/>
       <use x="63.623047" xlink:href="#DejaVuSans-30"/>
       <use x="127.246094" xlink:href="#DejaVuSans-30"/>
       <use x="190.869141" xlink:href="#DejaVuSans-30"/>
      </g>
     </g>
    </g>
    <g id="ytick_3">
     <g id="line2d_8">
      <g>
       <use style="stroke:#000000;stroke-width:0.8;" x="53.328125" xlink:href="#m0eda9be163" y="162.503232"/>
      </g>
     </g>
     <g id="text_9">
      <!-- 2000 -->
      <g transform="translate(20.878125 166.302451)scale(0.1 -0.1)">
       <use xlink:href="#DejaVuSans-32"/>
       <use x="63.623047" xlink:href="#DejaVuSans-30"/>
       <use x="127.246094" xlink:href="#DejaVuSans-30"/>
       <use x="190.869141" xlink:href="#DejaVuSans-30"/>
      </g>
     </g>
    </g>
    <g id="ytick_4">
     <g id="line2d_9">
      <g>
       <use style="stroke:#000000;stroke-width:0.8;" x="53.328125" xlink:href="#m0eda9be163" y="134.626667"/>
      </g>
     </g>
     <g id="text_10">
      <!-- 3000 -->
      <defs>
       <path d="M 40.578125 39.3125 
Q 47.65625 37.796875 51.625 33 
Q 55.609375 28.21875 55.609375 21.1875 
Q 55.609375 10.40625 48.1875 4.484375 
Q 40.765625 -1.421875 27.09375 -1.421875 
Q 22.515625 -1.421875 17.65625 -0.515625 
Q 12.796875 0.390625 7.625 2.203125 
L 7.625 11.71875 
Q 11.71875 9.328125 16.59375 8.109375 
Q 21.484375 6.890625 26.8125 6.890625 
Q 36.078125 6.890625 40.9375 10.546875 
Q 45.796875 14.203125 45.796875 21.1875 
Q 45.796875 27.640625 41.28125 31.265625 
Q 36.765625 34.90625 28.71875 34.90625 
L 20.21875 34.90625 
L 20.21875 43.015625 
L 29.109375 43.015625 
Q 36.375 43.015625 40.234375 45.921875 
Q 44.09375 48.828125 44.09375 54.296875 
Q 44.09375 59.90625 40.109375 62.90625 
Q 36.140625 65.921875 28.71875 65.921875 
Q 24.65625 65.921875 20.015625 65.03125 
Q 15.375 64.15625 9.8125 62.3125 
L 9.8125 71.09375 
Q 15.4375 72.65625 20.34375 73.4375 
Q 25.25 74.21875 29.59375 74.21875 
Q 40.828125 74.21875 47.359375 69.109375 
Q 53.90625 64.015625 53.90625 55.328125 
Q 53.90625 49.265625 50.4375 45.09375 
Q 46.96875 40.921875 40.578125 39.3125 
z
" id="DejaVuSans-33"/>
      </defs>
      <g transform="translate(20.878125 138.425885)scale(0.1 -0.1)">
       <use xlink:href="#DejaVuSans-33"/>
       <use x="63.623047" xlink:href="#DejaVuSans-30"/>
       <use x="127.246094" xlink:href="#DejaVuSans-30"/>
       <use x="190.869141" xlink:href="#DejaVuSans-30"/>
      </g>
     </g>
    </g>
    <g id="ytick_5">
     <g id="line2d_10">
      <g>
       <use style="stroke:#000000;stroke-width:0.8;" x="53.328125" xlink:href="#m0eda9be163" y="106.750101"/>
      </g>
     </g>
     <g id="text_11">
      <!-- 4000 -->
      <g transform="translate(20.878125 110.54932)scale(0.1 -0.1)">
       <use xlink:href="#DejaVuSans-34"/>
       <use x="63.623047" xlink:href="#DejaVuSans-30"/>
       <use x="127.246094" xlink:href="#DejaVuSans-30"/>
       <use x="190.869141" xlink:href="#DejaVuSans-30"/>
      </g>
     </g>
    </g>
    <g id="ytick_6">
     <g id="line2d_11">
      <g>
       <use style="stroke:#000000;stroke-width:0.8;" x="53.328125" xlink:href="#m0eda9be163" y="78.873535"/>
      </g>
     </g>
     <g id="text_12">
      <!-- 5000 -->
      <defs>
       <path d="M 10.796875 72.90625 
L 49.515625 72.90625 
L 49.515625 64.59375 
L 19.828125 64.59375 
L 19.828125 46.734375 
Q 21.96875 47.46875 24.109375 47.828125 
Q 26.265625 48.1875 28.421875 48.1875 
Q 40.625 48.1875 47.75 41.5 
Q 54.890625 34.8125 54.890625 23.390625 
Q 54.890625 11.625 47.5625 5.09375 
Q 40.234375 -1.421875 26.90625 -1.421875 
Q 22.3125 -1.421875 17.546875 -0.640625 
Q 12.796875 0.140625 7.71875 1.703125 
L 7.71875 11.625 
Q 12.109375 9.234375 16.796875 8.0625 
Q 21.484375 6.890625 26.703125 6.890625 
Q 35.15625 6.890625 40.078125 11.328125 
Q 45.015625 15.765625 45.015625 23.390625 
Q 45.015625 31 40.078125 35.4375 
Q 35.15625 39.890625 26.703125 39.890625 
Q 22.75 39.890625 18.8125 39.015625 
Q 14.890625 38.140625 10.796875 36.28125 
z
" id="DejaVuSans-35"/>
      </defs>
      <g transform="translate(20.878125 82.672754)scale(0.1 -0.1)">
       <use xlink:href="#DejaVuSans-35"/>
       <use x="63.623047" xlink:href="#DejaVuSans-30"/>
       <use x="127.246094" xlink:href="#DejaVuSans-30"/>
       <use x="190.869141" xlink:href="#DejaVuSans-30"/>
      </g>
     </g>
    </g>
    <g id="ytick_7">
     <g id="line2d_12">
      <g>
       <use style="stroke:#000000;stroke-width:0.8;" x="53.328125" xlink:href="#m0eda9be163" y="50.99697"/>
      </g>
     </g>
     <g id="text_13">
      <!-- 6000 -->
      <g transform="translate(20.878125 54.796188)scale(0.1 -0.1)">
       <use xlink:href="#DejaVuSans-36"/>
       <use x="63.623047" xlink:href="#DejaVuSans-30"/>
       <use x="127.246094" xlink:href="#DejaVuSans-30"/>
       <use x="190.869141" xlink:href="#DejaVuSans-30"/>
      </g>
     </g>
    </g>
    <g id="ytick_8">
     <g id="line2d_13">
      <g>
       <use style="stroke:#000000;stroke-width:0.8;" x="53.328125" xlink:href="#m0eda9be163" y="23.120404"/>
      </g>
     </g>
     <g id="text_14">
      <!-- 7000 -->
      <defs>
       <path d="M 8.203125 72.90625 
L 55.078125 72.90625 
L 55.078125 68.703125 
L 28.609375 0 
L 18.3125 0 
L 43.21875 64.59375 
L 8.203125 64.59375 
z
" id="DejaVuSans-37"/>
      </defs>
      <g transform="translate(20.878125 26.919623)scale(0.1 -0.1)">
       <use xlink:href="#DejaVuSans-37"/>
       <use x="63.623047" xlink:href="#DejaVuSans-30"/>
       <use x="127.246094" xlink:href="#DejaVuSans-30"/>
       <use x="190.869141" xlink:href="#DejaVuSans-30"/>
      </g>
     </g>
    </g>
    <g id="text_15">
     <!-- $Cumulative\ incidence$ -->
     <defs>
      <path d="M 69.484375 67.28125 
L 67.484375 56.890625 
Q 62.796875 61.625 57.546875 63.921875 
Q 52.296875 66.21875 46.1875 66.21875 
Q 37.84375 66.21875 31.515625 62.203125 
Q 25.203125 58.203125 20.609375 50 
Q 17.671875 44.734375 16.125 38.84375 
Q 14.59375 32.953125 14.59375 27 
Q 14.59375 17.046875 19.75 11.8125 
Q 24.90625 6.59375 34.71875 6.59375 
Q 41.5 6.59375 47.75 8.765625 
Q 54 10.9375 59.90625 15.28125 
L 57.625 3.609375 
Q 51.8125 1.125 45.875 -0.140625 
Q 39.9375 -1.421875 33.984375 -1.421875 
Q 19.96875 -1.421875 12.078125 6.1875 
Q 4.203125 13.8125 4.203125 27.390625 
Q 4.203125 36.078125 7.203125 44.46875 
Q 10.203125 52.875 15.828125 59.8125 
Q 21.78125 67.1875 29.421875 70.703125 
Q 37.0625 74.21875 47.21875 74.21875 
Q 53.46875 74.21875 59.0625 72.484375 
Q 64.65625 70.75 69.484375 67.28125 
z
" id="DejaVuSans-Oblique-43"/>
      <path d="M 6.6875 21.6875 
L 13.09375 54.6875 
L 22.125 54.6875 
L 15.71875 22.015625 
Q 15.234375 19.625 15.015625 17.921875 
Q 14.796875 16.21875 14.796875 15.09375 
Q 14.796875 10.9375 17.328125 8.65625 
Q 19.875 6.390625 24.515625 6.390625 
Q 31.734375 6.390625 37 11.265625 
Q 42.28125 16.15625 43.890625 24.421875 
L 49.90625 54.6875 
L 58.890625 54.6875 
L 48.296875 0 
L 39.3125 0 
L 41.109375 8.59375 
Q 37.3125 3.8125 32.0625 1.1875 
Q 26.8125 -1.421875 20.90625 -1.421875 
Q 13.71875 -1.421875 9.71875 2.515625 
Q 5.71875 6.453125 5.71875 13.484375 
Q 5.71875 14.9375 5.953125 17.140625 
Q 6.203125 19.34375 6.6875 21.6875 
z
" id="DejaVuSans-Oblique-75"/>
      <path d="M 89.796875 33.015625 
L 83.40625 0 
L 74.421875 0 
L 80.71875 32.71875 
Q 81.109375 34.8125 81.296875 36.328125 
Q 81.5 37.84375 81.5 38.921875 
Q 81.5 43.3125 79.046875 45.75 
Q 76.609375 48.1875 72.21875 48.1875 
Q 65.671875 48.1875 60.546875 43.28125 
Q 55.421875 38.375 53.90625 30.515625 
L 47.90625 0 
L 38.921875 0 
L 45.3125 32.71875 
Q 45.703125 34.515625 45.890625 36.046875 
Q 46.09375 37.59375 46.09375 38.8125 
Q 46.09375 43.265625 43.65625 45.71875 
Q 41.21875 48.1875 36.921875 48.1875 
Q 30.28125 48.1875 25.140625 43.28125 
Q 20.015625 38.375 18.5 30.515625 
L 12.5 0 
L 3.515625 0 
L 14.203125 54.6875 
L 23.1875 54.6875 
L 21.484375 46.1875 
Q 25.140625 50.984375 30.046875 53.484375 
Q 34.96875 56 40.578125 56 
Q 46.53125 56 50.359375 52.875 
Q 54.203125 49.75 54.984375 44.1875 
Q 59.078125 49.953125 64.46875 52.96875 
Q 69.875 56 75.875 56 
Q 82.90625 56 86.734375 51.953125 
Q 90.578125 47.90625 90.578125 40.484375 
Q 90.578125 38.875 90.375 36.9375 
Q 90.1875 35.015625 89.796875 33.015625 
z
" id="DejaVuSans-Oblique-6d"/>
      <path d="M 18.3125 75.984375 
L 27.296875 75.984375 
L 12.5 0 
L 3.515625 0 
z
" id="DejaVuSans-Oblique-6c"/>
      <path d="M 53.71875 31.203125 
L 47.609375 0 
L 38.625 0 
L 40.28125 8.296875 
Q 36.328125 3.421875 31.265625 1 
Q 26.21875 -1.421875 20.015625 -1.421875 
Q 13.03125 -1.421875 8.5625 2.84375 
Q 4.109375 7.125 4.109375 13.8125 
Q 4.109375 23.390625 11.75 28.953125 
Q 19.390625 34.515625 32.8125 34.515625 
L 45.3125 34.515625 
L 45.796875 36.921875 
Q 45.90625 37.3125 45.953125 37.765625 
Q 46 38.234375 46 39.203125 
Q 46 43.5625 42.453125 45.96875 
Q 38.921875 48.390625 32.515625 48.390625 
Q 28.125 48.390625 23.5 47.265625 
Q 18.890625 46.140625 14.015625 43.890625 
L 15.578125 52.203125 
Q 20.65625 54.109375 25.515625 55.046875 
Q 30.375 56 34.90625 56 
Q 44.578125 56 49.625 51.796875 
Q 54.6875 47.609375 54.6875 39.59375 
Q 54.6875 37.984375 54.4375 35.8125 
Q 54.203125 33.640625 53.71875 31.203125 
z
M 44 27.484375 
L 35.015625 27.484375 
Q 23.96875 27.484375 18.671875 24.53125 
Q 13.375 21.578125 13.375 15.375 
Q 13.375 11.078125 16.078125 8.640625 
Q 18.796875 6.203125 23.578125 6.203125 
Q 30.90625 6.203125 36.375 11.453125 
Q 41.84375 16.703125 43.609375 25.484375 
z
" id="DejaVuSans-Oblique-61"/>
      <path d="M 42.28125 54.6875 
L 40.921875 47.703125 
L 23 47.703125 
L 17.1875 18.015625 
Q 16.890625 16.359375 16.75 15.234375 
Q 16.609375 14.109375 16.609375 13.484375 
Q 16.609375 10.359375 18.484375 8.9375 
Q 20.359375 7.515625 24.515625 7.515625 
L 33.59375 7.515625 
L 32.078125 0 
L 23.484375 0 
Q 15.484375 0 11.546875 3.125 
Q 7.625 6.25 7.625 12.59375 
Q 7.625 13.71875 7.765625 15.0625 
Q 7.90625 16.40625 8.203125 18.015625 
L 14.015625 47.703125 
L 6.390625 47.703125 
L 7.8125 54.6875 
L 15.28125 54.6875 
L 18.3125 70.21875 
L 27.296875 70.21875 
L 24.3125 54.6875 
z
" id="DejaVuSans-Oblique-74"/>
      <path d="M 18.3125 75.984375 
L 27.296875 75.984375 
L 25.09375 64.59375 
L 16.109375 64.59375 
z
M 14.203125 54.6875 
L 23.1875 54.6875 
L 12.5 0 
L 3.515625 0 
z
" id="DejaVuSans-Oblique-69"/>
      <path d="M 7.171875 54.6875 
L 16.703125 54.6875 
L 24.703125 8.203125 
L 50.875 54.6875 
L 60.40625 54.6875 
L 29.296875 0 
L 17.1875 0 
z
" id="DejaVuSans-Oblique-76"/>
      <path d="M 55.71875 33.015625 
L 49.3125 0 
L 40.28125 0 
L 46.6875 32.671875 
Q 47.125 34.96875 47.359375 36.71875 
Q 47.609375 38.484375 47.609375 39.5 
Q 47.609375 43.609375 45.015625 45.890625 
Q 42.4375 48.1875 37.796875 48.1875 
Q 30.5625 48.1875 25.34375 43.375 
Q 20.125 38.578125 18.5 30.328125 
L 12.5 0 
L 3.515625 0 
L 14.109375 54.6875 
L 23.09375 54.6875 
L 21.296875 46.09375 
Q 25.046875 50.828125 30.3125 53.40625 
Q 35.59375 56 41.40625 56 
Q 48.640625 56 52.609375 52.09375 
Q 56.59375 48.1875 56.59375 41.109375 
Q 56.59375 39.359375 56.375 37.359375 
Q 56.15625 35.359375 55.71875 33.015625 
z
" id="DejaVuSans-Oblique-6e"/>
      <path d="M 53.609375 52.59375 
L 51.8125 43.703125 
Q 48.578125 46.046875 44.9375 47.21875 
Q 41.3125 48.390625 37.40625 48.390625 
Q 33.109375 48.390625 29.21875 46.875 
Q 25.34375 45.359375 22.703125 42.578125 
Q 18.5 38.328125 16.203125 32.609375 
Q 13.921875 26.90625 13.921875 20.796875 
Q 13.921875 13.421875 17.609375 9.8125 
Q 21.296875 6.203125 28.8125 6.203125 
Q 32.515625 6.203125 36.6875 7.328125 
Q 40.875 8.453125 45.40625 10.6875 
L 43.703125 1.8125 
Q 39.796875 0.203125 35.671875 -0.609375 
Q 31.546875 -1.421875 27.203125 -1.421875 
Q 16.3125 -1.421875 10.453125 4.015625 
Q 4.59375 9.46875 4.59375 19.578125 
Q 4.59375 28.078125 7.640625 35.234375 
Q 10.6875 42.390625 16.703125 48.09375 
Q 20.796875 52 26.3125 54 
Q 31.84375 56 38.375 56 
Q 42.1875 56 45.9375 55.140625 
Q 49.703125 54.296875 53.609375 52.59375 
z
" id="DejaVuSans-Oblique-63"/>
      <path d="M 41.796875 8.203125 
Q 38.1875 3.46875 33.25 1.015625 
Q 28.328125 -1.421875 22.3125 -1.421875 
Q 14.109375 -1.421875 9.34375 4.171875 
Q 4.59375 9.765625 4.59375 19.484375 
Q 4.59375 27.59375 7.46875 34.9375 
Q 10.359375 42.28125 15.828125 48.09375 
Q 19.4375 51.953125 23.96875 53.96875 
Q 28.515625 56 33.5 56 
Q 38.765625 56 42.796875 53.453125 
Q 46.828125 50.921875 49.03125 46.1875 
L 54.890625 75.984375 
L 63.921875 75.984375 
L 49.125 0 
L 40.09375 0 
z
M 13.921875 21.09375 
Q 13.921875 14.015625 17.109375 10.0625 
Q 20.3125 6.109375 25.984375 6.109375 
Q 30.171875 6.109375 33.765625 8.125 
Q 37.359375 10.15625 40.09375 14.109375 
Q 42.96875 18.21875 44.625 23.578125 
Q 46.296875 28.953125 46.296875 34.1875 
Q 46.296875 40.96875 43.09375 44.765625 
Q 39.890625 48.578125 34.28125 48.578125 
Q 30.03125 48.578125 26.359375 46.578125 
Q 22.703125 44.578125 20.125 40.828125 
Q 17.28125 36.765625 15.59375 31.390625 
Q 13.921875 26.03125 13.921875 21.09375 
z
" id="DejaVuSans-Oblique-64"/>
     </defs>
     <g transform="translate(14.798438 173.57)rotate(-90)scale(0.1 -0.1)">
      <use transform="translate(0 0.015625)" xlink:href="#DejaVuSans-Oblique-43"/>
      <use transform="translate(69.824219 0.015625)" xlink:href="#DejaVuSans-Oblique-75"/>
      <use transform="translate(133.203125 0.015625)" xlink:href="#DejaVuSans-Oblique-6d"/>
      <use transform="translate(230.615234 0.015625)" xlink:href="#DejaVuSans-Oblique-75"/>
      <use transform="translate(293.994141 0.015625)" xlink:href="#DejaVuSans-Oblique-6c"/>
      <use transform="translate(321.777344 0.015625)" xlink:href="#DejaVuSans-Oblique-61"/>
      <use transform="translate(383.056641 0.015625)" xlink:href="#DejaVuSans-Oblique-74"/>
      <use transform="translate(422.265625 0.015625)" xlink:href="#DejaVuSans-Oblique-69"/>
      <use transform="translate(450.048828 0.015625)" xlink:href="#DejaVuSans-Oblique-76"/>
      <use transform="translate(509.228516 0.015625)" xlink:href="#DejaVuSans-Oblique-65"/>
      <use transform="translate(603.222332 0.015625)" xlink:href="#DejaVuSans-Oblique-69"/>
      <use transform="translate(631.005535 0.015625)" xlink:href="#DejaVuSans-Oblique-6e"/>
      <use transform="translate(694.384441 0.015625)" xlink:href="#DejaVuSans-Oblique-63"/>
      <use transform="translate(749.36491 0.015625)" xlink:href="#DejaVuSans-Oblique-69"/>
      <use transform="translate(777.148113 0.015625)" xlink:href="#DejaVuSans-Oblique-64"/>
      <use transform="translate(840.624675 0.015625)" xlink:href="#DejaVuSans-Oblique-65"/>
      <use transform="translate(902.148113 0.015625)" xlink:href="#DejaVuSans-Oblique-6e"/>
      <use transform="translate(965.527019 0.015625)" xlink:href="#DejaVuSans-Oblique-63"/>
      <use transform="translate(1020.507488 0.015625)" xlink:href="#DejaVuSans-Oblique-65"/>
     </g>
    </g>
   </g>
   <g id="line2d_14">
    <path clip-path="url(#pfb32f147f7)" d="M 68.546307 218.256364 
L 71.966123 218.256364 
L 75.385939 218.256364 
L 78.805755 218.256364 
L 82.225571 218.256364 
L 85.645388 218.256364 
L 89.065204 218.256364 
L 92.48502 218.256364 
L 95.904836 218.256364 
L 99.324652 218.256364 
L 102.744468 218.256364 
L 106.164284 218.256364 
L 109.5841 218.256364 
L 113.003917 218.256364 
L 116.423733 218.256364 
L 119.843549 218.256364 
L 123.263365 218.256364 
L 126.683181 218.256364 
L 130.102997 218.256364 
L 133.522813 218.256364 
L 136.94263 218.256364 
L 140.362446 218.256364 
L 143.782262 218.256364 
L 147.202078 218.256364 
L 150.621894 218.256364 
L 154.04171 218.256364 
L 157.461526 218.256364 
L 160.881343 218.256364 
L 164.301159 218.256364 
L 167.720975 218.256364 
L 171.140791 218.256364 
L 174.560607 218.256364 
L 177.980423 218.256364 
L 181.400239 218.256364 
L 184.820056 218.256364 
L 188.239872 218.256364 
L 191.659688 218.256364 
L 195.079504 218.256364 
L 198.49932 218.256364 
L 201.919136 218.256364 
L 205.338952 218.256364 
L 208.758769 218.256364 
L 212.178585 218.256364 
L 215.598401 218.256364 
L 219.018217 218.256364 
L 222.438033 218.256364 
L 225.857849 218.256364 
L 229.277665 218.256364 
L 232.697481 218.256364 
L 236.117298 218.256364 
L 239.537114 218.256364 
L 242.95693 218.256364 
L 246.376746 218.256364 
L 249.796562 218.256364 
L 253.216378 218.256364 
L 256.636194 218.256364 
L 260.056011 218.256364 
L 263.475827 218.256364 
L 266.895643 218.256364 
L 270.315459 218.256364 
L 273.735275 218.256364 
L 277.155091 218.256364 
L 280.574907 218.256364 
L 283.994724 218.256364 
L 287.41454 218.256364 
L 290.834356 218.256364 
L 294.254172 218.256364 
L 297.673988 218.256364 
L 301.093804 218.256364 
L 304.51362 218.256364 
L 307.933437 218.256364 
L 311.353253 218.256364 
L 314.773069 218.256364 
L 318.192885 218.256364 
L 321.612701 218.256364 
L 325.032517 218.256364 
L 328.452333 218.256364 
L 331.87215 218.256364 
L 335.291966 218.256364 
L 338.711782 218.256364 
L 342.131598 218.256364 
L 345.551414 218.256364 
L 348.97123 218.256364 
L 352.391046 218.256364 
L 355.810862 218.256364 
L 359.230679 218.256364 
L 362.650495 218.256364 
L 366.070311 218.256364 
L 369.490127 218.256364 
L 372.909943 218.256364 
" style="fill:none;stroke:#1f77b4;stroke-linecap:square;stroke-width:1.5;"/>
   </g>
   <g id="line2d_15">
    <path clip-path="url(#pfb32f147f7)" d="M 68.546307 218.256364 
L 71.966123 218.256364 
L 75.385939 218.256364 
L 78.805755 218.256364 
L 82.225571 218.256364 
L 85.645388 218.256364 
L 89.065204 218.256364 
L 92.48502 218.256364 
L 95.904836 218.256364 
L 99.324652 218.256364 
L 102.744468 218.256364 
L 106.164284 218.256364 
L 109.5841 218.256364 
L 113.003917 218.256364 
L 116.423733 218.256364 
L 119.843549 218.256364 
L 123.263365 218.256364 
L 126.683181 218.256364 
L 130.102997 218.256364 
L 133.522813 218.256364 
L 136.94263 218.256364 
L 140.362446 218.256364 
L 143.782262 218.256364 
L 147.202078 218.256364 
L 150.621894 218.256364 
L 154.04171 218.256364 
L 157.461526 218.256364 
L 160.881343 218.256364 
L 164.301159 218.256364 
L 167.720975 218.256364 
L 171.140791 218.256364 
L 174.560607 218.256364 
L 177.980423 218.256364 
L 181.400239 218.256364 
L 184.820056 218.256364 
L 188.239872 218.256364 
L 191.659688 218.256364 
L 195.079504 218.256364 
L 198.49932 218.256364 
L 201.919136 218.256364 
L 205.338952 218.256364 
L 208.758769 218.256364 
L 212.178585 218.256364 
L 215.598401 218.256364 
L 219.018217 218.256364 
L 222.438033 218.256364 
L 225.857849 218.256364 
L 229.277665 218.256364 
L 232.697481 218.256364 
L 236.117298 218.256364 
L 239.537114 218.256364 
L 242.95693 218.256364 
L 246.376746 218.256364 
L 249.796562 218.256364 
L 253.216378 218.256364 
L 256.636194 218.256364 
L 260.056011 218.256364 
L 263.475827 218.256364 
L 266.895643 218.256364 
L 270.315459 218.256364 
L 273.735275 218.256364 
L 277.155091 218.256364 
L 280.574907 218.256364 
L 283.994724 218.256364 
L 287.41454 218.256364 
L 290.834356 218.256364 
L 294.254172 218.256364 
L 297.673988 218.256364 
L 301.093804 218.256364 
L 304.51362 218.256364 
L 307.933437 218.256364 
L 311.353253 218.256364 
L 314.773069 218.256364 
L 318.192885 218.256364 
L 321.612701 218.256364 
L 325.032517 218.256364 
L 328.452333 218.256364 
L 331.87215 218.256364 
L 335.291966 218.256364 
L 338.711782 218.256364 
L 342.131598 218.256364 
L 345.551414 218.256364 
L 348.97123 218.256364 
L 352.391046 218.256364 
L 355.810862 218.256364 
L 359.230679 218.256364 
L 362.650495 218.256364 
L 366.070311 218.256364 
L 369.490127 218.256364 
L 372.909943 218.256364 
" style="fill:none;stroke:#ff7f0e;stroke-linecap:square;stroke-width:1.5;"/>
   </g>
   <g id="line2d_16">
    <path clip-path="url(#pfb32f147f7)" d="M 68.546307 218.256364 
L 71.966123 218.256364 
L 75.385939 218.256364 
L 78.805755 218.256364 
L 82.225571 218.256364 
L 85.645388 218.256364 
L 89.065204 218.256364 
L 92.48502 218.256364 
L 95.904836 218.256364 
L 99.324652 218.256364 
L 102.744468 218.256364 
L 106.164284 218.256364 
L 109.5841 218.256364 
L 113.003917 218.256364 
L 116.423733 218.256364 
L 119.843549 218.256364 
L 123.263365 218.256364 
L 126.683181 218.256364 
L 130.102997 218.256364 
L 133.522813 218.256364 
L 136.94263 218.256364 
L 140.362446 218.256364 
L 143.782262 218.256364 
L 147.202078 218.256364 
L 150.621894 218.256364 
L 154.04171 218.256364 
L 157.461526 218.256364 
L 160.881343 218.256364 
L 164.301159 218.256364 
L 167.720975 218.256364 
L 171.140791 218.256364 
L 174.560607 218.256364 
L 177.980423 218.256364 
L 181.400239 218.256364 
L 184.820056 218.256364 
L 188.239872 218.256364 
L 191.659688 218.256364 
L 195.079504 218.256364 
L 198.49932 218.256364 
L 201.919136 218.256364 
L 205.338952 218.256364 
L 208.758769 218.256364 
L 212.178585 218.256364 
L 215.598401 218.256364 
L 219.018217 218.256364 
L 222.438033 218.256364 
L 225.857849 218.256364 
L 229.277665 218.256364 
L 232.697481 218.256364 
L 236.117298 218.256364 
L 239.537114 218.256364 
L 242.95693 218.256364 
L 246.376746 218.256364 
L 249.796562 218.256364 
L 253.216378 218.256364 
L 256.636194 218.256364 
L 260.056011 218.256364 
L 263.475827 218.256364 
L 266.895643 218.256364 
L 270.315459 218.256364 
L 273.735275 218.256364 
L 277.155091 218.256364 
L 280.574907 218.256364 
L 283.994724 218.256364 
L 287.41454 218.256364 
L 290.834356 218.256364 
L 294.254172 218.256364 
L 297.673988 218.256364 
L 301.093804 218.256364 
L 304.51362 218.256364 
L 307.933437 218.256364 
L 311.353253 218.256364 
L 314.773069 218.256364 
L 318.192885 218.256364 
L 321.612701 218.256364 
L 325.032517 218.256364 
L 328.452333 218.256364 
L 331.87215 218.256364 
L 335.291966 218.256364 
L 338.711782 218.256364 
L 342.131598 218.256364 
L 345.551414 218.256364 
L 348.97123 218.256364 
L 352.391046 218.256364 
L 355.810862 218.256364 
L 359.230679 218.256364 
L 362.650495 218.256364 
L 366.070311 218.256364 
L 369.490127 218.256364 
L 372.909943 218.256364 
" style="fill:none;stroke:#2ca02c;stroke-linecap:square;stroke-width:1.5;"/>
   </g>
   <g id="line2d_17">
    <path clip-path="url(#pfb32f147f7)" d="M 68.546307 218.256364 
L 71.966123 218.256364 
L 75.385939 218.256364 
L 78.805755 218.256364 
L 82.225571 218.256364 
L 85.645388 218.256364 
L 89.065204 218.256364 
L 92.48502 218.256364 
L 95.904836 218.256364 
L 99.324652 218.256364 
L 102.744468 218.256364 
L 106.164284 218.256364 
L 109.5841 218.256364 
L 113.003917 218.256364 
L 116.423733 218.256364 
L 119.843549 218.256364 
L 123.263365 218.256364 
L 126.683181 218.256364 
L 130.102997 218.256364 
L 133.522813 218.256364 
L 136.94263 218.256364 
L 140.362446 218.256364 
L 143.782262 218.256364 
L 147.202078 218.256364 
L 150.621894 218.256364 
L 154.04171 218.256364 
L 157.461526 218.256364 
L 160.881343 218.256364 
L 164.301159 218.256364 
L 167.720975 218.256364 
L 171.140791 218.256364 
L 174.560607 218.256364 
L 177.980423 218.256364 
L 181.400239 218.256364 
L 184.820056 218.256364 
L 188.239872 218.256364 
L 191.659688 218.256364 
L 195.079504 218.256364 
L 198.49932 218.256364 
L 201.919136 218.256364 
L 205.338952 218.256364 
L 208.758769 218.256364 
L 212.178585 218.256364 
L 215.598401 218.256364 
L 219.018217 218.256364 
L 222.438033 218.256364 
L 225.857849 218.256364 
L 229.277665 218.256364 
L 232.697481 218.256364 
L 236.117298 218.256364 
L 239.537114 218.256364 
L 242.95693 218.256364 
L 246.376746 218.256364 
L 249.796562 218.256364 
L 253.216378 218.256364 
L 256.636194 218.256364 
L 260.056011 218.256364 
L 263.475827 218.256364 
L 266.895643 218.256364 
L 270.315459 218.256364 
L 273.735275 218.256364 
L 277.155091 218.256364 
L 280.574907 218.256364 
L 283.994724 218.256364 
L 287.41454 218.256364 
L 290.834356 218.256364 
L 294.254172 218.256364 
L 297.673988 218.256364 
L 301.093804 218.256364 
L 304.51362 218.256364 
L 307.933437 218.256364 
L 311.353253 218.256364 
L 314.773069 218.256364 
L 318.192885 218.256364 
L 321.612701 218.256364 
L 325.032517 218.256364 
L 328.452333 218.256364 
L 331.87215 218.256364 
L 335.291966 218.256364 
L 338.711782 218.256364 
L 342.131598 218.256364 
L 345.551414 218.256364 
L 348.97123 218.256364 
L 352.391046 218.256364 
L 355.810862 218.256364 
L 359.230679 218.256364 
L 362.650495 218.256364 
L 366.070311 218.256364 
L 369.490127 218.256364 
L 372.909943 218.256364 
" style="fill:none;stroke:#d62728;stroke-linecap:square;stroke-width:1.5;"/>
   </g>
   <g id="line2d_18">
    <path clip-path="url(#pfb32f147f7)" d="M 68.546307 218.256364 
L 71.966123 218.256364 
L 75.385939 218.256364 
L 78.805755 218.256364 
L 82.225571 218.256364 
L 85.645388 218.256364 
L 89.065204 218.256364 
L 92.48502 218.256364 
L 95.904836 218.256364 
L 99.324652 218.256364 
L 102.744468 218.256364 
L 106.164284 218.256364 
L 109.5841 218.256364 
L 113.003917 218.256364 
L 116.423733 218.256364 
L 119.843549 218.256364 
L 123.263365 218.256364 
L 126.683181 218.256364 
L 130.102997 218.256364 
L 133.522813 218.256364 
L 136.94263 218.256364 
L 140.362446 218.256364 
L 143.782262 218.256364 
L 147.202078 218.256364 
L 150.621894 218.256364 
L 154.04171 218.256364 
L 157.461526 218.256364 
L 160.881343 218.256364 
L 164.301159 218.256364 
L 167.720975 218.256364 
L 171.140791 218.256364 
L 174.560607 218.256364 
L 177.980423 218.256364 
L 181.400239 218.256364 
L 184.820056 218.256364 
L 188.239872 218.256364 
L 191.659688 218.256364 
L 195.079504 218.256364 
L 198.49932 218.256364 
L 201.919136 218.256364 
L 205.338952 218.256364 
L 208.758769 218.256364 
L 212.178585 218.256364 
L 215.598401 218.256364 
L 219.018217 218.256364 
L 222.438033 218.256364 
L 225.857849 218.256364 
L 229.277665 218.256364 
L 232.697481 218.256364 
L 236.117298 218.256364 
L 239.537114 218.256364 
L 242.95693 218.256364 
L 246.376746 218.256364 
L 249.796562 218.256364 
L 253.216378 218.256364 
L 256.636194 218.256364 
L 260.056011 218.256364 
L 263.475827 218.256364 
L 266.895643 218.256364 
L 270.315459 218.256364 
L 273.735275 218.256364 
L 277.155091 218.256364 
L 280.574907 218.256364 
L 283.994724 218.256364 
L 287.41454 218.256364 
L 290.834356 218.256364 
L 294.254172 218.256364 
L 297.673988 218.256364 
L 301.093804 218.256364 
L 304.51362 218.228487 
L 307.933437 218.228487 
L 311.353253 218.228487 
L 314.773069 218.228487 
L 318.192885 218.228487 
L 321.612701 218.200611 
L 325.032517 218.200611 
L 328.452333 218.200611 
L 331.87215 218.200611 
L 335.291966 218.200611 
L 338.711782 218.200611 
L 342.131598 218.200611 
L 345.551414 218.172734 
L 348.97123 218.172734 
L 352.391046 218.172734 
L 355.810862 218.144857 
L 359.230679 218.144857 
L 362.650495 218.144857 
L 366.070311 218.144857 
L 369.490127 218.144857 
L 372.909943 218.144857 
" style="fill:none;stroke:#9467bd;stroke-linecap:square;stroke-width:1.5;"/>
   </g>
   <g id="line2d_19">
    <path clip-path="url(#pfb32f147f7)" d="M 68.546307 218.256364 
L 71.966123 218.256364 
L 75.385939 218.256364 
L 78.805755 218.256364 
L 82.225571 218.256364 
L 85.645388 218.256364 
L 89.065204 218.256364 
L 92.48502 218.256364 
L 95.904836 218.256364 
L 99.324652 218.256364 
L 102.744468 218.256364 
L 106.164284 218.256364 
L 109.5841 218.256364 
L 113.003917 218.256364 
L 116.423733 218.256364 
L 119.843549 218.256364 
L 123.263365 218.256364 
L 126.683181 218.256364 
L 130.102997 218.256364 
L 133.522813 218.256364 
L 136.94263 218.256364 
L 140.362446 218.256364 
L 143.782262 218.256364 
L 147.202078 218.256364 
L 150.621894 218.256364 
L 154.04171 218.256364 
L 157.461526 218.256364 
L 160.881343 218.256364 
L 164.301159 218.256364 
L 167.720975 218.256364 
L 171.140791 218.256364 
L 174.560607 218.256364 
L 177.980423 218.256364 
L 181.400239 218.256364 
L 184.820056 218.256364 
L 188.239872 218.256364 
L 191.659688 218.256364 
L 195.079504 218.256364 
L 198.49932 218.256364 
L 201.919136 218.256364 
L 205.338952 218.256364 
L 208.758769 218.256364 
L 212.178585 218.256364 
L 215.598401 218.256364 
L 219.018217 218.256364 
L 222.438033 218.256364 
L 225.857849 218.256364 
L 229.277665 218.256364 
L 232.697481 218.256364 
L 236.117298 218.256364 
L 239.537114 218.256364 
L 242.95693 218.256364 
L 246.376746 218.256364 
L 249.796562 218.256364 
L 253.216378 218.256364 
L 256.636194 218.256364 
L 260.056011 218.256364 
L 263.475827 218.228487 
L 266.895643 218.200611 
L 270.315459 218.200611 
L 273.735275 218.172734 
L 277.155091 218.144857 
L 280.574907 218.089104 
L 283.994724 218.089104 
L 287.41454 218.061228 
L 290.834356 218.033351 
L 294.254172 217.921845 
L 297.673988 217.893968 
L 301.093804 217.838215 
L 304.51362 217.698832 
L 307.933437 217.698832 
L 311.353253 217.587326 
L 314.773069 217.447943 
L 318.192885 217.336437 
L 321.612701 217.280684 
L 325.032517 217.141301 
L 328.452333 216.946165 
L 331.87215 216.806782 
L 335.291966 216.695276 
L 338.711782 216.472263 
L 342.131598 216.054115 
L 345.551414 215.970485 
L 348.97123 215.69172 
L 352.391046 215.245695 
L 355.810862 214.743916 
L 359.230679 214.019126 
L 362.650495 213.545224 
L 366.070311 213.015569 
L 369.490127 212.402285 
L 372.909943 211.928383 
" style="fill:none;stroke:#8c564b;stroke-linecap:square;stroke-width:1.5;"/>
   </g>
   <g id="line2d_20">
    <path clip-path="url(#pfb32f147f7)" d="M 68.546307 218.256364 
L 71.966123 218.256364 
L 75.385939 218.256364 
L 78.805755 218.256364 
L 82.225571 218.256364 
L 85.645388 218.256364 
L 89.065204 218.256364 
L 92.48502 218.256364 
L 95.904836 218.256364 
L 99.324652 218.256364 
L 102.744468 218.256364 
L 106.164284 218.256364 
L 109.5841 218.256364 
L 113.003917 218.256364 
L 116.423733 218.256364 
L 119.843549 218.256364 
L 123.263365 218.256364 
L 126.683181 218.256364 
L 130.102997 218.256364 
L 133.522813 218.256364 
L 136.94263 218.256364 
L 140.362446 218.256364 
L 143.782262 218.256364 
L 147.202078 218.256364 
L 150.621894 218.256364 
L 154.04171 218.256364 
L 157.461526 218.256364 
L 160.881343 218.256364 
L 164.301159 218.256364 
L 167.720975 218.256364 
L 171.140791 218.256364 
L 174.560607 218.256364 
L 177.980423 218.256364 
L 181.400239 218.256364 
L 184.820056 218.256364 
L 188.239872 218.256364 
L 191.659688 218.256364 
L 195.079504 218.256364 
L 198.49932 218.256364 
L 201.919136 218.256364 
L 205.338952 218.256364 
L 208.758769 218.256364 
L 212.178585 218.256364 
L 215.598401 218.256364 
L 219.018217 218.256364 
L 222.438033 218.256364 
L 225.857849 218.256364 
L 229.277665 218.256364 
L 232.697481 218.256364 
L 236.117298 218.256364 
L 239.537114 218.256364 
L 242.95693 218.256364 
L 246.376746 218.228487 
L 249.796562 218.116981 
L 253.216378 218.089104 
L 256.636194 218.061228 
L 260.056011 217.949721 
L 263.475827 217.921845 
L 266.895643 217.643079 
L 270.315459 217.531573 
L 273.735275 217.280684 
L 277.155091 217.085548 
L 280.574907 216.555893 
L 283.994724 216.137745 
L 287.41454 215.719596 
L 290.834356 215.301448 
L 294.254172 214.939052 
L 297.673988 214.158508 
L 301.093804 213.350088 
L 304.51362 212.513791 
L 307.933437 211.315099 
L 311.353253 210.116406 
L 314.773069 208.917714 
L 318.192885 207.496009 
L 321.612701 205.656156 
L 325.032517 204.011439 
L 328.452333 202.589734 
L 331.87215 200.722004 
L 335.291966 198.687015 
L 338.711782 196.902914 
L 342.131598 193.920122 
L 345.551414 190.881576 
L 348.97123 187.647895 
L 352.391046 184.553596 
L 355.810862 180.873889 
L 359.230679 177.528701 
L 362.650495 172.845438 
L 366.070311 169.026349 
L 369.490127 164.566098 
L 372.909943 159.771329 
" style="fill:none;stroke:#e377c2;stroke-linecap:square;stroke-width:1.5;"/>
   </g>
   <g id="line2d_21">
    <path clip-path="url(#pfb32f147f7)" d="M 68.546307 218.256364 
L 71.966123 218.256364 
L 75.385939 218.256364 
L 78.805755 218.256364 
L 82.225571 218.256364 
L 85.645388 218.256364 
L 89.065204 218.256364 
L 92.48502 218.256364 
L 95.904836 218.256364 
L 99.324652 218.256364 
L 102.744468 218.256364 
L 106.164284 218.256364 
L 109.5841 218.256364 
L 113.003917 218.256364 
L 116.423733 218.256364 
L 119.843549 218.256364 
L 123.263365 218.256364 
L 126.683181 218.256364 
L 130.102997 218.256364 
L 133.522813 218.256364 
L 136.94263 218.256364 
L 140.362446 218.256364 
L 143.782262 218.256364 
L 147.202078 218.256364 
L 150.621894 218.256364 
L 154.04171 218.256364 
L 157.461526 218.256364 
L 160.881343 218.256364 
L 164.301159 218.256364 
L 167.720975 218.256364 
L 171.140791 218.256364 
L 174.560607 218.256364 
L 177.980423 218.256364 
L 181.400239 218.256364 
L 184.820056 218.256364 
L 188.239872 218.256364 
L 191.659688 218.256364 
L 195.079504 218.256364 
L 198.49932 218.256364 
L 201.919136 218.256364 
L 205.338952 218.256364 
L 208.758769 218.256364 
L 212.178585 218.256364 
L 215.598401 218.256364 
L 219.018217 218.256364 
L 222.438033 218.228487 
L 225.857849 218.172734 
L 229.277665 218.116981 
L 232.697481 218.033351 
L 236.117298 218.033351 
L 239.537114 218.005475 
L 242.95693 217.921845 
L 246.376746 217.47582 
L 249.796562 217.141301 
L 253.216378 216.806782 
L 256.636194 216.444387 
L 260.056011 215.998362 
L 263.475827 215.412954 
L 266.895643 214.465151 
L 270.315459 213.600977 
L 273.735275 212.402285 
L 277.155091 211.538111 
L 280.574907 210.200036 
L 283.994724 208.945591 
L 287.41454 207.022108 
L 290.834356 204.736229 
L 294.254172 202.506104 
L 297.673988 199.997213 
L 301.093804 197.014421 
L 304.51362 193.947998 
L 307.933437 190.491304 
L 311.353253 187.313376 
L 314.773069 183.550039 
L 318.192885 179.034036 
L 321.612701 174.601662 
L 325.032517 169.723263 
L 328.452333 164.315209 
L 331.87215 159.325304 
L 335.291966 154.251769 
L 338.711782 148.871592 
L 342.131598 142.87813 
L 345.551414 135.713853 
L 348.97123 128.939847 
L 352.391046 121.580434 
L 355.810862 113.942255 
L 359.230679 107.08462 
L 362.650495 99.279181 
L 366.070311 91.808262 
L 369.490127 83.751934 
L 372.909943 75.221705 
" style="fill:none;stroke:#7f7f7f;stroke-linecap:square;stroke-width:1.5;"/>
   </g>
   <g id="line2d_22">
    <path clip-path="url(#pfb32f147f7)" d="M 68.546307 218.256364 
L 71.966123 218.256364 
L 75.385939 218.256364 
L 78.805755 218.256364 
L 82.225571 218.256364 
L 85.645388 218.256364 
L 89.065204 218.256364 
L 92.48502 218.256364 
L 95.904836 218.256364 
L 99.324652 218.256364 
L 102.744468 218.256364 
L 106.164284 218.256364 
L 109.5841 218.256364 
L 113.003917 218.256364 
L 116.423733 218.256364 
L 119.843549 218.256364 
L 123.263365 218.256364 
L 126.683181 218.256364 
L 130.102997 218.256364 
L 133.522813 218.256364 
L 136.94263 218.256364 
L 140.362446 218.256364 
L 143.782262 218.256364 
L 147.202078 218.256364 
L 150.621894 218.256364 
L 154.04171 218.256364 
L 157.461526 218.256364 
L 160.881343 218.256364 
L 164.301159 218.256364 
L 167.720975 218.256364 
L 171.140791 218.256364 
L 174.560607 218.256364 
L 177.980423 218.256364 
L 181.400239 218.256364 
L 184.820056 218.256364 
L 188.239872 218.256364 
L 191.659688 218.256364 
L 195.079504 218.256364 
L 198.49932 218.256364 
L 201.919136 218.256364 
L 205.338952 218.256364 
L 208.758769 218.256364 
L 212.178585 218.228487 
L 215.598401 218.228487 
L 219.018217 218.200611 
L 222.438033 218.172734 
L 225.857849 218.116981 
L 229.277665 217.921845 
L 232.697481 217.643079 
L 236.117298 217.30856 
L 239.537114 217.001918 
L 242.95693 216.472263 
L 246.376746 215.998362 
L 249.796562 215.162065 
L 253.216378 214.493027 
L 256.636194 213.768237 
L 260.056011 212.820433 
L 263.475827 211.510235 
L 266.895643 210.060653 
L 270.315459 208.861961 
L 273.735275 206.799095 
L 277.155091 204.596846 
L 280.574907 201.948573 
L 283.994724 199.551188 
L 287.41454 197.153803 
L 290.834356 194.059505 
L 294.254172 190.797946 
L 297.673988 187.03461 
L 301.093804 182.434977 
L 304.51362 178.783147 
L 307.933437 174.378649 
L 311.353253 169.639633 
L 314.773069 164.789111 
L 318.192885 159.687699 
L 321.612701 153.610608 
L 325.032517 148.286184 
L 328.452333 142.348475 
L 331.87215 136.076248 
L 335.291966 128.661082 
L 338.711782 122.137965 
L 342.131598 115.113071 
L 345.551414 108.366942 
L 348.97123 100.58938 
L 352.391046 92.756065 
L 355.810862 84.142206 
L 359.230679 75.361088 
L 362.650495 67.053871 
L 366.070311 58.440013 
L 369.490127 49.770401 
L 372.909943 40.320245 
" style="fill:none;stroke:#bcbd22;stroke-linecap:square;stroke-width:1.5;"/>
   </g>
   <g id="line2d_23">
    <path clip-path="url(#pfb32f147f7)" d="M 68.546307 218.256364 
L 71.966123 218.256364 
L 75.385939 218.256364 
L 78.805755 218.256364 
L 82.225571 218.256364 
L 85.645388 218.256364 
L 89.065204 218.256364 
L 92.48502 218.256364 
L 95.904836 218.256364 
L 99.324652 218.256364 
L 102.744468 218.256364 
L 106.164284 218.256364 
L 109.5841 218.256364 
L 113.003917 218.256364 
L 116.423733 218.256364 
L 119.843549 218.256364 
L 123.263365 218.256364 
L 126.683181 218.256364 
L 130.102997 218.256364 
L 133.522813 218.256364 
L 136.94263 218.256364 
L 140.362446 218.256364 
L 143.782262 218.256364 
L 147.202078 218.256364 
L 150.621894 218.256364 
L 154.04171 218.256364 
L 157.461526 218.256364 
L 160.881343 218.256364 
L 164.301159 218.256364 
L 167.720975 218.256364 
L 171.140791 218.256364 
L 174.560607 218.256364 
L 177.980423 218.256364 
L 181.400239 218.256364 
L 184.820056 218.256364 
L 188.239872 218.256364 
L 191.659688 218.256364 
L 195.079504 218.256364 
L 198.49932 218.256364 
L 201.919136 218.256364 
L 205.338952 218.228487 
L 208.758769 218.228487 
L 212.178585 218.200611 
L 215.598401 218.144857 
L 219.018217 218.089104 
L 222.438033 218.033351 
L 225.857849 217.893968 
L 229.277665 217.838215 
L 232.697481 217.615203 
L 236.117298 217.001918 
L 239.537114 216.611646 
L 242.95693 215.998362 
L 246.376746 215.273571 
L 249.796562 214.71604 
L 253.216378 213.768237 
L 256.636194 212.904063 
L 260.056011 211.95626 
L 263.475827 210.869074 
L 266.895643 209.419492 
L 270.315459 207.356626 
L 273.735275 205.321637 
L 277.155091 202.506104 
L 280.574907 199.746324 
L 283.994724 197.348939 
L 287.41454 194.449777 
L 290.834356 190.881576 
L 294.254172 187.062487 
L 297.673988 183.131891 
L 301.093804 178.504381 
L 304.51362 173.486599 
L 307.933437 168.022792 
L 311.353253 162.308096 
L 314.773069 156.76066 
L 318.192885 150.767198 
L 321.612701 143.825933 
L 325.032517 137.247064 
L 328.452333 130.222169 
L 331.87215 123.308781 
L 335.291966 116.479022 
L 338.711782 108.394818 
L 342.131598 101.230541 
L 345.551414 94.763178 
L 348.97123 87.152875 
L 352.391046 79.152301 
L 355.810862 70.845084 
L 359.230679 62.426361 
L 362.650495 53.924009 
L 366.070311 45.839805 
L 369.490127 35.915747 
L 372.909943 27.329765 
" style="fill:none;stroke:#17becf;stroke-linecap:square;stroke-width:1.5;"/>
   </g>
   <g id="line2d_24">
    <path clip-path="url(#pfb32f147f7)" d="M 68.546307 218.256364 
L 71.966123 218.256364 
L 75.385939 218.256364 
L 78.805755 218.256364 
L 82.225571 218.256364 
L 85.645388 218.256364 
L 89.065204 218.256364 
L 92.48502 218.256364 
L 95.904836 218.256364 
L 99.324652 218.256364 
L 102.744468 218.256364 
L 106.164284 218.256364 
L 109.5841 218.256364 
L 113.003917 218.256364 
L 116.423733 218.256364 
L 119.843549 218.256364 
L 123.263365 218.256364 
L 126.683181 218.256364 
L 130.102997 218.256364 
L 133.522813 218.256364 
L 136.94263 218.256364 
L 140.362446 218.256364 
L 143.782262 218.256364 
L 147.202078 218.256364 
L 150.621894 218.256364 
L 154.04171 218.256364 
L 157.461526 218.256364 
L 160.881343 218.256364 
L 164.301159 218.256364 
L 167.720975 218.256364 
L 171.140791 218.256364 
L 174.560607 218.256364 
L 177.980423 218.256364 
L 181.400239 218.256364 
L 184.820056 218.256364 
L 188.239872 218.256364 
L 191.659688 218.256364 
L 195.079504 218.256364 
L 198.49932 218.256364 
L 201.919136 218.256364 
L 205.338952 218.228487 
L 208.758769 218.200611 
L 212.178585 218.200611 
L 215.598401 218.144857 
L 219.018217 218.061228 
L 222.438033 217.921845 
L 225.857849 217.726709 
L 229.277665 217.587326 
L 232.697481 217.364314 
L 236.117298 217.113424 
L 239.537114 216.611646 
L 242.95693 216.081992 
L 246.376746 215.468707 
L 249.796562 214.520904 
L 253.216378 213.266458 
L 256.636194 212.290779 
L 260.056011 210.646061 
L 263.475827 208.945591 
L 266.895643 207.133614 
L 270.315459 204.875612 
L 273.735275 202.478227 
L 277.155091 200.052966 
L 280.574907 197.209557 
L 283.994724 193.864369 
L 287.41454 190.714317 
L 290.834356 187.285499 
L 294.254172 183.131891 
L 297.673988 179.089789 
L 301.093804 174.685291 
L 304.51362 169.611757 
L 307.933437 164.120073 
L 311.353253 158.739896 
L 314.773069 153.722114 
L 318.192885 148.063171 
L 321.612701 141.233413 
L 325.032517 135.518717 
L 328.452333 128.911971 
L 331.87215 121.859199 
L 335.291966 115.057317 
L 338.711782 106.973113 
L 342.131598 99.53007 
L 345.551414 92.783941 
L 348.97123 85.00638 
L 352.391046 76.169508 
L 355.810862 67.193254 
L 359.230679 58.440013 
L 362.650495 49.073486 
L 366.070311 39.623331 
L 369.490127 29.782903 
L 372.909943 20.583636 
" style="fill:none;stroke:#1f77b4;stroke-linecap:square;stroke-width:1.5;"/>
   </g>
   <g id="patch_3">
    <path d="M 53.328125 228.14 
L 53.328125 10.7 
" style="fill:none;stroke:#000000;stroke-linecap:square;stroke-linejoin:miter;stroke-width:0.8;"/>
   </g>
   <g id="patch_4">
    <path d="M 388.128125 228.14 
L 388.128125 10.7 
" style="fill:none;stroke:#000000;stroke-linecap:square;stroke-linejoin:miter;stroke-width:0.8;"/>
   </g>
   <g id="patch_5">
    <path d="M 53.328125 228.14 
L 388.128125 228.14 
" style="fill:none;stroke:#000000;stroke-linecap:square;stroke-linejoin:miter;stroke-width:0.8;"/>
   </g>
   <g id="patch_6">
    <path d="M 53.328125 10.7 
L 388.128125 10.7 
" style="fill:none;stroke:#000000;stroke-linecap:square;stroke-linejoin:miter;stroke-width:0.8;"/>
   </g>
   <g id="legend_1">
    <g id="patch_7">
     <path d="M 60.328125 180.159375 
L 114.59375 180.159375 
Q 116.59375 180.159375 116.59375 178.159375 
L 116.59375 17.7 
Q 116.59375 15.7 114.59375 15.7 
L 60.328125 15.7 
Q 58.328125 15.7 58.328125 17.7 
L 58.328125 178.159375 
Q 58.328125 180.159375 60.328125 180.159375 
z
" style="fill:#ffffff;opacity:0.8;stroke:#cccccc;stroke-linejoin:miter;"/>
    </g>
    <g id="line2d_25">
     <path d="M 62.328125 23.798437 
L 82.328125 23.798437 
" style="fill:none;stroke:#1f77b4;stroke-linecap:square;stroke-width:1.5;"/>
    </g>
    <g id="line2d_26"/>
    <g id="text_16">
     <!-- 14.0 -->
     <defs>
      <path d="M 10.6875 12.40625 
L 21 12.40625 
L 21 0 
L 10.6875 0 
z
" id="DejaVuSans-2e"/>
     </defs>
     <g transform="translate(90.328125 27.298437)scale(0.1 -0.1)">
      <use xlink:href="#DejaVuSans-31"/>
      <use x="63.623047" xlink:href="#DejaVuSans-34"/>
      <use x="127.246094" xlink:href="#DejaVuSans-2e"/>
      <use x="159.033203" xlink:href="#DejaVuSans-30"/>
     </g>
    </g>
    <g id="line2d_27">
     <path d="M 62.328125 38.476562 
L 82.328125 38.476562 
" style="fill:none;stroke:#ff7f0e;stroke-linecap:square;stroke-width:1.5;"/>
    </g>
    <g id="line2d_28"/>
    <g id="text_17">
     <!-- 15.0 -->
     <g transform="translate(90.328125 41.976562)scale(0.1 -0.1)">
      <use xlink:href="#DejaVuSans-31"/>
      <use x="63.623047" xlink:href="#DejaVuSans-35"/>
      <use x="127.246094" xlink:href="#DejaVuSans-2e"/>
      <use x="159.033203" xlink:href="#DejaVuSans-30"/>
     </g>
    </g>
    <g id="line2d_29">
     <path d="M 62.328125 53.154687 
L 82.328125 53.154687 
" style="fill:none;stroke:#2ca02c;stroke-linecap:square;stroke-width:1.5;"/>
    </g>
    <g id="line2d_30"/>
    <g id="text_18">
     <!-- 16.0 -->
     <g transform="translate(90.328125 56.654687)scale(0.1 -0.1)">
      <use xlink:href="#DejaVuSans-31"/>
      <use x="63.623047" xlink:href="#DejaVuSans-36"/>
      <use x="127.246094" xlink:href="#DejaVuSans-2e"/>
      <use x="159.033203" xlink:href="#DejaVuSans-30"/>
     </g>
    </g>
    <g id="line2d_31">
     <path d="M 62.328125 67.832812 
L 82.328125 67.832812 
" style="fill:none;stroke:#d62728;stroke-linecap:square;stroke-width:1.5;"/>
    </g>
    <g id="line2d_32"/>
    <g id="text_19">
     <!-- 17.0 -->
     <g transform="translate(90.328125 71.332812)scale(0.1 -0.1)">
      <use xlink:href="#DejaVuSans-31"/>
      <use x="63.623047" xlink:href="#DejaVuSans-37"/>
      <use x="127.246094" xlink:href="#DejaVuSans-2e"/>
      <use x="159.033203" xlink:href="#DejaVuSans-30"/>
     </g>
    </g>
    <g id="line2d_33">
     <path d="M 62.328125 82.510937 
L 82.328125 82.510937 
" style="fill:none;stroke:#9467bd;stroke-linecap:square;stroke-width:1.5;"/>
    </g>
    <g id="line2d_34"/>
    <g id="text_20">
     <!-- 18.0 -->
     <g transform="translate(90.328125 86.010937)scale(0.1 -0.1)">
      <use xlink:href="#DejaVuSans-31"/>
      <use x="63.623047" xlink:href="#DejaVuSans-38"/>
      <use x="127.246094" xlink:href="#DejaVuSans-2e"/>
      <use x="159.033203" xlink:href="#DejaVuSans-30"/>
     </g>
    </g>
    <g id="line2d_35">
     <path d="M 62.328125 97.189062 
L 82.328125 97.189062 
" style="fill:none;stroke:#8c564b;stroke-linecap:square;stroke-width:1.5;"/>
    </g>
    <g id="line2d_36"/>
    <g id="text_21">
     <!-- 19.0 -->
     <defs>
      <path d="M 10.984375 1.515625 
L 10.984375 10.5 
Q 14.703125 8.734375 18.5 7.8125 
Q 22.3125 6.890625 25.984375 6.890625 
Q 35.75 6.890625 40.890625 13.453125 
Q 46.046875 20.015625 46.78125 33.40625 
Q 43.953125 29.203125 39.59375 26.953125 
Q 35.25 24.703125 29.984375 24.703125 
Q 19.046875 24.703125 12.671875 31.3125 
Q 6.296875 37.9375 6.296875 49.421875 
Q 6.296875 60.640625 12.9375 67.421875 
Q 19.578125 74.21875 30.609375 74.21875 
Q 43.265625 74.21875 49.921875 64.515625 
Q 56.59375 54.828125 56.59375 36.375 
Q 56.59375 19.140625 48.40625 8.859375 
Q 40.234375 -1.421875 26.421875 -1.421875 
Q 22.703125 -1.421875 18.890625 -0.6875 
Q 15.09375 0.046875 10.984375 1.515625 
z
M 30.609375 32.421875 
Q 37.25 32.421875 41.125 36.953125 
Q 45.015625 41.5 45.015625 49.421875 
Q 45.015625 57.28125 41.125 61.84375 
Q 37.25 66.40625 30.609375 66.40625 
Q 23.96875 66.40625 20.09375 61.84375 
Q 16.21875 57.28125 16.21875 49.421875 
Q 16.21875 41.5 20.09375 36.953125 
Q 23.96875 32.421875 30.609375 32.421875 
z
" id="DejaVuSans-39"/>
     </defs>
     <g transform="translate(90.328125 100.689062)scale(0.1 -0.1)">
      <use xlink:href="#DejaVuSans-31"/>
      <use x="63.623047" xlink:href="#DejaVuSans-39"/>
      <use x="127.246094" xlink:href="#DejaVuSans-2e"/>
      <use x="159.033203" xlink:href="#DejaVuSans-30"/>
     </g>
    </g>
    <g id="line2d_37">
     <path d="M 62.328125 111.867187 
L 82.328125 111.867187 
" style="fill:none;stroke:#e377c2;stroke-linecap:square;stroke-width:1.5;"/>
    </g>
    <g id="line2d_38"/>
    <g id="text_22">
     <!-- 20.0 -->
     <g transform="translate(90.328125 115.367187)scale(0.1 -0.1)">
      <use xlink:href="#DejaVuSans-32"/>
      <use x="63.623047" xlink:href="#DejaVuSans-30"/>
      <use x="127.246094" xlink:href="#DejaVuSans-2e"/>
      <use x="159.033203" xlink:href="#DejaVuSans-30"/>
     </g>
    </g>
    <g id="line2d_39">
     <path d="M 62.328125 126.545312 
L 82.328125 126.545312 
" style="fill:none;stroke:#7f7f7f;stroke-linecap:square;stroke-width:1.5;"/>
    </g>
    <g id="line2d_40"/>
    <g id="text_23">
     <!-- 21.0 -->
     <g transform="translate(90.328125 130.045312)scale(0.1 -0.1)">
      <use xlink:href="#DejaVuSans-32"/>
      <use x="63.623047" xlink:href="#DejaVuSans-31"/>
      <use x="127.246094" xlink:href="#DejaVuSans-2e"/>
      <use x="159.033203" xlink:href="#DejaVuSans-30"/>
     </g>
    </g>
    <g id="line2d_41">
     <path d="M 62.328125 141.223437 
L 82.328125 141.223437 
" style="fill:none;stroke:#bcbd22;stroke-linecap:square;stroke-width:1.5;"/>
    </g>
    <g id="line2d_42"/>
    <g id="text_24">
     <!-- 22.0 -->
     <g transform="translate(90.328125 144.723437)scale(0.1 -0.1)">
      <use xlink:href="#DejaVuSans-32"/>
      <use x="63.623047" xlink:href="#DejaVuSans-32"/>
      <use x="127.246094" xlink:href="#DejaVuSans-2e"/>
      <use x="159.033203" xlink:href="#DejaVuSans-30"/>
     </g>
    </g>
    <g id="line2d_43">
     <path d="M 62.328125 155.901562 
L 82.328125 155.901562 
" style="fill:none;stroke:#17becf;stroke-linecap:square;stroke-width:1.5;"/>
    </g>
    <g id="line2d_44"/>
    <g id="text_25">
     <!-- 23.0 -->
     <g transform="translate(90.328125 159.401562)scale(0.1 -0.1)">
      <use xlink:href="#DejaVuSans-32"/>
      <use x="63.623047" xlink:href="#DejaVuSans-33"/>
      <use x="127.246094" xlink:href="#DejaVuSans-2e"/>
      <use x="159.033203" xlink:href="#DejaVuSans-30"/>
     </g>
    </g>
    <g id="line2d_45">
     <path d="M 62.328125 170.579687 
L 82.328125 170.579687 
" style="fill:none;stroke:#1f77b4;stroke-linecap:square;stroke-width:1.5;"/>
    </g>
    <g id="line2d_46"/>
    <g id="text_26">
     <!-- 24.0 -->
     <g transform="translate(90.328125 174.079687)scale(0.1 -0.1)">
      <use xlink:href="#DejaVuSans-32"/>
      <use x="63.623047" xlink:href="#DejaVuSans-34"/>
      <use x="127.246094" xlink:href="#DejaVuSans-2e"/>
      <use x="159.033203" xlink:href="#DejaVuSans-30"/>
     </g>
    </g>
   </g>
  </g>
 </g>
 <defs>
  <clipPath id="pfb32f147f7">
   <rect height="217.44" width="334.8" x="53.328125" y="10.7"/>
  </clipPath>
 </defs>
</svg>
