<?xml version="1.0" encoding="UTF-8" standalone="no"?>
<!-- Created with matplotlib (http://matplotlib.org/) -->

<svg
   xmlns:dc="http://purl.org/dc/elements/1.1/"
   xmlns:cc="http://creativecommons.org/ns#"
   xmlns:rdf="http://www.w3.org/1999/02/22-rdf-syntax-ns#"
   xmlns:svg="http://www.w3.org/2000/svg"
   xmlns="http://www.w3.org/2000/svg"
   xmlns:xlink="http://www.w3.org/1999/xlink"
   xmlns:sodipodi="http://sodipodi.sourceforge.net/DTD/sodipodi-0.dtd"
   xmlns:inkscape="http://www.inkscape.org/namespaces/inkscape"
   height="265.718125pt"
   version="1.1"
   viewBox="0 0 391.225 265.718125"
   width="391.225pt"
   id="svg351"
   sodipodi:docname="linear_v2_halfmax_n.svg"
   inkscape:version="0.92.3 (2405546, 2018-03-11)">
  <metadata
     id="metadata355">
    <rdf:RDF>
      <cc:Work
         rdf:about="">
        <dc:format>image/svg+xml</dc:format>
        <dc:type
           rdf:resource="http://purl.org/dc/dcmitype/StillImage" />
      </cc:Work>
    </rdf:RDF>
  </metadata>
  <sodipodi:namedview
     pagecolor="#ffffff"
     bordercolor="#666666"
     borderopacity="1"
     objecttolerance="10"
     gridtolerance="10"
     guidetolerance="10"
     inkscape:pageopacity="0"
     inkscape:pageshadow="2"
     inkscape:window-width="1319"
     inkscape:window-height="744"
     id="namedview353"
     showgrid="false"
     inkscape:zoom="1.1195603"
     inkscape:cx="295.72446"
     inkscape:cy="115.49458"
     inkscape:window-x="47"
     inkscape:window-y="24"
     inkscape:window-maximized="1"
     inkscape:current-layer="matplotlib.axis_2" />
  <defs
     id="defs4">
    <style
       type="text/css"
       id="style2">
*{stroke-linecap:butt;stroke-linejoin:round;}
  </style>
    <path
       inkscape:connector-curvature="0"
       d="M 36.8125,72.90625 H 48 L 61.53125,0 H 51.21875 L 48.1875,18.703125 H 15.375 L 5.078125,0 H -5.328125 Z M 40.375,63.1875 19.921875,26.90625 H 46.6875 Z"
       id="DejaVuSans-Oblique-41" />
    <path
       inkscape:connector-curvature="0"
       d="M 16.890625,72.90625 H 26.8125 L 12.59375,0 H 2.6875 Z"
       id="DejaVuSans-Oblique-49" />
    <path
       inkscape:connector-curvature="0"
       d="M 89.796875,33.015625 83.40625,0 h -8.984375 l 6.296875,32.71875 q 0.390625,2.09375 0.578125,3.609375 Q 81.5,37.84375 81.5,38.921875 81.5,43.3125 79.046875,45.75 q -2.4375,2.4375 -6.828125,2.4375 -6.546875,0 -11.671875,-4.90625 -5.125,-4.90625 -6.640625,-12.765625 L 47.90625,0 H 38.921875 L 45.3125,32.71875 q 0.390625,1.796875 0.578125,3.328125 0.203125,1.546875 0.203125,2.765625 0,4.453125 -2.4375,6.90625 -2.4375,2.46875 -6.734375,2.46875 -6.640625,0 -11.78125,-4.90625 Q 20.015625,38.375 18.5,30.515625 L 12.5,0 H 3.515625 l 10.6875,54.6875 H 23.1875 l -1.703125,-8.5 q 3.65625,4.796875 8.5625,7.296875 Q 34.96875,56 40.578125,56 q 5.953125,0 9.78125,-3.125 3.84375,-3.125 4.625,-8.6875 4.09375,5.765625 9.484375,8.78125 Q 69.875,56 75.875,56 q 7.03125,0 10.859375,-4.046875 3.84375,-4.046875 3.84375,-11.46875 0,-1.609375 -0.203125,-3.546875 -0.1875,-1.921875 -0.578125,-3.921875 z"
       id="DejaVuSans-Oblique-6d-6" />
    <path
       inkscape:connector-curvature="0"
       d="M 60.015625,54.6875 34.90625,27.875 50.296875,0 h -10.3125 L 28.421875,21.6875 8.296875,0 H -2.59375 L 24.3125,28.8125 10.015625,54.6875 H 20.3125 l 10.5,-19.78125 18.3125,19.78125 z"
       id="DejaVuSans-Oblique-78" />
  </defs>
  <g
     id="figure_1">
    <g
       id="patch_1">
      <path
         d="M 0 265.718125  L 391.225 265.718125  L 391.225 0  L 0 0  z "
         style="fill:none;"
         id="path6" />
    </g>
    <g
       id="axes_1">
      <g
         id="patch_2">
        <path
           d="M 45.725 228.14  L 380.525 228.14  L 380.525 10.7  L 45.725 10.7  z "
           style="fill:#ffffff;"
           id="path9" />
      </g>
      <g
         id="matplotlib.axis_1">
        <g
           id="xtick_1">
          <g
             id="line2d_1">
            <defs
               id="defs13">
              <path
                 d="M 0 0  L 0 3.5  "
                 id="m54b202348f"
                 style="stroke:#000000;stroke-width:0.8;" />
            </defs>
            <g
               id="g17">
              <use
                 style="stroke:#000000;stroke-width:0.8;"
                 x="60.943182"
                 xlink:href="#m54b202348f"
                 y="228.14"
                 id="use15" />
            </g>
          </g>
          <g
             id="text_1">
            <!-- 14 -->
            <defs
               id="defs22">
              <path
                 d="M 12.40625 8.296875  L 28.515625 8.296875  L 28.515625 63.921875  L 10.984375 60.40625  L 10.984375 69.390625  L 28.421875 72.90625  L 38.28125 72.90625  L 38.28125 8.296875  L 54.390625 8.296875  L 54.390625 0  L 12.40625 0  z "
                 id="DejaVuSans-31" />
              <path
                 d="M 37.796875 64.3125  L 12.890625 25.390625  L 37.796875 25.390625  z M 35.203125 72.90625  L 47.609375 72.90625  L 47.609375 25.390625  L 58.015625 25.390625  L 58.015625 17.1875  L 47.609375 17.1875  L 47.609375 0  L 37.796875 0  L 37.796875 17.1875  L 4.890625 17.1875  L 4.890625 26.703125  z "
                 id="DejaVuSans-34" />
            </defs>
            <g
               transform="translate(54.580682 242.738437)scale(0.1 -0.1)"
               id="g28">
              <use
                 xlink:href="#DejaVuSans-31"
                 id="use24" />
              <use
                 x="63.623047"
                 xlink:href="#DejaVuSans-34"
                 id="use26" />
            </g>
          </g>
        </g>
        <g
           id="xtick_2">
          <g
             id="line2d_2">
            <g
               id="g34">
              <use
                 style="stroke:#000000;stroke-width:0.8;"
                 x="121.815909"
                 xlink:href="#m54b202348f"
                 y="228.14"
                 id="use32" />
            </g>
          </g>
          <g
             id="text_2">
            <!-- 16 -->
            <defs
               id="defs38">
              <path
                 d="M 33.015625 40.375  Q 26.375 40.375 22.484375 35.828125  Q 18.609375 31.296875 18.609375 23.390625  Q 18.609375 15.53125 22.484375 10.953125  Q 26.375 6.390625 33.015625 6.390625  Q 39.65625 6.390625 43.53125 10.953125  Q 47.40625 15.53125 47.40625 23.390625  Q 47.40625 31.296875 43.53125 35.828125  Q 39.65625 40.375 33.015625 40.375  z M 52.59375 71.296875  L 52.59375 62.3125  Q 48.875 64.0625 45.09375 64.984375  Q 41.3125 65.921875 37.59375 65.921875  Q 27.828125 65.921875 22.671875 59.328125  Q 17.53125 52.734375 16.796875 39.40625  Q 19.671875 43.65625 24.015625 45.921875  Q 28.375 48.1875 33.59375 48.1875  Q 44.578125 48.1875 50.953125 41.515625  Q 57.328125 34.859375 57.328125 23.390625  Q 57.328125 12.15625 50.6875 5.359375  Q 44.046875 -1.421875 33.015625 -1.421875  Q 20.359375 -1.421875 13.671875 8.265625  Q 6.984375 17.96875 6.984375 36.375  Q 6.984375 53.65625 15.1875 63.9375  Q 23.390625 74.21875 37.203125 74.21875  Q 40.921875 74.21875 44.703125 73.484375  Q 48.484375 72.75 52.59375 71.296875  z "
                 id="DejaVuSans-36" />
            </defs>
            <g
               transform="translate(115.453409 242.738437)scale(0.1 -0.1)"
               id="g44">
              <use
                 xlink:href="#DejaVuSans-31"
                 id="use40" />
              <use
                 x="63.623047"
                 xlink:href="#DejaVuSans-36"
                 id="use42" />
            </g>
          </g>
        </g>
        <g
           id="xtick_3">
          <g
             id="line2d_3">
            <g
               id="g50">
              <use
                 style="stroke:#000000;stroke-width:0.8;"
                 x="182.688636"
                 xlink:href="#m54b202348f"
                 y="228.14"
                 id="use48" />
            </g>
          </g>
          <g
             id="text_3">
            <!-- 18 -->
            <defs
               id="defs54">
              <path
                 d="M 31.78125 34.625  Q 24.75 34.625 20.71875 30.859375  Q 16.703125 27.09375 16.703125 20.515625  Q 16.703125 13.921875 20.71875 10.15625  Q 24.75 6.390625 31.78125 6.390625  Q 38.8125 6.390625 42.859375 10.171875  Q 46.921875 13.96875 46.921875 20.515625  Q 46.921875 27.09375 42.890625 30.859375  Q 38.875 34.625 31.78125 34.625  z M 21.921875 38.8125  Q 15.578125 40.375 12.03125 44.71875  Q 8.5 49.078125 8.5 55.328125  Q 8.5 64.0625 14.71875 69.140625  Q 20.953125 74.21875 31.78125 74.21875  Q 42.671875 74.21875 48.875 69.140625  Q 55.078125 64.0625 55.078125 55.328125  Q 55.078125 49.078125 51.53125 44.71875  Q 48 40.375 41.703125 38.8125  Q 48.828125 37.15625 52.796875 32.3125  Q 56.78125 27.484375 56.78125 20.515625  Q 56.78125 9.90625 50.3125 4.234375  Q 43.84375 -1.421875 31.78125 -1.421875  Q 19.734375 -1.421875 13.25 4.234375  Q 6.78125 9.90625 6.78125 20.515625  Q 6.78125 27.484375 10.78125 32.3125  Q 14.796875 37.15625 21.921875 38.8125  z M 18.3125 54.390625  Q 18.3125 48.734375 21.84375 45.5625  Q 25.390625 42.390625 31.78125 42.390625  Q 38.140625 42.390625 41.71875 45.5625  Q 45.3125 48.734375 45.3125 54.390625  Q 45.3125 60.0625 41.71875 63.234375  Q 38.140625 66.40625 31.78125 66.40625  Q 25.390625 66.40625 21.84375 63.234375  Q 18.3125 60.0625 18.3125 54.390625  z "
                 id="DejaVuSans-38" />
            </defs>
            <g
               transform="translate(176.326136 242.738437)scale(0.1 -0.1)"
               id="g60">
              <use
                 xlink:href="#DejaVuSans-31"
                 id="use56" />
              <use
                 x="63.623047"
                 xlink:href="#DejaVuSans-38"
                 id="use58" />
            </g>
          </g>
        </g>
        <g
           id="xtick_4">
          <g
             id="line2d_4">
            <g
               id="g66">
              <use
                 style="stroke:#000000;stroke-width:0.8;"
                 x="243.561364"
                 xlink:href="#m54b202348f"
                 y="228.14"
                 id="use64" />
            </g>
          </g>
          <g
             id="text_4">
            <!-- 20 -->
            <defs
               id="defs71">
              <path
                 d="M 19.1875 8.296875  L 53.609375 8.296875  L 53.609375 0  L 7.328125 0  L 7.328125 8.296875  Q 12.9375 14.109375 22.625 23.890625  Q 32.328125 33.6875 34.8125 36.53125  Q 39.546875 41.84375 41.421875 45.53125  Q 43.3125 49.21875 43.3125 52.78125  Q 43.3125 58.59375 39.234375 62.25  Q 35.15625 65.921875 28.609375 65.921875  Q 23.96875 65.921875 18.8125 64.3125  Q 13.671875 62.703125 7.8125 59.421875  L 7.8125 69.390625  Q 13.765625 71.78125 18.9375 73  Q 24.125 74.21875 28.421875 74.21875  Q 39.75 74.21875 46.484375 68.546875  Q 53.21875 62.890625 53.21875 53.421875  Q 53.21875 48.921875 51.53125 44.890625  Q 49.859375 40.875 45.40625 35.40625  Q 44.1875 33.984375 37.640625 27.21875  Q 31.109375 20.453125 19.1875 8.296875  z "
                 id="DejaVuSans-32" />
              <path
                 d="M 31.78125 66.40625  Q 24.171875 66.40625 20.328125 58.90625  Q 16.5 51.421875 16.5 36.375  Q 16.5 21.390625 20.328125 13.890625  Q 24.171875 6.390625 31.78125 6.390625  Q 39.453125 6.390625 43.28125 13.890625  Q 47.125 21.390625 47.125 36.375  Q 47.125 51.421875 43.28125 58.90625  Q 39.453125 66.40625 31.78125 66.40625  z M 31.78125 74.21875  Q 44.046875 74.21875 50.515625 64.515625  Q 56.984375 54.828125 56.984375 36.375  Q 56.984375 17.96875 50.515625 8.265625  Q 44.046875 -1.421875 31.78125 -1.421875  Q 19.53125 -1.421875 13.0625 8.265625  Q 6.59375 17.96875 6.59375 36.375  Q 6.59375 54.828125 13.0625 64.515625  Q 19.53125 74.21875 31.78125 74.21875  z "
                 id="DejaVuSans-30" />
            </defs>
            <g
               transform="translate(237.198864 242.738437)scale(0.1 -0.1)"
               id="g77">
              <use
                 xlink:href="#DejaVuSans-32"
                 id="use73" />
              <use
                 x="63.623047"
                 xlink:href="#DejaVuSans-30"
                 id="use75" />
            </g>
          </g>
        </g>
        <g
           id="xtick_5">
          <g
             id="line2d_5">
            <g
               id="g83">
              <use
                 style="stroke:#000000;stroke-width:0.8;"
                 x="304.434091"
                 xlink:href="#m54b202348f"
                 y="228.14"
                 id="use81" />
            </g>
          </g>
          <g
             id="text_5">
            <!-- 22 -->
            <g
               transform="translate(298.071591 242.738437)scale(0.1 -0.1)"
               id="g90">
              <use
                 xlink:href="#DejaVuSans-32"
                 id="use86" />
              <use
                 x="63.623047"
                 xlink:href="#DejaVuSans-32"
                 id="use88" />
            </g>
          </g>
        </g>
        <g
           id="xtick_6">
          <g
             id="line2d_6">
            <g
               id="g96">
              <use
                 style="stroke:#000000;stroke-width:0.8;"
                 x="365.306818"
                 xlink:href="#m54b202348f"
                 y="228.14"
                 id="use94" />
            </g>
          </g>
          <g
             id="text_6">
            <!-- 24 -->
            <g
               transform="translate(358.944318 242.738437)scale(0.1 -0.1)"
               id="g103">
              <use
                 xlink:href="#DejaVuSans-32"
                 id="use99" />
              <use
                 x="63.623047"
                 xlink:href="#DejaVuSans-34"
                 id="use101" />
            </g>
          </g>
        </g>
        <g
           id="text_7">
          <!-- $log(Cell\ number)$ -->
          <defs
             id="defs119">
            <path
               d="M 18.3125 75.984375  L 27.296875 75.984375  L 12.5 0  L 3.515625 0  z "
               id="DejaVuSans-Oblique-6c" />
            <path
               d="M 25.390625 -1.421875  Q 15.765625 -1.421875 10.171875 4.515625  Q 4.59375 10.453125 4.59375 20.703125  Q 4.59375 26.65625 6.515625 32.828125  Q 8.453125 39.015625 11.53125 43.21875  Q 16.359375 49.75 22.3125 52.875  Q 28.265625 56 35.796875 56  Q 45.125 56 50.859375 50.1875  Q 56.59375 44.390625 56.59375 35.015625  Q 56.59375 28.515625 54.6875 22.0625  Q 52.78125 15.625 49.703125 11.375  Q 44.921875 4.828125 38.96875 1.703125  Q 33.015625 -1.421875 25.390625 -1.421875  z M 13.921875 21  Q 13.921875 13.578125 17.015625 9.890625  Q 20.125 6.203125 26.421875 6.203125  Q 35.453125 6.203125 41.375 14.078125  Q 47.3125 21.96875 47.3125 34.078125  Q 47.3125 41.15625 44.140625 44.765625  Q 40.96875 48.390625 34.8125 48.390625  Q 29.734375 48.390625 25.78125 46.015625  Q 21.828125 43.65625 18.703125 38.8125  Q 16.40625 35.203125 15.15625 30.5625  Q 13.921875 25.921875 13.921875 21  z "
               id="DejaVuSans-Oblique-6f" />
            <path
               d="M 59.625 54.6875  L 50.296875 6.78125  Q 47.609375 -7.125 40.015625 -13.953125  Q 32.421875 -20.796875 19.578125 -20.796875  Q 14.84375 -20.796875 10.78125 -20.09375  Q 6.734375 -19.390625 3.21875 -17.921875  L 4.890625 -9.1875  Q 8.203125 -11.328125 11.90625 -12.34375  Q 15.625 -13.375 19.828125 -13.375  Q 28.375 -13.375 33.859375 -8.703125  Q 39.359375 -4.046875 41.109375 4.6875  L 41.890625 8.796875  Q 38.140625 4.5 33.15625 2.25  Q 28.171875 0 22.40625 0  Q 14.109375 0 9.34375 5.484375  Q 4.59375 10.984375 4.59375 20.609375  Q 4.59375 28.171875 7.46875 35.421875  Q 10.359375 42.671875 15.578125 48.296875  Q 19.046875 52 23.65625 54  Q 28.265625 56 33.296875 56  Q 38.8125 56 42.90625 53.4375  Q 47.015625 50.875 49.03125 46.1875  L 50.59375 54.6875  z M 46.09375 34.625  Q 46.09375 41.265625 42.96875 44.875  Q 39.84375 48.484375 34.078125 48.484375  Q 30.515625 48.484375 27.296875 47.0625  Q 24.078125 45.65625 21.78125 43.109375  Q 18.0625 38.921875 15.984375 33.234375  Q 13.921875 27.546875 13.921875 21.484375  Q 13.921875 14.75 17.0625 11.125  Q 20.21875 7.515625 26.125 7.515625  Q 34.671875 7.515625 40.375 15.25  Q 46.09375 23 46.09375 34.625  z "
               id="DejaVuSans-Oblique-67" />
            <path
               d="M 31 75.875  Q 24.46875 64.65625 21.28125 53.65625  Q 18.109375 42.671875 18.109375 31.390625  Q 18.109375 20.125 21.3125 9.0625  Q 24.515625 -2 31 -13.1875  L 23.1875 -13.1875  Q 15.875 -1.703125 12.234375 9.375  Q 8.59375 20.453125 8.59375 31.390625  Q 8.59375 42.28125 12.203125 53.3125  Q 15.828125 64.359375 23.1875 75.875  z "
               id="DejaVuSans-28" />
            <path
               d="M 69.484375 67.28125  L 67.484375 56.890625  Q 62.796875 61.625 57.546875 63.921875  Q 52.296875 66.21875 46.1875 66.21875  Q 37.84375 66.21875 31.515625 62.203125  Q 25.203125 58.203125 20.609375 50  Q 17.671875 44.734375 16.125 38.84375  Q 14.59375 32.953125 14.59375 27  Q 14.59375 17.046875 19.75 11.8125  Q 24.90625 6.59375 34.71875 6.59375  Q 41.5 6.59375 47.75 8.765625  Q 54 10.9375 59.90625 15.28125  L 57.625 3.609375  Q 51.8125 1.125 45.875 -0.140625  Q 39.9375 -1.421875 33.984375 -1.421875  Q 19.96875 -1.421875 12.078125 6.1875  Q 4.203125 13.8125 4.203125 27.390625  Q 4.203125 36.078125 7.203125 44.46875  Q 10.203125 52.875 15.828125 59.8125  Q 21.78125 67.1875 29.421875 70.703125  Q 37.0625 74.21875 47.21875 74.21875  Q 53.46875 74.21875 59.0625 72.484375  Q 64.65625 70.75 69.484375 67.28125  z "
               id="DejaVuSans-Oblique-43" />
            <path
               d="M 48.09375 32.234375  Q 48.25 33.015625 48.3125 33.84375  Q 48.390625 34.671875 48.390625 35.5  Q 48.390625 41.453125 44.890625 44.921875  Q 41.40625 48.390625 35.40625 48.390625  Q 28.71875 48.390625 23.578125 44.15625  Q 18.453125 39.9375 15.828125 32.171875  z M 55.90625 25.203125  L 14.109375 25.203125  Q 13.8125 23.34375 13.71875 22.265625  Q 13.625 21.1875 13.625 20.40625  Q 13.625 13.625 17.796875 9.90625  Q 21.96875 6.203125 29.59375 6.203125  Q 35.453125 6.203125 40.671875 7.515625  Q 45.90625 8.84375 50.390625 11.375  L 48.6875 2.484375  Q 43.84375 0.53125 38.6875 -0.4375  Q 33.546875 -1.421875 28.21875 -1.421875  Q 16.84375 -1.421875 10.71875 4.015625  Q 4.59375 9.46875 4.59375 19.484375  Q 4.59375 28.03125 7.640625 35.375  Q 10.6875 42.71875 16.609375 48.484375  Q 20.40625 52.09375 25.65625 54.046875  Q 30.90625 56 36.8125 56  Q 46.09375 56 51.578125 50.4375  Q 57.078125 44.875 57.078125 35.5  Q 57.078125 33.25 56.78125 30.6875  Q 56.5 28.125 55.90625 25.203125  z "
               id="DejaVuSans-Oblique-65" />
            <path
               d="M 55.71875 33.015625  L 49.3125 0  L 40.28125 0  L 46.6875 32.671875  Q 47.125 34.96875 47.359375 36.71875  Q 47.609375 38.484375 47.609375 39.5  Q 47.609375 43.609375 45.015625 45.890625  Q 42.4375 48.1875 37.796875 48.1875  Q 30.5625 48.1875 25.34375 43.375  Q 20.125 38.578125 18.5 30.328125  L 12.5 0  L 3.515625 0  L 14.109375 54.6875  L 23.09375 54.6875  L 21.296875 46.09375  Q 25.046875 50.828125 30.3125 53.40625  Q 35.59375 56 41.40625 56  Q 48.640625 56 52.609375 52.09375  Q 56.59375 48.1875 56.59375 41.109375  Q 56.59375 39.359375 56.375 37.359375  Q 56.15625 35.359375 55.71875 33.015625  z "
               id="DejaVuSans-Oblique-6e" />
            <path
               d="M 6.6875 21.6875  L 13.09375 54.6875  L 22.125 54.6875  L 15.71875 22.015625  Q 15.234375 19.625 15.015625 17.921875  Q 14.796875 16.21875 14.796875 15.09375  Q 14.796875 10.9375 17.328125 8.65625  Q 19.875 6.390625 24.515625 6.390625  Q 31.734375 6.390625 37 11.265625  Q 42.28125 16.15625 43.890625 24.421875  L 49.90625 54.6875  L 58.890625 54.6875  L 48.296875 0  L 39.3125 0  L 41.109375 8.59375  Q 37.3125 3.8125 32.0625 1.1875  Q 26.8125 -1.421875 20.90625 -1.421875  Q 13.71875 -1.421875 9.71875 2.515625  Q 5.71875 6.453125 5.71875 13.484375  Q 5.71875 14.9375 5.953125 17.140625  Q 6.203125 19.34375 6.6875 21.6875  z "
               id="DejaVuSans-Oblique-75" />
            <path
               d="M 89.796875 33.015625  L 83.40625 0  L 74.421875 0  L 80.71875 32.71875  Q 81.109375 34.8125 81.296875 36.328125  Q 81.5 37.84375 81.5 38.921875  Q 81.5 43.3125 79.046875 45.75  Q 76.609375 48.1875 72.21875 48.1875  Q 65.671875 48.1875 60.546875 43.28125  Q 55.421875 38.375 53.90625 30.515625  L 47.90625 0  L 38.921875 0  L 45.3125 32.71875  Q 45.703125 34.515625 45.890625 36.046875  Q 46.09375 37.59375 46.09375 38.8125  Q 46.09375 43.265625 43.65625 45.71875  Q 41.21875 48.1875 36.921875 48.1875  Q 30.28125 48.1875 25.140625 43.28125  Q 20.015625 38.375 18.5 30.515625  L 12.5 0  L 3.515625 0  L 14.203125 54.6875  L 23.1875 54.6875  L 21.484375 46.1875  Q 25.140625 50.984375 30.046875 53.484375  Q 34.96875 56 40.578125 56  Q 46.53125 56 50.359375 52.875  Q 54.203125 49.75 54.984375 44.1875  Q 59.078125 49.953125 64.46875 52.96875  Q 69.875 56 75.875 56  Q 82.90625 56 86.734375 51.953125  Q 90.578125 47.90625 90.578125 40.484375  Q 90.578125 38.875 90.375 36.9375  Q 90.1875 35.015625 89.796875 33.015625  z "
               id="DejaVuSans-Oblique-6d" />
            <path
               d="M 49.515625 33.40625  Q 49.515625 40.484375 46.265625 44.484375  Q 43.015625 48.484375 37.3125 48.484375  Q 33.15625 48.484375 29.515625 46.453125  Q 25.875 44.4375 23.1875 40.578125  Q 20.359375 36.53125 18.71875 31.171875  Q 17.09375 25.828125 17.09375 20.515625  Q 17.09375 13.765625 20.28125 9.9375  Q 23.484375 6.109375 29.109375 6.109375  Q 33.34375 6.109375 36.953125 8.078125  Q 40.578125 10.0625 43.3125 13.921875  Q 46.09375 17.921875 47.796875 23.234375  Q 49.515625 28.5625 49.515625 33.40625  z M 21.578125 46.390625  Q 24.90625 50.875 29.90625 53.4375  Q 34.90625 56 40.375 56  Q 48.78125 56 53.734375 50.328125  Q 58.6875 44.671875 58.6875 35.015625  Q 58.6875 27.09375 55.78125 19.671875  Q 52.875 12.25 47.515625 6.5  Q 44 2.6875 39.40625 0.625  Q 34.8125 -1.421875 29.78125 -1.421875  Q 24.46875 -1.421875 20.5625 1.015625  Q 16.65625 3.46875 14.203125 8.296875  L 12.59375 0  L 3.609375 0  L 18.40625 75.984375  L 27.390625 75.984375  z "
               id="DejaVuSans-Oblique-62" />
            <path
               d="M 44.578125 46.390625  Q 43.21875 47.125 41.453125 47.515625  Q 39.703125 47.90625 37.703125 47.90625  Q 30.515625 47.90625 25.140625 42.453125  Q 19.78125 37.015625 18.015625 27.875  L 12.5 0  L 3.515625 0  L 14.203125 54.6875  L 23.1875 54.6875  L 21.484375 46.1875  Q 25.046875 50.921875 30 53.453125  Q 34.96875 56 40.578125 56  Q 42.046875 56 43.453125 55.828125  Q 44.875 55.671875 46.296875 55.28125  z "
               id="DejaVuSans-Oblique-72" />
            <path
               d="M 8.015625 75.875  L 15.828125 75.875  Q 23.140625 64.359375 26.78125 53.3125  Q 30.421875 42.28125 30.421875 31.390625  Q 30.421875 20.453125 26.78125 9.375  Q 23.140625 -1.703125 15.828125 -13.1875  L 8.015625 -13.1875  Q 14.5 -2 17.703125 9.0625  Q 20.90625 20.125 20.90625 31.390625  Q 20.90625 42.671875 17.703125 53.65625  Q 14.5 64.65625 8.015625 75.875  z "
               id="DejaVuSans-29" />
          </defs>
          <g
             transform="translate(171.075 256.418125)scale(0.1 -0.1)"
             id="g151">
            <use
               transform="translate(0 0.015625)"
               xlink:href="#DejaVuSans-Oblique-6c"
               id="use121" />
            <use
               transform="translate(27.783203 0.015625)"
               xlink:href="#DejaVuSans-Oblique-6f"
               id="use123" />
            <use
               transform="translate(88.964844 0.015625)"
               xlink:href="#DejaVuSans-Oblique-67"
               id="use125" />
            <use
               transform="translate(152.441406 0.015625)"
               xlink:href="#DejaVuSans-28"
               id="use127" />
            <use
               transform="translate(191.455078 0.015625)"
               xlink:href="#DejaVuSans-Oblique-43"
               id="use129" />
            <use
               transform="translate(261.279297 0.015625)"
               xlink:href="#DejaVuSans-Oblique-65"
               id="use131" />
            <use
               transform="translate(322.802734 0.015625)"
               xlink:href="#DejaVuSans-Oblique-6c"
               id="use133" />
            <use
               transform="translate(350.585938 0.015625)"
               xlink:href="#DejaVuSans-Oblique-6c"
               id="use135" />
            <use
               transform="translate(410.839519 0.015625)"
               xlink:href="#DejaVuSans-Oblique-6e"
               id="use137" />
            <use
               transform="translate(474.218425 0.015625)"
               xlink:href="#DejaVuSans-Oblique-75"
               id="use139" />
            <use
               transform="translate(537.597332 0.015625)"
               xlink:href="#DejaVuSans-Oblique-6d"
               id="use141" />
            <use
               transform="translate(635.009441 0.015625)"
               xlink:href="#DejaVuSans-Oblique-62"
               id="use143" />
            <use
               transform="translate(698.486003 0.015625)"
               xlink:href="#DejaVuSans-Oblique-65"
               id="use145" />
            <use
               transform="translate(760.009441 0.015625)"
               xlink:href="#DejaVuSans-Oblique-72"
               id="use147" />
            <use
               transform="translate(801.122722 0.015625)"
               xlink:href="#DejaVuSans-29"
               id="use149" />
          </g>
        </g>
      </g>
      <g
         id="matplotlib.axis_2">
        <g
           id="ytick_1">
          <g
             id="line2d_7">
            <defs
               id="defs156">
              <path
                 d="M 0 0  L -3.5 0  "
                 id="m5900e41c06"
                 style="stroke:#000000;stroke-width:0.8;" />
            </defs>
            <g
               id="g160">
              <use
                 style="stroke:#000000;stroke-width:0.8;"
                 x="45.725"
                 xlink:href="#m5900e41c06"
                 y="218.256364"
                 id="use158" />
            </g>
          </g>
          <g
             id="text_8">
            <!-- 78 -->
            <defs
               id="defs164">
              <path
                 d="M 8.203125 72.90625  L 55.078125 72.90625  L 55.078125 68.703125  L 28.609375 0  L 18.3125 0  L 43.21875 64.59375  L 8.203125 64.59375  z "
                 id="DejaVuSans-37" />
            </defs>
            <g
               transform="translate(26 222.055582)scale(0.1 -0.1)"
               id="g170">
              <use
                 xlink:href="#DejaVuSans-37"
                 id="use166" />
              <use
                 x="63.623047"
                 xlink:href="#DejaVuSans-38"
                 id="use168" />
            </g>
          </g>
        </g>
        <g
           id="ytick_2">
          <g
             id="line2d_8">
            <g
               id="g176">
              <use
                 style="stroke:#000000;stroke-width:0.8;"
                 x="45.725"
                 xlink:href="#m5900e41c06"
                 y="185.310909"
                 id="use174" />
            </g>
          </g>
          <g
             id="text_9">
            <!-- 80 -->
            <g
               transform="translate(26 189.110128)scale(0.1 -0.1)"
               id="g183">
              <use
                 xlink:href="#DejaVuSans-38"
                 id="use179" />
              <use
                 x="63.623047"
                 xlink:href="#DejaVuSans-30"
                 id="use181" />
            </g>
          </g>
        </g>
        <g
           id="ytick_3">
          <g
             id="line2d_9">
            <g
               id="g189">
              <use
                 style="stroke:#000000;stroke-width:0.8;"
                 x="45.725"
                 xlink:href="#m5900e41c06"
                 y="152.365455"
                 id="use187" />
            </g>
          </g>
          <g
             id="text_10">
            <!-- 82 -->
            <g
               transform="translate(26 156.164673)scale(0.1 -0.1)"
               id="g196">
              <use
                 xlink:href="#DejaVuSans-38"
                 id="use192" />
              <use
                 x="63.623047"
                 xlink:href="#DejaVuSans-32"
                 id="use194" />
            </g>
          </g>
        </g>
        <g
           id="ytick_4">
          <g
             id="line2d_10">
            <g
               id="g202">
              <use
                 style="stroke:#000000;stroke-width:0.8;"
                 x="45.725"
                 xlink:href="#m5900e41c06"
                 y="119.42"
                 id="use200" />
            </g>
          </g>
          <g
             id="text_11">
            <!-- 84 -->
            <g
               transform="translate(26 123.219219)scale(0.1 -0.1)"
               id="g209">
              <use
                 xlink:href="#DejaVuSans-38"
                 id="use205" />
              <use
                 x="63.623047"
                 xlink:href="#DejaVuSans-34"
                 id="use207" />
            </g>
          </g>
        </g>
        <g
           id="ytick_5">
          <g
             id="line2d_11">
            <g
               id="g215">
              <use
                 style="stroke:#000000;stroke-width:0.8;"
                 x="45.725"
                 xlink:href="#m5900e41c06"
                 y="86.474545"
                 id="use213" />
            </g>
          </g>
          <g
             id="text_12">
            <!-- 86 -->
            <g
               transform="translate(26 90.273764)scale(0.1 -0.1)"
               id="g222">
              <use
                 xlink:href="#DejaVuSans-38"
                 id="use218" />
              <use
                 x="63.623047"
                 xlink:href="#DejaVuSans-36"
                 id="use220" />
            </g>
          </g>
        </g>
        <g
           id="ytick_6">
          <g
             id="line2d_12">
            <g
               id="g228">
              <use
                 style="stroke:#000000;stroke-width:0.8;"
                 x="45.725"
                 xlink:href="#m5900e41c06"
                 y="53.529091"
                 id="use226" />
            </g>
          </g>
          <g
             id="text_13">
            <!-- 88 -->
            <g
               transform="translate(26 57.32831)scale(0.1 -0.1)"
               id="g235">
              <use
                 xlink:href="#DejaVuSans-38"
                 id="use231" />
              <use
                 x="63.623047"
                 xlink:href="#DejaVuSans-38"
                 id="use233" />
            </g>
          </g>
        </g>
        <g
           id="ytick_7">
          <g
             id="line2d_13">
            <g
               id="g241">
              <use
                 style="stroke:#000000;stroke-width:0.8;"
                 x="45.725"
                 xlink:href="#m5900e41c06"
                 y="20.583636"
                 id="use239" />
            </g>
          </g>
          <g
             id="text_14">
            <!-- 90 -->
            <defs
               id="defs245">
              <path
                 d="M 10.984375 1.515625  L 10.984375 10.5  Q 14.703125 8.734375 18.5 7.8125  Q 22.3125 6.890625 25.984375 6.890625  Q 35.75 6.890625 40.890625 13.453125  Q 46.046875 20.015625 46.78125 33.40625  Q 43.953125 29.203125 39.59375 26.953125  Q 35.25 24.703125 29.984375 24.703125  Q 19.046875 24.703125 12.671875 31.3125  Q 6.296875 37.9375 6.296875 49.421875  Q 6.296875 60.640625 12.9375 67.421875  Q 19.578125 74.21875 30.609375 74.21875  Q 43.265625 74.21875 49.921875 64.515625  Q 56.59375 54.828125 56.59375 36.375  Q 56.59375 19.140625 48.40625 8.859375  Q 40.234375 -1.421875 26.421875 -1.421875  Q 22.703125 -1.421875 18.890625 -0.6875  Q 15.09375 0.046875 10.984375 1.515625  z M 30.609375 32.421875  Q 37.25 32.421875 41.125 36.953125  Q 45.015625 41.5 45.015625 49.421875  Q 45.015625 57.28125 41.125 61.84375  Q 37.25 66.40625 30.609375 66.40625  Q 23.96875 66.40625 20.09375 61.84375  Q 16.21875 57.28125 16.21875 49.421875  Q 16.21875 41.5 20.09375 36.953125  Q 23.96875 32.421875 30.609375 32.421875  z "
                 id="DejaVuSans-39" />
            </defs>
            <g
               transform="translate(26 24.382855)scale(0.1 -0.1)"
               id="g251">
              <use
                 xlink:href="#DejaVuSans-39"
                 id="use247" />
              <use
                 x="63.623047"
                 xlink:href="#DejaVuSans-30"
                 id="use249" />
            </g>
          </g>
        </g>
        <g
           transform="translate(-8.7561687,-25.864056)"
           id="text_13-3"
           style="stroke-linecap:butt;stroke-linejoin:round">
          <!-- $Age\ at\ \frac{I_{max}}{2}$ -->
          <defs
             id="defs252">
            <path
               inkscape:connector-curvature="0"
               d="M 36.8125,72.90625 H 48 L 61.53125,0 H 51.21875 L 48.1875,18.703125 H 15.375 L 5.078125,0 H -5.328125 Z M 40.375,63.1875 19.921875,26.90625 H 46.6875 Z"
               id="path403"
               style="stroke-linecap:butt;stroke-linejoin:round" />
            <path
               inkscape:connector-curvature="0"
               d="M 16.890625,72.90625 H 26.8125 L 12.59375,0 H 2.6875 Z"
               id="path405"
               style="stroke-linecap:butt;stroke-linejoin:round" />
            <path
               inkscape:connector-curvature="0"
               d="M 89.796875,33.015625 83.40625,0 h -8.984375 l 6.296875,32.71875 q 0.390625,2.09375 0.578125,3.609375 Q 81.5,37.84375 81.5,38.921875 81.5,43.3125 79.046875,45.75 q -2.4375,2.4375 -6.828125,2.4375 -6.546875,0 -11.671875,-4.90625 -5.125,-4.90625 -6.640625,-12.765625 L 47.90625,0 H 38.921875 L 45.3125,32.71875 q 0.390625,1.796875 0.578125,3.328125 0.203125,1.546875 0.203125,2.765625 0,4.453125 -2.4375,6.90625 -2.4375,2.46875 -6.734375,2.46875 -6.640625,0 -11.78125,-4.90625 Q 20.015625,38.375 18.5,30.515625 L 12.5,0 H 3.515625 l 10.6875,54.6875 H 23.1875 l -1.703125,-8.5 q 3.65625,4.796875 8.5625,7.296875 Q 34.96875,56 40.578125,56 q 5.953125,0 9.78125,-3.125 3.84375,-3.125 4.625,-8.6875 4.09375,5.765625 9.484375,8.78125 Q 69.875,56 75.875,56 q 7.03125,0 10.859375,-4.046875 3.84375,-4.046875 3.84375,-11.46875 0,-1.609375 -0.203125,-3.546875 -0.1875,-1.921875 -0.578125,-3.921875 z"
               id="path407"
               style="stroke-linecap:butt;stroke-linejoin:round" />
            <path
               inkscape:connector-curvature="0"
               d="M 60.015625,54.6875 34.90625,27.875 50.296875,0 h -10.3125 L 28.421875,21.6875 8.296875,0 H -2.59375 L 24.3125,28.8125 10.015625,54.6875 H 20.3125 l 10.5,-19.78125 18.3125,19.78125 z"
               id="path409"
               style="stroke-linecap:butt;stroke-linejoin:round" />
          </defs>
          <g
             transform="matrix(0,-0.1,-0.1,0,26.275,168.33)"
             id="g276"
             style="stroke-linecap:butt;stroke-linejoin:round">
            <use
               height="100%"
               width="100%"
               y="0"
               x="0"
               transform="translate(0,0.987656)"
               xlink:href="#DejaVuSans-Oblique-41"
               id="use254"
               style="stroke-linecap:butt;stroke-linejoin:round" />
            <use
               height="100%"
               width="100%"
               y="0"
               x="0"
               transform="translate(68.408203,0.987656)"
               xlink:href="#DejaVuSans-Oblique-67"
               id="use256"
               style="stroke-linecap:butt;stroke-linejoin:round" />
            <use
               height="100%"
               width="100%"
               y="0"
               x="0"
               transform="translate(131.88477,0.987656)"
               xlink:href="#DejaVuSans-Oblique-65"
               id="use258"
               style="stroke-linecap:butt;stroke-linejoin:round" />
            <path
               inkscape:connector-curvature="0"
               id="use260"
               d="M 266.16764,24.389998 261.58561,0.987656 h -6.73828 l 1.24218,6.2226558 q -2.96484,-3.6562497 -6.76171,-5.4726559 -3.78516,-1.8164061 -8.4375,-1.8164061 -5.23828,0 -8.58985,3.1992186 -3.33984,3.2109372 -3.33984,8.2265616 0,7.183594 5.73047,11.355468 5.73047,4.171875 15.79687,4.171875 h 9.375 l 0.36328,1.804687 q 0.082,0.292969 0.11719,0.632813 0.0352,0.351562 0.0352,1.078125 0,3.269531 -2.66015,5.074218 -2.64844,1.816406 -7.45313,1.816406 -3.29297,0 -6.76172,-0.84375 -3.45703,-0.84375 -7.11328,-2.53125 l 1.17188,6.234375 q 3.80859,1.429687 7.45312,2.132812 3.64453,0.714844 7.04297,0.714844 7.2539,0 11.03906,-3.152343 3.79687,-3.140625 3.79687,-9.152344 0,-1.207031 -0.1875,-2.835937 -0.17578,-1.628906 -0.53906,-3.457031 z m -7.28906,-2.789062 h -6.73828 q -8.28516,0 -12.25782,-2.214844 -3.97265,-2.214843 -3.97265,-6.867187 0,-3.2226558 2.02734,-5.0507807 2.03906,-1.8281249 5.625,-1.8281249 5.4961,0 9.59766,3.9374998 4.10156,3.9374998 5.42578,10.5234368 z"
               style="stroke-width:0.74999994;stroke-linecap:butt;stroke-linejoin:round" />
            <path
               inkscape:connector-curvature="0"
               id="use262"
               d="m 318.86881,42.003278 -1.01953,-5.238281 h -13.4414 L 300.0485,14.499374 q -0.22265,-1.242188 -0.32812,-2.085938 -0.10547,-0.843749 -0.10547,-1.312499 0,-2.3437503 1.40625,-3.4101565 1.40625,-1.0664061 4.52344,-1.0664061 h 6.80859 L 311.21647,0.987656 h -6.44531 q -6,0 -8.95312,2.3437498 -2.94141,2.3437499 -2.94141,7.1015622 0,0.84375 0.10547,1.851562 0.10547,1.007813 0.32812,2.214844 l 4.35938,22.265623 h -5.71875 l 1.0664,5.238281 h 5.60157 l 2.27343,11.648437 h 6.73828 l -2.23828,-11.648437 z"
               style="stroke-width:0.74999994;stroke-linecap:butt;stroke-linejoin:round" />
            <use
               height="100%"
               width="100%"
               y="0"
               x="0"
               transform="matrix(0.7,0,0,0.7,358.83724,56.965625)"
               xlink:href="#DejaVuSans-Oblique-49"
               id="use264"
               style="stroke-linecap:butt;stroke-linejoin:round" />
            <use
               height="100%"
               width="100%"
               y="0"
               x="0"
               transform="matrix(0.49,0,0,0.49,379.48177,45.48125)"
               xlink:href="#DejaVuSans-Oblique-6d-6"
               id="use266"
               style="stroke-linecap:butt;stroke-linejoin:round" />
            <path
               inkscape:connector-curvature="0"
               id="use268"
               d="m 446.95535,56.948398 -2.2452,-11.467148 h -3.30175 l 0.60867,3.049101 q -1.45277,-1.791562 -3.31324,-2.681601 -1.85473,-0.890039 -4.13438,-0.890039 -2.56676,0 -4.20902,1.567617 -1.63652,1.573359 -1.63652,4.031015 0,3.519961 2.80792,5.56418 2.80793,2.044218 7.74047,2.044218 h 4.59375 l 0.17801,0.884297 q 0.0402,0.143555 0.0574,0.310078 0.0172,0.172266 0.0172,0.528282 0,1.60207 -1.30348,2.486366 -1.29773,0.890039 -3.65203,0.890039 -1.61355,0 -3.31324,-0.413437 -1.69394,-0.413438 -3.48551,-1.240313 l 0.57422,3.054844 q 1.86621,0.700547 3.65203,1.045078 1.78582,0.350274 3.45106,0.350274 3.55441,0 5.40914,-1.544649 1.86047,-1.538906 1.86047,-4.484648 0,-0.591445 -0.0919,-1.389609 -0.0861,-0.798164 -0.26414,-1.693945 z m -3.57164,-1.366641 h -3.30176 q -4.05973,0 -6.00633,-1.085273 -1.9466,-1.085273 -1.9466,-3.364922 0,-1.579101 0.9934,-2.474883 0.99914,-0.895781 2.75625,-0.895781 2.69309,0 4.70285,1.929375 2.00977,1.929375 2.65863,5.156484 z"
               style="stroke-width:0.36749998;stroke-linecap:butt;stroke-linejoin:round" />
            <use
               height="100%"
               width="100%"
               y="0"
               x="0"
               transform="matrix(0.49,0,0,0.49,457.24056,45.48125)"
               xlink:href="#DejaVuSans-Oblique-78"
               id="use270"
               style="stroke-linecap:butt;stroke-linejoin:round" />
            <use
               height="100%"
               width="100%"
               y="0"
               x="0"
               transform="matrix(0.7,0,0,0.7,400.83724,-38.418594)"
               xlink:href="#DejaVuSans-32"
               id="use272"
               style="stroke-linecap:butt;stroke-linejoin:round" />
            <path
               inkscape:connector-curvature="0"
               d="m 358.83724,19.784531 v 6.25 h 129.31543 v -6.25 z"
               id="path274"
               style="stroke-linecap:butt;stroke-linejoin:round" />
          </g>
        </g>
      </g>
      <g
         id="line2d_14">
        <path
           clip-path="url(#p1d9fed1322)"
           d="M 60.943182 20.583636  L 91.379545 20.583636  L 121.815909 20.583636  L 152.252273 20.583636  L 182.688636 168.838182  L 213.125 119.42  L 243.561364 152.365455  L 273.997727 185.310909  L 304.434091 218.256364  L 334.870455 218.256364  L 365.306818 218.256364  "
           style="fill:none;stroke:#1f77b4;stroke-linecap:square;stroke-width:1.5;"
           id="path302" />
        <defs
           id="defs305">
          <path
             d="M 0 3  C 0.795609 3 1.55874 2.683901 2.12132 2.12132  C 2.683901 1.55874 3 0.795609 3 0  C 3 -0.795609 2.683901 -1.55874 2.12132 -2.12132  C 1.55874 -2.683901 0.795609 -3 0 -3  C -0.795609 -3 -1.55874 -2.683901 -2.12132 -2.12132  C -2.683901 -1.55874 -3 -0.795609 -3 0  C -3 0.795609 -2.683901 1.55874 -2.12132 2.12132  C -1.55874 2.683901 -0.795609 3 0 3  z "
             id="mb4caddb6f0"
             style="stroke:#1f77b4;" />
        </defs>
        <g
           clip-path="url(#p1d9fed1322)"
           id="g329">
          <use
             style="fill:#1f77b4;stroke:#1f77b4;"
             x="60.943182"
             xlink:href="#mb4caddb6f0"
             y="20.583636"
             id="use307" />
          <use
             style="fill:#1f77b4;stroke:#1f77b4;"
             x="91.379545"
             xlink:href="#mb4caddb6f0"
             y="20.583636"
             id="use309" />
          <use
             style="fill:#1f77b4;stroke:#1f77b4;"
             x="121.815909"
             xlink:href="#mb4caddb6f0"
             y="20.583636"
             id="use311" />
          <use
             style="fill:#1f77b4;stroke:#1f77b4;"
             x="152.252273"
             xlink:href="#mb4caddb6f0"
             y="20.583636"
             id="use313" />
          <use
             style="fill:#1f77b4;stroke:#1f77b4;"
             x="182.688636"
             xlink:href="#mb4caddb6f0"
             y="168.838182"
             id="use315" />
          <use
             style="fill:#1f77b4;stroke:#1f77b4;"
             x="213.125"
             xlink:href="#mb4caddb6f0"
             y="119.42"
             id="use317" />
          <use
             style="fill:#1f77b4;stroke:#1f77b4;"
             x="243.561364"
             xlink:href="#mb4caddb6f0"
             y="152.365455"
             id="use319" />
          <use
             style="fill:#1f77b4;stroke:#1f77b4;"
             x="273.997727"
             xlink:href="#mb4caddb6f0"
             y="185.310909"
             id="use321" />
          <use
             style="fill:#1f77b4;stroke:#1f77b4;"
             x="304.434091"
             xlink:href="#mb4caddb6f0"
             y="218.256364"
             id="use323" />
          <use
             style="fill:#1f77b4;stroke:#1f77b4;"
             x="334.870455"
             xlink:href="#mb4caddb6f0"
             y="218.256364"
             id="use325" />
          <use
             style="fill:#1f77b4;stroke:#1f77b4;"
             x="365.306818"
             xlink:href="#mb4caddb6f0"
             y="218.256364"
             id="use327" />
        </g>
      </g>
      <g
         id="patch_3">
        <path
           d="M 45.725 228.14  L 45.725 10.7  "
           style="fill:none;stroke:#000000;stroke-linecap:square;stroke-linejoin:miter;stroke-width:0.8;"
           id="path332" />
      </g>
      <g
         id="patch_4">
        <path
           d="M 380.525 228.14  L 380.525 10.7  "
           style="fill:none;stroke:#000000;stroke-linecap:square;stroke-linejoin:miter;stroke-width:0.8;"
           id="path335" />
      </g>
      <g
         id="patch_5">
        <path
           d="M 45.725 228.14  L 380.525 228.14  "
           style="fill:none;stroke:#000000;stroke-linecap:square;stroke-linejoin:miter;stroke-width:0.8;"
           id="path338" />
      </g>
      <g
         id="patch_6">
        <path
           d="M 45.725 10.7  L 380.525 10.7  "
           style="fill:none;stroke:#000000;stroke-linecap:square;stroke-linejoin:miter;stroke-width:0.8;"
           id="path341" />
      </g>
    </g>
  </g>
  <defs
     id="defs349">
    <clipPath
       id="p1d9fed1322">
      <rect
         height="217.44"
         width="334.8"
         x="45.725"
         y="10.7"
         id="rect346" />
    </clipPath>
  </defs>
</svg>
