<?xml version="1.0" encoding="utf-8" standalone="no"?>
<!DOCTYPE svg PUBLIC "-//W3C//DTD SVG 1.1//EN"
  "http://www.w3.org/Graphics/SVG/1.1/DTD/svg11.dtd">
<!-- Created with matplotlib (http://matplotlib.org/) -->
<svg height="288pt" version="1.1" viewBox="0 0 432 288" width="432pt" xmlns="http://www.w3.org/2000/svg" xmlns:xlink="http://www.w3.org/1999/xlink">
 <defs>
  <style type="text/css">
*{stroke-linecap:butt;stroke-linejoin:round;}
  </style>
 </defs>
 <g id="figure_1">
  <g id="patch_1">
   <path d="M 0 288 
L 432 288 
L 432 0 
L 0 0 
z
" style="fill:#ffffff;"/>
  </g>
  <g id="axes_1">
   <g id="patch_2">
    <path d="M 54 252 
L 388.8 252 
L 388.8 34.56 
L 54 34.56 
z
" style="fill:#ffffff;"/>
   </g>
   <g id="matplotlib.axis_1">
    <g id="xtick_1">
     <g id="line2d_1">
      <defs>
       <path d="M 0 0 
L 0 3.5 
" id="m5db48a8182" style="stroke:#000000;stroke-width:0.8;"/>
      </defs>
      <g>
       <use style="stroke:#000000;stroke-width:0.8;" x="69.218182" xlink:href="#m5db48a8182" y="252"/>
      </g>
     </g>
     <g id="text_1">
      <!-- 0 -->
      <defs>
       <path d="M 31.78125 66.40625 
Q 24.171875 66.40625 20.328125 58.90625 
Q 16.5 51.421875 16.5 36.375 
Q 16.5 21.390625 20.328125 13.890625 
Q 24.171875 6.390625 31.78125 6.390625 
Q 39.453125 6.390625 43.28125 13.890625 
Q 47.125 21.390625 47.125 36.375 
Q 47.125 51.421875 43.28125 58.90625 
Q 39.453125 66.40625 31.78125 66.40625 
z
M 31.78125 74.21875 
Q 44.046875 74.21875 50.515625 64.515625 
Q 56.984375 54.828125 56.984375 36.375 
Q 56.984375 17.96875 50.515625 8.265625 
Q 44.046875 -1.421875 31.78125 -1.421875 
Q 19.53125 -1.421875 13.0625 8.265625 
Q 6.59375 17.96875 6.59375 36.375 
Q 6.59375 54.828125 13.0625 64.515625 
Q 19.53125 74.21875 31.78125 74.21875 
z
" id="DejaVuSans-30"/>
      </defs>
      <g transform="translate(66.036932 266.598437)scale(0.1 -0.1)">
       <use xlink:href="#DejaVuSans-30"/>
      </g>
     </g>
    </g>
    <g id="xtick_2">
     <g id="line2d_2">
      <g>
       <use style="stroke:#000000;stroke-width:0.8;" x="137.614505" xlink:href="#m5db48a8182" y="252"/>
      </g>
     </g>
     <g id="text_2">
      <!-- 20 -->
      <defs>
       <path d="M 19.1875 8.296875 
L 53.609375 8.296875 
L 53.609375 0 
L 7.328125 0 
L 7.328125 8.296875 
Q 12.9375 14.109375 22.625 23.890625 
Q 32.328125 33.6875 34.8125 36.53125 
Q 39.546875 41.84375 41.421875 45.53125 
Q 43.3125 49.21875 43.3125 52.78125 
Q 43.3125 58.59375 39.234375 62.25 
Q 35.15625 65.921875 28.609375 65.921875 
Q 23.96875 65.921875 18.8125 64.3125 
Q 13.671875 62.703125 7.8125 59.421875 
L 7.8125 69.390625 
Q 13.765625 71.78125 18.9375 73 
Q 24.125 74.21875 28.421875 74.21875 
Q 39.75 74.21875 46.484375 68.546875 
Q 53.21875 62.890625 53.21875 53.421875 
Q 53.21875 48.921875 51.53125 44.890625 
Q 49.859375 40.875 45.40625 35.40625 
Q 44.1875 33.984375 37.640625 27.21875 
Q 31.109375 20.453125 19.1875 8.296875 
z
" id="DejaVuSans-32"/>
      </defs>
      <g transform="translate(131.252005 266.598437)scale(0.1 -0.1)">
       <use xlink:href="#DejaVuSans-32"/>
       <use x="63.623047" xlink:href="#DejaVuSans-30"/>
      </g>
     </g>
    </g>
    <g id="xtick_3">
     <g id="line2d_3">
      <g>
       <use style="stroke:#000000;stroke-width:0.8;" x="206.010827" xlink:href="#m5db48a8182" y="252"/>
      </g>
     </g>
     <g id="text_3">
      <!-- 40 -->
      <defs>
       <path d="M 37.796875 64.3125 
L 12.890625 25.390625 
L 37.796875 25.390625 
z
M 35.203125 72.90625 
L 47.609375 72.90625 
L 47.609375 25.390625 
L 58.015625 25.390625 
L 58.015625 17.1875 
L 47.609375 17.1875 
L 47.609375 0 
L 37.796875 0 
L 37.796875 17.1875 
L 4.890625 17.1875 
L 4.890625 26.703125 
z
" id="DejaVuSans-34"/>
      </defs>
      <g transform="translate(199.648327 266.598437)scale(0.1 -0.1)">
       <use xlink:href="#DejaVuSans-34"/>
       <use x="63.623047" xlink:href="#DejaVuSans-30"/>
      </g>
     </g>
    </g>
    <g id="xtick_4">
     <g id="line2d_4">
      <g>
       <use style="stroke:#000000;stroke-width:0.8;" x="274.40715" xlink:href="#m5db48a8182" y="252"/>
      </g>
     </g>
     <g id="text_4">
      <!-- 60 -->
      <defs>
       <path d="M 33.015625 40.375 
Q 26.375 40.375 22.484375 35.828125 
Q 18.609375 31.296875 18.609375 23.390625 
Q 18.609375 15.53125 22.484375 10.953125 
Q 26.375 6.390625 33.015625 6.390625 
Q 39.65625 6.390625 43.53125 10.953125 
Q 47.40625 15.53125 47.40625 23.390625 
Q 47.40625 31.296875 43.53125 35.828125 
Q 39.65625 40.375 33.015625 40.375 
z
M 52.59375 71.296875 
L 52.59375 62.3125 
Q 48.875 64.0625 45.09375 64.984375 
Q 41.3125 65.921875 37.59375 65.921875 
Q 27.828125 65.921875 22.671875 59.328125 
Q 17.53125 52.734375 16.796875 39.40625 
Q 19.671875 43.65625 24.015625 45.921875 
Q 28.375 48.1875 33.59375 48.1875 
Q 44.578125 48.1875 50.953125 41.515625 
Q 57.328125 34.859375 57.328125 23.390625 
Q 57.328125 12.15625 50.6875 5.359375 
Q 44.046875 -1.421875 33.015625 -1.421875 
Q 20.359375 -1.421875 13.671875 8.265625 
Q 6.984375 17.96875 6.984375 36.375 
Q 6.984375 53.65625 15.1875 63.9375 
Q 23.390625 74.21875 37.203125 74.21875 
Q 40.921875 74.21875 44.703125 73.484375 
Q 48.484375 72.75 52.59375 71.296875 
z
" id="DejaVuSans-36"/>
      </defs>
      <g transform="translate(268.04465 266.598437)scale(0.1 -0.1)">
       <use xlink:href="#DejaVuSans-36"/>
       <use x="63.623047" xlink:href="#DejaVuSans-30"/>
      </g>
     </g>
    </g>
    <g id="xtick_5">
     <g id="line2d_5">
      <g>
       <use style="stroke:#000000;stroke-width:0.8;" x="342.803473" xlink:href="#m5db48a8182" y="252"/>
      </g>
     </g>
     <g id="text_5">
      <!-- 80 -->
      <defs>
       <path d="M 31.78125 34.625 
Q 24.75 34.625 20.71875 30.859375 
Q 16.703125 27.09375 16.703125 20.515625 
Q 16.703125 13.921875 20.71875 10.15625 
Q 24.75 6.390625 31.78125 6.390625 
Q 38.8125 6.390625 42.859375 10.171875 
Q 46.921875 13.96875 46.921875 20.515625 
Q 46.921875 27.09375 42.890625 30.859375 
Q 38.875 34.625 31.78125 34.625 
z
M 21.921875 38.8125 
Q 15.578125 40.375 12.03125 44.71875 
Q 8.5 49.078125 8.5 55.328125 
Q 8.5 64.0625 14.71875 69.140625 
Q 20.953125 74.21875 31.78125 74.21875 
Q 42.671875 74.21875 48.875 69.140625 
Q 55.078125 64.0625 55.078125 55.328125 
Q 55.078125 49.078125 51.53125 44.71875 
Q 48 40.375 41.703125 38.8125 
Q 48.828125 37.15625 52.796875 32.3125 
Q 56.78125 27.484375 56.78125 20.515625 
Q 56.78125 9.90625 50.3125 4.234375 
Q 43.84375 -1.421875 31.78125 -1.421875 
Q 19.734375 -1.421875 13.25 4.234375 
Q 6.78125 9.90625 6.78125 20.515625 
Q 6.78125 27.484375 10.78125 32.3125 
Q 14.796875 37.15625 21.921875 38.8125 
z
M 18.3125 54.390625 
Q 18.3125 48.734375 21.84375 45.5625 
Q 25.390625 42.390625 31.78125 42.390625 
Q 38.140625 42.390625 41.71875 45.5625 
Q 45.3125 48.734375 45.3125 54.390625 
Q 45.3125 60.0625 41.71875 63.234375 
Q 38.140625 66.40625 31.78125 66.40625 
Q 25.390625 66.40625 21.84375 63.234375 
Q 18.3125 60.0625 18.3125 54.390625 
z
" id="DejaVuSans-38"/>
      </defs>
      <g transform="translate(336.440973 266.598437)scale(0.1 -0.1)">
       <use xlink:href="#DejaVuSans-38"/>
       <use x="63.623047" xlink:href="#DejaVuSans-30"/>
      </g>
     </g>
    </g>
    <g id="text_6">
     <!-- $Age$ -->
     <defs>
      <path d="M 36.8125 72.90625 
L 48 72.90625 
L 61.53125 0 
L 51.21875 0 
L 48.1875 18.703125 
L 15.375 18.703125 
L 5.078125 0 
L -5.328125 0 
z
M 40.375 63.1875 
L 19.921875 26.90625 
L 46.6875 26.90625 
z
" id="DejaVuSans-Oblique-41"/>
      <path d="M 59.625 54.6875 
L 50.296875 6.78125 
Q 47.609375 -7.125 40.015625 -13.953125 
Q 32.421875 -20.796875 19.578125 -20.796875 
Q 14.84375 -20.796875 10.78125 -20.09375 
Q 6.734375 -19.390625 3.21875 -17.921875 
L 4.890625 -9.1875 
Q 8.203125 -11.328125 11.90625 -12.34375 
Q 15.625 -13.375 19.828125 -13.375 
Q 28.375 -13.375 33.859375 -8.703125 
Q 39.359375 -4.046875 41.109375 4.6875 
L 41.890625 8.796875 
Q 38.140625 4.5 33.15625 2.25 
Q 28.171875 0 22.40625 0 
Q 14.109375 0 9.34375 5.484375 
Q 4.59375 10.984375 4.59375 20.609375 
Q 4.59375 28.171875 7.46875 35.421875 
Q 10.359375 42.671875 15.578125 48.296875 
Q 19.046875 52 23.65625 54 
Q 28.265625 56 33.296875 56 
Q 38.8125 56 42.90625 53.4375 
Q 47.015625 50.875 49.03125 46.1875 
L 50.59375 54.6875 
z
M 46.09375 34.625 
Q 46.09375 41.265625 42.96875 44.875 
Q 39.84375 48.484375 34.078125 48.484375 
Q 30.515625 48.484375 27.296875 47.0625 
Q 24.078125 45.65625 21.78125 43.109375 
Q 18.0625 38.921875 15.984375 33.234375 
Q 13.921875 27.546875 13.921875 21.484375 
Q 13.921875 14.75 17.0625 11.125 
Q 20.21875 7.515625 26.125 7.515625 
Q 34.671875 7.515625 40.375 15.25 
Q 46.09375 23 46.09375 34.625 
z
" id="DejaVuSans-Oblique-67"/>
      <path d="M 48.09375 32.234375 
Q 48.25 33.015625 48.3125 33.84375 
Q 48.390625 34.671875 48.390625 35.5 
Q 48.390625 41.453125 44.890625 44.921875 
Q 41.40625 48.390625 35.40625 48.390625 
Q 28.71875 48.390625 23.578125 44.15625 
Q 18.453125 39.9375 15.828125 32.171875 
z
M 55.90625 25.203125 
L 14.109375 25.203125 
Q 13.8125 23.34375 13.71875 22.265625 
Q 13.625 21.1875 13.625 20.40625 
Q 13.625 13.625 17.796875 9.90625 
Q 21.96875 6.203125 29.59375 6.203125 
Q 35.453125 6.203125 40.671875 7.515625 
Q 45.90625 8.84375 50.390625 11.375 
L 48.6875 2.484375 
Q 43.84375 0.53125 38.6875 -0.4375 
Q 33.546875 -1.421875 28.21875 -1.421875 
Q 16.84375 -1.421875 10.71875 4.015625 
Q 4.59375 9.46875 4.59375 19.484375 
Q 4.59375 28.03125 7.640625 35.375 
Q 10.6875 42.71875 16.609375 48.484375 
Q 20.40625 52.09375 25.65625 54.046875 
Q 30.90625 56 36.8125 56 
Q 46.09375 56 51.578125 50.4375 
Q 57.078125 44.875 57.078125 35.5 
Q 57.078125 33.25 56.78125 30.6875 
Q 56.5 28.125 55.90625 25.203125 
z
" id="DejaVuSans-Oblique-65"/>
     </defs>
     <g transform="translate(211.7 280.25625)scale(0.1 -0.1)">
      <use transform="translate(0 0.09375)" xlink:href="#DejaVuSans-Oblique-41"/>
      <use transform="translate(68.408203 0.09375)" xlink:href="#DejaVuSans-Oblique-67"/>
      <use transform="translate(131.884766 0.09375)" xlink:href="#DejaVuSans-Oblique-65"/>
     </g>
    </g>
   </g>
   <g id="matplotlib.axis_2">
    <g id="ytick_1">
     <g id="line2d_6">
      <defs>
       <path d="M 0 0 
L -3.5 0 
" id="m7b46b7893f" style="stroke:#000000;stroke-width:0.8;"/>
      </defs>
      <g>
       <use style="stroke:#000000;stroke-width:0.8;" x="54" xlink:href="#m7b46b7893f" y="242.116364"/>
      </g>
     </g>
     <g id="text_7">
      <!-- 0 -->
      <g transform="translate(40.6375 245.915582)scale(0.1 -0.1)">
       <use xlink:href="#DejaVuSans-30"/>
      </g>
     </g>
    </g>
    <g id="ytick_2">
     <g id="line2d_7">
      <g>
       <use style="stroke:#000000;stroke-width:0.8;" x="54" xlink:href="#m7b46b7893f" y="207.87902"/>
      </g>
     </g>
     <g id="text_8">
      <!-- 5000 -->
      <defs>
       <path d="M 10.796875 72.90625 
L 49.515625 72.90625 
L 49.515625 64.59375 
L 19.828125 64.59375 
L 19.828125 46.734375 
Q 21.96875 47.46875 24.109375 47.828125 
Q 26.265625 48.1875 28.421875 48.1875 
Q 40.625 48.1875 47.75 41.5 
Q 54.890625 34.8125 54.890625 23.390625 
Q 54.890625 11.625 47.5625 5.09375 
Q 40.234375 -1.421875 26.90625 -1.421875 
Q 22.3125 -1.421875 17.546875 -0.640625 
Q 12.796875 0.140625 7.71875 1.703125 
L 7.71875 11.625 
Q 12.109375 9.234375 16.796875 8.0625 
Q 21.484375 6.890625 26.703125 6.890625 
Q 35.15625 6.890625 40.078125 11.328125 
Q 45.015625 15.765625 45.015625 23.390625 
Q 45.015625 31 40.078125 35.4375 
Q 35.15625 39.890625 26.703125 39.890625 
Q 22.75 39.890625 18.8125 39.015625 
Q 14.890625 38.140625 10.796875 36.28125 
z
" id="DejaVuSans-35"/>
      </defs>
      <g transform="translate(21.55 211.678239)scale(0.1 -0.1)">
       <use xlink:href="#DejaVuSans-35"/>
       <use x="63.623047" xlink:href="#DejaVuSans-30"/>
       <use x="127.246094" xlink:href="#DejaVuSans-30"/>
       <use x="190.869141" xlink:href="#DejaVuSans-30"/>
      </g>
     </g>
    </g>
    <g id="ytick_3">
     <g id="line2d_8">
      <g>
       <use style="stroke:#000000;stroke-width:0.8;" x="54" xlink:href="#m7b46b7893f" y="173.641676"/>
      </g>
     </g>
     <g id="text_9">
      <!-- 10000 -->
      <defs>
       <path d="M 12.40625 8.296875 
L 28.515625 8.296875 
L 28.515625 63.921875 
L 10.984375 60.40625 
L 10.984375 69.390625 
L 28.421875 72.90625 
L 38.28125 72.90625 
L 38.28125 8.296875 
L 54.390625 8.296875 
L 54.390625 0 
L 12.40625 0 
z
" id="DejaVuSans-31"/>
      </defs>
      <g transform="translate(15.1875 177.440895)scale(0.1 -0.1)">
       <use xlink:href="#DejaVuSans-31"/>
       <use x="63.623047" xlink:href="#DejaVuSans-30"/>
       <use x="127.246094" xlink:href="#DejaVuSans-30"/>
       <use x="190.869141" xlink:href="#DejaVuSans-30"/>
       <use x="254.492188" xlink:href="#DejaVuSans-30"/>
      </g>
     </g>
    </g>
    <g id="ytick_4">
     <g id="line2d_9">
      <g>
       <use style="stroke:#000000;stroke-width:0.8;" x="54" xlink:href="#m7b46b7893f" y="139.404333"/>
      </g>
     </g>
     <g id="text_10">
      <!-- 15000 -->
      <g transform="translate(15.1875 143.203551)scale(0.1 -0.1)">
       <use xlink:href="#DejaVuSans-31"/>
       <use x="63.623047" xlink:href="#DejaVuSans-35"/>
       <use x="127.246094" xlink:href="#DejaVuSans-30"/>
       <use x="190.869141" xlink:href="#DejaVuSans-30"/>
       <use x="254.492188" xlink:href="#DejaVuSans-30"/>
      </g>
     </g>
    </g>
    <g id="ytick_5">
     <g id="line2d_10">
      <g>
       <use style="stroke:#000000;stroke-width:0.8;" x="54" xlink:href="#m7b46b7893f" y="105.166989"/>
      </g>
     </g>
     <g id="text_11">
      <!-- 20000 -->
      <g transform="translate(15.1875 108.966208)scale(0.1 -0.1)">
       <use xlink:href="#DejaVuSans-32"/>
       <use x="63.623047" xlink:href="#DejaVuSans-30"/>
       <use x="127.246094" xlink:href="#DejaVuSans-30"/>
       <use x="190.869141" xlink:href="#DejaVuSans-30"/>
       <use x="254.492188" xlink:href="#DejaVuSans-30"/>
      </g>
     </g>
    </g>
    <g id="ytick_6">
     <g id="line2d_11">
      <g>
       <use style="stroke:#000000;stroke-width:0.8;" x="54" xlink:href="#m7b46b7893f" y="70.929645"/>
      </g>
     </g>
     <g id="text_12">
      <!-- 25000 -->
      <g transform="translate(15.1875 74.728864)scale(0.1 -0.1)">
       <use xlink:href="#DejaVuSans-32"/>
       <use x="63.623047" xlink:href="#DejaVuSans-35"/>
       <use x="127.246094" xlink:href="#DejaVuSans-30"/>
       <use x="190.869141" xlink:href="#DejaVuSans-30"/>
       <use x="254.492188" xlink:href="#DejaVuSans-30"/>
      </g>
     </g>
    </g>
    <g id="ytick_7">
     <g id="line2d_12">
      <g>
       <use style="stroke:#000000;stroke-width:0.8;" x="54" xlink:href="#m7b46b7893f" y="36.692302"/>
      </g>
     </g>
     <g id="text_13">
      <!-- 30000 -->
      <defs>
       <path d="M 40.578125 39.3125 
Q 47.65625 37.796875 51.625 33 
Q 55.609375 28.21875 55.609375 21.1875 
Q 55.609375 10.40625 48.1875 4.484375 
Q 40.765625 -1.421875 27.09375 -1.421875 
Q 22.515625 -1.421875 17.65625 -0.515625 
Q 12.796875 0.390625 7.625 2.203125 
L 7.625 11.71875 
Q 11.71875 9.328125 16.59375 8.109375 
Q 21.484375 6.890625 26.8125 6.890625 
Q 36.078125 6.890625 40.9375 10.546875 
Q 45.796875 14.203125 45.796875 21.1875 
Q 45.796875 27.640625 41.28125 31.265625 
Q 36.765625 34.90625 28.71875 34.90625 
L 20.21875 34.90625 
L 20.21875 43.015625 
L 29.109375 43.015625 
Q 36.375 43.015625 40.234375 45.921875 
Q 44.09375 48.828125 44.09375 54.296875 
Q 44.09375 59.90625 40.109375 62.90625 
Q 36.140625 65.921875 28.71875 65.921875 
Q 24.65625 65.921875 20.015625 65.03125 
Q 15.375 64.15625 9.8125 62.3125 
L 9.8125 71.09375 
Q 15.4375 72.65625 20.34375 73.4375 
Q 25.25 74.21875 29.59375 74.21875 
Q 40.828125 74.21875 47.359375 69.109375 
Q 53.90625 64.015625 53.90625 55.328125 
Q 53.90625 49.265625 50.4375 45.09375 
Q 46.96875 40.921875 40.578125 39.3125 
z
" id="DejaVuSans-33"/>
      </defs>
      <g transform="translate(15.1875 40.491521)scale(0.1 -0.1)">
       <use xlink:href="#DejaVuSans-33"/>
       <use x="63.623047" xlink:href="#DejaVuSans-30"/>
       <use x="127.246094" xlink:href="#DejaVuSans-30"/>
       <use x="190.869141" xlink:href="#DejaVuSans-30"/>
       <use x="254.492188" xlink:href="#DejaVuSans-30"/>
      </g>
     </g>
    </g>
    <g id="text_14">
     <!-- $Cumulative\ incidence$ -->
     <defs>
      <path d="M 69.484375 67.28125 
L 67.484375 56.890625 
Q 62.796875 61.625 57.546875 63.921875 
Q 52.296875 66.21875 46.1875 66.21875 
Q 37.84375 66.21875 31.515625 62.203125 
Q 25.203125 58.203125 20.609375 50 
Q 17.671875 44.734375 16.125 38.84375 
Q 14.59375 32.953125 14.59375 27 
Q 14.59375 17.046875 19.75 11.8125 
Q 24.90625 6.59375 34.71875 6.59375 
Q 41.5 6.59375 47.75 8.765625 
Q 54 10.9375 59.90625 15.28125 
L 57.625 3.609375 
Q 51.8125 1.125 45.875 -0.140625 
Q 39.9375 -1.421875 33.984375 -1.421875 
Q 19.96875 -1.421875 12.078125 6.1875 
Q 4.203125 13.8125 4.203125 27.390625 
Q 4.203125 36.078125 7.203125 44.46875 
Q 10.203125 52.875 15.828125 59.8125 
Q 21.78125 67.1875 29.421875 70.703125 
Q 37.0625 74.21875 47.21875 74.21875 
Q 53.46875 74.21875 59.0625 72.484375 
Q 64.65625 70.75 69.484375 67.28125 
z
" id="DejaVuSans-Oblique-43"/>
      <path d="M 6.6875 21.6875 
L 13.09375 54.6875 
L 22.125 54.6875 
L 15.71875 22.015625 
Q 15.234375 19.625 15.015625 17.921875 
Q 14.796875 16.21875 14.796875 15.09375 
Q 14.796875 10.9375 17.328125 8.65625 
Q 19.875 6.390625 24.515625 6.390625 
Q 31.734375 6.390625 37 11.265625 
Q 42.28125 16.15625 43.890625 24.421875 
L 49.90625 54.6875 
L 58.890625 54.6875 
L 48.296875 0 
L 39.3125 0 
L 41.109375 8.59375 
Q 37.3125 3.8125 32.0625 1.1875 
Q 26.8125 -1.421875 20.90625 -1.421875 
Q 13.71875 -1.421875 9.71875 2.515625 
Q 5.71875 6.453125 5.71875 13.484375 
Q 5.71875 14.9375 5.953125 17.140625 
Q 6.203125 19.34375 6.6875 21.6875 
z
" id="DejaVuSans-Oblique-75"/>
      <path d="M 89.796875 33.015625 
L 83.40625 0 
L 74.421875 0 
L 80.71875 32.71875 
Q 81.109375 34.8125 81.296875 36.328125 
Q 81.5 37.84375 81.5 38.921875 
Q 81.5 43.3125 79.046875 45.75 
Q 76.609375 48.1875 72.21875 48.1875 
Q 65.671875 48.1875 60.546875 43.28125 
Q 55.421875 38.375 53.90625 30.515625 
L 47.90625 0 
L 38.921875 0 
L 45.3125 32.71875 
Q 45.703125 34.515625 45.890625 36.046875 
Q 46.09375 37.59375 46.09375 38.8125 
Q 46.09375 43.265625 43.65625 45.71875 
Q 41.21875 48.1875 36.921875 48.1875 
Q 30.28125 48.1875 25.140625 43.28125 
Q 20.015625 38.375 18.5 30.515625 
L 12.5 0 
L 3.515625 0 
L 14.203125 54.6875 
L 23.1875 54.6875 
L 21.484375 46.1875 
Q 25.140625 50.984375 30.046875 53.484375 
Q 34.96875 56 40.578125 56 
Q 46.53125 56 50.359375 52.875 
Q 54.203125 49.75 54.984375 44.1875 
Q 59.078125 49.953125 64.46875 52.96875 
Q 69.875 56 75.875 56 
Q 82.90625 56 86.734375 51.953125 
Q 90.578125 47.90625 90.578125 40.484375 
Q 90.578125 38.875 90.375 36.9375 
Q 90.1875 35.015625 89.796875 33.015625 
z
" id="DejaVuSans-Oblique-6d"/>
      <path d="M 18.3125 75.984375 
L 27.296875 75.984375 
L 12.5 0 
L 3.515625 0 
z
" id="DejaVuSans-Oblique-6c"/>
      <path d="M 53.71875 31.203125 
L 47.609375 0 
L 38.625 0 
L 40.28125 8.296875 
Q 36.328125 3.421875 31.265625 1 
Q 26.21875 -1.421875 20.015625 -1.421875 
Q 13.03125 -1.421875 8.5625 2.84375 
Q 4.109375 7.125 4.109375 13.8125 
Q 4.109375 23.390625 11.75 28.953125 
Q 19.390625 34.515625 32.8125 34.515625 
L 45.3125 34.515625 
L 45.796875 36.921875 
Q 45.90625 37.3125 45.953125 37.765625 
Q 46 38.234375 46 39.203125 
Q 46 43.5625 42.453125 45.96875 
Q 38.921875 48.390625 32.515625 48.390625 
Q 28.125 48.390625 23.5 47.265625 
Q 18.890625 46.140625 14.015625 43.890625 
L 15.578125 52.203125 
Q 20.65625 54.109375 25.515625 55.046875 
Q 30.375 56 34.90625 56 
Q 44.578125 56 49.625 51.796875 
Q 54.6875 47.609375 54.6875 39.59375 
Q 54.6875 37.984375 54.4375 35.8125 
Q 54.203125 33.640625 53.71875 31.203125 
z
M 44 27.484375 
L 35.015625 27.484375 
Q 23.96875 27.484375 18.671875 24.53125 
Q 13.375 21.578125 13.375 15.375 
Q 13.375 11.078125 16.078125 8.640625 
Q 18.796875 6.203125 23.578125 6.203125 
Q 30.90625 6.203125 36.375 11.453125 
Q 41.84375 16.703125 43.609375 25.484375 
z
" id="DejaVuSans-Oblique-61"/>
      <path d="M 42.28125 54.6875 
L 40.921875 47.703125 
L 23 47.703125 
L 17.1875 18.015625 
Q 16.890625 16.359375 16.75 15.234375 
Q 16.609375 14.109375 16.609375 13.484375 
Q 16.609375 10.359375 18.484375 8.9375 
Q 20.359375 7.515625 24.515625 7.515625 
L 33.59375 7.515625 
L 32.078125 0 
L 23.484375 0 
Q 15.484375 0 11.546875 3.125 
Q 7.625 6.25 7.625 12.59375 
Q 7.625 13.71875 7.765625 15.0625 
Q 7.90625 16.40625 8.203125 18.015625 
L 14.015625 47.703125 
L 6.390625 47.703125 
L 7.8125 54.6875 
L 15.28125 54.6875 
L 18.3125 70.21875 
L 27.296875 70.21875 
L 24.3125 54.6875 
z
" id="DejaVuSans-Oblique-74"/>
      <path d="M 18.3125 75.984375 
L 27.296875 75.984375 
L 25.09375 64.59375 
L 16.109375 64.59375 
z
M 14.203125 54.6875 
L 23.1875 54.6875 
L 12.5 0 
L 3.515625 0 
z
" id="DejaVuSans-Oblique-69"/>
      <path d="M 7.171875 54.6875 
L 16.703125 54.6875 
L 24.703125 8.203125 
L 50.875 54.6875 
L 60.40625 54.6875 
L 29.296875 0 
L 17.1875 0 
z
" id="DejaVuSans-Oblique-76"/>
      <path d="M 55.71875 33.015625 
L 49.3125 0 
L 40.28125 0 
L 46.6875 32.671875 
Q 47.125 34.96875 47.359375 36.71875 
Q 47.609375 38.484375 47.609375 39.5 
Q 47.609375 43.609375 45.015625 45.890625 
Q 42.4375 48.1875 37.796875 48.1875 
Q 30.5625 48.1875 25.34375 43.375 
Q 20.125 38.578125 18.5 30.328125 
L 12.5 0 
L 3.515625 0 
L 14.109375 54.6875 
L 23.09375 54.6875 
L 21.296875 46.09375 
Q 25.046875 50.828125 30.3125 53.40625 
Q 35.59375 56 41.40625 56 
Q 48.640625 56 52.609375 52.09375 
Q 56.59375 48.1875 56.59375 41.109375 
Q 56.59375 39.359375 56.375 37.359375 
Q 56.15625 35.359375 55.71875 33.015625 
z
" id="DejaVuSans-Oblique-6e"/>
      <path d="M 53.609375 52.59375 
L 51.8125 43.703125 
Q 48.578125 46.046875 44.9375 47.21875 
Q 41.3125 48.390625 37.40625 48.390625 
Q 33.109375 48.390625 29.21875 46.875 
Q 25.34375 45.359375 22.703125 42.578125 
Q 18.5 38.328125 16.203125 32.609375 
Q 13.921875 26.90625 13.921875 20.796875 
Q 13.921875 13.421875 17.609375 9.8125 
Q 21.296875 6.203125 28.8125 6.203125 
Q 32.515625 6.203125 36.6875 7.328125 
Q 40.875 8.453125 45.40625 10.6875 
L 43.703125 1.8125 
Q 39.796875 0.203125 35.671875 -0.609375 
Q 31.546875 -1.421875 27.203125 -1.421875 
Q 16.3125 -1.421875 10.453125 4.015625 
Q 4.59375 9.46875 4.59375 19.578125 
Q 4.59375 28.078125 7.640625 35.234375 
Q 10.6875 42.390625 16.703125 48.09375 
Q 20.796875 52 26.3125 54 
Q 31.84375 56 38.375 56 
Q 42.1875 56 45.9375 55.140625 
Q 49.703125 54.296875 53.609375 52.59375 
z
" id="DejaVuSans-Oblique-63"/>
      <path d="M 41.796875 8.203125 
Q 38.1875 3.46875 33.25 1.015625 
Q 28.328125 -1.421875 22.3125 -1.421875 
Q 14.109375 -1.421875 9.34375 4.171875 
Q 4.59375 9.765625 4.59375 19.484375 
Q 4.59375 27.59375 7.46875 34.9375 
Q 10.359375 42.28125 15.828125 48.09375 
Q 19.4375 51.953125 23.96875 53.96875 
Q 28.515625 56 33.5 56 
Q 38.765625 56 42.796875 53.453125 
Q 46.828125 50.921875 49.03125 46.1875 
L 54.890625 75.984375 
L 63.921875 75.984375 
L 49.125 0 
L 40.09375 0 
z
M 13.921875 21.09375 
Q 13.921875 14.015625 17.109375 10.0625 
Q 20.3125 6.109375 25.984375 6.109375 
Q 30.171875 6.109375 33.765625 8.125 
Q 37.359375 10.15625 40.09375 14.109375 
Q 42.96875 18.21875 44.625 23.578125 
Q 46.296875 28.953125 46.296875 34.1875 
Q 46.296875 40.96875 43.09375 44.765625 
Q 39.890625 48.578125 34.28125 48.578125 
Q 30.03125 48.578125 26.359375 46.578125 
Q 22.703125 44.578125 20.125 40.828125 
Q 17.28125 36.765625 15.59375 31.390625 
Q 13.921875 26.03125 13.921875 21.09375 
z
" id="DejaVuSans-Oblique-64"/>
     </defs>
     <g transform="translate(9.107812 197.43)rotate(-90)scale(0.1 -0.1)">
      <use transform="translate(0 0.015625)" xlink:href="#DejaVuSans-Oblique-43"/>
      <use transform="translate(69.824219 0.015625)" xlink:href="#DejaVuSans-Oblique-75"/>
      <use transform="translate(133.203125 0.015625)" xlink:href="#DejaVuSans-Oblique-6d"/>
      <use transform="translate(230.615234 0.015625)" xlink:href="#DejaVuSans-Oblique-75"/>
      <use transform="translate(293.994141 0.015625)" xlink:href="#DejaVuSans-Oblique-6c"/>
      <use transform="translate(321.777344 0.015625)" xlink:href="#DejaVuSans-Oblique-61"/>
      <use transform="translate(383.056641 0.015625)" xlink:href="#DejaVuSans-Oblique-74"/>
      <use transform="translate(422.265625 0.015625)" xlink:href="#DejaVuSans-Oblique-69"/>
      <use transform="translate(450.048828 0.015625)" xlink:href="#DejaVuSans-Oblique-76"/>
      <use transform="translate(509.228516 0.015625)" xlink:href="#DejaVuSans-Oblique-65"/>
      <use transform="translate(603.222332 0.015625)" xlink:href="#DejaVuSans-Oblique-69"/>
      <use transform="translate(631.005535 0.015625)" xlink:href="#DejaVuSans-Oblique-6e"/>
      <use transform="translate(694.384441 0.015625)" xlink:href="#DejaVuSans-Oblique-63"/>
      <use transform="translate(749.36491 0.015625)" xlink:href="#DejaVuSans-Oblique-69"/>
      <use transform="translate(777.148113 0.015625)" xlink:href="#DejaVuSans-Oblique-64"/>
      <use transform="translate(840.624675 0.015625)" xlink:href="#DejaVuSans-Oblique-65"/>
      <use transform="translate(902.148113 0.015625)" xlink:href="#DejaVuSans-Oblique-6e"/>
      <use transform="translate(965.527019 0.015625)" xlink:href="#DejaVuSans-Oblique-63"/>
      <use transform="translate(1020.507488 0.015625)" xlink:href="#DejaVuSans-Oblique-65"/>
     </g>
    </g>
   </g>
   <g id="line2d_13">
    <path clip-path="url(#p96eb3719bf)" d="M 69.218182 242.116364 
L 72.637998 242.116364 
L 76.057814 242.116364 
L 79.47763 242.116364 
L 82.897446 242.116364 
L 86.317263 242.116364 
L 89.737079 242.116364 
L 93.156895 242.116364 
L 96.576711 242.116364 
L 99.996527 242.116364 
L 103.416343 242.116364 
L 106.836159 242.116364 
L 110.255975 242.116364 
L 113.675792 242.116364 
L 117.095608 242.116364 
L 120.515424 242.116364 
L 123.93524 242.116364 
L 127.355056 242.116364 
L 130.774872 242.116364 
L 134.194688 242.116364 
L 137.614505 242.116364 
L 141.034321 242.116364 
L 144.454137 242.116364 
L 147.873953 242.116364 
L 151.293769 242.116364 
L 154.713585 242.116364 
L 158.133401 242.116364 
L 161.553218 242.116364 
L 164.973034 242.116364 
L 168.39285 242.116364 
L 171.812666 242.116364 
L 175.232482 242.116364 
L 178.652298 242.116364 
L 182.072114 242.116364 
L 185.491931 242.116364 
L 188.911747 242.116364 
L 192.331563 242.116364 
L 195.751379 242.116364 
L 199.171195 242.116364 
L 202.591011 242.116364 
L 206.010827 242.116364 
L 209.430644 242.116364 
L 212.85046 242.116364 
L 216.270276 242.116364 
L 219.690092 242.116364 
L 223.109908 242.116364 
L 226.529724 242.116364 
L 229.94954 242.116364 
L 233.369356 242.116364 
L 236.789173 242.116364 
L 240.208989 242.116364 
L 243.628805 242.116364 
L 247.048621 242.116364 
L 250.468437 242.116364 
L 253.888253 242.116364 
L 257.308069 242.116364 
L 260.727886 242.116364 
L 264.147702 242.116364 
L 267.567518 242.116364 
L 270.987334 242.116364 
L 274.40715 242.116364 
L 277.826966 242.116364 
L 281.246782 242.116364 
L 284.666599 242.116364 
L 288.086415 242.116364 
L 291.506231 242.116364 
L 294.926047 242.116364 
L 298.345863 242.116364 
L 301.765679 242.116364 
L 305.185495 242.116364 
L 308.605312 242.116364 
L 312.025128 242.116364 
L 315.444944 242.116364 
L 318.86476 242.116364 
L 322.284576 242.116364 
L 325.704392 242.116364 
L 329.124208 242.116364 
L 332.544025 242.116364 
L 335.963841 242.116364 
L 339.383657 242.116364 
L 342.803473 242.116364 
L 346.223289 242.116364 
L 349.643105 242.116364 
L 353.062921 242.116364 
L 356.482737 242.116364 
L 359.902554 242.116364 
L 363.32237 242.116364 
L 366.742186 242.116364 
L 370.162002 242.116364 
L 373.581818 242.116364 
" style="fill:none;stroke:#1f77b4;stroke-linecap:square;stroke-width:1.5;"/>
   </g>
   <g id="line2d_14">
    <path clip-path="url(#p96eb3719bf)" d="M 69.218182 242.116364 
L 72.637998 242.116364 
L 76.057814 242.116364 
L 79.47763 242.116364 
L 82.897446 242.116364 
L 86.317263 242.116364 
L 89.737079 242.116364 
L 93.156895 242.116364 
L 96.576711 242.116364 
L 99.996527 242.116364 
L 103.416343 242.116364 
L 106.836159 242.116364 
L 110.255975 242.116364 
L 113.675792 242.116364 
L 117.095608 242.116364 
L 120.515424 242.116364 
L 123.93524 242.116364 
L 127.355056 242.116364 
L 130.774872 242.116364 
L 134.194688 242.116364 
L 137.614505 242.116364 
L 141.034321 242.116364 
L 144.454137 242.116364 
L 147.873953 242.116364 
L 151.293769 242.116364 
L 154.713585 242.116364 
L 158.133401 242.116364 
L 161.553218 242.116364 
L 164.973034 242.116364 
L 168.39285 242.116364 
L 171.812666 242.116364 
L 175.232482 242.116364 
L 178.652298 242.116364 
L 182.072114 242.116364 
L 185.491931 242.116364 
L 188.911747 242.116364 
L 192.331563 242.116364 
L 195.751379 242.116364 
L 199.171195 242.116364 
L 202.591011 242.116364 
L 206.010827 242.116364 
L 209.430644 242.116364 
L 212.85046 242.116364 
L 216.270276 242.116364 
L 219.690092 242.116364 
L 223.109908 242.116364 
L 226.529724 242.116364 
L 229.94954 242.116364 
L 233.369356 242.116364 
L 236.789173 242.116364 
L 240.208989 242.116364 
L 243.628805 242.116364 
L 247.048621 242.116364 
L 250.468437 242.116364 
L 253.888253 242.116364 
L 257.308069 242.116364 
L 260.727886 242.116364 
L 264.147702 242.116364 
L 267.567518 242.116364 
L 270.987334 242.116364 
L 274.40715 242.116364 
L 277.826966 242.116364 
L 281.246782 242.116364 
L 284.666599 242.116364 
L 288.086415 242.116364 
L 291.506231 242.116364 
L 294.926047 242.116364 
L 298.345863 242.116364 
L 301.765679 242.116364 
L 305.185495 242.116364 
L 308.605312 242.116364 
L 312.025128 242.116364 
L 315.444944 242.116364 
L 318.86476 242.116364 
L 322.284576 242.116364 
L 325.704392 242.116364 
L 329.124208 242.116364 
L 332.544025 242.116364 
L 335.963841 242.116364 
L 339.383657 242.116364 
L 342.803473 242.116364 
L 346.223289 242.116364 
L 349.643105 242.116364 
L 353.062921 242.116364 
L 356.482737 242.116364 
L 359.902554 242.116364 
L 363.32237 242.116364 
L 366.742186 242.116364 
L 370.162002 242.116364 
L 373.581818 242.116364 
" style="fill:none;stroke:#ff7f0e;stroke-linecap:square;stroke-width:1.5;"/>
   </g>
   <g id="line2d_15">
    <path clip-path="url(#p96eb3719bf)" d="M 69.218182 242.116364 
L 72.637998 242.116364 
L 76.057814 242.116364 
L 79.47763 242.116364 
L 82.897446 242.116364 
L 86.317263 242.116364 
L 89.737079 242.116364 
L 93.156895 242.116364 
L 96.576711 242.116364 
L 99.996527 242.116364 
L 103.416343 242.116364 
L 106.836159 242.116364 
L 110.255975 242.116364 
L 113.675792 242.116364 
L 117.095608 242.116364 
L 120.515424 242.116364 
L 123.93524 242.116364 
L 127.355056 242.116364 
L 130.774872 242.116364 
L 134.194688 242.116364 
L 137.614505 242.116364 
L 141.034321 242.116364 
L 144.454137 242.116364 
L 147.873953 242.116364 
L 151.293769 242.116364 
L 154.713585 242.116364 
L 158.133401 242.116364 
L 161.553218 242.116364 
L 164.973034 242.116364 
L 168.39285 242.116364 
L 171.812666 242.116364 
L 175.232482 242.116364 
L 178.652298 242.116364 
L 182.072114 242.116364 
L 185.491931 242.116364 
L 188.911747 242.116364 
L 192.331563 242.116364 
L 195.751379 242.116364 
L 199.171195 242.116364 
L 202.591011 242.116364 
L 206.010827 242.116364 
L 209.430644 242.116364 
L 212.85046 242.116364 
L 216.270276 242.116364 
L 219.690092 242.116364 
L 223.109908 242.116364 
L 226.529724 242.116364 
L 229.94954 242.116364 
L 233.369356 242.116364 
L 236.789173 242.116364 
L 240.208989 242.116364 
L 243.628805 242.116364 
L 247.048621 242.116364 
L 250.468437 242.116364 
L 253.888253 242.116364 
L 257.308069 242.116364 
L 260.727886 242.116364 
L 264.147702 242.116364 
L 267.567518 242.116364 
L 270.987334 242.116364 
L 274.40715 242.116364 
L 277.826966 242.116364 
L 281.246782 242.116364 
L 284.666599 242.116364 
L 288.086415 242.116364 
L 291.506231 242.116364 
L 294.926047 242.116364 
L 298.345863 242.116364 
L 301.765679 242.116364 
L 305.185495 242.116364 
L 308.605312 242.116364 
L 312.025128 242.116364 
L 315.444944 242.116364 
L 318.86476 242.116364 
L 322.284576 242.116364 
L 325.704392 242.116364 
L 329.124208 242.116364 
L 332.544025 242.116364 
L 335.963841 242.116364 
L 339.383657 242.116364 
L 342.803473 242.116364 
L 346.223289 242.116364 
L 349.643105 242.116364 
L 353.062921 242.116364 
L 356.482737 242.116364 
L 359.902554 242.116364 
L 363.32237 242.116364 
L 366.742186 242.116364 
L 370.162002 242.116364 
L 373.581818 242.116364 
" style="fill:none;stroke:#2ca02c;stroke-linecap:square;stroke-width:1.5;"/>
   </g>
   <g id="line2d_16">
    <path clip-path="url(#p96eb3719bf)" d="M 69.218182 242.116364 
L 72.637998 242.116364 
L 76.057814 242.116364 
L 79.47763 242.116364 
L 82.897446 242.116364 
L 86.317263 242.116364 
L 89.737079 242.116364 
L 93.156895 242.116364 
L 96.576711 242.116364 
L 99.996527 242.116364 
L 103.416343 242.116364 
L 106.836159 242.116364 
L 110.255975 242.116364 
L 113.675792 242.116364 
L 117.095608 242.116364 
L 120.515424 242.116364 
L 123.93524 242.116364 
L 127.355056 242.116364 
L 130.774872 242.116364 
L 134.194688 242.116364 
L 137.614505 242.116364 
L 141.034321 242.116364 
L 144.454137 242.116364 
L 147.873953 242.116364 
L 151.293769 242.116364 
L 154.713585 242.116364 
L 158.133401 242.116364 
L 161.553218 242.116364 
L 164.973034 242.116364 
L 168.39285 242.116364 
L 171.812666 242.116364 
L 175.232482 242.116364 
L 178.652298 242.116364 
L 182.072114 242.116364 
L 185.491931 242.116364 
L 188.911747 242.116364 
L 192.331563 242.116364 
L 195.751379 242.116364 
L 199.171195 242.116364 
L 202.591011 242.116364 
L 206.010827 242.116364 
L 209.430644 242.116364 
L 212.85046 242.116364 
L 216.270276 242.116364 
L 219.690092 242.116364 
L 223.109908 242.116364 
L 226.529724 242.116364 
L 229.94954 242.116364 
L 233.369356 242.116364 
L 236.789173 242.116364 
L 240.208989 242.116364 
L 243.628805 242.116364 
L 247.048621 242.116364 
L 250.468437 242.116364 
L 253.888253 242.116364 
L 257.308069 242.116364 
L 260.727886 242.116364 
L 264.147702 242.116364 
L 267.567518 242.116364 
L 270.987334 242.116364 
L 274.40715 242.116364 
L 277.826966 242.116364 
L 281.246782 242.116364 
L 284.666599 242.116364 
L 288.086415 242.116364 
L 291.506231 242.116364 
L 294.926047 242.116364 
L 298.345863 242.116364 
L 301.765679 242.116364 
L 305.185495 242.116364 
L 308.605312 242.116364 
L 312.025128 242.116364 
L 315.444944 242.116364 
L 318.86476 242.116364 
L 322.284576 242.116364 
L 325.704392 242.116364 
L 329.124208 242.116364 
L 332.544025 242.116364 
L 335.963841 242.116364 
L 339.383657 242.116364 
L 342.803473 242.116364 
L 346.223289 242.116364 
L 349.643105 242.116364 
L 353.062921 242.116364 
L 356.482737 242.116364 
L 359.902554 242.116364 
L 363.32237 242.116364 
L 366.742186 242.116364 
L 370.162002 242.116364 
L 373.581818 242.116364 
" style="fill:none;stroke:#d62728;stroke-linecap:square;stroke-width:1.5;"/>
   </g>
   <g id="line2d_17">
    <path clip-path="url(#p96eb3719bf)" d="M 69.218182 242.116364 
L 72.637998 242.116364 
L 76.057814 242.116364 
L 79.47763 242.116364 
L 82.897446 242.116364 
L 86.317263 242.116364 
L 89.737079 242.116364 
L 93.156895 242.116364 
L 96.576711 242.116364 
L 99.996527 242.116364 
L 103.416343 242.116364 
L 106.836159 242.116364 
L 110.255975 242.116364 
L 113.675792 242.116364 
L 117.095608 242.116364 
L 120.515424 242.116364 
L 123.93524 242.116364 
L 127.355056 242.116364 
L 130.774872 242.116364 
L 134.194688 242.116364 
L 137.614505 242.116364 
L 141.034321 242.116364 
L 144.454137 242.116364 
L 147.873953 242.116364 
L 151.293769 242.116364 
L 154.713585 242.116364 
L 158.133401 242.116364 
L 161.553218 242.116364 
L 164.973034 242.116364 
L 168.39285 242.116364 
L 171.812666 242.116364 
L 175.232482 242.116364 
L 178.652298 242.116364 
L 182.072114 242.116364 
L 185.491931 242.116364 
L 188.911747 242.116364 
L 192.331563 242.116364 
L 195.751379 242.116364 
L 199.171195 242.116364 
L 202.591011 242.116364 
L 206.010827 242.116364 
L 209.430644 242.116364 
L 212.85046 242.116364 
L 216.270276 242.116364 
L 219.690092 242.116364 
L 223.109908 242.116364 
L 226.529724 242.109516 
L 229.94954 242.109516 
L 233.369356 242.109516 
L 236.789173 242.109516 
L 240.208989 242.109516 
L 243.628805 242.109516 
L 247.048621 242.109516 
L 250.468437 242.109516 
L 253.888253 242.109516 
L 257.308069 242.109516 
L 260.727886 242.109516 
L 264.147702 242.109516 
L 267.567518 242.109516 
L 270.987334 242.109516 
L 274.40715 242.109516 
L 277.826966 242.109516 
L 281.246782 242.109516 
L 284.666599 242.109516 
L 288.086415 242.109516 
L 291.506231 242.109516 
L 294.926047 242.109516 
L 298.345863 242.109516 
L 301.765679 242.109516 
L 305.185495 242.109516 
L 308.605312 242.109516 
L 312.025128 242.102669 
L 315.444944 242.102669 
L 318.86476 242.102669 
L 322.284576 242.095821 
L 325.704392 242.088974 
L 329.124208 242.082126 
L 332.544025 242.075279 
L 335.963841 242.068431 
L 339.383657 242.061584 
L 342.803473 242.047889 
L 346.223289 242.047889 
L 349.643105 242.034194 
L 353.062921 241.999957 
L 356.482737 241.993109 
L 359.902554 241.979414 
L 363.32237 241.965719 
L 366.742186 241.958872 
L 370.162002 241.945177 
L 373.581818 241.904092 
" style="fill:none;stroke:#9467bd;stroke-linecap:square;stroke-width:1.5;"/>
   </g>
   <g id="line2d_18">
    <path clip-path="url(#p96eb3719bf)" d="M 69.218182 242.116364 
L 72.637998 242.116364 
L 76.057814 242.116364 
L 79.47763 242.116364 
L 82.897446 242.116364 
L 86.317263 242.116364 
L 89.737079 242.116364 
L 93.156895 242.116364 
L 96.576711 242.116364 
L 99.996527 242.116364 
L 103.416343 242.116364 
L 106.836159 242.116364 
L 110.255975 242.116364 
L 113.675792 242.116364 
L 117.095608 242.116364 
L 120.515424 242.116364 
L 123.93524 242.116364 
L 127.355056 242.116364 
L 130.774872 242.116364 
L 134.194688 242.116364 
L 137.614505 242.116364 
L 141.034321 242.116364 
L 144.454137 242.116364 
L 147.873953 242.116364 
L 151.293769 242.116364 
L 154.713585 242.116364 
L 158.133401 242.116364 
L 161.553218 242.116364 
L 164.973034 242.116364 
L 168.39285 242.116364 
L 171.812666 242.116364 
L 175.232482 242.116364 
L 178.652298 242.116364 
L 182.072114 242.116364 
L 185.491931 242.116364 
L 188.911747 242.116364 
L 192.331563 242.116364 
L 195.751379 242.116364 
L 199.171195 242.116364 
L 202.591011 242.116364 
L 206.010827 242.116364 
L 209.430644 242.116364 
L 212.85046 242.116364 
L 216.270276 242.116364 
L 219.690092 242.116364 
L 223.109908 242.116364 
L 226.529724 242.116364 
L 229.94954 242.116364 
L 233.369356 242.116364 
L 236.789173 242.116364 
L 240.208989 242.116364 
L 243.628805 242.109516 
L 247.048621 242.102669 
L 250.468437 242.088974 
L 253.888253 242.075279 
L 257.308069 242.068431 
L 260.727886 242.047889 
L 264.147702 242.006804 
L 267.567518 241.979414 
L 270.987334 241.938329 
L 274.40715 241.897245 
L 277.826966 241.849312 
L 281.246782 241.808228 
L 284.666599 241.7466 
L 288.086415 241.664431 
L 291.506231 241.602803 
L 294.926047 241.486397 
L 298.345863 241.36999 
L 301.765679 241.239888 
L 305.185495 241.130328 
L 308.605312 241.000226 
L 312.025128 240.856429 
L 315.444944 240.712633 
L 318.86476 240.555141 
L 322.284576 240.322327 
L 325.704392 240.041581 
L 329.124208 239.781377 
L 332.544025 239.480088 
L 335.963841 239.103477 
L 339.383657 238.706324 
L 342.803473 238.350256 
L 346.223289 237.980493 
L 349.643105 237.569644 
L 353.062921 237.090322 
L 356.482737 236.604151 
L 359.902554 235.939947 
L 363.32237 235.392149 
L 366.742186 234.816962 
L 370.162002 234.234927 
L 373.581818 233.440621 
" style="fill:none;stroke:#8c564b;stroke-linecap:square;stroke-width:1.5;"/>
   </g>
   <g id="line2d_19">
    <path clip-path="url(#p96eb3719bf)" d="M 69.218182 242.116364 
L 72.637998 242.116364 
L 76.057814 242.116364 
L 79.47763 242.116364 
L 82.897446 242.116364 
L 86.317263 242.116364 
L 89.737079 242.116364 
L 93.156895 242.116364 
L 96.576711 242.116364 
L 99.996527 242.116364 
L 103.416343 242.116364 
L 106.836159 242.116364 
L 110.255975 242.116364 
L 113.675792 242.116364 
L 117.095608 242.116364 
L 120.515424 242.116364 
L 123.93524 242.116364 
L 127.355056 242.116364 
L 130.774872 242.116364 
L 134.194688 242.116364 
L 137.614505 242.116364 
L 141.034321 242.116364 
L 144.454137 242.116364 
L 147.873953 242.116364 
L 151.293769 242.116364 
L 154.713585 242.116364 
L 158.133401 242.116364 
L 161.553218 242.116364 
L 164.973034 242.116364 
L 168.39285 242.116364 
L 171.812666 242.116364 
L 175.232482 242.116364 
L 178.652298 242.116364 
L 182.072114 242.116364 
L 185.491931 242.102669 
L 188.911747 242.102669 
L 192.331563 242.102669 
L 195.751379 242.095821 
L 199.171195 242.095821 
L 202.591011 242.082126 
L 206.010827 242.082126 
L 209.430644 242.068431 
L 212.85046 242.054736 
L 216.270276 242.006804 
L 219.690092 241.917787 
L 223.109908 241.82877 
L 226.529724 241.732905 
L 229.94954 241.623346 
L 233.369356 241.472702 
L 236.789173 241.308362 
L 240.208989 241.082396 
L 243.628805 240.849582 
L 247.048621 240.623615 
L 250.468437 240.267547 
L 253.888253 239.870394 
L 257.308069 239.302054 
L 260.727886 238.761104 
L 264.147702 238.254391 
L 267.567518 237.713441 
L 270.987334 237.097169 
L 274.40715 236.289168 
L 277.826966 235.33737 
L 281.246782 234.241775 
L 284.666599 233.214654 
L 288.086415 231.913635 
L 291.506231 230.626311 
L 294.926047 229.291055 
L 298.345863 227.784612 
L 301.765679 226.216541 
L 305.185495 224.764878 
L 308.605312 222.936604 
L 312.025128 221.217889 
L 315.444944 219.273208 
L 318.86476 217.12995 
L 322.284576 214.883981 
L 325.704392 212.761265 
L 329.124208 210.590618 
L 332.544025 208.152919 
L 335.963841 205.646745 
L 339.383657 203.099487 
L 342.803473 200.374194 
L 346.223289 197.847478 
L 349.643105 195.108491 
L 353.062921 192.410588 
L 356.482737 189.473024 
L 359.902554 186.4259 
L 363.32237 183.570506 
L 366.742186 180.605552 
L 370.162002 177.565276 
L 373.581818 174.449678 
" style="fill:none;stroke:#e377c2;stroke-linecap:square;stroke-width:1.5;"/>
   </g>
   <g id="line2d_20">
    <path clip-path="url(#p96eb3719bf)" d="M 69.218182 242.116364 
L 72.637998 242.116364 
L 76.057814 242.116364 
L 79.47763 242.116364 
L 82.897446 242.116364 
L 86.317263 242.116364 
L 89.737079 242.116364 
L 93.156895 242.116364 
L 96.576711 242.116364 
L 99.996527 242.116364 
L 103.416343 242.116364 
L 106.836159 242.116364 
L 110.255975 242.116364 
L 113.675792 242.116364 
L 117.095608 242.116364 
L 120.515424 242.116364 
L 123.93524 242.116364 
L 127.355056 242.116364 
L 130.774872 242.116364 
L 134.194688 242.116364 
L 137.614505 242.116364 
L 141.034321 242.116364 
L 144.454137 242.116364 
L 147.873953 242.116364 
L 151.293769 242.116364 
L 154.713585 242.116364 
L 158.133401 242.116364 
L 161.553218 242.109516 
L 164.973034 242.109516 
L 168.39285 242.109516 
L 171.812666 242.109516 
L 175.232482 242.102669 
L 178.652298 242.088974 
L 182.072114 242.061584 
L 185.491931 242.034194 
L 188.911747 241.938329 
L 192.331563 241.842465 
L 195.751379 241.712363 
L 199.171195 241.527481 
L 202.591011 241.3426 
L 206.010827 241.027616 
L 209.430644 240.6647 
L 212.85046 240.315479 
L 216.270276 239.870394 
L 219.690092 239.199342 
L 223.109908 238.55568 
L 226.529724 237.644967 
L 229.94954 236.686321 
L 233.369356 235.508556 
L 236.789173 234.262317 
L 240.208989 232.749026 
L 243.628805 231.249431 
L 247.048621 229.571801 
L 250.468437 227.647662 
L 253.888253 225.696134 
L 257.308069 223.539181 
L 260.727886 221.183652 
L 264.147702 218.615851 
L 267.567518 215.746762 
L 270.987334 212.88452 
L 274.40715 210.200312 
L 277.826966 207.36546 
L 281.246782 204.290946 
L 284.666599 201.086331 
L 288.086415 197.95019 
L 291.506231 194.478524 
L 294.926047 191.006857 
L 298.345863 187.528343 
L 301.765679 184.200473 
L 305.185495 181.146502 
L 308.605312 177.592666 
L 312.025128 174.018287 
L 315.444944 170.512383 
L 318.86476 166.753123 
L 322.284576 163.171897 
L 325.704392 159.453721 
L 329.124208 155.927275 
L 332.544025 152.051607 
L 335.963841 148.326584 
L 339.383657 144.772748 
L 342.803473 141.294234 
L 346.223289 137.726703 
L 349.643105 134.090697 
L 353.062921 130.482081 
L 356.482737 126.784448 
L 359.902554 122.984103 
L 363.32237 119.519284 
L 366.742186 115.98599 
L 370.162002 112.432153 
L 373.581818 108.87147 
" style="fill:none;stroke:#7f7f7f;stroke-linecap:square;stroke-width:1.5;"/>
   </g>
   <g id="line2d_21">
    <path clip-path="url(#p96eb3719bf)" d="M 69.218182 242.116364 
L 72.637998 242.116364 
L 76.057814 242.116364 
L 79.47763 242.116364 
L 82.897446 242.116364 
L 86.317263 242.116364 
L 89.737079 242.116364 
L 93.156895 242.116364 
L 96.576711 242.116364 
L 99.996527 242.116364 
L 103.416343 242.116364 
L 106.836159 242.116364 
L 110.255975 242.116364 
L 113.675792 242.116364 
L 117.095608 242.116364 
L 120.515424 242.116364 
L 123.93524 242.116364 
L 127.355056 242.116364 
L 130.774872 242.116364 
L 134.194688 242.116364 
L 137.614505 242.116364 
L 141.034321 242.116364 
L 144.454137 242.116364 
L 147.873953 242.116364 
L 151.293769 242.116364 
L 154.713585 242.116364 
L 158.133401 242.109516 
L 161.553218 242.102669 
L 164.973034 242.095821 
L 168.39285 242.088974 
L 171.812666 242.068431 
L 175.232482 241.999957 
L 178.652298 241.835617 
L 182.072114 241.630193 
L 185.491931 241.36999 
L 188.911747 240.965989 
L 192.331563 240.479819 
L 195.751379 239.863546 
L 199.171195 239.048698 
L 202.591011 238.001035 
L 206.010827 236.90544 
L 209.430644 235.74137 
L 212.85046 234.440351 
L 216.270276 232.838044 
L 219.690092 231.057702 
L 223.109908 228.962376 
L 226.529724 226.764339 
L 229.94954 224.292403 
L 233.369356 221.772534 
L 236.789173 219.245818 
L 240.208989 216.458898 
L 243.628805 213.514487 
L 247.048621 210.261939 
L 250.468437 206.934069 
L 253.888253 203.544572 
L 257.308069 200.11399 
L 260.727886 196.621781 
L 264.147702 193.013165 
L 267.567518 189.301837 
L 270.987334 185.631594 
L 274.40715 181.961351 
L 277.826966 178.188396 
L 281.246782 174.326423 
L 284.666599 170.272722 
L 288.086415 166.280647 
L 291.506231 162.363895 
L 294.926047 158.070532 
L 298.345863 154.078458 
L 301.765679 150.284961 
L 305.185495 146.162784 
L 308.605312 142.239185 
L 312.025128 138.212873 
L 315.444944 134.385138 
L 318.86476 130.543708 
L 322.284576 126.613261 
L 325.704392 122.799221 
L 329.124208 118.937249 
L 332.544025 115.356023 
L 335.963841 111.425575 
L 339.383657 107.529366 
L 342.803473 103.550986 
L 346.223289 99.702709 
L 349.643105 96.032466 
L 353.062921 92.280053 
L 356.482737 88.822081 
L 359.902554 85.418889 
L 363.32237 81.8719 
L 366.742186 78.427624 
L 370.162002 74.805313 
L 373.581818 71.292561 
" style="fill:none;stroke:#bcbd22;stroke-linecap:square;stroke-width:1.5;"/>
   </g>
   <g id="line2d_22">
    <path clip-path="url(#p96eb3719bf)" d="M 69.218182 242.116364 
L 72.637998 242.116364 
L 76.057814 242.116364 
L 79.47763 242.116364 
L 82.897446 242.116364 
L 86.317263 242.116364 
L 89.737079 242.116364 
L 93.156895 242.116364 
L 96.576711 242.116364 
L 99.996527 242.116364 
L 103.416343 242.116364 
L 106.836159 242.116364 
L 110.255975 242.116364 
L 113.675792 242.116364 
L 117.095608 242.116364 
L 120.515424 242.116364 
L 123.93524 242.116364 
L 127.355056 242.116364 
L 130.774872 242.116364 
L 134.194688 242.116364 
L 137.614505 242.116364 
L 141.034321 242.116364 
L 144.454137 242.116364 
L 147.873953 242.109516 
L 151.293769 242.088974 
L 154.713585 242.075279 
L 158.133401 242.034194 
L 161.553218 242.020499 
L 164.973034 241.965719 
L 168.39285 241.698668 
L 171.812666 241.445312 
L 175.232482 241.102938 
L 178.652298 240.616768 
L 182.072114 240.048428 
L 185.491931 239.199342 
L 188.911747 238.076357 
L 192.331563 236.761643 
L 195.751379 235.351065 
L 199.171195 233.851469 
L 202.591011 232.160144 
L 206.010827 230.037429 
L 209.430644 227.764069 
L 212.85046 225.025082 
L 216.270276 222.231314 
L 219.690092 219.547107 
L 223.109908 216.568458 
L 226.529724 213.103639 
L 229.94954 209.659362 
L 233.369356 206.235627 
L 236.789173 202.722876 
L 240.208989 199.045785 
L 243.628805 195.115338 
L 247.048621 191.061637 
L 250.468437 187.001088 
L 253.888253 183.15281 
L 257.308069 178.640329 
L 260.727886 174.675644 
L 264.147702 170.245332 
L 267.567518 165.979359 
L 270.987334 161.528504 
L 274.40715 157.488498 
L 277.826966 152.845914 
L 281.246782 148.490924 
L 284.666599 144.142781 
L 288.086415 139.49335 
L 291.506231 135.234224 
L 294.926047 131.21476 
L 298.345863 126.976177 
L 301.765679 122.566407 
L 305.185495 117.978603 
L 308.605312 113.753715 
L 312.025128 109.747946 
L 315.444944 105.783261 
L 318.86476 101.921289 
L 322.284576 98.093554 
L 325.704392 94.313751 
L 329.124208 90.479169 
L 332.544025 86.439162 
L 335.963841 82.652512 
L 339.383657 78.900099 
L 342.803473 75.195618 
L 346.223289 71.230934 
L 349.643105 67.903064 
L 353.062921 64.390313 
L 356.482737 61.062443 
L 359.902554 57.645556 
L 363.32237 54.214974 
L 366.742186 50.517341 
L 370.162002 47.442828 
L 373.581818 44.443636 
" style="fill:none;stroke:#17becf;stroke-linecap:square;stroke-width:1.5;"/>
   </g>
   <g id="patch_3">
    <path d="M 54 252 
L 54 34.56 
" style="fill:none;stroke:#000000;stroke-linecap:square;stroke-linejoin:miter;stroke-width:0.8;"/>
   </g>
   <g id="patch_4">
    <path d="M 388.8 252 
L 388.8 34.56 
" style="fill:none;stroke:#000000;stroke-linecap:square;stroke-linejoin:miter;stroke-width:0.8;"/>
   </g>
   <g id="patch_5">
    <path d="M 54 252 
L 388.8 252 
" style="fill:none;stroke:#000000;stroke-linecap:square;stroke-linejoin:miter;stroke-width:0.8;"/>
   </g>
   <g id="patch_6">
    <path d="M 54 34.56 
L 388.8 34.56 
" style="fill:none;stroke:#000000;stroke-linecap:square;stroke-linejoin:miter;stroke-width:0.8;"/>
   </g>
   <g id="legend_1">
    <g id="patch_7">
     <path d="M 61 189.34125 
L 118.873437 189.34125 
Q 120.873437 189.34125 120.873437 187.34125 
L 120.873437 41.56 
Q 120.873437 39.56 118.873437 39.56 
L 61 39.56 
Q 59 39.56 59 41.56 
L 59 187.34125 
Q 59 189.34125 61 189.34125 
z
" style="fill:#ffffff;opacity:0.8;stroke:#cccccc;stroke-linejoin:miter;"/>
    </g>
    <g id="line2d_23">
     <path d="M 63 47.658437 
L 83 47.658437 
" style="fill:none;stroke:#1f77b4;stroke-linecap:square;stroke-width:1.5;"/>
    </g>
    <g id="line2d_24"/>
    <g id="text_15">
     <!-- -24.0 -->
     <defs>
      <path d="M 4.890625 31.390625 
L 31.203125 31.390625 
L 31.203125 23.390625 
L 4.890625 23.390625 
z
" id="DejaVuSans-2d"/>
      <path d="M 10.6875 12.40625 
L 21 12.40625 
L 21 0 
L 10.6875 0 
z
" id="DejaVuSans-2e"/>
     </defs>
     <g transform="translate(91 51.158437)scale(0.1 -0.1)">
      <use xlink:href="#DejaVuSans-2d"/>
      <use x="36.083984" xlink:href="#DejaVuSans-32"/>
      <use x="99.707031" xlink:href="#DejaVuSans-34"/>
      <use x="163.330078" xlink:href="#DejaVuSans-2e"/>
      <use x="195.117188" xlink:href="#DejaVuSans-30"/>
     </g>
    </g>
    <g id="line2d_25">
     <path d="M 63 62.336563 
L 83 62.336563 
" style="fill:none;stroke:#ff7f0e;stroke-linecap:square;stroke-width:1.5;"/>
    </g>
    <g id="line2d_26"/>
    <g id="text_16">
     <!-- -23.0 -->
     <g transform="translate(91 65.836563)scale(0.1 -0.1)">
      <use xlink:href="#DejaVuSans-2d"/>
      <use x="36.083984" xlink:href="#DejaVuSans-32"/>
      <use x="99.707031" xlink:href="#DejaVuSans-33"/>
      <use x="163.330078" xlink:href="#DejaVuSans-2e"/>
      <use x="195.117188" xlink:href="#DejaVuSans-30"/>
     </g>
    </g>
    <g id="line2d_27">
     <path d="M 63 77.014688 
L 83 77.014688 
" style="fill:none;stroke:#2ca02c;stroke-linecap:square;stroke-width:1.5;"/>
    </g>
    <g id="line2d_28"/>
    <g id="text_17">
     <!-- -22.0 -->
     <g transform="translate(91 80.514688)scale(0.1 -0.1)">
      <use xlink:href="#DejaVuSans-2d"/>
      <use x="36.083984" xlink:href="#DejaVuSans-32"/>
      <use x="99.707031" xlink:href="#DejaVuSans-32"/>
      <use x="163.330078" xlink:href="#DejaVuSans-2e"/>
      <use x="195.117188" xlink:href="#DejaVuSans-30"/>
     </g>
    </g>
    <g id="line2d_29">
     <path d="M 63 91.692813 
L 83 91.692813 
" style="fill:none;stroke:#d62728;stroke-linecap:square;stroke-width:1.5;"/>
    </g>
    <g id="line2d_30"/>
    <g id="text_18">
     <!-- -21.0 -->
     <g transform="translate(91 95.192813)scale(0.1 -0.1)">
      <use xlink:href="#DejaVuSans-2d"/>
      <use x="36.083984" xlink:href="#DejaVuSans-32"/>
      <use x="99.707031" xlink:href="#DejaVuSans-31"/>
      <use x="163.330078" xlink:href="#DejaVuSans-2e"/>
      <use x="195.117188" xlink:href="#DejaVuSans-30"/>
     </g>
    </g>
    <g id="line2d_31">
     <path d="M 63 106.370938 
L 83 106.370938 
" style="fill:none;stroke:#9467bd;stroke-linecap:square;stroke-width:1.5;"/>
    </g>
    <g id="line2d_32"/>
    <g id="text_19">
     <!-- -20.0 -->
     <g transform="translate(91 109.870938)scale(0.1 -0.1)">
      <use xlink:href="#DejaVuSans-2d"/>
      <use x="36.083984" xlink:href="#DejaVuSans-32"/>
      <use x="99.707031" xlink:href="#DejaVuSans-30"/>
      <use x="163.330078" xlink:href="#DejaVuSans-2e"/>
      <use x="195.117188" xlink:href="#DejaVuSans-30"/>
     </g>
    </g>
    <g id="line2d_33">
     <path d="M 63 121.049062 
L 83 121.049062 
" style="fill:none;stroke:#8c564b;stroke-linecap:square;stroke-width:1.5;"/>
    </g>
    <g id="line2d_34"/>
    <g id="text_20">
     <!-- -19.0 -->
     <defs>
      <path d="M 10.984375 1.515625 
L 10.984375 10.5 
Q 14.703125 8.734375 18.5 7.8125 
Q 22.3125 6.890625 25.984375 6.890625 
Q 35.75 6.890625 40.890625 13.453125 
Q 46.046875 20.015625 46.78125 33.40625 
Q 43.953125 29.203125 39.59375 26.953125 
Q 35.25 24.703125 29.984375 24.703125 
Q 19.046875 24.703125 12.671875 31.3125 
Q 6.296875 37.9375 6.296875 49.421875 
Q 6.296875 60.640625 12.9375 67.421875 
Q 19.578125 74.21875 30.609375 74.21875 
Q 43.265625 74.21875 49.921875 64.515625 
Q 56.59375 54.828125 56.59375 36.375 
Q 56.59375 19.140625 48.40625 8.859375 
Q 40.234375 -1.421875 26.421875 -1.421875 
Q 22.703125 -1.421875 18.890625 -0.6875 
Q 15.09375 0.046875 10.984375 1.515625 
z
M 30.609375 32.421875 
Q 37.25 32.421875 41.125 36.953125 
Q 45.015625 41.5 45.015625 49.421875 
Q 45.015625 57.28125 41.125 61.84375 
Q 37.25 66.40625 30.609375 66.40625 
Q 23.96875 66.40625 20.09375 61.84375 
Q 16.21875 57.28125 16.21875 49.421875 
Q 16.21875 41.5 20.09375 36.953125 
Q 23.96875 32.421875 30.609375 32.421875 
z
" id="DejaVuSans-39"/>
     </defs>
     <g transform="translate(91 124.549062)scale(0.1 -0.1)">
      <use xlink:href="#DejaVuSans-2d"/>
      <use x="36.083984" xlink:href="#DejaVuSans-31"/>
      <use x="99.707031" xlink:href="#DejaVuSans-39"/>
      <use x="163.330078" xlink:href="#DejaVuSans-2e"/>
      <use x="195.117188" xlink:href="#DejaVuSans-30"/>
     </g>
    </g>
    <g id="line2d_35">
     <path d="M 63 135.727188 
L 83 135.727188 
" style="fill:none;stroke:#e377c2;stroke-linecap:square;stroke-width:1.5;"/>
    </g>
    <g id="line2d_36"/>
    <g id="text_21">
     <!-- -18.0 -->
     <g transform="translate(91 139.227188)scale(0.1 -0.1)">
      <use xlink:href="#DejaVuSans-2d"/>
      <use x="36.083984" xlink:href="#DejaVuSans-31"/>
      <use x="99.707031" xlink:href="#DejaVuSans-38"/>
      <use x="163.330078" xlink:href="#DejaVuSans-2e"/>
      <use x="195.117188" xlink:href="#DejaVuSans-30"/>
     </g>
    </g>
    <g id="line2d_37">
     <path d="M 63 150.405312 
L 83 150.405312 
" style="fill:none;stroke:#7f7f7f;stroke-linecap:square;stroke-width:1.5;"/>
    </g>
    <g id="line2d_38"/>
    <g id="text_22">
     <!-- -17.0 -->
     <defs>
      <path d="M 8.203125 72.90625 
L 55.078125 72.90625 
L 55.078125 68.703125 
L 28.609375 0 
L 18.3125 0 
L 43.21875 64.59375 
L 8.203125 64.59375 
z
" id="DejaVuSans-37"/>
     </defs>
     <g transform="translate(91 153.905312)scale(0.1 -0.1)">
      <use xlink:href="#DejaVuSans-2d"/>
      <use x="36.083984" xlink:href="#DejaVuSans-31"/>
      <use x="99.707031" xlink:href="#DejaVuSans-37"/>
      <use x="163.330078" xlink:href="#DejaVuSans-2e"/>
      <use x="195.117188" xlink:href="#DejaVuSans-30"/>
     </g>
    </g>
    <g id="line2d_39">
     <path d="M 63 165.083438 
L 83 165.083438 
" style="fill:none;stroke:#bcbd22;stroke-linecap:square;stroke-width:1.5;"/>
    </g>
    <g id="line2d_40"/>
    <g id="text_23">
     <!-- -16.0 -->
     <g transform="translate(91 168.583438)scale(0.1 -0.1)">
      <use xlink:href="#DejaVuSans-2d"/>
      <use x="36.083984" xlink:href="#DejaVuSans-31"/>
      <use x="99.707031" xlink:href="#DejaVuSans-36"/>
      <use x="163.330078" xlink:href="#DejaVuSans-2e"/>
      <use x="195.117188" xlink:href="#DejaVuSans-30"/>
     </g>
    </g>
    <g id="line2d_41">
     <path d="M 63 179.761562 
L 83 179.761562 
" style="fill:none;stroke:#17becf;stroke-linecap:square;stroke-width:1.5;"/>
    </g>
    <g id="line2d_42"/>
    <g id="text_24">
     <!-- -15.0 -->
     <g transform="translate(91 183.261562)scale(0.1 -0.1)">
      <use xlink:href="#DejaVuSans-2d"/>
      <use x="36.083984" xlink:href="#DejaVuSans-31"/>
      <use x="99.707031" xlink:href="#DejaVuSans-35"/>
      <use x="163.330078" xlink:href="#DejaVuSans-2e"/>
      <use x="195.117188" xlink:href="#DejaVuSans-30"/>
     </g>
    </g>
   </g>
  </g>
 </g>
 <defs>
  <clipPath id="p96eb3719bf">
   <rect height="217.44" width="334.8" x="54" y="34.56"/>
  </clipPath>
 </defs>
</svg>
