<?xml version="1.0" encoding="utf-8" standalone="no"?>
<!DOCTYPE svg PUBLIC "-//W3C//DTD SVG 1.1//EN"
  "http://www.w3.org/Graphics/SVG/1.1/DTD/svg11.dtd">
<!-- Created with matplotlib (http://matplotlib.org/) -->
<svg height="288pt" version="1.1" viewBox="0 0 432 288" width="432pt" xmlns="http://www.w3.org/2000/svg" xmlns:xlink="http://www.w3.org/1999/xlink">
 <defs>
  <style type="text/css">
*{stroke-linecap:butt;stroke-linejoin:round;}
  </style>
 </defs>
 <g id="figure_1">
  <g id="patch_1">
   <path d="M 0 288 
L 432 288 
L 432 0 
L 0 0 
z
" style="fill:#ffffff;"/>
  </g>
  <g id="axes_1">
   <g id="patch_2">
    <path d="M 54 252 
L 388.8 252 
L 388.8 34.56 
L 54 34.56 
z
" style="fill:#eaeaf2;"/>
   </g>
   <g id="matplotlib.axis_1">
    <g id="xtick_1">
     <g id="line2d_1">
      <path clip-path="url(#p6e502fe32f)" d="M 69.218182 252 
L 69.218182 34.56 
" style="fill:none;stroke:#ffffff;stroke-linecap:round;"/>
     </g>
     <g id="text_1">
      <!-- 0 -->
      <defs>
       <path d="M 31.78125 66.40625 
Q 24.171875 66.40625 20.328125 58.90625 
Q 16.5 51.421875 16.5 36.375 
Q 16.5 21.390625 20.328125 13.890625 
Q 24.171875 6.390625 31.78125 6.390625 
Q 39.453125 6.390625 43.28125 13.890625 
Q 47.125 21.390625 47.125 36.375 
Q 47.125 51.421875 43.28125 58.90625 
Q 39.453125 66.40625 31.78125 66.40625 
z
M 31.78125 74.21875 
Q 44.046875 74.21875 50.515625 64.515625 
Q 56.984375 54.828125 56.984375 36.375 
Q 56.984375 17.96875 50.515625 8.265625 
Q 44.046875 -1.421875 31.78125 -1.421875 
Q 19.53125 -1.421875 13.0625 8.265625 
Q 6.59375 17.96875 6.59375 36.375 
Q 6.59375 54.828125 13.0625 64.515625 
Q 19.53125 74.21875 31.78125 74.21875 
z
" id="DejaVuSans-30"/>
      </defs>
      <g style="fill:#262626;" transform="translate(65.718807 269.858281)scale(0.11 -0.11)">
       <use xlink:href="#DejaVuSans-30"/>
      </g>
     </g>
    </g>
    <g id="xtick_2">
     <g id="line2d_2">
      <path clip-path="url(#p6e502fe32f)" d="M 130.705785 252 
L 130.705785 34.56 
" style="fill:none;stroke:#ffffff;stroke-linecap:round;"/>
     </g>
     <g id="text_2">
      <!-- 20 -->
      <defs>
       <path d="M 19.1875 8.296875 
L 53.609375 8.296875 
L 53.609375 0 
L 7.328125 0 
L 7.328125 8.296875 
Q 12.9375 14.109375 22.625 23.890625 
Q 32.328125 33.6875 34.8125 36.53125 
Q 39.546875 41.84375 41.421875 45.53125 
Q 43.3125 49.21875 43.3125 52.78125 
Q 43.3125 58.59375 39.234375 62.25 
Q 35.15625 65.921875 28.609375 65.921875 
Q 23.96875 65.921875 18.8125 64.3125 
Q 13.671875 62.703125 7.8125 59.421875 
L 7.8125 69.390625 
Q 13.765625 71.78125 18.9375 73 
Q 24.125 74.21875 28.421875 74.21875 
Q 39.75 74.21875 46.484375 68.546875 
Q 53.21875 62.890625 53.21875 53.421875 
Q 53.21875 48.921875 51.53125 44.890625 
Q 49.859375 40.875 45.40625 35.40625 
Q 44.1875 33.984375 37.640625 27.21875 
Q 31.109375 20.453125 19.1875 8.296875 
z
" id="DejaVuSans-32"/>
      </defs>
      <g style="fill:#262626;" transform="translate(123.707035 269.858281)scale(0.11 -0.11)">
       <use xlink:href="#DejaVuSans-32"/>
       <use x="63.623047" xlink:href="#DejaVuSans-30"/>
      </g>
     </g>
    </g>
    <g id="xtick_3">
     <g id="line2d_3">
      <path clip-path="url(#p6e502fe32f)" d="M 192.193388 252 
L 192.193388 34.56 
" style="fill:none;stroke:#ffffff;stroke-linecap:round;"/>
     </g>
     <g id="text_3">
      <!-- 40 -->
      <defs>
       <path d="M 37.796875 64.3125 
L 12.890625 25.390625 
L 37.796875 25.390625 
z
M 35.203125 72.90625 
L 47.609375 72.90625 
L 47.609375 25.390625 
L 58.015625 25.390625 
L 58.015625 17.1875 
L 47.609375 17.1875 
L 47.609375 0 
L 37.796875 0 
L 37.796875 17.1875 
L 4.890625 17.1875 
L 4.890625 26.703125 
z
" id="DejaVuSans-34"/>
      </defs>
      <g style="fill:#262626;" transform="translate(185.194638 269.858281)scale(0.11 -0.11)">
       <use xlink:href="#DejaVuSans-34"/>
       <use x="63.623047" xlink:href="#DejaVuSans-30"/>
      </g>
     </g>
    </g>
    <g id="xtick_4">
     <g id="line2d_4">
      <path clip-path="url(#p6e502fe32f)" d="M 253.680992 252 
L 253.680992 34.56 
" style="fill:none;stroke:#ffffff;stroke-linecap:round;"/>
     </g>
     <g id="text_4">
      <!-- 60 -->
      <defs>
       <path d="M 33.015625 40.375 
Q 26.375 40.375 22.484375 35.828125 
Q 18.609375 31.296875 18.609375 23.390625 
Q 18.609375 15.53125 22.484375 10.953125 
Q 26.375 6.390625 33.015625 6.390625 
Q 39.65625 6.390625 43.53125 10.953125 
Q 47.40625 15.53125 47.40625 23.390625 
Q 47.40625 31.296875 43.53125 35.828125 
Q 39.65625 40.375 33.015625 40.375 
z
M 52.59375 71.296875 
L 52.59375 62.3125 
Q 48.875 64.0625 45.09375 64.984375 
Q 41.3125 65.921875 37.59375 65.921875 
Q 27.828125 65.921875 22.671875 59.328125 
Q 17.53125 52.734375 16.796875 39.40625 
Q 19.671875 43.65625 24.015625 45.921875 
Q 28.375 48.1875 33.59375 48.1875 
Q 44.578125 48.1875 50.953125 41.515625 
Q 57.328125 34.859375 57.328125 23.390625 
Q 57.328125 12.15625 50.6875 5.359375 
Q 44.046875 -1.421875 33.015625 -1.421875 
Q 20.359375 -1.421875 13.671875 8.265625 
Q 6.984375 17.96875 6.984375 36.375 
Q 6.984375 53.65625 15.1875 63.9375 
Q 23.390625 74.21875 37.203125 74.21875 
Q 40.921875 74.21875 44.703125 73.484375 
Q 48.484375 72.75 52.59375 71.296875 
z
" id="DejaVuSans-36"/>
      </defs>
      <g style="fill:#262626;" transform="translate(246.682242 269.858281)scale(0.11 -0.11)">
       <use xlink:href="#DejaVuSans-36"/>
       <use x="63.623047" xlink:href="#DejaVuSans-30"/>
      </g>
     </g>
    </g>
    <g id="xtick_5">
     <g id="line2d_5">
      <path clip-path="url(#p6e502fe32f)" d="M 315.168595 252 
L 315.168595 34.56 
" style="fill:none;stroke:#ffffff;stroke-linecap:round;"/>
     </g>
     <g id="text_5">
      <!-- 80 -->
      <defs>
       <path d="M 31.78125 34.625 
Q 24.75 34.625 20.71875 30.859375 
Q 16.703125 27.09375 16.703125 20.515625 
Q 16.703125 13.921875 20.71875 10.15625 
Q 24.75 6.390625 31.78125 6.390625 
Q 38.8125 6.390625 42.859375 10.171875 
Q 46.921875 13.96875 46.921875 20.515625 
Q 46.921875 27.09375 42.890625 30.859375 
Q 38.875 34.625 31.78125 34.625 
z
M 21.921875 38.8125 
Q 15.578125 40.375 12.03125 44.71875 
Q 8.5 49.078125 8.5 55.328125 
Q 8.5 64.0625 14.71875 69.140625 
Q 20.953125 74.21875 31.78125 74.21875 
Q 42.671875 74.21875 48.875 69.140625 
Q 55.078125 64.0625 55.078125 55.328125 
Q 55.078125 49.078125 51.53125 44.71875 
Q 48 40.375 41.703125 38.8125 
Q 48.828125 37.15625 52.796875 32.3125 
Q 56.78125 27.484375 56.78125 20.515625 
Q 56.78125 9.90625 50.3125 4.234375 
Q 43.84375 -1.421875 31.78125 -1.421875 
Q 19.734375 -1.421875 13.25 4.234375 
Q 6.78125 9.90625 6.78125 20.515625 
Q 6.78125 27.484375 10.78125 32.3125 
Q 14.796875 37.15625 21.921875 38.8125 
z
M 18.3125 54.390625 
Q 18.3125 48.734375 21.84375 45.5625 
Q 25.390625 42.390625 31.78125 42.390625 
Q 38.140625 42.390625 41.71875 45.5625 
Q 45.3125 48.734375 45.3125 54.390625 
Q 45.3125 60.0625 41.71875 63.234375 
Q 38.140625 66.40625 31.78125 66.40625 
Q 25.390625 66.40625 21.84375 63.234375 
Q 18.3125 60.0625 18.3125 54.390625 
z
" id="DejaVuSans-38"/>
      </defs>
      <g style="fill:#262626;" transform="translate(308.169845 269.858281)scale(0.11 -0.11)">
       <use xlink:href="#DejaVuSans-38"/>
       <use x="63.623047" xlink:href="#DejaVuSans-30"/>
      </g>
     </g>
    </g>
    <g id="xtick_6">
     <g id="line2d_6">
      <path clip-path="url(#p6e502fe32f)" d="M 376.656198 252 
L 376.656198 34.56 
" style="fill:none;stroke:#ffffff;stroke-linecap:round;"/>
     </g>
     <g id="text_6">
      <!-- 100 -->
      <defs>
       <path d="M 12.40625 8.296875 
L 28.515625 8.296875 
L 28.515625 63.921875 
L 10.984375 60.40625 
L 10.984375 69.390625 
L 28.421875 72.90625 
L 38.28125 72.90625 
L 38.28125 8.296875 
L 54.390625 8.296875 
L 54.390625 0 
L 12.40625 0 
z
" id="DejaVuSans-31"/>
      </defs>
      <g style="fill:#262626;" transform="translate(366.158073 269.858281)scale(0.11 -0.11)">
       <use xlink:href="#DejaVuSans-31"/>
       <use x="63.623047" xlink:href="#DejaVuSans-30"/>
       <use x="127.246094" xlink:href="#DejaVuSans-30"/>
      </g>
     </g>
    </g>
    <g id="text_7">
     <!-- Age -->
     <defs>
      <path d="M 34.1875 63.1875 
L 20.796875 26.90625 
L 47.609375 26.90625 
z
M 28.609375 72.90625 
L 39.796875 72.90625 
L 67.578125 0 
L 57.328125 0 
L 50.6875 18.703125 
L 17.828125 18.703125 
L 11.1875 0 
L 0.78125 0 
z
" id="DejaVuSans-41"/>
      <path d="M 45.40625 27.984375 
Q 45.40625 37.75 41.375 43.109375 
Q 37.359375 48.484375 30.078125 48.484375 
Q 22.859375 48.484375 18.828125 43.109375 
Q 14.796875 37.75 14.796875 27.984375 
Q 14.796875 18.265625 18.828125 12.890625 
Q 22.859375 7.515625 30.078125 7.515625 
Q 37.359375 7.515625 41.375 12.890625 
Q 45.40625 18.265625 45.40625 27.984375 
z
M 54.390625 6.78125 
Q 54.390625 -7.171875 48.1875 -13.984375 
Q 42 -20.796875 29.203125 -20.796875 
Q 24.46875 -20.796875 20.265625 -20.09375 
Q 16.0625 -19.390625 12.109375 -17.921875 
L 12.109375 -9.1875 
Q 16.0625 -11.328125 19.921875 -12.34375 
Q 23.78125 -13.375 27.78125 -13.375 
Q 36.625 -13.375 41.015625 -8.765625 
Q 45.40625 -4.15625 45.40625 5.171875 
L 45.40625 9.625 
Q 42.625 4.78125 38.28125 2.390625 
Q 33.9375 0 27.875 0 
Q 17.828125 0 11.671875 7.65625 
Q 5.515625 15.328125 5.515625 27.984375 
Q 5.515625 40.671875 11.671875 48.328125 
Q 17.828125 56 27.875 56 
Q 33.9375 56 38.28125 53.609375 
Q 42.625 51.21875 45.40625 46.390625 
L 45.40625 54.6875 
L 54.390625 54.6875 
z
" id="DejaVuSans-67"/>
      <path d="M 56.203125 29.59375 
L 56.203125 25.203125 
L 14.890625 25.203125 
Q 15.484375 15.921875 20.484375 11.0625 
Q 25.484375 6.203125 34.421875 6.203125 
Q 39.59375 6.203125 44.453125 7.46875 
Q 49.3125 8.734375 54.109375 11.28125 
L 54.109375 2.78125 
Q 49.265625 0.734375 44.1875 -0.34375 
Q 39.109375 -1.421875 33.890625 -1.421875 
Q 20.796875 -1.421875 13.15625 6.1875 
Q 5.515625 13.8125 5.515625 26.8125 
Q 5.515625 40.234375 12.765625 48.109375 
Q 20.015625 56 32.328125 56 
Q 43.359375 56 49.78125 48.890625 
Q 56.203125 41.796875 56.203125 29.59375 
z
M 47.21875 32.234375 
Q 47.125 39.59375 43.09375 43.984375 
Q 39.0625 48.390625 32.421875 48.390625 
Q 24.90625 48.390625 20.390625 44.140625 
Q 15.875 39.890625 15.1875 32.171875 
z
" id="DejaVuSans-65"/>
     </defs>
     <g style="fill:#262626;" transform="translate(209.794688 285.264063)scale(0.12 -0.12)">
      <use xlink:href="#DejaVuSans-41"/>
      <use x="68.408203" xlink:href="#DejaVuSans-67"/>
      <use x="131.884766" xlink:href="#DejaVuSans-65"/>
     </g>
    </g>
   </g>
   <g id="matplotlib.axis_2">
    <g id="ytick_1">
     <g id="line2d_7">
      <path clip-path="url(#p6e502fe32f)" d="M 54 242.116364 
L 388.8 242.116364 
" style="fill:none;stroke:#ffffff;stroke-linecap:round;"/>
     </g>
     <g id="text_8">
      <!-- 0 -->
      <g style="fill:#262626;" transform="translate(37.50125 246.295504)scale(0.11 -0.11)">
       <use xlink:href="#DejaVuSans-30"/>
      </g>
     </g>
    </g>
    <g id="ytick_2">
     <g id="line2d_8">
      <path clip-path="url(#p6e502fe32f)" d="M 54 202.581818 
L 388.8 202.581818 
" style="fill:none;stroke:#ffffff;stroke-linecap:round;"/>
     </g>
     <g id="text_9">
      <!-- 2000 -->
      <g style="fill:#262626;" transform="translate(16.505 206.760959)scale(0.11 -0.11)">
       <use xlink:href="#DejaVuSans-32"/>
       <use x="63.623047" xlink:href="#DejaVuSans-30"/>
       <use x="127.246094" xlink:href="#DejaVuSans-30"/>
       <use x="190.869141" xlink:href="#DejaVuSans-30"/>
      </g>
     </g>
    </g>
    <g id="ytick_3">
     <g id="line2d_9">
      <path clip-path="url(#p6e502fe32f)" d="M 54 163.047273 
L 388.8 163.047273 
" style="fill:none;stroke:#ffffff;stroke-linecap:round;"/>
     </g>
     <g id="text_10">
      <!-- 4000 -->
      <g style="fill:#262626;" transform="translate(16.505 167.226413)scale(0.11 -0.11)">
       <use xlink:href="#DejaVuSans-34"/>
       <use x="63.623047" xlink:href="#DejaVuSans-30"/>
       <use x="127.246094" xlink:href="#DejaVuSans-30"/>
       <use x="190.869141" xlink:href="#DejaVuSans-30"/>
      </g>
     </g>
    </g>
    <g id="ytick_4">
     <g id="line2d_10">
      <path clip-path="url(#p6e502fe32f)" d="M 54 123.512727 
L 388.8 123.512727 
" style="fill:none;stroke:#ffffff;stroke-linecap:round;"/>
     </g>
     <g id="text_11">
      <!-- 6000 -->
      <g style="fill:#262626;" transform="translate(16.505 127.691868)scale(0.11 -0.11)">
       <use xlink:href="#DejaVuSans-36"/>
       <use x="63.623047" xlink:href="#DejaVuSans-30"/>
       <use x="127.246094" xlink:href="#DejaVuSans-30"/>
       <use x="190.869141" xlink:href="#DejaVuSans-30"/>
      </g>
     </g>
    </g>
    <g id="ytick_5">
     <g id="line2d_11">
      <path clip-path="url(#p6e502fe32f)" d="M 54 83.978182 
L 388.8 83.978182 
" style="fill:none;stroke:#ffffff;stroke-linecap:round;"/>
     </g>
     <g id="text_12">
      <!-- 8000 -->
      <g style="fill:#262626;" transform="translate(16.505 88.157322)scale(0.11 -0.11)">
       <use xlink:href="#DejaVuSans-38"/>
       <use x="63.623047" xlink:href="#DejaVuSans-30"/>
       <use x="127.246094" xlink:href="#DejaVuSans-30"/>
       <use x="190.869141" xlink:href="#DejaVuSans-30"/>
      </g>
     </g>
    </g>
    <g id="ytick_6">
     <g id="line2d_12">
      <path clip-path="url(#p6e502fe32f)" d="M 54 44.443636 
L 388.8 44.443636 
" style="fill:none;stroke:#ffffff;stroke-linecap:round;"/>
     </g>
     <g id="text_13">
      <!-- 10000 -->
      <g style="fill:#262626;" transform="translate(9.50625 48.622777)scale(0.11 -0.11)">
       <use xlink:href="#DejaVuSans-31"/>
       <use x="63.623047" xlink:href="#DejaVuSans-30"/>
       <use x="127.246094" xlink:href="#DejaVuSans-30"/>
       <use x="190.869141" xlink:href="#DejaVuSans-30"/>
       <use x="254.492188" xlink:href="#DejaVuSans-30"/>
      </g>
     </g>
    </g>
    <g id="text_14">
     <!-- Cumulative incidence -->
     <defs>
      <path d="M 64.40625 67.28125 
L 64.40625 56.890625 
Q 59.421875 61.53125 53.78125 63.8125 
Q 48.140625 66.109375 41.796875 66.109375 
Q 29.296875 66.109375 22.65625 58.46875 
Q 16.015625 50.828125 16.015625 36.375 
Q 16.015625 21.96875 22.65625 14.328125 
Q 29.296875 6.6875 41.796875 6.6875 
Q 48.140625 6.6875 53.78125 8.984375 
Q 59.421875 11.28125 64.40625 15.921875 
L 64.40625 5.609375 
Q 59.234375 2.09375 53.4375 0.328125 
Q 47.65625 -1.421875 41.21875 -1.421875 
Q 24.65625 -1.421875 15.125 8.703125 
Q 5.609375 18.84375 5.609375 36.375 
Q 5.609375 53.953125 15.125 64.078125 
Q 24.65625 74.21875 41.21875 74.21875 
Q 47.75 74.21875 53.53125 72.484375 
Q 59.328125 70.75 64.40625 67.28125 
z
" id="DejaVuSans-43"/>
      <path d="M 8.5 21.578125 
L 8.5 54.6875 
L 17.484375 54.6875 
L 17.484375 21.921875 
Q 17.484375 14.15625 20.5 10.265625 
Q 23.53125 6.390625 29.59375 6.390625 
Q 36.859375 6.390625 41.078125 11.03125 
Q 45.3125 15.671875 45.3125 23.6875 
L 45.3125 54.6875 
L 54.296875 54.6875 
L 54.296875 0 
L 45.3125 0 
L 45.3125 8.40625 
Q 42.046875 3.421875 37.71875 1 
Q 33.40625 -1.421875 27.6875 -1.421875 
Q 18.265625 -1.421875 13.375 4.4375 
Q 8.5 10.296875 8.5 21.578125 
z
M 31.109375 56 
z
" id="DejaVuSans-75"/>
      <path d="M 52 44.1875 
Q 55.375 50.25 60.0625 53.125 
Q 64.75 56 71.09375 56 
Q 79.640625 56 84.28125 50.015625 
Q 88.921875 44.046875 88.921875 33.015625 
L 88.921875 0 
L 79.890625 0 
L 79.890625 32.71875 
Q 79.890625 40.578125 77.09375 44.375 
Q 74.3125 48.1875 68.609375 48.1875 
Q 61.625 48.1875 57.5625 43.546875 
Q 53.515625 38.921875 53.515625 30.90625 
L 53.515625 0 
L 44.484375 0 
L 44.484375 32.71875 
Q 44.484375 40.625 41.703125 44.40625 
Q 38.921875 48.1875 33.109375 48.1875 
Q 26.21875 48.1875 22.15625 43.53125 
Q 18.109375 38.875 18.109375 30.90625 
L 18.109375 0 
L 9.078125 0 
L 9.078125 54.6875 
L 18.109375 54.6875 
L 18.109375 46.1875 
Q 21.1875 51.21875 25.484375 53.609375 
Q 29.78125 56 35.6875 56 
Q 41.65625 56 45.828125 52.96875 
Q 50 49.953125 52 44.1875 
z
" id="DejaVuSans-6d"/>
      <path d="M 9.421875 75.984375 
L 18.40625 75.984375 
L 18.40625 0 
L 9.421875 0 
z
" id="DejaVuSans-6c"/>
      <path d="M 34.28125 27.484375 
Q 23.390625 27.484375 19.1875 25 
Q 14.984375 22.515625 14.984375 16.5 
Q 14.984375 11.71875 18.140625 8.90625 
Q 21.296875 6.109375 26.703125 6.109375 
Q 34.1875 6.109375 38.703125 11.40625 
Q 43.21875 16.703125 43.21875 25.484375 
L 43.21875 27.484375 
z
M 52.203125 31.203125 
L 52.203125 0 
L 43.21875 0 
L 43.21875 8.296875 
Q 40.140625 3.328125 35.546875 0.953125 
Q 30.953125 -1.421875 24.3125 -1.421875 
Q 15.921875 -1.421875 10.953125 3.296875 
Q 6 8.015625 6 15.921875 
Q 6 25.140625 12.171875 29.828125 
Q 18.359375 34.515625 30.609375 34.515625 
L 43.21875 34.515625 
L 43.21875 35.40625 
Q 43.21875 41.609375 39.140625 45 
Q 35.0625 48.390625 27.6875 48.390625 
Q 23 48.390625 18.546875 47.265625 
Q 14.109375 46.140625 10.015625 43.890625 
L 10.015625 52.203125 
Q 14.9375 54.109375 19.578125 55.046875 
Q 24.21875 56 28.609375 56 
Q 40.484375 56 46.34375 49.84375 
Q 52.203125 43.703125 52.203125 31.203125 
z
" id="DejaVuSans-61"/>
      <path d="M 18.3125 70.21875 
L 18.3125 54.6875 
L 36.8125 54.6875 
L 36.8125 47.703125 
L 18.3125 47.703125 
L 18.3125 18.015625 
Q 18.3125 11.328125 20.140625 9.421875 
Q 21.96875 7.515625 27.59375 7.515625 
L 36.8125 7.515625 
L 36.8125 0 
L 27.59375 0 
Q 17.1875 0 13.234375 3.875 
Q 9.28125 7.765625 9.28125 18.015625 
L 9.28125 47.703125 
L 2.6875 47.703125 
L 2.6875 54.6875 
L 9.28125 54.6875 
L 9.28125 70.21875 
z
" id="DejaVuSans-74"/>
      <path d="M 9.421875 54.6875 
L 18.40625 54.6875 
L 18.40625 0 
L 9.421875 0 
z
M 9.421875 75.984375 
L 18.40625 75.984375 
L 18.40625 64.59375 
L 9.421875 64.59375 
z
" id="DejaVuSans-69"/>
      <path d="M 2.984375 54.6875 
L 12.5 54.6875 
L 29.59375 8.796875 
L 46.6875 54.6875 
L 56.203125 54.6875 
L 35.6875 0 
L 23.484375 0 
z
" id="DejaVuSans-76"/>
      <path id="DejaVuSans-20"/>
      <path d="M 54.890625 33.015625 
L 54.890625 0 
L 45.90625 0 
L 45.90625 32.71875 
Q 45.90625 40.484375 42.875 44.328125 
Q 39.84375 48.1875 33.796875 48.1875 
Q 26.515625 48.1875 22.3125 43.546875 
Q 18.109375 38.921875 18.109375 30.90625 
L 18.109375 0 
L 9.078125 0 
L 9.078125 54.6875 
L 18.109375 54.6875 
L 18.109375 46.1875 
Q 21.34375 51.125 25.703125 53.5625 
Q 30.078125 56 35.796875 56 
Q 45.21875 56 50.046875 50.171875 
Q 54.890625 44.34375 54.890625 33.015625 
z
" id="DejaVuSans-6e"/>
      <path d="M 48.78125 52.59375 
L 48.78125 44.1875 
Q 44.96875 46.296875 41.140625 47.34375 
Q 37.3125 48.390625 33.40625 48.390625 
Q 24.65625 48.390625 19.8125 42.84375 
Q 14.984375 37.3125 14.984375 27.296875 
Q 14.984375 17.28125 19.8125 11.734375 
Q 24.65625 6.203125 33.40625 6.203125 
Q 37.3125 6.203125 41.140625 7.25 
Q 44.96875 8.296875 48.78125 10.40625 
L 48.78125 2.09375 
Q 45.015625 0.34375 40.984375 -0.53125 
Q 36.96875 -1.421875 32.421875 -1.421875 
Q 20.0625 -1.421875 12.78125 6.34375 
Q 5.515625 14.109375 5.515625 27.296875 
Q 5.515625 40.671875 12.859375 48.328125 
Q 20.21875 56 33.015625 56 
Q 37.15625 56 41.109375 55.140625 
Q 45.0625 54.296875 48.78125 52.59375 
z
" id="DejaVuSans-63"/>
      <path d="M 45.40625 46.390625 
L 45.40625 75.984375 
L 54.390625 75.984375 
L 54.390625 0 
L 45.40625 0 
L 45.40625 8.203125 
Q 42.578125 3.328125 38.25 0.953125 
Q 33.9375 -1.421875 27.875 -1.421875 
Q 17.96875 -1.421875 11.734375 6.484375 
Q 5.515625 14.40625 5.515625 27.296875 
Q 5.515625 40.1875 11.734375 48.09375 
Q 17.96875 56 27.875 56 
Q 33.9375 56 38.25 53.625 
Q 42.578125 51.265625 45.40625 46.390625 
z
M 14.796875 27.296875 
Q 14.796875 17.390625 18.875 11.75 
Q 22.953125 6.109375 30.078125 6.109375 
Q 37.203125 6.109375 41.296875 11.75 
Q 45.40625 17.390625 45.40625 27.296875 
Q 45.40625 37.203125 41.296875 42.84375 
Q 37.203125 48.484375 30.078125 48.484375 
Q 22.953125 48.484375 18.875 42.84375 
Q 14.796875 37.203125 14.796875 27.296875 
z
" id="DejaVuSans-64"/>
     </defs>
     <g style="fill:#262626;" transform="translate(3.010625 208.161563)rotate(-90)scale(0.12 -0.12)">
      <use xlink:href="#DejaVuSans-43"/>
      <use x="69.824219" xlink:href="#DejaVuSans-75"/>
      <use x="133.203125" xlink:href="#DejaVuSans-6d"/>
      <use x="230.615234" xlink:href="#DejaVuSans-75"/>
      <use x="293.994141" xlink:href="#DejaVuSans-6c"/>
      <use x="321.777344" xlink:href="#DejaVuSans-61"/>
      <use x="383.056641" xlink:href="#DejaVuSans-74"/>
      <use x="422.265625" xlink:href="#DejaVuSans-69"/>
      <use x="450.048828" xlink:href="#DejaVuSans-76"/>
      <use x="509.228516" xlink:href="#DejaVuSans-65"/>
      <use x="570.751953" xlink:href="#DejaVuSans-20"/>
      <use x="602.539062" xlink:href="#DejaVuSans-69"/>
      <use x="630.322266" xlink:href="#DejaVuSans-6e"/>
      <use x="693.701172" xlink:href="#DejaVuSans-63"/>
      <use x="748.681641" xlink:href="#DejaVuSans-69"/>
      <use x="776.464844" xlink:href="#DejaVuSans-64"/>
      <use x="839.941406" xlink:href="#DejaVuSans-65"/>
      <use x="901.464844" xlink:href="#DejaVuSans-6e"/>
      <use x="964.84375" xlink:href="#DejaVuSans-63"/>
      <use x="1019.824219" xlink:href="#DejaVuSans-65"/>
     </g>
    </g>
   </g>
   <g id="line2d_13">
    <path clip-path="url(#p6e502fe32f)" d="M 69.218182 242.116364 
L 72.292562 242.116364 
L 75.366942 242.116364 
L 78.441322 242.116364 
L 81.515702 242.116364 
L 84.590083 242.116364 
L 87.664463 242.116364 
L 90.738843 242.116364 
L 93.813223 242.116364 
L 96.887603 242.116364 
L 99.961983 242.116364 
L 103.036364 242.116364 
L 106.110744 242.116364 
L 109.185124 242.116364 
L 112.259504 242.116364 
L 115.333884 242.116364 
L 118.408264 242.116364 
L 121.482645 242.116364 
L 124.557025 242.116364 
L 127.631405 242.116364 
L 130.705785 242.116364 
L 133.780165 242.116364 
L 136.854545 242.116364 
L 139.928926 242.116364 
L 143.003306 242.116364 
L 146.077686 242.116364 
L 149.152066 242.116364 
L 152.226446 242.116364 
L 155.300826 242.116364 
L 158.375207 242.116364 
L 161.449587 242.116364 
L 164.523967 242.116364 
L 167.598347 242.116364 
L 170.672727 242.116364 
L 173.747107 242.116364 
L 176.821488 242.116364 
L 179.895868 242.116364 
L 182.970248 242.116364 
L 186.044628 242.116364 
L 189.119008 242.116364 
L 192.193388 242.116364 
L 195.267769 242.116364 
L 198.342149 242.116364 
L 201.416529 242.116364 
L 204.490909 242.116364 
L 207.565289 242.116364 
L 210.639669 242.116364 
L 213.71405 242.116364 
L 216.78843 242.116364 
L 219.86281 242.116364 
L 222.93719 242.116364 
L 226.01157 242.116364 
L 229.08595 242.116364 
L 232.160331 242.116364 
L 235.234711 242.116364 
L 238.309091 242.116364 
L 241.383471 242.116364 
L 244.457851 242.116364 
L 247.532231 242.116364 
L 250.606612 242.116364 
L 253.680992 242.116364 
L 256.755372 242.116364 
L 259.829752 242.116364 
L 262.904132 242.116364 
L 265.978512 242.116364 
L 269.052893 242.116364 
L 272.127273 242.116364 
L 275.201653 242.096596 
L 278.276033 242.096596 
L 281.350413 242.096596 
L 284.424793 242.096596 
L 287.499174 242.096596 
L 290.573554 242.096596 
L 293.647934 242.096596 
L 296.722314 242.096596 
L 299.796694 242.076829 
L 302.871074 242.057062 
L 305.945455 242.037295 
L 309.019835 242.017527 
L 312.094215 241.977993 
L 315.168595 241.958225 
L 318.242975 241.938458 
L 321.317355 241.879156 
L 324.391736 241.859389 
L 327.466116 241.800087 
L 330.540496 241.760553 
L 333.614876 241.740785 
L 336.689256 241.661716 
L 339.763636 241.582647 
L 342.838017 241.503578 
L 345.912397 241.365207 
L 348.986777 241.266371 
L 352.061157 241.048931 
L 355.135537 240.930327 
L 358.209917 240.791956 
L 361.284298 240.653585 
L 364.358678 240.357076 
L 367.433058 240.25824 
L 370.507438 240.060567 
L 373.581818 239.783825 
" style="fill:none;stroke:#4c72b0;stroke-linecap:round;stroke-width:1.5;"/>
   </g>
   <g id="line2d_14">
    <path clip-path="url(#p6e502fe32f)" d="M 69.218182 242.116364 
L 72.292562 242.116364 
L 75.366942 242.116364 
L 78.441322 242.116364 
L 81.515702 242.116364 
L 84.590083 242.116364 
L 87.664463 242.116364 
L 90.738843 242.116364 
L 93.813223 242.116364 
L 96.887603 242.116364 
L 99.961983 242.116364 
L 103.036364 242.116364 
L 106.110744 242.116364 
L 109.185124 242.116364 
L 112.259504 242.116364 
L 115.333884 242.116364 
L 118.408264 242.116364 
L 121.482645 242.116364 
L 124.557025 242.116364 
L 127.631405 242.116364 
L 130.705785 242.116364 
L 133.780165 242.116364 
L 136.854545 242.116364 
L 139.928926 242.116364 
L 143.003306 242.116364 
L 146.077686 242.116364 
L 149.152066 242.116364 
L 152.226446 242.116364 
L 155.300826 242.116364 
L 158.375207 242.116364 
L 161.449587 242.116364 
L 164.523967 242.116364 
L 167.598347 242.116364 
L 170.672727 242.116364 
L 173.747107 242.116364 
L 176.821488 242.116364 
L 179.895868 242.116364 
L 182.970248 242.116364 
L 186.044628 242.116364 
L 189.119008 242.116364 
L 192.193388 242.116364 
L 195.267769 242.116364 
L 198.342149 242.116364 
L 201.416529 242.116364 
L 204.490909 242.116364 
L 207.565289 242.116364 
L 210.639669 242.116364 
L 213.71405 242.116364 
L 216.78843 242.116364 
L 219.86281 242.116364 
L 222.93719 242.116364 
L 226.01157 242.096596 
L 229.08595 242.096596 
L 232.160331 242.096596 
L 235.234711 242.096596 
L 238.309091 242.057062 
L 241.383471 242.057062 
L 244.457851 242.057062 
L 247.532231 242.057062 
L 250.606612 242.057062 
L 253.680992 242.057062 
L 256.755372 242.037295 
L 259.829752 242.017527 
L 262.904132 242.017527 
L 265.978512 241.99776 
L 269.052893 241.977993 
L 272.127273 241.977993 
L 275.201653 241.918691 
L 278.276033 241.819855 
L 281.350413 241.800087 
L 284.424793 241.760553 
L 287.499174 241.760553 
L 290.573554 241.721018 
L 293.647934 241.681484 
L 296.722314 241.622182 
L 299.796694 241.582647 
L 302.871074 241.483811 
L 305.945455 241.404742 
L 309.019835 241.325673 
L 312.094215 241.266371 
L 315.168595 241.187302 
L 318.242975 241.009396 
L 321.317355 240.930327 
L 324.391736 240.69312 
L 327.466116 240.376844 
L 330.540496 239.981498 
L 333.614876 239.625687 
L 336.689256 239.348945 
L 339.763636 238.933833 
L 342.838017 238.637324 
L 345.912397 238.241978 
L 348.986777 237.609425 
L 352.061157 237.312916 
L 355.135537 236.482691 
L 358.209917 235.850138 
L 361.284298 235.178051 
L 364.358678 234.347825 
L 367.433058 233.636204 
L 370.507438 232.64784 
L 373.581818 231.659476 
" style="fill:none;stroke:#dd8452;stroke-linecap:round;stroke-width:1.5;"/>
   </g>
   <g id="line2d_15">
    <path clip-path="url(#p6e502fe32f)" d="M 69.218182 242.116364 
L 72.292562 242.116364 
L 75.366942 242.116364 
L 78.441322 242.116364 
L 81.515702 242.116364 
L 84.590083 242.116364 
L 87.664463 242.116364 
L 90.738843 242.116364 
L 93.813223 242.116364 
L 96.887603 242.116364 
L 99.961983 242.116364 
L 103.036364 242.116364 
L 106.110744 242.116364 
L 109.185124 242.116364 
L 112.259504 242.116364 
L 115.333884 242.116364 
L 118.408264 242.116364 
L 121.482645 242.116364 
L 124.557025 242.116364 
L 127.631405 242.116364 
L 130.705785 242.116364 
L 133.780165 242.116364 
L 136.854545 242.116364 
L 139.928926 242.116364 
L 143.003306 242.116364 
L 146.077686 242.116364 
L 149.152066 242.116364 
L 152.226446 242.116364 
L 155.300826 242.116364 
L 158.375207 242.116364 
L 161.449587 242.116364 
L 164.523967 242.116364 
L 167.598347 242.116364 
L 170.672727 242.116364 
L 173.747107 242.116364 
L 176.821488 242.116364 
L 179.895868 242.116364 
L 182.970248 242.116364 
L 186.044628 242.116364 
L 189.119008 242.116364 
L 192.193388 242.116364 
L 195.267769 242.116364 
L 198.342149 242.116364 
L 201.416529 242.116364 
L 204.490909 242.116364 
L 207.565289 242.116364 
L 210.639669 242.116364 
L 213.71405 242.116364 
L 216.78843 242.116364 
L 219.86281 242.116364 
L 222.93719 242.116364 
L 226.01157 242.116364 
L 229.08595 242.096596 
L 232.160331 242.076829 
L 235.234711 242.076829 
L 238.309091 242.057062 
L 241.383471 242.057062 
L 244.457851 242.037295 
L 247.532231 242.037295 
L 250.606612 242.037295 
L 253.680992 242.017527 
L 256.755372 241.938458 
L 259.829752 241.879156 
L 262.904132 241.839622 
L 265.978512 241.740785 
L 269.052893 241.602415 
L 272.127273 241.483811 
L 275.201653 241.384975 
L 278.276033 241.266371 
L 281.350413 241.187302 
L 284.424793 241.048931 
L 287.499174 240.950095 
L 290.573554 240.69312 
L 293.647934 240.455913 
L 296.722314 240.179171 
L 299.796694 239.764058 
L 302.871074 239.467549 
L 305.945455 238.933833 
L 309.019835 238.498953 
L 312.094215 237.846633 
L 315.168595 237.095476 
L 318.242975 236.383855 
L 321.317355 235.336189 
L 324.391736 234.585033 
L 327.466116 233.359462 
L 330.540496 232.529236 
L 333.614876 231.580407 
L 336.689256 230.47344 
L 339.763636 228.73392 
L 342.838017 227.231607 
L 345.912397 225.551389 
L 348.986777 223.653731 
L 352.061157 221.973513 
L 355.135537 219.977018 
L 358.209917 217.486342 
L 361.284298 215.47008 
L 364.358678 212.999171 
L 367.433058 210.211985 
L 370.507438 207.365498 
L 373.581818 204.420175 
" style="fill:none;stroke:#55a868;stroke-linecap:round;stroke-width:1.5;"/>
   </g>
   <g id="line2d_16">
    <path clip-path="url(#p6e502fe32f)" d="M 69.218182 242.116364 
L 72.292562 242.116364 
L 75.366942 242.116364 
L 78.441322 242.116364 
L 81.515702 242.116364 
L 84.590083 242.116364 
L 87.664463 242.116364 
L 90.738843 242.116364 
L 93.813223 242.116364 
L 96.887603 242.116364 
L 99.961983 242.116364 
L 103.036364 242.116364 
L 106.110744 242.116364 
L 109.185124 242.116364 
L 112.259504 242.116364 
L 115.333884 242.116364 
L 118.408264 242.116364 
L 121.482645 242.116364 
L 124.557025 242.116364 
L 127.631405 242.116364 
L 130.705785 242.116364 
L 133.780165 242.116364 
L 136.854545 242.116364 
L 139.928926 242.116364 
L 143.003306 242.116364 
L 146.077686 242.116364 
L 149.152066 242.116364 
L 152.226446 242.116364 
L 155.300826 242.116364 
L 158.375207 242.116364 
L 161.449587 242.116364 
L 164.523967 242.116364 
L 167.598347 242.116364 
L 170.672727 242.116364 
L 173.747107 242.096596 
L 176.821488 242.096596 
L 179.895868 242.096596 
L 182.970248 242.096596 
L 186.044628 242.096596 
L 189.119008 242.096596 
L 192.193388 242.096596 
L 195.267769 242.096596 
L 198.342149 242.096596 
L 201.416529 242.096596 
L 204.490909 242.096596 
L 207.565289 242.096596 
L 210.639669 242.096596 
L 213.71405 242.096596 
L 216.78843 242.076829 
L 219.86281 242.057062 
L 222.93719 242.057062 
L 226.01157 242.037295 
L 229.08595 241.938458 
L 232.160331 241.918691 
L 235.234711 241.879156 
L 238.309091 241.879156 
L 241.383471 241.839622 
L 244.457851 241.740785 
L 247.532231 241.56288 
L 250.606612 241.464044 
L 253.680992 241.325673 
L 256.755372 241.207069 
L 259.829752 240.930327 
L 262.904132 240.69312 
L 265.978512 240.218705 
L 269.052893 239.882662 
L 272.127273 239.60592 
L 275.201653 239.072204 
L 278.276033 238.380349 
L 281.350413 237.728029 
L 284.424793 236.917571 
L 287.499174 236.008276 
L 290.573554 234.921076 
L 293.647934 233.972247 
L 296.722314 232.825745 
L 299.796694 231.382735 
L 302.871074 229.781585 
L 305.945455 228.279273 
L 309.019835 226.77696 
L 312.094215 224.661862 
L 315.168595 222.289789 
L 318.242975 219.502604 
L 321.317355 217.308436 
L 324.391736 214.481716 
L 327.466116 211.160815 
L 330.540496 207.464335 
L 333.614876 203.787622 
L 336.689256 199.735331 
L 339.763636 195.742342 
L 342.838017 191.591215 
L 345.912397 187.044742 
L 348.986777 181.925018 
L 352.061157 177.398313 
L 355.135537 172.713469 
L 358.209917 167.751884 
L 361.284298 162.276349 
L 364.358678 157.117091 
L 367.433058 151.54272 
L 370.507438 146.442764 
L 373.581818 140.947462 
" style="fill:none;stroke:#c44e52;stroke-linecap:round;stroke-width:1.5;"/>
   </g>
   <g id="line2d_17">
    <path clip-path="url(#p6e502fe32f)" d="M 69.218182 242.116364 
L 72.292562 242.116364 
L 75.366942 242.116364 
L 78.441322 242.116364 
L 81.515702 242.116364 
L 84.590083 242.116364 
L 87.664463 242.116364 
L 90.738843 242.116364 
L 93.813223 242.116364 
L 96.887603 242.116364 
L 99.961983 242.116364 
L 103.036364 242.116364 
L 106.110744 242.116364 
L 109.185124 242.116364 
L 112.259504 242.116364 
L 115.333884 242.116364 
L 118.408264 242.116364 
L 121.482645 242.116364 
L 124.557025 242.116364 
L 127.631405 242.116364 
L 130.705785 242.116364 
L 133.780165 242.116364 
L 136.854545 242.116364 
L 139.928926 242.116364 
L 143.003306 242.116364 
L 146.077686 242.116364 
L 149.152066 242.116364 
L 152.226446 242.116364 
L 155.300826 242.116364 
L 158.375207 242.116364 
L 161.449587 242.116364 
L 164.523967 242.116364 
L 167.598347 242.116364 
L 170.672727 242.096596 
L 173.747107 242.096596 
L 176.821488 242.096596 
L 179.895868 242.096596 
L 182.970248 242.096596 
L 186.044628 242.096596 
L 189.119008 242.096596 
L 192.193388 242.096596 
L 195.267769 242.096596 
L 198.342149 242.076829 
L 201.416529 242.076829 
L 204.490909 242.037295 
L 207.565289 242.017527 
L 210.639669 241.958225 
L 213.71405 241.898924 
L 216.78843 241.819855 
L 219.86281 241.740785 
L 222.93719 241.622182 
L 226.01157 241.56288 
L 229.08595 241.384975 
L 232.160331 241.286138 
L 235.234711 241.068698 
L 238.309091 240.752422 
L 241.383471 240.47568 
L 244.457851 239.882662 
L 247.532231 239.526851 
L 250.606612 239.032669 
L 253.680992 238.222211 
L 256.755372 237.471055 
L 259.829752 236.759433 
L 262.904132 235.454793 
L 265.978512 234.288524 
L 269.052893 232.964116 
L 272.127273 231.422269 
L 275.201653 229.682749 
L 278.276033 227.86416 
L 281.350413 225.887433 
L 284.424793 223.7328 
L 287.499174 221.12352 
L 290.573554 218.277033 
L 293.647934 215.193338 
L 296.722314 212.366618 
L 299.796694 208.72944 
L 302.871074 204.637615 
L 305.945455 200.862065 
L 309.019835 196.295825 
L 312.094215 191.235404 
L 315.168595 185.522662 
L 318.242975 179.770385 
L 321.317355 174.097178 
L 324.391736 167.494909 
L 327.466116 161.525193 
L 330.540496 155.001993 
L 333.614876 148.814836 
L 336.689256 142.074196 
L 339.763636 135.926575 
L 342.838017 128.553382 
L 345.912397 121.417396 
L 348.986777 114.973265 
L 352.061157 108.212858 
L 355.135537 102.934996 
L 358.209917 97.222255 
L 361.284298 91.885091 
L 364.358678 86.7456 
L 367.433058 81.74448 
L 370.507438 76.861964 
L 373.581818 72.770138 
" style="fill:none;stroke:#8172b3;stroke-linecap:round;stroke-width:1.5;"/>
   </g>
   <g id="line2d_18">
    <path clip-path="url(#p6e502fe32f)" d="M 69.218182 242.116364 
L 72.292562 242.116364 
L 75.366942 242.116364 
L 78.441322 242.116364 
L 81.515702 242.116364 
L 84.590083 242.116364 
L 87.664463 242.116364 
L 90.738843 242.116364 
L 93.813223 242.116364 
L 96.887603 242.116364 
L 99.961983 242.116364 
L 103.036364 242.116364 
L 106.110744 242.116364 
L 109.185124 242.116364 
L 112.259504 242.116364 
L 115.333884 242.116364 
L 118.408264 242.116364 
L 121.482645 242.116364 
L 124.557025 242.116364 
L 127.631405 242.116364 
L 130.705785 242.116364 
L 133.780165 242.116364 
L 136.854545 242.116364 
L 139.928926 242.116364 
L 143.003306 242.116364 
L 146.077686 242.116364 
L 149.152066 242.116364 
L 152.226446 242.116364 
L 155.300826 242.116364 
L 158.375207 242.116364 
L 161.449587 242.116364 
L 164.523967 242.116364 
L 167.598347 242.116364 
L 170.672727 242.116364 
L 173.747107 242.116364 
L 176.821488 242.116364 
L 179.895868 242.116364 
L 182.970248 242.116364 
L 186.044628 242.076829 
L 189.119008 242.057062 
L 192.193388 242.037295 
L 195.267769 242.037295 
L 198.342149 241.99776 
L 201.416529 241.898924 
L 204.490909 241.78032 
L 207.565289 241.661716 
L 210.639669 241.483811 
L 213.71405 241.34544 
L 216.78843 241.167535 
L 219.86281 240.969862 
L 222.93719 240.554749 
L 226.01157 240.100102 
L 229.08595 239.566385 
L 232.160331 238.795462 
L 235.234711 237.787331 
L 238.309091 236.976873 
L 241.383471 235.869905 
L 244.457851 234.6048 
L 247.532231 233.142022 
L 250.606612 231.3432 
L 253.680992 229.366473 
L 256.755372 227.251375 
L 259.829752 224.859535 
L 262.904132 222.250255 
L 265.978512 219.16656 
L 269.052893 215.588684 
L 272.127273 211.457324 
L 275.201653 207.543404 
L 278.276033 203.313207 
L 281.350413 198.707433 
L 284.424793 193.884218 
L 287.499174 188.092407 
L 290.573554 181.450604 
L 293.647934 175.322749 
L 296.722314 167.969324 
L 299.796694 160.971709 
L 302.871074 154.329905 
L 305.945455 147.41136 
L 309.019835 140.0184 
L 312.094215 133.396364 
L 315.168595 125.726662 
L 318.242975 117.997658 
L 321.317355 110.901207 
L 324.391736 104.872189 
L 327.466116 98.012945 
L 330.540496 92.102531 
L 333.614876 86.251418 
L 336.689256 80.87472 
L 339.763636 75.359651 
L 342.838017 71.070153 
L 345.912397 66.938793 
L 348.986777 62.767898 
L 352.061157 59.585367 
L 355.135537 56.778415 
L 358.209917 54.485411 
L 361.284298 52.39008 
L 364.358678 50.452887 
L 367.433058 49.009876 
L 370.507438 47.962211 
L 373.581818 47.309891 
" style="fill:none;stroke:#937860;stroke-linecap:round;stroke-width:1.5;"/>
   </g>
   <g id="line2d_19">
    <path clip-path="url(#p6e502fe32f)" d="M 69.218182 242.116364 
L 72.292562 242.116364 
L 75.366942 242.116364 
L 78.441322 242.116364 
L 81.515702 242.116364 
L 84.590083 242.116364 
L 87.664463 242.116364 
L 90.738843 242.116364 
L 93.813223 242.116364 
L 96.887603 242.116364 
L 99.961983 242.116364 
L 103.036364 242.116364 
L 106.110744 242.116364 
L 109.185124 242.116364 
L 112.259504 242.116364 
L 115.333884 242.116364 
L 118.408264 242.116364 
L 121.482645 242.116364 
L 124.557025 242.116364 
L 127.631405 242.116364 
L 130.705785 242.116364 
L 133.780165 242.116364 
L 136.854545 242.116364 
L 139.928926 242.116364 
L 143.003306 242.116364 
L 146.077686 242.116364 
L 149.152066 242.096596 
L 152.226446 242.096596 
L 155.300826 242.096596 
L 158.375207 242.096596 
L 161.449587 242.096596 
L 164.523967 242.076829 
L 167.598347 242.057062 
L 170.672727 242.057062 
L 173.747107 242.037295 
L 176.821488 242.017527 
L 179.895868 241.958225 
L 182.970248 241.918691 
L 186.044628 241.918691 
L 189.119008 241.859389 
L 192.193388 241.641949 
L 195.267769 241.384975 
L 198.342149 241.167535 
L 201.416529 240.91056 
L 204.490909 240.554749 
L 207.565289 240.119869 
L 210.639669 239.704756 
L 213.71405 239.072204 
L 216.78843 238.321047 
L 219.86281 237.194313 
L 222.93719 236.047811 
L 226.01157 234.486196 
L 229.08595 232.904815 
L 232.160331 231.066458 
L 235.234711 228.872291 
L 238.309091 225.887433 
L 241.383471 223.100247 
L 244.457851 219.245629 
L 247.532231 215.173571 
L 250.606612 211.654996 
L 253.680992 207.345731 
L 256.755372 202.838793 
L 259.829752 197.462095 
L 262.904132 191.531913 
L 265.978512 185.502895 
L 269.052893 178.584349 
L 272.127273 171.487898 
L 275.201653 164.707724 
L 278.276033 157.729876 
L 281.350413 150.475287 
L 284.424793 142.84512 
L 287.499174 135.313789 
L 290.573554 127.485949 
L 293.647934 119.994153 
L 296.722314 112.462822 
L 299.796694 105.089629 
L 302.871074 97.736204 
L 305.945455 90.22464 
L 309.019835 84.650269 
L 312.094215 78.206138 
L 315.168595 72.868975 
L 318.242975 68.085295 
L 321.317355 63.835331 
L 324.391736 60.237687 
L 327.466116 56.73888 
L 330.540496 54.208669 
L 333.614876 52.133105 
L 336.689256 50.21568 
L 339.763636 48.772669 
L 342.838017 47.863375 
L 345.912397 46.815709 
L 348.986777 46.262225 
L 352.061157 45.827345 
L 355.135537 45.471535 
L 358.209917 45.135491 
L 361.284298 44.898284 
L 364.358678 44.740145 
L 367.433058 44.641309 
L 370.507438 44.582007 
L 373.581818 44.542473 
" style="fill:none;stroke:#da8bc3;stroke-linecap:round;stroke-width:1.5;"/>
   </g>
   <g id="line2d_20">
    <path clip-path="url(#p6e502fe32f)" d="M 69.218182 242.116364 
L 72.292562 242.116364 
L 75.366942 242.116364 
L 78.441322 242.116364 
L 81.515702 242.116364 
L 84.590083 242.116364 
L 87.664463 242.116364 
L 90.738843 242.116364 
L 93.813223 242.116364 
L 96.887603 242.116364 
L 99.961983 242.116364 
L 103.036364 242.116364 
L 106.110744 242.116364 
L 109.185124 242.116364 
L 112.259504 242.116364 
L 115.333884 242.116364 
L 118.408264 242.116364 
L 121.482645 242.116364 
L 124.557025 242.116364 
L 127.631405 242.116364 
L 130.705785 242.116364 
L 133.780165 242.116364 
L 136.854545 242.116364 
L 139.928926 242.116364 
L 143.003306 242.116364 
L 146.077686 242.116364 
L 149.152066 242.116364 
L 152.226446 242.116364 
L 155.300826 242.116364 
L 158.375207 242.116364 
L 161.449587 242.057062 
L 164.523967 242.057062 
L 167.598347 242.057062 
L 170.672727 242.017527 
L 173.747107 241.938458 
L 176.821488 241.839622 
L 179.895868 241.681484 
L 182.970248 241.582647 
L 186.044628 241.464044 
L 189.119008 241.187302 
L 192.193388 241.088465 
L 195.267769 240.752422 
L 198.342149 240.238473 
L 201.416529 239.586153 
L 204.490909 238.617556 
L 207.565289 237.530356 
L 210.639669 236.225716 
L 213.71405 234.367593 
L 216.78843 232.21296 
L 219.86281 229.60368 
L 222.93719 226.500218 
L 226.01157 223.51536 
L 229.08595 219.186327 
L 232.160331 214.461949 
L 235.234711 209.243389 
L 238.309091 203.095767 
L 241.383471 196.295825 
L 244.457851 189.713324 
L 247.532231 182.893615 
L 250.606612 176.11344 
L 253.680992 168.246065 
L 256.755372 160.082182 
L 259.829752 151.54272 
L 262.904132 142.983491 
L 265.978512 134.107985 
L 269.052893 125.706895 
L 272.127273 117.048829 
L 275.201653 109.201222 
L 278.276033 101.828029 
L 281.350413 94.751345 
L 284.424793 87.575825 
L 287.499174 81.131695 
L 290.573554 74.806167 
L 293.647934 69.864349 
L 296.722314 65.100436 
L 299.796694 61.186516 
L 302.871074 57.885382 
L 305.945455 55.2168 
L 309.019835 52.409847 
L 312.094215 50.749396 
L 315.168595 48.91104 
L 318.242975 47.685469 
L 321.317355 46.795942 
L 324.391736 46.242458 
L 327.466116 45.629673 
L 330.540496 45.194793 
L 333.614876 44.898284 
L 336.689256 44.720378 
L 339.763636 44.542473 
L 342.838017 44.522705 
L 345.912397 44.502938 
L 348.986777 44.443636 
L 352.061157 44.443636 
L 355.135537 44.443636 
L 358.209917 44.443636 
L 361.284298 44.443636 
L 364.358678 44.443636 
L 367.433058 44.443636 
L 370.507438 44.443636 
L 373.581818 44.443636 
" style="fill:none;stroke:#8c8c8c;stroke-linecap:round;stroke-width:1.5;"/>
   </g>
   <g id="line2d_21">
    <path clip-path="url(#p6e502fe32f)" d="M 69.218182 242.116364 
L 72.292562 242.116364 
L 75.366942 242.116364 
L 78.441322 242.116364 
L 81.515702 242.116364 
L 84.590083 242.116364 
L 87.664463 242.116364 
L 90.738843 242.116364 
L 93.813223 242.116364 
L 96.887603 242.116364 
L 99.961983 242.116364 
L 103.036364 242.116364 
L 106.110744 242.116364 
L 109.185124 242.116364 
L 112.259504 242.116364 
L 115.333884 242.116364 
L 118.408264 242.116364 
L 121.482645 242.116364 
L 124.557025 242.116364 
L 127.631405 242.116364 
L 130.705785 242.116364 
L 133.780165 242.116364 
L 136.854545 242.116364 
L 139.928926 242.116364 
L 143.003306 242.116364 
L 146.077686 242.116364 
L 149.152066 242.096596 
L 152.226446 242.076829 
L 155.300826 242.057062 
L 158.375207 242.037295 
L 161.449587 241.977993 
L 164.523967 241.958225 
L 167.598347 241.918691 
L 170.672727 241.800087 
L 173.747107 241.602415 
L 176.821488 241.444276 
L 179.895868 241.108233 
L 182.970248 240.653585 
L 186.044628 240.25824 
L 189.119008 239.546618 
L 192.193388 238.676858 
L 195.267769 237.411753 
L 198.342149 235.771069 
L 201.416529 233.833876 
L 204.490909 231.461804 
L 207.565289 228.239738 
L 210.639669 224.207215 
L 213.71405 220.016553 
L 216.78843 214.60032 
L 219.86281 208.867811 
L 222.93719 202.502749 
L 226.01157 194.3784 
L 229.08595 186.827302 
L 232.160331 177.694822 
L 235.234711 168.305367 
L 238.309091 159.291491 
L 241.383471 148.755535 
L 244.457851 139.543985 
L 247.532231 129.245236 
L 250.606612 119.242996 
L 253.680992 110.762836 
L 256.755372 101.926865 
L 259.829752 92.873455 
L 262.904132 85.836305 
L 265.978512 78.937527 
L 269.052893 72.908509 
L 272.127273 67.373673 
L 275.201653 63.380684 
L 278.276033 59.486531 
L 281.350413 55.849353 
L 284.424793 52.963331 
L 287.499174 50.571491 
L 290.573554 48.990109 
L 293.647934 47.784305 
L 296.722314 46.618036 
L 299.796694 45.886647 
L 302.871074 45.471535 
L 305.945455 45.076189 
L 309.019835 44.819215 
L 312.094215 44.661076 
L 315.168595 44.582007 
L 318.242975 44.483171 
L 321.317355 44.443636 
L 324.391736 44.443636 
L 327.466116 44.443636 
L 330.540496 44.443636 
L 333.614876 44.443636 
L 336.689256 44.443636 
L 339.763636 44.443636 
L 342.838017 44.443636 
L 345.912397 44.443636 
L 348.986777 44.443636 
L 352.061157 44.443636 
L 355.135537 44.443636 
L 358.209917 44.443636 
L 361.284298 44.443636 
L 364.358678 44.443636 
L 367.433058 44.443636 
L 370.507438 44.443636 
L 373.581818 44.443636 
" style="fill:none;stroke:#ccb974;stroke-linecap:round;stroke-width:1.5;"/>
   </g>
   <g id="line2d_22">
    <path clip-path="url(#p6e502fe32f)" d="M 69.218182 242.116364 
L 72.292562 242.116364 
L 75.366942 242.116364 
L 78.441322 242.116364 
L 81.515702 242.116364 
L 84.590083 242.116364 
L 87.664463 242.116364 
L 90.738843 242.116364 
L 93.813223 242.116364 
L 96.887603 242.116364 
L 99.961983 242.116364 
L 103.036364 242.116364 
L 106.110744 242.116364 
L 109.185124 242.116364 
L 112.259504 242.116364 
L 115.333884 242.116364 
L 118.408264 242.116364 
L 121.482645 242.116364 
L 124.557025 242.116364 
L 127.631405 242.116364 
L 130.705785 242.116364 
L 133.780165 242.096596 
L 136.854545 242.096596 
L 139.928926 242.057062 
L 143.003306 242.037295 
L 146.077686 242.037295 
L 149.152066 242.017527 
L 152.226446 241.977993 
L 155.300826 241.898924 
L 158.375207 241.839622 
L 161.449587 241.819855 
L 164.523967 241.602415 
L 167.598347 241.444276 
L 170.672727 241.246604 
L 173.747107 240.791956 
L 176.821488 239.902429 
L 179.895868 239.17104 
L 182.970248 238.30128 
L 186.044628 237.135011 
L 189.119008 235.573396 
L 192.193388 233.576902 
L 195.267769 230.829251 
L 198.342149 227.449047 
L 201.416529 223.218851 
L 204.490909 218.474705 
L 207.565289 211.971273 
L 210.639669 205.46784 
L 213.71405 197.383025 
L 216.78843 189.041236 
L 219.86281 178.999462 
L 222.93719 167.751884 
L 226.01157 156.800815 
L 229.08595 144.643942 
L 232.160331 132.921949 
L 235.234711 120.863913 
L 238.309091 110.051215 
L 241.383471 99.416422 
L 244.457851 89.374647 
L 247.532231 80.202633 
L 250.606612 72.631767 
L 253.680992 66.128335 
L 256.755372 60.87024 
L 259.829752 56.52144 
L 262.904132 53.25984 
L 265.978512 50.828465 
L 269.052893 48.495927 
L 272.127273 47.507564 
L 275.201653 46.400596 
L 278.276033 45.688975 
L 281.350413 45.155258 
L 284.424793 44.977353 
L 287.499174 44.740145 
L 290.573554 44.621542 
L 293.647934 44.56224 
L 296.722314 44.522705 
L 299.796694 44.522705 
L 302.871074 44.502938 
L 305.945455 44.502938 
L 309.019835 44.463404 
L 312.094215 44.463404 
L 315.168595 44.463404 
L 318.242975 44.443636 
L 321.317355 44.443636 
L 324.391736 44.443636 
L 327.466116 44.443636 
L 330.540496 44.443636 
L 333.614876 44.443636 
L 336.689256 44.443636 
L 339.763636 44.443636 
L 342.838017 44.443636 
L 345.912397 44.443636 
L 348.986777 44.443636 
L 352.061157 44.443636 
L 355.135537 44.443636 
L 358.209917 44.443636 
L 361.284298 44.443636 
L 364.358678 44.443636 
L 367.433058 44.443636 
L 370.507438 44.443636 
L 373.581818 44.443636 
" style="fill:none;stroke:#64b5cd;stroke-linecap:round;stroke-width:1.5;"/>
   </g>
   <g id="line2d_23">
    <path clip-path="url(#p6e502fe32f)" d="M 69.218182 242.116364 
L 72.292562 242.116364 
L 75.366942 242.116364 
L 78.441322 242.116364 
L 81.515702 242.116364 
L 84.590083 242.116364 
L 87.664463 242.116364 
L 90.738843 242.116364 
L 93.813223 242.116364 
L 96.887603 242.116364 
L 99.961983 242.116364 
L 103.036364 242.116364 
L 106.110744 242.116364 
L 109.185124 242.116364 
L 112.259504 242.116364 
L 115.333884 242.116364 
L 118.408264 242.096596 
L 121.482645 242.096596 
L 124.557025 242.096596 
L 127.631405 242.096596 
L 130.705785 242.096596 
L 133.780165 242.096596 
L 136.854545 242.057062 
L 139.928926 242.057062 
L 143.003306 242.057062 
L 146.077686 242.017527 
L 149.152066 241.938458 
L 152.226446 241.800087 
L 155.300826 241.641949 
L 158.375207 241.305905 
L 161.449587 241.108233 
L 164.523967 240.653585 
L 167.598347 240.001265 
L 170.672727 239.289644 
L 173.747107 238.143142 
L 176.821488 236.99664 
L 179.895868 235.494327 
L 182.970248 233.359462 
L 186.044628 230.671113 
L 189.119008 227.488582 
L 192.193388 223.396756 
L 195.267769 218.534007 
L 198.342149 212.267782 
L 201.416529 205.072495 
L 204.490909 196.533033 
L 207.565289 187.242415 
L 210.639669 175.599491 
L 213.71405 163.304247 
L 216.78843 151.068305 
L 219.86281 137.685862 
L 222.93719 124.461556 
L 226.01157 111.177949 
L 229.08595 98.546662 
L 232.160331 87.417687 
L 235.234711 77.652655 
L 238.309091 69.982953 
L 241.383471 63.123709 
L 244.457851 57.3912 
L 247.532231 52.864495 
L 250.606612 50.21568 
L 253.680992 48.337789 
L 256.755372 46.637804 
L 259.829752 45.570371 
L 262.904132 45.115724 
L 265.978512 44.759913 
L 269.052893 44.582007 
L 272.127273 44.56224 
L 275.201653 44.502938 
L 278.276033 44.463404 
L 281.350413 44.463404 
L 284.424793 44.463404 
L 287.499174 44.463404 
L 290.573554 44.443636 
L 293.647934 44.443636 
L 296.722314 44.443636 
L 299.796694 44.443636 
L 302.871074 44.443636 
L 305.945455 44.443636 
L 309.019835 44.443636 
L 312.094215 44.443636 
L 315.168595 44.443636 
L 318.242975 44.443636 
L 321.317355 44.443636 
L 324.391736 44.443636 
L 327.466116 44.443636 
L 330.540496 44.443636 
L 333.614876 44.443636 
L 336.689256 44.443636 
L 339.763636 44.443636 
L 342.838017 44.443636 
L 345.912397 44.443636 
L 348.986777 44.443636 
L 352.061157 44.443636 
L 355.135537 44.443636 
L 358.209917 44.443636 
L 361.284298 44.443636 
L 364.358678 44.443636 
L 367.433058 44.443636 
L 370.507438 44.443636 
L 373.581818 44.443636 
" style="fill:none;stroke:#4c72b0;stroke-linecap:round;stroke-width:1.5;"/>
   </g>
   <g id="patch_3">
    <path d="M 54 252 
L 54 34.56 
" style="fill:none;stroke:#ffffff;stroke-linecap:square;stroke-linejoin:miter;stroke-width:1.25;"/>
   </g>
   <g id="patch_4">
    <path d="M 388.8 252 
L 388.8 34.56 
" style="fill:none;stroke:#ffffff;stroke-linecap:square;stroke-linejoin:miter;stroke-width:1.25;"/>
   </g>
   <g id="patch_5">
    <path d="M 54 252 
L 388.8 252 
" style="fill:none;stroke:#ffffff;stroke-linecap:square;stroke-linejoin:miter;stroke-width:1.25;"/>
   </g>
   <g id="patch_6">
    <path d="M 54 34.56 
L 388.8 34.56 
" style="fill:none;stroke:#ffffff;stroke-linecap:square;stroke-linejoin:miter;stroke-width:1.25;"/>
   </g>
   <g id="legend_1">
    <g id="patch_7">
     <path d="M 61.7 220.965313 
L 128.390938 220.965313 
Q 130.590937 220.965313 130.590937 218.765313 
L 130.590937 42.26 
Q 130.590937 40.06 128.390938 40.06 
L 61.7 40.06 
Q 59.5 40.06 59.5 42.26 
L 59.5 218.765313 
Q 59.5 220.965313 61.7 220.965313 
z
" style="fill:#eaeaf2;opacity:0.8;stroke:#cccccc;stroke-linejoin:miter;"/>
    </g>
    <g id="line2d_24">
     <path d="M 63.9 48.968281 
L 85.9 48.968281 
" style="fill:none;stroke:#4c72b0;stroke-linecap:round;stroke-width:1.5;"/>
    </g>
    <g id="line2d_25"/>
    <g id="text_15">
     <!-- 6.08 -->
     <defs>
      <path d="M 10.6875 12.40625 
L 21 12.40625 
L 21 0 
L 10.6875 0 
z
" id="DejaVuSans-2e"/>
     </defs>
     <g style="fill:#262626;" transform="translate(94.7 52.818281)scale(0.11 -0.11)">
      <use xlink:href="#DejaVuSans-36"/>
      <use x="63.623047" xlink:href="#DejaVuSans-2e"/>
      <use x="95.410156" xlink:href="#DejaVuSans-30"/>
      <use x="159.033203" xlink:href="#DejaVuSans-38"/>
     </g>
    </g>
    <g id="line2d_26">
     <path d="M 63.9 65.114219 
L 85.9 65.114219 
" style="fill:none;stroke:#dd8452;stroke-linecap:round;stroke-width:1.5;"/>
    </g>
    <g id="line2d_27"/>
    <g id="text_16">
     <!-- 6.51 -->
     <defs>
      <path d="M 10.796875 72.90625 
L 49.515625 72.90625 
L 49.515625 64.59375 
L 19.828125 64.59375 
L 19.828125 46.734375 
Q 21.96875 47.46875 24.109375 47.828125 
Q 26.265625 48.1875 28.421875 48.1875 
Q 40.625 48.1875 47.75 41.5 
Q 54.890625 34.8125 54.890625 23.390625 
Q 54.890625 11.625 47.5625 5.09375 
Q 40.234375 -1.421875 26.90625 -1.421875 
Q 22.3125 -1.421875 17.546875 -0.640625 
Q 12.796875 0.140625 7.71875 1.703125 
L 7.71875 11.625 
Q 12.109375 9.234375 16.796875 8.0625 
Q 21.484375 6.890625 26.703125 6.890625 
Q 35.15625 6.890625 40.078125 11.328125 
Q 45.015625 15.765625 45.015625 23.390625 
Q 45.015625 31 40.078125 35.4375 
Q 35.15625 39.890625 26.703125 39.890625 
Q 22.75 39.890625 18.8125 39.015625 
Q 14.890625 38.140625 10.796875 36.28125 
z
" id="DejaVuSans-35"/>
     </defs>
     <g style="fill:#262626;" transform="translate(94.7 68.964219)scale(0.11 -0.11)">
      <use xlink:href="#DejaVuSans-36"/>
      <use x="63.623047" xlink:href="#DejaVuSans-2e"/>
      <use x="95.410156" xlink:href="#DejaVuSans-35"/>
      <use x="159.033203" xlink:href="#DejaVuSans-31"/>
     </g>
    </g>
    <g id="line2d_28">
     <path d="M 63.9 81.260156 
L 85.9 81.260156 
" style="fill:none;stroke:#55a868;stroke-linecap:round;stroke-width:1.5;"/>
    </g>
    <g id="line2d_29"/>
    <g id="text_17">
     <!-- 6.95 -->
     <defs>
      <path d="M 10.984375 1.515625 
L 10.984375 10.5 
Q 14.703125 8.734375 18.5 7.8125 
Q 22.3125 6.890625 25.984375 6.890625 
Q 35.75 6.890625 40.890625 13.453125 
Q 46.046875 20.015625 46.78125 33.40625 
Q 43.953125 29.203125 39.59375 26.953125 
Q 35.25 24.703125 29.984375 24.703125 
Q 19.046875 24.703125 12.671875 31.3125 
Q 6.296875 37.9375 6.296875 49.421875 
Q 6.296875 60.640625 12.9375 67.421875 
Q 19.578125 74.21875 30.609375 74.21875 
Q 43.265625 74.21875 49.921875 64.515625 
Q 56.59375 54.828125 56.59375 36.375 
Q 56.59375 19.140625 48.40625 8.859375 
Q 40.234375 -1.421875 26.421875 -1.421875 
Q 22.703125 -1.421875 18.890625 -0.6875 
Q 15.09375 0.046875 10.984375 1.515625 
z
M 30.609375 32.421875 
Q 37.25 32.421875 41.125 36.953125 
Q 45.015625 41.5 45.015625 49.421875 
Q 45.015625 57.28125 41.125 61.84375 
Q 37.25 66.40625 30.609375 66.40625 
Q 23.96875 66.40625 20.09375 61.84375 
Q 16.21875 57.28125 16.21875 49.421875 
Q 16.21875 41.5 20.09375 36.953125 
Q 23.96875 32.421875 30.609375 32.421875 
z
" id="DejaVuSans-39"/>
     </defs>
     <g style="fill:#262626;" transform="translate(94.7 85.110156)scale(0.11 -0.11)">
      <use xlink:href="#DejaVuSans-36"/>
      <use x="63.623047" xlink:href="#DejaVuSans-2e"/>
      <use x="95.410156" xlink:href="#DejaVuSans-39"/>
      <use x="159.033203" xlink:href="#DejaVuSans-35"/>
     </g>
    </g>
    <g id="line2d_30">
     <path d="M 63.9 97.406094 
L 85.9 97.406094 
" style="fill:none;stroke:#c44e52;stroke-linecap:round;stroke-width:1.5;"/>
    </g>
    <g id="line2d_31"/>
    <g id="text_18">
     <!-- 7.38 -->
     <defs>
      <path d="M 8.203125 72.90625 
L 55.078125 72.90625 
L 55.078125 68.703125 
L 28.609375 0 
L 18.3125 0 
L 43.21875 64.59375 
L 8.203125 64.59375 
z
" id="DejaVuSans-37"/>
      <path d="M 40.578125 39.3125 
Q 47.65625 37.796875 51.625 33 
Q 55.609375 28.21875 55.609375 21.1875 
Q 55.609375 10.40625 48.1875 4.484375 
Q 40.765625 -1.421875 27.09375 -1.421875 
Q 22.515625 -1.421875 17.65625 -0.515625 
Q 12.796875 0.390625 7.625 2.203125 
L 7.625 11.71875 
Q 11.71875 9.328125 16.59375 8.109375 
Q 21.484375 6.890625 26.8125 6.890625 
Q 36.078125 6.890625 40.9375 10.546875 
Q 45.796875 14.203125 45.796875 21.1875 
Q 45.796875 27.640625 41.28125 31.265625 
Q 36.765625 34.90625 28.71875 34.90625 
L 20.21875 34.90625 
L 20.21875 43.015625 
L 29.109375 43.015625 
Q 36.375 43.015625 40.234375 45.921875 
Q 44.09375 48.828125 44.09375 54.296875 
Q 44.09375 59.90625 40.109375 62.90625 
Q 36.140625 65.921875 28.71875 65.921875 
Q 24.65625 65.921875 20.015625 65.03125 
Q 15.375 64.15625 9.8125 62.3125 
L 9.8125 71.09375 
Q 15.4375 72.65625 20.34375 73.4375 
Q 25.25 74.21875 29.59375 74.21875 
Q 40.828125 74.21875 47.359375 69.109375 
Q 53.90625 64.015625 53.90625 55.328125 
Q 53.90625 49.265625 50.4375 45.09375 
Q 46.96875 40.921875 40.578125 39.3125 
z
" id="DejaVuSans-33"/>
     </defs>
     <g style="fill:#262626;" transform="translate(94.7 101.256094)scale(0.11 -0.11)">
      <use xlink:href="#DejaVuSans-37"/>
      <use x="63.623047" xlink:href="#DejaVuSans-2e"/>
      <use x="95.410156" xlink:href="#DejaVuSans-33"/>
      <use x="159.033203" xlink:href="#DejaVuSans-38"/>
     </g>
    </g>
    <g id="line2d_32">
     <path d="M 63.9 113.552031 
L 85.9 113.552031 
" style="fill:none;stroke:#8172b3;stroke-linecap:round;stroke-width:1.5;"/>
    </g>
    <g id="line2d_33"/>
    <g id="text_19">
     <!-- 7.82 -->
     <g style="fill:#262626;" transform="translate(94.7 117.402031)scale(0.11 -0.11)">
      <use xlink:href="#DejaVuSans-37"/>
      <use x="63.623047" xlink:href="#DejaVuSans-2e"/>
      <use x="95.410156" xlink:href="#DejaVuSans-38"/>
      <use x="159.033203" xlink:href="#DejaVuSans-32"/>
     </g>
    </g>
    <g id="line2d_34">
     <path d="M 63.9 129.697969 
L 85.9 129.697969 
" style="fill:none;stroke:#937860;stroke-linecap:round;stroke-width:1.5;"/>
    </g>
    <g id="line2d_35"/>
    <g id="text_20">
     <!-- 8.25 -->
     <g style="fill:#262626;" transform="translate(94.7 133.547969)scale(0.11 -0.11)">
      <use xlink:href="#DejaVuSans-38"/>
      <use x="63.623047" xlink:href="#DejaVuSans-2e"/>
      <use x="95.410156" xlink:href="#DejaVuSans-32"/>
      <use x="159.033203" xlink:href="#DejaVuSans-35"/>
     </g>
    </g>
    <g id="line2d_36">
     <path d="M 63.9 145.843906 
L 85.9 145.843906 
" style="fill:none;stroke:#da8bc3;stroke-linecap:round;stroke-width:1.5;"/>
    </g>
    <g id="line2d_37"/>
    <g id="text_21">
     <!-- 8.69 -->
     <g style="fill:#262626;" transform="translate(94.7 149.693906)scale(0.11 -0.11)">
      <use xlink:href="#DejaVuSans-38"/>
      <use x="63.623047" xlink:href="#DejaVuSans-2e"/>
      <use x="95.410156" xlink:href="#DejaVuSans-36"/>
      <use x="159.033203" xlink:href="#DejaVuSans-39"/>
     </g>
    </g>
    <g id="line2d_38">
     <path d="M 63.9 161.989844 
L 85.9 161.989844 
" style="fill:none;stroke:#8c8c8c;stroke-linecap:round;stroke-width:1.5;"/>
    </g>
    <g id="line2d_39"/>
    <g id="text_22">
     <!-- 9.12 -->
     <g style="fill:#262626;" transform="translate(94.7 165.839844)scale(0.11 -0.11)">
      <use xlink:href="#DejaVuSans-39"/>
      <use x="63.623047" xlink:href="#DejaVuSans-2e"/>
      <use x="95.410156" xlink:href="#DejaVuSans-31"/>
      <use x="159.033203" xlink:href="#DejaVuSans-32"/>
     </g>
    </g>
    <g id="line2d_40">
     <path d="M 63.9 178.135781 
L 85.9 178.135781 
" style="fill:none;stroke:#ccb974;stroke-linecap:round;stroke-width:1.5;"/>
    </g>
    <g id="line2d_41"/>
    <g id="text_23">
     <!-- 9.55 -->
     <g style="fill:#262626;" transform="translate(94.7 181.985781)scale(0.11 -0.11)">
      <use xlink:href="#DejaVuSans-39"/>
      <use x="63.623047" xlink:href="#DejaVuSans-2e"/>
      <use x="95.410156" xlink:href="#DejaVuSans-35"/>
      <use x="159.033203" xlink:href="#DejaVuSans-35"/>
     </g>
    </g>
    <g id="line2d_42">
     <path d="M 63.9 194.281719 
L 85.9 194.281719 
" style="fill:none;stroke:#64b5cd;stroke-linecap:round;stroke-width:1.5;"/>
    </g>
    <g id="line2d_43"/>
    <g id="text_24">
     <!-- 9.99 -->
     <g style="fill:#262626;" transform="translate(94.7 198.131719)scale(0.11 -0.11)">
      <use xlink:href="#DejaVuSans-39"/>
      <use x="63.623047" xlink:href="#DejaVuSans-2e"/>
      <use x="95.410156" xlink:href="#DejaVuSans-39"/>
      <use x="159.033203" xlink:href="#DejaVuSans-39"/>
     </g>
    </g>
    <g id="line2d_44">
     <path d="M 63.9 210.427656 
L 85.9 210.427656 
" style="fill:none;stroke:#4c72b0;stroke-linecap:round;stroke-width:1.5;"/>
    </g>
    <g id="line2d_45"/>
    <g id="text_25">
     <!-- 10.42 -->
     <g style="fill:#262626;" transform="translate(94.7 214.277656)scale(0.11 -0.11)">
      <use xlink:href="#DejaVuSans-31"/>
      <use x="63.623047" xlink:href="#DejaVuSans-30"/>
      <use x="127.246094" xlink:href="#DejaVuSans-2e"/>
      <use x="159.033203" xlink:href="#DejaVuSans-34"/>
      <use x="222.65625" xlink:href="#DejaVuSans-32"/>
     </g>
    </g>
   </g>
  </g>
 </g>
 <defs>
  <clipPath id="p6e502fe32f">
   <rect height="217.44" width="334.8" x="54" y="34.56"/>
  </clipPath>
 </defs>
</svg>
