<?xml version="1.0" encoding="utf-8" standalone="no"?>
<!DOCTYPE svg PUBLIC "-//W3C//DTD SVG 1.1//EN"
  "http://www.w3.org/Graphics/SVG/1.1/DTD/svg11.dtd">
<!-- Created with matplotlib (http://matplotlib.org/) -->
<svg height="345.6pt" version="1.1" viewBox="0 0 460.8 345.6" width="460.8pt" xmlns="http://www.w3.org/2000/svg" xmlns:xlink="http://www.w3.org/1999/xlink">
 <defs>
  <style type="text/css">
*{stroke-linecap:butt;stroke-linejoin:round;}
  </style>
 </defs>
 <g id="figure_1">
  <g id="patch_1">
   <path d="M 0 345.6 
L 460.8 345.6 
L 460.8 0 
L 0 0 
z
" style="fill:#ffffff;"/>
  </g>
  <g id="axes_1">
   <g id="patch_2">
    <path d="M 57.6 307.584 
L 414.72 307.584 
L 414.72 41.472 
L 57.6 41.472 
z
" style="fill:#ffffff;"/>
   </g>
   <g id="matplotlib.axis_1">
    <g id="xtick_1">
     <g id="line2d_1">
      <defs>
       <path d="M 0 0 
L 0 4.8 
" id="md36a56a519" style="stroke:#262626;"/>
      </defs>
      <g>
       <use style="fill:#262626;stroke:#262626;" x="73.832727" xlink:href="#md36a56a519" y="307.584"/>
      </g>
     </g>
     <g id="text_1">
      <!-- 0 -->
      <defs>
       <path d="M 31.78125 66.40625 
Q 24.171875 66.40625 20.328125 58.90625 
Q 16.5 51.421875 16.5 36.375 
Q 16.5 21.390625 20.328125 13.890625 
Q 24.171875 6.390625 31.78125 6.390625 
Q 39.453125 6.390625 43.28125 13.890625 
Q 47.125 21.390625 47.125 36.375 
Q 47.125 51.421875 43.28125 58.90625 
Q 39.453125 66.40625 31.78125 66.40625 
z
M 31.78125 74.21875 
Q 44.046875 74.21875 50.515625 64.515625 
Q 56.984375 54.828125 56.984375 36.375 
Q 56.984375 17.96875 50.515625 8.265625 
Q 44.046875 -1.421875 31.78125 -1.421875 
Q 19.53125 -1.421875 13.0625 8.265625 
Q 6.59375 17.96875 6.59375 36.375 
Q 6.59375 54.828125 13.0625 64.515625 
Q 19.53125 74.21875 31.78125 74.21875 
z
" id="DejaVuSans-30"/>
      </defs>
      <g style="fill:#262626;" transform="translate(71.033227 322.570625)scale(0.088 -0.088)">
       <use xlink:href="#DejaVuSans-30"/>
      </g>
     </g>
    </g>
    <g id="xtick_2">
     <g id="line2d_2">
      <g>
       <use style="fill:#262626;stroke:#262626;" x="139.419504" xlink:href="#md36a56a519" y="307.584"/>
      </g>
     </g>
     <g id="text_2">
      <!-- 20 -->
      <defs>
       <path d="M 19.1875 8.296875 
L 53.609375 8.296875 
L 53.609375 0 
L 7.328125 0 
L 7.328125 8.296875 
Q 12.9375 14.109375 22.625 23.890625 
Q 32.328125 33.6875 34.8125 36.53125 
Q 39.546875 41.84375 41.421875 45.53125 
Q 43.3125 49.21875 43.3125 52.78125 
Q 43.3125 58.59375 39.234375 62.25 
Q 35.15625 65.921875 28.609375 65.921875 
Q 23.96875 65.921875 18.8125 64.3125 
Q 13.671875 62.703125 7.8125 59.421875 
L 7.8125 69.390625 
Q 13.765625 71.78125 18.9375 73 
Q 24.125 74.21875 28.421875 74.21875 
Q 39.75 74.21875 46.484375 68.546875 
Q 53.21875 62.890625 53.21875 53.421875 
Q 53.21875 48.921875 51.53125 44.890625 
Q 49.859375 40.875 45.40625 35.40625 
Q 44.1875 33.984375 37.640625 27.21875 
Q 31.109375 20.453125 19.1875 8.296875 
z
" id="DejaVuSans-32"/>
      </defs>
      <g style="fill:#262626;" transform="translate(133.820504 322.570625)scale(0.088 -0.088)">
       <use xlink:href="#DejaVuSans-32"/>
       <use x="63.623047" xlink:href="#DejaVuSans-30"/>
      </g>
     </g>
    </g>
    <g id="xtick_3">
     <g id="line2d_3">
      <g>
       <use style="fill:#262626;stroke:#262626;" x="205.006281" xlink:href="#md36a56a519" y="307.584"/>
      </g>
     </g>
     <g id="text_3">
      <!-- 40 -->
      <defs>
       <path d="M 37.796875 64.3125 
L 12.890625 25.390625 
L 37.796875 25.390625 
z
M 35.203125 72.90625 
L 47.609375 72.90625 
L 47.609375 25.390625 
L 58.015625 25.390625 
L 58.015625 17.1875 
L 47.609375 17.1875 
L 47.609375 0 
L 37.796875 0 
L 37.796875 17.1875 
L 4.890625 17.1875 
L 4.890625 26.703125 
z
" id="DejaVuSans-34"/>
      </defs>
      <g style="fill:#262626;" transform="translate(199.407281 322.570625)scale(0.088 -0.088)">
       <use xlink:href="#DejaVuSans-34"/>
       <use x="63.623047" xlink:href="#DejaVuSans-30"/>
      </g>
     </g>
    </g>
    <g id="xtick_4">
     <g id="line2d_4">
      <g>
       <use style="fill:#262626;stroke:#262626;" x="270.593058" xlink:href="#md36a56a519" y="307.584"/>
      </g>
     </g>
     <g id="text_4">
      <!-- 60 -->
      <defs>
       <path d="M 33.015625 40.375 
Q 26.375 40.375 22.484375 35.828125 
Q 18.609375 31.296875 18.609375 23.390625 
Q 18.609375 15.53125 22.484375 10.953125 
Q 26.375 6.390625 33.015625 6.390625 
Q 39.65625 6.390625 43.53125 10.953125 
Q 47.40625 15.53125 47.40625 23.390625 
Q 47.40625 31.296875 43.53125 35.828125 
Q 39.65625 40.375 33.015625 40.375 
z
M 52.59375 71.296875 
L 52.59375 62.3125 
Q 48.875 64.0625 45.09375 64.984375 
Q 41.3125 65.921875 37.59375 65.921875 
Q 27.828125 65.921875 22.671875 59.328125 
Q 17.53125 52.734375 16.796875 39.40625 
Q 19.671875 43.65625 24.015625 45.921875 
Q 28.375 48.1875 33.59375 48.1875 
Q 44.578125 48.1875 50.953125 41.515625 
Q 57.328125 34.859375 57.328125 23.390625 
Q 57.328125 12.15625 50.6875 5.359375 
Q 44.046875 -1.421875 33.015625 -1.421875 
Q 20.359375 -1.421875 13.671875 8.265625 
Q 6.984375 17.96875 6.984375 36.375 
Q 6.984375 53.65625 15.1875 63.9375 
Q 23.390625 74.21875 37.203125 74.21875 
Q 40.921875 74.21875 44.703125 73.484375 
Q 48.484375 72.75 52.59375 71.296875 
z
" id="DejaVuSans-36"/>
      </defs>
      <g style="fill:#262626;" transform="translate(264.994058 322.570625)scale(0.088 -0.088)">
       <use xlink:href="#DejaVuSans-36"/>
       <use x="63.623047" xlink:href="#DejaVuSans-30"/>
      </g>
     </g>
    </g>
    <g id="xtick_5">
     <g id="line2d_5">
      <g>
       <use style="fill:#262626;stroke:#262626;" x="336.179835" xlink:href="#md36a56a519" y="307.584"/>
      </g>
     </g>
     <g id="text_5">
      <!-- 80 -->
      <defs>
       <path d="M 31.78125 34.625 
Q 24.75 34.625 20.71875 30.859375 
Q 16.703125 27.09375 16.703125 20.515625 
Q 16.703125 13.921875 20.71875 10.15625 
Q 24.75 6.390625 31.78125 6.390625 
Q 38.8125 6.390625 42.859375 10.171875 
Q 46.921875 13.96875 46.921875 20.515625 
Q 46.921875 27.09375 42.890625 30.859375 
Q 38.875 34.625 31.78125 34.625 
z
M 21.921875 38.8125 
Q 15.578125 40.375 12.03125 44.71875 
Q 8.5 49.078125 8.5 55.328125 
Q 8.5 64.0625 14.71875 69.140625 
Q 20.953125 74.21875 31.78125 74.21875 
Q 42.671875 74.21875 48.875 69.140625 
Q 55.078125 64.0625 55.078125 55.328125 
Q 55.078125 49.078125 51.53125 44.71875 
Q 48 40.375 41.703125 38.8125 
Q 48.828125 37.15625 52.796875 32.3125 
Q 56.78125 27.484375 56.78125 20.515625 
Q 56.78125 9.90625 50.3125 4.234375 
Q 43.84375 -1.421875 31.78125 -1.421875 
Q 19.734375 -1.421875 13.25 4.234375 
Q 6.78125 9.90625 6.78125 20.515625 
Q 6.78125 27.484375 10.78125 32.3125 
Q 14.796875 37.15625 21.921875 38.8125 
z
M 18.3125 54.390625 
Q 18.3125 48.734375 21.84375 45.5625 
Q 25.390625 42.390625 31.78125 42.390625 
Q 38.140625 42.390625 41.71875 45.5625 
Q 45.3125 48.734375 45.3125 54.390625 
Q 45.3125 60.0625 41.71875 63.234375 
Q 38.140625 66.40625 31.78125 66.40625 
Q 25.390625 66.40625 21.84375 63.234375 
Q 18.3125 60.0625 18.3125 54.390625 
z
" id="DejaVuSans-38"/>
      </defs>
      <g style="fill:#262626;" transform="translate(330.580835 322.570625)scale(0.088 -0.088)">
       <use xlink:href="#DejaVuSans-38"/>
       <use x="63.623047" xlink:href="#DejaVuSans-30"/>
      </g>
     </g>
    </g>
    <g id="xtick_6">
     <g id="line2d_6">
      <g>
       <use style="fill:#262626;stroke:#262626;" x="401.766612" xlink:href="#md36a56a519" y="307.584"/>
      </g>
     </g>
     <g id="text_6">
      <!-- 100 -->
      <defs>
       <path d="M 12.40625 8.296875 
L 28.515625 8.296875 
L 28.515625 63.921875 
L 10.984375 60.40625 
L 10.984375 69.390625 
L 28.421875 72.90625 
L 38.28125 72.90625 
L 38.28125 8.296875 
L 54.390625 8.296875 
L 54.390625 0 
L 12.40625 0 
z
" id="DejaVuSans-31"/>
      </defs>
      <g style="fill:#262626;" transform="translate(393.368112 322.570625)scale(0.088 -0.088)">
       <use xlink:href="#DejaVuSans-31"/>
       <use x="63.623047" xlink:href="#DejaVuSans-30"/>
       <use x="127.246094" xlink:href="#DejaVuSans-30"/>
      </g>
     </g>
    </g>
    <g id="text_7">
     <!-- Time (years) -->
     <defs>
      <path d="M -0.296875 72.90625 
L 61.375 72.90625 
L 61.375 64.59375 
L 35.5 64.59375 
L 35.5 0 
L 25.59375 0 
L 25.59375 64.59375 
L -0.296875 64.59375 
z
" id="DejaVuSans-54"/>
      <path d="M 9.421875 54.6875 
L 18.40625 54.6875 
L 18.40625 0 
L 9.421875 0 
z
M 9.421875 75.984375 
L 18.40625 75.984375 
L 18.40625 64.59375 
L 9.421875 64.59375 
z
" id="DejaVuSans-69"/>
      <path d="M 52 44.1875 
Q 55.375 50.25 60.0625 53.125 
Q 64.75 56 71.09375 56 
Q 79.640625 56 84.28125 50.015625 
Q 88.921875 44.046875 88.921875 33.015625 
L 88.921875 0 
L 79.890625 0 
L 79.890625 32.71875 
Q 79.890625 40.578125 77.09375 44.375 
Q 74.3125 48.1875 68.609375 48.1875 
Q 61.625 48.1875 57.5625 43.546875 
Q 53.515625 38.921875 53.515625 30.90625 
L 53.515625 0 
L 44.484375 0 
L 44.484375 32.71875 
Q 44.484375 40.625 41.703125 44.40625 
Q 38.921875 48.1875 33.109375 48.1875 
Q 26.21875 48.1875 22.15625 43.53125 
Q 18.109375 38.875 18.109375 30.90625 
L 18.109375 0 
L 9.078125 0 
L 9.078125 54.6875 
L 18.109375 54.6875 
L 18.109375 46.1875 
Q 21.1875 51.21875 25.484375 53.609375 
Q 29.78125 56 35.6875 56 
Q 41.65625 56 45.828125 52.96875 
Q 50 49.953125 52 44.1875 
z
" id="DejaVuSans-6d"/>
      <path d="M 56.203125 29.59375 
L 56.203125 25.203125 
L 14.890625 25.203125 
Q 15.484375 15.921875 20.484375 11.0625 
Q 25.484375 6.203125 34.421875 6.203125 
Q 39.59375 6.203125 44.453125 7.46875 
Q 49.3125 8.734375 54.109375 11.28125 
L 54.109375 2.78125 
Q 49.265625 0.734375 44.1875 -0.34375 
Q 39.109375 -1.421875 33.890625 -1.421875 
Q 20.796875 -1.421875 13.15625 6.1875 
Q 5.515625 13.8125 5.515625 26.8125 
Q 5.515625 40.234375 12.765625 48.109375 
Q 20.015625 56 32.328125 56 
Q 43.359375 56 49.78125 48.890625 
Q 56.203125 41.796875 56.203125 29.59375 
z
M 47.21875 32.234375 
Q 47.125 39.59375 43.09375 43.984375 
Q 39.0625 48.390625 32.421875 48.390625 
Q 24.90625 48.390625 20.390625 44.140625 
Q 15.875 39.890625 15.1875 32.171875 
z
" id="DejaVuSans-65"/>
      <path id="DejaVuSans-20"/>
      <path d="M 31 75.875 
Q 24.46875 64.65625 21.28125 53.65625 
Q 18.109375 42.671875 18.109375 31.390625 
Q 18.109375 20.125 21.3125 9.0625 
Q 24.515625 -2 31 -13.1875 
L 23.1875 -13.1875 
Q 15.875 -1.703125 12.234375 9.375 
Q 8.59375 20.453125 8.59375 31.390625 
Q 8.59375 42.28125 12.203125 53.3125 
Q 15.828125 64.359375 23.1875 75.875 
z
" id="DejaVuSans-28"/>
      <path d="M 32.171875 -5.078125 
Q 28.375 -14.84375 24.75 -17.8125 
Q 21.140625 -20.796875 15.09375 -20.796875 
L 7.90625 -20.796875 
L 7.90625 -13.28125 
L 13.1875 -13.28125 
Q 16.890625 -13.28125 18.9375 -11.515625 
Q 21 -9.765625 23.484375 -3.21875 
L 25.09375 0.875 
L 2.984375 54.6875 
L 12.5 54.6875 
L 29.59375 11.921875 
L 46.6875 54.6875 
L 56.203125 54.6875 
z
" id="DejaVuSans-79"/>
      <path d="M 34.28125 27.484375 
Q 23.390625 27.484375 19.1875 25 
Q 14.984375 22.515625 14.984375 16.5 
Q 14.984375 11.71875 18.140625 8.90625 
Q 21.296875 6.109375 26.703125 6.109375 
Q 34.1875 6.109375 38.703125 11.40625 
Q 43.21875 16.703125 43.21875 25.484375 
L 43.21875 27.484375 
z
M 52.203125 31.203125 
L 52.203125 0 
L 43.21875 0 
L 43.21875 8.296875 
Q 40.140625 3.328125 35.546875 0.953125 
Q 30.953125 -1.421875 24.3125 -1.421875 
Q 15.921875 -1.421875 10.953125 3.296875 
Q 6 8.015625 6 15.921875 
Q 6 25.140625 12.171875 29.828125 
Q 18.359375 34.515625 30.609375 34.515625 
L 43.21875 34.515625 
L 43.21875 35.40625 
Q 43.21875 41.609375 39.140625 45 
Q 35.0625 48.390625 27.6875 48.390625 
Q 23 48.390625 18.546875 47.265625 
Q 14.109375 46.140625 10.015625 43.890625 
L 10.015625 52.203125 
Q 14.9375 54.109375 19.578125 55.046875 
Q 24.21875 56 28.609375 56 
Q 40.484375 56 46.34375 49.84375 
Q 52.203125 43.703125 52.203125 31.203125 
z
" id="DejaVuSans-61"/>
      <path d="M 41.109375 46.296875 
Q 39.59375 47.171875 37.8125 47.578125 
Q 36.03125 48 33.890625 48 
Q 26.265625 48 22.1875 43.046875 
Q 18.109375 38.09375 18.109375 28.8125 
L 18.109375 0 
L 9.078125 0 
L 9.078125 54.6875 
L 18.109375 54.6875 
L 18.109375 46.1875 
Q 20.953125 51.171875 25.484375 53.578125 
Q 30.03125 56 36.53125 56 
Q 37.453125 56 38.578125 55.875 
Q 39.703125 55.765625 41.0625 55.515625 
z
" id="DejaVuSans-72"/>
      <path d="M 44.28125 53.078125 
L 44.28125 44.578125 
Q 40.484375 46.53125 36.375 47.5 
Q 32.28125 48.484375 27.875 48.484375 
Q 21.1875 48.484375 17.84375 46.4375 
Q 14.5 44.390625 14.5 40.28125 
Q 14.5 37.15625 16.890625 35.375 
Q 19.28125 33.59375 26.515625 31.984375 
L 29.59375 31.296875 
Q 39.15625 29.25 43.1875 25.515625 
Q 47.21875 21.78125 47.21875 15.09375 
Q 47.21875 7.46875 41.1875 3.015625 
Q 35.15625 -1.421875 24.609375 -1.421875 
Q 20.21875 -1.421875 15.453125 -0.5625 
Q 10.6875 0.296875 5.421875 2 
L 5.421875 11.28125 
Q 10.40625 8.6875 15.234375 7.390625 
Q 20.0625 6.109375 24.8125 6.109375 
Q 31.15625 6.109375 34.5625 8.28125 
Q 37.984375 10.453125 37.984375 14.40625 
Q 37.984375 18.0625 35.515625 20.015625 
Q 33.0625 21.96875 24.703125 23.78125 
L 21.578125 24.515625 
Q 13.234375 26.265625 9.515625 29.90625 
Q 5.8125 33.546875 5.8125 39.890625 
Q 5.8125 47.609375 11.28125 51.796875 
Q 16.75 56 26.8125 56 
Q 31.78125 56 36.171875 55.265625 
Q 40.578125 54.546875 44.28125 53.078125 
z
" id="DejaVuSans-73"/>
      <path d="M 8.015625 75.875 
L 15.828125 75.875 
Q 23.140625 64.359375 26.78125 53.3125 
Q 30.421875 42.28125 30.421875 31.390625 
Q 30.421875 20.453125 26.78125 9.375 
Q 23.140625 -1.703125 15.828125 -13.1875 
L 8.015625 -13.1875 
Q 14.5 -2 17.703125 9.0625 
Q 20.90625 20.125 20.90625 31.390625 
Q 20.90625 42.671875 17.703125 53.65625 
Q 14.5 64.65625 8.015625 75.875 
z
" id="DejaVuSans-29"/>
     </defs>
     <g style="fill:#262626;" transform="translate(205.78725 335.69525)scale(0.096 -0.096)">
      <use xlink:href="#DejaVuSans-54"/>
      <use x="61.037109" xlink:href="#DejaVuSans-69"/>
      <use x="88.820312" xlink:href="#DejaVuSans-6d"/>
      <use x="186.232422" xlink:href="#DejaVuSans-65"/>
      <use x="247.755859" xlink:href="#DejaVuSans-20"/>
      <use x="279.542969" xlink:href="#DejaVuSans-28"/>
      <use x="318.556641" xlink:href="#DejaVuSans-79"/>
      <use x="377.736328" xlink:href="#DejaVuSans-65"/>
      <use x="439.259766" xlink:href="#DejaVuSans-61"/>
      <use x="500.539062" xlink:href="#DejaVuSans-72"/>
      <use x="541.652344" xlink:href="#DejaVuSans-73"/>
      <use x="593.751953" xlink:href="#DejaVuSans-29"/>
     </g>
    </g>
   </g>
   <g id="matplotlib.axis_2">
    <g id="ytick_1">
     <g id="line2d_7">
      <defs>
       <path d="M 0 0 
L -4.8 0 
" id="mdb36340c7a" style="stroke:#262626;"/>
      </defs>
      <g>
       <use style="fill:#262626;stroke:#262626;" x="57.6" xlink:href="#mdb36340c7a" y="295.490389"/>
      </g>
     </g>
     <g id="text_8">
      <!-- $\mathdefault{10^{0}}$ -->
      <g style="fill:#262626;" transform="translate(33.812 298.833702)scale(0.088 -0.088)">
       <use transform="translate(0 0.765625)" xlink:href="#DejaVuSans-31"/>
       <use transform="translate(63.623047 0.765625)" xlink:href="#DejaVuSans-30"/>
       <use transform="translate(128.203125 39.046875)scale(0.7)" xlink:href="#DejaVuSans-30"/>
      </g>
     </g>
    </g>
    <g id="ytick_2">
     <g id="line2d_8">
      <g>
       <use style="fill:#262626;stroke:#262626;" x="57.6" xlink:href="#mdb36340c7a" y="240.482274"/>
      </g>
     </g>
     <g id="text_9">
      <!-- $\mathdefault{10^{1}}$ -->
      <g style="fill:#262626;" transform="translate(33.812 243.825587)scale(0.088 -0.088)">
       <use transform="translate(0 0.684375)" xlink:href="#DejaVuSans-31"/>
       <use transform="translate(63.623047 0.684375)" xlink:href="#DejaVuSans-30"/>
       <use transform="translate(128.203125 38.965625)scale(0.7)" xlink:href="#DejaVuSans-31"/>
      </g>
     </g>
    </g>
    <g id="ytick_3">
     <g id="line2d_9">
      <g>
       <use style="fill:#262626;stroke:#262626;" x="57.6" xlink:href="#mdb36340c7a" y="185.474159"/>
      </g>
     </g>
     <g id="text_10">
      <!-- $\mathdefault{10^{2}}$ -->
      <g style="fill:#262626;" transform="translate(33.812 188.817472)scale(0.088 -0.088)">
       <use transform="translate(0 0.765625)" xlink:href="#DejaVuSans-31"/>
       <use transform="translate(63.623047 0.765625)" xlink:href="#DejaVuSans-30"/>
       <use transform="translate(128.203125 39.046875)scale(0.7)" xlink:href="#DejaVuSans-32"/>
      </g>
     </g>
    </g>
    <g id="ytick_4">
     <g id="line2d_10">
      <g>
       <use style="fill:#262626;stroke:#262626;" x="57.6" xlink:href="#mdb36340c7a" y="130.466045"/>
      </g>
     </g>
     <g id="text_11">
      <!-- $\mathdefault{10^{3}}$ -->
      <defs>
       <path d="M 40.578125 39.3125 
Q 47.65625 37.796875 51.625 33 
Q 55.609375 28.21875 55.609375 21.1875 
Q 55.609375 10.40625 48.1875 4.484375 
Q 40.765625 -1.421875 27.09375 -1.421875 
Q 22.515625 -1.421875 17.65625 -0.515625 
Q 12.796875 0.390625 7.625 2.203125 
L 7.625 11.71875 
Q 11.71875 9.328125 16.59375 8.109375 
Q 21.484375 6.890625 26.8125 6.890625 
Q 36.078125 6.890625 40.9375 10.546875 
Q 45.796875 14.203125 45.796875 21.1875 
Q 45.796875 27.640625 41.28125 31.265625 
Q 36.765625 34.90625 28.71875 34.90625 
L 20.21875 34.90625 
L 20.21875 43.015625 
L 29.109375 43.015625 
Q 36.375 43.015625 40.234375 45.921875 
Q 44.09375 48.828125 44.09375 54.296875 
Q 44.09375 59.90625 40.109375 62.90625 
Q 36.140625 65.921875 28.71875 65.921875 
Q 24.65625 65.921875 20.015625 65.03125 
Q 15.375 64.15625 9.8125 62.3125 
L 9.8125 71.09375 
Q 15.4375 72.65625 20.34375 73.4375 
Q 25.25 74.21875 29.59375 74.21875 
Q 40.828125 74.21875 47.359375 69.109375 
Q 53.90625 64.015625 53.90625 55.328125 
Q 53.90625 49.265625 50.4375 45.09375 
Q 46.96875 40.921875 40.578125 39.3125 
z
" id="DejaVuSans-33"/>
      </defs>
      <g style="fill:#262626;" transform="translate(33.812 133.809357)scale(0.088 -0.088)">
       <use transform="translate(0 0.765625)" xlink:href="#DejaVuSans-31"/>
       <use transform="translate(63.623047 0.765625)" xlink:href="#DejaVuSans-30"/>
       <use transform="translate(128.203125 39.046875)scale(0.7)" xlink:href="#DejaVuSans-33"/>
      </g>
     </g>
    </g>
    <g id="ytick_5">
     <g id="line2d_11">
      <g>
       <use style="fill:#262626;stroke:#262626;" x="57.6" xlink:href="#mdb36340c7a" y="75.45793"/>
      </g>
     </g>
     <g id="text_12">
      <!-- $\mathdefault{10^{4}}$ -->
      <g style="fill:#262626;" transform="translate(33.812 78.801242)scale(0.088 -0.088)">
       <use transform="translate(0 0.684375)" xlink:href="#DejaVuSans-31"/>
       <use transform="translate(63.623047 0.684375)" xlink:href="#DejaVuSans-30"/>
       <use transform="translate(128.203125 38.965625)scale(0.7)" xlink:href="#DejaVuSans-34"/>
      </g>
     </g>
    </g>
    <g id="ytick_6">
     <g id="line2d_12">
      <defs>
       <path d="M 0 0 
L -3.2 0 
" id="mb33dc742c6" style="stroke:#262626;stroke-width:0.8;"/>
      </defs>
      <g>
       <use style="fill:#262626;stroke:#262626;stroke-width:0.8;" x="57.6" xlink:href="#mb33dc742c6" y="307.693871"/>
      </g>
     </g>
    </g>
    <g id="ytick_7">
     <g id="line2d_13">
      <g>
       <use style="fill:#262626;stroke:#262626;stroke-width:0.8;" x="57.6" xlink:href="#mb33dc742c6" y="304.011254"/>
      </g>
     </g>
    </g>
    <g id="ytick_8">
     <g id="line2d_14">
      <g>
       <use style="fill:#262626;stroke:#262626;stroke-width:0.8;" x="57.6" xlink:href="#mb33dc742c6" y="300.821226"/>
      </g>
     </g>
    </g>
    <g id="ytick_9">
     <g id="line2d_15">
      <g>
       <use style="fill:#262626;stroke:#262626;stroke-width:0.8;" x="57.6" xlink:href="#mb33dc742c6" y="298.007422"/>
      </g>
     </g>
    </g>
    <g id="ytick_10">
     <g id="line2d_16">
      <g>
       <use style="fill:#262626;stroke:#262626;stroke-width:0.8;" x="57.6" xlink:href="#mb33dc742c6" y="278.931297"/>
      </g>
     </g>
    </g>
    <g id="ytick_11">
     <g id="line2d_17">
      <g>
       <use style="fill:#262626;stroke:#262626;stroke-width:0.8;" x="57.6" xlink:href="#mb33dc742c6" y="269.244848"/>
      </g>
     </g>
    </g>
    <g id="ytick_12">
     <g id="line2d_18">
      <g>
       <use style="fill:#262626;stroke:#262626;stroke-width:0.8;" x="57.6" xlink:href="#mb33dc742c6" y="262.372204"/>
      </g>
     </g>
    </g>
    <g id="ytick_13">
     <g id="line2d_19">
      <g>
       <use style="fill:#262626;stroke:#262626;stroke-width:0.8;" x="57.6" xlink:href="#mb33dc742c6" y="257.041367"/>
      </g>
     </g>
    </g>
    <g id="ytick_14">
     <g id="line2d_20">
      <g>
       <use style="fill:#262626;stroke:#262626;stroke-width:0.8;" x="57.6" xlink:href="#mb33dc742c6" y="252.685756"/>
      </g>
     </g>
    </g>
    <g id="ytick_15">
     <g id="line2d_21">
      <g>
       <use style="fill:#262626;stroke:#262626;stroke-width:0.8;" x="57.6" xlink:href="#mb33dc742c6" y="249.003139"/>
      </g>
     </g>
    </g>
    <g id="ytick_16">
     <g id="line2d_22">
      <g>
       <use style="fill:#262626;stroke:#262626;stroke-width:0.8;" x="57.6" xlink:href="#mb33dc742c6" y="245.813111"/>
      </g>
     </g>
    </g>
    <g id="ytick_17">
     <g id="line2d_23">
      <g>
       <use style="fill:#262626;stroke:#262626;stroke-width:0.8;" x="57.6" xlink:href="#mb33dc742c6" y="242.999308"/>
      </g>
     </g>
    </g>
    <g id="ytick_18">
     <g id="line2d_24">
      <g>
       <use style="fill:#262626;stroke:#262626;stroke-width:0.8;" x="57.6" xlink:href="#mb33dc742c6" y="223.923182"/>
      </g>
     </g>
    </g>
    <g id="ytick_19">
     <g id="line2d_25">
      <g>
       <use style="fill:#262626;stroke:#262626;stroke-width:0.8;" x="57.6" xlink:href="#mb33dc742c6" y="214.236733"/>
      </g>
     </g>
    </g>
    <g id="ytick_20">
     <g id="line2d_26">
      <g>
       <use style="fill:#262626;stroke:#262626;stroke-width:0.8;" x="57.6" xlink:href="#mb33dc742c6" y="207.364089"/>
      </g>
     </g>
    </g>
    <g id="ytick_21">
     <g id="line2d_27">
      <g>
       <use style="fill:#262626;stroke:#262626;stroke-width:0.8;" x="57.6" xlink:href="#mb33dc742c6" y="202.033252"/>
      </g>
     </g>
    </g>
    <g id="ytick_22">
     <g id="line2d_28">
      <g>
       <use style="fill:#262626;stroke:#262626;stroke-width:0.8;" x="57.6" xlink:href="#mb33dc742c6" y="197.677641"/>
      </g>
     </g>
    </g>
    <g id="ytick_23">
     <g id="line2d_29">
      <g>
       <use style="fill:#262626;stroke:#262626;stroke-width:0.8;" x="57.6" xlink:href="#mb33dc742c6" y="193.995024"/>
      </g>
     </g>
    </g>
    <g id="ytick_24">
     <g id="line2d_30">
      <g>
       <use style="fill:#262626;stroke:#262626;stroke-width:0.8;" x="57.6" xlink:href="#mb33dc742c6" y="190.804997"/>
      </g>
     </g>
    </g>
    <g id="ytick_25">
     <g id="line2d_31">
      <g>
       <use style="fill:#262626;stroke:#262626;stroke-width:0.8;" x="57.6" xlink:href="#mb33dc742c6" y="187.991193"/>
      </g>
     </g>
    </g>
    <g id="ytick_26">
     <g id="line2d_32">
      <g>
       <use style="fill:#262626;stroke:#262626;stroke-width:0.8;" x="57.6" xlink:href="#mb33dc742c6" y="168.915067"/>
      </g>
     </g>
    </g>
    <g id="ytick_27">
     <g id="line2d_33">
      <g>
       <use style="fill:#262626;stroke:#262626;stroke-width:0.8;" x="57.6" xlink:href="#mb33dc742c6" y="159.228619"/>
      </g>
     </g>
    </g>
    <g id="ytick_28">
     <g id="line2d_34">
      <g>
       <use style="fill:#262626;stroke:#262626;stroke-width:0.8;" x="57.6" xlink:href="#mb33dc742c6" y="152.355974"/>
      </g>
     </g>
    </g>
    <g id="ytick_29">
     <g id="line2d_35">
      <g>
       <use style="fill:#262626;stroke:#262626;stroke-width:0.8;" x="57.6" xlink:href="#mb33dc742c6" y="147.025137"/>
      </g>
     </g>
    </g>
    <g id="ytick_30">
     <g id="line2d_36">
      <g>
       <use style="fill:#262626;stroke:#262626;stroke-width:0.8;" x="57.6" xlink:href="#mb33dc742c6" y="142.669526"/>
      </g>
     </g>
    </g>
    <g id="ytick_31">
     <g id="line2d_37">
      <g>
       <use style="fill:#262626;stroke:#262626;stroke-width:0.8;" x="57.6" xlink:href="#mb33dc742c6" y="138.986909"/>
      </g>
     </g>
    </g>
    <g id="ytick_32">
     <g id="line2d_38">
      <g>
       <use style="fill:#262626;stroke:#262626;stroke-width:0.8;" x="57.6" xlink:href="#mb33dc742c6" y="135.796882"/>
      </g>
     </g>
    </g>
    <g id="ytick_33">
     <g id="line2d_39">
      <g>
       <use style="fill:#262626;stroke:#262626;stroke-width:0.8;" x="57.6" xlink:href="#mb33dc742c6" y="132.983078"/>
      </g>
     </g>
    </g>
    <g id="ytick_34">
     <g id="line2d_40">
      <g>
       <use style="fill:#262626;stroke:#262626;stroke-width:0.8;" x="57.6" xlink:href="#mb33dc742c6" y="113.906952"/>
      </g>
     </g>
    </g>
    <g id="ytick_35">
     <g id="line2d_41">
      <g>
       <use style="fill:#262626;stroke:#262626;stroke-width:0.8;" x="57.6" xlink:href="#mb33dc742c6" y="104.220504"/>
      </g>
     </g>
    </g>
    <g id="ytick_36">
     <g id="line2d_42">
      <g>
       <use style="fill:#262626;stroke:#262626;stroke-width:0.8;" x="57.6" xlink:href="#mb33dc742c6" y="97.347859"/>
      </g>
     </g>
    </g>
    <g id="ytick_37">
     <g id="line2d_43">
      <g>
       <use style="fill:#262626;stroke:#262626;stroke-width:0.8;" x="57.6" xlink:href="#mb33dc742c6" y="92.017022"/>
      </g>
     </g>
    </g>
    <g id="ytick_38">
     <g id="line2d_44">
      <g>
       <use style="fill:#262626;stroke:#262626;stroke-width:0.8;" x="57.6" xlink:href="#mb33dc742c6" y="87.661411"/>
      </g>
     </g>
    </g>
    <g id="ytick_39">
     <g id="line2d_45">
      <g>
       <use style="fill:#262626;stroke:#262626;stroke-width:0.8;" x="57.6" xlink:href="#mb33dc742c6" y="83.978795"/>
      </g>
     </g>
    </g>
    <g id="ytick_40">
     <g id="line2d_46">
      <g>
       <use style="fill:#262626;stroke:#262626;stroke-width:0.8;" x="57.6" xlink:href="#mb33dc742c6" y="80.788767"/>
      </g>
     </g>
    </g>
    <g id="ytick_41">
     <g id="line2d_47">
      <g>
       <use style="fill:#262626;stroke:#262626;stroke-width:0.8;" x="57.6" xlink:href="#mb33dc742c6" y="77.974963"/>
      </g>
     </g>
    </g>
    <g id="ytick_42">
     <g id="line2d_48">
      <g>
       <use style="fill:#262626;stroke:#262626;stroke-width:0.8;" x="57.6" xlink:href="#mb33dc742c6" y="58.898837"/>
      </g>
     </g>
    </g>
    <g id="ytick_43">
     <g id="line2d_49">
      <g>
       <use style="fill:#262626;stroke:#262626;stroke-width:0.8;" x="57.6" xlink:href="#mb33dc742c6" y="49.212389"/>
      </g>
     </g>
    </g>
    <g id="ytick_44">
     <g id="line2d_50">
      <g>
       <use style="fill:#262626;stroke:#262626;stroke-width:0.8;" x="57.6" xlink:href="#mb33dc742c6" y="42.339745"/>
      </g>
     </g>
    </g>
    <g id="text_13">
     <!-- Crude incidence -->
     <defs>
      <path d="M 64.40625 67.28125 
L 64.40625 56.890625 
Q 59.421875 61.53125 53.78125 63.8125 
Q 48.140625 66.109375 41.796875 66.109375 
Q 29.296875 66.109375 22.65625 58.46875 
Q 16.015625 50.828125 16.015625 36.375 
Q 16.015625 21.96875 22.65625 14.328125 
Q 29.296875 6.6875 41.796875 6.6875 
Q 48.140625 6.6875 53.78125 8.984375 
Q 59.421875 11.28125 64.40625 15.921875 
L 64.40625 5.609375 
Q 59.234375 2.09375 53.4375 0.328125 
Q 47.65625 -1.421875 41.21875 -1.421875 
Q 24.65625 -1.421875 15.125 8.703125 
Q 5.609375 18.84375 5.609375 36.375 
Q 5.609375 53.953125 15.125 64.078125 
Q 24.65625 74.21875 41.21875 74.21875 
Q 47.75 74.21875 53.53125 72.484375 
Q 59.328125 70.75 64.40625 67.28125 
z
" id="DejaVuSans-43"/>
      <path d="M 8.5 21.578125 
L 8.5 54.6875 
L 17.484375 54.6875 
L 17.484375 21.921875 
Q 17.484375 14.15625 20.5 10.265625 
Q 23.53125 6.390625 29.59375 6.390625 
Q 36.859375 6.390625 41.078125 11.03125 
Q 45.3125 15.671875 45.3125 23.6875 
L 45.3125 54.6875 
L 54.296875 54.6875 
L 54.296875 0 
L 45.3125 0 
L 45.3125 8.40625 
Q 42.046875 3.421875 37.71875 1 
Q 33.40625 -1.421875 27.6875 -1.421875 
Q 18.265625 -1.421875 13.375 4.4375 
Q 8.5 10.296875 8.5 21.578125 
z
M 31.109375 56 
z
" id="DejaVuSans-75"/>
      <path d="M 45.40625 46.390625 
L 45.40625 75.984375 
L 54.390625 75.984375 
L 54.390625 0 
L 45.40625 0 
L 45.40625 8.203125 
Q 42.578125 3.328125 38.25 0.953125 
Q 33.9375 -1.421875 27.875 -1.421875 
Q 17.96875 -1.421875 11.734375 6.484375 
Q 5.515625 14.40625 5.515625 27.296875 
Q 5.515625 40.1875 11.734375 48.09375 
Q 17.96875 56 27.875 56 
Q 33.9375 56 38.25 53.625 
Q 42.578125 51.265625 45.40625 46.390625 
z
M 14.796875 27.296875 
Q 14.796875 17.390625 18.875 11.75 
Q 22.953125 6.109375 30.078125 6.109375 
Q 37.203125 6.109375 41.296875 11.75 
Q 45.40625 17.390625 45.40625 27.296875 
Q 45.40625 37.203125 41.296875 42.84375 
Q 37.203125 48.484375 30.078125 48.484375 
Q 22.953125 48.484375 18.875 42.84375 
Q 14.796875 37.203125 14.796875 27.296875 
z
" id="DejaVuSans-64"/>
      <path d="M 54.890625 33.015625 
L 54.890625 0 
L 45.90625 0 
L 45.90625 32.71875 
Q 45.90625 40.484375 42.875 44.328125 
Q 39.84375 48.1875 33.796875 48.1875 
Q 26.515625 48.1875 22.3125 43.546875 
Q 18.109375 38.921875 18.109375 30.90625 
L 18.109375 0 
L 9.078125 0 
L 9.078125 54.6875 
L 18.109375 54.6875 
L 18.109375 46.1875 
Q 21.34375 51.125 25.703125 53.5625 
Q 30.078125 56 35.796875 56 
Q 45.21875 56 50.046875 50.171875 
Q 54.890625 44.34375 54.890625 33.015625 
z
" id="DejaVuSans-6e"/>
      <path d="M 48.78125 52.59375 
L 48.78125 44.1875 
Q 44.96875 46.296875 41.140625 47.34375 
Q 37.3125 48.390625 33.40625 48.390625 
Q 24.65625 48.390625 19.8125 42.84375 
Q 14.984375 37.3125 14.984375 27.296875 
Q 14.984375 17.28125 19.8125 11.734375 
Q 24.65625 6.203125 33.40625 6.203125 
Q 37.3125 6.203125 41.140625 7.25 
Q 44.96875 8.296875 48.78125 10.40625 
L 48.78125 2.09375 
Q 45.015625 0.34375 40.984375 -0.53125 
Q 36.96875 -1.421875 32.421875 -1.421875 
Q 20.0625 -1.421875 12.78125 6.34375 
Q 5.515625 14.109375 5.515625 27.296875 
Q 5.515625 40.671875 12.859375 48.328125 
Q 20.21875 56 33.015625 56 
Q 37.15625 56 41.109375 55.140625 
Q 45.0625 54.296875 48.78125 52.59375 
z
" id="DejaVuSans-63"/>
     </defs>
     <g style="fill:#262626;" transform="translate(27.8155 213.405)rotate(-90)scale(0.096 -0.096)">
      <use xlink:href="#DejaVuSans-43"/>
      <use x="69.824219" xlink:href="#DejaVuSans-72"/>
      <use x="110.9375" xlink:href="#DejaVuSans-75"/>
      <use x="174.316406" xlink:href="#DejaVuSans-64"/>
      <use x="237.792969" xlink:href="#DejaVuSans-65"/>
      <use x="299.316406" xlink:href="#DejaVuSans-20"/>
      <use x="331.103516" xlink:href="#DejaVuSans-69"/>
      <use x="358.886719" xlink:href="#DejaVuSans-6e"/>
      <use x="422.265625" xlink:href="#DejaVuSans-63"/>
      <use x="477.246094" xlink:href="#DejaVuSans-69"/>
      <use x="505.029297" xlink:href="#DejaVuSans-64"/>
      <use x="568.505859" xlink:href="#DejaVuSans-65"/>
      <use x="630.029297" xlink:href="#DejaVuSans-6e"/>
      <use x="693.408203" xlink:href="#DejaVuSans-63"/>
      <use x="748.388672" xlink:href="#DejaVuSans-65"/>
     </g>
    </g>
   </g>
   <g id="line2d_51">
    <path clip-path="url(#pab59bed001)" d="M 293.545383 346.6 
L 293.54843 295.488 
L 293.551477 346.6 
M 319.780093 346.6 
L 319.78314 295.485611 
L 323.062479 295.483221 
L 326.341818 295.480831 
L 329.621157 295.478441 
L 332.900496 278.914568 
L 336.179835 295.47127 
L 339.459174 295.468879 
L 342.738512 269.216163 
L 346.017851 295.459312 
L 349.29719 269.206594 
L 352.576529 278.888256 
L 355.855868 295.444955 
L 359.135207 262.317194 
L 362.414545 262.307614 
L 365.693884 262.298031 
L 368.973223 248.912185 
L 372.252562 256.93842 
L 375.531901 238.075987 
L 378.81124 252.541986 
L 382.090579 248.842539 
L 385.369917 248.825698 
L 388.649256 230.582256 
L 391.928595 256.815741 
L 395.207934 240.23252 
L 398.487273 232.160471 
" style="fill:none;stroke:#471365;stroke-linecap:round;stroke-width:1.2;"/>
   </g>
   <g id="line2d_52">
    <path clip-path="url(#pab59bed001)" d="M 241.075961 346.6 
L 241.079008 295.488 
L 241.082055 346.6 
M 254.19233 346.6 
L 254.196364 278.924129 
L 254.200397 346.6 
M 273.869349 346.6 
L 273.872397 295.480831 
L 277.151736 295.478441 
L 277.154783 346.6 
M 283.707365 346.6 
L 283.710413 295.476051 
L 286.989752 295.47366 
L 286.9928 346.6 
M 293.543819 346.6 
L 293.54843 269.220947 
L 296.827769 257.005505 
L 300.107107 295.452135 
L 303.386446 278.888256 
L 303.390482 346.6 
M 309.941088 346.6 
L 309.945124 278.883469 
L 313.224463 278.878681 
L 316.503802 269.185049 
L 319.78314 278.866707 
L 323.062479 256.964797 
L 326.341818 262.286046 
L 329.621157 262.276453 
L 332.900496 269.141901 
L 336.179835 262.259658 
L 339.459174 242.865149 
L 342.738512 262.228434 
L 346.017851 235.954035 
L 349.29719 229.042859 
L 352.576529 223.663769 
L 355.855868 226.137292 
L 359.135207 232.107227 
L 362.414545 222.369844 
L 365.693884 230.371623 
L 368.973223 223.450294 
L 372.252562 212.143935 
L 375.531901 230.208136 
L 378.81124 205.507758 
L 382.090579 211.925359 
L 385.369917 210.393022 
L 388.649256 205.240693 
L 391.928595 208.83362 
L 395.207934 200.86062 
L 398.487273 200.734831 
" style="fill:none;stroke:#482374;stroke-linecap:round;stroke-width:1.2;"/>
   </g>
   <g id="line2d_53">
    <path clip-path="url(#pab59bed001)" d="M 244.3553 346.6 
L 244.358347 295.488 
L 247.637686 295.485611 
L 247.640733 346.6 
M 254.193316 346.6 
L 254.196364 295.483221 
L 254.199411 346.6 
M 260.751994 346.6 
L 260.755041 295.480831 
L 260.758089 346.6 
M 270.59001 346.6 
L 270.593058 295.478441 
L 273.872397 262.350694 
L 277.151736 269.216163 
L 280.431074 278.897827 
L 283.710413 256.995933 
L 286.989752 248.940945 
L 290.269091 252.609186 
L 293.54843 256.952811 
L 296.827769 252.582808 
L 300.107107 262.259658 
L 303.386446 248.873785 
L 306.665785 256.9 
L 309.945124 234.041837 
L 313.224463 235.925142 
L 316.503802 232.208772 
L 319.78314 222.471606 
L 323.062479 230.47354 
L 326.341818 216.366012 
L 329.621157 221.205017 
L 332.900496 211.438127 
L 336.179835 207.974833 
L 339.459174 209.178076 
L 342.738512 199.807424 
L 346.017851 207.661481 
L 349.29719 195.811829 
L 352.576529 205.010814 
L 355.855868 201.699966 
L 359.135207 197.875615 
L 362.414545 186.853379 
L 365.693884 190.16015 
L 368.973223 187.265849 
L 372.252562 184.106904 
L 375.531901 186.789171 
L 378.81124 182.398743 
L 382.090579 176.773856 
L 385.369917 181.541978 
L 388.649256 176.336555 
L 391.928595 173.060794 
L 395.207934 172.144049 
L 398.487273 170.892788 
" style="fill:none;stroke:#46327e;stroke-linecap:round;stroke-width:1.2;"/>
   </g>
   <g id="line2d_54">
    <path clip-path="url(#pab59bed001)" d="M 185.327201 346.6 
L 185.330248 295.488 
L 185.333295 346.6 
M 231.237945 346.6 
L 231.240992 295.485611 
L 234.520331 295.483221 
L 234.523378 346.6 
M 241.075961 346.6 
L 241.079008 295.480831 
L 244.358347 257.019856 
L 247.637686 295.466487 
L 250.917025 278.902612 
L 250.921059 346.6 
M 257.471668 346.6 
L 257.475702 278.897827 
L 260.755041 256.995933 
L 264.03438 242.932322 
L 267.313719 256.9624 
L 270.593058 248.907389 
L 273.872397 252.575609 
L 277.151736 232.300276 
L 280.431074 235.954035 
L 283.710413 219.337121 
L 286.989752 227.534223 
L 290.269091 232.138704 
L 293.54843 216.383003 
L 296.827769 210.09828 
L 300.107107 211.423473 
L 303.386446 206.13748 
L 306.665785 203.275377 
L 309.945124 198.870511 
L 313.224463 202.003371 
L 316.503802 197.337479 
L 319.78314 191.658751 
L 323.062479 188.968967 
L 326.341818 190.296685 
L 329.621157 190.100656 
L 332.900496 181.649345 
L 336.179835 178.59355 
L 339.459174 174.363538 
L 342.738512 179.777345 
L 346.017851 173.331855 
L 349.29719 169.011568 
L 352.576529 165.916266 
L 355.855868 165.499391 
L 359.135207 162.560398 
L 362.414545 162.290279 
L 365.693884 160.697793 
L 368.973223 157.77473 
L 372.252562 154.064381 
L 375.531901 156.205518 
L 378.81124 154.528213 
L 382.090579 152.214694 
L 385.369917 148.77491 
L 388.649256 149.126687 
L 391.928595 146.06579 
L 395.207934 147.025137 
L 398.487273 143.918443 
" style="fill:none;stroke:#424086;stroke-linecap:round;stroke-width:1.2;"/>
   </g>
   <g id="line2d_55">
    <path clip-path="url(#pab59bed001)" d="M 182.047862 346.6 
L 182.050909 295.488 
L 182.053956 346.6 
M 211.561911 346.6 
L 211.564959 295.485611 
L 211.568006 346.6 
M 218.119603 346.6 
L 218.123636 278.921739 
L 221.402975 295.478441 
L 224.682314 269.225729 
L 227.961653 269.218555 
L 231.240992 262.336342 
L 234.520331 262.32677 
L 237.799669 252.625957 
L 241.079008 269.177863 
L 244.358347 242.910752 
L 247.637686 256.940819 
L 250.917025 238.078388 
L 254.196364 229.088608 
L 257.475702 232.244934 
L 260.755041 213.965243 
L 264.03438 226.125192 
L 267.313719 218.216727 
L 270.593058 206.298865 
L 273.872397 208.021361 
L 277.151736 209.224777 
L 280.431074 194.581745 
L 283.710413 197.113884 
L 286.989752 193.908938 
L 290.269091 190.081123 
L 293.54843 186.976061 
L 296.827769 185.678424 
L 300.107107 183.427603 
L 303.386446 181.083455 
L 306.665785 176.159438 
L 309.945124 173.69274 
L 313.224463 171.352949 
L 316.503802 173.032828 
L 319.78314 166.487309 
L 323.062479 163.070954 
L 326.341818 164.422983 
L 329.621157 159.172707 
L 332.900496 155.908122 
L 336.179835 152.063213 
L 339.459174 150.903974 
L 342.738512 150.211523 
L 346.017851 145.339848 
L 349.29719 146.557832 
L 352.576529 143.070102 
L 355.855868 142.957815 
L 359.135207 139.316006 
L 362.414545 139.962258 
L 365.693884 133.611999 
L 368.973223 132.275192 
L 372.252562 132.622761 
L 375.531901 129.070943 
L 378.81124 132.92126 
L 382.090579 128.574504 
L 385.369917 127.652241 
L 388.649256 125.814582 
L 391.928595 123.460837 
L 395.207934 120.682681 
L 398.487273 121.67992 
" style="fill:none;stroke:#3d4e8a;stroke-linecap:round;stroke-width:1.2;"/>
   </g>
   <g id="line2d_56">
    <path clip-path="url(#pab59bed001)" d="M 198.44357 346.6 
L 198.447603 278.926518 
L 201.726942 295.483221 
L 205.006281 295.480831 
L 205.009328 346.6 
M 211.560925 346.6 
L 211.564959 278.916958 
L 214.844298 257.015074 
L 218.123636 252.645109 
L 221.402975 252.630746 
L 224.682314 242.922738 
L 227.961653 248.909787 
L 231.240992 242.884361 
L 234.520331 240.34331 
L 237.799669 222.56812 
L 241.079008 220.339381 
L 244.358347 216.443584 
L 247.637686 207.564168 
L 250.917025 201.031174 
L 254.196364 206.144839 
L 257.475702 198.558761 
L 260.755041 195.210326 
L 264.03438 191.557491 
L 267.313719 186.388402 
L 270.593058 183.881333 
L 273.872397 181.990168 
L 277.151736 178.738013 
L 280.431074 176.311306 
L 283.710413 171.902477 
L 286.989752 167.857206 
L 290.269091 163.837214 
L 293.54843 164.562351 
L 296.827769 162.078119 
L 300.107107 159.343178 
L 303.386446 157.482288 
L 306.665785 152.16606 
L 309.945124 147.76371 
L 313.224463 148.594623 
L 316.503802 142.85759 
L 319.78314 142.649272 
L 323.062479 142.493976 
L 326.341818 139.965193 
L 329.621157 136.600818 
L 332.900496 137.516308 
L 336.179835 131.853425 
L 339.459174 129.28243 
L 342.738512 128.898493 
L 346.017851 130.520811 
L 349.29719 124.560363 
L 352.576529 125.324217 
L 355.855868 122.435886 
L 359.135207 121.167276 
L 362.414545 116.638795 
L 365.693884 119.074296 
L 368.973223 115.943681 
L 372.252562 110.816996 
L 375.531901 112.720586 
L 378.81124 110.82244 
L 382.090579 110.740449 
L 385.369917 107.303238 
L 388.649256 102.502532 
L 391.928595 102.977891 
L 395.207934 104.400127 
L 398.487273 110.82012 
" style="fill:none;stroke:#365c8d;stroke-linecap:round;stroke-width:1.2;"/>
   </g>
   <g id="line2d_57">
    <path clip-path="url(#pab59bed001)" d="M 159.09249 346.6 
L 159.095537 295.488 
L 159.098584 346.6 
M 175.489184 346.6 
L 175.492231 295.485611 
L 178.77157 295.483221 
L 178.774618 346.6 
M 185.3272 346.6 
L 185.330248 295.480831 
L 188.609587 295.478441 
L 191.888926 269.225729 
L 195.168264 278.907395 
L 195.172299 346.6 
M 201.722331 346.6 
L 201.726942 269.213771 
L 205.006281 238.147936 
L 208.28562 234.125909 
L 211.564959 238.090394 
L 214.844298 234.068292 
L 218.123636 226.250737 
L 221.402975 221.403735 
L 224.682314 222.464351 
L 227.961653 212.324162 
L 231.240992 208.126328 
L 234.520331 198.300638 
L 237.799669 197.742631 
L 241.079008 190.165088 
L 244.358347 189.664961 
L 247.637686 185.83364 
L 250.917025 181.324274 
L 254.196364 173.582418 
L 257.475702 174.849519 
L 260.755041 166.582448 
L 264.03438 164.708359 
L 267.313719 167.700984 
L 270.593058 162.234519 
L 273.872397 160.49279 
L 277.151736 155.45228 
L 280.431074 152.167299 
L 283.710413 150.772565 
L 286.989752 146.283398 
L 290.269091 144.378359 
L 293.54843 144.157294 
L 296.827769 142.042816 
L 300.107107 139.532631 
L 303.386446 136.542658 
L 306.665785 134.95193 
L 309.945124 131.877415 
L 313.224463 130.666905 
L 316.503802 128.032469 
L 319.78314 125.798415 
L 323.062479 122.774642 
L 326.341818 118.636822 
L 329.621157 122.660494 
L 332.900496 115.023631 
L 336.179835 115.415556 
L 339.459174 113.62893 
L 342.738512 111.720959 
L 346.017851 110.79929 
L 349.29719 105.4823 
L 352.576529 107.721123 
L 355.855868 106.744362 
L 359.135207 101.785425 
L 362.414545 101.70347 
L 365.693884 107.103453 
L 368.973223 94.980605 
L 372.252562 103.876761 
L 375.531901 103.109154 
L 378.81124 100.801865 
L 382.090579 92.709526 
L 385.369917 91.000285 
L 388.649256 90.475215 
L 391.928595 92.017022 
L 395.207934 95.699639 
L 398.487273 97.347859 
" style="fill:none;stroke:#31688e;stroke-linecap:round;stroke-width:1.2;"/>
   </g>
   <g id="line2d_58">
    <path clip-path="url(#pab59bed001)" d="M 172.208283 346.6 
L 172.212893 269.23768 
L 172.217502 346.6 
M 182.046875 346.6 
L 182.050909 278.919349 
L 185.330248 262.350694 
L 188.609587 257.007898 
L 191.888926 245.760496 
L 195.168264 256.976777 
L 198.447603 252.606789 
L 201.726942 232.3315 
L 205.006281 256.916816 
L 208.28562 227.640303 
L 211.564959 217.427335 
L 214.844298 211.652038 
L 218.123636 202.089254 
L 221.402975 199.195546 
L 224.682314 194.677971 
L 227.961653 185.997019 
L 231.240992 182.187501 
L 234.520331 177.279413 
L 237.799669 172.732078 
L 241.079008 173.268041 
L 244.358347 163.80141 
L 247.637686 161.058865 
L 250.917025 157.93742 
L 254.196364 153.115018 
L 257.475702 149.659248 
L 260.755041 149.376955 
L 264.03438 147.382527 
L 267.313719 146.321876 
L 270.593058 141.297106 
L 273.872397 138.783591 
L 277.151736 135.876382 
L 280.431074 133.831291 
L 283.710413 130.709549 
L 286.989752 129.671647 
L 290.269091 126.260499 
L 293.54843 125.875804 
L 296.827769 124.477762 
L 300.107107 122.314104 
L 303.386446 118.306397 
L 306.665785 117.00888 
L 309.945124 112.931726 
L 313.224463 114.585255 
L 316.503802 110.503558 
L 319.78314 110.180054 
L 323.062479 109.001462 
L 326.341818 108.796298 
L 329.621157 100.377524 
L 332.900496 107.335759 
L 336.179835 96.670461 
L 339.459174 98.696227 
L 342.738512 98.689751 
L 346.017851 103.615668 
L 349.29719 91.233683 
L 352.576529 88.514706 
L 355.855868 85.669448 
L 359.135207 86.013191 
L 362.414545 61.41587 
L 365.693884 108.576115 
L 368.973223 101.70347 
" style="fill:none;stroke:#2c738e;stroke-linecap:round;stroke-width:1.2;"/>
   </g>
   <g id="line2d_59">
    <path clip-path="url(#pab59bed001)" d="M 159.09249 346.6 
L 159.095537 295.488 
L 162.374876 295.485611 
L 165.654215 295.483221 
L 168.933554 295.480831 
L 172.212893 269.22812 
L 175.492231 295.47127 
L 178.77157 278.907395 
L 182.050909 252.647502 
L 185.330248 240.42008 
L 188.609587 245.731748 
L 191.888926 227.683564 
L 195.168264 220.406867 
L 198.447603 223.697556 
L 201.726942 209.56852 
L 205.006281 204.667815 
L 208.28562 195.560383 
L 211.564959 189.146083 
L 214.844298 184.934242 
L 218.123636 179.79489 
L 221.402975 172.063288 
L 224.682314 166.173175 
L 227.961653 164.690713 
L 231.240992 157.813422 
L 234.520331 155.638909 
L 237.799669 152.19518 
L 241.079008 145.104461 
L 244.358347 145.618033 
L 247.637686 139.491905 
L 250.917025 137.083344 
L 254.196364 136.253519 
L 257.475702 130.227303 
L 260.755041 131.227876 
L 264.03438 125.824436 
L 267.313719 123.524054 
L 270.593058 124.593116 
L 273.872397 120.195308 
L 277.151736 115.520373 
L 280.431074 117.788142 
L 283.710413 113.906952 
L 286.989752 112.536846 
L 290.269091 109.414437 
L 293.54843 112.644193 
L 296.827769 107.743206 
L 300.107107 102.761647 
L 303.386446 101.318587 
L 306.665785 97.932943 
L 309.945124 100.686733 
L 313.224463 99.802149 
L 316.503802 90.339862 
L 319.78314 91.691987 
L 323.062479 97.119248 
L 326.341818 86.686185 
L 329.621157 84.523831 
L 332.900496 83.0657 
L 336.179835 88.826995 
L 339.459174 53.568 
" style="fill:none;stroke:#277f8e;stroke-linecap:round;stroke-width:1.2;"/>
   </g>
   <g id="line2d_60">
    <path clip-path="url(#pab59bed001)" d="M 142.695796 346.6 
L 142.698843 295.488 
L 142.70189 346.6 
M 149.253487 346.6 
L 149.257521 278.924129 
L 152.53686 295.480831 
L 152.539907 346.6 
M 159.09249 346.6 
L 159.095537 295.478441 
L 162.374876 278.914568 
L 165.654215 262.345911 
L 168.933554 269.211379 
L 172.212893 295.454528 
L 175.492231 238.143147 
L 178.77157 245.731748 
L 182.050909 240.376928 
L 185.330248 220.423708 
L 188.609587 204.281211 
L 191.888926 208.867933 
L 195.168264 204.621576 
L 198.447603 197.469422 
L 201.726942 190.301367 
L 205.006281 184.181457 
L 208.28562 176.202588 
L 211.564959 170.815656 
L 214.844298 164.898197 
L 218.123636 161.516409 
L 221.402975 153.071289 
L 224.682314 152.125408 
L 227.961653 145.695002 
L 231.240992 143.607587 
L 234.520331 137.457138 
L 237.799669 132.662689 
L 241.079008 131.079072 
L 244.358347 125.847958 
L 247.637686 123.745999 
L 250.917025 119.570698 
L 254.196364 118.53038 
L 257.475702 114.701748 
L 260.755041 111.253675 
L 264.03438 107.963357 
L 267.313719 106.863204 
L 270.593058 104.227764 
L 273.872397 102.671511 
L 277.151736 99.860549 
L 280.431074 99.213234 
L 283.710413 98.52269 
L 286.989752 88.652828 
L 290.269091 102.48681 
L 293.54843 89.069532 
L 296.827769 88.826995 
L 300.107107 82.330574 
L 303.386446 101.70347 
L 306.665785 80.788767 
L 309.945124 85.144378 
L 313.224463 92.017022 
L 316.503802 92.017022 
L 316.518923 346.6 
M 323.047931 346.6 
L 323.062479 101.70347 
L 323.077028 346.6 
M 329.604079 346.6 
L 329.621157 58.898837 
L 329.638235 346.6 
" style="fill:none;stroke:#238a8d;stroke-linecap:round;stroke-width:1.2;"/>
   </g>
   <g id="line2d_61">
    <path clip-path="url(#pab59bed001)" d="M 126.299102 346.6 
L 126.302149 295.488 
L 126.305196 346.6 
M 145.974148 346.6 
L 145.978182 278.924129 
L 145.982215 346.6 
M 155.812165 346.6 
L 155.816198 278.919349 
L 159.095537 262.350694 
L 162.374876 248.964885 
L 165.654215 245.755707 
L 168.933554 227.707564 
L 172.212893 240.360125 
L 175.492231 220.406867 
L 178.77157 211.702802 
L 182.050909 209.537033 
L 185.330248 198.002465 
L 188.609587 197.860642 
L 191.888926 191.216361 
L 195.168264 182.553109 
L 198.447603 176.703561 
L 201.726942 172.260391 
L 205.006281 165.716464 
L 208.28562 160.934648 
L 211.564959 154.00118 
L 214.844298 149.651524 
L 218.123636 144.254843 
L 221.402975 140.734953 
L 224.682314 133.311374 
L 227.961653 129.65747 
L 231.240992 127.177676 
L 234.520331 121.834018 
L 237.799669 118.464065 
L 241.079008 114.020443 
L 244.358347 110.210623 
L 247.637686 107.734004 
L 250.917025 104.699272 
L 254.196364 104.195862 
L 257.475702 99.392089 
L 260.755041 94.922183 
L 264.03438 90.286694 
L 267.313719 94.065968 
L 270.593058 92.881344 
L 273.872397 81.554178 
L 277.151736 76.749581 
L 280.431074 84.795617 
L 283.710413 72.644126 
L 286.989752 69.454098 
L 290.269091 118.262563 
L 293.54843 75.45793 
L 296.827769 58.898837 
L 296.844847 346.6 
" style="fill:none;stroke:#1f968b;stroke-linecap:round;stroke-width:1.2;"/>
   </g>
   <g id="patch_3">
    <path d="M 57.6 307.584 
L 57.6 41.472 
" style="fill:none;stroke:#262626;stroke-linecap:square;stroke-linejoin:miter;"/>
   </g>
   <g id="patch_4">
    <path d="M 414.72 307.584 
L 414.72 41.472 
" style="fill:none;stroke:#262626;stroke-linecap:square;stroke-linejoin:miter;"/>
   </g>
   <g id="patch_5">
    <path d="M 57.6 307.584 
L 414.72 307.584 
" style="fill:none;stroke:#262626;stroke-linecap:square;stroke-linejoin:miter;"/>
   </g>
   <g id="patch_6">
    <path d="M 57.6 41.472 
L 414.72 41.472 
" style="fill:none;stroke:#262626;stroke-linecap:square;stroke-linejoin:miter;"/>
   </g>
   <g id="legend_1">
    <g id="patch_7">
     <path d="M 63.76 204.28725 
L 117.11275 204.28725 
Q 118.87275 204.28725 118.87275 202.52725 
L 118.87275 47.632 
Q 118.87275 45.872 117.11275 45.872 
L 63.76 45.872 
Q 62 45.872 62 47.632 
L 62 202.52725 
Q 62 204.28725 63.76 204.28725 
z
" style="fill:#ffffff;opacity:0.8;stroke:#cccccc;stroke-linejoin:miter;stroke-width:0.8;"/>
    </g>
    <g id="text_14">
     <!-- log(n) -->
     <defs>
      <path d="M 9.421875 75.984375 
L 18.40625 75.984375 
L 18.40625 0 
L 9.421875 0 
z
" id="DejaVuSans-6c"/>
      <path d="M 30.609375 48.390625 
Q 23.390625 48.390625 19.1875 42.75 
Q 14.984375 37.109375 14.984375 27.296875 
Q 14.984375 17.484375 19.15625 11.84375 
Q 23.34375 6.203125 30.609375 6.203125 
Q 37.796875 6.203125 41.984375 11.859375 
Q 46.1875 17.53125 46.1875 27.296875 
Q 46.1875 37.015625 41.984375 42.703125 
Q 37.796875 48.390625 30.609375 48.390625 
z
M 30.609375 56 
Q 42.328125 56 49.015625 48.375 
Q 55.71875 40.765625 55.71875 27.296875 
Q 55.71875 13.875 49.015625 6.21875 
Q 42.328125 -1.421875 30.609375 -1.421875 
Q 18.84375 -1.421875 12.171875 6.21875 
Q 5.515625 13.875 5.515625 27.296875 
Q 5.515625 40.765625 12.171875 48.375 
Q 18.84375 56 30.609375 56 
z
" id="DejaVuSans-6f"/>
      <path d="M 45.40625 27.984375 
Q 45.40625 37.75 41.375 43.109375 
Q 37.359375 48.484375 30.078125 48.484375 
Q 22.859375 48.484375 18.828125 43.109375 
Q 14.796875 37.75 14.796875 27.984375 
Q 14.796875 18.265625 18.828125 12.890625 
Q 22.859375 7.515625 30.078125 7.515625 
Q 37.359375 7.515625 41.375 12.890625 
Q 45.40625 18.265625 45.40625 27.984375 
z
M 54.390625 6.78125 
Q 54.390625 -7.171875 48.1875 -13.984375 
Q 42 -20.796875 29.203125 -20.796875 
Q 24.46875 -20.796875 20.265625 -20.09375 
Q 16.0625 -19.390625 12.109375 -17.921875 
L 12.109375 -9.1875 
Q 16.0625 -11.328125 19.921875 -12.34375 
Q 23.78125 -13.375 27.78125 -13.375 
Q 36.625 -13.375 41.015625 -8.765625 
Q 45.40625 -4.15625 45.40625 5.171875 
L 45.40625 9.625 
Q 42.625 4.78125 38.28125 2.390625 
Q 33.9375 0 27.875 0 
Q 17.828125 0 11.671875 7.65625 
Q 5.515625 15.328125 5.515625 27.984375 
Q 5.515625 40.671875 11.671875 48.328125 
Q 17.828125 56 27.875 56 
Q 33.9375 56 38.28125 53.609375 
Q 42.625 51.21875 45.40625 46.390625 
L 45.40625 54.6875 
L 54.390625 54.6875 
z
" id="DejaVuSans-67"/>
     </defs>
     <g style="fill:#262626;" transform="translate(76.331125 56.6865)scale(0.096 -0.096)">
      <use xlink:href="#DejaVuSans-6c"/>
      <use x="27.783203" xlink:href="#DejaVuSans-6f"/>
      <use x="88.964844" xlink:href="#DejaVuSans-67"/>
      <use x="152.441406" xlink:href="#DejaVuSans-28"/>
      <use x="191.455078" xlink:href="#DejaVuSans-6e"/>
      <use x="254.833984" xlink:href="#DejaVuSans-29"/>
     </g>
    </g>
    <g id="line2d_62">
     <path d="M 65.52 66.689625 
L 83.12 66.689625 
" style="fill:none;stroke:#471365;stroke-linecap:round;stroke-width:1.2;"/>
    </g>
    <g id="line2d_63"/>
    <g id="text_15">
     <!-- 6.08 -->
     <defs>
      <path d="M 10.6875 12.40625 
L 21 12.40625 
L 21 0 
L 10.6875 0 
z
" id="DejaVuSans-2e"/>
     </defs>
     <g style="fill:#262626;" transform="translate(90.16 69.769625)scale(0.088 -0.088)">
      <use xlink:href="#DejaVuSans-36"/>
      <use x="63.623047" xlink:href="#DejaVuSans-2e"/>
      <use x="95.410156" xlink:href="#DejaVuSans-30"/>
      <use x="159.033203" xlink:href="#DejaVuSans-38"/>
     </g>
    </g>
    <g id="line2d_64">
     <path d="M 65.52 79.606375 
L 83.12 79.606375 
" style="fill:none;stroke:#482374;stroke-linecap:round;stroke-width:1.2;"/>
    </g>
    <g id="line2d_65"/>
    <g id="text_16">
     <!-- 6.51 -->
     <defs>
      <path d="M 10.796875 72.90625 
L 49.515625 72.90625 
L 49.515625 64.59375 
L 19.828125 64.59375 
L 19.828125 46.734375 
Q 21.96875 47.46875 24.109375 47.828125 
Q 26.265625 48.1875 28.421875 48.1875 
Q 40.625 48.1875 47.75 41.5 
Q 54.890625 34.8125 54.890625 23.390625 
Q 54.890625 11.625 47.5625 5.09375 
Q 40.234375 -1.421875 26.90625 -1.421875 
Q 22.3125 -1.421875 17.546875 -0.640625 
Q 12.796875 0.140625 7.71875 1.703125 
L 7.71875 11.625 
Q 12.109375 9.234375 16.796875 8.0625 
Q 21.484375 6.890625 26.703125 6.890625 
Q 35.15625 6.890625 40.078125 11.328125 
Q 45.015625 15.765625 45.015625 23.390625 
Q 45.015625 31 40.078125 35.4375 
Q 35.15625 39.890625 26.703125 39.890625 
Q 22.75 39.890625 18.8125 39.015625 
Q 14.890625 38.140625 10.796875 36.28125 
z
" id="DejaVuSans-35"/>
     </defs>
     <g style="fill:#262626;" transform="translate(90.16 82.686375)scale(0.088 -0.088)">
      <use xlink:href="#DejaVuSans-36"/>
      <use x="63.623047" xlink:href="#DejaVuSans-2e"/>
      <use x="95.410156" xlink:href="#DejaVuSans-35"/>
      <use x="159.033203" xlink:href="#DejaVuSans-31"/>
     </g>
    </g>
    <g id="line2d_66">
     <path d="M 65.52 92.523125 
L 83.12 92.523125 
" style="fill:none;stroke:#46327e;stroke-linecap:round;stroke-width:1.2;"/>
    </g>
    <g id="line2d_67"/>
    <g id="text_17">
     <!-- 6.95 -->
     <defs>
      <path d="M 10.984375 1.515625 
L 10.984375 10.5 
Q 14.703125 8.734375 18.5 7.8125 
Q 22.3125 6.890625 25.984375 6.890625 
Q 35.75 6.890625 40.890625 13.453125 
Q 46.046875 20.015625 46.78125 33.40625 
Q 43.953125 29.203125 39.59375 26.953125 
Q 35.25 24.703125 29.984375 24.703125 
Q 19.046875 24.703125 12.671875 31.3125 
Q 6.296875 37.9375 6.296875 49.421875 
Q 6.296875 60.640625 12.9375 67.421875 
Q 19.578125 74.21875 30.609375 74.21875 
Q 43.265625 74.21875 49.921875 64.515625 
Q 56.59375 54.828125 56.59375 36.375 
Q 56.59375 19.140625 48.40625 8.859375 
Q 40.234375 -1.421875 26.421875 -1.421875 
Q 22.703125 -1.421875 18.890625 -0.6875 
Q 15.09375 0.046875 10.984375 1.515625 
z
M 30.609375 32.421875 
Q 37.25 32.421875 41.125 36.953125 
Q 45.015625 41.5 45.015625 49.421875 
Q 45.015625 57.28125 41.125 61.84375 
Q 37.25 66.40625 30.609375 66.40625 
Q 23.96875 66.40625 20.09375 61.84375 
Q 16.21875 57.28125 16.21875 49.421875 
Q 16.21875 41.5 20.09375 36.953125 
Q 23.96875 32.421875 30.609375 32.421875 
z
" id="DejaVuSans-39"/>
     </defs>
     <g style="fill:#262626;" transform="translate(90.16 95.603125)scale(0.088 -0.088)">
      <use xlink:href="#DejaVuSans-36"/>
      <use x="63.623047" xlink:href="#DejaVuSans-2e"/>
      <use x="95.410156" xlink:href="#DejaVuSans-39"/>
      <use x="159.033203" xlink:href="#DejaVuSans-35"/>
     </g>
    </g>
    <g id="line2d_68">
     <path d="M 65.52 105.439875 
L 83.12 105.439875 
" style="fill:none;stroke:#424086;stroke-linecap:round;stroke-width:1.2;"/>
    </g>
    <g id="line2d_69"/>
    <g id="text_18">
     <!-- 7.38 -->
     <defs>
      <path d="M 8.203125 72.90625 
L 55.078125 72.90625 
L 55.078125 68.703125 
L 28.609375 0 
L 18.3125 0 
L 43.21875 64.59375 
L 8.203125 64.59375 
z
" id="DejaVuSans-37"/>
     </defs>
     <g style="fill:#262626;" transform="translate(90.16 108.519875)scale(0.088 -0.088)">
      <use xlink:href="#DejaVuSans-37"/>
      <use x="63.623047" xlink:href="#DejaVuSans-2e"/>
      <use x="95.410156" xlink:href="#DejaVuSans-33"/>
      <use x="159.033203" xlink:href="#DejaVuSans-38"/>
     </g>
    </g>
    <g id="line2d_70">
     <path d="M 65.52 118.356625 
L 83.12 118.356625 
" style="fill:none;stroke:#3d4e8a;stroke-linecap:round;stroke-width:1.2;"/>
    </g>
    <g id="line2d_71"/>
    <g id="text_19">
     <!-- 7.82 -->
     <g style="fill:#262626;" transform="translate(90.16 121.436625)scale(0.088 -0.088)">
      <use xlink:href="#DejaVuSans-37"/>
      <use x="63.623047" xlink:href="#DejaVuSans-2e"/>
      <use x="95.410156" xlink:href="#DejaVuSans-38"/>
      <use x="159.033203" xlink:href="#DejaVuSans-32"/>
     </g>
    </g>
    <g id="line2d_72">
     <path d="M 65.52 131.273375 
L 83.12 131.273375 
" style="fill:none;stroke:#365c8d;stroke-linecap:round;stroke-width:1.2;"/>
    </g>
    <g id="line2d_73"/>
    <g id="text_20">
     <!-- 8.25 -->
     <g style="fill:#262626;" transform="translate(90.16 134.353375)scale(0.088 -0.088)">
      <use xlink:href="#DejaVuSans-38"/>
      <use x="63.623047" xlink:href="#DejaVuSans-2e"/>
      <use x="95.410156" xlink:href="#DejaVuSans-32"/>
      <use x="159.033203" xlink:href="#DejaVuSans-35"/>
     </g>
    </g>
    <g id="line2d_74">
     <path d="M 65.52 144.190125 
L 83.12 144.190125 
" style="fill:none;stroke:#31688e;stroke-linecap:round;stroke-width:1.2;"/>
    </g>
    <g id="line2d_75"/>
    <g id="text_21">
     <!-- 8.69 -->
     <g style="fill:#262626;" transform="translate(90.16 147.270125)scale(0.088 -0.088)">
      <use xlink:href="#DejaVuSans-38"/>
      <use x="63.623047" xlink:href="#DejaVuSans-2e"/>
      <use x="95.410156" xlink:href="#DejaVuSans-36"/>
      <use x="159.033203" xlink:href="#DejaVuSans-39"/>
     </g>
    </g>
    <g id="line2d_76">
     <path d="M 65.52 157.106875 
L 83.12 157.106875 
" style="fill:none;stroke:#2c738e;stroke-linecap:round;stroke-width:1.2;"/>
    </g>
    <g id="line2d_77"/>
    <g id="text_22">
     <!-- 9.12 -->
     <g style="fill:#262626;" transform="translate(90.16 160.186875)scale(0.088 -0.088)">
      <use xlink:href="#DejaVuSans-39"/>
      <use x="63.623047" xlink:href="#DejaVuSans-2e"/>
      <use x="95.410156" xlink:href="#DejaVuSans-31"/>
      <use x="159.033203" xlink:href="#DejaVuSans-32"/>
     </g>
    </g>
    <g id="line2d_78">
     <path d="M 65.52 170.023625 
L 83.12 170.023625 
" style="fill:none;stroke:#277f8e;stroke-linecap:round;stroke-width:1.2;"/>
    </g>
    <g id="line2d_79"/>
    <g id="text_23">
     <!-- 9.55 -->
     <g style="fill:#262626;" transform="translate(90.16 173.103625)scale(0.088 -0.088)">
      <use xlink:href="#DejaVuSans-39"/>
      <use x="63.623047" xlink:href="#DejaVuSans-2e"/>
      <use x="95.410156" xlink:href="#DejaVuSans-35"/>
      <use x="159.033203" xlink:href="#DejaVuSans-35"/>
     </g>
    </g>
    <g id="line2d_80">
     <path d="M 65.52 182.940375 
L 83.12 182.940375 
" style="fill:none;stroke:#238a8d;stroke-linecap:round;stroke-width:1.2;"/>
    </g>
    <g id="line2d_81"/>
    <g id="text_24">
     <!-- 9.99 -->
     <g style="fill:#262626;" transform="translate(90.16 186.020375)scale(0.088 -0.088)">
      <use xlink:href="#DejaVuSans-39"/>
      <use x="63.623047" xlink:href="#DejaVuSans-2e"/>
      <use x="95.410156" xlink:href="#DejaVuSans-39"/>
      <use x="159.033203" xlink:href="#DejaVuSans-39"/>
     </g>
    </g>
    <g id="line2d_82">
     <path d="M 65.52 195.857125 
L 83.12 195.857125 
" style="fill:none;stroke:#1f968b;stroke-linecap:round;stroke-width:1.2;"/>
    </g>
    <g id="line2d_83"/>
    <g id="text_25">
     <!-- 10.42 -->
     <g style="fill:#262626;" transform="translate(90.16 198.937125)scale(0.088 -0.088)">
      <use xlink:href="#DejaVuSans-31"/>
      <use x="63.623047" xlink:href="#DejaVuSans-30"/>
      <use x="127.246094" xlink:href="#DejaVuSans-2e"/>
      <use x="159.033203" xlink:href="#DejaVuSans-34"/>
      <use x="222.65625" xlink:href="#DejaVuSans-32"/>
     </g>
    </g>
   </g>
  </g>
 </g>
 <defs>
  <clipPath id="pab59bed001">
   <rect height="266.112" width="357.12" x="57.6" y="41.472"/>
  </clipPath>
 </defs>
</svg>
