<?xml version="1.0" encoding="utf-8" standalone="no"?>
<!DOCTYPE svg PUBLIC "-//W3C//DTD SVG 1.1//EN"
  "http://www.w3.org/Graphics/SVG/1.1/DTD/svg11.dtd">
<!-- Created with matplotlib (http://matplotlib.org/) -->
<svg height="288pt" version="1.1" viewBox="0 0 432 288" width="432pt" xmlns="http://www.w3.org/2000/svg" xmlns:xlink="http://www.w3.org/1999/xlink">
 <defs>
  <style type="text/css">
*{stroke-linecap:butt;stroke-linejoin:round;}
  </style>
 </defs>
 <g id="figure_1">
  <g id="patch_1">
   <path d="M 0 288 
L 432 288 
L 432 0 
L 0 0 
z
" style="fill:#ffffff;"/>
  </g>
  <g id="axes_1">
   <g id="patch_2">
    <path d="M 54 252 
L 388.8 252 
L 388.8 34.56 
L 54 34.56 
z
" style="fill:#eaeaf2;"/>
   </g>
   <g id="matplotlib.axis_1">
    <g id="xtick_1">
     <g id="line2d_1">
      <path clip-path="url(#pad3b49fd99)" d="M 63.602994 252 
L 63.602994 34.56 
" style="fill:none;stroke:#ffffff;stroke-linecap:round;"/>
     </g>
     <g id="text_1">
      <!-- 6 -->
      <defs>
       <path d="M 33.015625 40.375 
Q 26.375 40.375 22.484375 35.828125 
Q 18.609375 31.296875 18.609375 23.390625 
Q 18.609375 15.53125 22.484375 10.953125 
Q 26.375 6.390625 33.015625 6.390625 
Q 39.65625 6.390625 43.53125 10.953125 
Q 47.40625 15.53125 47.40625 23.390625 
Q 47.40625 31.296875 43.53125 35.828125 
Q 39.65625 40.375 33.015625 40.375 
z
M 52.59375 71.296875 
L 52.59375 62.3125 
Q 48.875 64.0625 45.09375 64.984375 
Q 41.3125 65.921875 37.59375 65.921875 
Q 27.828125 65.921875 22.671875 59.328125 
Q 17.53125 52.734375 16.796875 39.40625 
Q 19.671875 43.65625 24.015625 45.921875 
Q 28.375 48.1875 33.59375 48.1875 
Q 44.578125 48.1875 50.953125 41.515625 
Q 57.328125 34.859375 57.328125 23.390625 
Q 57.328125 12.15625 50.6875 5.359375 
Q 44.046875 -1.421875 33.015625 -1.421875 
Q 20.359375 -1.421875 13.671875 8.265625 
Q 6.984375 17.96875 6.984375 36.375 
Q 6.984375 53.65625 15.1875 63.9375 
Q 23.390625 74.21875 37.203125 74.21875 
Q 40.921875 74.21875 44.703125 73.484375 
Q 48.484375 72.75 52.59375 71.296875 
z
" id="DejaVuSans-36"/>
      </defs>
      <g style="fill:#262626;" transform="translate(60.103619 269.858281)scale(0.11 -0.11)">
       <use xlink:href="#DejaVuSans-36"/>
      </g>
     </g>
    </g>
    <g id="xtick_2">
     <g id="line2d_2">
      <path clip-path="url(#pad3b49fd99)" d="M 133.685311 252 
L 133.685311 34.56 
" style="fill:none;stroke:#ffffff;stroke-linecap:round;"/>
     </g>
     <g id="text_2">
      <!-- 7 -->
      <defs>
       <path d="M 8.203125 72.90625 
L 55.078125 72.90625 
L 55.078125 68.703125 
L 28.609375 0 
L 18.3125 0 
L 43.21875 64.59375 
L 8.203125 64.59375 
z
" id="DejaVuSans-37"/>
      </defs>
      <g style="fill:#262626;" transform="translate(130.185936 269.858281)scale(0.11 -0.11)">
       <use xlink:href="#DejaVuSans-37"/>
      </g>
     </g>
    </g>
    <g id="xtick_3">
     <g id="line2d_3">
      <path clip-path="url(#pad3b49fd99)" d="M 203.767628 252 
L 203.767628 34.56 
" style="fill:none;stroke:#ffffff;stroke-linecap:round;"/>
     </g>
     <g id="text_3">
      <!-- 8 -->
      <defs>
       <path d="M 31.78125 34.625 
Q 24.75 34.625 20.71875 30.859375 
Q 16.703125 27.09375 16.703125 20.515625 
Q 16.703125 13.921875 20.71875 10.15625 
Q 24.75 6.390625 31.78125 6.390625 
Q 38.8125 6.390625 42.859375 10.171875 
Q 46.921875 13.96875 46.921875 20.515625 
Q 46.921875 27.09375 42.890625 30.859375 
Q 38.875 34.625 31.78125 34.625 
z
M 21.921875 38.8125 
Q 15.578125 40.375 12.03125 44.71875 
Q 8.5 49.078125 8.5 55.328125 
Q 8.5 64.0625 14.71875 69.140625 
Q 20.953125 74.21875 31.78125 74.21875 
Q 42.671875 74.21875 48.875 69.140625 
Q 55.078125 64.0625 55.078125 55.328125 
Q 55.078125 49.078125 51.53125 44.71875 
Q 48 40.375 41.703125 38.8125 
Q 48.828125 37.15625 52.796875 32.3125 
Q 56.78125 27.484375 56.78125 20.515625 
Q 56.78125 9.90625 50.3125 4.234375 
Q 43.84375 -1.421875 31.78125 -1.421875 
Q 19.734375 -1.421875 13.25 4.234375 
Q 6.78125 9.90625 6.78125 20.515625 
Q 6.78125 27.484375 10.78125 32.3125 
Q 14.796875 37.15625 21.921875 38.8125 
z
M 18.3125 54.390625 
Q 18.3125 48.734375 21.84375 45.5625 
Q 25.390625 42.390625 31.78125 42.390625 
Q 38.140625 42.390625 41.71875 45.5625 
Q 45.3125 48.734375 45.3125 54.390625 
Q 45.3125 60.0625 41.71875 63.234375 
Q 38.140625 66.40625 31.78125 66.40625 
Q 25.390625 66.40625 21.84375 63.234375 
Q 18.3125 60.0625 18.3125 54.390625 
z
" id="DejaVuSans-38"/>
      </defs>
      <g style="fill:#262626;" transform="translate(200.268253 269.858281)scale(0.11 -0.11)">
       <use xlink:href="#DejaVuSans-38"/>
      </g>
     </g>
    </g>
    <g id="xtick_4">
     <g id="line2d_4">
      <path clip-path="url(#pad3b49fd99)" d="M 273.849946 252 
L 273.849946 34.56 
" style="fill:none;stroke:#ffffff;stroke-linecap:round;"/>
     </g>
     <g id="text_4">
      <!-- 9 -->
      <defs>
       <path d="M 10.984375 1.515625 
L 10.984375 10.5 
Q 14.703125 8.734375 18.5 7.8125 
Q 22.3125 6.890625 25.984375 6.890625 
Q 35.75 6.890625 40.890625 13.453125 
Q 46.046875 20.015625 46.78125 33.40625 
Q 43.953125 29.203125 39.59375 26.953125 
Q 35.25 24.703125 29.984375 24.703125 
Q 19.046875 24.703125 12.671875 31.3125 
Q 6.296875 37.9375 6.296875 49.421875 
Q 6.296875 60.640625 12.9375 67.421875 
Q 19.578125 74.21875 30.609375 74.21875 
Q 43.265625 74.21875 49.921875 64.515625 
Q 56.59375 54.828125 56.59375 36.375 
Q 56.59375 19.140625 48.40625 8.859375 
Q 40.234375 -1.421875 26.421875 -1.421875 
Q 22.703125 -1.421875 18.890625 -0.6875 
Q 15.09375 0.046875 10.984375 1.515625 
z
M 30.609375 32.421875 
Q 37.25 32.421875 41.125 36.953125 
Q 45.015625 41.5 45.015625 49.421875 
Q 45.015625 57.28125 41.125 61.84375 
Q 37.25 66.40625 30.609375 66.40625 
Q 23.96875 66.40625 20.09375 61.84375 
Q 16.21875 57.28125 16.21875 49.421875 
Q 16.21875 41.5 20.09375 36.953125 
Q 23.96875 32.421875 30.609375 32.421875 
z
" id="DejaVuSans-39"/>
      </defs>
      <g style="fill:#262626;" transform="translate(270.350571 269.858281)scale(0.11 -0.11)">
       <use xlink:href="#DejaVuSans-39"/>
      </g>
     </g>
    </g>
    <g id="xtick_5">
     <g id="line2d_5">
      <path clip-path="url(#pad3b49fd99)" d="M 343.932263 252 
L 343.932263 34.56 
" style="fill:none;stroke:#ffffff;stroke-linecap:round;"/>
     </g>
     <g id="text_5">
      <!-- 10 -->
      <defs>
       <path d="M 12.40625 8.296875 
L 28.515625 8.296875 
L 28.515625 63.921875 
L 10.984375 60.40625 
L 10.984375 69.390625 
L 28.421875 72.90625 
L 38.28125 72.90625 
L 38.28125 8.296875 
L 54.390625 8.296875 
L 54.390625 0 
L 12.40625 0 
z
" id="DejaVuSans-31"/>
       <path d="M 31.78125 66.40625 
Q 24.171875 66.40625 20.328125 58.90625 
Q 16.5 51.421875 16.5 36.375 
Q 16.5 21.390625 20.328125 13.890625 
Q 24.171875 6.390625 31.78125 6.390625 
Q 39.453125 6.390625 43.28125 13.890625 
Q 47.125 21.390625 47.125 36.375 
Q 47.125 51.421875 43.28125 58.90625 
Q 39.453125 66.40625 31.78125 66.40625 
z
M 31.78125 74.21875 
Q 44.046875 74.21875 50.515625 64.515625 
Q 56.984375 54.828125 56.984375 36.375 
Q 56.984375 17.96875 50.515625 8.265625 
Q 44.046875 -1.421875 31.78125 -1.421875 
Q 19.53125 -1.421875 13.0625 8.265625 
Q 6.59375 17.96875 6.59375 36.375 
Q 6.59375 54.828125 13.0625 64.515625 
Q 19.53125 74.21875 31.78125 74.21875 
z
" id="DejaVuSans-30"/>
      </defs>
      <g style="fill:#262626;" transform="translate(336.933513 269.858281)scale(0.11 -0.11)">
       <use xlink:href="#DejaVuSans-31"/>
       <use x="63.623047" xlink:href="#DejaVuSans-30"/>
      </g>
     </g>
    </g>
    <g id="text_6">
     <!-- log(n) -->
     <defs>
      <path d="M 9.421875 75.984375 
L 18.40625 75.984375 
L 18.40625 0 
L 9.421875 0 
z
" id="DejaVuSans-6c"/>
      <path d="M 30.609375 48.390625 
Q 23.390625 48.390625 19.1875 42.75 
Q 14.984375 37.109375 14.984375 27.296875 
Q 14.984375 17.484375 19.15625 11.84375 
Q 23.34375 6.203125 30.609375 6.203125 
Q 37.796875 6.203125 41.984375 11.859375 
Q 46.1875 17.53125 46.1875 27.296875 
Q 46.1875 37.015625 41.984375 42.703125 
Q 37.796875 48.390625 30.609375 48.390625 
z
M 30.609375 56 
Q 42.328125 56 49.015625 48.375 
Q 55.71875 40.765625 55.71875 27.296875 
Q 55.71875 13.875 49.015625 6.21875 
Q 42.328125 -1.421875 30.609375 -1.421875 
Q 18.84375 -1.421875 12.171875 6.21875 
Q 5.515625 13.875 5.515625 27.296875 
Q 5.515625 40.765625 12.171875 48.375 
Q 18.84375 56 30.609375 56 
z
" id="DejaVuSans-6f"/>
      <path d="M 45.40625 27.984375 
Q 45.40625 37.75 41.375 43.109375 
Q 37.359375 48.484375 30.078125 48.484375 
Q 22.859375 48.484375 18.828125 43.109375 
Q 14.796875 37.75 14.796875 27.984375 
Q 14.796875 18.265625 18.828125 12.890625 
Q 22.859375 7.515625 30.078125 7.515625 
Q 37.359375 7.515625 41.375 12.890625 
Q 45.40625 18.265625 45.40625 27.984375 
z
M 54.390625 6.78125 
Q 54.390625 -7.171875 48.1875 -13.984375 
Q 42 -20.796875 29.203125 -20.796875 
Q 24.46875 -20.796875 20.265625 -20.09375 
Q 16.0625 -19.390625 12.109375 -17.921875 
L 12.109375 -9.1875 
Q 16.0625 -11.328125 19.921875 -12.34375 
Q 23.78125 -13.375 27.78125 -13.375 
Q 36.625 -13.375 41.015625 -8.765625 
Q 45.40625 -4.15625 45.40625 5.171875 
L 45.40625 9.625 
Q 42.625 4.78125 38.28125 2.390625 
Q 33.9375 0 27.875 0 
Q 17.828125 0 11.671875 7.65625 
Q 5.515625 15.328125 5.515625 27.984375 
Q 5.515625 40.671875 11.671875 48.328125 
Q 17.828125 56 27.875 56 
Q 33.9375 56 38.28125 53.609375 
Q 42.625 51.21875 45.40625 46.390625 
L 45.40625 54.6875 
L 54.390625 54.6875 
z
" id="DejaVuSans-67"/>
      <path d="M 31 75.875 
Q 24.46875 64.65625 21.28125 53.65625 
Q 18.109375 42.671875 18.109375 31.390625 
Q 18.109375 20.125 21.3125 9.0625 
Q 24.515625 -2 31 -13.1875 
L 23.1875 -13.1875 
Q 15.875 -1.703125 12.234375 9.375 
Q 8.59375 20.453125 8.59375 31.390625 
Q 8.59375 42.28125 12.203125 53.3125 
Q 15.828125 64.359375 23.1875 75.875 
z
" id="DejaVuSans-28"/>
      <path d="M 54.890625 33.015625 
L 54.890625 0 
L 45.90625 0 
L 45.90625 32.71875 
Q 45.90625 40.484375 42.875 44.328125 
Q 39.84375 48.1875 33.796875 48.1875 
Q 26.515625 48.1875 22.3125 43.546875 
Q 18.109375 38.921875 18.109375 30.90625 
L 18.109375 0 
L 9.078125 0 
L 9.078125 54.6875 
L 18.109375 54.6875 
L 18.109375 46.1875 
Q 21.34375 51.125 25.703125 53.5625 
Q 30.078125 56 35.796875 56 
Q 45.21875 56 50.046875 50.171875 
Q 54.890625 44.34375 54.890625 33.015625 
z
" id="DejaVuSans-6e"/>
      <path d="M 8.015625 75.875 
L 15.828125 75.875 
Q 23.140625 64.359375 26.78125 53.3125 
Q 30.421875 42.28125 30.421875 31.390625 
Q 30.421875 20.453125 26.78125 9.375 
Q 23.140625 -1.703125 15.828125 -13.1875 
L 8.015625 -13.1875 
Q 14.5 -2 17.703125 9.0625 
Q 20.90625 20.125 20.90625 31.390625 
Q 20.90625 42.671875 17.703125 53.65625 
Q 14.5 64.65625 8.015625 75.875 
z
" id="DejaVuSans-29"/>
     </defs>
     <g style="fill:#262626;" transform="translate(203.768438 285.264063)scale(0.12 -0.12)">
      <use xlink:href="#DejaVuSans-6c"/>
      <use x="27.783203" xlink:href="#DejaVuSans-6f"/>
      <use x="88.964844" xlink:href="#DejaVuSans-67"/>
      <use x="152.441406" xlink:href="#DejaVuSans-28"/>
      <use x="191.455078" xlink:href="#DejaVuSans-6e"/>
      <use x="254.833984" xlink:href="#DejaVuSans-29"/>
     </g>
    </g>
   </g>
   <g id="matplotlib.axis_2">
    <g id="ytick_1">
     <g id="line2d_6">
      <path clip-path="url(#pad3b49fd99)" d="M 54 244.129257 
L 388.8 244.129257 
" style="fill:none;stroke:#ffffff;stroke-linecap:round;"/>
     </g>
     <g id="text_7">
      <!-- −2500 -->
      <defs>
       <path d="M 10.59375 35.5 
L 73.1875 35.5 
L 73.1875 27.203125 
L 10.59375 27.203125 
z
" id="DejaVuSans-2212"/>
       <path d="M 19.1875 8.296875 
L 53.609375 8.296875 
L 53.609375 0 
L 7.328125 0 
L 7.328125 8.296875 
Q 12.9375 14.109375 22.625 23.890625 
Q 32.328125 33.6875 34.8125 36.53125 
Q 39.546875 41.84375 41.421875 45.53125 
Q 43.3125 49.21875 43.3125 52.78125 
Q 43.3125 58.59375 39.234375 62.25 
Q 35.15625 65.921875 28.609375 65.921875 
Q 23.96875 65.921875 18.8125 64.3125 
Q 13.671875 62.703125 7.8125 59.421875 
L 7.8125 69.390625 
Q 13.765625 71.78125 18.9375 73 
Q 24.125 74.21875 28.421875 74.21875 
Q 39.75 74.21875 46.484375 68.546875 
Q 53.21875 62.890625 53.21875 53.421875 
Q 53.21875 48.921875 51.53125 44.890625 
Q 49.859375 40.875 45.40625 35.40625 
Q 44.1875 33.984375 37.640625 27.21875 
Q 31.109375 20.453125 19.1875 8.296875 
z
" id="DejaVuSans-32"/>
       <path d="M 10.796875 72.90625 
L 49.515625 72.90625 
L 49.515625 64.59375 
L 19.828125 64.59375 
L 19.828125 46.734375 
Q 21.96875 47.46875 24.109375 47.828125 
Q 26.265625 48.1875 28.421875 48.1875 
Q 40.625 48.1875 47.75 41.5 
Q 54.890625 34.8125 54.890625 23.390625 
Q 54.890625 11.625 47.5625 5.09375 
Q 40.234375 -1.421875 26.90625 -1.421875 
Q 22.3125 -1.421875 17.546875 -0.640625 
Q 12.796875 0.140625 7.71875 1.703125 
L 7.71875 11.625 
Q 12.109375 9.234375 16.796875 8.0625 
Q 21.484375 6.890625 26.703125 6.890625 
Q 35.15625 6.890625 40.078125 11.328125 
Q 45.015625 15.765625 45.015625 23.390625 
Q 45.015625 31 40.078125 35.4375 
Q 35.15625 39.890625 26.703125 39.890625 
Q 22.75 39.890625 18.8125 39.015625 
Q 14.890625 38.140625 10.796875 36.28125 
z
" id="DejaVuSans-35"/>
      </defs>
      <g style="fill:#262626;" transform="translate(7.287344 248.308397)scale(0.11 -0.11)">
       <use xlink:href="#DejaVuSans-2212"/>
       <use x="83.789062" xlink:href="#DejaVuSans-32"/>
       <use x="147.412109" xlink:href="#DejaVuSans-35"/>
       <use x="211.035156" xlink:href="#DejaVuSans-30"/>
       <use x="274.658203" xlink:href="#DejaVuSans-30"/>
      </g>
     </g>
    </g>
    <g id="ytick_2">
     <g id="line2d_7">
      <path clip-path="url(#pad3b49fd99)" d="M 54 214.559216 
L 388.8 214.559216 
" style="fill:none;stroke:#ffffff;stroke-linecap:round;"/>
     </g>
     <g id="text_8">
      <!-- 0 -->
      <g style="fill:#262626;" transform="translate(37.50125 218.738357)scale(0.11 -0.11)">
       <use xlink:href="#DejaVuSans-30"/>
      </g>
     </g>
    </g>
    <g id="ytick_3">
     <g id="line2d_8">
      <path clip-path="url(#pad3b49fd99)" d="M 54 184.989176 
L 388.8 184.989176 
" style="fill:none;stroke:#ffffff;stroke-linecap:round;"/>
     </g>
     <g id="text_9">
      <!-- 2500 -->
      <g style="fill:#262626;" transform="translate(16.505 189.168316)scale(0.11 -0.11)">
       <use xlink:href="#DejaVuSans-32"/>
       <use x="63.623047" xlink:href="#DejaVuSans-35"/>
       <use x="127.246094" xlink:href="#DejaVuSans-30"/>
       <use x="190.869141" xlink:href="#DejaVuSans-30"/>
      </g>
     </g>
    </g>
    <g id="ytick_4">
     <g id="line2d_9">
      <path clip-path="url(#pad3b49fd99)" d="M 54 155.419135 
L 388.8 155.419135 
" style="fill:none;stroke:#ffffff;stroke-linecap:round;"/>
     </g>
     <g id="text_10">
      <!-- 5000 -->
      <g style="fill:#262626;" transform="translate(16.505 159.598276)scale(0.11 -0.11)">
       <use xlink:href="#DejaVuSans-35"/>
       <use x="63.623047" xlink:href="#DejaVuSans-30"/>
       <use x="127.246094" xlink:href="#DejaVuSans-30"/>
       <use x="190.869141" xlink:href="#DejaVuSans-30"/>
      </g>
     </g>
    </g>
    <g id="ytick_5">
     <g id="line2d_10">
      <path clip-path="url(#pad3b49fd99)" d="M 54 125.849095 
L 388.8 125.849095 
" style="fill:none;stroke:#ffffff;stroke-linecap:round;"/>
     </g>
     <g id="text_11">
      <!-- 7500 -->
      <g style="fill:#262626;" transform="translate(16.505 130.028235)scale(0.11 -0.11)">
       <use xlink:href="#DejaVuSans-37"/>
       <use x="63.623047" xlink:href="#DejaVuSans-35"/>
       <use x="127.246094" xlink:href="#DejaVuSans-30"/>
       <use x="190.869141" xlink:href="#DejaVuSans-30"/>
      </g>
     </g>
    </g>
    <g id="ytick_6">
     <g id="line2d_11">
      <path clip-path="url(#pad3b49fd99)" d="M 54 96.279054 
L 388.8 96.279054 
" style="fill:none;stroke:#ffffff;stroke-linecap:round;"/>
     </g>
     <g id="text_12">
      <!-- 10000 -->
      <g style="fill:#262626;" transform="translate(9.50625 100.458195)scale(0.11 -0.11)">
       <use xlink:href="#DejaVuSans-31"/>
       <use x="63.623047" xlink:href="#DejaVuSans-30"/>
       <use x="127.246094" xlink:href="#DejaVuSans-30"/>
       <use x="190.869141" xlink:href="#DejaVuSans-30"/>
       <use x="254.492188" xlink:href="#DejaVuSans-30"/>
      </g>
     </g>
    </g>
    <g id="ytick_7">
     <g id="line2d_12">
      <path clip-path="url(#pad3b49fd99)" d="M 54 66.709014 
L 388.8 66.709014 
" style="fill:none;stroke:#ffffff;stroke-linecap:round;"/>
     </g>
     <g id="text_13">
      <!-- 12500 -->
      <g style="fill:#262626;" transform="translate(9.50625 70.888155)scale(0.11 -0.11)">
       <use xlink:href="#DejaVuSans-31"/>
       <use x="63.623047" xlink:href="#DejaVuSans-32"/>
       <use x="127.246094" xlink:href="#DejaVuSans-35"/>
       <use x="190.869141" xlink:href="#DejaVuSans-30"/>
       <use x="254.492188" xlink:href="#DejaVuSans-30"/>
      </g>
     </g>
    </g>
    <g id="ytick_8">
     <g id="line2d_13">
      <path clip-path="url(#pad3b49fd99)" d="M 54 37.138973 
L 388.8 37.138973 
" style="fill:none;stroke:#ffffff;stroke-linecap:round;"/>
     </g>
     <g id="text_14">
      <!-- 15000 -->
      <g style="fill:#262626;" transform="translate(9.50625 41.318114)scale(0.11 -0.11)">
       <use xlink:href="#DejaVuSans-31"/>
       <use x="63.623047" xlink:href="#DejaVuSans-35"/>
       <use x="127.246094" xlink:href="#DejaVuSans-30"/>
       <use x="190.869141" xlink:href="#DejaVuSans-30"/>
       <use x="254.492188" xlink:href="#DejaVuSans-30"/>
      </g>
     </g>
    </g>
    <g id="text_15">
     <!-- Time (days) -->
     <defs>
      <path d="M -0.296875 72.90625 
L 61.375 72.90625 
L 61.375 64.59375 
L 35.5 64.59375 
L 35.5 0 
L 25.59375 0 
L 25.59375 64.59375 
L -0.296875 64.59375 
z
" id="DejaVuSans-54"/>
      <path d="M 9.421875 54.6875 
L 18.40625 54.6875 
L 18.40625 0 
L 9.421875 0 
z
M 9.421875 75.984375 
L 18.40625 75.984375 
L 18.40625 64.59375 
L 9.421875 64.59375 
z
" id="DejaVuSans-69"/>
      <path d="M 52 44.1875 
Q 55.375 50.25 60.0625 53.125 
Q 64.75 56 71.09375 56 
Q 79.640625 56 84.28125 50.015625 
Q 88.921875 44.046875 88.921875 33.015625 
L 88.921875 0 
L 79.890625 0 
L 79.890625 32.71875 
Q 79.890625 40.578125 77.09375 44.375 
Q 74.3125 48.1875 68.609375 48.1875 
Q 61.625 48.1875 57.5625 43.546875 
Q 53.515625 38.921875 53.515625 30.90625 
L 53.515625 0 
L 44.484375 0 
L 44.484375 32.71875 
Q 44.484375 40.625 41.703125 44.40625 
Q 38.921875 48.1875 33.109375 48.1875 
Q 26.21875 48.1875 22.15625 43.53125 
Q 18.109375 38.875 18.109375 30.90625 
L 18.109375 0 
L 9.078125 0 
L 9.078125 54.6875 
L 18.109375 54.6875 
L 18.109375 46.1875 
Q 21.1875 51.21875 25.484375 53.609375 
Q 29.78125 56 35.6875 56 
Q 41.65625 56 45.828125 52.96875 
Q 50 49.953125 52 44.1875 
z
" id="DejaVuSans-6d"/>
      <path d="M 56.203125 29.59375 
L 56.203125 25.203125 
L 14.890625 25.203125 
Q 15.484375 15.921875 20.484375 11.0625 
Q 25.484375 6.203125 34.421875 6.203125 
Q 39.59375 6.203125 44.453125 7.46875 
Q 49.3125 8.734375 54.109375 11.28125 
L 54.109375 2.78125 
Q 49.265625 0.734375 44.1875 -0.34375 
Q 39.109375 -1.421875 33.890625 -1.421875 
Q 20.796875 -1.421875 13.15625 6.1875 
Q 5.515625 13.8125 5.515625 26.8125 
Q 5.515625 40.234375 12.765625 48.109375 
Q 20.015625 56 32.328125 56 
Q 43.359375 56 49.78125 48.890625 
Q 56.203125 41.796875 56.203125 29.59375 
z
M 47.21875 32.234375 
Q 47.125 39.59375 43.09375 43.984375 
Q 39.0625 48.390625 32.421875 48.390625 
Q 24.90625 48.390625 20.390625 44.140625 
Q 15.875 39.890625 15.1875 32.171875 
z
" id="DejaVuSans-65"/>
      <path id="DejaVuSans-20"/>
      <path d="M 45.40625 46.390625 
L 45.40625 75.984375 
L 54.390625 75.984375 
L 54.390625 0 
L 45.40625 0 
L 45.40625 8.203125 
Q 42.578125 3.328125 38.25 0.953125 
Q 33.9375 -1.421875 27.875 -1.421875 
Q 17.96875 -1.421875 11.734375 6.484375 
Q 5.515625 14.40625 5.515625 27.296875 
Q 5.515625 40.1875 11.734375 48.09375 
Q 17.96875 56 27.875 56 
Q 33.9375 56 38.25 53.625 
Q 42.578125 51.265625 45.40625 46.390625 
z
M 14.796875 27.296875 
Q 14.796875 17.390625 18.875 11.75 
Q 22.953125 6.109375 30.078125 6.109375 
Q 37.203125 6.109375 41.296875 11.75 
Q 45.40625 17.390625 45.40625 27.296875 
Q 45.40625 37.203125 41.296875 42.84375 
Q 37.203125 48.484375 30.078125 48.484375 
Q 22.953125 48.484375 18.875 42.84375 
Q 14.796875 37.203125 14.796875 27.296875 
z
" id="DejaVuSans-64"/>
      <path d="M 34.28125 27.484375 
Q 23.390625 27.484375 19.1875 25 
Q 14.984375 22.515625 14.984375 16.5 
Q 14.984375 11.71875 18.140625 8.90625 
Q 21.296875 6.109375 26.703125 6.109375 
Q 34.1875 6.109375 38.703125 11.40625 
Q 43.21875 16.703125 43.21875 25.484375 
L 43.21875 27.484375 
z
M 52.203125 31.203125 
L 52.203125 0 
L 43.21875 0 
L 43.21875 8.296875 
Q 40.140625 3.328125 35.546875 0.953125 
Q 30.953125 -1.421875 24.3125 -1.421875 
Q 15.921875 -1.421875 10.953125 3.296875 
Q 6 8.015625 6 15.921875 
Q 6 25.140625 12.171875 29.828125 
Q 18.359375 34.515625 30.609375 34.515625 
L 43.21875 34.515625 
L 43.21875 35.40625 
Q 43.21875 41.609375 39.140625 45 
Q 35.0625 48.390625 27.6875 48.390625 
Q 23 48.390625 18.546875 47.265625 
Q 14.109375 46.140625 10.015625 43.890625 
L 10.015625 52.203125 
Q 14.9375 54.109375 19.578125 55.046875 
Q 24.21875 56 28.609375 56 
Q 40.484375 56 46.34375 49.84375 
Q 52.203125 43.703125 52.203125 31.203125 
z
" id="DejaVuSans-61"/>
      <path d="M 32.171875 -5.078125 
Q 28.375 -14.84375 24.75 -17.8125 
Q 21.140625 -20.796875 15.09375 -20.796875 
L 7.90625 -20.796875 
L 7.90625 -13.28125 
L 13.1875 -13.28125 
Q 16.890625 -13.28125 18.9375 -11.515625 
Q 21 -9.765625 23.484375 -3.21875 
L 25.09375 0.875 
L 2.984375 54.6875 
L 12.5 54.6875 
L 29.59375 11.921875 
L 46.6875 54.6875 
L 56.203125 54.6875 
z
" id="DejaVuSans-79"/>
      <path d="M 44.28125 53.078125 
L 44.28125 44.578125 
Q 40.484375 46.53125 36.375 47.5 
Q 32.28125 48.484375 27.875 48.484375 
Q 21.1875 48.484375 17.84375 46.4375 
Q 14.5 44.390625 14.5 40.28125 
Q 14.5 37.15625 16.890625 35.375 
Q 19.28125 33.59375 26.515625 31.984375 
L 29.59375 31.296875 
Q 39.15625 29.25 43.1875 25.515625 
Q 47.21875 21.78125 47.21875 15.09375 
Q 47.21875 7.46875 41.1875 3.015625 
Q 35.15625 -1.421875 24.609375 -1.421875 
Q 20.21875 -1.421875 15.453125 -0.5625 
Q 10.6875 0.296875 5.421875 2 
L 5.421875 11.28125 
Q 10.40625 8.6875 15.234375 7.390625 
Q 20.0625 6.109375 24.8125 6.109375 
Q 31.15625 6.109375 34.5625 8.28125 
Q 37.984375 10.453125 37.984375 14.40625 
Q 37.984375 18.0625 35.515625 20.015625 
Q 33.0625 21.96875 24.703125 23.78125 
L 21.578125 24.515625 
Q 13.234375 26.265625 9.515625 29.90625 
Q 5.8125 33.546875 5.8125 39.890625 
Q 5.8125 47.609375 11.28125 51.796875 
Q 16.75 56 26.8125 56 
Q 31.78125 56 36.171875 55.265625 
Q 40.578125 54.546875 44.28125 53.078125 
z
" id="DejaVuSans-73"/>
     </defs>
     <g style="fill:#262626;" transform="translate(0.791719 178.896563)rotate(-90)scale(0.12 -0.12)">
      <use xlink:href="#DejaVuSans-54"/>
      <use x="61.037109" xlink:href="#DejaVuSans-69"/>
      <use x="88.820312" xlink:href="#DejaVuSans-6d"/>
      <use x="186.232422" xlink:href="#DejaVuSans-65"/>
      <use x="247.755859" xlink:href="#DejaVuSans-20"/>
      <use x="279.542969" xlink:href="#DejaVuSans-28"/>
      <use x="318.556641" xlink:href="#DejaVuSans-64"/>
      <use x="382.033203" xlink:href="#DejaVuSans-61"/>
      <use x="443.3125" xlink:href="#DejaVuSans-79"/>
      <use x="502.492188" xlink:href="#DejaVuSans-73"/>
      <use x="554.591797" xlink:href="#DejaVuSans-29"/>
     </g>
    </g>
   </g>
   <g id="LineCollection_1">
    <path clip-path="url(#pad3b49fd99)" d="M 69.218182 221.365809 
L 69.218182 206.186254 
" style="fill:none;stroke:#4c72b0;stroke-width:1.5;"/>
    <path clip-path="url(#pad3b49fd99)" d="M 99.654545 225.958418 
L 99.654545 195.864627 
" style="fill:none;stroke:#4c72b0;stroke-width:1.5;"/>
    <path clip-path="url(#pad3b49fd99)" d="M 130.090909 225.899101 
L 130.090909 179.630047 
" style="fill:none;stroke:#4c72b0;stroke-width:1.5;"/>
    <path clip-path="url(#pad3b49fd99)" d="M 160.527273 213.440499 
L 160.527273 165.158733 
" style="fill:none;stroke:#4c72b0;stroke-width:1.5;"/>
    <path clip-path="url(#pad3b49fd99)" d="M 190.963636 201.930299 
L 190.963636 170.672174 
" style="fill:none;stroke:#4c72b0;stroke-width:1.5;"/>
    <path clip-path="url(#pad3b49fd99)" d="M 221.4 202.413236 
L 221.4 184.31756 
" style="fill:none;stroke:#4c72b0;stroke-width:1.5;"/>
    <path clip-path="url(#pad3b49fd99)" d="M 251.836364 202.919999 
L 251.836364 193.769292 
" style="fill:none;stroke:#4c72b0;stroke-width:1.5;"/>
    <path clip-path="url(#pad3b49fd99)" d="M 282.272727 202.439676 
L 282.272727 198.255641 
" style="fill:none;stroke:#4c72b0;stroke-width:1.5;"/>
    <path clip-path="url(#pad3b49fd99)" d="M 312.709091 202.411383 
L 312.709091 199.602231 
" style="fill:none;stroke:#4c72b0;stroke-width:1.5;"/>
    <path clip-path="url(#pad3b49fd99)" d="M 343.145455 202.414187 
L 343.145455 199.920311 
" style="fill:none;stroke:#4c72b0;stroke-width:1.5;"/>
    <path clip-path="url(#pad3b49fd99)" d="M 373.581818 202.46313 
L 373.581818 200.01216 
" style="fill:none;stroke:#4c72b0;stroke-width:1.5;"/>
   </g>
   <g id="LineCollection_2">
    <path clip-path="url(#pad3b49fd99)" d="M 69.218182 222.883192 
L 69.218182 204.302725 
" style="fill:none;stroke:#dd8452;stroke-width:1.5;"/>
    <path clip-path="url(#pad3b49fd99)" d="M 99.654545 229.764267 
L 99.654545 189.29307 
" style="fill:none;stroke:#dd8452;stroke-width:1.5;"/>
    <path clip-path="url(#pad3b49fd99)" d="M 130.090909 230.416053 
L 130.090909 162.213115 
" style="fill:none;stroke:#dd8452;stroke-width:1.5;"/>
    <path clip-path="url(#pad3b49fd99)" d="M 160.527273 207.415236 
L 160.527273 131.093607 
" style="fill:none;stroke:#dd8452;stroke-width:1.5;"/>
    <path clip-path="url(#pad3b49fd99)" d="M 190.963636 173.534841 
L 190.963636 127.438145 
" style="fill:none;stroke:#dd8452;stroke-width:1.5;"/>
    <path clip-path="url(#pad3b49fd99)" d="M 221.4 168.012084 
L 221.4 136.112106 
" style="fill:none;stroke:#dd8452;stroke-width:1.5;"/>
    <path clip-path="url(#pad3b49fd99)" d="M 251.836364 174.910153 
L 251.836364 143.928389 
" style="fill:none;stroke:#dd8452;stroke-width:1.5;"/>
    <path clip-path="url(#pad3b49fd99)" d="M 282.272727 185.129472 
L 282.272727 154.292607 
" style="fill:none;stroke:#dd8452;stroke-width:1.5;"/>
    <path clip-path="url(#pad3b49fd99)" d="M 312.709091 196.238455 
L 312.709091 167.909491 
" style="fill:none;stroke:#dd8452;stroke-width:1.5;"/>
    <path clip-path="url(#pad3b49fd99)" d="M 343.145455 203.338013 
L 343.145455 181.696166 
" style="fill:none;stroke:#dd8452;stroke-width:1.5;"/>
    <path clip-path="url(#pad3b49fd99)" d="M 373.581818 206.677938 
L 373.581818 193.757584 
" style="fill:none;stroke:#dd8452;stroke-width:1.5;"/>
   </g>
   <g id="LineCollection_3">
    <path clip-path="url(#pad3b49fd99)" d="M 69.218182 223.746449 
L 69.218182 203.23363 
" style="fill:none;stroke:#55a868;stroke-width:1.5;"/>
    <path clip-path="url(#pad3b49fd99)" d="M 99.654545 232.973336 
L 99.654545 183.715053 
" style="fill:none;stroke:#55a868;stroke-width:1.5;"/>
    <path clip-path="url(#pad3b49fd99)" d="M 130.090909 234.914398 
L 130.090909 145.10201 
" style="fill:none;stroke:#55a868;stroke-width:1.5;"/>
    <path clip-path="url(#pad3b49fd99)" d="M 160.527273 202.088097 
L 160.527273 96.977035 
" style="fill:none;stroke:#55a868;stroke-width:1.5;"/>
    <path clip-path="url(#pad3b49fd99)" d="M 190.963636 148.159759 
L 190.963636 87.750108 
" style="fill:none;stroke:#55a868;stroke-width:1.5;"/>
    <path clip-path="url(#pad3b49fd99)" d="M 221.4 136.288454 
L 221.4 99.700647 
" style="fill:none;stroke:#55a868;stroke-width:1.5;"/>
    <path clip-path="url(#pad3b49fd99)" d="M 251.836364 140.019032 
L 251.836364 106.666827 
" style="fill:none;stroke:#55a868;stroke-width:1.5;"/>
    <path clip-path="url(#pad3b49fd99)" d="M 282.272727 142.966348 
L 282.272727 110.630487 
" style="fill:none;stroke:#55a868;stroke-width:1.5;"/>
    <path clip-path="url(#pad3b49fd99)" d="M 312.709091 147.658251 
L 312.709091 114.06714 
" style="fill:none;stroke:#55a868;stroke-width:1.5;"/>
    <path clip-path="url(#pad3b49fd99)" d="M 343.145455 152.045356 
L 343.145455 116.876079 
" style="fill:none;stroke:#55a868;stroke-width:1.5;"/>
    <path clip-path="url(#pad3b49fd99)" d="M 373.581818 158.690832 
L 373.581818 120.793206 
" style="fill:none;stroke:#55a868;stroke-width:1.5;"/>
   </g>
   <g id="LineCollection_4">
    <path clip-path="url(#pad3b49fd99)" d="M 69.218182 227.709795 
L 69.218182 198.273085 
" style="fill:none;stroke:#c44e52;stroke-width:1.5;"/>
    <path clip-path="url(#pad3b49fd99)" d="M 99.654545 240.132604 
L 99.654545 171.49668 
" style="fill:none;stroke:#c44e52;stroke-width:1.5;"/>
    <path clip-path="url(#pad3b49fd99)" d="M 130.090909 242.116364 
L 130.090909 119.752908 
" style="fill:none;stroke:#c44e52;stroke-width:1.5;"/>
    <path clip-path="url(#pad3b49fd99)" d="M 160.527273 197.555227 
L 160.527273 55.801208 
" style="fill:none;stroke:#c44e52;stroke-width:1.5;"/>
    <path clip-path="url(#pad3b49fd99)" d="M 190.963636 125.040991 
L 190.963636 44.443636 
" style="fill:none;stroke:#c44e52;stroke-width:1.5;"/>
    <path clip-path="url(#pad3b49fd99)" d="M 221.4 112.348251 
L 221.4 61.637558 
" style="fill:none;stroke:#c44e52;stroke-width:1.5;"/>
    <path clip-path="url(#pad3b49fd99)" d="M 251.836364 125.142224 
L 251.836364 77.002054 
" style="fill:none;stroke:#c44e52;stroke-width:1.5;"/>
    <path clip-path="url(#pad3b49fd99)" d="M 282.272727 135.526995 
L 282.272727 92.418475 
" style="fill:none;stroke:#c44e52;stroke-width:1.5;"/>
    <path clip-path="url(#pad3b49fd99)" d="M 312.709091 142.920944 
L 312.709091 104.63076 
" style="fill:none;stroke:#c44e52;stroke-width:1.5;"/>
    <path clip-path="url(#pad3b49fd99)" d="M 343.145455 146.985017 
L 343.145455 112.40329 
" style="fill:none;stroke:#c44e52;stroke-width:1.5;"/>
    <path clip-path="url(#pad3b49fd99)" d="M 373.581818 148.917668 
L 373.581818 116.285091 
" style="fill:none;stroke:#c44e52;stroke-width:1.5;"/>
   </g>
   <g id="line2d_14">
    <defs>
     <path d="M 3 0 
L -3 -0 
" id="mbf87e730bc" style="stroke:#4c72b0;"/>
    </defs>
    <g clip-path="url(#pad3b49fd99)">
     <use style="fill:#4c72b0;stroke:#4c72b0;" x="69.218182" xlink:href="#mbf87e730bc" y="221.365809"/>
     <use style="fill:#4c72b0;stroke:#4c72b0;" x="99.654545" xlink:href="#mbf87e730bc" y="225.958418"/>
     <use style="fill:#4c72b0;stroke:#4c72b0;" x="130.090909" xlink:href="#mbf87e730bc" y="225.899101"/>
     <use style="fill:#4c72b0;stroke:#4c72b0;" x="160.527273" xlink:href="#mbf87e730bc" y="213.440499"/>
     <use style="fill:#4c72b0;stroke:#4c72b0;" x="190.963636" xlink:href="#mbf87e730bc" y="201.930299"/>
     <use style="fill:#4c72b0;stroke:#4c72b0;" x="221.4" xlink:href="#mbf87e730bc" y="202.413236"/>
     <use style="fill:#4c72b0;stroke:#4c72b0;" x="251.836364" xlink:href="#mbf87e730bc" y="202.919999"/>
     <use style="fill:#4c72b0;stroke:#4c72b0;" x="282.272727" xlink:href="#mbf87e730bc" y="202.439676"/>
     <use style="fill:#4c72b0;stroke:#4c72b0;" x="312.709091" xlink:href="#mbf87e730bc" y="202.411383"/>
     <use style="fill:#4c72b0;stroke:#4c72b0;" x="343.145455" xlink:href="#mbf87e730bc" y="202.414187"/>
     <use style="fill:#4c72b0;stroke:#4c72b0;" x="373.581818" xlink:href="#mbf87e730bc" y="202.46313"/>
    </g>
   </g>
   <g id="line2d_15">
    <g clip-path="url(#pad3b49fd99)">
     <use style="fill:#4c72b0;stroke:#4c72b0;" x="69.218182" xlink:href="#mbf87e730bc" y="206.186254"/>
     <use style="fill:#4c72b0;stroke:#4c72b0;" x="99.654545" xlink:href="#mbf87e730bc" y="195.864627"/>
     <use style="fill:#4c72b0;stroke:#4c72b0;" x="130.090909" xlink:href="#mbf87e730bc" y="179.630047"/>
     <use style="fill:#4c72b0;stroke:#4c72b0;" x="160.527273" xlink:href="#mbf87e730bc" y="165.158733"/>
     <use style="fill:#4c72b0;stroke:#4c72b0;" x="190.963636" xlink:href="#mbf87e730bc" y="170.672174"/>
     <use style="fill:#4c72b0;stroke:#4c72b0;" x="221.4" xlink:href="#mbf87e730bc" y="184.31756"/>
     <use style="fill:#4c72b0;stroke:#4c72b0;" x="251.836364" xlink:href="#mbf87e730bc" y="193.769292"/>
     <use style="fill:#4c72b0;stroke:#4c72b0;" x="282.272727" xlink:href="#mbf87e730bc" y="198.255641"/>
     <use style="fill:#4c72b0;stroke:#4c72b0;" x="312.709091" xlink:href="#mbf87e730bc" y="199.602231"/>
     <use style="fill:#4c72b0;stroke:#4c72b0;" x="343.145455" xlink:href="#mbf87e730bc" y="199.920311"/>
     <use style="fill:#4c72b0;stroke:#4c72b0;" x="373.581818" xlink:href="#mbf87e730bc" y="200.01216"/>
    </g>
   </g>
   <g id="line2d_16">
    <defs>
     <path d="M 3 0 
L -3 -0 
" id="m89dbe7eb9b" style="stroke:#dd8452;"/>
    </defs>
    <g clip-path="url(#pad3b49fd99)">
     <use style="fill:#dd8452;stroke:#dd8452;" x="69.218182" xlink:href="#m89dbe7eb9b" y="222.883192"/>
     <use style="fill:#dd8452;stroke:#dd8452;" x="99.654545" xlink:href="#m89dbe7eb9b" y="229.764267"/>
     <use style="fill:#dd8452;stroke:#dd8452;" x="130.090909" xlink:href="#m89dbe7eb9b" y="230.416053"/>
     <use style="fill:#dd8452;stroke:#dd8452;" x="160.527273" xlink:href="#m89dbe7eb9b" y="207.415236"/>
     <use style="fill:#dd8452;stroke:#dd8452;" x="190.963636" xlink:href="#m89dbe7eb9b" y="173.534841"/>
     <use style="fill:#dd8452;stroke:#dd8452;" x="221.4" xlink:href="#m89dbe7eb9b" y="168.012084"/>
     <use style="fill:#dd8452;stroke:#dd8452;" x="251.836364" xlink:href="#m89dbe7eb9b" y="174.910153"/>
     <use style="fill:#dd8452;stroke:#dd8452;" x="282.272727" xlink:href="#m89dbe7eb9b" y="185.129472"/>
     <use style="fill:#dd8452;stroke:#dd8452;" x="312.709091" xlink:href="#m89dbe7eb9b" y="196.238455"/>
     <use style="fill:#dd8452;stroke:#dd8452;" x="343.145455" xlink:href="#m89dbe7eb9b" y="203.338013"/>
     <use style="fill:#dd8452;stroke:#dd8452;" x="373.581818" xlink:href="#m89dbe7eb9b" y="206.677938"/>
    </g>
   </g>
   <g id="line2d_17">
    <g clip-path="url(#pad3b49fd99)">
     <use style="fill:#dd8452;stroke:#dd8452;" x="69.218182" xlink:href="#m89dbe7eb9b" y="204.302725"/>
     <use style="fill:#dd8452;stroke:#dd8452;" x="99.654545" xlink:href="#m89dbe7eb9b" y="189.29307"/>
     <use style="fill:#dd8452;stroke:#dd8452;" x="130.090909" xlink:href="#m89dbe7eb9b" y="162.213115"/>
     <use style="fill:#dd8452;stroke:#dd8452;" x="160.527273" xlink:href="#m89dbe7eb9b" y="131.093607"/>
     <use style="fill:#dd8452;stroke:#dd8452;" x="190.963636" xlink:href="#m89dbe7eb9b" y="127.438145"/>
     <use style="fill:#dd8452;stroke:#dd8452;" x="221.4" xlink:href="#m89dbe7eb9b" y="136.112106"/>
     <use style="fill:#dd8452;stroke:#dd8452;" x="251.836364" xlink:href="#m89dbe7eb9b" y="143.928389"/>
     <use style="fill:#dd8452;stroke:#dd8452;" x="282.272727" xlink:href="#m89dbe7eb9b" y="154.292607"/>
     <use style="fill:#dd8452;stroke:#dd8452;" x="312.709091" xlink:href="#m89dbe7eb9b" y="167.909491"/>
     <use style="fill:#dd8452;stroke:#dd8452;" x="343.145455" xlink:href="#m89dbe7eb9b" y="181.696166"/>
     <use style="fill:#dd8452;stroke:#dd8452;" x="373.581818" xlink:href="#m89dbe7eb9b" y="193.757584"/>
    </g>
   </g>
   <g id="line2d_18">
    <defs>
     <path d="M 3 0 
L -3 -0 
" id="m91eff5b538" style="stroke:#55a868;"/>
    </defs>
    <g clip-path="url(#pad3b49fd99)">
     <use style="fill:#55a868;stroke:#55a868;" x="69.218182" xlink:href="#m91eff5b538" y="223.746449"/>
     <use style="fill:#55a868;stroke:#55a868;" x="99.654545" xlink:href="#m91eff5b538" y="232.973336"/>
     <use style="fill:#55a868;stroke:#55a868;" x="130.090909" xlink:href="#m91eff5b538" y="234.914398"/>
     <use style="fill:#55a868;stroke:#55a868;" x="160.527273" xlink:href="#m91eff5b538" y="202.088097"/>
     <use style="fill:#55a868;stroke:#55a868;" x="190.963636" xlink:href="#m91eff5b538" y="148.159759"/>
     <use style="fill:#55a868;stroke:#55a868;" x="221.4" xlink:href="#m91eff5b538" y="136.288454"/>
     <use style="fill:#55a868;stroke:#55a868;" x="251.836364" xlink:href="#m91eff5b538" y="140.019032"/>
     <use style="fill:#55a868;stroke:#55a868;" x="282.272727" xlink:href="#m91eff5b538" y="142.966348"/>
     <use style="fill:#55a868;stroke:#55a868;" x="312.709091" xlink:href="#m91eff5b538" y="147.658251"/>
     <use style="fill:#55a868;stroke:#55a868;" x="343.145455" xlink:href="#m91eff5b538" y="152.045356"/>
     <use style="fill:#55a868;stroke:#55a868;" x="373.581818" xlink:href="#m91eff5b538" y="158.690832"/>
    </g>
   </g>
   <g id="line2d_19">
    <g clip-path="url(#pad3b49fd99)">
     <use style="fill:#55a868;stroke:#55a868;" x="69.218182" xlink:href="#m91eff5b538" y="203.23363"/>
     <use style="fill:#55a868;stroke:#55a868;" x="99.654545" xlink:href="#m91eff5b538" y="183.715053"/>
     <use style="fill:#55a868;stroke:#55a868;" x="130.090909" xlink:href="#m91eff5b538" y="145.10201"/>
     <use style="fill:#55a868;stroke:#55a868;" x="160.527273" xlink:href="#m91eff5b538" y="96.977035"/>
     <use style="fill:#55a868;stroke:#55a868;" x="190.963636" xlink:href="#m91eff5b538" y="87.750108"/>
     <use style="fill:#55a868;stroke:#55a868;" x="221.4" xlink:href="#m91eff5b538" y="99.700647"/>
     <use style="fill:#55a868;stroke:#55a868;" x="251.836364" xlink:href="#m91eff5b538" y="106.666827"/>
     <use style="fill:#55a868;stroke:#55a868;" x="282.272727" xlink:href="#m91eff5b538" y="110.630487"/>
     <use style="fill:#55a868;stroke:#55a868;" x="312.709091" xlink:href="#m91eff5b538" y="114.06714"/>
     <use style="fill:#55a868;stroke:#55a868;" x="343.145455" xlink:href="#m91eff5b538" y="116.876079"/>
     <use style="fill:#55a868;stroke:#55a868;" x="373.581818" xlink:href="#m91eff5b538" y="120.793206"/>
    </g>
   </g>
   <g id="line2d_20">
    <defs>
     <path d="M 3 0 
L -3 -0 
" id="m7f538adce0" style="stroke:#c44e52;"/>
    </defs>
    <g clip-path="url(#pad3b49fd99)">
     <use style="fill:#c44e52;stroke:#c44e52;" x="69.218182" xlink:href="#m7f538adce0" y="227.709795"/>
     <use style="fill:#c44e52;stroke:#c44e52;" x="99.654545" xlink:href="#m7f538adce0" y="240.132604"/>
     <use style="fill:#c44e52;stroke:#c44e52;" x="130.090909" xlink:href="#m7f538adce0" y="242.116364"/>
     <use style="fill:#c44e52;stroke:#c44e52;" x="160.527273" xlink:href="#m7f538adce0" y="197.555227"/>
     <use style="fill:#c44e52;stroke:#c44e52;" x="190.963636" xlink:href="#m7f538adce0" y="125.040991"/>
     <use style="fill:#c44e52;stroke:#c44e52;" x="221.4" xlink:href="#m7f538adce0" y="112.348251"/>
     <use style="fill:#c44e52;stroke:#c44e52;" x="251.836364" xlink:href="#m7f538adce0" y="125.142224"/>
     <use style="fill:#c44e52;stroke:#c44e52;" x="282.272727" xlink:href="#m7f538adce0" y="135.526995"/>
     <use style="fill:#c44e52;stroke:#c44e52;" x="312.709091" xlink:href="#m7f538adce0" y="142.920944"/>
     <use style="fill:#c44e52;stroke:#c44e52;" x="343.145455" xlink:href="#m7f538adce0" y="146.985017"/>
     <use style="fill:#c44e52;stroke:#c44e52;" x="373.581818" xlink:href="#m7f538adce0" y="148.917668"/>
    </g>
   </g>
   <g id="line2d_21">
    <g clip-path="url(#pad3b49fd99)">
     <use style="fill:#c44e52;stroke:#c44e52;" x="69.218182" xlink:href="#m7f538adce0" y="198.273085"/>
     <use style="fill:#c44e52;stroke:#c44e52;" x="99.654545" xlink:href="#m7f538adce0" y="171.49668"/>
     <use style="fill:#c44e52;stroke:#c44e52;" x="130.090909" xlink:href="#m7f538adce0" y="119.752908"/>
     <use style="fill:#c44e52;stroke:#c44e52;" x="160.527273" xlink:href="#m7f538adce0" y="55.801208"/>
     <use style="fill:#c44e52;stroke:#c44e52;" x="190.963636" xlink:href="#m7f538adce0" y="44.443636"/>
     <use style="fill:#c44e52;stroke:#c44e52;" x="221.4" xlink:href="#m7f538adce0" y="61.637558"/>
     <use style="fill:#c44e52;stroke:#c44e52;" x="251.836364" xlink:href="#m7f538adce0" y="77.002054"/>
     <use style="fill:#c44e52;stroke:#c44e52;" x="282.272727" xlink:href="#m7f538adce0" y="92.418475"/>
     <use style="fill:#c44e52;stroke:#c44e52;" x="312.709091" xlink:href="#m7f538adce0" y="104.63076"/>
     <use style="fill:#c44e52;stroke:#c44e52;" x="343.145455" xlink:href="#m7f538adce0" y="112.40329"/>
     <use style="fill:#c44e52;stroke:#c44e52;" x="373.581818" xlink:href="#m7f538adce0" y="116.285091"/>
    </g>
   </g>
   <g id="line2d_22">
    <path clip-path="url(#pad3b49fd99)" d="M 69.218182 213.776031 
L 99.654545 210.911522 
L 130.090909 202.764574 
L 160.527273 189.299616 
L 190.963636 186.301236 
L 221.4 193.365398 
L 251.836364 198.344645 
L 282.272727 200.347659 
L 312.709091 201.006807 
L 343.145455 201.167249 
L 373.581818 201.237645 
" style="fill:none;stroke:#4c72b0;stroke-linecap:round;stroke-width:1.5;"/>
   </g>
   <g id="line2d_23">
    <path clip-path="url(#pad3b49fd99)" d="M 69.218182 213.592958 
L 99.654545 209.528669 
L 130.090909 196.314584 
L 160.527273 169.254421 
L 190.963636 150.486493 
L 221.4 152.062095 
L 251.836364 159.419271 
L 282.272727 169.71104 
L 312.709091 182.073973 
L 343.145455 192.51709 
L 373.581818 200.217761 
" style="fill:none;stroke:#dd8452;stroke-linecap:round;stroke-width:1.5;"/>
   </g>
   <g id="line2d_24">
    <path clip-path="url(#pad3b49fd99)" d="M 69.218182 213.490039 
L 99.654545 208.344195 
L 130.090909 190.008204 
L 160.527273 149.532566 
L 190.963636 117.954934 
L 221.4 117.99455 
L 251.836364 123.34293 
L 282.272727 126.798417 
L 312.709091 130.862695 
L 343.145455 134.460717 
L 373.581818 139.742019 
" style="fill:none;stroke:#55a868;stroke-linecap:round;stroke-width:1.5;"/>
   </g>
   <g id="line2d_25">
    <path clip-path="url(#pad3b49fd99)" d="M 69.218182 212.99144 
L 99.654545 205.814642 
L 130.090909 180.934636 
L 160.527273 126.678218 
L 190.963636 84.742314 
L 221.4 86.992905 
L 251.836364 101.072139 
L 282.272727 113.972735 
L 312.709091 123.775852 
L 343.145455 129.694153 
L 373.581818 132.601379 
" style="fill:none;stroke:#c44e52;stroke-linecap:round;stroke-width:1.5;"/>
   </g>
   <g id="patch_3">
    <path d="M 54 252 
L 54 34.56 
" style="fill:none;stroke:#ffffff;stroke-linecap:square;stroke-linejoin:miter;stroke-width:1.25;"/>
   </g>
   <g id="patch_4">
    <path d="M 388.8 252 
L 388.8 34.56 
" style="fill:none;stroke:#ffffff;stroke-linecap:square;stroke-linejoin:miter;stroke-width:1.25;"/>
   </g>
   <g id="patch_5">
    <path d="M 54 252 
L 388.8 252 
" style="fill:none;stroke:#ffffff;stroke-linecap:square;stroke-linejoin:miter;stroke-width:1.25;"/>
   </g>
   <g id="patch_6">
    <path d="M 54 34.56 
L 388.8 34.56 
" style="fill:none;stroke:#ffffff;stroke-linecap:square;stroke-linejoin:miter;stroke-width:1.25;"/>
   </g>
   <g id="text_16">
    <!-- Waiting times across mutations -->
    <defs>
     <path d="M 3.328125 72.90625 
L 13.28125 72.90625 
L 28.609375 11.28125 
L 43.890625 72.90625 
L 54.984375 72.90625 
L 70.3125 11.28125 
L 85.59375 72.90625 
L 95.609375 72.90625 
L 77.296875 0 
L 64.890625 0 
L 49.515625 63.28125 
L 33.984375 0 
L 21.578125 0 
z
" id="DejaVuSans-57"/>
     <path d="M 18.3125 70.21875 
L 18.3125 54.6875 
L 36.8125 54.6875 
L 36.8125 47.703125 
L 18.3125 47.703125 
L 18.3125 18.015625 
Q 18.3125 11.328125 20.140625 9.421875 
Q 21.96875 7.515625 27.59375 7.515625 
L 36.8125 7.515625 
L 36.8125 0 
L 27.59375 0 
Q 17.1875 0 13.234375 3.875 
Q 9.28125 7.765625 9.28125 18.015625 
L 9.28125 47.703125 
L 2.6875 47.703125 
L 2.6875 54.6875 
L 9.28125 54.6875 
L 9.28125 70.21875 
z
" id="DejaVuSans-74"/>
     <path d="M 48.78125 52.59375 
L 48.78125 44.1875 
Q 44.96875 46.296875 41.140625 47.34375 
Q 37.3125 48.390625 33.40625 48.390625 
Q 24.65625 48.390625 19.8125 42.84375 
Q 14.984375 37.3125 14.984375 27.296875 
Q 14.984375 17.28125 19.8125 11.734375 
Q 24.65625 6.203125 33.40625 6.203125 
Q 37.3125 6.203125 41.140625 7.25 
Q 44.96875 8.296875 48.78125 10.40625 
L 48.78125 2.09375 
Q 45.015625 0.34375 40.984375 -0.53125 
Q 36.96875 -1.421875 32.421875 -1.421875 
Q 20.0625 -1.421875 12.78125 6.34375 
Q 5.515625 14.109375 5.515625 27.296875 
Q 5.515625 40.671875 12.859375 48.328125 
Q 20.21875 56 33.015625 56 
Q 37.15625 56 41.109375 55.140625 
Q 45.0625 54.296875 48.78125 52.59375 
z
" id="DejaVuSans-63"/>
     <path d="M 41.109375 46.296875 
Q 39.59375 47.171875 37.8125 47.578125 
Q 36.03125 48 33.890625 48 
Q 26.265625 48 22.1875 43.046875 
Q 18.109375 38.09375 18.109375 28.8125 
L 18.109375 0 
L 9.078125 0 
L 9.078125 54.6875 
L 18.109375 54.6875 
L 18.109375 46.1875 
Q 20.953125 51.171875 25.484375 53.578125 
Q 30.03125 56 36.53125 56 
Q 37.453125 56 38.578125 55.875 
Q 39.703125 55.765625 41.0625 55.515625 
z
" id="DejaVuSans-72"/>
     <path d="M 8.5 21.578125 
L 8.5 54.6875 
L 17.484375 54.6875 
L 17.484375 21.921875 
Q 17.484375 14.15625 20.5 10.265625 
Q 23.53125 6.390625 29.59375 6.390625 
Q 36.859375 6.390625 41.078125 11.03125 
Q 45.3125 15.671875 45.3125 23.6875 
L 45.3125 54.6875 
L 54.296875 54.6875 
L 54.296875 0 
L 45.3125 0 
L 45.3125 8.40625 
Q 42.046875 3.421875 37.71875 1 
Q 33.40625 -1.421875 27.6875 -1.421875 
Q 18.265625 -1.421875 13.375 4.4375 
Q 8.5 10.296875 8.5 21.578125 
z
M 31.109375 56 
z
" id="DejaVuSans-75"/>
    </defs>
    <g style="fill:#262626;" transform="translate(126.439688 28.56)scale(0.12 -0.12)">
     <use xlink:href="#DejaVuSans-57"/>
     <use x="98.783203" xlink:href="#DejaVuSans-61"/>
     <use x="160.0625" xlink:href="#DejaVuSans-69"/>
     <use x="187.845703" xlink:href="#DejaVuSans-74"/>
     <use x="227.054688" xlink:href="#DejaVuSans-69"/>
     <use x="254.837891" xlink:href="#DejaVuSans-6e"/>
     <use x="318.216797" xlink:href="#DejaVuSans-67"/>
     <use x="381.693359" xlink:href="#DejaVuSans-20"/>
     <use x="413.480469" xlink:href="#DejaVuSans-74"/>
     <use x="452.689453" xlink:href="#DejaVuSans-69"/>
     <use x="480.472656" xlink:href="#DejaVuSans-6d"/>
     <use x="577.884766" xlink:href="#DejaVuSans-65"/>
     <use x="639.408203" xlink:href="#DejaVuSans-73"/>
     <use x="691.507812" xlink:href="#DejaVuSans-20"/>
     <use x="723.294922" xlink:href="#DejaVuSans-61"/>
     <use x="784.574219" xlink:href="#DejaVuSans-63"/>
     <use x="839.554688" xlink:href="#DejaVuSans-72"/>
     <use x="880.636719" xlink:href="#DejaVuSans-6f"/>
     <use x="941.818359" xlink:href="#DejaVuSans-73"/>
     <use x="993.917969" xlink:href="#DejaVuSans-73"/>
     <use x="1046.017578" xlink:href="#DejaVuSans-20"/>
     <use x="1077.804688" xlink:href="#DejaVuSans-6d"/>
     <use x="1175.216797" xlink:href="#DejaVuSans-75"/>
     <use x="1238.595703" xlink:href="#DejaVuSans-74"/>
     <use x="1277.804688" xlink:href="#DejaVuSans-61"/>
     <use x="1339.083984" xlink:href="#DejaVuSans-74"/>
     <use x="1378.292969" xlink:href="#DejaVuSans-69"/>
     <use x="1406.076172" xlink:href="#DejaVuSans-6f"/>
     <use x="1467.257812" xlink:href="#DejaVuSans-6e"/>
     <use x="1530.636719" xlink:href="#DejaVuSans-73"/>
    </g>
   </g>
   <g id="legend_1">
    <g id="patch_7">
     <path d="M 338.90125 107.94375 
L 381.1 107.94375 
Q 383.3 107.94375 383.3 105.74375 
L 383.3 42.26 
Q 383.3 40.06 381.1 40.06 
L 338.90125 40.06 
Q 336.70125 40.06 336.70125 42.26 
L 336.70125 105.74375 
Q 336.70125 107.94375 338.90125 107.94375 
z
" style="fill:#eaeaf2;opacity:0.8;stroke:#cccccc;stroke-linejoin:miter;"/>
    </g>
    <g id="LineCollection_5">
     <path d="M 352.10125 54.468281 
L 352.10125 43.468281 
" style="fill:none;stroke:#4c72b0;stroke-width:1.5;"/>
    </g>
    <g id="line2d_26">
     <g>
      <use style="fill:#4c72b0;stroke:#4c72b0;" x="352.10125" xlink:href="#mbf87e730bc" y="54.468281"/>
     </g>
    </g>
    <g id="line2d_27">
     <g>
      <use style="fill:#4c72b0;stroke:#4c72b0;" x="352.10125" xlink:href="#mbf87e730bc" y="43.468281"/>
     </g>
    </g>
    <g id="line2d_28">
     <path d="M 341.10125 48.968281 
L 363.10125 48.968281 
" style="fill:none;stroke:#4c72b0;stroke-linecap:round;stroke-width:1.5;"/>
    </g>
    <g id="line2d_29"/>
    <g id="text_17">
     <!-- 1 -->
     <g style="fill:#262626;" transform="translate(371.90125 52.818281)scale(0.11 -0.11)">
      <use xlink:href="#DejaVuSans-31"/>
     </g>
    </g>
    <g id="LineCollection_6">
     <path d="M 352.10125 70.614219 
L 352.10125 59.614219 
" style="fill:none;stroke:#dd8452;stroke-width:1.5;"/>
    </g>
    <g id="line2d_30">
     <g>
      <use style="fill:#dd8452;stroke:#dd8452;" x="352.10125" xlink:href="#m89dbe7eb9b" y="70.614219"/>
     </g>
    </g>
    <g id="line2d_31">
     <g>
      <use style="fill:#dd8452;stroke:#dd8452;" x="352.10125" xlink:href="#m89dbe7eb9b" y="59.614219"/>
     </g>
    </g>
    <g id="line2d_32">
     <path d="M 341.10125 65.114219 
L 363.10125 65.114219 
" style="fill:none;stroke:#dd8452;stroke-linecap:round;stroke-width:1.5;"/>
    </g>
    <g id="line2d_33"/>
    <g id="text_18">
     <!-- 2 -->
     <g style="fill:#262626;" transform="translate(371.90125 68.964219)scale(0.11 -0.11)">
      <use xlink:href="#DejaVuSans-32"/>
     </g>
    </g>
    <g id="LineCollection_7">
     <path d="M 352.10125 86.760156 
L 352.10125 75.760156 
" style="fill:none;stroke:#55a868;stroke-width:1.5;"/>
    </g>
    <g id="line2d_34">
     <g>
      <use style="fill:#55a868;stroke:#55a868;" x="352.10125" xlink:href="#m91eff5b538" y="86.760156"/>
     </g>
    </g>
    <g id="line2d_35">
     <g>
      <use style="fill:#55a868;stroke:#55a868;" x="352.10125" xlink:href="#m91eff5b538" y="75.760156"/>
     </g>
    </g>
    <g id="line2d_36">
     <path d="M 341.10125 81.260156 
L 363.10125 81.260156 
" style="fill:none;stroke:#55a868;stroke-linecap:round;stroke-width:1.5;"/>
    </g>
    <g id="line2d_37"/>
    <g id="text_19">
     <!-- 3 -->
     <defs>
      <path d="M 40.578125 39.3125 
Q 47.65625 37.796875 51.625 33 
Q 55.609375 28.21875 55.609375 21.1875 
Q 55.609375 10.40625 48.1875 4.484375 
Q 40.765625 -1.421875 27.09375 -1.421875 
Q 22.515625 -1.421875 17.65625 -0.515625 
Q 12.796875 0.390625 7.625 2.203125 
L 7.625 11.71875 
Q 11.71875 9.328125 16.59375 8.109375 
Q 21.484375 6.890625 26.8125 6.890625 
Q 36.078125 6.890625 40.9375 10.546875 
Q 45.796875 14.203125 45.796875 21.1875 
Q 45.796875 27.640625 41.28125 31.265625 
Q 36.765625 34.90625 28.71875 34.90625 
L 20.21875 34.90625 
L 20.21875 43.015625 
L 29.109375 43.015625 
Q 36.375 43.015625 40.234375 45.921875 
Q 44.09375 48.828125 44.09375 54.296875 
Q 44.09375 59.90625 40.109375 62.90625 
Q 36.140625 65.921875 28.71875 65.921875 
Q 24.65625 65.921875 20.015625 65.03125 
Q 15.375 64.15625 9.8125 62.3125 
L 9.8125 71.09375 
Q 15.4375 72.65625 20.34375 73.4375 
Q 25.25 74.21875 29.59375 74.21875 
Q 40.828125 74.21875 47.359375 69.109375 
Q 53.90625 64.015625 53.90625 55.328125 
Q 53.90625 49.265625 50.4375 45.09375 
Q 46.96875 40.921875 40.578125 39.3125 
z
" id="DejaVuSans-33"/>
     </defs>
     <g style="fill:#262626;" transform="translate(371.90125 85.110156)scale(0.11 -0.11)">
      <use xlink:href="#DejaVuSans-33"/>
     </g>
    </g>
    <g id="LineCollection_8">
     <path d="M 352.10125 102.906094 
L 352.10125 91.906094 
" style="fill:none;stroke:#c44e52;stroke-width:1.5;"/>
    </g>
    <g id="line2d_38">
     <g>
      <use style="fill:#c44e52;stroke:#c44e52;" x="352.10125" xlink:href="#m7f538adce0" y="102.906094"/>
     </g>
    </g>
    <g id="line2d_39">
     <g>
      <use style="fill:#c44e52;stroke:#c44e52;" x="352.10125" xlink:href="#m7f538adce0" y="91.906094"/>
     </g>
    </g>
    <g id="line2d_40">
     <path d="M 341.10125 97.406094 
L 363.10125 97.406094 
" style="fill:none;stroke:#c44e52;stroke-linecap:round;stroke-width:1.5;"/>
    </g>
    <g id="line2d_41"/>
    <g id="text_20">
     <!-- 4 -->
     <defs>
      <path d="M 37.796875 64.3125 
L 12.890625 25.390625 
L 37.796875 25.390625 
z
M 35.203125 72.90625 
L 47.609375 72.90625 
L 47.609375 25.390625 
L 58.015625 25.390625 
L 58.015625 17.1875 
L 47.609375 17.1875 
L 47.609375 0 
L 37.796875 0 
L 37.796875 17.1875 
L 4.890625 17.1875 
L 4.890625 26.703125 
z
" id="DejaVuSans-34"/>
     </defs>
     <g style="fill:#262626;" transform="translate(371.90125 101.256094)scale(0.11 -0.11)">
      <use xlink:href="#DejaVuSans-34"/>
     </g>
    </g>
   </g>
  </g>
 </g>
 <defs>
  <clipPath id="pad3b49fd99">
   <rect height="217.44" width="334.8" x="54" y="34.56"/>
  </clipPath>
 </defs>
</svg>
