<?xml version="1.0" encoding="utf-8" standalone="no"?>
<!DOCTYPE svg PUBLIC "-//W3C//DTD SVG 1.1//EN"
  "http://www.w3.org/Graphics/SVG/1.1/DTD/svg11.dtd">
<!-- Created with matplotlib (http://matplotlib.org/) -->
<svg height="345.6pt" version="1.1" viewBox="0 0 460.8 345.6" width="460.8pt" xmlns="http://www.w3.org/2000/svg" xmlns:xlink="http://www.w3.org/1999/xlink">
 <defs>
  <style type="text/css">
*{stroke-linecap:butt;stroke-linejoin:round;}
  </style>
 </defs>
 <g id="figure_1">
  <g id="patch_1">
   <path d="M 0 345.6 
L 460.8 345.6 
L 460.8 0 
L 0 0 
z
" style="fill:#ffffff;"/>
  </g>
  <g id="axes_1">
   <g id="patch_2">
    <path d="M 57.6 307.584 
L 414.72 307.584 
L 414.72 41.472 
L 57.6 41.472 
z
" style="fill:#ffffff;"/>
   </g>
   <g id="matplotlib.axis_1">
    <g id="xtick_1">
     <g id="line2d_1">
      <defs>
       <path d="M 0 0 
L 0 4.8 
" id="ma4c6a71cfc" style="stroke:#262626;"/>
      </defs>
      <g>
       <use style="fill:#262626;stroke:#262626;" x="73.832727" xlink:href="#ma4c6a71cfc" y="307.584"/>
      </g>
     </g>
     <g id="text_1">
      <!-- 0 -->
      <defs>
       <path d="M 31.78125 66.40625 
Q 24.171875 66.40625 20.328125 58.90625 
Q 16.5 51.421875 16.5 36.375 
Q 16.5 21.390625 20.328125 13.890625 
Q 24.171875 6.390625 31.78125 6.390625 
Q 39.453125 6.390625 43.28125 13.890625 
Q 47.125 21.390625 47.125 36.375 
Q 47.125 51.421875 43.28125 58.90625 
Q 39.453125 66.40625 31.78125 66.40625 
z
M 31.78125 74.21875 
Q 44.046875 74.21875 50.515625 64.515625 
Q 56.984375 54.828125 56.984375 36.375 
Q 56.984375 17.96875 50.515625 8.265625 
Q 44.046875 -1.421875 31.78125 -1.421875 
Q 19.53125 -1.421875 13.0625 8.265625 
Q 6.59375 17.96875 6.59375 36.375 
Q 6.59375 54.828125 13.0625 64.515625 
Q 19.53125 74.21875 31.78125 74.21875 
z
" id="DejaVuSans-30"/>
      </defs>
      <g style="fill:#262626;" transform="translate(71.033227 322.570625)scale(0.088 -0.088)">
       <use xlink:href="#DejaVuSans-30"/>
      </g>
     </g>
    </g>
    <g id="xtick_2">
     <g id="line2d_2">
      <g>
       <use style="fill:#262626;stroke:#262626;" x="139.419504" xlink:href="#ma4c6a71cfc" y="307.584"/>
      </g>
     </g>
     <g id="text_2">
      <!-- 20 -->
      <defs>
       <path d="M 19.1875 8.296875 
L 53.609375 8.296875 
L 53.609375 0 
L 7.328125 0 
L 7.328125 8.296875 
Q 12.9375 14.109375 22.625 23.890625 
Q 32.328125 33.6875 34.8125 36.53125 
Q 39.546875 41.84375 41.421875 45.53125 
Q 43.3125 49.21875 43.3125 52.78125 
Q 43.3125 58.59375 39.234375 62.25 
Q 35.15625 65.921875 28.609375 65.921875 
Q 23.96875 65.921875 18.8125 64.3125 
Q 13.671875 62.703125 7.8125 59.421875 
L 7.8125 69.390625 
Q 13.765625 71.78125 18.9375 73 
Q 24.125 74.21875 28.421875 74.21875 
Q 39.75 74.21875 46.484375 68.546875 
Q 53.21875 62.890625 53.21875 53.421875 
Q 53.21875 48.921875 51.53125 44.890625 
Q 49.859375 40.875 45.40625 35.40625 
Q 44.1875 33.984375 37.640625 27.21875 
Q 31.109375 20.453125 19.1875 8.296875 
z
" id="DejaVuSans-32"/>
      </defs>
      <g style="fill:#262626;" transform="translate(133.820504 322.570625)scale(0.088 -0.088)">
       <use xlink:href="#DejaVuSans-32"/>
       <use x="63.623047" xlink:href="#DejaVuSans-30"/>
      </g>
     </g>
    </g>
    <g id="xtick_3">
     <g id="line2d_3">
      <g>
       <use style="fill:#262626;stroke:#262626;" x="205.006281" xlink:href="#ma4c6a71cfc" y="307.584"/>
      </g>
     </g>
     <g id="text_3">
      <!-- 40 -->
      <defs>
       <path d="M 37.796875 64.3125 
L 12.890625 25.390625 
L 37.796875 25.390625 
z
M 35.203125 72.90625 
L 47.609375 72.90625 
L 47.609375 25.390625 
L 58.015625 25.390625 
L 58.015625 17.1875 
L 47.609375 17.1875 
L 47.609375 0 
L 37.796875 0 
L 37.796875 17.1875 
L 4.890625 17.1875 
L 4.890625 26.703125 
z
" id="DejaVuSans-34"/>
      </defs>
      <g style="fill:#262626;" transform="translate(199.407281 322.570625)scale(0.088 -0.088)">
       <use xlink:href="#DejaVuSans-34"/>
       <use x="63.623047" xlink:href="#DejaVuSans-30"/>
      </g>
     </g>
    </g>
    <g id="xtick_4">
     <g id="line2d_4">
      <g>
       <use style="fill:#262626;stroke:#262626;" x="270.593058" xlink:href="#ma4c6a71cfc" y="307.584"/>
      </g>
     </g>
     <g id="text_4">
      <!-- 60 -->
      <defs>
       <path d="M 33.015625 40.375 
Q 26.375 40.375 22.484375 35.828125 
Q 18.609375 31.296875 18.609375 23.390625 
Q 18.609375 15.53125 22.484375 10.953125 
Q 26.375 6.390625 33.015625 6.390625 
Q 39.65625 6.390625 43.53125 10.953125 
Q 47.40625 15.53125 47.40625 23.390625 
Q 47.40625 31.296875 43.53125 35.828125 
Q 39.65625 40.375 33.015625 40.375 
z
M 52.59375 71.296875 
L 52.59375 62.3125 
Q 48.875 64.0625 45.09375 64.984375 
Q 41.3125 65.921875 37.59375 65.921875 
Q 27.828125 65.921875 22.671875 59.328125 
Q 17.53125 52.734375 16.796875 39.40625 
Q 19.671875 43.65625 24.015625 45.921875 
Q 28.375 48.1875 33.59375 48.1875 
Q 44.578125 48.1875 50.953125 41.515625 
Q 57.328125 34.859375 57.328125 23.390625 
Q 57.328125 12.15625 50.6875 5.359375 
Q 44.046875 -1.421875 33.015625 -1.421875 
Q 20.359375 -1.421875 13.671875 8.265625 
Q 6.984375 17.96875 6.984375 36.375 
Q 6.984375 53.65625 15.1875 63.9375 
Q 23.390625 74.21875 37.203125 74.21875 
Q 40.921875 74.21875 44.703125 73.484375 
Q 48.484375 72.75 52.59375 71.296875 
z
" id="DejaVuSans-36"/>
      </defs>
      <g style="fill:#262626;" transform="translate(264.994058 322.570625)scale(0.088 -0.088)">
       <use xlink:href="#DejaVuSans-36"/>
       <use x="63.623047" xlink:href="#DejaVuSans-30"/>
      </g>
     </g>
    </g>
    <g id="xtick_5">
     <g id="line2d_5">
      <g>
       <use style="fill:#262626;stroke:#262626;" x="336.179835" xlink:href="#ma4c6a71cfc" y="307.584"/>
      </g>
     </g>
     <g id="text_5">
      <!-- 80 -->
      <defs>
       <path d="M 31.78125 34.625 
Q 24.75 34.625 20.71875 30.859375 
Q 16.703125 27.09375 16.703125 20.515625 
Q 16.703125 13.921875 20.71875 10.15625 
Q 24.75 6.390625 31.78125 6.390625 
Q 38.8125 6.390625 42.859375 10.171875 
Q 46.921875 13.96875 46.921875 20.515625 
Q 46.921875 27.09375 42.890625 30.859375 
Q 38.875 34.625 31.78125 34.625 
z
M 21.921875 38.8125 
Q 15.578125 40.375 12.03125 44.71875 
Q 8.5 49.078125 8.5 55.328125 
Q 8.5 64.0625 14.71875 69.140625 
Q 20.953125 74.21875 31.78125 74.21875 
Q 42.671875 74.21875 48.875 69.140625 
Q 55.078125 64.0625 55.078125 55.328125 
Q 55.078125 49.078125 51.53125 44.71875 
Q 48 40.375 41.703125 38.8125 
Q 48.828125 37.15625 52.796875 32.3125 
Q 56.78125 27.484375 56.78125 20.515625 
Q 56.78125 9.90625 50.3125 4.234375 
Q 43.84375 -1.421875 31.78125 -1.421875 
Q 19.734375 -1.421875 13.25 4.234375 
Q 6.78125 9.90625 6.78125 20.515625 
Q 6.78125 27.484375 10.78125 32.3125 
Q 14.796875 37.15625 21.921875 38.8125 
z
M 18.3125 54.390625 
Q 18.3125 48.734375 21.84375 45.5625 
Q 25.390625 42.390625 31.78125 42.390625 
Q 38.140625 42.390625 41.71875 45.5625 
Q 45.3125 48.734375 45.3125 54.390625 
Q 45.3125 60.0625 41.71875 63.234375 
Q 38.140625 66.40625 31.78125 66.40625 
Q 25.390625 66.40625 21.84375 63.234375 
Q 18.3125 60.0625 18.3125 54.390625 
z
" id="DejaVuSans-38"/>
      </defs>
      <g style="fill:#262626;" transform="translate(330.580835 322.570625)scale(0.088 -0.088)">
       <use xlink:href="#DejaVuSans-38"/>
       <use x="63.623047" xlink:href="#DejaVuSans-30"/>
      </g>
     </g>
    </g>
    <g id="xtick_6">
     <g id="line2d_6">
      <g>
       <use style="fill:#262626;stroke:#262626;" x="401.766612" xlink:href="#ma4c6a71cfc" y="307.584"/>
      </g>
     </g>
     <g id="text_6">
      <!-- 100 -->
      <defs>
       <path d="M 12.40625 8.296875 
L 28.515625 8.296875 
L 28.515625 63.921875 
L 10.984375 60.40625 
L 10.984375 69.390625 
L 28.421875 72.90625 
L 38.28125 72.90625 
L 38.28125 8.296875 
L 54.390625 8.296875 
L 54.390625 0 
L 12.40625 0 
z
" id="DejaVuSans-31"/>
      </defs>
      <g style="fill:#262626;" transform="translate(393.368112 322.570625)scale(0.088 -0.088)">
       <use xlink:href="#DejaVuSans-31"/>
       <use x="63.623047" xlink:href="#DejaVuSans-30"/>
       <use x="127.246094" xlink:href="#DejaVuSans-30"/>
      </g>
     </g>
    </g>
    <g id="text_7">
     <!-- Time (years) -->
     <defs>
      <path d="M -0.296875 72.90625 
L 61.375 72.90625 
L 61.375 64.59375 
L 35.5 64.59375 
L 35.5 0 
L 25.59375 0 
L 25.59375 64.59375 
L -0.296875 64.59375 
z
" id="DejaVuSans-54"/>
      <path d="M 9.421875 54.6875 
L 18.40625 54.6875 
L 18.40625 0 
L 9.421875 0 
z
M 9.421875 75.984375 
L 18.40625 75.984375 
L 18.40625 64.59375 
L 9.421875 64.59375 
z
" id="DejaVuSans-69"/>
      <path d="M 52 44.1875 
Q 55.375 50.25 60.0625 53.125 
Q 64.75 56 71.09375 56 
Q 79.640625 56 84.28125 50.015625 
Q 88.921875 44.046875 88.921875 33.015625 
L 88.921875 0 
L 79.890625 0 
L 79.890625 32.71875 
Q 79.890625 40.578125 77.09375 44.375 
Q 74.3125 48.1875 68.609375 48.1875 
Q 61.625 48.1875 57.5625 43.546875 
Q 53.515625 38.921875 53.515625 30.90625 
L 53.515625 0 
L 44.484375 0 
L 44.484375 32.71875 
Q 44.484375 40.625 41.703125 44.40625 
Q 38.921875 48.1875 33.109375 48.1875 
Q 26.21875 48.1875 22.15625 43.53125 
Q 18.109375 38.875 18.109375 30.90625 
L 18.109375 0 
L 9.078125 0 
L 9.078125 54.6875 
L 18.109375 54.6875 
L 18.109375 46.1875 
Q 21.1875 51.21875 25.484375 53.609375 
Q 29.78125 56 35.6875 56 
Q 41.65625 56 45.828125 52.96875 
Q 50 49.953125 52 44.1875 
z
" id="DejaVuSans-6d"/>
      <path d="M 56.203125 29.59375 
L 56.203125 25.203125 
L 14.890625 25.203125 
Q 15.484375 15.921875 20.484375 11.0625 
Q 25.484375 6.203125 34.421875 6.203125 
Q 39.59375 6.203125 44.453125 7.46875 
Q 49.3125 8.734375 54.109375 11.28125 
L 54.109375 2.78125 
Q 49.265625 0.734375 44.1875 -0.34375 
Q 39.109375 -1.421875 33.890625 -1.421875 
Q 20.796875 -1.421875 13.15625 6.1875 
Q 5.515625 13.8125 5.515625 26.8125 
Q 5.515625 40.234375 12.765625 48.109375 
Q 20.015625 56 32.328125 56 
Q 43.359375 56 49.78125 48.890625 
Q 56.203125 41.796875 56.203125 29.59375 
z
M 47.21875 32.234375 
Q 47.125 39.59375 43.09375 43.984375 
Q 39.0625 48.390625 32.421875 48.390625 
Q 24.90625 48.390625 20.390625 44.140625 
Q 15.875 39.890625 15.1875 32.171875 
z
" id="DejaVuSans-65"/>
      <path id="DejaVuSans-20"/>
      <path d="M 31 75.875 
Q 24.46875 64.65625 21.28125 53.65625 
Q 18.109375 42.671875 18.109375 31.390625 
Q 18.109375 20.125 21.3125 9.0625 
Q 24.515625 -2 31 -13.1875 
L 23.1875 -13.1875 
Q 15.875 -1.703125 12.234375 9.375 
Q 8.59375 20.453125 8.59375 31.390625 
Q 8.59375 42.28125 12.203125 53.3125 
Q 15.828125 64.359375 23.1875 75.875 
z
" id="DejaVuSans-28"/>
      <path d="M 32.171875 -5.078125 
Q 28.375 -14.84375 24.75 -17.8125 
Q 21.140625 -20.796875 15.09375 -20.796875 
L 7.90625 -20.796875 
L 7.90625 -13.28125 
L 13.1875 -13.28125 
Q 16.890625 -13.28125 18.9375 -11.515625 
Q 21 -9.765625 23.484375 -3.21875 
L 25.09375 0.875 
L 2.984375 54.6875 
L 12.5 54.6875 
L 29.59375 11.921875 
L 46.6875 54.6875 
L 56.203125 54.6875 
z
" id="DejaVuSans-79"/>
      <path d="M 34.28125 27.484375 
Q 23.390625 27.484375 19.1875 25 
Q 14.984375 22.515625 14.984375 16.5 
Q 14.984375 11.71875 18.140625 8.90625 
Q 21.296875 6.109375 26.703125 6.109375 
Q 34.1875 6.109375 38.703125 11.40625 
Q 43.21875 16.703125 43.21875 25.484375 
L 43.21875 27.484375 
z
M 52.203125 31.203125 
L 52.203125 0 
L 43.21875 0 
L 43.21875 8.296875 
Q 40.140625 3.328125 35.546875 0.953125 
Q 30.953125 -1.421875 24.3125 -1.421875 
Q 15.921875 -1.421875 10.953125 3.296875 
Q 6 8.015625 6 15.921875 
Q 6 25.140625 12.171875 29.828125 
Q 18.359375 34.515625 30.609375 34.515625 
L 43.21875 34.515625 
L 43.21875 35.40625 
Q 43.21875 41.609375 39.140625 45 
Q 35.0625 48.390625 27.6875 48.390625 
Q 23 48.390625 18.546875 47.265625 
Q 14.109375 46.140625 10.015625 43.890625 
L 10.015625 52.203125 
Q 14.9375 54.109375 19.578125 55.046875 
Q 24.21875 56 28.609375 56 
Q 40.484375 56 46.34375 49.84375 
Q 52.203125 43.703125 52.203125 31.203125 
z
" id="DejaVuSans-61"/>
      <path d="M 41.109375 46.296875 
Q 39.59375 47.171875 37.8125 47.578125 
Q 36.03125 48 33.890625 48 
Q 26.265625 48 22.1875 43.046875 
Q 18.109375 38.09375 18.109375 28.8125 
L 18.109375 0 
L 9.078125 0 
L 9.078125 54.6875 
L 18.109375 54.6875 
L 18.109375 46.1875 
Q 20.953125 51.171875 25.484375 53.578125 
Q 30.03125 56 36.53125 56 
Q 37.453125 56 38.578125 55.875 
Q 39.703125 55.765625 41.0625 55.515625 
z
" id="DejaVuSans-72"/>
      <path d="M 44.28125 53.078125 
L 44.28125 44.578125 
Q 40.484375 46.53125 36.375 47.5 
Q 32.28125 48.484375 27.875 48.484375 
Q 21.1875 48.484375 17.84375 46.4375 
Q 14.5 44.390625 14.5 40.28125 
Q 14.5 37.15625 16.890625 35.375 
Q 19.28125 33.59375 26.515625 31.984375 
L 29.59375 31.296875 
Q 39.15625 29.25 43.1875 25.515625 
Q 47.21875 21.78125 47.21875 15.09375 
Q 47.21875 7.46875 41.1875 3.015625 
Q 35.15625 -1.421875 24.609375 -1.421875 
Q 20.21875 -1.421875 15.453125 -0.5625 
Q 10.6875 0.296875 5.421875 2 
L 5.421875 11.28125 
Q 10.40625 8.6875 15.234375 7.390625 
Q 20.0625 6.109375 24.8125 6.109375 
Q 31.15625 6.109375 34.5625 8.28125 
Q 37.984375 10.453125 37.984375 14.40625 
Q 37.984375 18.0625 35.515625 20.015625 
Q 33.0625 21.96875 24.703125 23.78125 
L 21.578125 24.515625 
Q 13.234375 26.265625 9.515625 29.90625 
Q 5.8125 33.546875 5.8125 39.890625 
Q 5.8125 47.609375 11.28125 51.796875 
Q 16.75 56 26.8125 56 
Q 31.78125 56 36.171875 55.265625 
Q 40.578125 54.546875 44.28125 53.078125 
z
" id="DejaVuSans-73"/>
      <path d="M 8.015625 75.875 
L 15.828125 75.875 
Q 23.140625 64.359375 26.78125 53.3125 
Q 30.421875 42.28125 30.421875 31.390625 
Q 30.421875 20.453125 26.78125 9.375 
Q 23.140625 -1.703125 15.828125 -13.1875 
L 8.015625 -13.1875 
Q 14.5 -2 17.703125 9.0625 
Q 20.90625 20.125 20.90625 31.390625 
Q 20.90625 42.671875 17.703125 53.65625 
Q 14.5 64.65625 8.015625 75.875 
z
" id="DejaVuSans-29"/>
     </defs>
     <g style="fill:#262626;" transform="translate(205.78725 335.69525)scale(0.096 -0.096)">
      <use xlink:href="#DejaVuSans-54"/>
      <use x="61.037109" xlink:href="#DejaVuSans-69"/>
      <use x="88.820312" xlink:href="#DejaVuSans-6d"/>
      <use x="186.232422" xlink:href="#DejaVuSans-65"/>
      <use x="247.755859" xlink:href="#DejaVuSans-20"/>
      <use x="279.542969" xlink:href="#DejaVuSans-28"/>
      <use x="318.556641" xlink:href="#DejaVuSans-79"/>
      <use x="377.736328" xlink:href="#DejaVuSans-65"/>
      <use x="439.259766" xlink:href="#DejaVuSans-61"/>
      <use x="500.539062" xlink:href="#DejaVuSans-72"/>
      <use x="541.652344" xlink:href="#DejaVuSans-73"/>
      <use x="593.751953" xlink:href="#DejaVuSans-29"/>
     </g>
    </g>
   </g>
   <g id="matplotlib.axis_2">
    <g id="ytick_1">
     <g id="line2d_7">
      <defs>
       <path d="M 0 0 
L -4.8 0 
" id="m0566da7f08" style="stroke:#262626;"/>
      </defs>
      <g>
       <use style="fill:#262626;stroke:#262626;" x="57.6" xlink:href="#m0566da7f08" y="295.490236"/>
      </g>
     </g>
     <g id="text_8">
      <!-- $\mathdefault{10^{0}}$ -->
      <g style="fill:#262626;" transform="translate(33.812 298.833549)scale(0.088 -0.088)">
       <use transform="translate(0 0.765625)" xlink:href="#DejaVuSans-31"/>
       <use transform="translate(63.623047 0.765625)" xlink:href="#DejaVuSans-30"/>
       <use transform="translate(128.203125 39.046875)scale(0.7)" xlink:href="#DejaVuSans-30"/>
      </g>
     </g>
    </g>
    <g id="ytick_2">
     <g id="line2d_8">
      <g>
       <use style="fill:#262626;stroke:#262626;" x="57.6" xlink:href="#m0566da7f08" y="244.006137"/>
      </g>
     </g>
     <g id="text_9">
      <!-- $\mathdefault{10^{1}}$ -->
      <g style="fill:#262626;" transform="translate(33.812 247.34945)scale(0.088 -0.088)">
       <use transform="translate(0 0.684375)" xlink:href="#DejaVuSans-31"/>
       <use transform="translate(63.623047 0.684375)" xlink:href="#DejaVuSans-30"/>
       <use transform="translate(128.203125 38.965625)scale(0.7)" xlink:href="#DejaVuSans-31"/>
      </g>
     </g>
    </g>
    <g id="ytick_3">
     <g id="line2d_9">
      <g>
       <use style="fill:#262626;stroke:#262626;" x="57.6" xlink:href="#m0566da7f08" y="192.522038"/>
      </g>
     </g>
     <g id="text_10">
      <!-- $\mathdefault{10^{2}}$ -->
      <g style="fill:#262626;" transform="translate(33.812 195.865351)scale(0.088 -0.088)">
       <use transform="translate(0 0.765625)" xlink:href="#DejaVuSans-31"/>
       <use transform="translate(63.623047 0.765625)" xlink:href="#DejaVuSans-30"/>
       <use transform="translate(128.203125 39.046875)scale(0.7)" xlink:href="#DejaVuSans-32"/>
      </g>
     </g>
    </g>
    <g id="ytick_4">
     <g id="line2d_10">
      <g>
       <use style="fill:#262626;stroke:#262626;" x="57.6" xlink:href="#m0566da7f08" y="141.03794"/>
      </g>
     </g>
     <g id="text_11">
      <!-- $\mathdefault{10^{3}}$ -->
      <defs>
       <path d="M 40.578125 39.3125 
Q 47.65625 37.796875 51.625 33 
Q 55.609375 28.21875 55.609375 21.1875 
Q 55.609375 10.40625 48.1875 4.484375 
Q 40.765625 -1.421875 27.09375 -1.421875 
Q 22.515625 -1.421875 17.65625 -0.515625 
Q 12.796875 0.390625 7.625 2.203125 
L 7.625 11.71875 
Q 11.71875 9.328125 16.59375 8.109375 
Q 21.484375 6.890625 26.8125 6.890625 
Q 36.078125 6.890625 40.9375 10.546875 
Q 45.796875 14.203125 45.796875 21.1875 
Q 45.796875 27.640625 41.28125 31.265625 
Q 36.765625 34.90625 28.71875 34.90625 
L 20.21875 34.90625 
L 20.21875 43.015625 
L 29.109375 43.015625 
Q 36.375 43.015625 40.234375 45.921875 
Q 44.09375 48.828125 44.09375 54.296875 
Q 44.09375 59.90625 40.109375 62.90625 
Q 36.140625 65.921875 28.71875 65.921875 
Q 24.65625 65.921875 20.015625 65.03125 
Q 15.375 64.15625 9.8125 62.3125 
L 9.8125 71.09375 
Q 15.4375 72.65625 20.34375 73.4375 
Q 25.25 74.21875 29.59375 74.21875 
Q 40.828125 74.21875 47.359375 69.109375 
Q 53.90625 64.015625 53.90625 55.328125 
Q 53.90625 49.265625 50.4375 45.09375 
Q 46.96875 40.921875 40.578125 39.3125 
z
" id="DejaVuSans-33"/>
      </defs>
      <g style="fill:#262626;" transform="translate(33.812 144.381252)scale(0.088 -0.088)">
       <use transform="translate(0 0.765625)" xlink:href="#DejaVuSans-31"/>
       <use transform="translate(63.623047 0.765625)" xlink:href="#DejaVuSans-30"/>
       <use transform="translate(128.203125 39.046875)scale(0.7)" xlink:href="#DejaVuSans-33"/>
      </g>
     </g>
    </g>
    <g id="ytick_5">
     <g id="line2d_11">
      <g>
       <use style="fill:#262626;stroke:#262626;" x="57.6" xlink:href="#m0566da7f08" y="89.553841"/>
      </g>
     </g>
     <g id="text_12">
      <!-- $\mathdefault{10^{4}}$ -->
      <g style="fill:#262626;" transform="translate(33.812 92.897153)scale(0.088 -0.088)">
       <use transform="translate(0 0.684375)" xlink:href="#DejaVuSans-31"/>
       <use transform="translate(63.623047 0.684375)" xlink:href="#DejaVuSans-30"/>
       <use transform="translate(128.203125 38.965625)scale(0.7)" xlink:href="#DejaVuSans-34"/>
      </g>
     </g>
    </g>
    <g id="ytick_6">
     <g id="line2d_12">
      <defs>
       <path d="M 0 0 
L -3.2 0 
" id="m24bc3e102e" style="stroke:#262626;stroke-width:0.8;"/>
      </defs>
      <g>
       <use style="fill:#262626;stroke:#262626;stroke-width:0.8;" x="57.6" xlink:href="#m24bc3e102e" y="306.911919"/>
      </g>
     </g>
    </g>
    <g id="ytick_7">
     <g id="line2d_13">
      <g>
       <use style="fill:#262626;stroke:#262626;stroke-width:0.8;" x="57.6" xlink:href="#m24bc3e102e" y="303.465224"/>
      </g>
     </g>
    </g>
    <g id="ytick_8">
     <g id="line2d_14">
      <g>
       <use style="fill:#262626;stroke:#262626;stroke-width:0.8;" x="57.6" xlink:href="#m24bc3e102e" y="300.479561"/>
      </g>
     </g>
    </g>
    <g id="ytick_9">
     <g id="line2d_15">
      <g>
       <use style="fill:#262626;stroke:#262626;stroke-width:0.8;" x="57.6" xlink:href="#m24bc3e102e" y="297.846019"/>
      </g>
     </g>
    </g>
    <g id="ytick_10">
     <g id="line2d_16">
      <g>
       <use style="fill:#262626;stroke:#262626;stroke-width:0.8;" x="57.6" xlink:href="#m24bc3e102e" y="279.991978"/>
      </g>
     </g>
    </g>
    <g id="ytick_11">
     <g id="line2d_17">
      <g>
       <use style="fill:#262626;stroke:#262626;stroke-width:0.8;" x="57.6" xlink:href="#m24bc3e102e" y="270.926078"/>
      </g>
     </g>
    </g>
    <g id="ytick_12">
     <g id="line2d_18">
      <g>
       <use style="fill:#262626;stroke:#262626;stroke-width:0.8;" x="57.6" xlink:href="#m24bc3e102e" y="264.49372"/>
      </g>
     </g>
    </g>
    <g id="ytick_13">
     <g id="line2d_19">
      <g>
       <use style="fill:#262626;stroke:#262626;stroke-width:0.8;" x="57.6" xlink:href="#m24bc3e102e" y="259.504395"/>
      </g>
     </g>
    </g>
    <g id="ytick_14">
     <g id="line2d_20">
      <g>
       <use style="fill:#262626;stroke:#262626;stroke-width:0.8;" x="57.6" xlink:href="#m24bc3e102e" y="255.42782"/>
      </g>
     </g>
    </g>
    <g id="ytick_15">
     <g id="line2d_21">
      <g>
       <use style="fill:#262626;stroke:#262626;stroke-width:0.8;" x="57.6" xlink:href="#m24bc3e102e" y="251.981125"/>
      </g>
     </g>
    </g>
    <g id="ytick_16">
     <g id="line2d_22">
      <g>
       <use style="fill:#262626;stroke:#262626;stroke-width:0.8;" x="57.6" xlink:href="#m24bc3e102e" y="248.995462"/>
      </g>
     </g>
    </g>
    <g id="ytick_17">
     <g id="line2d_23">
      <g>
       <use style="fill:#262626;stroke:#262626;stroke-width:0.8;" x="57.6" xlink:href="#m24bc3e102e" y="246.36192"/>
      </g>
     </g>
    </g>
    <g id="ytick_18">
     <g id="line2d_24">
      <g>
       <use style="fill:#262626;stroke:#262626;stroke-width:0.8;" x="57.6" xlink:href="#m24bc3e102e" y="228.507879"/>
      </g>
     </g>
    </g>
    <g id="ytick_19">
     <g id="line2d_25">
      <g>
       <use style="fill:#262626;stroke:#262626;stroke-width:0.8;" x="57.6" xlink:href="#m24bc3e102e" y="219.441979"/>
      </g>
     </g>
    </g>
    <g id="ytick_20">
     <g id="line2d_26">
      <g>
       <use style="fill:#262626;stroke:#262626;stroke-width:0.8;" x="57.6" xlink:href="#m24bc3e102e" y="213.009621"/>
      </g>
     </g>
    </g>
    <g id="ytick_21">
     <g id="line2d_27">
      <g>
       <use style="fill:#262626;stroke:#262626;stroke-width:0.8;" x="57.6" xlink:href="#m24bc3e102e" y="208.020296"/>
      </g>
     </g>
    </g>
    <g id="ytick_22">
     <g id="line2d_28">
      <g>
       <use style="fill:#262626;stroke:#262626;stroke-width:0.8;" x="57.6" xlink:href="#m24bc3e102e" y="203.943721"/>
      </g>
     </g>
    </g>
    <g id="ytick_23">
     <g id="line2d_29">
      <g>
       <use style="fill:#262626;stroke:#262626;stroke-width:0.8;" x="57.6" xlink:href="#m24bc3e102e" y="200.497026"/>
      </g>
     </g>
    </g>
    <g id="ytick_24">
     <g id="line2d_30">
      <g>
       <use style="fill:#262626;stroke:#262626;stroke-width:0.8;" x="57.6" xlink:href="#m24bc3e102e" y="197.511363"/>
      </g>
     </g>
    </g>
    <g id="ytick_25">
     <g id="line2d_31">
      <g>
       <use style="fill:#262626;stroke:#262626;stroke-width:0.8;" x="57.6" xlink:href="#m24bc3e102e" y="194.877822"/>
      </g>
     </g>
    </g>
    <g id="ytick_26">
     <g id="line2d_32">
      <g>
       <use style="fill:#262626;stroke:#262626;stroke-width:0.8;" x="57.6" xlink:href="#m24bc3e102e" y="177.02378"/>
      </g>
     </g>
    </g>
    <g id="ytick_27">
     <g id="line2d_33">
      <g>
       <use style="fill:#262626;stroke:#262626;stroke-width:0.8;" x="57.6" xlink:href="#m24bc3e102e" y="167.957881"/>
      </g>
     </g>
    </g>
    <g id="ytick_28">
     <g id="line2d_34">
      <g>
       <use style="fill:#262626;stroke:#262626;stroke-width:0.8;" x="57.6" xlink:href="#m24bc3e102e" y="161.525522"/>
      </g>
     </g>
    </g>
    <g id="ytick_29">
     <g id="line2d_35">
      <g>
       <use style="fill:#262626;stroke:#262626;stroke-width:0.8;" x="57.6" xlink:href="#m24bc3e102e" y="156.536198"/>
      </g>
     </g>
    </g>
    <g id="ytick_30">
     <g id="line2d_36">
      <g>
       <use style="fill:#262626;stroke:#262626;stroke-width:0.8;" x="57.6" xlink:href="#m24bc3e102e" y="152.459623"/>
      </g>
     </g>
    </g>
    <g id="ytick_31">
     <g id="line2d_37">
      <g>
       <use style="fill:#262626;stroke:#262626;stroke-width:0.8;" x="57.6" xlink:href="#m24bc3e102e" y="149.012927"/>
      </g>
     </g>
    </g>
    <g id="ytick_32">
     <g id="line2d_38">
      <g>
       <use style="fill:#262626;stroke:#262626;stroke-width:0.8;" x="57.6" xlink:href="#m24bc3e102e" y="146.027264"/>
      </g>
     </g>
    </g>
    <g id="ytick_33">
     <g id="line2d_39">
      <g>
       <use style="fill:#262626;stroke:#262626;stroke-width:0.8;" x="57.6" xlink:href="#m24bc3e102e" y="143.393723"/>
      </g>
     </g>
    </g>
    <g id="ytick_34">
     <g id="line2d_40">
      <g>
       <use style="fill:#262626;stroke:#262626;stroke-width:0.8;" x="57.6" xlink:href="#m24bc3e102e" y="125.539682"/>
      </g>
     </g>
    </g>
    <g id="ytick_35">
     <g id="line2d_41">
      <g>
       <use style="fill:#262626;stroke:#262626;stroke-width:0.8;" x="57.6" xlink:href="#m24bc3e102e" y="116.473782"/>
      </g>
     </g>
    </g>
    <g id="ytick_36">
     <g id="line2d_42">
      <g>
       <use style="fill:#262626;stroke:#262626;stroke-width:0.8;" x="57.6" xlink:href="#m24bc3e102e" y="110.041424"/>
      </g>
     </g>
    </g>
    <g id="ytick_37">
     <g id="line2d_43">
      <g>
       <use style="fill:#262626;stroke:#262626;stroke-width:0.8;" x="57.6" xlink:href="#m24bc3e102e" y="105.052099"/>
      </g>
     </g>
    </g>
    <g id="ytick_38">
     <g id="line2d_44">
      <g>
       <use style="fill:#262626;stroke:#262626;stroke-width:0.8;" x="57.6" xlink:href="#m24bc3e102e" y="100.975524"/>
      </g>
     </g>
    </g>
    <g id="ytick_39">
     <g id="line2d_45">
      <g>
       <use style="fill:#262626;stroke:#262626;stroke-width:0.8;" x="57.6" xlink:href="#m24bc3e102e" y="97.528829"/>
      </g>
     </g>
    </g>
    <g id="ytick_40">
     <g id="line2d_46">
      <g>
       <use style="fill:#262626;stroke:#262626;stroke-width:0.8;" x="57.6" xlink:href="#m24bc3e102e" y="94.543165"/>
      </g>
     </g>
    </g>
    <g id="ytick_41">
     <g id="line2d_47">
      <g>
       <use style="fill:#262626;stroke:#262626;stroke-width:0.8;" x="57.6" xlink:href="#m24bc3e102e" y="91.909624"/>
      </g>
     </g>
    </g>
    <g id="ytick_42">
     <g id="line2d_48">
      <g>
       <use style="fill:#262626;stroke:#262626;stroke-width:0.8;" x="57.6" xlink:href="#m24bc3e102e" y="74.055583"/>
      </g>
     </g>
    </g>
    <g id="ytick_43">
     <g id="line2d_49">
      <g>
       <use style="fill:#262626;stroke:#262626;stroke-width:0.8;" x="57.6" xlink:href="#m24bc3e102e" y="64.989683"/>
      </g>
     </g>
    </g>
    <g id="ytick_44">
     <g id="line2d_50">
      <g>
       <use style="fill:#262626;stroke:#262626;stroke-width:0.8;" x="57.6" xlink:href="#m24bc3e102e" y="58.557325"/>
      </g>
     </g>
    </g>
    <g id="ytick_45">
     <g id="line2d_51">
      <g>
       <use style="fill:#262626;stroke:#262626;stroke-width:0.8;" x="57.6" xlink:href="#m24bc3e102e" y="53.568"/>
      </g>
     </g>
    </g>
    <g id="ytick_46">
     <g id="line2d_52">
      <g>
       <use style="fill:#262626;stroke:#262626;stroke-width:0.8;" x="57.6" xlink:href="#m24bc3e102e" y="49.491425"/>
      </g>
     </g>
    </g>
    <g id="ytick_47">
     <g id="line2d_53">
      <g>
       <use style="fill:#262626;stroke:#262626;stroke-width:0.8;" x="57.6" xlink:href="#m24bc3e102e" y="46.04473"/>
      </g>
     </g>
    </g>
    <g id="ytick_48">
     <g id="line2d_54">
      <g>
       <use style="fill:#262626;stroke:#262626;stroke-width:0.8;" x="57.6" xlink:href="#m24bc3e102e" y="43.059067"/>
      </g>
     </g>
    </g>
    <g id="text_13">
     <!-- Crude incidence -->
     <defs>
      <path d="M 64.40625 67.28125 
L 64.40625 56.890625 
Q 59.421875 61.53125 53.78125 63.8125 
Q 48.140625 66.109375 41.796875 66.109375 
Q 29.296875 66.109375 22.65625 58.46875 
Q 16.015625 50.828125 16.015625 36.375 
Q 16.015625 21.96875 22.65625 14.328125 
Q 29.296875 6.6875 41.796875 6.6875 
Q 48.140625 6.6875 53.78125 8.984375 
Q 59.421875 11.28125 64.40625 15.921875 
L 64.40625 5.609375 
Q 59.234375 2.09375 53.4375 0.328125 
Q 47.65625 -1.421875 41.21875 -1.421875 
Q 24.65625 -1.421875 15.125 8.703125 
Q 5.609375 18.84375 5.609375 36.375 
Q 5.609375 53.953125 15.125 64.078125 
Q 24.65625 74.21875 41.21875 74.21875 
Q 47.75 74.21875 53.53125 72.484375 
Q 59.328125 70.75 64.40625 67.28125 
z
" id="DejaVuSans-43"/>
      <path d="M 8.5 21.578125 
L 8.5 54.6875 
L 17.484375 54.6875 
L 17.484375 21.921875 
Q 17.484375 14.15625 20.5 10.265625 
Q 23.53125 6.390625 29.59375 6.390625 
Q 36.859375 6.390625 41.078125 11.03125 
Q 45.3125 15.671875 45.3125 23.6875 
L 45.3125 54.6875 
L 54.296875 54.6875 
L 54.296875 0 
L 45.3125 0 
L 45.3125 8.40625 
Q 42.046875 3.421875 37.71875 1 
Q 33.40625 -1.421875 27.6875 -1.421875 
Q 18.265625 -1.421875 13.375 4.4375 
Q 8.5 10.296875 8.5 21.578125 
z
M 31.109375 56 
z
" id="DejaVuSans-75"/>
      <path d="M 45.40625 46.390625 
L 45.40625 75.984375 
L 54.390625 75.984375 
L 54.390625 0 
L 45.40625 0 
L 45.40625 8.203125 
Q 42.578125 3.328125 38.25 0.953125 
Q 33.9375 -1.421875 27.875 -1.421875 
Q 17.96875 -1.421875 11.734375 6.484375 
Q 5.515625 14.40625 5.515625 27.296875 
Q 5.515625 40.1875 11.734375 48.09375 
Q 17.96875 56 27.875 56 
Q 33.9375 56 38.25 53.625 
Q 42.578125 51.265625 45.40625 46.390625 
z
M 14.796875 27.296875 
Q 14.796875 17.390625 18.875 11.75 
Q 22.953125 6.109375 30.078125 6.109375 
Q 37.203125 6.109375 41.296875 11.75 
Q 45.40625 17.390625 45.40625 27.296875 
Q 45.40625 37.203125 41.296875 42.84375 
Q 37.203125 48.484375 30.078125 48.484375 
Q 22.953125 48.484375 18.875 42.84375 
Q 14.796875 37.203125 14.796875 27.296875 
z
" id="DejaVuSans-64"/>
      <path d="M 54.890625 33.015625 
L 54.890625 0 
L 45.90625 0 
L 45.90625 32.71875 
Q 45.90625 40.484375 42.875 44.328125 
Q 39.84375 48.1875 33.796875 48.1875 
Q 26.515625 48.1875 22.3125 43.546875 
Q 18.109375 38.921875 18.109375 30.90625 
L 18.109375 0 
L 9.078125 0 
L 9.078125 54.6875 
L 18.109375 54.6875 
L 18.109375 46.1875 
Q 21.34375 51.125 25.703125 53.5625 
Q 30.078125 56 35.796875 56 
Q 45.21875 56 50.046875 50.171875 
Q 54.890625 44.34375 54.890625 33.015625 
z
" id="DejaVuSans-6e"/>
      <path d="M 48.78125 52.59375 
L 48.78125 44.1875 
Q 44.96875 46.296875 41.140625 47.34375 
Q 37.3125 48.390625 33.40625 48.390625 
Q 24.65625 48.390625 19.8125 42.84375 
Q 14.984375 37.3125 14.984375 27.296875 
Q 14.984375 17.28125 19.8125 11.734375 
Q 24.65625 6.203125 33.40625 6.203125 
Q 37.3125 6.203125 41.140625 7.25 
Q 44.96875 8.296875 48.78125 10.40625 
L 48.78125 2.09375 
Q 45.015625 0.34375 40.984375 -0.53125 
Q 36.96875 -1.421875 32.421875 -1.421875 
Q 20.0625 -1.421875 12.78125 6.34375 
Q 5.515625 14.109375 5.515625 27.296875 
Q 5.515625 40.671875 12.859375 48.328125 
Q 20.21875 56 33.015625 56 
Q 37.15625 56 41.109375 55.140625 
Q 45.0625 54.296875 48.78125 52.59375 
z
" id="DejaVuSans-63"/>
     </defs>
     <g style="fill:#262626;" transform="translate(27.8155 213.405)rotate(-90)scale(0.096 -0.096)">
      <use xlink:href="#DejaVuSans-43"/>
      <use x="69.824219" xlink:href="#DejaVuSans-72"/>
      <use x="110.9375" xlink:href="#DejaVuSans-75"/>
      <use x="174.316406" xlink:href="#DejaVuSans-64"/>
      <use x="237.792969" xlink:href="#DejaVuSans-65"/>
      <use x="299.316406" xlink:href="#DejaVuSans-20"/>
      <use x="331.103516" xlink:href="#DejaVuSans-69"/>
      <use x="358.886719" xlink:href="#DejaVuSans-6e"/>
      <use x="422.265625" xlink:href="#DejaVuSans-63"/>
      <use x="477.246094" xlink:href="#DejaVuSans-69"/>
      <use x="505.029297" xlink:href="#DejaVuSans-64"/>
      <use x="568.505859" xlink:href="#DejaVuSans-65"/>
      <use x="630.029297" xlink:href="#DejaVuSans-6e"/>
      <use x="693.408203" xlink:href="#DejaVuSans-63"/>
      <use x="748.388672" xlink:href="#DejaVuSans-65"/>
     </g>
    </g>
   </g>
   <g id="line2d_55">
    <path clip-path="url(#p85114b57aa)" style="fill:none;stroke:#471365;stroke-linecap:round;stroke-width:1.2;"/>
   </g>
   <g id="line2d_56">
    <path clip-path="url(#p85114b57aa)" d="M 395.204678 346.6 
L 395.207934 295.488 
L 395.21119 346.6 
" style="fill:none;stroke:#482374;stroke-linecap:round;stroke-width:1.2;"/>
   </g>
   <g id="line2d_57">
    <path clip-path="url(#p85114b57aa)" d="M 329.617901 346.6 
L 329.621157 295.488 
L 329.624413 346.6 
M 346.014595 346.6 
L 346.017851 295.485764 
L 346.021107 346.6 
M 355.851626 346.6 
L 355.855868 279.983033 
L 355.86011 346.6 
M 365.689642 346.6 
L 365.693884 279.978558 
L 368.973223 270.905946 
L 368.978042 346.6 
M 378.806997 346.6 
L 378.81124 279.967369 
L 378.815483 346.6 
M 385.365098 346.6 
L 385.369917 270.894753 
L 388.649256 270.888035 
L 391.928595 279.949455 
L 391.932839 346.6 
M 398.481726 346.6 
L 398.487273 259.450669 
" style="fill:none;stroke:#46327e;stroke-linecap:round;stroke-width:1.2;"/>
   </g>
   <g id="line2d_58">
    <path clip-path="url(#p85114b57aa)" d="M 283.706172 346.6 
L 283.710413 279.987506 
L 283.714655 346.6 
M 290.264272 346.6 
L 290.269091 270.914896 
L 290.273909 346.6 
M 300.103851 346.6 
L 300.107107 295.476816 
L 303.386446 279.974083 
L 306.665785 279.969608 
L 309.945124 279.965131 
L 313.224463 295.46115 
L 316.503802 264.455677 
L 319.78314 270.881315 
L 323.062479 259.448427 
L 326.341818 264.428784 
L 329.621157 246.276793 
L 332.900496 259.408043 
L 336.179835 270.822988 
L 339.459174 264.381643 
L 342.738512 246.22961 
L 346.017851 259.360836 
L 349.29719 255.270755 
L 352.576529 243.826544 
L 355.855868 237.930952 
L 359.135207 230.614087 
L 362.414545 234.656721 
L 365.693884 231.819637 
L 368.973223 229.289573 
L 372.252562 227.004002 
L 375.531901 218.960582 
L 378.81124 216.753998 
L 382.090579 211.265308 
L 385.369917 212.26394 
L 388.649256 207.612769 
L 391.928595 204.901826 
L 395.207934 206.034096 
L 398.487273 208.183823 
" style="fill:none;stroke:#424086;stroke-linecap:round;stroke-width:1.2;"/>
   </g>
   <g id="line2d_59">
    <path clip-path="url(#p85114b57aa)" d="M 224.679058 346.6 
L 224.682314 295.488 
L 224.68557 346.6 
M 231.237736 346.6 
L 231.240992 295.485764 
L 231.244248 346.6 
M 241.074766 346.6 
L 241.079008 279.983033 
L 241.08325 346.6 
M 247.63443 346.6 
L 247.637686 295.479054 
L 250.917025 270.908184 
L 254.196364 270.901469 
L 257.475702 264.460156 
L 260.755041 295.454433 
L 264.03438 270.883555 
L 267.313719 259.450669 
L 270.593058 251.911704 
L 273.872397 241.780965 
L 277.151736 241.756253 
L 280.431074 236.332556 
L 283.710413 241.699986 
L 286.989752 233.286033 
L 290.269091 230.611826 
L 293.54843 220.669367 
L 296.827769 230.507565 
L 300.107107 228.1063 
L 303.386446 214.266816 
L 306.665785 216.749413 
L 309.945124 212.35622 
L 313.224463 207.705518 
L 316.503802 202.300145 
L 319.78314 199.422989 
L 323.062479 200.24465 
L 326.341818 205.788388 
L 329.621157 200.300351 
L 332.900496 192.408753 
L 336.179835 191.465687 
L 339.459174 185.621881 
L 342.738512 181.269563 
L 346.017851 183.687985 
L 349.29719 178.633016 
L 352.576529 180.453727 
L 355.855868 179.447588 
L 359.135207 175.903036 
L 362.414545 171.277382 
L 365.693884 172.921225 
L 368.973223 168.1081 
L 372.252562 166.622529 
L 375.531901 164.638589 
L 378.81124 160.912365 
L 382.090579 160.22664 
L 385.369917 158.178497 
L 388.649256 156.871745 
L 391.928595 156.31466 
L 395.207934 155.48996 
L 398.487273 150.754731 
" style="fill:none;stroke:#3d4e8a;stroke-linecap:round;stroke-width:1.2;"/>
   </g>
   <g id="line2d_60">
    <path clip-path="url(#p85114b57aa)" d="M 198.444348 346.6 
L 198.447603 295.488 
L 201.726942 295.485764 
L 205.006281 295.483527 
L 208.28562 295.481291 
L 211.564959 295.479054 
L 214.844298 255.403211 
L 218.123636 270.894753 
L 221.402975 264.453437 
L 224.682314 248.937252 
L 227.961653 241.792189 
L 231.240992 227.286906 
L 234.520331 230.693083 
L 237.799669 234.735837 
L 241.079008 234.701964 
L 244.358347 216.328183 
L 247.637686 221.42121 
L 250.917025 207.983762 
L 254.196364 204.471707 
L 257.475702 207.286171 
L 260.755041 198.966039 
L 264.03438 197.579514 
L 267.313719 194.876769 
L 270.593058 195.211782 
L 273.872397 189.275745 
L 277.151736 184.432156 
L 280.431074 183.426306 
L 283.710413 182.100468 
L 286.989752 175.928568 
L 290.269091 175.080468 
L 293.54843 174.464047 
L 296.827769 168.108298 
L 300.107107 168.312225 
L 303.386446 164.646799 
L 306.665785 164.210036 
L 309.945124 159.600529 
L 313.224463 156.90131 
L 316.503802 153.84291 
L 319.78314 155.434103 
L 323.062479 150.476402 
L 326.341818 150.359377 
L 329.621157 147.105647 
L 332.900496 144.254717 
L 336.179835 144.927407 
L 339.459174 143.174862 
L 342.738512 138.345823 
L 346.017851 139.572378 
L 349.29719 137.505081 
L 352.576529 134.876217 
L 355.855868 132.607891 
L 359.135207 130.897833 
L 362.414545 128.849738 
L 365.693884 127.737841 
L 368.973223 124.647176 
L 372.252562 125.710085 
L 375.531901 123.616335 
L 378.81124 122.522281 
L 382.090579 124.425772 
L 385.369917 119.951169 
L 388.649256 121.60028 
L 391.928595 119.455334 
L 395.207934 116.361705 
L 398.487273 115.79764 
" style="fill:none;stroke:#365c8d;stroke-linecap:round;stroke-width:1.2;"/>
   </g>
   <g id="line2d_61">
    <path clip-path="url(#p85114b57aa)" d="M 165.649973 346.6 
L 165.654215 279.987506 
L 168.933554 270.914896 
L 172.212893 279.976321 
L 175.492231 270.903708 
L 178.77157 259.470831 
L 182.050909 264.451197 
L 185.330248 248.93501 
L 188.609587 243.923255 
L 191.888926 238.02779 
L 195.168264 236.339308 
L 198.447603 224.233672 
L 201.726942 219.176571 
L 205.006281 213.221883 
L 208.28562 209.426084 
L 211.564959 211.364085 
L 214.844298 197.05618 
L 218.123636 192.950814 
L 221.402975 189.178095 
L 224.682314 183.130994 
L 227.961653 182.470486 
L 231.240992 178.747052 
L 234.520331 173.20673 
L 237.799669 172.669907 
L 241.079008 165.556474 
L 244.358347 166.521779 
L 247.637686 163.573409 
L 250.917025 161.237357 
L 254.196364 158.319638 
L 257.475702 155.415673 
L 260.755041 151.22015 
L 264.03438 150.594028 
L 267.313719 149.147252 
L 270.593058 143.435788 
L 273.872397 141.759972 
L 277.151736 140.595683 
L 280.431074 140.274128 
L 283.710413 136.310743 
L 286.989752 134.216842 
L 290.269091 132.048715 
L 293.54843 132.191266 
L 296.827769 129.856497 
L 300.107107 127.349603 
L 303.386446 125.297957 
L 306.665785 123.722702 
L 309.945124 124.14902 
L 313.224463 121.611674 
L 316.503802 117.698182 
L 319.78314 116.622349 
L 323.062479 116.345648 
L 326.341818 116.949827 
L 329.621157 116.043783 
L 332.900496 109.965501 
L 336.179835 110.041424 
L 339.459174 106.017397 
L 342.738512 104.58136 
L 346.017851 106.495132 
L 349.29719 104.011946 
L 352.576529 95.986199 
L 355.855868 89.553841 
L 359.135207 89.553841 
" style="fill:none;stroke:#31688e;stroke-linecap:round;stroke-width:1.2;"/>
   </g>
   <g id="line2d_62">
    <path clip-path="url(#p85114b57aa)" d="M 119.740215 346.6 
L 119.743471 295.488 
L 119.746727 346.6 
M 136.13691 346.6 
L 136.140165 295.485764 
L 139.419504 279.983033 
L 142.698843 270.910421 
L 145.978182 255.398734 
L 149.257521 295.458911 
L 152.53686 279.956175 
L 155.816198 264.448957 
L 159.095537 248.932768 
L 162.374876 243.92101 
L 165.654215 226.242254 
L 168.933554 220.786977 
L 172.212893 206.399937 
L 175.492231 205.446638 
L 178.77157 209.830622 
L 182.050909 193.38511 
L 185.330248 190.213081 
L 188.609587 180.915626 
L 191.888926 178.080789 
L 195.168264 173.292201 
L 198.447603 166.062809 
L 201.726942 160.821814 
L 205.006281 156.959949 
L 208.28562 154.379112 
L 211.564959 150.731923 
L 214.844298 145.340264 
L 218.123636 142.661487 
L 221.402975 139.186789 
L 224.682314 138.191623 
L 227.961653 134.246087 
L 231.240992 131.894185 
L 234.520331 129.637261 
L 237.799669 128.738679 
L 241.079008 126.550046 
L 244.358347 124.092198 
L 247.637686 119.439472 
L 250.917025 119.753382 
L 254.196364 118.709049 
L 257.475702 116.891724 
L 260.755041 115.463322 
L 264.03438 110.760433 
L 267.313719 114.956093 
L 270.593058 107.335639 
L 273.872397 109.965501 
L 277.151736 102.365761 
L 280.431074 95.293907 
L 283.710413 110.337577 
L 286.989752 104.175153 
L 290.269091 98.619741 
L 293.54843 112.172489 
L 296.827769 123.183898 
L 300.107107 74.055583 
" style="fill:none;stroke:#2c738e;stroke-linecap:round;stroke-width:1.2;"/>
   </g>
   <g id="line2d_63">
    <path clip-path="url(#p85114b57aa)" d="M 113.181538 346.6 
L 113.184793 295.488 
L 113.188049 346.6 
M 119.738653 346.6 
L 119.743471 270.917133 
L 119.748289 346.6 
M 126.297907 346.6 
L 126.302149 279.978558 
L 129.581488 255.400973 
L 132.860826 236.424657 
L 136.140165 232.04533 
L 139.419504 223.365992 
L 142.698843 219.982049 
L 145.978182 211.605735 
L 149.257521 205.451199 
L 152.53686 199.264337 
L 155.816198 193.571248 
L 159.095537 186.066194 
L 162.374876 177.093394 
L 165.654215 171.589129 
L 168.933554 166.358099 
L 172.212893 161.798831 
L 175.492231 158.453139 
L 178.77157 149.207615 
L 182.050909 145.578737 
L 185.330248 140.392816 
L 188.609587 137.548053 
L 191.888926 132.852584 
L 195.168264 129.516731 
L 198.447603 124.675177 
L 201.726942 120.321191 
L 205.006281 115.527685 
L 208.28562 114.062413 
L 211.564959 111.714572 
L 214.844298 107.472464 
L 218.123636 102.327442 
L 221.402975 102.817504 
L 224.682314 97.284463 
L 227.961653 88.406961 
L 231.240992 95.711849 
L 234.520331 82.879758 
L 237.799669 83.68757 
L 241.079008 80.487941 
L 244.358347 89.553841 
L 247.637686 89.553841 
L 247.653994 346.6 
" style="fill:none;stroke:#277f8e;stroke-linecap:round;stroke-width:1.2;"/>
   </g>
   <g id="line2d_64">
    <path clip-path="url(#p85114b57aa)" d="M 93.505505 346.6 
L 93.50876 295.488 
L 93.512016 346.6 
M 100.063196 346.6 
L 100.067438 279.985269 
L 103.346777 264.478063 
L 106.626116 270.903708 
L 109.905455 234.884269 
L 113.184793 264.428784 
L 116.464132 232.038592 
L 119.743471 218.535991 
L 123.02281 209.124797 
L 126.302149 203.528479 
L 129.581488 192.334164 
L 132.860826 179.225231 
L 136.140165 172.113825 
L 139.419504 164.141667 
L 142.698843 158.076597 
L 145.978182 156.315854 
L 149.257521 150.347021 
L 152.53686 145.621289 
L 155.816198 141.929398 
L 159.095537 138.312321 
L 162.374876 132.678793 
L 165.654215 130.066406 
L 168.933554 126.19142 
L 172.212893 122.960304 
L 175.492231 116.46729 
L 178.77157 115.062897 
L 182.050909 112.634701 
L 185.330248 105.261555 
L 188.609587 102.518153 
L 191.888926 99.640889 
L 195.168264 96.258166 
L 198.447603 90.712611 
L 201.726942 87.293406 
L 205.006281 88.602239 
L 208.28562 66.267703 
L 211.564959 53.568 
" style="fill:none;stroke:#238a8d;stroke-linecap:round;stroke-width:1.2;"/>
   </g>
   <g id="patch_3">
    <path d="M 57.6 307.584 
L 57.6 41.472 
" style="fill:none;stroke:#262626;stroke-linecap:square;stroke-linejoin:miter;"/>
   </g>
   <g id="patch_4">
    <path d="M 414.72 307.584 
L 414.72 41.472 
" style="fill:none;stroke:#262626;stroke-linecap:square;stroke-linejoin:miter;"/>
   </g>
   <g id="patch_5">
    <path d="M 57.6 307.584 
L 414.72 307.584 
" style="fill:none;stroke:#262626;stroke-linecap:square;stroke-linejoin:miter;"/>
   </g>
   <g id="patch_6">
    <path d="M 57.6 41.472 
L 414.72 41.472 
" style="fill:none;stroke:#262626;stroke-linecap:square;stroke-linejoin:miter;"/>
   </g>
   <g id="legend_1">
    <g id="patch_7">
     <path d="M 63.76 191.3705 
L 120.287625 191.3705 
Q 122.047625 191.3705 122.047625 189.6105 
L 122.047625 47.632 
Q 122.047625 45.872 120.287625 45.872 
L 63.76 45.872 
Q 62 45.872 62 47.632 
L 62 189.6105 
Q 62 191.3705 63.76 191.3705 
z
" style="fill:#ffffff;opacity:0.8;stroke:#cccccc;stroke-linejoin:miter;stroke-width:0.8;"/>
    </g>
    <g id="text_14">
     <!-- log(p) -->
     <defs>
      <path d="M 9.421875 75.984375 
L 18.40625 75.984375 
L 18.40625 0 
L 9.421875 0 
z
" id="DejaVuSans-6c"/>
      <path d="M 30.609375 48.390625 
Q 23.390625 48.390625 19.1875 42.75 
Q 14.984375 37.109375 14.984375 27.296875 
Q 14.984375 17.484375 19.15625 11.84375 
Q 23.34375 6.203125 30.609375 6.203125 
Q 37.796875 6.203125 41.984375 11.859375 
Q 46.1875 17.53125 46.1875 27.296875 
Q 46.1875 37.015625 41.984375 42.703125 
Q 37.796875 48.390625 30.609375 48.390625 
z
M 30.609375 56 
Q 42.328125 56 49.015625 48.375 
Q 55.71875 40.765625 55.71875 27.296875 
Q 55.71875 13.875 49.015625 6.21875 
Q 42.328125 -1.421875 30.609375 -1.421875 
Q 18.84375 -1.421875 12.171875 6.21875 
Q 5.515625 13.875 5.515625 27.296875 
Q 5.515625 40.765625 12.171875 48.375 
Q 18.84375 56 30.609375 56 
z
" id="DejaVuSans-6f"/>
      <path d="M 45.40625 27.984375 
Q 45.40625 37.75 41.375 43.109375 
Q 37.359375 48.484375 30.078125 48.484375 
Q 22.859375 48.484375 18.828125 43.109375 
Q 14.796875 37.75 14.796875 27.984375 
Q 14.796875 18.265625 18.828125 12.890625 
Q 22.859375 7.515625 30.078125 7.515625 
Q 37.359375 7.515625 41.375 12.890625 
Q 45.40625 18.265625 45.40625 27.984375 
z
M 54.390625 6.78125 
Q 54.390625 -7.171875 48.1875 -13.984375 
Q 42 -20.796875 29.203125 -20.796875 
Q 24.46875 -20.796875 20.265625 -20.09375 
Q 16.0625 -19.390625 12.109375 -17.921875 
L 12.109375 -9.1875 
Q 16.0625 -11.328125 19.921875 -12.34375 
Q 23.78125 -13.375 27.78125 -13.375 
Q 36.625 -13.375 41.015625 -8.765625 
Q 45.40625 -4.15625 45.40625 5.171875 
L 45.40625 9.625 
Q 42.625 4.78125 38.28125 2.390625 
Q 33.9375 0 27.875 0 
Q 17.828125 0 11.671875 7.65625 
Q 5.515625 15.328125 5.515625 27.984375 
Q 5.515625 40.671875 11.671875 48.328125 
Q 17.828125 56 27.875 56 
Q 33.9375 56 38.28125 53.609375 
Q 42.625 51.21875 45.40625 46.390625 
L 45.40625 54.6875 
L 54.390625 54.6875 
z
" id="DejaVuSans-67"/>
      <path d="M 18.109375 8.203125 
L 18.109375 -20.796875 
L 9.078125 -20.796875 
L 9.078125 54.6875 
L 18.109375 54.6875 
L 18.109375 46.390625 
Q 20.953125 51.265625 25.265625 53.625 
Q 29.59375 56 35.59375 56 
Q 45.5625 56 51.78125 48.09375 
Q 58.015625 40.1875 58.015625 27.296875 
Q 58.015625 14.40625 51.78125 6.484375 
Q 45.5625 -1.421875 35.59375 -1.421875 
Q 29.59375 -1.421875 25.265625 0.953125 
Q 20.953125 3.328125 18.109375 8.203125 
z
M 48.6875 27.296875 
Q 48.6875 37.203125 44.609375 42.84375 
Q 40.53125 48.484375 33.40625 48.484375 
Q 26.265625 48.484375 22.1875 42.84375 
Q 18.109375 37.203125 18.109375 27.296875 
Q 18.109375 17.390625 22.1875 11.75 
Q 26.265625 6.109375 33.40625 6.109375 
Q 40.53125 6.109375 44.609375 11.75 
Q 48.6875 17.390625 48.6875 27.296875 
z
" id="DejaVuSans-70"/>
     </defs>
     <g style="fill:#262626;" transform="translate(77.913313 56.6865)scale(0.096 -0.096)">
      <use xlink:href="#DejaVuSans-6c"/>
      <use x="27.783203" xlink:href="#DejaVuSans-6f"/>
      <use x="88.964844" xlink:href="#DejaVuSans-67"/>
      <use x="152.441406" xlink:href="#DejaVuSans-28"/>
      <use x="191.455078" xlink:href="#DejaVuSans-70"/>
      <use x="254.931641" xlink:href="#DejaVuSans-29"/>
     </g>
    </g>
    <g id="line2d_65">
     <path d="M 65.52 66.689625 
L 83.12 66.689625 
" style="fill:none;stroke:#471365;stroke-linecap:round;stroke-width:1.2;"/>
    </g>
    <g id="line2d_66"/>
    <g id="text_15">
     <!-- -10.42 -->
     <defs>
      <path d="M 4.890625 31.390625 
L 31.203125 31.390625 
L 31.203125 23.390625 
L 4.890625 23.390625 
z
" id="DejaVuSans-2d"/>
      <path d="M 10.6875 12.40625 
L 21 12.40625 
L 21 0 
L 10.6875 0 
z
" id="DejaVuSans-2e"/>
     </defs>
     <g style="fill:#262626;" transform="translate(90.16 69.769625)scale(0.088 -0.088)">
      <use xlink:href="#DejaVuSans-2d"/>
      <use x="36.083984" xlink:href="#DejaVuSans-31"/>
      <use x="99.707031" xlink:href="#DejaVuSans-30"/>
      <use x="163.330078" xlink:href="#DejaVuSans-2e"/>
      <use x="195.117188" xlink:href="#DejaVuSans-34"/>
      <use x="258.740234" xlink:href="#DejaVuSans-32"/>
     </g>
    </g>
    <g id="line2d_67">
     <path d="M 65.52 79.606375 
L 83.12 79.606375 
" style="fill:none;stroke:#482374;stroke-linecap:round;stroke-width:1.2;"/>
    </g>
    <g id="line2d_68"/>
    <g id="text_16">
     <!-- -9.99 -->
     <defs>
      <path d="M 10.984375 1.515625 
L 10.984375 10.5 
Q 14.703125 8.734375 18.5 7.8125 
Q 22.3125 6.890625 25.984375 6.890625 
Q 35.75 6.890625 40.890625 13.453125 
Q 46.046875 20.015625 46.78125 33.40625 
Q 43.953125 29.203125 39.59375 26.953125 
Q 35.25 24.703125 29.984375 24.703125 
Q 19.046875 24.703125 12.671875 31.3125 
Q 6.296875 37.9375 6.296875 49.421875 
Q 6.296875 60.640625 12.9375 67.421875 
Q 19.578125 74.21875 30.609375 74.21875 
Q 43.265625 74.21875 49.921875 64.515625 
Q 56.59375 54.828125 56.59375 36.375 
Q 56.59375 19.140625 48.40625 8.859375 
Q 40.234375 -1.421875 26.421875 -1.421875 
Q 22.703125 -1.421875 18.890625 -0.6875 
Q 15.09375 0.046875 10.984375 1.515625 
z
M 30.609375 32.421875 
Q 37.25 32.421875 41.125 36.953125 
Q 45.015625 41.5 45.015625 49.421875 
Q 45.015625 57.28125 41.125 61.84375 
Q 37.25 66.40625 30.609375 66.40625 
Q 23.96875 66.40625 20.09375 61.84375 
Q 16.21875 57.28125 16.21875 49.421875 
Q 16.21875 41.5 20.09375 36.953125 
Q 23.96875 32.421875 30.609375 32.421875 
z
" id="DejaVuSans-39"/>
     </defs>
     <g style="fill:#262626;" transform="translate(90.16 82.686375)scale(0.088 -0.088)">
      <use xlink:href="#DejaVuSans-2d"/>
      <use x="36.083984" xlink:href="#DejaVuSans-39"/>
      <use x="99.707031" xlink:href="#DejaVuSans-2e"/>
      <use x="131.494141" xlink:href="#DejaVuSans-39"/>
      <use x="195.117188" xlink:href="#DejaVuSans-39"/>
     </g>
    </g>
    <g id="line2d_69">
     <path d="M 65.52 92.523125 
L 83.12 92.523125 
" style="fill:none;stroke:#46327e;stroke-linecap:round;stroke-width:1.2;"/>
    </g>
    <g id="line2d_70"/>
    <g id="text_17">
     <!-- -9.55 -->
     <defs>
      <path d="M 10.796875 72.90625 
L 49.515625 72.90625 
L 49.515625 64.59375 
L 19.828125 64.59375 
L 19.828125 46.734375 
Q 21.96875 47.46875 24.109375 47.828125 
Q 26.265625 48.1875 28.421875 48.1875 
Q 40.625 48.1875 47.75 41.5 
Q 54.890625 34.8125 54.890625 23.390625 
Q 54.890625 11.625 47.5625 5.09375 
Q 40.234375 -1.421875 26.90625 -1.421875 
Q 22.3125 -1.421875 17.546875 -0.640625 
Q 12.796875 0.140625 7.71875 1.703125 
L 7.71875 11.625 
Q 12.109375 9.234375 16.796875 8.0625 
Q 21.484375 6.890625 26.703125 6.890625 
Q 35.15625 6.890625 40.078125 11.328125 
Q 45.015625 15.765625 45.015625 23.390625 
Q 45.015625 31 40.078125 35.4375 
Q 35.15625 39.890625 26.703125 39.890625 
Q 22.75 39.890625 18.8125 39.015625 
Q 14.890625 38.140625 10.796875 36.28125 
z
" id="DejaVuSans-35"/>
     </defs>
     <g style="fill:#262626;" transform="translate(90.16 95.603125)scale(0.088 -0.088)">
      <use xlink:href="#DejaVuSans-2d"/>
      <use x="36.083984" xlink:href="#DejaVuSans-39"/>
      <use x="99.707031" xlink:href="#DejaVuSans-2e"/>
      <use x="131.494141" xlink:href="#DejaVuSans-35"/>
      <use x="195.117188" xlink:href="#DejaVuSans-35"/>
     </g>
    </g>
    <g id="line2d_71">
     <path d="M 65.52 105.439875 
L 83.12 105.439875 
" style="fill:none;stroke:#424086;stroke-linecap:round;stroke-width:1.2;"/>
    </g>
    <g id="line2d_72"/>
    <g id="text_18">
     <!-- -9.12 -->
     <g style="fill:#262626;" transform="translate(90.16 108.519875)scale(0.088 -0.088)">
      <use xlink:href="#DejaVuSans-2d"/>
      <use x="36.083984" xlink:href="#DejaVuSans-39"/>
      <use x="99.707031" xlink:href="#DejaVuSans-2e"/>
      <use x="131.494141" xlink:href="#DejaVuSans-31"/>
      <use x="195.117188" xlink:href="#DejaVuSans-32"/>
     </g>
    </g>
    <g id="line2d_73">
     <path d="M 65.52 118.356625 
L 83.12 118.356625 
" style="fill:none;stroke:#3d4e8a;stroke-linecap:round;stroke-width:1.2;"/>
    </g>
    <g id="line2d_74"/>
    <g id="text_19">
     <!-- -8.69 -->
     <g style="fill:#262626;" transform="translate(90.16 121.436625)scale(0.088 -0.088)">
      <use xlink:href="#DejaVuSans-2d"/>
      <use x="36.083984" xlink:href="#DejaVuSans-38"/>
      <use x="99.707031" xlink:href="#DejaVuSans-2e"/>
      <use x="131.494141" xlink:href="#DejaVuSans-36"/>
      <use x="195.117188" xlink:href="#DejaVuSans-39"/>
     </g>
    </g>
    <g id="line2d_75">
     <path d="M 65.52 131.273375 
L 83.12 131.273375 
" style="fill:none;stroke:#365c8d;stroke-linecap:round;stroke-width:1.2;"/>
    </g>
    <g id="line2d_76"/>
    <g id="text_20">
     <!-- -8.25 -->
     <g style="fill:#262626;" transform="translate(90.16 134.353375)scale(0.088 -0.088)">
      <use xlink:href="#DejaVuSans-2d"/>
      <use x="36.083984" xlink:href="#DejaVuSans-38"/>
      <use x="99.707031" xlink:href="#DejaVuSans-2e"/>
      <use x="131.494141" xlink:href="#DejaVuSans-32"/>
      <use x="195.117188" xlink:href="#DejaVuSans-35"/>
     </g>
    </g>
    <g id="line2d_77">
     <path d="M 65.52 144.190125 
L 83.12 144.190125 
" style="fill:none;stroke:#31688e;stroke-linecap:round;stroke-width:1.2;"/>
    </g>
    <g id="line2d_78"/>
    <g id="text_21">
     <!-- -7.82 -->
     <defs>
      <path d="M 8.203125 72.90625 
L 55.078125 72.90625 
L 55.078125 68.703125 
L 28.609375 0 
L 18.3125 0 
L 43.21875 64.59375 
L 8.203125 64.59375 
z
" id="DejaVuSans-37"/>
     </defs>
     <g style="fill:#262626;" transform="translate(90.16 147.270125)scale(0.088 -0.088)">
      <use xlink:href="#DejaVuSans-2d"/>
      <use x="36.083984" xlink:href="#DejaVuSans-37"/>
      <use x="99.707031" xlink:href="#DejaVuSans-2e"/>
      <use x="131.494141" xlink:href="#DejaVuSans-38"/>
      <use x="195.117188" xlink:href="#DejaVuSans-32"/>
     </g>
    </g>
    <g id="line2d_79">
     <path d="M 65.52 157.106875 
L 83.12 157.106875 
" style="fill:none;stroke:#2c738e;stroke-linecap:round;stroke-width:1.2;"/>
    </g>
    <g id="line2d_80"/>
    <g id="text_22">
     <!-- -7.38 -->
     <g style="fill:#262626;" transform="translate(90.16 160.186875)scale(0.088 -0.088)">
      <use xlink:href="#DejaVuSans-2d"/>
      <use x="36.083984" xlink:href="#DejaVuSans-37"/>
      <use x="99.707031" xlink:href="#DejaVuSans-2e"/>
      <use x="131.494141" xlink:href="#DejaVuSans-33"/>
      <use x="195.117188" xlink:href="#DejaVuSans-38"/>
     </g>
    </g>
    <g id="line2d_81">
     <path d="M 65.52 170.023625 
L 83.12 170.023625 
" style="fill:none;stroke:#277f8e;stroke-linecap:round;stroke-width:1.2;"/>
    </g>
    <g id="line2d_82"/>
    <g id="text_23">
     <!-- -6.95 -->
     <g style="fill:#262626;" transform="translate(90.16 173.103625)scale(0.088 -0.088)">
      <use xlink:href="#DejaVuSans-2d"/>
      <use x="36.083984" xlink:href="#DejaVuSans-36"/>
      <use x="99.707031" xlink:href="#DejaVuSans-2e"/>
      <use x="131.494141" xlink:href="#DejaVuSans-39"/>
      <use x="195.117188" xlink:href="#DejaVuSans-35"/>
     </g>
    </g>
    <g id="line2d_83">
     <path d="M 65.52 182.940375 
L 83.12 182.940375 
" style="fill:none;stroke:#238a8d;stroke-linecap:round;stroke-width:1.2;"/>
    </g>
    <g id="line2d_84"/>
    <g id="text_24">
     <!-- -6.51 -->
     <g style="fill:#262626;" transform="translate(90.16 186.020375)scale(0.088 -0.088)">
      <use xlink:href="#DejaVuSans-2d"/>
      <use x="36.083984" xlink:href="#DejaVuSans-36"/>
      <use x="99.707031" xlink:href="#DejaVuSans-2e"/>
      <use x="131.494141" xlink:href="#DejaVuSans-35"/>
      <use x="195.117188" xlink:href="#DejaVuSans-31"/>
     </g>
    </g>
   </g>
  </g>
 </g>
 <defs>
  <clipPath id="p85114b57aa">
   <rect height="266.112" width="357.12" x="57.6" y="41.472"/>
  </clipPath>
 </defs>
</svg>
