<?xml version="1.0" encoding="utf-8" standalone="no"?>
<!DOCTYPE svg PUBLIC "-//W3C//DTD SVG 1.1//EN"
  "http://www.w3.org/Graphics/SVG/1.1/DTD/svg11.dtd">
<!-- Created with matplotlib (http://matplotlib.org/) -->
<svg height="288pt" version="1.1" viewBox="0 0 432 288" width="432pt" xmlns="http://www.w3.org/2000/svg" xmlns:xlink="http://www.w3.org/1999/xlink">
 <defs>
  <style type="text/css">
*{stroke-linecap:butt;stroke-linejoin:round;}
  </style>
 </defs>
 <g id="figure_1">
  <g id="patch_1">
   <path d="M 0 288 
L 432 288 
L 432 0 
L 0 0 
z
" style="fill:#ffffff;"/>
  </g>
  <g id="axes_1">
   <g id="patch_2">
    <path d="M 54 252 
L 388.8 252 
L 388.8 34.56 
L 54 34.56 
z
" style="fill:#ffffff;"/>
   </g>
   <g id="matplotlib.axis_1">
    <g id="xtick_1">
     <g id="line2d_1">
      <defs>
       <path d="M 0 0 
L 0 3.5 
" id="m43d7cd9bcc" style="stroke:#000000;stroke-width:0.8;"/>
      </defs>
      <g>
       <use style="stroke:#000000;stroke-width:0.8;" x="69.218182" xlink:href="#m43d7cd9bcc" y="252"/>
      </g>
     </g>
     <g id="text_1">
      <!-- 0 -->
      <defs>
       <path d="M 31.78125 66.40625 
Q 24.171875 66.40625 20.328125 58.90625 
Q 16.5 51.421875 16.5 36.375 
Q 16.5 21.390625 20.328125 13.890625 
Q 24.171875 6.390625 31.78125 6.390625 
Q 39.453125 6.390625 43.28125 13.890625 
Q 47.125 21.390625 47.125 36.375 
Q 47.125 51.421875 43.28125 58.90625 
Q 39.453125 66.40625 31.78125 66.40625 
z
M 31.78125 74.21875 
Q 44.046875 74.21875 50.515625 64.515625 
Q 56.984375 54.828125 56.984375 36.375 
Q 56.984375 17.96875 50.515625 8.265625 
Q 44.046875 -1.421875 31.78125 -1.421875 
Q 19.53125 -1.421875 13.0625 8.265625 
Q 6.59375 17.96875 6.59375 36.375 
Q 6.59375 54.828125 13.0625 64.515625 
Q 19.53125 74.21875 31.78125 74.21875 
z
" id="DejaVuSans-30"/>
      </defs>
      <g transform="translate(66.036932 266.598437)scale(0.1 -0.1)">
       <use xlink:href="#DejaVuSans-30"/>
      </g>
     </g>
    </g>
    <g id="xtick_2">
     <g id="line2d_2">
      <g>
       <use style="stroke:#000000;stroke-width:0.8;" x="137.614505" xlink:href="#m43d7cd9bcc" y="252"/>
      </g>
     </g>
     <g id="text_2">
      <!-- 20 -->
      <defs>
       <path d="M 19.1875 8.296875 
L 53.609375 8.296875 
L 53.609375 0 
L 7.328125 0 
L 7.328125 8.296875 
Q 12.9375 14.109375 22.625 23.890625 
Q 32.328125 33.6875 34.8125 36.53125 
Q 39.546875 41.84375 41.421875 45.53125 
Q 43.3125 49.21875 43.3125 52.78125 
Q 43.3125 58.59375 39.234375 62.25 
Q 35.15625 65.921875 28.609375 65.921875 
Q 23.96875 65.921875 18.8125 64.3125 
Q 13.671875 62.703125 7.8125 59.421875 
L 7.8125 69.390625 
Q 13.765625 71.78125 18.9375 73 
Q 24.125 74.21875 28.421875 74.21875 
Q 39.75 74.21875 46.484375 68.546875 
Q 53.21875 62.890625 53.21875 53.421875 
Q 53.21875 48.921875 51.53125 44.890625 
Q 49.859375 40.875 45.40625 35.40625 
Q 44.1875 33.984375 37.640625 27.21875 
Q 31.109375 20.453125 19.1875 8.296875 
z
" id="DejaVuSans-32"/>
      </defs>
      <g transform="translate(131.252005 266.598437)scale(0.1 -0.1)">
       <use xlink:href="#DejaVuSans-32"/>
       <use x="63.623047" xlink:href="#DejaVuSans-30"/>
      </g>
     </g>
    </g>
    <g id="xtick_3">
     <g id="line2d_3">
      <g>
       <use style="stroke:#000000;stroke-width:0.8;" x="206.010827" xlink:href="#m43d7cd9bcc" y="252"/>
      </g>
     </g>
     <g id="text_3">
      <!-- 40 -->
      <defs>
       <path d="M 37.796875 64.3125 
L 12.890625 25.390625 
L 37.796875 25.390625 
z
M 35.203125 72.90625 
L 47.609375 72.90625 
L 47.609375 25.390625 
L 58.015625 25.390625 
L 58.015625 17.1875 
L 47.609375 17.1875 
L 47.609375 0 
L 37.796875 0 
L 37.796875 17.1875 
L 4.890625 17.1875 
L 4.890625 26.703125 
z
" id="DejaVuSans-34"/>
      </defs>
      <g transform="translate(199.648327 266.598437)scale(0.1 -0.1)">
       <use xlink:href="#DejaVuSans-34"/>
       <use x="63.623047" xlink:href="#DejaVuSans-30"/>
      </g>
     </g>
    </g>
    <g id="xtick_4">
     <g id="line2d_4">
      <g>
       <use style="stroke:#000000;stroke-width:0.8;" x="274.40715" xlink:href="#m43d7cd9bcc" y="252"/>
      </g>
     </g>
     <g id="text_4">
      <!-- 60 -->
      <defs>
       <path d="M 33.015625 40.375 
Q 26.375 40.375 22.484375 35.828125 
Q 18.609375 31.296875 18.609375 23.390625 
Q 18.609375 15.53125 22.484375 10.953125 
Q 26.375 6.390625 33.015625 6.390625 
Q 39.65625 6.390625 43.53125 10.953125 
Q 47.40625 15.53125 47.40625 23.390625 
Q 47.40625 31.296875 43.53125 35.828125 
Q 39.65625 40.375 33.015625 40.375 
z
M 52.59375 71.296875 
L 52.59375 62.3125 
Q 48.875 64.0625 45.09375 64.984375 
Q 41.3125 65.921875 37.59375 65.921875 
Q 27.828125 65.921875 22.671875 59.328125 
Q 17.53125 52.734375 16.796875 39.40625 
Q 19.671875 43.65625 24.015625 45.921875 
Q 28.375 48.1875 33.59375 48.1875 
Q 44.578125 48.1875 50.953125 41.515625 
Q 57.328125 34.859375 57.328125 23.390625 
Q 57.328125 12.15625 50.6875 5.359375 
Q 44.046875 -1.421875 33.015625 -1.421875 
Q 20.359375 -1.421875 13.671875 8.265625 
Q 6.984375 17.96875 6.984375 36.375 
Q 6.984375 53.65625 15.1875 63.9375 
Q 23.390625 74.21875 37.203125 74.21875 
Q 40.921875 74.21875 44.703125 73.484375 
Q 48.484375 72.75 52.59375 71.296875 
z
" id="DejaVuSans-36"/>
      </defs>
      <g transform="translate(268.04465 266.598437)scale(0.1 -0.1)">
       <use xlink:href="#DejaVuSans-36"/>
       <use x="63.623047" xlink:href="#DejaVuSans-30"/>
      </g>
     </g>
    </g>
    <g id="xtick_5">
     <g id="line2d_5">
      <g>
       <use style="stroke:#000000;stroke-width:0.8;" x="342.803473" xlink:href="#m43d7cd9bcc" y="252"/>
      </g>
     </g>
     <g id="text_5">
      <!-- 80 -->
      <defs>
       <path d="M 31.78125 34.625 
Q 24.75 34.625 20.71875 30.859375 
Q 16.703125 27.09375 16.703125 20.515625 
Q 16.703125 13.921875 20.71875 10.15625 
Q 24.75 6.390625 31.78125 6.390625 
Q 38.8125 6.390625 42.859375 10.171875 
Q 46.921875 13.96875 46.921875 20.515625 
Q 46.921875 27.09375 42.890625 30.859375 
Q 38.875 34.625 31.78125 34.625 
z
M 21.921875 38.8125 
Q 15.578125 40.375 12.03125 44.71875 
Q 8.5 49.078125 8.5 55.328125 
Q 8.5 64.0625 14.71875 69.140625 
Q 20.953125 74.21875 31.78125 74.21875 
Q 42.671875 74.21875 48.875 69.140625 
Q 55.078125 64.0625 55.078125 55.328125 
Q 55.078125 49.078125 51.53125 44.71875 
Q 48 40.375 41.703125 38.8125 
Q 48.828125 37.15625 52.796875 32.3125 
Q 56.78125 27.484375 56.78125 20.515625 
Q 56.78125 9.90625 50.3125 4.234375 
Q 43.84375 -1.421875 31.78125 -1.421875 
Q 19.734375 -1.421875 13.25 4.234375 
Q 6.78125 9.90625 6.78125 20.515625 
Q 6.78125 27.484375 10.78125 32.3125 
Q 14.796875 37.15625 21.921875 38.8125 
z
M 18.3125 54.390625 
Q 18.3125 48.734375 21.84375 45.5625 
Q 25.390625 42.390625 31.78125 42.390625 
Q 38.140625 42.390625 41.71875 45.5625 
Q 45.3125 48.734375 45.3125 54.390625 
Q 45.3125 60.0625 41.71875 63.234375 
Q 38.140625 66.40625 31.78125 66.40625 
Q 25.390625 66.40625 21.84375 63.234375 
Q 18.3125 60.0625 18.3125 54.390625 
z
" id="DejaVuSans-38"/>
      </defs>
      <g transform="translate(336.440973 266.598437)scale(0.1 -0.1)">
       <use xlink:href="#DejaVuSans-38"/>
       <use x="63.623047" xlink:href="#DejaVuSans-30"/>
      </g>
     </g>
    </g>
    <g id="text_6">
     <!-- Age (yrs) -->
     <defs>
      <path d="M 34.1875 63.1875 
L 20.796875 26.90625 
L 47.609375 26.90625 
z
M 28.609375 72.90625 
L 39.796875 72.90625 
L 67.578125 0 
L 57.328125 0 
L 50.6875 18.703125 
L 17.828125 18.703125 
L 11.1875 0 
L 0.78125 0 
z
" id="DejaVuSans-41"/>
      <path d="M 45.40625 27.984375 
Q 45.40625 37.75 41.375 43.109375 
Q 37.359375 48.484375 30.078125 48.484375 
Q 22.859375 48.484375 18.828125 43.109375 
Q 14.796875 37.75 14.796875 27.984375 
Q 14.796875 18.265625 18.828125 12.890625 
Q 22.859375 7.515625 30.078125 7.515625 
Q 37.359375 7.515625 41.375 12.890625 
Q 45.40625 18.265625 45.40625 27.984375 
z
M 54.390625 6.78125 
Q 54.390625 -7.171875 48.1875 -13.984375 
Q 42 -20.796875 29.203125 -20.796875 
Q 24.46875 -20.796875 20.265625 -20.09375 
Q 16.0625 -19.390625 12.109375 -17.921875 
L 12.109375 -9.1875 
Q 16.0625 -11.328125 19.921875 -12.34375 
Q 23.78125 -13.375 27.78125 -13.375 
Q 36.625 -13.375 41.015625 -8.765625 
Q 45.40625 -4.15625 45.40625 5.171875 
L 45.40625 9.625 
Q 42.625 4.78125 38.28125 2.390625 
Q 33.9375 0 27.875 0 
Q 17.828125 0 11.671875 7.65625 
Q 5.515625 15.328125 5.515625 27.984375 
Q 5.515625 40.671875 11.671875 48.328125 
Q 17.828125 56 27.875 56 
Q 33.9375 56 38.28125 53.609375 
Q 42.625 51.21875 45.40625 46.390625 
L 45.40625 54.6875 
L 54.390625 54.6875 
z
" id="DejaVuSans-67"/>
      <path d="M 56.203125 29.59375 
L 56.203125 25.203125 
L 14.890625 25.203125 
Q 15.484375 15.921875 20.484375 11.0625 
Q 25.484375 6.203125 34.421875 6.203125 
Q 39.59375 6.203125 44.453125 7.46875 
Q 49.3125 8.734375 54.109375 11.28125 
L 54.109375 2.78125 
Q 49.265625 0.734375 44.1875 -0.34375 
Q 39.109375 -1.421875 33.890625 -1.421875 
Q 20.796875 -1.421875 13.15625 6.1875 
Q 5.515625 13.8125 5.515625 26.8125 
Q 5.515625 40.234375 12.765625 48.109375 
Q 20.015625 56 32.328125 56 
Q 43.359375 56 49.78125 48.890625 
Q 56.203125 41.796875 56.203125 29.59375 
z
M 47.21875 32.234375 
Q 47.125 39.59375 43.09375 43.984375 
Q 39.0625 48.390625 32.421875 48.390625 
Q 24.90625 48.390625 20.390625 44.140625 
Q 15.875 39.890625 15.1875 32.171875 
z
" id="DejaVuSans-65"/>
      <path id="DejaVuSans-20"/>
      <path d="M 31 75.875 
Q 24.46875 64.65625 21.28125 53.65625 
Q 18.109375 42.671875 18.109375 31.390625 
Q 18.109375 20.125 21.3125 9.0625 
Q 24.515625 -2 31 -13.1875 
L 23.1875 -13.1875 
Q 15.875 -1.703125 12.234375 9.375 
Q 8.59375 20.453125 8.59375 31.390625 
Q 8.59375 42.28125 12.203125 53.3125 
Q 15.828125 64.359375 23.1875 75.875 
z
" id="DejaVuSans-28"/>
      <path d="M 32.171875 -5.078125 
Q 28.375 -14.84375 24.75 -17.8125 
Q 21.140625 -20.796875 15.09375 -20.796875 
L 7.90625 -20.796875 
L 7.90625 -13.28125 
L 13.1875 -13.28125 
Q 16.890625 -13.28125 18.9375 -11.515625 
Q 21 -9.765625 23.484375 -3.21875 
L 25.09375 0.875 
L 2.984375 54.6875 
L 12.5 54.6875 
L 29.59375 11.921875 
L 46.6875 54.6875 
L 56.203125 54.6875 
z
" id="DejaVuSans-79"/>
      <path d="M 41.109375 46.296875 
Q 39.59375 47.171875 37.8125 47.578125 
Q 36.03125 48 33.890625 48 
Q 26.265625 48 22.1875 43.046875 
Q 18.109375 38.09375 18.109375 28.8125 
L 18.109375 0 
L 9.078125 0 
L 9.078125 54.6875 
L 18.109375 54.6875 
L 18.109375 46.1875 
Q 20.953125 51.171875 25.484375 53.578125 
Q 30.03125 56 36.53125 56 
Q 37.453125 56 38.578125 55.875 
Q 39.703125 55.765625 41.0625 55.515625 
z
" id="DejaVuSans-72"/>
      <path d="M 44.28125 53.078125 
L 44.28125 44.578125 
Q 40.484375 46.53125 36.375 47.5 
Q 32.28125 48.484375 27.875 48.484375 
Q 21.1875 48.484375 17.84375 46.4375 
Q 14.5 44.390625 14.5 40.28125 
Q 14.5 37.15625 16.890625 35.375 
Q 19.28125 33.59375 26.515625 31.984375 
L 29.59375 31.296875 
Q 39.15625 29.25 43.1875 25.515625 
Q 47.21875 21.78125 47.21875 15.09375 
Q 47.21875 7.46875 41.1875 3.015625 
Q 35.15625 -1.421875 24.609375 -1.421875 
Q 20.21875 -1.421875 15.453125 -0.5625 
Q 10.6875 0.296875 5.421875 2 
L 5.421875 11.28125 
Q 10.40625 8.6875 15.234375 7.390625 
Q 20.0625 6.109375 24.8125 6.109375 
Q 31.15625 6.109375 34.5625 8.28125 
Q 37.984375 10.453125 37.984375 14.40625 
Q 37.984375 18.0625 35.515625 20.015625 
Q 33.0625 21.96875 24.703125 23.78125 
L 21.578125 24.515625 
Q 13.234375 26.265625 9.515625 29.90625 
Q 5.8125 33.546875 5.8125 39.890625 
Q 5.8125 47.609375 11.28125 51.796875 
Q 16.75 56 26.8125 56 
Q 31.78125 56 36.171875 55.265625 
Q 40.578125 54.546875 44.28125 53.078125 
z
" id="DejaVuSans-73"/>
      <path d="M 8.015625 75.875 
L 15.828125 75.875 
Q 23.140625 64.359375 26.78125 53.3125 
Q 30.421875 42.28125 30.421875 31.390625 
Q 30.421875 20.453125 26.78125 9.375 
Q 23.140625 -1.703125 15.828125 -13.1875 
L 8.015625 -13.1875 
Q 14.5 -2 17.703125 9.0625 
Q 20.90625 20.125 20.90625 31.390625 
Q 20.90625 42.671875 17.703125 53.65625 
Q 14.5 64.65625 8.015625 75.875 
z
" id="DejaVuSans-29"/>
     </defs>
     <g transform="translate(198.61875 280.276563)scale(0.1 -0.1)">
      <use xlink:href="#DejaVuSans-41"/>
      <use x="68.408203" xlink:href="#DejaVuSans-67"/>
      <use x="131.884766" xlink:href="#DejaVuSans-65"/>
      <use x="193.408203" xlink:href="#DejaVuSans-20"/>
      <use x="225.195312" xlink:href="#DejaVuSans-28"/>
      <use x="264.208984" xlink:href="#DejaVuSans-79"/>
      <use x="323.388672" xlink:href="#DejaVuSans-72"/>
      <use x="364.501953" xlink:href="#DejaVuSans-73"/>
      <use x="416.601562" xlink:href="#DejaVuSans-29"/>
     </g>
    </g>
   </g>
   <g id="matplotlib.axis_2">
    <g id="ytick_1">
     <g id="line2d_6">
      <defs>
       <path d="M 0 0 
L -3.5 0 
" id="m97a5f299d7" style="stroke:#000000;stroke-width:0.8;"/>
      </defs>
      <g>
       <use style="stroke:#000000;stroke-width:0.8;" x="54" xlink:href="#m97a5f299d7" y="242.116364"/>
      </g>
     </g>
     <g id="text_7">
      <!-- 0 -->
      <g transform="translate(40.6375 245.915582)scale(0.1 -0.1)">
       <use xlink:href="#DejaVuSans-30"/>
      </g>
     </g>
    </g>
    <g id="ytick_2">
     <g id="line2d_7">
      <g>
       <use style="stroke:#000000;stroke-width:0.8;" x="54" xlink:href="#m97a5f299d7" y="201.914058"/>
      </g>
     </g>
     <g id="text_8">
      <!-- 20000 -->
      <g transform="translate(15.1875 205.713277)scale(0.1 -0.1)">
       <use xlink:href="#DejaVuSans-32"/>
       <use x="63.623047" xlink:href="#DejaVuSans-30"/>
       <use x="127.246094" xlink:href="#DejaVuSans-30"/>
       <use x="190.869141" xlink:href="#DejaVuSans-30"/>
       <use x="254.492188" xlink:href="#DejaVuSans-30"/>
      </g>
     </g>
    </g>
    <g id="ytick_3">
     <g id="line2d_8">
      <g>
       <use style="stroke:#000000;stroke-width:0.8;" x="54" xlink:href="#m97a5f299d7" y="161.711752"/>
      </g>
     </g>
     <g id="text_9">
      <!-- 40000 -->
      <g transform="translate(15.1875 165.510971)scale(0.1 -0.1)">
       <use xlink:href="#DejaVuSans-34"/>
       <use x="63.623047" xlink:href="#DejaVuSans-30"/>
       <use x="127.246094" xlink:href="#DejaVuSans-30"/>
       <use x="190.869141" xlink:href="#DejaVuSans-30"/>
       <use x="254.492188" xlink:href="#DejaVuSans-30"/>
      </g>
     </g>
    </g>
    <g id="ytick_4">
     <g id="line2d_9">
      <g>
       <use style="stroke:#000000;stroke-width:0.8;" x="54" xlink:href="#m97a5f299d7" y="121.509446"/>
      </g>
     </g>
     <g id="text_10">
      <!-- 60000 -->
      <g transform="translate(15.1875 125.308665)scale(0.1 -0.1)">
       <use xlink:href="#DejaVuSans-36"/>
       <use x="63.623047" xlink:href="#DejaVuSans-30"/>
       <use x="127.246094" xlink:href="#DejaVuSans-30"/>
       <use x="190.869141" xlink:href="#DejaVuSans-30"/>
       <use x="254.492188" xlink:href="#DejaVuSans-30"/>
      </g>
     </g>
    </g>
    <g id="ytick_5">
     <g id="line2d_10">
      <g>
       <use style="stroke:#000000;stroke-width:0.8;" x="54" xlink:href="#m97a5f299d7" y="81.307141"/>
      </g>
     </g>
     <g id="text_11">
      <!-- 80000 -->
      <g transform="translate(15.1875 85.106359)scale(0.1 -0.1)">
       <use xlink:href="#DejaVuSans-38"/>
       <use x="63.623047" xlink:href="#DejaVuSans-30"/>
       <use x="127.246094" xlink:href="#DejaVuSans-30"/>
       <use x="190.869141" xlink:href="#DejaVuSans-30"/>
       <use x="254.492188" xlink:href="#DejaVuSans-30"/>
      </g>
     </g>
    </g>
    <g id="ytick_6">
     <g id="line2d_11">
      <g>
       <use style="stroke:#000000;stroke-width:0.8;" x="54" xlink:href="#m97a5f299d7" y="41.104835"/>
      </g>
     </g>
     <g id="text_12">
      <!-- 100000 -->
      <defs>
       <path d="M 12.40625 8.296875 
L 28.515625 8.296875 
L 28.515625 63.921875 
L 10.984375 60.40625 
L 10.984375 69.390625 
L 28.421875 72.90625 
L 38.28125 72.90625 
L 38.28125 8.296875 
L 54.390625 8.296875 
L 54.390625 0 
L 12.40625 0 
z
" id="DejaVuSans-31"/>
      </defs>
      <g transform="translate(8.825 44.904054)scale(0.1 -0.1)">
       <use xlink:href="#DejaVuSans-31"/>
       <use x="63.623047" xlink:href="#DejaVuSans-30"/>
       <use x="127.246094" xlink:href="#DejaVuSans-30"/>
       <use x="190.869141" xlink:href="#DejaVuSans-30"/>
       <use x="254.492188" xlink:href="#DejaVuSans-30"/>
       <use x="318.115234" xlink:href="#DejaVuSans-30"/>
      </g>
     </g>
    </g>
    <g id="text_13">
     <!-- Cumulative cancer incidence -->
     <defs>
      <path d="M 64.40625 67.28125 
L 64.40625 56.890625 
Q 59.421875 61.53125 53.78125 63.8125 
Q 48.140625 66.109375 41.796875 66.109375 
Q 29.296875 66.109375 22.65625 58.46875 
Q 16.015625 50.828125 16.015625 36.375 
Q 16.015625 21.96875 22.65625 14.328125 
Q 29.296875 6.6875 41.796875 6.6875 
Q 48.140625 6.6875 53.78125 8.984375 
Q 59.421875 11.28125 64.40625 15.921875 
L 64.40625 5.609375 
Q 59.234375 2.09375 53.4375 0.328125 
Q 47.65625 -1.421875 41.21875 -1.421875 
Q 24.65625 -1.421875 15.125 8.703125 
Q 5.609375 18.84375 5.609375 36.375 
Q 5.609375 53.953125 15.125 64.078125 
Q 24.65625 74.21875 41.21875 74.21875 
Q 47.75 74.21875 53.53125 72.484375 
Q 59.328125 70.75 64.40625 67.28125 
z
" id="DejaVuSans-43"/>
      <path d="M 8.5 21.578125 
L 8.5 54.6875 
L 17.484375 54.6875 
L 17.484375 21.921875 
Q 17.484375 14.15625 20.5 10.265625 
Q 23.53125 6.390625 29.59375 6.390625 
Q 36.859375 6.390625 41.078125 11.03125 
Q 45.3125 15.671875 45.3125 23.6875 
L 45.3125 54.6875 
L 54.296875 54.6875 
L 54.296875 0 
L 45.3125 0 
L 45.3125 8.40625 
Q 42.046875 3.421875 37.71875 1 
Q 33.40625 -1.421875 27.6875 -1.421875 
Q 18.265625 -1.421875 13.375 4.4375 
Q 8.5 10.296875 8.5 21.578125 
z
M 31.109375 56 
z
" id="DejaVuSans-75"/>
      <path d="M 52 44.1875 
Q 55.375 50.25 60.0625 53.125 
Q 64.75 56 71.09375 56 
Q 79.640625 56 84.28125 50.015625 
Q 88.921875 44.046875 88.921875 33.015625 
L 88.921875 0 
L 79.890625 0 
L 79.890625 32.71875 
Q 79.890625 40.578125 77.09375 44.375 
Q 74.3125 48.1875 68.609375 48.1875 
Q 61.625 48.1875 57.5625 43.546875 
Q 53.515625 38.921875 53.515625 30.90625 
L 53.515625 0 
L 44.484375 0 
L 44.484375 32.71875 
Q 44.484375 40.625 41.703125 44.40625 
Q 38.921875 48.1875 33.109375 48.1875 
Q 26.21875 48.1875 22.15625 43.53125 
Q 18.109375 38.875 18.109375 30.90625 
L 18.109375 0 
L 9.078125 0 
L 9.078125 54.6875 
L 18.109375 54.6875 
L 18.109375 46.1875 
Q 21.1875 51.21875 25.484375 53.609375 
Q 29.78125 56 35.6875 56 
Q 41.65625 56 45.828125 52.96875 
Q 50 49.953125 52 44.1875 
z
" id="DejaVuSans-6d"/>
      <path d="M 9.421875 75.984375 
L 18.40625 75.984375 
L 18.40625 0 
L 9.421875 0 
z
" id="DejaVuSans-6c"/>
      <path d="M 34.28125 27.484375 
Q 23.390625 27.484375 19.1875 25 
Q 14.984375 22.515625 14.984375 16.5 
Q 14.984375 11.71875 18.140625 8.90625 
Q 21.296875 6.109375 26.703125 6.109375 
Q 34.1875 6.109375 38.703125 11.40625 
Q 43.21875 16.703125 43.21875 25.484375 
L 43.21875 27.484375 
z
M 52.203125 31.203125 
L 52.203125 0 
L 43.21875 0 
L 43.21875 8.296875 
Q 40.140625 3.328125 35.546875 0.953125 
Q 30.953125 -1.421875 24.3125 -1.421875 
Q 15.921875 -1.421875 10.953125 3.296875 
Q 6 8.015625 6 15.921875 
Q 6 25.140625 12.171875 29.828125 
Q 18.359375 34.515625 30.609375 34.515625 
L 43.21875 34.515625 
L 43.21875 35.40625 
Q 43.21875 41.609375 39.140625 45 
Q 35.0625 48.390625 27.6875 48.390625 
Q 23 48.390625 18.546875 47.265625 
Q 14.109375 46.140625 10.015625 43.890625 
L 10.015625 52.203125 
Q 14.9375 54.109375 19.578125 55.046875 
Q 24.21875 56 28.609375 56 
Q 40.484375 56 46.34375 49.84375 
Q 52.203125 43.703125 52.203125 31.203125 
z
" id="DejaVuSans-61"/>
      <path d="M 18.3125 70.21875 
L 18.3125 54.6875 
L 36.8125 54.6875 
L 36.8125 47.703125 
L 18.3125 47.703125 
L 18.3125 18.015625 
Q 18.3125 11.328125 20.140625 9.421875 
Q 21.96875 7.515625 27.59375 7.515625 
L 36.8125 7.515625 
L 36.8125 0 
L 27.59375 0 
Q 17.1875 0 13.234375 3.875 
Q 9.28125 7.765625 9.28125 18.015625 
L 9.28125 47.703125 
L 2.6875 47.703125 
L 2.6875 54.6875 
L 9.28125 54.6875 
L 9.28125 70.21875 
z
" id="DejaVuSans-74"/>
      <path d="M 9.421875 54.6875 
L 18.40625 54.6875 
L 18.40625 0 
L 9.421875 0 
z
M 9.421875 75.984375 
L 18.40625 75.984375 
L 18.40625 64.59375 
L 9.421875 64.59375 
z
" id="DejaVuSans-69"/>
      <path d="M 2.984375 54.6875 
L 12.5 54.6875 
L 29.59375 8.796875 
L 46.6875 54.6875 
L 56.203125 54.6875 
L 35.6875 0 
L 23.484375 0 
z
" id="DejaVuSans-76"/>
      <path d="M 48.78125 52.59375 
L 48.78125 44.1875 
Q 44.96875 46.296875 41.140625 47.34375 
Q 37.3125 48.390625 33.40625 48.390625 
Q 24.65625 48.390625 19.8125 42.84375 
Q 14.984375 37.3125 14.984375 27.296875 
Q 14.984375 17.28125 19.8125 11.734375 
Q 24.65625 6.203125 33.40625 6.203125 
Q 37.3125 6.203125 41.140625 7.25 
Q 44.96875 8.296875 48.78125 10.40625 
L 48.78125 2.09375 
Q 45.015625 0.34375 40.984375 -0.53125 
Q 36.96875 -1.421875 32.421875 -1.421875 
Q 20.0625 -1.421875 12.78125 6.34375 
Q 5.515625 14.109375 5.515625 27.296875 
Q 5.515625 40.671875 12.859375 48.328125 
Q 20.21875 56 33.015625 56 
Q 37.15625 56 41.109375 55.140625 
Q 45.0625 54.296875 48.78125 52.59375 
z
" id="DejaVuSans-63"/>
      <path d="M 54.890625 33.015625 
L 54.890625 0 
L 45.90625 0 
L 45.90625 32.71875 
Q 45.90625 40.484375 42.875 44.328125 
Q 39.84375 48.1875 33.796875 48.1875 
Q 26.515625 48.1875 22.3125 43.546875 
Q 18.109375 38.921875 18.109375 30.90625 
L 18.109375 0 
L 9.078125 0 
L 9.078125 54.6875 
L 18.109375 54.6875 
L 18.109375 46.1875 
Q 21.34375 51.125 25.703125 53.5625 
Q 30.078125 56 35.796875 56 
Q 45.21875 56 50.046875 50.171875 
Q 54.890625 44.34375 54.890625 33.015625 
z
" id="DejaVuSans-6e"/>
      <path d="M 45.40625 46.390625 
L 45.40625 75.984375 
L 54.390625 75.984375 
L 54.390625 0 
L 45.40625 0 
L 45.40625 8.203125 
Q 42.578125 3.328125 38.25 0.953125 
Q 33.9375 -1.421875 27.875 -1.421875 
Q 17.96875 -1.421875 11.734375 6.484375 
Q 5.515625 14.40625 5.515625 27.296875 
Q 5.515625 40.1875 11.734375 48.09375 
Q 17.96875 56 27.875 56 
Q 33.9375 56 38.25 53.625 
Q 42.578125 51.265625 45.40625 46.390625 
z
M 14.796875 27.296875 
Q 14.796875 17.390625 18.875 11.75 
Q 22.953125 6.109375 30.078125 6.109375 
Q 37.203125 6.109375 41.296875 11.75 
Q 45.40625 17.390625 45.40625 27.296875 
Q 45.40625 37.203125 41.296875 42.84375 
Q 37.203125 48.484375 30.078125 48.484375 
Q 22.953125 48.484375 18.875 42.84375 
Q 14.796875 37.203125 14.796875 27.296875 
z
" id="DejaVuSans-64"/>
     </defs>
     <g transform="translate(2.745312 215.800313)rotate(-90)scale(0.1 -0.1)">
      <use xlink:href="#DejaVuSans-43"/>
      <use x="69.824219" xlink:href="#DejaVuSans-75"/>
      <use x="133.203125" xlink:href="#DejaVuSans-6d"/>
      <use x="230.615234" xlink:href="#DejaVuSans-75"/>
      <use x="293.994141" xlink:href="#DejaVuSans-6c"/>
      <use x="321.777344" xlink:href="#DejaVuSans-61"/>
      <use x="383.056641" xlink:href="#DejaVuSans-74"/>
      <use x="422.265625" xlink:href="#DejaVuSans-69"/>
      <use x="450.048828" xlink:href="#DejaVuSans-76"/>
      <use x="509.228516" xlink:href="#DejaVuSans-65"/>
      <use x="570.751953" xlink:href="#DejaVuSans-20"/>
      <use x="602.539062" xlink:href="#DejaVuSans-63"/>
      <use x="657.519531" xlink:href="#DejaVuSans-61"/>
      <use x="718.798828" xlink:href="#DejaVuSans-6e"/>
      <use x="782.177734" xlink:href="#DejaVuSans-63"/>
      <use x="837.158203" xlink:href="#DejaVuSans-65"/>
      <use x="898.681641" xlink:href="#DejaVuSans-72"/>
      <use x="939.794922" xlink:href="#DejaVuSans-20"/>
      <use x="971.582031" xlink:href="#DejaVuSans-69"/>
      <use x="999.365234" xlink:href="#DejaVuSans-6e"/>
      <use x="1062.744141" xlink:href="#DejaVuSans-63"/>
      <use x="1117.724609" xlink:href="#DejaVuSans-69"/>
      <use x="1145.507812" xlink:href="#DejaVuSans-64"/>
      <use x="1208.984375" xlink:href="#DejaVuSans-65"/>
      <use x="1270.507812" xlink:href="#DejaVuSans-6e"/>
      <use x="1333.886719" xlink:href="#DejaVuSans-63"/>
      <use x="1388.867188" xlink:href="#DejaVuSans-65"/>
     </g>
    </g>
   </g>
   <g id="line2d_12">
    <path clip-path="url(#pc1d2e31e7c)" d="M 69.218182 242.116364 
L 72.637998 242.116364 
L 76.057814 242.116364 
L 79.47763 242.116364 
L 82.897446 242.116364 
L 86.317263 242.116364 
L 89.737079 242.116364 
L 93.156895 242.116364 
L 96.576711 242.116364 
L 99.996527 242.116364 
L 103.416343 242.116364 
L 106.836159 242.116364 
L 110.255975 242.116364 
L 113.675792 242.116364 
L 117.095608 242.116364 
L 120.515424 242.116364 
L 123.93524 242.116364 
L 127.355056 242.116364 
L 130.774872 242.116364 
L 134.194688 242.116364 
L 137.614505 242.116364 
L 141.034321 242.116364 
L 144.454137 242.116364 
L 147.873953 242.116364 
L 151.293769 242.116364 
L 154.713585 242.116364 
L 158.133401 242.116364 
L 161.553218 242.116364 
L 164.973034 242.116364 
L 168.39285 242.112343 
L 171.812666 242.106313 
L 175.232482 242.080182 
L 178.652298 241.985706 
L 182.072114 241.818867 
L 185.491931 241.511319 
L 188.911747 240.962557 
L 192.331563 240.118309 
L 195.751379 238.839876 
L 199.171195 237.151379 
L 202.591011 234.825675 
L 206.010827 231.959251 
L 209.430644 228.355114 
L 212.85046 224.413278 
L 216.270276 219.74378 
L 219.690092 214.85116 
L 223.109908 209.321333 
L 226.529724 203.403553 
L 229.94954 197.097822 
L 233.369356 190.554896 
L 236.789173 183.545624 
L 240.208989 176.405695 
L 243.628805 169.303958 
L 247.048621 162.174079 
L 250.468437 155.088422 
L 253.888253 148.189707 
L 257.308069 141.473911 
L 260.727886 134.868673 
L 264.147702 128.36394 
L 267.567518 122.120521 
L 270.987334 115.971579 
L 274.40715 110.23471 
L 277.826966 104.934036 
L 281.246782 99.796181 
L 284.666599 94.911601 
L 288.086415 90.519499 
L 291.506231 86.18569 
L 294.926047 82.426775 
L 298.345863 78.744244 
L 301.765679 75.128046 
L 305.185495 71.933973 
L 308.605312 69.147953 
L 312.025128 66.500631 
L 315.444944 63.957836 
L 318.86476 61.694446 
L 322.284576 59.664229 
L 325.704392 57.716428 
L 329.124208 55.955567 
L 332.544025 54.425869 
L 335.963841 53.107233 
L 339.383657 51.844881 
L 342.803473 50.699115 
L 346.223289 49.688027 
L 349.643105 48.751313 
L 353.062921 47.951288 
L 356.482737 47.181413 
L 359.902554 46.516065 
L 363.32237 45.933132 
L 366.742186 45.398441 
L 370.162002 44.903953 
L 373.581818 44.473788 
" style="fill:none;stroke:#1f77b4;stroke-linecap:square;stroke-width:1.5;"/>
   </g>
   <g id="line2d_13">
    <path clip-path="url(#pc1d2e31e7c)" d="M 69.218182 242.116364 
L 72.637998 242.116364 
L 76.057814 242.116364 
L 79.47763 242.116364 
L 82.897446 242.116364 
L 86.317263 242.116364 
L 89.737079 242.116364 
L 93.156895 242.116364 
L 96.576711 242.116364 
L 99.996527 242.116364 
L 103.416343 242.116364 
L 106.836159 242.116364 
L 110.255975 242.116364 
L 113.675792 242.116364 
L 117.095608 242.116364 
L 120.515424 242.116364 
L 123.93524 242.116364 
L 127.355056 242.116364 
L 130.774872 242.116364 
L 134.194688 242.116364 
L 137.614505 242.116364 
L 141.034321 242.116364 
L 144.454137 242.116364 
L 147.873953 242.116364 
L 151.293769 242.116364 
L 154.713585 242.116364 
L 158.133401 242.116364 
L 161.553218 242.116364 
L 164.973034 242.116364 
L 168.39285 242.114354 
L 171.812666 242.102293 
L 175.232482 242.086212 
L 178.652298 242.015858 
L 182.072114 241.88319 
L 185.491931 241.603784 
L 188.911747 241.091205 
L 192.331563 240.228865 
L 195.751379 238.970533 
L 199.171195 237.278016 
L 202.591011 235.167395 
L 206.010827 232.524093 
L 209.430644 229.14308 
L 212.85046 225.169082 
L 216.270276 220.706626 
L 219.690092 215.631085 
L 223.109908 210.091207 
L 226.529724 204.165387 
L 229.94954 197.950111 
L 233.369356 191.274518 
L 236.789173 184.50847 
L 240.208989 177.565531 
L 243.628805 170.3854 
L 247.048621 163.163055 
L 250.468437 156.250269 
L 253.888253 148.915358 
L 257.308069 142.177452 
L 260.727886 135.35512 
L 264.147702 128.788074 
L 267.567518 122.556716 
L 270.987334 116.391693 
L 274.40715 110.459843 
L 277.826966 105.261685 
L 281.246782 99.965031 
L 284.666599 95.108592 
L 288.086415 90.555681 
L 291.506231 86.324388 
L 294.926047 82.288077 
L 298.345863 78.607556 
L 301.765679 75.359209 
L 305.185495 72.269662 
L 308.605312 69.26052 
L 312.025128 66.64938 
L 315.444944 64.174928 
L 318.86476 61.813043 
L 322.284576 59.636088 
L 325.704392 57.734519 
L 329.124208 55.983708 
L 332.544025 54.530395 
L 335.963841 53.155476 
L 339.383657 51.8288 
L 342.803473 50.705145 
L 346.223289 49.635764 
L 349.643105 48.763374 
L 353.062921 47.957318 
L 356.482737 47.193474 
L 359.902554 46.481893 
L 363.32237 45.886899 
L 366.742186 45.354219 
L 370.162002 44.893902 
L 373.581818 44.443636 
" style="fill:none;stroke:#ff7f0e;stroke-linecap:square;stroke-width:1.5;"/>
   </g>
   <g id="line2d_14">
    <path clip-path="url(#pc1d2e31e7c)" d="M 69.218182 242.116364 
L 72.637998 242.116364 
L 76.057814 242.116364 
L 79.47763 242.116364 
L 82.897446 242.116364 
L 86.317263 242.116364 
L 89.737079 242.116364 
L 93.156895 242.116364 
L 96.576711 242.116364 
L 99.996527 242.116364 
L 103.416343 242.116364 
L 106.836159 242.116364 
L 110.255975 242.116364 
L 113.675792 242.116364 
L 117.095608 242.116364 
L 120.515424 242.116364 
L 123.93524 242.116364 
L 127.355056 242.116364 
L 130.774872 242.116364 
L 134.194688 242.116364 
L 137.614505 242.116364 
L 141.034321 242.116364 
L 144.454137 242.116364 
L 147.873953 242.116364 
L 151.293769 242.116364 
L 154.713585 242.116364 
L 158.133401 242.116364 
L 161.553218 242.116364 
L 164.973034 242.116364 
L 168.39285 242.114354 
L 171.812666 242.106313 
L 175.232482 242.080182 
L 178.652298 242.031939 
L 182.072114 241.923393 
L 185.491931 241.730422 
L 188.911747 241.264075 
L 192.331563 240.498221 
L 195.751379 239.334364 
L 199.171195 237.828788 
L 202.591011 235.905107 
L 206.010827 233.372362 
L 209.430644 230.339098 
L 212.85046 226.602294 
L 216.270276 222.280546 
L 219.690092 217.544714 
L 223.109908 212.151575 
L 226.529724 206.48707 
L 229.94954 200.364259 
L 233.369356 193.722838 
L 236.789173 187.141721 
L 240.208989 180.096267 
L 243.628805 173.056843 
L 247.048621 165.85058 
L 250.468437 158.781004 
L 253.888253 151.970733 
L 257.308069 144.903168 
L 260.727886 138.110989 
L 264.147702 131.549972 
L 267.567518 125.22615 
L 270.987334 119.059116 
L 274.40715 113.052891 
L 277.826966 107.324063 
L 281.246782 101.955045 
L 284.666599 97.048353 
L 288.086415 92.264279 
L 291.506231 88.107361 
L 294.926047 83.984614 
L 298.345863 80.119162 
L 301.765679 76.553218 
L 305.185495 73.335023 
L 308.605312 70.249496 
L 312.025128 67.451416 
L 315.444944 64.850327 
L 318.86476 62.550755 
L 322.284576 60.305456 
L 325.704392 58.385796 
L 329.124208 56.566642 
L 332.544025 55.051015 
L 335.963841 53.662025 
L 339.383657 52.35545 
L 342.803473 51.159432 
L 346.223289 50.08603 
L 349.643105 49.080972 
L 353.062921 48.17441 
L 356.482737 47.406546 
L 359.902554 46.698986 
L 363.32237 46.07987 
L 366.742186 45.583372 
L 370.162002 45.054711 
L 373.581818 44.634597 
" style="fill:none;stroke:#2ca02c;stroke-linecap:square;stroke-width:1.5;"/>
   </g>
   <g id="line2d_15">
    <path clip-path="url(#pc1d2e31e7c)" d="M 69.218182 242.116364 
L 72.637998 242.116364 
L 76.057814 242.116364 
L 79.47763 242.116364 
L 82.897446 242.116364 
L 86.317263 242.116364 
L 89.737079 242.116364 
L 93.156895 242.116364 
L 96.576711 242.116364 
L 99.996527 242.116364 
L 103.416343 242.116364 
L 106.836159 242.116364 
L 110.255975 242.116364 
L 113.675792 242.116364 
L 117.095608 242.116364 
L 120.515424 242.116364 
L 123.93524 242.116364 
L 127.355056 242.116364 
L 130.774872 242.116364 
L 134.194688 242.116364 
L 137.614505 242.116364 
L 141.034321 242.116364 
L 144.454137 242.116364 
L 147.873953 242.116364 
L 151.293769 242.116364 
L 154.713585 242.116364 
L 158.133401 242.116364 
L 161.553218 242.116364 
L 164.973034 242.116364 
L 168.39285 242.116364 
L 171.812666 242.116364 
L 175.232482 242.116364 
L 178.652298 242.098273 
L 182.072114 242.05204 
L 185.491931 241.943494 
L 188.911747 241.690219 
L 192.331563 241.213822 
L 195.751379 240.49219 
L 199.171195 239.416779 
L 202.591011 237.901152 
L 206.010827 235.862895 
L 209.430644 233.285927 
L 212.85046 230.220501 
L 216.270276 226.449525 
L 219.690092 222.139838 
L 223.109908 217.339683 
L 226.529724 212.203838 
L 229.94954 206.267968 
L 233.369356 200.20144 
L 236.789173 193.716808 
L 240.208989 187.035185 
L 243.628805 180.052044 
L 247.048621 173.141268 
L 250.468437 166.073702 
L 253.888253 158.795075 
L 257.308069 151.751631 
L 260.727886 144.790602 
L 264.147702 138.000432 
L 267.567518 131.294688 
L 270.987334 124.783924 
L 274.40715 118.729457 
L 277.826966 112.86193 
L 281.246782 107.09692 
L 284.666599 101.69976 
L 288.086415 96.662411 
L 291.506231 91.848185 
L 294.926047 87.40382 
L 298.345863 83.359468 
L 301.765679 79.526178 
L 305.185495 75.948173 
L 308.605312 72.643544 
L 312.025128 69.799231 
L 315.444944 66.987079 
L 318.86476 64.576951 
L 322.284576 62.339693 
L 325.704392 60.257213 
L 329.124208 58.345594 
L 332.544025 56.639006 
L 335.963841 55.059055 
L 339.383657 53.660015 
L 342.803473 52.391632 
L 346.223289 51.276018 
L 349.643105 50.210657 
L 353.062921 49.21967 
L 356.482737 48.34326 
L 359.902554 47.519113 
L 363.32237 46.77738 
L 366.742186 46.103992 
L 370.162002 45.537139 
L 373.581818 45.046671 
" style="fill:none;stroke:#d62728;stroke-linecap:square;stroke-width:1.5;"/>
   </g>
   <g id="line2d_16">
    <path clip-path="url(#pc1d2e31e7c)" d="M 69.218182 242.116364 
L 72.637998 242.116364 
L 76.057814 242.116364 
L 79.47763 242.116364 
L 82.897446 242.116364 
L 86.317263 242.116364 
L 89.737079 242.116364 
L 93.156895 242.116364 
L 96.576711 242.116364 
L 99.996527 242.116364 
L 103.416343 242.116364 
L 106.836159 242.116364 
L 110.255975 242.116364 
L 113.675792 242.116364 
L 117.095608 242.116364 
L 120.515424 242.116364 
L 123.93524 242.116364 
L 127.355056 242.116364 
L 130.774872 242.116364 
L 134.194688 242.116364 
L 137.614505 242.116364 
L 141.034321 242.116364 
L 144.454137 242.116364 
L 147.873953 242.116364 
L 151.293769 242.116364 
L 154.713585 242.116364 
L 158.133401 242.116364 
L 161.553218 242.116364 
L 164.973034 242.116364 
L 168.39285 242.116364 
L 171.812666 242.116364 
L 175.232482 242.116364 
L 178.652298 242.116364 
L 182.072114 242.114354 
L 185.491931 242.102293 
L 188.911747 242.078171 
L 192.331563 242.037969 
L 195.751379 241.953544 
L 199.171195 241.748513 
L 202.591011 241.455036 
L 206.010827 240.964568 
L 209.430644 240.182633 
L 212.85046 238.994655 
L 216.270276 237.366461 
L 219.690092 235.225688 
L 223.109908 232.558265 
L 226.529724 229.334041 
L 229.94954 225.623368 
L 233.369356 221.388055 
L 236.789173 216.648203 
L 240.208989 211.335468 
L 243.628805 205.506134 
L 247.048621 199.194372 
L 250.468437 192.615265 
L 253.888253 185.883388 
L 257.308069 179.129401 
L 260.727886 172.148271 
L 264.147702 165.126938 
L 267.567518 158.047312 
L 270.987334 150.917433 
L 274.40715 143.847858 
L 277.826966 137.154174 
L 281.246782 130.822311 
L 284.666599 124.371851 
L 288.086415 118.307333 
L 291.506231 112.429756 
L 294.926047 106.980333 
L 298.345863 101.900772 
L 301.765679 96.913676 
L 305.185495 92.254228 
L 308.605312 87.842025 
L 312.025128 83.789633 
L 315.444944 79.952323 
L 318.86476 76.334115 
L 322.284576 72.945061 
L 325.704392 70.181153 
L 329.124208 67.511719 
L 332.544025 64.995055 
L 335.963841 62.64322 
L 339.383657 60.504458 
L 342.803473 58.526504 
L 346.223289 56.781724 
L 349.643105 55.181672 
L 353.062921 53.653985 
L 356.482737 52.333339 
L 359.902554 51.221745 
L 363.32237 50.190556 
L 366.742186 49.255852 
L 370.162002 48.365371 
L 373.581818 47.623639 
" style="fill:none;stroke:#9467bd;stroke-linecap:square;stroke-width:1.5;"/>
   </g>
   <g id="line2d_17">
    <path clip-path="url(#pc1d2e31e7c)" d="M 69.218182 242.116364 
L 72.637998 242.116364 
L 76.057814 242.116364 
L 79.47763 242.116364 
L 82.897446 242.116364 
L 86.317263 242.116364 
L 89.737079 242.116364 
L 93.156895 242.116364 
L 96.576711 242.116364 
L 99.996527 242.116364 
L 103.416343 242.116364 
L 106.836159 242.116364 
L 110.255975 242.116364 
L 113.675792 242.116364 
L 117.095608 242.116364 
L 120.515424 242.116364 
L 123.93524 242.116364 
L 127.355056 242.116364 
L 130.774872 242.116364 
L 134.194688 242.116364 
L 137.614505 242.116364 
L 141.034321 242.116364 
L 144.454137 242.116364 
L 147.873953 242.116364 
L 151.293769 242.116364 
L 154.713585 242.116364 
L 158.133401 242.116364 
L 161.553218 242.116364 
L 164.973034 242.116364 
L 168.39285 242.116364 
L 171.812666 242.116364 
L 175.232482 242.116364 
L 178.652298 242.116364 
L 182.072114 242.116364 
L 185.491931 242.116364 
L 188.911747 242.116364 
L 192.331563 242.116364 
L 195.751379 242.116364 
L 199.171195 242.116364 
L 202.591011 242.116364 
L 206.010827 242.116364 
L 209.430644 242.116364 
L 212.85046 242.116364 
L 216.270276 242.116364 
L 219.690092 242.116364 
L 223.109908 242.116364 
L 226.529724 242.116364 
L 229.94954 242.116364 
L 233.369356 242.116364 
L 236.789173 242.116364 
L 240.208989 242.116364 
L 243.628805 242.116364 
L 247.048621 242.116364 
L 250.468437 242.116364 
L 253.888253 242.116364 
L 257.308069 242.116364 
L 260.727886 242.116364 
L 264.147702 242.116364 
L 267.567518 242.116364 
L 270.987334 242.116364 
L 274.40715 242.116364 
L 277.826966 242.116364 
L 281.246782 242.116364 
L 284.666599 242.116364 
L 288.086415 242.116364 
L 291.506231 242.116364 
L 294.926047 242.116364 
L 298.345863 242.116364 
L 301.765679 242.116364 
L 305.185495 242.116364 
L 308.605312 242.116364 
L 312.025128 242.116364 
L 315.444944 242.116364 
L 318.86476 242.116364 
L 322.284576 242.116364 
L 325.704392 242.116364 
L 329.124208 242.116364 
L 332.544025 242.116364 
L 335.963841 242.116364 
L 339.383657 242.116364 
L 342.803473 242.116364 
L 346.223289 242.116364 
L 349.643105 242.116364 
L 353.062921 242.116364 
L 356.482737 242.116364 
L 359.902554 242.116364 
L 363.32237 242.116364 
L 366.742186 242.116364 
L 370.162002 242.116364 
L 373.581818 242.116364 
" style="fill:none;stroke:#8c564b;stroke-linecap:square;stroke-width:1.5;"/>
   </g>
   <g id="line2d_18">
    <path clip-path="url(#pc1d2e31e7c)" d="M 69.218182 242.116364 
L 72.637998 242.116364 
L 76.057814 242.116364 
L 79.47763 242.116364 
L 82.897446 242.116364 
L 86.317263 242.116364 
L 89.737079 242.116364 
L 93.156895 242.116364 
L 96.576711 242.116364 
L 99.996527 242.116364 
L 103.416343 242.116364 
L 106.836159 242.116364 
L 110.255975 242.116364 
L 113.675792 242.116364 
L 117.095608 242.116364 
L 120.515424 242.116364 
L 123.93524 242.116364 
L 127.355056 242.116364 
L 130.774872 242.116364 
L 134.194688 242.116364 
L 137.614505 242.116364 
L 141.034321 242.116364 
L 144.454137 242.116364 
L 147.873953 242.116364 
L 151.293769 242.116364 
L 154.713585 242.116364 
L 158.133401 242.116364 
L 161.553218 242.116364 
L 164.973034 242.116364 
L 168.39285 242.116364 
L 171.812666 242.116364 
L 175.232482 242.116364 
L 178.652298 242.116364 
L 182.072114 242.116364 
L 185.491931 242.116364 
L 188.911747 242.116364 
L 192.331563 242.116364 
L 195.751379 242.116364 
L 199.171195 242.116364 
L 202.591011 242.116364 
L 206.010827 242.116364 
L 209.430644 242.116364 
L 212.85046 242.116364 
L 216.270276 242.116364 
L 219.690092 242.116364 
L 223.109908 242.116364 
L 226.529724 242.116364 
L 229.94954 242.116364 
L 233.369356 242.116364 
L 236.789173 242.116364 
L 240.208989 242.116364 
L 243.628805 242.116364 
L 247.048621 242.116364 
L 250.468437 242.116364 
L 253.888253 242.116364 
L 257.308069 242.116364 
L 260.727886 242.116364 
L 264.147702 242.116364 
L 267.567518 242.116364 
L 270.987334 242.116364 
L 274.40715 242.116364 
L 277.826966 242.116364 
L 281.246782 242.116364 
L 284.666599 242.116364 
L 288.086415 242.116364 
L 291.506231 242.116364 
L 294.926047 242.116364 
L 298.345863 242.116364 
L 301.765679 242.116364 
L 305.185495 242.116364 
L 308.605312 242.116364 
L 312.025128 242.116364 
L 315.444944 242.116364 
L 318.86476 242.116364 
L 322.284576 242.116364 
L 325.704392 242.116364 
L 329.124208 242.116364 
L 332.544025 242.116364 
L 335.963841 242.116364 
L 339.383657 242.116364 
L 342.803473 242.116364 
L 346.223289 242.116364 
L 349.643105 242.116364 
L 353.062921 242.116364 
L 356.482737 242.116364 
L 359.902554 242.116364 
L 363.32237 242.116364 
L 366.742186 242.116364 
L 370.162002 242.116364 
L 373.581818 242.116364 
" style="fill:none;stroke:#e377c2;stroke-linecap:square;stroke-width:1.5;"/>
   </g>
   <g id="patch_3">
    <path d="M 54 252 
L 54 34.56 
" style="fill:none;stroke:#000000;stroke-linecap:square;stroke-linejoin:miter;stroke-width:0.8;"/>
   </g>
   <g id="patch_4">
    <path d="M 388.8 252 
L 388.8 34.56 
" style="fill:none;stroke:#000000;stroke-linecap:square;stroke-linejoin:miter;stroke-width:0.8;"/>
   </g>
   <g id="patch_5">
    <path d="M 54 252 
L 388.8 252 
" style="fill:none;stroke:#000000;stroke-linecap:square;stroke-linejoin:miter;stroke-width:0.8;"/>
   </g>
   <g id="patch_6">
    <path d="M 54 34.56 
L 388.8 34.56 
" style="fill:none;stroke:#000000;stroke-linecap:square;stroke-linejoin:miter;stroke-width:0.8;"/>
   </g>
   <g id="legend_1">
    <g id="patch_7">
     <path d="M 61 145.306875 
L 103.9 145.306875 
Q 105.9 145.306875 105.9 143.306875 
L 105.9 41.56 
Q 105.9 39.56 103.9 39.56 
L 61 39.56 
Q 59 39.56 59 41.56 
L 59 143.306875 
Q 59 145.306875 61 145.306875 
z
" style="fill:#ffffff;opacity:0.8;stroke:#cccccc;stroke-linejoin:miter;"/>
    </g>
    <g id="line2d_19">
     <path d="M 63 47.658437 
L 83 47.658437 
" style="fill:none;stroke:#1f77b4;stroke-linecap:square;stroke-width:1.5;"/>
    </g>
    <g id="line2d_20"/>
    <g id="text_14">
     <!-- $\delta_{1}$ -->
     <defs>
      <path d="M 54.25 63.328125 
Q 49.953125 66.75 38.28125 66.75 
Q 25.921875 66.75 24.8125 61.03125 
Q 23.921875 56.546875 36.375 54.203125 
Q 46.140625 52.390625 50.828125 46.921875 
Q 56.5 40.328125 53.859375 26.8125 
Q 51.3125 13.875 43.171875 6.25 
Q 34.96875 -1.421875 23.25 -1.421875 
Q 11.578125 -1.421875 6.34375 6.25 
Q 1.125 13.875 3.765625 27.296875 
Q 5.671875 37.25 13.921875 45.3125 
Q 17.140625 48.4375 21.140625 50.203125 
Q 14.265625 54.046875 15.625 60.9375 
Q 18.21875 74.21875 39.75 74.21875 
Q 50.53125 74.21875 55.71875 70.796875 
z
M 27.390625 47.75 
Q 23.828125 46.34375 20.40625 42.78125 
Q 15.140625 37.25 13.234375 27.296875 
Q 11.28125 17.390625 14.359375 11.8125 
Q 17.484375 6.203125 24.75 6.203125 
Q 31.9375 6.203125 37.203125 11.859375 
Q 42.53125 17.53125 44.34375 26.8125 
Q 46.1875 36.53125 42.671875 41.21875 
Q 38.921875 46.234375 32.859375 46.78125 
Q 29.78125 47.078125 27.390625 47.75 
z
" id="DejaVuSans-Oblique-3b4"/>
     </defs>
     <g transform="translate(91 51.158437)scale(0.1 -0.1)">
      <use transform="translate(0 0.78125)" xlink:href="#DejaVuSans-Oblique-3b4"/>
      <use transform="translate(61.181641 -15.625)scale(0.7)" xlink:href="#DejaVuSans-31"/>
     </g>
    </g>
    <g id="line2d_21">
     <path d="M 63 62.336563 
L 83 62.336563 
" style="fill:none;stroke:#ff7f0e;stroke-linecap:square;stroke-width:1.5;"/>
    </g>
    <g id="line2d_22"/>
    <g id="text_15">
     <!-- $\delta_{2}$ -->
     <g transform="translate(91 65.836563)scale(0.1 -0.1)">
      <use transform="translate(0 0.78125)" xlink:href="#DejaVuSans-Oblique-3b4"/>
      <use transform="translate(61.181641 -15.625)scale(0.7)" xlink:href="#DejaVuSans-32"/>
     </g>
    </g>
    <g id="line2d_23">
     <path d="M 63 77.014687 
L 83 77.014687 
" style="fill:none;stroke:#2ca02c;stroke-linecap:square;stroke-width:1.5;"/>
    </g>
    <g id="line2d_24"/>
    <g id="text_16">
     <!-- $\delta_{3}$ -->
     <defs>
      <path d="M 40.578125 39.3125 
Q 47.65625 37.796875 51.625 33 
Q 55.609375 28.21875 55.609375 21.1875 
Q 55.609375 10.40625 48.1875 4.484375 
Q 40.765625 -1.421875 27.09375 -1.421875 
Q 22.515625 -1.421875 17.65625 -0.515625 
Q 12.796875 0.390625 7.625 2.203125 
L 7.625 11.71875 
Q 11.71875 9.328125 16.59375 8.109375 
Q 21.484375 6.890625 26.8125 6.890625 
Q 36.078125 6.890625 40.9375 10.546875 
Q 45.796875 14.203125 45.796875 21.1875 
Q 45.796875 27.640625 41.28125 31.265625 
Q 36.765625 34.90625 28.71875 34.90625 
L 20.21875 34.90625 
L 20.21875 43.015625 
L 29.109375 43.015625 
Q 36.375 43.015625 40.234375 45.921875 
Q 44.09375 48.828125 44.09375 54.296875 
Q 44.09375 59.90625 40.109375 62.90625 
Q 36.140625 65.921875 28.71875 65.921875 
Q 24.65625 65.921875 20.015625 65.03125 
Q 15.375 64.15625 9.8125 62.3125 
L 9.8125 71.09375 
Q 15.4375 72.65625 20.34375 73.4375 
Q 25.25 74.21875 29.59375 74.21875 
Q 40.828125 74.21875 47.359375 69.109375 
Q 53.90625 64.015625 53.90625 55.328125 
Q 53.90625 49.265625 50.4375 45.09375 
Q 46.96875 40.921875 40.578125 39.3125 
z
" id="DejaVuSans-33"/>
     </defs>
     <g transform="translate(91 80.514687)scale(0.1 -0.1)">
      <use transform="translate(0 0.78125)" xlink:href="#DejaVuSans-Oblique-3b4"/>
      <use transform="translate(61.181641 -15.625)scale(0.7)" xlink:href="#DejaVuSans-33"/>
     </g>
    </g>
    <g id="line2d_25">
     <path d="M 63 91.692813 
L 83 91.692813 
" style="fill:none;stroke:#d62728;stroke-linecap:square;stroke-width:1.5;"/>
    </g>
    <g id="line2d_26"/>
    <g id="text_17">
     <!-- $\delta_{4}$ -->
     <g transform="translate(91 95.192813)scale(0.1 -0.1)">
      <use transform="translate(0 0.78125)" xlink:href="#DejaVuSans-Oblique-3b4"/>
      <use transform="translate(61.181641 -15.625)scale(0.7)" xlink:href="#DejaVuSans-34"/>
     </g>
    </g>
    <g id="line2d_27">
     <path d="M 63 106.370937 
L 83 106.370937 
" style="fill:none;stroke:#9467bd;stroke-linecap:square;stroke-width:1.5;"/>
    </g>
    <g id="line2d_28"/>
    <g id="text_18">
     <!-- $\delta_{5}$ -->
     <defs>
      <path d="M 10.796875 72.90625 
L 49.515625 72.90625 
L 49.515625 64.59375 
L 19.828125 64.59375 
L 19.828125 46.734375 
Q 21.96875 47.46875 24.109375 47.828125 
Q 26.265625 48.1875 28.421875 48.1875 
Q 40.625 48.1875 47.75 41.5 
Q 54.890625 34.8125 54.890625 23.390625 
Q 54.890625 11.625 47.5625 5.09375 
Q 40.234375 -1.421875 26.90625 -1.421875 
Q 22.3125 -1.421875 17.546875 -0.640625 
Q 12.796875 0.140625 7.71875 1.703125 
L 7.71875 11.625 
Q 12.109375 9.234375 16.796875 8.0625 
Q 21.484375 6.890625 26.703125 6.890625 
Q 35.15625 6.890625 40.078125 11.328125 
Q 45.015625 15.765625 45.015625 23.390625 
Q 45.015625 31 40.078125 35.4375 
Q 35.15625 39.890625 26.703125 39.890625 
Q 22.75 39.890625 18.8125 39.015625 
Q 14.890625 38.140625 10.796875 36.28125 
z
" id="DejaVuSans-35"/>
     </defs>
     <g transform="translate(91 109.870937)scale(0.1 -0.1)">
      <use transform="translate(0 0.78125)" xlink:href="#DejaVuSans-Oblique-3b4"/>
      <use transform="translate(61.181641 -15.625)scale(0.7)" xlink:href="#DejaVuSans-35"/>
     </g>
    </g>
    <g id="line2d_29">
     <path d="M 63 121.049062 
L 83 121.049062 
" style="fill:none;stroke:#8c564b;stroke-linecap:square;stroke-width:1.5;"/>
    </g>
    <g id="line2d_30"/>
    <g id="text_19">
     <!-- $\delta_{6}$ -->
     <g transform="translate(91 124.549062)scale(0.1 -0.1)">
      <use transform="translate(0 0.78125)" xlink:href="#DejaVuSans-Oblique-3b4"/>
      <use transform="translate(61.181641 -15.625)scale(0.7)" xlink:href="#DejaVuSans-36"/>
     </g>
    </g>
    <g id="line2d_31">
     <path d="M 63 135.727187 
L 83 135.727187 
" style="fill:none;stroke:#e377c2;stroke-linecap:square;stroke-width:1.5;"/>
    </g>
    <g id="line2d_32"/>
    <g id="text_20">
     <!-- $\delta_{7}$ -->
     <defs>
      <path d="M 8.203125 72.90625 
L 55.078125 72.90625 
L 55.078125 68.703125 
L 28.609375 0 
L 18.3125 0 
L 43.21875 64.59375 
L 8.203125 64.59375 
z
" id="DejaVuSans-37"/>
     </defs>
     <g transform="translate(91 139.227187)scale(0.1 -0.1)">
      <use transform="translate(0 0.78125)" xlink:href="#DejaVuSans-Oblique-3b4"/>
      <use transform="translate(61.181641 -15.625)scale(0.7)" xlink:href="#DejaVuSans-37"/>
     </g>
    </g>
   </g>
  </g>
 </g>
 <defs>
  <clipPath id="pc1d2e31e7c">
   <rect height="217.44" width="334.8" x="54" y="34.56"/>
  </clipPath>
 </defs>
</svg>
