<?xml version="1.0" encoding="utf-8" standalone="no"?>
<!DOCTYPE svg PUBLIC "-//W3C//DTD SVG 1.1//EN"
  "http://www.w3.org/Graphics/SVG/1.1/DTD/svg11.dtd">
<!-- Created with matplotlib (http://matplotlib.org/) -->
<svg height="288pt" version="1.1" viewBox="0 0 1224 288" width="1224pt" xmlns="http://www.w3.org/2000/svg" xmlns:xlink="http://www.w3.org/1999/xlink">
 <defs>
  <style type="text/css">
*{stroke-linecap:butt;stroke-linejoin:round;}
  </style>
 </defs>
 <g id="figure_1">
  <g id="patch_1">
   <path d="M 0 288 
L 1224 288 
L 1224 0 
L 0 0 
z
" style="fill:#ffffff;"/>
  </g>
  <g id="axes_1">
   <g id="patch_2">
    <path d="M 37.675 257.7 
L 305.686997 257.7 
L 305.686997 26.8 
L 37.675 26.8 
z
" style="fill:#eaeaf2;"/>
   </g>
   <g id="matplotlib.axis_1">
    <g id="xtick_1">
     <g id="line2d_1">
      <path clip-path="url(#pd785f85d8f)" d="M 49.857364 257.7 
L 49.857364 26.8 
" style="fill:none;stroke:#ffffff;stroke-linecap:round;"/>
     </g>
     <g id="text_1">
      <!-- 0 -->
      <defs>
       <path d="M 31.78125 66.40625 
Q 24.171875 66.40625 20.328125 58.90625 
Q 16.5 51.421875 16.5 36.375 
Q 16.5 21.390625 20.328125 13.890625 
Q 24.171875 6.390625 31.78125 6.390625 
Q 39.453125 6.390625 43.28125 13.890625 
Q 47.125 21.390625 47.125 36.375 
Q 47.125 51.421875 43.28125 58.90625 
Q 39.453125 66.40625 31.78125 66.40625 
z
M 31.78125 74.21875 
Q 44.046875 74.21875 50.515625 64.515625 
Q 56.984375 54.828125 56.984375 36.375 
Q 56.984375 17.96875 50.515625 8.265625 
Q 44.046875 -1.421875 31.78125 -1.421875 
Q 19.53125 -1.421875 13.0625 8.265625 
Q 6.59375 17.96875 6.59375 36.375 
Q 6.59375 54.828125 13.0625 64.515625 
Q 19.53125 74.21875 31.78125 74.21875 
z
" id="DejaVuSans-30"/>
      </defs>
      <g style="fill:#262626;" transform="translate(46.357989 275.558281)scale(0.11 -0.11)">
       <use xlink:href="#DejaVuSans-30"/>
      </g>
     </g>
    </g>
    <g id="xtick_2">
     <g id="line2d_2">
      <path clip-path="url(#pd785f85d8f)" d="M 91.579215 257.7 
L 91.579215 26.8 
" style="fill:none;stroke:#ffffff;stroke-linecap:round;"/>
     </g>
     <g id="text_2">
      <!-- 5000 -->
      <defs>
       <path d="M 10.796875 72.90625 
L 49.515625 72.90625 
L 49.515625 64.59375 
L 19.828125 64.59375 
L 19.828125 46.734375 
Q 21.96875 47.46875 24.109375 47.828125 
Q 26.265625 48.1875 28.421875 48.1875 
Q 40.625 48.1875 47.75 41.5 
Q 54.890625 34.8125 54.890625 23.390625 
Q 54.890625 11.625 47.5625 5.09375 
Q 40.234375 -1.421875 26.90625 -1.421875 
Q 22.3125 -1.421875 17.546875 -0.640625 
Q 12.796875 0.140625 7.71875 1.703125 
L 7.71875 11.625 
Q 12.109375 9.234375 16.796875 8.0625 
Q 21.484375 6.890625 26.703125 6.890625 
Q 35.15625 6.890625 40.078125 11.328125 
Q 45.015625 15.765625 45.015625 23.390625 
Q 45.015625 31 40.078125 35.4375 
Q 35.15625 39.890625 26.703125 39.890625 
Q 22.75 39.890625 18.8125 39.015625 
Q 14.890625 38.140625 10.796875 36.28125 
z
" id="DejaVuSans-35"/>
      </defs>
      <g style="fill:#262626;" transform="translate(77.581715 275.558281)scale(0.11 -0.11)">
       <use xlink:href="#DejaVuSans-35"/>
       <use x="63.623047" xlink:href="#DejaVuSans-30"/>
       <use x="127.246094" xlink:href="#DejaVuSans-30"/>
       <use x="190.869141" xlink:href="#DejaVuSans-30"/>
      </g>
     </g>
    </g>
    <g id="xtick_3">
     <g id="line2d_3">
      <path clip-path="url(#pd785f85d8f)" d="M 133.301067 257.7 
L 133.301067 26.8 
" style="fill:none;stroke:#ffffff;stroke-linecap:round;"/>
     </g>
     <g id="text_3">
      <!-- 10000 -->
      <defs>
       <path d="M 12.40625 8.296875 
L 28.515625 8.296875 
L 28.515625 63.921875 
L 10.984375 60.40625 
L 10.984375 69.390625 
L 28.421875 72.90625 
L 38.28125 72.90625 
L 38.28125 8.296875 
L 54.390625 8.296875 
L 54.390625 0 
L 12.40625 0 
z
" id="DejaVuSans-31"/>
      </defs>
      <g style="fill:#262626;" transform="translate(115.804192 275.558281)scale(0.11 -0.11)">
       <use xlink:href="#DejaVuSans-31"/>
       <use x="63.623047" xlink:href="#DejaVuSans-30"/>
       <use x="127.246094" xlink:href="#DejaVuSans-30"/>
       <use x="190.869141" xlink:href="#DejaVuSans-30"/>
       <use x="254.492188" xlink:href="#DejaVuSans-30"/>
      </g>
     </g>
    </g>
    <g id="xtick_4">
     <g id="line2d_4">
      <path clip-path="url(#pd785f85d8f)" d="M 175.022919 257.7 
L 175.022919 26.8 
" style="fill:none;stroke:#ffffff;stroke-linecap:round;"/>
     </g>
     <g id="text_4">
      <!-- 15000 -->
      <g style="fill:#262626;" transform="translate(157.526044 275.558281)scale(0.11 -0.11)">
       <use xlink:href="#DejaVuSans-31"/>
       <use x="63.623047" xlink:href="#DejaVuSans-35"/>
       <use x="127.246094" xlink:href="#DejaVuSans-30"/>
       <use x="190.869141" xlink:href="#DejaVuSans-30"/>
       <use x="254.492188" xlink:href="#DejaVuSans-30"/>
      </g>
     </g>
    </g>
    <g id="xtick_5">
     <g id="line2d_5">
      <path clip-path="url(#pd785f85d8f)" d="M 216.744771 257.7 
L 216.744771 26.8 
" style="fill:none;stroke:#ffffff;stroke-linecap:round;"/>
     </g>
     <g id="text_5">
      <!-- 20000 -->
      <defs>
       <path d="M 19.1875 8.296875 
L 53.609375 8.296875 
L 53.609375 0 
L 7.328125 0 
L 7.328125 8.296875 
Q 12.9375 14.109375 22.625 23.890625 
Q 32.328125 33.6875 34.8125 36.53125 
Q 39.546875 41.84375 41.421875 45.53125 
Q 43.3125 49.21875 43.3125 52.78125 
Q 43.3125 58.59375 39.234375 62.25 
Q 35.15625 65.921875 28.609375 65.921875 
Q 23.96875 65.921875 18.8125 64.3125 
Q 13.671875 62.703125 7.8125 59.421875 
L 7.8125 69.390625 
Q 13.765625 71.78125 18.9375 73 
Q 24.125 74.21875 28.421875 74.21875 
Q 39.75 74.21875 46.484375 68.546875 
Q 53.21875 62.890625 53.21875 53.421875 
Q 53.21875 48.921875 51.53125 44.890625 
Q 49.859375 40.875 45.40625 35.40625 
Q 44.1875 33.984375 37.640625 27.21875 
Q 31.109375 20.453125 19.1875 8.296875 
z
" id="DejaVuSans-32"/>
      </defs>
      <g style="fill:#262626;" transform="translate(199.247896 275.558281)scale(0.11 -0.11)">
       <use xlink:href="#DejaVuSans-32"/>
       <use x="63.623047" xlink:href="#DejaVuSans-30"/>
       <use x="127.246094" xlink:href="#DejaVuSans-30"/>
       <use x="190.869141" xlink:href="#DejaVuSans-30"/>
       <use x="254.492188" xlink:href="#DejaVuSans-30"/>
      </g>
     </g>
    </g>
    <g id="xtick_6">
     <g id="line2d_6">
      <path clip-path="url(#pd785f85d8f)" d="M 258.466623 257.7 
L 258.466623 26.8 
" style="fill:none;stroke:#ffffff;stroke-linecap:round;"/>
     </g>
     <g id="text_6">
      <!-- 25000 -->
      <g style="fill:#262626;" transform="translate(240.969748 275.558281)scale(0.11 -0.11)">
       <use xlink:href="#DejaVuSans-32"/>
       <use x="63.623047" xlink:href="#DejaVuSans-35"/>
       <use x="127.246094" xlink:href="#DejaVuSans-30"/>
       <use x="190.869141" xlink:href="#DejaVuSans-30"/>
       <use x="254.492188" xlink:href="#DejaVuSans-30"/>
      </g>
     </g>
    </g>
    <g id="xtick_7">
     <g id="line2d_7">
      <path clip-path="url(#pd785f85d8f)" d="M 300.188474 257.7 
L 300.188474 26.8 
" style="fill:none;stroke:#ffffff;stroke-linecap:round;"/>
     </g>
     <g id="text_7">
      <!-- 30000 -->
      <defs>
       <path d="M 40.578125 39.3125 
Q 47.65625 37.796875 51.625 33 
Q 55.609375 28.21875 55.609375 21.1875 
Q 55.609375 10.40625 48.1875 4.484375 
Q 40.765625 -1.421875 27.09375 -1.421875 
Q 22.515625 -1.421875 17.65625 -0.515625 
Q 12.796875 0.390625 7.625 2.203125 
L 7.625 11.71875 
Q 11.71875 9.328125 16.59375 8.109375 
Q 21.484375 6.890625 26.8125 6.890625 
Q 36.078125 6.890625 40.9375 10.546875 
Q 45.796875 14.203125 45.796875 21.1875 
Q 45.796875 27.640625 41.28125 31.265625 
Q 36.765625 34.90625 28.71875 34.90625 
L 20.21875 34.90625 
L 20.21875 43.015625 
L 29.109375 43.015625 
Q 36.375 43.015625 40.234375 45.921875 
Q 44.09375 48.828125 44.09375 54.296875 
Q 44.09375 59.90625 40.109375 62.90625 
Q 36.140625 65.921875 28.71875 65.921875 
Q 24.65625 65.921875 20.015625 65.03125 
Q 15.375 64.15625 9.8125 62.3125 
L 9.8125 71.09375 
Q 15.4375 72.65625 20.34375 73.4375 
Q 25.25 74.21875 29.59375 74.21875 
Q 40.828125 74.21875 47.359375 69.109375 
Q 53.90625 64.015625 53.90625 55.328125 
Q 53.90625 49.265625 50.4375 45.09375 
Q 46.96875 40.921875 40.578125 39.3125 
z
" id="DejaVuSans-33"/>
      </defs>
      <g style="fill:#262626;" transform="translate(282.691599 275.558281)scale(0.11 -0.11)">
       <use xlink:href="#DejaVuSans-33"/>
       <use x="63.623047" xlink:href="#DejaVuSans-30"/>
       <use x="127.246094" xlink:href="#DejaVuSans-30"/>
       <use x="190.869141" xlink:href="#DejaVuSans-30"/>
       <use x="254.492188" xlink:href="#DejaVuSans-30"/>
      </g>
     </g>
    </g>
   </g>
   <g id="matplotlib.axis_2">
    <g id="ytick_1">
     <g id="line2d_8">
      <path clip-path="url(#pd785f85d8f)" d="M 37.675 247.204545 
L 305.686997 247.204545 
" style="fill:none;stroke:#ffffff;stroke-linecap:round;"/>
     </g>
     <g id="text_8">
      <!-- 0.0 -->
      <defs>
       <path d="M 10.6875 12.40625 
L 21 12.40625 
L 21 0 
L 10.6875 0 
z
" id="DejaVuSans-2e"/>
      </defs>
      <g style="fill:#262626;" transform="translate(10.681562 251.383686)scale(0.11 -0.11)">
       <use xlink:href="#DejaVuSans-30"/>
       <use x="63.623047" xlink:href="#DejaVuSans-2e"/>
       <use x="95.410156" xlink:href="#DejaVuSans-30"/>
      </g>
     </g>
    </g>
    <g id="ytick_2">
     <g id="line2d_9">
      <path clip-path="url(#pd785f85d8f)" d="M 37.675 205.222727 
L 305.686997 205.222727 
" style="fill:none;stroke:#ffffff;stroke-linecap:round;"/>
     </g>
     <g id="text_9">
      <!-- 0.2 -->
      <g style="fill:#262626;" transform="translate(10.681562 209.401868)scale(0.11 -0.11)">
       <use xlink:href="#DejaVuSans-30"/>
       <use x="63.623047" xlink:href="#DejaVuSans-2e"/>
       <use x="95.410156" xlink:href="#DejaVuSans-32"/>
      </g>
     </g>
    </g>
    <g id="ytick_3">
     <g id="line2d_10">
      <path clip-path="url(#pd785f85d8f)" d="M 37.675 163.240909 
L 305.686997 163.240909 
" style="fill:none;stroke:#ffffff;stroke-linecap:round;"/>
     </g>
     <g id="text_10">
      <!-- 0.4 -->
      <defs>
       <path d="M 37.796875 64.3125 
L 12.890625 25.390625 
L 37.796875 25.390625 
z
M 35.203125 72.90625 
L 47.609375 72.90625 
L 47.609375 25.390625 
L 58.015625 25.390625 
L 58.015625 17.1875 
L 47.609375 17.1875 
L 47.609375 0 
L 37.796875 0 
L 37.796875 17.1875 
L 4.890625 17.1875 
L 4.890625 26.703125 
z
" id="DejaVuSans-34"/>
      </defs>
      <g style="fill:#262626;" transform="translate(10.681562 167.42005)scale(0.11 -0.11)">
       <use xlink:href="#DejaVuSans-30"/>
       <use x="63.623047" xlink:href="#DejaVuSans-2e"/>
       <use x="95.410156" xlink:href="#DejaVuSans-34"/>
      </g>
     </g>
    </g>
    <g id="ytick_4">
     <g id="line2d_11">
      <path clip-path="url(#pd785f85d8f)" d="M 37.675 121.259091 
L 305.686997 121.259091 
" style="fill:none;stroke:#ffffff;stroke-linecap:round;"/>
     </g>
     <g id="text_11">
      <!-- 0.6 -->
      <defs>
       <path d="M 33.015625 40.375 
Q 26.375 40.375 22.484375 35.828125 
Q 18.609375 31.296875 18.609375 23.390625 
Q 18.609375 15.53125 22.484375 10.953125 
Q 26.375 6.390625 33.015625 6.390625 
Q 39.65625 6.390625 43.53125 10.953125 
Q 47.40625 15.53125 47.40625 23.390625 
Q 47.40625 31.296875 43.53125 35.828125 
Q 39.65625 40.375 33.015625 40.375 
z
M 52.59375 71.296875 
L 52.59375 62.3125 
Q 48.875 64.0625 45.09375 64.984375 
Q 41.3125 65.921875 37.59375 65.921875 
Q 27.828125 65.921875 22.671875 59.328125 
Q 17.53125 52.734375 16.796875 39.40625 
Q 19.671875 43.65625 24.015625 45.921875 
Q 28.375 48.1875 33.59375 48.1875 
Q 44.578125 48.1875 50.953125 41.515625 
Q 57.328125 34.859375 57.328125 23.390625 
Q 57.328125 12.15625 50.6875 5.359375 
Q 44.046875 -1.421875 33.015625 -1.421875 
Q 20.359375 -1.421875 13.671875 8.265625 
Q 6.984375 17.96875 6.984375 36.375 
Q 6.984375 53.65625 15.1875 63.9375 
Q 23.390625 74.21875 37.203125 74.21875 
Q 40.921875 74.21875 44.703125 73.484375 
Q 48.484375 72.75 52.59375 71.296875 
z
" id="DejaVuSans-36"/>
      </defs>
      <g style="fill:#262626;" transform="translate(10.681562 125.438232)scale(0.11 -0.11)">
       <use xlink:href="#DejaVuSans-30"/>
       <use x="63.623047" xlink:href="#DejaVuSans-2e"/>
       <use x="95.410156" xlink:href="#DejaVuSans-36"/>
      </g>
     </g>
    </g>
    <g id="ytick_5">
     <g id="line2d_12">
      <path clip-path="url(#pd785f85d8f)" d="M 37.675 79.277273 
L 305.686997 79.277273 
" style="fill:none;stroke:#ffffff;stroke-linecap:round;"/>
     </g>
     <g id="text_12">
      <!-- 0.8 -->
      <defs>
       <path d="M 31.78125 34.625 
Q 24.75 34.625 20.71875 30.859375 
Q 16.703125 27.09375 16.703125 20.515625 
Q 16.703125 13.921875 20.71875 10.15625 
Q 24.75 6.390625 31.78125 6.390625 
Q 38.8125 6.390625 42.859375 10.171875 
Q 46.921875 13.96875 46.921875 20.515625 
Q 46.921875 27.09375 42.890625 30.859375 
Q 38.875 34.625 31.78125 34.625 
z
M 21.921875 38.8125 
Q 15.578125 40.375 12.03125 44.71875 
Q 8.5 49.078125 8.5 55.328125 
Q 8.5 64.0625 14.71875 69.140625 
Q 20.953125 74.21875 31.78125 74.21875 
Q 42.671875 74.21875 48.875 69.140625 
Q 55.078125 64.0625 55.078125 55.328125 
Q 55.078125 49.078125 51.53125 44.71875 
Q 48 40.375 41.703125 38.8125 
Q 48.828125 37.15625 52.796875 32.3125 
Q 56.78125 27.484375 56.78125 20.515625 
Q 56.78125 9.90625 50.3125 4.234375 
Q 43.84375 -1.421875 31.78125 -1.421875 
Q 19.734375 -1.421875 13.25 4.234375 
Q 6.78125 9.90625 6.78125 20.515625 
Q 6.78125 27.484375 10.78125 32.3125 
Q 14.796875 37.15625 21.921875 38.8125 
z
M 18.3125 54.390625 
Q 18.3125 48.734375 21.84375 45.5625 
Q 25.390625 42.390625 31.78125 42.390625 
Q 38.140625 42.390625 41.71875 45.5625 
Q 45.3125 48.734375 45.3125 54.390625 
Q 45.3125 60.0625 41.71875 63.234375 
Q 38.140625 66.40625 31.78125 66.40625 
Q 25.390625 66.40625 21.84375 63.234375 
Q 18.3125 60.0625 18.3125 54.390625 
z
" id="DejaVuSans-38"/>
      </defs>
      <g style="fill:#262626;" transform="translate(10.681562 83.456413)scale(0.11 -0.11)">
       <use xlink:href="#DejaVuSans-30"/>
       <use x="63.623047" xlink:href="#DejaVuSans-2e"/>
       <use x="95.410156" xlink:href="#DejaVuSans-38"/>
      </g>
     </g>
    </g>
    <g id="ytick_6">
     <g id="line2d_13">
      <path clip-path="url(#pd785f85d8f)" d="M 37.675 37.295455 
L 305.686997 37.295455 
" style="fill:none;stroke:#ffffff;stroke-linecap:round;"/>
     </g>
     <g id="text_13">
      <!-- 1.0 -->
      <g style="fill:#262626;" transform="translate(10.681562 41.474595)scale(0.11 -0.11)">
       <use xlink:href="#DejaVuSans-31"/>
       <use x="63.623047" xlink:href="#DejaVuSans-2e"/>
       <use x="95.410156" xlink:href="#DejaVuSans-30"/>
      </g>
     </g>
    </g>
    <g id="text_14">
     <!-- $p_{can}$ -->
     <defs>
      <path d="M 49.609375 33.6875 
Q 49.609375 40.875 46.484375 44.671875 
Q 43.359375 48.484375 37.5 48.484375 
Q 33.5 48.484375 29.859375 46.4375 
Q 26.21875 44.390625 23.390625 40.484375 
Q 20.609375 36.625 18.9375 31.15625 
Q 17.28125 25.6875 17.28125 20.3125 
Q 17.28125 13.484375 20.40625 9.796875 
Q 23.53125 6.109375 29.296875 6.109375 
Q 33.546875 6.109375 37.1875 8.109375 
Q 40.828125 10.109375 43.40625 13.921875 
Q 46.1875 17.921875 47.890625 23.34375 
Q 49.609375 28.765625 49.609375 33.6875 
z
M 21.78125 46.390625 
Q 25.390625 51.125 30.296875 53.5625 
Q 35.203125 56 41.21875 56 
Q 49.609375 56 54.25 50.5 
Q 58.890625 45.015625 58.890625 35.109375 
Q 58.890625 27 56 19.65625 
Q 53.125 12.3125 47.703125 6.5 
Q 44.09375 2.640625 39.546875 0.609375 
Q 35.015625 -1.421875 29.984375 -1.421875 
Q 24.171875 -1.421875 20.21875 1 
Q 16.265625 3.421875 14.3125 8.203125 
L 8.6875 -20.796875 
L -0.296875 -20.796875 
L 14.40625 54.6875 
L 23.390625 54.6875 
z
" id="DejaVuSans-Oblique-70"/>
      <path d="M 53.609375 52.59375 
L 51.8125 43.703125 
Q 48.578125 46.046875 44.9375 47.21875 
Q 41.3125 48.390625 37.40625 48.390625 
Q 33.109375 48.390625 29.21875 46.875 
Q 25.34375 45.359375 22.703125 42.578125 
Q 18.5 38.328125 16.203125 32.609375 
Q 13.921875 26.90625 13.921875 20.796875 
Q 13.921875 13.421875 17.609375 9.8125 
Q 21.296875 6.203125 28.8125 6.203125 
Q 32.515625 6.203125 36.6875 7.328125 
Q 40.875 8.453125 45.40625 10.6875 
L 43.703125 1.8125 
Q 39.796875 0.203125 35.671875 -0.609375 
Q 31.546875 -1.421875 27.203125 -1.421875 
Q 16.3125 -1.421875 10.453125 4.015625 
Q 4.59375 9.46875 4.59375 19.578125 
Q 4.59375 28.078125 7.640625 35.234375 
Q 10.6875 42.390625 16.703125 48.09375 
Q 20.796875 52 26.3125 54 
Q 31.84375 56 38.375 56 
Q 42.1875 56 45.9375 55.140625 
Q 49.703125 54.296875 53.609375 52.59375 
z
" id="DejaVuSans-Oblique-63"/>
      <path d="M 53.71875 31.203125 
L 47.609375 0 
L 38.625 0 
L 40.28125 8.296875 
Q 36.328125 3.421875 31.265625 1 
Q 26.21875 -1.421875 20.015625 -1.421875 
Q 13.03125 -1.421875 8.5625 2.84375 
Q 4.109375 7.125 4.109375 13.8125 
Q 4.109375 23.390625 11.75 28.953125 
Q 19.390625 34.515625 32.8125 34.515625 
L 45.3125 34.515625 
L 45.796875 36.921875 
Q 45.90625 37.3125 45.953125 37.765625 
Q 46 38.234375 46 39.203125 
Q 46 43.5625 42.453125 45.96875 
Q 38.921875 48.390625 32.515625 48.390625 
Q 28.125 48.390625 23.5 47.265625 
Q 18.890625 46.140625 14.015625 43.890625 
L 15.578125 52.203125 
Q 20.65625 54.109375 25.515625 55.046875 
Q 30.375 56 34.90625 56 
Q 44.578125 56 49.625 51.796875 
Q 54.6875 47.609375 54.6875 39.59375 
Q 54.6875 37.984375 54.4375 35.8125 
Q 54.203125 33.640625 53.71875 31.203125 
z
M 44 27.484375 
L 35.015625 27.484375 
Q 23.96875 27.484375 18.671875 24.53125 
Q 13.375 21.578125 13.375 15.375 
Q 13.375 11.078125 16.078125 8.640625 
Q 18.796875 6.203125 23.578125 6.203125 
Q 30.90625 6.203125 36.375 11.453125 
Q 41.84375 16.703125 43.609375 25.484375 
z
" id="DejaVuSans-Oblique-61"/>
      <path d="M 55.71875 33.015625 
L 49.3125 0 
L 40.28125 0 
L 46.6875 32.671875 
Q 47.125 34.96875 47.359375 36.71875 
Q 47.609375 38.484375 47.609375 39.5 
Q 47.609375 43.609375 45.015625 45.890625 
Q 42.4375 48.1875 37.796875 48.1875 
Q 30.5625 48.1875 25.34375 43.375 
Q 20.125 38.578125 18.5 30.328125 
L 12.5 0 
L 3.515625 0 
L 14.109375 54.6875 
L 23.09375 54.6875 
L 21.296875 46.09375 
Q 25.046875 50.828125 30.3125 53.40625 
Q 35.59375 56 41.40625 56 
Q 48.640625 56 52.609375 52.09375 
Q 56.59375 48.1875 56.59375 41.109375 
Q 56.59375 39.359375 56.375 37.359375 
Q 56.15625 35.359375 55.71875 33.015625 
z
" id="DejaVuSans-Oblique-6e"/>
     </defs>
     <g style="fill:#262626;" transform="translate(4.161562 153.77)rotate(-90)scale(0.12 -0.12)">
      <use xlink:href="#DejaVuSans-Oblique-70"/>
      <use transform="translate(63.476562 -16.40625)scale(0.7)" xlink:href="#DejaVuSans-Oblique-63"/>
      <use transform="translate(101.962891 -16.40625)scale(0.7)" xlink:href="#DejaVuSans-Oblique-61"/>
      <use transform="translate(144.858398 -16.40625)scale(0.7)" xlink:href="#DejaVuSans-Oblique-6e"/>
     </g>
    </g>
   </g>
   <g id="line2d_14">
    <path clip-path="url(#pd785f85d8f)" d="M 49.857364 247.204545 
L 293.504634 247.204545 
L 293.504634 247.204545 
" style="fill:none;stroke:#db5f57;stroke-linecap:round;stroke-width:1.5;"/>
   </g>
   <g id="line2d_15">
    <path clip-path="url(#pd785f85d8f)" d="M 49.857364 247.204545 
L 293.504634 247.204545 
L 293.504634 247.204545 
" style="fill:none;stroke:#db8657;stroke-linecap:round;stroke-width:1.5;"/>
   </g>
   <g id="line2d_16">
    <path clip-path="url(#pd785f85d8f)" d="M 49.857364 247.204545 
L 293.504634 247.204545 
L 293.504634 247.204545 
" style="fill:none;stroke:#dbae57;stroke-linecap:round;stroke-width:1.5;"/>
   </g>
   <g id="line2d_17">
    <path clip-path="url(#pd785f85d8f)" d="M 49.857364 247.204545 
L 293.504634 247.204545 
L 293.504634 247.204545 
" style="fill:none;stroke:#dbd657;stroke-linecap:round;stroke-width:1.5;"/>
   </g>
   <g id="line2d_18">
    <path clip-path="url(#pd785f85d8f)" d="M 49.857364 247.204545 
L 293.504634 247.204545 
L 293.504634 247.204545 
" style="fill:none;stroke:#b9db57;stroke-linecap:round;stroke-width:1.5;"/>
   </g>
   <g id="line2d_19">
    <path clip-path="url(#pd785f85d8f)" d="M 49.857364 247.204545 
L 293.504634 247.204545 
L 293.504634 247.204545 
" style="fill:none;stroke:#91db57;stroke-linecap:round;stroke-width:1.5;"/>
   </g>
   <g id="line2d_20">
    <path clip-path="url(#pd785f85d8f)" d="M 49.857364 247.204545 
L 293.504634 247.204545 
L 293.504634 247.204545 
" style="fill:none;stroke:#69db57;stroke-linecap:round;stroke-width:1.5;"/>
   </g>
   <g id="line2d_21">
    <path clip-path="url(#pd785f85d8f)" d="M 49.857364 247.204545 
L 293.504634 247.204545 
L 293.504634 247.204545 
" style="fill:none;stroke:#57db6c;stroke-linecap:round;stroke-width:1.5;"/>
   </g>
   <g id="line2d_22">
    <path clip-path="url(#pd785f85d8f)" d="M 49.857364 247.204545 
L 293.504634 247.204545 
L 293.504634 247.204545 
" style="fill:none;stroke:#57db94;stroke-linecap:round;stroke-width:1.5;"/>
   </g>
   <g id="line2d_23">
    <path clip-path="url(#pd785f85d8f)" d="M 49.857364 247.204545 
L 293.504634 247.204545 
L 293.504634 247.204545 
" style="fill:none;stroke:#57dbbb;stroke-linecap:round;stroke-width:1.5;"/>
   </g>
   <g id="line2d_24">
    <path clip-path="url(#pd785f85d8f)" d="M 49.857364 247.204545 
L 293.504634 247.204545 
L 293.504634 247.204545 
" style="fill:none;stroke:#57d3db;stroke-linecap:round;stroke-width:1.5;"/>
   </g>
   <g id="line2d_25">
    <path clip-path="url(#pd785f85d8f)" d="M 49.857364 247.204545 
L 293.504634 247.204545 
L 293.504634 247.204545 
" style="fill:none;stroke:#57acdb;stroke-linecap:round;stroke-width:1.5;"/>
   </g>
   <g id="line2d_26">
    <path clip-path="url(#pd785f85d8f)" d="M 49.857364 247.204545 
L 293.504634 247.204545 
L 293.504634 247.204545 
" style="fill:none;stroke:#5784db;stroke-linecap:round;stroke-width:1.5;"/>
   </g>
   <g id="line2d_27">
    <path clip-path="url(#pd785f85d8f)" d="M 49.857364 247.204545 
L 293.504634 247.204545 
L 293.504634 247.204545 
" style="fill:none;stroke:#575cdb;stroke-linecap:round;stroke-width:1.5;"/>
   </g>
   <g id="line2d_28">
    <path clip-path="url(#pd785f85d8f)" d="M 49.857364 247.204545 
L 293.504634 247.204545 
L 293.504634 247.204545 
" style="fill:none;stroke:#7957db;stroke-linecap:round;stroke-width:1.5;"/>
   </g>
   <g id="line2d_29">
    <path clip-path="url(#pd785f85d8f)" d="M 49.857364 247.204545 
L 293.504634 247.204545 
L 293.504634 247.204545 
" style="fill:none;stroke:#a157db;stroke-linecap:round;stroke-width:1.5;"/>
   </g>
   <g id="patch_3">
    <path d="M 37.675 257.7 
L 37.675 26.8 
" style="fill:none;stroke:#ffffff;stroke-linecap:square;stroke-linejoin:miter;stroke-width:1.25;"/>
   </g>
   <g id="patch_4">
    <path d="M 305.686997 257.7 
L 305.686997 26.8 
" style="fill:none;stroke:#ffffff;stroke-linecap:square;stroke-linejoin:miter;stroke-width:1.25;"/>
   </g>
   <g id="patch_5">
    <path d="M 37.675 257.7 
L 305.686997 257.7 
" style="fill:none;stroke:#ffffff;stroke-linecap:square;stroke-linejoin:miter;stroke-width:1.25;"/>
   </g>
   <g id="patch_6">
    <path d="M 37.675 26.8 
L 305.686997 26.8 
" style="fill:none;stroke:#ffffff;stroke-linecap:square;stroke-linejoin:miter;stroke-width:1.25;"/>
   </g>
   <g id="text_15">
    <!-- p = 6.14e-06 -->
    <defs>
     <path d="M 18.109375 8.203125 
L 18.109375 -20.796875 
L 9.078125 -20.796875 
L 9.078125 54.6875 
L 18.109375 54.6875 
L 18.109375 46.390625 
Q 20.953125 51.265625 25.265625 53.625 
Q 29.59375 56 35.59375 56 
Q 45.5625 56 51.78125 48.09375 
Q 58.015625 40.1875 58.015625 27.296875 
Q 58.015625 14.40625 51.78125 6.484375 
Q 45.5625 -1.421875 35.59375 -1.421875 
Q 29.59375 -1.421875 25.265625 0.953125 
Q 20.953125 3.328125 18.109375 8.203125 
z
M 48.6875 27.296875 
Q 48.6875 37.203125 44.609375 42.84375 
Q 40.53125 48.484375 33.40625 48.484375 
Q 26.265625 48.484375 22.1875 42.84375 
Q 18.109375 37.203125 18.109375 27.296875 
Q 18.109375 17.390625 22.1875 11.75 
Q 26.265625 6.109375 33.40625 6.109375 
Q 40.53125 6.109375 44.609375 11.75 
Q 48.6875 17.390625 48.6875 27.296875 
z
" id="DejaVuSans-70"/>
     <path id="DejaVuSans-20"/>
     <path d="M 10.59375 45.40625 
L 73.1875 45.40625 
L 73.1875 37.203125 
L 10.59375 37.203125 
z
M 10.59375 25.484375 
L 73.1875 25.484375 
L 73.1875 17.1875 
L 10.59375 17.1875 
z
" id="DejaVuSans-3d"/>
     <path d="M 56.203125 29.59375 
L 56.203125 25.203125 
L 14.890625 25.203125 
Q 15.484375 15.921875 20.484375 11.0625 
Q 25.484375 6.203125 34.421875 6.203125 
Q 39.59375 6.203125 44.453125 7.46875 
Q 49.3125 8.734375 54.109375 11.28125 
L 54.109375 2.78125 
Q 49.265625 0.734375 44.1875 -0.34375 
Q 39.109375 -1.421875 33.890625 -1.421875 
Q 20.796875 -1.421875 13.15625 6.1875 
Q 5.515625 13.8125 5.515625 26.8125 
Q 5.515625 40.234375 12.765625 48.109375 
Q 20.015625 56 32.328125 56 
Q 43.359375 56 49.78125 48.890625 
Q 56.203125 41.796875 56.203125 29.59375 
z
M 47.21875 32.234375 
Q 47.125 39.59375 43.09375 43.984375 
Q 39.0625 48.390625 32.421875 48.390625 
Q 24.90625 48.390625 20.390625 44.140625 
Q 15.875 39.890625 15.1875 32.171875 
z
" id="DejaVuSans-65"/>
     <path d="M 4.890625 31.390625 
L 31.203125 31.390625 
L 31.203125 23.390625 
L 4.890625 23.390625 
z
" id="DejaVuSans-2d"/>
    </defs>
    <g style="fill:#262626;" transform="translate(132.179436 20.8)scale(0.12 -0.12)">
     <use xlink:href="#DejaVuSans-70"/>
     <use x="63.476562" xlink:href="#DejaVuSans-20"/>
     <use x="95.263672" xlink:href="#DejaVuSans-3d"/>
     <use x="179.052734" xlink:href="#DejaVuSans-20"/>
     <use x="210.839844" xlink:href="#DejaVuSans-36"/>
     <use x="274.462891" xlink:href="#DejaVuSans-2e"/>
     <use x="306.25" xlink:href="#DejaVuSans-31"/>
     <use x="369.873047" xlink:href="#DejaVuSans-34"/>
     <use x="433.496094" xlink:href="#DejaVuSans-65"/>
     <use x="495.019531" xlink:href="#DejaVuSans-2d"/>
     <use x="531.103516" xlink:href="#DejaVuSans-30"/>
     <use x="594.726562" xlink:href="#DejaVuSans-36"/>
    </g>
   </g>
   <g id="legend_1">
    <g id="patch_7">
     <path d="M 231.946974 242.937175 
L 299.855997 242.937175 
Q 301.521997 242.937175 301.521997 241.271175 
L 301.521997 32.631 
Q 301.521997 30.965 299.855997 30.965 
L 231.946974 30.965 
Q 230.280974 30.965 230.280974 32.631 
L 230.280974 241.271175 
Q 230.280974 242.937175 231.946974 242.937175 
z
" style="fill:#eaeaf2;opacity:0.5;stroke:#cccccc;stroke-linejoin:miter;"/>
    </g>
    <g id="text_16">
     <!-- Cell number -->
     <defs>
      <path d="M 64.40625 67.28125 
L 64.40625 56.890625 
Q 59.421875 61.53125 53.78125 63.8125 
Q 48.140625 66.109375 41.796875 66.109375 
Q 29.296875 66.109375 22.65625 58.46875 
Q 16.015625 50.828125 16.015625 36.375 
Q 16.015625 21.96875 22.65625 14.328125 
Q 29.296875 6.6875 41.796875 6.6875 
Q 48.140625 6.6875 53.78125 8.984375 
Q 59.421875 11.28125 64.40625 15.921875 
L 64.40625 5.609375 
Q 59.234375 2.09375 53.4375 0.328125 
Q 47.65625 -1.421875 41.21875 -1.421875 
Q 24.65625 -1.421875 15.125 8.703125 
Q 5.609375 18.84375 5.609375 36.375 
Q 5.609375 53.953125 15.125 64.078125 
Q 24.65625 74.21875 41.21875 74.21875 
Q 47.75 74.21875 53.53125 72.484375 
Q 59.328125 70.75 64.40625 67.28125 
z
" id="DejaVuSans-43"/>
      <path d="M 9.421875 75.984375 
L 18.40625 75.984375 
L 18.40625 0 
L 9.421875 0 
z
" id="DejaVuSans-6c"/>
      <path d="M 54.890625 33.015625 
L 54.890625 0 
L 45.90625 0 
L 45.90625 32.71875 
Q 45.90625 40.484375 42.875 44.328125 
Q 39.84375 48.1875 33.796875 48.1875 
Q 26.515625 48.1875 22.3125 43.546875 
Q 18.109375 38.921875 18.109375 30.90625 
L 18.109375 0 
L 9.078125 0 
L 9.078125 54.6875 
L 18.109375 54.6875 
L 18.109375 46.1875 
Q 21.34375 51.125 25.703125 53.5625 
Q 30.078125 56 35.796875 56 
Q 45.21875 56 50.046875 50.171875 
Q 54.890625 44.34375 54.890625 33.015625 
z
" id="DejaVuSans-6e"/>
      <path d="M 8.5 21.578125 
L 8.5 54.6875 
L 17.484375 54.6875 
L 17.484375 21.921875 
Q 17.484375 14.15625 20.5 10.265625 
Q 23.53125 6.390625 29.59375 6.390625 
Q 36.859375 6.390625 41.078125 11.03125 
Q 45.3125 15.671875 45.3125 23.6875 
L 45.3125 54.6875 
L 54.296875 54.6875 
L 54.296875 0 
L 45.3125 0 
L 45.3125 8.40625 
Q 42.046875 3.421875 37.71875 1 
Q 33.40625 -1.421875 27.6875 -1.421875 
Q 18.265625 -1.421875 13.375 4.4375 
Q 8.5 10.296875 8.5 21.578125 
z
M 31.109375 56 
z
" id="DejaVuSans-75"/>
      <path d="M 52 44.1875 
Q 55.375 50.25 60.0625 53.125 
Q 64.75 56 71.09375 56 
Q 79.640625 56 84.28125 50.015625 
Q 88.921875 44.046875 88.921875 33.015625 
L 88.921875 0 
L 79.890625 0 
L 79.890625 32.71875 
Q 79.890625 40.578125 77.09375 44.375 
Q 74.3125 48.1875 68.609375 48.1875 
Q 61.625 48.1875 57.5625 43.546875 
Q 53.515625 38.921875 53.515625 30.90625 
L 53.515625 0 
L 44.484375 0 
L 44.484375 32.71875 
Q 44.484375 40.625 41.703125 44.40625 
Q 38.921875 48.1875 33.109375 48.1875 
Q 26.21875 48.1875 22.15625 43.53125 
Q 18.109375 38.875 18.109375 30.90625 
L 18.109375 0 
L 9.078125 0 
L 9.078125 54.6875 
L 18.109375 54.6875 
L 18.109375 46.1875 
Q 21.1875 51.21875 25.484375 53.609375 
Q 29.78125 56 35.6875 56 
Q 41.65625 56 45.828125 52.96875 
Q 50 49.953125 52 44.1875 
z
" id="DejaVuSans-6d"/>
      <path d="M 48.6875 27.296875 
Q 48.6875 37.203125 44.609375 42.84375 
Q 40.53125 48.484375 33.40625 48.484375 
Q 26.265625 48.484375 22.1875 42.84375 
Q 18.109375 37.203125 18.109375 27.296875 
Q 18.109375 17.390625 22.1875 11.75 
Q 26.265625 6.109375 33.40625 6.109375 
Q 40.53125 6.109375 44.609375 11.75 
Q 48.6875 17.390625 48.6875 27.296875 
z
M 18.109375 46.390625 
Q 20.953125 51.265625 25.265625 53.625 
Q 29.59375 56 35.59375 56 
Q 45.5625 56 51.78125 48.09375 
Q 58.015625 40.1875 58.015625 27.296875 
Q 58.015625 14.40625 51.78125 6.484375 
Q 45.5625 -1.421875 35.59375 -1.421875 
Q 29.59375 -1.421875 25.265625 0.953125 
Q 20.953125 3.328125 18.109375 8.203125 
L 18.109375 0 
L 9.078125 0 
L 9.078125 75.984375 
L 18.109375 75.984375 
z
" id="DejaVuSans-62"/>
      <path d="M 41.109375 46.296875 
Q 39.59375 47.171875 37.8125 47.578125 
Q 36.03125 48 33.890625 48 
Q 26.265625 48 22.1875 43.046875 
Q 18.109375 38.09375 18.109375 28.8125 
L 18.109375 0 
L 9.078125 0 
L 9.078125 54.6875 
L 18.109375 54.6875 
L 18.109375 46.1875 
Q 20.953125 51.171875 25.484375 53.578125 
Q 30.03125 56 36.53125 56 
Q 37.453125 56 38.578125 55.875 
Q 39.703125 55.765625 41.0625 55.515625 
z
" id="DejaVuSans-72"/>
     </defs>
     <g style="fill:#262626;" transform="translate(235.452267 41.895437)scale(0.1 -0.1)">
      <use xlink:href="#DejaVuSans-43"/>
      <use x="69.824219" xlink:href="#DejaVuSans-65"/>
      <use x="131.347656" xlink:href="#DejaVuSans-6c"/>
      <use x="159.130859" xlink:href="#DejaVuSans-6c"/>
      <use x="186.914062" xlink:href="#DejaVuSans-20"/>
      <use x="218.701172" xlink:href="#DejaVuSans-6e"/>
      <use x="282.080078" xlink:href="#DejaVuSans-75"/>
      <use x="345.458984" xlink:href="#DejaVuSans-6d"/>
      <use x="442.871094" xlink:href="#DejaVuSans-62"/>
      <use x="506.347656" xlink:href="#DejaVuSans-65"/>
      <use x="567.871094" xlink:href="#DejaVuSans-72"/>
     </g>
    </g>
    <g id="line2d_30">
     <path d="M 233.612974 51.554123 
L 250.272974 51.554123 
" style="fill:none;stroke:#db5f57;stroke-linecap:round;stroke-width:1.5;"/>
    </g>
    <g id="line2d_31"/>
    <g id="text_17">
     <!-- 1.78e+08 -->
     <defs>
      <path d="M 8.203125 72.90625 
L 55.078125 72.90625 
L 55.078125 68.703125 
L 28.609375 0 
L 18.3125 0 
L 43.21875 64.59375 
L 8.203125 64.59375 
z
" id="DejaVuSans-37"/>
      <path d="M 46 62.703125 
L 46 35.5 
L 73.1875 35.5 
L 73.1875 27.203125 
L 46 27.203125 
L 46 0 
L 37.796875 0 
L 37.796875 27.203125 
L 10.59375 27.203125 
L 10.59375 35.5 
L 37.796875 35.5 
L 37.796875 62.703125 
z
" id="DejaVuSans-2b"/>
     </defs>
     <g style="fill:#262626;" transform="translate(256.936974 54.469623)scale(0.0833 -0.0833)">
      <use xlink:href="#DejaVuSans-31"/>
      <use x="63.623047" xlink:href="#DejaVuSans-2e"/>
      <use x="95.410156" xlink:href="#DejaVuSans-37"/>
      <use x="159.033203" xlink:href="#DejaVuSans-38"/>
      <use x="222.65625" xlink:href="#DejaVuSans-65"/>
      <use x="284.179688" xlink:href="#DejaVuSans-2b"/>
      <use x="367.96875" xlink:href="#DejaVuSans-30"/>
      <use x="431.591797" xlink:href="#DejaVuSans-38"/>
     </g>
    </g>
    <g id="line2d_32">
     <path d="M 233.612974 63.781002 
L 250.272974 63.781002 
" style="fill:none;stroke:#db8657;stroke-linecap:round;stroke-width:1.5;"/>
    </g>
    <g id="line2d_33"/>
    <g id="text_18">
     <!-- 4.85e+08 -->
     <g style="fill:#262626;" transform="translate(256.936974 66.696502)scale(0.0833 -0.0833)">
      <use xlink:href="#DejaVuSans-34"/>
      <use x="63.623047" xlink:href="#DejaVuSans-2e"/>
      <use x="95.410156" xlink:href="#DejaVuSans-38"/>
      <use x="159.033203" xlink:href="#DejaVuSans-35"/>
      <use x="222.65625" xlink:href="#DejaVuSans-65"/>
      <use x="284.179688" xlink:href="#DejaVuSans-2b"/>
      <use x="367.96875" xlink:href="#DejaVuSans-30"/>
      <use x="431.591797" xlink:href="#DejaVuSans-38"/>
     </g>
    </g>
    <g id="line2d_34">
     <path d="M 233.612974 76.00788 
L 250.272974 76.00788 
" style="fill:none;stroke:#dbae57;stroke-linecap:round;stroke-width:1.5;"/>
    </g>
    <g id="line2d_35"/>
    <g id="text_19">
     <!-- 1.32e+09 -->
     <defs>
      <path d="M 10.984375 1.515625 
L 10.984375 10.5 
Q 14.703125 8.734375 18.5 7.8125 
Q 22.3125 6.890625 25.984375 6.890625 
Q 35.75 6.890625 40.890625 13.453125 
Q 46.046875 20.015625 46.78125 33.40625 
Q 43.953125 29.203125 39.59375 26.953125 
Q 35.25 24.703125 29.984375 24.703125 
Q 19.046875 24.703125 12.671875 31.3125 
Q 6.296875 37.9375 6.296875 49.421875 
Q 6.296875 60.640625 12.9375 67.421875 
Q 19.578125 74.21875 30.609375 74.21875 
Q 43.265625 74.21875 49.921875 64.515625 
Q 56.59375 54.828125 56.59375 36.375 
Q 56.59375 19.140625 48.40625 8.859375 
Q 40.234375 -1.421875 26.421875 -1.421875 
Q 22.703125 -1.421875 18.890625 -0.6875 
Q 15.09375 0.046875 10.984375 1.515625 
z
M 30.609375 32.421875 
Q 37.25 32.421875 41.125 36.953125 
Q 45.015625 41.5 45.015625 49.421875 
Q 45.015625 57.28125 41.125 61.84375 
Q 37.25 66.40625 30.609375 66.40625 
Q 23.96875 66.40625 20.09375 61.84375 
Q 16.21875 57.28125 16.21875 49.421875 
Q 16.21875 41.5 20.09375 36.953125 
Q 23.96875 32.421875 30.609375 32.421875 
z
" id="DejaVuSans-39"/>
     </defs>
     <g style="fill:#262626;" transform="translate(256.936974 78.92338)scale(0.0833 -0.0833)">
      <use xlink:href="#DejaVuSans-31"/>
      <use x="63.623047" xlink:href="#DejaVuSans-2e"/>
      <use x="95.410156" xlink:href="#DejaVuSans-33"/>
      <use x="159.033203" xlink:href="#DejaVuSans-32"/>
      <use x="222.65625" xlink:href="#DejaVuSans-65"/>
      <use x="284.179688" xlink:href="#DejaVuSans-2b"/>
      <use x="367.96875" xlink:href="#DejaVuSans-30"/>
      <use x="431.591797" xlink:href="#DejaVuSans-39"/>
     </g>
    </g>
    <g id="line2d_36">
     <path d="M 233.612974 88.234758 
L 250.272974 88.234758 
" style="fill:none;stroke:#dbd657;stroke-linecap:round;stroke-width:1.5;"/>
    </g>
    <g id="line2d_37"/>
    <g id="text_20">
     <!-- 3.58e+09 -->
     <g style="fill:#262626;" transform="translate(256.936974 91.150258)scale(0.0833 -0.0833)">
      <use xlink:href="#DejaVuSans-33"/>
      <use x="63.623047" xlink:href="#DejaVuSans-2e"/>
      <use x="95.410156" xlink:href="#DejaVuSans-35"/>
      <use x="159.033203" xlink:href="#DejaVuSans-38"/>
      <use x="222.65625" xlink:href="#DejaVuSans-65"/>
      <use x="284.179688" xlink:href="#DejaVuSans-2b"/>
      <use x="367.96875" xlink:href="#DejaVuSans-30"/>
      <use x="431.591797" xlink:href="#DejaVuSans-39"/>
     </g>
    </g>
    <g id="line2d_38">
     <path d="M 233.612974 100.461636 
L 250.272974 100.461636 
" style="fill:none;stroke:#b9db57;stroke-linecap:round;stroke-width:1.5;"/>
    </g>
    <g id="line2d_39"/>
    <g id="text_21">
     <!-- 9.74e+09 -->
     <g style="fill:#262626;" transform="translate(256.936974 103.377136)scale(0.0833 -0.0833)">
      <use xlink:href="#DejaVuSans-39"/>
      <use x="63.623047" xlink:href="#DejaVuSans-2e"/>
      <use x="95.410156" xlink:href="#DejaVuSans-37"/>
      <use x="159.033203" xlink:href="#DejaVuSans-34"/>
      <use x="222.65625" xlink:href="#DejaVuSans-65"/>
      <use x="284.179688" xlink:href="#DejaVuSans-2b"/>
      <use x="367.96875" xlink:href="#DejaVuSans-30"/>
      <use x="431.591797" xlink:href="#DejaVuSans-39"/>
     </g>
    </g>
    <g id="line2d_40">
     <path d="M 233.612974 112.688514 
L 250.272974 112.688514 
" style="fill:none;stroke:#91db57;stroke-linecap:round;stroke-width:1.5;"/>
    </g>
    <g id="line2d_41"/>
    <g id="text_22">
     <!-- 2.65e+10 -->
     <g style="fill:#262626;" transform="translate(256.936974 115.604014)scale(0.0833 -0.0833)">
      <use xlink:href="#DejaVuSans-32"/>
      <use x="63.623047" xlink:href="#DejaVuSans-2e"/>
      <use x="95.410156" xlink:href="#DejaVuSans-36"/>
      <use x="159.033203" xlink:href="#DejaVuSans-35"/>
      <use x="222.65625" xlink:href="#DejaVuSans-65"/>
      <use x="284.179688" xlink:href="#DejaVuSans-2b"/>
      <use x="367.96875" xlink:href="#DejaVuSans-31"/>
      <use x="431.591797" xlink:href="#DejaVuSans-30"/>
     </g>
    </g>
    <g id="line2d_42">
     <path d="M 233.612974 124.915392 
L 250.272974 124.915392 
" style="fill:none;stroke:#69db57;stroke-linecap:round;stroke-width:1.5;"/>
    </g>
    <g id="line2d_43"/>
    <g id="text_23">
     <!-- 7.20e+10 -->
     <g style="fill:#262626;" transform="translate(256.936974 127.830892)scale(0.0833 -0.0833)">
      <use xlink:href="#DejaVuSans-37"/>
      <use x="63.623047" xlink:href="#DejaVuSans-2e"/>
      <use x="95.410156" xlink:href="#DejaVuSans-32"/>
      <use x="159.033203" xlink:href="#DejaVuSans-30"/>
      <use x="222.65625" xlink:href="#DejaVuSans-65"/>
      <use x="284.179688" xlink:href="#DejaVuSans-2b"/>
      <use x="367.96875" xlink:href="#DejaVuSans-31"/>
      <use x="431.591797" xlink:href="#DejaVuSans-30"/>
     </g>
    </g>
    <g id="line2d_44">
     <path d="M 233.612974 137.14227 
L 250.272974 137.14227 
" style="fill:none;stroke:#57db6c;stroke-linecap:round;stroke-width:1.5;"/>
    </g>
    <g id="line2d_45"/>
    <g id="text_24">
     <!-- 1.96e+11 -->
     <g style="fill:#262626;" transform="translate(256.936974 140.05777)scale(0.0833 -0.0833)">
      <use xlink:href="#DejaVuSans-31"/>
      <use x="63.623047" xlink:href="#DejaVuSans-2e"/>
      <use x="95.410156" xlink:href="#DejaVuSans-39"/>
      <use x="159.033203" xlink:href="#DejaVuSans-36"/>
      <use x="222.65625" xlink:href="#DejaVuSans-65"/>
      <use x="284.179688" xlink:href="#DejaVuSans-2b"/>
      <use x="367.96875" xlink:href="#DejaVuSans-31"/>
      <use x="431.591797" xlink:href="#DejaVuSans-31"/>
     </g>
    </g>
    <g id="line2d_46">
     <path d="M 233.612974 149.369148 
L 250.272974 149.369148 
" style="fill:none;stroke:#57db94;stroke-linecap:round;stroke-width:1.5;"/>
    </g>
    <g id="line2d_47"/>
    <g id="text_25">
     <!-- 5.32e+11 -->
     <g style="fill:#262626;" transform="translate(256.936974 152.284648)scale(0.0833 -0.0833)">
      <use xlink:href="#DejaVuSans-35"/>
      <use x="63.623047" xlink:href="#DejaVuSans-2e"/>
      <use x="95.410156" xlink:href="#DejaVuSans-33"/>
      <use x="159.033203" xlink:href="#DejaVuSans-32"/>
      <use x="222.65625" xlink:href="#DejaVuSans-65"/>
      <use x="284.179688" xlink:href="#DejaVuSans-2b"/>
      <use x="367.96875" xlink:href="#DejaVuSans-31"/>
      <use x="431.591797" xlink:href="#DejaVuSans-31"/>
     </g>
    </g>
    <g id="line2d_48">
     <path d="M 233.612974 161.596027 
L 250.272974 161.596027 
" style="fill:none;stroke:#57dbbb;stroke-linecap:round;stroke-width:1.5;"/>
    </g>
    <g id="line2d_49"/>
    <g id="text_26">
     <!-- 1.45e+12 -->
     <g style="fill:#262626;" transform="translate(256.936974 164.511527)scale(0.0833 -0.0833)">
      <use xlink:href="#DejaVuSans-31"/>
      <use x="63.623047" xlink:href="#DejaVuSans-2e"/>
      <use x="95.410156" xlink:href="#DejaVuSans-34"/>
      <use x="159.033203" xlink:href="#DejaVuSans-35"/>
      <use x="222.65625" xlink:href="#DejaVuSans-65"/>
      <use x="284.179688" xlink:href="#DejaVuSans-2b"/>
      <use x="367.96875" xlink:href="#DejaVuSans-31"/>
      <use x="431.591797" xlink:href="#DejaVuSans-32"/>
     </g>
    </g>
    <g id="line2d_50">
     <path d="M 233.612974 173.822905 
L 250.272974 173.822905 
" style="fill:none;stroke:#57d3db;stroke-linecap:round;stroke-width:1.5;"/>
    </g>
    <g id="line2d_51"/>
    <g id="text_27">
     <!-- 3.93e+12 -->
     <g style="fill:#262626;" transform="translate(256.936974 176.738405)scale(0.0833 -0.0833)">
      <use xlink:href="#DejaVuSans-33"/>
      <use x="63.623047" xlink:href="#DejaVuSans-2e"/>
      <use x="95.410156" xlink:href="#DejaVuSans-39"/>
      <use x="159.033203" xlink:href="#DejaVuSans-33"/>
      <use x="222.65625" xlink:href="#DejaVuSans-65"/>
      <use x="284.179688" xlink:href="#DejaVuSans-2b"/>
      <use x="367.96875" xlink:href="#DejaVuSans-31"/>
      <use x="431.591797" xlink:href="#DejaVuSans-32"/>
     </g>
    </g>
    <g id="line2d_52">
     <path d="M 233.612974 186.049783 
L 250.272974 186.049783 
" style="fill:none;stroke:#57acdb;stroke-linecap:round;stroke-width:1.5;"/>
    </g>
    <g id="line2d_53"/>
    <g id="text_28">
     <!-- 1.07e+13 -->
     <g style="fill:#262626;" transform="translate(256.936974 188.965283)scale(0.0833 -0.0833)">
      <use xlink:href="#DejaVuSans-31"/>
      <use x="63.623047" xlink:href="#DejaVuSans-2e"/>
      <use x="95.410156" xlink:href="#DejaVuSans-30"/>
      <use x="159.033203" xlink:href="#DejaVuSans-37"/>
      <use x="222.65625" xlink:href="#DejaVuSans-65"/>
      <use x="284.179688" xlink:href="#DejaVuSans-2b"/>
      <use x="367.96875" xlink:href="#DejaVuSans-31"/>
      <use x="431.591797" xlink:href="#DejaVuSans-33"/>
     </g>
    </g>
    <g id="line2d_54">
     <path d="M 233.612974 198.276661 
L 250.272974 198.276661 
" style="fill:none;stroke:#5784db;stroke-linecap:round;stroke-width:1.5;"/>
    </g>
    <g id="line2d_55"/>
    <g id="text_29">
     <!-- 2.90e+13 -->
     <g style="fill:#262626;" transform="translate(256.936974 201.192161)scale(0.0833 -0.0833)">
      <use xlink:href="#DejaVuSans-32"/>
      <use x="63.623047" xlink:href="#DejaVuSans-2e"/>
      <use x="95.410156" xlink:href="#DejaVuSans-39"/>
      <use x="159.033203" xlink:href="#DejaVuSans-30"/>
      <use x="222.65625" xlink:href="#DejaVuSans-65"/>
      <use x="284.179688" xlink:href="#DejaVuSans-2b"/>
      <use x="367.96875" xlink:href="#DejaVuSans-31"/>
      <use x="431.591797" xlink:href="#DejaVuSans-33"/>
     </g>
    </g>
    <g id="line2d_56">
     <path d="M 233.612974 210.503539 
L 250.272974 210.503539 
" style="fill:none;stroke:#575cdb;stroke-linecap:round;stroke-width:1.5;"/>
    </g>
    <g id="line2d_57"/>
    <g id="text_30">
     <!-- 7.9e+13 -->
     <g style="fill:#262626;" transform="translate(256.936974 213.419039)scale(0.0833 -0.0833)">
      <use xlink:href="#DejaVuSans-37"/>
      <use x="63.623047" xlink:href="#DejaVuSans-2e"/>
      <use x="95.410156" xlink:href="#DejaVuSans-39"/>
      <use x="159.033203" xlink:href="#DejaVuSans-65"/>
      <use x="220.556641" xlink:href="#DejaVuSans-2b"/>
      <use x="304.345703" xlink:href="#DejaVuSans-31"/>
      <use x="367.96875" xlink:href="#DejaVuSans-33"/>
     </g>
    </g>
    <g id="line2d_58">
     <path d="M 233.612974 222.730417 
L 250.272974 222.730417 
" style="fill:none;stroke:#7957db;stroke-linecap:round;stroke-width:1.5;"/>
    </g>
    <g id="line2d_59"/>
    <g id="text_31">
     <!-- 2.15e+14 -->
     <g style="fill:#262626;" transform="translate(256.936974 225.645917)scale(0.0833 -0.0833)">
      <use xlink:href="#DejaVuSans-32"/>
      <use x="63.623047" xlink:href="#DejaVuSans-2e"/>
      <use x="95.410156" xlink:href="#DejaVuSans-31"/>
      <use x="159.033203" xlink:href="#DejaVuSans-35"/>
      <use x="222.65625" xlink:href="#DejaVuSans-65"/>
      <use x="284.179688" xlink:href="#DejaVuSans-2b"/>
      <use x="367.96875" xlink:href="#DejaVuSans-31"/>
      <use x="431.591797" xlink:href="#DejaVuSans-34"/>
     </g>
    </g>
    <g id="line2d_60">
     <path d="M 233.612974 234.957295 
L 250.272974 234.957295 
" style="fill:none;stroke:#a157db;stroke-linecap:round;stroke-width:1.5;"/>
    </g>
    <g id="line2d_61"/>
    <g id="text_32">
     <!-- 5.83e+14 -->
     <g style="fill:#262626;" transform="translate(256.936974 237.872795)scale(0.0833 -0.0833)">
      <use xlink:href="#DejaVuSans-35"/>
      <use x="63.623047" xlink:href="#DejaVuSans-2e"/>
      <use x="95.410156" xlink:href="#DejaVuSans-38"/>
      <use x="159.033203" xlink:href="#DejaVuSans-33"/>
      <use x="222.65625" xlink:href="#DejaVuSans-65"/>
      <use x="284.179688" xlink:href="#DejaVuSans-2b"/>
      <use x="367.96875" xlink:href="#DejaVuSans-31"/>
      <use x="431.591797" xlink:href="#DejaVuSans-34"/>
     </g>
    </g>
   </g>
  </g>
  <g id="axes_2">
   <g id="patch_8">
    <path d="M 335.75625 257.7 
L 603.768247 257.7 
L 603.768247 26.8 
L 335.75625 26.8 
z
" style="fill:#eaeaf2;"/>
   </g>
   <g id="matplotlib.axis_3">
    <g id="xtick_8">
     <g id="line2d_62">
      <path clip-path="url(#p52af338eb2)" d="M 347.938614 257.7 
L 347.938614 26.8 
" style="fill:none;stroke:#ffffff;stroke-linecap:round;"/>
     </g>
     <g id="text_33">
      <!-- 0 -->
      <g style="fill:#262626;" transform="translate(344.439239 275.558281)scale(0.11 -0.11)">
       <use xlink:href="#DejaVuSans-30"/>
      </g>
     </g>
    </g>
    <g id="xtick_9">
     <g id="line2d_63">
      <path clip-path="url(#p52af338eb2)" d="M 389.660465 257.7 
L 389.660465 26.8 
" style="fill:none;stroke:#ffffff;stroke-linecap:round;"/>
     </g>
     <g id="text_34">
      <!-- 5000 -->
      <g style="fill:#262626;" transform="translate(375.662965 275.558281)scale(0.11 -0.11)">
       <use xlink:href="#DejaVuSans-35"/>
       <use x="63.623047" xlink:href="#DejaVuSans-30"/>
       <use x="127.246094" xlink:href="#DejaVuSans-30"/>
       <use x="190.869141" xlink:href="#DejaVuSans-30"/>
      </g>
     </g>
    </g>
    <g id="xtick_10">
     <g id="line2d_64">
      <path clip-path="url(#p52af338eb2)" d="M 431.382317 257.7 
L 431.382317 26.8 
" style="fill:none;stroke:#ffffff;stroke-linecap:round;"/>
     </g>
     <g id="text_35">
      <!-- 10000 -->
      <g style="fill:#262626;" transform="translate(413.885442 275.558281)scale(0.11 -0.11)">
       <use xlink:href="#DejaVuSans-31"/>
       <use x="63.623047" xlink:href="#DejaVuSans-30"/>
       <use x="127.246094" xlink:href="#DejaVuSans-30"/>
       <use x="190.869141" xlink:href="#DejaVuSans-30"/>
       <use x="254.492188" xlink:href="#DejaVuSans-30"/>
      </g>
     </g>
    </g>
    <g id="xtick_11">
     <g id="line2d_65">
      <path clip-path="url(#p52af338eb2)" d="M 473.104169 257.7 
L 473.104169 26.8 
" style="fill:none;stroke:#ffffff;stroke-linecap:round;"/>
     </g>
     <g id="text_36">
      <!-- 15000 -->
      <g style="fill:#262626;" transform="translate(455.607294 275.558281)scale(0.11 -0.11)">
       <use xlink:href="#DejaVuSans-31"/>
       <use x="63.623047" xlink:href="#DejaVuSans-35"/>
       <use x="127.246094" xlink:href="#DejaVuSans-30"/>
       <use x="190.869141" xlink:href="#DejaVuSans-30"/>
       <use x="254.492188" xlink:href="#DejaVuSans-30"/>
      </g>
     </g>
    </g>
    <g id="xtick_12">
     <g id="line2d_66">
      <path clip-path="url(#p52af338eb2)" d="M 514.826021 257.7 
L 514.826021 26.8 
" style="fill:none;stroke:#ffffff;stroke-linecap:round;"/>
     </g>
     <g id="text_37">
      <!-- 20000 -->
      <g style="fill:#262626;" transform="translate(497.329146 275.558281)scale(0.11 -0.11)">
       <use xlink:href="#DejaVuSans-32"/>
       <use x="63.623047" xlink:href="#DejaVuSans-30"/>
       <use x="127.246094" xlink:href="#DejaVuSans-30"/>
       <use x="190.869141" xlink:href="#DejaVuSans-30"/>
       <use x="254.492188" xlink:href="#DejaVuSans-30"/>
      </g>
     </g>
    </g>
    <g id="xtick_13">
     <g id="line2d_67">
      <path clip-path="url(#p52af338eb2)" d="M 556.547873 257.7 
L 556.547873 26.8 
" style="fill:none;stroke:#ffffff;stroke-linecap:round;"/>
     </g>
     <g id="text_38">
      <!-- 25000 -->
      <g style="fill:#262626;" transform="translate(539.050998 275.558281)scale(0.11 -0.11)">
       <use xlink:href="#DejaVuSans-32"/>
       <use x="63.623047" xlink:href="#DejaVuSans-35"/>
       <use x="127.246094" xlink:href="#DejaVuSans-30"/>
       <use x="190.869141" xlink:href="#DejaVuSans-30"/>
       <use x="254.492188" xlink:href="#DejaVuSans-30"/>
      </g>
     </g>
    </g>
    <g id="xtick_14">
     <g id="line2d_68">
      <path clip-path="url(#p52af338eb2)" d="M 598.269724 257.7 
L 598.269724 26.8 
" style="fill:none;stroke:#ffffff;stroke-linecap:round;"/>
     </g>
     <g id="text_39">
      <!-- 30000 -->
      <g style="fill:#262626;" transform="translate(580.772849 275.558281)scale(0.11 -0.11)">
       <use xlink:href="#DejaVuSans-33"/>
       <use x="63.623047" xlink:href="#DejaVuSans-30"/>
       <use x="127.246094" xlink:href="#DejaVuSans-30"/>
       <use x="190.869141" xlink:href="#DejaVuSans-30"/>
       <use x="254.492188" xlink:href="#DejaVuSans-30"/>
      </g>
     </g>
    </g>
   </g>
   <g id="matplotlib.axis_4">
    <g id="ytick_7">
     <g id="line2d_69">
      <path clip-path="url(#p52af338eb2)" d="M 335.75625 247.204545 
L 603.768247 247.204545 
" style="fill:none;stroke:#ffffff;stroke-linecap:round;"/>
     </g>
    </g>
    <g id="ytick_8">
     <g id="line2d_70">
      <path clip-path="url(#p52af338eb2)" d="M 335.75625 205.222727 
L 603.768247 205.222727 
" style="fill:none;stroke:#ffffff;stroke-linecap:round;"/>
     </g>
    </g>
    <g id="ytick_9">
     <g id="line2d_71">
      <path clip-path="url(#p52af338eb2)" d="M 335.75625 163.240909 
L 603.768247 163.240909 
" style="fill:none;stroke:#ffffff;stroke-linecap:round;"/>
     </g>
    </g>
    <g id="ytick_10">
     <g id="line2d_72">
      <path clip-path="url(#p52af338eb2)" d="M 335.75625 121.259091 
L 603.768247 121.259091 
" style="fill:none;stroke:#ffffff;stroke-linecap:round;"/>
     </g>
    </g>
    <g id="ytick_11">
     <g id="line2d_73">
      <path clip-path="url(#p52af338eb2)" d="M 335.75625 79.277273 
L 603.768247 79.277273 
" style="fill:none;stroke:#ffffff;stroke-linecap:round;"/>
     </g>
    </g>
    <g id="ytick_12">
     <g id="line2d_74">
      <path clip-path="url(#p52af338eb2)" d="M 335.75625 37.295455 
L 603.768247 37.295455 
" style="fill:none;stroke:#ffffff;stroke-linecap:round;"/>
     </g>
    </g>
   </g>
   <g id="line2d_75">
    <path clip-path="url(#p52af338eb2)" d="M 347.938614 247.204545 
L 591.585884 247.204545 
L 591.585884 247.204545 
" style="fill:none;stroke:#db5f57;stroke-linecap:round;stroke-width:1.5;"/>
   </g>
   <g id="line2d_76">
    <path clip-path="url(#p52af338eb2)" d="M 347.938614 247.204545 
L 591.585884 247.204545 
L 591.585884 247.204545 
" style="fill:none;stroke:#db8657;stroke-linecap:round;stroke-width:1.5;"/>
   </g>
   <g id="line2d_77">
    <path clip-path="url(#p52af338eb2)" d="M 347.938614 247.204545 
L 591.585884 247.204545 
L 591.585884 247.204545 
" style="fill:none;stroke:#dbae57;stroke-linecap:round;stroke-width:1.5;"/>
   </g>
   <g id="line2d_78">
    <path clip-path="url(#p52af338eb2)" d="M 347.938614 247.204545 
L 591.585884 247.204545 
L 591.585884 247.204545 
" style="fill:none;stroke:#dbd657;stroke-linecap:round;stroke-width:1.5;"/>
   </g>
   <g id="line2d_79">
    <path clip-path="url(#p52af338eb2)" d="M 347.938614 247.204545 
L 591.585884 247.204545 
L 591.585884 247.204545 
" style="fill:none;stroke:#b9db57;stroke-linecap:round;stroke-width:1.5;"/>
   </g>
   <g id="line2d_80">
    <path clip-path="url(#p52af338eb2)" d="M 347.938614 247.204545 
L 591.585884 247.204545 
L 591.585884 247.204545 
" style="fill:none;stroke:#91db57;stroke-linecap:round;stroke-width:1.5;"/>
   </g>
   <g id="line2d_81">
    <path clip-path="url(#p52af338eb2)" d="M 347.938614 247.204545 
L 591.585884 247.204545 
L 591.585884 247.204545 
" style="fill:none;stroke:#69db57;stroke-linecap:round;stroke-width:1.5;"/>
   </g>
   <g id="line2d_82">
    <path clip-path="url(#p52af338eb2)" d="M 347.938614 247.204545 
L 591.585884 247.204545 
L 591.585884 247.204545 
" style="fill:none;stroke:#57db6c;stroke-linecap:round;stroke-width:1.5;"/>
   </g>
   <g id="line2d_83">
    <path clip-path="url(#p52af338eb2)" d="M 347.938614 247.204545 
L 591.585884 247.204545 
L 591.585884 247.204545 
" style="fill:none;stroke:#57db94;stroke-linecap:round;stroke-width:1.5;"/>
   </g>
   <g id="line2d_84">
    <path clip-path="url(#p52af338eb2)" d="M 347.938614 247.204545 
L 591.585884 247.204545 
L 591.585884 247.204545 
" style="fill:none;stroke:#57dbbb;stroke-linecap:round;stroke-width:1.5;"/>
   </g>
   <g id="line2d_85">
    <path clip-path="url(#p52af338eb2)" d="M 347.938614 247.204545 
L 591.585884 247.204545 
L 591.585884 247.204545 
" style="fill:none;stroke:#57d3db;stroke-linecap:round;stroke-width:1.5;"/>
   </g>
   <g id="line2d_86">
    <path clip-path="url(#p52af338eb2)" d="M 347.938614 247.204545 
L 591.585884 247.204545 
L 591.585884 247.204545 
" style="fill:none;stroke:#57acdb;stroke-linecap:round;stroke-width:1.5;"/>
   </g>
   <g id="line2d_87">
    <path clip-path="url(#p52af338eb2)" d="M 347.938614 247.204545 
L 591.585884 247.204545 
L 591.585884 247.204545 
" style="fill:none;stroke:#5784db;stroke-linecap:round;stroke-width:1.5;"/>
   </g>
   <g id="line2d_88">
    <path clip-path="url(#p52af338eb2)" d="M 347.938614 247.204545 
L 591.585884 247.204545 
L 591.585884 247.204545 
" style="fill:none;stroke:#575cdb;stroke-linecap:round;stroke-width:1.5;"/>
   </g>
   <g id="line2d_89">
    <path clip-path="url(#p52af338eb2)" d="M 347.938614 247.204545 
L 591.585884 247.204545 
L 591.585884 247.204545 
" style="fill:none;stroke:#7957db;stroke-linecap:round;stroke-width:1.5;"/>
   </g>
   <g id="line2d_90">
    <path clip-path="url(#p52af338eb2)" d="M 347.938614 247.204545 
L 591.585884 247.204545 
L 591.585884 247.204545 
" style="fill:none;stroke:#a157db;stroke-linecap:round;stroke-width:1.5;"/>
   </g>
   <g id="patch_9">
    <path d="M 335.75625 257.7 
L 335.75625 26.8 
" style="fill:none;stroke:#ffffff;stroke-linecap:square;stroke-linejoin:miter;stroke-width:1.25;"/>
   </g>
   <g id="patch_10">
    <path d="M 603.768247 257.7 
L 603.768247 26.8 
" style="fill:none;stroke:#ffffff;stroke-linecap:square;stroke-linejoin:miter;stroke-width:1.25;"/>
   </g>
   <g id="patch_11">
    <path d="M 335.75625 257.7 
L 603.768247 257.7 
" style="fill:none;stroke:#ffffff;stroke-linecap:square;stroke-linejoin:miter;stroke-width:1.25;"/>
   </g>
   <g id="patch_12">
    <path d="M 335.75625 26.8 
L 603.768247 26.8 
" style="fill:none;stroke:#ffffff;stroke-linecap:square;stroke-linejoin:miter;stroke-width:1.25;"/>
   </g>
   <g id="text_40">
    <!-- p = 4.54e-05 -->
    <g style="fill:#262626;" transform="translate(430.260686 20.8)scale(0.12 -0.12)">
     <use xlink:href="#DejaVuSans-70"/>
     <use x="63.476562" xlink:href="#DejaVuSans-20"/>
     <use x="95.263672" xlink:href="#DejaVuSans-3d"/>
     <use x="179.052734" xlink:href="#DejaVuSans-20"/>
     <use x="210.839844" xlink:href="#DejaVuSans-34"/>
     <use x="274.462891" xlink:href="#DejaVuSans-2e"/>
     <use x="306.25" xlink:href="#DejaVuSans-35"/>
     <use x="369.873047" xlink:href="#DejaVuSans-34"/>
     <use x="433.496094" xlink:href="#DejaVuSans-65"/>
     <use x="495.019531" xlink:href="#DejaVuSans-2d"/>
     <use x="531.103516" xlink:href="#DejaVuSans-30"/>
     <use x="594.726562" xlink:href="#DejaVuSans-35"/>
    </g>
   </g>
  </g>
  <g id="axes_3">
   <g id="patch_13">
    <path d="M 633.8375 257.7 
L 901.849497 257.7 
L 901.849497 26.8 
L 633.8375 26.8 
z
" style="fill:#eaeaf2;"/>
   </g>
   <g id="matplotlib.axis_5">
    <g id="xtick_15">
     <g id="line2d_91">
      <path clip-path="url(#pb520a0c604)" d="M 646.019864 257.7 
L 646.019864 26.8 
" style="fill:none;stroke:#ffffff;stroke-linecap:round;"/>
     </g>
     <g id="text_41">
      <!-- 0 -->
      <g style="fill:#262626;" transform="translate(642.520489 275.558281)scale(0.11 -0.11)">
       <use xlink:href="#DejaVuSans-30"/>
      </g>
     </g>
    </g>
    <g id="xtick_16">
     <g id="line2d_92">
      <path clip-path="url(#pb520a0c604)" d="M 687.741715 257.7 
L 687.741715 26.8 
" style="fill:none;stroke:#ffffff;stroke-linecap:round;"/>
     </g>
     <g id="text_42">
      <!-- 5000 -->
      <g style="fill:#262626;" transform="translate(673.744215 275.558281)scale(0.11 -0.11)">
       <use xlink:href="#DejaVuSans-35"/>
       <use x="63.623047" xlink:href="#DejaVuSans-30"/>
       <use x="127.246094" xlink:href="#DejaVuSans-30"/>
       <use x="190.869141" xlink:href="#DejaVuSans-30"/>
      </g>
     </g>
    </g>
    <g id="xtick_17">
     <g id="line2d_93">
      <path clip-path="url(#pb520a0c604)" d="M 729.463567 257.7 
L 729.463567 26.8 
" style="fill:none;stroke:#ffffff;stroke-linecap:round;"/>
     </g>
     <g id="text_43">
      <!-- 10000 -->
      <g style="fill:#262626;" transform="translate(711.966692 275.558281)scale(0.11 -0.11)">
       <use xlink:href="#DejaVuSans-31"/>
       <use x="63.623047" xlink:href="#DejaVuSans-30"/>
       <use x="127.246094" xlink:href="#DejaVuSans-30"/>
       <use x="190.869141" xlink:href="#DejaVuSans-30"/>
       <use x="254.492188" xlink:href="#DejaVuSans-30"/>
      </g>
     </g>
    </g>
    <g id="xtick_18">
     <g id="line2d_94">
      <path clip-path="url(#pb520a0c604)" d="M 771.185419 257.7 
L 771.185419 26.8 
" style="fill:none;stroke:#ffffff;stroke-linecap:round;"/>
     </g>
     <g id="text_44">
      <!-- 15000 -->
      <g style="fill:#262626;" transform="translate(753.688544 275.558281)scale(0.11 -0.11)">
       <use xlink:href="#DejaVuSans-31"/>
       <use x="63.623047" xlink:href="#DejaVuSans-35"/>
       <use x="127.246094" xlink:href="#DejaVuSans-30"/>
       <use x="190.869141" xlink:href="#DejaVuSans-30"/>
       <use x="254.492188" xlink:href="#DejaVuSans-30"/>
      </g>
     </g>
    </g>
    <g id="xtick_19">
     <g id="line2d_95">
      <path clip-path="url(#pb520a0c604)" d="M 812.907271 257.7 
L 812.907271 26.8 
" style="fill:none;stroke:#ffffff;stroke-linecap:round;"/>
     </g>
     <g id="text_45">
      <!-- 20000 -->
      <g style="fill:#262626;" transform="translate(795.410396 275.558281)scale(0.11 -0.11)">
       <use xlink:href="#DejaVuSans-32"/>
       <use x="63.623047" xlink:href="#DejaVuSans-30"/>
       <use x="127.246094" xlink:href="#DejaVuSans-30"/>
       <use x="190.869141" xlink:href="#DejaVuSans-30"/>
       <use x="254.492188" xlink:href="#DejaVuSans-30"/>
      </g>
     </g>
    </g>
    <g id="xtick_20">
     <g id="line2d_96">
      <path clip-path="url(#pb520a0c604)" d="M 854.629123 257.7 
L 854.629123 26.8 
" style="fill:none;stroke:#ffffff;stroke-linecap:round;"/>
     </g>
     <g id="text_46">
      <!-- 25000 -->
      <g style="fill:#262626;" transform="translate(837.132248 275.558281)scale(0.11 -0.11)">
       <use xlink:href="#DejaVuSans-32"/>
       <use x="63.623047" xlink:href="#DejaVuSans-35"/>
       <use x="127.246094" xlink:href="#DejaVuSans-30"/>
       <use x="190.869141" xlink:href="#DejaVuSans-30"/>
       <use x="254.492188" xlink:href="#DejaVuSans-30"/>
      </g>
     </g>
    </g>
    <g id="xtick_21">
     <g id="line2d_97">
      <path clip-path="url(#pb520a0c604)" d="M 896.350974 257.7 
L 896.350974 26.8 
" style="fill:none;stroke:#ffffff;stroke-linecap:round;"/>
     </g>
     <g id="text_47">
      <!-- 30000 -->
      <g style="fill:#262626;" transform="translate(878.854099 275.558281)scale(0.11 -0.11)">
       <use xlink:href="#DejaVuSans-33"/>
       <use x="63.623047" xlink:href="#DejaVuSans-30"/>
       <use x="127.246094" xlink:href="#DejaVuSans-30"/>
       <use x="190.869141" xlink:href="#DejaVuSans-30"/>
       <use x="254.492188" xlink:href="#DejaVuSans-30"/>
      </g>
     </g>
    </g>
   </g>
   <g id="matplotlib.axis_6">
    <g id="ytick_13">
     <g id="line2d_98">
      <path clip-path="url(#pb520a0c604)" d="M 633.8375 247.204545 
L 901.849497 247.204545 
" style="fill:none;stroke:#ffffff;stroke-linecap:round;"/>
     </g>
    </g>
    <g id="ytick_14">
     <g id="line2d_99">
      <path clip-path="url(#pb520a0c604)" d="M 633.8375 205.222727 
L 901.849497 205.222727 
" style="fill:none;stroke:#ffffff;stroke-linecap:round;"/>
     </g>
    </g>
    <g id="ytick_15">
     <g id="line2d_100">
      <path clip-path="url(#pb520a0c604)" d="M 633.8375 163.240909 
L 901.849497 163.240909 
" style="fill:none;stroke:#ffffff;stroke-linecap:round;"/>
     </g>
    </g>
    <g id="ytick_16">
     <g id="line2d_101">
      <path clip-path="url(#pb520a0c604)" d="M 633.8375 121.259091 
L 901.849497 121.259091 
" style="fill:none;stroke:#ffffff;stroke-linecap:round;"/>
     </g>
    </g>
    <g id="ytick_17">
     <g id="line2d_102">
      <path clip-path="url(#pb520a0c604)" d="M 633.8375 79.277273 
L 901.849497 79.277273 
" style="fill:none;stroke:#ffffff;stroke-linecap:round;"/>
     </g>
    </g>
    <g id="ytick_18">
     <g id="line2d_103">
      <path clip-path="url(#pb520a0c604)" d="M 633.8375 37.295455 
L 901.849497 37.295455 
" style="fill:none;stroke:#ffffff;stroke-linecap:round;"/>
     </g>
    </g>
   </g>
   <g id="line2d_104">
    <path clip-path="url(#pb520a0c604)" d="M 646.019864 247.204545 
L 889.667134 246.477097 
L 889.667134 246.477097 
" style="fill:none;stroke:#db5f57;stroke-linecap:round;stroke-width:1.5;"/>
   </g>
   <g id="line2d_105">
    <path clip-path="url(#pb520a0c604)" d="M 646.019864 247.204545 
L 889.667134 245.233018 
L 889.667134 245.233018 
" style="fill:none;stroke:#db8657;stroke-linecap:round;stroke-width:1.5;"/>
   </g>
   <g id="line2d_106">
    <path clip-path="url(#pb520a0c604)" d="M 646.019864 247.204545 
L 889.667134 241.888526 
L 889.667134 241.888526 
" style="fill:none;stroke:#dbae57;stroke-linecap:round;stroke-width:1.5;"/>
   </g>
   <g id="line2d_107">
    <path clip-path="url(#pb520a0c604)" d="M 646.019864 247.204545 
L 760.43787 240.442453 
L 876.750048 233.791651 
L 889.667134 233.066609 
L 889.667134 233.066609 
" style="fill:none;stroke:#dbd657;stroke-linecap:round;stroke-width:1.5;"/>
   </g>
   <g id="line2d_108">
    <path clip-path="url(#pb520a0c604)" d="M 646.019864 247.204545 
L 688.350854 240.404693 
L 731.374428 233.719258 
L 775.107273 227.149094 
L 819.582767 220.692711 
L 864.817599 214.351271 
L 889.667134 210.961436 
L 889.667134 210.961436 
" style="fill:none;stroke:#b9db57;stroke-linecap:round;stroke-width:1.5;"/>
   </g>
   <g id="line2d_109">
    <path clip-path="url(#pb520a0c604)" d="M 646.019864 247.204545 
L 662.207942 240.140559 
L 678.629663 233.217471 
L 695.293371 226.433858 
L 712.215754 219.785271 
L 729.405157 213.271003 
L 746.869924 206.890488 
L 764.626744 200.640408 
L 782.683961 194.520755 
L 801.049921 188.531602 
L 819.749655 182.667951 
L 838.791508 176.930586 
L 858.183824 171.320292 
L 877.951638 165.833306 
L 889.667134 162.68803 
L 889.667134 162.68803 
" style="fill:none;stroke:#91db57;stroke-linecap:round;stroke-width:1.5;"/>
   </g>
   <g id="line2d_110">
    <path clip-path="url(#pb520a0c604)" d="M 646.019864 247.204545 
L 653.1543 238.770302 
L 660.347147 230.610034 
L 667.60675 222.709117 
L 674.941451 215.054365 
L 682.351252 207.642086 
L 689.836152 200.468433 
L 697.404496 193.521926 
L 705.064628 186.792244 
L 712.824893 180.270136 
L 720.68529 173.953888 
L 728.654163 167.835253 
L 736.739858 161.906863 
L 744.950719 156.162155 
L 753.295089 150.5953 
L 761.781314 145.201134 
L 770.417737 139.975093 
L 779.212703 134.913155 
L 788.174557 130.011776 
L 797.319987 125.263621 
L 806.657337 120.666601 
L 816.203297 116.21512 
L 825.96621 111.908212 
L 835.962766 107.741673 
L 846.209653 103.712163 
L 856.72356 99.817104 
L 867.529519 96.051753 
L 878.635876 92.417904 
L 889.667134 89.031124 
L 889.667134 89.031124 
" style="fill:none;stroke:#69db57;stroke-linecap:round;stroke-width:1.5;"/>
   </g>
   <g id="line2d_111">
    <path clip-path="url(#pb520a0c604)" d="M 646.019864 247.204545 
L 649.916684 234.804837 
L 653.82185 223.113373 
L 657.743704 212.068399 
L 661.673902 201.658504 
L 665.62079 191.828345 
L 669.584365 182.548223 
L 673.56463 173.7898 
L 677.569928 165.50933 
L 681.600259 157.684099 
L 685.655623 150.292255 
L 689.744364 143.298972 
L 693.866483 136.686648 
L 698.02198 130.4382 
L 702.219198 124.525691 
L 706.466482 118.924612 
L 710.763833 113.623446 
L 715.119595 108.60144 
L 719.542111 103.840411 
L 724.039726 99.324441 
L 728.612441 95.047132 
L 733.276944 90.987711 
L 738.04158 87.135591 
L 742.914692 83.481489 
L 747.904626 80.017239 
L 753.036413 76.725337 
L 758.3184 73.601784 
L 763.767274 70.638612 
L 769.399724 67.829571 
L 775.232439 65.169822 
L 781.298796 62.64903 
L 787.615484 60.266177 
L 794.215881 58.015223 
L 801.133364 55.892477 
L 808.409655 53.893887 
L 816.086476 52.017657 
L 824.222237 50.260205 
L 832.875349 48.620627 
L 842.129256 47.095962 
L 852.075745 45.685271 
L 862.831639 44.387375 
L 874.53879 43.201816 
L 887.397465 42.126733 
L 889.667134 41.9584 
L 889.667134 41.9584 
" style="fill:none;stroke:#57db6c;stroke-linecap:round;stroke-width:1.5;"/>
   </g>
   <g id="line2d_112">
    <path clip-path="url(#pb520a0c604)" d="M 646.019864 247.204545 
L 648.356287 227.374164 
L 650.692711 209.417184 
L 653.029135 193.156623 
L 655.365558 178.432218 
L 657.710326 165.053559 
L 660.055094 152.943092 
L 662.408207 141.943507 
L 664.761319 131.990125 
L 667.122776 122.953074 
L 669.492577 114.751005 
L 671.870723 107.309499 
L 674.257213 100.560507 
L 676.660391 94.421575 
L 679.080259 88.841785 
L 681.516815 83.774043 
L 683.978404 79.159997 
L 686.473371 74.950579 
L 689.001715 71.116431 
L 691.571781 67.618903 
L 694.191914 64.425312 
L 696.870457 61.507919 
L 699.624099 58.835429 
L 702.461185 56.390125 
L 705.406747 54.144612 
L 708.469131 52.089581 
L 711.67337 50.207166 
L 715.05284 48.480711 
L 718.632574 46.903035 
L 722.454296 45.463504 
L 726.568071 44.154055 
L 731.032309 42.969437 
L 735.92211 41.905344 
L 741.337606 40.95811 
L 747.420652 40.124161 
L 754.371513 39.401036 
L 762.473896 38.787957 
L 772.195088 38.283092 
L 784.327802 37.88538 
L 800.424093 37.593227 
L 824.163826 37.404092 
L 868.155347 37.312224 
L 889.667134 37.30218 
L 889.667134 37.30218 
" style="fill:none;stroke:#57db94;stroke-linecap:round;stroke-width:1.5;"/>
   </g>
   <g id="line2d_113">
    <path clip-path="url(#pb520a0c604)" d="M 646.019864 247.204545 
L 647.446751 215.322061 
L 648.873638 188.282114 
L 650.300526 165.349187 
L 651.727413 145.899476 
L 653.1543 129.403925 
L 654.581188 115.413836 
L 656.008075 103.548661 
L 657.443307 93.431545 
L 658.878538 84.859351 
L 660.31377 77.596164 
L 661.757346 71.409212 
L 663.209266 66.144273 
L 664.669531 61.668404 
L 666.13814 57.867134 
L 667.623438 54.625297 
L 669.133769 51.8522 
L 670.677478 49.475821 
L 672.262908 47.438408 
L 673.906749 45.685025 
L 675.62569 44.174836 
L 677.444762 42.871654 
L 679.405689 41.741914 
L 681.541848 40.770048 
L 683.919994 39.935796 
L 686.62357 39.227862 
L 689.777742 38.638045 
L 693.582775 38.160728 
L 698.389132 37.792224 
L 704.91443 37.52932 
L 714.986085 37.368561 
L 736.05562 37.301874 
L 889.667134 37.295455 
L 889.667134 37.295455 
" style="fill:none;stroke:#57dbbb;stroke-linecap:round;stroke-width:1.5;"/>
   </g>
   <g id="line2d_114">
    <path clip-path="url(#pb520a0c604)" d="M 646.019864 247.204545 
L 646.896022 196.740782 
L 647.772181 158.408897 
L 648.656685 129.051686 
L 649.541188 106.810497 
L 650.425691 89.960446 
L 651.310194 77.194751 
L 652.194698 67.523388 
L 653.079201 60.196309 
L 653.963704 54.645272 
L 654.848207 50.439775 
L 655.741055 47.227622 
L 656.642247 44.780813 
L 657.560128 42.90731 
L 658.511386 41.458883 
L 659.504366 40.344115 
L 660.572445 39.475829 
L 661.76569 38.79477 
L 663.150856 38.266181 
L 664.844763 37.865906 
L 667.081054 37.578213 
L 670.402114 37.395169 
L 676.702113 37.309261 
L 705.56529 37.295456 
L 889.667134 37.295455 
L 889.667134 37.295455 
" style="fill:none;stroke:#57d3db;stroke-linecap:round;stroke-width:1.5;"/>
   </g>
   <g id="line2d_115">
    <path clip-path="url(#pb520a0c604)" d="M 646.019864 247.204545 
L 646.570592 168.511541 
L 647.12132 119.319827 
L 647.672049 88.569637 
L 648.222777 69.347414 
L 648.773506 57.331426 
L 649.324234 49.820123 
L 649.874963 45.124739 
L 650.425691 42.189612 
L 650.984764 40.333136 
L 651.552181 39.167493 
L 652.152976 38.416753 
L 652.82887 37.925401 
L 653.663307 37.604588 
L 654.848207 37.407952 
L 657.001055 37.313382 
L 665.462246 37.295468 
L 889.667134 37.295455 
L 889.667134 37.295455 
" style="fill:none;stroke:#57acdb;stroke-linecap:round;stroke-width:1.5;"/>
   </g>
   <g id="line2d_116">
    <path clip-path="url(#pb520a0c604)" d="M 646.019864 247.204545 
L 646.370327 130.421775 
L 646.720791 78.611014 
L 647.071254 55.625132 
L 647.421718 45.427429 
L 647.772181 40.903211 
L 648.122645 38.896038 
L 648.481453 37.991946 
L 648.865294 37.581439 
L 649.365956 37.385015 
L 650.300526 37.305709 
L 655.449002 37.295455 
L 889.667134 37.295455 
L 889.667134 37.295455 
" style="fill:none;stroke:#5784db;stroke-linecap:round;stroke-width:1.5;"/>
   </g>
   <g id="line2d_117">
    <path clip-path="url(#pb520a0c604)" d="M 646.019864 247.204545 
L 646.253506 85.424093 
L 646.487148 48.330545 
L 646.720791 39.825616 
L 646.954433 37.875578 
L 647.19642 37.421652 
L 647.513506 37.312554 
L 648.740128 37.295462 
L 889.667134 37.295455 
L 889.667134 37.295455 
" style="fill:none;stroke:#575cdb;stroke-linecap:round;stroke-width:1.5;"/>
   </g>
   <g id="line2d_118">
    <path clip-path="url(#pb520a0c604)" d="M 646.019864 247.204545 
L 646.186751 49.321174 
L 646.353638 37.98441 
L 646.520526 37.334925 
L 646.787546 37.295861 
L 663.96026 37.295455 
L 889.667134 37.295455 
L 889.667134 37.295455 
" style="fill:none;stroke:#7957db;stroke-linecap:round;stroke-width:1.5;"/>
   </g>
   <g id="line2d_119">
    <path clip-path="url(#pb520a0c604)" d="M 646.019864 247.204545 
L 646.153373 37.713593 
L 646.286883 37.296287 
L 649.766486 37.295455 
L 889.667134 37.295455 
L 889.667134 37.295455 
" style="fill:none;stroke:#a157db;stroke-linecap:round;stroke-width:1.5;"/>
   </g>
   <g id="patch_14">
    <path d="M 633.8375 257.7 
L 633.8375 26.8 
" style="fill:none;stroke:#ffffff;stroke-linecap:square;stroke-linejoin:miter;stroke-width:1.25;"/>
   </g>
   <g id="patch_15">
    <path d="M 901.849497 257.7 
L 901.849497 26.8 
" style="fill:none;stroke:#ffffff;stroke-linecap:square;stroke-linejoin:miter;stroke-width:1.25;"/>
   </g>
   <g id="patch_16">
    <path d="M 633.8375 257.7 
L 901.849497 257.7 
" style="fill:none;stroke:#ffffff;stroke-linecap:square;stroke-linejoin:miter;stroke-width:1.25;"/>
   </g>
   <g id="patch_17">
    <path d="M 633.8375 26.8 
L 901.849497 26.8 
" style="fill:none;stroke:#ffffff;stroke-linecap:square;stroke-linejoin:miter;stroke-width:1.25;"/>
   </g>
   <g id="text_48">
    <!-- p = 9.12e-04 -->
    <g style="fill:#262626;" transform="translate(728.341936 20.8)scale(0.12 -0.12)">
     <use xlink:href="#DejaVuSans-70"/>
     <use x="63.476562" xlink:href="#DejaVuSans-20"/>
     <use x="95.263672" xlink:href="#DejaVuSans-3d"/>
     <use x="179.052734" xlink:href="#DejaVuSans-20"/>
     <use x="210.839844" xlink:href="#DejaVuSans-39"/>
     <use x="274.462891" xlink:href="#DejaVuSans-2e"/>
     <use x="306.25" xlink:href="#DejaVuSans-31"/>
     <use x="369.873047" xlink:href="#DejaVuSans-32"/>
     <use x="433.496094" xlink:href="#DejaVuSans-65"/>
     <use x="495.019531" xlink:href="#DejaVuSans-2d"/>
     <use x="531.103516" xlink:href="#DejaVuSans-30"/>
     <use x="594.726562" xlink:href="#DejaVuSans-34"/>
    </g>
   </g>
  </g>
  <g id="axes_4">
   <g id="patch_18">
    <path d="M 931.91875 257.7 
L 1199.930747 257.7 
L 1199.930747 26.8 
L 931.91875 26.8 
z
" style="fill:#eaeaf2;"/>
   </g>
   <g id="matplotlib.axis_7">
    <g id="xtick_22">
     <g id="line2d_120">
      <path clip-path="url(#p1e2ee7c556)" d="M 944.101114 257.7 
L 944.101114 26.8 
" style="fill:none;stroke:#ffffff;stroke-linecap:round;"/>
     </g>
     <g id="text_49">
      <!-- 0 -->
      <g style="fill:#262626;" transform="translate(940.601739 275.558281)scale(0.11 -0.11)">
       <use xlink:href="#DejaVuSans-30"/>
      </g>
     </g>
    </g>
    <g id="xtick_23">
     <g id="line2d_121">
      <path clip-path="url(#p1e2ee7c556)" d="M 985.822965 257.7 
L 985.822965 26.8 
" style="fill:none;stroke:#ffffff;stroke-linecap:round;"/>
     </g>
     <g id="text_50">
      <!-- 5000 -->
      <g style="fill:#262626;" transform="translate(971.825465 275.558281)scale(0.11 -0.11)">
       <use xlink:href="#DejaVuSans-35"/>
       <use x="63.623047" xlink:href="#DejaVuSans-30"/>
       <use x="127.246094" xlink:href="#DejaVuSans-30"/>
       <use x="190.869141" xlink:href="#DejaVuSans-30"/>
      </g>
     </g>
    </g>
    <g id="xtick_24">
     <g id="line2d_122">
      <path clip-path="url(#p1e2ee7c556)" d="M 1027.544817 257.7 
L 1027.544817 26.8 
" style="fill:none;stroke:#ffffff;stroke-linecap:round;"/>
     </g>
     <g id="text_51">
      <!-- 10000 -->
      <g style="fill:#262626;" transform="translate(1010.047942 275.558281)scale(0.11 -0.11)">
       <use xlink:href="#DejaVuSans-31"/>
       <use x="63.623047" xlink:href="#DejaVuSans-30"/>
       <use x="127.246094" xlink:href="#DejaVuSans-30"/>
       <use x="190.869141" xlink:href="#DejaVuSans-30"/>
       <use x="254.492188" xlink:href="#DejaVuSans-30"/>
      </g>
     </g>
    </g>
    <g id="xtick_25">
     <g id="line2d_123">
      <path clip-path="url(#p1e2ee7c556)" d="M 1069.266669 257.7 
L 1069.266669 26.8 
" style="fill:none;stroke:#ffffff;stroke-linecap:round;"/>
     </g>
     <g id="text_52">
      <!-- 15000 -->
      <g style="fill:#262626;" transform="translate(1051.769794 275.558281)scale(0.11 -0.11)">
       <use xlink:href="#DejaVuSans-31"/>
       <use x="63.623047" xlink:href="#DejaVuSans-35"/>
       <use x="127.246094" xlink:href="#DejaVuSans-30"/>
       <use x="190.869141" xlink:href="#DejaVuSans-30"/>
       <use x="254.492188" xlink:href="#DejaVuSans-30"/>
      </g>
     </g>
    </g>
    <g id="xtick_26">
     <g id="line2d_124">
      <path clip-path="url(#p1e2ee7c556)" d="M 1110.988521 257.7 
L 1110.988521 26.8 
" style="fill:none;stroke:#ffffff;stroke-linecap:round;"/>
     </g>
     <g id="text_53">
      <!-- 20000 -->
      <g style="fill:#262626;" transform="translate(1093.491646 275.558281)scale(0.11 -0.11)">
       <use xlink:href="#DejaVuSans-32"/>
       <use x="63.623047" xlink:href="#DejaVuSans-30"/>
       <use x="127.246094" xlink:href="#DejaVuSans-30"/>
       <use x="190.869141" xlink:href="#DejaVuSans-30"/>
       <use x="254.492188" xlink:href="#DejaVuSans-30"/>
      </g>
     </g>
    </g>
    <g id="xtick_27">
     <g id="line2d_125">
      <path clip-path="url(#p1e2ee7c556)" d="M 1152.710373 257.7 
L 1152.710373 26.8 
" style="fill:none;stroke:#ffffff;stroke-linecap:round;"/>
     </g>
     <g id="text_54">
      <!-- 25000 -->
      <g style="fill:#262626;" transform="translate(1135.213498 275.558281)scale(0.11 -0.11)">
       <use xlink:href="#DejaVuSans-32"/>
       <use x="63.623047" xlink:href="#DejaVuSans-35"/>
       <use x="127.246094" xlink:href="#DejaVuSans-30"/>
       <use x="190.869141" xlink:href="#DejaVuSans-30"/>
       <use x="254.492188" xlink:href="#DejaVuSans-30"/>
      </g>
     </g>
    </g>
    <g id="xtick_28">
     <g id="line2d_126">
      <path clip-path="url(#p1e2ee7c556)" d="M 1194.432224 257.7 
L 1194.432224 26.8 
" style="fill:none;stroke:#ffffff;stroke-linecap:round;"/>
     </g>
     <g id="text_55">
      <!-- 30000 -->
      <g style="fill:#262626;" transform="translate(1176.935349 275.558281)scale(0.11 -0.11)">
       <use xlink:href="#DejaVuSans-33"/>
       <use x="63.623047" xlink:href="#DejaVuSans-30"/>
       <use x="127.246094" xlink:href="#DejaVuSans-30"/>
       <use x="190.869141" xlink:href="#DejaVuSans-30"/>
       <use x="254.492188" xlink:href="#DejaVuSans-30"/>
      </g>
     </g>
    </g>
   </g>
   <g id="matplotlib.axis_8">
    <g id="ytick_19">
     <g id="line2d_127">
      <path clip-path="url(#p1e2ee7c556)" d="M 931.91875 247.204545 
L 1199.930747 247.204545 
" style="fill:none;stroke:#ffffff;stroke-linecap:round;"/>
     </g>
    </g>
    <g id="ytick_20">
     <g id="line2d_128">
      <path clip-path="url(#p1e2ee7c556)" d="M 931.91875 205.222727 
L 1199.930747 205.222727 
" style="fill:none;stroke:#ffffff;stroke-linecap:round;"/>
     </g>
    </g>
    <g id="ytick_21">
     <g id="line2d_129">
      <path clip-path="url(#p1e2ee7c556)" d="M 931.91875 163.240909 
L 1199.930747 163.240909 
" style="fill:none;stroke:#ffffff;stroke-linecap:round;"/>
     </g>
    </g>
    <g id="ytick_22">
     <g id="line2d_130">
      <path clip-path="url(#p1e2ee7c556)" d="M 931.91875 121.259091 
L 1199.930747 121.259091 
" style="fill:none;stroke:#ffffff;stroke-linecap:round;"/>
     </g>
    </g>
    <g id="ytick_23">
     <g id="line2d_131">
      <path clip-path="url(#p1e2ee7c556)" d="M 931.91875 79.277273 
L 1199.930747 79.277273 
" style="fill:none;stroke:#ffffff;stroke-linecap:round;"/>
     </g>
    </g>
    <g id="ytick_24">
     <g id="line2d_132">
      <path clip-path="url(#p1e2ee7c556)" d="M 931.91875 37.295455 
L 1199.930747 37.295455 
" style="fill:none;stroke:#ffffff;stroke-linecap:round;"/>
     </g>
    </g>
   </g>
   <g id="line2d_133">
    <path clip-path="url(#p1e2ee7c556)" d="M 944.101114 247.204545 
L 961.123629 240.17195 
L 978.396476 233.27673 
L 995.936342 226.514688 
L 1013.743229 219.888329 
L 1031.833824 213.393979 
L 1050.216471 207.031349 
L 1068.907861 200.797521 
L 1087.916337 194.692698 
L 1107.258587 188.714608 
L 1126.951301 182.861407 
L 1147.002823 177.133985 
L 1167.429842 171.53097 
L 1187.748384 166.180441 
L 1187.748384 166.180441 
" style="fill:none;stroke:#db5f57;stroke-linecap:round;stroke-width:1.5;"/>
   </g>
   <g id="line2d_134">
    <path clip-path="url(#p1e2ee7c556)" d="M 944.101114 247.204545 
L 951.519259 238.899839 
L 959.004159 230.853369 
L 966.555814 223.060559 
L 974.190913 215.500557 
L 981.901111 208.178373 
L 989.703098 201.07522 
L 997.596872 194.188942 
L 1005.582434 187.517153 
L 1013.676474 181.044197 
L 1021.87899 174.768982 
L 1030.198327 168.684155 
L 1038.64283 162.783154 
L 1047.220842 157.060138 
L 1055.94071 151.509928 
L 1064.810775 146.12794 
L 1073.839384 140.910129 
L 1083.03488 135.852934 
L 1092.405608 130.953217 
L 1101.968256 126.204185 
L 1111.739514 121.600202 
L 1121.727725 117.140308 
L 1131.941235 112.823697 
L 1142.405075 108.643195 
L 1153.127591 104.599278 
L 1164.133816 100.686625 
L 1175.440438 96.90391 
L 1187.064145 93.250288 
L 1187.748384 93.042332 
L 1187.748384 93.042332 
" style="fill:none;stroke:#db8657;stroke-linecap:round;stroke-width:1.5;"/>
   </g>
   <g id="line2d_135">
    <path clip-path="url(#p1e2ee7c556)" d="M 944.101114 247.204545 
L 948.114756 235.104974 
L 952.136742 223.679838 
L 956.175417 212.87125 
L 960.230781 202.648638 
L 964.302834 192.982782 
L 968.391576 183.84577 
L 972.497006 175.210942 
L 976.627469 167.036833 
L 980.782966 159.302008 
L 984.97184 151.971681 
L 989.194091 145.028566 
L 993.44972 138.455868 
L 997.747071 132.225559 
L 1002.086143 126.324005 
L 1006.475282 120.727523 
L 1010.922831 115.415319 
L 1015.428791 110.378178 
L 1020.001506 105.598351 
L 1024.649321 101.060264 
L 1029.380579 96.750261 
L 1034.203625 92.656363 
L 1039.135148 88.761712 
L 1044.175147 85.064339 
L 1049.340313 81.550575 
L 1054.647332 78.209336 
L 1060.10455 75.036414 
L 1065.737 72.019433 
L 1071.553026 69.156991 
L 1077.577662 66.440439 
L 1083.83594 63.863523 
L 1090.344549 61.424936 
L 1097.14521 59.11571 
L 1104.262958 56.935146 
L 1111.739514 54.87892 
L 1119.6166 52.944983 
L 1127.944281 51.131225 
L 1136.789314 49.434427 
L 1146.226797 47.852795 
L 1156.340174 46.385899 
L 1167.246266 45.031575 
L 1179.078583 43.789438 
L 1187.748384 43.007813 
L 1187.748384 43.007813 
" style="fill:none;stroke:#dbae57;stroke-linecap:round;stroke-width:1.5;"/>
   </g>
   <g id="line2d_136">
    <path clip-path="url(#p1e2ee7c556)" d="M 944.101114 247.204545 
L 946.495948 227.934293 
L 948.890782 210.433105 
L 951.293961 194.485827 
L 953.697139 180.007413 
L 956.100318 166.862569 
L 958.511841 154.889003 
L 960.923364 144.021939 
L 963.343232 134.126629 
L 965.771443 125.119306 
L 968.207999 116.923132 
L 970.6529 109.467647 
L 973.114489 102.666334 
L 975.584423 96.486095 
L 978.071045 90.854191 
L 980.582701 85.709399 
L 983.119389 81.014781 
L 985.681111 76.735674 
L 988.284555 72.815754 
L 990.92972 69.231809 
L 993.624952 65.951732 
L 996.378594 62.948222 
L 999.207335 60.190275 
L 1002.119521 57.660394 
L 1005.131838 55.337278 
L 1008.260977 53.204267 
L 1011.53197 51.243647 
L 1014.969851 49.442869 
L 1018.607997 47.789734 
L 1022.479784 46.2768 
L 1026.626936 44.897346 
L 1031.107863 43.643987 
L 1035.98932 42.512574 
L 1041.363094 41.498761 
L 1047.354352 40.598911 
L 1054.129981 39.811097 
L 1061.931967 39.133713 
L 1071.127464 38.565531 
L 1082.317264 38.105348 
L 1096.594482 37.751608 
L 1116.23713 37.502517 
L 1147.328254 37.35477 
L 1187.748384 37.307132 
L 1187.748384 37.307132 
" style="fill:none;stroke:#dbd657;stroke-linecap:round;stroke-width:1.5;"/>
   </g>
   <g id="line2d_137">
    <path clip-path="url(#p1e2ee7c556)" d="M 944.101114 247.204545 
L 945.569723 216.075563 
L 947.038332 189.562929 
L 948.506941 166.982051 
L 949.97555 147.749859 
L 951.444159 131.369753 
L 952.912769 117.418774 
L 954.381378 105.53669 
L 955.849987 95.416689 
L 957.326941 86.752331 
L 958.803894 79.379603 
L 960.289192 73.07331 
L 961.77449 67.712013 
L 963.268132 63.130531 
L 964.778463 59.199142 
L 966.305483 55.83216 
L 967.857536 52.939879 
L 969.434622 50.462804 
L 971.05343 48.327516 
L 972.730648 46.479675 
L 974.482966 44.878841 
L 976.327072 43.494531 
L 978.296343 42.294067 
L 980.432502 41.253221 
L 982.793959 40.352883 
L 985.447469 39.583156 
L 988.501508 38.933892 
L 992.122965 38.39833 
L 996.578859 37.973117 
L 1002.378196 37.654981 
L 1010.655812 37.440936 
L 1024.85793 37.326262 
L 1066.930245 37.295765 
L 1187.748384 37.295455 
L 1187.748384 37.295455 
" style="fill:none;stroke:#b9db57;stroke-linecap:round;stroke-width:1.5;"/>
   </g>
   <g id="line2d_138">
    <path clip-path="url(#p1e2ee7c556)" d="M 944.101114 247.204545 
L 945.002306 197.896732 
L 945.903498 160.171363 
L 946.80469 131.307714 
L 947.705882 109.224159 
L 948.607074 92.328049 
L 949.508266 79.400848 
L 950.409458 69.510257 
L 951.318994 61.881945 
L 952.22853 56.059981 
L 953.138067 51.61663 
L 954.055947 48.19838 
L 954.982172 45.575462 
L 955.925086 43.552438 
L 956.893033 41.988657 
L 957.902702 40.772338 
L 958.979126 39.820664 
L 960.164026 39.071311 
L 961.515814 38.483914 
L 963.134622 38.030149 
L 965.195682 37.693713 
L 968.082834 37.464355 
L 972.855814 37.336359 
L 985.288926 37.296472 
L 1187.748384 37.295455 
L 1187.748384 37.295455 
" style="fill:none;stroke:#91db57;stroke-linecap:round;stroke-width:1.5;"/>
   </g>
   <g id="line2d_139">
    <path clip-path="url(#p1e2ee7c556)" d="M 944.101114 247.204545 
L 944.668531 170.038849 
L 945.235948 121.240407 
L 945.803365 90.380997 
L 946.370782 70.865964 
L 946.938199 58.524947 
L 947.505617 50.72067 
L 948.073034 45.785362 
L 948.640451 42.664346 
L 949.216213 40.667858 
L 949.800318 39.399561 
L 950.409458 38.581972 
L 951.085352 38.040787 
L 951.894755 37.683119 
L 952.996212 37.454722 
L 954.823629 37.33186 
L 959.830252 37.296093 
L 1177.284543 37.295455 
L 1187.748384 37.295455 
L 1187.748384 37.295455 
" style="fill:none;stroke:#69db57;stroke-linecap:round;stroke-width:1.5;"/>
   </g>
   <g id="line2d_140">
    <path clip-path="url(#p1e2ee7c556)" d="M 944.101114 247.204545 
L 944.459921 132.780631 
L 944.818729 80.730538 
L 945.177537 57.053563 
L 945.536345 46.283186 
L 945.895153 41.383868 
L 946.253961 39.155226 
L 946.621113 38.126086 
L 947.013299 37.646603 
L 947.488928 37.419054 
L 948.298332 37.316363 
L 951.202173 37.29549 
L 1187.748384 37.295455 
L 1187.748384 37.295455 
" style="fill:none;stroke:#57db6c;stroke-linecap:round;stroke-width:1.5;"/>
   </g>
   <g id="line2d_141">
    <path clip-path="url(#p1e2ee7c556)" d="M 944.101114 247.204545 
L 944.3431 86.826978 
L 944.585087 48.983237 
L 944.827074 40.05338 
L 945.06906 37.946233 
L 945.311047 37.449016 
L 945.619789 37.319784 
L 946.579392 37.295534 
L 1187.498053 37.295455 
L 1187.748384 37.295455 
L 1187.748384 37.295455 
" style="fill:none;stroke:#57db94;stroke-linecap:round;stroke-width:1.5;"/>
   </g>
   <g id="line2d_142">
    <path clip-path="url(#p1e2ee7c556)" d="M 944.101114 247.204545 
L 944.268001 51.301912 
L 944.434888 38.230054 
L 944.601776 37.357817 
L 944.827074 37.297068 
L 949.433166 37.295455 
L 1187.748384 37.295455 
L 1187.748384 37.295455 
" style="fill:none;stroke:#57dbbb;stroke-linecap:round;stroke-width:1.5;"/>
   </g>
   <g id="line2d_143">
    <path clip-path="url(#p1e2ee7c556)" d="M 944.101114 247.204545 
L 944.234623 37.877984 
L 944.368133 37.297071 
L 946.253961 37.295455 
L 1187.748384 37.295455 
L 1187.748384 37.295455 
" style="fill:none;stroke:#57d3db;stroke-linecap:round;stroke-width:1.5;"/>
   </g>
   <g id="line2d_144">
    <path clip-path="url(#p1e2ee7c556)" d="M 944.101114 247.204545 
L 944.217935 37.295629 
L 952.645749 37.295455 
L 1187.748384 37.295455 
L 1187.748384 37.295455 
" style="fill:none;stroke:#57acdb;stroke-linecap:round;stroke-width:1.5;"/>
   </g>
   <g id="line2d_145">
    <path clip-path="url(#p1e2ee7c556)" d="M 944.101114 247.204545 
L 944.217935 37.295455 
L 1187.748384 37.295455 
L 1187.748384 37.295455 
" style="fill:none;stroke:#5784db;stroke-linecap:round;stroke-width:1.5;"/>
   </g>
   <g id="line2d_146">
    <path clip-path="url(#p1e2ee7c556)" d="M 944.101114 247.204545 
L 944.217935 37.295455 
L 1187.748384 37.295455 
L 1187.748384 37.295455 
" style="fill:none;stroke:#575cdb;stroke-linecap:round;stroke-width:1.5;"/>
   </g>
   <g id="line2d_147">
    <path clip-path="url(#p1e2ee7c556)" d="M 944.101114 247.204545 
L 944.217935 37.295455 
L 1187.748384 37.295455 
L 1187.748384 37.295455 
" style="fill:none;stroke:#7957db;stroke-linecap:round;stroke-width:1.5;"/>
   </g>
   <g id="line2d_148">
    <path clip-path="url(#p1e2ee7c556)" d="M 944.101114 247.204545 
L 944.217935 37.295455 
L 1187.748384 37.295455 
L 1187.748384 37.295455 
" style="fill:none;stroke:#a157db;stroke-linecap:round;stroke-width:1.5;"/>
   </g>
   <g id="patch_19">
    <path d="M 931.91875 257.7 
L 931.91875 26.8 
" style="fill:none;stroke:#ffffff;stroke-linecap:square;stroke-linejoin:miter;stroke-width:1.25;"/>
   </g>
   <g id="patch_20">
    <path d="M 1199.930747 257.7 
L 1199.930747 26.8 
" style="fill:none;stroke:#ffffff;stroke-linecap:square;stroke-linejoin:miter;stroke-width:1.25;"/>
   </g>
   <g id="patch_21">
    <path d="M 931.91875 257.7 
L 1199.930747 257.7 
" style="fill:none;stroke:#ffffff;stroke-linecap:square;stroke-linejoin:miter;stroke-width:1.25;"/>
   </g>
   <g id="patch_22">
    <path d="M 931.91875 26.8 
L 1199.930747 26.8 
" style="fill:none;stroke:#ffffff;stroke-linecap:square;stroke-linejoin:miter;stroke-width:1.25;"/>
   </g>
   <g id="text_56">
    <!-- p = 2.48e-03 -->
    <g style="fill:#262626;" transform="translate(1026.423186 20.8)scale(0.12 -0.12)">
     <use xlink:href="#DejaVuSans-70"/>
     <use x="63.476562" xlink:href="#DejaVuSans-20"/>
     <use x="95.263672" xlink:href="#DejaVuSans-3d"/>
     <use x="179.052734" xlink:href="#DejaVuSans-20"/>
     <use x="210.839844" xlink:href="#DejaVuSans-32"/>
     <use x="274.462891" xlink:href="#DejaVuSans-2e"/>
     <use x="306.25" xlink:href="#DejaVuSans-34"/>
     <use x="369.873047" xlink:href="#DejaVuSans-38"/>
     <use x="433.496094" xlink:href="#DejaVuSans-65"/>
     <use x="495.019531" xlink:href="#DejaVuSans-2d"/>
     <use x="531.103516" xlink:href="#DejaVuSans-30"/>
     <use x="594.726562" xlink:href="#DejaVuSans-33"/>
    </g>
   </g>
  </g>
 </g>
 <defs>
  <clipPath id="pd785f85d8f">
   <rect height="230.9" width="268.011997" x="37.675" y="26.8"/>
  </clipPath>
  <clipPath id="p52af338eb2">
   <rect height="230.9" width="268.011997" x="335.75625" y="26.8"/>
  </clipPath>
  <clipPath id="pb520a0c604">
   <rect height="230.9" width="268.011997" x="633.8375" y="26.8"/>
  </clipPath>
  <clipPath id="p1e2ee7c556">
   <rect height="230.9" width="268.011997" x="931.91875" y="26.8"/>
  </clipPath>
 </defs>
</svg>
