<?xml version="1.0" encoding="utf-8" standalone="no"?>
<!DOCTYPE svg PUBLIC "-//W3C//DTD SVG 1.1//EN"
  "http://www.w3.org/Graphics/SVG/1.1/DTD/svg11.dtd">
<!-- Created with matplotlib (http://matplotlib.org/) -->
<svg height="288pt" version="1.1" viewBox="0 0 432 288" width="432pt" xmlns="http://www.w3.org/2000/svg" xmlns:xlink="http://www.w3.org/1999/xlink">
 <defs>
  <style type="text/css">
*{stroke-linecap:butt;stroke-linejoin:round;}
  </style>
 </defs>
 <g id="figure_1">
  <g id="patch_1">
   <path d="M 0 288 
L 432 288 
L 432 0 
L 0 0 
z
" style="fill:#ffffff;"/>
  </g>
  <g id="axes_1">
   <g id="patch_2">
    <path d="M 54 252 
L 388.8 252 
L 388.8 34.56 
L 54 34.56 
z
" style="fill:#eaeaf2;"/>
   </g>
   <g id="matplotlib.axis_1">
    <g id="xtick_1">
     <g id="line2d_1">
      <path clip-path="url(#pa173b8baf8)" d="M 69.218182 252 
L 69.218182 34.56 
" style="fill:none;stroke:#ffffff;stroke-linecap:round;"/>
     </g>
     <g id="text_1">
      <!-- 0 -->
      <defs>
       <path d="M 31.78125 66.40625 
Q 24.171875 66.40625 20.328125 58.90625 
Q 16.5 51.421875 16.5 36.375 
Q 16.5 21.390625 20.328125 13.890625 
Q 24.171875 6.390625 31.78125 6.390625 
Q 39.453125 6.390625 43.28125 13.890625 
Q 47.125 21.390625 47.125 36.375 
Q 47.125 51.421875 43.28125 58.90625 
Q 39.453125 66.40625 31.78125 66.40625 
z
M 31.78125 74.21875 
Q 44.046875 74.21875 50.515625 64.515625 
Q 56.984375 54.828125 56.984375 36.375 
Q 56.984375 17.96875 50.515625 8.265625 
Q 44.046875 -1.421875 31.78125 -1.421875 
Q 19.53125 -1.421875 13.0625 8.265625 
Q 6.59375 17.96875 6.59375 36.375 
Q 6.59375 54.828125 13.0625 64.515625 
Q 19.53125 74.21875 31.78125 74.21875 
z
" id="DejaVuSans-30"/>
      </defs>
      <g style="fill:#262626;" transform="translate(65.718807 269.858281)scale(0.11 -0.11)">
       <use xlink:href="#DejaVuSans-30"/>
      </g>
     </g>
    </g>
    <g id="xtick_2">
     <g id="line2d_2">
      <path clip-path="url(#pa173b8baf8)" d="M 130.705785 252 
L 130.705785 34.56 
" style="fill:none;stroke:#ffffff;stroke-linecap:round;"/>
     </g>
     <g id="text_2">
      <!-- 20 -->
      <defs>
       <path d="M 19.1875 8.296875 
L 53.609375 8.296875 
L 53.609375 0 
L 7.328125 0 
L 7.328125 8.296875 
Q 12.9375 14.109375 22.625 23.890625 
Q 32.328125 33.6875 34.8125 36.53125 
Q 39.546875 41.84375 41.421875 45.53125 
Q 43.3125 49.21875 43.3125 52.78125 
Q 43.3125 58.59375 39.234375 62.25 
Q 35.15625 65.921875 28.609375 65.921875 
Q 23.96875 65.921875 18.8125 64.3125 
Q 13.671875 62.703125 7.8125 59.421875 
L 7.8125 69.390625 
Q 13.765625 71.78125 18.9375 73 
Q 24.125 74.21875 28.421875 74.21875 
Q 39.75 74.21875 46.484375 68.546875 
Q 53.21875 62.890625 53.21875 53.421875 
Q 53.21875 48.921875 51.53125 44.890625 
Q 49.859375 40.875 45.40625 35.40625 
Q 44.1875 33.984375 37.640625 27.21875 
Q 31.109375 20.453125 19.1875 8.296875 
z
" id="DejaVuSans-32"/>
      </defs>
      <g style="fill:#262626;" transform="translate(123.707035 269.858281)scale(0.11 -0.11)">
       <use xlink:href="#DejaVuSans-32"/>
       <use x="63.623047" xlink:href="#DejaVuSans-30"/>
      </g>
     </g>
    </g>
    <g id="xtick_3">
     <g id="line2d_3">
      <path clip-path="url(#pa173b8baf8)" d="M 192.193388 252 
L 192.193388 34.56 
" style="fill:none;stroke:#ffffff;stroke-linecap:round;"/>
     </g>
     <g id="text_3">
      <!-- 40 -->
      <defs>
       <path d="M 37.796875 64.3125 
L 12.890625 25.390625 
L 37.796875 25.390625 
z
M 35.203125 72.90625 
L 47.609375 72.90625 
L 47.609375 25.390625 
L 58.015625 25.390625 
L 58.015625 17.1875 
L 47.609375 17.1875 
L 47.609375 0 
L 37.796875 0 
L 37.796875 17.1875 
L 4.890625 17.1875 
L 4.890625 26.703125 
z
" id="DejaVuSans-34"/>
      </defs>
      <g style="fill:#262626;" transform="translate(185.194638 269.858281)scale(0.11 -0.11)">
       <use xlink:href="#DejaVuSans-34"/>
       <use x="63.623047" xlink:href="#DejaVuSans-30"/>
      </g>
     </g>
    </g>
    <g id="xtick_4">
     <g id="line2d_4">
      <path clip-path="url(#pa173b8baf8)" d="M 253.680992 252 
L 253.680992 34.56 
" style="fill:none;stroke:#ffffff;stroke-linecap:round;"/>
     </g>
     <g id="text_4">
      <!-- 60 -->
      <defs>
       <path d="M 33.015625 40.375 
Q 26.375 40.375 22.484375 35.828125 
Q 18.609375 31.296875 18.609375 23.390625 
Q 18.609375 15.53125 22.484375 10.953125 
Q 26.375 6.390625 33.015625 6.390625 
Q 39.65625 6.390625 43.53125 10.953125 
Q 47.40625 15.53125 47.40625 23.390625 
Q 47.40625 31.296875 43.53125 35.828125 
Q 39.65625 40.375 33.015625 40.375 
z
M 52.59375 71.296875 
L 52.59375 62.3125 
Q 48.875 64.0625 45.09375 64.984375 
Q 41.3125 65.921875 37.59375 65.921875 
Q 27.828125 65.921875 22.671875 59.328125 
Q 17.53125 52.734375 16.796875 39.40625 
Q 19.671875 43.65625 24.015625 45.921875 
Q 28.375 48.1875 33.59375 48.1875 
Q 44.578125 48.1875 50.953125 41.515625 
Q 57.328125 34.859375 57.328125 23.390625 
Q 57.328125 12.15625 50.6875 5.359375 
Q 44.046875 -1.421875 33.015625 -1.421875 
Q 20.359375 -1.421875 13.671875 8.265625 
Q 6.984375 17.96875 6.984375 36.375 
Q 6.984375 53.65625 15.1875 63.9375 
Q 23.390625 74.21875 37.203125 74.21875 
Q 40.921875 74.21875 44.703125 73.484375 
Q 48.484375 72.75 52.59375 71.296875 
z
" id="DejaVuSans-36"/>
      </defs>
      <g style="fill:#262626;" transform="translate(246.682242 269.858281)scale(0.11 -0.11)">
       <use xlink:href="#DejaVuSans-36"/>
       <use x="63.623047" xlink:href="#DejaVuSans-30"/>
      </g>
     </g>
    </g>
    <g id="xtick_5">
     <g id="line2d_5">
      <path clip-path="url(#pa173b8baf8)" d="M 315.168595 252 
L 315.168595 34.56 
" style="fill:none;stroke:#ffffff;stroke-linecap:round;"/>
     </g>
     <g id="text_5">
      <!-- 80 -->
      <defs>
       <path d="M 31.78125 34.625 
Q 24.75 34.625 20.71875 30.859375 
Q 16.703125 27.09375 16.703125 20.515625 
Q 16.703125 13.921875 20.71875 10.15625 
Q 24.75 6.390625 31.78125 6.390625 
Q 38.8125 6.390625 42.859375 10.171875 
Q 46.921875 13.96875 46.921875 20.515625 
Q 46.921875 27.09375 42.890625 30.859375 
Q 38.875 34.625 31.78125 34.625 
z
M 21.921875 38.8125 
Q 15.578125 40.375 12.03125 44.71875 
Q 8.5 49.078125 8.5 55.328125 
Q 8.5 64.0625 14.71875 69.140625 
Q 20.953125 74.21875 31.78125 74.21875 
Q 42.671875 74.21875 48.875 69.140625 
Q 55.078125 64.0625 55.078125 55.328125 
Q 55.078125 49.078125 51.53125 44.71875 
Q 48 40.375 41.703125 38.8125 
Q 48.828125 37.15625 52.796875 32.3125 
Q 56.78125 27.484375 56.78125 20.515625 
Q 56.78125 9.90625 50.3125 4.234375 
Q 43.84375 -1.421875 31.78125 -1.421875 
Q 19.734375 -1.421875 13.25 4.234375 
Q 6.78125 9.90625 6.78125 20.515625 
Q 6.78125 27.484375 10.78125 32.3125 
Q 14.796875 37.15625 21.921875 38.8125 
z
M 18.3125 54.390625 
Q 18.3125 48.734375 21.84375 45.5625 
Q 25.390625 42.390625 31.78125 42.390625 
Q 38.140625 42.390625 41.71875 45.5625 
Q 45.3125 48.734375 45.3125 54.390625 
Q 45.3125 60.0625 41.71875 63.234375 
Q 38.140625 66.40625 31.78125 66.40625 
Q 25.390625 66.40625 21.84375 63.234375 
Q 18.3125 60.0625 18.3125 54.390625 
z
" id="DejaVuSans-38"/>
      </defs>
      <g style="fill:#262626;" transform="translate(308.169845 269.858281)scale(0.11 -0.11)">
       <use xlink:href="#DejaVuSans-38"/>
       <use x="63.623047" xlink:href="#DejaVuSans-30"/>
      </g>
     </g>
    </g>
    <g id="xtick_6">
     <g id="line2d_6">
      <path clip-path="url(#pa173b8baf8)" d="M 376.656198 252 
L 376.656198 34.56 
" style="fill:none;stroke:#ffffff;stroke-linecap:round;"/>
     </g>
     <g id="text_6">
      <!-- 100 -->
      <defs>
       <path d="M 12.40625 8.296875 
L 28.515625 8.296875 
L 28.515625 63.921875 
L 10.984375 60.40625 
L 10.984375 69.390625 
L 28.421875 72.90625 
L 38.28125 72.90625 
L 38.28125 8.296875 
L 54.390625 8.296875 
L 54.390625 0 
L 12.40625 0 
z
" id="DejaVuSans-31"/>
      </defs>
      <g style="fill:#262626;" transform="translate(366.158073 269.858281)scale(0.11 -0.11)">
       <use xlink:href="#DejaVuSans-31"/>
       <use x="63.623047" xlink:href="#DejaVuSans-30"/>
       <use x="127.246094" xlink:href="#DejaVuSans-30"/>
      </g>
     </g>
    </g>
    <g id="text_7">
     <!-- Age -->
     <defs>
      <path d="M 34.1875 63.1875 
L 20.796875 26.90625 
L 47.609375 26.90625 
z
M 28.609375 72.90625 
L 39.796875 72.90625 
L 67.578125 0 
L 57.328125 0 
L 50.6875 18.703125 
L 17.828125 18.703125 
L 11.1875 0 
L 0.78125 0 
z
" id="DejaVuSans-41"/>
      <path d="M 45.40625 27.984375 
Q 45.40625 37.75 41.375 43.109375 
Q 37.359375 48.484375 30.078125 48.484375 
Q 22.859375 48.484375 18.828125 43.109375 
Q 14.796875 37.75 14.796875 27.984375 
Q 14.796875 18.265625 18.828125 12.890625 
Q 22.859375 7.515625 30.078125 7.515625 
Q 37.359375 7.515625 41.375 12.890625 
Q 45.40625 18.265625 45.40625 27.984375 
z
M 54.390625 6.78125 
Q 54.390625 -7.171875 48.1875 -13.984375 
Q 42 -20.796875 29.203125 -20.796875 
Q 24.46875 -20.796875 20.265625 -20.09375 
Q 16.0625 -19.390625 12.109375 -17.921875 
L 12.109375 -9.1875 
Q 16.0625 -11.328125 19.921875 -12.34375 
Q 23.78125 -13.375 27.78125 -13.375 
Q 36.625 -13.375 41.015625 -8.765625 
Q 45.40625 -4.15625 45.40625 5.171875 
L 45.40625 9.625 
Q 42.625 4.78125 38.28125 2.390625 
Q 33.9375 0 27.875 0 
Q 17.828125 0 11.671875 7.65625 
Q 5.515625 15.328125 5.515625 27.984375 
Q 5.515625 40.671875 11.671875 48.328125 
Q 17.828125 56 27.875 56 
Q 33.9375 56 38.28125 53.609375 
Q 42.625 51.21875 45.40625 46.390625 
L 45.40625 54.6875 
L 54.390625 54.6875 
z
" id="DejaVuSans-67"/>
      <path d="M 56.203125 29.59375 
L 56.203125 25.203125 
L 14.890625 25.203125 
Q 15.484375 15.921875 20.484375 11.0625 
Q 25.484375 6.203125 34.421875 6.203125 
Q 39.59375 6.203125 44.453125 7.46875 
Q 49.3125 8.734375 54.109375 11.28125 
L 54.109375 2.78125 
Q 49.265625 0.734375 44.1875 -0.34375 
Q 39.109375 -1.421875 33.890625 -1.421875 
Q 20.796875 -1.421875 13.15625 6.1875 
Q 5.515625 13.8125 5.515625 26.8125 
Q 5.515625 40.234375 12.765625 48.109375 
Q 20.015625 56 32.328125 56 
Q 43.359375 56 49.78125 48.890625 
Q 56.203125 41.796875 56.203125 29.59375 
z
M 47.21875 32.234375 
Q 47.125 39.59375 43.09375 43.984375 
Q 39.0625 48.390625 32.421875 48.390625 
Q 24.90625 48.390625 20.390625 44.140625 
Q 15.875 39.890625 15.1875 32.171875 
z
" id="DejaVuSans-65"/>
     </defs>
     <g style="fill:#262626;" transform="translate(209.794688 285.264063)scale(0.12 -0.12)">
      <use xlink:href="#DejaVuSans-41"/>
      <use x="68.408203" xlink:href="#DejaVuSans-67"/>
      <use x="131.884766" xlink:href="#DejaVuSans-65"/>
     </g>
    </g>
   </g>
   <g id="matplotlib.axis_2">
    <g id="ytick_1">
     <g id="line2d_7">
      <path clip-path="url(#pa173b8baf8)" d="M 54 242.116364 
L 388.8 242.116364 
" style="fill:none;stroke:#ffffff;stroke-linecap:round;"/>
     </g>
     <g id="text_8">
      <!-- 0 -->
      <g style="fill:#262626;" transform="translate(37.50125 246.295504)scale(0.11 -0.11)">
       <use xlink:href="#DejaVuSans-30"/>
      </g>
     </g>
    </g>
    <g id="ytick_2">
     <g id="line2d_8">
      <path clip-path="url(#pa173b8baf8)" d="M 54 207.043133 
L 388.8 207.043133 
" style="fill:none;stroke:#ffffff;stroke-linecap:round;"/>
     </g>
     <g id="text_9">
      <!-- 500 -->
      <defs>
       <path d="M 10.796875 72.90625 
L 49.515625 72.90625 
L 49.515625 64.59375 
L 19.828125 64.59375 
L 19.828125 46.734375 
Q 21.96875 47.46875 24.109375 47.828125 
Q 26.265625 48.1875 28.421875 48.1875 
Q 40.625 48.1875 47.75 41.5 
Q 54.890625 34.8125 54.890625 23.390625 
Q 54.890625 11.625 47.5625 5.09375 
Q 40.234375 -1.421875 26.90625 -1.421875 
Q 22.3125 -1.421875 17.546875 -0.640625 
Q 12.796875 0.140625 7.71875 1.703125 
L 7.71875 11.625 
Q 12.109375 9.234375 16.796875 8.0625 
Q 21.484375 6.890625 26.703125 6.890625 
Q 35.15625 6.890625 40.078125 11.328125 
Q 45.015625 15.765625 45.015625 23.390625 
Q 45.015625 31 40.078125 35.4375 
Q 35.15625 39.890625 26.703125 39.890625 
Q 22.75 39.890625 18.8125 39.015625 
Q 14.890625 38.140625 10.796875 36.28125 
z
" id="DejaVuSans-35"/>
      </defs>
      <g style="fill:#262626;" transform="translate(23.50375 211.222274)scale(0.11 -0.11)">
       <use xlink:href="#DejaVuSans-35"/>
       <use x="63.623047" xlink:href="#DejaVuSans-30"/>
       <use x="127.246094" xlink:href="#DejaVuSans-30"/>
      </g>
     </g>
    </g>
    <g id="ytick_3">
     <g id="line2d_9">
      <path clip-path="url(#pa173b8baf8)" d="M 54 171.969903 
L 388.8 171.969903 
" style="fill:none;stroke:#ffffff;stroke-linecap:round;"/>
     </g>
     <g id="text_10">
      <!-- 1000 -->
      <g style="fill:#262626;" transform="translate(16.505 176.149043)scale(0.11 -0.11)">
       <use xlink:href="#DejaVuSans-31"/>
       <use x="63.623047" xlink:href="#DejaVuSans-30"/>
       <use x="127.246094" xlink:href="#DejaVuSans-30"/>
       <use x="190.869141" xlink:href="#DejaVuSans-30"/>
      </g>
     </g>
    </g>
    <g id="ytick_4">
     <g id="line2d_10">
      <path clip-path="url(#pa173b8baf8)" d="M 54 136.896672 
L 388.8 136.896672 
" style="fill:none;stroke:#ffffff;stroke-linecap:round;"/>
     </g>
     <g id="text_11">
      <!-- 1500 -->
      <g style="fill:#262626;" transform="translate(16.505 141.075813)scale(0.11 -0.11)">
       <use xlink:href="#DejaVuSans-31"/>
       <use x="63.623047" xlink:href="#DejaVuSans-35"/>
       <use x="127.246094" xlink:href="#DejaVuSans-30"/>
       <use x="190.869141" xlink:href="#DejaVuSans-30"/>
      </g>
     </g>
    </g>
    <g id="ytick_5">
     <g id="line2d_11">
      <path clip-path="url(#pa173b8baf8)" d="M 54 101.823442 
L 388.8 101.823442 
" style="fill:none;stroke:#ffffff;stroke-linecap:round;"/>
     </g>
     <g id="text_12">
      <!-- 2000 -->
      <g style="fill:#262626;" transform="translate(16.505 106.002582)scale(0.11 -0.11)">
       <use xlink:href="#DejaVuSans-32"/>
       <use x="63.623047" xlink:href="#DejaVuSans-30"/>
       <use x="127.246094" xlink:href="#DejaVuSans-30"/>
       <use x="190.869141" xlink:href="#DejaVuSans-30"/>
      </g>
     </g>
    </g>
    <g id="ytick_6">
     <g id="line2d_12">
      <path clip-path="url(#pa173b8baf8)" d="M 54 66.750211 
L 388.8 66.750211 
" style="fill:none;stroke:#ffffff;stroke-linecap:round;"/>
     </g>
     <g id="text_13">
      <!-- 2500 -->
      <g style="fill:#262626;" transform="translate(16.505 70.929352)scale(0.11 -0.11)">
       <use xlink:href="#DejaVuSans-32"/>
       <use x="63.623047" xlink:href="#DejaVuSans-35"/>
       <use x="127.246094" xlink:href="#DejaVuSans-30"/>
       <use x="190.869141" xlink:href="#DejaVuSans-30"/>
      </g>
     </g>
    </g>
    <g id="text_14">
     <!-- Cumulative incidence -->
     <defs>
      <path d="M 64.40625 67.28125 
L 64.40625 56.890625 
Q 59.421875 61.53125 53.78125 63.8125 
Q 48.140625 66.109375 41.796875 66.109375 
Q 29.296875 66.109375 22.65625 58.46875 
Q 16.015625 50.828125 16.015625 36.375 
Q 16.015625 21.96875 22.65625 14.328125 
Q 29.296875 6.6875 41.796875 6.6875 
Q 48.140625 6.6875 53.78125 8.984375 
Q 59.421875 11.28125 64.40625 15.921875 
L 64.40625 5.609375 
Q 59.234375 2.09375 53.4375 0.328125 
Q 47.65625 -1.421875 41.21875 -1.421875 
Q 24.65625 -1.421875 15.125 8.703125 
Q 5.609375 18.84375 5.609375 36.375 
Q 5.609375 53.953125 15.125 64.078125 
Q 24.65625 74.21875 41.21875 74.21875 
Q 47.75 74.21875 53.53125 72.484375 
Q 59.328125 70.75 64.40625 67.28125 
z
" id="DejaVuSans-43"/>
      <path d="M 8.5 21.578125 
L 8.5 54.6875 
L 17.484375 54.6875 
L 17.484375 21.921875 
Q 17.484375 14.15625 20.5 10.265625 
Q 23.53125 6.390625 29.59375 6.390625 
Q 36.859375 6.390625 41.078125 11.03125 
Q 45.3125 15.671875 45.3125 23.6875 
L 45.3125 54.6875 
L 54.296875 54.6875 
L 54.296875 0 
L 45.3125 0 
L 45.3125 8.40625 
Q 42.046875 3.421875 37.71875 1 
Q 33.40625 -1.421875 27.6875 -1.421875 
Q 18.265625 -1.421875 13.375 4.4375 
Q 8.5 10.296875 8.5 21.578125 
z
M 31.109375 56 
z
" id="DejaVuSans-75"/>
      <path d="M 52 44.1875 
Q 55.375 50.25 60.0625 53.125 
Q 64.75 56 71.09375 56 
Q 79.640625 56 84.28125 50.015625 
Q 88.921875 44.046875 88.921875 33.015625 
L 88.921875 0 
L 79.890625 0 
L 79.890625 32.71875 
Q 79.890625 40.578125 77.09375 44.375 
Q 74.3125 48.1875 68.609375 48.1875 
Q 61.625 48.1875 57.5625 43.546875 
Q 53.515625 38.921875 53.515625 30.90625 
L 53.515625 0 
L 44.484375 0 
L 44.484375 32.71875 
Q 44.484375 40.625 41.703125 44.40625 
Q 38.921875 48.1875 33.109375 48.1875 
Q 26.21875 48.1875 22.15625 43.53125 
Q 18.109375 38.875 18.109375 30.90625 
L 18.109375 0 
L 9.078125 0 
L 9.078125 54.6875 
L 18.109375 54.6875 
L 18.109375 46.1875 
Q 21.1875 51.21875 25.484375 53.609375 
Q 29.78125 56 35.6875 56 
Q 41.65625 56 45.828125 52.96875 
Q 50 49.953125 52 44.1875 
z
" id="DejaVuSans-6d"/>
      <path d="M 9.421875 75.984375 
L 18.40625 75.984375 
L 18.40625 0 
L 9.421875 0 
z
" id="DejaVuSans-6c"/>
      <path d="M 34.28125 27.484375 
Q 23.390625 27.484375 19.1875 25 
Q 14.984375 22.515625 14.984375 16.5 
Q 14.984375 11.71875 18.140625 8.90625 
Q 21.296875 6.109375 26.703125 6.109375 
Q 34.1875 6.109375 38.703125 11.40625 
Q 43.21875 16.703125 43.21875 25.484375 
L 43.21875 27.484375 
z
M 52.203125 31.203125 
L 52.203125 0 
L 43.21875 0 
L 43.21875 8.296875 
Q 40.140625 3.328125 35.546875 0.953125 
Q 30.953125 -1.421875 24.3125 -1.421875 
Q 15.921875 -1.421875 10.953125 3.296875 
Q 6 8.015625 6 15.921875 
Q 6 25.140625 12.171875 29.828125 
Q 18.359375 34.515625 30.609375 34.515625 
L 43.21875 34.515625 
L 43.21875 35.40625 
Q 43.21875 41.609375 39.140625 45 
Q 35.0625 48.390625 27.6875 48.390625 
Q 23 48.390625 18.546875 47.265625 
Q 14.109375 46.140625 10.015625 43.890625 
L 10.015625 52.203125 
Q 14.9375 54.109375 19.578125 55.046875 
Q 24.21875 56 28.609375 56 
Q 40.484375 56 46.34375 49.84375 
Q 52.203125 43.703125 52.203125 31.203125 
z
" id="DejaVuSans-61"/>
      <path d="M 18.3125 70.21875 
L 18.3125 54.6875 
L 36.8125 54.6875 
L 36.8125 47.703125 
L 18.3125 47.703125 
L 18.3125 18.015625 
Q 18.3125 11.328125 20.140625 9.421875 
Q 21.96875 7.515625 27.59375 7.515625 
L 36.8125 7.515625 
L 36.8125 0 
L 27.59375 0 
Q 17.1875 0 13.234375 3.875 
Q 9.28125 7.765625 9.28125 18.015625 
L 9.28125 47.703125 
L 2.6875 47.703125 
L 2.6875 54.6875 
L 9.28125 54.6875 
L 9.28125 70.21875 
z
" id="DejaVuSans-74"/>
      <path d="M 9.421875 54.6875 
L 18.40625 54.6875 
L 18.40625 0 
L 9.421875 0 
z
M 9.421875 75.984375 
L 18.40625 75.984375 
L 18.40625 64.59375 
L 9.421875 64.59375 
z
" id="DejaVuSans-69"/>
      <path d="M 2.984375 54.6875 
L 12.5 54.6875 
L 29.59375 8.796875 
L 46.6875 54.6875 
L 56.203125 54.6875 
L 35.6875 0 
L 23.484375 0 
z
" id="DejaVuSans-76"/>
      <path id="DejaVuSans-20"/>
      <path d="M 54.890625 33.015625 
L 54.890625 0 
L 45.90625 0 
L 45.90625 32.71875 
Q 45.90625 40.484375 42.875 44.328125 
Q 39.84375 48.1875 33.796875 48.1875 
Q 26.515625 48.1875 22.3125 43.546875 
Q 18.109375 38.921875 18.109375 30.90625 
L 18.109375 0 
L 9.078125 0 
L 9.078125 54.6875 
L 18.109375 54.6875 
L 18.109375 46.1875 
Q 21.34375 51.125 25.703125 53.5625 
Q 30.078125 56 35.796875 56 
Q 45.21875 56 50.046875 50.171875 
Q 54.890625 44.34375 54.890625 33.015625 
z
" id="DejaVuSans-6e"/>
      <path d="M 48.78125 52.59375 
L 48.78125 44.1875 
Q 44.96875 46.296875 41.140625 47.34375 
Q 37.3125 48.390625 33.40625 48.390625 
Q 24.65625 48.390625 19.8125 42.84375 
Q 14.984375 37.3125 14.984375 27.296875 
Q 14.984375 17.28125 19.8125 11.734375 
Q 24.65625 6.203125 33.40625 6.203125 
Q 37.3125 6.203125 41.140625 7.25 
Q 44.96875 8.296875 48.78125 10.40625 
L 48.78125 2.09375 
Q 45.015625 0.34375 40.984375 -0.53125 
Q 36.96875 -1.421875 32.421875 -1.421875 
Q 20.0625 -1.421875 12.78125 6.34375 
Q 5.515625 14.109375 5.515625 27.296875 
Q 5.515625 40.671875 12.859375 48.328125 
Q 20.21875 56 33.015625 56 
Q 37.15625 56 41.109375 55.140625 
Q 45.0625 54.296875 48.78125 52.59375 
z
" id="DejaVuSans-63"/>
      <path d="M 45.40625 46.390625 
L 45.40625 75.984375 
L 54.390625 75.984375 
L 54.390625 0 
L 45.40625 0 
L 45.40625 8.203125 
Q 42.578125 3.328125 38.25 0.953125 
Q 33.9375 -1.421875 27.875 -1.421875 
Q 17.96875 -1.421875 11.734375 6.484375 
Q 5.515625 14.40625 5.515625 27.296875 
Q 5.515625 40.1875 11.734375 48.09375 
Q 17.96875 56 27.875 56 
Q 33.9375 56 38.25 53.625 
Q 42.578125 51.265625 45.40625 46.390625 
z
M 14.796875 27.296875 
Q 14.796875 17.390625 18.875 11.75 
Q 22.953125 6.109375 30.078125 6.109375 
Q 37.203125 6.109375 41.296875 11.75 
Q 45.40625 17.390625 45.40625 27.296875 
Q 45.40625 37.203125 41.296875 42.84375 
Q 37.203125 48.484375 30.078125 48.484375 
Q 22.953125 48.484375 18.875 42.84375 
Q 14.796875 37.203125 14.796875 27.296875 
z
" id="DejaVuSans-64"/>
     </defs>
     <g style="fill:#262626;" transform="translate(10.009375 208.161563)rotate(-90)scale(0.12 -0.12)">
      <use xlink:href="#DejaVuSans-43"/>
      <use x="69.824219" xlink:href="#DejaVuSans-75"/>
      <use x="133.203125" xlink:href="#DejaVuSans-6d"/>
      <use x="230.615234" xlink:href="#DejaVuSans-75"/>
      <use x="293.994141" xlink:href="#DejaVuSans-6c"/>
      <use x="321.777344" xlink:href="#DejaVuSans-61"/>
      <use x="383.056641" xlink:href="#DejaVuSans-74"/>
      <use x="422.265625" xlink:href="#DejaVuSans-69"/>
      <use x="450.048828" xlink:href="#DejaVuSans-76"/>
      <use x="509.228516" xlink:href="#DejaVuSans-65"/>
      <use x="570.751953" xlink:href="#DejaVuSans-20"/>
      <use x="602.539062" xlink:href="#DejaVuSans-69"/>
      <use x="630.322266" xlink:href="#DejaVuSans-6e"/>
      <use x="693.701172" xlink:href="#DejaVuSans-63"/>
      <use x="748.681641" xlink:href="#DejaVuSans-69"/>
      <use x="776.464844" xlink:href="#DejaVuSans-64"/>
      <use x="839.941406" xlink:href="#DejaVuSans-65"/>
      <use x="901.464844" xlink:href="#DejaVuSans-6e"/>
      <use x="964.84375" xlink:href="#DejaVuSans-63"/>
      <use x="1019.824219" xlink:href="#DejaVuSans-65"/>
     </g>
    </g>
   </g>
   <g id="line2d_13">
    <path clip-path="url(#pa173b8baf8)" d="M 69.218182 242.116364 
L 72.292562 242.116364 
L 75.366942 242.116364 
L 78.441322 242.116364 
L 81.515702 242.116364 
L 84.590083 242.116364 
L 87.664463 242.116364 
L 90.738843 242.116364 
L 93.813223 242.116364 
L 96.887603 242.116364 
L 99.961983 242.116364 
L 103.036364 242.116364 
L 106.110744 242.116364 
L 109.185124 242.116364 
L 112.259504 242.116364 
L 115.333884 242.116364 
L 118.408264 242.116364 
L 121.482645 242.116364 
L 124.557025 242.116364 
L 127.631405 242.116364 
L 130.705785 242.116364 
L 133.780165 242.116364 
L 136.854545 242.116364 
L 139.928926 242.116364 
L 143.003306 242.116364 
L 146.077686 242.116364 
L 149.152066 242.116364 
L 152.226446 242.116364 
L 155.300826 242.116364 
L 158.375207 242.116364 
L 161.449587 242.116364 
L 164.523967 242.116364 
L 167.598347 242.116364 
L 170.672727 242.116364 
L 173.747107 242.116364 
L 176.821488 242.116364 
L 179.895868 242.116364 
L 182.970248 242.116364 
L 186.044628 242.116364 
L 189.119008 242.116364 
L 192.193388 242.116364 
L 195.267769 242.116364 
L 198.342149 242.116364 
L 201.416529 242.116364 
L 204.490909 242.116364 
L 207.565289 242.116364 
L 210.639669 242.116364 
L 213.71405 242.116364 
L 216.78843 242.116364 
L 219.86281 242.116364 
L 222.93719 242.116364 
L 226.01157 242.116364 
L 229.08595 242.116364 
L 232.160331 242.116364 
L 235.234711 242.116364 
L 238.309091 242.116364 
L 241.383471 242.116364 
L 244.457851 242.116364 
L 247.532231 242.116364 
L 250.606612 242.116364 
L 253.680992 242.116364 
L 256.755372 242.116364 
L 259.829752 242.116364 
L 262.904132 242.116364 
L 265.978512 242.116364 
L 269.052893 242.116364 
L 272.127273 242.116364 
L 275.201653 242.116364 
L 278.276033 242.116364 
L 281.350413 242.116364 
L 284.424793 242.116364 
L 287.499174 242.116364 
L 290.573554 242.116364 
L 293.647934 242.116364 
L 296.722314 242.116364 
L 299.796694 242.116364 
L 302.871074 242.116364 
L 305.945455 242.116364 
L 309.019835 242.116364 
L 312.094215 242.116364 
L 315.168595 242.116364 
L 318.242975 242.116364 
L 321.317355 242.116364 
L 324.391736 242.116364 
L 327.466116 242.116364 
L 330.540496 242.116364 
L 333.614876 242.116364 
L 336.689256 242.116364 
L 339.763636 242.116364 
L 342.838017 242.116364 
L 345.912397 242.116364 
L 348.986777 242.116364 
L 352.061157 242.116364 
L 355.135537 242.116364 
L 358.209917 242.116364 
L 361.284298 242.116364 
L 364.358678 242.116364 
L 367.433058 242.116364 
L 370.507438 242.116364 
L 373.581818 242.116364 
" style="fill:none;stroke:#4c72b0;stroke-linecap:round;stroke-width:1.5;"/>
   </g>
   <g id="line2d_14">
    <path clip-path="url(#pa173b8baf8)" d="M 69.218182 242.116364 
L 72.292562 242.116364 
L 75.366942 242.116364 
L 78.441322 242.116364 
L 81.515702 242.116364 
L 84.590083 242.116364 
L 87.664463 242.116364 
L 90.738843 242.116364 
L 93.813223 242.116364 
L 96.887603 242.116364 
L 99.961983 242.116364 
L 103.036364 242.116364 
L 106.110744 242.116364 
L 109.185124 242.116364 
L 112.259504 242.116364 
L 115.333884 242.116364 
L 118.408264 242.116364 
L 121.482645 242.116364 
L 124.557025 242.116364 
L 127.631405 242.116364 
L 130.705785 242.116364 
L 133.780165 242.116364 
L 136.854545 242.116364 
L 139.928926 242.116364 
L 143.003306 242.116364 
L 146.077686 242.116364 
L 149.152066 242.116364 
L 152.226446 242.116364 
L 155.300826 242.116364 
L 158.375207 242.116364 
L 161.449587 242.116364 
L 164.523967 242.116364 
L 167.598347 242.116364 
L 170.672727 242.116364 
L 173.747107 242.116364 
L 176.821488 242.116364 
L 179.895868 242.116364 
L 182.970248 242.116364 
L 186.044628 242.116364 
L 189.119008 242.116364 
L 192.193388 242.116364 
L 195.267769 242.116364 
L 198.342149 242.116364 
L 201.416529 242.116364 
L 204.490909 242.116364 
L 207.565289 242.116364 
L 210.639669 242.116364 
L 213.71405 242.116364 
L 216.78843 242.116364 
L 219.86281 242.116364 
L 222.93719 242.116364 
L 226.01157 242.116364 
L 229.08595 242.116364 
L 232.160331 242.116364 
L 235.234711 242.116364 
L 238.309091 242.116364 
L 241.383471 242.116364 
L 244.457851 242.116364 
L 247.532231 242.116364 
L 250.606612 242.116364 
L 253.680992 242.116364 
L 256.755372 242.116364 
L 259.829752 242.116364 
L 262.904132 242.116364 
L 265.978512 242.116364 
L 269.052893 242.116364 
L 272.127273 242.116364 
L 275.201653 242.116364 
L 278.276033 242.116364 
L 281.350413 242.116364 
L 284.424793 242.116364 
L 287.499174 242.116364 
L 290.573554 242.116364 
L 293.647934 242.116364 
L 296.722314 242.116364 
L 299.796694 242.116364 
L 302.871074 242.116364 
L 305.945455 242.116364 
L 309.019835 242.116364 
L 312.094215 242.116364 
L 315.168595 242.116364 
L 318.242975 242.116364 
L 321.317355 242.116364 
L 324.391736 242.116364 
L 327.466116 242.116364 
L 330.540496 242.116364 
L 333.614876 242.116364 
L 336.689256 242.116364 
L 339.763636 242.116364 
L 342.838017 242.116364 
L 345.912397 242.116364 
L 348.986777 242.116364 
L 352.061157 242.116364 
L 355.135537 242.116364 
L 358.209917 242.116364 
L 361.284298 242.116364 
L 364.358678 242.116364 
L 367.433058 242.116364 
L 370.507438 242.116364 
L 373.581818 242.116364 
" style="fill:none;stroke:#dd8452;stroke-linecap:round;stroke-width:1.5;"/>
   </g>
   <g id="line2d_15">
    <path clip-path="url(#pa173b8baf8)" d="M 69.218182 242.116364 
L 72.292562 242.116364 
L 75.366942 242.116364 
L 78.441322 242.116364 
L 81.515702 242.116364 
L 84.590083 242.116364 
L 87.664463 242.116364 
L 90.738843 242.116364 
L 93.813223 242.116364 
L 96.887603 242.116364 
L 99.961983 242.116364 
L 103.036364 242.116364 
L 106.110744 242.116364 
L 109.185124 242.116364 
L 112.259504 242.116364 
L 115.333884 242.116364 
L 118.408264 242.116364 
L 121.482645 242.116364 
L 124.557025 242.116364 
L 127.631405 242.116364 
L 130.705785 242.116364 
L 133.780165 242.116364 
L 136.854545 242.116364 
L 139.928926 242.116364 
L 143.003306 242.116364 
L 146.077686 242.116364 
L 149.152066 242.116364 
L 152.226446 242.116364 
L 155.300826 242.116364 
L 158.375207 242.116364 
L 161.449587 242.116364 
L 164.523967 242.116364 
L 167.598347 242.116364 
L 170.672727 242.116364 
L 173.747107 242.116364 
L 176.821488 242.116364 
L 179.895868 242.116364 
L 182.970248 242.116364 
L 186.044628 242.116364 
L 189.119008 242.116364 
L 192.193388 242.116364 
L 195.267769 242.116364 
L 198.342149 242.116364 
L 201.416529 242.116364 
L 204.490909 242.116364 
L 207.565289 242.116364 
L 210.639669 242.116364 
L 213.71405 242.116364 
L 216.78843 242.116364 
L 219.86281 242.116364 
L 222.93719 242.116364 
L 226.01157 242.116364 
L 229.08595 242.116364 
L 232.160331 242.116364 
L 235.234711 242.116364 
L 238.309091 242.116364 
L 241.383471 242.116364 
L 244.457851 242.116364 
L 247.532231 242.116364 
L 250.606612 242.116364 
L 253.680992 242.116364 
L 256.755372 242.116364 
L 259.829752 242.116364 
L 262.904132 242.116364 
L 265.978512 242.116364 
L 269.052893 242.116364 
L 272.127273 242.116364 
L 275.201653 242.116364 
L 278.276033 242.116364 
L 281.350413 242.116364 
L 284.424793 242.116364 
L 287.499174 242.116364 
L 290.573554 242.116364 
L 293.647934 242.116364 
L 296.722314 242.116364 
L 299.796694 242.116364 
L 302.871074 242.116364 
L 305.945455 242.116364 
L 309.019835 242.116364 
L 312.094215 242.116364 
L 315.168595 242.116364 
L 318.242975 242.116364 
L 321.317355 242.116364 
L 324.391736 242.116364 
L 327.466116 242.116364 
L 330.540496 242.116364 
L 333.614876 242.116364 
L 336.689256 242.116364 
L 339.763636 242.116364 
L 342.838017 242.116364 
L 345.912397 242.116364 
L 348.986777 242.116364 
L 352.061157 242.116364 
L 355.135537 242.116364 
L 358.209917 242.116364 
L 361.284298 242.116364 
L 364.358678 242.116364 
L 367.433058 242.046217 
L 370.507438 242.046217 
L 373.581818 242.046217 
" style="fill:none;stroke:#55a868;stroke-linecap:round;stroke-width:1.5;"/>
   </g>
   <g id="line2d_16">
    <path clip-path="url(#pa173b8baf8)" d="M 69.218182 242.116364 
L 72.292562 242.116364 
L 75.366942 242.116364 
L 78.441322 242.116364 
L 81.515702 242.116364 
L 84.590083 242.116364 
L 87.664463 242.116364 
L 90.738843 242.116364 
L 93.813223 242.116364 
L 96.887603 242.116364 
L 99.961983 242.116364 
L 103.036364 242.116364 
L 106.110744 242.116364 
L 109.185124 242.116364 
L 112.259504 242.116364 
L 115.333884 242.116364 
L 118.408264 242.116364 
L 121.482645 242.116364 
L 124.557025 242.116364 
L 127.631405 242.116364 
L 130.705785 242.116364 
L 133.780165 242.116364 
L 136.854545 242.116364 
L 139.928926 242.116364 
L 143.003306 242.116364 
L 146.077686 242.116364 
L 149.152066 242.116364 
L 152.226446 242.116364 
L 155.300826 242.116364 
L 158.375207 242.116364 
L 161.449587 242.116364 
L 164.523967 242.116364 
L 167.598347 242.116364 
L 170.672727 242.116364 
L 173.747107 242.116364 
L 176.821488 242.116364 
L 179.895868 242.116364 
L 182.970248 242.116364 
L 186.044628 242.116364 
L 189.119008 242.116364 
L 192.193388 242.116364 
L 195.267769 242.116364 
L 198.342149 242.116364 
L 201.416529 242.116364 
L 204.490909 242.116364 
L 207.565289 242.116364 
L 210.639669 242.116364 
L 213.71405 242.116364 
L 216.78843 242.116364 
L 219.86281 242.116364 
L 222.93719 242.116364 
L 226.01157 242.116364 
L 229.08595 242.116364 
L 232.160331 242.116364 
L 235.234711 242.116364 
L 238.309091 242.116364 
L 241.383471 242.116364 
L 244.457851 242.116364 
L 247.532231 242.116364 
L 250.606612 242.116364 
L 253.680992 242.116364 
L 256.755372 242.116364 
L 259.829752 242.116364 
L 262.904132 242.116364 
L 265.978512 242.116364 
L 269.052893 242.116364 
L 272.127273 242.116364 
L 275.201653 242.116364 
L 278.276033 242.116364 
L 281.350413 242.116364 
L 284.424793 242.116364 
L 287.499174 242.116364 
L 290.573554 242.116364 
L 293.647934 242.046217 
L 296.722314 242.046217 
L 299.796694 241.976071 
L 302.871074 241.905924 
L 305.945455 241.905924 
L 309.019835 241.765631 
L 312.094215 241.695485 
L 315.168595 241.695485 
L 318.242975 241.695485 
L 321.317355 241.625338 
L 324.391736 241.625338 
L 327.466116 241.555192 
L 330.540496 241.344753 
L 333.614876 241.20446 
L 336.689256 241.20446 
L 339.763636 241.134313 
L 342.838017 240.853727 
L 345.912397 240.713434 
L 348.986777 240.643288 
L 352.061157 240.432849 
L 355.135537 240.362702 
L 358.209917 240.222409 
L 361.284298 240.01197 
L 364.358678 240.01197 
L 367.433058 239.731384 
L 370.507438 239.591091 
L 373.581818 239.310505 
" style="fill:none;stroke:#c44e52;stroke-linecap:round;stroke-width:1.5;"/>
   </g>
   <g id="line2d_17">
    <path clip-path="url(#pa173b8baf8)" d="M 69.218182 242.116364 
L 72.292562 242.116364 
L 75.366942 242.116364 
L 78.441322 242.116364 
L 81.515702 242.116364 
L 84.590083 242.116364 
L 87.664463 242.116364 
L 90.738843 242.116364 
L 93.813223 242.116364 
L 96.887603 242.116364 
L 99.961983 242.116364 
L 103.036364 242.116364 
L 106.110744 242.116364 
L 109.185124 242.116364 
L 112.259504 242.116364 
L 115.333884 242.116364 
L 118.408264 242.116364 
L 121.482645 242.116364 
L 124.557025 242.116364 
L 127.631405 242.116364 
L 130.705785 242.116364 
L 133.780165 242.116364 
L 136.854545 242.116364 
L 139.928926 242.116364 
L 143.003306 242.116364 
L 146.077686 242.116364 
L 149.152066 242.116364 
L 152.226446 242.116364 
L 155.300826 242.116364 
L 158.375207 242.116364 
L 161.449587 242.116364 
L 164.523967 242.116364 
L 167.598347 242.116364 
L 170.672727 242.116364 
L 173.747107 242.116364 
L 176.821488 242.116364 
L 179.895868 242.116364 
L 182.970248 242.116364 
L 186.044628 242.116364 
L 189.119008 242.116364 
L 192.193388 242.116364 
L 195.267769 242.116364 
L 198.342149 242.116364 
L 201.416529 242.116364 
L 204.490909 242.116364 
L 207.565289 242.116364 
L 210.639669 242.116364 
L 213.71405 242.116364 
L 216.78843 242.046217 
L 219.86281 242.046217 
L 222.93719 241.976071 
L 226.01157 241.976071 
L 229.08595 241.976071 
L 232.160331 241.976071 
L 235.234711 241.976071 
L 238.309091 241.976071 
L 241.383471 241.976071 
L 244.457851 241.976071 
L 247.532231 241.905924 
L 250.606612 241.905924 
L 253.680992 241.905924 
L 256.755372 241.835778 
L 259.829752 241.835778 
L 262.904132 241.835778 
L 265.978512 241.695485 
L 269.052893 241.695485 
L 272.127273 241.625338 
L 275.201653 241.555192 
L 278.276033 241.344753 
L 281.350413 240.923874 
L 284.424793 240.923874 
L 287.499174 240.713434 
L 290.573554 240.502995 
L 293.647934 240.082116 
L 296.722314 239.80153 
L 299.796694 239.240359 
L 302.871074 238.889626 
L 305.945455 238.679187 
L 309.019835 238.118015 
L 312.094215 237.62699 
L 315.168595 237.135965 
L 318.242975 236.504647 
L 321.317355 236.083768 
L 324.391736 235.312157 
L 327.466116 234.400253 
L 330.540496 233.698788 
L 333.614876 233.207763 
L 336.689256 232.576445 
L 339.763636 231.87498 
L 342.838017 230.822783 
L 345.912397 229.981026 
L 348.986777 228.788536 
L 352.061157 227.946779 
L 355.135537 226.964728 
L 358.209917 225.491652 
L 361.284298 224.649895 
L 364.358678 223.106673 
L 367.433058 222.124622 
L 370.507438 220.791839 
L 373.581818 219.459057 
" style="fill:none;stroke:#8172b3;stroke-linecap:round;stroke-width:1.5;"/>
   </g>
   <g id="line2d_18">
    <path clip-path="url(#pa173b8baf8)" d="M 69.218182 242.116364 
L 72.292562 242.116364 
L 75.366942 242.116364 
L 78.441322 242.116364 
L 81.515702 242.116364 
L 84.590083 242.116364 
L 87.664463 242.116364 
L 90.738843 242.116364 
L 93.813223 242.116364 
L 96.887603 242.116364 
L 99.961983 242.116364 
L 103.036364 242.116364 
L 106.110744 242.116364 
L 109.185124 242.116364 
L 112.259504 242.116364 
L 115.333884 242.116364 
L 118.408264 242.116364 
L 121.482645 242.116364 
L 124.557025 242.116364 
L 127.631405 242.116364 
L 130.705785 242.116364 
L 133.780165 242.116364 
L 136.854545 242.116364 
L 139.928926 242.116364 
L 143.003306 242.116364 
L 146.077686 242.116364 
L 149.152066 242.116364 
L 152.226446 242.116364 
L 155.300826 242.116364 
L 158.375207 242.116364 
L 161.449587 242.116364 
L 164.523967 242.116364 
L 167.598347 242.116364 
L 170.672727 242.116364 
L 173.747107 242.116364 
L 176.821488 242.116364 
L 179.895868 242.116364 
L 182.970248 242.116364 
L 186.044628 242.116364 
L 189.119008 242.116364 
L 192.193388 242.116364 
L 195.267769 242.046217 
L 198.342149 241.976071 
L 201.416529 241.976071 
L 204.490909 241.976071 
L 207.565289 241.976071 
L 210.639669 241.976071 
L 213.71405 241.905924 
L 216.78843 241.835778 
L 219.86281 241.765631 
L 222.93719 241.555192 
L 226.01157 241.274606 
L 229.08595 241.20446 
L 232.160331 241.064167 
L 235.234711 240.783581 
L 238.309091 240.643288 
L 241.383471 240.362702 
L 244.457851 240.152263 
L 247.532231 239.661237 
L 250.606612 239.100066 
L 253.680992 238.749334 
L 256.755372 238.398601 
L 259.829752 237.486697 
L 262.904132 236.715086 
L 265.978512 236.364354 
L 269.052893 235.45245 
L 272.127273 234.750985 
L 275.201653 233.628642 
L 278.276033 232.576445 
L 281.350413 231.734687 
L 284.424793 231.173516 
L 287.499174 229.770586 
L 290.573554 228.367657 
L 293.647934 227.034875 
L 296.722314 225.982678 
L 299.796694 224.860334 
L 302.871074 223.246966 
L 305.945455 221.984329 
L 309.019835 219.950082 
L 312.094215 217.775542 
L 315.168595 215.741294 
L 318.242975 213.777193 
L 321.317355 212.233971 
L 324.391736 209.848992 
L 327.466116 208.025184 
L 330.540496 205.990936 
L 333.614876 204.307421 
L 336.689256 202.483613 
L 339.763636 200.729952 
L 342.838017 199.186729 
L 345.912397 196.731603 
L 348.986777 195.048088 
L 352.061157 193.294427 
L 355.135537 191.330326 
L 358.209917 189.225932 
L 361.284298 187.542417 
L 364.358678 185.648462 
L 367.433058 183.824654 
L 370.507438 181.790407 
L 373.581818 179.826306 
" style="fill:none;stroke:#937860;stroke-linecap:round;stroke-width:1.5;"/>
   </g>
   <g id="line2d_19">
    <path clip-path="url(#pa173b8baf8)" d="M 69.218182 242.116364 
L 72.292562 242.116364 
L 75.366942 242.116364 
L 78.441322 242.116364 
L 81.515702 242.116364 
L 84.590083 242.116364 
L 87.664463 242.116364 
L 90.738843 242.116364 
L 93.813223 242.116364 
L 96.887603 242.116364 
L 99.961983 242.116364 
L 103.036364 242.116364 
L 106.110744 242.116364 
L 109.185124 242.116364 
L 112.259504 242.116364 
L 115.333884 242.116364 
L 118.408264 242.116364 
L 121.482645 242.116364 
L 124.557025 242.116364 
L 127.631405 242.116364 
L 130.705785 242.116364 
L 133.780165 242.116364 
L 136.854545 242.116364 
L 139.928926 242.116364 
L 143.003306 242.116364 
L 146.077686 242.116364 
L 149.152066 242.116364 
L 152.226446 242.116364 
L 155.300826 242.116364 
L 158.375207 242.116364 
L 161.449587 242.116364 
L 164.523967 242.116364 
L 167.598347 242.046217 
L 170.672727 242.046217 
L 173.747107 241.976071 
L 176.821488 241.976071 
L 179.895868 241.976071 
L 182.970248 241.976071 
L 186.044628 241.835778 
L 189.119008 241.625338 
L 192.193388 241.274606 
L 195.267769 241.20446 
L 198.342149 240.99402 
L 201.416529 240.502995 
L 204.490909 239.520945 
L 207.565289 239.100066 
L 210.639669 238.468748 
L 213.71405 237.767283 
L 216.78843 237.135965 
L 219.86281 236.504647 
L 222.93719 235.522596 
L 226.01157 234.119667 
L 229.08595 232.927177 
L 232.160331 230.822783 
L 235.234711 229.349708 
L 238.309091 227.596046 
L 241.383471 225.702092 
L 244.457851 223.94843 
L 247.532231 222.194769 
L 250.606612 220.370961 
L 253.680992 218.687446 
L 256.755372 216.442759 
L 259.829752 213.987633 
L 262.904132 210.831042 
L 265.978512 208.025184 
L 269.052893 205.149179 
L 272.127273 202.203027 
L 275.201653 199.677755 
L 278.276033 197.433068 
L 281.350413 194.697356 
L 284.424793 192.03179 
L 287.499174 189.085639 
L 290.573554 185.858902 
L 293.647934 183.053043 
L 296.722314 180.668064 
L 299.796694 177.441327 
L 302.871074 174.495175 
L 305.945455 171.759463 
L 309.019835 169.304337 
L 312.094215 166.147746 
L 315.168595 163.271741 
L 318.242975 161.237494 
L 321.317355 158.992807 
L 324.391736 156.748121 
L 327.466116 154.924313 
L 330.540496 152.258747 
L 333.614876 149.873767 
L 336.689256 147.558934 
L 339.763636 145.314247 
L 342.838017 143.28 
L 345.912397 141.10546 
L 348.986777 139.141359 
L 352.061157 137.247404 
L 355.135537 135.213157 
L 358.209917 133.950521 
L 361.284298 132.196859 
L 364.358678 130.723783 
L 367.433058 129.531294 
L 370.507438 128.058218 
L 373.581818 126.164264 
" style="fill:none;stroke:#da8bc3;stroke-linecap:round;stroke-width:1.5;"/>
   </g>
   <g id="line2d_20">
    <path clip-path="url(#pa173b8baf8)" d="M 69.218182 242.116364 
L 72.292562 242.116364 
L 75.366942 242.116364 
L 78.441322 242.116364 
L 81.515702 242.116364 
L 84.590083 242.116364 
L 87.664463 242.116364 
L 90.738843 242.116364 
L 93.813223 242.116364 
L 96.887603 242.116364 
L 99.961983 242.116364 
L 103.036364 242.116364 
L 106.110744 242.116364 
L 109.185124 242.116364 
L 112.259504 242.116364 
L 115.333884 242.116364 
L 118.408264 242.116364 
L 121.482645 242.116364 
L 124.557025 242.046217 
L 127.631405 242.046217 
L 130.705785 242.046217 
L 133.780165 242.046217 
L 136.854545 242.046217 
L 139.928926 241.976071 
L 143.003306 241.835778 
L 146.077686 241.835778 
L 149.152066 241.765631 
L 152.226446 241.695485 
L 155.300826 241.485045 
L 158.375207 241.344753 
L 161.449587 240.923874 
L 164.523967 240.783581 
L 167.598347 240.502995 
L 170.672727 240.222409 
L 173.747107 239.240359 
L 176.821488 238.328455 
L 179.895868 237.346404 
L 182.970248 236.364354 
L 186.044628 234.821132 
L 189.119008 233.137617 
L 192.193388 231.383955 
L 195.267769 228.788536 
L 198.342149 226.263263 
L 201.416529 224.229016 
L 204.490909 221.353011 
L 207.565289 218.687446 
L 210.639669 215.951734 
L 213.71405 212.65485 
L 216.78843 209.217673 
L 219.86281 205.71035 
L 222.93719 202.413467 
L 226.01157 198.555411 
L 229.08595 195.118235 
L 232.160331 191.190033 
L 235.234711 187.752856 
L 238.309091 184.455973 
L 241.383471 181.860554 
L 244.457851 178.423377 
L 247.532231 175.19664 
L 250.606612 172.741514 
L 253.680992 169.44463 
L 256.755372 165.516428 
L 259.829752 161.938959 
L 262.904132 159.764418 
L 265.978512 156.888413 
L 269.052893 154.292994 
L 272.127273 152.39904 
L 275.201653 150.154353 
L 278.276033 146.436591 
L 281.350413 143.630732 
L 284.424793 141.386046 
L 287.499174 138.930919 
L 290.573554 136.3355 
L 293.647934 134.090814 
L 296.722314 131.355102 
L 299.796694 129.671587 
L 302.871074 127.567193 
L 305.945455 125.953824 
L 309.019835 123.218112 
L 312.094215 121.043572 
L 315.168595 118.658592 
L 318.242975 116.624345 
L 321.317355 114.870683 
L 324.391736 113.187168 
L 327.466116 110.802189 
L 330.540496 108.767941 
L 333.614876 106.312815 
L 336.689256 104.980032 
L 339.763636 103.647249 
L 342.838017 101.893588 
L 345.912397 100.139926 
L 348.986777 98.175826 
L 352.061157 96.281871 
L 355.135537 94.52821 
L 358.209917 92.984987 
L 361.284298 91.862644 
L 364.358678 90.670154 
L 367.433058 89.126932 
L 370.507438 87.443417 
L 373.581818 86.040488 
" style="fill:none;stroke:#8c8c8c;stroke-linecap:round;stroke-width:1.5;"/>
   </g>
   <g id="line2d_21">
    <path clip-path="url(#pa173b8baf8)" d="M 69.218182 242.116364 
L 72.292562 242.116364 
L 75.366942 242.116364 
L 78.441322 242.116364 
L 81.515702 242.116364 
L 84.590083 242.116364 
L 87.664463 242.116364 
L 90.738843 242.116364 
L 93.813223 242.116364 
L 96.887603 242.116364 
L 99.961983 242.116364 
L 103.036364 242.116364 
L 106.110744 242.116364 
L 109.185124 242.116364 
L 112.259504 242.116364 
L 115.333884 242.116364 
L 118.408264 242.116364 
L 121.482645 241.976071 
L 124.557025 241.976071 
L 127.631405 241.976071 
L 130.705785 241.976071 
L 133.780165 241.695485 
L 136.854545 241.485045 
L 139.928926 241.274606 
L 143.003306 240.713434 
L 146.077686 239.941823 
L 149.152066 239.380652 
L 152.226446 238.679187 
L 155.300826 237.486697 
L 158.375207 236.4345 
L 161.449587 234.891278 
L 164.523967 232.997324 
L 167.598347 230.051172 
L 170.672727 227.175167 
L 173.747107 223.878284 
L 176.821488 219.178471 
L 179.895868 214.478658 
L 182.970248 210.26987 
L 186.044628 206.271522 
L 189.119008 201.501563 
L 192.193388 197.573361 
L 195.267769 193.154134 
L 198.342149 189.576664 
L 201.416529 185.017144 
L 204.490909 180.94865 
L 207.565289 176.17869 
L 210.639669 170.707266 
L 213.71405 165.726868 
L 216.78843 161.938959 
L 219.86281 157.730171 
L 222.93719 154.222848 
L 226.01157 150.575232 
L 229.08595 146.85747 
L 232.160331 143.28 
L 235.234711 140.333849 
L 238.309091 137.036965 
L 241.383471 134.090814 
L 244.457851 131.284955 
L 247.532231 127.988071 
L 250.606612 125.25236 
L 253.680992 122.165915 
L 256.755372 119.921228 
L 259.829752 117.045224 
L 262.904132 115.010976 
L 265.978512 113.467754 
L 269.052893 111.293214 
L 272.127273 108.978381 
L 275.201653 106.80384 
L 278.276033 104.348714 
L 281.350413 102.45476 
L 284.424793 100.139926 
L 287.499174 98.105679 
L 290.573554 96.422164 
L 293.647934 95.019235 
L 296.722314 93.33572 
L 299.796694 91.862644 
L 302.871074 89.898543 
L 305.945455 88.074735 
L 309.019835 85.689755 
L 312.094215 84.637559 
L 315.168595 82.743604 
L 318.242975 81.971993 
L 321.317355 80.007892 
L 324.391736 78.675109 
L 327.466116 77.412473 
L 330.540496 76.07969 
L 333.614876 75.027493 
L 336.689256 74.185736 
L 339.763636 73.273832 
L 342.838017 71.870903 
L 345.912397 71.029145 
L 348.986777 69.696362 
L 352.061157 68.784458 
L 355.135537 67.311383 
L 358.209917 66.118893 
L 361.284298 64.996549 
L 364.358678 64.435378 
L 367.433058 63.453327 
L 370.507438 62.40113 
L 373.581818 61.278787 
" style="fill:none;stroke:#ccb974;stroke-linecap:round;stroke-width:1.5;"/>
   </g>
   <g id="line2d_22">
    <path clip-path="url(#pa173b8baf8)" d="M 69.218182 242.116364 
L 72.292562 242.116364 
L 75.366942 242.116364 
L 78.441322 242.116364 
L 81.515702 242.116364 
L 84.590083 242.116364 
L 87.664463 242.116364 
L 90.738843 242.116364 
L 93.813223 242.116364 
L 96.887603 242.116364 
L 99.961983 241.976071 
L 103.036364 241.976071 
L 106.110744 241.976071 
L 109.185124 241.835778 
L 112.259504 241.695485 
L 115.333884 241.344753 
L 118.408264 241.20446 
L 121.482645 240.222409 
L 124.557025 239.731384 
L 127.631405 238.468748 
L 130.705785 236.855379 
L 133.780165 234.891278 
L 136.854545 232.857031 
L 139.928926 229.840733 
L 143.003306 227.455753 
L 146.077686 224.860334 
L 149.152066 220.932132 
L 152.226446 216.442759 
L 155.300826 211.041481 
L 158.375207 206.341668 
L 161.449587 200.519512 
L 164.523967 195.468967 
L 167.598347 189.015493 
L 170.672727 181.790407 
L 173.747107 175.477226 
L 176.821488 170.146095 
L 179.895868 165.025403 
L 182.970248 158.501782 
L 186.044628 153.170651 
L 189.119008 147.208202 
L 192.193388 143.069561 
L 195.267769 138.159308 
L 198.342149 134.16096 
L 201.416529 129.882026 
L 204.490909 126.514996 
L 207.565289 122.797233 
L 210.639669 119.360057 
L 213.71405 115.92288 
L 216.78843 112.906582 
L 219.86281 109.18882 
L 222.93719 105.891936 
L 226.01157 103.43681 
L 229.08595 100.841391 
L 232.160331 98.87729 
L 235.234711 96.562457 
L 238.309091 94.107331 
L 241.383471 92.213376 
L 244.457851 90.459715 
L 247.532231 89.126932 
L 250.606612 87.373271 
L 253.680992 85.619609 
L 256.755372 84.21668 
L 259.829752 82.182432 
L 262.904132 80.84965 
L 265.978512 79.025842 
L 269.052893 77.202034 
L 272.127273 75.728958 
L 275.201653 74.255882 
L 278.276033 73.343978 
L 281.350413 71.870903 
L 284.424793 70.818706 
L 287.499174 69.626216 
L 290.573554 68.784458 
L 293.647934 66.96065 
L 296.722314 65.838307 
L 299.796694 63.944353 
L 302.871074 62.822009 
L 305.945455 61.769812 
L 309.019835 60.928055 
L 312.094215 60.016151 
L 315.168595 58.543075 
L 318.242975 57.350585 
L 321.317355 56.508828 
L 324.391736 55.737217 
L 327.466116 55.035752 
L 330.540496 54.614873 
L 333.614876 54.193994 
L 336.689256 53.211944 
L 339.763636 52.370186 
L 342.838017 51.177697 
L 345.912397 50.406086 
L 348.986777 49.494182 
L 352.061157 48.862863 
L 355.135537 48.021106 
L 358.209917 47.319641 
L 361.284298 46.75847 
L 364.358678 46.197298 
L 367.433058 45.776419 
L 370.507438 45.425687 
L 373.581818 44.443636 
" style="fill:none;stroke:#64b5cd;stroke-linecap:round;stroke-width:1.5;"/>
   </g>
   <g id="patch_3">
    <path d="M 54 252 
L 54 34.56 
" style="fill:none;stroke:#ffffff;stroke-linecap:square;stroke-linejoin:miter;stroke-width:1.25;"/>
   </g>
   <g id="patch_4">
    <path d="M 388.8 252 
L 388.8 34.56 
" style="fill:none;stroke:#ffffff;stroke-linecap:square;stroke-linejoin:miter;stroke-width:1.25;"/>
   </g>
   <g id="patch_5">
    <path d="M 54 252 
L 388.8 252 
" style="fill:none;stroke:#ffffff;stroke-linecap:square;stroke-linejoin:miter;stroke-width:1.25;"/>
   </g>
   <g id="patch_6">
    <path d="M 54 34.56 
L 388.8 34.56 
" style="fill:none;stroke:#ffffff;stroke-linecap:square;stroke-linejoin:miter;stroke-width:1.25;"/>
   </g>
   <g id="legend_1">
    <g id="patch_7">
     <path d="M 61.7 204.819375 
L 132.359531 204.819375 
Q 134.559531 204.819375 134.559531 202.619375 
L 134.559531 42.26 
Q 134.559531 40.06 132.359531 40.06 
L 61.7 40.06 
Q 59.5 40.06 59.5 42.26 
L 59.5 202.619375 
Q 59.5 204.819375 61.7 204.819375 
z
" style="fill:#eaeaf2;opacity:0.8;stroke:#cccccc;stroke-linejoin:miter;"/>
    </g>
    <g id="line2d_23">
     <path d="M 63.9 48.968281 
L 85.9 48.968281 
" style="fill:none;stroke:#4c72b0;stroke-linecap:round;stroke-width:1.5;"/>
    </g>
    <g id="line2d_24"/>
    <g id="text_15">
     <!-- -10.42 -->
     <defs>
      <path d="M 4.890625 31.390625 
L 31.203125 31.390625 
L 31.203125 23.390625 
L 4.890625 23.390625 
z
" id="DejaVuSans-2d"/>
      <path d="M 10.6875 12.40625 
L 21 12.40625 
L 21 0 
L 10.6875 0 
z
" id="DejaVuSans-2e"/>
     </defs>
     <g style="fill:#262626;" transform="translate(94.7 52.818281)scale(0.11 -0.11)">
      <use xlink:href="#DejaVuSans-2d"/>
      <use x="36.083984" xlink:href="#DejaVuSans-31"/>
      <use x="99.707031" xlink:href="#DejaVuSans-30"/>
      <use x="163.330078" xlink:href="#DejaVuSans-2e"/>
      <use x="195.117188" xlink:href="#DejaVuSans-34"/>
      <use x="258.740234" xlink:href="#DejaVuSans-32"/>
     </g>
    </g>
    <g id="line2d_25">
     <path d="M 63.9 65.114219 
L 85.9 65.114219 
" style="fill:none;stroke:#dd8452;stroke-linecap:round;stroke-width:1.5;"/>
    </g>
    <g id="line2d_26"/>
    <g id="text_16">
     <!-- -9.99 -->
     <defs>
      <path d="M 10.984375 1.515625 
L 10.984375 10.5 
Q 14.703125 8.734375 18.5 7.8125 
Q 22.3125 6.890625 25.984375 6.890625 
Q 35.75 6.890625 40.890625 13.453125 
Q 46.046875 20.015625 46.78125 33.40625 
Q 43.953125 29.203125 39.59375 26.953125 
Q 35.25 24.703125 29.984375 24.703125 
Q 19.046875 24.703125 12.671875 31.3125 
Q 6.296875 37.9375 6.296875 49.421875 
Q 6.296875 60.640625 12.9375 67.421875 
Q 19.578125 74.21875 30.609375 74.21875 
Q 43.265625 74.21875 49.921875 64.515625 
Q 56.59375 54.828125 56.59375 36.375 
Q 56.59375 19.140625 48.40625 8.859375 
Q 40.234375 -1.421875 26.421875 -1.421875 
Q 22.703125 -1.421875 18.890625 -0.6875 
Q 15.09375 0.046875 10.984375 1.515625 
z
M 30.609375 32.421875 
Q 37.25 32.421875 41.125 36.953125 
Q 45.015625 41.5 45.015625 49.421875 
Q 45.015625 57.28125 41.125 61.84375 
Q 37.25 66.40625 30.609375 66.40625 
Q 23.96875 66.40625 20.09375 61.84375 
Q 16.21875 57.28125 16.21875 49.421875 
Q 16.21875 41.5 20.09375 36.953125 
Q 23.96875 32.421875 30.609375 32.421875 
z
" id="DejaVuSans-39"/>
     </defs>
     <g style="fill:#262626;" transform="translate(94.7 68.964219)scale(0.11 -0.11)">
      <use xlink:href="#DejaVuSans-2d"/>
      <use x="36.083984" xlink:href="#DejaVuSans-39"/>
      <use x="99.707031" xlink:href="#DejaVuSans-2e"/>
      <use x="131.494141" xlink:href="#DejaVuSans-39"/>
      <use x="195.117188" xlink:href="#DejaVuSans-39"/>
     </g>
    </g>
    <g id="line2d_27">
     <path d="M 63.9 81.260156 
L 85.9 81.260156 
" style="fill:none;stroke:#55a868;stroke-linecap:round;stroke-width:1.5;"/>
    </g>
    <g id="line2d_28"/>
    <g id="text_17">
     <!-- -9.55 -->
     <g style="fill:#262626;" transform="translate(94.7 85.110156)scale(0.11 -0.11)">
      <use xlink:href="#DejaVuSans-2d"/>
      <use x="36.083984" xlink:href="#DejaVuSans-39"/>
      <use x="99.707031" xlink:href="#DejaVuSans-2e"/>
      <use x="131.494141" xlink:href="#DejaVuSans-35"/>
      <use x="195.117188" xlink:href="#DejaVuSans-35"/>
     </g>
    </g>
    <g id="line2d_29">
     <path d="M 63.9 97.406094 
L 85.9 97.406094 
" style="fill:none;stroke:#c44e52;stroke-linecap:round;stroke-width:1.5;"/>
    </g>
    <g id="line2d_30"/>
    <g id="text_18">
     <!-- -9.12 -->
     <g style="fill:#262626;" transform="translate(94.7 101.256094)scale(0.11 -0.11)">
      <use xlink:href="#DejaVuSans-2d"/>
      <use x="36.083984" xlink:href="#DejaVuSans-39"/>
      <use x="99.707031" xlink:href="#DejaVuSans-2e"/>
      <use x="131.494141" xlink:href="#DejaVuSans-31"/>
      <use x="195.117188" xlink:href="#DejaVuSans-32"/>
     </g>
    </g>
    <g id="line2d_31">
     <path d="M 63.9 113.552031 
L 85.9 113.552031 
" style="fill:none;stroke:#8172b3;stroke-linecap:round;stroke-width:1.5;"/>
    </g>
    <g id="line2d_32"/>
    <g id="text_19">
     <!-- -8.69 -->
     <g style="fill:#262626;" transform="translate(94.7 117.402031)scale(0.11 -0.11)">
      <use xlink:href="#DejaVuSans-2d"/>
      <use x="36.083984" xlink:href="#DejaVuSans-38"/>
      <use x="99.707031" xlink:href="#DejaVuSans-2e"/>
      <use x="131.494141" xlink:href="#DejaVuSans-36"/>
      <use x="195.117188" xlink:href="#DejaVuSans-39"/>
     </g>
    </g>
    <g id="line2d_33">
     <path d="M 63.9 129.697969 
L 85.9 129.697969 
" style="fill:none;stroke:#937860;stroke-linecap:round;stroke-width:1.5;"/>
    </g>
    <g id="line2d_34"/>
    <g id="text_20">
     <!-- -8.25 -->
     <g style="fill:#262626;" transform="translate(94.7 133.547969)scale(0.11 -0.11)">
      <use xlink:href="#DejaVuSans-2d"/>
      <use x="36.083984" xlink:href="#DejaVuSans-38"/>
      <use x="99.707031" xlink:href="#DejaVuSans-2e"/>
      <use x="131.494141" xlink:href="#DejaVuSans-32"/>
      <use x="195.117188" xlink:href="#DejaVuSans-35"/>
     </g>
    </g>
    <g id="line2d_35">
     <path d="M 63.9 145.843906 
L 85.9 145.843906 
" style="fill:none;stroke:#da8bc3;stroke-linecap:round;stroke-width:1.5;"/>
    </g>
    <g id="line2d_36"/>
    <g id="text_21">
     <!-- -7.82 -->
     <defs>
      <path d="M 8.203125 72.90625 
L 55.078125 72.90625 
L 55.078125 68.703125 
L 28.609375 0 
L 18.3125 0 
L 43.21875 64.59375 
L 8.203125 64.59375 
z
" id="DejaVuSans-37"/>
     </defs>
     <g style="fill:#262626;" transform="translate(94.7 149.693906)scale(0.11 -0.11)">
      <use xlink:href="#DejaVuSans-2d"/>
      <use x="36.083984" xlink:href="#DejaVuSans-37"/>
      <use x="99.707031" xlink:href="#DejaVuSans-2e"/>
      <use x="131.494141" xlink:href="#DejaVuSans-38"/>
      <use x="195.117188" xlink:href="#DejaVuSans-32"/>
     </g>
    </g>
    <g id="line2d_37">
     <path d="M 63.9 161.989844 
L 85.9 161.989844 
" style="fill:none;stroke:#8c8c8c;stroke-linecap:round;stroke-width:1.5;"/>
    </g>
    <g id="line2d_38"/>
    <g id="text_22">
     <!-- -7.38 -->
     <defs>
      <path d="M 40.578125 39.3125 
Q 47.65625 37.796875 51.625 33 
Q 55.609375 28.21875 55.609375 21.1875 
Q 55.609375 10.40625 48.1875 4.484375 
Q 40.765625 -1.421875 27.09375 -1.421875 
Q 22.515625 -1.421875 17.65625 -0.515625 
Q 12.796875 0.390625 7.625 2.203125 
L 7.625 11.71875 
Q 11.71875 9.328125 16.59375 8.109375 
Q 21.484375 6.890625 26.8125 6.890625 
Q 36.078125 6.890625 40.9375 10.546875 
Q 45.796875 14.203125 45.796875 21.1875 
Q 45.796875 27.640625 41.28125 31.265625 
Q 36.765625 34.90625 28.71875 34.90625 
L 20.21875 34.90625 
L 20.21875 43.015625 
L 29.109375 43.015625 
Q 36.375 43.015625 40.234375 45.921875 
Q 44.09375 48.828125 44.09375 54.296875 
Q 44.09375 59.90625 40.109375 62.90625 
Q 36.140625 65.921875 28.71875 65.921875 
Q 24.65625 65.921875 20.015625 65.03125 
Q 15.375 64.15625 9.8125 62.3125 
L 9.8125 71.09375 
Q 15.4375 72.65625 20.34375 73.4375 
Q 25.25 74.21875 29.59375 74.21875 
Q 40.828125 74.21875 47.359375 69.109375 
Q 53.90625 64.015625 53.90625 55.328125 
Q 53.90625 49.265625 50.4375 45.09375 
Q 46.96875 40.921875 40.578125 39.3125 
z
" id="DejaVuSans-33"/>
     </defs>
     <g style="fill:#262626;" transform="translate(94.7 165.839844)scale(0.11 -0.11)">
      <use xlink:href="#DejaVuSans-2d"/>
      <use x="36.083984" xlink:href="#DejaVuSans-37"/>
      <use x="99.707031" xlink:href="#DejaVuSans-2e"/>
      <use x="131.494141" xlink:href="#DejaVuSans-33"/>
      <use x="195.117188" xlink:href="#DejaVuSans-38"/>
     </g>
    </g>
    <g id="line2d_39">
     <path d="M 63.9 178.135781 
L 85.9 178.135781 
" style="fill:none;stroke:#ccb974;stroke-linecap:round;stroke-width:1.5;"/>
    </g>
    <g id="line2d_40"/>
    <g id="text_23">
     <!-- -6.95 -->
     <g style="fill:#262626;" transform="translate(94.7 181.985781)scale(0.11 -0.11)">
      <use xlink:href="#DejaVuSans-2d"/>
      <use x="36.083984" xlink:href="#DejaVuSans-36"/>
      <use x="99.707031" xlink:href="#DejaVuSans-2e"/>
      <use x="131.494141" xlink:href="#DejaVuSans-39"/>
      <use x="195.117188" xlink:href="#DejaVuSans-35"/>
     </g>
    </g>
    <g id="line2d_41">
     <path d="M 63.9 194.281719 
L 85.9 194.281719 
" style="fill:none;stroke:#64b5cd;stroke-linecap:round;stroke-width:1.5;"/>
    </g>
    <g id="line2d_42"/>
    <g id="text_24">
     <!-- -6.51 -->
     <g style="fill:#262626;" transform="translate(94.7 198.131719)scale(0.11 -0.11)">
      <use xlink:href="#DejaVuSans-2d"/>
      <use x="36.083984" xlink:href="#DejaVuSans-36"/>
      <use x="99.707031" xlink:href="#DejaVuSans-2e"/>
      <use x="131.494141" xlink:href="#DejaVuSans-35"/>
      <use x="195.117188" xlink:href="#DejaVuSans-31"/>
     </g>
    </g>
   </g>
  </g>
 </g>
 <defs>
  <clipPath id="pa173b8baf8">
   <rect height="217.44" width="334.8" x="54" y="34.56"/>
  </clipPath>
 </defs>
</svg>
