<?xml version="1.0" encoding="utf-8" standalone="no"?>
<!DOCTYPE svg PUBLIC "-//W3C//DTD SVG 1.1//EN"
  "http://www.w3.org/Graphics/SVG/1.1/DTD/svg11.dtd">
<!-- Created with matplotlib (http://matplotlib.org/) -->
<svg height="345.6pt" version="1.1" viewBox="0 0 460.8 345.6" width="460.8pt" xmlns="http://www.w3.org/2000/svg" xmlns:xlink="http://www.w3.org/1999/xlink">
 <defs>
  <style type="text/css">
*{stroke-linecap:butt;stroke-linejoin:round;}
  </style>
 </defs>
 <g id="figure_1">
  <g id="patch_1">
   <path d="M 0 345.6 
L 460.8 345.6 
L 460.8 0 
L 0 0 
z
" style="fill:#ffffff;"/>
  </g>
  <g id="axes_1">
   <g id="patch_2">
    <path d="M 57.6 307.584 
L 414.72 307.584 
L 414.72 41.472 
L 57.6 41.472 
z
" style="fill:#ffffff;"/>
   </g>
   <g id="matplotlib.axis_1">
    <g id="xtick_1">
     <g id="line2d_1">
      <defs>
       <path d="M 0 0 
L 0 4.8 
" id="m355511bc78" style="stroke:#262626;"/>
      </defs>
      <g>
       <use style="fill:#262626;stroke:#262626;" x="73.832727" xlink:href="#m355511bc78" y="307.584"/>
      </g>
     </g>
     <g id="text_1">
      <!-- 0 -->
      <defs>
       <path d="M 31.78125 66.40625 
Q 24.171875 66.40625 20.328125 58.90625 
Q 16.5 51.421875 16.5 36.375 
Q 16.5 21.390625 20.328125 13.890625 
Q 24.171875 6.390625 31.78125 6.390625 
Q 39.453125 6.390625 43.28125 13.890625 
Q 47.125 21.390625 47.125 36.375 
Q 47.125 51.421875 43.28125 58.90625 
Q 39.453125 66.40625 31.78125 66.40625 
z
M 31.78125 74.21875 
Q 44.046875 74.21875 50.515625 64.515625 
Q 56.984375 54.828125 56.984375 36.375 
Q 56.984375 17.96875 50.515625 8.265625 
Q 44.046875 -1.421875 31.78125 -1.421875 
Q 19.53125 -1.421875 13.0625 8.265625 
Q 6.59375 17.96875 6.59375 36.375 
Q 6.59375 54.828125 13.0625 64.515625 
Q 19.53125 74.21875 31.78125 74.21875 
z
" id="DejaVuSans-30"/>
      </defs>
      <g style="fill:#262626;" transform="translate(71.033227 322.570625)scale(0.088 -0.088)">
       <use xlink:href="#DejaVuSans-30"/>
      </g>
     </g>
    </g>
    <g id="xtick_2">
     <g id="line2d_2">
      <g>
       <use style="fill:#262626;stroke:#262626;" x="139.419504" xlink:href="#m355511bc78" y="307.584"/>
      </g>
     </g>
     <g id="text_2">
      <!-- 20 -->
      <defs>
       <path d="M 19.1875 8.296875 
L 53.609375 8.296875 
L 53.609375 0 
L 7.328125 0 
L 7.328125 8.296875 
Q 12.9375 14.109375 22.625 23.890625 
Q 32.328125 33.6875 34.8125 36.53125 
Q 39.546875 41.84375 41.421875 45.53125 
Q 43.3125 49.21875 43.3125 52.78125 
Q 43.3125 58.59375 39.234375 62.25 
Q 35.15625 65.921875 28.609375 65.921875 
Q 23.96875 65.921875 18.8125 64.3125 
Q 13.671875 62.703125 7.8125 59.421875 
L 7.8125 69.390625 
Q 13.765625 71.78125 18.9375 73 
Q 24.125 74.21875 28.421875 74.21875 
Q 39.75 74.21875 46.484375 68.546875 
Q 53.21875 62.890625 53.21875 53.421875 
Q 53.21875 48.921875 51.53125 44.890625 
Q 49.859375 40.875 45.40625 35.40625 
Q 44.1875 33.984375 37.640625 27.21875 
Q 31.109375 20.453125 19.1875 8.296875 
z
" id="DejaVuSans-32"/>
      </defs>
      <g style="fill:#262626;" transform="translate(133.820504 322.570625)scale(0.088 -0.088)">
       <use xlink:href="#DejaVuSans-32"/>
       <use x="63.623047" xlink:href="#DejaVuSans-30"/>
      </g>
     </g>
    </g>
    <g id="xtick_3">
     <g id="line2d_3">
      <g>
       <use style="fill:#262626;stroke:#262626;" x="205.006281" xlink:href="#m355511bc78" y="307.584"/>
      </g>
     </g>
     <g id="text_3">
      <!-- 40 -->
      <defs>
       <path d="M 37.796875 64.3125 
L 12.890625 25.390625 
L 37.796875 25.390625 
z
M 35.203125 72.90625 
L 47.609375 72.90625 
L 47.609375 25.390625 
L 58.015625 25.390625 
L 58.015625 17.1875 
L 47.609375 17.1875 
L 47.609375 0 
L 37.796875 0 
L 37.796875 17.1875 
L 4.890625 17.1875 
L 4.890625 26.703125 
z
" id="DejaVuSans-34"/>
      </defs>
      <g style="fill:#262626;" transform="translate(199.407281 322.570625)scale(0.088 -0.088)">
       <use xlink:href="#DejaVuSans-34"/>
       <use x="63.623047" xlink:href="#DejaVuSans-30"/>
      </g>
     </g>
    </g>
    <g id="xtick_4">
     <g id="line2d_4">
      <g>
       <use style="fill:#262626;stroke:#262626;" x="270.593058" xlink:href="#m355511bc78" y="307.584"/>
      </g>
     </g>
     <g id="text_4">
      <!-- 60 -->
      <defs>
       <path d="M 33.015625 40.375 
Q 26.375 40.375 22.484375 35.828125 
Q 18.609375 31.296875 18.609375 23.390625 
Q 18.609375 15.53125 22.484375 10.953125 
Q 26.375 6.390625 33.015625 6.390625 
Q 39.65625 6.390625 43.53125 10.953125 
Q 47.40625 15.53125 47.40625 23.390625 
Q 47.40625 31.296875 43.53125 35.828125 
Q 39.65625 40.375 33.015625 40.375 
z
M 52.59375 71.296875 
L 52.59375 62.3125 
Q 48.875 64.0625 45.09375 64.984375 
Q 41.3125 65.921875 37.59375 65.921875 
Q 27.828125 65.921875 22.671875 59.328125 
Q 17.53125 52.734375 16.796875 39.40625 
Q 19.671875 43.65625 24.015625 45.921875 
Q 28.375 48.1875 33.59375 48.1875 
Q 44.578125 48.1875 50.953125 41.515625 
Q 57.328125 34.859375 57.328125 23.390625 
Q 57.328125 12.15625 50.6875 5.359375 
Q 44.046875 -1.421875 33.015625 -1.421875 
Q 20.359375 -1.421875 13.671875 8.265625 
Q 6.984375 17.96875 6.984375 36.375 
Q 6.984375 53.65625 15.1875 63.9375 
Q 23.390625 74.21875 37.203125 74.21875 
Q 40.921875 74.21875 44.703125 73.484375 
Q 48.484375 72.75 52.59375 71.296875 
z
" id="DejaVuSans-36"/>
      </defs>
      <g style="fill:#262626;" transform="translate(264.994058 322.570625)scale(0.088 -0.088)">
       <use xlink:href="#DejaVuSans-36"/>
       <use x="63.623047" xlink:href="#DejaVuSans-30"/>
      </g>
     </g>
    </g>
    <g id="xtick_5">
     <g id="line2d_5">
      <g>
       <use style="fill:#262626;stroke:#262626;" x="336.179835" xlink:href="#m355511bc78" y="307.584"/>
      </g>
     </g>
     <g id="text_5">
      <!-- 80 -->
      <defs>
       <path d="M 31.78125 34.625 
Q 24.75 34.625 20.71875 30.859375 
Q 16.703125 27.09375 16.703125 20.515625 
Q 16.703125 13.921875 20.71875 10.15625 
Q 24.75 6.390625 31.78125 6.390625 
Q 38.8125 6.390625 42.859375 10.171875 
Q 46.921875 13.96875 46.921875 20.515625 
Q 46.921875 27.09375 42.890625 30.859375 
Q 38.875 34.625 31.78125 34.625 
z
M 21.921875 38.8125 
Q 15.578125 40.375 12.03125 44.71875 
Q 8.5 49.078125 8.5 55.328125 
Q 8.5 64.0625 14.71875 69.140625 
Q 20.953125 74.21875 31.78125 74.21875 
Q 42.671875 74.21875 48.875 69.140625 
Q 55.078125 64.0625 55.078125 55.328125 
Q 55.078125 49.078125 51.53125 44.71875 
Q 48 40.375 41.703125 38.8125 
Q 48.828125 37.15625 52.796875 32.3125 
Q 56.78125 27.484375 56.78125 20.515625 
Q 56.78125 9.90625 50.3125 4.234375 
Q 43.84375 -1.421875 31.78125 -1.421875 
Q 19.734375 -1.421875 13.25 4.234375 
Q 6.78125 9.90625 6.78125 20.515625 
Q 6.78125 27.484375 10.78125 32.3125 
Q 14.796875 37.15625 21.921875 38.8125 
z
M 18.3125 54.390625 
Q 18.3125 48.734375 21.84375 45.5625 
Q 25.390625 42.390625 31.78125 42.390625 
Q 38.140625 42.390625 41.71875 45.5625 
Q 45.3125 48.734375 45.3125 54.390625 
Q 45.3125 60.0625 41.71875 63.234375 
Q 38.140625 66.40625 31.78125 66.40625 
Q 25.390625 66.40625 21.84375 63.234375 
Q 18.3125 60.0625 18.3125 54.390625 
z
" id="DejaVuSans-38"/>
      </defs>
      <g style="fill:#262626;" transform="translate(330.580835 322.570625)scale(0.088 -0.088)">
       <use xlink:href="#DejaVuSans-38"/>
       <use x="63.623047" xlink:href="#DejaVuSans-30"/>
      </g>
     </g>
    </g>
    <g id="xtick_6">
     <g id="line2d_6">
      <g>
       <use style="fill:#262626;stroke:#262626;" x="401.766612" xlink:href="#m355511bc78" y="307.584"/>
      </g>
     </g>
     <g id="text_6">
      <!-- 100 -->
      <defs>
       <path d="M 12.40625 8.296875 
L 28.515625 8.296875 
L 28.515625 63.921875 
L 10.984375 60.40625 
L 10.984375 69.390625 
L 28.421875 72.90625 
L 38.28125 72.90625 
L 38.28125 8.296875 
L 54.390625 8.296875 
L 54.390625 0 
L 12.40625 0 
z
" id="DejaVuSans-31"/>
      </defs>
      <g style="fill:#262626;" transform="translate(393.368112 322.570625)scale(0.088 -0.088)">
       <use xlink:href="#DejaVuSans-31"/>
       <use x="63.623047" xlink:href="#DejaVuSans-30"/>
       <use x="127.246094" xlink:href="#DejaVuSans-30"/>
      </g>
     </g>
    </g>
    <g id="text_7">
     <!-- Time (years) -->
     <defs>
      <path d="M -0.296875 72.90625 
L 61.375 72.90625 
L 61.375 64.59375 
L 35.5 64.59375 
L 35.5 0 
L 25.59375 0 
L 25.59375 64.59375 
L -0.296875 64.59375 
z
" id="DejaVuSans-54"/>
      <path d="M 9.421875 54.6875 
L 18.40625 54.6875 
L 18.40625 0 
L 9.421875 0 
z
M 9.421875 75.984375 
L 18.40625 75.984375 
L 18.40625 64.59375 
L 9.421875 64.59375 
z
" id="DejaVuSans-69"/>
      <path d="M 52 44.1875 
Q 55.375 50.25 60.0625 53.125 
Q 64.75 56 71.09375 56 
Q 79.640625 56 84.28125 50.015625 
Q 88.921875 44.046875 88.921875 33.015625 
L 88.921875 0 
L 79.890625 0 
L 79.890625 32.71875 
Q 79.890625 40.578125 77.09375 44.375 
Q 74.3125 48.1875 68.609375 48.1875 
Q 61.625 48.1875 57.5625 43.546875 
Q 53.515625 38.921875 53.515625 30.90625 
L 53.515625 0 
L 44.484375 0 
L 44.484375 32.71875 
Q 44.484375 40.625 41.703125 44.40625 
Q 38.921875 48.1875 33.109375 48.1875 
Q 26.21875 48.1875 22.15625 43.53125 
Q 18.109375 38.875 18.109375 30.90625 
L 18.109375 0 
L 9.078125 0 
L 9.078125 54.6875 
L 18.109375 54.6875 
L 18.109375 46.1875 
Q 21.1875 51.21875 25.484375 53.609375 
Q 29.78125 56 35.6875 56 
Q 41.65625 56 45.828125 52.96875 
Q 50 49.953125 52 44.1875 
z
" id="DejaVuSans-6d"/>
      <path d="M 56.203125 29.59375 
L 56.203125 25.203125 
L 14.890625 25.203125 
Q 15.484375 15.921875 20.484375 11.0625 
Q 25.484375 6.203125 34.421875 6.203125 
Q 39.59375 6.203125 44.453125 7.46875 
Q 49.3125 8.734375 54.109375 11.28125 
L 54.109375 2.78125 
Q 49.265625 0.734375 44.1875 -0.34375 
Q 39.109375 -1.421875 33.890625 -1.421875 
Q 20.796875 -1.421875 13.15625 6.1875 
Q 5.515625 13.8125 5.515625 26.8125 
Q 5.515625 40.234375 12.765625 48.109375 
Q 20.015625 56 32.328125 56 
Q 43.359375 56 49.78125 48.890625 
Q 56.203125 41.796875 56.203125 29.59375 
z
M 47.21875 32.234375 
Q 47.125 39.59375 43.09375 43.984375 
Q 39.0625 48.390625 32.421875 48.390625 
Q 24.90625 48.390625 20.390625 44.140625 
Q 15.875 39.890625 15.1875 32.171875 
z
" id="DejaVuSans-65"/>
      <path id="DejaVuSans-20"/>
      <path d="M 31 75.875 
Q 24.46875 64.65625 21.28125 53.65625 
Q 18.109375 42.671875 18.109375 31.390625 
Q 18.109375 20.125 21.3125 9.0625 
Q 24.515625 -2 31 -13.1875 
L 23.1875 -13.1875 
Q 15.875 -1.703125 12.234375 9.375 
Q 8.59375 20.453125 8.59375 31.390625 
Q 8.59375 42.28125 12.203125 53.3125 
Q 15.828125 64.359375 23.1875 75.875 
z
" id="DejaVuSans-28"/>
      <path d="M 32.171875 -5.078125 
Q 28.375 -14.84375 24.75 -17.8125 
Q 21.140625 -20.796875 15.09375 -20.796875 
L 7.90625 -20.796875 
L 7.90625 -13.28125 
L 13.1875 -13.28125 
Q 16.890625 -13.28125 18.9375 -11.515625 
Q 21 -9.765625 23.484375 -3.21875 
L 25.09375 0.875 
L 2.984375 54.6875 
L 12.5 54.6875 
L 29.59375 11.921875 
L 46.6875 54.6875 
L 56.203125 54.6875 
z
" id="DejaVuSans-79"/>
      <path d="M 34.28125 27.484375 
Q 23.390625 27.484375 19.1875 25 
Q 14.984375 22.515625 14.984375 16.5 
Q 14.984375 11.71875 18.140625 8.90625 
Q 21.296875 6.109375 26.703125 6.109375 
Q 34.1875 6.109375 38.703125 11.40625 
Q 43.21875 16.703125 43.21875 25.484375 
L 43.21875 27.484375 
z
M 52.203125 31.203125 
L 52.203125 0 
L 43.21875 0 
L 43.21875 8.296875 
Q 40.140625 3.328125 35.546875 0.953125 
Q 30.953125 -1.421875 24.3125 -1.421875 
Q 15.921875 -1.421875 10.953125 3.296875 
Q 6 8.015625 6 15.921875 
Q 6 25.140625 12.171875 29.828125 
Q 18.359375 34.515625 30.609375 34.515625 
L 43.21875 34.515625 
L 43.21875 35.40625 
Q 43.21875 41.609375 39.140625 45 
Q 35.0625 48.390625 27.6875 48.390625 
Q 23 48.390625 18.546875 47.265625 
Q 14.109375 46.140625 10.015625 43.890625 
L 10.015625 52.203125 
Q 14.9375 54.109375 19.578125 55.046875 
Q 24.21875 56 28.609375 56 
Q 40.484375 56 46.34375 49.84375 
Q 52.203125 43.703125 52.203125 31.203125 
z
" id="DejaVuSans-61"/>
      <path d="M 41.109375 46.296875 
Q 39.59375 47.171875 37.8125 47.578125 
Q 36.03125 48 33.890625 48 
Q 26.265625 48 22.1875 43.046875 
Q 18.109375 38.09375 18.109375 28.8125 
L 18.109375 0 
L 9.078125 0 
L 9.078125 54.6875 
L 18.109375 54.6875 
L 18.109375 46.1875 
Q 20.953125 51.171875 25.484375 53.578125 
Q 30.03125 56 36.53125 56 
Q 37.453125 56 38.578125 55.875 
Q 39.703125 55.765625 41.0625 55.515625 
z
" id="DejaVuSans-72"/>
      <path d="M 44.28125 53.078125 
L 44.28125 44.578125 
Q 40.484375 46.53125 36.375 47.5 
Q 32.28125 48.484375 27.875 48.484375 
Q 21.1875 48.484375 17.84375 46.4375 
Q 14.5 44.390625 14.5 40.28125 
Q 14.5 37.15625 16.890625 35.375 
Q 19.28125 33.59375 26.515625 31.984375 
L 29.59375 31.296875 
Q 39.15625 29.25 43.1875 25.515625 
Q 47.21875 21.78125 47.21875 15.09375 
Q 47.21875 7.46875 41.1875 3.015625 
Q 35.15625 -1.421875 24.609375 -1.421875 
Q 20.21875 -1.421875 15.453125 -0.5625 
Q 10.6875 0.296875 5.421875 2 
L 5.421875 11.28125 
Q 10.40625 8.6875 15.234375 7.390625 
Q 20.0625 6.109375 24.8125 6.109375 
Q 31.15625 6.109375 34.5625 8.28125 
Q 37.984375 10.453125 37.984375 14.40625 
Q 37.984375 18.0625 35.515625 20.015625 
Q 33.0625 21.96875 24.703125 23.78125 
L 21.578125 24.515625 
Q 13.234375 26.265625 9.515625 29.90625 
Q 5.8125 33.546875 5.8125 39.890625 
Q 5.8125 47.609375 11.28125 51.796875 
Q 16.75 56 26.8125 56 
Q 31.78125 56 36.171875 55.265625 
Q 40.578125 54.546875 44.28125 53.078125 
z
" id="DejaVuSans-73"/>
      <path d="M 8.015625 75.875 
L 15.828125 75.875 
Q 23.140625 64.359375 26.78125 53.3125 
Q 30.421875 42.28125 30.421875 31.390625 
Q 30.421875 20.453125 26.78125 9.375 
Q 23.140625 -1.703125 15.828125 -13.1875 
L 8.015625 -13.1875 
Q 14.5 -2 17.703125 9.0625 
Q 20.90625 20.125 20.90625 31.390625 
Q 20.90625 42.671875 17.703125 53.65625 
Q 14.5 64.65625 8.015625 75.875 
z
" id="DejaVuSans-29"/>
     </defs>
     <g style="fill:#262626;" transform="translate(205.78725 335.69525)scale(0.096 -0.096)">
      <use xlink:href="#DejaVuSans-54"/>
      <use x="61.037109" xlink:href="#DejaVuSans-69"/>
      <use x="88.820312" xlink:href="#DejaVuSans-6d"/>
      <use x="186.232422" xlink:href="#DejaVuSans-65"/>
      <use x="247.755859" xlink:href="#DejaVuSans-20"/>
      <use x="279.542969" xlink:href="#DejaVuSans-28"/>
      <use x="318.556641" xlink:href="#DejaVuSans-79"/>
      <use x="377.736328" xlink:href="#DejaVuSans-65"/>
      <use x="439.259766" xlink:href="#DejaVuSans-61"/>
      <use x="500.539062" xlink:href="#DejaVuSans-72"/>
      <use x="541.652344" xlink:href="#DejaVuSans-73"/>
      <use x="593.751953" xlink:href="#DejaVuSans-29"/>
     </g>
    </g>
   </g>
   <g id="matplotlib.axis_2">
    <g id="ytick_1">
     <g id="line2d_7">
      <defs>
       <path d="M 0 0 
L -4.8 0 
" id="ma2df4cfe73" style="stroke:#262626;"/>
      </defs>
      <g>
       <use style="fill:#262626;stroke:#262626;" x="57.6" xlink:href="#ma2df4cfe73" y="295.493836"/>
      </g>
     </g>
     <g id="text_8">
      <!-- $\mathdefault{10^{0}}$ -->
      <g style="fill:#262626;" transform="translate(33.812 298.837148)scale(0.088 -0.088)">
       <use transform="translate(0 0.765625)" xlink:href="#DejaVuSans-31"/>
       <use transform="translate(63.623047 0.765625)" xlink:href="#DejaVuSans-30"/>
       <use transform="translate(128.203125 39.046875)scale(0.7)" xlink:href="#DejaVuSans-30"/>
      </g>
     </g>
    </g>
    <g id="ytick_2">
     <g id="line2d_8">
      <g>
       <use style="fill:#262626;stroke:#262626;" x="57.6" xlink:href="#ma2df4cfe73" y="161.12593"/>
      </g>
     </g>
     <g id="text_9">
      <!-- $\mathdefault{10^{1}}$ -->
      <g style="fill:#262626;" transform="translate(33.812 164.469242)scale(0.088 -0.088)">
       <use transform="translate(0 0.684375)" xlink:href="#DejaVuSans-31"/>
       <use transform="translate(63.623047 0.684375)" xlink:href="#DejaVuSans-30"/>
       <use transform="translate(128.203125 38.965625)scale(0.7)" xlink:href="#DejaVuSans-31"/>
      </g>
     </g>
    </g>
    <g id="ytick_3">
     <g id="line2d_9">
      <defs>
       <path d="M 0 0 
L -3.2 0 
" id="m232ef0c745" style="stroke:#262626;stroke-width:0.8;"/>
      </defs>
      <g>
       <use style="fill:#262626;stroke:#262626;stroke-width:0.8;" x="57.6" xlink:href="#m232ef0c745" y="301.642174"/>
      </g>
     </g>
    </g>
    <g id="ytick_4">
     <g id="line2d_10">
      <g>
       <use style="fill:#262626;stroke:#262626;stroke-width:0.8;" x="57.6" xlink:href="#m232ef0c745" y="255.045066"/>
      </g>
     </g>
    </g>
    <g id="ytick_5">
     <g id="line2d_11">
      <g>
       <use style="fill:#262626;stroke:#262626;stroke-width:0.8;" x="57.6" xlink:href="#m232ef0c745" y="231.384052"/>
      </g>
     </g>
    </g>
    <g id="ytick_6">
     <g id="line2d_12">
      <g>
       <use style="fill:#262626;stroke:#262626;stroke-width:0.8;" x="57.6" xlink:href="#m232ef0c745" y="214.596295"/>
      </g>
     </g>
    </g>
    <g id="ytick_7">
     <g id="line2d_13">
      <g>
       <use style="fill:#262626;stroke:#262626;stroke-width:0.8;" x="57.6" xlink:href="#m232ef0c745" y="201.5747"/>
      </g>
     </g>
    </g>
    <g id="ytick_8">
     <g id="line2d_14">
      <g>
       <use style="fill:#262626;stroke:#262626;stroke-width:0.8;" x="57.6" xlink:href="#m232ef0c745" y="190.935282"/>
      </g>
     </g>
    </g>
    <g id="ytick_9">
     <g id="line2d_15">
      <g>
       <use style="fill:#262626;stroke:#262626;stroke-width:0.8;" x="57.6" xlink:href="#m232ef0c745" y="181.939782"/>
      </g>
     </g>
    </g>
    <g id="ytick_10">
     <g id="line2d_16">
      <g>
       <use style="fill:#262626;stroke:#262626;stroke-width:0.8;" x="57.6" xlink:href="#m232ef0c745" y="174.147525"/>
      </g>
     </g>
    </g>
    <g id="ytick_11">
     <g id="line2d_17">
      <g>
       <use style="fill:#262626;stroke:#262626;stroke-width:0.8;" x="57.6" xlink:href="#m232ef0c745" y="167.274268"/>
      </g>
     </g>
    </g>
    <g id="ytick_12">
     <g id="line2d_18">
      <g>
       <use style="fill:#262626;stroke:#262626;stroke-width:0.8;" x="57.6" xlink:href="#m232ef0c745" y="120.677159"/>
      </g>
     </g>
    </g>
    <g id="ytick_13">
     <g id="line2d_19">
      <g>
       <use style="fill:#262626;stroke:#262626;stroke-width:0.8;" x="57.6" xlink:href="#m232ef0c745" y="97.016146"/>
      </g>
     </g>
    </g>
    <g id="ytick_14">
     <g id="line2d_20">
      <g>
       <use style="fill:#262626;stroke:#262626;stroke-width:0.8;" x="57.6" xlink:href="#m232ef0c745" y="80.228389"/>
      </g>
     </g>
    </g>
    <g id="ytick_15">
     <g id="line2d_21">
      <g>
       <use style="fill:#262626;stroke:#262626;stroke-width:0.8;" x="57.6" xlink:href="#m232ef0c745" y="67.206794"/>
      </g>
     </g>
    </g>
    <g id="ytick_16">
     <g id="line2d_22">
      <g>
       <use style="fill:#262626;stroke:#262626;stroke-width:0.8;" x="57.6" xlink:href="#m232ef0c745" y="56.567375"/>
      </g>
     </g>
    </g>
    <g id="ytick_17">
     <g id="line2d_23">
      <g>
       <use style="fill:#262626;stroke:#262626;stroke-width:0.8;" x="57.6" xlink:href="#m232ef0c745" y="47.571876"/>
      </g>
     </g>
    </g>
    <g id="text_10">
     <!-- Crude incidence -->
     <defs>
      <path d="M 64.40625 67.28125 
L 64.40625 56.890625 
Q 59.421875 61.53125 53.78125 63.8125 
Q 48.140625 66.109375 41.796875 66.109375 
Q 29.296875 66.109375 22.65625 58.46875 
Q 16.015625 50.828125 16.015625 36.375 
Q 16.015625 21.96875 22.65625 14.328125 
Q 29.296875 6.6875 41.796875 6.6875 
Q 48.140625 6.6875 53.78125 8.984375 
Q 59.421875 11.28125 64.40625 15.921875 
L 64.40625 5.609375 
Q 59.234375 2.09375 53.4375 0.328125 
Q 47.65625 -1.421875 41.21875 -1.421875 
Q 24.65625 -1.421875 15.125 8.703125 
Q 5.609375 18.84375 5.609375 36.375 
Q 5.609375 53.953125 15.125 64.078125 
Q 24.65625 74.21875 41.21875 74.21875 
Q 47.75 74.21875 53.53125 72.484375 
Q 59.328125 70.75 64.40625 67.28125 
z
" id="DejaVuSans-43"/>
      <path d="M 8.5 21.578125 
L 8.5 54.6875 
L 17.484375 54.6875 
L 17.484375 21.921875 
Q 17.484375 14.15625 20.5 10.265625 
Q 23.53125 6.390625 29.59375 6.390625 
Q 36.859375 6.390625 41.078125 11.03125 
Q 45.3125 15.671875 45.3125 23.6875 
L 45.3125 54.6875 
L 54.296875 54.6875 
L 54.296875 0 
L 45.3125 0 
L 45.3125 8.40625 
Q 42.046875 3.421875 37.71875 1 
Q 33.40625 -1.421875 27.6875 -1.421875 
Q 18.265625 -1.421875 13.375 4.4375 
Q 8.5 10.296875 8.5 21.578125 
z
M 31.109375 56 
z
" id="DejaVuSans-75"/>
      <path d="M 45.40625 46.390625 
L 45.40625 75.984375 
L 54.390625 75.984375 
L 54.390625 0 
L 45.40625 0 
L 45.40625 8.203125 
Q 42.578125 3.328125 38.25 0.953125 
Q 33.9375 -1.421875 27.875 -1.421875 
Q 17.96875 -1.421875 11.734375 6.484375 
Q 5.515625 14.40625 5.515625 27.296875 
Q 5.515625 40.1875 11.734375 48.09375 
Q 17.96875 56 27.875 56 
Q 33.9375 56 38.25 53.625 
Q 42.578125 51.265625 45.40625 46.390625 
z
M 14.796875 27.296875 
Q 14.796875 17.390625 18.875 11.75 
Q 22.953125 6.109375 30.078125 6.109375 
Q 37.203125 6.109375 41.296875 11.75 
Q 45.40625 17.390625 45.40625 27.296875 
Q 45.40625 37.203125 41.296875 42.84375 
Q 37.203125 48.484375 30.078125 48.484375 
Q 22.953125 48.484375 18.875 42.84375 
Q 14.796875 37.203125 14.796875 27.296875 
z
" id="DejaVuSans-64"/>
      <path d="M 54.890625 33.015625 
L 54.890625 0 
L 45.90625 0 
L 45.90625 32.71875 
Q 45.90625 40.484375 42.875 44.328125 
Q 39.84375 48.1875 33.796875 48.1875 
Q 26.515625 48.1875 22.3125 43.546875 
Q 18.109375 38.921875 18.109375 30.90625 
L 18.109375 0 
L 9.078125 0 
L 9.078125 54.6875 
L 18.109375 54.6875 
L 18.109375 46.1875 
Q 21.34375 51.125 25.703125 53.5625 
Q 30.078125 56 35.796875 56 
Q 45.21875 56 50.046875 50.171875 
Q 54.890625 44.34375 54.890625 33.015625 
z
" id="DejaVuSans-6e"/>
      <path d="M 48.78125 52.59375 
L 48.78125 44.1875 
Q 44.96875 46.296875 41.140625 47.34375 
Q 37.3125 48.390625 33.40625 48.390625 
Q 24.65625 48.390625 19.8125 42.84375 
Q 14.984375 37.3125 14.984375 27.296875 
Q 14.984375 17.28125 19.8125 11.734375 
Q 24.65625 6.203125 33.40625 6.203125 
Q 37.3125 6.203125 41.140625 7.25 
Q 44.96875 8.296875 48.78125 10.40625 
L 48.78125 2.09375 
Q 45.015625 0.34375 40.984375 -0.53125 
Q 36.96875 -1.421875 32.421875 -1.421875 
Q 20.0625 -1.421875 12.78125 6.34375 
Q 5.515625 14.109375 5.515625 27.296875 
Q 5.515625 40.671875 12.859375 48.328125 
Q 20.21875 56 33.015625 56 
Q 37.15625 56 41.109375 55.140625 
Q 45.0625 54.296875 48.78125 52.59375 
z
" id="DejaVuSans-63"/>
     </defs>
     <g style="fill:#262626;" transform="translate(27.8155 213.405)rotate(-90)scale(0.096 -0.096)">
      <use xlink:href="#DejaVuSans-43"/>
      <use x="69.824219" xlink:href="#DejaVuSans-72"/>
      <use x="110.9375" xlink:href="#DejaVuSans-75"/>
      <use x="174.316406" xlink:href="#DejaVuSans-64"/>
      <use x="237.792969" xlink:href="#DejaVuSans-65"/>
      <use x="299.316406" xlink:href="#DejaVuSans-20"/>
      <use x="331.103516" xlink:href="#DejaVuSans-69"/>
      <use x="358.886719" xlink:href="#DejaVuSans-6e"/>
      <use x="422.265625" xlink:href="#DejaVuSans-63"/>
      <use x="477.246094" xlink:href="#DejaVuSans-69"/>
      <use x="505.029297" xlink:href="#DejaVuSans-64"/>
      <use x="568.505859" xlink:href="#DejaVuSans-65"/>
      <use x="630.029297" xlink:href="#DejaVuSans-6e"/>
      <use x="693.408203" xlink:href="#DejaVuSans-63"/>
      <use x="748.388672" xlink:href="#DejaVuSans-65"/>
     </g>
    </g>
   </g>
   <g id="line2d_24">
    <path clip-path="url(#p0a19f68e69)" d="M 306.664538 346.6 
L 306.665785 295.488 
L 306.667033 346.6 
M 349.294956 346.6 
L 349.29719 255.027556 
L 349.299424 346.6 
M 362.413298 346.6 
L 362.414545 295.470489 
L 365.693884 295.464651 
L 365.695132 346.6 
M 385.368669 346.6 
L 385.369917 295.458812 
L 385.371165 346.6 
M 391.927347 346.6 
L 391.928595 295.452973 
L 391.929843 346.6 
M 398.485038 346.6 
L 398.487273 254.992522 
" style="fill:none;stroke:#471365;stroke-linecap:round;stroke-width:1.2;"/>
   </g>
   <g id="line2d_25">
    <path clip-path="url(#p0a19f68e69)" d="M 300.10586 346.6 
L 300.107107 295.488 
L 300.108355 346.6 
M 329.619909 346.6 
L 329.621157 295.482164 
L 329.622405 346.6 
M 336.178587 346.6 
L 336.179835 295.476327 
L 339.459174 295.470489 
L 342.738512 295.464651 
L 346.017851 295.458812 
L 349.29719 254.998363 
L 349.299425 346.6 
M 355.853633 346.6 
L 355.855868 254.986681 
L 359.135207 254.974997 
L 359.137442 346.6 
M 365.692635 346.6 
L 365.693884 295.417925 
L 368.973223 295.412081 
L 368.974472 346.6 
M 375.529665 346.6 
L 375.531901 254.951622 
L 378.81124 201.452025 
L 382.090579 254.910694 
L 385.369917 231.232131 
L 388.649256 231.214576 
L 391.928595 214.403405 
L 395.207934 214.379981 
L 398.487273 214.356547 
" style="fill:none;stroke:#482374;stroke-linecap:round;stroke-width:1.2;"/>
   </g>
   <g id="line2d_26">
    <path clip-path="url(#p0a19f68e69)" d="M 277.150488 346.6 
L 277.151736 295.488 
L 277.152983 346.6 
M 300.104873 346.6 
L 300.107107 255.027556 
L 300.109342 346.6 
M 309.942313 346.6 
L 309.945124 231.349028 
L 313.224463 254.998363 
L 313.226698 346.6 
M 323.060244 346.6 
L 323.062479 254.986681 
L 326.341818 295.42961 
L 329.621157 295.423767 
L 332.900496 231.296453 
L 336.179835 295.400393 
L 339.459174 231.273071 
L 342.738512 214.461924 
L 346.017851 231.232131 
L 349.29719 190.748245 
L 352.576529 254.84632 
L 355.855868 173.901917 
L 359.135207 201.299784 
L 362.414545 231.091544 
L 365.693884 201.25286 
L 368.973223 231.044606 
L 372.252562 231.026995 
L 375.531901 160.71013 
L 378.81124 173.684688 
L 382.090579 201.082445 
L 385.369917 201.053013 
L 388.649256 160.545334 
L 391.928595 173.51976 
L 395.207934 181.270711 
L 398.487273 140.739243 
" style="fill:none;stroke:#46327e;stroke-linecap:round;stroke-width:1.2;"/>
   </g>
   <g id="line2d_27">
    <path clip-path="url(#p0a19f68e69)" d="M 247.636439 346.6 
L 247.637686 295.488 
L 247.638933 346.6 
M 273.871149 346.6 
L 273.872397 295.482164 
L 273.873644 346.6 
M 280.429827 346.6 
L 280.431074 295.476327 
L 283.710413 295.470489 
L 286.989752 214.549593 
L 290.269091 214.526227 
L 290.272312 346.6 
M 296.824547 346.6 
L 296.827769 214.502852 
L 300.107107 231.273071 
L 303.386446 201.434479 
L 303.389987 346.6 
M 309.943873 346.6 
L 309.945124 295.347765 
L 313.224463 231.220428 
L 316.503802 190.736536 
L 319.78314 214.374123 
L 323.062479 190.677952 
L 326.341818 155.242242 
L 329.621157 173.778724 
L 332.900496 181.529859 
L 336.179835 150.006026 
L 339.459174 149.935378 
L 342.738512 181.347397 
L 346.017851 173.507961 
L 349.29719 154.859583 
L 352.576529 126.014587 
L 355.855868 154.688045 
L 359.135207 144.862504 
L 362.414545 144.785342 
L 365.693884 149.384936 
L 368.973223 125.616783 
L 372.252562 149.206261 
L 375.531901 125.437779 
L 378.81124 154.11059 
L 382.090579 113.530052 
L 385.369917 148.829253 
L 388.649256 97.162855 
L 391.928595 143.905643 
L 395.207934 105.59467 
L 398.487273 127.997236 
" style="fill:none;stroke:#424086;stroke-linecap:round;stroke-width:1.2;"/>
   </g>
   <g id="line2d_28">
    <path clip-path="url(#p0a19f68e69)" d="M 231.239744 346.6 
L 231.240992 295.488 
L 231.242239 346.6 
M 254.195116 346.6 
L 254.196364 295.482164 
L 254.197611 346.6 
M 264.033132 346.6 
L 264.03438 295.476327 
L 267.313719 295.470489 
L 270.593058 255.010042 
L 273.872397 231.331508 
L 277.151736 231.313984 
L 280.431074 190.830148 
L 283.710413 214.467772 
L 286.989752 181.770306 
L 290.269091 231.197016 
L 293.54843 295.300945 
L 296.827769 201.352528 
L 300.107107 155.277438 
L 303.386446 141.122211 
L 306.665785 214.204 
L 309.945124 201.153022 
L 313.224463 136.955004 
L 316.503802 154.989379 
L 319.78314 166.646502 
L 323.062479 136.748604 
L 326.341818 119.842575 
L 329.621157 129.225687 
L 332.900496 140.472631 
L 336.179835 140.389436 
L 339.459174 128.958233 
L 342.738512 128.856876 
L 346.017851 128.755342 
L 349.29719 113.578002 
L 352.576529 110.846046 
L 355.855868 105.829962 
L 359.135207 99.047808 
L 362.414545 101.006785 
L 365.693884 96.660911 
L 368.973223 121.221311 
L 372.252562 90.605838 
L 375.531901 100.355241 
L 378.81124 112.171199 
L 382.090579 117.610168 
L 385.369917 99.931195 
L 388.649256 104.267871 
L 391.928595 91.522965 
L 395.207934 97.288528 
L 398.487273 116.798849 
" style="fill:none;stroke:#3d4e8a;stroke-linecap:round;stroke-width:1.2;"/>
   </g>
   <g id="line2d_29">
    <path clip-path="url(#p0a19f68e69)" d="M 214.842063 346.6 
L 214.844298 255.033393 
L 218.123636 295.476327 
L 221.402975 295.470489 
L 224.682314 295.464651 
L 227.961653 255.004203 
L 227.963888 346.6 
M 234.517519 346.6 
L 234.520331 231.325667 
L 237.799669 254.974997 
L 241.079008 254.963311 
L 244.358347 231.284764 
L 247.637686 201.446177 
L 250.917025 231.237981 
L 254.196364 231.220428 
L 257.475702 201.381809 
L 260.755041 295.29509 
L 264.03438 145.540684 
L 267.313719 254.758422 
L 270.593058 160.780614 
L 273.872397 181.553361 
L 277.151736 133.218269 
L 280.431074 181.418095 
L 283.710413 160.545334 
L 286.989752 173.51976 
L 290.269091 140.780606 
L 293.54843 140.69785 
L 296.827769 136.582956 
L 300.107107 136.494022 
L 303.386446 125.747705 
L 306.665785 116.627241 
L 309.945124 104.008983 
L 313.224463 140.049485 
L 316.503802 128.61769 
L 319.78314 110.84004 
L 323.062479 97.138764 
L 326.341818 128.202776 
L 329.621157 87.548466 
L 332.900496 92.750896 
L 336.179835 105.151686 
L 339.459174 94.329241 
L 342.738512 112.29382 
L 346.017851 117.733048 
L 349.29719 88.307296 
L 352.576529 81.402528 
L 355.855868 109.00361 
L 359.135207 79.467909 
L 362.414545 103.746062 
L 365.693884 90.999429 
L 368.973223 92.724765 
L 372.252562 86.95528 
L 375.531901 107.877146 
L 378.81124 83.154892 
L 382.090579 82.932465 
L 385.369917 79.45361 
L 388.649256 89.579924 
L 391.928595 91.300621 
L 395.207934 101.778917 
L 398.487273 87.16645 
" style="fill:none;stroke:#365c8d;stroke-linecap:round;stroke-width:1.2;"/>
   </g>
   <g id="line2d_30">
    <path clip-path="url(#p0a19f68e69)" d="M 218.122389 346.6 
L 218.123636 295.488 
L 221.402975 255.027556 
L 224.682314 214.555432 
L 227.961653 254.992522 
L 231.240992 254.98084 
L 234.520331 254.969154 
L 237.799669 231.290609 
L 241.079008 231.273071 
L 244.358347 167.110644 
L 247.637686 190.736536 
L 250.917025 167.022799 
L 254.196364 150.164672 
L 257.475702 155.17766 
L 260.755041 155.113007 
L 264.03438 173.649386 
L 267.313719 129.562711 
L 270.593058 140.810134 
L 273.872397 145.05792 
L 277.151736 104.45524 
L 280.431074 116.7938 
L 283.710413 113.948285 
L 286.989752 104.04481 
L 290.269091 111.061844 
L 293.54843 122.097124 
L 296.827769 108.320416 
L 300.107107 101.284668 
L 303.386446 93.035748 
L 306.665785 90.989254 
L 309.945124 102.948169 
L 313.224463 92.495165 
L 316.503802 120.946812 
L 319.78314 70.355756 
L 323.062479 78.466359 
L 326.341818 101.966767 
L 329.621157 93.430218 
L 332.900496 103.914296 
L 336.179835 84.061204 
L 339.459174 103.539782 
L 342.738512 71.622431 
L 346.017851 88.662656 
L 349.29719 90.319334 
L 352.576529 90.122649 
L 355.855868 95.883979 
L 359.135207 87.887371 
L 362.414545 112.332888 
L 365.693884 118.051327 
L 368.973223 89.284096 
L 372.252562 87.224711 
L 375.531901 99.173087 
L 378.81124 73.774509 
L 382.090579 90.366398 
L 385.369917 113.896468 
L 388.649256 96.20655 
L 391.928595 80.83215 
L 395.207934 71.327699 
L 398.487273 87.437008 
" style="fill:none;stroke:#31688e;stroke-linecap:round;stroke-width:1.2;"/>
   </g>
   <g id="line2d_31">
    <path clip-path="url(#p0a19f68e69)" d="M 191.887678 346.6 
L 191.888926 295.488 
L 191.890173 346.6 
M 198.446356 346.6 
L 198.447603 295.482164 
L 201.726942 295.476327 
L 205.006281 295.470489 
L 208.28562 295.464651 
L 211.564959 231.337349 
L 214.844298 254.986681 
L 218.123636 254.974997 
L 221.402975 181.828801 
L 224.682314 181.78786 
L 227.961653 190.748245 
L 231.240992 173.913636 
L 234.520331 173.866746 
L 237.799669 190.619309 
L 241.079008 141.092841 
L 244.358347 117.308311 
L 247.637686 129.539123 
L 250.917025 132.982443 
L 254.196364 140.691934 
L 257.475702 122.758803 
L 260.755041 119.646901 
L 264.03438 104.181941 
L 267.313719 106.321604 
L 270.593058 128.725445 
L 273.872397 110.94805 
L 277.151736 95.26275 
L 280.431074 89.502117 
L 283.710413 92.963152 
L 286.989752 90.916417 
L 290.269091 90.721737 
L 293.54843 82.023694 
L 296.827769 78.712584 
L 300.107107 78.472527 
L 303.386446 86.268842 
L 306.665785 87.806283 
L 309.945124 101.557081 
L 313.224463 95.003803 
L 316.503802 71.748115 
L 319.78314 96.606223 
L 323.062479 85.06173 
L 326.341818 75.324565 
L 329.621157 86.340642 
L 332.900496 84.381584 
L 336.179835 93.47813 
L 339.459174 89.387163 
L 342.738512 83.77746 
L 346.017851 85.305959 
L 349.29719 108.824152 
L 352.576529 90.529666 
L 355.855868 76.486794 
L 359.135207 103.145515 
L 362.414545 73.072886 
L 365.693884 74.292469 
L 368.973223 110.277339 
L 372.252562 99.936622 
L 375.531901 85.317507 
L 378.81124 83.30079 
L 382.090579 88.660973 
L 385.369917 71.60324 
L 388.649256 109.062609 
L 391.928595 96.422854 
L 395.207934 96.245731 
L 398.487273 111.419445 
" style="fill:none;stroke:#2c738e;stroke-linecap:round;stroke-width:1.2;"/>
   </g>
   <g id="line2d_32">
    <path clip-path="url(#p0a19f68e69)" d="M 188.607353 346.6 
L 188.609587 255.033393 
L 191.888926 255.021719 
L 195.168264 295.464651 
L 198.447603 231.337349 
L 201.726942 231.319826 
L 205.006281 231.302297 
L 208.28562 295.406237 
L 211.564959 174.013154 
L 214.844298 190.765806 
L 218.123636 190.73068 
L 221.402975 145.53482 
L 224.682314 181.617942 
L 227.961653 155.17766 
L 231.240992 133.218269 
L 234.520331 136.896107 
L 237.799669 104.64461 
L 241.079008 114.262966 
L 244.358347 119.706266 
L 247.637686 125.747705 
L 250.917025 90.180012 
L 254.196364 106.231979 
L 257.475702 113.560025 
L 260.755041 93.361318 
L 264.03438 87.766074 
L 267.313719 107.946613 
L 270.593058 85.717438 
L 273.872397 83.854573 
L 277.151736 85.284836 
L 280.431074 85.070396 
L 283.710413 88.301137 
L 286.989752 83.001402 
L 290.269091 95.43957 
L 293.54843 80.993016 
L 296.827769 91.124507 
L 300.107107 87.269594 
L 303.386446 81.965889 
L 306.665785 86.835396 
L 309.945124 75.356292 
L 313.224463 88.174537 
L 316.503802 84.419933 
L 319.78314 84.202285 
L 323.062479 68.873733 
L 326.341818 87.250586 
L 329.621157 94.861475 
L 332.900496 68.199623 
L 336.179835 92.338191 
L 339.459174 81.134987 
L 342.738512 96.101263 
L 346.017851 85.975619 
L 349.29719 78.863906 
L 352.576529 93.343279 
L 355.855868 95.285464 
L 359.135207 85.156841 
L 362.414545 104.273786 
L 365.693884 86.64642 
L 368.973223 92.396793 
L 372.252562 109.042261 
L 375.531901 111.753587 
L 378.81124 80.556998 
L 382.090579 89.640943 
L 385.369917 100.519573 
L 388.649256 102.84494 
L 391.928595 91.17268 
L 395.207934 93.108031 
L 398.487273 79.419567 
" style="fill:none;stroke:#277f8e;stroke-linecap:round;stroke-width:1.2;"/>
   </g>
   <g id="line2d_33">
    <path clip-path="url(#p0a19f68e69)" d="M 145.976934 346.6 
L 145.978182 295.488 
L 145.979429 346.6 
M 155.814951 346.6 
L 155.816198 295.482164 
L 155.817446 346.6 
M 175.490984 346.6 
L 175.492231 295.476327 
L 175.493479 346.6 
M 182.049661 346.6 
L 182.050909 295.470489 
L 182.052157 346.6 
M 188.606775 346.6 
L 188.609587 231.343189 
L 191.888926 231.325667 
L 195.168264 295.42961 
L 198.447603 231.302297 
L 201.726942 190.818454 
L 205.006281 190.78336 
L 208.28562 173.948779 
L 211.564959 133.406247 
L 214.844298 155.207024 
L 218.123636 141.051698 
L 221.402975 120.120135 
L 224.682314 126.162329 
L 227.961653 119.895827 
L 231.240992 102.22325 
L 234.520331 95.896728 
L 237.799669 83.437923 
L 241.079008 84.821442 
L 244.358347 101.447159 
L 247.637686 87.790203 
L 250.917025 72.478558 
L 254.196364 79.281073 
L 257.475702 70.656005 
L 260.755041 54.487318 
L 264.03438 60.418805 
L 267.313719 72.353873 
L 270.593058 77.808793 
L 273.872397 74.634081 
L 277.151736 66.368935 
L 280.431074 61.28052 
L 283.710413 81.377619 
L 286.989752 77.980428 
L 290.269091 66.536953 
L 293.54843 70.195955 
L 296.827769 77.163988 
L 300.107107 76.917462 
L 303.386446 75.147555 
L 306.665785 79.582925 
L 309.945124 98.402321 
L 313.224463 86.074688 
L 316.503802 78.963381 
L 319.78314 71.101799 
L 323.062479 87.210308 
L 326.341818 75.074824 
L 329.621157 81.336842 
L 332.900496 94.606946 
L 336.179835 90.240652 
L 339.459174 80.727418 
L 342.738512 82.244435 
L 346.017851 108.476462 
L 349.29719 120.690888 
L 352.576529 95.717998 
L 355.855868 102.713921 
L 359.135207 88.986537 
L 362.414545 92.969205 
L 365.693884 92.781265 
L 368.973223 79.091473 
L 372.252562 86.185008 
L 375.531901 80.39085 
L 378.81124 106.618235 
L 382.090579 101.14668 
L 385.369917 89.468705 
L 388.649256 98.29318 
L 391.928595 133.97819 
L 395.207934 91.133762 
L 398.487273 111.50325 
" style="fill:none;stroke:#238a8d;stroke-linecap:round;stroke-width:1.2;"/>
   </g>
   <g id="line2d_34">
    <path clip-path="url(#p0a19f68e69)" d="M 178.769336 346.6 
L 178.77157 255.033393 
L 182.050909 214.561272 
L 185.330248 214.537911 
L 188.609587 214.514541 
L 191.888926 181.817107 
L 195.168264 181.776158 
L 198.447603 155.336051 
L 201.726942 155.271573 
L 205.006281 160.774744 
L 208.28562 114.634825 
L 211.564959 133.124053 
L 214.844298 111.810913 
L 218.123636 87.103129 
L 221.402975 125.801179 
L 224.682314 83.533382 
L 227.961653 74.506727 
L 231.240992 72.901117 
L 234.520331 71.318414 
L 237.799669 72.363333 
L 241.079008 60.083777 
L 244.358347 53.568 
L 247.637686 59.383653 
L 250.917025 63.564991 
L 254.196364 68.144323 
L 257.475702 64.150847 
L 260.755041 74.294732 
L 264.03438 69.895854 
L 267.313719 75.203846 
L 270.593058 60.701386 
L 273.872397 74.622174 
L 277.151736 75.848527 
L 280.431074 83.635162 
L 283.710413 72.444265 
L 286.989752 94.516619 
L 290.269091 58.052096 
L 293.54843 79.273975 
L 296.827769 77.43073 
L 300.107107 74.099998 
L 303.386446 89.210549 
L 306.665785 87.089933 
L 309.945124 88.802212 
L 313.224463 76.31484 
L 316.503802 92.390026 
L 319.78314 88.160531 
L 323.062479 75.670399 
L 326.341818 105.857597 
L 329.621157 91.592727 
L 332.900496 80.028955 
L 336.179835 78.095771 
L 339.459174 86.883379 
L 342.738512 99.738126 
L 346.017851 92.676592 
L 349.29719 92.487706 
L 352.576529 92.298207 
L 355.855868 101.493129 
L 359.135207 94.155067 
L 362.414545 101.14668 
L 365.693884 100.983349 
L 368.973223 103.420684 
L 372.252562 118.34502 
L 375.531901 100.540775 
L 378.81124 118.058508 
L 382.090579 97.762674 
L 385.369917 84.524627 
L 388.649256 99.863307 
L 391.928595 110.874486 
L 395.207934 92.381695 
L 398.487273 117.051797 
" style="fill:none;stroke:#1f968b;stroke-linecap:round;stroke-width:1.2;"/>
   </g>
   <g id="patch_3">
    <path d="M 57.6 307.584 
L 57.6 41.472 
" style="fill:none;stroke:#262626;stroke-linecap:square;stroke-linejoin:miter;"/>
   </g>
   <g id="patch_4">
    <path d="M 414.72 307.584 
L 414.72 41.472 
" style="fill:none;stroke:#262626;stroke-linecap:square;stroke-linejoin:miter;"/>
   </g>
   <g id="patch_5">
    <path d="M 57.6 307.584 
L 414.72 307.584 
" style="fill:none;stroke:#262626;stroke-linecap:square;stroke-linejoin:miter;"/>
   </g>
   <g id="patch_6">
    <path d="M 57.6 41.472 
L 414.72 41.472 
" style="fill:none;stroke:#262626;stroke-linecap:square;stroke-linejoin:miter;"/>
   </g>
   <g id="legend_1">
    <g id="patch_7">
     <path d="M 63.76 204.28725 
L 117.11275 204.28725 
Q 118.87275 204.28725 118.87275 202.52725 
L 118.87275 47.632 
Q 118.87275 45.872 117.11275 45.872 
L 63.76 45.872 
Q 62 45.872 62 47.632 
L 62 202.52725 
Q 62 204.28725 63.76 204.28725 
z
" style="fill:#ffffff;opacity:0.8;stroke:#cccccc;stroke-linejoin:miter;stroke-width:0.8;"/>
    </g>
    <g id="text_11">
     <!-- log(n) -->
     <defs>
      <path d="M 9.421875 75.984375 
L 18.40625 75.984375 
L 18.40625 0 
L 9.421875 0 
z
" id="DejaVuSans-6c"/>
      <path d="M 30.609375 48.390625 
Q 23.390625 48.390625 19.1875 42.75 
Q 14.984375 37.109375 14.984375 27.296875 
Q 14.984375 17.484375 19.15625 11.84375 
Q 23.34375 6.203125 30.609375 6.203125 
Q 37.796875 6.203125 41.984375 11.859375 
Q 46.1875 17.53125 46.1875 27.296875 
Q 46.1875 37.015625 41.984375 42.703125 
Q 37.796875 48.390625 30.609375 48.390625 
z
M 30.609375 56 
Q 42.328125 56 49.015625 48.375 
Q 55.71875 40.765625 55.71875 27.296875 
Q 55.71875 13.875 49.015625 6.21875 
Q 42.328125 -1.421875 30.609375 -1.421875 
Q 18.84375 -1.421875 12.171875 6.21875 
Q 5.515625 13.875 5.515625 27.296875 
Q 5.515625 40.765625 12.171875 48.375 
Q 18.84375 56 30.609375 56 
z
" id="DejaVuSans-6f"/>
      <path d="M 45.40625 27.984375 
Q 45.40625 37.75 41.375 43.109375 
Q 37.359375 48.484375 30.078125 48.484375 
Q 22.859375 48.484375 18.828125 43.109375 
Q 14.796875 37.75 14.796875 27.984375 
Q 14.796875 18.265625 18.828125 12.890625 
Q 22.859375 7.515625 30.078125 7.515625 
Q 37.359375 7.515625 41.375 12.890625 
Q 45.40625 18.265625 45.40625 27.984375 
z
M 54.390625 6.78125 
Q 54.390625 -7.171875 48.1875 -13.984375 
Q 42 -20.796875 29.203125 -20.796875 
Q 24.46875 -20.796875 20.265625 -20.09375 
Q 16.0625 -19.390625 12.109375 -17.921875 
L 12.109375 -9.1875 
Q 16.0625 -11.328125 19.921875 -12.34375 
Q 23.78125 -13.375 27.78125 -13.375 
Q 36.625 -13.375 41.015625 -8.765625 
Q 45.40625 -4.15625 45.40625 5.171875 
L 45.40625 9.625 
Q 42.625 4.78125 38.28125 2.390625 
Q 33.9375 0 27.875 0 
Q 17.828125 0 11.671875 7.65625 
Q 5.515625 15.328125 5.515625 27.984375 
Q 5.515625 40.671875 11.671875 48.328125 
Q 17.828125 56 27.875 56 
Q 33.9375 56 38.28125 53.609375 
Q 42.625 51.21875 45.40625 46.390625 
L 45.40625 54.6875 
L 54.390625 54.6875 
z
" id="DejaVuSans-67"/>
     </defs>
     <g style="fill:#262626;" transform="translate(76.331125 56.6865)scale(0.096 -0.096)">
      <use xlink:href="#DejaVuSans-6c"/>
      <use x="27.783203" xlink:href="#DejaVuSans-6f"/>
      <use x="88.964844" xlink:href="#DejaVuSans-67"/>
      <use x="152.441406" xlink:href="#DejaVuSans-28"/>
      <use x="191.455078" xlink:href="#DejaVuSans-6e"/>
      <use x="254.833984" xlink:href="#DejaVuSans-29"/>
     </g>
    </g>
    <g id="line2d_35">
     <path d="M 65.52 66.689625 
L 83.12 66.689625 
" style="fill:none;stroke:#471365;stroke-linecap:round;stroke-width:1.2;"/>
    </g>
    <g id="line2d_36"/>
    <g id="text_12">
     <!-- 6.08 -->
     <defs>
      <path d="M 10.6875 12.40625 
L 21 12.40625 
L 21 0 
L 10.6875 0 
z
" id="DejaVuSans-2e"/>
     </defs>
     <g style="fill:#262626;" transform="translate(90.16 69.769625)scale(0.088 -0.088)">
      <use xlink:href="#DejaVuSans-36"/>
      <use x="63.623047" xlink:href="#DejaVuSans-2e"/>
      <use x="95.410156" xlink:href="#DejaVuSans-30"/>
      <use x="159.033203" xlink:href="#DejaVuSans-38"/>
     </g>
    </g>
    <g id="line2d_37">
     <path d="M 65.52 79.606375 
L 83.12 79.606375 
" style="fill:none;stroke:#482374;stroke-linecap:round;stroke-width:1.2;"/>
    </g>
    <g id="line2d_38"/>
    <g id="text_13">
     <!-- 6.51 -->
     <defs>
      <path d="M 10.796875 72.90625 
L 49.515625 72.90625 
L 49.515625 64.59375 
L 19.828125 64.59375 
L 19.828125 46.734375 
Q 21.96875 47.46875 24.109375 47.828125 
Q 26.265625 48.1875 28.421875 48.1875 
Q 40.625 48.1875 47.75 41.5 
Q 54.890625 34.8125 54.890625 23.390625 
Q 54.890625 11.625 47.5625 5.09375 
Q 40.234375 -1.421875 26.90625 -1.421875 
Q 22.3125 -1.421875 17.546875 -0.640625 
Q 12.796875 0.140625 7.71875 1.703125 
L 7.71875 11.625 
Q 12.109375 9.234375 16.796875 8.0625 
Q 21.484375 6.890625 26.703125 6.890625 
Q 35.15625 6.890625 40.078125 11.328125 
Q 45.015625 15.765625 45.015625 23.390625 
Q 45.015625 31 40.078125 35.4375 
Q 35.15625 39.890625 26.703125 39.890625 
Q 22.75 39.890625 18.8125 39.015625 
Q 14.890625 38.140625 10.796875 36.28125 
z
" id="DejaVuSans-35"/>
     </defs>
     <g style="fill:#262626;" transform="translate(90.16 82.686375)scale(0.088 -0.088)">
      <use xlink:href="#DejaVuSans-36"/>
      <use x="63.623047" xlink:href="#DejaVuSans-2e"/>
      <use x="95.410156" xlink:href="#DejaVuSans-35"/>
      <use x="159.033203" xlink:href="#DejaVuSans-31"/>
     </g>
    </g>
    <g id="line2d_39">
     <path d="M 65.52 92.523125 
L 83.12 92.523125 
" style="fill:none;stroke:#46327e;stroke-linecap:round;stroke-width:1.2;"/>
    </g>
    <g id="line2d_40"/>
    <g id="text_14">
     <!-- 6.95 -->
     <defs>
      <path d="M 10.984375 1.515625 
L 10.984375 10.5 
Q 14.703125 8.734375 18.5 7.8125 
Q 22.3125 6.890625 25.984375 6.890625 
Q 35.75 6.890625 40.890625 13.453125 
Q 46.046875 20.015625 46.78125 33.40625 
Q 43.953125 29.203125 39.59375 26.953125 
Q 35.25 24.703125 29.984375 24.703125 
Q 19.046875 24.703125 12.671875 31.3125 
Q 6.296875 37.9375 6.296875 49.421875 
Q 6.296875 60.640625 12.9375 67.421875 
Q 19.578125 74.21875 30.609375 74.21875 
Q 43.265625 74.21875 49.921875 64.515625 
Q 56.59375 54.828125 56.59375 36.375 
Q 56.59375 19.140625 48.40625 8.859375 
Q 40.234375 -1.421875 26.421875 -1.421875 
Q 22.703125 -1.421875 18.890625 -0.6875 
Q 15.09375 0.046875 10.984375 1.515625 
z
M 30.609375 32.421875 
Q 37.25 32.421875 41.125 36.953125 
Q 45.015625 41.5 45.015625 49.421875 
Q 45.015625 57.28125 41.125 61.84375 
Q 37.25 66.40625 30.609375 66.40625 
Q 23.96875 66.40625 20.09375 61.84375 
Q 16.21875 57.28125 16.21875 49.421875 
Q 16.21875 41.5 20.09375 36.953125 
Q 23.96875 32.421875 30.609375 32.421875 
z
" id="DejaVuSans-39"/>
     </defs>
     <g style="fill:#262626;" transform="translate(90.16 95.603125)scale(0.088 -0.088)">
      <use xlink:href="#DejaVuSans-36"/>
      <use x="63.623047" xlink:href="#DejaVuSans-2e"/>
      <use x="95.410156" xlink:href="#DejaVuSans-39"/>
      <use x="159.033203" xlink:href="#DejaVuSans-35"/>
     </g>
    </g>
    <g id="line2d_41">
     <path d="M 65.52 105.439875 
L 83.12 105.439875 
" style="fill:none;stroke:#424086;stroke-linecap:round;stroke-width:1.2;"/>
    </g>
    <g id="line2d_42"/>
    <g id="text_15">
     <!-- 7.38 -->
     <defs>
      <path d="M 8.203125 72.90625 
L 55.078125 72.90625 
L 55.078125 68.703125 
L 28.609375 0 
L 18.3125 0 
L 43.21875 64.59375 
L 8.203125 64.59375 
z
" id="DejaVuSans-37"/>
      <path d="M 40.578125 39.3125 
Q 47.65625 37.796875 51.625 33 
Q 55.609375 28.21875 55.609375 21.1875 
Q 55.609375 10.40625 48.1875 4.484375 
Q 40.765625 -1.421875 27.09375 -1.421875 
Q 22.515625 -1.421875 17.65625 -0.515625 
Q 12.796875 0.390625 7.625 2.203125 
L 7.625 11.71875 
Q 11.71875 9.328125 16.59375 8.109375 
Q 21.484375 6.890625 26.8125 6.890625 
Q 36.078125 6.890625 40.9375 10.546875 
Q 45.796875 14.203125 45.796875 21.1875 
Q 45.796875 27.640625 41.28125 31.265625 
Q 36.765625 34.90625 28.71875 34.90625 
L 20.21875 34.90625 
L 20.21875 43.015625 
L 29.109375 43.015625 
Q 36.375 43.015625 40.234375 45.921875 
Q 44.09375 48.828125 44.09375 54.296875 
Q 44.09375 59.90625 40.109375 62.90625 
Q 36.140625 65.921875 28.71875 65.921875 
Q 24.65625 65.921875 20.015625 65.03125 
Q 15.375 64.15625 9.8125 62.3125 
L 9.8125 71.09375 
Q 15.4375 72.65625 20.34375 73.4375 
Q 25.25 74.21875 29.59375 74.21875 
Q 40.828125 74.21875 47.359375 69.109375 
Q 53.90625 64.015625 53.90625 55.328125 
Q 53.90625 49.265625 50.4375 45.09375 
Q 46.96875 40.921875 40.578125 39.3125 
z
" id="DejaVuSans-33"/>
     </defs>
     <g style="fill:#262626;" transform="translate(90.16 108.519875)scale(0.088 -0.088)">
      <use xlink:href="#DejaVuSans-37"/>
      <use x="63.623047" xlink:href="#DejaVuSans-2e"/>
      <use x="95.410156" xlink:href="#DejaVuSans-33"/>
      <use x="159.033203" xlink:href="#DejaVuSans-38"/>
     </g>
    </g>
    <g id="line2d_43">
     <path d="M 65.52 118.356625 
L 83.12 118.356625 
" style="fill:none;stroke:#3d4e8a;stroke-linecap:round;stroke-width:1.2;"/>
    </g>
    <g id="line2d_44"/>
    <g id="text_16">
     <!-- 7.82 -->
     <g style="fill:#262626;" transform="translate(90.16 121.436625)scale(0.088 -0.088)">
      <use xlink:href="#DejaVuSans-37"/>
      <use x="63.623047" xlink:href="#DejaVuSans-2e"/>
      <use x="95.410156" xlink:href="#DejaVuSans-38"/>
      <use x="159.033203" xlink:href="#DejaVuSans-32"/>
     </g>
    </g>
    <g id="line2d_45">
     <path d="M 65.52 131.273375 
L 83.12 131.273375 
" style="fill:none;stroke:#365c8d;stroke-linecap:round;stroke-width:1.2;"/>
    </g>
    <g id="line2d_46"/>
    <g id="text_17">
     <!-- 8.25 -->
     <g style="fill:#262626;" transform="translate(90.16 134.353375)scale(0.088 -0.088)">
      <use xlink:href="#DejaVuSans-38"/>
      <use x="63.623047" xlink:href="#DejaVuSans-2e"/>
      <use x="95.410156" xlink:href="#DejaVuSans-32"/>
      <use x="159.033203" xlink:href="#DejaVuSans-35"/>
     </g>
    </g>
    <g id="line2d_47">
     <path d="M 65.52 144.190125 
L 83.12 144.190125 
" style="fill:none;stroke:#31688e;stroke-linecap:round;stroke-width:1.2;"/>
    </g>
    <g id="line2d_48"/>
    <g id="text_18">
     <!-- 8.69 -->
     <g style="fill:#262626;" transform="translate(90.16 147.270125)scale(0.088 -0.088)">
      <use xlink:href="#DejaVuSans-38"/>
      <use x="63.623047" xlink:href="#DejaVuSans-2e"/>
      <use x="95.410156" xlink:href="#DejaVuSans-36"/>
      <use x="159.033203" xlink:href="#DejaVuSans-39"/>
     </g>
    </g>
    <g id="line2d_49">
     <path d="M 65.52 157.106875 
L 83.12 157.106875 
" style="fill:none;stroke:#2c738e;stroke-linecap:round;stroke-width:1.2;"/>
    </g>
    <g id="line2d_50"/>
    <g id="text_19">
     <!-- 9.12 -->
     <g style="fill:#262626;" transform="translate(90.16 160.186875)scale(0.088 -0.088)">
      <use xlink:href="#DejaVuSans-39"/>
      <use x="63.623047" xlink:href="#DejaVuSans-2e"/>
      <use x="95.410156" xlink:href="#DejaVuSans-31"/>
      <use x="159.033203" xlink:href="#DejaVuSans-32"/>
     </g>
    </g>
    <g id="line2d_51">
     <path d="M 65.52 170.023625 
L 83.12 170.023625 
" style="fill:none;stroke:#277f8e;stroke-linecap:round;stroke-width:1.2;"/>
    </g>
    <g id="line2d_52"/>
    <g id="text_20">
     <!-- 9.55 -->
     <g style="fill:#262626;" transform="translate(90.16 173.103625)scale(0.088 -0.088)">
      <use xlink:href="#DejaVuSans-39"/>
      <use x="63.623047" xlink:href="#DejaVuSans-2e"/>
      <use x="95.410156" xlink:href="#DejaVuSans-35"/>
      <use x="159.033203" xlink:href="#DejaVuSans-35"/>
     </g>
    </g>
    <g id="line2d_53">
     <path d="M 65.52 182.940375 
L 83.12 182.940375 
" style="fill:none;stroke:#238a8d;stroke-linecap:round;stroke-width:1.2;"/>
    </g>
    <g id="line2d_54"/>
    <g id="text_21">
     <!-- 9.99 -->
     <g style="fill:#262626;" transform="translate(90.16 186.020375)scale(0.088 -0.088)">
      <use xlink:href="#DejaVuSans-39"/>
      <use x="63.623047" xlink:href="#DejaVuSans-2e"/>
      <use x="95.410156" xlink:href="#DejaVuSans-39"/>
      <use x="159.033203" xlink:href="#DejaVuSans-39"/>
     </g>
    </g>
    <g id="line2d_55">
     <path d="M 65.52 195.857125 
L 83.12 195.857125 
" style="fill:none;stroke:#1f968b;stroke-linecap:round;stroke-width:1.2;"/>
    </g>
    <g id="line2d_56"/>
    <g id="text_22">
     <!-- 10.42 -->
     <g style="fill:#262626;" transform="translate(90.16 198.937125)scale(0.088 -0.088)">
      <use xlink:href="#DejaVuSans-31"/>
      <use x="63.623047" xlink:href="#DejaVuSans-30"/>
      <use x="127.246094" xlink:href="#DejaVuSans-2e"/>
      <use x="159.033203" xlink:href="#DejaVuSans-34"/>
      <use x="222.65625" xlink:href="#DejaVuSans-32"/>
     </g>
    </g>
   </g>
  </g>
 </g>
 <defs>
  <clipPath id="p0a19f68e69">
   <rect height="266.112" width="357.12" x="57.6" y="41.472"/>
  </clipPath>
 </defs>
</svg>
