<?xml version="1.0" encoding="utf-8" standalone="no"?>
<!DOCTYPE svg PUBLIC "-//W3C//DTD SVG 1.1//EN"
  "http://www.w3.org/Graphics/SVG/1.1/DTD/svg11.dtd">
<!-- Created with matplotlib (http://matplotlib.org/) -->
<svg height="288pt" version="1.1" viewBox="0 0 432 288" width="432pt" xmlns="http://www.w3.org/2000/svg" xmlns:xlink="http://www.w3.org/1999/xlink">
 <defs>
  <style type="text/css">
*{stroke-linecap:butt;stroke-linejoin:round;}
  </style>
 </defs>
 <g id="figure_1">
  <g id="patch_1">
   <path d="M 0 288 
L 432 288 
L 432 0 
L 0 0 
z
" style="fill:#ffffff;"/>
  </g>
  <g id="axes_1">
   <g id="patch_2">
    <path d="M 54 252 
L 388.8 252 
L 388.8 34.56 
L 54 34.56 
z
" style="fill:#eaeaf2;"/>
   </g>
   <g id="matplotlib.axis_1">
    <g id="xtick_1">
     <g id="line2d_1">
      <path clip-path="url(#p07804656c9)" d="M 69.218182 252 
L 69.218182 34.56 
" style="fill:none;stroke:#ffffff;stroke-linecap:round;"/>
     </g>
     <g id="text_1">
      <!-- 0 -->
      <defs>
       <path d="M 31.78125 66.40625 
Q 24.171875 66.40625 20.328125 58.90625 
Q 16.5 51.421875 16.5 36.375 
Q 16.5 21.390625 20.328125 13.890625 
Q 24.171875 6.390625 31.78125 6.390625 
Q 39.453125 6.390625 43.28125 13.890625 
Q 47.125 21.390625 47.125 36.375 
Q 47.125 51.421875 43.28125 58.90625 
Q 39.453125 66.40625 31.78125 66.40625 
z
M 31.78125 74.21875 
Q 44.046875 74.21875 50.515625 64.515625 
Q 56.984375 54.828125 56.984375 36.375 
Q 56.984375 17.96875 50.515625 8.265625 
Q 44.046875 -1.421875 31.78125 -1.421875 
Q 19.53125 -1.421875 13.0625 8.265625 
Q 6.59375 17.96875 6.59375 36.375 
Q 6.59375 54.828125 13.0625 64.515625 
Q 19.53125 74.21875 31.78125 74.21875 
z
" id="DejaVuSans-30"/>
      </defs>
      <g style="fill:#262626;" transform="translate(65.718807 269.858281)scale(0.11 -0.11)">
       <use xlink:href="#DejaVuSans-30"/>
      </g>
     </g>
    </g>
    <g id="xtick_2">
     <g id="line2d_2">
      <path clip-path="url(#p07804656c9)" d="M 130.705785 252 
L 130.705785 34.56 
" style="fill:none;stroke:#ffffff;stroke-linecap:round;"/>
     </g>
     <g id="text_2">
      <!-- 20 -->
      <defs>
       <path d="M 19.1875 8.296875 
L 53.609375 8.296875 
L 53.609375 0 
L 7.328125 0 
L 7.328125 8.296875 
Q 12.9375 14.109375 22.625 23.890625 
Q 32.328125 33.6875 34.8125 36.53125 
Q 39.546875 41.84375 41.421875 45.53125 
Q 43.3125 49.21875 43.3125 52.78125 
Q 43.3125 58.59375 39.234375 62.25 
Q 35.15625 65.921875 28.609375 65.921875 
Q 23.96875 65.921875 18.8125 64.3125 
Q 13.671875 62.703125 7.8125 59.421875 
L 7.8125 69.390625 
Q 13.765625 71.78125 18.9375 73 
Q 24.125 74.21875 28.421875 74.21875 
Q 39.75 74.21875 46.484375 68.546875 
Q 53.21875 62.890625 53.21875 53.421875 
Q 53.21875 48.921875 51.53125 44.890625 
Q 49.859375 40.875 45.40625 35.40625 
Q 44.1875 33.984375 37.640625 27.21875 
Q 31.109375 20.453125 19.1875 8.296875 
z
" id="DejaVuSans-32"/>
      </defs>
      <g style="fill:#262626;" transform="translate(123.707035 269.858281)scale(0.11 -0.11)">
       <use xlink:href="#DejaVuSans-32"/>
       <use x="63.623047" xlink:href="#DejaVuSans-30"/>
      </g>
     </g>
    </g>
    <g id="xtick_3">
     <g id="line2d_3">
      <path clip-path="url(#p07804656c9)" d="M 192.193388 252 
L 192.193388 34.56 
" style="fill:none;stroke:#ffffff;stroke-linecap:round;"/>
     </g>
     <g id="text_3">
      <!-- 40 -->
      <defs>
       <path d="M 37.796875 64.3125 
L 12.890625 25.390625 
L 37.796875 25.390625 
z
M 35.203125 72.90625 
L 47.609375 72.90625 
L 47.609375 25.390625 
L 58.015625 25.390625 
L 58.015625 17.1875 
L 47.609375 17.1875 
L 47.609375 0 
L 37.796875 0 
L 37.796875 17.1875 
L 4.890625 17.1875 
L 4.890625 26.703125 
z
" id="DejaVuSans-34"/>
      </defs>
      <g style="fill:#262626;" transform="translate(185.194638 269.858281)scale(0.11 -0.11)">
       <use xlink:href="#DejaVuSans-34"/>
       <use x="63.623047" xlink:href="#DejaVuSans-30"/>
      </g>
     </g>
    </g>
    <g id="xtick_4">
     <g id="line2d_4">
      <path clip-path="url(#p07804656c9)" d="M 253.680992 252 
L 253.680992 34.56 
" style="fill:none;stroke:#ffffff;stroke-linecap:round;"/>
     </g>
     <g id="text_4">
      <!-- 60 -->
      <defs>
       <path d="M 33.015625 40.375 
Q 26.375 40.375 22.484375 35.828125 
Q 18.609375 31.296875 18.609375 23.390625 
Q 18.609375 15.53125 22.484375 10.953125 
Q 26.375 6.390625 33.015625 6.390625 
Q 39.65625 6.390625 43.53125 10.953125 
Q 47.40625 15.53125 47.40625 23.390625 
Q 47.40625 31.296875 43.53125 35.828125 
Q 39.65625 40.375 33.015625 40.375 
z
M 52.59375 71.296875 
L 52.59375 62.3125 
Q 48.875 64.0625 45.09375 64.984375 
Q 41.3125 65.921875 37.59375 65.921875 
Q 27.828125 65.921875 22.671875 59.328125 
Q 17.53125 52.734375 16.796875 39.40625 
Q 19.671875 43.65625 24.015625 45.921875 
Q 28.375 48.1875 33.59375 48.1875 
Q 44.578125 48.1875 50.953125 41.515625 
Q 57.328125 34.859375 57.328125 23.390625 
Q 57.328125 12.15625 50.6875 5.359375 
Q 44.046875 -1.421875 33.015625 -1.421875 
Q 20.359375 -1.421875 13.671875 8.265625 
Q 6.984375 17.96875 6.984375 36.375 
Q 6.984375 53.65625 15.1875 63.9375 
Q 23.390625 74.21875 37.203125 74.21875 
Q 40.921875 74.21875 44.703125 73.484375 
Q 48.484375 72.75 52.59375 71.296875 
z
" id="DejaVuSans-36"/>
      </defs>
      <g style="fill:#262626;" transform="translate(246.682242 269.858281)scale(0.11 -0.11)">
       <use xlink:href="#DejaVuSans-36"/>
       <use x="63.623047" xlink:href="#DejaVuSans-30"/>
      </g>
     </g>
    </g>
    <g id="xtick_5">
     <g id="line2d_5">
      <path clip-path="url(#p07804656c9)" d="M 315.168595 252 
L 315.168595 34.56 
" style="fill:none;stroke:#ffffff;stroke-linecap:round;"/>
     </g>
     <g id="text_5">
      <!-- 80 -->
      <defs>
       <path d="M 31.78125 34.625 
Q 24.75 34.625 20.71875 30.859375 
Q 16.703125 27.09375 16.703125 20.515625 
Q 16.703125 13.921875 20.71875 10.15625 
Q 24.75 6.390625 31.78125 6.390625 
Q 38.8125 6.390625 42.859375 10.171875 
Q 46.921875 13.96875 46.921875 20.515625 
Q 46.921875 27.09375 42.890625 30.859375 
Q 38.875 34.625 31.78125 34.625 
z
M 21.921875 38.8125 
Q 15.578125 40.375 12.03125 44.71875 
Q 8.5 49.078125 8.5 55.328125 
Q 8.5 64.0625 14.71875 69.140625 
Q 20.953125 74.21875 31.78125 74.21875 
Q 42.671875 74.21875 48.875 69.140625 
Q 55.078125 64.0625 55.078125 55.328125 
Q 55.078125 49.078125 51.53125 44.71875 
Q 48 40.375 41.703125 38.8125 
Q 48.828125 37.15625 52.796875 32.3125 
Q 56.78125 27.484375 56.78125 20.515625 
Q 56.78125 9.90625 50.3125 4.234375 
Q 43.84375 -1.421875 31.78125 -1.421875 
Q 19.734375 -1.421875 13.25 4.234375 
Q 6.78125 9.90625 6.78125 20.515625 
Q 6.78125 27.484375 10.78125 32.3125 
Q 14.796875 37.15625 21.921875 38.8125 
z
M 18.3125 54.390625 
Q 18.3125 48.734375 21.84375 45.5625 
Q 25.390625 42.390625 31.78125 42.390625 
Q 38.140625 42.390625 41.71875 45.5625 
Q 45.3125 48.734375 45.3125 54.390625 
Q 45.3125 60.0625 41.71875 63.234375 
Q 38.140625 66.40625 31.78125 66.40625 
Q 25.390625 66.40625 21.84375 63.234375 
Q 18.3125 60.0625 18.3125 54.390625 
z
" id="DejaVuSans-38"/>
      </defs>
      <g style="fill:#262626;" transform="translate(308.169845 269.858281)scale(0.11 -0.11)">
       <use xlink:href="#DejaVuSans-38"/>
       <use x="63.623047" xlink:href="#DejaVuSans-30"/>
      </g>
     </g>
    </g>
    <g id="xtick_6">
     <g id="line2d_6">
      <path clip-path="url(#p07804656c9)" d="M 376.656198 252 
L 376.656198 34.56 
" style="fill:none;stroke:#ffffff;stroke-linecap:round;"/>
     </g>
     <g id="text_6">
      <!-- 100 -->
      <defs>
       <path d="M 12.40625 8.296875 
L 28.515625 8.296875 
L 28.515625 63.921875 
L 10.984375 60.40625 
L 10.984375 69.390625 
L 28.421875 72.90625 
L 38.28125 72.90625 
L 38.28125 8.296875 
L 54.390625 8.296875 
L 54.390625 0 
L 12.40625 0 
z
" id="DejaVuSans-31"/>
      </defs>
      <g style="fill:#262626;" transform="translate(366.158073 269.858281)scale(0.11 -0.11)">
       <use xlink:href="#DejaVuSans-31"/>
       <use x="63.623047" xlink:href="#DejaVuSans-30"/>
       <use x="127.246094" xlink:href="#DejaVuSans-30"/>
      </g>
     </g>
    </g>
    <g id="text_7">
     <!-- Age -->
     <defs>
      <path d="M 34.1875 63.1875 
L 20.796875 26.90625 
L 47.609375 26.90625 
z
M 28.609375 72.90625 
L 39.796875 72.90625 
L 67.578125 0 
L 57.328125 0 
L 50.6875 18.703125 
L 17.828125 18.703125 
L 11.1875 0 
L 0.78125 0 
z
" id="DejaVuSans-41"/>
      <path d="M 45.40625 27.984375 
Q 45.40625 37.75 41.375 43.109375 
Q 37.359375 48.484375 30.078125 48.484375 
Q 22.859375 48.484375 18.828125 43.109375 
Q 14.796875 37.75 14.796875 27.984375 
Q 14.796875 18.265625 18.828125 12.890625 
Q 22.859375 7.515625 30.078125 7.515625 
Q 37.359375 7.515625 41.375 12.890625 
Q 45.40625 18.265625 45.40625 27.984375 
z
M 54.390625 6.78125 
Q 54.390625 -7.171875 48.1875 -13.984375 
Q 42 -20.796875 29.203125 -20.796875 
Q 24.46875 -20.796875 20.265625 -20.09375 
Q 16.0625 -19.390625 12.109375 -17.921875 
L 12.109375 -9.1875 
Q 16.0625 -11.328125 19.921875 -12.34375 
Q 23.78125 -13.375 27.78125 -13.375 
Q 36.625 -13.375 41.015625 -8.765625 
Q 45.40625 -4.15625 45.40625 5.171875 
L 45.40625 9.625 
Q 42.625 4.78125 38.28125 2.390625 
Q 33.9375 0 27.875 0 
Q 17.828125 0 11.671875 7.65625 
Q 5.515625 15.328125 5.515625 27.984375 
Q 5.515625 40.671875 11.671875 48.328125 
Q 17.828125 56 27.875 56 
Q 33.9375 56 38.28125 53.609375 
Q 42.625 51.21875 45.40625 46.390625 
L 45.40625 54.6875 
L 54.390625 54.6875 
z
" id="DejaVuSans-67"/>
      <path d="M 56.203125 29.59375 
L 56.203125 25.203125 
L 14.890625 25.203125 
Q 15.484375 15.921875 20.484375 11.0625 
Q 25.484375 6.203125 34.421875 6.203125 
Q 39.59375 6.203125 44.453125 7.46875 
Q 49.3125 8.734375 54.109375 11.28125 
L 54.109375 2.78125 
Q 49.265625 0.734375 44.1875 -0.34375 
Q 39.109375 -1.421875 33.890625 -1.421875 
Q 20.796875 -1.421875 13.15625 6.1875 
Q 5.515625 13.8125 5.515625 26.8125 
Q 5.515625 40.234375 12.765625 48.109375 
Q 20.015625 56 32.328125 56 
Q 43.359375 56 49.78125 48.890625 
Q 56.203125 41.796875 56.203125 29.59375 
z
M 47.21875 32.234375 
Q 47.125 39.59375 43.09375 43.984375 
Q 39.0625 48.390625 32.421875 48.390625 
Q 24.90625 48.390625 20.390625 44.140625 
Q 15.875 39.890625 15.1875 32.171875 
z
" id="DejaVuSans-65"/>
     </defs>
     <g style="fill:#262626;" transform="translate(209.794688 285.264063)scale(0.12 -0.12)">
      <use xlink:href="#DejaVuSans-41"/>
      <use x="68.408203" xlink:href="#DejaVuSans-67"/>
      <use x="131.884766" xlink:href="#DejaVuSans-65"/>
     </g>
    </g>
   </g>
   <g id="matplotlib.axis_2">
    <g id="ytick_1">
     <g id="line2d_7">
      <path clip-path="url(#p07804656c9)" d="M 54 242.116364 
L 388.8 242.116364 
" style="fill:none;stroke:#ffffff;stroke-linecap:round;"/>
     </g>
     <g id="text_8">
      <!-- 0 -->
      <g style="fill:#262626;" transform="translate(37.50125 246.295504)scale(0.11 -0.11)">
       <use xlink:href="#DejaVuSans-30"/>
      </g>
     </g>
    </g>
    <g id="ytick_2">
     <g id="line2d_8">
      <path clip-path="url(#p07804656c9)" d="M 54 217.554643 
L 388.8 217.554643 
" style="fill:none;stroke:#ffffff;stroke-linecap:round;"/>
     </g>
     <g id="text_9">
      <!-- 250 -->
      <defs>
       <path d="M 10.796875 72.90625 
L 49.515625 72.90625 
L 49.515625 64.59375 
L 19.828125 64.59375 
L 19.828125 46.734375 
Q 21.96875 47.46875 24.109375 47.828125 
Q 26.265625 48.1875 28.421875 48.1875 
Q 40.625 48.1875 47.75 41.5 
Q 54.890625 34.8125 54.890625 23.390625 
Q 54.890625 11.625 47.5625 5.09375 
Q 40.234375 -1.421875 26.90625 -1.421875 
Q 22.3125 -1.421875 17.546875 -0.640625 
Q 12.796875 0.140625 7.71875 1.703125 
L 7.71875 11.625 
Q 12.109375 9.234375 16.796875 8.0625 
Q 21.484375 6.890625 26.703125 6.890625 
Q 35.15625 6.890625 40.078125 11.328125 
Q 45.015625 15.765625 45.015625 23.390625 
Q 45.015625 31 40.078125 35.4375 
Q 35.15625 39.890625 26.703125 39.890625 
Q 22.75 39.890625 18.8125 39.015625 
Q 14.890625 38.140625 10.796875 36.28125 
z
" id="DejaVuSans-35"/>
      </defs>
      <g style="fill:#262626;" transform="translate(23.50375 221.733784)scale(0.11 -0.11)">
       <use xlink:href="#DejaVuSans-32"/>
       <use x="63.623047" xlink:href="#DejaVuSans-35"/>
       <use x="127.246094" xlink:href="#DejaVuSans-30"/>
      </g>
     </g>
    </g>
    <g id="ytick_3">
     <g id="line2d_9">
      <path clip-path="url(#p07804656c9)" d="M 54 192.992922 
L 388.8 192.992922 
" style="fill:none;stroke:#ffffff;stroke-linecap:round;"/>
     </g>
     <g id="text_10">
      <!-- 500 -->
      <g style="fill:#262626;" transform="translate(23.50375 197.172063)scale(0.11 -0.11)">
       <use xlink:href="#DejaVuSans-35"/>
       <use x="63.623047" xlink:href="#DejaVuSans-30"/>
       <use x="127.246094" xlink:href="#DejaVuSans-30"/>
      </g>
     </g>
    </g>
    <g id="ytick_4">
     <g id="line2d_10">
      <path clip-path="url(#p07804656c9)" d="M 54 168.431202 
L 388.8 168.431202 
" style="fill:none;stroke:#ffffff;stroke-linecap:round;"/>
     </g>
     <g id="text_11">
      <!-- 750 -->
      <defs>
       <path d="M 8.203125 72.90625 
L 55.078125 72.90625 
L 55.078125 68.703125 
L 28.609375 0 
L 18.3125 0 
L 43.21875 64.59375 
L 8.203125 64.59375 
z
" id="DejaVuSans-37"/>
      </defs>
      <g style="fill:#262626;" transform="translate(23.50375 172.610343)scale(0.11 -0.11)">
       <use xlink:href="#DejaVuSans-37"/>
       <use x="63.623047" xlink:href="#DejaVuSans-35"/>
       <use x="127.246094" xlink:href="#DejaVuSans-30"/>
      </g>
     </g>
    </g>
    <g id="ytick_5">
     <g id="line2d_11">
      <path clip-path="url(#p07804656c9)" d="M 54 143.869481 
L 388.8 143.869481 
" style="fill:none;stroke:#ffffff;stroke-linecap:round;"/>
     </g>
     <g id="text_12">
      <!-- 1000 -->
      <g style="fill:#262626;" transform="translate(16.505 148.048622)scale(0.11 -0.11)">
       <use xlink:href="#DejaVuSans-31"/>
       <use x="63.623047" xlink:href="#DejaVuSans-30"/>
       <use x="127.246094" xlink:href="#DejaVuSans-30"/>
       <use x="190.869141" xlink:href="#DejaVuSans-30"/>
      </g>
     </g>
    </g>
    <g id="ytick_6">
     <g id="line2d_12">
      <path clip-path="url(#p07804656c9)" d="M 54 119.307761 
L 388.8 119.307761 
" style="fill:none;stroke:#ffffff;stroke-linecap:round;"/>
     </g>
     <g id="text_13">
      <!-- 1250 -->
      <g style="fill:#262626;" transform="translate(16.505 123.486901)scale(0.11 -0.11)">
       <use xlink:href="#DejaVuSans-31"/>
       <use x="63.623047" xlink:href="#DejaVuSans-32"/>
       <use x="127.246094" xlink:href="#DejaVuSans-35"/>
       <use x="190.869141" xlink:href="#DejaVuSans-30"/>
      </g>
     </g>
    </g>
    <g id="ytick_7">
     <g id="line2d_13">
      <path clip-path="url(#p07804656c9)" d="M 54 94.74604 
L 388.8 94.74604 
" style="fill:none;stroke:#ffffff;stroke-linecap:round;"/>
     </g>
     <g id="text_14">
      <!-- 1500 -->
      <g style="fill:#262626;" transform="translate(16.505 98.925181)scale(0.11 -0.11)">
       <use xlink:href="#DejaVuSans-31"/>
       <use x="63.623047" xlink:href="#DejaVuSans-35"/>
       <use x="127.246094" xlink:href="#DejaVuSans-30"/>
       <use x="190.869141" xlink:href="#DejaVuSans-30"/>
      </g>
     </g>
    </g>
    <g id="ytick_8">
     <g id="line2d_14">
      <path clip-path="url(#p07804656c9)" d="M 54 70.18432 
L 388.8 70.18432 
" style="fill:none;stroke:#ffffff;stroke-linecap:round;"/>
     </g>
     <g id="text_15">
      <!-- 1750 -->
      <g style="fill:#262626;" transform="translate(16.505 74.36346)scale(0.11 -0.11)">
       <use xlink:href="#DejaVuSans-31"/>
       <use x="63.623047" xlink:href="#DejaVuSans-37"/>
       <use x="127.246094" xlink:href="#DejaVuSans-35"/>
       <use x="190.869141" xlink:href="#DejaVuSans-30"/>
      </g>
     </g>
    </g>
    <g id="ytick_9">
     <g id="line2d_15">
      <path clip-path="url(#p07804656c9)" d="M 54 45.622599 
L 388.8 45.622599 
" style="fill:none;stroke:#ffffff;stroke-linecap:round;"/>
     </g>
     <g id="text_16">
      <!-- 2000 -->
      <g style="fill:#262626;" transform="translate(16.505 49.80174)scale(0.11 -0.11)">
       <use xlink:href="#DejaVuSans-32"/>
       <use x="63.623047" xlink:href="#DejaVuSans-30"/>
       <use x="127.246094" xlink:href="#DejaVuSans-30"/>
       <use x="190.869141" xlink:href="#DejaVuSans-30"/>
      </g>
     </g>
    </g>
    <g id="text_17">
     <!-- Cumulative incidence -->
     <defs>
      <path d="M 64.40625 67.28125 
L 64.40625 56.890625 
Q 59.421875 61.53125 53.78125 63.8125 
Q 48.140625 66.109375 41.796875 66.109375 
Q 29.296875 66.109375 22.65625 58.46875 
Q 16.015625 50.828125 16.015625 36.375 
Q 16.015625 21.96875 22.65625 14.328125 
Q 29.296875 6.6875 41.796875 6.6875 
Q 48.140625 6.6875 53.78125 8.984375 
Q 59.421875 11.28125 64.40625 15.921875 
L 64.40625 5.609375 
Q 59.234375 2.09375 53.4375 0.328125 
Q 47.65625 -1.421875 41.21875 -1.421875 
Q 24.65625 -1.421875 15.125 8.703125 
Q 5.609375 18.84375 5.609375 36.375 
Q 5.609375 53.953125 15.125 64.078125 
Q 24.65625 74.21875 41.21875 74.21875 
Q 47.75 74.21875 53.53125 72.484375 
Q 59.328125 70.75 64.40625 67.28125 
z
" id="DejaVuSans-43"/>
      <path d="M 8.5 21.578125 
L 8.5 54.6875 
L 17.484375 54.6875 
L 17.484375 21.921875 
Q 17.484375 14.15625 20.5 10.265625 
Q 23.53125 6.390625 29.59375 6.390625 
Q 36.859375 6.390625 41.078125 11.03125 
Q 45.3125 15.671875 45.3125 23.6875 
L 45.3125 54.6875 
L 54.296875 54.6875 
L 54.296875 0 
L 45.3125 0 
L 45.3125 8.40625 
Q 42.046875 3.421875 37.71875 1 
Q 33.40625 -1.421875 27.6875 -1.421875 
Q 18.265625 -1.421875 13.375 4.4375 
Q 8.5 10.296875 8.5 21.578125 
z
M 31.109375 56 
z
" id="DejaVuSans-75"/>
      <path d="M 52 44.1875 
Q 55.375 50.25 60.0625 53.125 
Q 64.75 56 71.09375 56 
Q 79.640625 56 84.28125 50.015625 
Q 88.921875 44.046875 88.921875 33.015625 
L 88.921875 0 
L 79.890625 0 
L 79.890625 32.71875 
Q 79.890625 40.578125 77.09375 44.375 
Q 74.3125 48.1875 68.609375 48.1875 
Q 61.625 48.1875 57.5625 43.546875 
Q 53.515625 38.921875 53.515625 30.90625 
L 53.515625 0 
L 44.484375 0 
L 44.484375 32.71875 
Q 44.484375 40.625 41.703125 44.40625 
Q 38.921875 48.1875 33.109375 48.1875 
Q 26.21875 48.1875 22.15625 43.53125 
Q 18.109375 38.875 18.109375 30.90625 
L 18.109375 0 
L 9.078125 0 
L 9.078125 54.6875 
L 18.109375 54.6875 
L 18.109375 46.1875 
Q 21.1875 51.21875 25.484375 53.609375 
Q 29.78125 56 35.6875 56 
Q 41.65625 56 45.828125 52.96875 
Q 50 49.953125 52 44.1875 
z
" id="DejaVuSans-6d"/>
      <path d="M 9.421875 75.984375 
L 18.40625 75.984375 
L 18.40625 0 
L 9.421875 0 
z
" id="DejaVuSans-6c"/>
      <path d="M 34.28125 27.484375 
Q 23.390625 27.484375 19.1875 25 
Q 14.984375 22.515625 14.984375 16.5 
Q 14.984375 11.71875 18.140625 8.90625 
Q 21.296875 6.109375 26.703125 6.109375 
Q 34.1875 6.109375 38.703125 11.40625 
Q 43.21875 16.703125 43.21875 25.484375 
L 43.21875 27.484375 
z
M 52.203125 31.203125 
L 52.203125 0 
L 43.21875 0 
L 43.21875 8.296875 
Q 40.140625 3.328125 35.546875 0.953125 
Q 30.953125 -1.421875 24.3125 -1.421875 
Q 15.921875 -1.421875 10.953125 3.296875 
Q 6 8.015625 6 15.921875 
Q 6 25.140625 12.171875 29.828125 
Q 18.359375 34.515625 30.609375 34.515625 
L 43.21875 34.515625 
L 43.21875 35.40625 
Q 43.21875 41.609375 39.140625 45 
Q 35.0625 48.390625 27.6875 48.390625 
Q 23 48.390625 18.546875 47.265625 
Q 14.109375 46.140625 10.015625 43.890625 
L 10.015625 52.203125 
Q 14.9375 54.109375 19.578125 55.046875 
Q 24.21875 56 28.609375 56 
Q 40.484375 56 46.34375 49.84375 
Q 52.203125 43.703125 52.203125 31.203125 
z
" id="DejaVuSans-61"/>
      <path d="M 18.3125 70.21875 
L 18.3125 54.6875 
L 36.8125 54.6875 
L 36.8125 47.703125 
L 18.3125 47.703125 
L 18.3125 18.015625 
Q 18.3125 11.328125 20.140625 9.421875 
Q 21.96875 7.515625 27.59375 7.515625 
L 36.8125 7.515625 
L 36.8125 0 
L 27.59375 0 
Q 17.1875 0 13.234375 3.875 
Q 9.28125 7.765625 9.28125 18.015625 
L 9.28125 47.703125 
L 2.6875 47.703125 
L 2.6875 54.6875 
L 9.28125 54.6875 
L 9.28125 70.21875 
z
" id="DejaVuSans-74"/>
      <path d="M 9.421875 54.6875 
L 18.40625 54.6875 
L 18.40625 0 
L 9.421875 0 
z
M 9.421875 75.984375 
L 18.40625 75.984375 
L 18.40625 64.59375 
L 9.421875 64.59375 
z
" id="DejaVuSans-69"/>
      <path d="M 2.984375 54.6875 
L 12.5 54.6875 
L 29.59375 8.796875 
L 46.6875 54.6875 
L 56.203125 54.6875 
L 35.6875 0 
L 23.484375 0 
z
" id="DejaVuSans-76"/>
      <path id="DejaVuSans-20"/>
      <path d="M 54.890625 33.015625 
L 54.890625 0 
L 45.90625 0 
L 45.90625 32.71875 
Q 45.90625 40.484375 42.875 44.328125 
Q 39.84375 48.1875 33.796875 48.1875 
Q 26.515625 48.1875 22.3125 43.546875 
Q 18.109375 38.921875 18.109375 30.90625 
L 18.109375 0 
L 9.078125 0 
L 9.078125 54.6875 
L 18.109375 54.6875 
L 18.109375 46.1875 
Q 21.34375 51.125 25.703125 53.5625 
Q 30.078125 56 35.796875 56 
Q 45.21875 56 50.046875 50.171875 
Q 54.890625 44.34375 54.890625 33.015625 
z
" id="DejaVuSans-6e"/>
      <path d="M 48.78125 52.59375 
L 48.78125 44.1875 
Q 44.96875 46.296875 41.140625 47.34375 
Q 37.3125 48.390625 33.40625 48.390625 
Q 24.65625 48.390625 19.8125 42.84375 
Q 14.984375 37.3125 14.984375 27.296875 
Q 14.984375 17.28125 19.8125 11.734375 
Q 24.65625 6.203125 33.40625 6.203125 
Q 37.3125 6.203125 41.140625 7.25 
Q 44.96875 8.296875 48.78125 10.40625 
L 48.78125 2.09375 
Q 45.015625 0.34375 40.984375 -0.53125 
Q 36.96875 -1.421875 32.421875 -1.421875 
Q 20.0625 -1.421875 12.78125 6.34375 
Q 5.515625 14.109375 5.515625 27.296875 
Q 5.515625 40.671875 12.859375 48.328125 
Q 20.21875 56 33.015625 56 
Q 37.15625 56 41.109375 55.140625 
Q 45.0625 54.296875 48.78125 52.59375 
z
" id="DejaVuSans-63"/>
      <path d="M 45.40625 46.390625 
L 45.40625 75.984375 
L 54.390625 75.984375 
L 54.390625 0 
L 45.40625 0 
L 45.40625 8.203125 
Q 42.578125 3.328125 38.25 0.953125 
Q 33.9375 -1.421875 27.875 -1.421875 
Q 17.96875 -1.421875 11.734375 6.484375 
Q 5.515625 14.40625 5.515625 27.296875 
Q 5.515625 40.1875 11.734375 48.09375 
Q 17.96875 56 27.875 56 
Q 33.9375 56 38.25 53.625 
Q 42.578125 51.265625 45.40625 46.390625 
z
M 14.796875 27.296875 
Q 14.796875 17.390625 18.875 11.75 
Q 22.953125 6.109375 30.078125 6.109375 
Q 37.203125 6.109375 41.296875 11.75 
Q 45.40625 17.390625 45.40625 27.296875 
Q 45.40625 37.203125 41.296875 42.84375 
Q 37.203125 48.484375 30.078125 48.484375 
Q 22.953125 48.484375 18.875 42.84375 
Q 14.796875 37.203125 14.796875 27.296875 
z
" id="DejaVuSans-64"/>
     </defs>
     <g style="fill:#262626;" transform="translate(10.009375 208.161563)rotate(-90)scale(0.12 -0.12)">
      <use xlink:href="#DejaVuSans-43"/>
      <use x="69.824219" xlink:href="#DejaVuSans-75"/>
      <use x="133.203125" xlink:href="#DejaVuSans-6d"/>
      <use x="230.615234" xlink:href="#DejaVuSans-75"/>
      <use x="293.994141" xlink:href="#DejaVuSans-6c"/>
      <use x="321.777344" xlink:href="#DejaVuSans-61"/>
      <use x="383.056641" xlink:href="#DejaVuSans-74"/>
      <use x="422.265625" xlink:href="#DejaVuSans-69"/>
      <use x="450.048828" xlink:href="#DejaVuSans-76"/>
      <use x="509.228516" xlink:href="#DejaVuSans-65"/>
      <use x="570.751953" xlink:href="#DejaVuSans-20"/>
      <use x="602.539062" xlink:href="#DejaVuSans-69"/>
      <use x="630.322266" xlink:href="#DejaVuSans-6e"/>
      <use x="693.701172" xlink:href="#DejaVuSans-63"/>
      <use x="748.681641" xlink:href="#DejaVuSans-69"/>
      <use x="776.464844" xlink:href="#DejaVuSans-64"/>
      <use x="839.941406" xlink:href="#DejaVuSans-65"/>
      <use x="901.464844" xlink:href="#DejaVuSans-6e"/>
      <use x="964.84375" xlink:href="#DejaVuSans-63"/>
      <use x="1019.824219" xlink:href="#DejaVuSans-65"/>
     </g>
    </g>
   </g>
   <g id="line2d_16">
    <path clip-path="url(#p07804656c9)" d="M 69.218182 242.116364 
L 72.292562 242.116364 
L 75.366942 242.116364 
L 78.441322 242.116364 
L 81.515702 242.116364 
L 84.590083 242.116364 
L 87.664463 242.116364 
L 90.738843 242.116364 
L 93.813223 242.116364 
L 96.887603 242.116364 
L 99.961983 242.116364 
L 103.036364 242.116364 
L 106.110744 242.116364 
L 109.185124 242.116364 
L 112.259504 242.116364 
L 115.333884 242.116364 
L 118.408264 242.116364 
L 121.482645 242.116364 
L 124.557025 242.116364 
L 127.631405 242.116364 
L 130.705785 242.116364 
L 133.780165 242.116364 
L 136.854545 242.116364 
L 139.928926 242.116364 
L 143.003306 242.116364 
L 146.077686 242.116364 
L 149.152066 242.116364 
L 152.226446 242.116364 
L 155.300826 242.116364 
L 158.375207 242.116364 
L 161.449587 242.116364 
L 164.523967 242.116364 
L 167.598347 242.116364 
L 170.672727 242.116364 
L 173.747107 242.116364 
L 176.821488 242.116364 
L 179.895868 242.116364 
L 182.970248 242.116364 
L 186.044628 242.116364 
L 189.119008 242.116364 
L 192.193388 242.116364 
L 195.267769 242.116364 
L 198.342149 242.116364 
L 201.416529 242.116364 
L 204.490909 242.116364 
L 207.565289 242.116364 
L 210.639669 242.116364 
L 213.71405 242.116364 
L 216.78843 242.116364 
L 219.86281 242.116364 
L 222.93719 242.116364 
L 226.01157 242.116364 
L 229.08595 242.116364 
L 232.160331 242.116364 
L 235.234711 242.116364 
L 238.309091 242.116364 
L 241.383471 242.116364 
L 244.457851 242.116364 
L 247.532231 242.116364 
L 250.606612 242.116364 
L 253.680992 242.116364 
L 256.755372 242.116364 
L 259.829752 242.116364 
L 262.904132 242.116364 
L 265.978512 242.116364 
L 269.052893 242.116364 
L 272.127273 242.116364 
L 275.201653 242.116364 
L 278.276033 242.116364 
L 281.350413 242.116364 
L 284.424793 242.116364 
L 287.499174 242.018117 
L 290.573554 242.018117 
L 293.647934 242.018117 
L 296.722314 242.018117 
L 299.796694 242.018117 
L 302.871074 242.018117 
L 305.945455 242.018117 
L 309.019835 242.018117 
L 312.094215 242.018117 
L 315.168595 242.018117 
L 318.242975 242.018117 
L 321.317355 242.018117 
L 324.391736 242.018117 
L 327.466116 241.821623 
L 330.540496 241.821623 
L 333.614876 241.821623 
L 336.689256 241.821623 
L 339.763636 241.723376 
L 342.838017 241.625129 
L 345.912397 241.625129 
L 348.986777 241.625129 
L 352.061157 241.625129 
L 355.135537 241.625129 
L 358.209917 241.625129 
L 361.284298 241.526882 
L 364.358678 241.526882 
L 367.433058 241.428635 
L 370.507438 241.428635 
L 373.581818 241.232142 
" style="fill:none;stroke:#4c72b0;stroke-linecap:round;stroke-width:1.5;"/>
   </g>
   <g id="line2d_17">
    <path clip-path="url(#p07804656c9)" d="M 69.218182 242.116364 
L 72.292562 242.116364 
L 75.366942 242.116364 
L 78.441322 242.116364 
L 81.515702 242.116364 
L 84.590083 242.116364 
L 87.664463 242.116364 
L 90.738843 242.116364 
L 93.813223 242.116364 
L 96.887603 242.116364 
L 99.961983 242.116364 
L 103.036364 242.116364 
L 106.110744 242.116364 
L 109.185124 242.116364 
L 112.259504 242.116364 
L 115.333884 242.116364 
L 118.408264 242.116364 
L 121.482645 242.116364 
L 124.557025 242.116364 
L 127.631405 242.116364 
L 130.705785 242.116364 
L 133.780165 242.116364 
L 136.854545 242.116364 
L 139.928926 242.116364 
L 143.003306 242.116364 
L 146.077686 242.116364 
L 149.152066 242.116364 
L 152.226446 242.116364 
L 155.300826 242.116364 
L 158.375207 242.116364 
L 161.449587 242.116364 
L 164.523967 242.116364 
L 167.598347 242.116364 
L 170.672727 242.116364 
L 173.747107 242.116364 
L 176.821488 242.116364 
L 179.895868 242.116364 
L 182.970248 242.116364 
L 186.044628 242.116364 
L 189.119008 242.116364 
L 192.193388 242.116364 
L 195.267769 242.116364 
L 198.342149 242.116364 
L 201.416529 242.116364 
L 204.490909 242.116364 
L 207.565289 242.116364 
L 210.639669 242.116364 
L 213.71405 242.116364 
L 216.78843 242.116364 
L 219.86281 242.116364 
L 222.93719 242.116364 
L 226.01157 242.116364 
L 229.08595 242.116364 
L 232.160331 242.116364 
L 235.234711 242.116364 
L 238.309091 242.116364 
L 241.383471 242.116364 
L 244.457851 242.116364 
L 247.532231 242.116364 
L 250.606612 242.116364 
L 253.680992 242.116364 
L 256.755372 242.116364 
L 259.829752 242.116364 
L 262.904132 242.116364 
L 265.978512 242.116364 
L 269.052893 242.116364 
L 272.127273 242.116364 
L 275.201653 242.116364 
L 278.276033 242.116364 
L 281.350413 242.018117 
L 284.424793 242.018117 
L 287.499174 242.018117 
L 290.573554 242.018117 
L 293.647934 242.018117 
L 296.722314 242.018117 
L 299.796694 242.018117 
L 302.871074 242.018117 
L 305.945455 242.018117 
L 309.019835 241.91987 
L 312.094215 241.91987 
L 315.168595 241.821623 
L 318.242975 241.723376 
L 321.317355 241.625129 
L 324.391736 241.526882 
L 327.466116 241.330389 
L 330.540496 241.330389 
L 333.614876 241.133895 
L 336.689256 240.937401 
L 339.763636 240.937401 
L 342.838017 240.839154 
L 345.912397 240.740907 
L 348.986777 240.740907 
L 352.061157 240.544414 
L 355.135537 240.053179 
L 358.209917 239.856685 
L 361.284298 239.561945 
L 364.358678 239.267204 
L 367.433058 238.874217 
L 370.507438 238.481229 
L 373.581818 238.088241 
" style="fill:none;stroke:#dd8452;stroke-linecap:round;stroke-width:1.5;"/>
   </g>
   <g id="line2d_18">
    <path clip-path="url(#p07804656c9)" d="M 69.218182 242.116364 
L 72.292562 242.116364 
L 75.366942 242.116364 
L 78.441322 242.116364 
L 81.515702 242.116364 
L 84.590083 242.116364 
L 87.664463 242.116364 
L 90.738843 242.116364 
L 93.813223 242.116364 
L 96.887603 242.116364 
L 99.961983 242.116364 
L 103.036364 242.116364 
L 106.110744 242.116364 
L 109.185124 242.116364 
L 112.259504 242.116364 
L 115.333884 242.116364 
L 118.408264 242.116364 
L 121.482645 242.116364 
L 124.557025 242.116364 
L 127.631405 242.116364 
L 130.705785 242.116364 
L 133.780165 242.116364 
L 136.854545 242.116364 
L 139.928926 242.116364 
L 143.003306 242.116364 
L 146.077686 242.116364 
L 149.152066 242.116364 
L 152.226446 242.116364 
L 155.300826 242.116364 
L 158.375207 242.116364 
L 161.449587 242.116364 
L 164.523967 242.116364 
L 167.598347 242.116364 
L 170.672727 242.116364 
L 173.747107 242.116364 
L 176.821488 242.116364 
L 179.895868 242.116364 
L 182.970248 242.116364 
L 186.044628 242.116364 
L 189.119008 242.116364 
L 192.193388 242.116364 
L 195.267769 242.116364 
L 198.342149 242.116364 
L 201.416529 242.116364 
L 204.490909 242.116364 
L 207.565289 242.116364 
L 210.639669 242.116364 
L 213.71405 242.116364 
L 216.78843 242.116364 
L 219.86281 242.116364 
L 222.93719 242.116364 
L 226.01157 242.116364 
L 229.08595 242.116364 
L 232.160331 242.116364 
L 235.234711 242.116364 
L 238.309091 242.116364 
L 241.383471 242.116364 
L 244.457851 242.116364 
L 247.532231 242.116364 
L 250.606612 242.116364 
L 253.680992 242.116364 
L 256.755372 242.116364 
L 259.829752 242.018117 
L 262.904132 242.018117 
L 265.978512 242.018117 
L 269.052893 242.018117 
L 272.127273 242.018117 
L 275.201653 242.018117 
L 278.276033 242.018117 
L 281.350413 241.821623 
L 284.424793 241.821623 
L 287.499174 241.821623 
L 290.573554 241.526882 
L 293.647934 241.330389 
L 296.722314 241.330389 
L 299.796694 241.330389 
L 302.871074 241.133895 
L 305.945455 241.035648 
L 309.019835 240.937401 
L 312.094215 240.64266 
L 315.168595 240.544414 
L 318.242975 240.249673 
L 321.317355 239.856685 
L 324.391736 239.561945 
L 327.466116 238.972463 
L 330.540496 238.77597 
L 333.614876 237.989995 
L 336.689256 237.49876 
L 339.763636 237.20402 
L 342.838017 236.712785 
L 345.912397 236.418044 
L 348.986777 236.123304 
L 352.061157 235.140835 
L 355.135537 234.35486 
L 358.209917 233.863626 
L 361.284298 233.372391 
L 364.358678 232.389922 
L 367.433058 231.603947 
L 370.507438 230.916219 
L 373.581818 229.540763 
" style="fill:none;stroke:#55a868;stroke-linecap:round;stroke-width:1.5;"/>
   </g>
   <g id="line2d_19">
    <path clip-path="url(#p07804656c9)" d="M 69.218182 242.116364 
L 72.292562 242.116364 
L 75.366942 242.116364 
L 78.441322 242.116364 
L 81.515702 242.116364 
L 84.590083 242.116364 
L 87.664463 242.116364 
L 90.738843 242.116364 
L 93.813223 242.116364 
L 96.887603 242.116364 
L 99.961983 242.116364 
L 103.036364 242.116364 
L 106.110744 242.116364 
L 109.185124 242.116364 
L 112.259504 242.116364 
L 115.333884 242.116364 
L 118.408264 242.116364 
L 121.482645 242.116364 
L 124.557025 242.116364 
L 127.631405 242.116364 
L 130.705785 242.116364 
L 133.780165 242.116364 
L 136.854545 242.116364 
L 139.928926 242.116364 
L 143.003306 242.116364 
L 146.077686 242.116364 
L 149.152066 242.116364 
L 152.226446 242.116364 
L 155.300826 242.116364 
L 158.375207 242.116364 
L 161.449587 242.116364 
L 164.523967 242.116364 
L 167.598347 242.116364 
L 170.672727 242.116364 
L 173.747107 242.116364 
L 176.821488 242.116364 
L 179.895868 242.116364 
L 182.970248 242.116364 
L 186.044628 242.116364 
L 189.119008 242.116364 
L 192.193388 242.116364 
L 195.267769 242.116364 
L 198.342149 242.116364 
L 201.416529 242.116364 
L 204.490909 242.116364 
L 207.565289 242.116364 
L 210.639669 242.116364 
L 213.71405 242.116364 
L 216.78843 242.116364 
L 219.86281 242.116364 
L 222.93719 242.116364 
L 226.01157 242.116364 
L 229.08595 242.116364 
L 232.160331 242.018117 
L 235.234711 242.018117 
L 238.309091 242.018117 
L 241.383471 242.018117 
L 244.457851 242.018117 
L 247.532231 242.018117 
L 250.606612 242.018117 
L 253.680992 242.018117 
L 256.755372 241.91987 
L 259.829752 241.91987 
L 262.904132 241.821623 
L 265.978512 241.723376 
L 269.052893 241.330389 
L 272.127273 240.937401 
L 275.201653 240.937401 
L 278.276033 240.544414 
L 281.350413 240.249673 
L 284.424793 239.758438 
L 287.499174 239.758438 
L 290.573554 239.660192 
L 293.647934 239.365451 
L 296.722314 238.77597 
L 299.796694 238.382982 
L 302.871074 237.793501 
L 305.945455 236.712785 
L 309.019835 235.92681 
L 312.094215 235.239082 
L 315.168595 234.060119 
L 318.242975 232.881157 
L 321.317355 232.193429 
L 324.391736 231.407453 
L 327.466116 230.326738 
L 330.540496 228.558294 
L 333.614876 227.477578 
L 336.689256 226.200369 
L 339.763636 224.923159 
L 342.838017 223.744197 
L 345.912397 221.975753 
L 348.986777 220.79679 
L 352.061157 219.028346 
L 355.135537 217.947631 
L 358.209917 215.786199 
L 361.284298 214.607237 
L 364.358678 211.758077 
L 367.433058 210.480868 
L 370.507438 208.024695 
L 373.581818 206.354498 
" style="fill:none;stroke:#c44e52;stroke-linecap:round;stroke-width:1.5;"/>
   </g>
   <g id="line2d_20">
    <path clip-path="url(#p07804656c9)" d="M 69.218182 242.116364 
L 72.292562 242.116364 
L 75.366942 242.116364 
L 78.441322 242.116364 
L 81.515702 242.116364 
L 84.590083 242.116364 
L 87.664463 242.116364 
L 90.738843 242.116364 
L 93.813223 242.116364 
L 96.887603 242.116364 
L 99.961983 242.116364 
L 103.036364 242.116364 
L 106.110744 242.116364 
L 109.185124 242.116364 
L 112.259504 242.116364 
L 115.333884 242.116364 
L 118.408264 242.116364 
L 121.482645 242.116364 
L 124.557025 242.116364 
L 127.631405 242.116364 
L 130.705785 242.116364 
L 133.780165 242.116364 
L 136.854545 242.116364 
L 139.928926 242.116364 
L 143.003306 242.116364 
L 146.077686 242.116364 
L 149.152066 242.116364 
L 152.226446 242.116364 
L 155.300826 242.116364 
L 158.375207 242.116364 
L 161.449587 242.116364 
L 164.523967 242.116364 
L 167.598347 242.116364 
L 170.672727 242.116364 
L 173.747107 242.116364 
L 176.821488 242.116364 
L 179.895868 242.116364 
L 182.970248 242.116364 
L 186.044628 242.116364 
L 189.119008 242.116364 
L 192.193388 242.116364 
L 195.267769 242.116364 
L 198.342149 242.116364 
L 201.416529 242.116364 
L 204.490909 242.116364 
L 207.565289 242.116364 
L 210.639669 242.116364 
L 213.71405 242.116364 
L 216.78843 242.018117 
L 219.86281 242.018117 
L 222.93719 242.018117 
L 226.01157 242.018117 
L 229.08595 242.018117 
L 232.160331 242.018117 
L 235.234711 242.018117 
L 238.309091 241.91987 
L 241.383471 241.91987 
L 244.457851 241.91987 
L 247.532231 241.821623 
L 250.606612 241.723376 
L 253.680992 241.526882 
L 256.755372 241.232142 
L 259.829752 240.937401 
L 262.904132 240.34792 
L 265.978512 239.954932 
L 269.052893 239.267204 
L 272.127273 238.972463 
L 275.201653 238.874217 
L 278.276033 238.382982 
L 281.350413 237.302266 
L 284.424793 235.92681 
L 287.499174 235.533823 
L 290.573554 235.042588 
L 293.647934 233.568885 
L 296.722314 232.488169 
L 299.796694 231.603947 
L 302.871074 230.130244 
L 305.945455 228.165306 
L 309.019835 226.495109 
L 312.094215 225.119653 
L 315.168595 223.744197 
L 318.242975 222.074 
L 321.317355 220.403803 
L 324.391736 218.733606 
L 327.466116 216.572174 
L 330.540496 214.312496 
L 333.614876 211.856324 
L 336.689256 209.105411 
L 339.763636 206.452745 
L 342.838017 203.603586 
L 345.912397 201.736895 
L 348.986777 198.592995 
L 352.061157 195.940329 
L 355.135537 193.778898 
L 358.209917 191.81396 
L 361.284298 189.161294 
L 364.358678 186.705122 
L 367.433058 183.659469 
L 370.507438 180.908556 
L 373.581818 178.943618 
" style="fill:none;stroke:#8172b3;stroke-linecap:round;stroke-width:1.5;"/>
   </g>
   <g id="line2d_21">
    <path clip-path="url(#p07804656c9)" d="M 69.218182 242.116364 
L 72.292562 242.116364 
L 75.366942 242.116364 
L 78.441322 242.116364 
L 81.515702 242.116364 
L 84.590083 242.116364 
L 87.664463 242.116364 
L 90.738843 242.116364 
L 93.813223 242.116364 
L 96.887603 242.116364 
L 99.961983 242.116364 
L 103.036364 242.116364 
L 106.110744 242.116364 
L 109.185124 242.116364 
L 112.259504 242.116364 
L 115.333884 242.116364 
L 118.408264 242.116364 
L 121.482645 242.116364 
L 124.557025 242.116364 
L 127.631405 242.116364 
L 130.705785 242.116364 
L 133.780165 242.116364 
L 136.854545 242.116364 
L 139.928926 242.116364 
L 143.003306 242.116364 
L 146.077686 242.116364 
L 149.152066 242.116364 
L 152.226446 242.116364 
L 155.300826 242.116364 
L 158.375207 242.116364 
L 161.449587 242.116364 
L 164.523967 242.116364 
L 167.598347 242.116364 
L 170.672727 242.116364 
L 173.747107 242.116364 
L 176.821488 242.116364 
L 179.895868 242.116364 
L 182.970248 242.116364 
L 186.044628 242.116364 
L 189.119008 242.116364 
L 192.193388 242.116364 
L 195.267769 242.116364 
L 198.342149 242.116364 
L 201.416529 241.91987 
L 204.490909 241.821623 
L 207.565289 241.723376 
L 210.639669 241.625129 
L 213.71405 241.428635 
L 216.78843 241.428635 
L 219.86281 241.133895 
L 222.93719 240.937401 
L 226.01157 240.740907 
L 229.08595 240.446167 
L 232.160331 239.954932 
L 235.234711 239.660192 
L 238.309091 239.365451 
L 241.383471 238.874217 
L 244.457851 238.77597 
L 247.532231 237.49876 
L 250.606612 237.302266 
L 253.680992 236.319798 
L 256.755372 235.632069 
L 259.829752 234.060119 
L 262.904132 233.372391 
L 265.978512 232.389922 
L 269.052893 231.603947 
L 272.127273 230.228491 
L 275.201653 228.853035 
L 278.276033 227.379331 
L 281.350413 225.905628 
L 284.424793 224.137184 
L 287.499174 222.074 
L 290.573554 219.519581 
L 293.647934 218.144124 
L 296.722314 216.473927 
L 299.796694 214.214249 
L 302.871074 211.365089 
L 305.945455 209.694892 
L 309.019835 206.354498 
L 312.094215 203.308845 
L 315.168595 200.852673 
L 318.242975 197.905267 
L 321.317355 195.743835 
L 324.391736 193.778898 
L 327.466116 190.53675 
L 330.540496 186.901616 
L 333.614876 184.641937 
L 336.689256 180.908556 
L 339.763636 178.452384 
L 342.838017 175.406731 
L 345.912397 172.459324 
L 348.986777 169.217177 
L 352.061157 166.957499 
L 355.135537 163.518858 
L 358.209917 160.080217 
L 361.284298 156.445082 
L 364.358678 153.399429 
L 367.433058 150.452022 
L 370.507438 147.99585 
L 373.581818 144.85195 
" style="fill:none;stroke:#937860;stroke-linecap:round;stroke-width:1.5;"/>
   </g>
   <g id="line2d_22">
    <path clip-path="url(#p07804656c9)" d="M 69.218182 242.116364 
L 72.292562 242.116364 
L 75.366942 242.116364 
L 78.441322 242.116364 
L 81.515702 242.116364 
L 84.590083 242.116364 
L 87.664463 242.116364 
L 90.738843 242.116364 
L 93.813223 242.116364 
L 96.887603 242.116364 
L 99.961983 242.116364 
L 103.036364 242.116364 
L 106.110744 242.116364 
L 109.185124 242.116364 
L 112.259504 242.116364 
L 115.333884 242.116364 
L 118.408264 242.116364 
L 121.482645 242.116364 
L 124.557025 242.116364 
L 127.631405 242.116364 
L 130.705785 242.116364 
L 133.780165 242.116364 
L 136.854545 242.116364 
L 139.928926 242.116364 
L 143.003306 242.116364 
L 146.077686 242.116364 
L 149.152066 242.116364 
L 152.226446 242.116364 
L 155.300826 242.116364 
L 158.375207 242.116364 
L 161.449587 242.116364 
L 164.523967 242.116364 
L 167.598347 242.116364 
L 170.672727 242.116364 
L 173.747107 242.116364 
L 176.821488 242.116364 
L 179.895868 242.116364 
L 182.970248 242.116364 
L 186.044628 242.116364 
L 189.119008 242.116364 
L 192.193388 242.116364 
L 195.267769 242.116364 
L 198.342149 242.116364 
L 201.416529 242.116364 
L 204.490909 242.018117 
L 207.565289 241.821623 
L 210.639669 241.428635 
L 213.71405 241.232142 
L 216.78843 241.035648 
L 219.86281 240.839154 
L 222.93719 240.544414 
L 226.01157 240.249673 
L 229.08595 239.365451 
L 232.160331 238.77597 
L 235.234711 237.891748 
L 238.309091 236.712785 
L 241.383471 235.632069 
L 244.457851 234.551354 
L 247.532231 233.765379 
L 250.606612 232.095182 
L 253.680992 230.719725 
L 256.755372 229.442516 
L 259.829752 226.888097 
L 262.904132 224.824912 
L 265.978512 222.663481 
L 269.052893 220.109062 
L 272.127273 217.849384 
L 275.201653 215.982693 
L 278.276033 213.624768 
L 281.350413 210.972102 
L 284.424793 207.926449 
L 287.499174 204.782548 
L 290.573554 202.228129 
L 293.647934 199.182476 
L 296.722314 197.315785 
L 299.796694 192.894676 
L 302.871074 189.063047 
L 305.945455 186.508628 
L 309.019835 183.561222 
L 312.094215 181.10505 
L 315.168595 177.666409 
L 318.242975 175.210237 
L 321.317355 170.985621 
L 324.391736 167.841721 
L 327.466116 164.796067 
L 330.540496 161.750414 
L 333.614876 158.999501 
L 336.689256 155.855601 
L 339.763636 153.792416 
L 342.838017 151.925726 
L 345.912397 148.880072 
L 348.986777 145.736172 
L 352.061157 143.181753 
L 355.135537 139.251878 
L 358.209917 136.304471 
L 361.284298 134.339534 
L 364.358678 131.686868 
L 367.433058 128.248227 
L 370.507438 124.220105 
L 373.581818 121.174451 
" style="fill:none;stroke:#da8bc3;stroke-linecap:round;stroke-width:1.5;"/>
   </g>
   <g id="line2d_23">
    <path clip-path="url(#p07804656c9)" d="M 69.218182 242.116364 
L 72.292562 242.116364 
L 75.366942 242.116364 
L 78.441322 242.116364 
L 81.515702 242.116364 
L 84.590083 242.116364 
L 87.664463 242.116364 
L 90.738843 242.116364 
L 93.813223 242.116364 
L 96.887603 242.116364 
L 99.961983 242.116364 
L 103.036364 242.116364 
L 106.110744 242.116364 
L 109.185124 242.116364 
L 112.259504 242.116364 
L 115.333884 242.116364 
L 118.408264 242.116364 
L 121.482645 242.116364 
L 124.557025 242.116364 
L 127.631405 242.116364 
L 130.705785 242.116364 
L 133.780165 242.116364 
L 136.854545 242.116364 
L 139.928926 242.116364 
L 143.003306 242.116364 
L 146.077686 242.116364 
L 149.152066 242.116364 
L 152.226446 242.116364 
L 155.300826 242.116364 
L 158.375207 242.116364 
L 161.449587 242.116364 
L 164.523967 242.116364 
L 167.598347 242.116364 
L 170.672727 242.116364 
L 173.747107 242.116364 
L 176.821488 242.116364 
L 179.895868 242.018117 
L 182.970248 242.018117 
L 186.044628 241.91987 
L 189.119008 241.821623 
L 192.193388 241.723376 
L 195.267769 241.625129 
L 198.342149 241.330389 
L 201.416529 241.133895 
L 204.490909 240.937401 
L 207.565289 240.249673 
L 210.639669 239.561945 
L 213.71405 238.972463 
L 216.78843 238.186488 
L 219.86281 237.400513 
L 222.93719 236.811032 
L 226.01157 235.435576 
L 229.08595 233.372391 
L 232.160331 231.702194 
L 235.234711 230.130244 
L 238.309091 228.754788 
L 241.383471 226.888097 
L 244.457851 224.923159 
L 247.532231 222.36874 
L 250.606612 219.912568 
L 253.680992 218.242371 
L 256.755372 215.982693 
L 259.829752 213.035286 
L 262.904132 209.793139 
L 265.978512 206.747486 
L 269.052893 203.603586 
L 272.127273 200.459686 
L 275.201653 196.824551 
L 278.276033 192.992922 
L 281.350413 189.161294 
L 284.424793 185.8209 
L 287.499174 182.578753 
L 290.573554 180.024334 
L 293.647934 177.175174 
L 296.722314 172.950558 
L 299.796694 170.199646 
L 302.871074 166.859252 
L 305.945455 162.929376 
L 309.019835 159.687229 
L 312.094215 156.346835 
L 315.168595 153.497676 
L 318.242975 150.452022 
L 321.317355 147.111628 
L 324.391736 143.869481 
L 327.466116 141.70805 
L 330.540496 138.760643 
L 333.614876 135.027262 
L 336.689256 132.669337 
L 339.763636 128.739461 
L 342.838017 124.907833 
L 345.912397 122.844648 
L 348.986777 120.388476 
L 352.061157 117.244576 
L 355.135537 114.002429 
L 358.209917 111.055023 
L 361.284298 107.125147 
L 364.358678 105.061963 
L 367.433058 102.507544 
L 370.507438 99.953125 
L 373.581818 97.988187 
" style="fill:none;stroke:#8c8c8c;stroke-linecap:round;stroke-width:1.5;"/>
   </g>
   <g id="line2d_24">
    <path clip-path="url(#p07804656c9)" d="M 69.218182 242.116364 
L 72.292562 242.116364 
L 75.366942 242.116364 
L 78.441322 242.116364 
L 81.515702 242.116364 
L 84.590083 242.116364 
L 87.664463 242.116364 
L 90.738843 242.116364 
L 93.813223 242.116364 
L 96.887603 242.116364 
L 99.961983 242.116364 
L 103.036364 242.116364 
L 106.110744 242.116364 
L 109.185124 242.116364 
L 112.259504 242.116364 
L 115.333884 242.116364 
L 118.408264 242.116364 
L 121.482645 242.116364 
L 124.557025 242.116364 
L 127.631405 242.116364 
L 130.705785 242.116364 
L 133.780165 242.116364 
L 136.854545 242.116364 
L 139.928926 242.116364 
L 143.003306 242.116364 
L 146.077686 242.116364 
L 149.152066 242.116364 
L 152.226446 242.116364 
L 155.300826 242.116364 
L 158.375207 242.116364 
L 161.449587 242.116364 
L 164.523967 242.116364 
L 167.598347 242.116364 
L 170.672727 242.116364 
L 173.747107 242.116364 
L 176.821488 241.91987 
L 179.895868 241.723376 
L 182.970248 241.625129 
L 186.044628 241.330389 
L 189.119008 241.035648 
L 192.193388 240.740907 
L 195.267769 240.64266 
L 198.342149 239.856685 
L 201.416529 239.267204 
L 204.490909 238.677723 
L 207.565289 237.400513 
L 210.639669 236.712785 
L 213.71405 235.632069 
L 216.78843 234.060119 
L 219.86281 232.586416 
L 222.93719 230.031997 
L 226.01157 227.870566 
L 229.08595 225.905628 
L 232.160331 224.137184 
L 235.234711 220.895037 
L 238.309091 218.438865 
L 241.383471 216.277434 
L 244.457851 213.23178 
L 247.532231 209.891386 
L 250.606612 207.533461 
L 253.680992 204.09482 
L 256.755372 200.557932 
L 259.829752 197.119292 
L 262.904132 193.680651 
L 265.978512 190.438504 
L 269.052893 186.901616 
L 272.127273 184.052456 
L 275.201653 180.417322 
L 278.276033 177.371668 
L 281.350413 174.129521 
L 284.424793 170.592633 
L 287.499174 167.350486 
L 290.573554 163.420611 
L 293.647934 160.276711 
L 296.722314 156.936317 
L 299.796694 153.595923 
L 302.871074 149.27306 
L 305.945455 146.12916 
L 309.019835 143.378247 
L 312.094215 139.055384 
L 315.168595 136.206224 
L 318.242975 132.767584 
L 321.317355 130.114918 
L 324.391736 126.971018 
L 327.466116 123.43413 
L 330.540496 120.683217 
L 333.614876 118.030551 
L 336.689256 114.886651 
L 339.763636 112.626973 
L 342.838017 109.581319 
L 345.912397 106.830407 
L 348.986777 104.767222 
L 352.061157 102.802284 
L 355.135537 99.46189 
L 358.209917 96.612731 
L 361.284298 94.254806 
L 364.358678 91.995127 
L 367.433058 89.244215 
L 370.507438 86.591549 
L 373.581818 83.251155 
" style="fill:none;stroke:#ccb974;stroke-linecap:round;stroke-width:1.5;"/>
   </g>
   <g id="line2d_25">
    <path clip-path="url(#p07804656c9)" d="M 69.218182 242.116364 
L 72.292562 242.116364 
L 75.366942 242.116364 
L 78.441322 242.116364 
L 81.515702 242.116364 
L 84.590083 242.116364 
L 87.664463 242.116364 
L 90.738843 242.116364 
L 93.813223 242.116364 
L 96.887603 242.116364 
L 99.961983 242.116364 
L 103.036364 242.116364 
L 106.110744 242.116364 
L 109.185124 242.116364 
L 112.259504 242.116364 
L 115.333884 242.116364 
L 118.408264 242.116364 
L 121.482645 242.116364 
L 124.557025 242.116364 
L 127.631405 242.116364 
L 130.705785 242.116364 
L 133.780165 242.116364 
L 136.854545 242.018117 
L 139.928926 242.018117 
L 143.003306 242.018117 
L 146.077686 241.91987 
L 149.152066 241.91987 
L 152.226446 241.91987 
L 155.300826 241.91987 
L 158.375207 241.91987 
L 161.449587 241.91987 
L 164.523967 241.821623 
L 167.598347 241.821623 
L 170.672727 241.723376 
L 173.747107 241.723376 
L 176.821488 241.428635 
L 179.895868 241.133895 
L 182.970248 241.035648 
L 186.044628 240.740907 
L 189.119008 240.151426 
L 192.193388 239.561945 
L 195.267769 238.77597 
L 198.342149 237.20402 
L 201.416529 236.123304 
L 204.490909 234.747847 
L 207.565289 232.78291 
L 210.639669 231.014466 
L 213.71405 229.049528 
L 216.78843 226.396862 
L 219.86281 223.449456 
L 222.93719 219.814321 
L 226.01157 216.277434 
L 229.08595 213.624768 
L 232.160331 210.284374 
L 235.234711 205.961511 
L 238.309091 202.129883 
L 241.383471 197.708773 
L 244.457851 191.912207 
L 247.532231 186.705122 
L 250.606612 182.480506 
L 253.680992 178.648878 
L 256.755372 174.620755 
L 259.829752 170.003152 
L 262.904132 164.992561 
L 265.978512 161.455673 
L 269.052893 157.722292 
L 272.127273 153.202935 
L 275.201653 148.978319 
L 278.276033 145.244938 
L 281.350413 141.511556 
L 284.424793 137.679928 
L 287.499174 134.14304 
L 290.573554 131.588621 
L 293.647934 128.444721 
L 296.722314 124.907833 
L 299.796694 120.879711 
L 302.871074 117.834057 
L 305.945455 114.100676 
L 309.019835 110.760282 
L 312.094215 108.107616 
L 315.168595 105.258457 
L 318.242975 101.918063 
L 321.317355 98.675915 
L 324.391736 96.612731 
L 327.466116 94.942534 
L 330.540496 92.388115 
L 333.614876 90.128437 
L 336.689256 87.279277 
L 339.763636 84.626611 
L 342.838017 81.973945 
L 345.912397 78.633551 
L 348.986777 75.686145 
L 352.061157 72.443998 
L 355.135537 70.380813 
L 358.209917 68.121135 
L 361.284298 65.370222 
L 364.358678 63.012297 
L 367.433058 61.735088 
L 370.507438 59.082422 
L 373.581818 57.215731 
" style="fill:none;stroke:#64b5cd;stroke-linecap:round;stroke-width:1.5;"/>
   </g>
   <g id="line2d_26">
    <path clip-path="url(#p07804656c9)" d="M 69.218182 242.116364 
L 72.292562 242.116364 
L 75.366942 242.116364 
L 78.441322 242.116364 
L 81.515702 242.116364 
L 84.590083 242.116364 
L 87.664463 242.116364 
L 90.738843 242.116364 
L 93.813223 242.116364 
L 96.887603 242.116364 
L 99.961983 242.116364 
L 103.036364 242.116364 
L 106.110744 242.116364 
L 109.185124 242.116364 
L 112.259504 242.116364 
L 115.333884 242.116364 
L 118.408264 242.116364 
L 121.482645 242.116364 
L 124.557025 242.116364 
L 127.631405 242.116364 
L 130.705785 242.116364 
L 133.780165 242.116364 
L 136.854545 242.116364 
L 139.928926 242.116364 
L 143.003306 242.116364 
L 146.077686 242.116364 
L 149.152066 242.116364 
L 152.226446 242.116364 
L 155.300826 242.116364 
L 158.375207 242.116364 
L 161.449587 242.116364 
L 164.523967 242.116364 
L 167.598347 241.91987 
L 170.672727 241.526882 
L 173.747107 241.133895 
L 176.821488 240.740907 
L 179.895868 240.053179 
L 182.970248 239.365451 
L 186.044628 238.284735 
L 189.119008 237.20402 
L 192.193388 236.221551 
L 195.267769 234.060119 
L 198.342149 232.488169 
L 201.416529 230.228491 
L 204.490909 226.78985 
L 207.565289 225.021406 
L 210.639669 221.386271 
L 213.71405 217.161656 
L 216.78843 212.838793 
L 219.86281 208.417683 
L 222.93719 204.09482 
L 226.01157 198.789489 
L 229.08595 192.894676 
L 232.160331 187.589344 
L 235.234711 182.677 
L 238.309091 178.157643 
L 241.383471 173.343546 
L 244.457851 169.315424 
L 247.532231 164.992561 
L 250.606612 161.062686 
L 253.680992 156.052095 
L 256.755372 152.122219 
L 259.829752 148.290591 
L 262.904132 144.950197 
L 265.978512 140.922075 
L 269.052893 138.171162 
L 272.127273 133.062324 
L 275.201653 129.525436 
L 278.276033 125.890302 
L 281.350413 122.058673 
L 284.424793 119.111267 
L 287.499174 116.065614 
L 290.573554 113.118207 
L 293.647934 109.483072 
L 296.722314 106.73216 
L 299.796694 103.784753 
L 302.871074 100.149619 
L 305.945455 97.988187 
L 309.019835 95.237275 
L 312.094215 91.896881 
L 315.168595 88.45824 
L 318.242975 85.510833 
L 321.317355 83.152908 
L 324.391736 80.500242 
L 327.466116 77.847576 
L 330.540496 75.194911 
L 333.614876 72.935232 
L 336.689256 70.380813 
L 339.763636 68.121135 
L 342.838017 65.861457 
L 345.912397 63.700025 
L 348.986777 62.029828 
L 352.061157 59.77015 
L 355.135537 58.099953 
L 358.209917 55.742028 
L 361.284298 52.794621 
L 364.358678 50.534943 
L 367.433058 48.668252 
L 370.507438 46.113833 
L 373.581818 44.443636 
" style="fill:none;stroke:#4c72b0;stroke-linecap:round;stroke-width:1.5;"/>
   </g>
   <g id="patch_3">
    <path d="M 54 252 
L 54 34.56 
" style="fill:none;stroke:#ffffff;stroke-linecap:square;stroke-linejoin:miter;stroke-width:1.25;"/>
   </g>
   <g id="patch_4">
    <path d="M 388.8 252 
L 388.8 34.56 
" style="fill:none;stroke:#ffffff;stroke-linecap:square;stroke-linejoin:miter;stroke-width:1.25;"/>
   </g>
   <g id="patch_5">
    <path d="M 54 252 
L 388.8 252 
" style="fill:none;stroke:#ffffff;stroke-linecap:square;stroke-linejoin:miter;stroke-width:1.25;"/>
   </g>
   <g id="patch_6">
    <path d="M 54 34.56 
L 388.8 34.56 
" style="fill:none;stroke:#ffffff;stroke-linecap:square;stroke-linejoin:miter;stroke-width:1.25;"/>
   </g>
   <g id="legend_1">
    <g id="patch_7">
     <path d="M 61.7 220.965313 
L 128.390938 220.965313 
Q 130.590937 220.965313 130.590937 218.765313 
L 130.590937 42.26 
Q 130.590937 40.06 128.390938 40.06 
L 61.7 40.06 
Q 59.5 40.06 59.5 42.26 
L 59.5 218.765313 
Q 59.5 220.965313 61.7 220.965313 
z
" style="fill:#eaeaf2;opacity:0.8;stroke:#cccccc;stroke-linejoin:miter;"/>
    </g>
    <g id="line2d_27">
     <path d="M 63.9 48.968281 
L 85.9 48.968281 
" style="fill:none;stroke:#4c72b0;stroke-linecap:round;stroke-width:1.5;"/>
    </g>
    <g id="line2d_28"/>
    <g id="text_18">
     <!-- 6.08 -->
     <defs>
      <path d="M 10.6875 12.40625 
L 21 12.40625 
L 21 0 
L 10.6875 0 
z
" id="DejaVuSans-2e"/>
     </defs>
     <g style="fill:#262626;" transform="translate(94.7 52.818281)scale(0.11 -0.11)">
      <use xlink:href="#DejaVuSans-36"/>
      <use x="63.623047" xlink:href="#DejaVuSans-2e"/>
      <use x="95.410156" xlink:href="#DejaVuSans-30"/>
      <use x="159.033203" xlink:href="#DejaVuSans-38"/>
     </g>
    </g>
    <g id="line2d_29">
     <path d="M 63.9 65.114219 
L 85.9 65.114219 
" style="fill:none;stroke:#dd8452;stroke-linecap:round;stroke-width:1.5;"/>
    </g>
    <g id="line2d_30"/>
    <g id="text_19">
     <!-- 6.51 -->
     <g style="fill:#262626;" transform="translate(94.7 68.964219)scale(0.11 -0.11)">
      <use xlink:href="#DejaVuSans-36"/>
      <use x="63.623047" xlink:href="#DejaVuSans-2e"/>
      <use x="95.410156" xlink:href="#DejaVuSans-35"/>
      <use x="159.033203" xlink:href="#DejaVuSans-31"/>
     </g>
    </g>
    <g id="line2d_31">
     <path d="M 63.9 81.260156 
L 85.9 81.260156 
" style="fill:none;stroke:#55a868;stroke-linecap:round;stroke-width:1.5;"/>
    </g>
    <g id="line2d_32"/>
    <g id="text_20">
     <!-- 6.95 -->
     <defs>
      <path d="M 10.984375 1.515625 
L 10.984375 10.5 
Q 14.703125 8.734375 18.5 7.8125 
Q 22.3125 6.890625 25.984375 6.890625 
Q 35.75 6.890625 40.890625 13.453125 
Q 46.046875 20.015625 46.78125 33.40625 
Q 43.953125 29.203125 39.59375 26.953125 
Q 35.25 24.703125 29.984375 24.703125 
Q 19.046875 24.703125 12.671875 31.3125 
Q 6.296875 37.9375 6.296875 49.421875 
Q 6.296875 60.640625 12.9375 67.421875 
Q 19.578125 74.21875 30.609375 74.21875 
Q 43.265625 74.21875 49.921875 64.515625 
Q 56.59375 54.828125 56.59375 36.375 
Q 56.59375 19.140625 48.40625 8.859375 
Q 40.234375 -1.421875 26.421875 -1.421875 
Q 22.703125 -1.421875 18.890625 -0.6875 
Q 15.09375 0.046875 10.984375 1.515625 
z
M 30.609375 32.421875 
Q 37.25 32.421875 41.125 36.953125 
Q 45.015625 41.5 45.015625 49.421875 
Q 45.015625 57.28125 41.125 61.84375 
Q 37.25 66.40625 30.609375 66.40625 
Q 23.96875 66.40625 20.09375 61.84375 
Q 16.21875 57.28125 16.21875 49.421875 
Q 16.21875 41.5 20.09375 36.953125 
Q 23.96875 32.421875 30.609375 32.421875 
z
" id="DejaVuSans-39"/>
     </defs>
     <g style="fill:#262626;" transform="translate(94.7 85.110156)scale(0.11 -0.11)">
      <use xlink:href="#DejaVuSans-36"/>
      <use x="63.623047" xlink:href="#DejaVuSans-2e"/>
      <use x="95.410156" xlink:href="#DejaVuSans-39"/>
      <use x="159.033203" xlink:href="#DejaVuSans-35"/>
     </g>
    </g>
    <g id="line2d_33">
     <path d="M 63.9 97.406094 
L 85.9 97.406094 
" style="fill:none;stroke:#c44e52;stroke-linecap:round;stroke-width:1.5;"/>
    </g>
    <g id="line2d_34"/>
    <g id="text_21">
     <!-- 7.38 -->
     <defs>
      <path d="M 40.578125 39.3125 
Q 47.65625 37.796875 51.625 33 
Q 55.609375 28.21875 55.609375 21.1875 
Q 55.609375 10.40625 48.1875 4.484375 
Q 40.765625 -1.421875 27.09375 -1.421875 
Q 22.515625 -1.421875 17.65625 -0.515625 
Q 12.796875 0.390625 7.625 2.203125 
L 7.625 11.71875 
Q 11.71875 9.328125 16.59375 8.109375 
Q 21.484375 6.890625 26.8125 6.890625 
Q 36.078125 6.890625 40.9375 10.546875 
Q 45.796875 14.203125 45.796875 21.1875 
Q 45.796875 27.640625 41.28125 31.265625 
Q 36.765625 34.90625 28.71875 34.90625 
L 20.21875 34.90625 
L 20.21875 43.015625 
L 29.109375 43.015625 
Q 36.375 43.015625 40.234375 45.921875 
Q 44.09375 48.828125 44.09375 54.296875 
Q 44.09375 59.90625 40.109375 62.90625 
Q 36.140625 65.921875 28.71875 65.921875 
Q 24.65625 65.921875 20.015625 65.03125 
Q 15.375 64.15625 9.8125 62.3125 
L 9.8125 71.09375 
Q 15.4375 72.65625 20.34375 73.4375 
Q 25.25 74.21875 29.59375 74.21875 
Q 40.828125 74.21875 47.359375 69.109375 
Q 53.90625 64.015625 53.90625 55.328125 
Q 53.90625 49.265625 50.4375 45.09375 
Q 46.96875 40.921875 40.578125 39.3125 
z
" id="DejaVuSans-33"/>
     </defs>
     <g style="fill:#262626;" transform="translate(94.7 101.256094)scale(0.11 -0.11)">
      <use xlink:href="#DejaVuSans-37"/>
      <use x="63.623047" xlink:href="#DejaVuSans-2e"/>
      <use x="95.410156" xlink:href="#DejaVuSans-33"/>
      <use x="159.033203" xlink:href="#DejaVuSans-38"/>
     </g>
    </g>
    <g id="line2d_35">
     <path d="M 63.9 113.552031 
L 85.9 113.552031 
" style="fill:none;stroke:#8172b3;stroke-linecap:round;stroke-width:1.5;"/>
    </g>
    <g id="line2d_36"/>
    <g id="text_22">
     <!-- 7.82 -->
     <g style="fill:#262626;" transform="translate(94.7 117.402031)scale(0.11 -0.11)">
      <use xlink:href="#DejaVuSans-37"/>
      <use x="63.623047" xlink:href="#DejaVuSans-2e"/>
      <use x="95.410156" xlink:href="#DejaVuSans-38"/>
      <use x="159.033203" xlink:href="#DejaVuSans-32"/>
     </g>
    </g>
    <g id="line2d_37">
     <path d="M 63.9 129.697969 
L 85.9 129.697969 
" style="fill:none;stroke:#937860;stroke-linecap:round;stroke-width:1.5;"/>
    </g>
    <g id="line2d_38"/>
    <g id="text_23">
     <!-- 8.25 -->
     <g style="fill:#262626;" transform="translate(94.7 133.547969)scale(0.11 -0.11)">
      <use xlink:href="#DejaVuSans-38"/>
      <use x="63.623047" xlink:href="#DejaVuSans-2e"/>
      <use x="95.410156" xlink:href="#DejaVuSans-32"/>
      <use x="159.033203" xlink:href="#DejaVuSans-35"/>
     </g>
    </g>
    <g id="line2d_39">
     <path d="M 63.9 145.843906 
L 85.9 145.843906 
" style="fill:none;stroke:#da8bc3;stroke-linecap:round;stroke-width:1.5;"/>
    </g>
    <g id="line2d_40"/>
    <g id="text_24">
     <!-- 8.69 -->
     <g style="fill:#262626;" transform="translate(94.7 149.693906)scale(0.11 -0.11)">
      <use xlink:href="#DejaVuSans-38"/>
      <use x="63.623047" xlink:href="#DejaVuSans-2e"/>
      <use x="95.410156" xlink:href="#DejaVuSans-36"/>
      <use x="159.033203" xlink:href="#DejaVuSans-39"/>
     </g>
    </g>
    <g id="line2d_41">
     <path d="M 63.9 161.989844 
L 85.9 161.989844 
" style="fill:none;stroke:#8c8c8c;stroke-linecap:round;stroke-width:1.5;"/>
    </g>
    <g id="line2d_42"/>
    <g id="text_25">
     <!-- 9.12 -->
     <g style="fill:#262626;" transform="translate(94.7 165.839844)scale(0.11 -0.11)">
      <use xlink:href="#DejaVuSans-39"/>
      <use x="63.623047" xlink:href="#DejaVuSans-2e"/>
      <use x="95.410156" xlink:href="#DejaVuSans-31"/>
      <use x="159.033203" xlink:href="#DejaVuSans-32"/>
     </g>
    </g>
    <g id="line2d_43">
     <path d="M 63.9 178.135781 
L 85.9 178.135781 
" style="fill:none;stroke:#ccb974;stroke-linecap:round;stroke-width:1.5;"/>
    </g>
    <g id="line2d_44"/>
    <g id="text_26">
     <!-- 9.55 -->
     <g style="fill:#262626;" transform="translate(94.7 181.985781)scale(0.11 -0.11)">
      <use xlink:href="#DejaVuSans-39"/>
      <use x="63.623047" xlink:href="#DejaVuSans-2e"/>
      <use x="95.410156" xlink:href="#DejaVuSans-35"/>
      <use x="159.033203" xlink:href="#DejaVuSans-35"/>
     </g>
    </g>
    <g id="line2d_45">
     <path d="M 63.9 194.281719 
L 85.9 194.281719 
" style="fill:none;stroke:#64b5cd;stroke-linecap:round;stroke-width:1.5;"/>
    </g>
    <g id="line2d_46"/>
    <g id="text_27">
     <!-- 9.99 -->
     <g style="fill:#262626;" transform="translate(94.7 198.131719)scale(0.11 -0.11)">
      <use xlink:href="#DejaVuSans-39"/>
      <use x="63.623047" xlink:href="#DejaVuSans-2e"/>
      <use x="95.410156" xlink:href="#DejaVuSans-39"/>
      <use x="159.033203" xlink:href="#DejaVuSans-39"/>
     </g>
    </g>
    <g id="line2d_47">
     <path d="M 63.9 210.427656 
L 85.9 210.427656 
" style="fill:none;stroke:#4c72b0;stroke-linecap:round;stroke-width:1.5;"/>
    </g>
    <g id="line2d_48"/>
    <g id="text_28">
     <!-- 10.42 -->
     <g style="fill:#262626;" transform="translate(94.7 214.277656)scale(0.11 -0.11)">
      <use xlink:href="#DejaVuSans-31"/>
      <use x="63.623047" xlink:href="#DejaVuSans-30"/>
      <use x="127.246094" xlink:href="#DejaVuSans-2e"/>
      <use x="159.033203" xlink:href="#DejaVuSans-34"/>
      <use x="222.65625" xlink:href="#DejaVuSans-32"/>
     </g>
    </g>
   </g>
  </g>
 </g>
 <defs>
  <clipPath id="p07804656c9">
   <rect height="217.44" width="334.8" x="54" y="34.56"/>
  </clipPath>
 </defs>
</svg>
