<?xml version="1.0" encoding="utf-8" standalone="no"?>
<!DOCTYPE svg PUBLIC "-//W3C//DTD SVG 1.1//EN"
  "http://www.w3.org/Graphics/SVG/1.1/DTD/svg11.dtd">
<!-- Created with matplotlib (http://matplotlib.org/) -->
<svg height="345.6pt" version="1.1" viewBox="0 0 460.8 345.6" width="460.8pt" xmlns="http://www.w3.org/2000/svg" xmlns:xlink="http://www.w3.org/1999/xlink">
 <defs>
  <style type="text/css">
*{stroke-linecap:butt;stroke-linejoin:round;}
  </style>
 </defs>
 <g id="figure_1">
  <g id="patch_1">
   <path d="M 0 345.6 
L 460.8 345.6 
L 460.8 0 
L 0 0 
z
" style="fill:#ffffff;"/>
  </g>
  <g id="axes_1">
   <g id="patch_2">
    <path d="M 57.6 307.584 
L 414.72 307.584 
L 414.72 41.472 
L 57.6 41.472 
z
" style="fill:#eaeaf2;"/>
   </g>
   <g id="matplotlib.axis_1">
    <g id="xtick_1">
     <g id="line2d_1">
      <path clip-path="url(#pf5ebbd8670)" d="M 67.843194 307.584 
L 67.843194 41.472 
" style="fill:none;stroke:#ffffff;stroke-linecap:round;"/>
     </g>
     <g id="text_1">
      <!-- 6 -->
      <defs>
       <path d="M 33.015625 40.375 
Q 26.375 40.375 22.484375 35.828125 
Q 18.609375 31.296875 18.609375 23.390625 
Q 18.609375 15.53125 22.484375 10.953125 
Q 26.375 6.390625 33.015625 6.390625 
Q 39.65625 6.390625 43.53125 10.953125 
Q 47.40625 15.53125 47.40625 23.390625 
Q 47.40625 31.296875 43.53125 35.828125 
Q 39.65625 40.375 33.015625 40.375 
z
M 52.59375 71.296875 
L 52.59375 62.3125 
Q 48.875 64.0625 45.09375 64.984375 
Q 41.3125 65.921875 37.59375 65.921875 
Q 27.828125 65.921875 22.671875 59.328125 
Q 17.53125 52.734375 16.796875 39.40625 
Q 19.671875 43.65625 24.015625 45.921875 
Q 28.375 48.1875 33.59375 48.1875 
Q 44.578125 48.1875 50.953125 41.515625 
Q 57.328125 34.859375 57.328125 23.390625 
Q 57.328125 12.15625 50.6875 5.359375 
Q 44.046875 -1.421875 33.015625 -1.421875 
Q 20.359375 -1.421875 13.671875 8.265625 
Q 6.984375 17.96875 6.984375 36.375 
Q 6.984375 53.65625 15.1875 63.9375 
Q 23.390625 74.21875 37.203125 74.21875 
Q 40.921875 74.21875 44.703125 73.484375 
Q 48.484375 72.75 52.59375 71.296875 
z
" id="DejaVuSans-36"/>
      </defs>
      <g style="fill:#262626;" transform="translate(64.343819 325.442281)scale(0.11 -0.11)">
       <use xlink:href="#DejaVuSans-36"/>
      </g>
     </g>
    </g>
    <g id="xtick_2">
     <g id="line2d_2">
      <path clip-path="url(#pf5ebbd8670)" d="M 142.597665 307.584 
L 142.597665 41.472 
" style="fill:none;stroke:#ffffff;stroke-linecap:round;"/>
     </g>
     <g id="text_2">
      <!-- 7 -->
      <defs>
       <path d="M 8.203125 72.90625 
L 55.078125 72.90625 
L 55.078125 68.703125 
L 28.609375 0 
L 18.3125 0 
L 43.21875 64.59375 
L 8.203125 64.59375 
z
" id="DejaVuSans-37"/>
      </defs>
      <g style="fill:#262626;" transform="translate(139.09829 325.442281)scale(0.11 -0.11)">
       <use xlink:href="#DejaVuSans-37"/>
      </g>
     </g>
    </g>
    <g id="xtick_3">
     <g id="line2d_3">
      <path clip-path="url(#pf5ebbd8670)" d="M 217.352137 307.584 
L 217.352137 41.472 
" style="fill:none;stroke:#ffffff;stroke-linecap:round;"/>
     </g>
     <g id="text_3">
      <!-- 8 -->
      <defs>
       <path d="M 31.78125 34.625 
Q 24.75 34.625 20.71875 30.859375 
Q 16.703125 27.09375 16.703125 20.515625 
Q 16.703125 13.921875 20.71875 10.15625 
Q 24.75 6.390625 31.78125 6.390625 
Q 38.8125 6.390625 42.859375 10.171875 
Q 46.921875 13.96875 46.921875 20.515625 
Q 46.921875 27.09375 42.890625 30.859375 
Q 38.875 34.625 31.78125 34.625 
z
M 21.921875 38.8125 
Q 15.578125 40.375 12.03125 44.71875 
Q 8.5 49.078125 8.5 55.328125 
Q 8.5 64.0625 14.71875 69.140625 
Q 20.953125 74.21875 31.78125 74.21875 
Q 42.671875 74.21875 48.875 69.140625 
Q 55.078125 64.0625 55.078125 55.328125 
Q 55.078125 49.078125 51.53125 44.71875 
Q 48 40.375 41.703125 38.8125 
Q 48.828125 37.15625 52.796875 32.3125 
Q 56.78125 27.484375 56.78125 20.515625 
Q 56.78125 9.90625 50.3125 4.234375 
Q 43.84375 -1.421875 31.78125 -1.421875 
Q 19.734375 -1.421875 13.25 4.234375 
Q 6.78125 9.90625 6.78125 20.515625 
Q 6.78125 27.484375 10.78125 32.3125 
Q 14.796875 37.15625 21.921875 38.8125 
z
M 18.3125 54.390625 
Q 18.3125 48.734375 21.84375 45.5625 
Q 25.390625 42.390625 31.78125 42.390625 
Q 38.140625 42.390625 41.71875 45.5625 
Q 45.3125 48.734375 45.3125 54.390625 
Q 45.3125 60.0625 41.71875 63.234375 
Q 38.140625 66.40625 31.78125 66.40625 
Q 25.390625 66.40625 21.84375 63.234375 
Q 18.3125 60.0625 18.3125 54.390625 
z
" id="DejaVuSans-38"/>
      </defs>
      <g style="fill:#262626;" transform="translate(213.852762 325.442281)scale(0.11 -0.11)">
       <use xlink:href="#DejaVuSans-38"/>
      </g>
     </g>
    </g>
    <g id="xtick_4">
     <g id="line2d_4">
      <path clip-path="url(#pf5ebbd8670)" d="M 292.106609 307.584 
L 292.106609 41.472 
" style="fill:none;stroke:#ffffff;stroke-linecap:round;"/>
     </g>
     <g id="text_4">
      <!-- 9 -->
      <defs>
       <path d="M 10.984375 1.515625 
L 10.984375 10.5 
Q 14.703125 8.734375 18.5 7.8125 
Q 22.3125 6.890625 25.984375 6.890625 
Q 35.75 6.890625 40.890625 13.453125 
Q 46.046875 20.015625 46.78125 33.40625 
Q 43.953125 29.203125 39.59375 26.953125 
Q 35.25 24.703125 29.984375 24.703125 
Q 19.046875 24.703125 12.671875 31.3125 
Q 6.296875 37.9375 6.296875 49.421875 
Q 6.296875 60.640625 12.9375 67.421875 
Q 19.578125 74.21875 30.609375 74.21875 
Q 43.265625 74.21875 49.921875 64.515625 
Q 56.59375 54.828125 56.59375 36.375 
Q 56.59375 19.140625 48.40625 8.859375 
Q 40.234375 -1.421875 26.421875 -1.421875 
Q 22.703125 -1.421875 18.890625 -0.6875 
Q 15.09375 0.046875 10.984375 1.515625 
z
M 30.609375 32.421875 
Q 37.25 32.421875 41.125 36.953125 
Q 45.015625 41.5 45.015625 49.421875 
Q 45.015625 57.28125 41.125 61.84375 
Q 37.25 66.40625 30.609375 66.40625 
Q 23.96875 66.40625 20.09375 61.84375 
Q 16.21875 57.28125 16.21875 49.421875 
Q 16.21875 41.5 20.09375 36.953125 
Q 23.96875 32.421875 30.609375 32.421875 
z
" id="DejaVuSans-39"/>
      </defs>
      <g style="fill:#262626;" transform="translate(288.607234 325.442281)scale(0.11 -0.11)">
       <use xlink:href="#DejaVuSans-39"/>
      </g>
     </g>
    </g>
    <g id="xtick_5">
     <g id="line2d_5">
      <path clip-path="url(#pf5ebbd8670)" d="M 366.86108 307.584 
L 366.86108 41.472 
" style="fill:none;stroke:#ffffff;stroke-linecap:round;"/>
     </g>
     <g id="text_5">
      <!-- 10 -->
      <defs>
       <path d="M 12.40625 8.296875 
L 28.515625 8.296875 
L 28.515625 63.921875 
L 10.984375 60.40625 
L 10.984375 69.390625 
L 28.421875 72.90625 
L 38.28125 72.90625 
L 38.28125 8.296875 
L 54.390625 8.296875 
L 54.390625 0 
L 12.40625 0 
z
" id="DejaVuSans-31"/>
       <path d="M 31.78125 66.40625 
Q 24.171875 66.40625 20.328125 58.90625 
Q 16.5 51.421875 16.5 36.375 
Q 16.5 21.390625 20.328125 13.890625 
Q 24.171875 6.390625 31.78125 6.390625 
Q 39.453125 6.390625 43.28125 13.890625 
Q 47.125 21.390625 47.125 36.375 
Q 47.125 51.421875 43.28125 58.90625 
Q 39.453125 66.40625 31.78125 66.40625 
z
M 31.78125 74.21875 
Q 44.046875 74.21875 50.515625 64.515625 
Q 56.984375 54.828125 56.984375 36.375 
Q 56.984375 17.96875 50.515625 8.265625 
Q 44.046875 -1.421875 31.78125 -1.421875 
Q 19.53125 -1.421875 13.0625 8.265625 
Q 6.59375 17.96875 6.59375 36.375 
Q 6.59375 54.828125 13.0625 64.515625 
Q 19.53125 74.21875 31.78125 74.21875 
z
" id="DejaVuSans-30"/>
      </defs>
      <g style="fill:#262626;" transform="translate(359.86233 325.442281)scale(0.11 -0.11)">
       <use xlink:href="#DejaVuSans-31"/>
       <use x="63.623047" xlink:href="#DejaVuSans-30"/>
      </g>
     </g>
    </g>
    <g id="text_6">
     <!-- log(n) -->
     <defs>
      <path d="M 9.421875 75.984375 
L 18.40625 75.984375 
L 18.40625 0 
L 9.421875 0 
z
" id="DejaVuSans-6c"/>
      <path d="M 30.609375 48.390625 
Q 23.390625 48.390625 19.1875 42.75 
Q 14.984375 37.109375 14.984375 27.296875 
Q 14.984375 17.484375 19.15625 11.84375 
Q 23.34375 6.203125 30.609375 6.203125 
Q 37.796875 6.203125 41.984375 11.859375 
Q 46.1875 17.53125 46.1875 27.296875 
Q 46.1875 37.015625 41.984375 42.703125 
Q 37.796875 48.390625 30.609375 48.390625 
z
M 30.609375 56 
Q 42.328125 56 49.015625 48.375 
Q 55.71875 40.765625 55.71875 27.296875 
Q 55.71875 13.875 49.015625 6.21875 
Q 42.328125 -1.421875 30.609375 -1.421875 
Q 18.84375 -1.421875 12.171875 6.21875 
Q 5.515625 13.875 5.515625 27.296875 
Q 5.515625 40.765625 12.171875 48.375 
Q 18.84375 56 30.609375 56 
z
" id="DejaVuSans-6f"/>
      <path d="M 45.40625 27.984375 
Q 45.40625 37.75 41.375 43.109375 
Q 37.359375 48.484375 30.078125 48.484375 
Q 22.859375 48.484375 18.828125 43.109375 
Q 14.796875 37.75 14.796875 27.984375 
Q 14.796875 18.265625 18.828125 12.890625 
Q 22.859375 7.515625 30.078125 7.515625 
Q 37.359375 7.515625 41.375 12.890625 
Q 45.40625 18.265625 45.40625 27.984375 
z
M 54.390625 6.78125 
Q 54.390625 -7.171875 48.1875 -13.984375 
Q 42 -20.796875 29.203125 -20.796875 
Q 24.46875 -20.796875 20.265625 -20.09375 
Q 16.0625 -19.390625 12.109375 -17.921875 
L 12.109375 -9.1875 
Q 16.0625 -11.328125 19.921875 -12.34375 
Q 23.78125 -13.375 27.78125 -13.375 
Q 36.625 -13.375 41.015625 -8.765625 
Q 45.40625 -4.15625 45.40625 5.171875 
L 45.40625 9.625 
Q 42.625 4.78125 38.28125 2.390625 
Q 33.9375 0 27.875 0 
Q 17.828125 0 11.671875 7.65625 
Q 5.515625 15.328125 5.515625 27.984375 
Q 5.515625 40.671875 11.671875 48.328125 
Q 17.828125 56 27.875 56 
Q 33.9375 56 38.28125 53.609375 
Q 42.625 51.21875 45.40625 46.390625 
L 45.40625 54.6875 
L 54.390625 54.6875 
z
" id="DejaVuSans-67"/>
      <path d="M 31 75.875 
Q 24.46875 64.65625 21.28125 53.65625 
Q 18.109375 42.671875 18.109375 31.390625 
Q 18.109375 20.125 21.3125 9.0625 
Q 24.515625 -2 31 -13.1875 
L 23.1875 -13.1875 
Q 15.875 -1.703125 12.234375 9.375 
Q 8.59375 20.453125 8.59375 31.390625 
Q 8.59375 42.28125 12.203125 53.3125 
Q 15.828125 64.359375 23.1875 75.875 
z
" id="DejaVuSans-28"/>
      <path d="M 54.890625 33.015625 
L 54.890625 0 
L 45.90625 0 
L 45.90625 32.71875 
Q 45.90625 40.484375 42.875 44.328125 
Q 39.84375 48.1875 33.796875 48.1875 
Q 26.515625 48.1875 22.3125 43.546875 
Q 18.109375 38.921875 18.109375 30.90625 
L 18.109375 0 
L 9.078125 0 
L 9.078125 54.6875 
L 18.109375 54.6875 
L 18.109375 46.1875 
Q 21.34375 51.125 25.703125 53.5625 
Q 30.078125 56 35.796875 56 
Q 45.21875 56 50.046875 50.171875 
Q 54.890625 44.34375 54.890625 33.015625 
z
" id="DejaVuSans-6e"/>
      <path d="M 8.015625 75.875 
L 15.828125 75.875 
Q 23.140625 64.359375 26.78125 53.3125 
Q 30.421875 42.28125 30.421875 31.390625 
Q 30.421875 20.453125 26.78125 9.375 
Q 23.140625 -1.703125 15.828125 -13.1875 
L 8.015625 -13.1875 
Q 14.5 -2 17.703125 9.0625 
Q 20.90625 20.125 20.90625 31.390625 
Q 20.90625 42.671875 17.703125 53.65625 
Q 14.5 64.65625 8.015625 75.875 
z
" id="DejaVuSans-29"/>
     </defs>
     <g style="fill:#262626;" transform="translate(218.528437 340.848062)scale(0.12 -0.12)">
      <use xlink:href="#DejaVuSans-6c"/>
      <use x="27.783203" xlink:href="#DejaVuSans-6f"/>
      <use x="88.964844" xlink:href="#DejaVuSans-67"/>
      <use x="152.441406" xlink:href="#DejaVuSans-28"/>
      <use x="191.455078" xlink:href="#DejaVuSans-6e"/>
      <use x="254.833984" xlink:href="#DejaVuSans-29"/>
     </g>
    </g>
   </g>
   <g id="matplotlib.axis_2">
    <g id="ytick_1">
     <g id="line2d_6">
      <path clip-path="url(#pf5ebbd8670)" d="M 57.6 286.85884 
L 414.72 286.85884 
" style="fill:none;stroke:#ffffff;stroke-linecap:round;"/>
     </g>
     <g id="text_7">
      <!-- −2000 -->
      <defs>
       <path d="M 10.59375 35.5 
L 73.1875 35.5 
L 73.1875 27.203125 
L 10.59375 27.203125 
z
" id="DejaVuSans-2212"/>
       <path d="M 19.1875 8.296875 
L 53.609375 8.296875 
L 53.609375 0 
L 7.328125 0 
L 7.328125 8.296875 
Q 12.9375 14.109375 22.625 23.890625 
Q 32.328125 33.6875 34.8125 36.53125 
Q 39.546875 41.84375 41.421875 45.53125 
Q 43.3125 49.21875 43.3125 52.78125 
Q 43.3125 58.59375 39.234375 62.25 
Q 35.15625 65.921875 28.609375 65.921875 
Q 23.96875 65.921875 18.8125 64.3125 
Q 13.671875 62.703125 7.8125 59.421875 
L 7.8125 69.390625 
Q 13.765625 71.78125 18.9375 73 
Q 24.125 74.21875 28.421875 74.21875 
Q 39.75 74.21875 46.484375 68.546875 
Q 53.21875 62.890625 53.21875 53.421875 
Q 53.21875 48.921875 51.53125 44.890625 
Q 49.859375 40.875 45.40625 35.40625 
Q 44.1875 33.984375 37.640625 27.21875 
Q 31.109375 20.453125 19.1875 8.296875 
z
" id="DejaVuSans-32"/>
      </defs>
      <g style="fill:#262626;" transform="translate(10.887344 291.03798)scale(0.11 -0.11)">
       <use xlink:href="#DejaVuSans-2212"/>
       <use x="83.789062" xlink:href="#DejaVuSans-32"/>
       <use x="147.412109" xlink:href="#DejaVuSans-30"/>
       <use x="211.035156" xlink:href="#DejaVuSans-30"/>
       <use x="274.658203" xlink:href="#DejaVuSans-30"/>
      </g>
     </g>
    </g>
    <g id="ytick_2">
     <g id="line2d_7">
      <path clip-path="url(#pf5ebbd8670)" d="M 57.6 255.362141 
L 414.72 255.362141 
" style="fill:none;stroke:#ffffff;stroke-linecap:round;"/>
     </g>
     <g id="text_8">
      <!-- 0 -->
      <g style="fill:#262626;" transform="translate(41.10125 259.541281)scale(0.11 -0.11)">
       <use xlink:href="#DejaVuSans-30"/>
      </g>
     </g>
    </g>
    <g id="ytick_3">
     <g id="line2d_8">
      <path clip-path="url(#pf5ebbd8670)" d="M 57.6 223.865441 
L 414.72 223.865441 
" style="fill:none;stroke:#ffffff;stroke-linecap:round;"/>
     </g>
     <g id="text_9">
      <!-- 2000 -->
      <g style="fill:#262626;" transform="translate(20.105 228.044582)scale(0.11 -0.11)">
       <use xlink:href="#DejaVuSans-32"/>
       <use x="63.623047" xlink:href="#DejaVuSans-30"/>
       <use x="127.246094" xlink:href="#DejaVuSans-30"/>
       <use x="190.869141" xlink:href="#DejaVuSans-30"/>
      </g>
     </g>
    </g>
    <g id="ytick_4">
     <g id="line2d_9">
      <path clip-path="url(#pf5ebbd8670)" d="M 57.6 192.368742 
L 414.72 192.368742 
" style="fill:none;stroke:#ffffff;stroke-linecap:round;"/>
     </g>
     <g id="text_10">
      <!-- 4000 -->
      <defs>
       <path d="M 37.796875 64.3125 
L 12.890625 25.390625 
L 37.796875 25.390625 
z
M 35.203125 72.90625 
L 47.609375 72.90625 
L 47.609375 25.390625 
L 58.015625 25.390625 
L 58.015625 17.1875 
L 47.609375 17.1875 
L 47.609375 0 
L 37.796875 0 
L 37.796875 17.1875 
L 4.890625 17.1875 
L 4.890625 26.703125 
z
" id="DejaVuSans-34"/>
      </defs>
      <g style="fill:#262626;" transform="translate(20.105 196.547883)scale(0.11 -0.11)">
       <use xlink:href="#DejaVuSans-34"/>
       <use x="63.623047" xlink:href="#DejaVuSans-30"/>
       <use x="127.246094" xlink:href="#DejaVuSans-30"/>
       <use x="190.869141" xlink:href="#DejaVuSans-30"/>
      </g>
     </g>
    </g>
    <g id="ytick_5">
     <g id="line2d_10">
      <path clip-path="url(#pf5ebbd8670)" d="M 57.6 160.872043 
L 414.72 160.872043 
" style="fill:none;stroke:#ffffff;stroke-linecap:round;"/>
     </g>
     <g id="text_11">
      <!-- 6000 -->
      <g style="fill:#262626;" transform="translate(20.105 165.051184)scale(0.11 -0.11)">
       <use xlink:href="#DejaVuSans-36"/>
       <use x="63.623047" xlink:href="#DejaVuSans-30"/>
       <use x="127.246094" xlink:href="#DejaVuSans-30"/>
       <use x="190.869141" xlink:href="#DejaVuSans-30"/>
      </g>
     </g>
    </g>
    <g id="ytick_6">
     <g id="line2d_11">
      <path clip-path="url(#pf5ebbd8670)" d="M 57.6 129.375344 
L 414.72 129.375344 
" style="fill:none;stroke:#ffffff;stroke-linecap:round;"/>
     </g>
     <g id="text_12">
      <!-- 8000 -->
      <g style="fill:#262626;" transform="translate(20.105 133.554484)scale(0.11 -0.11)">
       <use xlink:href="#DejaVuSans-38"/>
       <use x="63.623047" xlink:href="#DejaVuSans-30"/>
       <use x="127.246094" xlink:href="#DejaVuSans-30"/>
       <use x="190.869141" xlink:href="#DejaVuSans-30"/>
      </g>
     </g>
    </g>
    <g id="ytick_7">
     <g id="line2d_12">
      <path clip-path="url(#pf5ebbd8670)" d="M 57.6 97.878644 
L 414.72 97.878644 
" style="fill:none;stroke:#ffffff;stroke-linecap:round;"/>
     </g>
     <g id="text_13">
      <!-- 10000 -->
      <g style="fill:#262626;" transform="translate(13.10625 102.057785)scale(0.11 -0.11)">
       <use xlink:href="#DejaVuSans-31"/>
       <use x="63.623047" xlink:href="#DejaVuSans-30"/>
       <use x="127.246094" xlink:href="#DejaVuSans-30"/>
       <use x="190.869141" xlink:href="#DejaVuSans-30"/>
       <use x="254.492188" xlink:href="#DejaVuSans-30"/>
      </g>
     </g>
    </g>
    <g id="ytick_8">
     <g id="line2d_13">
      <path clip-path="url(#pf5ebbd8670)" d="M 57.6 66.381945 
L 414.72 66.381945 
" style="fill:none;stroke:#ffffff;stroke-linecap:round;"/>
     </g>
     <g id="text_14">
      <!-- 12000 -->
      <g style="fill:#262626;" transform="translate(13.10625 70.561086)scale(0.11 -0.11)">
       <use xlink:href="#DejaVuSans-31"/>
       <use x="63.623047" xlink:href="#DejaVuSans-32"/>
       <use x="127.246094" xlink:href="#DejaVuSans-30"/>
       <use x="190.869141" xlink:href="#DejaVuSans-30"/>
       <use x="254.492188" xlink:href="#DejaVuSans-30"/>
      </g>
     </g>
    </g>
    <g id="text_15">
     <!-- Time (days) -->
     <defs>
      <path d="M -0.296875 72.90625 
L 61.375 72.90625 
L 61.375 64.59375 
L 35.5 64.59375 
L 35.5 0 
L 25.59375 0 
L 25.59375 64.59375 
L -0.296875 64.59375 
z
" id="DejaVuSans-54"/>
      <path d="M 9.421875 54.6875 
L 18.40625 54.6875 
L 18.40625 0 
L 9.421875 0 
z
M 9.421875 75.984375 
L 18.40625 75.984375 
L 18.40625 64.59375 
L 9.421875 64.59375 
z
" id="DejaVuSans-69"/>
      <path d="M 52 44.1875 
Q 55.375 50.25 60.0625 53.125 
Q 64.75 56 71.09375 56 
Q 79.640625 56 84.28125 50.015625 
Q 88.921875 44.046875 88.921875 33.015625 
L 88.921875 0 
L 79.890625 0 
L 79.890625 32.71875 
Q 79.890625 40.578125 77.09375 44.375 
Q 74.3125 48.1875 68.609375 48.1875 
Q 61.625 48.1875 57.5625 43.546875 
Q 53.515625 38.921875 53.515625 30.90625 
L 53.515625 0 
L 44.484375 0 
L 44.484375 32.71875 
Q 44.484375 40.625 41.703125 44.40625 
Q 38.921875 48.1875 33.109375 48.1875 
Q 26.21875 48.1875 22.15625 43.53125 
Q 18.109375 38.875 18.109375 30.90625 
L 18.109375 0 
L 9.078125 0 
L 9.078125 54.6875 
L 18.109375 54.6875 
L 18.109375 46.1875 
Q 21.1875 51.21875 25.484375 53.609375 
Q 29.78125 56 35.6875 56 
Q 41.65625 56 45.828125 52.96875 
Q 50 49.953125 52 44.1875 
z
" id="DejaVuSans-6d"/>
      <path d="M 56.203125 29.59375 
L 56.203125 25.203125 
L 14.890625 25.203125 
Q 15.484375 15.921875 20.484375 11.0625 
Q 25.484375 6.203125 34.421875 6.203125 
Q 39.59375 6.203125 44.453125 7.46875 
Q 49.3125 8.734375 54.109375 11.28125 
L 54.109375 2.78125 
Q 49.265625 0.734375 44.1875 -0.34375 
Q 39.109375 -1.421875 33.890625 -1.421875 
Q 20.796875 -1.421875 13.15625 6.1875 
Q 5.515625 13.8125 5.515625 26.8125 
Q 5.515625 40.234375 12.765625 48.109375 
Q 20.015625 56 32.328125 56 
Q 43.359375 56 49.78125 48.890625 
Q 56.203125 41.796875 56.203125 29.59375 
z
M 47.21875 32.234375 
Q 47.125 39.59375 43.09375 43.984375 
Q 39.0625 48.390625 32.421875 48.390625 
Q 24.90625 48.390625 20.390625 44.140625 
Q 15.875 39.890625 15.1875 32.171875 
z
" id="DejaVuSans-65"/>
      <path id="DejaVuSans-20"/>
      <path d="M 45.40625 46.390625 
L 45.40625 75.984375 
L 54.390625 75.984375 
L 54.390625 0 
L 45.40625 0 
L 45.40625 8.203125 
Q 42.578125 3.328125 38.25 0.953125 
Q 33.9375 -1.421875 27.875 -1.421875 
Q 17.96875 -1.421875 11.734375 6.484375 
Q 5.515625 14.40625 5.515625 27.296875 
Q 5.515625 40.1875 11.734375 48.09375 
Q 17.96875 56 27.875 56 
Q 33.9375 56 38.25 53.625 
Q 42.578125 51.265625 45.40625 46.390625 
z
M 14.796875 27.296875 
Q 14.796875 17.390625 18.875 11.75 
Q 22.953125 6.109375 30.078125 6.109375 
Q 37.203125 6.109375 41.296875 11.75 
Q 45.40625 17.390625 45.40625 27.296875 
Q 45.40625 37.203125 41.296875 42.84375 
Q 37.203125 48.484375 30.078125 48.484375 
Q 22.953125 48.484375 18.875 42.84375 
Q 14.796875 37.203125 14.796875 27.296875 
z
" id="DejaVuSans-64"/>
      <path d="M 34.28125 27.484375 
Q 23.390625 27.484375 19.1875 25 
Q 14.984375 22.515625 14.984375 16.5 
Q 14.984375 11.71875 18.140625 8.90625 
Q 21.296875 6.109375 26.703125 6.109375 
Q 34.1875 6.109375 38.703125 11.40625 
Q 43.21875 16.703125 43.21875 25.484375 
L 43.21875 27.484375 
z
M 52.203125 31.203125 
L 52.203125 0 
L 43.21875 0 
L 43.21875 8.296875 
Q 40.140625 3.328125 35.546875 0.953125 
Q 30.953125 -1.421875 24.3125 -1.421875 
Q 15.921875 -1.421875 10.953125 3.296875 
Q 6 8.015625 6 15.921875 
Q 6 25.140625 12.171875 29.828125 
Q 18.359375 34.515625 30.609375 34.515625 
L 43.21875 34.515625 
L 43.21875 35.40625 
Q 43.21875 41.609375 39.140625 45 
Q 35.0625 48.390625 27.6875 48.390625 
Q 23 48.390625 18.546875 47.265625 
Q 14.109375 46.140625 10.015625 43.890625 
L 10.015625 52.203125 
Q 14.9375 54.109375 19.578125 55.046875 
Q 24.21875 56 28.609375 56 
Q 40.484375 56 46.34375 49.84375 
Q 52.203125 43.703125 52.203125 31.203125 
z
" id="DejaVuSans-61"/>
      <path d="M 32.171875 -5.078125 
Q 28.375 -14.84375 24.75 -17.8125 
Q 21.140625 -20.796875 15.09375 -20.796875 
L 7.90625 -20.796875 
L 7.90625 -13.28125 
L 13.1875 -13.28125 
Q 16.890625 -13.28125 18.9375 -11.515625 
Q 21 -9.765625 23.484375 -3.21875 
L 25.09375 0.875 
L 2.984375 54.6875 
L 12.5 54.6875 
L 29.59375 11.921875 
L 46.6875 54.6875 
L 56.203125 54.6875 
z
" id="DejaVuSans-79"/>
      <path d="M 44.28125 53.078125 
L 44.28125 44.578125 
Q 40.484375 46.53125 36.375 47.5 
Q 32.28125 48.484375 27.875 48.484375 
Q 21.1875 48.484375 17.84375 46.4375 
Q 14.5 44.390625 14.5 40.28125 
Q 14.5 37.15625 16.890625 35.375 
Q 19.28125 33.59375 26.515625 31.984375 
L 29.59375 31.296875 
Q 39.15625 29.25 43.1875 25.515625 
Q 47.21875 21.78125 47.21875 15.09375 
Q 47.21875 7.46875 41.1875 3.015625 
Q 35.15625 -1.421875 24.609375 -1.421875 
Q 20.21875 -1.421875 15.453125 -0.5625 
Q 10.6875 0.296875 5.421875 2 
L 5.421875 11.28125 
Q 10.40625 8.6875 15.234375 7.390625 
Q 20.0625 6.109375 24.8125 6.109375 
Q 31.15625 6.109375 34.5625 8.28125 
Q 37.984375 10.453125 37.984375 14.40625 
Q 37.984375 18.0625 35.515625 20.015625 
Q 33.0625 21.96875 24.703125 23.78125 
L 21.578125 24.515625 
Q 13.234375 26.265625 9.515625 29.90625 
Q 5.8125 33.546875 5.8125 39.890625 
Q 5.8125 47.609375 11.28125 51.796875 
Q 16.75 56 26.8125 56 
Q 31.78125 56 36.171875 55.265625 
Q 40.578125 54.546875 44.28125 53.078125 
z
" id="DejaVuSans-73"/>
     </defs>
     <g style="fill:#262626;" transform="translate(4.391719 210.144563)rotate(-90)scale(0.12 -0.12)">
      <use xlink:href="#DejaVuSans-54"/>
      <use x="61.037109" xlink:href="#DejaVuSans-69"/>
      <use x="88.820312" xlink:href="#DejaVuSans-6d"/>
      <use x="186.232422" xlink:href="#DejaVuSans-65"/>
      <use x="247.755859" xlink:href="#DejaVuSans-20"/>
      <use x="279.542969" xlink:href="#DejaVuSans-28"/>
      <use x="318.556641" xlink:href="#DejaVuSans-64"/>
      <use x="382.033203" xlink:href="#DejaVuSans-61"/>
      <use x="443.3125" xlink:href="#DejaVuSans-79"/>
      <use x="502.492188" xlink:href="#DejaVuSans-73"/>
      <use x="554.591797" xlink:href="#DejaVuSans-29"/>
     </g>
    </g>
   </g>
   <g id="LineCollection_1">
    <path clip-path="url(#pf5ebbd8670)" d="M 73.832727 267.733346 
L 73.832727 230.231417 
" style="fill:none;stroke:#471365;stroke-width:1.5;"/>
    <path clip-path="url(#pf5ebbd8670)" d="M 106.298182 265.88874 
L 106.298182 214.424042 
" style="fill:none;stroke:#471365;stroke-width:1.5;"/>
    <path clip-path="url(#pf5ebbd8670)" d="M 138.763636 259.819507 
L 138.763636 206.154547 
" style="fill:none;stroke:#471365;stroke-width:1.5;"/>
    <path clip-path="url(#pf5ebbd8670)" d="M 171.229091 255.088935 
L 171.229091 205.173048 
" style="fill:none;stroke:#471365;stroke-width:1.5;"/>
    <path clip-path="url(#pf5ebbd8670)" d="M 203.694545 252.514638 
L 203.694545 208.934383 
" style="fill:none;stroke:#471365;stroke-width:1.5;"/>
    <path clip-path="url(#pf5ebbd8670)" d="M 236.16 250.871292 
L 236.16 214.281296 
" style="fill:none;stroke:#471365;stroke-width:1.5;"/>
    <path clip-path="url(#pf5ebbd8670)" d="M 268.625455 249.202314 
L 268.625455 220.552428 
" style="fill:none;stroke:#471365;stroke-width:1.5;"/>
    <path clip-path="url(#pf5ebbd8670)" d="M 301.090909 247.284323 
L 301.090909 225.347579 
" style="fill:none;stroke:#471365;stroke-width:1.5;"/>
    <path clip-path="url(#pf5ebbd8670)" d="M 333.556364 245.914671 
L 333.556364 228.543315 
" style="fill:none;stroke:#471365;stroke-width:1.5;"/>
    <path clip-path="url(#pf5ebbd8670)" d="M 366.021818 244.702967 
L 366.021818 230.843732 
" style="fill:none;stroke:#471365;stroke-width:1.5;"/>
    <path clip-path="url(#pf5ebbd8670)" d="M 398.487273 244.120354 
L 398.487273 231.858778 
" style="fill:none;stroke:#471365;stroke-width:1.5;"/>
   </g>
   <g id="LineCollection_2">
    <path clip-path="url(#pf5ebbd8670)" d="M 73.832727 278.341283 
L 73.832727 205.045798 
" style="fill:none;stroke:#482374;stroke-width:1.5;"/>
    <path clip-path="url(#pf5ebbd8670)" d="M 106.298182 270.97685 
L 106.298182 171.484396 
" style="fill:none;stroke:#482374;stroke-width:1.5;"/>
    <path clip-path="url(#pf5ebbd8670)" d="M 138.763636 251.858142 
L 138.763636 150.818246 
" style="fill:none;stroke:#482374;stroke-width:1.5;"/>
    <path clip-path="url(#pf5ebbd8670)" d="M 171.229091 234.092893 
L 171.229091 144.485557 
" style="fill:none;stroke:#482374;stroke-width:1.5;"/>
    <path clip-path="url(#pf5ebbd8670)" d="M 203.694545 224.299198 
L 203.694545 145.892723 
" style="fill:none;stroke:#482374;stroke-width:1.5;"/>
    <path clip-path="url(#pf5ebbd8670)" d="M 236.16 224.490595 
L 236.16 148.593605 
" style="fill:none;stroke:#482374;stroke-width:1.5;"/>
    <path clip-path="url(#pf5ebbd8670)" d="M 268.625455 232.988425 
L 268.625455 152.334204 
" style="fill:none;stroke:#482374;stroke-width:1.5;"/>
    <path clip-path="url(#pf5ebbd8670)" d="M 301.090909 243.282236 
L 301.090909 156.060967 
" style="fill:none;stroke:#482374;stroke-width:1.5;"/>
    <path clip-path="url(#pf5ebbd8670)" d="M 333.556364 253.087051 
L 333.556364 162.641295 
" style="fill:none;stroke:#482374;stroke-width:1.5;"/>
    <path clip-path="url(#pf5ebbd8670)" d="M 366.021818 259.587841 
L 366.021818 170.893922 
" style="fill:none;stroke:#482374;stroke-width:1.5;"/>
    <path clip-path="url(#pf5ebbd8670)" d="M 398.487273 262.893975 
L 398.487273 180.571842 
" style="fill:none;stroke:#482374;stroke-width:1.5;"/>
   </g>
   <g id="LineCollection_3">
    <path clip-path="url(#pf5ebbd8670)" d="M 73.832727 284.552208 
L 73.832727 189.922311 
" style="fill:none;stroke:#46327e;stroke-width:1.5;"/>
    <path clip-path="url(#pf5ebbd8670)" d="M 106.298182 274.567059 
L 106.298182 142.743042 
" style="fill:none;stroke:#46327e;stroke-width:1.5;"/>
    <path clip-path="url(#pf5ebbd8670)" d="M 138.763636 246.955112 
L 138.763636 113.377076 
" style="fill:none;stroke:#46327e;stroke-width:1.5;"/>
    <path clip-path="url(#pf5ebbd8670)" d="M 171.229091 220.44011 
L 171.229091 105.369604 
" style="fill:none;stroke:#46327e;stroke-width:1.5;"/>
    <path clip-path="url(#pf5ebbd8670)" d="M 203.694545 200.978333 
L 203.694545 108.393626 
" style="fill:none;stroke:#46327e;stroke-width:1.5;"/>
    <path clip-path="url(#pf5ebbd8670)" d="M 236.16 188.556891 
L 236.16 114.469437 
" style="fill:none;stroke:#46327e;stroke-width:1.5;"/>
    <path clip-path="url(#pf5ebbd8670)" d="M 268.625455 181.643281 
L 268.625455 120.605517 
" style="fill:none;stroke:#46327e;stroke-width:1.5;"/>
    <path clip-path="url(#pf5ebbd8670)" d="M 301.090909 180.496865 
L 301.090909 123.817829 
" style="fill:none;stroke:#46327e;stroke-width:1.5;"/>
    <path clip-path="url(#pf5ebbd8670)" d="M 333.556364 184.446589 
L 333.556364 127.035778 
" style="fill:none;stroke:#46327e;stroke-width:1.5;"/>
    <path clip-path="url(#pf5ebbd8670)" d="M 366.021818 192.635011 
L 366.021818 129.877648 
" style="fill:none;stroke:#46327e;stroke-width:1.5;"/>
    <path clip-path="url(#pf5ebbd8670)" d="M 398.487273 205.28147 
L 398.487273 134.122053 
" style="fill:none;stroke:#46327e;stroke-width:1.5;"/>
   </g>
   <g id="LineCollection_4">
    <path clip-path="url(#pf5ebbd8670)" d="M 73.832727 295.488 
L 73.832727 165.127556 
" style="fill:none;stroke:#424086;stroke-width:1.5;"/>
    <path clip-path="url(#pf5ebbd8670)" d="M 106.298182 280.950029 
L 106.298182 102.311945 
" style="fill:none;stroke:#424086;stroke-width:1.5;"/>
    <path clip-path="url(#pf5ebbd8670)" d="M 138.763636 243.021907 
L 138.763636 63.328397 
" style="fill:none;stroke:#424086;stroke-width:1.5;"/>
    <path clip-path="url(#pf5ebbd8670)" d="M 171.229091 207.88123 
L 171.229091 53.568 
" style="fill:none;stroke:#424086;stroke-width:1.5;"/>
    <path clip-path="url(#pf5ebbd8670)" d="M 203.694545 184.99728 
L 203.694545 59.938101 
" style="fill:none;stroke:#424086;stroke-width:1.5;"/>
    <path clip-path="url(#pf5ebbd8670)" d="M 236.16 175.732919 
L 236.16 73.556374 
" style="fill:none;stroke:#424086;stroke-width:1.5;"/>
    <path clip-path="url(#pf5ebbd8670)" d="M 268.625455 173.613914 
L 268.625455 87.77917 
" style="fill:none;stroke:#424086;stroke-width:1.5;"/>
    <path clip-path="url(#pf5ebbd8670)" d="M 301.090909 175.373973 
L 301.090909 99.003968 
" style="fill:none;stroke:#424086;stroke-width:1.5;"/>
    <path clip-path="url(#pf5ebbd8670)" d="M 333.556364 176.426792 
L 333.556364 109.180145 
" style="fill:none;stroke:#424086;stroke-width:1.5;"/>
    <path clip-path="url(#pf5ebbd8670)" d="M 366.021818 177.516512 
L 366.021818 117.418066 
" style="fill:none;stroke:#424086;stroke-width:1.5;"/>
    <path clip-path="url(#pf5ebbd8670)" d="M 398.487273 179.293416 
L 398.487273 123.723923 
" style="fill:none;stroke:#424086;stroke-width:1.5;"/>
   </g>
   <g id="line2d_14">
    <defs>
     <path d="M 3 0 
L -3 -0 
" id="m428ef066d6" style="stroke:#471365;"/>
    </defs>
    <g clip-path="url(#pf5ebbd8670)">
     <use style="fill:#471365;stroke:#471365;" x="73.832727" xlink:href="#m428ef066d6" y="267.733346"/>
     <use style="fill:#471365;stroke:#471365;" x="106.298182" xlink:href="#m428ef066d6" y="265.88874"/>
     <use style="fill:#471365;stroke:#471365;" x="138.763636" xlink:href="#m428ef066d6" y="259.819507"/>
     <use style="fill:#471365;stroke:#471365;" x="171.229091" xlink:href="#m428ef066d6" y="255.088935"/>
     <use style="fill:#471365;stroke:#471365;" x="203.694545" xlink:href="#m428ef066d6" y="252.514638"/>
     <use style="fill:#471365;stroke:#471365;" x="236.16" xlink:href="#m428ef066d6" y="250.871292"/>
     <use style="fill:#471365;stroke:#471365;" x="268.625455" xlink:href="#m428ef066d6" y="249.202314"/>
     <use style="fill:#471365;stroke:#471365;" x="301.090909" xlink:href="#m428ef066d6" y="247.284323"/>
     <use style="fill:#471365;stroke:#471365;" x="333.556364" xlink:href="#m428ef066d6" y="245.914671"/>
     <use style="fill:#471365;stroke:#471365;" x="366.021818" xlink:href="#m428ef066d6" y="244.702967"/>
     <use style="fill:#471365;stroke:#471365;" x="398.487273" xlink:href="#m428ef066d6" y="244.120354"/>
    </g>
   </g>
   <g id="line2d_15">
    <g clip-path="url(#pf5ebbd8670)">
     <use style="fill:#471365;stroke:#471365;" x="73.832727" xlink:href="#m428ef066d6" y="230.231417"/>
     <use style="fill:#471365;stroke:#471365;" x="106.298182" xlink:href="#m428ef066d6" y="214.424042"/>
     <use style="fill:#471365;stroke:#471365;" x="138.763636" xlink:href="#m428ef066d6" y="206.154547"/>
     <use style="fill:#471365;stroke:#471365;" x="171.229091" xlink:href="#m428ef066d6" y="205.173048"/>
     <use style="fill:#471365;stroke:#471365;" x="203.694545" xlink:href="#m428ef066d6" y="208.934383"/>
     <use style="fill:#471365;stroke:#471365;" x="236.16" xlink:href="#m428ef066d6" y="214.281296"/>
     <use style="fill:#471365;stroke:#471365;" x="268.625455" xlink:href="#m428ef066d6" y="220.552428"/>
     <use style="fill:#471365;stroke:#471365;" x="301.090909" xlink:href="#m428ef066d6" y="225.347579"/>
     <use style="fill:#471365;stroke:#471365;" x="333.556364" xlink:href="#m428ef066d6" y="228.543315"/>
     <use style="fill:#471365;stroke:#471365;" x="366.021818" xlink:href="#m428ef066d6" y="230.843732"/>
     <use style="fill:#471365;stroke:#471365;" x="398.487273" xlink:href="#m428ef066d6" y="231.858778"/>
    </g>
   </g>
   <g id="line2d_16">
    <defs>
     <path d="M 3 0 
L -3 -0 
" id="md05a2d227a" style="stroke:#482374;"/>
    </defs>
    <g clip-path="url(#pf5ebbd8670)">
     <use style="fill:#482374;stroke:#482374;" x="73.832727" xlink:href="#md05a2d227a" y="278.341283"/>
     <use style="fill:#482374;stroke:#482374;" x="106.298182" xlink:href="#md05a2d227a" y="270.97685"/>
     <use style="fill:#482374;stroke:#482374;" x="138.763636" xlink:href="#md05a2d227a" y="251.858142"/>
     <use style="fill:#482374;stroke:#482374;" x="171.229091" xlink:href="#md05a2d227a" y="234.092893"/>
     <use style="fill:#482374;stroke:#482374;" x="203.694545" xlink:href="#md05a2d227a" y="224.299198"/>
     <use style="fill:#482374;stroke:#482374;" x="236.16" xlink:href="#md05a2d227a" y="224.490595"/>
     <use style="fill:#482374;stroke:#482374;" x="268.625455" xlink:href="#md05a2d227a" y="232.988425"/>
     <use style="fill:#482374;stroke:#482374;" x="301.090909" xlink:href="#md05a2d227a" y="243.282236"/>
     <use style="fill:#482374;stroke:#482374;" x="333.556364" xlink:href="#md05a2d227a" y="253.087051"/>
     <use style="fill:#482374;stroke:#482374;" x="366.021818" xlink:href="#md05a2d227a" y="259.587841"/>
     <use style="fill:#482374;stroke:#482374;" x="398.487273" xlink:href="#md05a2d227a" y="262.893975"/>
    </g>
   </g>
   <g id="line2d_17">
    <g clip-path="url(#pf5ebbd8670)">
     <use style="fill:#482374;stroke:#482374;" x="73.832727" xlink:href="#md05a2d227a" y="205.045798"/>
     <use style="fill:#482374;stroke:#482374;" x="106.298182" xlink:href="#md05a2d227a" y="171.484396"/>
     <use style="fill:#482374;stroke:#482374;" x="138.763636" xlink:href="#md05a2d227a" y="150.818246"/>
     <use style="fill:#482374;stroke:#482374;" x="171.229091" xlink:href="#md05a2d227a" y="144.485557"/>
     <use style="fill:#482374;stroke:#482374;" x="203.694545" xlink:href="#md05a2d227a" y="145.892723"/>
     <use style="fill:#482374;stroke:#482374;" x="236.16" xlink:href="#md05a2d227a" y="148.593605"/>
     <use style="fill:#482374;stroke:#482374;" x="268.625455" xlink:href="#md05a2d227a" y="152.334204"/>
     <use style="fill:#482374;stroke:#482374;" x="301.090909" xlink:href="#md05a2d227a" y="156.060967"/>
     <use style="fill:#482374;stroke:#482374;" x="333.556364" xlink:href="#md05a2d227a" y="162.641295"/>
     <use style="fill:#482374;stroke:#482374;" x="366.021818" xlink:href="#md05a2d227a" y="170.893922"/>
     <use style="fill:#482374;stroke:#482374;" x="398.487273" xlink:href="#md05a2d227a" y="180.571842"/>
    </g>
   </g>
   <g id="line2d_18">
    <defs>
     <path d="M 3 0 
L -3 -0 
" id="m27663192c0" style="stroke:#46327e;"/>
    </defs>
    <g clip-path="url(#pf5ebbd8670)">
     <use style="fill:#46327e;stroke:#46327e;" x="73.832727" xlink:href="#m27663192c0" y="284.552208"/>
     <use style="fill:#46327e;stroke:#46327e;" x="106.298182" xlink:href="#m27663192c0" y="274.567059"/>
     <use style="fill:#46327e;stroke:#46327e;" x="138.763636" xlink:href="#m27663192c0" y="246.955112"/>
     <use style="fill:#46327e;stroke:#46327e;" x="171.229091" xlink:href="#m27663192c0" y="220.44011"/>
     <use style="fill:#46327e;stroke:#46327e;" x="203.694545" xlink:href="#m27663192c0" y="200.978333"/>
     <use style="fill:#46327e;stroke:#46327e;" x="236.16" xlink:href="#m27663192c0" y="188.556891"/>
     <use style="fill:#46327e;stroke:#46327e;" x="268.625455" xlink:href="#m27663192c0" y="181.643281"/>
     <use style="fill:#46327e;stroke:#46327e;" x="301.090909" xlink:href="#m27663192c0" y="180.496865"/>
     <use style="fill:#46327e;stroke:#46327e;" x="333.556364" xlink:href="#m27663192c0" y="184.446589"/>
     <use style="fill:#46327e;stroke:#46327e;" x="366.021818" xlink:href="#m27663192c0" y="192.635011"/>
     <use style="fill:#46327e;stroke:#46327e;" x="398.487273" xlink:href="#m27663192c0" y="205.28147"/>
    </g>
   </g>
   <g id="line2d_19">
    <g clip-path="url(#pf5ebbd8670)">
     <use style="fill:#46327e;stroke:#46327e;" x="73.832727" xlink:href="#m27663192c0" y="189.922311"/>
     <use style="fill:#46327e;stroke:#46327e;" x="106.298182" xlink:href="#m27663192c0" y="142.743042"/>
     <use style="fill:#46327e;stroke:#46327e;" x="138.763636" xlink:href="#m27663192c0" y="113.377076"/>
     <use style="fill:#46327e;stroke:#46327e;" x="171.229091" xlink:href="#m27663192c0" y="105.369604"/>
     <use style="fill:#46327e;stroke:#46327e;" x="203.694545" xlink:href="#m27663192c0" y="108.393626"/>
     <use style="fill:#46327e;stroke:#46327e;" x="236.16" xlink:href="#m27663192c0" y="114.469437"/>
     <use style="fill:#46327e;stroke:#46327e;" x="268.625455" xlink:href="#m27663192c0" y="120.605517"/>
     <use style="fill:#46327e;stroke:#46327e;" x="301.090909" xlink:href="#m27663192c0" y="123.817829"/>
     <use style="fill:#46327e;stroke:#46327e;" x="333.556364" xlink:href="#m27663192c0" y="127.035778"/>
     <use style="fill:#46327e;stroke:#46327e;" x="366.021818" xlink:href="#m27663192c0" y="129.877648"/>
     <use style="fill:#46327e;stroke:#46327e;" x="398.487273" xlink:href="#m27663192c0" y="134.122053"/>
    </g>
   </g>
   <g id="line2d_20">
    <defs>
     <path d="M 3 0 
L -3 -0 
" id="m2c413ce8ff" style="stroke:#424086;"/>
    </defs>
    <g clip-path="url(#pf5ebbd8670)">
     <use style="fill:#424086;stroke:#424086;" x="73.832727" xlink:href="#m2c413ce8ff" y="295.488"/>
     <use style="fill:#424086;stroke:#424086;" x="106.298182" xlink:href="#m2c413ce8ff" y="280.950029"/>
     <use style="fill:#424086;stroke:#424086;" x="138.763636" xlink:href="#m2c413ce8ff" y="243.021907"/>
     <use style="fill:#424086;stroke:#424086;" x="171.229091" xlink:href="#m2c413ce8ff" y="207.88123"/>
     <use style="fill:#424086;stroke:#424086;" x="203.694545" xlink:href="#m2c413ce8ff" y="184.99728"/>
     <use style="fill:#424086;stroke:#424086;" x="236.16" xlink:href="#m2c413ce8ff" y="175.732919"/>
     <use style="fill:#424086;stroke:#424086;" x="268.625455" xlink:href="#m2c413ce8ff" y="173.613914"/>
     <use style="fill:#424086;stroke:#424086;" x="301.090909" xlink:href="#m2c413ce8ff" y="175.373973"/>
     <use style="fill:#424086;stroke:#424086;" x="333.556364" xlink:href="#m2c413ce8ff" y="176.426792"/>
     <use style="fill:#424086;stroke:#424086;" x="366.021818" xlink:href="#m2c413ce8ff" y="177.516512"/>
     <use style="fill:#424086;stroke:#424086;" x="398.487273" xlink:href="#m2c413ce8ff" y="179.293416"/>
    </g>
   </g>
   <g id="line2d_21">
    <g clip-path="url(#pf5ebbd8670)">
     <use style="fill:#424086;stroke:#424086;" x="73.832727" xlink:href="#m2c413ce8ff" y="165.127556"/>
     <use style="fill:#424086;stroke:#424086;" x="106.298182" xlink:href="#m2c413ce8ff" y="102.311945"/>
     <use style="fill:#424086;stroke:#424086;" x="138.763636" xlink:href="#m2c413ce8ff" y="63.328397"/>
     <use style="fill:#424086;stroke:#424086;" x="171.229091" xlink:href="#m2c413ce8ff" y="53.568"/>
     <use style="fill:#424086;stroke:#424086;" x="203.694545" xlink:href="#m2c413ce8ff" y="59.938101"/>
     <use style="fill:#424086;stroke:#424086;" x="236.16" xlink:href="#m2c413ce8ff" y="73.556374"/>
     <use style="fill:#424086;stroke:#424086;" x="268.625455" xlink:href="#m2c413ce8ff" y="87.77917"/>
     <use style="fill:#424086;stroke:#424086;" x="301.090909" xlink:href="#m2c413ce8ff" y="99.003968"/>
     <use style="fill:#424086;stroke:#424086;" x="333.556364" xlink:href="#m2c413ce8ff" y="109.180145"/>
     <use style="fill:#424086;stroke:#424086;" x="366.021818" xlink:href="#m2c413ce8ff" y="117.418066"/>
     <use style="fill:#424086;stroke:#424086;" x="398.487273" xlink:href="#m2c413ce8ff" y="123.723923"/>
    </g>
   </g>
   <g id="line2d_22">
    <path clip-path="url(#pf5ebbd8670)" d="M 73.832727 248.982382 
L 106.298182 240.156391 
L 138.763636 232.987027 
L 171.229091 230.130992 
L 203.694545 230.724511 
L 236.16 232.576294 
L 268.625455 234.877371 
L 301.090909 236.315951 
L 333.556364 237.228993 
L 366.021818 237.773349 
L 398.487273 237.989566 
" style="fill:none;stroke:#471365;stroke-linecap:round;stroke-width:1.5;"/>
   </g>
   <g id="line2d_23">
    <path clip-path="url(#pf5ebbd8670)" d="M 73.832727 241.69354 
L 106.298182 221.230623 
L 138.763636 201.338194 
L 171.229091 189.289225 
L 203.694545 185.095961 
L 236.16 186.5421 
L 268.625455 192.661315 
L 301.090909 199.671601 
L 333.556364 207.864173 
L 366.021818 215.240881 
L 398.487273 221.732909 
" style="fill:none;stroke:#482374;stroke-linecap:round;stroke-width:1.5;"/>
   </g>
   <g id="line2d_24">
    <path clip-path="url(#pf5ebbd8670)" d="M 73.832727 237.237259 
L 106.298182 208.655051 
L 138.763636 180.166094 
L 171.229091 162.904857 
L 203.694545 154.685979 
L 236.16 151.513164 
L 268.625455 151.124399 
L 301.090909 152.157347 
L 333.556364 155.741183 
L 366.021818 161.256329 
L 398.487273 169.701761 
" style="fill:none;stroke:#46327e;stroke-linecap:round;stroke-width:1.5;"/>
   </g>
   <g id="line2d_25">
    <path clip-path="url(#pf5ebbd8670)" d="M 73.832727 230.307778 
L 106.298182 191.630987 
L 138.763636 153.175152 
L 171.229091 130.724615 
L 203.694545 122.467691 
L 236.16 124.644647 
L 268.625455 130.696542 
L 301.090909 137.188971 
L 333.556364 142.803468 
L 366.021818 147.467289 
L 398.487273 151.50867 
" style="fill:none;stroke:#424086;stroke-linecap:round;stroke-width:1.5;"/>
   </g>
   <g id="patch_3">
    <path d="M 57.6 307.584 
L 57.6 41.472 
" style="fill:none;stroke:#ffffff;stroke-linecap:square;stroke-linejoin:miter;stroke-width:1.25;"/>
   </g>
   <g id="patch_4">
    <path d="M 414.72 307.584 
L 414.72 41.472 
" style="fill:none;stroke:#ffffff;stroke-linecap:square;stroke-linejoin:miter;stroke-width:1.25;"/>
   </g>
   <g id="patch_5">
    <path d="M 57.6 307.584 
L 414.72 307.584 
" style="fill:none;stroke:#ffffff;stroke-linecap:square;stroke-linejoin:miter;stroke-width:1.25;"/>
   </g>
   <g id="patch_6">
    <path d="M 57.6 41.472 
L 414.72 41.472 
" style="fill:none;stroke:#ffffff;stroke-linecap:square;stroke-linejoin:miter;stroke-width:1.25;"/>
   </g>
   <g id="text_16">
    <!-- Waiting times across mutations -->
    <defs>
     <path d="M 3.328125 72.90625 
L 13.28125 72.90625 
L 28.609375 11.28125 
L 43.890625 72.90625 
L 54.984375 72.90625 
L 70.3125 11.28125 
L 85.59375 72.90625 
L 95.609375 72.90625 
L 77.296875 0 
L 64.890625 0 
L 49.515625 63.28125 
L 33.984375 0 
L 21.578125 0 
z
" id="DejaVuSans-57"/>
     <path d="M 18.3125 70.21875 
L 18.3125 54.6875 
L 36.8125 54.6875 
L 36.8125 47.703125 
L 18.3125 47.703125 
L 18.3125 18.015625 
Q 18.3125 11.328125 20.140625 9.421875 
Q 21.96875 7.515625 27.59375 7.515625 
L 36.8125 7.515625 
L 36.8125 0 
L 27.59375 0 
Q 17.1875 0 13.234375 3.875 
Q 9.28125 7.765625 9.28125 18.015625 
L 9.28125 47.703125 
L 2.6875 47.703125 
L 2.6875 54.6875 
L 9.28125 54.6875 
L 9.28125 70.21875 
z
" id="DejaVuSans-74"/>
     <path d="M 48.78125 52.59375 
L 48.78125 44.1875 
Q 44.96875 46.296875 41.140625 47.34375 
Q 37.3125 48.390625 33.40625 48.390625 
Q 24.65625 48.390625 19.8125 42.84375 
Q 14.984375 37.3125 14.984375 27.296875 
Q 14.984375 17.28125 19.8125 11.734375 
Q 24.65625 6.203125 33.40625 6.203125 
Q 37.3125 6.203125 41.140625 7.25 
Q 44.96875 8.296875 48.78125 10.40625 
L 48.78125 2.09375 
Q 45.015625 0.34375 40.984375 -0.53125 
Q 36.96875 -1.421875 32.421875 -1.421875 
Q 20.0625 -1.421875 12.78125 6.34375 
Q 5.515625 14.109375 5.515625 27.296875 
Q 5.515625 40.671875 12.859375 48.328125 
Q 20.21875 56 33.015625 56 
Q 37.15625 56 41.109375 55.140625 
Q 45.0625 54.296875 48.78125 52.59375 
z
" id="DejaVuSans-63"/>
     <path d="M 41.109375 46.296875 
Q 39.59375 47.171875 37.8125 47.578125 
Q 36.03125 48 33.890625 48 
Q 26.265625 48 22.1875 43.046875 
Q 18.109375 38.09375 18.109375 28.8125 
L 18.109375 0 
L 9.078125 0 
L 9.078125 54.6875 
L 18.109375 54.6875 
L 18.109375 46.1875 
Q 20.953125 51.171875 25.484375 53.578125 
Q 30.03125 56 36.53125 56 
Q 37.453125 56 38.578125 55.875 
Q 39.703125 55.765625 41.0625 55.515625 
z
" id="DejaVuSans-72"/>
     <path d="M 8.5 21.578125 
L 8.5 54.6875 
L 17.484375 54.6875 
L 17.484375 21.921875 
Q 17.484375 14.15625 20.5 10.265625 
Q 23.53125 6.390625 29.59375 6.390625 
Q 36.859375 6.390625 41.078125 11.03125 
Q 45.3125 15.671875 45.3125 23.6875 
L 45.3125 54.6875 
L 54.296875 54.6875 
L 54.296875 0 
L 45.3125 0 
L 45.3125 8.40625 
Q 42.046875 3.421875 37.71875 1 
Q 33.40625 -1.421875 27.6875 -1.421875 
Q 18.265625 -1.421875 13.375 4.4375 
Q 8.5 10.296875 8.5 21.578125 
z
M 31.109375 56 
z
" id="DejaVuSans-75"/>
    </defs>
    <g style="fill:#262626;" transform="translate(141.199687 35.472)scale(0.12 -0.12)">
     <use xlink:href="#DejaVuSans-57"/>
     <use x="98.783203" xlink:href="#DejaVuSans-61"/>
     <use x="160.0625" xlink:href="#DejaVuSans-69"/>
     <use x="187.845703" xlink:href="#DejaVuSans-74"/>
     <use x="227.054688" xlink:href="#DejaVuSans-69"/>
     <use x="254.837891" xlink:href="#DejaVuSans-6e"/>
     <use x="318.216797" xlink:href="#DejaVuSans-67"/>
     <use x="381.693359" xlink:href="#DejaVuSans-20"/>
     <use x="413.480469" xlink:href="#DejaVuSans-74"/>
     <use x="452.689453" xlink:href="#DejaVuSans-69"/>
     <use x="480.472656" xlink:href="#DejaVuSans-6d"/>
     <use x="577.884766" xlink:href="#DejaVuSans-65"/>
     <use x="639.408203" xlink:href="#DejaVuSans-73"/>
     <use x="691.507812" xlink:href="#DejaVuSans-20"/>
     <use x="723.294922" xlink:href="#DejaVuSans-61"/>
     <use x="784.574219" xlink:href="#DejaVuSans-63"/>
     <use x="839.554688" xlink:href="#DejaVuSans-72"/>
     <use x="880.636719" xlink:href="#DejaVuSans-6f"/>
     <use x="941.818359" xlink:href="#DejaVuSans-73"/>
     <use x="993.917969" xlink:href="#DejaVuSans-73"/>
     <use x="1046.017578" xlink:href="#DejaVuSans-20"/>
     <use x="1077.804688" xlink:href="#DejaVuSans-6d"/>
     <use x="1175.216797" xlink:href="#DejaVuSans-75"/>
     <use x="1238.595703" xlink:href="#DejaVuSans-74"/>
     <use x="1277.804688" xlink:href="#DejaVuSans-61"/>
     <use x="1339.083984" xlink:href="#DejaVuSans-74"/>
     <use x="1378.292969" xlink:href="#DejaVuSans-69"/>
     <use x="1406.076172" xlink:href="#DejaVuSans-6f"/>
     <use x="1467.257812" xlink:href="#DejaVuSans-6e"/>
     <use x="1530.636719" xlink:href="#DejaVuSans-73"/>
    </g>
   </g>
   <g id="legend_1">
    <g id="patch_7">
     <path d="M 364.82125 114.85575 
L 407.02 114.85575 
Q 409.22 114.85575 409.22 112.65575 
L 409.22 49.172 
Q 409.22 46.972 407.02 46.972 
L 364.82125 46.972 
Q 362.62125 46.972 362.62125 49.172 
L 362.62125 112.65575 
Q 362.62125 114.85575 364.82125 114.85575 
z
" style="fill:#eaeaf2;opacity:0.8;stroke:#cccccc;stroke-linejoin:miter;"/>
    </g>
    <g id="LineCollection_5">
     <path d="M 378.02125 61.380281 
L 378.02125 50.380281 
" style="fill:none;stroke:#471365;stroke-width:1.5;"/>
    </g>
    <g id="line2d_26">
     <g>
      <use style="fill:#471365;stroke:#471365;" x="378.02125" xlink:href="#m428ef066d6" y="61.380281"/>
     </g>
    </g>
    <g id="line2d_27">
     <g>
      <use style="fill:#471365;stroke:#471365;" x="378.02125" xlink:href="#m428ef066d6" y="50.380281"/>
     </g>
    </g>
    <g id="line2d_28">
     <path d="M 367.02125 55.880281 
L 389.02125 55.880281 
" style="fill:none;stroke:#471365;stroke-linecap:round;stroke-width:1.5;"/>
    </g>
    <g id="line2d_29"/>
    <g id="text_17">
     <!-- 1 -->
     <g style="fill:#262626;" transform="translate(397.82125 59.730281)scale(0.11 -0.11)">
      <use xlink:href="#DejaVuSans-31"/>
     </g>
    </g>
    <g id="LineCollection_6">
     <path d="M 378.02125 77.526219 
L 378.02125 66.526219 
" style="fill:none;stroke:#482374;stroke-width:1.5;"/>
    </g>
    <g id="line2d_30">
     <g>
      <use style="fill:#482374;stroke:#482374;" x="378.02125" xlink:href="#md05a2d227a" y="77.526219"/>
     </g>
    </g>
    <g id="line2d_31">
     <g>
      <use style="fill:#482374;stroke:#482374;" x="378.02125" xlink:href="#md05a2d227a" y="66.526219"/>
     </g>
    </g>
    <g id="line2d_32">
     <path d="M 367.02125 72.026219 
L 389.02125 72.026219 
" style="fill:none;stroke:#482374;stroke-linecap:round;stroke-width:1.5;"/>
    </g>
    <g id="line2d_33"/>
    <g id="text_18">
     <!-- 2 -->
     <g style="fill:#262626;" transform="translate(397.82125 75.876219)scale(0.11 -0.11)">
      <use xlink:href="#DejaVuSans-32"/>
     </g>
    </g>
    <g id="LineCollection_7">
     <path d="M 378.02125 93.672156 
L 378.02125 82.672156 
" style="fill:none;stroke:#46327e;stroke-width:1.5;"/>
    </g>
    <g id="line2d_34">
     <g>
      <use style="fill:#46327e;stroke:#46327e;" x="378.02125" xlink:href="#m27663192c0" y="93.672156"/>
     </g>
    </g>
    <g id="line2d_35">
     <g>
      <use style="fill:#46327e;stroke:#46327e;" x="378.02125" xlink:href="#m27663192c0" y="82.672156"/>
     </g>
    </g>
    <g id="line2d_36">
     <path d="M 367.02125 88.172156 
L 389.02125 88.172156 
" style="fill:none;stroke:#46327e;stroke-linecap:round;stroke-width:1.5;"/>
    </g>
    <g id="line2d_37"/>
    <g id="text_19">
     <!-- 3 -->
     <defs>
      <path d="M 40.578125 39.3125 
Q 47.65625 37.796875 51.625 33 
Q 55.609375 28.21875 55.609375 21.1875 
Q 55.609375 10.40625 48.1875 4.484375 
Q 40.765625 -1.421875 27.09375 -1.421875 
Q 22.515625 -1.421875 17.65625 -0.515625 
Q 12.796875 0.390625 7.625 2.203125 
L 7.625 11.71875 
Q 11.71875 9.328125 16.59375 8.109375 
Q 21.484375 6.890625 26.8125 6.890625 
Q 36.078125 6.890625 40.9375 10.546875 
Q 45.796875 14.203125 45.796875 21.1875 
Q 45.796875 27.640625 41.28125 31.265625 
Q 36.765625 34.90625 28.71875 34.90625 
L 20.21875 34.90625 
L 20.21875 43.015625 
L 29.109375 43.015625 
Q 36.375 43.015625 40.234375 45.921875 
Q 44.09375 48.828125 44.09375 54.296875 
Q 44.09375 59.90625 40.109375 62.90625 
Q 36.140625 65.921875 28.71875 65.921875 
Q 24.65625 65.921875 20.015625 65.03125 
Q 15.375 64.15625 9.8125 62.3125 
L 9.8125 71.09375 
Q 15.4375 72.65625 20.34375 73.4375 
Q 25.25 74.21875 29.59375 74.21875 
Q 40.828125 74.21875 47.359375 69.109375 
Q 53.90625 64.015625 53.90625 55.328125 
Q 53.90625 49.265625 50.4375 45.09375 
Q 46.96875 40.921875 40.578125 39.3125 
z
" id="DejaVuSans-33"/>
     </defs>
     <g style="fill:#262626;" transform="translate(397.82125 92.022156)scale(0.11 -0.11)">
      <use xlink:href="#DejaVuSans-33"/>
     </g>
    </g>
    <g id="LineCollection_8">
     <path d="M 378.02125 109.818094 
L 378.02125 98.818094 
" style="fill:none;stroke:#424086;stroke-width:1.5;"/>
    </g>
    <g id="line2d_38">
     <g>
      <use style="fill:#424086;stroke:#424086;" x="378.02125" xlink:href="#m2c413ce8ff" y="109.818094"/>
     </g>
    </g>
    <g id="line2d_39">
     <g>
      <use style="fill:#424086;stroke:#424086;" x="378.02125" xlink:href="#m2c413ce8ff" y="98.818094"/>
     </g>
    </g>
    <g id="line2d_40">
     <path d="M 367.02125 104.318094 
L 389.02125 104.318094 
" style="fill:none;stroke:#424086;stroke-linecap:round;stroke-width:1.5;"/>
    </g>
    <g id="line2d_41"/>
    <g id="text_20">
     <!-- 4 -->
     <g style="fill:#262626;" transform="translate(397.82125 108.168094)scale(0.11 -0.11)">
      <use xlink:href="#DejaVuSans-34"/>
     </g>
    </g>
   </g>
  </g>
 </g>
 <defs>
  <clipPath id="pf5ebbd8670">
   <rect height="266.112" width="357.12" x="57.6" y="41.472"/>
  </clipPath>
 </defs>
</svg>
