<?xml version="1.0" encoding="utf-8" standalone="no"?>
<!DOCTYPE svg PUBLIC "-//W3C//DTD SVG 1.1//EN"
  "http://www.w3.org/Graphics/SVG/1.1/DTD/svg11.dtd">
<!-- Created with matplotlib (http://matplotlib.org/) -->
<svg height="345.6pt" version="1.1" viewBox="0 0 460.8 345.6" width="460.8pt" xmlns="http://www.w3.org/2000/svg" xmlns:xlink="http://www.w3.org/1999/xlink">
 <defs>
  <style type="text/css">
*{stroke-linecap:butt;stroke-linejoin:round;}
  </style>
 </defs>
 <g id="figure_1">
  <g id="patch_1">
   <path d="M 0 345.6 
L 460.8 345.6 
L 460.8 0 
L 0 0 
z
" style="fill:#ffffff;"/>
  </g>
  <g id="axes_1">
   <g id="patch_2">
    <path d="M 57.6 307.584 
L 414.72 307.584 
L 414.72 41.472 
L 57.6 41.472 
z
" style="fill:#ffffff;"/>
   </g>
   <g id="matplotlib.axis_1">
    <g id="xtick_1">
     <g id="line2d_1">
      <defs>
       <path d="M 0 0 
L 0 4.8 
" id="m1e8935b9d5" style="stroke:#262626;"/>
      </defs>
      <g>
       <use style="fill:#262626;stroke:#262626;" x="73.832727" xlink:href="#m1e8935b9d5" y="307.584"/>
      </g>
     </g>
     <g id="text_1">
      <!-- 0 -->
      <defs>
       <path d="M 31.78125 66.40625 
Q 24.171875 66.40625 20.328125 58.90625 
Q 16.5 51.421875 16.5 36.375 
Q 16.5 21.390625 20.328125 13.890625 
Q 24.171875 6.390625 31.78125 6.390625 
Q 39.453125 6.390625 43.28125 13.890625 
Q 47.125 21.390625 47.125 36.375 
Q 47.125 51.421875 43.28125 58.90625 
Q 39.453125 66.40625 31.78125 66.40625 
z
M 31.78125 74.21875 
Q 44.046875 74.21875 50.515625 64.515625 
Q 56.984375 54.828125 56.984375 36.375 
Q 56.984375 17.96875 50.515625 8.265625 
Q 44.046875 -1.421875 31.78125 -1.421875 
Q 19.53125 -1.421875 13.0625 8.265625 
Q 6.59375 17.96875 6.59375 36.375 
Q 6.59375 54.828125 13.0625 64.515625 
Q 19.53125 74.21875 31.78125 74.21875 
z
" id="DejaVuSans-30"/>
      </defs>
      <g style="fill:#262626;" transform="translate(71.033227 322.570625)scale(0.088 -0.088)">
       <use xlink:href="#DejaVuSans-30"/>
      </g>
     </g>
    </g>
    <g id="xtick_2">
     <g id="line2d_2">
      <g>
       <use style="fill:#262626;stroke:#262626;" x="139.419504" xlink:href="#m1e8935b9d5" y="307.584"/>
      </g>
     </g>
     <g id="text_2">
      <!-- 20 -->
      <defs>
       <path d="M 19.1875 8.296875 
L 53.609375 8.296875 
L 53.609375 0 
L 7.328125 0 
L 7.328125 8.296875 
Q 12.9375 14.109375 22.625 23.890625 
Q 32.328125 33.6875 34.8125 36.53125 
Q 39.546875 41.84375 41.421875 45.53125 
Q 43.3125 49.21875 43.3125 52.78125 
Q 43.3125 58.59375 39.234375 62.25 
Q 35.15625 65.921875 28.609375 65.921875 
Q 23.96875 65.921875 18.8125 64.3125 
Q 13.671875 62.703125 7.8125 59.421875 
L 7.8125 69.390625 
Q 13.765625 71.78125 18.9375 73 
Q 24.125 74.21875 28.421875 74.21875 
Q 39.75 74.21875 46.484375 68.546875 
Q 53.21875 62.890625 53.21875 53.421875 
Q 53.21875 48.921875 51.53125 44.890625 
Q 49.859375 40.875 45.40625 35.40625 
Q 44.1875 33.984375 37.640625 27.21875 
Q 31.109375 20.453125 19.1875 8.296875 
z
" id="DejaVuSans-32"/>
      </defs>
      <g style="fill:#262626;" transform="translate(133.820504 322.570625)scale(0.088 -0.088)">
       <use xlink:href="#DejaVuSans-32"/>
       <use x="63.623047" xlink:href="#DejaVuSans-30"/>
      </g>
     </g>
    </g>
    <g id="xtick_3">
     <g id="line2d_3">
      <g>
       <use style="fill:#262626;stroke:#262626;" x="205.006281" xlink:href="#m1e8935b9d5" y="307.584"/>
      </g>
     </g>
     <g id="text_3">
      <!-- 40 -->
      <defs>
       <path d="M 37.796875 64.3125 
L 12.890625 25.390625 
L 37.796875 25.390625 
z
M 35.203125 72.90625 
L 47.609375 72.90625 
L 47.609375 25.390625 
L 58.015625 25.390625 
L 58.015625 17.1875 
L 47.609375 17.1875 
L 47.609375 0 
L 37.796875 0 
L 37.796875 17.1875 
L 4.890625 17.1875 
L 4.890625 26.703125 
z
" id="DejaVuSans-34"/>
      </defs>
      <g style="fill:#262626;" transform="translate(199.407281 322.570625)scale(0.088 -0.088)">
       <use xlink:href="#DejaVuSans-34"/>
       <use x="63.623047" xlink:href="#DejaVuSans-30"/>
      </g>
     </g>
    </g>
    <g id="xtick_4">
     <g id="line2d_4">
      <g>
       <use style="fill:#262626;stroke:#262626;" x="270.593058" xlink:href="#m1e8935b9d5" y="307.584"/>
      </g>
     </g>
     <g id="text_4">
      <!-- 60 -->
      <defs>
       <path d="M 33.015625 40.375 
Q 26.375 40.375 22.484375 35.828125 
Q 18.609375 31.296875 18.609375 23.390625 
Q 18.609375 15.53125 22.484375 10.953125 
Q 26.375 6.390625 33.015625 6.390625 
Q 39.65625 6.390625 43.53125 10.953125 
Q 47.40625 15.53125 47.40625 23.390625 
Q 47.40625 31.296875 43.53125 35.828125 
Q 39.65625 40.375 33.015625 40.375 
z
M 52.59375 71.296875 
L 52.59375 62.3125 
Q 48.875 64.0625 45.09375 64.984375 
Q 41.3125 65.921875 37.59375 65.921875 
Q 27.828125 65.921875 22.671875 59.328125 
Q 17.53125 52.734375 16.796875 39.40625 
Q 19.671875 43.65625 24.015625 45.921875 
Q 28.375 48.1875 33.59375 48.1875 
Q 44.578125 48.1875 50.953125 41.515625 
Q 57.328125 34.859375 57.328125 23.390625 
Q 57.328125 12.15625 50.6875 5.359375 
Q 44.046875 -1.421875 33.015625 -1.421875 
Q 20.359375 -1.421875 13.671875 8.265625 
Q 6.984375 17.96875 6.984375 36.375 
Q 6.984375 53.65625 15.1875 63.9375 
Q 23.390625 74.21875 37.203125 74.21875 
Q 40.921875 74.21875 44.703125 73.484375 
Q 48.484375 72.75 52.59375 71.296875 
z
" id="DejaVuSans-36"/>
      </defs>
      <g style="fill:#262626;" transform="translate(264.994058 322.570625)scale(0.088 -0.088)">
       <use xlink:href="#DejaVuSans-36"/>
       <use x="63.623047" xlink:href="#DejaVuSans-30"/>
      </g>
     </g>
    </g>
    <g id="xtick_5">
     <g id="line2d_5">
      <g>
       <use style="fill:#262626;stroke:#262626;" x="336.179835" xlink:href="#m1e8935b9d5" y="307.584"/>
      </g>
     </g>
     <g id="text_5">
      <!-- 80 -->
      <defs>
       <path d="M 31.78125 34.625 
Q 24.75 34.625 20.71875 30.859375 
Q 16.703125 27.09375 16.703125 20.515625 
Q 16.703125 13.921875 20.71875 10.15625 
Q 24.75 6.390625 31.78125 6.390625 
Q 38.8125 6.390625 42.859375 10.171875 
Q 46.921875 13.96875 46.921875 20.515625 
Q 46.921875 27.09375 42.890625 30.859375 
Q 38.875 34.625 31.78125 34.625 
z
M 21.921875 38.8125 
Q 15.578125 40.375 12.03125 44.71875 
Q 8.5 49.078125 8.5 55.328125 
Q 8.5 64.0625 14.71875 69.140625 
Q 20.953125 74.21875 31.78125 74.21875 
Q 42.671875 74.21875 48.875 69.140625 
Q 55.078125 64.0625 55.078125 55.328125 
Q 55.078125 49.078125 51.53125 44.71875 
Q 48 40.375 41.703125 38.8125 
Q 48.828125 37.15625 52.796875 32.3125 
Q 56.78125 27.484375 56.78125 20.515625 
Q 56.78125 9.90625 50.3125 4.234375 
Q 43.84375 -1.421875 31.78125 -1.421875 
Q 19.734375 -1.421875 13.25 4.234375 
Q 6.78125 9.90625 6.78125 20.515625 
Q 6.78125 27.484375 10.78125 32.3125 
Q 14.796875 37.15625 21.921875 38.8125 
z
M 18.3125 54.390625 
Q 18.3125 48.734375 21.84375 45.5625 
Q 25.390625 42.390625 31.78125 42.390625 
Q 38.140625 42.390625 41.71875 45.5625 
Q 45.3125 48.734375 45.3125 54.390625 
Q 45.3125 60.0625 41.71875 63.234375 
Q 38.140625 66.40625 31.78125 66.40625 
Q 25.390625 66.40625 21.84375 63.234375 
Q 18.3125 60.0625 18.3125 54.390625 
z
" id="DejaVuSans-38"/>
      </defs>
      <g style="fill:#262626;" transform="translate(330.580835 322.570625)scale(0.088 -0.088)">
       <use xlink:href="#DejaVuSans-38"/>
       <use x="63.623047" xlink:href="#DejaVuSans-30"/>
      </g>
     </g>
    </g>
    <g id="xtick_6">
     <g id="line2d_6">
      <g>
       <use style="fill:#262626;stroke:#262626;" x="401.766612" xlink:href="#m1e8935b9d5" y="307.584"/>
      </g>
     </g>
     <g id="text_6">
      <!-- 100 -->
      <defs>
       <path d="M 12.40625 8.296875 
L 28.515625 8.296875 
L 28.515625 63.921875 
L 10.984375 60.40625 
L 10.984375 69.390625 
L 28.421875 72.90625 
L 38.28125 72.90625 
L 38.28125 8.296875 
L 54.390625 8.296875 
L 54.390625 0 
L 12.40625 0 
z
" id="DejaVuSans-31"/>
      </defs>
      <g style="fill:#262626;" transform="translate(393.368112 322.570625)scale(0.088 -0.088)">
       <use xlink:href="#DejaVuSans-31"/>
       <use x="63.623047" xlink:href="#DejaVuSans-30"/>
       <use x="127.246094" xlink:href="#DejaVuSans-30"/>
      </g>
     </g>
    </g>
    <g id="text_7">
     <!-- Time (years) -->
     <defs>
      <path d="M -0.296875 72.90625 
L 61.375 72.90625 
L 61.375 64.59375 
L 35.5 64.59375 
L 35.5 0 
L 25.59375 0 
L 25.59375 64.59375 
L -0.296875 64.59375 
z
" id="DejaVuSans-54"/>
      <path d="M 9.421875 54.6875 
L 18.40625 54.6875 
L 18.40625 0 
L 9.421875 0 
z
M 9.421875 75.984375 
L 18.40625 75.984375 
L 18.40625 64.59375 
L 9.421875 64.59375 
z
" id="DejaVuSans-69"/>
      <path d="M 52 44.1875 
Q 55.375 50.25 60.0625 53.125 
Q 64.75 56 71.09375 56 
Q 79.640625 56 84.28125 50.015625 
Q 88.921875 44.046875 88.921875 33.015625 
L 88.921875 0 
L 79.890625 0 
L 79.890625 32.71875 
Q 79.890625 40.578125 77.09375 44.375 
Q 74.3125 48.1875 68.609375 48.1875 
Q 61.625 48.1875 57.5625 43.546875 
Q 53.515625 38.921875 53.515625 30.90625 
L 53.515625 0 
L 44.484375 0 
L 44.484375 32.71875 
Q 44.484375 40.625 41.703125 44.40625 
Q 38.921875 48.1875 33.109375 48.1875 
Q 26.21875 48.1875 22.15625 43.53125 
Q 18.109375 38.875 18.109375 30.90625 
L 18.109375 0 
L 9.078125 0 
L 9.078125 54.6875 
L 18.109375 54.6875 
L 18.109375 46.1875 
Q 21.1875 51.21875 25.484375 53.609375 
Q 29.78125 56 35.6875 56 
Q 41.65625 56 45.828125 52.96875 
Q 50 49.953125 52 44.1875 
z
" id="DejaVuSans-6d"/>
      <path d="M 56.203125 29.59375 
L 56.203125 25.203125 
L 14.890625 25.203125 
Q 15.484375 15.921875 20.484375 11.0625 
Q 25.484375 6.203125 34.421875 6.203125 
Q 39.59375 6.203125 44.453125 7.46875 
Q 49.3125 8.734375 54.109375 11.28125 
L 54.109375 2.78125 
Q 49.265625 0.734375 44.1875 -0.34375 
Q 39.109375 -1.421875 33.890625 -1.421875 
Q 20.796875 -1.421875 13.15625 6.1875 
Q 5.515625 13.8125 5.515625 26.8125 
Q 5.515625 40.234375 12.765625 48.109375 
Q 20.015625 56 32.328125 56 
Q 43.359375 56 49.78125 48.890625 
Q 56.203125 41.796875 56.203125 29.59375 
z
M 47.21875 32.234375 
Q 47.125 39.59375 43.09375 43.984375 
Q 39.0625 48.390625 32.421875 48.390625 
Q 24.90625 48.390625 20.390625 44.140625 
Q 15.875 39.890625 15.1875 32.171875 
z
" id="DejaVuSans-65"/>
      <path id="DejaVuSans-20"/>
      <path d="M 31 75.875 
Q 24.46875 64.65625 21.28125 53.65625 
Q 18.109375 42.671875 18.109375 31.390625 
Q 18.109375 20.125 21.3125 9.0625 
Q 24.515625 -2 31 -13.1875 
L 23.1875 -13.1875 
Q 15.875 -1.703125 12.234375 9.375 
Q 8.59375 20.453125 8.59375 31.390625 
Q 8.59375 42.28125 12.203125 53.3125 
Q 15.828125 64.359375 23.1875 75.875 
z
" id="DejaVuSans-28"/>
      <path d="M 32.171875 -5.078125 
Q 28.375 -14.84375 24.75 -17.8125 
Q 21.140625 -20.796875 15.09375 -20.796875 
L 7.90625 -20.796875 
L 7.90625 -13.28125 
L 13.1875 -13.28125 
Q 16.890625 -13.28125 18.9375 -11.515625 
Q 21 -9.765625 23.484375 -3.21875 
L 25.09375 0.875 
L 2.984375 54.6875 
L 12.5 54.6875 
L 29.59375 11.921875 
L 46.6875 54.6875 
L 56.203125 54.6875 
z
" id="DejaVuSans-79"/>
      <path d="M 34.28125 27.484375 
Q 23.390625 27.484375 19.1875 25 
Q 14.984375 22.515625 14.984375 16.5 
Q 14.984375 11.71875 18.140625 8.90625 
Q 21.296875 6.109375 26.703125 6.109375 
Q 34.1875 6.109375 38.703125 11.40625 
Q 43.21875 16.703125 43.21875 25.484375 
L 43.21875 27.484375 
z
M 52.203125 31.203125 
L 52.203125 0 
L 43.21875 0 
L 43.21875 8.296875 
Q 40.140625 3.328125 35.546875 0.953125 
Q 30.953125 -1.421875 24.3125 -1.421875 
Q 15.921875 -1.421875 10.953125 3.296875 
Q 6 8.015625 6 15.921875 
Q 6 25.140625 12.171875 29.828125 
Q 18.359375 34.515625 30.609375 34.515625 
L 43.21875 34.515625 
L 43.21875 35.40625 
Q 43.21875 41.609375 39.140625 45 
Q 35.0625 48.390625 27.6875 48.390625 
Q 23 48.390625 18.546875 47.265625 
Q 14.109375 46.140625 10.015625 43.890625 
L 10.015625 52.203125 
Q 14.9375 54.109375 19.578125 55.046875 
Q 24.21875 56 28.609375 56 
Q 40.484375 56 46.34375 49.84375 
Q 52.203125 43.703125 52.203125 31.203125 
z
" id="DejaVuSans-61"/>
      <path d="M 41.109375 46.296875 
Q 39.59375 47.171875 37.8125 47.578125 
Q 36.03125 48 33.890625 48 
Q 26.265625 48 22.1875 43.046875 
Q 18.109375 38.09375 18.109375 28.8125 
L 18.109375 0 
L 9.078125 0 
L 9.078125 54.6875 
L 18.109375 54.6875 
L 18.109375 46.1875 
Q 20.953125 51.171875 25.484375 53.578125 
Q 30.03125 56 36.53125 56 
Q 37.453125 56 38.578125 55.875 
Q 39.703125 55.765625 41.0625 55.515625 
z
" id="DejaVuSans-72"/>
      <path d="M 44.28125 53.078125 
L 44.28125 44.578125 
Q 40.484375 46.53125 36.375 47.5 
Q 32.28125 48.484375 27.875 48.484375 
Q 21.1875 48.484375 17.84375 46.4375 
Q 14.5 44.390625 14.5 40.28125 
Q 14.5 37.15625 16.890625 35.375 
Q 19.28125 33.59375 26.515625 31.984375 
L 29.59375 31.296875 
Q 39.15625 29.25 43.1875 25.515625 
Q 47.21875 21.78125 47.21875 15.09375 
Q 47.21875 7.46875 41.1875 3.015625 
Q 35.15625 -1.421875 24.609375 -1.421875 
Q 20.21875 -1.421875 15.453125 -0.5625 
Q 10.6875 0.296875 5.421875 2 
L 5.421875 11.28125 
Q 10.40625 8.6875 15.234375 7.390625 
Q 20.0625 6.109375 24.8125 6.109375 
Q 31.15625 6.109375 34.5625 8.28125 
Q 37.984375 10.453125 37.984375 14.40625 
Q 37.984375 18.0625 35.515625 20.015625 
Q 33.0625 21.96875 24.703125 23.78125 
L 21.578125 24.515625 
Q 13.234375 26.265625 9.515625 29.90625 
Q 5.8125 33.546875 5.8125 39.890625 
Q 5.8125 47.609375 11.28125 51.796875 
Q 16.75 56 26.8125 56 
Q 31.78125 56 36.171875 55.265625 
Q 40.578125 54.546875 44.28125 53.078125 
z
" id="DejaVuSans-73"/>
      <path d="M 8.015625 75.875 
L 15.828125 75.875 
Q 23.140625 64.359375 26.78125 53.3125 
Q 30.421875 42.28125 30.421875 31.390625 
Q 30.421875 20.453125 26.78125 9.375 
Q 23.140625 -1.703125 15.828125 -13.1875 
L 8.015625 -13.1875 
Q 14.5 -2 17.703125 9.0625 
Q 20.90625 20.125 20.90625 31.390625 
Q 20.90625 42.671875 17.703125 53.65625 
Q 14.5 64.65625 8.015625 75.875 
z
" id="DejaVuSans-29"/>
     </defs>
     <g style="fill:#262626;" transform="translate(205.78725 335.69525)scale(0.096 -0.096)">
      <use xlink:href="#DejaVuSans-54"/>
      <use x="61.037109" xlink:href="#DejaVuSans-69"/>
      <use x="88.820312" xlink:href="#DejaVuSans-6d"/>
      <use x="186.232422" xlink:href="#DejaVuSans-65"/>
      <use x="247.755859" xlink:href="#DejaVuSans-20"/>
      <use x="279.542969" xlink:href="#DejaVuSans-28"/>
      <use x="318.556641" xlink:href="#DejaVuSans-79"/>
      <use x="377.736328" xlink:href="#DejaVuSans-65"/>
      <use x="439.259766" xlink:href="#DejaVuSans-61"/>
      <use x="500.539062" xlink:href="#DejaVuSans-72"/>
      <use x="541.652344" xlink:href="#DejaVuSans-73"/>
      <use x="593.751953" xlink:href="#DejaVuSans-29"/>
     </g>
    </g>
   </g>
   <g id="matplotlib.axis_2">
    <g id="ytick_1">
     <g id="line2d_7">
      <defs>
       <path d="M 0 0 
L -4.8 0 
" id="mf01cda9298" style="stroke:#262626;"/>
      </defs>
      <g>
       <use style="fill:#262626;stroke:#262626;" x="57.6" xlink:href="#mf01cda9298" y="295.488"/>
      </g>
     </g>
     <g id="text_8">
      <!-- 0 -->
      <g style="fill:#262626;" transform="translate(43.701 298.831312)scale(0.088 -0.088)">
       <use xlink:href="#DejaVuSans-30"/>
      </g>
     </g>
    </g>
    <g id="ytick_2">
     <g id="line2d_8">
      <g>
       <use style="fill:#262626;stroke:#262626;" x="57.6" xlink:href="#mf01cda9298" y="252.956354"/>
      </g>
     </g>
     <g id="text_9">
      <!-- 10 -->
      <g style="fill:#262626;" transform="translate(38.102 256.299667)scale(0.088 -0.088)">
       <use xlink:href="#DejaVuSans-31"/>
       <use x="63.623047" xlink:href="#DejaVuSans-30"/>
      </g>
     </g>
    </g>
    <g id="ytick_3">
     <g id="line2d_9">
      <g>
       <use style="fill:#262626;stroke:#262626;" x="57.6" xlink:href="#mf01cda9298" y="210.424709"/>
      </g>
     </g>
     <g id="text_10">
      <!-- 20 -->
      <g style="fill:#262626;" transform="translate(38.102 213.768021)scale(0.088 -0.088)">
       <use xlink:href="#DejaVuSans-32"/>
       <use x="63.623047" xlink:href="#DejaVuSans-30"/>
      </g>
     </g>
    </g>
    <g id="ytick_4">
     <g id="line2d_10">
      <g>
       <use style="fill:#262626;stroke:#262626;" x="57.6" xlink:href="#mf01cda9298" y="167.893063"/>
      </g>
     </g>
     <g id="text_11">
      <!-- 30 -->
      <defs>
       <path d="M 40.578125 39.3125 
Q 47.65625 37.796875 51.625 33 
Q 55.609375 28.21875 55.609375 21.1875 
Q 55.609375 10.40625 48.1875 4.484375 
Q 40.765625 -1.421875 27.09375 -1.421875 
Q 22.515625 -1.421875 17.65625 -0.515625 
Q 12.796875 0.390625 7.625 2.203125 
L 7.625 11.71875 
Q 11.71875 9.328125 16.59375 8.109375 
Q 21.484375 6.890625 26.8125 6.890625 
Q 36.078125 6.890625 40.9375 10.546875 
Q 45.796875 14.203125 45.796875 21.1875 
Q 45.796875 27.640625 41.28125 31.265625 
Q 36.765625 34.90625 28.71875 34.90625 
L 20.21875 34.90625 
L 20.21875 43.015625 
L 29.109375 43.015625 
Q 36.375 43.015625 40.234375 45.921875 
Q 44.09375 48.828125 44.09375 54.296875 
Q 44.09375 59.90625 40.109375 62.90625 
Q 36.140625 65.921875 28.71875 65.921875 
Q 24.65625 65.921875 20.015625 65.03125 
Q 15.375 64.15625 9.8125 62.3125 
L 9.8125 71.09375 
Q 15.4375 72.65625 20.34375 73.4375 
Q 25.25 74.21875 29.59375 74.21875 
Q 40.828125 74.21875 47.359375 69.109375 
Q 53.90625 64.015625 53.90625 55.328125 
Q 53.90625 49.265625 50.4375 45.09375 
Q 46.96875 40.921875 40.578125 39.3125 
z
" id="DejaVuSans-33"/>
      </defs>
      <g style="fill:#262626;" transform="translate(38.102 171.236376)scale(0.088 -0.088)">
       <use xlink:href="#DejaVuSans-33"/>
       <use x="63.623047" xlink:href="#DejaVuSans-30"/>
      </g>
     </g>
    </g>
    <g id="ytick_5">
     <g id="line2d_11">
      <g>
       <use style="fill:#262626;stroke:#262626;" x="57.6" xlink:href="#mf01cda9298" y="125.361418"/>
      </g>
     </g>
     <g id="text_12">
      <!-- 40 -->
      <g style="fill:#262626;" transform="translate(38.102 128.70473)scale(0.088 -0.088)">
       <use xlink:href="#DejaVuSans-34"/>
       <use x="63.623047" xlink:href="#DejaVuSans-30"/>
      </g>
     </g>
    </g>
    <g id="ytick_6">
     <g id="line2d_12">
      <g>
       <use style="fill:#262626;stroke:#262626;" x="57.6" xlink:href="#mf01cda9298" y="82.829772"/>
      </g>
     </g>
     <g id="text_13">
      <!-- 50 -->
      <defs>
       <path d="M 10.796875 72.90625 
L 49.515625 72.90625 
L 49.515625 64.59375 
L 19.828125 64.59375 
L 19.828125 46.734375 
Q 21.96875 47.46875 24.109375 47.828125 
Q 26.265625 48.1875 28.421875 48.1875 
Q 40.625 48.1875 47.75 41.5 
Q 54.890625 34.8125 54.890625 23.390625 
Q 54.890625 11.625 47.5625 5.09375 
Q 40.234375 -1.421875 26.90625 -1.421875 
Q 22.3125 -1.421875 17.546875 -0.640625 
Q 12.796875 0.140625 7.71875 1.703125 
L 7.71875 11.625 
Q 12.109375 9.234375 16.796875 8.0625 
Q 21.484375 6.890625 26.703125 6.890625 
Q 35.15625 6.890625 40.078125 11.328125 
Q 45.015625 15.765625 45.015625 23.390625 
Q 45.015625 31 40.078125 35.4375 
Q 35.15625 39.890625 26.703125 39.890625 
Q 22.75 39.890625 18.8125 39.015625 
Q 14.890625 38.140625 10.796875 36.28125 
z
" id="DejaVuSans-35"/>
      </defs>
      <g style="fill:#262626;" transform="translate(38.102 86.173085)scale(0.088 -0.088)">
       <use xlink:href="#DejaVuSans-35"/>
       <use x="63.623047" xlink:href="#DejaVuSans-30"/>
      </g>
     </g>
    </g>
    <g id="text_14">
     <!-- Cumulative incidence (%) -->
     <defs>
      <path d="M 64.40625 67.28125 
L 64.40625 56.890625 
Q 59.421875 61.53125 53.78125 63.8125 
Q 48.140625 66.109375 41.796875 66.109375 
Q 29.296875 66.109375 22.65625 58.46875 
Q 16.015625 50.828125 16.015625 36.375 
Q 16.015625 21.96875 22.65625 14.328125 
Q 29.296875 6.6875 41.796875 6.6875 
Q 48.140625 6.6875 53.78125 8.984375 
Q 59.421875 11.28125 64.40625 15.921875 
L 64.40625 5.609375 
Q 59.234375 2.09375 53.4375 0.328125 
Q 47.65625 -1.421875 41.21875 -1.421875 
Q 24.65625 -1.421875 15.125 8.703125 
Q 5.609375 18.84375 5.609375 36.375 
Q 5.609375 53.953125 15.125 64.078125 
Q 24.65625 74.21875 41.21875 74.21875 
Q 47.75 74.21875 53.53125 72.484375 
Q 59.328125 70.75 64.40625 67.28125 
z
" id="DejaVuSans-43"/>
      <path d="M 8.5 21.578125 
L 8.5 54.6875 
L 17.484375 54.6875 
L 17.484375 21.921875 
Q 17.484375 14.15625 20.5 10.265625 
Q 23.53125 6.390625 29.59375 6.390625 
Q 36.859375 6.390625 41.078125 11.03125 
Q 45.3125 15.671875 45.3125 23.6875 
L 45.3125 54.6875 
L 54.296875 54.6875 
L 54.296875 0 
L 45.3125 0 
L 45.3125 8.40625 
Q 42.046875 3.421875 37.71875 1 
Q 33.40625 -1.421875 27.6875 -1.421875 
Q 18.265625 -1.421875 13.375 4.4375 
Q 8.5 10.296875 8.5 21.578125 
z
M 31.109375 56 
z
" id="DejaVuSans-75"/>
      <path d="M 9.421875 75.984375 
L 18.40625 75.984375 
L 18.40625 0 
L 9.421875 0 
z
" id="DejaVuSans-6c"/>
      <path d="M 18.3125 70.21875 
L 18.3125 54.6875 
L 36.8125 54.6875 
L 36.8125 47.703125 
L 18.3125 47.703125 
L 18.3125 18.015625 
Q 18.3125 11.328125 20.140625 9.421875 
Q 21.96875 7.515625 27.59375 7.515625 
L 36.8125 7.515625 
L 36.8125 0 
L 27.59375 0 
Q 17.1875 0 13.234375 3.875 
Q 9.28125 7.765625 9.28125 18.015625 
L 9.28125 47.703125 
L 2.6875 47.703125 
L 2.6875 54.6875 
L 9.28125 54.6875 
L 9.28125 70.21875 
z
" id="DejaVuSans-74"/>
      <path d="M 2.984375 54.6875 
L 12.5 54.6875 
L 29.59375 8.796875 
L 46.6875 54.6875 
L 56.203125 54.6875 
L 35.6875 0 
L 23.484375 0 
z
" id="DejaVuSans-76"/>
      <path d="M 54.890625 33.015625 
L 54.890625 0 
L 45.90625 0 
L 45.90625 32.71875 
Q 45.90625 40.484375 42.875 44.328125 
Q 39.84375 48.1875 33.796875 48.1875 
Q 26.515625 48.1875 22.3125 43.546875 
Q 18.109375 38.921875 18.109375 30.90625 
L 18.109375 0 
L 9.078125 0 
L 9.078125 54.6875 
L 18.109375 54.6875 
L 18.109375 46.1875 
Q 21.34375 51.125 25.703125 53.5625 
Q 30.078125 56 35.796875 56 
Q 45.21875 56 50.046875 50.171875 
Q 54.890625 44.34375 54.890625 33.015625 
z
" id="DejaVuSans-6e"/>
      <path d="M 48.78125 52.59375 
L 48.78125 44.1875 
Q 44.96875 46.296875 41.140625 47.34375 
Q 37.3125 48.390625 33.40625 48.390625 
Q 24.65625 48.390625 19.8125 42.84375 
Q 14.984375 37.3125 14.984375 27.296875 
Q 14.984375 17.28125 19.8125 11.734375 
Q 24.65625 6.203125 33.40625 6.203125 
Q 37.3125 6.203125 41.140625 7.25 
Q 44.96875 8.296875 48.78125 10.40625 
L 48.78125 2.09375 
Q 45.015625 0.34375 40.984375 -0.53125 
Q 36.96875 -1.421875 32.421875 -1.421875 
Q 20.0625 -1.421875 12.78125 6.34375 
Q 5.515625 14.109375 5.515625 27.296875 
Q 5.515625 40.671875 12.859375 48.328125 
Q 20.21875 56 33.015625 56 
Q 37.15625 56 41.109375 55.140625 
Q 45.0625 54.296875 48.78125 52.59375 
z
" id="DejaVuSans-63"/>
      <path d="M 45.40625 46.390625 
L 45.40625 75.984375 
L 54.390625 75.984375 
L 54.390625 0 
L 45.40625 0 
L 45.40625 8.203125 
Q 42.578125 3.328125 38.25 0.953125 
Q 33.9375 -1.421875 27.875 -1.421875 
Q 17.96875 -1.421875 11.734375 6.484375 
Q 5.515625 14.40625 5.515625 27.296875 
Q 5.515625 40.1875 11.734375 48.09375 
Q 17.96875 56 27.875 56 
Q 33.9375 56 38.25 53.625 
Q 42.578125 51.265625 45.40625 46.390625 
z
M 14.796875 27.296875 
Q 14.796875 17.390625 18.875 11.75 
Q 22.953125 6.109375 30.078125 6.109375 
Q 37.203125 6.109375 41.296875 11.75 
Q 45.40625 17.390625 45.40625 27.296875 
Q 45.40625 37.203125 41.296875 42.84375 
Q 37.203125 48.484375 30.078125 48.484375 
Q 22.953125 48.484375 18.875 42.84375 
Q 14.796875 37.203125 14.796875 27.296875 
z
" id="DejaVuSans-64"/>
      <path d="M 72.703125 32.078125 
Q 68.453125 32.078125 66.03125 28.46875 
Q 63.625 24.859375 63.625 18.40625 
Q 63.625 12.0625 66.03125 8.421875 
Q 68.453125 4.78125 72.703125 4.78125 
Q 76.859375 4.78125 79.265625 8.421875 
Q 81.6875 12.0625 81.6875 18.40625 
Q 81.6875 24.8125 79.265625 28.4375 
Q 76.859375 32.078125 72.703125 32.078125 
z
M 72.703125 38.28125 
Q 80.421875 38.28125 84.953125 32.90625 
Q 89.5 27.546875 89.5 18.40625 
Q 89.5 9.28125 84.9375 3.921875 
Q 80.375 -1.421875 72.703125 -1.421875 
Q 64.890625 -1.421875 60.34375 3.921875 
Q 55.8125 9.28125 55.8125 18.40625 
Q 55.8125 27.59375 60.375 32.9375 
Q 64.9375 38.28125 72.703125 38.28125 
z
M 22.3125 68.015625 
Q 18.109375 68.015625 15.6875 64.375 
Q 13.28125 60.75 13.28125 54.390625 
Q 13.28125 47.953125 15.671875 44.328125 
Q 18.0625 40.71875 22.3125 40.71875 
Q 26.5625 40.71875 28.96875 44.328125 
Q 31.390625 47.953125 31.390625 54.390625 
Q 31.390625 60.6875 28.953125 64.34375 
Q 26.515625 68.015625 22.3125 68.015625 
z
M 66.40625 74.21875 
L 74.21875 74.21875 
L 28.609375 -1.421875 
L 20.796875 -1.421875 
z
M 22.3125 74.21875 
Q 30.03125 74.21875 34.609375 68.875 
Q 39.203125 63.53125 39.203125 54.390625 
Q 39.203125 45.171875 34.640625 39.84375 
Q 30.078125 34.515625 22.3125 34.515625 
Q 14.546875 34.515625 10.03125 39.859375 
Q 5.515625 45.21875 5.515625 54.390625 
Q 5.515625 63.484375 10.046875 68.84375 
Q 14.59375 74.21875 22.3125 74.21875 
z
" id="DejaVuSans-25"/>
     </defs>
     <g style="fill:#262626;" transform="translate(32.1055 236.265)rotate(-90)scale(0.096 -0.096)">
      <use xlink:href="#DejaVuSans-43"/>
      <use x="69.824219" xlink:href="#DejaVuSans-75"/>
      <use x="133.203125" xlink:href="#DejaVuSans-6d"/>
      <use x="230.615234" xlink:href="#DejaVuSans-75"/>
      <use x="293.994141" xlink:href="#DejaVuSans-6c"/>
      <use x="321.777344" xlink:href="#DejaVuSans-61"/>
      <use x="383.056641" xlink:href="#DejaVuSans-74"/>
      <use x="422.265625" xlink:href="#DejaVuSans-69"/>
      <use x="450.048828" xlink:href="#DejaVuSans-76"/>
      <use x="509.228516" xlink:href="#DejaVuSans-65"/>
      <use x="570.751953" xlink:href="#DejaVuSans-20"/>
      <use x="602.539062" xlink:href="#DejaVuSans-69"/>
      <use x="630.322266" xlink:href="#DejaVuSans-6e"/>
      <use x="693.701172" xlink:href="#DejaVuSans-63"/>
      <use x="748.681641" xlink:href="#DejaVuSans-69"/>
      <use x="776.464844" xlink:href="#DejaVuSans-64"/>
      <use x="839.941406" xlink:href="#DejaVuSans-65"/>
      <use x="901.464844" xlink:href="#DejaVuSans-6e"/>
      <use x="964.84375" xlink:href="#DejaVuSans-63"/>
      <use x="1019.824219" xlink:href="#DejaVuSans-65"/>
      <use x="1081.347656" xlink:href="#DejaVuSans-20"/>
      <use x="1113.134766" xlink:href="#DejaVuSans-28"/>
      <use x="1152.148438" xlink:href="#DejaVuSans-25"/>
      <use x="1247.167969" xlink:href="#DejaVuSans-29"/>
     </g>
    </g>
   </g>
   <g id="line2d_13">
    <path clip-path="url(#pdfdd53690c)" d="M 73.832727 295.488 
L 77.112066 295.488 
L 80.391405 295.488 
L 83.670744 295.488 
L 86.950083 295.488 
L 90.229421 295.488 
L 93.50876 295.488 
L 96.788099 295.488 
L 100.067438 295.488 
L 103.346777 295.488 
L 106.626116 295.488 
L 109.905455 295.488 
L 113.184793 295.488 
L 116.464132 295.488 
L 119.743471 295.488 
L 123.02281 295.488 
L 126.302149 295.488 
L 129.581488 295.488 
L 132.860826 295.488 
L 136.140165 295.488 
L 139.419504 295.488 
L 142.698843 295.488 
L 145.978182 295.488 
L 149.257521 295.488 
L 152.53686 295.488 
L 155.816198 295.488 
L 159.095537 295.488 
L 162.374876 295.488 
L 165.654215 295.488 
L 168.933554 295.488 
L 172.212893 295.488 
L 175.492231 295.488 
L 178.77157 295.488 
L 182.050909 295.488 
L 185.330248 295.488 
L 188.609587 295.488 
L 191.888926 295.488 
L 195.168264 295.488 
L 198.447603 295.488 
L 201.726942 295.488 
L 205.006281 295.488 
L 208.28562 295.445468 
L 211.564959 295.445468 
L 214.844298 295.402937 
L 218.123636 295.402937 
L 221.402975 295.402937 
L 224.682314 295.360405 
L 227.961653 295.360405 
L 231.240992 295.360405 
L 234.520331 295.275342 
L 237.799669 295.275342 
L 241.079008 295.275342 
L 244.358347 295.147747 
L 247.637686 295.105215 
L 250.917025 295.062684 
L 254.196364 295.020152 
L 257.475702 294.935089 
L 260.755041 294.807494 
L 264.03438 294.72243 
L 267.313719 294.679899 
L 270.593058 294.467241 
L 273.872397 294.254582 
L 277.151736 294.212051 
L 280.431074 293.956861 
L 283.710413 293.786734 
L 286.989752 293.403949 
L 290.269091 293.106228 
L 293.54843 292.851038 
L 296.827769 292.298127 
L 300.107107 291.404962 
L 303.386446 290.852051 
L 306.665785 290.426734 
L 309.945124 289.873823 
L 313.224463 289.108253 
L 316.503802 288.427747 
L 319.78314 287.406987 
L 323.062479 286.726481 
L 326.341818 285.450532 
L 329.621157 284.472304 
L 332.900496 282.941165 
L 336.179835 281.750278 
L 339.459174 279.963949 
L 342.738512 278.050025 
L 346.017851 276.731544 
L 349.29719 274.902684 
L 352.576529 273.243949 
L 355.855868 271.797873 
L 359.135207 269.245975 
L 362.414545 267.289519 
L 365.693884 264.865215 
L 368.973223 262.483443 
L 372.252562 259.591291 
L 375.531901 257.209519 
L 378.81124 254.359899 
L 382.090579 251.978127 
L 385.369917 249.426228 
L 388.649256 246.278886 
L 391.928595 243.429266 
L 395.207934 240.877367 
L 398.487273 237.815089 
" style="fill:none;stroke:#471365;stroke-linecap:round;stroke-width:1.2;"/>
   </g>
   <g id="line2d_14">
    <path clip-path="url(#pdfdd53690c)" d="M 73.832727 295.488 
L 77.112066 295.488 
L 80.391405 295.488 
L 83.670744 295.488 
L 86.950083 295.488 
L 90.229421 295.488 
L 93.50876 295.488 
L 96.788099 295.488 
L 100.067438 295.488 
L 103.346777 295.488 
L 106.626116 295.488 
L 109.905455 295.488 
L 113.184793 295.488 
L 116.464132 295.488 
L 119.743471 295.488 
L 123.02281 295.488 
L 126.302149 295.488 
L 129.581488 295.488 
L 132.860826 295.488 
L 136.140165 295.488 
L 139.419504 295.488 
L 142.698843 295.488 
L 145.978182 295.488 
L 149.257521 295.488 
L 152.53686 295.488 
L 155.816198 295.488 
L 159.095537 295.488 
L 162.374876 295.488 
L 165.654215 295.488 
L 168.933554 295.445468 
L 172.212893 295.445468 
L 175.492231 295.445468 
L 178.77157 295.445468 
L 182.050909 295.445468 
L 185.330248 295.445468 
L 188.609587 295.445468 
L 191.888926 295.445468 
L 195.168264 295.445468 
L 198.447603 295.445468 
L 201.726942 295.445468 
L 205.006281 295.445468 
L 208.28562 295.445468 
L 211.564959 295.445468 
L 214.844298 295.402937 
L 218.123636 295.317873 
L 221.402975 295.275342 
L 224.682314 295.147747 
L 227.961653 295.105215 
L 231.240992 294.97762 
L 234.520331 294.935089 
L 237.799669 294.850025 
L 241.079008 294.637367 
L 244.358347 294.467241 
L 247.637686 294.169519 
L 250.917025 293.786734 
L 254.196364 293.701671 
L 257.475702 293.489013 
L 260.755041 292.89357 
L 264.03438 292.63838 
L 267.313719 292.042937 
L 270.593058 291.447494 
L 273.872397 290.426734 
L 277.151736 289.320911 
L 280.431074 288.51281 
L 283.710413 287.917367 
L 286.989752 287.024203 
L 290.269091 286.003443 
L 293.54843 284.855089 
L 296.827769 283.451544 
L 300.107107 281.877873 
L 303.386446 280.176608 
L 306.665785 278.050025 
L 309.945124 276.476354 
L 313.224463 274.094582 
L 316.503802 271.71281 
L 319.78314 269.033316 
L 323.062479 266.311291 
L 326.341818 263.461671 
L 329.621157 260.612051 
L 332.900496 258.102684 
L 336.179835 255.125468 
L 339.459174 252.06319 
L 342.738512 249.085975 
L 346.017851 245.215595 
L 349.29719 241.855595 
L 352.576529 239.091038 
L 355.855868 234.49762 
L 359.135207 230.839899 
L 362.414545 226.501671 
L 365.693884 222.546228 
L 368.973223 219.143696 
L 372.252562 215.060658 
L 375.531901 211.23281 
L 378.81124 208.468253 
L 382.090579 204.51281 
L 385.369917 201.408 
L 388.649256 198.218127 
L 391.928595 194.390278 
L 395.207934 191.030278 
L 398.487273 187.755342 
" style="fill:none;stroke:#482374;stroke-linecap:round;stroke-width:1.2;"/>
   </g>
   <g id="line2d_15">
    <path clip-path="url(#pdfdd53690c)" d="M 73.832727 295.488 
L 77.112066 295.488 
L 80.391405 295.488 
L 83.670744 295.488 
L 86.950083 295.488 
L 90.229421 295.488 
L 93.50876 295.488 
L 96.788099 295.488 
L 100.067438 295.488 
L 103.346777 295.488 
L 106.626116 295.488 
L 109.905455 295.488 
L 113.184793 295.488 
L 116.464132 295.488 
L 119.743471 295.488 
L 123.02281 295.488 
L 126.302149 295.488 
L 129.581488 295.488 
L 132.860826 295.488 
L 136.140165 295.488 
L 139.419504 295.488 
L 142.698843 295.488 
L 145.978182 295.488 
L 149.257521 295.488 
L 152.53686 295.488 
L 155.816198 295.488 
L 159.095537 295.488 
L 162.374876 295.488 
L 165.654215 295.488 
L 168.933554 295.488 
L 172.212893 295.488 
L 175.492231 295.488 
L 178.77157 295.488 
L 182.050909 295.488 
L 185.330248 295.488 
L 188.609587 295.445468 
L 191.888926 295.445468 
L 195.168264 295.402937 
L 198.447603 295.402937 
L 201.726942 295.275342 
L 205.006281 295.275342 
L 208.28562 295.147747 
L 211.564959 294.97762 
L 214.844298 294.850025 
L 218.123636 294.594835 
L 221.402975 294.467241 
L 224.682314 294.212051 
L 227.961653 293.744203 
L 231.240992 293.446481 
L 234.520331 292.978633 
L 237.799669 292.595848 
L 241.079008 292.085468 
L 244.358347 291.36243 
L 247.637686 290.554329 
L 250.917025 289.53357 
L 254.196364 288.597873 
L 257.475702 287.577114 
L 260.755041 286.428759 
L 264.03438 284.940152 
L 267.313719 282.898633 
L 270.593058 280.729519 
L 273.872397 278.602937 
L 277.151736 276.944203 
L 280.431074 274.732557 
L 283.710413 272.180658 
L 286.989752 269.245975 
L 290.269091 266.141165 
L 293.54843 262.313316 
L 296.827769 258.953316 
L 300.107107 254.955342 
L 303.386446 251.382684 
L 306.665785 248.107747 
L 309.945124 244.407494 
L 313.224463 240.026734 
L 316.503802 235.77357 
L 319.78314 230.88243 
L 323.062479 226.331544 
L 326.341818 221.695595 
L 329.621157 217.187241 
L 332.900496 212.891544 
L 336.179835 208.723443 
L 339.459174 204.215089 
L 342.738512 199.409013 
L 346.017851 194.602937 
L 349.29719 190.434835 
L 352.576529 186.479392 
L 355.855868 181.928506 
L 359.135207 178.39838 
L 362.414545 174.01762 
L 365.693884 170.274835 
L 368.973223 166.659646 
L 372.252562 163.129519 
L 375.531901 160.109772 
L 378.81124 156.749772 
L 382.090579 153.815089 
L 385.369917 151.050532 
L 388.649256 147.690532 
L 391.928595 144.755848 
L 395.207934 141.480911 
L 398.487273 139.354329 
" style="fill:none;stroke:#46327e;stroke-linecap:round;stroke-width:1.2;"/>
   </g>
   <g id="line2d_16">
    <path clip-path="url(#pdfdd53690c)" d="M 73.832727 295.488 
L 77.112066 295.488 
L 80.391405 295.488 
L 83.670744 295.488 
L 86.950083 295.488 
L 90.229421 295.488 
L 93.50876 295.488 
L 96.788099 295.488 
L 100.067438 295.488 
L 103.346777 295.488 
L 106.626116 295.488 
L 109.905455 295.488 
L 113.184793 295.488 
L 116.464132 295.488 
L 119.743471 295.488 
L 123.02281 295.488 
L 126.302149 295.488 
L 129.581488 295.488 
L 132.860826 295.488 
L 136.140165 295.488 
L 139.419504 295.488 
L 142.698843 295.488 
L 145.978182 295.488 
L 149.257521 295.488 
L 152.53686 295.488 
L 155.816198 295.488 
L 159.095537 295.488 
L 162.374876 295.488 
L 165.654215 295.488 
L 168.933554 295.445468 
L 172.212893 295.360405 
L 175.492231 295.360405 
L 178.77157 295.317873 
L 182.050909 295.23281 
L 185.330248 295.190278 
L 188.609587 295.147747 
L 191.888926 295.105215 
L 195.168264 295.020152 
L 198.447603 294.807494 
L 201.726942 294.637367 
L 205.006281 294.339646 
L 208.28562 294.169519 
L 211.564959 293.744203 
L 214.844298 293.063696 
L 218.123636 292.38319 
L 221.402975 291.87281 
L 224.682314 291.447494 
L 227.961653 290.766987 
L 231.240992 289.916354 
L 234.520331 288.470278 
L 237.799669 286.726481 
L 241.079008 285.237873 
L 244.358347 283.323949 
L 247.637686 281.367494 
L 250.917025 278.94319 
L 254.196364 276.646481 
L 257.475702 274.307241 
L 260.755041 272.22319 
L 264.03438 268.86319 
L 267.313719 265.248 
L 270.593058 262.611038 
L 273.872397 259.03838 
L 277.151736 254.742684 
L 280.431074 249.851544 
L 283.710413 245.300658 
L 286.989752 240.281924 
L 290.269091 235.645975 
L 293.54843 230.499646 
L 296.827769 226.118886 
L 300.107107 220.717367 
L 303.386446 215.783696 
L 306.665785 210.467241 
L 309.945124 205.618633 
L 313.224463 200.472304 
L 316.503802 195.836354 
L 319.78314 191.07281 
L 323.062479 185.841418 
L 326.341818 180.99281 
L 329.621157 176.526987 
L 332.900496 171.848506 
L 336.179835 167.850532 
L 339.459174 163.129519 
L 342.738512 159.386734 
L 346.017851 155.686481 
L 349.29719 152.283949 
L 352.576529 149.179139 
L 355.855868 145.989266 
L 359.135207 143.224709 
L 362.414545 140.715342 
L 365.693884 138.07838 
L 368.973223 134.97357 
L 372.252562 132.123949 
L 375.531901 128.721418 
L 378.81124 126.637367 
L 382.090579 124.510785 
L 385.369917 122.681924 
L 388.649256 120.810532 
L 391.928595 118.981671 
L 395.207934 116.770025 
L 398.487273 114.81357 
" style="fill:none;stroke:#424086;stroke-linecap:round;stroke-width:1.2;"/>
   </g>
   <g id="line2d_17">
    <path clip-path="url(#pdfdd53690c)" d="M 73.832727 295.488 
L 77.112066 295.488 
L 80.391405 295.488 
L 83.670744 295.488 
L 86.950083 295.488 
L 90.229421 295.488 
L 93.50876 295.488 
L 96.788099 295.488 
L 100.067438 295.488 
L 103.346777 295.488 
L 106.626116 295.488 
L 109.905455 295.488 
L 113.184793 295.488 
L 116.464132 295.488 
L 119.743471 295.488 
L 123.02281 295.488 
L 126.302149 295.488 
L 129.581488 295.488 
L 132.860826 295.488 
L 136.140165 295.488 
L 139.419504 295.488 
L 142.698843 295.488 
L 145.978182 295.488 
L 149.257521 295.488 
L 152.53686 295.488 
L 155.816198 295.445468 
L 159.095537 295.445468 
L 162.374876 295.445468 
L 165.654215 295.445468 
L 168.933554 295.445468 
L 172.212893 295.360405 
L 175.492231 295.317873 
L 178.77157 295.23281 
L 182.050909 295.23281 
L 185.330248 295.020152 
L 188.609587 294.679899 
L 191.888926 294.467241 
L 195.168264 294.084456 
L 198.447603 293.276354 
L 201.726942 292.553316 
L 205.006281 291.660152 
L 208.28562 290.554329 
L 211.564959 289.491038 
L 214.844298 287.534582 
L 218.123636 285.833316 
L 221.402975 283.834329 
L 224.682314 281.197367 
L 227.961653 279.113316 
L 231.240992 275.965975 
L 234.520331 272.691038 
L 237.799669 269.458633 
L 241.079008 266.056101 
L 244.358347 262.483443 
L 247.637686 257.677367 
L 250.917025 253.083949 
L 254.196364 248.873316 
L 257.475702 243.641924 
L 260.755041 238.750785 
L 264.03438 233.817114 
L 267.313719 228.840911 
L 270.593058 223.481924 
L 273.872397 218.590785 
L 277.151736 214.295089 
L 280.431074 209.148759 
L 283.710413 203.279392 
L 286.989752 196.899646 
L 290.269091 191.115342 
L 293.54843 185.37357 
L 296.827769 179.929519 
L 300.107107 174.528 
L 303.386446 169.721924 
L 306.665785 164.405468 
L 309.945124 159.641924 
L 313.224463 155.771544 
L 316.503802 151.986228 
L 319.78314 148.243443 
L 323.062479 143.820152 
L 326.341818 140.67281 
L 329.621157 137.780658 
L 332.900496 134.293063 
L 336.179835 130.59281 
L 339.459174 127.530532 
L 342.738512 125.276354 
L 346.017851 122.894582 
L 349.29719 120.51281 
L 352.576529 118.131038 
L 355.855868 115.919392 
L 359.135207 113.835342 
L 362.414545 111.963949 
L 365.693884 110.050025 
L 368.973223 107.58319 
L 372.252562 105.669266 
L 375.531901 104.095595 
L 378.81124 102.224203 
L 382.090579 100.480405 
L 385.369917 98.991797 
L 388.649256 97.630785 
L 391.928595 96.014582 
L 395.207934 94.568506 
L 398.487273 93.079899 
" style="fill:none;stroke:#3d4e8a;stroke-linecap:round;stroke-width:1.2;"/>
   </g>
   <g id="line2d_18">
    <path clip-path="url(#pdfdd53690c)" d="M 73.832727 295.488 
L 77.112066 295.488 
L 80.391405 295.488 
L 83.670744 295.488 
L 86.950083 295.488 
L 90.229421 295.488 
L 93.50876 295.488 
L 96.788099 295.488 
L 100.067438 295.488 
L 103.346777 295.488 
L 106.626116 295.488 
L 109.905455 295.488 
L 113.184793 295.488 
L 116.464132 295.488 
L 119.743471 295.488 
L 123.02281 295.488 
L 126.302149 295.488 
L 129.581488 295.488 
L 132.860826 295.488 
L 136.140165 295.488 
L 139.419504 295.488 
L 142.698843 295.488 
L 145.978182 295.488 
L 149.257521 295.488 
L 152.53686 295.488 
L 155.816198 295.488 
L 159.095537 295.445468 
L 162.374876 295.402937 
L 165.654215 295.275342 
L 168.933554 295.275342 
L 172.212893 295.147747 
L 175.492231 295.020152 
L 178.77157 294.72243 
L 182.050909 294.467241 
L 185.330248 293.829266 
L 188.609587 293.148759 
L 191.888926 291.787747 
L 195.168264 290.596861 
L 198.447603 289.320911 
L 201.726942 287.279392 
L 205.006281 285.025215 
L 208.28562 282.175595 
L 211.564959 278.43281 
L 214.844298 275.200405 
L 218.123636 272.010532 
L 221.402975 268.480405 
L 224.682314 263.716861 
L 227.961653 259.080911 
L 231.240992 253.551797 
L 234.520331 247.597367 
L 237.799669 241.940658 
L 241.079008 235.901165 
L 244.358347 230.159392 
L 247.637686 224.67281 
L 250.917025 218.037873 
L 254.196364 212.168506 
L 257.475702 206.341671 
L 260.755041 200.302177 
L 264.03438 195.155848 
L 267.313719 189.371544 
L 270.593058 183.119392 
L 273.872397 178.14319 
L 277.151736 173.464709 
L 280.431074 168.445975 
L 283.710413 163.68243 
L 286.989752 159.769519 
L 290.269091 155.388759 
L 293.54843 151.220658 
L 296.827769 147.180152 
L 300.107107 143.309772 
L 303.386446 139.907241 
L 306.665785 136.249519 
L 309.945124 133.102177 
L 313.224463 130.08243 
L 316.503802 127.615595 
L 319.78314 124.63838 
L 323.062479 122.809519 
L 326.341818 120.51281 
L 329.621157 117.365468 
L 332.900496 114.473316 
L 336.179835 112.942177 
L 339.459174 110.815595 
L 342.738512 108.603949 
L 346.017851 107.328 
L 349.29719 105.371544 
L 352.576529 103.330025 
L 355.855868 101.458633 
L 359.135207 100.012557 
L 362.414545 98.056101 
L 365.693884 96.354835 
L 368.973223 94.866228 
L 372.252562 93.845468 
L 375.531901 92.824709 
L 378.81124 91.974076 
L 382.090579 91.123443 
L 385.369917 89.592304 
L 388.649256 88.571544 
L 391.928595 87.42319 
L 395.207934 86.189772 
L 398.487273 84.871291 
" style="fill:none;stroke:#365c8d;stroke-linecap:round;stroke-width:1.2;"/>
   </g>
   <g id="line2d_19">
    <path clip-path="url(#pdfdd53690c)" d="M 73.832727 295.488 
L 77.112066 295.488 
L 80.391405 295.488 
L 83.670744 295.488 
L 86.950083 295.488 
L 90.229421 295.488 
L 93.50876 295.488 
L 96.788099 295.488 
L 100.067438 295.488 
L 103.346777 295.488 
L 106.626116 295.488 
L 109.905455 295.488 
L 113.184793 295.488 
L 116.464132 295.488 
L 119.743471 295.488 
L 123.02281 295.488 
L 126.302149 295.488 
L 129.581488 295.488 
L 132.860826 295.488 
L 136.140165 295.488 
L 139.419504 295.488 
L 142.698843 295.488 
L 145.978182 295.488 
L 149.257521 295.445468 
L 152.53686 295.360405 
L 155.816198 295.360405 
L 159.095537 295.317873 
L 162.374876 295.147747 
L 165.654215 294.850025 
L 168.933554 294.594835 
L 172.212893 294.297114 
L 175.492231 293.829266 
L 178.77157 292.89357 
L 182.050909 292.128 
L 185.330248 290.554329 
L 188.609587 288.172557 
L 191.888926 285.91838 
L 195.168264 283.323949 
L 198.447603 280.389266 
L 201.726942 276.901671 
L 205.006281 272.180658 
L 208.28562 267.289519 
L 211.564959 261.590278 
L 214.844298 255.338127 
L 218.123636 248.490532 
L 221.402975 241.387747 
L 224.682314 234.540152 
L 227.961653 227.097114 
L 231.240992 219.611544 
L 234.520331 213.189266 
L 237.799669 206.511797 
L 241.079008 199.876861 
L 244.358347 194.050025 
L 247.637686 187.968 
L 250.917025 182.01357 
L 254.196364 176.612051 
L 257.475702 171.168 
L 260.755041 165.298633 
L 264.03438 159.897114 
L 267.313719 155.176101 
L 270.593058 150.072304 
L 273.872397 146.244456 
L 277.151736 142.714329 
L 280.431074 139.014076 
L 283.710413 135.824203 
L 286.989752 132.506734 
L 290.269091 129.529519 
L 293.54843 126.594835 
L 296.827769 123.745215 
L 300.107107 120.640405 
L 303.386446 118.045975 
L 306.665785 116.132051 
L 309.945124 113.154835 
L 313.224463 111.113316 
L 316.503802 108.689013 
L 319.78314 106.307241 
L 323.062479 104.265722 
L 326.341818 102.734582 
L 329.621157 100.778127 
L 332.900496 98.864203 
L 336.179835 97.545722 
L 339.459174 95.249013 
L 342.738512 93.63281 
L 346.017851 92.697114 
L 349.29719 90.868253 
L 352.576529 89.804962 
L 355.855868 88.486481 
L 359.135207 87.593316 
L 362.414545 86.572557 
L 365.693884 85.424203 
L 368.973223 83.722937 
L 372.252562 82.361924 
L 375.531901 81.383696 
L 378.81124 80.448 
L 382.090579 79.469772 
L 385.369917 78.406481 
L 388.649256 77.34319 
L 391.928595 76.32243 
L 395.207934 75.301671 
L 398.487273 74.451038 
" style="fill:none;stroke:#31688e;stroke-linecap:round;stroke-width:1.2;"/>
   </g>
   <g id="line2d_20">
    <path clip-path="url(#pdfdd53690c)" d="M 73.832727 295.488 
L 77.112066 295.488 
L 80.391405 295.488 
L 83.670744 295.488 
L 86.950083 295.488 
L 90.229421 295.488 
L 93.50876 295.488 
L 96.788099 295.488 
L 100.067438 295.488 
L 103.346777 295.488 
L 106.626116 295.488 
L 109.905455 295.488 
L 113.184793 295.488 
L 116.464132 295.488 
L 119.743471 295.488 
L 123.02281 295.488 
L 126.302149 295.488 
L 129.581488 295.488 
L 132.860826 295.488 
L 136.140165 295.488 
L 139.419504 295.488 
L 142.698843 295.445468 
L 145.978182 295.317873 
L 149.257521 295.190278 
L 152.53686 295.147747 
L 155.816198 294.97762 
L 159.095537 294.850025 
L 162.374876 294.637367 
L 165.654215 294.424709 
L 168.933554 294.254582 
L 172.212893 293.148759 
L 175.492231 292.000405 
L 178.77157 290.724456 
L 182.050909 289.108253 
L 185.330248 286.854076 
L 188.609587 283.791797 
L 191.888926 279.751291 
L 195.168264 275.328 
L 198.447603 270.777114 
L 201.726942 264.907747 
L 205.006281 258.442937 
L 208.28562 251.212557 
L 211.564959 242.23838 
L 214.844298 233.859646 
L 218.123636 225.268253 
L 221.402975 217.229772 
L 224.682314 208.978633 
L 227.961653 201.237873 
L 231.240992 194.262684 
L 234.520331 186.139139 
L 237.799669 178.696101 
L 241.079008 173.039392 
L 244.358347 168.020658 
L 247.637686 163.384709 
L 250.917025 157.898127 
L 254.196364 153.006987 
L 257.475702 149.094076 
L 260.755041 144.840911 
L 264.03438 141.013063 
L 267.313719 137.738127 
L 270.593058 134.378127 
L 273.872397 131.145722 
L 277.151736 128.083443 
L 280.431074 125.191291 
L 283.710413 122.894582 
L 286.989752 120.51281 
L 290.269091 117.790785 
L 293.54843 114.771038 
L 296.827769 112.219139 
L 300.107107 109.539646 
L 303.386446 107.328 
L 306.665785 105.073823 
L 309.945124 102.947241 
L 313.224463 101.033316 
L 316.503802 98.991797 
L 319.78314 97.715848 
L 323.062479 96.397367 
L 326.341818 94.951291 
L 329.621157 93.547747 
L 332.900496 92.399392 
L 336.179835 90.655595 
L 339.459174 89.337114 
L 342.738512 87.93357 
L 346.017851 86.65762 
L 349.29719 85.509266 
L 352.576529 84.488506 
L 355.855868 83.467747 
L 359.135207 82.149266 
L 362.414545 81.000911 
L 365.693884 79.68243 
L 368.973223 78.831797 
L 372.252562 77.385722 
L 375.531901 76.152304 
L 378.81124 75.216608 
L 382.090579 73.940658 
L 385.369917 73.21762 
L 388.649256 72.452051 
L 391.928595 71.643949 
L 395.207934 70.87838 
L 398.487273 70.240405 
" style="fill:none;stroke:#2c738e;stroke-linecap:round;stroke-width:1.2;"/>
   </g>
   <g id="line2d_21">
    <path clip-path="url(#pdfdd53690c)" d="M 73.832727 295.488 
L 77.112066 295.488 
L 80.391405 295.488 
L 83.670744 295.488 
L 86.950083 295.488 
L 90.229421 295.488 
L 93.50876 295.488 
L 96.788099 295.488 
L 100.067438 295.488 
L 103.346777 295.488 
L 106.626116 295.488 
L 109.905455 295.488 
L 113.184793 295.488 
L 116.464132 295.488 
L 119.743471 295.488 
L 123.02281 295.488 
L 126.302149 295.488 
L 129.581488 295.445468 
L 132.860826 295.360405 
L 136.140165 295.317873 
L 139.419504 295.275342 
L 142.698843 295.190278 
L 145.978182 295.105215 
L 149.257521 294.892557 
L 152.53686 294.509772 
L 155.816198 294.169519 
L 159.095537 293.871797 
L 162.374876 293.021165 
L 165.654215 292.170532 
L 168.933554 291.064709 
L 172.212893 289.193316 
L 175.492231 287.109266 
L 178.77157 284.64243 
L 182.050909 281.28243 
L 185.330248 277.199392 
L 188.609587 272.818633 
L 191.888926 267.502177 
L 195.168264 261.079899 
L 198.447603 253.892051 
L 201.726942 244.407494 
L 205.006281 235.178127 
L 208.28562 226.544203 
L 211.564959 218.122937 
L 214.844298 208.255595 
L 218.123636 198.983696 
L 221.402975 188.861165 
L 224.682314 180.397367 
L 227.961653 172.656608 
L 231.240992 165.043443 
L 234.520331 158.451038 
L 237.799669 151.986228 
L 241.079008 145.521418 
L 244.358347 140.204962 
L 247.637686 135.356354 
L 250.917025 130.975595 
L 254.196364 127.530532 
L 257.475702 124.128 
L 260.755041 120.895595 
L 264.03438 117.875848 
L 267.313719 115.536608 
L 270.593058 112.686987 
L 273.872397 110.645468 
L 277.151736 108.008506 
L 280.431074 105.711797 
L 283.710413 103.585215 
L 286.989752 101.543696 
L 290.269091 99.374582 
L 293.54843 97.50319 
L 296.827769 95.886987 
L 300.107107 93.930532 
L 303.386446 92.101671 
L 306.665785 90.485468 
L 309.945124 89.294582 
L 313.224463 88.061165 
L 316.503802 86.870278 
L 319.78314 85.594329 
L 323.062479 84.06319 
L 326.341818 83.29762 
L 329.621157 81.851544 
L 332.900496 80.830785 
L 336.179835 79.895089 
L 339.459174 79.086987 
L 342.738512 77.555848 
L 346.017851 76.705215 
L 349.29719 75.471797 
L 352.576529 74.663696 
L 355.855868 73.557873 
L 359.135207 72.749772 
L 362.414545 71.814076 
L 365.693884 70.963443 
L 368.973223 69.772557 
L 372.252562 68.751797 
L 375.531901 67.816101 
L 378.81124 67.135595 
L 382.090579 66.540152 
L 385.369917 65.902177 
L 388.649256 65.221671 
L 391.928595 64.285975 
L 395.207934 63.435342 
L 398.487273 62.924962 
" style="fill:none;stroke:#277f8e;stroke-linecap:round;stroke-width:1.2;"/>
   </g>
   <g id="line2d_22">
    <path clip-path="url(#pdfdd53690c)" d="M 73.832727 295.488 
L 77.112066 295.488 
L 80.391405 295.488 
L 83.670744 295.488 
L 86.950083 295.488 
L 90.229421 295.488 
L 93.50876 295.488 
L 96.788099 295.488 
L 100.067438 295.488 
L 103.346777 295.488 
L 106.626116 295.488 
L 109.905455 295.488 
L 113.184793 295.488 
L 116.464132 295.488 
L 119.743471 295.488 
L 123.02281 295.445468 
L 126.302149 295.360405 
L 129.581488 295.360405 
L 132.860826 295.275342 
L 136.140165 295.147747 
L 139.419504 294.97762 
L 142.698843 294.72243 
L 145.978182 294.297114 
L 149.257521 293.786734 
L 152.53686 293.276354 
L 155.816198 292.128 
L 159.095537 290.894582 
L 162.374876 288.853063 
L 165.654215 286.428759 
L 168.933554 284.089519 
L 172.212893 280.984709 
L 175.492231 277.624709 
L 178.77157 273.414076 
L 182.050909 268.437873 
L 185.330248 262.313316 
L 188.609587 255.42319 
L 191.888926 247.980152 
L 195.168264 239.856608 
L 198.447603 230.627241 
L 201.726942 222.376101 
L 205.006281 212.593823 
L 208.28562 202.896608 
L 211.564959 193.369519 
L 214.844298 183.884962 
L 218.123636 175.251038 
L 221.402975 167.55281 
L 224.682314 159.769519 
L 227.961653 153.006987 
L 231.240992 146.627241 
L 234.520331 141.140658 
L 237.799669 135.909266 
L 241.079008 130.933063 
L 244.358347 126.254582 
L 247.637686 122.809519 
L 250.917025 119.321924 
L 254.196364 116.472304 
L 257.475702 113.962937 
L 260.755041 110.985722 
L 264.03438 108.348759 
L 267.313719 106.222177 
L 270.593058 103.670278 
L 273.872397 101.969013 
L 277.151736 100.395342 
L 280.431074 98.566481 
L 283.710413 96.567494 
L 286.989752 95.249013 
L 290.269091 93.164962 
L 293.54843 91.336101 
L 296.827769 89.634835 
L 300.107107 87.635848 
L 303.386446 85.806987 
L 306.665785 84.531038 
L 309.945124 83.170025 
L 313.224463 82.064203 
L 316.503802 80.533063 
L 319.78314 79.342177 
L 323.062479 78.363949 
L 326.341818 77.470785 
L 329.621157 76.535089 
L 332.900496 75.684456 
L 336.179835 75.089013 
L 339.459174 74.280911 
L 342.738512 73.387747 
L 346.017851 72.537114 
L 349.29719 71.601418 
L 352.576529 70.793316 
L 355.855868 69.85762 
L 359.135207 69.092051 
L 362.414545 68.156354 
L 365.693884 67.390785 
L 368.973223 66.710278 
L 372.252562 65.859646 
L 375.531901 65.094076 
L 378.81124 64.541165 
L 382.090579 64.328506 
L 385.369917 63.562937 
L 388.649256 62.967494 
L 391.928595 62.201924 
L 395.207934 61.606481 
L 398.487273 61.096101 
" style="fill:none;stroke:#238a8d;stroke-linecap:round;stroke-width:1.2;"/>
   </g>
   <g id="line2d_23">
    <path clip-path="url(#pdfdd53690c)" d="M 73.832727 295.488 
L 77.112066 295.488 
L 80.391405 295.488 
L 83.670744 295.488 
L 86.950083 295.488 
L 90.229421 295.488 
L 93.50876 295.488 
L 96.788099 295.488 
L 100.067438 295.488 
L 103.346777 295.488 
L 106.626116 295.488 
L 109.905455 295.488 
L 113.184793 295.488 
L 116.464132 295.445468 
L 119.743471 295.402937 
L 123.02281 295.402937 
L 126.302149 295.402937 
L 129.581488 295.360405 
L 132.860826 295.317873 
L 136.140165 294.97762 
L 139.419504 294.637367 
L 142.698843 293.829266 
L 145.978182 292.936101 
L 149.257521 291.36243 
L 152.53686 289.405975 
L 155.816198 286.471291 
L 159.095537 282.983696 
L 162.374876 278.730532 
L 165.654215 274.307241 
L 168.933554 269.075848 
L 172.212893 263.121418 
L 175.492231 256.954329 
L 178.77157 249.043443 
L 182.050909 241.345215 
L 185.330248 233.051544 
L 188.609587 223.524456 
L 191.888926 214.33762 
L 195.168264 205.193316 
L 198.447603 195.751291 
L 201.726942 187.032304 
L 205.006281 178.270785 
L 208.28562 169.679392 
L 211.564959 160.790278 
L 214.844298 153.687494 
L 218.123636 145.606481 
L 221.402975 139.099139 
L 224.682314 133.229772 
L 227.961653 127.615595 
L 231.240992 121.576101 
L 234.520331 116.812557 
L 237.799669 112.346734 
L 241.079008 108.689013 
L 244.358347 105.881924 
L 247.637686 103.20243 
L 250.917025 100.182684 
L 254.196364 97.248 
L 257.475702 95.589266 
L 260.755041 93.462684 
L 264.03438 91.123443 
L 267.313719 89.039392 
L 270.593058 87.380658 
L 273.872397 86.40243 
L 277.151736 84.913823 
L 280.431074 83.255089 
L 283.710413 82.234329 
L 286.989752 80.533063 
L 290.269091 79.299646 
L 293.54843 77.768506 
L 296.827769 76.279899 
L 300.107107 75.386734 
L 303.386446 74.323443 
L 306.665785 73.430278 
L 309.945124 72.452051 
L 313.224463 71.431291 
L 316.503802 70.580658 
L 319.78314 69.644962 
L 323.062479 68.794329 
L 326.341818 67.986228 
L 329.621157 67.008 
L 332.900496 66.029772 
L 336.179835 65.094076 
L 339.459174 64.243443 
L 342.738512 63.477873 
L 346.017851 62.414582 
L 349.29719 61.861671 
L 352.576529 61.393823 
L 355.855868 60.458127 
L 359.135207 59.607494 
L 362.414545 58.969519 
L 365.693884 58.289013 
L 368.973223 57.736101 
L 372.252562 57.18319 
L 375.531901 56.885468 
L 378.81124 56.375089 
L 382.090579 55.864709 
L 385.369917 55.354329 
L 388.649256 54.673823 
L 391.928595 54.07838 
L 395.207934 53.653063 
L 398.487273 53.568 
" style="fill:none;stroke:#1f968b;stroke-linecap:round;stroke-width:1.2;"/>
   </g>
   <g id="patch_3">
    <path d="M 57.6 307.584 
L 57.6 41.472 
" style="fill:none;stroke:#262626;stroke-linecap:square;stroke-linejoin:miter;"/>
   </g>
   <g id="patch_4">
    <path d="M 414.72 307.584 
L 414.72 41.472 
" style="fill:none;stroke:#262626;stroke-linecap:square;stroke-linejoin:miter;"/>
   </g>
   <g id="patch_5">
    <path d="M 57.6 307.584 
L 414.72 307.584 
" style="fill:none;stroke:#262626;stroke-linecap:square;stroke-linejoin:miter;"/>
   </g>
   <g id="patch_6">
    <path d="M 57.6 41.472 
L 414.72 41.472 
" style="fill:none;stroke:#262626;stroke-linecap:square;stroke-linejoin:miter;"/>
   </g>
   <g id="legend_1">
    <g id="patch_7">
     <path d="M 63.76 204.28725 
L 117.11275 204.28725 
Q 118.87275 204.28725 118.87275 202.52725 
L 118.87275 47.632 
Q 118.87275 45.872 117.11275 45.872 
L 63.76 45.872 
Q 62 45.872 62 47.632 
L 62 202.52725 
Q 62 204.28725 63.76 204.28725 
z
" style="fill:#ffffff;opacity:0.8;stroke:#cccccc;stroke-linejoin:miter;stroke-width:0.8;"/>
    </g>
    <g id="text_15">
     <!-- log(n) -->
     <defs>
      <path d="M 30.609375 48.390625 
Q 23.390625 48.390625 19.1875 42.75 
Q 14.984375 37.109375 14.984375 27.296875 
Q 14.984375 17.484375 19.15625 11.84375 
Q 23.34375 6.203125 30.609375 6.203125 
Q 37.796875 6.203125 41.984375 11.859375 
Q 46.1875 17.53125 46.1875 27.296875 
Q 46.1875 37.015625 41.984375 42.703125 
Q 37.796875 48.390625 30.609375 48.390625 
z
M 30.609375 56 
Q 42.328125 56 49.015625 48.375 
Q 55.71875 40.765625 55.71875 27.296875 
Q 55.71875 13.875 49.015625 6.21875 
Q 42.328125 -1.421875 30.609375 -1.421875 
Q 18.84375 -1.421875 12.171875 6.21875 
Q 5.515625 13.875 5.515625 27.296875 
Q 5.515625 40.765625 12.171875 48.375 
Q 18.84375 56 30.609375 56 
z
" id="DejaVuSans-6f"/>
      <path d="M 45.40625 27.984375 
Q 45.40625 37.75 41.375 43.109375 
Q 37.359375 48.484375 30.078125 48.484375 
Q 22.859375 48.484375 18.828125 43.109375 
Q 14.796875 37.75 14.796875 27.984375 
Q 14.796875 18.265625 18.828125 12.890625 
Q 22.859375 7.515625 30.078125 7.515625 
Q 37.359375 7.515625 41.375 12.890625 
Q 45.40625 18.265625 45.40625 27.984375 
z
M 54.390625 6.78125 
Q 54.390625 -7.171875 48.1875 -13.984375 
Q 42 -20.796875 29.203125 -20.796875 
Q 24.46875 -20.796875 20.265625 -20.09375 
Q 16.0625 -19.390625 12.109375 -17.921875 
L 12.109375 -9.1875 
Q 16.0625 -11.328125 19.921875 -12.34375 
Q 23.78125 -13.375 27.78125 -13.375 
Q 36.625 -13.375 41.015625 -8.765625 
Q 45.40625 -4.15625 45.40625 5.171875 
L 45.40625 9.625 
Q 42.625 4.78125 38.28125 2.390625 
Q 33.9375 0 27.875 0 
Q 17.828125 0 11.671875 7.65625 
Q 5.515625 15.328125 5.515625 27.984375 
Q 5.515625 40.671875 11.671875 48.328125 
Q 17.828125 56 27.875 56 
Q 33.9375 56 38.28125 53.609375 
Q 42.625 51.21875 45.40625 46.390625 
L 45.40625 54.6875 
L 54.390625 54.6875 
z
" id="DejaVuSans-67"/>
     </defs>
     <g style="fill:#262626;" transform="translate(76.331125 56.6865)scale(0.096 -0.096)">
      <use xlink:href="#DejaVuSans-6c"/>
      <use x="27.783203" xlink:href="#DejaVuSans-6f"/>
      <use x="88.964844" xlink:href="#DejaVuSans-67"/>
      <use x="152.441406" xlink:href="#DejaVuSans-28"/>
      <use x="191.455078" xlink:href="#DejaVuSans-6e"/>
      <use x="254.833984" xlink:href="#DejaVuSans-29"/>
     </g>
    </g>
    <g id="line2d_24">
     <path d="M 65.52 66.689625 
L 83.12 66.689625 
" style="fill:none;stroke:#471365;stroke-linecap:round;stroke-width:1.2;"/>
    </g>
    <g id="line2d_25"/>
    <g id="text_16">
     <!-- 6.08 -->
     <defs>
      <path d="M 10.6875 12.40625 
L 21 12.40625 
L 21 0 
L 10.6875 0 
z
" id="DejaVuSans-2e"/>
     </defs>
     <g style="fill:#262626;" transform="translate(90.16 69.769625)scale(0.088 -0.088)">
      <use xlink:href="#DejaVuSans-36"/>
      <use x="63.623047" xlink:href="#DejaVuSans-2e"/>
      <use x="95.410156" xlink:href="#DejaVuSans-30"/>
      <use x="159.033203" xlink:href="#DejaVuSans-38"/>
     </g>
    </g>
    <g id="line2d_26">
     <path d="M 65.52 79.606375 
L 83.12 79.606375 
" style="fill:none;stroke:#482374;stroke-linecap:round;stroke-width:1.2;"/>
    </g>
    <g id="line2d_27"/>
    <g id="text_17">
     <!-- 6.51 -->
     <g style="fill:#262626;" transform="translate(90.16 82.686375)scale(0.088 -0.088)">
      <use xlink:href="#DejaVuSans-36"/>
      <use x="63.623047" xlink:href="#DejaVuSans-2e"/>
      <use x="95.410156" xlink:href="#DejaVuSans-35"/>
      <use x="159.033203" xlink:href="#DejaVuSans-31"/>
     </g>
    </g>
    <g id="line2d_28">
     <path d="M 65.52 92.523125 
L 83.12 92.523125 
" style="fill:none;stroke:#46327e;stroke-linecap:round;stroke-width:1.2;"/>
    </g>
    <g id="line2d_29"/>
    <g id="text_18">
     <!-- 6.95 -->
     <defs>
      <path d="M 10.984375 1.515625 
L 10.984375 10.5 
Q 14.703125 8.734375 18.5 7.8125 
Q 22.3125 6.890625 25.984375 6.890625 
Q 35.75 6.890625 40.890625 13.453125 
Q 46.046875 20.015625 46.78125 33.40625 
Q 43.953125 29.203125 39.59375 26.953125 
Q 35.25 24.703125 29.984375 24.703125 
Q 19.046875 24.703125 12.671875 31.3125 
Q 6.296875 37.9375 6.296875 49.421875 
Q 6.296875 60.640625 12.9375 67.421875 
Q 19.578125 74.21875 30.609375 74.21875 
Q 43.265625 74.21875 49.921875 64.515625 
Q 56.59375 54.828125 56.59375 36.375 
Q 56.59375 19.140625 48.40625 8.859375 
Q 40.234375 -1.421875 26.421875 -1.421875 
Q 22.703125 -1.421875 18.890625 -0.6875 
Q 15.09375 0.046875 10.984375 1.515625 
z
M 30.609375 32.421875 
Q 37.25 32.421875 41.125 36.953125 
Q 45.015625 41.5 45.015625 49.421875 
Q 45.015625 57.28125 41.125 61.84375 
Q 37.25 66.40625 30.609375 66.40625 
Q 23.96875 66.40625 20.09375 61.84375 
Q 16.21875 57.28125 16.21875 49.421875 
Q 16.21875 41.5 20.09375 36.953125 
Q 23.96875 32.421875 30.609375 32.421875 
z
" id="DejaVuSans-39"/>
     </defs>
     <g style="fill:#262626;" transform="translate(90.16 95.603125)scale(0.088 -0.088)">
      <use xlink:href="#DejaVuSans-36"/>
      <use x="63.623047" xlink:href="#DejaVuSans-2e"/>
      <use x="95.410156" xlink:href="#DejaVuSans-39"/>
      <use x="159.033203" xlink:href="#DejaVuSans-35"/>
     </g>
    </g>
    <g id="line2d_30">
     <path d="M 65.52 105.439875 
L 83.12 105.439875 
" style="fill:none;stroke:#424086;stroke-linecap:round;stroke-width:1.2;"/>
    </g>
    <g id="line2d_31"/>
    <g id="text_19">
     <!-- 7.38 -->
     <defs>
      <path d="M 8.203125 72.90625 
L 55.078125 72.90625 
L 55.078125 68.703125 
L 28.609375 0 
L 18.3125 0 
L 43.21875 64.59375 
L 8.203125 64.59375 
z
" id="DejaVuSans-37"/>
     </defs>
     <g style="fill:#262626;" transform="translate(90.16 108.519875)scale(0.088 -0.088)">
      <use xlink:href="#DejaVuSans-37"/>
      <use x="63.623047" xlink:href="#DejaVuSans-2e"/>
      <use x="95.410156" xlink:href="#DejaVuSans-33"/>
      <use x="159.033203" xlink:href="#DejaVuSans-38"/>
     </g>
    </g>
    <g id="line2d_32">
     <path d="M 65.52 118.356625 
L 83.12 118.356625 
" style="fill:none;stroke:#3d4e8a;stroke-linecap:round;stroke-width:1.2;"/>
    </g>
    <g id="line2d_33"/>
    <g id="text_20">
     <!-- 7.82 -->
     <g style="fill:#262626;" transform="translate(90.16 121.436625)scale(0.088 -0.088)">
      <use xlink:href="#DejaVuSans-37"/>
      <use x="63.623047" xlink:href="#DejaVuSans-2e"/>
      <use x="95.410156" xlink:href="#DejaVuSans-38"/>
      <use x="159.033203" xlink:href="#DejaVuSans-32"/>
     </g>
    </g>
    <g id="line2d_34">
     <path d="M 65.52 131.273375 
L 83.12 131.273375 
" style="fill:none;stroke:#365c8d;stroke-linecap:round;stroke-width:1.2;"/>
    </g>
    <g id="line2d_35"/>
    <g id="text_21">
     <!-- 8.25 -->
     <g style="fill:#262626;" transform="translate(90.16 134.353375)scale(0.088 -0.088)">
      <use xlink:href="#DejaVuSans-38"/>
      <use x="63.623047" xlink:href="#DejaVuSans-2e"/>
      <use x="95.410156" xlink:href="#DejaVuSans-32"/>
      <use x="159.033203" xlink:href="#DejaVuSans-35"/>
     </g>
    </g>
    <g id="line2d_36">
     <path d="M 65.52 144.190125 
L 83.12 144.190125 
" style="fill:none;stroke:#31688e;stroke-linecap:round;stroke-width:1.2;"/>
    </g>
    <g id="line2d_37"/>
    <g id="text_22">
     <!-- 8.69 -->
     <g style="fill:#262626;" transform="translate(90.16 147.270125)scale(0.088 -0.088)">
      <use xlink:href="#DejaVuSans-38"/>
      <use x="63.623047" xlink:href="#DejaVuSans-2e"/>
      <use x="95.410156" xlink:href="#DejaVuSans-36"/>
      <use x="159.033203" xlink:href="#DejaVuSans-39"/>
     </g>
    </g>
    <g id="line2d_38">
     <path d="M 65.52 157.106875 
L 83.12 157.106875 
" style="fill:none;stroke:#2c738e;stroke-linecap:round;stroke-width:1.2;"/>
    </g>
    <g id="line2d_39"/>
    <g id="text_23">
     <!-- 9.12 -->
     <g style="fill:#262626;" transform="translate(90.16 160.186875)scale(0.088 -0.088)">
      <use xlink:href="#DejaVuSans-39"/>
      <use x="63.623047" xlink:href="#DejaVuSans-2e"/>
      <use x="95.410156" xlink:href="#DejaVuSans-31"/>
      <use x="159.033203" xlink:href="#DejaVuSans-32"/>
     </g>
    </g>
    <g id="line2d_40">
     <path d="M 65.52 170.023625 
L 83.12 170.023625 
" style="fill:none;stroke:#277f8e;stroke-linecap:round;stroke-width:1.2;"/>
    </g>
    <g id="line2d_41"/>
    <g id="text_24">
     <!-- 9.55 -->
     <g style="fill:#262626;" transform="translate(90.16 173.103625)scale(0.088 -0.088)">
      <use xlink:href="#DejaVuSans-39"/>
      <use x="63.623047" xlink:href="#DejaVuSans-2e"/>
      <use x="95.410156" xlink:href="#DejaVuSans-35"/>
      <use x="159.033203" xlink:href="#DejaVuSans-35"/>
     </g>
    </g>
    <g id="line2d_42">
     <path d="M 65.52 182.940375 
L 83.12 182.940375 
" style="fill:none;stroke:#238a8d;stroke-linecap:round;stroke-width:1.2;"/>
    </g>
    <g id="line2d_43"/>
    <g id="text_25">
     <!-- 9.99 -->
     <g style="fill:#262626;" transform="translate(90.16 186.020375)scale(0.088 -0.088)">
      <use xlink:href="#DejaVuSans-39"/>
      <use x="63.623047" xlink:href="#DejaVuSans-2e"/>
      <use x="95.410156" xlink:href="#DejaVuSans-39"/>
      <use x="159.033203" xlink:href="#DejaVuSans-39"/>
     </g>
    </g>
    <g id="line2d_44">
     <path d="M 65.52 195.857125 
L 83.12 195.857125 
" style="fill:none;stroke:#1f968b;stroke-linecap:round;stroke-width:1.2;"/>
    </g>
    <g id="line2d_45"/>
    <g id="text_26">
     <!-- 10.42 -->
     <g style="fill:#262626;" transform="translate(90.16 198.937125)scale(0.088 -0.088)">
      <use xlink:href="#DejaVuSans-31"/>
      <use x="63.623047" xlink:href="#DejaVuSans-30"/>
      <use x="127.246094" xlink:href="#DejaVuSans-2e"/>
      <use x="159.033203" xlink:href="#DejaVuSans-34"/>
      <use x="222.65625" xlink:href="#DejaVuSans-32"/>
     </g>
    </g>
   </g>
  </g>
 </g>
 <defs>
  <clipPath id="pdfdd53690c">
   <rect height="266.112" width="357.12" x="57.6" y="41.472"/>
  </clipPath>
 </defs>
</svg>
