<?xml version="1.0" encoding="utf-8" standalone="no"?>
<!DOCTYPE svg PUBLIC "-//W3C//DTD SVG 1.1//EN"
  "http://www.w3.org/Graphics/SVG/1.1/DTD/svg11.dtd">
<!-- Created with matplotlib (http://matplotlib.org/) -->
<svg height="345.6pt" version="1.1" viewBox="0 0 460.8 345.6" width="460.8pt" xmlns="http://www.w3.org/2000/svg" xmlns:xlink="http://www.w3.org/1999/xlink">
 <defs>
  <style type="text/css">
*{stroke-linecap:butt;stroke-linejoin:round;}
  </style>
 </defs>
 <g id="figure_1">
  <g id="patch_1">
   <path d="M 0 345.6 
L 460.8 345.6 
L 460.8 0 
L 0 0 
z
" style="fill:#ffffff;"/>
  </g>
  <g id="axes_1">
   <g id="patch_2">
    <path d="M 57.6 307.584 
L 414.72 307.584 
L 414.72 41.472 
L 57.6 41.472 
z
" style="fill:#ffffff;"/>
   </g>
   <g id="matplotlib.axis_1">
    <g id="xtick_1">
     <g id="line2d_1">
      <defs>
       <path d="M 0 0 
L 0 4.8 
" id="m8b250248dc" style="stroke:#262626;"/>
      </defs>
      <g>
       <use style="fill:#262626;stroke:#262626;" x="73.832727" xlink:href="#m8b250248dc" y="307.584"/>
      </g>
     </g>
     <g id="text_1">
      <!-- 0 -->
      <defs>
       <path d="M 31.78125 66.40625 
Q 24.171875 66.40625 20.328125 58.90625 
Q 16.5 51.421875 16.5 36.375 
Q 16.5 21.390625 20.328125 13.890625 
Q 24.171875 6.390625 31.78125 6.390625 
Q 39.453125 6.390625 43.28125 13.890625 
Q 47.125 21.390625 47.125 36.375 
Q 47.125 51.421875 43.28125 58.90625 
Q 39.453125 66.40625 31.78125 66.40625 
z
M 31.78125 74.21875 
Q 44.046875 74.21875 50.515625 64.515625 
Q 56.984375 54.828125 56.984375 36.375 
Q 56.984375 17.96875 50.515625 8.265625 
Q 44.046875 -1.421875 31.78125 -1.421875 
Q 19.53125 -1.421875 13.0625 8.265625 
Q 6.59375 17.96875 6.59375 36.375 
Q 6.59375 54.828125 13.0625 64.515625 
Q 19.53125 74.21875 31.78125 74.21875 
z
" id="DejaVuSans-30"/>
      </defs>
      <g style="fill:#262626;" transform="translate(71.033227 322.570625)scale(0.088 -0.088)">
       <use xlink:href="#DejaVuSans-30"/>
      </g>
     </g>
    </g>
    <g id="xtick_2">
     <g id="line2d_2">
      <g>
       <use style="fill:#262626;stroke:#262626;" x="139.419504" xlink:href="#m8b250248dc" y="307.584"/>
      </g>
     </g>
     <g id="text_2">
      <!-- 20 -->
      <defs>
       <path d="M 19.1875 8.296875 
L 53.609375 8.296875 
L 53.609375 0 
L 7.328125 0 
L 7.328125 8.296875 
Q 12.9375 14.109375 22.625 23.890625 
Q 32.328125 33.6875 34.8125 36.53125 
Q 39.546875 41.84375 41.421875 45.53125 
Q 43.3125 49.21875 43.3125 52.78125 
Q 43.3125 58.59375 39.234375 62.25 
Q 35.15625 65.921875 28.609375 65.921875 
Q 23.96875 65.921875 18.8125 64.3125 
Q 13.671875 62.703125 7.8125 59.421875 
L 7.8125 69.390625 
Q 13.765625 71.78125 18.9375 73 
Q 24.125 74.21875 28.421875 74.21875 
Q 39.75 74.21875 46.484375 68.546875 
Q 53.21875 62.890625 53.21875 53.421875 
Q 53.21875 48.921875 51.53125 44.890625 
Q 49.859375 40.875 45.40625 35.40625 
Q 44.1875 33.984375 37.640625 27.21875 
Q 31.109375 20.453125 19.1875 8.296875 
z
" id="DejaVuSans-32"/>
      </defs>
      <g style="fill:#262626;" transform="translate(133.820504 322.570625)scale(0.088 -0.088)">
       <use xlink:href="#DejaVuSans-32"/>
       <use x="63.623047" xlink:href="#DejaVuSans-30"/>
      </g>
     </g>
    </g>
    <g id="xtick_3">
     <g id="line2d_3">
      <g>
       <use style="fill:#262626;stroke:#262626;" x="205.006281" xlink:href="#m8b250248dc" y="307.584"/>
      </g>
     </g>
     <g id="text_3">
      <!-- 40 -->
      <defs>
       <path d="M 37.796875 64.3125 
L 12.890625 25.390625 
L 37.796875 25.390625 
z
M 35.203125 72.90625 
L 47.609375 72.90625 
L 47.609375 25.390625 
L 58.015625 25.390625 
L 58.015625 17.1875 
L 47.609375 17.1875 
L 47.609375 0 
L 37.796875 0 
L 37.796875 17.1875 
L 4.890625 17.1875 
L 4.890625 26.703125 
z
" id="DejaVuSans-34"/>
      </defs>
      <g style="fill:#262626;" transform="translate(199.407281 322.570625)scale(0.088 -0.088)">
       <use xlink:href="#DejaVuSans-34"/>
       <use x="63.623047" xlink:href="#DejaVuSans-30"/>
      </g>
     </g>
    </g>
    <g id="xtick_4">
     <g id="line2d_4">
      <g>
       <use style="fill:#262626;stroke:#262626;" x="270.593058" xlink:href="#m8b250248dc" y="307.584"/>
      </g>
     </g>
     <g id="text_4">
      <!-- 60 -->
      <defs>
       <path d="M 33.015625 40.375 
Q 26.375 40.375 22.484375 35.828125 
Q 18.609375 31.296875 18.609375 23.390625 
Q 18.609375 15.53125 22.484375 10.953125 
Q 26.375 6.390625 33.015625 6.390625 
Q 39.65625 6.390625 43.53125 10.953125 
Q 47.40625 15.53125 47.40625 23.390625 
Q 47.40625 31.296875 43.53125 35.828125 
Q 39.65625 40.375 33.015625 40.375 
z
M 52.59375 71.296875 
L 52.59375 62.3125 
Q 48.875 64.0625 45.09375 64.984375 
Q 41.3125 65.921875 37.59375 65.921875 
Q 27.828125 65.921875 22.671875 59.328125 
Q 17.53125 52.734375 16.796875 39.40625 
Q 19.671875 43.65625 24.015625 45.921875 
Q 28.375 48.1875 33.59375 48.1875 
Q 44.578125 48.1875 50.953125 41.515625 
Q 57.328125 34.859375 57.328125 23.390625 
Q 57.328125 12.15625 50.6875 5.359375 
Q 44.046875 -1.421875 33.015625 -1.421875 
Q 20.359375 -1.421875 13.671875 8.265625 
Q 6.984375 17.96875 6.984375 36.375 
Q 6.984375 53.65625 15.1875 63.9375 
Q 23.390625 74.21875 37.203125 74.21875 
Q 40.921875 74.21875 44.703125 73.484375 
Q 48.484375 72.75 52.59375 71.296875 
z
" id="DejaVuSans-36"/>
      </defs>
      <g style="fill:#262626;" transform="translate(264.994058 322.570625)scale(0.088 -0.088)">
       <use xlink:href="#DejaVuSans-36"/>
       <use x="63.623047" xlink:href="#DejaVuSans-30"/>
      </g>
     </g>
    </g>
    <g id="xtick_5">
     <g id="line2d_5">
      <g>
       <use style="fill:#262626;stroke:#262626;" x="336.179835" xlink:href="#m8b250248dc" y="307.584"/>
      </g>
     </g>
     <g id="text_5">
      <!-- 80 -->
      <defs>
       <path d="M 31.78125 34.625 
Q 24.75 34.625 20.71875 30.859375 
Q 16.703125 27.09375 16.703125 20.515625 
Q 16.703125 13.921875 20.71875 10.15625 
Q 24.75 6.390625 31.78125 6.390625 
Q 38.8125 6.390625 42.859375 10.171875 
Q 46.921875 13.96875 46.921875 20.515625 
Q 46.921875 27.09375 42.890625 30.859375 
Q 38.875 34.625 31.78125 34.625 
z
M 21.921875 38.8125 
Q 15.578125 40.375 12.03125 44.71875 
Q 8.5 49.078125 8.5 55.328125 
Q 8.5 64.0625 14.71875 69.140625 
Q 20.953125 74.21875 31.78125 74.21875 
Q 42.671875 74.21875 48.875 69.140625 
Q 55.078125 64.0625 55.078125 55.328125 
Q 55.078125 49.078125 51.53125 44.71875 
Q 48 40.375 41.703125 38.8125 
Q 48.828125 37.15625 52.796875 32.3125 
Q 56.78125 27.484375 56.78125 20.515625 
Q 56.78125 9.90625 50.3125 4.234375 
Q 43.84375 -1.421875 31.78125 -1.421875 
Q 19.734375 -1.421875 13.25 4.234375 
Q 6.78125 9.90625 6.78125 20.515625 
Q 6.78125 27.484375 10.78125 32.3125 
Q 14.796875 37.15625 21.921875 38.8125 
z
M 18.3125 54.390625 
Q 18.3125 48.734375 21.84375 45.5625 
Q 25.390625 42.390625 31.78125 42.390625 
Q 38.140625 42.390625 41.71875 45.5625 
Q 45.3125 48.734375 45.3125 54.390625 
Q 45.3125 60.0625 41.71875 63.234375 
Q 38.140625 66.40625 31.78125 66.40625 
Q 25.390625 66.40625 21.84375 63.234375 
Q 18.3125 60.0625 18.3125 54.390625 
z
" id="DejaVuSans-38"/>
      </defs>
      <g style="fill:#262626;" transform="translate(330.580835 322.570625)scale(0.088 -0.088)">
       <use xlink:href="#DejaVuSans-38"/>
       <use x="63.623047" xlink:href="#DejaVuSans-30"/>
      </g>
     </g>
    </g>
    <g id="xtick_6">
     <g id="line2d_6">
      <g>
       <use style="fill:#262626;stroke:#262626;" x="401.766612" xlink:href="#m8b250248dc" y="307.584"/>
      </g>
     </g>
     <g id="text_6">
      <!-- 100 -->
      <defs>
       <path d="M 12.40625 8.296875 
L 28.515625 8.296875 
L 28.515625 63.921875 
L 10.984375 60.40625 
L 10.984375 69.390625 
L 28.421875 72.90625 
L 38.28125 72.90625 
L 38.28125 8.296875 
L 54.390625 8.296875 
L 54.390625 0 
L 12.40625 0 
z
" id="DejaVuSans-31"/>
      </defs>
      <g style="fill:#262626;" transform="translate(393.368112 322.570625)scale(0.088 -0.088)">
       <use xlink:href="#DejaVuSans-31"/>
       <use x="63.623047" xlink:href="#DejaVuSans-30"/>
       <use x="127.246094" xlink:href="#DejaVuSans-30"/>
      </g>
     </g>
    </g>
    <g id="text_7">
     <!-- Time (years) -->
     <defs>
      <path d="M -0.296875 72.90625 
L 61.375 72.90625 
L 61.375 64.59375 
L 35.5 64.59375 
L 35.5 0 
L 25.59375 0 
L 25.59375 64.59375 
L -0.296875 64.59375 
z
" id="DejaVuSans-54"/>
      <path d="M 9.421875 54.6875 
L 18.40625 54.6875 
L 18.40625 0 
L 9.421875 0 
z
M 9.421875 75.984375 
L 18.40625 75.984375 
L 18.40625 64.59375 
L 9.421875 64.59375 
z
" id="DejaVuSans-69"/>
      <path d="M 52 44.1875 
Q 55.375 50.25 60.0625 53.125 
Q 64.75 56 71.09375 56 
Q 79.640625 56 84.28125 50.015625 
Q 88.921875 44.046875 88.921875 33.015625 
L 88.921875 0 
L 79.890625 0 
L 79.890625 32.71875 
Q 79.890625 40.578125 77.09375 44.375 
Q 74.3125 48.1875 68.609375 48.1875 
Q 61.625 48.1875 57.5625 43.546875 
Q 53.515625 38.921875 53.515625 30.90625 
L 53.515625 0 
L 44.484375 0 
L 44.484375 32.71875 
Q 44.484375 40.625 41.703125 44.40625 
Q 38.921875 48.1875 33.109375 48.1875 
Q 26.21875 48.1875 22.15625 43.53125 
Q 18.109375 38.875 18.109375 30.90625 
L 18.109375 0 
L 9.078125 0 
L 9.078125 54.6875 
L 18.109375 54.6875 
L 18.109375 46.1875 
Q 21.1875 51.21875 25.484375 53.609375 
Q 29.78125 56 35.6875 56 
Q 41.65625 56 45.828125 52.96875 
Q 50 49.953125 52 44.1875 
z
" id="DejaVuSans-6d"/>
      <path d="M 56.203125 29.59375 
L 56.203125 25.203125 
L 14.890625 25.203125 
Q 15.484375 15.921875 20.484375 11.0625 
Q 25.484375 6.203125 34.421875 6.203125 
Q 39.59375 6.203125 44.453125 7.46875 
Q 49.3125 8.734375 54.109375 11.28125 
L 54.109375 2.78125 
Q 49.265625 0.734375 44.1875 -0.34375 
Q 39.109375 -1.421875 33.890625 -1.421875 
Q 20.796875 -1.421875 13.15625 6.1875 
Q 5.515625 13.8125 5.515625 26.8125 
Q 5.515625 40.234375 12.765625 48.109375 
Q 20.015625 56 32.328125 56 
Q 43.359375 56 49.78125 48.890625 
Q 56.203125 41.796875 56.203125 29.59375 
z
M 47.21875 32.234375 
Q 47.125 39.59375 43.09375 43.984375 
Q 39.0625 48.390625 32.421875 48.390625 
Q 24.90625 48.390625 20.390625 44.140625 
Q 15.875 39.890625 15.1875 32.171875 
z
" id="DejaVuSans-65"/>
      <path id="DejaVuSans-20"/>
      <path d="M 31 75.875 
Q 24.46875 64.65625 21.28125 53.65625 
Q 18.109375 42.671875 18.109375 31.390625 
Q 18.109375 20.125 21.3125 9.0625 
Q 24.515625 -2 31 -13.1875 
L 23.1875 -13.1875 
Q 15.875 -1.703125 12.234375 9.375 
Q 8.59375 20.453125 8.59375 31.390625 
Q 8.59375 42.28125 12.203125 53.3125 
Q 15.828125 64.359375 23.1875 75.875 
z
" id="DejaVuSans-28"/>
      <path d="M 32.171875 -5.078125 
Q 28.375 -14.84375 24.75 -17.8125 
Q 21.140625 -20.796875 15.09375 -20.796875 
L 7.90625 -20.796875 
L 7.90625 -13.28125 
L 13.1875 -13.28125 
Q 16.890625 -13.28125 18.9375 -11.515625 
Q 21 -9.765625 23.484375 -3.21875 
L 25.09375 0.875 
L 2.984375 54.6875 
L 12.5 54.6875 
L 29.59375 11.921875 
L 46.6875 54.6875 
L 56.203125 54.6875 
z
" id="DejaVuSans-79"/>
      <path d="M 34.28125 27.484375 
Q 23.390625 27.484375 19.1875 25 
Q 14.984375 22.515625 14.984375 16.5 
Q 14.984375 11.71875 18.140625 8.90625 
Q 21.296875 6.109375 26.703125 6.109375 
Q 34.1875 6.109375 38.703125 11.40625 
Q 43.21875 16.703125 43.21875 25.484375 
L 43.21875 27.484375 
z
M 52.203125 31.203125 
L 52.203125 0 
L 43.21875 0 
L 43.21875 8.296875 
Q 40.140625 3.328125 35.546875 0.953125 
Q 30.953125 -1.421875 24.3125 -1.421875 
Q 15.921875 -1.421875 10.953125 3.296875 
Q 6 8.015625 6 15.921875 
Q 6 25.140625 12.171875 29.828125 
Q 18.359375 34.515625 30.609375 34.515625 
L 43.21875 34.515625 
L 43.21875 35.40625 
Q 43.21875 41.609375 39.140625 45 
Q 35.0625 48.390625 27.6875 48.390625 
Q 23 48.390625 18.546875 47.265625 
Q 14.109375 46.140625 10.015625 43.890625 
L 10.015625 52.203125 
Q 14.9375 54.109375 19.578125 55.046875 
Q 24.21875 56 28.609375 56 
Q 40.484375 56 46.34375 49.84375 
Q 52.203125 43.703125 52.203125 31.203125 
z
" id="DejaVuSans-61"/>
      <path d="M 41.109375 46.296875 
Q 39.59375 47.171875 37.8125 47.578125 
Q 36.03125 48 33.890625 48 
Q 26.265625 48 22.1875 43.046875 
Q 18.109375 38.09375 18.109375 28.8125 
L 18.109375 0 
L 9.078125 0 
L 9.078125 54.6875 
L 18.109375 54.6875 
L 18.109375 46.1875 
Q 20.953125 51.171875 25.484375 53.578125 
Q 30.03125 56 36.53125 56 
Q 37.453125 56 38.578125 55.875 
Q 39.703125 55.765625 41.0625 55.515625 
z
" id="DejaVuSans-72"/>
      <path d="M 44.28125 53.078125 
L 44.28125 44.578125 
Q 40.484375 46.53125 36.375 47.5 
Q 32.28125 48.484375 27.875 48.484375 
Q 21.1875 48.484375 17.84375 46.4375 
Q 14.5 44.390625 14.5 40.28125 
Q 14.5 37.15625 16.890625 35.375 
Q 19.28125 33.59375 26.515625 31.984375 
L 29.59375 31.296875 
Q 39.15625 29.25 43.1875 25.515625 
Q 47.21875 21.78125 47.21875 15.09375 
Q 47.21875 7.46875 41.1875 3.015625 
Q 35.15625 -1.421875 24.609375 -1.421875 
Q 20.21875 -1.421875 15.453125 -0.5625 
Q 10.6875 0.296875 5.421875 2 
L 5.421875 11.28125 
Q 10.40625 8.6875 15.234375 7.390625 
Q 20.0625 6.109375 24.8125 6.109375 
Q 31.15625 6.109375 34.5625 8.28125 
Q 37.984375 10.453125 37.984375 14.40625 
Q 37.984375 18.0625 35.515625 20.015625 
Q 33.0625 21.96875 24.703125 23.78125 
L 21.578125 24.515625 
Q 13.234375 26.265625 9.515625 29.90625 
Q 5.8125 33.546875 5.8125 39.890625 
Q 5.8125 47.609375 11.28125 51.796875 
Q 16.75 56 26.8125 56 
Q 31.78125 56 36.171875 55.265625 
Q 40.578125 54.546875 44.28125 53.078125 
z
" id="DejaVuSans-73"/>
      <path d="M 8.015625 75.875 
L 15.828125 75.875 
Q 23.140625 64.359375 26.78125 53.3125 
Q 30.421875 42.28125 30.421875 31.390625 
Q 30.421875 20.453125 26.78125 9.375 
Q 23.140625 -1.703125 15.828125 -13.1875 
L 8.015625 -13.1875 
Q 14.5 -2 17.703125 9.0625 
Q 20.90625 20.125 20.90625 31.390625 
Q 20.90625 42.671875 17.703125 53.65625 
Q 14.5 64.65625 8.015625 75.875 
z
" id="DejaVuSans-29"/>
     </defs>
     <g style="fill:#262626;" transform="translate(205.78725 335.69525)scale(0.096 -0.096)">
      <use xlink:href="#DejaVuSans-54"/>
      <use x="61.037109" xlink:href="#DejaVuSans-69"/>
      <use x="88.820312" xlink:href="#DejaVuSans-6d"/>
      <use x="186.232422" xlink:href="#DejaVuSans-65"/>
      <use x="247.755859" xlink:href="#DejaVuSans-20"/>
      <use x="279.542969" xlink:href="#DejaVuSans-28"/>
      <use x="318.556641" xlink:href="#DejaVuSans-79"/>
      <use x="377.736328" xlink:href="#DejaVuSans-65"/>
      <use x="439.259766" xlink:href="#DejaVuSans-61"/>
      <use x="500.539062" xlink:href="#DejaVuSans-72"/>
      <use x="541.652344" xlink:href="#DejaVuSans-73"/>
      <use x="593.751953" xlink:href="#DejaVuSans-29"/>
     </g>
    </g>
   </g>
   <g id="matplotlib.axis_2">
    <g id="ytick_1">
     <g id="line2d_7">
      <defs>
       <path d="M 0 0 
L -4.8 0 
" id="mf01d07a620" style="stroke:#262626;"/>
      </defs>
      <g>
       <use style="fill:#262626;stroke:#262626;" x="57.6" xlink:href="#mf01d07a620" y="295.488"/>
      </g>
     </g>
     <g id="text_8">
      <!-- 0 -->
      <g style="fill:#262626;" transform="translate(43.701 298.831312)scale(0.088 -0.088)">
       <use xlink:href="#DejaVuSans-30"/>
      </g>
     </g>
    </g>
    <g id="ytick_2">
     <g id="line2d_8">
      <g>
       <use style="fill:#262626;stroke:#262626;" x="57.6" xlink:href="#mf01d07a620" y="257.405929"/>
      </g>
     </g>
     <g id="text_9">
      <!-- 50 -->
      <defs>
       <path d="M 10.796875 72.90625 
L 49.515625 72.90625 
L 49.515625 64.59375 
L 19.828125 64.59375 
L 19.828125 46.734375 
Q 21.96875 47.46875 24.109375 47.828125 
Q 26.265625 48.1875 28.421875 48.1875 
Q 40.625 48.1875 47.75 41.5 
Q 54.890625 34.8125 54.890625 23.390625 
Q 54.890625 11.625 47.5625 5.09375 
Q 40.234375 -1.421875 26.90625 -1.421875 
Q 22.3125 -1.421875 17.546875 -0.640625 
Q 12.796875 0.140625 7.71875 1.703125 
L 7.71875 11.625 
Q 12.109375 9.234375 16.796875 8.0625 
Q 21.484375 6.890625 26.703125 6.890625 
Q 35.15625 6.890625 40.078125 11.328125 
Q 45.015625 15.765625 45.015625 23.390625 
Q 45.015625 31 40.078125 35.4375 
Q 35.15625 39.890625 26.703125 39.890625 
Q 22.75 39.890625 18.8125 39.015625 
Q 14.890625 38.140625 10.796875 36.28125 
z
" id="DejaVuSans-35"/>
      </defs>
      <g style="fill:#262626;" transform="translate(38.102 260.749242)scale(0.088 -0.088)">
       <use xlink:href="#DejaVuSans-35"/>
       <use x="63.623047" xlink:href="#DejaVuSans-30"/>
      </g>
     </g>
    </g>
    <g id="ytick_3">
     <g id="line2d_9">
      <g>
       <use style="fill:#262626;stroke:#262626;" x="57.6" xlink:href="#mf01d07a620" y="219.323859"/>
      </g>
     </g>
     <g id="text_10">
      <!-- 100 -->
      <g style="fill:#262626;" transform="translate(32.503 222.667171)scale(0.088 -0.088)">
       <use xlink:href="#DejaVuSans-31"/>
       <use x="63.623047" xlink:href="#DejaVuSans-30"/>
       <use x="127.246094" xlink:href="#DejaVuSans-30"/>
      </g>
     </g>
    </g>
    <g id="ytick_4">
     <g id="line2d_10">
      <g>
       <use style="fill:#262626;stroke:#262626;" x="57.6" xlink:href="#mf01d07a620" y="181.241788"/>
      </g>
     </g>
     <g id="text_11">
      <!-- 150 -->
      <g style="fill:#262626;" transform="translate(32.503 184.585101)scale(0.088 -0.088)">
       <use xlink:href="#DejaVuSans-31"/>
       <use x="63.623047" xlink:href="#DejaVuSans-35"/>
       <use x="127.246094" xlink:href="#DejaVuSans-30"/>
      </g>
     </g>
    </g>
    <g id="ytick_5">
     <g id="line2d_11">
      <g>
       <use style="fill:#262626;stroke:#262626;" x="57.6" xlink:href="#mf01d07a620" y="143.159718"/>
      </g>
     </g>
     <g id="text_12">
      <!-- 200 -->
      <g style="fill:#262626;" transform="translate(32.503 146.50303)scale(0.088 -0.088)">
       <use xlink:href="#DejaVuSans-32"/>
       <use x="63.623047" xlink:href="#DejaVuSans-30"/>
       <use x="127.246094" xlink:href="#DejaVuSans-30"/>
      </g>
     </g>
    </g>
    <g id="ytick_6">
     <g id="line2d_12">
      <g>
       <use style="fill:#262626;stroke:#262626;" x="57.6" xlink:href="#mf01d07a620" y="105.077647"/>
      </g>
     </g>
     <g id="text_13">
      <!-- 250 -->
      <g style="fill:#262626;" transform="translate(32.503 108.42096)scale(0.088 -0.088)">
       <use xlink:href="#DejaVuSans-32"/>
       <use x="63.623047" xlink:href="#DejaVuSans-35"/>
       <use x="127.246094" xlink:href="#DejaVuSans-30"/>
      </g>
     </g>
    </g>
    <g id="ytick_7">
     <g id="line2d_13">
      <g>
       <use style="fill:#262626;stroke:#262626;" x="57.6" xlink:href="#mf01d07a620" y="66.995576"/>
      </g>
     </g>
     <g id="text_14">
      <!-- 300 -->
      <defs>
       <path d="M 40.578125 39.3125 
Q 47.65625 37.796875 51.625 33 
Q 55.609375 28.21875 55.609375 21.1875 
Q 55.609375 10.40625 48.1875 4.484375 
Q 40.765625 -1.421875 27.09375 -1.421875 
Q 22.515625 -1.421875 17.65625 -0.515625 
Q 12.796875 0.390625 7.625 2.203125 
L 7.625 11.71875 
Q 11.71875 9.328125 16.59375 8.109375 
Q 21.484375 6.890625 26.8125 6.890625 
Q 36.078125 6.890625 40.9375 10.546875 
Q 45.796875 14.203125 45.796875 21.1875 
Q 45.796875 27.640625 41.28125 31.265625 
Q 36.765625 34.90625 28.71875 34.90625 
L 20.21875 34.90625 
L 20.21875 43.015625 
L 29.109375 43.015625 
Q 36.375 43.015625 40.234375 45.921875 
Q 44.09375 48.828125 44.09375 54.296875 
Q 44.09375 59.90625 40.109375 62.90625 
Q 36.140625 65.921875 28.71875 65.921875 
Q 24.65625 65.921875 20.015625 65.03125 
Q 15.375 64.15625 9.8125 62.3125 
L 9.8125 71.09375 
Q 15.4375 72.65625 20.34375 73.4375 
Q 25.25 74.21875 29.59375 74.21875 
Q 40.828125 74.21875 47.359375 69.109375 
Q 53.90625 64.015625 53.90625 55.328125 
Q 53.90625 49.265625 50.4375 45.09375 
Q 46.96875 40.921875 40.578125 39.3125 
z
" id="DejaVuSans-33"/>
      </defs>
      <g style="fill:#262626;" transform="translate(32.503 70.338889)scale(0.088 -0.088)">
       <use xlink:href="#DejaVuSans-33"/>
       <use x="63.623047" xlink:href="#DejaVuSans-30"/>
       <use x="127.246094" xlink:href="#DejaVuSans-30"/>
      </g>
     </g>
    </g>
    <g id="text_15">
     <!-- Crude incidence -->
     <defs>
      <path d="M 64.40625 67.28125 
L 64.40625 56.890625 
Q 59.421875 61.53125 53.78125 63.8125 
Q 48.140625 66.109375 41.796875 66.109375 
Q 29.296875 66.109375 22.65625 58.46875 
Q 16.015625 50.828125 16.015625 36.375 
Q 16.015625 21.96875 22.65625 14.328125 
Q 29.296875 6.6875 41.796875 6.6875 
Q 48.140625 6.6875 53.78125 8.984375 
Q 59.421875 11.28125 64.40625 15.921875 
L 64.40625 5.609375 
Q 59.234375 2.09375 53.4375 0.328125 
Q 47.65625 -1.421875 41.21875 -1.421875 
Q 24.65625 -1.421875 15.125 8.703125 
Q 5.609375 18.84375 5.609375 36.375 
Q 5.609375 53.953125 15.125 64.078125 
Q 24.65625 74.21875 41.21875 74.21875 
Q 47.75 74.21875 53.53125 72.484375 
Q 59.328125 70.75 64.40625 67.28125 
z
" id="DejaVuSans-43"/>
      <path d="M 8.5 21.578125 
L 8.5 54.6875 
L 17.484375 54.6875 
L 17.484375 21.921875 
Q 17.484375 14.15625 20.5 10.265625 
Q 23.53125 6.390625 29.59375 6.390625 
Q 36.859375 6.390625 41.078125 11.03125 
Q 45.3125 15.671875 45.3125 23.6875 
L 45.3125 54.6875 
L 54.296875 54.6875 
L 54.296875 0 
L 45.3125 0 
L 45.3125 8.40625 
Q 42.046875 3.421875 37.71875 1 
Q 33.40625 -1.421875 27.6875 -1.421875 
Q 18.265625 -1.421875 13.375 4.4375 
Q 8.5 10.296875 8.5 21.578125 
z
M 31.109375 56 
z
" id="DejaVuSans-75"/>
      <path d="M 45.40625 46.390625 
L 45.40625 75.984375 
L 54.390625 75.984375 
L 54.390625 0 
L 45.40625 0 
L 45.40625 8.203125 
Q 42.578125 3.328125 38.25 0.953125 
Q 33.9375 -1.421875 27.875 -1.421875 
Q 17.96875 -1.421875 11.734375 6.484375 
Q 5.515625 14.40625 5.515625 27.296875 
Q 5.515625 40.1875 11.734375 48.09375 
Q 17.96875 56 27.875 56 
Q 33.9375 56 38.25 53.625 
Q 42.578125 51.265625 45.40625 46.390625 
z
M 14.796875 27.296875 
Q 14.796875 17.390625 18.875 11.75 
Q 22.953125 6.109375 30.078125 6.109375 
Q 37.203125 6.109375 41.296875 11.75 
Q 45.40625 17.390625 45.40625 27.296875 
Q 45.40625 37.203125 41.296875 42.84375 
Q 37.203125 48.484375 30.078125 48.484375 
Q 22.953125 48.484375 18.875 42.84375 
Q 14.796875 37.203125 14.796875 27.296875 
z
" id="DejaVuSans-64"/>
      <path d="M 54.890625 33.015625 
L 54.890625 0 
L 45.90625 0 
L 45.90625 32.71875 
Q 45.90625 40.484375 42.875 44.328125 
Q 39.84375 48.1875 33.796875 48.1875 
Q 26.515625 48.1875 22.3125 43.546875 
Q 18.109375 38.921875 18.109375 30.90625 
L 18.109375 0 
L 9.078125 0 
L 9.078125 54.6875 
L 18.109375 54.6875 
L 18.109375 46.1875 
Q 21.34375 51.125 25.703125 53.5625 
Q 30.078125 56 35.796875 56 
Q 45.21875 56 50.046875 50.171875 
Q 54.890625 44.34375 54.890625 33.015625 
z
" id="DejaVuSans-6e"/>
      <path d="M 48.78125 52.59375 
L 48.78125 44.1875 
Q 44.96875 46.296875 41.140625 47.34375 
Q 37.3125 48.390625 33.40625 48.390625 
Q 24.65625 48.390625 19.8125 42.84375 
Q 14.984375 37.3125 14.984375 27.296875 
Q 14.984375 17.28125 19.8125 11.734375 
Q 24.65625 6.203125 33.40625 6.203125 
Q 37.3125 6.203125 41.140625 7.25 
Q 44.96875 8.296875 48.78125 10.40625 
L 48.78125 2.09375 
Q 45.015625 0.34375 40.984375 -0.53125 
Q 36.96875 -1.421875 32.421875 -1.421875 
Q 20.0625 -1.421875 12.78125 6.34375 
Q 5.515625 14.109375 5.515625 27.296875 
Q 5.515625 40.671875 12.859375 48.328125 
Q 20.21875 56 33.015625 56 
Q 37.15625 56 41.109375 55.140625 
Q 45.0625 54.296875 48.78125 52.59375 
z
" id="DejaVuSans-63"/>
     </defs>
     <g style="fill:#262626;" transform="translate(26.5065 213.405)rotate(-90)scale(0.096 -0.096)">
      <use xlink:href="#DejaVuSans-43"/>
      <use x="69.824219" xlink:href="#DejaVuSans-72"/>
      <use x="110.9375" xlink:href="#DejaVuSans-75"/>
      <use x="174.316406" xlink:href="#DejaVuSans-64"/>
      <use x="237.792969" xlink:href="#DejaVuSans-65"/>
      <use x="299.316406" xlink:href="#DejaVuSans-20"/>
      <use x="331.103516" xlink:href="#DejaVuSans-69"/>
      <use x="358.886719" xlink:href="#DejaVuSans-6e"/>
      <use x="422.265625" xlink:href="#DejaVuSans-63"/>
      <use x="477.246094" xlink:href="#DejaVuSans-69"/>
      <use x="505.029297" xlink:href="#DejaVuSans-64"/>
      <use x="568.505859" xlink:href="#DejaVuSans-65"/>
      <use x="630.029297" xlink:href="#DejaVuSans-6e"/>
      <use x="693.408203" xlink:href="#DejaVuSans-63"/>
      <use x="748.388672" xlink:href="#DejaVuSans-65"/>
     </g>
    </g>
   </g>
   <g id="line2d_14">
    <path clip-path="url(#p2c83edff97)" d="M 73.832727 295.488 
L 77.112066 295.488 
L 80.391405 295.488 
L 83.670744 295.488 
L 86.950083 295.488 
L 90.229421 295.488 
L 93.50876 295.488 
L 96.788099 295.488 
L 100.067438 295.488 
L 103.346777 295.488 
L 106.626116 295.488 
L 109.905455 295.488 
L 113.184793 295.488 
L 116.464132 295.488 
L 119.743471 295.488 
L 123.02281 295.488 
L 126.302149 295.488 
L 129.581488 295.488 
L 132.860826 295.488 
L 136.140165 295.488 
L 139.419504 295.488 
L 142.698843 295.488 
L 145.978182 295.488 
L 149.257521 295.488 
L 152.53686 295.488 
L 155.816198 295.488 
L 159.095537 295.488 
L 162.374876 295.488 
L 165.654215 295.488 
L 168.933554 295.488 
L 172.212893 295.488 
L 175.492231 295.488 
L 178.77157 295.488 
L 182.050909 295.488 
L 185.330248 295.488 
L 188.609587 295.488 
L 191.888926 295.488 
L 195.168264 295.488 
L 198.447603 295.488 
L 201.726942 295.488 
L 205.006281 295.488 
L 208.28562 294.726282 
L 211.564959 295.488 
L 214.844298 294.726206 
L 218.123636 295.488 
L 221.402975 295.488 
L 224.682314 294.72613 
L 227.961653 295.488 
L 231.240992 295.488 
L 234.520331 293.963955 
L 237.799669 295.488 
L 241.079008 295.488 
L 244.358347 293.201246 
L 247.637686 294.725672 
L 250.917025 294.725596 
L 254.196364 294.72552 
L 257.475702 293.962734 
L 260.755041 293.199414 
L 264.03438 293.96197 
L 267.313719 294.724909 
L 270.593058 291.670631 
L 273.872397 291.668717 
L 277.151736 294.724067 
L 280.431074 290.901641 
L 283.710413 292.429199 
L 286.989752 288.599474 
L 290.269091 290.126486 
L 293.54843 290.889642 
L 296.827769 285.51184 
L 300.107107 279.338495 
L 303.386446 285.477548 
L 306.665785 287.779859 
L 309.945124 285.454216 
L 313.224463 281.56968 
L 316.503802 283.096031 
L 319.78314 276.854571 
L 323.062479 283.04542 
L 326.341818 272.086482 
L 329.621157 277.504474 
L 332.900496 267.235459 
L 336.179835 273.45022 
L 339.459174 262.287233 
L 342.738512 259.748831 
L 346.017851 270.787839 
L 349.29719 261.071669 
L 352.576529 264.144732 
L 355.855868 268.064715 
L 359.135207 246.78451 
L 362.414545 257.9647 
L 365.693884 248.706146 
L 368.973223 249.247845 
L 372.252562 238.922233 
L 375.531901 248.617759 
L 378.81124 238.995169 
L 382.090579 247.975558 
L 385.369917 244.239279 
L 388.649256 231.752317 
L 391.928595 237.340809 
L 395.207934 243.05743 
L 398.487273 232.047253 
" style="fill:none;stroke:#471365;stroke-linecap:round;stroke-width:1.2;"/>
   </g>
   <g id="line2d_15">
    <path clip-path="url(#p2c83edff97)" d="M 73.832727 295.488 
L 77.112066 295.488 
L 80.391405 295.488 
L 83.670744 295.488 
L 86.950083 295.488 
L 90.229421 295.488 
L 93.50876 295.488 
L 96.788099 295.488 
L 100.067438 295.488 
L 103.346777 295.488 
L 106.626116 295.488 
L 109.905455 295.488 
L 113.184793 295.488 
L 116.464132 295.488 
L 119.743471 295.488 
L 123.02281 295.488 
L 126.302149 295.488 
L 129.581488 295.488 
L 132.860826 295.488 
L 136.140165 295.488 
L 139.419504 295.488 
L 142.698843 295.488 
L 145.978182 295.488 
L 149.257521 295.488 
L 152.53686 295.488 
L 155.816198 295.488 
L 159.095537 295.488 
L 162.374876 295.488 
L 165.654215 295.488 
L 168.933554 294.726282 
L 172.212893 295.488 
L 175.492231 295.488 
L 178.77157 295.488 
L 182.050909 295.488 
L 185.330248 295.488 
L 188.609587 295.488 
L 191.888926 295.488 
L 195.168264 295.488 
L 198.447603 295.488 
L 201.726942 295.488 
L 205.006281 295.488 
L 208.28562 295.488 
L 211.564959 295.488 
L 214.844298 294.726206 
L 218.123636 293.964108 
L 221.402975 294.725978 
L 224.682314 293.201246 
L 227.961653 294.725672 
L 231.240992 293.200331 
L 234.520331 294.725367 
L 237.799669 293.962429 
L 241.079008 291.672161 
L 244.358347 292.434105 
L 247.637686 290.139931 
L 250.917025 288.605698 
L 254.196364 293.958292 
L 257.475702 291.66181 
L 260.755041 284.759577 
L 264.03438 290.887327 
L 267.313719 284.737945 
L 270.593058 284.72275 
L 273.872397 276.988462 
L 277.151736 275.39396 
L 280.431074 280.775529 
L 283.710413 284.63178 
L 286.989752 279.168778 
L 290.269091 276.791678 
L 293.54843 274.396392 
L 296.827769 269.621821 
L 300.107107 266.375673 
L 303.386446 263.884622 
L 306.665785 255.777812 
L 309.945124 265.988647 
L 313.224463 250.577061 
L 316.503802 250.310668 
L 319.78314 244.32207 
L 323.062479 243.152752 
L 326.341818 240.302562 
L 329.621157 239.899792 
L 332.900496 246.220548 
L 336.179835 236.583018 
L 339.459174 234.414181 
L 342.738512 235.644136 
L 346.017851 216.888126 
L 349.29719 226.636104 
L 352.576529 238.413188 
L 355.855868 199.460365 
L 359.135207 218.246064 
L 362.414545 202.760113 
L 365.693884 209.992947 
L 368.973223 221.226802 
L 372.252562 205.319575 
L 375.531901 210.00636 
L 378.81124 233.246748 
L 382.090579 205.381587 
L 385.369917 224.096342 
L 388.649256 221.427186 
L 391.928595 205.565755 
L 395.207934 215.729687 
L 398.487273 216.947236 
" style="fill:none;stroke:#482374;stroke-linecap:round;stroke-width:1.2;"/>
   </g>
   <g id="line2d_16">
    <path clip-path="url(#p2c83edff97)" d="M 73.832727 295.488 
L 77.112066 295.488 
L 80.391405 295.488 
L 83.670744 295.488 
L 86.950083 295.488 
L 90.229421 295.488 
L 93.50876 295.488 
L 96.788099 295.488 
L 100.067438 295.488 
L 103.346777 295.488 
L 106.626116 295.488 
L 109.905455 295.488 
L 113.184793 295.488 
L 116.464132 295.488 
L 119.743471 295.488 
L 123.02281 295.488 
L 126.302149 295.488 
L 129.581488 295.488 
L 132.860826 295.488 
L 136.140165 295.488 
L 139.419504 295.488 
L 142.698843 295.488 
L 145.978182 295.488 
L 149.257521 295.488 
L 152.53686 295.488 
L 155.816198 295.488 
L 159.095537 295.488 
L 162.374876 295.488 
L 165.654215 295.488 
L 168.933554 295.488 
L 172.212893 295.488 
L 175.492231 295.488 
L 178.77157 295.488 
L 182.050909 295.488 
L 185.330248 295.488 
L 188.609587 294.726282 
L 191.888926 295.488 
L 195.168264 294.726206 
L 198.447603 295.488 
L 201.726942 293.201933 
L 205.006281 295.488 
L 208.28562 293.201246 
L 211.564959 292.437774 
L 214.844298 293.199643 
L 218.123636 290.908535 
L 221.402975 293.197579 
L 224.682314 290.904401 
L 227.961653 287.075453 
L 231.240992 290.130796 
L 234.520331 287.060221 
L 237.799669 288.586296 
L 241.079008 286.274596 
L 244.358347 282.413271 
L 247.637686 280.846977 
L 250.917025 276.949061 
L 254.196364 278.45597 
L 257.475702 276.862166 
L 260.755041 274.476129 
L 264.03438 268.152633 
L 267.313719 257.814064 
L 270.593058 255.247959 
L 273.872397 255.831569 
L 277.151736 264.42985 
L 280.431074 253.850749 
L 283.710413 247.140047 
L 286.989752 239.478986 
L 290.269091 235.76746 
L 293.54843 221.141224 
L 296.827769 229.664051 
L 300.107107 216.352051 
L 303.386446 224.108017 
L 306.665785 229.489363 
L 309.945124 220.180803 
L 313.224463 205.275183 
L 316.503802 206.883834 
L 319.78314 192.211544 
L 323.062479 198.168164 
L 326.341818 195.041643 
L 329.621157 196.537161 
L 332.900496 200.022894 
L 336.179835 201.718077 
L 339.459174 192.694532 
L 342.738512 184.306655 
L 346.017851 182.659631 
L 349.29719 196.363354 
L 352.576529 200.244419 
L 355.855868 184.307057 
L 359.135207 208.257095 
L 362.414545 185.676878 
L 365.693884 200.498708 
L 368.973223 202.618225 
L 372.252562 203.710652 
L 375.531901 216.161991 
L 378.81124 206.188992 
L 382.090579 216.685695 
L 385.369917 220.523294 
L 388.649256 203.273944 
L 391.928595 214.085805 
L 395.207934 203.551351 
L 398.487273 235.317245 
" style="fill:none;stroke:#46327e;stroke-linecap:round;stroke-width:1.2;"/>
   </g>
   <g id="line2d_17">
    <path clip-path="url(#p2c83edff97)" d="M 73.832727 295.488 
L 77.112066 295.488 
L 80.391405 295.488 
L 83.670744 295.488 
L 86.950083 295.488 
L 90.229421 295.488 
L 93.50876 295.488 
L 96.788099 295.488 
L 100.067438 295.488 
L 103.346777 295.488 
L 106.626116 295.488 
L 109.905455 295.488 
L 113.184793 295.488 
L 116.464132 295.488 
L 119.743471 295.488 
L 123.02281 295.488 
L 126.302149 295.488 
L 129.581488 295.488 
L 132.860826 295.488 
L 136.140165 295.488 
L 139.419504 295.488 
L 142.698843 295.488 
L 145.978182 295.488 
L 149.257521 295.488 
L 152.53686 295.488 
L 155.816198 295.488 
L 159.095537 295.488 
L 162.374876 295.488 
L 165.654215 295.488 
L 168.933554 294.726282 
L 172.212893 293.96426 
L 175.492231 295.488 
L 178.77157 294.726054 
L 182.050909 293.963803 
L 185.330248 294.725825 
L 188.609587 294.725749 
L 191.888926 294.725672 
L 195.168264 293.96304 
L 198.447603 291.67369 
L 201.726942 292.435329 
L 205.006281 290.142076 
L 208.28562 292.431961 
L 211.564959 287.84023 
L 214.844298 283.231878 
L 218.123636 283.212124 
L 221.402975 286.26995 
L 224.682314 287.798536 
L 227.961653 283.164952 
L 231.240992 280.052973 
L 234.520331 269.157743 
L 237.799669 263.603889 
L 241.079008 268.172241 
L 244.358347 260.205044 
L 247.637686 259.249373 
L 250.917025 250.317299 
L 254.196364 252.452909 
L 257.475702 251.402252 
L 260.755041 256.008016 
L 264.03438 231.30017 
L 267.313719 225.793178 
L 270.593058 244.310188 
L 273.872397 225.513289 
L 277.151736 210.41193 
L 280.431074 197.371318 
L 283.710413 203.089325 
L 286.989752 192.208654 
L 290.269091 198.875741 
L 293.54843 186.70777 
L 296.827769 201.750319 
L 300.107107 178.127579 
L 303.386446 186.762423 
L 306.665785 176.496403 
L 309.945124 185.399093 
L 313.224463 176.818658 
L 316.503802 187.065754 
L 319.78314 182.42791 
L 323.062479 169.266101 
L 326.341818 176.676942 
L 329.621157 184.461555 
L 332.900496 177.370764 
L 336.179835 193.195826 
L 339.459174 172.749619 
L 342.738512 196.922641 
L 346.017851 196.779818 
L 349.29719 203.627133 
L 352.576529 210.732172 
L 355.855868 207.403026 
L 359.135207 218.374773 
L 362.414545 224.843694 
L 365.693884 220.520914 
L 368.973223 206.185361 
L 372.252562 212.633682 
L 375.531901 195.255539 
L 378.81124 233.596741 
L 382.090579 231.805608 
L 385.369917 240.324482 
L 388.649256 238.620153 
L 391.928595 239.504101 
L 395.207934 227.179353 
L 398.487273 234.577873 
" style="fill:none;stroke:#424086;stroke-linecap:round;stroke-width:1.2;"/>
   </g>
   <g id="line2d_18">
    <path clip-path="url(#p2c83edff97)" d="M 73.832727 295.488 
L 77.112066 295.488 
L 80.391405 295.488 
L 83.670744 295.488 
L 86.950083 295.488 
L 90.229421 295.488 
L 93.50876 295.488 
L 96.788099 295.488 
L 100.067438 295.488 
L 103.346777 295.488 
L 106.626116 295.488 
L 109.905455 295.488 
L 113.184793 295.488 
L 116.464132 295.488 
L 119.743471 295.488 
L 123.02281 295.488 
L 126.302149 295.488 
L 129.581488 295.488 
L 132.860826 295.488 
L 136.140165 295.488 
L 139.419504 295.488 
L 142.698843 295.488 
L 145.978182 295.488 
L 149.257521 295.488 
L 152.53686 295.488 
L 155.816198 294.726282 
L 159.095537 295.488 
L 162.374876 295.488 
L 165.654215 295.488 
L 168.933554 295.488 
L 172.212893 293.96426 
L 175.492231 294.726054 
L 178.77157 293.963803 
L 182.050909 295.488 
L 185.330248 291.675599 
L 188.609587 289.38327 
L 191.888926 291.670631 
L 195.168264 288.610532 
L 198.447603 280.94117 
L 201.726942 282.450135 
L 205.006281 279.348273 
L 208.28562 275.452916 
L 211.564959 276.174646 
L 214.844298 259.784846 
L 218.123636 264.31471 
L 221.402975 258.68238 
L 224.682314 246.624416 
L 227.961653 256.673201 
L 231.240992 236.415089 
L 234.520331 233.520134 
L 237.799669 233.829769 
L 241.079008 230.02677 
L 244.358347 226.127767 
L 247.637686 201.024736 
L 250.917025 204.121486 
L 254.196364 210.80415 
L 257.475702 188.800956 
L 260.755041 194.416269 
L 264.03438 192.154194 
L 267.313719 189.817367 
L 270.593058 179.962759 
L 273.872397 188.568124 
L 277.151736 200.412258 
L 280.431074 179.856117 
L 283.710413 161.286628 
L 286.989752 146.768641 
L 290.269091 158.218941 
L 293.54843 156.746143 
L 296.827769 161.628189 
L 300.107107 160.316872 
L 303.386446 173.287972 
L 306.665785 157.868491 
L 309.945124 170.15177 
L 313.224463 192.272261 
L 316.503802 193.184822 
L 319.78314 192.97279 
L 323.062479 172.375307 
L 326.341818 206.869345 
L 329.621157 213.174561 
L 332.900496 194.916992 
L 336.179835 187.268495 
L 339.459174 204.861357 
L 342.738512 228.187242 
L 346.017851 223.707591 
L 349.29719 223.024665 
L 352.576529 222.328619 
L 355.855868 226.942909 
L 359.135207 230.344992 
L 362.414545 236.5395 
L 365.693884 234.718738 
L 368.973223 216.349337 
L 372.252562 233.588301 
L 375.531901 244.250305 
L 378.81124 234.065306 
L 382.090579 237.81986 
L 385.369917 245.938838 
L 388.649256 249.914841 
L 391.928595 240.982588 
L 395.207934 246.405726 
L 398.487273 244.624712 
" style="fill:none;stroke:#3d4e8a;stroke-linecap:round;stroke-width:1.2;"/>
   </g>
   <g id="line2d_19">
    <path clip-path="url(#p2c83edff97)" d="M 73.832727 295.488 
L 77.112066 295.488 
L 80.391405 295.488 
L 83.670744 295.488 
L 86.950083 295.488 
L 90.229421 295.488 
L 93.50876 295.488 
L 96.788099 295.488 
L 100.067438 295.488 
L 103.346777 295.488 
L 106.626116 295.488 
L 109.905455 295.488 
L 113.184793 295.488 
L 116.464132 295.488 
L 119.743471 295.488 
L 123.02281 295.488 
L 126.302149 295.488 
L 129.581488 295.488 
L 132.860826 295.488 
L 136.140165 295.488 
L 139.419504 295.488 
L 142.698843 295.488 
L 145.978182 295.488 
L 149.257521 295.488 
L 152.53686 295.488 
L 155.816198 295.488 
L 159.095537 294.726282 
L 162.374876 294.726206 
L 165.654215 293.201933 
L 168.933554 295.488 
L 172.212893 293.201246 
L 175.492231 293.20056 
L 178.77157 290.146896 
L 182.050909 290.907158 
L 185.330248 284.018648 
L 188.609587 283.234342 
L 191.888926 270.901573 
L 195.168264 273.913939 
L 198.447603 272.302569 
L 201.726942 258.209742 
L 205.006281 254.102933 
L 208.28562 242.809178 
L 211.564959 225.663597 
L 214.844298 234.703849 
L 218.123636 235.027473 
L 221.402975 227.985344 
L 224.682314 203.297534 
L 227.961653 204.697412 
L 231.240992 185.643998 
L 234.520331 175.32821 
L 237.799669 179.599306 
L 241.079008 169.713979 
L 244.358347 174.006915 
L 247.637686 177.609485 
L 250.917025 150.218333 
L 254.196364 164.774762 
L 257.475702 163.472725 
L 260.755041 156.151385 
L 264.03438 174.877333 
L 267.313719 157.469037 
L 270.593058 143.325337 
L 273.872397 172.422063 
L 277.151736 178.000193 
L 280.431074 167.335018 
L 283.710413 171.877164 
L 286.989752 192.578601 
L 290.269091 178.504604 
L 293.54843 182.532706 
L 296.827769 184.393368 
L 300.107107 187.563104 
L 303.386446 199.412136 
L 306.665785 190.786655 
L 309.945124 204.317724 
L 313.224463 206.997507 
L 316.503802 222.507326 
L 319.78314 206.377355 
L 323.062479 240.352342 
L 326.341818 225.612641 
L 329.621157 198.513698 
L 332.900496 205.321538 
L 336.179835 247.451751 
L 339.459174 228.181407 
L 342.738512 224.839849 
L 346.017851 254.510162 
L 349.29719 232.132657 
L 352.576529 228.799223 
L 355.855868 233.861994 
L 359.135207 247.568296 
L 362.414545 230.098853 
L 365.693884 238.200192 
L 368.973223 245.029076 
L 372.252562 260.729693 
L 375.531901 260.570342 
L 378.81124 266.278358 
L 382.090579 266.165905 
L 385.369917 242.339927 
L 388.649256 259.890349 
L 391.928595 255.228959 
L 395.207934 251.99991 
L 398.487273 248.715251 
" style="fill:none;stroke:#365c8d;stroke-linecap:round;stroke-width:1.2;"/>
   </g>
   <g id="line2d_20">
    <path clip-path="url(#p2c83edff97)" d="M 73.832727 295.488 
L 77.112066 295.488 
L 80.391405 295.488 
L 83.670744 295.488 
L 86.950083 295.488 
L 90.229421 295.488 
L 93.50876 295.488 
L 96.788099 295.488 
L 100.067438 295.488 
L 103.346777 295.488 
L 106.626116 295.488 
L 109.905455 295.488 
L 113.184793 295.488 
L 116.464132 295.488 
L 119.743471 295.488 
L 123.02281 295.488 
L 126.302149 295.488 
L 129.581488 295.488 
L 132.860826 295.488 
L 136.140165 295.488 
L 139.419504 295.488 
L 142.698843 295.488 
L 145.978182 295.488 
L 149.257521 294.726282 
L 152.53686 293.96426 
L 155.816198 295.488 
L 159.095537 294.726054 
L 162.374876 292.438995 
L 165.654215 290.148501 
L 168.933554 290.908535 
L 172.212893 290.14154 
L 175.492231 287.077142 
L 178.77157 278.629049 
L 182.050909 281.669287 
L 185.330248 266.976535 
L 188.609587 252.089629 
L 191.888926 254.191842 
L 195.168264 247.659993 
L 198.447603 241.000434 
L 201.726942 230.179419 
L 205.006281 206.044288 
L 208.28562 201.679751 
L 211.564959 184.589435 
L 214.844298 171.855836 
L 218.123636 157.630476 
L 221.402975 149.756887 
L 224.682314 152.352401 
L 227.961653 136.661442 
L 231.240992 132.332099 
L 234.520331 152.886818 
L 237.799669 144.276946 
L 241.079008 142.216508 
L 244.358347 158.462559 
L 247.637686 149.724186 
L 250.917025 150.057289 
L 254.196364 161.236148 
L 257.475702 157.731746 
L 260.755041 144.015864 
L 264.03438 153.490849 
L 267.313719 169.324447 
L 270.593058 156.607937 
L 273.872397 189.883737 
L 277.151736 196.835944 
L 280.431074 190.65838 
L 283.710413 204.032499 
L 286.989752 199.171479 
L 290.269091 208.057861 
L 293.54843 208.320547 
L 296.827769 209.895959 
L 300.107107 201.074988 
L 303.386446 215.769184 
L 306.665785 236.221419 
L 309.945124 202.16593 
L 313.224463 230.953511 
L 316.503802 218.074376 
L 319.78314 218.665379 
L 323.062479 229.065784 
L 326.341818 245.343357 
L 329.621157 230.870691 
L 332.900496 231.74639 
L 336.179835 251.322486 
L 339.459174 217.769489 
L 342.738512 240.40164 
L 346.017851 263.461794 
L 349.29719 232.372601 
L 352.576529 258.615352 
L 355.855868 249.489785 
L 359.135207 264.199914 
L 362.414545 259.561518 
L 365.693884 254.855085 
L 368.973223 234.811528 
L 372.252562 246.635474 
L 375.531901 260.212622 
L 378.81124 261.59619 
L 382.090579 259.890047 
L 385.369917 256.596997 
L 388.649256 256.397392 
L 391.928595 257.775201 
L 395.207934 257.587536 
L 398.487273 263.772763 
" style="fill:none;stroke:#31688e;stroke-linecap:round;stroke-width:1.2;"/>
   </g>
   <g id="line2d_21">
    <path clip-path="url(#p2c83edff97)" d="M 73.832727 295.488 
L 77.112066 295.488 
L 80.391405 295.488 
L 83.670744 295.488 
L 86.950083 295.488 
L 90.229421 295.488 
L 93.50876 295.488 
L 96.788099 295.488 
L 100.067438 295.488 
L 103.346777 295.488 
L 106.626116 295.488 
L 109.905455 295.488 
L 113.184793 295.488 
L 116.464132 295.488 
L 119.743471 295.488 
L 123.02281 295.488 
L 126.302149 295.488 
L 129.581488 295.488 
L 132.860826 295.488 
L 136.140165 295.488 
L 139.419504 295.488 
L 142.698843 294.726282 
L 145.978182 293.202161 
L 149.257521 293.201475 
L 152.53686 294.725749 
L 155.816198 292.437774 
L 159.095537 293.199643 
L 162.374876 291.672161 
L 165.654215 291.670249 
L 168.933554 292.432574 
L 172.212893 275.575806 
L 175.492231 274.75366 
L 178.77157 272.379947 
L 182.050909 266.10488 
L 185.330248 254.284576 
L 188.609587 239.099124 
L 191.888926 220.352035 
L 195.168264 212.335883 
L 198.447603 208.965406 
L 201.726942 182.238873 
L 205.006281 168.672911 
L 208.28562 150.964013 
L 211.564959 111.781624 
L 214.844298 120.019215 
L 218.123636 111.21256 
L 221.402975 119.078408 
L 224.682314 110.001641 
L 227.961653 117.406375 
L 231.240992 131.565176 
L 234.520331 99.669573 
L 237.799669 111.744897 
L 241.079008 153.235075 
L 244.358347 167.15202 
L 247.637686 175.066019 
L 250.917025 150.252609 
L 254.196364 163.775575 
L 257.475702 188.639861 
L 260.755041 177.550339 
L 264.03438 187.843956 
L 267.313719 202.265319 
L 270.593058 198.627614 
L 273.872397 201.15171 
L 277.151736 205.055642 
L 280.431074 209.111055 
L 283.710413 226.271177 
L 286.989752 223.024665 
L 290.269091 211.76239 
L 293.54843 201.458196 
L 296.827769 215.188431 
L 300.107107 210.229633 
L 303.386446 224.459748 
L 306.665785 222.399108 
L 309.945124 225.906289 
L 313.224463 232.345289 
L 316.503802 227.534863 
L 319.78314 252.779136 
L 323.062479 251.098296 
L 326.341818 246.489309 
L 329.621157 247.631628 
L 332.900496 256.130453 
L 336.179835 235.250157 
L 339.459174 249.668315 
L 342.738512 246.397831 
L 346.017851 250.597544 
L 349.29719 254.871136 
L 352.576529 259.212164 
L 355.855868 259.038561 
L 359.135207 248.114638 
L 362.414545 254.002589 
L 365.693884 247.556851 
L 368.973223 264.438615 
L 372.252562 242.335685 
L 375.531901 249.88073 
L 378.81124 260.731495 
L 382.090579 247.795989 
L 385.369917 268.366291 
L 388.649256 266.662211 
L 391.928595 264.938735 
L 395.207934 266.436198 
L 398.487273 271.200965 
" style="fill:none;stroke:#2c738e;stroke-linecap:round;stroke-width:1.2;"/>
   </g>
   <g id="line2d_22">
    <path clip-path="url(#p2c83edff97)" d="M 73.832727 295.488 
L 77.112066 295.488 
L 80.391405 295.488 
L 83.670744 295.488 
L 86.950083 295.488 
L 90.229421 295.488 
L 93.50876 295.488 
L 96.788099 295.488 
L 100.067438 295.488 
L 103.346777 295.488 
L 106.626116 295.488 
L 109.905455 295.488 
L 113.184793 295.488 
L 116.464132 295.488 
L 119.743471 295.488 
L 123.02281 295.488 
L 126.302149 295.488 
L 129.581488 294.726282 
L 132.860826 293.96426 
L 136.140165 294.726054 
L 139.419504 294.725978 
L 142.698843 293.96365 
L 145.978182 293.963345 
L 149.257521 291.674454 
L 152.53686 288.617425 
L 155.816198 289.375921 
L 159.095537 290.136173 
L 162.374876 280.166306 
L 165.654215 280.135422 
L 168.933554 275.477211 
L 172.212893 261.472346 
L 175.492231 257.417584 
L 178.77157 250.156854 
L 182.050909 233.239219 
L 185.330248 219.0851 
L 188.609587 212.622187 
L 191.888926 193.577085 
L 195.168264 170.357053 
L 198.447603 152.817419 
L 201.726942 102.459207 
L 205.006281 102.903304 
L 208.28562 110.963347 
L 211.564959 111.152345 
L 214.844298 73.194872 
L 218.123636 80.719111 
L 221.402975 53.568 
L 224.682314 87.691673 
L 227.961653 100.579765 
L 231.240992 98.843239 
L 234.520331 121.31506 
L 237.799669 120.767966 
L 241.079008 116.665796 
L 244.358347 145.534974 
L 247.637686 156.230388 
L 250.917025 167.554103 
L 254.196364 193.533027 
L 257.475702 193.442592 
L 260.755041 197.295044 
L 264.03438 202.636798 
L 267.313719 222.875281 
L 270.593058 205.993131 
L 273.872397 230.827958 
L 277.151736 211.042779 
L 280.431074 221.221774 
L 283.710413 226.096472 
L 286.989752 228.284346 
L 290.269091 223.408371 
L 293.54843 232.789736 
L 296.827769 240.951777 
L 300.107107 228.893237 
L 303.386446 232.723376 
L 306.665785 239.614692 
L 309.945124 254.094445 
L 313.224463 252.373417 
L 316.503802 253.631357 
L 319.78314 250.375972 
L 323.062479 240.966046 
L 326.341818 268.129099 
L 329.621157 243.457042 
L 332.900496 258.582299 
L 336.179835 261.506838 
L 339.459174 266.027115 
L 342.738512 239.255246 
L 346.017851 264.118914 
L 349.29719 249.729556 
L 352.576529 265.389858 
L 355.855868 254.077133 
L 359.135207 265.105496 
L 362.414545 260.145011 
L 365.693884 263.221895 
L 368.973223 250.045938 
L 372.252562 256.337446 
L 375.531901 259.430089 
L 378.81124 269.173462 
L 382.090579 272.39296 
L 385.369917 270.662661 
L 388.649256 268.915251 
L 391.928595 258.774347 
L 395.207934 261.965051 
L 398.487273 275.320972 
" style="fill:none;stroke:#277f8e;stroke-linecap:round;stroke-width:1.2;"/>
   </g>
   <g id="line2d_23">
    <path clip-path="url(#p2c83edff97)" d="M 73.832727 295.488 
L 77.112066 295.488 
L 80.391405 295.488 
L 83.670744 295.488 
L 86.950083 295.488 
L 90.229421 295.488 
L 93.50876 295.488 
L 96.788099 295.488 
L 100.067438 295.488 
L 103.346777 295.488 
L 106.626116 295.488 
L 109.905455 295.488 
L 113.184793 295.488 
L 116.464132 295.488 
L 119.743471 295.488 
L 123.02281 294.726282 
L 126.302149 293.96426 
L 129.581488 295.488 
L 132.860826 293.963955 
L 136.140165 293.201246 
L 139.419504 292.437774 
L 142.698843 290.909911 
L 145.978182 287.8502 
L 149.257521 286.311597 
L 152.53686 286.300528 
L 155.816198 274.75993 
L 159.095537 273.159249 
L 162.374876 258.349857 
L 165.654215 251.129606 
L 168.933554 252.444147 
L 172.212893 237.925288 
L 175.492231 232.68041 
L 178.77157 215.957887 
L 182.050909 200.323492 
L 185.330248 176.533159 
L 188.609587 159.270393 
L 191.888926 145.440441 
L 195.168264 128.123171 
L 198.447603 100.471851 
L 201.726942 117.057335 
L 205.006281 77.903197 
L 208.28562 73.50891 
L 211.564959 70.974674 
L 214.844298 65.219515 
L 218.123636 79.939127 
L 221.402975 98.323962 
L 224.682314 90.787782 
L 227.961653 113.381256 
L 231.240992 119.724597 
L 234.520331 141.270857 
L 237.799669 145.54899 
L 241.079008 150.141327 
L 244.358347 156.340757 
L 247.637686 191.627807 
L 250.917025 188.873804 
L 254.196364 207.368548 
L 257.475702 217.091553 
L 260.755041 201.325339 
L 264.03438 211.163415 
L 267.313719 226.871657 
L 270.593058 212.248501 
L 273.872397 239.587713 
L 277.151736 243.426791 
L 280.431074 234.499954 
L 283.710413 228.238054 
L 286.989752 250.871818 
L 290.269091 224.30656 
L 293.54843 232.506114 
L 296.827769 236.44603 
L 300.107107 225.475979 
L 303.386446 230.891194 
L 306.665785 250.152202 
L 309.945124 246.820817 
L 313.224463 255.739552 
L 316.503802 240.0511 
L 319.78314 252.124927 
L 323.062479 259.700967 
L 326.341818 262.6721 
L 329.621157 260.953558 
L 332.900496 263.963107 
L 336.179835 273.356452 
L 339.459174 265.333412 
L 342.738512 262.01276 
L 346.017851 263.472808 
L 349.29719 260.107698 
L 352.576529 264.809207 
L 355.855868 259.798733 
L 359.135207 266.175309 
L 362.414545 259.492058 
L 365.693884 265.92245 
L 368.973223 269.116516 
L 372.252562 262.380353 
L 375.531901 265.574089 
L 378.81124 273.822052 
L 382.090579 287.145816 
L 385.369917 265.337251 
L 388.649256 271.964991 
L 391.928595 265.123558 
L 395.207934 271.797754 
L 398.487273 275.127793 
" style="fill:none;stroke:#238a8d;stroke-linecap:round;stroke-width:1.2;"/>
   </g>
   <g id="line2d_24">
    <path clip-path="url(#p2c83edff97)" d="M 73.832727 295.488 
L 77.112066 295.488 
L 80.391405 295.488 
L 83.670744 295.488 
L 86.950083 295.488 
L 90.229421 295.488 
L 93.50876 295.488 
L 96.788099 295.488 
L 100.067438 295.488 
L 103.346777 295.488 
L 106.626116 295.488 
L 109.905455 295.488 
L 113.184793 295.488 
L 116.464132 294.726282 
L 119.743471 294.726206 
L 123.02281 295.488 
L 126.302149 295.488 
L 129.581488 294.72613 
L 132.860826 294.726054 
L 136.140165 289.387548 
L 139.419504 289.382658 
L 142.698843 280.960155 
L 145.978182 279.396984 
L 149.257521 267.031237 
L 152.53686 259.944219 
L 155.816198 241.796482 
L 159.095537 231.141621 
L 162.374876 216.199908 
L 165.654215 212.125859 
L 168.933554 195.603264 
L 172.212893 180.075296 
L 175.492231 174.047485 
L 178.77157 136.456452 
L 182.050909 137.521808 
L 185.330248 121.413838 
L 188.609587 90.134514 
L 191.888926 92.182828 
L 195.168264 87.600602 
L 198.447603 74.607016 
L 201.726942 85.90882 
L 205.006281 78.897538 
L 208.28562 77.010912 
L 211.564959 62.525824 
L 214.844298 104.677745 
L 218.123636 72.029278 
L 221.402975 111.190774 
L 224.682314 125.550223 
L 227.961653 129.394053 
L 231.240992 112.518823 
L 234.520331 148.387055 
L 237.799669 155.037792 
L 241.079008 178.688497 
L 244.358347 204.783682 
L 247.637686 207.911054 
L 250.917025 195.494397 
L 254.196364 197.055227 
L 257.475702 239.442689 
L 260.755041 222.950723 
L 264.03438 214.852239 
L 267.313719 222.964819 
L 270.593058 237.324665 
L 273.872397 261.031367 
L 277.151736 242.690517 
L 280.431074 236.198549 
L 283.710413 258.82656 
L 286.989752 233.891444 
L 290.269091 250.567111 
L 293.54843 239.31285 
L 296.827769 240.478818 
L 300.107107 262.33884 
L 303.386446 255.819176 
L 306.665785 262.019765 
L 309.945124 258.655047 
L 313.224463 256.858681 
L 316.503802 263.160266 
L 319.78314 259.760684 
L 323.062479 262.869524 
L 326.341818 264.373859 
L 329.621157 257.636331 
L 332.900496 257.447278 
L 336.179835 258.926553 
L 339.459174 262.104638 
L 342.738512 265.323984 
L 346.017851 253.361816 
L 349.29719 273.5192 
L 352.576529 276.853535 
L 355.855868 258.035807 
L 359.135207 261.287667 
L 362.414545 269.751075 
L 365.693884 267.935971 
L 368.973223 273.035986 
L 372.252562 272.969605 
L 375.531901 283.343376 
L 378.81124 274.611579 
L 382.090579 274.5542 
L 385.369917 274.496505 
L 388.649256 267.396108 
L 391.928595 270.82801 
L 395.207934 277.832891 
L 398.487273 291.95534 
" style="fill:none;stroke:#1f968b;stroke-linecap:round;stroke-width:1.2;"/>
   </g>
   <g id="patch_3">
    <path d="M 57.6 307.584 
L 57.6 41.472 
" style="fill:none;stroke:#262626;stroke-linecap:square;stroke-linejoin:miter;"/>
   </g>
   <g id="patch_4">
    <path d="M 414.72 307.584 
L 414.72 41.472 
" style="fill:none;stroke:#262626;stroke-linecap:square;stroke-linejoin:miter;"/>
   </g>
   <g id="patch_5">
    <path d="M 57.6 307.584 
L 414.72 307.584 
" style="fill:none;stroke:#262626;stroke-linecap:square;stroke-linejoin:miter;"/>
   </g>
   <g id="patch_6">
    <path d="M 57.6 41.472 
L 414.72 41.472 
" style="fill:none;stroke:#262626;stroke-linecap:square;stroke-linejoin:miter;"/>
   </g>
   <g id="legend_1">
    <g id="patch_7">
     <path d="M 63.76 204.28725 
L 117.11275 204.28725 
Q 118.87275 204.28725 118.87275 202.52725 
L 118.87275 47.632 
Q 118.87275 45.872 117.11275 45.872 
L 63.76 45.872 
Q 62 45.872 62 47.632 
L 62 202.52725 
Q 62 204.28725 63.76 204.28725 
z
" style="fill:#ffffff;opacity:0.8;stroke:#cccccc;stroke-linejoin:miter;stroke-width:0.8;"/>
    </g>
    <g id="text_16">
     <!-- log(n) -->
     <defs>
      <path d="M 9.421875 75.984375 
L 18.40625 75.984375 
L 18.40625 0 
L 9.421875 0 
z
" id="DejaVuSans-6c"/>
      <path d="M 30.609375 48.390625 
Q 23.390625 48.390625 19.1875 42.75 
Q 14.984375 37.109375 14.984375 27.296875 
Q 14.984375 17.484375 19.15625 11.84375 
Q 23.34375 6.203125 30.609375 6.203125 
Q 37.796875 6.203125 41.984375 11.859375 
Q 46.1875 17.53125 46.1875 27.296875 
Q 46.1875 37.015625 41.984375 42.703125 
Q 37.796875 48.390625 30.609375 48.390625 
z
M 30.609375 56 
Q 42.328125 56 49.015625 48.375 
Q 55.71875 40.765625 55.71875 27.296875 
Q 55.71875 13.875 49.015625 6.21875 
Q 42.328125 -1.421875 30.609375 -1.421875 
Q 18.84375 -1.421875 12.171875 6.21875 
Q 5.515625 13.875 5.515625 27.296875 
Q 5.515625 40.765625 12.171875 48.375 
Q 18.84375 56 30.609375 56 
z
" id="DejaVuSans-6f"/>
      <path d="M 45.40625 27.984375 
Q 45.40625 37.75 41.375 43.109375 
Q 37.359375 48.484375 30.078125 48.484375 
Q 22.859375 48.484375 18.828125 43.109375 
Q 14.796875 37.75 14.796875 27.984375 
Q 14.796875 18.265625 18.828125 12.890625 
Q 22.859375 7.515625 30.078125 7.515625 
Q 37.359375 7.515625 41.375 12.890625 
Q 45.40625 18.265625 45.40625 27.984375 
z
M 54.390625 6.78125 
Q 54.390625 -7.171875 48.1875 -13.984375 
Q 42 -20.796875 29.203125 -20.796875 
Q 24.46875 -20.796875 20.265625 -20.09375 
Q 16.0625 -19.390625 12.109375 -17.921875 
L 12.109375 -9.1875 
Q 16.0625 -11.328125 19.921875 -12.34375 
Q 23.78125 -13.375 27.78125 -13.375 
Q 36.625 -13.375 41.015625 -8.765625 
Q 45.40625 -4.15625 45.40625 5.171875 
L 45.40625 9.625 
Q 42.625 4.78125 38.28125 2.390625 
Q 33.9375 0 27.875 0 
Q 17.828125 0 11.671875 7.65625 
Q 5.515625 15.328125 5.515625 27.984375 
Q 5.515625 40.671875 11.671875 48.328125 
Q 17.828125 56 27.875 56 
Q 33.9375 56 38.28125 53.609375 
Q 42.625 51.21875 45.40625 46.390625 
L 45.40625 54.6875 
L 54.390625 54.6875 
z
" id="DejaVuSans-67"/>
     </defs>
     <g style="fill:#262626;" transform="translate(76.331125 56.6865)scale(0.096 -0.096)">
      <use xlink:href="#DejaVuSans-6c"/>
      <use x="27.783203" xlink:href="#DejaVuSans-6f"/>
      <use x="88.964844" xlink:href="#DejaVuSans-67"/>
      <use x="152.441406" xlink:href="#DejaVuSans-28"/>
      <use x="191.455078" xlink:href="#DejaVuSans-6e"/>
      <use x="254.833984" xlink:href="#DejaVuSans-29"/>
     </g>
    </g>
    <g id="line2d_25">
     <path d="M 65.52 66.689625 
L 83.12 66.689625 
" style="fill:none;stroke:#471365;stroke-linecap:round;stroke-width:1.2;"/>
    </g>
    <g id="line2d_26"/>
    <g id="text_17">
     <!-- 6.08 -->
     <defs>
      <path d="M 10.6875 12.40625 
L 21 12.40625 
L 21 0 
L 10.6875 0 
z
" id="DejaVuSans-2e"/>
     </defs>
     <g style="fill:#262626;" transform="translate(90.16 69.769625)scale(0.088 -0.088)">
      <use xlink:href="#DejaVuSans-36"/>
      <use x="63.623047" xlink:href="#DejaVuSans-2e"/>
      <use x="95.410156" xlink:href="#DejaVuSans-30"/>
      <use x="159.033203" xlink:href="#DejaVuSans-38"/>
     </g>
    </g>
    <g id="line2d_27">
     <path d="M 65.52 79.606375 
L 83.12 79.606375 
" style="fill:none;stroke:#482374;stroke-linecap:round;stroke-width:1.2;"/>
    </g>
    <g id="line2d_28"/>
    <g id="text_18">
     <!-- 6.51 -->
     <g style="fill:#262626;" transform="translate(90.16 82.686375)scale(0.088 -0.088)">
      <use xlink:href="#DejaVuSans-36"/>
      <use x="63.623047" xlink:href="#DejaVuSans-2e"/>
      <use x="95.410156" xlink:href="#DejaVuSans-35"/>
      <use x="159.033203" xlink:href="#DejaVuSans-31"/>
     </g>
    </g>
    <g id="line2d_29">
     <path d="M 65.52 92.523125 
L 83.12 92.523125 
" style="fill:none;stroke:#46327e;stroke-linecap:round;stroke-width:1.2;"/>
    </g>
    <g id="line2d_30"/>
    <g id="text_19">
     <!-- 6.95 -->
     <defs>
      <path d="M 10.984375 1.515625 
L 10.984375 10.5 
Q 14.703125 8.734375 18.5 7.8125 
Q 22.3125 6.890625 25.984375 6.890625 
Q 35.75 6.890625 40.890625 13.453125 
Q 46.046875 20.015625 46.78125 33.40625 
Q 43.953125 29.203125 39.59375 26.953125 
Q 35.25 24.703125 29.984375 24.703125 
Q 19.046875 24.703125 12.671875 31.3125 
Q 6.296875 37.9375 6.296875 49.421875 
Q 6.296875 60.640625 12.9375 67.421875 
Q 19.578125 74.21875 30.609375 74.21875 
Q 43.265625 74.21875 49.921875 64.515625 
Q 56.59375 54.828125 56.59375 36.375 
Q 56.59375 19.140625 48.40625 8.859375 
Q 40.234375 -1.421875 26.421875 -1.421875 
Q 22.703125 -1.421875 18.890625 -0.6875 
Q 15.09375 0.046875 10.984375 1.515625 
z
M 30.609375 32.421875 
Q 37.25 32.421875 41.125 36.953125 
Q 45.015625 41.5 45.015625 49.421875 
Q 45.015625 57.28125 41.125 61.84375 
Q 37.25 66.40625 30.609375 66.40625 
Q 23.96875 66.40625 20.09375 61.84375 
Q 16.21875 57.28125 16.21875 49.421875 
Q 16.21875 41.5 20.09375 36.953125 
Q 23.96875 32.421875 30.609375 32.421875 
z
" id="DejaVuSans-39"/>
     </defs>
     <g style="fill:#262626;" transform="translate(90.16 95.603125)scale(0.088 -0.088)">
      <use xlink:href="#DejaVuSans-36"/>
      <use x="63.623047" xlink:href="#DejaVuSans-2e"/>
      <use x="95.410156" xlink:href="#DejaVuSans-39"/>
      <use x="159.033203" xlink:href="#DejaVuSans-35"/>
     </g>
    </g>
    <g id="line2d_31">
     <path d="M 65.52 105.439875 
L 83.12 105.439875 
" style="fill:none;stroke:#424086;stroke-linecap:round;stroke-width:1.2;"/>
    </g>
    <g id="line2d_32"/>
    <g id="text_20">
     <!-- 7.38 -->
     <defs>
      <path d="M 8.203125 72.90625 
L 55.078125 72.90625 
L 55.078125 68.703125 
L 28.609375 0 
L 18.3125 0 
L 43.21875 64.59375 
L 8.203125 64.59375 
z
" id="DejaVuSans-37"/>
     </defs>
     <g style="fill:#262626;" transform="translate(90.16 108.519875)scale(0.088 -0.088)">
      <use xlink:href="#DejaVuSans-37"/>
      <use x="63.623047" xlink:href="#DejaVuSans-2e"/>
      <use x="95.410156" xlink:href="#DejaVuSans-33"/>
      <use x="159.033203" xlink:href="#DejaVuSans-38"/>
     </g>
    </g>
    <g id="line2d_33">
     <path d="M 65.52 118.356625 
L 83.12 118.356625 
" style="fill:none;stroke:#3d4e8a;stroke-linecap:round;stroke-width:1.2;"/>
    </g>
    <g id="line2d_34"/>
    <g id="text_21">
     <!-- 7.82 -->
     <g style="fill:#262626;" transform="translate(90.16 121.436625)scale(0.088 -0.088)">
      <use xlink:href="#DejaVuSans-37"/>
      <use x="63.623047" xlink:href="#DejaVuSans-2e"/>
      <use x="95.410156" xlink:href="#DejaVuSans-38"/>
      <use x="159.033203" xlink:href="#DejaVuSans-32"/>
     </g>
    </g>
    <g id="line2d_35">
     <path d="M 65.52 131.273375 
L 83.12 131.273375 
" style="fill:none;stroke:#365c8d;stroke-linecap:round;stroke-width:1.2;"/>
    </g>
    <g id="line2d_36"/>
    <g id="text_22">
     <!-- 8.25 -->
     <g style="fill:#262626;" transform="translate(90.16 134.353375)scale(0.088 -0.088)">
      <use xlink:href="#DejaVuSans-38"/>
      <use x="63.623047" xlink:href="#DejaVuSans-2e"/>
      <use x="95.410156" xlink:href="#DejaVuSans-32"/>
      <use x="159.033203" xlink:href="#DejaVuSans-35"/>
     </g>
    </g>
    <g id="line2d_37">
     <path d="M 65.52 144.190125 
L 83.12 144.190125 
" style="fill:none;stroke:#31688e;stroke-linecap:round;stroke-width:1.2;"/>
    </g>
    <g id="line2d_38"/>
    <g id="text_23">
     <!-- 8.69 -->
     <g style="fill:#262626;" transform="translate(90.16 147.270125)scale(0.088 -0.088)">
      <use xlink:href="#DejaVuSans-38"/>
      <use x="63.623047" xlink:href="#DejaVuSans-2e"/>
      <use x="95.410156" xlink:href="#DejaVuSans-36"/>
      <use x="159.033203" xlink:href="#DejaVuSans-39"/>
     </g>
    </g>
    <g id="line2d_39">
     <path d="M 65.52 157.106875 
L 83.12 157.106875 
" style="fill:none;stroke:#2c738e;stroke-linecap:round;stroke-width:1.2;"/>
    </g>
    <g id="line2d_40"/>
    <g id="text_24">
     <!-- 9.12 -->
     <g style="fill:#262626;" transform="translate(90.16 160.186875)scale(0.088 -0.088)">
      <use xlink:href="#DejaVuSans-39"/>
      <use x="63.623047" xlink:href="#DejaVuSans-2e"/>
      <use x="95.410156" xlink:href="#DejaVuSans-31"/>
      <use x="159.033203" xlink:href="#DejaVuSans-32"/>
     </g>
    </g>
    <g id="line2d_41">
     <path d="M 65.52 170.023625 
L 83.12 170.023625 
" style="fill:none;stroke:#277f8e;stroke-linecap:round;stroke-width:1.2;"/>
    </g>
    <g id="line2d_42"/>
    <g id="text_25">
     <!-- 9.55 -->
     <g style="fill:#262626;" transform="translate(90.16 173.103625)scale(0.088 -0.088)">
      <use xlink:href="#DejaVuSans-39"/>
      <use x="63.623047" xlink:href="#DejaVuSans-2e"/>
      <use x="95.410156" xlink:href="#DejaVuSans-35"/>
      <use x="159.033203" xlink:href="#DejaVuSans-35"/>
     </g>
    </g>
    <g id="line2d_43">
     <path d="M 65.52 182.940375 
L 83.12 182.940375 
" style="fill:none;stroke:#238a8d;stroke-linecap:round;stroke-width:1.2;"/>
    </g>
    <g id="line2d_44"/>
    <g id="text_26">
     <!-- 9.99 -->
     <g style="fill:#262626;" transform="translate(90.16 186.020375)scale(0.088 -0.088)">
      <use xlink:href="#DejaVuSans-39"/>
      <use x="63.623047" xlink:href="#DejaVuSans-2e"/>
      <use x="95.410156" xlink:href="#DejaVuSans-39"/>
      <use x="159.033203" xlink:href="#DejaVuSans-39"/>
     </g>
    </g>
    <g id="line2d_45">
     <path d="M 65.52 195.857125 
L 83.12 195.857125 
" style="fill:none;stroke:#1f968b;stroke-linecap:round;stroke-width:1.2;"/>
    </g>
    <g id="line2d_46"/>
    <g id="text_27">
     <!-- 10.42 -->
     <g style="fill:#262626;" transform="translate(90.16 198.937125)scale(0.088 -0.088)">
      <use xlink:href="#DejaVuSans-31"/>
      <use x="63.623047" xlink:href="#DejaVuSans-30"/>
      <use x="127.246094" xlink:href="#DejaVuSans-2e"/>
      <use x="159.033203" xlink:href="#DejaVuSans-34"/>
      <use x="222.65625" xlink:href="#DejaVuSans-32"/>
     </g>
    </g>
   </g>
  </g>
 </g>
 <defs>
  <clipPath id="p2c83edff97">
   <rect height="266.112" width="357.12" x="57.6" y="41.472"/>
  </clipPath>
 </defs>
</svg>
