<?xml version="1.0" encoding="utf-8" standalone="no"?>
<!DOCTYPE svg PUBLIC "-//W3C//DTD SVG 1.1//EN"
  "http://www.w3.org/Graphics/SVG/1.1/DTD/svg11.dtd">
<!-- Created with matplotlib (http://matplotlib.org/) -->
<svg height="345.6pt" version="1.1" viewBox="0 0 460.8 345.6" width="460.8pt" xmlns="http://www.w3.org/2000/svg" xmlns:xlink="http://www.w3.org/1999/xlink">
 <defs>
  <style type="text/css">
*{stroke-linecap:butt;stroke-linejoin:round;}
  </style>
 </defs>
 <g id="figure_1">
  <g id="patch_1">
   <path d="M 0 345.6 
L 460.8 345.6 
L 460.8 0 
L 0 0 
z
" style="fill:#ffffff;"/>
  </g>
  <g id="axes_1">
   <g id="patch_2">
    <path d="M 57.6 307.584 
L 414.72 307.584 
L 414.72 41.472 
L 57.6 41.472 
z
" style="fill:#ffffff;"/>
   </g>
   <g id="matplotlib.axis_1">
    <g id="xtick_1">
     <g id="line2d_1">
      <defs>
       <path d="M 0 0 
L 0 4.8 
" id="m10512a82bc" style="stroke:#262626;"/>
      </defs>
      <g>
       <use style="fill:#262626;stroke:#262626;" x="73.751156" xlink:href="#m10512a82bc" y="307.584"/>
      </g>
     </g>
     <g id="text_1">
      <!-- 0-4 -->
      <defs>
       <path d="M 31.78125 66.40625 
Q 24.171875 66.40625 20.328125 58.90625 
Q 16.5 51.421875 16.5 36.375 
Q 16.5 21.390625 20.328125 13.890625 
Q 24.171875 6.390625 31.78125 6.390625 
Q 39.453125 6.390625 43.28125 13.890625 
Q 47.125 21.390625 47.125 36.375 
Q 47.125 51.421875 43.28125 58.90625 
Q 39.453125 66.40625 31.78125 66.40625 
z
M 31.78125 74.21875 
Q 44.046875 74.21875 50.515625 64.515625 
Q 56.984375 54.828125 56.984375 36.375 
Q 56.984375 17.96875 50.515625 8.265625 
Q 44.046875 -1.421875 31.78125 -1.421875 
Q 19.53125 -1.421875 13.0625 8.265625 
Q 6.59375 17.96875 6.59375 36.375 
Q 6.59375 54.828125 13.0625 64.515625 
Q 19.53125 74.21875 31.78125 74.21875 
z
" id="DejaVuSans-30"/>
       <path d="M 4.890625 31.390625 
L 31.203125 31.390625 
L 31.203125 23.390625 
L 4.890625 23.390625 
z
" id="DejaVuSans-2d"/>
       <path d="M 37.796875 64.3125 
L 12.890625 25.390625 
L 37.796875 25.390625 
z
M 35.203125 72.90625 
L 47.609375 72.90625 
L 47.609375 25.390625 
L 58.015625 25.390625 
L 58.015625 17.1875 
L 47.609375 17.1875 
L 47.609375 0 
L 37.796875 0 
L 37.796875 17.1875 
L 4.890625 17.1875 
L 4.890625 26.703125 
z
" id="DejaVuSans-34"/>
      </defs>
      <g style="fill:#262626;" transform="translate(69.927807 332.805949)rotate(-45)scale(0.1 -0.1)">
       <use xlink:href="#DejaVuSans-30"/>
       <use x="63.623047" xlink:href="#DejaVuSans-2d"/>
       <use x="99.707031" xlink:href="#DejaVuSans-34"/>
      </g>
     </g>
    </g>
    <g id="xtick_2">
     <g id="line2d_2">
      <g>
       <use style="fill:#262626;stroke:#262626;" x="91.696884" xlink:href="#m10512a82bc" y="307.584"/>
      </g>
     </g>
     <g id="text_2">
      <!-- 5-9 -->
      <defs>
       <path d="M 10.796875 72.90625 
L 49.515625 72.90625 
L 49.515625 64.59375 
L 19.828125 64.59375 
L 19.828125 46.734375 
Q 21.96875 47.46875 24.109375 47.828125 
Q 26.265625 48.1875 28.421875 48.1875 
Q 40.625 48.1875 47.75 41.5 
Q 54.890625 34.8125 54.890625 23.390625 
Q 54.890625 11.625 47.5625 5.09375 
Q 40.234375 -1.421875 26.90625 -1.421875 
Q 22.3125 -1.421875 17.546875 -0.640625 
Q 12.796875 0.140625 7.71875 1.703125 
L 7.71875 11.625 
Q 12.109375 9.234375 16.796875 8.0625 
Q 21.484375 6.890625 26.703125 6.890625 
Q 35.15625 6.890625 40.078125 11.328125 
Q 45.015625 15.765625 45.015625 23.390625 
Q 45.015625 31 40.078125 35.4375 
Q 35.15625 39.890625 26.703125 39.890625 
Q 22.75 39.890625 18.8125 39.015625 
Q 14.890625 38.140625 10.796875 36.28125 
z
" id="DejaVuSans-35"/>
       <path d="M 10.984375 1.515625 
L 10.984375 10.5 
Q 14.703125 8.734375 18.5 7.8125 
Q 22.3125 6.890625 25.984375 6.890625 
Q 35.75 6.890625 40.890625 13.453125 
Q 46.046875 20.015625 46.78125 33.40625 
Q 43.953125 29.203125 39.59375 26.953125 
Q 35.25 24.703125 29.984375 24.703125 
Q 19.046875 24.703125 12.671875 31.3125 
Q 6.296875 37.9375 6.296875 49.421875 
Q 6.296875 60.640625 12.9375 67.421875 
Q 19.578125 74.21875 30.609375 74.21875 
Q 43.265625 74.21875 49.921875 64.515625 
Q 56.59375 54.828125 56.59375 36.375 
Q 56.59375 19.140625 48.40625 8.859375 
Q 40.234375 -1.421875 26.421875 -1.421875 
Q 22.703125 -1.421875 18.890625 -0.6875 
Q 15.09375 0.046875 10.984375 1.515625 
z
M 30.609375 32.421875 
Q 37.25 32.421875 41.125 36.953125 
Q 45.015625 41.5 45.015625 49.421875 
Q 45.015625 57.28125 41.125 61.84375 
Q 37.25 66.40625 30.609375 66.40625 
Q 23.96875 66.40625 20.09375 61.84375 
Q 16.21875 57.28125 16.21875 49.421875 
Q 16.21875 41.5 20.09375 36.953125 
Q 23.96875 32.421875 30.609375 32.421875 
z
" id="DejaVuSans-39"/>
      </defs>
      <g style="fill:#262626;" transform="translate(87.873536 332.805949)rotate(-45)scale(0.1 -0.1)">
       <use xlink:href="#DejaVuSans-35"/>
       <use x="63.623047" xlink:href="#DejaVuSans-2d"/>
       <use x="99.707031" xlink:href="#DejaVuSans-39"/>
      </g>
     </g>
    </g>
    <g id="xtick_3">
     <g id="line2d_3">
      <g>
       <use style="fill:#262626;stroke:#262626;" x="109.642613" xlink:href="#m10512a82bc" y="307.584"/>
      </g>
     </g>
     <g id="text_3">
      <!-- 10-14 -->
      <defs>
       <path d="M 12.40625 8.296875 
L 28.515625 8.296875 
L 28.515625 63.921875 
L 10.984375 60.40625 
L 10.984375 69.390625 
L 28.421875 72.90625 
L 38.28125 72.90625 
L 38.28125 8.296875 
L 54.390625 8.296875 
L 54.390625 0 
L 12.40625 0 
z
" id="DejaVuSans-31"/>
      </defs>
      <g style="fill:#262626;" transform="translate(101.320298 341.803883)rotate(-45)scale(0.1 -0.1)">
       <use xlink:href="#DejaVuSans-31"/>
       <use x="63.623047" xlink:href="#DejaVuSans-30"/>
       <use x="127.246094" xlink:href="#DejaVuSans-2d"/>
       <use x="163.330078" xlink:href="#DejaVuSans-31"/>
       <use x="226.953125" xlink:href="#DejaVuSans-34"/>
      </g>
     </g>
    </g>
    <g id="xtick_4">
     <g id="line2d_4">
      <g>
       <use style="fill:#262626;stroke:#262626;" x="127.588342" xlink:href="#m10512a82bc" y="307.584"/>
      </g>
     </g>
     <g id="text_4">
      <!-- 15-19 -->
      <g style="fill:#262626;" transform="translate(119.266026 341.803883)rotate(-45)scale(0.1 -0.1)">
       <use xlink:href="#DejaVuSans-31"/>
       <use x="63.623047" xlink:href="#DejaVuSans-35"/>
       <use x="127.246094" xlink:href="#DejaVuSans-2d"/>
       <use x="163.330078" xlink:href="#DejaVuSans-31"/>
       <use x="226.953125" xlink:href="#DejaVuSans-39"/>
      </g>
     </g>
    </g>
    <g id="xtick_5">
     <g id="line2d_5">
      <g>
       <use style="fill:#262626;stroke:#262626;" x="145.53407" xlink:href="#m10512a82bc" y="307.584"/>
      </g>
     </g>
     <g id="text_5">
      <!-- 20-24 -->
      <defs>
       <path d="M 19.1875 8.296875 
L 53.609375 8.296875 
L 53.609375 0 
L 7.328125 0 
L 7.328125 8.296875 
Q 12.9375 14.109375 22.625 23.890625 
Q 32.328125 33.6875 34.8125 36.53125 
Q 39.546875 41.84375 41.421875 45.53125 
Q 43.3125 49.21875 43.3125 52.78125 
Q 43.3125 58.59375 39.234375 62.25 
Q 35.15625 65.921875 28.609375 65.921875 
Q 23.96875 65.921875 18.8125 64.3125 
Q 13.671875 62.703125 7.8125 59.421875 
L 7.8125 69.390625 
Q 13.765625 71.78125 18.9375 73 
Q 24.125 74.21875 28.421875 74.21875 
Q 39.75 74.21875 46.484375 68.546875 
Q 53.21875 62.890625 53.21875 53.421875 
Q 53.21875 48.921875 51.53125 44.890625 
Q 49.859375 40.875 45.40625 35.40625 
Q 44.1875 33.984375 37.640625 27.21875 
Q 31.109375 20.453125 19.1875 8.296875 
z
" id="DejaVuSans-32"/>
      </defs>
      <g style="fill:#262626;" transform="translate(137.211755 341.803883)rotate(-45)scale(0.1 -0.1)">
       <use xlink:href="#DejaVuSans-32"/>
       <use x="63.623047" xlink:href="#DejaVuSans-30"/>
       <use x="127.246094" xlink:href="#DejaVuSans-2d"/>
       <use x="163.330078" xlink:href="#DejaVuSans-32"/>
       <use x="226.953125" xlink:href="#DejaVuSans-34"/>
      </g>
     </g>
    </g>
    <g id="xtick_6">
     <g id="line2d_6">
      <g>
       <use style="fill:#262626;stroke:#262626;" x="163.479799" xlink:href="#m10512a82bc" y="307.584"/>
      </g>
     </g>
     <g id="text_6">
      <!-- 25-29 -->
      <g style="fill:#262626;" transform="translate(155.157484 341.803883)rotate(-45)scale(0.1 -0.1)">
       <use xlink:href="#DejaVuSans-32"/>
       <use x="63.623047" xlink:href="#DejaVuSans-35"/>
       <use x="127.246094" xlink:href="#DejaVuSans-2d"/>
       <use x="163.330078" xlink:href="#DejaVuSans-32"/>
       <use x="226.953125" xlink:href="#DejaVuSans-39"/>
      </g>
     </g>
    </g>
    <g id="xtick_7">
     <g id="line2d_7">
      <g>
       <use style="fill:#262626;stroke:#262626;" x="181.425528" xlink:href="#m10512a82bc" y="307.584"/>
      </g>
     </g>
     <g id="text_7">
      <!-- 30-34 -->
      <defs>
       <path d="M 40.578125 39.3125 
Q 47.65625 37.796875 51.625 33 
Q 55.609375 28.21875 55.609375 21.1875 
Q 55.609375 10.40625 48.1875 4.484375 
Q 40.765625 -1.421875 27.09375 -1.421875 
Q 22.515625 -1.421875 17.65625 -0.515625 
Q 12.796875 0.390625 7.625 2.203125 
L 7.625 11.71875 
Q 11.71875 9.328125 16.59375 8.109375 
Q 21.484375 6.890625 26.8125 6.890625 
Q 36.078125 6.890625 40.9375 10.546875 
Q 45.796875 14.203125 45.796875 21.1875 
Q 45.796875 27.640625 41.28125 31.265625 
Q 36.765625 34.90625 28.71875 34.90625 
L 20.21875 34.90625 
L 20.21875 43.015625 
L 29.109375 43.015625 
Q 36.375 43.015625 40.234375 45.921875 
Q 44.09375 48.828125 44.09375 54.296875 
Q 44.09375 59.90625 40.109375 62.90625 
Q 36.140625 65.921875 28.71875 65.921875 
Q 24.65625 65.921875 20.015625 65.03125 
Q 15.375 64.15625 9.8125 62.3125 
L 9.8125 71.09375 
Q 15.4375 72.65625 20.34375 73.4375 
Q 25.25 74.21875 29.59375 74.21875 
Q 40.828125 74.21875 47.359375 69.109375 
Q 53.90625 64.015625 53.90625 55.328125 
Q 53.90625 49.265625 50.4375 45.09375 
Q 46.96875 40.921875 40.578125 39.3125 
z
" id="DejaVuSans-33"/>
      </defs>
      <g style="fill:#262626;" transform="translate(173.103212 341.803883)rotate(-45)scale(0.1 -0.1)">
       <use xlink:href="#DejaVuSans-33"/>
       <use x="63.623047" xlink:href="#DejaVuSans-30"/>
       <use x="127.246094" xlink:href="#DejaVuSans-2d"/>
       <use x="163.330078" xlink:href="#DejaVuSans-33"/>
       <use x="226.953125" xlink:href="#DejaVuSans-34"/>
      </g>
     </g>
    </g>
    <g id="xtick_8">
     <g id="line2d_8">
      <g>
       <use style="fill:#262626;stroke:#262626;" x="199.371256" xlink:href="#m10512a82bc" y="307.584"/>
      </g>
     </g>
     <g id="text_8">
      <!-- 35-39 -->
      <g style="fill:#262626;" transform="translate(191.048941 341.803883)rotate(-45)scale(0.1 -0.1)">
       <use xlink:href="#DejaVuSans-33"/>
       <use x="63.623047" xlink:href="#DejaVuSans-35"/>
       <use x="127.246094" xlink:href="#DejaVuSans-2d"/>
       <use x="163.330078" xlink:href="#DejaVuSans-33"/>
       <use x="226.953125" xlink:href="#DejaVuSans-39"/>
      </g>
     </g>
    </g>
    <g id="xtick_9">
     <g id="line2d_9">
      <g>
       <use style="fill:#262626;stroke:#262626;" x="217.316985" xlink:href="#m10512a82bc" y="307.584"/>
      </g>
     </g>
     <g id="text_9">
      <!-- 40-44 -->
      <g style="fill:#262626;" transform="translate(208.99467 341.803883)rotate(-45)scale(0.1 -0.1)">
       <use xlink:href="#DejaVuSans-34"/>
       <use x="63.623047" xlink:href="#DejaVuSans-30"/>
       <use x="127.246094" xlink:href="#DejaVuSans-2d"/>
       <use x="163.330078" xlink:href="#DejaVuSans-34"/>
       <use x="226.953125" xlink:href="#DejaVuSans-34"/>
      </g>
     </g>
    </g>
    <g id="xtick_10">
     <g id="line2d_10">
      <g>
       <use style="fill:#262626;stroke:#262626;" x="235.262714" xlink:href="#m10512a82bc" y="307.584"/>
      </g>
     </g>
     <g id="text_10">
      <!-- 45-49 -->
      <g style="fill:#262626;" transform="translate(226.940398 341.803883)rotate(-45)scale(0.1 -0.1)">
       <use xlink:href="#DejaVuSans-34"/>
       <use x="63.623047" xlink:href="#DejaVuSans-35"/>
       <use x="127.246094" xlink:href="#DejaVuSans-2d"/>
       <use x="163.330078" xlink:href="#DejaVuSans-34"/>
       <use x="226.953125" xlink:href="#DejaVuSans-39"/>
      </g>
     </g>
    </g>
    <g id="xtick_11">
     <g id="line2d_11">
      <g>
       <use style="fill:#262626;stroke:#262626;" x="253.208442" xlink:href="#m10512a82bc" y="307.584"/>
      </g>
     </g>
     <g id="text_11">
      <!-- 50-54 -->
      <g style="fill:#262626;" transform="translate(244.886127 341.803883)rotate(-45)scale(0.1 -0.1)">
       <use xlink:href="#DejaVuSans-35"/>
       <use x="63.623047" xlink:href="#DejaVuSans-30"/>
       <use x="127.246094" xlink:href="#DejaVuSans-2d"/>
       <use x="163.330078" xlink:href="#DejaVuSans-35"/>
       <use x="226.953125" xlink:href="#DejaVuSans-34"/>
      </g>
     </g>
    </g>
    <g id="xtick_12">
     <g id="line2d_12">
      <g>
       <use style="fill:#262626;stroke:#262626;" x="271.154171" xlink:href="#m10512a82bc" y="307.584"/>
      </g>
     </g>
     <g id="text_12">
      <!-- 55-59 -->
      <g style="fill:#262626;" transform="translate(262.831855 341.803883)rotate(-45)scale(0.1 -0.1)">
       <use xlink:href="#DejaVuSans-35"/>
       <use x="63.623047" xlink:href="#DejaVuSans-35"/>
       <use x="127.246094" xlink:href="#DejaVuSans-2d"/>
       <use x="163.330078" xlink:href="#DejaVuSans-35"/>
       <use x="226.953125" xlink:href="#DejaVuSans-39"/>
      </g>
     </g>
    </g>
    <g id="xtick_13">
     <g id="line2d_13">
      <g>
       <use style="fill:#262626;stroke:#262626;" x="289.099899" xlink:href="#m10512a82bc" y="307.584"/>
      </g>
     </g>
     <g id="text_13">
      <!-- 60-64 -->
      <defs>
       <path d="M 33.015625 40.375 
Q 26.375 40.375 22.484375 35.828125 
Q 18.609375 31.296875 18.609375 23.390625 
Q 18.609375 15.53125 22.484375 10.953125 
Q 26.375 6.390625 33.015625 6.390625 
Q 39.65625 6.390625 43.53125 10.953125 
Q 47.40625 15.53125 47.40625 23.390625 
Q 47.40625 31.296875 43.53125 35.828125 
Q 39.65625 40.375 33.015625 40.375 
z
M 52.59375 71.296875 
L 52.59375 62.3125 
Q 48.875 64.0625 45.09375 64.984375 
Q 41.3125 65.921875 37.59375 65.921875 
Q 27.828125 65.921875 22.671875 59.328125 
Q 17.53125 52.734375 16.796875 39.40625 
Q 19.671875 43.65625 24.015625 45.921875 
Q 28.375 48.1875 33.59375 48.1875 
Q 44.578125 48.1875 50.953125 41.515625 
Q 57.328125 34.859375 57.328125 23.390625 
Q 57.328125 12.15625 50.6875 5.359375 
Q 44.046875 -1.421875 33.015625 -1.421875 
Q 20.359375 -1.421875 13.671875 8.265625 
Q 6.984375 17.96875 6.984375 36.375 
Q 6.984375 53.65625 15.1875 63.9375 
Q 23.390625 74.21875 37.203125 74.21875 
Q 40.921875 74.21875 44.703125 73.484375 
Q 48.484375 72.75 52.59375 71.296875 
z
" id="DejaVuSans-36"/>
      </defs>
      <g style="fill:#262626;" transform="translate(280.777584 341.803883)rotate(-45)scale(0.1 -0.1)">
       <use xlink:href="#DejaVuSans-36"/>
       <use x="63.623047" xlink:href="#DejaVuSans-30"/>
       <use x="127.246094" xlink:href="#DejaVuSans-2d"/>
       <use x="163.330078" xlink:href="#DejaVuSans-36"/>
       <use x="226.953125" xlink:href="#DejaVuSans-34"/>
      </g>
     </g>
    </g>
    <g id="xtick_14">
     <g id="line2d_14">
      <g>
       <use style="fill:#262626;stroke:#262626;" x="307.045628" xlink:href="#m10512a82bc" y="307.584"/>
      </g>
     </g>
     <g id="text_14">
      <!-- 65-69 -->
      <g style="fill:#262626;" transform="translate(298.723313 341.803883)rotate(-45)scale(0.1 -0.1)">
       <use xlink:href="#DejaVuSans-36"/>
       <use x="63.623047" xlink:href="#DejaVuSans-35"/>
       <use x="127.246094" xlink:href="#DejaVuSans-2d"/>
       <use x="163.330078" xlink:href="#DejaVuSans-36"/>
       <use x="226.953125" xlink:href="#DejaVuSans-39"/>
      </g>
     </g>
    </g>
    <g id="xtick_15">
     <g id="line2d_15">
      <g>
       <use style="fill:#262626;stroke:#262626;" x="324.991357" xlink:href="#m10512a82bc" y="307.584"/>
      </g>
     </g>
     <g id="text_15">
      <!-- 70-74 -->
      <defs>
       <path d="M 8.203125 72.90625 
L 55.078125 72.90625 
L 55.078125 68.703125 
L 28.609375 0 
L 18.3125 0 
L 43.21875 64.59375 
L 8.203125 64.59375 
z
" id="DejaVuSans-37"/>
      </defs>
      <g style="fill:#262626;" transform="translate(316.669041 341.803883)rotate(-45)scale(0.1 -0.1)">
       <use xlink:href="#DejaVuSans-37"/>
       <use x="63.623047" xlink:href="#DejaVuSans-30"/>
       <use x="127.246094" xlink:href="#DejaVuSans-2d"/>
       <use x="163.330078" xlink:href="#DejaVuSans-37"/>
       <use x="226.953125" xlink:href="#DejaVuSans-34"/>
      </g>
     </g>
    </g>
    <g id="xtick_16">
     <g id="line2d_16">
      <g>
       <use style="fill:#262626;stroke:#262626;" x="342.937085" xlink:href="#m10512a82bc" y="307.584"/>
      </g>
     </g>
     <g id="text_16">
      <!-- 75-79 -->
      <g style="fill:#262626;" transform="translate(334.61477 341.803883)rotate(-45)scale(0.1 -0.1)">
       <use xlink:href="#DejaVuSans-37"/>
       <use x="63.623047" xlink:href="#DejaVuSans-35"/>
       <use x="127.246094" xlink:href="#DejaVuSans-2d"/>
       <use x="163.330078" xlink:href="#DejaVuSans-37"/>
       <use x="226.953125" xlink:href="#DejaVuSans-39"/>
      </g>
     </g>
    </g>
    <g id="xtick_17">
     <g id="line2d_17">
      <g>
       <use style="fill:#262626;stroke:#262626;" x="360.882814" xlink:href="#m10512a82bc" y="307.584"/>
      </g>
     </g>
     <g id="text_17">
      <!-- 80-84 -->
      <defs>
       <path d="M 31.78125 34.625 
Q 24.75 34.625 20.71875 30.859375 
Q 16.703125 27.09375 16.703125 20.515625 
Q 16.703125 13.921875 20.71875 10.15625 
Q 24.75 6.390625 31.78125 6.390625 
Q 38.8125 6.390625 42.859375 10.171875 
Q 46.921875 13.96875 46.921875 20.515625 
Q 46.921875 27.09375 42.890625 30.859375 
Q 38.875 34.625 31.78125 34.625 
z
M 21.921875 38.8125 
Q 15.578125 40.375 12.03125 44.71875 
Q 8.5 49.078125 8.5 55.328125 
Q 8.5 64.0625 14.71875 69.140625 
Q 20.953125 74.21875 31.78125 74.21875 
Q 42.671875 74.21875 48.875 69.140625 
Q 55.078125 64.0625 55.078125 55.328125 
Q 55.078125 49.078125 51.53125 44.71875 
Q 48 40.375 41.703125 38.8125 
Q 48.828125 37.15625 52.796875 32.3125 
Q 56.78125 27.484375 56.78125 20.515625 
Q 56.78125 9.90625 50.3125 4.234375 
Q 43.84375 -1.421875 31.78125 -1.421875 
Q 19.734375 -1.421875 13.25 4.234375 
Q 6.78125 9.90625 6.78125 20.515625 
Q 6.78125 27.484375 10.78125 32.3125 
Q 14.796875 37.15625 21.921875 38.8125 
z
M 18.3125 54.390625 
Q 18.3125 48.734375 21.84375 45.5625 
Q 25.390625 42.390625 31.78125 42.390625 
Q 38.140625 42.390625 41.71875 45.5625 
Q 45.3125 48.734375 45.3125 54.390625 
Q 45.3125 60.0625 41.71875 63.234375 
Q 38.140625 66.40625 31.78125 66.40625 
Q 25.390625 66.40625 21.84375 63.234375 
Q 18.3125 60.0625 18.3125 54.390625 
z
" id="DejaVuSans-38"/>
      </defs>
      <g style="fill:#262626;" transform="translate(352.560499 341.803883)rotate(-45)scale(0.1 -0.1)">
       <use xlink:href="#DejaVuSans-38"/>
       <use x="63.623047" xlink:href="#DejaVuSans-30"/>
       <use x="127.246094" xlink:href="#DejaVuSans-2d"/>
       <use x="163.330078" xlink:href="#DejaVuSans-38"/>
       <use x="226.953125" xlink:href="#DejaVuSans-34"/>
      </g>
     </g>
    </g>
    <g id="xtick_18">
     <g id="line2d_18">
      <g>
       <use style="fill:#262626;stroke:#262626;" x="378.828543" xlink:href="#m10512a82bc" y="307.584"/>
      </g>
     </g>
     <g id="text_18">
      <!-- 85-89 -->
      <g style="fill:#262626;" transform="translate(370.506227 341.803883)rotate(-45)scale(0.1 -0.1)">
       <use xlink:href="#DejaVuSans-38"/>
       <use x="63.623047" xlink:href="#DejaVuSans-35"/>
       <use x="127.246094" xlink:href="#DejaVuSans-2d"/>
       <use x="163.330078" xlink:href="#DejaVuSans-38"/>
       <use x="226.953125" xlink:href="#DejaVuSans-39"/>
      </g>
     </g>
    </g>
    <g id="xtick_19">
     <g id="line2d_19">
      <g>
       <use style="fill:#262626;stroke:#262626;" x="396.774271" xlink:href="#m10512a82bc" y="307.584"/>
      </g>
     </g>
     <g id="text_19">
      <!-- 90-94 -->
      <g style="fill:#262626;" transform="translate(388.451956 341.803883)rotate(-45)scale(0.1 -0.1)">
       <use xlink:href="#DejaVuSans-39"/>
       <use x="63.623047" xlink:href="#DejaVuSans-30"/>
       <use x="127.246094" xlink:href="#DejaVuSans-2d"/>
       <use x="163.330078" xlink:href="#DejaVuSans-39"/>
       <use x="226.953125" xlink:href="#DejaVuSans-34"/>
      </g>
     </g>
    </g>
    <g id="xtick_20">
     <g id="line2d_20">
      <g>
       <use style="fill:#262626;stroke:#262626;" x="414.72" xlink:href="#m10512a82bc" y="307.584"/>
      </g>
     </g>
     <g id="text_20">
      <!-- 95-99 -->
      <g style="fill:#262626;" transform="translate(406.397685 341.803883)rotate(-45)scale(0.1 -0.1)">
       <use xlink:href="#DejaVuSans-39"/>
       <use x="63.623047" xlink:href="#DejaVuSans-35"/>
       <use x="127.246094" xlink:href="#DejaVuSans-2d"/>
       <use x="163.330078" xlink:href="#DejaVuSans-39"/>
       <use x="226.953125" xlink:href="#DejaVuSans-39"/>
      </g>
     </g>
    </g>
    <g id="text_21">
     <!-- Age class -->
     <defs>
      <path d="M 34.1875 63.1875 
L 20.796875 26.90625 
L 47.609375 26.90625 
z
M 28.609375 72.90625 
L 39.796875 72.90625 
L 67.578125 0 
L 57.328125 0 
L 50.6875 18.703125 
L 17.828125 18.703125 
L 11.1875 0 
L 0.78125 0 
z
" id="DejaVuSans-41"/>
      <path d="M 45.40625 27.984375 
Q 45.40625 37.75 41.375 43.109375 
Q 37.359375 48.484375 30.078125 48.484375 
Q 22.859375 48.484375 18.828125 43.109375 
Q 14.796875 37.75 14.796875 27.984375 
Q 14.796875 18.265625 18.828125 12.890625 
Q 22.859375 7.515625 30.078125 7.515625 
Q 37.359375 7.515625 41.375 12.890625 
Q 45.40625 18.265625 45.40625 27.984375 
z
M 54.390625 6.78125 
Q 54.390625 -7.171875 48.1875 -13.984375 
Q 42 -20.796875 29.203125 -20.796875 
Q 24.46875 -20.796875 20.265625 -20.09375 
Q 16.0625 -19.390625 12.109375 -17.921875 
L 12.109375 -9.1875 
Q 16.0625 -11.328125 19.921875 -12.34375 
Q 23.78125 -13.375 27.78125 -13.375 
Q 36.625 -13.375 41.015625 -8.765625 
Q 45.40625 -4.15625 45.40625 5.171875 
L 45.40625 9.625 
Q 42.625 4.78125 38.28125 2.390625 
Q 33.9375 0 27.875 0 
Q 17.828125 0 11.671875 7.65625 
Q 5.515625 15.328125 5.515625 27.984375 
Q 5.515625 40.671875 11.671875 48.328125 
Q 17.828125 56 27.875 56 
Q 33.9375 56 38.28125 53.609375 
Q 42.625 51.21875 45.40625 46.390625 
L 45.40625 54.6875 
L 54.390625 54.6875 
z
" id="DejaVuSans-67"/>
      <path d="M 56.203125 29.59375 
L 56.203125 25.203125 
L 14.890625 25.203125 
Q 15.484375 15.921875 20.484375 11.0625 
Q 25.484375 6.203125 34.421875 6.203125 
Q 39.59375 6.203125 44.453125 7.46875 
Q 49.3125 8.734375 54.109375 11.28125 
L 54.109375 2.78125 
Q 49.265625 0.734375 44.1875 -0.34375 
Q 39.109375 -1.421875 33.890625 -1.421875 
Q 20.796875 -1.421875 13.15625 6.1875 
Q 5.515625 13.8125 5.515625 26.8125 
Q 5.515625 40.234375 12.765625 48.109375 
Q 20.015625 56 32.328125 56 
Q 43.359375 56 49.78125 48.890625 
Q 56.203125 41.796875 56.203125 29.59375 
z
M 47.21875 32.234375 
Q 47.125 39.59375 43.09375 43.984375 
Q 39.0625 48.390625 32.421875 48.390625 
Q 24.90625 48.390625 20.390625 44.140625 
Q 15.875 39.890625 15.1875 32.171875 
z
" id="DejaVuSans-65"/>
      <path id="DejaVuSans-20"/>
      <path d="M 48.78125 52.59375 
L 48.78125 44.1875 
Q 44.96875 46.296875 41.140625 47.34375 
Q 37.3125 48.390625 33.40625 48.390625 
Q 24.65625 48.390625 19.8125 42.84375 
Q 14.984375 37.3125 14.984375 27.296875 
Q 14.984375 17.28125 19.8125 11.734375 
Q 24.65625 6.203125 33.40625 6.203125 
Q 37.3125 6.203125 41.140625 7.25 
Q 44.96875 8.296875 48.78125 10.40625 
L 48.78125 2.09375 
Q 45.015625 0.34375 40.984375 -0.53125 
Q 36.96875 -1.421875 32.421875 -1.421875 
Q 20.0625 -1.421875 12.78125 6.34375 
Q 5.515625 14.109375 5.515625 27.296875 
Q 5.515625 40.671875 12.859375 48.328125 
Q 20.21875 56 33.015625 56 
Q 37.15625 56 41.109375 55.140625 
Q 45.0625 54.296875 48.78125 52.59375 
z
" id="DejaVuSans-63"/>
      <path d="M 9.421875 75.984375 
L 18.40625 75.984375 
L 18.40625 0 
L 9.421875 0 
z
" id="DejaVuSans-6c"/>
      <path d="M 34.28125 27.484375 
Q 23.390625 27.484375 19.1875 25 
Q 14.984375 22.515625 14.984375 16.5 
Q 14.984375 11.71875 18.140625 8.90625 
Q 21.296875 6.109375 26.703125 6.109375 
Q 34.1875 6.109375 38.703125 11.40625 
Q 43.21875 16.703125 43.21875 25.484375 
L 43.21875 27.484375 
z
M 52.203125 31.203125 
L 52.203125 0 
L 43.21875 0 
L 43.21875 8.296875 
Q 40.140625 3.328125 35.546875 0.953125 
Q 30.953125 -1.421875 24.3125 -1.421875 
Q 15.921875 -1.421875 10.953125 3.296875 
Q 6 8.015625 6 15.921875 
Q 6 25.140625 12.171875 29.828125 
Q 18.359375 34.515625 30.609375 34.515625 
L 43.21875 34.515625 
L 43.21875 35.40625 
Q 43.21875 41.609375 39.140625 45 
Q 35.0625 48.390625 27.6875 48.390625 
Q 23 48.390625 18.546875 47.265625 
Q 14.109375 46.140625 10.015625 43.890625 
L 10.015625 52.203125 
Q 14.9375 54.109375 19.578125 55.046875 
Q 24.21875 56 28.609375 56 
Q 40.484375 56 46.34375 49.84375 
Q 52.203125 43.703125 52.203125 31.203125 
z
" id="DejaVuSans-61"/>
      <path d="M 44.28125 53.078125 
L 44.28125 44.578125 
Q 40.484375 46.53125 36.375 47.5 
Q 32.28125 48.484375 27.875 48.484375 
Q 21.1875 48.484375 17.84375 46.4375 
Q 14.5 44.390625 14.5 40.28125 
Q 14.5 37.15625 16.890625 35.375 
Q 19.28125 33.59375 26.515625 31.984375 
L 29.59375 31.296875 
Q 39.15625 29.25 43.1875 25.515625 
Q 47.21875 21.78125 47.21875 15.09375 
Q 47.21875 7.46875 41.1875 3.015625 
Q 35.15625 -1.421875 24.609375 -1.421875 
Q 20.21875 -1.421875 15.453125 -0.5625 
Q 10.6875 0.296875 5.421875 2 
L 5.421875 11.28125 
Q 10.40625 8.6875 15.234375 7.390625 
Q 20.0625 6.109375 24.8125 6.109375 
Q 31.15625 6.109375 34.5625 8.28125 
Q 37.984375 10.453125 37.984375 14.40625 
Q 37.984375 18.0625 35.515625 20.015625 
Q 33.0625 21.96875 24.703125 23.78125 
L 21.578125 24.515625 
Q 13.234375 26.265625 9.515625 29.90625 
Q 5.8125 33.546875 5.8125 39.890625 
Q 5.8125 47.609375 11.28125 51.796875 
Q 16.75 56 26.8125 56 
Q 31.78125 56 36.171875 55.265625 
Q 40.578125 54.546875 44.28125 53.078125 
z
" id="DejaVuSans-73"/>
     </defs>
     <g style="fill:#262626;" transform="translate(207.75375 356.392569)scale(0.12 -0.12)">
      <use xlink:href="#DejaVuSans-41"/>
      <use x="68.408203" xlink:href="#DejaVuSans-67"/>
      <use x="131.884766" xlink:href="#DejaVuSans-65"/>
      <use x="193.408203" xlink:href="#DejaVuSans-20"/>
      <use x="225.195312" xlink:href="#DejaVuSans-63"/>
      <use x="280.175781" xlink:href="#DejaVuSans-6c"/>
      <use x="307.958984" xlink:href="#DejaVuSans-61"/>
      <use x="369.238281" xlink:href="#DejaVuSans-73"/>
      <use x="421.337891" xlink:href="#DejaVuSans-73"/>
     </g>
    </g>
   </g>
   <g id="matplotlib.axis_2">
    <g id="ytick_1">
     <g id="line2d_21">
      <defs>
       <path d="M 0 0 
L -4.8 0 
" id="mf428895f0a" style="stroke:#262626;"/>
      </defs>
      <g>
       <use style="fill:#262626;stroke:#262626;" x="57.6" xlink:href="#mf428895f0a" y="295.488"/>
      </g>
     </g>
     <g id="text_22">
      <!-- 0 -->
      <g style="fill:#262626;" transform="translate(43.701 298.831312)scale(0.088 -0.088)">
       <use xlink:href="#DejaVuSans-30"/>
      </g>
     </g>
    </g>
    <g id="ytick_2">
     <g id="line2d_22">
      <g>
       <use style="fill:#262626;stroke:#262626;" x="57.6" xlink:href="#mf428895f0a" y="264.843738"/>
      </g>
     </g>
     <g id="text_23">
      <!-- 5 -->
      <g style="fill:#262626;" transform="translate(43.701 268.18705)scale(0.088 -0.088)">
       <use xlink:href="#DejaVuSans-35"/>
      </g>
     </g>
    </g>
    <g id="ytick_3">
     <g id="line2d_23">
      <g>
       <use style="fill:#262626;stroke:#262626;" x="57.6" xlink:href="#mf428895f0a" y="234.199476"/>
      </g>
     </g>
     <g id="text_24">
      <!-- 10 -->
      <g style="fill:#262626;" transform="translate(38.102 237.542788)scale(0.088 -0.088)">
       <use xlink:href="#DejaVuSans-31"/>
       <use x="63.623047" xlink:href="#DejaVuSans-30"/>
      </g>
     </g>
    </g>
    <g id="ytick_4">
     <g id="line2d_24">
      <g>
       <use style="fill:#262626;stroke:#262626;" x="57.6" xlink:href="#mf428895f0a" y="203.555214"/>
      </g>
     </g>
     <g id="text_25">
      <!-- 15 -->
      <g style="fill:#262626;" transform="translate(38.102 206.898526)scale(0.088 -0.088)">
       <use xlink:href="#DejaVuSans-31"/>
       <use x="63.623047" xlink:href="#DejaVuSans-35"/>
      </g>
     </g>
    </g>
    <g id="ytick_5">
     <g id="line2d_25">
      <g>
       <use style="fill:#262626;stroke:#262626;" x="57.6" xlink:href="#mf428895f0a" y="172.910952"/>
      </g>
     </g>
     <g id="text_26">
      <!-- 20 -->
      <g style="fill:#262626;" transform="translate(38.102 176.254264)scale(0.088 -0.088)">
       <use xlink:href="#DejaVuSans-32"/>
       <use x="63.623047" xlink:href="#DejaVuSans-30"/>
      </g>
     </g>
    </g>
    <g id="ytick_6">
     <g id="line2d_26">
      <g>
       <use style="fill:#262626;stroke:#262626;" x="57.6" xlink:href="#mf428895f0a" y="142.266689"/>
      </g>
     </g>
     <g id="text_27">
      <!-- 25 -->
      <g style="fill:#262626;" transform="translate(38.102 145.610002)scale(0.088 -0.088)">
       <use xlink:href="#DejaVuSans-32"/>
       <use x="63.623047" xlink:href="#DejaVuSans-35"/>
      </g>
     </g>
    </g>
    <g id="ytick_7">
     <g id="line2d_27">
      <g>
       <use style="fill:#262626;stroke:#262626;" x="57.6" xlink:href="#mf428895f0a" y="111.622427"/>
      </g>
     </g>
     <g id="text_28">
      <!-- 30 -->
      <g style="fill:#262626;" transform="translate(38.102 114.96574)scale(0.088 -0.088)">
       <use xlink:href="#DejaVuSans-33"/>
       <use x="63.623047" xlink:href="#DejaVuSans-30"/>
      </g>
     </g>
    </g>
    <g id="ytick_8">
     <g id="line2d_28">
      <g>
       <use style="fill:#262626;stroke:#262626;" x="57.6" xlink:href="#mf428895f0a" y="80.978165"/>
      </g>
     </g>
     <g id="text_29">
      <!-- 35 -->
      <g style="fill:#262626;" transform="translate(38.102 84.321478)scale(0.088 -0.088)">
       <use xlink:href="#DejaVuSans-33"/>
       <use x="63.623047" xlink:href="#DejaVuSans-35"/>
      </g>
     </g>
    </g>
    <g id="ytick_9">
     <g id="line2d_29">
      <g>
       <use style="fill:#262626;stroke:#262626;" x="57.6" xlink:href="#mf428895f0a" y="50.333903"/>
      </g>
     </g>
     <g id="text_30">
      <!-- 40 -->
      <g style="fill:#262626;" transform="translate(38.102 53.677216)scale(0.088 -0.088)">
       <use xlink:href="#DejaVuSans-34"/>
       <use x="63.623047" xlink:href="#DejaVuSans-30"/>
      </g>
     </g>
    </g>
    <g id="text_31">
     <!-- Age-specific incidence (%) -->
     <defs>
      <path d="M 18.109375 8.203125 
L 18.109375 -20.796875 
L 9.078125 -20.796875 
L 9.078125 54.6875 
L 18.109375 54.6875 
L 18.109375 46.390625 
Q 20.953125 51.265625 25.265625 53.625 
Q 29.59375 56 35.59375 56 
Q 45.5625 56 51.78125 48.09375 
Q 58.015625 40.1875 58.015625 27.296875 
Q 58.015625 14.40625 51.78125 6.484375 
Q 45.5625 -1.421875 35.59375 -1.421875 
Q 29.59375 -1.421875 25.265625 0.953125 
Q 20.953125 3.328125 18.109375 8.203125 
z
M 48.6875 27.296875 
Q 48.6875 37.203125 44.609375 42.84375 
Q 40.53125 48.484375 33.40625 48.484375 
Q 26.265625 48.484375 22.1875 42.84375 
Q 18.109375 37.203125 18.109375 27.296875 
Q 18.109375 17.390625 22.1875 11.75 
Q 26.265625 6.109375 33.40625 6.109375 
Q 40.53125 6.109375 44.609375 11.75 
Q 48.6875 17.390625 48.6875 27.296875 
z
" id="DejaVuSans-70"/>
      <path d="M 9.421875 54.6875 
L 18.40625 54.6875 
L 18.40625 0 
L 9.421875 0 
z
M 9.421875 75.984375 
L 18.40625 75.984375 
L 18.40625 64.59375 
L 9.421875 64.59375 
z
" id="DejaVuSans-69"/>
      <path d="M 37.109375 75.984375 
L 37.109375 68.5 
L 28.515625 68.5 
Q 23.6875 68.5 21.796875 66.546875 
Q 19.921875 64.59375 19.921875 59.515625 
L 19.921875 54.6875 
L 34.71875 54.6875 
L 34.71875 47.703125 
L 19.921875 47.703125 
L 19.921875 0 
L 10.890625 0 
L 10.890625 47.703125 
L 2.296875 47.703125 
L 2.296875 54.6875 
L 10.890625 54.6875 
L 10.890625 58.5 
Q 10.890625 67.625 15.140625 71.796875 
Q 19.390625 75.984375 28.609375 75.984375 
z
" id="DejaVuSans-66"/>
      <path d="M 54.890625 33.015625 
L 54.890625 0 
L 45.90625 0 
L 45.90625 32.71875 
Q 45.90625 40.484375 42.875 44.328125 
Q 39.84375 48.1875 33.796875 48.1875 
Q 26.515625 48.1875 22.3125 43.546875 
Q 18.109375 38.921875 18.109375 30.90625 
L 18.109375 0 
L 9.078125 0 
L 9.078125 54.6875 
L 18.109375 54.6875 
L 18.109375 46.1875 
Q 21.34375 51.125 25.703125 53.5625 
Q 30.078125 56 35.796875 56 
Q 45.21875 56 50.046875 50.171875 
Q 54.890625 44.34375 54.890625 33.015625 
z
" id="DejaVuSans-6e"/>
      <path d="M 45.40625 46.390625 
L 45.40625 75.984375 
L 54.390625 75.984375 
L 54.390625 0 
L 45.40625 0 
L 45.40625 8.203125 
Q 42.578125 3.328125 38.25 0.953125 
Q 33.9375 -1.421875 27.875 -1.421875 
Q 17.96875 -1.421875 11.734375 6.484375 
Q 5.515625 14.40625 5.515625 27.296875 
Q 5.515625 40.1875 11.734375 48.09375 
Q 17.96875 56 27.875 56 
Q 33.9375 56 38.25 53.625 
Q 42.578125 51.265625 45.40625 46.390625 
z
M 14.796875 27.296875 
Q 14.796875 17.390625 18.875 11.75 
Q 22.953125 6.109375 30.078125 6.109375 
Q 37.203125 6.109375 41.296875 11.75 
Q 45.40625 17.390625 45.40625 27.296875 
Q 45.40625 37.203125 41.296875 42.84375 
Q 37.203125 48.484375 30.078125 48.484375 
Q 22.953125 48.484375 18.875 42.84375 
Q 14.796875 37.203125 14.796875 27.296875 
z
" id="DejaVuSans-64"/>
      <path d="M 31 75.875 
Q 24.46875 64.65625 21.28125 53.65625 
Q 18.109375 42.671875 18.109375 31.390625 
Q 18.109375 20.125 21.3125 9.0625 
Q 24.515625 -2 31 -13.1875 
L 23.1875 -13.1875 
Q 15.875 -1.703125 12.234375 9.375 
Q 8.59375 20.453125 8.59375 31.390625 
Q 8.59375 42.28125 12.203125 53.3125 
Q 15.828125 64.359375 23.1875 75.875 
z
" id="DejaVuSans-28"/>
      <path d="M 72.703125 32.078125 
Q 68.453125 32.078125 66.03125 28.46875 
Q 63.625 24.859375 63.625 18.40625 
Q 63.625 12.0625 66.03125 8.421875 
Q 68.453125 4.78125 72.703125 4.78125 
Q 76.859375 4.78125 79.265625 8.421875 
Q 81.6875 12.0625 81.6875 18.40625 
Q 81.6875 24.8125 79.265625 28.4375 
Q 76.859375 32.078125 72.703125 32.078125 
z
M 72.703125 38.28125 
Q 80.421875 38.28125 84.953125 32.90625 
Q 89.5 27.546875 89.5 18.40625 
Q 89.5 9.28125 84.9375 3.921875 
Q 80.375 -1.421875 72.703125 -1.421875 
Q 64.890625 -1.421875 60.34375 3.921875 
Q 55.8125 9.28125 55.8125 18.40625 
Q 55.8125 27.59375 60.375 32.9375 
Q 64.9375 38.28125 72.703125 38.28125 
z
M 22.3125 68.015625 
Q 18.109375 68.015625 15.6875 64.375 
Q 13.28125 60.75 13.28125 54.390625 
Q 13.28125 47.953125 15.671875 44.328125 
Q 18.0625 40.71875 22.3125 40.71875 
Q 26.5625 40.71875 28.96875 44.328125 
Q 31.390625 47.953125 31.390625 54.390625 
Q 31.390625 60.6875 28.953125 64.34375 
Q 26.515625 68.015625 22.3125 68.015625 
z
M 66.40625 74.21875 
L 74.21875 74.21875 
L 28.609375 -1.421875 
L 20.796875 -1.421875 
z
M 22.3125 74.21875 
Q 30.03125 74.21875 34.609375 68.875 
Q 39.203125 63.53125 39.203125 54.390625 
Q 39.203125 45.171875 34.640625 39.84375 
Q 30.078125 34.515625 22.3125 34.515625 
Q 14.546875 34.515625 10.03125 39.859375 
Q 5.515625 45.21875 5.515625 54.390625 
Q 5.515625 63.484375 10.046875 68.84375 
Q 14.59375 74.21875 22.3125 74.21875 
z
" id="DejaVuSans-25"/>
      <path d="M 8.015625 75.875 
L 15.828125 75.875 
Q 23.140625 64.359375 26.78125 53.3125 
Q 30.421875 42.28125 30.421875 31.390625 
Q 30.421875 20.453125 26.78125 9.375 
Q 23.140625 -1.703125 15.828125 -13.1875 
L 8.015625 -13.1875 
Q 14.5 -2 17.703125 9.0625 
Q 20.90625 20.125 20.90625 31.390625 
Q 20.90625 42.671875 17.703125 53.65625 
Q 14.5 64.65625 8.015625 75.875 
z
" id="DejaVuSans-29"/>
     </defs>
     <g style="fill:#262626;" transform="translate(30.982469 273.736594)rotate(-90)scale(0.15 -0.15)">
      <use xlink:href="#DejaVuSans-41"/>
      <use x="68.408203" xlink:href="#DejaVuSans-67"/>
      <use x="131.884766" xlink:href="#DejaVuSans-65"/>
      <use x="193.408203" xlink:href="#DejaVuSans-2d"/>
      <use x="229.492188" xlink:href="#DejaVuSans-73"/>
      <use x="281.591797" xlink:href="#DejaVuSans-70"/>
      <use x="345.068359" xlink:href="#DejaVuSans-65"/>
      <use x="406.591797" xlink:href="#DejaVuSans-63"/>
      <use x="461.572266" xlink:href="#DejaVuSans-69"/>
      <use x="489.355469" xlink:href="#DejaVuSans-66"/>
      <use x="524.560547" xlink:href="#DejaVuSans-69"/>
      <use x="552.34375" xlink:href="#DejaVuSans-63"/>
      <use x="607.324219" xlink:href="#DejaVuSans-20"/>
      <use x="639.111328" xlink:href="#DejaVuSans-69"/>
      <use x="666.894531" xlink:href="#DejaVuSans-6e"/>
      <use x="730.273438" xlink:href="#DejaVuSans-63"/>
      <use x="785.253906" xlink:href="#DejaVuSans-69"/>
      <use x="813.037109" xlink:href="#DejaVuSans-64"/>
      <use x="876.513672" xlink:href="#DejaVuSans-65"/>
      <use x="938.037109" xlink:href="#DejaVuSans-6e"/>
      <use x="1001.416016" xlink:href="#DejaVuSans-63"/>
      <use x="1056.396484" xlink:href="#DejaVuSans-65"/>
      <use x="1117.919922" xlink:href="#DejaVuSans-20"/>
      <use x="1149.707031" xlink:href="#DejaVuSans-28"/>
      <use x="1188.720703" xlink:href="#DejaVuSans-25"/>
      <use x="1283.740234" xlink:href="#DejaVuSans-29"/>
     </g>
    </g>
   </g>
   <g id="line2d_30">
    <path clip-path="url(#p4be5754a8b)" d="M 73.751156 295.488 
L 91.696884 295.488 
L 109.642613 295.488 
L 127.588342 295.488 
L 145.53407 295.488 
L 163.479799 295.488 
L 181.425528 295.488 
L 199.371256 295.488 
L 217.316985 295.488 
L 235.262714 295.488 
L 253.208442 295.488 
L 271.154171 295.488 
L 289.099899 295.426711 
L 307.045628 295.488 
L 324.991357 295.120232 
L 342.937085 294.936348 
L 360.882814 294.568028 
L 378.828543 293.278077 
L 396.774271 292.352565 
" style="fill:none;stroke:#481b6d;stroke-linecap:round;stroke-width:1.2;"/>
   </g>
   <g id="line2d_31">
    <path clip-path="url(#p4be5754a8b)" d="M 73.751156 295.488 
L 91.696884 295.488 
L 109.642613 295.488 
L 127.588342 295.488 
L 145.53407 295.488 
L 163.479799 295.488 
L 181.425528 295.488 
L 199.371256 295.488 
L 217.316985 295.488 
L 235.262714 295.426711 
L 253.208442 295.365423 
L 271.154171 295.304116 
L 289.099899 294.874931 
L 307.045628 294.936072 
L 324.991357 294.383039 
L 342.937085 292.723104 
L 360.882814 290.071318 
L 378.828543 286.769596 
L 396.774271 282.262056 
" style="fill:none;stroke:#46327e;stroke-linecap:round;stroke-width:1.2;"/>
   </g>
   <g id="line2d_32">
    <path clip-path="url(#p4be5754a8b)" d="M 73.751156 295.488 
L 91.696884 295.488 
L 109.642613 295.488 
L 127.588342 295.488 
L 145.53407 295.488 
L 163.479799 295.488 
L 181.425528 295.488 
L 199.371256 295.488 
L 217.316985 295.488 
L 235.262714 295.365423 
L 253.208442 295.365423 
L 271.154171 294.568488 
L 289.099899 293.771235 
L 307.045628 292.356335 
L 324.991357 288.221803 
L 342.937085 281.437813 
L 360.882814 276.069109 
L 378.828543 263.872177 
L 396.774271 251.677343 
" style="fill:none;stroke:#3f4788;stroke-linecap:round;stroke-width:1.2;"/>
   </g>
   <g id="line2d_33">
    <path clip-path="url(#p4be5754a8b)" d="M 73.751156 295.488 
L 91.696884 295.488 
L 109.642613 295.488 
L 127.588342 295.488 
L 145.53407 295.488 
L 163.479799 295.426711 
L 181.425528 295.488 
L 199.371256 295.488 
L 217.316985 295.365411 
L 235.262714 294.936348 
L 253.208442 294.200555 
L 271.154171 291.622184 
L 289.099899 287.740078 
L 307.045628 280.141116 
L 324.991357 269.601151 
L 342.937085 251.563486 
L 360.882814 228.935802 
L 378.828543 207.849916 
L 396.774271 183.844745 
" style="fill:none;stroke:#365c8d;stroke-linecap:round;stroke-width:1.2;"/>
   </g>
   <g id="line2d_34">
    <path clip-path="url(#p4be5754a8b)" d="M 73.751156 295.488 
L 91.696884 295.488 
L 109.642613 295.488 
L 127.588342 295.488 
L 145.53407 295.488 
L 163.479799 295.426711 
L 181.425528 295.488 
L 199.371256 295.304116 
L 217.316985 294.56858 
L 235.262714 293.403356 
L 253.208442 289.163265 
L 271.154171 280.70038 
L 289.099899 269.027595 
L 307.045628 251.838114 
L 324.991357 224.110473 
L 342.937085 187.051682 
L 360.882814 157.824038 
L 378.828543 131.479371 
L 396.774271 117.311961 
" style="fill:none;stroke:#2e6e8e;stroke-linecap:round;stroke-width:1.2;"/>
   </g>
   <g id="line2d_35">
    <path clip-path="url(#p4be5754a8b)" d="M 73.751156 295.488 
L 91.696884 295.488 
L 109.642613 295.488 
L 127.588342 295.488 
L 145.53407 295.488 
L 163.479799 295.488 
L 181.425528 295.304134 
L 199.371256 294.629961 
L 217.316985 292.974416 
L 235.262714 285.603744 
L 253.208442 275.391381 
L 271.154171 256.88895 
L 289.099899 228.397971 
L 307.045628 187.666238 
L 324.991357 158.13071 
L 342.937085 119.929577 
L 360.882814 109.85187 
L 378.828543 105.742348 
L 396.774271 130.322935 
" style="fill:none;stroke:#277f8e;stroke-linecap:round;stroke-width:1.2;"/>
   </g>
   <g id="line2d_36">
    <path clip-path="url(#p4be5754a8b)" d="M 73.751156 295.488 
L 91.696884 295.488 
L 109.642613 295.488 
L 127.588342 295.488 
L 145.53407 295.426711 
L 163.479799 295.304134 
L 181.425528 294.936348 
L 199.371256 291.441339 
L 217.316985 285.055388 
L 235.262714 269.480069 
L 253.208442 240.742533 
L 271.154171 208.580479 
L 289.099899 167.100171 
L 307.045628 130.328482 
L 324.991357 97.477164 
L 342.937085 102.057784 
L 360.882814 134.372383 
L 378.828543 159.510245 
L 396.774271 189.207322 
" style="fill:none;stroke:#21918c;stroke-linecap:round;stroke-width:1.2;"/>
   </g>
   <g id="line2d_37">
    <path clip-path="url(#p4be5754a8b)" d="M 73.751156 295.488 
L 91.696884 295.488 
L 109.642613 295.488 
L 127.588342 295.488 
L 145.53407 295.488 
L 163.479799 294.936403 
L 181.425528 293.159036 
L 199.371256 287.513315 
L 217.316985 267.408459 
L 235.262714 231.223336 
L 253.208442 185.826885 
L 271.154171 139.270999 
L 289.099899 112.294108 
L 307.045628 92.814309 
L 324.991357 120.653153 
L 342.937085 143.586299 
L 360.882814 187.89686 
L 378.828543 254.628984 
L 396.774271 295.488 
" style="fill:none;stroke:#1fa187;stroke-linecap:round;stroke-width:1.2;"/>
   </g>
   <g id="line2d_38">
    <path clip-path="url(#p4be5754a8b)" d="M 73.751156 295.488 
L 91.696884 295.488 
L 109.642613 295.488 
L 127.588342 295.488 
L 145.53407 295.242846 
L 163.479799 294.139652 
L 181.425528 289.111443 
L 199.371256 270.355649 
L 217.316985 224.512536 
L 235.262714 162.55908 
L 253.208442 112.609764 
L 271.154171 96.050878 
L 289.099899 106.309891 
L 307.045628 131.466563 
L 324.991357 190.330913 
L 342.937085 234.199476 
L 360.882814 295.488 
" style="fill:none;stroke:#2db27d;stroke-linecap:round;stroke-width:1.2;"/>
   </g>
   <g id="line2d_39">
    <path clip-path="url(#p4be5754a8b)" d="M 73.751156 295.488 
L 91.696884 295.488 
L 109.642613 295.488 
L 127.588342 295.242846 
L 145.53407 294.875115 
L 163.479799 292.238408 
L 181.425528 279.285146 
L 199.371256 242.115833 
L 217.316985 168.904917 
L 235.262714 90.752028 
L 253.208442 75.796507 
L 271.154171 120.627053 
L 289.099899 172.137324 
L 307.045628 234.768719 
L 324.991357 244.41423 
L 342.937085 142.266689 
L 360.882814 295.488 
" style="fill:none;stroke:#4ac16d;stroke-linecap:round;stroke-width:1.2;"/>
   </g>
   <g id="line2d_40">
    <path clip-path="url(#p4be5754a8b)" d="M 73.751156 295.488 
L 91.696884 295.488 
L 109.642613 295.426711 
L 127.588342 295.365423 
L 145.53407 293.158803 
L 163.479799 285.678893 
L 181.425528 262.317486 
L 199.371256 197.541445 
L 217.316985 98.451351 
L 235.262714 53.568 
L 253.208442 115.143562 
L 271.154171 194.79971 
L 289.099899 264.004169 
L 307.045628 257.182672 
L 324.991357 295.488 
" style="fill:none;stroke:#73d056;stroke-linecap:round;stroke-width:1.2;"/>
   </g>
   <g id="patch_3">
    <path d="M 57.6 307.584 
L 57.6 41.472 
" style="fill:none;stroke:#262626;stroke-linecap:square;stroke-linejoin:miter;"/>
   </g>
   <g id="patch_4">
    <path d="M 414.72 307.584 
L 414.72 41.472 
" style="fill:none;stroke:#262626;stroke-linecap:square;stroke-linejoin:miter;"/>
   </g>
   <g id="patch_5">
    <path d="M 57.6 307.584 
L 414.72 307.584 
" style="fill:none;stroke:#262626;stroke-linecap:square;stroke-linejoin:miter;"/>
   </g>
   <g id="patch_6">
    <path d="M 57.6 41.472 
L 414.72 41.472 
" style="fill:none;stroke:#262626;stroke-linecap:square;stroke-linejoin:miter;"/>
   </g>
   <g id="legend_1">
    <g id="patch_7">
     <path d="M 63.76 204.28725 
L 117.11275 204.28725 
Q 118.87275 204.28725 118.87275 202.52725 
L 118.87275 47.632 
Q 118.87275 45.872 117.11275 45.872 
L 63.76 45.872 
Q 62 45.872 62 47.632 
L 62 202.52725 
Q 62 204.28725 63.76 204.28725 
z
" style="fill:#ffffff;opacity:0.8;stroke:#cccccc;stroke-linejoin:miter;stroke-width:0.8;"/>
    </g>
    <g id="text_32">
     <!-- log(n) -->
     <defs>
      <path d="M 30.609375 48.390625 
Q 23.390625 48.390625 19.1875 42.75 
Q 14.984375 37.109375 14.984375 27.296875 
Q 14.984375 17.484375 19.15625 11.84375 
Q 23.34375 6.203125 30.609375 6.203125 
Q 37.796875 6.203125 41.984375 11.859375 
Q 46.1875 17.53125 46.1875 27.296875 
Q 46.1875 37.015625 41.984375 42.703125 
Q 37.796875 48.390625 30.609375 48.390625 
z
M 30.609375 56 
Q 42.328125 56 49.015625 48.375 
Q 55.71875 40.765625 55.71875 27.296875 
Q 55.71875 13.875 49.015625 6.21875 
Q 42.328125 -1.421875 30.609375 -1.421875 
Q 18.84375 -1.421875 12.171875 6.21875 
Q 5.515625 13.875 5.515625 27.296875 
Q 5.515625 40.765625 12.171875 48.375 
Q 18.84375 56 30.609375 56 
z
" id="DejaVuSans-6f"/>
     </defs>
     <g style="fill:#262626;" transform="translate(76.331125 56.6865)scale(0.096 -0.096)">
      <use xlink:href="#DejaVuSans-6c"/>
      <use x="27.783203" xlink:href="#DejaVuSans-6f"/>
      <use x="88.964844" xlink:href="#DejaVuSans-67"/>
      <use x="152.441406" xlink:href="#DejaVuSans-28"/>
      <use x="191.455078" xlink:href="#DejaVuSans-6e"/>
      <use x="254.833984" xlink:href="#DejaVuSans-29"/>
     </g>
    </g>
    <g id="line2d_41">
     <path d="M 65.52 66.689625 
L 83.12 66.689625 
" style="fill:none;stroke:#481b6d;stroke-linecap:round;stroke-width:1.2;"/>
    </g>
    <g id="line2d_42"/>
    <g id="text_33">
     <!-- 6.08 -->
     <defs>
      <path d="M 10.6875 12.40625 
L 21 12.40625 
L 21 0 
L 10.6875 0 
z
" id="DejaVuSans-2e"/>
     </defs>
     <g style="fill:#262626;" transform="translate(90.16 69.769625)scale(0.088 -0.088)">
      <use xlink:href="#DejaVuSans-36"/>
      <use x="63.623047" xlink:href="#DejaVuSans-2e"/>
      <use x="95.410156" xlink:href="#DejaVuSans-30"/>
      <use x="159.033203" xlink:href="#DejaVuSans-38"/>
     </g>
    </g>
    <g id="line2d_43">
     <path d="M 65.52 79.606375 
L 83.12 79.606375 
" style="fill:none;stroke:#46327e;stroke-linecap:round;stroke-width:1.2;"/>
    </g>
    <g id="line2d_44"/>
    <g id="text_34">
     <!-- 6.51 -->
     <g style="fill:#262626;" transform="translate(90.16 82.686375)scale(0.088 -0.088)">
      <use xlink:href="#DejaVuSans-36"/>
      <use x="63.623047" xlink:href="#DejaVuSans-2e"/>
      <use x="95.410156" xlink:href="#DejaVuSans-35"/>
      <use x="159.033203" xlink:href="#DejaVuSans-31"/>
     </g>
    </g>
    <g id="line2d_45">
     <path d="M 65.52 92.523125 
L 83.12 92.523125 
" style="fill:none;stroke:#3f4788;stroke-linecap:round;stroke-width:1.2;"/>
    </g>
    <g id="line2d_46"/>
    <g id="text_35">
     <!-- 6.95 -->
     <g style="fill:#262626;" transform="translate(90.16 95.603125)scale(0.088 -0.088)">
      <use xlink:href="#DejaVuSans-36"/>
      <use x="63.623047" xlink:href="#DejaVuSans-2e"/>
      <use x="95.410156" xlink:href="#DejaVuSans-39"/>
      <use x="159.033203" xlink:href="#DejaVuSans-35"/>
     </g>
    </g>
    <g id="line2d_47">
     <path d="M 65.52 105.439875 
L 83.12 105.439875 
" style="fill:none;stroke:#365c8d;stroke-linecap:round;stroke-width:1.2;"/>
    </g>
    <g id="line2d_48"/>
    <g id="text_36">
     <!-- 7.38 -->
     <g style="fill:#262626;" transform="translate(90.16 108.519875)scale(0.088 -0.088)">
      <use xlink:href="#DejaVuSans-37"/>
      <use x="63.623047" xlink:href="#DejaVuSans-2e"/>
      <use x="95.410156" xlink:href="#DejaVuSans-33"/>
      <use x="159.033203" xlink:href="#DejaVuSans-38"/>
     </g>
    </g>
    <g id="line2d_49">
     <path d="M 65.52 118.356625 
L 83.12 118.356625 
" style="fill:none;stroke:#2e6e8e;stroke-linecap:round;stroke-width:1.2;"/>
    </g>
    <g id="line2d_50"/>
    <g id="text_37">
     <!-- 7.82 -->
     <g style="fill:#262626;" transform="translate(90.16 121.436625)scale(0.088 -0.088)">
      <use xlink:href="#DejaVuSans-37"/>
      <use x="63.623047" xlink:href="#DejaVuSans-2e"/>
      <use x="95.410156" xlink:href="#DejaVuSans-38"/>
      <use x="159.033203" xlink:href="#DejaVuSans-32"/>
     </g>
    </g>
    <g id="line2d_51">
     <path d="M 65.52 131.273375 
L 83.12 131.273375 
" style="fill:none;stroke:#277f8e;stroke-linecap:round;stroke-width:1.2;"/>
    </g>
    <g id="line2d_52"/>
    <g id="text_38">
     <!-- 8.25 -->
     <g style="fill:#262626;" transform="translate(90.16 134.353375)scale(0.088 -0.088)">
      <use xlink:href="#DejaVuSans-38"/>
      <use x="63.623047" xlink:href="#DejaVuSans-2e"/>
      <use x="95.410156" xlink:href="#DejaVuSans-32"/>
      <use x="159.033203" xlink:href="#DejaVuSans-35"/>
     </g>
    </g>
    <g id="line2d_53">
     <path d="M 65.52 144.190125 
L 83.12 144.190125 
" style="fill:none;stroke:#21918c;stroke-linecap:round;stroke-width:1.2;"/>
    </g>
    <g id="line2d_54"/>
    <g id="text_39">
     <!-- 8.69 -->
     <g style="fill:#262626;" transform="translate(90.16 147.270125)scale(0.088 -0.088)">
      <use xlink:href="#DejaVuSans-38"/>
      <use x="63.623047" xlink:href="#DejaVuSans-2e"/>
      <use x="95.410156" xlink:href="#DejaVuSans-36"/>
      <use x="159.033203" xlink:href="#DejaVuSans-39"/>
     </g>
    </g>
    <g id="line2d_55">
     <path d="M 65.52 157.106875 
L 83.12 157.106875 
" style="fill:none;stroke:#1fa187;stroke-linecap:round;stroke-width:1.2;"/>
    </g>
    <g id="line2d_56"/>
    <g id="text_40">
     <!-- 9.12 -->
     <g style="fill:#262626;" transform="translate(90.16 160.186875)scale(0.088 -0.088)">
      <use xlink:href="#DejaVuSans-39"/>
      <use x="63.623047" xlink:href="#DejaVuSans-2e"/>
      <use x="95.410156" xlink:href="#DejaVuSans-31"/>
      <use x="159.033203" xlink:href="#DejaVuSans-32"/>
     </g>
    </g>
    <g id="line2d_57">
     <path d="M 65.52 170.023625 
L 83.12 170.023625 
" style="fill:none;stroke:#2db27d;stroke-linecap:round;stroke-width:1.2;"/>
    </g>
    <g id="line2d_58"/>
    <g id="text_41">
     <!-- 9.55 -->
     <g style="fill:#262626;" transform="translate(90.16 173.103625)scale(0.088 -0.088)">
      <use xlink:href="#DejaVuSans-39"/>
      <use x="63.623047" xlink:href="#DejaVuSans-2e"/>
      <use x="95.410156" xlink:href="#DejaVuSans-35"/>
      <use x="159.033203" xlink:href="#DejaVuSans-35"/>
     </g>
    </g>
    <g id="line2d_59">
     <path d="M 65.52 182.940375 
L 83.12 182.940375 
" style="fill:none;stroke:#4ac16d;stroke-linecap:round;stroke-width:1.2;"/>
    </g>
    <g id="line2d_60"/>
    <g id="text_42">
     <!-- 9.99 -->
     <g style="fill:#262626;" transform="translate(90.16 186.020375)scale(0.088 -0.088)">
      <use xlink:href="#DejaVuSans-39"/>
      <use x="63.623047" xlink:href="#DejaVuSans-2e"/>
      <use x="95.410156" xlink:href="#DejaVuSans-39"/>
      <use x="159.033203" xlink:href="#DejaVuSans-39"/>
     </g>
    </g>
    <g id="line2d_61">
     <path d="M 65.52 195.857125 
L 83.12 195.857125 
" style="fill:none;stroke:#73d056;stroke-linecap:round;stroke-width:1.2;"/>
    </g>
    <g id="line2d_62"/>
    <g id="text_43">
     <!-- 10.42 -->
     <g style="fill:#262626;" transform="translate(90.16 198.937125)scale(0.088 -0.088)">
      <use xlink:href="#DejaVuSans-31"/>
      <use x="63.623047" xlink:href="#DejaVuSans-30"/>
      <use x="127.246094" xlink:href="#DejaVuSans-2e"/>
      <use x="159.033203" xlink:href="#DejaVuSans-34"/>
      <use x="222.65625" xlink:href="#DejaVuSans-32"/>
     </g>
    </g>
   </g>
  </g>
 </g>
 <defs>
  <clipPath id="p4be5754a8b">
   <rect height="266.112" width="357.12" x="57.6" y="41.472"/>
  </clipPath>
 </defs>
</svg>
