<?xml version="1.0" encoding="utf-8" standalone="no"?>
<!DOCTYPE svg PUBLIC "-//W3C//DTD SVG 1.1//EN"
  "http://www.w3.org/Graphics/SVG/1.1/DTD/svg11.dtd">
<!-- Created with matplotlib (http://matplotlib.org/) -->
<svg height="432pt" version="1.1" viewBox="0 0 432 432" width="432pt" xmlns="http://www.w3.org/2000/svg" xmlns:xlink="http://www.w3.org/1999/xlink">
 <defs>
  <style type="text/css">
*{stroke-linecap:butt;stroke-linejoin:round;}
  </style>
 </defs>
 <g id="figure_1">
  <g id="patch_1">
   <path d="M 0 432 
L 432 432 
L 432 0 
L 0 0 
z
" style="fill:#ffffff;"/>
  </g>
  <g id="axes_1">
   <g id="patch_2">
    <path d="M 49.418 390.332 
L 352.268333 390.332 
L 352.268333 81.023333 
L 49.418 81.023333 
z
" style="fill:#ffffff;"/>
   </g>
   <g id="matplotlib.axis_1">
    <g id="xtick_1">
     <g id="line2d_1">
      <defs>
       <path d="M 0 0 
L 0 4.8 
" id="m628ad582bc" style="stroke:#262626;"/>
      </defs>
      <g>
       <use style="fill:#262626;stroke:#262626;" x="84.069646" xlink:href="#m628ad582bc" y="390.332"/>
      </g>
     </g>
     <g id="text_1">
      <!-- −9.0 -->
      <defs>
       <path d="M 10.59375 35.5 
L 73.1875 35.5 
L 73.1875 27.203125 
L 10.59375 27.203125 
z
" id="DejaVuSans-2212"/>
       <path d="M 10.984375 1.515625 
L 10.984375 10.5 
Q 14.703125 8.734375 18.5 7.8125 
Q 22.3125 6.890625 25.984375 6.890625 
Q 35.75 6.890625 40.890625 13.453125 
Q 46.046875 20.015625 46.78125 33.40625 
Q 43.953125 29.203125 39.59375 26.953125 
Q 35.25 24.703125 29.984375 24.703125 
Q 19.046875 24.703125 12.671875 31.3125 
Q 6.296875 37.9375 6.296875 49.421875 
Q 6.296875 60.640625 12.9375 67.421875 
Q 19.578125 74.21875 30.609375 74.21875 
Q 43.265625 74.21875 49.921875 64.515625 
Q 56.59375 54.828125 56.59375 36.375 
Q 56.59375 19.140625 48.40625 8.859375 
Q 40.234375 -1.421875 26.421875 -1.421875 
Q 22.703125 -1.421875 18.890625 -0.6875 
Q 15.09375 0.046875 10.984375 1.515625 
z
M 30.609375 32.421875 
Q 37.25 32.421875 41.125 36.953125 
Q 45.015625 41.5 45.015625 49.421875 
Q 45.015625 57.28125 41.125 61.84375 
Q 37.25 66.40625 30.609375 66.40625 
Q 23.96875 66.40625 20.09375 61.84375 
Q 16.21875 57.28125 16.21875 49.421875 
Q 16.21875 41.5 20.09375 36.953125 
Q 23.96875 32.421875 30.609375 32.421875 
z
" id="DejaVuSans-39"/>
       <path d="M 10.6875 12.40625 
L 21 12.40625 
L 21 0 
L 10.6875 0 
z
" id="DejaVuSans-2e"/>
       <path d="M 31.78125 66.40625 
Q 24.171875 66.40625 20.328125 58.90625 
Q 16.5 51.421875 16.5 36.375 
Q 16.5 21.390625 20.328125 13.890625 
Q 24.171875 6.390625 31.78125 6.390625 
Q 39.453125 6.390625 43.28125 13.890625 
Q 47.125 21.390625 47.125 36.375 
Q 47.125 51.421875 43.28125 58.90625 
Q 39.453125 66.40625 31.78125 66.40625 
z
M 31.78125 74.21875 
Q 44.046875 74.21875 50.515625 64.515625 
Q 56.984375 54.828125 56.984375 36.375 
Q 56.984375 17.96875 50.515625 8.265625 
Q 44.046875 -1.421875 31.78125 -1.421875 
Q 19.53125 -1.421875 13.0625 8.265625 
Q 6.59375 17.96875 6.59375 36.375 
Q 6.59375 54.828125 13.0625 64.515625 
Q 19.53125 74.21875 31.78125 74.21875 
z
" id="DejaVuSans-30"/>
      </defs>
      <g style="fill:#262626;" transform="translate(73.385209 405.318625)scale(0.088 -0.088)">
       <use xlink:href="#DejaVuSans-2212"/>
       <use x="83.789062" xlink:href="#DejaVuSans-39"/>
       <use x="147.412109" xlink:href="#DejaVuSans-2e"/>
       <use x="179.199219" xlink:href="#DejaVuSans-30"/>
      </g>
     </g>
    </g>
    <g id="xtick_2">
     <g id="line2d_2">
      <g>
       <use style="fill:#262626;stroke:#262626;" x="120.061" xlink:href="#m628ad582bc" y="390.332"/>
      </g>
     </g>
     <g id="text_2">
      <!-- −8.5 -->
      <defs>
       <path d="M 31.78125 34.625 
Q 24.75 34.625 20.71875 30.859375 
Q 16.703125 27.09375 16.703125 20.515625 
Q 16.703125 13.921875 20.71875 10.15625 
Q 24.75 6.390625 31.78125 6.390625 
Q 38.8125 6.390625 42.859375 10.171875 
Q 46.921875 13.96875 46.921875 20.515625 
Q 46.921875 27.09375 42.890625 30.859375 
Q 38.875 34.625 31.78125 34.625 
z
M 21.921875 38.8125 
Q 15.578125 40.375 12.03125 44.71875 
Q 8.5 49.078125 8.5 55.328125 
Q 8.5 64.0625 14.71875 69.140625 
Q 20.953125 74.21875 31.78125 74.21875 
Q 42.671875 74.21875 48.875 69.140625 
Q 55.078125 64.0625 55.078125 55.328125 
Q 55.078125 49.078125 51.53125 44.71875 
Q 48 40.375 41.703125 38.8125 
Q 48.828125 37.15625 52.796875 32.3125 
Q 56.78125 27.484375 56.78125 20.515625 
Q 56.78125 9.90625 50.3125 4.234375 
Q 43.84375 -1.421875 31.78125 -1.421875 
Q 19.734375 -1.421875 13.25 4.234375 
Q 6.78125 9.90625 6.78125 20.515625 
Q 6.78125 27.484375 10.78125 32.3125 
Q 14.796875 37.15625 21.921875 38.8125 
z
M 18.3125 54.390625 
Q 18.3125 48.734375 21.84375 45.5625 
Q 25.390625 42.390625 31.78125 42.390625 
Q 38.140625 42.390625 41.71875 45.5625 
Q 45.3125 48.734375 45.3125 54.390625 
Q 45.3125 60.0625 41.71875 63.234375 
Q 38.140625 66.40625 31.78125 66.40625 
Q 25.390625 66.40625 21.84375 63.234375 
Q 18.3125 60.0625 18.3125 54.390625 
z
" id="DejaVuSans-38"/>
       <path d="M 10.796875 72.90625 
L 49.515625 72.90625 
L 49.515625 64.59375 
L 19.828125 64.59375 
L 19.828125 46.734375 
Q 21.96875 47.46875 24.109375 47.828125 
Q 26.265625 48.1875 28.421875 48.1875 
Q 40.625 48.1875 47.75 41.5 
Q 54.890625 34.8125 54.890625 23.390625 
Q 54.890625 11.625 47.5625 5.09375 
Q 40.234375 -1.421875 26.90625 -1.421875 
Q 22.3125 -1.421875 17.546875 -0.640625 
Q 12.796875 0.140625 7.71875 1.703125 
L 7.71875 11.625 
Q 12.109375 9.234375 16.796875 8.0625 
Q 21.484375 6.890625 26.703125 6.890625 
Q 35.15625 6.890625 40.078125 11.328125 
Q 45.015625 15.765625 45.015625 23.390625 
Q 45.015625 31 40.078125 35.4375 
Q 35.15625 39.890625 26.703125 39.890625 
Q 22.75 39.890625 18.8125 39.015625 
Q 14.890625 38.140625 10.796875 36.28125 
z
" id="DejaVuSans-35"/>
      </defs>
      <g style="fill:#262626;" transform="translate(109.376562 405.318625)scale(0.088 -0.088)">
       <use xlink:href="#DejaVuSans-2212"/>
       <use x="83.789062" xlink:href="#DejaVuSans-38"/>
       <use x="147.412109" xlink:href="#DejaVuSans-2e"/>
       <use x="179.199219" xlink:href="#DejaVuSans-35"/>
      </g>
     </g>
    </g>
    <g id="xtick_3">
     <g id="line2d_3">
      <g>
       <use style="fill:#262626;stroke:#262626;" x="156.052354" xlink:href="#m628ad582bc" y="390.332"/>
      </g>
     </g>
     <g id="text_3">
      <!-- −8.0 -->
      <g style="fill:#262626;" transform="translate(145.367916 405.318625)scale(0.088 -0.088)">
       <use xlink:href="#DejaVuSans-2212"/>
       <use x="83.789062" xlink:href="#DejaVuSans-38"/>
       <use x="147.412109" xlink:href="#DejaVuSans-2e"/>
       <use x="179.199219" xlink:href="#DejaVuSans-30"/>
      </g>
     </g>
    </g>
    <g id="xtick_4">
     <g id="line2d_4">
      <g>
       <use style="fill:#262626;stroke:#262626;" x="192.043708" xlink:href="#m628ad582bc" y="390.332"/>
      </g>
     </g>
     <g id="text_4">
      <!-- −7.5 -->
      <defs>
       <path d="M 8.203125 72.90625 
L 55.078125 72.90625 
L 55.078125 68.703125 
L 28.609375 0 
L 18.3125 0 
L 43.21875 64.59375 
L 8.203125 64.59375 
z
" id="DejaVuSans-37"/>
      </defs>
      <g style="fill:#262626;" transform="translate(181.35927 405.318625)scale(0.088 -0.088)">
       <use xlink:href="#DejaVuSans-2212"/>
       <use x="83.789062" xlink:href="#DejaVuSans-37"/>
       <use x="147.412109" xlink:href="#DejaVuSans-2e"/>
       <use x="179.199219" xlink:href="#DejaVuSans-35"/>
      </g>
     </g>
    </g>
    <g id="xtick_5">
     <g id="line2d_5">
      <g>
       <use style="fill:#262626;stroke:#262626;" x="228.035062" xlink:href="#m628ad582bc" y="390.332"/>
      </g>
     </g>
     <g id="text_5">
      <!-- −7.0 -->
      <g style="fill:#262626;" transform="translate(217.350624 405.318625)scale(0.088 -0.088)">
       <use xlink:href="#DejaVuSans-2212"/>
       <use x="83.789062" xlink:href="#DejaVuSans-37"/>
       <use x="147.412109" xlink:href="#DejaVuSans-2e"/>
       <use x="179.199219" xlink:href="#DejaVuSans-30"/>
      </g>
     </g>
    </g>
    <g id="xtick_6">
     <g id="line2d_6">
      <g>
       <use style="fill:#262626;stroke:#262626;" x="264.026415" xlink:href="#m628ad582bc" y="390.332"/>
      </g>
     </g>
     <g id="text_6">
      <!-- −6.5 -->
      <defs>
       <path d="M 33.015625 40.375 
Q 26.375 40.375 22.484375 35.828125 
Q 18.609375 31.296875 18.609375 23.390625 
Q 18.609375 15.53125 22.484375 10.953125 
Q 26.375 6.390625 33.015625 6.390625 
Q 39.65625 6.390625 43.53125 10.953125 
Q 47.40625 15.53125 47.40625 23.390625 
Q 47.40625 31.296875 43.53125 35.828125 
Q 39.65625 40.375 33.015625 40.375 
z
M 52.59375 71.296875 
L 52.59375 62.3125 
Q 48.875 64.0625 45.09375 64.984375 
Q 41.3125 65.921875 37.59375 65.921875 
Q 27.828125 65.921875 22.671875 59.328125 
Q 17.53125 52.734375 16.796875 39.40625 
Q 19.671875 43.65625 24.015625 45.921875 
Q 28.375 48.1875 33.59375 48.1875 
Q 44.578125 48.1875 50.953125 41.515625 
Q 57.328125 34.859375 57.328125 23.390625 
Q 57.328125 12.15625 50.6875 5.359375 
Q 44.046875 -1.421875 33.015625 -1.421875 
Q 20.359375 -1.421875 13.671875 8.265625 
Q 6.984375 17.96875 6.984375 36.375 
Q 6.984375 53.65625 15.1875 63.9375 
Q 23.390625 74.21875 37.203125 74.21875 
Q 40.921875 74.21875 44.703125 73.484375 
Q 48.484375 72.75 52.59375 71.296875 
z
" id="DejaVuSans-36"/>
      </defs>
      <g style="fill:#262626;" transform="translate(253.341978 405.318625)scale(0.088 -0.088)">
       <use xlink:href="#DejaVuSans-2212"/>
       <use x="83.789062" xlink:href="#DejaVuSans-36"/>
       <use x="147.412109" xlink:href="#DejaVuSans-2e"/>
       <use x="179.199219" xlink:href="#DejaVuSans-35"/>
      </g>
     </g>
    </g>
    <g id="xtick_7">
     <g id="line2d_7">
      <g>
       <use style="fill:#262626;stroke:#262626;" x="300.017769" xlink:href="#m628ad582bc" y="390.332"/>
      </g>
     </g>
     <g id="text_7">
      <!-- −6.0 -->
      <g style="fill:#262626;" transform="translate(289.333332 405.318625)scale(0.088 -0.088)">
       <use xlink:href="#DejaVuSans-2212"/>
       <use x="83.789062" xlink:href="#DejaVuSans-36"/>
       <use x="147.412109" xlink:href="#DejaVuSans-2e"/>
       <use x="179.199219" xlink:href="#DejaVuSans-30"/>
      </g>
     </g>
    </g>
    <g id="xtick_8">
     <g id="line2d_8">
      <g>
       <use style="fill:#262626;stroke:#262626;" x="336.009123" xlink:href="#m628ad582bc" y="390.332"/>
      </g>
     </g>
     <g id="text_8">
      <!-- −5.5 -->
      <g style="fill:#262626;" transform="translate(325.324686 405.318625)scale(0.088 -0.088)">
       <use xlink:href="#DejaVuSans-2212"/>
       <use x="83.789062" xlink:href="#DejaVuSans-35"/>
       <use x="147.412109" xlink:href="#DejaVuSans-2e"/>
       <use x="179.199219" xlink:href="#DejaVuSans-35"/>
      </g>
     </g>
    </g>
    <g id="text_9">
     <!-- log(p) -->
     <defs>
      <path d="M 9.421875 75.984375 
L 18.40625 75.984375 
L 18.40625 0 
L 9.421875 0 
z
" id="DejaVuSans-6c"/>
      <path d="M 30.609375 48.390625 
Q 23.390625 48.390625 19.1875 42.75 
Q 14.984375 37.109375 14.984375 27.296875 
Q 14.984375 17.484375 19.15625 11.84375 
Q 23.34375 6.203125 30.609375 6.203125 
Q 37.796875 6.203125 41.984375 11.859375 
Q 46.1875 17.53125 46.1875 27.296875 
Q 46.1875 37.015625 41.984375 42.703125 
Q 37.796875 48.390625 30.609375 48.390625 
z
M 30.609375 56 
Q 42.328125 56 49.015625 48.375 
Q 55.71875 40.765625 55.71875 27.296875 
Q 55.71875 13.875 49.015625 6.21875 
Q 42.328125 -1.421875 30.609375 -1.421875 
Q 18.84375 -1.421875 12.171875 6.21875 
Q 5.515625 13.875 5.515625 27.296875 
Q 5.515625 40.765625 12.171875 48.375 
Q 18.84375 56 30.609375 56 
z
" id="DejaVuSans-6f"/>
      <path d="M 45.40625 27.984375 
Q 45.40625 37.75 41.375 43.109375 
Q 37.359375 48.484375 30.078125 48.484375 
Q 22.859375 48.484375 18.828125 43.109375 
Q 14.796875 37.75 14.796875 27.984375 
Q 14.796875 18.265625 18.828125 12.890625 
Q 22.859375 7.515625 30.078125 7.515625 
Q 37.359375 7.515625 41.375 12.890625 
Q 45.40625 18.265625 45.40625 27.984375 
z
M 54.390625 6.78125 
Q 54.390625 -7.171875 48.1875 -13.984375 
Q 42 -20.796875 29.203125 -20.796875 
Q 24.46875 -20.796875 20.265625 -20.09375 
Q 16.0625 -19.390625 12.109375 -17.921875 
L 12.109375 -9.1875 
Q 16.0625 -11.328125 19.921875 -12.34375 
Q 23.78125 -13.375 27.78125 -13.375 
Q 36.625 -13.375 41.015625 -8.765625 
Q 45.40625 -4.15625 45.40625 5.171875 
L 45.40625 9.625 
Q 42.625 4.78125 38.28125 2.390625 
Q 33.9375 0 27.875 0 
Q 17.828125 0 11.671875 7.65625 
Q 5.515625 15.328125 5.515625 27.984375 
Q 5.515625 40.671875 11.671875 48.328125 
Q 17.828125 56 27.875 56 
Q 33.9375 56 38.28125 53.609375 
Q 42.625 51.21875 45.40625 46.390625 
L 45.40625 54.6875 
L 54.390625 54.6875 
z
" id="DejaVuSans-67"/>
      <path d="M 31 75.875 
Q 24.46875 64.65625 21.28125 53.65625 
Q 18.109375 42.671875 18.109375 31.390625 
Q 18.109375 20.125 21.3125 9.0625 
Q 24.515625 -2 31 -13.1875 
L 23.1875 -13.1875 
Q 15.875 -1.703125 12.234375 9.375 
Q 8.59375 20.453125 8.59375 31.390625 
Q 8.59375 42.28125 12.203125 53.3125 
Q 15.828125 64.359375 23.1875 75.875 
z
" id="DejaVuSans-28"/>
      <path d="M 18.109375 8.203125 
L 18.109375 -20.796875 
L 9.078125 -20.796875 
L 9.078125 54.6875 
L 18.109375 54.6875 
L 18.109375 46.390625 
Q 20.953125 51.265625 25.265625 53.625 
Q 29.59375 56 35.59375 56 
Q 45.5625 56 51.78125 48.09375 
Q 58.015625 40.1875 58.015625 27.296875 
Q 58.015625 14.40625 51.78125 6.484375 
Q 45.5625 -1.421875 35.59375 -1.421875 
Q 29.59375 -1.421875 25.265625 0.953125 
Q 20.953125 3.328125 18.109375 8.203125 
z
M 48.6875 27.296875 
Q 48.6875 37.203125 44.609375 42.84375 
Q 40.53125 48.484375 33.40625 48.484375 
Q 26.265625 48.484375 22.1875 42.84375 
Q 18.109375 37.203125 18.109375 27.296875 
Q 18.109375 17.390625 22.1875 11.75 
Q 26.265625 6.109375 33.40625 6.109375 
Q 40.53125 6.109375 44.609375 11.75 
Q 48.6875 17.390625 48.6875 27.296875 
z
" id="DejaVuSans-70"/>
      <path d="M 8.015625 75.875 
L 15.828125 75.875 
Q 23.140625 64.359375 26.78125 53.3125 
Q 30.421875 42.28125 30.421875 31.390625 
Q 30.421875 20.453125 26.78125 9.375 
Q 23.140625 -1.703125 15.828125 -13.1875 
L 8.015625 -13.1875 
Q 14.5 -2 17.703125 9.0625 
Q 20.90625 20.125 20.90625 31.390625 
Q 20.90625 42.671875 17.703125 53.65625 
Q 14.5 64.65625 8.015625 75.875 
z
" id="DejaVuSans-29"/>
     </defs>
     <g style="fill:#262626;" transform="translate(186.732667 418.44325)scale(0.096 -0.096)">
      <use xlink:href="#DejaVuSans-6c"/>
      <use x="27.783203" xlink:href="#DejaVuSans-6f"/>
      <use x="88.964844" xlink:href="#DejaVuSans-67"/>
      <use x="152.441406" xlink:href="#DejaVuSans-28"/>
      <use x="191.455078" xlink:href="#DejaVuSans-70"/>
      <use x="254.931641" xlink:href="#DejaVuSans-29"/>
     </g>
    </g>
   </g>
   <g id="matplotlib.axis_2">
    <g id="ytick_1">
     <g id="line2d_9">
      <defs>
       <path d="M 0 0 
L -4.8 0 
" id="m4be07806a1" style="stroke:#262626;"/>
      </defs>
      <g>
       <use style="fill:#262626;stroke:#262626;" x="49.418" xlink:href="#m4be07806a1" y="390.332"/>
      </g>
     </g>
     <g id="text_10">
      <!-- 0 -->
      <g style="fill:#262626;" transform="translate(35.519 393.675313)scale(0.088 -0.088)">
       <use xlink:href="#DejaVuSans-30"/>
      </g>
     </g>
    </g>
    <g id="ytick_2">
     <g id="line2d_10">
      <g>
       <use style="fill:#262626;stroke:#262626;" x="49.418" xlink:href="#m4be07806a1" y="334.094061"/>
      </g>
     </g>
     <g id="text_11">
      <!-- 20 -->
      <defs>
       <path d="M 19.1875 8.296875 
L 53.609375 8.296875 
L 53.609375 0 
L 7.328125 0 
L 7.328125 8.296875 
Q 12.9375 14.109375 22.625 23.890625 
Q 32.328125 33.6875 34.8125 36.53125 
Q 39.546875 41.84375 41.421875 45.53125 
Q 43.3125 49.21875 43.3125 52.78125 
Q 43.3125 58.59375 39.234375 62.25 
Q 35.15625 65.921875 28.609375 65.921875 
Q 23.96875 65.921875 18.8125 64.3125 
Q 13.671875 62.703125 7.8125 59.421875 
L 7.8125 69.390625 
Q 13.765625 71.78125 18.9375 73 
Q 24.125 74.21875 28.421875 74.21875 
Q 39.75 74.21875 46.484375 68.546875 
Q 53.21875 62.890625 53.21875 53.421875 
Q 53.21875 48.921875 51.53125 44.890625 
Q 49.859375 40.875 45.40625 35.40625 
Q 44.1875 33.984375 37.640625 27.21875 
Q 31.109375 20.453125 19.1875 8.296875 
z
" id="DejaVuSans-32"/>
      </defs>
      <g style="fill:#262626;" transform="translate(29.92 337.437373)scale(0.088 -0.088)">
       <use xlink:href="#DejaVuSans-32"/>
       <use x="63.623047" xlink:href="#DejaVuSans-30"/>
      </g>
     </g>
    </g>
    <g id="ytick_3">
     <g id="line2d_11">
      <g>
       <use style="fill:#262626;stroke:#262626;" x="49.418" xlink:href="#m4be07806a1" y="277.856121"/>
      </g>
     </g>
     <g id="text_12">
      <!-- 40 -->
      <defs>
       <path d="M 37.796875 64.3125 
L 12.890625 25.390625 
L 37.796875 25.390625 
z
M 35.203125 72.90625 
L 47.609375 72.90625 
L 47.609375 25.390625 
L 58.015625 25.390625 
L 58.015625 17.1875 
L 47.609375 17.1875 
L 47.609375 0 
L 37.796875 0 
L 37.796875 17.1875 
L 4.890625 17.1875 
L 4.890625 26.703125 
z
" id="DejaVuSans-34"/>
      </defs>
      <g style="fill:#262626;" transform="translate(29.92 281.199434)scale(0.088 -0.088)">
       <use xlink:href="#DejaVuSans-34"/>
       <use x="63.623047" xlink:href="#DejaVuSans-30"/>
      </g>
     </g>
    </g>
    <g id="ytick_4">
     <g id="line2d_12">
      <g>
       <use style="fill:#262626;stroke:#262626;" x="49.418" xlink:href="#m4be07806a1" y="221.618182"/>
      </g>
     </g>
     <g id="text_13">
      <!-- 60 -->
      <g style="fill:#262626;" transform="translate(29.92 224.961494)scale(0.088 -0.088)">
       <use xlink:href="#DejaVuSans-36"/>
       <use x="63.623047" xlink:href="#DejaVuSans-30"/>
      </g>
     </g>
    </g>
    <g id="ytick_5">
     <g id="line2d_13">
      <g>
       <use style="fill:#262626;stroke:#262626;" x="49.418" xlink:href="#m4be07806a1" y="165.380242"/>
      </g>
     </g>
     <g id="text_14">
      <!-- 80 -->
      <g style="fill:#262626;" transform="translate(29.92 168.723555)scale(0.088 -0.088)">
       <use xlink:href="#DejaVuSans-38"/>
       <use x="63.623047" xlink:href="#DejaVuSans-30"/>
      </g>
     </g>
    </g>
    <g id="ytick_6">
     <g id="line2d_14">
      <g>
       <use style="fill:#262626;stroke:#262626;" x="49.418" xlink:href="#m4be07806a1" y="109.142303"/>
      </g>
     </g>
     <g id="text_15">
      <!-- 100 -->
      <defs>
       <path d="M 12.40625 8.296875 
L 28.515625 8.296875 
L 28.515625 63.921875 
L 10.984375 60.40625 
L 10.984375 69.390625 
L 28.421875 72.90625 
L 38.28125 72.90625 
L 38.28125 8.296875 
L 54.390625 8.296875 
L 54.390625 0 
L 12.40625 0 
z
" id="DejaVuSans-31"/>
      </defs>
      <g style="fill:#262626;" transform="translate(24.321 112.485616)scale(0.088 -0.088)">
       <use xlink:href="#DejaVuSans-31"/>
       <use x="63.623047" xlink:href="#DejaVuSans-30"/>
       <use x="127.246094" xlink:href="#DejaVuSans-30"/>
      </g>
     </g>
    </g>
    <g id="text_16">
     <!-- Time to cancer -->
     <defs>
      <path d="M -0.296875 72.90625 
L 61.375 72.90625 
L 61.375 64.59375 
L 35.5 64.59375 
L 35.5 0 
L 25.59375 0 
L 25.59375 64.59375 
L -0.296875 64.59375 
z
" id="DejaVuSans-54"/>
      <path d="M 9.421875 54.6875 
L 18.40625 54.6875 
L 18.40625 0 
L 9.421875 0 
z
M 9.421875 75.984375 
L 18.40625 75.984375 
L 18.40625 64.59375 
L 9.421875 64.59375 
z
" id="DejaVuSans-69"/>
      <path d="M 52 44.1875 
Q 55.375 50.25 60.0625 53.125 
Q 64.75 56 71.09375 56 
Q 79.640625 56 84.28125 50.015625 
Q 88.921875 44.046875 88.921875 33.015625 
L 88.921875 0 
L 79.890625 0 
L 79.890625 32.71875 
Q 79.890625 40.578125 77.09375 44.375 
Q 74.3125 48.1875 68.609375 48.1875 
Q 61.625 48.1875 57.5625 43.546875 
Q 53.515625 38.921875 53.515625 30.90625 
L 53.515625 0 
L 44.484375 0 
L 44.484375 32.71875 
Q 44.484375 40.625 41.703125 44.40625 
Q 38.921875 48.1875 33.109375 48.1875 
Q 26.21875 48.1875 22.15625 43.53125 
Q 18.109375 38.875 18.109375 30.90625 
L 18.109375 0 
L 9.078125 0 
L 9.078125 54.6875 
L 18.109375 54.6875 
L 18.109375 46.1875 
Q 21.1875 51.21875 25.484375 53.609375 
Q 29.78125 56 35.6875 56 
Q 41.65625 56 45.828125 52.96875 
Q 50 49.953125 52 44.1875 
z
" id="DejaVuSans-6d"/>
      <path d="M 56.203125 29.59375 
L 56.203125 25.203125 
L 14.890625 25.203125 
Q 15.484375 15.921875 20.484375 11.0625 
Q 25.484375 6.203125 34.421875 6.203125 
Q 39.59375 6.203125 44.453125 7.46875 
Q 49.3125 8.734375 54.109375 11.28125 
L 54.109375 2.78125 
Q 49.265625 0.734375 44.1875 -0.34375 
Q 39.109375 -1.421875 33.890625 -1.421875 
Q 20.796875 -1.421875 13.15625 6.1875 
Q 5.515625 13.8125 5.515625 26.8125 
Q 5.515625 40.234375 12.765625 48.109375 
Q 20.015625 56 32.328125 56 
Q 43.359375 56 49.78125 48.890625 
Q 56.203125 41.796875 56.203125 29.59375 
z
M 47.21875 32.234375 
Q 47.125 39.59375 43.09375 43.984375 
Q 39.0625 48.390625 32.421875 48.390625 
Q 24.90625 48.390625 20.390625 44.140625 
Q 15.875 39.890625 15.1875 32.171875 
z
" id="DejaVuSans-65"/>
      <path id="DejaVuSans-20"/>
      <path d="M 18.3125 70.21875 
L 18.3125 54.6875 
L 36.8125 54.6875 
L 36.8125 47.703125 
L 18.3125 47.703125 
L 18.3125 18.015625 
Q 18.3125 11.328125 20.140625 9.421875 
Q 21.96875 7.515625 27.59375 7.515625 
L 36.8125 7.515625 
L 36.8125 0 
L 27.59375 0 
Q 17.1875 0 13.234375 3.875 
Q 9.28125 7.765625 9.28125 18.015625 
L 9.28125 47.703125 
L 2.6875 47.703125 
L 2.6875 54.6875 
L 9.28125 54.6875 
L 9.28125 70.21875 
z
" id="DejaVuSans-74"/>
      <path d="M 48.78125 52.59375 
L 48.78125 44.1875 
Q 44.96875 46.296875 41.140625 47.34375 
Q 37.3125 48.390625 33.40625 48.390625 
Q 24.65625 48.390625 19.8125 42.84375 
Q 14.984375 37.3125 14.984375 27.296875 
Q 14.984375 17.28125 19.8125 11.734375 
Q 24.65625 6.203125 33.40625 6.203125 
Q 37.3125 6.203125 41.140625 7.25 
Q 44.96875 8.296875 48.78125 10.40625 
L 48.78125 2.09375 
Q 45.015625 0.34375 40.984375 -0.53125 
Q 36.96875 -1.421875 32.421875 -1.421875 
Q 20.0625 -1.421875 12.78125 6.34375 
Q 5.515625 14.109375 5.515625 27.296875 
Q 5.515625 40.671875 12.859375 48.328125 
Q 20.21875 56 33.015625 56 
Q 37.15625 56 41.109375 55.140625 
Q 45.0625 54.296875 48.78125 52.59375 
z
" id="DejaVuSans-63"/>
      <path d="M 34.28125 27.484375 
Q 23.390625 27.484375 19.1875 25 
Q 14.984375 22.515625 14.984375 16.5 
Q 14.984375 11.71875 18.140625 8.90625 
Q 21.296875 6.109375 26.703125 6.109375 
Q 34.1875 6.109375 38.703125 11.40625 
Q 43.21875 16.703125 43.21875 25.484375 
L 43.21875 27.484375 
z
M 52.203125 31.203125 
L 52.203125 0 
L 43.21875 0 
L 43.21875 8.296875 
Q 40.140625 3.328125 35.546875 0.953125 
Q 30.953125 -1.421875 24.3125 -1.421875 
Q 15.921875 -1.421875 10.953125 3.296875 
Q 6 8.015625 6 15.921875 
Q 6 25.140625 12.171875 29.828125 
Q 18.359375 34.515625 30.609375 34.515625 
L 43.21875 34.515625 
L 43.21875 35.40625 
Q 43.21875 41.609375 39.140625 45 
Q 35.0625 48.390625 27.6875 48.390625 
Q 23 48.390625 18.546875 47.265625 
Q 14.109375 46.140625 10.015625 43.890625 
L 10.015625 52.203125 
Q 14.9375 54.109375 19.578125 55.046875 
Q 24.21875 56 28.609375 56 
Q 40.484375 56 46.34375 49.84375 
Q 52.203125 43.703125 52.203125 31.203125 
z
" id="DejaVuSans-61"/>
      <path d="M 54.890625 33.015625 
L 54.890625 0 
L 45.90625 0 
L 45.90625 32.71875 
Q 45.90625 40.484375 42.875 44.328125 
Q 39.84375 48.1875 33.796875 48.1875 
Q 26.515625 48.1875 22.3125 43.546875 
Q 18.109375 38.921875 18.109375 30.90625 
L 18.109375 0 
L 9.078125 0 
L 9.078125 54.6875 
L 18.109375 54.6875 
L 18.109375 46.1875 
Q 21.34375 51.125 25.703125 53.5625 
Q 30.078125 56 35.796875 56 
Q 45.21875 56 50.046875 50.171875 
Q 54.890625 44.34375 54.890625 33.015625 
z
" id="DejaVuSans-6e"/>
      <path d="M 41.109375 46.296875 
Q 39.59375 47.171875 37.8125 47.578125 
Q 36.03125 48 33.890625 48 
Q 26.265625 48 22.1875 43.046875 
Q 18.109375 38.09375 18.109375 28.8125 
L 18.109375 0 
L 9.078125 0 
L 9.078125 54.6875 
L 18.109375 54.6875 
L 18.109375 46.1875 
Q 20.953125 51.171875 25.484375 53.578125 
Q 30.03125 56 36.53125 56 
Q 37.453125 56 38.578125 55.875 
Q 39.703125 55.765625 41.0625 55.515625 
z
" id="DejaVuSans-72"/>
     </defs>
     <g style="fill:#262626;" transform="translate(18.3245 271.628167)rotate(-90)scale(0.096 -0.096)">
      <use xlink:href="#DejaVuSans-54"/>
      <use x="61.037109" xlink:href="#DejaVuSans-69"/>
      <use x="88.820312" xlink:href="#DejaVuSans-6d"/>
      <use x="186.232422" xlink:href="#DejaVuSans-65"/>
      <use x="247.755859" xlink:href="#DejaVuSans-20"/>
      <use x="279.542969" xlink:href="#DejaVuSans-74"/>
      <use x="318.751953" xlink:href="#DejaVuSans-6f"/>
      <use x="379.933594" xlink:href="#DejaVuSans-20"/>
      <use x="411.720703" xlink:href="#DejaVuSans-63"/>
      <use x="466.701172" xlink:href="#DejaVuSans-61"/>
      <use x="527.980469" xlink:href="#DejaVuSans-6e"/>
      <use x="591.359375" xlink:href="#DejaVuSans-63"/>
      <use x="646.339844" xlink:href="#DejaVuSans-65"/>
      <use x="707.863281" xlink:href="#DejaVuSans-72"/>
     </g>
    </g>
   </g>
   <g id="PathCollection_1">
    <defs>
     <path d="M 0 2.4 
C 0.636487 2.4 1.246992 2.147121 1.697056 1.697056 
C 2.147121 1.246992 2.4 0.636487 2.4 0 
C 2.4 -0.636487 2.147121 -1.246992 1.697056 -1.697056 
C 1.246992 -2.147121 0.636487 -2.4 0 -2.4 
C -0.636487 -2.4 -1.246992 -2.147121 -1.697056 -1.697056 
C -2.147121 -1.246992 -2.4 -0.636487 -2.4 0 
C -2.4 0.636487 -2.147121 1.246992 -1.697056 1.697056 
C -1.246992 2.147121 -0.636487 2.4 0 2.4 
z
" id="m4223210095" style="stroke:#471365;stroke-opacity:0.8;"/>
    </defs>
    <g clip-path="url(#p97338bdd6a)">
     <use style="fill:#471365;fill-opacity:0.8;stroke:#471365;stroke-opacity:0.8;" x="291.156375" xlink:href="#m4223210095" y="289.504308"/>
     <use style="fill:#471365;fill-opacity:0.8;stroke:#471365;stroke-opacity:0.8;" x="245.687179" xlink:href="#m4223210095" y="313.832995"/>
     <use style="fill:#471365;fill-opacity:0.8;stroke:#471365;stroke-opacity:0.8;" x="245.849455" xlink:href="#m4223210095" y="212.204105"/>
     <use style="fill:#471365;fill-opacity:0.8;stroke:#471365;stroke-opacity:0.8;" x="273.568192" xlink:href="#m4223210095" y="278.634208"/>
     <use style="fill:#471365;fill-opacity:0.8;stroke:#471365;stroke-opacity:0.8;" x="218.059548" xlink:href="#m4223210095" y="232.272575"/>
     <use style="fill:#471365;fill-opacity:0.8;stroke:#471365;stroke-opacity:0.8;" x="256.563641" xlink:href="#m4223210095" y="263.550114"/>
     <use style="fill:#471365;fill-opacity:0.8;stroke:#471365;stroke-opacity:0.8;" x="285.796396" xlink:href="#m4223210095" y="125.828793"/>
     <use style="fill:#471365;fill-opacity:0.8;stroke:#471365;stroke-opacity:0.8;" x="265.537643" xlink:href="#m4223210095" y="253.042093"/>
     <use style="fill:#471365;fill-opacity:0.8;stroke:#471365;stroke-opacity:0.8;" x="254.344936" xlink:href="#m4223210095" y="242.472442"/>
     <use style="fill:#471365;fill-opacity:0.8;stroke:#471365;stroke-opacity:0.8;" x="281.235478" xlink:href="#m4223210095" y="276.030314"/>
     <use style="fill:#471365;fill-opacity:0.8;stroke:#471365;stroke-opacity:0.8;" x="270.871539" xlink:href="#m4223210095" y="268.465156"/>
     <use style="fill:#471365;fill-opacity:0.8;stroke:#471365;stroke-opacity:0.8;" x="285.739961" xlink:href="#m4223210095" y="302.477553"/>
     <use style="fill:#471365;fill-opacity:0.8;stroke:#471365;stroke-opacity:0.8;" x="290.298559" xlink:href="#m4223210095" y="186.588879"/>
     <use style="fill:#471365;fill-opacity:0.8;stroke:#471365;stroke-opacity:0.8;" x="293.109733" xlink:href="#m4223210095" y="336.220317"/>
     <use style="fill:#471365;fill-opacity:0.8;stroke:#471365;stroke-opacity:0.8;" x="284.359576" xlink:href="#m4223210095" y="156.998478"/>
     <use style="fill:#471365;fill-opacity:0.8;stroke:#471365;stroke-opacity:0.8;" x="281.82922" xlink:href="#m4223210095" y="297.862961"/>
     <use style="fill:#471365;fill-opacity:0.8;stroke:#471365;stroke-opacity:0.8;" x="280.076272" xlink:href="#m4223210095" y="213.752574"/>
     <use style="fill:#471365;fill-opacity:0.8;stroke:#471365;stroke-opacity:0.8;" x="291.342846" xlink:href="#m4223210095" y="267.324989"/>
     <use style="fill:#471365;fill-opacity:0.8;stroke:#471365;stroke-opacity:0.8;" x="185.26646" xlink:href="#m4223210095" y="166.558928"/>
     <use style="fill:#471365;fill-opacity:0.8;stroke:#471365;stroke-opacity:0.8;" x="250.961807" xlink:href="#m4223210095" y="153.208195"/>
     <use style="fill:#471365;fill-opacity:0.8;stroke:#471365;stroke-opacity:0.8;" x="272.099029" xlink:href="#m4223210095" y="338.308054"/>
     <use style="fill:#471365;fill-opacity:0.8;stroke:#471365;stroke-opacity:0.8;" x="232.329045" xlink:href="#m4223210095" y="181.889544"/>
     <use style="fill:#471365;fill-opacity:0.8;stroke:#471365;stroke-opacity:0.8;" x="280.292481" xlink:href="#m4223210095" y="275.344674"/>
     <use style="fill:#471365;fill-opacity:0.8;stroke:#471365;stroke-opacity:0.8;" x="293.010396" xlink:href="#m4223210095" y="189.123438"/>
     <use style="fill:#471365;fill-opacity:0.8;stroke:#471365;stroke-opacity:0.8;" x="290.98521" xlink:href="#m4223210095" y="193.506916"/>
     <use style="fill:#471365;fill-opacity:0.8;stroke:#471365;stroke-opacity:0.8;" x="287.420725" xlink:href="#m4223210095" y="334.517771"/>
     <use style="fill:#471365;fill-opacity:0.8;stroke:#471365;stroke-opacity:0.8;" x="289.108238" xlink:href="#m4223210095" y="188.098829"/>
     <use style="fill:#471365;fill-opacity:0.8;stroke:#471365;stroke-opacity:0.8;" x="287.20916" xlink:href="#m4223210095" y="194.993755"/>
     <use style="fill:#471365;fill-opacity:0.8;stroke:#471365;stroke-opacity:0.8;" x="288.775675" xlink:href="#m4223210095" y="165.696099"/>
     <use style="fill:#471365;fill-opacity:0.8;stroke:#471365;stroke-opacity:0.8;" x="233.972355" xlink:href="#m4223210095" y="259.713608"/>
     <use style="fill:#471365;fill-opacity:0.8;stroke:#471365;stroke-opacity:0.8;" x="250.751962" xlink:href="#m4223210095" y="249.652409"/>
     <use style="fill:#471365;fill-opacity:0.8;stroke:#471365;stroke-opacity:0.8;" x="251.060876" xlink:href="#m4223210095" y="148.570491"/>
     <use style="fill:#471365;fill-opacity:0.8;stroke:#471365;stroke-opacity:0.8;" x="251.126876" xlink:href="#m4223210095" y="307.269334"/>
     <use style="fill:#471365;fill-opacity:0.8;stroke:#471365;stroke-opacity:0.8;" x="270.04668" xlink:href="#m4223210095" y="304.40351"/>
     <use style="fill:#471365;fill-opacity:0.8;stroke:#471365;stroke-opacity:0.8;" x="258.572377" xlink:href="#m4223210095" y="264.436054"/>
     <use style="fill:#471365;fill-opacity:0.8;stroke:#471365;stroke-opacity:0.8;" x="245.950273" xlink:href="#m4223210095" y="126.383469"/>
     <use style="fill:#471365;fill-opacity:0.8;stroke:#471365;stroke-opacity:0.8;" x="277.212778" xlink:href="#m4223210095" y="319.271897"/>
     <use style="fill:#471365;fill-opacity:0.8;stroke:#471365;stroke-opacity:0.8;" x="275.834077" xlink:href="#m4223210095" y="311.013394"/>
     <use style="fill:#471365;fill-opacity:0.8;stroke:#471365;stroke-opacity:0.8;" x="265.44308" xlink:href="#m4223210095" y="221.494921"/>
     <use style="fill:#471365;fill-opacity:0.8;stroke:#471365;stroke-opacity:0.8;" x="220.958707" xlink:href="#m4223210095" y="210.832824"/>
     <use style="fill:#471365;fill-opacity:0.8;stroke:#471365;stroke-opacity:0.8;" x="165.913941" xlink:href="#m4223210095" y="153.63961"/>
     <use style="fill:#471365;fill-opacity:0.8;stroke:#471365;stroke-opacity:0.8;" x="273.436501" xlink:href="#m4223210095" y="223.297616"/>
     <use style="fill:#471365;fill-opacity:0.8;stroke:#471365;stroke-opacity:0.8;" x="280.731467" xlink:href="#m4223210095" y="310.635906"/>
     <use style="fill:#471365;fill-opacity:0.8;stroke:#471365;stroke-opacity:0.8;" x="278.367139" xlink:href="#m4223210095" y="114.820024"/>
     <use style="fill:#471365;fill-opacity:0.8;stroke:#471365;stroke-opacity:0.8;" x="259.585548" xlink:href="#m4223210095" y="283.202577"/>
     <use style="fill:#471365;fill-opacity:0.8;stroke:#471365;stroke-opacity:0.8;" x="191.915164" xlink:href="#m4223210095" y="170.264469"/>
     <use style="fill:#471365;fill-opacity:0.8;stroke:#471365;stroke-opacity:0.8;" x="243.880248" xlink:href="#m4223210095" y="254.02048"/>
     <use style="fill:#471365;fill-opacity:0.8;stroke:#471365;stroke-opacity:0.8;" x="266.267946" xlink:href="#m4223210095" y="210.470744"/>
     <use style="fill:#471365;fill-opacity:0.8;stroke:#471365;stroke-opacity:0.8;" x="241.217237" xlink:href="#m4223210095" y="221.394771"/>
     <use style="fill:#471365;fill-opacity:0.8;stroke:#471365;stroke-opacity:0.8;" x="249.714377" xlink:href="#m4223210095" y="199.716201"/>
     <use style="fill:#471365;fill-opacity:0.8;stroke:#471365;stroke-opacity:0.8;" x="239.158976" xlink:href="#m4223210095" y="267.779515"/>
     <use style="fill:#471365;fill-opacity:0.8;stroke:#471365;stroke-opacity:0.8;" x="291.313528" xlink:href="#m4223210095" y="318.424476"/>
     <use style="fill:#471365;fill-opacity:0.8;stroke:#471365;stroke-opacity:0.8;" x="274.030169" xlink:href="#m4223210095" y="253.797069"/>
     <use style="fill:#471365;fill-opacity:0.8;stroke:#471365;stroke-opacity:0.8;" x="247.380978" xlink:href="#m4223210095" y="305.089151"/>
     <use style="fill:#471365;fill-opacity:0.8;stroke:#471365;stroke-opacity:0.8;" x="256.70431" xlink:href="#m4223210095" y="188.622689"/>
     <use style="fill:#471365;fill-opacity:0.8;stroke:#471365;stroke-opacity:0.8;" x="264.32082" xlink:href="#m4223210095" y="212.85893"/>
     <use style="fill:#471365;fill-opacity:0.8;stroke:#471365;stroke-opacity:0.8;" x="283.438296" xlink:href="#m4223210095" y="121.483834"/>
     <use style="fill:#471365;fill-opacity:0.8;stroke:#471365;stroke-opacity:0.8;" x="287.376886" xlink:href="#m4223210095" y="335.211116"/>
     <use style="fill:#471365;fill-opacity:0.8;stroke:#471365;stroke-opacity:0.8;" x="257.574436" xlink:href="#m4223210095" y="308.378685"/>
     <use style="fill:#471365;fill-opacity:0.8;stroke:#471365;stroke-opacity:0.8;" x="284.324617" xlink:href="#m4223210095" y="175.788113"/>
     <use style="fill:#471365;fill-opacity:0.8;stroke:#471365;stroke-opacity:0.8;" x="288.213333" xlink:href="#m4223210095" y="342.837905"/>
     <use style="fill:#471365;fill-opacity:0.8;stroke:#471365;stroke-opacity:0.8;" x="282.05173" xlink:href="#m4223210095" y="285.575356"/>
     <use style="fill:#471365;fill-opacity:0.8;stroke:#471365;stroke-opacity:0.8;" x="278.854387" xlink:href="#m4223210095" y="253.897218"/>
     <use style="fill:#471365;fill-opacity:0.8;stroke:#471365;stroke-opacity:0.8;" x="200.448323" xlink:href="#m4223210095" y="258.91241"/>
     <use style="fill:#471365;fill-opacity:0.8;stroke:#471365;stroke-opacity:0.8;" x="278.554679" xlink:href="#m4223210095" y="297.731996"/>
     <use style="fill:#471365;fill-opacity:0.8;stroke:#471365;stroke-opacity:0.8;" x="267.991189" xlink:href="#m4223210095" y="280.151862"/>
     <use style="fill:#471365;fill-opacity:0.8;stroke:#471365;stroke-opacity:0.8;" x="276.388046" xlink:href="#m4223210095" y="168.754519"/>
     <use style="fill:#471365;fill-opacity:0.8;stroke:#471365;stroke-opacity:0.8;" x="279.972884" xlink:href="#m4223210095" y="292.223759"/>
     <use style="fill:#471365;fill-opacity:0.8;stroke:#471365;stroke-opacity:0.8;" x="278.087039" xlink:href="#m4223210095" y="224.183556"/>
     <use style="fill:#471365;fill-opacity:0.8;stroke:#471365;stroke-opacity:0.8;" x="288.349915" xlink:href="#m4223210095" y="200.186134"/>
     <use style="fill:#471365;fill-opacity:0.8;stroke:#471365;stroke-opacity:0.8;" x="267.247052" xlink:href="#m4223210095" y="261.431561"/>
     <use style="fill:#471365;fill-opacity:0.8;stroke:#471365;stroke-opacity:0.8;" x="231.083993" xlink:href="#m4223210095" y="196.411259"/>
     <use style="fill:#471365;fill-opacity:0.8;stroke:#471365;stroke-opacity:0.8;" x="268.120895" xlink:href="#m4223210095" y="167.699094"/>
     <use style="fill:#471365;fill-opacity:0.8;stroke:#471365;stroke-opacity:0.8;" x="259.992186" xlink:href="#m4223210095" y="166.150625"/>
     <use style="fill:#471365;fill-opacity:0.8;stroke:#471365;stroke-opacity:0.8;" x="262.71857" xlink:href="#m4223210095" y="238.420229"/>
     <use style="fill:#471365;fill-opacity:0.8;stroke:#471365;stroke-opacity:0.8;" x="282.743605" xlink:href="#m4223210095" y="335.272746"/>
     <use style="fill:#471365;fill-opacity:0.8;stroke:#471365;stroke-opacity:0.8;" x="249.678013" xlink:href="#m4223210095" y="124.912038"/>
     <use style="fill:#471365;fill-opacity:0.8;stroke:#471365;stroke-opacity:0.8;" x="292.628853" xlink:href="#m4223210095" y="299.480764"/>
     <use style="fill:#471365;fill-opacity:0.8;stroke:#471365;stroke-opacity:0.8;" x="236.116009" xlink:href="#m4223210095" y="301.892062"/>
     <use style="fill:#471365;fill-opacity:0.8;stroke:#471365;stroke-opacity:0.8;" x="224.091155" xlink:href="#m4223210095" y="218.929546"/>
     <use style="fill:#471365;fill-opacity:0.8;stroke:#471365;stroke-opacity:0.8;" x="255.520126" xlink:href="#m4223210095" y="224.892308"/>
     <use style="fill:#471365;fill-opacity:0.8;stroke:#471365;stroke-opacity:0.8;" x="239.600753" xlink:href="#m4223210095" y="254.983458"/>
     <use style="fill:#471365;fill-opacity:0.8;stroke:#471365;stroke-opacity:0.8;" x="288.860809" xlink:href="#m4223210095" y="286.122328"/>
     <use style="fill:#471365;fill-opacity:0.8;stroke:#471365;stroke-opacity:0.8;" x="207.63959" xlink:href="#m4223210095" y="245.592492"/>
     <use style="fill:#471365;fill-opacity:0.8;stroke:#471365;stroke-opacity:0.8;" x="243.245021" xlink:href="#m4223210095" y="171.5356"/>
     <use style="fill:#471365;fill-opacity:0.8;stroke:#471365;stroke-opacity:0.8;" x="287.246221" xlink:href="#m4223210095" y="326.867871"/>
     <use style="fill:#471365;fill-opacity:0.8;stroke:#471365;stroke-opacity:0.8;" x="285.259852" xlink:href="#m4223210095" y="325.080583"/>
     <use style="fill:#471365;fill-opacity:0.8;stroke:#471365;stroke-opacity:0.8;" x="233.689989" xlink:href="#m4223210095" y="159.764152"/>
     <use style="fill:#471365;fill-opacity:0.8;stroke:#471365;stroke-opacity:0.8;" x="293.045315" xlink:href="#m4223210095" y="331.366906"/>
     <use style="fill:#471365;fill-opacity:0.8;stroke:#471365;stroke-opacity:0.8;" x="266.568779" xlink:href="#m4223210095" y="244.745071"/>
     <use style="fill:#471365;fill-opacity:0.8;stroke:#471365;stroke-opacity:0.8;" x="281.13448" xlink:href="#m4223210095" y="179.170093"/>
     <use style="fill:#471365;fill-opacity:0.8;stroke:#471365;stroke-opacity:0.8;" x="293.905778" xlink:href="#m4223210095" y="298.201929"/>
     <use style="fill:#471365;fill-opacity:0.8;stroke:#471365;stroke-opacity:0.8;" x="288.246101" xlink:href="#m4223210095" y="156.882921"/>
     <use style="fill:#471365;fill-opacity:0.8;stroke:#471365;stroke-opacity:0.8;" x="273.532628" xlink:href="#m4223210095" y="219.892524"/>
     <use style="fill:#471365;fill-opacity:0.8;stroke:#471365;stroke-opacity:0.8;" x="275.603633" xlink:href="#m4223210095" y="283.495323"/>
     <use style="fill:#471365;fill-opacity:0.8;stroke:#471365;stroke-opacity:0.8;" x="256.574529" xlink:href="#m4223210095" y="234.599131"/>
     <use style="fill:#471365;fill-opacity:0.8;stroke:#471365;stroke-opacity:0.8;" x="292.651774" xlink:href="#m4223210095" y="337.815009"/>
     <use style="fill:#471365;fill-opacity:0.8;stroke:#471365;stroke-opacity:0.8;" x="107.55965" xlink:href="#m4223210095" y="187.328446"/>
     <use style="fill:#471365;fill-opacity:0.8;stroke:#471365;stroke-opacity:0.8;" x="246.916965" xlink:href="#m4223210095" y="329.356207"/>
     <use style="fill:#471365;fill-opacity:0.8;stroke:#471365;stroke-opacity:0.8;" x="294.126684" xlink:href="#m4223210095" y="326.528902"/>
     <use style="fill:#471365;fill-opacity:0.8;stroke:#471365;stroke-opacity:0.8;" x="261.090941" xlink:href="#m4223210095" y="251.501328"/>
     <use style="fill:#471365;fill-opacity:0.8;stroke:#471365;stroke-opacity:0.8;" x="288.333227" xlink:href="#m4223210095" y="220.501127"/>
     <use style="fill:#471365;fill-opacity:0.8;stroke:#471365;stroke-opacity:0.8;" x="223.997525" xlink:href="#m4223210095" y="269.636137"/>
     <use style="fill:#471365;fill-opacity:0.8;stroke:#471365;stroke-opacity:0.8;" x="265.873034" xlink:href="#m4223210095" y="294.534907"/>
     <use style="fill:#471365;fill-opacity:0.8;stroke:#471365;stroke-opacity:0.8;" x="289.609663" xlink:href="#m4223210095" y="328.770716"/>
     <use style="fill:#471365;fill-opacity:0.8;stroke:#471365;stroke-opacity:0.8;" x="236.936429" xlink:href="#m4223210095" y="218.690727"/>
     <use style="fill:#471365;fill-opacity:0.8;stroke:#471365;stroke-opacity:0.8;" x="277.407121" xlink:href="#m4223210095" y="228.220362"/>
     <use style="fill:#471365;fill-opacity:0.8;stroke:#471365;stroke-opacity:0.8;" x="287.165459" xlink:href="#m4223210095" y="327.137505"/>
     <use style="fill:#471365;fill-opacity:0.8;stroke:#471365;stroke-opacity:0.8;" x="266.479437" xlink:href="#m4223210095" y="264.320497"/>
     <use style="fill:#471365;fill-opacity:0.8;stroke:#471365;stroke-opacity:0.8;" x="241.11987" xlink:href="#m4223210095" y="299.596322"/>
     <use style="fill:#471365;fill-opacity:0.8;stroke:#471365;stroke-opacity:0.8;" x="263.075366" xlink:href="#m4223210095" y="289.173044"/>
     <use style="fill:#471365;fill-opacity:0.8;stroke:#471365;stroke-opacity:0.8;" x="211.20114" xlink:href="#m4223210095" y="244.752775"/>
     <use style="fill:#471365;fill-opacity:0.8;stroke:#471365;stroke-opacity:0.8;" x="231.696961" xlink:href="#m4223210095" y="235.955004"/>
     <use style="fill:#471365;fill-opacity:0.8;stroke:#471365;stroke-opacity:0.8;" x="263.55011" xlink:href="#m4223210095" y="289.465789"/>
     <use style="fill:#471365;fill-opacity:0.8;stroke:#471365;stroke-opacity:0.8;" x="272.077713" xlink:href="#m4223210095" y="297.115689"/>
     <use style="fill:#471365;fill-opacity:0.8;stroke:#471365;stroke-opacity:0.8;" x="290.167531" xlink:href="#m4223210095" y="200.725402"/>
     <use style="fill:#471365;fill-opacity:0.8;stroke:#471365;stroke-opacity:0.8;" x="293.481406" xlink:href="#m4223210095" y="316.891414"/>
     <use style="fill:#471365;fill-opacity:0.8;stroke:#471365;stroke-opacity:0.8;" x="276.206318" xlink:href="#m4223210095" y="318.49381"/>
     <use style="fill:#471365;fill-opacity:0.8;stroke:#471365;stroke-opacity:0.8;" x="292.258184" xlink:href="#m4223210095" y="305.559084"/>
     <use style="fill:#471365;fill-opacity:0.8;stroke:#471365;stroke-opacity:0.8;" x="195.76137" xlink:href="#m4223210095" y="281.669516"/>
     <use style="fill:#471365;fill-opacity:0.8;stroke:#471365;stroke-opacity:0.8;" x="293.229263" xlink:href="#m4223210095" y="284.75875"/>
     <use style="fill:#471365;fill-opacity:0.8;stroke:#471365;stroke-opacity:0.8;" x="276.786954" xlink:href="#m4223210095" y="132.323119"/>
     <use style="fill:#471365;fill-opacity:0.8;stroke:#471365;stroke-opacity:0.8;" x="272.585358" xlink:href="#m4223210095" y="274.281545"/>
     <use style="fill:#471365;fill-opacity:0.8;stroke:#471365;stroke-opacity:0.8;" x="286.192047" xlink:href="#m4223210095" y="301.18331"/>
     <use style="fill:#471365;fill-opacity:0.8;stroke:#471365;stroke-opacity:0.8;" x="226.490029" xlink:href="#m4223210095" y="255.337834"/>
     <use style="fill:#471365;fill-opacity:0.8;stroke:#471365;stroke-opacity:0.8;" x="256.076506" xlink:href="#m4223210095" y="244.590995"/>
     <use style="fill:#471365;fill-opacity:0.8;stroke:#471365;stroke-opacity:0.8;" x="284.597907" xlink:href="#m4223210095" y="179.863438"/>
     <use style="fill:#471365;fill-opacity:0.8;stroke:#471365;stroke-opacity:0.8;" x="280.253477" xlink:href="#m4223210095" y="290.77544"/>
     <use style="fill:#471365;fill-opacity:0.8;stroke:#471365;stroke-opacity:0.8;" x="293.464534" xlink:href="#m4223210095" y="155.188079"/>
     <use style="fill:#471365;fill-opacity:0.8;stroke:#471365;stroke-opacity:0.8;" x="257.377684" xlink:href="#m4223210095" y="286.584558"/>
     <use style="fill:#471365;fill-opacity:0.8;stroke:#471365;stroke-opacity:0.8;" x="292.779498" xlink:href="#m4223210095" y="219.915636"/>
     <use style="fill:#471365;fill-opacity:0.8;stroke:#471365;stroke-opacity:0.8;" x="234.13576" xlink:href="#m4223210095" y="227.742725"/>
     <use style="fill:#471365;fill-opacity:0.8;stroke:#471365;stroke-opacity:0.8;" x="291.002749" xlink:href="#m4223210095" y="290.790847"/>
     <use style="fill:#471365;fill-opacity:0.8;stroke:#471365;stroke-opacity:0.8;" x="288.478904" xlink:href="#m4223210095" y="313.540249"/>
     <use style="fill:#471365;fill-opacity:0.8;stroke:#471365;stroke-opacity:0.8;" x="272.350186" xlink:href="#m4223210095" y="299.272761"/>
     <use style="fill:#471365;fill-opacity:0.8;stroke:#471365;stroke-opacity:0.8;" x="216.070783" xlink:href="#m4223210095" y="232.295686"/>
     <use style="fill:#471365;fill-opacity:0.8;stroke:#471365;stroke-opacity:0.8;" x="276.872819" xlink:href="#m4223210095" y="295.513293"/>
     <use style="fill:#471365;fill-opacity:0.8;stroke:#471365;stroke-opacity:0.8;" x="269.755752" xlink:href="#m4223210095" y="268.842643"/>
     <use style="fill:#471365;fill-opacity:0.8;stroke:#471365;stroke-opacity:0.8;" x="262.026694" xlink:href="#m4223210095" y="125.335748"/>
     <use style="fill:#471365;fill-opacity:0.8;stroke:#471365;stroke-opacity:0.8;" x="281.092082" xlink:href="#m4223210095" y="230.292691"/>
     <use style="fill:#471365;fill-opacity:0.8;stroke:#471365;stroke-opacity:0.8;" x="282.439012" xlink:href="#m4223210095" y="251.639997"/>
     <use style="fill:#471365;fill-opacity:0.8;stroke:#471365;stroke-opacity:0.8;" x="288.86997" xlink:href="#m4223210095" y="212.019213"/>
     <use style="fill:#471365;fill-opacity:0.8;stroke:#471365;stroke-opacity:0.8;" x="286.145672" xlink:href="#m4223210095" y="142.376614"/>
     <use style="fill:#471365;fill-opacity:0.8;stroke:#471365;stroke-opacity:0.8;" x="283.105294" xlink:href="#m4223210095" y="343.431099"/>
     <use style="fill:#471365;fill-opacity:0.8;stroke:#471365;stroke-opacity:0.8;" x="278.010161" xlink:href="#m4223210095" y="306.352578"/>
    </g>
   </g>
   <g id="PolyCollection_1">
    <defs>
     <path d="M 63.183924 -341.818699 
L 63.183924 -231.827752 
L 65.964919 -231.202595 
L 68.745914 -230.577437 
L 71.526909 -229.952279 
L 74.307903 -229.327122 
L 77.088898 -228.701964 
L 79.869893 -228.076806 
L 82.650888 -227.451648 
L 85.431883 -226.826491 
L 88.212877 -226.201333 
L 90.993872 -225.576175 
L 93.774867 -224.951018 
L 96.555862 -224.32586 
L 99.336857 -223.700702 
L 102.117851 -223.075545 
L 104.898846 -222.450387 
L 107.679841 -221.825229 
L 110.460836 -221.200071 
L 113.241831 -220.576143 
L 116.022825 -219.954378 
L 118.80382 -219.332612 
L 121.584815 -218.710847 
L 124.36581 -218.089081 
L 127.146805 -217.467316 
L 129.927799 -216.84555 
L 132.708794 -216.223785 
L 135.489789 -215.602019 
L 138.270784 -214.980254 
L 141.051779 -214.301994 
L 143.832773 -213.38826 
L 146.613768 -212.474527 
L 149.394763 -211.72917 
L 152.175758 -211.17266 
L 154.956753 -210.621379 
L 157.737747 -210.073702 
L 160.518742 -209.526025 
L 163.299737 -208.929833 
L 166.080732 -208.242408 
L 168.861727 -207.554983 
L 171.642721 -206.867557 
L 174.423716 -206.180132 
L 177.204711 -205.492707 
L 179.985706 -204.798216 
L 182.7667 -204.110573 
L 185.547695 -203.415677 
L 188.32869 -202.720781 
L 191.109685 -202.025885 
L 193.89068 -201.344084 
L 196.671674 -200.67534 
L 199.452669 -200.362325 
L 202.233664 -199.625259 
L 205.014659 -198.675686 
L 207.795654 -197.897513 
L 210.576648 -197.209821 
L 213.357643 -196.475826 
L 216.138638 -195.715223 
L 218.919633 -194.640224 
L 221.700628 -193.747571 
L 224.481622 -193.005803 
L 227.262617 -191.938297 
L 230.043612 -190.979831 
L 232.824607 -190.292724 
L 235.605602 -189.334528 
L 238.386596 -188.125495 
L 241.167591 -186.881617 
L 243.948586 -185.636894 
L 246.729581 -184.197142 
L 249.510576 -183.081409 
L 252.29157 -181.511171 
L 255.072565 -180.091677 
L 257.85356 -178.697927 
L 260.634555 -177.195147 
L 263.41555 -175.533479 
L 266.196544 -173.987545 
L 268.977539 -172.111256 
L 271.758534 -170.54816 
L 274.539529 -168.651967 
L 277.320524 -166.770339 
L 280.101518 -164.843988 
L 282.882513 -163.024218 
L 285.663508 -161.047842 
L 288.444503 -159.11067 
L 291.225498 -157.068836 
L 294.006492 -155.226149 
L 296.787487 -153.219974 
L 299.568482 -151.090372 
L 302.349477 -148.787807 
L 305.130472 -146.484014 
L 307.911466 -144.260339 
L 310.692461 -142.164482 
L 313.473456 -140.070702 
L 316.254451 -137.708343 
L 319.035446 -135.644862 
L 321.81644 -133.396239 
L 324.597435 -131.351116 
L 327.37843 -129.199518 
L 330.159425 -127.013634 
L 332.940419 -124.77164 
L 335.721414 -122.502735 
L 338.502409 -120.219662 
L 338.502409 -170.614243 
L 338.502409 -170.614243 
L 335.721414 -171.518372 
L 332.940419 -172.432901 
L 330.159425 -173.455808 
L 327.37843 -174.144828 
L 324.597435 -174.666357 
L 321.81644 -175.205078 
L 319.035446 -176.037962 
L 316.254451 -176.750445 
L 313.473456 -177.348337 
L 310.692461 -178.033108 
L 307.911466 -178.772817 
L 305.130472 -179.616754 
L 302.349477 -180.409232 
L 299.568482 -181.472862 
L 296.787487 -182.535178 
L 294.006492 -183.084534 
L 291.225498 -183.833903 
L 288.444503 -184.757202 
L 285.663508 -185.495375 
L 282.882513 -186.283555 
L 280.101518 -187.411056 
L 277.320524 -188.115393 
L 274.539529 -189.099879 
L 271.758534 -190.305983 
L 268.977539 -191.495812 
L 266.196544 -192.49541 
L 263.41555 -193.478752 
L 260.634555 -194.856614 
L 257.85356 -196.346109 
L 255.072565 -197.66249 
L 252.29157 -199.202885 
L 249.510576 -200.691136 
L 246.729581 -202.310901 
L 243.948586 -204.130581 
L 241.167591 -205.730841 
L 238.386596 -207.179871 
L 235.605602 -208.761398 
L 232.824607 -210.776906 
L 230.043612 -212.656634 
L 227.262617 -214.690053 
L 224.481622 -216.476015 
L 221.700628 -218.810191 
L 218.919633 -220.772109 
L 216.138638 -222.990137 
L 213.357643 -225.167767 
L 210.576648 -227.132418 
L 207.795654 -229.179901 
L 205.014659 -231.116177 
L 202.233664 -233.371112 
L 199.452669 -235.445216 
L 196.671674 -237.518591 
L 193.89068 -239.575713 
L 191.109685 -241.573436 
L 188.32869 -243.63128 
L 185.547695 -245.667652 
L 182.7667 -247.847791 
L 179.985706 -249.972832 
L 177.204711 -252.049817 
L 174.423716 -254.126422 
L 171.642721 -256.25594 
L 168.861727 -258.448346 
L 166.080732 -260.793063 
L 163.299737 -263.063093 
L 160.518742 -265.325933 
L 157.737747 -267.588773 
L 154.956753 -269.855374 
L 152.175758 -272.081621 
L 149.394763 -274.130549 
L 146.613768 -276.424433 
L 143.832773 -278.719305 
L 141.051779 -281.013265 
L 138.270784 -283.064083 
L 135.489789 -284.979199 
L 132.708794 -286.894315 
L 129.927799 -288.809432 
L 127.146805 -290.830347 
L 124.36581 -292.940435 
L 121.584815 -295.049982 
L 118.80382 -297.159353 
L 116.022825 -299.268723 
L 113.241831 -301.378094 
L 110.460836 -303.484672 
L 107.679841 -305.68526 
L 104.898846 -307.906891 
L 102.117851 -310.128523 
L 99.336857 -312.350154 
L 96.555862 -314.571786 
L 93.774867 -316.793417 
L 90.993872 -319.015049 
L 88.212877 -321.23668 
L 85.431883 -323.458312 
L 82.650888 -325.735208 
L 79.869893 -328.041106 
L 77.088898 -330.347004 
L 74.307903 -332.652902 
L 71.526909 -334.9588 
L 68.745914 -337.264698 
L 65.964919 -339.570596 
L 63.183924 -341.818699 
z
" id="m253ed9c6c7" style="stroke:#ffffff;stroke-opacity:0.15;stroke-width:0.8;"/>
    </defs>
    <g clip-path="url(#p97338bdd6a)">
     <use style="fill:#471365;fill-opacity:0.15;stroke:#ffffff;stroke-opacity:0.15;stroke-width:0.8;" x="0" xlink:href="#m253ed9c6c7" y="432"/>
    </g>
   </g>
   <g id="line2d_15">
    <path clip-path="url(#p97338bdd6a)" d="M 63.183924 147.10375 
L 65.964919 148.495302 
L 68.745914 149.886855 
L 71.526909 151.278407 
L 74.307903 152.669959 
L 77.088898 154.061511 
L 79.869893 155.453063 
L 82.650888 156.844615 
L 85.431883 158.236167 
L 88.212877 159.627719 
L 90.993872 161.019271 
L 93.774867 162.410823 
L 96.555862 163.802375 
L 99.336857 165.193928 
L 102.117851 166.58548 
L 104.898846 167.977032 
L 107.679841 169.368584 
L 110.460836 170.760136 
L 113.241831 172.151688 
L 116.022825 173.54324 
L 118.80382 174.934792 
L 121.584815 176.326344 
L 124.36581 177.717896 
L 127.146805 179.109449 
L 129.927799 180.501001 
L 132.708794 181.892553 
L 135.489789 183.284105 
L 138.270784 184.675657 
L 141.051779 186.067209 
L 143.832773 187.458761 
L 146.613768 188.850313 
L 149.394763 190.241865 
L 152.175758 191.633417 
L 154.956753 193.024969 
L 157.737747 194.416522 
L 160.518742 195.808074 
L 163.299737 197.199626 
L 166.080732 198.591178 
L 168.861727 199.98273 
L 171.642721 201.374282 
L 174.423716 202.765834 
L 177.204711 204.157386 
L 179.985706 205.548938 
L 182.7667 206.94049 
L 185.547695 208.332043 
L 188.32869 209.723595 
L 191.109685 211.115147 
L 193.89068 212.506699 
L 196.671674 213.898251 
L 199.452669 215.289803 
L 202.233664 216.681355 
L 205.014659 218.072907 
L 207.795654 219.464459 
L 210.576648 220.856011 
L 213.357643 222.247564 
L 216.138638 223.639116 
L 218.919633 225.030668 
L 221.700628 226.42222 
L 224.481622 227.813772 
L 227.262617 229.205324 
L 230.043612 230.596876 
L 232.824607 231.988428 
L 235.605602 233.37998 
L 238.386596 234.771532 
L 241.167591 236.163084 
L 243.948586 237.554637 
L 246.729581 238.946189 
L 249.510576 240.337741 
L 252.29157 241.729293 
L 255.072565 243.120845 
L 257.85356 244.512397 
L 260.634555 245.903949 
L 263.41555 247.295501 
L 266.196544 248.687053 
L 268.977539 250.078605 
L 271.758534 251.470158 
L 274.539529 252.86171 
L 277.320524 254.253262 
L 280.101518 255.644814 
L 282.882513 257.036366 
L 285.663508 258.427918 
L 288.444503 259.81947 
L 291.225498 261.211022 
L 294.006492 262.602574 
L 296.787487 263.994126 
L 299.568482 265.385678 
L 302.349477 266.777231 
L 305.130472 268.168783 
L 307.911466 269.560335 
L 310.692461 270.951887 
L 313.473456 272.343439 
L 316.254451 273.734991 
L 319.035446 275.126543 
L 321.81644 276.518095 
L 324.597435 277.909647 
L 327.37843 279.301199 
L 330.159425 280.692752 
L 332.940419 282.084304 
L 335.721414 283.475856 
L 338.502409 284.867408 
" style="fill:none;stroke:#471365;stroke-linecap:round;stroke-width:1.8;"/>
   </g>
   <g id="patch_3">
    <path d="M 49.418 390.332 
L 49.418 81.023333 
" style="fill:none;stroke:#262626;stroke-linecap:square;stroke-linejoin:miter;"/>
   </g>
   <g id="patch_4">
    <path d="M 49.418 390.332 
L 352.268333 390.332 
" style="fill:none;stroke:#262626;stroke-linecap:square;stroke-linejoin:miter;"/>
   </g>
   <g id="legend_1">
    <g id="patch_5">
     <path d="M 187.929708 100.980083 
L 346.108333 100.980083 
Q 347.868333 100.980083 347.868333 99.220083 
L 347.868333 87.183333 
Q 347.868333 85.423333 346.108333 85.423333 
L 187.929708 85.423333 
Q 186.169708 85.423333 186.169708 87.183333 
L 186.169708 99.220083 
Q 186.169708 100.980083 187.929708 100.980083 
z
" style="fill:#ffffff;opacity:0.8;stroke:#cccccc;stroke-linejoin:miter;stroke-width:0.8;"/>
    </g>
    <g id="line2d_16"/>
    <g id="line2d_17"/>
    <g id="text_17">
     <!-- pearsonr = -0.24; p = 0.0036 -->
     <defs>
      <path d="M 44.28125 53.078125 
L 44.28125 44.578125 
Q 40.484375 46.53125 36.375 47.5 
Q 32.28125 48.484375 27.875 48.484375 
Q 21.1875 48.484375 17.84375 46.4375 
Q 14.5 44.390625 14.5 40.28125 
Q 14.5 37.15625 16.890625 35.375 
Q 19.28125 33.59375 26.515625 31.984375 
L 29.59375 31.296875 
Q 39.15625 29.25 43.1875 25.515625 
Q 47.21875 21.78125 47.21875 15.09375 
Q 47.21875 7.46875 41.1875 3.015625 
Q 35.15625 -1.421875 24.609375 -1.421875 
Q 20.21875 -1.421875 15.453125 -0.5625 
Q 10.6875 0.296875 5.421875 2 
L 5.421875 11.28125 
Q 10.40625 8.6875 15.234375 7.390625 
Q 20.0625 6.109375 24.8125 6.109375 
Q 31.15625 6.109375 34.5625 8.28125 
Q 37.984375 10.453125 37.984375 14.40625 
Q 37.984375 18.0625 35.515625 20.015625 
Q 33.0625 21.96875 24.703125 23.78125 
L 21.578125 24.515625 
Q 13.234375 26.265625 9.515625 29.90625 
Q 5.8125 33.546875 5.8125 39.890625 
Q 5.8125 47.609375 11.28125 51.796875 
Q 16.75 56 26.8125 56 
Q 31.78125 56 36.171875 55.265625 
Q 40.578125 54.546875 44.28125 53.078125 
z
" id="DejaVuSans-73"/>
      <path d="M 10.59375 45.40625 
L 73.1875 45.40625 
L 73.1875 37.203125 
L 10.59375 37.203125 
z
M 10.59375 25.484375 
L 73.1875 25.484375 
L 73.1875 17.1875 
L 10.59375 17.1875 
z
" id="DejaVuSans-3d"/>
      <path d="M 4.890625 31.390625 
L 31.203125 31.390625 
L 31.203125 23.390625 
L 4.890625 23.390625 
z
" id="DejaVuSans-2d"/>
      <path d="M 11.71875 51.703125 
L 22.015625 51.703125 
L 22.015625 39.3125 
L 11.71875 39.3125 
z
M 11.71875 12.40625 
L 22.015625 12.40625 
L 22.015625 4 
L 14.015625 -11.625 
L 7.71875 -11.625 
L 11.71875 4 
z
" id="DejaVuSans-3b"/>
      <path d="M 40.578125 39.3125 
Q 47.65625 37.796875 51.625 33 
Q 55.609375 28.21875 55.609375 21.1875 
Q 55.609375 10.40625 48.1875 4.484375 
Q 40.765625 -1.421875 27.09375 -1.421875 
Q 22.515625 -1.421875 17.65625 -0.515625 
Q 12.796875 0.390625 7.625 2.203125 
L 7.625 11.71875 
Q 11.71875 9.328125 16.59375 8.109375 
Q 21.484375 6.890625 26.8125 6.890625 
Q 36.078125 6.890625 40.9375 10.546875 
Q 45.796875 14.203125 45.796875 21.1875 
Q 45.796875 27.640625 41.28125 31.265625 
Q 36.765625 34.90625 28.71875 34.90625 
L 20.21875 34.90625 
L 20.21875 43.015625 
L 29.109375 43.015625 
Q 36.375 43.015625 40.234375 45.921875 
Q 44.09375 48.828125 44.09375 54.296875 
Q 44.09375 59.90625 40.109375 62.90625 
Q 36.140625 65.921875 28.71875 65.921875 
Q 24.65625 65.921875 20.015625 65.03125 
Q 15.375 64.15625 9.8125 62.3125 
L 9.8125 71.09375 
Q 15.4375 72.65625 20.34375 73.4375 
Q 25.25 74.21875 29.59375 74.21875 
Q 40.828125 74.21875 47.359375 69.109375 
Q 53.90625 64.015625 53.90625 55.328125 
Q 53.90625 49.265625 50.4375 45.09375 
Q 46.96875 40.921875 40.578125 39.3125 
z
" id="DejaVuSans-33"/>
     </defs>
     <g style="fill:#262626;" transform="translate(214.329708 95.629958)scale(0.088 -0.088)">
      <use xlink:href="#DejaVuSans-70"/>
      <use x="63.476562" xlink:href="#DejaVuSans-65"/>
      <use x="125" xlink:href="#DejaVuSans-61"/>
      <use x="186.279297" xlink:href="#DejaVuSans-72"/>
      <use x="227.392578" xlink:href="#DejaVuSans-73"/>
      <use x="279.492188" xlink:href="#DejaVuSans-6f"/>
      <use x="340.673828" xlink:href="#DejaVuSans-6e"/>
      <use x="404.052734" xlink:href="#DejaVuSans-72"/>
      <use x="445.166016" xlink:href="#DejaVuSans-20"/>
      <use x="476.953125" xlink:href="#DejaVuSans-3d"/>
      <use x="560.742188" xlink:href="#DejaVuSans-20"/>
      <use x="592.529297" xlink:href="#DejaVuSans-2d"/>
      <use x="628.613281" xlink:href="#DejaVuSans-30"/>
      <use x="692.236328" xlink:href="#DejaVuSans-2e"/>
      <use x="724.023438" xlink:href="#DejaVuSans-32"/>
      <use x="787.646484" xlink:href="#DejaVuSans-34"/>
      <use x="851.269531" xlink:href="#DejaVuSans-3b"/>
      <use x="884.960938" xlink:href="#DejaVuSans-20"/>
      <use x="916.748047" xlink:href="#DejaVuSans-70"/>
      <use x="980.224609" xlink:href="#DejaVuSans-20"/>
      <use x="1012.011719" xlink:href="#DejaVuSans-3d"/>
      <use x="1095.800781" xlink:href="#DejaVuSans-20"/>
      <use x="1127.587891" xlink:href="#DejaVuSans-30"/>
      <use x="1191.210938" xlink:href="#DejaVuSans-2e"/>
      <use x="1222.998047" xlink:href="#DejaVuSans-30"/>
      <use x="1286.621094" xlink:href="#DejaVuSans-30"/>
      <use x="1350.244141" xlink:href="#DejaVuSans-33"/>
      <use x="1413.867188" xlink:href="#DejaVuSans-36"/>
     </g>
    </g>
   </g>
  </g>
  <g id="axes_2">
   <g id="patch_6">
    <path d="M 49.418 61.055333 
L 352.268333 61.055333 
L 352.268333 15.168 
L 49.418 15.168 
z
" style="fill:#ffffff;"/>
   </g>
   <g id="matplotlib.axis_3">
    <g id="xtick_9">
     <g id="line2d_18">
      <g>
       <use style="fill:#262626;stroke:#262626;" x="84.069646" xlink:href="#m628ad582bc" y="61.055333"/>
      </g>
     </g>
    </g>
    <g id="xtick_10">
     <g id="line2d_19">
      <g>
       <use style="fill:#262626;stroke:#262626;" x="120.061" xlink:href="#m628ad582bc" y="61.055333"/>
      </g>
     </g>
    </g>
    <g id="xtick_11">
     <g id="line2d_20">
      <g>
       <use style="fill:#262626;stroke:#262626;" x="156.052354" xlink:href="#m628ad582bc" y="61.055333"/>
      </g>
     </g>
    </g>
    <g id="xtick_12">
     <g id="line2d_21">
      <g>
       <use style="fill:#262626;stroke:#262626;" x="192.043708" xlink:href="#m628ad582bc" y="61.055333"/>
      </g>
     </g>
    </g>
    <g id="xtick_13">
     <g id="line2d_22">
      <g>
       <use style="fill:#262626;stroke:#262626;" x="228.035062" xlink:href="#m628ad582bc" y="61.055333"/>
      </g>
     </g>
    </g>
    <g id="xtick_14">
     <g id="line2d_23">
      <g>
       <use style="fill:#262626;stroke:#262626;" x="264.026415" xlink:href="#m628ad582bc" y="61.055333"/>
      </g>
     </g>
    </g>
    <g id="xtick_15">
     <g id="line2d_24">
      <g>
       <use style="fill:#262626;stroke:#262626;" x="300.017769" xlink:href="#m628ad582bc" y="61.055333"/>
      </g>
     </g>
    </g>
    <g id="xtick_16">
     <g id="line2d_25">
      <g>
       <use style="fill:#262626;stroke:#262626;" x="336.009123" xlink:href="#m628ad582bc" y="61.055333"/>
      </g>
     </g>
    </g>
   </g>
   <g id="matplotlib.axis_4">
    <g id="ytick_7"/>
    <g id="ytick_8"/>
   </g>
   <g id="patch_7">
    <path clip-path="url(#p9559d44886)" d="M 107.55965 61.055333 
L 119.997452 61.055333 
L 119.997452 60.14487 
L 107.55965 60.14487 
z
" style="fill:#471365;opacity:0.4;stroke:#ffffff;stroke-linejoin:miter;stroke-width:0.8;"/>
   </g>
   <g id="patch_8">
    <path clip-path="url(#p9559d44886)" d="M 119.997452 61.055333 
L 132.435254 61.055333 
L 132.435254 61.055333 
L 119.997452 61.055333 
z
" style="fill:#471365;opacity:0.4;stroke:#ffffff;stroke-linejoin:miter;stroke-width:0.8;"/>
   </g>
   <g id="patch_9">
    <path clip-path="url(#p9559d44886)" d="M 132.435254 61.055333 
L 144.873056 61.055333 
L 144.873056 61.055333 
L 132.435254 61.055333 
z
" style="fill:#471365;opacity:0.4;stroke:#ffffff;stroke-linejoin:miter;stroke-width:0.8;"/>
   </g>
   <g id="patch_10">
    <path clip-path="url(#p9559d44886)" d="M 144.873056 61.055333 
L 157.310859 61.055333 
L 157.310859 61.055333 
L 144.873056 61.055333 
z
" style="fill:#471365;opacity:0.4;stroke:#ffffff;stroke-linejoin:miter;stroke-width:0.8;"/>
   </g>
   <g id="patch_11">
    <path clip-path="url(#p9559d44886)" d="M 157.310859 61.055333 
L 169.748661 61.055333 
L 169.748661 60.14487 
L 157.310859 60.14487 
z
" style="fill:#471365;opacity:0.4;stroke:#ffffff;stroke-linejoin:miter;stroke-width:0.8;"/>
   </g>
   <g id="patch_12">
    <path clip-path="url(#p9559d44886)" d="M 169.748661 61.055333 
L 182.186463 61.055333 
L 182.186463 61.055333 
L 169.748661 61.055333 
z
" style="fill:#471365;opacity:0.4;stroke:#ffffff;stroke-linejoin:miter;stroke-width:0.8;"/>
   </g>
   <g id="patch_13">
    <path clip-path="url(#p9559d44886)" d="M 182.186463 61.055333 
L 194.624266 61.055333 
L 194.624266 59.234407 
L 182.186463 59.234407 
z
" style="fill:#471365;opacity:0.4;stroke:#ffffff;stroke-linejoin:miter;stroke-width:0.8;"/>
   </g>
   <g id="patch_14">
    <path clip-path="url(#p9559d44886)" d="M 194.624266 61.055333 
L 207.062068 61.055333 
L 207.062068 59.234407 
L 194.624266 59.234407 
z
" style="fill:#471365;opacity:0.4;stroke:#ffffff;stroke-linejoin:miter;stroke-width:0.8;"/>
   </g>
   <g id="patch_15">
    <path clip-path="url(#p9559d44886)" d="M 207.062068 61.055333 
L 219.49987 61.055333 
L 219.49987 57.413481 
L 207.062068 57.413481 
z
" style="fill:#471365;opacity:0.4;stroke:#ffffff;stroke-linejoin:miter;stroke-width:0.8;"/>
   </g>
   <g id="patch_16">
    <path clip-path="url(#p9559d44886)" d="M 219.49987 61.055333 
L 231.937672 61.055333 
L 231.937672 55.592556 
L 219.49987 55.592556 
z
" style="fill:#471365;opacity:0.4;stroke:#ffffff;stroke-linejoin:miter;stroke-width:0.8;"/>
   </g>
   <g id="patch_17">
    <path clip-path="url(#p9559d44886)" d="M 231.937672 61.055333 
L 244.375475 61.055333 
L 244.375475 50.129778 
L 231.937672 50.129778 
z
" style="fill:#471365;opacity:0.4;stroke:#ffffff;stroke-linejoin:miter;stroke-width:0.8;"/>
   </g>
   <g id="patch_18">
    <path clip-path="url(#p9559d44886)" d="M 244.375475 61.055333 
L 256.813277 61.055333 
L 256.813277 45.577463 
L 244.375475 45.577463 
z
" style="fill:#471365;opacity:0.4;stroke:#ffffff;stroke-linejoin:miter;stroke-width:0.8;"/>
   </g>
   <g id="patch_19">
    <path clip-path="url(#p9559d44886)" d="M 256.813277 61.055333 
L 269.251079 61.055333 
L 269.251079 42.846074 
L 256.813277 42.846074 
z
" style="fill:#471365;opacity:0.4;stroke:#ffffff;stroke-linejoin:miter;stroke-width:0.8;"/>
   </g>
   <g id="patch_20">
    <path clip-path="url(#p9559d44886)" d="M 269.251079 61.055333 
L 281.688881 61.055333 
L 281.688881 31.920519 
L 269.251079 31.920519 
z
" style="fill:#471365;opacity:0.4;stroke:#ffffff;stroke-linejoin:miter;stroke-width:0.8;"/>
   </g>
   <g id="patch_21">
    <path clip-path="url(#p9559d44886)" d="M 281.688881 61.055333 
L 294.126684 61.055333 
L 294.126684 17.353111 
L 281.688881 17.353111 
z
" style="fill:#471365;opacity:0.4;stroke:#ffffff;stroke-linejoin:miter;stroke-width:0.8;"/>
   </g>
   <g id="line2d_26">
    <path clip-path="url(#p9559d44886)" d="M 75.698401 61.050476 
L 78.226578 61.045735 
L 80.754755 61.037404 
L 83.282932 61.023676 
L 85.811109 61.002496 
L 88.339286 60.971971 
L 90.867463 60.931008 
L 93.39564 60.880063 
L 95.923818 60.821765 
L 98.451995 60.761108 
L 100.980172 60.70498 
L 103.508349 60.660974 
L 106.036526 60.635733 
L 108.564703 60.633306 
L 111.09288 60.654093 
L 113.621057 60.69473 
L 116.149234 60.748981 
L 118.677411 60.809301 
L 121.205588 60.868523 
L 123.733765 60.921162 
L 126.261943 60.964021 
L 128.79012 60.996071 
L 131.318297 61.017827 
L 133.846474 61.030508 
L 136.374651 61.035262 
L 138.902828 61.032613 
L 141.431005 61.022235 
L 143.959182 61.003057 
L 146.487359 60.973684 
L 149.015536 60.933059 
L 151.543713 60.881209 
L 154.071891 60.819804 
L 156.600068 60.752257 
L 159.128245 60.683126 
L 161.656422 60.61683 
L 164.184599 60.556007 
L 166.712776 60.500097 
L 169.240953 60.444781 
L 171.76913 60.382691 
L 174.297307 60.305314 
L 176.825484 60.205549 
L 179.353661 60.080036 
L 181.881839 59.930448 
L 184.410016 59.76323 
L 186.938193 59.587847 
L 189.46637 59.414044 
L 191.994547 59.24894 
L 194.522724 59.094768 
L 197.050901 58.947856 
L 199.579078 58.799059 
L 202.107255 58.635382 
L 204.635432 58.442265 
L 207.163609 58.205835 
L 209.691786 57.91455 
L 212.219964 57.56001 
L 214.748141 57.137026 
L 217.276318 56.643361 
L 219.804495 56.079535 
L 222.332672 55.448914 
L 224.860849 54.757931 
L 227.389026 54.016065 
L 229.917203 53.235162 
L 232.44538 52.427972 
L 234.973557 51.606161 
L 237.501734 50.778333 
L 240.029912 49.948627 
L 242.558089 49.116168 
L 245.086266 48.275293 
L 247.614443 47.416181 
L 250.14262 46.525483 
L 252.670797 45.58678 
L 255.198974 44.581023 
L 257.727151 43.487505 
L 260.255328 42.286111 
L 262.783505 40.961635 
L 265.311682 39.510502 
L 267.839859 37.949521 
L 270.368037 36.325196 
L 272.896214 34.721078 
L 275.424391 33.25994 
L 277.952568 32.097651 
L 280.480745 31.406873 
L 283.008922 31.351103 
L 285.537099 32.052897 
L 288.065276 33.563247 
L 290.593453 35.840776 
L 293.12163 38.748316 
L 295.649807 42.070213 
L 298.177985 45.547469 
L 300.706162 48.922015 
L 303.234339 51.978352 
L 305.762516 54.572103 
L 308.290693 56.639852 
L 310.81887 58.19095 
L 313.347047 59.287058 
L 315.875224 60.017344 
L 318.403401 60.476348 
L 320.931578 60.748626 
L 323.459755 60.901111 
L 325.987933 60.981755 
" style="fill:none;stroke:#471365;stroke-linecap:round;stroke-width:1.2;"/>
   </g>
   <g id="patch_22">
    <path d="M 49.418 61.055333 
L 352.268333 61.055333 
" style="fill:none;stroke:#262626;stroke-linecap:square;stroke-linejoin:miter;"/>
   </g>
  </g>
  <g id="axes_3">
   <g id="patch_23">
    <path d="M 372.236333 390.332 
L 416.832 390.332 
L 416.832 81.023333 
L 372.236333 81.023333 
z
" style="fill:#ffffff;"/>
   </g>
   <g id="matplotlib.axis_5">
    <g id="xtick_17"/>
    <g id="xtick_18"/>
   </g>
   <g id="matplotlib.axis_6">
    <g id="ytick_9">
     <g id="line2d_27">
      <g>
       <use style="fill:#262626;stroke:#262626;" x="372.236333" xlink:href="#m4be07806a1" y="390.332"/>
      </g>
     </g>
    </g>
    <g id="ytick_10">
     <g id="line2d_28">
      <g>
       <use style="fill:#262626;stroke:#262626;" x="372.236333" xlink:href="#m4be07806a1" y="334.094061"/>
      </g>
     </g>
    </g>
    <g id="ytick_11">
     <g id="line2d_29">
      <g>
       <use style="fill:#262626;stroke:#262626;" x="372.236333" xlink:href="#m4be07806a1" y="277.856121"/>
      </g>
     </g>
    </g>
    <g id="ytick_12">
     <g id="line2d_30">
      <g>
       <use style="fill:#262626;stroke:#262626;" x="372.236333" xlink:href="#m4be07806a1" y="221.618182"/>
      </g>
     </g>
    </g>
    <g id="ytick_13">
     <g id="line2d_31">
      <g>
       <use style="fill:#262626;stroke:#262626;" x="372.236333" xlink:href="#m4be07806a1" y="165.380242"/>
      </g>
     </g>
    </g>
    <g id="ytick_14">
     <g id="line2d_32">
      <g>
       <use style="fill:#262626;stroke:#262626;" x="372.236333" xlink:href="#m4be07806a1" y="109.142303"/>
      </g>
     </g>
    </g>
   </g>
   <g id="patch_24">
    <path clip-path="url(#p048c0aaf20)" d="M 372.236333 343.431099 
L 399.718257 343.431099 
L 399.718257 310.772374 
L 372.236333 310.772374 
z
" style="fill:#471365;opacity:0.4;stroke:#ffffff;stroke-linejoin:miter;stroke-width:0.8;"/>
   </g>
   <g id="patch_25">
    <path clip-path="url(#p048c0aaf20)" d="M 372.236333 310.772374 
L 414.708397 310.772374 
L 414.708397 278.113649 
L 372.236333 278.113649 
z
" style="fill:#471365;opacity:0.4;stroke:#ffffff;stroke-linejoin:miter;stroke-width:0.8;"/>
   </g>
   <g id="patch_26">
    <path clip-path="url(#p048c0aaf20)" d="M 372.236333 278.113649 
L 402.216613 278.113649 
L 402.216613 245.454924 
L 372.236333 245.454924 
z
" style="fill:#471365;opacity:0.4;stroke:#ffffff;stroke-linejoin:miter;stroke-width:0.8;"/>
   </g>
   <g id="patch_27">
    <path clip-path="url(#p048c0aaf20)" d="M 372.236333 245.454924 
L 402.216613 245.454924 
L 402.216613 212.796199 
L 372.236333 212.796199 
z
" style="fill:#471365;opacity:0.4;stroke:#ffffff;stroke-linejoin:miter;stroke-width:0.8;"/>
   </g>
   <g id="patch_28">
    <path clip-path="url(#p048c0aaf20)" d="M 372.236333 212.796199 
L 392.223187 212.796199 
L 392.223187 180.137474 
L 372.236333 180.137474 
z
" style="fill:#471365;opacity:0.4;stroke:#ffffff;stroke-linejoin:miter;stroke-width:0.8;"/>
   </g>
   <g id="patch_29">
    <path clip-path="url(#p048c0aaf20)" d="M 372.236333 180.137474 
L 393.472365 180.137474 
L 393.472365 147.478749 
L 372.236333 147.478749 
z
" style="fill:#471365;opacity:0.4;stroke:#ffffff;stroke-linejoin:miter;stroke-width:0.8;"/>
   </g>
   <g id="patch_30">
    <path clip-path="url(#p048c0aaf20)" d="M 372.236333 147.478749 
L 382.22976 147.478749 
L 382.22976 114.820024 
L 372.236333 114.820024 
z
" style="fill:#471365;opacity:0.4;stroke:#ffffff;stroke-linejoin:miter;stroke-width:0.8;"/>
   </g>
   <g id="line2d_33">
    <path clip-path="url(#p048c0aaf20)" d="M 372.277846 409.696024 
L 372.306414 406.048136 
L 372.351736 402.400248 
L 372.421728 398.75236 
L 372.526957 395.104472 
L 372.680973 391.456584 
L 372.900438 387.808695 
L 373.204915 384.160807 
L 373.616234 380.512919 
L 374.15735 376.865031 
L 374.850724 373.217143 
L 375.716319 369.569255 
L 376.769411 365.921367 
L 378.018522 362.273479 
L 379.463778 358.62559 
L 381.096001 354.977702 
L 382.896725 351.329814 
L 384.839181 347.681926 
L 386.890092 344.034038 
L 389.011968 340.38615 
L 391.16549 336.738262 
L 393.311579 333.090373 
L 395.412843 329.442485 
L 397.434314 325.794597 
L 399.343586 322.146709 
L 401.110655 318.498821 
L 402.707853 314.850933 
L 404.110217 311.203045 
L 405.296471 307.555156 
L 406.250583 303.907268 
L 406.963588 300.25938 
L 407.435247 296.611492 
L 407.675047 292.963604 
L 407.702162 289.315716 
L 407.54422 285.667828 
L 407.234989 282.01994 
L 406.811335 278.372051 
L 406.309969 274.724163 
L 405.764504 271.076275 
L 405.20324 267.428387 
L 404.647881 263.780499 
L 404.113178 260.132611 
L 403.607294 256.484723 
L 403.132598 252.836834 
L 402.686626 249.188946 
L 402.263035 245.541058 
L 401.852517 241.89317 
L 401.443759 238.245282 
L 401.024545 234.597394 
L 400.583099 230.949506 
L 400.109584 227.301617 
L 399.597607 223.653729 
L 399.045409 220.005841 
L 398.456453 216.357953 
L 397.839182 212.710065 
L 397.205864 209.062177 
L 396.570674 205.414289 
L 395.947325 201.766401 
L 395.34667 198.118512 
L 394.774731 194.470624 
L 394.231512 190.822736 
L 393.710816 187.174848 
L 393.201086 183.52696 
L 392.687116 179.879072 
L 392.152335 176.231184 
L 391.581272 172.583295 
L 390.961803 168.935407 
L 390.286805 165.287519 
L 389.554972 161.639631 
L 388.770649 157.991743 
L 387.942766 154.343855 
L 387.083079 150.695967 
L 386.204078 147.048078 
L 385.316993 143.40019 
L 384.430298 139.752302 
L 383.549013 136.104414 
L 382.674911 132.456526 
L 381.80754 128.808638 
L 380.945779 125.16075 
L 380.089518 121.512861 
L 379.241067 117.864973 
L 378.405944 114.217085 
L 377.592885 110.569197 
L 376.813095 106.921309 
L 376.078929 103.273421 
L 375.402305 99.625533 
L 374.793185 95.977645 
L 374.258399 92.329756 
L 373.800995 88.681868 
L 373.420151 85.03398 
L 373.111612 81.386092 
L 372.868462 77.738204 
L 372.682092 74.090316 
L 372.543164 70.442428 
L 372.44244 66.794539 
L 372.371414 63.146651 
L 372.322697 59.498763 
L 372.290191 55.850875 
L 372.269089 52.202987 
L 372.25576 48.555099 
" style="fill:none;stroke:#471365;stroke-linecap:round;stroke-width:1.2;"/>
   </g>
   <g id="patch_31">
    <path d="M 372.236333 390.332 
L 372.236333 81.023333 
" style="fill:none;stroke:#262626;stroke-linecap:square;stroke-linejoin:miter;"/>
   </g>
  </g>
 </g>
 <defs>
  <clipPath id="p97338bdd6a">
   <rect height="309.308667" width="302.850333" x="49.418" y="81.023333"/>
  </clipPath>
  <clipPath id="p9559d44886">
   <rect height="45.887333" width="302.850333" x="49.418" y="15.168"/>
  </clipPath>
  <clipPath id="p048c0aaf20">
   <rect height="309.308667" width="44.595667" x="372.236333" y="81.023333"/>
  </clipPath>
 </defs>
</svg>
