<?xml version="1.0" encoding="utf-8" standalone="no"?>
<!DOCTYPE svg PUBLIC "-//W3C//DTD SVG 1.1//EN"
  "http://www.w3.org/Graphics/SVG/1.1/DTD/svg11.dtd">
<!-- Created with matplotlib (http://matplotlib.org/) -->
<svg height="432pt" version="1.1" viewBox="0 0 432 432" width="432pt" xmlns="http://www.w3.org/2000/svg" xmlns:xlink="http://www.w3.org/1999/xlink">
 <defs>
  <style type="text/css">
*{stroke-linecap:butt;stroke-linejoin:round;}
  </style>
 </defs>
 <g id="figure_1">
  <g id="patch_1">
   <path d="M 0 432 
L 432 432 
L 432 0 
L 0 0 
z
" style="fill:#ffffff;"/>
  </g>
  <g id="axes_1">
   <g id="patch_2">
    <path d="M 46.068 387.732 
L 354.386057 387.732 
L 354.386057 77.922514 
L 46.068 77.922514 
z
" style="fill:#ffffff;"/>
   </g>
   <g id="matplotlib.axis_1">
    <g id="xtick_1">
     <g id="line2d_1">
      <defs>
       <path d="M 0 0 
L 0 4.8 
" id="maa92ebbb9e" style="stroke:#262626;"/>
      </defs>
      <g>
       <use style="fill:#262626;stroke:#262626;" x="50.6119" xlink:href="#maa92ebbb9e" y="387.732"/>
      </g>
     </g>
     <g id="text_1">
      <!-- 0.0 -->
      <defs>
       <path d="M 31.78125 66.40625 
Q 24.171875 66.40625 20.328125 58.90625 
Q 16.5 51.421875 16.5 36.375 
Q 16.5 21.390625 20.328125 13.890625 
Q 24.171875 6.390625 31.78125 6.390625 
Q 39.453125 6.390625 43.28125 13.890625 
Q 47.125 21.390625 47.125 36.375 
Q 47.125 51.421875 43.28125 58.90625 
Q 39.453125 66.40625 31.78125 66.40625 
z
M 31.78125 74.21875 
Q 44.046875 74.21875 50.515625 64.515625 
Q 56.984375 54.828125 56.984375 36.375 
Q 56.984375 17.96875 50.515625 8.265625 
Q 44.046875 -1.421875 31.78125 -1.421875 
Q 19.53125 -1.421875 13.0625 8.265625 
Q 6.59375 17.96875 6.59375 36.375 
Q 6.59375 54.828125 13.0625 64.515625 
Q 19.53125 74.21875 31.78125 74.21875 
z
" id="DejaVuSans-30"/>
       <path d="M 10.6875 12.40625 
L 21 12.40625 
L 21 0 
L 10.6875 0 
z
" id="DejaVuSans-2e"/>
      </defs>
      <g style="fill:#262626;" transform="translate(43.614525 402.718625)scale(0.088 -0.088)">
       <use xlink:href="#DejaVuSans-30"/>
       <use x="63.623047" xlink:href="#DejaVuSans-2e"/>
       <use x="95.410156" xlink:href="#DejaVuSans-30"/>
      </g>
     </g>
    </g>
    <g id="xtick_2">
     <g id="line2d_2">
      <g>
       <use style="fill:#262626;stroke:#262626;" x="95.434308" xlink:href="#maa92ebbb9e" y="387.732"/>
      </g>
     </g>
     <g id="text_2">
      <!-- 0.2 -->
      <defs>
       <path d="M 19.1875 8.296875 
L 53.609375 8.296875 
L 53.609375 0 
L 7.328125 0 
L 7.328125 8.296875 
Q 12.9375 14.109375 22.625 23.890625 
Q 32.328125 33.6875 34.8125 36.53125 
Q 39.546875 41.84375 41.421875 45.53125 
Q 43.3125 49.21875 43.3125 52.78125 
Q 43.3125 58.59375 39.234375 62.25 
Q 35.15625 65.921875 28.609375 65.921875 
Q 23.96875 65.921875 18.8125 64.3125 
Q 13.671875 62.703125 7.8125 59.421875 
L 7.8125 69.390625 
Q 13.765625 71.78125 18.9375 73 
Q 24.125 74.21875 28.421875 74.21875 
Q 39.75 74.21875 46.484375 68.546875 
Q 53.21875 62.890625 53.21875 53.421875 
Q 53.21875 48.921875 51.53125 44.890625 
Q 49.859375 40.875 45.40625 35.40625 
Q 44.1875 33.984375 37.640625 27.21875 
Q 31.109375 20.453125 19.1875 8.296875 
z
" id="DejaVuSans-32"/>
      </defs>
      <g style="fill:#262626;" transform="translate(88.436933 402.718625)scale(0.088 -0.088)">
       <use xlink:href="#DejaVuSans-30"/>
       <use x="63.623047" xlink:href="#DejaVuSans-2e"/>
       <use x="95.410156" xlink:href="#DejaVuSans-32"/>
      </g>
     </g>
    </g>
    <g id="xtick_3">
     <g id="line2d_3">
      <g>
       <use style="fill:#262626;stroke:#262626;" x="140.256716" xlink:href="#maa92ebbb9e" y="387.732"/>
      </g>
     </g>
     <g id="text_3">
      <!-- 0.4 -->
      <defs>
       <path d="M 37.796875 64.3125 
L 12.890625 25.390625 
L 37.796875 25.390625 
z
M 35.203125 72.90625 
L 47.609375 72.90625 
L 47.609375 25.390625 
L 58.015625 25.390625 
L 58.015625 17.1875 
L 47.609375 17.1875 
L 47.609375 0 
L 37.796875 0 
L 37.796875 17.1875 
L 4.890625 17.1875 
L 4.890625 26.703125 
z
" id="DejaVuSans-34"/>
      </defs>
      <g style="fill:#262626;" transform="translate(133.259341 402.718625)scale(0.088 -0.088)">
       <use xlink:href="#DejaVuSans-30"/>
       <use x="63.623047" xlink:href="#DejaVuSans-2e"/>
       <use x="95.410156" xlink:href="#DejaVuSans-34"/>
      </g>
     </g>
    </g>
    <g id="xtick_4">
     <g id="line2d_4">
      <g>
       <use style="fill:#262626;stroke:#262626;" x="185.079124" xlink:href="#maa92ebbb9e" y="387.732"/>
      </g>
     </g>
     <g id="text_4">
      <!-- 0.6 -->
      <defs>
       <path d="M 33.015625 40.375 
Q 26.375 40.375 22.484375 35.828125 
Q 18.609375 31.296875 18.609375 23.390625 
Q 18.609375 15.53125 22.484375 10.953125 
Q 26.375 6.390625 33.015625 6.390625 
Q 39.65625 6.390625 43.53125 10.953125 
Q 47.40625 15.53125 47.40625 23.390625 
Q 47.40625 31.296875 43.53125 35.828125 
Q 39.65625 40.375 33.015625 40.375 
z
M 52.59375 71.296875 
L 52.59375 62.3125 
Q 48.875 64.0625 45.09375 64.984375 
Q 41.3125 65.921875 37.59375 65.921875 
Q 27.828125 65.921875 22.671875 59.328125 
Q 17.53125 52.734375 16.796875 39.40625 
Q 19.671875 43.65625 24.015625 45.921875 
Q 28.375 48.1875 33.59375 48.1875 
Q 44.578125 48.1875 50.953125 41.515625 
Q 57.328125 34.859375 57.328125 23.390625 
Q 57.328125 12.15625 50.6875 5.359375 
Q 44.046875 -1.421875 33.015625 -1.421875 
Q 20.359375 -1.421875 13.671875 8.265625 
Q 6.984375 17.96875 6.984375 36.375 
Q 6.984375 53.65625 15.1875 63.9375 
Q 23.390625 74.21875 37.203125 74.21875 
Q 40.921875 74.21875 44.703125 73.484375 
Q 48.484375 72.75 52.59375 71.296875 
z
" id="DejaVuSans-36"/>
      </defs>
      <g style="fill:#262626;" transform="translate(178.081749 402.718625)scale(0.088 -0.088)">
       <use xlink:href="#DejaVuSans-30"/>
       <use x="63.623047" xlink:href="#DejaVuSans-2e"/>
       <use x="95.410156" xlink:href="#DejaVuSans-36"/>
      </g>
     </g>
    </g>
    <g id="xtick_5">
     <g id="line2d_5">
      <g>
       <use style="fill:#262626;stroke:#262626;" x="229.901532" xlink:href="#maa92ebbb9e" y="387.732"/>
      </g>
     </g>
     <g id="text_5">
      <!-- 0.8 -->
      <defs>
       <path d="M 31.78125 34.625 
Q 24.75 34.625 20.71875 30.859375 
Q 16.703125 27.09375 16.703125 20.515625 
Q 16.703125 13.921875 20.71875 10.15625 
Q 24.75 6.390625 31.78125 6.390625 
Q 38.8125 6.390625 42.859375 10.171875 
Q 46.921875 13.96875 46.921875 20.515625 
Q 46.921875 27.09375 42.890625 30.859375 
Q 38.875 34.625 31.78125 34.625 
z
M 21.921875 38.8125 
Q 15.578125 40.375 12.03125 44.71875 
Q 8.5 49.078125 8.5 55.328125 
Q 8.5 64.0625 14.71875 69.140625 
Q 20.953125 74.21875 31.78125 74.21875 
Q 42.671875 74.21875 48.875 69.140625 
Q 55.078125 64.0625 55.078125 55.328125 
Q 55.078125 49.078125 51.53125 44.71875 
Q 48 40.375 41.703125 38.8125 
Q 48.828125 37.15625 52.796875 32.3125 
Q 56.78125 27.484375 56.78125 20.515625 
Q 56.78125 9.90625 50.3125 4.234375 
Q 43.84375 -1.421875 31.78125 -1.421875 
Q 19.734375 -1.421875 13.25 4.234375 
Q 6.78125 9.90625 6.78125 20.515625 
Q 6.78125 27.484375 10.78125 32.3125 
Q 14.796875 37.15625 21.921875 38.8125 
z
M 18.3125 54.390625 
Q 18.3125 48.734375 21.84375 45.5625 
Q 25.390625 42.390625 31.78125 42.390625 
Q 38.140625 42.390625 41.71875 45.5625 
Q 45.3125 48.734375 45.3125 54.390625 
Q 45.3125 60.0625 41.71875 63.234375 
Q 38.140625 66.40625 31.78125 66.40625 
Q 25.390625 66.40625 21.84375 63.234375 
Q 18.3125 60.0625 18.3125 54.390625 
z
" id="DejaVuSans-38"/>
      </defs>
      <g style="fill:#262626;" transform="translate(222.904157 402.718625)scale(0.088 -0.088)">
       <use xlink:href="#DejaVuSans-30"/>
       <use x="63.623047" xlink:href="#DejaVuSans-2e"/>
       <use x="95.410156" xlink:href="#DejaVuSans-38"/>
      </g>
     </g>
    </g>
    <g id="xtick_6">
     <g id="line2d_6">
      <g>
       <use style="fill:#262626;stroke:#262626;" x="274.72394" xlink:href="#maa92ebbb9e" y="387.732"/>
      </g>
     </g>
     <g id="text_6">
      <!-- 1.0 -->
      <defs>
       <path d="M 12.40625 8.296875 
L 28.515625 8.296875 
L 28.515625 63.921875 
L 10.984375 60.40625 
L 10.984375 69.390625 
L 28.421875 72.90625 
L 38.28125 72.90625 
L 38.28125 8.296875 
L 54.390625 8.296875 
L 54.390625 0 
L 12.40625 0 
z
" id="DejaVuSans-31"/>
      </defs>
      <g style="fill:#262626;" transform="translate(267.726565 402.718625)scale(0.088 -0.088)">
       <use xlink:href="#DejaVuSans-31"/>
       <use x="63.623047" xlink:href="#DejaVuSans-2e"/>
       <use x="95.410156" xlink:href="#DejaVuSans-30"/>
      </g>
     </g>
    </g>
    <g id="xtick_7">
     <g id="line2d_7">
      <g>
       <use style="fill:#262626;stroke:#262626;" x="319.546348" xlink:href="#maa92ebbb9e" y="387.732"/>
      </g>
     </g>
     <g id="text_7">
      <!-- 1.2 -->
      <g style="fill:#262626;" transform="translate(312.548973 402.718625)scale(0.088 -0.088)">
       <use xlink:href="#DejaVuSans-31"/>
       <use x="63.623047" xlink:href="#DejaVuSans-2e"/>
       <use x="95.410156" xlink:href="#DejaVuSans-32"/>
      </g>
     </g>
    </g>
    <g id="text_8">
     <!-- $\Delta_{g}$ -->
     <defs>
      <path d="M 34.1875 63.1875 
L 14.15625 8.203125 
L 54.25 8.203125 
z
M 0.78125 0 
L 28.609375 72.90625 
L 39.796875 72.90625 
L 67.578125 0 
z
" id="DejaVuSans-394"/>
      <path d="M 59.625 54.6875 
L 50.296875 6.78125 
Q 47.609375 -7.125 40.015625 -13.953125 
Q 32.421875 -20.796875 19.578125 -20.796875 
Q 14.84375 -20.796875 10.78125 -20.09375 
Q 6.734375 -19.390625 3.21875 -17.921875 
L 4.890625 -9.1875 
Q 8.203125 -11.328125 11.90625 -12.34375 
Q 15.625 -13.375 19.828125 -13.375 
Q 28.375 -13.375 33.859375 -8.703125 
Q 39.359375 -4.046875 41.109375 4.6875 
L 41.890625 8.796875 
Q 38.140625 4.5 33.15625 2.25 
Q 28.171875 0 22.40625 0 
Q 14.109375 0 9.34375 5.484375 
Q 4.59375 10.984375 4.59375 20.609375 
Q 4.59375 28.171875 7.46875 35.421875 
Q 10.359375 42.671875 15.578125 48.296875 
Q 19.046875 52 23.65625 54 
Q 28.265625 56 33.296875 56 
Q 38.8125 56 42.90625 53.4375 
Q 47.015625 50.875 49.03125 46.1875 
L 50.59375 54.6875 
z
M 46.09375 34.625 
Q 46.09375 41.265625 42.96875 44.875 
Q 39.84375 48.484375 34.078125 48.484375 
Q 30.515625 48.484375 27.296875 47.0625 
Q 24.078125 45.65625 21.78125 43.109375 
Q 18.0625 38.921875 15.984375 33.234375 
Q 13.921875 27.546875 13.921875 21.484375 
Q 13.921875 14.75 17.0625 11.125 
Q 20.21875 7.515625 26.125 7.515625 
Q 34.671875 7.515625 40.375 15.25 
Q 46.09375 23 46.09375 34.625 
z
" id="DejaVuSans-Oblique-67"/>
     </defs>
     <g style="fill:#262626;" transform="translate(194.611029 415.55675)scale(0.096 -0.096)">
      <use transform="translate(0 0.09375)" xlink:href="#DejaVuSans-394"/>
      <use transform="translate(69.365234 -16.3125)scale(0.7)" xlink:href="#DejaVuSans-Oblique-67"/>
     </g>
    </g>
   </g>
   <g id="matplotlib.axis_2">
    <g id="ytick_1">
     <g id="line2d_8">
      <defs>
       <path d="M 0 0 
L -4.8 0 
" id="m14f9652351" style="stroke:#262626;"/>
      </defs>
      <g>
       <use style="fill:#262626;stroke:#262626;" x="46.068" xlink:href="#m14f9652351" y="360.891681"/>
      </g>
     </g>
     <g id="text_9">
      <!-- 40 -->
      <g style="fill:#262626;" transform="translate(26.57 364.234994)scale(0.088 -0.088)">
       <use xlink:href="#DejaVuSans-34"/>
       <use x="63.623047" xlink:href="#DejaVuSans-30"/>
      </g>
     </g>
    </g>
    <g id="ytick_2">
     <g id="line2d_9">
      <g>
       <use style="fill:#262626;stroke:#262626;" x="46.068" xlink:href="#m14f9652351" y="325.683972"/>
      </g>
     </g>
     <g id="text_10">
      <!-- 50 -->
      <defs>
       <path d="M 10.796875 72.90625 
L 49.515625 72.90625 
L 49.515625 64.59375 
L 19.828125 64.59375 
L 19.828125 46.734375 
Q 21.96875 47.46875 24.109375 47.828125 
Q 26.265625 48.1875 28.421875 48.1875 
Q 40.625 48.1875 47.75 41.5 
Q 54.890625 34.8125 54.890625 23.390625 
Q 54.890625 11.625 47.5625 5.09375 
Q 40.234375 -1.421875 26.90625 -1.421875 
Q 22.3125 -1.421875 17.546875 -0.640625 
Q 12.796875 0.140625 7.71875 1.703125 
L 7.71875 11.625 
Q 12.109375 9.234375 16.796875 8.0625 
Q 21.484375 6.890625 26.703125 6.890625 
Q 35.15625 6.890625 40.078125 11.328125 
Q 45.015625 15.765625 45.015625 23.390625 
Q 45.015625 31 40.078125 35.4375 
Q 35.15625 39.890625 26.703125 39.890625 
Q 22.75 39.890625 18.8125 39.015625 
Q 14.890625 38.140625 10.796875 36.28125 
z
" id="DejaVuSans-35"/>
      </defs>
      <g style="fill:#262626;" transform="translate(26.57 329.027285)scale(0.088 -0.088)">
       <use xlink:href="#DejaVuSans-35"/>
       <use x="63.623047" xlink:href="#DejaVuSans-30"/>
      </g>
     </g>
    </g>
    <g id="ytick_3">
     <g id="line2d_10">
      <g>
       <use style="fill:#262626;stroke:#262626;" x="46.068" xlink:href="#m14f9652351" y="290.476263"/>
      </g>
     </g>
     <g id="text_11">
      <!-- 60 -->
      <g style="fill:#262626;" transform="translate(26.57 293.819576)scale(0.088 -0.088)">
       <use xlink:href="#DejaVuSans-36"/>
       <use x="63.623047" xlink:href="#DejaVuSans-30"/>
      </g>
     </g>
    </g>
    <g id="ytick_4">
     <g id="line2d_11">
      <g>
       <use style="fill:#262626;stroke:#262626;" x="46.068" xlink:href="#m14f9652351" y="255.268554"/>
      </g>
     </g>
     <g id="text_12">
      <!-- 70 -->
      <defs>
       <path d="M 8.203125 72.90625 
L 55.078125 72.90625 
L 55.078125 68.703125 
L 28.609375 0 
L 18.3125 0 
L 43.21875 64.59375 
L 8.203125 64.59375 
z
" id="DejaVuSans-37"/>
      </defs>
      <g style="fill:#262626;" transform="translate(26.57 258.611867)scale(0.088 -0.088)">
       <use xlink:href="#DejaVuSans-37"/>
       <use x="63.623047" xlink:href="#DejaVuSans-30"/>
      </g>
     </g>
    </g>
    <g id="ytick_5">
     <g id="line2d_12">
      <g>
       <use style="fill:#262626;stroke:#262626;" x="46.068" xlink:href="#m14f9652351" y="220.060845"/>
      </g>
     </g>
     <g id="text_13">
      <!-- 80 -->
      <g style="fill:#262626;" transform="translate(26.57 223.404158)scale(0.088 -0.088)">
       <use xlink:href="#DejaVuSans-38"/>
       <use x="63.623047" xlink:href="#DejaVuSans-30"/>
      </g>
     </g>
    </g>
    <g id="ytick_6">
     <g id="line2d_13">
      <g>
       <use style="fill:#262626;stroke:#262626;" x="46.068" xlink:href="#m14f9652351" y="184.853137"/>
      </g>
     </g>
     <g id="text_14">
      <!-- 90 -->
      <defs>
       <path d="M 10.984375 1.515625 
L 10.984375 10.5 
Q 14.703125 8.734375 18.5 7.8125 
Q 22.3125 6.890625 25.984375 6.890625 
Q 35.75 6.890625 40.890625 13.453125 
Q 46.046875 20.015625 46.78125 33.40625 
Q 43.953125 29.203125 39.59375 26.953125 
Q 35.25 24.703125 29.984375 24.703125 
Q 19.046875 24.703125 12.671875 31.3125 
Q 6.296875 37.9375 6.296875 49.421875 
Q 6.296875 60.640625 12.9375 67.421875 
Q 19.578125 74.21875 30.609375 74.21875 
Q 43.265625 74.21875 49.921875 64.515625 
Q 56.59375 54.828125 56.59375 36.375 
Q 56.59375 19.140625 48.40625 8.859375 
Q 40.234375 -1.421875 26.421875 -1.421875 
Q 22.703125 -1.421875 18.890625 -0.6875 
Q 15.09375 0.046875 10.984375 1.515625 
z
M 30.609375 32.421875 
Q 37.25 32.421875 41.125 36.953125 
Q 45.015625 41.5 45.015625 49.421875 
Q 45.015625 57.28125 41.125 61.84375 
Q 37.25 66.40625 30.609375 66.40625 
Q 23.96875 66.40625 20.09375 61.84375 
Q 16.21875 57.28125 16.21875 49.421875 
Q 16.21875 41.5 20.09375 36.953125 
Q 23.96875 32.421875 30.609375 32.421875 
z
" id="DejaVuSans-39"/>
      </defs>
      <g style="fill:#262626;" transform="translate(26.57 188.196449)scale(0.088 -0.088)">
       <use xlink:href="#DejaVuSans-39"/>
       <use x="63.623047" xlink:href="#DejaVuSans-30"/>
      </g>
     </g>
    </g>
    <g id="ytick_7">
     <g id="line2d_14">
      <g>
       <use style="fill:#262626;stroke:#262626;" x="46.068" xlink:href="#m14f9652351" y="149.645428"/>
      </g>
     </g>
     <g id="text_15">
      <!-- 100 -->
      <g style="fill:#262626;" transform="translate(20.971 152.98874)scale(0.088 -0.088)">
       <use xlink:href="#DejaVuSans-31"/>
       <use x="63.623047" xlink:href="#DejaVuSans-30"/>
       <use x="127.246094" xlink:href="#DejaVuSans-30"/>
      </g>
     </g>
    </g>
    <g id="ytick_8">
     <g id="line2d_15">
      <g>
       <use style="fill:#262626;stroke:#262626;" x="46.068" xlink:href="#m14f9652351" y="114.437719"/>
      </g>
     </g>
     <g id="text_16">
      <!-- 110 -->
      <g style="fill:#262626;" transform="translate(20.971 117.781031)scale(0.088 -0.088)">
       <use xlink:href="#DejaVuSans-31"/>
       <use x="63.623047" xlink:href="#DejaVuSans-31"/>
       <use x="127.246094" xlink:href="#DejaVuSans-30"/>
      </g>
     </g>
    </g>
    <g id="ytick_9">
     <g id="line2d_16">
      <g>
       <use style="fill:#262626;stroke:#262626;" x="46.068" xlink:href="#m14f9652351" y="79.23001"/>
      </g>
     </g>
     <g id="text_17">
      <!-- 120 -->
      <g style="fill:#262626;" transform="translate(20.971 82.573322)scale(0.088 -0.088)">
       <use xlink:href="#DejaVuSans-31"/>
       <use x="63.623047" xlink:href="#DejaVuSans-32"/>
       <use x="127.246094" xlink:href="#DejaVuSans-30"/>
      </g>
     </g>
    </g>
    <g id="text_18">
     <!-- Time to cancer -->
     <defs>
      <path d="M -0.296875 72.90625 
L 61.375 72.90625 
L 61.375 64.59375 
L 35.5 64.59375 
L 35.5 0 
L 25.59375 0 
L 25.59375 64.59375 
L -0.296875 64.59375 
z
" id="DejaVuSans-54"/>
      <path d="M 9.421875 54.6875 
L 18.40625 54.6875 
L 18.40625 0 
L 9.421875 0 
z
M 9.421875 75.984375 
L 18.40625 75.984375 
L 18.40625 64.59375 
L 9.421875 64.59375 
z
" id="DejaVuSans-69"/>
      <path d="M 52 44.1875 
Q 55.375 50.25 60.0625 53.125 
Q 64.75 56 71.09375 56 
Q 79.640625 56 84.28125 50.015625 
Q 88.921875 44.046875 88.921875 33.015625 
L 88.921875 0 
L 79.890625 0 
L 79.890625 32.71875 
Q 79.890625 40.578125 77.09375 44.375 
Q 74.3125 48.1875 68.609375 48.1875 
Q 61.625 48.1875 57.5625 43.546875 
Q 53.515625 38.921875 53.515625 30.90625 
L 53.515625 0 
L 44.484375 0 
L 44.484375 32.71875 
Q 44.484375 40.625 41.703125 44.40625 
Q 38.921875 48.1875 33.109375 48.1875 
Q 26.21875 48.1875 22.15625 43.53125 
Q 18.109375 38.875 18.109375 30.90625 
L 18.109375 0 
L 9.078125 0 
L 9.078125 54.6875 
L 18.109375 54.6875 
L 18.109375 46.1875 
Q 21.1875 51.21875 25.484375 53.609375 
Q 29.78125 56 35.6875 56 
Q 41.65625 56 45.828125 52.96875 
Q 50 49.953125 52 44.1875 
z
" id="DejaVuSans-6d"/>
      <path d="M 56.203125 29.59375 
L 56.203125 25.203125 
L 14.890625 25.203125 
Q 15.484375 15.921875 20.484375 11.0625 
Q 25.484375 6.203125 34.421875 6.203125 
Q 39.59375 6.203125 44.453125 7.46875 
Q 49.3125 8.734375 54.109375 11.28125 
L 54.109375 2.78125 
Q 49.265625 0.734375 44.1875 -0.34375 
Q 39.109375 -1.421875 33.890625 -1.421875 
Q 20.796875 -1.421875 13.15625 6.1875 
Q 5.515625 13.8125 5.515625 26.8125 
Q 5.515625 40.234375 12.765625 48.109375 
Q 20.015625 56 32.328125 56 
Q 43.359375 56 49.78125 48.890625 
Q 56.203125 41.796875 56.203125 29.59375 
z
M 47.21875 32.234375 
Q 47.125 39.59375 43.09375 43.984375 
Q 39.0625 48.390625 32.421875 48.390625 
Q 24.90625 48.390625 20.390625 44.140625 
Q 15.875 39.890625 15.1875 32.171875 
z
" id="DejaVuSans-65"/>
      <path id="DejaVuSans-20"/>
      <path d="M 18.3125 70.21875 
L 18.3125 54.6875 
L 36.8125 54.6875 
L 36.8125 47.703125 
L 18.3125 47.703125 
L 18.3125 18.015625 
Q 18.3125 11.328125 20.140625 9.421875 
Q 21.96875 7.515625 27.59375 7.515625 
L 36.8125 7.515625 
L 36.8125 0 
L 27.59375 0 
Q 17.1875 0 13.234375 3.875 
Q 9.28125 7.765625 9.28125 18.015625 
L 9.28125 47.703125 
L 2.6875 47.703125 
L 2.6875 54.6875 
L 9.28125 54.6875 
L 9.28125 70.21875 
z
" id="DejaVuSans-74"/>
      <path d="M 30.609375 48.390625 
Q 23.390625 48.390625 19.1875 42.75 
Q 14.984375 37.109375 14.984375 27.296875 
Q 14.984375 17.484375 19.15625 11.84375 
Q 23.34375 6.203125 30.609375 6.203125 
Q 37.796875 6.203125 41.984375 11.859375 
Q 46.1875 17.53125 46.1875 27.296875 
Q 46.1875 37.015625 41.984375 42.703125 
Q 37.796875 48.390625 30.609375 48.390625 
z
M 30.609375 56 
Q 42.328125 56 49.015625 48.375 
Q 55.71875 40.765625 55.71875 27.296875 
Q 55.71875 13.875 49.015625 6.21875 
Q 42.328125 -1.421875 30.609375 -1.421875 
Q 18.84375 -1.421875 12.171875 6.21875 
Q 5.515625 13.875 5.515625 27.296875 
Q 5.515625 40.765625 12.171875 48.375 
Q 18.84375 56 30.609375 56 
z
" id="DejaVuSans-6f"/>
      <path d="M 48.78125 52.59375 
L 48.78125 44.1875 
Q 44.96875 46.296875 41.140625 47.34375 
Q 37.3125 48.390625 33.40625 48.390625 
Q 24.65625 48.390625 19.8125 42.84375 
Q 14.984375 37.3125 14.984375 27.296875 
Q 14.984375 17.28125 19.8125 11.734375 
Q 24.65625 6.203125 33.40625 6.203125 
Q 37.3125 6.203125 41.140625 7.25 
Q 44.96875 8.296875 48.78125 10.40625 
L 48.78125 2.09375 
Q 45.015625 0.34375 40.984375 -0.53125 
Q 36.96875 -1.421875 32.421875 -1.421875 
Q 20.0625 -1.421875 12.78125 6.34375 
Q 5.515625 14.109375 5.515625 27.296875 
Q 5.515625 40.671875 12.859375 48.328125 
Q 20.21875 56 33.015625 56 
Q 37.15625 56 41.109375 55.140625 
Q 45.0625 54.296875 48.78125 52.59375 
z
" id="DejaVuSans-63"/>
      <path d="M 34.28125 27.484375 
Q 23.390625 27.484375 19.1875 25 
Q 14.984375 22.515625 14.984375 16.5 
Q 14.984375 11.71875 18.140625 8.90625 
Q 21.296875 6.109375 26.703125 6.109375 
Q 34.1875 6.109375 38.703125 11.40625 
Q 43.21875 16.703125 43.21875 25.484375 
L 43.21875 27.484375 
z
M 52.203125 31.203125 
L 52.203125 0 
L 43.21875 0 
L 43.21875 8.296875 
Q 40.140625 3.328125 35.546875 0.953125 
Q 30.953125 -1.421875 24.3125 -1.421875 
Q 15.921875 -1.421875 10.953125 3.296875 
Q 6 8.015625 6 15.921875 
Q 6 25.140625 12.171875 29.828125 
Q 18.359375 34.515625 30.609375 34.515625 
L 43.21875 34.515625 
L 43.21875 35.40625 
Q 43.21875 41.609375 39.140625 45 
Q 35.0625 48.390625 27.6875 48.390625 
Q 23 48.390625 18.546875 47.265625 
Q 14.109375 46.140625 10.015625 43.890625 
L 10.015625 52.203125 
Q 14.9375 54.109375 19.578125 55.046875 
Q 24.21875 56 28.609375 56 
Q 40.484375 56 46.34375 49.84375 
Q 52.203125 43.703125 52.203125 31.203125 
z
" id="DejaVuSans-61"/>
      <path d="M 54.890625 33.015625 
L 54.890625 0 
L 45.90625 0 
L 45.90625 32.71875 
Q 45.90625 40.484375 42.875 44.328125 
Q 39.84375 48.1875 33.796875 48.1875 
Q 26.515625 48.1875 22.3125 43.546875 
Q 18.109375 38.921875 18.109375 30.90625 
L 18.109375 0 
L 9.078125 0 
L 9.078125 54.6875 
L 18.109375 54.6875 
L 18.109375 46.1875 
Q 21.34375 51.125 25.703125 53.5625 
Q 30.078125 56 35.796875 56 
Q 45.21875 56 50.046875 50.171875 
Q 54.890625 44.34375 54.890625 33.015625 
z
" id="DejaVuSans-6e"/>
      <path d="M 41.109375 46.296875 
Q 39.59375 47.171875 37.8125 47.578125 
Q 36.03125 48 33.890625 48 
Q 26.265625 48 22.1875 43.046875 
Q 18.109375 38.09375 18.109375 28.8125 
L 18.109375 0 
L 9.078125 0 
L 9.078125 54.6875 
L 18.109375 54.6875 
L 18.109375 46.1875 
Q 20.953125 51.171875 25.484375 53.578125 
Q 30.03125 56 36.53125 56 
Q 37.453125 56 38.578125 55.875 
Q 39.703125 55.765625 41.0625 55.515625 
z
" id="DejaVuSans-72"/>
     </defs>
     <g style="fill:#262626;" transform="translate(14.9745 268.777757)rotate(-90)scale(0.096 -0.096)">
      <use xlink:href="#DejaVuSans-54"/>
      <use x="61.037109" xlink:href="#DejaVuSans-69"/>
      <use x="88.820312" xlink:href="#DejaVuSans-6d"/>
      <use x="186.232422" xlink:href="#DejaVuSans-65"/>
      <use x="247.755859" xlink:href="#DejaVuSans-20"/>
      <use x="279.542969" xlink:href="#DejaVuSans-74"/>
      <use x="318.751953" xlink:href="#DejaVuSans-6f"/>
      <use x="379.933594" xlink:href="#DejaVuSans-20"/>
      <use x="411.720703" xlink:href="#DejaVuSans-63"/>
      <use x="466.701172" xlink:href="#DejaVuSans-61"/>
      <use x="527.980469" xlink:href="#DejaVuSans-6e"/>
      <use x="591.359375" xlink:href="#DejaVuSans-63"/>
      <use x="646.339844" xlink:href="#DejaVuSans-65"/>
      <use x="707.863281" xlink:href="#DejaVuSans-72"/>
     </g>
    </g>
   </g>
   <g id="PathCollection_1">
    <defs>
     <path d="M 0 2.4 
C 0.636487 2.4 1.246992 2.147121 1.697056 1.697056 
C 2.147121 1.246992 2.4 0.636487 2.4 0 
C 2.4 -0.636487 2.147121 -1.246992 1.697056 -1.697056 
C 1.246992 -2.147121 0.636487 -2.4 0 -2.4 
C -0.636487 -2.4 -1.246992 -2.147121 -1.697056 -1.697056 
C -2.147121 -1.246992 -2.4 -0.636487 -2.4 0 
C -2.4 0.636487 -2.147121 1.246992 -1.697056 1.697056 
C -1.246992 2.147121 -0.636487 2.4 0 2.4 
z
" id="mcdb2100bbc" style="stroke:#471365;stroke-opacity:0.8;"/>
    </defs>
    <g clip-path="url(#pf519607612)">
     <use style="fill:#471365;fill-opacity:0.8;stroke:#471365;stroke-opacity:0.8;" x="139.785589" xlink:href="#mcdb2100bbc" y="284.679049"/>
     <use style="fill:#471365;fill-opacity:0.8;stroke:#471365;stroke-opacity:0.8;" x="258.478201" xlink:href="#mcdb2100bbc" y="282.142164"/>
     <use style="fill:#471365;fill-opacity:0.8;stroke:#471365;stroke-opacity:0.8;" x="170.556997" xlink:href="#mcdb2100bbc" y="152.018331"/>
     <use style="fill:#471365;fill-opacity:0.8;stroke:#471365;stroke-opacity:0.8;" x="143.382807" xlink:href="#mcdb2100bbc" y="202.032569"/>
     <use style="fill:#471365;fill-opacity:0.8;stroke:#471365;stroke-opacity:0.8;" x="179.982926" xlink:href="#mcdb2100bbc" y="197.855874"/>
     <use style="fill:#471365;fill-opacity:0.8;stroke:#471365;stroke-opacity:0.8;" x="147.630904" xlink:href="#mcdb2100bbc" y="174.261886"/>
     <use style="fill:#471365;fill-opacity:0.8;stroke:#471365;stroke-opacity:0.8;" x="157.002833" xlink:href="#mcdb2100bbc" y="192.068305"/>
     <use style="fill:#471365;fill-opacity:0.8;stroke:#471365;stroke-opacity:0.8;" x="127.661304" xlink:href="#mcdb2100bbc" y="171.985442"/>
     <use style="fill:#471365;fill-opacity:0.8;stroke:#471365;stroke-opacity:0.8;" x="184.665085" xlink:href="#mcdb2100bbc" y="238.156643"/>
     <use style="fill:#471365;fill-opacity:0.8;stroke:#471365;stroke-opacity:0.8;" x="151.344966" xlink:href="#mcdb2100bbc" y="150.966922"/>
     <use style="fill:#471365;fill-opacity:0.8;stroke:#471365;stroke-opacity:0.8;" x="281.763927" xlink:href="#mcdb2100bbc" y="277.05875"/>
     <use style="fill:#471365;fill-opacity:0.8;stroke:#471365;stroke-opacity:0.8;" x="214.509069" xlink:href="#mcdb2100bbc" y="248.246304"/>
     <use style="fill:#471365;fill-opacity:0.8;stroke:#471365;stroke-opacity:0.8;" x="156.167068" xlink:href="#mcdb2100bbc" y="233.844905"/>
     <use style="fill:#471365;fill-opacity:0.8;stroke:#471365;stroke-opacity:0.8;" x="194.701473" xlink:href="#mcdb2100bbc" y="286.521425"/>
     <use style="fill:#471365;fill-opacity:0.8;stroke:#471365;stroke-opacity:0.8;" x="180.883555" xlink:href="#mcdb2100bbc" y="215.546542"/>
     <use style="fill:#471365;fill-opacity:0.8;stroke:#471365;stroke-opacity:0.8;" x="118.69013" xlink:href="#mcdb2100bbc" y="209.662514"/>
     <use style="fill:#471365;fill-opacity:0.8;stroke:#471365;stroke-opacity:0.8;" x="155.972977" xlink:href="#mcdb2100bbc" y="198.588966"/>
     <use style="fill:#471365;fill-opacity:0.8;stroke:#471365;stroke-opacity:0.8;" x="217.468856" xlink:href="#mcdb2100bbc" y="187.978424"/>
     <use style="fill:#471365;fill-opacity:0.8;stroke:#471365;stroke-opacity:0.8;" x="124.187052" xlink:href="#mcdb2100bbc" y="184.698801"/>
     <use style="fill:#471365;fill-opacity:0.8;stroke:#471365;stroke-opacity:0.8;" x="137.226782" xlink:href="#mcdb2100bbc" y="153.966812"/>
     <use style="fill:#471365;fill-opacity:0.8;stroke:#471365;stroke-opacity:0.8;" x="181.305609" xlink:href="#mcdb2100bbc" y="295.636845"/>
     <use style="fill:#471365;fill-opacity:0.8;stroke:#471365;stroke-opacity:0.8;" x="178.640701" xlink:href="#mcdb2100bbc" y="176.162138"/>
     <use style="fill:#471365;fill-opacity:0.8;stroke:#471365;stroke-opacity:0.8;" x="180.201001" xlink:href="#mcdb2100bbc" y="267.817932"/>
     <use style="fill:#471365;fill-opacity:0.8;stroke:#471365;stroke-opacity:0.8;" x="188.61189" xlink:href="#mcdb2100bbc" y="281.48624"/>
     <use style="fill:#471365;fill-opacity:0.8;stroke:#471365;stroke-opacity:0.8;" x="200.765032" xlink:href="#mcdb2100bbc" y="230.883599"/>
     <use style="fill:#471365;fill-opacity:0.8;stroke:#471365;stroke-opacity:0.8;" x="151.100661" xlink:href="#mcdb2100bbc" y="225.616911"/>
     <use style="fill:#471365;fill-opacity:0.8;stroke:#471365;stroke-opacity:0.8;" x="155.402389" xlink:href="#mcdb2100bbc" y="244.542261"/>
     <use style="fill:#471365;fill-opacity:0.8;stroke:#471365;stroke-opacity:0.8;" x="196.089247" xlink:href="#mcdb2100bbc" y="168.435734"/>
     <use style="fill:#471365;fill-opacity:0.8;stroke:#471365;stroke-opacity:0.8;" x="171.788265" xlink:href="#mcdb2100bbc" y="178.660438"/>
     <use style="fill:#471365;fill-opacity:0.8;stroke:#471365;stroke-opacity:0.8;" x="186.55604" xlink:href="#mcdb2100bbc" y="217.466086"/>
     <use style="fill:#471365;fill-opacity:0.8;stroke:#471365;stroke-opacity:0.8;" x="139.440638" xlink:href="#mcdb2100bbc" y="163.072587"/>
     <use style="fill:#471365;fill-opacity:0.8;stroke:#471365;stroke-opacity:0.8;" x="178.719436" xlink:href="#mcdb2100bbc" y="205.032459"/>
     <use style="fill:#471365;fill-opacity:0.8;stroke:#471365;stroke-opacity:0.8;" x="198.824678" xlink:href="#mcdb2100bbc" y="175.139667"/>
     <use style="fill:#471365;fill-opacity:0.8;stroke:#471365;stroke-opacity:0.8;" x="179.618181" xlink:href="#mcdb2100bbc" y="314.687592"/>
     <use style="fill:#471365;fill-opacity:0.8;stroke:#471365;stroke-opacity:0.8;" x="170.016425" xlink:href="#mcdb2100bbc" y="194.60519"/>
     <use style="fill:#471365;fill-opacity:0.8;stroke:#471365;stroke-opacity:0.8;" x="176.731939" xlink:href="#mcdb2100bbc" y="182.287314"/>
     <use style="fill:#471365;fill-opacity:0.8;stroke:#471365;stroke-opacity:0.8;" x="208.758071" xlink:href="#mcdb2100bbc" y="233.28544"/>
     <use style="fill:#471365;fill-opacity:0.8;stroke:#471365;stroke-opacity:0.8;" x="153.253951" xlink:href="#mcdb2100bbc" y="229.427061"/>
     <use style="fill:#471365;fill-opacity:0.8;stroke:#471365;stroke-opacity:0.8;" x="252.91968" xlink:href="#mcdb2100bbc" y="247.310648"/>
     <use style="fill:#471365;fill-opacity:0.8;stroke:#471365;stroke-opacity:0.8;" x="150.292667" xlink:href="#mcdb2100bbc" y="184.476945"/>
     <use style="fill:#471365;fill-opacity:0.8;stroke:#471365;stroke-opacity:0.8;" x="159.005762" xlink:href="#mcdb2100bbc" y="251.159381"/>
     <use style="fill:#471365;fill-opacity:0.8;stroke:#471365;stroke-opacity:0.8;" x="191.099759" xlink:href="#mcdb2100bbc" y="186.155339"/>
     <use style="fill:#471365;fill-opacity:0.8;stroke:#471365;stroke-opacity:0.8;" x="164.780523" xlink:href="#mcdb2100bbc" y="197.894458"/>
     <use style="fill:#471365;fill-opacity:0.8;stroke:#471365;stroke-opacity:0.8;" x="176.755189" xlink:href="#mcdb2100bbc" y="255.68333"/>
     <use style="fill:#471365;fill-opacity:0.8;stroke:#471365;stroke-opacity:0.8;" x="148.824672" xlink:href="#mcdb2100bbc" y="192.328746"/>
     <use style="fill:#471365;fill-opacity:0.8;stroke:#471365;stroke-opacity:0.8;" x="184.06219" xlink:href="#mcdb2100bbc" y="231.259791"/>
     <use style="fill:#471365;fill-opacity:0.8;stroke:#471365;stroke-opacity:0.8;" x="144.985894" xlink:href="#mcdb2100bbc" y="273.373998"/>
    </g>
   </g>
   <g id="PolyCollection_1">
    <defs>
     <path d="M 60.082457 -301.894329 
L 60.082457 -230.586465 
L 62.913661 -229.999563 
L 65.744864 -229.412661 
L 68.576068 -228.825759 
L 71.407271 -228.253627 
L 74.238474 -227.85678 
L 77.069678 -227.459932 
L 79.900881 -227.005569 
L 82.732085 -226.319983 
L 85.563288 -225.804831 
L 88.394492 -225.416629 
L 91.225695 -225.013727 
L 94.056899 -224.30529 
L 96.888102 -223.681828 
L 99.719306 -223.005613 
L 102.550509 -222.329398 
L 105.381713 -221.653183 
L 108.212916 -221.069298 
L 111.044119 -220.664324 
L 113.875323 -219.91936 
L 116.706526 -219.243343 
L 119.53773 -218.839782 
L 122.368933 -218.402587 
L 125.200137 -217.928434 
L 128.03134 -217.319266 
L 130.862544 -216.493623 
L 133.693747 -216.027007 
L 136.524951 -215.226854 
L 139.356154 -214.140751 
L 142.187358 -213.338775 
L 145.018561 -212.372217 
L 147.849765 -211.553713 
L 150.680968 -210.721786 
L 153.512171 -209.694482 
L 156.343375 -209.114922 
L 159.174578 -208.246996 
L 162.005782 -207.388848 
L 164.836985 -206.452735 
L 167.668189 -205.466913 
L 170.499392 -204.370033 
L 173.330596 -203.183184 
L 176.161799 -201.941787 
L 178.993003 -200.700512 
L 181.824206 -199.240931 
L 184.65541 -197.887801 
L 187.486613 -196.446512 
L 190.317816 -194.769776 
L 193.14902 -193.375111 
L 195.980223 -191.810855 
L 198.811427 -189.923328 
L 201.64263 -188.146247 
L 204.473834 -186.473231 
L 207.305037 -184.653431 
L 210.136241 -182.604954 
L 212.967444 -180.684285 
L 215.798648 -178.795708 
L 218.629851 -176.948023 
L 221.461055 -175.026089 
L 224.292258 -173.312062 
L 227.123461 -171.448044 
L 229.954665 -169.665132 
L 232.785868 -167.85331 
L 235.617072 -165.95581 
L 238.448275 -164.007974 
L 241.279479 -162.182316 
L 244.110682 -160.359827 
L 246.941886 -158.270569 
L 249.773089 -156.279569 
L 252.604293 -154.439811 
L 255.435496 -152.602021 
L 258.2667 -150.640852 
L 261.097903 -148.597078 
L 263.929106 -146.585139 
L 266.76031 -144.516075 
L 269.591513 -142.51486 
L 272.422717 -140.607339 
L 275.25392 -138.70958 
L 278.085124 -136.752314 
L 280.916327 -134.905638 
L 283.747531 -133.003701 
L 286.578734 -131.103078 
L 289.409938 -129.203488 
L 292.241141 -127.304371 
L 295.072345 -125.337502 
L 297.903548 -123.335289 
L 300.734752 -121.333076 
L 303.565955 -119.330863 
L 306.397158 -117.314652 
L 309.228362 -115.117163 
L 312.059565 -112.919674 
L 314.890769 -110.722185 
L 317.721972 -108.524696 
L 320.553176 -106.327207 
L 323.384379 -104.249118 
L 326.215583 -102.253362 
L 329.046786 -100.257605 
L 331.87799 -98.256114 
L 334.709193 -95.985268 
L 337.540397 -93.717474 
L 340.3716 -91.45043 
L 340.3716 -183.156114 
L 340.3716 -183.156114 
L 337.540397 -183.760826 
L 334.709193 -184.372187 
L 331.87799 -184.976832 
L 329.046786 -185.434463 
L 326.215583 -186.178289 
L 323.384379 -186.836925 
L 320.553176 -187.457163 
L 317.721972 -188.071329 
L 314.890769 -188.653296 
L 312.059565 -189.133656 
L 309.228362 -189.614016 
L 306.397158 -190.094376 
L 303.565955 -190.574737 
L 300.734752 -191.199078 
L 297.903548 -191.903229 
L 295.072345 -192.538021 
L 292.241141 -192.862506 
L 289.409938 -193.179268 
L 286.578734 -193.830993 
L 283.747531 -194.401306 
L 280.916327 -195.009374 
L 278.085124 -195.549159 
L 275.25392 -196.15681 
L 272.422717 -196.764461 
L 269.591513 -197.372112 
L 266.76031 -197.979763 
L 263.929106 -198.678286 
L 261.097903 -199.502198 
L 258.2667 -200.325188 
L 255.435496 -201.14389 
L 252.604293 -201.914816 
L 249.773089 -202.36719 
L 246.941886 -202.810671 
L 244.110682 -203.248975 
L 241.279479 -203.695537 
L 238.448275 -204.137933 
L 235.617072 -204.613919 
L 232.785868 -205.226995 
L 229.954665 -205.91346 
L 227.123461 -206.612838 
L 224.292258 -207.096234 
L 221.461055 -207.712787 
L 218.629851 -208.482927 
L 215.798648 -209.342052 
L 212.967444 -210.389331 
L 210.136241 -211.389657 
L 207.305037 -212.308136 
L 204.473834 -213.139988 
L 201.64263 -214.170163 
L 198.811427 -214.861246 
L 195.980223 -215.740127 
L 193.14902 -216.522012 
L 190.317816 -217.807492 
L 187.486613 -219.392723 
L 184.65541 -220.841489 
L 181.824206 -222.106651 
L 178.993003 -223.500772 
L 176.161799 -224.799194 
L 173.330596 -226.175462 
L 170.499392 -227.776239 
L 167.668189 -229.276319 
L 164.836985 -230.808611 
L 162.005782 -232.577476 
L 159.174578 -234.390378 
L 156.343375 -236.184691 
L 153.512171 -237.859983 
L 150.680968 -239.690057 
L 147.849765 -241.269403 
L 145.018561 -242.981743 
L 142.187358 -244.700146 
L 139.356154 -246.432621 
L 136.524951 -248.382189 
L 133.693747 -250.380433 
L 130.862544 -252.134905 
L 128.03134 -254.009786 
L 125.200137 -255.767847 
L 122.368933 -257.574528 
L 119.53773 -259.780586 
L 116.706526 -261.723828 
L 113.875323 -263.500812 
L 111.044119 -265.277547 
L 108.212916 -267.26802 
L 105.381713 -269.372127 
L 102.550509 -271.40989 
L 99.719306 -273.449439 
L 96.888102 -275.26957 
L 94.056899 -277.113342 
L 91.225695 -278.97798 
L 88.394492 -281.167598 
L 85.563288 -283.156127 
L 82.732085 -285.272734 
L 79.900881 -287.278763 
L 77.069678 -289.284305 
L 74.238474 -291.285785 
L 71.407271 -293.324239 
L 68.576068 -295.514167 
L 65.744864 -297.703348 
L 62.913661 -299.886438 
L 60.082457 -301.894329 
z
" id="m6e07920e8d" style="stroke:#ffffff;stroke-opacity:0.15;stroke-width:0.8;"/>
    </defs>
    <g clip-path="url(#pf519607612)">
     <use style="fill:#471365;fill-opacity:0.15;stroke:#ffffff;stroke-opacity:0.15;stroke-width:0.8;" x="0" xlink:href="#m6e07920e8d" y="432"/>
    </g>
   </g>
   <g id="line2d_17">
    <path clip-path="url(#pf519607612)" d="M 60.082457 162.482463 
L 62.913661 163.85398 
L 65.744864 165.225498 
L 68.576068 166.597016 
L 71.407271 167.968533 
L 74.238474 169.340051 
L 77.069678 170.711569 
L 79.900881 172.083086 
L 82.732085 173.454604 
L 85.563288 174.826122 
L 88.394492 176.197639 
L 91.225695 177.569157 
L 94.056899 178.940675 
L 96.888102 180.312192 
L 99.719306 181.68371 
L 102.550509 183.055228 
L 105.381713 184.426745 
L 108.212916 185.798263 
L 111.044119 187.169781 
L 113.875323 188.541298 
L 116.706526 189.912816 
L 119.53773 191.284334 
L 122.368933 192.655851 
L 125.200137 194.027369 
L 128.03134 195.398887 
L 130.862544 196.770404 
L 133.693747 198.141922 
L 136.524951 199.51344 
L 139.356154 200.884957 
L 142.187358 202.256475 
L 145.018561 203.627993 
L 147.849765 204.99951 
L 150.680968 206.371028 
L 153.512171 207.742546 
L 156.343375 209.114063 
L 159.174578 210.485581 
L 162.005782 211.857099 
L 164.836985 213.228616 
L 167.668189 214.600134 
L 170.499392 215.971652 
L 173.330596 217.343169 
L 176.161799 218.714687 
L 178.993003 220.086205 
L 181.824206 221.457722 
L 184.65541 222.82924 
L 187.486613 224.200758 
L 190.317816 225.572275 
L 193.14902 226.943793 
L 195.980223 228.315311 
L 198.811427 229.686828 
L 201.64263 231.058346 
L 204.473834 232.429864 
L 207.305037 233.801381 
L 210.136241 235.172899 
L 212.967444 236.544417 
L 215.798648 237.915934 
L 218.629851 239.287452 
L 221.461055 240.65897 
L 224.292258 242.030487 
L 227.123461 243.402005 
L 229.954665 244.773523 
L 232.785868 246.14504 
L 235.617072 247.516558 
L 238.448275 248.888076 
L 241.279479 250.259593 
L 244.110682 251.631111 
L 246.941886 253.002629 
L 249.773089 254.374146 
L 252.604293 255.745664 
L 255.435496 257.117182 
L 258.2667 258.488699 
L 261.097903 259.860217 
L 263.929106 261.231735 
L 266.76031 262.603252 
L 269.591513 263.97477 
L 272.422717 265.346288 
L 275.25392 266.717805 
L 278.085124 268.089323 
L 280.916327 269.460841 
L 283.747531 270.832358 
L 286.578734 272.203876 
L 289.409938 273.575394 
L 292.241141 274.946911 
L 295.072345 276.318429 
L 297.903548 277.689947 
L 300.734752 279.061464 
L 303.565955 280.432982 
L 306.397158 281.8045 
L 309.228362 283.176017 
L 312.059565 284.547535 
L 314.890769 285.919053 
L 317.721972 287.29057 
L 320.553176 288.662088 
L 323.384379 290.033606 
L 326.215583 291.405123 
L 329.046786 292.776641 
L 331.87799 294.148159 
L 334.709193 295.519676 
L 337.540397 296.891194 
L 340.3716 298.262712 
" style="fill:none;stroke:#471365;stroke-linecap:round;stroke-width:1.8;"/>
   </g>
   <g id="patch_3">
    <path d="M 46.068 387.732 
L 46.068 77.922514 
" style="fill:none;stroke:#262626;stroke-linecap:square;stroke-linejoin:miter;"/>
   </g>
   <g id="patch_4">
    <path d="M 46.068 387.732 
L 354.386057 387.732 
" style="fill:none;stroke:#262626;stroke-linecap:square;stroke-linejoin:miter;"/>
   </g>
   <g id="legend_1">
    <g id="patch_5">
     <path d="M 195.646432 97.879264 
L 348.226057 97.879264 
Q 349.986057 97.879264 349.986057 96.119264 
L 349.986057 84.082514 
Q 349.986057 82.322514 348.226057 82.322514 
L 195.646432 82.322514 
Q 193.886432 82.322514 193.886432 84.082514 
L 193.886432 96.119264 
Q 193.886432 97.879264 195.646432 97.879264 
z
" style="fill:#ffffff;opacity:0.8;stroke:#cccccc;stroke-linejoin:miter;stroke-width:0.8;"/>
    </g>
    <g id="line2d_18"/>
    <g id="line2d_19"/>
    <g id="text_19">
     <!-- pearsonr = -0.38; p = 0.009 -->
     <defs>
      <path d="M 18.109375 8.203125 
L 18.109375 -20.796875 
L 9.078125 -20.796875 
L 9.078125 54.6875 
L 18.109375 54.6875 
L 18.109375 46.390625 
Q 20.953125 51.265625 25.265625 53.625 
Q 29.59375 56 35.59375 56 
Q 45.5625 56 51.78125 48.09375 
Q 58.015625 40.1875 58.015625 27.296875 
Q 58.015625 14.40625 51.78125 6.484375 
Q 45.5625 -1.421875 35.59375 -1.421875 
Q 29.59375 -1.421875 25.265625 0.953125 
Q 20.953125 3.328125 18.109375 8.203125 
z
M 48.6875 27.296875 
Q 48.6875 37.203125 44.609375 42.84375 
Q 40.53125 48.484375 33.40625 48.484375 
Q 26.265625 48.484375 22.1875 42.84375 
Q 18.109375 37.203125 18.109375 27.296875 
Q 18.109375 17.390625 22.1875 11.75 
Q 26.265625 6.109375 33.40625 6.109375 
Q 40.53125 6.109375 44.609375 11.75 
Q 48.6875 17.390625 48.6875 27.296875 
z
" id="DejaVuSans-70"/>
      <path d="M 44.28125 53.078125 
L 44.28125 44.578125 
Q 40.484375 46.53125 36.375 47.5 
Q 32.28125 48.484375 27.875 48.484375 
Q 21.1875 48.484375 17.84375 46.4375 
Q 14.5 44.390625 14.5 40.28125 
Q 14.5 37.15625 16.890625 35.375 
Q 19.28125 33.59375 26.515625 31.984375 
L 29.59375 31.296875 
Q 39.15625 29.25 43.1875 25.515625 
Q 47.21875 21.78125 47.21875 15.09375 
Q 47.21875 7.46875 41.1875 3.015625 
Q 35.15625 -1.421875 24.609375 -1.421875 
Q 20.21875 -1.421875 15.453125 -0.5625 
Q 10.6875 0.296875 5.421875 2 
L 5.421875 11.28125 
Q 10.40625 8.6875 15.234375 7.390625 
Q 20.0625 6.109375 24.8125 6.109375 
Q 31.15625 6.109375 34.5625 8.28125 
Q 37.984375 10.453125 37.984375 14.40625 
Q 37.984375 18.0625 35.515625 20.015625 
Q 33.0625 21.96875 24.703125 23.78125 
L 21.578125 24.515625 
Q 13.234375 26.265625 9.515625 29.90625 
Q 5.8125 33.546875 5.8125 39.890625 
Q 5.8125 47.609375 11.28125 51.796875 
Q 16.75 56 26.8125 56 
Q 31.78125 56 36.171875 55.265625 
Q 40.578125 54.546875 44.28125 53.078125 
z
" id="DejaVuSans-73"/>
      <path d="M 10.59375 45.40625 
L 73.1875 45.40625 
L 73.1875 37.203125 
L 10.59375 37.203125 
z
M 10.59375 25.484375 
L 73.1875 25.484375 
L 73.1875 17.1875 
L 10.59375 17.1875 
z
" id="DejaVuSans-3d"/>
      <path d="M 4.890625 31.390625 
L 31.203125 31.390625 
L 31.203125 23.390625 
L 4.890625 23.390625 
z
" id="DejaVuSans-2d"/>
      <path d="M 40.578125 39.3125 
Q 47.65625 37.796875 51.625 33 
Q 55.609375 28.21875 55.609375 21.1875 
Q 55.609375 10.40625 48.1875 4.484375 
Q 40.765625 -1.421875 27.09375 -1.421875 
Q 22.515625 -1.421875 17.65625 -0.515625 
Q 12.796875 0.390625 7.625 2.203125 
L 7.625 11.71875 
Q 11.71875 9.328125 16.59375 8.109375 
Q 21.484375 6.890625 26.8125 6.890625 
Q 36.078125 6.890625 40.9375 10.546875 
Q 45.796875 14.203125 45.796875 21.1875 
Q 45.796875 27.640625 41.28125 31.265625 
Q 36.765625 34.90625 28.71875 34.90625 
L 20.21875 34.90625 
L 20.21875 43.015625 
L 29.109375 43.015625 
Q 36.375 43.015625 40.234375 45.921875 
Q 44.09375 48.828125 44.09375 54.296875 
Q 44.09375 59.90625 40.109375 62.90625 
Q 36.140625 65.921875 28.71875 65.921875 
Q 24.65625 65.921875 20.015625 65.03125 
Q 15.375 64.15625 9.8125 62.3125 
L 9.8125 71.09375 
Q 15.4375 72.65625 20.34375 73.4375 
Q 25.25 74.21875 29.59375 74.21875 
Q 40.828125 74.21875 47.359375 69.109375 
Q 53.90625 64.015625 53.90625 55.328125 
Q 53.90625 49.265625 50.4375 45.09375 
Q 46.96875 40.921875 40.578125 39.3125 
z
" id="DejaVuSans-33"/>
      <path d="M 11.71875 51.703125 
L 22.015625 51.703125 
L 22.015625 39.3125 
L 11.71875 39.3125 
z
M 11.71875 12.40625 
L 22.015625 12.40625 
L 22.015625 4 
L 14.015625 -11.625 
L 7.71875 -11.625 
L 11.71875 4 
z
" id="DejaVuSans-3b"/>
     </defs>
     <g style="fill:#262626;" transform="translate(222.046432 92.529139)scale(0.088 -0.088)">
      <use xlink:href="#DejaVuSans-70"/>
      <use x="63.476562" xlink:href="#DejaVuSans-65"/>
      <use x="125" xlink:href="#DejaVuSans-61"/>
      <use x="186.279297" xlink:href="#DejaVuSans-72"/>
      <use x="227.392578" xlink:href="#DejaVuSans-73"/>
      <use x="279.492188" xlink:href="#DejaVuSans-6f"/>
      <use x="340.673828" xlink:href="#DejaVuSans-6e"/>
      <use x="404.052734" xlink:href="#DejaVuSans-72"/>
      <use x="445.166016" xlink:href="#DejaVuSans-20"/>
      <use x="476.953125" xlink:href="#DejaVuSans-3d"/>
      <use x="560.742188" xlink:href="#DejaVuSans-20"/>
      <use x="592.529297" xlink:href="#DejaVuSans-2d"/>
      <use x="628.613281" xlink:href="#DejaVuSans-30"/>
      <use x="692.236328" xlink:href="#DejaVuSans-2e"/>
      <use x="724.023438" xlink:href="#DejaVuSans-33"/>
      <use x="787.646484" xlink:href="#DejaVuSans-38"/>
      <use x="851.269531" xlink:href="#DejaVuSans-3b"/>
      <use x="884.960938" xlink:href="#DejaVuSans-20"/>
      <use x="916.748047" xlink:href="#DejaVuSans-70"/>
      <use x="980.224609" xlink:href="#DejaVuSans-20"/>
      <use x="1012.011719" xlink:href="#DejaVuSans-3d"/>
      <use x="1095.800781" xlink:href="#DejaVuSans-20"/>
      <use x="1127.587891" xlink:href="#DejaVuSans-30"/>
      <use x="1191.210938" xlink:href="#DejaVuSans-2e"/>
      <use x="1222.998047" xlink:href="#DejaVuSans-30"/>
      <use x="1286.621094" xlink:href="#DejaVuSans-30"/>
      <use x="1350.244141" xlink:href="#DejaVuSans-39"/>
     </g>
    </g>
   </g>
  </g>
  <g id="axes_2">
   <g id="patch_6">
    <path d="M 46.068 67.239429 
L 354.386057 67.239429 
L 354.386057 13.824 
L 46.068 13.824 
z
" style="fill:#ffffff;"/>
   </g>
   <g id="matplotlib.axis_3">
    <g id="xtick_8">
     <g id="line2d_20">
      <g>
       <use style="fill:#262626;stroke:#262626;" x="50.6119" xlink:href="#maa92ebbb9e" y="67.239429"/>
      </g>
     </g>
    </g>
    <g id="xtick_9">
     <g id="line2d_21">
      <g>
       <use style="fill:#262626;stroke:#262626;" x="95.434308" xlink:href="#maa92ebbb9e" y="67.239429"/>
      </g>
     </g>
    </g>
    <g id="xtick_10">
     <g id="line2d_22">
      <g>
       <use style="fill:#262626;stroke:#262626;" x="140.256716" xlink:href="#maa92ebbb9e" y="67.239429"/>
      </g>
     </g>
    </g>
    <g id="xtick_11">
     <g id="line2d_23">
      <g>
       <use style="fill:#262626;stroke:#262626;" x="185.079124" xlink:href="#maa92ebbb9e" y="67.239429"/>
      </g>
     </g>
    </g>
    <g id="xtick_12">
     <g id="line2d_24">
      <g>
       <use style="fill:#262626;stroke:#262626;" x="229.901532" xlink:href="#maa92ebbb9e" y="67.239429"/>
      </g>
     </g>
    </g>
    <g id="xtick_13">
     <g id="line2d_25">
      <g>
       <use style="fill:#262626;stroke:#262626;" x="274.72394" xlink:href="#maa92ebbb9e" y="67.239429"/>
      </g>
     </g>
    </g>
    <g id="xtick_14">
     <g id="line2d_26">
      <g>
       <use style="fill:#262626;stroke:#262626;" x="319.546348" xlink:href="#maa92ebbb9e" y="67.239429"/>
      </g>
     </g>
    </g>
   </g>
   <g id="matplotlib.axis_4">
    <g id="ytick_10"/>
    <g id="ytick_11"/>
   </g>
   <g id="patch_7">
    <path clip-path="url(#p54b72f5916)" d="M 118.69013 67.239429 
L 136.809441 67.239429 
L 136.809441 56.338321 
L 118.69013 56.338321 
z
" style="fill:#471365;opacity:0.4;stroke:#ffffff;stroke-linejoin:miter;stroke-width:0.8;"/>
   </g>
   <g id="patch_8">
    <path clip-path="url(#p54b72f5916)" d="M 136.809441 67.239429 
L 154.928751 67.239429 
L 154.928751 27.2687 
L 136.809441 27.2687 
z
" style="fill:#471365;opacity:0.4;stroke:#ffffff;stroke-linejoin:miter;stroke-width:0.8;"/>
   </g>
   <g id="patch_9">
    <path clip-path="url(#p54b72f5916)" d="M 154.928751 67.239429 
L 173.048062 67.239429 
L 173.048062 34.536105 
L 154.928751 34.536105 
z
" style="fill:#471365;opacity:0.4;stroke:#ffffff;stroke-linejoin:miter;stroke-width:0.8;"/>
   </g>
   <g id="patch_10">
    <path clip-path="url(#p54b72f5916)" d="M 173.048062 67.239429 
L 191.167373 67.239429 
L 191.167373 16.367592 
L 173.048062 16.367592 
z
" style="fill:#471365;opacity:0.4;stroke:#ffffff;stroke-linejoin:miter;stroke-width:0.8;"/>
   </g>
   <g id="patch_11">
    <path clip-path="url(#p54b72f5916)" d="M 191.167373 67.239429 
L 209.286684 67.239429 
L 209.286684 49.070915 
L 191.167373 49.070915 
z
" style="fill:#471365;opacity:0.4;stroke:#ffffff;stroke-linejoin:miter;stroke-width:0.8;"/>
   </g>
   <g id="patch_12">
    <path clip-path="url(#p54b72f5916)" d="M 209.286684 67.239429 
L 227.405995 67.239429 
L 227.405995 59.972023 
L 209.286684 59.972023 
z
" style="fill:#471365;opacity:0.4;stroke:#ffffff;stroke-linejoin:miter;stroke-width:0.8;"/>
   </g>
   <g id="patch_13">
    <path clip-path="url(#p54b72f5916)" d="M 227.405995 67.239429 
L 245.525306 67.239429 
L 245.525306 67.239429 
L 227.405995 67.239429 
z
" style="fill:#471365;opacity:0.4;stroke:#ffffff;stroke-linejoin:miter;stroke-width:0.8;"/>
   </g>
   <g id="patch_14">
    <path clip-path="url(#p54b72f5916)" d="M 245.525306 67.239429 
L 263.644617 67.239429 
L 263.644617 59.972023 
L 245.525306 59.972023 
z
" style="fill:#471365;opacity:0.4;stroke:#ffffff;stroke-linejoin:miter;stroke-width:0.8;"/>
   </g>
   <g id="patch_15">
    <path clip-path="url(#p54b72f5916)" d="M 263.644617 67.239429 
L 281.763927 67.239429 
L 281.763927 63.605726 
L 263.644617 63.605726 
z
" style="fill:#471365;opacity:0.4;stroke:#ffffff;stroke-linejoin:miter;stroke-width:0.8;"/>
   </g>
   <g id="line2d_27">
    <path clip-path="url(#p54b72f5916)" d="M 72.822873 67.208016 
L 75.396694 67.187162 
L 77.970515 67.154643 
L 80.544337 67.105295 
L 83.118158 67.032407 
L 85.691979 66.927593 
L 88.265801 66.780788 
L 90.839622 66.580419 
L 93.413443 66.31375 
L 95.987265 65.967399 
L 98.561086 65.527958 
L 101.134907 64.982633 
L 103.708729 64.319801 
L 106.28255 63.529381 
L 108.856371 62.603005 
L 111.430193 61.534002 
L 114.004014 60.317353 
L 116.577835 58.949793 
L 119.151657 57.430293 
L 121.725478 55.761058 
L 124.299299 53.949059 
L 126.873121 52.007894 
L 129.446942 49.959589 
L 132.020763 47.835747 
L 134.594585 45.677491 
L 137.168406 43.533719 
L 139.742227 41.457551 
L 142.316049 39.501226 
L 144.88987 37.710223 
L 147.463691 36.117659 
L 150.037513 34.740218 
L 152.611334 33.576691 
L 155.185155 32.609735 
L 157.758977 31.810838 
L 160.332798 31.147701 
L 162.906619 30.592623 
L 165.480441 30.130165 
L 168.054262 29.762375 
L 170.628083 29.510378 
L 173.201905 29.41184 
L 175.775726 29.514777 
L 178.349547 29.868911 
L 180.923369 30.516345 
L 183.49719 31.483383 
L 186.071011 32.775027 
L 188.644833 34.373059 
L 191.218654 36.237799 
L 193.792475 38.312961 
L 196.366297 40.532419 
L 198.940118 42.827551 
L 201.513939 45.133825 
L 204.087761 47.395697 
L 206.661582 49.569288 
L 209.235403 51.62285 
L 211.809225 53.535419 
L 214.383046 55.294321 
L 216.956867 56.892292 
L 219.530689 58.324916 
L 222.10451 59.58886 
L 224.678331 60.681188 
L 227.252153 61.599699 
L 229.825974 62.344074 
L 232.399795 62.917408 
L 234.973617 63.327689 
L 237.547438 63.588785 
L 240.121259 63.72064 
L 242.695081 63.748522 
L 245.268902 63.70137 
L 247.842723 63.60948 
L 250.416545 63.501872 
L 252.990366 63.403783 
L 255.564187 63.334707 
L 258.138009 63.307291 
L 260.71183 63.32724 
L 263.285651 63.394193 
L 265.859472 63.503314 
L 268.433294 63.647256 
L 271.007115 63.818057 
L 273.580936 64.008631 
L 276.154758 64.213615 
L 278.728579 64.429506 
L 281.3024 64.654228 
L 283.876222 64.886343 
L 286.450043 65.124208 
L 289.023864 65.36533 
L 291.597686 65.60608 
L 294.171507 65.841807 
L 296.745328 66.067289 
L 299.31915 66.277372 
L 301.892971 66.467625 
L 304.466792 66.634857 
L 307.040614 66.777409 
L 309.614435 66.895195 
L 312.188256 66.989511 
L 314.762078 67.062698 
L 317.335899 67.117738 
L 319.90972 67.15786 
L 322.483542 67.186215 
L 325.057363 67.205645 
L 327.631184 67.21856 
" style="fill:none;stroke:#471365;stroke-linecap:round;stroke-width:1.2;"/>
   </g>
   <g id="patch_16">
    <path d="M 46.068 67.239429 
L 354.386057 67.239429 
" style="fill:none;stroke:#262626;stroke-linecap:square;stroke-linejoin:miter;"/>
   </g>
  </g>
  <g id="axes_3">
   <g id="patch_17">
    <path d="M 365.017714 387.732 
L 418.176 387.732 
L 418.176 77.922514 
L 365.017714 77.922514 
z
" style="fill:#ffffff;"/>
   </g>
   <g id="matplotlib.axis_5">
    <g id="xtick_15"/>
    <g id="xtick_16"/>
   </g>
   <g id="matplotlib.axis_6">
    <g id="ytick_12">
     <g id="line2d_28">
      <g>
       <use style="fill:#262626;stroke:#262626;" x="365.017714" xlink:href="#m14f9652351" y="360.891681"/>
      </g>
     </g>
    </g>
    <g id="ytick_13">
     <g id="line2d_29">
      <g>
       <use style="fill:#262626;stroke:#262626;" x="365.017714" xlink:href="#m14f9652351" y="325.683972"/>
      </g>
     </g>
    </g>
    <g id="ytick_14">
     <g id="line2d_30">
      <g>
       <use style="fill:#262626;stroke:#262626;" x="365.017714" xlink:href="#m14f9652351" y="290.476263"/>
      </g>
     </g>
    </g>
    <g id="ytick_15">
     <g id="line2d_31">
      <g>
       <use style="fill:#262626;stroke:#262626;" x="365.017714" xlink:href="#m14f9652351" y="255.268554"/>
      </g>
     </g>
    </g>
    <g id="ytick_16">
     <g id="line2d_32">
      <g>
       <use style="fill:#262626;stroke:#262626;" x="365.017714" xlink:href="#m14f9652351" y="220.060845"/>
      </g>
     </g>
    </g>
    <g id="ytick_17">
     <g id="line2d_33">
      <g>
       <use style="fill:#262626;stroke:#262626;" x="365.017714" xlink:href="#m14f9652351" y="184.853137"/>
      </g>
     </g>
    </g>
    <g id="ytick_18">
     <g id="line2d_34">
      <g>
       <use style="fill:#262626;stroke:#262626;" x="365.017714" xlink:href="#m14f9652351" y="149.645428"/>
      </g>
     </g>
    </g>
    <g id="ytick_19">
     <g id="line2d_35">
      <g>
       <use style="fill:#262626;stroke:#262626;" x="365.017714" xlink:href="#m14f9652351" y="114.437719"/>
      </g>
     </g>
    </g>
    <g id="ytick_20">
     <g id="line2d_36">
      <g>
       <use style="fill:#262626;stroke:#262626;" x="365.017714" xlink:href="#m14f9652351" y="79.23001"/>
      </g>
     </g>
    </g>
   </g>
   <g id="patch_18">
    <path clip-path="url(#p8d17fd8a31)" d="M 365.017714 314.687592 
L 383.098764 314.687592 
L 383.098764 281.943458 
L 365.017714 281.943458 
z
" style="fill:#471365;opacity:0.4;stroke:#ffffff;stroke-linejoin:miter;stroke-width:0.8;"/>
   </g>
   <g id="patch_19">
    <path clip-path="url(#p8d17fd8a31)" d="M 365.017714 281.943458 
L 386.714974 281.943458 
L 386.714974 249.199324 
L 365.017714 249.199324 
z
" style="fill:#471365;opacity:0.4;stroke:#ffffff;stroke-linejoin:miter;stroke-width:0.8;"/>
   </g>
   <g id="patch_20">
    <path clip-path="url(#p8d17fd8a31)" d="M 365.017714 249.199324 
L 404.796023 249.199324 
L 404.796023 216.45519 
L 365.017714 216.45519 
z
" style="fill:#471365;opacity:0.4;stroke:#ffffff;stroke-linejoin:miter;stroke-width:0.8;"/>
   </g>
   <g id="patch_21">
    <path clip-path="url(#p8d17fd8a31)" d="M 365.017714 216.45519 
L 415.644653 216.45519 
L 415.644653 183.711056 
L 365.017714 183.711056 
z
" style="fill:#471365;opacity:0.4;stroke:#ffffff;stroke-linejoin:miter;stroke-width:0.8;"/>
   </g>
   <g id="patch_22">
    <path clip-path="url(#p8d17fd8a31)" d="M 365.017714 183.711056 
L 404.796023 183.711056 
L 404.796023 150.966922 
L 365.017714 150.966922 
z
" style="fill:#471365;opacity:0.4;stroke:#ffffff;stroke-linejoin:miter;stroke-width:0.8;"/>
   </g>
   <g id="line2d_37">
    <path clip-path="url(#p8d17fd8a31)" d="M 365.048248 373.649751 
L 365.064329 370.804852 
L 365.087538 367.959953 
L 365.120358 365.115054 
L 365.165845 362.270155 
L 365.227655 359.425256 
L 365.310044 356.580357 
L 365.417828 353.735459 
L 365.556321 350.89056 
L 365.731236 348.045661 
L 365.948595 345.200762 
L 366.214628 342.355863 
L 366.535708 339.510964 
L 366.918296 336.666065 
L 367.368916 333.821167 
L 367.894113 330.976268 
L 368.500354 328.131369 
L 369.193825 325.28647 
L 369.980058 322.441571 
L 370.863361 319.596672 
L 371.846044 316.751773 
L 372.927493 313.906875 
L 374.103208 311.061976 
L 375.363954 308.217077 
L 376.695235 305.372178 
L 378.077271 302.527279 
L 379.485643 299.68238 
L 380.892653 296.837481 
L 382.269374 293.992583 
L 383.58819 291.147684 
L 384.825541 288.302785 
L 385.964483 285.457886 
L 386.996677 282.612987 
L 387.92345 279.768088 
L 388.75568 276.923189 
L 389.512468 274.078291 
L 390.218682 271.233392 
L 390.901723 268.388493 
L 391.58792 265.543594 
L 392.299102 262.698695 
L 393.049837 259.853796 
L 393.845752 257.008897 
L 394.683198 254.163999 
L 395.550308 251.3191 
L 396.429295 248.474201 
L 397.299652 245.629302 
L 398.141772 242.784403 
L 398.94046 239.939504 
L 399.687784 237.094605 
L 400.384832 234.249707 
L 401.04207 231.404808 
L 401.678198 228.559909 
L 402.317609 225.71501 
L 402.98675 222.870111 
L 403.709846 220.025212 
L 404.504554 217.180313 
L 405.37812 214.335415 
L 406.324564 211.490516 
L 407.323301 208.645617 
L 408.339382 205.800718 
L 409.325394 202.955819 
L 410.224788 200.11092 
L 410.976263 197.266021 
L 411.518726 194.421123 
L 411.796254 191.576224 
L 411.762544 188.731325 
L 411.384418 185.886426 
L 410.644057 183.041527 
L 409.539838 180.196628 
L 408.085809 177.351729 
L 406.309964 174.506831 
L 404.25164 171.661932 
L 401.958375 168.817033 
L 399.48263 165.972134 
L 396.87868 163.127235 
L 394.19996 160.282336 
L 391.496987 157.437437 
L 388.815922 154.592539 
L 386.197708 151.74764 
L 383.677662 148.902741 
L 381.285384 146.057842 
L 379.044826 143.212943 
L 376.974429 140.368044 
L 375.087259 137.523145 
L 373.39114 134.678247 
L 371.888829 131.833348 
L 370.578259 128.988449 
L 369.452931 126.14355 
L 368.502457 123.298651 
L 367.713278 120.453752 
L 367.069497 117.608853 
L 366.553791 114.763955 
L 366.148314 111.919056 
L 365.83552 109.074157 
L 365.598861 106.229258 
L 365.423297 103.384359 
L 365.295629 100.53946 
L 365.204641 97.694561 
L 365.141101 94.849662 
L 365.097627 92.004764 
" style="fill:none;stroke:#471365;stroke-linecap:round;stroke-width:1.2;"/>
   </g>
   <g id="patch_23">
    <path d="M 365.017714 387.732 
L 365.017714 77.922514 
" style="fill:none;stroke:#262626;stroke-linecap:square;stroke-linejoin:miter;"/>
   </g>
  </g>
 </g>
 <defs>
  <clipPath id="pf519607612">
   <rect height="309.809486" width="308.318057" x="46.068" y="77.922514"/>
  </clipPath>
  <clipPath id="p54b72f5916">
   <rect height="53.415429" width="308.318057" x="46.068" y="13.824"/>
  </clipPath>
  <clipPath id="p8d17fd8a31">
   <rect height="309.809486" width="53.158286" x="365.017714" y="77.922514"/>
  </clipPath>
 </defs>
</svg>
