<?xml version="1.0" encoding="utf-8" standalone="no"?>
<!DOCTYPE svg PUBLIC "-//W3C//DTD SVG 1.1//EN"
  "http://www.w3.org/Graphics/SVG/1.1/DTD/svg11.dtd">
<!-- Created with matplotlib (http://matplotlib.org/) -->
<svg height="432pt" version="1.1" viewBox="0 0 432 432" width="432pt" xmlns="http://www.w3.org/2000/svg" xmlns:xlink="http://www.w3.org/1999/xlink">
 <defs>
  <style type="text/css">
*{stroke-linecap:butt;stroke-linejoin:round;}
  </style>
 </defs>
 <g id="figure_1">
  <g id="patch_1">
   <path d="M 0 432 
L 432 432 
L 432 0 
L 0 0 
z
" style="fill:#ffffff;"/>
  </g>
  <g id="axes_1">
   <g id="patch_2">
    <path d="M 46.543 390.332 
L 353.353886 390.332 
L 353.353886 79.481829 
L 46.543 79.481829 
z
" style="fill:#ffffff;"/>
   </g>
   <g id="matplotlib.axis_1">
    <g id="xtick_1">
     <g id="line2d_1">
      <defs>
       <path d="M 0 0 
L 0 4.8 
" id="mf522298547" style="stroke:#262626;"/>
      </defs>
      <g>
       <use style="fill:#262626;stroke:#262626;" x="50.869548" xlink:href="#mf522298547" y="390.332"/>
      </g>
     </g>
     <g id="text_1">
      <!-- 0 -->
      <defs>
       <path d="M 31.78125 66.40625 
Q 24.171875 66.40625 20.328125 58.90625 
Q 16.5 51.421875 16.5 36.375 
Q 16.5 21.390625 20.328125 13.890625 
Q 24.171875 6.390625 31.78125 6.390625 
Q 39.453125 6.390625 43.28125 13.890625 
Q 47.125 21.390625 47.125 36.375 
Q 47.125 51.421875 43.28125 58.90625 
Q 39.453125 66.40625 31.78125 66.40625 
z
M 31.78125 74.21875 
Q 44.046875 74.21875 50.515625 64.515625 
Q 56.984375 54.828125 56.984375 36.375 
Q 56.984375 17.96875 50.515625 8.265625 
Q 44.046875 -1.421875 31.78125 -1.421875 
Q 19.53125 -1.421875 13.0625 8.265625 
Q 6.59375 17.96875 6.59375 36.375 
Q 6.59375 54.828125 13.0625 64.515625 
Q 19.53125 74.21875 31.78125 74.21875 
z
" id="DejaVuSans-30"/>
      </defs>
      <g style="fill:#262626;" transform="translate(48.070048 405.318625)scale(0.088 -0.088)">
       <use xlink:href="#DejaVuSans-30"/>
      </g>
     </g>
    </g>
    <g id="xtick_2">
     <g id="line2d_2">
      <g>
       <use style="fill:#262626;stroke:#262626;" x="106.623673" xlink:href="#mf522298547" y="390.332"/>
      </g>
     </g>
     <g id="text_2">
      <!-- 2 -->
      <defs>
       <path d="M 19.1875 8.296875 
L 53.609375 8.296875 
L 53.609375 0 
L 7.328125 0 
L 7.328125 8.296875 
Q 12.9375 14.109375 22.625 23.890625 
Q 32.328125 33.6875 34.8125 36.53125 
Q 39.546875 41.84375 41.421875 45.53125 
Q 43.3125 49.21875 43.3125 52.78125 
Q 43.3125 58.59375 39.234375 62.25 
Q 35.15625 65.921875 28.609375 65.921875 
Q 23.96875 65.921875 18.8125 64.3125 
Q 13.671875 62.703125 7.8125 59.421875 
L 7.8125 69.390625 
Q 13.765625 71.78125 18.9375 73 
Q 24.125 74.21875 28.421875 74.21875 
Q 39.75 74.21875 46.484375 68.546875 
Q 53.21875 62.890625 53.21875 53.421875 
Q 53.21875 48.921875 51.53125 44.890625 
Q 49.859375 40.875 45.40625 35.40625 
Q 44.1875 33.984375 37.640625 27.21875 
Q 31.109375 20.453125 19.1875 8.296875 
z
" id="DejaVuSans-32"/>
      </defs>
      <g style="fill:#262626;" transform="translate(103.824173 405.318625)scale(0.088 -0.088)">
       <use xlink:href="#DejaVuSans-32"/>
      </g>
     </g>
    </g>
    <g id="xtick_3">
     <g id="line2d_3">
      <g>
       <use style="fill:#262626;stroke:#262626;" x="162.377798" xlink:href="#mf522298547" y="390.332"/>
      </g>
     </g>
     <g id="text_3">
      <!-- 4 -->
      <defs>
       <path d="M 37.796875 64.3125 
L 12.890625 25.390625 
L 37.796875 25.390625 
z
M 35.203125 72.90625 
L 47.609375 72.90625 
L 47.609375 25.390625 
L 58.015625 25.390625 
L 58.015625 17.1875 
L 47.609375 17.1875 
L 47.609375 0 
L 37.796875 0 
L 37.796875 17.1875 
L 4.890625 17.1875 
L 4.890625 26.703125 
z
" id="DejaVuSans-34"/>
      </defs>
      <g style="fill:#262626;" transform="translate(159.578298 405.318625)scale(0.088 -0.088)">
       <use xlink:href="#DejaVuSans-34"/>
      </g>
     </g>
    </g>
    <g id="xtick_4">
     <g id="line2d_4">
      <g>
       <use style="fill:#262626;stroke:#262626;" x="218.131922" xlink:href="#mf522298547" y="390.332"/>
      </g>
     </g>
     <g id="text_4">
      <!-- 6 -->
      <defs>
       <path d="M 33.015625 40.375 
Q 26.375 40.375 22.484375 35.828125 
Q 18.609375 31.296875 18.609375 23.390625 
Q 18.609375 15.53125 22.484375 10.953125 
Q 26.375 6.390625 33.015625 6.390625 
Q 39.65625 6.390625 43.53125 10.953125 
Q 47.40625 15.53125 47.40625 23.390625 
Q 47.40625 31.296875 43.53125 35.828125 
Q 39.65625 40.375 33.015625 40.375 
z
M 52.59375 71.296875 
L 52.59375 62.3125 
Q 48.875 64.0625 45.09375 64.984375 
Q 41.3125 65.921875 37.59375 65.921875 
Q 27.828125 65.921875 22.671875 59.328125 
Q 17.53125 52.734375 16.796875 39.40625 
Q 19.671875 43.65625 24.015625 45.921875 
Q 28.375 48.1875 33.59375 48.1875 
Q 44.578125 48.1875 50.953125 41.515625 
Q 57.328125 34.859375 57.328125 23.390625 
Q 57.328125 12.15625 50.6875 5.359375 
Q 44.046875 -1.421875 33.015625 -1.421875 
Q 20.359375 -1.421875 13.671875 8.265625 
Q 6.984375 17.96875 6.984375 36.375 
Q 6.984375 53.65625 15.1875 63.9375 
Q 23.390625 74.21875 37.203125 74.21875 
Q 40.921875 74.21875 44.703125 73.484375 
Q 48.484375 72.75 52.59375 71.296875 
z
" id="DejaVuSans-36"/>
      </defs>
      <g style="fill:#262626;" transform="translate(215.332422 405.318625)scale(0.088 -0.088)">
       <use xlink:href="#DejaVuSans-36"/>
      </g>
     </g>
    </g>
    <g id="xtick_5">
     <g id="line2d_5">
      <g>
       <use style="fill:#262626;stroke:#262626;" x="273.886047" xlink:href="#mf522298547" y="390.332"/>
      </g>
     </g>
     <g id="text_5">
      <!-- 8 -->
      <defs>
       <path d="M 31.78125 34.625 
Q 24.75 34.625 20.71875 30.859375 
Q 16.703125 27.09375 16.703125 20.515625 
Q 16.703125 13.921875 20.71875 10.15625 
Q 24.75 6.390625 31.78125 6.390625 
Q 38.8125 6.390625 42.859375 10.171875 
Q 46.921875 13.96875 46.921875 20.515625 
Q 46.921875 27.09375 42.890625 30.859375 
Q 38.875 34.625 31.78125 34.625 
z
M 21.921875 38.8125 
Q 15.578125 40.375 12.03125 44.71875 
Q 8.5 49.078125 8.5 55.328125 
Q 8.5 64.0625 14.71875 69.140625 
Q 20.953125 74.21875 31.78125 74.21875 
Q 42.671875 74.21875 48.875 69.140625 
Q 55.078125 64.0625 55.078125 55.328125 
Q 55.078125 49.078125 51.53125 44.71875 
Q 48 40.375 41.703125 38.8125 
Q 48.828125 37.15625 52.796875 32.3125 
Q 56.78125 27.484375 56.78125 20.515625 
Q 56.78125 9.90625 50.3125 4.234375 
Q 43.84375 -1.421875 31.78125 -1.421875 
Q 19.734375 -1.421875 13.25 4.234375 
Q 6.78125 9.90625 6.78125 20.515625 
Q 6.78125 27.484375 10.78125 32.3125 
Q 14.796875 37.15625 21.921875 38.8125 
z
M 18.3125 54.390625 
Q 18.3125 48.734375 21.84375 45.5625 
Q 25.390625 42.390625 31.78125 42.390625 
Q 38.140625 42.390625 41.71875 45.5625 
Q 45.3125 48.734375 45.3125 54.390625 
Q 45.3125 60.0625 41.71875 63.234375 
Q 38.140625 66.40625 31.78125 66.40625 
Q 25.390625 66.40625 21.84375 63.234375 
Q 18.3125 60.0625 18.3125 54.390625 
z
" id="DejaVuSans-38"/>
      </defs>
      <g style="fill:#262626;" transform="translate(271.086547 405.318625)scale(0.088 -0.088)">
       <use xlink:href="#DejaVuSans-38"/>
      </g>
     </g>
    </g>
    <g id="xtick_6">
     <g id="line2d_6">
      <g>
       <use style="fill:#262626;stroke:#262626;" x="329.640172" xlink:href="#mf522298547" y="390.332"/>
      </g>
     </g>
     <g id="text_6">
      <!-- 10 -->
      <defs>
       <path d="M 12.40625 8.296875 
L 28.515625 8.296875 
L 28.515625 63.921875 
L 10.984375 60.40625 
L 10.984375 69.390625 
L 28.421875 72.90625 
L 38.28125 72.90625 
L 38.28125 8.296875 
L 54.390625 8.296875 
L 54.390625 0 
L 12.40625 0 
z
" id="DejaVuSans-31"/>
      </defs>
      <g style="fill:#262626;" transform="translate(324.041172 405.318625)scale(0.088 -0.088)">
       <use xlink:href="#DejaVuSans-31"/>
       <use x="63.623047" xlink:href="#DejaVuSans-30"/>
      </g>
     </g>
    </g>
    <g id="text_7">
     <!-- g(k-1) -->
     <defs>
      <path d="M 45.40625 27.984375 
Q 45.40625 37.75 41.375 43.109375 
Q 37.359375 48.484375 30.078125 48.484375 
Q 22.859375 48.484375 18.828125 43.109375 
Q 14.796875 37.75 14.796875 27.984375 
Q 14.796875 18.265625 18.828125 12.890625 
Q 22.859375 7.515625 30.078125 7.515625 
Q 37.359375 7.515625 41.375 12.890625 
Q 45.40625 18.265625 45.40625 27.984375 
z
M 54.390625 6.78125 
Q 54.390625 -7.171875 48.1875 -13.984375 
Q 42 -20.796875 29.203125 -20.796875 
Q 24.46875 -20.796875 20.265625 -20.09375 
Q 16.0625 -19.390625 12.109375 -17.921875 
L 12.109375 -9.1875 
Q 16.0625 -11.328125 19.921875 -12.34375 
Q 23.78125 -13.375 27.78125 -13.375 
Q 36.625 -13.375 41.015625 -8.765625 
Q 45.40625 -4.15625 45.40625 5.171875 
L 45.40625 9.625 
Q 42.625 4.78125 38.28125 2.390625 
Q 33.9375 0 27.875 0 
Q 17.828125 0 11.671875 7.65625 
Q 5.515625 15.328125 5.515625 27.984375 
Q 5.515625 40.671875 11.671875 48.328125 
Q 17.828125 56 27.875 56 
Q 33.9375 56 38.28125 53.609375 
Q 42.625 51.21875 45.40625 46.390625 
L 45.40625 54.6875 
L 54.390625 54.6875 
z
" id="DejaVuSans-67"/>
      <path d="M 31 75.875 
Q 24.46875 64.65625 21.28125 53.65625 
Q 18.109375 42.671875 18.109375 31.390625 
Q 18.109375 20.125 21.3125 9.0625 
Q 24.515625 -2 31 -13.1875 
L 23.1875 -13.1875 
Q 15.875 -1.703125 12.234375 9.375 
Q 8.59375 20.453125 8.59375 31.390625 
Q 8.59375 42.28125 12.203125 53.3125 
Q 15.828125 64.359375 23.1875 75.875 
z
" id="DejaVuSans-28"/>
      <path d="M 9.078125 75.984375 
L 18.109375 75.984375 
L 18.109375 31.109375 
L 44.921875 54.6875 
L 56.390625 54.6875 
L 27.390625 29.109375 
L 57.625 0 
L 45.90625 0 
L 18.109375 26.703125 
L 18.109375 0 
L 9.078125 0 
z
" id="DejaVuSans-6b"/>
      <path d="M 4.890625 31.390625 
L 31.203125 31.390625 
L 31.203125 23.390625 
L 4.890625 23.390625 
z
" id="DejaVuSans-2d"/>
      <path d="M 8.015625 75.875 
L 15.828125 75.875 
Q 23.140625 64.359375 26.78125 53.3125 
Q 30.421875 42.28125 30.421875 31.390625 
Q 30.421875 20.453125 26.78125 9.375 
Q 23.140625 -1.703125 15.828125 -13.1875 
L 8.015625 -13.1875 
Q 14.5 -2 17.703125 9.0625 
Q 20.90625 20.125 20.90625 31.390625 
Q 20.90625 42.671875 17.703125 53.65625 
Q 14.5 64.65625 8.015625 75.875 
z
" id="DejaVuSans-29"/>
     </defs>
     <g style="fill:#262626;" transform="translate(185.590443 418.44325)scale(0.096 -0.096)">
      <use xlink:href="#DejaVuSans-67"/>
      <use x="63.476562" xlink:href="#DejaVuSans-28"/>
      <use x="102.490234" xlink:href="#DejaVuSans-6b"/>
      <use x="160.400391" xlink:href="#DejaVuSans-2d"/>
      <use x="196.484375" xlink:href="#DejaVuSans-31"/>
      <use x="260.107422" xlink:href="#DejaVuSans-29"/>
     </g>
    </g>
   </g>
   <g id="matplotlib.axis_2">
    <g id="ytick_1">
     <g id="line2d_7">
      <defs>
       <path d="M 0 0 
L -4.8 0 
" id="m91d8d44184" style="stroke:#262626;"/>
      </defs>
      <g>
       <use style="fill:#262626;stroke:#262626;" x="46.543" xlink:href="#m91d8d44184" y="344.052274"/>
      </g>
     </g>
     <g id="text_8">
      <!-- −6.8 -->
      <defs>
       <path d="M 10.59375 35.5 
L 73.1875 35.5 
L 73.1875 27.203125 
L 10.59375 27.203125 
z
" id="DejaVuSans-2212"/>
       <path d="M 10.6875 12.40625 
L 21 12.40625 
L 21 0 
L 10.6875 0 
z
" id="DejaVuSans-2e"/>
      </defs>
      <g style="fill:#262626;" transform="translate(16.874125 347.395586)scale(0.088 -0.088)">
       <use xlink:href="#DejaVuSans-2212"/>
       <use x="83.789062" xlink:href="#DejaVuSans-36"/>
       <use x="147.412109" xlink:href="#DejaVuSans-2e"/>
       <use x="179.199219" xlink:href="#DejaVuSans-38"/>
      </g>
     </g>
    </g>
    <g id="ytick_2">
     <g id="line2d_8">
      <g>
       <use style="fill:#262626;stroke:#262626;" x="46.543" xlink:href="#m91d8d44184" y="290.723175"/>
      </g>
     </g>
     <g id="text_9">
      <!-- −6.6 -->
      <g style="fill:#262626;" transform="translate(16.874125 294.066487)scale(0.088 -0.088)">
       <use xlink:href="#DejaVuSans-2212"/>
       <use x="83.789062" xlink:href="#DejaVuSans-36"/>
       <use x="147.412109" xlink:href="#DejaVuSans-2e"/>
       <use x="179.199219" xlink:href="#DejaVuSans-36"/>
      </g>
     </g>
    </g>
    <g id="ytick_3">
     <g id="line2d_9">
      <g>
       <use style="fill:#262626;stroke:#262626;" x="46.543" xlink:href="#m91d8d44184" y="237.394075"/>
      </g>
     </g>
     <g id="text_10">
      <!-- −6.4 -->
      <g style="fill:#262626;" transform="translate(16.874125 240.737388)scale(0.088 -0.088)">
       <use xlink:href="#DejaVuSans-2212"/>
       <use x="83.789062" xlink:href="#DejaVuSans-36"/>
       <use x="147.412109" xlink:href="#DejaVuSans-2e"/>
       <use x="179.199219" xlink:href="#DejaVuSans-34"/>
      </g>
     </g>
    </g>
    <g id="ytick_4">
     <g id="line2d_10">
      <g>
       <use style="fill:#262626;stroke:#262626;" x="46.543" xlink:href="#m91d8d44184" y="184.064976"/>
      </g>
     </g>
     <g id="text_11">
      <!-- −6.2 -->
      <g style="fill:#262626;" transform="translate(16.874125 187.408289)scale(0.088 -0.088)">
       <use xlink:href="#DejaVuSans-2212"/>
       <use x="83.789062" xlink:href="#DejaVuSans-36"/>
       <use x="147.412109" xlink:href="#DejaVuSans-2e"/>
       <use x="179.199219" xlink:href="#DejaVuSans-32"/>
      </g>
     </g>
    </g>
    <g id="ytick_5">
     <g id="line2d_11">
      <g>
       <use style="fill:#262626;stroke:#262626;" x="46.543" xlink:href="#m91d8d44184" y="130.735877"/>
      </g>
     </g>
     <g id="text_12">
      <!-- −6.0 -->
      <g style="fill:#262626;" transform="translate(16.874125 134.079189)scale(0.088 -0.088)">
       <use xlink:href="#DejaVuSans-2212"/>
       <use x="83.789062" xlink:href="#DejaVuSans-36"/>
       <use x="147.412109" xlink:href="#DejaVuSans-2e"/>
       <use x="179.199219" xlink:href="#DejaVuSans-30"/>
      </g>
     </g>
    </g>
    <g id="text_13">
     <!-- log(p) -->
     <defs>
      <path d="M 9.421875 75.984375 
L 18.40625 75.984375 
L 18.40625 0 
L 9.421875 0 
z
" id="DejaVuSans-6c"/>
      <path d="M 30.609375 48.390625 
Q 23.390625 48.390625 19.1875 42.75 
Q 14.984375 37.109375 14.984375 27.296875 
Q 14.984375 17.484375 19.15625 11.84375 
Q 23.34375 6.203125 30.609375 6.203125 
Q 37.796875 6.203125 41.984375 11.859375 
Q 46.1875 17.53125 46.1875 27.296875 
Q 46.1875 37.015625 41.984375 42.703125 
Q 37.796875 48.390625 30.609375 48.390625 
z
M 30.609375 56 
Q 42.328125 56 49.015625 48.375 
Q 55.71875 40.765625 55.71875 27.296875 
Q 55.71875 13.875 49.015625 6.21875 
Q 42.328125 -1.421875 30.609375 -1.421875 
Q 18.84375 -1.421875 12.171875 6.21875 
Q 5.515625 13.875 5.515625 27.296875 
Q 5.515625 40.765625 12.171875 48.375 
Q 18.84375 56 30.609375 56 
z
" id="DejaVuSans-6f"/>
      <path d="M 18.109375 8.203125 
L 18.109375 -20.796875 
L 9.078125 -20.796875 
L 9.078125 54.6875 
L 18.109375 54.6875 
L 18.109375 46.390625 
Q 20.953125 51.265625 25.265625 53.625 
Q 29.59375 56 35.59375 56 
Q 45.5625 56 51.78125 48.09375 
Q 58.015625 40.1875 58.015625 27.296875 
Q 58.015625 14.40625 51.78125 6.484375 
Q 45.5625 -1.421875 35.59375 -1.421875 
Q 29.59375 -1.421875 25.265625 0.953125 
Q 20.953125 3.328125 18.109375 8.203125 
z
M 48.6875 27.296875 
Q 48.6875 37.203125 44.609375 42.84375 
Q 40.53125 48.484375 33.40625 48.484375 
Q 26.265625 48.484375 22.1875 42.84375 
Q 18.109375 37.203125 18.109375 27.296875 
Q 18.109375 17.390625 22.1875 11.75 
Q 26.265625 6.109375 33.40625 6.109375 
Q 40.53125 6.109375 44.609375 11.75 
Q 48.6875 17.390625 48.6875 27.296875 
z
" id="DejaVuSans-70"/>
     </defs>
     <g style="fill:#262626;" transform="translate(10.877625 249.017414)rotate(-90)scale(0.096 -0.096)">
      <use xlink:href="#DejaVuSans-6c"/>
      <use x="27.783203" xlink:href="#DejaVuSans-6f"/>
      <use x="88.964844" xlink:href="#DejaVuSans-67"/>
      <use x="152.441406" xlink:href="#DejaVuSans-28"/>
      <use x="191.455078" xlink:href="#DejaVuSans-70"/>
      <use x="254.931641" xlink:href="#DejaVuSans-29"/>
     </g>
    </g>
   </g>
   <g id="PathCollection_1">
    <defs>
     <path d="M 0 2.4 
C 0.636487 2.4 1.246992 2.147121 1.697056 1.697056 
C 2.147121 1.246992 2.4 0.636487 2.4 0 
C 2.4 -0.636487 2.147121 -1.246992 1.697056 -1.697056 
C 1.246992 -2.147121 0.636487 -2.4 0 -2.4 
C -0.636487 -2.4 -1.246992 -2.147121 -1.697056 -1.697056 
C -2.147121 -1.246992 -2.4 -0.636487 -2.4 0 
C -2.4 0.636487 -2.147121 1.246992 -1.697056 1.697056 
C -1.246992 2.147121 -0.636487 2.4 0 2.4 
z
" id="m3114951933" style="stroke:#471365;stroke-opacity:0.8;"/>
    </defs>
    <g clip-path="url(#p487b445107)">
     <use style="fill:#471365;fill-opacity:0.8;stroke:#471365;stroke-opacity:0.8;" x="139.802464" xlink:href="#m3114951933" y="178.776117"/>
     <use style="fill:#471365;fill-opacity:0.8;stroke:#471365;stroke-opacity:0.8;" x="257.914863" xlink:href="#m3114951933" y="219.186503"/>
     <use style="fill:#471365;fill-opacity:0.8;stroke:#471365;stroke-opacity:0.8;" x="170.423449" xlink:href="#m3114951933" y="240.506967"/>
     <use style="fill:#471365;fill-opacity:0.8;stroke:#471365;stroke-opacity:0.8;" x="143.382097" xlink:href="#m3114951933" y="206.88343"/>
     <use style="fill:#471365;fill-opacity:0.8;stroke:#471365;stroke-opacity:0.8;" x="179.803301" xlink:href="#m3114951933" y="273.917682"/>
     <use style="fill:#471365;fill-opacity:0.8;stroke:#471365;stroke-opacity:0.8;" x="147.609427" xlink:href="#m3114951933" y="201.133964"/>
     <use style="fill:#471365;fill-opacity:0.8;stroke:#471365;stroke-opacity:0.8;" x="156.935543" xlink:href="#m3114951933" y="164.988116"/>
     <use style="fill:#471365;fill-opacity:0.8;stroke:#471365;stroke-opacity:0.8;" x="127.737446" xlink:href="#m3114951933" y="174.514589"/>
     <use style="fill:#471365;fill-opacity:0.8;stroke:#471365;stroke-opacity:0.8;" x="184.462571" xlink:href="#m3114951933" y="225.683734"/>
     <use style="fill:#471365;fill-opacity:0.8;stroke:#471365;stroke-opacity:0.8;" x="151.305334" xlink:href="#m3114951933" y="156.021024"/>
     <use style="fill:#471365;fill-opacity:0.8;stroke:#471365;stroke-opacity:0.8;" x="281.08676" xlink:href="#m3114951933" y="163.498904"/>
     <use style="fill:#471365;fill-opacity:0.8;stroke:#471365;stroke-opacity:0.8;" x="214.160667" xlink:href="#m3114951933" y="202.328656"/>
     <use style="fill:#471365;fill-opacity:0.8;stroke:#471365;stroke-opacity:0.8;" x="156.103864" xlink:href="#m3114951933" y="202.984346"/>
     <use style="fill:#471365;fill-opacity:0.8;stroke:#471365;stroke-opacity:0.8;" x="194.449898" xlink:href="#m3114951933" y="215.179027"/>
     <use style="fill:#471365;fill-opacity:0.8;stroke:#471365;stroke-opacity:0.8;" x="180.699528" xlink:href="#m3114951933" y="211.480338"/>
     <use style="fill:#471365;fill-opacity:0.8;stroke:#471365;stroke-opacity:0.8;" x="118.810126" xlink:href="#m3114951933" y="157.283483"/>
     <use style="fill:#471365;fill-opacity:0.8;stroke:#471365;stroke-opacity:0.8;" x="155.910721" xlink:href="#m3114951933" y="193.241598"/>
     <use style="fill:#471365;fill-opacity:0.8;stroke:#471365;stroke-opacity:0.8;" x="217.105986" xlink:href="#m3114951933" y="284.235994"/>
     <use style="fill:#471365;fill-opacity:0.8;stroke:#471365;stroke-opacity:0.8;" x="124.280177" xlink:href="#m3114951933" y="168.322022"/>
     <use style="fill:#471365;fill-opacity:0.8;stroke:#471365;stroke-opacity:0.8;" x="137.256165" xlink:href="#m3114951933" y="172.660423"/>
     <use style="fill:#471365;fill-opacity:0.8;stroke:#471365;stroke-opacity:0.8;" x="181.119518" xlink:href="#m3114951933" y="175.265439"/>
     <use style="fill:#471365;fill-opacity:0.8;stroke:#471365;stroke-opacity:0.8;" x="178.467637" xlink:href="#m3114951933" y="309.753008"/>
     <use style="fill:#471365;fill-opacity:0.8;stroke:#471365;stroke-opacity:0.8;" x="180.020309" xlink:href="#m3114951933" y="152.609622"/>
     <use style="fill:#471365;fill-opacity:0.8;stroke:#471365;stroke-opacity:0.8;" x="188.390084" xlink:href="#m3114951933" y="206.119527"/>
     <use style="fill:#471365;fill-opacity:0.8;stroke:#471365;stroke-opacity:0.8;" x="200.483816" xlink:href="#m3114951933" y="155.452095"/>
     <use style="fill:#471365;fill-opacity:0.8;stroke:#471365;stroke-opacity:0.8;" x="151.062223" xlink:href="#m3114951933" y="179.089696"/>
     <use style="fill:#471365;fill-opacity:0.8;stroke:#471365;stroke-opacity:0.8;" x="155.342922" xlink:href="#m3114951933" y="170.889533"/>
     <use style="fill:#471365;fill-opacity:0.8;stroke:#471365;stroke-opacity:0.8;" x="195.830888" xlink:href="#m3114951933" y="218.137695"/>
     <use style="fill:#471365;fill-opacity:0.8;stroke:#471365;stroke-opacity:0.8;" x="171.648699" xlink:href="#m3114951933" y="238.87883"/>
     <use style="fill:#471365;fill-opacity:0.8;stroke:#471365;stroke-opacity:0.8;" x="186.344283" xlink:href="#m3114951933" y="206.01468"/>
     <use style="fill:#471365;fill-opacity:0.8;stroke:#471365;stroke-opacity:0.8;" x="139.459198" xlink:href="#m3114951933" y="163.640523"/>
     <use style="fill:#471365;fill-opacity:0.8;stroke:#471365;stroke-opacity:0.8;" x="178.545987" xlink:href="#m3114951933" y="269.387421"/>
     <use style="fill:#471365;fill-opacity:0.8;stroke:#471365;stroke-opacity:0.8;" x="198.552947" xlink:href="#m3114951933" y="274.850452"/>
     <use style="fill:#471365;fill-opacity:0.8;stroke:#471365;stroke-opacity:0.8;" x="179.440339" xlink:href="#m3114951933" y="153.403538"/>
     <use style="fill:#471365;fill-opacity:0.8;stroke:#471365;stroke-opacity:0.8;" x="169.88552" xlink:href="#m3114951933" y="223.47563"/>
     <use style="fill:#471365;fill-opacity:0.8;stroke:#471365;stroke-opacity:0.8;" x="176.568205" xlink:href="#m3114951933" y="236.094978"/>
     <use style="fill:#471365;fill-opacity:0.8;stroke:#471365;stroke-opacity:0.8;" x="208.437783" xlink:href="#m3114951933" y="229.058453"/>
     <use style="fill:#471365;fill-opacity:0.8;stroke:#471365;stroke-opacity:0.8;" x="153.204987" xlink:href="#m3114951933" y="202.082253"/>
     <use style="fill:#471365;fill-opacity:0.8;stroke:#471365;stroke-opacity:0.8;" x="252.383514" xlink:href="#m3114951933" y="295.838027"/>
     <use style="fill:#471365;fill-opacity:0.8;stroke:#471365;stroke-opacity:0.8;" x="150.258179" xlink:href="#m3114951933" y="160.566126"/>
     <use style="fill:#471365;fill-opacity:0.8;stroke:#471365;stroke-opacity:0.8;" x="158.928681" xlink:href="#m3114951933" y="181.68479"/>
     <use style="fill:#471365;fill-opacity:0.8;stroke:#471365;stroke-opacity:0.8;" x="190.865791" xlink:href="#m3114951933" y="246.431039"/>
     <use style="fill:#471365;fill-opacity:0.8;stroke:#471365;stroke-opacity:0.8;" x="164.675213" xlink:href="#m3114951933" y="169.060773"/>
     <use style="fill:#471365;fill-opacity:0.8;stroke:#471365;stroke-opacity:0.8;" x="176.591342" xlink:href="#m3114951933" y="157.135907"/>
     <use style="fill:#471365;fill-opacity:0.8;stroke:#471365;stroke-opacity:0.8;" x="148.79736" xlink:href="#m3114951933" y="189.981383"/>
     <use style="fill:#471365;fill-opacity:0.8;stroke:#471365;stroke-opacity:0.8;" x="183.862624" xlink:href="#m3114951933" y="184.376052"/>
     <use style="fill:#471365;fill-opacity:0.8;stroke:#471365;stroke-opacity:0.8;" x="144.977348" xlink:href="#m3114951933" y="181.208216"/>
    </g>
   </g>
   <g id="PolyCollection_1">
    <defs>
     <path d="M 60.488949 -338.388618 
L 60.488949 -246.906419 
L 63.306313 -246.327587 
L 66.123676 -245.762593 
L 68.94104 -245.464022 
L 71.758403 -245.21447 
L 74.575767 -244.827252 
L 77.39313 -244.453379 
L 80.210494 -244.015662 
L 83.027857 -243.582158 
L 85.845221 -243.132708 
L 88.662584 -242.541205 
L 91.479948 -241.989201 
L 94.297311 -241.637981 
L 97.114675 -241.286761 
L 99.932038 -240.922474 
L 102.749402 -240.461815 
L 105.566765 -240.125826 
L 108.384129 -239.691498 
L 111.201492 -239.25717 
L 114.018856 -238.822842 
L 116.836219 -238.075699 
L 119.653583 -237.543046 
L 122.470946 -237.161669 
L 125.28831 -236.609061 
L 128.105673 -236.214143 
L 130.923037 -235.646069 
L 133.7404 -234.825909 
L 136.557764 -234.112683 
L 139.375127 -233.517682 
L 142.192491 -232.729175 
L 145.009855 -231.82529 
L 147.827218 -231.139135 
L 150.644582 -230.052378 
L 153.461945 -229.318474 
L 156.279309 -228.38197 
L 159.096672 -227.235463 
L 161.914036 -226.096267 
L 164.731399 -224.633262 
L 167.548763 -223.108381 
L 170.366126 -221.063595 
L 173.18349 -218.983714 
L 176.000853 -216.834371 
L 178.818217 -214.671426 
L 181.63558 -212.348166 
L 184.452944 -210.099516 
L 187.270307 -207.323636 
L 190.087671 -204.701365 
L 192.905034 -202.179126 
L 195.722398 -199.338861 
L 198.539761 -196.767378 
L 201.357125 -194.11257 
L 204.174488 -191.561542 
L 206.991852 -188.659946 
L 209.809215 -185.880887 
L 212.626579 -183.15542 
L 215.443942 -180.511752 
L 218.261306 -177.772573 
L 221.078669 -174.934943 
L 223.896033 -172.094176 
L 226.713396 -169.253408 
L 229.53076 -166.412641 
L 232.348123 -163.575137 
L 235.165487 -160.743589 
L 237.98285 -157.912041 
L 240.800214 -155.080493 
L 243.617577 -152.273386 
L 246.434941 -149.407241 
L 249.252304 -146.569344 
L 252.069668 -143.732282 
L 254.887031 -140.91391 
L 257.704395 -138.179527 
L 260.521758 -135.445144 
L 263.339122 -132.710761 
L 266.156485 -129.964178 
L 268.973849 -127.109748 
L 271.791212 -124.255319 
L 274.608576 -121.400889 
L 277.425939 -118.54646 
L 280.243303 -115.69203 
L 283.060666 -112.837601 
L 285.87803 -109.983171 
L 288.695393 -107.128742 
L 291.512757 -104.274312 
L 294.33012 -101.419883 
L 297.147484 -98.565454 
L 299.964847 -95.711024 
L 302.782211 -92.859662 
L 305.599574 -90.071318 
L 308.416938 -87.188036 
L 311.234301 -84.304754 
L 314.051665 -81.441187 
L 316.869028 -78.585573 
L 319.686392 -75.693989 
L 322.503755 -72.817884 
L 325.321119 -69.995086 
L 328.138482 -67.166729 
L 330.955846 -64.3123 
L 333.773209 -61.471734 
L 336.590573 -58.634644 
L 339.407936 -55.797553 
L 339.407936 -212.271626 
L 339.407936 -212.271626 
L 336.590573 -212.594259 
L 333.773209 -212.916892 
L 330.955846 -213.239525 
L 328.138482 -213.562158 
L 325.321119 -213.982078 
L 322.503755 -214.540826 
L 319.686392 -215.099573 
L 316.869028 -215.465843 
L 314.051665 -215.728001 
L 311.234301 -215.990159 
L 308.416938 -216.329965 
L 305.599574 -216.774707 
L 302.782211 -217.219449 
L 299.964847 -217.664191 
L 297.147484 -218.113244 
L 294.33012 -218.565042 
L 291.512757 -219.01684 
L 288.695393 -219.468638 
L 285.87803 -219.920436 
L 283.060666 -220.372234 
L 280.243303 -220.820739 
L 277.425939 -221.267077 
L 274.608576 -221.589757 
L 271.791212 -221.873596 
L 268.973849 -222.064347 
L 266.156485 -222.373545 
L 263.339122 -222.715406 
L 260.521758 -223.044065 
L 257.704395 -223.283357 
L 254.887031 -223.606386 
L 252.069668 -224.130727 
L 249.252304 -224.654571 
L 246.434941 -225.178415 
L 243.617577 -225.696442 
L 240.800214 -226.114749 
L 237.98285 -226.533056 
L 235.165487 -226.947488 
L 232.348123 -227.223696 
L 229.53076 -227.097105 
L 226.713396 -227.366282 
L 223.896033 -228.088441 
L 221.078669 -228.706427 
L 218.261306 -229.376844 
L 215.443942 -229.7547 
L 212.626579 -230.270059 
L 209.809215 -230.774628 
L 206.991852 -231.196354 
L 204.174488 -231.759809 
L 201.357125 -232.39845 
L 198.539761 -233.03645 
L 195.722398 -233.590685 
L 192.905034 -234.203874 
L 190.087671 -234.801412 
L 187.270307 -235.397206 
L 184.452944 -236.097303 
L 181.63558 -236.734549 
L 178.818217 -237.550821 
L 176.000853 -238.572627 
L 173.18349 -239.402291 
L 170.366126 -240.344936 
L 167.548763 -241.290283 
L 164.731399 -242.668766 
L 161.914036 -243.937909 
L 159.096672 -245.462405 
L 156.279309 -247.094964 
L 153.461945 -249.361853 
L 150.644582 -251.371532 
L 147.827218 -253.478017 
L 145.009855 -255.889595 
L 142.192491 -258.632356 
L 139.375127 -260.877881 
L 136.557764 -263.355136 
L 133.7404 -265.862021 
L 130.923037 -268.454151 
L 128.105673 -271.348721 
L 125.28831 -273.841825 
L 122.470946 -276.402808 
L 119.653583 -279.129811 
L 116.836219 -281.870753 
L 114.018856 -284.792075 
L 111.201492 -287.389788 
L 108.384129 -289.850429 
L 105.566765 -292.527814 
L 102.749402 -295.475616 
L 99.932038 -298.413305 
L 97.114675 -301.268519 
L 94.297311 -304.124239 
L 91.479948 -306.98061 
L 88.662584 -309.836982 
L 85.845221 -312.693353 
L 83.027857 -315.688951 
L 80.210494 -318.737668 
L 77.39313 -321.481137 
L 74.575767 -324.150932 
L 71.758403 -326.975211 
L 68.94104 -329.831582 
L 66.123676 -332.687954 
L 63.306313 -335.540657 
L 60.488949 -338.388618 
z
" id="me5f375a78f" style="stroke:#ffffff;stroke-opacity:0.15;stroke-width:0.8;"/>
    </defs>
    <g clip-path="url(#p487b445107)">
     <use style="fill:#471365;fill-opacity:0.15;stroke:#ffffff;stroke-opacity:0.15;stroke-width:0.8;" x="0" xlink:href="#me5f375a78f" y="432"/>
    </g>
   </g>
   <g id="line2d_12">
    <path clip-path="url(#p487b445107)" d="M 60.488949 146.123975 
L 63.306313 147.530178 
L 66.123676 148.93638 
L 68.94104 150.342583 
L 71.758403 151.748786 
L 74.575767 153.154988 
L 77.39313 154.561191 
L 80.210494 155.967394 
L 83.027857 157.373596 
L 85.845221 158.779799 
L 88.662584 160.186002 
L 91.479948 161.592204 
L 94.297311 162.998407 
L 97.114675 164.40461 
L 99.932038 165.810812 
L 102.749402 167.217015 
L 105.566765 168.623218 
L 108.384129 170.02942 
L 111.201492 171.435623 
L 114.018856 172.841826 
L 116.836219 174.248028 
L 119.653583 175.654231 
L 122.470946 177.060434 
L 125.28831 178.466636 
L 128.105673 179.872839 
L 130.923037 181.279041 
L 133.7404 182.685244 
L 136.557764 184.091447 
L 139.375127 185.497649 
L 142.192491 186.903852 
L 145.009855 188.310055 
L 147.827218 189.716257 
L 150.644582 191.12246 
L 153.461945 192.528663 
L 156.279309 193.934865 
L 159.096672 195.341068 
L 161.914036 196.747271 
L 164.731399 198.153473 
L 167.548763 199.559676 
L 170.366126 200.965879 
L 173.18349 202.372081 
L 176.000853 203.778284 
L 178.818217 205.184487 
L 181.63558 206.590689 
L 184.452944 207.996892 
L 187.270307 209.403095 
L 190.087671 210.809297 
L 192.905034 212.2155 
L 195.722398 213.621703 
L 198.539761 215.027905 
L 201.357125 216.434108 
L 204.174488 217.840311 
L 206.991852 219.246513 
L 209.809215 220.652716 
L 212.626579 222.058918 
L 215.443942 223.465121 
L 218.261306 224.871324 
L 221.078669 226.277526 
L 223.896033 227.683729 
L 226.713396 229.089932 
L 229.53076 230.496134 
L 232.348123 231.902337 
L 235.165487 233.30854 
L 237.98285 234.714742 
L 240.800214 236.120945 
L 243.617577 237.527148 
L 246.434941 238.93335 
L 249.252304 240.339553 
L 252.069668 241.745756 
L 254.887031 243.151958 
L 257.704395 244.558161 
L 260.521758 245.964364 
L 263.339122 247.370566 
L 266.156485 248.776769 
L 268.973849 250.182972 
L 271.791212 251.589174 
L 274.608576 252.995377 
L 277.425939 254.40158 
L 280.243303 255.807782 
L 283.060666 257.213985 
L 285.87803 258.620188 
L 288.695393 260.02639 
L 291.512757 261.432593 
L 294.33012 262.838795 
L 297.147484 264.244998 
L 299.964847 265.651201 
L 302.782211 267.057403 
L 305.599574 268.463606 
L 308.416938 269.869809 
L 311.234301 271.276011 
L 314.051665 272.682214 
L 316.869028 274.088417 
L 319.686392 275.494619 
L 322.503755 276.900822 
L 325.321119 278.307025 
L 328.138482 279.713227 
L 330.955846 281.11943 
L 333.773209 282.525633 
L 336.590573 283.931835 
L 339.407936 285.338038 
" style="fill:none;stroke:#471365;stroke-linecap:round;stroke-width:1.8;"/>
   </g>
   <g id="patch_3">
    <path d="M 46.543 390.332 
L 46.543 79.481829 
" style="fill:none;stroke:#262626;stroke-linecap:square;stroke-linejoin:miter;"/>
   </g>
   <g id="patch_4">
    <path d="M 46.543 390.332 
L 353.353886 390.332 
" style="fill:none;stroke:#262626;stroke-linecap:square;stroke-linejoin:miter;"/>
   </g>
   <g id="legend_1">
    <g id="patch_5">
     <path d="M 200.213261 99.438579 
L 347.193886 99.438579 
Q 348.953886 99.438579 348.953886 97.678579 
L 348.953886 85.641829 
Q 348.953886 83.881829 347.193886 83.881829 
L 200.213261 83.881829 
Q 198.453261 83.881829 198.453261 85.641829 
L 198.453261 97.678579 
Q 198.453261 99.438579 200.213261 99.438579 
z
" style="fill:#ffffff;opacity:0.8;stroke:#cccccc;stroke-linejoin:miter;stroke-width:0.8;"/>
    </g>
    <g id="line2d_13"/>
    <g id="line2d_14"/>
    <g id="text_14">
     <!-- pearsonr = -0.4; p = 0.005 -->
     <defs>
      <path d="M 56.203125 29.59375 
L 56.203125 25.203125 
L 14.890625 25.203125 
Q 15.484375 15.921875 20.484375 11.0625 
Q 25.484375 6.203125 34.421875 6.203125 
Q 39.59375 6.203125 44.453125 7.46875 
Q 49.3125 8.734375 54.109375 11.28125 
L 54.109375 2.78125 
Q 49.265625 0.734375 44.1875 -0.34375 
Q 39.109375 -1.421875 33.890625 -1.421875 
Q 20.796875 -1.421875 13.15625 6.1875 
Q 5.515625 13.8125 5.515625 26.8125 
Q 5.515625 40.234375 12.765625 48.109375 
Q 20.015625 56 32.328125 56 
Q 43.359375 56 49.78125 48.890625 
Q 56.203125 41.796875 56.203125 29.59375 
z
M 47.21875 32.234375 
Q 47.125 39.59375 43.09375 43.984375 
Q 39.0625 48.390625 32.421875 48.390625 
Q 24.90625 48.390625 20.390625 44.140625 
Q 15.875 39.890625 15.1875 32.171875 
z
" id="DejaVuSans-65"/>
      <path d="M 34.28125 27.484375 
Q 23.390625 27.484375 19.1875 25 
Q 14.984375 22.515625 14.984375 16.5 
Q 14.984375 11.71875 18.140625 8.90625 
Q 21.296875 6.109375 26.703125 6.109375 
Q 34.1875 6.109375 38.703125 11.40625 
Q 43.21875 16.703125 43.21875 25.484375 
L 43.21875 27.484375 
z
M 52.203125 31.203125 
L 52.203125 0 
L 43.21875 0 
L 43.21875 8.296875 
Q 40.140625 3.328125 35.546875 0.953125 
Q 30.953125 -1.421875 24.3125 -1.421875 
Q 15.921875 -1.421875 10.953125 3.296875 
Q 6 8.015625 6 15.921875 
Q 6 25.140625 12.171875 29.828125 
Q 18.359375 34.515625 30.609375 34.515625 
L 43.21875 34.515625 
L 43.21875 35.40625 
Q 43.21875 41.609375 39.140625 45 
Q 35.0625 48.390625 27.6875 48.390625 
Q 23 48.390625 18.546875 47.265625 
Q 14.109375 46.140625 10.015625 43.890625 
L 10.015625 52.203125 
Q 14.9375 54.109375 19.578125 55.046875 
Q 24.21875 56 28.609375 56 
Q 40.484375 56 46.34375 49.84375 
Q 52.203125 43.703125 52.203125 31.203125 
z
" id="DejaVuSans-61"/>
      <path d="M 41.109375 46.296875 
Q 39.59375 47.171875 37.8125 47.578125 
Q 36.03125 48 33.890625 48 
Q 26.265625 48 22.1875 43.046875 
Q 18.109375 38.09375 18.109375 28.8125 
L 18.109375 0 
L 9.078125 0 
L 9.078125 54.6875 
L 18.109375 54.6875 
L 18.109375 46.1875 
Q 20.953125 51.171875 25.484375 53.578125 
Q 30.03125 56 36.53125 56 
Q 37.453125 56 38.578125 55.875 
Q 39.703125 55.765625 41.0625 55.515625 
z
" id="DejaVuSans-72"/>
      <path d="M 44.28125 53.078125 
L 44.28125 44.578125 
Q 40.484375 46.53125 36.375 47.5 
Q 32.28125 48.484375 27.875 48.484375 
Q 21.1875 48.484375 17.84375 46.4375 
Q 14.5 44.390625 14.5 40.28125 
Q 14.5 37.15625 16.890625 35.375 
Q 19.28125 33.59375 26.515625 31.984375 
L 29.59375 31.296875 
Q 39.15625 29.25 43.1875 25.515625 
Q 47.21875 21.78125 47.21875 15.09375 
Q 47.21875 7.46875 41.1875 3.015625 
Q 35.15625 -1.421875 24.609375 -1.421875 
Q 20.21875 -1.421875 15.453125 -0.5625 
Q 10.6875 0.296875 5.421875 2 
L 5.421875 11.28125 
Q 10.40625 8.6875 15.234375 7.390625 
Q 20.0625 6.109375 24.8125 6.109375 
Q 31.15625 6.109375 34.5625 8.28125 
Q 37.984375 10.453125 37.984375 14.40625 
Q 37.984375 18.0625 35.515625 20.015625 
Q 33.0625 21.96875 24.703125 23.78125 
L 21.578125 24.515625 
Q 13.234375 26.265625 9.515625 29.90625 
Q 5.8125 33.546875 5.8125 39.890625 
Q 5.8125 47.609375 11.28125 51.796875 
Q 16.75 56 26.8125 56 
Q 31.78125 56 36.171875 55.265625 
Q 40.578125 54.546875 44.28125 53.078125 
z
" id="DejaVuSans-73"/>
      <path d="M 54.890625 33.015625 
L 54.890625 0 
L 45.90625 0 
L 45.90625 32.71875 
Q 45.90625 40.484375 42.875 44.328125 
Q 39.84375 48.1875 33.796875 48.1875 
Q 26.515625 48.1875 22.3125 43.546875 
Q 18.109375 38.921875 18.109375 30.90625 
L 18.109375 0 
L 9.078125 0 
L 9.078125 54.6875 
L 18.109375 54.6875 
L 18.109375 46.1875 
Q 21.34375 51.125 25.703125 53.5625 
Q 30.078125 56 35.796875 56 
Q 45.21875 56 50.046875 50.171875 
Q 54.890625 44.34375 54.890625 33.015625 
z
" id="DejaVuSans-6e"/>
      <path id="DejaVuSans-20"/>
      <path d="M 10.59375 45.40625 
L 73.1875 45.40625 
L 73.1875 37.203125 
L 10.59375 37.203125 
z
M 10.59375 25.484375 
L 73.1875 25.484375 
L 73.1875 17.1875 
L 10.59375 17.1875 
z
" id="DejaVuSans-3d"/>
      <path d="M 11.71875 51.703125 
L 22.015625 51.703125 
L 22.015625 39.3125 
L 11.71875 39.3125 
z
M 11.71875 12.40625 
L 22.015625 12.40625 
L 22.015625 4 
L 14.015625 -11.625 
L 7.71875 -11.625 
L 11.71875 4 
z
" id="DejaVuSans-3b"/>
      <path d="M 10.796875 72.90625 
L 49.515625 72.90625 
L 49.515625 64.59375 
L 19.828125 64.59375 
L 19.828125 46.734375 
Q 21.96875 47.46875 24.109375 47.828125 
Q 26.265625 48.1875 28.421875 48.1875 
Q 40.625 48.1875 47.75 41.5 
Q 54.890625 34.8125 54.890625 23.390625 
Q 54.890625 11.625 47.5625 5.09375 
Q 40.234375 -1.421875 26.90625 -1.421875 
Q 22.3125 -1.421875 17.546875 -0.640625 
Q 12.796875 0.140625 7.71875 1.703125 
L 7.71875 11.625 
Q 12.109375 9.234375 16.796875 8.0625 
Q 21.484375 6.890625 26.703125 6.890625 
Q 35.15625 6.890625 40.078125 11.328125 
Q 45.015625 15.765625 45.015625 23.390625 
Q 45.015625 31 40.078125 35.4375 
Q 35.15625 39.890625 26.703125 39.890625 
Q 22.75 39.890625 18.8125 39.015625 
Q 14.890625 38.140625 10.796875 36.28125 
z
" id="DejaVuSans-35"/>
     </defs>
     <g style="fill:#262626;" transform="translate(226.613261 94.088454)scale(0.088 -0.088)">
      <use xlink:href="#DejaVuSans-70"/>
      <use x="63.476562" xlink:href="#DejaVuSans-65"/>
      <use x="125" xlink:href="#DejaVuSans-61"/>
      <use x="186.279297" xlink:href="#DejaVuSans-72"/>
      <use x="227.392578" xlink:href="#DejaVuSans-73"/>
      <use x="279.492188" xlink:href="#DejaVuSans-6f"/>
      <use x="340.673828" xlink:href="#DejaVuSans-6e"/>
      <use x="404.052734" xlink:href="#DejaVuSans-72"/>
      <use x="445.166016" xlink:href="#DejaVuSans-20"/>
      <use x="476.953125" xlink:href="#DejaVuSans-3d"/>
      <use x="560.742188" xlink:href="#DejaVuSans-20"/>
      <use x="592.529297" xlink:href="#DejaVuSans-2d"/>
      <use x="628.613281" xlink:href="#DejaVuSans-30"/>
      <use x="692.236328" xlink:href="#DejaVuSans-2e"/>
      <use x="724.023438" xlink:href="#DejaVuSans-34"/>
      <use x="787.646484" xlink:href="#DejaVuSans-3b"/>
      <use x="821.337891" xlink:href="#DejaVuSans-20"/>
      <use x="853.125" xlink:href="#DejaVuSans-70"/>
      <use x="916.601562" xlink:href="#DejaVuSans-20"/>
      <use x="948.388672" xlink:href="#DejaVuSans-3d"/>
      <use x="1032.177734" xlink:href="#DejaVuSans-20"/>
      <use x="1063.964844" xlink:href="#DejaVuSans-30"/>
      <use x="1127.587891" xlink:href="#DejaVuSans-2e"/>
      <use x="1159.375" xlink:href="#DejaVuSans-30"/>
      <use x="1222.998047" xlink:href="#DejaVuSans-30"/>
      <use x="1286.621094" xlink:href="#DejaVuSans-35"/>
     </g>
    </g>
   </g>
  </g>
  <g id="axes_2">
   <g id="patch_6">
    <path d="M 46.543 68.762857 
L 353.353886 68.762857 
L 353.353886 15.168 
L 46.543 15.168 
z
" style="fill:#ffffff;"/>
   </g>
   <g id="matplotlib.axis_3">
    <g id="xtick_7">
     <g id="line2d_15">
      <g>
       <use style="fill:#262626;stroke:#262626;" x="50.869548" xlink:href="#mf522298547" y="68.762857"/>
      </g>
     </g>
    </g>
    <g id="xtick_8">
     <g id="line2d_16">
      <g>
       <use style="fill:#262626;stroke:#262626;" x="106.623673" xlink:href="#mf522298547" y="68.762857"/>
      </g>
     </g>
    </g>
    <g id="xtick_9">
     <g id="line2d_17">
      <g>
       <use style="fill:#262626;stroke:#262626;" x="162.377798" xlink:href="#mf522298547" y="68.762857"/>
      </g>
     </g>
    </g>
    <g id="xtick_10">
     <g id="line2d_18">
      <g>
       <use style="fill:#262626;stroke:#262626;" x="218.131922" xlink:href="#mf522298547" y="68.762857"/>
      </g>
     </g>
    </g>
    <g id="xtick_11">
     <g id="line2d_19">
      <g>
       <use style="fill:#262626;stroke:#262626;" x="273.886047" xlink:href="#mf522298547" y="68.762857"/>
      </g>
     </g>
    </g>
    <g id="xtick_12">
     <g id="line2d_20">
      <g>
       <use style="fill:#262626;stroke:#262626;" x="329.640172" xlink:href="#mf522298547" y="68.762857"/>
      </g>
     </g>
    </g>
   </g>
   <g id="matplotlib.axis_4">
    <g id="ytick_6"/>
    <g id="ytick_7"/>
    <g id="ytick_8"/>
   </g>
   <g id="patch_7">
    <path clip-path="url(#p9ad873ed84)" d="M 118.810126 68.762857 
L 136.840863 68.762857 
L 136.840863 57.825131 
L 118.810126 57.825131 
z
" style="fill:#471365;opacity:0.4;stroke:#ffffff;stroke-linejoin:miter;stroke-width:0.8;"/>
   </g>
   <g id="patch_8">
    <path clip-path="url(#p9ad873ed84)" d="M 136.840863 68.762857 
L 154.8716 68.762857 
L 154.8716 28.657862 
L 136.840863 28.657862 
z
" style="fill:#471365;opacity:0.4;stroke:#ffffff;stroke-linejoin:miter;stroke-width:0.8;"/>
   </g>
   <g id="patch_9">
    <path clip-path="url(#p9ad873ed84)" d="M 154.8716 68.762857 
L 172.902337 68.762857 
L 172.902337 35.949679 
L 154.8716 35.949679 
z
" style="fill:#471365;opacity:0.4;stroke:#ffffff;stroke-linejoin:miter;stroke-width:0.8;"/>
   </g>
   <g id="patch_10">
    <path clip-path="url(#p9ad873ed84)" d="M 172.902337 68.762857 
L 190.933074 68.762857 
L 190.933074 17.720136 
L 172.902337 17.720136 
z
" style="fill:#471365;opacity:0.4;stroke:#ffffff;stroke-linejoin:miter;stroke-width:0.8;"/>
   </g>
   <g id="patch_11">
    <path clip-path="url(#p9ad873ed84)" d="M 190.933074 68.762857 
L 208.963811 68.762857 
L 208.963811 50.533314 
L 190.933074 50.533314 
z
" style="fill:#471365;opacity:0.4;stroke:#ffffff;stroke-linejoin:miter;stroke-width:0.8;"/>
   </g>
   <g id="patch_12">
    <path clip-path="url(#p9ad873ed84)" d="M 208.963811 68.762857 
L 226.994548 68.762857 
L 226.994548 61.47104 
L 208.963811 61.47104 
z
" style="fill:#471365;opacity:0.4;stroke:#ffffff;stroke-linejoin:miter;stroke-width:0.8;"/>
   </g>
   <g id="patch_13">
    <path clip-path="url(#p9ad873ed84)" d="M 226.994548 68.762857 
L 245.025285 68.762857 
L 245.025285 68.762857 
L 226.994548 68.762857 
z
" style="fill:#471365;opacity:0.4;stroke:#ffffff;stroke-linejoin:miter;stroke-width:0.8;"/>
   </g>
   <g id="patch_14">
    <path clip-path="url(#p9ad873ed84)" d="M 245.025285 68.762857 
L 263.056022 68.762857 
L 263.056022 61.47104 
L 245.025285 61.47104 
z
" style="fill:#471365;opacity:0.4;stroke:#ffffff;stroke-linejoin:miter;stroke-width:0.8;"/>
   </g>
   <g id="patch_15">
    <path clip-path="url(#p9ad873ed84)" d="M 263.056022 68.762857 
L 281.08676 68.762857 
L 281.08676 65.116948 
L 263.056022 65.116948 
z
" style="fill:#471365;opacity:0.4;stroke:#ffffff;stroke-linejoin:miter;stroke-width:0.8;"/>
   </g>
   <g id="line2d_21">
    <path clip-path="url(#p9ad873ed84)" d="M 73.167085 68.731339 
L 75.728325 68.710415 
L 78.289564 68.677787 
L 80.850804 68.628273 
L 83.412043 68.55514 
L 85.973283 68.449974 
L 88.534522 68.302676 
L 91.095762 68.101634 
L 93.657002 67.834069 
L 96.218241 67.486555 
L 98.779481 67.045637 
L 101.34072 66.498481 
L 103.90196 65.833422 
L 106.463199 65.040347 
L 109.024439 64.110859 
L 111.585678 63.038265 
L 114.146918 61.817529 
L 116.708157 60.445376 
L 119.269397 58.920772 
L 121.830637 57.24593 
L 124.391876 55.427843 
L 126.953116 53.480158 
L 129.514355 51.424972 
L 132.075595 49.293996 
L 134.636834 47.12849 
L 137.198074 44.977518 
L 139.759313 42.894375 
L 142.320553 40.931479 
L 144.881793 39.13446 
L 147.443032 37.536546 
L 150.004272 36.154478 
L 152.565511 34.987043 
L 155.126751 34.016838 
L 157.68799 33.215258 
L 160.24923 32.549893 
L 162.810469 31.992951 
L 165.371709 31.528939 
L 167.932948 31.159914 
L 170.494188 30.90707 
L 173.055428 30.808202 
L 175.616667 30.911484 
L 178.177907 31.266808 
L 180.739146 31.916417 
L 183.300386 32.886703 
L 185.861625 34.182686 
L 188.422865 35.786085 
L 190.984104 37.65709 
L 193.545344 39.739222 
L 196.106584 41.966136 
L 198.667823 44.268977 
L 201.229063 46.582998 
L 203.790302 48.852468 
L 206.351542 51.033361 
L 208.912781 53.093821 
L 211.474021 55.012814 
L 214.03526 56.777624 
L 216.5965 58.380964 
L 219.157739 59.818399 
L 221.718979 61.08659 
L 224.280219 62.182586 
L 226.841458 63.104183 
L 229.402698 63.851059 
L 231.963937 64.426318 
L 234.525177 64.837977 
L 237.086416 65.09995 
L 239.647656 65.232249 
L 242.208895 65.260224 
L 244.770135 65.212914 
L 247.331375 65.120715 
L 249.892614 65.012746 
L 252.453854 64.914327 
L 255.015093 64.845019 
L 257.576333 64.817511 
L 260.137572 64.837527 
L 262.698812 64.904705 
L 265.260051 65.014193 
L 267.821291 65.158618 
L 270.38253 65.329992 
L 272.94377 65.521207 
L 275.50501 65.726879 
L 278.066249 65.943496 
L 280.627489 66.168973 
L 283.188728 66.401867 
L 285.749968 66.640531 
L 288.311207 66.882464 
L 290.872447 67.124022 
L 293.433686 67.36054 
L 295.994926 67.58678 
L 298.556166 67.797569 
L 301.117405 67.988461 
L 303.678645 68.156254 
L 306.239884 68.299286 
L 308.801124 68.417467 
L 311.362363 68.5121 
L 313.923603 68.585533 
L 316.484842 68.640758 
L 319.046082 68.681015 
L 321.607321 68.709465 
L 324.168561 68.728961 
L 326.729801 68.741918 
" style="fill:none;stroke:#471365;stroke-linecap:round;stroke-width:1.2;"/>
   </g>
   <g id="patch_16">
    <path d="M 46.543 68.762857 
L 353.353886 68.762857 
" style="fill:none;stroke:#262626;stroke-linecap:square;stroke-linejoin:miter;"/>
   </g>
  </g>
  <g id="axes_3">
   <g id="patch_17">
    <path d="M 363.933571 390.332 
L 416.832 390.332 
L 416.832 79.481829 
L 363.933571 79.481829 
z
" style="fill:#ffffff;"/>
   </g>
   <g id="matplotlib.axis_5">
    <g id="xtick_13"/>
    <g id="xtick_14"/>
   </g>
   <g id="matplotlib.axis_6">
    <g id="ytick_9">
     <g id="line2d_22">
      <g>
       <use style="fill:#262626;stroke:#262626;" x="363.933571" xlink:href="#m91d8d44184" y="344.052274"/>
      </g>
     </g>
    </g>
    <g id="ytick_10">
     <g id="line2d_23">
      <g>
       <use style="fill:#262626;stroke:#262626;" x="363.933571" xlink:href="#m91d8d44184" y="290.723175"/>
      </g>
     </g>
    </g>
    <g id="ytick_11">
     <g id="line2d_24">
      <g>
       <use style="fill:#262626;stroke:#262626;" x="363.933571" xlink:href="#m91d8d44184" y="237.394075"/>
      </g>
     </g>
    </g>
    <g id="ytick_12">
     <g id="line2d_25">
      <g>
       <use style="fill:#262626;stroke:#262626;" x="363.933571" xlink:href="#m91d8d44184" y="184.064976"/>
      </g>
     </g>
    </g>
    <g id="ytick_13">
     <g id="line2d_26">
      <g>
       <use style="fill:#262626;stroke:#262626;" x="363.933571" xlink:href="#m91d8d44184" y="130.735877"/>
      </g>
     </g>
    </g>
   </g>
   <g id="patch_18">
    <path clip-path="url(#p0c8a40a36c)" d="M 363.933571 309.753008 
L 372.824064 309.753008 
L 372.824064 283.562444 
L 363.933571 283.562444 
z
" style="fill:#471365;opacity:0.4;stroke:#ffffff;stroke-linejoin:miter;stroke-width:0.8;"/>
   </g>
   <g id="patch_19">
    <path clip-path="url(#p0c8a40a36c)" d="M 363.933571 283.562444 
L 372.824064 283.562444 
L 372.824064 257.37188 
L 363.933571 257.37188 
z
" style="fill:#471365;opacity:0.4;stroke:#ffffff;stroke-linejoin:miter;stroke-width:0.8;"/>
   </g>
   <g id="patch_20">
    <path clip-path="url(#p0c8a40a36c)" d="M 363.933571 257.37188 
L 375.787561 257.37188 
L 375.787561 231.181315 
L 363.933571 231.181315 
z
" style="fill:#471365;opacity:0.4;stroke:#ffffff;stroke-linejoin:miter;stroke-width:0.8;"/>
   </g>
   <g id="patch_21">
    <path clip-path="url(#p0c8a40a36c)" d="M 363.933571 231.181315 
L 393.568545 231.181315 
L 393.568545 204.990751 
L 363.933571 204.990751 
z
" style="fill:#471365;opacity:0.4;stroke:#ffffff;stroke-linejoin:miter;stroke-width:0.8;"/>
   </g>
   <g id="patch_22">
    <path clip-path="url(#p0c8a40a36c)" d="M 363.933571 204.990751 
L 393.568545 204.990751 
L 393.568545 178.800186 
L 363.933571 178.800186 
z
" style="fill:#471365;opacity:0.4;stroke:#ffffff;stroke-linejoin:miter;stroke-width:0.8;"/>
   </g>
   <g id="patch_23">
    <path clip-path="url(#p0c8a40a36c)" d="M 363.933571 178.800186 
L 414.313027 178.800186 
L 414.313027 152.609622 
L 363.933571 152.609622 
z
" style="fill:#471365;opacity:0.4;stroke:#ffffff;stroke-linejoin:miter;stroke-width:0.8;"/>
   </g>
   <g id="line2d_27">
    <path clip-path="url(#p0c8a40a36c)" d="M 363.955371 366.284564 
L 363.966939 363.555205 
L 363.983672 360.825847 
L 364.007376 358.096488 
L 364.040259 355.36713 
L 364.084937 352.637771 
L 364.144402 349.908413 
L 364.221939 347.179054 
L 364.321011 344.449696 
L 364.445085 341.720337 
L 364.597432 338.990978 
L 364.78091 336.26162 
L 364.997744 333.532261 
L 365.249338 330.802903 
L 365.536145 328.073544 
L 365.857595 325.344186 
L 366.212105 322.614827 
L 366.59715 319.885468 
L 367.009388 317.15611 
L 367.444796 314.426751 
L 367.898793 311.697393 
L 368.366324 308.968034 
L 368.841898 306.238676 
L 369.319576 303.509317 
L 369.792966 300.779959 
L 370.255259 298.0506 
L 370.699375 295.321241 
L 371.11828 292.591883 
L 371.50549 289.862524 
L 371.855777 287.133166 
L 372.166 284.403807 
L 372.435975 281.674449 
L 372.669242 278.94509 
L 372.873577 276.215731 
L 373.06112 273.486373 
L 373.248015 270.757014 
L 373.453553 268.027656 
L 373.698858 265.298297 
L 374.005259 262.568939 
L 374.392521 259.83958 
L 374.877165 257.110222 
L 375.471066 254.380863 
L 376.180492 251.651504 
L 377.005678 248.922146 
L 377.940931 246.192787 
L 378.975195 243.463429 
L 380.092977 240.73407 
L 381.275454 238.004712 
L 382.501669 235.275353 
L 383.74968 232.545994 
L 384.997635 229.816636 
L 386.224753 227.087277 
L 387.412235 224.357919 
L 388.544124 221.62856 
L 389.608115 218.899202 
L 390.596261 216.169843 
L 391.505496 213.440485 
L 392.337819 210.711126 
L 393.100028 207.981767 
L 393.802869 205.252409 
L 394.45957 202.52305 
L 395.083809 199.793692 
L 395.687276 197.064333 
L 396.277101 194.334975 
L 396.853473 191.605616 
L 397.407815 188.876257 
L 397.92183 186.146899 
L 398.367644 183.41754 
L 398.709164 180.688182 
L 398.904566 177.958823 
L 398.909743 175.229465 
L 398.682337 172.500106 
L 398.185965 169.770748 
L 397.394152 167.041389 
L 396.293557 164.31203 
L 394.886108 161.582672 
L 393.189815 158.853313 
L 391.238161 156.123955 
L 389.078131 153.394596 
L 386.767076 150.665238 
L 384.368764 147.935879 
L 381.949013 145.20652 
L 379.571352 142.477162 
L 377.293133 139.747803 
L 375.162426 137.018445 
L 373.215935 134.289086 
L 371.47803 131.559728 
L 369.96086 128.830369 
L 368.665394 126.101011 
L 367.58317 123.371652 
L 366.698463 120.642293 
L 365.990604 117.912935 
L 365.436214 115.183576 
L 365.011151 112.454218 
L 364.692071 109.724859 
L 364.45755 106.995501 
L 364.288767 104.266142 
L 364.169819 101.536783 
L 364.087729 98.807425 
L 364.032249 96.078066 
" style="fill:none;stroke:#471365;stroke-linecap:round;stroke-width:1.2;"/>
   </g>
   <g id="patch_24">
    <path d="M 363.933571 390.332 
L 363.933571 79.481829 
" style="fill:none;stroke:#262626;stroke-linecap:square;stroke-linejoin:miter;"/>
   </g>
  </g>
 </g>
 <defs>
  <clipPath id="p487b445107">
   <rect height="310.850171" width="306.810886" x="46.543" y="79.481829"/>
  </clipPath>
  <clipPath id="p9ad873ed84">
   <rect height="53.594857" width="306.810886" x="46.543" y="15.168"/>
  </clipPath>
  <clipPath id="p0c8a40a36c">
   <rect height="310.850171" width="52.898429" x="363.933571" y="79.481829"/>
  </clipPath>
 </defs>
</svg>
