<?xml version="1.0" encoding="utf-8" standalone="no"?>
<!DOCTYPE svg PUBLIC "-//W3C//DTD SVG 1.1//EN"
  "http://www.w3.org/Graphics/SVG/1.1/DTD/svg11.dtd">
<!-- Created with matplotlib (http://matplotlib.org/) -->
<svg height="432pt" version="1.1" viewBox="0 0 432 432" width="432pt" xmlns="http://www.w3.org/2000/svg" xmlns:xlink="http://www.w3.org/1999/xlink">
 <defs>
  <style type="text/css">
*{stroke-linecap:butt;stroke-linejoin:round;}
  </style>
 </defs>
 <g id="figure_1">
  <g id="patch_1">
   <path d="M 0 432 
L 432 432 
L 432 0 
L 0 0 
z
" style="fill:#ffffff;"/>
  </g>
  <g id="axes_1">
   <g id="patch_2">
    <path d="M 46.543 390.332 
L 353.353886 390.332 
L 353.353886 79.481829 
L 46.543 79.481829 
z
" style="fill:#ffffff;"/>
   </g>
   <g id="matplotlib.axis_1">
    <g id="xtick_1">
     <g id="line2d_1">
      <defs>
       <path d="M 0 0 
L 0 4.8 
" id="ma5c642dfbf" style="stroke:#262626;"/>
      </defs>
      <g>
       <use style="fill:#262626;stroke:#262626;" x="66.972825" xlink:href="#ma5c642dfbf" y="390.332"/>
      </g>
     </g>
     <g id="text_1">
      <!-- 0 -->
      <defs>
       <path d="M 31.78125 66.40625 
Q 24.171875 66.40625 20.328125 58.90625 
Q 16.5 51.421875 16.5 36.375 
Q 16.5 21.390625 20.328125 13.890625 
Q 24.171875 6.390625 31.78125 6.390625 
Q 39.453125 6.390625 43.28125 13.890625 
Q 47.125 21.390625 47.125 36.375 
Q 47.125 51.421875 43.28125 58.90625 
Q 39.453125 66.40625 31.78125 66.40625 
z
M 31.78125 74.21875 
Q 44.046875 74.21875 50.515625 64.515625 
Q 56.984375 54.828125 56.984375 36.375 
Q 56.984375 17.96875 50.515625 8.265625 
Q 44.046875 -1.421875 31.78125 -1.421875 
Q 19.53125 -1.421875 13.0625 8.265625 
Q 6.59375 17.96875 6.59375 36.375 
Q 6.59375 54.828125 13.0625 64.515625 
Q 19.53125 74.21875 31.78125 74.21875 
z
" id="DejaVuSans-30"/>
      </defs>
      <g style="fill:#262626;" transform="translate(64.173325 405.318625)scale(0.088 -0.088)">
       <use xlink:href="#DejaVuSans-30"/>
      </g>
     </g>
    </g>
    <g id="xtick_2">
     <g id="line2d_2">
      <g>
       <use style="fill:#262626;stroke:#262626;" x="121.994137" xlink:href="#ma5c642dfbf" y="390.332"/>
      </g>
     </g>
     <g id="text_2">
      <!-- 2 -->
      <defs>
       <path d="M 19.1875 8.296875 
L 53.609375 8.296875 
L 53.609375 0 
L 7.328125 0 
L 7.328125 8.296875 
Q 12.9375 14.109375 22.625 23.890625 
Q 32.328125 33.6875 34.8125 36.53125 
Q 39.546875 41.84375 41.421875 45.53125 
Q 43.3125 49.21875 43.3125 52.78125 
Q 43.3125 58.59375 39.234375 62.25 
Q 35.15625 65.921875 28.609375 65.921875 
Q 23.96875 65.921875 18.8125 64.3125 
Q 13.671875 62.703125 7.8125 59.421875 
L 7.8125 69.390625 
Q 13.765625 71.78125 18.9375 73 
Q 24.125 74.21875 28.421875 74.21875 
Q 39.75 74.21875 46.484375 68.546875 
Q 53.21875 62.890625 53.21875 53.421875 
Q 53.21875 48.921875 51.53125 44.890625 
Q 49.859375 40.875 45.40625 35.40625 
Q 44.1875 33.984375 37.640625 27.21875 
Q 31.109375 20.453125 19.1875 8.296875 
z
" id="DejaVuSans-32"/>
      </defs>
      <g style="fill:#262626;" transform="translate(119.194637 405.318625)scale(0.088 -0.088)">
       <use xlink:href="#DejaVuSans-32"/>
      </g>
     </g>
    </g>
    <g id="xtick_3">
     <g id="line2d_3">
      <g>
       <use style="fill:#262626;stroke:#262626;" x="177.015449" xlink:href="#ma5c642dfbf" y="390.332"/>
      </g>
     </g>
     <g id="text_3">
      <!-- 4 -->
      <defs>
       <path d="M 37.796875 64.3125 
L 12.890625 25.390625 
L 37.796875 25.390625 
z
M 35.203125 72.90625 
L 47.609375 72.90625 
L 47.609375 25.390625 
L 58.015625 25.390625 
L 58.015625 17.1875 
L 47.609375 17.1875 
L 47.609375 0 
L 37.796875 0 
L 37.796875 17.1875 
L 4.890625 17.1875 
L 4.890625 26.703125 
z
" id="DejaVuSans-34"/>
      </defs>
      <g style="fill:#262626;" transform="translate(174.215949 405.318625)scale(0.088 -0.088)">
       <use xlink:href="#DejaVuSans-34"/>
      </g>
     </g>
    </g>
    <g id="xtick_4">
     <g id="line2d_4">
      <g>
       <use style="fill:#262626;stroke:#262626;" x="232.036761" xlink:href="#ma5c642dfbf" y="390.332"/>
      </g>
     </g>
     <g id="text_4">
      <!-- 6 -->
      <defs>
       <path d="M 33.015625 40.375 
Q 26.375 40.375 22.484375 35.828125 
Q 18.609375 31.296875 18.609375 23.390625 
Q 18.609375 15.53125 22.484375 10.953125 
Q 26.375 6.390625 33.015625 6.390625 
Q 39.65625 6.390625 43.53125 10.953125 
Q 47.40625 15.53125 47.40625 23.390625 
Q 47.40625 31.296875 43.53125 35.828125 
Q 39.65625 40.375 33.015625 40.375 
z
M 52.59375 71.296875 
L 52.59375 62.3125 
Q 48.875 64.0625 45.09375 64.984375 
Q 41.3125 65.921875 37.59375 65.921875 
Q 27.828125 65.921875 22.671875 59.328125 
Q 17.53125 52.734375 16.796875 39.40625 
Q 19.671875 43.65625 24.015625 45.921875 
Q 28.375 48.1875 33.59375 48.1875 
Q 44.578125 48.1875 50.953125 41.515625 
Q 57.328125 34.859375 57.328125 23.390625 
Q 57.328125 12.15625 50.6875 5.359375 
Q 44.046875 -1.421875 33.015625 -1.421875 
Q 20.359375 -1.421875 13.671875 8.265625 
Q 6.984375 17.96875 6.984375 36.375 
Q 6.984375 53.65625 15.1875 63.9375 
Q 23.390625 74.21875 37.203125 74.21875 
Q 40.921875 74.21875 44.703125 73.484375 
Q 48.484375 72.75 52.59375 71.296875 
z
" id="DejaVuSans-36"/>
      </defs>
      <g style="fill:#262626;" transform="translate(229.237261 405.318625)scale(0.088 -0.088)">
       <use xlink:href="#DejaVuSans-36"/>
      </g>
     </g>
    </g>
    <g id="xtick_5">
     <g id="line2d_5">
      <g>
       <use style="fill:#262626;stroke:#262626;" x="287.058073" xlink:href="#ma5c642dfbf" y="390.332"/>
      </g>
     </g>
     <g id="text_5">
      <!-- 8 -->
      <defs>
       <path d="M 31.78125 34.625 
Q 24.75 34.625 20.71875 30.859375 
Q 16.703125 27.09375 16.703125 20.515625 
Q 16.703125 13.921875 20.71875 10.15625 
Q 24.75 6.390625 31.78125 6.390625 
Q 38.8125 6.390625 42.859375 10.171875 
Q 46.921875 13.96875 46.921875 20.515625 
Q 46.921875 27.09375 42.890625 30.859375 
Q 38.875 34.625 31.78125 34.625 
z
M 21.921875 38.8125 
Q 15.578125 40.375 12.03125 44.71875 
Q 8.5 49.078125 8.5 55.328125 
Q 8.5 64.0625 14.71875 69.140625 
Q 20.953125 74.21875 31.78125 74.21875 
Q 42.671875 74.21875 48.875 69.140625 
Q 55.078125 64.0625 55.078125 55.328125 
Q 55.078125 49.078125 51.53125 44.71875 
Q 48 40.375 41.703125 38.8125 
Q 48.828125 37.15625 52.796875 32.3125 
Q 56.78125 27.484375 56.78125 20.515625 
Q 56.78125 9.90625 50.3125 4.234375 
Q 43.84375 -1.421875 31.78125 -1.421875 
Q 19.734375 -1.421875 13.25 4.234375 
Q 6.78125 9.90625 6.78125 20.515625 
Q 6.78125 27.484375 10.78125 32.3125 
Q 14.796875 37.15625 21.921875 38.8125 
z
M 18.3125 54.390625 
Q 18.3125 48.734375 21.84375 45.5625 
Q 25.390625 42.390625 31.78125 42.390625 
Q 38.140625 42.390625 41.71875 45.5625 
Q 45.3125 48.734375 45.3125 54.390625 
Q 45.3125 60.0625 41.71875 63.234375 
Q 38.140625 66.40625 31.78125 66.40625 
Q 25.390625 66.40625 21.84375 63.234375 
Q 18.3125 60.0625 18.3125 54.390625 
z
" id="DejaVuSans-38"/>
      </defs>
      <g style="fill:#262626;" transform="translate(284.258573 405.318625)scale(0.088 -0.088)">
       <use xlink:href="#DejaVuSans-38"/>
      </g>
     </g>
    </g>
    <g id="xtick_6">
     <g id="line2d_6">
      <g>
       <use style="fill:#262626;stroke:#262626;" x="342.079385" xlink:href="#ma5c642dfbf" y="390.332"/>
      </g>
     </g>
     <g id="text_6">
      <!-- 10 -->
      <defs>
       <path d="M 12.40625 8.296875 
L 28.515625 8.296875 
L 28.515625 63.921875 
L 10.984375 60.40625 
L 10.984375 69.390625 
L 28.421875 72.90625 
L 38.28125 72.90625 
L 38.28125 8.296875 
L 54.390625 8.296875 
L 54.390625 0 
L 12.40625 0 
z
" id="DejaVuSans-31"/>
      </defs>
      <g style="fill:#262626;" transform="translate(336.480385 405.318625)scale(0.088 -0.088)">
       <use xlink:href="#DejaVuSans-31"/>
       <use x="63.623047" xlink:href="#DejaVuSans-30"/>
      </g>
     </g>
    </g>
    <g id="text_7">
     <!-- g(k-1) -->
     <defs>
      <path d="M 45.40625 27.984375 
Q 45.40625 37.75 41.375 43.109375 
Q 37.359375 48.484375 30.078125 48.484375 
Q 22.859375 48.484375 18.828125 43.109375 
Q 14.796875 37.75 14.796875 27.984375 
Q 14.796875 18.265625 18.828125 12.890625 
Q 22.859375 7.515625 30.078125 7.515625 
Q 37.359375 7.515625 41.375 12.890625 
Q 45.40625 18.265625 45.40625 27.984375 
z
M 54.390625 6.78125 
Q 54.390625 -7.171875 48.1875 -13.984375 
Q 42 -20.796875 29.203125 -20.796875 
Q 24.46875 -20.796875 20.265625 -20.09375 
Q 16.0625 -19.390625 12.109375 -17.921875 
L 12.109375 -9.1875 
Q 16.0625 -11.328125 19.921875 -12.34375 
Q 23.78125 -13.375 27.78125 -13.375 
Q 36.625 -13.375 41.015625 -8.765625 
Q 45.40625 -4.15625 45.40625 5.171875 
L 45.40625 9.625 
Q 42.625 4.78125 38.28125 2.390625 
Q 33.9375 0 27.875 0 
Q 17.828125 0 11.671875 7.65625 
Q 5.515625 15.328125 5.515625 27.984375 
Q 5.515625 40.671875 11.671875 48.328125 
Q 17.828125 56 27.875 56 
Q 33.9375 56 38.28125 53.609375 
Q 42.625 51.21875 45.40625 46.390625 
L 45.40625 54.6875 
L 54.390625 54.6875 
z
" id="DejaVuSans-67"/>
      <path d="M 31 75.875 
Q 24.46875 64.65625 21.28125 53.65625 
Q 18.109375 42.671875 18.109375 31.390625 
Q 18.109375 20.125 21.3125 9.0625 
Q 24.515625 -2 31 -13.1875 
L 23.1875 -13.1875 
Q 15.875 -1.703125 12.234375 9.375 
Q 8.59375 20.453125 8.59375 31.390625 
Q 8.59375 42.28125 12.203125 53.3125 
Q 15.828125 64.359375 23.1875 75.875 
z
" id="DejaVuSans-28"/>
      <path d="M 9.078125 75.984375 
L 18.109375 75.984375 
L 18.109375 31.109375 
L 44.921875 54.6875 
L 56.390625 54.6875 
L 27.390625 29.109375 
L 57.625 0 
L 45.90625 0 
L 18.109375 26.703125 
L 18.109375 0 
L 9.078125 0 
z
" id="DejaVuSans-6b"/>
      <path d="M 4.890625 31.390625 
L 31.203125 31.390625 
L 31.203125 23.390625 
L 4.890625 23.390625 
z
" id="DejaVuSans-2d"/>
      <path d="M 8.015625 75.875 
L 15.828125 75.875 
Q 23.140625 64.359375 26.78125 53.3125 
Q 30.421875 42.28125 30.421875 31.390625 
Q 30.421875 20.453125 26.78125 9.375 
Q 23.140625 -1.703125 15.828125 -13.1875 
L 8.015625 -13.1875 
Q 14.5 -2 17.703125 9.0625 
Q 20.90625 20.125 20.90625 31.390625 
Q 20.90625 42.671875 17.703125 53.65625 
Q 14.5 64.65625 8.015625 75.875 
z
" id="DejaVuSans-29"/>
     </defs>
     <g style="fill:#262626;" transform="translate(185.590443 418.44325)scale(0.096 -0.096)">
      <use xlink:href="#DejaVuSans-67"/>
      <use x="63.476562" xlink:href="#DejaVuSans-28"/>
      <use x="102.490234" xlink:href="#DejaVuSans-6b"/>
      <use x="160.400391" xlink:href="#DejaVuSans-2d"/>
      <use x="196.484375" xlink:href="#DejaVuSans-31"/>
      <use x="260.107422" xlink:href="#DejaVuSans-29"/>
     </g>
    </g>
   </g>
   <g id="matplotlib.axis_2">
    <g id="ytick_1">
     <g id="line2d_7">
      <defs>
       <path d="M 0 0 
L -4.8 0 
" id="m434dc5465c" style="stroke:#262626;"/>
      </defs>
      <g>
       <use style="fill:#262626;stroke:#262626;" x="46.543" xlink:href="#m434dc5465c" y="354.029888"/>
      </g>
     </g>
     <g id="text_8">
      <!-- 9.0 -->
      <defs>
       <path d="M 10.984375 1.515625 
L 10.984375 10.5 
Q 14.703125 8.734375 18.5 7.8125 
Q 22.3125 6.890625 25.984375 6.890625 
Q 35.75 6.890625 40.890625 13.453125 
Q 46.046875 20.015625 46.78125 33.40625 
Q 43.953125 29.203125 39.59375 26.953125 
Q 35.25 24.703125 29.984375 24.703125 
Q 19.046875 24.703125 12.671875 31.3125 
Q 6.296875 37.9375 6.296875 49.421875 
Q 6.296875 60.640625 12.9375 67.421875 
Q 19.578125 74.21875 30.609375 74.21875 
Q 43.265625 74.21875 49.921875 64.515625 
Q 56.59375 54.828125 56.59375 36.375 
Q 56.59375 19.140625 48.40625 8.859375 
Q 40.234375 -1.421875 26.421875 -1.421875 
Q 22.703125 -1.421875 18.890625 -0.6875 
Q 15.09375 0.046875 10.984375 1.515625 
z
M 30.609375 32.421875 
Q 37.25 32.421875 41.125 36.953125 
Q 45.015625 41.5 45.015625 49.421875 
Q 45.015625 57.28125 41.125 61.84375 
Q 37.25 66.40625 30.609375 66.40625 
Q 23.96875 66.40625 20.09375 61.84375 
Q 16.21875 57.28125 16.21875 49.421875 
Q 16.21875 41.5 20.09375 36.953125 
Q 23.96875 32.421875 30.609375 32.421875 
z
" id="DejaVuSans-39"/>
       <path d="M 10.6875 12.40625 
L 21 12.40625 
L 21 0 
L 10.6875 0 
z
" id="DejaVuSans-2e"/>
      </defs>
      <g style="fill:#262626;" transform="translate(24.24825 357.3732)scale(0.088 -0.088)">
       <use xlink:href="#DejaVuSans-39"/>
       <use x="63.623047" xlink:href="#DejaVuSans-2e"/>
       <use x="95.410156" xlink:href="#DejaVuSans-30"/>
      </g>
     </g>
    </g>
    <g id="ytick_2">
     <g id="line2d_8">
      <g>
       <use style="fill:#262626;stroke:#262626;" x="46.543" xlink:href="#m434dc5465c" y="295.83115"/>
      </g>
     </g>
     <g id="text_9">
      <!-- 9.5 -->
      <defs>
       <path d="M 10.796875 72.90625 
L 49.515625 72.90625 
L 49.515625 64.59375 
L 19.828125 64.59375 
L 19.828125 46.734375 
Q 21.96875 47.46875 24.109375 47.828125 
Q 26.265625 48.1875 28.421875 48.1875 
Q 40.625 48.1875 47.75 41.5 
Q 54.890625 34.8125 54.890625 23.390625 
Q 54.890625 11.625 47.5625 5.09375 
Q 40.234375 -1.421875 26.90625 -1.421875 
Q 22.3125 -1.421875 17.546875 -0.640625 
Q 12.796875 0.140625 7.71875 1.703125 
L 7.71875 11.625 
Q 12.109375 9.234375 16.796875 8.0625 
Q 21.484375 6.890625 26.703125 6.890625 
Q 35.15625 6.890625 40.078125 11.328125 
Q 45.015625 15.765625 45.015625 23.390625 
Q 45.015625 31 40.078125 35.4375 
Q 35.15625 39.890625 26.703125 39.890625 
Q 22.75 39.890625 18.8125 39.015625 
Q 14.890625 38.140625 10.796875 36.28125 
z
" id="DejaVuSans-35"/>
      </defs>
      <g style="fill:#262626;" transform="translate(24.24825 299.174462)scale(0.088 -0.088)">
       <use xlink:href="#DejaVuSans-39"/>
       <use x="63.623047" xlink:href="#DejaVuSans-2e"/>
       <use x="95.410156" xlink:href="#DejaVuSans-35"/>
      </g>
     </g>
    </g>
    <g id="ytick_3">
     <g id="line2d_9">
      <g>
       <use style="fill:#262626;stroke:#262626;" x="46.543" xlink:href="#m434dc5465c" y="237.632412"/>
      </g>
     </g>
     <g id="text_10">
      <!-- 10.0 -->
      <g style="fill:#262626;" transform="translate(18.64925 240.975724)scale(0.088 -0.088)">
       <use xlink:href="#DejaVuSans-31"/>
       <use x="63.623047" xlink:href="#DejaVuSans-30"/>
       <use x="127.246094" xlink:href="#DejaVuSans-2e"/>
       <use x="159.033203" xlink:href="#DejaVuSans-30"/>
      </g>
     </g>
    </g>
    <g id="ytick_4">
     <g id="line2d_10">
      <g>
       <use style="fill:#262626;stroke:#262626;" x="46.543" xlink:href="#m434dc5465c" y="179.433674"/>
      </g>
     </g>
     <g id="text_11">
      <!-- 10.5 -->
      <g style="fill:#262626;" transform="translate(18.64925 182.776987)scale(0.088 -0.088)">
       <use xlink:href="#DejaVuSans-31"/>
       <use x="63.623047" xlink:href="#DejaVuSans-30"/>
       <use x="127.246094" xlink:href="#DejaVuSans-2e"/>
       <use x="159.033203" xlink:href="#DejaVuSans-35"/>
      </g>
     </g>
    </g>
    <g id="ytick_5">
     <g id="line2d_11">
      <g>
       <use style="fill:#262626;stroke:#262626;" x="46.543" xlink:href="#m434dc5465c" y="121.234936"/>
      </g>
     </g>
     <g id="text_12">
      <!-- 11.0 -->
      <g style="fill:#262626;" transform="translate(18.64925 124.578249)scale(0.088 -0.088)">
       <use xlink:href="#DejaVuSans-31"/>
       <use x="63.623047" xlink:href="#DejaVuSans-31"/>
       <use x="127.246094" xlink:href="#DejaVuSans-2e"/>
       <use x="159.033203" xlink:href="#DejaVuSans-30"/>
      </g>
     </g>
    </g>
    <g id="text_13">
     <!-- log(n) -->
     <defs>
      <path d="M 9.421875 75.984375 
L 18.40625 75.984375 
L 18.40625 0 
L 9.421875 0 
z
" id="DejaVuSans-6c"/>
      <path d="M 30.609375 48.390625 
Q 23.390625 48.390625 19.1875 42.75 
Q 14.984375 37.109375 14.984375 27.296875 
Q 14.984375 17.484375 19.15625 11.84375 
Q 23.34375 6.203125 30.609375 6.203125 
Q 37.796875 6.203125 41.984375 11.859375 
Q 46.1875 17.53125 46.1875 27.296875 
Q 46.1875 37.015625 41.984375 42.703125 
Q 37.796875 48.390625 30.609375 48.390625 
z
M 30.609375 56 
Q 42.328125 56 49.015625 48.375 
Q 55.71875 40.765625 55.71875 27.296875 
Q 55.71875 13.875 49.015625 6.21875 
Q 42.328125 -1.421875 30.609375 -1.421875 
Q 18.84375 -1.421875 12.171875 6.21875 
Q 5.515625 13.875 5.515625 27.296875 
Q 5.515625 40.765625 12.171875 48.375 
Q 18.84375 56 30.609375 56 
z
" id="DejaVuSans-6f"/>
      <path d="M 54.890625 33.015625 
L 54.890625 0 
L 45.90625 0 
L 45.90625 32.71875 
Q 45.90625 40.484375 42.875 44.328125 
Q 39.84375 48.1875 33.796875 48.1875 
Q 26.515625 48.1875 22.3125 43.546875 
Q 18.109375 38.921875 18.109375 30.90625 
L 18.109375 0 
L 9.078125 0 
L 9.078125 54.6875 
L 18.109375 54.6875 
L 18.109375 46.1875 
Q 21.34375 51.125 25.703125 53.5625 
Q 30.078125 56 35.796875 56 
Q 45.21875 56 50.046875 50.171875 
Q 54.890625 44.34375 54.890625 33.015625 
z
" id="DejaVuSans-6e"/>
     </defs>
     <g style="fill:#262626;" transform="translate(12.65275 249.012164)rotate(-90)scale(0.096 -0.096)">
      <use xlink:href="#DejaVuSans-6c"/>
      <use x="27.783203" xlink:href="#DejaVuSans-6f"/>
      <use x="88.964844" xlink:href="#DejaVuSans-67"/>
      <use x="152.441406" xlink:href="#DejaVuSans-28"/>
      <use x="191.455078" xlink:href="#DejaVuSans-6e"/>
      <use x="254.833984" xlink:href="#DejaVuSans-29"/>
     </g>
    </g>
   </g>
   <g id="PathCollection_1">
    <defs>
     <path d="M 0 2.4 
C 0.636487 2.4 1.246992 2.147121 1.697056 1.697056 
C 2.147121 1.246992 2.4 0.636487 2.4 0 
C 2.4 -0.636487 2.147121 -1.246992 1.697056 -1.697056 
C 1.246992 -2.147121 0.636487 -2.4 0 -2.4 
C -0.636487 -2.4 -1.246992 -2.147121 -1.697056 -1.697056 
C -2.147121 -1.246992 -2.4 -0.636487 -2.4 0 
C -2.4 0.636487 -2.147121 1.246992 -1.697056 1.697056 
C -1.246992 2.147121 -0.636487 2.4 0 2.4 
z
" id="mf875167909" style="stroke:#471365;stroke-opacity:0.8;"/>
    </defs>
    <g clip-path="url(#p09b479850b)">
     <use style="fill:#471365;fill-opacity:0.8;stroke:#471365;stroke-opacity:0.8;" x="190.805367" xlink:href="#mf875167909" y="197.97954"/>
     <use style="fill:#471365;fill-opacity:0.8;stroke:#471365;stroke-opacity:0.8;" x="145.116369" xlink:href="#mf875167909" y="171.88709"/>
     <use style="fill:#471365;fill-opacity:0.8;stroke:#471365;stroke-opacity:0.8;" x="141.052802" xlink:href="#mf875167909" y="171.102217"/>
     <use style="fill:#471365;fill-opacity:0.8;stroke:#471365;stroke-opacity:0.8;" x="184.350893" xlink:href="#mf875167909" y="209.704682"/>
     <use style="fill:#471365;fill-opacity:0.8;stroke:#471365;stroke-opacity:0.8;" x="170.32893" xlink:href="#mf875167909" y="299.77841"/>
     <use style="fill:#471365;fill-opacity:0.8;stroke:#471365;stroke-opacity:0.8;" x="146.821065" xlink:href="#mf875167909" y="143.464794"/>
     <use style="fill:#471365;fill-opacity:0.8;stroke:#471365;stroke-opacity:0.8;" x="214.28181" xlink:href="#mf875167909" y="222.12416"/>
     <use style="fill:#471365;fill-opacity:0.8;stroke:#471365;stroke-opacity:0.8;" x="186.599751" xlink:href="#mf875167909" y="169.293776"/>
     <use style="fill:#471365;fill-opacity:0.8;stroke:#471365;stroke-opacity:0.8;" x="229.878438" xlink:href="#mf875167909" y="194.515214"/>
     <use style="fill:#471365;fill-opacity:0.8;stroke:#471365;stroke-opacity:0.8;" x="128.333511" xlink:href="#mf875167909" y="159.515384"/>
     <use style="fill:#471365;fill-opacity:0.8;stroke:#471365;stroke-opacity:0.8;" x="189.951996" xlink:href="#mf875167909" y="288.862983"/>
     <use style="fill:#471365;fill-opacity:0.8;stroke:#471365;stroke-opacity:0.8;" x="119.124938" xlink:href="#mf875167909" y="225.11727"/>
     <use style="fill:#471365;fill-opacity:0.8;stroke:#471365;stroke-opacity:0.8;" x="133.819083" xlink:href="#mf875167909" y="156.331436"/>
     <use style="fill:#471365;fill-opacity:0.8;stroke:#471365;stroke-opacity:0.8;" x="168.79701" xlink:href="#mf875167909" y="178.002777"/>
     <use style="fill:#471365;fill-opacity:0.8;stroke:#471365;stroke-opacity:0.8;" x="162.864251" xlink:href="#mf875167909" y="290.369783"/>
     <use style="fill:#471365;fill-opacity:0.8;stroke:#471365;stroke-opacity:0.8;" x="202.523606" xlink:href="#mf875167909" y="192.602427"/>
     <use style="fill:#471365;fill-opacity:0.8;stroke:#471365;stroke-opacity:0.8;" x="121.443834" xlink:href="#mf875167909" y="145.253425"/>
     <use style="fill:#471365;fill-opacity:0.8;stroke:#471365;stroke-opacity:0.8;" x="151.007372" xlink:href="#mf875167909" y="279.218107"/>
     <use style="fill:#471365;fill-opacity:0.8;stroke:#471365;stroke-opacity:0.8;" x="180.251346" xlink:href="#mf875167909" y="152.627193"/>
     <use style="fill:#471365;fill-opacity:0.8;stroke:#471365;stroke-opacity:0.8;" x="164.784295" xlink:href="#mf875167909" y="153.419571"/>
     <use style="fill:#471365;fill-opacity:0.8;stroke:#471365;stroke-opacity:0.8;" x="151.90846" xlink:href="#mf875167909" y="151.178951"/>
     <use style="fill:#471365;fill-opacity:0.8;stroke:#471365;stroke-opacity:0.8;" x="248.212971" xlink:href="#mf875167909" y="204.704553"/>
     <use style="fill:#471365;fill-opacity:0.8;stroke:#471365;stroke-opacity:0.8;" x="155.938121" xlink:href="#mf875167909" y="158.821188"/>
     <use style="fill:#471365;fill-opacity:0.8;stroke:#471365;stroke-opacity:0.8;" x="122.212765" xlink:href="#mf875167909" y="145.329527"/>
     <use style="fill:#471365;fill-opacity:0.8;stroke:#471365;stroke-opacity:0.8;" x="135.426017" xlink:href="#mf875167909" y="268.735527"/>
     <use style="fill:#471365;fill-opacity:0.8;stroke:#471365;stroke-opacity:0.8;" x="127.05533" xlink:href="#mf875167909" y="185.212891"/>
     <use style="fill:#471365;fill-opacity:0.8;stroke:#471365;stroke-opacity:0.8;" x="140.305046" xlink:href="#mf875167909" y="178.869033"/>
     <use style="fill:#471365;fill-opacity:0.8;stroke:#471365;stroke-opacity:0.8;" x="152.32594" xlink:href="#mf875167909" y="143.304768"/>
     <use style="fill:#471365;fill-opacity:0.8;stroke:#471365;stroke-opacity:0.8;" x="150.41251" xlink:href="#mf875167909" y="282.361205"/>
     <use style="fill:#471365;fill-opacity:0.8;stroke:#471365;stroke-opacity:0.8;" x="182.541676" xlink:href="#mf875167909" y="177.226325"/>
     <use style="fill:#471365;fill-opacity:0.8;stroke:#471365;stroke-opacity:0.8;" x="147.805233" xlink:href="#mf875167909" y="151.49959"/>
     <use style="fill:#471365;fill-opacity:0.8;stroke:#471365;stroke-opacity:0.8;" x="169.304554" xlink:href="#mf875167909" y="149.389722"/>
     <use style="fill:#471365;fill-opacity:0.8;stroke:#471365;stroke-opacity:0.8;" x="144.105305" xlink:href="#mf875167909" y="138.149451"/>
     <use style="fill:#471365;fill-opacity:0.8;stroke:#471365;stroke-opacity:0.8;" x="131.96641" xlink:href="#mf875167909" y="142.168945"/>
     <use style="fill:#471365;fill-opacity:0.8;stroke:#471365;stroke-opacity:0.8;" x="173.634652" xlink:href="#mf875167909" y="151.241403"/>
     <use style="fill:#471365;fill-opacity:0.8;stroke:#471365;stroke-opacity:0.8;" x="138.915908" xlink:href="#mf875167909" y="158.944003"/>
     <use style="fill:#471365;fill-opacity:0.8;stroke:#471365;stroke-opacity:0.8;" x="161.436937" xlink:href="#mf875167909" y="149.811509"/>
     <use style="fill:#471365;fill-opacity:0.8;stroke:#471365;stroke-opacity:0.8;" x="206.75344" xlink:href="#mf875167909" y="188.488111"/>
     <use style="fill:#471365;fill-opacity:0.8;stroke:#471365;stroke-opacity:0.8;" x="139.199794" xlink:href="#mf875167909" y="175.564726"/>
     <use style="fill:#471365;fill-opacity:0.8;stroke:#471365;stroke-opacity:0.8;" x="197.530593" xlink:href="#mf875167909" y="148.023015"/>
     <use style="fill:#471365;fill-opacity:0.8;stroke:#471365;stroke-opacity:0.8;" x="172.823448" xlink:href="#mf875167909" y="164.532071"/>
     <use style="fill:#471365;fill-opacity:0.8;stroke:#471365;stroke-opacity:0.8;" x="247.314685" xlink:href="#mf875167909" y="168.455539"/>
     <use style="fill:#471365;fill-opacity:0.8;stroke:#471365;stroke-opacity:0.8;" x="150.774322" xlink:href="#mf875167909" y="151.543478"/>
     <use style="fill:#471365;fill-opacity:0.8;stroke:#471365;stroke-opacity:0.8;" x="136.218231" xlink:href="#mf875167909" y="148.731804"/>
     <use style="fill:#471365;fill-opacity:0.8;stroke:#471365;stroke-opacity:0.8;" x="134.079113" xlink:href="#mf875167909" y="208.025107"/>
     <use style="fill:#471365;fill-opacity:0.8;stroke:#471365;stroke-opacity:0.8;" x="118.340708" xlink:href="#mf875167909" y="179.121679"/>
     <use style="fill:#471365;fill-opacity:0.8;stroke:#471365;stroke-opacity:0.8;" x="209.814212" xlink:href="#mf875167909" y="294.791561"/>
     <use style="fill:#471365;fill-opacity:0.8;stroke:#471365;stroke-opacity:0.8;" x="139.670376" xlink:href="#mf875167909" y="180.489486"/>
     <use style="fill:#471365;fill-opacity:0.8;stroke:#471365;stroke-opacity:0.8;" x="145.934804" xlink:href="#mf875167909" y="187.767619"/>
     <use style="fill:#471365;fill-opacity:0.8;stroke:#471365;stroke-opacity:0.8;" x="178.058785" xlink:href="#mf875167909" y="186.79321"/>
     <use style="fill:#471365;fill-opacity:0.8;stroke:#471365;stroke-opacity:0.8;" x="117.433855" xlink:href="#mf875167909" y="146.166704"/>
     <use style="fill:#471365;fill-opacity:0.8;stroke:#471365;stroke-opacity:0.8;" x="162.9787" xlink:href="#mf875167909" y="200.464318"/>
     <use style="fill:#471365;fill-opacity:0.8;stroke:#471365;stroke-opacity:0.8;" x="131.22096" xlink:href="#mf875167909" y="224.711092"/>
     <use style="fill:#471365;fill-opacity:0.8;stroke:#471365;stroke-opacity:0.8;" x="133.853083" xlink:href="#mf875167909" y="162.193655"/>
     <use style="fill:#471365;fill-opacity:0.8;stroke:#471365;stroke-opacity:0.8;" x="157.513584" xlink:href="#mf875167909" y="139.302862"/>
     <use style="fill:#471365;fill-opacity:0.8;stroke:#471365;stroke-opacity:0.8;" x="156.192821" xlink:href="#mf875167909" y="211.910156"/>
     <use style="fill:#471365;fill-opacity:0.8;stroke:#471365;stroke-opacity:0.8;" x="139.868552" xlink:href="#mf875167909" y="172.520067"/>
     <use style="fill:#471365;fill-opacity:0.8;stroke:#471365;stroke-opacity:0.8;" x="151.277209" xlink:href="#mf875167909" y="208.971592"/>
     <use style="fill:#471365;fill-opacity:0.8;stroke:#471365;stroke-opacity:0.8;" x="134.810167" xlink:href="#mf875167909" y="172.785225"/>
     <use style="fill:#471365;fill-opacity:0.8;stroke:#471365;stroke-opacity:0.8;" x="238.067956" xlink:href="#mf875167909" y="139.764738"/>
     <use style="fill:#471365;fill-opacity:0.8;stroke:#471365;stroke-opacity:0.8;" x="126.122676" xlink:href="#mf875167909" y="152.451071"/>
     <use style="fill:#471365;fill-opacity:0.8;stroke:#471365;stroke-opacity:0.8;" x="214.523759" xlink:href="#mf875167909" y="143.232294"/>
     <use style="fill:#471365;fill-opacity:0.8;stroke:#471365;stroke-opacity:0.8;" x="136.944518" xlink:href="#mf875167909" y="179.883528"/>
     <use style="fill:#471365;fill-opacity:0.8;stroke:#471365;stroke-opacity:0.8;" x="132.803136" xlink:href="#mf875167909" y="139.333555"/>
     <use style="fill:#471365;fill-opacity:0.8;stroke:#471365;stroke-opacity:0.8;" x="125.251231" xlink:href="#mf875167909" y="210.115437"/>
     <use style="fill:#471365;fill-opacity:0.8;stroke:#471365;stroke-opacity:0.8;" x="125.615712" xlink:href="#mf875167909" y="141.961063"/>
     <use style="fill:#471365;fill-opacity:0.8;stroke:#471365;stroke-opacity:0.8;" x="124.16726" xlink:href="#mf875167909" y="152.844006"/>
     <use style="fill:#471365;fill-opacity:0.8;stroke:#471365;stroke-opacity:0.8;" x="122.471991" xlink:href="#mf875167909" y="169.640691"/>
     <use style="fill:#471365;fill-opacity:0.8;stroke:#471365;stroke-opacity:0.8;" x="119.261879" xlink:href="#mf875167909" y="156.935367"/>
     <use style="fill:#471365;fill-opacity:0.8;stroke:#471365;stroke-opacity:0.8;" x="287.249324" xlink:href="#mf875167909" y="164.413473"/>
     <use style="fill:#471365;fill-opacity:0.8;stroke:#471365;stroke-opacity:0.8;" x="167.410378" xlink:href="#mf875167909" y="158.762484"/>
     <use style="fill:#471365;fill-opacity:0.8;stroke:#471365;stroke-opacity:0.8;" x="130.636862" xlink:href="#mf875167909" y="148.503458"/>
     <use style="fill:#471365;fill-opacity:0.8;stroke:#471365;stroke-opacity:0.8;" x="159.995614" xlink:href="#mf875167909" y="174.155588"/>
     <use style="fill:#471365;fill-opacity:0.8;stroke:#471365;stroke-opacity:0.8;" x="193.159935" xlink:href="#mf875167909" y="281.053347"/>
     <use style="fill:#471365;fill-opacity:0.8;stroke:#471365;stroke-opacity:0.8;" x="134.203683" xlink:href="#mf875167909" y="145.569789"/>
     <use style="fill:#471365;fill-opacity:0.8;stroke:#471365;stroke-opacity:0.8;" x="130.227383" xlink:href="#mf875167909" y="193.354587"/>
     <use style="fill:#471365;fill-opacity:0.8;stroke:#471365;stroke-opacity:0.8;" x="159.526876" xlink:href="#mf875167909" y="236.372938"/>
     <use style="fill:#471365;fill-opacity:0.8;stroke:#471365;stroke-opacity:0.8;" x="234.962375" xlink:href="#mf875167909" y="196.130287"/>
     <use style="fill:#471365;fill-opacity:0.8;stroke:#471365;stroke-opacity:0.8;" x="185.743702" xlink:href="#mf875167909" y="255.181071"/>
     <use style="fill:#471365;fill-opacity:0.8;stroke:#471365;stroke-opacity:0.8;" x="265.255312" xlink:href="#mf875167909" y="206.178904"/>
     <use style="fill:#471365;fill-opacity:0.8;stroke:#471365;stroke-opacity:0.8;" x="138.844497" xlink:href="#mf875167909" y="171.339352"/>
     <use style="fill:#471365;fill-opacity:0.8;stroke:#471365;stroke-opacity:0.8;" x="132.273239" xlink:href="#mf875167909" y="151.03856"/>
     <use style="fill:#471365;fill-opacity:0.8;stroke:#471365;stroke-opacity:0.8;" x="124.274843" xlink:href="#mf875167909" y="170.139724"/>
     <use style="fill:#471365;fill-opacity:0.8;stroke:#471365;stroke-opacity:0.8;" x="133.198901" xlink:href="#mf875167909" y="143.074594"/>
     <use style="fill:#471365;fill-opacity:0.8;stroke:#471365;stroke-opacity:0.8;" x="186.688022" xlink:href="#mf875167909" y="180.792101"/>
     <use style="fill:#471365;fill-opacity:0.8;stroke:#471365;stroke-opacity:0.8;" x="234.660537" xlink:href="#mf875167909" y="176.277299"/>
     <use style="fill:#471365;fill-opacity:0.8;stroke:#471365;stroke-opacity:0.8;" x="139.980073" xlink:href="#mf875167909" y="183.65594"/>
     <use style="fill:#471365;fill-opacity:0.8;stroke:#471365;stroke-opacity:0.8;" x="144.283917" xlink:href="#mf875167909" y="225.543723"/>
     <use style="fill:#471365;fill-opacity:0.8;stroke:#471365;stroke-opacity:0.8;" x="117.695427" xlink:href="#mf875167909" y="212.203403"/>
     <use style="fill:#471365;fill-opacity:0.8;stroke:#471365;stroke-opacity:0.8;" x="207.551825" xlink:href="#mf875167909" y="154.615086"/>
     <use style="fill:#471365;fill-opacity:0.8;stroke:#471365;stroke-opacity:0.8;" x="147.267642" xlink:href="#mf875167909" y="217.252981"/>
     <use style="fill:#471365;fill-opacity:0.8;stroke:#471365;stroke-opacity:0.8;" x="130.092481" xlink:href="#mf875167909" y="203.352308"/>
     <use style="fill:#471365;fill-opacity:0.8;stroke:#471365;stroke-opacity:0.8;" x="162.675736" xlink:href="#mf875167909" y="183.419644"/>
     <use style="fill:#471365;fill-opacity:0.8;stroke:#471365;stroke-opacity:0.8;" x="119.161736" xlink:href="#mf875167909" y="255.060397"/>
     <use style="fill:#471365;fill-opacity:0.8;stroke:#471365;stroke-opacity:0.8;" x="129.322549" xlink:href="#mf875167909" y="154.463407"/>
     <use style="fill:#471365;fill-opacity:0.8;stroke:#471365;stroke-opacity:0.8;" x="127.543246" xlink:href="#mf875167909" y="158.483092"/>
     <use style="fill:#471365;fill-opacity:0.8;stroke:#471365;stroke-opacity:0.8;" x="178.002331" xlink:href="#mf875167909" y="200.426196"/>
     <use style="fill:#471365;fill-opacity:0.8;stroke:#471365;stroke-opacity:0.8;" x="130.800687" xlink:href="#mf875167909" y="146.577184"/>
     <use style="fill:#471365;fill-opacity:0.8;stroke:#471365;stroke-opacity:0.8;" x="119.40012" xlink:href="#mf875167909" y="219.05944"/>
     <use style="fill:#471365;fill-opacity:0.8;stroke:#471365;stroke-opacity:0.8;" x="134.290222" xlink:href="#mf875167909" y="213.076315"/>
     <use style="fill:#471365;fill-opacity:0.8;stroke:#471365;stroke-opacity:0.8;" x="166.165453" xlink:href="#mf875167909" y="331.750512"/>
     <use style="fill:#471365;fill-opacity:0.8;stroke:#471365;stroke-opacity:0.8;" x="171.76774" xlink:href="#mf875167909" y="168.328485"/>
     <use style="fill:#471365;fill-opacity:0.8;stroke:#471365;stroke-opacity:0.8;" x="119.624857" xlink:href="#mf875167909" y="168.47329"/>
     <use style="fill:#471365;fill-opacity:0.8;stroke:#471365;stroke-opacity:0.8;" x="169.10063" xlink:href="#mf875167909" y="189.99765"/>
     <use style="fill:#471365;fill-opacity:0.8;stroke:#471365;stroke-opacity:0.8;" x="163.058611" xlink:href="#mf875167909" y="185.491403"/>
     <use style="fill:#471365;fill-opacity:0.8;stroke:#471365;stroke-opacity:0.8;" x="112.647562" xlink:href="#mf875167909" y="146.413417"/>
     <use style="fill:#471365;fill-opacity:0.8;stroke:#471365;stroke-opacity:0.8;" x="129.753326" xlink:href="#mf875167909" y="155.366875"/>
     <use style="fill:#471365;fill-opacity:0.8;stroke:#471365;stroke-opacity:0.8;" x="137.561066" xlink:href="#mf875167909" y="152.710061"/>
     <use style="fill:#471365;fill-opacity:0.8;stroke:#471365;stroke-opacity:0.8;" x="204.126529" xlink:href="#mf875167909" y="295.345486"/>
     <use style="fill:#471365;fill-opacity:0.8;stroke:#471365;stroke-opacity:0.8;" x="160.526704" xlink:href="#mf875167909" y="167.555906"/>
     <use style="fill:#471365;fill-opacity:0.8;stroke:#471365;stroke-opacity:0.8;" x="124.058703" xlink:href="#mf875167909" y="208.618723"/>
     <use style="fill:#471365;fill-opacity:0.8;stroke:#471365;stroke-opacity:0.8;" x="138.37144" xlink:href="#mf875167909" y="222.620054"/>
     <use style="fill:#471365;fill-opacity:0.8;stroke:#471365;stroke-opacity:0.8;" x="128.793591" xlink:href="#mf875167909" y="215.153388"/>
     <use style="fill:#471365;fill-opacity:0.8;stroke:#471365;stroke-opacity:0.8;" x="198.252657" xlink:href="#mf875167909" y="157.351752"/>
     <use style="fill:#471365;fill-opacity:0.8;stroke:#471365;stroke-opacity:0.8;" x="119.304779" xlink:href="#mf875167909" y="142.992559"/>
     <use style="fill:#471365;fill-opacity:0.8;stroke:#471365;stroke-opacity:0.8;" x="154.519643" xlink:href="#mf875167909" y="193.521304"/>
     <use style="fill:#471365;fill-opacity:0.8;stroke:#471365;stroke-opacity:0.8;" x="194.675912" xlink:href="#mf875167909" y="139.893801"/>
     <use style="fill:#471365;fill-opacity:0.8;stroke:#471365;stroke-opacity:0.8;" x="280.605582" xlink:href="#mf875167909" y="172.013119"/>
     <use style="fill:#471365;fill-opacity:0.8;stroke:#471365;stroke-opacity:0.8;" x="134.658358" xlink:href="#mf875167909" y="187.949929"/>
     <use style="fill:#471365;fill-opacity:0.8;stroke:#471365;stroke-opacity:0.8;" x="184.138166" xlink:href="#mf875167909" y="158.555494"/>
     <use style="fill:#471365;fill-opacity:0.8;stroke:#471365;stroke-opacity:0.8;" x="160.894189" xlink:href="#mf875167909" y="158.790541"/>
     <use style="fill:#471365;fill-opacity:0.8;stroke:#471365;stroke-opacity:0.8;" x="233.505728" xlink:href="#mf875167909" y="299.725884"/>
     <use style="fill:#471365;fill-opacity:0.8;stroke:#471365;stroke-opacity:0.8;" x="120.989695" xlink:href="#mf875167909" y="161.953578"/>
     <use style="fill:#471365;fill-opacity:0.8;stroke:#471365;stroke-opacity:0.8;" x="150.957151" xlink:href="#mf875167909" y="219.673262"/>
     <use style="fill:#471365;fill-opacity:0.8;stroke:#471365;stroke-opacity:0.8;" x="157.55845" xlink:href="#mf875167909" y="145.909696"/>
     <use style="fill:#471365;fill-opacity:0.8;stroke:#471365;stroke-opacity:0.8;" x="114.459144" xlink:href="#mf875167909" y="174.065175"/>
     <use style="fill:#471365;fill-opacity:0.8;stroke:#471365;stroke-opacity:0.8;" x="126.428143" xlink:href="#mf875167909" y="189.214726"/>
     <use style="fill:#471365;fill-opacity:0.8;stroke:#471365;stroke-opacity:0.8;" x="171.612447" xlink:href="#mf875167909" y="157.699446"/>
     <use style="fill:#471365;fill-opacity:0.8;stroke:#471365;stroke-opacity:0.8;" x="152.343072" xlink:href="#mf875167909" y="142.239675"/>
     <use style="fill:#471365;fill-opacity:0.8;stroke:#471365;stroke-opacity:0.8;" x="132.145067" xlink:href="#mf875167909" y="197.893328"/>
     <use style="fill:#471365;fill-opacity:0.8;stroke:#471365;stroke-opacity:0.8;" x="152.681989" xlink:href="#mf875167909" y="230.56349"/>
     <use style="fill:#471365;fill-opacity:0.8;stroke:#471365;stroke-opacity:0.8;" x="127.08739" xlink:href="#mf875167909" y="212.389428"/>
     <use style="fill:#471365;fill-opacity:0.8;stroke:#471365;stroke-opacity:0.8;" x="215.786614" xlink:href="#mf875167909" y="206.858144"/>
     <use style="fill:#471365;fill-opacity:0.8;stroke:#471365;stroke-opacity:0.8;" x="142.179148" xlink:href="#mf875167909" y="139.974879"/>
     <use style="fill:#471365;fill-opacity:0.8;stroke:#471365;stroke-opacity:0.8;" x="208.412571" xlink:href="#mf875167909" y="168.401563"/>
     <use style="fill:#471365;fill-opacity:0.8;stroke:#471365;stroke-opacity:0.8;" x="167.455046" xlink:href="#mf875167909" y="167.251939"/>
     <use style="fill:#471365;fill-opacity:0.8;stroke:#471365;stroke-opacity:0.8;" x="156.404087" xlink:href="#mf875167909" y="165.838807"/>
     <use style="fill:#471365;fill-opacity:0.8;stroke:#471365;stroke-opacity:0.8;" x="187.980115" xlink:href="#mf875167909" y="217.65814"/>
     <use style="fill:#471365;fill-opacity:0.8;stroke:#471365;stroke-opacity:0.8;" x="166.835052" xlink:href="#mf875167909" y="215.417625"/>
     <use style="fill:#471365;fill-opacity:0.8;stroke:#471365;stroke-opacity:0.8;" x="169.487901" xlink:href="#mf875167909" y="194.922614"/>
     <use style="fill:#471365;fill-opacity:0.8;stroke:#471365;stroke-opacity:0.8;" x="182.475257" xlink:href="#mf875167909" y="138.708464"/>
     <use style="fill:#471365;fill-opacity:0.8;stroke:#471365;stroke-opacity:0.8;" x="125.86855" xlink:href="#mf875167909" y="165.95759"/>
     <use style="fill:#471365;fill-opacity:0.8;stroke:#471365;stroke-opacity:0.8;" x="124.455153" xlink:href="#mf875167909" y="145.03864"/>
     <use style="fill:#471365;fill-opacity:0.8;stroke:#471365;stroke-opacity:0.8;" x="148.542536" xlink:href="#mf875167909" y="138.063316"/>
     <use style="fill:#471365;fill-opacity:0.8;stroke:#471365;stroke-opacity:0.8;" x="122.258733" xlink:href="#mf875167909" y="238.299035"/>
     <use style="fill:#471365;fill-opacity:0.8;stroke:#471365;stroke-opacity:0.8;" x="163.958996" xlink:href="#mf875167909" y="203.88417"/>
     <use style="fill:#471365;fill-opacity:0.8;stroke:#471365;stroke-opacity:0.8;" x="262.140489" xlink:href="#mf875167909" y="155.50745"/>
     <use style="fill:#471365;fill-opacity:0.8;stroke:#471365;stroke-opacity:0.8;" x="134.11256" xlink:href="#mf875167909" y="140.771231"/>
     <use style="fill:#471365;fill-opacity:0.8;stroke:#471365;stroke-opacity:0.8;" x="131.39416" xlink:href="#mf875167909" y="169.900602"/>
     <use style="fill:#471365;fill-opacity:0.8;stroke:#471365;stroke-opacity:0.8;" x="153.430283" xlink:href="#mf875167909" y="150.721924"/>
     <use style="fill:#471365;fill-opacity:0.8;stroke:#471365;stroke-opacity:0.8;" x="182.830353" xlink:href="#mf875167909" y="143.83407"/>
     <use style="fill:#471365;fill-opacity:0.8;stroke:#471365;stroke-opacity:0.8;" x="148.70883" xlink:href="#mf875167909" y="181.739745"/>
     <use style="fill:#471365;fill-opacity:0.8;stroke:#471365;stroke-opacity:0.8;" x="200.386231" xlink:href="#mf875167909" y="203.445934"/>
     <use style="fill:#471365;fill-opacity:0.8;stroke:#471365;stroke-opacity:0.8;" x="206.429232" xlink:href="#mf875167909" y="159.204767"/>
     <use style="fill:#471365;fill-opacity:0.8;stroke:#471365;stroke-opacity:0.8;" x="228.086333" xlink:href="#mf875167909" y="150.230107"/>
     <use style="fill:#471365;fill-opacity:0.8;stroke:#471365;stroke-opacity:0.8;" x="137.504894" xlink:href="#mf875167909" y="148.011087"/>
     <use style="fill:#471365;fill-opacity:0.8;stroke:#471365;stroke-opacity:0.8;" x="135.985604" xlink:href="#mf875167909" y="152.184085"/>
     <use style="fill:#471365;fill-opacity:0.8;stroke:#471365;stroke-opacity:0.8;" x="123.619931" xlink:href="#mf875167909" y="243.528404"/>
     <use style="fill:#471365;fill-opacity:0.8;stroke:#471365;stroke-opacity:0.8;" x="131.466089" xlink:href="#mf875167909" y="167.009166"/>
     <use style="fill:#471365;fill-opacity:0.8;stroke:#471365;stroke-opacity:0.8;" x="140.159312" xlink:href="#mf875167909" y="186.850723"/>
     <use style="fill:#471365;fill-opacity:0.8;stroke:#471365;stroke-opacity:0.8;" x="187.836109" xlink:href="#mf875167909" y="276.280203"/>
    </g>
   </g>
   <g id="PolyCollection_1">
    <defs>
     <path d="M 60.488949 -278.988911 
L 60.488949 -246.432399 
L 63.306313 -246.538711 
L 66.123676 -246.572924 
L 68.94104 -246.580889 
L 71.758403 -246.610939 
L 74.575767 -246.474773 
L 77.39313 -246.420947 
L 80.210494 -246.368051 
L 83.027857 -246.315156 
L 85.845221 -246.364354 
L 88.662584 -246.37193 
L 91.479948 -246.256385 
L 94.297311 -246.140999 
L 97.114675 -246.154278 
L 99.932038 -246.112962 
L 102.749402 -246.13787 
L 105.566765 -245.915194 
L 108.384129 -245.899489 
L 111.201492 -245.882632 
L 114.018856 -245.979453 
L 116.836219 -245.90957 
L 119.653583 -245.949787 
L 122.470946 -245.959595 
L 125.28831 -245.900615 
L 128.105673 -245.809182 
L 130.923037 -245.609593 
L 133.7404 -245.30644 
L 136.557764 -245.101323 
L 139.375127 -244.850041 
L 142.192491 -244.549787 
L 145.009855 -244.104674 
L 147.827218 -243.791821 
L 150.644582 -243.314701 
L 153.461945 -242.791722 
L 156.279309 -241.97977 
L 159.096672 -241.523325 
L 161.914036 -241.04071 
L 164.731399 -240.600862 
L 167.548763 -239.902776 
L 170.366126 -239.21236 
L 173.18349 -238.49351 
L 176.000853 -237.819141 
L 178.818217 -237.09701 
L 181.63558 -236.260385 
L 184.452944 -235.47268 
L 187.270307 -234.560274 
L 190.087671 -233.711633 
L 192.905034 -232.766 
L 195.722398 -232.064204 
L 198.539761 -231.109447 
L 201.357125 -230.138315 
L 204.174488 -229.328335 
L 206.991852 -228.460192 
L 209.809215 -227.702535 
L 212.626579 -226.959211 
L 215.443942 -226.045541 
L 218.261306 -225.133552 
L 221.078669 -224.212438 
L 223.896033 -223.290475 
L 226.713396 -222.368512 
L 229.53076 -221.501202 
L 232.348123 -220.589422 
L 235.165487 -219.588864 
L 237.98285 -218.65936 
L 240.800214 -217.729856 
L 243.617577 -216.805831 
L 246.434941 -215.899722 
L 249.252304 -215.029023 
L 252.069668 -214.027085 
L 254.887031 -213.095728 
L 257.704395 -212.165416 
L 260.521758 -211.23914 
L 263.339122 -210.312864 
L 266.156485 -209.386588 
L 268.973849 -208.41059 
L 271.791212 -207.33092 
L 274.608576 -206.25125 
L 277.425939 -205.322154 
L 280.243303 -204.409885 
L 283.060666 -203.497842 
L 285.87803 -202.614001 
L 288.695393 -201.717315 
L 291.512757 -200.760162 
L 294.33012 -199.904401 
L 297.147484 -199.048641 
L 299.964847 -198.19288 
L 302.782211 -197.337119 
L 305.599574 -196.41872 
L 308.416938 -195.492444 
L 311.234301 -194.566168 
L 314.051665 -193.639891 
L 316.869028 -192.713615 
L 319.686392 -191.787339 
L 322.503755 -190.861063 
L 325.321119 -189.934786 
L 328.138482 -189.00851 
L 330.955846 -188.082234 
L 333.773209 -187.155957 
L 336.590573 -186.23191 
L 339.407936 -185.308948 
L 339.407936 -251.717112 
L 339.407936 -251.717112 
L 336.590573 -251.679944 
L 333.773209 -251.642775 
L 330.955846 -251.605607 
L 328.138482 -251.568438 
L 325.321119 -251.53127 
L 322.503755 -251.494101 
L 319.686392 -251.456455 
L 316.869028 -251.418219 
L 314.051665 -251.379984 
L 311.234301 -251.341748 
L 308.416938 -251.303512 
L 305.599574 -251.265276 
L 302.782211 -251.227041 
L 299.964847 -251.20416 
L 297.147484 -251.255748 
L 294.33012 -251.237541 
L 291.512757 -251.181683 
L 288.695393 -251.124285 
L 285.87803 -251.090827 
L 283.060666 -251.068017 
L 280.243303 -250.992404 
L 277.425939 -250.97206 
L 274.608576 -250.985133 
L 271.791212 -250.926382 
L 268.973849 -250.801514 
L 266.156485 -250.733908 
L 263.339122 -250.695759 
L 260.521758 -250.656694 
L 257.704395 -250.618987 
L 254.887031 -250.58366 
L 252.069668 -250.543163 
L 249.252304 -250.503188 
L 246.434941 -250.450136 
L 243.617577 -250.397083 
L 240.800214 -250.344031 
L 237.98285 -250.356089 
L 235.165487 -250.334383 
L 232.348123 -250.415735 
L 229.53076 -250.493228 
L 226.713396 -250.561205 
L 223.896033 -250.654114 
L 221.078669 -250.729474 
L 218.261306 -250.809883 
L 215.443942 -250.887537 
L 212.626579 -250.836775 
L 209.809215 -250.774604 
L 206.991852 -250.944705 
L 204.174488 -251.08689 
L 201.357125 -251.171921 
L 198.539761 -251.301011 
L 195.722398 -251.374226 
L 192.905034 -251.462953 
L 190.087671 -251.573789 
L 187.270307 -251.69124 
L 184.452944 -251.833541 
L 181.63558 -251.966559 
L 178.818217 -252.159938 
L 176.000853 -252.355629 
L 173.18349 -252.584286 
L 170.366126 -252.868197 
L 167.548763 -253.054762 
L 164.731399 -253.293466 
L 161.914036 -253.544158 
L 159.096672 -253.964549 
L 156.279309 -254.238654 
L 153.461945 -254.505608 
L 150.644582 -254.813408 
L 147.827218 -255.290817 
L 145.009855 -255.995401 
L 142.192491 -256.494678 
L 139.375127 -257.042224 
L 136.557764 -257.598334 
L 133.7404 -258.275669 
L 130.923037 -258.892401 
L 128.105673 -259.442974 
L 125.28831 -260.173903 
L 122.470946 -261.042424 
L 119.653583 -261.73312 
L 116.836219 -262.515209 
L 114.018856 -263.364399 
L 111.201492 -264.084761 
L 108.384129 -265.082577 
L 105.566765 -265.969547 
L 102.749402 -266.985777 
L 99.932038 -267.668459 
L 97.114675 -268.48955 
L 94.297311 -269.222558 
L 91.479948 -269.947768 
L 88.662584 -270.670672 
L 85.845221 -271.421038 
L 83.027857 -272.327184 
L 80.210494 -273.095227 
L 77.39313 -273.951782 
L 74.575767 -274.945284 
L 71.758403 -275.646507 
L 68.94104 -276.34748 
L 66.123676 -277.229309 
L 63.306313 -278.109291 
L 60.488949 -278.988911 
z
" id="mb2eea572c3" style="stroke:#ffffff;stroke-opacity:0.15;stroke-width:0.8;"/>
    </defs>
    <g clip-path="url(#p09b479850b)">
     <use style="fill:#471365;fill-opacity:0.15;stroke:#ffffff;stroke-opacity:0.15;stroke-width:0.8;" x="0" xlink:href="#mb2eea572c3" y="432"/>
    </g>
   </g>
   <g id="line2d_12">
    <path clip-path="url(#p09b479850b)" d="M 60.488949 169.232926 
L 63.306313 169.651382 
L 66.123676 170.069838 
L 68.94104 170.488294 
L 71.758403 170.906751 
L 74.575767 171.325207 
L 77.39313 171.743663 
L 80.210494 172.162119 
L 83.027857 172.580576 
L 85.845221 172.999032 
L 88.662584 173.417488 
L 91.479948 173.835945 
L 94.297311 174.254401 
L 97.114675 174.672857 
L 99.932038 175.091313 
L 102.749402 175.50977 
L 105.566765 175.928226 
L 108.384129 176.346682 
L 111.201492 176.765138 
L 114.018856 177.183595 
L 116.836219 177.602051 
L 119.653583 178.020507 
L 122.470946 178.438963 
L 125.28831 178.85742 
L 128.105673 179.275876 
L 130.923037 179.694332 
L 133.7404 180.112789 
L 136.557764 180.531245 
L 139.375127 180.949701 
L 142.192491 181.368157 
L 145.009855 181.786614 
L 147.827218 182.20507 
L 150.644582 182.623526 
L 153.461945 183.041982 
L 156.279309 183.460439 
L 159.096672 183.878895 
L 161.914036 184.297351 
L 164.731399 184.715807 
L 167.548763 185.134264 
L 170.366126 185.55272 
L 173.18349 185.971176 
L 176.000853 186.389633 
L 178.818217 186.808089 
L 181.63558 187.226545 
L 184.452944 187.645001 
L 187.270307 188.063458 
L 190.087671 188.481914 
L 192.905034 188.90037 
L 195.722398 189.318826 
L 198.539761 189.737283 
L 201.357125 190.155739 
L 204.174488 190.574195 
L 206.991852 190.992651 
L 209.809215 191.411108 
L 212.626579 191.829564 
L 215.443942 192.24802 
L 218.261306 192.666477 
L 221.078669 193.084933 
L 223.896033 193.503389 
L 226.713396 193.921845 
L 229.53076 194.340302 
L 232.348123 194.758758 
L 235.165487 195.177214 
L 237.98285 195.59567 
L 240.800214 196.014127 
L 243.617577 196.432583 
L 246.434941 196.851039 
L 249.252304 197.269495 
L 252.069668 197.687952 
L 254.887031 198.106408 
L 257.704395 198.524864 
L 260.521758 198.943321 
L 263.339122 199.361777 
L 266.156485 199.780233 
L 268.973849 200.198689 
L 271.791212 200.617146 
L 274.608576 201.035602 
L 277.425939 201.454058 
L 280.243303 201.872514 
L 283.060666 202.290971 
L 285.87803 202.709427 
L 288.695393 203.127883 
L 291.512757 203.546339 
L 294.33012 203.964796 
L 297.147484 204.383252 
L 299.964847 204.801708 
L 302.782211 205.220165 
L 305.599574 205.638621 
L 308.416938 206.057077 
L 311.234301 206.475533 
L 314.051665 206.89399 
L 316.869028 207.312446 
L 319.686392 207.730902 
L 322.503755 208.149358 
L 325.321119 208.567815 
L 328.138482 208.986271 
L 330.955846 209.404727 
L 333.773209 209.823184 
L 336.590573 210.24164 
L 339.407936 210.660096 
" style="fill:none;stroke:#471365;stroke-linecap:round;stroke-width:1.8;"/>
   </g>
   <g id="patch_3">
    <path d="M 46.543 390.332 
L 46.543 79.481829 
" style="fill:none;stroke:#262626;stroke-linecap:square;stroke-linejoin:miter;"/>
   </g>
   <g id="patch_4">
    <path d="M 46.543 390.332 
L 353.353886 390.332 
" style="fill:none;stroke:#262626;stroke-linecap:square;stroke-linejoin:miter;"/>
   </g>
   <g id="legend_1">
    <g id="patch_5">
     <path d="M 194.614261 99.438579 
L 347.193886 99.438579 
Q 348.953886 99.438579 348.953886 97.678579 
L 348.953886 85.641829 
Q 348.953886 83.881829 347.193886 83.881829 
L 194.614261 83.881829 
Q 192.854261 83.881829 192.854261 85.641829 
L 192.854261 97.678579 
Q 192.854261 99.438579 194.614261 99.438579 
z
" style="fill:#ffffff;opacity:0.8;stroke:#cccccc;stroke-linejoin:miter;stroke-width:0.8;"/>
    </g>
    <g id="line2d_13"/>
    <g id="line2d_14"/>
    <g id="text_14">
     <!-- pearsonr = -0.13; p = 0.095 -->
     <defs>
      <path d="M 18.109375 8.203125 
L 18.109375 -20.796875 
L 9.078125 -20.796875 
L 9.078125 54.6875 
L 18.109375 54.6875 
L 18.109375 46.390625 
Q 20.953125 51.265625 25.265625 53.625 
Q 29.59375 56 35.59375 56 
Q 45.5625 56 51.78125 48.09375 
Q 58.015625 40.1875 58.015625 27.296875 
Q 58.015625 14.40625 51.78125 6.484375 
Q 45.5625 -1.421875 35.59375 -1.421875 
Q 29.59375 -1.421875 25.265625 0.953125 
Q 20.953125 3.328125 18.109375 8.203125 
z
M 48.6875 27.296875 
Q 48.6875 37.203125 44.609375 42.84375 
Q 40.53125 48.484375 33.40625 48.484375 
Q 26.265625 48.484375 22.1875 42.84375 
Q 18.109375 37.203125 18.109375 27.296875 
Q 18.109375 17.390625 22.1875 11.75 
Q 26.265625 6.109375 33.40625 6.109375 
Q 40.53125 6.109375 44.609375 11.75 
Q 48.6875 17.390625 48.6875 27.296875 
z
" id="DejaVuSans-70"/>
      <path d="M 56.203125 29.59375 
L 56.203125 25.203125 
L 14.890625 25.203125 
Q 15.484375 15.921875 20.484375 11.0625 
Q 25.484375 6.203125 34.421875 6.203125 
Q 39.59375 6.203125 44.453125 7.46875 
Q 49.3125 8.734375 54.109375 11.28125 
L 54.109375 2.78125 
Q 49.265625 0.734375 44.1875 -0.34375 
Q 39.109375 -1.421875 33.890625 -1.421875 
Q 20.796875 -1.421875 13.15625 6.1875 
Q 5.515625 13.8125 5.515625 26.8125 
Q 5.515625 40.234375 12.765625 48.109375 
Q 20.015625 56 32.328125 56 
Q 43.359375 56 49.78125 48.890625 
Q 56.203125 41.796875 56.203125 29.59375 
z
M 47.21875 32.234375 
Q 47.125 39.59375 43.09375 43.984375 
Q 39.0625 48.390625 32.421875 48.390625 
Q 24.90625 48.390625 20.390625 44.140625 
Q 15.875 39.890625 15.1875 32.171875 
z
" id="DejaVuSans-65"/>
      <path d="M 34.28125 27.484375 
Q 23.390625 27.484375 19.1875 25 
Q 14.984375 22.515625 14.984375 16.5 
Q 14.984375 11.71875 18.140625 8.90625 
Q 21.296875 6.109375 26.703125 6.109375 
Q 34.1875 6.109375 38.703125 11.40625 
Q 43.21875 16.703125 43.21875 25.484375 
L 43.21875 27.484375 
z
M 52.203125 31.203125 
L 52.203125 0 
L 43.21875 0 
L 43.21875 8.296875 
Q 40.140625 3.328125 35.546875 0.953125 
Q 30.953125 -1.421875 24.3125 -1.421875 
Q 15.921875 -1.421875 10.953125 3.296875 
Q 6 8.015625 6 15.921875 
Q 6 25.140625 12.171875 29.828125 
Q 18.359375 34.515625 30.609375 34.515625 
L 43.21875 34.515625 
L 43.21875 35.40625 
Q 43.21875 41.609375 39.140625 45 
Q 35.0625 48.390625 27.6875 48.390625 
Q 23 48.390625 18.546875 47.265625 
Q 14.109375 46.140625 10.015625 43.890625 
L 10.015625 52.203125 
Q 14.9375 54.109375 19.578125 55.046875 
Q 24.21875 56 28.609375 56 
Q 40.484375 56 46.34375 49.84375 
Q 52.203125 43.703125 52.203125 31.203125 
z
" id="DejaVuSans-61"/>
      <path d="M 41.109375 46.296875 
Q 39.59375 47.171875 37.8125 47.578125 
Q 36.03125 48 33.890625 48 
Q 26.265625 48 22.1875 43.046875 
Q 18.109375 38.09375 18.109375 28.8125 
L 18.109375 0 
L 9.078125 0 
L 9.078125 54.6875 
L 18.109375 54.6875 
L 18.109375 46.1875 
Q 20.953125 51.171875 25.484375 53.578125 
Q 30.03125 56 36.53125 56 
Q 37.453125 56 38.578125 55.875 
Q 39.703125 55.765625 41.0625 55.515625 
z
" id="DejaVuSans-72"/>
      <path d="M 44.28125 53.078125 
L 44.28125 44.578125 
Q 40.484375 46.53125 36.375 47.5 
Q 32.28125 48.484375 27.875 48.484375 
Q 21.1875 48.484375 17.84375 46.4375 
Q 14.5 44.390625 14.5 40.28125 
Q 14.5 37.15625 16.890625 35.375 
Q 19.28125 33.59375 26.515625 31.984375 
L 29.59375 31.296875 
Q 39.15625 29.25 43.1875 25.515625 
Q 47.21875 21.78125 47.21875 15.09375 
Q 47.21875 7.46875 41.1875 3.015625 
Q 35.15625 -1.421875 24.609375 -1.421875 
Q 20.21875 -1.421875 15.453125 -0.5625 
Q 10.6875 0.296875 5.421875 2 
L 5.421875 11.28125 
Q 10.40625 8.6875 15.234375 7.390625 
Q 20.0625 6.109375 24.8125 6.109375 
Q 31.15625 6.109375 34.5625 8.28125 
Q 37.984375 10.453125 37.984375 14.40625 
Q 37.984375 18.0625 35.515625 20.015625 
Q 33.0625 21.96875 24.703125 23.78125 
L 21.578125 24.515625 
Q 13.234375 26.265625 9.515625 29.90625 
Q 5.8125 33.546875 5.8125 39.890625 
Q 5.8125 47.609375 11.28125 51.796875 
Q 16.75 56 26.8125 56 
Q 31.78125 56 36.171875 55.265625 
Q 40.578125 54.546875 44.28125 53.078125 
z
" id="DejaVuSans-73"/>
      <path id="DejaVuSans-20"/>
      <path d="M 10.59375 45.40625 
L 73.1875 45.40625 
L 73.1875 37.203125 
L 10.59375 37.203125 
z
M 10.59375 25.484375 
L 73.1875 25.484375 
L 73.1875 17.1875 
L 10.59375 17.1875 
z
" id="DejaVuSans-3d"/>
      <path d="M 40.578125 39.3125 
Q 47.65625 37.796875 51.625 33 
Q 55.609375 28.21875 55.609375 21.1875 
Q 55.609375 10.40625 48.1875 4.484375 
Q 40.765625 -1.421875 27.09375 -1.421875 
Q 22.515625 -1.421875 17.65625 -0.515625 
Q 12.796875 0.390625 7.625 2.203125 
L 7.625 11.71875 
Q 11.71875 9.328125 16.59375 8.109375 
Q 21.484375 6.890625 26.8125 6.890625 
Q 36.078125 6.890625 40.9375 10.546875 
Q 45.796875 14.203125 45.796875 21.1875 
Q 45.796875 27.640625 41.28125 31.265625 
Q 36.765625 34.90625 28.71875 34.90625 
L 20.21875 34.90625 
L 20.21875 43.015625 
L 29.109375 43.015625 
Q 36.375 43.015625 40.234375 45.921875 
Q 44.09375 48.828125 44.09375 54.296875 
Q 44.09375 59.90625 40.109375 62.90625 
Q 36.140625 65.921875 28.71875 65.921875 
Q 24.65625 65.921875 20.015625 65.03125 
Q 15.375 64.15625 9.8125 62.3125 
L 9.8125 71.09375 
Q 15.4375 72.65625 20.34375 73.4375 
Q 25.25 74.21875 29.59375 74.21875 
Q 40.828125 74.21875 47.359375 69.109375 
Q 53.90625 64.015625 53.90625 55.328125 
Q 53.90625 49.265625 50.4375 45.09375 
Q 46.96875 40.921875 40.578125 39.3125 
z
" id="DejaVuSans-33"/>
      <path d="M 11.71875 51.703125 
L 22.015625 51.703125 
L 22.015625 39.3125 
L 11.71875 39.3125 
z
M 11.71875 12.40625 
L 22.015625 12.40625 
L 22.015625 4 
L 14.015625 -11.625 
L 7.71875 -11.625 
L 11.71875 4 
z
" id="DejaVuSans-3b"/>
     </defs>
     <g style="fill:#262626;" transform="translate(221.014261 94.088454)scale(0.088 -0.088)">
      <use xlink:href="#DejaVuSans-70"/>
      <use x="63.476562" xlink:href="#DejaVuSans-65"/>
      <use x="125" xlink:href="#DejaVuSans-61"/>
      <use x="186.279297" xlink:href="#DejaVuSans-72"/>
      <use x="227.392578" xlink:href="#DejaVuSans-73"/>
      <use x="279.492188" xlink:href="#DejaVuSans-6f"/>
      <use x="340.673828" xlink:href="#DejaVuSans-6e"/>
      <use x="404.052734" xlink:href="#DejaVuSans-72"/>
      <use x="445.166016" xlink:href="#DejaVuSans-20"/>
      <use x="476.953125" xlink:href="#DejaVuSans-3d"/>
      <use x="560.742188" xlink:href="#DejaVuSans-20"/>
      <use x="592.529297" xlink:href="#DejaVuSans-2d"/>
      <use x="628.613281" xlink:href="#DejaVuSans-30"/>
      <use x="692.236328" xlink:href="#DejaVuSans-2e"/>
      <use x="724.023438" xlink:href="#DejaVuSans-31"/>
      <use x="787.646484" xlink:href="#DejaVuSans-33"/>
      <use x="851.269531" xlink:href="#DejaVuSans-3b"/>
      <use x="884.960938" xlink:href="#DejaVuSans-20"/>
      <use x="916.748047" xlink:href="#DejaVuSans-70"/>
      <use x="980.224609" xlink:href="#DejaVuSans-20"/>
      <use x="1012.011719" xlink:href="#DejaVuSans-3d"/>
      <use x="1095.800781" xlink:href="#DejaVuSans-20"/>
      <use x="1127.587891" xlink:href="#DejaVuSans-30"/>
      <use x="1191.210938" xlink:href="#DejaVuSans-2e"/>
      <use x="1222.998047" xlink:href="#DejaVuSans-30"/>
      <use x="1286.621094" xlink:href="#DejaVuSans-39"/>
      <use x="1350.244141" xlink:href="#DejaVuSans-35"/>
     </g>
    </g>
   </g>
  </g>
  <g id="axes_2">
   <g id="patch_6">
    <path d="M 46.543 68.762857 
L 353.353886 68.762857 
L 353.353886 15.168 
L 46.543 15.168 
z
" style="fill:#ffffff;"/>
   </g>
   <g id="matplotlib.axis_3">
    <g id="xtick_7">
     <g id="line2d_15">
      <g>
       <use style="fill:#262626;stroke:#262626;" x="66.972825" xlink:href="#ma5c642dfbf" y="68.762857"/>
      </g>
     </g>
    </g>
    <g id="xtick_8">
     <g id="line2d_16">
      <g>
       <use style="fill:#262626;stroke:#262626;" x="121.994137" xlink:href="#ma5c642dfbf" y="68.762857"/>
      </g>
     </g>
    </g>
    <g id="xtick_9">
     <g id="line2d_17">
      <g>
       <use style="fill:#262626;stroke:#262626;" x="177.015449" xlink:href="#ma5c642dfbf" y="68.762857"/>
      </g>
     </g>
    </g>
    <g id="xtick_10">
     <g id="line2d_18">
      <g>
       <use style="fill:#262626;stroke:#262626;" x="232.036761" xlink:href="#ma5c642dfbf" y="68.762857"/>
      </g>
     </g>
    </g>
    <g id="xtick_11">
     <g id="line2d_19">
      <g>
       <use style="fill:#262626;stroke:#262626;" x="287.058073" xlink:href="#ma5c642dfbf" y="68.762857"/>
      </g>
     </g>
    </g>
    <g id="xtick_12">
     <g id="line2d_20">
      <g>
       <use style="fill:#262626;stroke:#262626;" x="342.079385" xlink:href="#ma5c642dfbf" y="68.762857"/>
      </g>
     </g>
    </g>
   </g>
   <g id="matplotlib.axis_4">
    <g id="ytick_6"/>
    <g id="ytick_7"/>
    <g id="ytick_8"/>
   </g>
   <g id="patch_7">
    <path clip-path="url(#pa925072d24)" d="M 112.647562 68.762857 
L 128.520449 68.762857 
L 128.520449 32.303771 
L 112.647562 32.303771 
z
" style="fill:#471365;opacity:0.4;stroke:#ffffff;stroke-linejoin:miter;stroke-width:0.8;"/>
   </g>
   <g id="patch_8">
    <path clip-path="url(#pa925072d24)" d="M 128.520449 68.762857 
L 144.393337 68.762857 
L 144.393337 17.720136 
L 128.520449 17.720136 
z
" style="fill:#471365;opacity:0.4;stroke:#ffffff;stroke-linejoin:miter;stroke-width:0.8;"/>
   </g>
   <g id="patch_9">
    <path clip-path="url(#pa925072d24)" d="M 144.393337 68.762857 
L 160.266224 68.762857 
L 160.266224 38.380285 
L 144.393337 38.380285 
z
" style="fill:#471365;opacity:0.4;stroke:#ffffff;stroke-linejoin:miter;stroke-width:0.8;"/>
   </g>
   <g id="patch_10">
    <path clip-path="url(#pa925072d24)" d="M 160.266224 68.762857 
L 176.139112 68.762857 
L 176.139112 42.026194 
L 160.266224 42.026194 
z
" style="fill:#471365;opacity:0.4;stroke:#ffffff;stroke-linejoin:miter;stroke-width:0.8;"/>
   </g>
   <g id="patch_11">
    <path clip-path="url(#pa925072d24)" d="M 176.139112 68.762857 
L 192.011999 68.762857 
L 192.011999 50.533314 
L 176.139112 50.533314 
z
" style="fill:#471365;opacity:0.4;stroke:#ffffff;stroke-linejoin:miter;stroke-width:0.8;"/>
   </g>
   <g id="patch_12">
    <path clip-path="url(#pa925072d24)" d="M 192.011999 68.762857 
L 207.884887 68.762857 
L 207.884887 56.609828 
L 192.011999 56.609828 
z
" style="fill:#471365;opacity:0.4;stroke:#ffffff;stroke-linejoin:miter;stroke-width:0.8;"/>
   </g>
   <g id="patch_13">
    <path clip-path="url(#pa925072d24)" d="M 207.884887 68.762857 
L 223.757774 68.762857 
L 223.757774 62.686343 
L 207.884887 62.686343 
z
" style="fill:#471365;opacity:0.4;stroke:#ffffff;stroke-linejoin:miter;stroke-width:0.8;"/>
   </g>
   <g id="patch_14">
    <path clip-path="url(#pa925072d24)" d="M 223.757774 68.762857 
L 239.630662 68.762857 
L 239.630662 61.47104 
L 223.757774 61.47104 
z
" style="fill:#471365;opacity:0.4;stroke:#ffffff;stroke-linejoin:miter;stroke-width:0.8;"/>
   </g>
   <g id="patch_15">
    <path clip-path="url(#pa925072d24)" d="M 239.630662 68.762857 
L 255.503549 68.762857 
L 255.503549 66.332251 
L 239.630662 66.332251 
z
" style="fill:#471365;opacity:0.4;stroke:#ffffff;stroke-linejoin:miter;stroke-width:0.8;"/>
   </g>
   <g id="patch_16">
    <path clip-path="url(#pa925072d24)" d="M 255.503549 68.762857 
L 271.376437 68.762857 
L 271.376437 66.332251 
L 255.503549 66.332251 
z
" style="fill:#471365;opacity:0.4;stroke:#ffffff;stroke-linejoin:miter;stroke-width:0.8;"/>
   </g>
   <g id="patch_17">
    <path clip-path="url(#pa925072d24)" d="M 271.376437 68.762857 
L 287.249324 68.762857 
L 287.249324 66.332251 
L 271.376437 66.332251 
z
" style="fill:#471365;opacity:0.4;stroke:#ffffff;stroke-linejoin:miter;stroke-width:0.8;"/>
   </g>
   <g id="line2d_21">
    <path clip-path="url(#pa925072d24)" d="M 73.167085 68.73102 
L 75.728325 68.702235 
L 78.289564 68.651188 
L 80.850804 68.563815 
L 83.412043 68.419465 
L 85.973283 68.18927 
L 88.534522 67.834927 
L 91.095762 67.308425 
L 93.657002 66.553299 
L 96.218241 65.507957 
L 98.779481 64.111361 
L 101.34072 62.310921 
L 103.90196 60.071916 
L 106.463199 57.387156 
L 109.024439 54.285194 
L 111.585678 50.835241 
L 114.146918 47.147208 
L 116.708157 43.365974 
L 119.269397 39.659951 
L 121.830637 36.205103 
L 124.391876 33.166575 
L 126.953116 30.680689 
L 129.514355 28.840211 
L 132.075595 27.685365 
L 134.636834 27.202087 
L 137.198074 27.327766 
L 139.759313 27.963308 
L 142.320553 28.989231 
L 144.881793 30.282798 
L 147.443032 31.733171 
L 150.004272 33.252181 
L 152.565511 34.779376 
L 155.126751 36.281327 
L 157.68799 37.74633 
L 160.24923 39.176458 
L 162.810469 40.579169 
L 165.371709 41.96043 
L 167.932948 43.320617 
L 170.494188 44.653563 
L 173.055428 45.948248 
L 175.616667 47.192029 
L 178.177907 48.374081 
L 180.739146 49.487939 
L 183.300386 50.532544 
L 185.861625 51.511815 
L 188.422865 52.433256 
L 190.984104 53.306282 
L 193.545344 54.140806 
L 196.106584 54.946299 
L 198.667823 55.731154 
L 201.229063 56.502048 
L 203.790302 57.263048 
L 206.351542 58.014526 
L 208.912781 58.752253 
L 211.474021 59.467218 
L 214.03526 60.146624 
L 216.5965 60.77615 
L 219.157739 61.343077 
L 221.718979 61.839501 
L 224.280219 62.264688 
L 226.841458 62.625823 
L 229.402698 62.936856 
L 231.963937 63.215738 
L 234.525177 63.480777 
L 237.086416 63.747113 
L 239.647656 64.024168 
L 242.208895 64.314629 
L 244.770135 64.615024 
L 247.331375 64.917523 
L 249.892614 65.212347 
L 252.453854 65.490115 
L 255.015093 65.743584 
L 257.576333 65.968555 
L 260.137572 66.163933 
L 262.698812 66.331221 
L 265.260051 66.473756 
L 267.821291 66.596001 
L 270.38253 66.703064 
L 272.94377 66.800436 
L 275.50501 66.893819 
L 278.066249 66.988893 
L 280.627489 67.090871 
L 283.188728 67.203886 
L 285.749968 67.330307 
L 288.311207 67.470223 
L 290.872447 67.621272 
L 293.433686 67.778928 
L 295.994926 67.937216 
L 298.556166 68.089686 
L 301.117405 68.23042 
L 303.678645 68.354856 
L 306.239884 68.460261 
L 308.801124 68.545823 
L 311.362363 68.612411 
L 313.923603 68.662116 
L 316.484842 68.69772 
L 319.046082 68.722203 
L 321.607321 68.73837 
L 324.168561 68.748627 
L 326.729801 68.75488 
" style="fill:none;stroke:#471365;stroke-linecap:round;stroke-width:1.2;"/>
   </g>
   <g id="patch_18">
    <path d="M 46.543 68.762857 
L 353.353886 68.762857 
" style="fill:none;stroke:#262626;stroke-linecap:square;stroke-linejoin:miter;"/>
   </g>
  </g>
  <g id="axes_3">
   <g id="patch_19">
    <path d="M 363.933571 390.332 
L 416.832 390.332 
L 416.832 79.481829 
L 363.933571 79.481829 
z
" style="fill:#ffffff;"/>
   </g>
   <g id="matplotlib.axis_5">
    <g id="xtick_13"/>
    <g id="xtick_14"/>
   </g>
   <g id="matplotlib.axis_6">
    <g id="ytick_9">
     <g id="line2d_22">
      <g>
       <use style="fill:#262626;stroke:#262626;" x="363.933571" xlink:href="#m434dc5465c" y="354.029888"/>
      </g>
     </g>
    </g>
    <g id="ytick_10">
     <g id="line2d_23">
      <g>
       <use style="fill:#262626;stroke:#262626;" x="363.933571" xlink:href="#m434dc5465c" y="295.83115"/>
      </g>
     </g>
    </g>
    <g id="ytick_11">
     <g id="line2d_24">
      <g>
       <use style="fill:#262626;stroke:#262626;" x="363.933571" xlink:href="#m434dc5465c" y="237.632412"/>
      </g>
     </g>
    </g>
    <g id="ytick_12">
     <g id="line2d_25">
      <g>
       <use style="fill:#262626;stroke:#262626;" x="363.933571" xlink:href="#m434dc5465c" y="179.433674"/>
      </g>
     </g>
    </g>
    <g id="ytick_13">
     <g id="line2d_26">
      <g>
       <use style="fill:#262626;stroke:#262626;" x="363.933571" xlink:href="#m434dc5465c" y="121.234936"/>
      </g>
     </g>
    </g>
   </g>
   <g id="patch_20">
    <path clip-path="url(#p944ee43002)" d="M 363.933571 331.750512 
L 364.961724 331.750512 
L 364.961724 314.142585 
L 363.933571 314.142585 
z
" style="fill:#471365;opacity:0.4;stroke:#ffffff;stroke-linejoin:miter;stroke-width:0.8;"/>
   </g>
   <g id="patch_21">
    <path clip-path="url(#p944ee43002)" d="M 363.933571 314.142585 
L 365.989876 314.142585 
L 365.989876 296.534658 
L 363.933571 296.534658 
z
" style="fill:#471365;opacity:0.4;stroke:#ffffff;stroke-linejoin:miter;stroke-width:0.8;"/>
   </g>
   <g id="patch_22">
    <path clip-path="url(#p944ee43002)" d="M 363.933571 296.534658 
L 371.130637 296.534658 
L 371.130637 278.926732 
L 363.933571 278.926732 
z
" style="fill:#471365;opacity:0.4;stroke:#ffffff;stroke-linejoin:miter;stroke-width:0.8;"/>
   </g>
   <g id="patch_23">
    <path clip-path="url(#p944ee43002)" d="M 363.933571 278.926732 
L 365.989876 278.926732 
L 365.989876 261.318805 
L 363.933571 261.318805 
z
" style="fill:#471365;opacity:0.4;stroke:#ffffff;stroke-linejoin:miter;stroke-width:0.8;"/>
   </g>
   <g id="patch_24">
    <path clip-path="url(#p944ee43002)" d="M 363.933571 261.318805 
L 365.989876 261.318805 
L 365.989876 243.710878 
L 363.933571 243.710878 
z
" style="fill:#471365;opacity:0.4;stroke:#ffffff;stroke-linejoin:miter;stroke-width:0.8;"/>
   </g>
   <g id="patch_25">
    <path clip-path="url(#p944ee43002)" d="M 363.933571 243.710878 
L 368.04618 243.710878 
L 368.04618 226.102951 
L 363.933571 226.102951 
z
" style="fill:#471365;opacity:0.4;stroke:#ffffff;stroke-linejoin:miter;stroke-width:0.8;"/>
   </g>
   <g id="patch_26">
    <path clip-path="url(#p944ee43002)" d="M 363.933571 226.102951 
L 383.468462 226.102951 
L 383.468462 208.495024 
L 363.933571 208.495024 
z
" style="fill:#471365;opacity:0.4;stroke:#ffffff;stroke-linejoin:miter;stroke-width:0.8;"/>
   </g>
   <g id="patch_27">
    <path clip-path="url(#p944ee43002)" d="M 363.933571 208.495024 
L 381.412158 208.495024 
L 381.412158 190.887097 
L 363.933571 190.887097 
z
" style="fill:#471365;opacity:0.4;stroke:#ffffff;stroke-linejoin:miter;stroke-width:0.8;"/>
   </g>
   <g id="patch_28">
    <path clip-path="url(#p944ee43002)" d="M 363.933571 190.887097 
L 387.581071 190.887097 
L 387.581071 173.27917 
L 363.933571 173.27917 
z
" style="fill:#471365;opacity:0.4;stroke:#ffffff;stroke-linejoin:miter;stroke-width:0.8;"/>
   </g>
   <g id="patch_29">
    <path clip-path="url(#p944ee43002)" d="M 363.933571 173.27917 
L 399.918897 173.27917 
L 399.918897 155.671243 
L 363.933571 155.671243 
z
" style="fill:#471365;opacity:0.4;stroke:#ffffff;stroke-linejoin:miter;stroke-width:0.8;"/>
   </g>
   <g id="patch_30">
    <path clip-path="url(#p944ee43002)" d="M 363.933571 155.671243 
L 414.313027 155.671243 
L 414.313027 138.063316 
L 363.933571 138.063316 
z
" style="fill:#471365;opacity:0.4;stroke:#ffffff;stroke-linejoin:miter;stroke-width:0.8;"/>
   </g>
   <g id="line2d_27">
    <path clip-path="url(#p944ee43002)" d="M 363.939124 376.202447 
L 363.943255 373.347992 
L 363.949849 370.493536 
L 363.959946 367.639081 
L 363.97477 364.784626 
L 363.995619 361.930171 
L 364.023692 359.075716 
L 364.059845 356.22126 
L 364.104345 353.366805 
L 364.156665 350.51235 
L 364.215434 347.657895 
L 364.278612 344.80344 
L 364.34394 341.948984 
L 364.409657 339.094529 
L 364.475369 336.240074 
L 364.542884 333.385619 
L 364.616789 330.531164 
L 364.704518 327.676708 
L 364.815763 324.822253 
L 364.961204 321.967798 
L 365.150679 319.113343 
L 365.391107 316.258888 
L 365.684548 313.404432 
L 366.026822 310.549977 
L 366.40702 307.695522 
L 366.808088 304.841067 
L 367.20843 301.986612 
L 367.584297 299.132156 
L 367.912567 296.277701 
L 368.173465 293.423246 
L 368.352824 290.568791 
L 368.443583 287.714336 
L 368.446387 284.85988 
L 368.369299 282.005425 
L 368.226736 279.15097 
L 368.037846 276.296515 
L 367.82457 273.44206 
L 367.609695 270.587604 
L 367.41514 267.733149 
L 367.260741 264.878694 
L 367.163646 262.024239 
L 367.138359 259.169783 
L 367.197269 256.315328 
L 367.35142 253.460873 
L 367.611162 250.606418 
L 367.986371 247.751963 
L 368.485999 244.897507 
L 369.116899 242.043052 
L 369.882068 239.188597 
L 370.778664 236.334142 
L 371.796256 233.479687 
L 372.915861 230.625231 
L 374.110191 227.770776 
L 375.345386 224.916321 
L 376.584183 222.061866 
L 377.790152 219.207411 
L 378.93236 216.352955 
L 379.989617 213.4985 
L 380.953494 210.644045 
L 381.829507 207.78959 
L 382.636181 204.935135 
L 383.402187 202.080679 
L 384.162065 199.226224 
L 384.951358 196.371769 
L 385.801964 193.517314 
L 386.738419 190.662859 
L 387.775485 187.808403 
L 388.917083 184.953948 
L 390.15623 182.099493 
L 391.475473 179.245038 
L 392.847221 176.390583 
L 394.233565 173.536127 
L 395.585535 170.681672 
L 396.842182 167.827217 
L 397.930363 164.972762 
L 398.766322 162.118307 
L 399.260088 159.263851 
L 399.323152 156.409396 
L 398.879037 153.554941 
L 397.875321 150.700486 
L 396.294856 147.846031 
L 394.163596 144.991575 
L 391.552811 142.13712 
L 388.574528 139.282665 
L 385.370483 136.42821 
L 382.09638 133.573755 
L 378.904306 130.719299 
L 375.926488 127.864844 
L 373.26316 125.010389 
L 370.976216 122.155934 
L 369.088982 119.301479 
L 367.59118 116.447023 
L 366.447301 113.592568 
L 365.606328 110.738113 
L 365.010946 107.883658 
L 364.604948 105.029203 
L 364.338233 102.174747 
L 364.169413 99.320292 
L 364.066445 96.465837 
L 364.005923 93.611382 
" style="fill:none;stroke:#471365;stroke-linecap:round;stroke-width:1.2;"/>
   </g>
   <g id="patch_31">
    <path d="M 363.933571 390.332 
L 363.933571 79.481829 
" style="fill:none;stroke:#262626;stroke-linecap:square;stroke-linejoin:miter;"/>
   </g>
  </g>
 </g>
 <defs>
  <clipPath id="p09b479850b">
   <rect height="310.850171" width="306.810886" x="46.543" y="79.481829"/>
  </clipPath>
  <clipPath id="pa925072d24">
   <rect height="53.594857" width="306.810886" x="46.543" y="15.168"/>
  </clipPath>
  <clipPath id="p944ee43002">
   <rect height="310.850171" width="52.898429" x="363.933571" y="79.481829"/>
  </clipPath>
 </defs>
</svg>
