<?xml version="1.0" encoding="utf-8" standalone="no"?>
<!DOCTYPE svg PUBLIC "-//W3C//DTD SVG 1.1//EN"
  "http://www.w3.org/Graphics/SVG/1.1/DTD/svg11.dtd">
<!-- Created with matplotlib (http://matplotlib.org/) -->
<svg height="432pt" version="1.1" viewBox="0 0 432 432" width="432pt" xmlns="http://www.w3.org/2000/svg" xmlns:xlink="http://www.w3.org/1999/xlink">
 <defs>
  <style type="text/css">
*{stroke-linecap:butt;stroke-linejoin:round;}
  </style>
 </defs>
 <g id="figure_1">
  <g id="patch_1">
   <path d="M 0 432 
L 432 432 
L 432 0 
L 0 0 
z
" style="fill:#ffffff;"/>
  </g>
  <g id="axes_1">
   <g id="patch_2">
    <path d="M 46.543 390.332 
L 353.353886 390.332 
L 353.353886 79.481829 
L 46.543 79.481829 
z
" style="fill:#ffffff;"/>
   </g>
   <g id="matplotlib.axis_1">
    <g id="xtick_1">
     <g id="line2d_1">
      <defs>
       <path d="M 0 0 
L 0 4.8 
" id="mf24cfee977" style="stroke:#262626;"/>
      </defs>
      <g>
       <use style="fill:#262626;stroke:#262626;" x="58.604952" xlink:href="#mf24cfee977" y="390.332"/>
      </g>
     </g>
     <g id="text_1">
      <!-- −2 -->
      <defs>
       <path d="M 10.59375 35.5 
L 73.1875 35.5 
L 73.1875 27.203125 
L 10.59375 27.203125 
z
" id="DejaVuSans-2212"/>
       <path d="M 19.1875 8.296875 
L 53.609375 8.296875 
L 53.609375 0 
L 7.328125 0 
L 7.328125 8.296875 
Q 12.9375 14.109375 22.625 23.890625 
Q 32.328125 33.6875 34.8125 36.53125 
Q 39.546875 41.84375 41.421875 45.53125 
Q 43.3125 49.21875 43.3125 52.78125 
Q 43.3125 58.59375 39.234375 62.25 
Q 35.15625 65.921875 28.609375 65.921875 
Q 23.96875 65.921875 18.8125 64.3125 
Q 13.671875 62.703125 7.8125 59.421875 
L 7.8125 69.390625 
Q 13.765625 71.78125 18.9375 73 
Q 24.125 74.21875 28.421875 74.21875 
Q 39.75 74.21875 46.484375 68.546875 
Q 53.21875 62.890625 53.21875 53.421875 
Q 53.21875 48.921875 51.53125 44.890625 
Q 49.859375 40.875 45.40625 35.40625 
Q 44.1875 33.984375 37.640625 27.21875 
Q 31.109375 20.453125 19.1875 8.296875 
z
" id="DejaVuSans-32"/>
      </defs>
      <g style="fill:#262626;" transform="translate(52.11839 405.318625)scale(0.088 -0.088)">
       <use xlink:href="#DejaVuSans-2212"/>
       <use x="83.789062" xlink:href="#DejaVuSans-32"/>
      </g>
     </g>
    </g>
    <g id="xtick_2">
     <g id="line2d_2">
      <g>
       <use style="fill:#262626;stroke:#262626;" x="100.401435" xlink:href="#mf24cfee977" y="390.332"/>
      </g>
     </g>
     <g id="text_2">
      <!-- 0 -->
      <defs>
       <path d="M 31.78125 66.40625 
Q 24.171875 66.40625 20.328125 58.90625 
Q 16.5 51.421875 16.5 36.375 
Q 16.5 21.390625 20.328125 13.890625 
Q 24.171875 6.390625 31.78125 6.390625 
Q 39.453125 6.390625 43.28125 13.890625 
Q 47.125 21.390625 47.125 36.375 
Q 47.125 51.421875 43.28125 58.90625 
Q 39.453125 66.40625 31.78125 66.40625 
z
M 31.78125 74.21875 
Q 44.046875 74.21875 50.515625 64.515625 
Q 56.984375 54.828125 56.984375 36.375 
Q 56.984375 17.96875 50.515625 8.265625 
Q 44.046875 -1.421875 31.78125 -1.421875 
Q 19.53125 -1.421875 13.0625 8.265625 
Q 6.59375 17.96875 6.59375 36.375 
Q 6.59375 54.828125 13.0625 64.515625 
Q 19.53125 74.21875 31.78125 74.21875 
z
" id="DejaVuSans-30"/>
      </defs>
      <g style="fill:#262626;" transform="translate(97.601935 405.318625)scale(0.088 -0.088)">
       <use xlink:href="#DejaVuSans-30"/>
      </g>
     </g>
    </g>
    <g id="xtick_3">
     <g id="line2d_3">
      <g>
       <use style="fill:#262626;stroke:#262626;" x="142.197918" xlink:href="#mf24cfee977" y="390.332"/>
      </g>
     </g>
     <g id="text_3">
      <!-- 2 -->
      <g style="fill:#262626;" transform="translate(139.398418 405.318625)scale(0.088 -0.088)">
       <use xlink:href="#DejaVuSans-32"/>
      </g>
     </g>
    </g>
    <g id="xtick_4">
     <g id="line2d_4">
      <g>
       <use style="fill:#262626;stroke:#262626;" x="183.994401" xlink:href="#mf24cfee977" y="390.332"/>
      </g>
     </g>
     <g id="text_4">
      <!-- 4 -->
      <defs>
       <path d="M 37.796875 64.3125 
L 12.890625 25.390625 
L 37.796875 25.390625 
z
M 35.203125 72.90625 
L 47.609375 72.90625 
L 47.609375 25.390625 
L 58.015625 25.390625 
L 58.015625 17.1875 
L 47.609375 17.1875 
L 47.609375 0 
L 37.796875 0 
L 37.796875 17.1875 
L 4.890625 17.1875 
L 4.890625 26.703125 
z
" id="DejaVuSans-34"/>
      </defs>
      <g style="fill:#262626;" transform="translate(181.194901 405.318625)scale(0.088 -0.088)">
       <use xlink:href="#DejaVuSans-34"/>
      </g>
     </g>
    </g>
    <g id="xtick_5">
     <g id="line2d_5">
      <g>
       <use style="fill:#262626;stroke:#262626;" x="225.790883" xlink:href="#mf24cfee977" y="390.332"/>
      </g>
     </g>
     <g id="text_5">
      <!-- 6 -->
      <defs>
       <path d="M 33.015625 40.375 
Q 26.375 40.375 22.484375 35.828125 
Q 18.609375 31.296875 18.609375 23.390625 
Q 18.609375 15.53125 22.484375 10.953125 
Q 26.375 6.390625 33.015625 6.390625 
Q 39.65625 6.390625 43.53125 10.953125 
Q 47.40625 15.53125 47.40625 23.390625 
Q 47.40625 31.296875 43.53125 35.828125 
Q 39.65625 40.375 33.015625 40.375 
z
M 52.59375 71.296875 
L 52.59375 62.3125 
Q 48.875 64.0625 45.09375 64.984375 
Q 41.3125 65.921875 37.59375 65.921875 
Q 27.828125 65.921875 22.671875 59.328125 
Q 17.53125 52.734375 16.796875 39.40625 
Q 19.671875 43.65625 24.015625 45.921875 
Q 28.375 48.1875 33.59375 48.1875 
Q 44.578125 48.1875 50.953125 41.515625 
Q 57.328125 34.859375 57.328125 23.390625 
Q 57.328125 12.15625 50.6875 5.359375 
Q 44.046875 -1.421875 33.015625 -1.421875 
Q 20.359375 -1.421875 13.671875 8.265625 
Q 6.984375 17.96875 6.984375 36.375 
Q 6.984375 53.65625 15.1875 63.9375 
Q 23.390625 74.21875 37.203125 74.21875 
Q 40.921875 74.21875 44.703125 73.484375 
Q 48.484375 72.75 52.59375 71.296875 
z
" id="DejaVuSans-36"/>
      </defs>
      <g style="fill:#262626;" transform="translate(222.991383 405.318625)scale(0.088 -0.088)">
       <use xlink:href="#DejaVuSans-36"/>
      </g>
     </g>
    </g>
    <g id="xtick_6">
     <g id="line2d_6">
      <g>
       <use style="fill:#262626;stroke:#262626;" x="267.587366" xlink:href="#mf24cfee977" y="390.332"/>
      </g>
     </g>
     <g id="text_6">
      <!-- 8 -->
      <defs>
       <path d="M 31.78125 34.625 
Q 24.75 34.625 20.71875 30.859375 
Q 16.703125 27.09375 16.703125 20.515625 
Q 16.703125 13.921875 20.71875 10.15625 
Q 24.75 6.390625 31.78125 6.390625 
Q 38.8125 6.390625 42.859375 10.171875 
Q 46.921875 13.96875 46.921875 20.515625 
Q 46.921875 27.09375 42.890625 30.859375 
Q 38.875 34.625 31.78125 34.625 
z
M 21.921875 38.8125 
Q 15.578125 40.375 12.03125 44.71875 
Q 8.5 49.078125 8.5 55.328125 
Q 8.5 64.0625 14.71875 69.140625 
Q 20.953125 74.21875 31.78125 74.21875 
Q 42.671875 74.21875 48.875 69.140625 
Q 55.078125 64.0625 55.078125 55.328125 
Q 55.078125 49.078125 51.53125 44.71875 
Q 48 40.375 41.703125 38.8125 
Q 48.828125 37.15625 52.796875 32.3125 
Q 56.78125 27.484375 56.78125 20.515625 
Q 56.78125 9.90625 50.3125 4.234375 
Q 43.84375 -1.421875 31.78125 -1.421875 
Q 19.734375 -1.421875 13.25 4.234375 
Q 6.78125 9.90625 6.78125 20.515625 
Q 6.78125 27.484375 10.78125 32.3125 
Q 14.796875 37.15625 21.921875 38.8125 
z
M 18.3125 54.390625 
Q 18.3125 48.734375 21.84375 45.5625 
Q 25.390625 42.390625 31.78125 42.390625 
Q 38.140625 42.390625 41.71875 45.5625 
Q 45.3125 48.734375 45.3125 54.390625 
Q 45.3125 60.0625 41.71875 63.234375 
Q 38.140625 66.40625 31.78125 66.40625 
Q 25.390625 66.40625 21.84375 63.234375 
Q 18.3125 60.0625 18.3125 54.390625 
z
" id="DejaVuSans-38"/>
      </defs>
      <g style="fill:#262626;" transform="translate(264.787866 405.318625)scale(0.088 -0.088)">
       <use xlink:href="#DejaVuSans-38"/>
      </g>
     </g>
    </g>
    <g id="xtick_7">
     <g id="line2d_7">
      <g>
       <use style="fill:#262626;stroke:#262626;" x="309.383849" xlink:href="#mf24cfee977" y="390.332"/>
      </g>
     </g>
     <g id="text_7">
      <!-- 10 -->
      <defs>
       <path d="M 12.40625 8.296875 
L 28.515625 8.296875 
L 28.515625 63.921875 
L 10.984375 60.40625 
L 10.984375 69.390625 
L 28.421875 72.90625 
L 38.28125 72.90625 
L 38.28125 8.296875 
L 54.390625 8.296875 
L 54.390625 0 
L 12.40625 0 
z
" id="DejaVuSans-31"/>
      </defs>
      <g style="fill:#262626;" transform="translate(303.784849 405.318625)scale(0.088 -0.088)">
       <use xlink:href="#DejaVuSans-31"/>
       <use x="63.623047" xlink:href="#DejaVuSans-30"/>
      </g>
     </g>
    </g>
    <g id="xtick_8">
     <g id="line2d_8">
      <g>
       <use style="fill:#262626;stroke:#262626;" x="351.180331" xlink:href="#mf24cfee977" y="390.332"/>
      </g>
     </g>
     <g id="text_8">
      <!-- 12 -->
      <g style="fill:#262626;" transform="translate(345.581331 405.318625)scale(0.088 -0.088)">
       <use xlink:href="#DejaVuSans-31"/>
       <use x="63.623047" xlink:href="#DejaVuSans-32"/>
      </g>
     </g>
    </g>
    <g id="text_9">
     <!-- g(k-1) -->
     <defs>
      <path d="M 45.40625 27.984375 
Q 45.40625 37.75 41.375 43.109375 
Q 37.359375 48.484375 30.078125 48.484375 
Q 22.859375 48.484375 18.828125 43.109375 
Q 14.796875 37.75 14.796875 27.984375 
Q 14.796875 18.265625 18.828125 12.890625 
Q 22.859375 7.515625 30.078125 7.515625 
Q 37.359375 7.515625 41.375 12.890625 
Q 45.40625 18.265625 45.40625 27.984375 
z
M 54.390625 6.78125 
Q 54.390625 -7.171875 48.1875 -13.984375 
Q 42 -20.796875 29.203125 -20.796875 
Q 24.46875 -20.796875 20.265625 -20.09375 
Q 16.0625 -19.390625 12.109375 -17.921875 
L 12.109375 -9.1875 
Q 16.0625 -11.328125 19.921875 -12.34375 
Q 23.78125 -13.375 27.78125 -13.375 
Q 36.625 -13.375 41.015625 -8.765625 
Q 45.40625 -4.15625 45.40625 5.171875 
L 45.40625 9.625 
Q 42.625 4.78125 38.28125 2.390625 
Q 33.9375 0 27.875 0 
Q 17.828125 0 11.671875 7.65625 
Q 5.515625 15.328125 5.515625 27.984375 
Q 5.515625 40.671875 11.671875 48.328125 
Q 17.828125 56 27.875 56 
Q 33.9375 56 38.28125 53.609375 
Q 42.625 51.21875 45.40625 46.390625 
L 45.40625 54.6875 
L 54.390625 54.6875 
z
" id="DejaVuSans-67"/>
      <path d="M 31 75.875 
Q 24.46875 64.65625 21.28125 53.65625 
Q 18.109375 42.671875 18.109375 31.390625 
Q 18.109375 20.125 21.3125 9.0625 
Q 24.515625 -2 31 -13.1875 
L 23.1875 -13.1875 
Q 15.875 -1.703125 12.234375 9.375 
Q 8.59375 20.453125 8.59375 31.390625 
Q 8.59375 42.28125 12.203125 53.3125 
Q 15.828125 64.359375 23.1875 75.875 
z
" id="DejaVuSans-28"/>
      <path d="M 9.078125 75.984375 
L 18.109375 75.984375 
L 18.109375 31.109375 
L 44.921875 54.6875 
L 56.390625 54.6875 
L 27.390625 29.109375 
L 57.625 0 
L 45.90625 0 
L 18.109375 26.703125 
L 18.109375 0 
L 9.078125 0 
z
" id="DejaVuSans-6b"/>
      <path d="M 4.890625 31.390625 
L 31.203125 31.390625 
L 31.203125 23.390625 
L 4.890625 23.390625 
z
" id="DejaVuSans-2d"/>
      <path d="M 8.015625 75.875 
L 15.828125 75.875 
Q 23.140625 64.359375 26.78125 53.3125 
Q 30.421875 42.28125 30.421875 31.390625 
Q 30.421875 20.453125 26.78125 9.375 
Q 23.140625 -1.703125 15.828125 -13.1875 
L 8.015625 -13.1875 
Q 14.5 -2 17.703125 9.0625 
Q 20.90625 20.125 20.90625 31.390625 
Q 20.90625 42.671875 17.703125 53.65625 
Q 14.5 64.65625 8.015625 75.875 
z
" id="DejaVuSans-29"/>
     </defs>
     <g style="fill:#262626;" transform="translate(185.590443 418.44325)scale(0.096 -0.096)">
      <use xlink:href="#DejaVuSans-67"/>
      <use x="63.476562" xlink:href="#DejaVuSans-28"/>
      <use x="102.490234" xlink:href="#DejaVuSans-6b"/>
      <use x="160.400391" xlink:href="#DejaVuSans-2d"/>
      <use x="196.484375" xlink:href="#DejaVuSans-31"/>
      <use x="260.107422" xlink:href="#DejaVuSans-29"/>
     </g>
    </g>
   </g>
   <g id="matplotlib.axis_2">
    <g id="ytick_1">
     <g id="line2d_9">
      <defs>
       <path d="M 0 0 
L -4.8 0 
" id="me73536c1c2" style="stroke:#262626;"/>
      </defs>
      <g>
       <use style="fill:#262626;stroke:#262626;" x="46.543" xlink:href="#me73536c1c2" y="359.642851"/>
      </g>
     </g>
     <g id="text_10">
      <!-- 8.0 -->
      <defs>
       <path d="M 10.6875 12.40625 
L 21 12.40625 
L 21 0 
L 10.6875 0 
z
" id="DejaVuSans-2e"/>
      </defs>
      <g style="fill:#262626;" transform="translate(24.24825 362.986163)scale(0.088 -0.088)">
       <use xlink:href="#DejaVuSans-38"/>
       <use x="63.623047" xlink:href="#DejaVuSans-2e"/>
       <use x="95.410156" xlink:href="#DejaVuSans-30"/>
      </g>
     </g>
    </g>
    <g id="ytick_2">
     <g id="line2d_10">
      <g>
       <use style="fill:#262626;stroke:#262626;" x="46.543" xlink:href="#me73536c1c2" y="319.26494"/>
      </g>
     </g>
     <g id="text_11">
      <!-- 8.5 -->
      <defs>
       <path d="M 10.796875 72.90625 
L 49.515625 72.90625 
L 49.515625 64.59375 
L 19.828125 64.59375 
L 19.828125 46.734375 
Q 21.96875 47.46875 24.109375 47.828125 
Q 26.265625 48.1875 28.421875 48.1875 
Q 40.625 48.1875 47.75 41.5 
Q 54.890625 34.8125 54.890625 23.390625 
Q 54.890625 11.625 47.5625 5.09375 
Q 40.234375 -1.421875 26.90625 -1.421875 
Q 22.3125 -1.421875 17.546875 -0.640625 
Q 12.796875 0.140625 7.71875 1.703125 
L 7.71875 11.625 
Q 12.109375 9.234375 16.796875 8.0625 
Q 21.484375 6.890625 26.703125 6.890625 
Q 35.15625 6.890625 40.078125 11.328125 
Q 45.015625 15.765625 45.015625 23.390625 
Q 45.015625 31 40.078125 35.4375 
Q 35.15625 39.890625 26.703125 39.890625 
Q 22.75 39.890625 18.8125 39.015625 
Q 14.890625 38.140625 10.796875 36.28125 
z
" id="DejaVuSans-35"/>
      </defs>
      <g style="fill:#262626;" transform="translate(24.24825 322.608252)scale(0.088 -0.088)">
       <use xlink:href="#DejaVuSans-38"/>
       <use x="63.623047" xlink:href="#DejaVuSans-2e"/>
       <use x="95.410156" xlink:href="#DejaVuSans-35"/>
      </g>
     </g>
    </g>
    <g id="ytick_3">
     <g id="line2d_11">
      <g>
       <use style="fill:#262626;stroke:#262626;" x="46.543" xlink:href="#me73536c1c2" y="278.887028"/>
      </g>
     </g>
     <g id="text_12">
      <!-- 9.0 -->
      <defs>
       <path d="M 10.984375 1.515625 
L 10.984375 10.5 
Q 14.703125 8.734375 18.5 7.8125 
Q 22.3125 6.890625 25.984375 6.890625 
Q 35.75 6.890625 40.890625 13.453125 
Q 46.046875 20.015625 46.78125 33.40625 
Q 43.953125 29.203125 39.59375 26.953125 
Q 35.25 24.703125 29.984375 24.703125 
Q 19.046875 24.703125 12.671875 31.3125 
Q 6.296875 37.9375 6.296875 49.421875 
Q 6.296875 60.640625 12.9375 67.421875 
Q 19.578125 74.21875 30.609375 74.21875 
Q 43.265625 74.21875 49.921875 64.515625 
Q 56.59375 54.828125 56.59375 36.375 
Q 56.59375 19.140625 48.40625 8.859375 
Q 40.234375 -1.421875 26.421875 -1.421875 
Q 22.703125 -1.421875 18.890625 -0.6875 
Q 15.09375 0.046875 10.984375 1.515625 
z
M 30.609375 32.421875 
Q 37.25 32.421875 41.125 36.953125 
Q 45.015625 41.5 45.015625 49.421875 
Q 45.015625 57.28125 41.125 61.84375 
Q 37.25 66.40625 30.609375 66.40625 
Q 23.96875 66.40625 20.09375 61.84375 
Q 16.21875 57.28125 16.21875 49.421875 
Q 16.21875 41.5 20.09375 36.953125 
Q 23.96875 32.421875 30.609375 32.421875 
z
" id="DejaVuSans-39"/>
      </defs>
      <g style="fill:#262626;" transform="translate(24.24825 282.230341)scale(0.088 -0.088)">
       <use xlink:href="#DejaVuSans-39"/>
       <use x="63.623047" xlink:href="#DejaVuSans-2e"/>
       <use x="95.410156" xlink:href="#DejaVuSans-30"/>
      </g>
     </g>
    </g>
    <g id="ytick_4">
     <g id="line2d_12">
      <g>
       <use style="fill:#262626;stroke:#262626;" x="46.543" xlink:href="#me73536c1c2" y="238.509117"/>
      </g>
     </g>
     <g id="text_13">
      <!-- 9.5 -->
      <g style="fill:#262626;" transform="translate(24.24825 241.852429)scale(0.088 -0.088)">
       <use xlink:href="#DejaVuSans-39"/>
       <use x="63.623047" xlink:href="#DejaVuSans-2e"/>
       <use x="95.410156" xlink:href="#DejaVuSans-35"/>
      </g>
     </g>
    </g>
    <g id="ytick_5">
     <g id="line2d_13">
      <g>
       <use style="fill:#262626;stroke:#262626;" x="46.543" xlink:href="#me73536c1c2" y="198.131206"/>
      </g>
     </g>
     <g id="text_14">
      <!-- 10.0 -->
      <g style="fill:#262626;" transform="translate(18.64925 201.474518)scale(0.088 -0.088)">
       <use xlink:href="#DejaVuSans-31"/>
       <use x="63.623047" xlink:href="#DejaVuSans-30"/>
       <use x="127.246094" xlink:href="#DejaVuSans-2e"/>
       <use x="159.033203" xlink:href="#DejaVuSans-30"/>
      </g>
     </g>
    </g>
    <g id="ytick_6">
     <g id="line2d_14">
      <g>
       <use style="fill:#262626;stroke:#262626;" x="46.543" xlink:href="#me73536c1c2" y="157.753294"/>
      </g>
     </g>
     <g id="text_15">
      <!-- 10.5 -->
      <g style="fill:#262626;" transform="translate(18.64925 161.096607)scale(0.088 -0.088)">
       <use xlink:href="#DejaVuSans-31"/>
       <use x="63.623047" xlink:href="#DejaVuSans-30"/>
       <use x="127.246094" xlink:href="#DejaVuSans-2e"/>
       <use x="159.033203" xlink:href="#DejaVuSans-35"/>
      </g>
     </g>
    </g>
    <g id="ytick_7">
     <g id="line2d_15">
      <g>
       <use style="fill:#262626;stroke:#262626;" x="46.543" xlink:href="#me73536c1c2" y="117.375383"/>
      </g>
     </g>
     <g id="text_16">
      <!-- 11.0 -->
      <g style="fill:#262626;" transform="translate(18.64925 120.718695)scale(0.088 -0.088)">
       <use xlink:href="#DejaVuSans-31"/>
       <use x="63.623047" xlink:href="#DejaVuSans-31"/>
       <use x="127.246094" xlink:href="#DejaVuSans-2e"/>
       <use x="159.033203" xlink:href="#DejaVuSans-30"/>
      </g>
     </g>
    </g>
    <g id="text_17">
     <!-- log(n) -->
     <defs>
      <path d="M 9.421875 75.984375 
L 18.40625 75.984375 
L 18.40625 0 
L 9.421875 0 
z
" id="DejaVuSans-6c"/>
      <path d="M 30.609375 48.390625 
Q 23.390625 48.390625 19.1875 42.75 
Q 14.984375 37.109375 14.984375 27.296875 
Q 14.984375 17.484375 19.15625 11.84375 
Q 23.34375 6.203125 30.609375 6.203125 
Q 37.796875 6.203125 41.984375 11.859375 
Q 46.1875 17.53125 46.1875 27.296875 
Q 46.1875 37.015625 41.984375 42.703125 
Q 37.796875 48.390625 30.609375 48.390625 
z
M 30.609375 56 
Q 42.328125 56 49.015625 48.375 
Q 55.71875 40.765625 55.71875 27.296875 
Q 55.71875 13.875 49.015625 6.21875 
Q 42.328125 -1.421875 30.609375 -1.421875 
Q 18.84375 -1.421875 12.171875 6.21875 
Q 5.515625 13.875 5.515625 27.296875 
Q 5.515625 40.765625 12.171875 48.375 
Q 18.84375 56 30.609375 56 
z
" id="DejaVuSans-6f"/>
      <path d="M 54.890625 33.015625 
L 54.890625 0 
L 45.90625 0 
L 45.90625 32.71875 
Q 45.90625 40.484375 42.875 44.328125 
Q 39.84375 48.1875 33.796875 48.1875 
Q 26.515625 48.1875 22.3125 43.546875 
Q 18.109375 38.921875 18.109375 30.90625 
L 18.109375 0 
L 9.078125 0 
L 9.078125 54.6875 
L 18.109375 54.6875 
L 18.109375 46.1875 
Q 21.34375 51.125 25.703125 53.5625 
Q 30.078125 56 35.796875 56 
Q 45.21875 56 50.046875 50.171875 
Q 54.890625 44.34375 54.890625 33.015625 
z
" id="DejaVuSans-6e"/>
     </defs>
     <g style="fill:#262626;" transform="translate(12.65275 249.012164)rotate(-90)scale(0.096 -0.096)">
      <use xlink:href="#DejaVuSans-6c"/>
      <use x="27.783203" xlink:href="#DejaVuSans-6f"/>
      <use x="88.964844" xlink:href="#DejaVuSans-67"/>
      <use x="152.441406" xlink:href="#DejaVuSans-28"/>
      <use x="191.455078" xlink:href="#DejaVuSans-6e"/>
      <use x="254.833984" xlink:href="#DejaVuSans-29"/>
     </g>
    </g>
   </g>
   <g id="PathCollection_1">
    <defs>
     <path d="M 0 2.4 
C 0.636487 2.4 1.246992 2.147121 1.697056 1.697056 
C 2.147121 1.246992 2.4 0.636487 2.4 0 
C 2.4 -0.636487 2.147121 -1.246992 1.697056 -1.697056 
C 1.246992 -2.147121 0.636487 -2.4 0 -2.4 
C -0.636487 -2.4 -1.246992 -2.147121 -1.697056 -1.697056 
C -2.147121 -1.246992 -2.4 -0.636487 -2.4 0 
C -2.4 0.636487 -2.147121 1.246992 -1.697056 1.697056 
C -1.246992 2.147121 -0.636487 2.4 0 2.4 
z
" id="m05b6dc5fbb" style="stroke:#471365;stroke-opacity:0.8;"/>
    </defs>
    <g clip-path="url(#p640dbcecea)">
     <use style="fill:#471365;fill-opacity:0.8;stroke:#471365;stroke-opacity:0.8;" x="249.499887" xlink:href="#m05b6dc5fbb" y="139.816396"/>
     <use style="fill:#471365;fill-opacity:0.8;stroke:#471365;stroke-opacity:0.8;" x="172.453669" xlink:href="#m05b6dc5fbb" y="198.225385"/>
     <use style="fill:#471365;fill-opacity:0.8;stroke:#471365;stroke-opacity:0.8;" x="242.089134" xlink:href="#m05b6dc5fbb" y="287.492816"/>
     <use style="fill:#471365;fill-opacity:0.8;stroke:#471365;stroke-opacity:0.8;" x="241.859181" xlink:href="#m05b6dc5fbb" y="168.857762"/>
     <use style="fill:#471365;fill-opacity:0.8;stroke:#471365;stroke-opacity:0.8;" x="208.8239" xlink:href="#m05b6dc5fbb" y="156.015016"/>
     <use style="fill:#471365;fill-opacity:0.8;stroke:#471365;stroke-opacity:0.8;" x="187.70369" xlink:href="#m05b6dc5fbb" y="133.142001"/>
     <use style="fill:#471365;fill-opacity:0.8;stroke:#471365;stroke-opacity:0.8;" x="115.076314" xlink:href="#m05b6dc5fbb" y="175.843374"/>
     <use style="fill:#471365;fill-opacity:0.8;stroke:#471365;stroke-opacity:0.8;" x="139.404245" xlink:href="#m05b6dc5fbb" y="157.238816"/>
     <use style="fill:#471365;fill-opacity:0.8;stroke:#471365;stroke-opacity:0.8;" x="197.986885" xlink:href="#m05b6dc5fbb" y="143.644608"/>
     <use style="fill:#471365;fill-opacity:0.8;stroke:#471365;stroke-opacity:0.8;" x="220.486627" xlink:href="#m05b6dc5fbb" y="150.445709"/>
     <use style="fill:#471365;fill-opacity:0.8;stroke:#471365;stroke-opacity:0.8;" x="152.08454" xlink:href="#m05b6dc5fbb" y="139.847983"/>
     <use style="fill:#471365;fill-opacity:0.8;stroke:#471365;stroke-opacity:0.8;" x="267.395682" xlink:href="#m05b6dc5fbb" y="162.885719"/>
     <use style="fill:#471365;fill-opacity:0.8;stroke:#471365;stroke-opacity:0.8;" x="159.885488" xlink:href="#m05b6dc5fbb" y="158.667009"/>
     <use style="fill:#471365;fill-opacity:0.8;stroke:#471365;stroke-opacity:0.8;" x="130.01463" xlink:href="#m05b6dc5fbb" y="131.649543"/>
     <use style="fill:#471365;fill-opacity:0.8;stroke:#471365;stroke-opacity:0.8;" x="175.187741" xlink:href="#m05b6dc5fbb" y="154.267398"/>
     <use style="fill:#471365;fill-opacity:0.8;stroke:#471365;stroke-opacity:0.8;" x="238.022251" xlink:href="#m05b6dc5fbb" y="140.597335"/>
     <use style="fill:#471365;fill-opacity:0.8;stroke:#471365;stroke-opacity:0.8;" x="128.895353" xlink:href="#m05b6dc5fbb" y="155.883268"/>
     <use style="fill:#471365;fill-opacity:0.8;stroke:#471365;stroke-opacity:0.8;" x="149.835168" xlink:href="#m05b6dc5fbb" y="183.086509"/>
     <use style="fill:#471365;fill-opacity:0.8;stroke:#471365;stroke-opacity:0.8;" x="172.850065" xlink:href="#m05b6dc5fbb" y="261.135437"/>
     <use style="fill:#471365;fill-opacity:0.8;stroke:#471365;stroke-opacity:0.8;" x="148.043221" xlink:href="#m05b6dc5fbb" y="133.916101"/>
     <use style="fill:#471365;fill-opacity:0.8;stroke:#471365;stroke-opacity:0.8;" x="269.494148" xlink:href="#m05b6dc5fbb" y="166.707906"/>
     <use style="fill:#471365;fill-opacity:0.8;stroke:#471365;stroke-opacity:0.8;" x="120.3563" xlink:href="#m05b6dc5fbb" y="131.631372"/>
     <use style="fill:#471365;fill-opacity:0.8;stroke:#471365;stroke-opacity:0.8;" x="177.237085" xlink:href="#m05b6dc5fbb" y="155.490972"/>
     <use style="fill:#471365;fill-opacity:0.8;stroke:#471365;stroke-opacity:0.8;" x="132.787291" xlink:href="#m05b6dc5fbb" y="221.929702"/>
     <use style="fill:#471365;fill-opacity:0.8;stroke:#471365;stroke-opacity:0.8;" x="130.47722" xlink:href="#m05b6dc5fbb" y="132.003955"/>
     <use style="fill:#471365;fill-opacity:0.8;stroke:#471365;stroke-opacity:0.8;" x="210.385521" xlink:href="#m05b6dc5fbb" y="238.802701"/>
     <use style="fill:#471365;fill-opacity:0.8;stroke:#471365;stroke-opacity:0.8;" x="121.10875" xlink:href="#m05b6dc5fbb" y="137.459391"/>
     <use style="fill:#471365;fill-opacity:0.8;stroke:#471365;stroke-opacity:0.8;" x="183.132697" xlink:href="#m05b6dc5fbb" y="138.54625"/>
     <use style="fill:#471365;fill-opacity:0.8;stroke:#471365;stroke-opacity:0.8;" x="121.729912" xlink:href="#m05b6dc5fbb" y="135.391773"/>
     <use style="fill:#471365;fill-opacity:0.8;stroke:#471365;stroke-opacity:0.8;" x="126.074444" xlink:href="#m05b6dc5fbb" y="138.149481"/>
     <use style="fill:#471365;fill-opacity:0.8;stroke:#471365;stroke-opacity:0.8;" x="138.606138" xlink:href="#m05b6dc5fbb" y="131.285006"/>
     <use style="fill:#471365;fill-opacity:0.8;stroke:#471365;stroke-opacity:0.8;" x="145.123081" xlink:href="#m05b6dc5fbb" y="182.450844"/>
     <use style="fill:#471365;fill-opacity:0.8;stroke:#471365;stroke-opacity:0.8;" x="128.039683" xlink:href="#m05b6dc5fbb" y="129.886425"/>
     <use style="fill:#471365;fill-opacity:0.8;stroke:#471365;stroke-opacity:0.8;" x="123.364027" xlink:href="#m05b6dc5fbb" y="160.672802"/>
     <use style="fill:#471365;fill-opacity:0.8;stroke:#471365;stroke-opacity:0.8;" x="137.330812" xlink:href="#m05b6dc5fbb" y="178.891638"/>
     <use style="fill:#471365;fill-opacity:0.8;stroke:#471365;stroke-opacity:0.8;" x="202.514037" xlink:href="#m05b6dc5fbb" y="143.502221"/>
     <use style="fill:#471365;fill-opacity:0.8;stroke:#471365;stroke-opacity:0.8;" x="117.611921" xlink:href="#m05b6dc5fbb" y="149.88643"/>
     <use style="fill:#471365;fill-opacity:0.8;stroke:#471365;stroke-opacity:0.8;" x="129.289485" xlink:href="#m05b6dc5fbb" y="166.116099"/>
     <use style="fill:#471365;fill-opacity:0.8;stroke:#471365;stroke-opacity:0.8;" x="127.838757" xlink:href="#m05b6dc5fbb" y="137.655517"/>
     <use style="fill:#471365;fill-opacity:0.8;stroke:#471365;stroke-opacity:0.8;" x="188.188454" xlink:href="#m05b6dc5fbb" y="140.526764"/>
     <use style="fill:#471365;fill-opacity:0.8;stroke:#471365;stroke-opacity:0.8;" x="287.596359" xlink:href="#m05b6dc5fbb" y="133.539433"/>
     <use style="fill:#471365;fill-opacity:0.8;stroke:#471365;stroke-opacity:0.8;" x="148.325927" xlink:href="#m05b6dc5fbb" y="143.744191"/>
     <use style="fill:#471365;fill-opacity:0.8;stroke:#471365;stroke-opacity:0.8;" x="196.076067" xlink:href="#m05b6dc5fbb" y="164.087588"/>
     <use style="fill:#471365;fill-opacity:0.8;stroke:#471365;stroke-opacity:0.8;" x="137.642898" xlink:href="#m05b6dc5fbb" y="153.940506"/>
     <use style="fill:#471365;fill-opacity:0.8;stroke:#471365;stroke-opacity:0.8;" x="140.925662" xlink:href="#m05b6dc5fbb" y="214.662149"/>
     <use style="fill:#471365;fill-opacity:0.8;stroke:#471365;stroke-opacity:0.8;" x="125.329084" xlink:href="#m05b6dc5fbb" y="190.433579"/>
     <use style="fill:#471365;fill-opacity:0.8;stroke:#471365;stroke-opacity:0.8;" x="158.081611" xlink:href="#m05b6dc5fbb" y="183.01558"/>
     <use style="fill:#471365;fill-opacity:0.8;stroke:#471365;stroke-opacity:0.8;" x="231.127682" xlink:href="#m05b6dc5fbb" y="140.79253"/>
     <use style="fill:#471365;fill-opacity:0.8;stroke:#471365;stroke-opacity:0.8;" x="116.927834" xlink:href="#m05b6dc5fbb" y="169.331959"/>
     <use style="fill:#471365;fill-opacity:0.8;stroke:#471365;stroke-opacity:0.8;" x="118.191956" xlink:href="#m05b6dc5fbb" y="154.490862"/>
     <use style="fill:#471365;fill-opacity:0.8;stroke:#471365;stroke-opacity:0.8;" x="133.848613" xlink:href="#m05b6dc5fbb" y="188.226343"/>
     <use style="fill:#471365;fill-opacity:0.8;stroke:#471365;stroke-opacity:0.8;" x="212.600703" xlink:href="#m05b6dc5fbb" y="136.182966"/>
     <use style="fill:#471365;fill-opacity:0.8;stroke:#471365;stroke-opacity:0.8;" x="133.969595" xlink:href="#m05b6dc5fbb" y="138.905098"/>
     <use style="fill:#471365;fill-opacity:0.8;stroke:#471365;stroke-opacity:0.8;" x="135.825432" xlink:href="#m05b6dc5fbb" y="134.56392"/>
     <use style="fill:#471365;fill-opacity:0.8;stroke:#471365;stroke-opacity:0.8;" x="134.640669" xlink:href="#m05b6dc5fbb" y="128.960163"/>
     <use style="fill:#471365;fill-opacity:0.8;stroke:#471365;stroke-opacity:0.8;" x="167.708747" xlink:href="#m05b6dc5fbb" y="178.880765"/>
     <use style="fill:#471365;fill-opacity:0.8;stroke:#471365;stroke-opacity:0.8;" x="161.43747" xlink:href="#m05b6dc5fbb" y="137.986661"/>
     <use style="fill:#471365;fill-opacity:0.8;stroke:#471365;stroke-opacity:0.8;" x="181.605981" xlink:href="#m05b6dc5fbb" y="142.716107"/>
     <use style="fill:#471365;fill-opacity:0.8;stroke:#471365;stroke-opacity:0.8;" x="136.12523" xlink:href="#m05b6dc5fbb" y="153.688368"/>
     <use style="fill:#471365;fill-opacity:0.8;stroke:#471365;stroke-opacity:0.8;" x="139.908275" xlink:href="#m05b6dc5fbb" y="235.880871"/>
     <use style="fill:#471365;fill-opacity:0.8;stroke:#471365;stroke-opacity:0.8;" x="132.844216" xlink:href="#m05b6dc5fbb" y="190.60581"/>
     <use style="fill:#471365;fill-opacity:0.8;stroke:#471365;stroke-opacity:0.8;" x="127.711182" xlink:href="#m05b6dc5fbb" y="262.096368"/>
     <use style="fill:#471365;fill-opacity:0.8;stroke:#471365;stroke-opacity:0.8;" x="174.836704" xlink:href="#m05b6dc5fbb" y="203.554227"/>
     <use style="fill:#471365;fill-opacity:0.8;stroke:#471365;stroke-opacity:0.8;" x="153.236376" xlink:href="#m05b6dc5fbb" y="161.234299"/>
     <use style="fill:#471365;fill-opacity:0.8;stroke:#471365;stroke-opacity:0.8;" x="139.419444" xlink:href="#m05b6dc5fbb" y="150.096785"/>
     <use style="fill:#471365;fill-opacity:0.8;stroke:#471365;stroke-opacity:0.8;" x="155.374614" xlink:href="#m05b6dc5fbb" y="190.216764"/>
     <use style="fill:#471365;fill-opacity:0.8;stroke:#471365;stroke-opacity:0.8;" x="126.245016" xlink:href="#m05b6dc5fbb" y="147.901289"/>
     <use style="fill:#471365;fill-opacity:0.8;stroke:#471365;stroke-opacity:0.8;" x="177.58619" xlink:href="#m05b6dc5fbb" y="195.704964"/>
     <use style="fill:#471365;fill-opacity:0.8;stroke:#471365;stroke-opacity:0.8;" x="155.542965" xlink:href="#m05b6dc5fbb" y="129.188005"/>
     <use style="fill:#471365;fill-opacity:0.8;stroke:#471365;stroke-opacity:0.8;" x="139.623125" xlink:href="#m05b6dc5fbb" y="178.062899"/>
     <use style="fill:#471365;fill-opacity:0.8;stroke:#471365;stroke-opacity:0.8;" x="124.058621" xlink:href="#m05b6dc5fbb" y="188.428102"/>
     <use style="fill:#471365;fill-opacity:0.8;stroke:#471365;stroke-opacity:0.8;" x="132.352054" xlink:href="#m05b6dc5fbb" y="141.469535"/>
     <use style="fill:#471365;fill-opacity:0.8;stroke:#471365;stroke-opacity:0.8;" x="197.678861" xlink:href="#m05b6dc5fbb" y="131.582185"/>
     <use style="fill:#471365;fill-opacity:0.8;stroke:#471365;stroke-opacity:0.8;" x="168.925653" xlink:href="#m05b6dc5fbb" y="159.048031"/>
     <use style="fill:#471365;fill-opacity:0.8;stroke:#471365;stroke-opacity:0.8;" x="173.475616" xlink:href="#m05b6dc5fbb" y="145.654672"/>
     <use style="fill:#471365;fill-opacity:0.8;stroke:#471365;stroke-opacity:0.8;" x="192.188198" xlink:href="#m05b6dc5fbb" y="139.909867"/>
     <use style="fill:#471365;fill-opacity:0.8;stroke:#471365;stroke-opacity:0.8;" x="158.591751" xlink:href="#m05b6dc5fbb" y="134.781816"/>
     <use style="fill:#471365;fill-opacity:0.8;stroke:#471365;stroke-opacity:0.8;" x="147.389336" xlink:href="#m05b6dc5fbb" y="129.093809"/>
     <use style="fill:#471365;fill-opacity:0.8;stroke:#471365;stroke-opacity:0.8;" x="112.300527" xlink:href="#m05b6dc5fbb" y="157.467047"/>
     <use style="fill:#471365;fill-opacity:0.8;stroke:#471365;stroke-opacity:0.8;" x="234.939302" xlink:href="#m05b6dc5fbb" y="131.755237"/>
     <use style="fill:#471365;fill-opacity:0.8;stroke:#471365;stroke-opacity:0.8;" x="158.776947" xlink:href="#m05b6dc5fbb" y="139.004185"/>
     <use style="fill:#471365;fill-opacity:0.8;stroke:#471365;stroke-opacity:0.8;" x="146.378592" xlink:href="#m05b6dc5fbb" y="169.288766"/>
     <use style="fill:#471365;fill-opacity:0.8;stroke:#471365;stroke-opacity:0.8;" x="148.229972" xlink:href="#m05b6dc5fbb" y="161.820215"/>
     <use style="fill:#471365;fill-opacity:0.8;stroke:#471365;stroke-opacity:0.8;" x="248.577739" xlink:href="#m05b6dc5fbb" y="129.838947"/>
     <use style="fill:#471365;fill-opacity:0.8;stroke:#471365;stroke-opacity:0.8;" x="164.537363" xlink:href="#m05b6dc5fbb" y="134.114671"/>
     <use style="fill:#471365;fill-opacity:0.8;stroke:#471365;stroke-opacity:0.8;" x="158.358845" xlink:href="#m05b6dc5fbb" y="141.365345"/>
     <use style="fill:#471365;fill-opacity:0.8;stroke:#471365;stroke-opacity:0.8;" x="155.195666" xlink:href="#m05b6dc5fbb" y="220.178276"/>
     <use style="fill:#471365;fill-opacity:0.8;stroke:#471365;stroke-opacity:0.8;" x="113.094963" xlink:href="#m05b6dc5fbb" y="134.045681"/>
     <use style="fill:#471365;fill-opacity:0.8;stroke:#471365;stroke-opacity:0.8;" x="182.489482" xlink:href="#m05b6dc5fbb" y="130.820169"/>
     <use style="fill:#471365;fill-opacity:0.8;stroke:#471365;stroke-opacity:0.8;" x="143.428969" xlink:href="#m05b6dc5fbb" y="151.174613"/>
     <use style="fill:#471365;fill-opacity:0.8;stroke:#471365;stroke-opacity:0.8;" x="185.762724" xlink:href="#m05b6dc5fbb" y="142.482574"/>
     <use style="fill:#471365;fill-opacity:0.8;stroke:#471365;stroke-opacity:0.8;" x="204.501122" xlink:href="#m05b6dc5fbb" y="131.758332"/>
     <use style="fill:#471365;fill-opacity:0.8;stroke:#471365;stroke-opacity:0.8;" x="226.953551" xlink:href="#m05b6dc5fbb" y="176.126697"/>
     <use style="fill:#471365;fill-opacity:0.8;stroke:#471365;stroke-opacity:0.8;" x="122.632506" xlink:href="#m05b6dc5fbb" y="129.69625"/>
     <use style="fill:#471365;fill-opacity:0.8;stroke:#471365;stroke-opacity:0.8;" x="141.905288" xlink:href="#m05b6dc5fbb" y="140.445369"/>
     <use style="fill:#471365;fill-opacity:0.8;stroke:#471365;stroke-opacity:0.8;" x="233.938221" xlink:href="#m05b6dc5fbb" y="183.520852"/>
     <use style="fill:#471365;fill-opacity:0.8;stroke:#471365;stroke-opacity:0.8;" x="123.872539" xlink:href="#m05b6dc5fbb" y="263.255451"/>
     <use style="fill:#471365;fill-opacity:0.8;stroke:#471365;stroke-opacity:0.8;" x="165.468027" xlink:href="#m05b6dc5fbb" y="129.459821"/>
     <use style="fill:#471365;fill-opacity:0.8;stroke:#471365;stroke-opacity:0.8;" x="197.943529" xlink:href="#m05b6dc5fbb" y="170.476333"/>
     <use style="fill:#471365;fill-opacity:0.8;stroke:#471365;stroke-opacity:0.8;" x="144.806072" xlink:href="#m05b6dc5fbb" y="162.14591"/>
     <use style="fill:#471365;fill-opacity:0.8;stroke:#471365;stroke-opacity:0.8;" x="123.652865" xlink:href="#m05b6dc5fbb" y="179.052137"/>
     <use style="fill:#471365;fill-opacity:0.8;stroke:#471365;stroke-opacity:0.8;" x="159.376406" xlink:href="#m05b6dc5fbb" y="227.398894"/>
     <use style="fill:#471365;fill-opacity:0.8;stroke:#471365;stroke-opacity:0.8;" x="160.944262" xlink:href="#m05b6dc5fbb" y="239.072903"/>
     <use style="fill:#471365;fill-opacity:0.8;stroke:#471365;stroke-opacity:0.8;" x="172.357479" xlink:href="#m05b6dc5fbb" y="165.474231"/>
     <use style="fill:#471365;fill-opacity:0.8;stroke:#471365;stroke-opacity:0.8;" x="167.733097" xlink:href="#m05b6dc5fbb" y="155.070307"/>
     <use style="fill:#471365;fill-opacity:0.8;stroke:#471365;stroke-opacity:0.8;" x="145.395495" xlink:href="#m05b6dc5fbb" y="143.675574"/>
     <use style="fill:#471365;fill-opacity:0.8;stroke:#471365;stroke-opacity:0.8;" x="138.311248" xlink:href="#m05b6dc5fbb" y="134.244667"/>
     <use style="fill:#471365;fill-opacity:0.8;stroke:#471365;stroke-opacity:0.8;" x="135.586001" xlink:href="#m05b6dc5fbb" y="167.453942"/>
     <use style="fill:#471365;fill-opacity:0.8;stroke:#471365;stroke-opacity:0.8;" x="154.706101" xlink:href="#m05b6dc5fbb" y="184.160851"/>
     <use style="fill:#471365;fill-opacity:0.8;stroke:#471365;stroke-opacity:0.8;" x="113.803329" xlink:href="#m05b6dc5fbb" y="138.438325"/>
     <use style="fill:#471365;fill-opacity:0.8;stroke:#471365;stroke-opacity:0.8;" x="128.840952" xlink:href="#m05b6dc5fbb" y="173.577916"/>
     <use style="fill:#471365;fill-opacity:0.8;stroke:#471365;stroke-opacity:0.8;" x="156.239892" xlink:href="#m05b6dc5fbb" y="180.048531"/>
     <use style="fill:#471365;fill-opacity:0.8;stroke:#471365;stroke-opacity:0.8;" x="206.377187" xlink:href="#m05b6dc5fbb" y="248.727442"/>
     <use style="fill:#471365;fill-opacity:0.8;stroke:#471365;stroke-opacity:0.8;" x="129.770513" xlink:href="#m05b6dc5fbb" y="194.405176"/>
     <use style="fill:#471365;fill-opacity:0.8;stroke:#471365;stroke-opacity:0.8;" x="165.457317" xlink:href="#m05b6dc5fbb" y="340.854913"/>
     <use style="fill:#471365;fill-opacity:0.8;stroke:#471365;stroke-opacity:0.8;" x="179.447252" xlink:href="#m05b6dc5fbb" y="180.437943"/>
     <use style="fill:#471365;fill-opacity:0.8;stroke:#471365;stroke-opacity:0.8;" x="144.713193" xlink:href="#m05b6dc5fbb" y="131.981574"/>
     <use style="fill:#471365;fill-opacity:0.8;stroke:#471365;stroke-opacity:0.8;" x="177.467604" xlink:href="#m05b6dc5fbb" y="200.056233"/>
     <use style="fill:#471365;fill-opacity:0.8;stroke:#471365;stroke-opacity:0.8;" x="123.216063" xlink:href="#m05b6dc5fbb" y="174.997793"/>
     <use style="fill:#471365;fill-opacity:0.8;stroke:#471365;stroke-opacity:0.8;" x="140.652505" xlink:href="#m05b6dc5fbb" y="150.214694"/>
     <use style="fill:#471365;fill-opacity:0.8;stroke:#471365;stroke-opacity:0.8;" x="160.881115" xlink:href="#m05b6dc5fbb" y="144.54271"/>
     <use style="fill:#471365;fill-opacity:0.8;stroke:#471365;stroke-opacity:0.8;" x="164.007794" xlink:href="#m05b6dc5fbb" y="149.262866"/>
     <use style="fill:#471365;fill-opacity:0.8;stroke:#471365;stroke-opacity:0.8;" x="201.806509" xlink:href="#m05b6dc5fbb" y="225.489667"/>
     <use style="fill:#471365;fill-opacity:0.8;stroke:#471365;stroke-opacity:0.8;" x="125.870067" xlink:href="#m05b6dc5fbb" y="139.947948"/>
     <use style="fill:#471365;fill-opacity:0.8;stroke:#471365;stroke-opacity:0.8;" x="167.384342" xlink:href="#m05b6dc5fbb" y="169.886864"/>
     <use style="fill:#471365;fill-opacity:0.8;stroke:#471365;stroke-opacity:0.8;" x="244.305586" xlink:href="#m05b6dc5fbb" y="176.183585"/>
     <use style="fill:#471365;fill-opacity:0.8;stroke:#471365;stroke-opacity:0.8;" x="133.89869" xlink:href="#m05b6dc5fbb" y="184.207915"/>
     <use style="fill:#471365;fill-opacity:0.8;stroke:#471365;stroke-opacity:0.8;" x="170.123477" xlink:href="#m05b6dc5fbb" y="142.244872"/>
     <use style="fill:#471365;fill-opacity:0.8;stroke:#471365;stroke-opacity:0.8;" x="154.933942" xlink:href="#m05b6dc5fbb" y="167.275119"/>
     <use style="fill:#471365;fill-opacity:0.8;stroke:#471365;stroke-opacity:0.8;" x="139.978779" xlink:href="#m05b6dc5fbb" y="199.75382"/>
     <use style="fill:#471365;fill-opacity:0.8;stroke:#471365;stroke-opacity:0.8;" x="126.700685" xlink:href="#m05b6dc5fbb" y="143.812209"/>
     <use style="fill:#471365;fill-opacity:0.8;stroke:#471365;stroke-opacity:0.8;" x="186.899502" xlink:href="#m05b6dc5fbb" y="157.917052"/>
     <use style="fill:#471365;fill-opacity:0.8;stroke:#471365;stroke-opacity:0.8;" x="175.926203" xlink:href="#m05b6dc5fbb" y="136.966935"/>
     <use style="fill:#471365;fill-opacity:0.8;stroke:#471365;stroke-opacity:0.8;" x="158.014694" xlink:href="#m05b6dc5fbb" y="154.268188"/>
     <use style="fill:#471365;fill-opacity:0.8;stroke:#471365;stroke-opacity:0.8;" x="219.990011" xlink:href="#m05b6dc5fbb" y="203.731306"/>
     <use style="fill:#471365;fill-opacity:0.8;stroke:#471365;stroke-opacity:0.8;" x="210.183474" xlink:href="#m05b6dc5fbb" y="175.941327"/>
     <use style="fill:#471365;fill-opacity:0.8;stroke:#471365;stroke-opacity:0.8;" x="178.343576" xlink:href="#m05b6dc5fbb" y="133.673294"/>
     <use style="fill:#471365;fill-opacity:0.8;stroke:#471365;stroke-opacity:0.8;" x="258.997681" xlink:href="#m05b6dc5fbb" y="150.689975"/>
     <use style="fill:#471365;fill-opacity:0.8;stroke:#471365;stroke-opacity:0.8;" x="231.61269" xlink:href="#m05b6dc5fbb" y="158.17701"/>
     <use style="fill:#471365;fill-opacity:0.8;stroke:#471365;stroke-opacity:0.8;" x="117.495977" xlink:href="#m05b6dc5fbb" y="139.435546"/>
     <use style="fill:#471365;fill-opacity:0.8;stroke:#471365;stroke-opacity:0.8;" x="126.450392" xlink:href="#m05b6dc5fbb" y="131.403392"/>
     <use style="fill:#471365;fill-opacity:0.8;stroke:#471365;stroke-opacity:0.8;" x="193.137989" xlink:href="#m05b6dc5fbb" y="182.09762"/>
     <use style="fill:#471365;fill-opacity:0.8;stroke:#471365;stroke-opacity:0.8;" x="182.247961" xlink:href="#m05b6dc5fbb" y="194.237312"/>
     <use style="fill:#471365;fill-opacity:0.8;stroke:#471365;stroke-opacity:0.8;" x="121.690727" xlink:href="#m05b6dc5fbb" y="129.197518"/>
     <use style="fill:#471365;fill-opacity:0.8;stroke:#471365;stroke-opacity:0.8;" x="133.025062" xlink:href="#m05b6dc5fbb" y="128.958916"/>
     <use style="fill:#471365;fill-opacity:0.8;stroke:#471365;stroke-opacity:0.8;" x="138.828506" xlink:href="#m05b6dc5fbb" y="157.080951"/>
     <use style="fill:#471365;fill-opacity:0.8;stroke:#471365;stroke-opacity:0.8;" x="129.046537" xlink:href="#m05b6dc5fbb" y="188.256766"/>
     <use style="fill:#471365;fill-opacity:0.8;stroke:#471365;stroke-opacity:0.8;" x="254.032713" xlink:href="#m05b6dc5fbb" y="129.16001"/>
     <use style="fill:#471365;fill-opacity:0.8;stroke:#471365;stroke-opacity:0.8;" x="142.580928" xlink:href="#m05b6dc5fbb" y="150.648636"/>
     <use style="fill:#471365;fill-opacity:0.8;stroke:#471365;stroke-opacity:0.8;" x="147.733403" xlink:href="#m05b6dc5fbb" y="145.490738"/>
     <use style="fill:#471365;fill-opacity:0.8;stroke:#471365;stroke-opacity:0.8;" x="147.989598" xlink:href="#m05b6dc5fbb" y="151.031886"/>
     <use style="fill:#471365;fill-opacity:0.8;stroke:#471365;stroke-opacity:0.8;" x="117.817173" xlink:href="#m05b6dc5fbb" y="135.186405"/>
     <use style="fill:#471365;fill-opacity:0.8;stroke:#471365;stroke-opacity:0.8;" x="134.557559" xlink:href="#m05b6dc5fbb" y="224.486623"/>
     <use style="fill:#471365;fill-opacity:0.8;stroke:#471365;stroke-opacity:0.8;" x="196.450939" xlink:href="#m05b6dc5fbb" y="148.129945"/>
     <use style="fill:#471365;fill-opacity:0.8;stroke:#471365;stroke-opacity:0.8;" x="143.710239" xlink:href="#m05b6dc5fbb" y="159.690733"/>
     <use style="fill:#471365;fill-opacity:0.8;stroke:#471365;stroke-opacity:0.8;" x="134.855321" xlink:href="#m05b6dc5fbb" y="133.126937"/>
     <use style="fill:#471365;fill-opacity:0.8;stroke:#471365;stroke-opacity:0.8;" x="120.098833" xlink:href="#m05b6dc5fbb" y="179.742147"/>
     <use style="fill:#471365;fill-opacity:0.8;stroke:#471365;stroke-opacity:0.8;" x="157.714503" xlink:href="#m05b6dc5fbb" y="150.669317"/>
     <use style="fill:#471365;fill-opacity:0.8;stroke:#471365;stroke-opacity:0.8;" x="158.798354" xlink:href="#m05b6dc5fbb" y="138.929435"/>
     <use style="fill:#471365;fill-opacity:0.8;stroke:#471365;stroke-opacity:0.8;" x="136.100868" xlink:href="#m05b6dc5fbb" y="148.904397"/>
     <use style="fill:#471365;fill-opacity:0.8;stroke:#471365;stroke-opacity:0.8;" x="205.183482" xlink:href="#m05b6dc5fbb" y="133.687582"/>
     <use style="fill:#471365;fill-opacity:0.8;stroke:#471365;stroke-opacity:0.8;" x="151.883601" xlink:href="#m05b6dc5fbb" y="147.696335"/>
     <use style="fill:#471365;fill-opacity:0.8;stroke:#471365;stroke-opacity:0.8;" x="170.337706" xlink:href="#m05b6dc5fbb" y="183.454739"/>
     <use style="fill:#471365;fill-opacity:0.8;stroke:#471365;stroke-opacity:0.8;" x="157.604046" xlink:href="#m05b6dc5fbb" y="156.44221"/>
     <use style="fill:#471365;fill-opacity:0.8;stroke:#471365;stroke-opacity:0.8;" x="137.001911" xlink:href="#m05b6dc5fbb" y="197.651309"/>
     <use style="fill:#471365;fill-opacity:0.8;stroke:#471365;stroke-opacity:0.8;" x="176.861939" xlink:href="#m05b6dc5fbb" y="142.139043"/>
     <use style="fill:#471365;fill-opacity:0.8;stroke:#471365;stroke-opacity:0.8;" x="193.081075" xlink:href="#m05b6dc5fbb" y="165.164686"/>
     <use style="fill:#471365;fill-opacity:0.8;stroke:#471365;stroke-opacity:0.8;" x="123.903413" xlink:href="#m05b6dc5fbb" y="228.471555"/>
     <use style="fill:#471365;fill-opacity:0.8;stroke:#471365;stroke-opacity:0.8;" x="121.426809" xlink:href="#m05b6dc5fbb" y="171.169526"/>
     <use style="fill:#471365;fill-opacity:0.8;stroke:#471365;stroke-opacity:0.8;" x="162.515331" xlink:href="#m05b6dc5fbb" y="216.482051"/>
     <use style="fill:#471365;fill-opacity:0.8;stroke:#471365;stroke-opacity:0.8;" x="122.54522" xlink:href="#m05b6dc5fbb" y="138.212753"/>
     <use style="fill:#471365;fill-opacity:0.8;stroke:#471365;stroke-opacity:0.8;" x="150.147643" xlink:href="#m05b6dc5fbb" y="139.286788"/>
     <use style="fill:#471365;fill-opacity:0.8;stroke:#471365;stroke-opacity:0.8;" x="116.240701" xlink:href="#m05b6dc5fbb" y="141.52772"/>
     <use style="fill:#471365;fill-opacity:0.8;stroke:#471365;stroke-opacity:0.8;" x="125.851567" xlink:href="#m05b6dc5fbb" y="143.525798"/>
     <use style="fill:#471365;fill-opacity:0.8;stroke:#471365;stroke-opacity:0.8;" x="212.374886" xlink:href="#m05b6dc5fbb" y="212.028362"/>
     <use style="fill:#471365;fill-opacity:0.8;stroke:#471365;stroke-opacity:0.8;" x="146.463874" xlink:href="#m05b6dc5fbb" y="138.295145"/>
     <use style="fill:#471365;fill-opacity:0.8;stroke:#471365;stroke-opacity:0.8;" x="144.981528" xlink:href="#m05b6dc5fbb" y="240.870439"/>
     <use style="fill:#471365;fill-opacity:0.8;stroke:#471365;stroke-opacity:0.8;" x="178.325736" xlink:href="#m05b6dc5fbb" y="151.994068"/>
     <use style="fill:#471365;fill-opacity:0.8;stroke:#471365;stroke-opacity:0.8;" x="286.149848" xlink:href="#m05b6dc5fbb" y="131.207113"/>
     <use style="fill:#471365;fill-opacity:0.8;stroke:#471365;stroke-opacity:0.8;" x="144.787169" xlink:href="#m05b6dc5fbb" y="132.838819"/>
     <use style="fill:#471365;fill-opacity:0.8;stroke:#471365;stroke-opacity:0.8;" x="194.684124" xlink:href="#m05b6dc5fbb" y="129.978369"/>
     <use style="fill:#471365;fill-opacity:0.8;stroke:#471365;stroke-opacity:0.8;" x="280.559844" xlink:href="#m05b6dc5fbb" y="182.430963"/>
     <use style="fill:#471365;fill-opacity:0.8;stroke:#471365;stroke-opacity:0.8;" x="126.71099" xlink:href="#m05b6dc5fbb" y="249.947034"/>
     <use style="fill:#471365;fill-opacity:0.8;stroke:#471365;stroke-opacity:0.8;" x="181.994335" xlink:href="#m05b6dc5fbb" y="157.850188"/>
     <use style="fill:#471365;fill-opacity:0.8;stroke:#471365;stroke-opacity:0.8;" x="170.759665" xlink:href="#m05b6dc5fbb" y="133.363733"/>
     <use style="fill:#471365;fill-opacity:0.8;stroke:#471365;stroke-opacity:0.8;" x="174.832069" xlink:href="#m05b6dc5fbb" y="137.800118"/>
     <use style="fill:#471365;fill-opacity:0.8;stroke:#471365;stroke-opacity:0.8;" x="173.220646" xlink:href="#m05b6dc5fbb" y="163.307843"/>
     <use style="fill:#471365;fill-opacity:0.8;stroke:#471365;stroke-opacity:0.8;" x="230.241718" xlink:href="#m05b6dc5fbb" y="136.990887"/>
     <use style="fill:#471365;fill-opacity:0.8;stroke:#471365;stroke-opacity:0.8;" x="139.491511" xlink:href="#m05b6dc5fbb" y="147.652184"/>
     <use style="fill:#471365;fill-opacity:0.8;stroke:#471365;stroke-opacity:0.8;" x="190.584697" xlink:href="#m05b6dc5fbb" y="159.713957"/>
     <use style="fill:#471365;fill-opacity:0.8;stroke:#471365;stroke-opacity:0.8;" x="195.282007" xlink:href="#m05b6dc5fbb" y="143.936232"/>
     <use style="fill:#471365;fill-opacity:0.8;stroke:#471365;stroke-opacity:0.8;" x="223.783125" xlink:href="#m05b6dc5fbb" y="135.122683"/>
     <use style="fill:#471365;fill-opacity:0.8;stroke:#471365;stroke-opacity:0.8;" x="174.445673" xlink:href="#m05b6dc5fbb" y="207.27272"/>
     <use style="fill:#471365;fill-opacity:0.8;stroke:#471365;stroke-opacity:0.8;" x="202.00379" xlink:href="#m05b6dc5fbb" y="184.241674"/>
     <use style="fill:#471365;fill-opacity:0.8;stroke:#471365;stroke-opacity:0.8;" x="180.747227" xlink:href="#m05b6dc5fbb" y="146.794293"/>
     <use style="fill:#471365;fill-opacity:0.8;stroke:#471365;stroke-opacity:0.8;" x="166.92556" xlink:href="#m05b6dc5fbb" y="156.963987"/>
     <use style="fill:#471365;fill-opacity:0.8;stroke:#471365;stroke-opacity:0.8;" x="172.484068" xlink:href="#m05b6dc5fbb" y="146.676088"/>
     <use style="fill:#471365;fill-opacity:0.8;stroke:#471365;stroke-opacity:0.8;" x="173.656623" xlink:href="#m05b6dc5fbb" y="143.294178"/>
     <use style="fill:#471365;fill-opacity:0.8;stroke:#471365;stroke-opacity:0.8;" x="126.745415" xlink:href="#m05b6dc5fbb" y="138.664799"/>
     <use style="fill:#471365;fill-opacity:0.8;stroke:#471365;stroke-opacity:0.8;" x="154.161209" xlink:href="#m05b6dc5fbb" y="132.138828"/>
     <use style="fill:#471365;fill-opacity:0.8;stroke:#471365;stroke-opacity:0.8;" x="138.720088" xlink:href="#m05b6dc5fbb" y="160.081555"/>
     <use style="fill:#471365;fill-opacity:0.8;stroke:#471365;stroke-opacity:0.8;" x="137.663244" xlink:href="#m05b6dc5fbb" y="148.422619"/>
     <use style="fill:#471365;fill-opacity:0.8;stroke:#471365;stroke-opacity:0.8;" x="148.484068" xlink:href="#m05b6dc5fbb" y="191.918653"/>
     <use style="fill:#471365;fill-opacity:0.8;stroke:#471365;stroke-opacity:0.8;" x="198.017857" xlink:href="#m05b6dc5fbb" y="212.616545"/>
     <use style="fill:#471365;fill-opacity:0.8;stroke:#471365;stroke-opacity:0.8;" x="151.622718" xlink:href="#m05b6dc5fbb" y="176.606877"/>
     <use style="fill:#471365;fill-opacity:0.8;stroke:#471365;stroke-opacity:0.8;" x="150.934082" xlink:href="#m05b6dc5fbb" y="179.925739"/>
     <use style="fill:#471365;fill-opacity:0.8;stroke:#471365;stroke-opacity:0.8;" x="139.248208" xlink:href="#m05b6dc5fbb" y="249.045099"/>
     <use style="fill:#471365;fill-opacity:0.8;stroke:#471365;stroke-opacity:0.8;" x="192.932722" xlink:href="#m05b6dc5fbb" y="154.956948"/>
     <use style="fill:#471365;fill-opacity:0.8;stroke:#471365;stroke-opacity:0.8;" x="169.950833" xlink:href="#m05b6dc5fbb" y="201.659741"/>
     <use style="fill:#471365;fill-opacity:0.8;stroke:#471365;stroke-opacity:0.8;" x="134.134254" xlink:href="#m05b6dc5fbb" y="145.524344"/>
    </g>
   </g>
   <g id="PolyCollection_1">
    <defs>
     <path d="M 60.488949 -280.920028 
L 60.488949 -254.492619 
L 63.306313 -254.725737 
L 66.123676 -255.07688 
L 68.94104 -255.35178 
L 71.758403 -255.655895 
L 74.575767 -255.998694 
L 77.39313 -256.307883 
L 80.210494 -256.674628 
L 83.027857 -256.980516 
L 85.845221 -257.265192 
L 88.662584 -257.52603 
L 91.479948 -257.884627 
L 94.297311 -258.154211 
L 97.114675 -258.45365 
L 99.932038 -258.823017 
L 102.749402 -259.067872 
L 105.566765 -259.44439 
L 108.384129 -259.820908 
L 111.201492 -260.082292 
L 114.018856 -260.394373 
L 116.836219 -260.611814 
L 119.653583 -260.810481 
L 122.470946 -261.066386 
L 125.28831 -261.393371 
L 128.105673 -261.681972 
L 130.923037 -261.811574 
L 133.7404 -262.049519 
L 136.557764 -262.281097 
L 139.375127 -262.464665 
L 142.192491 -262.654834 
L 145.009855 -262.876207 
L 147.827218 -263.026049 
L 150.644582 -263.11061 
L 153.461945 -263.212226 
L 156.279309 -263.270109 
L 159.096672 -263.27059 
L 161.914036 -263.224487 
L 164.731399 -263.266303 
L 167.548763 -263.162201 
L 170.366126 -262.991454 
L 173.18349 -262.922626 
L 176.000853 -262.710887 
L 178.818217 -262.536972 
L 181.63558 -262.40565 
L 184.452944 -262.129579 
L 187.270307 -261.962871 
L 190.087671 -261.710049 
L 192.905034 -261.571609 
L 195.722398 -261.533354 
L 198.539761 -261.294357 
L 201.357125 -261.039771 
L 204.174488 -260.753266 
L 206.991852 -260.476055 
L 209.809215 -260.130606 
L 212.626579 -259.929212 
L 215.443942 -259.697803 
L 218.261306 -259.519522 
L 221.078669 -259.202 
L 223.896033 -258.830079 
L 226.713396 -258.458159 
L 229.53076 -258.086238 
L 232.348123 -257.714318 
L 235.165487 -257.342397 
L 237.98285 -256.983177 
L 240.800214 -256.652659 
L 243.617577 -256.322839 
L 246.434941 -256.015555 
L 249.252304 -255.758944 
L 252.069668 -255.502332 
L 254.887031 -255.245721 
L 257.704395 -254.98911 
L 260.521758 -254.732761 
L 263.339122 -254.38658 
L 266.156485 -253.991785 
L 268.973849 -253.596989 
L 271.791212 -253.333281 
L 274.608576 -253.078236 
L 277.425939 -252.823192 
L 280.243303 -252.536014 
L 283.060666 -252.197334 
L 285.87803 -251.808459 
L 288.695393 -251.533298 
L 291.512757 -251.258137 
L 294.33012 -250.982976 
L 297.147484 -250.662735 
L 299.964847 -250.309776 
L 302.782211 -249.958163 
L 305.599574 -249.60655 
L 308.416938 -249.254936 
L 311.234301 -248.903323 
L 314.051665 -248.551709 
L 316.869028 -248.219381 
L 319.686392 -247.887111 
L 322.503755 -247.526967 
L 325.321119 -247.166823 
L 328.138482 -246.806678 
L 330.955846 -246.446534 
L 333.773209 -246.08639 
L 336.590573 -245.72772 
L 339.407936 -245.381398 
L 339.407936 -289.204821 
L 339.407936 -289.204821 
L 336.590573 -288.869156 
L 333.773209 -288.51799 
L 330.955846 -288.202046 
L 328.138482 -287.903578 
L 325.321119 -287.60511 
L 322.503755 -287.286386 
L 319.686392 -286.967107 
L 316.869028 -286.647827 
L 314.051665 -286.328547 
L 311.234301 -286.025863 
L 308.416938 -285.730179 
L 305.599574 -285.434495 
L 302.782211 -285.138811 
L 299.964847 -284.843127 
L 297.147484 -284.547443 
L 294.33012 -284.251759 
L 291.512757 -283.956075 
L 288.695393 -283.658909 
L 285.87803 -283.319062 
L 283.060666 -282.950268 
L 280.243303 -282.581473 
L 277.425939 -282.212325 
L 274.608576 -281.854902 
L 271.791212 -281.55396 
L 268.973849 -281.281549 
L 266.156485 -280.962268 
L 263.339122 -280.667213 
L 260.521758 -280.391263 
L 257.704395 -280.152119 
L 254.887031 -279.912974 
L 252.069668 -279.608554 
L 249.252304 -279.205504 
L 246.434941 -278.857931 
L 243.617577 -278.573215 
L 240.800214 -278.288498 
L 237.98285 -278.061579 
L 235.165487 -277.718146 
L 232.348123 -277.456148 
L 229.53076 -277.143571 
L 226.713396 -276.857895 
L 223.896033 -276.576131 
L 221.078669 -276.419752 
L 218.261306 -276.076691 
L 215.443942 -275.841177 
L 212.626579 -275.605663 
L 209.809215 -275.355847 
L 206.991852 -275.085556 
L 204.174488 -274.844437 
L 201.357125 -274.645427 
L 198.539761 -274.408381 
L 195.722398 -274.200318 
L 192.905034 -274.044449 
L 190.087671 -273.816399 
L 187.270307 -273.56609 
L 184.452944 -273.29883 
L 181.63558 -273.260647 
L 178.818217 -272.943664 
L 176.000853 -272.890698 
L 173.18349 -272.845291 
L 170.366126 -272.705515 
L 167.548763 -272.630816 
L 164.731399 -272.499414 
L 161.914036 -272.395565 
L 159.096672 -272.466346 
L 156.279309 -272.478738 
L 153.461945 -272.519776 
L 150.644582 -272.522023 
L 147.827218 -272.516538 
L 145.009855 -272.559906 
L 142.192491 -272.702013 
L 139.375127 -272.767542 
L 136.557764 -272.861052 
L 133.7404 -273.072893 
L 130.923037 -273.450383 
L 128.105673 -273.583195 
L 125.28831 -273.741772 
L 122.470946 -273.910951 
L 119.653583 -274.245408 
L 116.836219 -274.53962 
L 114.018856 -274.797085 
L 111.201492 -275.172167 
L 108.384129 -275.558947 
L 105.566765 -275.812471 
L 102.749402 -276.171428 
L 99.932038 -276.52664 
L 97.114675 -276.820019 
L 94.297311 -277.111946 
L 91.479948 -277.361755 
L 88.662584 -277.67048 
L 85.845221 -277.998296 
L 83.027857 -278.361098 
L 80.210494 -278.648071 
L 77.39313 -278.967275 
L 74.575767 -279.293896 
L 71.758403 -279.618821 
L 68.94104 -279.957881 
L 66.123676 -280.267217 
L 63.306313 -280.593622 
L 60.488949 -280.920028 
z
" id="m05bff2ed3c" style="stroke:#ffffff;stroke-opacity:0.15;stroke-width:0.8;"/>
    </defs>
    <g clip-path="url(#p640dbcecea)">
     <use style="fill:#471365;fill-opacity:0.15;stroke:#ffffff;stroke-opacity:0.15;stroke-width:0.8;" x="0" xlink:href="#m05bff2ed3c" y="432"/>
    </g>
   </g>
   <g id="line2d_16">
    <path clip-path="url(#p640dbcecea)" d="M 60.488949 164.129962 
L 63.306313 164.123664 
L 66.123676 164.117366 
L 68.94104 164.111069 
L 71.758403 164.104771 
L 74.575767 164.098473 
L 77.39313 164.092175 
L 80.210494 164.085877 
L 83.027857 164.079579 
L 85.845221 164.073282 
L 88.662584 164.066984 
L 91.479948 164.060686 
L 94.297311 164.054388 
L 97.114675 164.04809 
L 99.932038 164.041792 
L 102.749402 164.035495 
L 105.566765 164.029197 
L 108.384129 164.022899 
L 111.201492 164.016601 
L 114.018856 164.010303 
L 116.836219 164.004006 
L 119.653583 163.997708 
L 122.470946 163.99141 
L 125.28831 163.985112 
L 128.105673 163.978814 
L 130.923037 163.972516 
L 133.7404 163.966219 
L 136.557764 163.959921 
L 139.375127 163.953623 
L 142.192491 163.947325 
L 145.009855 163.941027 
L 147.827218 163.934729 
L 150.644582 163.928432 
L 153.461945 163.922134 
L 156.279309 163.915836 
L 159.096672 163.909538 
L 161.914036 163.90324 
L 164.731399 163.896943 
L 167.548763 163.890645 
L 170.366126 163.884347 
L 173.18349 163.878049 
L 176.000853 163.871751 
L 178.818217 163.865453 
L 181.63558 163.859156 
L 184.452944 163.852858 
L 187.270307 163.84656 
L 190.087671 163.840262 
L 192.905034 163.833964 
L 195.722398 163.827666 
L 198.539761 163.821369 
L 201.357125 163.815071 
L 204.174488 163.808773 
L 206.991852 163.802475 
L 209.809215 163.796177 
L 212.626579 163.78988 
L 215.443942 163.783582 
L 218.261306 163.777284 
L 221.078669 163.770986 
L 223.896033 163.764688 
L 226.713396 163.75839 
L 229.53076 163.752093 
L 232.348123 163.745795 
L 235.165487 163.739497 
L 237.98285 163.733199 
L 240.800214 163.726901 
L 243.617577 163.720603 
L 246.434941 163.714306 
L 249.252304 163.708008 
L 252.069668 163.70171 
L 254.887031 163.695412 
L 257.704395 163.689114 
L 260.521758 163.682817 
L 263.339122 163.676519 
L 266.156485 163.670221 
L 268.973849 163.663923 
L 271.791212 163.657625 
L 274.608576 163.651327 
L 277.425939 163.64503 
L 280.243303 163.638732 
L 283.060666 163.632434 
L 285.87803 163.626136 
L 288.695393 163.619838 
L 291.512757 163.613541 
L 294.33012 163.607243 
L 297.147484 163.600945 
L 299.964847 163.594647 
L 302.782211 163.588349 
L 305.599574 163.582051 
L 308.416938 163.575754 
L 311.234301 163.569456 
L 314.051665 163.563158 
L 316.869028 163.55686 
L 319.686392 163.550562 
L 322.503755 163.544264 
L 325.321119 163.537967 
L 328.138482 163.531669 
L 330.955846 163.525371 
L 333.773209 163.519073 
L 336.590573 163.512775 
L 339.407936 163.506478 
" style="fill:none;stroke:#471365;stroke-linecap:round;stroke-width:1.8;"/>
   </g>
   <g id="patch_3">
    <path d="M 46.543 390.332 
L 46.543 79.481829 
" style="fill:none;stroke:#262626;stroke-linecap:square;stroke-linejoin:miter;"/>
   </g>
   <g id="patch_4">
    <path d="M 46.543 390.332 
L 353.353886 390.332 
" style="fill:none;stroke:#262626;stroke-linecap:square;stroke-linejoin:miter;"/>
   </g>
   <g id="legend_1">
    <g id="patch_5">
     <path d="M 192.190136 99.438579 
L 347.193886 99.438579 
Q 348.953886 99.438579 348.953886 97.678579 
L 348.953886 85.641829 
Q 348.953886 83.881829 347.193886 83.881829 
L 192.190136 83.881829 
Q 190.430136 83.881829 190.430136 85.641829 
L 190.430136 97.678579 
Q 190.430136 99.438579 192.190136 99.438579 
z
" style="fill:#ffffff;opacity:0.8;stroke:#cccccc;stroke-linejoin:miter;stroke-width:0.8;"/>
    </g>
    <g id="line2d_17"/>
    <g id="line2d_18"/>
    <g id="text_18">
     <!-- pearsonr = 0.0025; p = 0.97 -->
     <defs>
      <path d="M 18.109375 8.203125 
L 18.109375 -20.796875 
L 9.078125 -20.796875 
L 9.078125 54.6875 
L 18.109375 54.6875 
L 18.109375 46.390625 
Q 20.953125 51.265625 25.265625 53.625 
Q 29.59375 56 35.59375 56 
Q 45.5625 56 51.78125 48.09375 
Q 58.015625 40.1875 58.015625 27.296875 
Q 58.015625 14.40625 51.78125 6.484375 
Q 45.5625 -1.421875 35.59375 -1.421875 
Q 29.59375 -1.421875 25.265625 0.953125 
Q 20.953125 3.328125 18.109375 8.203125 
z
M 48.6875 27.296875 
Q 48.6875 37.203125 44.609375 42.84375 
Q 40.53125 48.484375 33.40625 48.484375 
Q 26.265625 48.484375 22.1875 42.84375 
Q 18.109375 37.203125 18.109375 27.296875 
Q 18.109375 17.390625 22.1875 11.75 
Q 26.265625 6.109375 33.40625 6.109375 
Q 40.53125 6.109375 44.609375 11.75 
Q 48.6875 17.390625 48.6875 27.296875 
z
" id="DejaVuSans-70"/>
      <path d="M 56.203125 29.59375 
L 56.203125 25.203125 
L 14.890625 25.203125 
Q 15.484375 15.921875 20.484375 11.0625 
Q 25.484375 6.203125 34.421875 6.203125 
Q 39.59375 6.203125 44.453125 7.46875 
Q 49.3125 8.734375 54.109375 11.28125 
L 54.109375 2.78125 
Q 49.265625 0.734375 44.1875 -0.34375 
Q 39.109375 -1.421875 33.890625 -1.421875 
Q 20.796875 -1.421875 13.15625 6.1875 
Q 5.515625 13.8125 5.515625 26.8125 
Q 5.515625 40.234375 12.765625 48.109375 
Q 20.015625 56 32.328125 56 
Q 43.359375 56 49.78125 48.890625 
Q 56.203125 41.796875 56.203125 29.59375 
z
M 47.21875 32.234375 
Q 47.125 39.59375 43.09375 43.984375 
Q 39.0625 48.390625 32.421875 48.390625 
Q 24.90625 48.390625 20.390625 44.140625 
Q 15.875 39.890625 15.1875 32.171875 
z
" id="DejaVuSans-65"/>
      <path d="M 34.28125 27.484375 
Q 23.390625 27.484375 19.1875 25 
Q 14.984375 22.515625 14.984375 16.5 
Q 14.984375 11.71875 18.140625 8.90625 
Q 21.296875 6.109375 26.703125 6.109375 
Q 34.1875 6.109375 38.703125 11.40625 
Q 43.21875 16.703125 43.21875 25.484375 
L 43.21875 27.484375 
z
M 52.203125 31.203125 
L 52.203125 0 
L 43.21875 0 
L 43.21875 8.296875 
Q 40.140625 3.328125 35.546875 0.953125 
Q 30.953125 -1.421875 24.3125 -1.421875 
Q 15.921875 -1.421875 10.953125 3.296875 
Q 6 8.015625 6 15.921875 
Q 6 25.140625 12.171875 29.828125 
Q 18.359375 34.515625 30.609375 34.515625 
L 43.21875 34.515625 
L 43.21875 35.40625 
Q 43.21875 41.609375 39.140625 45 
Q 35.0625 48.390625 27.6875 48.390625 
Q 23 48.390625 18.546875 47.265625 
Q 14.109375 46.140625 10.015625 43.890625 
L 10.015625 52.203125 
Q 14.9375 54.109375 19.578125 55.046875 
Q 24.21875 56 28.609375 56 
Q 40.484375 56 46.34375 49.84375 
Q 52.203125 43.703125 52.203125 31.203125 
z
" id="DejaVuSans-61"/>
      <path d="M 41.109375 46.296875 
Q 39.59375 47.171875 37.8125 47.578125 
Q 36.03125 48 33.890625 48 
Q 26.265625 48 22.1875 43.046875 
Q 18.109375 38.09375 18.109375 28.8125 
L 18.109375 0 
L 9.078125 0 
L 9.078125 54.6875 
L 18.109375 54.6875 
L 18.109375 46.1875 
Q 20.953125 51.171875 25.484375 53.578125 
Q 30.03125 56 36.53125 56 
Q 37.453125 56 38.578125 55.875 
Q 39.703125 55.765625 41.0625 55.515625 
z
" id="DejaVuSans-72"/>
      <path d="M 44.28125 53.078125 
L 44.28125 44.578125 
Q 40.484375 46.53125 36.375 47.5 
Q 32.28125 48.484375 27.875 48.484375 
Q 21.1875 48.484375 17.84375 46.4375 
Q 14.5 44.390625 14.5 40.28125 
Q 14.5 37.15625 16.890625 35.375 
Q 19.28125 33.59375 26.515625 31.984375 
L 29.59375 31.296875 
Q 39.15625 29.25 43.1875 25.515625 
Q 47.21875 21.78125 47.21875 15.09375 
Q 47.21875 7.46875 41.1875 3.015625 
Q 35.15625 -1.421875 24.609375 -1.421875 
Q 20.21875 -1.421875 15.453125 -0.5625 
Q 10.6875 0.296875 5.421875 2 
L 5.421875 11.28125 
Q 10.40625 8.6875 15.234375 7.390625 
Q 20.0625 6.109375 24.8125 6.109375 
Q 31.15625 6.109375 34.5625 8.28125 
Q 37.984375 10.453125 37.984375 14.40625 
Q 37.984375 18.0625 35.515625 20.015625 
Q 33.0625 21.96875 24.703125 23.78125 
L 21.578125 24.515625 
Q 13.234375 26.265625 9.515625 29.90625 
Q 5.8125 33.546875 5.8125 39.890625 
Q 5.8125 47.609375 11.28125 51.796875 
Q 16.75 56 26.8125 56 
Q 31.78125 56 36.171875 55.265625 
Q 40.578125 54.546875 44.28125 53.078125 
z
" id="DejaVuSans-73"/>
      <path id="DejaVuSans-20"/>
      <path d="M 10.59375 45.40625 
L 73.1875 45.40625 
L 73.1875 37.203125 
L 10.59375 37.203125 
z
M 10.59375 25.484375 
L 73.1875 25.484375 
L 73.1875 17.1875 
L 10.59375 17.1875 
z
" id="DejaVuSans-3d"/>
      <path d="M 11.71875 51.703125 
L 22.015625 51.703125 
L 22.015625 39.3125 
L 11.71875 39.3125 
z
M 11.71875 12.40625 
L 22.015625 12.40625 
L 22.015625 4 
L 14.015625 -11.625 
L 7.71875 -11.625 
L 11.71875 4 
z
" id="DejaVuSans-3b"/>
      <path d="M 8.203125 72.90625 
L 55.078125 72.90625 
L 55.078125 68.703125 
L 28.609375 0 
L 18.3125 0 
L 43.21875 64.59375 
L 8.203125 64.59375 
z
" id="DejaVuSans-37"/>
     </defs>
     <g style="fill:#262626;" transform="translate(218.590136 94.088454)scale(0.088 -0.088)">
      <use xlink:href="#DejaVuSans-70"/>
      <use x="63.476562" xlink:href="#DejaVuSans-65"/>
      <use x="125" xlink:href="#DejaVuSans-61"/>
      <use x="186.279297" xlink:href="#DejaVuSans-72"/>
      <use x="227.392578" xlink:href="#DejaVuSans-73"/>
      <use x="279.492188" xlink:href="#DejaVuSans-6f"/>
      <use x="340.673828" xlink:href="#DejaVuSans-6e"/>
      <use x="404.052734" xlink:href="#DejaVuSans-72"/>
      <use x="445.166016" xlink:href="#DejaVuSans-20"/>
      <use x="476.953125" xlink:href="#DejaVuSans-3d"/>
      <use x="560.742188" xlink:href="#DejaVuSans-20"/>
      <use x="592.529297" xlink:href="#DejaVuSans-30"/>
      <use x="656.152344" xlink:href="#DejaVuSans-2e"/>
      <use x="687.939453" xlink:href="#DejaVuSans-30"/>
      <use x="751.5625" xlink:href="#DejaVuSans-30"/>
      <use x="815.185547" xlink:href="#DejaVuSans-32"/>
      <use x="878.808594" xlink:href="#DejaVuSans-35"/>
      <use x="942.431641" xlink:href="#DejaVuSans-3b"/>
      <use x="976.123047" xlink:href="#DejaVuSans-20"/>
      <use x="1007.910156" xlink:href="#DejaVuSans-70"/>
      <use x="1071.386719" xlink:href="#DejaVuSans-20"/>
      <use x="1103.173828" xlink:href="#DejaVuSans-3d"/>
      <use x="1186.962891" xlink:href="#DejaVuSans-20"/>
      <use x="1218.75" xlink:href="#DejaVuSans-30"/>
      <use x="1282.373047" xlink:href="#DejaVuSans-2e"/>
      <use x="1314.160156" xlink:href="#DejaVuSans-39"/>
      <use x="1377.783203" xlink:href="#DejaVuSans-37"/>
     </g>
    </g>
   </g>
  </g>
  <g id="axes_2">
   <g id="patch_6">
    <path d="M 46.543 68.762857 
L 353.353886 68.762857 
L 353.353886 15.168 
L 46.543 15.168 
z
" style="fill:#ffffff;"/>
   </g>
   <g id="matplotlib.axis_3">
    <g id="xtick_9">
     <g id="line2d_19">
      <g>
       <use style="fill:#262626;stroke:#262626;" x="58.604952" xlink:href="#mf24cfee977" y="68.762857"/>
      </g>
     </g>
    </g>
    <g id="xtick_10">
     <g id="line2d_20">
      <g>
       <use style="fill:#262626;stroke:#262626;" x="100.401435" xlink:href="#mf24cfee977" y="68.762857"/>
      </g>
     </g>
    </g>
    <g id="xtick_11">
     <g id="line2d_21">
      <g>
       <use style="fill:#262626;stroke:#262626;" x="142.197918" xlink:href="#mf24cfee977" y="68.762857"/>
      </g>
     </g>
    </g>
    <g id="xtick_12">
     <g id="line2d_22">
      <g>
       <use style="fill:#262626;stroke:#262626;" x="183.994401" xlink:href="#mf24cfee977" y="68.762857"/>
      </g>
     </g>
    </g>
    <g id="xtick_13">
     <g id="line2d_23">
      <g>
       <use style="fill:#262626;stroke:#262626;" x="225.790883" xlink:href="#mf24cfee977" y="68.762857"/>
      </g>
     </g>
    </g>
    <g id="xtick_14">
     <g id="line2d_24">
      <g>
       <use style="fill:#262626;stroke:#262626;" x="267.587366" xlink:href="#mf24cfee977" y="68.762857"/>
      </g>
     </g>
    </g>
    <g id="xtick_15">
     <g id="line2d_25">
      <g>
       <use style="fill:#262626;stroke:#262626;" x="309.383849" xlink:href="#mf24cfee977" y="68.762857"/>
      </g>
     </g>
    </g>
    <g id="xtick_16">
     <g id="line2d_26">
      <g>
       <use style="fill:#262626;stroke:#262626;" x="351.180331" xlink:href="#mf24cfee977" y="68.762857"/>
      </g>
     </g>
    </g>
   </g>
   <g id="matplotlib.axis_4">
    <g id="ytick_8"/>
    <g id="ytick_9"/>
    <g id="ytick_10"/>
   </g>
   <g id="patch_7">
    <path clip-path="url(#p0171389859)" d="M 112.300527 68.762857 
L 128.236511 68.762857 
L 128.236511 26.029416 
L 112.300527 26.029416 
z
" style="fill:#471365;opacity:0.4;stroke:#ffffff;stroke-linejoin:miter;stroke-width:0.8;"/>
   </g>
   <g id="patch_8">
    <path clip-path="url(#p0171389859)" d="M 128.236511 68.762857 
L 144.172496 68.762857 
L 144.172496 17.720136 
L 128.236511 17.720136 
z
" style="fill:#471365;opacity:0.4;stroke:#ffffff;stroke-linejoin:miter;stroke-width:0.8;"/>
   </g>
   <g id="patch_9">
    <path clip-path="url(#p0171389859)" d="M 144.172496 68.762857 
L 160.108481 68.762857 
L 160.108481 22.468296 
L 144.172496 22.468296 
z
" style="fill:#471365;opacity:0.4;stroke:#ffffff;stroke-linejoin:miter;stroke-width:0.8;"/>
   </g>
   <g id="patch_10">
    <path clip-path="url(#p0171389859)" d="M 160.108481 68.762857 
L 176.044466 68.762857 
L 176.044466 34.338696 
L 160.108481 34.338696 
z
" style="fill:#471365;opacity:0.4;stroke:#ffffff;stroke-linejoin:miter;stroke-width:0.8;"/>
   </g>
   <g id="patch_11">
    <path clip-path="url(#p0171389859)" d="M 176.044466 68.762857 
L 191.98045 68.762857 
L 191.98045 47.396137 
L 176.044466 47.396137 
z
" style="fill:#471365;opacity:0.4;stroke:#ffffff;stroke-linejoin:miter;stroke-width:0.8;"/>
   </g>
   <g id="patch_12">
    <path clip-path="url(#p0171389859)" d="M 191.98045 68.762857 
L 207.916435 68.762857 
L 207.916435 47.396137 
L 191.98045 47.396137 
z
" style="fill:#471365;opacity:0.4;stroke:#ffffff;stroke-linejoin:miter;stroke-width:0.8;"/>
   </g>
   <g id="patch_13">
    <path clip-path="url(#p0171389859)" d="M 207.916435 68.762857 
L 223.85242 68.762857 
L 223.85242 59.266537 
L 207.916435 59.266537 
z
" style="fill:#471365;opacity:0.4;stroke:#ffffff;stroke-linejoin:miter;stroke-width:0.8;"/>
   </g>
   <g id="patch_14">
    <path clip-path="url(#p0171389859)" d="M 223.85242 68.762857 
L 239.788405 68.762857 
L 239.788405 60.453577 
L 223.85242 60.453577 
z
" style="fill:#471365;opacity:0.4;stroke:#ffffff;stroke-linejoin:miter;stroke-width:0.8;"/>
   </g>
   <g id="patch_15">
    <path clip-path="url(#p0171389859)" d="M 239.788405 68.762857 
L 255.72439 68.762857 
L 255.72439 61.640617 
L 239.788405 61.640617 
z
" style="fill:#471365;opacity:0.4;stroke:#ffffff;stroke-linejoin:miter;stroke-width:0.8;"/>
   </g>
   <g id="patch_16">
    <path clip-path="url(#p0171389859)" d="M 255.72439 68.762857 
L 271.660374 68.762857 
L 271.660374 65.201737 
L 255.72439 65.201737 
z
" style="fill:#471365;opacity:0.4;stroke:#ffffff;stroke-linejoin:miter;stroke-width:0.8;"/>
   </g>
   <g id="patch_17">
    <path clip-path="url(#p0171389859)" d="M 271.660374 68.762857 
L 287.596359 68.762857 
L 287.596359 65.201737 
L 271.660374 65.201737 
z
" style="fill:#471365;opacity:0.4;stroke:#ffffff;stroke-linejoin:miter;stroke-width:0.8;"/>
   </g>
   <g id="line2d_27">
    <path clip-path="url(#p0171389859)" d="M 73.167085 68.721857 
L 75.728325 68.685438 
L 78.289564 68.621547 
L 80.850804 68.513446 
L 83.412043 68.337022 
L 85.973283 68.059252 
L 88.534522 67.637295 
L 91.095762 67.018763 
L 93.657002 66.143742 
L 96.218241 64.948981 
L 98.779481 63.374334 
L 101.34072 61.371043 
L 103.90196 58.910882 
L 106.463199 55.994718 
L 109.024439 52.658787 
L 111.585678 48.977121 
L 114.146918 45.059146 
L 116.708157 41.042277 
L 119.269397 37.080358 
L 121.830637 33.329622 
L 124.391876 29.934286 
L 126.953116 27.013908 
L 129.514355 24.654149 
L 132.075595 22.901856 
L 134.636834 21.764563 
L 137.198074 21.21388 
L 139.759313 21.191802 
L 142.320553 21.61886 
L 144.881793 22.40306 
L 147.443032 23.448768 
L 150.004272 24.664838 
L 152.565511 25.971495 
L 155.126751 27.305566 
L 157.68799 28.623767 
L 160.24923 29.903755 
L 162.810469 31.142778 
L 165.371709 32.353942 
L 167.932948 33.560442 
L 170.494188 34.788568 
L 173.055428 36.060715 
L 175.616667 37.389814 
L 178.177907 38.776436 
L 180.739146 40.209209 
L 183.300386 41.668299 
L 185.861625 43.130812 
L 188.422865 44.576415 
L 190.984104 45.991445 
L 193.545344 47.370352 
L 196.106584 48.714199 
L 198.667823 50.026927 
L 201.229063 51.310744 
L 203.790302 52.562187 
L 206.351542 53.7701 
L 208.912781 54.916111 
L 211.474021 55.977468 
L 214.03526 56.931422 
L 216.5965 57.760032 
L 219.157739 58.454226 
L 221.718979 59.016192 
L 224.280219 59.45965 
L 226.841458 59.808044 
L 229.402698 60.091116 
L 231.963937 60.34065 
L 234.525177 60.586218 
L 237.086416 60.851673 
L 239.647656 61.152879 
L 242.208895 61.496851 
L 244.770135 61.882222 
L 247.331375 62.300726 
L 249.892614 62.739314 
L 252.453854 63.182502 
L 255.015093 63.614618 
L 257.576333 64.021703 
L 260.137572 64.392926 
L 262.698812 64.721477 
L 265.260051 65.004949 
L 267.821291 65.245289 
L 270.38253 65.448373 
L 272.94377 65.623267 
L 275.50501 65.781185 
L 278.066249 65.934184 
L 280.627489 66.093661 
L 283.188728 66.268826 
L 285.749968 66.465368 
L 288.311207 66.684603 
L 290.872447 66.923315 
L 293.433686 67.174366 
L 295.994926 67.42799 
L 298.556166 67.67348 
L 301.117405 67.900905 
L 303.678645 68.102513 
L 306.239884 68.273559 
L 308.801124 68.412494 
L 311.362363 68.520584 
L 313.923603 68.601163 
L 316.484842 68.658747 
L 319.046082 68.69821 
L 321.607321 68.724156 
L 324.168561 68.740525 
L 326.729801 68.750439 
" style="fill:none;stroke:#471365;stroke-linecap:round;stroke-width:1.2;"/>
   </g>
   <g id="patch_18">
    <path d="M 46.543 68.762857 
L 353.353886 68.762857 
" style="fill:none;stroke:#262626;stroke-linecap:square;stroke-linejoin:miter;"/>
   </g>
  </g>
  <g id="axes_3">
   <g id="patch_19">
    <path d="M 363.933571 390.332 
L 416.832 390.332 
L 416.832 79.481829 
L 363.933571 79.481829 
z
" style="fill:#ffffff;"/>
   </g>
   <g id="matplotlib.axis_5">
    <g id="xtick_17"/>
    <g id="xtick_18"/>
   </g>
   <g id="matplotlib.axis_6">
    <g id="ytick_11">
     <g id="line2d_28">
      <g>
       <use style="fill:#262626;stroke:#262626;" x="363.933571" xlink:href="#me73536c1c2" y="359.642851"/>
      </g>
     </g>
    </g>
    <g id="ytick_12">
     <g id="line2d_29">
      <g>
       <use style="fill:#262626;stroke:#262626;" x="363.933571" xlink:href="#me73536c1c2" y="319.26494"/>
      </g>
     </g>
    </g>
    <g id="ytick_13">
     <g id="line2d_30">
      <g>
       <use style="fill:#262626;stroke:#262626;" x="363.933571" xlink:href="#me73536c1c2" y="278.887028"/>
      </g>
     </g>
    </g>
    <g id="ytick_14">
     <g id="line2d_31">
      <g>
       <use style="fill:#262626;stroke:#262626;" x="363.933571" xlink:href="#me73536c1c2" y="238.509117"/>
      </g>
     </g>
    </g>
    <g id="ytick_15">
     <g id="line2d_32">
      <g>
       <use style="fill:#262626;stroke:#262626;" x="363.933571" xlink:href="#me73536c1c2" y="198.131206"/>
      </g>
     </g>
    </g>
    <g id="ytick_16">
     <g id="line2d_33">
      <g>
       <use style="fill:#262626;stroke:#262626;" x="363.933571" xlink:href="#me73536c1c2" y="157.753294"/>
      </g>
     </g>
    </g>
    <g id="ytick_17">
     <g id="line2d_34">
      <g>
       <use style="fill:#262626;stroke:#262626;" x="363.933571" xlink:href="#me73536c1c2" y="117.375383"/>
      </g>
     </g>
    </g>
   </g>
   <g id="patch_20">
    <path clip-path="url(#p63bd022430)" d="M 363.933571 340.854913 
L 364.663708 340.854913 
L 364.663708 327.611413 
L 363.933571 327.611413 
z
" style="fill:#471365;opacity:0.4;stroke:#ffffff;stroke-linejoin:miter;stroke-width:0.8;"/>
   </g>
   <g id="patch_21">
    <path clip-path="url(#p63bd022430)" d="M 363.933571 327.611413 
L 363.933571 327.611413 
L 363.933571 314.367913 
L 363.933571 314.367913 
z
" style="fill:#471365;opacity:0.4;stroke:#ffffff;stroke-linejoin:miter;stroke-width:0.8;"/>
   </g>
   <g id="patch_22">
    <path clip-path="url(#p63bd022430)" d="M 363.933571 314.367913 
L 363.933571 314.367913 
L 363.933571 301.124413 
L 363.933571 301.124413 
z
" style="fill:#471365;opacity:0.4;stroke:#ffffff;stroke-linejoin:miter;stroke-width:0.8;"/>
   </g>
   <g id="patch_23">
    <path clip-path="url(#p63bd022430)" d="M 363.933571 301.124413 
L 363.933571 301.124413 
L 363.933571 287.880913 
L 363.933571 287.880913 
z
" style="fill:#471365;opacity:0.4;stroke:#ffffff;stroke-linejoin:miter;stroke-width:0.8;"/>
   </g>
   <g id="patch_24">
    <path clip-path="url(#p63bd022430)" d="M 363.933571 287.880913 
L 364.663708 287.880913 
L 364.663708 274.637414 
L 363.933571 274.637414 
z
" style="fill:#471365;opacity:0.4;stroke:#ffffff;stroke-linejoin:miter;stroke-width:0.8;"/>
   </g>
   <g id="patch_25">
    <path clip-path="url(#p63bd022430)" d="M 363.933571 274.637414 
L 365.393846 274.637414 
L 365.393846 261.393914 
L 363.933571 261.393914 
z
" style="fill:#471365;opacity:0.4;stroke:#ffffff;stroke-linejoin:miter;stroke-width:0.8;"/>
   </g>
   <g id="patch_26">
    <path clip-path="url(#p63bd022430)" d="M 363.933571 261.393914 
L 366.85412 261.393914 
L 366.85412 248.150414 
L 363.933571 248.150414 
z
" style="fill:#471365;opacity:0.4;stroke:#ffffff;stroke-linejoin:miter;stroke-width:0.8;"/>
   </g>
   <g id="patch_27">
    <path clip-path="url(#p63bd022430)" d="M 363.933571 248.150414 
L 366.85412 248.150414 
L 366.85412 234.906914 
L 363.933571 234.906914 
z
" style="fill:#471365;opacity:0.4;stroke:#ffffff;stroke-linejoin:miter;stroke-width:0.8;"/>
   </g>
   <g id="patch_28">
    <path clip-path="url(#p63bd022430)" d="M 363.933571 234.906914 
L 367.584257 234.906914 
L 367.584257 221.663415 
L 363.933571 221.663415 
z
" style="fill:#471365;opacity:0.4;stroke:#ffffff;stroke-linejoin:miter;stroke-width:0.8;"/>
   </g>
   <g id="patch_29">
    <path clip-path="url(#p63bd022430)" d="M 363.933571 221.663415 
L 367.584257 221.663415 
L 367.584257 208.419915 
L 363.933571 208.419915 
z
" style="fill:#471365;opacity:0.4;stroke:#ffffff;stroke-linejoin:miter;stroke-width:0.8;"/>
   </g>
   <g id="patch_30">
    <path clip-path="url(#p63bd022430)" d="M 363.933571 208.419915 
L 370.504805 208.419915 
L 370.504805 195.176415 
L 363.933571 195.176415 
z
" style="fill:#471365;opacity:0.4;stroke:#ffffff;stroke-linejoin:miter;stroke-width:0.8;"/>
   </g>
   <g id="patch_31">
    <path clip-path="url(#p63bd022430)" d="M 363.933571 195.176415 
L 377.806175 195.176415 
L 377.806175 181.932915 
L 363.933571 181.932915 
z
" style="fill:#471365;opacity:0.4;stroke:#ffffff;stroke-linejoin:miter;stroke-width:0.8;"/>
   </g>
   <g id="patch_32">
    <path clip-path="url(#p63bd022430)" d="M 363.933571 181.932915 
L 379.266449 181.932915 
L 379.266449 168.689415 
L 363.933571 168.689415 
z
" style="fill:#471365;opacity:0.4;stroke:#ffffff;stroke-linejoin:miter;stroke-width:0.8;"/>
   </g>
   <g id="patch_33">
    <path clip-path="url(#p63bd022430)" d="M 363.933571 168.689415 
L 385.107546 168.689415 
L 385.107546 155.445916 
L 363.933571 155.445916 
z
" style="fill:#471365;opacity:0.4;stroke:#ffffff;stroke-linejoin:miter;stroke-width:0.8;"/>
   </g>
   <g id="patch_34">
    <path clip-path="url(#p63bd022430)" d="M 363.933571 155.445916 
L 393.86919 155.445916 
L 393.86919 142.202416 
L 363.933571 142.202416 
z
" style="fill:#471365;opacity:0.4;stroke:#ffffff;stroke-linejoin:miter;stroke-width:0.8;"/>
   </g>
   <g id="patch_35">
    <path clip-path="url(#p63bd022430)" d="M 363.933571 142.202416 
L 414.313027 142.202416 
L 414.313027 128.958916 
L 363.933571 128.958916 
z
" style="fill:#471365;opacity:0.4;stroke:#ffffff;stroke-linejoin:miter;stroke-width:0.8;"/>
   </g>
   <g id="line2d_35">
    <path clip-path="url(#p63bd022430)" d="M 363.937278 376.202447 
L 363.940993 373.347992 
L 363.947585 370.493536 
L 363.958533 367.639081 
L 363.975511 364.784626 
L 364.000039 361.930171 
L 364.032934 359.075716 
L 364.073681 356.22126 
L 364.119928 353.366805 
L 364.167377 350.51235 
L 364.210265 347.657895 
L 364.242442 344.80344 
L 364.258801 341.948984 
L 364.256607 339.094529 
L 364.236252 336.240074 
L 364.201163 333.385619 
L 364.156909 330.531164 
L 364.109839 327.676708 
L 364.065771 324.822253 
L 364.029121 321.967798 
L 364.002656 319.113343 
L 363.987773 316.258888 
L 363.985019 313.404432 
L 363.994528 310.549977 
L 364.01615 307.695522 
L 364.049246 304.841067 
L 364.09232 301.986612 
L 364.142801 299.132156 
L 364.197307 296.277701 
L 364.252535 293.423246 
L 364.306642 290.568791 
L 364.360631 287.714336 
L 364.419079 284.85988 
L 364.489663 282.005425 
L 364.581373 279.15097 
L 364.701867 276.296515 
L 364.854912 273.44206 
L 365.038919 270.587604 
L 365.247181 267.733149 
L 365.469698 264.878694 
L 365.695838 262.024239 
L 365.916751 259.169783 
L 366.126736 256.315328 
L 366.323362 253.460873 
L 366.506716 250.606418 
L 366.678431 247.751963 
L 366.840963 244.897507 
L 366.997197 242.043052 
L 367.150173 239.188597 
L 367.30272 236.334142 
L 367.457072 233.479687 
L 367.614863 230.625231 
L 367.777877 227.770776 
L 367.949651 224.916321 
L 368.137458 222.061866 
L 368.353821 219.207411 
L 368.616699 216.352955 
L 368.94792 213.4985 
L 369.370104 210.644045 
L 369.902784 207.78959 
L 370.558595 204.935135 
L 371.340142 202.080679 
L 372.237926 199.226224 
L 373.229644 196.371769 
L 374.281477 193.517314 
L 375.352139 190.662859 
L 376.400166 187.808403 
L 377.39375 184.953948 
L 378.32082 182.099493 
L 379.195908 179.245038 
L 380.060573 176.390583 
L 380.976037 173.536127 
L 382.009602 170.681672 
L 383.218797 167.827217 
L 384.637787 164.972762 
L 386.26894 162.118307 
L 388.079613 159.263851 
L 390.001868 156.409396 
L 391.932638 153.554941 
L 393.733917 150.700486 
L 395.235804 147.846031 
L 396.247218 144.991575 
L 396.578113 142.13712 
L 396.072645 139.282665 
L 394.646684 136.42821 
L 392.318396 133.573755 
L 389.220144 130.719299 
L 385.584686 127.864844 
L 381.70707 125.010389 
L 377.892096 122.155934 
L 374.402166 119.301479 
L 371.419485 116.447023 
L 369.030787 113.592568 
L 367.234681 110.738113 
L 365.965003 107.883658 
L 365.120418 105.029203 
L 364.591414 102.174747 
L 364.27928 99.320292 
L 364.105727 96.465837 
L 364.01477 93.611382 
" style="fill:none;stroke:#471365;stroke-linecap:round;stroke-width:1.2;"/>
   </g>
   <g id="patch_36">
    <path d="M 363.933571 390.332 
L 363.933571 79.481829 
" style="fill:none;stroke:#262626;stroke-linecap:square;stroke-linejoin:miter;"/>
   </g>
  </g>
 </g>
 <defs>
  <clipPath id="p640dbcecea">
   <rect height="310.850171" width="306.810886" x="46.543" y="79.481829"/>
  </clipPath>
  <clipPath id="p0171389859">
   <rect height="53.594857" width="306.810886" x="46.543" y="15.168"/>
  </clipPath>
  <clipPath id="p63bd022430">
   <rect height="310.850171" width="52.898429" x="363.933571" y="79.481829"/>
  </clipPath>
 </defs>
</svg>
