<?xml version="1.0" encoding="utf-8" standalone="no"?>
<!DOCTYPE svg PUBLIC "-//W3C//DTD SVG 1.1//EN"
  "http://www.w3.org/Graphics/SVG/1.1/DTD/svg11.dtd">
<!-- Created with matplotlib (http://matplotlib.org/) -->
<svg height="432pt" version="1.1" viewBox="0 0 432 432" width="432pt" xmlns="http://www.w3.org/2000/svg" xmlns:xlink="http://www.w3.org/1999/xlink">
 <defs>
  <style type="text/css">
*{stroke-linecap:butt;stroke-linejoin:round;}
  </style>
 </defs>
 <g id="figure_1">
  <g id="patch_1">
   <path d="M 0 432 
L 432 432 
L 432 0 
L 0 0 
z
" style="fill:#ffffff;"/>
  </g>
  <g id="axes_1">
   <g id="patch_2">
    <path d="M 46.543 390.332 
L 353.353886 390.332 
L 353.353886 79.481829 
L 46.543 79.481829 
z
" style="fill:#ffffff;"/>
   </g>
   <g id="matplotlib.axis_1">
    <g id="xtick_1">
     <g id="line2d_1">
      <defs>
       <path d="M 0 0 
L 0 4.8 
" id="m48e530908a" style="stroke:#262626;"/>
      </defs>
      <g>
       <use style="fill:#262626;stroke:#262626;" x="79.564277" xlink:href="#m48e530908a" y="390.332"/>
      </g>
     </g>
     <g id="text_1">
      <!-- 0 -->
      <defs>
       <path d="M 31.78125 66.40625 
Q 24.171875 66.40625 20.328125 58.90625 
Q 16.5 51.421875 16.5 36.375 
Q 16.5 21.390625 20.328125 13.890625 
Q 24.171875 6.390625 31.78125 6.390625 
Q 39.453125 6.390625 43.28125 13.890625 
Q 47.125 21.390625 47.125 36.375 
Q 47.125 51.421875 43.28125 58.90625 
Q 39.453125 66.40625 31.78125 66.40625 
z
M 31.78125 74.21875 
Q 44.046875 74.21875 50.515625 64.515625 
Q 56.984375 54.828125 56.984375 36.375 
Q 56.984375 17.96875 50.515625 8.265625 
Q 44.046875 -1.421875 31.78125 -1.421875 
Q 19.53125 -1.421875 13.0625 8.265625 
Q 6.59375 17.96875 6.59375 36.375 
Q 6.59375 54.828125 13.0625 64.515625 
Q 19.53125 74.21875 31.78125 74.21875 
z
" id="DejaVuSans-30"/>
      </defs>
      <g style="fill:#262626;" transform="translate(76.764777 405.318625)scale(0.088 -0.088)">
       <use xlink:href="#DejaVuSans-30"/>
      </g>
     </g>
    </g>
    <g id="xtick_2">
     <g id="line2d_2">
      <g>
       <use style="fill:#262626;stroke:#262626;" x="133.07274" xlink:href="#m48e530908a" y="390.332"/>
      </g>
     </g>
     <g id="text_2">
      <!-- 2 -->
      <defs>
       <path d="M 19.1875 8.296875 
L 53.609375 8.296875 
L 53.609375 0 
L 7.328125 0 
L 7.328125 8.296875 
Q 12.9375 14.109375 22.625 23.890625 
Q 32.328125 33.6875 34.8125 36.53125 
Q 39.546875 41.84375 41.421875 45.53125 
Q 43.3125 49.21875 43.3125 52.78125 
Q 43.3125 58.59375 39.234375 62.25 
Q 35.15625 65.921875 28.609375 65.921875 
Q 23.96875 65.921875 18.8125 64.3125 
Q 13.671875 62.703125 7.8125 59.421875 
L 7.8125 69.390625 
Q 13.765625 71.78125 18.9375 73 
Q 24.125 74.21875 28.421875 74.21875 
Q 39.75 74.21875 46.484375 68.546875 
Q 53.21875 62.890625 53.21875 53.421875 
Q 53.21875 48.921875 51.53125 44.890625 
Q 49.859375 40.875 45.40625 35.40625 
Q 44.1875 33.984375 37.640625 27.21875 
Q 31.109375 20.453125 19.1875 8.296875 
z
" id="DejaVuSans-32"/>
      </defs>
      <g style="fill:#262626;" transform="translate(130.27324 405.318625)scale(0.088 -0.088)">
       <use xlink:href="#DejaVuSans-32"/>
      </g>
     </g>
    </g>
    <g id="xtick_3">
     <g id="line2d_3">
      <g>
       <use style="fill:#262626;stroke:#262626;" x="186.581202" xlink:href="#m48e530908a" y="390.332"/>
      </g>
     </g>
     <g id="text_3">
      <!-- 4 -->
      <defs>
       <path d="M 37.796875 64.3125 
L 12.890625 25.390625 
L 37.796875 25.390625 
z
M 35.203125 72.90625 
L 47.609375 72.90625 
L 47.609375 25.390625 
L 58.015625 25.390625 
L 58.015625 17.1875 
L 47.609375 17.1875 
L 47.609375 0 
L 37.796875 0 
L 37.796875 17.1875 
L 4.890625 17.1875 
L 4.890625 26.703125 
z
" id="DejaVuSans-34"/>
      </defs>
      <g style="fill:#262626;" transform="translate(183.781702 405.318625)scale(0.088 -0.088)">
       <use xlink:href="#DejaVuSans-34"/>
      </g>
     </g>
    </g>
    <g id="xtick_4">
     <g id="line2d_4">
      <g>
       <use style="fill:#262626;stroke:#262626;" x="240.089665" xlink:href="#m48e530908a" y="390.332"/>
      </g>
     </g>
     <g id="text_4">
      <!-- 6 -->
      <defs>
       <path d="M 33.015625 40.375 
Q 26.375 40.375 22.484375 35.828125 
Q 18.609375 31.296875 18.609375 23.390625 
Q 18.609375 15.53125 22.484375 10.953125 
Q 26.375 6.390625 33.015625 6.390625 
Q 39.65625 6.390625 43.53125 10.953125 
Q 47.40625 15.53125 47.40625 23.390625 
Q 47.40625 31.296875 43.53125 35.828125 
Q 39.65625 40.375 33.015625 40.375 
z
M 52.59375 71.296875 
L 52.59375 62.3125 
Q 48.875 64.0625 45.09375 64.984375 
Q 41.3125 65.921875 37.59375 65.921875 
Q 27.828125 65.921875 22.671875 59.328125 
Q 17.53125 52.734375 16.796875 39.40625 
Q 19.671875 43.65625 24.015625 45.921875 
Q 28.375 48.1875 33.59375 48.1875 
Q 44.578125 48.1875 50.953125 41.515625 
Q 57.328125 34.859375 57.328125 23.390625 
Q 57.328125 12.15625 50.6875 5.359375 
Q 44.046875 -1.421875 33.015625 -1.421875 
Q 20.359375 -1.421875 13.671875 8.265625 
Q 6.984375 17.96875 6.984375 36.375 
Q 6.984375 53.65625 15.1875 63.9375 
Q 23.390625 74.21875 37.203125 74.21875 
Q 40.921875 74.21875 44.703125 73.484375 
Q 48.484375 72.75 52.59375 71.296875 
z
" id="DejaVuSans-36"/>
      </defs>
      <g style="fill:#262626;" transform="translate(237.290165 405.318625)scale(0.088 -0.088)">
       <use xlink:href="#DejaVuSans-36"/>
      </g>
     </g>
    </g>
    <g id="xtick_5">
     <g id="line2d_5">
      <g>
       <use style="fill:#262626;stroke:#262626;" x="293.598128" xlink:href="#m48e530908a" y="390.332"/>
      </g>
     </g>
     <g id="text_5">
      <!-- 8 -->
      <defs>
       <path d="M 31.78125 34.625 
Q 24.75 34.625 20.71875 30.859375 
Q 16.703125 27.09375 16.703125 20.515625 
Q 16.703125 13.921875 20.71875 10.15625 
Q 24.75 6.390625 31.78125 6.390625 
Q 38.8125 6.390625 42.859375 10.171875 
Q 46.921875 13.96875 46.921875 20.515625 
Q 46.921875 27.09375 42.890625 30.859375 
Q 38.875 34.625 31.78125 34.625 
z
M 21.921875 38.8125 
Q 15.578125 40.375 12.03125 44.71875 
Q 8.5 49.078125 8.5 55.328125 
Q 8.5 64.0625 14.71875 69.140625 
Q 20.953125 74.21875 31.78125 74.21875 
Q 42.671875 74.21875 48.875 69.140625 
Q 55.078125 64.0625 55.078125 55.328125 
Q 55.078125 49.078125 51.53125 44.71875 
Q 48 40.375 41.703125 38.8125 
Q 48.828125 37.15625 52.796875 32.3125 
Q 56.78125 27.484375 56.78125 20.515625 
Q 56.78125 9.90625 50.3125 4.234375 
Q 43.84375 -1.421875 31.78125 -1.421875 
Q 19.734375 -1.421875 13.25 4.234375 
Q 6.78125 9.90625 6.78125 20.515625 
Q 6.78125 27.484375 10.78125 32.3125 
Q 14.796875 37.15625 21.921875 38.8125 
z
M 18.3125 54.390625 
Q 18.3125 48.734375 21.84375 45.5625 
Q 25.390625 42.390625 31.78125 42.390625 
Q 38.140625 42.390625 41.71875 45.5625 
Q 45.3125 48.734375 45.3125 54.390625 
Q 45.3125 60.0625 41.71875 63.234375 
Q 38.140625 66.40625 31.78125 66.40625 
Q 25.390625 66.40625 21.84375 63.234375 
Q 18.3125 60.0625 18.3125 54.390625 
z
" id="DejaVuSans-38"/>
      </defs>
      <g style="fill:#262626;" transform="translate(290.798628 405.318625)scale(0.088 -0.088)">
       <use xlink:href="#DejaVuSans-38"/>
      </g>
     </g>
    </g>
    <g id="xtick_6">
     <g id="line2d_6">
      <g>
       <use style="fill:#262626;stroke:#262626;" x="347.106591" xlink:href="#m48e530908a" y="390.332"/>
      </g>
     </g>
     <g id="text_6">
      <!-- 10 -->
      <defs>
       <path d="M 12.40625 8.296875 
L 28.515625 8.296875 
L 28.515625 63.921875 
L 10.984375 60.40625 
L 10.984375 69.390625 
L 28.421875 72.90625 
L 38.28125 72.90625 
L 38.28125 8.296875 
L 54.390625 8.296875 
L 54.390625 0 
L 12.40625 0 
z
" id="DejaVuSans-31"/>
      </defs>
      <g style="fill:#262626;" transform="translate(341.507591 405.318625)scale(0.088 -0.088)">
       <use xlink:href="#DejaVuSans-31"/>
       <use x="63.623047" xlink:href="#DejaVuSans-30"/>
      </g>
     </g>
    </g>
    <g id="text_7">
     <!-- g(k-1) -->
     <defs>
      <path d="M 45.40625 27.984375 
Q 45.40625 37.75 41.375 43.109375 
Q 37.359375 48.484375 30.078125 48.484375 
Q 22.859375 48.484375 18.828125 43.109375 
Q 14.796875 37.75 14.796875 27.984375 
Q 14.796875 18.265625 18.828125 12.890625 
Q 22.859375 7.515625 30.078125 7.515625 
Q 37.359375 7.515625 41.375 12.890625 
Q 45.40625 18.265625 45.40625 27.984375 
z
M 54.390625 6.78125 
Q 54.390625 -7.171875 48.1875 -13.984375 
Q 42 -20.796875 29.203125 -20.796875 
Q 24.46875 -20.796875 20.265625 -20.09375 
Q 16.0625 -19.390625 12.109375 -17.921875 
L 12.109375 -9.1875 
Q 16.0625 -11.328125 19.921875 -12.34375 
Q 23.78125 -13.375 27.78125 -13.375 
Q 36.625 -13.375 41.015625 -8.765625 
Q 45.40625 -4.15625 45.40625 5.171875 
L 45.40625 9.625 
Q 42.625 4.78125 38.28125 2.390625 
Q 33.9375 0 27.875 0 
Q 17.828125 0 11.671875 7.65625 
Q 5.515625 15.328125 5.515625 27.984375 
Q 5.515625 40.671875 11.671875 48.328125 
Q 17.828125 56 27.875 56 
Q 33.9375 56 38.28125 53.609375 
Q 42.625 51.21875 45.40625 46.390625 
L 45.40625 54.6875 
L 54.390625 54.6875 
z
" id="DejaVuSans-67"/>
      <path d="M 31 75.875 
Q 24.46875 64.65625 21.28125 53.65625 
Q 18.109375 42.671875 18.109375 31.390625 
Q 18.109375 20.125 21.3125 9.0625 
Q 24.515625 -2 31 -13.1875 
L 23.1875 -13.1875 
Q 15.875 -1.703125 12.234375 9.375 
Q 8.59375 20.453125 8.59375 31.390625 
Q 8.59375 42.28125 12.203125 53.3125 
Q 15.828125 64.359375 23.1875 75.875 
z
" id="DejaVuSans-28"/>
      <path d="M 9.078125 75.984375 
L 18.109375 75.984375 
L 18.109375 31.109375 
L 44.921875 54.6875 
L 56.390625 54.6875 
L 27.390625 29.109375 
L 57.625 0 
L 45.90625 0 
L 18.109375 26.703125 
L 18.109375 0 
L 9.078125 0 
z
" id="DejaVuSans-6b"/>
      <path d="M 4.890625 31.390625 
L 31.203125 31.390625 
L 31.203125 23.390625 
L 4.890625 23.390625 
z
" id="DejaVuSans-2d"/>
      <path d="M 8.015625 75.875 
L 15.828125 75.875 
Q 23.140625 64.359375 26.78125 53.3125 
Q 30.421875 42.28125 30.421875 31.390625 
Q 30.421875 20.453125 26.78125 9.375 
Q 23.140625 -1.703125 15.828125 -13.1875 
L 8.015625 -13.1875 
Q 14.5 -2 17.703125 9.0625 
Q 20.90625 20.125 20.90625 31.390625 
Q 20.90625 42.671875 17.703125 53.65625 
Q 14.5 64.65625 8.015625 75.875 
z
" id="DejaVuSans-29"/>
     </defs>
     <g style="fill:#262626;" transform="translate(185.590443 418.44325)scale(0.096 -0.096)">
      <use xlink:href="#DejaVuSans-67"/>
      <use x="63.476562" xlink:href="#DejaVuSans-28"/>
      <use x="102.490234" xlink:href="#DejaVuSans-6b"/>
      <use x="160.400391" xlink:href="#DejaVuSans-2d"/>
      <use x="196.484375" xlink:href="#DejaVuSans-31"/>
      <use x="260.107422" xlink:href="#DejaVuSans-29"/>
     </g>
    </g>
   </g>
   <g id="matplotlib.axis_2">
    <g id="ytick_1">
     <g id="line2d_7">
      <defs>
       <path d="M 0 0 
L -4.8 0 
" id="m5dacf0c4a3" style="stroke:#262626;"/>
      </defs>
      <g>
       <use style="fill:#262626;stroke:#262626;" x="46.543" xlink:href="#m5dacf0c4a3" y="366.750837"/>
      </g>
     </g>
     <g id="text_8">
      <!-- −9.0 -->
      <defs>
       <path d="M 10.59375 35.5 
L 73.1875 35.5 
L 73.1875 27.203125 
L 10.59375 27.203125 
z
" id="DejaVuSans-2212"/>
       <path d="M 10.984375 1.515625 
L 10.984375 10.5 
Q 14.703125 8.734375 18.5 7.8125 
Q 22.3125 6.890625 25.984375 6.890625 
Q 35.75 6.890625 40.890625 13.453125 
Q 46.046875 20.015625 46.78125 33.40625 
Q 43.953125 29.203125 39.59375 26.953125 
Q 35.25 24.703125 29.984375 24.703125 
Q 19.046875 24.703125 12.671875 31.3125 
Q 6.296875 37.9375 6.296875 49.421875 
Q 6.296875 60.640625 12.9375 67.421875 
Q 19.578125 74.21875 30.609375 74.21875 
Q 43.265625 74.21875 49.921875 64.515625 
Q 56.59375 54.828125 56.59375 36.375 
Q 56.59375 19.140625 48.40625 8.859375 
Q 40.234375 -1.421875 26.421875 -1.421875 
Q 22.703125 -1.421875 18.890625 -0.6875 
Q 15.09375 0.046875 10.984375 1.515625 
z
M 30.609375 32.421875 
Q 37.25 32.421875 41.125 36.953125 
Q 45.015625 41.5 45.015625 49.421875 
Q 45.015625 57.28125 41.125 61.84375 
Q 37.25 66.40625 30.609375 66.40625 
Q 23.96875 66.40625 20.09375 61.84375 
Q 16.21875 57.28125 16.21875 49.421875 
Q 16.21875 41.5 20.09375 36.953125 
Q 23.96875 32.421875 30.609375 32.421875 
z
" id="DejaVuSans-39"/>
       <path d="M 10.6875 12.40625 
L 21 12.40625 
L 21 0 
L 10.6875 0 
z
" id="DejaVuSans-2e"/>
      </defs>
      <g style="fill:#262626;" transform="translate(16.874125 370.094149)scale(0.088 -0.088)">
       <use xlink:href="#DejaVuSans-2212"/>
       <use x="83.789062" xlink:href="#DejaVuSans-39"/>
       <use x="147.412109" xlink:href="#DejaVuSans-2e"/>
       <use x="179.199219" xlink:href="#DejaVuSans-30"/>
      </g>
     </g>
    </g>
    <g id="ytick_2">
     <g id="line2d_8">
      <g>
       <use style="fill:#262626;stroke:#262626;" x="46.543" xlink:href="#m5dacf0c4a3" y="326.114558"/>
      </g>
     </g>
     <g id="text_9">
      <!-- −8.5 -->
      <defs>
       <path d="M 10.796875 72.90625 
L 49.515625 72.90625 
L 49.515625 64.59375 
L 19.828125 64.59375 
L 19.828125 46.734375 
Q 21.96875 47.46875 24.109375 47.828125 
Q 26.265625 48.1875 28.421875 48.1875 
Q 40.625 48.1875 47.75 41.5 
Q 54.890625 34.8125 54.890625 23.390625 
Q 54.890625 11.625 47.5625 5.09375 
Q 40.234375 -1.421875 26.90625 -1.421875 
Q 22.3125 -1.421875 17.546875 -0.640625 
Q 12.796875 0.140625 7.71875 1.703125 
L 7.71875 11.625 
Q 12.109375 9.234375 16.796875 8.0625 
Q 21.484375 6.890625 26.703125 6.890625 
Q 35.15625 6.890625 40.078125 11.328125 
Q 45.015625 15.765625 45.015625 23.390625 
Q 45.015625 31 40.078125 35.4375 
Q 35.15625 39.890625 26.703125 39.890625 
Q 22.75 39.890625 18.8125 39.015625 
Q 14.890625 38.140625 10.796875 36.28125 
z
" id="DejaVuSans-35"/>
      </defs>
      <g style="fill:#262626;" transform="translate(16.874125 329.457871)scale(0.088 -0.088)">
       <use xlink:href="#DejaVuSans-2212"/>
       <use x="83.789062" xlink:href="#DejaVuSans-38"/>
       <use x="147.412109" xlink:href="#DejaVuSans-2e"/>
       <use x="179.199219" xlink:href="#DejaVuSans-35"/>
      </g>
     </g>
    </g>
    <g id="ytick_3">
     <g id="line2d_9">
      <g>
       <use style="fill:#262626;stroke:#262626;" x="46.543" xlink:href="#m5dacf0c4a3" y="285.47828"/>
      </g>
     </g>
     <g id="text_10">
      <!-- −8.0 -->
      <g style="fill:#262626;" transform="translate(16.874125 288.821593)scale(0.088 -0.088)">
       <use xlink:href="#DejaVuSans-2212"/>
       <use x="83.789062" xlink:href="#DejaVuSans-38"/>
       <use x="147.412109" xlink:href="#DejaVuSans-2e"/>
       <use x="179.199219" xlink:href="#DejaVuSans-30"/>
      </g>
     </g>
    </g>
    <g id="ytick_4">
     <g id="line2d_10">
      <g>
       <use style="fill:#262626;stroke:#262626;" x="46.543" xlink:href="#m5dacf0c4a3" y="244.842002"/>
      </g>
     </g>
     <g id="text_11">
      <!-- −7.5 -->
      <defs>
       <path d="M 8.203125 72.90625 
L 55.078125 72.90625 
L 55.078125 68.703125 
L 28.609375 0 
L 18.3125 0 
L 43.21875 64.59375 
L 8.203125 64.59375 
z
" id="DejaVuSans-37"/>
      </defs>
      <g style="fill:#262626;" transform="translate(16.874125 248.185315)scale(0.088 -0.088)">
       <use xlink:href="#DejaVuSans-2212"/>
       <use x="83.789062" xlink:href="#DejaVuSans-37"/>
       <use x="147.412109" xlink:href="#DejaVuSans-2e"/>
       <use x="179.199219" xlink:href="#DejaVuSans-35"/>
      </g>
     </g>
    </g>
    <g id="ytick_5">
     <g id="line2d_11">
      <g>
       <use style="fill:#262626;stroke:#262626;" x="46.543" xlink:href="#m5dacf0c4a3" y="204.205724"/>
      </g>
     </g>
     <g id="text_12">
      <!-- −7.0 -->
      <g style="fill:#262626;" transform="translate(16.874125 207.549036)scale(0.088 -0.088)">
       <use xlink:href="#DejaVuSans-2212"/>
       <use x="83.789062" xlink:href="#DejaVuSans-37"/>
       <use x="147.412109" xlink:href="#DejaVuSans-2e"/>
       <use x="179.199219" xlink:href="#DejaVuSans-30"/>
      </g>
     </g>
    </g>
    <g id="ytick_6">
     <g id="line2d_12">
      <g>
       <use style="fill:#262626;stroke:#262626;" x="46.543" xlink:href="#m5dacf0c4a3" y="163.569446"/>
      </g>
     </g>
     <g id="text_13">
      <!-- −6.5 -->
      <g style="fill:#262626;" transform="translate(16.874125 166.912758)scale(0.088 -0.088)">
       <use xlink:href="#DejaVuSans-2212"/>
       <use x="83.789062" xlink:href="#DejaVuSans-36"/>
       <use x="147.412109" xlink:href="#DejaVuSans-2e"/>
       <use x="179.199219" xlink:href="#DejaVuSans-35"/>
      </g>
     </g>
    </g>
    <g id="ytick_7">
     <g id="line2d_13">
      <g>
       <use style="fill:#262626;stroke:#262626;" x="46.543" xlink:href="#m5dacf0c4a3" y="122.933168"/>
      </g>
     </g>
     <g id="text_14">
      <!-- −6.0 -->
      <g style="fill:#262626;" transform="translate(16.874125 126.27648)scale(0.088 -0.088)">
       <use xlink:href="#DejaVuSans-2212"/>
       <use x="83.789062" xlink:href="#DejaVuSans-36"/>
       <use x="147.412109" xlink:href="#DejaVuSans-2e"/>
       <use x="179.199219" xlink:href="#DejaVuSans-30"/>
      </g>
     </g>
    </g>
    <g id="ytick_8">
     <g id="line2d_14">
      <g>
       <use style="fill:#262626;stroke:#262626;" x="46.543" xlink:href="#m5dacf0c4a3" y="82.29689"/>
      </g>
     </g>
     <g id="text_15">
      <!-- −5.5 -->
      <g style="fill:#262626;" transform="translate(16.874125 85.640202)scale(0.088 -0.088)">
       <use xlink:href="#DejaVuSans-2212"/>
       <use x="83.789062" xlink:href="#DejaVuSans-35"/>
       <use x="147.412109" xlink:href="#DejaVuSans-2e"/>
       <use x="179.199219" xlink:href="#DejaVuSans-35"/>
      </g>
     </g>
    </g>
    <g id="text_16">
     <!-- log(p) -->
     <defs>
      <path d="M 9.421875 75.984375 
L 18.40625 75.984375 
L 18.40625 0 
L 9.421875 0 
z
" id="DejaVuSans-6c"/>
      <path d="M 30.609375 48.390625 
Q 23.390625 48.390625 19.1875 42.75 
Q 14.984375 37.109375 14.984375 27.296875 
Q 14.984375 17.484375 19.15625 11.84375 
Q 23.34375 6.203125 30.609375 6.203125 
Q 37.796875 6.203125 41.984375 11.859375 
Q 46.1875 17.53125 46.1875 27.296875 
Q 46.1875 37.015625 41.984375 42.703125 
Q 37.796875 48.390625 30.609375 48.390625 
z
M 30.609375 56 
Q 42.328125 56 49.015625 48.375 
Q 55.71875 40.765625 55.71875 27.296875 
Q 55.71875 13.875 49.015625 6.21875 
Q 42.328125 -1.421875 30.609375 -1.421875 
Q 18.84375 -1.421875 12.171875 6.21875 
Q 5.515625 13.875 5.515625 27.296875 
Q 5.515625 40.765625 12.171875 48.375 
Q 18.84375 56 30.609375 56 
z
" id="DejaVuSans-6f"/>
      <path d="M 18.109375 8.203125 
L 18.109375 -20.796875 
L 9.078125 -20.796875 
L 9.078125 54.6875 
L 18.109375 54.6875 
L 18.109375 46.390625 
Q 20.953125 51.265625 25.265625 53.625 
Q 29.59375 56 35.59375 56 
Q 45.5625 56 51.78125 48.09375 
Q 58.015625 40.1875 58.015625 27.296875 
Q 58.015625 14.40625 51.78125 6.484375 
Q 45.5625 -1.421875 35.59375 -1.421875 
Q 29.59375 -1.421875 25.265625 0.953125 
Q 20.953125 3.328125 18.109375 8.203125 
z
M 48.6875 27.296875 
Q 48.6875 37.203125 44.609375 42.84375 
Q 40.53125 48.484375 33.40625 48.484375 
Q 26.265625 48.484375 22.1875 42.84375 
Q 18.109375 37.203125 18.109375 27.296875 
Q 18.109375 17.390625 22.1875 11.75 
Q 26.265625 6.109375 33.40625 6.109375 
Q 40.53125 6.109375 44.609375 11.75 
Q 48.6875 17.390625 48.6875 27.296875 
z
" id="DejaVuSans-70"/>
     </defs>
     <g style="fill:#262626;" transform="translate(10.877625 249.017414)rotate(-90)scale(0.096 -0.096)">
      <use xlink:href="#DejaVuSans-6c"/>
      <use x="27.783203" xlink:href="#DejaVuSans-6f"/>
      <use x="88.964844" xlink:href="#DejaVuSans-67"/>
      <use x="152.441406" xlink:href="#DejaVuSans-28"/>
      <use x="191.455078" xlink:href="#DejaVuSans-70"/>
      <use x="254.931641" xlink:href="#DejaVuSans-29"/>
     </g>
    </g>
   </g>
   <g id="PathCollection_1">
    <defs>
     <path d="M 0 2.4 
C 0.636487 2.4 1.246992 2.147121 1.697056 1.697056 
C 2.147121 1.246992 2.4 0.636487 2.4 0 
C 2.4 -0.636487 2.147121 -1.246992 1.697056 -1.697056 
C 1.246992 -2.147121 0.636487 -2.4 0 -2.4 
C -0.636487 -2.4 -1.246992 -2.147121 -1.697056 -1.697056 
C -2.147121 -1.246992 -2.4 -0.636487 -2.4 0 
C -2.4 0.636487 -2.147121 1.246992 -1.697056 1.697056 
C -1.246992 2.147121 -0.636487 2.4 0 2.4 
z
" id="m3eb836d216" style="stroke:#471365;stroke-opacity:0.8;"/>
    </defs>
    <g clip-path="url(#p5ef13eae4a)">
     <use style="fill:#471365;fill-opacity:0.8;stroke:#471365;stroke-opacity:0.8;" x="158.439266" xlink:href="#m3eb836d216" y="132.938184"/>
     <use style="fill:#471365;fill-opacity:0.8;stroke:#471365;stroke-opacity:0.8;" x="185.797157" xlink:href="#m3eb836d216" y="184.275484"/>
     <use style="fill:#471365;fill-opacity:0.8;stroke:#471365;stroke-opacity:0.8;" x="146.419893" xlink:href="#m3eb836d216" y="184.092265"/>
     <use style="fill:#471365;fill-opacity:0.8;stroke:#471365;stroke-opacity:0.8;" x="169.146612" xlink:href="#m3eb836d216" y="152.796239"/>
     <use style="fill:#471365;fill-opacity:0.8;stroke:#471365;stroke-opacity:0.8;" x="199.395099" xlink:href="#m3eb836d216" y="215.468644"/>
     <use style="fill:#471365;fill-opacity:0.8;stroke:#471365;stroke-opacity:0.8;" x="198.312868" xlink:href="#m3eb836d216" y="171.995342"/>
     <use style="fill:#471365;fill-opacity:0.8;stroke:#471365;stroke-opacity:0.8;" x="119.680423" xlink:href="#m3eb836d216" y="138.989905"/>
     <use style="fill:#471365;fill-opacity:0.8;stroke:#471365;stroke-opacity:0.8;" x="136.554834" xlink:href="#m3eb836d216" y="161.863184"/>
     <use style="fill:#471365;fill-opacity:0.8;stroke:#471365;stroke-opacity:0.8;" x="177.365419" xlink:href="#m3eb836d216" y="174.500385"/>
     <use style="fill:#471365;fill-opacity:0.8;stroke:#471365;stroke-opacity:0.8;" x="175.561177" xlink:href="#m3eb836d216" y="144.139439"/>
     <use style="fill:#471365;fill-opacity:0.8;stroke:#471365;stroke-opacity:0.8;" x="154.705905" xlink:href="#m3eb836d216" y="155.840913"/>
     <use style="fill:#471365;fill-opacity:0.8;stroke:#471365;stroke-opacity:0.8;" x="172.392087" xlink:href="#m3eb836d216" y="139.053622"/>
     <use style="fill:#471365;fill-opacity:0.8;stroke:#471365;stroke-opacity:0.8;" x="122.883099" xlink:href="#m3eb836d216" y="133.906707"/>
     <use style="fill:#471365;fill-opacity:0.8;stroke:#471365;stroke-opacity:0.8;" x="221.275007" xlink:href="#m3eb836d216" y="130.732732"/>
     <use style="fill:#471365;fill-opacity:0.8;stroke:#471365;stroke-opacity:0.8;" x="125.658373" xlink:href="#m3eb836d216" y="140.612155"/>
     <use style="fill:#471365;fill-opacity:0.8;stroke:#471365;stroke-opacity:0.8;" x="163.186634" xlink:href="#m3eb836d216" y="143.469071"/>
     <use style="fill:#471365;fill-opacity:0.8;stroke:#471365;stroke-opacity:0.8;" x="128.967896" xlink:href="#m3eb836d216" y="145.448248"/>
     <use style="fill:#471365;fill-opacity:0.8;stroke:#471365;stroke-opacity:0.8;" x="133.822779" xlink:href="#m3eb836d216" y="132.727648"/>
     <use style="fill:#471365;fill-opacity:0.8;stroke:#471365;stroke-opacity:0.8;" x="148.699303" xlink:href="#m3eb836d216" y="252.493899"/>
     <use style="fill:#471365;fill-opacity:0.8;stroke:#471365;stroke-opacity:0.8;" x="139.308341" xlink:href="#m3eb836d216" y="178.320129"/>
     <use style="fill:#471365;fill-opacity:0.8;stroke:#471365;stroke-opacity:0.8;" x="219.984134" xlink:href="#m3eb836d216" y="154.455008"/>
     <use style="fill:#471365;fill-opacity:0.8;stroke:#471365;stroke-opacity:0.8;" x="141.649489" xlink:href="#m3eb836d216" y="199.357574"/>
     <use style="fill:#471365;fill-opacity:0.8;stroke:#471365;stroke-opacity:0.8;" x="146.44678" xlink:href="#m3eb836d216" y="145.204136"/>
     <use style="fill:#471365;fill-opacity:0.8;stroke:#471365;stroke-opacity:0.8;" x="119.911719" xlink:href="#m3eb836d216" y="130.844889"/>
     <use style="fill:#471365;fill-opacity:0.8;stroke:#471365;stroke-opacity:0.8;" x="122.41278" xlink:href="#m3eb836d216" y="133.131439"/>
     <use style="fill:#471365;fill-opacity:0.8;stroke:#471365;stroke-opacity:0.8;" x="206.107625" xlink:href="#m3eb836d216" y="137.155945"/>
     <use style="fill:#471365;fill-opacity:0.8;stroke:#471365;stroke-opacity:0.8;" x="126.786878" xlink:href="#m3eb836d216" y="135.250647"/>
     <use style="fill:#471365;fill-opacity:0.8;stroke:#471365;stroke-opacity:0.8;" x="131.454325" xlink:href="#m3eb836d216" y="137.394814"/>
     <use style="fill:#471365;fill-opacity:0.8;stroke:#471365;stroke-opacity:0.8;" x="129.308661" xlink:href="#m3eb836d216" y="135.626129"/>
     <use style="fill:#471365;fill-opacity:0.8;stroke:#471365;stroke-opacity:0.8;" x="203.484458" xlink:href="#m3eb836d216" y="197.502183"/>
     <use style="fill:#471365;fill-opacity:0.8;stroke:#471365;stroke-opacity:0.8;" x="152.377054" xlink:href="#m3eb836d216" y="178.557056"/>
     <use style="fill:#471365;fill-opacity:0.8;stroke:#471365;stroke-opacity:0.8;" x="131.454311" xlink:href="#m3eb836d216" y="178.208274"/>
     <use style="fill:#471365;fill-opacity:0.8;stroke:#471365;stroke-opacity:0.8;" x="221.563294" xlink:href="#m3eb836d216" y="178.133757"/>
     <use style="fill:#471365;fill-opacity:0.8;stroke:#471365;stroke-opacity:0.8;" x="230.874463" xlink:href="#m3eb836d216" y="156.772226"/>
     <use style="fill:#471365;fill-opacity:0.8;stroke:#471365;stroke-opacity:0.8;" x="155.694677" xlink:href="#m3eb836d216" y="169.727364"/>
     <use style="fill:#471365;fill-opacity:0.8;stroke:#471365;stroke-opacity:0.8;" x="134.361865" xlink:href="#m3eb836d216" y="183.978435"/>
     <use style="fill:#471365;fill-opacity:0.8;stroke:#471365;stroke-opacity:0.8;" x="222.749089" xlink:href="#m3eb836d216" y="148.681295"/>
     <use style="fill:#471365;fill-opacity:0.8;stroke:#471365;stroke-opacity:0.8;" x="168.890563" xlink:href="#m3eb836d216" y="150.237926"/>
     <use style="fill:#471365;fill-opacity:0.8;stroke:#471365;stroke-opacity:0.8;" x="136.795497" xlink:href="#m3eb836d216" y="161.969951"/>
     <use style="fill:#471365;fill-opacity:0.8;stroke:#471365;stroke-opacity:0.8;" x="168.054772" xlink:href="#m3eb836d216" y="212.19533"/>
     <use style="fill:#471365;fill-opacity:0.8;stroke:#471365;stroke-opacity:0.8;" x="190.867172" xlink:href="#m3eb836d216" y="274.34399"/>
     <use style="fill:#471365;fill-opacity:0.8;stroke:#471365;stroke-opacity:0.8;" x="137.731478" xlink:href="#m3eb836d216" y="152.944926"/>
     <use style="fill:#471365;fill-opacity:0.8;stroke:#471365;stroke-opacity:0.8;" x="169.682113" xlink:href="#m3eb836d216" y="144.708495"/>
     <use style="fill:#471365;fill-opacity:0.8;stroke:#471365;stroke-opacity:0.8;" x="123.960382" xlink:href="#m3eb836d216" y="147.377956"/>
     <use style="fill:#471365;fill-opacity:0.8;stroke:#471365;stroke-opacity:0.8;" x="177.506765" xlink:href="#m3eb836d216" y="168.583437"/>
     <use style="fill:#471365;fill-opacity:0.8;stroke:#471365;stroke-opacity:0.8;" x="159.332143" xlink:href="#m3eb836d216" y="244.987136"/>
     <use style="fill:#471365;fill-opacity:0.8;stroke:#471365;stroke-opacity:0.8;" x="164.420355" xlink:href="#m3eb836d216" y="186.31561"/>
     <use style="fill:#471365;fill-opacity:0.8;stroke:#471365;stroke-opacity:0.8;" x="139.427012" xlink:href="#m3eb836d216" y="161.038631"/>
     <use style="fill:#471365;fill-opacity:0.8;stroke:#471365;stroke-opacity:0.8;" x="149.835214" xlink:href="#m3eb836d216" y="189.322301"/>
     <use style="fill:#471365;fill-opacity:0.8;stroke:#471365;stroke-opacity:0.8;" x="142.722413" xlink:href="#m3eb836d216" y="179.728548"/>
     <use style="fill:#471365;fill-opacity:0.8;stroke:#471365;stroke-opacity:0.8;" x="153.213474" xlink:href="#m3eb836d216" y="191.646194"/>
     <use style="fill:#471365;fill-opacity:0.8;stroke:#471365;stroke-opacity:0.8;" x="190.46253" xlink:href="#m3eb836d216" y="132.76075"/>
     <use style="fill:#471365;fill-opacity:0.8;stroke:#471365;stroke-opacity:0.8;" x="151.038794" xlink:href="#m3eb836d216" y="152.274641"/>
     <use style="fill:#471365;fill-opacity:0.8;stroke:#471365;stroke-opacity:0.8;" x="236.861582" xlink:href="#m3eb836d216" y="182.363088"/>
     <use style="fill:#471365;fill-opacity:0.8;stroke:#471365;stroke-opacity:0.8;" x="139.178609" xlink:href="#m3eb836d216" y="171.836518"/>
     <use style="fill:#471365;fill-opacity:0.8;stroke:#471365;stroke-opacity:0.8;" x="138.014729" xlink:href="#m3eb836d216" y="163.237046"/>
     <use style="fill:#471365;fill-opacity:0.8;stroke:#471365;stroke-opacity:0.8;" x="122.382987" xlink:href="#m3eb836d216" y="141.652333"/>
     <use style="fill:#471365;fill-opacity:0.8;stroke:#471365;stroke-opacity:0.8;" x="244.655318" xlink:href="#m3eb836d216" y="137.205442"/>
     <use style="fill:#471365;fill-opacity:0.8;stroke:#471365;stroke-opacity:0.8;" x="285.150667" xlink:href="#m3eb836d216" y="170.854097"/>
     <use style="fill:#471365;fill-opacity:0.8;stroke:#471365;stroke-opacity:0.8;" x="132.629802" xlink:href="#m3eb836d216" y="140.651627"/>
     <use style="fill:#471365;fill-opacity:0.8;stroke:#471365;stroke-opacity:0.8;" x="264.581797" xlink:href="#m3eb836d216" y="136.261046"/>
     <use style="fill:#471365;fill-opacity:0.8;stroke:#471365;stroke-opacity:0.8;" x="158.60683" xlink:href="#m3eb836d216" y="143.217844"/>
     <use style="fill:#471365;fill-opacity:0.8;stroke:#471365;stroke-opacity:0.8;" x="142.050351" xlink:href="#m3eb836d216" y="146.827826"/>
     <use style="fill:#471365;fill-opacity:0.8;stroke:#471365;stroke-opacity:0.8;" x="228.523397" xlink:href="#m3eb836d216" y="235.352715"/>
     <use style="fill:#471365;fill-opacity:0.8;stroke:#471365;stroke-opacity:0.8;" x="158.746996" xlink:href="#m3eb836d216" y="147.166213"/>
     <use style="fill:#471365;fill-opacity:0.8;stroke:#471365;stroke-opacity:0.8;" x="157.044933" xlink:href="#m3eb836d216" y="159.092991"/>
     <use style="fill:#471365;fill-opacity:0.8;stroke:#471365;stroke-opacity:0.8;" x="129.904925" xlink:href="#m3eb836d216" y="149.612464"/>
     <use style="fill:#471365;fill-opacity:0.8;stroke:#471365;stroke-opacity:0.8;" x="145.276932" xlink:href="#m3eb836d216" y="145.564979"/>
     <use style="fill:#471365;fill-opacity:0.8;stroke:#471365;stroke-opacity:0.8;" x="140.060436" xlink:href="#m3eb836d216" y="147.694205"/>
     <use style="fill:#471365;fill-opacity:0.8;stroke:#471365;stroke-opacity:0.8;" x="114.746219" xlink:href="#m3eb836d216" y="136.106837"/>
     <use style="fill:#471365;fill-opacity:0.8;stroke:#471365;stroke-opacity:0.8;" x="138.500426" xlink:href="#m3eb836d216" y="159.933165"/>
     <use style="fill:#471365;fill-opacity:0.8;stroke:#471365;stroke-opacity:0.8;" x="144.893859" xlink:href="#m3eb836d216" y="200.763308"/>
     <use style="fill:#471365;fill-opacity:0.8;stroke:#471365;stroke-opacity:0.8;" x="126.050371" xlink:href="#m3eb836d216" y="158.946546"/>
     <use style="fill:#471365;fill-opacity:0.8;stroke:#471365;stroke-opacity:0.8;" x="135.434396" xlink:href="#m3eb836d216" y="168.12432"/>
     <use style="fill:#471365;fill-opacity:0.8;stroke:#471365;stroke-opacity:0.8;" x="153.946295" xlink:href="#m3eb836d216" y="165.046077"/>
     <use style="fill:#471365;fill-opacity:0.8;stroke:#471365;stroke-opacity:0.8;" x="201.960894" xlink:href="#m3eb836d216" y="142.436678"/>
     <use style="fill:#471365;fill-opacity:0.8;stroke:#471365;stroke-opacity:0.8;" x="128.242179" xlink:href="#m3eb836d216" y="179.769605"/>
     <use style="fill:#471365;fill-opacity:0.8;stroke:#471365;stroke-opacity:0.8;" x="168.080083" xlink:href="#m3eb836d216" y="131.275674"/>
     <use style="fill:#471365;fill-opacity:0.8;stroke:#471365;stroke-opacity:0.8;" x="236.11763" xlink:href="#m3eb836d216" y="195.081877"/>
     <use style="fill:#471365;fill-opacity:0.8;stroke:#471365;stroke-opacity:0.8;" x="184.287294" xlink:href="#m3eb836d216" y="208.658619"/>
     <use style="fill:#471365;fill-opacity:0.8;stroke:#471365;stroke-opacity:0.8;" x="148.738545" xlink:href="#m3eb836d216" y="173.173529"/>
     <use style="fill:#471365;fill-opacity:0.8;stroke:#471365;stroke-opacity:0.8;" x="146.654051" xlink:href="#m3eb836d216" y="191.147403"/>
     <use style="fill:#471365;fill-opacity:0.8;stroke:#471365;stroke-opacity:0.8;" x="173.675838" xlink:href="#m3eb836d216" y="135.530008"/>
     <use style="fill:#471365;fill-opacity:0.8;stroke:#471365;stroke-opacity:0.8;" x="261.404002" xlink:href="#m3eb836d216" y="227.233367"/>
     <use style="fill:#471365;fill-opacity:0.8;stroke:#471365;stroke-opacity:0.8;" x="142.902808" xlink:href="#m3eb836d216" y="187.032818"/>
     <use style="fill:#471365;fill-opacity:0.8;stroke:#471365;stroke-opacity:0.8;" x="193.889382" xlink:href="#m3eb836d216" y="137.35297"/>
     <use style="fill:#471365;fill-opacity:0.8;stroke:#471365;stroke-opacity:0.8;" x="197.800095" xlink:href="#m3eb836d216" y="139.595693"/>
     <use style="fill:#471365;fill-opacity:0.8;stroke:#471365;stroke-opacity:0.8;" x="142.610638" xlink:href="#m3eb836d216" y="197.82099"/>
     <use style="fill:#471365;fill-opacity:0.8;stroke:#471365;stroke-opacity:0.8;" x="187.647794" xlink:href="#m3eb836d216" y="130.805464"/>
     <use style="fill:#471365;fill-opacity:0.8;stroke:#471365;stroke-opacity:0.8;" x="129.037704" xlink:href="#m3eb836d216" y="160.698973"/>
     <use style="fill:#471365;fill-opacity:0.8;stroke:#471365;stroke-opacity:0.8;" x="120.463487" xlink:href="#m3eb836d216" y="144.253471"/>
     <use style="fill:#471365;fill-opacity:0.8;stroke:#471365;stroke-opacity:0.8;" x="158.976711" xlink:href="#m3eb836d216" y="129.833952"/>
     <use style="fill:#471365;fill-opacity:0.8;stroke:#471365;stroke-opacity:0.8;" x="127.296746" xlink:href="#m3eb836d216" y="136.224048"/>
     <use style="fill:#471365;fill-opacity:0.8;stroke:#471365;stroke-opacity:0.8;" x="147.497036" xlink:href="#m3eb836d216" y="152.836393"/>
     <use style="fill:#471365;fill-opacity:0.8;stroke:#471365;stroke-opacity:0.8;" x="148.223235" xlink:href="#m3eb836d216" y="150.498111"/>
     <use style="fill:#471365;fill-opacity:0.8;stroke:#471365;stroke-opacity:0.8;" x="156.840888" xlink:href="#m3eb836d216" y="171.983047"/>
     <use style="fill:#471365;fill-opacity:0.8;stroke:#471365;stroke-opacity:0.8;" x="253.481572" xlink:href="#m3eb836d216" y="131.249794"/>
     <use style="fill:#471365;fill-opacity:0.8;stroke:#471365;stroke-opacity:0.8;" x="252.493051" xlink:href="#m3eb836d216" y="340.229291"/>
     <use style="fill:#471365;fill-opacity:0.8;stroke:#471365;stroke-opacity:0.8;" x="217.004425" xlink:href="#m3eb836d216" y="182.886985"/>
     <use style="fill:#471365;fill-opacity:0.8;stroke:#471365;stroke-opacity:0.8;" x="183.122117" xlink:href="#m3eb836d216" y="129.584537"/>
     <use style="fill:#471365;fill-opacity:0.8;stroke:#471365;stroke-opacity:0.8;" x="149.623169" xlink:href="#m3eb836d216" y="166.883763"/>
     <use style="fill:#471365;fill-opacity:0.8;stroke:#471365;stroke-opacity:0.8;" x="131.201349" xlink:href="#m3eb836d216" y="136.125678"/>
     <use style="fill:#471365;fill-opacity:0.8;stroke:#471365;stroke-opacity:0.8;" x="189.229539" xlink:href="#m3eb836d216" y="208.764331"/>
     <use style="fill:#471365;fill-opacity:0.8;stroke:#471365;stroke-opacity:0.8;" x="173.669711" xlink:href="#m3eb836d216" y="161.484509"/>
     <use style="fill:#471365;fill-opacity:0.8;stroke:#471365;stroke-opacity:0.8;" x="197.923564" xlink:href="#m3eb836d216" y="134.68451"/>
     <use style="fill:#471365;fill-opacity:0.8;stroke:#471365;stroke-opacity:0.8;" x="164.756612" xlink:href="#m3eb836d216" y="194.155576"/>
     <use style="fill:#471365;fill-opacity:0.8;stroke:#471365;stroke-opacity:0.8;" x="135.673293" xlink:href="#m3eb836d216" y="148.461871"/>
     <use style="fill:#471365;fill-opacity:0.8;stroke:#471365;stroke-opacity:0.8;" x="227.923916" xlink:href="#m3eb836d216" y="137.444154"/>
     <use style="fill:#471365;fill-opacity:0.8;stroke:#471365;stroke-opacity:0.8;" x="178.250077" xlink:href="#m3eb836d216" y="160.799846"/>
     <use style="fill:#471365;fill-opacity:0.8;stroke:#471365;stroke-opacity:0.8;" x="199.977061" xlink:href="#m3eb836d216" y="189.432234"/>
     <use style="fill:#471365;fill-opacity:0.8;stroke:#471365;stroke-opacity:0.8;" x="196.228377" xlink:href="#m3eb836d216" y="164.643235"/>
     <use style="fill:#471365;fill-opacity:0.8;stroke:#471365;stroke-opacity:0.8;" x="165.90658" xlink:href="#m3eb836d216" y="223.212175"/>
     <use style="fill:#471365;fill-opacity:0.8;stroke:#471365;stroke-opacity:0.8;" x="175.994135" xlink:href="#m3eb836d216" y="200.071232"/>
     <use style="fill:#471365;fill-opacity:0.8;stroke:#471365;stroke-opacity:0.8;" x="175.563685" xlink:href="#m3eb836d216" y="164.107222"/>
     <use style="fill:#471365;fill-opacity:0.8;stroke:#471365;stroke-opacity:0.8;" x="181.167117" xlink:href="#m3eb836d216" y="154.479074"/>
     <use style="fill:#471365;fill-opacity:0.8;stroke:#471365;stroke-opacity:0.8;" x="129.93372" xlink:href="#m3eb836d216" y="134.054645"/>
     <use style="fill:#471365;fill-opacity:0.8;stroke:#471365;stroke-opacity:0.8;" x="183.60818" xlink:href="#m3eb836d216" y="130.313093"/>
     <use style="fill:#471365;fill-opacity:0.8;stroke:#471365;stroke-opacity:0.8;" x="281.425636" xlink:href="#m3eb836d216" y="149.817646"/>
     <use style="fill:#471365;fill-opacity:0.8;stroke:#471365;stroke-opacity:0.8;" x="160.388438" xlink:href="#m3eb836d216" y="131.694179"/>
     <use style="fill:#471365;fill-opacity:0.8;stroke:#471365;stroke-opacity:0.8;" x="197.830999" xlink:href="#m3eb836d216" y="240.644551"/>
     <use style="fill:#471365;fill-opacity:0.8;stroke:#471365;stroke-opacity:0.8;" x="160.898969" xlink:href="#m3eb836d216" y="130.597776"/>
     <use style="fill:#471365;fill-opacity:0.8;stroke:#471365;stroke-opacity:0.8;" x="128.625038" xlink:href="#m3eb836d216" y="149.162075"/>
     <use style="fill:#471365;fill-opacity:0.8;stroke:#471365;stroke-opacity:0.8;" x="169.374091" xlink:href="#m3eb836d216" y="153.905914"/>
     <use style="fill:#471365;fill-opacity:0.8;stroke:#471365;stroke-opacity:0.8;" x="178.255859" xlink:href="#m3eb836d216" y="138.543192"/>
     <use style="fill:#471365;fill-opacity:0.8;stroke:#471365;stroke-opacity:0.8;" x="206.969367" xlink:href="#m3eb836d216" y="205.950154"/>
     <use style="fill:#471365;fill-opacity:0.8;stroke:#471365;stroke-opacity:0.8;" x="162.651631" xlink:href="#m3eb836d216" y="172.545344"/>
     <use style="fill:#471365;fill-opacity:0.8;stroke:#471365;stroke-opacity:0.8;" x="136.14635" xlink:href="#m3eb836d216" y="140.343066"/>
     <use style="fill:#471365;fill-opacity:0.8;stroke:#471365;stroke-opacity:0.8;" x="167.004432" xlink:href="#m3eb836d216" y="145.248174"/>
     <use style="fill:#471365;fill-opacity:0.8;stroke:#471365;stroke-opacity:0.8;" x="124.359592" xlink:href="#m3eb836d216" y="130.332142"/>
     <use style="fill:#471365;fill-opacity:0.8;stroke:#471365;stroke-opacity:0.8;" x="223.796017" xlink:href="#m3eb836d216" y="171.076241"/>
     <use style="fill:#471365;fill-opacity:0.8;stroke:#471365;stroke-opacity:0.8;" x="130.199916" xlink:href="#m3eb836d216" y="131.105586"/>
     <use style="fill:#471365;fill-opacity:0.8;stroke:#471365;stroke-opacity:0.8;" x="153.486044" xlink:href="#m3eb836d216" y="197.31769"/>
     <use style="fill:#471365;fill-opacity:0.8;stroke:#471365;stroke-opacity:0.8;" x="156.420626" xlink:href="#m3eb836d216" y="133.111636"/>
     <use style="fill:#471365;fill-opacity:0.8;stroke:#471365;stroke-opacity:0.8;" x="163.67917" xlink:href="#m3eb836d216" y="135.961201"/>
     <use style="fill:#471365;fill-opacity:0.8;stroke:#471365;stroke-opacity:0.8;" x="221.721978" xlink:href="#m3eb836d216" y="154.171437"/>
     <use style="fill:#471365;fill-opacity:0.8;stroke:#471365;stroke-opacity:0.8;" x="174.146032" xlink:href="#m3eb836d216" y="217.714073"/>
     <use style="fill:#471365;fill-opacity:0.8;stroke:#471365;stroke-opacity:0.8;" x="178.36493" xlink:href="#m3eb836d216" y="149.065128"/>
     <use style="fill:#471365;fill-opacity:0.8;stroke:#471365;stroke-opacity:0.8;" x="151.698642" xlink:href="#m3eb836d216" y="157.1007"/>
     <use style="fill:#471365;fill-opacity:0.8;stroke:#471365;stroke-opacity:0.8;" x="127.674398" xlink:href="#m3eb836d216" y="165.827245"/>
     <use style="fill:#471365;fill-opacity:0.8;stroke:#471365;stroke-opacity:0.8;" x="136.634315" xlink:href="#m3eb836d216" y="144.301342"/>
     <use style="fill:#471365;fill-opacity:0.8;stroke:#471365;stroke-opacity:0.8;" x="145.382643" xlink:href="#m3eb836d216" y="142.780581"/>
     <use style="fill:#471365;fill-opacity:0.8;stroke:#471365;stroke-opacity:0.8;" x="143.932185" xlink:href="#m3eb836d216" y="135.519665"/>
     <use style="fill:#471365;fill-opacity:0.8;stroke:#471365;stroke-opacity:0.8;" x="120.255785" xlink:href="#m3eb836d216" y="138.595551"/>
     <use style="fill:#471365;fill-opacity:0.8;stroke:#471365;stroke-opacity:0.8;" x="248.238102" xlink:href="#m3eb836d216" y="142.02831"/>
     <use style="fill:#471365;fill-opacity:0.8;stroke:#471365;stroke-opacity:0.8;" x="211.152776" xlink:href="#m3eb836d216" y="147.781005"/>
    </g>
   </g>
   <g id="PolyCollection_1">
    <defs>
     <path d="M 60.488949 -309.382071 
L 60.488949 -274.689755 
L 63.306313 -274.529839 
L 66.123676 -274.324513 
L 68.94104 -274.119187 
L 71.758403 -273.967166 
L 74.575767 -273.868641 
L 77.39313 -273.742036 
L 80.210494 -273.576267 
L 83.027857 -273.393858 
L 85.845221 -273.216062 
L 88.662584 -273.090339 
L 91.479948 -272.955854 
L 94.297311 -272.805584 
L 97.114675 -272.868479 
L 99.932038 -272.625376 
L 102.749402 -272.505867 
L 105.566765 -272.37706 
L 108.384129 -272.182817 
L 111.201492 -271.966572 
L 114.018856 -271.694178 
L 116.836219 -271.527715 
L 119.653583 -271.251526 
L 122.470946 -271.036061 
L 125.28831 -270.719873 
L 128.105673 -270.484563 
L 130.923037 -270.300215 
L 133.7404 -269.930275 
L 136.557764 -269.722623 
L 139.375127 -269.500296 
L 142.192491 -269.299891 
L 145.009855 -268.85484 
L 147.827218 -268.536326 
L 150.644582 -268.094342 
L 153.461945 -267.577758 
L 156.279309 -266.782186 
L 159.096672 -265.962444 
L 161.914036 -265.127752 
L 164.731399 -264.436498 
L 167.548763 -263.547438 
L 170.366126 -262.508384 
L 173.18349 -261.294349 
L 176.000853 -260.282251 
L 178.818217 -259.368481 
L 181.63558 -258.4391 
L 184.452944 -257.539734 
L 187.270307 -256.586292 
L 190.087671 -255.544795 
L 192.905034 -254.601898 
L 195.722398 -253.590239 
L 198.539761 -252.323721 
L 201.357125 -251.149511 
L 204.174488 -250.051329 
L 206.991852 -248.956296 
L 209.809215 -247.861275 
L 212.626579 -246.77273 
L 215.443942 -245.71009 
L 218.261306 -244.622206 
L 221.078669 -243.534322 
L 223.896033 -242.446437 
L 226.713396 -241.305694 
L 229.53076 -240.208892 
L 232.348123 -239.112091 
L 235.165487 -238.015289 
L 237.98285 -236.918487 
L 240.800214 -235.773608 
L 243.617577 -234.598338 
L 246.434941 -233.423067 
L 249.252304 -232.247797 
L 252.069668 -231.072527 
L 254.887031 -229.897257 
L 257.704395 -228.758383 
L 260.521758 -227.70468 
L 263.339122 -226.652847 
L 266.156485 -225.556393 
L 268.973849 -224.418973 
L 271.791212 -223.314335 
L 274.608576 -222.246314 
L 277.425939 -221.179756 
L 280.243303 -220.110176 
L 283.060666 -218.98975 
L 285.87803 -217.951994 
L 288.695393 -216.882382 
L 291.512757 -215.753016 
L 294.33012 -214.62365 
L 297.147484 -213.494283 
L 299.964847 -212.364917 
L 302.782211 -211.23555 
L 305.599574 -210.106184 
L 308.416938 -208.976817 
L 311.234301 -207.847451 
L 314.051665 -206.718084 
L 316.869028 -205.588718 
L 319.686392 -204.459351 
L 322.503755 -203.329985 
L 325.321119 -202.200618 
L 328.138482 -201.071252 
L 330.955846 -199.941885 
L 333.773209 -198.812519 
L 336.590573 -197.683153 
L 339.407936 -196.553786 
L 339.407936 -264.608968 
L 339.407936 -264.608968 
L 336.590573 -264.759563 
L 333.773209 -264.887637 
L 330.955846 -264.974121 
L 328.138482 -265.095707 
L 325.321119 -265.217292 
L 322.503755 -265.338877 
L 319.686392 -265.460463 
L 316.869028 -265.582176 
L 314.051665 -265.686834 
L 311.234301 -265.771165 
L 308.416938 -265.783735 
L 305.599574 -265.816818 
L 302.782211 -265.884145 
L 299.964847 -266.020547 
L 297.147484 -266.156775 
L 294.33012 -266.292936 
L 291.512757 -266.429098 
L 288.695393 -266.564516 
L 285.87803 -266.623614 
L 283.060666 -266.677772 
L 280.243303 -266.731929 
L 277.425939 -266.847946 
L 274.608576 -266.988921 
L 271.791212 -267.129897 
L 268.973849 -267.268554 
L 266.156485 -267.413839 
L 263.339122 -267.55588 
L 260.521758 -267.68776 
L 257.704395 -267.794003 
L 254.887031 -267.917888 
L 252.069668 -268.123877 
L 249.252304 -268.162094 
L 246.434941 -268.218973 
L 243.617577 -268.340363 
L 240.800214 -268.497757 
L 237.98285 -268.655152 
L 235.165487 -268.832501 
L 232.348123 -269.02405 
L 229.53076 -269.203148 
L 226.713396 -269.317834 
L 223.896033 -269.47448 
L 221.078669 -269.598812 
L 218.261306 -269.787214 
L 215.443942 -269.975548 
L 212.626579 -270.115731 
L 209.809215 -270.229093 
L 206.991852 -270.448819 
L 204.174488 -270.652488 
L 201.357125 -270.819291 
L 198.539761 -271.086756 
L 195.722398 -271.301091 
L 192.905034 -271.575896 
L 190.087671 -271.813623 
L 187.270307 -272.046789 
L 184.452944 -272.327619 
L 181.63558 -272.537204 
L 178.818217 -272.795227 
L 176.000853 -272.997653 
L 173.18349 -273.290854 
L 170.366126 -273.64792 
L 167.548763 -274.023671 
L 164.731399 -274.471928 
L 161.914036 -274.822212 
L 159.096672 -275.171524 
L 156.279309 -275.713365 
L 153.461945 -276.073399 
L 150.644582 -276.762964 
L 147.827218 -277.272597 
L 145.009855 -278.12668 
L 142.192491 -278.861925 
L 139.375127 -279.551861 
L 136.557764 -280.415714 
L 133.7404 -281.31322 
L 130.923037 -282.255679 
L 128.105673 -283.432403 
L 125.28831 -284.546843 
L 122.470946 -285.385973 
L 119.653583 -286.490089 
L 116.836219 -287.619949 
L 114.018856 -288.630493 
L 111.201492 -289.72316 
L 108.384129 -290.740591 
L 105.566765 -291.702861 
L 102.749402 -292.755675 
L 99.932038 -293.941268 
L 97.114675 -295.088205 
L 94.297311 -296.147119 
L 91.479948 -297.206033 
L 88.662584 -298.264946 
L 85.845221 -299.307932 
L 83.027857 -300.384051 
L 80.210494 -301.573641 
L 77.39313 -302.78087 
L 74.575767 -303.98478 
L 71.758403 -305.186625 
L 68.94104 -306.274229 
L 66.123676 -307.346432 
L 63.306313 -308.416131 
L 60.488949 -309.382071 
z
" id="m14c5e4d1cf" style="stroke:#ffffff;stroke-opacity:0.15;stroke-width:0.8;"/>
    </defs>
    <g clip-path="url(#p5ef13eae4a)">
     <use style="fill:#471365;fill-opacity:0.15;stroke:#ffffff;stroke-opacity:0.15;stroke-width:0.8;" x="0" xlink:href="#m14c5e4d1cf" y="432"/>
    </g>
   </g>
   <g id="line2d_15">
    <path clip-path="url(#p5ef13eae4a)" d="M 60.488949 141.386954 
L 63.306313 141.957881 
L 66.123676 142.528807 
L 68.94104 143.099733 
L 71.758403 143.67066 
L 74.575767 144.241586 
L 77.39313 144.812512 
L 80.210494 145.383439 
L 83.027857 145.954365 
L 85.845221 146.525292 
L 88.662584 147.096218 
L 91.479948 147.667144 
L 94.297311 148.238071 
L 97.114675 148.808997 
L 99.932038 149.379923 
L 102.749402 149.95085 
L 105.566765 150.521776 
L 108.384129 151.092703 
L 111.201492 151.663629 
L 114.018856 152.234555 
L 116.836219 152.805482 
L 119.653583 153.376408 
L 122.470946 153.947334 
L 125.28831 154.518261 
L 128.105673 155.089187 
L 130.923037 155.660114 
L 133.7404 156.23104 
L 136.557764 156.801966 
L 139.375127 157.372893 
L 142.192491 157.943819 
L 145.009855 158.514745 
L 147.827218 159.085672 
L 150.644582 159.656598 
L 153.461945 160.227525 
L 156.279309 160.798451 
L 159.096672 161.369377 
L 161.914036 161.940304 
L 164.731399 162.51123 
L 167.548763 163.082157 
L 170.366126 163.653083 
L 173.18349 164.224009 
L 176.000853 164.794936 
L 178.818217 165.365862 
L 181.63558 165.936788 
L 184.452944 166.507715 
L 187.270307 167.078641 
L 190.087671 167.649568 
L 192.905034 168.220494 
L 195.722398 168.79142 
L 198.539761 169.362347 
L 201.357125 169.933273 
L 204.174488 170.504199 
L 206.991852 171.075126 
L 209.809215 171.646052 
L 212.626579 172.216979 
L 215.443942 172.787905 
L 218.261306 173.358831 
L 221.078669 173.929758 
L 223.896033 174.500684 
L 226.713396 175.07161 
L 229.53076 175.642537 
L 232.348123 176.213463 
L 235.165487 176.78439 
L 237.98285 177.355316 
L 240.800214 177.926242 
L 243.617577 178.497169 
L 246.434941 179.068095 
L 249.252304 179.639021 
L 252.069668 180.209948 
L 254.887031 180.780874 
L 257.704395 181.351801 
L 260.521758 181.922727 
L 263.339122 182.493653 
L 266.156485 183.06458 
L 268.973849 183.635506 
L 271.791212 184.206433 
L 274.608576 184.777359 
L 277.425939 185.348285 
L 280.243303 185.919212 
L 283.060666 186.490138 
L 285.87803 187.061064 
L 288.695393 187.631991 
L 291.512757 188.202917 
L 294.33012 188.773844 
L 297.147484 189.34477 
L 299.964847 189.915696 
L 302.782211 190.486623 
L 305.599574 191.057549 
L 308.416938 191.628475 
L 311.234301 192.199402 
L 314.051665 192.770328 
L 316.869028 193.341255 
L 319.686392 193.912181 
L 322.503755 194.483107 
L 325.321119 195.054034 
L 328.138482 195.62496 
L 330.955846 196.195886 
L 333.773209 196.766813 
L 336.590573 197.337739 
L 339.407936 197.908666 
" style="fill:none;stroke:#471365;stroke-linecap:round;stroke-width:1.8;"/>
   </g>
   <g id="patch_3">
    <path d="M 46.543 390.332 
L 46.543 79.481829 
" style="fill:none;stroke:#262626;stroke-linecap:square;stroke-linejoin:miter;"/>
   </g>
   <g id="patch_4">
    <path d="M 46.543 390.332 
L 353.353886 390.332 
" style="fill:none;stroke:#262626;stroke-linecap:square;stroke-linejoin:miter;"/>
   </g>
   <g id="legend_1">
    <g id="patch_5">
     <path d="M 189.015261 99.438579 
L 347.193886 99.438579 
Q 348.953886 99.438579 348.953886 97.678579 
L 348.953886 85.641829 
Q 348.953886 83.881829 347.193886 83.881829 
L 189.015261 83.881829 
Q 187.255261 83.881829 187.255261 85.641829 
L 187.255261 97.678579 
Q 187.255261 99.438579 189.015261 99.438579 
z
" style="fill:#ffffff;opacity:0.8;stroke:#cccccc;stroke-linejoin:miter;stroke-width:0.8;"/>
    </g>
    <g id="line2d_16"/>
    <g id="line2d_17"/>
    <g id="text_17">
     <!-- pearsonr = -0.23; p = 0.0046 -->
     <defs>
      <path d="M 56.203125 29.59375 
L 56.203125 25.203125 
L 14.890625 25.203125 
Q 15.484375 15.921875 20.484375 11.0625 
Q 25.484375 6.203125 34.421875 6.203125 
Q 39.59375 6.203125 44.453125 7.46875 
Q 49.3125 8.734375 54.109375 11.28125 
L 54.109375 2.78125 
Q 49.265625 0.734375 44.1875 -0.34375 
Q 39.109375 -1.421875 33.890625 -1.421875 
Q 20.796875 -1.421875 13.15625 6.1875 
Q 5.515625 13.8125 5.515625 26.8125 
Q 5.515625 40.234375 12.765625 48.109375 
Q 20.015625 56 32.328125 56 
Q 43.359375 56 49.78125 48.890625 
Q 56.203125 41.796875 56.203125 29.59375 
z
M 47.21875 32.234375 
Q 47.125 39.59375 43.09375 43.984375 
Q 39.0625 48.390625 32.421875 48.390625 
Q 24.90625 48.390625 20.390625 44.140625 
Q 15.875 39.890625 15.1875 32.171875 
z
" id="DejaVuSans-65"/>
      <path d="M 34.28125 27.484375 
Q 23.390625 27.484375 19.1875 25 
Q 14.984375 22.515625 14.984375 16.5 
Q 14.984375 11.71875 18.140625 8.90625 
Q 21.296875 6.109375 26.703125 6.109375 
Q 34.1875 6.109375 38.703125 11.40625 
Q 43.21875 16.703125 43.21875 25.484375 
L 43.21875 27.484375 
z
M 52.203125 31.203125 
L 52.203125 0 
L 43.21875 0 
L 43.21875 8.296875 
Q 40.140625 3.328125 35.546875 0.953125 
Q 30.953125 -1.421875 24.3125 -1.421875 
Q 15.921875 -1.421875 10.953125 3.296875 
Q 6 8.015625 6 15.921875 
Q 6 25.140625 12.171875 29.828125 
Q 18.359375 34.515625 30.609375 34.515625 
L 43.21875 34.515625 
L 43.21875 35.40625 
Q 43.21875 41.609375 39.140625 45 
Q 35.0625 48.390625 27.6875 48.390625 
Q 23 48.390625 18.546875 47.265625 
Q 14.109375 46.140625 10.015625 43.890625 
L 10.015625 52.203125 
Q 14.9375 54.109375 19.578125 55.046875 
Q 24.21875 56 28.609375 56 
Q 40.484375 56 46.34375 49.84375 
Q 52.203125 43.703125 52.203125 31.203125 
z
" id="DejaVuSans-61"/>
      <path d="M 41.109375 46.296875 
Q 39.59375 47.171875 37.8125 47.578125 
Q 36.03125 48 33.890625 48 
Q 26.265625 48 22.1875 43.046875 
Q 18.109375 38.09375 18.109375 28.8125 
L 18.109375 0 
L 9.078125 0 
L 9.078125 54.6875 
L 18.109375 54.6875 
L 18.109375 46.1875 
Q 20.953125 51.171875 25.484375 53.578125 
Q 30.03125 56 36.53125 56 
Q 37.453125 56 38.578125 55.875 
Q 39.703125 55.765625 41.0625 55.515625 
z
" id="DejaVuSans-72"/>
      <path d="M 44.28125 53.078125 
L 44.28125 44.578125 
Q 40.484375 46.53125 36.375 47.5 
Q 32.28125 48.484375 27.875 48.484375 
Q 21.1875 48.484375 17.84375 46.4375 
Q 14.5 44.390625 14.5 40.28125 
Q 14.5 37.15625 16.890625 35.375 
Q 19.28125 33.59375 26.515625 31.984375 
L 29.59375 31.296875 
Q 39.15625 29.25 43.1875 25.515625 
Q 47.21875 21.78125 47.21875 15.09375 
Q 47.21875 7.46875 41.1875 3.015625 
Q 35.15625 -1.421875 24.609375 -1.421875 
Q 20.21875 -1.421875 15.453125 -0.5625 
Q 10.6875 0.296875 5.421875 2 
L 5.421875 11.28125 
Q 10.40625 8.6875 15.234375 7.390625 
Q 20.0625 6.109375 24.8125 6.109375 
Q 31.15625 6.109375 34.5625 8.28125 
Q 37.984375 10.453125 37.984375 14.40625 
Q 37.984375 18.0625 35.515625 20.015625 
Q 33.0625 21.96875 24.703125 23.78125 
L 21.578125 24.515625 
Q 13.234375 26.265625 9.515625 29.90625 
Q 5.8125 33.546875 5.8125 39.890625 
Q 5.8125 47.609375 11.28125 51.796875 
Q 16.75 56 26.8125 56 
Q 31.78125 56 36.171875 55.265625 
Q 40.578125 54.546875 44.28125 53.078125 
z
" id="DejaVuSans-73"/>
      <path d="M 54.890625 33.015625 
L 54.890625 0 
L 45.90625 0 
L 45.90625 32.71875 
Q 45.90625 40.484375 42.875 44.328125 
Q 39.84375 48.1875 33.796875 48.1875 
Q 26.515625 48.1875 22.3125 43.546875 
Q 18.109375 38.921875 18.109375 30.90625 
L 18.109375 0 
L 9.078125 0 
L 9.078125 54.6875 
L 18.109375 54.6875 
L 18.109375 46.1875 
Q 21.34375 51.125 25.703125 53.5625 
Q 30.078125 56 35.796875 56 
Q 45.21875 56 50.046875 50.171875 
Q 54.890625 44.34375 54.890625 33.015625 
z
" id="DejaVuSans-6e"/>
      <path id="DejaVuSans-20"/>
      <path d="M 10.59375 45.40625 
L 73.1875 45.40625 
L 73.1875 37.203125 
L 10.59375 37.203125 
z
M 10.59375 25.484375 
L 73.1875 25.484375 
L 73.1875 17.1875 
L 10.59375 17.1875 
z
" id="DejaVuSans-3d"/>
      <path d="M 40.578125 39.3125 
Q 47.65625 37.796875 51.625 33 
Q 55.609375 28.21875 55.609375 21.1875 
Q 55.609375 10.40625 48.1875 4.484375 
Q 40.765625 -1.421875 27.09375 -1.421875 
Q 22.515625 -1.421875 17.65625 -0.515625 
Q 12.796875 0.390625 7.625 2.203125 
L 7.625 11.71875 
Q 11.71875 9.328125 16.59375 8.109375 
Q 21.484375 6.890625 26.8125 6.890625 
Q 36.078125 6.890625 40.9375 10.546875 
Q 45.796875 14.203125 45.796875 21.1875 
Q 45.796875 27.640625 41.28125 31.265625 
Q 36.765625 34.90625 28.71875 34.90625 
L 20.21875 34.90625 
L 20.21875 43.015625 
L 29.109375 43.015625 
Q 36.375 43.015625 40.234375 45.921875 
Q 44.09375 48.828125 44.09375 54.296875 
Q 44.09375 59.90625 40.109375 62.90625 
Q 36.140625 65.921875 28.71875 65.921875 
Q 24.65625 65.921875 20.015625 65.03125 
Q 15.375 64.15625 9.8125 62.3125 
L 9.8125 71.09375 
Q 15.4375 72.65625 20.34375 73.4375 
Q 25.25 74.21875 29.59375 74.21875 
Q 40.828125 74.21875 47.359375 69.109375 
Q 53.90625 64.015625 53.90625 55.328125 
Q 53.90625 49.265625 50.4375 45.09375 
Q 46.96875 40.921875 40.578125 39.3125 
z
" id="DejaVuSans-33"/>
      <path d="M 11.71875 51.703125 
L 22.015625 51.703125 
L 22.015625 39.3125 
L 11.71875 39.3125 
z
M 11.71875 12.40625 
L 22.015625 12.40625 
L 22.015625 4 
L 14.015625 -11.625 
L 7.71875 -11.625 
L 11.71875 4 
z
" id="DejaVuSans-3b"/>
     </defs>
     <g style="fill:#262626;" transform="translate(215.415261 94.088454)scale(0.088 -0.088)">
      <use xlink:href="#DejaVuSans-70"/>
      <use x="63.476562" xlink:href="#DejaVuSans-65"/>
      <use x="125" xlink:href="#DejaVuSans-61"/>
      <use x="186.279297" xlink:href="#DejaVuSans-72"/>
      <use x="227.392578" xlink:href="#DejaVuSans-73"/>
      <use x="279.492188" xlink:href="#DejaVuSans-6f"/>
      <use x="340.673828" xlink:href="#DejaVuSans-6e"/>
      <use x="404.052734" xlink:href="#DejaVuSans-72"/>
      <use x="445.166016" xlink:href="#DejaVuSans-20"/>
      <use x="476.953125" xlink:href="#DejaVuSans-3d"/>
      <use x="560.742188" xlink:href="#DejaVuSans-20"/>
      <use x="592.529297" xlink:href="#DejaVuSans-2d"/>
      <use x="628.613281" xlink:href="#DejaVuSans-30"/>
      <use x="692.236328" xlink:href="#DejaVuSans-2e"/>
      <use x="724.023438" xlink:href="#DejaVuSans-32"/>
      <use x="787.646484" xlink:href="#DejaVuSans-33"/>
      <use x="851.269531" xlink:href="#DejaVuSans-3b"/>
      <use x="884.960938" xlink:href="#DejaVuSans-20"/>
      <use x="916.748047" xlink:href="#DejaVuSans-70"/>
      <use x="980.224609" xlink:href="#DejaVuSans-20"/>
      <use x="1012.011719" xlink:href="#DejaVuSans-3d"/>
      <use x="1095.800781" xlink:href="#DejaVuSans-20"/>
      <use x="1127.587891" xlink:href="#DejaVuSans-30"/>
      <use x="1191.210938" xlink:href="#DejaVuSans-2e"/>
      <use x="1222.998047" xlink:href="#DejaVuSans-30"/>
      <use x="1286.621094" xlink:href="#DejaVuSans-30"/>
      <use x="1350.244141" xlink:href="#DejaVuSans-34"/>
      <use x="1413.867188" xlink:href="#DejaVuSans-36"/>
     </g>
    </g>
   </g>
  </g>
  <g id="axes_2">
   <g id="patch_6">
    <path d="M 46.543 68.762857 
L 353.353886 68.762857 
L 353.353886 15.168 
L 46.543 15.168 
z
" style="fill:#ffffff;"/>
   </g>
   <g id="matplotlib.axis_3">
    <g id="xtick_7">
     <g id="line2d_18">
      <g>
       <use style="fill:#262626;stroke:#262626;" x="79.564277" xlink:href="#m48e530908a" y="68.762857"/>
      </g>
     </g>
    </g>
    <g id="xtick_8">
     <g id="line2d_19">
      <g>
       <use style="fill:#262626;stroke:#262626;" x="133.07274" xlink:href="#m48e530908a" y="68.762857"/>
      </g>
     </g>
    </g>
    <g id="xtick_9">
     <g id="line2d_20">
      <g>
       <use style="fill:#262626;stroke:#262626;" x="186.581202" xlink:href="#m48e530908a" y="68.762857"/>
      </g>
     </g>
    </g>
    <g id="xtick_10">
     <g id="line2d_21">
      <g>
       <use style="fill:#262626;stroke:#262626;" x="240.089665" xlink:href="#m48e530908a" y="68.762857"/>
      </g>
     </g>
    </g>
    <g id="xtick_11">
     <g id="line2d_22">
      <g>
       <use style="fill:#262626;stroke:#262626;" x="293.598128" xlink:href="#m48e530908a" y="68.762857"/>
      </g>
     </g>
    </g>
    <g id="xtick_12">
     <g id="line2d_23">
      <g>
       <use style="fill:#262626;stroke:#262626;" x="347.106591" xlink:href="#m48e530908a" y="68.762857"/>
      </g>
     </g>
    </g>
   </g>
   <g id="matplotlib.axis_4">
    <g id="ytick_9"/>
    <g id="ytick_10"/>
   </g>
   <g id="patch_7">
    <path clip-path="url(#pfdc9e7c080)" d="M 114.746219 68.762857 
L 131.786664 68.762857 
L 131.786664 27.290646 
L 114.746219 27.290646 
z
" style="fill:#471365;opacity:0.4;stroke:#ffffff;stroke-linejoin:miter;stroke-width:0.8;"/>
   </g>
   <g id="patch_8">
    <path clip-path="url(#pfdc9e7c080)" d="M 131.786664 68.762857 
L 148.827108 68.762857 
L 148.827108 17.720136 
L 131.786664 17.720136 
z
" style="fill:#471365;opacity:0.4;stroke:#ffffff;stroke-linejoin:miter;stroke-width:0.8;"/>
   </g>
   <g id="patch_9">
    <path clip-path="url(#pfdc9e7c080)" d="M 148.827108 68.762857 
L 165.867553 68.762857 
L 165.867553 28.885731 
L 148.827108 28.885731 
z
" style="fill:#471365;opacity:0.4;stroke:#ffffff;stroke-linejoin:miter;stroke-width:0.8;"/>
   </g>
   <g id="patch_10">
    <path clip-path="url(#pfdc9e7c080)" d="M 165.867553 68.762857 
L 182.907998 68.762857 
L 182.907998 35.266071 
L 165.867553 35.266071 
z
" style="fill:#471365;opacity:0.4;stroke:#ffffff;stroke-linejoin:miter;stroke-width:0.8;"/>
   </g>
   <g id="patch_11">
    <path clip-path="url(#pfdc9e7c080)" d="M 182.907998 68.762857 
L 199.948443 68.762857 
L 199.948443 44.836582 
L 182.907998 44.836582 
z
" style="fill:#471365;opacity:0.4;stroke:#ffffff;stroke-linejoin:miter;stroke-width:0.8;"/>
   </g>
   <g id="patch_12">
    <path clip-path="url(#pfdc9e7c080)" d="M 199.948443 68.762857 
L 216.988888 68.762857 
L 216.988888 59.192347 
L 199.948443 59.192347 
z
" style="fill:#471365;opacity:0.4;stroke:#ffffff;stroke-linejoin:miter;stroke-width:0.8;"/>
   </g>
   <g id="patch_13">
    <path clip-path="url(#pfdc9e7c080)" d="M 216.988888 68.762857 
L 234.029332 68.762857 
L 234.029332 52.812007 
L 216.988888 52.812007 
z
" style="fill:#471365;opacity:0.4;stroke:#ffffff;stroke-linejoin:miter;stroke-width:0.8;"/>
   </g>
   <g id="patch_14">
    <path clip-path="url(#pfdc9e7c080)" d="M 234.029332 68.762857 
L 251.069777 68.762857 
L 251.069777 62.382517 
L 234.029332 62.382517 
z
" style="fill:#471365;opacity:0.4;stroke:#ffffff;stroke-linejoin:miter;stroke-width:0.8;"/>
   </g>
   <g id="patch_15">
    <path clip-path="url(#pfdc9e7c080)" d="M 251.069777 68.762857 
L 268.110222 68.762857 
L 268.110222 62.382517 
L 251.069777 62.382517 
z
" style="fill:#471365;opacity:0.4;stroke:#ffffff;stroke-linejoin:miter;stroke-width:0.8;"/>
   </g>
   <g id="patch_16">
    <path clip-path="url(#pfdc9e7c080)" d="M 268.110222 68.762857 
L 285.150667 68.762857 
L 285.150667 65.572687 
L 268.110222 65.572687 
z
" style="fill:#471365;opacity:0.4;stroke:#ffffff;stroke-linejoin:miter;stroke-width:0.8;"/>
   </g>
   <g id="line2d_24">
    <path clip-path="url(#pfdc9e7c080)" d="M 73.167085 68.732089 
L 75.728325 68.706092 
L 78.289564 68.661184 
L 80.850804 68.586018 
L 83.412043 68.464121 
L 85.973283 68.272588 
L 88.534522 67.980995 
L 91.095762 67.550886 
L 93.657002 66.93622 
L 96.218241 66.085208 
L 98.779481 64.943806 
L 101.34072 63.460918 
L 103.90196 61.595002 
L 106.463199 59.321381 
L 109.024439 56.639171 
L 111.585678 53.576566 
L 114.146918 50.193247 
L 116.708157 46.579017 
L 119.269397 42.848381 
L 121.830637 39.131519 
L 124.391876 35.562826 
L 126.953116 32.268711 
L 129.514355 29.356489 
L 132.075595 26.905994 
L 134.636834 24.964969 
L 137.198074 23.548569 
L 139.759313 22.642572 
L 142.320553 22.209344 
L 144.881793 22.19529 
L 147.443032 22.538564 
L 150.004272 23.175989 
L 152.565511 24.048493 
L 155.126751 25.104747 
L 157.68799 26.302964 
L 160.24923 27.611042 
L 162.810469 29.005366 
L 165.371709 30.468687 
L 167.932948 31.987513 
L 170.494188 33.549538 
L 173.055428 35.141585 
L 175.616667 36.748466 
L 178.177907 38.352971 
L 180.739146 39.936913 
L 183.300386 41.482873 
L 185.861625 42.976044 
L 188.422865 44.405562 
L 190.984104 45.764835 
L 193.545344 47.050745 
L 196.106584 48.262037 
L 198.667823 49.397507 
L 201.229063 50.454767 
L 203.790302 51.430156 
L 206.351542 52.319959 
L 208.912781 53.122599 
L 211.474021 53.84102 
L 214.03526 54.484343 
L 216.5965 55.068029 
L 219.157739 55.612278 
L 221.718979 56.138933 
L 224.280219 56.66769 
L 226.841458 57.212621 
L 229.402698 57.779976 
L 231.963937 58.367785 
L 234.525177 58.967317 
L 237.086416 59.565888 
L 239.647656 60.150212 
L 242.208895 60.709404 
L 244.770135 61.236949 
L 247.331375 61.731262 
L 249.892614 62.19493 
L 252.453854 62.633004 
L 255.015093 63.05095 
L 257.576333 63.452853 
L 260.137572 63.840341 
L 262.698812 64.21245 
L 265.260051 64.566363 
L 267.821291 64.898745 
L 270.38253 65.207215 
L 272.94377 65.491527 
L 275.50501 65.7541 
L 278.066249 65.999746 
L 280.627489 66.234698 
L 283.188728 66.465194 
L 285.749968 66.696029 
L 288.311207 66.929462 
L 290.872447 67.164731 
L 293.433686 67.39828 
L 295.994926 67.624586 
L 298.556166 67.83733 
L 301.117405 68.030616 
L 303.678645 68.199958 
L 306.239884 68.342863 
L 308.801124 68.458959 
L 311.362363 68.549746 
L 313.923603 68.618093 
L 316.484842 68.667637 
L 319.046082 68.702227 
L 321.607321 68.725494 
L 324.168561 68.740577 
L 326.729801 68.750002 
" style="fill:none;stroke:#471365;stroke-linecap:round;stroke-width:1.2;"/>
   </g>
   <g id="patch_17">
    <path d="M 46.543 68.762857 
L 353.353886 68.762857 
" style="fill:none;stroke:#262626;stroke-linecap:square;stroke-linejoin:miter;"/>
   </g>
  </g>
  <g id="axes_3">
   <g id="patch_18">
    <path d="M 363.933571 390.332 
L 416.832 390.332 
L 416.832 79.481829 
L 363.933571 79.481829 
z
" style="fill:#ffffff;"/>
   </g>
   <g id="matplotlib.axis_5">
    <g id="xtick_13"/>
    <g id="xtick_14"/>
   </g>
   <g id="matplotlib.axis_6">
    <g id="ytick_11">
     <g id="line2d_25">
      <g>
       <use style="fill:#262626;stroke:#262626;" x="363.933571" xlink:href="#m5dacf0c4a3" y="366.750837"/>
      </g>
     </g>
    </g>
    <g id="ytick_12">
     <g id="line2d_26">
      <g>
       <use style="fill:#262626;stroke:#262626;" x="363.933571" xlink:href="#m5dacf0c4a3" y="326.114558"/>
      </g>
     </g>
    </g>
    <g id="ytick_13">
     <g id="line2d_27">
      <g>
       <use style="fill:#262626;stroke:#262626;" x="363.933571" xlink:href="#m5dacf0c4a3" y="285.47828"/>
      </g>
     </g>
    </g>
    <g id="ytick_14">
     <g id="line2d_28">
      <g>
       <use style="fill:#262626;stroke:#262626;" x="363.933571" xlink:href="#m5dacf0c4a3" y="244.842002"/>
      </g>
     </g>
    </g>
    <g id="ytick_15">
     <g id="line2d_29">
      <g>
       <use style="fill:#262626;stroke:#262626;" x="363.933571" xlink:href="#m5dacf0c4a3" y="204.205724"/>
      </g>
     </g>
    </g>
    <g id="ytick_16">
     <g id="line2d_30">
      <g>
       <use style="fill:#262626;stroke:#262626;" x="363.933571" xlink:href="#m5dacf0c4a3" y="163.569446"/>
      </g>
     </g>
    </g>
    <g id="ytick_17">
     <g id="line2d_31">
      <g>
       <use style="fill:#262626;stroke:#262626;" x="363.933571" xlink:href="#m5dacf0c4a3" y="122.933168"/>
      </g>
     </g>
    </g>
    <g id="ytick_18">
     <g id="line2d_32">
      <g>
       <use style="fill:#262626;stroke:#262626;" x="363.933571" xlink:href="#m5dacf0c4a3" y="82.29689"/>
      </g>
     </g>
    </g>
   </g>
   <g id="patch_19">
    <path clip-path="url(#p9d9ebe80c4)" d="M 363.933571 340.229291 
L 364.983143 340.229291 
L 364.983143 326.186308 
L 363.933571 326.186308 
z
" style="fill:#471365;opacity:0.4;stroke:#ffffff;stroke-linejoin:miter;stroke-width:0.8;"/>
   </g>
   <g id="patch_20">
    <path clip-path="url(#p9d9ebe80c4)" d="M 363.933571 326.186308 
L 363.933571 326.186308 
L 363.933571 312.143324 
L 363.933571 312.143324 
z
" style="fill:#471365;opacity:0.4;stroke:#ffffff;stroke-linejoin:miter;stroke-width:0.8;"/>
   </g>
   <g id="patch_21">
    <path clip-path="url(#p9d9ebe80c4)" d="M 363.933571 312.143324 
L 363.933571 312.143324 
L 363.933571 298.10034 
L 363.933571 298.10034 
z
" style="fill:#471365;opacity:0.4;stroke:#ffffff;stroke-linejoin:miter;stroke-width:0.8;"/>
   </g>
   <g id="patch_22">
    <path clip-path="url(#p9d9ebe80c4)" d="M 363.933571 298.10034 
L 363.933571 298.10034 
L 363.933571 284.057357 
L 363.933571 284.057357 
z
" style="fill:#471365;opacity:0.4;stroke:#ffffff;stroke-linejoin:miter;stroke-width:0.8;"/>
   </g>
   <g id="patch_23">
    <path clip-path="url(#p9d9ebe80c4)" d="M 363.933571 284.057357 
L 364.983143 284.057357 
L 364.983143 270.014373 
L 363.933571 270.014373 
z
" style="fill:#471365;opacity:0.4;stroke:#ffffff;stroke-linejoin:miter;stroke-width:0.8;"/>
   </g>
   <g id="patch_24">
    <path clip-path="url(#p9d9ebe80c4)" d="M 363.933571 270.014373 
L 363.933571 270.014373 
L 363.933571 255.97139 
L 363.933571 255.97139 
z
" style="fill:#471365;opacity:0.4;stroke:#ffffff;stroke-linejoin:miter;stroke-width:0.8;"/>
   </g>
   <g id="patch_25">
    <path clip-path="url(#p9d9ebe80c4)" d="M 363.933571 255.97139 
L 366.032715 255.97139 
L 366.032715 241.928406 
L 363.933571 241.928406 
z
" style="fill:#471365;opacity:0.4;stroke:#ffffff;stroke-linejoin:miter;stroke-width:0.8;"/>
   </g>
   <g id="patch_26">
    <path clip-path="url(#p9d9ebe80c4)" d="M 363.933571 241.928406 
L 366.032715 241.928406 
L 366.032715 227.885422 
L 363.933571 227.885422 
z
" style="fill:#471365;opacity:0.4;stroke:#ffffff;stroke-linejoin:miter;stroke-width:0.8;"/>
   </g>
   <g id="patch_27">
    <path clip-path="url(#p9d9ebe80c4)" d="M 363.933571 227.885422 
L 368.131859 227.885422 
L 368.131859 213.842439 
L 363.933571 213.842439 
z
" style="fill:#471365;opacity:0.4;stroke:#ffffff;stroke-linejoin:miter;stroke-width:0.8;"/>
   </g>
   <g id="patch_28">
    <path clip-path="url(#p9d9ebe80c4)" d="M 363.933571 213.842439 
L 370.231003 213.842439 
L 370.231003 199.799455 
L 363.933571 199.799455 
z
" style="fill:#471365;opacity:0.4;stroke:#ffffff;stroke-linejoin:miter;stroke-width:0.8;"/>
   </g>
   <g id="patch_29">
    <path clip-path="url(#p9d9ebe80c4)" d="M 363.933571 199.799455 
L 376.528435 199.799455 
L 376.528435 185.756472 
L 363.933571 185.756472 
z
" style="fill:#471365;opacity:0.4;stroke:#ffffff;stroke-linejoin:miter;stroke-width:0.8;"/>
   </g>
   <g id="patch_30">
    <path clip-path="url(#p9d9ebe80c4)" d="M 363.933571 185.756472 
L 381.776295 185.756472 
L 381.776295 171.713488 
L 363.933571 171.713488 
z
" style="fill:#471365;opacity:0.4;stroke:#ffffff;stroke-linejoin:miter;stroke-width:0.8;"/>
   </g>
   <g id="patch_31">
    <path clip-path="url(#p9d9ebe80c4)" d="M 363.933571 171.713488 
L 384.925011 171.713488 
L 384.925011 157.670505 
L 363.933571 157.670505 
z
" style="fill:#471365;opacity:0.4;stroke:#ffffff;stroke-linejoin:miter;stroke-width:0.8;"/>
   </g>
   <g id="patch_32">
    <path clip-path="url(#p9d9ebe80c4)" d="M 363.933571 157.670505 
L 397.519875 157.670505 
L 397.519875 143.627521 
L 363.933571 143.627521 
z
" style="fill:#471365;opacity:0.4;stroke:#ffffff;stroke-linejoin:miter;stroke-width:0.8;"/>
   </g>
   <g id="patch_33">
    <path clip-path="url(#p9d9ebe80c4)" d="M 363.933571 143.627521 
L 414.313027 143.627521 
L 414.313027 129.584537 
L 363.933571 129.584537 
z
" style="fill:#471365;opacity:0.4;stroke:#ffffff;stroke-linejoin:miter;stroke-width:0.8;"/>
   </g>
   <g id="line2d_33">
    <path clip-path="url(#p9d9ebe80c4)" d="M 363.939171 376.202447 
L 363.944637 373.347992 
L 363.95424 370.493536 
L 363.970066 367.639081 
L 363.994482 364.784626 
L 364.029671 361.930171 
L 364.076892 359.075716 
L 364.135621 356.22126 
L 364.202827 353.366805 
L 364.272752 350.51235 
L 364.337455 347.657895 
L 364.388184 344.80344 
L 364.417283 341.948984 
L 364.42008 339.094529 
L 364.396117 336.240074 
L 364.349272 333.385619 
L 364.286731 330.531164 
L 364.217195 327.676708 
L 364.148925 324.822253 
L 364.088242 321.967798 
L 364.038835 319.113343 
L 364.001888 316.258888 
L 363.976809 313.404432 
L 363.962189 310.549977 
L 363.956709 307.695522 
L 363.959763 304.841067 
L 363.971727 301.986612 
L 363.993835 299.132156 
L 364.027696 296.277701 
L 364.074527 293.423246 
L 364.1343 290.568791 
L 364.205088 287.714336 
L 364.282955 284.85988 
L 364.362648 282.005425 
L 364.439073 279.15097 
L 364.509189 276.296515 
L 364.573642 273.44206 
L 364.63741 270.587604 
L 364.708987 267.733149 
L 364.798186 264.878694 
L 364.913194 262.024239 
L 365.057883 259.169783 
L 365.230327 256.315328 
L 365.423094 253.460873 
L 365.625274 250.606418 
L 365.825632 247.751963 
L 366.015962 244.897507 
L 366.193691 242.043052 
L 366.363049 239.188597 
L 366.53458 236.334142 
L 366.723266 233.479687 
L 366.945888 230.625231 
L 367.218443 227.770776 
L 367.554232 224.916321 
L 367.962943 222.061866 
L 368.450554 219.207411 
L 369.019646 216.352955 
L 369.669619 213.4985 
L 370.396592 210.644045 
L 371.193149 207.78959 
L 372.048364 204.935135 
L 372.948582 202.080679 
L 373.879102 199.226224 
L 374.826477 196.371769 
L 375.780787 193.517314 
L 376.737264 190.662859 
L 377.696914 187.808403 
L 378.666265 184.953948 
L 379.65664 182.099493 
L 380.683428 179.245038 
L 381.765555 176.390583 
L 382.92498 173.536127 
L 384.185577 170.681672 
L 385.570531 167.827217 
L 387.097373 164.972762 
L 388.770223 162.118307 
L 390.569706 159.263851 
L 392.44221 156.409396 
L 394.29142 153.554941 
L 395.975804 150.700486 
L 397.315678 147.846031 
L 398.112001 144.991575 
L 398.176292 142.13712 
L 397.367271 139.282665 
L 395.626155 136.42821 
L 393.000644 133.573755 
L 389.648863 130.719299 
L 385.819416 127.864844 
L 381.810872 125.010389 
L 377.920731 122.155934 
L 374.397419 119.301479 
L 371.40737 116.447023 
L 369.023691 113.592568 
L 367.235602 110.738113 
L 365.972021 107.883658 
L 365.130154 105.029203 
L 364.60102 102.174747 
L 364.287141 99.320292 
L 364.111357 96.465837 
L 364.018392 93.611382 
" style="fill:none;stroke:#471365;stroke-linecap:round;stroke-width:1.2;"/>
   </g>
   <g id="patch_34">
    <path d="M 363.933571 390.332 
L 363.933571 79.481829 
" style="fill:none;stroke:#262626;stroke-linecap:square;stroke-linejoin:miter;"/>
   </g>
  </g>
 </g>
 <defs>
  <clipPath id="p5ef13eae4a">
   <rect height="310.850171" width="306.810886" x="46.543" y="79.481829"/>
  </clipPath>
  <clipPath id="pfdc9e7c080">
   <rect height="53.594857" width="306.810886" x="46.543" y="15.168"/>
  </clipPath>
  <clipPath id="p9d9ebe80c4">
   <rect height="310.850171" width="52.898429" x="363.933571" y="79.481829"/>
  </clipPath>
 </defs>
</svg>
