<?xml version="1.0" encoding="utf-8" standalone="no"?>
<!DOCTYPE svg PUBLIC "-//W3C//DTD SVG 1.1//EN"
  "http://www.w3.org/Graphics/SVG/1.1/DTD/svg11.dtd">
<!-- Created with matplotlib (http://matplotlib.org/) -->
<svg height="432pt" version="1.1" viewBox="0 0 432 432" width="432pt" xmlns="http://www.w3.org/2000/svg" xmlns:xlink="http://www.w3.org/1999/xlink">
 <defs>
  <style type="text/css">
*{stroke-linecap:butt;stroke-linejoin:round;}
  </style>
 </defs>
 <g id="figure_1">
  <g id="patch_1">
   <path d="M 0 432 
L 432 432 
L 432 0 
L 0 0 
z
" style="fill:#ffffff;"/>
  </g>
  <g id="axes_1">
   <g id="patch_2">
    <path d="M 49.85 389.9 
L 351.908333 389.9 
L 351.908333 81.383333 
L 49.85 81.383333 
z
" style="fill:#ffffff;"/>
   </g>
   <g id="matplotlib.axis_1">
    <g id="xtick_1">
     <g id="line2d_1">
      <defs>
       <path d="M 0 0 
L 0 4.8 
" id="m91fd25bebf" style="stroke:#262626;"/>
      </defs>
      <g>
       <use style="fill:#262626;stroke:#262626;" x="56.568076" xlink:href="#m91fd25bebf" y="389.9"/>
      </g>
     </g>
     <g id="text_1">
      <!-- 9.0 -->
      <defs>
       <path d="M 10.984375 1.515625 
L 10.984375 10.5 
Q 14.703125 8.734375 18.5 7.8125 
Q 22.3125 6.890625 25.984375 6.890625 
Q 35.75 6.890625 40.890625 13.453125 
Q 46.046875 20.015625 46.78125 33.40625 
Q 43.953125 29.203125 39.59375 26.953125 
Q 35.25 24.703125 29.984375 24.703125 
Q 19.046875 24.703125 12.671875 31.3125 
Q 6.296875 37.9375 6.296875 49.421875 
Q 6.296875 60.640625 12.9375 67.421875 
Q 19.578125 74.21875 30.609375 74.21875 
Q 43.265625 74.21875 49.921875 64.515625 
Q 56.59375 54.828125 56.59375 36.375 
Q 56.59375 19.140625 48.40625 8.859375 
Q 40.234375 -1.421875 26.421875 -1.421875 
Q 22.703125 -1.421875 18.890625 -0.6875 
Q 15.09375 0.046875 10.984375 1.515625 
z
M 30.609375 32.421875 
Q 37.25 32.421875 41.125 36.953125 
Q 45.015625 41.5 45.015625 49.421875 
Q 45.015625 57.28125 41.125 61.84375 
Q 37.25 66.40625 30.609375 66.40625 
Q 23.96875 66.40625 20.09375 61.84375 
Q 16.21875 57.28125 16.21875 49.421875 
Q 16.21875 41.5 20.09375 36.953125 
Q 23.96875 32.421875 30.609375 32.421875 
z
" id="DejaVuSans-39"/>
       <path d="M 10.6875 12.40625 
L 21 12.40625 
L 21 0 
L 10.6875 0 
z
" id="DejaVuSans-2e"/>
       <path d="M 31.78125 66.40625 
Q 24.171875 66.40625 20.328125 58.90625 
Q 16.5 51.421875 16.5 36.375 
Q 16.5 21.390625 20.328125 13.890625 
Q 24.171875 6.390625 31.78125 6.390625 
Q 39.453125 6.390625 43.28125 13.890625 
Q 47.125 21.390625 47.125 36.375 
Q 47.125 51.421875 43.28125 58.90625 
Q 39.453125 66.40625 31.78125 66.40625 
z
M 31.78125 74.21875 
Q 44.046875 74.21875 50.515625 64.515625 
Q 56.984375 54.828125 56.984375 36.375 
Q 56.984375 17.96875 50.515625 8.265625 
Q 44.046875 -1.421875 31.78125 -1.421875 
Q 19.53125 -1.421875 13.0625 8.265625 
Q 6.59375 17.96875 6.59375 36.375 
Q 6.59375 54.828125 13.0625 64.515625 
Q 19.53125 74.21875 31.78125 74.21875 
z
" id="DejaVuSans-30"/>
      </defs>
      <g style="fill:#262626;" transform="translate(49.570701 404.886625)scale(0.088 -0.088)">
       <use xlink:href="#DejaVuSans-39"/>
       <use x="63.623047" xlink:href="#DejaVuSans-2e"/>
       <use x="95.410156" xlink:href="#DejaVuSans-30"/>
      </g>
     </g>
    </g>
    <g id="xtick_2">
     <g id="line2d_2">
      <g>
       <use style="fill:#262626;stroke:#262626;" x="116.703703" xlink:href="#m91fd25bebf" y="389.9"/>
      </g>
     </g>
     <g id="text_2">
      <!-- 9.5 -->
      <defs>
       <path d="M 10.796875 72.90625 
L 49.515625 72.90625 
L 49.515625 64.59375 
L 19.828125 64.59375 
L 19.828125 46.734375 
Q 21.96875 47.46875 24.109375 47.828125 
Q 26.265625 48.1875 28.421875 48.1875 
Q 40.625 48.1875 47.75 41.5 
Q 54.890625 34.8125 54.890625 23.390625 
Q 54.890625 11.625 47.5625 5.09375 
Q 40.234375 -1.421875 26.90625 -1.421875 
Q 22.3125 -1.421875 17.546875 -0.640625 
Q 12.796875 0.140625 7.71875 1.703125 
L 7.71875 11.625 
Q 12.109375 9.234375 16.796875 8.0625 
Q 21.484375 6.890625 26.703125 6.890625 
Q 35.15625 6.890625 40.078125 11.328125 
Q 45.015625 15.765625 45.015625 23.390625 
Q 45.015625 31 40.078125 35.4375 
Q 35.15625 39.890625 26.703125 39.890625 
Q 22.75 39.890625 18.8125 39.015625 
Q 14.890625 38.140625 10.796875 36.28125 
z
" id="DejaVuSans-35"/>
      </defs>
      <g style="fill:#262626;" transform="translate(109.706328 404.886625)scale(0.088 -0.088)">
       <use xlink:href="#DejaVuSans-39"/>
       <use x="63.623047" xlink:href="#DejaVuSans-2e"/>
       <use x="95.410156" xlink:href="#DejaVuSans-35"/>
      </g>
     </g>
    </g>
    <g id="xtick_3">
     <g id="line2d_3">
      <g>
       <use style="fill:#262626;stroke:#262626;" x="176.83933" xlink:href="#m91fd25bebf" y="389.9"/>
      </g>
     </g>
     <g id="text_3">
      <!-- 10.0 -->
      <defs>
       <path d="M 12.40625 8.296875 
L 28.515625 8.296875 
L 28.515625 63.921875 
L 10.984375 60.40625 
L 10.984375 69.390625 
L 28.421875 72.90625 
L 38.28125 72.90625 
L 38.28125 8.296875 
L 54.390625 8.296875 
L 54.390625 0 
L 12.40625 0 
z
" id="DejaVuSans-31"/>
      </defs>
      <g style="fill:#262626;" transform="translate(167.042455 404.886625)scale(0.088 -0.088)">
       <use xlink:href="#DejaVuSans-31"/>
       <use x="63.623047" xlink:href="#DejaVuSans-30"/>
       <use x="127.246094" xlink:href="#DejaVuSans-2e"/>
       <use x="159.033203" xlink:href="#DejaVuSans-30"/>
      </g>
     </g>
    </g>
    <g id="xtick_4">
     <g id="line2d_4">
      <g>
       <use style="fill:#262626;stroke:#262626;" x="236.974957" xlink:href="#m91fd25bebf" y="389.9"/>
      </g>
     </g>
     <g id="text_4">
      <!-- 10.5 -->
      <g style="fill:#262626;" transform="translate(227.178082 404.886625)scale(0.088 -0.088)">
       <use xlink:href="#DejaVuSans-31"/>
       <use x="63.623047" xlink:href="#DejaVuSans-30"/>
       <use x="127.246094" xlink:href="#DejaVuSans-2e"/>
       <use x="159.033203" xlink:href="#DejaVuSans-35"/>
      </g>
     </g>
    </g>
    <g id="xtick_5">
     <g id="line2d_5">
      <g>
       <use style="fill:#262626;stroke:#262626;" x="297.110584" xlink:href="#m91fd25bebf" y="389.9"/>
      </g>
     </g>
     <g id="text_5">
      <!-- 11.0 -->
      <g style="fill:#262626;" transform="translate(287.313709 404.886625)scale(0.088 -0.088)">
       <use xlink:href="#DejaVuSans-31"/>
       <use x="63.623047" xlink:href="#DejaVuSans-31"/>
       <use x="127.246094" xlink:href="#DejaVuSans-2e"/>
       <use x="159.033203" xlink:href="#DejaVuSans-30"/>
      </g>
     </g>
    </g>
    <g id="text_6">
     <!-- log(n) -->
     <defs>
      <path d="M 9.421875 75.984375 
L 18.40625 75.984375 
L 18.40625 0 
L 9.421875 0 
z
" id="DejaVuSans-6c"/>
      <path d="M 30.609375 48.390625 
Q 23.390625 48.390625 19.1875 42.75 
Q 14.984375 37.109375 14.984375 27.296875 
Q 14.984375 17.484375 19.15625 11.84375 
Q 23.34375 6.203125 30.609375 6.203125 
Q 37.796875 6.203125 41.984375 11.859375 
Q 46.1875 17.53125 46.1875 27.296875 
Q 46.1875 37.015625 41.984375 42.703125 
Q 37.796875 48.390625 30.609375 48.390625 
z
M 30.609375 56 
Q 42.328125 56 49.015625 48.375 
Q 55.71875 40.765625 55.71875 27.296875 
Q 55.71875 13.875 49.015625 6.21875 
Q 42.328125 -1.421875 30.609375 -1.421875 
Q 18.84375 -1.421875 12.171875 6.21875 
Q 5.515625 13.875 5.515625 27.296875 
Q 5.515625 40.765625 12.171875 48.375 
Q 18.84375 56 30.609375 56 
z
" id="DejaVuSans-6f"/>
      <path d="M 45.40625 27.984375 
Q 45.40625 37.75 41.375 43.109375 
Q 37.359375 48.484375 30.078125 48.484375 
Q 22.859375 48.484375 18.828125 43.109375 
Q 14.796875 37.75 14.796875 27.984375 
Q 14.796875 18.265625 18.828125 12.890625 
Q 22.859375 7.515625 30.078125 7.515625 
Q 37.359375 7.515625 41.375 12.890625 
Q 45.40625 18.265625 45.40625 27.984375 
z
M 54.390625 6.78125 
Q 54.390625 -7.171875 48.1875 -13.984375 
Q 42 -20.796875 29.203125 -20.796875 
Q 24.46875 -20.796875 20.265625 -20.09375 
Q 16.0625 -19.390625 12.109375 -17.921875 
L 12.109375 -9.1875 
Q 16.0625 -11.328125 19.921875 -12.34375 
Q 23.78125 -13.375 27.78125 -13.375 
Q 36.625 -13.375 41.015625 -8.765625 
Q 45.40625 -4.15625 45.40625 5.171875 
L 45.40625 9.625 
Q 42.625 4.78125 38.28125 2.390625 
Q 33.9375 0 27.875 0 
Q 17.828125 0 11.671875 7.65625 
Q 5.515625 15.328125 5.515625 27.984375 
Q 5.515625 40.671875 11.671875 48.328125 
Q 17.828125 56 27.875 56 
Q 33.9375 56 38.28125 53.609375 
Q 42.625 51.21875 45.40625 46.390625 
L 45.40625 54.6875 
L 54.390625 54.6875 
z
" id="DejaVuSans-67"/>
      <path d="M 31 75.875 
Q 24.46875 64.65625 21.28125 53.65625 
Q 18.109375 42.671875 18.109375 31.390625 
Q 18.109375 20.125 21.3125 9.0625 
Q 24.515625 -2 31 -13.1875 
L 23.1875 -13.1875 
Q 15.875 -1.703125 12.234375 9.375 
Q 8.59375 20.453125 8.59375 31.390625 
Q 8.59375 42.28125 12.203125 53.3125 
Q 15.828125 64.359375 23.1875 75.875 
z
" id="DejaVuSans-28"/>
      <path d="M 54.890625 33.015625 
L 54.890625 0 
L 45.90625 0 
L 45.90625 32.71875 
Q 45.90625 40.484375 42.875 44.328125 
Q 39.84375 48.1875 33.796875 48.1875 
Q 26.515625 48.1875 22.3125 43.546875 
Q 18.109375 38.921875 18.109375 30.90625 
L 18.109375 0 
L 9.078125 0 
L 9.078125 54.6875 
L 18.109375 54.6875 
L 18.109375 46.1875 
Q 21.34375 51.125 25.703125 53.5625 
Q 30.078125 56 35.796875 56 
Q 45.21875 56 50.046875 50.171875 
Q 54.890625 44.34375 54.890625 33.015625 
z
" id="DejaVuSans-6e"/>
      <path d="M 8.015625 75.875 
L 15.828125 75.875 
Q 23.140625 64.359375 26.78125 53.3125 
Q 30.421875 42.28125 30.421875 31.390625 
Q 30.421875 20.453125 26.78125 9.375 
Q 23.140625 -1.703125 15.828125 -13.1875 
L 8.015625 -13.1875 
Q 14.5 -2 17.703125 9.0625 
Q 20.90625 20.125 20.90625 31.390625 
Q 20.90625 42.671875 17.703125 53.65625 
Q 14.5 64.65625 8.015625 75.875 
z
" id="DejaVuSans-29"/>
     </defs>
     <g style="fill:#262626;" transform="translate(186.773917 418.01125)scale(0.096 -0.096)">
      <use xlink:href="#DejaVuSans-6c"/>
      <use x="27.783203" xlink:href="#DejaVuSans-6f"/>
      <use x="88.964844" xlink:href="#DejaVuSans-67"/>
      <use x="152.441406" xlink:href="#DejaVuSans-28"/>
      <use x="191.455078" xlink:href="#DejaVuSans-6e"/>
      <use x="254.833984" xlink:href="#DejaVuSans-29"/>
     </g>
    </g>
   </g>
   <g id="matplotlib.axis_2">
    <g id="ytick_1">
     <g id="line2d_6">
      <defs>
       <path d="M 0 0 
L -4.8 0 
" id="m75a4cf4ca1" style="stroke:#262626;"/>
      </defs>
      <g>
       <use style="fill:#262626;stroke:#262626;" x="49.85" xlink:href="#m75a4cf4ca1" y="389.9"/>
      </g>
     </g>
     <g id="text_7">
      <!-- 0 -->
      <g style="fill:#262626;" transform="translate(35.951 393.243313)scale(0.088 -0.088)">
       <use xlink:href="#DejaVuSans-30"/>
      </g>
     </g>
    </g>
    <g id="ytick_2">
     <g id="line2d_7">
      <g>
       <use style="fill:#262626;stroke:#262626;" x="49.85" xlink:href="#m75a4cf4ca1" y="333.806061"/>
      </g>
     </g>
     <g id="text_8">
      <!-- 20 -->
      <defs>
       <path d="M 19.1875 8.296875 
L 53.609375 8.296875 
L 53.609375 0 
L 7.328125 0 
L 7.328125 8.296875 
Q 12.9375 14.109375 22.625 23.890625 
Q 32.328125 33.6875 34.8125 36.53125 
Q 39.546875 41.84375 41.421875 45.53125 
Q 43.3125 49.21875 43.3125 52.78125 
Q 43.3125 58.59375 39.234375 62.25 
Q 35.15625 65.921875 28.609375 65.921875 
Q 23.96875 65.921875 18.8125 64.3125 
Q 13.671875 62.703125 7.8125 59.421875 
L 7.8125 69.390625 
Q 13.765625 71.78125 18.9375 73 
Q 24.125 74.21875 28.421875 74.21875 
Q 39.75 74.21875 46.484375 68.546875 
Q 53.21875 62.890625 53.21875 53.421875 
Q 53.21875 48.921875 51.53125 44.890625 
Q 49.859375 40.875 45.40625 35.40625 
Q 44.1875 33.984375 37.640625 27.21875 
Q 31.109375 20.453125 19.1875 8.296875 
z
" id="DejaVuSans-32"/>
      </defs>
      <g style="fill:#262626;" transform="translate(30.352 337.149373)scale(0.088 -0.088)">
       <use xlink:href="#DejaVuSans-32"/>
       <use x="63.623047" xlink:href="#DejaVuSans-30"/>
      </g>
     </g>
    </g>
    <g id="ytick_3">
     <g id="line2d_8">
      <g>
       <use style="fill:#262626;stroke:#262626;" x="49.85" xlink:href="#m75a4cf4ca1" y="277.712121"/>
      </g>
     </g>
     <g id="text_9">
      <!-- 40 -->
      <defs>
       <path d="M 37.796875 64.3125 
L 12.890625 25.390625 
L 37.796875 25.390625 
z
M 35.203125 72.90625 
L 47.609375 72.90625 
L 47.609375 25.390625 
L 58.015625 25.390625 
L 58.015625 17.1875 
L 47.609375 17.1875 
L 47.609375 0 
L 37.796875 0 
L 37.796875 17.1875 
L 4.890625 17.1875 
L 4.890625 26.703125 
z
" id="DejaVuSans-34"/>
      </defs>
      <g style="fill:#262626;" transform="translate(30.352 281.055434)scale(0.088 -0.088)">
       <use xlink:href="#DejaVuSans-34"/>
       <use x="63.623047" xlink:href="#DejaVuSans-30"/>
      </g>
     </g>
    </g>
    <g id="ytick_4">
     <g id="line2d_9">
      <g>
       <use style="fill:#262626;stroke:#262626;" x="49.85" xlink:href="#m75a4cf4ca1" y="221.618182"/>
      </g>
     </g>
     <g id="text_10">
      <!-- 60 -->
      <defs>
       <path d="M 33.015625 40.375 
Q 26.375 40.375 22.484375 35.828125 
Q 18.609375 31.296875 18.609375 23.390625 
Q 18.609375 15.53125 22.484375 10.953125 
Q 26.375 6.390625 33.015625 6.390625 
Q 39.65625 6.390625 43.53125 10.953125 
Q 47.40625 15.53125 47.40625 23.390625 
Q 47.40625 31.296875 43.53125 35.828125 
Q 39.65625 40.375 33.015625 40.375 
z
M 52.59375 71.296875 
L 52.59375 62.3125 
Q 48.875 64.0625 45.09375 64.984375 
Q 41.3125 65.921875 37.59375 65.921875 
Q 27.828125 65.921875 22.671875 59.328125 
Q 17.53125 52.734375 16.796875 39.40625 
Q 19.671875 43.65625 24.015625 45.921875 
Q 28.375 48.1875 33.59375 48.1875 
Q 44.578125 48.1875 50.953125 41.515625 
Q 57.328125 34.859375 57.328125 23.390625 
Q 57.328125 12.15625 50.6875 5.359375 
Q 44.046875 -1.421875 33.015625 -1.421875 
Q 20.359375 -1.421875 13.671875 8.265625 
Q 6.984375 17.96875 6.984375 36.375 
Q 6.984375 53.65625 15.1875 63.9375 
Q 23.390625 74.21875 37.203125 74.21875 
Q 40.921875 74.21875 44.703125 73.484375 
Q 48.484375 72.75 52.59375 71.296875 
z
" id="DejaVuSans-36"/>
      </defs>
      <g style="fill:#262626;" transform="translate(30.352 224.961494)scale(0.088 -0.088)">
       <use xlink:href="#DejaVuSans-36"/>
       <use x="63.623047" xlink:href="#DejaVuSans-30"/>
      </g>
     </g>
    </g>
    <g id="ytick_5">
     <g id="line2d_10">
      <g>
       <use style="fill:#262626;stroke:#262626;" x="49.85" xlink:href="#m75a4cf4ca1" y="165.524242"/>
      </g>
     </g>
     <g id="text_11">
      <!-- 80 -->
      <defs>
       <path d="M 31.78125 34.625 
Q 24.75 34.625 20.71875 30.859375 
Q 16.703125 27.09375 16.703125 20.515625 
Q 16.703125 13.921875 20.71875 10.15625 
Q 24.75 6.390625 31.78125 6.390625 
Q 38.8125 6.390625 42.859375 10.171875 
Q 46.921875 13.96875 46.921875 20.515625 
Q 46.921875 27.09375 42.890625 30.859375 
Q 38.875 34.625 31.78125 34.625 
z
M 21.921875 38.8125 
Q 15.578125 40.375 12.03125 44.71875 
Q 8.5 49.078125 8.5 55.328125 
Q 8.5 64.0625 14.71875 69.140625 
Q 20.953125 74.21875 31.78125 74.21875 
Q 42.671875 74.21875 48.875 69.140625 
Q 55.078125 64.0625 55.078125 55.328125 
Q 55.078125 49.078125 51.53125 44.71875 
Q 48 40.375 41.703125 38.8125 
Q 48.828125 37.15625 52.796875 32.3125 
Q 56.78125 27.484375 56.78125 20.515625 
Q 56.78125 9.90625 50.3125 4.234375 
Q 43.84375 -1.421875 31.78125 -1.421875 
Q 19.734375 -1.421875 13.25 4.234375 
Q 6.78125 9.90625 6.78125 20.515625 
Q 6.78125 27.484375 10.78125 32.3125 
Q 14.796875 37.15625 21.921875 38.8125 
z
M 18.3125 54.390625 
Q 18.3125 48.734375 21.84375 45.5625 
Q 25.390625 42.390625 31.78125 42.390625 
Q 38.140625 42.390625 41.71875 45.5625 
Q 45.3125 48.734375 45.3125 54.390625 
Q 45.3125 60.0625 41.71875 63.234375 
Q 38.140625 66.40625 31.78125 66.40625 
Q 25.390625 66.40625 21.84375 63.234375 
Q 18.3125 60.0625 18.3125 54.390625 
z
" id="DejaVuSans-38"/>
      </defs>
      <g style="fill:#262626;" transform="translate(30.352 168.867555)scale(0.088 -0.088)">
       <use xlink:href="#DejaVuSans-38"/>
       <use x="63.623047" xlink:href="#DejaVuSans-30"/>
      </g>
     </g>
    </g>
    <g id="ytick_6">
     <g id="line2d_11">
      <g>
       <use style="fill:#262626;stroke:#262626;" x="49.85" xlink:href="#m75a4cf4ca1" y="109.430303"/>
      </g>
     </g>
     <g id="text_12">
      <!-- 100 -->
      <g style="fill:#262626;" transform="translate(24.753 112.773616)scale(0.088 -0.088)">
       <use xlink:href="#DejaVuSans-31"/>
       <use x="63.623047" xlink:href="#DejaVuSans-30"/>
       <use x="127.246094" xlink:href="#DejaVuSans-30"/>
      </g>
     </g>
    </g>
    <g id="text_13">
     <!-- Time to cancer -->
     <defs>
      <path d="M -0.296875 72.90625 
L 61.375 72.90625 
L 61.375 64.59375 
L 35.5 64.59375 
L 35.5 0 
L 25.59375 0 
L 25.59375 64.59375 
L -0.296875 64.59375 
z
" id="DejaVuSans-54"/>
      <path d="M 9.421875 54.6875 
L 18.40625 54.6875 
L 18.40625 0 
L 9.421875 0 
z
M 9.421875 75.984375 
L 18.40625 75.984375 
L 18.40625 64.59375 
L 9.421875 64.59375 
z
" id="DejaVuSans-69"/>
      <path d="M 52 44.1875 
Q 55.375 50.25 60.0625 53.125 
Q 64.75 56 71.09375 56 
Q 79.640625 56 84.28125 50.015625 
Q 88.921875 44.046875 88.921875 33.015625 
L 88.921875 0 
L 79.890625 0 
L 79.890625 32.71875 
Q 79.890625 40.578125 77.09375 44.375 
Q 74.3125 48.1875 68.609375 48.1875 
Q 61.625 48.1875 57.5625 43.546875 
Q 53.515625 38.921875 53.515625 30.90625 
L 53.515625 0 
L 44.484375 0 
L 44.484375 32.71875 
Q 44.484375 40.625 41.703125 44.40625 
Q 38.921875 48.1875 33.109375 48.1875 
Q 26.21875 48.1875 22.15625 43.53125 
Q 18.109375 38.875 18.109375 30.90625 
L 18.109375 0 
L 9.078125 0 
L 9.078125 54.6875 
L 18.109375 54.6875 
L 18.109375 46.1875 
Q 21.1875 51.21875 25.484375 53.609375 
Q 29.78125 56 35.6875 56 
Q 41.65625 56 45.828125 52.96875 
Q 50 49.953125 52 44.1875 
z
" id="DejaVuSans-6d"/>
      <path d="M 56.203125 29.59375 
L 56.203125 25.203125 
L 14.890625 25.203125 
Q 15.484375 15.921875 20.484375 11.0625 
Q 25.484375 6.203125 34.421875 6.203125 
Q 39.59375 6.203125 44.453125 7.46875 
Q 49.3125 8.734375 54.109375 11.28125 
L 54.109375 2.78125 
Q 49.265625 0.734375 44.1875 -0.34375 
Q 39.109375 -1.421875 33.890625 -1.421875 
Q 20.796875 -1.421875 13.15625 6.1875 
Q 5.515625 13.8125 5.515625 26.8125 
Q 5.515625 40.234375 12.765625 48.109375 
Q 20.015625 56 32.328125 56 
Q 43.359375 56 49.78125 48.890625 
Q 56.203125 41.796875 56.203125 29.59375 
z
M 47.21875 32.234375 
Q 47.125 39.59375 43.09375 43.984375 
Q 39.0625 48.390625 32.421875 48.390625 
Q 24.90625 48.390625 20.390625 44.140625 
Q 15.875 39.890625 15.1875 32.171875 
z
" id="DejaVuSans-65"/>
      <path id="DejaVuSans-20"/>
      <path d="M 18.3125 70.21875 
L 18.3125 54.6875 
L 36.8125 54.6875 
L 36.8125 47.703125 
L 18.3125 47.703125 
L 18.3125 18.015625 
Q 18.3125 11.328125 20.140625 9.421875 
Q 21.96875 7.515625 27.59375 7.515625 
L 36.8125 7.515625 
L 36.8125 0 
L 27.59375 0 
Q 17.1875 0 13.234375 3.875 
Q 9.28125 7.765625 9.28125 18.015625 
L 9.28125 47.703125 
L 2.6875 47.703125 
L 2.6875 54.6875 
L 9.28125 54.6875 
L 9.28125 70.21875 
z
" id="DejaVuSans-74"/>
      <path d="M 48.78125 52.59375 
L 48.78125 44.1875 
Q 44.96875 46.296875 41.140625 47.34375 
Q 37.3125 48.390625 33.40625 48.390625 
Q 24.65625 48.390625 19.8125 42.84375 
Q 14.984375 37.3125 14.984375 27.296875 
Q 14.984375 17.28125 19.8125 11.734375 
Q 24.65625 6.203125 33.40625 6.203125 
Q 37.3125 6.203125 41.140625 7.25 
Q 44.96875 8.296875 48.78125 10.40625 
L 48.78125 2.09375 
Q 45.015625 0.34375 40.984375 -0.53125 
Q 36.96875 -1.421875 32.421875 -1.421875 
Q 20.0625 -1.421875 12.78125 6.34375 
Q 5.515625 14.109375 5.515625 27.296875 
Q 5.515625 40.671875 12.859375 48.328125 
Q 20.21875 56 33.015625 56 
Q 37.15625 56 41.109375 55.140625 
Q 45.0625 54.296875 48.78125 52.59375 
z
" id="DejaVuSans-63"/>
      <path d="M 34.28125 27.484375 
Q 23.390625 27.484375 19.1875 25 
Q 14.984375 22.515625 14.984375 16.5 
Q 14.984375 11.71875 18.140625 8.90625 
Q 21.296875 6.109375 26.703125 6.109375 
Q 34.1875 6.109375 38.703125 11.40625 
Q 43.21875 16.703125 43.21875 25.484375 
L 43.21875 27.484375 
z
M 52.203125 31.203125 
L 52.203125 0 
L 43.21875 0 
L 43.21875 8.296875 
Q 40.140625 3.328125 35.546875 0.953125 
Q 30.953125 -1.421875 24.3125 -1.421875 
Q 15.921875 -1.421875 10.953125 3.296875 
Q 6 8.015625 6 15.921875 
Q 6 25.140625 12.171875 29.828125 
Q 18.359375 34.515625 30.609375 34.515625 
L 43.21875 34.515625 
L 43.21875 35.40625 
Q 43.21875 41.609375 39.140625 45 
Q 35.0625 48.390625 27.6875 48.390625 
Q 23 48.390625 18.546875 47.265625 
Q 14.109375 46.140625 10.015625 43.890625 
L 10.015625 52.203125 
Q 14.9375 54.109375 19.578125 55.046875 
Q 24.21875 56 28.609375 56 
Q 40.484375 56 46.34375 49.84375 
Q 52.203125 43.703125 52.203125 31.203125 
z
" id="DejaVuSans-61"/>
      <path d="M 41.109375 46.296875 
Q 39.59375 47.171875 37.8125 47.578125 
Q 36.03125 48 33.890625 48 
Q 26.265625 48 22.1875 43.046875 
Q 18.109375 38.09375 18.109375 28.8125 
L 18.109375 0 
L 9.078125 0 
L 9.078125 54.6875 
L 18.109375 54.6875 
L 18.109375 46.1875 
Q 20.953125 51.171875 25.484375 53.578125 
Q 30.03125 56 36.53125 56 
Q 37.453125 56 38.578125 55.875 
Q 39.703125 55.765625 41.0625 55.515625 
z
" id="DejaVuSans-72"/>
     </defs>
     <g style="fill:#262626;" transform="translate(18.7565 271.592167)rotate(-90)scale(0.096 -0.096)">
      <use xlink:href="#DejaVuSans-54"/>
      <use x="61.037109" xlink:href="#DejaVuSans-69"/>
      <use x="88.820312" xlink:href="#DejaVuSans-6d"/>
      <use x="186.232422" xlink:href="#DejaVuSans-65"/>
      <use x="247.755859" xlink:href="#DejaVuSans-20"/>
      <use x="279.542969" xlink:href="#DejaVuSans-74"/>
      <use x="318.751953" xlink:href="#DejaVuSans-6f"/>
      <use x="379.933594" xlink:href="#DejaVuSans-20"/>
      <use x="411.720703" xlink:href="#DejaVuSans-63"/>
      <use x="466.701172" xlink:href="#DejaVuSans-61"/>
      <use x="527.980469" xlink:href="#DejaVuSans-6e"/>
      <use x="591.359375" xlink:href="#DejaVuSans-63"/>
      <use x="646.339844" xlink:href="#DejaVuSans-65"/>
      <use x="707.863281" xlink:href="#DejaVuSans-72"/>
     </g>
    </g>
   </g>
   <g id="PathCollection_1">
    <defs>
     <path d="M 0 2.4 
C 0.636487 2.4 1.246992 2.147121 1.697056 1.697056 
C 2.147121 1.246992 2.4 0.636487 2.4 0 
C 2.4 -0.636487 2.147121 -1.246992 1.697056 -1.697056 
C 1.246992 -2.147121 0.636487 -2.4 0 -2.4 
C -0.636487 -2.4 -1.246992 -2.147121 -1.697056 -1.697056 
C -2.147121 -1.246992 -2.4 -0.636487 -2.4 0 
C -2.4 0.636487 -2.147121 1.246992 -1.697056 1.697056 
C -1.246992 2.147121 -0.636487 2.4 0 2.4 
z
" id="mf6790e19c8" style="stroke:#471365;stroke-opacity:0.8;"/>
    </defs>
    <g clip-path="url(#pe856d06ac6)">
     <use style="fill:#471365;fill-opacity:0.8;stroke:#471365;stroke-opacity:0.8;" x="241.203906" xlink:href="#mf6790e19c8" y="123.622838"/>
     <use style="fill:#471365;fill-opacity:0.8;stroke:#471365;stroke-opacity:0.8;" x="223.579153" xlink:href="#mf6790e19c8" y="126.081751"/>
     <use style="fill:#471365;fill-opacity:0.8;stroke:#471365;stroke-opacity:0.8;" x="268.903032" xlink:href="#mf6790e19c8" y="140.243549"/>
     <use style="fill:#471365;fill-opacity:0.8;stroke:#471365;stroke-opacity:0.8;" x="273.217729" xlink:href="#mf6790e19c8" y="177.703543"/>
     <use style="fill:#471365;fill-opacity:0.8;stroke:#471365;stroke-opacity:0.8;" x="272.604311" xlink:href="#mf6790e19c8" y="201.893094"/>
     <use style="fill:#471365;fill-opacity:0.8;stroke:#471365;stroke-opacity:0.8;" x="125.136669" xlink:href="#mf6790e19c8" y="110.337027"/>
     <use style="fill:#471365;fill-opacity:0.8;stroke:#471365;stroke-opacity:0.8;" x="246.597595" xlink:href="#mf6790e19c8" y="207.571645"/>
     <use style="fill:#471365;fill-opacity:0.8;stroke:#471365;stroke-opacity:0.8;" x="214.122564" xlink:href="#mf6790e19c8" y="166.346441"/>
     <use style="fill:#471365;fill-opacity:0.8;stroke:#471365;stroke-opacity:0.8;" x="246.462835" xlink:href="#mf6790e19c8" y="125.720598"/>
     <use style="fill:#471365;fill-opacity:0.8;stroke:#471365;stroke-opacity:0.8;" x="157.220933" xlink:href="#mf6790e19c8" y="167.376111"/>
     <use style="fill:#471365;fill-opacity:0.8;stroke:#471365;stroke-opacity:0.8;" x="177.9118" xlink:href="#mf6790e19c8" y="141.972472"/>
     <use style="fill:#471365;fill-opacity:0.8;stroke:#471365;stroke-opacity:0.8;" x="260.166947" xlink:href="#mf6790e19c8" y="198.158621"/>
     <use style="fill:#471365;fill-opacity:0.8;stroke:#471365;stroke-opacity:0.8;" x="215.735221" xlink:href="#mf6790e19c8" y="216.008788"/>
     <use style="fill:#471365;fill-opacity:0.8;stroke:#471365;stroke-opacity:0.8;" x="184.682081" xlink:href="#mf6790e19c8" y="184.934282"/>
     <use style="fill:#471365;fill-opacity:0.8;stroke:#471365;stroke-opacity:0.8;" x="176.877027" xlink:href="#mf6790e19c8" y="109.507144"/>
     <use style="fill:#471365;fill-opacity:0.8;stroke:#471365;stroke-opacity:0.8;" x="254.475565" xlink:href="#mf6790e19c8" y="185.095648"/>
     <use style="fill:#471365;fill-opacity:0.8;stroke:#471365;stroke-opacity:0.8;" x="234.018911" xlink:href="#mf6790e19c8" y="165.50119"/>
     <use style="fill:#471365;fill-opacity:0.8;stroke:#471365;stroke-opacity:0.8;" x="257.855782" xlink:href="#mf6790e19c8" y="159.400014"/>
     <use style="fill:#471365;fill-opacity:0.8;stroke:#471365;stroke-opacity:0.8;" x="235.557263" xlink:href="#mf6790e19c8" y="122.40875"/>
     <use style="fill:#471365;fill-opacity:0.8;stroke:#471365;stroke-opacity:0.8;" x="266.901665" xlink:href="#mf6790e19c8" y="197.536208"/>
     <use style="fill:#471365;fill-opacity:0.8;stroke:#471365;stroke-opacity:0.8;" x="276.621664" xlink:href="#mf6790e19c8" y="118.374597"/>
     <use style="fill:#471365;fill-opacity:0.8;stroke:#471365;stroke-opacity:0.8;" x="268.619167" xlink:href="#mf6790e19c8" y="229.640384"/>
     <use style="fill:#471365;fill-opacity:0.8;stroke:#471365;stroke-opacity:0.8;" x="225.695772" xlink:href="#mf6790e19c8" y="180.047194"/>
     <use style="fill:#471365;fill-opacity:0.8;stroke:#471365;stroke-opacity:0.8;" x="155.145107" xlink:href="#mf6790e19c8" y="142.356677"/>
     <use style="fill:#471365;fill-opacity:0.8;stroke:#471365;stroke-opacity:0.8;" x="260.235059" xlink:href="#mf6790e19c8" y="228.833553"/>
     <use style="fill:#471365;fill-opacity:0.8;stroke:#471365;stroke-opacity:0.8;" x="223.974996" xlink:href="#mf6790e19c8" y="167.207061"/>
     <use style="fill:#471365;fill-opacity:0.8;stroke:#471365;stroke-opacity:0.8;" x="223.193138" xlink:href="#mf6790e19c8" y="175.33684"/>
     <use style="fill:#471365;fill-opacity:0.8;stroke:#471365;stroke-opacity:0.8;" x="206.018296" xlink:href="#mf6790e19c8" y="190.420731"/>
     <use style="fill:#471365;fill-opacity:0.8;stroke:#471365;stroke-opacity:0.8;" x="220.805447" xlink:href="#mf6790e19c8" y="139.767135"/>
     <use style="fill:#471365;fill-opacity:0.8;stroke:#471365;stroke-opacity:0.8;" x="256.99147" xlink:href="#mf6790e19c8" y="211.813269"/>
     <use style="fill:#471365;fill-opacity:0.8;stroke:#471365;stroke-opacity:0.8;" x="252.481952" xlink:href="#mf6790e19c8" y="194.48562"/>
     <use style="fill:#471365;fill-opacity:0.8;stroke:#471365;stroke-opacity:0.8;" x="209.18758" xlink:href="#mf6790e19c8" y="167.837157"/>
     <use style="fill:#471365;fill-opacity:0.8;stroke:#471365;stroke-opacity:0.8;" x="258.037537" xlink:href="#mf6790e19c8" y="130.623054"/>
     <use style="fill:#471365;fill-opacity:0.8;stroke:#471365;stroke-opacity:0.8;" x="236.255103" xlink:href="#mf6790e19c8" y="186.640153"/>
     <use style="fill:#471365;fill-opacity:0.8;stroke:#471365;stroke-opacity:0.8;" x="246.751245" xlink:href="#mf6790e19c8" y="114.93212"/>
     <use style="fill:#471365;fill-opacity:0.8;stroke:#471365;stroke-opacity:0.8;" x="253.958327" xlink:href="#mf6790e19c8" y="122.093702"/>
     <use style="fill:#471365;fill-opacity:0.8;stroke:#471365;stroke-opacity:0.8;" x="263.785115" xlink:href="#mf6790e19c8" y="136.632022"/>
     <use style="fill:#471365;fill-opacity:0.8;stroke:#471365;stroke-opacity:0.8;" x="228.491561" xlink:href="#mf6790e19c8" y="142.487307"/>
     <use style="fill:#471365;fill-opacity:0.8;stroke:#471365;stroke-opacity:0.8;" x="265.820297" xlink:href="#mf6790e19c8" y="209.131517"/>
     <use style="fill:#471365;fill-opacity:0.8;stroke:#471365;stroke-opacity:0.8;" x="247.639179" xlink:href="#mf6790e19c8" y="179.086681"/>
     <use style="fill:#471365;fill-opacity:0.8;stroke:#471365;stroke-opacity:0.8;" x="233.805415" xlink:href="#mf6790e19c8" y="119.557949"/>
     <use style="fill:#471365;fill-opacity:0.8;stroke:#471365;stroke-opacity:0.8;" x="265.427939" xlink:href="#mf6790e19c8" y="147.681759"/>
     <use style="fill:#471365;fill-opacity:0.8;stroke:#471365;stroke-opacity:0.8;" x="244.378896" xlink:href="#mf6790e19c8" y="174.660639"/>
    </g>
   </g>
   <g id="PolyCollection_1">
    <defs>
     <path d="M 63.579924 -356.79123 
L 63.579924 -265.066228 
L 66.353646 -265.06069 
L 69.127368 -265.105124 
L 71.90109 -265.232465 
L 74.674813 -265.359806 
L 77.448535 -265.469419 
L 80.222257 -265.49647 
L 82.995979 -265.523742 
L 85.769701 -265.551924 
L 88.543423 -265.580106 
L 91.317145 -265.608288 
L 94.090867 -265.57434 
L 96.864589 -265.519408 
L 99.638311 -265.464476 
L 102.412033 -265.409544 
L 105.185755 -265.354613 
L 107.959477 -265.342453 
L 110.733199 -265.338997 
L 113.506921 -265.183522 
L 116.280644 -265.264677 
L 119.054366 -265.401429 
L 121.828088 -265.514986 
L 124.60181 -265.550791 
L 127.375532 -265.586597 
L 130.149254 -265.552589 
L 132.922976 -265.516689 
L 135.696698 -265.48079 
L 138.47042 -265.44489 
L 141.244142 -265.410323 
L 144.017864 -265.423608 
L 146.791586 -265.518586 
L 149.565308 -265.852635 
L 152.33903 -265.908847 
L 155.112753 -265.944652 
L 157.886475 -265.980458 
L 160.660197 -266.019479 
L 163.433919 -266.060446 
L 166.207641 -266.101413 
L 168.981363 -266.21344 
L 171.755085 -266.304255 
L 174.528807 -266.210701 
L 177.302529 -266.241398 
L 180.076251 -266.272094 
L 182.849973 -266.303639 
L 185.623695 -265.999458 
L 188.397417 -265.929934 
L 191.171139 -266.080031 
L 193.944861 -266.033238 
L 196.718584 -265.791154 
L 199.492306 -265.679147 
L 202.266028 -265.412953 
L 205.03975 -265.268226 
L 207.813472 -265.023712 
L 210.587194 -264.637469 
L 213.360916 -264.482454 
L 216.134638 -263.874278 
L 218.90836 -263.381626 
L 221.682082 -262.912369 
L 224.455804 -262.211622 
L 227.229526 -261.301788 
L 230.003248 -260.369856 
L 232.77697 -259.523504 
L 235.550693 -258.745017 
L 238.324415 -257.766987 
L 241.098137 -256.530943 
L 243.871859 -255.557577 
L 246.645581 -254.309445 
L 249.419303 -252.96925 
L 252.193025 -251.863509 
L 254.966747 -250.696512 
L 257.740469 -249.410473 
L 260.514191 -248.128611 
L 263.287913 -246.925414 
L 266.061635 -245.656107 
L 268.835357 -244.415647 
L 271.609079 -242.985024 
L 274.382801 -241.647278 
L 277.156524 -240.363555 
L 279.930246 -239.109308 
L 282.703968 -237.807265 
L 285.47769 -236.386979 
L 288.251412 -234.959722 
L 291.025134 -233.417948 
L 293.798856 -231.71298 
L 296.572578 -230.465942 
L 299.3463 -229.228766 
L 302.120022 -227.859221 
L 304.893744 -226.355709 
L 307.667466 -224.852196 
L 310.441188 -223.549962 
L 313.21491 -222.219398 
L 315.988633 -220.905317 
L 318.762355 -219.392042 
L 321.536077 -217.681418 
L 324.309799 -216.07598 
L 327.083521 -214.680621 
L 329.857243 -213.28793 
L 332.630965 -211.895338 
L 335.404687 -210.530109 
L 338.178409 -209.176301 
L 338.178409 -274.687877 
L 338.178409 -274.687877 
L 335.404687 -274.686583 
L 332.630965 -274.685289 
L 329.857243 -274.614283 
L 327.083521 -274.383857 
L 324.309799 -274.384079 
L 321.536077 -274.424963 
L 318.762355 -274.186247 
L 315.988633 -274.077287 
L 313.21491 -274.143604 
L 310.441188 -274.206984 
L 307.667466 -274.247091 
L 304.893744 -273.902796 
L 302.120022 -273.558502 
L 299.3463 -273.646553 
L 296.572578 -273.851863 
L 293.798856 -274.055327 
L 291.025134 -274.124281 
L 288.251412 -273.983424 
L 285.47769 -273.840711 
L 282.703968 -273.765923 
L 279.930246 -273.598896 
L 277.156524 -273.817616 
L 274.382801 -273.675535 
L 271.609079 -273.789507 
L 268.835357 -273.797806 
L 266.061635 -274.117771 
L 263.287913 -274.265122 
L 260.514191 -274.266161 
L 257.740469 -274.667022 
L 254.966747 -274.814438 
L 252.193025 -275.006608 
L 249.419303 -275.421313 
L 246.645581 -275.738031 
L 243.871859 -276.024566 
L 241.098137 -276.61778 
L 238.324415 -277.466733 
L 235.550693 -277.975097 
L 232.77697 -278.605846 
L 230.003248 -279.215905 
L 227.229526 -280.007243 
L 224.455804 -280.716973 
L 221.682082 -281.610383 
L 218.90836 -282.19647 
L 216.134638 -283.188818 
L 213.360916 -284.487722 
L 210.587194 -285.980258 
L 207.813472 -286.738702 
L 205.03975 -287.778727 
L 202.266028 -289.043643 
L 199.492306 -290.243792 
L 196.718584 -291.564259 
L 193.944861 -292.856764 
L 191.171139 -293.991258 
L 188.397417 -295.392429 
L 185.623695 -296.495399 
L 182.849973 -297.57528 
L 180.076251 -298.526064 
L 177.302529 -299.739948 
L 174.528807 -300.931994 
L 171.755085 -302.277371 
L 168.981363 -303.622748 
L 166.207641 -304.862007 
L 163.433919 -305.935913 
L 160.660197 -307.014786 
L 157.886475 -308.233971 
L 155.112753 -309.402167 
L 152.33903 -310.86989 
L 149.565308 -312.266957 
L 146.791586 -313.713485 
L 144.017864 -315.081181 
L 141.244142 -316.446226 
L 138.47042 -317.857318 
L 135.696698 -319.350434 
L 132.922976 -320.78673 
L 130.149254 -322.059025 
L 127.375532 -323.523548 
L 124.60181 -324.934353 
L 121.828088 -326.35524 
L 119.054366 -327.828979 
L 116.280644 -329.302717 
L 113.506921 -330.676834 
L 110.733199 -332.126574 
L 107.959477 -333.575607 
L 105.185755 -334.89536 
L 102.412033 -336.194832 
L 99.638311 -337.698005 
L 96.864589 -339.201178 
L 94.090867 -340.783536 
L 91.317145 -342.280048 
L 88.543423 -343.730684 
L 85.769701 -345.178056 
L 82.995979 -346.629703 
L 80.222257 -348.08135 
L 77.448535 -349.532996 
L 74.674813 -350.984643 
L 71.90109 -352.43629 
L 69.127368 -353.887937 
L 66.353646 -355.339584 
L 63.579924 -356.79123 
z
" id="mfc403125a2" style="stroke:#ffffff;stroke-opacity:0.15;stroke-width:0.8;"/>
    </defs>
    <g clip-path="url(#pe856d06ac6)">
     <use style="fill:#471365;fill-opacity:0.15;stroke:#ffffff;stroke-opacity:0.15;stroke-width:0.8;" x="0" xlink:href="#mfc403125a2" y="432"/>
    </g>
   </g>
   <g id="line2d_12">
    <path clip-path="url(#pe856d06ac6)" d="M 63.579924 116.195411 
L 66.353646 116.968391 
L 69.127368 117.741371 
L 71.90109 118.514351 
L 74.674813 119.287332 
L 77.448535 120.060312 
L 80.222257 120.833292 
L 82.995979 121.606272 
L 85.769701 122.379252 
L 88.543423 123.152232 
L 91.317145 123.925212 
L 94.090867 124.698192 
L 96.864589 125.471172 
L 99.638311 126.244152 
L 102.412033 127.017132 
L 105.185755 127.790113 
L 107.959477 128.563093 
L 110.733199 129.336073 
L 113.506921 130.109053 
L 116.280644 130.882033 
L 119.054366 131.655013 
L 121.828088 132.427993 
L 124.60181 133.200973 
L 127.375532 133.973953 
L 130.149254 134.746933 
L 132.922976 135.519913 
L 135.696698 136.292893 
L 138.47042 137.065874 
L 141.244142 137.838854 
L 144.017864 138.611834 
L 146.791586 139.384814 
L 149.565308 140.157794 
L 152.33903 140.930774 
L 155.112753 141.703754 
L 157.886475 142.476734 
L 160.660197 143.249714 
L 163.433919 144.022694 
L 166.207641 144.795674 
L 168.981363 145.568654 
L 171.755085 146.341635 
L 174.528807 147.114615 
L 177.302529 147.887595 
L 180.076251 148.660575 
L 182.849973 149.433555 
L 185.623695 150.206535 
L 188.397417 150.979515 
L 191.171139 151.752495 
L 193.944861 152.525475 
L 196.718584 153.298455 
L 199.492306 154.071435 
L 202.266028 154.844415 
L 205.03975 155.617396 
L 207.813472 156.390376 
L 210.587194 157.163356 
L 213.360916 157.936336 
L 216.134638 158.709316 
L 218.90836 159.482296 
L 221.682082 160.255276 
L 224.455804 161.028256 
L 227.229526 161.801236 
L 230.003248 162.574216 
L 232.77697 163.347196 
L 235.550693 164.120177 
L 238.324415 164.893157 
L 241.098137 165.666137 
L 243.871859 166.439117 
L 246.645581 167.212097 
L 249.419303 167.985077 
L 252.193025 168.758057 
L 254.966747 169.531037 
L 257.740469 170.304017 
L 260.514191 171.076997 
L 263.287913 171.849977 
L 266.061635 172.622957 
L 268.835357 173.395938 
L 271.609079 174.168918 
L 274.382801 174.941898 
L 277.156524 175.714878 
L 279.930246 176.487858 
L 282.703968 177.260838 
L 285.47769 178.033818 
L 288.251412 178.806798 
L 291.025134 179.579778 
L 293.798856 180.352758 
L 296.572578 181.125738 
L 299.3463 181.898718 
L 302.120022 182.671699 
L 304.893744 183.444679 
L 307.667466 184.217659 
L 310.441188 184.990639 
L 313.21491 185.763619 
L 315.988633 186.536599 
L 318.762355 187.309579 
L 321.536077 188.082559 
L 324.309799 188.855539 
L 327.083521 189.628519 
L 329.857243 190.401499 
L 332.630965 191.174479 
L 335.404687 191.94746 
L 338.178409 192.72044 
" style="fill:none;stroke:#471365;stroke-linecap:round;stroke-width:1.8;"/>
   </g>
   <g id="patch_3">
    <path d="M 49.85 389.9 
L 49.85 81.383333 
" style="fill:none;stroke:#262626;stroke-linecap:square;stroke-linejoin:miter;"/>
   </g>
   <g id="patch_4">
    <path d="M 49.85 389.9 
L 351.908333 389.9 
" style="fill:none;stroke:#262626;stroke-linecap:square;stroke-linejoin:miter;"/>
   </g>
   <g id="legend_1">
    <g id="patch_5">
     <path d="M 193.168708 101.340083 
L 345.748333 101.340083 
Q 347.508333 101.340083 347.508333 99.580083 
L 347.508333 87.543333 
Q 347.508333 85.783333 345.748333 85.783333 
L 193.168708 85.783333 
Q 191.408708 85.783333 191.408708 87.543333 
L 191.408708 99.580083 
Q 191.408708 101.340083 193.168708 101.340083 
z
" style="fill:#ffffff;opacity:0.8;stroke:#cccccc;stroke-linejoin:miter;stroke-width:0.8;"/>
    </g>
    <g id="line2d_13"/>
    <g id="line2d_14"/>
    <g id="text_14">
     <!-- pearsonr = -0.28; p = 0.066 -->
     <defs>
      <path d="M 18.109375 8.203125 
L 18.109375 -20.796875 
L 9.078125 -20.796875 
L 9.078125 54.6875 
L 18.109375 54.6875 
L 18.109375 46.390625 
Q 20.953125 51.265625 25.265625 53.625 
Q 29.59375 56 35.59375 56 
Q 45.5625 56 51.78125 48.09375 
Q 58.015625 40.1875 58.015625 27.296875 
Q 58.015625 14.40625 51.78125 6.484375 
Q 45.5625 -1.421875 35.59375 -1.421875 
Q 29.59375 -1.421875 25.265625 0.953125 
Q 20.953125 3.328125 18.109375 8.203125 
z
M 48.6875 27.296875 
Q 48.6875 37.203125 44.609375 42.84375 
Q 40.53125 48.484375 33.40625 48.484375 
Q 26.265625 48.484375 22.1875 42.84375 
Q 18.109375 37.203125 18.109375 27.296875 
Q 18.109375 17.390625 22.1875 11.75 
Q 26.265625 6.109375 33.40625 6.109375 
Q 40.53125 6.109375 44.609375 11.75 
Q 48.6875 17.390625 48.6875 27.296875 
z
" id="DejaVuSans-70"/>
      <path d="M 44.28125 53.078125 
L 44.28125 44.578125 
Q 40.484375 46.53125 36.375 47.5 
Q 32.28125 48.484375 27.875 48.484375 
Q 21.1875 48.484375 17.84375 46.4375 
Q 14.5 44.390625 14.5 40.28125 
Q 14.5 37.15625 16.890625 35.375 
Q 19.28125 33.59375 26.515625 31.984375 
L 29.59375 31.296875 
Q 39.15625 29.25 43.1875 25.515625 
Q 47.21875 21.78125 47.21875 15.09375 
Q 47.21875 7.46875 41.1875 3.015625 
Q 35.15625 -1.421875 24.609375 -1.421875 
Q 20.21875 -1.421875 15.453125 -0.5625 
Q 10.6875 0.296875 5.421875 2 
L 5.421875 11.28125 
Q 10.40625 8.6875 15.234375 7.390625 
Q 20.0625 6.109375 24.8125 6.109375 
Q 31.15625 6.109375 34.5625 8.28125 
Q 37.984375 10.453125 37.984375 14.40625 
Q 37.984375 18.0625 35.515625 20.015625 
Q 33.0625 21.96875 24.703125 23.78125 
L 21.578125 24.515625 
Q 13.234375 26.265625 9.515625 29.90625 
Q 5.8125 33.546875 5.8125 39.890625 
Q 5.8125 47.609375 11.28125 51.796875 
Q 16.75 56 26.8125 56 
Q 31.78125 56 36.171875 55.265625 
Q 40.578125 54.546875 44.28125 53.078125 
z
" id="DejaVuSans-73"/>
      <path d="M 10.59375 45.40625 
L 73.1875 45.40625 
L 73.1875 37.203125 
L 10.59375 37.203125 
z
M 10.59375 25.484375 
L 73.1875 25.484375 
L 73.1875 17.1875 
L 10.59375 17.1875 
z
" id="DejaVuSans-3d"/>
      <path d="M 4.890625 31.390625 
L 31.203125 31.390625 
L 31.203125 23.390625 
L 4.890625 23.390625 
z
" id="DejaVuSans-2d"/>
      <path d="M 11.71875 51.703125 
L 22.015625 51.703125 
L 22.015625 39.3125 
L 11.71875 39.3125 
z
M 11.71875 12.40625 
L 22.015625 12.40625 
L 22.015625 4 
L 14.015625 -11.625 
L 7.71875 -11.625 
L 11.71875 4 
z
" id="DejaVuSans-3b"/>
     </defs>
     <g style="fill:#262626;" transform="translate(219.568708 95.989958)scale(0.088 -0.088)">
      <use xlink:href="#DejaVuSans-70"/>
      <use x="63.476562" xlink:href="#DejaVuSans-65"/>
      <use x="125" xlink:href="#DejaVuSans-61"/>
      <use x="186.279297" xlink:href="#DejaVuSans-72"/>
      <use x="227.392578" xlink:href="#DejaVuSans-73"/>
      <use x="279.492188" xlink:href="#DejaVuSans-6f"/>
      <use x="340.673828" xlink:href="#DejaVuSans-6e"/>
      <use x="404.052734" xlink:href="#DejaVuSans-72"/>
      <use x="445.166016" xlink:href="#DejaVuSans-20"/>
      <use x="476.953125" xlink:href="#DejaVuSans-3d"/>
      <use x="560.742188" xlink:href="#DejaVuSans-20"/>
      <use x="592.529297" xlink:href="#DejaVuSans-2d"/>
      <use x="628.613281" xlink:href="#DejaVuSans-30"/>
      <use x="692.236328" xlink:href="#DejaVuSans-2e"/>
      <use x="724.023438" xlink:href="#DejaVuSans-32"/>
      <use x="787.646484" xlink:href="#DejaVuSans-38"/>
      <use x="851.269531" xlink:href="#DejaVuSans-3b"/>
      <use x="884.960938" xlink:href="#DejaVuSans-20"/>
      <use x="916.748047" xlink:href="#DejaVuSans-70"/>
      <use x="980.224609" xlink:href="#DejaVuSans-20"/>
      <use x="1012.011719" xlink:href="#DejaVuSans-3d"/>
      <use x="1095.800781" xlink:href="#DejaVuSans-20"/>
      <use x="1127.587891" xlink:href="#DejaVuSans-30"/>
      <use x="1191.210938" xlink:href="#DejaVuSans-2e"/>
      <use x="1222.998047" xlink:href="#DejaVuSans-30"/>
      <use x="1286.621094" xlink:href="#DejaVuSans-36"/>
      <use x="1350.244141" xlink:href="#DejaVuSans-36"/>
     </g>
    </g>
   </g>
  </g>
  <g id="axes_2">
   <g id="patch_6">
    <path d="M 49.85 60.983333 
L 351.908333 60.983333 
L 351.908333 15.6 
L 49.85 15.6 
z
" style="fill:#ffffff;"/>
   </g>
   <g id="matplotlib.axis_3">
    <g id="xtick_6">
     <g id="line2d_15">
      <g>
       <use style="fill:#262626;stroke:#262626;" x="56.568076" xlink:href="#m91fd25bebf" y="60.983333"/>
      </g>
     </g>
    </g>
    <g id="xtick_7">
     <g id="line2d_16">
      <g>
       <use style="fill:#262626;stroke:#262626;" x="116.703703" xlink:href="#m91fd25bebf" y="60.983333"/>
      </g>
     </g>
    </g>
    <g id="xtick_8">
     <g id="line2d_17">
      <g>
       <use style="fill:#262626;stroke:#262626;" x="176.83933" xlink:href="#m91fd25bebf" y="60.983333"/>
      </g>
     </g>
    </g>
    <g id="xtick_9">
     <g id="line2d_18">
      <g>
       <use style="fill:#262626;stroke:#262626;" x="236.974957" xlink:href="#m91fd25bebf" y="60.983333"/>
      </g>
     </g>
    </g>
    <g id="xtick_10">
     <g id="line2d_19">
      <g>
       <use style="fill:#262626;stroke:#262626;" x="297.110584" xlink:href="#m91fd25bebf" y="60.983333"/>
      </g>
     </g>
    </g>
   </g>
   <g id="matplotlib.axis_4">
    <g id="ytick_7"/>
    <g id="ytick_8"/>
   </g>
   <g id="patch_7">
    <path clip-path="url(#pcef2ffcee4)" d="M 125.136669 60.983333 
L 144.072293 60.983333 
L 144.072293 57.658547 
L 125.136669 57.658547 
z
" style="fill:#471365;opacity:0.4;stroke:#ffffff;stroke-linejoin:miter;stroke-width:0.8;"/>
   </g>
   <g id="patch_8">
    <path clip-path="url(#pcef2ffcee4)" d="M 144.072293 60.983333 
L 163.007918 60.983333 
L 163.007918 54.333761 
L 144.072293 54.333761 
z
" style="fill:#471365;opacity:0.4;stroke:#ffffff;stroke-linejoin:miter;stroke-width:0.8;"/>
   </g>
   <g id="patch_9">
    <path clip-path="url(#pcef2ffcee4)" d="M 163.007918 60.983333 
L 181.943542 60.983333 
L 181.943542 54.333761 
L 163.007918 54.333761 
z
" style="fill:#471365;opacity:0.4;stroke:#ffffff;stroke-linejoin:miter;stroke-width:0.8;"/>
   </g>
   <g id="patch_10">
    <path clip-path="url(#pcef2ffcee4)" d="M 181.943542 60.983333 
L 200.879167 60.983333 
L 200.879167 57.658547 
L 181.943542 57.658547 
z
" style="fill:#471365;opacity:0.4;stroke:#ffffff;stroke-linejoin:miter;stroke-width:0.8;"/>
   </g>
   <g id="patch_11">
    <path clip-path="url(#pcef2ffcee4)" d="M 200.879167 60.983333 
L 219.814791 60.983333 
L 219.814791 47.684188 
L 200.879167 47.684188 
z
" style="fill:#471365;opacity:0.4;stroke:#ffffff;stroke-linejoin:miter;stroke-width:0.8;"/>
   </g>
   <g id="patch_12">
    <path clip-path="url(#pcef2ffcee4)" d="M 219.814791 60.983333 
L 238.750416 60.983333 
L 238.750416 27.73547 
L 219.814791 27.73547 
z
" style="fill:#471365;opacity:0.4;stroke:#ffffff;stroke-linejoin:miter;stroke-width:0.8;"/>
   </g>
   <g id="patch_13">
    <path clip-path="url(#pcef2ffcee4)" d="M 238.750416 60.983333 
L 257.68604 60.983333 
L 257.68604 27.73547 
L 238.750416 27.73547 
z
" style="fill:#471365;opacity:0.4;stroke:#ffffff;stroke-linejoin:miter;stroke-width:0.8;"/>
   </g>
   <g id="patch_14">
    <path clip-path="url(#pcef2ffcee4)" d="M 257.68604 60.983333 
L 276.621664 60.983333 
L 276.621664 17.761111 
L 257.68604 17.761111 
z
" style="fill:#471365;opacity:0.4;stroke:#ffffff;stroke-linejoin:miter;stroke-width:0.8;"/>
   </g>
   <g id="line2d_20">
    <path clip-path="url(#pcef2ffcee4)" d="M 76.061674 60.964591 
L 78.583239 60.954216 
L 81.104805 60.93913 
L 83.62637 60.917754 
L 86.147936 60.888249 
L 88.669501 60.848584 
L 91.191067 60.796668 
L 93.712632 60.730529 
L 96.234198 60.64854 
L 98.755763 60.549671 
L 101.277329 60.433719 
L 103.798894 60.301479 
L 106.32046 60.15481 
L 108.842025 59.996543 
L 111.363591 59.830225 
L 113.885156 59.65969 
L 116.406722 59.48853 
L 118.928287 59.319508 
L 121.449853 59.154042 
L 123.971418 58.991856 
L 126.492984 58.830884 
L 129.014549 58.667471 
L 131.536115 58.496875 
L 134.05768 58.313989 
L 136.579246 58.114172 
L 139.100811 57.894042 
L 141.622377 57.652096 
L 144.143943 57.389039 
L 146.665508 57.107788 
L 149.187074 56.81317 
L 151.708639 56.511384 
L 154.230205 56.209346 
L 156.75177 55.914029 
L 159.273336 55.631872 
L 161.794901 55.368294 
L 164.316467 55.12728 
L 166.838032 54.911003 
L 169.359598 54.719385 
L 171.881163 54.549601 
L 174.402729 54.395531 
L 176.924294 54.247267 
L 179.44586 54.09082 
L 181.967425 53.908202 
L 184.488991 53.678016 
L 187.010556 53.376639 
L 189.532122 52.979954 
L 192.053687 52.465471 
L 194.575253 51.814616 
L 197.096818 51.014851 
L 199.618384 50.061331 
L 202.139949 48.957828 
L 204.661515 47.716765 
L 207.18308 46.358319 
L 209.704646 44.908695 
L 212.226211 43.397797 
L 214.747777 41.856604 
L 217.269343 40.314597 
L 219.790908 38.797593 
L 222.312474 37.326279 
L 224.834039 35.915626 
L 227.355605 34.575281 
L 229.87717 33.310846 
L 232.398736 32.125874 
L 234.920301 31.024262 
L 237.441867 30.012687 
L 239.963432 29.102693 
L 242.484998 28.31206 
L 245.006563 27.665205 
L 247.528129 27.192442 
L 250.049694 26.928106 
L 252.57126 26.90769 
L 255.092825 27.164286 
L 257.614391 27.724724 
L 260.135956 28.605878 
L 262.657522 29.811602 
L 265.179087 31.330715 
L 267.700653 33.13632 
L 270.222218 35.186616 
L 272.743784 37.427153 
L 275.265349 39.794306 
L 277.786915 42.219598 
L 280.30848 44.634404 
L 282.830046 46.974495 
L 285.351612 49.183987 
L 287.873177 51.218282 
L 290.394743 53.045805 
L 292.916308 54.648463 
L 295.437874 56.02093 
L 297.959439 57.168989 
L 300.481005 58.107238 
L 303.00257 58.8565 
L 305.524136 59.441242 
L 308.045701 59.887257 
L 310.567267 60.219779 
L 313.088832 60.462105 
L 315.610398 60.63473 
L 318.131963 60.754941 
L 320.653529 60.836773 
L 323.175094 60.89123 
L 325.69666 60.926657 
" style="fill:none;stroke:#471365;stroke-linecap:round;stroke-width:1.2;"/>
   </g>
   <g id="patch_15">
    <path d="M 49.85 60.983333 
L 351.908333 60.983333 
" style="fill:none;stroke:#262626;stroke-linecap:square;stroke-linejoin:miter;"/>
   </g>
  </g>
  <g id="axes_3">
   <g id="patch_16">
    <path d="M 372.308333 389.9 
L 416.4 389.9 
L 416.4 81.383333 
L 372.308333 81.383333 
z
" style="fill:#ffffff;"/>
   </g>
   <g id="matplotlib.axis_5">
    <g id="xtick_11"/>
    <g id="xtick_12"/>
   </g>
   <g id="matplotlib.axis_6">
    <g id="ytick_9">
     <g id="line2d_21">
      <g>
       <use style="fill:#262626;stroke:#262626;" x="372.308333" xlink:href="#m75a4cf4ca1" y="389.9"/>
      </g>
     </g>
    </g>
    <g id="ytick_10">
     <g id="line2d_22">
      <g>
       <use style="fill:#262626;stroke:#262626;" x="372.308333" xlink:href="#m75a4cf4ca1" y="333.806061"/>
      </g>
     </g>
    </g>
    <g id="ytick_11">
     <g id="line2d_23">
      <g>
       <use style="fill:#262626;stroke:#262626;" x="372.308333" xlink:href="#m75a4cf4ca1" y="277.712121"/>
      </g>
     </g>
    </g>
    <g id="ytick_12">
     <g id="line2d_24">
      <g>
       <use style="fill:#262626;stroke:#262626;" x="372.308333" xlink:href="#m75a4cf4ca1" y="221.618182"/>
      </g>
     </g>
    </g>
    <g id="ytick_13">
     <g id="line2d_25">
      <g>
       <use style="fill:#262626;stroke:#262626;" x="372.308333" xlink:href="#m75a4cf4ca1" y="165.524242"/>
      </g>
     </g>
    </g>
    <g id="ytick_14">
     <g id="line2d_26">
      <g>
       <use style="fill:#262626;stroke:#262626;" x="372.308333" xlink:href="#m75a4cf4ca1" y="109.430303"/>
      </g>
     </g>
    </g>
   </g>
   <g id="patch_17">
    <path clip-path="url(#p6322dc2590)" d="M 372.308333 229.640384 
L 396.803704 229.640384 
L 396.803704 199.607074 
L 372.308333 199.607074 
z
" style="fill:#471365;opacity:0.4;stroke:#ffffff;stroke-linejoin:miter;stroke-width:0.8;"/>
   </g>
   <g id="patch_18">
    <path clip-path="url(#p6322dc2590)" d="M 372.308333 199.607074 
L 414.300397 199.607074 
L 414.300397 169.573764 
L 372.308333 169.573764 
z
" style="fill:#471365;opacity:0.4;stroke:#ffffff;stroke-linejoin:miter;stroke-width:0.8;"/>
   </g>
   <g id="patch_19">
    <path clip-path="url(#p6322dc2590)" d="M 372.308333 169.573764 
L 414.300397 169.573764 
L 414.300397 139.540454 
L 372.308333 139.540454 
z
" style="fill:#471365;opacity:0.4;stroke:#ffffff;stroke-linejoin:miter;stroke-width:0.8;"/>
   </g>
   <g id="patch_20">
    <path clip-path="url(#p6322dc2590)" d="M 372.308333 139.540454 
L 414.300397 139.540454 
L 414.300397 109.507144 
L 372.308333 109.507144 
z
" style="fill:#471365;opacity:0.4;stroke:#ffffff;stroke-linejoin:miter;stroke-width:0.8;"/>
   </g>
   <g id="line2d_27">
    <path clip-path="url(#p6322dc2590)" d="M 372.370656 277.948715 
L 372.401279 275.759322 
L 372.44461 273.569929 
L 372.504796 271.380536 
L 372.586869 269.191143 
L 372.69676 267.00175 
L 372.841247 264.812357 
L 373.027835 262.622964 
L 373.264547 260.433571 
L 373.559637 258.244178 
L 373.921234 256.054786 
L 374.356947 253.865393 
L 374.873458 251.676 
L 375.476152 249.486607 
L 376.168816 247.297214 
L 376.953444 245.107821 
L 377.830177 242.918428 
L 378.797365 240.729035 
L 379.851756 238.539642 
L 380.988767 236.350249 
L 382.202796 234.160856 
L 383.48753 231.971463 
L 384.836215 229.78207 
L 386.241843 227.592677 
L 387.697258 225.403284 
L 389.195192 223.213891 
L 390.728234 221.024498 
L 392.288776 218.835105 
L 393.868958 216.645712 
L 395.460618 214.456319 
L 397.055258 212.266926 
L 398.644005 210.077533 
L 400.217542 207.888141 
L 401.765995 205.698748 
L 403.27875 203.509355 
L 404.744221 201.319962 
L 406.14959 199.130569 
L 407.480586 196.941176 
L 408.721391 194.751783 
L 409.854751 192.56239 
L 410.862378 190.372997 
L 411.725713 188.183604 
L 412.427039 185.994211 
L 412.950927 183.804818 
L 413.285896 181.615425 
L 413.426137 179.426032 
L 413.3731 177.236639 
L 413.136714 175.047246 
L 412.736038 172.857853 
L 412.199161 170.66846 
L 411.562255 168.479067 
L 410.867775 166.289674 
L 410.161895 164.100281 
L 409.491388 161.910888 
L 408.900228 159.721496 
L 408.426236 157.532103 
L 408.098103 155.34271 
L 407.933088 153.153317 
L 407.935591 150.963924 
L 408.096711 148.774531 
L 408.394798 146.585138 
L 408.796871 144.395745 
L 409.260738 142.206352 
L 409.737597 140.016959 
L 410.174882 137.827566 
L 410.519174 135.638173 
L 410.719007 133.44878 
L 410.727457 131.259387 
L 410.504459 129.069994 
L 410.018769 126.880601 
L 409.249552 124.691208 
L 408.187506 122.501815 
L 406.835483 120.312422 
L 405.208513 118.123029 
L 403.333203 115.933636 
L 401.246468 113.744243 
L 398.993652 111.55485 
L 396.626119 109.365458 
L 394.198485 107.176065 
L 391.765686 104.986672 
L 389.380123 102.797279 
L 387.089089 100.607886 
L 384.9327 98.418493 
L 382.942441 96.2291 
L 381.140423 94.039707 
L 379.539318 91.850314 
L 378.142933 89.660921 
L 376.947275 87.471528 
L 375.941971 85.282135 
L 375.11186 83.092742 
L 374.438621 80.903349 
L 373.90229 78.713956 
L 373.482575 76.524563 
L 373.159906 74.33517 
L 372.916208 72.145777 
L 372.735385 69.956384 
L 372.603569 67.766991 
L 372.509166 65.577598 
L 372.442742 63.388205 
L 372.396825 61.198813 
" style="fill:none;stroke:#471365;stroke-linecap:round;stroke-width:1.2;"/>
   </g>
   <g id="patch_21">
    <path d="M 372.308333 389.9 
L 372.308333 81.383333 
" style="fill:none;stroke:#262626;stroke-linecap:square;stroke-linejoin:miter;"/>
   </g>
  </g>
 </g>
 <defs>
  <clipPath id="pe856d06ac6">
   <rect height="308.516667" width="302.058333" x="49.85" y="81.383333"/>
  </clipPath>
  <clipPath id="pcef2ffcee4">
   <rect height="45.383333" width="302.058333" x="49.85" y="15.6"/>
  </clipPath>
  <clipPath id="p6322dc2590">
   <rect height="308.516667" width="44.091667" x="372.308333" y="81.383333"/>
  </clipPath>
 </defs>
</svg>
