<?xml version="1.0" encoding="utf-8" standalone="no"?>
<!DOCTYPE svg PUBLIC "-//W3C//DTD SVG 1.1//EN"
  "http://www.w3.org/Graphics/SVG/1.1/DTD/svg11.dtd">
<!-- Created with matplotlib (http://matplotlib.org/) -->
<svg height="432pt" version="1.1" viewBox="0 0 432 432" width="432pt" xmlns="http://www.w3.org/2000/svg" xmlns:xlink="http://www.w3.org/1999/xlink">
 <defs>
  <style type="text/css">
*{stroke-linecap:butt;stroke-linejoin:round;}
  </style>
 </defs>
 <g id="figure_1">
  <g id="patch_1">
   <path d="M 0 432 
L 432 432 
L 432 0 
L 0 0 
z
" style="fill:#ffffff;"/>
  </g>
  <g id="axes_1">
   <g id="patch_2">
    <path d="M 46.068 387.732 
L 354.386057 387.732 
L 354.386057 77.922514 
L 46.068 77.922514 
z
" style="fill:#ffffff;"/>
   </g>
   <g id="matplotlib.axis_1">
    <g id="xtick_1">
     <g id="line2d_1">
      <defs>
       <path d="M 0 0 
L 0 4.8 
" id="m60c33b58a2" style="stroke:#262626;"/>
      </defs>
      <g>
       <use style="fill:#262626;stroke:#262626;" x="108.226204" xlink:href="#m60c33b58a2" y="387.732"/>
      </g>
     </g>
     <g id="text_1">
      <!-- 0 -->
      <defs>
       <path d="M 31.78125 66.40625 
Q 24.171875 66.40625 20.328125 58.90625 
Q 16.5 51.421875 16.5 36.375 
Q 16.5 21.390625 20.328125 13.890625 
Q 24.171875 6.390625 31.78125 6.390625 
Q 39.453125 6.390625 43.28125 13.890625 
Q 47.125 21.390625 47.125 36.375 
Q 47.125 51.421875 43.28125 58.90625 
Q 39.453125 66.40625 31.78125 66.40625 
z
M 31.78125 74.21875 
Q 44.046875 74.21875 50.515625 64.515625 
Q 56.984375 54.828125 56.984375 36.375 
Q 56.984375 17.96875 50.515625 8.265625 
Q 44.046875 -1.421875 31.78125 -1.421875 
Q 19.53125 -1.421875 13.0625 8.265625 
Q 6.59375 17.96875 6.59375 36.375 
Q 6.59375 54.828125 13.0625 64.515625 
Q 19.53125 74.21875 31.78125 74.21875 
z
" id="DejaVuSans-30"/>
      </defs>
      <g style="fill:#262626;" transform="translate(105.426704 402.718625)scale(0.088 -0.088)">
       <use xlink:href="#DejaVuSans-30"/>
      </g>
     </g>
    </g>
    <g id="xtick_2">
     <g id="line2d_2">
      <g>
       <use style="fill:#262626;stroke:#262626;" x="174.818226" xlink:href="#m60c33b58a2" y="387.732"/>
      </g>
     </g>
     <g id="text_2">
      <!-- 2 -->
      <defs>
       <path d="M 19.1875 8.296875 
L 53.609375 8.296875 
L 53.609375 0 
L 7.328125 0 
L 7.328125 8.296875 
Q 12.9375 14.109375 22.625 23.890625 
Q 32.328125 33.6875 34.8125 36.53125 
Q 39.546875 41.84375 41.421875 45.53125 
Q 43.3125 49.21875 43.3125 52.78125 
Q 43.3125 58.59375 39.234375 62.25 
Q 35.15625 65.921875 28.609375 65.921875 
Q 23.96875 65.921875 18.8125 64.3125 
Q 13.671875 62.703125 7.8125 59.421875 
L 7.8125 69.390625 
Q 13.765625 71.78125 18.9375 73 
Q 24.125 74.21875 28.421875 74.21875 
Q 39.75 74.21875 46.484375 68.546875 
Q 53.21875 62.890625 53.21875 53.421875 
Q 53.21875 48.921875 51.53125 44.890625 
Q 49.859375 40.875 45.40625 35.40625 
Q 44.1875 33.984375 37.640625 27.21875 
Q 31.109375 20.453125 19.1875 8.296875 
z
" id="DejaVuSans-32"/>
      </defs>
      <g style="fill:#262626;" transform="translate(172.018726 402.718625)scale(0.088 -0.088)">
       <use xlink:href="#DejaVuSans-32"/>
      </g>
     </g>
    </g>
    <g id="xtick_3">
     <g id="line2d_3">
      <g>
       <use style="fill:#262626;stroke:#262626;" x="241.410248" xlink:href="#m60c33b58a2" y="387.732"/>
      </g>
     </g>
     <g id="text_3">
      <!-- 4 -->
      <defs>
       <path d="M 37.796875 64.3125 
L 12.890625 25.390625 
L 37.796875 25.390625 
z
M 35.203125 72.90625 
L 47.609375 72.90625 
L 47.609375 25.390625 
L 58.015625 25.390625 
L 58.015625 17.1875 
L 47.609375 17.1875 
L 47.609375 0 
L 37.796875 0 
L 37.796875 17.1875 
L 4.890625 17.1875 
L 4.890625 26.703125 
z
" id="DejaVuSans-34"/>
      </defs>
      <g style="fill:#262626;" transform="translate(238.610748 402.718625)scale(0.088 -0.088)">
       <use xlink:href="#DejaVuSans-34"/>
      </g>
     </g>
    </g>
    <g id="xtick_4">
     <g id="line2d_4">
      <g>
       <use style="fill:#262626;stroke:#262626;" x="308.002271" xlink:href="#m60c33b58a2" y="387.732"/>
      </g>
     </g>
     <g id="text_4">
      <!-- 6 -->
      <defs>
       <path d="M 33.015625 40.375 
Q 26.375 40.375 22.484375 35.828125 
Q 18.609375 31.296875 18.609375 23.390625 
Q 18.609375 15.53125 22.484375 10.953125 
Q 26.375 6.390625 33.015625 6.390625 
Q 39.65625 6.390625 43.53125 10.953125 
Q 47.40625 15.53125 47.40625 23.390625 
Q 47.40625 31.296875 43.53125 35.828125 
Q 39.65625 40.375 33.015625 40.375 
z
M 52.59375 71.296875 
L 52.59375 62.3125 
Q 48.875 64.0625 45.09375 64.984375 
Q 41.3125 65.921875 37.59375 65.921875 
Q 27.828125 65.921875 22.671875 59.328125 
Q 17.53125 52.734375 16.796875 39.40625 
Q 19.671875 43.65625 24.015625 45.921875 
Q 28.375 48.1875 33.59375 48.1875 
Q 44.578125 48.1875 50.953125 41.515625 
Q 57.328125 34.859375 57.328125 23.390625 
Q 57.328125 12.15625 50.6875 5.359375 
Q 44.046875 -1.421875 33.015625 -1.421875 
Q 20.359375 -1.421875 13.671875 8.265625 
Q 6.984375 17.96875 6.984375 36.375 
Q 6.984375 53.65625 15.1875 63.9375 
Q 23.390625 74.21875 37.203125 74.21875 
Q 40.921875 74.21875 44.703125 73.484375 
Q 48.484375 72.75 52.59375 71.296875 
z
" id="DejaVuSans-36"/>
      </defs>
      <g style="fill:#262626;" transform="translate(305.202771 402.718625)scale(0.088 -0.088)">
       <use xlink:href="#DejaVuSans-36"/>
      </g>
     </g>
    </g>
    <g id="text_5">
     <!-- $\Delta_{g}$ -->
     <defs>
      <path d="M 34.1875 63.1875 
L 14.15625 8.203125 
L 54.25 8.203125 
z
M 0.78125 0 
L 28.609375 72.90625 
L 39.796875 72.90625 
L 67.578125 0 
z
" id="DejaVuSans-394"/>
      <path d="M 59.625 54.6875 
L 50.296875 6.78125 
Q 47.609375 -7.125 40.015625 -13.953125 
Q 32.421875 -20.796875 19.578125 -20.796875 
Q 14.84375 -20.796875 10.78125 -20.09375 
Q 6.734375 -19.390625 3.21875 -17.921875 
L 4.890625 -9.1875 
Q 8.203125 -11.328125 11.90625 -12.34375 
Q 15.625 -13.375 19.828125 -13.375 
Q 28.375 -13.375 33.859375 -8.703125 
Q 39.359375 -4.046875 41.109375 4.6875 
L 41.890625 8.796875 
Q 38.140625 4.5 33.15625 2.25 
Q 28.171875 0 22.40625 0 
Q 14.109375 0 9.34375 5.484375 
Q 4.59375 10.984375 4.59375 20.609375 
Q 4.59375 28.171875 7.46875 35.421875 
Q 10.359375 42.671875 15.578125 48.296875 
Q 19.046875 52 23.65625 54 
Q 28.265625 56 33.296875 56 
Q 38.8125 56 42.90625 53.4375 
Q 47.015625 50.875 49.03125 46.1875 
L 50.59375 54.6875 
z
M 46.09375 34.625 
Q 46.09375 41.265625 42.96875 44.875 
Q 39.84375 48.484375 34.078125 48.484375 
Q 30.515625 48.484375 27.296875 47.0625 
Q 24.078125 45.65625 21.78125 43.109375 
Q 18.0625 38.921875 15.984375 33.234375 
Q 13.921875 27.546875 13.921875 21.484375 
Q 13.921875 14.75 17.0625 11.125 
Q 20.21875 7.515625 26.125 7.515625 
Q 34.671875 7.515625 40.375 15.25 
Q 46.09375 23 46.09375 34.625 
z
" id="DejaVuSans-Oblique-67"/>
     </defs>
     <g style="fill:#262626;" transform="translate(194.611029 415.55675)scale(0.096 -0.096)">
      <use transform="translate(0 0.09375)" xlink:href="#DejaVuSans-394"/>
      <use transform="translate(69.365234 -16.3125)scale(0.7)" xlink:href="#DejaVuSans-Oblique-67"/>
     </g>
    </g>
   </g>
   <g id="matplotlib.axis_2">
    <g id="ytick_1">
     <g id="line2d_5">
      <defs>
       <path d="M 0 0 
L -4.8 0 
" id="m1370b372dc" style="stroke:#262626;"/>
      </defs>
      <g>
       <use style="fill:#262626;stroke:#262626;" x="46.068" xlink:href="#m1370b372dc" y="385.211867"/>
      </g>
     </g>
     <g id="text_6">
      <!-- −10 -->
      <defs>
       <path d="M 10.59375 35.5 
L 73.1875 35.5 
L 73.1875 27.203125 
L 10.59375 27.203125 
z
" id="DejaVuSans-2212"/>
       <path d="M 12.40625 8.296875 
L 28.515625 8.296875 
L 28.515625 63.921875 
L 10.984375 60.40625 
L 10.984375 69.390625 
L 28.421875 72.90625 
L 38.28125 72.90625 
L 38.28125 8.296875 
L 54.390625 8.296875 
L 54.390625 0 
L 12.40625 0 
z
" id="DejaVuSans-31"/>
      </defs>
      <g style="fill:#262626;" transform="translate(19.195875 388.555179)scale(0.088 -0.088)">
       <use xlink:href="#DejaVuSans-2212"/>
       <use x="83.789062" xlink:href="#DejaVuSans-31"/>
       <use x="147.412109" xlink:href="#DejaVuSans-30"/>
      </g>
     </g>
    </g>
    <g id="ytick_2">
     <g id="line2d_6">
      <g>
       <use style="fill:#262626;stroke:#262626;" x="46.068" xlink:href="#m1370b372dc" y="334.579888"/>
      </g>
     </g>
     <g id="text_7">
      <!-- 0 -->
      <g style="fill:#262626;" transform="translate(32.169 337.9232)scale(0.088 -0.088)">
       <use xlink:href="#DejaVuSans-30"/>
      </g>
     </g>
    </g>
    <g id="ytick_3">
     <g id="line2d_7">
      <g>
       <use style="fill:#262626;stroke:#262626;" x="46.068" xlink:href="#m1370b372dc" y="283.947908"/>
      </g>
     </g>
     <g id="text_8">
      <!-- 10 -->
      <g style="fill:#262626;" transform="translate(26.57 287.291221)scale(0.088 -0.088)">
       <use xlink:href="#DejaVuSans-31"/>
       <use x="63.623047" xlink:href="#DejaVuSans-30"/>
      </g>
     </g>
    </g>
    <g id="ytick_4">
     <g id="line2d_8">
      <g>
       <use style="fill:#262626;stroke:#262626;" x="46.068" xlink:href="#m1370b372dc" y="233.315929"/>
      </g>
     </g>
     <g id="text_9">
      <!-- 20 -->
      <g style="fill:#262626;" transform="translate(26.57 236.659242)scale(0.088 -0.088)">
       <use xlink:href="#DejaVuSans-32"/>
       <use x="63.623047" xlink:href="#DejaVuSans-30"/>
      </g>
     </g>
    </g>
    <g id="ytick_5">
     <g id="line2d_9">
      <g>
       <use style="fill:#262626;stroke:#262626;" x="46.068" xlink:href="#m1370b372dc" y="182.68395"/>
      </g>
     </g>
     <g id="text_10">
      <!-- 30 -->
      <defs>
       <path d="M 40.578125 39.3125 
Q 47.65625 37.796875 51.625 33 
Q 55.609375 28.21875 55.609375 21.1875 
Q 55.609375 10.40625 48.1875 4.484375 
Q 40.765625 -1.421875 27.09375 -1.421875 
Q 22.515625 -1.421875 17.65625 -0.515625 
Q 12.796875 0.390625 7.625 2.203125 
L 7.625 11.71875 
Q 11.71875 9.328125 16.59375 8.109375 
Q 21.484375 6.890625 26.8125 6.890625 
Q 36.078125 6.890625 40.9375 10.546875 
Q 45.796875 14.203125 45.796875 21.1875 
Q 45.796875 27.640625 41.28125 31.265625 
Q 36.765625 34.90625 28.71875 34.90625 
L 20.21875 34.90625 
L 20.21875 43.015625 
L 29.109375 43.015625 
Q 36.375 43.015625 40.234375 45.921875 
Q 44.09375 48.828125 44.09375 54.296875 
Q 44.09375 59.90625 40.109375 62.90625 
Q 36.140625 65.921875 28.71875 65.921875 
Q 24.65625 65.921875 20.015625 65.03125 
Q 15.375 64.15625 9.8125 62.3125 
L 9.8125 71.09375 
Q 15.4375 72.65625 20.34375 73.4375 
Q 25.25 74.21875 29.59375 74.21875 
Q 40.828125 74.21875 47.359375 69.109375 
Q 53.90625 64.015625 53.90625 55.328125 
Q 53.90625 49.265625 50.4375 45.09375 
Q 46.96875 40.921875 40.578125 39.3125 
z
" id="DejaVuSans-33"/>
      </defs>
      <g style="fill:#262626;" transform="translate(26.57 186.027262)scale(0.088 -0.088)">
       <use xlink:href="#DejaVuSans-33"/>
       <use x="63.623047" xlink:href="#DejaVuSans-30"/>
      </g>
     </g>
    </g>
    <g id="ytick_6">
     <g id="line2d_10">
      <g>
       <use style="fill:#262626;stroke:#262626;" x="46.068" xlink:href="#m1370b372dc" y="132.051971"/>
      </g>
     </g>
     <g id="text_11">
      <!-- 40 -->
      <g style="fill:#262626;" transform="translate(26.57 135.395283)scale(0.088 -0.088)">
       <use xlink:href="#DejaVuSans-34"/>
       <use x="63.623047" xlink:href="#DejaVuSans-30"/>
      </g>
     </g>
    </g>
    <g id="ytick_7">
     <g id="line2d_11">
      <g>
       <use style="fill:#262626;stroke:#262626;" x="46.068" xlink:href="#m1370b372dc" y="81.419991"/>
      </g>
     </g>
     <g id="text_12">
      <!-- 50 -->
      <defs>
       <path d="M 10.796875 72.90625 
L 49.515625 72.90625 
L 49.515625 64.59375 
L 19.828125 64.59375 
L 19.828125 46.734375 
Q 21.96875 47.46875 24.109375 47.828125 
Q 26.265625 48.1875 28.421875 48.1875 
Q 40.625 48.1875 47.75 41.5 
Q 54.890625 34.8125 54.890625 23.390625 
Q 54.890625 11.625 47.5625 5.09375 
Q 40.234375 -1.421875 26.90625 -1.421875 
Q 22.3125 -1.421875 17.546875 -0.640625 
Q 12.796875 0.140625 7.71875 1.703125 
L 7.71875 11.625 
Q 12.109375 9.234375 16.796875 8.0625 
Q 21.484375 6.890625 26.703125 6.890625 
Q 35.15625 6.890625 40.078125 11.328125 
Q 45.015625 15.765625 45.015625 23.390625 
Q 45.015625 31 40.078125 35.4375 
Q 35.15625 39.890625 26.703125 39.890625 
Q 22.75 39.890625 18.8125 39.015625 
Q 14.890625 38.140625 10.796875 36.28125 
z
" id="DejaVuSans-35"/>
      </defs>
      <g style="fill:#262626;" transform="translate(26.57 84.763304)scale(0.088 -0.088)">
       <use xlink:href="#DejaVuSans-35"/>
       <use x="63.623047" xlink:href="#DejaVuSans-30"/>
      </g>
     </g>
    </g>
    <g id="text_13">
     <!-- Time to cancer -->
     <defs>
      <path d="M -0.296875 72.90625 
L 61.375 72.90625 
L 61.375 64.59375 
L 35.5 64.59375 
L 35.5 0 
L 25.59375 0 
L 25.59375 64.59375 
L -0.296875 64.59375 
z
" id="DejaVuSans-54"/>
      <path d="M 9.421875 54.6875 
L 18.40625 54.6875 
L 18.40625 0 
L 9.421875 0 
z
M 9.421875 75.984375 
L 18.40625 75.984375 
L 18.40625 64.59375 
L 9.421875 64.59375 
z
" id="DejaVuSans-69"/>
      <path d="M 52 44.1875 
Q 55.375 50.25 60.0625 53.125 
Q 64.75 56 71.09375 56 
Q 79.640625 56 84.28125 50.015625 
Q 88.921875 44.046875 88.921875 33.015625 
L 88.921875 0 
L 79.890625 0 
L 79.890625 32.71875 
Q 79.890625 40.578125 77.09375 44.375 
Q 74.3125 48.1875 68.609375 48.1875 
Q 61.625 48.1875 57.5625 43.546875 
Q 53.515625 38.921875 53.515625 30.90625 
L 53.515625 0 
L 44.484375 0 
L 44.484375 32.71875 
Q 44.484375 40.625 41.703125 44.40625 
Q 38.921875 48.1875 33.109375 48.1875 
Q 26.21875 48.1875 22.15625 43.53125 
Q 18.109375 38.875 18.109375 30.90625 
L 18.109375 0 
L 9.078125 0 
L 9.078125 54.6875 
L 18.109375 54.6875 
L 18.109375 46.1875 
Q 21.1875 51.21875 25.484375 53.609375 
Q 29.78125 56 35.6875 56 
Q 41.65625 56 45.828125 52.96875 
Q 50 49.953125 52 44.1875 
z
" id="DejaVuSans-6d"/>
      <path d="M 56.203125 29.59375 
L 56.203125 25.203125 
L 14.890625 25.203125 
Q 15.484375 15.921875 20.484375 11.0625 
Q 25.484375 6.203125 34.421875 6.203125 
Q 39.59375 6.203125 44.453125 7.46875 
Q 49.3125 8.734375 54.109375 11.28125 
L 54.109375 2.78125 
Q 49.265625 0.734375 44.1875 -0.34375 
Q 39.109375 -1.421875 33.890625 -1.421875 
Q 20.796875 -1.421875 13.15625 6.1875 
Q 5.515625 13.8125 5.515625 26.8125 
Q 5.515625 40.234375 12.765625 48.109375 
Q 20.015625 56 32.328125 56 
Q 43.359375 56 49.78125 48.890625 
Q 56.203125 41.796875 56.203125 29.59375 
z
M 47.21875 32.234375 
Q 47.125 39.59375 43.09375 43.984375 
Q 39.0625 48.390625 32.421875 48.390625 
Q 24.90625 48.390625 20.390625 44.140625 
Q 15.875 39.890625 15.1875 32.171875 
z
" id="DejaVuSans-65"/>
      <path id="DejaVuSans-20"/>
      <path d="M 18.3125 70.21875 
L 18.3125 54.6875 
L 36.8125 54.6875 
L 36.8125 47.703125 
L 18.3125 47.703125 
L 18.3125 18.015625 
Q 18.3125 11.328125 20.140625 9.421875 
Q 21.96875 7.515625 27.59375 7.515625 
L 36.8125 7.515625 
L 36.8125 0 
L 27.59375 0 
Q 17.1875 0 13.234375 3.875 
Q 9.28125 7.765625 9.28125 18.015625 
L 9.28125 47.703125 
L 2.6875 47.703125 
L 2.6875 54.6875 
L 9.28125 54.6875 
L 9.28125 70.21875 
z
" id="DejaVuSans-74"/>
      <path d="M 30.609375 48.390625 
Q 23.390625 48.390625 19.1875 42.75 
Q 14.984375 37.109375 14.984375 27.296875 
Q 14.984375 17.484375 19.15625 11.84375 
Q 23.34375 6.203125 30.609375 6.203125 
Q 37.796875 6.203125 41.984375 11.859375 
Q 46.1875 17.53125 46.1875 27.296875 
Q 46.1875 37.015625 41.984375 42.703125 
Q 37.796875 48.390625 30.609375 48.390625 
z
M 30.609375 56 
Q 42.328125 56 49.015625 48.375 
Q 55.71875 40.765625 55.71875 27.296875 
Q 55.71875 13.875 49.015625 6.21875 
Q 42.328125 -1.421875 30.609375 -1.421875 
Q 18.84375 -1.421875 12.171875 6.21875 
Q 5.515625 13.875 5.515625 27.296875 
Q 5.515625 40.765625 12.171875 48.375 
Q 18.84375 56 30.609375 56 
z
" id="DejaVuSans-6f"/>
      <path d="M 48.78125 52.59375 
L 48.78125 44.1875 
Q 44.96875 46.296875 41.140625 47.34375 
Q 37.3125 48.390625 33.40625 48.390625 
Q 24.65625 48.390625 19.8125 42.84375 
Q 14.984375 37.3125 14.984375 27.296875 
Q 14.984375 17.28125 19.8125 11.734375 
Q 24.65625 6.203125 33.40625 6.203125 
Q 37.3125 6.203125 41.140625 7.25 
Q 44.96875 8.296875 48.78125 10.40625 
L 48.78125 2.09375 
Q 45.015625 0.34375 40.984375 -0.53125 
Q 36.96875 -1.421875 32.421875 -1.421875 
Q 20.0625 -1.421875 12.78125 6.34375 
Q 5.515625 14.109375 5.515625 27.296875 
Q 5.515625 40.671875 12.859375 48.328125 
Q 20.21875 56 33.015625 56 
Q 37.15625 56 41.109375 55.140625 
Q 45.0625 54.296875 48.78125 52.59375 
z
" id="DejaVuSans-63"/>
      <path d="M 34.28125 27.484375 
Q 23.390625 27.484375 19.1875 25 
Q 14.984375 22.515625 14.984375 16.5 
Q 14.984375 11.71875 18.140625 8.90625 
Q 21.296875 6.109375 26.703125 6.109375 
Q 34.1875 6.109375 38.703125 11.40625 
Q 43.21875 16.703125 43.21875 25.484375 
L 43.21875 27.484375 
z
M 52.203125 31.203125 
L 52.203125 0 
L 43.21875 0 
L 43.21875 8.296875 
Q 40.140625 3.328125 35.546875 0.953125 
Q 30.953125 -1.421875 24.3125 -1.421875 
Q 15.921875 -1.421875 10.953125 3.296875 
Q 6 8.015625 6 15.921875 
Q 6 25.140625 12.171875 29.828125 
Q 18.359375 34.515625 30.609375 34.515625 
L 43.21875 34.515625 
L 43.21875 35.40625 
Q 43.21875 41.609375 39.140625 45 
Q 35.0625 48.390625 27.6875 48.390625 
Q 23 48.390625 18.546875 47.265625 
Q 14.109375 46.140625 10.015625 43.890625 
L 10.015625 52.203125 
Q 14.9375 54.109375 19.578125 55.046875 
Q 24.21875 56 28.609375 56 
Q 40.484375 56 46.34375 49.84375 
Q 52.203125 43.703125 52.203125 31.203125 
z
" id="DejaVuSans-61"/>
      <path d="M 54.890625 33.015625 
L 54.890625 0 
L 45.90625 0 
L 45.90625 32.71875 
Q 45.90625 40.484375 42.875 44.328125 
Q 39.84375 48.1875 33.796875 48.1875 
Q 26.515625 48.1875 22.3125 43.546875 
Q 18.109375 38.921875 18.109375 30.90625 
L 18.109375 0 
L 9.078125 0 
L 9.078125 54.6875 
L 18.109375 54.6875 
L 18.109375 46.1875 
Q 21.34375 51.125 25.703125 53.5625 
Q 30.078125 56 35.796875 56 
Q 45.21875 56 50.046875 50.171875 
Q 54.890625 44.34375 54.890625 33.015625 
z
" id="DejaVuSans-6e"/>
      <path d="M 41.109375 46.296875 
Q 39.59375 47.171875 37.8125 47.578125 
Q 36.03125 48 33.890625 48 
Q 26.265625 48 22.1875 43.046875 
Q 18.109375 38.09375 18.109375 28.8125 
L 18.109375 0 
L 9.078125 0 
L 9.078125 54.6875 
L 18.109375 54.6875 
L 18.109375 46.1875 
Q 20.953125 51.171875 25.484375 53.578125 
Q 30.03125 56 36.53125 56 
Q 37.453125 56 38.578125 55.875 
Q 39.703125 55.765625 41.0625 55.515625 
z
" id="DejaVuSans-72"/>
     </defs>
     <g style="fill:#262626;" transform="translate(13.199375 268.777757)rotate(-90)scale(0.096 -0.096)">
      <use xlink:href="#DejaVuSans-54"/>
      <use x="61.037109" xlink:href="#DejaVuSans-69"/>
      <use x="88.820312" xlink:href="#DejaVuSans-6d"/>
      <use x="186.232422" xlink:href="#DejaVuSans-65"/>
      <use x="247.755859" xlink:href="#DejaVuSans-20"/>
      <use x="279.542969" xlink:href="#DejaVuSans-74"/>
      <use x="318.751953" xlink:href="#DejaVuSans-6f"/>
      <use x="379.933594" xlink:href="#DejaVuSans-20"/>
      <use x="411.720703" xlink:href="#DejaVuSans-63"/>
      <use x="466.701172" xlink:href="#DejaVuSans-61"/>
      <use x="527.980469" xlink:href="#DejaVuSans-6e"/>
      <use x="591.359375" xlink:href="#DejaVuSans-63"/>
      <use x="646.339844" xlink:href="#DejaVuSans-65"/>
      <use x="707.863281" xlink:href="#DejaVuSans-72"/>
     </g>
    </g>
   </g>
   <g id="PathCollection_1">
    <defs>
     <path d="M 0 2.4 
C 0.636487 2.4 1.246992 2.147121 1.697056 1.697056 
C 2.147121 1.246992 2.4 0.636487 2.4 0 
C 2.4 -0.636487 2.147121 -1.246992 1.697056 -1.697056 
C 1.246992 -2.147121 0.636487 -2.4 0 -2.4 
C -0.636487 -2.4 -1.246992 -2.147121 -1.697056 -1.697056 
C -2.147121 -1.246992 -2.4 -0.636487 -2.4 0 
C -2.4 0.636487 -2.147121 1.246992 -1.697056 1.697056 
C -1.246992 2.147121 -0.636487 2.4 0 2.4 
z
" id="md36661bf9c" style="stroke:#471365;stroke-opacity:0.8;"/>
    </defs>
    <g clip-path="url(#pa72b70de83)">
     <use style="fill:#471365;fill-opacity:0.8;stroke:#471365;stroke-opacity:0.8;" x="122.035651" xlink:href="#md36661bf9c" y="176.108728"/>
     <use style="fill:#471365;fill-opacity:0.8;stroke:#471365;stroke-opacity:0.8;" x="129.701247" xlink:href="#md36661bf9c" y="295.91925"/>
     <use style="fill:#471365;fill-opacity:0.8;stroke:#471365;stroke-opacity:0.8;" x="121.745356" xlink:href="#md36661bf9c" y="287.013571"/>
     <use style="fill:#471365;fill-opacity:0.8;stroke:#471365;stroke-opacity:0.8;" x="166.611972" xlink:href="#md36661bf9c" y="298.166478"/>
     <use style="fill:#471365;fill-opacity:0.8;stroke:#471365;stroke-opacity:0.8;" x="142.550901" xlink:href="#md36661bf9c" y="296.182814"/>
     <use style="fill:#471365;fill-opacity:0.8;stroke:#471365;stroke-opacity:0.8;" x="197.20373" xlink:href="#md36661bf9c" y="296.016353"/>
     <use style="fill:#471365;fill-opacity:0.8;stroke:#471365;stroke-opacity:0.8;" x="183.833379" xlink:href="#md36661bf9c" y="309.652308"/>
     <use style="fill:#471365;fill-opacity:0.8;stroke:#471365;stroke-opacity:0.8;" x="167.61627" xlink:href="#md36661bf9c" y="307.238619"/>
     <use style="fill:#471365;fill-opacity:0.8;stroke:#471365;stroke-opacity:0.8;" x="124.353357" xlink:href="#md36661bf9c" y="290.967027"/>
     <use style="fill:#471365;fill-opacity:0.8;stroke:#471365;stroke-opacity:0.8;" x="246.366664" xlink:href="#md36661bf9c" y="309.069693"/>
     <use style="fill:#471365;fill-opacity:0.8;stroke:#471365;stroke-opacity:0.8;" x="138.554992" xlink:href="#md36661bf9c" y="294.018817"/>
     <use style="fill:#471365;fill-opacity:0.8;stroke:#471365;stroke-opacity:0.8;" x="150.921932" xlink:href="#md36661bf9c" y="304.505879"/>
     <use style="fill:#471365;fill-opacity:0.8;stroke:#471365;stroke-opacity:0.8;" x="145.390022" xlink:href="#md36661bf9c" y="289.74631"/>
     <use style="fill:#471365;fill-opacity:0.8;stroke:#471365;stroke-opacity:0.8;" x="180.564734" xlink:href="#md36661bf9c" y="302.09219"/>
     <use style="fill:#471365;fill-opacity:0.8;stroke:#471365;stroke-opacity:0.8;" x="191.177477" xlink:href="#md36661bf9c" y="308.556437"/>
     <use style="fill:#471365;fill-opacity:0.8;stroke:#471365;stroke-opacity:0.8;" x="204.568577" xlink:href="#md36661bf9c" y="303.118702"/>
     <use style="fill:#471365;fill-opacity:0.8;stroke:#471365;stroke-opacity:0.8;" x="146.679978" xlink:href="#md36661bf9c" y="292.492922"/>
     <use style="fill:#471365;fill-opacity:0.8;stroke:#471365;stroke-opacity:0.8;" x="129.162835" xlink:href="#md36661bf9c" y="286.153521"/>
     <use style="fill:#471365;fill-opacity:0.8;stroke:#471365;stroke-opacity:0.8;" x="175.100899" xlink:href="#md36661bf9c" y="301.259884"/>
     <use style="fill:#471365;fill-opacity:0.8;stroke:#471365;stroke-opacity:0.8;" x="152.280378" xlink:href="#md36661bf9c" y="298.471657"/>
     <use style="fill:#471365;fill-opacity:0.8;stroke:#471365;stroke-opacity:0.8;" x="184.735136" xlink:href="#md36661bf9c" y="305.865313"/>
     <use style="fill:#471365;fill-opacity:0.8;stroke:#471365;stroke-opacity:0.8;" x="186.929204" xlink:href="#md36661bf9c" y="301.773139"/>
     <use style="fill:#471365;fill-opacity:0.8;stroke:#471365;stroke-opacity:0.8;" x="138.37517" xlink:href="#md36661bf9c" y="290.856052"/>
     <use style="fill:#471365;fill-opacity:0.8;stroke:#471365;stroke-opacity:0.8;" x="148.153989" xlink:href="#md36661bf9c" y="304.061982"/>
     <use style="fill:#471365;fill-opacity:0.8;stroke:#471365;stroke-opacity:0.8;" x="161.538209" xlink:href="#md36661bf9c" y="298.693605"/>
     <use style="fill:#471365;fill-opacity:0.8;stroke:#471365;stroke-opacity:0.8;" x="150.278756" xlink:href="#md36661bf9c" y="296.807044"/>
     <use style="fill:#471365;fill-opacity:0.8;stroke:#471365;stroke-opacity:0.8;" x="130.775562" xlink:href="#md36661bf9c" y="296.793172"/>
     <use style="fill:#471365;fill-opacity:0.8;stroke:#471365;stroke-opacity:0.8;" x="127.613743" xlink:href="#md36661bf9c" y="264.7355"/>
     <use style="fill:#471365;fill-opacity:0.8;stroke:#471365;stroke-opacity:0.8;" x="129.875359" xlink:href="#md36661bf9c" y="273.294385"/>
     <use style="fill:#471365;fill-opacity:0.8;stroke:#471365;stroke-opacity:0.8;" x="132.459587" xlink:href="#md36661bf9c" y="290.564745"/>
     <use style="fill:#471365;fill-opacity:0.8;stroke:#471365;stroke-opacity:0.8;" x="184.86826" xlink:href="#md36661bf9c" y="302.466728"/>
     <use style="fill:#471365;fill-opacity:0.8;stroke:#471365;stroke-opacity:0.8;" x="139.868585" xlink:href="#md36661bf9c" y="295.142431"/>
     <use style="fill:#471365;fill-opacity:0.8;stroke:#471365;stroke-opacity:0.8;" x="172.841756" xlink:href="#md36661bf9c" y="301.14891"/>
     <use style="fill:#471365;fill-opacity:0.8;stroke:#471365;stroke-opacity:0.8;" x="141.643338" xlink:href="#md36661bf9c" y="294.102048"/>
     <use style="fill:#471365;fill-opacity:0.8;stroke:#471365;stroke-opacity:0.8;" x="127.109716" xlink:href="#md36661bf9c" y="287.804262"/>
     <use style="fill:#471365;fill-opacity:0.8;stroke:#471365;stroke-opacity:0.8;" x="131.06672" xlink:href="#md36661bf9c" y="301.509576"/>
     <use style="fill:#471365;fill-opacity:0.8;stroke:#471365;stroke-opacity:0.8;" x="151.116867" xlink:href="#md36661bf9c" y="278.094019"/>
     <use style="fill:#471365;fill-opacity:0.8;stroke:#471365;stroke-opacity:0.8;" x="134.034169" xlink:href="#md36661bf9c" y="283.157217"/>
     <use style="fill:#471365;fill-opacity:0.8;stroke:#471365;stroke-opacity:0.8;" x="154.741173" xlink:href="#md36661bf9c" y="302.619318"/>
     <use style="fill:#471365;fill-opacity:0.8;stroke:#471365;stroke-opacity:0.8;" x="123.413236" xlink:href="#md36661bf9c" y="273.25277"/>
     <use style="fill:#471365;fill-opacity:0.8;stroke:#471365;stroke-opacity:0.8;" x="157.783341" xlink:href="#md36661bf9c" y="300.344347"/>
     <use style="fill:#471365;fill-opacity:0.8;stroke:#471365;stroke-opacity:0.8;" x="182.687119" xlink:href="#md36661bf9c" y="304.602982"/>
     <use style="fill:#471365;fill-opacity:0.8;stroke:#471365;stroke-opacity:0.8;" x="169.234665" xlink:href="#md36661bf9c" y="294.97597"/>
     <use style="fill:#471365;fill-opacity:0.8;stroke:#471365;stroke-opacity:0.8;" x="187.409177" xlink:href="#md36661bf9c" y="308.625796"/>
     <use style="fill:#471365;fill-opacity:0.8;stroke:#471365;stroke-opacity:0.8;" x="200.918219" xlink:href="#md36661bf9c" y="303.895521"/>
     <use style="fill:#471365;fill-opacity:0.8;stroke:#471365;stroke-opacity:0.8;" x="156.944448" xlink:href="#md36661bf9c" y="307.682516"/>
     <use style="fill:#471365;fill-opacity:0.8;stroke:#471365;stroke-opacity:0.8;" x="136.026037" xlink:href="#md36661bf9c" y="301.107294"/>
     <use style="fill:#471365;fill-opacity:0.8;stroke:#471365;stroke-opacity:0.8;" x="128.454445" xlink:href="#md36661bf9c" y="295.350508"/>
     <use style="fill:#471365;fill-opacity:0.8;stroke:#471365;stroke-opacity:0.8;" x="163.423443" xlink:href="#md36661bf9c" y="301.703781"/>
     <use style="fill:#471365;fill-opacity:0.8;stroke:#471365;stroke-opacity:0.8;" x="186.178412" xlink:href="#md36661bf9c" y="307.890592"/>
     <use style="fill:#471365;fill-opacity:0.8;stroke:#471365;stroke-opacity:0.8;" x="201.784192" xlink:href="#md36661bf9c" y="316.629811"/>
     <use style="fill:#471365;fill-opacity:0.8;stroke:#471365;stroke-opacity:0.8;" x="141.928756" xlink:href="#md36661bf9c" y="295.308892"/>
     <use style="fill:#471365;fill-opacity:0.8;stroke:#471365;stroke-opacity:0.8;" x="155.546963" xlink:href="#md36661bf9c" y="297.16771"/>
     <use style="fill:#471365;fill-opacity:0.8;stroke:#471365;stroke-opacity:0.8;" x="154.970905" xlink:href="#md36661bf9c" y="297.445146"/>
     <use style="fill:#471365;fill-opacity:0.8;stroke:#471365;stroke-opacity:0.8;" x="128.20083" xlink:href="#md36661bf9c" y="298.929426"/>
     <use style="fill:#471365;fill-opacity:0.8;stroke:#471365;stroke-opacity:0.8;" x="151.371165" xlink:href="#md36661bf9c" y="287.388109"/>
     <use style="fill:#471365;fill-opacity:0.8;stroke:#471365;stroke-opacity:0.8;" x="118.75909" xlink:href="#md36661bf9c" y="281.742296"/>
     <use style="fill:#471365;fill-opacity:0.8;stroke:#471365;stroke-opacity:0.8;" x="133.879995" xlink:href="#md36661bf9c" y="290.231823"/>
     <use style="fill:#471365;fill-opacity:0.8;stroke:#471365;stroke-opacity:0.8;" x="134.536793" xlink:href="#md36661bf9c" y="296.044096"/>
     <use style="fill:#471365;fill-opacity:0.8;stroke:#471365;stroke-opacity:0.8;" x="218.440654" xlink:href="#md36661bf9c" y="306.350825"/>
     <use style="fill:#471365;fill-opacity:0.8;stroke:#471365;stroke-opacity:0.8;" x="134.756443" xlink:href="#md36661bf9c" y="297.40353"/>
     <use style="fill:#471365;fill-opacity:0.8;stroke:#471365;stroke-opacity:0.8;" x="127.588793" xlink:href="#md36661bf9c" y="295.239533"/>
     <use style="fill:#471365;fill-opacity:0.8;stroke:#471365;stroke-opacity:0.8;" x="180.103322" xlink:href="#md36661bf9c" y="305.324314"/>
     <use style="fill:#471365;fill-opacity:0.8;stroke:#471365;stroke-opacity:0.8;" x="165.48465" xlink:href="#md36661bf9c" y="299.095887"/>
     <use style="fill:#471365;fill-opacity:0.8;stroke:#471365;stroke-opacity:0.8;" x="189.940905" xlink:href="#md36661bf9c" y="306.489543"/>
     <use style="fill:#471365;fill-opacity:0.8;stroke:#471365;stroke-opacity:0.8;" x="126.669781" xlink:href="#md36661bf9c" y="290.176335"/>
     <use style="fill:#471365;fill-opacity:0.8;stroke:#471365;stroke-opacity:0.8;" x="130.326251" xlink:href="#md36661bf9c" y="283.406909"/>
     <use style="fill:#471365;fill-opacity:0.8;stroke:#471365;stroke-opacity:0.8;" x="127.381813" xlink:href="#md36661bf9c" y="293.241998"/>
     <use style="fill:#471365;fill-opacity:0.8;stroke:#471365;stroke-opacity:0.8;" x="165.869972" xlink:href="#md36661bf9c" y="307.086029"/>
     <use style="fill:#471365;fill-opacity:0.8;stroke:#471365;stroke-opacity:0.8;" x="118.352948" xlink:href="#md36661bf9c" y="250.572417"/>
     <use style="fill:#471365;fill-opacity:0.8;stroke:#471365;stroke-opacity:0.8;" x="170.948273" xlink:href="#md36661bf9c" y="304.616853"/>
     <use style="fill:#471365;fill-opacity:0.8;stroke:#471365;stroke-opacity:0.8;" x="118.051926" xlink:href="#md36661bf9c" y="276.734585"/>
     <use style="fill:#471365;fill-opacity:0.8;stroke:#471365;stroke-opacity:0.8;" x="173.111384" xlink:href="#md36661bf9c" y="300.677269"/>
     <use style="fill:#471365;fill-opacity:0.8;stroke:#471365;stroke-opacity:0.8;" x="126.772934" xlink:href="#md36661bf9c" y="293.699766"/>
     <use style="fill:#471365;fill-opacity:0.8;stroke:#471365;stroke-opacity:0.8;" x="186.284229" xlink:href="#md36661bf9c" y="305.962416"/>
     <use style="fill:#471365;fill-opacity:0.8;stroke:#471365;stroke-opacity:0.8;" x="121.486034" xlink:href="#md36661bf9c" y="124.69993"/>
     <use style="fill:#471365;fill-opacity:0.8;stroke:#471365;stroke-opacity:0.8;" x="123.117623" xlink:href="#md36661bf9c" y="284.239216"/>
     <use style="fill:#471365;fill-opacity:0.8;stroke:#471365;stroke-opacity:0.8;" x="137.438283" xlink:href="#md36661bf9c" y="298.083247"/>
     <use style="fill:#471365;fill-opacity:0.8;stroke:#471365;stroke-opacity:0.8;" x="112.928641" xlink:href="#md36661bf9c" y="283.476268"/>
     <use style="fill:#471365;fill-opacity:0.8;stroke:#471365;stroke-opacity:0.8;" x="185.228867" xlink:href="#md36661bf9c" y="307.099901"/>
     <use style="fill:#471365;fill-opacity:0.8;stroke:#471365;stroke-opacity:0.8;" x="165.952072" xlink:href="#md36661bf9c" y="292.86746"/>
     <use style="fill:#471365;fill-opacity:0.8;stroke:#471365;stroke-opacity:0.8;" x="140.132296" xlink:href="#md36661bf9c" y="304.783315"/>
     <use style="fill:#471365;fill-opacity:0.8;stroke:#471365;stroke-opacity:0.8;" x="195.298149" xlink:href="#md36661bf9c" y="306.864081"/>
     <use style="fill:#471365;fill-opacity:0.8;stroke:#471365;stroke-opacity:0.8;" x="142.831282" xlink:href="#md36661bf9c" y="299.248476"/>
     <use style="fill:#471365;fill-opacity:0.8;stroke:#471365;stroke-opacity:0.8;" x="141.744224" xlink:href="#md36661bf9c" y="296.141199"/>
     <use style="fill:#471365;fill-opacity:0.8;stroke:#471365;stroke-opacity:0.8;" x="202.222149" xlink:href="#md36661bf9c" y="304.034239"/>
     <use style="fill:#471365;fill-opacity:0.8;stroke:#471365;stroke-opacity:0.8;" x="125.150907" xlink:href="#md36661bf9c" y="287.388109"/>
     <use style="fill:#471365;fill-opacity:0.8;stroke:#471365;stroke-opacity:0.8;" x="147.94185" xlink:href="#md36661bf9c" y="295.780533"/>
     <use style="fill:#471365;fill-opacity:0.8;stroke:#471365;stroke-opacity:0.8;" x="132.101824" xlink:href="#md36661bf9c" y="249.296214"/>
     <use style="fill:#471365;fill-opacity:0.8;stroke:#471365;stroke-opacity:0.8;" x="114.569654" xlink:href="#md36661bf9c" y="292.936819"/>
     <use style="fill:#471365;fill-opacity:0.8;stroke:#471365;stroke-opacity:0.8;" x="125.83225" xlink:href="#md36661bf9c" y="288.040082"/>
     <use style="fill:#471365;fill-opacity:0.8;stroke:#471365;stroke-opacity:0.8;" x="130.726113" xlink:href="#md36661bf9c" y="307.862849"/>
     <use style="fill:#471365;fill-opacity:0.8;stroke:#471365;stroke-opacity:0.8;" x="126.658606" xlink:href="#md36661bf9c" y="203.741305"/>
     <use style="fill:#471365;fill-opacity:0.8;stroke:#471365;stroke-opacity:0.8;" x="132.302675" xlink:href="#md36661bf9c" y="294.559816"/>
     <use style="fill:#471365;fill-opacity:0.8;stroke:#471365;stroke-opacity:0.8;" x="200.407828" xlink:href="#md36661bf9c" y="297.472889"/>
     <use style="fill:#471365;fill-opacity:0.8;stroke:#471365;stroke-opacity:0.8;" x="150.678798" xlink:href="#md36661bf9c" y="298.790708"/>
     <use style="fill:#471365;fill-opacity:0.8;stroke:#471365;stroke-opacity:0.8;" x="212.093152" xlink:href="#md36661bf9c" y="305.851441"/>
     <use style="fill:#471365;fill-opacity:0.8;stroke:#471365;stroke-opacity:0.8;" x="123.366061" xlink:href="#md36661bf9c" y="117.250786"/>
     <use style="fill:#471365;fill-opacity:0.8;stroke:#471365;stroke-opacity:0.8;" x="197.774926" xlink:href="#md36661bf9c" y="310.026846"/>
     <use style="fill:#471365;fill-opacity:0.8;stroke:#471365;stroke-opacity:0.8;" x="119.0089" xlink:href="#md36661bf9c" y="296.848659"/>
     <use style="fill:#471365;fill-opacity:0.8;stroke:#471365;stroke-opacity:0.8;" x="175.352247" xlink:href="#md36661bf9c" y="293.10328"/>
     <use style="fill:#471365;fill-opacity:0.8;stroke:#471365;stroke-opacity:0.8;" x="175.134856" xlink:href="#md36661bf9c" y="297.375787"/>
     <use style="fill:#471365;fill-opacity:0.8;stroke:#471365;stroke-opacity:0.8;" x="172.189119" xlink:href="#md36661bf9c" y="299.66463"/>
     <use style="fill:#471365;fill-opacity:0.8;stroke:#471365;stroke-opacity:0.8;" x="168.124272" xlink:href="#md36661bf9c" y="295.364379"/>
     <use style="fill:#471365;fill-opacity:0.8;stroke:#471365;stroke-opacity:0.8;" x="123.394892" xlink:href="#md36661bf9c" y="271.53267"/>
     <use style="fill:#471365;fill-opacity:0.8;stroke:#471365;stroke-opacity:0.8;" x="200.80189" xlink:href="#md36661bf9c" y="303.090958"/>
     <use style="fill:#471365;fill-opacity:0.8;stroke:#471365;stroke-opacity:0.8;" x="129.873386" xlink:href="#md36661bf9c" y="290.009874"/>
     <use style="fill:#471365;fill-opacity:0.8;stroke:#471365;stroke-opacity:0.8;" x="123.153711" xlink:href="#md36661bf9c" y="300.566295"/>
     <use style="fill:#471365;fill-opacity:0.8;stroke:#471365;stroke-opacity:0.8;" x="139.184927" xlink:href="#md36661bf9c" y="288.012338"/>
     <use style="fill:#471365;fill-opacity:0.8;stroke:#471365;stroke-opacity:0.8;" x="138.457351" xlink:href="#md36661bf9c" y="306.212107"/>
     <use style="fill:#471365;fill-opacity:0.8;stroke:#471365;stroke-opacity:0.8;" x="154.1671" xlink:href="#md36661bf9c" y="294.656919"/>
     <use style="fill:#471365;fill-opacity:0.8;stroke:#471365;stroke-opacity:0.8;" x="139.836567" xlink:href="#md36661bf9c" y="298.80458"/>
     <use style="fill:#471365;fill-opacity:0.8;stroke:#471365;stroke-opacity:0.8;" x="124.404575" xlink:href="#md36661bf9c" y="188.440737"/>
     <use style="fill:#471365;fill-opacity:0.8;stroke:#471365;stroke-opacity:0.8;" x="141.630457" xlink:href="#md36661bf9c" y="295.725045"/>
     <use style="fill:#471365;fill-opacity:0.8;stroke:#471365;stroke-opacity:0.8;" x="130.00545" xlink:href="#md36661bf9c" y="289.03885"/>
     <use style="fill:#471365;fill-opacity:0.8;stroke:#471365;stroke-opacity:0.8;" x="128.991764" xlink:href="#md36661bf9c" y="293.602664"/>
     <use style="fill:#471365;fill-opacity:0.8;stroke:#471365;stroke-opacity:0.8;" x="132.366784" xlink:href="#md36661bf9c" y="294.767893"/>
     <use style="fill:#471365;fill-opacity:0.8;stroke:#471365;stroke-opacity:0.8;" x="121.246202" xlink:href="#md36661bf9c" y="287.429724"/>
     <use style="fill:#471365;fill-opacity:0.8;stroke:#471365;stroke-opacity:0.8;" x="123.607918" xlink:href="#md36661bf9c" y="291.619"/>
     <use style="fill:#471365;fill-opacity:0.8;stroke:#471365;stroke-opacity:0.8;" x="141.61353" xlink:href="#md36661bf9c" y="296.196686"/>
     <use style="fill:#471365;fill-opacity:0.8;stroke:#471365;stroke-opacity:0.8;" x="120.169779" xlink:href="#md36661bf9c" y="288.02621"/>
     <use style="fill:#471365;fill-opacity:0.8;stroke:#471365;stroke-opacity:0.8;" x="123.973483" xlink:href="#md36661bf9c" y="297.722581"/>
     <use style="fill:#471365;fill-opacity:0.8;stroke:#471365;stroke-opacity:0.8;" x="147.679452" xlink:href="#md36661bf9c" y="301.454089"/>
     <use style="fill:#471365;fill-opacity:0.8;stroke:#471365;stroke-opacity:0.8;" x="158.684547" xlink:href="#md36661bf9c" y="306.142749"/>
     <use style="fill:#471365;fill-opacity:0.8;stroke:#471365;stroke-opacity:0.8;" x="139.459011" xlink:href="#md36661bf9c" y="297.028992"/>
     <use style="fill:#471365;fill-opacity:0.8;stroke:#471365;stroke-opacity:0.8;" x="174.899769" xlink:href="#md36661bf9c" y="306.267595"/>
     <use style="fill:#471365;fill-opacity:0.8;stroke:#471365;stroke-opacity:0.8;" x="129.884427" xlink:href="#md36661bf9c" y="292.437435"/>
     <use style="fill:#471365;fill-opacity:0.8;stroke:#471365;stroke-opacity:0.8;" x="121.808832" xlink:href="#md36661bf9c" y="286.944212"/>
     <use style="fill:#471365;fill-opacity:0.8;stroke:#471365;stroke-opacity:0.8;" x="203.594152" xlink:href="#md36661bf9c" y="304.991391"/>
     <use style="fill:#471365;fill-opacity:0.8;stroke:#471365;stroke-opacity:0.8;" x="156.955537" xlink:href="#md36661bf9c" y="297.55612"/>
     <use style="fill:#471365;fill-opacity:0.8;stroke:#471365;stroke-opacity:0.8;" x="179.754182" xlink:href="#md36661bf9c" y="297.16771"/>
     <use style="fill:#471365;fill-opacity:0.8;stroke:#471365;stroke-opacity:0.8;" x="133.19149" xlink:href="#md36661bf9c" y="302.924497"/>
     <use style="fill:#471365;fill-opacity:0.8;stroke:#471365;stroke-opacity:0.8;" x="155.86329" xlink:href="#md36661bf9c" y="302.300267"/>
     <use style="fill:#471365;fill-opacity:0.8;stroke:#471365;stroke-opacity:0.8;" x="185.61641" xlink:href="#md36661bf9c" y="304.644597"/>
     <use style="fill:#471365;fill-opacity:0.8;stroke:#471365;stroke-opacity:0.8;" x="154.723257" xlink:href="#md36661bf9c" y="301.204397"/>
     <use style="fill:#471365;fill-opacity:0.8;stroke:#471365;stroke-opacity:0.8;" x="168.681398" xlink:href="#md36661bf9c" y="300.788243"/>
     <use style="fill:#471365;fill-opacity:0.8;stroke:#471365;stroke-opacity:0.8;" x="126.359914" xlink:href="#md36661bf9c" y="290.328925"/>
     <use style="fill:#471365;fill-opacity:0.8;stroke:#471365;stroke-opacity:0.8;" x="161.097888" xlink:href="#md36661bf9c" y="299.484297"/>
     <use style="fill:#471365;fill-opacity:0.8;stroke:#471365;stroke-opacity:0.8;" x="136.496574" xlink:href="#md36661bf9c" y="297.764196"/>
     <use style="fill:#471365;fill-opacity:0.8;stroke:#471365;stroke-opacity:0.8;" x="146.818973" xlink:href="#md36661bf9c" y="301.606678"/>
     <use style="fill:#471365;fill-opacity:0.8;stroke:#471365;stroke-opacity:0.8;" x="121.919781" xlink:href="#md36661bf9c" y="284.11437"/>
     <use style="fill:#471365;fill-opacity:0.8;stroke:#471365;stroke-opacity:0.8;" x="152.254928" xlink:href="#md36661bf9c" y="301.190525"/>
     <use style="fill:#471365;fill-opacity:0.8;stroke:#471365;stroke-opacity:0.8;" x="124.830399" xlink:href="#md36661bf9c" y="245.245656"/>
     <use style="fill:#471365;fill-opacity:0.8;stroke:#471365;stroke-opacity:0.8;" x="128.386371" xlink:href="#md36661bf9c" y="290.28731"/>
     <use style="fill:#471365;fill-opacity:0.8;stroke:#471365;stroke-opacity:0.8;" x="186.515003" xlink:href="#md36661bf9c" y="308.556437"/>
     <use style="fill:#471365;fill-opacity:0.8;stroke:#471365;stroke-opacity:0.8;" x="117.016318" xlink:href="#md36661bf9c" y="296.807044"/>
     <use style="fill:#471365;fill-opacity:0.8;stroke:#471365;stroke-opacity:0.8;" x="123.038678" xlink:href="#md36661bf9c" y="290.800565"/>
     <use style="fill:#471365;fill-opacity:0.8;stroke:#471365;stroke-opacity:0.8;" x="111.664338" xlink:href="#md36661bf9c" y="258.382227"/>
     <use style="fill:#471365;fill-opacity:0.8;stroke:#471365;stroke-opacity:0.8;" x="120.725158" xlink:href="#md36661bf9c" y="256.273717"/>
     <use style="fill:#471365;fill-opacity:0.8;stroke:#471365;stroke-opacity:0.8;" x="135.697533" xlink:href="#md36661bf9c" y="281.61745"/>
     <use style="fill:#471365;fill-opacity:0.8;stroke:#471365;stroke-opacity:0.8;" x="182.929487" xlink:href="#md36661bf9c" y="301.842498"/>
     <use style="fill:#471365;fill-opacity:0.8;stroke:#471365;stroke-opacity:0.8;" x="146.346475" xlink:href="#md36661bf9c" y="300.122398"/>
     <use style="fill:#471365;fill-opacity:0.8;stroke:#471365;stroke-opacity:0.8;" x="135.644751" xlink:href="#md36661bf9c" y="300.261116"/>
     <use style="fill:#471365;fill-opacity:0.8;stroke:#471365;stroke-opacity:0.8;" x="160.464686" xlink:href="#md36661bf9c" y="298.41617"/>
     <use style="fill:#471365;fill-opacity:0.8;stroke:#471365;stroke-opacity:0.8;" x="153.238602" xlink:href="#md36661bf9c" y="150.223996"/>
     <use style="fill:#471365;fill-opacity:0.8;stroke:#471365;stroke-opacity:0.8;" x="135.014427" xlink:href="#md36661bf9c" y="274.82028"/>
     <use style="fill:#471365;fill-opacity:0.8;stroke:#471365;stroke-opacity:0.8;" x="207.457457" xlink:href="#md36661bf9c" y="307.529926"/>
     <use style="fill:#471365;fill-opacity:0.8;stroke:#471365;stroke-opacity:0.8;" x="143.643051" xlink:href="#md36661bf9c" y="299.442681"/>
     <use style="fill:#471365;fill-opacity:0.8;stroke:#471365;stroke-opacity:0.8;" x="186.566964" xlink:href="#md36661bf9c" y="305.962416"/>
     <use style="fill:#471365;fill-opacity:0.8;stroke:#471365;stroke-opacity:0.8;" x="226.201586" xlink:href="#md36661bf9c" y="308.168028"/>
     <use style="fill:#471365;fill-opacity:0.8;stroke:#471365;stroke-opacity:0.8;" x="179.944915" xlink:href="#md36661bf9c" y="309.430359"/>
     <use style="fill:#471365;fill-opacity:0.8;stroke:#471365;stroke-opacity:0.8;" x="152.68353" xlink:href="#md36661bf9c" y="300.288859"/>
     <use style="fill:#471365;fill-opacity:0.8;stroke:#471365;stroke-opacity:0.8;" x="228.730718" xlink:href="#md36661bf9c" y="299.581399"/>
     <use style="fill:#471365;fill-opacity:0.8;stroke:#471365;stroke-opacity:0.8;" x="161.708566" xlink:href="#md36661bf9c" y="304.325546"/>
     <use style="fill:#471365;fill-opacity:0.8;stroke:#471365;stroke-opacity:0.8;" x="164.544487" xlink:href="#md36661bf9c" y="306.239851"/>
     <use style="fill:#471365;fill-opacity:0.8;stroke:#471365;stroke-opacity:0.8;" x="172.848101" xlink:href="#md36661bf9c" y="304.547494"/>
     <use style="fill:#471365;fill-opacity:0.8;stroke:#471365;stroke-opacity:0.8;" x="139.158593" xlink:href="#md36661bf9c" y="299.290092"/>
     <use style="fill:#471365;fill-opacity:0.8;stroke:#471365;stroke-opacity:0.8;" x="154.135673" xlink:href="#md36661bf9c" y="298.65199"/>
     <use style="fill:#471365;fill-opacity:0.8;stroke:#471365;stroke-opacity:0.8;" x="134.685267" xlink:href="#md36661bf9c" y="285.265727"/>
     <use style="fill:#471365;fill-opacity:0.8;stroke:#471365;stroke-opacity:0.8;" x="246.824896" xlink:href="#md36661bf9c" y="306.461799"/>
     <use style="fill:#471365;fill-opacity:0.8;stroke:#471365;stroke-opacity:0.8;" x="115.128257" xlink:href="#md36661bf9c" y="291.508026"/>
     <use style="fill:#471365;fill-opacity:0.8;stroke:#471365;stroke-opacity:0.8;" x="156.586439" xlink:href="#md36661bf9c" y="301.787011"/>
     <use style="fill:#471365;fill-opacity:0.8;stroke:#471365;stroke-opacity:0.8;" x="163.812282" xlink:href="#md36661bf9c" y="292.520665"/>
     <use style="fill:#471365;fill-opacity:0.8;stroke:#471365;stroke-opacity:0.8;" x="160.625471" xlink:href="#md36661bf9c" y="300.413705"/>
     <use style="fill:#471365;fill-opacity:0.8;stroke:#471365;stroke-opacity:0.8;" x="179.656051" xlink:href="#md36661bf9c" y="305.21334"/>
     <use style="fill:#471365;fill-opacity:0.8;stroke:#471365;stroke-opacity:0.8;" x="215.770925" xlink:href="#md36661bf9c" y="303.631957"/>
     <use style="fill:#471365;fill-opacity:0.8;stroke:#471365;stroke-opacity:0.8;" x="124.435733" xlink:href="#md36661bf9c" y="287.193904"/>
     <use style="fill:#471365;fill-opacity:0.8;stroke:#471365;stroke-opacity:0.8;" x="161.42458" xlink:href="#md36661bf9c" y="294.948226"/>
     <use style="fill:#471365;fill-opacity:0.8;stroke:#471365;stroke-opacity:0.8;" x="120.606768" xlink:href="#md36661bf9c" y="293.089408"/>
     <use style="fill:#471365;fill-opacity:0.8;stroke:#471365;stroke-opacity:0.8;" x="150.440997" xlink:href="#md36661bf9c" y="301.981216"/>
     <use style="fill:#471365;fill-opacity:0.8;stroke:#471365;stroke-opacity:0.8;" x="146.857754" xlink:href="#md36661bf9c" y="299.12363"/>
     <use style="fill:#471365;fill-opacity:0.8;stroke:#471365;stroke-opacity:0.8;" x="129.114129" xlink:href="#md36661bf9c" y="295.988609"/>
     <use style="fill:#471365;fill-opacity:0.8;stroke:#471365;stroke-opacity:0.8;" x="189.171008" xlink:href="#md36661bf9c" y="308.070925"/>
     <use style="fill:#471365;fill-opacity:0.8;stroke:#471365;stroke-opacity:0.8;" x="164.898672" xlink:href="#md36661bf9c" y="295.725045"/>
     <use style="fill:#471365;fill-opacity:0.8;stroke:#471365;stroke-opacity:0.8;" x="147.66087" xlink:href="#md36661bf9c" y="298.568759"/>
     <use style="fill:#471365;fill-opacity:0.8;stroke:#471365;stroke-opacity:0.8;" x="130.793096" xlink:href="#md36661bf9c" y="294.323996"/>
     <use style="fill:#471365;fill-opacity:0.8;stroke:#471365;stroke-opacity:0.8;" x="136.784931" xlink:href="#md36661bf9c" y="298.277452"/>
     <use style="fill:#471365;fill-opacity:0.8;stroke:#471365;stroke-opacity:0.8;" x="131.589265" xlink:href="#md36661bf9c" y="294.559816"/>
     <use style="fill:#471365;fill-opacity:0.8;stroke:#471365;stroke-opacity:0.8;" x="142.753691" xlink:href="#md36661bf9c" y="303.590342"/>
     <use style="fill:#471365;fill-opacity:0.8;stroke:#471365;stroke-opacity:0.8;" x="123.302847" xlink:href="#md36661bf9c" y="273.183411"/>
     <use style="fill:#471365;fill-opacity:0.8;stroke:#471365;stroke-opacity:0.8;" x="165.509158" xlink:href="#md36661bf9c" y="303.784547"/>
     <use style="fill:#471365;fill-opacity:0.8;stroke:#471365;stroke-opacity:0.8;" x="115.601936" xlink:href="#md36661bf9c" y="251.418596"/>
     <use style="fill:#471365;fill-opacity:0.8;stroke:#471365;stroke-opacity:0.8;" x="102.152359" xlink:href="#md36661bf9c" y="291.119616"/>
     <use style="fill:#471365;fill-opacity:0.8;stroke:#471365;stroke-opacity:0.8;" x="164.725262" xlink:href="#md36661bf9c" y="298.013888"/>
     <use style="fill:#471365;fill-opacity:0.8;stroke:#471365;stroke-opacity:0.8;" x="153.70415" xlink:href="#md36661bf9c" y="299.303963"/>
     <use style="fill:#471365;fill-opacity:0.8;stroke:#471365;stroke-opacity:0.8;" x="151.158135" xlink:href="#md36661bf9c" y="300.039168"/>
     <use style="fill:#471365;fill-opacity:0.8;stroke:#471365;stroke-opacity:0.8;" x="205.643729" xlink:href="#md36661bf9c" y="303.534855"/>
     <use style="fill:#471365;fill-opacity:0.8;stroke:#471365;stroke-opacity:0.8;" x="175.344732" xlink:href="#md36661bf9c" y="302.605446"/>
     <use style="fill:#471365;fill-opacity:0.8;stroke:#471365;stroke-opacity:0.8;" x="118.138911" xlink:href="#md36661bf9c" y="286.181264"/>
     <use style="fill:#471365;fill-opacity:0.8;stroke:#471365;stroke-opacity:0.8;" x="122.680562" xlink:href="#md36661bf9c" y="291.272206"/>
     <use style="fill:#471365;fill-opacity:0.8;stroke:#471365;stroke-opacity:0.8;" x="138.468565" xlink:href="#md36661bf9c" y="293.3391"/>
     <use style="fill:#471365;fill-opacity:0.8;stroke:#471365;stroke-opacity:0.8;" x="193.266864" xlink:href="#md36661bf9c" y="298.721349"/>
     <use style="fill:#471365;fill-opacity:0.8;stroke:#471365;stroke-opacity:0.8;" x="138.277275" xlink:href="#md36661bf9c" y="292.576153"/>
     <use style="fill:#471365;fill-opacity:0.8;stroke:#471365;stroke-opacity:0.8;" x="149.271432" xlink:href="#md36661bf9c" y="295.281149"/>
     <use style="fill:#471365;fill-opacity:0.8;stroke:#471365;stroke-opacity:0.8;" x="137.897742" xlink:href="#md36661bf9c" y="295.281149"/>
     <use style="fill:#471365;fill-opacity:0.8;stroke:#471365;stroke-opacity:0.8;" x="130.907228" xlink:href="#md36661bf9c" y="292.839716"/>
     <use style="fill:#471365;fill-opacity:0.8;stroke:#471365;stroke-opacity:0.8;" x="154.55433" xlink:href="#md36661bf9c" y="300.60791"/>
     <use style="fill:#471365;fill-opacity:0.8;stroke:#471365;stroke-opacity:0.8;" x="165.175265" xlink:href="#md36661bf9c" y="300.815987"/>
     <use style="fill:#471365;fill-opacity:0.8;stroke:#471365;stroke-opacity:0.8;" x="139.850462" xlink:href="#md36661bf9c" y="303.465496"/>
     <use style="fill:#471365;fill-opacity:0.8;stroke:#471365;stroke-opacity:0.8;" x="174.263266" xlink:href="#md36661bf9c" y="301.537319"/>
     <use style="fill:#471365;fill-opacity:0.8;stroke:#471365;stroke-opacity:0.8;" x="113.710567" xlink:href="#md36661bf9c" y="281.367758"/>
     <use style="fill:#471365;fill-opacity:0.8;stroke:#471365;stroke-opacity:0.8;" x="130.99213" xlink:href="#md36661bf9c" y="290.786694"/>
     <use style="fill:#471365;fill-opacity:0.8;stroke:#471365;stroke-opacity:0.8;" x="141.693776" xlink:href="#md36661bf9c" y="302.71642"/>
     <use style="fill:#471365;fill-opacity:0.8;stroke:#471365;stroke-opacity:0.8;" x="126.901764" xlink:href="#md36661bf9c" y="288.26203"/>
     <use style="fill:#471365;fill-opacity:0.8;stroke:#471365;stroke-opacity:0.8;" x="298.301699" xlink:href="#md36661bf9c" y="308.473207"/>
     <use style="fill:#471365;fill-opacity:0.8;stroke:#471365;stroke-opacity:0.8;" x="120.256187" xlink:href="#md36661bf9c" y="238.531717"/>
     <use style="fill:#471365;fill-opacity:0.8;stroke:#471365;stroke-opacity:0.8;" x="151.797144" xlink:href="#md36661bf9c" y="303.687444"/>
     <use style="fill:#471365;fill-opacity:0.8;stroke:#471365;stroke-opacity:0.8;" x="182.098325" xlink:href="#md36661bf9c" y="299.914322"/>
     <use style="fill:#471365;fill-opacity:0.8;stroke:#471365;stroke-opacity:0.8;" x="140.211502" xlink:href="#md36661bf9c" y="216.21203"/>
     <use style="fill:#471365;fill-opacity:0.8;stroke:#471365;stroke-opacity:0.8;" x="180.738279" xlink:href="#md36661bf9c" y="299.942065"/>
     <use style="fill:#471365;fill-opacity:0.8;stroke:#471365;stroke-opacity:0.8;" x="177.922585" xlink:href="#md36661bf9c" y="310.928511"/>
     <use style="fill:#471365;fill-opacity:0.8;stroke:#471365;stroke-opacity:0.8;" x="166.253293" xlink:href="#md36661bf9c" y="302.966112"/>
     <use style="fill:#471365;fill-opacity:0.8;stroke:#471365;stroke-opacity:0.8;" x="122.725313" xlink:href="#md36661bf9c" y="297.375787"/>
     <use style="fill:#471365;fill-opacity:0.8;stroke:#471365;stroke-opacity:0.8;" x="121.681651" xlink:href="#md36661bf9c" y="288.581081"/>
     <use style="fill:#471365;fill-opacity:0.8;stroke:#471365;stroke-opacity:0.8;" x="208.494065" xlink:href="#md36661bf9c" y="314.549044"/>
     <use style="fill:#471365;fill-opacity:0.8;stroke:#471365;stroke-opacity:0.8;" x="140.93047" xlink:href="#md36661bf9c" y="301.135038"/>
     <use style="fill:#471365;fill-opacity:0.8;stroke:#471365;stroke-opacity:0.8;" x="154.934958" xlink:href="#md36661bf9c" y="295.308892"/>
     <use style="fill:#471365;fill-opacity:0.8;stroke:#471365;stroke-opacity:0.8;" x="149.178209" xlink:href="#md36661bf9c" y="297.944529"/>
     <use style="fill:#471365;fill-opacity:0.8;stroke:#471365;stroke-opacity:0.8;" x="125.131114" xlink:href="#md36661bf9c" y="292.381948"/>
     <use style="fill:#471365;fill-opacity:0.8;stroke:#471365;stroke-opacity:0.8;" x="164.370083" xlink:href="#md36661bf9c" y="305.615621"/>
     <use style="fill:#471365;fill-opacity:0.8;stroke:#471365;stroke-opacity:0.8;" x="115.648743" xlink:href="#md36661bf9c" y="270.145492"/>
     <use style="fill:#471365;fill-opacity:0.8;stroke:#471365;stroke-opacity:0.8;" x="143.338737" xlink:href="#md36661bf9c" y="296.820916"/>
     <use style="fill:#471365;fill-opacity:0.8;stroke:#471365;stroke-opacity:0.8;" x="146.307035" xlink:href="#md36661bf9c" y="297.001249"/>
     <use style="fill:#471365;fill-opacity:0.8;stroke:#471365;stroke-opacity:0.8;" x="136.095977" xlink:href="#md36661bf9c" y="295.142431"/>
     <use style="fill:#471365;fill-opacity:0.8;stroke:#471365;stroke-opacity:0.8;" x="156.141021" xlink:href="#md36661bf9c" y="296.141199"/>
     <use style="fill:#471365;fill-opacity:0.8;stroke:#471365;stroke-opacity:0.8;" x="199.083733" xlink:href="#md36661bf9c" y="304.131341"/>
     <use style="fill:#471365;fill-opacity:0.8;stroke:#471365;stroke-opacity:0.8;" x="151.273386" xlink:href="#md36661bf9c" y="294.421099"/>
     <use style="fill:#471365;fill-opacity:0.8;stroke:#471365;stroke-opacity:0.8;" x="184.060679" xlink:href="#md36661bf9c" y="301.356986"/>
    </g>
   </g>
   <g id="PolyCollection_1">
    <defs>
     <path d="M 60.082457 -183.14454 
L 60.082457 -160.509745 
L 62.913661 -159.809026 
L 65.744864 -159.108452 
L 68.576068 -158.394161 
L 71.407271 -157.676662 
L 74.238474 -156.959162 
L 77.069678 -156.2576 
L 79.900881 -155.571307 
L 82.732085 -154.885014 
L 85.563288 -154.198721 
L 88.394492 -153.5012 
L 91.225695 -152.801276 
L 94.056899 -152.101353 
L 96.888102 -151.43079 
L 99.719306 -150.759169 
L 102.550509 -150.086521 
L 105.381713 -149.381129 
L 108.212916 -148.635671 
L 111.044119 -147.997878 
L 113.875323 -147.271469 
L 116.706526 -146.544358 
L 119.53773 -145.782762 
L 122.368933 -145.085043 
L 125.200137 -144.390081 
L 128.03134 -143.688538 
L 130.862544 -142.986353 
L 133.693747 -142.287011 
L 136.524951 -141.585809 
L 139.356154 -140.827744 
L 142.187358 -140.08648 
L 145.018561 -139.339504 
L 147.849765 -138.588358 
L 150.680968 -137.815182 
L 153.512171 -137.049354 
L 156.343375 -136.283401 
L 159.174578 -135.41086 
L 162.005782 -134.587923 
L 164.836985 -133.686701 
L 167.668189 -132.716386 
L 170.499392 -131.717154 
L 173.330596 -130.781426 
L 176.161799 -129.752955 
L 178.993003 -128.712491 
L 181.824206 -127.577483 
L 184.65541 -126.444167 
L 187.486613 -125.260272 
L 190.317816 -124.118416 
L 193.14902 -122.967457 
L 195.980223 -121.73327 
L 198.811427 -120.507197 
L 201.64263 -119.269101 
L 204.473834 -118.057049 
L 207.305037 -116.768865 
L 210.136241 -115.494881 
L 212.967444 -114.311584 
L 215.798648 -113.156468 
L 218.629851 -111.994462 
L 221.461055 -110.706215 
L 224.292258 -109.449304 
L 227.123461 -108.188173 
L 229.954665 -107.028949 
L 232.785868 -105.751152 
L 235.617072 -104.537503 
L 238.448275 -103.32496 
L 241.279479 -102.112417 
L 244.110682 -100.846162 
L 246.941886 -99.557413 
L 249.773089 -98.364672 
L 252.604293 -97.106887 
L 255.435496 -95.910328 
L 258.2667 -94.730538 
L 261.097903 -93.54571 
L 263.929106 -92.319133 
L 266.76031 -91.092556 
L 269.591513 -89.865979 
L 272.422717 -88.639402 
L 275.25392 -87.402135 
L 278.085124 -86.138235 
L 280.916327 -84.874335 
L 283.747531 -83.567775 
L 286.578734 -82.242688 
L 289.409938 -80.9176 
L 292.241141 -79.594097 
L 295.072345 -78.270614 
L 297.903548 -76.94713 
L 300.734752 -75.649786 
L 303.565955 -74.433888 
L 306.397158 -73.217991 
L 309.228362 -72.002897 
L 312.059565 -70.789589 
L 314.890769 -69.57628 
L 317.721972 -68.362972 
L 320.553176 -67.149664 
L 323.384379 -65.925477 
L 326.215583 -64.662939 
L 329.046786 -63.400401 
L 331.87799 -62.137863 
L 334.709193 -60.875325 
L 337.540397 -59.612787 
L 340.3716 -58.350249 
L 340.3716 -92.371834 
L 340.3716 -92.371834 
L 337.540397 -93.037207 
L 334.709193 -93.70214 
L 331.87799 -94.375943 
L 329.046786 -95.084215 
L 326.215583 -95.801877 
L 323.384379 -96.519539 
L 320.553176 -97.237201 
L 317.721972 -97.954863 
L 314.890769 -98.672525 
L 312.059565 -99.364516 
L 309.228362 -100.050813 
L 306.397158 -100.737111 
L 303.565955 -101.423408 
L 300.734752 -102.109706 
L 297.903548 -102.796003 
L 295.072345 -103.4823 
L 292.241141 -104.168598 
L 289.409938 -104.854569 
L 286.578734 -105.540465 
L 283.747531 -106.226362 
L 280.916327 -106.912258 
L 278.085124 -107.598865 
L 275.25392 -108.300755 
L 272.422717 -109.002645 
L 269.591513 -109.704535 
L 266.76031 -110.406354 
L 263.929106 -111.107529 
L 261.097903 -111.808704 
L 258.2667 -112.509879 
L 255.435496 -113.248314 
L 252.604293 -113.996878 
L 249.773089 -114.745441 
L 246.941886 -115.495409 
L 244.110682 -116.181352 
L 241.279479 -116.868306 
L 238.448275 -117.583931 
L 235.617072 -118.274002 
L 232.785868 -119.039278 
L 229.954665 -119.76329 
L 227.123461 -120.506985 
L 224.292258 -121.234944 
L 221.461055 -121.89036 
L 218.629851 -122.544959 
L 215.798648 -123.238539 
L 212.967444 -123.919856 
L 210.136241 -124.632579 
L 207.305037 -125.313503 
L 204.473834 -126.044308 
L 201.64263 -126.77745 
L 198.811427 -127.593746 
L 195.980223 -128.355925 
L 193.14902 -129.103261 
L 190.317816 -129.971436 
L 187.486613 -130.841876 
L 184.65541 -131.761052 
L 181.824206 -132.580359 
L 178.993003 -133.49982 
L 176.161799 -134.390818 
L 173.330596 -135.33016 
L 170.499392 -136.244841 
L 167.668189 -137.282646 
L 164.836985 -138.326924 
L 162.005782 -139.312906 
L 159.174578 -140.446608 
L 156.343375 -141.570173 
L 153.512171 -142.585285 
L 150.680968 -143.740527 
L 147.849765 -144.884533 
L 145.018561 -146.052657 
L 142.187358 -147.175557 
L 139.356154 -148.359302 
L 136.524951 -149.536465 
L 133.693747 -150.761298 
L 130.862544 -152.07382 
L 128.03134 -153.306223 
L 125.200137 -154.592615 
L 122.368933 -155.877042 
L 119.53773 -157.161468 
L 116.706526 -158.445895 
L 113.875323 -159.638095 
L 111.044119 -160.856964 
L 108.212916 -161.991139 
L 105.381713 -163.229515 
L 102.550509 -164.44781 
L 99.719306 -165.692544 
L 96.888102 -166.956075 
L 94.056899 -168.181562 
L 91.225695 -169.426653 
L 88.394492 -170.671313 
L 85.563288 -171.915397 
L 82.732085 -173.158383 
L 79.900881 -174.401369 
L 77.069678 -175.640608 
L 74.238474 -176.882765 
L 71.407271 -178.133865 
L 68.576068 -179.378972 
L 65.744864 -180.622779 
L 62.913661 -181.866586 
L 60.082457 -183.14454 
z
" id="mc576a76872" style="stroke:#ffffff;stroke-opacity:0.15;stroke-width:0.8;"/>
    </defs>
    <g clip-path="url(#pa72b70de83)">
     <use style="fill:#471365;fill-opacity:0.15;stroke:#ffffff;stroke-opacity:0.15;stroke-width:0.8;" x="0" xlink:href="#mc576a76872" y="432"/>
    </g>
   </g>
   <g id="line2d_12">
    <path clip-path="url(#pa72b70de83)" d="M 60.082457 261.484964 
L 62.913661 262.418938 
L 65.744864 263.352912 
L 68.576068 264.286886 
L 71.407271 265.22086 
L 74.238474 266.154834 
L 77.069678 267.088808 
L 79.900881 268.022782 
L 82.732085 268.956756 
L 85.563288 269.89073 
L 88.394492 270.824704 
L 91.225695 271.758678 
L 94.056899 272.692652 
L 96.888102 273.626625 
L 99.719306 274.560599 
L 102.550509 275.494573 
L 105.381713 276.428547 
L 108.212916 277.362521 
L 111.044119 278.296495 
L 113.875323 279.230469 
L 116.706526 280.164443 
L 119.53773 281.098417 
L 122.368933 282.032391 
L 125.200137 282.966365 
L 128.03134 283.900339 
L 130.862544 284.834313 
L 133.693747 285.768287 
L 136.524951 286.702261 
L 139.356154 287.636235 
L 142.187358 288.570209 
L 145.018561 289.504183 
L 147.849765 290.438157 
L 150.680968 291.372131 
L 153.512171 292.306105 
L 156.343375 293.240079 
L 159.174578 294.174053 
L 162.005782 295.108027 
L 164.836985 296.042001 
L 167.668189 296.975975 
L 170.499392 297.909949 
L 173.330596 298.843923 
L 176.161799 299.777897 
L 178.993003 300.711871 
L 181.824206 301.645845 
L 184.65541 302.579819 
L 187.486613 303.513793 
L 190.317816 304.447767 
L 193.14902 305.381741 
L 195.980223 306.315715 
L 198.811427 307.249689 
L 201.64263 308.183663 
L 204.473834 309.117637 
L 207.305037 310.051611 
L 210.136241 310.985585 
L 212.967444 311.919559 
L 215.798648 312.853533 
L 218.629851 313.787506 
L 221.461055 314.72148 
L 224.292258 315.655454 
L 227.123461 316.589428 
L 229.954665 317.523402 
L 232.785868 318.457376 
L 235.617072 319.39135 
L 238.448275 320.325324 
L 241.279479 321.259298 
L 244.110682 322.193272 
L 246.941886 323.127246 
L 249.773089 324.06122 
L 252.604293 324.995194 
L 255.435496 325.929168 
L 258.2667 326.863142 
L 261.097903 327.797116 
L 263.929106 328.73109 
L 266.76031 329.665064 
L 269.591513 330.599038 
L 272.422717 331.533012 
L 275.25392 332.466986 
L 278.085124 333.40096 
L 280.916327 334.334934 
L 283.747531 335.268908 
L 286.578734 336.202882 
L 289.409938 337.136856 
L 292.241141 338.07083 
L 295.072345 339.004804 
L 297.903548 339.938778 
L 300.734752 340.872752 
L 303.565955 341.806726 
L 306.397158 342.7407 
L 309.228362 343.674674 
L 312.059565 344.608648 
L 314.890769 345.542622 
L 317.721972 346.476596 
L 320.553176 347.41057 
L 323.384379 348.344544 
L 326.215583 349.278518 
L 329.046786 350.212492 
L 331.87799 351.146466 
L 334.709193 352.08044 
L 337.540397 353.014413 
L 340.3716 353.948387 
" style="fill:none;stroke:#471365;stroke-linecap:round;stroke-width:1.8;"/>
   </g>
   <g id="patch_3">
    <path d="M 46.068 387.732 
L 46.068 77.922514 
" style="fill:none;stroke:#262626;stroke-linecap:square;stroke-linejoin:miter;"/>
   </g>
   <g id="patch_4">
    <path d="M 46.068 387.732 
L 354.386057 387.732 
" style="fill:none;stroke:#262626;stroke-linecap:square;stroke-linejoin:miter;"/>
   </g>
   <g id="legend_1">
    <g id="patch_5">
     <path d="M 187.056807 97.879264 
L 348.226057 97.879264 
Q 349.986057 97.879264 349.986057 96.119264 
L 349.986057 84.082514 
Q 349.986057 82.322514 348.226057 82.322514 
L 187.056807 82.322514 
Q 185.296807 82.322514 185.296807 84.082514 
L 185.296807 96.119264 
Q 185.296807 97.879264 187.056807 97.879264 
z
" style="fill:#ffffff;opacity:0.8;stroke:#cccccc;stroke-linejoin:miter;stroke-width:0.8;"/>
    </g>
    <g id="line2d_13"/>
    <g id="line2d_14"/>
    <g id="text_14">
     <!-- pearsonr = -0.38; p = 9.6e-10 -->
     <defs>
      <path d="M 18.109375 8.203125 
L 18.109375 -20.796875 
L 9.078125 -20.796875 
L 9.078125 54.6875 
L 18.109375 54.6875 
L 18.109375 46.390625 
Q 20.953125 51.265625 25.265625 53.625 
Q 29.59375 56 35.59375 56 
Q 45.5625 56 51.78125 48.09375 
Q 58.015625 40.1875 58.015625 27.296875 
Q 58.015625 14.40625 51.78125 6.484375 
Q 45.5625 -1.421875 35.59375 -1.421875 
Q 29.59375 -1.421875 25.265625 0.953125 
Q 20.953125 3.328125 18.109375 8.203125 
z
M 48.6875 27.296875 
Q 48.6875 37.203125 44.609375 42.84375 
Q 40.53125 48.484375 33.40625 48.484375 
Q 26.265625 48.484375 22.1875 42.84375 
Q 18.109375 37.203125 18.109375 27.296875 
Q 18.109375 17.390625 22.1875 11.75 
Q 26.265625 6.109375 33.40625 6.109375 
Q 40.53125 6.109375 44.609375 11.75 
Q 48.6875 17.390625 48.6875 27.296875 
z
" id="DejaVuSans-70"/>
      <path d="M 44.28125 53.078125 
L 44.28125 44.578125 
Q 40.484375 46.53125 36.375 47.5 
Q 32.28125 48.484375 27.875 48.484375 
Q 21.1875 48.484375 17.84375 46.4375 
Q 14.5 44.390625 14.5 40.28125 
Q 14.5 37.15625 16.890625 35.375 
Q 19.28125 33.59375 26.515625 31.984375 
L 29.59375 31.296875 
Q 39.15625 29.25 43.1875 25.515625 
Q 47.21875 21.78125 47.21875 15.09375 
Q 47.21875 7.46875 41.1875 3.015625 
Q 35.15625 -1.421875 24.609375 -1.421875 
Q 20.21875 -1.421875 15.453125 -0.5625 
Q 10.6875 0.296875 5.421875 2 
L 5.421875 11.28125 
Q 10.40625 8.6875 15.234375 7.390625 
Q 20.0625 6.109375 24.8125 6.109375 
Q 31.15625 6.109375 34.5625 8.28125 
Q 37.984375 10.453125 37.984375 14.40625 
Q 37.984375 18.0625 35.515625 20.015625 
Q 33.0625 21.96875 24.703125 23.78125 
L 21.578125 24.515625 
Q 13.234375 26.265625 9.515625 29.90625 
Q 5.8125 33.546875 5.8125 39.890625 
Q 5.8125 47.609375 11.28125 51.796875 
Q 16.75 56 26.8125 56 
Q 31.78125 56 36.171875 55.265625 
Q 40.578125 54.546875 44.28125 53.078125 
z
" id="DejaVuSans-73"/>
      <path d="M 10.59375 45.40625 
L 73.1875 45.40625 
L 73.1875 37.203125 
L 10.59375 37.203125 
z
M 10.59375 25.484375 
L 73.1875 25.484375 
L 73.1875 17.1875 
L 10.59375 17.1875 
z
" id="DejaVuSans-3d"/>
      <path d="M 4.890625 31.390625 
L 31.203125 31.390625 
L 31.203125 23.390625 
L 4.890625 23.390625 
z
" id="DejaVuSans-2d"/>
      <path d="M 10.6875 12.40625 
L 21 12.40625 
L 21 0 
L 10.6875 0 
z
" id="DejaVuSans-2e"/>
      <path d="M 31.78125 34.625 
Q 24.75 34.625 20.71875 30.859375 
Q 16.703125 27.09375 16.703125 20.515625 
Q 16.703125 13.921875 20.71875 10.15625 
Q 24.75 6.390625 31.78125 6.390625 
Q 38.8125 6.390625 42.859375 10.171875 
Q 46.921875 13.96875 46.921875 20.515625 
Q 46.921875 27.09375 42.890625 30.859375 
Q 38.875 34.625 31.78125 34.625 
z
M 21.921875 38.8125 
Q 15.578125 40.375 12.03125 44.71875 
Q 8.5 49.078125 8.5 55.328125 
Q 8.5 64.0625 14.71875 69.140625 
Q 20.953125 74.21875 31.78125 74.21875 
Q 42.671875 74.21875 48.875 69.140625 
Q 55.078125 64.0625 55.078125 55.328125 
Q 55.078125 49.078125 51.53125 44.71875 
Q 48 40.375 41.703125 38.8125 
Q 48.828125 37.15625 52.796875 32.3125 
Q 56.78125 27.484375 56.78125 20.515625 
Q 56.78125 9.90625 50.3125 4.234375 
Q 43.84375 -1.421875 31.78125 -1.421875 
Q 19.734375 -1.421875 13.25 4.234375 
Q 6.78125 9.90625 6.78125 20.515625 
Q 6.78125 27.484375 10.78125 32.3125 
Q 14.796875 37.15625 21.921875 38.8125 
z
M 18.3125 54.390625 
Q 18.3125 48.734375 21.84375 45.5625 
Q 25.390625 42.390625 31.78125 42.390625 
Q 38.140625 42.390625 41.71875 45.5625 
Q 45.3125 48.734375 45.3125 54.390625 
Q 45.3125 60.0625 41.71875 63.234375 
Q 38.140625 66.40625 31.78125 66.40625 
Q 25.390625 66.40625 21.84375 63.234375 
Q 18.3125 60.0625 18.3125 54.390625 
z
" id="DejaVuSans-38"/>
      <path d="M 11.71875 51.703125 
L 22.015625 51.703125 
L 22.015625 39.3125 
L 11.71875 39.3125 
z
M 11.71875 12.40625 
L 22.015625 12.40625 
L 22.015625 4 
L 14.015625 -11.625 
L 7.71875 -11.625 
L 11.71875 4 
z
" id="DejaVuSans-3b"/>
      <path d="M 10.984375 1.515625 
L 10.984375 10.5 
Q 14.703125 8.734375 18.5 7.8125 
Q 22.3125 6.890625 25.984375 6.890625 
Q 35.75 6.890625 40.890625 13.453125 
Q 46.046875 20.015625 46.78125 33.40625 
Q 43.953125 29.203125 39.59375 26.953125 
Q 35.25 24.703125 29.984375 24.703125 
Q 19.046875 24.703125 12.671875 31.3125 
Q 6.296875 37.9375 6.296875 49.421875 
Q 6.296875 60.640625 12.9375 67.421875 
Q 19.578125 74.21875 30.609375 74.21875 
Q 43.265625 74.21875 49.921875 64.515625 
Q 56.59375 54.828125 56.59375 36.375 
Q 56.59375 19.140625 48.40625 8.859375 
Q 40.234375 -1.421875 26.421875 -1.421875 
Q 22.703125 -1.421875 18.890625 -0.6875 
Q 15.09375 0.046875 10.984375 1.515625 
z
M 30.609375 32.421875 
Q 37.25 32.421875 41.125 36.953125 
Q 45.015625 41.5 45.015625 49.421875 
Q 45.015625 57.28125 41.125 61.84375 
Q 37.25 66.40625 30.609375 66.40625 
Q 23.96875 66.40625 20.09375 61.84375 
Q 16.21875 57.28125 16.21875 49.421875 
Q 16.21875 41.5 20.09375 36.953125 
Q 23.96875 32.421875 30.609375 32.421875 
z
" id="DejaVuSans-39"/>
     </defs>
     <g style="fill:#262626;" transform="translate(213.456807 92.529139)scale(0.088 -0.088)">
      <use xlink:href="#DejaVuSans-70"/>
      <use x="63.476562" xlink:href="#DejaVuSans-65"/>
      <use x="125" xlink:href="#DejaVuSans-61"/>
      <use x="186.279297" xlink:href="#DejaVuSans-72"/>
      <use x="227.392578" xlink:href="#DejaVuSans-73"/>
      <use x="279.492188" xlink:href="#DejaVuSans-6f"/>
      <use x="340.673828" xlink:href="#DejaVuSans-6e"/>
      <use x="404.052734" xlink:href="#DejaVuSans-72"/>
      <use x="445.166016" xlink:href="#DejaVuSans-20"/>
      <use x="476.953125" xlink:href="#DejaVuSans-3d"/>
      <use x="560.742188" xlink:href="#DejaVuSans-20"/>
      <use x="592.529297" xlink:href="#DejaVuSans-2d"/>
      <use x="628.613281" xlink:href="#DejaVuSans-30"/>
      <use x="692.236328" xlink:href="#DejaVuSans-2e"/>
      <use x="724.023438" xlink:href="#DejaVuSans-33"/>
      <use x="787.646484" xlink:href="#DejaVuSans-38"/>
      <use x="851.269531" xlink:href="#DejaVuSans-3b"/>
      <use x="884.960938" xlink:href="#DejaVuSans-20"/>
      <use x="916.748047" xlink:href="#DejaVuSans-70"/>
      <use x="980.224609" xlink:href="#DejaVuSans-20"/>
      <use x="1012.011719" xlink:href="#DejaVuSans-3d"/>
      <use x="1095.800781" xlink:href="#DejaVuSans-20"/>
      <use x="1127.587891" xlink:href="#DejaVuSans-39"/>
      <use x="1191.210938" xlink:href="#DejaVuSans-2e"/>
      <use x="1222.998047" xlink:href="#DejaVuSans-36"/>
      <use x="1286.621094" xlink:href="#DejaVuSans-65"/>
      <use x="1348.144531" xlink:href="#DejaVuSans-2d"/>
      <use x="1384.228516" xlink:href="#DejaVuSans-31"/>
      <use x="1447.851562" xlink:href="#DejaVuSans-30"/>
     </g>
    </g>
   </g>
  </g>
  <g id="axes_2">
   <g id="patch_6">
    <path d="M 46.068 67.239429 
L 354.386057 67.239429 
L 354.386057 13.824 
L 46.068 13.824 
z
" style="fill:#ffffff;"/>
   </g>
   <g id="matplotlib.axis_3">
    <g id="xtick_5">
     <g id="line2d_15">
      <g>
       <use style="fill:#262626;stroke:#262626;" x="108.226204" xlink:href="#m60c33b58a2" y="67.239429"/>
      </g>
     </g>
    </g>
    <g id="xtick_6">
     <g id="line2d_16">
      <g>
       <use style="fill:#262626;stroke:#262626;" x="174.818226" xlink:href="#m60c33b58a2" y="67.239429"/>
      </g>
     </g>
    </g>
    <g id="xtick_7">
     <g id="line2d_17">
      <g>
       <use style="fill:#262626;stroke:#262626;" x="241.410248" xlink:href="#m60c33b58a2" y="67.239429"/>
      </g>
     </g>
    </g>
    <g id="xtick_8">
     <g id="line2d_18">
      <g>
       <use style="fill:#262626;stroke:#262626;" x="308.002271" xlink:href="#m60c33b58a2" y="67.239429"/>
      </g>
     </g>
    </g>
   </g>
   <g id="matplotlib.axis_4">
    <g id="ytick_8"/>
    <g id="ytick_9"/>
    <g id="ytick_10"/>
   </g>
   <g id="patch_7">
    <path clip-path="url(#p30cfe2614e)" d="M 102.152359 67.239429 
L 114.411692 67.239429 
L 114.411692 63.086626 
L 102.152359 63.086626 
z
" style="fill:#471365;opacity:0.4;stroke:#ffffff;stroke-linejoin:miter;stroke-width:0.8;"/>
   </g>
   <g id="patch_8">
    <path clip-path="url(#p30cfe2614e)" d="M 114.411692 67.239429 
L 126.671026 67.239429 
L 126.671026 23.634997 
L 114.411692 23.634997 
z
" style="fill:#471365;opacity:0.4;stroke:#ffffff;stroke-linejoin:miter;stroke-width:0.8;"/>
   </g>
   <g id="patch_9">
    <path clip-path="url(#p30cfe2614e)" d="M 126.671026 67.239429 
L 138.93036 67.239429 
L 138.93036 16.367592 
L 126.671026 16.367592 
z
" style="fill:#471365;opacity:0.4;stroke:#ffffff;stroke-linejoin:miter;stroke-width:0.8;"/>
   </g>
   <g id="patch_10">
    <path clip-path="url(#p30cfe2614e)" d="M 138.93036 67.239429 
L 151.189694 67.239429 
L 151.189694 27.7878 
L 138.93036 27.7878 
z
" style="fill:#471365;opacity:0.4;stroke:#ffffff;stroke-linejoin:miter;stroke-width:0.8;"/>
   </g>
   <g id="patch_11">
    <path clip-path="url(#p30cfe2614e)" d="M 151.189694 67.239429 
L 163.449027 67.239429 
L 163.449027 36.093406 
L 151.189694 36.093406 
z
" style="fill:#471365;opacity:0.4;stroke:#ffffff;stroke-linejoin:miter;stroke-width:0.8;"/>
   </g>
   <g id="patch_12">
    <path clip-path="url(#p30cfe2614e)" d="M 163.449027 67.239429 
L 175.708361 67.239429 
L 175.708361 39.208008 
L 163.449027 39.208008 
z
" style="fill:#471365;opacity:0.4;stroke:#ffffff;stroke-linejoin:miter;stroke-width:0.8;"/>
   </g>
   <g id="patch_13">
    <path clip-path="url(#p30cfe2614e)" d="M 175.708361 67.239429 
L 187.967695 67.239429 
L 187.967695 44.399012 
L 175.708361 44.399012 
z
" style="fill:#471365;opacity:0.4;stroke:#ffffff;stroke-linejoin:miter;stroke-width:0.8;"/>
   </g>
   <g id="patch_14">
    <path clip-path="url(#p30cfe2614e)" d="M 187.967695 67.239429 
L 200.227029 67.239429 
L 200.227029 58.933823 
L 187.967695 58.933823 
z
" style="fill:#471365;opacity:0.4;stroke:#ffffff;stroke-linejoin:miter;stroke-width:0.8;"/>
   </g>
   <g id="patch_15">
    <path clip-path="url(#p30cfe2614e)" d="M 200.227029 67.239429 
L 212.486362 67.239429 
L 212.486362 55.81922 
L 200.227029 55.81922 
z
" style="fill:#471365;opacity:0.4;stroke:#ffffff;stroke-linejoin:miter;stroke-width:0.8;"/>
   </g>
   <g id="patch_16">
    <path clip-path="url(#p30cfe2614e)" d="M 212.486362 67.239429 
L 224.745696 67.239429 
L 224.745696 65.163027 
L 212.486362 65.163027 
z
" style="fill:#471365;opacity:0.4;stroke:#ffffff;stroke-linejoin:miter;stroke-width:0.8;"/>
   </g>
   <g id="patch_17">
    <path clip-path="url(#p30cfe2614e)" d="M 224.745696 67.239429 
L 237.00503 67.239429 
L 237.00503 65.163027 
L 224.745696 65.163027 
z
" style="fill:#471365;opacity:0.4;stroke:#ffffff;stroke-linejoin:miter;stroke-width:0.8;"/>
   </g>
   <g id="patch_18">
    <path clip-path="url(#p30cfe2614e)" d="M 237.00503 67.239429 
L 249.264364 67.239429 
L 249.264364 65.163027 
L 237.00503 65.163027 
z
" style="fill:#471365;opacity:0.4;stroke:#ffffff;stroke-linejoin:miter;stroke-width:0.8;"/>
   </g>
   <g id="patch_19">
    <path clip-path="url(#p30cfe2614e)" d="M 249.264364 67.239429 
L 261.523697 67.239429 
L 261.523697 67.239429 
L 249.264364 67.239429 
z
" style="fill:#471365;opacity:0.4;stroke:#ffffff;stroke-linejoin:miter;stroke-width:0.8;"/>
   </g>
   <g id="patch_20">
    <path clip-path="url(#p30cfe2614e)" d="M 261.523697 67.239429 
L 273.783031 67.239429 
L 273.783031 67.239429 
L 261.523697 67.239429 
z
" style="fill:#471365;opacity:0.4;stroke:#ffffff;stroke-linejoin:miter;stroke-width:0.8;"/>
   </g>
   <g id="patch_21">
    <path clip-path="url(#p30cfe2614e)" d="M 273.783031 67.239429 
L 286.042365 67.239429 
L 286.042365 67.239429 
L 273.783031 67.239429 
z
" style="fill:#471365;opacity:0.4;stroke:#ffffff;stroke-linejoin:miter;stroke-width:0.8;"/>
   </g>
   <g id="patch_22">
    <path clip-path="url(#p30cfe2614e)" d="M 286.042365 67.239429 
L 298.301699 67.239429 
L 298.301699 66.201228 
L 286.042365 66.201228 
z
" style="fill:#471365;opacity:0.4;stroke:#ffffff;stroke-linejoin:miter;stroke-width:0.8;"/>
   </g>
   <g id="line2d_19">
    <path clip-path="url(#p30cfe2614e)" d="M 72.822873 67.232861 
L 75.396694 67.22492 
L 77.970515 67.209075 
L 80.544337 67.179024 
L 83.118158 67.124468 
L 85.691979 67.028963 
L 88.265801 66.866651 
L 90.839622 66.597622 
L 93.413443 66.162198 
L 95.987265 65.475606 
L 98.561086 64.426077 
L 101.134907 62.880533 
L 103.708729 60.701712 
L 106.28255 57.777782 
L 108.856371 54.060485 
L 111.430193 49.602093 
L 114.004014 44.577825 
L 116.577835 39.281518 
L 119.151657 34.089261 
L 121.725478 29.396685 
L 124.299299 25.546032 
L 126.873121 22.764168 
L 129.446942 21.129361 
L 132.020763 20.574318 
L 134.594585 20.92065 
L 137.168406 21.931043 
L 139.742227 23.36311 
L 142.316049 25.012123 
L 144.88987 26.73552 
L 147.463691 28.457584 
L 150.037513 30.157096 
L 152.611334 31.844282 
L 155.185155 33.53549 
L 157.758977 35.233647 
L 160.332798 36.919417 
L 162.906619 38.55346 
L 165.480441 40.086811 
L 168.054262 41.475299 
L 170.628083 42.694359 
L 173.201905 43.750667 
L 175.775726 44.686501 
L 178.349547 45.573042 
L 180.923369 46.491962 
L 183.49719 47.510271 
L 186.071011 48.658436 
L 188.644833 49.922123 
L 191.218654 51.252199 
L 193.792475 52.588296 
L 196.366297 53.884069 
L 198.940118 55.121714 
L 201.513939 56.309845 
L 204.087761 57.468235 
L 206.661582 58.609383 
L 209.235403 59.727022 
L 211.809225 60.79633 
L 214.383046 61.783712 
L 216.956867 62.659694 
L 219.530689 63.408298 
L 222.10451 64.029398 
L 224.678331 64.534552 
L 227.252153 64.939697 
L 229.825974 65.258859 
L 232.399795 65.50186 
L 234.973617 65.676482 
L 237.547438 65.793106 
L 240.121259 65.868445 
L 242.695081 65.925534 
L 245.268902 65.989321 
L 247.842723 66.079776 
L 250.416545 66.205937 
L 252.990366 66.363832 
L 255.564187 66.539115 
L 258.138009 66.712939 
L 260.71183 66.86826 
L 263.285651 66.994088 
L 265.859472 67.086625 
L 268.433294 67.147733 
L 271.007115 67.182109 
L 273.580936 67.194546 
L 276.154758 67.188199 
L 278.728579 67.164188 
L 281.3024 67.122444 
L 283.876222 67.063383 
L 286.450043 66.989826 
L 289.023864 66.908345 
L 291.597686 66.829308 
L 294.171507 66.765213 
L 296.745328 66.727649 
L 299.31915 66.72394 
L 301.892971 66.754829 
L 304.466792 66.814249 
L 307.040614 66.891261 
L 309.614435 66.973338 
L 312.188256 67.049628 
L 314.762078 67.113074 
L 317.335899 67.160921 
L 319.90972 67.193903 
L 322.483542 67.214789 
L 325.057363 67.226983 
L 327.631184 67.233561 
" style="fill:none;stroke:#471365;stroke-linecap:round;stroke-width:1.2;"/>
   </g>
   <g id="patch_23">
    <path d="M 46.068 67.239429 
L 354.386057 67.239429 
" style="fill:none;stroke:#262626;stroke-linecap:square;stroke-linejoin:miter;"/>
   </g>
  </g>
  <g id="axes_3">
   <g id="patch_24">
    <path d="M 365.017714 387.732 
L 418.176 387.732 
L 418.176 77.922514 
L 365.017714 77.922514 
z
" style="fill:#ffffff;"/>
   </g>
   <g id="matplotlib.axis_5">
    <g id="xtick_9"/>
    <g id="xtick_10"/>
   </g>
   <g id="matplotlib.axis_6">
    <g id="ytick_11">
     <g id="line2d_20">
      <g>
       <use style="fill:#262626;stroke:#262626;" x="365.017714" xlink:href="#m1370b372dc" y="385.211867"/>
      </g>
     </g>
    </g>
    <g id="ytick_12">
     <g id="line2d_21">
      <g>
       <use style="fill:#262626;stroke:#262626;" x="365.017714" xlink:href="#m1370b372dc" y="334.579888"/>
      </g>
     </g>
    </g>
    <g id="ytick_13">
     <g id="line2d_22">
      <g>
       <use style="fill:#262626;stroke:#262626;" x="365.017714" xlink:href="#m1370b372dc" y="283.947908"/>
      </g>
     </g>
    </g>
    <g id="ytick_14">
     <g id="line2d_23">
      <g>
       <use style="fill:#262626;stroke:#262626;" x="365.017714" xlink:href="#m1370b372dc" y="233.315929"/>
      </g>
     </g>
    </g>
    <g id="ytick_15">
     <g id="line2d_24">
      <g>
       <use style="fill:#262626;stroke:#262626;" x="365.017714" xlink:href="#m1370b372dc" y="182.68395"/>
      </g>
     </g>
    </g>
    <g id="ytick_16">
     <g id="line2d_25">
      <g>
       <use style="fill:#262626;stroke:#262626;" x="365.017714" xlink:href="#m1370b372dc" y="132.051971"/>
      </g>
     </g>
    </g>
    <g id="ytick_17">
     <g id="line2d_26">
      <g>
       <use style="fill:#262626;stroke:#262626;" x="365.017714" xlink:href="#m1370b372dc" y="81.419991"/>
      </g>
     </g>
    </g>
   </g>
   <g id="patch_25">
    <path clip-path="url(#p72e1c5cfcb)" d="M 365.017714 316.629811 
L 367.003084 316.629811 
L 367.003084 312.64223 
L 365.017714 312.64223 
z
" style="fill:#471365;opacity:0.4;stroke:#ffffff;stroke-linejoin:miter;stroke-width:0.8;"/>
   </g>
   <g id="patch_26">
    <path clip-path="url(#p72e1c5cfcb)" d="M 365.017714 312.64223 
L 369.98114 312.64223 
L 369.98114 308.65465 
L 365.017714 308.65465 
z
" style="fill:#471365;opacity:0.4;stroke:#ffffff;stroke-linejoin:miter;stroke-width:0.8;"/>
   </g>
   <g id="patch_27">
    <path clip-path="url(#p72e1c5cfcb)" d="M 365.017714 308.65465 
L 394.798267 308.65465 
L 394.798267 304.667069 
L 365.017714 304.667069 
z
" style="fill:#471365;opacity:0.4;stroke:#ffffff;stroke-linejoin:miter;stroke-width:0.8;"/>
   </g>
   <g id="patch_28">
    <path clip-path="url(#p72e1c5cfcb)" d="M 365.017714 304.667069 
L 408.695858 304.667069 
L 408.695858 300.679489 
L 365.017714 300.679489 
z
" style="fill:#471365;opacity:0.4;stroke:#ffffff;stroke-linejoin:miter;stroke-width:0.8;"/>
   </g>
   <g id="patch_29">
    <path clip-path="url(#p72e1c5cfcb)" d="M 365.017714 300.679489 
L 415.644653 300.679489 
L 415.644653 296.691908 
L 365.017714 296.691908 
z
" style="fill:#471365;opacity:0.4;stroke:#ffffff;stroke-linejoin:miter;stroke-width:0.8;"/>
   </g>
   <g id="patch_30">
    <path clip-path="url(#p72e1c5cfcb)" d="M 365.017714 296.691908 
L 403.732432 296.691908 
L 403.732432 292.704328 
L 365.017714 292.704328 
z
" style="fill:#471365;opacity:0.4;stroke:#ffffff;stroke-linejoin:miter;stroke-width:0.8;"/>
   </g>
   <g id="patch_31">
    <path clip-path="url(#p72e1c5cfcb)" d="M 365.017714 292.704328 
L 385.864101 292.704328 
L 385.864101 288.716747 
L 365.017714 288.716747 
z
" style="fill:#471365;opacity:0.4;stroke:#ffffff;stroke-linejoin:miter;stroke-width:0.8;"/>
   </g>
   <g id="patch_32">
    <path clip-path="url(#p72e1c5cfcb)" d="M 365.017714 288.716747 
L 379.90799 288.716747 
L 379.90799 284.729167 
L 365.017714 284.729167 
z
" style="fill:#471365;opacity:0.4;stroke:#ffffff;stroke-linejoin:miter;stroke-width:0.8;"/>
   </g>
   <g id="patch_33">
    <path clip-path="url(#p72e1c5cfcb)" d="M 365.017714 284.729167 
L 372.959195 284.729167 
L 372.959195 280.741586 
L 365.017714 280.741586 
z
" style="fill:#471365;opacity:0.4;stroke:#ffffff;stroke-linejoin:miter;stroke-width:0.8;"/>
   </g>
   <g id="patch_34">
    <path clip-path="url(#p72e1c5cfcb)" d="M 365.017714 280.741586 
L 366.010399 280.741586 
L 366.010399 276.754006 
L 365.017714 276.754006 
z
" style="fill:#471365;opacity:0.4;stroke:#ffffff;stroke-linejoin:miter;stroke-width:0.8;"/>
   </g>
   <g id="patch_35">
    <path clip-path="url(#p72e1c5cfcb)" d="M 365.017714 276.754006 
L 369.98114 276.754006 
L 369.98114 272.766425 
L 365.017714 272.766425 
z
" style="fill:#471365;opacity:0.4;stroke:#ffffff;stroke-linejoin:miter;stroke-width:0.8;"/>
   </g>
   <g id="patch_36">
    <path clip-path="url(#p72e1c5cfcb)" d="M 365.017714 272.766425 
L 367.003084 272.766425 
L 367.003084 268.778845 
L 365.017714 268.778845 
z
" style="fill:#471365;opacity:0.4;stroke:#ffffff;stroke-linejoin:miter;stroke-width:0.8;"/>
   </g>
   <g id="patch_37">
    <path clip-path="url(#p72e1c5cfcb)" d="M 365.017714 268.778845 
L 365.017714 268.778845 
L 365.017714 264.791264 
L 365.017714 264.791264 
z
" style="fill:#471365;opacity:0.4;stroke:#ffffff;stroke-linejoin:miter;stroke-width:0.8;"/>
   </g>
   <g id="patch_38">
    <path clip-path="url(#p72e1c5cfcb)" d="M 365.017714 264.791264 
L 366.010399 264.791264 
L 366.010399 260.803684 
L 365.017714 260.803684 
z
" style="fill:#471365;opacity:0.4;stroke:#ffffff;stroke-linejoin:miter;stroke-width:0.8;"/>
   </g>
   <g id="patch_39">
    <path clip-path="url(#p72e1c5cfcb)" d="M 365.017714 260.803684 
L 366.010399 260.803684 
L 366.010399 256.816103 
L 365.017714 256.816103 
z
" style="fill:#471365;opacity:0.4;stroke:#ffffff;stroke-linejoin:miter;stroke-width:0.8;"/>
   </g>
   <g id="patch_40">
    <path clip-path="url(#p72e1c5cfcb)" d="M 365.017714 256.816103 
L 366.010399 256.816103 
L 366.010399 252.828523 
L 365.017714 252.828523 
z
" style="fill:#471365;opacity:0.4;stroke:#ffffff;stroke-linejoin:miter;stroke-width:0.8;"/>
   </g>
   <g id="patch_41">
    <path clip-path="url(#p72e1c5cfcb)" d="M 365.017714 252.828523 
L 367.99577 252.828523 
L 367.99577 248.840942 
L 365.017714 248.840942 
z
" style="fill:#471365;opacity:0.4;stroke:#ffffff;stroke-linejoin:miter;stroke-width:0.8;"/>
   </g>
   <g id="patch_42">
    <path clip-path="url(#p72e1c5cfcb)" d="M 365.017714 248.840942 
L 366.010399 248.840942 
L 366.010399 244.853362 
L 365.017714 244.853362 
z
" style="fill:#471365;opacity:0.4;stroke:#ffffff;stroke-linejoin:miter;stroke-width:0.8;"/>
   </g>
   <g id="patch_43">
    <path clip-path="url(#p72e1c5cfcb)" d="M 365.017714 244.853362 
L 365.017714 244.853362 
L 365.017714 240.865781 
L 365.017714 240.865781 
z
" style="fill:#471365;opacity:0.4;stroke:#ffffff;stroke-linejoin:miter;stroke-width:0.8;"/>
   </g>
   <g id="patch_44">
    <path clip-path="url(#p72e1c5cfcb)" d="M 365.017714 240.865781 
L 366.010399 240.865781 
L 366.010399 236.878201 
L 365.017714 236.878201 
z
" style="fill:#471365;opacity:0.4;stroke:#ffffff;stroke-linejoin:miter;stroke-width:0.8;"/>
   </g>
   <g id="patch_45">
    <path clip-path="url(#p72e1c5cfcb)" d="M 365.017714 236.878201 
L 365.017714 236.878201 
L 365.017714 232.89062 
L 365.017714 232.89062 
z
" style="fill:#471365;opacity:0.4;stroke:#ffffff;stroke-linejoin:miter;stroke-width:0.8;"/>
   </g>
   <g id="patch_46">
    <path clip-path="url(#p72e1c5cfcb)" d="M 365.017714 232.89062 
L 365.017714 232.89062 
L 365.017714 228.90304 
L 365.017714 228.90304 
z
" style="fill:#471365;opacity:0.4;stroke:#ffffff;stroke-linejoin:miter;stroke-width:0.8;"/>
   </g>
   <g id="patch_47">
    <path clip-path="url(#p72e1c5cfcb)" d="M 365.017714 228.90304 
L 365.017714 228.90304 
L 365.017714 224.91546 
L 365.017714 224.91546 
z
" style="fill:#471365;opacity:0.4;stroke:#ffffff;stroke-linejoin:miter;stroke-width:0.8;"/>
   </g>
   <g id="patch_48">
    <path clip-path="url(#p72e1c5cfcb)" d="M 365.017714 224.91546 
L 365.017714 224.91546 
L 365.017714 220.927879 
L 365.017714 220.927879 
z
" style="fill:#471365;opacity:0.4;stroke:#ffffff;stroke-linejoin:miter;stroke-width:0.8;"/>
   </g>
   <g id="patch_49">
    <path clip-path="url(#p72e1c5cfcb)" d="M 365.017714 220.927879 
L 365.017714 220.927879 
L 365.017714 216.940299 
L 365.017714 216.940299 
z
" style="fill:#471365;opacity:0.4;stroke:#ffffff;stroke-linejoin:miter;stroke-width:0.8;"/>
   </g>
   <g id="patch_50">
    <path clip-path="url(#p72e1c5cfcb)" d="M 365.017714 216.940299 
L 366.010399 216.940299 
L 366.010399 212.952718 
L 365.017714 212.952718 
z
" style="fill:#471365;opacity:0.4;stroke:#ffffff;stroke-linejoin:miter;stroke-width:0.8;"/>
   </g>
   <g id="patch_51">
    <path clip-path="url(#p72e1c5cfcb)" d="M 365.017714 212.952718 
L 365.017714 212.952718 
L 365.017714 208.965138 
L 365.017714 208.965138 
z
" style="fill:#471365;opacity:0.4;stroke:#ffffff;stroke-linejoin:miter;stroke-width:0.8;"/>
   </g>
   <g id="patch_52">
    <path clip-path="url(#p72e1c5cfcb)" d="M 365.017714 208.965138 
L 365.017714 208.965138 
L 365.017714 204.977557 
L 365.017714 204.977557 
z
" style="fill:#471365;opacity:0.4;stroke:#ffffff;stroke-linejoin:miter;stroke-width:0.8;"/>
   </g>
   <g id="patch_53">
    <path clip-path="url(#p72e1c5cfcb)" d="M 365.017714 204.977557 
L 366.010399 204.977557 
L 366.010399 200.989977 
L 365.017714 200.989977 
z
" style="fill:#471365;opacity:0.4;stroke:#ffffff;stroke-linejoin:miter;stroke-width:0.8;"/>
   </g>
   <g id="patch_54">
    <path clip-path="url(#p72e1c5cfcb)" d="M 365.017714 200.989977 
L 365.017714 200.989977 
L 365.017714 197.002396 
L 365.017714 197.002396 
z
" style="fill:#471365;opacity:0.4;stroke:#ffffff;stroke-linejoin:miter;stroke-width:0.8;"/>
   </g>
   <g id="patch_55">
    <path clip-path="url(#p72e1c5cfcb)" d="M 365.017714 197.002396 
L 365.017714 197.002396 
L 365.017714 193.014816 
L 365.017714 193.014816 
z
" style="fill:#471365;opacity:0.4;stroke:#ffffff;stroke-linejoin:miter;stroke-width:0.8;"/>
   </g>
   <g id="patch_56">
    <path clip-path="url(#p72e1c5cfcb)" d="M 365.017714 193.014816 
L 365.017714 193.014816 
L 365.017714 189.027235 
L 365.017714 189.027235 
z
" style="fill:#471365;opacity:0.4;stroke:#ffffff;stroke-linejoin:miter;stroke-width:0.8;"/>
   </g>
   <g id="patch_57">
    <path clip-path="url(#p72e1c5cfcb)" d="M 365.017714 189.027235 
L 366.010399 189.027235 
L 366.010399 185.039655 
L 365.017714 185.039655 
z
" style="fill:#471365;opacity:0.4;stroke:#ffffff;stroke-linejoin:miter;stroke-width:0.8;"/>
   </g>
   <g id="patch_58">
    <path clip-path="url(#p72e1c5cfcb)" d="M 365.017714 185.039655 
L 365.017714 185.039655 
L 365.017714 181.052074 
L 365.017714 181.052074 
z
" style="fill:#471365;opacity:0.4;stroke:#ffffff;stroke-linejoin:miter;stroke-width:0.8;"/>
   </g>
   <g id="patch_59">
    <path clip-path="url(#p72e1c5cfcb)" d="M 365.017714 181.052074 
L 365.017714 181.052074 
L 365.017714 177.064494 
L 365.017714 177.064494 
z
" style="fill:#471365;opacity:0.4;stroke:#ffffff;stroke-linejoin:miter;stroke-width:0.8;"/>
   </g>
   <g id="patch_60">
    <path clip-path="url(#p72e1c5cfcb)" d="M 365.017714 177.064494 
L 366.010399 177.064494 
L 366.010399 173.076913 
L 365.017714 173.076913 
z
" style="fill:#471365;opacity:0.4;stroke:#ffffff;stroke-linejoin:miter;stroke-width:0.8;"/>
   </g>
   <g id="patch_61">
    <path clip-path="url(#p72e1c5cfcb)" d="M 365.017714 173.076913 
L 365.017714 173.076913 
L 365.017714 169.089333 
L 365.017714 169.089333 
z
" style="fill:#471365;opacity:0.4;stroke:#ffffff;stroke-linejoin:miter;stroke-width:0.8;"/>
   </g>
   <g id="patch_62">
    <path clip-path="url(#p72e1c5cfcb)" d="M 365.017714 169.089333 
L 365.017714 169.089333 
L 365.017714 165.101752 
L 365.017714 165.101752 
z
" style="fill:#471365;opacity:0.4;stroke:#ffffff;stroke-linejoin:miter;stroke-width:0.8;"/>
   </g>
   <g id="patch_63">
    <path clip-path="url(#p72e1c5cfcb)" d="M 365.017714 165.101752 
L 365.017714 165.101752 
L 365.017714 161.114172 
L 365.017714 161.114172 
z
" style="fill:#471365;opacity:0.4;stroke:#ffffff;stroke-linejoin:miter;stroke-width:0.8;"/>
   </g>
   <g id="patch_64">
    <path clip-path="url(#p72e1c5cfcb)" d="M 365.017714 161.114172 
L 365.017714 161.114172 
L 365.017714 157.126591 
L 365.017714 157.126591 
z
" style="fill:#471365;opacity:0.4;stroke:#ffffff;stroke-linejoin:miter;stroke-width:0.8;"/>
   </g>
   <g id="patch_65">
    <path clip-path="url(#p72e1c5cfcb)" d="M 365.017714 157.126591 
L 365.017714 157.126591 
L 365.017714 153.139011 
L 365.017714 153.139011 
z
" style="fill:#471365;opacity:0.4;stroke:#ffffff;stroke-linejoin:miter;stroke-width:0.8;"/>
   </g>
   <g id="patch_66">
    <path clip-path="url(#p72e1c5cfcb)" d="M 365.017714 153.139011 
L 366.010399 153.139011 
L 366.010399 149.15143 
L 365.017714 149.15143 
z
" style="fill:#471365;opacity:0.4;stroke:#ffffff;stroke-linejoin:miter;stroke-width:0.8;"/>
   </g>
   <g id="patch_67">
    <path clip-path="url(#p72e1c5cfcb)" d="M 365.017714 149.15143 
L 365.017714 149.15143 
L 365.017714 145.16385 
L 365.017714 145.16385 
z
" style="fill:#471365;opacity:0.4;stroke:#ffffff;stroke-linejoin:miter;stroke-width:0.8;"/>
   </g>
   <g id="patch_68">
    <path clip-path="url(#p72e1c5cfcb)" d="M 365.017714 145.16385 
L 365.017714 145.16385 
L 365.017714 141.176269 
L 365.017714 141.176269 
z
" style="fill:#471365;opacity:0.4;stroke:#ffffff;stroke-linejoin:miter;stroke-width:0.8;"/>
   </g>
   <g id="patch_69">
    <path clip-path="url(#p72e1c5cfcb)" d="M 365.017714 141.176269 
L 365.017714 141.176269 
L 365.017714 137.188689 
L 365.017714 137.188689 
z
" style="fill:#471365;opacity:0.4;stroke:#ffffff;stroke-linejoin:miter;stroke-width:0.8;"/>
   </g>
   <g id="patch_70">
    <path clip-path="url(#p72e1c5cfcb)" d="M 365.017714 137.188689 
L 365.017714 137.188689 
L 365.017714 133.201108 
L 365.017714 133.201108 
z
" style="fill:#471365;opacity:0.4;stroke:#ffffff;stroke-linejoin:miter;stroke-width:0.8;"/>
   </g>
   <g id="patch_71">
    <path clip-path="url(#p72e1c5cfcb)" d="M 365.017714 133.201108 
L 365.017714 133.201108 
L 365.017714 129.213528 
L 365.017714 129.213528 
z
" style="fill:#471365;opacity:0.4;stroke:#ffffff;stroke-linejoin:miter;stroke-width:0.8;"/>
   </g>
   <g id="patch_72">
    <path clip-path="url(#p72e1c5cfcb)" d="M 365.017714 129.213528 
L 365.017714 129.213528 
L 365.017714 125.225947 
L 365.017714 125.225947 
z
" style="fill:#471365;opacity:0.4;stroke:#ffffff;stroke-linejoin:miter;stroke-width:0.8;"/>
   </g>
   <g id="patch_73">
    <path clip-path="url(#p72e1c5cfcb)" d="M 365.017714 125.225947 
L 366.010399 125.225947 
L 366.010399 121.238367 
L 365.017714 121.238367 
z
" style="fill:#471365;opacity:0.4;stroke:#ffffff;stroke-linejoin:miter;stroke-width:0.8;"/>
   </g>
   <g id="patch_74">
    <path clip-path="url(#p72e1c5cfcb)" d="M 365.017714 121.238367 
L 366.010399 121.238367 
L 366.010399 117.250786 
L 365.017714 117.250786 
z
" style="fill:#471365;opacity:0.4;stroke:#ffffff;stroke-linejoin:miter;stroke-width:0.8;"/>
   </g>
   <g id="line2d_27">
    <path clip-path="url(#p72e1c5cfcb)" d="M 365.022882 341.875833 
L 365.031801 339.351883 
L 365.053746 336.827933 
L 365.104366 334.303983 
L 365.213841 331.780033 
L 365.43568 329.256082 
L 365.856205 326.732132 
L 366.600289 324.208182 
L 367.826074 321.684232 
L 369.700859 319.160282 
L 372.354782 316.636331 
L 375.81902 314.112381 
L 379.96753 311.588431 
L 384.488667 309.064481 
L 388.908657 306.540531 
L 392.671909 304.01658 
L 395.260101 301.49263 
L 396.31405 298.96868 
L 395.718475 296.44473 
L 393.622328 293.92078 
L 390.39067 291.396829 
L 386.507827 288.872879 
L 382.465618 286.348929 
L 378.670031 283.824979 
L 375.387545 281.301029 
L 372.735747 278.777078 
L 370.70931 276.253128 
L 369.225124 273.729178 
L 368.169435 271.205228 
L 367.433651 268.681278 
L 366.932353 266.157327 
L 366.604704 263.633377 
L 366.406108 261.109427 
L 366.298477 258.585477 
L 366.244981 256.061527 
L 366.210751 253.537576 
L 366.167298 251.013626 
L 366.097018 248.489676 
L 365.994893 245.965726 
L 365.866633 243.441776 
L 365.724428 240.917825 
L 365.582378 238.393875 
L 365.453208 235.869925 
L 365.346617 233.345975 
L 365.268694 230.822025 
L 365.221632 228.298074 
L 365.203542 225.774124 
L 365.208732 223.250174 
L 365.228872 220.726224 
L 365.255003 218.202274 
L 365.279673 215.678323 
L 365.29826 213.154373 
L 365.309025 210.630423 
L 365.312263 208.106473 
L 365.309417 205.582523 
L 365.302694 203.058572 
L 365.294974 200.534622 
L 365.289383 198.010672 
L 365.288284 195.486722 
L 365.292241 192.962772 
L 365.299716 190.438821 
L 365.307758 187.914871 
L 365.313117 185.390921 
L 365.312987 182.866971 
L 365.305218 180.343021 
L 365.288432 177.81907 
L 365.262559 175.29512 
L 365.229661 172.77117 
L 365.194306 170.24722 
L 365.162863 167.72327 
L 365.141723 165.199319 
L 365.135097 162.675369 
L 365.143326 160.151419 
L 365.162384 157.627469 
L 365.184894 155.103519 
L 365.202473 152.579568 
L 365.208663 150.055618 
L 365.201364 147.531668 
L 365.183718 145.007718 
L 365.163065 142.483768 
L 365.148428 139.959817 
L 365.147566 137.435867 
L 365.164586 134.911917 
L 365.198699 132.387967 
L 365.244304 129.864017 
L 365.292277 127.340066 
L 365.332181 124.816116 
L 365.35489 122.292166 
L 365.354916 119.768216 
L 365.331746 117.244266 
L 365.289729 114.720315 
L 365.23658 112.196365 
L 365.181041 109.672415 
L 365.130559 107.148465 
L 365.089773 104.624515 
L 365.060169 102.100564 
L 365.040756 99.576614 
L 365.029218 97.052664 
L 365.022991 94.528714 
L 365.019936 92.004764 
" style="fill:none;stroke:#471365;stroke-linecap:round;stroke-width:1.2;"/>
   </g>
   <g id="patch_75">
    <path d="M 365.017714 387.732 
L 365.017714 77.922514 
" style="fill:none;stroke:#262626;stroke-linecap:square;stroke-linejoin:miter;"/>
   </g>
  </g>
 </g>
 <defs>
  <clipPath id="pa72b70de83">
   <rect height="309.809486" width="308.318057" x="46.068" y="77.922514"/>
  </clipPath>
  <clipPath id="p30cfe2614e">
   <rect height="53.415429" width="308.318057" x="46.068" y="13.824"/>
  </clipPath>
  <clipPath id="p72e1c5cfcb">
   <rect height="309.809486" width="53.158286" x="365.017714" y="77.922514"/>
  </clipPath>
 </defs>
</svg>
