<?xml version="1.0" encoding="utf-8" standalone="no"?>
<!DOCTYPE svg PUBLIC "-//W3C//DTD SVG 1.1//EN"
  "http://www.w3.org/Graphics/SVG/1.1/DTD/svg11.dtd">
<!-- Created with matplotlib (http://matplotlib.org/) -->
<svg height="432pt" version="1.1" viewBox="0 0 432 432" width="432pt" xmlns="http://www.w3.org/2000/svg" xmlns:xlink="http://www.w3.org/1999/xlink">
 <defs>
  <style type="text/css">
*{stroke-linecap:butt;stroke-linejoin:round;}
  </style>
 </defs>
 <g id="figure_1">
  <g id="patch_1">
   <path d="M 0 432 
L 432 432 
L 432 0 
L 0 0 
z
" style="fill:#ffffff;"/>
  </g>
  <g id="axes_1">
   <g id="patch_2">
    <path d="M 49.85 389.9 
L 351.908333 389.9 
L 351.908333 81.383333 
L 49.85 81.383333 
z
" style="fill:#ffffff;"/>
   </g>
   <g id="matplotlib.axis_1">
    <g id="xtick_1">
     <g id="line2d_1">
      <defs>
       <path d="M 0 0 
L 0 4.8 
" id="m032e121e28" style="stroke:#262626;"/>
      </defs>
      <g>
       <use style="fill:#262626;stroke:#262626;" x="95.648445" xlink:href="#m032e121e28" y="389.9"/>
      </g>
     </g>
     <g id="text_1">
      <!-- 9.0 -->
      <defs>
       <path d="M 10.984375 1.515625 
L 10.984375 10.5 
Q 14.703125 8.734375 18.5 7.8125 
Q 22.3125 6.890625 25.984375 6.890625 
Q 35.75 6.890625 40.890625 13.453125 
Q 46.046875 20.015625 46.78125 33.40625 
Q 43.953125 29.203125 39.59375 26.953125 
Q 35.25 24.703125 29.984375 24.703125 
Q 19.046875 24.703125 12.671875 31.3125 
Q 6.296875 37.9375 6.296875 49.421875 
Q 6.296875 60.640625 12.9375 67.421875 
Q 19.578125 74.21875 30.609375 74.21875 
Q 43.265625 74.21875 49.921875 64.515625 
Q 56.59375 54.828125 56.59375 36.375 
Q 56.59375 19.140625 48.40625 8.859375 
Q 40.234375 -1.421875 26.421875 -1.421875 
Q 22.703125 -1.421875 18.890625 -0.6875 
Q 15.09375 0.046875 10.984375 1.515625 
z
M 30.609375 32.421875 
Q 37.25 32.421875 41.125 36.953125 
Q 45.015625 41.5 45.015625 49.421875 
Q 45.015625 57.28125 41.125 61.84375 
Q 37.25 66.40625 30.609375 66.40625 
Q 23.96875 66.40625 20.09375 61.84375 
Q 16.21875 57.28125 16.21875 49.421875 
Q 16.21875 41.5 20.09375 36.953125 
Q 23.96875 32.421875 30.609375 32.421875 
z
" id="DejaVuSans-39"/>
       <path d="M 10.6875 12.40625 
L 21 12.40625 
L 21 0 
L 10.6875 0 
z
" id="DejaVuSans-2e"/>
       <path d="M 31.78125 66.40625 
Q 24.171875 66.40625 20.328125 58.90625 
Q 16.5 51.421875 16.5 36.375 
Q 16.5 21.390625 20.328125 13.890625 
Q 24.171875 6.390625 31.78125 6.390625 
Q 39.453125 6.390625 43.28125 13.890625 
Q 47.125 21.390625 47.125 36.375 
Q 47.125 51.421875 43.28125 58.90625 
Q 39.453125 66.40625 31.78125 66.40625 
z
M 31.78125 74.21875 
Q 44.046875 74.21875 50.515625 64.515625 
Q 56.984375 54.828125 56.984375 36.375 
Q 56.984375 17.96875 50.515625 8.265625 
Q 44.046875 -1.421875 31.78125 -1.421875 
Q 19.53125 -1.421875 13.0625 8.265625 
Q 6.59375 17.96875 6.59375 36.375 
Q 6.59375 54.828125 13.0625 64.515625 
Q 19.53125 74.21875 31.78125 74.21875 
z
" id="DejaVuSans-30"/>
      </defs>
      <g style="fill:#262626;" transform="translate(88.65107 404.886625)scale(0.088 -0.088)">
       <use xlink:href="#DejaVuSans-39"/>
       <use x="63.623047" xlink:href="#DejaVuSans-2e"/>
       <use x="95.410156" xlink:href="#DejaVuSans-30"/>
      </g>
     </g>
    </g>
    <g id="xtick_2">
     <g id="line2d_2">
      <g>
       <use style="fill:#262626;stroke:#262626;" x="147.059982" xlink:href="#m032e121e28" y="389.9"/>
      </g>
     </g>
     <g id="text_2">
      <!-- 9.5 -->
      <defs>
       <path d="M 10.796875 72.90625 
L 49.515625 72.90625 
L 49.515625 64.59375 
L 19.828125 64.59375 
L 19.828125 46.734375 
Q 21.96875 47.46875 24.109375 47.828125 
Q 26.265625 48.1875 28.421875 48.1875 
Q 40.625 48.1875 47.75 41.5 
Q 54.890625 34.8125 54.890625 23.390625 
Q 54.890625 11.625 47.5625 5.09375 
Q 40.234375 -1.421875 26.90625 -1.421875 
Q 22.3125 -1.421875 17.546875 -0.640625 
Q 12.796875 0.140625 7.71875 1.703125 
L 7.71875 11.625 
Q 12.109375 9.234375 16.796875 8.0625 
Q 21.484375 6.890625 26.703125 6.890625 
Q 35.15625 6.890625 40.078125 11.328125 
Q 45.015625 15.765625 45.015625 23.390625 
Q 45.015625 31 40.078125 35.4375 
Q 35.15625 39.890625 26.703125 39.890625 
Q 22.75 39.890625 18.8125 39.015625 
Q 14.890625 38.140625 10.796875 36.28125 
z
" id="DejaVuSans-35"/>
      </defs>
      <g style="fill:#262626;" transform="translate(140.062607 404.886625)scale(0.088 -0.088)">
       <use xlink:href="#DejaVuSans-39"/>
       <use x="63.623047" xlink:href="#DejaVuSans-2e"/>
       <use x="95.410156" xlink:href="#DejaVuSans-35"/>
      </g>
     </g>
    </g>
    <g id="xtick_3">
     <g id="line2d_3">
      <g>
       <use style="fill:#262626;stroke:#262626;" x="198.47152" xlink:href="#m032e121e28" y="389.9"/>
      </g>
     </g>
     <g id="text_3">
      <!-- 10.0 -->
      <defs>
       <path d="M 12.40625 8.296875 
L 28.515625 8.296875 
L 28.515625 63.921875 
L 10.984375 60.40625 
L 10.984375 69.390625 
L 28.421875 72.90625 
L 38.28125 72.90625 
L 38.28125 8.296875 
L 54.390625 8.296875 
L 54.390625 0 
L 12.40625 0 
z
" id="DejaVuSans-31"/>
      </defs>
      <g style="fill:#262626;" transform="translate(188.674645 404.886625)scale(0.088 -0.088)">
       <use xlink:href="#DejaVuSans-31"/>
       <use x="63.623047" xlink:href="#DejaVuSans-30"/>
       <use x="127.246094" xlink:href="#DejaVuSans-2e"/>
       <use x="159.033203" xlink:href="#DejaVuSans-30"/>
      </g>
     </g>
    </g>
    <g id="xtick_4">
     <g id="line2d_4">
      <g>
       <use style="fill:#262626;stroke:#262626;" x="249.883057" xlink:href="#m032e121e28" y="389.9"/>
      </g>
     </g>
     <g id="text_4">
      <!-- 10.5 -->
      <g style="fill:#262626;" transform="translate(240.086182 404.886625)scale(0.088 -0.088)">
       <use xlink:href="#DejaVuSans-31"/>
       <use x="63.623047" xlink:href="#DejaVuSans-30"/>
       <use x="127.246094" xlink:href="#DejaVuSans-2e"/>
       <use x="159.033203" xlink:href="#DejaVuSans-35"/>
      </g>
     </g>
    </g>
    <g id="xtick_5">
     <g id="line2d_5">
      <g>
       <use style="fill:#262626;stroke:#262626;" x="301.294595" xlink:href="#m032e121e28" y="389.9"/>
      </g>
     </g>
     <g id="text_5">
      <!-- 11.0 -->
      <g style="fill:#262626;" transform="translate(291.49772 404.886625)scale(0.088 -0.088)">
       <use xlink:href="#DejaVuSans-31"/>
       <use x="63.623047" xlink:href="#DejaVuSans-31"/>
       <use x="127.246094" xlink:href="#DejaVuSans-2e"/>
       <use x="159.033203" xlink:href="#DejaVuSans-30"/>
      </g>
     </g>
    </g>
    <g id="text_6">
     <!-- log(n) -->
     <defs>
      <path d="M 9.421875 75.984375 
L 18.40625 75.984375 
L 18.40625 0 
L 9.421875 0 
z
" id="DejaVuSans-6c"/>
      <path d="M 30.609375 48.390625 
Q 23.390625 48.390625 19.1875 42.75 
Q 14.984375 37.109375 14.984375 27.296875 
Q 14.984375 17.484375 19.15625 11.84375 
Q 23.34375 6.203125 30.609375 6.203125 
Q 37.796875 6.203125 41.984375 11.859375 
Q 46.1875 17.53125 46.1875 27.296875 
Q 46.1875 37.015625 41.984375 42.703125 
Q 37.796875 48.390625 30.609375 48.390625 
z
M 30.609375 56 
Q 42.328125 56 49.015625 48.375 
Q 55.71875 40.765625 55.71875 27.296875 
Q 55.71875 13.875 49.015625 6.21875 
Q 42.328125 -1.421875 30.609375 -1.421875 
Q 18.84375 -1.421875 12.171875 6.21875 
Q 5.515625 13.875 5.515625 27.296875 
Q 5.515625 40.765625 12.171875 48.375 
Q 18.84375 56 30.609375 56 
z
" id="DejaVuSans-6f"/>
      <path d="M 45.40625 27.984375 
Q 45.40625 37.75 41.375 43.109375 
Q 37.359375 48.484375 30.078125 48.484375 
Q 22.859375 48.484375 18.828125 43.109375 
Q 14.796875 37.75 14.796875 27.984375 
Q 14.796875 18.265625 18.828125 12.890625 
Q 22.859375 7.515625 30.078125 7.515625 
Q 37.359375 7.515625 41.375 12.890625 
Q 45.40625 18.265625 45.40625 27.984375 
z
M 54.390625 6.78125 
Q 54.390625 -7.171875 48.1875 -13.984375 
Q 42 -20.796875 29.203125 -20.796875 
Q 24.46875 -20.796875 20.265625 -20.09375 
Q 16.0625 -19.390625 12.109375 -17.921875 
L 12.109375 -9.1875 
Q 16.0625 -11.328125 19.921875 -12.34375 
Q 23.78125 -13.375 27.78125 -13.375 
Q 36.625 -13.375 41.015625 -8.765625 
Q 45.40625 -4.15625 45.40625 5.171875 
L 45.40625 9.625 
Q 42.625 4.78125 38.28125 2.390625 
Q 33.9375 0 27.875 0 
Q 17.828125 0 11.671875 7.65625 
Q 5.515625 15.328125 5.515625 27.984375 
Q 5.515625 40.671875 11.671875 48.328125 
Q 17.828125 56 27.875 56 
Q 33.9375 56 38.28125 53.609375 
Q 42.625 51.21875 45.40625 46.390625 
L 45.40625 54.6875 
L 54.390625 54.6875 
z
" id="DejaVuSans-67"/>
      <path d="M 31 75.875 
Q 24.46875 64.65625 21.28125 53.65625 
Q 18.109375 42.671875 18.109375 31.390625 
Q 18.109375 20.125 21.3125 9.0625 
Q 24.515625 -2 31 -13.1875 
L 23.1875 -13.1875 
Q 15.875 -1.703125 12.234375 9.375 
Q 8.59375 20.453125 8.59375 31.390625 
Q 8.59375 42.28125 12.203125 53.3125 
Q 15.828125 64.359375 23.1875 75.875 
z
" id="DejaVuSans-28"/>
      <path d="M 54.890625 33.015625 
L 54.890625 0 
L 45.90625 0 
L 45.90625 32.71875 
Q 45.90625 40.484375 42.875 44.328125 
Q 39.84375 48.1875 33.796875 48.1875 
Q 26.515625 48.1875 22.3125 43.546875 
Q 18.109375 38.921875 18.109375 30.90625 
L 18.109375 0 
L 9.078125 0 
L 9.078125 54.6875 
L 18.109375 54.6875 
L 18.109375 46.1875 
Q 21.34375 51.125 25.703125 53.5625 
Q 30.078125 56 35.796875 56 
Q 45.21875 56 50.046875 50.171875 
Q 54.890625 44.34375 54.890625 33.015625 
z
" id="DejaVuSans-6e"/>
      <path d="M 8.015625 75.875 
L 15.828125 75.875 
Q 23.140625 64.359375 26.78125 53.3125 
Q 30.421875 42.28125 30.421875 31.390625 
Q 30.421875 20.453125 26.78125 9.375 
Q 23.140625 -1.703125 15.828125 -13.1875 
L 8.015625 -13.1875 
Q 14.5 -2 17.703125 9.0625 
Q 20.90625 20.125 20.90625 31.390625 
Q 20.90625 42.671875 17.703125 53.65625 
Q 14.5 64.65625 8.015625 75.875 
z
" id="DejaVuSans-29"/>
     </defs>
     <g style="fill:#262626;" transform="translate(186.773917 418.01125)scale(0.096 -0.096)">
      <use xlink:href="#DejaVuSans-6c"/>
      <use x="27.783203" xlink:href="#DejaVuSans-6f"/>
      <use x="88.964844" xlink:href="#DejaVuSans-67"/>
      <use x="152.441406" xlink:href="#DejaVuSans-28"/>
      <use x="191.455078" xlink:href="#DejaVuSans-6e"/>
      <use x="254.833984" xlink:href="#DejaVuSans-29"/>
     </g>
    </g>
   </g>
   <g id="matplotlib.axis_2">
    <g id="ytick_1">
     <g id="line2d_6">
      <defs>
       <path d="M 0 0 
L -4.8 0 
" id="mc5fca387bd" style="stroke:#262626;"/>
      </defs>
      <g>
       <use style="fill:#262626;stroke:#262626;" x="49.85" xlink:href="#mc5fca387bd" y="389.9"/>
      </g>
     </g>
     <g id="text_7">
      <!-- 0 -->
      <g style="fill:#262626;" transform="translate(35.951 393.243313)scale(0.088 -0.088)">
       <use xlink:href="#DejaVuSans-30"/>
      </g>
     </g>
    </g>
    <g id="ytick_2">
     <g id="line2d_7">
      <g>
       <use style="fill:#262626;stroke:#262626;" x="49.85" xlink:href="#mc5fca387bd" y="333.806061"/>
      </g>
     </g>
     <g id="text_8">
      <!-- 20 -->
      <defs>
       <path d="M 19.1875 8.296875 
L 53.609375 8.296875 
L 53.609375 0 
L 7.328125 0 
L 7.328125 8.296875 
Q 12.9375 14.109375 22.625 23.890625 
Q 32.328125 33.6875 34.8125 36.53125 
Q 39.546875 41.84375 41.421875 45.53125 
Q 43.3125 49.21875 43.3125 52.78125 
Q 43.3125 58.59375 39.234375 62.25 
Q 35.15625 65.921875 28.609375 65.921875 
Q 23.96875 65.921875 18.8125 64.3125 
Q 13.671875 62.703125 7.8125 59.421875 
L 7.8125 69.390625 
Q 13.765625 71.78125 18.9375 73 
Q 24.125 74.21875 28.421875 74.21875 
Q 39.75 74.21875 46.484375 68.546875 
Q 53.21875 62.890625 53.21875 53.421875 
Q 53.21875 48.921875 51.53125 44.890625 
Q 49.859375 40.875 45.40625 35.40625 
Q 44.1875 33.984375 37.640625 27.21875 
Q 31.109375 20.453125 19.1875 8.296875 
z
" id="DejaVuSans-32"/>
      </defs>
      <g style="fill:#262626;" transform="translate(30.352 337.149373)scale(0.088 -0.088)">
       <use xlink:href="#DejaVuSans-32"/>
       <use x="63.623047" xlink:href="#DejaVuSans-30"/>
      </g>
     </g>
    </g>
    <g id="ytick_3">
     <g id="line2d_8">
      <g>
       <use style="fill:#262626;stroke:#262626;" x="49.85" xlink:href="#mc5fca387bd" y="277.712121"/>
      </g>
     </g>
     <g id="text_9">
      <!-- 40 -->
      <defs>
       <path d="M 37.796875 64.3125 
L 12.890625 25.390625 
L 37.796875 25.390625 
z
M 35.203125 72.90625 
L 47.609375 72.90625 
L 47.609375 25.390625 
L 58.015625 25.390625 
L 58.015625 17.1875 
L 47.609375 17.1875 
L 47.609375 0 
L 37.796875 0 
L 37.796875 17.1875 
L 4.890625 17.1875 
L 4.890625 26.703125 
z
" id="DejaVuSans-34"/>
      </defs>
      <g style="fill:#262626;" transform="translate(30.352 281.055434)scale(0.088 -0.088)">
       <use xlink:href="#DejaVuSans-34"/>
       <use x="63.623047" xlink:href="#DejaVuSans-30"/>
      </g>
     </g>
    </g>
    <g id="ytick_4">
     <g id="line2d_9">
      <g>
       <use style="fill:#262626;stroke:#262626;" x="49.85" xlink:href="#mc5fca387bd" y="221.618182"/>
      </g>
     </g>
     <g id="text_10">
      <!-- 60 -->
      <defs>
       <path d="M 33.015625 40.375 
Q 26.375 40.375 22.484375 35.828125 
Q 18.609375 31.296875 18.609375 23.390625 
Q 18.609375 15.53125 22.484375 10.953125 
Q 26.375 6.390625 33.015625 6.390625 
Q 39.65625 6.390625 43.53125 10.953125 
Q 47.40625 15.53125 47.40625 23.390625 
Q 47.40625 31.296875 43.53125 35.828125 
Q 39.65625 40.375 33.015625 40.375 
z
M 52.59375 71.296875 
L 52.59375 62.3125 
Q 48.875 64.0625 45.09375 64.984375 
Q 41.3125 65.921875 37.59375 65.921875 
Q 27.828125 65.921875 22.671875 59.328125 
Q 17.53125 52.734375 16.796875 39.40625 
Q 19.671875 43.65625 24.015625 45.921875 
Q 28.375 48.1875 33.59375 48.1875 
Q 44.578125 48.1875 50.953125 41.515625 
Q 57.328125 34.859375 57.328125 23.390625 
Q 57.328125 12.15625 50.6875 5.359375 
Q 44.046875 -1.421875 33.015625 -1.421875 
Q 20.359375 -1.421875 13.671875 8.265625 
Q 6.984375 17.96875 6.984375 36.375 
Q 6.984375 53.65625 15.1875 63.9375 
Q 23.390625 74.21875 37.203125 74.21875 
Q 40.921875 74.21875 44.703125 73.484375 
Q 48.484375 72.75 52.59375 71.296875 
z
" id="DejaVuSans-36"/>
      </defs>
      <g style="fill:#262626;" transform="translate(30.352 224.961494)scale(0.088 -0.088)">
       <use xlink:href="#DejaVuSans-36"/>
       <use x="63.623047" xlink:href="#DejaVuSans-30"/>
      </g>
     </g>
    </g>
    <g id="ytick_5">
     <g id="line2d_10">
      <g>
       <use style="fill:#262626;stroke:#262626;" x="49.85" xlink:href="#mc5fca387bd" y="165.524242"/>
      </g>
     </g>
     <g id="text_11">
      <!-- 80 -->
      <defs>
       <path d="M 31.78125 34.625 
Q 24.75 34.625 20.71875 30.859375 
Q 16.703125 27.09375 16.703125 20.515625 
Q 16.703125 13.921875 20.71875 10.15625 
Q 24.75 6.390625 31.78125 6.390625 
Q 38.8125 6.390625 42.859375 10.171875 
Q 46.921875 13.96875 46.921875 20.515625 
Q 46.921875 27.09375 42.890625 30.859375 
Q 38.875 34.625 31.78125 34.625 
z
M 21.921875 38.8125 
Q 15.578125 40.375 12.03125 44.71875 
Q 8.5 49.078125 8.5 55.328125 
Q 8.5 64.0625 14.71875 69.140625 
Q 20.953125 74.21875 31.78125 74.21875 
Q 42.671875 74.21875 48.875 69.140625 
Q 55.078125 64.0625 55.078125 55.328125 
Q 55.078125 49.078125 51.53125 44.71875 
Q 48 40.375 41.703125 38.8125 
Q 48.828125 37.15625 52.796875 32.3125 
Q 56.78125 27.484375 56.78125 20.515625 
Q 56.78125 9.90625 50.3125 4.234375 
Q 43.84375 -1.421875 31.78125 -1.421875 
Q 19.734375 -1.421875 13.25 4.234375 
Q 6.78125 9.90625 6.78125 20.515625 
Q 6.78125 27.484375 10.78125 32.3125 
Q 14.796875 37.15625 21.921875 38.8125 
z
M 18.3125 54.390625 
Q 18.3125 48.734375 21.84375 45.5625 
Q 25.390625 42.390625 31.78125 42.390625 
Q 38.140625 42.390625 41.71875 45.5625 
Q 45.3125 48.734375 45.3125 54.390625 
Q 45.3125 60.0625 41.71875 63.234375 
Q 38.140625 66.40625 31.78125 66.40625 
Q 25.390625 66.40625 21.84375 63.234375 
Q 18.3125 60.0625 18.3125 54.390625 
z
" id="DejaVuSans-38"/>
      </defs>
      <g style="fill:#262626;" transform="translate(30.352 168.867555)scale(0.088 -0.088)">
       <use xlink:href="#DejaVuSans-38"/>
       <use x="63.623047" xlink:href="#DejaVuSans-30"/>
      </g>
     </g>
    </g>
    <g id="ytick_6">
     <g id="line2d_11">
      <g>
       <use style="fill:#262626;stroke:#262626;" x="49.85" xlink:href="#mc5fca387bd" y="109.430303"/>
      </g>
     </g>
     <g id="text_12">
      <!-- 100 -->
      <g style="fill:#262626;" transform="translate(24.753 112.773616)scale(0.088 -0.088)">
       <use xlink:href="#DejaVuSans-31"/>
       <use x="63.623047" xlink:href="#DejaVuSans-30"/>
       <use x="127.246094" xlink:href="#DejaVuSans-30"/>
      </g>
     </g>
    </g>
    <g id="text_13">
     <!-- Time to cancer -->
     <defs>
      <path d="M -0.296875 72.90625 
L 61.375 72.90625 
L 61.375 64.59375 
L 35.5 64.59375 
L 35.5 0 
L 25.59375 0 
L 25.59375 64.59375 
L -0.296875 64.59375 
z
" id="DejaVuSans-54"/>
      <path d="M 9.421875 54.6875 
L 18.40625 54.6875 
L 18.40625 0 
L 9.421875 0 
z
M 9.421875 75.984375 
L 18.40625 75.984375 
L 18.40625 64.59375 
L 9.421875 64.59375 
z
" id="DejaVuSans-69"/>
      <path d="M 52 44.1875 
Q 55.375 50.25 60.0625 53.125 
Q 64.75 56 71.09375 56 
Q 79.640625 56 84.28125 50.015625 
Q 88.921875 44.046875 88.921875 33.015625 
L 88.921875 0 
L 79.890625 0 
L 79.890625 32.71875 
Q 79.890625 40.578125 77.09375 44.375 
Q 74.3125 48.1875 68.609375 48.1875 
Q 61.625 48.1875 57.5625 43.546875 
Q 53.515625 38.921875 53.515625 30.90625 
L 53.515625 0 
L 44.484375 0 
L 44.484375 32.71875 
Q 44.484375 40.625 41.703125 44.40625 
Q 38.921875 48.1875 33.109375 48.1875 
Q 26.21875 48.1875 22.15625 43.53125 
Q 18.109375 38.875 18.109375 30.90625 
L 18.109375 0 
L 9.078125 0 
L 9.078125 54.6875 
L 18.109375 54.6875 
L 18.109375 46.1875 
Q 21.1875 51.21875 25.484375 53.609375 
Q 29.78125 56 35.6875 56 
Q 41.65625 56 45.828125 52.96875 
Q 50 49.953125 52 44.1875 
z
" id="DejaVuSans-6d"/>
      <path d="M 56.203125 29.59375 
L 56.203125 25.203125 
L 14.890625 25.203125 
Q 15.484375 15.921875 20.484375 11.0625 
Q 25.484375 6.203125 34.421875 6.203125 
Q 39.59375 6.203125 44.453125 7.46875 
Q 49.3125 8.734375 54.109375 11.28125 
L 54.109375 2.78125 
Q 49.265625 0.734375 44.1875 -0.34375 
Q 39.109375 -1.421875 33.890625 -1.421875 
Q 20.796875 -1.421875 13.15625 6.1875 
Q 5.515625 13.8125 5.515625 26.8125 
Q 5.515625 40.234375 12.765625 48.109375 
Q 20.015625 56 32.328125 56 
Q 43.359375 56 49.78125 48.890625 
Q 56.203125 41.796875 56.203125 29.59375 
z
M 47.21875 32.234375 
Q 47.125 39.59375 43.09375 43.984375 
Q 39.0625 48.390625 32.421875 48.390625 
Q 24.90625 48.390625 20.390625 44.140625 
Q 15.875 39.890625 15.1875 32.171875 
z
" id="DejaVuSans-65"/>
      <path id="DejaVuSans-20"/>
      <path d="M 18.3125 70.21875 
L 18.3125 54.6875 
L 36.8125 54.6875 
L 36.8125 47.703125 
L 18.3125 47.703125 
L 18.3125 18.015625 
Q 18.3125 11.328125 20.140625 9.421875 
Q 21.96875 7.515625 27.59375 7.515625 
L 36.8125 7.515625 
L 36.8125 0 
L 27.59375 0 
Q 17.1875 0 13.234375 3.875 
Q 9.28125 7.765625 9.28125 18.015625 
L 9.28125 47.703125 
L 2.6875 47.703125 
L 2.6875 54.6875 
L 9.28125 54.6875 
L 9.28125 70.21875 
z
" id="DejaVuSans-74"/>
      <path d="M 48.78125 52.59375 
L 48.78125 44.1875 
Q 44.96875 46.296875 41.140625 47.34375 
Q 37.3125 48.390625 33.40625 48.390625 
Q 24.65625 48.390625 19.8125 42.84375 
Q 14.984375 37.3125 14.984375 27.296875 
Q 14.984375 17.28125 19.8125 11.734375 
Q 24.65625 6.203125 33.40625 6.203125 
Q 37.3125 6.203125 41.140625 7.25 
Q 44.96875 8.296875 48.78125 10.40625 
L 48.78125 2.09375 
Q 45.015625 0.34375 40.984375 -0.53125 
Q 36.96875 -1.421875 32.421875 -1.421875 
Q 20.0625 -1.421875 12.78125 6.34375 
Q 5.515625 14.109375 5.515625 27.296875 
Q 5.515625 40.671875 12.859375 48.328125 
Q 20.21875 56 33.015625 56 
Q 37.15625 56 41.109375 55.140625 
Q 45.0625 54.296875 48.78125 52.59375 
z
" id="DejaVuSans-63"/>
      <path d="M 34.28125 27.484375 
Q 23.390625 27.484375 19.1875 25 
Q 14.984375 22.515625 14.984375 16.5 
Q 14.984375 11.71875 18.140625 8.90625 
Q 21.296875 6.109375 26.703125 6.109375 
Q 34.1875 6.109375 38.703125 11.40625 
Q 43.21875 16.703125 43.21875 25.484375 
L 43.21875 27.484375 
z
M 52.203125 31.203125 
L 52.203125 0 
L 43.21875 0 
L 43.21875 8.296875 
Q 40.140625 3.328125 35.546875 0.953125 
Q 30.953125 -1.421875 24.3125 -1.421875 
Q 15.921875 -1.421875 10.953125 3.296875 
Q 6 8.015625 6 15.921875 
Q 6 25.140625 12.171875 29.828125 
Q 18.359375 34.515625 30.609375 34.515625 
L 43.21875 34.515625 
L 43.21875 35.40625 
Q 43.21875 41.609375 39.140625 45 
Q 35.0625 48.390625 27.6875 48.390625 
Q 23 48.390625 18.546875 47.265625 
Q 14.109375 46.140625 10.015625 43.890625 
L 10.015625 52.203125 
Q 14.9375 54.109375 19.578125 55.046875 
Q 24.21875 56 28.609375 56 
Q 40.484375 56 46.34375 49.84375 
Q 52.203125 43.703125 52.203125 31.203125 
z
" id="DejaVuSans-61"/>
      <path d="M 41.109375 46.296875 
Q 39.59375 47.171875 37.8125 47.578125 
Q 36.03125 48 33.890625 48 
Q 26.265625 48 22.1875 43.046875 
Q 18.109375 38.09375 18.109375 28.8125 
L 18.109375 0 
L 9.078125 0 
L 9.078125 54.6875 
L 18.109375 54.6875 
L 18.109375 46.1875 
Q 20.953125 51.171875 25.484375 53.578125 
Q 30.03125 56 36.53125 56 
Q 37.453125 56 38.578125 55.875 
Q 39.703125 55.765625 41.0625 55.515625 
z
" id="DejaVuSans-72"/>
     </defs>
     <g style="fill:#262626;" transform="translate(18.7565 271.592167)rotate(-90)scale(0.096 -0.096)">
      <use xlink:href="#DejaVuSans-54"/>
      <use x="61.037109" xlink:href="#DejaVuSans-69"/>
      <use x="88.820312" xlink:href="#DejaVuSans-6d"/>
      <use x="186.232422" xlink:href="#DejaVuSans-65"/>
      <use x="247.755859" xlink:href="#DejaVuSans-20"/>
      <use x="279.542969" xlink:href="#DejaVuSans-74"/>
      <use x="318.751953" xlink:href="#DejaVuSans-6f"/>
      <use x="379.933594" xlink:href="#DejaVuSans-20"/>
      <use x="411.720703" xlink:href="#DejaVuSans-63"/>
      <use x="466.701172" xlink:href="#DejaVuSans-61"/>
      <use x="527.980469" xlink:href="#DejaVuSans-6e"/>
      <use x="591.359375" xlink:href="#DejaVuSans-63"/>
      <use x="646.339844" xlink:href="#DejaVuSans-65"/>
      <use x="707.863281" xlink:href="#DejaVuSans-72"/>
     </g>
    </g>
   </g>
   <g id="PathCollection_1">
    <defs>
     <path d="M 0 2.4 
C 0.636487 2.4 1.246992 2.147121 1.697056 1.697056 
C 2.147121 1.246992 2.4 0.636487 2.4 0 
C 2.4 -0.636487 2.147121 -1.246992 1.697056 -1.697056 
C 1.246992 -2.147121 0.636487 -2.4 0 -2.4 
C -0.636487 -2.4 -1.246992 -2.147121 -1.697056 -1.697056 
C -2.147121 -1.246992 -2.4 -0.636487 -2.4 0 
C -2.4 0.636487 -2.147121 1.246992 -1.697056 1.697056 
C -1.246992 2.147121 -0.636487 2.4 0 2.4 
z
" id="ma5f5887b5a" style="stroke:#471365;stroke-opacity:0.8;"/>
    </defs>
    <g clip-path="url(#p378b198ada)">
     <use style="fill:#471365;fill-opacity:0.8;stroke:#471365;stroke-opacity:0.8;" x="233.500031" xlink:href="#ma5f5887b5a" y="326.506164"/>
     <use style="fill:#471365;fill-opacity:0.8;stroke:#471365;stroke-opacity:0.8;" x="256.54955" xlink:href="#ma5f5887b5a" y="268.206888"/>
     <use style="fill:#471365;fill-opacity:0.8;stroke:#471365;stroke-opacity:0.8;" x="257.242891" xlink:href="#ma5f5887b5a" y="297.452577"/>
     <use style="fill:#471365;fill-opacity:0.8;stroke:#471365;stroke-opacity:0.8;" x="223.142287" xlink:href="#ma5f5887b5a" y="286.395156"/>
     <use style="fill:#471365;fill-opacity:0.8;stroke:#471365;stroke-opacity:0.8;" x="143.573056" xlink:href="#ma5f5887b5a" y="315.433374"/>
     <use style="fill:#471365;fill-opacity:0.8;stroke:#471365;stroke-opacity:0.8;" x="281.657207" xlink:href="#ma5f5887b5a" y="289.553321"/>
     <use style="fill:#471365;fill-opacity:0.8;stroke:#471365;stroke-opacity:0.8;" x="212.171182" xlink:href="#ma5f5887b5a" y="306.28161"/>
     <use style="fill:#471365;fill-opacity:0.8;stroke:#471365;stroke-opacity:0.8;" x="258.840429" xlink:href="#ma5f5887b5a" y="345.808627"/>
     <use style="fill:#471365;fill-opacity:0.8;stroke:#471365;stroke-opacity:0.8;" x="236.560343" xlink:href="#ma5f5887b5a" y="311.537535"/>
     <use style="fill:#471365;fill-opacity:0.8;stroke:#471365;stroke-opacity:0.8;" x="267.478454" xlink:href="#ma5f5887b5a" y="234.496736"/>
     <use style="fill:#471365;fill-opacity:0.8;stroke:#471365;stroke-opacity:0.8;" x="153.215513" xlink:href="#ma5f5887b5a" y="263.18917"/>
     <use style="fill:#471365;fill-opacity:0.8;stroke:#471365;stroke-opacity:0.8;" x="209.527132" xlink:href="#ma5f5887b5a" y="119.965206"/>
     <use style="fill:#471365;fill-opacity:0.8;stroke:#471365;stroke-opacity:0.8;" x="270.291086" xlink:href="#ma5f5887b5a" y="214.502704"/>
     <use style="fill:#471365;fill-opacity:0.8;stroke:#471365;stroke-opacity:0.8;" x="251.147081" xlink:href="#ma5f5887b5a" y="303.031235"/>
     <use style="fill:#471365;fill-opacity:0.8;stroke:#471365;stroke-opacity:0.8;" x="151.884438" xlink:href="#ma5f5887b5a" y="249.818834"/>
     <use style="fill:#471365;fill-opacity:0.8;stroke:#471365;stroke-opacity:0.8;" x="238.250058" xlink:href="#ma5f5887b5a" y="310.876702"/>
     <use style="fill:#471365;fill-opacity:0.8;stroke:#471365;stroke-opacity:0.8;" x="280.077168" xlink:href="#ma5f5887b5a" y="157.878562"/>
     <use style="fill:#471365;fill-opacity:0.8;stroke:#471365;stroke-opacity:0.8;" x="161.735594" xlink:href="#ma5f5887b5a" y="232.252978"/>
     <use style="fill:#471365;fill-opacity:0.8;stroke:#471365;stroke-opacity:0.8;" x="273.563337" xlink:href="#ma5f5887b5a" y="286.671783"/>
     <use style="fill:#471365;fill-opacity:0.8;stroke:#471365;stroke-opacity:0.8;" x="272.863367" xlink:href="#ma5f5887b5a" y="291.382137"/>
     <use style="fill:#471365;fill-opacity:0.8;stroke:#471365;stroke-opacity:0.8;" x="274.842684" xlink:href="#ma5f5887b5a" y="251.186604"/>
     <use style="fill:#471365;fill-opacity:0.8;stroke:#471365;stroke-opacity:0.8;" x="227.559296" xlink:href="#ma5f5887b5a" y="299.581073"/>
     <use style="fill:#471365;fill-opacity:0.8;stroke:#471365;stroke-opacity:0.8;" x="268.091693" xlink:href="#ma5f5887b5a" y="251.701438"/>
     <use style="fill:#471365;fill-opacity:0.8;stroke:#471365;stroke-opacity:0.8;" x="280.009941" xlink:href="#ma5f5887b5a" y="218.421596"/>
     <use style="fill:#471365;fill-opacity:0.8;stroke:#471365;stroke-opacity:0.8;" x="170.995684" xlink:href="#ma5f5887b5a" y="200.602165"/>
     <use style="fill:#471365;fill-opacity:0.8;stroke:#471365;stroke-opacity:0.8;" x="244.777819" xlink:href="#ma5f5887b5a" y="187.961818"/>
     <use style="fill:#471365;fill-opacity:0.8;stroke:#471365;stroke-opacity:0.8;" x="250.381849" xlink:href="#ma5f5887b5a" y="217.207508"/>
     <use style="fill:#471365;fill-opacity:0.8;stroke:#471365;stroke-opacity:0.8;" x="281.798571" xlink:href="#ma5f5887b5a" y="271.710838"/>
     <use style="fill:#471365;fill-opacity:0.8;stroke:#471365;stroke-opacity:0.8;" x="158.959047" xlink:href="#ma5f5887b5a" y="270.396857"/>
     <use style="fill:#471365;fill-opacity:0.8;stroke:#471365;stroke-opacity:0.8;" x="251.832982" xlink:href="#ma5f5887b5a" y="342.980878"/>
     <use style="fill:#471365;fill-opacity:0.8;stroke:#471365;stroke-opacity:0.8;" x="274.559438" xlink:href="#ma5f5887b5a" y="274.884372"/>
     <use style="fill:#471365;fill-opacity:0.8;stroke:#471365;stroke-opacity:0.8;" x="276.423251" xlink:href="#ma5f5887b5a" y="268.475831"/>
     <use style="fill:#471365;fill-opacity:0.8;stroke:#471365;stroke-opacity:0.8;" x="286.352669" xlink:href="#ma5f5887b5a" y="249.373156"/>
     <use style="fill:#471365;fill-opacity:0.8;stroke:#471365;stroke-opacity:0.8;" x="282.801932" xlink:href="#ma5f5887b5a" y="273.40134"/>
     <use style="fill:#471365;fill-opacity:0.8;stroke:#471365;stroke-opacity:0.8;" x="274.787515" xlink:href="#ma5f5887b5a" y="303.692068"/>
     <use style="fill:#471365;fill-opacity:0.8;stroke:#471365;stroke-opacity:0.8;" x="267.983201" xlink:href="#ma5f5887b5a" y="205.043575"/>
     <use style="fill:#471365;fill-opacity:0.8;stroke:#471365;stroke-opacity:0.8;" x="276.050653" xlink:href="#ma5f5887b5a" y="322.702534"/>
     <use style="fill:#471365;fill-opacity:0.8;stroke:#471365;stroke-opacity:0.8;" x="241.884559" xlink:href="#ma5f5887b5a" y="308.364001"/>
     <use style="fill:#471365;fill-opacity:0.8;stroke:#471365;stroke-opacity:0.8;" x="253.300804" xlink:href="#ma5f5887b5a" y="209.19299"/>
     <use style="fill:#471365;fill-opacity:0.8;stroke:#471365;stroke-opacity:0.8;" x="277.63057" xlink:href="#ma5f5887b5a" y="297.490998"/>
     <use style="fill:#471365;fill-opacity:0.8;stroke:#471365;stroke-opacity:0.8;" x="263.046819" xlink:href="#ma5f5887b5a" y="277.204971"/>
     <use style="fill:#471365;fill-opacity:0.8;stroke:#471365;stroke-opacity:0.8;" x="259.58091" xlink:href="#ma5f5887b5a" y="303.069655"/>
     <use style="fill:#471365;fill-opacity:0.8;stroke:#471365;stroke-opacity:0.8;" x="274.520668" xlink:href="#ma5f5887b5a" y="256.626947"/>
     <use style="fill:#471365;fill-opacity:0.8;stroke:#471365;stroke-opacity:0.8;" x="277.004441" xlink:href="#ma5f5887b5a" y="287.540087"/>
     <use style="fill:#471365;fill-opacity:0.8;stroke:#471365;stroke-opacity:0.8;" x="224.625989" xlink:href="#ma5f5887b5a" y="201.378259"/>
     <use style="fill:#471365;fill-opacity:0.8;stroke:#471365;stroke-opacity:0.8;" x="250.158667" xlink:href="#ma5f5887b5a" y="110.106504"/>
     <use style="fill:#471365;fill-opacity:0.8;stroke:#471365;stroke-opacity:0.8;" x="147.978333" xlink:href="#ma5f5887b5a" y="292.311914"/>
     <use style="fill:#471365;fill-opacity:0.8;stroke:#471365;stroke-opacity:0.8;" x="248.950375" xlink:href="#ma5f5887b5a" y="260.123213"/>
     <use style="fill:#471365;fill-opacity:0.8;stroke:#471365;stroke-opacity:0.8;" x="242.521026" xlink:href="#ma5f5887b5a" y="251.34797"/>
     <use style="fill:#471365;fill-opacity:0.8;stroke:#471365;stroke-opacity:0.8;" x="243.381798" xlink:href="#ma5f5887b5a" y="319.083323"/>
     <use style="fill:#471365;fill-opacity:0.8;stroke:#471365;stroke-opacity:0.8;" x="279.270396" xlink:href="#ma5f5887b5a" y="131.821774"/>
     <use style="fill:#471365;fill-opacity:0.8;stroke:#471365;stroke-opacity:0.8;" x="231.305029" xlink:href="#ma5f5887b5a" y="267.607528"/>
     <use style="fill:#471365;fill-opacity:0.8;stroke:#471365;stroke-opacity:0.8;" x="209.885941" xlink:href="#ma5f5887b5a" y="247.621181"/>
     <use style="fill:#471365;fill-opacity:0.8;stroke:#471365;stroke-opacity:0.8;" x="265.112526" xlink:href="#ma5f5887b5a" y="204.836105"/>
     <use style="fill:#471365;fill-opacity:0.8;stroke:#471365;stroke-opacity:0.8;" x="285.33377" xlink:href="#ma5f5887b5a" y="267.868787"/>
     <use style="fill:#471365;fill-opacity:0.8;stroke:#471365;stroke-opacity:0.8;" x="221.194018" xlink:href="#ma5f5887b5a" y="253.78383"/>
     <use style="fill:#471365;fill-opacity:0.8;stroke:#471365;stroke-opacity:0.8;" x="255.990391" xlink:href="#ma5f5887b5a" y="234.734943"/>
     <use style="fill:#471365;fill-opacity:0.8;stroke:#471365;stroke-opacity:0.8;" x="223.789883" xlink:href="#ma5f5887b5a" y="276.790029"/>
     <use style="fill:#471365;fill-opacity:0.8;stroke:#471365;stroke-opacity:0.8;" x="255.756157" xlink:href="#ma5f5887b5a" y="250.264511"/>
     <use style="fill:#471365;fill-opacity:0.8;stroke:#471365;stroke-opacity:0.8;" x="284.925759" xlink:href="#ma5f5887b5a" y="298.735822"/>
     <use style="fill:#471365;fill-opacity:0.8;stroke:#471365;stroke-opacity:0.8;" x="273.71892" xlink:href="#ma5f5887b5a" y="221.364606"/>
     <use style="fill:#471365;fill-opacity:0.8;stroke:#471365;stroke-opacity:0.8;" x="281.862593" xlink:href="#ma5f5887b5a" y="314.457494"/>
     <use style="fill:#471365;fill-opacity:0.8;stroke:#471365;stroke-opacity:0.8;" x="249.485666" xlink:href="#ma5f5887b5a" y="254.713606"/>
     <use style="fill:#471365;fill-opacity:0.8;stroke:#471365;stroke-opacity:0.8;" x="285.306656" xlink:href="#ma5f5887b5a" y="205.796617"/>
     <use style="fill:#471365;fill-opacity:0.8;stroke:#471365;stroke-opacity:0.8;" x="222.779435" xlink:href="#ma5f5887b5a" y="154.55903"/>
     <use style="fill:#471365;fill-opacity:0.8;stroke:#471365;stroke-opacity:0.8;" x="282.985571" xlink:href="#ma5f5887b5a" y="172.34004"/>
     <use style="fill:#471365;fill-opacity:0.8;stroke:#471365;stroke-opacity:0.8;" x="273.371809" xlink:href="#ma5f5887b5a" y="157.502041"/>
     <use style="fill:#471365;fill-opacity:0.8;stroke:#471365;stroke-opacity:0.8;" x="258.533971" xlink:href="#ma5f5887b5a" y="209.907611"/>
     <use style="fill:#471365;fill-opacity:0.8;stroke:#471365;stroke-opacity:0.8;" x="269.757587" xlink:href="#ma5f5887b5a" y="153.683042"/>
     <use style="fill:#471365;fill-opacity:0.8;stroke:#471365;stroke-opacity:0.8;" x="263.151586" xlink:href="#ma5f5887b5a" y="302.992814"/>
     <use style="fill:#471365;fill-opacity:0.8;stroke:#471365;stroke-opacity:0.8;" x="268.14355" xlink:href="#ma5f5887b5a" y="289.238273"/>
     <use style="fill:#471365;fill-opacity:0.8;stroke:#471365;stroke-opacity:0.8;" x="277.206158" xlink:href="#ma5f5887b5a" y="239.468349"/>
     <use style="fill:#471365;fill-opacity:0.8;stroke:#471365;stroke-opacity:0.8;" x="254.545607" xlink:href="#ma5f5887b5a" y="269.666867"/>
     <use style="fill:#471365;fill-opacity:0.8;stroke:#471365;stroke-opacity:0.8;" x="160.114381" xlink:href="#ma5f5887b5a" y="293.310847"/>
     <use style="fill:#471365;fill-opacity:0.8;stroke:#471365;stroke-opacity:0.8;" x="279.797699" xlink:href="#ma5f5887b5a" y="206.45745"/>
     <use style="fill:#471365;fill-opacity:0.8;stroke:#471365;stroke-opacity:0.8;" x="237.585616" xlink:href="#ma5f5887b5a" y="206.234611"/>
     <use style="fill:#471365;fill-opacity:0.8;stroke:#471365;stroke-opacity:0.8;" x="199.584113" xlink:href="#ma5f5887b5a" y="266.370388"/>
     <use style="fill:#471365;fill-opacity:0.8;stroke:#471365;stroke-opacity:0.8;" x="235.133621" xlink:href="#ma5f5887b5a" y="305.021417"/>
     <use style="fill:#471365;fill-opacity:0.8;stroke:#471365;stroke-opacity:0.8;" x="182.969404" xlink:href="#ma5f5887b5a" y="279.686935"/>
     <use style="fill:#471365;fill-opacity:0.8;stroke:#471365;stroke-opacity:0.8;" x="226.256885" xlink:href="#ma5f5887b5a" y="306.535185"/>
     <use style="fill:#471365;fill-opacity:0.8;stroke:#471365;stroke-opacity:0.8;" x="257.03341" xlink:href="#ma5f5887b5a" y="230.762262"/>
     <use style="fill:#471365;fill-opacity:0.8;stroke:#471365;stroke-opacity:0.8;" x="274.966702" xlink:href="#ma5f5887b5a" y="265.970814"/>
     <use style="fill:#471365;fill-opacity:0.8;stroke:#471365;stroke-opacity:0.8;" x="258.093136" xlink:href="#ma5f5887b5a" y="180.538976"/>
     <use style="fill:#471365;fill-opacity:0.8;stroke:#471365;stroke-opacity:0.8;" x="282.001902" xlink:href="#ma5f5887b5a" y="198.750296"/>
     <use style="fill:#471365;fill-opacity:0.8;stroke:#471365;stroke-opacity:0.8;" x="248.683052" xlink:href="#ma5f5887b5a" y="288.892489"/>
     <use style="fill:#471365;fill-opacity:0.8;stroke:#471365;stroke-opacity:0.8;" x="252.671332" xlink:href="#ma5f5887b5a" y="316.463044"/>
     <use style="fill:#471365;fill-opacity:0.8;stroke:#471365;stroke-opacity:0.8;" x="246.153196" xlink:href="#ma5f5887b5a" y="212.873675"/>
     <use style="fill:#471365;fill-opacity:0.8;stroke:#471365;stroke-opacity:0.8;" x="209.150413" xlink:href="#ma5f5887b5a" y="246.637616"/>
     <use style="fill:#471365;fill-opacity:0.8;stroke:#471365;stroke-opacity:0.8;" x="220.93497" xlink:href="#ma5f5887b5a" y="109.691562"/>
     <use style="fill:#471365;fill-opacity:0.8;stroke:#471365;stroke-opacity:0.8;" x="271.807274" xlink:href="#ma5f5887b5a" y="311.599008"/>
     <use style="fill:#471365;fill-opacity:0.8;stroke:#471365;stroke-opacity:0.8;" x="216.474279" xlink:href="#ma5f5887b5a" y="304.545003"/>
     <use style="fill:#471365;fill-opacity:0.8;stroke:#471365;stroke-opacity:0.8;" x="228.753841" xlink:href="#ma5f5887b5a" y="205.658303"/>
     <use style="fill:#471365;fill-opacity:0.8;stroke:#471365;stroke-opacity:0.8;" x="246.361935" xlink:href="#ma5f5887b5a" y="277.59686"/>
     <use style="fill:#471365;fill-opacity:0.8;stroke:#471365;stroke-opacity:0.8;" x="183.076005" xlink:href="#ma5f5887b5a" y="147.45892"/>
     <use style="fill:#471365;fill-opacity:0.8;stroke:#471365;stroke-opacity:0.8;" x="271.941264" xlink:href="#ma5f5887b5a" y="185.541326"/>
     <use style="fill:#471365;fill-opacity:0.8;stroke:#471365;stroke-opacity:0.8;" x="268.390359" xlink:href="#ma5f5887b5a" y="191.527241"/>
     <use style="fill:#471365;fill-opacity:0.8;stroke:#471365;stroke-opacity:0.8;" x="231.338706" xlink:href="#ma5f5887b5a" y="275.675834"/>
     <use style="fill:#471365;fill-opacity:0.8;stroke:#471365;stroke-opacity:0.8;" x="278.907788" xlink:href="#ma5f5887b5a" y="205.22031"/>
     <use style="fill:#471365;fill-opacity:0.8;stroke:#471365;stroke-opacity:0.8;" x="214.878491" xlink:href="#ma5f5887b5a" y="171.379528"/>
     <use style="fill:#471365;fill-opacity:0.8;stroke:#471365;stroke-opacity:0.8;" x="220.163857" xlink:href="#ma5f5887b5a" y="191.327455"/>
     <use style="fill:#471365;fill-opacity:0.8;stroke:#471365;stroke-opacity:0.8;" x="115.329575" xlink:href="#ma5f5887b5a" y="283.790245"/>
     <use style="fill:#471365;fill-opacity:0.8;stroke:#471365;stroke-opacity:0.8;" x="259.693147" xlink:href="#ma5f5887b5a" y="272.356303"/>
     <use style="fill:#471365;fill-opacity:0.8;stroke:#471365;stroke-opacity:0.8;" x="259.565229" xlink:href="#ma5f5887b5a" y="176.789135"/>
     <use style="fill:#471365;fill-opacity:0.8;stroke:#471365;stroke-opacity:0.8;" x="240.551064" xlink:href="#ma5f5887b5a" y="266.639331"/>
     <use style="fill:#471365;fill-opacity:0.8;stroke:#471365;stroke-opacity:0.8;" x="244.531787" xlink:href="#ma5f5887b5a" y="281.43891"/>
     <use style="fill:#471365;fill-opacity:0.8;stroke:#471365;stroke-opacity:0.8;" x="279.052456" xlink:href="#ma5f5887b5a" y="117.57545"/>
     <use style="fill:#471365;fill-opacity:0.8;stroke:#471365;stroke-opacity:0.8;" x="271.143159" xlink:href="#ma5f5887b5a" y="202.384876"/>
     <use style="fill:#471365;fill-opacity:0.8;stroke:#471365;stroke-opacity:0.8;" x="273.490133" xlink:href="#ma5f5887b5a" y="225.752228"/>
     <use style="fill:#471365;fill-opacity:0.8;stroke:#471365;stroke-opacity:0.8;" x="147.489007" xlink:href="#ma5f5887b5a" y="305.943509"/>
     <use style="fill:#471365;fill-opacity:0.8;stroke:#471365;stroke-opacity:0.8;" x="260.375627" xlink:href="#ma5f5887b5a" y="241.304849"/>
     <use style="fill:#471365;fill-opacity:0.8;stroke:#471365;stroke-opacity:0.8;" x="224.101601" xlink:href="#ma5f5887b5a" y="130.461688"/>
     <use style="fill:#471365;fill-opacity:0.8;stroke:#471365;stroke-opacity:0.8;" x="211.73312" xlink:href="#ma5f5887b5a" y="250.103145"/>
     <use style="fill:#471365;fill-opacity:0.8;stroke:#471365;stroke-opacity:0.8;" x="218.329015" xlink:href="#ma5f5887b5a" y="194.631618"/>
     <use style="fill:#471365;fill-opacity:0.8;stroke:#471365;stroke-opacity:0.8;" x="269.389761" xlink:href="#ma5f5887b5a" y="315.003065"/>
     <use style="fill:#471365;fill-opacity:0.8;stroke:#471365;stroke-opacity:0.8;" x="282.074369" xlink:href="#ma5f5887b5a" y="157.578882"/>
     <use style="fill:#471365;fill-opacity:0.8;stroke:#471365;stroke-opacity:0.8;" x="237.438342" xlink:href="#ma5f5887b5a" y="266.547122"/>
     <use style="fill:#471365;fill-opacity:0.8;stroke:#471365;stroke-opacity:0.8;" x="284.811747" xlink:href="#ma5f5887b5a" y="299.396655"/>
     <use style="fill:#471365;fill-opacity:0.8;stroke:#471365;stroke-opacity:0.8;" x="256.438219" xlink:href="#ma5f5887b5a" y="309.624194"/>
     <use style="fill:#471365;fill-opacity:0.8;stroke:#471365;stroke-opacity:0.8;" x="242.359977" xlink:href="#ma5f5887b5a" y="219.435897"/>
     <use style="fill:#471365;fill-opacity:0.8;stroke:#471365;stroke-opacity:0.8;" x="268.326401" xlink:href="#ma5f5887b5a" y="304.760158"/>
     <use style="fill:#471365;fill-opacity:0.8;stroke:#471365;stroke-opacity:0.8;" x="268.118766" xlink:href="#ma5f5887b5a" y="302.915973"/>
     <use style="fill:#471365;fill-opacity:0.8;stroke:#471365;stroke-opacity:0.8;" x="143.619456" xlink:href="#ma5f5887b5a" y="296.376803"/>
     <use style="fill:#471365;fill-opacity:0.8;stroke:#471365;stroke-opacity:0.8;" x="265.324606" xlink:href="#ma5f5887b5a" y="150.724663"/>
     <use style="fill:#471365;fill-opacity:0.8;stroke:#471365;stroke-opacity:0.8;" x="214.336254" xlink:href="#ma5f5887b5a" y="232.560342"/>
     <use style="fill:#471365;fill-opacity:0.8;stroke:#471365;stroke-opacity:0.8;" x="279.497432" xlink:href="#ma5f5887b5a" y="307.203702"/>
     <use style="fill:#471365;fill-opacity:0.8;stroke:#471365;stroke-opacity:0.8;" x="254.625475" xlink:href="#ma5f5887b5a" y="121.840127"/>
     <use style="fill:#471365;fill-opacity:0.8;stroke:#471365;stroke-opacity:0.8;" x="241.242682" xlink:href="#ma5f5887b5a" y="219.612631"/>
     <use style="fill:#471365;fill-opacity:0.8;stroke:#471365;stroke-opacity:0.8;" x="269.082615" xlink:href="#ma5f5887b5a" y="295.108927"/>
     <use style="fill:#471365;fill-opacity:0.8;stroke:#471365;stroke-opacity:0.8;" x="282.739451" xlink:href="#ma5f5887b5a" y="259.001335"/>
     <use style="fill:#471365;fill-opacity:0.8;stroke:#471365;stroke-opacity:0.8;" x="233.576188" xlink:href="#ma5f5887b5a" y="200.25638"/>
     <use style="fill:#471365;fill-opacity:0.8;stroke:#471365;stroke-opacity:0.8;" x="204.716056" xlink:href="#ma5f5887b5a" y="239.061092"/>
     <use style="fill:#471365;fill-opacity:0.8;stroke:#471365;stroke-opacity:0.8;" x="220.770639" xlink:href="#ma5f5887b5a" y="191.75008"/>
     <use style="fill:#471365;fill-opacity:0.8;stroke:#471365;stroke-opacity:0.8;" x="225.656859" xlink:href="#ma5f5887b5a" y="314.180866"/>
     <use style="fill:#471365;fill-opacity:0.8;stroke:#471365;stroke-opacity:0.8;" x="284.740124" xlink:href="#ma5f5887b5a" y="266.116812"/>
     <use style="fill:#471365;fill-opacity:0.8;stroke:#471365;stroke-opacity:0.8;" x="259.628591" xlink:href="#ma5f5887b5a" y="292.918958"/>
     <use style="fill:#471365;fill-opacity:0.8;stroke:#471365;stroke-opacity:0.8;" x="260.644145" xlink:href="#ma5f5887b5a" y="295.009033"/>
     <use style="fill:#471365;fill-opacity:0.8;stroke:#471365;stroke-opacity:0.8;" x="261.892475" xlink:href="#ma5f5887b5a" y="288.761859"/>
     <use style="fill:#471365;fill-opacity:0.8;stroke:#471365;stroke-opacity:0.8;" x="216.11637" xlink:href="#ma5f5887b5a" y="280.824182"/>
     <use style="fill:#471365;fill-opacity:0.8;stroke:#471365;stroke-opacity:0.8;" x="218.095594" xlink:href="#ma5f5887b5a" y="265.817132"/>
     <use style="fill:#471365;fill-opacity:0.8;stroke:#471365;stroke-opacity:0.8;" x="236.200455" xlink:href="#ma5f5887b5a" y="276.451929"/>
     <use style="fill:#471365;fill-opacity:0.8;stroke:#471365;stroke-opacity:0.8;" x="285.858849" xlink:href="#ma5f5887b5a" y="303.177233"/>
     <use style="fill:#471365;fill-opacity:0.8;stroke:#471365;stroke-opacity:0.8;" x="261.787546" xlink:href="#ma5f5887b5a" y="142.602568"/>
     <use style="fill:#471365;fill-opacity:0.8;stroke:#471365;stroke-opacity:0.8;" x="280.266905" xlink:href="#ma5f5887b5a" y="159.154122"/>
     <use style="fill:#471365;fill-opacity:0.8;stroke:#471365;stroke-opacity:0.8;" x="286.428759" xlink:href="#ma5f5887b5a" y="284.597076"/>
     <use style="fill:#471365;fill-opacity:0.8;stroke:#471365;stroke-opacity:0.8;" x="197.882638" xlink:href="#ma5f5887b5a" y="152.215379"/>
     <use style="fill:#471365;fill-opacity:0.8;stroke:#471365;stroke-opacity:0.8;" x="228.284005" xlink:href="#ma5f5887b5a" y="234.41221"/>
     <use style="fill:#471365;fill-opacity:0.8;stroke:#471365;stroke-opacity:0.8;" x="271.018978" xlink:href="#ma5f5887b5a" y="308.671365"/>
     <use style="fill:#471365;fill-opacity:0.8;stroke:#471365;stroke-opacity:0.8;" x="284.036644" xlink:href="#ma5f5887b5a" y="217.276665"/>
     <use style="fill:#471365;fill-opacity:0.8;stroke:#471365;stroke-opacity:0.8;" x="258.304371" xlink:href="#ma5f5887b5a" y="209.538775"/>
     <use style="fill:#471365;fill-opacity:0.8;stroke:#471365;stroke-opacity:0.8;" x="275.246412" xlink:href="#ma5f5887b5a" y="270.089493"/>
     <use style="fill:#471365;fill-opacity:0.8;stroke:#471365;stroke-opacity:0.8;" x="281.330996" xlink:href="#ma5f5887b5a" y="331.070521"/>
     <use style="fill:#471365;fill-opacity:0.8;stroke:#471365;stroke-opacity:0.8;" x="247.845922" xlink:href="#ma5f5887b5a" y="226.620532"/>
     <use style="fill:#471365;fill-opacity:0.8;stroke:#471365;stroke-opacity:0.8;" x="228.671133" xlink:href="#ma5f5887b5a" y="272.340934"/>
     <use style="fill:#471365;fill-opacity:0.8;stroke:#471365;stroke-opacity:0.8;" x="267.752847" xlink:href="#ma5f5887b5a" y="318.799011"/>
     <use style="fill:#471365;fill-opacity:0.8;stroke:#471365;stroke-opacity:0.8;" x="275.680872" xlink:href="#ma5f5887b5a" y="319.275425"/>
     <use style="fill:#471365;fill-opacity:0.8;stroke:#471365;stroke-opacity:0.8;" x="277.641108" xlink:href="#ma5f5887b5a" y="231.392359"/>
     <use style="fill:#471365;fill-opacity:0.8;stroke:#471365;stroke-opacity:0.8;" x="273.95477" xlink:href="#ma5f5887b5a" y="297.47563"/>
     <use style="fill:#471365;fill-opacity:0.8;stroke:#471365;stroke-opacity:0.8;" x="193.263125" xlink:href="#ma5f5887b5a" y="126.81174"/>
     <use style="fill:#471365;fill-opacity:0.8;stroke:#471365;stroke-opacity:0.8;" x="260.858606" xlink:href="#ma5f5887b5a" y="195.023507"/>
     <use style="fill:#471365;fill-opacity:0.8;stroke:#471365;stroke-opacity:0.8;" x="243.330992" xlink:href="#ma5f5887b5a" y="236.095029"/>
     <use style="fill:#471365;fill-opacity:0.8;stroke:#471365;stroke-opacity:0.8;" x="164.330876" xlink:href="#ma5f5887b5a" y="293.664315"/>
    </g>
   </g>
   <g id="PolyCollection_1">
    <defs>
     <path d="M 63.579924 -226.912224 
L 63.579924 -139.151266 
L 66.353646 -139.740699 
L 69.127368 -140.331797 
L 71.90109 -140.92298 
L 74.674813 -141.513966 
L 77.448535 -142.101634 
L 80.222257 -142.76018 
L 82.995979 -143.435168 
L 85.769701 -144.110766 
L 88.543423 -144.78717 
L 91.317145 -145.463573 
L 94.090867 -146.139977 
L 96.864589 -146.81638 
L 99.638311 -147.492784 
L 102.412033 -148.169187 
L 105.185755 -148.845591 
L 107.959477 -149.521994 
L 110.733199 -150.198398 
L 113.506921 -150.875291 
L 116.280644 -151.493886 
L 119.054366 -152.01624 
L 121.828088 -152.538594 
L 124.60181 -153.118428 
L 127.375532 -153.804992 
L 130.149254 -154.43746 
L 132.922976 -155.014618 
L 135.696698 -155.591775 
L 138.47042 -156.168933 
L 141.244142 -156.793026 
L 144.017864 -157.502217 
L 146.791586 -158.11725 
L 149.565308 -158.920597 
L 152.33903 -159.550662 
L 155.112753 -160.062904 
L 157.886475 -160.650639 
L 160.660197 -161.293058 
L 163.433919 -161.931897 
L 166.207641 -162.498676 
L 168.981363 -162.882048 
L 171.755085 -163.382067 
L 174.528807 -164.178676 
L 177.302529 -164.71331 
L 180.076251 -165.215061 
L 182.849973 -165.806721 
L 185.623695 -166.439511 
L 188.397417 -167.114829 
L 191.171139 -167.772858 
L 193.944861 -168.431149 
L 196.718584 -169.019443 
L 199.492306 -169.6979 
L 202.266028 -169.948727 
L 205.03975 -170.342197 
L 207.813472 -170.648794 
L 210.587194 -171.016542 
L 213.360916 -171.233798 
L 216.134638 -171.763087 
L 218.90836 -172.100984 
L 221.682082 -172.669096 
L 224.455804 -173.04417 
L 227.229526 -173.290163 
L 230.003248 -173.523498 
L 232.77697 -173.924491 
L 235.550693 -174.217248 
L 238.324415 -174.396151 
L 241.098137 -174.645261 
L 243.871859 -174.65945 
L 246.645581 -174.707443 
L 249.419303 -174.828714 
L 252.193025 -174.949849 
L 254.966747 -175.016512 
L 257.740469 -175.050498 
L 260.514191 -174.839289 
L 263.287913 -174.736695 
L 266.061635 -174.528419 
L 268.835357 -174.213569 
L 271.609079 -173.687978 
L 274.382801 -173.48773 
L 277.156524 -172.903388 
L 279.930246 -172.724567 
L 282.703968 -172.695327 
L 285.47769 -172.360559 
L 288.251412 -171.863534 
L 291.025134 -171.642713 
L 293.798856 -171.432157 
L 296.572578 -171.228792 
L 299.3463 -171.025426 
L 302.120022 -170.162168 
L 304.893744 -169.3343 
L 307.667466 -168.794218 
L 310.441188 -167.919144 
L 313.21491 -167.052421 
L 315.988633 -166.532054 
L 318.762355 -166.167686 
L 321.536077 -165.803317 
L 324.309799 -165.099429 
L 327.083521 -164.340535 
L 329.857243 -163.84353 
L 332.630965 -163.194426 
L 335.404687 -162.549502 
L 338.178409 -162.03805 
L 338.178409 -208.311565 
L 338.178409 -208.311565 
L 335.404687 -207.742531 
L 332.630965 -207.061511 
L 329.857243 -206.499508 
L 327.083521 -205.74924 
L 324.309799 -204.998085 
L 321.536077 -204.302036 
L 318.762355 -203.86999 
L 315.988633 -203.256651 
L 313.21491 -202.737668 
L 310.441188 -202.166729 
L 307.667466 -201.606474 
L 304.893744 -201.109652 
L 302.120022 -200.61283 
L 299.3463 -200.116008 
L 296.572578 -199.619186 
L 293.798856 -199.123174 
L 291.025134 -198.780463 
L 288.251412 -198.231492 
L 285.47769 -197.635389 
L 282.703968 -197.048844 
L 279.930246 -196.529564 
L 277.156524 -196.102372 
L 274.382801 -195.31265 
L 271.609079 -194.775173 
L 268.835357 -194.360769 
L 266.061635 -194.053382 
L 263.287913 -193.514835 
L 260.514191 -193.170864 
L 257.740469 -192.867146 
L 254.966747 -192.68634 
L 252.193025 -192.477025 
L 249.419303 -192.456709 
L 246.645581 -192.522927 
L 243.871859 -192.585008 
L 241.098137 -192.642944 
L 238.324415 -192.469814 
L 235.550693 -192.839378 
L 232.77697 -192.925497 
L 230.003248 -193.653273 
L 227.229526 -193.92475 
L 224.455804 -194.350626 
L 221.682082 -194.519075 
L 218.90836 -195.025687 
L 216.134638 -195.195988 
L 213.360916 -195.344463 
L 210.587194 -195.515234 
L 207.813472 -196.249008 
L 205.03975 -196.813631 
L 202.266028 -197.088143 
L 199.492306 -197.79046 
L 196.718584 -198.636885 
L 193.944861 -199.266899 
L 191.171139 -199.848959 
L 188.397417 -200.23172 
L 185.623695 -200.614073 
L 182.849973 -201.510498 
L 180.076251 -202.151737 
L 177.302529 -202.663301 
L 174.528807 -203.174865 
L 171.755085 -203.681392 
L 168.981363 -204.24493 
L 166.207641 -204.693461 
L 163.433919 -205.205645 
L 160.660197 -205.878297 
L 157.886475 -206.685969 
L 155.112753 -207.493641 
L 152.33903 -208.159798 
L 149.565308 -208.816196 
L 146.791586 -209.472593 
L 144.017864 -210.124462 
L 141.244142 -210.776259 
L 138.47042 -211.428056 
L 135.696698 -212.079853 
L 132.922976 -212.731649 
L 130.149254 -213.383446 
L 127.375532 -214.035243 
L 124.60181 -214.686841 
L 121.828088 -215.336546 
L 119.054366 -215.986252 
L 116.280644 -216.57771 
L 113.506921 -217.12207 
L 110.733199 -217.666171 
L 107.959477 -218.209617 
L 105.185755 -218.752714 
L 102.412033 -219.287306 
L 99.638311 -219.797187 
L 96.864589 -220.307067 
L 94.090867 -220.816947 
L 91.317145 -221.326828 
L 88.543423 -221.836708 
L 85.769701 -222.346589 
L 82.995979 -222.856469 
L 80.222257 -223.366349 
L 77.448535 -223.994011 
L 74.674813 -224.633524 
L 71.90109 -225.273036 
L 69.127368 -225.824689 
L 66.353646 -226.368456 
L 63.579924 -226.912224 
z
" id="md5fb6aa288" style="stroke:#ffffff;stroke-opacity:0.15;stroke-width:0.8;"/>
    </defs>
    <g clip-path="url(#p378b198ada)">
     <use style="fill:#471365;fill-opacity:0.15;stroke:#ffffff;stroke-opacity:0.15;stroke-width:0.8;" x="0" xlink:href="#md5fb6aa288" y="432"/>
    </g>
   </g>
   <g id="line2d_12">
    <path clip-path="url(#p378b198ada)" d="M 63.579924 254.346711 
L 66.353646 254.257366 
L 69.127368 254.168022 
L 71.90109 254.078677 
L 74.674813 253.989333 
L 77.448535 253.899988 
L 80.222257 253.810644 
L 82.995979 253.721299 
L 85.769701 253.631955 
L 88.543423 253.54261 
L 91.317145 253.453266 
L 94.090867 253.363921 
L 96.864589 253.274577 
L 99.638311 253.185232 
L 102.412033 253.095888 
L 105.185755 253.006543 
L 107.959477 252.917199 
L 110.733199 252.827854 
L 113.506921 252.73851 
L 116.280644 252.649165 
L 119.054366 252.559821 
L 121.828088 252.470476 
L 124.60181 252.381132 
L 127.375532 252.291787 
L 130.149254 252.202443 
L 132.922976 252.113098 
L 135.696698 252.023754 
L 138.47042 251.934409 
L 141.244142 251.845065 
L 144.017864 251.75572 
L 146.791586 251.666376 
L 149.565308 251.577031 
L 152.33903 251.487687 
L 155.112753 251.398342 
L 157.886475 251.308998 
L 160.660197 251.219653 
L 163.433919 251.130309 
L 166.207641 251.040964 
L 168.981363 250.95162 
L 171.755085 250.862275 
L 174.528807 250.772931 
L 177.302529 250.683586 
L 180.076251 250.594242 
L 182.849973 250.504897 
L 185.623695 250.415553 
L 188.397417 250.326208 
L 191.171139 250.236864 
L 193.944861 250.147519 
L 196.718584 250.058175 
L 199.492306 249.96883 
L 202.266028 249.879486 
L 205.03975 249.790141 
L 207.813472 249.700797 
L 210.587194 249.611452 
L 213.360916 249.522108 
L 216.134638 249.432763 
L 218.90836 249.343419 
L 221.682082 249.254074 
L 224.455804 249.16473 
L 227.229526 249.075385 
L 230.003248 248.986041 
L 232.77697 248.896696 
L 235.550693 248.807352 
L 238.324415 248.718007 
L 241.098137 248.628663 
L 243.871859 248.539318 
L 246.645581 248.449974 
L 249.419303 248.360629 
L 252.193025 248.271285 
L 254.966747 248.18194 
L 257.740469 248.092596 
L 260.514191 248.003251 
L 263.287913 247.913907 
L 266.061635 247.824562 
L 268.835357 247.735218 
L 271.609079 247.645873 
L 274.382801 247.556529 
L 277.156524 247.467184 
L 279.930246 247.37784 
L 282.703968 247.288495 
L 285.47769 247.199151 
L 288.251412 247.109806 
L 291.025134 247.020462 
L 293.798856 246.931117 
L 296.572578 246.841773 
L 299.3463 246.752428 
L 302.120022 246.663084 
L 304.893744 246.573739 
L 307.667466 246.484395 
L 310.441188 246.39505 
L 313.21491 246.305706 
L 315.988633 246.216361 
L 318.762355 246.127017 
L 321.536077 246.037672 
L 324.309799 245.948328 
L 327.083521 245.858983 
L 329.857243 245.769639 
L 332.630965 245.680294 
L 335.404687 245.59095 
L 338.178409 245.501605 
" style="fill:none;stroke:#471365;stroke-linecap:round;stroke-width:1.8;"/>
   </g>
   <g id="patch_3">
    <path d="M 49.85 389.9 
L 49.85 81.383333 
" style="fill:none;stroke:#262626;stroke-linecap:square;stroke-linejoin:miter;"/>
   </g>
   <g id="patch_4">
    <path d="M 49.85 389.9 
L 351.908333 389.9 
" style="fill:none;stroke:#262626;stroke-linecap:square;stroke-linejoin:miter;"/>
   </g>
   <g id="legend_1">
    <g id="patch_5">
     <path d="M 196.343583 101.340083 
L 345.748333 101.340083 
Q 347.508333 101.340083 347.508333 99.580083 
L 347.508333 87.543333 
Q 347.508333 85.783333 345.748333 85.783333 
L 196.343583 85.783333 
Q 194.583583 85.783333 194.583583 87.543333 
L 194.583583 99.580083 
Q 194.583583 101.340083 196.343583 101.340083 
z
" style="fill:#ffffff;opacity:0.8;stroke:#cccccc;stroke-linejoin:miter;stroke-width:0.8;"/>
    </g>
    <g id="line2d_13"/>
    <g id="line2d_14"/>
    <g id="text_14">
     <!-- pearsonr = 0.021; p = 0.79 -->
     <defs>
      <path d="M 18.109375 8.203125 
L 18.109375 -20.796875 
L 9.078125 -20.796875 
L 9.078125 54.6875 
L 18.109375 54.6875 
L 18.109375 46.390625 
Q 20.953125 51.265625 25.265625 53.625 
Q 29.59375 56 35.59375 56 
Q 45.5625 56 51.78125 48.09375 
Q 58.015625 40.1875 58.015625 27.296875 
Q 58.015625 14.40625 51.78125 6.484375 
Q 45.5625 -1.421875 35.59375 -1.421875 
Q 29.59375 -1.421875 25.265625 0.953125 
Q 20.953125 3.328125 18.109375 8.203125 
z
M 48.6875 27.296875 
Q 48.6875 37.203125 44.609375 42.84375 
Q 40.53125 48.484375 33.40625 48.484375 
Q 26.265625 48.484375 22.1875 42.84375 
Q 18.109375 37.203125 18.109375 27.296875 
Q 18.109375 17.390625 22.1875 11.75 
Q 26.265625 6.109375 33.40625 6.109375 
Q 40.53125 6.109375 44.609375 11.75 
Q 48.6875 17.390625 48.6875 27.296875 
z
" id="DejaVuSans-70"/>
      <path d="M 44.28125 53.078125 
L 44.28125 44.578125 
Q 40.484375 46.53125 36.375 47.5 
Q 32.28125 48.484375 27.875 48.484375 
Q 21.1875 48.484375 17.84375 46.4375 
Q 14.5 44.390625 14.5 40.28125 
Q 14.5 37.15625 16.890625 35.375 
Q 19.28125 33.59375 26.515625 31.984375 
L 29.59375 31.296875 
Q 39.15625 29.25 43.1875 25.515625 
Q 47.21875 21.78125 47.21875 15.09375 
Q 47.21875 7.46875 41.1875 3.015625 
Q 35.15625 -1.421875 24.609375 -1.421875 
Q 20.21875 -1.421875 15.453125 -0.5625 
Q 10.6875 0.296875 5.421875 2 
L 5.421875 11.28125 
Q 10.40625 8.6875 15.234375 7.390625 
Q 20.0625 6.109375 24.8125 6.109375 
Q 31.15625 6.109375 34.5625 8.28125 
Q 37.984375 10.453125 37.984375 14.40625 
Q 37.984375 18.0625 35.515625 20.015625 
Q 33.0625 21.96875 24.703125 23.78125 
L 21.578125 24.515625 
Q 13.234375 26.265625 9.515625 29.90625 
Q 5.8125 33.546875 5.8125 39.890625 
Q 5.8125 47.609375 11.28125 51.796875 
Q 16.75 56 26.8125 56 
Q 31.78125 56 36.171875 55.265625 
Q 40.578125 54.546875 44.28125 53.078125 
z
" id="DejaVuSans-73"/>
      <path d="M 10.59375 45.40625 
L 73.1875 45.40625 
L 73.1875 37.203125 
L 10.59375 37.203125 
z
M 10.59375 25.484375 
L 73.1875 25.484375 
L 73.1875 17.1875 
L 10.59375 17.1875 
z
" id="DejaVuSans-3d"/>
      <path d="M 11.71875 51.703125 
L 22.015625 51.703125 
L 22.015625 39.3125 
L 11.71875 39.3125 
z
M 11.71875 12.40625 
L 22.015625 12.40625 
L 22.015625 4 
L 14.015625 -11.625 
L 7.71875 -11.625 
L 11.71875 4 
z
" id="DejaVuSans-3b"/>
      <path d="M 8.203125 72.90625 
L 55.078125 72.90625 
L 55.078125 68.703125 
L 28.609375 0 
L 18.3125 0 
L 43.21875 64.59375 
L 8.203125 64.59375 
z
" id="DejaVuSans-37"/>
     </defs>
     <g style="fill:#262626;" transform="translate(222.743583 95.989958)scale(0.088 -0.088)">
      <use xlink:href="#DejaVuSans-70"/>
      <use x="63.476562" xlink:href="#DejaVuSans-65"/>
      <use x="125" xlink:href="#DejaVuSans-61"/>
      <use x="186.279297" xlink:href="#DejaVuSans-72"/>
      <use x="227.392578" xlink:href="#DejaVuSans-73"/>
      <use x="279.492188" xlink:href="#DejaVuSans-6f"/>
      <use x="340.673828" xlink:href="#DejaVuSans-6e"/>
      <use x="404.052734" xlink:href="#DejaVuSans-72"/>
      <use x="445.166016" xlink:href="#DejaVuSans-20"/>
      <use x="476.953125" xlink:href="#DejaVuSans-3d"/>
      <use x="560.742188" xlink:href="#DejaVuSans-20"/>
      <use x="592.529297" xlink:href="#DejaVuSans-30"/>
      <use x="656.152344" xlink:href="#DejaVuSans-2e"/>
      <use x="687.939453" xlink:href="#DejaVuSans-30"/>
      <use x="751.5625" xlink:href="#DejaVuSans-32"/>
      <use x="815.185547" xlink:href="#DejaVuSans-31"/>
      <use x="878.808594" xlink:href="#DejaVuSans-3b"/>
      <use x="912.5" xlink:href="#DejaVuSans-20"/>
      <use x="944.287109" xlink:href="#DejaVuSans-70"/>
      <use x="1007.763672" xlink:href="#DejaVuSans-20"/>
      <use x="1039.550781" xlink:href="#DejaVuSans-3d"/>
      <use x="1123.339844" xlink:href="#DejaVuSans-20"/>
      <use x="1155.126953" xlink:href="#DejaVuSans-30"/>
      <use x="1218.75" xlink:href="#DejaVuSans-2e"/>
      <use x="1250.537109" xlink:href="#DejaVuSans-37"/>
      <use x="1314.160156" xlink:href="#DejaVuSans-39"/>
     </g>
    </g>
   </g>
  </g>
  <g id="axes_2">
   <g id="patch_6">
    <path d="M 49.85 60.983333 
L 351.908333 60.983333 
L 351.908333 15.6 
L 49.85 15.6 
z
" style="fill:#ffffff;"/>
   </g>
   <g id="matplotlib.axis_3">
    <g id="xtick_6">
     <g id="line2d_15">
      <g>
       <use style="fill:#262626;stroke:#262626;" x="95.648445" xlink:href="#m032e121e28" y="60.983333"/>
      </g>
     </g>
    </g>
    <g id="xtick_7">
     <g id="line2d_16">
      <g>
       <use style="fill:#262626;stroke:#262626;" x="147.059982" xlink:href="#m032e121e28" y="60.983333"/>
      </g>
     </g>
    </g>
    <g id="xtick_8">
     <g id="line2d_17">
      <g>
       <use style="fill:#262626;stroke:#262626;" x="198.47152" xlink:href="#m032e121e28" y="60.983333"/>
      </g>
     </g>
    </g>
    <g id="xtick_9">
     <g id="line2d_18">
      <g>
       <use style="fill:#262626;stroke:#262626;" x="249.883057" xlink:href="#m032e121e28" y="60.983333"/>
      </g>
     </g>
    </g>
    <g id="xtick_10">
     <g id="line2d_19">
      <g>
       <use style="fill:#262626;stroke:#262626;" x="301.294595" xlink:href="#m032e121e28" y="60.983333"/>
      </g>
     </g>
    </g>
   </g>
   <g id="matplotlib.axis_4">
    <g id="ytick_7"/>
    <g id="ytick_8"/>
   </g>
   <g id="patch_7">
    <path clip-path="url(#p9fa79745c1)" d="M 115.329575 60.983333 
L 130.884046 60.983333 
L 130.884046 60.101247 
L 115.329575 60.101247 
z
" style="fill:#471365;opacity:0.4;stroke:#ffffff;stroke-linejoin:miter;stroke-width:0.8;"/>
   </g>
   <g id="patch_8">
    <path clip-path="url(#p9fa79745c1)" d="M 130.884046 60.983333 
L 146.438517 60.983333 
L 146.438517 59.219161 
L 130.884046 59.219161 
z
" style="fill:#471365;opacity:0.4;stroke:#ffffff;stroke-linejoin:miter;stroke-width:0.8;"/>
   </g>
   <g id="patch_9">
    <path clip-path="url(#p9fa79745c1)" d="M 146.438517 60.983333 
L 161.992989 60.983333 
L 161.992989 54.80873 
L 146.438517 54.80873 
z
" style="fill:#471365;opacity:0.4;stroke:#ffffff;stroke-linejoin:miter;stroke-width:0.8;"/>
   </g>
   <g id="patch_10">
    <path clip-path="url(#p9fa79745c1)" d="M 161.992989 60.983333 
L 177.54746 60.983333 
L 177.54746 59.219161 
L 161.992989 59.219161 
z
" style="fill:#471365;opacity:0.4;stroke:#ffffff;stroke-linejoin:miter;stroke-width:0.8;"/>
   </g>
   <g id="patch_11">
    <path clip-path="url(#p9fa79745c1)" d="M 177.54746 60.983333 
L 193.101931 60.983333 
L 193.101931 59.219161 
L 177.54746 59.219161 
z
" style="fill:#471365;opacity:0.4;stroke:#ffffff;stroke-linejoin:miter;stroke-width:0.8;"/>
   </g>
   <g id="patch_12">
    <path clip-path="url(#p9fa79745c1)" d="M 193.101931 60.983333 
L 208.656402 60.983333 
L 208.656402 57.454989 
L 193.101931 57.454989 
z
" style="fill:#471365;opacity:0.4;stroke:#ffffff;stroke-linejoin:miter;stroke-width:0.8;"/>
   </g>
   <g id="patch_13">
    <path clip-path="url(#p9fa79745c1)" d="M 208.656402 60.983333 
L 224.210874 60.983333 
L 224.210874 44.223696 
L 208.656402 44.223696 
z
" style="fill:#471365;opacity:0.4;stroke:#ffffff;stroke-linejoin:miter;stroke-width:0.8;"/>
   </g>
   <g id="patch_14">
    <path clip-path="url(#p9fa79745c1)" d="M 224.210874 60.983333 
L 239.765345 60.983333 
L 239.765345 45.987868 
L 224.210874 45.987868 
z
" style="fill:#471365;opacity:0.4;stroke:#ffffff;stroke-linejoin:miter;stroke-width:0.8;"/>
   </g>
   <g id="patch_15">
    <path clip-path="url(#p9fa79745c1)" d="M 239.765345 60.983333 
L 255.319816 60.983333 
L 255.319816 40.695351 
L 239.765345 40.695351 
z
" style="fill:#471365;opacity:0.4;stroke:#ffffff;stroke-linejoin:miter;stroke-width:0.8;"/>
   </g>
   <g id="patch_16">
    <path clip-path="url(#p9fa79745c1)" d="M 255.319816 60.983333 
L 270.874287 60.983333 
L 270.874287 30.110317 
L 255.319816 30.110317 
z
" style="fill:#471365;opacity:0.4;stroke:#ffffff;stroke-linejoin:miter;stroke-width:0.8;"/>
   </g>
   <g id="patch_17">
    <path clip-path="url(#p9fa79745c1)" d="M 270.874287 60.983333 
L 286.428759 60.983333 
L 286.428759 17.761111 
L 270.874287 17.761111 
z
" style="fill:#471365;opacity:0.4;stroke:#ffffff;stroke-linejoin:miter;stroke-width:0.8;"/>
   </g>
   <g id="line2d_20">
    <path clip-path="url(#p9fa79745c1)" d="M 76.061674 60.978569 
L 78.583239 60.975025 
L 81.104805 60.969368 
L 83.62637 60.960706 
L 86.147936 60.947988 
L 88.669501 60.9301 
L 91.191067 60.906016 
L 93.712632 60.874999 
L 96.234198 60.836821 
L 98.755763 60.791934 
L 101.277329 60.741514 
L 103.798894 60.687312 
L 106.32046 60.631264 
L 108.842025 60.574883 
L 111.363591 60.518507 
L 113.885156 60.460584 
L 116.406722 60.397178 
L 118.928287 60.321913 
L 121.449853 60.226471 
L 123.971418 60.101693 
L 126.492984 59.939136 
L 129.014549 59.732864 
L 131.536115 59.481112 
L 134.05768 59.187464 
L 136.579246 58.861279 
L 139.100811 58.517189 
L 141.622377 58.173722 
L 144.143943 57.851254 
L 146.665508 57.56962 
L 149.187074 57.345787 
L 151.708639 57.191908 
L 154.230205 57.114043 
L 156.75177 57.111638 
L 159.273336 57.177774 
L 161.794901 57.300083 
L 164.316467 57.462139 
L 166.838032 57.645115 
L 169.359598 57.829464 
L 171.881163 57.996379 
L 174.402729 58.128843 
L 176.924294 58.212144 
L 179.44586 58.233839 
L 181.967425 58.183297 
L 184.488991 58.051046 
L 187.010556 57.828205 
L 189.532122 57.506301 
L 192.053687 57.077653 
L 194.575253 56.536383 
L 197.096818 55.879919 
L 199.618384 55.1107 
L 202.139949 54.237673 
L 204.661515 53.277127 
L 207.18308 52.252471 
L 209.704646 51.192755 
L 212.226211 50.12995 
L 214.747777 49.095309 
L 217.269343 48.11537 
L 219.790908 47.208315 
L 222.312474 46.381372 
L 224.834039 45.629811 
L 227.355605 44.937738 
L 229.87717 44.280556 
L 232.398736 43.628631 
L 234.920301 42.95147 
L 237.441867 42.221707 
L 239.963432 41.418291 
L 242.484998 40.528557 
L 245.006563 39.549142 
L 247.528129 38.486036 
L 250.049694 37.354214 
L 252.57126 36.177346 
L 255.092825 34.987954 
L 257.614391 33.828054 
L 260.135956 32.749934 
L 262.657522 31.816348 
L 265.179087 31.09915 
L 267.700653 30.675532 
L 270.222218 30.621427 
L 272.743784 31.002448 
L 275.265349 31.86357 
L 277.786915 33.219503 
L 280.30848 35.047983 
L 282.830046 37.287862 
L 285.351612 39.843031 
L 287.873177 42.591889 
L 290.394743 45.400851 
L 292.916308 48.139439 
L 295.437874 50.694208 
L 297.959439 52.979167 
L 300.481005 54.941213 
L 303.00257 56.560334 
L 305.524136 57.845348 
L 308.045701 58.826721 
L 310.567267 59.548219 
L 313.088832 60.059017 
L 315.610398 60.407337 
L 318.131963 60.63616 
L 320.653529 60.780997 
L 323.175094 60.869337 
L 325.69666 60.921261 
" style="fill:none;stroke:#471365;stroke-linecap:round;stroke-width:1.2;"/>
   </g>
   <g id="patch_18">
    <path d="M 49.85 60.983333 
L 351.908333 60.983333 
" style="fill:none;stroke:#262626;stroke-linecap:square;stroke-linejoin:miter;"/>
   </g>
  </g>
  <g id="axes_3">
   <g id="patch_19">
    <path d="M 372.308333 389.9 
L 416.4 389.9 
L 416.4 81.383333 
L 372.308333 81.383333 
z
" style="fill:#ffffff;"/>
   </g>
   <g id="matplotlib.axis_5">
    <g id="xtick_11"/>
    <g id="xtick_12"/>
   </g>
   <g id="matplotlib.axis_6">
    <g id="ytick_9">
     <g id="line2d_21">
      <g>
       <use style="fill:#262626;stroke:#262626;" x="372.308333" xlink:href="#mc5fca387bd" y="389.9"/>
      </g>
     </g>
    </g>
    <g id="ytick_10">
     <g id="line2d_22">
      <g>
       <use style="fill:#262626;stroke:#262626;" x="372.308333" xlink:href="#mc5fca387bd" y="333.806061"/>
      </g>
     </g>
    </g>
    <g id="ytick_11">
     <g id="line2d_23">
      <g>
       <use style="fill:#262626;stroke:#262626;" x="372.308333" xlink:href="#mc5fca387bd" y="277.712121"/>
      </g>
     </g>
    </g>
    <g id="ytick_12">
     <g id="line2d_24">
      <g>
       <use style="fill:#262626;stroke:#262626;" x="372.308333" xlink:href="#mc5fca387bd" y="221.618182"/>
      </g>
     </g>
    </g>
    <g id="ytick_13">
     <g id="line2d_25">
      <g>
       <use style="fill:#262626;stroke:#262626;" x="372.308333" xlink:href="#mc5fca387bd" y="165.524242"/>
      </g>
     </g>
    </g>
    <g id="ytick_14">
     <g id="line2d_26">
      <g>
       <use style="fill:#262626;stroke:#262626;" x="372.308333" xlink:href="#mc5fca387bd" y="109.430303"/>
      </g>
     </g>
    </g>
   </g>
   <g id="patch_20">
    <path clip-path="url(#pf815a11872)" d="M 372.308333 345.808627 
L 381.306633 345.808627 
L 381.306633 316.293994 
L 372.308333 316.293994 
z
" style="fill:#471365;opacity:0.4;stroke:#ffffff;stroke-linejoin:miter;stroke-width:0.8;"/>
   </g>
   <g id="patch_21">
    <path clip-path="url(#pf815a11872)" d="M 372.308333 316.293994 
L 414.300397 316.293994 
L 414.300397 286.779361 
L 372.308333 286.779361 
z
" style="fill:#471365;opacity:0.4;stroke:#ffffff;stroke-linejoin:miter;stroke-width:0.8;"/>
   </g>
   <g id="patch_22">
    <path clip-path="url(#pf815a11872)" d="M 372.308333 286.779361 
L 405.302098 286.779361 
L 405.302098 257.264728 
L 372.308333 257.264728 
z
" style="fill:#471365;opacity:0.4;stroke:#ffffff;stroke-linejoin:miter;stroke-width:0.8;"/>
   </g>
   <g id="patch_23">
    <path clip-path="url(#pf815a11872)" d="M 372.308333 257.264728 
L 395.303987 257.264728 
L 395.303987 227.750095 
L 372.308333 227.750095 
z
" style="fill:#471365;opacity:0.4;stroke:#ffffff;stroke-linejoin:miter;stroke-width:0.8;"/>
   </g>
   <g id="patch_24">
    <path clip-path="url(#pf815a11872)" d="M 372.308333 227.750095 
L 397.303609 227.750095 
L 397.303609 198.235462 
L 372.308333 198.235462 
z
" style="fill:#471365;opacity:0.4;stroke:#ffffff;stroke-linejoin:miter;stroke-width:0.8;"/>
   </g>
   <g id="patch_25">
    <path clip-path="url(#pf815a11872)" d="M 372.308333 198.235462 
L 383.306255 198.235462 
L 383.306255 168.720829 
L 372.308333 168.720829 
z
" style="fill:#471365;opacity:0.4;stroke:#ffffff;stroke-linejoin:miter;stroke-width:0.8;"/>
   </g>
   <g id="patch_26">
    <path clip-path="url(#pf815a11872)" d="M 372.308333 168.720829 
L 382.306444 168.720829 
L 382.306444 139.206196 
L 372.308333 139.206196 
z
" style="fill:#471365;opacity:0.4;stroke:#ffffff;stroke-linejoin:miter;stroke-width:0.8;"/>
   </g>
   <g id="patch_27">
    <path clip-path="url(#pf815a11872)" d="M 372.308333 139.206196 
L 380.306822 139.206196 
L 380.306822 109.691562 
L 372.308333 109.691562 
z
" style="fill:#471365;opacity:0.4;stroke:#ffffff;stroke-linejoin:miter;stroke-width:0.8;"/>
   </g>
   <g id="line2d_27">
    <path clip-path="url(#pf815a11872)" d="M 372.320578 406.535212 
L 372.329468 402.923392 
L 372.343814 399.311571 
L 372.366314 395.699751 
L 372.400642 392.08793 
L 372.451658 388.476109 
L 372.525617 384.864289 
L 372.630388 381.252468 
L 372.775694 377.640648 
L 372.973388 374.028827 
L 373.237758 370.417007 
L 373.585859 366.805186 
L 374.037778 363.193366 
L 374.61669 359.581545 
L 375.348507 355.969724 
L 376.260864 352.357904 
L 377.381232 348.746083 
L 378.734049 345.134263 
L 380.336985 341.522442 
L 382.196684 337.910622 
L 384.304629 334.298801 
L 386.633939 330.686981 
L 389.137937 327.07516 
L 391.751163 323.463339 
L 394.393116 319.851519 
L 396.974476 316.239698 
L 399.405035 312.627878 
L 401.602123 309.016057 
L 403.498134 305.404237 
L 405.045891 301.792416 
L 406.221033 298.180596 
L 407.021223 294.568775 
L 407.462664 290.956954 
L 407.574926 287.345134 
L 407.395355 283.733313 
L 406.964238 280.121493 
L 406.321528 276.509672 
L 405.505406 272.897852 
L 404.552393 269.286031 
L 403.498375 265.67421 
L 402.379736 262.06239 
L 401.233916 258.450569 
L 400.098972 254.838749 
L 399.01209 251.226928 
L 398.007245 247.615108 
L 397.112432 244.003287 
L 396.346932 240.391467 
L 395.719027 236.779646 
L 395.224539 233.167825 
L 394.846439 229.556005 
L 394.555742 225.944184 
L 394.313754 222.332364 
L 394.075658 218.720543 
L 393.795191 215.108723 
L 393.429972 211.496902 
L 392.946798 207.885082 
L 392.326115 204.273261 
L 391.564887 200.66144 
L 390.677245 197.04962 
L 389.692699 193.437799 
L 388.652076 189.825979 
L 387.601828 186.214158 
L 386.587639 182.602338 
L 385.648416 178.990517 
L 384.811674 175.378697 
L 384.091017 171.766876 
L 383.486008 168.155055 
L 382.984244 164.543235 
L 382.565021 160.931414 
L 382.203727 157.319594 
L 381.876017 153.707773 
L 381.560989 150.095953 
L 381.2429 146.484132 
L 380.911376 142.872312 
L 380.560428 139.260491 
L 380.186866 135.64867 
L 379.788738 132.03685 
L 379.364327 128.425029 
L 378.91196 124.813209 
L 378.430575 121.201388 
L 377.920765 117.589568 
L 377.385845 113.977747 
L 376.832532 110.365927 
L 376.270959 106.754106 
L 375.71394 103.142285 
L 375.17564 99.530465 
L 374.669936 95.918644 
L 374.208809 92.306824 
L 373.801092 88.695003 
L 373.451756 85.083183 
L 373.16181 81.471362 
L 372.928733 77.859542 
L 372.747283 74.247721 
L 372.610484 70.6359 
L 372.5106 67.02408 
L 372.439967 63.412259 
L 372.391591 59.800439 
L 372.359498 56.188618 
L 372.338876 52.576798 
L 372.32604 48.964977 
" style="fill:none;stroke:#471365;stroke-linecap:round;stroke-width:1.2;"/>
   </g>
   <g id="patch_28">
    <path d="M 372.308333 389.9 
L 372.308333 81.383333 
" style="fill:none;stroke:#262626;stroke-linecap:square;stroke-linejoin:miter;"/>
   </g>
  </g>
 </g>
 <defs>
  <clipPath id="p378b198ada">
   <rect height="308.516667" width="302.058333" x="49.85" y="81.383333"/>
  </clipPath>
  <clipPath id="p9fa79745c1">
   <rect height="45.383333" width="302.058333" x="49.85" y="15.6"/>
  </clipPath>
  <clipPath id="pf815a11872">
   <rect height="308.516667" width="44.091667" x="372.308333" y="81.383333"/>
  </clipPath>
 </defs>
</svg>
