<?xml version="1.0" encoding="utf-8" standalone="no"?>
<!DOCTYPE svg PUBLIC "-//W3C//DTD SVG 1.1//EN"
  "http://www.w3.org/Graphics/SVG/1.1/DTD/svg11.dtd">
<!-- Created with matplotlib (http://matplotlib.org/) -->
<svg height="576pt" version="1.1" viewBox="0 0 720 576" width="720pt" xmlns="http://www.w3.org/2000/svg" xmlns:xlink="http://www.w3.org/1999/xlink">
 <defs>
  <style type="text/css">
*{stroke-linecap:butt;stroke-linejoin:round;}
  </style>
 </defs>
 <g id="figure_1">
  <g id="patch_1">
   <path d="M 0 576 
L 720 576 
L 720 0 
L 0 0 
z
" style="fill:#ffffff;"/>
  </g>
  <g id="axes_1">
   <g id="patch_2">
    <path d="M 39.835 262.906327 
L 333.52 262.906327 
L 333.52 28.96 
L 39.835 28.96 
z
" style="fill:#eaeaf2;"/>
   </g>
   <g id="matplotlib.axis_1">
    <g id="xtick_1">
     <g id="line2d_1">
      <path clip-path="url(#p50b280506b)" d="M 53.184318 262.906327 
L 53.184318 28.96 
" style="fill:none;stroke:#ffffff;stroke-linecap:round;"/>
     </g>
    </g>
    <g id="xtick_2">
     <g id="line2d_2">
      <path clip-path="url(#p50b280506b)" d="M 126.333271 262.906327 
L 126.333271 28.96 
" style="fill:none;stroke:#ffffff;stroke-linecap:round;"/>
     </g>
    </g>
    <g id="xtick_3">
     <g id="line2d_3">
      <path clip-path="url(#p50b280506b)" d="M 199.482224 262.906327 
L 199.482224 28.96 
" style="fill:none;stroke:#ffffff;stroke-linecap:round;"/>
     </g>
    </g>
    <g id="xtick_4">
     <g id="line2d_4">
      <path clip-path="url(#p50b280506b)" d="M 272.631177 262.906327 
L 272.631177 28.96 
" style="fill:none;stroke:#ffffff;stroke-linecap:round;"/>
     </g>
    </g>
   </g>
   <g id="matplotlib.axis_2">
    <g id="ytick_1">
     <g id="line2d_5">
      <path clip-path="url(#p50b280506b)" d="M 39.835 252.272403 
L 333.52 252.272403 
" style="fill:none;stroke:#ffffff;stroke-linecap:round;"/>
     </g>
     <g id="text_1">
      <!-- 0.0 -->
      <defs>
       <path d="M 31.78125 66.40625 
Q 24.171875 66.40625 20.328125 58.90625 
Q 16.5 51.421875 16.5 36.375 
Q 16.5 21.390625 20.328125 13.890625 
Q 24.171875 6.390625 31.78125 6.390625 
Q 39.453125 6.390625 43.28125 13.890625 
Q 47.125 21.390625 47.125 36.375 
Q 47.125 51.421875 43.28125 58.90625 
Q 39.453125 66.40625 31.78125 66.40625 
z
M 31.78125 74.21875 
Q 44.046875 74.21875 50.515625 64.515625 
Q 56.984375 54.828125 56.984375 36.375 
Q 56.984375 17.96875 50.515625 8.265625 
Q 44.046875 -1.421875 31.78125 -1.421875 
Q 19.53125 -1.421875 13.0625 8.265625 
Q 6.59375 17.96875 6.59375 36.375 
Q 6.59375 54.828125 13.0625 64.515625 
Q 19.53125 74.21875 31.78125 74.21875 
z
" id="DejaVuSans-30"/>
       <path d="M 10.6875 12.40625 
L 21 12.40625 
L 21 0 
L 10.6875 0 
z
" id="DejaVuSans-2e"/>
      </defs>
      <g style="fill:#262626;" transform="translate(12.841562 256.451544)scale(0.11 -0.11)">
       <use xlink:href="#DejaVuSans-30"/>
       <use x="63.623047" xlink:href="#DejaVuSans-2e"/>
       <use x="95.410156" xlink:href="#DejaVuSans-30"/>
      </g>
     </g>
    </g>
    <g id="ytick_2">
     <g id="line2d_6">
      <path clip-path="url(#p50b280506b)" d="M 39.835 209.736703 
L 333.52 209.736703 
" style="fill:none;stroke:#ffffff;stroke-linecap:round;"/>
     </g>
     <g id="text_2">
      <!-- 0.2 -->
      <defs>
       <path d="M 19.1875 8.296875 
L 53.609375 8.296875 
L 53.609375 0 
L 7.328125 0 
L 7.328125 8.296875 
Q 12.9375 14.109375 22.625 23.890625 
Q 32.328125 33.6875 34.8125 36.53125 
Q 39.546875 41.84375 41.421875 45.53125 
Q 43.3125 49.21875 43.3125 52.78125 
Q 43.3125 58.59375 39.234375 62.25 
Q 35.15625 65.921875 28.609375 65.921875 
Q 23.96875 65.921875 18.8125 64.3125 
Q 13.671875 62.703125 7.8125 59.421875 
L 7.8125 69.390625 
Q 13.765625 71.78125 18.9375 73 
Q 24.125 74.21875 28.421875 74.21875 
Q 39.75 74.21875 46.484375 68.546875 
Q 53.21875 62.890625 53.21875 53.421875 
Q 53.21875 48.921875 51.53125 44.890625 
Q 49.859375 40.875 45.40625 35.40625 
Q 44.1875 33.984375 37.640625 27.21875 
Q 31.109375 20.453125 19.1875 8.296875 
z
" id="DejaVuSans-32"/>
      </defs>
      <g style="fill:#262626;" transform="translate(12.841562 213.915844)scale(0.11 -0.11)">
       <use xlink:href="#DejaVuSans-30"/>
       <use x="63.623047" xlink:href="#DejaVuSans-2e"/>
       <use x="95.410156" xlink:href="#DejaVuSans-32"/>
      </g>
     </g>
    </g>
    <g id="ytick_3">
     <g id="line2d_7">
      <path clip-path="url(#p50b280506b)" d="M 39.835 167.201003 
L 333.52 167.201003 
" style="fill:none;stroke:#ffffff;stroke-linecap:round;"/>
     </g>
     <g id="text_3">
      <!-- 0.4 -->
      <defs>
       <path d="M 37.796875 64.3125 
L 12.890625 25.390625 
L 37.796875 25.390625 
z
M 35.203125 72.90625 
L 47.609375 72.90625 
L 47.609375 25.390625 
L 58.015625 25.390625 
L 58.015625 17.1875 
L 47.609375 17.1875 
L 47.609375 0 
L 37.796875 0 
L 37.796875 17.1875 
L 4.890625 17.1875 
L 4.890625 26.703125 
z
" id="DejaVuSans-34"/>
      </defs>
      <g style="fill:#262626;" transform="translate(12.841562 171.380143)scale(0.11 -0.11)">
       <use xlink:href="#DejaVuSans-30"/>
       <use x="63.623047" xlink:href="#DejaVuSans-2e"/>
       <use x="95.410156" xlink:href="#DejaVuSans-34"/>
      </g>
     </g>
    </g>
    <g id="ytick_4">
     <g id="line2d_8">
      <path clip-path="url(#p50b280506b)" d="M 39.835 124.665302 
L 333.52 124.665302 
" style="fill:none;stroke:#ffffff;stroke-linecap:round;"/>
     </g>
     <g id="text_4">
      <!-- 0.6 -->
      <defs>
       <path d="M 33.015625 40.375 
Q 26.375 40.375 22.484375 35.828125 
Q 18.609375 31.296875 18.609375 23.390625 
Q 18.609375 15.53125 22.484375 10.953125 
Q 26.375 6.390625 33.015625 6.390625 
Q 39.65625 6.390625 43.53125 10.953125 
Q 47.40625 15.53125 47.40625 23.390625 
Q 47.40625 31.296875 43.53125 35.828125 
Q 39.65625 40.375 33.015625 40.375 
z
M 52.59375 71.296875 
L 52.59375 62.3125 
Q 48.875 64.0625 45.09375 64.984375 
Q 41.3125 65.921875 37.59375 65.921875 
Q 27.828125 65.921875 22.671875 59.328125 
Q 17.53125 52.734375 16.796875 39.40625 
Q 19.671875 43.65625 24.015625 45.921875 
Q 28.375 48.1875 33.59375 48.1875 
Q 44.578125 48.1875 50.953125 41.515625 
Q 57.328125 34.859375 57.328125 23.390625 
Q 57.328125 12.15625 50.6875 5.359375 
Q 44.046875 -1.421875 33.015625 -1.421875 
Q 20.359375 -1.421875 13.671875 8.265625 
Q 6.984375 17.96875 6.984375 36.375 
Q 6.984375 53.65625 15.1875 63.9375 
Q 23.390625 74.21875 37.203125 74.21875 
Q 40.921875 74.21875 44.703125 73.484375 
Q 48.484375 72.75 52.59375 71.296875 
z
" id="DejaVuSans-36"/>
      </defs>
      <g style="fill:#262626;" transform="translate(12.841562 128.844443)scale(0.11 -0.11)">
       <use xlink:href="#DejaVuSans-30"/>
       <use x="63.623047" xlink:href="#DejaVuSans-2e"/>
       <use x="95.410156" xlink:href="#DejaVuSans-36"/>
      </g>
     </g>
    </g>
    <g id="ytick_5">
     <g id="line2d_9">
      <path clip-path="url(#p50b280506b)" d="M 39.835 82.129602 
L 333.52 82.129602 
" style="fill:none;stroke:#ffffff;stroke-linecap:round;"/>
     </g>
     <g id="text_5">
      <!-- 0.8 -->
      <defs>
       <path d="M 31.78125 34.625 
Q 24.75 34.625 20.71875 30.859375 
Q 16.703125 27.09375 16.703125 20.515625 
Q 16.703125 13.921875 20.71875 10.15625 
Q 24.75 6.390625 31.78125 6.390625 
Q 38.8125 6.390625 42.859375 10.171875 
Q 46.921875 13.96875 46.921875 20.515625 
Q 46.921875 27.09375 42.890625 30.859375 
Q 38.875 34.625 31.78125 34.625 
z
M 21.921875 38.8125 
Q 15.578125 40.375 12.03125 44.71875 
Q 8.5 49.078125 8.5 55.328125 
Q 8.5 64.0625 14.71875 69.140625 
Q 20.953125 74.21875 31.78125 74.21875 
Q 42.671875 74.21875 48.875 69.140625 
Q 55.078125 64.0625 55.078125 55.328125 
Q 55.078125 49.078125 51.53125 44.71875 
Q 48 40.375 41.703125 38.8125 
Q 48.828125 37.15625 52.796875 32.3125 
Q 56.78125 27.484375 56.78125 20.515625 
Q 56.78125 9.90625 50.3125 4.234375 
Q 43.84375 -1.421875 31.78125 -1.421875 
Q 19.734375 -1.421875 13.25 4.234375 
Q 6.78125 9.90625 6.78125 20.515625 
Q 6.78125 27.484375 10.78125 32.3125 
Q 14.796875 37.15625 21.921875 38.8125 
z
M 18.3125 54.390625 
Q 18.3125 48.734375 21.84375 45.5625 
Q 25.390625 42.390625 31.78125 42.390625 
Q 38.140625 42.390625 41.71875 45.5625 
Q 45.3125 48.734375 45.3125 54.390625 
Q 45.3125 60.0625 41.71875 63.234375 
Q 38.140625 66.40625 31.78125 66.40625 
Q 25.390625 66.40625 21.84375 63.234375 
Q 18.3125 60.0625 18.3125 54.390625 
z
" id="DejaVuSans-38"/>
      </defs>
      <g style="fill:#262626;" transform="translate(12.841562 86.308743)scale(0.11 -0.11)">
       <use xlink:href="#DejaVuSans-30"/>
       <use x="63.623047" xlink:href="#DejaVuSans-2e"/>
       <use x="95.410156" xlink:href="#DejaVuSans-38"/>
      </g>
     </g>
    </g>
    <g id="ytick_6">
     <g id="line2d_10">
      <path clip-path="url(#p50b280506b)" d="M 39.835 39.593902 
L 333.52 39.593902 
" style="fill:none;stroke:#ffffff;stroke-linecap:round;"/>
     </g>
     <g id="text_6">
      <!-- 1.0 -->
      <defs>
       <path d="M 12.40625 8.296875 
L 28.515625 8.296875 
L 28.515625 63.921875 
L 10.984375 60.40625 
L 10.984375 69.390625 
L 28.421875 72.90625 
L 38.28125 72.90625 
L 38.28125 8.296875 
L 54.390625 8.296875 
L 54.390625 0 
L 12.40625 0 
z
" id="DejaVuSans-31"/>
      </defs>
      <g style="fill:#262626;" transform="translate(12.841562 43.773042)scale(0.11 -0.11)">
       <use xlink:href="#DejaVuSans-31"/>
       <use x="63.623047" xlink:href="#DejaVuSans-2e"/>
       <use x="95.410156" xlink:href="#DejaVuSans-30"/>
      </g>
     </g>
    </g>
   </g>
   <g id="line2d_11">
    <path clip-path="url(#p50b280506b)" d="M 53.184318 252.272403 
L 320.170682 252.269562 
L 320.170682 252.269562 
" style="fill:none;stroke:#db5f57;stroke-linecap:round;stroke-width:1.5;"/>
   </g>
   <g id="line2d_12">
    <path clip-path="url(#p50b280506b)" d="M 53.184318 252.272403 
L 320.170682 252.264679 
L 320.170682 252.264679 
" style="fill:none;stroke:#db8657;stroke-linecap:round;stroke-width:1.5;"/>
   </g>
   <g id="line2d_13">
    <path clip-path="url(#p50b280506b)" d="M 53.184318 252.272403 
L 320.170682 252.251407 
L 320.170682 252.251407 
" style="fill:none;stroke:#dbae57;stroke-linecap:round;stroke-width:1.5;"/>
   </g>
   <g id="line2d_14">
    <path clip-path="url(#p50b280506b)" d="M 53.184318 252.272403 
L 320.170682 252.215334 
L 320.170682 252.215334 
" style="fill:none;stroke:#dbd657;stroke-linecap:round;stroke-width:1.5;"/>
   </g>
   <g id="line2d_15">
    <path clip-path="url(#p50b280506b)" d="M 53.184318 252.272403 
L 78.983954 252.161294 
L 85.391802 252.117756 
L 320.170682 252.117308 
L 320.170682 252.117308 
" style="fill:none;stroke:#b9db57;stroke-linecap:round;stroke-width:1.5;"/>
   </g>
   <g id="line2d_16">
    <path clip-path="url(#p50b280506b)" d="M 53.184318 252.272403 
L 77.740422 252.161346 
L 84.353087 251.858349 
L 105.983232 251.851076 
L 320.170682 251.851076 
L 320.170682 251.851076 
" style="fill:none;stroke:#91db57;stroke-linecap:round;stroke-width:1.5;"/>
   </g>
   <g id="line2d_17">
    <path clip-path="url(#p50b280506b)" d="M 53.184318 252.272403 
L 77.469771 252.161744 
L 79.437477 251.900505 
L 83.555763 251.221902 
L 86.525611 251.139311 
L 102.135598 251.129064 
L 320.170682 251.129064 
L 320.170682 251.129064 
" style="fill:none;stroke:#69db57;stroke-linecap:round;stroke-width:1.5;"/>
   </g>
   <g id="line2d_18">
    <path clip-path="url(#p50b280506b)" d="M 53.184318 252.272403 
L 77.389307 252.161362 
L 79.027843 251.916199 
L 80.227486 251.512797 
L 81.544167 250.814736 
L 83.453355 249.817013 
L 84.660313 249.467647 
L 86.189126 249.274325 
L 88.939526 249.190706 
L 102.508657 249.178821 
L 320.170682 249.178821 
L 320.170682 249.178821 
" style="fill:none;stroke:#57db6c;stroke-linecap:round;stroke-width:1.5;"/>
   </g>
   <g id="line2d_19">
    <path clip-path="url(#p50b280506b)" d="M 53.184318 252.272403 
L 77.360047 252.161293 
L 78.910805 251.920031 
L 79.927575 251.542741 
L 80.754159 250.998898 
L 81.551482 250.197163 
L 82.473159 248.928278 
L 84.689572 245.741497 
L 85.530785 245.003389 
L 86.401258 244.533215 
L 87.447288 244.23108 
L 88.932212 244.053933 
L 91.81428 243.977399 
L 108.411778 243.967897 
L 320.170682 243.967897 
L 320.170682 243.967897 
" style="fill:none;stroke:#57db94;stroke-linecap:round;stroke-width:1.5;"/>
   </g>
   <g id="line2d_20">
    <path clip-path="url(#p50b280506b)" d="M 53.184318 252.272403 
L 77.345417 252.161607 
L 78.866916 251.922301 
L 79.832482 251.553207 
L 80.578601 251.032355 
L 81.236942 250.295531 
L 81.866023 249.244955 
L 82.517048 247.702009 
L 83.255853 245.334878 
L 84.353087 240.944721 
L 85.633194 236.076012 
L 86.415888 233.942856 
L 87.118117 232.633077 
L 87.813033 231.78549 
L 88.551837 231.227529 
L 89.42231 230.85498 
L 90.578063 230.617802 
L 92.450676 230.48903 
L 97.322396 230.449569 
L 249.523423 230.448607 
L 320.170682 230.448607 
L 320.170682 230.448607 
" style="fill:none;stroke:#57dbbb;stroke-linecap:round;stroke-width:1.5;"/>
   </g>
   <g id="line2d_21">
    <path clip-path="url(#p50b280506b)" d="M 53.184318 252.272403 
L 77.338102 252.161889 
L 78.852286 251.922823 
L 79.795907 251.55874 
L 80.520082 251.043718 
L 81.141848 250.323846 
L 81.719725 249.301914 
L 82.290287 247.812466 
L 82.868163 245.639007 
L 83.4753 242.431323 
L 84.14827 237.597092 
L 85.004113 229.67115 
L 86.986449 210.747158 
L 87.725254 206.062904 
L 88.398224 203.132603 
L 89.041935 201.268127 
L 89.678331 200.070501 
L 90.336671 199.287009 
L 91.060846 198.76627 
L 91.938633 198.41731 
L 93.138276 198.19663 
L 95.164502 198.080747 
L 101.126142 198.049979 
L 320.170682 198.049659 
L 320.170682 198.049659 
" style="fill:none;stroke:#57d3db;stroke-linecap:round;stroke-width:1.5;"/>
   </g>
   <g id="line2d_22">
    <path clip-path="url(#p50b280506b)" d="M 53.184318 252.272403 
L 77.338102 252.161766 
L 78.844971 251.92354 
L 79.788592 251.557567 
L 80.505452 251.042044 
L 81.119903 250.317439 
L 81.68315 249.292806 
L 82.224453 247.823792 
L 82.765755 245.670859 
L 83.314372 242.512608 
L 83.877619 237.890675 
L 84.47744 231.006026 
L 85.143096 220.620816 
L 85.991624 203.517393 
L 87.97396 162.288075 
L 88.70545 152.269381 
L 89.36379 146.082631 
L 89.992871 142.132596 
L 90.607323 139.602315 
L 91.214459 137.983116 
L 91.836225 136.925082 
L 92.494566 136.229121 
L 93.240685 135.763355 
L 94.169677 135.45429 
L 95.508302 135.262786 
L 97.980737 135.17186 
L 108.331314 135.155825 
L 320.170682 135.15582 
L 320.170682 135.15582 
" style="fill:none;stroke:#57acdb;stroke-linecap:round;stroke-width:1.5;"/>
   </g>
   <g id="line2d_23">
    <path clip-path="url(#p50b280506b)" d="M 53.184318 252.272403 
L 77.338102 252.161721 
L 78.844971 251.923089 
L 79.781278 251.559653 
L 80.490822 251.050078 
L 81.097959 250.335645 
L 81.653891 249.325306 
L 82.187878 247.871517 
L 82.714551 245.757573 
L 83.241223 242.673474 
L 83.77521 238.152471 
L 84.323827 231.504291 
L 84.901704 221.612256 
L 85.530785 206.715349 
L 86.26959 183.440918 
L 88.888322 94.927729 
L 89.532033 83.363661 
L 90.139169 76.196257 
L 90.731676 71.675765 
L 91.316867 68.812329 
L 91.902059 66.982487 
L 92.50188 65.792874 
L 93.138276 65.007825 
L 93.840506 64.489203 
L 94.696349 64.139984 
L 95.874047 63.916474 
L 97.849069 63.797848 
L 103.488853 63.764928 
L 320.170682 63.764488 
L 320.170682 63.764488 
" style="fill:none;stroke:#5784db;stroke-linecap:round;stroke-width:1.5;"/>
   </g>
   <g id="line2d_24">
    <path clip-path="url(#p50b280506b)" d="M 53.184318 252.272403 
L 77.338102 252.161704 
L 78.844971 251.922923 
L 79.781278 251.558962 
L 80.490822 251.048044 
L 81.097959 250.330534 
L 81.653891 249.313454 
L 82.187878 247.845035 
L 82.714551 245.699374 
L 83.241223 242.546602 
L 83.767895 237.952774 
L 84.301883 231.232466 
L 84.857815 221.228863 
L 85.443006 206.388932 
L 86.086717 183.993702 
L 86.898671 147.175238 
L 88.434799 76.441192 
L 89.027305 59.72967 
L 89.539348 50.972623 
L 90.014816 46.271181 
L 90.482969 43.66786 
L 90.951123 42.222042 
L 91.441221 41.383514 
L 91.989838 40.871693 
L 92.677438 40.541362 
L 93.679579 40.327325 
L 95.457098 40.20783 
L 100.460487 40.170773 
L 284.005839 40.169977 
L 320.170682 40.169977 
L 320.170682 40.169977 
" style="fill:none;stroke:#575cdb;stroke-linecap:round;stroke-width:1.5;"/>
   </g>
   <g id="line2d_25">
    <path clip-path="url(#p50b280506b)" d="M 53.184318 252.272403 
L 77.338102 252.161698 
L 78.844971 251.922862 
L 79.781278 251.558707 
L 80.490822 251.047294 
L 81.097959 250.328646 
L 81.653891 249.30907 
L 82.187878 247.835213 
L 82.707236 245.713784 
L 83.226593 242.60482 
L 83.753266 238.003573 
L 84.287253 231.231595 
L 84.83587 221.219278 
L 85.406432 206.442033 
L 86.028198 184.078976 
L 86.767003 148.701747 
L 88.507948 61.749258 
L 88.998046 49.257218 
L 89.414995 43.626272 
L 89.788054 41.214375 
L 90.139169 40.216261 
L 90.497599 39.811264 
L 90.951123 39.648229 
L 91.938633 39.596987 
L 106.217309 39.593924 
L 320.170682 39.593924 
L 320.170682 39.593924 
" style="fill:none;stroke:#7957db;stroke-linecap:round;stroke-width:1.5;"/>
   </g>
   <g id="patch_3">
    <path d="M 39.835 262.906327 
L 39.835 28.96 
" style="fill:none;stroke:#ffffff;stroke-linecap:square;stroke-linejoin:miter;stroke-width:1.25;"/>
   </g>
   <g id="patch_4">
    <path d="M 333.52 262.906327 
L 333.52 28.96 
" style="fill:none;stroke:#ffffff;stroke-linecap:square;stroke-linejoin:miter;stroke-width:1.25;"/>
   </g>
   <g id="patch_5">
    <path d="M 39.835 262.906327 
L 333.52 262.906327 
" style="fill:none;stroke:#ffffff;stroke-linecap:square;stroke-linejoin:miter;stroke-width:1.25;"/>
   </g>
   <g id="patch_6">
    <path d="M 39.835 28.96 
L 333.52 28.96 
" style="fill:none;stroke:#ffffff;stroke-linecap:square;stroke-linejoin:miter;stroke-width:1.25;"/>
   </g>
   <g id="text_7">
    <!-- k = 2 -->
    <defs>
     <path d="M 9.078125 75.984375 
L 18.109375 75.984375 
L 18.109375 31.109375 
L 44.921875 54.6875 
L 56.390625 54.6875 
L 27.390625 29.109375 
L 57.625 0 
L 45.90625 0 
L 18.109375 26.703125 
L 18.109375 0 
L 9.078125 0 
z
" id="DejaVuSans-6b"/>
     <path id="DejaVuSans-20"/>
     <path d="M 10.59375 45.40625 
L 73.1875 45.40625 
L 73.1875 37.203125 
L 10.59375 37.203125 
z
M 10.59375 25.484375 
L 73.1875 25.484375 
L 73.1875 17.1875 
L 10.59375 17.1875 
z
" id="DejaVuSans-3d"/>
    </defs>
    <g style="fill:#262626;" transform="translate(170.544062 22.96)scale(0.12 -0.12)">
     <use xlink:href="#DejaVuSans-6b"/>
     <use x="57.910156" xlink:href="#DejaVuSans-20"/>
     <use x="89.697266" xlink:href="#DejaVuSans-3d"/>
     <use x="173.486328" xlink:href="#DejaVuSans-20"/>
     <use x="205.273438" xlink:href="#DejaVuSans-32"/>
    </g>
   </g>
  </g>
  <g id="axes_2">
   <g id="patch_7">
    <path d="M 407.355 262.906327 
L 701.04 262.906327 
L 701.04 28.96 
L 407.355 28.96 
z
" style="fill:#eaeaf2;"/>
   </g>
   <g id="matplotlib.axis_3">
    <g id="xtick_5">
     <g id="line2d_26">
      <path clip-path="url(#pcb1de94ef5)" d="M 420.704318 262.906327 
L 420.704318 28.96 
" style="fill:none;stroke:#ffffff;stroke-linecap:round;"/>
     </g>
    </g>
    <g id="xtick_6">
     <g id="line2d_27">
      <path clip-path="url(#pcb1de94ef5)" d="M 493.853271 262.906327 
L 493.853271 28.96 
" style="fill:none;stroke:#ffffff;stroke-linecap:round;"/>
     </g>
    </g>
    <g id="xtick_7">
     <g id="line2d_28">
      <path clip-path="url(#pcb1de94ef5)" d="M 567.002224 262.906327 
L 567.002224 28.96 
" style="fill:none;stroke:#ffffff;stroke-linecap:round;"/>
     </g>
    </g>
    <g id="xtick_8">
     <g id="line2d_29">
      <path clip-path="url(#pcb1de94ef5)" d="M 640.151177 262.906327 
L 640.151177 28.96 
" style="fill:none;stroke:#ffffff;stroke-linecap:round;"/>
     </g>
    </g>
   </g>
   <g id="matplotlib.axis_4">
    <g id="ytick_7">
     <g id="line2d_30">
      <path clip-path="url(#pcb1de94ef5)" d="M 407.355 231.004555 
L 701.04 231.004555 
" style="fill:none;stroke:#ffffff;stroke-linecap:round;"/>
     </g>
     <g id="text_8">
      <!-- −0.04 -->
      <defs>
       <path d="M 10.59375 35.5 
L 73.1875 35.5 
L 73.1875 27.203125 
L 10.59375 27.203125 
z
" id="DejaVuSans-2212"/>
      </defs>
      <g style="fill:#262626;" transform="translate(364.145156 235.183696)scale(0.11 -0.11)">
       <use xlink:href="#DejaVuSans-2212"/>
       <use x="83.789062" xlink:href="#DejaVuSans-30"/>
       <use x="147.412109" xlink:href="#DejaVuSans-2e"/>
       <use x="179.199219" xlink:href="#DejaVuSans-30"/>
       <use x="242.822266" xlink:href="#DejaVuSans-34"/>
      </g>
     </g>
    </g>
    <g id="ytick_8">
     <g id="line2d_31">
      <path clip-path="url(#pcb1de94ef5)" d="M 407.355 188.46886 
L 701.04 188.46886 
" style="fill:none;stroke:#ffffff;stroke-linecap:round;"/>
     </g>
     <g id="text_9">
      <!-- −0.02 -->
      <g style="fill:#262626;" transform="translate(364.145156 192.648)scale(0.11 -0.11)">
       <use xlink:href="#DejaVuSans-2212"/>
       <use x="83.789062" xlink:href="#DejaVuSans-30"/>
       <use x="147.412109" xlink:href="#DejaVuSans-2e"/>
       <use x="179.199219" xlink:href="#DejaVuSans-30"/>
       <use x="242.822266" xlink:href="#DejaVuSans-32"/>
      </g>
     </g>
    </g>
    <g id="ytick_9">
     <g id="line2d_32">
      <path clip-path="url(#pcb1de94ef5)" d="M 407.355 145.933164 
L 701.04 145.933164 
" style="fill:none;stroke:#ffffff;stroke-linecap:round;"/>
     </g>
     <g id="text_10">
      <!-- 0.00 -->
      <g style="fill:#262626;" transform="translate(373.362813 150.112304)scale(0.11 -0.11)">
       <use xlink:href="#DejaVuSans-30"/>
       <use x="63.623047" xlink:href="#DejaVuSans-2e"/>
       <use x="95.410156" xlink:href="#DejaVuSans-30"/>
       <use x="159.033203" xlink:href="#DejaVuSans-30"/>
      </g>
     </g>
    </g>
    <g id="ytick_10">
     <g id="line2d_33">
      <path clip-path="url(#pcb1de94ef5)" d="M 407.355 103.397468 
L 701.04 103.397468 
" style="fill:none;stroke:#ffffff;stroke-linecap:round;"/>
     </g>
     <g id="text_11">
      <!-- 0.02 -->
      <g style="fill:#262626;" transform="translate(373.362813 107.576608)scale(0.11 -0.11)">
       <use xlink:href="#DejaVuSans-30"/>
       <use x="63.623047" xlink:href="#DejaVuSans-2e"/>
       <use x="95.410156" xlink:href="#DejaVuSans-30"/>
       <use x="159.033203" xlink:href="#DejaVuSans-32"/>
      </g>
     </g>
    </g>
    <g id="ytick_11">
     <g id="line2d_34">
      <path clip-path="url(#pcb1de94ef5)" d="M 407.355 60.861772 
L 701.04 60.861772 
" style="fill:none;stroke:#ffffff;stroke-linecap:round;"/>
     </g>
     <g id="text_12">
      <!-- 0.04 -->
      <g style="fill:#262626;" transform="translate(373.362813 65.040913)scale(0.11 -0.11)">
       <use xlink:href="#DejaVuSans-30"/>
       <use x="63.623047" xlink:href="#DejaVuSans-2e"/>
       <use x="95.410156" xlink:href="#DejaVuSans-30"/>
       <use x="159.033203" xlink:href="#DejaVuSans-34"/>
      </g>
     </g>
    </g>
   </g>
   <g id="line2d_35">
    <path clip-path="url(#pcb1de94ef5)" d="M 420.704318 145.933164 
L 687.690682 145.933164 
L 687.690682 145.933164 
" style="fill:none;stroke:#db5f57;stroke-linecap:round;stroke-width:1.5;"/>
   </g>
   <g id="line2d_36">
    <path clip-path="url(#pcb1de94ef5)" d="M 420.704318 145.933164 
L 687.690682 145.933164 
L 687.690682 145.933164 
" style="fill:none;stroke:#db8657;stroke-linecap:round;stroke-width:1.5;"/>
   </g>
   <g id="line2d_37">
    <path clip-path="url(#pcb1de94ef5)" d="M 420.704318 145.933164 
L 687.690682 145.933164 
L 687.690682 145.933164 
" style="fill:none;stroke:#dbae57;stroke-linecap:round;stroke-width:1.5;"/>
   </g>
   <g id="line2d_38">
    <path clip-path="url(#pcb1de94ef5)" d="M 420.704318 145.933164 
L 687.690682 145.933164 
L 687.690682 145.933164 
" style="fill:none;stroke:#dbd657;stroke-linecap:round;stroke-width:1.5;"/>
   </g>
   <g id="line2d_39">
    <path clip-path="url(#pcb1de94ef5)" d="M 420.704318 145.933164 
L 687.690682 145.933164 
L 687.690682 145.933164 
" style="fill:none;stroke:#b9db57;stroke-linecap:round;stroke-width:1.5;"/>
   </g>
   <g id="line2d_40">
    <path clip-path="url(#pcb1de94ef5)" d="M 420.704318 145.933164 
L 687.690682 145.933164 
L 687.690682 145.933164 
" style="fill:none;stroke:#91db57;stroke-linecap:round;stroke-width:1.5;"/>
   </g>
   <g id="line2d_41">
    <path clip-path="url(#pcb1de94ef5)" d="M 420.704318 145.933164 
L 687.690682 145.933164 
L 687.690682 145.933164 
" style="fill:none;stroke:#69db57;stroke-linecap:round;stroke-width:1.5;"/>
   </g>
   <g id="line2d_42">
    <path clip-path="url(#pcb1de94ef5)" d="M 420.704318 145.933164 
L 687.690682 145.933164 
L 687.690682 145.933164 
" style="fill:none;stroke:#57db6c;stroke-linecap:round;stroke-width:1.5;"/>
   </g>
   <g id="line2d_43">
    <path clip-path="url(#pcb1de94ef5)" d="M 420.704318 145.933164 
L 687.690682 145.933164 
L 687.690682 145.933164 
" style="fill:none;stroke:#57db94;stroke-linecap:round;stroke-width:1.5;"/>
   </g>
   <g id="line2d_44">
    <path clip-path="url(#pcb1de94ef5)" d="M 420.704318 145.933164 
L 687.690682 145.933164 
L 687.690682 145.933164 
" style="fill:none;stroke:#57dbbb;stroke-linecap:round;stroke-width:1.5;"/>
   </g>
   <g id="line2d_45">
    <path clip-path="url(#pcb1de94ef5)" d="M 420.704318 145.933164 
L 687.690682 145.933164 
L 687.690682 145.933164 
" style="fill:none;stroke:#57d3db;stroke-linecap:round;stroke-width:1.5;"/>
   </g>
   <g id="line2d_46">
    <path clip-path="url(#pcb1de94ef5)" d="M 420.704318 145.933164 
L 687.690682 145.933164 
L 687.690682 145.933164 
" style="fill:none;stroke:#57acdb;stroke-linecap:round;stroke-width:1.5;"/>
   </g>
   <g id="line2d_47">
    <path clip-path="url(#pcb1de94ef5)" d="M 420.704318 145.933164 
L 687.690682 145.933164 
L 687.690682 145.933164 
" style="fill:none;stroke:#5784db;stroke-linecap:round;stroke-width:1.5;"/>
   </g>
   <g id="line2d_48">
    <path clip-path="url(#pcb1de94ef5)" d="M 420.704318 145.933164 
L 687.690682 145.933164 
L 687.690682 145.933164 
" style="fill:none;stroke:#575cdb;stroke-linecap:round;stroke-width:1.5;"/>
   </g>
   <g id="line2d_49">
    <path clip-path="url(#pcb1de94ef5)" d="M 420.704318 145.933164 
L 687.690682 145.933164 
L 687.690682 145.933164 
" style="fill:none;stroke:#7957db;stroke-linecap:round;stroke-width:1.5;"/>
   </g>
   <g id="patch_8">
    <path d="M 407.355 262.906327 
L 407.355 28.96 
" style="fill:none;stroke:#ffffff;stroke-linecap:square;stroke-linejoin:miter;stroke-width:1.25;"/>
   </g>
   <g id="patch_9">
    <path d="M 701.04 262.906327 
L 701.04 28.96 
" style="fill:none;stroke:#ffffff;stroke-linecap:square;stroke-linejoin:miter;stroke-width:1.25;"/>
   </g>
   <g id="patch_10">
    <path d="M 407.355 262.906327 
L 701.04 262.906327 
" style="fill:none;stroke:#ffffff;stroke-linecap:square;stroke-linejoin:miter;stroke-width:1.25;"/>
   </g>
   <g id="patch_11">
    <path d="M 407.355 28.96 
L 701.04 28.96 
" style="fill:none;stroke:#ffffff;stroke-linecap:square;stroke-linejoin:miter;stroke-width:1.25;"/>
   </g>
   <g id="text_13">
    <!-- k = 5 -->
    <defs>
     <path d="M 10.796875 72.90625 
L 49.515625 72.90625 
L 49.515625 64.59375 
L 19.828125 64.59375 
L 19.828125 46.734375 
Q 21.96875 47.46875 24.109375 47.828125 
Q 26.265625 48.1875 28.421875 48.1875 
Q 40.625 48.1875 47.75 41.5 
Q 54.890625 34.8125 54.890625 23.390625 
Q 54.890625 11.625 47.5625 5.09375 
Q 40.234375 -1.421875 26.90625 -1.421875 
Q 22.3125 -1.421875 17.546875 -0.640625 
Q 12.796875 0.140625 7.71875 1.703125 
L 7.71875 11.625 
Q 12.109375 9.234375 16.796875 8.0625 
Q 21.484375 6.890625 26.703125 6.890625 
Q 35.15625 6.890625 40.078125 11.328125 
Q 45.015625 15.765625 45.015625 23.390625 
Q 45.015625 31 40.078125 35.4375 
Q 35.15625 39.890625 26.703125 39.890625 
Q 22.75 39.890625 18.8125 39.015625 
Q 14.890625 38.140625 10.796875 36.28125 
z
" id="DejaVuSans-35"/>
    </defs>
    <g style="fill:#262626;" transform="translate(538.064062 22.96)scale(0.12 -0.12)">
     <use xlink:href="#DejaVuSans-6b"/>
     <use x="57.910156" xlink:href="#DejaVuSans-20"/>
     <use x="89.697266" xlink:href="#DejaVuSans-3d"/>
     <use x="173.486328" xlink:href="#DejaVuSans-20"/>
     <use x="205.273438" xlink:href="#DejaVuSans-35"/>
    </g>
   </g>
   <g id="legend_1">
    <g id="patch_12">
     <path d="M 618.801075 234.759287 
L 695.2104 234.759287 
Q 696.876 234.759287 696.876 233.093687 
L 696.876 34.7896 
Q 696.876 33.124 695.2104 33.124 
L 618.801075 33.124 
Q 617.135475 33.124 617.135475 34.7896 
L 617.135475 233.093687 
Q 617.135475 234.759287 618.801075 234.759287 
z
" style="fill:#eaeaf2;opacity:0.5;stroke:#cccccc;stroke-linejoin:miter;"/>
    </g>
    <g id="text_14">
     <!-- Cell number -->
     <defs>
      <path d="M 64.40625 67.28125 
L 64.40625 56.890625 
Q 59.421875 61.53125 53.78125 63.8125 
Q 48.140625 66.109375 41.796875 66.109375 
Q 29.296875 66.109375 22.65625 58.46875 
Q 16.015625 50.828125 16.015625 36.375 
Q 16.015625 21.96875 22.65625 14.328125 
Q 29.296875 6.6875 41.796875 6.6875 
Q 48.140625 6.6875 53.78125 8.984375 
Q 59.421875 11.28125 64.40625 15.921875 
L 64.40625 5.609375 
Q 59.234375 2.09375 53.4375 0.328125 
Q 47.65625 -1.421875 41.21875 -1.421875 
Q 24.65625 -1.421875 15.125 8.703125 
Q 5.609375 18.84375 5.609375 36.375 
Q 5.609375 53.953125 15.125 64.078125 
Q 24.65625 74.21875 41.21875 74.21875 
Q 47.75 74.21875 53.53125 72.484375 
Q 59.328125 70.75 64.40625 67.28125 
z
" id="DejaVuSans-43"/>
      <path d="M 56.203125 29.59375 
L 56.203125 25.203125 
L 14.890625 25.203125 
Q 15.484375 15.921875 20.484375 11.0625 
Q 25.484375 6.203125 34.421875 6.203125 
Q 39.59375 6.203125 44.453125 7.46875 
Q 49.3125 8.734375 54.109375 11.28125 
L 54.109375 2.78125 
Q 49.265625 0.734375 44.1875 -0.34375 
Q 39.109375 -1.421875 33.890625 -1.421875 
Q 20.796875 -1.421875 13.15625 6.1875 
Q 5.515625 13.8125 5.515625 26.8125 
Q 5.515625 40.234375 12.765625 48.109375 
Q 20.015625 56 32.328125 56 
Q 43.359375 56 49.78125 48.890625 
Q 56.203125 41.796875 56.203125 29.59375 
z
M 47.21875 32.234375 
Q 47.125 39.59375 43.09375 43.984375 
Q 39.0625 48.390625 32.421875 48.390625 
Q 24.90625 48.390625 20.390625 44.140625 
Q 15.875 39.890625 15.1875 32.171875 
z
" id="DejaVuSans-65"/>
      <path d="M 9.421875 75.984375 
L 18.40625 75.984375 
L 18.40625 0 
L 9.421875 0 
z
" id="DejaVuSans-6c"/>
      <path d="M 54.890625 33.015625 
L 54.890625 0 
L 45.90625 0 
L 45.90625 32.71875 
Q 45.90625 40.484375 42.875 44.328125 
Q 39.84375 48.1875 33.796875 48.1875 
Q 26.515625 48.1875 22.3125 43.546875 
Q 18.109375 38.921875 18.109375 30.90625 
L 18.109375 0 
L 9.078125 0 
L 9.078125 54.6875 
L 18.109375 54.6875 
L 18.109375 46.1875 
Q 21.34375 51.125 25.703125 53.5625 
Q 30.078125 56 35.796875 56 
Q 45.21875 56 50.046875 50.171875 
Q 54.890625 44.34375 54.890625 33.015625 
z
" id="DejaVuSans-6e"/>
      <path d="M 8.5 21.578125 
L 8.5 54.6875 
L 17.484375 54.6875 
L 17.484375 21.921875 
Q 17.484375 14.15625 20.5 10.265625 
Q 23.53125 6.390625 29.59375 6.390625 
Q 36.859375 6.390625 41.078125 11.03125 
Q 45.3125 15.671875 45.3125 23.6875 
L 45.3125 54.6875 
L 54.296875 54.6875 
L 54.296875 0 
L 45.3125 0 
L 45.3125 8.40625 
Q 42.046875 3.421875 37.71875 1 
Q 33.40625 -1.421875 27.6875 -1.421875 
Q 18.265625 -1.421875 13.375 4.4375 
Q 8.5 10.296875 8.5 21.578125 
z
M 31.109375 56 
z
" id="DejaVuSans-75"/>
      <path d="M 52 44.1875 
Q 55.375 50.25 60.0625 53.125 
Q 64.75 56 71.09375 56 
Q 79.640625 56 84.28125 50.015625 
Q 88.921875 44.046875 88.921875 33.015625 
L 88.921875 0 
L 79.890625 0 
L 79.890625 32.71875 
Q 79.890625 40.578125 77.09375 44.375 
Q 74.3125 48.1875 68.609375 48.1875 
Q 61.625 48.1875 57.5625 43.546875 
Q 53.515625 38.921875 53.515625 30.90625 
L 53.515625 0 
L 44.484375 0 
L 44.484375 32.71875 
Q 44.484375 40.625 41.703125 44.40625 
Q 38.921875 48.1875 33.109375 48.1875 
Q 26.21875 48.1875 22.15625 43.53125 
Q 18.109375 38.875 18.109375 30.90625 
L 18.109375 0 
L 9.078125 0 
L 9.078125 54.6875 
L 18.109375 54.6875 
L 18.109375 46.1875 
Q 21.1875 51.21875 25.484375 53.609375 
Q 29.78125 56 35.6875 56 
Q 41.65625 56 45.828125 52.96875 
Q 50 49.953125 52 44.1875 
z
" id="DejaVuSans-6d"/>
      <path d="M 48.6875 27.296875 
Q 48.6875 37.203125 44.609375 42.84375 
Q 40.53125 48.484375 33.40625 48.484375 
Q 26.265625 48.484375 22.1875 42.84375 
Q 18.109375 37.203125 18.109375 27.296875 
Q 18.109375 17.390625 22.1875 11.75 
Q 26.265625 6.109375 33.40625 6.109375 
Q 40.53125 6.109375 44.609375 11.75 
Q 48.6875 17.390625 48.6875 27.296875 
z
M 18.109375 46.390625 
Q 20.953125 51.265625 25.265625 53.625 
Q 29.59375 56 35.59375 56 
Q 45.5625 56 51.78125 48.09375 
Q 58.015625 40.1875 58.015625 27.296875 
Q 58.015625 14.40625 51.78125 6.484375 
Q 45.5625 -1.421875 35.59375 -1.421875 
Q 29.59375 -1.421875 25.265625 0.953125 
Q 20.953125 3.328125 18.109375 8.203125 
L 18.109375 0 
L 9.078125 0 
L 9.078125 75.984375 
L 18.109375 75.984375 
z
" id="DejaVuSans-62"/>
      <path d="M 41.109375 46.296875 
Q 39.59375 47.171875 37.8125 47.578125 
Q 36.03125 48 33.890625 48 
Q 26.265625 48 22.1875 43.046875 
Q 18.109375 38.09375 18.109375 28.8125 
L 18.109375 0 
L 9.078125 0 
L 9.078125 54.6875 
L 18.109375 54.6875 
L 18.109375 46.1875 
Q 20.953125 51.171875 25.484375 53.578125 
Q 30.03125 56 36.53125 56 
Q 37.453125 56 38.578125 55.875 
Q 39.703125 55.765625 41.0625 55.515625 
z
" id="DejaVuSans-72"/>
     </defs>
     <g style="fill:#262626;" transform="translate(620.466675 45.573325)scale(0.12 -0.12)">
      <use xlink:href="#DejaVuSans-43"/>
      <use x="69.824219" xlink:href="#DejaVuSans-65"/>
      <use x="131.347656" xlink:href="#DejaVuSans-6c"/>
      <use x="159.130859" xlink:href="#DejaVuSans-6c"/>
      <use x="186.914062" xlink:href="#DejaVuSans-20"/>
      <use x="218.701172" xlink:href="#DejaVuSans-6e"/>
      <use x="282.080078" xlink:href="#DejaVuSans-75"/>
      <use x="345.458984" xlink:href="#DejaVuSans-6d"/>
      <use x="442.871094" xlink:href="#DejaVuSans-62"/>
      <use x="506.347656" xlink:href="#DejaVuSans-65"/>
      <use x="567.871094" xlink:href="#DejaVuSans-72"/>
     </g>
    </g>
    <g id="line2d_50">
     <path d="M 624.724978 55.646129 
L 641.380978 55.646129 
" style="fill:none;stroke:#db5f57;stroke-linecap:round;stroke-width:1.5;"/>
    </g>
    <g id="line2d_51"/>
    <g id="text_15">
     <!-- 3.27e+06 -->
     <defs>
      <path d="M 40.578125 39.3125 
Q 47.65625 37.796875 51.625 33 
Q 55.609375 28.21875 55.609375 21.1875 
Q 55.609375 10.40625 48.1875 4.484375 
Q 40.765625 -1.421875 27.09375 -1.421875 
Q 22.515625 -1.421875 17.65625 -0.515625 
Q 12.796875 0.390625 7.625 2.203125 
L 7.625 11.71875 
Q 11.71875 9.328125 16.59375 8.109375 
Q 21.484375 6.890625 26.8125 6.890625 
Q 36.078125 6.890625 40.9375 10.546875 
Q 45.796875 14.203125 45.796875 21.1875 
Q 45.796875 27.640625 41.28125 31.265625 
Q 36.765625 34.90625 28.71875 34.90625 
L 20.21875 34.90625 
L 20.21875 43.015625 
L 29.109375 43.015625 
Q 36.375 43.015625 40.234375 45.921875 
Q 44.09375 48.828125 44.09375 54.296875 
Q 44.09375 59.90625 40.109375 62.90625 
Q 36.140625 65.921875 28.71875 65.921875 
Q 24.65625 65.921875 20.015625 65.03125 
Q 15.375 64.15625 9.8125 62.3125 
L 9.8125 71.09375 
Q 15.4375 72.65625 20.34375 73.4375 
Q 25.25 74.21875 29.59375 74.21875 
Q 40.828125 74.21875 47.359375 69.109375 
Q 53.90625 64.015625 53.90625 55.328125 
Q 53.90625 49.265625 50.4375 45.09375 
Q 46.96875 40.921875 40.578125 39.3125 
z
" id="DejaVuSans-33"/>
      <path d="M 8.203125 72.90625 
L 55.078125 72.90625 
L 55.078125 68.703125 
L 28.609375 0 
L 18.3125 0 
L 43.21875 64.59375 
L 8.203125 64.59375 
z
" id="DejaVuSans-37"/>
      <path d="M 46 62.703125 
L 46 35.5 
L 73.1875 35.5 
L 73.1875 27.203125 
L 46 27.203125 
L 46 0 
L 37.796875 0 
L 37.796875 27.203125 
L 10.59375 27.203125 
L 10.59375 35.5 
L 37.796875 35.5 
L 37.796875 62.703125 
z
" id="DejaVuSans-2b"/>
     </defs>
     <g style="fill:#262626;" transform="translate(648.043378 58.560929)scale(0.08328 -0.08328)">
      <use xlink:href="#DejaVuSans-33"/>
      <use x="63.623047" xlink:href="#DejaVuSans-2e"/>
      <use x="95.410156" xlink:href="#DejaVuSans-32"/>
      <use x="159.033203" xlink:href="#DejaVuSans-37"/>
      <use x="222.65625" xlink:href="#DejaVuSans-65"/>
      <use x="284.179688" xlink:href="#DejaVuSans-2b"/>
      <use x="367.96875" xlink:href="#DejaVuSans-30"/>
      <use x="431.591797" xlink:href="#DejaVuSans-36"/>
     </g>
    </g>
    <g id="line2d_52">
     <path d="M 624.724978 67.870071 
L 641.380978 67.870071 
" style="fill:none;stroke:#db8657;stroke-linecap:round;stroke-width:1.5;"/>
    </g>
    <g id="line2d_53"/>
    <g id="text_16">
     <!-- 8.89e+06 -->
     <defs>
      <path d="M 10.984375 1.515625 
L 10.984375 10.5 
Q 14.703125 8.734375 18.5 7.8125 
Q 22.3125 6.890625 25.984375 6.890625 
Q 35.75 6.890625 40.890625 13.453125 
Q 46.046875 20.015625 46.78125 33.40625 
Q 43.953125 29.203125 39.59375 26.953125 
Q 35.25 24.703125 29.984375 24.703125 
Q 19.046875 24.703125 12.671875 31.3125 
Q 6.296875 37.9375 6.296875 49.421875 
Q 6.296875 60.640625 12.9375 67.421875 
Q 19.578125 74.21875 30.609375 74.21875 
Q 43.265625 74.21875 49.921875 64.515625 
Q 56.59375 54.828125 56.59375 36.375 
Q 56.59375 19.140625 48.40625 8.859375 
Q 40.234375 -1.421875 26.421875 -1.421875 
Q 22.703125 -1.421875 18.890625 -0.6875 
Q 15.09375 0.046875 10.984375 1.515625 
z
M 30.609375 32.421875 
Q 37.25 32.421875 41.125 36.953125 
Q 45.015625 41.5 45.015625 49.421875 
Q 45.015625 57.28125 41.125 61.84375 
Q 37.25 66.40625 30.609375 66.40625 
Q 23.96875 66.40625 20.09375 61.84375 
Q 16.21875 57.28125 16.21875 49.421875 
Q 16.21875 41.5 20.09375 36.953125 
Q 23.96875 32.421875 30.609375 32.421875 
z
" id="DejaVuSans-39"/>
     </defs>
     <g style="fill:#262626;" transform="translate(648.043378 70.784871)scale(0.08328 -0.08328)">
      <use xlink:href="#DejaVuSans-38"/>
      <use x="63.623047" xlink:href="#DejaVuSans-2e"/>
      <use x="95.410156" xlink:href="#DejaVuSans-38"/>
      <use x="159.033203" xlink:href="#DejaVuSans-39"/>
      <use x="222.65625" xlink:href="#DejaVuSans-65"/>
      <use x="284.179688" xlink:href="#DejaVuSans-2b"/>
      <use x="367.96875" xlink:href="#DejaVuSans-30"/>
      <use x="431.591797" xlink:href="#DejaVuSans-36"/>
     </g>
    </g>
    <g id="line2d_54">
     <path d="M 624.724978 80.094014 
L 641.380978 80.094014 
" style="fill:none;stroke:#dbae57;stroke-linecap:round;stroke-width:1.5;"/>
    </g>
    <g id="line2d_55"/>
    <g id="text_17">
     <!-- 2.42e+07 -->
     <g style="fill:#262626;" transform="translate(648.043378 83.008814)scale(0.08328 -0.08328)">
      <use xlink:href="#DejaVuSans-32"/>
      <use x="63.623047" xlink:href="#DejaVuSans-2e"/>
      <use x="95.410156" xlink:href="#DejaVuSans-34"/>
      <use x="159.033203" xlink:href="#DejaVuSans-32"/>
      <use x="222.65625" xlink:href="#DejaVuSans-65"/>
      <use x="284.179688" xlink:href="#DejaVuSans-2b"/>
      <use x="367.96875" xlink:href="#DejaVuSans-30"/>
      <use x="431.591797" xlink:href="#DejaVuSans-37"/>
     </g>
    </g>
    <g id="line2d_56">
     <path d="M 624.724978 92.317956 
L 641.380978 92.317956 
" style="fill:none;stroke:#dbd657;stroke-linecap:round;stroke-width:1.5;"/>
    </g>
    <g id="line2d_57"/>
    <g id="text_18">
     <!-- 6.57e+07 -->
     <g style="fill:#262626;" transform="translate(648.043378 95.232756)scale(0.08328 -0.08328)">
      <use xlink:href="#DejaVuSans-36"/>
      <use x="63.623047" xlink:href="#DejaVuSans-2e"/>
      <use x="95.410156" xlink:href="#DejaVuSans-35"/>
      <use x="159.033203" xlink:href="#DejaVuSans-37"/>
      <use x="222.65625" xlink:href="#DejaVuSans-65"/>
      <use x="284.179688" xlink:href="#DejaVuSans-2b"/>
      <use x="367.96875" xlink:href="#DejaVuSans-30"/>
      <use x="431.591797" xlink:href="#DejaVuSans-37"/>
     </g>
    </g>
    <g id="line2d_58">
     <path d="M 624.724978 104.541899 
L 641.380978 104.541899 
" style="fill:none;stroke:#b9db57;stroke-linecap:round;stroke-width:1.5;"/>
    </g>
    <g id="line2d_59"/>
    <g id="text_19">
     <!-- 1.78e+08 -->
     <g style="fill:#262626;" transform="translate(648.043378 107.456699)scale(0.08328 -0.08328)">
      <use xlink:href="#DejaVuSans-31"/>
      <use x="63.623047" xlink:href="#DejaVuSans-2e"/>
      <use x="95.410156" xlink:href="#DejaVuSans-37"/>
      <use x="159.033203" xlink:href="#DejaVuSans-38"/>
      <use x="222.65625" xlink:href="#DejaVuSans-65"/>
      <use x="284.179688" xlink:href="#DejaVuSans-2b"/>
      <use x="367.96875" xlink:href="#DejaVuSans-30"/>
      <use x="431.591797" xlink:href="#DejaVuSans-38"/>
     </g>
    </g>
    <g id="line2d_60">
     <path d="M 624.724978 116.765841 
L 641.380978 116.765841 
" style="fill:none;stroke:#91db57;stroke-linecap:round;stroke-width:1.5;"/>
    </g>
    <g id="line2d_61"/>
    <g id="text_20">
     <!-- 4.85e+08 -->
     <g style="fill:#262626;" transform="translate(648.043378 119.680641)scale(0.08328 -0.08328)">
      <use xlink:href="#DejaVuSans-34"/>
      <use x="63.623047" xlink:href="#DejaVuSans-2e"/>
      <use x="95.410156" xlink:href="#DejaVuSans-38"/>
      <use x="159.033203" xlink:href="#DejaVuSans-35"/>
      <use x="222.65625" xlink:href="#DejaVuSans-65"/>
      <use x="284.179688" xlink:href="#DejaVuSans-2b"/>
      <use x="367.96875" xlink:href="#DejaVuSans-30"/>
      <use x="431.591797" xlink:href="#DejaVuSans-38"/>
     </g>
    </g>
    <g id="line2d_62">
     <path d="M 624.724978 128.989784 
L 641.380978 128.989784 
" style="fill:none;stroke:#69db57;stroke-linecap:round;stroke-width:1.5;"/>
    </g>
    <g id="line2d_63"/>
    <g id="text_21">
     <!-- 1.32e+09 -->
     <g style="fill:#262626;" transform="translate(648.043378 131.904584)scale(0.08328 -0.08328)">
      <use xlink:href="#DejaVuSans-31"/>
      <use x="63.623047" xlink:href="#DejaVuSans-2e"/>
      <use x="95.410156" xlink:href="#DejaVuSans-33"/>
      <use x="159.033203" xlink:href="#DejaVuSans-32"/>
      <use x="222.65625" xlink:href="#DejaVuSans-65"/>
      <use x="284.179688" xlink:href="#DejaVuSans-2b"/>
      <use x="367.96875" xlink:href="#DejaVuSans-30"/>
      <use x="431.591797" xlink:href="#DejaVuSans-39"/>
     </g>
    </g>
    <g id="line2d_64">
     <path d="M 624.724978 141.213726 
L 641.380978 141.213726 
" style="fill:none;stroke:#57db6c;stroke-linecap:round;stroke-width:1.5;"/>
    </g>
    <g id="line2d_65"/>
    <g id="text_22">
     <!-- 3.58e+09 -->
     <g style="fill:#262626;" transform="translate(648.043378 144.128526)scale(0.08328 -0.08328)">
      <use xlink:href="#DejaVuSans-33"/>
      <use x="63.623047" xlink:href="#DejaVuSans-2e"/>
      <use x="95.410156" xlink:href="#DejaVuSans-35"/>
      <use x="159.033203" xlink:href="#DejaVuSans-38"/>
      <use x="222.65625" xlink:href="#DejaVuSans-65"/>
      <use x="284.179688" xlink:href="#DejaVuSans-2b"/>
      <use x="367.96875" xlink:href="#DejaVuSans-30"/>
      <use x="431.591797" xlink:href="#DejaVuSans-39"/>
     </g>
    </g>
    <g id="line2d_66">
     <path d="M 624.724978 153.437669 
L 641.380978 153.437669 
" style="fill:none;stroke:#57db94;stroke-linecap:round;stroke-width:1.5;"/>
    </g>
    <g id="line2d_67"/>
    <g id="text_23">
     <!-- 9.74e+09 -->
     <g style="fill:#262626;" transform="translate(648.043378 156.352469)scale(0.08328 -0.08328)">
      <use xlink:href="#DejaVuSans-39"/>
      <use x="63.623047" xlink:href="#DejaVuSans-2e"/>
      <use x="95.410156" xlink:href="#DejaVuSans-37"/>
      <use x="159.033203" xlink:href="#DejaVuSans-34"/>
      <use x="222.65625" xlink:href="#DejaVuSans-65"/>
      <use x="284.179688" xlink:href="#DejaVuSans-2b"/>
      <use x="367.96875" xlink:href="#DejaVuSans-30"/>
      <use x="431.591797" xlink:href="#DejaVuSans-39"/>
     </g>
    </g>
    <g id="line2d_68">
     <path d="M 624.724978 165.661611 
L 641.380978 165.661611 
" style="fill:none;stroke:#57dbbb;stroke-linecap:round;stroke-width:1.5;"/>
    </g>
    <g id="line2d_69"/>
    <g id="text_24">
     <!-- 2.65e+10 -->
     <g style="fill:#262626;" transform="translate(648.043378 168.576411)scale(0.08328 -0.08328)">
      <use xlink:href="#DejaVuSans-32"/>
      <use x="63.623047" xlink:href="#DejaVuSans-2e"/>
      <use x="95.410156" xlink:href="#DejaVuSans-36"/>
      <use x="159.033203" xlink:href="#DejaVuSans-35"/>
      <use x="222.65625" xlink:href="#DejaVuSans-65"/>
      <use x="284.179688" xlink:href="#DejaVuSans-2b"/>
      <use x="367.96875" xlink:href="#DejaVuSans-31"/>
      <use x="431.591797" xlink:href="#DejaVuSans-30"/>
     </g>
    </g>
    <g id="line2d_70">
     <path d="M 624.724978 177.885554 
L 641.380978 177.885554 
" style="fill:none;stroke:#57d3db;stroke-linecap:round;stroke-width:1.5;"/>
    </g>
    <g id="line2d_71"/>
    <g id="text_25">
     <!-- 7.20e+10 -->
     <g style="fill:#262626;" transform="translate(648.043378 180.800354)scale(0.08328 -0.08328)">
      <use xlink:href="#DejaVuSans-37"/>
      <use x="63.623047" xlink:href="#DejaVuSans-2e"/>
      <use x="95.410156" xlink:href="#DejaVuSans-32"/>
      <use x="159.033203" xlink:href="#DejaVuSans-30"/>
      <use x="222.65625" xlink:href="#DejaVuSans-65"/>
      <use x="284.179688" xlink:href="#DejaVuSans-2b"/>
      <use x="367.96875" xlink:href="#DejaVuSans-31"/>
      <use x="431.591797" xlink:href="#DejaVuSans-30"/>
     </g>
    </g>
    <g id="line2d_72">
     <path d="M 624.724978 190.109496 
L 641.380978 190.109496 
" style="fill:none;stroke:#57acdb;stroke-linecap:round;stroke-width:1.5;"/>
    </g>
    <g id="line2d_73"/>
    <g id="text_26">
     <!-- 1.96e+11 -->
     <g style="fill:#262626;" transform="translate(648.043378 193.024296)scale(0.08328 -0.08328)">
      <use xlink:href="#DejaVuSans-31"/>
      <use x="63.623047" xlink:href="#DejaVuSans-2e"/>
      <use x="95.410156" xlink:href="#DejaVuSans-39"/>
      <use x="159.033203" xlink:href="#DejaVuSans-36"/>
      <use x="222.65625" xlink:href="#DejaVuSans-65"/>
      <use x="284.179688" xlink:href="#DejaVuSans-2b"/>
      <use x="367.96875" xlink:href="#DejaVuSans-31"/>
      <use x="431.591797" xlink:href="#DejaVuSans-31"/>
     </g>
    </g>
    <g id="line2d_74">
     <path d="M 624.724978 202.333439 
L 641.380978 202.333439 
" style="fill:none;stroke:#5784db;stroke-linecap:round;stroke-width:1.5;"/>
    </g>
    <g id="line2d_75"/>
    <g id="text_27">
     <!-- 5.32e+11 -->
     <g style="fill:#262626;" transform="translate(648.043378 205.248239)scale(0.08328 -0.08328)">
      <use xlink:href="#DejaVuSans-35"/>
      <use x="63.623047" xlink:href="#DejaVuSans-2e"/>
      <use x="95.410156" xlink:href="#DejaVuSans-33"/>
      <use x="159.033203" xlink:href="#DejaVuSans-32"/>
      <use x="222.65625" xlink:href="#DejaVuSans-65"/>
      <use x="284.179688" xlink:href="#DejaVuSans-2b"/>
      <use x="367.96875" xlink:href="#DejaVuSans-31"/>
      <use x="431.591797" xlink:href="#DejaVuSans-31"/>
     </g>
    </g>
    <g id="line2d_76">
     <path d="M 624.724978 214.557381 
L 641.380978 214.557381 
" style="fill:none;stroke:#575cdb;stroke-linecap:round;stroke-width:1.5;"/>
    </g>
    <g id="line2d_77"/>
    <g id="text_28">
     <!-- 1.45e+12 -->
     <g style="fill:#262626;" transform="translate(648.043378 217.472181)scale(0.08328 -0.08328)">
      <use xlink:href="#DejaVuSans-31"/>
      <use x="63.623047" xlink:href="#DejaVuSans-2e"/>
      <use x="95.410156" xlink:href="#DejaVuSans-34"/>
      <use x="159.033203" xlink:href="#DejaVuSans-35"/>
      <use x="222.65625" xlink:href="#DejaVuSans-65"/>
      <use x="284.179688" xlink:href="#DejaVuSans-2b"/>
      <use x="367.96875" xlink:href="#DejaVuSans-31"/>
      <use x="431.591797" xlink:href="#DejaVuSans-32"/>
     </g>
    </g>
    <g id="line2d_78">
     <path d="M 624.724978 226.781324 
L 641.380978 226.781324 
" style="fill:none;stroke:#7957db;stroke-linecap:round;stroke-width:1.5;"/>
    </g>
    <g id="line2d_79"/>
    <g id="text_29">
     <!-- 3.93e+12 -->
     <g style="fill:#262626;" transform="translate(648.043378 229.696124)scale(0.08328 -0.08328)">
      <use xlink:href="#DejaVuSans-33"/>
      <use x="63.623047" xlink:href="#DejaVuSans-2e"/>
      <use x="95.410156" xlink:href="#DejaVuSans-39"/>
      <use x="159.033203" xlink:href="#DejaVuSans-33"/>
      <use x="222.65625" xlink:href="#DejaVuSans-65"/>
      <use x="284.179688" xlink:href="#DejaVuSans-2b"/>
      <use x="367.96875" xlink:href="#DejaVuSans-31"/>
      <use x="431.591797" xlink:href="#DejaVuSans-32"/>
     </g>
    </g>
   </g>
  </g>
  <g id="axes_3">
   <g id="patch_13">
    <path d="M 39.835 539.426327 
L 333.52 539.426327 
L 333.52 305.48 
L 39.835 305.48 
z
" style="fill:#eaeaf2;"/>
   </g>
   <g id="matplotlib.axis_5">
    <g id="xtick_9">
     <g id="line2d_80">
      <path clip-path="url(#p6e076ce955)" d="M 53.184318 539.426327 
L 53.184318 305.48 
" style="fill:none;stroke:#ffffff;stroke-linecap:round;"/>
     </g>
     <g id="text_30">
      <!-- 0 -->
      <g style="fill:#262626;" transform="translate(49.684943 557.284609)scale(0.11 -0.11)">
       <use xlink:href="#DejaVuSans-30"/>
      </g>
     </g>
    </g>
    <g id="xtick_10">
     <g id="line2d_81">
      <path clip-path="url(#p6e076ce955)" d="M 126.333271 539.426327 
L 126.333271 305.48 
" style="fill:none;stroke:#ffffff;stroke-linecap:round;"/>
     </g>
     <g id="text_31">
      <!-- 10000 -->
      <g style="fill:#262626;" transform="translate(108.836396 557.284609)scale(0.11 -0.11)">
       <use xlink:href="#DejaVuSans-31"/>
       <use x="63.623047" xlink:href="#DejaVuSans-30"/>
       <use x="127.246094" xlink:href="#DejaVuSans-30"/>
       <use x="190.869141" xlink:href="#DejaVuSans-30"/>
       <use x="254.492188" xlink:href="#DejaVuSans-30"/>
      </g>
     </g>
    </g>
    <g id="xtick_11">
     <g id="line2d_82">
      <path clip-path="url(#p6e076ce955)" d="M 199.482224 539.426327 
L 199.482224 305.48 
" style="fill:none;stroke:#ffffff;stroke-linecap:round;"/>
     </g>
     <g id="text_32">
      <!-- 20000 -->
      <g style="fill:#262626;" transform="translate(181.985349 557.284609)scale(0.11 -0.11)">
       <use xlink:href="#DejaVuSans-32"/>
       <use x="63.623047" xlink:href="#DejaVuSans-30"/>
       <use x="127.246094" xlink:href="#DejaVuSans-30"/>
       <use x="190.869141" xlink:href="#DejaVuSans-30"/>
       <use x="254.492188" xlink:href="#DejaVuSans-30"/>
      </g>
     </g>
    </g>
    <g id="xtick_12">
     <g id="line2d_83">
      <path clip-path="url(#p6e076ce955)" d="M 272.631177 539.426327 
L 272.631177 305.48 
" style="fill:none;stroke:#ffffff;stroke-linecap:round;"/>
     </g>
     <g id="text_33">
      <!-- 30000 -->
      <g style="fill:#262626;" transform="translate(255.134302 557.284609)scale(0.11 -0.11)">
       <use xlink:href="#DejaVuSans-33"/>
       <use x="63.623047" xlink:href="#DejaVuSans-30"/>
       <use x="127.246094" xlink:href="#DejaVuSans-30"/>
       <use x="190.869141" xlink:href="#DejaVuSans-30"/>
       <use x="254.492188" xlink:href="#DejaVuSans-30"/>
      </g>
     </g>
    </g>
   </g>
   <g id="matplotlib.axis_6">
    <g id="ytick_12">
     <g id="line2d_84">
      <path clip-path="url(#p6e076ce955)" d="M 39.835 528.792403 
L 333.52 528.792403 
" style="fill:none;stroke:#ffffff;stroke-linecap:round;"/>
     </g>
     <g id="text_34">
      <!-- 0.0 -->
      <g style="fill:#262626;" transform="translate(12.841562 532.971544)scale(0.11 -0.11)">
       <use xlink:href="#DejaVuSans-30"/>
       <use x="63.623047" xlink:href="#DejaVuSans-2e"/>
       <use x="95.410156" xlink:href="#DejaVuSans-30"/>
      </g>
     </g>
    </g>
    <g id="ytick_13">
     <g id="line2d_85">
      <path clip-path="url(#p6e076ce955)" d="M 39.835 486.256707 
L 333.52 486.256707 
" style="fill:none;stroke:#ffffff;stroke-linecap:round;"/>
     </g>
     <g id="text_35">
      <!-- 0.2 -->
      <g style="fill:#262626;" transform="translate(12.841562 490.435848)scale(0.11 -0.11)">
       <use xlink:href="#DejaVuSans-30"/>
       <use x="63.623047" xlink:href="#DejaVuSans-2e"/>
       <use x="95.410156" xlink:href="#DejaVuSans-32"/>
      </g>
     </g>
    </g>
    <g id="ytick_14">
     <g id="line2d_86">
      <path clip-path="url(#p6e076ce955)" d="M 39.835 443.721012 
L 333.52 443.721012 
" style="fill:none;stroke:#ffffff;stroke-linecap:round;"/>
     </g>
     <g id="text_36">
      <!-- 0.4 -->
      <g style="fill:#262626;" transform="translate(12.841562 447.900152)scale(0.11 -0.11)">
       <use xlink:href="#DejaVuSans-30"/>
       <use x="63.623047" xlink:href="#DejaVuSans-2e"/>
       <use x="95.410156" xlink:href="#DejaVuSans-34"/>
      </g>
     </g>
    </g>
    <g id="ytick_15">
     <g id="line2d_87">
      <path clip-path="url(#p6e076ce955)" d="M 39.835 401.185316 
L 333.52 401.185316 
" style="fill:none;stroke:#ffffff;stroke-linecap:round;"/>
     </g>
     <g id="text_37">
      <!-- 0.6 -->
      <g style="fill:#262626;" transform="translate(12.841562 405.364456)scale(0.11 -0.11)">
       <use xlink:href="#DejaVuSans-30"/>
       <use x="63.623047" xlink:href="#DejaVuSans-2e"/>
       <use x="95.410156" xlink:href="#DejaVuSans-36"/>
      </g>
     </g>
    </g>
    <g id="ytick_16">
     <g id="line2d_88">
      <path clip-path="url(#p6e076ce955)" d="M 39.835 358.64962 
L 333.52 358.64962 
" style="fill:none;stroke:#ffffff;stroke-linecap:round;"/>
     </g>
     <g id="text_38">
      <!-- 0.8 -->
      <g style="fill:#262626;" transform="translate(12.841562 362.82876)scale(0.11 -0.11)">
       <use xlink:href="#DejaVuSans-30"/>
       <use x="63.623047" xlink:href="#DejaVuSans-2e"/>
       <use x="95.410156" xlink:href="#DejaVuSans-38"/>
      </g>
     </g>
    </g>
    <g id="ytick_17">
     <g id="line2d_89">
      <path clip-path="url(#p6e076ce955)" d="M 39.835 316.113924 
L 333.52 316.113924 
" style="fill:none;stroke:#ffffff;stroke-linecap:round;"/>
     </g>
     <g id="text_39">
      <!-- 1.0 -->
      <g style="fill:#262626;" transform="translate(12.841562 320.293065)scale(0.11 -0.11)">
       <use xlink:href="#DejaVuSans-31"/>
       <use x="63.623047" xlink:href="#DejaVuSans-2e"/>
       <use x="95.410156" xlink:href="#DejaVuSans-30"/>
      </g>
     </g>
    </g>
   </g>
   <g id="line2d_90">
    <path clip-path="url(#p6e076ce955)" d="M 53.184318 528.792403 
L 320.170682 528.792403 
L 320.170682 528.792403 
" style="fill:none;stroke:#db5f57;stroke-linecap:round;stroke-width:1.5;"/>
   </g>
   <g id="line2d_91">
    <path clip-path="url(#p6e076ce955)" d="M 53.184318 528.792403 
L 320.170682 528.792403 
L 320.170682 528.792403 
" style="fill:none;stroke:#db8657;stroke-linecap:round;stroke-width:1.5;"/>
   </g>
   <g id="line2d_92">
    <path clip-path="url(#p6e076ce955)" d="M 53.184318 528.792403 
L 320.170682 528.792268 
L 320.170682 528.792268 
" style="fill:none;stroke:#dbae57;stroke-linecap:round;stroke-width:1.5;"/>
   </g>
   <g id="line2d_93">
    <path clip-path="url(#p6e076ce955)" d="M 53.184318 528.792403 
L 320.170682 528.791388 
L 320.170682 528.791388 
" style="fill:none;stroke:#dbd657;stroke-linecap:round;stroke-width:1.5;"/>
   </g>
   <g id="line2d_94">
    <path clip-path="url(#p6e076ce955)" d="M 53.184318 528.792403 
L 320.170682 528.784684 
L 320.170682 528.784684 
" style="fill:none;stroke:#b9db57;stroke-linecap:round;stroke-width:1.5;"/>
   </g>
   <g id="line2d_95">
    <path clip-path="url(#p6e076ce955)" d="M 53.184318 528.792403 
L 320.170682 528.735325 
L 320.170682 528.735325 
" style="fill:none;stroke:#91db57;stroke-linecap:round;stroke-width:1.5;"/>
   </g>
   <g id="line2d_96">
    <path clip-path="url(#p6e076ce955)" d="M 53.184318 528.792403 
L 80.359154 528.681411 
L 86.979134 528.378314 
L 108.704374 528.371075 
L 320.170682 528.371075 
L 320.170682 528.371075 
" style="fill:none;stroke:#69db57;stroke-linecap:round;stroke-width:1.5;"/>
   </g>
   <g id="line2d_97">
    <path clip-path="url(#p6e076ce955)" d="M 53.184318 528.792403 
L 77.389307 528.681362 
L 79.027843 528.436199 
L 80.227486 528.032797 
L 81.544167 527.334736 
L 83.453355 526.337013 
L 84.660313 525.987647 
L 86.189126 525.794325 
L 88.939526 525.710707 
L 102.508657 525.698822 
L 320.170682 525.698821 
L 320.170682 525.698821 
" style="fill:none;stroke:#57db6c;stroke-linecap:round;stroke-width:1.5;"/>
   </g>
   <g id="line2d_98">
    <path clip-path="url(#p6e076ce955)" d="M 53.184318 528.792403 
L 74.726685 528.681521 
L 76.248183 528.442031 
L 77.213749 528.072662 
L 77.959869 527.551438 
L 78.618209 526.814122 
L 79.24729 525.762913 
L 79.898316 524.219181 
L 80.63712 521.85118 
L 81.734355 517.460487 
L 83.014461 512.592826 
L 83.797155 510.460674 
L 84.499385 509.151677 
L 85.1943 508.304663 
L 85.933104 507.747107 
L 86.803577 507.374843 
L 87.95933 507.13785 
L 89.831944 507.00918 
L 94.710979 506.969746 
L 247.884886 506.96879 
L 320.170682 506.96879 
L 320.170682 506.96879 
" style="fill:none;stroke:#57db94;stroke-linecap:round;stroke-width:1.5;"/>
   </g>
   <g id="line2d_99">
    <path clip-path="url(#p6e076ce955)" d="M 53.184318 528.792403 
L 72.100637 528.681592 
L 73.607506 528.442991 
L 74.551127 528.076447 
L 75.267987 527.560124 
L 75.882438 526.834406 
L 76.445685 525.808223 
L 76.986987 524.337034 
L 77.52829 522.181017 
L 78.076907 519.01846 
L 78.640154 514.390702 
L 79.239975 507.498425 
L 79.905631 497.104109 
L 80.754159 479.992067 
L 82.72918 438.893448 
L 83.46067 428.849349 
L 84.11901 422.643451 
L 84.748091 418.679833 
L 85.362543 416.140304 
L 85.969679 414.514966 
L 86.591445 413.452827 
L 87.249786 412.754127 
L 87.995905 412.28651 
L 88.924897 411.97621 
L 90.256208 411.784541 
L 92.714012 411.692918 
L 102.881717 411.676546 
L 320.170682 411.67654 
L 320.170682 411.67654 
" style="fill:none;stroke:#57dbbb;stroke-linecap:round;stroke-width:1.5;"/>
   </g>
   <g id="line2d_100">
    <path clip-path="url(#p6e076ce955)" d="M 53.184318 528.792403 
L 69.481905 528.681442 
L 70.988773 528.442096 
L 71.92508 528.077274 
L 72.634625 527.565152 
L 73.241761 526.845957 
L 73.797693 525.826503 
L 74.331681 524.354684 
L 74.858353 522.204113 
L 75.385025 519.044254 
L 75.911698 514.440377 
L 76.445685 507.705967 
L 77.001617 497.682732 
L 77.586809 482.816794 
L 78.23052 460.389865 
L 79.049788 423.178767 
L 80.571286 353.107937 
L 81.163793 336.342015 
L 81.675835 327.547142 
L 82.151304 322.822311 
L 82.619457 320.205236 
L 83.08761 318.751741 
L 83.577708 317.908909 
L 84.126325 317.394619 
L 84.813925 317.062825 
L 85.808751 316.848894 
L 87.578956 316.728448 
L 92.53114 316.69087 
L 266.515925 316.69003 
L 320.170682 316.69003 
L 320.170682 316.69003 
" style="fill:none;stroke:#57d3db;stroke-linecap:round;stroke-width:1.5;"/>
   </g>
   <g id="line2d_101">
    <path clip-path="url(#p6e076ce955)" d="M 53.184318 528.792403 
L 66.863172 528.681349 
L 68.362726 528.443688 
L 69.299033 528.080341 
L 70.008577 527.569978 
L 70.615714 526.852638 
L 71.171646 525.834581 
L 71.705633 524.362222 
L 72.224991 522.241501 
L 72.744348 519.13048 
L 73.263706 514.596075 
L 73.790378 507.939978 
L 74.331681 498.107475 
L 74.894927 483.569368 
L 75.502064 461.729891 
L 76.211609 427.461824 
L 78.069592 332.634917 
L 78.515801 322.476879 
L 78.88886 318.370651 
L 79.218031 316.842367 
L 79.525256 316.319881 
L 79.876371 316.151073 
L 80.644435 316.114234 
L 132.411949 316.113924 
L 320.170682 316.113924 
L 320.170682 316.113924 
" style="fill:none;stroke:#57acdb;stroke-linecap:round;stroke-width:1.5;"/>
   </g>
   <g id="line2d_102">
    <path clip-path="url(#p6e076ce955)" d="M 53.184318 528.792403 
L 64.24444 528.68128 
L 65.743993 528.443421 
L 66.6803 528.079751 
L 67.389845 527.568894 
L 67.996981 526.850779 
L 68.552913 525.831462 
L 69.086901 524.356948 
L 69.606258 522.23243 
L 70.125616 519.114363 
L 70.644973 514.566539 
L 71.171646 507.883987 
L 71.712948 497.997737 
L 72.276195 483.348365 
L 72.876016 461.580891 
L 73.578246 427.284046 
L 75.443545 330.728631 
L 75.867809 321.42308 
L 76.218923 317.850265 
L 76.526149 316.612792 
L 76.818745 316.227444 
L 77.191805 316.124152 
L 78.844971 316.113924 
L 320.170682 316.113924 
L 320.170682 316.113924 
" style="fill:none;stroke:#5784db;stroke-linecap:round;stroke-width:1.5;"/>
   </g>
   <g id="line2d_103">
    <path clip-path="url(#p6e076ce955)" d="M 53.184318 528.792403 
L 61.633022 528.680722 
L 63.132576 528.441342 
L 64.068882 528.075346 
L 64.778427 527.561222 
L 65.385564 526.838518 
L 65.941496 525.812692 
L 66.475483 524.328773 
L 66.994841 522.190726 
L 67.514198 519.052852 
L 68.033556 514.476255 
L 68.560228 507.751705 
L 69.10153 497.804039 
L 69.664777 483.065632 
L 70.271914 460.861356 
L 70.974144 426.294595 
L 72.802867 331.074877 
L 73.227131 321.542682 
L 73.578246 317.875753 
L 73.885472 316.61175 
L 74.178068 316.223757 
L 74.543812 316.123616 
L 76.226238 316.113924 
L 320.170682 316.113924 
L 320.170682 316.113924 
" style="fill:none;stroke:#575cdb;stroke-linecap:round;stroke-width:1.5;"/>
   </g>
   <g id="line2d_104">
    <path clip-path="url(#p6e076ce955)" d="M 53.184318 528.792403 
L 59.080124 528.675994 
L 60.550418 528.432245 
L 61.472095 528.063795 
L 62.174325 527.547565 
L 62.774146 526.827183 
L 63.330078 525.794855 
L 63.864065 524.30158 
L 64.383423 522.150161 
L 64.90278 518.992892 
L 65.422138 514.38851 
L 65.94881 507.624242 
L 66.490113 497.620343 
L 67.05336 482.804519 
L 67.660496 460.498345 
L 68.370041 425.409261 
L 70.169505 331.451733 
L 70.601084 321.612023 
L 70.952199 317.901738 
L 71.259424 316.619648 
L 71.55202 316.225477 
L 71.917765 316.123731 
L 73.578246 316.113924 
L 320.170682 316.113924 
L 320.170682 316.113924 
" style="fill:none;stroke:#7957db;stroke-linecap:round;stroke-width:1.5;"/>
   </g>
   <g id="patch_14">
    <path d="M 39.835 539.426327 
L 39.835 305.48 
" style="fill:none;stroke:#ffffff;stroke-linecap:square;stroke-linejoin:miter;stroke-width:1.25;"/>
   </g>
   <g id="patch_15">
    <path d="M 333.52 539.426327 
L 333.52 305.48 
" style="fill:none;stroke:#ffffff;stroke-linecap:square;stroke-linejoin:miter;stroke-width:1.25;"/>
   </g>
   <g id="patch_16">
    <path d="M 39.835 539.426327 
L 333.52 539.426327 
" style="fill:none;stroke:#ffffff;stroke-linecap:square;stroke-linejoin:miter;stroke-width:1.25;"/>
   </g>
   <g id="patch_17">
    <path d="M 39.835 305.48 
L 333.52 305.48 
" style="fill:none;stroke:#ffffff;stroke-linecap:square;stroke-linejoin:miter;stroke-width:1.25;"/>
   </g>
  </g>
  <g id="axes_4">
   <g id="patch_18">
    <path d="M 407.355 539.426327 
L 701.04 539.426327 
L 701.04 305.48 
L 407.355 305.48 
z
" style="fill:#eaeaf2;"/>
   </g>
   <g id="matplotlib.axis_7">
    <g id="xtick_13">
     <g id="line2d_105">
      <path clip-path="url(#p3e7e746f3f)" d="M 420.704318 539.426327 
L 420.704318 305.48 
" style="fill:none;stroke:#ffffff;stroke-linecap:round;"/>
     </g>
     <g id="text_40">
      <!-- 0 -->
      <g style="fill:#262626;" transform="translate(417.204943 557.284609)scale(0.11 -0.11)">
       <use xlink:href="#DejaVuSans-30"/>
      </g>
     </g>
    </g>
    <g id="xtick_14">
     <g id="line2d_106">
      <path clip-path="url(#p3e7e746f3f)" d="M 493.853271 539.426327 
L 493.853271 305.48 
" style="fill:none;stroke:#ffffff;stroke-linecap:round;"/>
     </g>
     <g id="text_41">
      <!-- 10000 -->
      <g style="fill:#262626;" transform="translate(476.356396 557.284609)scale(0.11 -0.11)">
       <use xlink:href="#DejaVuSans-31"/>
       <use x="63.623047" xlink:href="#DejaVuSans-30"/>
       <use x="127.246094" xlink:href="#DejaVuSans-30"/>
       <use x="190.869141" xlink:href="#DejaVuSans-30"/>
       <use x="254.492188" xlink:href="#DejaVuSans-30"/>
      </g>
     </g>
    </g>
    <g id="xtick_15">
     <g id="line2d_107">
      <path clip-path="url(#p3e7e746f3f)" d="M 567.002224 539.426327 
L 567.002224 305.48 
" style="fill:none;stroke:#ffffff;stroke-linecap:round;"/>
     </g>
     <g id="text_42">
      <!-- 20000 -->
      <g style="fill:#262626;" transform="translate(549.505349 557.284609)scale(0.11 -0.11)">
       <use xlink:href="#DejaVuSans-32"/>
       <use x="63.623047" xlink:href="#DejaVuSans-30"/>
       <use x="127.246094" xlink:href="#DejaVuSans-30"/>
       <use x="190.869141" xlink:href="#DejaVuSans-30"/>
       <use x="254.492188" xlink:href="#DejaVuSans-30"/>
      </g>
     </g>
    </g>
    <g id="xtick_16">
     <g id="line2d_108">
      <path clip-path="url(#p3e7e746f3f)" d="M 640.151177 539.426327 
L 640.151177 305.48 
" style="fill:none;stroke:#ffffff;stroke-linecap:round;"/>
     </g>
     <g id="text_43">
      <!-- 30000 -->
      <g style="fill:#262626;" transform="translate(622.654302 557.284609)scale(0.11 -0.11)">
       <use xlink:href="#DejaVuSans-33"/>
       <use x="63.623047" xlink:href="#DejaVuSans-30"/>
       <use x="127.246094" xlink:href="#DejaVuSans-30"/>
       <use x="190.869141" xlink:href="#DejaVuSans-30"/>
       <use x="254.492188" xlink:href="#DejaVuSans-30"/>
      </g>
     </g>
    </g>
   </g>
   <g id="matplotlib.axis_8">
    <g id="ytick_18">
     <g id="line2d_109">
      <path clip-path="url(#p3e7e746f3f)" d="M 407.355 528.792403 
L 701.04 528.792403 
" style="fill:none;stroke:#ffffff;stroke-linecap:round;"/>
     </g>
     <g id="text_44">
      <!-- 0.00000 -->
      <g style="fill:#262626;" transform="translate(352.366562 532.971544)scale(0.11 -0.11)">
       <use xlink:href="#DejaVuSans-30"/>
       <use x="63.623047" xlink:href="#DejaVuSans-2e"/>
       <use x="95.410156" xlink:href="#DejaVuSans-30"/>
       <use x="159.033203" xlink:href="#DejaVuSans-30"/>
       <use x="222.65625" xlink:href="#DejaVuSans-30"/>
       <use x="286.279297" xlink:href="#DejaVuSans-30"/>
       <use x="349.902344" xlink:href="#DejaVuSans-30"/>
      </g>
     </g>
    </g>
    <g id="ytick_19">
     <g id="line2d_110">
      <path clip-path="url(#p3e7e746f3f)" d="M 407.355 489.169578 
L 701.04 489.169578 
" style="fill:none;stroke:#ffffff;stroke-linecap:round;"/>
     </g>
     <g id="text_45">
      <!-- 0.00005 -->
      <g style="fill:#262626;" transform="translate(352.366562 493.348718)scale(0.11 -0.11)">
       <use xlink:href="#DejaVuSans-30"/>
       <use x="63.623047" xlink:href="#DejaVuSans-2e"/>
       <use x="95.410156" xlink:href="#DejaVuSans-30"/>
       <use x="159.033203" xlink:href="#DejaVuSans-30"/>
       <use x="222.65625" xlink:href="#DejaVuSans-30"/>
       <use x="286.279297" xlink:href="#DejaVuSans-30"/>
       <use x="349.902344" xlink:href="#DejaVuSans-35"/>
      </g>
     </g>
    </g>
    <g id="ytick_20">
     <g id="line2d_111">
      <path clip-path="url(#p3e7e746f3f)" d="M 407.355 449.546752 
L 701.04 449.546752 
" style="fill:none;stroke:#ffffff;stroke-linecap:round;"/>
     </g>
     <g id="text_46">
      <!-- 0.00010 -->
      <g style="fill:#262626;" transform="translate(352.366562 453.725893)scale(0.11 -0.11)">
       <use xlink:href="#DejaVuSans-30"/>
       <use x="63.623047" xlink:href="#DejaVuSans-2e"/>
       <use x="95.410156" xlink:href="#DejaVuSans-30"/>
       <use x="159.033203" xlink:href="#DejaVuSans-30"/>
       <use x="222.65625" xlink:href="#DejaVuSans-30"/>
       <use x="286.279297" xlink:href="#DejaVuSans-31"/>
       <use x="349.902344" xlink:href="#DejaVuSans-30"/>
      </g>
     </g>
    </g>
    <g id="ytick_21">
     <g id="line2d_112">
      <path clip-path="url(#p3e7e746f3f)" d="M 407.355 409.923927 
L 701.04 409.923927 
" style="fill:none;stroke:#ffffff;stroke-linecap:round;"/>
     </g>
     <g id="text_47">
      <!-- 0.00015 -->
      <g style="fill:#262626;" transform="translate(352.366562 414.103067)scale(0.11 -0.11)">
       <use xlink:href="#DejaVuSans-30"/>
       <use x="63.623047" xlink:href="#DejaVuSans-2e"/>
       <use x="95.410156" xlink:href="#DejaVuSans-30"/>
       <use x="159.033203" xlink:href="#DejaVuSans-30"/>
       <use x="222.65625" xlink:href="#DejaVuSans-30"/>
       <use x="286.279297" xlink:href="#DejaVuSans-31"/>
       <use x="349.902344" xlink:href="#DejaVuSans-35"/>
      </g>
     </g>
    </g>
    <g id="ytick_22">
     <g id="line2d_113">
      <path clip-path="url(#p3e7e746f3f)" d="M 407.355 370.301101 
L 701.04 370.301101 
" style="fill:none;stroke:#ffffff;stroke-linecap:round;"/>
     </g>
     <g id="text_48">
      <!-- 0.00020 -->
      <g style="fill:#262626;" transform="translate(352.366562 374.480242)scale(0.11 -0.11)">
       <use xlink:href="#DejaVuSans-30"/>
       <use x="63.623047" xlink:href="#DejaVuSans-2e"/>
       <use x="95.410156" xlink:href="#DejaVuSans-30"/>
       <use x="159.033203" xlink:href="#DejaVuSans-30"/>
       <use x="222.65625" xlink:href="#DejaVuSans-30"/>
       <use x="286.279297" xlink:href="#DejaVuSans-32"/>
       <use x="349.902344" xlink:href="#DejaVuSans-30"/>
      </g>
     </g>
    </g>
    <g id="ytick_23">
     <g id="line2d_114">
      <path clip-path="url(#p3e7e746f3f)" d="M 407.355 330.678276 
L 701.04 330.678276 
" style="fill:none;stroke:#ffffff;stroke-linecap:round;"/>
     </g>
     <g id="text_49">
      <!-- 0.00025 -->
      <g style="fill:#262626;" transform="translate(352.366562 334.857416)scale(0.11 -0.11)">
       <use xlink:href="#DejaVuSans-30"/>
       <use x="63.623047" xlink:href="#DejaVuSans-2e"/>
       <use x="95.410156" xlink:href="#DejaVuSans-30"/>
       <use x="159.033203" xlink:href="#DejaVuSans-30"/>
       <use x="222.65625" xlink:href="#DejaVuSans-30"/>
       <use x="286.279297" xlink:href="#DejaVuSans-32"/>
       <use x="349.902344" xlink:href="#DejaVuSans-35"/>
      </g>
     </g>
    </g>
   </g>
   <g id="line2d_115">
    <path clip-path="url(#p3e7e746f3f)" d="M 420.704318 528.792403 
L 687.690682 528.792403 
L 687.690682 528.792403 
" style="fill:none;stroke:#db5f57;stroke-linecap:round;stroke-width:1.5;"/>
   </g>
   <g id="line2d_116">
    <path clip-path="url(#p3e7e746f3f)" d="M 420.704318 528.792403 
L 687.690682 528.792403 
L 687.690682 528.792403 
" style="fill:none;stroke:#db8657;stroke-linecap:round;stroke-width:1.5;"/>
   </g>
   <g id="line2d_117">
    <path clip-path="url(#p3e7e746f3f)" d="M 420.704318 528.792403 
L 687.690682 528.792403 
L 687.690682 528.792403 
" style="fill:none;stroke:#dbae57;stroke-linecap:round;stroke-width:1.5;"/>
   </g>
   <g id="line2d_118">
    <path clip-path="url(#p3e7e746f3f)" d="M 420.704318 528.792403 
L 687.690682 528.792403 
L 687.690682 528.792403 
" style="fill:none;stroke:#dbd657;stroke-linecap:round;stroke-width:1.5;"/>
   </g>
   <g id="line2d_119">
    <path clip-path="url(#p3e7e746f3f)" d="M 420.704318 528.792403 
L 687.690682 528.792403 
L 687.690682 528.792403 
" style="fill:none;stroke:#b9db57;stroke-linecap:round;stroke-width:1.5;"/>
   </g>
   <g id="line2d_120">
    <path clip-path="url(#p3e7e746f3f)" d="M 420.704318 528.792403 
L 687.690682 528.792403 
L 687.690682 528.792403 
" style="fill:none;stroke:#91db57;stroke-linecap:round;stroke-width:1.5;"/>
   </g>
   <g id="line2d_121">
    <path clip-path="url(#p3e7e746f3f)" d="M 420.704318 528.792403 
L 687.690682 528.792403 
L 687.690682 528.792403 
" style="fill:none;stroke:#69db57;stroke-linecap:round;stroke-width:1.5;"/>
   </g>
   <g id="line2d_122">
    <path clip-path="url(#p3e7e746f3f)" d="M 420.704318 528.792403 
L 687.690682 528.792403 
L 687.690682 528.792403 
" style="fill:none;stroke:#57db6c;stroke-linecap:round;stroke-width:1.5;"/>
   </g>
   <g id="line2d_123">
    <path clip-path="url(#p3e7e746f3f)" d="M 420.704318 528.792403 
L 687.690682 528.792403 
L 687.690682 528.792403 
" style="fill:none;stroke:#57db94;stroke-linecap:round;stroke-width:1.5;"/>
   </g>
   <g id="line2d_124">
    <path clip-path="url(#p3e7e746f3f)" d="M 420.704318 528.792403 
L 687.690682 528.792403 
L 687.690682 528.792403 
" style="fill:none;stroke:#57dbbb;stroke-linecap:round;stroke-width:1.5;"/>
   </g>
   <g id="line2d_125">
    <path clip-path="url(#p3e7e746f3f)" d="M 420.704318 528.792403 
L 687.690682 528.792403 
L 687.690682 528.792403 
" style="fill:none;stroke:#57d3db;stroke-linecap:round;stroke-width:1.5;"/>
   </g>
   <g id="line2d_126">
    <path clip-path="url(#p3e7e746f3f)" d="M 420.704318 528.792403 
L 687.690682 528.792403 
L 687.690682 528.792403 
" style="fill:none;stroke:#57acdb;stroke-linecap:round;stroke-width:1.5;"/>
   </g>
   <g id="line2d_127">
    <path clip-path="url(#p3e7e746f3f)" d="M 420.704318 528.792403 
L 687.690682 528.792403 
L 687.690682 528.792403 
" style="fill:none;stroke:#5784db;stroke-linecap:round;stroke-width:1.5;"/>
   </g>
   <g id="line2d_128">
    <path clip-path="url(#p3e7e746f3f)" d="M 420.704318 528.792403 
L 445.904132 528.681554 
L 447.725541 528.427386 
L 449.759082 527.882612 
L 451.573176 527.493207 
L 453.496994 527.333567 
L 457.520186 527.281077 
L 514.722668 527.278476 
L 687.690682 527.278476 
L 687.690682 527.278476 
" style="fill:none;stroke:#575cdb;stroke-linecap:round;stroke-width:1.5;"/>
   </g>
   <g id="line2d_129">
    <path clip-path="url(#p3e7e746f3f)" d="M 420.704318 528.792403 
L 439.328042 528.681559 
L 440.83491 528.442595 
L 441.771217 528.07869 
L 442.480761 527.568538 
L 443.087898 526.853448 
L 443.64383 525.842478 
L 444.177817 524.38837 
L 444.70449 522.275139 
L 445.231162 519.194377 
L 445.765149 514.682531 
L 446.321082 507.950064 
L 446.898958 498.054779 
L 447.528039 483.15319 
L 448.252214 460.272389 
L 449.356763 417.064249 
L 450.600295 371.075137 
L 451.368359 350.575944 
L 452.04133 338.11664 
L 452.677726 330.177914 
L 453.292177 325.113835 
L 453.891998 321.883218 
L 454.49182 319.791213 
L 455.098956 318.436247 
L 455.728037 317.552752 
L 456.415637 316.964998 
L 457.220276 316.573647 
L 458.280935 316.317808 
L 459.941417 316.170948 
L 463.723217 316.117052 
L 511.42365 316.113924 
L 687.690682 316.113924 
L 687.690682 316.113924 
" style="fill:none;stroke:#7957db;stroke-linecap:round;stroke-width:1.5;"/>
   </g>
   <g id="patch_19">
    <path d="M 407.355 539.426327 
L 407.355 305.48 
" style="fill:none;stroke:#ffffff;stroke-linecap:square;stroke-linejoin:miter;stroke-width:1.25;"/>
   </g>
   <g id="patch_20">
    <path d="M 701.04 539.426327 
L 701.04 305.48 
" style="fill:none;stroke:#ffffff;stroke-linecap:square;stroke-linejoin:miter;stroke-width:1.25;"/>
   </g>
   <g id="patch_21">
    <path d="M 407.355 539.426327 
L 701.04 539.426327 
" style="fill:none;stroke:#ffffff;stroke-linecap:square;stroke-linejoin:miter;stroke-width:1.25;"/>
   </g>
   <g id="patch_22">
    <path d="M 407.355 305.48 
L 701.04 305.48 
" style="fill:none;stroke:#ffffff;stroke-linecap:square;stroke-linejoin:miter;stroke-width:1.25;"/>
   </g>
   <g id="legend_2">
    <g id="patch_23">
     <path d="M 610.68795 523.270807 
L 695.2104 523.270807 
Q 696.876 523.270807 696.876 521.605207 
L 696.876 323.30112 
Q 696.876 321.63552 695.2104 321.63552 
L 610.68795 321.63552 
Q 609.02235 321.63552 609.02235 323.30112 
L 609.02235 521.605207 
Q 609.02235 523.270807 610.68795 523.270807 
z
" style="fill:#eaeaf2;opacity:0.5;stroke:#cccccc;stroke-linejoin:miter;"/>
    </g>
    <g id="text_50">
     <!-- Mutation rate -->
     <defs>
      <path d="M 9.8125 72.90625 
L 24.515625 72.90625 
L 43.109375 23.296875 
L 61.8125 72.90625 
L 76.515625 72.90625 
L 76.515625 0 
L 66.890625 0 
L 66.890625 64.015625 
L 48.09375 14.015625 
L 38.1875 14.015625 
L 19.390625 64.015625 
L 19.390625 0 
L 9.8125 0 
z
" id="DejaVuSans-4d"/>
      <path d="M 18.3125 70.21875 
L 18.3125 54.6875 
L 36.8125 54.6875 
L 36.8125 47.703125 
L 18.3125 47.703125 
L 18.3125 18.015625 
Q 18.3125 11.328125 20.140625 9.421875 
Q 21.96875 7.515625 27.59375 7.515625 
L 36.8125 7.515625 
L 36.8125 0 
L 27.59375 0 
Q 17.1875 0 13.234375 3.875 
Q 9.28125 7.765625 9.28125 18.015625 
L 9.28125 47.703125 
L 2.6875 47.703125 
L 2.6875 54.6875 
L 9.28125 54.6875 
L 9.28125 70.21875 
z
" id="DejaVuSans-74"/>
      <path d="M 34.28125 27.484375 
Q 23.390625 27.484375 19.1875 25 
Q 14.984375 22.515625 14.984375 16.5 
Q 14.984375 11.71875 18.140625 8.90625 
Q 21.296875 6.109375 26.703125 6.109375 
Q 34.1875 6.109375 38.703125 11.40625 
Q 43.21875 16.703125 43.21875 25.484375 
L 43.21875 27.484375 
z
M 52.203125 31.203125 
L 52.203125 0 
L 43.21875 0 
L 43.21875 8.296875 
Q 40.140625 3.328125 35.546875 0.953125 
Q 30.953125 -1.421875 24.3125 -1.421875 
Q 15.921875 -1.421875 10.953125 3.296875 
Q 6 8.015625 6 15.921875 
Q 6 25.140625 12.171875 29.828125 
Q 18.359375 34.515625 30.609375 34.515625 
L 43.21875 34.515625 
L 43.21875 35.40625 
Q 43.21875 41.609375 39.140625 45 
Q 35.0625 48.390625 27.6875 48.390625 
Q 23 48.390625 18.546875 47.265625 
Q 14.109375 46.140625 10.015625 43.890625 
L 10.015625 52.203125 
Q 14.9375 54.109375 19.578125 55.046875 
Q 24.21875 56 28.609375 56 
Q 40.484375 56 46.34375 49.84375 
Q 52.203125 43.703125 52.203125 31.203125 
z
" id="DejaVuSans-61"/>
      <path d="M 9.421875 54.6875 
L 18.40625 54.6875 
L 18.40625 0 
L 9.421875 0 
z
M 9.421875 75.984375 
L 18.40625 75.984375 
L 18.40625 64.59375 
L 9.421875 64.59375 
z
" id="DejaVuSans-69"/>
      <path d="M 30.609375 48.390625 
Q 23.390625 48.390625 19.1875 42.75 
Q 14.984375 37.109375 14.984375 27.296875 
Q 14.984375 17.484375 19.15625 11.84375 
Q 23.34375 6.203125 30.609375 6.203125 
Q 37.796875 6.203125 41.984375 11.859375 
Q 46.1875 17.53125 46.1875 27.296875 
Q 46.1875 37.015625 41.984375 42.703125 
Q 37.796875 48.390625 30.609375 48.390625 
z
M 30.609375 56 
Q 42.328125 56 49.015625 48.375 
Q 55.71875 40.765625 55.71875 27.296875 
Q 55.71875 13.875 49.015625 6.21875 
Q 42.328125 -1.421875 30.609375 -1.421875 
Q 18.84375 -1.421875 12.171875 6.21875 
Q 5.515625 13.875 5.515625 27.296875 
Q 5.515625 40.765625 12.171875 48.375 
Q 18.84375 56 30.609375 56 
z
" id="DejaVuSans-6f"/>
     </defs>
     <g style="fill:#262626;" transform="translate(612.35355 334.084845)scale(0.12 -0.12)">
      <use xlink:href="#DejaVuSans-4d"/>
      <use x="86.279297" xlink:href="#DejaVuSans-75"/>
      <use x="149.658203" xlink:href="#DejaVuSans-74"/>
      <use x="188.867188" xlink:href="#DejaVuSans-61"/>
      <use x="250.146484" xlink:href="#DejaVuSans-74"/>
      <use x="289.355469" xlink:href="#DejaVuSans-69"/>
      <use x="317.138672" xlink:href="#DejaVuSans-6f"/>
      <use x="378.320312" xlink:href="#DejaVuSans-6e"/>
      <use x="441.699219" xlink:href="#DejaVuSans-20"/>
      <use x="473.486328" xlink:href="#DejaVuSans-72"/>
      <use x="514.599609" xlink:href="#DejaVuSans-61"/>
      <use x="575.878906" xlink:href="#DejaVuSans-74"/>
      <use x="615.087891" xlink:href="#DejaVuSans-65"/>
     </g>
    </g>
    <g id="line2d_130">
     <path d="M 622.655424 344.157649 
L 639.311424 344.157649 
" style="fill:none;stroke:#db5f57;stroke-linecap:round;stroke-width:1.5;"/>
    </g>
    <g id="line2d_131"/>
    <g id="text_51">
     <!-- 2.06e-09 -->
     <defs>
      <path d="M 4.890625 31.390625 
L 31.203125 31.390625 
L 31.203125 23.390625 
L 4.890625 23.390625 
z
" id="DejaVuSans-2d"/>
     </defs>
     <g style="fill:#262626;" transform="translate(645.973824 347.072449)scale(0.08328 -0.08328)">
      <use xlink:href="#DejaVuSans-32"/>
      <use x="63.623047" xlink:href="#DejaVuSans-2e"/>
      <use x="95.410156" xlink:href="#DejaVuSans-30"/>
      <use x="159.033203" xlink:href="#DejaVuSans-36"/>
      <use x="222.65625" xlink:href="#DejaVuSans-65"/>
      <use x="284.179688" xlink:href="#DejaVuSans-2d"/>
      <use x="320.263672" xlink:href="#DejaVuSans-30"/>
      <use x="383.886719" xlink:href="#DejaVuSans-39"/>
     </g>
    </g>
    <g id="line2d_132">
     <path d="M 622.655424 356.381591 
L 639.311424 356.381591 
" style="fill:none;stroke:#db8657;stroke-linecap:round;stroke-width:1.5;"/>
    </g>
    <g id="line2d_133"/>
    <g id="text_52">
     <!-- 5.60e-09 -->
     <g style="fill:#262626;" transform="translate(645.973824 359.296391)scale(0.08328 -0.08328)">
      <use xlink:href="#DejaVuSans-35"/>
      <use x="63.623047" xlink:href="#DejaVuSans-2e"/>
      <use x="95.410156" xlink:href="#DejaVuSans-36"/>
      <use x="159.033203" xlink:href="#DejaVuSans-30"/>
      <use x="222.65625" xlink:href="#DejaVuSans-65"/>
      <use x="284.179688" xlink:href="#DejaVuSans-2d"/>
      <use x="320.263672" xlink:href="#DejaVuSans-30"/>
      <use x="383.886719" xlink:href="#DejaVuSans-39"/>
     </g>
    </g>
    <g id="line2d_134">
     <path d="M 622.655424 368.605534 
L 639.311424 368.605534 
" style="fill:none;stroke:#dbae57;stroke-linecap:round;stroke-width:1.5;"/>
    </g>
    <g id="line2d_135"/>
    <g id="text_53">
     <!-- 1.52e-08 -->
     <g style="fill:#262626;" transform="translate(645.973824 371.520334)scale(0.08328 -0.08328)">
      <use xlink:href="#DejaVuSans-31"/>
      <use x="63.623047" xlink:href="#DejaVuSans-2e"/>
      <use x="95.410156" xlink:href="#DejaVuSans-35"/>
      <use x="159.033203" xlink:href="#DejaVuSans-32"/>
      <use x="222.65625" xlink:href="#DejaVuSans-65"/>
      <use x="284.179688" xlink:href="#DejaVuSans-2d"/>
      <use x="320.263672" xlink:href="#DejaVuSans-30"/>
      <use x="383.886719" xlink:href="#DejaVuSans-38"/>
     </g>
    </g>
    <g id="line2d_136">
     <path d="M 622.655424 380.829476 
L 639.311424 380.829476 
" style="fill:none;stroke:#dbd657;stroke-linecap:round;stroke-width:1.5;"/>
    </g>
    <g id="line2d_137"/>
    <g id="text_54">
     <!-- 4.14e-08 -->
     <g style="fill:#262626;" transform="translate(645.973824 383.744276)scale(0.08328 -0.08328)">
      <use xlink:href="#DejaVuSans-34"/>
      <use x="63.623047" xlink:href="#DejaVuSans-2e"/>
      <use x="95.410156" xlink:href="#DejaVuSans-31"/>
      <use x="159.033203" xlink:href="#DejaVuSans-34"/>
      <use x="222.65625" xlink:href="#DejaVuSans-65"/>
      <use x="284.179688" xlink:href="#DejaVuSans-2d"/>
      <use x="320.263672" xlink:href="#DejaVuSans-30"/>
      <use x="383.886719" xlink:href="#DejaVuSans-38"/>
     </g>
    </g>
    <g id="line2d_138">
     <path d="M 622.655424 393.053419 
L 639.311424 393.053419 
" style="fill:none;stroke:#b9db57;stroke-linecap:round;stroke-width:1.5;"/>
    </g>
    <g id="line2d_139"/>
    <g id="text_55">
     <!-- 1.13e-07 -->
     <g style="fill:#262626;" transform="translate(645.973824 395.968219)scale(0.08328 -0.08328)">
      <use xlink:href="#DejaVuSans-31"/>
      <use x="63.623047" xlink:href="#DejaVuSans-2e"/>
      <use x="95.410156" xlink:href="#DejaVuSans-31"/>
      <use x="159.033203" xlink:href="#DejaVuSans-33"/>
      <use x="222.65625" xlink:href="#DejaVuSans-65"/>
      <use x="284.179688" xlink:href="#DejaVuSans-2d"/>
      <use x="320.263672" xlink:href="#DejaVuSans-30"/>
      <use x="383.886719" xlink:href="#DejaVuSans-37"/>
     </g>
    </g>
    <g id="line2d_140">
     <path d="M 622.655424 405.277361 
L 639.311424 405.277361 
" style="fill:none;stroke:#91db57;stroke-linecap:round;stroke-width:1.5;"/>
    </g>
    <g id="line2d_141"/>
    <g id="text_56">
     <!-- 3.06e-07 -->
     <g style="fill:#262626;" transform="translate(645.973824 408.192161)scale(0.08328 -0.08328)">
      <use xlink:href="#DejaVuSans-33"/>
      <use x="63.623047" xlink:href="#DejaVuSans-2e"/>
      <use x="95.410156" xlink:href="#DejaVuSans-30"/>
      <use x="159.033203" xlink:href="#DejaVuSans-36"/>
      <use x="222.65625" xlink:href="#DejaVuSans-65"/>
      <use x="284.179688" xlink:href="#DejaVuSans-2d"/>
      <use x="320.263672" xlink:href="#DejaVuSans-30"/>
      <use x="383.886719" xlink:href="#DejaVuSans-37"/>
     </g>
    </g>
    <g id="line2d_142">
     <path d="M 622.655424 417.501304 
L 639.311424 417.501304 
" style="fill:none;stroke:#69db57;stroke-linecap:round;stroke-width:1.5;"/>
    </g>
    <g id="line2d_143"/>
    <g id="text_57">
     <!-- 8.32e-07 -->
     <g style="fill:#262626;" transform="translate(645.973824 420.416104)scale(0.08328 -0.08328)">
      <use xlink:href="#DejaVuSans-38"/>
      <use x="63.623047" xlink:href="#DejaVuSans-2e"/>
      <use x="95.410156" xlink:href="#DejaVuSans-33"/>
      <use x="159.033203" xlink:href="#DejaVuSans-32"/>
      <use x="222.65625" xlink:href="#DejaVuSans-65"/>
      <use x="284.179688" xlink:href="#DejaVuSans-2d"/>
      <use x="320.263672" xlink:href="#DejaVuSans-30"/>
      <use x="383.886719" xlink:href="#DejaVuSans-37"/>
     </g>
    </g>
    <g id="line2d_144">
     <path d="M 622.655424 429.725246 
L 639.311424 429.725246 
" style="fill:none;stroke:#57db6c;stroke-linecap:round;stroke-width:1.5;"/>
    </g>
    <g id="line2d_145"/>
    <g id="text_58">
     <!-- 2.26e-06 -->
     <g style="fill:#262626;" transform="translate(645.973824 432.640046)scale(0.08328 -0.08328)">
      <use xlink:href="#DejaVuSans-32"/>
      <use x="63.623047" xlink:href="#DejaVuSans-2e"/>
      <use x="95.410156" xlink:href="#DejaVuSans-32"/>
      <use x="159.033203" xlink:href="#DejaVuSans-36"/>
      <use x="222.65625" xlink:href="#DejaVuSans-65"/>
      <use x="284.179688" xlink:href="#DejaVuSans-2d"/>
      <use x="320.263672" xlink:href="#DejaVuSans-30"/>
      <use x="383.886719" xlink:href="#DejaVuSans-36"/>
     </g>
    </g>
    <g id="line2d_146">
     <path d="M 622.655424 441.949189 
L 639.311424 441.949189 
" style="fill:none;stroke:#57db94;stroke-linecap:round;stroke-width:1.5;"/>
    </g>
    <g id="line2d_147"/>
    <g id="text_59">
     <!-- 6.14e-06 -->
     <g style="fill:#262626;" transform="translate(645.973824 444.863989)scale(0.08328 -0.08328)">
      <use xlink:href="#DejaVuSans-36"/>
      <use x="63.623047" xlink:href="#DejaVuSans-2e"/>
      <use x="95.410156" xlink:href="#DejaVuSans-31"/>
      <use x="159.033203" xlink:href="#DejaVuSans-34"/>
      <use x="222.65625" xlink:href="#DejaVuSans-65"/>
      <use x="284.179688" xlink:href="#DejaVuSans-2d"/>
      <use x="320.263672" xlink:href="#DejaVuSans-30"/>
      <use x="383.886719" xlink:href="#DejaVuSans-36"/>
     </g>
    </g>
    <g id="line2d_148">
     <path d="M 622.655424 454.173131 
L 639.311424 454.173131 
" style="fill:none;stroke:#57dbbb;stroke-linecap:round;stroke-width:1.5;"/>
    </g>
    <g id="line2d_149"/>
    <g id="text_60">
     <!-- 1.67e-05 -->
     <g style="fill:#262626;" transform="translate(645.973824 457.087931)scale(0.08328 -0.08328)">
      <use xlink:href="#DejaVuSans-31"/>
      <use x="63.623047" xlink:href="#DejaVuSans-2e"/>
      <use x="95.410156" xlink:href="#DejaVuSans-36"/>
      <use x="159.033203" xlink:href="#DejaVuSans-37"/>
      <use x="222.65625" xlink:href="#DejaVuSans-65"/>
      <use x="284.179688" xlink:href="#DejaVuSans-2d"/>
      <use x="320.263672" xlink:href="#DejaVuSans-30"/>
      <use x="383.886719" xlink:href="#DejaVuSans-35"/>
     </g>
    </g>
    <g id="line2d_150">
     <path d="M 622.655424 466.397074 
L 639.311424 466.397074 
" style="fill:none;stroke:#57d3db;stroke-linecap:round;stroke-width:1.5;"/>
    </g>
    <g id="line2d_151"/>
    <g id="text_61">
     <!-- 4.54e-05 -->
     <g style="fill:#262626;" transform="translate(645.973824 469.311874)scale(0.08328 -0.08328)">
      <use xlink:href="#DejaVuSans-34"/>
      <use x="63.623047" xlink:href="#DejaVuSans-2e"/>
      <use x="95.410156" xlink:href="#DejaVuSans-35"/>
      <use x="159.033203" xlink:href="#DejaVuSans-34"/>
      <use x="222.65625" xlink:href="#DejaVuSans-65"/>
      <use x="284.179688" xlink:href="#DejaVuSans-2d"/>
      <use x="320.263672" xlink:href="#DejaVuSans-30"/>
      <use x="383.886719" xlink:href="#DejaVuSans-35"/>
     </g>
    </g>
    <g id="line2d_152">
     <path d="M 622.655424 478.621016 
L 639.311424 478.621016 
" style="fill:none;stroke:#57acdb;stroke-linecap:round;stroke-width:1.5;"/>
    </g>
    <g id="line2d_153"/>
    <g id="text_62">
     <!-- 1.23e-04 -->
     <g style="fill:#262626;" transform="translate(645.973824 481.535816)scale(0.08328 -0.08328)">
      <use xlink:href="#DejaVuSans-31"/>
      <use x="63.623047" xlink:href="#DejaVuSans-2e"/>
      <use x="95.410156" xlink:href="#DejaVuSans-32"/>
      <use x="159.033203" xlink:href="#DejaVuSans-33"/>
      <use x="222.65625" xlink:href="#DejaVuSans-65"/>
      <use x="284.179688" xlink:href="#DejaVuSans-2d"/>
      <use x="320.263672" xlink:href="#DejaVuSans-30"/>
      <use x="383.886719" xlink:href="#DejaVuSans-34"/>
     </g>
    </g>
    <g id="line2d_154">
     <path d="M 622.655424 490.844959 
L 639.311424 490.844959 
" style="fill:none;stroke:#5784db;stroke-linecap:round;stroke-width:1.5;"/>
    </g>
    <g id="line2d_155"/>
    <g id="text_63">
     <!-- 3.35e-04 -->
     <g style="fill:#262626;" transform="translate(645.973824 493.759759)scale(0.08328 -0.08328)">
      <use xlink:href="#DejaVuSans-33"/>
      <use x="63.623047" xlink:href="#DejaVuSans-2e"/>
      <use x="95.410156" xlink:href="#DejaVuSans-33"/>
      <use x="159.033203" xlink:href="#DejaVuSans-35"/>
      <use x="222.65625" xlink:href="#DejaVuSans-65"/>
      <use x="284.179688" xlink:href="#DejaVuSans-2d"/>
      <use x="320.263672" xlink:href="#DejaVuSans-30"/>
      <use x="383.886719" xlink:href="#DejaVuSans-34"/>
     </g>
    </g>
    <g id="line2d_156">
     <path d="M 622.655424 503.068901 
L 639.311424 503.068901 
" style="fill:none;stroke:#575cdb;stroke-linecap:round;stroke-width:1.5;"/>
    </g>
    <g id="line2d_157"/>
    <g id="text_64">
     <!-- 9.12e-04 -->
     <g style="fill:#262626;" transform="translate(645.973824 505.983701)scale(0.08328 -0.08328)">
      <use xlink:href="#DejaVuSans-39"/>
      <use x="63.623047" xlink:href="#DejaVuSans-2e"/>
      <use x="95.410156" xlink:href="#DejaVuSans-31"/>
      <use x="159.033203" xlink:href="#DejaVuSans-32"/>
      <use x="222.65625" xlink:href="#DejaVuSans-65"/>
      <use x="284.179688" xlink:href="#DejaVuSans-2d"/>
      <use x="320.263672" xlink:href="#DejaVuSans-30"/>
      <use x="383.886719" xlink:href="#DejaVuSans-34"/>
     </g>
    </g>
    <g id="line2d_158">
     <path d="M 622.655424 515.292844 
L 639.311424 515.292844 
" style="fill:none;stroke:#7957db;stroke-linecap:round;stroke-width:1.5;"/>
    </g>
    <g id="line2d_159"/>
    <g id="text_65">
     <!-- 2.48e-03 -->
     <g style="fill:#262626;" transform="translate(645.973824 518.207644)scale(0.08328 -0.08328)">
      <use xlink:href="#DejaVuSans-32"/>
      <use x="63.623047" xlink:href="#DejaVuSans-2e"/>
      <use x="95.410156" xlink:href="#DejaVuSans-34"/>
      <use x="159.033203" xlink:href="#DejaVuSans-38"/>
      <use x="222.65625" xlink:href="#DejaVuSans-65"/>
      <use x="284.179688" xlink:href="#DejaVuSans-2d"/>
      <use x="320.263672" xlink:href="#DejaVuSans-30"/>
      <use x="383.886719" xlink:href="#DejaVuSans-33"/>
     </g>
    </g>
   </g>
  </g>
  <g id="text_66">
   <!-- $p_{A}$ -->
   <defs>
    <path d="M 49.609375 33.6875 
Q 49.609375 40.875 46.484375 44.671875 
Q 43.359375 48.484375 37.5 48.484375 
Q 33.5 48.484375 29.859375 46.4375 
Q 26.21875 44.390625 23.390625 40.484375 
Q 20.609375 36.625 18.9375 31.15625 
Q 17.28125 25.6875 17.28125 20.3125 
Q 17.28125 13.484375 20.40625 9.796875 
Q 23.53125 6.109375 29.296875 6.109375 
Q 33.546875 6.109375 37.1875 8.109375 
Q 40.828125 10.109375 43.40625 13.921875 
Q 46.1875 17.921875 47.890625 23.34375 
Q 49.609375 28.765625 49.609375 33.6875 
z
M 21.78125 46.390625 
Q 25.390625 51.125 30.296875 53.5625 
Q 35.203125 56 41.21875 56 
Q 49.609375 56 54.25 50.5 
Q 58.890625 45.015625 58.890625 35.109375 
Q 58.890625 27 56 19.65625 
Q 53.125 12.3125 47.703125 6.5 
Q 44.09375 2.640625 39.546875 0.609375 
Q 35.015625 -1.421875 29.984375 -1.421875 
Q 24.171875 -1.421875 20.21875 1 
Q 16.265625 3.421875 14.3125 8.203125 
L 8.6875 -20.796875 
L -0.296875 -20.796875 
L 14.40625 54.6875 
L 23.390625 54.6875 
z
" id="DejaVuSans-Oblique-70"/>
    <path d="M 36.8125 72.90625 
L 48 72.90625 
L 61.53125 0 
L 51.21875 0 
L 48.1875 18.703125 
L 15.375 18.703125 
L 5.078125 0 
L -5.328125 0 
z
M 40.375 63.1875 
L 19.921875 26.90625 
L 46.6875 26.90625 
z
" id="DejaVuSans-Oblique-41"/>
   </defs>
   <g style="fill:#262626;" transform="translate(15.87625 295.84375)rotate(-90)scale(0.2 -0.2)">
    <use xlink:href="#DejaVuSans-Oblique-70"/>
    <use transform="translate(63.476562 -16.40625)scale(0.7)" xlink:href="#DejaVuSans-Oblique-41"/>
   </g>
  </g>
  <g id="text_67">
   <!-- Time (years) -->
   <defs>
    <path d="M -0.296875 72.90625 
L 61.375 72.90625 
L 61.375 64.59375 
L 35.5 64.59375 
L 35.5 0 
L 25.59375 0 
L 25.59375 64.59375 
L -0.296875 64.59375 
z
" id="DejaVuSans-54"/>
    <path d="M 31 75.875 
Q 24.46875 64.65625 21.28125 53.65625 
Q 18.109375 42.671875 18.109375 31.390625 
Q 18.109375 20.125 21.3125 9.0625 
Q 24.515625 -2 31 -13.1875 
L 23.1875 -13.1875 
Q 15.875 -1.703125 12.234375 9.375 
Q 8.59375 20.453125 8.59375 31.390625 
Q 8.59375 42.28125 12.203125 53.3125 
Q 15.828125 64.359375 23.1875 75.875 
z
" id="DejaVuSans-28"/>
    <path d="M 32.171875 -5.078125 
Q 28.375 -14.84375 24.75 -17.8125 
Q 21.140625 -20.796875 15.09375 -20.796875 
L 7.90625 -20.796875 
L 7.90625 -13.28125 
L 13.1875 -13.28125 
Q 16.890625 -13.28125 18.9375 -11.515625 
Q 21 -9.765625 23.484375 -3.21875 
L 25.09375 0.875 
L 2.984375 54.6875 
L 12.5 54.6875 
L 29.59375 11.921875 
L 46.6875 54.6875 
L 56.203125 54.6875 
z
" id="DejaVuSans-79"/>
    <path d="M 44.28125 53.078125 
L 44.28125 44.578125 
Q 40.484375 46.53125 36.375 47.5 
Q 32.28125 48.484375 27.875 48.484375 
Q 21.1875 48.484375 17.84375 46.4375 
Q 14.5 44.390625 14.5 40.28125 
Q 14.5 37.15625 16.890625 35.375 
Q 19.28125 33.59375 26.515625 31.984375 
L 29.59375 31.296875 
Q 39.15625 29.25 43.1875 25.515625 
Q 47.21875 21.78125 47.21875 15.09375 
Q 47.21875 7.46875 41.1875 3.015625 
Q 35.15625 -1.421875 24.609375 -1.421875 
Q 20.21875 -1.421875 15.453125 -0.5625 
Q 10.6875 0.296875 5.421875 2 
L 5.421875 11.28125 
Q 10.40625 8.6875 15.234375 7.390625 
Q 20.0625 6.109375 24.8125 6.109375 
Q 31.15625 6.109375 34.5625 8.28125 
Q 37.984375 10.453125 37.984375 14.40625 
Q 37.984375 18.0625 35.515625 20.015625 
Q 33.0625 21.96875 24.703125 23.78125 
L 21.578125 24.515625 
Q 13.234375 26.265625 9.515625 29.90625 
Q 5.8125 33.546875 5.8125 39.890625 
Q 5.8125 47.609375 11.28125 51.796875 
Q 16.75 56 26.8125 56 
Q 31.78125 56 36.171875 55.265625 
Q 40.578125 54.546875 44.28125 53.078125 
z
" id="DejaVuSans-73"/>
    <path d="M 8.015625 75.875 
L 15.828125 75.875 
Q 23.140625 64.359375 26.78125 53.3125 
Q 30.421875 42.28125 30.421875 31.390625 
Q 30.421875 20.453125 26.78125 9.375 
Q 23.140625 -1.703125 15.828125 -13.1875 
L 8.015625 -13.1875 
Q 14.5 -2 17.703125 9.0625 
Q 20.90625 20.125 20.90625 31.390625 
Q 20.90625 42.671875 17.703125 53.65625 
Q 14.5 64.65625 8.015625 75.875 
z
" id="DejaVuSans-29"/>
   </defs>
   <g style="fill:#262626;" transform="translate(312.542578 574.56)scale(0.15 -0.15)">
    <use xlink:href="#DejaVuSans-54"/>
    <use x="61.037109" xlink:href="#DejaVuSans-69"/>
    <use x="88.820312" xlink:href="#DejaVuSans-6d"/>
    <use x="186.232422" xlink:href="#DejaVuSans-65"/>
    <use x="247.755859" xlink:href="#DejaVuSans-20"/>
    <use x="279.542969" xlink:href="#DejaVuSans-28"/>
    <use x="318.556641" xlink:href="#DejaVuSans-79"/>
    <use x="377.736328" xlink:href="#DejaVuSans-65"/>
    <use x="439.259766" xlink:href="#DejaVuSans-61"/>
    <use x="500.539062" xlink:href="#DejaVuSans-72"/>
    <use x="541.652344" xlink:href="#DejaVuSans-73"/>
    <use x="593.751953" xlink:href="#DejaVuSans-29"/>
   </g>
  </g>
 </g>
 <defs>
  <clipPath id="p50b280506b">
   <rect height="233.946327" width="293.685" x="39.835" y="28.96"/>
  </clipPath>
  <clipPath id="pcb1de94ef5">
   <rect height="233.946327" width="293.685" x="407.355" y="28.96"/>
  </clipPath>
  <clipPath id="p6e076ce955">
   <rect height="233.946327" width="293.685" x="39.835" y="305.48"/>
  </clipPath>
  <clipPath id="p3e7e746f3f">
   <rect height="233.946327" width="293.685" x="407.355" y="305.48"/>
  </clipPath>
 </defs>
</svg>
