<?xml version="1.0" encoding="utf-8" standalone="no"?>
<!DOCTYPE svg PUBLIC "-//W3C//DTD SVG 1.1//EN"
  "http://www.w3.org/Graphics/SVG/1.1/DTD/svg11.dtd">
<!-- Created with matplotlib (http://matplotlib.org/) -->
<svg height="288pt" version="1.1" viewBox="0 0 432 288" width="432pt" xmlns="http://www.w3.org/2000/svg" xmlns:xlink="http://www.w3.org/1999/xlink">
 <defs>
  <style type="text/css">
*{stroke-linecap:butt;stroke-linejoin:round;}
  </style>
 </defs>
 <g id="figure_1">
  <g id="patch_1">
   <path d="M 0 288 
L 432 288 
L 432 0 
L 0 0 
z
" style="fill:#ffffff;"/>
  </g>
  <g id="axes_1">
   <g id="patch_2">
    <path d="M 54 252 
L 388.8 252 
L 388.8 34.56 
L 54 34.56 
z
" style="fill:#eaeaf2;"/>
   </g>
   <g id="matplotlib.axis_1">
    <g id="xtick_1">
     <g id="line2d_1">
      <path clip-path="url(#p4f8ebcca9a)" d="M 69.218182 252 
L 69.218182 34.56 
" style="fill:none;stroke:#ffffff;stroke-linecap:round;"/>
     </g>
     <g id="text_1">
      <!-- 0 -->
      <defs>
       <path d="M 31.78125 66.40625 
Q 24.171875 66.40625 20.328125 58.90625 
Q 16.5 51.421875 16.5 36.375 
Q 16.5 21.390625 20.328125 13.890625 
Q 24.171875 6.390625 31.78125 6.390625 
Q 39.453125 6.390625 43.28125 13.890625 
Q 47.125 21.390625 47.125 36.375 
Q 47.125 51.421875 43.28125 58.90625 
Q 39.453125 66.40625 31.78125 66.40625 
z
M 31.78125 74.21875 
Q 44.046875 74.21875 50.515625 64.515625 
Q 56.984375 54.828125 56.984375 36.375 
Q 56.984375 17.96875 50.515625 8.265625 
Q 44.046875 -1.421875 31.78125 -1.421875 
Q 19.53125 -1.421875 13.0625 8.265625 
Q 6.59375 17.96875 6.59375 36.375 
Q 6.59375 54.828125 13.0625 64.515625 
Q 19.53125 74.21875 31.78125 74.21875 
z
" id="DejaVuSans-30"/>
      </defs>
      <g style="fill:#262626;" transform="translate(65.718807 269.858281)scale(0.11 -0.11)">
       <use xlink:href="#DejaVuSans-30"/>
      </g>
     </g>
    </g>
    <g id="xtick_2">
     <g id="line2d_2">
      <path clip-path="url(#p4f8ebcca9a)" d="M 137.614505 252 
L 137.614505 34.56 
" style="fill:none;stroke:#ffffff;stroke-linecap:round;"/>
     </g>
     <g id="text_2">
      <!-- 20 -->
      <defs>
       <path d="M 19.1875 8.296875 
L 53.609375 8.296875 
L 53.609375 0 
L 7.328125 0 
L 7.328125 8.296875 
Q 12.9375 14.109375 22.625 23.890625 
Q 32.328125 33.6875 34.8125 36.53125 
Q 39.546875 41.84375 41.421875 45.53125 
Q 43.3125 49.21875 43.3125 52.78125 
Q 43.3125 58.59375 39.234375 62.25 
Q 35.15625 65.921875 28.609375 65.921875 
Q 23.96875 65.921875 18.8125 64.3125 
Q 13.671875 62.703125 7.8125 59.421875 
L 7.8125 69.390625 
Q 13.765625 71.78125 18.9375 73 
Q 24.125 74.21875 28.421875 74.21875 
Q 39.75 74.21875 46.484375 68.546875 
Q 53.21875 62.890625 53.21875 53.421875 
Q 53.21875 48.921875 51.53125 44.890625 
Q 49.859375 40.875 45.40625 35.40625 
Q 44.1875 33.984375 37.640625 27.21875 
Q 31.109375 20.453125 19.1875 8.296875 
z
" id="DejaVuSans-32"/>
      </defs>
      <g style="fill:#262626;" transform="translate(130.615755 269.858281)scale(0.11 -0.11)">
       <use xlink:href="#DejaVuSans-32"/>
       <use x="63.623047" xlink:href="#DejaVuSans-30"/>
      </g>
     </g>
    </g>
    <g id="xtick_3">
     <g id="line2d_3">
      <path clip-path="url(#p4f8ebcca9a)" d="M 206.010827 252 
L 206.010827 34.56 
" style="fill:none;stroke:#ffffff;stroke-linecap:round;"/>
     </g>
     <g id="text_3">
      <!-- 40 -->
      <defs>
       <path d="M 37.796875 64.3125 
L 12.890625 25.390625 
L 37.796875 25.390625 
z
M 35.203125 72.90625 
L 47.609375 72.90625 
L 47.609375 25.390625 
L 58.015625 25.390625 
L 58.015625 17.1875 
L 47.609375 17.1875 
L 47.609375 0 
L 37.796875 0 
L 37.796875 17.1875 
L 4.890625 17.1875 
L 4.890625 26.703125 
z
" id="DejaVuSans-34"/>
      </defs>
      <g style="fill:#262626;" transform="translate(199.012077 269.858281)scale(0.11 -0.11)">
       <use xlink:href="#DejaVuSans-34"/>
       <use x="63.623047" xlink:href="#DejaVuSans-30"/>
      </g>
     </g>
    </g>
    <g id="xtick_4">
     <g id="line2d_4">
      <path clip-path="url(#p4f8ebcca9a)" d="M 274.40715 252 
L 274.40715 34.56 
" style="fill:none;stroke:#ffffff;stroke-linecap:round;"/>
     </g>
     <g id="text_4">
      <!-- 60 -->
      <defs>
       <path d="M 33.015625 40.375 
Q 26.375 40.375 22.484375 35.828125 
Q 18.609375 31.296875 18.609375 23.390625 
Q 18.609375 15.53125 22.484375 10.953125 
Q 26.375 6.390625 33.015625 6.390625 
Q 39.65625 6.390625 43.53125 10.953125 
Q 47.40625 15.53125 47.40625 23.390625 
Q 47.40625 31.296875 43.53125 35.828125 
Q 39.65625 40.375 33.015625 40.375 
z
M 52.59375 71.296875 
L 52.59375 62.3125 
Q 48.875 64.0625 45.09375 64.984375 
Q 41.3125 65.921875 37.59375 65.921875 
Q 27.828125 65.921875 22.671875 59.328125 
Q 17.53125 52.734375 16.796875 39.40625 
Q 19.671875 43.65625 24.015625 45.921875 
Q 28.375 48.1875 33.59375 48.1875 
Q 44.578125 48.1875 50.953125 41.515625 
Q 57.328125 34.859375 57.328125 23.390625 
Q 57.328125 12.15625 50.6875 5.359375 
Q 44.046875 -1.421875 33.015625 -1.421875 
Q 20.359375 -1.421875 13.671875 8.265625 
Q 6.984375 17.96875 6.984375 36.375 
Q 6.984375 53.65625 15.1875 63.9375 
Q 23.390625 74.21875 37.203125 74.21875 
Q 40.921875 74.21875 44.703125 73.484375 
Q 48.484375 72.75 52.59375 71.296875 
z
" id="DejaVuSans-36"/>
      </defs>
      <g style="fill:#262626;" transform="translate(267.4084 269.858281)scale(0.11 -0.11)">
       <use xlink:href="#DejaVuSans-36"/>
       <use x="63.623047" xlink:href="#DejaVuSans-30"/>
      </g>
     </g>
    </g>
    <g id="xtick_5">
     <g id="line2d_5">
      <path clip-path="url(#p4f8ebcca9a)" d="M 342.803473 252 
L 342.803473 34.56 
" style="fill:none;stroke:#ffffff;stroke-linecap:round;"/>
     </g>
     <g id="text_5">
      <!-- 80 -->
      <defs>
       <path d="M 31.78125 34.625 
Q 24.75 34.625 20.71875 30.859375 
Q 16.703125 27.09375 16.703125 20.515625 
Q 16.703125 13.921875 20.71875 10.15625 
Q 24.75 6.390625 31.78125 6.390625 
Q 38.8125 6.390625 42.859375 10.171875 
Q 46.921875 13.96875 46.921875 20.515625 
Q 46.921875 27.09375 42.890625 30.859375 
Q 38.875 34.625 31.78125 34.625 
z
M 21.921875 38.8125 
Q 15.578125 40.375 12.03125 44.71875 
Q 8.5 49.078125 8.5 55.328125 
Q 8.5 64.0625 14.71875 69.140625 
Q 20.953125 74.21875 31.78125 74.21875 
Q 42.671875 74.21875 48.875 69.140625 
Q 55.078125 64.0625 55.078125 55.328125 
Q 55.078125 49.078125 51.53125 44.71875 
Q 48 40.375 41.703125 38.8125 
Q 48.828125 37.15625 52.796875 32.3125 
Q 56.78125 27.484375 56.78125 20.515625 
Q 56.78125 9.90625 50.3125 4.234375 
Q 43.84375 -1.421875 31.78125 -1.421875 
Q 19.734375 -1.421875 13.25 4.234375 
Q 6.78125 9.90625 6.78125 20.515625 
Q 6.78125 27.484375 10.78125 32.3125 
Q 14.796875 37.15625 21.921875 38.8125 
z
M 18.3125 54.390625 
Q 18.3125 48.734375 21.84375 45.5625 
Q 25.390625 42.390625 31.78125 42.390625 
Q 38.140625 42.390625 41.71875 45.5625 
Q 45.3125 48.734375 45.3125 54.390625 
Q 45.3125 60.0625 41.71875 63.234375 
Q 38.140625 66.40625 31.78125 66.40625 
Q 25.390625 66.40625 21.84375 63.234375 
Q 18.3125 60.0625 18.3125 54.390625 
z
" id="DejaVuSans-38"/>
      </defs>
      <g style="fill:#262626;" transform="translate(335.804723 269.858281)scale(0.11 -0.11)">
       <use xlink:href="#DejaVuSans-38"/>
       <use x="63.623047" xlink:href="#DejaVuSans-30"/>
      </g>
     </g>
    </g>
    <g id="text_6">
     <!-- Age -->
     <defs>
      <path d="M 34.1875 63.1875 
L 20.796875 26.90625 
L 47.609375 26.90625 
z
M 28.609375 72.90625 
L 39.796875 72.90625 
L 67.578125 0 
L 57.328125 0 
L 50.6875 18.703125 
L 17.828125 18.703125 
L 11.1875 0 
L 0.78125 0 
z
" id="DejaVuSans-41"/>
      <path d="M 45.40625 27.984375 
Q 45.40625 37.75 41.375 43.109375 
Q 37.359375 48.484375 30.078125 48.484375 
Q 22.859375 48.484375 18.828125 43.109375 
Q 14.796875 37.75 14.796875 27.984375 
Q 14.796875 18.265625 18.828125 12.890625 
Q 22.859375 7.515625 30.078125 7.515625 
Q 37.359375 7.515625 41.375 12.890625 
Q 45.40625 18.265625 45.40625 27.984375 
z
M 54.390625 6.78125 
Q 54.390625 -7.171875 48.1875 -13.984375 
Q 42 -20.796875 29.203125 -20.796875 
Q 24.46875 -20.796875 20.265625 -20.09375 
Q 16.0625 -19.390625 12.109375 -17.921875 
L 12.109375 -9.1875 
Q 16.0625 -11.328125 19.921875 -12.34375 
Q 23.78125 -13.375 27.78125 -13.375 
Q 36.625 -13.375 41.015625 -8.765625 
Q 45.40625 -4.15625 45.40625 5.171875 
L 45.40625 9.625 
Q 42.625 4.78125 38.28125 2.390625 
Q 33.9375 0 27.875 0 
Q 17.828125 0 11.671875 7.65625 
Q 5.515625 15.328125 5.515625 27.984375 
Q 5.515625 40.671875 11.671875 48.328125 
Q 17.828125 56 27.875 56 
Q 33.9375 56 38.28125 53.609375 
Q 42.625 51.21875 45.40625 46.390625 
L 45.40625 54.6875 
L 54.390625 54.6875 
z
" id="DejaVuSans-67"/>
      <path d="M 56.203125 29.59375 
L 56.203125 25.203125 
L 14.890625 25.203125 
Q 15.484375 15.921875 20.484375 11.0625 
Q 25.484375 6.203125 34.421875 6.203125 
Q 39.59375 6.203125 44.453125 7.46875 
Q 49.3125 8.734375 54.109375 11.28125 
L 54.109375 2.78125 
Q 49.265625 0.734375 44.1875 -0.34375 
Q 39.109375 -1.421875 33.890625 -1.421875 
Q 20.796875 -1.421875 13.15625 6.1875 
Q 5.515625 13.8125 5.515625 26.8125 
Q 5.515625 40.234375 12.765625 48.109375 
Q 20.015625 56 32.328125 56 
Q 43.359375 56 49.78125 48.890625 
Q 56.203125 41.796875 56.203125 29.59375 
z
M 47.21875 32.234375 
Q 47.125 39.59375 43.09375 43.984375 
Q 39.0625 48.390625 32.421875 48.390625 
Q 24.90625 48.390625 20.390625 44.140625 
Q 15.875 39.890625 15.1875 32.171875 
z
" id="DejaVuSans-65"/>
     </defs>
     <g style="fill:#262626;" transform="translate(209.794688 285.264063)scale(0.12 -0.12)">
      <use xlink:href="#DejaVuSans-41"/>
      <use x="68.408203" xlink:href="#DejaVuSans-67"/>
      <use x="131.884766" xlink:href="#DejaVuSans-65"/>
     </g>
    </g>
   </g>
   <g id="matplotlib.axis_2">
    <g id="ytick_1">
     <g id="line2d_6">
      <path clip-path="url(#p4f8ebcca9a)" d="M 54 242.116364 
L 388.8 242.116364 
" style="fill:none;stroke:#ffffff;stroke-linecap:round;"/>
     </g>
     <g id="text_7">
      <!-- 0 -->
      <g style="fill:#262626;" transform="translate(37.50125 246.295504)scale(0.11 -0.11)">
       <use xlink:href="#DejaVuSans-30"/>
      </g>
     </g>
    </g>
    <g id="ytick_2">
     <g id="line2d_7">
      <path clip-path="url(#p4f8ebcca9a)" d="M 54 200.134262 
L 388.8 200.134262 
" style="fill:none;stroke:#ffffff;stroke-linecap:round;"/>
     </g>
     <g id="text_8">
      <!-- 10000 -->
      <defs>
       <path d="M 12.40625 8.296875 
L 28.515625 8.296875 
L 28.515625 63.921875 
L 10.984375 60.40625 
L 10.984375 69.390625 
L 28.421875 72.90625 
L 38.28125 72.90625 
L 38.28125 8.296875 
L 54.390625 8.296875 
L 54.390625 0 
L 12.40625 0 
z
" id="DejaVuSans-31"/>
      </defs>
      <g style="fill:#262626;" transform="translate(9.50625 204.313402)scale(0.11 -0.11)">
       <use xlink:href="#DejaVuSans-31"/>
       <use x="63.623047" xlink:href="#DejaVuSans-30"/>
       <use x="127.246094" xlink:href="#DejaVuSans-30"/>
       <use x="190.869141" xlink:href="#DejaVuSans-30"/>
       <use x="254.492188" xlink:href="#DejaVuSans-30"/>
      </g>
     </g>
    </g>
    <g id="ytick_3">
     <g id="line2d_8">
      <path clip-path="url(#p4f8ebcca9a)" d="M 54 158.15216 
L 388.8 158.15216 
" style="fill:none;stroke:#ffffff;stroke-linecap:round;"/>
     </g>
     <g id="text_9">
      <!-- 20000 -->
      <g style="fill:#262626;" transform="translate(9.50625 162.3313)scale(0.11 -0.11)">
       <use xlink:href="#DejaVuSans-32"/>
       <use x="63.623047" xlink:href="#DejaVuSans-30"/>
       <use x="127.246094" xlink:href="#DejaVuSans-30"/>
       <use x="190.869141" xlink:href="#DejaVuSans-30"/>
       <use x="254.492188" xlink:href="#DejaVuSans-30"/>
      </g>
     </g>
    </g>
    <g id="ytick_4">
     <g id="line2d_9">
      <path clip-path="url(#p4f8ebcca9a)" d="M 54 116.170058 
L 388.8 116.170058 
" style="fill:none;stroke:#ffffff;stroke-linecap:round;"/>
     </g>
     <g id="text_10">
      <!-- 30000 -->
      <defs>
       <path d="M 40.578125 39.3125 
Q 47.65625 37.796875 51.625 33 
Q 55.609375 28.21875 55.609375 21.1875 
Q 55.609375 10.40625 48.1875 4.484375 
Q 40.765625 -1.421875 27.09375 -1.421875 
Q 22.515625 -1.421875 17.65625 -0.515625 
Q 12.796875 0.390625 7.625 2.203125 
L 7.625 11.71875 
Q 11.71875 9.328125 16.59375 8.109375 
Q 21.484375 6.890625 26.8125 6.890625 
Q 36.078125 6.890625 40.9375 10.546875 
Q 45.796875 14.203125 45.796875 21.1875 
Q 45.796875 27.640625 41.28125 31.265625 
Q 36.765625 34.90625 28.71875 34.90625 
L 20.21875 34.90625 
L 20.21875 43.015625 
L 29.109375 43.015625 
Q 36.375 43.015625 40.234375 45.921875 
Q 44.09375 48.828125 44.09375 54.296875 
Q 44.09375 59.90625 40.109375 62.90625 
Q 36.140625 65.921875 28.71875 65.921875 
Q 24.65625 65.921875 20.015625 65.03125 
Q 15.375 64.15625 9.8125 62.3125 
L 9.8125 71.09375 
Q 15.4375 72.65625 20.34375 73.4375 
Q 25.25 74.21875 29.59375 74.21875 
Q 40.828125 74.21875 47.359375 69.109375 
Q 53.90625 64.015625 53.90625 55.328125 
Q 53.90625 49.265625 50.4375 45.09375 
Q 46.96875 40.921875 40.578125 39.3125 
z
" id="DejaVuSans-33"/>
      </defs>
      <g style="fill:#262626;" transform="translate(9.50625 120.349198)scale(0.11 -0.11)">
       <use xlink:href="#DejaVuSans-33"/>
       <use x="63.623047" xlink:href="#DejaVuSans-30"/>
       <use x="127.246094" xlink:href="#DejaVuSans-30"/>
       <use x="190.869141" xlink:href="#DejaVuSans-30"/>
       <use x="254.492188" xlink:href="#DejaVuSans-30"/>
      </g>
     </g>
    </g>
    <g id="ytick_5">
     <g id="line2d_10">
      <path clip-path="url(#p4f8ebcca9a)" d="M 54 74.187956 
L 388.8 74.187956 
" style="fill:none;stroke:#ffffff;stroke-linecap:round;"/>
     </g>
     <g id="text_11">
      <!-- 40000 -->
      <g style="fill:#262626;" transform="translate(9.50625 78.367096)scale(0.11 -0.11)">
       <use xlink:href="#DejaVuSans-34"/>
       <use x="63.623047" xlink:href="#DejaVuSans-30"/>
       <use x="127.246094" xlink:href="#DejaVuSans-30"/>
       <use x="190.869141" xlink:href="#DejaVuSans-30"/>
       <use x="254.492188" xlink:href="#DejaVuSans-30"/>
      </g>
     </g>
    </g>
    <g id="text_12">
     <!-- Cumulative incidence -->
     <defs>
      <path d="M 64.40625 67.28125 
L 64.40625 56.890625 
Q 59.421875 61.53125 53.78125 63.8125 
Q 48.140625 66.109375 41.796875 66.109375 
Q 29.296875 66.109375 22.65625 58.46875 
Q 16.015625 50.828125 16.015625 36.375 
Q 16.015625 21.96875 22.65625 14.328125 
Q 29.296875 6.6875 41.796875 6.6875 
Q 48.140625 6.6875 53.78125 8.984375 
Q 59.421875 11.28125 64.40625 15.921875 
L 64.40625 5.609375 
Q 59.234375 2.09375 53.4375 0.328125 
Q 47.65625 -1.421875 41.21875 -1.421875 
Q 24.65625 -1.421875 15.125 8.703125 
Q 5.609375 18.84375 5.609375 36.375 
Q 5.609375 53.953125 15.125 64.078125 
Q 24.65625 74.21875 41.21875 74.21875 
Q 47.75 74.21875 53.53125 72.484375 
Q 59.328125 70.75 64.40625 67.28125 
z
" id="DejaVuSans-43"/>
      <path d="M 8.5 21.578125 
L 8.5 54.6875 
L 17.484375 54.6875 
L 17.484375 21.921875 
Q 17.484375 14.15625 20.5 10.265625 
Q 23.53125 6.390625 29.59375 6.390625 
Q 36.859375 6.390625 41.078125 11.03125 
Q 45.3125 15.671875 45.3125 23.6875 
L 45.3125 54.6875 
L 54.296875 54.6875 
L 54.296875 0 
L 45.3125 0 
L 45.3125 8.40625 
Q 42.046875 3.421875 37.71875 1 
Q 33.40625 -1.421875 27.6875 -1.421875 
Q 18.265625 -1.421875 13.375 4.4375 
Q 8.5 10.296875 8.5 21.578125 
z
M 31.109375 56 
z
" id="DejaVuSans-75"/>
      <path d="M 52 44.1875 
Q 55.375 50.25 60.0625 53.125 
Q 64.75 56 71.09375 56 
Q 79.640625 56 84.28125 50.015625 
Q 88.921875 44.046875 88.921875 33.015625 
L 88.921875 0 
L 79.890625 0 
L 79.890625 32.71875 
Q 79.890625 40.578125 77.09375 44.375 
Q 74.3125 48.1875 68.609375 48.1875 
Q 61.625 48.1875 57.5625 43.546875 
Q 53.515625 38.921875 53.515625 30.90625 
L 53.515625 0 
L 44.484375 0 
L 44.484375 32.71875 
Q 44.484375 40.625 41.703125 44.40625 
Q 38.921875 48.1875 33.109375 48.1875 
Q 26.21875 48.1875 22.15625 43.53125 
Q 18.109375 38.875 18.109375 30.90625 
L 18.109375 0 
L 9.078125 0 
L 9.078125 54.6875 
L 18.109375 54.6875 
L 18.109375 46.1875 
Q 21.1875 51.21875 25.484375 53.609375 
Q 29.78125 56 35.6875 56 
Q 41.65625 56 45.828125 52.96875 
Q 50 49.953125 52 44.1875 
z
" id="DejaVuSans-6d"/>
      <path d="M 9.421875 75.984375 
L 18.40625 75.984375 
L 18.40625 0 
L 9.421875 0 
z
" id="DejaVuSans-6c"/>
      <path d="M 34.28125 27.484375 
Q 23.390625 27.484375 19.1875 25 
Q 14.984375 22.515625 14.984375 16.5 
Q 14.984375 11.71875 18.140625 8.90625 
Q 21.296875 6.109375 26.703125 6.109375 
Q 34.1875 6.109375 38.703125 11.40625 
Q 43.21875 16.703125 43.21875 25.484375 
L 43.21875 27.484375 
z
M 52.203125 31.203125 
L 52.203125 0 
L 43.21875 0 
L 43.21875 8.296875 
Q 40.140625 3.328125 35.546875 0.953125 
Q 30.953125 -1.421875 24.3125 -1.421875 
Q 15.921875 -1.421875 10.953125 3.296875 
Q 6 8.015625 6 15.921875 
Q 6 25.140625 12.171875 29.828125 
Q 18.359375 34.515625 30.609375 34.515625 
L 43.21875 34.515625 
L 43.21875 35.40625 
Q 43.21875 41.609375 39.140625 45 
Q 35.0625 48.390625 27.6875 48.390625 
Q 23 48.390625 18.546875 47.265625 
Q 14.109375 46.140625 10.015625 43.890625 
L 10.015625 52.203125 
Q 14.9375 54.109375 19.578125 55.046875 
Q 24.21875 56 28.609375 56 
Q 40.484375 56 46.34375 49.84375 
Q 52.203125 43.703125 52.203125 31.203125 
z
" id="DejaVuSans-61"/>
      <path d="M 18.3125 70.21875 
L 18.3125 54.6875 
L 36.8125 54.6875 
L 36.8125 47.703125 
L 18.3125 47.703125 
L 18.3125 18.015625 
Q 18.3125 11.328125 20.140625 9.421875 
Q 21.96875 7.515625 27.59375 7.515625 
L 36.8125 7.515625 
L 36.8125 0 
L 27.59375 0 
Q 17.1875 0 13.234375 3.875 
Q 9.28125 7.765625 9.28125 18.015625 
L 9.28125 47.703125 
L 2.6875 47.703125 
L 2.6875 54.6875 
L 9.28125 54.6875 
L 9.28125 70.21875 
z
" id="DejaVuSans-74"/>
      <path d="M 9.421875 54.6875 
L 18.40625 54.6875 
L 18.40625 0 
L 9.421875 0 
z
M 9.421875 75.984375 
L 18.40625 75.984375 
L 18.40625 64.59375 
L 9.421875 64.59375 
z
" id="DejaVuSans-69"/>
      <path d="M 2.984375 54.6875 
L 12.5 54.6875 
L 29.59375 8.796875 
L 46.6875 54.6875 
L 56.203125 54.6875 
L 35.6875 0 
L 23.484375 0 
z
" id="DejaVuSans-76"/>
      <path id="DejaVuSans-20"/>
      <path d="M 54.890625 33.015625 
L 54.890625 0 
L 45.90625 0 
L 45.90625 32.71875 
Q 45.90625 40.484375 42.875 44.328125 
Q 39.84375 48.1875 33.796875 48.1875 
Q 26.515625 48.1875 22.3125 43.546875 
Q 18.109375 38.921875 18.109375 30.90625 
L 18.109375 0 
L 9.078125 0 
L 9.078125 54.6875 
L 18.109375 54.6875 
L 18.109375 46.1875 
Q 21.34375 51.125 25.703125 53.5625 
Q 30.078125 56 35.796875 56 
Q 45.21875 56 50.046875 50.171875 
Q 54.890625 44.34375 54.890625 33.015625 
z
" id="DejaVuSans-6e"/>
      <path d="M 48.78125 52.59375 
L 48.78125 44.1875 
Q 44.96875 46.296875 41.140625 47.34375 
Q 37.3125 48.390625 33.40625 48.390625 
Q 24.65625 48.390625 19.8125 42.84375 
Q 14.984375 37.3125 14.984375 27.296875 
Q 14.984375 17.28125 19.8125 11.734375 
Q 24.65625 6.203125 33.40625 6.203125 
Q 37.3125 6.203125 41.140625 7.25 
Q 44.96875 8.296875 48.78125 10.40625 
L 48.78125 2.09375 
Q 45.015625 0.34375 40.984375 -0.53125 
Q 36.96875 -1.421875 32.421875 -1.421875 
Q 20.0625 -1.421875 12.78125 6.34375 
Q 5.515625 14.109375 5.515625 27.296875 
Q 5.515625 40.671875 12.859375 48.328125 
Q 20.21875 56 33.015625 56 
Q 37.15625 56 41.109375 55.140625 
Q 45.0625 54.296875 48.78125 52.59375 
z
" id="DejaVuSans-63"/>
      <path d="M 45.40625 46.390625 
L 45.40625 75.984375 
L 54.390625 75.984375 
L 54.390625 0 
L 45.40625 0 
L 45.40625 8.203125 
Q 42.578125 3.328125 38.25 0.953125 
Q 33.9375 -1.421875 27.875 -1.421875 
Q 17.96875 -1.421875 11.734375 6.484375 
Q 5.515625 14.40625 5.515625 27.296875 
Q 5.515625 40.1875 11.734375 48.09375 
Q 17.96875 56 27.875 56 
Q 33.9375 56 38.25 53.625 
Q 42.578125 51.265625 45.40625 46.390625 
z
M 14.796875 27.296875 
Q 14.796875 17.390625 18.875 11.75 
Q 22.953125 6.109375 30.078125 6.109375 
Q 37.203125 6.109375 41.296875 11.75 
Q 45.40625 17.390625 45.40625 27.296875 
Q 45.40625 37.203125 41.296875 42.84375 
Q 37.203125 48.484375 30.078125 48.484375 
Q 22.953125 48.484375 18.875 42.84375 
Q 14.796875 37.203125 14.796875 27.296875 
z
" id="DejaVuSans-64"/>
     </defs>
     <g style="fill:#262626;" transform="translate(3.010625 208.161563)rotate(-90)scale(0.12 -0.12)">
      <use xlink:href="#DejaVuSans-43"/>
      <use x="69.824219" xlink:href="#DejaVuSans-75"/>
      <use x="133.203125" xlink:href="#DejaVuSans-6d"/>
      <use x="230.615234" xlink:href="#DejaVuSans-75"/>
      <use x="293.994141" xlink:href="#DejaVuSans-6c"/>
      <use x="321.777344" xlink:href="#DejaVuSans-61"/>
      <use x="383.056641" xlink:href="#DejaVuSans-74"/>
      <use x="422.265625" xlink:href="#DejaVuSans-69"/>
      <use x="450.048828" xlink:href="#DejaVuSans-76"/>
      <use x="509.228516" xlink:href="#DejaVuSans-65"/>
      <use x="570.751953" xlink:href="#DejaVuSans-20"/>
      <use x="602.539062" xlink:href="#DejaVuSans-69"/>
      <use x="630.322266" xlink:href="#DejaVuSans-6e"/>
      <use x="693.701172" xlink:href="#DejaVuSans-63"/>
      <use x="748.681641" xlink:href="#DejaVuSans-69"/>
      <use x="776.464844" xlink:href="#DejaVuSans-64"/>
      <use x="839.941406" xlink:href="#DejaVuSans-65"/>
      <use x="901.464844" xlink:href="#DejaVuSans-6e"/>
      <use x="964.84375" xlink:href="#DejaVuSans-63"/>
      <use x="1019.824219" xlink:href="#DejaVuSans-65"/>
     </g>
    </g>
   </g>
   <g id="line2d_11">
    <path clip-path="url(#p4f8ebcca9a)" d="M 69.218182 242.116364 
L 72.637998 242.116364 
L 76.057814 242.116364 
L 79.47763 242.116364 
L 82.897446 242.116364 
L 86.317263 242.116364 
L 89.737079 242.116364 
L 93.156895 242.116364 
L 96.576711 242.116364 
L 99.996527 242.116364 
L 103.416343 242.116364 
L 106.836159 242.116364 
L 110.255975 242.116364 
L 113.675792 242.116364 
L 117.095608 242.116364 
L 120.515424 242.116364 
L 123.93524 242.116364 
L 127.355056 242.116364 
L 130.774872 242.116364 
L 134.194688 242.116364 
L 137.614505 242.116364 
L 141.034321 242.116364 
L 144.454137 242.116364 
L 147.873953 242.116364 
L 151.293769 242.116364 
L 154.713585 242.116364 
L 158.133401 242.116364 
L 161.553218 242.112165 
L 164.973034 242.112165 
L 168.39285 242.112165 
L 171.812666 242.112165 
L 175.232482 242.112165 
L 178.652298 242.107967 
L 182.072114 242.107967 
L 185.491931 242.107967 
L 188.911747 242.107967 
L 192.331563 242.107967 
L 195.751379 242.107967 
L 199.171195 242.107967 
L 202.591011 242.107967 
L 206.010827 242.103769 
L 209.430644 242.103769 
L 212.85046 242.103769 
L 216.270276 242.103769 
L 219.690092 242.099571 
L 223.109908 242.099571 
L 226.529724 242.099571 
L 229.94954 242.099571 
L 233.369356 242.091174 
L 236.789173 242.091174 
L 240.208989 242.091174 
L 243.628805 242.086976 
L 247.048621 242.086976 
L 250.468437 242.082778 
L 253.888253 242.082778 
L 257.308069 242.074382 
L 260.727886 242.074382 
L 264.147702 242.070183 
L 267.567518 242.070183 
L 270.987334 242.065985 
L 274.40715 242.065985 
L 277.826966 242.065985 
L 281.246782 242.061787 
L 284.666599 242.061787 
L 288.086415 242.061787 
L 291.506231 242.061787 
L 294.926047 242.061787 
L 298.345863 242.05339 
L 301.765679 242.05339 
L 305.185495 242.040796 
L 308.605312 242.024003 
L 312.025128 242.015607 
L 315.444944 241.994616 
L 318.86476 241.977823 
L 322.284576 241.973624 
L 325.704392 241.952633 
L 329.124208 241.910651 
L 332.544025 241.872867 
L 335.963841 241.822489 
L 339.383657 241.776309 
L 342.803473 241.72593 
L 346.223289 241.700741 
L 349.643105 241.646164 
L 353.062921 241.583191 
L 356.482737 241.51602 
L 359.902554 241.453046 
L 363.32237 241.356488 
L 366.742186 241.234739 
L 370.162002 241.125586 
L 373.581818 241.016433 
" style="fill:none;stroke:#4c72b0;stroke-linecap:round;stroke-width:1.5;"/>
   </g>
   <g id="line2d_12">
    <path clip-path="url(#p4f8ebcca9a)" d="M 69.218182 242.116364 
L 72.637998 242.116364 
L 76.057814 242.116364 
L 79.47763 242.116364 
L 82.897446 242.116364 
L 86.317263 242.116364 
L 89.737079 242.116364 
L 93.156895 242.116364 
L 96.576711 242.116364 
L 99.996527 242.116364 
L 103.416343 242.116364 
L 106.836159 242.116364 
L 110.255975 242.116364 
L 113.675792 242.116364 
L 117.095608 242.116364 
L 120.515424 242.116364 
L 123.93524 242.116364 
L 127.355056 242.116364 
L 130.774872 242.116364 
L 134.194688 242.116364 
L 137.614505 242.116364 
L 141.034321 242.116364 
L 144.454137 242.116364 
L 147.873953 242.116364 
L 151.293769 242.116364 
L 154.713585 242.116364 
L 158.133401 242.112165 
L 161.553218 242.103769 
L 164.973034 242.095373 
L 168.39285 242.095373 
L 171.812666 242.091174 
L 175.232482 242.091174 
L 178.652298 242.086976 
L 182.072114 242.086976 
L 185.491931 242.086976 
L 188.911747 242.086976 
L 192.331563 242.086976 
L 195.751379 242.082778 
L 199.171195 242.082778 
L 202.591011 242.082778 
L 206.010827 242.082778 
L 209.430644 242.082778 
L 212.85046 242.082778 
L 216.270276 242.07858 
L 219.690092 242.07858 
L 223.109908 242.07858 
L 226.529724 242.074382 
L 229.94954 242.074382 
L 233.369356 242.057589 
L 236.789173 242.05339 
L 240.208989 242.049192 
L 243.628805 242.032399 
L 247.048621 242.019805 
L 250.468437 242.015607 
L 253.888253 241.998814 
L 257.308069 241.986219 
L 260.727886 241.977823 
L 264.147702 241.948435 
L 267.567518 241.935841 
L 270.987334 241.927444 
L 274.40715 241.893858 
L 277.826966 241.851876 
L 281.246782 241.830885 
L 284.666599 241.755318 
L 288.086415 241.667155 
L 291.506231 241.604182 
L 294.926047 241.507623 
L 298.345863 241.339695 
L 301.765679 241.121388 
L 305.185495 240.873693 
L 308.605312 240.57562 
L 312.025128 240.193583 
L 315.444944 239.735978 
L 318.86476 239.16922 
L 322.284576 238.619255 
L 325.704392 238.069289 
L 329.124208 237.242242 
L 332.544025 236.369014 
L 335.963841 235.449606 
L 339.383657 234.349675 
L 342.803473 233.186771 
L 346.223289 231.868533 
L 349.643105 230.504114 
L 353.062921 229.034741 
L 356.482737 227.330267 
L 359.902554 225.65938 
L 363.32237 223.921321 
L 366.742186 222.275622 
L 370.162002 220.323454 
L 373.581818 218.358692 
" style="fill:none;stroke:#dd8452;stroke-linecap:round;stroke-width:1.5;"/>
   </g>
   <g id="line2d_13">
    <path clip-path="url(#p4f8ebcca9a)" d="M 69.218182 242.116364 
L 72.637998 242.116364 
L 76.057814 242.116364 
L 79.47763 242.116364 
L 82.897446 242.116364 
L 86.317263 242.116364 
L 89.737079 242.116364 
L 93.156895 242.116364 
L 96.576711 242.116364 
L 99.996527 242.116364 
L 103.416343 242.116364 
L 106.836159 242.116364 
L 110.255975 242.116364 
L 113.675792 242.116364 
L 117.095608 242.116364 
L 120.515424 242.116364 
L 123.93524 242.116364 
L 127.355056 242.112165 
L 130.774872 242.107967 
L 134.194688 242.099571 
L 137.614505 242.091174 
L 141.034321 242.074382 
L 144.454137 242.065985 
L 147.873953 242.061787 
L 151.293769 242.05339 
L 154.713585 242.05339 
L 158.133401 242.049192 
L 161.553218 242.044994 
L 164.973034 242.040796 
L 168.39285 242.040796 
L 171.812666 242.040796 
L 175.232482 242.040796 
L 178.652298 242.040796 
L 182.072114 242.040796 
L 185.491931 242.040796 
L 188.911747 242.040796 
L 192.331563 242.040796 
L 195.751379 242.040796 
L 199.171195 242.036598 
L 202.591011 242.032399 
L 206.010827 242.032399 
L 209.430644 242.024003 
L 212.85046 242.00721 
L 216.270276 241.990417 
L 219.690092 241.965228 
L 223.109908 241.952633 
L 226.529724 241.923246 
L 229.94954 241.885462 
L 233.369356 241.860273 
L 236.789173 241.818291 
L 240.208989 241.767912 
L 243.628805 241.696543 
L 247.048621 241.637768 
L 250.468437 241.495029 
L 253.888253 241.348091 
L 257.308069 241.167568 
L 260.727886 240.970252 
L 264.147702 240.714161 
L 267.567518 240.407692 
L 270.987334 239.979475 
L 274.40715 239.374932 
L 277.826966 238.589867 
L 281.246782 237.586495 
L 284.666599 236.390005 
L 288.086415 235.13474 
L 291.506231 233.413474 
L 294.926047 231.478099 
L 298.345863 229.139696 
L 301.765679 226.645959 
L 305.185495 224.017879 
L 308.605312 220.751672 
L 312.025128 217.674384 
L 315.444944 214.076518 
L 318.86476 210.520634 
L 322.284576 206.603704 
L 325.704392 202.804323 
L 329.124208 199.038529 
L 332.544025 195.155184 
L 335.963841 191.376795 
L 339.383657 187.581613 
L 342.803473 183.723458 
L 346.223289 180.08361 
L 349.643105 176.951745 
L 353.062921 173.530204 
L 356.482737 170.125455 
L 359.902554 167.027176 
L 363.32237 163.966681 
L 366.742186 160.901987 
L 370.162002 158.118574 
L 373.581818 155.137845 
" style="fill:none;stroke:#55a868;stroke-linecap:round;stroke-width:1.5;"/>
   </g>
   <g id="line2d_14">
    <path clip-path="url(#p4f8ebcca9a)" d="M 69.218182 242.116364 
L 72.637998 242.116364 
L 76.057814 242.116364 
L 79.47763 242.116364 
L 82.897446 242.116364 
L 86.317263 242.116364 
L 89.737079 242.116364 
L 93.156895 242.116364 
L 96.576711 242.116364 
L 99.996527 242.116364 
L 103.416343 242.116364 
L 106.836159 242.116364 
L 110.255975 242.116364 
L 113.675792 242.116364 
L 117.095608 242.116364 
L 120.515424 242.112165 
L 123.93524 242.103769 
L 127.355056 242.095373 
L 130.774872 242.074382 
L 134.194688 242.049192 
L 137.614505 242.024003 
L 141.034321 242.024003 
L 144.454137 242.00721 
L 147.873953 242.00721 
L 151.293769 242.00721 
L 154.713585 242.00721 
L 158.133401 242.00721 
L 161.553218 242.00721 
L 164.973034 242.00721 
L 168.39285 242.003012 
L 171.812666 241.998814 
L 175.232482 241.998814 
L 178.652298 241.994616 
L 182.072114 241.973624 
L 185.491931 241.96103 
L 188.911747 241.940039 
L 192.331563 241.919048 
L 195.751379 241.88966 
L 199.171195 241.868669 
L 202.591011 241.814093 
L 206.010827 241.759516 
L 209.430644 241.696543 
L 212.85046 241.578993 
L 216.270276 241.461443 
L 219.690092 241.343893 
L 223.109908 241.171766 
L 226.529724 240.991243 
L 229.94954 240.793927 
L 233.369356 240.525242 
L 236.789173 240.218773 
L 240.208989 239.647816 
L 243.628805 238.988697 
L 247.048621 238.157451 
L 250.468437 237.112097 
L 253.888253 235.718291 
L 257.308069 233.875277 
L 260.727886 231.813956 
L 264.147702 229.282435 
L 267.567518 226.188354 
L 270.987334 222.825588 
L 274.40715 218.904459 
L 277.826966 214.647474 
L 281.246782 210.251948 
L 284.666599 205.520565 
L 288.086415 200.810173 
L 291.506231 196.053601 
L 294.926047 191.431372 
L 298.345863 186.733575 
L 301.765679 182.132336 
L 305.185495 177.904739 
L 308.605312 173.765303 
L 312.025128 169.860968 
L 315.444944 166.19593 
L 318.86476 162.430136 
L 322.284576 158.996 
L 325.704392 156.015271 
L 329.124208 152.837226 
L 332.544025 149.793523 
L 335.963841 146.909353 
L 339.383657 144.331652 
L 342.803473 141.879897 
L 346.223289 139.537296 
L 349.643105 137.081343 
L 353.062921 134.885679 
L 356.482737 132.719402 
L 359.902554 130.645486 
L 363.32237 128.743697 
L 366.742186 126.879692 
L 370.162002 125.057669 
L 373.581818 123.24824 
" style="fill:none;stroke:#c44e52;stroke-linecap:round;stroke-width:1.5;"/>
   </g>
   <g id="line2d_15">
    <path clip-path="url(#p4f8ebcca9a)" d="M 69.218182 242.116364 
L 72.637998 242.116364 
L 76.057814 242.116364 
L 79.47763 242.116364 
L 82.897446 242.116364 
L 86.317263 242.116364 
L 89.737079 242.116364 
L 93.156895 242.116364 
L 96.576711 242.116364 
L 99.996527 242.116364 
L 103.416343 242.116364 
L 106.836159 242.116364 
L 110.255975 242.116364 
L 113.675792 242.116364 
L 117.095608 242.103769 
L 120.515424 242.091174 
L 123.93524 242.082778 
L 127.355056 242.05339 
L 130.774872 242.028201 
L 134.194688 242.019805 
L 137.614505 242.019805 
L 141.034321 242.015607 
L 144.454137 242.015607 
L 147.873953 242.015607 
L 151.293769 242.015607 
L 154.713585 242.011408 
L 158.133401 242.011408 
L 161.553218 242.003012 
L 164.973034 241.990417 
L 168.39285 241.982021 
L 171.812666 241.96103 
L 175.232482 241.923246 
L 178.652298 241.885462 
L 182.072114 241.835084 
L 185.491931 241.759516 
L 188.911747 241.67975 
L 192.331563 241.545407 
L 195.751379 241.37328 
L 199.171195 241.201154 
L 202.591011 240.915676 
L 206.010827 240.605008 
L 209.430644 240.243962 
L 212.85046 239.706591 
L 216.270276 239.181815 
L 219.690092 238.350569 
L 223.109908 237.322008 
L 226.529724 235.995373 
L 229.94954 234.152359 
L 233.369356 231.956695 
L 236.789173 229.353805 
L 240.208989 226.242931 
L 243.628805 222.758416 
L 247.048621 218.493035 
L 250.468437 213.631507 
L 253.888253 208.790971 
L 257.308069 203.685947 
L 260.727886 198.203085 
L 264.147702 192.728619 
L 267.567518 187.380099 
L 270.987334 182.33385 
L 274.40715 177.627657 
L 277.826966 173.080995 
L 281.246782 168.840803 
L 284.666599 164.818917 
L 288.086415 160.860005 
L 291.506231 157.144589 
L 294.926047 153.777625 
L 298.345863 150.670949 
L 301.765679 147.660832 
L 305.185495 144.751473 
L 308.605312 141.787536 
L 312.025128 139.125871 
L 315.444944 136.439016 
L 318.86476 133.92009 
L 322.284576 131.518714 
L 325.704392 129.281068 
L 329.124208 126.913278 
L 332.544025 124.872947 
L 335.963841 122.820023 
L 339.383657 120.817476 
L 342.803473 118.953471 
L 346.223289 117.097862 
L 349.643105 115.25065 
L 353.062921 113.596555 
L 356.482737 112.005433 
L 359.902554 110.208599 
L 363.32237 108.504126 
L 366.742186 106.854229 
L 370.162002 105.263108 
L 373.581818 103.814725 
" style="fill:none;stroke:#8172b3;stroke-linecap:round;stroke-width:1.5;"/>
   </g>
   <g id="line2d_16">
    <path clip-path="url(#p4f8ebcca9a)" d="M 69.218182 242.116364 
L 72.637998 242.116364 
L 76.057814 242.116364 
L 79.47763 242.116364 
L 82.897446 242.116364 
L 86.317263 242.116364 
L 89.737079 242.116364 
L 93.156895 242.116364 
L 96.576711 242.116364 
L 99.996527 242.116364 
L 103.416343 242.116364 
L 106.836159 242.116364 
L 110.255975 242.116364 
L 113.675792 242.112165 
L 117.095608 242.099571 
L 120.515424 242.099571 
L 123.93524 242.07858 
L 127.355056 242.036598 
L 130.774872 242.028201 
L 134.194688 242.028201 
L 137.614505 242.015607 
L 141.034321 242.00721 
L 144.454137 242.003012 
L 147.873953 241.990417 
L 151.293769 241.982021 
L 154.713585 241.948435 
L 158.133401 241.910651 
L 161.553218 241.877066 
L 164.973034 241.809894 
L 168.39285 241.683948 
L 171.812666 241.574795 
L 175.232482 241.402668 
L 178.652298 241.226343 
L 182.072114 240.957658 
L 185.491931 240.537837 
L 188.911747 239.958484 
L 192.331563 239.223797 
L 195.751379 238.379957 
L 199.171195 237.086908 
L 202.591011 235.483192 
L 206.010827 233.602393 
L 209.430644 231.339558 
L 212.85046 228.488973 
L 216.270276 225.147198 
L 219.690092 221.045547 
L 223.109908 216.553462 
L 226.529724 211.687736 
L 229.94954 206.242657 
L 233.369356 200.633849 
L 236.789173 194.680787 
L 240.208989 188.967023 
L 243.628805 183.479962 
L 247.048621 178.379136 
L 250.468437 173.290906 
L 253.888253 168.446171 
L 257.308069 164.096825 
L 260.727886 159.856633 
L 264.147702 155.935505 
L 267.567518 152.144521 
L 270.987334 148.517267 
L 274.40715 145.209078 
L 277.826966 142.047825 
L 281.246782 138.907564 
L 284.666599 135.943628 
L 288.086415 133.23998 
L 291.506231 130.435576 
L 294.926047 127.925046 
L 298.345863 125.498481 
L 301.765679 123.197862 
L 305.185495 121.027387 
L 308.605312 118.890498 
L 312.025128 116.787195 
L 315.444944 114.667098 
L 318.86476 112.517615 
L 322.284576 110.708186 
L 325.704392 109.028902 
L 329.124208 107.223672 
L 332.544025 105.573775 
L 335.963841 104.03723 
L 339.383657 102.479694 
L 342.803473 101.08169 
L 346.223289 99.536749 
L 349.643105 98.109357 
L 353.062921 96.799516 
L 356.482737 95.283962 
L 359.902554 94.024499 
L 363.32237 92.706261 
L 366.742186 91.446798 
L 370.162002 90.141154 
L 373.581818 88.93207 
" style="fill:none;stroke:#937860;stroke-linecap:round;stroke-width:1.5;"/>
   </g>
   <g id="line2d_17">
    <path clip-path="url(#p4f8ebcca9a)" d="M 69.218182 242.116364 
L 72.637998 242.116364 
L 76.057814 242.116364 
L 79.47763 242.116364 
L 82.897446 242.116364 
L 86.317263 242.116364 
L 89.737079 242.116364 
L 93.156895 242.116364 
L 96.576711 242.116364 
L 99.996527 242.116364 
L 103.416343 242.112165 
L 106.836159 242.107967 
L 110.255975 242.107967 
L 113.675792 242.107967 
L 117.095608 242.07858 
L 120.515424 242.065985 
L 123.93524 242.044994 
L 127.355056 242.044994 
L 130.774872 242.040796 
L 134.194688 242.028201 
L 137.614505 242.015607 
L 141.034321 241.998814 
L 144.454137 241.931642 
L 147.873953 241.898057 
L 151.293769 241.84348 
L 154.713585 241.692344 
L 158.133401 241.461443 
L 161.553218 241.079406 
L 164.973034 240.672179 
L 168.39285 240.097025 
L 171.812666 239.173418 
L 175.232482 238.002118 
L 178.652298 236.461374 
L 182.072114 234.450432 
L 185.491931 232.137218 
L 188.911747 228.971767 
L 192.331563 225.487253 
L 195.751379 221.087529 
L 199.171195 216.259587 
L 202.591011 211.024419 
L 206.010827 205.516367 
L 209.430644 199.198061 
L 212.85046 193.295377 
L 216.270276 187.069431 
L 219.690092 181.624353 
L 223.109908 175.973562 
L 226.529724 170.549474 
L 229.94954 165.394072 
L 233.369356 160.494761 
L 236.789173 156.145415 
L 240.208989 151.871637 
L 243.628805 147.769986 
L 247.048621 144.104948 
L 250.468437 140.498686 
L 253.888253 137.106532 
L 257.308069 133.752162 
L 260.727886 130.599306 
L 264.147702 127.618577 
L 267.567518 124.755397 
L 270.987334 122.026561 
L 274.40715 119.398481 
L 277.826966 116.963519 
L 281.246782 114.574738 
L 284.666599 112.22374 
L 288.086415 110.208599 
L 291.506231 108.151476 
L 294.926047 106.136335 
L 298.345863 104.263934 
L 301.765679 102.4671 
L 305.185495 100.691257 
L 308.605312 99.066549 
L 312.025128 97.454437 
L 315.444944 95.754161 
L 318.86476 94.276391 
L 322.284576 92.865793 
L 325.704392 91.362834 
L 329.124208 90.103371 
L 332.544025 88.675979 
L 335.963841 87.40812 
L 339.383657 86.102476 
L 342.803473 84.847211 
L 346.223289 83.843839 
L 349.643105 82.643151 
L 353.062921 81.560013 
L 356.482737 80.443289 
L 359.902554 79.473502 
L 363.32237 78.512112 
L 366.742186 77.731245 
L 370.162002 76.778251 
L 373.581818 75.871438 
" style="fill:none;stroke:#da8bc3;stroke-linecap:round;stroke-width:1.5;"/>
   </g>
   <g id="line2d_18">
    <path clip-path="url(#p4f8ebcca9a)" d="M 69.218182 242.116364 
L 72.637998 242.116364 
L 76.057814 242.116364 
L 79.47763 242.116364 
L 82.897446 242.116364 
L 86.317263 242.116364 
L 89.737079 242.116364 
L 93.156895 242.116364 
L 96.576711 242.116364 
L 99.996527 242.116364 
L 103.416343 242.116364 
L 106.836159 242.107967 
L 110.255975 242.095373 
L 113.675792 242.082778 
L 117.095608 242.061787 
L 120.515424 242.036598 
L 123.93524 242.015607 
L 127.355056 241.977823 
L 130.774872 241.923246 
L 134.194688 241.7973 
L 137.614505 241.646164 
L 141.034321 241.381677 
L 144.454137 240.961856 
L 147.873953 240.168394 
L 151.293769 239.16922 
L 154.713585 237.704045 
L 158.133401 235.659516 
L 161.553218 233.354699 
L 164.973034 230.394961 
L 168.39285 226.687941 
L 171.812666 222.414163 
L 175.232482 217.439284 
L 178.652298 211.574384 
L 182.072114 205.281267 
L 185.491931 198.551536 
L 188.911747 191.8344 
L 192.331563 185.327174 
L 195.751379 178.794759 
L 199.171195 172.539426 
L 202.591011 166.955806 
L 206.010827 161.292421 
L 209.430644 155.696207 
L 212.85046 150.57439 
L 216.270276 145.780034 
L 219.690092 141.287949 
L 223.109908 137.043559 
L 226.529724 133.151818 
L 229.94954 129.4406 
L 233.369356 126.094627 
L 236.789173 122.80323 
L 240.208989 119.423671 
L 243.628805 116.535302 
L 247.048621 113.604951 
L 250.468437 111.094422 
L 253.888253 108.630072 
L 257.308069 106.300065 
L 260.727886 103.907086 
L 264.147702 101.627457 
L 267.567518 99.570335 
L 270.987334 97.475428 
L 274.40715 95.619819 
L 277.826966 93.915345 
L 281.246782 92.101719 
L 284.666599 90.355263 
L 288.086415 88.625601 
L 291.506231 87.068065 
L 294.926047 85.489537 
L 298.345863 83.978182 
L 301.765679 82.567583 
L 305.185495 81.148588 
L 308.605312 79.817756 
L 312.025128 78.600275 
L 315.444944 77.441569 
L 318.86476 76.236682 
L 322.284576 75.082174 
L 325.704392 74.024225 
L 329.124208 72.962078 
L 332.544025 71.962904 
L 335.963841 71.119064 
L 339.383657 70.271026 
L 342.803473 69.422987 
L 346.223289 68.608534 
L 349.643105 67.794081 
L 353.062921 67.101377 
L 356.482737 66.429663 
L 359.902554 65.585823 
L 363.32237 64.846938 
L 366.742186 64.09126 
L 370.162002 63.448934 
L 373.581818 62.785617 
" style="fill:none;stroke:#8c8c8c;stroke-linecap:round;stroke-width:1.5;"/>
   </g>
   <g id="line2d_19">
    <path clip-path="url(#p4f8ebcca9a)" d="M 69.218182 242.116364 
L 72.637998 242.116364 
L 76.057814 242.116364 
L 79.47763 242.116364 
L 82.897446 242.116364 
L 86.317263 242.116364 
L 89.737079 242.116364 
L 93.156895 242.116364 
L 96.576711 242.116364 
L 99.996527 242.107967 
L 103.416343 242.107967 
L 106.836159 242.099571 
L 110.255975 242.086976 
L 113.675792 242.065985 
L 117.095608 242.015607 
L 120.515424 241.927444 
L 123.93524 241.763714 
L 127.355056 241.507623 
L 130.774872 240.924072 
L 134.194688 240.067637 
L 137.614505 238.552083 
L 141.034321 236.226275 
L 144.454137 233.060824 
L 147.873953 229.001155 
L 151.293769 223.954906 
L 154.713585 218.115196 
L 158.133401 210.99923 
L 161.553218 203.639767 
L 164.973034 196.351674 
L 168.39285 189.017401 
L 171.812666 181.376658 
L 175.232482 173.803087 
L 178.652298 166.930617 
L 182.072114 160.645896 
L 185.491931 154.743213 
L 188.911747 148.974872 
L 192.331563 143.769091 
L 195.751379 138.978934 
L 199.171195 134.297929 
L 202.591011 130.124908 
L 206.010827 125.918302 
L 209.430644 122.093732 
L 212.85046 118.575632 
L 216.270276 115.162487 
L 219.690092 111.992838 
L 223.109908 108.949136 
L 226.529724 106.039776 
L 229.94954 103.373913 
L 233.369356 101.014519 
L 236.789173 98.751684 
L 240.208989 96.459461 
L 243.628805 94.267995 
L 247.048621 92.101719 
L 250.468437 89.994217 
L 253.888253 88.092428 
L 257.308069 86.127665 
L 260.727886 84.406399 
L 264.147702 82.718719 
L 267.567518 81.232552 
L 270.987334 79.779972 
L 274.40715 78.35258 
L 277.826966 76.887405 
L 281.246782 75.556572 
L 284.666599 74.183757 
L 288.086415 72.978871 
L 291.506231 71.711012 
L 294.926047 70.543909 
L 298.345863 69.523744 
L 301.765679 68.566552 
L 305.185495 67.596766 
L 308.605312 66.597592 
L 312.025128 65.678184 
L 315.444944 64.863731 
L 318.86476 64.011494 
L 322.284576 63.184447 
L 325.704392 62.281832 
L 329.124208 61.521955 
L 332.544025 60.715899 
L 335.963841 59.989609 
L 339.383657 59.221336 
L 342.803473 58.574812 
L 346.223289 57.919891 
L 349.643105 57.243979 
L 353.062921 56.58486 
L 356.482737 55.917345 
L 359.902554 55.266622 
L 363.32237 54.683071 
L 366.742186 54.124709 
L 370.162002 53.599933 
L 373.581818 53.104544 
" style="fill:none;stroke:#ccb974;stroke-linecap:round;stroke-width:1.5;"/>
   </g>
   <g id="line2d_20">
    <path clip-path="url(#p4f8ebcca9a)" d="M 69.218182 242.116364 
L 72.637998 242.116364 
L 76.057814 242.116364 
L 79.47763 242.116364 
L 82.897446 242.116364 
L 86.317263 242.116364 
L 89.737079 242.116364 
L 93.156895 242.116364 
L 96.576711 242.116364 
L 99.996527 242.116364 
L 103.416343 242.112165 
L 106.836159 242.086976 
L 110.255975 241.994616 
L 113.675792 241.784705 
L 117.095608 241.381677 
L 120.515424 240.588215 
L 123.93524 239.181815 
L 127.355056 236.797231 
L 130.774872 232.74176 
L 134.194688 227.141348 
L 137.614505 220.336049 
L 141.034321 212.325864 
L 144.454137 203.601983 
L 147.873953 194.643003 
L 151.293769 185.625247 
L 154.713585 177.472323 
L 158.133401 169.218642 
L 161.553218 161.708044 
L 164.973034 154.642456 
L 168.39285 148.303159 
L 171.812666 142.161177 
L 175.232482 136.409629 
L 178.652298 131.119884 
L 182.072114 126.241564 
L 185.491931 121.451406 
L 188.911747 116.997105 
L 192.331563 113.008805 
L 195.751379 109.19683 
L 199.171195 105.758496 
L 202.591011 102.67701 
L 206.010827 99.582929 
L 209.430644 96.778525 
L 212.85046 94.087472 
L 216.270276 91.518167 
L 219.690092 89.062214 
L 223.109908 86.816172 
L 226.529724 84.742256 
L 229.94954 82.874053 
L 233.369356 80.913488 
L 236.789173 79.133447 
L 240.208989 77.43737 
L 243.628805 75.783276 
L 247.048621 74.166965 
L 250.468437 72.735375 
L 253.888253 71.286992 
L 257.308069 69.901583 
L 260.727886 68.562354 
L 264.147702 67.286098 
L 267.567518 65.993049 
L 270.987334 64.834343 
L 274.40715 63.730214 
L 277.826966 62.584103 
L 281.246782 61.563938 
L 284.666599 60.686512 
L 288.086415 59.842671 
L 291.506231 59.003029 
L 294.926047 58.104612 
L 298.345863 57.327943 
L 301.765679 56.479905 
L 305.185495 55.724227 
L 308.605312 55.002135 
L 312.025128 54.372403 
L 315.444944 53.633518 
L 318.86476 52.924021 
L 322.284576 52.285893 
L 325.704392 51.601585 
L 329.124208 50.963457 
L 332.544025 50.30014 
L 335.963841 49.708192 
L 339.383657 49.170821 
L 342.803473 48.658639 
L 346.223289 48.18844 
L 349.643105 47.676258 
L 353.062921 47.218653 
L 356.482737 46.651895 
L 359.902554 46.118722 
L 363.32237 45.732487 
L 366.742186 45.321062 
L 370.162002 44.829872 
L 373.581818 44.443636 
" style="fill:none;stroke:#64b5cd;stroke-linecap:round;stroke-width:1.5;"/>
   </g>
   <g id="patch_3">
    <path d="M 54 252 
L 54 34.56 
" style="fill:none;stroke:#ffffff;stroke-linecap:square;stroke-linejoin:miter;stroke-width:1.25;"/>
   </g>
   <g id="patch_4">
    <path d="M 388.8 252 
L 388.8 34.56 
" style="fill:none;stroke:#ffffff;stroke-linecap:square;stroke-linejoin:miter;stroke-width:1.25;"/>
   </g>
   <g id="patch_5">
    <path d="M 54 252 
L 388.8 252 
" style="fill:none;stroke:#ffffff;stroke-linecap:square;stroke-linejoin:miter;stroke-width:1.25;"/>
   </g>
   <g id="patch_6">
    <path d="M 54 34.56 
L 388.8 34.56 
" style="fill:none;stroke:#ffffff;stroke-linecap:square;stroke-linejoin:miter;stroke-width:1.25;"/>
   </g>
   <g id="legend_1">
    <g id="patch_7">
     <path d="M 61.7 204.819375 
L 132.359531 204.819375 
Q 134.559531 204.819375 134.559531 202.619375 
L 134.559531 42.26 
Q 134.559531 40.06 132.359531 40.06 
L 61.7 40.06 
Q 59.5 40.06 59.5 42.26 
L 59.5 202.619375 
Q 59.5 204.819375 61.7 204.819375 
z
" style="fill:#eaeaf2;opacity:0.8;stroke:#cccccc;stroke-linejoin:miter;"/>
    </g>
    <g id="line2d_21">
     <path d="M 63.9 48.968281 
L 85.9 48.968281 
" style="fill:none;stroke:#4c72b0;stroke-linecap:round;stroke-width:1.5;"/>
    </g>
    <g id="line2d_22"/>
    <g id="text_13">
     <!-- -10.42 -->
     <defs>
      <path d="M 4.890625 31.390625 
L 31.203125 31.390625 
L 31.203125 23.390625 
L 4.890625 23.390625 
z
" id="DejaVuSans-2d"/>
      <path d="M 10.6875 12.40625 
L 21 12.40625 
L 21 0 
L 10.6875 0 
z
" id="DejaVuSans-2e"/>
     </defs>
     <g style="fill:#262626;" transform="translate(94.7 52.818281)scale(0.11 -0.11)">
      <use xlink:href="#DejaVuSans-2d"/>
      <use x="36.083984" xlink:href="#DejaVuSans-31"/>
      <use x="99.707031" xlink:href="#DejaVuSans-30"/>
      <use x="163.330078" xlink:href="#DejaVuSans-2e"/>
      <use x="195.117188" xlink:href="#DejaVuSans-34"/>
      <use x="258.740234" xlink:href="#DejaVuSans-32"/>
     </g>
    </g>
    <g id="line2d_23">
     <path d="M 63.9 65.114219 
L 85.9 65.114219 
" style="fill:none;stroke:#dd8452;stroke-linecap:round;stroke-width:1.5;"/>
    </g>
    <g id="line2d_24"/>
    <g id="text_14">
     <!-- -9.99 -->
     <defs>
      <path d="M 10.984375 1.515625 
L 10.984375 10.5 
Q 14.703125 8.734375 18.5 7.8125 
Q 22.3125 6.890625 25.984375 6.890625 
Q 35.75 6.890625 40.890625 13.453125 
Q 46.046875 20.015625 46.78125 33.40625 
Q 43.953125 29.203125 39.59375 26.953125 
Q 35.25 24.703125 29.984375 24.703125 
Q 19.046875 24.703125 12.671875 31.3125 
Q 6.296875 37.9375 6.296875 49.421875 
Q 6.296875 60.640625 12.9375 67.421875 
Q 19.578125 74.21875 30.609375 74.21875 
Q 43.265625 74.21875 49.921875 64.515625 
Q 56.59375 54.828125 56.59375 36.375 
Q 56.59375 19.140625 48.40625 8.859375 
Q 40.234375 -1.421875 26.421875 -1.421875 
Q 22.703125 -1.421875 18.890625 -0.6875 
Q 15.09375 0.046875 10.984375 1.515625 
z
M 30.609375 32.421875 
Q 37.25 32.421875 41.125 36.953125 
Q 45.015625 41.5 45.015625 49.421875 
Q 45.015625 57.28125 41.125 61.84375 
Q 37.25 66.40625 30.609375 66.40625 
Q 23.96875 66.40625 20.09375 61.84375 
Q 16.21875 57.28125 16.21875 49.421875 
Q 16.21875 41.5 20.09375 36.953125 
Q 23.96875 32.421875 30.609375 32.421875 
z
" id="DejaVuSans-39"/>
     </defs>
     <g style="fill:#262626;" transform="translate(94.7 68.964219)scale(0.11 -0.11)">
      <use xlink:href="#DejaVuSans-2d"/>
      <use x="36.083984" xlink:href="#DejaVuSans-39"/>
      <use x="99.707031" xlink:href="#DejaVuSans-2e"/>
      <use x="131.494141" xlink:href="#DejaVuSans-39"/>
      <use x="195.117188" xlink:href="#DejaVuSans-39"/>
     </g>
    </g>
    <g id="line2d_25">
     <path d="M 63.9 81.260156 
L 85.9 81.260156 
" style="fill:none;stroke:#55a868;stroke-linecap:round;stroke-width:1.5;"/>
    </g>
    <g id="line2d_26"/>
    <g id="text_15">
     <!-- -9.55 -->
     <defs>
      <path d="M 10.796875 72.90625 
L 49.515625 72.90625 
L 49.515625 64.59375 
L 19.828125 64.59375 
L 19.828125 46.734375 
Q 21.96875 47.46875 24.109375 47.828125 
Q 26.265625 48.1875 28.421875 48.1875 
Q 40.625 48.1875 47.75 41.5 
Q 54.890625 34.8125 54.890625 23.390625 
Q 54.890625 11.625 47.5625 5.09375 
Q 40.234375 -1.421875 26.90625 -1.421875 
Q 22.3125 -1.421875 17.546875 -0.640625 
Q 12.796875 0.140625 7.71875 1.703125 
L 7.71875 11.625 
Q 12.109375 9.234375 16.796875 8.0625 
Q 21.484375 6.890625 26.703125 6.890625 
Q 35.15625 6.890625 40.078125 11.328125 
Q 45.015625 15.765625 45.015625 23.390625 
Q 45.015625 31 40.078125 35.4375 
Q 35.15625 39.890625 26.703125 39.890625 
Q 22.75 39.890625 18.8125 39.015625 
Q 14.890625 38.140625 10.796875 36.28125 
z
" id="DejaVuSans-35"/>
     </defs>
     <g style="fill:#262626;" transform="translate(94.7 85.110156)scale(0.11 -0.11)">
      <use xlink:href="#DejaVuSans-2d"/>
      <use x="36.083984" xlink:href="#DejaVuSans-39"/>
      <use x="99.707031" xlink:href="#DejaVuSans-2e"/>
      <use x="131.494141" xlink:href="#DejaVuSans-35"/>
      <use x="195.117188" xlink:href="#DejaVuSans-35"/>
     </g>
    </g>
    <g id="line2d_27">
     <path d="M 63.9 97.406094 
L 85.9 97.406094 
" style="fill:none;stroke:#c44e52;stroke-linecap:round;stroke-width:1.5;"/>
    </g>
    <g id="line2d_28"/>
    <g id="text_16">
     <!-- -9.12 -->
     <g style="fill:#262626;" transform="translate(94.7 101.256094)scale(0.11 -0.11)">
      <use xlink:href="#DejaVuSans-2d"/>
      <use x="36.083984" xlink:href="#DejaVuSans-39"/>
      <use x="99.707031" xlink:href="#DejaVuSans-2e"/>
      <use x="131.494141" xlink:href="#DejaVuSans-31"/>
      <use x="195.117188" xlink:href="#DejaVuSans-32"/>
     </g>
    </g>
    <g id="line2d_29">
     <path d="M 63.9 113.552031 
L 85.9 113.552031 
" style="fill:none;stroke:#8172b3;stroke-linecap:round;stroke-width:1.5;"/>
    </g>
    <g id="line2d_30"/>
    <g id="text_17">
     <!-- -8.69 -->
     <g style="fill:#262626;" transform="translate(94.7 117.402031)scale(0.11 -0.11)">
      <use xlink:href="#DejaVuSans-2d"/>
      <use x="36.083984" xlink:href="#DejaVuSans-38"/>
      <use x="99.707031" xlink:href="#DejaVuSans-2e"/>
      <use x="131.494141" xlink:href="#DejaVuSans-36"/>
      <use x="195.117188" xlink:href="#DejaVuSans-39"/>
     </g>
    </g>
    <g id="line2d_31">
     <path d="M 63.9 129.697969 
L 85.9 129.697969 
" style="fill:none;stroke:#937860;stroke-linecap:round;stroke-width:1.5;"/>
    </g>
    <g id="line2d_32"/>
    <g id="text_18">
     <!-- -8.25 -->
     <g style="fill:#262626;" transform="translate(94.7 133.547969)scale(0.11 -0.11)">
      <use xlink:href="#DejaVuSans-2d"/>
      <use x="36.083984" xlink:href="#DejaVuSans-38"/>
      <use x="99.707031" xlink:href="#DejaVuSans-2e"/>
      <use x="131.494141" xlink:href="#DejaVuSans-32"/>
      <use x="195.117188" xlink:href="#DejaVuSans-35"/>
     </g>
    </g>
    <g id="line2d_33">
     <path d="M 63.9 145.843906 
L 85.9 145.843906 
" style="fill:none;stroke:#da8bc3;stroke-linecap:round;stroke-width:1.5;"/>
    </g>
    <g id="line2d_34"/>
    <g id="text_19">
     <!-- -7.82 -->
     <defs>
      <path d="M 8.203125 72.90625 
L 55.078125 72.90625 
L 55.078125 68.703125 
L 28.609375 0 
L 18.3125 0 
L 43.21875 64.59375 
L 8.203125 64.59375 
z
" id="DejaVuSans-37"/>
     </defs>
     <g style="fill:#262626;" transform="translate(94.7 149.693906)scale(0.11 -0.11)">
      <use xlink:href="#DejaVuSans-2d"/>
      <use x="36.083984" xlink:href="#DejaVuSans-37"/>
      <use x="99.707031" xlink:href="#DejaVuSans-2e"/>
      <use x="131.494141" xlink:href="#DejaVuSans-38"/>
      <use x="195.117188" xlink:href="#DejaVuSans-32"/>
     </g>
    </g>
    <g id="line2d_35">
     <path d="M 63.9 161.989844 
L 85.9 161.989844 
" style="fill:none;stroke:#8c8c8c;stroke-linecap:round;stroke-width:1.5;"/>
    </g>
    <g id="line2d_36"/>
    <g id="text_20">
     <!-- -7.38 -->
     <g style="fill:#262626;" transform="translate(94.7 165.839844)scale(0.11 -0.11)">
      <use xlink:href="#DejaVuSans-2d"/>
      <use x="36.083984" xlink:href="#DejaVuSans-37"/>
      <use x="99.707031" xlink:href="#DejaVuSans-2e"/>
      <use x="131.494141" xlink:href="#DejaVuSans-33"/>
      <use x="195.117188" xlink:href="#DejaVuSans-38"/>
     </g>
    </g>
    <g id="line2d_37">
     <path d="M 63.9 178.135781 
L 85.9 178.135781 
" style="fill:none;stroke:#ccb974;stroke-linecap:round;stroke-width:1.5;"/>
    </g>
    <g id="line2d_38"/>
    <g id="text_21">
     <!-- -6.95 -->
     <g style="fill:#262626;" transform="translate(94.7 181.985781)scale(0.11 -0.11)">
      <use xlink:href="#DejaVuSans-2d"/>
      <use x="36.083984" xlink:href="#DejaVuSans-36"/>
      <use x="99.707031" xlink:href="#DejaVuSans-2e"/>
      <use x="131.494141" xlink:href="#DejaVuSans-39"/>
      <use x="195.117188" xlink:href="#DejaVuSans-35"/>
     </g>
    </g>
    <g id="line2d_39">
     <path d="M 63.9 194.281719 
L 85.9 194.281719 
" style="fill:none;stroke:#64b5cd;stroke-linecap:round;stroke-width:1.5;"/>
    </g>
    <g id="line2d_40"/>
    <g id="text_22">
     <!-- -6.51 -->
     <g style="fill:#262626;" transform="translate(94.7 198.131719)scale(0.11 -0.11)">
      <use xlink:href="#DejaVuSans-2d"/>
      <use x="36.083984" xlink:href="#DejaVuSans-36"/>
      <use x="99.707031" xlink:href="#DejaVuSans-2e"/>
      <use x="131.494141" xlink:href="#DejaVuSans-35"/>
      <use x="195.117188" xlink:href="#DejaVuSans-31"/>
     </g>
    </g>
   </g>
  </g>
 </g>
 <defs>
  <clipPath id="p4f8ebcca9a">
   <rect height="217.44" width="334.8" x="54" y="34.56"/>
  </clipPath>
 </defs>
</svg>
