<?xml version="1.0" encoding="utf-8" standalone="no"?>
<!DOCTYPE svg PUBLIC "-//W3C//DTD SVG 1.1//EN"
  "http://www.w3.org/Graphics/SVG/1.1/DTD/svg11.dtd">
<!-- Created with matplotlib (http://matplotlib.org/) -->
<svg height="288pt" version="1.1" viewBox="0 0 432 288" width="432pt" xmlns="http://www.w3.org/2000/svg" xmlns:xlink="http://www.w3.org/1999/xlink">
 <defs>
  <style type="text/css">
*{stroke-linecap:butt;stroke-linejoin:round;}
  </style>
 </defs>
 <g id="figure_1">
  <g id="patch_1">
   <path d="M 0 288 
L 432 288 
L 432 0 
L 0 0 
z
" style="fill:#ffffff;"/>
  </g>
  <g id="axes_1">
   <g id="patch_2">
    <path d="M 54 252 
L 388.8 252 
L 388.8 34.56 
L 54 34.56 
z
" style="fill:#eaeaf2;"/>
   </g>
   <g id="matplotlib.axis_1">
    <g id="xtick_1">
     <g id="line2d_1">
      <path clip-path="url(#p53cdbf8294)" d="M 69.218182 252 
L 69.218182 34.56 
" style="fill:none;stroke:#ffffff;stroke-linecap:round;"/>
     </g>
     <g id="text_1">
      <!-- 0 -->
      <defs>
       <path d="M 31.78125 66.40625 
Q 24.171875 66.40625 20.328125 58.90625 
Q 16.5 51.421875 16.5 36.375 
Q 16.5 21.390625 20.328125 13.890625 
Q 24.171875 6.390625 31.78125 6.390625 
Q 39.453125 6.390625 43.28125 13.890625 
Q 47.125 21.390625 47.125 36.375 
Q 47.125 51.421875 43.28125 58.90625 
Q 39.453125 66.40625 31.78125 66.40625 
z
M 31.78125 74.21875 
Q 44.046875 74.21875 50.515625 64.515625 
Q 56.984375 54.828125 56.984375 36.375 
Q 56.984375 17.96875 50.515625 8.265625 
Q 44.046875 -1.421875 31.78125 -1.421875 
Q 19.53125 -1.421875 13.0625 8.265625 
Q 6.59375 17.96875 6.59375 36.375 
Q 6.59375 54.828125 13.0625 64.515625 
Q 19.53125 74.21875 31.78125 74.21875 
z
" id="DejaVuSans-30"/>
      </defs>
      <g style="fill:#262626;" transform="translate(65.718807 269.858281)scale(0.11 -0.11)">
       <use xlink:href="#DejaVuSans-30"/>
      </g>
     </g>
    </g>
    <g id="xtick_2">
     <g id="line2d_2">
      <path clip-path="url(#p53cdbf8294)" d="M 137.614505 252 
L 137.614505 34.56 
" style="fill:none;stroke:#ffffff;stroke-linecap:round;"/>
     </g>
     <g id="text_2">
      <!-- 20 -->
      <defs>
       <path d="M 19.1875 8.296875 
L 53.609375 8.296875 
L 53.609375 0 
L 7.328125 0 
L 7.328125 8.296875 
Q 12.9375 14.109375 22.625 23.890625 
Q 32.328125 33.6875 34.8125 36.53125 
Q 39.546875 41.84375 41.421875 45.53125 
Q 43.3125 49.21875 43.3125 52.78125 
Q 43.3125 58.59375 39.234375 62.25 
Q 35.15625 65.921875 28.609375 65.921875 
Q 23.96875 65.921875 18.8125 64.3125 
Q 13.671875 62.703125 7.8125 59.421875 
L 7.8125 69.390625 
Q 13.765625 71.78125 18.9375 73 
Q 24.125 74.21875 28.421875 74.21875 
Q 39.75 74.21875 46.484375 68.546875 
Q 53.21875 62.890625 53.21875 53.421875 
Q 53.21875 48.921875 51.53125 44.890625 
Q 49.859375 40.875 45.40625 35.40625 
Q 44.1875 33.984375 37.640625 27.21875 
Q 31.109375 20.453125 19.1875 8.296875 
z
" id="DejaVuSans-32"/>
      </defs>
      <g style="fill:#262626;" transform="translate(130.615755 269.858281)scale(0.11 -0.11)">
       <use xlink:href="#DejaVuSans-32"/>
       <use x="63.623047" xlink:href="#DejaVuSans-30"/>
      </g>
     </g>
    </g>
    <g id="xtick_3">
     <g id="line2d_3">
      <path clip-path="url(#p53cdbf8294)" d="M 206.010827 252 
L 206.010827 34.56 
" style="fill:none;stroke:#ffffff;stroke-linecap:round;"/>
     </g>
     <g id="text_3">
      <!-- 40 -->
      <defs>
       <path d="M 37.796875 64.3125 
L 12.890625 25.390625 
L 37.796875 25.390625 
z
M 35.203125 72.90625 
L 47.609375 72.90625 
L 47.609375 25.390625 
L 58.015625 25.390625 
L 58.015625 17.1875 
L 47.609375 17.1875 
L 47.609375 0 
L 37.796875 0 
L 37.796875 17.1875 
L 4.890625 17.1875 
L 4.890625 26.703125 
z
" id="DejaVuSans-34"/>
      </defs>
      <g style="fill:#262626;" transform="translate(199.012077 269.858281)scale(0.11 -0.11)">
       <use xlink:href="#DejaVuSans-34"/>
       <use x="63.623047" xlink:href="#DejaVuSans-30"/>
      </g>
     </g>
    </g>
    <g id="xtick_4">
     <g id="line2d_4">
      <path clip-path="url(#p53cdbf8294)" d="M 274.40715 252 
L 274.40715 34.56 
" style="fill:none;stroke:#ffffff;stroke-linecap:round;"/>
     </g>
     <g id="text_4">
      <!-- 60 -->
      <defs>
       <path d="M 33.015625 40.375 
Q 26.375 40.375 22.484375 35.828125 
Q 18.609375 31.296875 18.609375 23.390625 
Q 18.609375 15.53125 22.484375 10.953125 
Q 26.375 6.390625 33.015625 6.390625 
Q 39.65625 6.390625 43.53125 10.953125 
Q 47.40625 15.53125 47.40625 23.390625 
Q 47.40625 31.296875 43.53125 35.828125 
Q 39.65625 40.375 33.015625 40.375 
z
M 52.59375 71.296875 
L 52.59375 62.3125 
Q 48.875 64.0625 45.09375 64.984375 
Q 41.3125 65.921875 37.59375 65.921875 
Q 27.828125 65.921875 22.671875 59.328125 
Q 17.53125 52.734375 16.796875 39.40625 
Q 19.671875 43.65625 24.015625 45.921875 
Q 28.375 48.1875 33.59375 48.1875 
Q 44.578125 48.1875 50.953125 41.515625 
Q 57.328125 34.859375 57.328125 23.390625 
Q 57.328125 12.15625 50.6875 5.359375 
Q 44.046875 -1.421875 33.015625 -1.421875 
Q 20.359375 -1.421875 13.671875 8.265625 
Q 6.984375 17.96875 6.984375 36.375 
Q 6.984375 53.65625 15.1875 63.9375 
Q 23.390625 74.21875 37.203125 74.21875 
Q 40.921875 74.21875 44.703125 73.484375 
Q 48.484375 72.75 52.59375 71.296875 
z
" id="DejaVuSans-36"/>
      </defs>
      <g style="fill:#262626;" transform="translate(267.4084 269.858281)scale(0.11 -0.11)">
       <use xlink:href="#DejaVuSans-36"/>
       <use x="63.623047" xlink:href="#DejaVuSans-30"/>
      </g>
     </g>
    </g>
    <g id="xtick_5">
     <g id="line2d_5">
      <path clip-path="url(#p53cdbf8294)" d="M 342.803473 252 
L 342.803473 34.56 
" style="fill:none;stroke:#ffffff;stroke-linecap:round;"/>
     </g>
     <g id="text_5">
      <!-- 80 -->
      <defs>
       <path d="M 31.78125 34.625 
Q 24.75 34.625 20.71875 30.859375 
Q 16.703125 27.09375 16.703125 20.515625 
Q 16.703125 13.921875 20.71875 10.15625 
Q 24.75 6.390625 31.78125 6.390625 
Q 38.8125 6.390625 42.859375 10.171875 
Q 46.921875 13.96875 46.921875 20.515625 
Q 46.921875 27.09375 42.890625 30.859375 
Q 38.875 34.625 31.78125 34.625 
z
M 21.921875 38.8125 
Q 15.578125 40.375 12.03125 44.71875 
Q 8.5 49.078125 8.5 55.328125 
Q 8.5 64.0625 14.71875 69.140625 
Q 20.953125 74.21875 31.78125 74.21875 
Q 42.671875 74.21875 48.875 69.140625 
Q 55.078125 64.0625 55.078125 55.328125 
Q 55.078125 49.078125 51.53125 44.71875 
Q 48 40.375 41.703125 38.8125 
Q 48.828125 37.15625 52.796875 32.3125 
Q 56.78125 27.484375 56.78125 20.515625 
Q 56.78125 9.90625 50.3125 4.234375 
Q 43.84375 -1.421875 31.78125 -1.421875 
Q 19.734375 -1.421875 13.25 4.234375 
Q 6.78125 9.90625 6.78125 20.515625 
Q 6.78125 27.484375 10.78125 32.3125 
Q 14.796875 37.15625 21.921875 38.8125 
z
M 18.3125 54.390625 
Q 18.3125 48.734375 21.84375 45.5625 
Q 25.390625 42.390625 31.78125 42.390625 
Q 38.140625 42.390625 41.71875 45.5625 
Q 45.3125 48.734375 45.3125 54.390625 
Q 45.3125 60.0625 41.71875 63.234375 
Q 38.140625 66.40625 31.78125 66.40625 
Q 25.390625 66.40625 21.84375 63.234375 
Q 18.3125 60.0625 18.3125 54.390625 
z
" id="DejaVuSans-38"/>
      </defs>
      <g style="fill:#262626;" transform="translate(335.804723 269.858281)scale(0.11 -0.11)">
       <use xlink:href="#DejaVuSans-38"/>
       <use x="63.623047" xlink:href="#DejaVuSans-30"/>
      </g>
     </g>
    </g>
    <g id="text_6">
     <!-- Age -->
     <defs>
      <path d="M 34.1875 63.1875 
L 20.796875 26.90625 
L 47.609375 26.90625 
z
M 28.609375 72.90625 
L 39.796875 72.90625 
L 67.578125 0 
L 57.328125 0 
L 50.6875 18.703125 
L 17.828125 18.703125 
L 11.1875 0 
L 0.78125 0 
z
" id="DejaVuSans-41"/>
      <path d="M 45.40625 27.984375 
Q 45.40625 37.75 41.375 43.109375 
Q 37.359375 48.484375 30.078125 48.484375 
Q 22.859375 48.484375 18.828125 43.109375 
Q 14.796875 37.75 14.796875 27.984375 
Q 14.796875 18.265625 18.828125 12.890625 
Q 22.859375 7.515625 30.078125 7.515625 
Q 37.359375 7.515625 41.375 12.890625 
Q 45.40625 18.265625 45.40625 27.984375 
z
M 54.390625 6.78125 
Q 54.390625 -7.171875 48.1875 -13.984375 
Q 42 -20.796875 29.203125 -20.796875 
Q 24.46875 -20.796875 20.265625 -20.09375 
Q 16.0625 -19.390625 12.109375 -17.921875 
L 12.109375 -9.1875 
Q 16.0625 -11.328125 19.921875 -12.34375 
Q 23.78125 -13.375 27.78125 -13.375 
Q 36.625 -13.375 41.015625 -8.765625 
Q 45.40625 -4.15625 45.40625 5.171875 
L 45.40625 9.625 
Q 42.625 4.78125 38.28125 2.390625 
Q 33.9375 0 27.875 0 
Q 17.828125 0 11.671875 7.65625 
Q 5.515625 15.328125 5.515625 27.984375 
Q 5.515625 40.671875 11.671875 48.328125 
Q 17.828125 56 27.875 56 
Q 33.9375 56 38.28125 53.609375 
Q 42.625 51.21875 45.40625 46.390625 
L 45.40625 54.6875 
L 54.390625 54.6875 
z
" id="DejaVuSans-67"/>
      <path d="M 56.203125 29.59375 
L 56.203125 25.203125 
L 14.890625 25.203125 
Q 15.484375 15.921875 20.484375 11.0625 
Q 25.484375 6.203125 34.421875 6.203125 
Q 39.59375 6.203125 44.453125 7.46875 
Q 49.3125 8.734375 54.109375 11.28125 
L 54.109375 2.78125 
Q 49.265625 0.734375 44.1875 -0.34375 
Q 39.109375 -1.421875 33.890625 -1.421875 
Q 20.796875 -1.421875 13.15625 6.1875 
Q 5.515625 13.8125 5.515625 26.8125 
Q 5.515625 40.234375 12.765625 48.109375 
Q 20.015625 56 32.328125 56 
Q 43.359375 56 49.78125 48.890625 
Q 56.203125 41.796875 56.203125 29.59375 
z
M 47.21875 32.234375 
Q 47.125 39.59375 43.09375 43.984375 
Q 39.0625 48.390625 32.421875 48.390625 
Q 24.90625 48.390625 20.390625 44.140625 
Q 15.875 39.890625 15.1875 32.171875 
z
" id="DejaVuSans-65"/>
     </defs>
     <g style="fill:#262626;" transform="translate(209.794688 285.264063)scale(0.12 -0.12)">
      <use xlink:href="#DejaVuSans-41"/>
      <use x="68.408203" xlink:href="#DejaVuSans-67"/>
      <use x="131.884766" xlink:href="#DejaVuSans-65"/>
     </g>
    </g>
   </g>
   <g id="matplotlib.axis_2">
    <g id="ytick_1">
     <g id="line2d_6">
      <path clip-path="url(#p53cdbf8294)" d="M 54 242.116364 
L 388.8 242.116364 
" style="fill:none;stroke:#ffffff;stroke-linecap:round;"/>
     </g>
     <g id="text_7">
      <!-- 0 -->
      <g style="fill:#262626;" transform="translate(37.50125 246.295504)scale(0.11 -0.11)">
       <use xlink:href="#DejaVuSans-30"/>
      </g>
     </g>
    </g>
    <g id="ytick_2">
     <g id="line2d_7">
      <path clip-path="url(#p53cdbf8294)" d="M 54 196.119219 
L 388.8 196.119219 
" style="fill:none;stroke:#ffffff;stroke-linecap:round;"/>
     </g>
     <g id="text_8">
      <!-- 10000 -->
      <defs>
       <path d="M 12.40625 8.296875 
L 28.515625 8.296875 
L 28.515625 63.921875 
L 10.984375 60.40625 
L 10.984375 69.390625 
L 28.421875 72.90625 
L 38.28125 72.90625 
L 38.28125 8.296875 
L 54.390625 8.296875 
L 54.390625 0 
L 12.40625 0 
z
" id="DejaVuSans-31"/>
      </defs>
      <g style="fill:#262626;" transform="translate(9.50625 200.29836)scale(0.11 -0.11)">
       <use xlink:href="#DejaVuSans-31"/>
       <use x="63.623047" xlink:href="#DejaVuSans-30"/>
       <use x="127.246094" xlink:href="#DejaVuSans-30"/>
       <use x="190.869141" xlink:href="#DejaVuSans-30"/>
       <use x="254.492188" xlink:href="#DejaVuSans-30"/>
      </g>
     </g>
    </g>
    <g id="ytick_3">
     <g id="line2d_8">
      <path clip-path="url(#p53cdbf8294)" d="M 54 150.122075 
L 388.8 150.122075 
" style="fill:none;stroke:#ffffff;stroke-linecap:round;"/>
     </g>
     <g id="text_9">
      <!-- 20000 -->
      <g style="fill:#262626;" transform="translate(9.50625 154.301216)scale(0.11 -0.11)">
       <use xlink:href="#DejaVuSans-32"/>
       <use x="63.623047" xlink:href="#DejaVuSans-30"/>
       <use x="127.246094" xlink:href="#DejaVuSans-30"/>
       <use x="190.869141" xlink:href="#DejaVuSans-30"/>
       <use x="254.492188" xlink:href="#DejaVuSans-30"/>
      </g>
     </g>
    </g>
    <g id="ytick_4">
     <g id="line2d_9">
      <path clip-path="url(#p53cdbf8294)" d="M 54 104.124931 
L 388.8 104.124931 
" style="fill:none;stroke:#ffffff;stroke-linecap:round;"/>
     </g>
     <g id="text_10">
      <!-- 30000 -->
      <defs>
       <path d="M 40.578125 39.3125 
Q 47.65625 37.796875 51.625 33 
Q 55.609375 28.21875 55.609375 21.1875 
Q 55.609375 10.40625 48.1875 4.484375 
Q 40.765625 -1.421875 27.09375 -1.421875 
Q 22.515625 -1.421875 17.65625 -0.515625 
Q 12.796875 0.390625 7.625 2.203125 
L 7.625 11.71875 
Q 11.71875 9.328125 16.59375 8.109375 
Q 21.484375 6.890625 26.8125 6.890625 
Q 36.078125 6.890625 40.9375 10.546875 
Q 45.796875 14.203125 45.796875 21.1875 
Q 45.796875 27.640625 41.28125 31.265625 
Q 36.765625 34.90625 28.71875 34.90625 
L 20.21875 34.90625 
L 20.21875 43.015625 
L 29.109375 43.015625 
Q 36.375 43.015625 40.234375 45.921875 
Q 44.09375 48.828125 44.09375 54.296875 
Q 44.09375 59.90625 40.109375 62.90625 
Q 36.140625 65.921875 28.71875 65.921875 
Q 24.65625 65.921875 20.015625 65.03125 
Q 15.375 64.15625 9.8125 62.3125 
L 9.8125 71.09375 
Q 15.4375 72.65625 20.34375 73.4375 
Q 25.25 74.21875 29.59375 74.21875 
Q 40.828125 74.21875 47.359375 69.109375 
Q 53.90625 64.015625 53.90625 55.328125 
Q 53.90625 49.265625 50.4375 45.09375 
Q 46.96875 40.921875 40.578125 39.3125 
z
" id="DejaVuSans-33"/>
      </defs>
      <g style="fill:#262626;" transform="translate(9.50625 108.304072)scale(0.11 -0.11)">
       <use xlink:href="#DejaVuSans-33"/>
       <use x="63.623047" xlink:href="#DejaVuSans-30"/>
       <use x="127.246094" xlink:href="#DejaVuSans-30"/>
       <use x="190.869141" xlink:href="#DejaVuSans-30"/>
       <use x="254.492188" xlink:href="#DejaVuSans-30"/>
      </g>
     </g>
    </g>
    <g id="ytick_5">
     <g id="line2d_10">
      <path clip-path="url(#p53cdbf8294)" d="M 54 58.127787 
L 388.8 58.127787 
" style="fill:none;stroke:#ffffff;stroke-linecap:round;"/>
     </g>
     <g id="text_11">
      <!-- 40000 -->
      <g style="fill:#262626;" transform="translate(9.50625 62.306927)scale(0.11 -0.11)">
       <use xlink:href="#DejaVuSans-34"/>
       <use x="63.623047" xlink:href="#DejaVuSans-30"/>
       <use x="127.246094" xlink:href="#DejaVuSans-30"/>
       <use x="190.869141" xlink:href="#DejaVuSans-30"/>
       <use x="254.492188" xlink:href="#DejaVuSans-30"/>
      </g>
     </g>
    </g>
    <g id="text_12">
     <!-- Cumulative incidence -->
     <defs>
      <path d="M 64.40625 67.28125 
L 64.40625 56.890625 
Q 59.421875 61.53125 53.78125 63.8125 
Q 48.140625 66.109375 41.796875 66.109375 
Q 29.296875 66.109375 22.65625 58.46875 
Q 16.015625 50.828125 16.015625 36.375 
Q 16.015625 21.96875 22.65625 14.328125 
Q 29.296875 6.6875 41.796875 6.6875 
Q 48.140625 6.6875 53.78125 8.984375 
Q 59.421875 11.28125 64.40625 15.921875 
L 64.40625 5.609375 
Q 59.234375 2.09375 53.4375 0.328125 
Q 47.65625 -1.421875 41.21875 -1.421875 
Q 24.65625 -1.421875 15.125 8.703125 
Q 5.609375 18.84375 5.609375 36.375 
Q 5.609375 53.953125 15.125 64.078125 
Q 24.65625 74.21875 41.21875 74.21875 
Q 47.75 74.21875 53.53125 72.484375 
Q 59.328125 70.75 64.40625 67.28125 
z
" id="DejaVuSans-43"/>
      <path d="M 8.5 21.578125 
L 8.5 54.6875 
L 17.484375 54.6875 
L 17.484375 21.921875 
Q 17.484375 14.15625 20.5 10.265625 
Q 23.53125 6.390625 29.59375 6.390625 
Q 36.859375 6.390625 41.078125 11.03125 
Q 45.3125 15.671875 45.3125 23.6875 
L 45.3125 54.6875 
L 54.296875 54.6875 
L 54.296875 0 
L 45.3125 0 
L 45.3125 8.40625 
Q 42.046875 3.421875 37.71875 1 
Q 33.40625 -1.421875 27.6875 -1.421875 
Q 18.265625 -1.421875 13.375 4.4375 
Q 8.5 10.296875 8.5 21.578125 
z
M 31.109375 56 
z
" id="DejaVuSans-75"/>
      <path d="M 52 44.1875 
Q 55.375 50.25 60.0625 53.125 
Q 64.75 56 71.09375 56 
Q 79.640625 56 84.28125 50.015625 
Q 88.921875 44.046875 88.921875 33.015625 
L 88.921875 0 
L 79.890625 0 
L 79.890625 32.71875 
Q 79.890625 40.578125 77.09375 44.375 
Q 74.3125 48.1875 68.609375 48.1875 
Q 61.625 48.1875 57.5625 43.546875 
Q 53.515625 38.921875 53.515625 30.90625 
L 53.515625 0 
L 44.484375 0 
L 44.484375 32.71875 
Q 44.484375 40.625 41.703125 44.40625 
Q 38.921875 48.1875 33.109375 48.1875 
Q 26.21875 48.1875 22.15625 43.53125 
Q 18.109375 38.875 18.109375 30.90625 
L 18.109375 0 
L 9.078125 0 
L 9.078125 54.6875 
L 18.109375 54.6875 
L 18.109375 46.1875 
Q 21.1875 51.21875 25.484375 53.609375 
Q 29.78125 56 35.6875 56 
Q 41.65625 56 45.828125 52.96875 
Q 50 49.953125 52 44.1875 
z
" id="DejaVuSans-6d"/>
      <path d="M 9.421875 75.984375 
L 18.40625 75.984375 
L 18.40625 0 
L 9.421875 0 
z
" id="DejaVuSans-6c"/>
      <path d="M 34.28125 27.484375 
Q 23.390625 27.484375 19.1875 25 
Q 14.984375 22.515625 14.984375 16.5 
Q 14.984375 11.71875 18.140625 8.90625 
Q 21.296875 6.109375 26.703125 6.109375 
Q 34.1875 6.109375 38.703125 11.40625 
Q 43.21875 16.703125 43.21875 25.484375 
L 43.21875 27.484375 
z
M 52.203125 31.203125 
L 52.203125 0 
L 43.21875 0 
L 43.21875 8.296875 
Q 40.140625 3.328125 35.546875 0.953125 
Q 30.953125 -1.421875 24.3125 -1.421875 
Q 15.921875 -1.421875 10.953125 3.296875 
Q 6 8.015625 6 15.921875 
Q 6 25.140625 12.171875 29.828125 
Q 18.359375 34.515625 30.609375 34.515625 
L 43.21875 34.515625 
L 43.21875 35.40625 
Q 43.21875 41.609375 39.140625 45 
Q 35.0625 48.390625 27.6875 48.390625 
Q 23 48.390625 18.546875 47.265625 
Q 14.109375 46.140625 10.015625 43.890625 
L 10.015625 52.203125 
Q 14.9375 54.109375 19.578125 55.046875 
Q 24.21875 56 28.609375 56 
Q 40.484375 56 46.34375 49.84375 
Q 52.203125 43.703125 52.203125 31.203125 
z
" id="DejaVuSans-61"/>
      <path d="M 18.3125 70.21875 
L 18.3125 54.6875 
L 36.8125 54.6875 
L 36.8125 47.703125 
L 18.3125 47.703125 
L 18.3125 18.015625 
Q 18.3125 11.328125 20.140625 9.421875 
Q 21.96875 7.515625 27.59375 7.515625 
L 36.8125 7.515625 
L 36.8125 0 
L 27.59375 0 
Q 17.1875 0 13.234375 3.875 
Q 9.28125 7.765625 9.28125 18.015625 
L 9.28125 47.703125 
L 2.6875 47.703125 
L 2.6875 54.6875 
L 9.28125 54.6875 
L 9.28125 70.21875 
z
" id="DejaVuSans-74"/>
      <path d="M 9.421875 54.6875 
L 18.40625 54.6875 
L 18.40625 0 
L 9.421875 0 
z
M 9.421875 75.984375 
L 18.40625 75.984375 
L 18.40625 64.59375 
L 9.421875 64.59375 
z
" id="DejaVuSans-69"/>
      <path d="M 2.984375 54.6875 
L 12.5 54.6875 
L 29.59375 8.796875 
L 46.6875 54.6875 
L 56.203125 54.6875 
L 35.6875 0 
L 23.484375 0 
z
" id="DejaVuSans-76"/>
      <path id="DejaVuSans-20"/>
      <path d="M 54.890625 33.015625 
L 54.890625 0 
L 45.90625 0 
L 45.90625 32.71875 
Q 45.90625 40.484375 42.875 44.328125 
Q 39.84375 48.1875 33.796875 48.1875 
Q 26.515625 48.1875 22.3125 43.546875 
Q 18.109375 38.921875 18.109375 30.90625 
L 18.109375 0 
L 9.078125 0 
L 9.078125 54.6875 
L 18.109375 54.6875 
L 18.109375 46.1875 
Q 21.34375 51.125 25.703125 53.5625 
Q 30.078125 56 35.796875 56 
Q 45.21875 56 50.046875 50.171875 
Q 54.890625 44.34375 54.890625 33.015625 
z
" id="DejaVuSans-6e"/>
      <path d="M 48.78125 52.59375 
L 48.78125 44.1875 
Q 44.96875 46.296875 41.140625 47.34375 
Q 37.3125 48.390625 33.40625 48.390625 
Q 24.65625 48.390625 19.8125 42.84375 
Q 14.984375 37.3125 14.984375 27.296875 
Q 14.984375 17.28125 19.8125 11.734375 
Q 24.65625 6.203125 33.40625 6.203125 
Q 37.3125 6.203125 41.140625 7.25 
Q 44.96875 8.296875 48.78125 10.40625 
L 48.78125 2.09375 
Q 45.015625 0.34375 40.984375 -0.53125 
Q 36.96875 -1.421875 32.421875 -1.421875 
Q 20.0625 -1.421875 12.78125 6.34375 
Q 5.515625 14.109375 5.515625 27.296875 
Q 5.515625 40.671875 12.859375 48.328125 
Q 20.21875 56 33.015625 56 
Q 37.15625 56 41.109375 55.140625 
Q 45.0625 54.296875 48.78125 52.59375 
z
" id="DejaVuSans-63"/>
      <path d="M 45.40625 46.390625 
L 45.40625 75.984375 
L 54.390625 75.984375 
L 54.390625 0 
L 45.40625 0 
L 45.40625 8.203125 
Q 42.578125 3.328125 38.25 0.953125 
Q 33.9375 -1.421875 27.875 -1.421875 
Q 17.96875 -1.421875 11.734375 6.484375 
Q 5.515625 14.40625 5.515625 27.296875 
Q 5.515625 40.1875 11.734375 48.09375 
Q 17.96875 56 27.875 56 
Q 33.9375 56 38.25 53.625 
Q 42.578125 51.265625 45.40625 46.390625 
z
M 14.796875 27.296875 
Q 14.796875 17.390625 18.875 11.75 
Q 22.953125 6.109375 30.078125 6.109375 
Q 37.203125 6.109375 41.296875 11.75 
Q 45.40625 17.390625 45.40625 27.296875 
Q 45.40625 37.203125 41.296875 42.84375 
Q 37.203125 48.484375 30.078125 48.484375 
Q 22.953125 48.484375 18.875 42.84375 
Q 14.796875 37.203125 14.796875 27.296875 
z
" id="DejaVuSans-64"/>
     </defs>
     <g style="fill:#262626;" transform="translate(3.010625 208.161563)rotate(-90)scale(0.12 -0.12)">
      <use xlink:href="#DejaVuSans-43"/>
      <use x="69.824219" xlink:href="#DejaVuSans-75"/>
      <use x="133.203125" xlink:href="#DejaVuSans-6d"/>
      <use x="230.615234" xlink:href="#DejaVuSans-75"/>
      <use x="293.994141" xlink:href="#DejaVuSans-6c"/>
      <use x="321.777344" xlink:href="#DejaVuSans-61"/>
      <use x="383.056641" xlink:href="#DejaVuSans-74"/>
      <use x="422.265625" xlink:href="#DejaVuSans-69"/>
      <use x="450.048828" xlink:href="#DejaVuSans-76"/>
      <use x="509.228516" xlink:href="#DejaVuSans-65"/>
      <use x="570.751953" xlink:href="#DejaVuSans-20"/>
      <use x="602.539062" xlink:href="#DejaVuSans-69"/>
      <use x="630.322266" xlink:href="#DejaVuSans-6e"/>
      <use x="693.701172" xlink:href="#DejaVuSans-63"/>
      <use x="748.681641" xlink:href="#DejaVuSans-69"/>
      <use x="776.464844" xlink:href="#DejaVuSans-64"/>
      <use x="839.941406" xlink:href="#DejaVuSans-65"/>
      <use x="901.464844" xlink:href="#DejaVuSans-6e"/>
      <use x="964.84375" xlink:href="#DejaVuSans-63"/>
      <use x="1019.824219" xlink:href="#DejaVuSans-65"/>
     </g>
    </g>
   </g>
   <g id="line2d_11">
    <path clip-path="url(#p53cdbf8294)" d="M 69.218182 242.116364 
L 72.637998 242.116364 
L 76.057814 242.116364 
L 79.47763 242.116364 
L 82.897446 242.116364 
L 86.317263 242.116364 
L 89.737079 242.116364 
L 93.156895 242.116364 
L 96.576711 242.116364 
L 99.996527 242.116364 
L 103.416343 242.116364 
L 106.836159 242.116364 
L 110.255975 242.116364 
L 113.675792 242.116364 
L 117.095608 242.116364 
L 120.515424 242.116364 
L 123.93524 242.116364 
L 127.355056 242.116364 
L 130.774872 242.116364 
L 134.194688 242.116364 
L 137.614505 242.116364 
L 141.034321 242.116364 
L 144.454137 242.116364 
L 147.873953 242.116364 
L 151.293769 242.116364 
L 154.713585 242.116364 
L 158.133401 242.116364 
L 161.553218 242.116364 
L 164.973034 242.111764 
L 168.39285 242.111764 
L 171.812666 242.111764 
L 175.232482 242.111764 
L 178.652298 242.111764 
L 182.072114 242.111764 
L 185.491931 242.111764 
L 188.911747 242.111764 
L 192.331563 242.107164 
L 195.751379 242.107164 
L 199.171195 242.107164 
L 202.591011 242.107164 
L 206.010827 242.107164 
L 209.430644 242.107164 
L 212.85046 242.102564 
L 216.270276 242.102564 
L 219.690092 242.102564 
L 223.109908 242.102564 
L 226.529724 242.097965 
L 229.94954 242.097965 
L 233.369356 242.093365 
L 236.789173 242.084166 
L 240.208989 242.084166 
L 243.628805 242.074966 
L 247.048621 242.074966 
L 250.468437 242.051968 
L 253.888253 242.033569 
L 257.308069 242.01977 
L 260.727886 242.01517 
L 264.147702 242.001371 
L 267.567518 241.992171 
L 270.987334 241.959973 
L 274.40715 241.932375 
L 277.826966 241.881778 
L 281.246782 241.821982 
L 284.666599 241.766785 
L 288.086415 241.69779 
L 291.506231 241.674791 
L 294.926047 241.601196 
L 298.345863 241.472404 
L 301.765679 241.36661 
L 305.185495 241.265416 
L 308.605312 241.104426 
L 312.025128 240.975634 
L 315.444944 240.782446 
L 318.86476 240.538662 
L 322.284576 240.294877 
L 325.704392 240.041892 
L 329.124208 239.76591 
L 332.544025 239.522125 
L 335.963841 239.259941 
L 339.383657 238.901163 
L 342.803473 238.560784 
L 346.223289 238.202007 
L 349.643105 237.778833 
L 353.062921 237.34646 
L 356.482737 236.923286 
L 359.902554 236.403518 
L 363.32237 235.961946 
L 366.742186 235.419179 
L 370.162002 234.913211 
L 373.581818 234.356645 
" style="fill:none;stroke:#4c72b0;stroke-linecap:round;stroke-width:1.5;"/>
   </g>
   <g id="line2d_12">
    <path clip-path="url(#p53cdbf8294)" d="M 69.218182 242.116364 
L 72.637998 242.116364 
L 76.057814 242.116364 
L 79.47763 242.116364 
L 82.897446 242.116364 
L 86.317263 242.116364 
L 89.737079 242.116364 
L 93.156895 242.116364 
L 96.576711 242.116364 
L 99.996527 242.116364 
L 103.416343 242.116364 
L 106.836159 242.116364 
L 110.255975 242.116364 
L 113.675792 242.116364 
L 117.095608 242.116364 
L 120.515424 242.116364 
L 123.93524 242.116364 
L 127.355056 242.116364 
L 130.774872 242.116364 
L 134.194688 242.116364 
L 137.614505 242.116364 
L 141.034321 242.116364 
L 144.454137 242.111764 
L 147.873953 242.107164 
L 151.293769 242.107164 
L 154.713585 242.107164 
L 158.133401 242.107164 
L 161.553218 242.107164 
L 164.973034 242.102564 
L 168.39285 242.097965 
L 171.812666 242.097965 
L 175.232482 242.097965 
L 178.652298 242.093365 
L 182.072114 242.093365 
L 185.491931 242.093365 
L 188.911747 242.093365 
L 192.331563 242.093365 
L 195.751379 242.093365 
L 199.171195 242.093365 
L 202.591011 242.093365 
L 206.010827 242.074966 
L 209.430644 242.051968 
L 212.85046 242.042768 
L 216.270276 242.024369 
L 219.690092 242.001371 
L 223.109908 241.987572 
L 226.529724 241.987572 
L 229.94954 241.941574 
L 233.369356 241.909376 
L 236.789173 241.85878 
L 240.208989 241.785184 
L 243.628805 241.679391 
L 247.048621 241.559798 
L 250.468437 241.408008 
L 253.888253 241.237818 
L 257.308069 240.966435 
L 260.727886 240.713451 
L 264.147702 240.386871 
L 267.567518 239.982096 
L 270.987334 239.471528 
L 274.40715 238.882764 
L 277.826966 238.15141 
L 281.246782 237.351059 
L 284.666599 236.518511 
L 288.086415 235.451377 
L 291.506231 234.388843 
L 294.926047 233.137721 
L 298.345863 231.688811 
L 301.765679 229.973118 
L 305.185495 228.32642 
L 308.605312 226.527931 
L 312.025128 224.527056 
L 315.444944 222.475583 
L 318.86476 220.327516 
L 322.284576 218.046058 
L 325.704392 215.723202 
L 329.124208 213.193359 
L 332.544025 210.686515 
L 335.963841 207.876089 
L 339.383657 205.139259 
L 342.803473 202.328834 
L 346.223289 199.48621 
L 349.643105 196.404402 
L 353.062921 193.478983 
L 356.482737 190.438572 
L 359.902554 187.453357 
L 363.32237 184.376149 
L 366.742186 181.340337 
L 370.162002 178.534511 
L 373.581818 175.471101 
" style="fill:none;stroke:#dd8452;stroke-linecap:round;stroke-width:1.5;"/>
   </g>
   <g id="line2d_13">
    <path clip-path="url(#p53cdbf8294)" d="M 69.218182 242.116364 
L 72.637998 242.116364 
L 76.057814 242.116364 
L 79.47763 242.116364 
L 82.897446 242.116364 
L 86.317263 242.116364 
L 89.737079 242.116364 
L 93.156895 242.116364 
L 96.576711 242.116364 
L 99.996527 242.116364 
L 103.416343 242.116364 
L 106.836159 242.116364 
L 110.255975 242.116364 
L 113.675792 242.116364 
L 117.095608 242.116364 
L 120.515424 242.111764 
L 123.93524 242.102564 
L 127.355056 242.093365 
L 130.774872 242.093365 
L 134.194688 242.088765 
L 137.614505 242.074966 
L 141.034321 242.070366 
L 144.454137 242.070366 
L 147.873953 242.061167 
L 151.293769 242.051968 
L 154.713585 242.047368 
L 158.133401 242.047368 
L 161.553218 242.042768 
L 164.973034 242.033569 
L 168.39285 242.033569 
L 171.812666 242.033569 
L 175.232482 242.028969 
L 178.652298 242.01977 
L 182.072114 242.01057 
L 185.491931 242.00597 
L 188.911747 241.982972 
L 192.331563 241.955374 
L 195.751379 241.936975 
L 199.171195 241.895577 
L 202.591011 241.85418 
L 206.010827 241.794384 
L 209.430644 241.725388 
L 212.85046 241.647193 
L 216.270276 241.518401 
L 219.690092 241.357411 
L 223.109908 241.21482 
L 226.529724 241.017032 
L 229.94954 240.672053 
L 233.369356 240.207482 
L 236.789173 239.673915 
L 240.208989 238.988558 
L 243.628805 238.220406 
L 247.048621 237.052078 
L 250.468437 235.685963 
L 253.888253 234.186456 
L 257.308069 232.18098 
L 260.727886 229.92712 
L 264.147702 227.319082 
L 267.567518 224.099282 
L 270.987334 220.773689 
L 274.40715 217.011122 
L 277.826966 212.990972 
L 281.246782 208.704038 
L 284.666599 204.274513 
L 288.086415 199.624202 
L 291.506231 194.964691 
L 294.926047 190.30978 
L 298.345863 185.31909 
L 301.765679 180.825169 
L 305.185495 176.363446 
L 308.605312 171.529146 
L 312.025128 167.417001 
L 315.444944 162.92308 
L 318.86476 158.939728 
L 322.284576 155.03457 
L 325.704392 151.3272 
L 329.124208 147.840617 
L 332.544025 144.326435 
L 335.963841 140.881249 
L 339.383657 137.716645 
L 342.803473 134.644036 
L 346.223289 131.810612 
L 349.643105 128.94959 
L 353.062921 126.143764 
L 356.482737 123.572524 
L 359.902554 121.226669 
L 363.32237 118.756623 
L 366.742186 116.272777 
L 370.162002 113.982119 
L 373.581818 111.792655 
" style="fill:none;stroke:#55a868;stroke-linecap:round;stroke-width:1.5;"/>
   </g>
   <g id="line2d_14">
    <path clip-path="url(#p53cdbf8294)" d="M 69.218182 242.116364 
L 72.637998 242.116364 
L 76.057814 242.116364 
L 79.47763 242.116364 
L 82.897446 242.116364 
L 86.317263 242.116364 
L 89.737079 242.116364 
L 93.156895 242.116364 
L 96.576711 242.116364 
L 99.996527 242.116364 
L 103.416343 242.116364 
L 106.836159 242.116364 
L 110.255975 242.116364 
L 113.675792 242.116364 
L 117.095608 242.107164 
L 120.515424 242.097965 
L 123.93524 242.079566 
L 127.355056 242.056567 
L 130.774872 242.051968 
L 134.194688 242.042768 
L 137.614505 242.038168 
L 141.034321 242.038168 
L 144.454137 242.038168 
L 147.873953 242.033569 
L 151.293769 242.028969 
L 154.713585 242.028969 
L 158.133401 242.028969 
L 161.553218 242.028969 
L 164.973034 242.024369 
L 168.39285 242.024369 
L 171.812666 242.01057 
L 175.232482 242.00597 
L 178.652298 241.982972 
L 182.072114 241.955374 
L 185.491931 241.923176 
L 188.911747 241.867979 
L 192.331563 241.798983 
L 195.751379 241.69319 
L 199.171195 241.518401 
L 202.591011 241.251617 
L 206.010827 241.026231 
L 209.430644 240.741049 
L 212.85046 240.322475 
L 216.270276 239.784308 
L 219.690092 239.089752 
L 223.109908 238.183608 
L 226.529724 237.093475 
L 229.94954 235.690563 
L 233.369356 233.859876 
L 236.789173 231.449626 
L 240.208989 228.698997 
L 243.628805 225.469997 
L 247.048621 221.693632 
L 250.468437 217.222709 
L 253.888253 212.526401 
L 257.308069 207.153934 
L 260.727886 201.758469 
L 264.147702 196.413601 
L 267.567518 190.709955 
L 270.987334 185.148901 
L 274.40715 179.638443 
L 277.826966 174.500562 
L 281.246782 169.307484 
L 284.666599 164.233999 
L 288.086415 159.680282 
L 291.506231 155.466943 
L 294.926047 151.184609 
L 298.345863 147.376046 
L 301.765679 143.507686 
L 305.185495 139.869312 
L 308.605312 136.525319 
L 312.025128 133.402113 
L 315.444944 130.301906 
L 318.86476 127.284493 
L 322.284576 124.455669 
L 325.704392 121.760236 
L 329.124208 119.133799 
L 332.544025 116.751147 
L 335.963841 114.2949 
L 339.383657 111.829453 
L 342.803473 109.593991 
L 346.223289 107.542519 
L 349.643105 105.399052 
L 353.062921 103.388977 
L 356.482737 101.544491 
L 359.902554 99.63561 
L 363.32237 97.69913 
L 366.742186 95.91904 
L 370.162002 94.290742 
L 373.581818 92.657843 
" style="fill:none;stroke:#c44e52;stroke-linecap:round;stroke-width:1.5;"/>
   </g>
   <g id="line2d_15">
    <path clip-path="url(#p53cdbf8294)" d="M 69.218182 242.116364 
L 72.637998 242.116364 
L 76.057814 242.116364 
L 79.47763 242.116364 
L 82.897446 242.116364 
L 86.317263 242.116364 
L 89.737079 242.116364 
L 93.156895 242.116364 
L 96.576711 242.116364 
L 99.996527 242.116364 
L 103.416343 242.116364 
L 106.836159 242.116364 
L 110.255975 242.116364 
L 113.675792 242.107164 
L 117.095608 242.107164 
L 120.515424 242.102564 
L 123.93524 242.074966 
L 127.355056 242.051968 
L 130.774872 242.038168 
L 134.194688 242.033569 
L 137.614505 242.033569 
L 141.034321 242.028969 
L 144.454137 242.028969 
L 147.873953 242.01977 
L 151.293769 242.01977 
L 154.713585 242.01517 
L 158.133401 242.001371 
L 161.553218 241.992171 
L 164.973034 241.978372 
L 168.39285 241.955374 
L 171.812666 241.909376 
L 175.232482 241.863379 
L 178.652298 241.798983 
L 182.072114 241.674791 
L 185.491931 241.550599 
L 188.911747 241.306814 
L 192.331563 241.021632 
L 195.751379 240.695052 
L 199.171195 240.225881 
L 202.591011 239.637118 
L 206.010827 238.809169 
L 209.430644 237.709837 
L 212.85046 236.458715 
L 216.270276 234.724623 
L 219.690092 232.797342 
L 223.109908 230.2583 
L 226.529724 227.130494 
L 229.94954 223.630111 
L 233.369356 219.370776 
L 236.789173 214.715865 
L 240.208989 209.141011 
L 243.628805 203.409767 
L 247.048621 197.255349 
L 250.468437 191.381514 
L 253.888253 185.383486 
L 257.308069 179.606245 
L 260.727886 173.704811 
L 264.147702 168.203553 
L 267.567518 163.162266 
L 270.987334 158.654545 
L 274.40715 154.091629 
L 277.826966 149.804695 
L 281.246782 145.894938 
L 284.666599 142.003579 
L 288.086415 138.314608 
L 291.506231 134.74063 
L 294.926047 131.350641 
L 298.345863 128.406823 
L 301.765679 125.315815 
L 305.185495 122.404196 
L 308.605312 119.478778 
L 312.025128 116.847741 
L 315.444944 114.543284 
L 318.86476 112.160632 
L 322.284576 109.856175 
L 325.704392 107.51952 
L 329.124208 105.224263 
L 332.544025 103.048598 
L 335.963841 101.024723 
L 339.383657 98.927254 
L 342.803473 96.999973 
L 346.223289 95.219884 
L 349.643105 93.384598 
L 353.062921 91.613708 
L 356.482737 89.948611 
L 359.902554 88.393908 
L 363.32237 86.816206 
L 366.742186 85.2983 
L 370.162002 83.895387 
L 373.581818 82.474075 
" style="fill:none;stroke:#8172b3;stroke-linecap:round;stroke-width:1.5;"/>
   </g>
   <g id="line2d_16">
    <path clip-path="url(#p53cdbf8294)" d="M 69.218182 242.116364 
L 72.637998 242.116364 
L 76.057814 242.116364 
L 79.47763 242.116364 
L 82.897446 242.116364 
L 86.317263 242.116364 
L 89.737079 242.116364 
L 93.156895 242.116364 
L 96.576711 242.116364 
L 99.996527 242.116364 
L 103.416343 242.116364 
L 106.836159 242.111764 
L 110.255975 242.111764 
L 113.675792 242.107164 
L 117.095608 242.097965 
L 120.515424 242.093365 
L 123.93524 242.051968 
L 127.355056 242.01517 
L 130.774872 242.00597 
L 134.194688 242.00597 
L 137.614505 242.001371 
L 141.034321 241.996771 
L 144.454137 241.996771 
L 147.873953 241.992171 
L 151.293769 241.978372 
L 154.713585 241.959973 
L 158.133401 241.936975 
L 161.553218 241.867979 
L 164.973034 241.826582 
L 168.39285 241.734587 
L 171.812666 241.614995 
L 175.232482 241.454005 
L 178.652298 241.191821 
L 182.072114 240.902039 
L 185.491931 240.423669 
L 188.911747 239.807307 
L 192.331563 239.126549 
L 195.751379 238.160609 
L 199.171195 236.946285 
L 202.591011 235.391581 
L 206.010827 233.404505 
L 209.430644 230.768868 
L 212.85046 227.489272 
L 216.270276 223.597913 
L 219.690092 219.448971 
L 223.109908 214.430683 
L 226.529724 209.251404 
L 229.94954 203.372969 
L 233.369356 197.278347 
L 236.789173 191.243522 
L 240.208989 184.99711 
L 243.628805 178.55291 
L 247.048621 172.895261 
L 250.468437 167.228413 
L 253.888253 162.076733 
L 257.308069 157.486218 
L 260.727886 152.918702 
L 264.147702 148.576571 
L 267.567518 144.24824 
L 270.987334 140.21429 
L 274.40715 136.465523 
L 277.826966 132.827149 
L 281.246782 129.43256 
L 284.666599 125.872381 
L 288.086415 122.767574 
L 291.506231 119.708763 
L 294.926047 116.916737 
L 298.345863 114.060314 
L 301.765679 111.39248 
L 305.185495 108.894835 
L 308.605312 106.682372 
L 312.025128 104.249123 
L 315.444944 101.999863 
L 318.86476 99.644809 
L 322.284576 97.496743 
L 325.704392 95.491267 
L 329.124208 93.435195 
L 332.544025 91.530913 
L 335.963841 89.612832 
L 339.383657 87.818943 
L 342.803473 86.002056 
L 346.223289 84.392156 
L 349.643105 82.786856 
L 353.062921 81.121759 
L 356.482737 79.677449 
L 359.902554 78.269936 
L 363.32237 76.963617 
L 366.742186 75.500908 
L 370.162002 74.097995 
L 373.581818 72.943467 
" style="fill:none;stroke:#937860;stroke-linecap:round;stroke-width:1.5;"/>
   </g>
   <g id="line2d_17">
    <path clip-path="url(#p53cdbf8294)" d="M 69.218182 242.116364 
L 72.637998 242.116364 
L 76.057814 242.116364 
L 79.47763 242.116364 
L 82.897446 242.116364 
L 86.317263 242.116364 
L 89.737079 242.116364 
L 93.156895 242.116364 
L 96.576711 242.116364 
L 99.996527 242.116364 
L 103.416343 242.116364 
L 106.836159 242.116364 
L 110.255975 242.116364 
L 113.675792 242.116364 
L 117.095608 242.111764 
L 120.515424 242.079566 
L 123.93524 242.047368 
L 127.355056 242.047368 
L 130.774872 242.042768 
L 134.194688 242.042768 
L 137.614505 242.038168 
L 141.034321 242.024369 
L 144.454137 242.01517 
L 147.873953 241.969173 
L 151.293769 241.936975 
L 154.713585 241.900177 
L 158.133401 241.808183 
L 161.553218 241.68399 
L 164.973034 241.481603 
L 168.39285 241.260817 
L 171.812666 240.87904 
L 175.232482 240.373072 
L 178.652298 239.660116 
L 182.072114 238.836767 
L 185.491931 237.622443 
L 188.911747 235.975745 
L 192.331563 233.915073 
L 195.751379 231.330033 
L 199.171195 228.349418 
L 202.591011 224.720244 
L 206.010827 220.552902 
L 209.430644 215.635808 
L 212.85046 210.111551 
L 216.270276 204.343509 
L 219.690092 198.345481 
L 223.109908 192.172664 
L 226.529724 185.861856 
L 229.94954 179.316463 
L 233.369356 173.313835 
L 236.789173 167.669986 
L 240.208989 162.108931 
L 243.628805 157.145839 
L 247.048621 152.513927 
L 250.468437 148.208594 
L 253.888253 143.91706 
L 257.308069 139.873911 
L 260.727886 136.056149 
L 264.147702 132.385576 
L 267.567518 128.7886 
L 270.987334 125.375612 
L 274.40715 122.229407 
L 277.826966 119.234993 
L 281.246782 116.291176 
L 284.666599 113.384156 
L 288.086415 110.734721 
L 291.506231 108.315271 
L 294.926047 105.790028 
L 298.345863 103.407376 
L 301.765679 101.217911 
L 305.185495 98.770863 
L 308.605312 96.700992 
L 312.025128 94.732314 
L 315.444944 92.648644 
L 318.86476 90.859355 
L 322.284576 88.922875 
L 325.704392 87.165784 
L 329.124208 85.413293 
L 332.544025 83.821792 
L 335.963841 82.336084 
L 339.383657 80.739983 
L 342.803473 79.346269 
L 346.223289 77.934157 
L 349.643105 76.572642 
L 353.062921 75.211126 
L 356.482737 73.950804 
L 359.902554 72.685883 
L 363.32237 71.342766 
L 366.742186 70.252634 
L 370.162002 69.052109 
L 373.581818 68.017173 
" style="fill:none;stroke:#da8bc3;stroke-linecap:round;stroke-width:1.5;"/>
   </g>
   <g id="line2d_18">
    <path clip-path="url(#p53cdbf8294)" d="M 69.218182 242.116364 
L 72.637998 242.116364 
L 76.057814 242.116364 
L 79.47763 242.116364 
L 82.897446 242.116364 
L 86.317263 242.116364 
L 89.737079 242.116364 
L 93.156895 242.116364 
L 96.576711 242.116364 
L 99.996527 242.116364 
L 103.416343 242.116364 
L 106.836159 242.116364 
L 110.255975 242.111764 
L 113.675792 242.111764 
L 117.095608 242.102564 
L 120.515424 242.088765 
L 123.93524 242.065767 
L 127.355056 242.042768 
L 130.774872 242.033569 
L 134.194688 242.024369 
L 137.614505 242.00597 
L 141.034321 241.987572 
L 144.454137 241.950774 
L 147.873953 241.913976 
L 151.293769 241.803583 
L 154.713585 241.624194 
L 158.133401 241.440206 
L 161.553218 241.076828 
L 164.973034 240.465066 
L 168.39285 239.715313 
L 171.812666 238.560784 
L 175.232482 237.305062 
L 178.652298 235.713561 
L 182.072114 233.459701 
L 185.491931 230.538882 
L 188.911747 227.006302 
L 192.331563 222.760765 
L 195.751379 218.110454 
L 199.171195 212.742587 
L 202.591011 206.661765 
L 206.010827 200.272762 
L 209.430644 193.759566 
L 212.85046 187.503954 
L 216.270276 181.110351 
L 219.690092 174.840941 
L 223.109908 168.746319 
L 226.529724 163.212862 
L 229.94954 157.444821 
L 233.369356 152.444931 
L 236.789173 147.46344 
L 240.208989 142.900524 
L 243.628805 138.388204 
L 247.048621 134.25766 
L 250.468437 130.3893 
L 253.888253 126.709529 
L 257.308069 123.296541 
L 260.727886 120.104339 
L 264.147702 116.916737 
L 267.567518 114.055714 
L 270.987334 111.042901 
L 274.40715 108.149681 
L 277.826966 105.619838 
L 281.246782 103.034799 
L 284.666599 100.472758 
L 288.086415 98.131503 
L 291.506231 95.827046 
L 294.926047 93.747975 
L 298.345863 91.627507 
L 301.765679 89.516238 
L 305.185495 87.671752 
L 308.605312 85.831867 
L 312.025128 84.033378 
L 315.444944 82.349883 
L 318.86476 80.744583 
L 322.284576 79.038089 
L 325.704392 77.40519 
L 329.124208 76.043674 
L 332.544025 74.557967 
L 335.963841 73.132055 
L 339.383657 71.793538 
L 342.803473 70.611412 
L 346.223289 69.272895 
L 349.643105 68.003374 
L 353.062921 66.807448 
L 356.482737 65.675918 
L 359.902554 64.535189 
L 363.32237 63.468055 
L 366.742186 62.469917 
L 370.162002 61.421182 
L 373.581818 60.49664 
" style="fill:none;stroke:#8c8c8c;stroke-linecap:round;stroke-width:1.5;"/>
   </g>
   <g id="line2d_19">
    <path clip-path="url(#p53cdbf8294)" d="M 69.218182 242.116364 
L 72.637998 242.116364 
L 76.057814 242.116364 
L 79.47763 242.116364 
L 82.897446 242.116364 
L 86.317263 242.116364 
L 89.737079 242.116364 
L 93.156895 242.116364 
L 96.576711 242.116364 
L 99.996527 242.116364 
L 103.416343 242.116364 
L 106.836159 242.116364 
L 110.255975 242.116364 
L 113.675792 242.116364 
L 117.095608 242.107164 
L 120.515424 242.093365 
L 123.93524 242.056567 
L 127.355056 242.028969 
L 130.774872 241.982972 
L 134.194688 241.969173 
L 137.614505 241.918576 
L 141.034321 241.872579 
L 144.454137 241.766785 
L 147.873953 241.550599 
L 151.293769 241.228619 
L 154.713585 240.713451 
L 158.133401 239.903901 
L 161.553218 238.94716 
L 164.973034 237.33726 
L 168.39285 235.40998 
L 171.812666 232.949133 
L 175.232482 229.669536 
L 178.652298 225.561991 
L 182.072114 221.06807 
L 185.491931 215.907191 
L 188.911747 210.051754 
L 192.331563 203.83754 
L 195.751379 197.370342 
L 199.171195 190.562764 
L 202.591011 184.316352 
L 206.010827 177.872152 
L 209.430644 171.483149 
L 212.85046 165.402327 
L 216.270276 160.002262 
L 219.690092 154.675792 
L 223.109908 149.625306 
L 226.529724 144.611617 
L 229.94954 139.988904 
L 233.369356 135.858361 
L 236.789173 131.801413 
L 240.208989 127.785862 
L 243.628805 124.147488 
L 247.048621 120.40792 
L 250.468437 117.082327 
L 253.888253 113.922323 
L 257.308069 110.872712 
L 260.727886 107.864499 
L 264.147702 104.897683 
L 267.567518 102.110256 
L 270.987334 99.534416 
L 274.40715 96.990774 
L 277.826966 94.736914 
L 281.246782 92.38186 
L 284.666599 90.270591 
L 288.086415 87.961535 
L 291.506231 85.877864 
L 294.926047 84.139172 
L 298.345863 82.455676 
L 301.765679 80.578993 
L 305.185495 78.973693 
L 308.605312 77.40979 
L 312.025128 75.698696 
L 315.444944 74.323381 
L 318.86476 72.828474 
L 322.284576 71.522155 
L 325.704392 70.266433 
L 329.124208 68.969314 
L 332.544025 67.768788 
L 335.963841 66.632659 
L 339.383657 65.48273 
L 342.803473 64.383398 
L 346.223289 63.279467 
L 349.643105 62.249131 
L 353.062921 61.195796 
L 356.482737 60.229856 
L 359.902554 59.20872 
L 363.32237 58.330174 
L 366.742186 57.414831 
L 370.162002 56.47189 
L 373.581818 55.450753 
" style="fill:none;stroke:#ccb974;stroke-linecap:round;stroke-width:1.5;"/>
   </g>
   <g id="line2d_20">
    <path clip-path="url(#p53cdbf8294)" d="M 69.218182 242.116364 
L 72.637998 242.116364 
L 76.057814 242.116364 
L 79.47763 242.116364 
L 82.897446 242.116364 
L 86.317263 242.116364 
L 89.737079 242.116364 
L 93.156895 242.116364 
L 96.576711 242.116364 
L 99.996527 242.116364 
L 103.416343 242.111764 
L 106.836159 242.111764 
L 110.255975 242.107164 
L 113.675792 242.102564 
L 117.095608 242.093365 
L 120.515424 242.084166 
L 123.93524 242.074966 
L 127.355056 242.033569 
L 130.774872 241.987572 
L 134.194688 241.927775 
L 137.614505 241.803583 
L 141.034321 241.573597 
L 144.454137 241.196421 
L 147.873953 240.501864 
L 151.293769 239.540524 
L 154.713585 238.054816 
L 158.133401 236.141335 
L 161.553218 233.390705 
L 164.973034 229.885723 
L 168.39285 225.566591 
L 171.812666 220.621898 
L 175.232482 214.79406 
L 178.652298 208.165871 
L 182.072114 201.174306 
L 185.491931 194.449523 
L 188.911747 187.043983 
L 192.331563 180.130612 
L 195.751379 173.484025 
L 199.171195 167.476798 
L 202.591011 160.917605 
L 206.010827 154.891979 
L 209.430644 149.542511 
L 212.85046 144.08725 
L 216.270276 139.032164 
L 219.690092 134.437049 
L 223.109908 129.947728 
L 226.529724 125.665394 
L 229.94954 121.663642 
L 233.369356 117.712487 
L 236.789173 114.202905 
L 240.208989 110.651926 
L 243.628805 107.326332 
L 247.048621 104.189327 
L 250.468437 101.102919 
L 253.888253 98.255695 
L 257.308069 95.569462 
L 260.727886 93.062618 
L 264.147702 90.813357 
L 267.567518 88.600895 
L 270.987334 86.448228 
L 274.40715 84.194368 
L 277.826966 82.046302 
L 281.246782 80.022427 
L 284.666599 78.021552 
L 288.086415 76.190865 
L 291.506231 74.470572 
L 294.926047 72.791676 
L 298.345863 71.062184 
L 301.765679 69.447684 
L 305.185495 67.90678 
L 308.605312 66.255482 
L 312.025128 64.801972 
L 315.444944 63.491054 
L 318.86476 62.410121 
L 322.284576 61.214195 
L 325.704392 60.091865 
L 329.124208 58.918938 
L 332.544025 57.792008 
L 335.963841 56.63288 
L 339.383657 55.611743 
L 342.803473 54.655002 
L 346.223289 53.670663 
L 349.643105 52.713923 
L 353.062921 51.757182 
L 356.482737 50.874037 
L 359.902554 49.995492 
L 363.32237 49.084748 
L 366.742186 48.275198 
L 370.162002 47.424251 
L 373.581818 46.665298 
" style="fill:none;stroke:#64b5cd;stroke-linecap:round;stroke-width:1.5;"/>
   </g>
   <g id="line2d_21">
    <path clip-path="url(#p53cdbf8294)" d="M 69.218182 242.116364 
L 72.637998 242.116364 
L 76.057814 242.116364 
L 79.47763 242.116364 
L 82.897446 242.116364 
L 86.317263 242.116364 
L 89.737079 242.116364 
L 93.156895 242.116364 
L 96.576711 242.116364 
L 99.996527 242.116364 
L 103.416343 242.111764 
L 106.836159 242.111764 
L 110.255975 242.111764 
L 113.675792 242.111764 
L 117.095608 242.102564 
L 120.515424 242.074966 
L 123.93524 242.070366 
L 127.355056 242.038168 
L 130.774872 241.996771 
L 134.194688 241.766785 
L 137.614505 241.481603 
L 141.034321 240.869841 
L 144.454137 239.816506 
L 147.873953 238.280202 
L 151.293769 236.003343 
L 154.713585 232.783543 
L 158.133401 228.446012 
L 161.553218 223.446123 
L 164.973034 217.489493 
L 168.39285 210.893502 
L 171.812666 203.819141 
L 175.232482 196.514795 
L 178.652298 189.196649 
L 182.072114 181.961298 
L 185.491931 175.429704 
L 188.911747 168.842913 
L 192.331563 162.205525 
L 195.751379 156.110903 
L 199.171195 150.375059 
L 202.591011 144.883 
L 206.010827 139.754319 
L 209.430644 134.690033 
L 212.85046 130.062721 
L 216.270276 125.918378 
L 219.690092 121.797034 
L 223.109908 117.965472 
L 226.529724 114.262702 
L 229.94954 110.693323 
L 233.369356 107.450525 
L 236.789173 104.29512 
L 240.208989 101.309906 
L 243.628805 98.306292 
L 247.048621 95.661456 
L 250.468437 92.966024 
L 253.888253 90.426981 
L 257.308069 88.19612 
L 260.727886 85.928461 
L 264.147702 83.830991 
L 267.567518 81.784118 
L 270.987334 79.958031 
L 274.40715 77.874361 
L 277.826966 75.882684 
L 281.246782 74.171591 
L 284.666599 72.225911 
L 288.086415 70.625211 
L 291.506231 68.955515 
L 294.926047 67.465207 
L 298.345863 66.12209 
L 301.765679 64.728377 
L 305.185495 63.408259 
L 308.605312 62.290528 
L 312.025128 60.929013 
L 315.444944 59.779084 
L 318.86476 58.596958 
L 322.284576 57.465428 
L 325.704392 56.338498 
L 329.124208 55.229967 
L 332.544025 54.323823 
L 335.963841 53.440678 
L 339.383657 52.626528 
L 342.803473 51.605392 
L 346.223289 50.749845 
L 349.643105 49.797704 
L 353.062921 48.997354 
L 356.482737 48.178604 
L 359.902554 47.401253 
L 363.32237 46.669898 
L 366.742186 45.920145 
L 370.162002 45.18419 
L 373.581818 44.443636 
" style="fill:none;stroke:#4c72b0;stroke-linecap:round;stroke-width:1.5;"/>
   </g>
   <g id="patch_3">
    <path d="M 54 252 
L 54 34.56 
" style="fill:none;stroke:#ffffff;stroke-linecap:square;stroke-linejoin:miter;stroke-width:1.25;"/>
   </g>
   <g id="patch_4">
    <path d="M 388.8 252 
L 388.8 34.56 
" style="fill:none;stroke:#ffffff;stroke-linecap:square;stroke-linejoin:miter;stroke-width:1.25;"/>
   </g>
   <g id="patch_5">
    <path d="M 54 252 
L 388.8 252 
" style="fill:none;stroke:#ffffff;stroke-linecap:square;stroke-linejoin:miter;stroke-width:1.25;"/>
   </g>
   <g id="patch_6">
    <path d="M 54 34.56 
L 388.8 34.56 
" style="fill:none;stroke:#ffffff;stroke-linecap:square;stroke-linejoin:miter;stroke-width:1.25;"/>
   </g>
   <g id="legend_1">
    <g id="patch_7">
     <path d="M 61.7 220.965313 
L 128.390938 220.965313 
Q 130.590937 220.965313 130.590937 218.765313 
L 130.590937 42.26 
Q 130.590937 40.06 128.390938 40.06 
L 61.7 40.06 
Q 59.5 40.06 59.5 42.26 
L 59.5 218.765313 
Q 59.5 220.965313 61.7 220.965313 
z
" style="fill:#eaeaf2;opacity:0.8;stroke:#cccccc;stroke-linejoin:miter;"/>
    </g>
    <g id="line2d_22">
     <path d="M 63.9 48.968281 
L 85.9 48.968281 
" style="fill:none;stroke:#4c72b0;stroke-linecap:round;stroke-width:1.5;"/>
    </g>
    <g id="line2d_23"/>
    <g id="text_13">
     <!-- 6.08 -->
     <defs>
      <path d="M 10.6875 12.40625 
L 21 12.40625 
L 21 0 
L 10.6875 0 
z
" id="DejaVuSans-2e"/>
     </defs>
     <g style="fill:#262626;" transform="translate(94.7 52.818281)scale(0.11 -0.11)">
      <use xlink:href="#DejaVuSans-36"/>
      <use x="63.623047" xlink:href="#DejaVuSans-2e"/>
      <use x="95.410156" xlink:href="#DejaVuSans-30"/>
      <use x="159.033203" xlink:href="#DejaVuSans-38"/>
     </g>
    </g>
    <g id="line2d_24">
     <path d="M 63.9 65.114219 
L 85.9 65.114219 
" style="fill:none;stroke:#dd8452;stroke-linecap:round;stroke-width:1.5;"/>
    </g>
    <g id="line2d_25"/>
    <g id="text_14">
     <!-- 6.51 -->
     <defs>
      <path d="M 10.796875 72.90625 
L 49.515625 72.90625 
L 49.515625 64.59375 
L 19.828125 64.59375 
L 19.828125 46.734375 
Q 21.96875 47.46875 24.109375 47.828125 
Q 26.265625 48.1875 28.421875 48.1875 
Q 40.625 48.1875 47.75 41.5 
Q 54.890625 34.8125 54.890625 23.390625 
Q 54.890625 11.625 47.5625 5.09375 
Q 40.234375 -1.421875 26.90625 -1.421875 
Q 22.3125 -1.421875 17.546875 -0.640625 
Q 12.796875 0.140625 7.71875 1.703125 
L 7.71875 11.625 
Q 12.109375 9.234375 16.796875 8.0625 
Q 21.484375 6.890625 26.703125 6.890625 
Q 35.15625 6.890625 40.078125 11.328125 
Q 45.015625 15.765625 45.015625 23.390625 
Q 45.015625 31 40.078125 35.4375 
Q 35.15625 39.890625 26.703125 39.890625 
Q 22.75 39.890625 18.8125 39.015625 
Q 14.890625 38.140625 10.796875 36.28125 
z
" id="DejaVuSans-35"/>
     </defs>
     <g style="fill:#262626;" transform="translate(94.7 68.964219)scale(0.11 -0.11)">
      <use xlink:href="#DejaVuSans-36"/>
      <use x="63.623047" xlink:href="#DejaVuSans-2e"/>
      <use x="95.410156" xlink:href="#DejaVuSans-35"/>
      <use x="159.033203" xlink:href="#DejaVuSans-31"/>
     </g>
    </g>
    <g id="line2d_26">
     <path d="M 63.9 81.260156 
L 85.9 81.260156 
" style="fill:none;stroke:#55a868;stroke-linecap:round;stroke-width:1.5;"/>
    </g>
    <g id="line2d_27"/>
    <g id="text_15">
     <!-- 6.95 -->
     <defs>
      <path d="M 10.984375 1.515625 
L 10.984375 10.5 
Q 14.703125 8.734375 18.5 7.8125 
Q 22.3125 6.890625 25.984375 6.890625 
Q 35.75 6.890625 40.890625 13.453125 
Q 46.046875 20.015625 46.78125 33.40625 
Q 43.953125 29.203125 39.59375 26.953125 
Q 35.25 24.703125 29.984375 24.703125 
Q 19.046875 24.703125 12.671875 31.3125 
Q 6.296875 37.9375 6.296875 49.421875 
Q 6.296875 60.640625 12.9375 67.421875 
Q 19.578125 74.21875 30.609375 74.21875 
Q 43.265625 74.21875 49.921875 64.515625 
Q 56.59375 54.828125 56.59375 36.375 
Q 56.59375 19.140625 48.40625 8.859375 
Q 40.234375 -1.421875 26.421875 -1.421875 
Q 22.703125 -1.421875 18.890625 -0.6875 
Q 15.09375 0.046875 10.984375 1.515625 
z
M 30.609375 32.421875 
Q 37.25 32.421875 41.125 36.953125 
Q 45.015625 41.5 45.015625 49.421875 
Q 45.015625 57.28125 41.125 61.84375 
Q 37.25 66.40625 30.609375 66.40625 
Q 23.96875 66.40625 20.09375 61.84375 
Q 16.21875 57.28125 16.21875 49.421875 
Q 16.21875 41.5 20.09375 36.953125 
Q 23.96875 32.421875 30.609375 32.421875 
z
" id="DejaVuSans-39"/>
     </defs>
     <g style="fill:#262626;" transform="translate(94.7 85.110156)scale(0.11 -0.11)">
      <use xlink:href="#DejaVuSans-36"/>
      <use x="63.623047" xlink:href="#DejaVuSans-2e"/>
      <use x="95.410156" xlink:href="#DejaVuSans-39"/>
      <use x="159.033203" xlink:href="#DejaVuSans-35"/>
     </g>
    </g>
    <g id="line2d_28">
     <path d="M 63.9 97.406094 
L 85.9 97.406094 
" style="fill:none;stroke:#c44e52;stroke-linecap:round;stroke-width:1.5;"/>
    </g>
    <g id="line2d_29"/>
    <g id="text_16">
     <!-- 7.38 -->
     <defs>
      <path d="M 8.203125 72.90625 
L 55.078125 72.90625 
L 55.078125 68.703125 
L 28.609375 0 
L 18.3125 0 
L 43.21875 64.59375 
L 8.203125 64.59375 
z
" id="DejaVuSans-37"/>
     </defs>
     <g style="fill:#262626;" transform="translate(94.7 101.256094)scale(0.11 -0.11)">
      <use xlink:href="#DejaVuSans-37"/>
      <use x="63.623047" xlink:href="#DejaVuSans-2e"/>
      <use x="95.410156" xlink:href="#DejaVuSans-33"/>
      <use x="159.033203" xlink:href="#DejaVuSans-38"/>
     </g>
    </g>
    <g id="line2d_30">
     <path d="M 63.9 113.552031 
L 85.9 113.552031 
" style="fill:none;stroke:#8172b3;stroke-linecap:round;stroke-width:1.5;"/>
    </g>
    <g id="line2d_31"/>
    <g id="text_17">
     <!-- 7.82 -->
     <g style="fill:#262626;" transform="translate(94.7 117.402031)scale(0.11 -0.11)">
      <use xlink:href="#DejaVuSans-37"/>
      <use x="63.623047" xlink:href="#DejaVuSans-2e"/>
      <use x="95.410156" xlink:href="#DejaVuSans-38"/>
      <use x="159.033203" xlink:href="#DejaVuSans-32"/>
     </g>
    </g>
    <g id="line2d_32">
     <path d="M 63.9 129.697969 
L 85.9 129.697969 
" style="fill:none;stroke:#937860;stroke-linecap:round;stroke-width:1.5;"/>
    </g>
    <g id="line2d_33"/>
    <g id="text_18">
     <!-- 8.25 -->
     <g style="fill:#262626;" transform="translate(94.7 133.547969)scale(0.11 -0.11)">
      <use xlink:href="#DejaVuSans-38"/>
      <use x="63.623047" xlink:href="#DejaVuSans-2e"/>
      <use x="95.410156" xlink:href="#DejaVuSans-32"/>
      <use x="159.033203" xlink:href="#DejaVuSans-35"/>
     </g>
    </g>
    <g id="line2d_34">
     <path d="M 63.9 145.843906 
L 85.9 145.843906 
" style="fill:none;stroke:#da8bc3;stroke-linecap:round;stroke-width:1.5;"/>
    </g>
    <g id="line2d_35"/>
    <g id="text_19">
     <!-- 8.69 -->
     <g style="fill:#262626;" transform="translate(94.7 149.693906)scale(0.11 -0.11)">
      <use xlink:href="#DejaVuSans-38"/>
      <use x="63.623047" xlink:href="#DejaVuSans-2e"/>
      <use x="95.410156" xlink:href="#DejaVuSans-36"/>
      <use x="159.033203" xlink:href="#DejaVuSans-39"/>
     </g>
    </g>
    <g id="line2d_36">
     <path d="M 63.9 161.989844 
L 85.9 161.989844 
" style="fill:none;stroke:#8c8c8c;stroke-linecap:round;stroke-width:1.5;"/>
    </g>
    <g id="line2d_37"/>
    <g id="text_20">
     <!-- 9.12 -->
     <g style="fill:#262626;" transform="translate(94.7 165.839844)scale(0.11 -0.11)">
      <use xlink:href="#DejaVuSans-39"/>
      <use x="63.623047" xlink:href="#DejaVuSans-2e"/>
      <use x="95.410156" xlink:href="#DejaVuSans-31"/>
      <use x="159.033203" xlink:href="#DejaVuSans-32"/>
     </g>
    </g>
    <g id="line2d_38">
     <path d="M 63.9 178.135781 
L 85.9 178.135781 
" style="fill:none;stroke:#ccb974;stroke-linecap:round;stroke-width:1.5;"/>
    </g>
    <g id="line2d_39"/>
    <g id="text_21">
     <!-- 9.55 -->
     <g style="fill:#262626;" transform="translate(94.7 181.985781)scale(0.11 -0.11)">
      <use xlink:href="#DejaVuSans-39"/>
      <use x="63.623047" xlink:href="#DejaVuSans-2e"/>
      <use x="95.410156" xlink:href="#DejaVuSans-35"/>
      <use x="159.033203" xlink:href="#DejaVuSans-35"/>
     </g>
    </g>
    <g id="line2d_40">
     <path d="M 63.9 194.281719 
L 85.9 194.281719 
" style="fill:none;stroke:#64b5cd;stroke-linecap:round;stroke-width:1.5;"/>
    </g>
    <g id="line2d_41"/>
    <g id="text_22">
     <!-- 9.99 -->
     <g style="fill:#262626;" transform="translate(94.7 198.131719)scale(0.11 -0.11)">
      <use xlink:href="#DejaVuSans-39"/>
      <use x="63.623047" xlink:href="#DejaVuSans-2e"/>
      <use x="95.410156" xlink:href="#DejaVuSans-39"/>
      <use x="159.033203" xlink:href="#DejaVuSans-39"/>
     </g>
    </g>
    <g id="line2d_42">
     <path d="M 63.9 210.427656 
L 85.9 210.427656 
" style="fill:none;stroke:#4c72b0;stroke-linecap:round;stroke-width:1.5;"/>
    </g>
    <g id="line2d_43"/>
    <g id="text_23">
     <!-- 10.42 -->
     <g style="fill:#262626;" transform="translate(94.7 214.277656)scale(0.11 -0.11)">
      <use xlink:href="#DejaVuSans-31"/>
      <use x="63.623047" xlink:href="#DejaVuSans-30"/>
      <use x="127.246094" xlink:href="#DejaVuSans-2e"/>
      <use x="159.033203" xlink:href="#DejaVuSans-34"/>
      <use x="222.65625" xlink:href="#DejaVuSans-32"/>
     </g>
    </g>
   </g>
  </g>
 </g>
 <defs>
  <clipPath id="p53cdbf8294">
   <rect height="217.44" width="334.8" x="54" y="34.56"/>
  </clipPath>
 </defs>
</svg>
