<?xml version="1.0" encoding="utf-8" standalone="no"?>
<!DOCTYPE svg PUBLIC "-//W3C//DTD SVG 1.1//EN"
  "http://www.w3.org/Graphics/SVG/1.1/DTD/svg11.dtd">
<!-- Created with matplotlib (http://matplotlib.org/) -->
<svg height="288pt" version="1.1" viewBox="0 0 432 288" width="432pt" xmlns="http://www.w3.org/2000/svg" xmlns:xlink="http://www.w3.org/1999/xlink">
 <defs>
  <style type="text/css">
*{stroke-linecap:butt;stroke-linejoin:round;}
  </style>
 </defs>
 <g id="figure_1">
  <g id="patch_1">
   <path d="M 0 288 
L 432 288 
L 432 0 
L 0 0 
z
" style="fill:#ffffff;"/>
  </g>
  <g id="axes_1">
   <g id="patch_2">
    <path d="M 54 252 
L 388.8 252 
L 388.8 34.56 
L 54 34.56 
z
" style="fill:#ffffff;"/>
   </g>
   <g id="matplotlib.axis_1">
    <g id="xtick_1">
     <g id="line2d_1">
      <defs>
       <path d="M 0 0 
L 0 3.5 
" id="m00c3d7f8cb" style="stroke:#000000;stroke-width:0.8;"/>
      </defs>
      <g>
       <use style="stroke:#000000;stroke-width:0.8;" x="69.218182" xlink:href="#m00c3d7f8cb" y="252"/>
      </g>
     </g>
     <g id="text_1">
      <!-- 0 -->
      <defs>
       <path d="M 31.78125 66.40625 
Q 24.171875 66.40625 20.328125 58.90625 
Q 16.5 51.421875 16.5 36.375 
Q 16.5 21.390625 20.328125 13.890625 
Q 24.171875 6.390625 31.78125 6.390625 
Q 39.453125 6.390625 43.28125 13.890625 
Q 47.125 21.390625 47.125 36.375 
Q 47.125 51.421875 43.28125 58.90625 
Q 39.453125 66.40625 31.78125 66.40625 
z
M 31.78125 74.21875 
Q 44.046875 74.21875 50.515625 64.515625 
Q 56.984375 54.828125 56.984375 36.375 
Q 56.984375 17.96875 50.515625 8.265625 
Q 44.046875 -1.421875 31.78125 -1.421875 
Q 19.53125 -1.421875 13.0625 8.265625 
Q 6.59375 17.96875 6.59375 36.375 
Q 6.59375 54.828125 13.0625 64.515625 
Q 19.53125 74.21875 31.78125 74.21875 
z
" id="DejaVuSans-30"/>
      </defs>
      <g transform="translate(66.036932 266.598437)scale(0.1 -0.1)">
       <use xlink:href="#DejaVuSans-30"/>
      </g>
     </g>
    </g>
    <g id="xtick_2">
     <g id="line2d_2">
      <g>
       <use style="stroke:#000000;stroke-width:0.8;" x="110.072361" xlink:href="#m00c3d7f8cb" y="252"/>
      </g>
     </g>
     <g id="text_2">
      <!-- 20 -->
      <defs>
       <path d="M 19.1875 8.296875 
L 53.609375 8.296875 
L 53.609375 0 
L 7.328125 0 
L 7.328125 8.296875 
Q 12.9375 14.109375 22.625 23.890625 
Q 32.328125 33.6875 34.8125 36.53125 
Q 39.546875 41.84375 41.421875 45.53125 
Q 43.3125 49.21875 43.3125 52.78125 
Q 43.3125 58.59375 39.234375 62.25 
Q 35.15625 65.921875 28.609375 65.921875 
Q 23.96875 65.921875 18.8125 64.3125 
Q 13.671875 62.703125 7.8125 59.421875 
L 7.8125 69.390625 
Q 13.765625 71.78125 18.9375 73 
Q 24.125 74.21875 28.421875 74.21875 
Q 39.75 74.21875 46.484375 68.546875 
Q 53.21875 62.890625 53.21875 53.421875 
Q 53.21875 48.921875 51.53125 44.890625 
Q 49.859375 40.875 45.40625 35.40625 
Q 44.1875 33.984375 37.640625 27.21875 
Q 31.109375 20.453125 19.1875 8.296875 
z
" id="DejaVuSans-32"/>
      </defs>
      <g transform="translate(103.709861 266.598437)scale(0.1 -0.1)">
       <use xlink:href="#DejaVuSans-32"/>
       <use x="63.623047" xlink:href="#DejaVuSans-30"/>
      </g>
     </g>
    </g>
    <g id="xtick_3">
     <g id="line2d_3">
      <g>
       <use style="stroke:#000000;stroke-width:0.8;" x="150.926541" xlink:href="#m00c3d7f8cb" y="252"/>
      </g>
     </g>
     <g id="text_3">
      <!-- 40 -->
      <defs>
       <path d="M 37.796875 64.3125 
L 12.890625 25.390625 
L 37.796875 25.390625 
z
M 35.203125 72.90625 
L 47.609375 72.90625 
L 47.609375 25.390625 
L 58.015625 25.390625 
L 58.015625 17.1875 
L 47.609375 17.1875 
L 47.609375 0 
L 37.796875 0 
L 37.796875 17.1875 
L 4.890625 17.1875 
L 4.890625 26.703125 
z
" id="DejaVuSans-34"/>
      </defs>
      <g transform="translate(144.564041 266.598437)scale(0.1 -0.1)">
       <use xlink:href="#DejaVuSans-34"/>
       <use x="63.623047" xlink:href="#DejaVuSans-30"/>
      </g>
     </g>
    </g>
    <g id="xtick_4">
     <g id="line2d_4">
      <g>
       <use style="stroke:#000000;stroke-width:0.8;" x="191.78072" xlink:href="#m00c3d7f8cb" y="252"/>
      </g>
     </g>
     <g id="text_4">
      <!-- 60 -->
      <defs>
       <path d="M 33.015625 40.375 
Q 26.375 40.375 22.484375 35.828125 
Q 18.609375 31.296875 18.609375 23.390625 
Q 18.609375 15.53125 22.484375 10.953125 
Q 26.375 6.390625 33.015625 6.390625 
Q 39.65625 6.390625 43.53125 10.953125 
Q 47.40625 15.53125 47.40625 23.390625 
Q 47.40625 31.296875 43.53125 35.828125 
Q 39.65625 40.375 33.015625 40.375 
z
M 52.59375 71.296875 
L 52.59375 62.3125 
Q 48.875 64.0625 45.09375 64.984375 
Q 41.3125 65.921875 37.59375 65.921875 
Q 27.828125 65.921875 22.671875 59.328125 
Q 17.53125 52.734375 16.796875 39.40625 
Q 19.671875 43.65625 24.015625 45.921875 
Q 28.375 48.1875 33.59375 48.1875 
Q 44.578125 48.1875 50.953125 41.515625 
Q 57.328125 34.859375 57.328125 23.390625 
Q 57.328125 12.15625 50.6875 5.359375 
Q 44.046875 -1.421875 33.015625 -1.421875 
Q 20.359375 -1.421875 13.671875 8.265625 
Q 6.984375 17.96875 6.984375 36.375 
Q 6.984375 53.65625 15.1875 63.9375 
Q 23.390625 74.21875 37.203125 74.21875 
Q 40.921875 74.21875 44.703125 73.484375 
Q 48.484375 72.75 52.59375 71.296875 
z
" id="DejaVuSans-36"/>
      </defs>
      <g transform="translate(185.41822 266.598437)scale(0.1 -0.1)">
       <use xlink:href="#DejaVuSans-36"/>
       <use x="63.623047" xlink:href="#DejaVuSans-30"/>
      </g>
     </g>
    </g>
    <g id="xtick_5">
     <g id="line2d_5">
      <g>
       <use style="stroke:#000000;stroke-width:0.8;" x="232.634899" xlink:href="#m00c3d7f8cb" y="252"/>
      </g>
     </g>
     <g id="text_5">
      <!-- 80 -->
      <defs>
       <path d="M 31.78125 34.625 
Q 24.75 34.625 20.71875 30.859375 
Q 16.703125 27.09375 16.703125 20.515625 
Q 16.703125 13.921875 20.71875 10.15625 
Q 24.75 6.390625 31.78125 6.390625 
Q 38.8125 6.390625 42.859375 10.171875 
Q 46.921875 13.96875 46.921875 20.515625 
Q 46.921875 27.09375 42.890625 30.859375 
Q 38.875 34.625 31.78125 34.625 
z
M 21.921875 38.8125 
Q 15.578125 40.375 12.03125 44.71875 
Q 8.5 49.078125 8.5 55.328125 
Q 8.5 64.0625 14.71875 69.140625 
Q 20.953125 74.21875 31.78125 74.21875 
Q 42.671875 74.21875 48.875 69.140625 
Q 55.078125 64.0625 55.078125 55.328125 
Q 55.078125 49.078125 51.53125 44.71875 
Q 48 40.375 41.703125 38.8125 
Q 48.828125 37.15625 52.796875 32.3125 
Q 56.78125 27.484375 56.78125 20.515625 
Q 56.78125 9.90625 50.3125 4.234375 
Q 43.84375 -1.421875 31.78125 -1.421875 
Q 19.734375 -1.421875 13.25 4.234375 
Q 6.78125 9.90625 6.78125 20.515625 
Q 6.78125 27.484375 10.78125 32.3125 
Q 14.796875 37.15625 21.921875 38.8125 
z
M 18.3125 54.390625 
Q 18.3125 48.734375 21.84375 45.5625 
Q 25.390625 42.390625 31.78125 42.390625 
Q 38.140625 42.390625 41.71875 45.5625 
Q 45.3125 48.734375 45.3125 54.390625 
Q 45.3125 60.0625 41.71875 63.234375 
Q 38.140625 66.40625 31.78125 66.40625 
Q 25.390625 66.40625 21.84375 63.234375 
Q 18.3125 60.0625 18.3125 54.390625 
z
" id="DejaVuSans-38"/>
      </defs>
      <g transform="translate(226.272399 266.598437)scale(0.1 -0.1)">
       <use xlink:href="#DejaVuSans-38"/>
       <use x="63.623047" xlink:href="#DejaVuSans-30"/>
      </g>
     </g>
    </g>
    <g id="xtick_6">
     <g id="line2d_6">
      <g>
       <use style="stroke:#000000;stroke-width:0.8;" x="273.489079" xlink:href="#m00c3d7f8cb" y="252"/>
      </g>
     </g>
     <g id="text_6">
      <!-- 100 -->
      <defs>
       <path d="M 12.40625 8.296875 
L 28.515625 8.296875 
L 28.515625 63.921875 
L 10.984375 60.40625 
L 10.984375 69.390625 
L 28.421875 72.90625 
L 38.28125 72.90625 
L 38.28125 8.296875 
L 54.390625 8.296875 
L 54.390625 0 
L 12.40625 0 
z
" id="DejaVuSans-31"/>
      </defs>
      <g transform="translate(263.945329 266.598437)scale(0.1 -0.1)">
       <use xlink:href="#DejaVuSans-31"/>
       <use x="63.623047" xlink:href="#DejaVuSans-30"/>
       <use x="127.246094" xlink:href="#DejaVuSans-30"/>
      </g>
     </g>
    </g>
    <g id="xtick_7">
     <g id="line2d_7">
      <g>
       <use style="stroke:#000000;stroke-width:0.8;" x="314.343258" xlink:href="#m00c3d7f8cb" y="252"/>
      </g>
     </g>
     <g id="text_7">
      <!-- 120 -->
      <g transform="translate(304.799508 266.598437)scale(0.1 -0.1)">
       <use xlink:href="#DejaVuSans-31"/>
       <use x="63.623047" xlink:href="#DejaVuSans-32"/>
       <use x="127.246094" xlink:href="#DejaVuSans-30"/>
      </g>
     </g>
    </g>
    <g id="xtick_8">
     <g id="line2d_8">
      <g>
       <use style="stroke:#000000;stroke-width:0.8;" x="355.197437" xlink:href="#m00c3d7f8cb" y="252"/>
      </g>
     </g>
     <g id="text_8">
      <!-- 140 -->
      <g transform="translate(345.653687 266.598437)scale(0.1 -0.1)">
       <use xlink:href="#DejaVuSans-31"/>
       <use x="63.623047" xlink:href="#DejaVuSans-34"/>
       <use x="127.246094" xlink:href="#DejaVuSans-30"/>
      </g>
     </g>
    </g>
    <g id="text_9">
     <!-- Age -->
     <defs>
      <path d="M 34.1875 63.1875 
L 20.796875 26.90625 
L 47.609375 26.90625 
z
M 28.609375 72.90625 
L 39.796875 72.90625 
L 67.578125 0 
L 57.328125 0 
L 50.6875 18.703125 
L 17.828125 18.703125 
L 11.1875 0 
L 0.78125 0 
z
" id="DejaVuSans-41"/>
      <path d="M 45.40625 27.984375 
Q 45.40625 37.75 41.375 43.109375 
Q 37.359375 48.484375 30.078125 48.484375 
Q 22.859375 48.484375 18.828125 43.109375 
Q 14.796875 37.75 14.796875 27.984375 
Q 14.796875 18.265625 18.828125 12.890625 
Q 22.859375 7.515625 30.078125 7.515625 
Q 37.359375 7.515625 41.375 12.890625 
Q 45.40625 18.265625 45.40625 27.984375 
z
M 54.390625 6.78125 
Q 54.390625 -7.171875 48.1875 -13.984375 
Q 42 -20.796875 29.203125 -20.796875 
Q 24.46875 -20.796875 20.265625 -20.09375 
Q 16.0625 -19.390625 12.109375 -17.921875 
L 12.109375 -9.1875 
Q 16.0625 -11.328125 19.921875 -12.34375 
Q 23.78125 -13.375 27.78125 -13.375 
Q 36.625 -13.375 41.015625 -8.765625 
Q 45.40625 -4.15625 45.40625 5.171875 
L 45.40625 9.625 
Q 42.625 4.78125 38.28125 2.390625 
Q 33.9375 0 27.875 0 
Q 17.828125 0 11.671875 7.65625 
Q 5.515625 15.328125 5.515625 27.984375 
Q 5.515625 40.671875 11.671875 48.328125 
Q 17.828125 56 27.875 56 
Q 33.9375 56 38.28125 53.609375 
Q 42.625 51.21875 45.40625 46.390625 
L 45.40625 54.6875 
L 54.390625 54.6875 
z
" id="DejaVuSans-67"/>
      <path d="M 56.203125 29.59375 
L 56.203125 25.203125 
L 14.890625 25.203125 
Q 15.484375 15.921875 20.484375 11.0625 
Q 25.484375 6.203125 34.421875 6.203125 
Q 39.59375 6.203125 44.453125 7.46875 
Q 49.3125 8.734375 54.109375 11.28125 
L 54.109375 2.78125 
Q 49.265625 0.734375 44.1875 -0.34375 
Q 39.109375 -1.421875 33.890625 -1.421875 
Q 20.796875 -1.421875 13.15625 6.1875 
Q 5.515625 13.8125 5.515625 26.8125 
Q 5.515625 40.234375 12.765625 48.109375 
Q 20.015625 56 32.328125 56 
Q 43.359375 56 49.78125 48.890625 
Q 56.203125 41.796875 56.203125 29.59375 
z
M 47.21875 32.234375 
Q 47.125 39.59375 43.09375 43.984375 
Q 39.0625 48.390625 32.421875 48.390625 
Q 24.90625 48.390625 20.390625 44.140625 
Q 15.875 39.890625 15.1875 32.171875 
z
" id="DejaVuSans-65"/>
     </defs>
     <g transform="translate(211.728906 280.276563)scale(0.1 -0.1)">
      <use xlink:href="#DejaVuSans-41"/>
      <use x="68.408203" xlink:href="#DejaVuSans-67"/>
      <use x="131.884766" xlink:href="#DejaVuSans-65"/>
     </g>
    </g>
   </g>
   <g id="matplotlib.axis_2">
    <g id="ytick_1">
     <g id="line2d_9">
      <defs>
       <path d="M 0 0 
L -3.5 0 
" id="m8075db1e5b" style="stroke:#000000;stroke-width:0.8;"/>
      </defs>
      <g>
       <use style="stroke:#000000;stroke-width:0.8;" x="54" xlink:href="#m8075db1e5b" y="242.116364"/>
      </g>
     </g>
     <g id="text_10">
      <!-- 0 -->
      <g transform="translate(40.6375 245.915582)scale(0.1 -0.1)">
       <use xlink:href="#DejaVuSans-30"/>
      </g>
     </g>
    </g>
    <g id="ytick_2">
     <g id="line2d_10">
      <g>
       <use style="stroke:#000000;stroke-width:0.8;" x="54" xlink:href="#m8075db1e5b" y="212.282573"/>
      </g>
     </g>
     <g id="text_11">
      <!-- 5000 -->
      <defs>
       <path d="M 10.796875 72.90625 
L 49.515625 72.90625 
L 49.515625 64.59375 
L 19.828125 64.59375 
L 19.828125 46.734375 
Q 21.96875 47.46875 24.109375 47.828125 
Q 26.265625 48.1875 28.421875 48.1875 
Q 40.625 48.1875 47.75 41.5 
Q 54.890625 34.8125 54.890625 23.390625 
Q 54.890625 11.625 47.5625 5.09375 
Q 40.234375 -1.421875 26.90625 -1.421875 
Q 22.3125 -1.421875 17.546875 -0.640625 
Q 12.796875 0.140625 7.71875 1.703125 
L 7.71875 11.625 
Q 12.109375 9.234375 16.796875 8.0625 
Q 21.484375 6.890625 26.703125 6.890625 
Q 35.15625 6.890625 40.078125 11.328125 
Q 45.015625 15.765625 45.015625 23.390625 
Q 45.015625 31 40.078125 35.4375 
Q 35.15625 39.890625 26.703125 39.890625 
Q 22.75 39.890625 18.8125 39.015625 
Q 14.890625 38.140625 10.796875 36.28125 
z
" id="DejaVuSans-35"/>
      </defs>
      <g transform="translate(21.55 216.081792)scale(0.1 -0.1)">
       <use xlink:href="#DejaVuSans-35"/>
       <use x="63.623047" xlink:href="#DejaVuSans-30"/>
       <use x="127.246094" xlink:href="#DejaVuSans-30"/>
       <use x="190.869141" xlink:href="#DejaVuSans-30"/>
      </g>
     </g>
    </g>
    <g id="ytick_3">
     <g id="line2d_11">
      <g>
       <use style="stroke:#000000;stroke-width:0.8;" x="54" xlink:href="#m8075db1e5b" y="182.448783"/>
      </g>
     </g>
     <g id="text_12">
      <!-- 10000 -->
      <g transform="translate(15.1875 186.248002)scale(0.1 -0.1)">
       <use xlink:href="#DejaVuSans-31"/>
       <use x="63.623047" xlink:href="#DejaVuSans-30"/>
       <use x="127.246094" xlink:href="#DejaVuSans-30"/>
       <use x="190.869141" xlink:href="#DejaVuSans-30"/>
       <use x="254.492188" xlink:href="#DejaVuSans-30"/>
      </g>
     </g>
    </g>
    <g id="ytick_4">
     <g id="line2d_12">
      <g>
       <use style="stroke:#000000;stroke-width:0.8;" x="54" xlink:href="#m8075db1e5b" y="152.614993"/>
      </g>
     </g>
     <g id="text_13">
      <!-- 15000 -->
      <g transform="translate(15.1875 156.414212)scale(0.1 -0.1)">
       <use xlink:href="#DejaVuSans-31"/>
       <use x="63.623047" xlink:href="#DejaVuSans-35"/>
       <use x="127.246094" xlink:href="#DejaVuSans-30"/>
       <use x="190.869141" xlink:href="#DejaVuSans-30"/>
       <use x="254.492188" xlink:href="#DejaVuSans-30"/>
      </g>
     </g>
    </g>
    <g id="ytick_5">
     <g id="line2d_13">
      <g>
       <use style="stroke:#000000;stroke-width:0.8;" x="54" xlink:href="#m8075db1e5b" y="122.781203"/>
      </g>
     </g>
     <g id="text_14">
      <!-- 20000 -->
      <g transform="translate(15.1875 126.580421)scale(0.1 -0.1)">
       <use xlink:href="#DejaVuSans-32"/>
       <use x="63.623047" xlink:href="#DejaVuSans-30"/>
       <use x="127.246094" xlink:href="#DejaVuSans-30"/>
       <use x="190.869141" xlink:href="#DejaVuSans-30"/>
       <use x="254.492188" xlink:href="#DejaVuSans-30"/>
      </g>
     </g>
    </g>
    <g id="ytick_6">
     <g id="line2d_14">
      <g>
       <use style="stroke:#000000;stroke-width:0.8;" x="54" xlink:href="#m8075db1e5b" y="92.947413"/>
      </g>
     </g>
     <g id="text_15">
      <!-- 25000 -->
      <g transform="translate(15.1875 96.746631)scale(0.1 -0.1)">
       <use xlink:href="#DejaVuSans-32"/>
       <use x="63.623047" xlink:href="#DejaVuSans-35"/>
       <use x="127.246094" xlink:href="#DejaVuSans-30"/>
       <use x="190.869141" xlink:href="#DejaVuSans-30"/>
       <use x="254.492188" xlink:href="#DejaVuSans-30"/>
      </g>
     </g>
    </g>
    <g id="ytick_7">
     <g id="line2d_15">
      <g>
       <use style="stroke:#000000;stroke-width:0.8;" x="54" xlink:href="#m8075db1e5b" y="63.113622"/>
      </g>
     </g>
     <g id="text_16">
      <!-- 30000 -->
      <defs>
       <path d="M 40.578125 39.3125 
Q 47.65625 37.796875 51.625 33 
Q 55.609375 28.21875 55.609375 21.1875 
Q 55.609375 10.40625 48.1875 4.484375 
Q 40.765625 -1.421875 27.09375 -1.421875 
Q 22.515625 -1.421875 17.65625 -0.515625 
Q 12.796875 0.390625 7.625 2.203125 
L 7.625 11.71875 
Q 11.71875 9.328125 16.59375 8.109375 
Q 21.484375 6.890625 26.8125 6.890625 
Q 36.078125 6.890625 40.9375 10.546875 
Q 45.796875 14.203125 45.796875 21.1875 
Q 45.796875 27.640625 41.28125 31.265625 
Q 36.765625 34.90625 28.71875 34.90625 
L 20.21875 34.90625 
L 20.21875 43.015625 
L 29.109375 43.015625 
Q 36.375 43.015625 40.234375 45.921875 
Q 44.09375 48.828125 44.09375 54.296875 
Q 44.09375 59.90625 40.109375 62.90625 
Q 36.140625 65.921875 28.71875 65.921875 
Q 24.65625 65.921875 20.015625 65.03125 
Q 15.375 64.15625 9.8125 62.3125 
L 9.8125 71.09375 
Q 15.4375 72.65625 20.34375 73.4375 
Q 25.25 74.21875 29.59375 74.21875 
Q 40.828125 74.21875 47.359375 69.109375 
Q 53.90625 64.015625 53.90625 55.328125 
Q 53.90625 49.265625 50.4375 45.09375 
Q 46.96875 40.921875 40.578125 39.3125 
z
" id="DejaVuSans-33"/>
      </defs>
      <g transform="translate(15.1875 66.912841)scale(0.1 -0.1)">
       <use xlink:href="#DejaVuSans-33"/>
       <use x="63.623047" xlink:href="#DejaVuSans-30"/>
       <use x="127.246094" xlink:href="#DejaVuSans-30"/>
       <use x="190.869141" xlink:href="#DejaVuSans-30"/>
       <use x="254.492188" xlink:href="#DejaVuSans-30"/>
      </g>
     </g>
    </g>
    <g id="text_17">
     <!-- Cumulative incidence -->
     <defs>
      <path d="M 64.40625 67.28125 
L 64.40625 56.890625 
Q 59.421875 61.53125 53.78125 63.8125 
Q 48.140625 66.109375 41.796875 66.109375 
Q 29.296875 66.109375 22.65625 58.46875 
Q 16.015625 50.828125 16.015625 36.375 
Q 16.015625 21.96875 22.65625 14.328125 
Q 29.296875 6.6875 41.796875 6.6875 
Q 48.140625 6.6875 53.78125 8.984375 
Q 59.421875 11.28125 64.40625 15.921875 
L 64.40625 5.609375 
Q 59.234375 2.09375 53.4375 0.328125 
Q 47.65625 -1.421875 41.21875 -1.421875 
Q 24.65625 -1.421875 15.125 8.703125 
Q 5.609375 18.84375 5.609375 36.375 
Q 5.609375 53.953125 15.125 64.078125 
Q 24.65625 74.21875 41.21875 74.21875 
Q 47.75 74.21875 53.53125 72.484375 
Q 59.328125 70.75 64.40625 67.28125 
z
" id="DejaVuSans-43"/>
      <path d="M 8.5 21.578125 
L 8.5 54.6875 
L 17.484375 54.6875 
L 17.484375 21.921875 
Q 17.484375 14.15625 20.5 10.265625 
Q 23.53125 6.390625 29.59375 6.390625 
Q 36.859375 6.390625 41.078125 11.03125 
Q 45.3125 15.671875 45.3125 23.6875 
L 45.3125 54.6875 
L 54.296875 54.6875 
L 54.296875 0 
L 45.3125 0 
L 45.3125 8.40625 
Q 42.046875 3.421875 37.71875 1 
Q 33.40625 -1.421875 27.6875 -1.421875 
Q 18.265625 -1.421875 13.375 4.4375 
Q 8.5 10.296875 8.5 21.578125 
z
M 31.109375 56 
z
" id="DejaVuSans-75"/>
      <path d="M 52 44.1875 
Q 55.375 50.25 60.0625 53.125 
Q 64.75 56 71.09375 56 
Q 79.640625 56 84.28125 50.015625 
Q 88.921875 44.046875 88.921875 33.015625 
L 88.921875 0 
L 79.890625 0 
L 79.890625 32.71875 
Q 79.890625 40.578125 77.09375 44.375 
Q 74.3125 48.1875 68.609375 48.1875 
Q 61.625 48.1875 57.5625 43.546875 
Q 53.515625 38.921875 53.515625 30.90625 
L 53.515625 0 
L 44.484375 0 
L 44.484375 32.71875 
Q 44.484375 40.625 41.703125 44.40625 
Q 38.921875 48.1875 33.109375 48.1875 
Q 26.21875 48.1875 22.15625 43.53125 
Q 18.109375 38.875 18.109375 30.90625 
L 18.109375 0 
L 9.078125 0 
L 9.078125 54.6875 
L 18.109375 54.6875 
L 18.109375 46.1875 
Q 21.1875 51.21875 25.484375 53.609375 
Q 29.78125 56 35.6875 56 
Q 41.65625 56 45.828125 52.96875 
Q 50 49.953125 52 44.1875 
z
" id="DejaVuSans-6d"/>
      <path d="M 9.421875 75.984375 
L 18.40625 75.984375 
L 18.40625 0 
L 9.421875 0 
z
" id="DejaVuSans-6c"/>
      <path d="M 34.28125 27.484375 
Q 23.390625 27.484375 19.1875 25 
Q 14.984375 22.515625 14.984375 16.5 
Q 14.984375 11.71875 18.140625 8.90625 
Q 21.296875 6.109375 26.703125 6.109375 
Q 34.1875 6.109375 38.703125 11.40625 
Q 43.21875 16.703125 43.21875 25.484375 
L 43.21875 27.484375 
z
M 52.203125 31.203125 
L 52.203125 0 
L 43.21875 0 
L 43.21875 8.296875 
Q 40.140625 3.328125 35.546875 0.953125 
Q 30.953125 -1.421875 24.3125 -1.421875 
Q 15.921875 -1.421875 10.953125 3.296875 
Q 6 8.015625 6 15.921875 
Q 6 25.140625 12.171875 29.828125 
Q 18.359375 34.515625 30.609375 34.515625 
L 43.21875 34.515625 
L 43.21875 35.40625 
Q 43.21875 41.609375 39.140625 45 
Q 35.0625 48.390625 27.6875 48.390625 
Q 23 48.390625 18.546875 47.265625 
Q 14.109375 46.140625 10.015625 43.890625 
L 10.015625 52.203125 
Q 14.9375 54.109375 19.578125 55.046875 
Q 24.21875 56 28.609375 56 
Q 40.484375 56 46.34375 49.84375 
Q 52.203125 43.703125 52.203125 31.203125 
z
" id="DejaVuSans-61"/>
      <path d="M 18.3125 70.21875 
L 18.3125 54.6875 
L 36.8125 54.6875 
L 36.8125 47.703125 
L 18.3125 47.703125 
L 18.3125 18.015625 
Q 18.3125 11.328125 20.140625 9.421875 
Q 21.96875 7.515625 27.59375 7.515625 
L 36.8125 7.515625 
L 36.8125 0 
L 27.59375 0 
Q 17.1875 0 13.234375 3.875 
Q 9.28125 7.765625 9.28125 18.015625 
L 9.28125 47.703125 
L 2.6875 47.703125 
L 2.6875 54.6875 
L 9.28125 54.6875 
L 9.28125 70.21875 
z
" id="DejaVuSans-74"/>
      <path d="M 9.421875 54.6875 
L 18.40625 54.6875 
L 18.40625 0 
L 9.421875 0 
z
M 9.421875 75.984375 
L 18.40625 75.984375 
L 18.40625 64.59375 
L 9.421875 64.59375 
z
" id="DejaVuSans-69"/>
      <path d="M 2.984375 54.6875 
L 12.5 54.6875 
L 29.59375 8.796875 
L 46.6875 54.6875 
L 56.203125 54.6875 
L 35.6875 0 
L 23.484375 0 
z
" id="DejaVuSans-76"/>
      <path id="DejaVuSans-20"/>
      <path d="M 54.890625 33.015625 
L 54.890625 0 
L 45.90625 0 
L 45.90625 32.71875 
Q 45.90625 40.484375 42.875 44.328125 
Q 39.84375 48.1875 33.796875 48.1875 
Q 26.515625 48.1875 22.3125 43.546875 
Q 18.109375 38.921875 18.109375 30.90625 
L 18.109375 0 
L 9.078125 0 
L 9.078125 54.6875 
L 18.109375 54.6875 
L 18.109375 46.1875 
Q 21.34375 51.125 25.703125 53.5625 
Q 30.078125 56 35.796875 56 
Q 45.21875 56 50.046875 50.171875 
Q 54.890625 44.34375 54.890625 33.015625 
z
" id="DejaVuSans-6e"/>
      <path d="M 48.78125 52.59375 
L 48.78125 44.1875 
Q 44.96875 46.296875 41.140625 47.34375 
Q 37.3125 48.390625 33.40625 48.390625 
Q 24.65625 48.390625 19.8125 42.84375 
Q 14.984375 37.3125 14.984375 27.296875 
Q 14.984375 17.28125 19.8125 11.734375 
Q 24.65625 6.203125 33.40625 6.203125 
Q 37.3125 6.203125 41.140625 7.25 
Q 44.96875 8.296875 48.78125 10.40625 
L 48.78125 2.09375 
Q 45.015625 0.34375 40.984375 -0.53125 
Q 36.96875 -1.421875 32.421875 -1.421875 
Q 20.0625 -1.421875 12.78125 6.34375 
Q 5.515625 14.109375 5.515625 27.296875 
Q 5.515625 40.671875 12.859375 48.328125 
Q 20.21875 56 33.015625 56 
Q 37.15625 56 41.109375 55.140625 
Q 45.0625 54.296875 48.78125 52.59375 
z
" id="DejaVuSans-63"/>
      <path d="M 45.40625 46.390625 
L 45.40625 75.984375 
L 54.390625 75.984375 
L 54.390625 0 
L 45.40625 0 
L 45.40625 8.203125 
Q 42.578125 3.328125 38.25 0.953125 
Q 33.9375 -1.421875 27.875 -1.421875 
Q 17.96875 -1.421875 11.734375 6.484375 
Q 5.515625 14.40625 5.515625 27.296875 
Q 5.515625 40.1875 11.734375 48.09375 
Q 17.96875 56 27.875 56 
Q 33.9375 56 38.25 53.625 
Q 42.578125 51.265625 45.40625 46.390625 
z
M 14.796875 27.296875 
Q 14.796875 17.390625 18.875 11.75 
Q 22.953125 6.109375 30.078125 6.109375 
Q 37.203125 6.109375 41.296875 11.75 
Q 45.40625 17.390625 45.40625 27.296875 
Q 45.40625 37.203125 41.296875 42.84375 
Q 37.203125 48.484375 30.078125 48.484375 
Q 22.953125 48.484375 18.875 42.84375 
Q 14.796875 37.203125 14.796875 27.296875 
z
" id="DejaVuSans-64"/>
     </defs>
     <g transform="translate(9.107812 197.347969)rotate(-90)scale(0.1 -0.1)">
      <use xlink:href="#DejaVuSans-43"/>
      <use x="69.824219" xlink:href="#DejaVuSans-75"/>
      <use x="133.203125" xlink:href="#DejaVuSans-6d"/>
      <use x="230.615234" xlink:href="#DejaVuSans-75"/>
      <use x="293.994141" xlink:href="#DejaVuSans-6c"/>
      <use x="321.777344" xlink:href="#DejaVuSans-61"/>
      <use x="383.056641" xlink:href="#DejaVuSans-74"/>
      <use x="422.265625" xlink:href="#DejaVuSans-69"/>
      <use x="450.048828" xlink:href="#DejaVuSans-76"/>
      <use x="509.228516" xlink:href="#DejaVuSans-65"/>
      <use x="570.751953" xlink:href="#DejaVuSans-20"/>
      <use x="602.539062" xlink:href="#DejaVuSans-69"/>
      <use x="630.322266" xlink:href="#DejaVuSans-6e"/>
      <use x="693.701172" xlink:href="#DejaVuSans-63"/>
      <use x="748.681641" xlink:href="#DejaVuSans-69"/>
      <use x="776.464844" xlink:href="#DejaVuSans-64"/>
      <use x="839.941406" xlink:href="#DejaVuSans-65"/>
      <use x="901.464844" xlink:href="#DejaVuSans-6e"/>
      <use x="964.84375" xlink:href="#DejaVuSans-63"/>
      <use x="1019.824219" xlink:href="#DejaVuSans-65"/>
     </g>
    </g>
   </g>
   <g id="line2d_16">
    <path clip-path="url(#pd404d84d43)" d="M 69.218182 242.116364 
L 144.798414 242.044763 
L 150.926541 241.853826 
L 159.097376 241.370519 
L 167.268212 240.350203 
L 171.35363 239.526791 
L 173.396339 239.019616 
L 179.524466 237.020752 
L 185.652593 234.675816 
L 189.738011 232.653085 
L 191.78072 231.417966 
L 193.823429 230.320083 
L 197.908847 227.778244 
L 204.036974 223.470245 
L 206.079683 221.614583 
L 208.122392 219.979691 
L 210.165101 218.17773 
L 214.250519 214.22177 
L 218.335937 210.444812 
L 220.378646 208.398214 
L 222.421354 206.584319 
L 226.506772 202.550791 
L 228.549481 200.551927 
L 238.763026 189.489558 
L 253.061989 172.47833 
L 255.104698 169.763456 
L 257.147407 167.63929 
L 259.190116 165.139218 
L 261.232825 163.009085 
L 271.44637 151.55291 
L 275.531788 147.185243 
L 279.617206 142.972712 
L 285.745333 136.457012 
L 291.873459 130.227717 
L 295.958877 126.021152 
L 298.001586 123.914887 
L 300.044295 121.981657 
L 304.129713 117.852661 
L 306.172422 115.949265 
L 308.215131 113.854933 
L 316.385967 106.617255 
L 324.556803 99.236375 
L 330.68493 94.176565 
L 336.813057 89.677629 
L 340.898475 86.604749 
L 342.941184 85.256261 
L 344.983893 83.758605 
L 361.325564 73.155676 
L 363.368273 71.968291 
L 367.453691 69.30115 
L 373.581818 65.637561 
L 373.581818 65.637561 
" style="fill:none;stroke:#1f77b4;stroke-linecap:square;stroke-width:1.5;"/>
   </g>
   <g id="line2d_17">
    <path clip-path="url(#pd404d84d43)" d="M 69.218182 242.116364 
L 134.584869 242.020896 
L 140.712996 241.722558 
L 144.798414 241.322785 
L 146.841123 241.113948 
L 150.926541 240.409871 
L 152.96925 240.004131 
L 157.054667 238.613877 
L 163.182794 235.714032 
L 167.268212 233.452631 
L 173.396339 229.05513 
L 179.524466 223.923718 
L 185.652593 217.71829 
L 187.695302 215.409155 
L 189.738011 213.308856 
L 197.908847 203.857511 
L 199.951556 201.667711 
L 201.994265 199.036371 
L 206.079683 194.155562 
L 212.20781 186.553913 
L 214.250519 184.208977 
L 218.335937 179.071598 
L 230.59219 164.274038 
L 240.805735 152.591126 
L 242.848444 150.114921 
L 244.891153 147.984789 
L 248.976571 143.414252 
L 259.190116 132.882924 
L 263.275534 128.849396 
L 267.360952 124.624931 
L 279.617206 113.109088 
L 289.83075 104.009782 
L 295.958877 98.782902 
L 300.044295 95.58472 
L 302.087004 94.11093 
L 306.172422 90.638277 
L 308.215131 88.925818 
L 316.385967 83.23353 
L 326.599512 76.341925 
L 332.727639 72.714136 
L 347.026602 64.133938 
L 353.154728 60.834321 
L 367.453691 53.662278 
L 373.581818 50.834034 
L 373.581818 50.834034 
" style="fill:none;stroke:#ff7f0e;stroke-linecap:square;stroke-width:1.5;"/>
   </g>
   <g id="line2d_18">
    <path clip-path="url(#pd404d84d43)" d="M 69.218182 242.116364 
L 128.456742 242.014929 
L 134.584869 241.639023 
L 138.670287 241.096048 
L 142.755705 240.37407 
L 148.883832 238.357306 
L 152.96925 236.45391 
L 155.011959 235.445528 
L 157.054667 234.311844 
L 163.182794 230.272349 
L 167.268212 226.966765 
L 169.310921 225.224472 
L 171.35363 223.064505 
L 175.439048 219.394949 
L 179.524466 215.051149 
L 181.567175 212.676379 
L 183.609884 210.516413 
L 193.823429 198.368094 
L 195.866138 195.712886 
L 214.250519 174.178857 
L 216.293228 171.869721 
L 224.464063 161.941036 
L 228.549481 157.400333 
L 238.763026 146.152994 
L 242.848444 142.012064 
L 244.891153 139.685028 
L 248.976571 135.770835 
L 251.01928 133.509434 
L 253.061989 131.576204 
L 255.104698 129.416238 
L 257.147407 127.59041 
L 261.232825 123.574782 
L 271.44637 113.872833 
L 285.745333 101.987051 
L 289.83075 98.711301 
L 298.001586 92.810177 
L 304.129713 88.472344 
L 306.172422 86.920987 
L 310.25784 84.09871 
L 314.343258 81.312234 
L 326.599512 73.394346 
L 332.727639 69.730757 
L 334.770348 68.465804 
L 353.154728 58.20298 
L 357.240146 55.941579 
L 371.539109 49.402012 
L 373.581818 48.566666 
L 373.581818 48.566666 
" style="fill:none;stroke:#2ca02c;stroke-linecap:square;stroke-width:1.5;"/>
   </g>
   <g id="line2d_19">
    <path clip-path="url(#pd404d84d43)" d="M 69.218182 242.116364 
L 126.414033 242.026862 
L 132.54216 241.615156 
L 136.627578 241.161682 
L 138.670287 240.767876 
L 144.798414 239.144918 
L 146.841123 238.285705 
L 152.96925 235.177024 
L 155.011959 234.001573 
L 157.054667 232.670986 
L 161.140085 229.395235 
L 167.268212 224.162389 
L 171.35363 220.325763 
L 179.524466 211.620263 
L 181.567175 209.203726 
L 183.609884 206.978126 
L 185.652593 204.478054 
L 187.695302 202.198752 
L 201.994265 184.722118 
L 212.20781 172.096458 
L 216.293228 167.388686 
L 218.335937 165.157118 
L 226.506772 155.359702 
L 232.634899 148.491963 
L 234.677608 145.944157 
L 236.720317 143.652922 
L 238.763026 141.582457 
L 242.848444 137.220757 
L 248.976571 130.746825 
L 259.190116 120.812173 
L 271.44637 109.612568 
L 281.659915 101.098004 
L 287.788041 95.990459 
L 291.873459 92.834044 
L 293.916168 91.300587 
L 295.958877 89.928233 
L 304.129713 83.901807 
L 306.172422 82.416085 
L 310.25784 79.916013 
L 312.300549 78.513825 
L 314.343258 77.272739 
L 316.385967 75.882485 
L 318.428676 74.790568 
L 326.599512 69.933627 
L 334.770348 65.207954 
L 336.813057 64.110071 
L 338.855766 62.880919 
L 347.026602 58.769822 
L 365.410982 49.25881 
L 367.453691 48.345896 
L 371.539109 46.287365 
L 373.581818 45.416218 
L 373.581818 45.416218 
" style="fill:none;stroke:#d62728;stroke-linecap:square;stroke-width:1.5;"/>
   </g>
   <g id="line2d_20">
    <path clip-path="url(#pd404d84d43)" d="M 69.218182 242.116364 
L 124.371324 242.044763 
L 130.499451 241.800125 
L 134.584869 241.334718 
L 138.670287 240.636608 
L 142.755705 239.562591 
L 146.841123 238.017201 
L 150.926541 235.99447 
L 157.054667 231.919174 
L 159.097376 230.385717 
L 165.225503 225.075303 
L 171.35363 219.048877 
L 173.396339 216.721841 
L 175.439048 214.64541 
L 183.609884 205.528203 
L 187.695302 200.486293 
L 193.823429 193.278449 
L 201.994265 182.812755 
L 204.036974 180.07998 
L 208.122392 175.366241 
L 216.293228 165.44949 
L 220.378646 160.753651 
L 224.464063 156.004112 
L 228.549481 151.415675 
L 230.59219 149.327309 
L 234.677608 144.601637 
L 238.763026 140.0311 
L 244.891153 133.754071 
L 248.976571 129.81601 
L 261.232825 118.204699 
L 263.275534 116.534007 
L 265.318243 114.570944 
L 269.403661 111.050556 
L 275.531788 105.722241 
L 279.617206 102.673228 
L 281.659915 101.008503 
L 285.745333 97.470215 
L 293.916168 91.133518 
L 295.958877 89.582161 
L 300.044295 86.795685 
L 302.087004 85.244328 
L 304.129713 83.895841 
L 306.172422 82.398184 
L 314.343258 76.867 
L 318.428676 74.056657 
L 330.68493 66.68771 
L 334.770348 64.289074 
L 336.813057 63.042021 
L 349.069311 56.562122 
L 369.4964 46.711004 
L 373.581818 44.974678 
L 373.581818 44.974678 
" style="fill:none;stroke:#9467bd;stroke-linecap:square;stroke-width:1.5;"/>
   </g>
   <g id="line2d_21">
    <path clip-path="url(#pd404d84d43)" d="M 69.218182 242.116364 
L 124.371324 242.056696 
L 130.499451 241.758358 
L 134.584869 241.334718 
L 138.670287 240.481472 
L 144.798414 238.745145 
L 148.883832 236.817882 
L 150.926541 235.833367 
L 152.96925 234.663883 
L 157.054667 231.770005 
L 161.140085 228.571823 
L 169.310921 221.113375 
L 179.524466 210.247909 
L 187.695302 200.593694 
L 193.823429 193.069613 
L 212.20781 171.404314 
L 214.250519 168.850542 
L 232.634899 148.742567 
L 234.677608 146.791437 
L 238.763026 142.143333 
L 251.01928 129.875678 
L 261.232825 119.887325 
L 267.360952 114.242772 
L 269.403661 112.500479 
L 271.44637 110.495648 
L 279.617206 103.759178 
L 281.659915 101.963184 
L 291.873459 94.427169 
L 293.916168 93.084648 
L 300.044295 88.508145 
L 314.343258 79.247736 
L 316.385967 77.803781 
L 340.898475 63.322459 
L 342.941184 62.266343 
L 344.983893 61.061058 
L 347.026602 60.022842 
L 349.069311 59.127828 
L 353.154728 56.84256 
L 355.197437 55.935612 
L 359.282855 53.889014 
L 365.410982 51.019004 
L 373.581818 47.349448 
L 373.581818 47.349448 
" style="fill:none;stroke:#8c564b;stroke-linecap:square;stroke-width:1.5;"/>
   </g>
   <g id="line2d_22">
    <path clip-path="url(#pd404d84d43)" d="M 69.218182 242.116364 
L 126.414033 242.020896 
L 128.456742 241.949294 
L 132.54216 241.525655 
L 136.627578 240.869311 
L 142.755705 239.198619 
L 146.841123 237.826265 
L 152.96925 234.693717 
L 155.011959 233.404897 
L 161.140085 228.953695 
L 169.310921 221.548949 
L 179.524466 210.528347 
L 191.78072 195.856089 
L 193.823429 193.493252 
L 195.866138 190.915613 
L 197.908847 188.725813 
L 226.506772 154.363253 
L 228.549481 151.97655 
L 232.634899 147.65065 
L 234.677608 145.269914 
L 236.720317 143.163648 
L 238.763026 140.717277 
L 244.891153 134.60135 
L 246.933862 132.274315 
L 253.061989 126.241922 
L 257.147407 122.387397 
L 261.232825 118.503037 
L 263.275534 116.414672 
L 271.44637 109.081526 
L 273.489079 107.12443 
L 279.617206 102.070586 
L 285.745333 97.279279 
L 289.83075 93.991595 
L 291.873459 92.666975 
L 293.916168 91.061917 
L 306.172422 82.493652 
L 308.215131 80.846827 
L 310.25784 79.49834 
L 312.300549 78.000684 
L 316.385967 75.440944 
L 318.428676 74.390795 
L 322.514094 71.872823 
L 324.556803 70.518369 
L 332.727639 65.995566 
L 336.813057 63.477595 
L 338.855766 62.349877 
L 340.898475 61.490664 
L 349.069311 56.979795 
L 351.11202 55.852078 
L 357.240146 52.9224 
L 365.410982 48.912738 
L 371.539109 46.382833 
L 373.581818 45.505719 
L 373.581818 45.505719 
" style="fill:none;stroke:#e377c2;stroke-linecap:square;stroke-width:1.5;"/>
   </g>
   <g id="line2d_23">
    <path clip-path="url(#pd404d84d43)" d="M 69.218182 242.116364 
L 124.371324 242.032829 
L 130.499451 241.722558 
L 132.54216 241.573389 
L 138.670287 240.463572 
L 142.755705 239.323921 
L 148.883832 236.990918 
L 150.926541 235.743866 
L 152.96925 234.651949 
L 155.011959 233.404897 
L 161.140085 228.923862 
L 165.225503 225.349774 
L 167.268212 223.16594 
L 173.396339 217.217082 
L 175.439048 215.009382 
L 179.524466 210.056973 
L 181.567175 207.741871 
L 183.609884 205.176165 
L 185.652593 202.819295 
L 195.866138 190.032533 
L 197.908847 187.783065 
L 199.951556 185.235259 
L 208.122392 175.879383 
L 210.165101 173.06904 
L 218.335937 163.408858 
L 222.421354 158.796554 
L 228.549481 151.893015 
L 230.59219 149.78675 
L 236.720317 142.692274 
L 238.763026 140.45474 
L 242.848444 136.242209 
L 244.891153 133.962907 
L 248.976571 130.024847 
L 251.01928 128.073717 
L 255.104698 123.843286 
L 267.360952 112.464678 
L 277.574497 103.729344 
L 279.617206 102.046719 
L 281.659915 100.59083 
L 285.745333 97.422481 
L 289.83075 94.540537 
L 293.916168 91.264787 
L 295.958877 89.540394 
L 300.044295 86.938887 
L 302.087004 85.435264 
L 316.385967 76.168889 
L 324.556803 71.144879 
L 326.599512 69.766558 
L 334.770348 64.999118 
L 336.813057 63.978802 
L 338.855766 62.672082 
L 342.941184 60.55985 
L 349.069311 57.302 
L 351.11202 56.45472 
L 353.154728 55.404571 
L 357.240146 53.656311 
L 363.368273 50.637131 
L 373.581818 45.941293 
L 373.581818 45.941293 
" style="fill:none;stroke:#7f7f7f;stroke-linecap:square;stroke-width:1.5;"/>
   </g>
   <g id="line2d_24">
    <path clip-path="url(#pd404d84d43)" d="M 69.218182 242.116364 
L 124.371324 242.014929 
L 132.54216 241.609189 
L 136.627578 241.012513 
L 140.712996 240.051865 
L 144.798414 238.619843 
L 148.883832 236.817882 
L 152.96925 234.68775 
L 157.054667 231.883374 
L 165.225503 225.260272 
L 167.268212 223.452344 
L 173.396339 217.085814 
L 185.652593 203.207134 
L 191.78072 195.826255 
L 193.823429 193.123313 
L 199.951556 185.575364 
L 208.122392 175.199172 
L 222.421354 158.378881 
L 226.506772 153.629342 
L 228.549481 151.141204 
L 230.59219 148.861902 
L 240.805735 138.258973 
L 244.891153 133.783905 
L 259.190116 119.732189 
L 263.275534 115.835896 
L 265.318243 114.141337 
L 267.360952 112.088772 
L 269.403661 110.525482 
L 283.702624 98.532298 
L 287.788041 95.596653 
L 289.83075 93.836459 
L 291.873459 92.34477 
L 295.958877 89.116754 
L 298.001586 87.750366 
L 306.172422 81.68814 
L 308.215131 80.488822 
L 314.343258 76.329991 
L 324.556803 70.058929 
L 330.68493 66.472907 
L 338.855766 61.532431 
L 344.983893 58.322316 
L 347.026602 57.331834 
L 351.11202 55.046565 
L 355.197437 52.886599 
L 363.368273 48.996273 
L 367.453691 47.08691 
L 371.539109 45.225282 
L 373.581818 44.443636 
L 373.581818 44.443636 
" style="fill:none;stroke:#bcbd22;stroke-linecap:square;stroke-width:1.5;"/>
   </g>
   <g id="line2d_25">
    <path clip-path="url(#pd404d84d43)" d="M 69.218182 242.116364 
L 124.371324 242.062663 
L 130.499451 241.764325 
L 136.627578 240.970746 
L 138.670287 240.57694 
L 140.712996 239.998165 
L 146.841123 237.850132 
L 150.926541 235.833367 
L 155.011959 233.375063 
L 157.054667 231.984808 
L 161.140085 228.774693 
L 165.225503 225.140937 
L 175.439048 214.90198 
L 179.524466 210.486579 
L 197.908847 188.54681 
L 201.994265 183.546667 
L 210.165101 174.041621 
L 212.20781 171.410281 
L 220.378646 161.732199 
L 222.421354 159.112792 
L 228.549481 152.209253 
L 232.634899 148.014623 
L 234.677608 145.580185 
L 236.720317 143.456019 
L 238.763026 141.093183 
L 242.848444 136.904519 
L 244.891153 134.983223 
L 248.976571 130.728924 
L 251.01928 128.700227 
L 255.104698 124.362394 
L 263.275534 116.468373 
L 277.574497 104.427455 
L 285.745333 98.222027 
L 287.788041 96.431999 
L 293.916168 91.950964 
L 295.958877 90.214637 
L 298.001586 88.705048 
L 302.087004 85.900671 
L 306.172422 83.084361 
L 310.25784 80.214351 
L 320.471385 73.794119 
L 322.514094 72.5232 
L 326.599512 70.261798 
L 328.642221 69.074414 
L 330.68493 67.749793 
L 334.770348 65.589827 
L 336.813057 64.312941 
L 340.898475 62.182808 
L 344.983893 60.112343 
L 347.026602 58.913025 
L 349.069311 57.96431 
L 355.197437 54.831762 
L 363.368273 50.857901 
L 367.453691 49.234943 
L 373.581818 46.4067 
L 373.581818 46.4067 
" style="fill:none;stroke:#17becf;stroke-linecap:square;stroke-width:1.5;"/>
   </g>
   <g id="line2d_26">
    <path clip-path="url(#pd404d84d43)" d="M 69.218182 242.116364 
L 124.371324 242.008962 
L 128.456742 241.889627 
L 132.54216 241.591289 
L 134.584869 241.394386 
L 136.627578 241.042347 
L 140.712996 239.93253 
L 146.841123 237.74273 
L 148.883832 236.853683 
L 155.011959 233.39893 
L 159.097376 230.600521 
L 163.182794 227.169635 
L 167.268212 223.601513 
L 171.35363 219.735054 
L 177.481757 213.147753 
L 195.866138 190.969314 
L 199.951556 185.885636 
L 201.994265 183.5765 
L 206.079683 178.55249 
L 208.122392 176.261255 
L 216.293228 166.33257 
L 218.335937 164.047301 
L 228.549481 151.827381 
L 232.634899 147.537282 
L 234.677608 145.359415 
L 236.720317 142.996579 
L 246.933862 132.333982 
L 251.01928 128.348188 
L 253.061989 126.164355 
L 257.147407 122.315796 
L 265.318243 114.767847 
L 271.44637 109.797537 
L 275.531788 106.354718 
L 279.617206 102.905932 
L 281.659915 101.151705 
L 283.702624 99.546647 
L 285.745333 97.708885 
L 289.83075 94.707606 
L 291.873459 93.281551 
L 295.958877 90.232538 
L 308.215131 81.831342 
L 316.385967 76.610429 
L 318.428676 75.35741 
L 320.471385 73.919421 
L 330.68493 68.155533 
L 336.813057 64.611279 
L 338.855766 63.352293 
L 342.941184 61.20426 
L 347.026602 59.080094 
L 351.11202 57.176698 
L 355.197437 54.992865 
L 357.240146 53.924815 
L 361.325564 52.134787 
L 365.410982 50.213491 
L 369.4964 48.584566 
L 373.581818 46.705038 
L 373.581818 46.705038 
" style="fill:none;stroke:#1f77b4;stroke-linecap:square;stroke-width:1.5;"/>
   </g>
   <g id="patch_3">
    <path d="M 54 252 
L 54 34.56 
" style="fill:none;stroke:#000000;stroke-linecap:square;stroke-linejoin:miter;stroke-width:0.8;"/>
   </g>
   <g id="patch_4">
    <path d="M 388.8 252 
L 388.8 34.56 
" style="fill:none;stroke:#000000;stroke-linecap:square;stroke-linejoin:miter;stroke-width:0.8;"/>
   </g>
   <g id="patch_5">
    <path d="M 54 252 
L 388.8 252 
" style="fill:none;stroke:#000000;stroke-linecap:square;stroke-linejoin:miter;stroke-width:0.8;"/>
   </g>
   <g id="patch_6">
    <path d="M 54 34.56 
L 388.8 34.56 
" style="fill:none;stroke:#000000;stroke-linecap:square;stroke-linejoin:miter;stroke-width:0.8;"/>
   </g>
   <g id="legend_1">
    <g id="patch_7">
     <path d="M 61 204.019375 
L 121.628125 204.019375 
Q 123.628125 204.019375 123.628125 202.019375 
L 123.628125 41.56 
Q 123.628125 39.56 121.628125 39.56 
L 61 39.56 
Q 59 39.56 59 41.56 
L 59 202.019375 
Q 59 204.019375 61 204.019375 
z
" style="fill:#ffffff;opacity:0.8;stroke:#cccccc;stroke-linejoin:miter;"/>
    </g>
    <g id="line2d_27">
     <path d="M 63 47.658437 
L 83 47.658437 
" style="fill:none;stroke:#1f77b4;stroke-linecap:square;stroke-width:1.5;"/>
    </g>
    <g id="line2d_28"/>
    <g id="text_18">
     <!-- 6.08 -->
     <defs>
      <path d="M 10.6875 12.40625 
L 21 12.40625 
L 21 0 
L 10.6875 0 
z
" id="DejaVuSans-2e"/>
     </defs>
     <g transform="translate(91 51.158437)scale(0.1 -0.1)">
      <use xlink:href="#DejaVuSans-36"/>
      <use x="63.623047" xlink:href="#DejaVuSans-2e"/>
      <use x="95.410156" xlink:href="#DejaVuSans-30"/>
      <use x="159.033203" xlink:href="#DejaVuSans-38"/>
     </g>
    </g>
    <g id="line2d_29">
     <path d="M 63 62.336563 
L 83 62.336563 
" style="fill:none;stroke:#ff7f0e;stroke-linecap:square;stroke-width:1.5;"/>
    </g>
    <g id="line2d_30"/>
    <g id="text_19">
     <!-- 6.51 -->
     <g transform="translate(91 65.836563)scale(0.1 -0.1)">
      <use xlink:href="#DejaVuSans-36"/>
      <use x="63.623047" xlink:href="#DejaVuSans-2e"/>
      <use x="95.410156" xlink:href="#DejaVuSans-35"/>
      <use x="159.033203" xlink:href="#DejaVuSans-31"/>
     </g>
    </g>
    <g id="line2d_31">
     <path d="M 63 77.014688 
L 83 77.014688 
" style="fill:none;stroke:#2ca02c;stroke-linecap:square;stroke-width:1.5;"/>
    </g>
    <g id="line2d_32"/>
    <g id="text_20">
     <!-- 6.95 -->
     <defs>
      <path d="M 10.984375 1.515625 
L 10.984375 10.5 
Q 14.703125 8.734375 18.5 7.8125 
Q 22.3125 6.890625 25.984375 6.890625 
Q 35.75 6.890625 40.890625 13.453125 
Q 46.046875 20.015625 46.78125 33.40625 
Q 43.953125 29.203125 39.59375 26.953125 
Q 35.25 24.703125 29.984375 24.703125 
Q 19.046875 24.703125 12.671875 31.3125 
Q 6.296875 37.9375 6.296875 49.421875 
Q 6.296875 60.640625 12.9375 67.421875 
Q 19.578125 74.21875 30.609375 74.21875 
Q 43.265625 74.21875 49.921875 64.515625 
Q 56.59375 54.828125 56.59375 36.375 
Q 56.59375 19.140625 48.40625 8.859375 
Q 40.234375 -1.421875 26.421875 -1.421875 
Q 22.703125 -1.421875 18.890625 -0.6875 
Q 15.09375 0.046875 10.984375 1.515625 
z
M 30.609375 32.421875 
Q 37.25 32.421875 41.125 36.953125 
Q 45.015625 41.5 45.015625 49.421875 
Q 45.015625 57.28125 41.125 61.84375 
Q 37.25 66.40625 30.609375 66.40625 
Q 23.96875 66.40625 20.09375 61.84375 
Q 16.21875 57.28125 16.21875 49.421875 
Q 16.21875 41.5 20.09375 36.953125 
Q 23.96875 32.421875 30.609375 32.421875 
z
" id="DejaVuSans-39"/>
     </defs>
     <g transform="translate(91 80.514688)scale(0.1 -0.1)">
      <use xlink:href="#DejaVuSans-36"/>
      <use x="63.623047" xlink:href="#DejaVuSans-2e"/>
      <use x="95.410156" xlink:href="#DejaVuSans-39"/>
      <use x="159.033203" xlink:href="#DejaVuSans-35"/>
     </g>
    </g>
    <g id="line2d_33">
     <path d="M 63 91.692813 
L 83 91.692813 
" style="fill:none;stroke:#d62728;stroke-linecap:square;stroke-width:1.5;"/>
    </g>
    <g id="line2d_34"/>
    <g id="text_21">
     <!-- 7.38 -->
     <defs>
      <path d="M 8.203125 72.90625 
L 55.078125 72.90625 
L 55.078125 68.703125 
L 28.609375 0 
L 18.3125 0 
L 43.21875 64.59375 
L 8.203125 64.59375 
z
" id="DejaVuSans-37"/>
     </defs>
     <g transform="translate(91 95.192813)scale(0.1 -0.1)">
      <use xlink:href="#DejaVuSans-37"/>
      <use x="63.623047" xlink:href="#DejaVuSans-2e"/>
      <use x="95.410156" xlink:href="#DejaVuSans-33"/>
      <use x="159.033203" xlink:href="#DejaVuSans-38"/>
     </g>
    </g>
    <g id="line2d_35">
     <path d="M 63 106.370938 
L 83 106.370938 
" style="fill:none;stroke:#9467bd;stroke-linecap:square;stroke-width:1.5;"/>
    </g>
    <g id="line2d_36"/>
    <g id="text_22">
     <!-- 7.82 -->
     <g transform="translate(91 109.870938)scale(0.1 -0.1)">
      <use xlink:href="#DejaVuSans-37"/>
      <use x="63.623047" xlink:href="#DejaVuSans-2e"/>
      <use x="95.410156" xlink:href="#DejaVuSans-38"/>
      <use x="159.033203" xlink:href="#DejaVuSans-32"/>
     </g>
    </g>
    <g id="line2d_37">
     <path d="M 63 121.049062 
L 83 121.049062 
" style="fill:none;stroke:#8c564b;stroke-linecap:square;stroke-width:1.5;"/>
    </g>
    <g id="line2d_38"/>
    <g id="text_23">
     <!-- 8.25 -->
     <g transform="translate(91 124.549062)scale(0.1 -0.1)">
      <use xlink:href="#DejaVuSans-38"/>
      <use x="63.623047" xlink:href="#DejaVuSans-2e"/>
      <use x="95.410156" xlink:href="#DejaVuSans-32"/>
      <use x="159.033203" xlink:href="#DejaVuSans-35"/>
     </g>
    </g>
    <g id="line2d_39">
     <path d="M 63 135.727188 
L 83 135.727188 
" style="fill:none;stroke:#e377c2;stroke-linecap:square;stroke-width:1.5;"/>
    </g>
    <g id="line2d_40"/>
    <g id="text_24">
     <!-- 8.69 -->
     <g transform="translate(91 139.227188)scale(0.1 -0.1)">
      <use xlink:href="#DejaVuSans-38"/>
      <use x="63.623047" xlink:href="#DejaVuSans-2e"/>
      <use x="95.410156" xlink:href="#DejaVuSans-36"/>
      <use x="159.033203" xlink:href="#DejaVuSans-39"/>
     </g>
    </g>
    <g id="line2d_41">
     <path d="M 63 150.405312 
L 83 150.405312 
" style="fill:none;stroke:#7f7f7f;stroke-linecap:square;stroke-width:1.5;"/>
    </g>
    <g id="line2d_42"/>
    <g id="text_25">
     <!-- 9.12 -->
     <g transform="translate(91 153.905312)scale(0.1 -0.1)">
      <use xlink:href="#DejaVuSans-39"/>
      <use x="63.623047" xlink:href="#DejaVuSans-2e"/>
      <use x="95.410156" xlink:href="#DejaVuSans-31"/>
      <use x="159.033203" xlink:href="#DejaVuSans-32"/>
     </g>
    </g>
    <g id="line2d_43">
     <path d="M 63 165.083438 
L 83 165.083438 
" style="fill:none;stroke:#bcbd22;stroke-linecap:square;stroke-width:1.5;"/>
    </g>
    <g id="line2d_44"/>
    <g id="text_26">
     <!-- 9.55 -->
     <g transform="translate(91 168.583438)scale(0.1 -0.1)">
      <use xlink:href="#DejaVuSans-39"/>
      <use x="63.623047" xlink:href="#DejaVuSans-2e"/>
      <use x="95.410156" xlink:href="#DejaVuSans-35"/>
      <use x="159.033203" xlink:href="#DejaVuSans-35"/>
     </g>
    </g>
    <g id="line2d_45">
     <path d="M 63 179.761562 
L 83 179.761562 
" style="fill:none;stroke:#17becf;stroke-linecap:square;stroke-width:1.5;"/>
    </g>
    <g id="line2d_46"/>
    <g id="text_27">
     <!-- 9.99 -->
     <g transform="translate(91 183.261562)scale(0.1 -0.1)">
      <use xlink:href="#DejaVuSans-39"/>
      <use x="63.623047" xlink:href="#DejaVuSans-2e"/>
      <use x="95.410156" xlink:href="#DejaVuSans-39"/>
      <use x="159.033203" xlink:href="#DejaVuSans-39"/>
     </g>
    </g>
    <g id="line2d_47">
     <path d="M 63 194.439687 
L 83 194.439687 
" style="fill:none;stroke:#1f77b4;stroke-linecap:square;stroke-width:1.5;"/>
    </g>
    <g id="line2d_48"/>
    <g id="text_28">
     <!-- 10.42 -->
     <g transform="translate(91 197.939687)scale(0.1 -0.1)">
      <use xlink:href="#DejaVuSans-31"/>
      <use x="63.623047" xlink:href="#DejaVuSans-30"/>
      <use x="127.246094" xlink:href="#DejaVuSans-2e"/>
      <use x="159.033203" xlink:href="#DejaVuSans-34"/>
      <use x="222.65625" xlink:href="#DejaVuSans-32"/>
     </g>
    </g>
   </g>
  </g>
 </g>
 <defs>
  <clipPath id="pd404d84d43">
   <rect height="217.44" width="334.8" x="54" y="34.56"/>
  </clipPath>
 </defs>
</svg>
