<?xml version="1.0" encoding="utf-8" standalone="no"?>
<!DOCTYPE svg PUBLIC "-//W3C//DTD SVG 1.1//EN"
  "http://www.w3.org/Graphics/SVG/1.1/DTD/svg11.dtd">
<!-- Created with matplotlib (http://matplotlib.org/) -->
<svg height="432pt" version="1.1" viewBox="0 0 432 432" width="432pt" xmlns="http://www.w3.org/2000/svg" xmlns:xlink="http://www.w3.org/1999/xlink">
 <defs>
  <style type="text/css">
*{stroke-linecap:butt;stroke-linejoin:round;}
  </style>
 </defs>
 <g id="figure_1">
  <g id="patch_1">
   <path d="M 0 432 
L 432 432 
L 432 0 
L 0 0 
z
" style="fill:#ffffff;"/>
  </g>
  <g id="axes_1">
   <g id="patch_2">
    <path d="M 51.293 390.332 
L 352.056664 390.332 
L 352.056664 81.023333 
L 51.293 81.023333 
z
" style="fill:#ffffff;"/>
   </g>
   <g id="matplotlib.axis_1">
    <g id="xtick_1">
     <g id="line2d_1">
      <defs>
       <path d="M 0 0 
L 0 4.8 
" id="m4e68b63306" style="stroke:#262626;"/>
      </defs>
      <g>
       <use style="fill:#262626;stroke:#262626;" x="55.570739" xlink:href="#m4e68b63306" y="390.332"/>
      </g>
     </g>
     <g id="text_1">
      <!-- 10.5 -->
      <defs>
       <path d="M 12.40625 8.296875 
L 28.515625 8.296875 
L 28.515625 63.921875 
L 10.984375 60.40625 
L 10.984375 69.390625 
L 28.421875 72.90625 
L 38.28125 72.90625 
L 38.28125 8.296875 
L 54.390625 8.296875 
L 54.390625 0 
L 12.40625 0 
z
" id="DejaVuSans-31"/>
       <path d="M 31.78125 66.40625 
Q 24.171875 66.40625 20.328125 58.90625 
Q 16.5 51.421875 16.5 36.375 
Q 16.5 21.390625 20.328125 13.890625 
Q 24.171875 6.390625 31.78125 6.390625 
Q 39.453125 6.390625 43.28125 13.890625 
Q 47.125 21.390625 47.125 36.375 
Q 47.125 51.421875 43.28125 58.90625 
Q 39.453125 66.40625 31.78125 66.40625 
z
M 31.78125 74.21875 
Q 44.046875 74.21875 50.515625 64.515625 
Q 56.984375 54.828125 56.984375 36.375 
Q 56.984375 17.96875 50.515625 8.265625 
Q 44.046875 -1.421875 31.78125 -1.421875 
Q 19.53125 -1.421875 13.0625 8.265625 
Q 6.59375 17.96875 6.59375 36.375 
Q 6.59375 54.828125 13.0625 64.515625 
Q 19.53125 74.21875 31.78125 74.21875 
z
" id="DejaVuSans-30"/>
       <path d="M 10.6875 12.40625 
L 21 12.40625 
L 21 0 
L 10.6875 0 
z
" id="DejaVuSans-2e"/>
       <path d="M 10.796875 72.90625 
L 49.515625 72.90625 
L 49.515625 64.59375 
L 19.828125 64.59375 
L 19.828125 46.734375 
Q 21.96875 47.46875 24.109375 47.828125 
Q 26.265625 48.1875 28.421875 48.1875 
Q 40.625 48.1875 47.75 41.5 
Q 54.890625 34.8125 54.890625 23.390625 
Q 54.890625 11.625 47.5625 5.09375 
Q 40.234375 -1.421875 26.90625 -1.421875 
Q 22.3125 -1.421875 17.546875 -0.640625 
Q 12.796875 0.140625 7.71875 1.703125 
L 7.71875 11.625 
Q 12.109375 9.234375 16.796875 8.0625 
Q 21.484375 6.890625 26.703125 6.890625 
Q 35.15625 6.890625 40.078125 11.328125 
Q 45.015625 15.765625 45.015625 23.390625 
Q 45.015625 31 40.078125 35.4375 
Q 35.15625 39.890625 26.703125 39.890625 
Q 22.75 39.890625 18.8125 39.015625 
Q 14.890625 38.140625 10.796875 36.28125 
z
" id="DejaVuSans-35"/>
      </defs>
      <g style="fill:#262626;" transform="translate(45.773864 405.318625)scale(0.088 -0.088)">
       <use xlink:href="#DejaVuSans-31"/>
       <use x="63.623047" xlink:href="#DejaVuSans-30"/>
       <use x="127.246094" xlink:href="#DejaVuSans-2e"/>
       <use x="159.033203" xlink:href="#DejaVuSans-35"/>
      </g>
     </g>
    </g>
    <g id="xtick_2">
     <g id="line2d_2">
      <g>
       <use style="fill:#262626;stroke:#262626;" x="114.538549" xlink:href="#m4e68b63306" y="390.332"/>
      </g>
     </g>
     <g id="text_2">
      <!-- 10.6 -->
      <defs>
       <path d="M 33.015625 40.375 
Q 26.375 40.375 22.484375 35.828125 
Q 18.609375 31.296875 18.609375 23.390625 
Q 18.609375 15.53125 22.484375 10.953125 
Q 26.375 6.390625 33.015625 6.390625 
Q 39.65625 6.390625 43.53125 10.953125 
Q 47.40625 15.53125 47.40625 23.390625 
Q 47.40625 31.296875 43.53125 35.828125 
Q 39.65625 40.375 33.015625 40.375 
z
M 52.59375 71.296875 
L 52.59375 62.3125 
Q 48.875 64.0625 45.09375 64.984375 
Q 41.3125 65.921875 37.59375 65.921875 
Q 27.828125 65.921875 22.671875 59.328125 
Q 17.53125 52.734375 16.796875 39.40625 
Q 19.671875 43.65625 24.015625 45.921875 
Q 28.375 48.1875 33.59375 48.1875 
Q 44.578125 48.1875 50.953125 41.515625 
Q 57.328125 34.859375 57.328125 23.390625 
Q 57.328125 12.15625 50.6875 5.359375 
Q 44.046875 -1.421875 33.015625 -1.421875 
Q 20.359375 -1.421875 13.671875 8.265625 
Q 6.984375 17.96875 6.984375 36.375 
Q 6.984375 53.65625 15.1875 63.9375 
Q 23.390625 74.21875 37.203125 74.21875 
Q 40.921875 74.21875 44.703125 73.484375 
Q 48.484375 72.75 52.59375 71.296875 
z
" id="DejaVuSans-36"/>
      </defs>
      <g style="fill:#262626;" transform="translate(104.741674 405.318625)scale(0.088 -0.088)">
       <use xlink:href="#DejaVuSans-31"/>
       <use x="63.623047" xlink:href="#DejaVuSans-30"/>
       <use x="127.246094" xlink:href="#DejaVuSans-2e"/>
       <use x="159.033203" xlink:href="#DejaVuSans-36"/>
      </g>
     </g>
    </g>
    <g id="xtick_3">
     <g id="line2d_3">
      <g>
       <use style="fill:#262626;stroke:#262626;" x="173.50636" xlink:href="#m4e68b63306" y="390.332"/>
      </g>
     </g>
     <g id="text_3">
      <!-- 10.7 -->
      <defs>
       <path d="M 8.203125 72.90625 
L 55.078125 72.90625 
L 55.078125 68.703125 
L 28.609375 0 
L 18.3125 0 
L 43.21875 64.59375 
L 8.203125 64.59375 
z
" id="DejaVuSans-37"/>
      </defs>
      <g style="fill:#262626;" transform="translate(163.709485 405.318625)scale(0.088 -0.088)">
       <use xlink:href="#DejaVuSans-31"/>
       <use x="63.623047" xlink:href="#DejaVuSans-30"/>
       <use x="127.246094" xlink:href="#DejaVuSans-2e"/>
       <use x="159.033203" xlink:href="#DejaVuSans-37"/>
      </g>
     </g>
    </g>
    <g id="xtick_4">
     <g id="line2d_4">
      <g>
       <use style="fill:#262626;stroke:#262626;" x="232.47417" xlink:href="#m4e68b63306" y="390.332"/>
      </g>
     </g>
     <g id="text_4">
      <!-- 10.8 -->
      <defs>
       <path d="M 31.78125 34.625 
Q 24.75 34.625 20.71875 30.859375 
Q 16.703125 27.09375 16.703125 20.515625 
Q 16.703125 13.921875 20.71875 10.15625 
Q 24.75 6.390625 31.78125 6.390625 
Q 38.8125 6.390625 42.859375 10.171875 
Q 46.921875 13.96875 46.921875 20.515625 
Q 46.921875 27.09375 42.890625 30.859375 
Q 38.875 34.625 31.78125 34.625 
z
M 21.921875 38.8125 
Q 15.578125 40.375 12.03125 44.71875 
Q 8.5 49.078125 8.5 55.328125 
Q 8.5 64.0625 14.71875 69.140625 
Q 20.953125 74.21875 31.78125 74.21875 
Q 42.671875 74.21875 48.875 69.140625 
Q 55.078125 64.0625 55.078125 55.328125 
Q 55.078125 49.078125 51.53125 44.71875 
Q 48 40.375 41.703125 38.8125 
Q 48.828125 37.15625 52.796875 32.3125 
Q 56.78125 27.484375 56.78125 20.515625 
Q 56.78125 9.90625 50.3125 4.234375 
Q 43.84375 -1.421875 31.78125 -1.421875 
Q 19.734375 -1.421875 13.25 4.234375 
Q 6.78125 9.90625 6.78125 20.515625 
Q 6.78125 27.484375 10.78125 32.3125 
Q 14.796875 37.15625 21.921875 38.8125 
z
M 18.3125 54.390625 
Q 18.3125 48.734375 21.84375 45.5625 
Q 25.390625 42.390625 31.78125 42.390625 
Q 38.140625 42.390625 41.71875 45.5625 
Q 45.3125 48.734375 45.3125 54.390625 
Q 45.3125 60.0625 41.71875 63.234375 
Q 38.140625 66.40625 31.78125 66.40625 
Q 25.390625 66.40625 21.84375 63.234375 
Q 18.3125 60.0625 18.3125 54.390625 
z
" id="DejaVuSans-38"/>
      </defs>
      <g style="fill:#262626;" transform="translate(222.677295 405.318625)scale(0.088 -0.088)">
       <use xlink:href="#DejaVuSans-31"/>
       <use x="63.623047" xlink:href="#DejaVuSans-30"/>
       <use x="127.246094" xlink:href="#DejaVuSans-2e"/>
       <use x="159.033203" xlink:href="#DejaVuSans-38"/>
      </g>
     </g>
    </g>
    <g id="xtick_5">
     <g id="line2d_5">
      <g>
       <use style="fill:#262626;stroke:#262626;" x="291.44198" xlink:href="#m4e68b63306" y="390.332"/>
      </g>
     </g>
     <g id="text_5">
      <!-- 10.9 -->
      <defs>
       <path d="M 10.984375 1.515625 
L 10.984375 10.5 
Q 14.703125 8.734375 18.5 7.8125 
Q 22.3125 6.890625 25.984375 6.890625 
Q 35.75 6.890625 40.890625 13.453125 
Q 46.046875 20.015625 46.78125 33.40625 
Q 43.953125 29.203125 39.59375 26.953125 
Q 35.25 24.703125 29.984375 24.703125 
Q 19.046875 24.703125 12.671875 31.3125 
Q 6.296875 37.9375 6.296875 49.421875 
Q 6.296875 60.640625 12.9375 67.421875 
Q 19.578125 74.21875 30.609375 74.21875 
Q 43.265625 74.21875 49.921875 64.515625 
Q 56.59375 54.828125 56.59375 36.375 
Q 56.59375 19.140625 48.40625 8.859375 
Q 40.234375 -1.421875 26.421875 -1.421875 
Q 22.703125 -1.421875 18.890625 -0.6875 
Q 15.09375 0.046875 10.984375 1.515625 
z
M 30.609375 32.421875 
Q 37.25 32.421875 41.125 36.953125 
Q 45.015625 41.5 45.015625 49.421875 
Q 45.015625 57.28125 41.125 61.84375 
Q 37.25 66.40625 30.609375 66.40625 
Q 23.96875 66.40625 20.09375 61.84375 
Q 16.21875 57.28125 16.21875 49.421875 
Q 16.21875 41.5 20.09375 36.953125 
Q 23.96875 32.421875 30.609375 32.421875 
z
" id="DejaVuSans-39"/>
      </defs>
      <g style="fill:#262626;" transform="translate(281.645105 405.318625)scale(0.088 -0.088)">
       <use xlink:href="#DejaVuSans-31"/>
       <use x="63.623047" xlink:href="#DejaVuSans-30"/>
       <use x="127.246094" xlink:href="#DejaVuSans-2e"/>
       <use x="159.033203" xlink:href="#DejaVuSans-39"/>
      </g>
     </g>
    </g>
    <g id="xtick_6">
     <g id="line2d_6">
      <g>
       <use style="fill:#262626;stroke:#262626;" x="350.409791" xlink:href="#m4e68b63306" y="390.332"/>
      </g>
     </g>
     <g id="text_6">
      <!-- 11.0 -->
      <g style="fill:#262626;" transform="translate(340.612916 405.318625)scale(0.088 -0.088)">
       <use xlink:href="#DejaVuSans-31"/>
       <use x="63.623047" xlink:href="#DejaVuSans-31"/>
       <use x="127.246094" xlink:href="#DejaVuSans-2e"/>
       <use x="159.033203" xlink:href="#DejaVuSans-30"/>
      </g>
     </g>
    </g>
    <g id="text_7">
     <!-- log(n) -->
     <defs>
      <path d="M 9.421875 75.984375 
L 18.40625 75.984375 
L 18.40625 0 
L 9.421875 0 
z
" id="DejaVuSans-6c"/>
      <path d="M 30.609375 48.390625 
Q 23.390625 48.390625 19.1875 42.75 
Q 14.984375 37.109375 14.984375 27.296875 
Q 14.984375 17.484375 19.15625 11.84375 
Q 23.34375 6.203125 30.609375 6.203125 
Q 37.796875 6.203125 41.984375 11.859375 
Q 46.1875 17.53125 46.1875 27.296875 
Q 46.1875 37.015625 41.984375 42.703125 
Q 37.796875 48.390625 30.609375 48.390625 
z
M 30.609375 56 
Q 42.328125 56 49.015625 48.375 
Q 55.71875 40.765625 55.71875 27.296875 
Q 55.71875 13.875 49.015625 6.21875 
Q 42.328125 -1.421875 30.609375 -1.421875 
Q 18.84375 -1.421875 12.171875 6.21875 
Q 5.515625 13.875 5.515625 27.296875 
Q 5.515625 40.765625 12.171875 48.375 
Q 18.84375 56 30.609375 56 
z
" id="DejaVuSans-6f"/>
      <path d="M 45.40625 27.984375 
Q 45.40625 37.75 41.375 43.109375 
Q 37.359375 48.484375 30.078125 48.484375 
Q 22.859375 48.484375 18.828125 43.109375 
Q 14.796875 37.75 14.796875 27.984375 
Q 14.796875 18.265625 18.828125 12.890625 
Q 22.859375 7.515625 30.078125 7.515625 
Q 37.359375 7.515625 41.375 12.890625 
Q 45.40625 18.265625 45.40625 27.984375 
z
M 54.390625 6.78125 
Q 54.390625 -7.171875 48.1875 -13.984375 
Q 42 -20.796875 29.203125 -20.796875 
Q 24.46875 -20.796875 20.265625 -20.09375 
Q 16.0625 -19.390625 12.109375 -17.921875 
L 12.109375 -9.1875 
Q 16.0625 -11.328125 19.921875 -12.34375 
Q 23.78125 -13.375 27.78125 -13.375 
Q 36.625 -13.375 41.015625 -8.765625 
Q 45.40625 -4.15625 45.40625 5.171875 
L 45.40625 9.625 
Q 42.625 4.78125 38.28125 2.390625 
Q 33.9375 0 27.875 0 
Q 17.828125 0 11.671875 7.65625 
Q 5.515625 15.328125 5.515625 27.984375 
Q 5.515625 40.671875 11.671875 48.328125 
Q 17.828125 56 27.875 56 
Q 33.9375 56 38.28125 53.609375 
Q 42.625 51.21875 45.40625 46.390625 
L 45.40625 54.6875 
L 54.390625 54.6875 
z
" id="DejaVuSans-67"/>
      <path d="M 31 75.875 
Q 24.46875 64.65625 21.28125 53.65625 
Q 18.109375 42.671875 18.109375 31.390625 
Q 18.109375 20.125 21.3125 9.0625 
Q 24.515625 -2 31 -13.1875 
L 23.1875 -13.1875 
Q 15.875 -1.703125 12.234375 9.375 
Q 8.59375 20.453125 8.59375 31.390625 
Q 8.59375 42.28125 12.203125 53.3125 
Q 15.828125 64.359375 23.1875 75.875 
z
" id="DejaVuSans-28"/>
      <path d="M 54.890625 33.015625 
L 54.890625 0 
L 45.90625 0 
L 45.90625 32.71875 
Q 45.90625 40.484375 42.875 44.328125 
Q 39.84375 48.1875 33.796875 48.1875 
Q 26.515625 48.1875 22.3125 43.546875 
Q 18.109375 38.921875 18.109375 30.90625 
L 18.109375 0 
L 9.078125 0 
L 9.078125 54.6875 
L 18.109375 54.6875 
L 18.109375 46.1875 
Q 21.34375 51.125 25.703125 53.5625 
Q 30.078125 56 35.796875 56 
Q 45.21875 56 50.046875 50.171875 
Q 54.890625 44.34375 54.890625 33.015625 
z
" id="DejaVuSans-6e"/>
      <path d="M 8.015625 75.875 
L 15.828125 75.875 
Q 23.140625 64.359375 26.78125 53.3125 
Q 30.421875 42.28125 30.421875 31.390625 
Q 30.421875 20.453125 26.78125 9.375 
Q 23.140625 -1.703125 15.828125 -13.1875 
L 8.015625 -13.1875 
Q 14.5 -2 17.703125 9.0625 
Q 20.90625 20.125 20.90625 31.390625 
Q 20.90625 42.671875 17.703125 53.65625 
Q 14.5 64.65625 8.015625 75.875 
z
" id="DejaVuSans-29"/>
     </defs>
     <g style="fill:#262626;" transform="translate(187.569582 418.44325)scale(0.096 -0.096)">
      <use xlink:href="#DejaVuSans-6c"/>
      <use x="27.783203" xlink:href="#DejaVuSans-6f"/>
      <use x="88.964844" xlink:href="#DejaVuSans-67"/>
      <use x="152.441406" xlink:href="#DejaVuSans-28"/>
      <use x="191.455078" xlink:href="#DejaVuSans-6e"/>
      <use x="254.833984" xlink:href="#DejaVuSans-29"/>
     </g>
    </g>
   </g>
   <g id="matplotlib.axis_2">
    <g id="ytick_1">
     <g id="line2d_7">
      <defs>
       <path d="M 0 0 
L -4.8 0 
" id="m0819fe74fe" style="stroke:#262626;"/>
      </defs>
      <g>
       <use style="fill:#262626;stroke:#262626;" x="51.293" xlink:href="#m0819fe74fe" y="389.52355"/>
      </g>
     </g>
     <g id="text_8">
      <!-- −50 -->
      <defs>
       <path d="M 10.59375 35.5 
L 73.1875 35.5 
L 73.1875 27.203125 
L 10.59375 27.203125 
z
" id="DejaVuSans-2212"/>
      </defs>
      <g style="fill:#262626;" transform="translate(24.420875 392.866862)scale(0.088 -0.088)">
       <use xlink:href="#DejaVuSans-2212"/>
       <use x="83.789062" xlink:href="#DejaVuSans-35"/>
       <use x="147.412109" xlink:href="#DejaVuSans-30"/>
      </g>
     </g>
    </g>
    <g id="ytick_2">
     <g id="line2d_8">
      <g>
       <use style="fill:#262626;stroke:#262626;" x="51.293" xlink:href="#m0819fe74fe" y="336.123122"/>
      </g>
     </g>
     <g id="text_9">
      <!-- 0 -->
      <g style="fill:#262626;" transform="translate(37.394 339.466434)scale(0.088 -0.088)">
       <use xlink:href="#DejaVuSans-30"/>
      </g>
     </g>
    </g>
    <g id="ytick_3">
     <g id="line2d_9">
      <g>
       <use style="fill:#262626;stroke:#262626;" x="51.293" xlink:href="#m0819fe74fe" y="282.722694"/>
      </g>
     </g>
     <g id="text_10">
      <!-- 50 -->
      <g style="fill:#262626;" transform="translate(31.795 286.066007)scale(0.088 -0.088)">
       <use xlink:href="#DejaVuSans-35"/>
       <use x="63.623047" xlink:href="#DejaVuSans-30"/>
      </g>
     </g>
    </g>
    <g id="ytick_4">
     <g id="line2d_10">
      <g>
       <use style="fill:#262626;stroke:#262626;" x="51.293" xlink:href="#m0819fe74fe" y="229.322266"/>
      </g>
     </g>
     <g id="text_11">
      <!-- 100 -->
      <g style="fill:#262626;" transform="translate(26.196 232.665579)scale(0.088 -0.088)">
       <use xlink:href="#DejaVuSans-31"/>
       <use x="63.623047" xlink:href="#DejaVuSans-30"/>
       <use x="127.246094" xlink:href="#DejaVuSans-30"/>
      </g>
     </g>
    </g>
    <g id="ytick_5">
     <g id="line2d_11">
      <g>
       <use style="fill:#262626;stroke:#262626;" x="51.293" xlink:href="#m0819fe74fe" y="175.921838"/>
      </g>
     </g>
     <g id="text_12">
      <!-- 150 -->
      <g style="fill:#262626;" transform="translate(26.196 179.265151)scale(0.088 -0.088)">
       <use xlink:href="#DejaVuSans-31"/>
       <use x="63.623047" xlink:href="#DejaVuSans-35"/>
       <use x="127.246094" xlink:href="#DejaVuSans-30"/>
      </g>
     </g>
    </g>
    <g id="ytick_6">
     <g id="line2d_12">
      <g>
       <use style="fill:#262626;stroke:#262626;" x="51.293" xlink:href="#m0819fe74fe" y="122.52141"/>
      </g>
     </g>
     <g id="text_13">
      <!-- 200 -->
      <defs>
       <path d="M 19.1875 8.296875 
L 53.609375 8.296875 
L 53.609375 0 
L 7.328125 0 
L 7.328125 8.296875 
Q 12.9375 14.109375 22.625 23.890625 
Q 32.328125 33.6875 34.8125 36.53125 
Q 39.546875 41.84375 41.421875 45.53125 
Q 43.3125 49.21875 43.3125 52.78125 
Q 43.3125 58.59375 39.234375 62.25 
Q 35.15625 65.921875 28.609375 65.921875 
Q 23.96875 65.921875 18.8125 64.3125 
Q 13.671875 62.703125 7.8125 59.421875 
L 7.8125 69.390625 
Q 13.765625 71.78125 18.9375 73 
Q 24.125 74.21875 28.421875 74.21875 
Q 39.75 74.21875 46.484375 68.546875 
Q 53.21875 62.890625 53.21875 53.421875 
Q 53.21875 48.921875 51.53125 44.890625 
Q 49.859375 40.875 45.40625 35.40625 
Q 44.1875 33.984375 37.640625 27.21875 
Q 31.109375 20.453125 19.1875 8.296875 
z
" id="DejaVuSans-32"/>
      </defs>
      <g style="fill:#262626;" transform="translate(26.196 125.864723)scale(0.088 -0.088)">
       <use xlink:href="#DejaVuSans-32"/>
       <use x="63.623047" xlink:href="#DejaVuSans-30"/>
       <use x="127.246094" xlink:href="#DejaVuSans-30"/>
      </g>
     </g>
    </g>
    <g id="text_14">
     <!-- Time to cancer -->
     <defs>
      <path d="M -0.296875 72.90625 
L 61.375 72.90625 
L 61.375 64.59375 
L 35.5 64.59375 
L 35.5 0 
L 25.59375 0 
L 25.59375 64.59375 
L -0.296875 64.59375 
z
" id="DejaVuSans-54"/>
      <path d="M 9.421875 54.6875 
L 18.40625 54.6875 
L 18.40625 0 
L 9.421875 0 
z
M 9.421875 75.984375 
L 18.40625 75.984375 
L 18.40625 64.59375 
L 9.421875 64.59375 
z
" id="DejaVuSans-69"/>
      <path d="M 52 44.1875 
Q 55.375 50.25 60.0625 53.125 
Q 64.75 56 71.09375 56 
Q 79.640625 56 84.28125 50.015625 
Q 88.921875 44.046875 88.921875 33.015625 
L 88.921875 0 
L 79.890625 0 
L 79.890625 32.71875 
Q 79.890625 40.578125 77.09375 44.375 
Q 74.3125 48.1875 68.609375 48.1875 
Q 61.625 48.1875 57.5625 43.546875 
Q 53.515625 38.921875 53.515625 30.90625 
L 53.515625 0 
L 44.484375 0 
L 44.484375 32.71875 
Q 44.484375 40.625 41.703125 44.40625 
Q 38.921875 48.1875 33.109375 48.1875 
Q 26.21875 48.1875 22.15625 43.53125 
Q 18.109375 38.875 18.109375 30.90625 
L 18.109375 0 
L 9.078125 0 
L 9.078125 54.6875 
L 18.109375 54.6875 
L 18.109375 46.1875 
Q 21.1875 51.21875 25.484375 53.609375 
Q 29.78125 56 35.6875 56 
Q 41.65625 56 45.828125 52.96875 
Q 50 49.953125 52 44.1875 
z
" id="DejaVuSans-6d"/>
      <path d="M 56.203125 29.59375 
L 56.203125 25.203125 
L 14.890625 25.203125 
Q 15.484375 15.921875 20.484375 11.0625 
Q 25.484375 6.203125 34.421875 6.203125 
Q 39.59375 6.203125 44.453125 7.46875 
Q 49.3125 8.734375 54.109375 11.28125 
L 54.109375 2.78125 
Q 49.265625 0.734375 44.1875 -0.34375 
Q 39.109375 -1.421875 33.890625 -1.421875 
Q 20.796875 -1.421875 13.15625 6.1875 
Q 5.515625 13.8125 5.515625 26.8125 
Q 5.515625 40.234375 12.765625 48.109375 
Q 20.015625 56 32.328125 56 
Q 43.359375 56 49.78125 48.890625 
Q 56.203125 41.796875 56.203125 29.59375 
z
M 47.21875 32.234375 
Q 47.125 39.59375 43.09375 43.984375 
Q 39.0625 48.390625 32.421875 48.390625 
Q 24.90625 48.390625 20.390625 44.140625 
Q 15.875 39.890625 15.1875 32.171875 
z
" id="DejaVuSans-65"/>
      <path id="DejaVuSans-20"/>
      <path d="M 18.3125 70.21875 
L 18.3125 54.6875 
L 36.8125 54.6875 
L 36.8125 47.703125 
L 18.3125 47.703125 
L 18.3125 18.015625 
Q 18.3125 11.328125 20.140625 9.421875 
Q 21.96875 7.515625 27.59375 7.515625 
L 36.8125 7.515625 
L 36.8125 0 
L 27.59375 0 
Q 17.1875 0 13.234375 3.875 
Q 9.28125 7.765625 9.28125 18.015625 
L 9.28125 47.703125 
L 2.6875 47.703125 
L 2.6875 54.6875 
L 9.28125 54.6875 
L 9.28125 70.21875 
z
" id="DejaVuSans-74"/>
      <path d="M 48.78125 52.59375 
L 48.78125 44.1875 
Q 44.96875 46.296875 41.140625 47.34375 
Q 37.3125 48.390625 33.40625 48.390625 
Q 24.65625 48.390625 19.8125 42.84375 
Q 14.984375 37.3125 14.984375 27.296875 
Q 14.984375 17.28125 19.8125 11.734375 
Q 24.65625 6.203125 33.40625 6.203125 
Q 37.3125 6.203125 41.140625 7.25 
Q 44.96875 8.296875 48.78125 10.40625 
L 48.78125 2.09375 
Q 45.015625 0.34375 40.984375 -0.53125 
Q 36.96875 -1.421875 32.421875 -1.421875 
Q 20.0625 -1.421875 12.78125 6.34375 
Q 5.515625 14.109375 5.515625 27.296875 
Q 5.515625 40.671875 12.859375 48.328125 
Q 20.21875 56 33.015625 56 
Q 37.15625 56 41.109375 55.140625 
Q 45.0625 54.296875 48.78125 52.59375 
z
" id="DejaVuSans-63"/>
      <path d="M 34.28125 27.484375 
Q 23.390625 27.484375 19.1875 25 
Q 14.984375 22.515625 14.984375 16.5 
Q 14.984375 11.71875 18.140625 8.90625 
Q 21.296875 6.109375 26.703125 6.109375 
Q 34.1875 6.109375 38.703125 11.40625 
Q 43.21875 16.703125 43.21875 25.484375 
L 43.21875 27.484375 
z
M 52.203125 31.203125 
L 52.203125 0 
L 43.21875 0 
L 43.21875 8.296875 
Q 40.140625 3.328125 35.546875 0.953125 
Q 30.953125 -1.421875 24.3125 -1.421875 
Q 15.921875 -1.421875 10.953125 3.296875 
Q 6 8.015625 6 15.921875 
Q 6 25.140625 12.171875 29.828125 
Q 18.359375 34.515625 30.609375 34.515625 
L 43.21875 34.515625 
L 43.21875 35.40625 
Q 43.21875 41.609375 39.140625 45 
Q 35.0625 48.390625 27.6875 48.390625 
Q 23 48.390625 18.546875 47.265625 
Q 14.109375 46.140625 10.015625 43.890625 
L 10.015625 52.203125 
Q 14.9375 54.109375 19.578125 55.046875 
Q 24.21875 56 28.609375 56 
Q 40.484375 56 46.34375 49.84375 
Q 52.203125 43.703125 52.203125 31.203125 
z
" id="DejaVuSans-61"/>
      <path d="M 41.109375 46.296875 
Q 39.59375 47.171875 37.8125 47.578125 
Q 36.03125 48 33.890625 48 
Q 26.265625 48 22.1875 43.046875 
Q 18.109375 38.09375 18.109375 28.8125 
L 18.109375 0 
L 9.078125 0 
L 9.078125 54.6875 
L 18.109375 54.6875 
L 18.109375 46.1875 
Q 20.953125 51.171875 25.484375 53.578125 
Q 30.03125 56 36.53125 56 
Q 37.453125 56 38.578125 55.875 
Q 39.703125 55.765625 41.0625 55.515625 
z
" id="DejaVuSans-72"/>
     </defs>
     <g style="fill:#262626;" transform="translate(18.424375 271.628167)rotate(-90)scale(0.096 -0.096)">
      <use xlink:href="#DejaVuSans-54"/>
      <use x="61.037109" xlink:href="#DejaVuSans-69"/>
      <use x="88.820312" xlink:href="#DejaVuSans-6d"/>
      <use x="186.232422" xlink:href="#DejaVuSans-65"/>
      <use x="247.755859" xlink:href="#DejaVuSans-20"/>
      <use x="279.542969" xlink:href="#DejaVuSans-74"/>
      <use x="318.751953" xlink:href="#DejaVuSans-6f"/>
      <use x="379.933594" xlink:href="#DejaVuSans-20"/>
      <use x="411.720703" xlink:href="#DejaVuSans-63"/>
      <use x="466.701172" xlink:href="#DejaVuSans-61"/>
      <use x="527.980469" xlink:href="#DejaVuSans-6e"/>
      <use x="591.359375" xlink:href="#DejaVuSans-63"/>
      <use x="646.339844" xlink:href="#DejaVuSans-65"/>
      <use x="707.863281" xlink:href="#DejaVuSans-72"/>
     </g>
    </g>
   </g>
   <g id="PathCollection_1">
    <defs>
     <path d="M 0 2.4 
C 0.636487 2.4 1.246992 2.147121 1.697056 1.697056 
C 2.147121 1.246992 2.4 0.636487 2.4 0 
C 2.4 -0.636487 2.147121 -1.246992 1.697056 -1.697056 
C 1.246992 -2.147121 0.636487 -2.4 0 -2.4 
C -0.636487 -2.4 -1.246992 -2.147121 -1.697056 -1.697056 
C -2.147121 -1.246992 -2.4 -0.636487 -2.4 0 
C -2.4 0.636487 -2.147121 1.246992 -1.697056 1.697056 
C -1.246992 2.147121 -0.636487 2.4 0 2.4 
z
" id="m6faa09983c" style="stroke:#471365;stroke-opacity:0.8;"/>
    </defs>
    <g clip-path="url(#p56aac65493)">
     <use style="fill:#471365;fill-opacity:0.8;stroke:#471365;stroke-opacity:0.8;" x="202.86696" xlink:href="#m6faa09983c" y="236.903664"/>
     <use style="fill:#471365;fill-opacity:0.8;stroke:#471365;stroke-opacity:0.8;" x="249.23352" xlink:href="#m6faa09983c" y="233.155393"/>
     <use style="fill:#471365;fill-opacity:0.8;stroke:#471365;stroke-opacity:0.8;" x="195.691327" xlink:href="#m6faa09983c" y="229.524164"/>
     <use style="fill:#471365;fill-opacity:0.8;stroke:#471365;stroke-opacity:0.8;" x="154.116144" xlink:href="#m6faa09983c" y="233.6616"/>
    </g>
   </g>
   <g id="PolyCollection_1">
    <defs>
     <path d="M 64.964076 -336.917182 
L 64.964076 -183.948272 
L 67.725909 -184.171538 
L 70.487743 -184.394805 
L 73.249576 -184.618071 
L 76.01141 -184.841338 
L 78.773243 -185.064604 
L 81.535076 -185.287871 
L 84.29691 -185.511137 
L 87.058743 -185.734404 
L 89.820577 -185.95767 
L 92.58241 -186.180937 
L 95.344244 -186.404203 
L 98.106077 -186.62747 
L 100.867911 -186.850736 
L 103.629744 -187.074003 
L 106.391578 -187.29727 
L 109.153411 -187.520536 
L 111.915245 -187.743803 
L 114.677078 -187.967069 
L 117.438911 -188.190336 
L 120.200745 -188.413602 
L 122.962578 -188.636869 
L 125.724412 -188.860135 
L 128.486245 -189.083402 
L 131.248079 -189.306668 
L 134.009912 -189.529935 
L 136.771746 -189.753201 
L 139.533579 -189.976468 
L 142.295413 -190.199734 
L 145.057246 -190.423001 
L 147.81908 -190.646267 
L 150.580913 -190.869534 
L 153.342747 -191.0928 
L 156.10458 -191.316067 
L 158.866413 -191.539333 
L 161.628247 -191.7626 
L 164.39008 -191.985866 
L 167.151914 -192.209133 
L 169.913747 -192.4324 
L 172.675581 -192.655666 
L 175.437414 -192.878933 
L 178.199248 -193.102199 
L 180.961081 -193.325466 
L 183.722915 -193.548732 
L 186.484748 -193.771999 
L 189.246582 -193.995265 
L 192.008415 -194.218532 
L 194.770248 -194.441798 
L 197.532082 -194.665065 
L 200.293915 -194.888331 
L 203.055749 -194.902183 
L 205.817582 -192.061883 
L 208.579416 -189.221583 
L 211.341249 -186.381283 
L 214.103083 -183.540983 
L 216.864916 -180.700684 
L 219.62675 -177.860384 
L 222.388583 -175.020084 
L 225.150417 -172.179784 
L 227.91225 -169.339484 
L 230.674084 -166.499184 
L 233.435917 -163.658884 
L 236.19775 -160.818584 
L 238.959584 -157.978284 
L 241.721417 -155.137984 
L 244.483251 -152.297684 
L 247.245084 -149.457384 
L 250.006918 -146.617084 
L 252.768751 -143.776784 
L 255.530585 -140.936484 
L 258.292418 -138.096184 
L 261.054252 -135.255884 
L 263.816085 -132.415584 
L 266.577919 -129.575284 
L 269.339752 -126.734984 
L 272.101586 -123.894684 
L 274.863419 -121.054384 
L 277.625252 -118.214084 
L 280.387086 -115.373784 
L 283.148919 -112.533484 
L 285.910753 -109.693184 
L 288.672586 -106.852884 
L 291.43442 -104.012584 
L 294.196253 -101.172284 
L 296.958087 -98.331984 
L 299.71992 -95.491684 
L 302.481754 -92.651384 
L 305.243587 -89.811084 
L 308.005421 -86.970785 
L 310.767254 -84.130485 
L 313.529087 -81.290185 
L 316.290921 -78.449885 
L 319.052754 -75.609585 
L 321.814588 -72.769285 
L 324.576421 -69.928985 
L 327.338255 -67.088685 
L 330.100088 -64.248385 
L 332.861922 -61.408085 
L 335.623755 -58.567785 
L 338.385589 -55.727485 
L 338.385589 -216.676336 
L 338.385589 -216.676336 
L 335.623755 -216.401487 
L 332.861922 -216.126637 
L 330.100088 -215.851788 
L 327.338255 -215.576939 
L 324.576421 -215.30209 
L 321.814588 -215.02724 
L 319.052754 -214.752391 
L 316.290921 -214.477542 
L 313.529087 -214.202692 
L 310.767254 -213.927843 
L 308.005421 -213.652994 
L 305.243587 -213.378145 
L 302.481754 -213.103295 
L 299.71992 -212.828446 
L 296.958087 -212.553597 
L 294.196253 -212.278748 
L 291.43442 -212.003898 
L 288.672586 -211.729049 
L 285.910753 -211.4542 
L 283.148919 -211.17935 
L 280.387086 -210.904501 
L 277.625252 -210.629652 
L 274.863419 -210.354803 
L 272.101586 -210.079953 
L 269.339752 -209.805104 
L 266.577919 -209.530255 
L 263.816085 -209.255405 
L 261.054252 -208.980556 
L 258.292418 -208.705707 
L 255.530585 -208.430858 
L 252.768751 -208.156008 
L 250.006918 -207.881159 
L 247.245084 -207.60631 
L 244.483251 -207.33146 
L 241.721417 -207.056611 
L 238.959584 -206.781762 
L 236.19775 -206.506913 
L 233.435917 -206.232063 
L 230.674084 -205.957214 
L 227.91225 -205.682365 
L 225.150417 -205.407516 
L 222.388583 -205.132666 
L 219.62675 -204.857817 
L 216.864916 -204.582968 
L 214.103083 -204.308118 
L 211.341249 -204.033269 
L 208.579416 -203.75842 
L 205.817582 -203.483571 
L 203.055749 -203.208721 
L 200.293915 -202.933872 
L 197.532082 -202.659023 
L 194.770248 -203.423083 
L 192.008415 -206.263383 
L 189.246582 -209.103683 
L 186.484748 -211.943983 
L 183.722915 -214.784283 
L 180.961081 -217.624583 
L 178.199248 -220.464883 
L 175.437414 -223.305183 
L 172.675581 -226.145483 
L 169.913747 -228.985783 
L 167.151914 -231.826083 
L 164.39008 -234.666383 
L 161.628247 -237.506683 
L 158.866413 -240.346983 
L 156.10458 -243.187283 
L 153.342747 -246.027583 
L 150.580913 -248.867883 
L 147.81908 -251.708183 
L 145.057246 -254.548483 
L 142.295413 -257.388783 
L 139.533579 -260.229083 
L 136.771746 -263.069383 
L 134.009912 -265.909683 
L 131.248079 -268.749983 
L 128.486245 -271.590283 
L 125.724412 -274.430582 
L 122.962578 -277.270882 
L 120.200745 -280.111182 
L 117.438911 -282.951482 
L 114.677078 -285.791782 
L 111.915245 -288.632082 
L 109.153411 -291.472382 
L 106.391578 -294.312682 
L 103.629744 -297.152982 
L 100.867911 -299.993282 
L 98.106077 -302.833582 
L 95.344244 -305.673882 
L 92.58241 -308.514182 
L 89.820577 -311.354482 
L 87.058743 -314.194782 
L 84.29691 -317.035082 
L 81.535076 -319.875382 
L 78.773243 -322.715682 
L 76.01141 -325.555982 
L 73.249576 -328.396282 
L 70.487743 -331.236582 
L 67.725909 -334.076882 
L 64.964076 -336.917182 
z
" id="m827aa7438b" style="stroke:#ffffff;stroke-opacity:0.15;stroke-width:0.8;"/>
    </defs>
    <g clip-path="url(#p56aac65493)">
     <use style="fill:#471365;fill-opacity:0.15;stroke:#ffffff;stroke-opacity:0.15;stroke-width:0.8;" x="0" xlink:href="#m827aa7438b" y="432"/>
    </g>
   </g>
   <g id="line2d_13">
    <path clip-path="url(#p56aac65493)" d="M 64.964076 233.225886 
L 67.725909 233.227625 
L 70.487743 233.229364 
L 73.249576 233.231102 
L 76.01141 233.232841 
L 78.773243 233.23458 
L 81.535076 233.236319 
L 84.29691 233.238058 
L 87.058743 233.239797 
L 89.820577 233.241536 
L 92.58241 233.243274 
L 95.344244 233.245013 
L 98.106077 233.246752 
L 100.867911 233.248491 
L 103.629744 233.25023 
L 106.391578 233.251969 
L 109.153411 233.253708 
L 111.915245 233.255446 
L 114.677078 233.257185 
L 117.438911 233.258924 
L 120.200745 233.260663 
L 122.962578 233.262402 
L 125.724412 233.264141 
L 128.486245 233.26588 
L 131.248079 233.267618 
L 134.009912 233.269357 
L 136.771746 233.271096 
L 139.533579 233.272835 
L 142.295413 233.274574 
L 145.057246 233.276313 
L 147.81908 233.278052 
L 150.580913 233.27979 
L 153.342747 233.281529 
L 156.10458 233.283268 
L 158.866413 233.285007 
L 161.628247 233.286746 
L 164.39008 233.288485 
L 167.151914 233.290223 
L 169.913747 233.291962 
L 172.675581 233.293701 
L 175.437414 233.29544 
L 178.199248 233.297179 
L 180.961081 233.298918 
L 183.722915 233.300657 
L 186.484748 233.302395 
L 189.246582 233.304134 
L 192.008415 233.305873 
L 194.770248 233.307612 
L 197.532082 233.309351 
L 200.293915 233.31109 
L 203.055749 233.312829 
L 205.817582 233.314567 
L 208.579416 233.316306 
L 211.341249 233.318045 
L 214.103083 233.319784 
L 216.864916 233.321523 
L 219.62675 233.323262 
L 222.388583 233.325001 
L 225.150417 233.326739 
L 227.91225 233.328478 
L 230.674084 233.330217 
L 233.435917 233.331956 
L 236.19775 233.333695 
L 238.959584 233.335434 
L 241.721417 233.337172 
L 244.483251 233.338911 
L 247.245084 233.34065 
L 250.006918 233.342389 
L 252.768751 233.344128 
L 255.530585 233.345867 
L 258.292418 233.347606 
L 261.054252 233.349344 
L 263.816085 233.351083 
L 266.577919 233.352822 
L 269.339752 233.354561 
L 272.101586 233.3563 
L 274.863419 233.358039 
L 277.625252 233.359778 
L 280.387086 233.361516 
L 283.148919 233.363255 
L 285.910753 233.364994 
L 288.672586 233.366733 
L 291.43442 233.368472 
L 294.196253 233.370211 
L 296.958087 233.37195 
L 299.71992 233.373688 
L 302.481754 233.375427 
L 305.243587 233.377166 
L 308.005421 233.378905 
L 310.767254 233.380644 
L 313.529087 233.382383 
L 316.290921 233.384122 
L 319.052754 233.38586 
L 321.814588 233.387599 
L 324.576421 233.389338 
L 327.338255 233.391077 
L 330.100088 233.392816 
L 332.861922 233.394555 
L 335.623755 233.396293 
L 338.385589 233.398032 
" style="fill:none;stroke:#471365;stroke-linecap:round;stroke-width:1.8;"/>
   </g>
   <g id="patch_3">
    <path d="M 51.293 390.332 
L 51.293 81.023333 
" style="fill:none;stroke:#262626;stroke-linecap:square;stroke-linejoin:miter;"/>
   </g>
   <g id="patch_4">
    <path d="M 51.293 390.332 
L 352.056664 390.332 
" style="fill:none;stroke:#262626;stroke-linecap:square;stroke-linejoin:miter;"/>
   </g>
   <g id="legend_1">
    <g id="patch_5">
     <path d="M 187.718039 100.980083 
L 345.896664 100.980083 
Q 347.656664 100.980083 347.656664 99.220083 
L 347.656664 87.183333 
Q 347.656664 85.423333 345.896664 85.423333 
L 187.718039 85.423333 
Q 185.958039 85.423333 185.958039 87.183333 
L 185.958039 99.220083 
Q 185.958039 100.980083 187.718039 100.980083 
z
" style="fill:#ffffff;opacity:0.8;stroke:#cccccc;stroke-linejoin:miter;stroke-width:0.8;"/>
    </g>
    <g id="line2d_14"/>
    <g id="line2d_15"/>
    <g id="text_15">
     <!-- pearsonr = -0.0081; p = 0.99 -->
     <defs>
      <path d="M 18.109375 8.203125 
L 18.109375 -20.796875 
L 9.078125 -20.796875 
L 9.078125 54.6875 
L 18.109375 54.6875 
L 18.109375 46.390625 
Q 20.953125 51.265625 25.265625 53.625 
Q 29.59375 56 35.59375 56 
Q 45.5625 56 51.78125 48.09375 
Q 58.015625 40.1875 58.015625 27.296875 
Q 58.015625 14.40625 51.78125 6.484375 
Q 45.5625 -1.421875 35.59375 -1.421875 
Q 29.59375 -1.421875 25.265625 0.953125 
Q 20.953125 3.328125 18.109375 8.203125 
z
M 48.6875 27.296875 
Q 48.6875 37.203125 44.609375 42.84375 
Q 40.53125 48.484375 33.40625 48.484375 
Q 26.265625 48.484375 22.1875 42.84375 
Q 18.109375 37.203125 18.109375 27.296875 
Q 18.109375 17.390625 22.1875 11.75 
Q 26.265625 6.109375 33.40625 6.109375 
Q 40.53125 6.109375 44.609375 11.75 
Q 48.6875 17.390625 48.6875 27.296875 
z
" id="DejaVuSans-70"/>
      <path d="M 44.28125 53.078125 
L 44.28125 44.578125 
Q 40.484375 46.53125 36.375 47.5 
Q 32.28125 48.484375 27.875 48.484375 
Q 21.1875 48.484375 17.84375 46.4375 
Q 14.5 44.390625 14.5 40.28125 
Q 14.5 37.15625 16.890625 35.375 
Q 19.28125 33.59375 26.515625 31.984375 
L 29.59375 31.296875 
Q 39.15625 29.25 43.1875 25.515625 
Q 47.21875 21.78125 47.21875 15.09375 
Q 47.21875 7.46875 41.1875 3.015625 
Q 35.15625 -1.421875 24.609375 -1.421875 
Q 20.21875 -1.421875 15.453125 -0.5625 
Q 10.6875 0.296875 5.421875 2 
L 5.421875 11.28125 
Q 10.40625 8.6875 15.234375 7.390625 
Q 20.0625 6.109375 24.8125 6.109375 
Q 31.15625 6.109375 34.5625 8.28125 
Q 37.984375 10.453125 37.984375 14.40625 
Q 37.984375 18.0625 35.515625 20.015625 
Q 33.0625 21.96875 24.703125 23.78125 
L 21.578125 24.515625 
Q 13.234375 26.265625 9.515625 29.90625 
Q 5.8125 33.546875 5.8125 39.890625 
Q 5.8125 47.609375 11.28125 51.796875 
Q 16.75 56 26.8125 56 
Q 31.78125 56 36.171875 55.265625 
Q 40.578125 54.546875 44.28125 53.078125 
z
" id="DejaVuSans-73"/>
      <path d="M 10.59375 45.40625 
L 73.1875 45.40625 
L 73.1875 37.203125 
L 10.59375 37.203125 
z
M 10.59375 25.484375 
L 73.1875 25.484375 
L 73.1875 17.1875 
L 10.59375 17.1875 
z
" id="DejaVuSans-3d"/>
      <path d="M 4.890625 31.390625 
L 31.203125 31.390625 
L 31.203125 23.390625 
L 4.890625 23.390625 
z
" id="DejaVuSans-2d"/>
      <path d="M 11.71875 51.703125 
L 22.015625 51.703125 
L 22.015625 39.3125 
L 11.71875 39.3125 
z
M 11.71875 12.40625 
L 22.015625 12.40625 
L 22.015625 4 
L 14.015625 -11.625 
L 7.71875 -11.625 
L 11.71875 4 
z
" id="DejaVuSans-3b"/>
     </defs>
     <g style="fill:#262626;" transform="translate(214.118039 95.629958)scale(0.088 -0.088)">
      <use xlink:href="#DejaVuSans-70"/>
      <use x="63.476562" xlink:href="#DejaVuSans-65"/>
      <use x="125" xlink:href="#DejaVuSans-61"/>
      <use x="186.279297" xlink:href="#DejaVuSans-72"/>
      <use x="227.392578" xlink:href="#DejaVuSans-73"/>
      <use x="279.492188" xlink:href="#DejaVuSans-6f"/>
      <use x="340.673828" xlink:href="#DejaVuSans-6e"/>
      <use x="404.052734" xlink:href="#DejaVuSans-72"/>
      <use x="445.166016" xlink:href="#DejaVuSans-20"/>
      <use x="476.953125" xlink:href="#DejaVuSans-3d"/>
      <use x="560.742188" xlink:href="#DejaVuSans-20"/>
      <use x="592.529297" xlink:href="#DejaVuSans-2d"/>
      <use x="628.613281" xlink:href="#DejaVuSans-30"/>
      <use x="692.236328" xlink:href="#DejaVuSans-2e"/>
      <use x="724.023438" xlink:href="#DejaVuSans-30"/>
      <use x="787.646484" xlink:href="#DejaVuSans-30"/>
      <use x="851.269531" xlink:href="#DejaVuSans-38"/>
      <use x="914.892578" xlink:href="#DejaVuSans-31"/>
      <use x="978.515625" xlink:href="#DejaVuSans-3b"/>
      <use x="1012.207031" xlink:href="#DejaVuSans-20"/>
      <use x="1043.994141" xlink:href="#DejaVuSans-70"/>
      <use x="1107.470703" xlink:href="#DejaVuSans-20"/>
      <use x="1139.257812" xlink:href="#DejaVuSans-3d"/>
      <use x="1223.046875" xlink:href="#DejaVuSans-20"/>
      <use x="1254.833984" xlink:href="#DejaVuSans-30"/>
      <use x="1318.457031" xlink:href="#DejaVuSans-2e"/>
      <use x="1350.244141" xlink:href="#DejaVuSans-39"/>
      <use x="1413.867188" xlink:href="#DejaVuSans-39"/>
     </g>
    </g>
   </g>
  </g>
  <g id="axes_2">
   <g id="patch_6">
    <path d="M 51.293 61.055333 
L 352.056664 61.055333 
L 352.056664 15.168 
L 51.293 15.168 
z
" style="fill:#ffffff;"/>
   </g>
   <g id="matplotlib.axis_3">
    <g id="xtick_7">
     <g id="line2d_16">
      <g>
       <use style="fill:#262626;stroke:#262626;" x="55.570739" xlink:href="#m4e68b63306" y="61.055333"/>
      </g>
     </g>
    </g>
    <g id="xtick_8">
     <g id="line2d_17">
      <g>
       <use style="fill:#262626;stroke:#262626;" x="114.538549" xlink:href="#m4e68b63306" y="61.055333"/>
      </g>
     </g>
    </g>
    <g id="xtick_9">
     <g id="line2d_18">
      <g>
       <use style="fill:#262626;stroke:#262626;" x="173.50636" xlink:href="#m4e68b63306" y="61.055333"/>
      </g>
     </g>
    </g>
    <g id="xtick_10">
     <g id="line2d_19">
      <g>
       <use style="fill:#262626;stroke:#262626;" x="232.47417" xlink:href="#m4e68b63306" y="61.055333"/>
      </g>
     </g>
    </g>
    <g id="xtick_11">
     <g id="line2d_20">
      <g>
       <use style="fill:#262626;stroke:#262626;" x="291.44198" xlink:href="#m4e68b63306" y="61.055333"/>
      </g>
     </g>
    </g>
    <g id="xtick_12">
     <g id="line2d_21">
      <g>
       <use style="fill:#262626;stroke:#262626;" x="350.409791" xlink:href="#m4e68b63306" y="61.055333"/>
      </g>
     </g>
    </g>
   </g>
   <g id="matplotlib.axis_4">
    <g id="ytick_7"/>
    <g id="ytick_8"/>
   </g>
   <g id="patch_7">
    <path clip-path="url(#p11bd934c13)" d="M 154.116144 61.055333 
L 185.821936 61.055333 
L 185.821936 39.204222 
L 154.116144 39.204222 
z
" style="fill:#471365;opacity:0.4;stroke:#ffffff;stroke-linejoin:miter;stroke-width:0.8;"/>
   </g>
   <g id="patch_8">
    <path clip-path="url(#p11bd934c13)" d="M 185.821936 61.055333 
L 217.527728 61.055333 
L 217.527728 17.353111 
L 185.821936 17.353111 
z
" style="fill:#471365;opacity:0.4;stroke:#ffffff;stroke-linejoin:miter;stroke-width:0.8;"/>
   </g>
   <g id="patch_9">
    <path clip-path="url(#p11bd934c13)" d="M 217.527728 61.055333 
L 249.23352 61.055333 
L 249.23352 39.204222 
L 217.527728 39.204222 
z
" style="fill:#471365;opacity:0.4;stroke:#ffffff;stroke-linejoin:miter;stroke-width:0.8;"/>
   </g>
   <g id="line2d_22">
    <path clip-path="url(#p11bd934c13)" d="M 77.392326 60.730884 
L 79.903084 60.651449 
L 82.413842 60.556073 
L 84.924599 60.442461 
L 87.435357 60.308198 
L 89.946115 60.150783 
L 92.456872 59.967686 
L 94.96763 59.756402 
L 97.478388 59.514519 
L 99.989145 59.23979 
L 102.499903 58.93021 
L 105.010661 58.584092 
L 107.521419 58.200137 
L 110.032176 57.777502 
L 112.542934 57.315854 
L 115.053692 56.815404 
L 117.564449 56.276935 
L 120.075207 55.701793 
L 122.585965 55.091876 
L 125.096722 54.449579 
L 127.60748 53.777742 
L 130.118238 53.079566 
L 132.628996 52.358521 
L 135.139753 51.618253 
L 137.650511 50.862489 
L 140.161269 50.094946 
L 142.672026 49.319261 
L 145.182784 48.538937 
L 147.693542 47.757318 
L 150.204299 46.977589 
L 152.715057 46.202803 
L 155.225815 45.435936 
L 157.736572 44.679961 
L 160.24733 43.937936 
L 162.758088 43.213095 
L 165.268846 42.508935 
L 167.779603 41.829284 
L 170.290361 41.178343 
L 172.801119 40.560695 
L 175.311876 39.981272 
L 177.822634 39.445275 
L 180.333392 38.958053 
L 182.844149 38.524949 
L 185.354907 38.151102 
L 187.865665 37.841244 
L 190.376423 37.599479 
L 192.88718 37.429083 
L 195.397938 37.332318 
L 197.908696 37.310291 
L 200.419453 37.362861 
L 202.930211 37.488607 
L 205.440969 37.684859 
L 207.951726 37.947789 
L 210.462484 38.27257 
L 212.973242 38.653573 
L 215.483999 39.084613 
L 217.994757 39.559208 
L 220.505515 40.07085 
L 223.016273 40.613258 
L 225.52703 41.180606 
L 228.037788 41.76771 
L 230.548546 42.370159 
L 233.059303 42.984389 
L 235.570061 43.607698 
L 238.080819 44.238196 
L 240.591576 44.874712 
L 243.102334 45.516647 
L 245.613092 46.163807 
L 248.12385 46.816217 
L 250.634607 47.473927 
L 253.145365 48.136839 
L 255.656123 48.804551 
L 258.16688 49.476242 
L 260.677638 50.150587 
L 263.188396 50.825726 
L 265.699153 51.499268 
L 268.209911 52.168343 
L 270.720669 52.829682 
L 273.231426 53.479733 
L 275.742184 54.114789 
L 278.252942 54.731124 
L 280.7637 55.32514 
L 283.274457 55.893493 
L 285.785215 56.43321 
L 288.295973 56.941786 
L 290.80673 57.417249 
L 293.317488 57.85821 
L 295.828246 58.263875 
L 298.339003 58.634035 
L 300.849761 58.96904 
L 303.360519 59.269746 
L 305.871277 59.537451 
L 308.382034 59.773823 
L 310.892792 59.980819 
L 313.40355 60.160608 
L 315.914307 60.315492 
L 318.425065 60.447836 
L 320.935823 60.560003 
L 323.44658 60.654301 
L 325.957338 60.732938 
" style="fill:none;stroke:#471365;stroke-linecap:round;stroke-width:1.2;"/>
   </g>
   <g id="patch_10">
    <path d="M 51.293 61.055333 
L 352.056664 61.055333 
" style="fill:none;stroke:#262626;stroke-linecap:square;stroke-linejoin:miter;"/>
   </g>
  </g>
  <g id="axes_3">
   <g id="patch_11">
    <path d="M 375.169678 390.332 
L 416.832 390.332 
L 416.832 81.023333 
L 375.169678 81.023333 
z
" style="fill:#ffffff;"/>
   </g>
   <g id="matplotlib.axis_5">
    <g id="xtick_13"/>
    <g id="xtick_14"/>
   </g>
   <g id="matplotlib.axis_6">
    <g id="ytick_9">
     <g id="line2d_23">
      <g>
       <use style="fill:#262626;stroke:#262626;" x="375.169678" xlink:href="#m0819fe74fe" y="389.52355"/>
      </g>
     </g>
    </g>
    <g id="ytick_10">
     <g id="line2d_24">
      <g>
       <use style="fill:#262626;stroke:#262626;" x="375.169678" xlink:href="#m0819fe74fe" y="336.123122"/>
      </g>
     </g>
    </g>
    <g id="ytick_11">
     <g id="line2d_25">
      <g>
       <use style="fill:#262626;stroke:#262626;" x="375.169678" xlink:href="#m0819fe74fe" y="282.722694"/>
      </g>
     </g>
    </g>
    <g id="ytick_12">
     <g id="line2d_26">
      <g>
       <use style="fill:#262626;stroke:#262626;" x="375.169678" xlink:href="#m0819fe74fe" y="229.322266"/>
      </g>
     </g>
    </g>
    <g id="ytick_13">
     <g id="line2d_27">
      <g>
       <use style="fill:#262626;stroke:#262626;" x="375.169678" xlink:href="#m0819fe74fe" y="175.921838"/>
      </g>
     </g>
    </g>
    <g id="ytick_14">
     <g id="line2d_28">
      <g>
       <use style="fill:#262626;stroke:#262626;" x="375.169678" xlink:href="#m0819fe74fe" y="122.52141"/>
      </g>
     </g>
    </g>
   </g>
   <g id="patch_12">
    <path clip-path="url(#p4de2996cd5)" d="M 375.169678 236.903664 
L 395.008879 236.903664 
L 395.008879 234.44383 
L 375.169678 234.44383 
z
" style="fill:#471365;opacity:0.4;stroke:#ffffff;stroke-linejoin:miter;stroke-width:0.8;"/>
   </g>
   <g id="patch_13">
    <path clip-path="url(#p4de2996cd5)" d="M 375.169678 234.44383 
L 414.84808 234.44383 
L 414.84808 231.983997 
L 375.169678 231.983997 
z
" style="fill:#471365;opacity:0.4;stroke:#ffffff;stroke-linejoin:miter;stroke-width:0.8;"/>
   </g>
   <g id="patch_14">
    <path clip-path="url(#p4de2996cd5)" d="M 375.169678 231.983997 
L 395.008879 231.983997 
L 395.008879 229.524164 
L 375.169678 229.524164 
z
" style="fill:#471365;opacity:0.4;stroke:#ffffff;stroke-linejoin:miter;stroke-width:0.8;"/>
   </g>
   <g id="line2d_29">
    <path clip-path="url(#p4de2996cd5)" d="M 375.464358 242.853581 
L 375.536517 242.65884 
L 375.623158 242.4641 
L 375.726368 242.269359 
L 375.848342 242.074618 
L 375.991351 241.879877 
L 376.157697 241.685137 
L 376.349655 241.490396 
L 376.569419 241.295655 
L 376.819032 241.100914 
L 377.100317 240.906174 
L 377.414812 240.711433 
L 377.763699 240.516692 
L 378.147749 240.321951 
L 378.567273 240.127211 
L 379.022083 239.93247 
L 379.51148 239.737729 
L 380.034249 239.542988 
L 380.588681 239.348248 
L 381.17261 239.153507 
L 381.783475 238.958766 
L 382.418383 238.764025 
L 383.074199 238.569285 
L 383.747627 238.374544 
L 384.435297 238.179803 
L 385.133847 237.985062 
L 385.839983 237.790322 
L 386.550526 237.595581 
L 387.262439 237.40084 
L 387.972818 237.206099 
L 388.678872 237.011358 
L 389.377868 236.816618 
L 390.067064 236.621877 
L 390.743631 236.427136 
L 391.404567 236.232395 
L 392.046624 236.037655 
L 392.666242 235.842914 
L 393.259517 235.648173 
L 393.822193 235.453432 
L 394.349701 235.258692 
L 394.83723 235.063951 
L 395.279841 234.86921 
L 395.672618 234.674469 
L 396.010845 234.479729 
L 396.290195 234.284988 
L 396.506935 234.090247 
L 396.658112 233.895506 
L 396.741715 233.700766 
L 396.756812 233.506025 
L 396.703623 233.311284 
L 396.583555 233.116543 
L 396.399164 232.921803 
L 396.15407 232.727062 
L 395.852807 232.532321 
L 395.500635 232.33758 
L 395.103317 232.14284 
L 394.666872 231.948099 
L 394.197327 231.753358 
L 393.700484 231.558617 
L 393.181707 231.363877 
L 392.645752 231.169136 
L 392.096649 230.974395 
L 391.537631 230.779654 
L 390.971127 230.584914 
L 390.398804 230.390173 
L 389.821662 230.195432 
L 389.240165 230.000691 
L 388.654401 229.805951 
L 388.064254 229.61121 
L 387.469582 229.416469 
L 386.87038 229.221728 
L 386.266925 229.026988 
L 385.659882 228.832247 
L 385.050384 228.637506 
L 384.440062 228.442765 
L 383.831038 228.248025 
L 383.225883 228.053284 
L 382.627542 227.858543 
L 382.039225 227.663802 
L 381.464295 227.469062 
L 380.906138 227.274321 
L 380.368029 227.07958 
L 379.853021 226.884839 
L 379.36383 226.690099 
L 378.902751 226.495358 
L 378.471594 226.300617 
L 378.071641 226.105876 
L 377.703633 225.911135 
L 377.367778 225.716395 
L 377.063774 225.521654 
L 376.79086 225.326913 
L 376.547868 225.132172 
L 376.333296 224.937432 
L 376.145373 224.742691 
L 375.982139 224.54795 
L 375.841508 224.353209 
L 375.721337 224.158469 
L 375.619482 223.963728 
L 375.533851 223.768987 
L 375.46244 223.574246 
" style="fill:none;stroke:#471365;stroke-linecap:round;stroke-width:1.2;"/>
   </g>
   <g id="patch_15">
    <path d="M 375.169678 390.332 
L 375.169678 81.023333 
" style="fill:none;stroke:#262626;stroke-linecap:square;stroke-linejoin:miter;"/>
   </g>
  </g>
 </g>
 <defs>
  <clipPath id="p56aac65493">
   <rect height="309.308667" width="300.763664" x="51.293" y="81.023333"/>
  </clipPath>
  <clipPath id="p11bd934c13">
   <rect height="45.887333" width="300.763664" x="51.293" y="15.168"/>
  </clipPath>
  <clipPath id="p4de2996cd5">
   <rect height="309.308667" width="41.662322" x="375.169678" y="81.023333"/>
  </clipPath>
 </defs>
</svg>
