<?xml version="1.0" encoding="utf-8" standalone="no"?>
<!DOCTYPE svg PUBLIC "-//W3C//DTD SVG 1.1//EN"
  "http://www.w3.org/Graphics/SVG/1.1/DTD/svg11.dtd">
<!-- Created with matplotlib (http://matplotlib.org/) -->
<svg height="345.6pt" version="1.1" viewBox="0 0 460.8 345.6" width="460.8pt" xmlns="http://www.w3.org/2000/svg" xmlns:xlink="http://www.w3.org/1999/xlink">
 <defs>
  <style type="text/css">
*{stroke-linecap:butt;stroke-linejoin:round;}
  </style>
 </defs>
 <g id="figure_1">
  <g id="patch_1">
   <path d="M 0 345.6 
L 460.8 345.6 
L 460.8 0 
L 0 0 
z
" style="fill:#ffffff;"/>
  </g>
  <g id="axes_1">
   <g id="patch_2">
    <path d="M 57.6 307.584 
L 414.72 307.584 
L 414.72 41.472 
L 57.6 41.472 
z
" style="fill:#ffffff;"/>
   </g>
   <g id="matplotlib.axis_1">
    <g id="xtick_1">
     <g id="line2d_1">
      <defs>
       <path d="M 0 0 
L 0 4.8 
" id="m104787776a" style="stroke:#262626;"/>
      </defs>
      <g>
       <use style="fill:#262626;stroke:#262626;" x="73.832727" xlink:href="#m104787776a" y="307.584"/>
      </g>
     </g>
     <g id="text_1">
      <!-- 0 -->
      <defs>
       <path d="M 31.78125 66.40625 
Q 24.171875 66.40625 20.328125 58.90625 
Q 16.5 51.421875 16.5 36.375 
Q 16.5 21.390625 20.328125 13.890625 
Q 24.171875 6.390625 31.78125 6.390625 
Q 39.453125 6.390625 43.28125 13.890625 
Q 47.125 21.390625 47.125 36.375 
Q 47.125 51.421875 43.28125 58.90625 
Q 39.453125 66.40625 31.78125 66.40625 
z
M 31.78125 74.21875 
Q 44.046875 74.21875 50.515625 64.515625 
Q 56.984375 54.828125 56.984375 36.375 
Q 56.984375 17.96875 50.515625 8.265625 
Q 44.046875 -1.421875 31.78125 -1.421875 
Q 19.53125 -1.421875 13.0625 8.265625 
Q 6.59375 17.96875 6.59375 36.375 
Q 6.59375 54.828125 13.0625 64.515625 
Q 19.53125 74.21875 31.78125 74.21875 
z
" id="DejaVuSans-30"/>
      </defs>
      <g style="fill:#262626;" transform="translate(71.033227 322.570625)scale(0.088 -0.088)">
       <use xlink:href="#DejaVuSans-30"/>
      </g>
     </g>
    </g>
    <g id="xtick_2">
     <g id="line2d_2">
      <g>
       <use style="fill:#262626;stroke:#262626;" x="139.419504" xlink:href="#m104787776a" y="307.584"/>
      </g>
     </g>
     <g id="text_2">
      <!-- 20 -->
      <defs>
       <path d="M 19.1875 8.296875 
L 53.609375 8.296875 
L 53.609375 0 
L 7.328125 0 
L 7.328125 8.296875 
Q 12.9375 14.109375 22.625 23.890625 
Q 32.328125 33.6875 34.8125 36.53125 
Q 39.546875 41.84375 41.421875 45.53125 
Q 43.3125 49.21875 43.3125 52.78125 
Q 43.3125 58.59375 39.234375 62.25 
Q 35.15625 65.921875 28.609375 65.921875 
Q 23.96875 65.921875 18.8125 64.3125 
Q 13.671875 62.703125 7.8125 59.421875 
L 7.8125 69.390625 
Q 13.765625 71.78125 18.9375 73 
Q 24.125 74.21875 28.421875 74.21875 
Q 39.75 74.21875 46.484375 68.546875 
Q 53.21875 62.890625 53.21875 53.421875 
Q 53.21875 48.921875 51.53125 44.890625 
Q 49.859375 40.875 45.40625 35.40625 
Q 44.1875 33.984375 37.640625 27.21875 
Q 31.109375 20.453125 19.1875 8.296875 
z
" id="DejaVuSans-32"/>
      </defs>
      <g style="fill:#262626;" transform="translate(133.820504 322.570625)scale(0.088 -0.088)">
       <use xlink:href="#DejaVuSans-32"/>
       <use x="63.623047" xlink:href="#DejaVuSans-30"/>
      </g>
     </g>
    </g>
    <g id="xtick_3">
     <g id="line2d_3">
      <g>
       <use style="fill:#262626;stroke:#262626;" x="205.006281" xlink:href="#m104787776a" y="307.584"/>
      </g>
     </g>
     <g id="text_3">
      <!-- 40 -->
      <defs>
       <path d="M 37.796875 64.3125 
L 12.890625 25.390625 
L 37.796875 25.390625 
z
M 35.203125 72.90625 
L 47.609375 72.90625 
L 47.609375 25.390625 
L 58.015625 25.390625 
L 58.015625 17.1875 
L 47.609375 17.1875 
L 47.609375 0 
L 37.796875 0 
L 37.796875 17.1875 
L 4.890625 17.1875 
L 4.890625 26.703125 
z
" id="DejaVuSans-34"/>
      </defs>
      <g style="fill:#262626;" transform="translate(199.407281 322.570625)scale(0.088 -0.088)">
       <use xlink:href="#DejaVuSans-34"/>
       <use x="63.623047" xlink:href="#DejaVuSans-30"/>
      </g>
     </g>
    </g>
    <g id="xtick_4">
     <g id="line2d_4">
      <g>
       <use style="fill:#262626;stroke:#262626;" x="270.593058" xlink:href="#m104787776a" y="307.584"/>
      </g>
     </g>
     <g id="text_4">
      <!-- 60 -->
      <defs>
       <path d="M 33.015625 40.375 
Q 26.375 40.375 22.484375 35.828125 
Q 18.609375 31.296875 18.609375 23.390625 
Q 18.609375 15.53125 22.484375 10.953125 
Q 26.375 6.390625 33.015625 6.390625 
Q 39.65625 6.390625 43.53125 10.953125 
Q 47.40625 15.53125 47.40625 23.390625 
Q 47.40625 31.296875 43.53125 35.828125 
Q 39.65625 40.375 33.015625 40.375 
z
M 52.59375 71.296875 
L 52.59375 62.3125 
Q 48.875 64.0625 45.09375 64.984375 
Q 41.3125 65.921875 37.59375 65.921875 
Q 27.828125 65.921875 22.671875 59.328125 
Q 17.53125 52.734375 16.796875 39.40625 
Q 19.671875 43.65625 24.015625 45.921875 
Q 28.375 48.1875 33.59375 48.1875 
Q 44.578125 48.1875 50.953125 41.515625 
Q 57.328125 34.859375 57.328125 23.390625 
Q 57.328125 12.15625 50.6875 5.359375 
Q 44.046875 -1.421875 33.015625 -1.421875 
Q 20.359375 -1.421875 13.671875 8.265625 
Q 6.984375 17.96875 6.984375 36.375 
Q 6.984375 53.65625 15.1875 63.9375 
Q 23.390625 74.21875 37.203125 74.21875 
Q 40.921875 74.21875 44.703125 73.484375 
Q 48.484375 72.75 52.59375 71.296875 
z
" id="DejaVuSans-36"/>
      </defs>
      <g style="fill:#262626;" transform="translate(264.994058 322.570625)scale(0.088 -0.088)">
       <use xlink:href="#DejaVuSans-36"/>
       <use x="63.623047" xlink:href="#DejaVuSans-30"/>
      </g>
     </g>
    </g>
    <g id="xtick_5">
     <g id="line2d_5">
      <g>
       <use style="fill:#262626;stroke:#262626;" x="336.179835" xlink:href="#m104787776a" y="307.584"/>
      </g>
     </g>
     <g id="text_5">
      <!-- 80 -->
      <defs>
       <path d="M 31.78125 34.625 
Q 24.75 34.625 20.71875 30.859375 
Q 16.703125 27.09375 16.703125 20.515625 
Q 16.703125 13.921875 20.71875 10.15625 
Q 24.75 6.390625 31.78125 6.390625 
Q 38.8125 6.390625 42.859375 10.171875 
Q 46.921875 13.96875 46.921875 20.515625 
Q 46.921875 27.09375 42.890625 30.859375 
Q 38.875 34.625 31.78125 34.625 
z
M 21.921875 38.8125 
Q 15.578125 40.375 12.03125 44.71875 
Q 8.5 49.078125 8.5 55.328125 
Q 8.5 64.0625 14.71875 69.140625 
Q 20.953125 74.21875 31.78125 74.21875 
Q 42.671875 74.21875 48.875 69.140625 
Q 55.078125 64.0625 55.078125 55.328125 
Q 55.078125 49.078125 51.53125 44.71875 
Q 48 40.375 41.703125 38.8125 
Q 48.828125 37.15625 52.796875 32.3125 
Q 56.78125 27.484375 56.78125 20.515625 
Q 56.78125 9.90625 50.3125 4.234375 
Q 43.84375 -1.421875 31.78125 -1.421875 
Q 19.734375 -1.421875 13.25 4.234375 
Q 6.78125 9.90625 6.78125 20.515625 
Q 6.78125 27.484375 10.78125 32.3125 
Q 14.796875 37.15625 21.921875 38.8125 
z
M 18.3125 54.390625 
Q 18.3125 48.734375 21.84375 45.5625 
Q 25.390625 42.390625 31.78125 42.390625 
Q 38.140625 42.390625 41.71875 45.5625 
Q 45.3125 48.734375 45.3125 54.390625 
Q 45.3125 60.0625 41.71875 63.234375 
Q 38.140625 66.40625 31.78125 66.40625 
Q 25.390625 66.40625 21.84375 63.234375 
Q 18.3125 60.0625 18.3125 54.390625 
z
" id="DejaVuSans-38"/>
      </defs>
      <g style="fill:#262626;" transform="translate(330.580835 322.570625)scale(0.088 -0.088)">
       <use xlink:href="#DejaVuSans-38"/>
       <use x="63.623047" xlink:href="#DejaVuSans-30"/>
      </g>
     </g>
    </g>
    <g id="xtick_6">
     <g id="line2d_6">
      <g>
       <use style="fill:#262626;stroke:#262626;" x="401.766612" xlink:href="#m104787776a" y="307.584"/>
      </g>
     </g>
     <g id="text_6">
      <!-- 100 -->
      <defs>
       <path d="M 12.40625 8.296875 
L 28.515625 8.296875 
L 28.515625 63.921875 
L 10.984375 60.40625 
L 10.984375 69.390625 
L 28.421875 72.90625 
L 38.28125 72.90625 
L 38.28125 8.296875 
L 54.390625 8.296875 
L 54.390625 0 
L 12.40625 0 
z
" id="DejaVuSans-31"/>
      </defs>
      <g style="fill:#262626;" transform="translate(393.368112 322.570625)scale(0.088 -0.088)">
       <use xlink:href="#DejaVuSans-31"/>
       <use x="63.623047" xlink:href="#DejaVuSans-30"/>
       <use x="127.246094" xlink:href="#DejaVuSans-30"/>
      </g>
     </g>
    </g>
    <g id="text_7">
     <!-- Time (years) -->
     <defs>
      <path d="M -0.296875 72.90625 
L 61.375 72.90625 
L 61.375 64.59375 
L 35.5 64.59375 
L 35.5 0 
L 25.59375 0 
L 25.59375 64.59375 
L -0.296875 64.59375 
z
" id="DejaVuSans-54"/>
      <path d="M 9.421875 54.6875 
L 18.40625 54.6875 
L 18.40625 0 
L 9.421875 0 
z
M 9.421875 75.984375 
L 18.40625 75.984375 
L 18.40625 64.59375 
L 9.421875 64.59375 
z
" id="DejaVuSans-69"/>
      <path d="M 52 44.1875 
Q 55.375 50.25 60.0625 53.125 
Q 64.75 56 71.09375 56 
Q 79.640625 56 84.28125 50.015625 
Q 88.921875 44.046875 88.921875 33.015625 
L 88.921875 0 
L 79.890625 0 
L 79.890625 32.71875 
Q 79.890625 40.578125 77.09375 44.375 
Q 74.3125 48.1875 68.609375 48.1875 
Q 61.625 48.1875 57.5625 43.546875 
Q 53.515625 38.921875 53.515625 30.90625 
L 53.515625 0 
L 44.484375 0 
L 44.484375 32.71875 
Q 44.484375 40.625 41.703125 44.40625 
Q 38.921875 48.1875 33.109375 48.1875 
Q 26.21875 48.1875 22.15625 43.53125 
Q 18.109375 38.875 18.109375 30.90625 
L 18.109375 0 
L 9.078125 0 
L 9.078125 54.6875 
L 18.109375 54.6875 
L 18.109375 46.1875 
Q 21.1875 51.21875 25.484375 53.609375 
Q 29.78125 56 35.6875 56 
Q 41.65625 56 45.828125 52.96875 
Q 50 49.953125 52 44.1875 
z
" id="DejaVuSans-6d"/>
      <path d="M 56.203125 29.59375 
L 56.203125 25.203125 
L 14.890625 25.203125 
Q 15.484375 15.921875 20.484375 11.0625 
Q 25.484375 6.203125 34.421875 6.203125 
Q 39.59375 6.203125 44.453125 7.46875 
Q 49.3125 8.734375 54.109375 11.28125 
L 54.109375 2.78125 
Q 49.265625 0.734375 44.1875 -0.34375 
Q 39.109375 -1.421875 33.890625 -1.421875 
Q 20.796875 -1.421875 13.15625 6.1875 
Q 5.515625 13.8125 5.515625 26.8125 
Q 5.515625 40.234375 12.765625 48.109375 
Q 20.015625 56 32.328125 56 
Q 43.359375 56 49.78125 48.890625 
Q 56.203125 41.796875 56.203125 29.59375 
z
M 47.21875 32.234375 
Q 47.125 39.59375 43.09375 43.984375 
Q 39.0625 48.390625 32.421875 48.390625 
Q 24.90625 48.390625 20.390625 44.140625 
Q 15.875 39.890625 15.1875 32.171875 
z
" id="DejaVuSans-65"/>
      <path id="DejaVuSans-20"/>
      <path d="M 31 75.875 
Q 24.46875 64.65625 21.28125 53.65625 
Q 18.109375 42.671875 18.109375 31.390625 
Q 18.109375 20.125 21.3125 9.0625 
Q 24.515625 -2 31 -13.1875 
L 23.1875 -13.1875 
Q 15.875 -1.703125 12.234375 9.375 
Q 8.59375 20.453125 8.59375 31.390625 
Q 8.59375 42.28125 12.203125 53.3125 
Q 15.828125 64.359375 23.1875 75.875 
z
" id="DejaVuSans-28"/>
      <path d="M 32.171875 -5.078125 
Q 28.375 -14.84375 24.75 -17.8125 
Q 21.140625 -20.796875 15.09375 -20.796875 
L 7.90625 -20.796875 
L 7.90625 -13.28125 
L 13.1875 -13.28125 
Q 16.890625 -13.28125 18.9375 -11.515625 
Q 21 -9.765625 23.484375 -3.21875 
L 25.09375 0.875 
L 2.984375 54.6875 
L 12.5 54.6875 
L 29.59375 11.921875 
L 46.6875 54.6875 
L 56.203125 54.6875 
z
" id="DejaVuSans-79"/>
      <path d="M 34.28125 27.484375 
Q 23.390625 27.484375 19.1875 25 
Q 14.984375 22.515625 14.984375 16.5 
Q 14.984375 11.71875 18.140625 8.90625 
Q 21.296875 6.109375 26.703125 6.109375 
Q 34.1875 6.109375 38.703125 11.40625 
Q 43.21875 16.703125 43.21875 25.484375 
L 43.21875 27.484375 
z
M 52.203125 31.203125 
L 52.203125 0 
L 43.21875 0 
L 43.21875 8.296875 
Q 40.140625 3.328125 35.546875 0.953125 
Q 30.953125 -1.421875 24.3125 -1.421875 
Q 15.921875 -1.421875 10.953125 3.296875 
Q 6 8.015625 6 15.921875 
Q 6 25.140625 12.171875 29.828125 
Q 18.359375 34.515625 30.609375 34.515625 
L 43.21875 34.515625 
L 43.21875 35.40625 
Q 43.21875 41.609375 39.140625 45 
Q 35.0625 48.390625 27.6875 48.390625 
Q 23 48.390625 18.546875 47.265625 
Q 14.109375 46.140625 10.015625 43.890625 
L 10.015625 52.203125 
Q 14.9375 54.109375 19.578125 55.046875 
Q 24.21875 56 28.609375 56 
Q 40.484375 56 46.34375 49.84375 
Q 52.203125 43.703125 52.203125 31.203125 
z
" id="DejaVuSans-61"/>
      <path d="M 41.109375 46.296875 
Q 39.59375 47.171875 37.8125 47.578125 
Q 36.03125 48 33.890625 48 
Q 26.265625 48 22.1875 43.046875 
Q 18.109375 38.09375 18.109375 28.8125 
L 18.109375 0 
L 9.078125 0 
L 9.078125 54.6875 
L 18.109375 54.6875 
L 18.109375 46.1875 
Q 20.953125 51.171875 25.484375 53.578125 
Q 30.03125 56 36.53125 56 
Q 37.453125 56 38.578125 55.875 
Q 39.703125 55.765625 41.0625 55.515625 
z
" id="DejaVuSans-72"/>
      <path d="M 44.28125 53.078125 
L 44.28125 44.578125 
Q 40.484375 46.53125 36.375 47.5 
Q 32.28125 48.484375 27.875 48.484375 
Q 21.1875 48.484375 17.84375 46.4375 
Q 14.5 44.390625 14.5 40.28125 
Q 14.5 37.15625 16.890625 35.375 
Q 19.28125 33.59375 26.515625 31.984375 
L 29.59375 31.296875 
Q 39.15625 29.25 43.1875 25.515625 
Q 47.21875 21.78125 47.21875 15.09375 
Q 47.21875 7.46875 41.1875 3.015625 
Q 35.15625 -1.421875 24.609375 -1.421875 
Q 20.21875 -1.421875 15.453125 -0.5625 
Q 10.6875 0.296875 5.421875 2 
L 5.421875 11.28125 
Q 10.40625 8.6875 15.234375 7.390625 
Q 20.0625 6.109375 24.8125 6.109375 
Q 31.15625 6.109375 34.5625 8.28125 
Q 37.984375 10.453125 37.984375 14.40625 
Q 37.984375 18.0625 35.515625 20.015625 
Q 33.0625 21.96875 24.703125 23.78125 
L 21.578125 24.515625 
Q 13.234375 26.265625 9.515625 29.90625 
Q 5.8125 33.546875 5.8125 39.890625 
Q 5.8125 47.609375 11.28125 51.796875 
Q 16.75 56 26.8125 56 
Q 31.78125 56 36.171875 55.265625 
Q 40.578125 54.546875 44.28125 53.078125 
z
" id="DejaVuSans-73"/>
      <path d="M 8.015625 75.875 
L 15.828125 75.875 
Q 23.140625 64.359375 26.78125 53.3125 
Q 30.421875 42.28125 30.421875 31.390625 
Q 30.421875 20.453125 26.78125 9.375 
Q 23.140625 -1.703125 15.828125 -13.1875 
L 8.015625 -13.1875 
Q 14.5 -2 17.703125 9.0625 
Q 20.90625 20.125 20.90625 31.390625 
Q 20.90625 42.671875 17.703125 53.65625 
Q 14.5 64.65625 8.015625 75.875 
z
" id="DejaVuSans-29"/>
     </defs>
     <g style="fill:#262626;" transform="translate(205.78725 335.69525)scale(0.096 -0.096)">
      <use xlink:href="#DejaVuSans-54"/>
      <use x="61.037109" xlink:href="#DejaVuSans-69"/>
      <use x="88.820312" xlink:href="#DejaVuSans-6d"/>
      <use x="186.232422" xlink:href="#DejaVuSans-65"/>
      <use x="247.755859" xlink:href="#DejaVuSans-20"/>
      <use x="279.542969" xlink:href="#DejaVuSans-28"/>
      <use x="318.556641" xlink:href="#DejaVuSans-79"/>
      <use x="377.736328" xlink:href="#DejaVuSans-65"/>
      <use x="439.259766" xlink:href="#DejaVuSans-61"/>
      <use x="500.539062" xlink:href="#DejaVuSans-72"/>
      <use x="541.652344" xlink:href="#DejaVuSans-73"/>
      <use x="593.751953" xlink:href="#DejaVuSans-29"/>
     </g>
    </g>
   </g>
   <g id="matplotlib.axis_2">
    <g id="ytick_1">
     <g id="line2d_7">
      <defs>
       <path d="M 0 0 
L -4.8 0 
" id="mafe733289b" style="stroke:#262626;"/>
      </defs>
      <g>
       <use style="fill:#262626;stroke:#262626;" x="57.6" xlink:href="#mafe733289b" y="295.488"/>
      </g>
     </g>
     <g id="text_8">
      <!-- 0 -->
      <g style="fill:#262626;" transform="translate(43.701 298.831312)scale(0.088 -0.088)">
       <use xlink:href="#DejaVuSans-30"/>
      </g>
     </g>
    </g>
    <g id="ytick_2">
     <g id="line2d_8">
      <g>
       <use style="fill:#262626;stroke:#262626;" x="57.6" xlink:href="#mafe733289b" y="247.104"/>
      </g>
     </g>
     <g id="text_9">
      <!-- 20 -->
      <g style="fill:#262626;" transform="translate(38.102 250.447312)scale(0.088 -0.088)">
       <use xlink:href="#DejaVuSans-32"/>
       <use x="63.623047" xlink:href="#DejaVuSans-30"/>
      </g>
     </g>
    </g>
    <g id="ytick_3">
     <g id="line2d_9">
      <g>
       <use style="fill:#262626;stroke:#262626;" x="57.6" xlink:href="#mafe733289b" y="198.72"/>
      </g>
     </g>
     <g id="text_10">
      <!-- 40 -->
      <g style="fill:#262626;" transform="translate(38.102 202.063312)scale(0.088 -0.088)">
       <use xlink:href="#DejaVuSans-34"/>
       <use x="63.623047" xlink:href="#DejaVuSans-30"/>
      </g>
     </g>
    </g>
    <g id="ytick_4">
     <g id="line2d_10">
      <g>
       <use style="fill:#262626;stroke:#262626;" x="57.6" xlink:href="#mafe733289b" y="150.336"/>
      </g>
     </g>
     <g id="text_11">
      <!-- 60 -->
      <g style="fill:#262626;" transform="translate(38.102 153.679312)scale(0.088 -0.088)">
       <use xlink:href="#DejaVuSans-36"/>
       <use x="63.623047" xlink:href="#DejaVuSans-30"/>
      </g>
     </g>
    </g>
    <g id="ytick_5">
     <g id="line2d_11">
      <g>
       <use style="fill:#262626;stroke:#262626;" x="57.6" xlink:href="#mafe733289b" y="101.952"/>
      </g>
     </g>
     <g id="text_12">
      <!-- 80 -->
      <g style="fill:#262626;" transform="translate(38.102 105.295312)scale(0.088 -0.088)">
       <use xlink:href="#DejaVuSans-38"/>
       <use x="63.623047" xlink:href="#DejaVuSans-30"/>
      </g>
     </g>
    </g>
    <g id="ytick_6">
     <g id="line2d_12">
      <g>
       <use style="fill:#262626;stroke:#262626;" x="57.6" xlink:href="#mafe733289b" y="53.568"/>
      </g>
     </g>
     <g id="text_13">
      <!-- 100 -->
      <g style="fill:#262626;" transform="translate(32.503 56.911313)scale(0.088 -0.088)">
       <use xlink:href="#DejaVuSans-31"/>
       <use x="63.623047" xlink:href="#DejaVuSans-30"/>
       <use x="127.246094" xlink:href="#DejaVuSans-30"/>
      </g>
     </g>
    </g>
    <g id="text_14">
     <!-- Cumulative incidence (%) -->
     <defs>
      <path d="M 64.40625 67.28125 
L 64.40625 56.890625 
Q 59.421875 61.53125 53.78125 63.8125 
Q 48.140625 66.109375 41.796875 66.109375 
Q 29.296875 66.109375 22.65625 58.46875 
Q 16.015625 50.828125 16.015625 36.375 
Q 16.015625 21.96875 22.65625 14.328125 
Q 29.296875 6.6875 41.796875 6.6875 
Q 48.140625 6.6875 53.78125 8.984375 
Q 59.421875 11.28125 64.40625 15.921875 
L 64.40625 5.609375 
Q 59.234375 2.09375 53.4375 0.328125 
Q 47.65625 -1.421875 41.21875 -1.421875 
Q 24.65625 -1.421875 15.125 8.703125 
Q 5.609375 18.84375 5.609375 36.375 
Q 5.609375 53.953125 15.125 64.078125 
Q 24.65625 74.21875 41.21875 74.21875 
Q 47.75 74.21875 53.53125 72.484375 
Q 59.328125 70.75 64.40625 67.28125 
z
" id="DejaVuSans-43"/>
      <path d="M 8.5 21.578125 
L 8.5 54.6875 
L 17.484375 54.6875 
L 17.484375 21.921875 
Q 17.484375 14.15625 20.5 10.265625 
Q 23.53125 6.390625 29.59375 6.390625 
Q 36.859375 6.390625 41.078125 11.03125 
Q 45.3125 15.671875 45.3125 23.6875 
L 45.3125 54.6875 
L 54.296875 54.6875 
L 54.296875 0 
L 45.3125 0 
L 45.3125 8.40625 
Q 42.046875 3.421875 37.71875 1 
Q 33.40625 -1.421875 27.6875 -1.421875 
Q 18.265625 -1.421875 13.375 4.4375 
Q 8.5 10.296875 8.5 21.578125 
z
M 31.109375 56 
z
" id="DejaVuSans-75"/>
      <path d="M 9.421875 75.984375 
L 18.40625 75.984375 
L 18.40625 0 
L 9.421875 0 
z
" id="DejaVuSans-6c"/>
      <path d="M 18.3125 70.21875 
L 18.3125 54.6875 
L 36.8125 54.6875 
L 36.8125 47.703125 
L 18.3125 47.703125 
L 18.3125 18.015625 
Q 18.3125 11.328125 20.140625 9.421875 
Q 21.96875 7.515625 27.59375 7.515625 
L 36.8125 7.515625 
L 36.8125 0 
L 27.59375 0 
Q 17.1875 0 13.234375 3.875 
Q 9.28125 7.765625 9.28125 18.015625 
L 9.28125 47.703125 
L 2.6875 47.703125 
L 2.6875 54.6875 
L 9.28125 54.6875 
L 9.28125 70.21875 
z
" id="DejaVuSans-74"/>
      <path d="M 2.984375 54.6875 
L 12.5 54.6875 
L 29.59375 8.796875 
L 46.6875 54.6875 
L 56.203125 54.6875 
L 35.6875 0 
L 23.484375 0 
z
" id="DejaVuSans-76"/>
      <path d="M 54.890625 33.015625 
L 54.890625 0 
L 45.90625 0 
L 45.90625 32.71875 
Q 45.90625 40.484375 42.875 44.328125 
Q 39.84375 48.1875 33.796875 48.1875 
Q 26.515625 48.1875 22.3125 43.546875 
Q 18.109375 38.921875 18.109375 30.90625 
L 18.109375 0 
L 9.078125 0 
L 9.078125 54.6875 
L 18.109375 54.6875 
L 18.109375 46.1875 
Q 21.34375 51.125 25.703125 53.5625 
Q 30.078125 56 35.796875 56 
Q 45.21875 56 50.046875 50.171875 
Q 54.890625 44.34375 54.890625 33.015625 
z
" id="DejaVuSans-6e"/>
      <path d="M 48.78125 52.59375 
L 48.78125 44.1875 
Q 44.96875 46.296875 41.140625 47.34375 
Q 37.3125 48.390625 33.40625 48.390625 
Q 24.65625 48.390625 19.8125 42.84375 
Q 14.984375 37.3125 14.984375 27.296875 
Q 14.984375 17.28125 19.8125 11.734375 
Q 24.65625 6.203125 33.40625 6.203125 
Q 37.3125 6.203125 41.140625 7.25 
Q 44.96875 8.296875 48.78125 10.40625 
L 48.78125 2.09375 
Q 45.015625 0.34375 40.984375 -0.53125 
Q 36.96875 -1.421875 32.421875 -1.421875 
Q 20.0625 -1.421875 12.78125 6.34375 
Q 5.515625 14.109375 5.515625 27.296875 
Q 5.515625 40.671875 12.859375 48.328125 
Q 20.21875 56 33.015625 56 
Q 37.15625 56 41.109375 55.140625 
Q 45.0625 54.296875 48.78125 52.59375 
z
" id="DejaVuSans-63"/>
      <path d="M 45.40625 46.390625 
L 45.40625 75.984375 
L 54.390625 75.984375 
L 54.390625 0 
L 45.40625 0 
L 45.40625 8.203125 
Q 42.578125 3.328125 38.25 0.953125 
Q 33.9375 -1.421875 27.875 -1.421875 
Q 17.96875 -1.421875 11.734375 6.484375 
Q 5.515625 14.40625 5.515625 27.296875 
Q 5.515625 40.1875 11.734375 48.09375 
Q 17.96875 56 27.875 56 
Q 33.9375 56 38.25 53.625 
Q 42.578125 51.265625 45.40625 46.390625 
z
M 14.796875 27.296875 
Q 14.796875 17.390625 18.875 11.75 
Q 22.953125 6.109375 30.078125 6.109375 
Q 37.203125 6.109375 41.296875 11.75 
Q 45.40625 17.390625 45.40625 27.296875 
Q 45.40625 37.203125 41.296875 42.84375 
Q 37.203125 48.484375 30.078125 48.484375 
Q 22.953125 48.484375 18.875 42.84375 
Q 14.796875 37.203125 14.796875 27.296875 
z
" id="DejaVuSans-64"/>
      <path d="M 72.703125 32.078125 
Q 68.453125 32.078125 66.03125 28.46875 
Q 63.625 24.859375 63.625 18.40625 
Q 63.625 12.0625 66.03125 8.421875 
Q 68.453125 4.78125 72.703125 4.78125 
Q 76.859375 4.78125 79.265625 8.421875 
Q 81.6875 12.0625 81.6875 18.40625 
Q 81.6875 24.8125 79.265625 28.4375 
Q 76.859375 32.078125 72.703125 32.078125 
z
M 72.703125 38.28125 
Q 80.421875 38.28125 84.953125 32.90625 
Q 89.5 27.546875 89.5 18.40625 
Q 89.5 9.28125 84.9375 3.921875 
Q 80.375 -1.421875 72.703125 -1.421875 
Q 64.890625 -1.421875 60.34375 3.921875 
Q 55.8125 9.28125 55.8125 18.40625 
Q 55.8125 27.59375 60.375 32.9375 
Q 64.9375 38.28125 72.703125 38.28125 
z
M 22.3125 68.015625 
Q 18.109375 68.015625 15.6875 64.375 
Q 13.28125 60.75 13.28125 54.390625 
Q 13.28125 47.953125 15.671875 44.328125 
Q 18.0625 40.71875 22.3125 40.71875 
Q 26.5625 40.71875 28.96875 44.328125 
Q 31.390625 47.953125 31.390625 54.390625 
Q 31.390625 60.6875 28.953125 64.34375 
Q 26.515625 68.015625 22.3125 68.015625 
z
M 66.40625 74.21875 
L 74.21875 74.21875 
L 28.609375 -1.421875 
L 20.796875 -1.421875 
z
M 22.3125 74.21875 
Q 30.03125 74.21875 34.609375 68.875 
Q 39.203125 63.53125 39.203125 54.390625 
Q 39.203125 45.171875 34.640625 39.84375 
Q 30.078125 34.515625 22.3125 34.515625 
Q 14.546875 34.515625 10.03125 39.859375 
Q 5.515625 45.21875 5.515625 54.390625 
Q 5.515625 63.484375 10.046875 68.84375 
Q 14.59375 74.21875 22.3125 74.21875 
z
" id="DejaVuSans-25"/>
     </defs>
     <g style="fill:#262626;" transform="translate(26.5065 236.265)rotate(-90)scale(0.096 -0.096)">
      <use xlink:href="#DejaVuSans-43"/>
      <use x="69.824219" xlink:href="#DejaVuSans-75"/>
      <use x="133.203125" xlink:href="#DejaVuSans-6d"/>
      <use x="230.615234" xlink:href="#DejaVuSans-75"/>
      <use x="293.994141" xlink:href="#DejaVuSans-6c"/>
      <use x="321.777344" xlink:href="#DejaVuSans-61"/>
      <use x="383.056641" xlink:href="#DejaVuSans-74"/>
      <use x="422.265625" xlink:href="#DejaVuSans-69"/>
      <use x="450.048828" xlink:href="#DejaVuSans-76"/>
      <use x="509.228516" xlink:href="#DejaVuSans-65"/>
      <use x="570.751953" xlink:href="#DejaVuSans-20"/>
      <use x="602.539062" xlink:href="#DejaVuSans-69"/>
      <use x="630.322266" xlink:href="#DejaVuSans-6e"/>
      <use x="693.701172" xlink:href="#DejaVuSans-63"/>
      <use x="748.681641" xlink:href="#DejaVuSans-69"/>
      <use x="776.464844" xlink:href="#DejaVuSans-64"/>
      <use x="839.941406" xlink:href="#DejaVuSans-65"/>
      <use x="901.464844" xlink:href="#DejaVuSans-6e"/>
      <use x="964.84375" xlink:href="#DejaVuSans-63"/>
      <use x="1019.824219" xlink:href="#DejaVuSans-65"/>
      <use x="1081.347656" xlink:href="#DejaVuSans-20"/>
      <use x="1113.134766" xlink:href="#DejaVuSans-28"/>
      <use x="1152.148438" xlink:href="#DejaVuSans-25"/>
      <use x="1247.167969" xlink:href="#DejaVuSans-29"/>
     </g>
    </g>
   </g>
   <g id="line2d_13">
    <path clip-path="url(#p7e5f2e4c41)" d="M 73.832727 295.488 
L 77.112066 295.488 
L 80.391405 295.488 
L 83.670744 295.488 
L 86.950083 295.488 
L 90.229421 295.488 
L 93.50876 295.488 
L 96.788099 295.488 
L 100.067438 295.488 
L 103.346777 295.488 
L 106.626116 295.488 
L 109.905455 295.488 
L 113.184793 295.488 
L 116.464132 295.488 
L 119.743471 295.488 
L 123.02281 295.488 
L 126.302149 295.488 
L 129.581488 295.488 
L 132.860826 295.488 
L 136.140165 295.488 
L 139.419504 295.488 
L 142.698843 295.488 
L 145.978182 295.488 
L 149.257521 295.488 
L 152.53686 295.488 
L 155.816198 295.488 
L 159.095537 295.488 
L 162.374876 295.488 
L 165.654215 295.488 
L 168.933554 295.488 
L 172.212893 295.488 
L 175.492231 295.488 
L 178.77157 295.488 
L 182.050909 295.488 
L 185.330248 295.488 
L 188.609587 295.488 
L 191.888926 295.488 
L 195.168264 295.488 
L 198.447603 295.488 
L 201.726942 295.488 
L 205.006281 295.488 
L 208.28562 295.488 
L 211.564959 295.488 
L 214.844298 295.488 
L 218.123636 295.488 
L 221.402975 295.488 
L 224.682314 295.488 
L 227.961653 295.488 
L 231.240992 295.488 
L 234.520331 295.488 
L 237.799669 295.488 
L 241.079008 295.488 
L 244.358347 295.488 
L 247.637686 295.488 
L 250.917025 295.488 
L 254.196364 295.488 
L 257.475702 295.488 
L 260.755041 295.488 
L 264.03438 295.488 
L 267.313719 295.488 
L 270.593058 295.488 
L 273.872397 295.488 
L 277.151736 295.488 
L 280.431074 295.488 
L 283.710413 295.488 
L 286.989752 295.488 
L 290.269091 295.488 
L 293.54843 295.488 
L 296.827769 295.488 
L 300.107107 295.488 
L 303.386446 295.488 
L 306.665785 295.488 
L 309.945124 295.488 
L 313.224463 295.488 
L 316.503802 295.488 
L 319.78314 295.488 
L 323.062479 295.488 
L 326.341818 295.488 
L 329.621157 295.488 
L 332.900496 295.488 
L 336.179835 295.488 
L 339.459174 295.488 
L 342.738512 295.488 
L 346.017851 295.488 
L 349.29719 295.488 
L 352.576529 295.488 
L 355.855868 295.488 
L 359.135207 295.488 
L 362.414545 295.488 
L 365.693884 295.488 
L 368.973223 295.488 
L 372.252562 295.488 
L 375.531901 295.488 
L 378.81124 295.488 
L 382.090579 295.488 
L 385.369917 295.488 
L 388.649256 295.488 
L 391.928595 295.488 
L 395.207934 295.488 
L 398.487273 295.488 
" style="fill:none;stroke:#471365;stroke-linecap:round;stroke-width:1.2;"/>
   </g>
   <g id="line2d_14">
    <path clip-path="url(#p7e5f2e4c41)" d="M 73.832727 295.488 
L 77.112066 295.488 
L 80.391405 295.488 
L 83.670744 295.488 
L 86.950083 295.488 
L 90.229421 295.488 
L 93.50876 295.488 
L 96.788099 295.488 
L 100.067438 295.488 
L 103.346777 295.488 
L 106.626116 295.488 
L 109.905455 295.488 
L 113.184793 295.488 
L 116.464132 295.488 
L 119.743471 295.488 
L 123.02281 295.488 
L 126.302149 295.488 
L 129.581488 295.488 
L 132.860826 295.488 
L 136.140165 295.488 
L 139.419504 295.488 
L 142.698843 295.488 
L 145.978182 295.488 
L 149.257521 295.488 
L 152.53686 295.488 
L 155.816198 295.488 
L 159.095537 295.488 
L 162.374876 295.488 
L 165.654215 295.488 
L 168.933554 295.488 
L 172.212893 295.488 
L 175.492231 295.488 
L 178.77157 295.488 
L 182.050909 295.488 
L 185.330248 295.488 
L 188.609587 295.488 
L 191.888926 295.488 
L 195.168264 295.488 
L 198.447603 295.488 
L 201.726942 295.488 
L 205.006281 295.488 
L 208.28562 295.488 
L 211.564959 295.488 
L 214.844298 295.488 
L 218.123636 295.488 
L 221.402975 295.488 
L 224.682314 295.488 
L 227.961653 295.488 
L 231.240992 295.488 
L 234.520331 295.488 
L 237.799669 295.488 
L 241.079008 295.488 
L 244.358347 295.488 
L 247.637686 295.488 
L 250.917025 295.488 
L 254.196364 295.488 
L 257.475702 295.488 
L 260.755041 295.488 
L 264.03438 295.488 
L 267.313719 295.488 
L 270.593058 295.488 
L 273.872397 295.488 
L 277.151736 295.488 
L 280.431074 295.488 
L 283.710413 295.488 
L 286.989752 295.488 
L 290.269091 295.488 
L 293.54843 295.488 
L 296.827769 295.488 
L 300.107107 295.488 
L 303.386446 295.488 
L 306.665785 295.488 
L 309.945124 295.488 
L 313.224463 295.488 
L 316.503802 295.488 
L 319.78314 295.488 
L 323.062479 295.488 
L 326.341818 295.488 
L 329.621157 295.488 
L 332.900496 295.488 
L 336.179835 295.488 
L 339.459174 295.488 
L 342.738512 295.488 
L 346.017851 295.488 
L 349.29719 295.488 
L 352.576529 295.488 
L 355.855868 295.488 
L 359.135207 295.488 
L 362.414545 295.488 
L 365.693884 295.488 
L 368.973223 295.488 
L 372.252562 295.488 
L 375.531901 295.488 
L 378.81124 295.488 
L 382.090579 295.488 
L 385.369917 295.488 
L 388.649256 295.488 
L 391.928595 295.488 
L 395.207934 295.463808 
L 398.487273 295.463808 
" style="fill:none;stroke:#482374;stroke-linecap:round;stroke-width:1.2;"/>
   </g>
   <g id="line2d_15">
    <path clip-path="url(#p7e5f2e4c41)" d="M 73.832727 295.488 
L 77.112066 295.488 
L 80.391405 295.488 
L 83.670744 295.488 
L 86.950083 295.488 
L 90.229421 295.488 
L 93.50876 295.488 
L 96.788099 295.488 
L 100.067438 295.488 
L 103.346777 295.488 
L 106.626116 295.488 
L 109.905455 295.488 
L 113.184793 295.488 
L 116.464132 295.488 
L 119.743471 295.488 
L 123.02281 295.488 
L 126.302149 295.488 
L 129.581488 295.488 
L 132.860826 295.488 
L 136.140165 295.488 
L 139.419504 295.488 
L 142.698843 295.488 
L 145.978182 295.488 
L 149.257521 295.488 
L 152.53686 295.488 
L 155.816198 295.488 
L 159.095537 295.488 
L 162.374876 295.488 
L 165.654215 295.488 
L 168.933554 295.488 
L 172.212893 295.488 
L 175.492231 295.488 
L 178.77157 295.488 
L 182.050909 295.488 
L 185.330248 295.488 
L 188.609587 295.488 
L 191.888926 295.488 
L 195.168264 295.488 
L 198.447603 295.488 
L 201.726942 295.488 
L 205.006281 295.488 
L 208.28562 295.488 
L 211.564959 295.488 
L 214.844298 295.488 
L 218.123636 295.488 
L 221.402975 295.488 
L 224.682314 295.488 
L 227.961653 295.488 
L 231.240992 295.488 
L 234.520331 295.488 
L 237.799669 295.488 
L 241.079008 295.488 
L 244.358347 295.488 
L 247.637686 295.488 
L 250.917025 295.488 
L 254.196364 295.488 
L 257.475702 295.488 
L 260.755041 295.488 
L 264.03438 295.488 
L 267.313719 295.488 
L 270.593058 295.488 
L 273.872397 295.488 
L 277.151736 295.488 
L 280.431074 295.488 
L 283.710413 295.488 
L 286.989752 295.488 
L 290.269091 295.488 
L 293.54843 295.488 
L 296.827769 295.488 
L 300.107107 295.488 
L 303.386446 295.488 
L 306.665785 295.488 
L 309.945124 295.488 
L 313.224463 295.488 
L 316.503802 295.488 
L 319.78314 295.488 
L 323.062479 295.488 
L 326.341818 295.488 
L 329.621157 295.463808 
L 332.900496 295.463808 
L 336.179835 295.463808 
L 339.459174 295.463808 
L 342.738512 295.463808 
L 346.017851 295.439616 
L 349.29719 295.439616 
L 352.576529 295.439616 
L 355.855868 295.391232 
L 359.135207 295.391232 
L 362.414545 295.391232 
L 365.693884 295.342848 
L 368.973223 295.270272 
L 372.252562 295.270272 
L 375.531901 295.270272 
L 378.81124 295.221888 
L 382.090579 295.221888 
L 385.369917 295.149312 
L 388.649256 295.076736 
L 391.928595 295.028352 
L 395.207934 295.028352 
L 398.487273 294.907392 
" style="fill:none;stroke:#46327e;stroke-linecap:round;stroke-width:1.2;"/>
   </g>
   <g id="line2d_16">
    <path clip-path="url(#p7e5f2e4c41)" d="M 73.832727 295.488 
L 77.112066 295.488 
L 80.391405 295.488 
L 83.670744 295.488 
L 86.950083 295.488 
L 90.229421 295.488 
L 93.50876 295.488 
L 96.788099 295.488 
L 100.067438 295.488 
L 103.346777 295.488 
L 106.626116 295.488 
L 109.905455 295.488 
L 113.184793 295.488 
L 116.464132 295.488 
L 119.743471 295.488 
L 123.02281 295.488 
L 126.302149 295.488 
L 129.581488 295.488 
L 132.860826 295.488 
L 136.140165 295.488 
L 139.419504 295.488 
L 142.698843 295.488 
L 145.978182 295.488 
L 149.257521 295.488 
L 152.53686 295.488 
L 155.816198 295.488 
L 159.095537 295.488 
L 162.374876 295.488 
L 165.654215 295.488 
L 168.933554 295.488 
L 172.212893 295.488 
L 175.492231 295.488 
L 178.77157 295.488 
L 182.050909 295.488 
L 185.330248 295.488 
L 188.609587 295.488 
L 191.888926 295.488 
L 195.168264 295.488 
L 198.447603 295.488 
L 201.726942 295.488 
L 205.006281 295.488 
L 208.28562 295.488 
L 211.564959 295.488 
L 214.844298 295.488 
L 218.123636 295.488 
L 221.402975 295.488 
L 224.682314 295.488 
L 227.961653 295.488 
L 231.240992 295.488 
L 234.520331 295.488 
L 237.799669 295.488 
L 241.079008 295.488 
L 244.358347 295.488 
L 247.637686 295.488 
L 250.917025 295.488 
L 254.196364 295.488 
L 257.475702 295.488 
L 260.755041 295.488 
L 264.03438 295.488 
L 267.313719 295.488 
L 270.593058 295.488 
L 273.872397 295.488 
L 277.151736 295.488 
L 280.431074 295.488 
L 283.710413 295.439616 
L 286.989752 295.439616 
L 290.269091 295.36704 
L 293.54843 295.36704 
L 296.827769 295.36704 
L 300.107107 295.342848 
L 303.386446 295.294464 
L 306.665785 295.24608 
L 309.945124 295.197696 
L 313.224463 295.173504 
L 316.503802 295.076736 
L 319.78314 295.00416 
L 323.062479 294.8832 
L 326.341818 294.786432 
L 329.621157 294.568704 
L 332.900496 294.447744 
L 336.179835 294.375168 
L 339.459174 294.2784 
L 342.738512 294.060672 
L 346.017851 293.939712 
L 349.29719 293.79456 
L 352.576529 293.55264 
L 355.855868 293.238144 
L 359.135207 292.802688 
L 362.414545 292.439808 
L 365.693884 292.028544 
L 368.973223 291.568896 
L 372.252562 291.060864 
L 375.531901 290.335104 
L 378.81124 289.536768 
L 382.090579 288.520704 
L 385.369917 287.553024 
L 388.649256 286.367616 
L 391.928595 285.037056 
L 395.207934 283.779072 
L 398.487273 282.642048 
" style="fill:none;stroke:#424086;stroke-linecap:round;stroke-width:1.2;"/>
   </g>
   <g id="line2d_17">
    <path clip-path="url(#p7e5f2e4c41)" d="M 73.832727 295.488 
L 77.112066 295.488 
L 80.391405 295.488 
L 83.670744 295.488 
L 86.950083 295.488 
L 90.229421 295.488 
L 93.50876 295.488 
L 96.788099 295.488 
L 100.067438 295.488 
L 103.346777 295.488 
L 106.626116 295.488 
L 109.905455 295.488 
L 113.184793 295.488 
L 116.464132 295.488 
L 119.743471 295.488 
L 123.02281 295.488 
L 126.302149 295.488 
L 129.581488 295.488 
L 132.860826 295.488 
L 136.140165 295.488 
L 139.419504 295.488 
L 142.698843 295.488 
L 145.978182 295.488 
L 149.257521 295.488 
L 152.53686 295.488 
L 155.816198 295.488 
L 159.095537 295.488 
L 162.374876 295.488 
L 165.654215 295.488 
L 168.933554 295.488 
L 172.212893 295.488 
L 175.492231 295.488 
L 178.77157 295.488 
L 182.050909 295.488 
L 185.330248 295.488 
L 188.609587 295.488 
L 191.888926 295.488 
L 195.168264 295.488 
L 198.447603 295.488 
L 201.726942 295.488 
L 205.006281 295.488 
L 208.28562 295.488 
L 211.564959 295.488 
L 214.844298 295.488 
L 218.123636 295.488 
L 221.402975 295.488 
L 224.682314 295.463808 
L 227.961653 295.463808 
L 231.240992 295.439616 
L 234.520331 295.439616 
L 237.799669 295.439616 
L 241.079008 295.391232 
L 244.358347 295.391232 
L 247.637686 295.36704 
L 250.917025 295.294464 
L 254.196364 295.221888 
L 257.475702 295.12512 
L 260.755041 295.100928 
L 264.03438 295.028352 
L 267.313719 294.907392 
L 270.593058 294.738048 
L 273.872397 294.471936 
L 277.151736 294.205824 
L 280.431074 293.867136 
L 283.710413 293.601024 
L 286.989752 293.213952 
L 290.269091 292.778496 
L 293.54843 292.10112 
L 296.827769 291.665664 
L 300.107107 291.181824 
L 303.386446 290.28672 
L 306.665785 289.488384 
L 309.945124 288.520704 
L 313.224463 287.335296 
L 316.503802 285.835392 
L 319.78314 284.141952 
L 323.062479 282.521088 
L 326.341818 281.263104 
L 329.621157 279.666432 
L 332.900496 277.416576 
L 336.179835 275.094144 
L 339.459174 272.118528 
L 342.738512 268.562304 
L 346.017851 265.417344 
L 349.29719 261.546624 
L 352.576529 258.038784 
L 355.855868 254.434176 
L 359.135207 250.297344 
L 362.414545 245.337984 
L 365.693884 240.838272 
L 368.973223 235.419264 
L 372.252562 229.80672 
L 375.531901 223.87968 
L 378.81124 217.154304 
L 382.090579 210.501504 
L 385.369917 203.534208 
L 388.649256 196.494336 
L 391.928595 189.623808 
L 395.207934 182.850048 
L 398.487273 174.987648 
" style="fill:none;stroke:#3d4e8a;stroke-linecap:round;stroke-width:1.2;"/>
   </g>
   <g id="line2d_18">
    <path clip-path="url(#p7e5f2e4c41)" d="M 73.832727 295.488 
L 77.112066 295.488 
L 80.391405 295.488 
L 83.670744 295.488 
L 86.950083 295.488 
L 90.229421 295.488 
L 93.50876 295.488 
L 96.788099 295.488 
L 100.067438 295.488 
L 103.346777 295.488 
L 106.626116 295.488 
L 109.905455 295.488 
L 113.184793 295.488 
L 116.464132 295.488 
L 119.743471 295.488 
L 123.02281 295.488 
L 126.302149 295.488 
L 129.581488 295.488 
L 132.860826 295.488 
L 136.140165 295.488 
L 139.419504 295.488 
L 142.698843 295.488 
L 145.978182 295.488 
L 149.257521 295.488 
L 152.53686 295.488 
L 155.816198 295.488 
L 159.095537 295.488 
L 162.374876 295.488 
L 165.654215 295.488 
L 168.933554 295.488 
L 172.212893 295.488 
L 175.492231 295.488 
L 178.77157 295.488 
L 182.050909 295.488 
L 185.330248 295.488 
L 188.609587 295.488 
L 191.888926 295.488 
L 195.168264 295.488 
L 198.447603 295.463808 
L 201.726942 295.439616 
L 205.006281 295.415424 
L 208.28562 295.391232 
L 211.564959 295.36704 
L 214.844298 295.221888 
L 218.123636 295.149312 
L 221.402975 295.052544 
L 224.682314 294.859008 
L 227.961653 294.592896 
L 231.240992 294.084864 
L 234.520331 293.649408 
L 237.799669 293.286528 
L 241.079008 292.923648 
L 244.358347 292.10112 
L 247.637686 291.447936 
L 250.917025 290.262528 
L 254.196364 288.883584 
L 257.475702 287.673984 
L 260.755041 285.93216 
L 264.03438 284.093568 
L 267.313719 282.037248 
L 270.593058 280.029312 
L 273.872397 277.440768 
L 277.151736 274.271616 
L 280.431074 271.005696 
L 283.710413 267.594624 
L 286.989752 263.19168 
L 290.269091 258.71616 
L 293.54843 254.216448 
L 296.827769 248.410368 
L 300.107107 242.822016 
L 303.386446 236.45952 
L 306.665785 230.193792 
L 309.945124 222.815232 
L 313.224463 214.880256 
L 316.503802 206.267904 
L 319.78314 198.647424 
L 323.062479 189.720576 
L 326.341818 181.30176 
L 329.621157 172.253952 
L 332.900496 162.79488 
L 336.179835 154.32768 
L 339.459174 145.933056 
L 342.738512 136.570752 
L 346.017851 128.5632 
L 349.29719 120.7008 
L 352.576529 112.886784 
L 355.855868 105.33888 
L 359.135207 98.299008 
L 362.414545 91.718784 
L 365.693884 85.86432 
L 368.973223 80.30016 
L 372.252562 75.873024 
L 375.531901 71.881344 
L 378.81124 68.470272 
L 382.090579 65.881728 
L 385.369917 63.36576 
L 388.649256 61.478784 
L 391.928595 59.833728 
L 395.207934 58.382208 
L 398.487273 57.245184 
" style="fill:none;stroke:#365c8d;stroke-linecap:round;stroke-width:1.2;"/>
   </g>
   <g id="line2d_19">
    <path clip-path="url(#p7e5f2e4c41)" d="M 73.832727 295.488 
L 77.112066 295.488 
L 80.391405 295.488 
L 83.670744 295.488 
L 86.950083 295.488 
L 90.229421 295.488 
L 93.50876 295.488 
L 96.788099 295.488 
L 100.067438 295.488 
L 103.346777 295.488 
L 106.626116 295.488 
L 109.905455 295.488 
L 113.184793 295.488 
L 116.464132 295.488 
L 119.743471 295.488 
L 123.02281 295.488 
L 126.302149 295.488 
L 129.581488 295.488 
L 132.860826 295.488 
L 136.140165 295.488 
L 139.419504 295.488 
L 142.698843 295.488 
L 145.978182 295.488 
L 149.257521 295.488 
L 152.53686 295.488 
L 155.816198 295.488 
L 159.095537 295.488 
L 162.374876 295.488 
L 165.654215 295.439616 
L 168.933554 295.36704 
L 172.212893 295.318656 
L 175.492231 295.24608 
L 178.77157 295.12512 
L 182.050909 295.028352 
L 185.330248 294.834816 
L 188.609587 294.592896 
L 191.888926 294.2784 
L 195.168264 293.939712 
L 198.447603 293.359104 
L 201.726942 292.633344 
L 205.006281 291.689856 
L 208.28562 290.577024 
L 211.564959 289.56096 
L 214.844298 287.649792 
L 218.123636 285.375744 
L 221.402975 282.714624 
L 224.682314 279.27936 
L 227.961653 275.795712 
L 231.240992 271.755648 
L 234.520331 266.69952 
L 237.799669 261.643392 
L 241.079008 254.918016 
L 244.358347 248.67648 
L 247.637686 241.805952 
L 250.917025 234.475776 
L 254.196364 226.492416 
L 257.475702 217.855872 
L 260.755041 208.058112 
L 264.03438 198.59904 
L 267.313719 189.16416 
L 270.593058 177.987456 
L 273.872397 167.004288 
L 277.151736 156.50496 
L 280.431074 146.852352 
L 283.710413 136.594944 
L 286.989752 126.676224 
L 290.269091 117.168768 
L 293.54843 108.943488 
L 296.827769 101.10528 
L 300.107107 93.702528 
L 303.386446 86.95296 
L 306.665785 81.001728 
L 309.945124 76.18752 
L 313.224463 71.83296 
L 316.503802 67.792896 
L 319.78314 64.526976 
L 323.062479 61.986816 
L 326.341818 60.075648 
L 329.621157 58.551552 
L 332.900496 57.124224 
L 336.179835 56.10816 
L 339.459174 55.285632 
L 342.738512 54.705024 
L 346.017851 54.342144 
L 349.29719 54.076032 
L 352.576529 53.858304 
L 355.855868 53.713152 
L 359.135207 53.640576 
L 362.414545 53.568 
L 365.693884 53.568 
L 368.973223 53.568 
L 372.252562 53.568 
L 375.531901 53.568 
L 378.81124 53.568 
L 382.090579 53.568 
L 385.369917 53.568 
L 388.649256 53.568 
L 391.928595 53.568 
L 395.207934 53.568 
L 398.487273 53.568 
" style="fill:none;stroke:#31688e;stroke-linecap:round;stroke-width:1.2;"/>
   </g>
   <g id="line2d_20">
    <path clip-path="url(#p7e5f2e4c41)" d="M 73.832727 295.488 
L 77.112066 295.488 
L 80.391405 295.488 
L 83.670744 295.488 
L 86.950083 295.488 
L 90.229421 295.488 
L 93.50876 295.488 
L 96.788099 295.488 
L 100.067438 295.488 
L 103.346777 295.488 
L 106.626116 295.488 
L 109.905455 295.488 
L 113.184793 295.488 
L 116.464132 295.488 
L 119.743471 295.463808 
L 123.02281 295.463808 
L 126.302149 295.463808 
L 129.581488 295.463808 
L 132.860826 295.463808 
L 136.140165 295.439616 
L 139.419504 295.391232 
L 142.698843 295.318656 
L 145.978182 295.173504 
L 149.257521 295.149312 
L 152.53686 295.100928 
L 155.816198 295.00416 
L 159.095537 294.810624 
L 162.374876 294.568704 
L 165.654215 294.03648 
L 168.933554 293.359104 
L 172.212893 292.076928 
L 175.492231 290.746368 
L 178.77157 289.657728 
L 182.050909 287.407872 
L 185.330248 284.84352 
L 188.609587 281.021184 
L 191.888926 276.763392 
L 195.168264 271.610496 
L 198.447603 264.715776 
L 201.726942 256.345344 
L 205.006281 246.86208 
L 208.28562 236.774016 
L 211.564959 225.621504 
L 214.844298 212.50944 
L 218.123636 198.986112 
L 221.402975 184.737024 
L 224.682314 171.358848 
L 227.961653 157.303296 
L 231.240992 143.731584 
L 234.520331 130.86144 
L 237.799669 119.442816 
L 241.079008 108.870912 
L 244.358347 99.145728 
L 247.637686 89.662464 
L 250.917025 82.23552 
L 254.196364 76.114944 
L 257.475702 70.98624 
L 260.755041 66.825216 
L 264.03438 63.12384 
L 267.313719 60.801408 
L 270.593058 58.551552 
L 273.872397 57.124224 
L 277.151736 55.842048 
L 280.431074 54.850176 
L 283.710413 54.487296 
L 286.989752 54.1728 
L 290.269091 53.93088 
L 293.54843 53.834112 
L 296.827769 53.785728 
L 300.107107 53.640576 
L 303.386446 53.568 
L 306.665785 53.568 
L 309.945124 53.568 
L 313.224463 53.568 
L 316.503802 53.568 
L 319.78314 53.568 
L 323.062479 53.568 
L 326.341818 53.568 
L 329.621157 53.568 
L 332.900496 53.568 
L 336.179835 53.568 
L 339.459174 53.568 
L 342.738512 53.568 
L 346.017851 53.568 
L 349.29719 53.568 
L 352.576529 53.568 
L 355.855868 53.568 
L 359.135207 53.568 
L 362.414545 53.568 
L 365.693884 53.568 
L 368.973223 53.568 
L 372.252562 53.568 
L 375.531901 53.568 
L 378.81124 53.568 
L 382.090579 53.568 
L 385.369917 53.568 
L 388.649256 53.568 
L 391.928595 53.568 
L 395.207934 53.568 
L 398.487273 53.568 
" style="fill:none;stroke:#2c738e;stroke-linecap:round;stroke-width:1.2;"/>
   </g>
   <g id="line2d_21">
    <path clip-path="url(#p7e5f2e4c41)" d="M 73.832727 295.488 
L 77.112066 295.488 
L 80.391405 295.488 
L 83.670744 295.488 
L 86.950083 295.488 
L 90.229421 295.488 
L 93.50876 295.488 
L 96.788099 295.488 
L 100.067438 295.488 
L 103.346777 295.488 
L 106.626116 295.488 
L 109.905455 295.488 
L 113.184793 295.463808 
L 116.464132 295.463808 
L 119.743471 295.391232 
L 123.02281 295.391232 
L 126.302149 295.342848 
L 129.581488 295.197696 
L 132.860826 294.859008 
L 136.140165 294.447744 
L 139.419504 293.842944 
L 142.698843 293.141376 
L 145.978182 292.125312 
L 149.257521 290.794752 
L 152.53686 289.052928 
L 155.816198 286.827264 
L 159.095537 283.75488 
L 162.374876 279.255168 
L 165.654215 273.642624 
L 168.933554 266.772096 
L 172.212893 258.667776 
L 175.492231 249.668352 
L 178.77157 236.94336 
L 182.050909 223.105536 
L 185.330248 207.283968 
L 188.609587 191.196288 
L 191.888926 173.850624 
L 195.168264 156.601728 
L 198.447603 138.868992 
L 201.726942 121.66848 
L 205.006281 105.435648 
L 208.28562 92.444544 
L 211.564959 81.921024 
L 214.844298 73.139328 
L 218.123636 66.075264 
L 221.402975 61.623936 
L 224.682314 58.28544 
L 227.961653 55.86624 
L 231.240992 54.874368 
L 234.520331 54.124416 
L 237.799669 53.80992 
L 241.079008 53.664768 
L 244.358347 53.616384 
L 247.637686 53.592192 
L 250.917025 53.592192 
L 254.196364 53.568 
L 257.475702 53.568 
L 260.755041 53.568 
L 264.03438 53.568 
L 267.313719 53.568 
L 270.593058 53.568 
L 273.872397 53.568 
L 277.151736 53.568 
L 280.431074 53.568 
L 283.710413 53.568 
L 286.989752 53.568 
L 290.269091 53.568 
L 293.54843 53.568 
L 296.827769 53.568 
L 300.107107 53.568 
L 303.386446 53.568 
L 306.665785 53.568 
L 309.945124 53.568 
L 313.224463 53.568 
L 316.503802 53.568 
L 319.78314 53.568 
L 323.062479 53.568 
L 326.341818 53.568 
L 329.621157 53.568 
L 332.900496 53.568 
L 336.179835 53.568 
L 339.459174 53.568 
L 342.738512 53.568 
L 346.017851 53.568 
L 349.29719 53.568 
L 352.576529 53.568 
L 355.855868 53.568 
L 359.135207 53.568 
L 362.414545 53.568 
L 365.693884 53.568 
L 368.973223 53.568 
L 372.252562 53.568 
L 375.531901 53.568 
L 378.81124 53.568 
L 382.090579 53.568 
L 385.369917 53.568 
L 388.649256 53.568 
L 391.928595 53.568 
L 395.207934 53.568 
L 398.487273 53.568 
" style="fill:none;stroke:#277f8e;stroke-linecap:round;stroke-width:1.2;"/>
   </g>
   <g id="line2d_22">
    <path clip-path="url(#p7e5f2e4c41)" d="M 73.832727 295.488 
L 77.112066 295.488 
L 80.391405 295.488 
L 83.670744 295.488 
L 86.950083 295.488 
L 90.229421 295.488 
L 93.50876 295.463808 
L 96.788099 295.463808 
L 100.067438 295.415424 
L 103.346777 295.318656 
L 106.626116 295.24608 
L 109.905455 294.8832 
L 113.184793 294.786432 
L 116.464132 294.375168 
L 119.743471 293.625216 
L 123.02281 292.488192 
L 126.302149 291.036672 
L 129.581488 288.665856 
L 132.860826 284.48064 
L 136.140165 278.868096 
L 139.419504 271.126656 
L 142.698843 261.425664 
L 145.978182 251.434368 
L 149.257521 239.193216 
L 152.53686 225.21024 
L 155.816198 210.162816 
L 159.095537 194.268672 
L 162.374876 176.414976 
L 165.654215 159.16608 
L 168.933554 141.98976 
L 172.212893 125.78112 
L 175.492231 109.112832 
L 178.77157 95.66208 
L 182.050909 84.606336 
L 185.330248 74.324736 
L 188.609587 66.8736 
L 191.888926 61.696512 
L 195.168264 58.237056 
L 198.447603 55.963008 
L 201.726942 54.705024 
L 205.006281 54.124416 
L 208.28562 53.713152 
L 211.564959 53.592192 
L 214.844298 53.568 
L 218.123636 53.568 
L 221.402975 53.568 
L 224.682314 53.568 
L 227.961653 53.568 
L 231.240992 53.568 
L 234.520331 53.568 
L 237.799669 53.568 
L 241.079008 53.568 
L 244.358347 53.568 
L 247.637686 53.568 
L 250.917025 53.568 
L 254.196364 53.568 
L 257.475702 53.568 
L 260.755041 53.568 
L 264.03438 53.568 
L 267.313719 53.568 
L 270.593058 53.568 
L 273.872397 53.568 
L 277.151736 53.568 
L 280.431074 53.568 
L 283.710413 53.568 
L 286.989752 53.568 
L 290.269091 53.568 
L 293.54843 53.568 
L 296.827769 53.568 
L 300.107107 53.568 
L 303.386446 53.568 
L 306.665785 53.568 
L 309.945124 53.568 
L 313.224463 53.568 
L 316.503802 53.568 
L 319.78314 53.568 
L 323.062479 53.568 
L 326.341818 53.568 
L 329.621157 53.568 
L 332.900496 53.568 
L 336.179835 53.568 
L 339.459174 53.568 
L 342.738512 53.568 
L 346.017851 53.568 
L 349.29719 53.568 
L 352.576529 53.568 
L 355.855868 53.568 
L 359.135207 53.568 
L 362.414545 53.568 
L 365.693884 53.568 
L 368.973223 53.568 
L 372.252562 53.568 
L 375.531901 53.568 
L 378.81124 53.568 
L 382.090579 53.568 
L 385.369917 53.568 
L 388.649256 53.568 
L 391.928595 53.568 
L 395.207934 53.568 
L 398.487273 53.568 
" style="fill:none;stroke:#238a8d;stroke-linecap:round;stroke-width:1.2;"/>
   </g>
   <g id="patch_3">
    <path d="M 57.6 307.584 
L 57.6 41.472 
" style="fill:none;stroke:#262626;stroke-linecap:square;stroke-linejoin:miter;"/>
   </g>
   <g id="patch_4">
    <path d="M 414.72 307.584 
L 414.72 41.472 
" style="fill:none;stroke:#262626;stroke-linecap:square;stroke-linejoin:miter;"/>
   </g>
   <g id="patch_5">
    <path d="M 57.6 307.584 
L 414.72 307.584 
" style="fill:none;stroke:#262626;stroke-linecap:square;stroke-linejoin:miter;"/>
   </g>
   <g id="patch_6">
    <path d="M 57.6 41.472 
L 414.72 41.472 
" style="fill:none;stroke:#262626;stroke-linecap:square;stroke-linejoin:miter;"/>
   </g>
   <g id="legend_1">
    <g id="patch_7">
     <path d="M 63.76 191.3705 
L 120.287625 191.3705 
Q 122.047625 191.3705 122.047625 189.6105 
L 122.047625 47.632 
Q 122.047625 45.872 120.287625 45.872 
L 63.76 45.872 
Q 62 45.872 62 47.632 
L 62 189.6105 
Q 62 191.3705 63.76 191.3705 
z
" style="fill:#ffffff;opacity:0.8;stroke:#cccccc;stroke-linejoin:miter;stroke-width:0.8;"/>
    </g>
    <g id="text_15">
     <!-- log(p) -->
     <defs>
      <path d="M 30.609375 48.390625 
Q 23.390625 48.390625 19.1875 42.75 
Q 14.984375 37.109375 14.984375 27.296875 
Q 14.984375 17.484375 19.15625 11.84375 
Q 23.34375 6.203125 30.609375 6.203125 
Q 37.796875 6.203125 41.984375 11.859375 
Q 46.1875 17.53125 46.1875 27.296875 
Q 46.1875 37.015625 41.984375 42.703125 
Q 37.796875 48.390625 30.609375 48.390625 
z
M 30.609375 56 
Q 42.328125 56 49.015625 48.375 
Q 55.71875 40.765625 55.71875 27.296875 
Q 55.71875 13.875 49.015625 6.21875 
Q 42.328125 -1.421875 30.609375 -1.421875 
Q 18.84375 -1.421875 12.171875 6.21875 
Q 5.515625 13.875 5.515625 27.296875 
Q 5.515625 40.765625 12.171875 48.375 
Q 18.84375 56 30.609375 56 
z
" id="DejaVuSans-6f"/>
      <path d="M 45.40625 27.984375 
Q 45.40625 37.75 41.375 43.109375 
Q 37.359375 48.484375 30.078125 48.484375 
Q 22.859375 48.484375 18.828125 43.109375 
Q 14.796875 37.75 14.796875 27.984375 
Q 14.796875 18.265625 18.828125 12.890625 
Q 22.859375 7.515625 30.078125 7.515625 
Q 37.359375 7.515625 41.375 12.890625 
Q 45.40625 18.265625 45.40625 27.984375 
z
M 54.390625 6.78125 
Q 54.390625 -7.171875 48.1875 -13.984375 
Q 42 -20.796875 29.203125 -20.796875 
Q 24.46875 -20.796875 20.265625 -20.09375 
Q 16.0625 -19.390625 12.109375 -17.921875 
L 12.109375 -9.1875 
Q 16.0625 -11.328125 19.921875 -12.34375 
Q 23.78125 -13.375 27.78125 -13.375 
Q 36.625 -13.375 41.015625 -8.765625 
Q 45.40625 -4.15625 45.40625 5.171875 
L 45.40625 9.625 
Q 42.625 4.78125 38.28125 2.390625 
Q 33.9375 0 27.875 0 
Q 17.828125 0 11.671875 7.65625 
Q 5.515625 15.328125 5.515625 27.984375 
Q 5.515625 40.671875 11.671875 48.328125 
Q 17.828125 56 27.875 56 
Q 33.9375 56 38.28125 53.609375 
Q 42.625 51.21875 45.40625 46.390625 
L 45.40625 54.6875 
L 54.390625 54.6875 
z
" id="DejaVuSans-67"/>
      <path d="M 18.109375 8.203125 
L 18.109375 -20.796875 
L 9.078125 -20.796875 
L 9.078125 54.6875 
L 18.109375 54.6875 
L 18.109375 46.390625 
Q 20.953125 51.265625 25.265625 53.625 
Q 29.59375 56 35.59375 56 
Q 45.5625 56 51.78125 48.09375 
Q 58.015625 40.1875 58.015625 27.296875 
Q 58.015625 14.40625 51.78125 6.484375 
Q 45.5625 -1.421875 35.59375 -1.421875 
Q 29.59375 -1.421875 25.265625 0.953125 
Q 20.953125 3.328125 18.109375 8.203125 
z
M 48.6875 27.296875 
Q 48.6875 37.203125 44.609375 42.84375 
Q 40.53125 48.484375 33.40625 48.484375 
Q 26.265625 48.484375 22.1875 42.84375 
Q 18.109375 37.203125 18.109375 27.296875 
Q 18.109375 17.390625 22.1875 11.75 
Q 26.265625 6.109375 33.40625 6.109375 
Q 40.53125 6.109375 44.609375 11.75 
Q 48.6875 17.390625 48.6875 27.296875 
z
" id="DejaVuSans-70"/>
     </defs>
     <g style="fill:#262626;" transform="translate(77.913313 56.6865)scale(0.096 -0.096)">
      <use xlink:href="#DejaVuSans-6c"/>
      <use x="27.783203" xlink:href="#DejaVuSans-6f"/>
      <use x="88.964844" xlink:href="#DejaVuSans-67"/>
      <use x="152.441406" xlink:href="#DejaVuSans-28"/>
      <use x="191.455078" xlink:href="#DejaVuSans-70"/>
      <use x="254.931641" xlink:href="#DejaVuSans-29"/>
     </g>
    </g>
    <g id="line2d_23">
     <path d="M 65.52 66.689625 
L 83.12 66.689625 
" style="fill:none;stroke:#471365;stroke-linecap:round;stroke-width:1.2;"/>
    </g>
    <g id="line2d_24"/>
    <g id="text_16">
     <!-- -10.42 -->
     <defs>
      <path d="M 4.890625 31.390625 
L 31.203125 31.390625 
L 31.203125 23.390625 
L 4.890625 23.390625 
z
" id="DejaVuSans-2d"/>
      <path d="M 10.6875 12.40625 
L 21 12.40625 
L 21 0 
L 10.6875 0 
z
" id="DejaVuSans-2e"/>
     </defs>
     <g style="fill:#262626;" transform="translate(90.16 69.769625)scale(0.088 -0.088)">
      <use xlink:href="#DejaVuSans-2d"/>
      <use x="36.083984" xlink:href="#DejaVuSans-31"/>
      <use x="99.707031" xlink:href="#DejaVuSans-30"/>
      <use x="163.330078" xlink:href="#DejaVuSans-2e"/>
      <use x="195.117188" xlink:href="#DejaVuSans-34"/>
      <use x="258.740234" xlink:href="#DejaVuSans-32"/>
     </g>
    </g>
    <g id="line2d_25">
     <path d="M 65.52 79.606375 
L 83.12 79.606375 
" style="fill:none;stroke:#482374;stroke-linecap:round;stroke-width:1.2;"/>
    </g>
    <g id="line2d_26"/>
    <g id="text_17">
     <!-- -9.99 -->
     <defs>
      <path d="M 10.984375 1.515625 
L 10.984375 10.5 
Q 14.703125 8.734375 18.5 7.8125 
Q 22.3125 6.890625 25.984375 6.890625 
Q 35.75 6.890625 40.890625 13.453125 
Q 46.046875 20.015625 46.78125 33.40625 
Q 43.953125 29.203125 39.59375 26.953125 
Q 35.25 24.703125 29.984375 24.703125 
Q 19.046875 24.703125 12.671875 31.3125 
Q 6.296875 37.9375 6.296875 49.421875 
Q 6.296875 60.640625 12.9375 67.421875 
Q 19.578125 74.21875 30.609375 74.21875 
Q 43.265625 74.21875 49.921875 64.515625 
Q 56.59375 54.828125 56.59375 36.375 
Q 56.59375 19.140625 48.40625 8.859375 
Q 40.234375 -1.421875 26.421875 -1.421875 
Q 22.703125 -1.421875 18.890625 -0.6875 
Q 15.09375 0.046875 10.984375 1.515625 
z
M 30.609375 32.421875 
Q 37.25 32.421875 41.125 36.953125 
Q 45.015625 41.5 45.015625 49.421875 
Q 45.015625 57.28125 41.125 61.84375 
Q 37.25 66.40625 30.609375 66.40625 
Q 23.96875 66.40625 20.09375 61.84375 
Q 16.21875 57.28125 16.21875 49.421875 
Q 16.21875 41.5 20.09375 36.953125 
Q 23.96875 32.421875 30.609375 32.421875 
z
" id="DejaVuSans-39"/>
     </defs>
     <g style="fill:#262626;" transform="translate(90.16 82.686375)scale(0.088 -0.088)">
      <use xlink:href="#DejaVuSans-2d"/>
      <use x="36.083984" xlink:href="#DejaVuSans-39"/>
      <use x="99.707031" xlink:href="#DejaVuSans-2e"/>
      <use x="131.494141" xlink:href="#DejaVuSans-39"/>
      <use x="195.117188" xlink:href="#DejaVuSans-39"/>
     </g>
    </g>
    <g id="line2d_27">
     <path d="M 65.52 92.523125 
L 83.12 92.523125 
" style="fill:none;stroke:#46327e;stroke-linecap:round;stroke-width:1.2;"/>
    </g>
    <g id="line2d_28"/>
    <g id="text_18">
     <!-- -9.55 -->
     <defs>
      <path d="M 10.796875 72.90625 
L 49.515625 72.90625 
L 49.515625 64.59375 
L 19.828125 64.59375 
L 19.828125 46.734375 
Q 21.96875 47.46875 24.109375 47.828125 
Q 26.265625 48.1875 28.421875 48.1875 
Q 40.625 48.1875 47.75 41.5 
Q 54.890625 34.8125 54.890625 23.390625 
Q 54.890625 11.625 47.5625 5.09375 
Q 40.234375 -1.421875 26.90625 -1.421875 
Q 22.3125 -1.421875 17.546875 -0.640625 
Q 12.796875 0.140625 7.71875 1.703125 
L 7.71875 11.625 
Q 12.109375 9.234375 16.796875 8.0625 
Q 21.484375 6.890625 26.703125 6.890625 
Q 35.15625 6.890625 40.078125 11.328125 
Q 45.015625 15.765625 45.015625 23.390625 
Q 45.015625 31 40.078125 35.4375 
Q 35.15625 39.890625 26.703125 39.890625 
Q 22.75 39.890625 18.8125 39.015625 
Q 14.890625 38.140625 10.796875 36.28125 
z
" id="DejaVuSans-35"/>
     </defs>
     <g style="fill:#262626;" transform="translate(90.16 95.603125)scale(0.088 -0.088)">
      <use xlink:href="#DejaVuSans-2d"/>
      <use x="36.083984" xlink:href="#DejaVuSans-39"/>
      <use x="99.707031" xlink:href="#DejaVuSans-2e"/>
      <use x="131.494141" xlink:href="#DejaVuSans-35"/>
      <use x="195.117188" xlink:href="#DejaVuSans-35"/>
     </g>
    </g>
    <g id="line2d_29">
     <path d="M 65.52 105.439875 
L 83.12 105.439875 
" style="fill:none;stroke:#424086;stroke-linecap:round;stroke-width:1.2;"/>
    </g>
    <g id="line2d_30"/>
    <g id="text_19">
     <!-- -9.12 -->
     <g style="fill:#262626;" transform="translate(90.16 108.519875)scale(0.088 -0.088)">
      <use xlink:href="#DejaVuSans-2d"/>
      <use x="36.083984" xlink:href="#DejaVuSans-39"/>
      <use x="99.707031" xlink:href="#DejaVuSans-2e"/>
      <use x="131.494141" xlink:href="#DejaVuSans-31"/>
      <use x="195.117188" xlink:href="#DejaVuSans-32"/>
     </g>
    </g>
    <g id="line2d_31">
     <path d="M 65.52 118.356625 
L 83.12 118.356625 
" style="fill:none;stroke:#3d4e8a;stroke-linecap:round;stroke-width:1.2;"/>
    </g>
    <g id="line2d_32"/>
    <g id="text_20">
     <!-- -8.69 -->
     <g style="fill:#262626;" transform="translate(90.16 121.436625)scale(0.088 -0.088)">
      <use xlink:href="#DejaVuSans-2d"/>
      <use x="36.083984" xlink:href="#DejaVuSans-38"/>
      <use x="99.707031" xlink:href="#DejaVuSans-2e"/>
      <use x="131.494141" xlink:href="#DejaVuSans-36"/>
      <use x="195.117188" xlink:href="#DejaVuSans-39"/>
     </g>
    </g>
    <g id="line2d_33">
     <path d="M 65.52 131.273375 
L 83.12 131.273375 
" style="fill:none;stroke:#365c8d;stroke-linecap:round;stroke-width:1.2;"/>
    </g>
    <g id="line2d_34"/>
    <g id="text_21">
     <!-- -8.25 -->
     <g style="fill:#262626;" transform="translate(90.16 134.353375)scale(0.088 -0.088)">
      <use xlink:href="#DejaVuSans-2d"/>
      <use x="36.083984" xlink:href="#DejaVuSans-38"/>
      <use x="99.707031" xlink:href="#DejaVuSans-2e"/>
      <use x="131.494141" xlink:href="#DejaVuSans-32"/>
      <use x="195.117188" xlink:href="#DejaVuSans-35"/>
     </g>
    </g>
    <g id="line2d_35">
     <path d="M 65.52 144.190125 
L 83.12 144.190125 
" style="fill:none;stroke:#31688e;stroke-linecap:round;stroke-width:1.2;"/>
    </g>
    <g id="line2d_36"/>
    <g id="text_22">
     <!-- -7.82 -->
     <defs>
      <path d="M 8.203125 72.90625 
L 55.078125 72.90625 
L 55.078125 68.703125 
L 28.609375 0 
L 18.3125 0 
L 43.21875 64.59375 
L 8.203125 64.59375 
z
" id="DejaVuSans-37"/>
     </defs>
     <g style="fill:#262626;" transform="translate(90.16 147.270125)scale(0.088 -0.088)">
      <use xlink:href="#DejaVuSans-2d"/>
      <use x="36.083984" xlink:href="#DejaVuSans-37"/>
      <use x="99.707031" xlink:href="#DejaVuSans-2e"/>
      <use x="131.494141" xlink:href="#DejaVuSans-38"/>
      <use x="195.117188" xlink:href="#DejaVuSans-32"/>
     </g>
    </g>
    <g id="line2d_37">
     <path d="M 65.52 157.106875 
L 83.12 157.106875 
" style="fill:none;stroke:#2c738e;stroke-linecap:round;stroke-width:1.2;"/>
    </g>
    <g id="line2d_38"/>
    <g id="text_23">
     <!-- -7.38 -->
     <defs>
      <path d="M 40.578125 39.3125 
Q 47.65625 37.796875 51.625 33 
Q 55.609375 28.21875 55.609375 21.1875 
Q 55.609375 10.40625 48.1875 4.484375 
Q 40.765625 -1.421875 27.09375 -1.421875 
Q 22.515625 -1.421875 17.65625 -0.515625 
Q 12.796875 0.390625 7.625 2.203125 
L 7.625 11.71875 
Q 11.71875 9.328125 16.59375 8.109375 
Q 21.484375 6.890625 26.8125 6.890625 
Q 36.078125 6.890625 40.9375 10.546875 
Q 45.796875 14.203125 45.796875 21.1875 
Q 45.796875 27.640625 41.28125 31.265625 
Q 36.765625 34.90625 28.71875 34.90625 
L 20.21875 34.90625 
L 20.21875 43.015625 
L 29.109375 43.015625 
Q 36.375 43.015625 40.234375 45.921875 
Q 44.09375 48.828125 44.09375 54.296875 
Q 44.09375 59.90625 40.109375 62.90625 
Q 36.140625 65.921875 28.71875 65.921875 
Q 24.65625 65.921875 20.015625 65.03125 
Q 15.375 64.15625 9.8125 62.3125 
L 9.8125 71.09375 
Q 15.4375 72.65625 20.34375 73.4375 
Q 25.25 74.21875 29.59375 74.21875 
Q 40.828125 74.21875 47.359375 69.109375 
Q 53.90625 64.015625 53.90625 55.328125 
Q 53.90625 49.265625 50.4375 45.09375 
Q 46.96875 40.921875 40.578125 39.3125 
z
" id="DejaVuSans-33"/>
     </defs>
     <g style="fill:#262626;" transform="translate(90.16 160.186875)scale(0.088 -0.088)">
      <use xlink:href="#DejaVuSans-2d"/>
      <use x="36.083984" xlink:href="#DejaVuSans-37"/>
      <use x="99.707031" xlink:href="#DejaVuSans-2e"/>
      <use x="131.494141" xlink:href="#DejaVuSans-33"/>
      <use x="195.117188" xlink:href="#DejaVuSans-38"/>
     </g>
    </g>
    <g id="line2d_39">
     <path d="M 65.52 170.023625 
L 83.12 170.023625 
" style="fill:none;stroke:#277f8e;stroke-linecap:round;stroke-width:1.2;"/>
    </g>
    <g id="line2d_40"/>
    <g id="text_24">
     <!-- -6.95 -->
     <g style="fill:#262626;" transform="translate(90.16 173.103625)scale(0.088 -0.088)">
      <use xlink:href="#DejaVuSans-2d"/>
      <use x="36.083984" xlink:href="#DejaVuSans-36"/>
      <use x="99.707031" xlink:href="#DejaVuSans-2e"/>
      <use x="131.494141" xlink:href="#DejaVuSans-39"/>
      <use x="195.117188" xlink:href="#DejaVuSans-35"/>
     </g>
    </g>
    <g id="line2d_41">
     <path d="M 65.52 182.940375 
L 83.12 182.940375 
" style="fill:none;stroke:#238a8d;stroke-linecap:round;stroke-width:1.2;"/>
    </g>
    <g id="line2d_42"/>
    <g id="text_25">
     <!-- -6.51 -->
     <g style="fill:#262626;" transform="translate(90.16 186.020375)scale(0.088 -0.088)">
      <use xlink:href="#DejaVuSans-2d"/>
      <use x="36.083984" xlink:href="#DejaVuSans-36"/>
      <use x="99.707031" xlink:href="#DejaVuSans-2e"/>
      <use x="131.494141" xlink:href="#DejaVuSans-35"/>
      <use x="195.117188" xlink:href="#DejaVuSans-31"/>
     </g>
    </g>
   </g>
  </g>
 </g>
 <defs>
  <clipPath id="p7e5f2e4c41">
   <rect height="266.112" width="357.12" x="57.6" y="41.472"/>
  </clipPath>
 </defs>
</svg>
