<?xml version="1.0" encoding="utf-8" standalone="no"?>
<!DOCTYPE svg PUBLIC "-//W3C//DTD SVG 1.1//EN"
  "http://www.w3.org/Graphics/SVG/1.1/DTD/svg11.dtd">
<!-- Created with matplotlib (http://matplotlib.org/) -->
<svg height="288pt" version="1.1" viewBox="0 0 432 288" width="432pt" xmlns="http://www.w3.org/2000/svg" xmlns:xlink="http://www.w3.org/1999/xlink">
 <defs>
  <style type="text/css">
*{stroke-linecap:butt;stroke-linejoin:round;}
  </style>
 </defs>
 <g id="figure_1">
  <g id="patch_1">
   <path d="M 0 288 
L 432 288 
L 432 0 
L 0 0 
z
" style="fill:#ffffff;"/>
  </g>
  <g id="axes_1">
   <g id="patch_2">
    <path d="M 54 252 
L 388.8 252 
L 388.8 34.56 
L 54 34.56 
z
" style="fill:#ffffff;"/>
   </g>
   <g id="matplotlib.axis_1">
    <g id="xtick_1">
     <g id="line2d_1">
      <defs>
       <path d="M 0 0 
L 0 3.5 
" id="m9798f77214" style="stroke:#000000;stroke-width:0.8;"/>
      </defs>
      <g>
       <use style="stroke:#000000;stroke-width:0.8;" x="69.218182" xlink:href="#m9798f77214" y="252"/>
      </g>
     </g>
     <g id="text_1">
      <!-- 0 -->
      <defs>
       <path d="M 31.78125 66.40625 
Q 24.171875 66.40625 20.328125 58.90625 
Q 16.5 51.421875 16.5 36.375 
Q 16.5 21.390625 20.328125 13.890625 
Q 24.171875 6.390625 31.78125 6.390625 
Q 39.453125 6.390625 43.28125 13.890625 
Q 47.125 21.390625 47.125 36.375 
Q 47.125 51.421875 43.28125 58.90625 
Q 39.453125 66.40625 31.78125 66.40625 
z
M 31.78125 74.21875 
Q 44.046875 74.21875 50.515625 64.515625 
Q 56.984375 54.828125 56.984375 36.375 
Q 56.984375 17.96875 50.515625 8.265625 
Q 44.046875 -1.421875 31.78125 -1.421875 
Q 19.53125 -1.421875 13.0625 8.265625 
Q 6.59375 17.96875 6.59375 36.375 
Q 6.59375 54.828125 13.0625 64.515625 
Q 19.53125 74.21875 31.78125 74.21875 
z
" id="DejaVuSans-30"/>
      </defs>
      <g transform="translate(66.036932 266.598437)scale(0.1 -0.1)">
       <use xlink:href="#DejaVuSans-30"/>
      </g>
     </g>
    </g>
    <g id="xtick_2">
     <g id="line2d_2">
      <g>
       <use style="stroke:#000000;stroke-width:0.8;" x="137.614505" xlink:href="#m9798f77214" y="252"/>
      </g>
     </g>
     <g id="text_2">
      <!-- 20 -->
      <defs>
       <path d="M 19.1875 8.296875 
L 53.609375 8.296875 
L 53.609375 0 
L 7.328125 0 
L 7.328125 8.296875 
Q 12.9375 14.109375 22.625 23.890625 
Q 32.328125 33.6875 34.8125 36.53125 
Q 39.546875 41.84375 41.421875 45.53125 
Q 43.3125 49.21875 43.3125 52.78125 
Q 43.3125 58.59375 39.234375 62.25 
Q 35.15625 65.921875 28.609375 65.921875 
Q 23.96875 65.921875 18.8125 64.3125 
Q 13.671875 62.703125 7.8125 59.421875 
L 7.8125 69.390625 
Q 13.765625 71.78125 18.9375 73 
Q 24.125 74.21875 28.421875 74.21875 
Q 39.75 74.21875 46.484375 68.546875 
Q 53.21875 62.890625 53.21875 53.421875 
Q 53.21875 48.921875 51.53125 44.890625 
Q 49.859375 40.875 45.40625 35.40625 
Q 44.1875 33.984375 37.640625 27.21875 
Q 31.109375 20.453125 19.1875 8.296875 
z
" id="DejaVuSans-32"/>
      </defs>
      <g transform="translate(131.252005 266.598437)scale(0.1 -0.1)">
       <use xlink:href="#DejaVuSans-32"/>
       <use x="63.623047" xlink:href="#DejaVuSans-30"/>
      </g>
     </g>
    </g>
    <g id="xtick_3">
     <g id="line2d_3">
      <g>
       <use style="stroke:#000000;stroke-width:0.8;" x="206.010827" xlink:href="#m9798f77214" y="252"/>
      </g>
     </g>
     <g id="text_3">
      <!-- 40 -->
      <defs>
       <path d="M 37.796875 64.3125 
L 12.890625 25.390625 
L 37.796875 25.390625 
z
M 35.203125 72.90625 
L 47.609375 72.90625 
L 47.609375 25.390625 
L 58.015625 25.390625 
L 58.015625 17.1875 
L 47.609375 17.1875 
L 47.609375 0 
L 37.796875 0 
L 37.796875 17.1875 
L 4.890625 17.1875 
L 4.890625 26.703125 
z
" id="DejaVuSans-34"/>
      </defs>
      <g transform="translate(199.648327 266.598437)scale(0.1 -0.1)">
       <use xlink:href="#DejaVuSans-34"/>
       <use x="63.623047" xlink:href="#DejaVuSans-30"/>
      </g>
     </g>
    </g>
    <g id="xtick_4">
     <g id="line2d_4">
      <g>
       <use style="stroke:#000000;stroke-width:0.8;" x="274.40715" xlink:href="#m9798f77214" y="252"/>
      </g>
     </g>
     <g id="text_4">
      <!-- 60 -->
      <defs>
       <path d="M 33.015625 40.375 
Q 26.375 40.375 22.484375 35.828125 
Q 18.609375 31.296875 18.609375 23.390625 
Q 18.609375 15.53125 22.484375 10.953125 
Q 26.375 6.390625 33.015625 6.390625 
Q 39.65625 6.390625 43.53125 10.953125 
Q 47.40625 15.53125 47.40625 23.390625 
Q 47.40625 31.296875 43.53125 35.828125 
Q 39.65625 40.375 33.015625 40.375 
z
M 52.59375 71.296875 
L 52.59375 62.3125 
Q 48.875 64.0625 45.09375 64.984375 
Q 41.3125 65.921875 37.59375 65.921875 
Q 27.828125 65.921875 22.671875 59.328125 
Q 17.53125 52.734375 16.796875 39.40625 
Q 19.671875 43.65625 24.015625 45.921875 
Q 28.375 48.1875 33.59375 48.1875 
Q 44.578125 48.1875 50.953125 41.515625 
Q 57.328125 34.859375 57.328125 23.390625 
Q 57.328125 12.15625 50.6875 5.359375 
Q 44.046875 -1.421875 33.015625 -1.421875 
Q 20.359375 -1.421875 13.671875 8.265625 
Q 6.984375 17.96875 6.984375 36.375 
Q 6.984375 53.65625 15.1875 63.9375 
Q 23.390625 74.21875 37.203125 74.21875 
Q 40.921875 74.21875 44.703125 73.484375 
Q 48.484375 72.75 52.59375 71.296875 
z
" id="DejaVuSans-36"/>
      </defs>
      <g transform="translate(268.04465 266.598437)scale(0.1 -0.1)">
       <use xlink:href="#DejaVuSans-36"/>
       <use x="63.623047" xlink:href="#DejaVuSans-30"/>
      </g>
     </g>
    </g>
    <g id="xtick_5">
     <g id="line2d_5">
      <g>
       <use style="stroke:#000000;stroke-width:0.8;" x="342.803473" xlink:href="#m9798f77214" y="252"/>
      </g>
     </g>
     <g id="text_5">
      <!-- 80 -->
      <defs>
       <path d="M 31.78125 34.625 
Q 24.75 34.625 20.71875 30.859375 
Q 16.703125 27.09375 16.703125 20.515625 
Q 16.703125 13.921875 20.71875 10.15625 
Q 24.75 6.390625 31.78125 6.390625 
Q 38.8125 6.390625 42.859375 10.171875 
Q 46.921875 13.96875 46.921875 20.515625 
Q 46.921875 27.09375 42.890625 30.859375 
Q 38.875 34.625 31.78125 34.625 
z
M 21.921875 38.8125 
Q 15.578125 40.375 12.03125 44.71875 
Q 8.5 49.078125 8.5 55.328125 
Q 8.5 64.0625 14.71875 69.140625 
Q 20.953125 74.21875 31.78125 74.21875 
Q 42.671875 74.21875 48.875 69.140625 
Q 55.078125 64.0625 55.078125 55.328125 
Q 55.078125 49.078125 51.53125 44.71875 
Q 48 40.375 41.703125 38.8125 
Q 48.828125 37.15625 52.796875 32.3125 
Q 56.78125 27.484375 56.78125 20.515625 
Q 56.78125 9.90625 50.3125 4.234375 
Q 43.84375 -1.421875 31.78125 -1.421875 
Q 19.734375 -1.421875 13.25 4.234375 
Q 6.78125 9.90625 6.78125 20.515625 
Q 6.78125 27.484375 10.78125 32.3125 
Q 14.796875 37.15625 21.921875 38.8125 
z
M 18.3125 54.390625 
Q 18.3125 48.734375 21.84375 45.5625 
Q 25.390625 42.390625 31.78125 42.390625 
Q 38.140625 42.390625 41.71875 45.5625 
Q 45.3125 48.734375 45.3125 54.390625 
Q 45.3125 60.0625 41.71875 63.234375 
Q 38.140625 66.40625 31.78125 66.40625 
Q 25.390625 66.40625 21.84375 63.234375 
Q 18.3125 60.0625 18.3125 54.390625 
z
" id="DejaVuSans-38"/>
      </defs>
      <g transform="translate(336.440973 266.598437)scale(0.1 -0.1)">
       <use xlink:href="#DejaVuSans-38"/>
       <use x="63.623047" xlink:href="#DejaVuSans-30"/>
      </g>
     </g>
    </g>
    <g id="text_6">
     <!-- Age (yrs) -->
     <defs>
      <path d="M 34.1875 63.1875 
L 20.796875 26.90625 
L 47.609375 26.90625 
z
M 28.609375 72.90625 
L 39.796875 72.90625 
L 67.578125 0 
L 57.328125 0 
L 50.6875 18.703125 
L 17.828125 18.703125 
L 11.1875 0 
L 0.78125 0 
z
" id="DejaVuSans-41"/>
      <path d="M 45.40625 27.984375 
Q 45.40625 37.75 41.375 43.109375 
Q 37.359375 48.484375 30.078125 48.484375 
Q 22.859375 48.484375 18.828125 43.109375 
Q 14.796875 37.75 14.796875 27.984375 
Q 14.796875 18.265625 18.828125 12.890625 
Q 22.859375 7.515625 30.078125 7.515625 
Q 37.359375 7.515625 41.375 12.890625 
Q 45.40625 18.265625 45.40625 27.984375 
z
M 54.390625 6.78125 
Q 54.390625 -7.171875 48.1875 -13.984375 
Q 42 -20.796875 29.203125 -20.796875 
Q 24.46875 -20.796875 20.265625 -20.09375 
Q 16.0625 -19.390625 12.109375 -17.921875 
L 12.109375 -9.1875 
Q 16.0625 -11.328125 19.921875 -12.34375 
Q 23.78125 -13.375 27.78125 -13.375 
Q 36.625 -13.375 41.015625 -8.765625 
Q 45.40625 -4.15625 45.40625 5.171875 
L 45.40625 9.625 
Q 42.625 4.78125 38.28125 2.390625 
Q 33.9375 0 27.875 0 
Q 17.828125 0 11.671875 7.65625 
Q 5.515625 15.328125 5.515625 27.984375 
Q 5.515625 40.671875 11.671875 48.328125 
Q 17.828125 56 27.875 56 
Q 33.9375 56 38.28125 53.609375 
Q 42.625 51.21875 45.40625 46.390625 
L 45.40625 54.6875 
L 54.390625 54.6875 
z
" id="DejaVuSans-67"/>
      <path d="M 56.203125 29.59375 
L 56.203125 25.203125 
L 14.890625 25.203125 
Q 15.484375 15.921875 20.484375 11.0625 
Q 25.484375 6.203125 34.421875 6.203125 
Q 39.59375 6.203125 44.453125 7.46875 
Q 49.3125 8.734375 54.109375 11.28125 
L 54.109375 2.78125 
Q 49.265625 0.734375 44.1875 -0.34375 
Q 39.109375 -1.421875 33.890625 -1.421875 
Q 20.796875 -1.421875 13.15625 6.1875 
Q 5.515625 13.8125 5.515625 26.8125 
Q 5.515625 40.234375 12.765625 48.109375 
Q 20.015625 56 32.328125 56 
Q 43.359375 56 49.78125 48.890625 
Q 56.203125 41.796875 56.203125 29.59375 
z
M 47.21875 32.234375 
Q 47.125 39.59375 43.09375 43.984375 
Q 39.0625 48.390625 32.421875 48.390625 
Q 24.90625 48.390625 20.390625 44.140625 
Q 15.875 39.890625 15.1875 32.171875 
z
" id="DejaVuSans-65"/>
      <path id="DejaVuSans-20"/>
      <path d="M 31 75.875 
Q 24.46875 64.65625 21.28125 53.65625 
Q 18.109375 42.671875 18.109375 31.390625 
Q 18.109375 20.125 21.3125 9.0625 
Q 24.515625 -2 31 -13.1875 
L 23.1875 -13.1875 
Q 15.875 -1.703125 12.234375 9.375 
Q 8.59375 20.453125 8.59375 31.390625 
Q 8.59375 42.28125 12.203125 53.3125 
Q 15.828125 64.359375 23.1875 75.875 
z
" id="DejaVuSans-28"/>
      <path d="M 32.171875 -5.078125 
Q 28.375 -14.84375 24.75 -17.8125 
Q 21.140625 -20.796875 15.09375 -20.796875 
L 7.90625 -20.796875 
L 7.90625 -13.28125 
L 13.1875 -13.28125 
Q 16.890625 -13.28125 18.9375 -11.515625 
Q 21 -9.765625 23.484375 -3.21875 
L 25.09375 0.875 
L 2.984375 54.6875 
L 12.5 54.6875 
L 29.59375 11.921875 
L 46.6875 54.6875 
L 56.203125 54.6875 
z
" id="DejaVuSans-79"/>
      <path d="M 41.109375 46.296875 
Q 39.59375 47.171875 37.8125 47.578125 
Q 36.03125 48 33.890625 48 
Q 26.265625 48 22.1875 43.046875 
Q 18.109375 38.09375 18.109375 28.8125 
L 18.109375 0 
L 9.078125 0 
L 9.078125 54.6875 
L 18.109375 54.6875 
L 18.109375 46.1875 
Q 20.953125 51.171875 25.484375 53.578125 
Q 30.03125 56 36.53125 56 
Q 37.453125 56 38.578125 55.875 
Q 39.703125 55.765625 41.0625 55.515625 
z
" id="DejaVuSans-72"/>
      <path d="M 44.28125 53.078125 
L 44.28125 44.578125 
Q 40.484375 46.53125 36.375 47.5 
Q 32.28125 48.484375 27.875 48.484375 
Q 21.1875 48.484375 17.84375 46.4375 
Q 14.5 44.390625 14.5 40.28125 
Q 14.5 37.15625 16.890625 35.375 
Q 19.28125 33.59375 26.515625 31.984375 
L 29.59375 31.296875 
Q 39.15625 29.25 43.1875 25.515625 
Q 47.21875 21.78125 47.21875 15.09375 
Q 47.21875 7.46875 41.1875 3.015625 
Q 35.15625 -1.421875 24.609375 -1.421875 
Q 20.21875 -1.421875 15.453125 -0.5625 
Q 10.6875 0.296875 5.421875 2 
L 5.421875 11.28125 
Q 10.40625 8.6875 15.234375 7.390625 
Q 20.0625 6.109375 24.8125 6.109375 
Q 31.15625 6.109375 34.5625 8.28125 
Q 37.984375 10.453125 37.984375 14.40625 
Q 37.984375 18.0625 35.515625 20.015625 
Q 33.0625 21.96875 24.703125 23.78125 
L 21.578125 24.515625 
Q 13.234375 26.265625 9.515625 29.90625 
Q 5.8125 33.546875 5.8125 39.890625 
Q 5.8125 47.609375 11.28125 51.796875 
Q 16.75 56 26.8125 56 
Q 31.78125 56 36.171875 55.265625 
Q 40.578125 54.546875 44.28125 53.078125 
z
" id="DejaVuSans-73"/>
      <path d="M 8.015625 75.875 
L 15.828125 75.875 
Q 23.140625 64.359375 26.78125 53.3125 
Q 30.421875 42.28125 30.421875 31.390625 
Q 30.421875 20.453125 26.78125 9.375 
Q 23.140625 -1.703125 15.828125 -13.1875 
L 8.015625 -13.1875 
Q 14.5 -2 17.703125 9.0625 
Q 20.90625 20.125 20.90625 31.390625 
Q 20.90625 42.671875 17.703125 53.65625 
Q 14.5 64.65625 8.015625 75.875 
z
" id="DejaVuSans-29"/>
     </defs>
     <g transform="translate(198.61875 280.276563)scale(0.1 -0.1)">
      <use xlink:href="#DejaVuSans-41"/>
      <use x="68.408203" xlink:href="#DejaVuSans-67"/>
      <use x="131.884766" xlink:href="#DejaVuSans-65"/>
      <use x="193.408203" xlink:href="#DejaVuSans-20"/>
      <use x="225.195312" xlink:href="#DejaVuSans-28"/>
      <use x="264.208984" xlink:href="#DejaVuSans-79"/>
      <use x="323.388672" xlink:href="#DejaVuSans-72"/>
      <use x="364.501953" xlink:href="#DejaVuSans-73"/>
      <use x="416.601562" xlink:href="#DejaVuSans-29"/>
     </g>
    </g>
   </g>
   <g id="matplotlib.axis_2">
    <g id="ytick_1">
     <g id="line2d_6">
      <defs>
       <path d="M 0 0 
L -3.5 0 
" id="m6c44ce4dc6" style="stroke:#000000;stroke-width:0.8;"/>
      </defs>
      <g>
       <use style="stroke:#000000;stroke-width:0.8;" x="54" xlink:href="#m6c44ce4dc6" y="242.116364"/>
      </g>
     </g>
     <g id="text_7">
      <!-- 0 -->
      <g transform="translate(40.6375 245.915582)scale(0.1 -0.1)">
       <use xlink:href="#DejaVuSans-30"/>
      </g>
     </g>
    </g>
    <g id="ytick_2">
     <g id="line2d_7">
      <g>
       <use style="stroke:#000000;stroke-width:0.8;" x="54" xlink:href="#m6c44ce4dc6" y="217.452285"/>
      </g>
     </g>
     <g id="text_8">
      <!-- 10000 -->
      <defs>
       <path d="M 12.40625 8.296875 
L 28.515625 8.296875 
L 28.515625 63.921875 
L 10.984375 60.40625 
L 10.984375 69.390625 
L 28.421875 72.90625 
L 38.28125 72.90625 
L 38.28125 8.296875 
L 54.390625 8.296875 
L 54.390625 0 
L 12.40625 0 
z
" id="DejaVuSans-31"/>
      </defs>
      <g transform="translate(15.1875 221.251503)scale(0.1 -0.1)">
       <use xlink:href="#DejaVuSans-31"/>
       <use x="63.623047" xlink:href="#DejaVuSans-30"/>
       <use x="127.246094" xlink:href="#DejaVuSans-30"/>
       <use x="190.869141" xlink:href="#DejaVuSans-30"/>
       <use x="254.492188" xlink:href="#DejaVuSans-30"/>
      </g>
     </g>
    </g>
    <g id="ytick_3">
     <g id="line2d_8">
      <g>
       <use style="stroke:#000000;stroke-width:0.8;" x="54" xlink:href="#m6c44ce4dc6" y="192.788206"/>
      </g>
     </g>
     <g id="text_9">
      <!-- 20000 -->
      <g transform="translate(15.1875 196.587424)scale(0.1 -0.1)">
       <use xlink:href="#DejaVuSans-32"/>
       <use x="63.623047" xlink:href="#DejaVuSans-30"/>
       <use x="127.246094" xlink:href="#DejaVuSans-30"/>
       <use x="190.869141" xlink:href="#DejaVuSans-30"/>
       <use x="254.492188" xlink:href="#DejaVuSans-30"/>
      </g>
     </g>
    </g>
    <g id="ytick_4">
     <g id="line2d_9">
      <g>
       <use style="stroke:#000000;stroke-width:0.8;" x="54" xlink:href="#m6c44ce4dc6" y="168.124127"/>
      </g>
     </g>
     <g id="text_10">
      <!-- 30000 -->
      <defs>
       <path d="M 40.578125 39.3125 
Q 47.65625 37.796875 51.625 33 
Q 55.609375 28.21875 55.609375 21.1875 
Q 55.609375 10.40625 48.1875 4.484375 
Q 40.765625 -1.421875 27.09375 -1.421875 
Q 22.515625 -1.421875 17.65625 -0.515625 
Q 12.796875 0.390625 7.625 2.203125 
L 7.625 11.71875 
Q 11.71875 9.328125 16.59375 8.109375 
Q 21.484375 6.890625 26.8125 6.890625 
Q 36.078125 6.890625 40.9375 10.546875 
Q 45.796875 14.203125 45.796875 21.1875 
Q 45.796875 27.640625 41.28125 31.265625 
Q 36.765625 34.90625 28.71875 34.90625 
L 20.21875 34.90625 
L 20.21875 43.015625 
L 29.109375 43.015625 
Q 36.375 43.015625 40.234375 45.921875 
Q 44.09375 48.828125 44.09375 54.296875 
Q 44.09375 59.90625 40.109375 62.90625 
Q 36.140625 65.921875 28.71875 65.921875 
Q 24.65625 65.921875 20.015625 65.03125 
Q 15.375 64.15625 9.8125 62.3125 
L 9.8125 71.09375 
Q 15.4375 72.65625 20.34375 73.4375 
Q 25.25 74.21875 29.59375 74.21875 
Q 40.828125 74.21875 47.359375 69.109375 
Q 53.90625 64.015625 53.90625 55.328125 
Q 53.90625 49.265625 50.4375 45.09375 
Q 46.96875 40.921875 40.578125 39.3125 
z
" id="DejaVuSans-33"/>
      </defs>
      <g transform="translate(15.1875 171.923345)scale(0.1 -0.1)">
       <use xlink:href="#DejaVuSans-33"/>
       <use x="63.623047" xlink:href="#DejaVuSans-30"/>
       <use x="127.246094" xlink:href="#DejaVuSans-30"/>
       <use x="190.869141" xlink:href="#DejaVuSans-30"/>
       <use x="254.492188" xlink:href="#DejaVuSans-30"/>
      </g>
     </g>
    </g>
    <g id="ytick_5">
     <g id="line2d_10">
      <g>
       <use style="stroke:#000000;stroke-width:0.8;" x="54" xlink:href="#m6c44ce4dc6" y="143.460048"/>
      </g>
     </g>
     <g id="text_11">
      <!-- 40000 -->
      <g transform="translate(15.1875 147.259267)scale(0.1 -0.1)">
       <use xlink:href="#DejaVuSans-34"/>
       <use x="63.623047" xlink:href="#DejaVuSans-30"/>
       <use x="127.246094" xlink:href="#DejaVuSans-30"/>
       <use x="190.869141" xlink:href="#DejaVuSans-30"/>
       <use x="254.492188" xlink:href="#DejaVuSans-30"/>
      </g>
     </g>
    </g>
    <g id="ytick_6">
     <g id="line2d_11">
      <g>
       <use style="stroke:#000000;stroke-width:0.8;" x="54" xlink:href="#m6c44ce4dc6" y="118.795969"/>
      </g>
     </g>
     <g id="text_12">
      <!-- 50000 -->
      <defs>
       <path d="M 10.796875 72.90625 
L 49.515625 72.90625 
L 49.515625 64.59375 
L 19.828125 64.59375 
L 19.828125 46.734375 
Q 21.96875 47.46875 24.109375 47.828125 
Q 26.265625 48.1875 28.421875 48.1875 
Q 40.625 48.1875 47.75 41.5 
Q 54.890625 34.8125 54.890625 23.390625 
Q 54.890625 11.625 47.5625 5.09375 
Q 40.234375 -1.421875 26.90625 -1.421875 
Q 22.3125 -1.421875 17.546875 -0.640625 
Q 12.796875 0.140625 7.71875 1.703125 
L 7.71875 11.625 
Q 12.109375 9.234375 16.796875 8.0625 
Q 21.484375 6.890625 26.703125 6.890625 
Q 35.15625 6.890625 40.078125 11.328125 
Q 45.015625 15.765625 45.015625 23.390625 
Q 45.015625 31 40.078125 35.4375 
Q 35.15625 39.890625 26.703125 39.890625 
Q 22.75 39.890625 18.8125 39.015625 
Q 14.890625 38.140625 10.796875 36.28125 
z
" id="DejaVuSans-35"/>
      </defs>
      <g transform="translate(15.1875 122.595188)scale(0.1 -0.1)">
       <use xlink:href="#DejaVuSans-35"/>
       <use x="63.623047" xlink:href="#DejaVuSans-30"/>
       <use x="127.246094" xlink:href="#DejaVuSans-30"/>
       <use x="190.869141" xlink:href="#DejaVuSans-30"/>
       <use x="254.492188" xlink:href="#DejaVuSans-30"/>
      </g>
     </g>
    </g>
    <g id="ytick_7">
     <g id="line2d_12">
      <g>
       <use style="stroke:#000000;stroke-width:0.8;" x="54" xlink:href="#m6c44ce4dc6" y="94.13189"/>
      </g>
     </g>
     <g id="text_13">
      <!-- 60000 -->
      <g transform="translate(15.1875 97.931109)scale(0.1 -0.1)">
       <use xlink:href="#DejaVuSans-36"/>
       <use x="63.623047" xlink:href="#DejaVuSans-30"/>
       <use x="127.246094" xlink:href="#DejaVuSans-30"/>
       <use x="190.869141" xlink:href="#DejaVuSans-30"/>
       <use x="254.492188" xlink:href="#DejaVuSans-30"/>
      </g>
     </g>
    </g>
    <g id="ytick_8">
     <g id="line2d_13">
      <g>
       <use style="stroke:#000000;stroke-width:0.8;" x="54" xlink:href="#m6c44ce4dc6" y="69.467811"/>
      </g>
     </g>
     <g id="text_14">
      <!-- 70000 -->
      <defs>
       <path d="M 8.203125 72.90625 
L 55.078125 72.90625 
L 55.078125 68.703125 
L 28.609375 0 
L 18.3125 0 
L 43.21875 64.59375 
L 8.203125 64.59375 
z
" id="DejaVuSans-37"/>
      </defs>
      <g transform="translate(15.1875 73.26703)scale(0.1 -0.1)">
       <use xlink:href="#DejaVuSans-37"/>
       <use x="63.623047" xlink:href="#DejaVuSans-30"/>
       <use x="127.246094" xlink:href="#DejaVuSans-30"/>
       <use x="190.869141" xlink:href="#DejaVuSans-30"/>
       <use x="254.492188" xlink:href="#DejaVuSans-30"/>
      </g>
     </g>
    </g>
    <g id="ytick_9">
     <g id="line2d_14">
      <g>
       <use style="stroke:#000000;stroke-width:0.8;" x="54" xlink:href="#m6c44ce4dc6" y="44.803732"/>
      </g>
     </g>
     <g id="text_15">
      <!-- 80000 -->
      <g transform="translate(15.1875 48.602951)scale(0.1 -0.1)">
       <use xlink:href="#DejaVuSans-38"/>
       <use x="63.623047" xlink:href="#DejaVuSans-30"/>
       <use x="127.246094" xlink:href="#DejaVuSans-30"/>
       <use x="190.869141" xlink:href="#DejaVuSans-30"/>
       <use x="254.492188" xlink:href="#DejaVuSans-30"/>
      </g>
     </g>
    </g>
    <g id="text_16">
     <!-- Cumulative cancer incidence -->
     <defs>
      <path d="M 64.40625 67.28125 
L 64.40625 56.890625 
Q 59.421875 61.53125 53.78125 63.8125 
Q 48.140625 66.109375 41.796875 66.109375 
Q 29.296875 66.109375 22.65625 58.46875 
Q 16.015625 50.828125 16.015625 36.375 
Q 16.015625 21.96875 22.65625 14.328125 
Q 29.296875 6.6875 41.796875 6.6875 
Q 48.140625 6.6875 53.78125 8.984375 
Q 59.421875 11.28125 64.40625 15.921875 
L 64.40625 5.609375 
Q 59.234375 2.09375 53.4375 0.328125 
Q 47.65625 -1.421875 41.21875 -1.421875 
Q 24.65625 -1.421875 15.125 8.703125 
Q 5.609375 18.84375 5.609375 36.375 
Q 5.609375 53.953125 15.125 64.078125 
Q 24.65625 74.21875 41.21875 74.21875 
Q 47.75 74.21875 53.53125 72.484375 
Q 59.328125 70.75 64.40625 67.28125 
z
" id="DejaVuSans-43"/>
      <path d="M 8.5 21.578125 
L 8.5 54.6875 
L 17.484375 54.6875 
L 17.484375 21.921875 
Q 17.484375 14.15625 20.5 10.265625 
Q 23.53125 6.390625 29.59375 6.390625 
Q 36.859375 6.390625 41.078125 11.03125 
Q 45.3125 15.671875 45.3125 23.6875 
L 45.3125 54.6875 
L 54.296875 54.6875 
L 54.296875 0 
L 45.3125 0 
L 45.3125 8.40625 
Q 42.046875 3.421875 37.71875 1 
Q 33.40625 -1.421875 27.6875 -1.421875 
Q 18.265625 -1.421875 13.375 4.4375 
Q 8.5 10.296875 8.5 21.578125 
z
M 31.109375 56 
z
" id="DejaVuSans-75"/>
      <path d="M 52 44.1875 
Q 55.375 50.25 60.0625 53.125 
Q 64.75 56 71.09375 56 
Q 79.640625 56 84.28125 50.015625 
Q 88.921875 44.046875 88.921875 33.015625 
L 88.921875 0 
L 79.890625 0 
L 79.890625 32.71875 
Q 79.890625 40.578125 77.09375 44.375 
Q 74.3125 48.1875 68.609375 48.1875 
Q 61.625 48.1875 57.5625 43.546875 
Q 53.515625 38.921875 53.515625 30.90625 
L 53.515625 0 
L 44.484375 0 
L 44.484375 32.71875 
Q 44.484375 40.625 41.703125 44.40625 
Q 38.921875 48.1875 33.109375 48.1875 
Q 26.21875 48.1875 22.15625 43.53125 
Q 18.109375 38.875 18.109375 30.90625 
L 18.109375 0 
L 9.078125 0 
L 9.078125 54.6875 
L 18.109375 54.6875 
L 18.109375 46.1875 
Q 21.1875 51.21875 25.484375 53.609375 
Q 29.78125 56 35.6875 56 
Q 41.65625 56 45.828125 52.96875 
Q 50 49.953125 52 44.1875 
z
" id="DejaVuSans-6d"/>
      <path d="M 9.421875 75.984375 
L 18.40625 75.984375 
L 18.40625 0 
L 9.421875 0 
z
" id="DejaVuSans-6c"/>
      <path d="M 34.28125 27.484375 
Q 23.390625 27.484375 19.1875 25 
Q 14.984375 22.515625 14.984375 16.5 
Q 14.984375 11.71875 18.140625 8.90625 
Q 21.296875 6.109375 26.703125 6.109375 
Q 34.1875 6.109375 38.703125 11.40625 
Q 43.21875 16.703125 43.21875 25.484375 
L 43.21875 27.484375 
z
M 52.203125 31.203125 
L 52.203125 0 
L 43.21875 0 
L 43.21875 8.296875 
Q 40.140625 3.328125 35.546875 0.953125 
Q 30.953125 -1.421875 24.3125 -1.421875 
Q 15.921875 -1.421875 10.953125 3.296875 
Q 6 8.015625 6 15.921875 
Q 6 25.140625 12.171875 29.828125 
Q 18.359375 34.515625 30.609375 34.515625 
L 43.21875 34.515625 
L 43.21875 35.40625 
Q 43.21875 41.609375 39.140625 45 
Q 35.0625 48.390625 27.6875 48.390625 
Q 23 48.390625 18.546875 47.265625 
Q 14.109375 46.140625 10.015625 43.890625 
L 10.015625 52.203125 
Q 14.9375 54.109375 19.578125 55.046875 
Q 24.21875 56 28.609375 56 
Q 40.484375 56 46.34375 49.84375 
Q 52.203125 43.703125 52.203125 31.203125 
z
" id="DejaVuSans-61"/>
      <path d="M 18.3125 70.21875 
L 18.3125 54.6875 
L 36.8125 54.6875 
L 36.8125 47.703125 
L 18.3125 47.703125 
L 18.3125 18.015625 
Q 18.3125 11.328125 20.140625 9.421875 
Q 21.96875 7.515625 27.59375 7.515625 
L 36.8125 7.515625 
L 36.8125 0 
L 27.59375 0 
Q 17.1875 0 13.234375 3.875 
Q 9.28125 7.765625 9.28125 18.015625 
L 9.28125 47.703125 
L 2.6875 47.703125 
L 2.6875 54.6875 
L 9.28125 54.6875 
L 9.28125 70.21875 
z
" id="DejaVuSans-74"/>
      <path d="M 9.421875 54.6875 
L 18.40625 54.6875 
L 18.40625 0 
L 9.421875 0 
z
M 9.421875 75.984375 
L 18.40625 75.984375 
L 18.40625 64.59375 
L 9.421875 64.59375 
z
" id="DejaVuSans-69"/>
      <path d="M 2.984375 54.6875 
L 12.5 54.6875 
L 29.59375 8.796875 
L 46.6875 54.6875 
L 56.203125 54.6875 
L 35.6875 0 
L 23.484375 0 
z
" id="DejaVuSans-76"/>
      <path d="M 48.78125 52.59375 
L 48.78125 44.1875 
Q 44.96875 46.296875 41.140625 47.34375 
Q 37.3125 48.390625 33.40625 48.390625 
Q 24.65625 48.390625 19.8125 42.84375 
Q 14.984375 37.3125 14.984375 27.296875 
Q 14.984375 17.28125 19.8125 11.734375 
Q 24.65625 6.203125 33.40625 6.203125 
Q 37.3125 6.203125 41.140625 7.25 
Q 44.96875 8.296875 48.78125 10.40625 
L 48.78125 2.09375 
Q 45.015625 0.34375 40.984375 -0.53125 
Q 36.96875 -1.421875 32.421875 -1.421875 
Q 20.0625 -1.421875 12.78125 6.34375 
Q 5.515625 14.109375 5.515625 27.296875 
Q 5.515625 40.671875 12.859375 48.328125 
Q 20.21875 56 33.015625 56 
Q 37.15625 56 41.109375 55.140625 
Q 45.0625 54.296875 48.78125 52.59375 
z
" id="DejaVuSans-63"/>
      <path d="M 54.890625 33.015625 
L 54.890625 0 
L 45.90625 0 
L 45.90625 32.71875 
Q 45.90625 40.484375 42.875 44.328125 
Q 39.84375 48.1875 33.796875 48.1875 
Q 26.515625 48.1875 22.3125 43.546875 
Q 18.109375 38.921875 18.109375 30.90625 
L 18.109375 0 
L 9.078125 0 
L 9.078125 54.6875 
L 18.109375 54.6875 
L 18.109375 46.1875 
Q 21.34375 51.125 25.703125 53.5625 
Q 30.078125 56 35.796875 56 
Q 45.21875 56 50.046875 50.171875 
Q 54.890625 44.34375 54.890625 33.015625 
z
" id="DejaVuSans-6e"/>
      <path d="M 45.40625 46.390625 
L 45.40625 75.984375 
L 54.390625 75.984375 
L 54.390625 0 
L 45.40625 0 
L 45.40625 8.203125 
Q 42.578125 3.328125 38.25 0.953125 
Q 33.9375 -1.421875 27.875 -1.421875 
Q 17.96875 -1.421875 11.734375 6.484375 
Q 5.515625 14.40625 5.515625 27.296875 
Q 5.515625 40.1875 11.734375 48.09375 
Q 17.96875 56 27.875 56 
Q 33.9375 56 38.25 53.625 
Q 42.578125 51.265625 45.40625 46.390625 
z
M 14.796875 27.296875 
Q 14.796875 17.390625 18.875 11.75 
Q 22.953125 6.109375 30.078125 6.109375 
Q 37.203125 6.109375 41.296875 11.75 
Q 45.40625 17.390625 45.40625 27.296875 
Q 45.40625 37.203125 41.296875 42.84375 
Q 37.203125 48.484375 30.078125 48.484375 
Q 22.953125 48.484375 18.875 42.84375 
Q 14.796875 37.203125 14.796875 27.296875 
z
" id="DejaVuSans-64"/>
     </defs>
     <g transform="translate(9.107812 215.800313)rotate(-90)scale(0.1 -0.1)">
      <use xlink:href="#DejaVuSans-43"/>
      <use x="69.824219" xlink:href="#DejaVuSans-75"/>
      <use x="133.203125" xlink:href="#DejaVuSans-6d"/>
      <use x="230.615234" xlink:href="#DejaVuSans-75"/>
      <use x="293.994141" xlink:href="#DejaVuSans-6c"/>
      <use x="321.777344" xlink:href="#DejaVuSans-61"/>
      <use x="383.056641" xlink:href="#DejaVuSans-74"/>
      <use x="422.265625" xlink:href="#DejaVuSans-69"/>
      <use x="450.048828" xlink:href="#DejaVuSans-76"/>
      <use x="509.228516" xlink:href="#DejaVuSans-65"/>
      <use x="570.751953" xlink:href="#DejaVuSans-20"/>
      <use x="602.539062" xlink:href="#DejaVuSans-63"/>
      <use x="657.519531" xlink:href="#DejaVuSans-61"/>
      <use x="718.798828" xlink:href="#DejaVuSans-6e"/>
      <use x="782.177734" xlink:href="#DejaVuSans-63"/>
      <use x="837.158203" xlink:href="#DejaVuSans-65"/>
      <use x="898.681641" xlink:href="#DejaVuSans-72"/>
      <use x="939.794922" xlink:href="#DejaVuSans-20"/>
      <use x="971.582031" xlink:href="#DejaVuSans-69"/>
      <use x="999.365234" xlink:href="#DejaVuSans-6e"/>
      <use x="1062.744141" xlink:href="#DejaVuSans-63"/>
      <use x="1117.724609" xlink:href="#DejaVuSans-69"/>
      <use x="1145.507812" xlink:href="#DejaVuSans-64"/>
      <use x="1208.984375" xlink:href="#DejaVuSans-65"/>
      <use x="1270.507812" xlink:href="#DejaVuSans-6e"/>
      <use x="1333.886719" xlink:href="#DejaVuSans-63"/>
      <use x="1388.867188" xlink:href="#DejaVuSans-65"/>
     </g>
    </g>
   </g>
   <g id="line2d_15">
    <path clip-path="url(#pe182e834a5)" d="M 69.218182 242.116364 
L 72.637998 242.116364 
L 76.057814 242.116364 
L 79.47763 242.116364 
L 82.897446 242.010308 
L 86.317263 238.323028 
L 89.737079 225.179541 
L 93.156895 206.217797 
L 96.576711 187.865256 
L 99.996527 172.228229 
L 103.416343 159.106939 
L 106.836159 148.777623 
L 110.255975 140.224121 
L 113.675792 133.019743 
L 117.095608 127.070767 
L 120.515424 122.041762 
L 123.93524 117.940125 
L 127.355056 114.240513 
L 130.774872 111.113108 
L 134.194688 108.274273 
L 137.614505 106.042174 
L 141.034321 103.842138 
L 144.454137 101.950403 
L 147.873953 100.364503 
L 151.293769 98.845195 
L 154.713585 97.446742 
L 158.133401 96.233269 
L 161.553218 95.224509 
L 164.973034 94.203416 
L 168.39285 93.05407 
L 171.812666 92.171096 
L 175.232482 91.322651 
L 178.652298 90.553132 
L 182.072114 89.87487 
L 185.491931 89.233604 
L 188.911747 88.589871 
L 192.331563 88.007799 
L 195.751379 87.442992 
L 199.171195 86.952176 
L 202.591011 86.466294 
L 206.010827 86.007542 
L 209.430644 85.546324 
L 212.85046 85.065374 
L 216.270276 84.734876 
L 219.690092 84.322986 
L 223.109908 83.985088 
L 226.529724 83.676787 
L 229.94954 83.403015 
L 233.369356 83.119379 
L 236.789173 82.838208 
L 240.208989 82.559504 
L 243.628805 82.293132 
L 247.048621 81.997163 
L 250.468437 81.750522 
L 253.888253 81.513747 
L 257.308069 81.294237 
L 260.727886 81.089525 
L 264.147702 80.840418 
L 267.567518 80.665303 
L 270.987334 80.500053 
L 274.40715 80.329871 
L 277.826966 80.11776 
L 281.246782 79.952511 
L 284.666599 79.797127 
L 288.086415 79.683672 
L 291.506231 79.51349 
L 294.926047 79.370439 
L 298.345863 79.19779 
L 301.765679 79.049806 
L 305.185495 78.941284 
L 308.605312 78.817963 
L 312.025128 78.65518 
L 315.444944 78.546658 
L 318.86476 78.430737 
L 322.284576 78.332081 
L 325.704392 78.233425 
L 329.124208 78.090373 
L 332.544025 77.991717 
L 335.963841 77.897993 
L 339.383657 77.814135 
L 342.803473 77.740143 
L 346.223289 77.656285 
L 349.643105 77.565028 
L 353.062921 77.478704 
L 356.482737 77.436775 
L 359.902554 77.365249 
L 363.32237 77.293723 
L 366.742186 77.2 
L 370.162002 77.118608 
L 373.581818 77.029817 
" style="fill:none;stroke:#1f77b4;stroke-linecap:square;stroke-width:1.5;"/>
   </g>
   <g id="line2d_16">
    <path clip-path="url(#pe182e834a5)" d="M 69.218182 242.116364 
L 72.637998 242.116364 
L 76.057814 242.116364 
L 79.47763 242.116364 
L 82.897446 241.978245 
L 86.317263 237.903739 
L 89.737079 224.054859 
L 93.156895 203.916638 
L 96.576711 184.838973 
L 99.996527 168.321439 
L 103.416343 154.608211 
L 106.836159 143.233138 
L 110.255975 134.191287 
L 113.675792 126.597217 
L 117.095608 120.372003 
L 120.515424 114.97057 
L 123.93524 110.365787 
L 127.355056 106.301146 
L 130.774872 102.682926 
L 134.194688 99.560454 
L 137.614505 96.785745 
L 141.034321 94.339068 
L 144.454137 92.050242 
L 147.873953 89.975993 
L 151.293769 88.037396 
L 154.713585 86.185124 
L 158.133401 84.606623 
L 161.553218 83.097181 
L 164.973034 81.595139 
L 168.39285 80.233681 
L 171.812666 78.968414 
L 175.232482 77.777139 
L 178.652298 76.625327 
L 182.072114 75.557372 
L 185.491931 74.499283 
L 188.911747 73.529985 
L 192.331563 72.651943 
L 195.751379 71.754171 
L 199.171195 70.834201 
L 202.591011 70.010421 
L 206.010827 69.198972 
L 209.430644 68.412188 
L 212.85046 67.664867 
L 216.270276 66.890415 
L 219.690092 66.160358 
L 223.109908 65.450032 
L 226.529724 64.863027 
L 229.94954 64.177366 
L 233.369356 63.550898 
L 236.789173 62.912099 
L 240.208989 62.315228 
L 243.628805 61.683828 
L 247.048621 61.040095 
L 250.468437 60.529549 
L 253.888253 59.922812 
L 257.308069 59.333341 
L 260.727886 58.756201 
L 264.147702 58.139599 
L 267.567518 57.641385 
L 270.987334 57.120973 
L 274.40715 56.632624 
L 277.826966 56.109746 
L 281.246782 55.702788 
L 284.666599 55.204574 
L 288.086415 54.765553 
L 291.506231 54.309268 
L 294.926047 53.833251 
L 298.345863 53.384365 
L 301.765679 52.982341 
L 305.185495 52.587715 
L 308.605312 52.101833 
L 312.025128 51.648014 
L 315.444944 51.21146 
L 318.86476 50.787237 
L 322.284576 50.407411 
L 325.704392 49.96839 
L 329.124208 49.536769 
L 332.544025 49.129811 
L 335.963841 48.767249 
L 339.383657 48.375091 
L 342.803473 48.000197 
L 346.223289 47.590773 
L 349.643105 47.171483 
L 353.062921 46.729996 
L 356.482737 46.384699 
L 359.902554 45.911149 
L 363.32237 45.51899 
L 366.742186 45.181092 
L 370.162002 44.850594 
L 373.581818 44.443636 
" style="fill:none;stroke:#ff7f0e;stroke-linecap:square;stroke-width:1.5;"/>
   </g>
   <g id="line2d_17">
    <path clip-path="url(#pe182e834a5)" d="M 69.218182 242.116364 
L 72.637998 242.116364 
L 76.057814 242.116364 
L 79.47763 242.116364 
L 82.897446 242.030039 
L 86.317263 238.261368 
L 89.737079 225.167209 
L 93.156895 207.031711 
L 96.576711 188.701368 
L 99.996527 173.180263 
L 103.416343 160.483195 
L 106.836159 149.956566 
L 110.255975 141.481989 
L 113.675792 134.373801 
L 117.095608 128.274374 
L 120.515424 123.479677 
L 123.93524 119.153598 
L 127.355056 115.468785 
L 130.774872 112.240257 
L 134.194688 109.359492 
L 137.614505 106.880752 
L 141.034321 104.685649 
L 144.454137 102.771717 
L 147.873953 100.966306 
L 151.293769 99.385339 
L 154.713585 97.979486 
L 158.133401 96.729017 
L 161.553218 95.503213 
L 164.973034 94.361266 
L 168.39285 93.45856 
L 171.812666 92.565721 
L 175.232482 91.643284 
L 178.652298 90.804706 
L 182.072114 90.069716 
L 185.491931 89.290331 
L 188.911747 88.6318 
L 192.331563 87.980669 
L 195.751379 87.438059 
L 199.171195 86.939844 
L 202.591011 86.392302 
L 206.010827 85.889155 
L 209.430644 85.378608 
L 212.85046 85.01358 
L 216.270276 84.599223 
L 219.690092 84.211997 
L 223.109908 83.824771 
L 226.529724 83.533735 
L 229.94954 83.161308 
L 233.369356 82.803678 
L 236.789173 82.433717 
L 240.208989 82.189543 
L 243.628805 81.908372 
L 247.048621 81.649399 
L 250.468437 81.373162 
L 253.888253 81.146252 
L 257.308069 80.921809 
L 260.727886 80.719564 
L 264.147702 80.527184 
L 267.567518 80.320006 
L 270.987334 80.120227 
L 274.40715 79.947578 
L 277.826966 79.784795 
L 281.246782 79.604747 
L 284.666599 79.434565 
L 288.086415 79.237253 
L 291.506231 79.044873 
L 294.926047 78.887023 
L 298.345863 78.726706 
L 301.765679 78.578722 
L 305.185495 78.420872 
L 308.605312 78.280286 
L 312.025128 78.115037 
L 315.444944 77.95472 
L 318.86476 77.799337 
L 322.284576 77.668617 
L 325.704392 77.540364 
L 329.124208 77.377581 
L 332.544025 77.251794 
L 335.963841 77.113675 
L 339.383657 76.995288 
L 342.803473 76.874434 
L 346.223289 76.751113 
L 349.643105 76.632726 
L 353.062921 76.52667 
L 356.482737 76.418148 
L 359.902554 76.321958 
L 363.32237 76.18384 
L 366.742186 76.075318 
L 370.162002 75.966796 
L 373.581818 75.841009 
" style="fill:none;stroke:#2ca02c;stroke-linecap:square;stroke-width:1.5;"/>
   </g>
   <g id="line2d_18">
    <path clip-path="url(#pe182e834a5)" d="M 69.218182 242.116364 
L 72.637998 242.116364 
L 76.057814 242.116364 
L 79.47763 242.116364 
L 82.897446 242.000442 
L 86.317263 238.453748 
L 89.737079 225.998388 
L 93.156895 207.579254 
L 96.576711 189.073795 
L 99.996527 173.224658 
L 103.416343 159.925787 
L 106.836159 149.039062 
L 110.255975 139.871424 
L 113.675792 132.284754 
L 117.095608 125.889358 
L 120.515424 120.719767 
L 123.93524 116.053323 
L 127.355056 111.936888 
L 130.774872 108.306336 
L 134.194688 105.12467 
L 137.614505 102.241439 
L 141.034321 99.812027 
L 144.454137 97.587327 
L 147.873953 95.352762 
L 151.293769 93.46596 
L 154.713585 91.707411 
L 158.133401 90.049985 
L 161.553218 88.451752 
L 164.973034 87.031102 
L 168.39285 85.600585 
L 171.812666 84.355049 
L 175.232482 83.111979 
L 178.652298 81.942902 
L 182.072114 80.860149 
L 185.491931 79.755198 
L 188.911747 78.805631 
L 192.331563 77.80427 
L 195.751379 76.918829 
L 199.171195 76.025989 
L 202.591011 75.145482 
L 206.010827 74.326634 
L 209.430644 73.564514 
L 212.85046 72.790062 
L 216.270276 71.951484 
L 219.690092 71.278154 
L 223.109908 70.572762 
L 226.529724 69.869835 
L 229.94954 69.164443 
L 233.369356 68.496046 
L 236.789173 67.852314 
L 240.208989 67.186384 
L 243.628805 66.579647 
L 247.048621 65.921116 
L 250.468437 65.339044 
L 253.888253 64.791502 
L 257.308069 64.219295 
L 260.727886 63.637223 
L 264.147702 63.025553 
L 267.567518 62.524873 
L 270.987334 61.969931 
L 274.40715 61.474183 
L 277.826966 60.887178 
L 281.246782 60.312505 
L 284.666599 59.873484 
L 288.086415 59.365404 
L 291.506231 58.906652 
L 294.926047 58.430636 
L 298.345863 57.981749 
L 301.765679 57.555061 
L 305.185495 57.106175 
L 308.605312 56.689352 
L 312.025128 56.294726 
L 315.444944 55.939564 
L 318.86476 55.475879 
L 322.284576 54.992463 
L 325.704392 54.550976 
L 329.124208 54.134153 
L 332.544025 53.6828 
L 335.963841 53.293108 
L 339.383657 52.92068 
L 342.803473 52.471794 
L 346.223289 52.06977 
L 349.643105 51.672678 
L 353.062921 51.228724 
L 356.482737 50.824234 
L 359.902554 50.47647 
L 363.32237 50.067046 
L 366.742186 49.655156 
L 370.162002 49.26793 
L 373.581818 48.888103 
" style="fill:none;stroke:#d62728;stroke-linecap:square;stroke-width:1.5;"/>
   </g>
   <g id="line2d_19">
    <path clip-path="url(#pe182e834a5)" d="M 69.218182 242.116364 
L 72.637998 242.116364 
L 76.057814 242.116364 
L 79.47763 242.116364 
L 82.897446 241.99551 
L 86.317263 238.722586 
L 89.737079 226.568128 
L 93.156895 209.086229 
L 96.576711 191.379887 
L 99.996527 176.03143 
L 103.416343 163.620466 
L 106.836159 153.426802 
L 110.255975 145.021284 
L 113.675792 138.053682 
L 117.095608 132.205829 
L 120.515424 127.263147 
L 123.93524 123.104783 
L 127.355056 119.602484 
L 130.774872 116.517008 
L 134.194688 113.784228 
L 137.614505 111.428808 
L 141.034321 109.159713 
L 144.454137 107.105195 
L 147.873953 105.361445 
L 151.293769 103.763213 
L 154.713585 102.367226 
L 158.133401 101.08716 
L 161.553218 99.866288 
L 164.973034 98.771203 
L 168.39285 97.789573 
L 171.812666 96.872069 
L 175.232482 96.038423 
L 178.652298 95.268904 
L 182.072114 94.519116 
L 185.491931 93.840854 
L 188.911747 93.155192 
L 192.331563 92.563254 
L 195.751379 92.062574 
L 199.171195 91.497766 
L 202.591011 91.006951 
L 206.010827 90.555598 
L 209.430644 90.096847 
L 212.85046 89.598632 
L 216.270276 89.137414 
L 219.690092 88.767453 
L 223.109908 88.395025 
L 226.529724 88.017665 
L 229.94954 87.682233 
L 233.369356 87.376399 
L 236.789173 87.112493 
L 240.208989 86.82639 
L 243.628805 86.527954 
L 247.048621 86.261582 
L 250.468437 85.958214 
L 253.888253 85.718973 
L 257.308069 85.474798 
L 260.727886 85.265153 
L 264.147702 85.055509 
L 267.567518 84.8212 
L 270.987334 84.638686 
L 274.40715 84.433974 
L 277.826966 84.248993 
L 281.246782 84.051681 
L 284.666599 83.874099 
L 288.086415 83.698984 
L 291.506231 83.506605 
L 294.926047 83.301893 
L 298.345863 83.148975 
L 301.765679 82.971394 
L 305.185495 82.848074 
L 308.605312 82.722287 
L 312.025128 82.581702 
L 315.444944 82.463314 
L 318.86476 82.34246 
L 322.284576 82.204341 
L 325.704392 82.093353 
L 329.124208 81.928104 
L 332.544025 81.782586 
L 335.963841 81.651866 
L 339.383657 81.540878 
L 342.803473 81.395359 
L 346.223289 81.272039 
L 349.643105 81.170916 
L 353.062921 81.064861 
L 356.482737 80.951406 
L 359.902554 80.845351 
L 363.32237 80.739295 
L 366.742186 80.630773 
L 370.162002 80.569113 
L 373.581818 80.482789 
" style="fill:none;stroke:#9467bd;stroke-linecap:square;stroke-width:1.5;"/>
   </g>
   <g id="line2d_20">
    <path clip-path="url(#pe182e834a5)" d="M 69.218182 242.116364 
L 72.637998 242.116364 
L 76.057814 242.116364 
L 79.47763 242.116364 
L 82.897446 242.064569 
L 86.317263 239.025955 
L 89.737079 227.993712 
L 93.156895 211.261601 
L 96.576711 194.620747 
L 99.996527 179.935754 
L 103.416343 167.519857 
L 106.836159 157.123948 
L 110.255975 148.706097 
L 113.675792 141.723697 
L 117.095608 135.796918 
L 120.515424 130.799976 
L 123.93524 126.301248 
L 127.355056 122.631233 
L 130.774872 119.336112 
L 134.194688 116.598399 
L 137.614505 114.114727 
L 141.034321 111.890027 
L 144.454137 109.911968 
L 147.873953 108.04243 
L 151.293769 106.404736 
L 154.713585 104.919958 
L 158.133401 103.630027 
L 161.553218 102.325297 
L 164.973034 101.151287 
L 168.39285 99.992075 
L 171.812666 99.010445 
L 175.232482 98.090475 
L 178.652298 97.24203 
L 182.072114 96.437981 
L 185.491931 95.675861 
L 188.911747 94.958136 
L 192.331563 94.321803 
L 195.751379 93.663272 
L 199.171195 93.022006 
L 202.591011 92.494195 
L 206.010827 91.917056 
L 209.430644 91.362114 
L 212.85046 90.844168 
L 216.270276 90.41748 
L 219.690092 89.948862 
L 223.109908 89.566569 
L 226.529724 89.149746 
L 229.94954 88.757587 
L 233.369356 88.372827 
L 236.789173 88.032463 
L 240.208989 87.701964 
L 243.628805 87.371466 
L 247.048621 87.028635 
L 250.468437 86.752397 
L 253.888253 86.50329 
L 257.308069 86.227053 
L 260.727886 85.990277 
L 264.147702 85.780633 
L 267.567518 85.546324 
L 270.987334 85.326814 
L 274.40715 85.124568 
L 277.826966 84.868062 
L 281.246782 84.66335 
L 284.666599 84.473437 
L 288.086415 84.25146 
L 291.506231 84.039349 
L 294.926047 83.869167 
L 298.345863 83.703917 
L 301.765679 83.48934 
L 305.185495 83.309292 
L 308.605312 83.171173 
L 312.025128 83.003457 
L 315.444944 82.860406 
L 318.86476 82.714888 
L 322.284576 82.559504 
L 325.704392 82.409053 
L 329.124208 82.270934 
L 332.544025 82.15008 
L 335.963841 82.009495 
L 339.383657 81.886175 
L 342.803473 81.755455 
L 346.223289 81.649399 
L 349.643105 81.533478 
L 353.062921 81.395359 
L 356.482737 81.274505 
L 359.902554 81.146252 
L 363.32237 81.017999 
L 366.742186 80.899611 
L 370.162002 80.768892 
L 373.581818 80.635706 
" style="fill:none;stroke:#8c564b;stroke-linecap:square;stroke-width:1.5;"/>
   </g>
   <g id="patch_3">
    <path d="M 54 252 
L 54 34.56 
" style="fill:none;stroke:#000000;stroke-linecap:square;stroke-linejoin:miter;stroke-width:0.8;"/>
   </g>
   <g id="patch_4">
    <path d="M 388.8 252 
L 388.8 34.56 
" style="fill:none;stroke:#000000;stroke-linecap:square;stroke-linejoin:miter;stroke-width:0.8;"/>
   </g>
   <g id="patch_5">
    <path d="M 54 252 
L 388.8 252 
" style="fill:none;stroke:#000000;stroke-linecap:square;stroke-linejoin:miter;stroke-width:0.8;"/>
   </g>
   <g id="patch_6">
    <path d="M 54 34.56 
L 388.8 34.56 
" style="fill:none;stroke:#000000;stroke-linecap:square;stroke-linejoin:miter;stroke-width:0.8;"/>
   </g>
   <g id="legend_1">
    <g id="patch_7">
     <path d="M 61 130.62875 
L 102.882812 130.62875 
Q 104.882812 130.62875 104.882812 128.62875 
L 104.882812 41.56 
Q 104.882812 39.56 102.882812 39.56 
L 61 39.56 
Q 59 39.56 59 41.56 
L 59 128.62875 
Q 59 130.62875 61 130.62875 
z
" style="fill:#ffffff;opacity:0.8;stroke:#cccccc;stroke-linejoin:miter;"/>
    </g>
    <g id="line2d_21">
     <path d="M 63 47.658437 
L 83 47.658437 
" style="fill:none;stroke:#1f77b4;stroke-linecap:square;stroke-width:1.5;"/>
    </g>
    <g id="line2d_22"/>
    <g id="text_17">
     <!-- f0 -->
     <defs>
      <path d="M 37.109375 75.984375 
L 37.109375 68.5 
L 28.515625 68.5 
Q 23.6875 68.5 21.796875 66.546875 
Q 19.921875 64.59375 19.921875 59.515625 
L 19.921875 54.6875 
L 34.71875 54.6875 
L 34.71875 47.703125 
L 19.921875 47.703125 
L 19.921875 0 
L 10.890625 0 
L 10.890625 47.703125 
L 2.296875 47.703125 
L 2.296875 54.6875 
L 10.890625 54.6875 
L 10.890625 58.5 
Q 10.890625 67.625 15.140625 71.796875 
Q 19.390625 75.984375 28.609375 75.984375 
z
" id="DejaVuSans-66"/>
     </defs>
     <g transform="translate(91 51.158437)scale(0.1 -0.1)">
      <use xlink:href="#DejaVuSans-66"/>
      <use x="35.205078" xlink:href="#DejaVuSans-30"/>
     </g>
    </g>
    <g id="line2d_23">
     <path d="M 63 62.336562 
L 83 62.336562 
" style="fill:none;stroke:#ff7f0e;stroke-linecap:square;stroke-width:1.5;"/>
    </g>
    <g id="line2d_24"/>
    <g id="text_18">
     <!-- f1 -->
     <g transform="translate(91 65.836562)scale(0.1 -0.1)">
      <use xlink:href="#DejaVuSans-66"/>
      <use x="35.205078" xlink:href="#DejaVuSans-31"/>
     </g>
    </g>
    <g id="line2d_25">
     <path d="M 63 77.014687 
L 83 77.014687 
" style="fill:none;stroke:#2ca02c;stroke-linecap:square;stroke-width:1.5;"/>
    </g>
    <g id="line2d_26"/>
    <g id="text_19">
     <!-- f2 -->
     <g transform="translate(91 80.514687)scale(0.1 -0.1)">
      <use xlink:href="#DejaVuSans-66"/>
      <use x="35.205078" xlink:href="#DejaVuSans-32"/>
     </g>
    </g>
    <g id="line2d_27">
     <path d="M 63 91.692813 
L 83 91.692813 
" style="fill:none;stroke:#d62728;stroke-linecap:square;stroke-width:1.5;"/>
    </g>
    <g id="line2d_28"/>
    <g id="text_20">
     <!-- f3 -->
     <g transform="translate(91 95.192813)scale(0.1 -0.1)">
      <use xlink:href="#DejaVuSans-66"/>
      <use x="35.205078" xlink:href="#DejaVuSans-33"/>
     </g>
    </g>
    <g id="line2d_29">
     <path d="M 63 106.370937 
L 83 106.370937 
" style="fill:none;stroke:#9467bd;stroke-linecap:square;stroke-width:1.5;"/>
    </g>
    <g id="line2d_30"/>
    <g id="text_21">
     <!-- f4 -->
     <g transform="translate(91 109.870937)scale(0.1 -0.1)">
      <use xlink:href="#DejaVuSans-66"/>
      <use x="35.205078" xlink:href="#DejaVuSans-34"/>
     </g>
    </g>
    <g id="line2d_31">
     <path d="M 63 121.049062 
L 83 121.049062 
" style="fill:none;stroke:#8c564b;stroke-linecap:square;stroke-width:1.5;"/>
    </g>
    <g id="line2d_32"/>
    <g id="text_22">
     <!-- f5 -->
     <g transform="translate(91 124.549062)scale(0.1 -0.1)">
      <use xlink:href="#DejaVuSans-66"/>
      <use x="35.205078" xlink:href="#DejaVuSans-35"/>
     </g>
    </g>
   </g>
  </g>
 </g>
 <defs>
  <clipPath id="pe182e834a5">
   <rect height="217.44" width="334.8" x="54" y="34.56"/>
  </clipPath>
 </defs>
</svg>
